{
    "header": {
      "keySignatures": [
        {
          "key": "B",
          "scale": "major",
          "ticks": 0
        }
      ],
      "meta": [],
      "name": "Yellow（Coldplay）",
      "ppq": 480,
      "tempos": [
        {
          "bpm": 172.00010320006191,
          "ticks": 0
        }
      ],
      "timeSignatures": [
        {
          "ticks": 0,
          "timeSignature": [
            4,
            4
          ],
          "measures": 0
        }
      ]
    },
    "tracks": [
      {
        "channel": 0,
        "controlChanges": {},
        "pitchBends": [],
        "instrument": {
          "family": "piano",
          "number": 0,
          "name": "acoustic grand piano"
        },
        "name": "untitled",
        "notes": [],
        "endOfTrackTicks": 372480
      },
      {
        "channel": 0,
        "controlChanges": {
          "7": [
            {
              "number": 7,
              "ticks": 0,
              "time": 0,
              "value": 1
            }
          ],
          "10": [
            {
              "number": 10,
              "ticks": 0,
              "time": 0,
              "value": 0.5039370078740157
            }
          ]
        },
        "pitchBends": [],
        "instrument": {
          "family": "synth lead",
          "number": 80,
          "name": "lead 1 (square)"
        },
        "name": "",
        "notes": [
          {
            "duration": 0.3488370000000032,
            "durationTicks": 480,
            "midi": 73,
            "name": "C#5",
            "ticks": 48480,
            "time": 35.232537,
            "velocity": 0.9448818897637795
          },
          {
            "duration": 0.34883699999999607,
            "durationTicks": 480,
            "midi": 75,
            "name": "D#5",
            "ticks": 48960,
            "time": 35.581374000000004,
            "velocity": 0.9448818897637795
          },
          {
            "duration": 0.3488370000000032,
            "durationTicks": 480,
            "midi": 73,
            "name": "C#5",
            "ticks": 49440,
            "time": 35.930211,
            "velocity": 0.9448818897637795
          },
          {
            "duration": 0.6976739999999992,
            "durationTicks": 960,
            "midi": 75,
            "name": "D#5",
            "ticks": 49920,
            "time": 36.279048,
            "velocity": 0.9448818897637795
          },
          {
            "duration": 0.3488370000000032,
            "durationTicks": 480,
            "midi": 73,
            "name": "C#5",
            "ticks": 52320,
            "time": 38.023233,
            "velocity": 0.9448818897637795
          },
          {
            "duration": 0.3488370000000032,
            "durationTicks": 480,
            "midi": 75,
            "name": "D#5",
            "ticks": 52800,
            "time": 38.37207,
            "velocity": 0.9448818897637795
          },
          {
            "duration": 0.34883699999999607,
            "durationTicks": 480,
            "midi": 73,
            "name": "C#5",
            "ticks": 53280,
            "time": 38.720907000000004,
            "velocity": 0.9448818897637795
          },
          {
            "duration": 0.6976739999999992,
            "durationTicks": 960,
            "midi": 75,
            "name": "D#5",
            "ticks": 53760,
            "time": 39.069744,
            "velocity": 0.9448818897637795
          },
          {
            "duration": 1.0465110000000024,
            "durationTicks": 1440,
            "midi": 78,
            "name": "F#5",
            "ticks": 54720,
            "time": 39.767418,
            "velocity": 0.9448818897637795
          },
          {
            "duration": 0.5232554999999977,
            "durationTicks": 720,
            "midi": 73,
            "name": "C#5",
            "ticks": 56160,
            "time": 40.813929,
            "velocity": 0.9448818897637795
          },
          {
            "duration": 0.34883699999999607,
            "durationTicks": 480,
            "midi": 73,
            "name": "C#5",
            "ticks": 60480,
            "time": 43.953462,
            "velocity": 0.9448818897637795
          },
          {
            "duration": 0.3488370000000032,
            "durationTicks": 480,
            "midi": 71,
            "name": "B4",
            "ticks": 60960,
            "time": 44.302299,
            "velocity": 0.9448818897637795
          },
          {
            "duration": 0.5232554999999977,
            "durationTicks": 720,
            "midi": 73,
            "name": "C#5",
            "ticks": 61440,
            "time": 44.651136,
            "velocity": 0.9448818897637795
          },
          {
            "duration": 0.5377903750000002,
            "durationTicks": 740,
            "midi": 78,
            "name": "F#5",
            "ticks": 62160,
            "time": 45.1743915,
            "velocity": 0.9448818897637795
          },
          {
            "duration": 0.6976739999999992,
            "durationTicks": 960,
            "midi": 71,
            "name": "B4",
            "ticks": 62880,
            "time": 45.697647,
            "velocity": 0.9448818897637795
          },
          {
            "duration": 0.1744185000000016,
            "durationTicks": 240,
            "midi": 68,
            "name": "G#4",
            "ticks": 67920,
            "time": 49.3604355,
            "velocity": 0.9448818897637795
          },
          {
            "duration": 0.1744185000000016,
            "durationTicks": 240,
            "midi": 71,
            "name": "B4",
            "ticks": 68160,
            "time": 49.534854,
            "velocity": 0.9448818897637795
          },
          {
            "duration": 0.17441849999999448,
            "durationTicks": 240,
            "midi": 68,
            "name": "G#4",
            "ticks": 68400,
            "time": 49.709272500000004,
            "velocity": 0.9448818897637795
          },
          {
            "duration": 0.5232555000000048,
            "durationTicks": 720,
            "midi": 71,
            "name": "B4",
            "ticks": 68640,
            "time": 49.883691,
            "velocity": 0.9448818897637795
          },
          {
            "duration": 0.1744185000000016,
            "durationTicks": 240,
            "midi": 71,
            "name": "B4",
            "ticks": 69600,
            "time": 50.581365,
            "velocity": 0.9448818897637795
          },
          {
            "duration": 0.1744185000000016,
            "durationTicks": 240,
            "midi": 68,
            "name": "G#4",
            "ticks": 69840,
            "time": 50.7557835,
            "velocity": 0.9448818897637795
          },
          {
            "duration": 0.3488370000000032,
            "durationTicks": 480,
            "midi": 66,
            "name": "F#4",
            "ticks": 70080,
            "time": 50.930202,
            "velocity": 0.9448818897637795
          },
          {
            "duration": 0.34883699999999607,
            "durationTicks": 480,
            "midi": 73,
            "name": "C#5",
            "ticks": 71520,
            "time": 51.976713000000004,
            "velocity": 0.9448818897637795
          },
          {
            "duration": 0.3488370000000032,
            "durationTicks": 480,
            "midi": 75,
            "name": "D#5",
            "ticks": 72000,
            "time": 52.32555,
            "velocity": 0.9448818897637795
          },
          {
            "duration": 0.34883699999999607,
            "durationTicks": 480,
            "midi": 73,
            "name": "C#5",
            "ticks": 72480,
            "time": 52.674387,
            "velocity": 0.9448818897637795
          },
          {
            "duration": 0.6976739999999992,
            "durationTicks": 960,
            "midi": 75,
            "name": "D#5",
            "ticks": 72960,
            "time": 53.023224,
            "velocity": 0.9448818897637795
          },
          {
            "duration": 0.3488370000000032,
            "durationTicks": 480,
            "midi": 73,
            "name": "C#5",
            "ticks": 75360,
            "time": 54.767409,
            "velocity": 0.9448818897637795
          },
          {
            "duration": 0.34883699999999607,
            "durationTicks": 480,
            "midi": 75,
            "name": "D#5",
            "ticks": 75840,
            "time": 55.116246000000004,
            "velocity": 0.9448818897637795
          },
          {
            "duration": 0.3488370000000032,
            "durationTicks": 480,
            "midi": 73,
            "name": "C#5",
            "ticks": 76320,
            "time": 55.465083,
            "velocity": 0.9448818897637795
          },
          {
            "duration": 0.5232554999999977,
            "durationTicks": 720,
            "midi": 75,
            "name": "D#5",
            "ticks": 76800,
            "time": 55.81392,
            "velocity": 0.9448818897637795
          },
          {
            "duration": 1.0901156250000028,
            "durationTicks": 1500,
            "midi": 78,
            "name": "F#5",
            "ticks": 77520,
            "time": 56.3371755,
            "velocity": 0.9448818897637795
          },
          {
            "duration": 0.34883699999999607,
            "durationTicks": 480,
            "midi": 73,
            "name": "C#5",
            "ticks": 78960,
            "time": 57.3836865,
            "velocity": 0.9448818897637795
          },
          {
            "duration": 0.3488370000000032,
            "durationTicks": 480,
            "midi": 71,
            "name": "B4",
            "ticks": 83040,
            "time": 60.348801,
            "velocity": 0.9448818897637795
          },
          {
            "duration": 0.34883699999999607,
            "durationTicks": 480,
            "midi": 73,
            "name": "C#5",
            "ticks": 83520,
            "time": 60.697638000000005,
            "velocity": 0.9448818897637795
          },
          {
            "duration": 0.3488370000000032,
            "durationTicks": 480,
            "midi": 71,
            "name": "B4",
            "ticks": 84000,
            "time": 61.046475,
            "velocity": 0.9448818897637795
          },
          {
            "duration": 0.5232554999999977,
            "durationTicks": 720,
            "midi": 73,
            "name": "C#5",
            "ticks": 84480,
            "time": 61.395312000000004,
            "velocity": 0.9448818897637795
          },
          {
            "duration": 0.5232554999999977,
            "durationTicks": 720,
            "midi": 78,
            "name": "F#5",
            "ticks": 85200,
            "time": 61.9185675,
            "velocity": 0.9448818897637795
          },
          {
            "duration": 1.0465110000000024,
            "durationTicks": 1440,
            "midi": 71,
            "name": "B4",
            "ticks": 85920,
            "time": 62.441823,
            "velocity": 0.9448818897637795
          },
          {
            "duration": 0.1744185000000016,
            "durationTicks": 240,
            "midi": 71,
            "name": "B4",
            "ticks": 91200,
            "time": 66.27903,
            "velocity": 0.9448818897637795
          },
          {
            "duration": 0.17441849999998738,
            "durationTicks": 240,
            "midi": 68,
            "name": "G#4",
            "ticks": 91440,
            "time": 66.45344850000001,
            "velocity": 0.9448818897637795
          },
          {
            "duration": 0.5668601250000052,
            "durationTicks": 780,
            "midi": 71,
            "name": "B4",
            "ticks": 91680,
            "time": 66.627867,
            "velocity": 0.9448818897637795
          },
          {
            "duration": 0.1744185000000016,
            "durationTicks": 240,
            "midi": 71,
            "name": "B4",
            "ticks": 92640,
            "time": 67.325541,
            "velocity": 0.9448818897637795
          },
          {
            "duration": 0.1744185000000016,
            "durationTicks": 240,
            "midi": 68,
            "name": "G#4",
            "ticks": 92880,
            "time": 67.4999595,
            "velocity": 0.9448818897637795
          },
          {
            "duration": 0.3488370000000032,
            "durationTicks": 480,
            "midi": 66,
            "name": "F#4",
            "ticks": 93120,
            "time": 67.674378,
            "velocity": 0.9448818897637795
          },
          {
            "duration": 0.3488370000000032,
            "durationTicks": 480,
            "midi": 73,
            "name": "C#5",
            "ticks": 98400,
            "time": 71.511585,
            "velocity": 0.9448818897637795
          },
          {
            "duration": 0.3488370000000032,
            "durationTicks": 480,
            "midi": 75,
            "name": "D#5",
            "ticks": 98880,
            "time": 71.860422,
            "velocity": 0.9448818897637795
          },
          {
            "duration": 0.3488370000000032,
            "durationTicks": 480,
            "midi": 73,
            "name": "C#5",
            "ticks": 99360,
            "time": 72.209259,
            "velocity": 0.9448818897637795
          },
          {
            "duration": 0.5232554999999905,
            "durationTicks": 720,
            "midi": 75,
            "name": "D#5",
            "ticks": 99840,
            "time": 72.558096,
            "velocity": 0.9448818897637795
          },
          {
            "duration": 1.09011562500001,
            "durationTicks": 1500,
            "midi": 78,
            "name": "F#5",
            "ticks": 100560,
            "time": 73.0813515,
            "velocity": 0.9448818897637795
          },
          {
            "duration": 0.34883699999998896,
            "durationTicks": 480,
            "midi": 73,
            "name": "C#5",
            "ticks": 102000,
            "time": 74.1278625,
            "velocity": 0.9448818897637795
          },
          {
            "duration": 0.3488370000000032,
            "durationTicks": 480,
            "midi": 71,
            "name": "B4",
            "ticks": 106080,
            "time": 77.092977,
            "velocity": 0.9448818897637795
          },
          {
            "duration": 0.34883699999998896,
            "durationTicks": 480,
            "midi": 73,
            "name": "C#5",
            "ticks": 106560,
            "time": 77.44181400000001,
            "velocity": 0.9448818897637795
          },
          {
            "duration": 0.3488370000000032,
            "durationTicks": 480,
            "midi": 71,
            "name": "B4",
            "ticks": 107040,
            "time": 77.790651,
            "velocity": 0.9448818897637795
          },
          {
            "duration": 0.5232555000000048,
            "durationTicks": 720,
            "midi": 73,
            "name": "C#5",
            "ticks": 107520,
            "time": 78.139488,
            "velocity": 0.9448818897637795
          },
          {
            "duration": 0.5232554999999905,
            "durationTicks": 720,
            "midi": 78,
            "name": "F#5",
            "ticks": 108240,
            "time": 78.6627435,
            "velocity": 0.9448818897637795
          },
          {
            "duration": 1.0465110000000095,
            "durationTicks": 1440,
            "midi": 71,
            "name": "B4",
            "ticks": 108960,
            "time": 79.185999,
            "velocity": 0.9448818897637795
          },
          {
            "duration": 0.1744185000000016,
            "durationTicks": 240,
            "midi": 71,
            "name": "B4",
            "ticks": 114240,
            "time": 83.023206,
            "velocity": 0.9448818897637795
          },
          {
            "duration": 0.1744185000000016,
            "durationTicks": 240,
            "midi": 68,
            "name": "G#4",
            "ticks": 114480,
            "time": 83.1976245,
            "velocity": 0.9448818897637795
          },
          {
            "duration": 0.5668601249999909,
            "durationTicks": 780,
            "midi": 71,
            "name": "B4",
            "ticks": 114720,
            "time": 83.372043,
            "velocity": 0.9448818897637795
          },
          {
            "duration": 0.1744185000000016,
            "durationTicks": 240,
            "midi": 71,
            "name": "B4",
            "ticks": 115680,
            "time": 84.069717,
            "velocity": 0.9448818897637795
          },
          {
            "duration": 0.1744185000000016,
            "durationTicks": 240,
            "midi": 68,
            "name": "G#4",
            "ticks": 115920,
            "time": 84.2441355,
            "velocity": 0.9448818897637795
          },
          {
            "duration": 0.3488370000000032,
            "durationTicks": 480,
            "midi": 66,
            "name": "F#4",
            "ticks": 116160,
            "time": 84.418554,
            "velocity": 0.9448818897637795
          },
          {
            "duration": 0.6976739999999921,
            "durationTicks": 960,
            "midi": 71,
            "name": "B4",
            "ticks": 125760,
            "time": 91.395294,
            "velocity": 0.9448818897637795
          },
          {
            "duration": 1.0465110000000095,
            "durationTicks": 1440,
            "midi": 80,
            "name": "G#5",
            "ticks": 126720,
            "time": 92.092968,
            "velocity": 0.9448818897637795
          },
          {
            "duration": 0.26162774999998817,
            "durationTicks": 360,
            "midi": 78,
            "name": "F#5",
            "ticks": 128160,
            "time": 93.13947900000001,
            "velocity": 0.9448818897637795
          },
          {
            "duration": 0.3488370000000032,
            "durationTicks": 480,
            "midi": 71,
            "name": "B4",
            "ticks": 129120,
            "time": 93.837153,
            "velocity": 0.9448818897637795
          },
          {
            "duration": 0.3488370000000032,
            "durationTicks": 480,
            "midi": 71,
            "name": "B4",
            "ticks": 129600,
            "time": 94.18599,
            "velocity": 0.9448818897637795
          },
          {
            "duration": 0.34883699999998896,
            "durationTicks": 480,
            "midi": 78,
            "name": "F#5",
            "ticks": 130080,
            "time": 94.534827,
            "velocity": 0.9448818897637795
          },
          {
            "duration": 0.3488370000000032,
            "durationTicks": 480,
            "midi": 78,
            "name": "F#5",
            "ticks": 130560,
            "time": 94.883664,
            "velocity": 0.9448818897637795
          },
          {
            "duration": 0.3488370000000032,
            "durationTicks": 480,
            "midi": 75,
            "name": "D#5",
            "ticks": 131040,
            "time": 95.232501,
            "velocity": 0.9448818897637795
          },
          {
            "duration": 0.5668601250000052,
            "durationTicks": 780,
            "midi": 75,
            "name": "D#5",
            "ticks": 131520,
            "time": 95.581338,
            "velocity": 0.9448818897637795
          },
          {
            "duration": 0.6976740000000063,
            "durationTicks": 960,
            "midi": 71,
            "name": "B4",
            "ticks": 133440,
            "time": 96.976686,
            "velocity": 0.9448818897637795
          },
          {
            "duration": 1.0465109999999953,
            "durationTicks": 1440,
            "midi": 80,
            "name": "G#5",
            "ticks": 134400,
            "time": 97.67436000000001,
            "velocity": 0.9448818897637795
          },
          {
            "duration": 0.2616277500000024,
            "durationTicks": 360,
            "midi": 78,
            "name": "F#5",
            "ticks": 135840,
            "time": 98.720871,
            "velocity": 0.9448818897637795
          },
          {
            "duration": 0.34883699999998896,
            "durationTicks": 480,
            "midi": 71,
            "name": "B4",
            "ticks": 136800,
            "time": 99.41854500000001,
            "velocity": 0.9448818897637795
          },
          {
            "duration": 0.3488370000000032,
            "durationTicks": 480,
            "midi": 71,
            "name": "B4",
            "ticks": 137280,
            "time": 99.767382,
            "velocity": 0.9448818897637795
          },
          {
            "duration": 0.3488370000000032,
            "durationTicks": 480,
            "midi": 78,
            "name": "F#5",
            "ticks": 137760,
            "time": 100.116219,
            "velocity": 0.9448818897637795
          },
          {
            "duration": 0.3488370000000032,
            "durationTicks": 480,
            "midi": 78,
            "name": "F#5",
            "ticks": 138240,
            "time": 100.465056,
            "velocity": 0.9448818897637795
          },
          {
            "duration": 0.34883699999998896,
            "durationTicks": 480,
            "midi": 75,
            "name": "D#5",
            "ticks": 138720,
            "time": 100.81389300000001,
            "velocity": 0.9448818897637795
          },
          {
            "duration": 0.5668601250000052,
            "durationTicks": 780,
            "midi": 75,
            "name": "D#5",
            "ticks": 139200,
            "time": 101.16273,
            "velocity": 0.9448818897637795
          },
          {
            "duration": 0.6976739999999921,
            "durationTicks": 960,
            "midi": 71,
            "name": "B4",
            "ticks": 141120,
            "time": 102.55807800000001,
            "velocity": 0.9448818897637795
          },
          {
            "duration": 1.0465109999999953,
            "durationTicks": 1440,
            "midi": 80,
            "name": "G#5",
            "ticks": 142080,
            "time": 103.255752,
            "velocity": 0.9448818897637795
          },
          {
            "duration": 0.2616277500000024,
            "durationTicks": 360,
            "midi": 78,
            "name": "F#5",
            "ticks": 143520,
            "time": 104.302263,
            "velocity": 0.9448818897637795
          },
          {
            "duration": 0.3488370000000032,
            "durationTicks": 480,
            "midi": 71,
            "name": "B4",
            "ticks": 144480,
            "time": 104.999937,
            "velocity": 0.9448818897637795
          },
          {
            "duration": 0.3488370000000032,
            "durationTicks": 480,
            "midi": 71,
            "name": "B4",
            "ticks": 144960,
            "time": 105.348774,
            "velocity": 0.9448818897637795
          },
          {
            "duration": 0.34883699999998896,
            "durationTicks": 480,
            "midi": 78,
            "name": "F#5",
            "ticks": 145440,
            "time": 105.69761100000001,
            "velocity": 0.9448818897637795
          },
          {
            "duration": 0.3488370000000032,
            "durationTicks": 480,
            "midi": 78,
            "name": "F#5",
            "ticks": 145920,
            "time": 106.046448,
            "velocity": 0.9448818897637795
          },
          {
            "duration": 0.3488370000000032,
            "durationTicks": 480,
            "midi": 75,
            "name": "D#5",
            "ticks": 146400,
            "time": 106.395285,
            "velocity": 0.9448818897637795
          },
          {
            "duration": 0.5668601250000052,
            "durationTicks": 780,
            "midi": 75,
            "name": "D#5",
            "ticks": 146880,
            "time": 106.744122,
            "velocity": 0.9448818897637795
          },
          {
            "duration": 0.1744185000000016,
            "durationTicks": 240,
            "midi": 71,
            "name": "B4",
            "ticks": 147840,
            "time": 107.441796,
            "velocity": 0.9448818897637795
          },
          {
            "duration": 0.6976740000000063,
            "durationTicks": 960,
            "midi": 68,
            "name": "G#4",
            "ticks": 148080,
            "time": 107.6162145,
            "velocity": 0.9448818897637795
          },
          {
            "duration": 0.2616277500000024,
            "durationTicks": 360,
            "midi": 71,
            "name": "B4",
            "ticks": 152160,
            "time": 110.581329,
            "velocity": 0.9448818897637795
          },
          {
            "duration": 0.3488370000000032,
            "durationTicks": 480,
            "midi": 71,
            "name": "B4",
            "ticks": 152640,
            "time": 110.930166,
            "velocity": 0.9448818897637795
          },
          {
            "duration": 0.1744185000000016,
            "durationTicks": 240,
            "midi": 78,
            "name": "F#5",
            "ticks": 153120,
            "time": 111.279003,
            "velocity": 0.9448818897637795
          },
          {
            "duration": 0.3488370000000032,
            "durationTicks": 480,
            "midi": 78,
            "name": "F#5",
            "ticks": 153600,
            "time": 111.62784,
            "velocity": 0.9448818897637795
          },
          {
            "duration": 0.17441849999998738,
            "durationTicks": 240,
            "midi": 75,
            "name": "D#5",
            "ticks": 154080,
            "time": 111.97667700000001,
            "velocity": 0.9448818897637795
          },
          {
            "duration": 0.5232555000000048,
            "durationTicks": 720,
            "midi": 75,
            "name": "D#5",
            "ticks": 154560,
            "time": 112.325514,
            "velocity": 0.9448818897637795
          },
          {
            "duration": 0.3488370000000032,
            "durationTicks": 480,
            "midi": 73,
            "name": "C#5",
            "ticks": 186720,
            "time": 135.697593,
            "velocity": 0.9448818897637795
          },
          {
            "duration": 0.34883699999997475,
            "durationTicks": 480,
            "midi": 75,
            "name": "D#5",
            "ticks": 187200,
            "time": 136.04643000000002,
            "velocity": 0.9448818897637795
          },
          {
            "duration": 0.3488370000000032,
            "durationTicks": 480,
            "midi": 73,
            "name": "C#5",
            "ticks": 187680,
            "time": 136.395267,
            "velocity": 0.9448818897637795
          },
          {
            "duration": 0.6976740000000063,
            "durationTicks": 960,
            "midi": 75,
            "name": "D#5",
            "ticks": 188160,
            "time": 136.744104,
            "velocity": 0.9448818897637795
          },
          {
            "duration": 0.3488370000000032,
            "durationTicks": 480,
            "midi": 73,
            "name": "C#5",
            "ticks": 190560,
            "time": 138.488289,
            "velocity": 0.9448818897637795
          },
          {
            "duration": 0.3488370000000032,
            "durationTicks": 480,
            "midi": 75,
            "name": "D#5",
            "ticks": 191040,
            "time": 138.837126,
            "velocity": 0.9448818897637795
          },
          {
            "duration": 0.34883699999997475,
            "durationTicks": 480,
            "midi": 73,
            "name": "C#5",
            "ticks": 191520,
            "time": 139.18596300000002,
            "velocity": 0.9448818897637795
          },
          {
            "duration": 0.6976740000000063,
            "durationTicks": 960,
            "midi": 75,
            "name": "D#5",
            "ticks": 192000,
            "time": 139.5348,
            "velocity": 0.9448818897637795
          },
          {
            "duration": 1.0465110000000095,
            "durationTicks": 1440,
            "midi": 78,
            "name": "F#5",
            "ticks": 192960,
            "time": 140.232474,
            "velocity": 0.9448818897637795
          },
          {
            "duration": 0.5232555000000048,
            "durationTicks": 720,
            "midi": 73,
            "name": "C#5",
            "ticks": 194400,
            "time": 141.278985,
            "velocity": 0.9448818897637795
          },
          {
            "duration": 0.3488370000000032,
            "durationTicks": 480,
            "midi": 73,
            "name": "C#5",
            "ticks": 198720,
            "time": 144.418518,
            "velocity": 0.9448818897637795
          },
          {
            "duration": 0.3488370000000032,
            "durationTicks": 480,
            "midi": 71,
            "name": "B4",
            "ticks": 199200,
            "time": 144.767355,
            "velocity": 0.9448818897637795
          },
          {
            "duration": 0.5232555000000048,
            "durationTicks": 720,
            "midi": 73,
            "name": "C#5",
            "ticks": 199680,
            "time": 145.116192,
            "velocity": 0.9448818897637795
          },
          {
            "duration": 0.5377903749999859,
            "durationTicks": 740,
            "midi": 78,
            "name": "F#5",
            "ticks": 200400,
            "time": 145.63944750000002,
            "velocity": 0.9448818897637795
          },
          {
            "duration": 0.6976740000000063,
            "durationTicks": 960,
            "midi": 71,
            "name": "B4",
            "ticks": 201120,
            "time": 146.162703,
            "velocity": 0.9448818897637795
          },
          {
            "duration": 0.1744185000000016,
            "durationTicks": 240,
            "midi": 68,
            "name": "G#4",
            "ticks": 206160,
            "time": 149.8254915,
            "velocity": 0.9448818897637795
          },
          {
            "duration": 0.1744185000000016,
            "durationTicks": 240,
            "midi": 71,
            "name": "B4",
            "ticks": 206400,
            "time": 149.99991,
            "velocity": 0.9448818897637795
          },
          {
            "duration": 0.1744185000000016,
            "durationTicks": 240,
            "midi": 68,
            "name": "G#4",
            "ticks": 206640,
            "time": 150.1743285,
            "velocity": 0.9448818897637795
          },
          {
            "duration": 0.5232555000000048,
            "durationTicks": 720,
            "midi": 71,
            "name": "B4",
            "ticks": 206880,
            "time": 150.348747,
            "velocity": 0.9448818897637795
          },
          {
            "duration": 0.1744185000000016,
            "durationTicks": 240,
            "midi": 71,
            "name": "B4",
            "ticks": 207840,
            "time": 151.046421,
            "velocity": 0.9448818897637795
          },
          {
            "duration": 0.1744185000000016,
            "durationTicks": 240,
            "midi": 68,
            "name": "G#4",
            "ticks": 208080,
            "time": 151.2208395,
            "velocity": 0.9448818897637795
          },
          {
            "duration": 0.3488370000000032,
            "durationTicks": 480,
            "midi": 66,
            "name": "F#4",
            "ticks": 208320,
            "time": 151.395258,
            "velocity": 0.9448818897637795
          },
          {
            "duration": 0.3488370000000032,
            "durationTicks": 480,
            "midi": 73,
            "name": "C#5",
            "ticks": 209760,
            "time": 152.441769,
            "velocity": 0.9448818897637795
          },
          {
            "duration": 0.3488370000000032,
            "durationTicks": 480,
            "midi": 75,
            "name": "D#5",
            "ticks": 210240,
            "time": 152.790606,
            "velocity": 0.9448818897637795
          },
          {
            "duration": 0.3488370000000032,
            "durationTicks": 480,
            "midi": 73,
            "name": "C#5",
            "ticks": 210720,
            "time": 153.139443,
            "velocity": 0.9448818897637795
          },
          {
            "duration": 0.6104647500000056,
            "durationTicks": 840,
            "midi": 75,
            "name": "D#5",
            "ticks": 211200,
            "time": 153.48828,
            "velocity": 0.9448818897637795
          },
          {
            "duration": 0.0872092500000008,
            "durationTicks": 120,
            "midi": 73,
            "name": "C#5",
            "ticks": 212040,
            "time": 154.09874475,
            "velocity": 0.9448818897637795
          },
          {
            "duration": 0.2616277500000024,
            "durationTicks": 360,
            "midi": 71,
            "name": "B4",
            "ticks": 212160,
            "time": 154.185954,
            "velocity": 0.9448818897637795
          },
          {
            "duration": 0.3488370000000032,
            "durationTicks": 480,
            "midi": 73,
            "name": "C#5",
            "ticks": 213600,
            "time": 155.232465,
            "velocity": 0.9448818897637795
          },
          {
            "duration": 0.3488370000000032,
            "durationTicks": 480,
            "midi": 75,
            "name": "D#5",
            "ticks": 214080,
            "time": 155.581302,
            "velocity": 0.9448818897637795
          },
          {
            "duration": 0.3488370000000032,
            "durationTicks": 480,
            "midi": 73,
            "name": "C#5",
            "ticks": 214560,
            "time": 155.930139,
            "velocity": 0.9448818897637795
          },
          {
            "duration": 0.5232555000000048,
            "durationTicks": 720,
            "midi": 75,
            "name": "D#5",
            "ticks": 215040,
            "time": 156.278976,
            "velocity": 0.9448818897637795
          },
          {
            "duration": 1.09011562500001,
            "durationTicks": 1500,
            "midi": 78,
            "name": "F#5",
            "ticks": 215760,
            "time": 156.8022315,
            "velocity": 0.9448818897637795
          },
          {
            "duration": 0.8284878749999791,
            "durationTicks": 1140,
            "midi": 73,
            "name": "C#5",
            "ticks": 217200,
            "time": 157.84874250000001,
            "velocity": 0.9448818897637795
          },
          {
            "duration": 0.3488370000000032,
            "durationTicks": 480,
            "midi": 71,
            "name": "B4",
            "ticks": 221280,
            "time": 160.813857,
            "velocity": 0.9448818897637795
          },
          {
            "duration": 0.34883699999997475,
            "durationTicks": 480,
            "midi": 73,
            "name": "C#5",
            "ticks": 221760,
            "time": 161.16269400000002,
            "velocity": 0.9448818897637795
          },
          {
            "duration": 0.3488370000000032,
            "durationTicks": 480,
            "midi": 71,
            "name": "B4",
            "ticks": 222240,
            "time": 161.511531,
            "velocity": 0.9448818897637795
          },
          {
            "duration": 0.6976740000000063,
            "durationTicks": 960,
            "midi": 80,
            "name": "G#5",
            "ticks": 222720,
            "time": 161.860368,
            "velocity": 0.9448818897637795
          },
          {
            "duration": 0.3488370000000032,
            "durationTicks": 480,
            "midi": 73,
            "name": "C#5",
            "ticks": 223680,
            "time": 162.558042,
            "velocity": 0.9448818897637795
          },
          {
            "duration": 0.3488370000000032,
            "durationTicks": 480,
            "midi": 71,
            "name": "B4",
            "ticks": 224160,
            "time": 162.906879,
            "velocity": 0.9448818897637795
          },
          {
            "duration": 0.1744185000000016,
            "durationTicks": 240,
            "midi": 71,
            "name": "B4",
            "ticks": 229440,
            "time": 166.744086,
            "velocity": 0.9448818897637795
          },
          {
            "duration": 0.1744185000000016,
            "durationTicks": 240,
            "midi": 68,
            "name": "G#4",
            "ticks": 229680,
            "time": 166.9185045,
            "velocity": 0.9448818897637795
          },
          {
            "duration": 0.5668601249999767,
            "durationTicks": 780,
            "midi": 71,
            "name": "B4",
            "ticks": 229920,
            "time": 167.092923,
            "velocity": 0.9448818897637795
          },
          {
            "duration": 0.1744185000000016,
            "durationTicks": 240,
            "midi": 71,
            "name": "B4",
            "ticks": 230880,
            "time": 167.790597,
            "velocity": 0.9448818897637795
          },
          {
            "duration": 0.1744185000000016,
            "durationTicks": 240,
            "midi": 68,
            "name": "G#4",
            "ticks": 231120,
            "time": 167.9650155,
            "velocity": 0.9448818897637795
          },
          {
            "duration": 0.3488370000000032,
            "durationTicks": 480,
            "midi": 66,
            "name": "F#4",
            "ticks": 231360,
            "time": 168.139434,
            "velocity": 0.9448818897637795
          },
          {
            "duration": 0.6976740000000063,
            "durationTicks": 960,
            "midi": 71,
            "name": "B4",
            "ticks": 240960,
            "time": 175.116174,
            "velocity": 0.9448818897637795
          },
          {
            "duration": 1.0465110000000095,
            "durationTicks": 1440,
            "midi": 80,
            "name": "G#5",
            "ticks": 241920,
            "time": 175.813848,
            "velocity": 0.9448818897637795
          },
          {
            "duration": 0.26162774999997396,
            "durationTicks": 360,
            "midi": 78,
            "name": "F#5",
            "ticks": 243360,
            "time": 176.86035900000002,
            "velocity": 0.9448818897637795
          },
          {
            "duration": 0.3488370000000032,
            "durationTicks": 480,
            "midi": 71,
            "name": "B4",
            "ticks": 244320,
            "time": 177.558033,
            "velocity": 0.9448818897637795
          },
          {
            "duration": 0.3488370000000032,
            "durationTicks": 480,
            "midi": 71,
            "name": "B4",
            "ticks": 244800,
            "time": 177.90687,
            "velocity": 0.9448818897637795
          },
          {
            "duration": 0.3488370000000032,
            "durationTicks": 480,
            "midi": 78,
            "name": "F#5",
            "ticks": 245280,
            "time": 178.255707,
            "velocity": 0.9448818897637795
          },
          {
            "duration": 0.3488370000000032,
            "durationTicks": 480,
            "midi": 78,
            "name": "F#5",
            "ticks": 245760,
            "time": 178.604544,
            "velocity": 0.9448818897637795
          },
          {
            "duration": 0.3488370000000032,
            "durationTicks": 480,
            "midi": 75,
            "name": "D#5",
            "ticks": 246240,
            "time": 178.953381,
            "velocity": 0.9448818897637795
          },
          {
            "duration": 0.5668601250000052,
            "durationTicks": 780,
            "midi": 75,
            "name": "D#5",
            "ticks": 246720,
            "time": 179.302218,
            "velocity": 0.9448818897637795
          },
          {
            "duration": 0.6976740000000063,
            "durationTicks": 960,
            "midi": 71,
            "name": "B4",
            "ticks": 248640,
            "time": 180.697566,
            "velocity": 0.9448818897637795
          },
          {
            "duration": 1.0465110000000095,
            "durationTicks": 1440,
            "midi": 80,
            "name": "G#5",
            "ticks": 249600,
            "time": 181.39524,
            "velocity": 0.9448818897637795
          },
          {
            "duration": 0.2616277500000024,
            "durationTicks": 360,
            "midi": 78,
            "name": "F#5",
            "ticks": 251040,
            "time": 182.441751,
            "velocity": 0.9448818897637795
          },
          {
            "duration": 0.34883699999997475,
            "durationTicks": 480,
            "midi": 71,
            "name": "B4",
            "ticks": 252000,
            "time": 183.13942500000002,
            "velocity": 0.9448818897637795
          },
          {
            "duration": 0.3488370000000032,
            "durationTicks": 480,
            "midi": 71,
            "name": "B4",
            "ticks": 252480,
            "time": 183.488262,
            "velocity": 0.9448818897637795
          },
          {
            "duration": 0.3488370000000032,
            "durationTicks": 480,
            "midi": 78,
            "name": "F#5",
            "ticks": 252960,
            "time": 183.837099,
            "velocity": 0.9448818897637795
          },
          {
            "duration": 0.3488370000000032,
            "durationTicks": 480,
            "midi": 78,
            "name": "F#5",
            "ticks": 253440,
            "time": 184.185936,
            "velocity": 0.9448818897637795
          },
          {
            "duration": 0.3488370000000032,
            "durationTicks": 480,
            "midi": 75,
            "name": "D#5",
            "ticks": 253920,
            "time": 184.534773,
            "velocity": 0.9448818897637795
          },
          {
            "duration": 0.5668601250000052,
            "durationTicks": 780,
            "midi": 75,
            "name": "D#5",
            "ticks": 254400,
            "time": 184.88361,
            "velocity": 0.9448818897637795
          },
          {
            "duration": 0.6976739999999779,
            "durationTicks": 960,
            "midi": 71,
            "name": "B4",
            "ticks": 256320,
            "time": 186.27895800000002,
            "velocity": 0.9448818897637795
          },
          {
            "duration": 1.0465110000000095,
            "durationTicks": 1440,
            "midi": 80,
            "name": "G#5",
            "ticks": 257280,
            "time": 186.976632,
            "velocity": 0.9448818897637795
          },
          {
            "duration": 0.2616277500000024,
            "durationTicks": 360,
            "midi": 78,
            "name": "F#5",
            "ticks": 258720,
            "time": 188.023143,
            "velocity": 0.9448818897637795
          },
          {
            "duration": 0.3488370000000032,
            "durationTicks": 480,
            "midi": 71,
            "name": "B4",
            "ticks": 259680,
            "time": 188.720817,
            "velocity": 0.9448818897637795
          },
          {
            "duration": 0.3488370000000032,
            "durationTicks": 480,
            "midi": 71,
            "name": "B4",
            "ticks": 260160,
            "time": 189.069654,
            "velocity": 0.9448818897637795
          },
          {
            "duration": 0.34883699999997475,
            "durationTicks": 480,
            "midi": 78,
            "name": "F#5",
            "ticks": 260640,
            "time": 189.41849100000002,
            "velocity": 0.9448818897637795
          },
          {
            "duration": 0.3488370000000032,
            "durationTicks": 480,
            "midi": 78,
            "name": "F#5",
            "ticks": 261120,
            "time": 189.767328,
            "velocity": 0.9448818897637795
          },
          {
            "duration": 0.3488370000000032,
            "durationTicks": 480,
            "midi": 75,
            "name": "D#5",
            "ticks": 261600,
            "time": 190.116165,
            "velocity": 0.9448818897637795
          },
          {
            "duration": 0.5668601250000052,
            "durationTicks": 780,
            "midi": 75,
            "name": "D#5",
            "ticks": 262080,
            "time": 190.465002,
            "velocity": 0.9448818897637795
          },
          {
            "duration": 0.1744185000000016,
            "durationTicks": 240,
            "midi": 71,
            "name": "B4",
            "ticks": 263040,
            "time": 191.162676,
            "velocity": 0.9448818897637795
          },
          {
            "duration": 0.6976740000000063,
            "durationTicks": 960,
            "midi": 68,
            "name": "G#4",
            "ticks": 263280,
            "time": 191.3370945,
            "velocity": 0.9448818897637795
          },
          {
            "duration": 0.2616277500000024,
            "durationTicks": 360,
            "midi": 71,
            "name": "B4",
            "ticks": 267360,
            "time": 194.302209,
            "velocity": 0.9448818897637795
          },
          {
            "duration": 0.3488370000000032,
            "durationTicks": 480,
            "midi": 71,
            "name": "B4",
            "ticks": 267840,
            "time": 194.651046,
            "velocity": 0.9448818897637795
          },
          {
            "duration": 0.1744185000000016,
            "durationTicks": 240,
            "midi": 78,
            "name": "F#5",
            "ticks": 268320,
            "time": 194.999883,
            "velocity": 0.9448818897637795
          },
          {
            "duration": 0.3488370000000032,
            "durationTicks": 480,
            "midi": 78,
            "name": "F#5",
            "ticks": 268800,
            "time": 195.34872000000001,
            "velocity": 0.9448818897637795
          },
          {
            "duration": 0.17441849999997316,
            "durationTicks": 240,
            "midi": 75,
            "name": "D#5",
            "ticks": 269280,
            "time": 195.69755700000002,
            "velocity": 0.9448818897637795
          },
          {
            "duration": 0.5232555000000048,
            "durationTicks": 720,
            "midi": 75,
            "name": "D#5",
            "ticks": 269760,
            "time": 196.046394,
            "velocity": 0.9448818897637795
          },
          {
            "duration": 1.3953480000000127,
            "durationTicks": 1920,
            "midi": 66,
            "name": "F#4",
            "ticks": 270720,
            "time": 196.744068,
            "velocity": 0.9448818897637795
          },
          {
            "duration": 0.3488370000000032,
            "durationTicks": 480,
            "midi": 71,
            "name": "B4",
            "ticks": 300960,
            "time": 218.720799,
            "velocity": 0.9448818897637795
          },
          {
            "duration": 1.0465110000000095,
            "durationTicks": 1440,
            "midi": 78,
            "name": "F#5",
            "ticks": 301440,
            "time": 219.069636,
            "velocity": 0.9448818897637795
          },
          {
            "duration": 1.3953479999999843,
            "durationTicks": 1920,
            "midi": 75,
            "name": "D#5",
            "ticks": 302880,
            "time": 220.116147,
            "velocity": 0.9448818897637795
          },
          {
            "duration": 0.3488370000000032,
            "durationTicks": 480,
            "midi": 71,
            "name": "B4",
            "ticks": 305760,
            "time": 222.209169,
            "velocity": 0.9448818897637795
          },
          {
            "duration": 0.3488370000000032,
            "durationTicks": 480,
            "midi": 73,
            "name": "C#5",
            "ticks": 306240,
            "time": 222.558006,
            "velocity": 0.9448818897637795
          },
          {
            "duration": 0.3488370000000032,
            "durationTicks": 480,
            "midi": 71,
            "name": "B4",
            "ticks": 306720,
            "time": 222.906843,
            "velocity": 0.9448818897637795
          },
          {
            "duration": 0.6976740000000063,
            "durationTicks": 960,
            "midi": 73,
            "name": "C#5",
            "ticks": 307200,
            "time": 223.25568,
            "velocity": 0.9448818897637795
          },
          {
            "duration": 0.6976739999999779,
            "durationTicks": 960,
            "midi": 71,
            "name": "B4",
            "ticks": 308160,
            "time": 223.95335400000002,
            "velocity": 0.9448818897637795
          },
          {
            "duration": 1.0465110000000095,
            "durationTicks": 1440,
            "midi": 78,
            "name": "F#5",
            "ticks": 309120,
            "time": 224.651028,
            "velocity": 0.9448818897637795
          },
          {
            "duration": 1.0465110000000095,
            "durationTicks": 1440,
            "midi": 75,
            "name": "D#5",
            "ticks": 310560,
            "time": 225.697539,
            "velocity": 0.9448818897637795
          },
          {
            "duration": 0.3488370000000032,
            "durationTicks": 480,
            "midi": 71,
            "name": "B4",
            "ticks": 313440,
            "time": 227.790561,
            "velocity": 0.9448818897637795
          },
          {
            "duration": 0.3488370000000032,
            "durationTicks": 480,
            "midi": 73,
            "name": "C#5",
            "ticks": 313920,
            "time": 228.139398,
            "velocity": 0.9448818897637795
          },
          {
            "duration": 0.3488370000000032,
            "durationTicks": 480,
            "midi": 71,
            "name": "B4",
            "ticks": 314400,
            "time": 228.488235,
            "velocity": 0.9448818897637795
          },
          {
            "duration": 0.6976740000000063,
            "durationTicks": 960,
            "midi": 73,
            "name": "C#5",
            "ticks": 314880,
            "time": 228.837072,
            "velocity": 0.9448818897637795
          },
          {
            "duration": 0.6976740000000063,
            "durationTicks": 960,
            "midi": 71,
            "name": "B4",
            "ticks": 315840,
            "time": 229.534746,
            "velocity": 0.9448818897637795
          },
          {
            "duration": 1.046510999999981,
            "durationTicks": 1440,
            "midi": 78,
            "name": "F#5",
            "ticks": 316800,
            "time": 230.23242000000002,
            "velocity": 0.9448818897637795
          },
          {
            "duration": 1.0465110000000095,
            "durationTicks": 1440,
            "midi": 75,
            "name": "D#5",
            "ticks": 318240,
            "time": 231.278931,
            "velocity": 0.9448818897637795
          },
          {
            "duration": 0.34883699999997475,
            "durationTicks": 480,
            "midi": 71,
            "name": "B4",
            "ticks": 321120,
            "time": 233.37195300000002,
            "velocity": 0.9448818897637795
          },
          {
            "duration": 0.3488370000000032,
            "durationTicks": 480,
            "midi": 73,
            "name": "C#5",
            "ticks": 321600,
            "time": 233.72079,
            "velocity": 0.9448818897637795
          },
          {
            "duration": 0.3488370000000032,
            "durationTicks": 480,
            "midi": 71,
            "name": "B4",
            "ticks": 322080,
            "time": 234.069627,
            "velocity": 0.9448818897637795
          },
          {
            "duration": 0.6976740000000063,
            "durationTicks": 960,
            "midi": 73,
            "name": "C#5",
            "ticks": 322560,
            "time": 234.418464,
            "velocity": 0.9448818897637795
          },
          {
            "duration": 1.3953480000000127,
            "durationTicks": 1920,
            "midi": 75,
            "name": "D#5",
            "ticks": 323520,
            "time": 235.116138,
            "velocity": 0.9448818897637795
          },
          {
            "duration": 0.3488370000000032,
            "durationTicks": 480,
            "midi": 71,
            "name": "B4",
            "ticks": 328800,
            "time": 238.953345,
            "velocity": 0.9448818897637795
          },
          {
            "duration": 0.3488370000000032,
            "durationTicks": 480,
            "midi": 73,
            "name": "C#5",
            "ticks": 329280,
            "time": 239.30218200000002,
            "velocity": 0.9448818897637795
          },
          {
            "duration": 0.34883699999997475,
            "durationTicks": 480,
            "midi": 71,
            "name": "B4",
            "ticks": 329760,
            "time": 239.65101900000002,
            "velocity": 0.9448818897637795
          },
          {
            "duration": 0.6976740000000063,
            "durationTicks": 960,
            "midi": 73,
            "name": "C#5",
            "ticks": 330240,
            "time": 239.999856,
            "velocity": 0.9448818897637795
          },
          {
            "duration": 0.6976740000000063,
            "durationTicks": 960,
            "midi": 71,
            "name": "B4",
            "ticks": 331200,
            "time": 240.69753,
            "velocity": 0.9448818897637795
          },
          {
            "duration": 1.0465110000000095,
            "durationTicks": 1440,
            "midi": 78,
            "name": "F#5",
            "ticks": 332160,
            "time": 241.395204,
            "velocity": 0.9448818897637795
          },
          {
            "duration": 1.046510999999981,
            "durationTicks": 1440,
            "midi": 75,
            "name": "D#5",
            "ticks": 333600,
            "time": 242.44171500000002,
            "velocity": 0.9448818897637795
          },
          {
            "duration": 0.3488370000000032,
            "durationTicks": 480,
            "midi": 71,
            "name": "B4",
            "ticks": 336480,
            "time": 244.534737,
            "velocity": 0.9448818897637795
          },
          {
            "duration": 0.3488370000000032,
            "durationTicks": 480,
            "midi": 73,
            "name": "C#5",
            "ticks": 336960,
            "time": 244.883574,
            "velocity": 0.9448818897637795
          },
          {
            "duration": 0.3488370000000032,
            "durationTicks": 480,
            "midi": 71,
            "name": "B4",
            "ticks": 337440,
            "time": 245.232411,
            "velocity": 0.9448818897637795
          },
          {
            "duration": 0.6976739999999779,
            "durationTicks": 960,
            "midi": 73,
            "name": "C#5",
            "ticks": 337920,
            "time": 245.58124800000002,
            "velocity": 0.9448818897637795
          },
          {
            "duration": 0.6976740000000063,
            "durationTicks": 960,
            "midi": 71,
            "name": "B4",
            "ticks": 338880,
            "time": 246.278922,
            "velocity": 0.9448818897637795
          },
          {
            "duration": 1.0465110000000095,
            "durationTicks": 1440,
            "midi": 80,
            "name": "G#5",
            "ticks": 339840,
            "time": 246.976596,
            "velocity": 0.9448818897637795
          },
          {
            "duration": 1.0465110000000095,
            "durationTicks": 1440,
            "midi": 75,
            "name": "D#5",
            "ticks": 341280,
            "time": 248.023107,
            "velocity": 0.9448818897637795
          },
          {
            "duration": 0.3488370000000032,
            "durationTicks": 480,
            "midi": 71,
            "name": "B4",
            "ticks": 344160,
            "time": 250.116129,
            "velocity": 0.9448818897637795
          },
          {
            "duration": 0.3488370000000032,
            "durationTicks": 480,
            "midi": 73,
            "name": "C#5",
            "ticks": 344640,
            "time": 250.464966,
            "velocity": 0.9448818897637795
          },
          {
            "duration": 0.3488370000000032,
            "durationTicks": 480,
            "midi": 71,
            "name": "B4",
            "ticks": 345120,
            "time": 250.813803,
            "velocity": 0.9448818897637795
          },
          {
            "duration": 0.6976740000000063,
            "durationTicks": 960,
            "midi": 71,
            "name": "B4",
            "ticks": 346080,
            "time": 251.511477,
            "velocity": 0.9448818897637795
          },
          {
            "duration": 0.3488370000000032,
            "durationTicks": 480,
            "midi": 73,
            "name": "C#5",
            "ticks": 348000,
            "time": 252.906825,
            "velocity": 0.9448818897637795
          },
          {
            "duration": 0.3488370000000032,
            "durationTicks": 480,
            "midi": 75,
            "name": "D#5",
            "ticks": 348480,
            "time": 253.255662,
            "velocity": 0.9448818897637795
          },
          {
            "duration": 0.3488370000000032,
            "durationTicks": 480,
            "midi": 73,
            "name": "C#5",
            "ticks": 348960,
            "time": 253.604499,
            "velocity": 0.9448818897637795
          },
          {
            "duration": 1.0465110000000095,
            "durationTicks": 1440,
            "midi": 75,
            "name": "D#5",
            "ticks": 349440,
            "time": 253.953336,
            "velocity": 0.9448818897637795
          },
          {
            "duration": 0.3488370000000032,
            "durationTicks": 480,
            "midi": 73,
            "name": "C#5",
            "ticks": 351840,
            "time": 255.697521,
            "velocity": 0.9448818897637795
          },
          {
            "duration": 0.3488370000000032,
            "durationTicks": 480,
            "midi": 75,
            "name": "D#5",
            "ticks": 352320,
            "time": 256.046358,
            "velocity": 0.9448818897637795
          },
          {
            "duration": 0.3488370000000032,
            "durationTicks": 480,
            "midi": 73,
            "name": "C#5",
            "ticks": 352800,
            "time": 256.395195,
            "velocity": 0.9448818897637795
          },
          {
            "duration": 0.6976740000000063,
            "durationTicks": 960,
            "midi": 75,
            "name": "D#5",
            "ticks": 353280,
            "time": 256.744032,
            "velocity": 0.9448818897637795
          },
          {
            "duration": 1.0465110000000095,
            "durationTicks": 1440,
            "midi": 78,
            "name": "F#5",
            "ticks": 354240,
            "time": 257.441706,
            "velocity": 0.9448818897637795
          },
          {
            "duration": 0.5232555000000048,
            "durationTicks": 720,
            "midi": 73,
            "name": "C#5",
            "ticks": 355680,
            "time": 258.488217,
            "velocity": 0.9448818897637795
          },
          {
            "duration": 0.3488370000000032,
            "durationTicks": 480,
            "midi": 71,
            "name": "B4",
            "ticks": 359520,
            "time": 261.278913,
            "velocity": 0.9448818897637795
          },
          {
            "duration": 0.3488370000000032,
            "durationTicks": 480,
            "midi": 73,
            "name": "C#5",
            "ticks": 360000,
            "time": 261.62775,
            "velocity": 0.9448818897637795
          },
          {
            "duration": 0.3488370000000032,
            "durationTicks": 480,
            "midi": 71,
            "name": "B4",
            "ticks": 360480,
            "time": 261.976587,
            "velocity": 0.9448818897637795
          },
          {
            "duration": 0.3488370000000032,
            "durationTicks": 480,
            "midi": 73,
            "name": "C#5",
            "ticks": 360960,
            "time": 262.325424,
            "velocity": 0.9448818897637795
          },
          {
            "duration": 0.21802312500000198,
            "durationTicks": 300,
            "midi": 71,
            "name": "B4",
            "ticks": 361440,
            "time": 262.674261,
            "velocity": 0.9448818897637795
          },
          {
            "duration": 1.3953480000000127,
            "durationTicks": 1920,
            "midi": 78,
            "name": "F#5",
            "ticks": 361920,
            "time": 263.023098,
            "velocity": 0.9448818897637795
          },
          {
            "duration": 2.093021999999962,
            "durationTicks": 2880,
            "midi": 71,
            "name": "B4",
            "ticks": 363840,
            "time": 264.418446,
            "velocity": 0.9448818897637795
          }
        ]
      },
      {
        "channel": 0,
        "controlChanges": {},
        "pitchBends": [],
        "instrument": {
          "family": "piano",
          "number": 0,
          "name": "acoustic grand piano"
        },
        "name": "untitled",
        "notes": [],
        "endOfTrackTicks": 372480
      },
      {
        "channel": 1,
        "controlChanges": {
          "7": [
            {
              "number": 7,
              "ticks": 0,
              "time": 0,
              "value": 0.7874015748031497
            }
          ],
          "10": [
            {
              "number": 10,
              "ticks": 0,
              "time": 0,
              "value": 0.5039370078740157
            }
          ]
        },
        "pitchBends": [],
        "instrument": {
          "family": "bass",
          "number": 33,
          "name": "electric bass (finger)"
        },
        "name": "",
        "notes": [
          {
            "duration": 0.3488369999999996,
            "durationTicks": 480,
            "midi": 59,
            "name": "B3",
            "ticks": 17280,
            "time": 12.558132,
            "velocity": 0.8661417322834646
          },
          {
            "duration": 0.3488369999999996,
            "durationTicks": 480,
            "midi": 59,
            "name": "B3",
            "ticks": 17760,
            "time": 12.906969,
            "velocity": 0.8661417322834646
          },
          {
            "duration": 0.3488370000000014,
            "durationTicks": 480,
            "midi": 59,
            "name": "B3",
            "ticks": 18240,
            "time": 13.255806,
            "velocity": 0.8661417322834646
          },
          {
            "duration": 0.3488369999999996,
            "durationTicks": 480,
            "midi": 59,
            "name": "B3",
            "ticks": 18720,
            "time": 13.604643000000001,
            "velocity": 0.8661417322834646
          },
          {
            "duration": 0.3488369999999996,
            "durationTicks": 480,
            "midi": 59,
            "name": "B3",
            "ticks": 19200,
            "time": 13.95348,
            "velocity": 0.8661417322834646
          },
          {
            "duration": 0.3488369999999996,
            "durationTicks": 480,
            "midi": 59,
            "name": "B3",
            "ticks": 19680,
            "time": 14.302317,
            "velocity": 0.8661417322834646
          },
          {
            "duration": 0.3488369999999996,
            "durationTicks": 480,
            "midi": 59,
            "name": "B3",
            "ticks": 20160,
            "time": 14.651154,
            "velocity": 0.8661417322834646
          },
          {
            "duration": 0.3488370000000014,
            "durationTicks": 480,
            "midi": 59,
            "name": "B3",
            "ticks": 20640,
            "time": 14.999991,
            "velocity": 0.8661417322834646
          },
          {
            "duration": 0.3488369999999996,
            "durationTicks": 480,
            "midi": 59,
            "name": "B3",
            "ticks": 21120,
            "time": 15.348828000000001,
            "velocity": 0.8661417322834646
          },
          {
            "duration": 0.3488369999999996,
            "durationTicks": 480,
            "midi": 59,
            "name": "B3",
            "ticks": 21600,
            "time": 15.697665,
            "velocity": 0.8661417322834646
          },
          {
            "duration": 0.3488369999999996,
            "durationTicks": 480,
            "midi": 59,
            "name": "B3",
            "ticks": 22080,
            "time": 16.046502,
            "velocity": 0.8661417322834646
          },
          {
            "duration": 0.3488369999999996,
            "durationTicks": 480,
            "midi": 59,
            "name": "B3",
            "ticks": 22560,
            "time": 16.395339,
            "velocity": 0.8661417322834646
          },
          {
            "duration": 0.3488369999999996,
            "durationTicks": 480,
            "midi": 59,
            "name": "B3",
            "ticks": 23040,
            "time": 16.744176,
            "velocity": 0.8661417322834646
          },
          {
            "duration": 0.3488369999999996,
            "durationTicks": 480,
            "midi": 59,
            "name": "B3",
            "ticks": 23520,
            "time": 17.093013,
            "velocity": 0.8661417322834646
          },
          {
            "duration": 0.3488370000000032,
            "durationTicks": 480,
            "midi": 59,
            "name": "B3",
            "ticks": 24000,
            "time": 17.44185,
            "velocity": 0.8661417322834646
          },
          {
            "duration": 0.3488369999999996,
            "durationTicks": 480,
            "midi": 59,
            "name": "B3",
            "ticks": 24480,
            "time": 17.790687000000002,
            "velocity": 0.8661417322834646
          },
          {
            "duration": 0.3488369999999996,
            "durationTicks": 480,
            "midi": 54,
            "name": "F#3",
            "ticks": 24960,
            "time": 18.139524,
            "velocity": 0.8661417322834646
          },
          {
            "duration": 0.3488369999999996,
            "durationTicks": 480,
            "midi": 54,
            "name": "F#3",
            "ticks": 25440,
            "time": 18.488361,
            "velocity": 0.8661417322834646
          },
          {
            "duration": 0.3488369999999996,
            "durationTicks": 480,
            "midi": 54,
            "name": "F#3",
            "ticks": 25920,
            "time": 18.837198,
            "velocity": 0.8661417322834646
          },
          {
            "duration": 0.3488369999999996,
            "durationTicks": 480,
            "midi": 54,
            "name": "F#3",
            "ticks": 26400,
            "time": 19.186035,
            "velocity": 0.8661417322834646
          },
          {
            "duration": 0.3488369999999996,
            "durationTicks": 480,
            "midi": 54,
            "name": "F#3",
            "ticks": 26880,
            "time": 19.534872,
            "velocity": 0.8661417322834646
          },
          {
            "duration": 0.3488369999999996,
            "durationTicks": 480,
            "midi": 54,
            "name": "F#3",
            "ticks": 27360,
            "time": 19.883709,
            "velocity": 0.8661417322834646
          },
          {
            "duration": 0.3488369999999996,
            "durationTicks": 480,
            "midi": 54,
            "name": "F#3",
            "ticks": 27840,
            "time": 20.232546,
            "velocity": 0.8661417322834646
          },
          {
            "duration": 0.3488370000000032,
            "durationTicks": 480,
            "midi": 54,
            "name": "F#3",
            "ticks": 28320,
            "time": 20.581383,
            "velocity": 0.8661417322834646
          },
          {
            "duration": 0.3488369999999996,
            "durationTicks": 480,
            "midi": 54,
            "name": "F#3",
            "ticks": 28800,
            "time": 20.930220000000002,
            "velocity": 0.8661417322834646
          },
          {
            "duration": 0.3488369999999996,
            "durationTicks": 480,
            "midi": 54,
            "name": "F#3",
            "ticks": 29280,
            "time": 21.279057,
            "velocity": 0.8661417322834646
          },
          {
            "duration": 0.3488369999999996,
            "durationTicks": 480,
            "midi": 54,
            "name": "F#3",
            "ticks": 29760,
            "time": 21.627894,
            "velocity": 0.8661417322834646
          },
          {
            "duration": 0.3488369999999996,
            "durationTicks": 480,
            "midi": 54,
            "name": "F#3",
            "ticks": 30240,
            "time": 21.976731,
            "velocity": 0.8661417322834646
          },
          {
            "duration": 0.3488369999999996,
            "durationTicks": 480,
            "midi": 54,
            "name": "F#3",
            "ticks": 30720,
            "time": 22.325568,
            "velocity": 0.8661417322834646
          },
          {
            "duration": 0.3488369999999996,
            "durationTicks": 480,
            "midi": 54,
            "name": "F#3",
            "ticks": 31200,
            "time": 22.674405,
            "velocity": 0.8661417322834646
          },
          {
            "duration": 0.3488369999999996,
            "durationTicks": 480,
            "midi": 54,
            "name": "F#3",
            "ticks": 31680,
            "time": 23.023242,
            "velocity": 0.8661417322834646
          },
          {
            "duration": 0.3488369999999996,
            "durationTicks": 480,
            "midi": 54,
            "name": "F#3",
            "ticks": 32160,
            "time": 23.372079,
            "velocity": 0.8661417322834646
          },
          {
            "duration": 0.3488370000000032,
            "durationTicks": 480,
            "midi": 52,
            "name": "E3",
            "ticks": 32640,
            "time": 23.720916,
            "velocity": 0.8661417322834646
          },
          {
            "duration": 0.3488369999999996,
            "durationTicks": 480,
            "midi": 52,
            "name": "E3",
            "ticks": 33120,
            "time": 24.069753000000002,
            "velocity": 0.8661417322834646
          },
          {
            "duration": 0.3488369999999996,
            "durationTicks": 480,
            "midi": 52,
            "name": "E3",
            "ticks": 33600,
            "time": 24.418590000000002,
            "velocity": 0.8661417322834646
          },
          {
            "duration": 0.3488369999999996,
            "durationTicks": 480,
            "midi": 52,
            "name": "E3",
            "ticks": 34080,
            "time": 24.767427,
            "velocity": 0.8661417322834646
          },
          {
            "duration": 0.3488369999999996,
            "durationTicks": 480,
            "midi": 52,
            "name": "E3",
            "ticks": 34560,
            "time": 25.116264,
            "velocity": 0.8661417322834646
          },
          {
            "duration": 0.3488369999999996,
            "durationTicks": 480,
            "midi": 52,
            "name": "E3",
            "ticks": 35040,
            "time": 25.465101,
            "velocity": 0.8661417322834646
          },
          {
            "duration": 0.3488369999999996,
            "durationTicks": 480,
            "midi": 52,
            "name": "E3",
            "ticks": 35520,
            "time": 25.813938,
            "velocity": 0.8661417322834646
          },
          {
            "duration": 0.3488369999999996,
            "durationTicks": 480,
            "midi": 52,
            "name": "E3",
            "ticks": 36000,
            "time": 26.162775,
            "velocity": 0.8661417322834646
          },
          {
            "duration": 0.3488369999999996,
            "durationTicks": 480,
            "midi": 52,
            "name": "E3",
            "ticks": 36480,
            "time": 26.511612,
            "velocity": 0.8661417322834646
          },
          {
            "duration": 0.3488370000000032,
            "durationTicks": 480,
            "midi": 52,
            "name": "E3",
            "ticks": 36960,
            "time": 26.860449,
            "velocity": 0.8661417322834646
          },
          {
            "duration": 0.3488369999999996,
            "durationTicks": 480,
            "midi": 52,
            "name": "E3",
            "ticks": 37440,
            "time": 27.209286000000002,
            "velocity": 0.8661417322834646
          },
          {
            "duration": 0.3488369999999996,
            "durationTicks": 480,
            "midi": 52,
            "name": "E3",
            "ticks": 37920,
            "time": 27.558123000000002,
            "velocity": 0.8661417322834646
          },
          {
            "duration": 0.3488369999999996,
            "durationTicks": 480,
            "midi": 52,
            "name": "E3",
            "ticks": 38400,
            "time": 27.90696,
            "velocity": 0.8661417322834646
          },
          {
            "duration": 0.3488369999999996,
            "durationTicks": 480,
            "midi": 52,
            "name": "E3",
            "ticks": 38880,
            "time": 28.255797,
            "velocity": 0.8661417322834646
          },
          {
            "duration": 0.3488369999999996,
            "durationTicks": 480,
            "midi": 52,
            "name": "E3",
            "ticks": 39360,
            "time": 28.604634,
            "velocity": 0.8661417322834646
          },
          {
            "duration": 0.3488369999999996,
            "durationTicks": 480,
            "midi": 52,
            "name": "E3",
            "ticks": 39840,
            "time": 28.953471,
            "velocity": 0.8661417322834646
          },
          {
            "duration": 0.3488369999999996,
            "durationTicks": 480,
            "midi": 59,
            "name": "B3",
            "ticks": 40320,
            "time": 29.302308,
            "velocity": 0.8661417322834646
          },
          {
            "duration": 0.3488369999999996,
            "durationTicks": 480,
            "midi": 59,
            "name": "B3",
            "ticks": 40800,
            "time": 29.651145,
            "velocity": 0.8661417322834646
          },
          {
            "duration": 0.3488370000000032,
            "durationTicks": 480,
            "midi": 59,
            "name": "B3",
            "ticks": 41280,
            "time": 29.999982,
            "velocity": 0.8661417322834646
          },
          {
            "duration": 0.3488369999999996,
            "durationTicks": 480,
            "midi": 59,
            "name": "B3",
            "ticks": 41760,
            "time": 30.348819000000002,
            "velocity": 0.8661417322834646
          },
          {
            "duration": 0.3488369999999996,
            "durationTicks": 480,
            "midi": 59,
            "name": "B3",
            "ticks": 42240,
            "time": 30.697656000000002,
            "velocity": 0.8661417322834646
          },
          {
            "duration": 0.3488369999999996,
            "durationTicks": 480,
            "midi": 59,
            "name": "B3",
            "ticks": 42720,
            "time": 31.046493,
            "velocity": 0.8661417322834646
          },
          {
            "duration": 0.3488369999999996,
            "durationTicks": 480,
            "midi": 59,
            "name": "B3",
            "ticks": 43200,
            "time": 31.39533,
            "velocity": 0.8661417322834646
          },
          {
            "duration": 0.3488369999999996,
            "durationTicks": 480,
            "midi": 59,
            "name": "B3",
            "ticks": 43680,
            "time": 31.744167,
            "velocity": 0.8661417322834646
          },
          {
            "duration": 0.3488370000000032,
            "durationTicks": 480,
            "midi": 59,
            "name": "B3",
            "ticks": 44160,
            "time": 32.093004,
            "velocity": 0.8661417322834646
          },
          {
            "duration": 0.34883699999999607,
            "durationTicks": 480,
            "midi": 59,
            "name": "B3",
            "ticks": 44640,
            "time": 32.441841000000004,
            "velocity": 0.8661417322834646
          },
          {
            "duration": 0.3488370000000032,
            "durationTicks": 480,
            "midi": 59,
            "name": "B3",
            "ticks": 45120,
            "time": 32.790678,
            "velocity": 0.8661417322834646
          },
          {
            "duration": 0.34883699999999607,
            "durationTicks": 480,
            "midi": 59,
            "name": "B3",
            "ticks": 45600,
            "time": 33.139515,
            "velocity": 0.8661417322834646
          },
          {
            "duration": 0.3488370000000032,
            "durationTicks": 480,
            "midi": 59,
            "name": "B3",
            "ticks": 46080,
            "time": 33.488352,
            "velocity": 0.8661417322834646
          },
          {
            "duration": 0.34883699999999607,
            "durationTicks": 480,
            "midi": 59,
            "name": "B3",
            "ticks": 46560,
            "time": 33.837189,
            "velocity": 0.8661417322834646
          },
          {
            "duration": 0.3488370000000032,
            "durationTicks": 480,
            "midi": 59,
            "name": "B3",
            "ticks": 47040,
            "time": 34.186026,
            "velocity": 0.8661417322834646
          },
          {
            "duration": 0.34883699999999607,
            "durationTicks": 480,
            "midi": 59,
            "name": "B3",
            "ticks": 47520,
            "time": 34.534863,
            "velocity": 0.8661417322834646
          },
          {
            "duration": 0.3488370000000032,
            "durationTicks": 480,
            "midi": 47,
            "name": "B2",
            "ticks": 48000,
            "time": 34.8837,
            "velocity": 0.7874015748031497
          },
          {
            "duration": 0.3488370000000032,
            "durationTicks": 480,
            "midi": 47,
            "name": "B2",
            "ticks": 48480,
            "time": 35.232537,
            "velocity": 0.7874015748031497
          },
          {
            "duration": 0.34883699999999607,
            "durationTicks": 480,
            "midi": 47,
            "name": "B2",
            "ticks": 48960,
            "time": 35.581374000000004,
            "velocity": 0.7874015748031497
          },
          {
            "duration": 0.3488370000000032,
            "durationTicks": 480,
            "midi": 47,
            "name": "B2",
            "ticks": 49440,
            "time": 35.930211,
            "velocity": 0.7874015748031497
          },
          {
            "duration": 0.34883699999999607,
            "durationTicks": 480,
            "midi": 47,
            "name": "B2",
            "ticks": 49920,
            "time": 36.279048,
            "velocity": 0.7874015748031497
          },
          {
            "duration": 0.3488370000000032,
            "durationTicks": 480,
            "midi": 47,
            "name": "B2",
            "ticks": 50400,
            "time": 36.627885,
            "velocity": 0.7874015748031497
          },
          {
            "duration": 0.34883699999999607,
            "durationTicks": 480,
            "midi": 47,
            "name": "B2",
            "ticks": 50880,
            "time": 36.976722,
            "velocity": 0.7874015748031497
          },
          {
            "duration": 0.3488370000000032,
            "durationTicks": 480,
            "midi": 47,
            "name": "B2",
            "ticks": 51360,
            "time": 37.325559,
            "velocity": 0.7874015748031497
          },
          {
            "duration": 0.34883699999999607,
            "durationTicks": 480,
            "midi": 47,
            "name": "B2",
            "ticks": 51840,
            "time": 37.674396,
            "velocity": 0.7874015748031497
          },
          {
            "duration": 0.3488370000000032,
            "durationTicks": 480,
            "midi": 47,
            "name": "B2",
            "ticks": 52320,
            "time": 38.023233,
            "velocity": 0.7874015748031497
          },
          {
            "duration": 0.3488370000000032,
            "durationTicks": 480,
            "midi": 47,
            "name": "B2",
            "ticks": 52800,
            "time": 38.37207,
            "velocity": 0.7874015748031497
          },
          {
            "duration": 0.34883699999999607,
            "durationTicks": 480,
            "midi": 47,
            "name": "B2",
            "ticks": 53280,
            "time": 38.720907000000004,
            "velocity": 0.7874015748031497
          },
          {
            "duration": 0.3488370000000032,
            "durationTicks": 480,
            "midi": 47,
            "name": "B2",
            "ticks": 53760,
            "time": 39.069744,
            "velocity": 0.7874015748031497
          },
          {
            "duration": 0.34883699999999607,
            "durationTicks": 480,
            "midi": 47,
            "name": "B2",
            "ticks": 54240,
            "time": 39.418581,
            "velocity": 0.7874015748031497
          },
          {
            "duration": 0.3488370000000032,
            "durationTicks": 480,
            "midi": 47,
            "name": "B2",
            "ticks": 54720,
            "time": 39.767418,
            "velocity": 0.7874015748031497
          },
          {
            "duration": 0.34883699999999607,
            "durationTicks": 480,
            "midi": 47,
            "name": "B2",
            "ticks": 55200,
            "time": 40.116255,
            "velocity": 0.7874015748031497
          },
          {
            "duration": 0.3488370000000032,
            "durationTicks": 480,
            "midi": 54,
            "name": "F#3",
            "ticks": 55680,
            "time": 40.465092,
            "velocity": 0.7874015748031497
          },
          {
            "duration": 0.34883699999999607,
            "durationTicks": 480,
            "midi": 54,
            "name": "F#3",
            "ticks": 56160,
            "time": 40.813929,
            "velocity": 0.7874015748031497
          },
          {
            "duration": 0.3488370000000032,
            "durationTicks": 480,
            "midi": 54,
            "name": "F#3",
            "ticks": 56640,
            "time": 41.162766,
            "velocity": 0.7874015748031497
          },
          {
            "duration": 0.3488370000000032,
            "durationTicks": 480,
            "midi": 54,
            "name": "F#3",
            "ticks": 57120,
            "time": 41.511603,
            "velocity": 0.7874015748031497
          },
          {
            "duration": 0.34883699999999607,
            "durationTicks": 480,
            "midi": 54,
            "name": "F#3",
            "ticks": 57600,
            "time": 41.860440000000004,
            "velocity": 0.7874015748031497
          },
          {
            "duration": 0.3488370000000032,
            "durationTicks": 480,
            "midi": 54,
            "name": "F#3",
            "ticks": 58080,
            "time": 42.209277,
            "velocity": 0.7874015748031497
          },
          {
            "duration": 0.34883699999999607,
            "durationTicks": 480,
            "midi": 54,
            "name": "F#3",
            "ticks": 58560,
            "time": 42.558114,
            "velocity": 0.7874015748031497
          },
          {
            "duration": 0.3488370000000032,
            "durationTicks": 480,
            "midi": 54,
            "name": "F#3",
            "ticks": 59040,
            "time": 42.906951,
            "velocity": 0.7874015748031497
          },
          {
            "duration": 0.34883699999999607,
            "durationTicks": 480,
            "midi": 54,
            "name": "F#3",
            "ticks": 59520,
            "time": 43.255788,
            "velocity": 0.7874015748031497
          },
          {
            "duration": 0.3488370000000032,
            "durationTicks": 480,
            "midi": 54,
            "name": "F#3",
            "ticks": 60000,
            "time": 43.604625,
            "velocity": 0.7874015748031497
          },
          {
            "duration": 0.34883699999999607,
            "durationTicks": 480,
            "midi": 54,
            "name": "F#3",
            "ticks": 60480,
            "time": 43.953462,
            "velocity": 0.7874015748031497
          },
          {
            "duration": 0.3488370000000032,
            "durationTicks": 480,
            "midi": 54,
            "name": "F#3",
            "ticks": 60960,
            "time": 44.302299,
            "velocity": 0.7874015748031497
          },
          {
            "duration": 0.3488370000000032,
            "durationTicks": 480,
            "midi": 54,
            "name": "F#3",
            "ticks": 61440,
            "time": 44.651136,
            "velocity": 0.7874015748031497
          },
          {
            "duration": 0.34883699999999607,
            "durationTicks": 480,
            "midi": 54,
            "name": "F#3",
            "ticks": 61920,
            "time": 44.999973000000004,
            "velocity": 0.7874015748031497
          },
          {
            "duration": 0.3488370000000032,
            "durationTicks": 480,
            "midi": 54,
            "name": "F#3",
            "ticks": 62400,
            "time": 45.34881,
            "velocity": 0.7874015748031497
          },
          {
            "duration": 0.34883699999999607,
            "durationTicks": 480,
            "midi": 54,
            "name": "F#3",
            "ticks": 62880,
            "time": 45.697647,
            "velocity": 0.7874015748031497
          },
          {
            "duration": 0.3488370000000032,
            "durationTicks": 480,
            "midi": 52,
            "name": "E3",
            "ticks": 63360,
            "time": 46.046484,
            "velocity": 0.7874015748031497
          },
          {
            "duration": 0.34883699999999607,
            "durationTicks": 480,
            "midi": 52,
            "name": "E3",
            "ticks": 63840,
            "time": 46.395321,
            "velocity": 0.7874015748031497
          },
          {
            "duration": 0.3488370000000032,
            "durationTicks": 480,
            "midi": 52,
            "name": "E3",
            "ticks": 64320,
            "time": 46.744158,
            "velocity": 0.7874015748031497
          },
          {
            "duration": 0.34883699999999607,
            "durationTicks": 480,
            "midi": 52,
            "name": "E3",
            "ticks": 64800,
            "time": 47.092995,
            "velocity": 0.7874015748031497
          },
          {
            "duration": 0.3488370000000032,
            "durationTicks": 480,
            "midi": 52,
            "name": "E3",
            "ticks": 65280,
            "time": 47.441832,
            "velocity": 0.7874015748031497
          },
          {
            "duration": 0.3488370000000032,
            "durationTicks": 480,
            "midi": 52,
            "name": "E3",
            "ticks": 65760,
            "time": 47.790669,
            "velocity": 0.7874015748031497
          },
          {
            "duration": 0.34883699999999607,
            "durationTicks": 480,
            "midi": 52,
            "name": "E3",
            "ticks": 66240,
            "time": 48.139506000000004,
            "velocity": 0.7874015748031497
          },
          {
            "duration": 0.3488370000000032,
            "durationTicks": 480,
            "midi": 52,
            "name": "E3",
            "ticks": 66720,
            "time": 48.488343,
            "velocity": 0.7874015748031497
          },
          {
            "duration": 0.34883699999999607,
            "durationTicks": 480,
            "midi": 52,
            "name": "E3",
            "ticks": 67200,
            "time": 48.837180000000004,
            "velocity": 0.7874015748031497
          },
          {
            "duration": 0.3488370000000032,
            "durationTicks": 480,
            "midi": 52,
            "name": "E3",
            "ticks": 67680,
            "time": 49.186017,
            "velocity": 0.7874015748031497
          },
          {
            "duration": 0.34883699999999607,
            "durationTicks": 480,
            "midi": 52,
            "name": "E3",
            "ticks": 68160,
            "time": 49.534854,
            "velocity": 0.7874015748031497
          },
          {
            "duration": 0.3488370000000032,
            "durationTicks": 480,
            "midi": 52,
            "name": "E3",
            "ticks": 68640,
            "time": 49.883691,
            "velocity": 0.7874015748031497
          },
          {
            "duration": 0.34883699999999607,
            "durationTicks": 480,
            "midi": 52,
            "name": "E3",
            "ticks": 69120,
            "time": 50.232528,
            "velocity": 0.7874015748031497
          },
          {
            "duration": 0.3488370000000032,
            "durationTicks": 480,
            "midi": 52,
            "name": "E3",
            "ticks": 69600,
            "time": 50.581365,
            "velocity": 0.7874015748031497
          },
          {
            "duration": 0.3488370000000032,
            "durationTicks": 480,
            "midi": 52,
            "name": "E3",
            "ticks": 70080,
            "time": 50.930202,
            "velocity": 0.7874015748031497
          },
          {
            "duration": 0.34883699999999607,
            "durationTicks": 480,
            "midi": 52,
            "name": "E3",
            "ticks": 70560,
            "time": 51.279039000000004,
            "velocity": 0.7874015748031497
          },
          {
            "duration": 0.3488370000000032,
            "durationTicks": 480,
            "midi": 47,
            "name": "B2",
            "ticks": 71040,
            "time": 51.627876,
            "velocity": 0.7874015748031497
          },
          {
            "duration": 0.34883699999999607,
            "durationTicks": 480,
            "midi": 47,
            "name": "B2",
            "ticks": 71520,
            "time": 51.976713000000004,
            "velocity": 0.7874015748031497
          },
          {
            "duration": 0.3488370000000032,
            "durationTicks": 480,
            "midi": 47,
            "name": "B2",
            "ticks": 72000,
            "time": 52.32555,
            "velocity": 0.7874015748031497
          },
          {
            "duration": 0.34883699999999607,
            "durationTicks": 480,
            "midi": 47,
            "name": "B2",
            "ticks": 72480,
            "time": 52.674387,
            "velocity": 0.7874015748031497
          },
          {
            "duration": 0.3488370000000032,
            "durationTicks": 480,
            "midi": 47,
            "name": "B2",
            "ticks": 72960,
            "time": 53.023224,
            "velocity": 0.7874015748031497
          },
          {
            "duration": 0.34883699999999607,
            "durationTicks": 480,
            "midi": 47,
            "name": "B2",
            "ticks": 73440,
            "time": 53.372061,
            "velocity": 0.7874015748031497
          },
          {
            "duration": 0.3488370000000032,
            "durationTicks": 480,
            "midi": 47,
            "name": "B2",
            "ticks": 73920,
            "time": 53.720898,
            "velocity": 0.7874015748031497
          },
          {
            "duration": 0.3488370000000032,
            "durationTicks": 480,
            "midi": 47,
            "name": "B2",
            "ticks": 74400,
            "time": 54.069735,
            "velocity": 0.7874015748031497
          },
          {
            "duration": 0.34883699999999607,
            "durationTicks": 480,
            "midi": 47,
            "name": "B2",
            "ticks": 74880,
            "time": 54.418572000000005,
            "velocity": 0.7874015748031497
          },
          {
            "duration": 0.3488370000000032,
            "durationTicks": 480,
            "midi": 47,
            "name": "B2",
            "ticks": 75360,
            "time": 54.767409,
            "velocity": 0.7874015748031497
          },
          {
            "duration": 0.34883699999999607,
            "durationTicks": 480,
            "midi": 47,
            "name": "B2",
            "ticks": 75840,
            "time": 55.116246000000004,
            "velocity": 0.7874015748031497
          },
          {
            "duration": 0.3488370000000032,
            "durationTicks": 480,
            "midi": 47,
            "name": "B2",
            "ticks": 76320,
            "time": 55.465083,
            "velocity": 0.7874015748031497
          },
          {
            "duration": 0.34883699999999607,
            "durationTicks": 480,
            "midi": 47,
            "name": "B2",
            "ticks": 76800,
            "time": 55.81392,
            "velocity": 0.7874015748031497
          },
          {
            "duration": 0.3488370000000032,
            "durationTicks": 480,
            "midi": 47,
            "name": "B2",
            "ticks": 77280,
            "time": 56.162757,
            "velocity": 0.7874015748031497
          },
          {
            "duration": 0.34883699999999607,
            "durationTicks": 480,
            "midi": 47,
            "name": "B2",
            "ticks": 77760,
            "time": 56.511594,
            "velocity": 0.7874015748031497
          },
          {
            "duration": 0.3488370000000032,
            "durationTicks": 480,
            "midi": 47,
            "name": "B2",
            "ticks": 78240,
            "time": 56.860431,
            "velocity": 0.7874015748031497
          },
          {
            "duration": 0.3488370000000032,
            "durationTicks": 480,
            "midi": 54,
            "name": "F#3",
            "ticks": 78720,
            "time": 57.209268,
            "velocity": 0.7874015748031497
          },
          {
            "duration": 0.34883699999999607,
            "durationTicks": 480,
            "midi": 54,
            "name": "F#3",
            "ticks": 79200,
            "time": 57.558105000000005,
            "velocity": 0.7874015748031497
          },
          {
            "duration": 0.3488370000000032,
            "durationTicks": 480,
            "midi": 54,
            "name": "F#3",
            "ticks": 79680,
            "time": 57.906942,
            "velocity": 0.7874015748031497
          },
          {
            "duration": 0.34883699999999607,
            "durationTicks": 480,
            "midi": 54,
            "name": "F#3",
            "ticks": 80160,
            "time": 58.255779000000004,
            "velocity": 0.7874015748031497
          },
          {
            "duration": 0.3488370000000032,
            "durationTicks": 480,
            "midi": 54,
            "name": "F#3",
            "ticks": 80640,
            "time": 58.604616,
            "velocity": 0.7874015748031497
          },
          {
            "duration": 0.34883699999999607,
            "durationTicks": 480,
            "midi": 54,
            "name": "F#3",
            "ticks": 81120,
            "time": 58.953453,
            "velocity": 0.7874015748031497
          },
          {
            "duration": 0.3488370000000032,
            "durationTicks": 480,
            "midi": 54,
            "name": "F#3",
            "ticks": 81600,
            "time": 59.30229,
            "velocity": 0.7874015748031497
          },
          {
            "duration": 0.34883699999999607,
            "durationTicks": 480,
            "midi": 54,
            "name": "F#3",
            "ticks": 82080,
            "time": 59.651127,
            "velocity": 0.7874015748031497
          },
          {
            "duration": 0.3488370000000032,
            "durationTicks": 480,
            "midi": 54,
            "name": "F#3",
            "ticks": 82560,
            "time": 59.999964,
            "velocity": 0.7874015748031497
          },
          {
            "duration": 0.3488370000000032,
            "durationTicks": 480,
            "midi": 54,
            "name": "F#3",
            "ticks": 83040,
            "time": 60.348801,
            "velocity": 0.7874015748031497
          },
          {
            "duration": 0.34883699999999607,
            "durationTicks": 480,
            "midi": 54,
            "name": "F#3",
            "ticks": 83520,
            "time": 60.697638000000005,
            "velocity": 0.7874015748031497
          },
          {
            "duration": 0.3488370000000032,
            "durationTicks": 480,
            "midi": 54,
            "name": "F#3",
            "ticks": 84000,
            "time": 61.046475,
            "velocity": 0.7874015748031497
          },
          {
            "duration": 0.34883699999999607,
            "durationTicks": 480,
            "midi": 54,
            "name": "F#3",
            "ticks": 84480,
            "time": 61.395312000000004,
            "velocity": 0.7874015748031497
          },
          {
            "duration": 0.3488370000000032,
            "durationTicks": 480,
            "midi": 54,
            "name": "F#3",
            "ticks": 84960,
            "time": 61.744149,
            "velocity": 0.7874015748031497
          },
          {
            "duration": 0.34883699999999607,
            "durationTicks": 480,
            "midi": 54,
            "name": "F#3",
            "ticks": 85440,
            "time": 62.092986,
            "velocity": 0.7874015748031497
          },
          {
            "duration": 0.3488370000000032,
            "durationTicks": 480,
            "midi": 54,
            "name": "F#3",
            "ticks": 85920,
            "time": 62.441823,
            "velocity": 0.7874015748031497
          },
          {
            "duration": 0.34883699999999607,
            "durationTicks": 480,
            "midi": 52,
            "name": "E3",
            "ticks": 86400,
            "time": 62.79066,
            "velocity": 0.7874015748031497
          },
          {
            "duration": 0.3488370000000032,
            "durationTicks": 480,
            "midi": 52,
            "name": "E3",
            "ticks": 86880,
            "time": 63.139497,
            "velocity": 0.7874015748031497
          },
          {
            "duration": 0.3488370000000032,
            "durationTicks": 480,
            "midi": 52,
            "name": "E3",
            "ticks": 87360,
            "time": 63.488334,
            "velocity": 0.7874015748031497
          },
          {
            "duration": 0.34883699999999607,
            "durationTicks": 480,
            "midi": 52,
            "name": "E3",
            "ticks": 87840,
            "time": 63.837171000000005,
            "velocity": 0.7874015748031497
          },
          {
            "duration": 0.3488370000000032,
            "durationTicks": 480,
            "midi": 52,
            "name": "E3",
            "ticks": 88320,
            "time": 64.186008,
            "velocity": 0.7874015748031497
          },
          {
            "duration": 0.3488370000000032,
            "durationTicks": 480,
            "midi": 52,
            "name": "E3",
            "ticks": 88800,
            "time": 64.534845,
            "velocity": 0.7874015748031497
          },
          {
            "duration": 0.34883699999998896,
            "durationTicks": 480,
            "midi": 52,
            "name": "E3",
            "ticks": 89280,
            "time": 64.88368200000001,
            "velocity": 0.7874015748031497
          },
          {
            "duration": 0.3488370000000032,
            "durationTicks": 480,
            "midi": 52,
            "name": "E3",
            "ticks": 89760,
            "time": 65.232519,
            "velocity": 0.7874015748031497
          },
          {
            "duration": 0.3488370000000032,
            "durationTicks": 480,
            "midi": 52,
            "name": "E3",
            "ticks": 90240,
            "time": 65.581356,
            "velocity": 0.7874015748031497
          },
          {
            "duration": 0.3488370000000032,
            "durationTicks": 480,
            "midi": 52,
            "name": "E3",
            "ticks": 90720,
            "time": 65.930193,
            "velocity": 0.7874015748031497
          },
          {
            "duration": 0.34883699999998896,
            "durationTicks": 480,
            "midi": 52,
            "name": "E3",
            "ticks": 91200,
            "time": 66.27903,
            "velocity": 0.7874015748031497
          },
          {
            "duration": 0.3488370000000032,
            "durationTicks": 480,
            "midi": 52,
            "name": "E3",
            "ticks": 91680,
            "time": 66.627867,
            "velocity": 0.7874015748031497
          },
          {
            "duration": 0.3488370000000032,
            "durationTicks": 480,
            "midi": 52,
            "name": "E3",
            "ticks": 92160,
            "time": 66.976704,
            "velocity": 0.7874015748031497
          },
          {
            "duration": 0.3488370000000032,
            "durationTicks": 480,
            "midi": 52,
            "name": "E3",
            "ticks": 92640,
            "time": 67.325541,
            "velocity": 0.7874015748031497
          },
          {
            "duration": 0.3488370000000032,
            "durationTicks": 480,
            "midi": 52,
            "name": "E3",
            "ticks": 93120,
            "time": 67.674378,
            "velocity": 0.7874015748031497
          },
          {
            "duration": 0.34883699999998896,
            "durationTicks": 480,
            "midi": 52,
            "name": "E3",
            "ticks": 93600,
            "time": 68.02321500000001,
            "velocity": 0.7874015748031497
          },
          {
            "duration": 0.3488370000000032,
            "durationTicks": 480,
            "midi": 47,
            "name": "B2",
            "ticks": 94080,
            "time": 68.372052,
            "velocity": 0.7874015748031497
          },
          {
            "duration": 0.3488370000000032,
            "durationTicks": 480,
            "midi": 47,
            "name": "B2",
            "ticks": 94560,
            "time": 68.720889,
            "velocity": 0.7874015748031497
          },
          {
            "duration": 0.3488370000000032,
            "durationTicks": 480,
            "midi": 47,
            "name": "B2",
            "ticks": 95040,
            "time": 69.069726,
            "velocity": 0.7874015748031497
          },
          {
            "duration": 0.34883699999998896,
            "durationTicks": 480,
            "midi": 47,
            "name": "B2",
            "ticks": 95520,
            "time": 69.418563,
            "velocity": 0.7874015748031497
          },
          {
            "duration": 0.3488370000000032,
            "durationTicks": 480,
            "midi": 47,
            "name": "B2",
            "ticks": 96000,
            "time": 69.7674,
            "velocity": 0.7874015748031497
          },
          {
            "duration": 0.3488370000000032,
            "durationTicks": 480,
            "midi": 47,
            "name": "B2",
            "ticks": 96480,
            "time": 70.116237,
            "velocity": 0.7874015748031497
          },
          {
            "duration": 0.3488370000000032,
            "durationTicks": 480,
            "midi": 47,
            "name": "B2",
            "ticks": 96960,
            "time": 70.465074,
            "velocity": 0.7874015748031497
          },
          {
            "duration": 0.3488370000000032,
            "durationTicks": 480,
            "midi": 47,
            "name": "B2",
            "ticks": 97440,
            "time": 70.813911,
            "velocity": 0.7874015748031497
          },
          {
            "duration": 0.34883699999998896,
            "durationTicks": 480,
            "midi": 47,
            "name": "B2",
            "ticks": 97920,
            "time": 71.16274800000001,
            "velocity": 0.7874015748031497
          },
          {
            "duration": 0.3488370000000032,
            "durationTicks": 480,
            "midi": 47,
            "name": "B2",
            "ticks": 98400,
            "time": 71.511585,
            "velocity": 0.7874015748031497
          },
          {
            "duration": 0.3488370000000032,
            "durationTicks": 480,
            "midi": 47,
            "name": "B2",
            "ticks": 98880,
            "time": 71.860422,
            "velocity": 0.7874015748031497
          },
          {
            "duration": 0.3488370000000032,
            "durationTicks": 480,
            "midi": 47,
            "name": "B2",
            "ticks": 99360,
            "time": 72.209259,
            "velocity": 0.7874015748031497
          },
          {
            "duration": 0.34883699999998896,
            "durationTicks": 480,
            "midi": 47,
            "name": "B2",
            "ticks": 99840,
            "time": 72.558096,
            "velocity": 0.7874015748031497
          },
          {
            "duration": 0.3488370000000032,
            "durationTicks": 480,
            "midi": 47,
            "name": "B2",
            "ticks": 100320,
            "time": 72.906933,
            "velocity": 0.7874015748031497
          },
          {
            "duration": 0.3488370000000032,
            "durationTicks": 480,
            "midi": 47,
            "name": "B2",
            "ticks": 100800,
            "time": 73.25577,
            "velocity": 0.7874015748031497
          },
          {
            "duration": 0.3488370000000032,
            "durationTicks": 480,
            "midi": 47,
            "name": "B2",
            "ticks": 101280,
            "time": 73.604607,
            "velocity": 0.7874015748031497
          },
          {
            "duration": 0.3488370000000032,
            "durationTicks": 480,
            "midi": 54,
            "name": "F#3",
            "ticks": 101760,
            "time": 73.953444,
            "velocity": 0.7874015748031497
          },
          {
            "duration": 0.34883699999998896,
            "durationTicks": 480,
            "midi": 54,
            "name": "F#3",
            "ticks": 102240,
            "time": 74.30228100000001,
            "velocity": 0.7874015748031497
          },
          {
            "duration": 0.3488370000000032,
            "durationTicks": 480,
            "midi": 54,
            "name": "F#3",
            "ticks": 102720,
            "time": 74.651118,
            "velocity": 0.7874015748031497
          },
          {
            "duration": 0.3488370000000032,
            "durationTicks": 480,
            "midi": 54,
            "name": "F#3",
            "ticks": 103200,
            "time": 74.999955,
            "velocity": 0.7874015748031497
          },
          {
            "duration": 0.3488370000000032,
            "durationTicks": 480,
            "midi": 54,
            "name": "F#3",
            "ticks": 103680,
            "time": 75.348792,
            "velocity": 0.7874015748031497
          },
          {
            "duration": 0.34883699999998896,
            "durationTicks": 480,
            "midi": 54,
            "name": "F#3",
            "ticks": 104160,
            "time": 75.697629,
            "velocity": 0.7874015748031497
          },
          {
            "duration": 0.3488370000000032,
            "durationTicks": 480,
            "midi": 54,
            "name": "F#3",
            "ticks": 104640,
            "time": 76.046466,
            "velocity": 0.7874015748031497
          },
          {
            "duration": 0.3488370000000032,
            "durationTicks": 480,
            "midi": 54,
            "name": "F#3",
            "ticks": 105120,
            "time": 76.395303,
            "velocity": 0.7874015748031497
          },
          {
            "duration": 0.3488370000000032,
            "durationTicks": 480,
            "midi": 54,
            "name": "F#3",
            "ticks": 105600,
            "time": 76.74414,
            "velocity": 0.7874015748031497
          },
          {
            "duration": 0.3488370000000032,
            "durationTicks": 480,
            "midi": 54,
            "name": "F#3",
            "ticks": 106080,
            "time": 77.092977,
            "velocity": 0.7874015748031497
          },
          {
            "duration": 0.34883699999998896,
            "durationTicks": 480,
            "midi": 54,
            "name": "F#3",
            "ticks": 106560,
            "time": 77.44181400000001,
            "velocity": 0.7874015748031497
          },
          {
            "duration": 0.3488370000000032,
            "durationTicks": 480,
            "midi": 54,
            "name": "F#3",
            "ticks": 107040,
            "time": 77.790651,
            "velocity": 0.7874015748031497
          },
          {
            "duration": 0.3488370000000032,
            "durationTicks": 480,
            "midi": 54,
            "name": "F#3",
            "ticks": 107520,
            "time": 78.139488,
            "velocity": 0.7874015748031497
          },
          {
            "duration": 0.3488370000000032,
            "durationTicks": 480,
            "midi": 54,
            "name": "F#3",
            "ticks": 108000,
            "time": 78.488325,
            "velocity": 0.7874015748031497
          },
          {
            "duration": 0.34883699999998896,
            "durationTicks": 480,
            "midi": 54,
            "name": "F#3",
            "ticks": 108480,
            "time": 78.837162,
            "velocity": 0.7874015748031497
          },
          {
            "duration": 0.3488370000000032,
            "durationTicks": 480,
            "midi": 54,
            "name": "F#3",
            "ticks": 108960,
            "time": 79.185999,
            "velocity": 0.7874015748031497
          },
          {
            "duration": 0.3488370000000032,
            "durationTicks": 480,
            "midi": 52,
            "name": "E3",
            "ticks": 109440,
            "time": 79.534836,
            "velocity": 0.7874015748031497
          },
          {
            "duration": 0.3488370000000032,
            "durationTicks": 480,
            "midi": 52,
            "name": "E3",
            "ticks": 109920,
            "time": 79.883673,
            "velocity": 0.7874015748031497
          },
          {
            "duration": 0.3488370000000032,
            "durationTicks": 480,
            "midi": 52,
            "name": "E3",
            "ticks": 110400,
            "time": 80.23251,
            "velocity": 0.7874015748031497
          },
          {
            "duration": 0.34883699999998896,
            "durationTicks": 480,
            "midi": 52,
            "name": "E3",
            "ticks": 110880,
            "time": 80.58134700000001,
            "velocity": 0.7874015748031497
          },
          {
            "duration": 0.3488370000000032,
            "durationTicks": 480,
            "midi": 52,
            "name": "E3",
            "ticks": 111360,
            "time": 80.930184,
            "velocity": 0.7874015748031497
          },
          {
            "duration": 0.3488370000000032,
            "durationTicks": 480,
            "midi": 52,
            "name": "E3",
            "ticks": 111840,
            "time": 81.279021,
            "velocity": 0.7874015748031497
          },
          {
            "duration": 0.3488370000000032,
            "durationTicks": 480,
            "midi": 52,
            "name": "E3",
            "ticks": 112320,
            "time": 81.627858,
            "velocity": 0.7874015748031497
          },
          {
            "duration": 0.34883699999998896,
            "durationTicks": 480,
            "midi": 52,
            "name": "E3",
            "ticks": 112800,
            "time": 81.976695,
            "velocity": 0.7874015748031497
          },
          {
            "duration": 0.3488370000000032,
            "durationTicks": 480,
            "midi": 52,
            "name": "E3",
            "ticks": 113280,
            "time": 82.325532,
            "velocity": 0.7874015748031497
          },
          {
            "duration": 0.3488370000000032,
            "durationTicks": 480,
            "midi": 52,
            "name": "E3",
            "ticks": 113760,
            "time": 82.674369,
            "velocity": 0.7874015748031497
          },
          {
            "duration": 0.3488370000000032,
            "durationTicks": 480,
            "midi": 52,
            "name": "E3",
            "ticks": 114240,
            "time": 83.023206,
            "velocity": 0.7874015748031497
          },
          {
            "duration": 0.3488370000000032,
            "durationTicks": 480,
            "midi": 52,
            "name": "E3",
            "ticks": 114720,
            "time": 83.372043,
            "velocity": 0.7874015748031497
          },
          {
            "duration": 0.34883699999998896,
            "durationTicks": 480,
            "midi": 52,
            "name": "E3",
            "ticks": 115200,
            "time": 83.72088000000001,
            "velocity": 0.7874015748031497
          },
          {
            "duration": 0.3488370000000032,
            "durationTicks": 480,
            "midi": 52,
            "name": "E3",
            "ticks": 115680,
            "time": 84.069717,
            "velocity": 0.7874015748031497
          },
          {
            "duration": 0.3488370000000032,
            "durationTicks": 480,
            "midi": 52,
            "name": "E3",
            "ticks": 116160,
            "time": 84.418554,
            "velocity": 0.7874015748031497
          },
          {
            "duration": 0.3488370000000032,
            "durationTicks": 480,
            "midi": 52,
            "name": "E3",
            "ticks": 116640,
            "time": 84.767391,
            "velocity": 0.7874015748031497
          },
          {
            "duration": 0.34883699999998896,
            "durationTicks": 480,
            "midi": 47,
            "name": "B2",
            "ticks": 117120,
            "time": 85.116228,
            "velocity": 0.7874015748031497
          },
          {
            "duration": 0.3488370000000032,
            "durationTicks": 480,
            "midi": 47,
            "name": "B2",
            "ticks": 117600,
            "time": 85.465065,
            "velocity": 0.7874015748031497
          },
          {
            "duration": 0.3488370000000032,
            "durationTicks": 480,
            "midi": 47,
            "name": "B2",
            "ticks": 118080,
            "time": 85.813902,
            "velocity": 0.7874015748031497
          },
          {
            "duration": 0.3488370000000032,
            "durationTicks": 480,
            "midi": 47,
            "name": "B2",
            "ticks": 118560,
            "time": 86.162739,
            "velocity": 0.7874015748031497
          },
          {
            "duration": 0.3488370000000032,
            "durationTicks": 480,
            "midi": 47,
            "name": "B2",
            "ticks": 119040,
            "time": 86.511576,
            "velocity": 0.7874015748031497
          },
          {
            "duration": 0.34883699999998896,
            "durationTicks": 480,
            "midi": 47,
            "name": "B2",
            "ticks": 119520,
            "time": 86.86041300000001,
            "velocity": 0.7874015748031497
          },
          {
            "duration": 0.3488370000000032,
            "durationTicks": 480,
            "midi": 47,
            "name": "B2",
            "ticks": 120000,
            "time": 87.20925,
            "velocity": 0.7874015748031497
          },
          {
            "duration": 0.3488370000000032,
            "durationTicks": 480,
            "midi": 47,
            "name": "B2",
            "ticks": 120480,
            "time": 87.558087,
            "velocity": 0.7874015748031497
          },
          {
            "duration": 0.3488370000000032,
            "durationTicks": 480,
            "midi": 47,
            "name": "B2",
            "ticks": 120960,
            "time": 87.906924,
            "velocity": 0.7874015748031497
          },
          {
            "duration": 0.34883699999998896,
            "durationTicks": 480,
            "midi": 47,
            "name": "B2",
            "ticks": 121440,
            "time": 88.255761,
            "velocity": 0.7874015748031497
          },
          {
            "duration": 0.3488370000000032,
            "durationTicks": 480,
            "midi": 47,
            "name": "B2",
            "ticks": 121920,
            "time": 88.604598,
            "velocity": 0.7874015748031497
          },
          {
            "duration": 0.3488370000000032,
            "durationTicks": 480,
            "midi": 47,
            "name": "B2",
            "ticks": 122400,
            "time": 88.953435,
            "velocity": 0.7874015748031497
          },
          {
            "duration": 0.3488370000000032,
            "durationTicks": 480,
            "midi": 47,
            "name": "B2",
            "ticks": 122880,
            "time": 89.302272,
            "velocity": 0.7874015748031497
          },
          {
            "duration": 0.3488370000000032,
            "durationTicks": 480,
            "midi": 47,
            "name": "B2",
            "ticks": 123360,
            "time": 89.651109,
            "velocity": 0.7874015748031497
          },
          {
            "duration": 0.34883699999998896,
            "durationTicks": 480,
            "midi": 47,
            "name": "B2",
            "ticks": 123840,
            "time": 89.99994600000001,
            "velocity": 0.7874015748031497
          },
          {
            "duration": 0.3488370000000032,
            "durationTicks": 480,
            "midi": 47,
            "name": "B2",
            "ticks": 124320,
            "time": 90.348783,
            "velocity": 0.7874015748031497
          },
          {
            "duration": 0.3488370000000032,
            "durationTicks": 480,
            "midi": 52,
            "name": "E3",
            "ticks": 124800,
            "time": 90.69762,
            "velocity": 0.7874015748031497
          },
          {
            "duration": 0.3488370000000032,
            "durationTicks": 480,
            "midi": 52,
            "name": "E3",
            "ticks": 125280,
            "time": 91.046457,
            "velocity": 0.7874015748031497
          },
          {
            "duration": 0.34883699999998896,
            "durationTicks": 480,
            "midi": 52,
            "name": "E3",
            "ticks": 125760,
            "time": 91.395294,
            "velocity": 0.7874015748031497
          },
          {
            "duration": 0.6976740000000063,
            "durationTicks": 960,
            "midi": 56,
            "name": "G#3",
            "ticks": 126240,
            "time": 91.744131,
            "velocity": 0.7874015748031497
          },
          {
            "duration": 0.3488370000000032,
            "durationTicks": 480,
            "midi": 52,
            "name": "E3",
            "ticks": 127200,
            "time": 92.441805,
            "velocity": 0.7874015748031497
          },
          {
            "duration": 0.6976739999999921,
            "durationTicks": 960,
            "midi": 59,
            "name": "B3",
            "ticks": 127680,
            "time": 92.790642,
            "velocity": 0.7874015748031497
          },
          {
            "duration": 1.0465110000000095,
            "durationTicks": 1440,
            "midi": 56,
            "name": "G#3",
            "ticks": 128640,
            "time": 93.488316,
            "velocity": 0.7874015748031497
          },
          {
            "duration": 0.6976739999999921,
            "durationTicks": 960,
            "midi": 54,
            "name": "F#3",
            "ticks": 130080,
            "time": 94.534827,
            "velocity": 0.7874015748031497
          },
          {
            "duration": 0.3488370000000032,
            "durationTicks": 480,
            "midi": 54,
            "name": "F#3",
            "ticks": 131040,
            "time": 95.232501,
            "velocity": 0.7874015748031497
          },
          {
            "duration": 0.3488370000000032,
            "durationTicks": 480,
            "midi": 54,
            "name": "F#3",
            "ticks": 131520,
            "time": 95.581338,
            "velocity": 0.7874015748031497
          },
          {
            "duration": 0.3488370000000032,
            "durationTicks": 480,
            "midi": 54,
            "name": "F#3",
            "ticks": 132000,
            "time": 95.930175,
            "velocity": 0.7874015748031497
          },
          {
            "duration": 0.6976739999999921,
            "durationTicks": 960,
            "midi": 52,
            "name": "E3",
            "ticks": 132480,
            "time": 96.27901200000001,
            "velocity": 0.7874015748031497
          },
          {
            "duration": 0.3488370000000032,
            "durationTicks": 480,
            "midi": 52,
            "name": "E3",
            "ticks": 133440,
            "time": 96.976686,
            "velocity": 0.7874015748031497
          },
          {
            "duration": 0.6976739999999921,
            "durationTicks": 960,
            "midi": 56,
            "name": "G#3",
            "ticks": 133920,
            "time": 97.325523,
            "velocity": 0.7874015748031497
          },
          {
            "duration": 0.3488370000000032,
            "durationTicks": 480,
            "midi": 54,
            "name": "F#3",
            "ticks": 134880,
            "time": 98.023197,
            "velocity": 0.7874015748031497
          },
          {
            "duration": 0.6976740000000063,
            "durationTicks": 960,
            "midi": 59,
            "name": "B3",
            "ticks": 135360,
            "time": 98.372034,
            "velocity": 0.7874015748031497
          },
          {
            "duration": 1.0465109999999953,
            "durationTicks": 1440,
            "midi": 56,
            "name": "G#3",
            "ticks": 136320,
            "time": 99.069708,
            "velocity": 0.7874015748031497
          },
          {
            "duration": 0.6976740000000063,
            "durationTicks": 960,
            "midi": 54,
            "name": "F#3",
            "ticks": 137760,
            "time": 100.116219,
            "velocity": 0.7874015748031497
          },
          {
            "duration": 0.34883699999998896,
            "durationTicks": 480,
            "midi": 54,
            "name": "F#3",
            "ticks": 138720,
            "time": 100.81389300000001,
            "velocity": 0.7874015748031497
          },
          {
            "duration": 0.3488370000000032,
            "durationTicks": 480,
            "midi": 54,
            "name": "F#3",
            "ticks": 139200,
            "time": 101.16273,
            "velocity": 0.7874015748031497
          },
          {
            "duration": 0.3488370000000032,
            "durationTicks": 480,
            "midi": 54,
            "name": "F#3",
            "ticks": 139680,
            "time": 101.511567,
            "velocity": 0.7874015748031497
          },
          {
            "duration": 0.6976740000000063,
            "durationTicks": 960,
            "midi": 52,
            "name": "E3",
            "ticks": 140160,
            "time": 101.860404,
            "velocity": 0.7874015748031497
          },
          {
            "duration": 0.34883699999998896,
            "durationTicks": 480,
            "midi": 52,
            "name": "E3",
            "ticks": 141120,
            "time": 102.55807800000001,
            "velocity": 0.7874015748031497
          },
          {
            "duration": 0.6976740000000063,
            "durationTicks": 960,
            "midi": 56,
            "name": "G#3",
            "ticks": 141600,
            "time": 102.906915,
            "velocity": 0.7874015748031497
          },
          {
            "duration": 0.3488370000000032,
            "durationTicks": 480,
            "midi": 54,
            "name": "F#3",
            "ticks": 142560,
            "time": 103.604589,
            "velocity": 0.7874015748031497
          },
          {
            "duration": 0.6976739999999921,
            "durationTicks": 960,
            "midi": 59,
            "name": "B3",
            "ticks": 143040,
            "time": 103.95342600000001,
            "velocity": 0.7874015748031497
          },
          {
            "duration": 1.0465110000000095,
            "durationTicks": 1440,
            "midi": 56,
            "name": "G#3",
            "ticks": 144000,
            "time": 104.6511,
            "velocity": 0.7874015748031497
          },
          {
            "duration": 0.6976739999999921,
            "durationTicks": 960,
            "midi": 54,
            "name": "F#3",
            "ticks": 145440,
            "time": 105.69761100000001,
            "velocity": 0.7874015748031497
          },
          {
            "duration": 0.3488370000000032,
            "durationTicks": 480,
            "midi": 54,
            "name": "F#3",
            "ticks": 146400,
            "time": 106.395285,
            "velocity": 0.7874015748031497
          },
          {
            "duration": 0.3488370000000032,
            "durationTicks": 480,
            "midi": 54,
            "name": "F#3",
            "ticks": 146880,
            "time": 106.744122,
            "velocity": 0.7874015748031497
          },
          {
            "duration": 0.34883699999998896,
            "durationTicks": 480,
            "midi": 54,
            "name": "F#3",
            "ticks": 147360,
            "time": 107.09295900000001,
            "velocity": 0.7874015748031497
          },
          {
            "duration": 5.581392000000008,
            "durationTicks": 7680,
            "midi": 52,
            "name": "E3",
            "ticks": 147840,
            "time": 107.441796,
            "velocity": 0.7874015748031497
          },
          {
            "duration": 0.3488370000000032,
            "durationTicks": 480,
            "midi": 59,
            "name": "B3",
            "ticks": 155520,
            "time": 113.023188,
            "velocity": 0.8661417322834646
          },
          {
            "duration": 0.34883699999998896,
            "durationTicks": 480,
            "midi": 59,
            "name": "B3",
            "ticks": 156000,
            "time": 113.37202500000001,
            "velocity": 0.8661417322834646
          },
          {
            "duration": 0.3488370000000032,
            "durationTicks": 480,
            "midi": 59,
            "name": "B3",
            "ticks": 156480,
            "time": 113.720862,
            "velocity": 0.8661417322834646
          },
          {
            "duration": 0.3488370000000032,
            "durationTicks": 480,
            "midi": 59,
            "name": "B3",
            "ticks": 156960,
            "time": 114.069699,
            "velocity": 0.8661417322834646
          },
          {
            "duration": 0.3488370000000032,
            "durationTicks": 480,
            "midi": 59,
            "name": "B3",
            "ticks": 157440,
            "time": 114.418536,
            "velocity": 0.8661417322834646
          },
          {
            "duration": 0.3488370000000032,
            "durationTicks": 480,
            "midi": 59,
            "name": "B3",
            "ticks": 157920,
            "time": 114.767373,
            "velocity": 0.8661417322834646
          },
          {
            "duration": 0.34883699999998896,
            "durationTicks": 480,
            "midi": 59,
            "name": "B3",
            "ticks": 158400,
            "time": 115.11621000000001,
            "velocity": 0.8661417322834646
          },
          {
            "duration": 0.3488370000000032,
            "durationTicks": 480,
            "midi": 59,
            "name": "B3",
            "ticks": 158880,
            "time": 115.465047,
            "velocity": 0.8661417322834646
          },
          {
            "duration": 0.3488370000000032,
            "durationTicks": 480,
            "midi": 59,
            "name": "B3",
            "ticks": 159360,
            "time": 115.813884,
            "velocity": 0.8661417322834646
          },
          {
            "duration": 0.3488370000000032,
            "durationTicks": 480,
            "midi": 59,
            "name": "B3",
            "ticks": 159840,
            "time": 116.162721,
            "velocity": 0.8661417322834646
          },
          {
            "duration": 0.34883699999998896,
            "durationTicks": 480,
            "midi": 59,
            "name": "B3",
            "ticks": 160320,
            "time": 116.51155800000001,
            "velocity": 0.8661417322834646
          },
          {
            "duration": 0.3488370000000032,
            "durationTicks": 480,
            "midi": 59,
            "name": "B3",
            "ticks": 160800,
            "time": 116.860395,
            "velocity": 0.8661417322834646
          },
          {
            "duration": 0.3488370000000032,
            "durationTicks": 480,
            "midi": 59,
            "name": "B3",
            "ticks": 161280,
            "time": 117.209232,
            "velocity": 0.8661417322834646
          },
          {
            "duration": 0.3488370000000032,
            "durationTicks": 480,
            "midi": 59,
            "name": "B3",
            "ticks": 161760,
            "time": 117.558069,
            "velocity": 0.8661417322834646
          },
          {
            "duration": 0.3488370000000032,
            "durationTicks": 480,
            "midi": 59,
            "name": "B3",
            "ticks": 162240,
            "time": 117.906906,
            "velocity": 0.8661417322834646
          },
          {
            "duration": 0.34883699999998896,
            "durationTicks": 480,
            "midi": 59,
            "name": "B3",
            "ticks": 162720,
            "time": 118.25574300000001,
            "velocity": 0.8661417322834646
          },
          {
            "duration": 0.3488370000000032,
            "durationTicks": 480,
            "midi": 54,
            "name": "F#3",
            "ticks": 163200,
            "time": 118.60458,
            "velocity": 0.8661417322834646
          },
          {
            "duration": 0.3488370000000032,
            "durationTicks": 480,
            "midi": 54,
            "name": "F#3",
            "ticks": 163680,
            "time": 118.953417,
            "velocity": 0.8661417322834646
          },
          {
            "duration": 0.3488370000000032,
            "durationTicks": 480,
            "midi": 54,
            "name": "F#3",
            "ticks": 164160,
            "time": 119.302254,
            "velocity": 0.8661417322834646
          },
          {
            "duration": 0.34883699999998896,
            "durationTicks": 480,
            "midi": 54,
            "name": "F#3",
            "ticks": 164640,
            "time": 119.65109100000001,
            "velocity": 0.8661417322834646
          },
          {
            "duration": 0.3488370000000032,
            "durationTicks": 480,
            "midi": 54,
            "name": "F#3",
            "ticks": 165120,
            "time": 119.999928,
            "velocity": 0.8661417322834646
          },
          {
            "duration": 0.3488370000000032,
            "durationTicks": 480,
            "midi": 54,
            "name": "F#3",
            "ticks": 165600,
            "time": 120.348765,
            "velocity": 0.8661417322834646
          },
          {
            "duration": 0.3488370000000032,
            "durationTicks": 480,
            "midi": 54,
            "name": "F#3",
            "ticks": 166080,
            "time": 120.697602,
            "velocity": 0.8661417322834646
          },
          {
            "duration": 0.3488370000000032,
            "durationTicks": 480,
            "midi": 54,
            "name": "F#3",
            "ticks": 166560,
            "time": 121.046439,
            "velocity": 0.8661417322834646
          },
          {
            "duration": 0.34883699999998896,
            "durationTicks": 480,
            "midi": 54,
            "name": "F#3",
            "ticks": 167040,
            "time": 121.39527600000001,
            "velocity": 0.8661417322834646
          },
          {
            "duration": 0.3488370000000032,
            "durationTicks": 480,
            "midi": 54,
            "name": "F#3",
            "ticks": 167520,
            "time": 121.744113,
            "velocity": 0.8661417322834646
          },
          {
            "duration": 0.3488370000000032,
            "durationTicks": 480,
            "midi": 54,
            "name": "F#3",
            "ticks": 168000,
            "time": 122.09295,
            "velocity": 0.8661417322834646
          },
          {
            "duration": 0.3488370000000032,
            "durationTicks": 480,
            "midi": 54,
            "name": "F#3",
            "ticks": 168480,
            "time": 122.441787,
            "velocity": 0.8661417322834646
          },
          {
            "duration": 0.34883699999998896,
            "durationTicks": 480,
            "midi": 54,
            "name": "F#3",
            "ticks": 168960,
            "time": 122.79062400000001,
            "velocity": 0.8661417322834646
          },
          {
            "duration": 0.3488370000000032,
            "durationTicks": 480,
            "midi": 54,
            "name": "F#3",
            "ticks": 169440,
            "time": 123.139461,
            "velocity": 0.8661417322834646
          },
          {
            "duration": 0.3488370000000032,
            "durationTicks": 480,
            "midi": 54,
            "name": "F#3",
            "ticks": 169920,
            "time": 123.488298,
            "velocity": 0.8661417322834646
          },
          {
            "duration": 0.3488370000000032,
            "durationTicks": 480,
            "midi": 54,
            "name": "F#3",
            "ticks": 170400,
            "time": 123.837135,
            "velocity": 0.8661417322834646
          },
          {
            "duration": 0.3488370000000032,
            "durationTicks": 480,
            "midi": 52,
            "name": "E3",
            "ticks": 170880,
            "time": 124.185972,
            "velocity": 0.8661417322834646
          },
          {
            "duration": 0.34883699999998896,
            "durationTicks": 480,
            "midi": 52,
            "name": "E3",
            "ticks": 171360,
            "time": 124.53480900000001,
            "velocity": 0.8661417322834646
          },
          {
            "duration": 0.3488370000000032,
            "durationTicks": 480,
            "midi": 52,
            "name": "E3",
            "ticks": 171840,
            "time": 124.883646,
            "velocity": 0.8661417322834646
          },
          {
            "duration": 0.3488370000000032,
            "durationTicks": 480,
            "midi": 52,
            "name": "E3",
            "ticks": 172320,
            "time": 125.232483,
            "velocity": 0.8661417322834646
          },
          {
            "duration": 0.3488370000000032,
            "durationTicks": 480,
            "midi": 52,
            "name": "E3",
            "ticks": 172800,
            "time": 125.58132,
            "velocity": 0.8661417322834646
          },
          {
            "duration": 0.34883699999998896,
            "durationTicks": 480,
            "midi": 52,
            "name": "E3",
            "ticks": 173280,
            "time": 125.93015700000001,
            "velocity": 0.8661417322834646
          },
          {
            "duration": 0.3488370000000032,
            "durationTicks": 480,
            "midi": 52,
            "name": "E3",
            "ticks": 173760,
            "time": 126.278994,
            "velocity": 0.8661417322834646
          },
          {
            "duration": 0.3488370000000032,
            "durationTicks": 480,
            "midi": 52,
            "name": "E3",
            "ticks": 174240,
            "time": 126.627831,
            "velocity": 0.8661417322834646
          },
          {
            "duration": 0.3488370000000032,
            "durationTicks": 480,
            "midi": 52,
            "name": "E3",
            "ticks": 174720,
            "time": 126.976668,
            "velocity": 0.8661417322834646
          },
          {
            "duration": 0.3488370000000032,
            "durationTicks": 480,
            "midi": 52,
            "name": "E3",
            "ticks": 175200,
            "time": 127.325505,
            "velocity": 0.8661417322834646
          },
          {
            "duration": 0.34883699999998896,
            "durationTicks": 480,
            "midi": 52,
            "name": "E3",
            "ticks": 175680,
            "time": 127.67434200000001,
            "velocity": 0.8661417322834646
          },
          {
            "duration": 0.3488370000000032,
            "durationTicks": 480,
            "midi": 52,
            "name": "E3",
            "ticks": 176160,
            "time": 128.023179,
            "velocity": 0.8661417322834646
          },
          {
            "duration": 0.3488370000000032,
            "durationTicks": 480,
            "midi": 52,
            "name": "E3",
            "ticks": 176640,
            "time": 128.372016,
            "velocity": 0.8661417322834646
          },
          {
            "duration": 0.3488370000000032,
            "durationTicks": 480,
            "midi": 52,
            "name": "E3",
            "ticks": 177120,
            "time": 128.720853,
            "velocity": 0.8661417322834646
          },
          {
            "duration": 0.3488370000000032,
            "durationTicks": 480,
            "midi": 52,
            "name": "E3",
            "ticks": 177600,
            "time": 129.06969,
            "velocity": 0.8661417322834646
          },
          {
            "duration": 0.3488370000000032,
            "durationTicks": 480,
            "midi": 52,
            "name": "E3",
            "ticks": 178080,
            "time": 129.418527,
            "velocity": 0.8661417322834646
          },
          {
            "duration": 0.34883699999997475,
            "durationTicks": 480,
            "midi": 59,
            "name": "B3",
            "ticks": 178560,
            "time": 129.76736400000001,
            "velocity": 0.8661417322834646
          },
          {
            "duration": 0.3488370000000032,
            "durationTicks": 480,
            "midi": 59,
            "name": "B3",
            "ticks": 179040,
            "time": 130.116201,
            "velocity": 0.8661417322834646
          },
          {
            "duration": 0.3488370000000032,
            "durationTicks": 480,
            "midi": 59,
            "name": "B3",
            "ticks": 179520,
            "time": 130.465038,
            "velocity": 0.8661417322834646
          },
          {
            "duration": 0.3488370000000032,
            "durationTicks": 480,
            "midi": 59,
            "name": "B3",
            "ticks": 180000,
            "time": 130.813875,
            "velocity": 0.8661417322834646
          },
          {
            "duration": 0.3488370000000032,
            "durationTicks": 480,
            "midi": 59,
            "name": "B3",
            "ticks": 180480,
            "time": 131.162712,
            "velocity": 0.8661417322834646
          },
          {
            "duration": 0.3488370000000032,
            "durationTicks": 480,
            "midi": 59,
            "name": "B3",
            "ticks": 180960,
            "time": 131.511549,
            "velocity": 0.8661417322834646
          },
          {
            "duration": 0.3488370000000032,
            "durationTicks": 480,
            "midi": 59,
            "name": "B3",
            "ticks": 181440,
            "time": 131.860386,
            "velocity": 0.8661417322834646
          },
          {
            "duration": 0.3488370000000032,
            "durationTicks": 480,
            "midi": 59,
            "name": "B3",
            "ticks": 181920,
            "time": 132.209223,
            "velocity": 0.8661417322834646
          },
          {
            "duration": 0.3488370000000032,
            "durationTicks": 480,
            "midi": 59,
            "name": "B3",
            "ticks": 182400,
            "time": 132.55806,
            "velocity": 0.8661417322834646
          },
          {
            "duration": 0.34883699999997475,
            "durationTicks": 480,
            "midi": 59,
            "name": "B3",
            "ticks": 182880,
            "time": 132.90689700000001,
            "velocity": 0.8661417322834646
          },
          {
            "duration": 0.3488370000000032,
            "durationTicks": 480,
            "midi": 59,
            "name": "B3",
            "ticks": 183360,
            "time": 133.255734,
            "velocity": 0.8661417322834646
          },
          {
            "duration": 0.3488370000000032,
            "durationTicks": 480,
            "midi": 59,
            "name": "B3",
            "ticks": 183840,
            "time": 133.604571,
            "velocity": 0.8661417322834646
          },
          {
            "duration": 0.3488370000000032,
            "durationTicks": 480,
            "midi": 59,
            "name": "B3",
            "ticks": 184320,
            "time": 133.953408,
            "velocity": 0.8661417322834646
          },
          {
            "duration": 0.3488370000000032,
            "durationTicks": 480,
            "midi": 59,
            "name": "B3",
            "ticks": 184800,
            "time": 134.302245,
            "velocity": 0.8661417322834646
          },
          {
            "duration": 0.3488370000000032,
            "durationTicks": 480,
            "midi": 59,
            "name": "B3",
            "ticks": 185280,
            "time": 134.651082,
            "velocity": 0.8661417322834646
          },
          {
            "duration": 0.3488370000000032,
            "durationTicks": 480,
            "midi": 59,
            "name": "B3",
            "ticks": 185760,
            "time": 134.999919,
            "velocity": 0.8661417322834646
          },
          {
            "duration": 0.3488370000000032,
            "durationTicks": 480,
            "midi": 47,
            "name": "B2",
            "ticks": 186240,
            "time": 135.348756,
            "velocity": 0.7874015748031497
          },
          {
            "duration": 0.3488370000000032,
            "durationTicks": 480,
            "midi": 47,
            "name": "B2",
            "ticks": 186720,
            "time": 135.697593,
            "velocity": 0.7874015748031497
          },
          {
            "duration": 0.34883699999997475,
            "durationTicks": 480,
            "midi": 47,
            "name": "B2",
            "ticks": 187200,
            "time": 136.04643000000002,
            "velocity": 0.7874015748031497
          },
          {
            "duration": 0.3488370000000032,
            "durationTicks": 480,
            "midi": 47,
            "name": "B2",
            "ticks": 187680,
            "time": 136.395267,
            "velocity": 0.7874015748031497
          },
          {
            "duration": 0.3488370000000032,
            "durationTicks": 480,
            "midi": 47,
            "name": "B2",
            "ticks": 188160,
            "time": 136.744104,
            "velocity": 0.7874015748031497
          },
          {
            "duration": 0.3488370000000032,
            "durationTicks": 480,
            "midi": 47,
            "name": "B2",
            "ticks": 188640,
            "time": 137.092941,
            "velocity": 0.7874015748031497
          },
          {
            "duration": 0.3488370000000032,
            "durationTicks": 480,
            "midi": 47,
            "name": "B2",
            "ticks": 189120,
            "time": 137.441778,
            "velocity": 0.7874015748031497
          },
          {
            "duration": 0.3488370000000032,
            "durationTicks": 480,
            "midi": 47,
            "name": "B2",
            "ticks": 189600,
            "time": 137.790615,
            "velocity": 0.7874015748031497
          },
          {
            "duration": 0.3488370000000032,
            "durationTicks": 480,
            "midi": 47,
            "name": "B2",
            "ticks": 190080,
            "time": 138.139452,
            "velocity": 0.7874015748031497
          },
          {
            "duration": 0.3488370000000032,
            "durationTicks": 480,
            "midi": 47,
            "name": "B2",
            "ticks": 190560,
            "time": 138.488289,
            "velocity": 0.7874015748031497
          },
          {
            "duration": 0.3488370000000032,
            "durationTicks": 480,
            "midi": 47,
            "name": "B2",
            "ticks": 191040,
            "time": 138.837126,
            "velocity": 0.7874015748031497
          },
          {
            "duration": 0.34883699999997475,
            "durationTicks": 480,
            "midi": 47,
            "name": "B2",
            "ticks": 191520,
            "time": 139.18596300000002,
            "velocity": 0.7874015748031497
          },
          {
            "duration": 0.3488370000000032,
            "durationTicks": 480,
            "midi": 47,
            "name": "B2",
            "ticks": 192000,
            "time": 139.5348,
            "velocity": 0.7874015748031497
          },
          {
            "duration": 0.3488370000000032,
            "durationTicks": 480,
            "midi": 47,
            "name": "B2",
            "ticks": 192480,
            "time": 139.883637,
            "velocity": 0.7874015748031497
          },
          {
            "duration": 0.3488370000000032,
            "durationTicks": 480,
            "midi": 47,
            "name": "B2",
            "ticks": 192960,
            "time": 140.232474,
            "velocity": 0.7874015748031497
          },
          {
            "duration": 0.3488370000000032,
            "durationTicks": 480,
            "midi": 47,
            "name": "B2",
            "ticks": 193440,
            "time": 140.581311,
            "velocity": 0.7874015748031497
          },
          {
            "duration": 0.3488370000000032,
            "durationTicks": 480,
            "midi": 54,
            "name": "F#3",
            "ticks": 193920,
            "time": 140.930148,
            "velocity": 0.7874015748031497
          },
          {
            "duration": 0.3488370000000032,
            "durationTicks": 480,
            "midi": 54,
            "name": "F#3",
            "ticks": 194400,
            "time": 141.278985,
            "velocity": 0.7874015748031497
          },
          {
            "duration": 0.3488370000000032,
            "durationTicks": 480,
            "midi": 54,
            "name": "F#3",
            "ticks": 194880,
            "time": 141.627822,
            "velocity": 0.7874015748031497
          },
          {
            "duration": 0.3488370000000032,
            "durationTicks": 480,
            "midi": 54,
            "name": "F#3",
            "ticks": 195360,
            "time": 141.976659,
            "velocity": 0.7874015748031497
          },
          {
            "duration": 0.34883699999997475,
            "durationTicks": 480,
            "midi": 54,
            "name": "F#3",
            "ticks": 195840,
            "time": 142.32549600000002,
            "velocity": 0.7874015748031497
          },
          {
            "duration": 0.3488370000000032,
            "durationTicks": 480,
            "midi": 54,
            "name": "F#3",
            "ticks": 196320,
            "time": 142.674333,
            "velocity": 0.7874015748031497
          },
          {
            "duration": 0.3488370000000032,
            "durationTicks": 480,
            "midi": 54,
            "name": "F#3",
            "ticks": 196800,
            "time": 143.02317,
            "velocity": 0.7874015748031497
          },
          {
            "duration": 0.3488370000000032,
            "durationTicks": 480,
            "midi": 54,
            "name": "F#3",
            "ticks": 197280,
            "time": 143.372007,
            "velocity": 0.7874015748031497
          },
          {
            "duration": 0.3488370000000032,
            "durationTicks": 480,
            "midi": 54,
            "name": "F#3",
            "ticks": 197760,
            "time": 143.720844,
            "velocity": 0.7874015748031497
          },
          {
            "duration": 0.3488370000000032,
            "durationTicks": 480,
            "midi": 54,
            "name": "F#3",
            "ticks": 198240,
            "time": 144.069681,
            "velocity": 0.7874015748031497
          },
          {
            "duration": 0.3488370000000032,
            "durationTicks": 480,
            "midi": 54,
            "name": "F#3",
            "ticks": 198720,
            "time": 144.418518,
            "velocity": 0.7874015748031497
          },
          {
            "duration": 0.3488370000000032,
            "durationTicks": 480,
            "midi": 54,
            "name": "F#3",
            "ticks": 199200,
            "time": 144.767355,
            "velocity": 0.7874015748031497
          },
          {
            "duration": 0.3488370000000032,
            "durationTicks": 480,
            "midi": 54,
            "name": "F#3",
            "ticks": 199680,
            "time": 145.116192,
            "velocity": 0.7874015748031497
          },
          {
            "duration": 0.34883699999997475,
            "durationTicks": 480,
            "midi": 54,
            "name": "F#3",
            "ticks": 200160,
            "time": 145.46502900000002,
            "velocity": 0.7874015748031497
          },
          {
            "duration": 0.3488370000000032,
            "durationTicks": 480,
            "midi": 54,
            "name": "F#3",
            "ticks": 200640,
            "time": 145.813866,
            "velocity": 0.7874015748031497
          },
          {
            "duration": 0.3488370000000032,
            "durationTicks": 480,
            "midi": 54,
            "name": "F#3",
            "ticks": 201120,
            "time": 146.162703,
            "velocity": 0.7874015748031497
          },
          {
            "duration": 0.3488370000000032,
            "durationTicks": 480,
            "midi": 52,
            "name": "E3",
            "ticks": 201600,
            "time": 146.51154,
            "velocity": 0.7874015748031497
          },
          {
            "duration": 0.3488370000000032,
            "durationTicks": 480,
            "midi": 52,
            "name": "E3",
            "ticks": 202080,
            "time": 146.860377,
            "velocity": 0.7874015748031497
          },
          {
            "duration": 0.3488370000000032,
            "durationTicks": 480,
            "midi": 52,
            "name": "E3",
            "ticks": 202560,
            "time": 147.209214,
            "velocity": 0.7874015748031497
          },
          {
            "duration": 0.3488370000000032,
            "durationTicks": 480,
            "midi": 52,
            "name": "E3",
            "ticks": 203040,
            "time": 147.558051,
            "velocity": 0.7874015748031497
          },
          {
            "duration": 0.3488370000000032,
            "durationTicks": 480,
            "midi": 52,
            "name": "E3",
            "ticks": 203520,
            "time": 147.906888,
            "velocity": 0.7874015748031497
          },
          {
            "duration": 0.3488370000000032,
            "durationTicks": 480,
            "midi": 52,
            "name": "E3",
            "ticks": 204000,
            "time": 148.255725,
            "velocity": 0.7874015748031497
          },
          {
            "duration": 0.34883699999997475,
            "durationTicks": 480,
            "midi": 52,
            "name": "E3",
            "ticks": 204480,
            "time": 148.60456200000002,
            "velocity": 0.7874015748031497
          },
          {
            "duration": 0.3488370000000032,
            "durationTicks": 480,
            "midi": 52,
            "name": "E3",
            "ticks": 204960,
            "time": 148.953399,
            "velocity": 0.7874015748031497
          },
          {
            "duration": 0.3488370000000032,
            "durationTicks": 480,
            "midi": 52,
            "name": "E3",
            "ticks": 205440,
            "time": 149.302236,
            "velocity": 0.7874015748031497
          },
          {
            "duration": 0.3488370000000032,
            "durationTicks": 480,
            "midi": 52,
            "name": "E3",
            "ticks": 205920,
            "time": 149.651073,
            "velocity": 0.7874015748031497
          },
          {
            "duration": 0.3488370000000032,
            "durationTicks": 480,
            "midi": 52,
            "name": "E3",
            "ticks": 206400,
            "time": 149.99991,
            "velocity": 0.7874015748031497
          },
          {
            "duration": 0.3488370000000032,
            "durationTicks": 480,
            "midi": 52,
            "name": "E3",
            "ticks": 206880,
            "time": 150.348747,
            "velocity": 0.7874015748031497
          },
          {
            "duration": 0.3488370000000032,
            "durationTicks": 480,
            "midi": 52,
            "name": "E3",
            "ticks": 207360,
            "time": 150.697584,
            "velocity": 0.7874015748031497
          },
          {
            "duration": 0.3488370000000032,
            "durationTicks": 480,
            "midi": 52,
            "name": "E3",
            "ticks": 207840,
            "time": 151.046421,
            "velocity": 0.7874015748031497
          },
          {
            "duration": 0.3488370000000032,
            "durationTicks": 480,
            "midi": 52,
            "name": "E3",
            "ticks": 208320,
            "time": 151.395258,
            "velocity": 0.7874015748031497
          },
          {
            "duration": 0.34883699999997475,
            "durationTicks": 480,
            "midi": 52,
            "name": "E3",
            "ticks": 208800,
            "time": 151.74409500000002,
            "velocity": 0.7874015748031497
          },
          {
            "duration": 0.3488370000000032,
            "durationTicks": 480,
            "midi": 47,
            "name": "B2",
            "ticks": 209280,
            "time": 152.092932,
            "velocity": 0.7874015748031497
          },
          {
            "duration": 0.3488370000000032,
            "durationTicks": 480,
            "midi": 47,
            "name": "B2",
            "ticks": 209760,
            "time": 152.441769,
            "velocity": 0.7874015748031497
          },
          {
            "duration": 0.3488370000000032,
            "durationTicks": 480,
            "midi": 47,
            "name": "B2",
            "ticks": 210240,
            "time": 152.790606,
            "velocity": 0.7874015748031497
          },
          {
            "duration": 0.3488370000000032,
            "durationTicks": 480,
            "midi": 47,
            "name": "B2",
            "ticks": 210720,
            "time": 153.139443,
            "velocity": 0.7874015748031497
          },
          {
            "duration": 0.3488370000000032,
            "durationTicks": 480,
            "midi": 47,
            "name": "B2",
            "ticks": 211200,
            "time": 153.48828,
            "velocity": 0.7874015748031497
          },
          {
            "duration": 0.3488370000000032,
            "durationTicks": 480,
            "midi": 47,
            "name": "B2",
            "ticks": 211680,
            "time": 153.837117,
            "velocity": 0.7874015748031497
          },
          {
            "duration": 0.3488370000000032,
            "durationTicks": 480,
            "midi": 47,
            "name": "B2",
            "ticks": 212160,
            "time": 154.185954,
            "velocity": 0.7874015748031497
          },
          {
            "duration": 0.3488370000000032,
            "durationTicks": 480,
            "midi": 47,
            "name": "B2",
            "ticks": 212640,
            "time": 154.534791,
            "velocity": 0.7874015748031497
          },
          {
            "duration": 0.34883699999997475,
            "durationTicks": 480,
            "midi": 47,
            "name": "B2",
            "ticks": 213120,
            "time": 154.88362800000002,
            "velocity": 0.7874015748031497
          },
          {
            "duration": 0.3488370000000032,
            "durationTicks": 480,
            "midi": 47,
            "name": "B2",
            "ticks": 213600,
            "time": 155.232465,
            "velocity": 0.7874015748031497
          },
          {
            "duration": 0.3488370000000032,
            "durationTicks": 480,
            "midi": 47,
            "name": "B2",
            "ticks": 214080,
            "time": 155.581302,
            "velocity": 0.7874015748031497
          },
          {
            "duration": 0.3488370000000032,
            "durationTicks": 480,
            "midi": 47,
            "name": "B2",
            "ticks": 214560,
            "time": 155.930139,
            "velocity": 0.7874015748031497
          },
          {
            "duration": 0.3488370000000032,
            "durationTicks": 480,
            "midi": 47,
            "name": "B2",
            "ticks": 215040,
            "time": 156.278976,
            "velocity": 0.7874015748031497
          },
          {
            "duration": 0.3488370000000032,
            "durationTicks": 480,
            "midi": 47,
            "name": "B2",
            "ticks": 215520,
            "time": 156.627813,
            "velocity": 0.7874015748031497
          },
          {
            "duration": 0.3488370000000032,
            "durationTicks": 480,
            "midi": 47,
            "name": "B2",
            "ticks": 216000,
            "time": 156.97665,
            "velocity": 0.7874015748031497
          },
          {
            "duration": 0.3488370000000032,
            "durationTicks": 480,
            "midi": 47,
            "name": "B2",
            "ticks": 216480,
            "time": 157.325487,
            "velocity": 0.7874015748031497
          },
          {
            "duration": 0.3488370000000032,
            "durationTicks": 480,
            "midi": 54,
            "name": "F#3",
            "ticks": 216960,
            "time": 157.674324,
            "velocity": 0.7874015748031497
          },
          {
            "duration": 0.34883699999997475,
            "durationTicks": 480,
            "midi": 54,
            "name": "F#3",
            "ticks": 217440,
            "time": 158.02316100000002,
            "velocity": 0.7874015748031497
          },
          {
            "duration": 0.3488370000000032,
            "durationTicks": 480,
            "midi": 54,
            "name": "F#3",
            "ticks": 217920,
            "time": 158.371998,
            "velocity": 0.7874015748031497
          },
          {
            "duration": 0.3488370000000032,
            "durationTicks": 480,
            "midi": 54,
            "name": "F#3",
            "ticks": 218400,
            "time": 158.720835,
            "velocity": 0.7874015748031497
          },
          {
            "duration": 0.3488370000000032,
            "durationTicks": 480,
            "midi": 54,
            "name": "F#3",
            "ticks": 218880,
            "time": 159.069672,
            "velocity": 0.7874015748031497
          },
          {
            "duration": 0.3488370000000032,
            "durationTicks": 480,
            "midi": 54,
            "name": "F#3",
            "ticks": 219360,
            "time": 159.418509,
            "velocity": 0.7874015748031497
          },
          {
            "duration": 0.3488370000000032,
            "durationTicks": 480,
            "midi": 54,
            "name": "F#3",
            "ticks": 219840,
            "time": 159.767346,
            "velocity": 0.7874015748031497
          },
          {
            "duration": 0.3488370000000032,
            "durationTicks": 480,
            "midi": 54,
            "name": "F#3",
            "ticks": 220320,
            "time": 160.116183,
            "velocity": 0.7874015748031497
          },
          {
            "duration": 0.3488370000000032,
            "durationTicks": 480,
            "midi": 54,
            "name": "F#3",
            "ticks": 220800,
            "time": 160.46502,
            "velocity": 0.7874015748031497
          },
          {
            "duration": 0.3488370000000032,
            "durationTicks": 480,
            "midi": 54,
            "name": "F#3",
            "ticks": 221280,
            "time": 160.813857,
            "velocity": 0.7874015748031497
          },
          {
            "duration": 0.34883699999997475,
            "durationTicks": 480,
            "midi": 54,
            "name": "F#3",
            "ticks": 221760,
            "time": 161.16269400000002,
            "velocity": 0.7874015748031497
          },
          {
            "duration": 0.3488370000000032,
            "durationTicks": 480,
            "midi": 54,
            "name": "F#3",
            "ticks": 222240,
            "time": 161.511531,
            "velocity": 0.7874015748031497
          },
          {
            "duration": 0.3488370000000032,
            "durationTicks": 480,
            "midi": 54,
            "name": "F#3",
            "ticks": 222720,
            "time": 161.860368,
            "velocity": 0.7874015748031497
          },
          {
            "duration": 0.3488370000000032,
            "durationTicks": 480,
            "midi": 54,
            "name": "F#3",
            "ticks": 223200,
            "time": 162.209205,
            "velocity": 0.7874015748031497
          },
          {
            "duration": 0.3488370000000032,
            "durationTicks": 480,
            "midi": 54,
            "name": "F#3",
            "ticks": 223680,
            "time": 162.558042,
            "velocity": 0.7874015748031497
          },
          {
            "duration": 0.3488370000000032,
            "durationTicks": 480,
            "midi": 54,
            "name": "F#3",
            "ticks": 224160,
            "time": 162.906879,
            "velocity": 0.7874015748031497
          },
          {
            "duration": 0.3488370000000032,
            "durationTicks": 480,
            "midi": 52,
            "name": "E3",
            "ticks": 224640,
            "time": 163.255716,
            "velocity": 0.7874015748031497
          },
          {
            "duration": 0.3488370000000032,
            "durationTicks": 480,
            "midi": 52,
            "name": "E3",
            "ticks": 225120,
            "time": 163.604553,
            "velocity": 0.7874015748031497
          },
          {
            "duration": 0.3488370000000032,
            "durationTicks": 480,
            "midi": 52,
            "name": "E3",
            "ticks": 225600,
            "time": 163.95339,
            "velocity": 0.7874015748031497
          },
          {
            "duration": 0.34883699999997475,
            "durationTicks": 480,
            "midi": 52,
            "name": "E3",
            "ticks": 226080,
            "time": 164.30222700000002,
            "velocity": 0.7874015748031497
          },
          {
            "duration": 0.3488370000000032,
            "durationTicks": 480,
            "midi": 52,
            "name": "E3",
            "ticks": 226560,
            "time": 164.651064,
            "velocity": 0.7874015748031497
          },
          {
            "duration": 0.3488370000000032,
            "durationTicks": 480,
            "midi": 52,
            "name": "E3",
            "ticks": 227040,
            "time": 164.999901,
            "velocity": 0.7874015748031497
          },
          {
            "duration": 0.3488370000000032,
            "durationTicks": 480,
            "midi": 52,
            "name": "E3",
            "ticks": 227520,
            "time": 165.348738,
            "velocity": 0.7874015748031497
          },
          {
            "duration": 0.3488370000000032,
            "durationTicks": 480,
            "midi": 52,
            "name": "E3",
            "ticks": 228000,
            "time": 165.697575,
            "velocity": 0.7874015748031497
          },
          {
            "duration": 0.3488370000000032,
            "durationTicks": 480,
            "midi": 52,
            "name": "E3",
            "ticks": 228480,
            "time": 166.046412,
            "velocity": 0.7874015748031497
          },
          {
            "duration": 0.3488370000000032,
            "durationTicks": 480,
            "midi": 52,
            "name": "E3",
            "ticks": 228960,
            "time": 166.395249,
            "velocity": 0.7874015748031497
          },
          {
            "duration": 0.3488370000000032,
            "durationTicks": 480,
            "midi": 52,
            "name": "E3",
            "ticks": 229440,
            "time": 166.744086,
            "velocity": 0.7874015748031497
          },
          {
            "duration": 0.3488370000000032,
            "durationTicks": 480,
            "midi": 52,
            "name": "E3",
            "ticks": 229920,
            "time": 167.092923,
            "velocity": 0.7874015748031497
          },
          {
            "duration": 0.34883699999997475,
            "durationTicks": 480,
            "midi": 52,
            "name": "E3",
            "ticks": 230400,
            "time": 167.44176000000002,
            "velocity": 0.7874015748031497
          },
          {
            "duration": 0.3488370000000032,
            "durationTicks": 480,
            "midi": 52,
            "name": "E3",
            "ticks": 230880,
            "time": 167.790597,
            "velocity": 0.7874015748031497
          },
          {
            "duration": 0.3488370000000032,
            "durationTicks": 480,
            "midi": 52,
            "name": "E3",
            "ticks": 231360,
            "time": 168.139434,
            "velocity": 0.7874015748031497
          },
          {
            "duration": 0.3488370000000032,
            "durationTicks": 480,
            "midi": 52,
            "name": "E3",
            "ticks": 231840,
            "time": 168.488271,
            "velocity": 0.7874015748031497
          },
          {
            "duration": 0.3488370000000032,
            "durationTicks": 480,
            "midi": 47,
            "name": "B2",
            "ticks": 232320,
            "time": 168.837108,
            "velocity": 0.7874015748031497
          },
          {
            "duration": 0.3488370000000032,
            "durationTicks": 480,
            "midi": 47,
            "name": "B2",
            "ticks": 232800,
            "time": 169.185945,
            "velocity": 0.7874015748031497
          },
          {
            "duration": 0.3488370000000032,
            "durationTicks": 480,
            "midi": 47,
            "name": "B2",
            "ticks": 233280,
            "time": 169.534782,
            "velocity": 0.7874015748031497
          },
          {
            "duration": 0.3488370000000032,
            "durationTicks": 480,
            "midi": 47,
            "name": "B2",
            "ticks": 233760,
            "time": 169.883619,
            "velocity": 0.7874015748031497
          },
          {
            "duration": 0.3488370000000032,
            "durationTicks": 480,
            "midi": 47,
            "name": "B2",
            "ticks": 234240,
            "time": 170.232456,
            "velocity": 0.7874015748031497
          },
          {
            "duration": 0.34883699999997475,
            "durationTicks": 480,
            "midi": 47,
            "name": "B2",
            "ticks": 234720,
            "time": 170.58129300000002,
            "velocity": 0.7874015748031497
          },
          {
            "duration": 0.3488370000000032,
            "durationTicks": 480,
            "midi": 47,
            "name": "B2",
            "ticks": 235200,
            "time": 170.93013,
            "velocity": 0.7874015748031497
          },
          {
            "duration": 0.3488370000000032,
            "durationTicks": 480,
            "midi": 47,
            "name": "B2",
            "ticks": 235680,
            "time": 171.278967,
            "velocity": 0.7874015748031497
          },
          {
            "duration": 0.3488370000000032,
            "durationTicks": 480,
            "midi": 47,
            "name": "B2",
            "ticks": 236160,
            "time": 171.627804,
            "velocity": 0.7874015748031497
          },
          {
            "duration": 0.3488370000000032,
            "durationTicks": 480,
            "midi": 47,
            "name": "B2",
            "ticks": 236640,
            "time": 171.976641,
            "velocity": 0.7874015748031497
          },
          {
            "duration": 0.3488370000000032,
            "durationTicks": 480,
            "midi": 47,
            "name": "B2",
            "ticks": 237120,
            "time": 172.325478,
            "velocity": 0.7874015748031497
          },
          {
            "duration": 0.3488370000000032,
            "durationTicks": 480,
            "midi": 47,
            "name": "B2",
            "ticks": 237600,
            "time": 172.674315,
            "velocity": 0.7874015748031497
          },
          {
            "duration": 0.3488370000000032,
            "durationTicks": 480,
            "midi": 47,
            "name": "B2",
            "ticks": 238080,
            "time": 173.023152,
            "velocity": 0.7874015748031497
          },
          {
            "duration": 0.3488370000000032,
            "durationTicks": 480,
            "midi": 47,
            "name": "B2",
            "ticks": 238560,
            "time": 173.371989,
            "velocity": 0.7874015748031497
          },
          {
            "duration": 0.34883699999997475,
            "durationTicks": 480,
            "midi": 47,
            "name": "B2",
            "ticks": 239040,
            "time": 173.72082600000002,
            "velocity": 0.7874015748031497
          },
          {
            "duration": 0.3488370000000032,
            "durationTicks": 480,
            "midi": 47,
            "name": "B2",
            "ticks": 239520,
            "time": 174.069663,
            "velocity": 0.7874015748031497
          },
          {
            "duration": 0.3488370000000032,
            "durationTicks": 480,
            "midi": 52,
            "name": "E3",
            "ticks": 240000,
            "time": 174.4185,
            "velocity": 0.7874015748031497
          },
          {
            "duration": 0.3488370000000032,
            "durationTicks": 480,
            "midi": 52,
            "name": "E3",
            "ticks": 240480,
            "time": 174.767337,
            "velocity": 0.7874015748031497
          },
          {
            "duration": 0.3488370000000032,
            "durationTicks": 480,
            "midi": 52,
            "name": "E3",
            "ticks": 240960,
            "time": 175.116174,
            "velocity": 0.7874015748031497
          },
          {
            "duration": 0.6976740000000063,
            "durationTicks": 960,
            "midi": 56,
            "name": "G#3",
            "ticks": 241440,
            "time": 175.465011,
            "velocity": 0.7874015748031497
          },
          {
            "duration": 0.3488370000000032,
            "durationTicks": 480,
            "midi": 52,
            "name": "E3",
            "ticks": 242400,
            "time": 176.162685,
            "velocity": 0.7874015748031497
          },
          {
            "duration": 0.6976739999999779,
            "durationTicks": 960,
            "midi": 59,
            "name": "B3",
            "ticks": 242880,
            "time": 176.511522,
            "velocity": 0.7874015748031497
          },
          {
            "duration": 1.0465110000000095,
            "durationTicks": 1440,
            "midi": 56,
            "name": "G#3",
            "ticks": 243840,
            "time": 177.209196,
            "velocity": 0.7874015748031497
          },
          {
            "duration": 0.6976740000000063,
            "durationTicks": 960,
            "midi": 54,
            "name": "F#3",
            "ticks": 245280,
            "time": 178.255707,
            "velocity": 0.7874015748031497
          },
          {
            "duration": 0.3488370000000032,
            "durationTicks": 480,
            "midi": 54,
            "name": "F#3",
            "ticks": 246240,
            "time": 178.953381,
            "velocity": 0.7874015748031497
          },
          {
            "duration": 0.3488370000000032,
            "durationTicks": 480,
            "midi": 54,
            "name": "F#3",
            "ticks": 246720,
            "time": 179.302218,
            "velocity": 0.7874015748031497
          },
          {
            "duration": 0.3488370000000032,
            "durationTicks": 480,
            "midi": 54,
            "name": "F#3",
            "ticks": 247200,
            "time": 179.651055,
            "velocity": 0.7874015748031497
          },
          {
            "duration": 0.6976739999999779,
            "durationTicks": 960,
            "midi": 52,
            "name": "E3",
            "ticks": 247680,
            "time": 179.99989200000002,
            "velocity": 0.7874015748031497
          },
          {
            "duration": 0.3488370000000032,
            "durationTicks": 480,
            "midi": 52,
            "name": "E3",
            "ticks": 248640,
            "time": 180.697566,
            "velocity": 0.7874015748031497
          },
          {
            "duration": 0.6976740000000063,
            "durationTicks": 960,
            "midi": 56,
            "name": "G#3",
            "ticks": 249120,
            "time": 181.046403,
            "velocity": 0.7874015748031497
          },
          {
            "duration": 0.3488370000000032,
            "durationTicks": 480,
            "midi": 54,
            "name": "F#3",
            "ticks": 250080,
            "time": 181.744077,
            "velocity": 0.7874015748031497
          },
          {
            "duration": 0.6976740000000063,
            "durationTicks": 960,
            "midi": 59,
            "name": "B3",
            "ticks": 250560,
            "time": 182.092914,
            "velocity": 0.7874015748031497
          },
          {
            "duration": 1.046510999999981,
            "durationTicks": 1440,
            "midi": 56,
            "name": "G#3",
            "ticks": 251520,
            "time": 182.790588,
            "velocity": 0.7874015748031497
          },
          {
            "duration": 0.6976740000000063,
            "durationTicks": 960,
            "midi": 54,
            "name": "F#3",
            "ticks": 252960,
            "time": 183.837099,
            "velocity": 0.7874015748031497
          },
          {
            "duration": 0.3488370000000032,
            "durationTicks": 480,
            "midi": 54,
            "name": "F#3",
            "ticks": 253920,
            "time": 184.534773,
            "velocity": 0.7874015748031497
          },
          {
            "duration": 0.3488370000000032,
            "durationTicks": 480,
            "midi": 54,
            "name": "F#3",
            "ticks": 254400,
            "time": 184.88361,
            "velocity": 0.7874015748031497
          },
          {
            "duration": 0.3488370000000032,
            "durationTicks": 480,
            "midi": 54,
            "name": "F#3",
            "ticks": 254880,
            "time": 185.232447,
            "velocity": 0.7874015748031497
          },
          {
            "duration": 0.6976740000000063,
            "durationTicks": 960,
            "midi": 52,
            "name": "E3",
            "ticks": 255360,
            "time": 185.581284,
            "velocity": 0.7874015748031497
          },
          {
            "duration": 0.34883699999997475,
            "durationTicks": 480,
            "midi": 52,
            "name": "E3",
            "ticks": 256320,
            "time": 186.27895800000002,
            "velocity": 0.7874015748031497
          },
          {
            "duration": 0.6976740000000063,
            "durationTicks": 960,
            "midi": 56,
            "name": "G#3",
            "ticks": 256800,
            "time": 186.627795,
            "velocity": 0.7874015748031497
          },
          {
            "duration": 0.3488370000000032,
            "durationTicks": 480,
            "midi": 54,
            "name": "F#3",
            "ticks": 257760,
            "time": 187.325469,
            "velocity": 0.7874015748031497
          },
          {
            "duration": 0.6976740000000063,
            "durationTicks": 960,
            "midi": 59,
            "name": "B3",
            "ticks": 258240,
            "time": 187.674306,
            "velocity": 0.7874015748031497
          },
          {
            "duration": 1.0465110000000095,
            "durationTicks": 1440,
            "midi": 56,
            "name": "G#3",
            "ticks": 259200,
            "time": 188.37198,
            "velocity": 0.7874015748031497
          },
          {
            "duration": 0.6976739999999779,
            "durationTicks": 960,
            "midi": 54,
            "name": "F#3",
            "ticks": 260640,
            "time": 189.41849100000002,
            "velocity": 0.7874015748031497
          },
          {
            "duration": 0.3488370000000032,
            "durationTicks": 480,
            "midi": 54,
            "name": "F#3",
            "ticks": 261600,
            "time": 190.116165,
            "velocity": 0.7874015748031497
          },
          {
            "duration": 0.3488370000000032,
            "durationTicks": 480,
            "midi": 54,
            "name": "F#3",
            "ticks": 262080,
            "time": 190.465002,
            "velocity": 0.7874015748031497
          },
          {
            "duration": 0.3488370000000032,
            "durationTicks": 480,
            "midi": 54,
            "name": "F#3",
            "ticks": 262560,
            "time": 190.813839,
            "velocity": 0.7874015748031497
          },
          {
            "duration": 5.581391999999994,
            "durationTicks": 7680,
            "midi": 52,
            "name": "E3",
            "ticks": 263040,
            "time": 191.162676,
            "velocity": 0.7874015748031497
          },
          {
            "duration": 0.3488370000000032,
            "durationTicks": 480,
            "midi": 59,
            "name": "B3",
            "ticks": 270720,
            "time": 196.744068,
            "velocity": 0.8661417322834646
          },
          {
            "duration": 0.3488370000000032,
            "durationTicks": 480,
            "midi": 59,
            "name": "B3",
            "ticks": 271200,
            "time": 197.092905,
            "velocity": 0.8661417322834646
          },
          {
            "duration": 0.3488370000000032,
            "durationTicks": 480,
            "midi": 59,
            "name": "B3",
            "ticks": 271680,
            "time": 197.441742,
            "velocity": 0.8661417322834646
          },
          {
            "duration": 0.3488370000000032,
            "durationTicks": 480,
            "midi": 59,
            "name": "B3",
            "ticks": 272160,
            "time": 197.790579,
            "velocity": 0.8661417322834646
          },
          {
            "duration": 0.3488370000000032,
            "durationTicks": 480,
            "midi": 59,
            "name": "B3",
            "ticks": 272640,
            "time": 198.139416,
            "velocity": 0.8661417322834646
          },
          {
            "duration": 0.3488370000000032,
            "durationTicks": 480,
            "midi": 59,
            "name": "B3",
            "ticks": 273120,
            "time": 198.48825300000001,
            "velocity": 0.8661417322834646
          },
          {
            "duration": 0.34883699999997475,
            "durationTicks": 480,
            "midi": 59,
            "name": "B3",
            "ticks": 273600,
            "time": 198.83709000000002,
            "velocity": 0.8661417322834646
          },
          {
            "duration": 0.3488370000000032,
            "durationTicks": 480,
            "midi": 59,
            "name": "B3",
            "ticks": 274080,
            "time": 199.185927,
            "velocity": 0.8661417322834646
          },
          {
            "duration": 0.3488370000000032,
            "durationTicks": 480,
            "midi": 59,
            "name": "B3",
            "ticks": 274560,
            "time": 199.534764,
            "velocity": 0.8661417322834646
          },
          {
            "duration": 0.3488370000000032,
            "durationTicks": 480,
            "midi": 59,
            "name": "B3",
            "ticks": 275040,
            "time": 199.883601,
            "velocity": 0.8661417322834646
          },
          {
            "duration": 0.3488370000000032,
            "durationTicks": 480,
            "midi": 59,
            "name": "B3",
            "ticks": 275520,
            "time": 200.232438,
            "velocity": 0.8661417322834646
          },
          {
            "duration": 0.3488370000000032,
            "durationTicks": 480,
            "midi": 59,
            "name": "B3",
            "ticks": 276000,
            "time": 200.581275,
            "velocity": 0.8661417322834646
          },
          {
            "duration": 0.3488370000000032,
            "durationTicks": 480,
            "midi": 59,
            "name": "B3",
            "ticks": 276480,
            "time": 200.930112,
            "velocity": 0.8661417322834646
          },
          {
            "duration": 0.3488370000000032,
            "durationTicks": 480,
            "midi": 59,
            "name": "B3",
            "ticks": 276960,
            "time": 201.278949,
            "velocity": 0.8661417322834646
          },
          {
            "duration": 0.3488370000000032,
            "durationTicks": 480,
            "midi": 59,
            "name": "B3",
            "ticks": 277440,
            "time": 201.62778600000001,
            "velocity": 0.8661417322834646
          },
          {
            "duration": 0.34883699999997475,
            "durationTicks": 480,
            "midi": 59,
            "name": "B3",
            "ticks": 277920,
            "time": 201.97662300000002,
            "velocity": 0.8661417322834646
          },
          {
            "duration": 0.3488370000000032,
            "durationTicks": 480,
            "midi": 54,
            "name": "F#3",
            "ticks": 278400,
            "time": 202.32546,
            "velocity": 0.8661417322834646
          },
          {
            "duration": 0.3488370000000032,
            "durationTicks": 480,
            "midi": 54,
            "name": "F#3",
            "ticks": 278880,
            "time": 202.674297,
            "velocity": 0.8661417322834646
          },
          {
            "duration": 0.3488370000000032,
            "durationTicks": 480,
            "midi": 54,
            "name": "F#3",
            "ticks": 279360,
            "time": 203.023134,
            "velocity": 0.8661417322834646
          },
          {
            "duration": 0.3488370000000032,
            "durationTicks": 480,
            "midi": 54,
            "name": "F#3",
            "ticks": 279840,
            "time": 203.371971,
            "velocity": 0.8661417322834646
          },
          {
            "duration": 0.3488370000000032,
            "durationTicks": 480,
            "midi": 54,
            "name": "F#3",
            "ticks": 280320,
            "time": 203.720808,
            "velocity": 0.8661417322834646
          },
          {
            "duration": 0.3488370000000032,
            "durationTicks": 480,
            "midi": 54,
            "name": "F#3",
            "ticks": 280800,
            "time": 204.069645,
            "velocity": 0.8661417322834646
          },
          {
            "duration": 0.3488370000000032,
            "durationTicks": 480,
            "midi": 54,
            "name": "F#3",
            "ticks": 281280,
            "time": 204.418482,
            "velocity": 0.8661417322834646
          },
          {
            "duration": 0.3488370000000032,
            "durationTicks": 480,
            "midi": 54,
            "name": "F#3",
            "ticks": 281760,
            "time": 204.76731900000001,
            "velocity": 0.8661417322834646
          },
          {
            "duration": 0.34883699999997475,
            "durationTicks": 480,
            "midi": 54,
            "name": "F#3",
            "ticks": 282240,
            "time": 205.11615600000002,
            "velocity": 0.8661417322834646
          },
          {
            "duration": 0.3488370000000032,
            "durationTicks": 480,
            "midi": 54,
            "name": "F#3",
            "ticks": 282720,
            "time": 205.464993,
            "velocity": 0.8661417322834646
          },
          {
            "duration": 0.3488370000000032,
            "durationTicks": 480,
            "midi": 54,
            "name": "F#3",
            "ticks": 283200,
            "time": 205.81383,
            "velocity": 0.8661417322834646
          },
          {
            "duration": 0.3488370000000032,
            "durationTicks": 480,
            "midi": 54,
            "name": "F#3",
            "ticks": 283680,
            "time": 206.162667,
            "velocity": 0.8661417322834646
          },
          {
            "duration": 0.3488370000000032,
            "durationTicks": 480,
            "midi": 54,
            "name": "F#3",
            "ticks": 284160,
            "time": 206.511504,
            "velocity": 0.8661417322834646
          },
          {
            "duration": 0.3488370000000032,
            "durationTicks": 480,
            "midi": 54,
            "name": "F#3",
            "ticks": 284640,
            "time": 206.860341,
            "velocity": 0.8661417322834646
          },
          {
            "duration": 0.3488370000000032,
            "durationTicks": 480,
            "midi": 54,
            "name": "F#3",
            "ticks": 285120,
            "time": 207.209178,
            "velocity": 0.8661417322834646
          },
          {
            "duration": 0.3488370000000032,
            "durationTicks": 480,
            "midi": 54,
            "name": "F#3",
            "ticks": 285600,
            "time": 207.558015,
            "velocity": 0.8661417322834646
          },
          {
            "duration": 0.3488370000000032,
            "durationTicks": 480,
            "midi": 52,
            "name": "E3",
            "ticks": 286080,
            "time": 207.90685200000001,
            "velocity": 0.8661417322834646
          },
          {
            "duration": 0.34883699999997475,
            "durationTicks": 480,
            "midi": 52,
            "name": "E3",
            "ticks": 286560,
            "time": 208.25568900000002,
            "velocity": 0.8661417322834646
          },
          {
            "duration": 0.3488370000000032,
            "durationTicks": 480,
            "midi": 52,
            "name": "E3",
            "ticks": 287040,
            "time": 208.604526,
            "velocity": 0.8661417322834646
          },
          {
            "duration": 0.3488370000000032,
            "durationTicks": 480,
            "midi": 52,
            "name": "E3",
            "ticks": 287520,
            "time": 208.953363,
            "velocity": 0.8661417322834646
          },
          {
            "duration": 0.3488370000000032,
            "durationTicks": 480,
            "midi": 52,
            "name": "E3",
            "ticks": 288000,
            "time": 209.3022,
            "velocity": 0.8661417322834646
          },
          {
            "duration": 0.3488370000000032,
            "durationTicks": 480,
            "midi": 52,
            "name": "E3",
            "ticks": 288480,
            "time": 209.651037,
            "velocity": 0.8661417322834646
          },
          {
            "duration": 0.3488370000000032,
            "durationTicks": 480,
            "midi": 52,
            "name": "E3",
            "ticks": 288960,
            "time": 209.999874,
            "velocity": 0.8661417322834646
          },
          {
            "duration": 0.3488370000000032,
            "durationTicks": 480,
            "midi": 52,
            "name": "E3",
            "ticks": 289440,
            "time": 210.348711,
            "velocity": 0.8661417322834646
          },
          {
            "duration": 0.3488370000000032,
            "durationTicks": 480,
            "midi": 52,
            "name": "E3",
            "ticks": 289920,
            "time": 210.697548,
            "velocity": 0.8661417322834646
          },
          {
            "duration": 0.3488370000000032,
            "durationTicks": 480,
            "midi": 52,
            "name": "E3",
            "ticks": 290400,
            "time": 211.04638500000001,
            "velocity": 0.8661417322834646
          },
          {
            "duration": 0.34883699999997475,
            "durationTicks": 480,
            "midi": 52,
            "name": "E3",
            "ticks": 290880,
            "time": 211.39522200000002,
            "velocity": 0.8661417322834646
          },
          {
            "duration": 0.3488370000000032,
            "durationTicks": 480,
            "midi": 52,
            "name": "E3",
            "ticks": 291360,
            "time": 211.744059,
            "velocity": 0.8661417322834646
          },
          {
            "duration": 0.3488370000000032,
            "durationTicks": 480,
            "midi": 52,
            "name": "E3",
            "ticks": 291840,
            "time": 212.092896,
            "velocity": 0.8661417322834646
          },
          {
            "duration": 0.3488370000000032,
            "durationTicks": 480,
            "midi": 52,
            "name": "E3",
            "ticks": 292320,
            "time": 212.441733,
            "velocity": 0.8661417322834646
          },
          {
            "duration": 0.3488370000000032,
            "durationTicks": 480,
            "midi": 52,
            "name": "E3",
            "ticks": 292800,
            "time": 212.79057,
            "velocity": 0.8661417322834646
          },
          {
            "duration": 0.3488370000000032,
            "durationTicks": 480,
            "midi": 52,
            "name": "E3",
            "ticks": 293280,
            "time": 213.139407,
            "velocity": 0.8661417322834646
          },
          {
            "duration": 0.3488370000000032,
            "durationTicks": 480,
            "midi": 59,
            "name": "B3",
            "ticks": 293760,
            "time": 213.488244,
            "velocity": 0.8661417322834646
          },
          {
            "duration": 0.3488370000000032,
            "durationTicks": 480,
            "midi": 59,
            "name": "B3",
            "ticks": 294240,
            "time": 213.837081,
            "velocity": 0.8661417322834646
          },
          {
            "duration": 0.3488370000000032,
            "durationTicks": 480,
            "midi": 59,
            "name": "B3",
            "ticks": 294720,
            "time": 214.18591800000002,
            "velocity": 0.8661417322834646
          },
          {
            "duration": 0.34883699999997475,
            "durationTicks": 480,
            "midi": 59,
            "name": "B3",
            "ticks": 295200,
            "time": 214.53475500000002,
            "velocity": 0.8661417322834646
          },
          {
            "duration": 0.3488370000000032,
            "durationTicks": 480,
            "midi": 59,
            "name": "B3",
            "ticks": 295680,
            "time": 214.883592,
            "velocity": 0.8661417322834646
          },
          {
            "duration": 0.3488370000000032,
            "durationTicks": 480,
            "midi": 59,
            "name": "B3",
            "ticks": 296160,
            "time": 215.232429,
            "velocity": 0.8661417322834646
          },
          {
            "duration": 0.3488370000000032,
            "durationTicks": 480,
            "midi": 59,
            "name": "B3",
            "ticks": 296640,
            "time": 215.581266,
            "velocity": 0.8661417322834646
          },
          {
            "duration": 0.3488370000000032,
            "durationTicks": 480,
            "midi": 59,
            "name": "B3",
            "ticks": 297120,
            "time": 215.930103,
            "velocity": 0.8661417322834646
          },
          {
            "duration": 0.3488370000000032,
            "durationTicks": 480,
            "midi": 59,
            "name": "B3",
            "ticks": 297600,
            "time": 216.27894,
            "velocity": 0.8661417322834646
          },
          {
            "duration": 0.3488370000000032,
            "durationTicks": 480,
            "midi": 59,
            "name": "B3",
            "ticks": 298080,
            "time": 216.627777,
            "velocity": 0.8661417322834646
          },
          {
            "duration": 0.3488370000000032,
            "durationTicks": 480,
            "midi": 59,
            "name": "B3",
            "ticks": 298560,
            "time": 216.976614,
            "velocity": 0.8661417322834646
          },
          {
            "duration": 0.3488370000000032,
            "durationTicks": 480,
            "midi": 59,
            "name": "B3",
            "ticks": 299040,
            "time": 217.32545100000002,
            "velocity": 0.8661417322834646
          },
          {
            "duration": 0.34883699999997475,
            "durationTicks": 480,
            "midi": 59,
            "name": "B3",
            "ticks": 299520,
            "time": 217.67428800000002,
            "velocity": 0.8661417322834646
          },
          {
            "duration": 0.3488370000000032,
            "durationTicks": 480,
            "midi": 59,
            "name": "B3",
            "ticks": 300000,
            "time": 218.023125,
            "velocity": 0.8661417322834646
          },
          {
            "duration": 0.3488370000000032,
            "durationTicks": 480,
            "midi": 59,
            "name": "B3",
            "ticks": 300480,
            "time": 218.371962,
            "velocity": 0.8661417322834646
          },
          {
            "duration": 0.3488370000000032,
            "durationTicks": 480,
            "midi": 59,
            "name": "B3",
            "ticks": 300960,
            "time": 218.720799,
            "velocity": 0.8661417322834646
          },
          {
            "duration": 0.3488370000000032,
            "durationTicks": 480,
            "midi": 59,
            "name": "B3",
            "ticks": 301440,
            "time": 219.069636,
            "velocity": 0.8661417322834646
          },
          {
            "duration": 0.3488370000000032,
            "durationTicks": 480,
            "midi": 59,
            "name": "B3",
            "ticks": 301920,
            "time": 219.418473,
            "velocity": 0.8661417322834646
          },
          {
            "duration": 0.3488370000000032,
            "durationTicks": 480,
            "midi": 59,
            "name": "B3",
            "ticks": 302400,
            "time": 219.76731,
            "velocity": 0.8661417322834646
          },
          {
            "duration": 0.3488370000000032,
            "durationTicks": 480,
            "midi": 59,
            "name": "B3",
            "ticks": 302880,
            "time": 220.116147,
            "velocity": 0.8661417322834646
          },
          {
            "duration": 0.3488370000000032,
            "durationTicks": 480,
            "midi": 59,
            "name": "B3",
            "ticks": 303360,
            "time": 220.46498400000002,
            "velocity": 0.8661417322834646
          },
          {
            "duration": 0.34883699999997475,
            "durationTicks": 480,
            "midi": 59,
            "name": "B3",
            "ticks": 303840,
            "time": 220.81382100000002,
            "velocity": 0.8661417322834646
          },
          {
            "duration": 0.3488370000000032,
            "durationTicks": 480,
            "midi": 59,
            "name": "B3",
            "ticks": 304320,
            "time": 221.162658,
            "velocity": 0.8661417322834646
          },
          {
            "duration": 0.3488370000000032,
            "durationTicks": 480,
            "midi": 59,
            "name": "B3",
            "ticks": 304800,
            "time": 221.511495,
            "velocity": 0.8661417322834646
          },
          {
            "duration": 0.3488370000000032,
            "durationTicks": 480,
            "midi": 59,
            "name": "B3",
            "ticks": 305280,
            "time": 221.860332,
            "velocity": 0.8661417322834646
          },
          {
            "duration": 0.3488370000000032,
            "durationTicks": 480,
            "midi": 59,
            "name": "B3",
            "ticks": 305760,
            "time": 222.209169,
            "velocity": 0.8661417322834646
          },
          {
            "duration": 0.3488370000000032,
            "durationTicks": 480,
            "midi": 59,
            "name": "B3",
            "ticks": 306240,
            "time": 222.558006,
            "velocity": 0.8661417322834646
          },
          {
            "duration": 0.3488370000000032,
            "durationTicks": 480,
            "midi": 59,
            "name": "B3",
            "ticks": 306720,
            "time": 222.906843,
            "velocity": 0.8661417322834646
          },
          {
            "duration": 0.3488370000000032,
            "durationTicks": 480,
            "midi": 59,
            "name": "B3",
            "ticks": 307200,
            "time": 223.25568,
            "velocity": 0.8661417322834646
          },
          {
            "duration": 0.3488370000000032,
            "durationTicks": 480,
            "midi": 59,
            "name": "B3",
            "ticks": 307680,
            "time": 223.60451700000002,
            "velocity": 0.8661417322834646
          },
          {
            "duration": 0.34883699999997475,
            "durationTicks": 480,
            "midi": 59,
            "name": "B3",
            "ticks": 308160,
            "time": 223.95335400000002,
            "velocity": 0.8661417322834646
          },
          {
            "duration": 0.3488370000000032,
            "durationTicks": 480,
            "midi": 59,
            "name": "B3",
            "ticks": 308640,
            "time": 224.302191,
            "velocity": 0.8661417322834646
          },
          {
            "duration": 0.3488370000000032,
            "durationTicks": 480,
            "midi": 54,
            "name": "F#3",
            "ticks": 309120,
            "time": 224.651028,
            "velocity": 0.8661417322834646
          },
          {
            "duration": 0.3488370000000032,
            "durationTicks": 480,
            "midi": 54,
            "name": "F#3",
            "ticks": 309600,
            "time": 224.999865,
            "velocity": 0.8661417322834646
          },
          {
            "duration": 0.3488370000000032,
            "durationTicks": 480,
            "midi": 54,
            "name": "F#3",
            "ticks": 310080,
            "time": 225.348702,
            "velocity": 0.8661417322834646
          },
          {
            "duration": 0.3488370000000032,
            "durationTicks": 480,
            "midi": 54,
            "name": "F#3",
            "ticks": 310560,
            "time": 225.697539,
            "velocity": 0.8661417322834646
          },
          {
            "duration": 0.3488370000000032,
            "durationTicks": 480,
            "midi": 54,
            "name": "F#3",
            "ticks": 311040,
            "time": 226.046376,
            "velocity": 0.8661417322834646
          },
          {
            "duration": 0.3488370000000032,
            "durationTicks": 480,
            "midi": 54,
            "name": "F#3",
            "ticks": 311520,
            "time": 226.395213,
            "velocity": 0.8661417322834646
          },
          {
            "duration": 0.3488370000000032,
            "durationTicks": 480,
            "midi": 54,
            "name": "F#3",
            "ticks": 312000,
            "time": 226.74405000000002,
            "velocity": 0.8661417322834646
          },
          {
            "duration": 0.34883699999997475,
            "durationTicks": 480,
            "midi": 54,
            "name": "F#3",
            "ticks": 312480,
            "time": 227.09288700000002,
            "velocity": 0.8661417322834646
          },
          {
            "duration": 0.3488370000000032,
            "durationTicks": 480,
            "midi": 54,
            "name": "F#3",
            "ticks": 312960,
            "time": 227.441724,
            "velocity": 0.8661417322834646
          },
          {
            "duration": 0.3488370000000032,
            "durationTicks": 480,
            "midi": 54,
            "name": "F#3",
            "ticks": 313440,
            "time": 227.790561,
            "velocity": 0.8661417322834646
          },
          {
            "duration": 0.3488370000000032,
            "durationTicks": 480,
            "midi": 54,
            "name": "F#3",
            "ticks": 313920,
            "time": 228.139398,
            "velocity": 0.8661417322834646
          },
          {
            "duration": 0.3488370000000032,
            "durationTicks": 480,
            "midi": 54,
            "name": "F#3",
            "ticks": 314400,
            "time": 228.488235,
            "velocity": 0.8661417322834646
          },
          {
            "duration": 0.3488370000000032,
            "durationTicks": 480,
            "midi": 54,
            "name": "F#3",
            "ticks": 314880,
            "time": 228.837072,
            "velocity": 0.8661417322834646
          },
          {
            "duration": 0.3488370000000032,
            "durationTicks": 480,
            "midi": 54,
            "name": "F#3",
            "ticks": 315360,
            "time": 229.185909,
            "velocity": 0.8661417322834646
          },
          {
            "duration": 0.3488370000000032,
            "durationTicks": 480,
            "midi": 54,
            "name": "F#3",
            "ticks": 315840,
            "time": 229.534746,
            "velocity": 0.8661417322834646
          },
          {
            "duration": 0.3488370000000032,
            "durationTicks": 480,
            "midi": 54,
            "name": "F#3",
            "ticks": 316320,
            "time": 229.88358300000002,
            "velocity": 0.8661417322834646
          },
          {
            "duration": 0.34883699999997475,
            "durationTicks": 480,
            "midi": 52,
            "name": "E3",
            "ticks": 316800,
            "time": 230.23242000000002,
            "velocity": 0.8661417322834646
          },
          {
            "duration": 0.3488370000000032,
            "durationTicks": 480,
            "midi": 52,
            "name": "E3",
            "ticks": 317280,
            "time": 230.581257,
            "velocity": 0.8661417322834646
          },
          {
            "duration": 0.3488370000000032,
            "durationTicks": 480,
            "midi": 52,
            "name": "E3",
            "ticks": 317760,
            "time": 230.930094,
            "velocity": 0.8661417322834646
          },
          {
            "duration": 0.3488370000000032,
            "durationTicks": 480,
            "midi": 52,
            "name": "E3",
            "ticks": 318240,
            "time": 231.278931,
            "velocity": 0.8661417322834646
          },
          {
            "duration": 0.3488370000000032,
            "durationTicks": 480,
            "midi": 52,
            "name": "E3",
            "ticks": 318720,
            "time": 231.627768,
            "velocity": 0.8661417322834646
          },
          {
            "duration": 0.3488370000000032,
            "durationTicks": 480,
            "midi": 52,
            "name": "E3",
            "ticks": 319200,
            "time": 231.976605,
            "velocity": 0.8661417322834646
          },
          {
            "duration": 0.3488370000000032,
            "durationTicks": 480,
            "midi": 52,
            "name": "E3",
            "ticks": 319680,
            "time": 232.325442,
            "velocity": 0.8661417322834646
          },
          {
            "duration": 0.3488370000000032,
            "durationTicks": 480,
            "midi": 52,
            "name": "E3",
            "ticks": 320160,
            "time": 232.674279,
            "velocity": 0.8661417322834646
          },
          {
            "duration": 0.3488370000000032,
            "durationTicks": 480,
            "midi": 52,
            "name": "E3",
            "ticks": 320640,
            "time": 233.02311600000002,
            "velocity": 0.8661417322834646
          },
          {
            "duration": 0.34883699999997475,
            "durationTicks": 480,
            "midi": 52,
            "name": "E3",
            "ticks": 321120,
            "time": 233.37195300000002,
            "velocity": 0.8661417322834646
          },
          {
            "duration": 0.3488370000000032,
            "durationTicks": 480,
            "midi": 52,
            "name": "E3",
            "ticks": 321600,
            "time": 233.72079,
            "velocity": 0.8661417322834646
          },
          {
            "duration": 0.3488370000000032,
            "durationTicks": 480,
            "midi": 52,
            "name": "E3",
            "ticks": 322080,
            "time": 234.069627,
            "velocity": 0.8661417322834646
          },
          {
            "duration": 0.3488370000000032,
            "durationTicks": 480,
            "midi": 52,
            "name": "E3",
            "ticks": 322560,
            "time": 234.418464,
            "velocity": 0.8661417322834646
          },
          {
            "duration": 0.3488370000000032,
            "durationTicks": 480,
            "midi": 52,
            "name": "E3",
            "ticks": 323040,
            "time": 234.767301,
            "velocity": 0.8661417322834646
          },
          {
            "duration": 0.3488370000000032,
            "durationTicks": 480,
            "midi": 52,
            "name": "E3",
            "ticks": 323520,
            "time": 235.116138,
            "velocity": 0.8661417322834646
          },
          {
            "duration": 0.3488370000000032,
            "durationTicks": 480,
            "midi": 52,
            "name": "E3",
            "ticks": 324000,
            "time": 235.464975,
            "velocity": 0.8661417322834646
          },
          {
            "duration": 0.3488370000000032,
            "durationTicks": 480,
            "midi": 59,
            "name": "B3",
            "ticks": 324480,
            "time": 235.813812,
            "velocity": 0.8661417322834646
          },
          {
            "duration": 0.3488370000000032,
            "durationTicks": 480,
            "midi": 59,
            "name": "B3",
            "ticks": 324960,
            "time": 236.16264900000002,
            "velocity": 0.8661417322834646
          },
          {
            "duration": 0.34883699999997475,
            "durationTicks": 480,
            "midi": 59,
            "name": "B3",
            "ticks": 325440,
            "time": 236.51148600000002,
            "velocity": 0.8661417322834646
          },
          {
            "duration": 0.3488370000000032,
            "durationTicks": 480,
            "midi": 59,
            "name": "B3",
            "ticks": 325920,
            "time": 236.860323,
            "velocity": 0.8661417322834646
          },
          {
            "duration": 0.3488370000000032,
            "durationTicks": 480,
            "midi": 59,
            "name": "B3",
            "ticks": 326400,
            "time": 237.20916,
            "velocity": 0.8661417322834646
          },
          {
            "duration": 0.3488370000000032,
            "durationTicks": 480,
            "midi": 59,
            "name": "B3",
            "ticks": 326880,
            "time": 237.557997,
            "velocity": 0.8661417322834646
          },
          {
            "duration": 0.3488370000000032,
            "durationTicks": 480,
            "midi": 59,
            "name": "B3",
            "ticks": 327360,
            "time": 237.906834,
            "velocity": 0.8661417322834646
          },
          {
            "duration": 0.3488370000000032,
            "durationTicks": 480,
            "midi": 59,
            "name": "B3",
            "ticks": 327840,
            "time": 238.255671,
            "velocity": 0.8661417322834646
          },
          {
            "duration": 0.3488370000000032,
            "durationTicks": 480,
            "midi": 59,
            "name": "B3",
            "ticks": 328320,
            "time": 238.604508,
            "velocity": 0.8661417322834646
          },
          {
            "duration": 0.3488370000000032,
            "durationTicks": 480,
            "midi": 59,
            "name": "B3",
            "ticks": 328800,
            "time": 238.953345,
            "velocity": 0.8661417322834646
          },
          {
            "duration": 0.3488370000000032,
            "durationTicks": 480,
            "midi": 59,
            "name": "B3",
            "ticks": 329280,
            "time": 239.30218200000002,
            "velocity": 0.8661417322834646
          },
          {
            "duration": 0.34883699999997475,
            "durationTicks": 480,
            "midi": 59,
            "name": "B3",
            "ticks": 329760,
            "time": 239.65101900000002,
            "velocity": 0.8661417322834646
          },
          {
            "duration": 0.3488370000000032,
            "durationTicks": 480,
            "midi": 59,
            "name": "B3",
            "ticks": 330240,
            "time": 239.999856,
            "velocity": 0.8661417322834646
          },
          {
            "duration": 0.3488370000000032,
            "durationTicks": 480,
            "midi": 59,
            "name": "B3",
            "ticks": 330720,
            "time": 240.348693,
            "velocity": 0.8661417322834646
          },
          {
            "duration": 0.3488370000000032,
            "durationTicks": 480,
            "midi": 59,
            "name": "B3",
            "ticks": 331200,
            "time": 240.69753,
            "velocity": 0.8661417322834646
          },
          {
            "duration": 0.3488370000000032,
            "durationTicks": 480,
            "midi": 59,
            "name": "B3",
            "ticks": 331680,
            "time": 241.046367,
            "velocity": 0.8661417322834646
          },
          {
            "duration": 0.3488370000000032,
            "durationTicks": 480,
            "midi": 54,
            "name": "F#3",
            "ticks": 332160,
            "time": 241.395204,
            "velocity": 0.8661417322834646
          },
          {
            "duration": 0.3488370000000032,
            "durationTicks": 480,
            "midi": 54,
            "name": "F#3",
            "ticks": 332640,
            "time": 241.744041,
            "velocity": 0.8661417322834646
          },
          {
            "duration": 0.3488370000000032,
            "durationTicks": 480,
            "midi": 54,
            "name": "F#3",
            "ticks": 333120,
            "time": 242.092878,
            "velocity": 0.8661417322834646
          },
          {
            "duration": 0.3488370000000032,
            "durationTicks": 480,
            "midi": 54,
            "name": "F#3",
            "ticks": 333600,
            "time": 242.44171500000002,
            "velocity": 0.8661417322834646
          },
          {
            "duration": 0.34883699999997475,
            "durationTicks": 480,
            "midi": 54,
            "name": "F#3",
            "ticks": 334080,
            "time": 242.79055200000002,
            "velocity": 0.8661417322834646
          },
          {
            "duration": 0.3488370000000032,
            "durationTicks": 480,
            "midi": 54,
            "name": "F#3",
            "ticks": 334560,
            "time": 243.139389,
            "velocity": 0.8661417322834646
          },
          {
            "duration": 0.3488370000000032,
            "durationTicks": 480,
            "midi": 54,
            "name": "F#3",
            "ticks": 335040,
            "time": 243.488226,
            "velocity": 0.8661417322834646
          },
          {
            "duration": 0.3488370000000032,
            "durationTicks": 480,
            "midi": 54,
            "name": "F#3",
            "ticks": 335520,
            "time": 243.837063,
            "velocity": 0.8661417322834646
          },
          {
            "duration": 0.3488370000000032,
            "durationTicks": 480,
            "midi": 54,
            "name": "F#3",
            "ticks": 336000,
            "time": 244.1859,
            "velocity": 0.8661417322834646
          },
          {
            "duration": 0.3488370000000032,
            "durationTicks": 480,
            "midi": 54,
            "name": "F#3",
            "ticks": 336480,
            "time": 244.534737,
            "velocity": 0.8661417322834646
          },
          {
            "duration": 0.3488370000000032,
            "durationTicks": 480,
            "midi": 54,
            "name": "F#3",
            "ticks": 336960,
            "time": 244.883574,
            "velocity": 0.8661417322834646
          },
          {
            "duration": 0.3488370000000032,
            "durationTicks": 480,
            "midi": 54,
            "name": "F#3",
            "ticks": 337440,
            "time": 245.232411,
            "velocity": 0.8661417322834646
          },
          {
            "duration": 0.3488370000000032,
            "durationTicks": 480,
            "midi": 54,
            "name": "F#3",
            "ticks": 337920,
            "time": 245.58124800000002,
            "velocity": 0.8661417322834646
          },
          {
            "duration": 0.34883699999997475,
            "durationTicks": 480,
            "midi": 54,
            "name": "F#3",
            "ticks": 338400,
            "time": 245.93008500000002,
            "velocity": 0.8661417322834646
          },
          {
            "duration": 0.3488370000000032,
            "durationTicks": 480,
            "midi": 54,
            "name": "F#3",
            "ticks": 338880,
            "time": 246.278922,
            "velocity": 0.8661417322834646
          },
          {
            "duration": 0.3488370000000032,
            "durationTicks": 480,
            "midi": 54,
            "name": "F#3",
            "ticks": 339360,
            "time": 246.627759,
            "velocity": 0.8661417322834646
          },
          {
            "duration": 0.3488370000000032,
            "durationTicks": 480,
            "midi": 52,
            "name": "E3",
            "ticks": 339840,
            "time": 246.976596,
            "velocity": 0.8661417322834646
          },
          {
            "duration": 0.3488370000000032,
            "durationTicks": 480,
            "midi": 52,
            "name": "E3",
            "ticks": 340320,
            "time": 247.325433,
            "velocity": 0.8661417322834646
          },
          {
            "duration": 0.3488370000000032,
            "durationTicks": 480,
            "midi": 52,
            "name": "E3",
            "ticks": 340800,
            "time": 247.67427,
            "velocity": 0.8661417322834646
          },
          {
            "duration": 0.3488370000000032,
            "durationTicks": 480,
            "midi": 52,
            "name": "E3",
            "ticks": 341280,
            "time": 248.023107,
            "velocity": 0.8661417322834646
          },
          {
            "duration": 0.3488370000000032,
            "durationTicks": 480,
            "midi": 52,
            "name": "E3",
            "ticks": 341760,
            "time": 248.371944,
            "velocity": 0.8661417322834646
          },
          {
            "duration": 0.3488370000000032,
            "durationTicks": 480,
            "midi": 52,
            "name": "E3",
            "ticks": 342240,
            "time": 248.72078100000002,
            "velocity": 0.8661417322834646
          },
          {
            "duration": 0.34883699999997475,
            "durationTicks": 480,
            "midi": 52,
            "name": "E3",
            "ticks": 342720,
            "time": 249.06961800000002,
            "velocity": 0.8661417322834646
          },
          {
            "duration": 0.3488370000000032,
            "durationTicks": 480,
            "midi": 52,
            "name": "E3",
            "ticks": 343200,
            "time": 249.418455,
            "velocity": 0.8661417322834646
          },
          {
            "duration": 0.3488370000000032,
            "durationTicks": 480,
            "midi": 52,
            "name": "E3",
            "ticks": 343680,
            "time": 249.767292,
            "velocity": 0.8661417322834646
          },
          {
            "duration": 0.3488370000000032,
            "durationTicks": 480,
            "midi": 52,
            "name": "E3",
            "ticks": 344160,
            "time": 250.116129,
            "velocity": 0.8661417322834646
          },
          {
            "duration": 0.3488370000000032,
            "durationTicks": 480,
            "midi": 52,
            "name": "E3",
            "ticks": 344640,
            "time": 250.464966,
            "velocity": 0.8661417322834646
          },
          {
            "duration": 0.3488370000000032,
            "durationTicks": 480,
            "midi": 52,
            "name": "E3",
            "ticks": 345120,
            "time": 250.813803,
            "velocity": 0.8661417322834646
          },
          {
            "duration": 0.3488370000000032,
            "durationTicks": 480,
            "midi": 52,
            "name": "E3",
            "ticks": 345600,
            "time": 251.16264,
            "velocity": 0.8661417322834646
          },
          {
            "duration": 0.3488370000000032,
            "durationTicks": 480,
            "midi": 52,
            "name": "E3",
            "ticks": 346080,
            "time": 251.511477,
            "velocity": 0.8661417322834646
          },
          {
            "duration": 0.3488370000000032,
            "durationTicks": 480,
            "midi": 52,
            "name": "E3",
            "ticks": 346560,
            "time": 251.86031400000002,
            "velocity": 0.8661417322834646
          },
          {
            "duration": 0.34883699999997475,
            "durationTicks": 480,
            "midi": 52,
            "name": "E3",
            "ticks": 347040,
            "time": 252.20915100000002,
            "velocity": 0.8661417322834646
          },
          {
            "duration": 5.581392000000022,
            "durationTicks": 7680,
            "midi": 47,
            "name": "B2",
            "ticks": 347520,
            "time": 252.557988,
            "velocity": 0.7874015748031497
          },
          {
            "duration": 5.581391999999994,
            "durationTicks": 7680,
            "midi": 54,
            "name": "F#3",
            "ticks": 355200,
            "time": 258.13938,
            "velocity": 0.7874015748031497
          },
          {
            "duration": 5.581391999999994,
            "durationTicks": 7680,
            "midi": 52,
            "name": "E3",
            "ticks": 362880,
            "time": 263.720772,
            "velocity": 0.7874015748031497
          }
        ]
      },
      {
        "channel": 0,
        "controlChanges": {},
        "pitchBends": [],
        "instrument": {
          "family": "piano",
          "number": 0,
          "name": "acoustic grand piano"
        },
        "name": "untitled",
        "notes": [],
        "endOfTrackTicks": 372480
      },
      {
        "channel": 2,
        "controlChanges": {
          "7": [
            {
              "number": 7,
              "ticks": 0,
              "time": 0,
              "value": 0.7874015748031497
            }
          ],
          "10": [
            {
              "number": 10,
              "ticks": 0,
              "time": 0,
              "value": 0.5039370078740157
            }
          ]
        },
        "pitchBends": [],
        "instrument": {
          "family": "guitar",
          "number": 25,
          "name": "acoustic guitar (steel)"
        },
        "name": "",
        "notes": [
          {
            "duration": 0.6976739999999999,
            "durationTicks": 960,
            "midi": 54,
            "name": "F#3",
            "ticks": 1920,
            "time": 1.395348,
            "velocity": 0.6771653543307087
          },
          {
            "duration": 0.6889530749999999,
            "durationTicks": 948,
            "midi": 59,
            "name": "B3",
            "ticks": 1920,
            "time": 1.395348,
            "velocity": 0.7165354330708661
          },
          {
            "duration": 0.6802321499999999,
            "durationTicks": 936,
            "midi": 63,
            "name": "D#4",
            "ticks": 1920,
            "time": 1.395348,
            "velocity": 0.6299212598425197
          },
          {
            "duration": 0.34883700000000006,
            "durationTicks": 480,
            "midi": 54,
            "name": "F#3",
            "ticks": 2880,
            "time": 2.093022,
            "velocity": 0.7480314960629921
          },
          {
            "duration": 0.3401160750000001,
            "durationTicks": 468,
            "midi": 59,
            "name": "B3",
            "ticks": 2880,
            "time": 2.093022,
            "velocity": 0.6535433070866141
          },
          {
            "duration": 0.3313951500000001,
            "durationTicks": 456,
            "midi": 63,
            "name": "D#4",
            "ticks": 2880,
            "time": 2.093022,
            "velocity": 0.6377952755905512
          },
          {
            "duration": 1.0465110000000002,
            "durationTicks": 1440,
            "midi": 54,
            "name": "F#3",
            "ticks": 3360,
            "time": 2.441859,
            "velocity": 0.7480314960629921
          },
          {
            "duration": 1.0377900749999998,
            "durationTicks": 1428,
            "midi": 59,
            "name": "B3",
            "ticks": 3360,
            "time": 2.441859,
            "velocity": 0.6535433070866141
          },
          {
            "duration": 1.0290691499999998,
            "durationTicks": 1416,
            "midi": 63,
            "name": "D#4",
            "ticks": 3360,
            "time": 2.441859,
            "velocity": 0.6377952755905512
          },
          {
            "duration": 0.34883700000000006,
            "durationTicks": 480,
            "midi": 54,
            "name": "F#3",
            "ticks": 4800,
            "time": 3.48837,
            "velocity": 0.7165354330708661
          },
          {
            "duration": 0.34011607499999963,
            "durationTicks": 468,
            "midi": 59,
            "name": "B3",
            "ticks": 4800,
            "time": 3.48837,
            "velocity": 0.7952755905511811
          },
          {
            "duration": 0.33139514999999964,
            "durationTicks": 456,
            "midi": 63,
            "name": "D#4",
            "ticks": 4800,
            "time": 3.48837,
            "velocity": 0.7952755905511811
          },
          {
            "duration": 0.1744184999999998,
            "durationTicks": 240,
            "midi": 54,
            "name": "F#3",
            "ticks": 5280,
            "time": 3.8372070000000003,
            "velocity": 0.7165354330708661
          },
          {
            "duration": 0.16569757499999938,
            "durationTicks": 228,
            "midi": 59,
            "name": "B3",
            "ticks": 5280,
            "time": 3.8372070000000003,
            "velocity": 0.7952755905511811
          },
          {
            "duration": 0.15697664999999938,
            "durationTicks": 216,
            "midi": 63,
            "name": "D#4",
            "ticks": 5280,
            "time": 3.8372070000000003,
            "velocity": 0.7952755905511811
          },
          {
            "duration": 0.1744184999999998,
            "durationTicks": 240,
            "midi": 54,
            "name": "F#3",
            "ticks": 5520,
            "time": 4.0116255,
            "velocity": 0.7165354330708661
          },
          {
            "duration": 0.16569757500000026,
            "durationTicks": 228,
            "midi": 59,
            "name": "B3",
            "ticks": 5520,
            "time": 4.0116255,
            "velocity": 0.7952755905511811
          },
          {
            "duration": 0.15697664999999983,
            "durationTicks": 216,
            "midi": 63,
            "name": "D#4",
            "ticks": 5520,
            "time": 4.0116255,
            "velocity": 0.7952755905511811
          },
          {
            "duration": 0.3401160750000001,
            "durationTicks": 468,
            "midi": 54,
            "name": "F#3",
            "ticks": 5760,
            "time": 4.186044,
            "velocity": 0.7165354330708661
          },
          {
            "duration": 0.3488370000000005,
            "durationTicks": 480,
            "midi": 54,
            "name": "F#3",
            "ticks": 5760,
            "time": 4.186044,
            "velocity": 0.7480314960629921
          },
          {
            "duration": 0.33139514999999964,
            "durationTicks": 456,
            "midi": 59,
            "name": "B3",
            "ticks": 5760,
            "time": 4.186044,
            "velocity": 0.7952755905511811
          },
          {
            "duration": 0.3226742250000001,
            "durationTicks": 444,
            "midi": 63,
            "name": "D#4",
            "ticks": 5760,
            "time": 4.186044,
            "velocity": 0.7952755905511811
          },
          {
            "duration": 0.3488369999999996,
            "durationTicks": 480,
            "midi": 54,
            "name": "F#3",
            "ticks": 6240,
            "time": 4.534881,
            "velocity": 0.7480314960629921
          },
          {
            "duration": 0.3401160749999992,
            "durationTicks": 468,
            "midi": 59,
            "name": "B3",
            "ticks": 6240,
            "time": 4.534881,
            "velocity": 0.6535433070866141
          },
          {
            "duration": 0.33139514999999964,
            "durationTicks": 456,
            "midi": 63,
            "name": "D#4",
            "ticks": 6240,
            "time": 4.534881,
            "velocity": 0.7322834645669292
          },
          {
            "duration": 0.3488370000000005,
            "durationTicks": 480,
            "midi": 54,
            "name": "F#3",
            "ticks": 6720,
            "time": 4.883718,
            "velocity": 0.7322834645669292
          },
          {
            "duration": 0.3401160750000001,
            "durationTicks": 468,
            "midi": 59,
            "name": "B3",
            "ticks": 6720,
            "time": 4.883718,
            "velocity": 0.7952755905511811
          },
          {
            "duration": 0.33139514999999964,
            "durationTicks": 456,
            "midi": 63,
            "name": "D#4",
            "ticks": 6720,
            "time": 4.883718,
            "velocity": 0.8110236220472441
          },
          {
            "duration": 1.0465109999999997,
            "durationTicks": 1440,
            "midi": 54,
            "name": "F#3",
            "ticks": 7200,
            "time": 5.2325550000000005,
            "velocity": 0.7322834645669292
          },
          {
            "duration": 1.0377900750000002,
            "durationTicks": 1428,
            "midi": 59,
            "name": "B3",
            "ticks": 7200,
            "time": 5.2325550000000005,
            "velocity": 0.7952755905511811
          },
          {
            "duration": 1.0290691499999998,
            "durationTicks": 1416,
            "midi": 64,
            "name": "E4",
            "ticks": 7200,
            "time": 5.2325550000000005,
            "velocity": 0.8110236220472441
          },
          {
            "duration": 0.3488369999999996,
            "durationTicks": 480,
            "midi": 54,
            "name": "F#3",
            "ticks": 8640,
            "time": 6.279066,
            "velocity": 0.6929133858267716
          },
          {
            "duration": 0.3401160750000001,
            "durationTicks": 468,
            "midi": 59,
            "name": "B3",
            "ticks": 8640,
            "time": 6.279066,
            "velocity": 0.7165354330708661
          },
          {
            "duration": 0.33139514999999964,
            "durationTicks": 456,
            "midi": 64,
            "name": "E4",
            "ticks": 8640,
            "time": 6.279066,
            "velocity": 0.5984251968503937
          },
          {
            "duration": 0.1744185000000007,
            "durationTicks": 240,
            "midi": 54,
            "name": "F#3",
            "ticks": 9120,
            "time": 6.627903,
            "velocity": 0.6929133858267716
          },
          {
            "duration": 0.16569757500000115,
            "durationTicks": 228,
            "midi": 59,
            "name": "B3",
            "ticks": 9120,
            "time": 6.627903,
            "velocity": 0.7165354330708661
          },
          {
            "duration": 0.15697664999999983,
            "durationTicks": 216,
            "midi": 64,
            "name": "E4",
            "ticks": 9120,
            "time": 6.627903,
            "velocity": 0.5984251968503937
          },
          {
            "duration": 0.1744184999999998,
            "durationTicks": 240,
            "midi": 54,
            "name": "F#3",
            "ticks": 9360,
            "time": 6.802321500000001,
            "velocity": 0.6929133858267716
          },
          {
            "duration": 0.16569757500000026,
            "durationTicks": 228,
            "midi": 59,
            "name": "B3",
            "ticks": 9360,
            "time": 6.802321500000001,
            "velocity": 0.7165354330708661
          },
          {
            "duration": 0.15697664999999894,
            "durationTicks": 216,
            "midi": 64,
            "name": "E4",
            "ticks": 9360,
            "time": 6.802321500000001,
            "velocity": 0.5984251968503937
          },
          {
            "duration": 0.6976740000000001,
            "durationTicks": 960,
            "midi": 54,
            "name": "F#3",
            "ticks": 9600,
            "time": 6.97674,
            "velocity": 0.6771653543307087
          },
          {
            "duration": 0.6889530750000006,
            "durationTicks": 948,
            "midi": 59,
            "name": "B3",
            "ticks": 9600,
            "time": 6.97674,
            "velocity": 0.7165354330708661
          },
          {
            "duration": 0.6802321499999993,
            "durationTicks": 936,
            "midi": 63,
            "name": "D#4",
            "ticks": 9600,
            "time": 6.97674,
            "velocity": 0.6299212598425197
          },
          {
            "duration": 0.3488369999999996,
            "durationTicks": 480,
            "midi": 54,
            "name": "F#3",
            "ticks": 10560,
            "time": 7.6744140000000005,
            "velocity": 0.7480314960629921
          },
          {
            "duration": 0.34011607500000096,
            "durationTicks": 468,
            "midi": 59,
            "name": "B3",
            "ticks": 10560,
            "time": 7.6744140000000005,
            "velocity": 0.6535433070866141
          },
          {
            "duration": 0.33139514999999875,
            "durationTicks": 456,
            "midi": 63,
            "name": "D#4",
            "ticks": 10560,
            "time": 7.6744140000000005,
            "velocity": 0.6377952755905512
          },
          {
            "duration": 1.0465110000000006,
            "durationTicks": 1440,
            "midi": 54,
            "name": "F#3",
            "ticks": 11040,
            "time": 8.023251,
            "velocity": 0.7480314960629921
          },
          {
            "duration": 1.0377900750000002,
            "durationTicks": 1428,
            "midi": 59,
            "name": "B3",
            "ticks": 11040,
            "time": 8.023251,
            "velocity": 0.6535433070866141
          },
          {
            "duration": 1.0290691499999998,
            "durationTicks": 1416,
            "midi": 63,
            "name": "D#4",
            "ticks": 11040,
            "time": 8.023251,
            "velocity": 0.6377952755905512
          },
          {
            "duration": 0.3488369999999996,
            "durationTicks": 480,
            "midi": 54,
            "name": "F#3",
            "ticks": 12480,
            "time": 9.069762,
            "velocity": 0.7165354330708661
          },
          {
            "duration": 0.3401160749999992,
            "durationTicks": 468,
            "midi": 59,
            "name": "B3",
            "ticks": 12480,
            "time": 9.069762,
            "velocity": 0.7952755905511811
          },
          {
            "duration": 0.33139514999999875,
            "durationTicks": 456,
            "midi": 63,
            "name": "D#4",
            "ticks": 12480,
            "time": 9.069762,
            "velocity": 0.7952755905511811
          },
          {
            "duration": 0.1744184999999998,
            "durationTicks": 240,
            "midi": 54,
            "name": "F#3",
            "ticks": 12960,
            "time": 9.418599,
            "velocity": 0.7165354330708661
          },
          {
            "duration": 0.16569757500000115,
            "durationTicks": 228,
            "midi": 59,
            "name": "B3",
            "ticks": 12960,
            "time": 9.418599,
            "velocity": 0.7952755905511811
          },
          {
            "duration": 0.15697664999999894,
            "durationTicks": 216,
            "midi": 63,
            "name": "D#4",
            "ticks": 12960,
            "time": 9.418599,
            "velocity": 0.7952755905511811
          },
          {
            "duration": 0.1744184999999998,
            "durationTicks": 240,
            "midi": 54,
            "name": "F#3",
            "ticks": 13200,
            "time": 9.5930175,
            "velocity": 0.7165354330708661
          },
          {
            "duration": 0.16569757500000115,
            "durationTicks": 228,
            "midi": 59,
            "name": "B3",
            "ticks": 13200,
            "time": 9.5930175,
            "velocity": 0.7952755905511811
          },
          {
            "duration": 0.15697664999999894,
            "durationTicks": 216,
            "midi": 63,
            "name": "D#4",
            "ticks": 13200,
            "time": 9.5930175,
            "velocity": 0.7952755905511811
          },
          {
            "duration": 0.34011607500000096,
            "durationTicks": 468,
            "midi": 54,
            "name": "F#3",
            "ticks": 13440,
            "time": 9.767436,
            "velocity": 0.7165354330708661
          },
          {
            "duration": 0.3488369999999996,
            "durationTicks": 480,
            "midi": 54,
            "name": "F#3",
            "ticks": 13440,
            "time": 9.767436,
            "velocity": 0.7480314960629921
          },
          {
            "duration": 0.3313951500000005,
            "durationTicks": 456,
            "midi": 59,
            "name": "B3",
            "ticks": 13440,
            "time": 9.767436,
            "velocity": 0.7952755905511811
          },
          {
            "duration": 0.3226742250000001,
            "durationTicks": 444,
            "midi": 63,
            "name": "D#4",
            "ticks": 13440,
            "time": 9.767436,
            "velocity": 0.7322834645669292
          },
          {
            "duration": 0.3488370000000014,
            "durationTicks": 480,
            "midi": 54,
            "name": "F#3",
            "ticks": 13920,
            "time": 10.116273,
            "velocity": 0.7480314960629921
          },
          {
            "duration": 0.34011607500000096,
            "durationTicks": 468,
            "midi": 59,
            "name": "B3",
            "ticks": 13920,
            "time": 10.116273,
            "velocity": 0.6535433070866141
          },
          {
            "duration": 0.3313951500000005,
            "durationTicks": 456,
            "midi": 63,
            "name": "D#4",
            "ticks": 13920,
            "time": 10.116273,
            "velocity": 0.7322834645669292
          },
          {
            "duration": 0.3488369999999996,
            "durationTicks": 480,
            "midi": 54,
            "name": "F#3",
            "ticks": 14400,
            "time": 10.465110000000001,
            "velocity": 0.7322834645669292
          },
          {
            "duration": 0.3401160749999992,
            "durationTicks": 468,
            "midi": 59,
            "name": "B3",
            "ticks": 14400,
            "time": 10.465110000000001,
            "velocity": 0.7952755905511811
          },
          {
            "duration": 0.33139514999999875,
            "durationTicks": 456,
            "midi": 63,
            "name": "D#4",
            "ticks": 14400,
            "time": 10.465110000000001,
            "velocity": 0.8110236220472441
          },
          {
            "duration": 1.0465109999999989,
            "durationTicks": 1440,
            "midi": 54,
            "name": "F#3",
            "ticks": 14880,
            "time": 10.813947,
            "velocity": 0.7322834645669292
          },
          {
            "duration": 1.0377900750000002,
            "durationTicks": 1428,
            "midi": 59,
            "name": "B3",
            "ticks": 14880,
            "time": 10.813947,
            "velocity": 0.7952755905511811
          },
          {
            "duration": 1.0290691499999998,
            "durationTicks": 1416,
            "midi": 64,
            "name": "E4",
            "ticks": 14880,
            "time": 10.813947,
            "velocity": 0.8110236220472441
          },
          {
            "duration": 0.3488370000000014,
            "durationTicks": 480,
            "midi": 54,
            "name": "F#3",
            "ticks": 16320,
            "time": 11.860458,
            "velocity": 0.6929133858267716
          },
          {
            "duration": 0.34011607500000096,
            "durationTicks": 468,
            "midi": 59,
            "name": "B3",
            "ticks": 16320,
            "time": 11.860458,
            "velocity": 0.7165354330708661
          },
          {
            "duration": 0.3313951500000023,
            "durationTicks": 456,
            "midi": 64,
            "name": "E4",
            "ticks": 16320,
            "time": 11.860458,
            "velocity": 0.5984251968503937
          },
          {
            "duration": 0.1744184999999998,
            "durationTicks": 240,
            "midi": 54,
            "name": "F#3",
            "ticks": 16800,
            "time": 12.209295000000001,
            "velocity": 0.6929133858267716
          },
          {
            "duration": 0.16569757499999938,
            "durationTicks": 228,
            "midi": 59,
            "name": "B3",
            "ticks": 16800,
            "time": 12.209295000000001,
            "velocity": 0.7165354330708661
          },
          {
            "duration": 0.15697665000000072,
            "durationTicks": 216,
            "midi": 64,
            "name": "E4",
            "ticks": 16800,
            "time": 12.209295000000001,
            "velocity": 0.5984251968503937
          },
          {
            "duration": 0.1744184999999998,
            "durationTicks": 240,
            "midi": 54,
            "name": "F#3",
            "ticks": 17040,
            "time": 12.3837135,
            "velocity": 0.6929133858267716
          },
          {
            "duration": 0.16569757499999938,
            "durationTicks": 228,
            "midi": 59,
            "name": "B3",
            "ticks": 17040,
            "time": 12.3837135,
            "velocity": 0.7165354330708661
          },
          {
            "duration": 0.15697665000000072,
            "durationTicks": 216,
            "midi": 64,
            "name": "E4",
            "ticks": 17040,
            "time": 12.3837135,
            "velocity": 0.5984251968503937
          },
          {
            "duration": 0.3488370000000032,
            "durationTicks": 480,
            "midi": 54,
            "name": "F#3",
            "ticks": 48000,
            "time": 34.8837,
            "velocity": 0.6299212598425197
          },
          {
            "duration": 0.33430212500000067,
            "durationTicks": 460,
            "midi": 59,
            "name": "B3",
            "ticks": 48000,
            "time": 34.8837,
            "velocity": 0.6299212598425197
          },
          {
            "duration": 0.3197672500000053,
            "durationTicks": 440,
            "midi": 63,
            "name": "D#4",
            "ticks": 48000,
            "time": 34.8837,
            "velocity": 0.6299212598425197
          },
          {
            "duration": 0.3488370000000032,
            "durationTicks": 480,
            "midi": 54,
            "name": "F#3",
            "ticks": 48480,
            "time": 35.232537,
            "velocity": 0.6299212598425197
          },
          {
            "duration": 0.33430212500000067,
            "durationTicks": 460,
            "midi": 59,
            "name": "B3",
            "ticks": 48480,
            "time": 35.232537,
            "velocity": 0.6299212598425197
          },
          {
            "duration": 0.3197672500000053,
            "durationTicks": 440,
            "midi": 63,
            "name": "D#4",
            "ticks": 48480,
            "time": 35.232537,
            "velocity": 0.6299212598425197
          },
          {
            "duration": 0.6976739999999992,
            "durationTicks": 960,
            "midi": 59,
            "name": "B3",
            "ticks": 48960,
            "time": 35.581374000000004,
            "velocity": 0.6299212598425197
          },
          {
            "duration": 0.6831391249999967,
            "durationTicks": 940,
            "midi": 63,
            "name": "D#4",
            "ticks": 48960,
            "time": 35.581374000000004,
            "velocity": 0.6299212598425197
          },
          {
            "duration": 0.6686042500000013,
            "durationTicks": 920,
            "midi": 66,
            "name": "F#4",
            "ticks": 48960,
            "time": 35.581374000000004,
            "velocity": 0.6299212598425197
          },
          {
            "duration": 0.34883699999999607,
            "durationTicks": 480,
            "midi": 54,
            "name": "F#3",
            "ticks": 49920,
            "time": 36.279048,
            "velocity": 0.6299212598425197
          },
          {
            "duration": 0.33430212499999357,
            "durationTicks": 460,
            "midi": 59,
            "name": "B3",
            "ticks": 49920,
            "time": 36.279048,
            "velocity": 0.6299212598425197
          },
          {
            "duration": 0.31976724999999817,
            "durationTicks": 440,
            "midi": 63,
            "name": "D#4",
            "ticks": 49920,
            "time": 36.279048,
            "velocity": 0.6299212598425197
          },
          {
            "duration": 0.3488370000000032,
            "durationTicks": 480,
            "midi": 54,
            "name": "F#3",
            "ticks": 50400,
            "time": 36.627885,
            "velocity": 0.6299212598425197
          },
          {
            "duration": 0.33430212500000067,
            "durationTicks": 460,
            "midi": 59,
            "name": "B3",
            "ticks": 50400,
            "time": 36.627885,
            "velocity": 0.6299212598425197
          },
          {
            "duration": 0.3197672500000053,
            "durationTicks": 440,
            "midi": 63,
            "name": "D#4",
            "ticks": 50400,
            "time": 36.627885,
            "velocity": 0.6299212598425197
          },
          {
            "duration": 0.6976739999999992,
            "durationTicks": 960,
            "midi": 54,
            "name": "F#3",
            "ticks": 50880,
            "time": 36.976722,
            "velocity": 0.6299212598425197
          },
          {
            "duration": 0.6831391249999967,
            "durationTicks": 940,
            "midi": 59,
            "name": "B3",
            "ticks": 50880,
            "time": 36.976722,
            "velocity": 0.6299212598425197
          },
          {
            "duration": 0.6686042500000013,
            "durationTicks": 920,
            "midi": 63,
            "name": "D#4",
            "ticks": 50880,
            "time": 36.976722,
            "velocity": 0.6299212598425197
          },
          {
            "duration": 0.34883699999999607,
            "durationTicks": 480,
            "midi": 54,
            "name": "F#3",
            "ticks": 51840,
            "time": 37.674396,
            "velocity": 0.6299212598425197
          },
          {
            "duration": 0.33430212500000067,
            "durationTicks": 460,
            "midi": 59,
            "name": "B3",
            "ticks": 51840,
            "time": 37.674396,
            "velocity": 0.6299212598425197
          },
          {
            "duration": 0.31976724999999817,
            "durationTicks": 440,
            "midi": 63,
            "name": "D#4",
            "ticks": 51840,
            "time": 37.674396,
            "velocity": 0.6299212598425197
          },
          {
            "duration": 0.3488370000000032,
            "durationTicks": 480,
            "midi": 54,
            "name": "F#3",
            "ticks": 52320,
            "time": 38.023233,
            "velocity": 0.6299212598425197
          },
          {
            "duration": 0.33430212500000067,
            "durationTicks": 460,
            "midi": 59,
            "name": "B3",
            "ticks": 52320,
            "time": 38.023233,
            "velocity": 0.6299212598425197
          },
          {
            "duration": 0.3197672500000053,
            "durationTicks": 440,
            "midi": 63,
            "name": "D#4",
            "ticks": 52320,
            "time": 38.023233,
            "velocity": 0.6299212598425197
          },
          {
            "duration": 0.6976739999999992,
            "durationTicks": 960,
            "midi": 59,
            "name": "B3",
            "ticks": 52800,
            "time": 38.37207,
            "velocity": 0.6299212598425197
          },
          {
            "duration": 0.6831391249999967,
            "durationTicks": 940,
            "midi": 63,
            "name": "D#4",
            "ticks": 52800,
            "time": 38.37207,
            "velocity": 0.6299212598425197
          },
          {
            "duration": 0.6686042500000013,
            "durationTicks": 920,
            "midi": 66,
            "name": "F#4",
            "ticks": 52800,
            "time": 38.37207,
            "velocity": 0.6299212598425197
          },
          {
            "duration": 0.3488370000000032,
            "durationTicks": 480,
            "midi": 54,
            "name": "F#3",
            "ticks": 53760,
            "time": 39.069744,
            "velocity": 0.6299212598425197
          },
          {
            "duration": 0.33430212500000067,
            "durationTicks": 460,
            "midi": 59,
            "name": "B3",
            "ticks": 53760,
            "time": 39.069744,
            "velocity": 0.6299212598425197
          },
          {
            "duration": 0.3197672500000053,
            "durationTicks": 440,
            "midi": 63,
            "name": "D#4",
            "ticks": 53760,
            "time": 39.069744,
            "velocity": 0.6299212598425197
          },
          {
            "duration": 0.34883699999999607,
            "durationTicks": 480,
            "midi": 54,
            "name": "F#3",
            "ticks": 54240,
            "time": 39.418581,
            "velocity": 0.6299212598425197
          },
          {
            "duration": 0.33430212499999357,
            "durationTicks": 460,
            "midi": 59,
            "name": "B3",
            "ticks": 54240,
            "time": 39.418581,
            "velocity": 0.6299212598425197
          },
          {
            "duration": 0.31976724999999817,
            "durationTicks": 440,
            "midi": 63,
            "name": "D#4",
            "ticks": 54240,
            "time": 39.418581,
            "velocity": 0.6299212598425197
          },
          {
            "duration": 0.6976739999999992,
            "durationTicks": 960,
            "midi": 54,
            "name": "F#3",
            "ticks": 54720,
            "time": 39.767418,
            "velocity": 0.6299212598425197
          },
          {
            "duration": 0.6831391249999967,
            "durationTicks": 940,
            "midi": 59,
            "name": "B3",
            "ticks": 54720,
            "time": 39.767418,
            "velocity": 0.6299212598425197
          },
          {
            "duration": 0.6686042500000013,
            "durationTicks": 920,
            "midi": 63,
            "name": "D#4",
            "ticks": 54720,
            "time": 39.767418,
            "velocity": 0.6299212598425197
          },
          {
            "duration": 0.3488370000000032,
            "durationTicks": 480,
            "midi": 54,
            "name": "F#3",
            "ticks": 55680,
            "time": 40.465092,
            "velocity": 0.6299212598425197
          },
          {
            "duration": 0.33430212500000067,
            "durationTicks": 460,
            "midi": 58,
            "name": "A#3",
            "ticks": 55680,
            "time": 40.465092,
            "velocity": 0.6299212598425197
          },
          {
            "duration": 0.3197672500000053,
            "durationTicks": 440,
            "midi": 61,
            "name": "C#4",
            "ticks": 55680,
            "time": 40.465092,
            "velocity": 0.6299212598425197
          },
          {
            "duration": 0.34883699999999607,
            "durationTicks": 480,
            "midi": 54,
            "name": "F#3",
            "ticks": 56160,
            "time": 40.813929,
            "velocity": 0.6299212598425197
          },
          {
            "duration": 0.33430212500000067,
            "durationTicks": 460,
            "midi": 58,
            "name": "A#3",
            "ticks": 56160,
            "time": 40.813929,
            "velocity": 0.6299212598425197
          },
          {
            "duration": 0.31976724999999817,
            "durationTicks": 440,
            "midi": 61,
            "name": "C#4",
            "ticks": 56160,
            "time": 40.813929,
            "velocity": 0.6299212598425197
          },
          {
            "duration": 1.0465110000000024,
            "durationTicks": 1440,
            "midi": 54,
            "name": "F#3",
            "ticks": 56640,
            "time": 41.162766,
            "velocity": 0.6299212598425197
          },
          {
            "duration": 1.0174412500000045,
            "durationTicks": 1400,
            "midi": 61,
            "name": "C#4",
            "ticks": 56640,
            "time": 41.162766,
            "velocity": 0.6299212598425197
          },
          {
            "duration": 0.6686042500000013,
            "durationTicks": 920,
            "midi": 63,
            "name": "D#4",
            "ticks": 56640,
            "time": 41.162766,
            "velocity": 0.6299212598425197
          },
          {
            "duration": 0.34883699999999607,
            "durationTicks": 480,
            "midi": 54,
            "name": "F#3",
            "ticks": 57600,
            "time": 41.860440000000004,
            "velocity": 0.6299212598425197
          },
          {
            "duration": 0.33430212499999357,
            "durationTicks": 460,
            "midi": 58,
            "name": "A#3",
            "ticks": 57600,
            "time": 41.860440000000004,
            "velocity": 0.6299212598425197
          },
          {
            "duration": 0.33430212499999357,
            "durationTicks": 460,
            "midi": 61,
            "name": "C#4",
            "ticks": 57600,
            "time": 41.860440000000004,
            "velocity": 0.6299212598425197
          },
          {
            "duration": 0.3488370000000032,
            "durationTicks": 480,
            "midi": 54,
            "name": "F#3",
            "ticks": 58080,
            "time": 42.209277,
            "velocity": 0.6299212598425197
          },
          {
            "duration": 0.33430212500000067,
            "durationTicks": 460,
            "midi": 58,
            "name": "A#3",
            "ticks": 58080,
            "time": 42.209277,
            "velocity": 0.6299212598425197
          },
          {
            "duration": 0.3197672500000053,
            "durationTicks": 440,
            "midi": 61,
            "name": "C#4",
            "ticks": 58080,
            "time": 42.209277,
            "velocity": 0.6299212598425197
          },
          {
            "duration": 0.6976739999999992,
            "durationTicks": 960,
            "midi": 54,
            "name": "F#3",
            "ticks": 58560,
            "time": 42.558114,
            "velocity": 0.6299212598425197
          },
          {
            "duration": 0.6831391249999967,
            "durationTicks": 940,
            "midi": 61,
            "name": "C#4",
            "ticks": 58560,
            "time": 42.558114,
            "velocity": 0.6299212598425197
          },
          {
            "duration": 0.6686042500000013,
            "durationTicks": 920,
            "midi": 63,
            "name": "D#4",
            "ticks": 58560,
            "time": 42.558114,
            "velocity": 0.6299212598425197
          },
          {
            "duration": 0.34883699999999607,
            "durationTicks": 480,
            "midi": 54,
            "name": "F#3",
            "ticks": 59520,
            "time": 43.255788,
            "velocity": 0.6299212598425197
          },
          {
            "duration": 0.33430212499999357,
            "durationTicks": 460,
            "midi": 58,
            "name": "A#3",
            "ticks": 59520,
            "time": 43.255788,
            "velocity": 0.6299212598425197
          },
          {
            "duration": 0.31976724999999817,
            "durationTicks": 440,
            "midi": 61,
            "name": "C#4",
            "ticks": 59520,
            "time": 43.255788,
            "velocity": 0.6299212598425197
          },
          {
            "duration": 0.3488370000000032,
            "durationTicks": 480,
            "midi": 54,
            "name": "F#3",
            "ticks": 60000,
            "time": 43.604625,
            "velocity": 0.6299212598425197
          },
          {
            "duration": 0.33430212500000067,
            "durationTicks": 460,
            "midi": 58,
            "name": "A#3",
            "ticks": 60000,
            "time": 43.604625,
            "velocity": 0.6299212598425197
          },
          {
            "duration": 0.3197672500000053,
            "durationTicks": 440,
            "midi": 61,
            "name": "C#4",
            "ticks": 60000,
            "time": 43.604625,
            "velocity": 0.6299212598425197
          },
          {
            "duration": 0.6976739999999992,
            "durationTicks": 960,
            "midi": 54,
            "name": "F#3",
            "ticks": 60480,
            "time": 43.953462,
            "velocity": 0.6299212598425197
          },
          {
            "duration": 0.6831391249999967,
            "durationTicks": 940,
            "midi": 61,
            "name": "C#4",
            "ticks": 60480,
            "time": 43.953462,
            "velocity": 0.6299212598425197
          },
          {
            "duration": 0.6686042500000013,
            "durationTicks": 920,
            "midi": 63,
            "name": "D#4",
            "ticks": 60480,
            "time": 43.953462,
            "velocity": 0.6299212598425197
          },
          {
            "duration": 0.3488370000000032,
            "durationTicks": 480,
            "midi": 54,
            "name": "F#3",
            "ticks": 61440,
            "time": 44.651136,
            "velocity": 0.6299212598425197
          },
          {
            "duration": 0.33430212500000067,
            "durationTicks": 460,
            "midi": 58,
            "name": "A#3",
            "ticks": 61440,
            "time": 44.651136,
            "velocity": 0.6299212598425197
          },
          {
            "duration": 0.31976724999999817,
            "durationTicks": 440,
            "midi": 61,
            "name": "C#4",
            "ticks": 61440,
            "time": 44.651136,
            "velocity": 0.6299212598425197
          },
          {
            "duration": 0.34883699999999607,
            "durationTicks": 480,
            "midi": 54,
            "name": "F#3",
            "ticks": 61920,
            "time": 44.999973000000004,
            "velocity": 0.6299212598425197
          },
          {
            "duration": 0.33430212500000067,
            "durationTicks": 460,
            "midi": 58,
            "name": "A#3",
            "ticks": 61920,
            "time": 44.999973000000004,
            "velocity": 0.6299212598425197
          },
          {
            "duration": 0.31976724999999107,
            "durationTicks": 440,
            "midi": 61,
            "name": "C#4",
            "ticks": 61920,
            "time": 44.999973000000004,
            "velocity": 0.6299212598425197
          },
          {
            "duration": 0.6976739999999992,
            "durationTicks": 960,
            "midi": 54,
            "name": "F#3",
            "ticks": 62400,
            "time": 45.34881,
            "velocity": 0.6299212598425197
          },
          {
            "duration": 0.6831391250000038,
            "durationTicks": 940,
            "midi": 61,
            "name": "C#4",
            "ticks": 62400,
            "time": 45.34881,
            "velocity": 0.6299212598425197
          },
          {
            "duration": 0.6686042499999942,
            "durationTicks": 920,
            "midi": 63,
            "name": "D#4",
            "ticks": 62400,
            "time": 45.34881,
            "velocity": 0.6299212598425197
          },
          {
            "duration": 0.7412786249999996,
            "durationTicks": 1020,
            "midi": 52,
            "name": "E3",
            "ticks": 63360,
            "time": 46.046484,
            "velocity": 0.6299212598425197
          },
          {
            "duration": 0.6831391250000038,
            "durationTicks": 940,
            "midi": 59,
            "name": "B3",
            "ticks": 63360,
            "time": 46.046484,
            "velocity": 0.6299212598425197
          },
          {
            "duration": 0.6686042500000013,
            "durationTicks": 920,
            "midi": 63,
            "name": "D#4",
            "ticks": 63360,
            "time": 46.046484,
            "velocity": 0.6299212598425197
          },
          {
            "duration": 0.39244162500000357,
            "durationTicks": 540,
            "midi": 52,
            "name": "E3",
            "ticks": 64320,
            "time": 46.744158,
            "velocity": 0.6299212598425197
          },
          {
            "duration": 0.3343021250000078,
            "durationTicks": 460,
            "midi": 59,
            "name": "B3",
            "ticks": 64320,
            "time": 46.744158,
            "velocity": 0.6299212598425197
          },
          {
            "duration": 0.31976724999999817,
            "durationTicks": 440,
            "midi": 63,
            "name": "D#4",
            "ticks": 64320,
            "time": 46.744158,
            "velocity": 0.6299212598425197
          },
          {
            "duration": 0.34883699999999607,
            "durationTicks": 480,
            "midi": 52,
            "name": "E3",
            "ticks": 64800,
            "time": 47.092995,
            "velocity": 0.6299212598425197
          },
          {
            "duration": 0.33430212500000067,
            "durationTicks": 460,
            "midi": 59,
            "name": "B3",
            "ticks": 64800,
            "time": 47.092995,
            "velocity": 0.6299212598425197
          },
          {
            "duration": 0.31976724999999817,
            "durationTicks": 440,
            "midi": 63,
            "name": "D#4",
            "ticks": 64800,
            "time": 47.092995,
            "velocity": 0.6299212598425197
          },
          {
            "duration": 0.7412786249999996,
            "durationTicks": 1020,
            "midi": 52,
            "name": "E3",
            "ticks": 65280,
            "time": 47.441832,
            "velocity": 0.6299212598425197
          },
          {
            "duration": 0.6831391250000038,
            "durationTicks": 940,
            "midi": 59,
            "name": "B3",
            "ticks": 65280,
            "time": 47.441832,
            "velocity": 0.6299212598425197
          },
          {
            "duration": 0.6686042500000013,
            "durationTicks": 920,
            "midi": 63,
            "name": "D#4",
            "ticks": 65280,
            "time": 47.441832,
            "velocity": 0.6299212598425197
          },
          {
            "duration": 0.39244162499999646,
            "durationTicks": 540,
            "midi": 52,
            "name": "E3",
            "ticks": 66240,
            "time": 48.139506000000004,
            "velocity": 0.6299212598425197
          },
          {
            "duration": 0.33430212500000067,
            "durationTicks": 460,
            "midi": 59,
            "name": "B3",
            "ticks": 66240,
            "time": 48.139506000000004,
            "velocity": 0.6299212598425197
          },
          {
            "duration": 0.31976724999999107,
            "durationTicks": 440,
            "midi": 63,
            "name": "D#4",
            "ticks": 66240,
            "time": 48.139506000000004,
            "velocity": 0.6299212598425197
          },
          {
            "duration": 0.3488370000000032,
            "durationTicks": 480,
            "midi": 52,
            "name": "E3",
            "ticks": 66720,
            "time": 48.488343,
            "velocity": 0.6299212598425197
          },
          {
            "duration": 0.33430212500000067,
            "durationTicks": 460,
            "midi": 59,
            "name": "B3",
            "ticks": 66720,
            "time": 48.488343,
            "velocity": 0.6299212598425197
          },
          {
            "duration": 0.31976724999999817,
            "durationTicks": 440,
            "midi": 63,
            "name": "D#4",
            "ticks": 66720,
            "time": 48.488343,
            "velocity": 0.6299212598425197
          },
          {
            "duration": 0.7412786249999996,
            "durationTicks": 1020,
            "midi": 52,
            "name": "E3",
            "ticks": 67200,
            "time": 48.837180000000004,
            "velocity": 0.6299212598425197
          },
          {
            "duration": 0.6831391250000038,
            "durationTicks": 940,
            "midi": 59,
            "name": "B3",
            "ticks": 67200,
            "time": 48.837180000000004,
            "velocity": 0.6299212598425197
          },
          {
            "duration": 0.6686042499999942,
            "durationTicks": 920,
            "midi": 63,
            "name": "D#4",
            "ticks": 67200,
            "time": 48.837180000000004,
            "velocity": 0.6299212598425197
          },
          {
            "duration": 0.39244162499999646,
            "durationTicks": 540,
            "midi": 52,
            "name": "E3",
            "ticks": 68160,
            "time": 49.534854,
            "velocity": 0.6299212598425197
          },
          {
            "duration": 0.33430212500000067,
            "durationTicks": 460,
            "midi": 59,
            "name": "B3",
            "ticks": 68160,
            "time": 49.534854,
            "velocity": 0.6299212598425197
          },
          {
            "duration": 0.31976724999999817,
            "durationTicks": 440,
            "midi": 63,
            "name": "D#4",
            "ticks": 68160,
            "time": 49.534854,
            "velocity": 0.6299212598425197
          },
          {
            "duration": 0.3488370000000032,
            "durationTicks": 480,
            "midi": 52,
            "name": "E3",
            "ticks": 68640,
            "time": 49.883691,
            "velocity": 0.6299212598425197
          },
          {
            "duration": 0.3343021250000078,
            "durationTicks": 460,
            "midi": 59,
            "name": "B3",
            "ticks": 68640,
            "time": 49.883691,
            "velocity": 0.6299212598425197
          },
          {
            "duration": 0.31976724999999817,
            "durationTicks": 440,
            "midi": 63,
            "name": "D#4",
            "ticks": 68640,
            "time": 49.883691,
            "velocity": 0.6299212598425197
          },
          {
            "duration": 0.7412786249999996,
            "durationTicks": 1020,
            "midi": 52,
            "name": "E3",
            "ticks": 69120,
            "time": 50.232528,
            "velocity": 0.6299212598425197
          },
          {
            "duration": 0.6831391250000038,
            "durationTicks": 940,
            "midi": 59,
            "name": "B3",
            "ticks": 69120,
            "time": 50.232528,
            "velocity": 0.6299212598425197
          },
          {
            "duration": 0.6686042499999942,
            "durationTicks": 920,
            "midi": 63,
            "name": "D#4",
            "ticks": 69120,
            "time": 50.232528,
            "velocity": 0.6299212598425197
          },
          {
            "duration": 0.39244162499999646,
            "durationTicks": 540,
            "midi": 52,
            "name": "E3",
            "ticks": 70080,
            "time": 50.930202,
            "velocity": 0.6299212598425197
          },
          {
            "duration": 0.33430212500000067,
            "durationTicks": 460,
            "midi": 59,
            "name": "B3",
            "ticks": 70080,
            "time": 50.930202,
            "velocity": 0.6299212598425197
          },
          {
            "duration": 0.31976724999999817,
            "durationTicks": 440,
            "midi": 63,
            "name": "D#4",
            "ticks": 70080,
            "time": 50.930202,
            "velocity": 0.6299212598425197
          },
          {
            "duration": 0.34883699999999607,
            "durationTicks": 480,
            "midi": 52,
            "name": "E3",
            "ticks": 70560,
            "time": 51.279039000000004,
            "velocity": 0.6299212598425197
          },
          {
            "duration": 0.33430212500000067,
            "durationTicks": 460,
            "midi": 59,
            "name": "B3",
            "ticks": 70560,
            "time": 51.279039000000004,
            "velocity": 0.6299212598425197
          },
          {
            "duration": 0.31976724999999107,
            "durationTicks": 440,
            "midi": 63,
            "name": "D#4",
            "ticks": 70560,
            "time": 51.279039000000004,
            "velocity": 0.6299212598425197
          },
          {
            "duration": 0.3488370000000032,
            "durationTicks": 480,
            "midi": 54,
            "name": "F#3",
            "ticks": 71040,
            "time": 51.627876,
            "velocity": 0.6299212598425197
          },
          {
            "duration": 0.33430212500000067,
            "durationTicks": 460,
            "midi": 59,
            "name": "B3",
            "ticks": 71040,
            "time": 51.627876,
            "velocity": 0.6299212598425197
          },
          {
            "duration": 0.31976724999999817,
            "durationTicks": 440,
            "midi": 63,
            "name": "D#4",
            "ticks": 71040,
            "time": 51.627876,
            "velocity": 0.6299212598425197
          },
          {
            "duration": 0.34883699999999607,
            "durationTicks": 480,
            "midi": 54,
            "name": "F#3",
            "ticks": 71520,
            "time": 51.976713000000004,
            "velocity": 0.6299212598425197
          },
          {
            "duration": 0.33430212500000067,
            "durationTicks": 460,
            "midi": 59,
            "name": "B3",
            "ticks": 71520,
            "time": 51.976713000000004,
            "velocity": 0.6299212598425197
          },
          {
            "duration": 0.31976724999999107,
            "durationTicks": 440,
            "midi": 63,
            "name": "D#4",
            "ticks": 71520,
            "time": 51.976713000000004,
            "velocity": 0.6299212598425197
          },
          {
            "duration": 0.6976739999999992,
            "durationTicks": 960,
            "midi": 59,
            "name": "B3",
            "ticks": 72000,
            "time": 52.32555,
            "velocity": 0.6299212598425197
          },
          {
            "duration": 0.6831391250000038,
            "durationTicks": 940,
            "midi": 63,
            "name": "D#4",
            "ticks": 72000,
            "time": 52.32555,
            "velocity": 0.6299212598425197
          },
          {
            "duration": 0.6686042500000013,
            "durationTicks": 920,
            "midi": 66,
            "name": "F#4",
            "ticks": 72000,
            "time": 52.32555,
            "velocity": 0.6299212598425197
          },
          {
            "duration": 0.3488370000000032,
            "durationTicks": 480,
            "midi": 54,
            "name": "F#3",
            "ticks": 72960,
            "time": 53.023224,
            "velocity": 0.6299212598425197
          },
          {
            "duration": 0.3343021250000078,
            "durationTicks": 460,
            "midi": 59,
            "name": "B3",
            "ticks": 72960,
            "time": 53.023224,
            "velocity": 0.6299212598425197
          },
          {
            "duration": 0.31976724999999817,
            "durationTicks": 440,
            "midi": 63,
            "name": "D#4",
            "ticks": 72960,
            "time": 53.023224,
            "velocity": 0.6299212598425197
          },
          {
            "duration": 0.34883699999999607,
            "durationTicks": 480,
            "midi": 54,
            "name": "F#3",
            "ticks": 73440,
            "time": 53.372061,
            "velocity": 0.6299212598425197
          },
          {
            "duration": 0.33430212500000067,
            "durationTicks": 460,
            "midi": 59,
            "name": "B3",
            "ticks": 73440,
            "time": 53.372061,
            "velocity": 0.6299212598425197
          },
          {
            "duration": 0.31976724999999817,
            "durationTicks": 440,
            "midi": 63,
            "name": "D#4",
            "ticks": 73440,
            "time": 53.372061,
            "velocity": 0.6299212598425197
          },
          {
            "duration": 0.6976740000000063,
            "durationTicks": 960,
            "midi": 54,
            "name": "F#3",
            "ticks": 73920,
            "time": 53.720898,
            "velocity": 0.6299212598425197
          },
          {
            "duration": 0.6831391250000038,
            "durationTicks": 940,
            "midi": 59,
            "name": "B3",
            "ticks": 73920,
            "time": 53.720898,
            "velocity": 0.6299212598425197
          },
          {
            "duration": 0.6686042500000013,
            "durationTicks": 920,
            "midi": 63,
            "name": "D#4",
            "ticks": 73920,
            "time": 53.720898,
            "velocity": 0.6299212598425197
          },
          {
            "duration": 0.34883699999999607,
            "durationTicks": 480,
            "midi": 54,
            "name": "F#3",
            "ticks": 74880,
            "time": 54.418572000000005,
            "velocity": 0.6299212598425197
          },
          {
            "duration": 0.33430212500000067,
            "durationTicks": 460,
            "midi": 59,
            "name": "B3",
            "ticks": 74880,
            "time": 54.418572000000005,
            "velocity": 0.6299212598425197
          },
          {
            "duration": 0.31976724999999107,
            "durationTicks": 440,
            "midi": 63,
            "name": "D#4",
            "ticks": 74880,
            "time": 54.418572000000005,
            "velocity": 0.6299212598425197
          },
          {
            "duration": 0.3488370000000032,
            "durationTicks": 480,
            "midi": 54,
            "name": "F#3",
            "ticks": 75360,
            "time": 54.767409,
            "velocity": 0.6299212598425197
          },
          {
            "duration": 0.33430212500000067,
            "durationTicks": 460,
            "midi": 59,
            "name": "B3",
            "ticks": 75360,
            "time": 54.767409,
            "velocity": 0.6299212598425197
          },
          {
            "duration": 0.31976724999999817,
            "durationTicks": 440,
            "midi": 63,
            "name": "D#4",
            "ticks": 75360,
            "time": 54.767409,
            "velocity": 0.6299212598425197
          },
          {
            "duration": 0.6976739999999992,
            "durationTicks": 960,
            "midi": 59,
            "name": "B3",
            "ticks": 75840,
            "time": 55.116246000000004,
            "velocity": 0.6299212598425197
          },
          {
            "duration": 0.6831391250000038,
            "durationTicks": 940,
            "midi": 63,
            "name": "D#4",
            "ticks": 75840,
            "time": 55.116246000000004,
            "velocity": 0.6299212598425197
          },
          {
            "duration": 0.6686042499999942,
            "durationTicks": 920,
            "midi": 66,
            "name": "F#4",
            "ticks": 75840,
            "time": 55.116246000000004,
            "velocity": 0.6299212598425197
          },
          {
            "duration": 0.34883699999999607,
            "durationTicks": 480,
            "midi": 54,
            "name": "F#3",
            "ticks": 76800,
            "time": 55.81392,
            "velocity": 0.6299212598425197
          },
          {
            "duration": 0.33430212500000067,
            "durationTicks": 460,
            "midi": 59,
            "name": "B3",
            "ticks": 76800,
            "time": 55.81392,
            "velocity": 0.6299212598425197
          },
          {
            "duration": 0.31976724999999817,
            "durationTicks": 440,
            "midi": 63,
            "name": "D#4",
            "ticks": 76800,
            "time": 55.81392,
            "velocity": 0.6299212598425197
          },
          {
            "duration": 0.3488370000000032,
            "durationTicks": 480,
            "midi": 54,
            "name": "F#3",
            "ticks": 77280,
            "time": 56.162757,
            "velocity": 0.6299212598425197
          },
          {
            "duration": 0.3343021250000078,
            "durationTicks": 460,
            "midi": 59,
            "name": "B3",
            "ticks": 77280,
            "time": 56.162757,
            "velocity": 0.6299212598425197
          },
          {
            "duration": 0.31976724999999817,
            "durationTicks": 440,
            "midi": 63,
            "name": "D#4",
            "ticks": 77280,
            "time": 56.162757,
            "velocity": 0.6299212598425197
          },
          {
            "duration": 0.6976739999999992,
            "durationTicks": 960,
            "midi": 54,
            "name": "F#3",
            "ticks": 77760,
            "time": 56.511594,
            "velocity": 0.6299212598425197
          },
          {
            "duration": 0.6831391250000038,
            "durationTicks": 940,
            "midi": 59,
            "name": "B3",
            "ticks": 77760,
            "time": 56.511594,
            "velocity": 0.6299212598425197
          },
          {
            "duration": 0.6686042499999942,
            "durationTicks": 920,
            "midi": 63,
            "name": "D#4",
            "ticks": 77760,
            "time": 56.511594,
            "velocity": 0.6299212598425197
          },
          {
            "duration": 0.3488370000000032,
            "durationTicks": 480,
            "midi": 54,
            "name": "F#3",
            "ticks": 78720,
            "time": 57.209268,
            "velocity": 0.6299212598425197
          },
          {
            "duration": 0.33430212500000067,
            "durationTicks": 460,
            "midi": 58,
            "name": "A#3",
            "ticks": 78720,
            "time": 57.209268,
            "velocity": 0.6299212598425197
          },
          {
            "duration": 0.31976724999999817,
            "durationTicks": 440,
            "midi": 61,
            "name": "C#4",
            "ticks": 78720,
            "time": 57.209268,
            "velocity": 0.6299212598425197
          },
          {
            "duration": 0.34883699999999607,
            "durationTicks": 480,
            "midi": 54,
            "name": "F#3",
            "ticks": 79200,
            "time": 57.558105000000005,
            "velocity": 0.6299212598425197
          },
          {
            "duration": 0.33430212500000067,
            "durationTicks": 460,
            "midi": 58,
            "name": "A#3",
            "ticks": 79200,
            "time": 57.558105000000005,
            "velocity": 0.6299212598425197
          },
          {
            "duration": 0.31976724999999107,
            "durationTicks": 440,
            "midi": 61,
            "name": "C#4",
            "ticks": 79200,
            "time": 57.558105000000005,
            "velocity": 0.6299212598425197
          },
          {
            "duration": 1.0465110000000024,
            "durationTicks": 1440,
            "midi": 54,
            "name": "F#3",
            "ticks": 79680,
            "time": 57.906942,
            "velocity": 0.6299212598425197
          },
          {
            "duration": 1.0174412499999974,
            "durationTicks": 1400,
            "midi": 61,
            "name": "C#4",
            "ticks": 79680,
            "time": 57.906942,
            "velocity": 0.6299212598425197
          },
          {
            "duration": 0.6686042499999942,
            "durationTicks": 920,
            "midi": 63,
            "name": "D#4",
            "ticks": 79680,
            "time": 57.906942,
            "velocity": 0.6299212598425197
          },
          {
            "duration": 0.3488370000000032,
            "durationTicks": 480,
            "midi": 54,
            "name": "F#3",
            "ticks": 80640,
            "time": 58.604616,
            "velocity": 0.6299212598425197
          },
          {
            "duration": 0.3343021250000078,
            "durationTicks": 460,
            "midi": 58,
            "name": "A#3",
            "ticks": 80640,
            "time": 58.604616,
            "velocity": 0.6299212598425197
          },
          {
            "duration": 0.3343021250000078,
            "durationTicks": 460,
            "midi": 61,
            "name": "C#4",
            "ticks": 80640,
            "time": 58.604616,
            "velocity": 0.6299212598425197
          },
          {
            "duration": 0.34883699999999607,
            "durationTicks": 480,
            "midi": 54,
            "name": "F#3",
            "ticks": 81120,
            "time": 58.953453,
            "velocity": 0.6299212598425197
          },
          {
            "duration": 0.33430212500000067,
            "durationTicks": 460,
            "midi": 58,
            "name": "A#3",
            "ticks": 81120,
            "time": 58.953453,
            "velocity": 0.6299212598425197
          },
          {
            "duration": 0.31976724999999817,
            "durationTicks": 440,
            "midi": 61,
            "name": "C#4",
            "ticks": 81120,
            "time": 58.953453,
            "velocity": 0.6299212598425197
          },
          {
            "duration": 0.6976739999999992,
            "durationTicks": 960,
            "midi": 54,
            "name": "F#3",
            "ticks": 81600,
            "time": 59.30229,
            "velocity": 0.6299212598425197
          },
          {
            "duration": 0.6831391250000038,
            "durationTicks": 940,
            "midi": 61,
            "name": "C#4",
            "ticks": 81600,
            "time": 59.30229,
            "velocity": 0.6299212598425197
          },
          {
            "duration": 0.6686042500000013,
            "durationTicks": 920,
            "midi": 63,
            "name": "D#4",
            "ticks": 81600,
            "time": 59.30229,
            "velocity": 0.6299212598425197
          },
          {
            "duration": 0.3488370000000032,
            "durationTicks": 480,
            "midi": 54,
            "name": "F#3",
            "ticks": 82560,
            "time": 59.999964,
            "velocity": 0.6299212598425197
          },
          {
            "duration": 0.3343021250000078,
            "durationTicks": 460,
            "midi": 58,
            "name": "A#3",
            "ticks": 82560,
            "time": 59.999964,
            "velocity": 0.6299212598425197
          },
          {
            "duration": 0.31976724999999817,
            "durationTicks": 440,
            "midi": 61,
            "name": "C#4",
            "ticks": 82560,
            "time": 59.999964,
            "velocity": 0.6299212598425197
          },
          {
            "duration": 0.3488370000000032,
            "durationTicks": 480,
            "midi": 54,
            "name": "F#3",
            "ticks": 83040,
            "time": 60.348801,
            "velocity": 0.6299212598425197
          },
          {
            "duration": 0.33430212500000067,
            "durationTicks": 460,
            "midi": 58,
            "name": "A#3",
            "ticks": 83040,
            "time": 60.348801,
            "velocity": 0.6299212598425197
          },
          {
            "duration": 0.31976724999999817,
            "durationTicks": 440,
            "midi": 61,
            "name": "C#4",
            "ticks": 83040,
            "time": 60.348801,
            "velocity": 0.6299212598425197
          },
          {
            "duration": 0.6976739999999992,
            "durationTicks": 960,
            "midi": 54,
            "name": "F#3",
            "ticks": 83520,
            "time": 60.697638000000005,
            "velocity": 0.6299212598425197
          },
          {
            "duration": 0.6831391249999967,
            "durationTicks": 940,
            "midi": 61,
            "name": "C#4",
            "ticks": 83520,
            "time": 60.697638000000005,
            "velocity": 0.6299212598425197
          },
          {
            "duration": 0.6686042499999942,
            "durationTicks": 920,
            "midi": 63,
            "name": "D#4",
            "ticks": 83520,
            "time": 60.697638000000005,
            "velocity": 0.6299212598425197
          },
          {
            "duration": 0.34883699999999607,
            "durationTicks": 480,
            "midi": 54,
            "name": "F#3",
            "ticks": 84480,
            "time": 61.395312000000004,
            "velocity": 0.6299212598425197
          },
          {
            "duration": 0.33430212500000067,
            "durationTicks": 460,
            "midi": 58,
            "name": "A#3",
            "ticks": 84480,
            "time": 61.395312000000004,
            "velocity": 0.6299212598425197
          },
          {
            "duration": 0.31976724999999107,
            "durationTicks": 440,
            "midi": 61,
            "name": "C#4",
            "ticks": 84480,
            "time": 61.395312000000004,
            "velocity": 0.6299212598425197
          },
          {
            "duration": 0.3488370000000032,
            "durationTicks": 480,
            "midi": 54,
            "name": "F#3",
            "ticks": 84960,
            "time": 61.744149,
            "velocity": 0.6299212598425197
          },
          {
            "duration": 0.3343021250000078,
            "durationTicks": 460,
            "midi": 58,
            "name": "A#3",
            "ticks": 84960,
            "time": 61.744149,
            "velocity": 0.6299212598425197
          },
          {
            "duration": 0.31976724999999817,
            "durationTicks": 440,
            "midi": 61,
            "name": "C#4",
            "ticks": 84960,
            "time": 61.744149,
            "velocity": 0.6299212598425197
          },
          {
            "duration": 0.6976739999999992,
            "durationTicks": 960,
            "midi": 54,
            "name": "F#3",
            "ticks": 85440,
            "time": 62.092986,
            "velocity": 0.6299212598425197
          },
          {
            "duration": 0.6831391250000038,
            "durationTicks": 940,
            "midi": 61,
            "name": "C#4",
            "ticks": 85440,
            "time": 62.092986,
            "velocity": 0.6299212598425197
          },
          {
            "duration": 0.6686042499999942,
            "durationTicks": 920,
            "midi": 63,
            "name": "D#4",
            "ticks": 85440,
            "time": 62.092986,
            "velocity": 0.6299212598425197
          },
          {
            "duration": 0.7412786249999996,
            "durationTicks": 1020,
            "midi": 52,
            "name": "E3",
            "ticks": 86400,
            "time": 62.79066,
            "velocity": 0.6299212598425197
          },
          {
            "duration": 0.6831391250000038,
            "durationTicks": 940,
            "midi": 59,
            "name": "B3",
            "ticks": 86400,
            "time": 62.79066,
            "velocity": 0.6299212598425197
          },
          {
            "duration": 0.6686042499999942,
            "durationTicks": 920,
            "midi": 63,
            "name": "D#4",
            "ticks": 86400,
            "time": 62.79066,
            "velocity": 0.6299212598425197
          },
          {
            "duration": 0.39244162499999646,
            "durationTicks": 540,
            "midi": 52,
            "name": "E3",
            "ticks": 87360,
            "time": 63.488334,
            "velocity": 0.6299212598425197
          },
          {
            "duration": 0.33430212500000067,
            "durationTicks": 460,
            "midi": 59,
            "name": "B3",
            "ticks": 87360,
            "time": 63.488334,
            "velocity": 0.6299212598425197
          },
          {
            "duration": 0.31976724999999817,
            "durationTicks": 440,
            "midi": 63,
            "name": "D#4",
            "ticks": 87360,
            "time": 63.488334,
            "velocity": 0.6299212598425197
          },
          {
            "duration": 0.34883699999999607,
            "durationTicks": 480,
            "midi": 52,
            "name": "E3",
            "ticks": 87840,
            "time": 63.837171000000005,
            "velocity": 0.6299212598425197
          },
          {
            "duration": 0.33430212500000067,
            "durationTicks": 460,
            "midi": 59,
            "name": "B3",
            "ticks": 87840,
            "time": 63.837171000000005,
            "velocity": 0.6299212598425197
          },
          {
            "duration": 0.31976724999999107,
            "durationTicks": 440,
            "midi": 63,
            "name": "D#4",
            "ticks": 87840,
            "time": 63.837171000000005,
            "velocity": 0.6299212598425197
          },
          {
            "duration": 0.7412786250000067,
            "durationTicks": 1020,
            "midi": 52,
            "name": "E3",
            "ticks": 88320,
            "time": 64.186008,
            "velocity": 0.6299212598425197
          },
          {
            "duration": 0.6831391249999967,
            "durationTicks": 940,
            "midi": 59,
            "name": "B3",
            "ticks": 88320,
            "time": 64.186008,
            "velocity": 0.6299212598425197
          },
          {
            "duration": 0.6686042500000013,
            "durationTicks": 920,
            "midi": 63,
            "name": "D#4",
            "ticks": 88320,
            "time": 64.186008,
            "velocity": 0.6299212598425197
          },
          {
            "duration": 0.39244162499998936,
            "durationTicks": 540,
            "midi": 52,
            "name": "E3",
            "ticks": 89280,
            "time": 64.88368200000001,
            "velocity": 0.6299212598425197
          },
          {
            "duration": 0.33430212499999357,
            "durationTicks": 460,
            "midi": 59,
            "name": "B3",
            "ticks": 89280,
            "time": 64.88368200000001,
            "velocity": 0.6299212598425197
          },
          {
            "duration": 0.31976724999998396,
            "durationTicks": 440,
            "midi": 63,
            "name": "D#4",
            "ticks": 89280,
            "time": 64.88368200000001,
            "velocity": 0.6299212598425197
          },
          {
            "duration": 0.3488370000000032,
            "durationTicks": 480,
            "midi": 52,
            "name": "E3",
            "ticks": 89760,
            "time": 65.232519,
            "velocity": 0.6299212598425197
          },
          {
            "duration": 0.3343021250000078,
            "durationTicks": 460,
            "midi": 59,
            "name": "B3",
            "ticks": 89760,
            "time": 65.232519,
            "velocity": 0.6299212598425197
          },
          {
            "duration": 0.31976724999999817,
            "durationTicks": 440,
            "midi": 63,
            "name": "D#4",
            "ticks": 89760,
            "time": 65.232519,
            "velocity": 0.6299212598425197
          },
          {
            "duration": 0.7412786250000067,
            "durationTicks": 1020,
            "midi": 52,
            "name": "E3",
            "ticks": 90240,
            "time": 65.581356,
            "velocity": 0.6299212598425197
          },
          {
            "duration": 0.683139125000011,
            "durationTicks": 940,
            "midi": 59,
            "name": "B3",
            "ticks": 90240,
            "time": 65.581356,
            "velocity": 0.6299212598425197
          },
          {
            "duration": 0.6686042500000013,
            "durationTicks": 920,
            "midi": 63,
            "name": "D#4",
            "ticks": 90240,
            "time": 65.581356,
            "velocity": 0.6299212598425197
          },
          {
            "duration": 0.39244162499998936,
            "durationTicks": 540,
            "midi": 52,
            "name": "E3",
            "ticks": 91200,
            "time": 66.27903,
            "velocity": 0.6299212598425197
          },
          {
            "duration": 0.33430212499999357,
            "durationTicks": 460,
            "midi": 59,
            "name": "B3",
            "ticks": 91200,
            "time": 66.27903,
            "velocity": 0.6299212598425197
          },
          {
            "duration": 0.31976724999999817,
            "durationTicks": 440,
            "midi": 63,
            "name": "D#4",
            "ticks": 91200,
            "time": 66.27903,
            "velocity": 0.6299212598425197
          },
          {
            "duration": 0.3488370000000032,
            "durationTicks": 480,
            "midi": 52,
            "name": "E3",
            "ticks": 91680,
            "time": 66.627867,
            "velocity": 0.6299212598425197
          },
          {
            "duration": 0.3343021250000078,
            "durationTicks": 460,
            "midi": 59,
            "name": "B3",
            "ticks": 91680,
            "time": 66.627867,
            "velocity": 0.6299212598425197
          },
          {
            "duration": 0.31976724999999817,
            "durationTicks": 440,
            "midi": 63,
            "name": "D#4",
            "ticks": 91680,
            "time": 66.627867,
            "velocity": 0.6299212598425197
          },
          {
            "duration": 0.7412786250000067,
            "durationTicks": 1020,
            "midi": 52,
            "name": "E3",
            "ticks": 92160,
            "time": 66.976704,
            "velocity": 0.6299212598425197
          },
          {
            "duration": 0.683139125000011,
            "durationTicks": 940,
            "midi": 59,
            "name": "B3",
            "ticks": 92160,
            "time": 66.976704,
            "velocity": 0.6299212598425197
          },
          {
            "duration": 0.6686042500000013,
            "durationTicks": 920,
            "midi": 63,
            "name": "D#4",
            "ticks": 92160,
            "time": 66.976704,
            "velocity": 0.6299212598425197
          },
          {
            "duration": 0.39244162500000357,
            "durationTicks": 540,
            "midi": 52,
            "name": "E3",
            "ticks": 93120,
            "time": 67.674378,
            "velocity": 0.6299212598425197
          },
          {
            "duration": 0.33430212499999357,
            "durationTicks": 460,
            "midi": 59,
            "name": "B3",
            "ticks": 93120,
            "time": 67.674378,
            "velocity": 0.6299212598425197
          },
          {
            "duration": 0.31976724999999817,
            "durationTicks": 440,
            "midi": 63,
            "name": "D#4",
            "ticks": 93120,
            "time": 67.674378,
            "velocity": 0.6299212598425197
          },
          {
            "duration": 0.34883699999998896,
            "durationTicks": 480,
            "midi": 52,
            "name": "E3",
            "ticks": 93600,
            "time": 68.02321500000001,
            "velocity": 0.6299212598425197
          },
          {
            "duration": 0.33430212499999357,
            "durationTicks": 460,
            "midi": 59,
            "name": "B3",
            "ticks": 93600,
            "time": 68.02321500000001,
            "velocity": 0.6299212598425197
          },
          {
            "duration": 0.31976724999998396,
            "durationTicks": 440,
            "midi": 63,
            "name": "D#4",
            "ticks": 93600,
            "time": 68.02321500000001,
            "velocity": 0.6299212598425197
          },
          {
            "duration": 0.3488370000000032,
            "durationTicks": 480,
            "midi": 59,
            "name": "B3",
            "ticks": 94080,
            "time": 68.372052,
            "velocity": 0.6299212598425197
          },
          {
            "duration": 0.3343021250000078,
            "durationTicks": 460,
            "midi": 63,
            "name": "D#4",
            "ticks": 94080,
            "time": 68.372052,
            "velocity": 0.6299212598425197
          },
          {
            "duration": 0.31976724999999817,
            "durationTicks": 440,
            "midi": 66,
            "name": "F#4",
            "ticks": 94080,
            "time": 68.372052,
            "velocity": 0.6299212598425197
          },
          {
            "duration": 0.3488370000000032,
            "durationTicks": 480,
            "midi": 59,
            "name": "B3",
            "ticks": 94560,
            "time": 68.720889,
            "velocity": 0.6299212598425197
          },
          {
            "duration": 0.3343021250000078,
            "durationTicks": 460,
            "midi": 63,
            "name": "D#4",
            "ticks": 94560,
            "time": 68.720889,
            "velocity": 0.6299212598425197
          },
          {
            "duration": 0.31976724999999817,
            "durationTicks": 440,
            "midi": 66,
            "name": "F#4",
            "ticks": 94560,
            "time": 68.720889,
            "velocity": 0.6299212598425197
          },
          {
            "duration": 0.3343021250000078,
            "durationTicks": 460,
            "midi": 59,
            "name": "B3",
            "ticks": 95040,
            "time": 69.069726,
            "velocity": 0.6299212598425197
          },
          {
            "duration": 0.3488370000000032,
            "durationTicks": 480,
            "midi": 59,
            "name": "B3",
            "ticks": 95040,
            "time": 69.069726,
            "velocity": 0.6299212598425197
          },
          {
            "duration": 0.3052323750000028,
            "durationTicks": 420,
            "midi": 63,
            "name": "D#4",
            "ticks": 95040,
            "time": 69.069726,
            "velocity": 0.6299212598425197
          },
          {
            "duration": 0.31976724999999817,
            "durationTicks": 440,
            "midi": 63,
            "name": "D#4",
            "ticks": 95040,
            "time": 69.069726,
            "velocity": 0.6299212598425197
          },
          {
            "duration": 0.2906975000000074,
            "durationTicks": 400,
            "midi": 66,
            "name": "F#4",
            "ticks": 95040,
            "time": 69.069726,
            "velocity": 0.6299212598425197
          },
          {
            "duration": 0.2761626249999978,
            "durationTicks": 380,
            "midi": 66,
            "name": "F#4",
            "ticks": 95160,
            "time": 69.15693525,
            "velocity": 0.6299212598425197
          },
          {
            "duration": 0.33430212499999357,
            "durationTicks": 460,
            "midi": 59,
            "name": "B3",
            "ticks": 95520,
            "time": 69.418563,
            "velocity": 0.6299212598425197
          },
          {
            "duration": 0.34883699999998896,
            "durationTicks": 480,
            "midi": 59,
            "name": "B3",
            "ticks": 95520,
            "time": 69.418563,
            "velocity": 0.6299212598425197
          },
          {
            "duration": 0.30523237499998856,
            "durationTicks": 420,
            "midi": 63,
            "name": "D#4",
            "ticks": 95520,
            "time": 69.418563,
            "velocity": 0.6299212598425197
          },
          {
            "duration": 0.31976724999999817,
            "durationTicks": 440,
            "midi": 63,
            "name": "D#4",
            "ticks": 95520,
            "time": 69.418563,
            "velocity": 0.6299212598425197
          },
          {
            "duration": 0.29069749999999317,
            "durationTicks": 400,
            "midi": 66,
            "name": "F#4",
            "ticks": 95520,
            "time": 69.418563,
            "velocity": 0.6299212598425197
          },
          {
            "duration": 0.2761626249999978,
            "durationTicks": 380,
            "midi": 66,
            "name": "F#4",
            "ticks": 95640,
            "time": 69.50577225,
            "velocity": 0.6299212598425197
          },
          {
            "duration": 0.3488370000000032,
            "durationTicks": 480,
            "midi": 59,
            "name": "B3",
            "ticks": 96000,
            "time": 69.7674,
            "velocity": 0.6299212598425197
          },
          {
            "duration": 0.3343021250000078,
            "durationTicks": 460,
            "midi": 63,
            "name": "D#4",
            "ticks": 96000,
            "time": 69.7674,
            "velocity": 0.6299212598425197
          },
          {
            "duration": 0.31976724999999817,
            "durationTicks": 440,
            "midi": 66,
            "name": "F#4",
            "ticks": 96000,
            "time": 69.7674,
            "velocity": 0.6299212598425197
          },
          {
            "duration": 0.3488370000000032,
            "durationTicks": 480,
            "midi": 59,
            "name": "B3",
            "ticks": 96480,
            "time": 70.116237,
            "velocity": 0.6299212598425197
          },
          {
            "duration": 0.3343021250000078,
            "durationTicks": 460,
            "midi": 63,
            "name": "D#4",
            "ticks": 96480,
            "time": 70.116237,
            "velocity": 0.6299212598425197
          },
          {
            "duration": 0.31976724999999817,
            "durationTicks": 440,
            "midi": 66,
            "name": "F#4",
            "ticks": 96480,
            "time": 70.116237,
            "velocity": 0.6299212598425197
          },
          {
            "duration": 0.3488370000000032,
            "durationTicks": 480,
            "midi": 59,
            "name": "B3",
            "ticks": 96960,
            "time": 70.465074,
            "velocity": 0.6299212598425197
          },
          {
            "duration": 0.3343021250000078,
            "durationTicks": 460,
            "midi": 63,
            "name": "D#4",
            "ticks": 96960,
            "time": 70.465074,
            "velocity": 0.6299212598425197
          },
          {
            "duration": 0.31976724999999817,
            "durationTicks": 440,
            "midi": 66,
            "name": "F#4",
            "ticks": 96960,
            "time": 70.465074,
            "velocity": 0.6299212598425197
          },
          {
            "duration": 0.3488370000000032,
            "durationTicks": 480,
            "midi": 59,
            "name": "B3",
            "ticks": 97440,
            "time": 70.813911,
            "velocity": 0.6299212598425197
          },
          {
            "duration": 0.33430212499999357,
            "durationTicks": 460,
            "midi": 63,
            "name": "D#4",
            "ticks": 97440,
            "time": 70.813911,
            "velocity": 0.6299212598425197
          },
          {
            "duration": 0.31976724999999817,
            "durationTicks": 440,
            "midi": 66,
            "name": "F#4",
            "ticks": 97440,
            "time": 70.813911,
            "velocity": 0.6299212598425197
          },
          {
            "duration": 0.34883699999998896,
            "durationTicks": 480,
            "midi": 54,
            "name": "F#3",
            "ticks": 97920,
            "time": 71.16274800000001,
            "velocity": 0.6299212598425197
          },
          {
            "duration": 0.33430212499999357,
            "durationTicks": 460,
            "midi": 59,
            "name": "B3",
            "ticks": 97920,
            "time": 71.16274800000001,
            "velocity": 0.6299212598425197
          },
          {
            "duration": 0.31976724999998396,
            "durationTicks": 440,
            "midi": 63,
            "name": "D#4",
            "ticks": 97920,
            "time": 71.16274800000001,
            "velocity": 0.6299212598425197
          },
          {
            "duration": 0.3488370000000032,
            "durationTicks": 480,
            "midi": 54,
            "name": "F#3",
            "ticks": 98400,
            "time": 71.511585,
            "velocity": 0.6299212598425197
          },
          {
            "duration": 0.3343021250000078,
            "durationTicks": 460,
            "midi": 59,
            "name": "B3",
            "ticks": 98400,
            "time": 71.511585,
            "velocity": 0.6299212598425197
          },
          {
            "duration": 0.31976724999999817,
            "durationTicks": 440,
            "midi": 63,
            "name": "D#4",
            "ticks": 98400,
            "time": 71.511585,
            "velocity": 0.6299212598425197
          },
          {
            "duration": 0.6976740000000063,
            "durationTicks": 960,
            "midi": 59,
            "name": "B3",
            "ticks": 98880,
            "time": 71.860422,
            "velocity": 0.6299212598425197
          },
          {
            "duration": 0.683139125000011,
            "durationTicks": 940,
            "midi": 63,
            "name": "D#4",
            "ticks": 98880,
            "time": 71.860422,
            "velocity": 0.6299212598425197
          },
          {
            "duration": 0.6686042500000013,
            "durationTicks": 920,
            "midi": 66,
            "name": "F#4",
            "ticks": 98880,
            "time": 71.860422,
            "velocity": 0.6299212598425197
          },
          {
            "duration": 0.34883699999998896,
            "durationTicks": 480,
            "midi": 54,
            "name": "F#3",
            "ticks": 99840,
            "time": 72.558096,
            "velocity": 0.6299212598425197
          },
          {
            "duration": 0.33430212499999357,
            "durationTicks": 460,
            "midi": 59,
            "name": "B3",
            "ticks": 99840,
            "time": 72.558096,
            "velocity": 0.6299212598425197
          },
          {
            "duration": 0.31976724999999817,
            "durationTicks": 440,
            "midi": 63,
            "name": "D#4",
            "ticks": 99840,
            "time": 72.558096,
            "velocity": 0.6299212598425197
          },
          {
            "duration": 0.3488370000000032,
            "durationTicks": 480,
            "midi": 54,
            "name": "F#3",
            "ticks": 100320,
            "time": 72.906933,
            "velocity": 0.6299212598425197
          },
          {
            "duration": 0.3343021250000078,
            "durationTicks": 460,
            "midi": 59,
            "name": "B3",
            "ticks": 100320,
            "time": 72.906933,
            "velocity": 0.6299212598425197
          },
          {
            "duration": 0.31976724999999817,
            "durationTicks": 440,
            "midi": 63,
            "name": "D#4",
            "ticks": 100320,
            "time": 72.906933,
            "velocity": 0.6299212598425197
          },
          {
            "duration": 0.6976740000000063,
            "durationTicks": 960,
            "midi": 54,
            "name": "F#3",
            "ticks": 100800,
            "time": 73.25577,
            "velocity": 0.6299212598425197
          },
          {
            "duration": 0.683139125000011,
            "durationTicks": 940,
            "midi": 59,
            "name": "B3",
            "ticks": 100800,
            "time": 73.25577,
            "velocity": 0.6299212598425197
          },
          {
            "duration": 0.6686042500000013,
            "durationTicks": 920,
            "midi": 63,
            "name": "D#4",
            "ticks": 100800,
            "time": 73.25577,
            "velocity": 0.6299212598425197
          },
          {
            "duration": 0.3488370000000032,
            "durationTicks": 480,
            "midi": 54,
            "name": "F#3",
            "ticks": 101760,
            "time": 73.953444,
            "velocity": 0.6299212598425197
          },
          {
            "duration": 0.33430212499999357,
            "durationTicks": 460,
            "midi": 58,
            "name": "A#3",
            "ticks": 101760,
            "time": 73.953444,
            "velocity": 0.6299212598425197
          },
          {
            "duration": 0.31976724999999817,
            "durationTicks": 440,
            "midi": 61,
            "name": "C#4",
            "ticks": 101760,
            "time": 73.953444,
            "velocity": 0.6299212598425197
          },
          {
            "duration": 0.34883699999998896,
            "durationTicks": 480,
            "midi": 54,
            "name": "F#3",
            "ticks": 102240,
            "time": 74.30228100000001,
            "velocity": 0.6299212598425197
          },
          {
            "duration": 0.33430212499999357,
            "durationTicks": 460,
            "midi": 58,
            "name": "A#3",
            "ticks": 102240,
            "time": 74.30228100000001,
            "velocity": 0.6299212598425197
          },
          {
            "duration": 0.31976724999998396,
            "durationTicks": 440,
            "midi": 61,
            "name": "C#4",
            "ticks": 102240,
            "time": 74.30228100000001,
            "velocity": 0.6299212598425197
          },
          {
            "duration": 1.0465110000000095,
            "durationTicks": 1440,
            "midi": 54,
            "name": "F#3",
            "ticks": 102720,
            "time": 74.651118,
            "velocity": 0.6299212598425197
          },
          {
            "duration": 1.0174412500000045,
            "durationTicks": 1400,
            "midi": 61,
            "name": "C#4",
            "ticks": 102720,
            "time": 74.651118,
            "velocity": 0.6299212598425197
          },
          {
            "duration": 0.6686042500000013,
            "durationTicks": 920,
            "midi": 63,
            "name": "D#4",
            "ticks": 102720,
            "time": 74.651118,
            "velocity": 0.6299212598425197
          },
          {
            "duration": 0.3488370000000032,
            "durationTicks": 480,
            "midi": 54,
            "name": "F#3",
            "ticks": 103680,
            "time": 75.348792,
            "velocity": 0.6299212598425197
          },
          {
            "duration": 0.3343021250000078,
            "durationTicks": 460,
            "midi": 58,
            "name": "A#3",
            "ticks": 103680,
            "time": 75.348792,
            "velocity": 0.6299212598425197
          },
          {
            "duration": 0.3343021250000078,
            "durationTicks": 460,
            "midi": 61,
            "name": "C#4",
            "ticks": 103680,
            "time": 75.348792,
            "velocity": 0.6299212598425197
          },
          {
            "duration": 0.34883699999998896,
            "durationTicks": 480,
            "midi": 54,
            "name": "F#3",
            "ticks": 104160,
            "time": 75.697629,
            "velocity": 0.6299212598425197
          },
          {
            "duration": 0.33430212499999357,
            "durationTicks": 460,
            "midi": 58,
            "name": "A#3",
            "ticks": 104160,
            "time": 75.697629,
            "velocity": 0.6299212598425197
          },
          {
            "duration": 0.31976724999999817,
            "durationTicks": 440,
            "midi": 61,
            "name": "C#4",
            "ticks": 104160,
            "time": 75.697629,
            "velocity": 0.6299212598425197
          },
          {
            "duration": 0.6976740000000063,
            "durationTicks": 960,
            "midi": 54,
            "name": "F#3",
            "ticks": 104640,
            "time": 76.046466,
            "velocity": 0.6299212598425197
          },
          {
            "duration": 0.683139125000011,
            "durationTicks": 940,
            "midi": 61,
            "name": "C#4",
            "ticks": 104640,
            "time": 76.046466,
            "velocity": 0.6299212598425197
          },
          {
            "duration": 0.6686042500000013,
            "durationTicks": 920,
            "midi": 63,
            "name": "D#4",
            "ticks": 104640,
            "time": 76.046466,
            "velocity": 0.6299212598425197
          },
          {
            "duration": 0.3488370000000032,
            "durationTicks": 480,
            "midi": 54,
            "name": "F#3",
            "ticks": 105600,
            "time": 76.74414,
            "velocity": 0.6299212598425197
          },
          {
            "duration": 0.3343021250000078,
            "durationTicks": 460,
            "midi": 58,
            "name": "A#3",
            "ticks": 105600,
            "time": 76.74414,
            "velocity": 0.6299212598425197
          },
          {
            "duration": 0.31976724999999817,
            "durationTicks": 440,
            "midi": 61,
            "name": "C#4",
            "ticks": 105600,
            "time": 76.74414,
            "velocity": 0.6299212598425197
          },
          {
            "duration": 0.3488370000000032,
            "durationTicks": 480,
            "midi": 54,
            "name": "F#3",
            "ticks": 106080,
            "time": 77.092977,
            "velocity": 0.6299212598425197
          },
          {
            "duration": 0.33430212499999357,
            "durationTicks": 460,
            "midi": 58,
            "name": "A#3",
            "ticks": 106080,
            "time": 77.092977,
            "velocity": 0.6299212598425197
          },
          {
            "duration": 0.31976724999999817,
            "durationTicks": 440,
            "midi": 61,
            "name": "C#4",
            "ticks": 106080,
            "time": 77.092977,
            "velocity": 0.6299212598425197
          },
          {
            "duration": 0.6976739999999921,
            "durationTicks": 960,
            "midi": 54,
            "name": "F#3",
            "ticks": 106560,
            "time": 77.44181400000001,
            "velocity": 0.6299212598425197
          },
          {
            "duration": 0.6831391249999967,
            "durationTicks": 940,
            "midi": 61,
            "name": "C#4",
            "ticks": 106560,
            "time": 77.44181400000001,
            "velocity": 0.6299212598425197
          },
          {
            "duration": 0.6686042499999871,
            "durationTicks": 920,
            "midi": 63,
            "name": "D#4",
            "ticks": 106560,
            "time": 77.44181400000001,
            "velocity": 0.6299212598425197
          },
          {
            "duration": 0.3488370000000032,
            "durationTicks": 480,
            "midi": 54,
            "name": "F#3",
            "ticks": 107520,
            "time": 78.139488,
            "velocity": 0.6299212598425197
          },
          {
            "duration": 0.3343021250000078,
            "durationTicks": 460,
            "midi": 58,
            "name": "A#3",
            "ticks": 107520,
            "time": 78.139488,
            "velocity": 0.6299212598425197
          },
          {
            "duration": 0.31976724999999817,
            "durationTicks": 440,
            "midi": 61,
            "name": "C#4",
            "ticks": 107520,
            "time": 78.139488,
            "velocity": 0.6299212598425197
          },
          {
            "duration": 0.3488370000000032,
            "durationTicks": 480,
            "midi": 54,
            "name": "F#3",
            "ticks": 108000,
            "time": 78.488325,
            "velocity": 0.6299212598425197
          },
          {
            "duration": 0.3343021250000078,
            "durationTicks": 460,
            "midi": 58,
            "name": "A#3",
            "ticks": 108000,
            "time": 78.488325,
            "velocity": 0.6299212598425197
          },
          {
            "duration": 0.31976724999999817,
            "durationTicks": 440,
            "midi": 61,
            "name": "C#4",
            "ticks": 108000,
            "time": 78.488325,
            "velocity": 0.6299212598425197
          },
          {
            "duration": 0.6976739999999921,
            "durationTicks": 960,
            "midi": 54,
            "name": "F#3",
            "ticks": 108480,
            "time": 78.837162,
            "velocity": 0.6299212598425197
          },
          {
            "duration": 0.6831391249999967,
            "durationTicks": 940,
            "midi": 61,
            "name": "C#4",
            "ticks": 108480,
            "time": 78.837162,
            "velocity": 0.6299212598425197
          },
          {
            "duration": 0.6686042499999871,
            "durationTicks": 920,
            "midi": 63,
            "name": "D#4",
            "ticks": 108480,
            "time": 78.837162,
            "velocity": 0.6299212598425197
          },
          {
            "duration": 0.7412786250000067,
            "durationTicks": 1020,
            "midi": 52,
            "name": "E3",
            "ticks": 109440,
            "time": 79.534836,
            "velocity": 0.6299212598425197
          },
          {
            "duration": 0.683139125000011,
            "durationTicks": 940,
            "midi": 59,
            "name": "B3",
            "ticks": 109440,
            "time": 79.534836,
            "velocity": 0.6299212598425197
          },
          {
            "duration": 0.6686042500000013,
            "durationTicks": 920,
            "midi": 63,
            "name": "D#4",
            "ticks": 109440,
            "time": 79.534836,
            "velocity": 0.6299212598425197
          },
          {
            "duration": 0.39244162500000357,
            "durationTicks": 540,
            "midi": 52,
            "name": "E3",
            "ticks": 110400,
            "time": 80.23251,
            "velocity": 0.6299212598425197
          },
          {
            "duration": 0.33430212499999357,
            "durationTicks": 460,
            "midi": 59,
            "name": "B3",
            "ticks": 110400,
            "time": 80.23251,
            "velocity": 0.6299212598425197
          },
          {
            "duration": 0.31976724999999817,
            "durationTicks": 440,
            "midi": 63,
            "name": "D#4",
            "ticks": 110400,
            "time": 80.23251,
            "velocity": 0.6299212598425197
          },
          {
            "duration": 0.34883699999998896,
            "durationTicks": 480,
            "midi": 52,
            "name": "E3",
            "ticks": 110880,
            "time": 80.58134700000001,
            "velocity": 0.6299212598425197
          },
          {
            "duration": 0.33430212499999357,
            "durationTicks": 460,
            "midi": 59,
            "name": "B3",
            "ticks": 110880,
            "time": 80.58134700000001,
            "velocity": 0.6299212598425197
          },
          {
            "duration": 0.31976724999998396,
            "durationTicks": 440,
            "midi": 63,
            "name": "D#4",
            "ticks": 110880,
            "time": 80.58134700000001,
            "velocity": 0.6299212598425197
          },
          {
            "duration": 0.7412786250000067,
            "durationTicks": 1020,
            "midi": 52,
            "name": "E3",
            "ticks": 111360,
            "time": 80.930184,
            "velocity": 0.6299212598425197
          },
          {
            "duration": 0.683139125000011,
            "durationTicks": 940,
            "midi": 59,
            "name": "B3",
            "ticks": 111360,
            "time": 80.930184,
            "velocity": 0.6299212598425197
          },
          {
            "duration": 0.6686042500000013,
            "durationTicks": 920,
            "midi": 63,
            "name": "D#4",
            "ticks": 111360,
            "time": 80.930184,
            "velocity": 0.6299212598425197
          },
          {
            "duration": 0.39244162500000357,
            "durationTicks": 540,
            "midi": 52,
            "name": "E3",
            "ticks": 112320,
            "time": 81.627858,
            "velocity": 0.6299212598425197
          },
          {
            "duration": 0.3343021250000078,
            "durationTicks": 460,
            "midi": 59,
            "name": "B3",
            "ticks": 112320,
            "time": 81.627858,
            "velocity": 0.6299212598425197
          },
          {
            "duration": 0.31976724999999817,
            "durationTicks": 440,
            "midi": 63,
            "name": "D#4",
            "ticks": 112320,
            "time": 81.627858,
            "velocity": 0.6299212598425197
          },
          {
            "duration": 0.34883699999998896,
            "durationTicks": 480,
            "midi": 52,
            "name": "E3",
            "ticks": 112800,
            "time": 81.976695,
            "velocity": 0.6299212598425197
          },
          {
            "duration": 0.33430212499999357,
            "durationTicks": 460,
            "midi": 59,
            "name": "B3",
            "ticks": 112800,
            "time": 81.976695,
            "velocity": 0.6299212598425197
          },
          {
            "duration": 0.31976724999999817,
            "durationTicks": 440,
            "midi": 63,
            "name": "D#4",
            "ticks": 112800,
            "time": 81.976695,
            "velocity": 0.6299212598425197
          },
          {
            "duration": 0.7412786250000067,
            "durationTicks": 1020,
            "midi": 52,
            "name": "E3",
            "ticks": 113280,
            "time": 82.325532,
            "velocity": 0.6299212598425197
          },
          {
            "duration": 0.683139125000011,
            "durationTicks": 940,
            "midi": 59,
            "name": "B3",
            "ticks": 113280,
            "time": 82.325532,
            "velocity": 0.6299212598425197
          },
          {
            "duration": 0.6686042500000013,
            "durationTicks": 920,
            "midi": 63,
            "name": "D#4",
            "ticks": 113280,
            "time": 82.325532,
            "velocity": 0.6299212598425197
          },
          {
            "duration": 0.39244162500000357,
            "durationTicks": 540,
            "midi": 52,
            "name": "E3",
            "ticks": 114240,
            "time": 83.023206,
            "velocity": 0.6299212598425197
          },
          {
            "duration": 0.3343021250000078,
            "durationTicks": 460,
            "midi": 59,
            "name": "B3",
            "ticks": 114240,
            "time": 83.023206,
            "velocity": 0.6299212598425197
          },
          {
            "duration": 0.31976724999999817,
            "durationTicks": 440,
            "midi": 63,
            "name": "D#4",
            "ticks": 114240,
            "time": 83.023206,
            "velocity": 0.6299212598425197
          },
          {
            "duration": 0.3488370000000032,
            "durationTicks": 480,
            "midi": 52,
            "name": "E3",
            "ticks": 114720,
            "time": 83.372043,
            "velocity": 0.6299212598425197
          },
          {
            "duration": 0.33430212499999357,
            "durationTicks": 460,
            "midi": 59,
            "name": "B3",
            "ticks": 114720,
            "time": 83.372043,
            "velocity": 0.6299212598425197
          },
          {
            "duration": 0.31976724999999817,
            "durationTicks": 440,
            "midi": 63,
            "name": "D#4",
            "ticks": 114720,
            "time": 83.372043,
            "velocity": 0.6299212598425197
          },
          {
            "duration": 0.7412786249999925,
            "durationTicks": 1020,
            "midi": 52,
            "name": "E3",
            "ticks": 115200,
            "time": 83.72088000000001,
            "velocity": 0.6299212598425197
          },
          {
            "duration": 0.6831391249999967,
            "durationTicks": 940,
            "midi": 59,
            "name": "B3",
            "ticks": 115200,
            "time": 83.72088000000001,
            "velocity": 0.6299212598425197
          },
          {
            "duration": 0.6686042499999871,
            "durationTicks": 920,
            "midi": 63,
            "name": "D#4",
            "ticks": 115200,
            "time": 83.72088000000001,
            "velocity": 0.6299212598425197
          },
          {
            "duration": 0.39244162500000357,
            "durationTicks": 540,
            "midi": 52,
            "name": "E3",
            "ticks": 116160,
            "time": 84.418554,
            "velocity": 0.6299212598425197
          },
          {
            "duration": 0.3343021250000078,
            "durationTicks": 460,
            "midi": 59,
            "name": "B3",
            "ticks": 116160,
            "time": 84.418554,
            "velocity": 0.6299212598425197
          },
          {
            "duration": 0.31976724999999817,
            "durationTicks": 440,
            "midi": 63,
            "name": "D#4",
            "ticks": 116160,
            "time": 84.418554,
            "velocity": 0.6299212598425197
          },
          {
            "duration": 0.3488370000000032,
            "durationTicks": 480,
            "midi": 52,
            "name": "E3",
            "ticks": 116640,
            "time": 84.767391,
            "velocity": 0.6299212598425197
          },
          {
            "duration": 0.3343021250000078,
            "durationTicks": 460,
            "midi": 59,
            "name": "B3",
            "ticks": 116640,
            "time": 84.767391,
            "velocity": 0.6299212598425197
          },
          {
            "duration": 0.31976724999999817,
            "durationTicks": 440,
            "midi": 63,
            "name": "D#4",
            "ticks": 116640,
            "time": 84.767391,
            "velocity": 0.6299212598425197
          },
          {
            "duration": 0.34883699999998896,
            "durationTicks": 480,
            "midi": 54,
            "name": "F#3",
            "ticks": 117120,
            "time": 85.116228,
            "velocity": 0.7322834645669292
          },
          {
            "duration": 0.33430212499999357,
            "durationTicks": 460,
            "midi": 59,
            "name": "B3",
            "ticks": 117120,
            "time": 85.116228,
            "velocity": 0.8110236220472441
          },
          {
            "duration": 0.31976724999999817,
            "durationTicks": 440,
            "midi": 63,
            "name": "D#4",
            "ticks": 117120,
            "time": 85.116228,
            "velocity": 0.7952755905511811
          },
          {
            "duration": 0.3488370000000032,
            "durationTicks": 480,
            "midi": 54,
            "name": "F#3",
            "ticks": 117600,
            "time": 85.465065,
            "velocity": 0.7480314960629921
          },
          {
            "duration": 0.3343021250000078,
            "durationTicks": 460,
            "midi": 59,
            "name": "B3",
            "ticks": 117600,
            "time": 85.465065,
            "velocity": 0.6929133858267716
          },
          {
            "duration": 0.31976724999999817,
            "durationTicks": 440,
            "midi": 63,
            "name": "D#4",
            "ticks": 117600,
            "time": 85.465065,
            "velocity": 0.6535433070866141
          },
          {
            "duration": 0.3488370000000032,
            "durationTicks": 480,
            "midi": 54,
            "name": "F#3",
            "ticks": 118080,
            "time": 85.813902,
            "velocity": 0.7480314960629921
          },
          {
            "duration": 0.3343021250000078,
            "durationTicks": 460,
            "midi": 59,
            "name": "B3",
            "ticks": 118080,
            "time": 85.813902,
            "velocity": 0.7952755905511811
          },
          {
            "duration": 0.31976724999999817,
            "durationTicks": 440,
            "midi": 63,
            "name": "D#4",
            "ticks": 118080,
            "time": 85.813902,
            "velocity": 0.8110236220472441
          },
          {
            "duration": 0.3488370000000032,
            "durationTicks": 480,
            "midi": 54,
            "name": "F#3",
            "ticks": 118560,
            "time": 86.162739,
            "velocity": 0.7480314960629921
          },
          {
            "duration": 0.3343021250000078,
            "durationTicks": 460,
            "midi": 59,
            "name": "B3",
            "ticks": 118560,
            "time": 86.162739,
            "velocity": 0.7952755905511811
          },
          {
            "duration": 0.31976724999999817,
            "durationTicks": 440,
            "midi": 63,
            "name": "D#4",
            "ticks": 118560,
            "time": 86.162739,
            "velocity": 0.8110236220472441
          },
          {
            "duration": 0.3488370000000032,
            "durationTicks": 480,
            "midi": 54,
            "name": "F#3",
            "ticks": 119040,
            "time": 86.511576,
            "velocity": 0.5511811023622047
          },
          {
            "duration": 0.33430212499999357,
            "durationTicks": 460,
            "midi": 59,
            "name": "B3",
            "ticks": 119040,
            "time": 86.511576,
            "velocity": 0.6377952755905512
          },
          {
            "duration": 0.31976724999999817,
            "durationTicks": 440,
            "midi": 63,
            "name": "D#4",
            "ticks": 119040,
            "time": 86.511576,
            "velocity": 0.6771653543307087
          },
          {
            "duration": 0.34883699999998896,
            "durationTicks": 480,
            "midi": 54,
            "name": "F#3",
            "ticks": 119520,
            "time": 86.86041300000001,
            "velocity": 0.6535433070866141
          },
          {
            "duration": 0.33430212499999357,
            "durationTicks": 460,
            "midi": 59,
            "name": "B3",
            "ticks": 119520,
            "time": 86.86041300000001,
            "velocity": 0.84251968503937
          },
          {
            "duration": 0.31976724999998396,
            "durationTicks": 440,
            "midi": 63,
            "name": "D#4",
            "ticks": 119520,
            "time": 86.86041300000001,
            "velocity": 0.8582677165354331
          },
          {
            "duration": 0.3488370000000032,
            "durationTicks": 480,
            "midi": 54,
            "name": "F#3",
            "ticks": 120000,
            "time": 87.20925,
            "velocity": 0.8267716535433071
          },
          {
            "duration": 0.3343021250000078,
            "durationTicks": 460,
            "midi": 59,
            "name": "B3",
            "ticks": 120000,
            "time": 87.20925,
            "velocity": 0.8740157480314961
          },
          {
            "duration": 0.31976724999999817,
            "durationTicks": 440,
            "midi": 63,
            "name": "D#4",
            "ticks": 120000,
            "time": 87.20925,
            "velocity": 0.8740157480314961
          },
          {
            "duration": 0.3488370000000032,
            "durationTicks": 480,
            "midi": 54,
            "name": "F#3",
            "ticks": 120480,
            "time": 87.558087,
            "velocity": 0.6771653543307087
          },
          {
            "duration": 0.3343021250000078,
            "durationTicks": 460,
            "midi": 59,
            "name": "B3",
            "ticks": 120480,
            "time": 87.558087,
            "velocity": 0.6535433070866141
          },
          {
            "duration": 0.31976724999999817,
            "durationTicks": 440,
            "midi": 63,
            "name": "D#4",
            "ticks": 120480,
            "time": 87.558087,
            "velocity": 0.6377952755905512
          },
          {
            "duration": 0.3488370000000032,
            "durationTicks": 480,
            "midi": 54,
            "name": "F#3",
            "ticks": 120960,
            "time": 87.906924,
            "velocity": 0.5511811023622047
          },
          {
            "duration": 0.3343021250000078,
            "durationTicks": 460,
            "midi": 59,
            "name": "B3",
            "ticks": 120960,
            "time": 87.906924,
            "velocity": 0.6377952755905512
          },
          {
            "duration": 0.31976724999999817,
            "durationTicks": 440,
            "midi": 64,
            "name": "E4",
            "ticks": 120960,
            "time": 87.906924,
            "velocity": 0.6771653543307087
          },
          {
            "duration": 0.34883699999998896,
            "durationTicks": 480,
            "midi": 54,
            "name": "F#3",
            "ticks": 121440,
            "time": 88.255761,
            "velocity": 0.6535433070866141
          },
          {
            "duration": 0.33430212499999357,
            "durationTicks": 460,
            "midi": 59,
            "name": "B3",
            "ticks": 121440,
            "time": 88.255761,
            "velocity": 0.84251968503937
          },
          {
            "duration": 0.31976724999999817,
            "durationTicks": 440,
            "midi": 64,
            "name": "E4",
            "ticks": 121440,
            "time": 88.255761,
            "velocity": 0.8582677165354331
          },
          {
            "duration": 0.3488370000000032,
            "durationTicks": 480,
            "midi": 54,
            "name": "F#3",
            "ticks": 121920,
            "time": 88.604598,
            "velocity": 0.8267716535433071
          },
          {
            "duration": 0.3343021250000078,
            "durationTicks": 460,
            "midi": 59,
            "name": "B3",
            "ticks": 121920,
            "time": 88.604598,
            "velocity": 0.8740157480314961
          },
          {
            "duration": 0.31976724999999817,
            "durationTicks": 440,
            "midi": 64,
            "name": "E4",
            "ticks": 121920,
            "time": 88.604598,
            "velocity": 0.8740157480314961
          },
          {
            "duration": 0.3488370000000032,
            "durationTicks": 480,
            "midi": 54,
            "name": "F#3",
            "ticks": 122400,
            "time": 88.953435,
            "velocity": 0.6771653543307087
          },
          {
            "duration": 0.3343021250000078,
            "durationTicks": 460,
            "midi": 59,
            "name": "B3",
            "ticks": 122400,
            "time": 88.953435,
            "velocity": 0.6535433070866141
          },
          {
            "duration": 0.31976724999999817,
            "durationTicks": 440,
            "midi": 64,
            "name": "E4",
            "ticks": 122400,
            "time": 88.953435,
            "velocity": 0.6377952755905512
          },
          {
            "duration": 0.3488370000000032,
            "durationTicks": 480,
            "midi": 54,
            "name": "F#3",
            "ticks": 122880,
            "time": 89.302272,
            "velocity": 0.5511811023622047
          },
          {
            "duration": 0.33430212499999357,
            "durationTicks": 460,
            "midi": 59,
            "name": "B3",
            "ticks": 122880,
            "time": 89.302272,
            "velocity": 0.6377952755905512
          },
          {
            "duration": 0.3197672500000124,
            "durationTicks": 440,
            "midi": 63,
            "name": "D#4",
            "ticks": 122880,
            "time": 89.302272,
            "velocity": 0.6771653543307087
          },
          {
            "duration": 0.3488370000000032,
            "durationTicks": 480,
            "midi": 54,
            "name": "F#3",
            "ticks": 123360,
            "time": 89.651109,
            "velocity": 0.6535433070866141
          },
          {
            "duration": 0.33430212499999357,
            "durationTicks": 460,
            "midi": 59,
            "name": "B3",
            "ticks": 123360,
            "time": 89.651109,
            "velocity": 0.84251968503937
          },
          {
            "duration": 0.31976724999999817,
            "durationTicks": 440,
            "midi": 63,
            "name": "D#4",
            "ticks": 123360,
            "time": 89.651109,
            "velocity": 0.8582677165354331
          },
          {
            "duration": 0.34883699999998896,
            "durationTicks": 480,
            "midi": 54,
            "name": "F#3",
            "ticks": 123840,
            "time": 89.99994600000001,
            "velocity": 0.8267716535433071
          },
          {
            "duration": 0.33430212499999357,
            "durationTicks": 460,
            "midi": 59,
            "name": "B3",
            "ticks": 123840,
            "time": 89.99994600000001,
            "velocity": 0.8740157480314961
          },
          {
            "duration": 0.31976724999999817,
            "durationTicks": 440,
            "midi": 63,
            "name": "D#4",
            "ticks": 123840,
            "time": 89.99994600000001,
            "velocity": 0.8740157480314961
          },
          {
            "duration": 0.3488370000000032,
            "durationTicks": 480,
            "midi": 54,
            "name": "F#3",
            "ticks": 124320,
            "time": 90.348783,
            "velocity": 0.6771653543307087
          },
          {
            "duration": 0.33430212499999357,
            "durationTicks": 460,
            "midi": 59,
            "name": "B3",
            "ticks": 124320,
            "time": 90.348783,
            "velocity": 0.6535433070866141
          },
          {
            "duration": 0.3197672500000124,
            "durationTicks": 440,
            "midi": 63,
            "name": "D#4",
            "ticks": 124320,
            "time": 90.348783,
            "velocity": 0.6377952755905512
          },
          {
            "duration": 0.3488370000000032,
            "durationTicks": 480,
            "midi": 52,
            "name": "E3",
            "ticks": 124800,
            "time": 90.69762,
            "velocity": 0.7480314960629921
          },
          {
            "duration": 0.33430212499999357,
            "durationTicks": 460,
            "midi": 56,
            "name": "G#3",
            "ticks": 124800,
            "time": 90.69762,
            "velocity": 0.6377952755905512
          },
          {
            "duration": 0.3197672500000124,
            "durationTicks": 440,
            "midi": 59,
            "name": "B3",
            "ticks": 124800,
            "time": 90.69762,
            "velocity": 0.8110236220472441
          },
          {
            "duration": 0.3488370000000032,
            "durationTicks": 480,
            "midi": 52,
            "name": "E3",
            "ticks": 125280,
            "time": 91.046457,
            "velocity": 0.7480314960629921
          },
          {
            "duration": 0.33430212499999357,
            "durationTicks": 460,
            "midi": 56,
            "name": "G#3",
            "ticks": 125280,
            "time": 91.046457,
            "velocity": 0.6377952755905512
          },
          {
            "duration": 0.31976724999999817,
            "durationTicks": 440,
            "midi": 59,
            "name": "B3",
            "ticks": 125280,
            "time": 91.046457,
            "velocity": 0.8110236220472441
          },
          {
            "duration": 0.6976739999999921,
            "durationTicks": 960,
            "midi": 52,
            "name": "E3",
            "ticks": 125760,
            "time": 91.395294,
            "velocity": 0.6535433070866141
          },
          {
            "duration": 0.6831391249999825,
            "durationTicks": 940,
            "midi": 59,
            "name": "B3",
            "ticks": 125760,
            "time": 91.395294,
            "velocity": 0.6377952755905512
          },
          {
            "duration": 0.6686042500000013,
            "durationTicks": 920,
            "midi": 63,
            "name": "D#4",
            "ticks": 125760,
            "time": 91.395294,
            "velocity": 0.7480314960629921
          },
          {
            "duration": 0.3488370000000032,
            "durationTicks": 480,
            "midi": 52,
            "name": "E3",
            "ticks": 126720,
            "time": 92.092968,
            "velocity": 0.7480314960629921
          },
          {
            "duration": 0.33430212499999357,
            "durationTicks": 460,
            "midi": 56,
            "name": "G#3",
            "ticks": 126720,
            "time": 92.092968,
            "velocity": 0.6377952755905512
          },
          {
            "duration": 0.3197672500000124,
            "durationTicks": 440,
            "midi": 59,
            "name": "B3",
            "ticks": 126720,
            "time": 92.092968,
            "velocity": 0.8110236220472441
          },
          {
            "duration": 0.3488370000000032,
            "durationTicks": 480,
            "midi": 52,
            "name": "E3",
            "ticks": 127200,
            "time": 92.441805,
            "velocity": 0.7480314960629921
          },
          {
            "duration": 0.33430212499999357,
            "durationTicks": 460,
            "midi": 56,
            "name": "G#3",
            "ticks": 127200,
            "time": 92.441805,
            "velocity": 0.6377952755905512
          },
          {
            "duration": 0.3197672500000124,
            "durationTicks": 440,
            "midi": 59,
            "name": "B3",
            "ticks": 127200,
            "time": 92.441805,
            "velocity": 0.8110236220472441
          },
          {
            "duration": 0.6976739999999921,
            "durationTicks": 960,
            "midi": 52,
            "name": "E3",
            "ticks": 127680,
            "time": 92.790642,
            "velocity": 0.6535433070866141
          },
          {
            "duration": 0.6831391249999967,
            "durationTicks": 940,
            "midi": 59,
            "name": "B3",
            "ticks": 127680,
            "time": 92.790642,
            "velocity": 0.6377952755905512
          },
          {
            "duration": 0.6686042500000013,
            "durationTicks": 920,
            "midi": 63,
            "name": "D#4",
            "ticks": 127680,
            "time": 92.790642,
            "velocity": 0.7480314960629921
          },
          {
            "duration": 0.3488370000000032,
            "durationTicks": 480,
            "midi": 56,
            "name": "G#3",
            "ticks": 128640,
            "time": 93.488316,
            "velocity": 0.7322834645669292
          },
          {
            "duration": 0.33430212499999357,
            "durationTicks": 460,
            "midi": 59,
            "name": "B3",
            "ticks": 128640,
            "time": 93.488316,
            "velocity": 0.7952755905511811
          },
          {
            "duration": 0.3197672500000124,
            "durationTicks": 440,
            "midi": 63,
            "name": "D#4",
            "ticks": 128640,
            "time": 93.488316,
            "velocity": 0.6377952755905512
          },
          {
            "duration": 0.3488370000000032,
            "durationTicks": 480,
            "midi": 56,
            "name": "G#3",
            "ticks": 129120,
            "time": 93.837153,
            "velocity": 0.6299212598425197
          },
          {
            "duration": 0.33430212499999357,
            "durationTicks": 460,
            "midi": 59,
            "name": "B3",
            "ticks": 129120,
            "time": 93.837153,
            "velocity": 0.7322834645669292
          },
          {
            "duration": 0.3197672500000124,
            "durationTicks": 440,
            "midi": 63,
            "name": "D#4",
            "ticks": 129120,
            "time": 93.837153,
            "velocity": 0.6929133858267716
          },
          {
            "duration": 0.6976739999999921,
            "durationTicks": 960,
            "midi": 56,
            "name": "G#3",
            "ticks": 129600,
            "time": 94.18599,
            "velocity": 0.7480314960629921
          },
          {
            "duration": 0.6831391249999967,
            "durationTicks": 940,
            "midi": 59,
            "name": "B3",
            "ticks": 129600,
            "time": 94.18599,
            "velocity": 0.6535433070866141
          },
          {
            "duration": 0.6686042500000013,
            "durationTicks": 920,
            "midi": 66,
            "name": "F#4",
            "ticks": 129600,
            "time": 94.18599,
            "velocity": 0.6771653543307087
          },
          {
            "duration": 0.3488370000000032,
            "durationTicks": 480,
            "midi": 54,
            "name": "F#3",
            "ticks": 130560,
            "time": 94.883664,
            "velocity": 0.6535433070866141
          },
          {
            "duration": 0.33430212499999357,
            "durationTicks": 460,
            "midi": 58,
            "name": "A#3",
            "ticks": 130560,
            "time": 94.883664,
            "velocity": 0.7952755905511811
          },
          {
            "duration": 0.3197672500000124,
            "durationTicks": 440,
            "midi": 68,
            "name": "G#4",
            "ticks": 130560,
            "time": 94.883664,
            "velocity": 0.6929133858267716
          },
          {
            "duration": 0.3488370000000032,
            "durationTicks": 480,
            "midi": 54,
            "name": "F#3",
            "ticks": 131040,
            "time": 95.232501,
            "velocity": 0.5354330708661418
          },
          {
            "duration": 0.33430212499999357,
            "durationTicks": 460,
            "midi": 58,
            "name": "A#3",
            "ticks": 131040,
            "time": 95.232501,
            "velocity": 0.5984251968503937
          },
          {
            "duration": 0.3197672500000124,
            "durationTicks": 440,
            "midi": 68,
            "name": "G#4",
            "ticks": 131040,
            "time": 95.232501,
            "velocity": 0.6929133858267716
          },
          {
            "duration": 0.3488370000000032,
            "durationTicks": 480,
            "midi": 54,
            "name": "F#3",
            "ticks": 131520,
            "time": 95.581338,
            "velocity": 0.8110236220472441
          },
          {
            "duration": 0.33430212499999357,
            "durationTicks": 460,
            "midi": 58,
            "name": "A#3",
            "ticks": 131520,
            "time": 95.581338,
            "velocity": 0.8740157480314961
          },
          {
            "duration": 0.3197672500000124,
            "durationTicks": 440,
            "midi": 66,
            "name": "F#4",
            "ticks": 131520,
            "time": 95.581338,
            "velocity": 0.6535433070866141
          },
          {
            "duration": 0.3488370000000032,
            "durationTicks": 480,
            "midi": 54,
            "name": "F#3",
            "ticks": 132000,
            "time": 95.930175,
            "velocity": 0.8110236220472441
          },
          {
            "duration": 0.33430212499999357,
            "durationTicks": 460,
            "midi": 58,
            "name": "A#3",
            "ticks": 132000,
            "time": 95.930175,
            "velocity": 0.8740157480314961
          },
          {
            "duration": 0.31976724999999817,
            "durationTicks": 440,
            "midi": 66,
            "name": "F#4",
            "ticks": 132000,
            "time": 95.930175,
            "velocity": 0.6535433070866141
          },
          {
            "duration": 0.34883699999998896,
            "durationTicks": 480,
            "midi": 52,
            "name": "E3",
            "ticks": 132480,
            "time": 96.27901200000001,
            "velocity": 0.7480314960629921
          },
          {
            "duration": 0.33430212499999357,
            "durationTicks": 460,
            "midi": 56,
            "name": "G#3",
            "ticks": 132480,
            "time": 96.27901200000001,
            "velocity": 0.6377952755905512
          },
          {
            "duration": 0.31976724999999817,
            "durationTicks": 440,
            "midi": 59,
            "name": "B3",
            "ticks": 132480,
            "time": 96.27901200000001,
            "velocity": 0.8110236220472441
          },
          {
            "duration": 0.3488370000000032,
            "durationTicks": 480,
            "midi": 52,
            "name": "E3",
            "ticks": 132960,
            "time": 96.627849,
            "velocity": 0.7480314960629921
          },
          {
            "duration": 0.33430212499999357,
            "durationTicks": 460,
            "midi": 56,
            "name": "G#3",
            "ticks": 132960,
            "time": 96.627849,
            "velocity": 0.6377952755905512
          },
          {
            "duration": 0.3197672500000124,
            "durationTicks": 440,
            "midi": 59,
            "name": "B3",
            "ticks": 132960,
            "time": 96.627849,
            "velocity": 0.8110236220472441
          },
          {
            "duration": 0.6976740000000063,
            "durationTicks": 960,
            "midi": 52,
            "name": "E3",
            "ticks": 133440,
            "time": 96.976686,
            "velocity": 0.6535433070866141
          },
          {
            "duration": 0.6831391249999967,
            "durationTicks": 940,
            "midi": 59,
            "name": "B3",
            "ticks": 133440,
            "time": 96.976686,
            "velocity": 0.6377952755905512
          },
          {
            "duration": 0.6686042500000013,
            "durationTicks": 920,
            "midi": 63,
            "name": "D#4",
            "ticks": 133440,
            "time": 96.976686,
            "velocity": 0.7480314960629921
          },
          {
            "duration": 0.34883699999998896,
            "durationTicks": 480,
            "midi": 52,
            "name": "E3",
            "ticks": 134400,
            "time": 97.67436000000001,
            "velocity": 0.7480314960629921
          },
          {
            "duration": 0.33430212499999357,
            "durationTicks": 460,
            "midi": 56,
            "name": "G#3",
            "ticks": 134400,
            "time": 97.67436000000001,
            "velocity": 0.6377952755905512
          },
          {
            "duration": 0.31976724999999817,
            "durationTicks": 440,
            "midi": 59,
            "name": "B3",
            "ticks": 134400,
            "time": 97.67436000000001,
            "velocity": 0.8110236220472441
          },
          {
            "duration": 0.3488370000000032,
            "durationTicks": 480,
            "midi": 52,
            "name": "E3",
            "ticks": 134880,
            "time": 98.023197,
            "velocity": 0.7480314960629921
          },
          {
            "duration": 0.33430212499999357,
            "durationTicks": 460,
            "midi": 56,
            "name": "G#3",
            "ticks": 134880,
            "time": 98.023197,
            "velocity": 0.6377952755905512
          },
          {
            "duration": 0.3197672500000124,
            "durationTicks": 440,
            "midi": 59,
            "name": "B3",
            "ticks": 134880,
            "time": 98.023197,
            "velocity": 0.8110236220472441
          },
          {
            "duration": 0.6976740000000063,
            "durationTicks": 960,
            "midi": 52,
            "name": "E3",
            "ticks": 135360,
            "time": 98.372034,
            "velocity": 0.6535433070866141
          },
          {
            "duration": 0.6831391249999967,
            "durationTicks": 940,
            "midi": 59,
            "name": "B3",
            "ticks": 135360,
            "time": 98.372034,
            "velocity": 0.6377952755905512
          },
          {
            "duration": 0.6686042500000156,
            "durationTicks": 920,
            "midi": 63,
            "name": "D#4",
            "ticks": 135360,
            "time": 98.372034,
            "velocity": 0.7480314960629921
          },
          {
            "duration": 0.3488370000000032,
            "durationTicks": 480,
            "midi": 56,
            "name": "G#3",
            "ticks": 136320,
            "time": 99.069708,
            "velocity": 0.7322834645669292
          },
          {
            "duration": 0.33430212499999357,
            "durationTicks": 460,
            "midi": 59,
            "name": "B3",
            "ticks": 136320,
            "time": 99.069708,
            "velocity": 0.7952755905511811
          },
          {
            "duration": 0.31976724999999817,
            "durationTicks": 440,
            "midi": 63,
            "name": "D#4",
            "ticks": 136320,
            "time": 99.069708,
            "velocity": 0.6377952755905512
          },
          {
            "duration": 0.34883699999998896,
            "durationTicks": 480,
            "midi": 56,
            "name": "G#3",
            "ticks": 136800,
            "time": 99.41854500000001,
            "velocity": 0.6299212598425197
          },
          {
            "duration": 0.33430212499999357,
            "durationTicks": 460,
            "midi": 59,
            "name": "B3",
            "ticks": 136800,
            "time": 99.41854500000001,
            "velocity": 0.7322834645669292
          },
          {
            "duration": 0.31976724999999817,
            "durationTicks": 440,
            "midi": 63,
            "name": "D#4",
            "ticks": 136800,
            "time": 99.41854500000001,
            "velocity": 0.6929133858267716
          },
          {
            "duration": 0.6976740000000063,
            "durationTicks": 960,
            "midi": 56,
            "name": "G#3",
            "ticks": 137280,
            "time": 99.767382,
            "velocity": 0.7480314960629921
          },
          {
            "duration": 0.6831391249999967,
            "durationTicks": 940,
            "midi": 59,
            "name": "B3",
            "ticks": 137280,
            "time": 99.767382,
            "velocity": 0.6535433070866141
          },
          {
            "duration": 0.6686042500000156,
            "durationTicks": 920,
            "midi": 66,
            "name": "F#4",
            "ticks": 137280,
            "time": 99.767382,
            "velocity": 0.6771653543307087
          },
          {
            "duration": 0.3488370000000032,
            "durationTicks": 480,
            "midi": 54,
            "name": "F#3",
            "ticks": 138240,
            "time": 100.465056,
            "velocity": 0.6535433070866141
          },
          {
            "duration": 0.33430212499999357,
            "durationTicks": 460,
            "midi": 58,
            "name": "A#3",
            "ticks": 138240,
            "time": 100.465056,
            "velocity": 0.7952755905511811
          },
          {
            "duration": 0.31976724999999817,
            "durationTicks": 440,
            "midi": 68,
            "name": "G#4",
            "ticks": 138240,
            "time": 100.465056,
            "velocity": 0.6929133858267716
          },
          {
            "duration": 0.34883699999998896,
            "durationTicks": 480,
            "midi": 54,
            "name": "F#3",
            "ticks": 138720,
            "time": 100.81389300000001,
            "velocity": 0.5354330708661418
          },
          {
            "duration": 0.33430212499999357,
            "durationTicks": 460,
            "midi": 58,
            "name": "A#3",
            "ticks": 138720,
            "time": 100.81389300000001,
            "velocity": 0.5984251968503937
          },
          {
            "duration": 0.31976724999999817,
            "durationTicks": 440,
            "midi": 68,
            "name": "G#4",
            "ticks": 138720,
            "time": 100.81389300000001,
            "velocity": 0.6929133858267716
          },
          {
            "duration": 0.3488370000000032,
            "durationTicks": 480,
            "midi": 54,
            "name": "F#3",
            "ticks": 139200,
            "time": 101.16273,
            "velocity": 0.8110236220472441
          },
          {
            "duration": 0.33430212499999357,
            "durationTicks": 460,
            "midi": 58,
            "name": "A#3",
            "ticks": 139200,
            "time": 101.16273,
            "velocity": 0.8740157480314961
          },
          {
            "duration": 0.3197672500000124,
            "durationTicks": 440,
            "midi": 66,
            "name": "F#4",
            "ticks": 139200,
            "time": 101.16273,
            "velocity": 0.6535433070866141
          },
          {
            "duration": 0.3488370000000032,
            "durationTicks": 480,
            "midi": 54,
            "name": "F#3",
            "ticks": 139680,
            "time": 101.511567,
            "velocity": 0.8110236220472441
          },
          {
            "duration": 0.33430212499999357,
            "durationTicks": 460,
            "midi": 58,
            "name": "A#3",
            "ticks": 139680,
            "time": 101.511567,
            "velocity": 0.8740157480314961
          },
          {
            "duration": 0.3197672500000124,
            "durationTicks": 440,
            "midi": 66,
            "name": "F#4",
            "ticks": 139680,
            "time": 101.511567,
            "velocity": 0.6535433070866141
          },
          {
            "duration": 0.3488370000000032,
            "durationTicks": 480,
            "midi": 52,
            "name": "E3",
            "ticks": 140160,
            "time": 101.860404,
            "velocity": 0.7480314960629921
          },
          {
            "duration": 0.33430212499999357,
            "durationTicks": 460,
            "midi": 56,
            "name": "G#3",
            "ticks": 140160,
            "time": 101.860404,
            "velocity": 0.6377952755905512
          },
          {
            "duration": 0.3197672500000124,
            "durationTicks": 440,
            "midi": 59,
            "name": "B3",
            "ticks": 140160,
            "time": 101.860404,
            "velocity": 0.8110236220472441
          },
          {
            "duration": 0.3488370000000032,
            "durationTicks": 480,
            "midi": 52,
            "name": "E3",
            "ticks": 140640,
            "time": 102.209241,
            "velocity": 0.7480314960629921
          },
          {
            "duration": 0.33430212499999357,
            "durationTicks": 460,
            "midi": 56,
            "name": "G#3",
            "ticks": 140640,
            "time": 102.209241,
            "velocity": 0.6377952755905512
          },
          {
            "duration": 0.31976724999999817,
            "durationTicks": 440,
            "midi": 59,
            "name": "B3",
            "ticks": 140640,
            "time": 102.209241,
            "velocity": 0.8110236220472441
          },
          {
            "duration": 0.6976739999999921,
            "durationTicks": 960,
            "midi": 52,
            "name": "E3",
            "ticks": 141120,
            "time": 102.55807800000001,
            "velocity": 0.6535433070866141
          },
          {
            "duration": 0.6831391249999825,
            "durationTicks": 940,
            "midi": 59,
            "name": "B3",
            "ticks": 141120,
            "time": 102.55807800000001,
            "velocity": 0.6377952755905512
          },
          {
            "duration": 0.6686042500000013,
            "durationTicks": 920,
            "midi": 63,
            "name": "D#4",
            "ticks": 141120,
            "time": 102.55807800000001,
            "velocity": 0.7480314960629921
          },
          {
            "duration": 0.3488370000000032,
            "durationTicks": 480,
            "midi": 52,
            "name": "E3",
            "ticks": 142080,
            "time": 103.255752,
            "velocity": 0.7480314960629921
          },
          {
            "duration": 0.33430212499999357,
            "durationTicks": 460,
            "midi": 56,
            "name": "G#3",
            "ticks": 142080,
            "time": 103.255752,
            "velocity": 0.6377952755905512
          },
          {
            "duration": 0.3197672500000124,
            "durationTicks": 440,
            "midi": 59,
            "name": "B3",
            "ticks": 142080,
            "time": 103.255752,
            "velocity": 0.8110236220472441
          },
          {
            "duration": 0.3488370000000032,
            "durationTicks": 480,
            "midi": 52,
            "name": "E3",
            "ticks": 142560,
            "time": 103.604589,
            "velocity": 0.7480314960629921
          },
          {
            "duration": 0.33430212499999357,
            "durationTicks": 460,
            "midi": 56,
            "name": "G#3",
            "ticks": 142560,
            "time": 103.604589,
            "velocity": 0.6377952755905512
          },
          {
            "duration": 0.31976724999999817,
            "durationTicks": 440,
            "midi": 59,
            "name": "B3",
            "ticks": 142560,
            "time": 103.604589,
            "velocity": 0.8110236220472441
          },
          {
            "duration": 0.6976739999999921,
            "durationTicks": 960,
            "midi": 52,
            "name": "E3",
            "ticks": 143040,
            "time": 103.95342600000001,
            "velocity": 0.6535433070866141
          },
          {
            "duration": 0.6831391249999825,
            "durationTicks": 940,
            "midi": 59,
            "name": "B3",
            "ticks": 143040,
            "time": 103.95342600000001,
            "velocity": 0.6377952755905512
          },
          {
            "duration": 0.6686042500000013,
            "durationTicks": 920,
            "midi": 63,
            "name": "D#4",
            "ticks": 143040,
            "time": 103.95342600000001,
            "velocity": 0.7480314960629921
          },
          {
            "duration": 0.3488370000000032,
            "durationTicks": 480,
            "midi": 56,
            "name": "G#3",
            "ticks": 144000,
            "time": 104.6511,
            "velocity": 0.7322834645669292
          },
          {
            "duration": 0.33430212499999357,
            "durationTicks": 460,
            "midi": 59,
            "name": "B3",
            "ticks": 144000,
            "time": 104.6511,
            "velocity": 0.7952755905511811
          },
          {
            "duration": 0.3197672500000124,
            "durationTicks": 440,
            "midi": 63,
            "name": "D#4",
            "ticks": 144000,
            "time": 104.6511,
            "velocity": 0.6377952755905512
          },
          {
            "duration": 0.3488370000000032,
            "durationTicks": 480,
            "midi": 56,
            "name": "G#3",
            "ticks": 144480,
            "time": 104.999937,
            "velocity": 0.6299212598425197
          },
          {
            "duration": 0.33430212499999357,
            "durationTicks": 460,
            "midi": 59,
            "name": "B3",
            "ticks": 144480,
            "time": 104.999937,
            "velocity": 0.7322834645669292
          },
          {
            "duration": 0.3197672500000124,
            "durationTicks": 440,
            "midi": 63,
            "name": "D#4",
            "ticks": 144480,
            "time": 104.999937,
            "velocity": 0.6929133858267716
          },
          {
            "duration": 0.6976739999999921,
            "durationTicks": 960,
            "midi": 56,
            "name": "G#3",
            "ticks": 144960,
            "time": 105.348774,
            "velocity": 0.7480314960629921
          },
          {
            "duration": 0.6831391249999967,
            "durationTicks": 940,
            "midi": 59,
            "name": "B3",
            "ticks": 144960,
            "time": 105.348774,
            "velocity": 0.6535433070866141
          },
          {
            "duration": 0.6686042500000013,
            "durationTicks": 920,
            "midi": 66,
            "name": "F#4",
            "ticks": 144960,
            "time": 105.348774,
            "velocity": 0.6771653543307087
          },
          {
            "duration": 0.3488370000000032,
            "durationTicks": 480,
            "midi": 54,
            "name": "F#3",
            "ticks": 145920,
            "time": 106.046448,
            "velocity": 0.6535433070866141
          },
          {
            "duration": 0.33430212499999357,
            "durationTicks": 460,
            "midi": 58,
            "name": "A#3",
            "ticks": 145920,
            "time": 106.046448,
            "velocity": 0.7952755905511811
          },
          {
            "duration": 0.3197672500000124,
            "durationTicks": 440,
            "midi": 68,
            "name": "G#4",
            "ticks": 145920,
            "time": 106.046448,
            "velocity": 0.6929133858267716
          },
          {
            "duration": 0.3488370000000032,
            "durationTicks": 480,
            "midi": 54,
            "name": "F#3",
            "ticks": 146400,
            "time": 106.395285,
            "velocity": 0.5354330708661418
          },
          {
            "duration": 0.33430212499999357,
            "durationTicks": 460,
            "midi": 58,
            "name": "A#3",
            "ticks": 146400,
            "time": 106.395285,
            "velocity": 0.5984251968503937
          },
          {
            "duration": 0.3197672500000124,
            "durationTicks": 440,
            "midi": 68,
            "name": "G#4",
            "ticks": 146400,
            "time": 106.395285,
            "velocity": 0.6929133858267716
          },
          {
            "duration": 0.3488370000000032,
            "durationTicks": 480,
            "midi": 54,
            "name": "F#3",
            "ticks": 146880,
            "time": 106.744122,
            "velocity": 0.8110236220472441
          },
          {
            "duration": 0.33430212499999357,
            "durationTicks": 460,
            "midi": 58,
            "name": "A#3",
            "ticks": 146880,
            "time": 106.744122,
            "velocity": 0.8740157480314961
          },
          {
            "duration": 0.31976724999999817,
            "durationTicks": 440,
            "midi": 66,
            "name": "F#4",
            "ticks": 146880,
            "time": 106.744122,
            "velocity": 0.6535433070866141
          },
          {
            "duration": 0.34883699999998896,
            "durationTicks": 480,
            "midi": 54,
            "name": "F#3",
            "ticks": 147360,
            "time": 107.09295900000001,
            "velocity": 0.8110236220472441
          },
          {
            "duration": 0.33430212499999357,
            "durationTicks": 460,
            "midi": 58,
            "name": "A#3",
            "ticks": 147360,
            "time": 107.09295900000001,
            "velocity": 0.8740157480314961
          },
          {
            "duration": 0.31976724999999817,
            "durationTicks": 440,
            "midi": 66,
            "name": "F#4",
            "ticks": 147360,
            "time": 107.09295900000001,
            "velocity": 0.6535433070866141
          },
          {
            "duration": 0.6976740000000063,
            "durationTicks": 960,
            "midi": 52,
            "name": "E3",
            "ticks": 147840,
            "time": 107.441796,
            "velocity": 0.7874015748031497
          },
          {
            "duration": 0.6831391249999967,
            "durationTicks": 940,
            "midi": 56,
            "name": "G#3",
            "ticks": 147840,
            "time": 107.441796,
            "velocity": 0.7874015748031497
          },
          {
            "duration": 0.6686042500000156,
            "durationTicks": 920,
            "midi": 59,
            "name": "B3",
            "ticks": 147840,
            "time": 107.441796,
            "velocity": 0.7874015748031497
          },
          {
            "duration": 0.3488370000000032,
            "durationTicks": 480,
            "midi": 52,
            "name": "E3",
            "ticks": 148800,
            "time": 108.13947,
            "velocity": 0.7874015748031497
          },
          {
            "duration": 0.33430212499999357,
            "durationTicks": 460,
            "midi": 56,
            "name": "G#3",
            "ticks": 148800,
            "time": 108.13947,
            "velocity": 0.7874015748031497
          },
          {
            "duration": 0.3197672500000124,
            "durationTicks": 440,
            "midi": 59,
            "name": "B3",
            "ticks": 148800,
            "time": 108.13947,
            "velocity": 0.7874015748031497
          },
          {
            "duration": 0.3488370000000032,
            "durationTicks": 480,
            "midi": 52,
            "name": "E3",
            "ticks": 149280,
            "time": 108.488307,
            "velocity": 0.7874015748031497
          },
          {
            "duration": 0.33430212499999357,
            "durationTicks": 460,
            "midi": 56,
            "name": "G#3",
            "ticks": 149280,
            "time": 108.488307,
            "velocity": 0.7874015748031497
          },
          {
            "duration": 0.31976724999999817,
            "durationTicks": 440,
            "midi": 59,
            "name": "B3",
            "ticks": 149280,
            "time": 108.488307,
            "velocity": 0.7874015748031497
          },
          {
            "duration": 0.34883699999998896,
            "durationTicks": 480,
            "midi": 52,
            "name": "E3",
            "ticks": 149760,
            "time": 108.83714400000001,
            "velocity": 0.7874015748031497
          },
          {
            "duration": 0.33430212499999357,
            "durationTicks": 460,
            "midi": 56,
            "name": "G#3",
            "ticks": 149760,
            "time": 108.83714400000001,
            "velocity": 0.7874015748031497
          },
          {
            "duration": 0.31976724999999817,
            "durationTicks": 440,
            "midi": 59,
            "name": "B3",
            "ticks": 149760,
            "time": 108.83714400000001,
            "velocity": 0.7874015748031497
          },
          {
            "duration": 0.3488370000000032,
            "durationTicks": 480,
            "midi": 52,
            "name": "E3",
            "ticks": 150240,
            "time": 109.185981,
            "velocity": 0.7874015748031497
          },
          {
            "duration": 0.33430212499999357,
            "durationTicks": 460,
            "midi": 56,
            "name": "G#3",
            "ticks": 150240,
            "time": 109.185981,
            "velocity": 0.7874015748031497
          },
          {
            "duration": 0.5232555000000048,
            "durationTicks": 720,
            "midi": 52,
            "name": "E3",
            "ticks": 150720,
            "time": 109.534818,
            "velocity": 0.7874015748031497
          },
          {
            "duration": 0.5087206249999952,
            "durationTicks": 700,
            "midi": 56,
            "name": "G#3",
            "ticks": 150720,
            "time": 109.534818,
            "velocity": 0.7874015748031497
          },
          {
            "duration": 0.49418575000001397,
            "durationTicks": 680,
            "midi": 59,
            "name": "B3",
            "ticks": 150720,
            "time": 109.534818,
            "velocity": 0.7874015748031497
          },
          {
            "duration": 0.47965087500000436,
            "durationTicks": 660,
            "midi": 63,
            "name": "D#4",
            "ticks": 150720,
            "time": 109.534818,
            "velocity": 0.7874015748031497
          },
          {
            "duration": 0.1744185000000016,
            "durationTicks": 240,
            "midi": 52,
            "name": "E3",
            "ticks": 151440,
            "time": 110.0580735,
            "velocity": 0.7874015748031497
          },
          {
            "duration": 0.15988362499999198,
            "durationTicks": 220,
            "midi": 56,
            "name": "G#3",
            "ticks": 151440,
            "time": 110.0580735,
            "velocity": 0.7874015748031497
          },
          {
            "duration": 0.14534874999999658,
            "durationTicks": 200,
            "midi": 59,
            "name": "B3",
            "ticks": 151440,
            "time": 110.0580735,
            "velocity": 0.7874015748031497
          },
          {
            "duration": 0.1308138750000012,
            "durationTicks": 180,
            "midi": 63,
            "name": "D#4",
            "ticks": 151440,
            "time": 110.0580735,
            "velocity": 0.7874015748031497
          },
          {
            "duration": 2.441858999999994,
            "durationTicks": 3360,
            "midi": 52,
            "name": "E3",
            "ticks": 151680,
            "time": 110.23249200000001,
            "velocity": 0.7874015748031497
          },
          {
            "duration": 2.427324124999984,
            "durationTicks": 3340,
            "midi": 56,
            "name": "G#3",
            "ticks": 151680,
            "time": 110.23249200000001,
            "velocity": 0.7874015748031497
          },
          {
            "duration": 2.412789250000003,
            "durationTicks": 3320,
            "midi": 59,
            "name": "B3",
            "ticks": 151680,
            "time": 110.23249200000001,
            "velocity": 0.7874015748031497
          },
          {
            "duration": 2.3982543749999934,
            "durationTicks": 3300,
            "midi": 63,
            "name": "D#4",
            "ticks": 151680,
            "time": 110.23249200000001,
            "velocity": 0.7874015748031497
          },
          {
            "duration": 0.3488370000000032,
            "durationTicks": 480,
            "midi": 54,
            "name": "F#3",
            "ticks": 186240,
            "time": 135.348756,
            "velocity": 0.6299212598425197
          },
          {
            "duration": 0.33430212499999357,
            "durationTicks": 460,
            "midi": 59,
            "name": "B3",
            "ticks": 186240,
            "time": 135.348756,
            "velocity": 0.6299212598425197
          },
          {
            "duration": 0.3197672500000124,
            "durationTicks": 440,
            "midi": 63,
            "name": "D#4",
            "ticks": 186240,
            "time": 135.348756,
            "velocity": 0.6299212598425197
          },
          {
            "duration": 0.3488370000000032,
            "durationTicks": 480,
            "midi": 54,
            "name": "F#3",
            "ticks": 186720,
            "time": 135.697593,
            "velocity": 0.6299212598425197
          },
          {
            "duration": 0.33430212499999357,
            "durationTicks": 460,
            "midi": 59,
            "name": "B3",
            "ticks": 186720,
            "time": 135.697593,
            "velocity": 0.6299212598425197
          },
          {
            "duration": 0.31976724999998396,
            "durationTicks": 440,
            "midi": 63,
            "name": "D#4",
            "ticks": 186720,
            "time": 135.697593,
            "velocity": 0.6299212598425197
          },
          {
            "duration": 0.6976739999999779,
            "durationTicks": 960,
            "midi": 59,
            "name": "B3",
            "ticks": 187200,
            "time": 136.04643000000002,
            "velocity": 0.6299212598425197
          },
          {
            "duration": 0.6831391249999683,
            "durationTicks": 940,
            "midi": 63,
            "name": "D#4",
            "ticks": 187200,
            "time": 136.04643000000002,
            "velocity": 0.6299212598425197
          },
          {
            "duration": 0.6686042499999871,
            "durationTicks": 920,
            "midi": 66,
            "name": "F#4",
            "ticks": 187200,
            "time": 136.04643000000002,
            "velocity": 0.6299212598425197
          },
          {
            "duration": 0.3488370000000032,
            "durationTicks": 480,
            "midi": 54,
            "name": "F#3",
            "ticks": 188160,
            "time": 136.744104,
            "velocity": 0.6299212598425197
          },
          {
            "duration": 0.33430212499999357,
            "durationTicks": 460,
            "midi": 59,
            "name": "B3",
            "ticks": 188160,
            "time": 136.744104,
            "velocity": 0.6299212598425197
          },
          {
            "duration": 0.3197672500000124,
            "durationTicks": 440,
            "midi": 63,
            "name": "D#4",
            "ticks": 188160,
            "time": 136.744104,
            "velocity": 0.6299212598425197
          },
          {
            "duration": 0.3488370000000032,
            "durationTicks": 480,
            "midi": 54,
            "name": "F#3",
            "ticks": 188640,
            "time": 137.092941,
            "velocity": 0.6299212598425197
          },
          {
            "duration": 0.33430212499999357,
            "durationTicks": 460,
            "midi": 59,
            "name": "B3",
            "ticks": 188640,
            "time": 137.092941,
            "velocity": 0.6299212598425197
          },
          {
            "duration": 0.3197672500000124,
            "durationTicks": 440,
            "midi": 63,
            "name": "D#4",
            "ticks": 188640,
            "time": 137.092941,
            "velocity": 0.6299212598425197
          },
          {
            "duration": 0.6976740000000063,
            "durationTicks": 960,
            "midi": 54,
            "name": "F#3",
            "ticks": 189120,
            "time": 137.441778,
            "velocity": 0.6299212598425197
          },
          {
            "duration": 0.6831391249999967,
            "durationTicks": 940,
            "midi": 59,
            "name": "B3",
            "ticks": 189120,
            "time": 137.441778,
            "velocity": 0.6299212598425197
          },
          {
            "duration": 0.6686042500000156,
            "durationTicks": 920,
            "midi": 63,
            "name": "D#4",
            "ticks": 189120,
            "time": 137.441778,
            "velocity": 0.6299212598425197
          },
          {
            "duration": 0.3488370000000032,
            "durationTicks": 480,
            "midi": 54,
            "name": "F#3",
            "ticks": 190080,
            "time": 138.139452,
            "velocity": 0.6299212598425197
          },
          {
            "duration": 0.33430212499999357,
            "durationTicks": 460,
            "midi": 59,
            "name": "B3",
            "ticks": 190080,
            "time": 138.139452,
            "velocity": 0.6299212598425197
          },
          {
            "duration": 0.3197672500000124,
            "durationTicks": 440,
            "midi": 63,
            "name": "D#4",
            "ticks": 190080,
            "time": 138.139452,
            "velocity": 0.6299212598425197
          },
          {
            "duration": 0.3488370000000032,
            "durationTicks": 480,
            "midi": 54,
            "name": "F#3",
            "ticks": 190560,
            "time": 138.488289,
            "velocity": 0.6299212598425197
          },
          {
            "duration": 0.33430212499999357,
            "durationTicks": 460,
            "midi": 59,
            "name": "B3",
            "ticks": 190560,
            "time": 138.488289,
            "velocity": 0.6299212598425197
          },
          {
            "duration": 0.3197672500000124,
            "durationTicks": 440,
            "midi": 63,
            "name": "D#4",
            "ticks": 190560,
            "time": 138.488289,
            "velocity": 0.6299212598425197
          },
          {
            "duration": 0.6976739999999779,
            "durationTicks": 960,
            "midi": 59,
            "name": "B3",
            "ticks": 191040,
            "time": 138.837126,
            "velocity": 0.6299212598425197
          },
          {
            "duration": 0.6831391249999967,
            "durationTicks": 940,
            "midi": 63,
            "name": "D#4",
            "ticks": 191040,
            "time": 138.837126,
            "velocity": 0.6299212598425197
          },
          {
            "duration": 0.6686042499999871,
            "durationTicks": 920,
            "midi": 66,
            "name": "F#4",
            "ticks": 191040,
            "time": 138.837126,
            "velocity": 0.6299212598425197
          },
          {
            "duration": 0.3488370000000032,
            "durationTicks": 480,
            "midi": 54,
            "name": "F#3",
            "ticks": 192000,
            "time": 139.5348,
            "velocity": 0.6299212598425197
          },
          {
            "duration": 0.33430212499999357,
            "durationTicks": 460,
            "midi": 59,
            "name": "B3",
            "ticks": 192000,
            "time": 139.5348,
            "velocity": 0.6299212598425197
          },
          {
            "duration": 0.3197672500000124,
            "durationTicks": 440,
            "midi": 63,
            "name": "D#4",
            "ticks": 192000,
            "time": 139.5348,
            "velocity": 0.6299212598425197
          },
          {
            "duration": 0.3488370000000032,
            "durationTicks": 480,
            "midi": 54,
            "name": "F#3",
            "ticks": 192480,
            "time": 139.883637,
            "velocity": 0.6299212598425197
          },
          {
            "duration": 0.33430212499999357,
            "durationTicks": 460,
            "midi": 59,
            "name": "B3",
            "ticks": 192480,
            "time": 139.883637,
            "velocity": 0.6299212598425197
          },
          {
            "duration": 0.3197672500000124,
            "durationTicks": 440,
            "midi": 63,
            "name": "D#4",
            "ticks": 192480,
            "time": 139.883637,
            "velocity": 0.6299212598425197
          },
          {
            "duration": 0.6976740000000063,
            "durationTicks": 960,
            "midi": 54,
            "name": "F#3",
            "ticks": 192960,
            "time": 140.232474,
            "velocity": 0.6299212598425197
          },
          {
            "duration": 0.6831391249999967,
            "durationTicks": 940,
            "midi": 59,
            "name": "B3",
            "ticks": 192960,
            "time": 140.232474,
            "velocity": 0.6299212598425197
          },
          {
            "duration": 0.6686042500000156,
            "durationTicks": 920,
            "midi": 63,
            "name": "D#4",
            "ticks": 192960,
            "time": 140.232474,
            "velocity": 0.6299212598425197
          },
          {
            "duration": 0.3488370000000032,
            "durationTicks": 480,
            "midi": 54,
            "name": "F#3",
            "ticks": 193920,
            "time": 140.930148,
            "velocity": 0.6299212598425197
          },
          {
            "duration": 0.33430212499999357,
            "durationTicks": 460,
            "midi": 58,
            "name": "A#3",
            "ticks": 193920,
            "time": 140.930148,
            "velocity": 0.6299212598425197
          },
          {
            "duration": 0.3197672500000124,
            "durationTicks": 440,
            "midi": 61,
            "name": "C#4",
            "ticks": 193920,
            "time": 140.930148,
            "velocity": 0.6299212598425197
          },
          {
            "duration": 0.3488370000000032,
            "durationTicks": 480,
            "midi": 54,
            "name": "F#3",
            "ticks": 194400,
            "time": 141.278985,
            "velocity": 0.6299212598425197
          },
          {
            "duration": 0.33430212499999357,
            "durationTicks": 460,
            "midi": 58,
            "name": "A#3",
            "ticks": 194400,
            "time": 141.278985,
            "velocity": 0.6299212598425197
          },
          {
            "duration": 0.3197672500000124,
            "durationTicks": 440,
            "midi": 61,
            "name": "C#4",
            "ticks": 194400,
            "time": 141.278985,
            "velocity": 0.6299212598425197
          },
          {
            "duration": 1.046510999999981,
            "durationTicks": 1440,
            "midi": 54,
            "name": "F#3",
            "ticks": 194880,
            "time": 141.627822,
            "velocity": 0.6299212598425197
          },
          {
            "duration": 1.0174412499999903,
            "durationTicks": 1400,
            "midi": 61,
            "name": "C#4",
            "ticks": 194880,
            "time": 141.627822,
            "velocity": 0.6299212598425197
          },
          {
            "duration": 0.6686042499999871,
            "durationTicks": 920,
            "midi": 63,
            "name": "D#4",
            "ticks": 194880,
            "time": 141.627822,
            "velocity": 0.6299212598425197
          },
          {
            "duration": 0.34883699999997475,
            "durationTicks": 480,
            "midi": 54,
            "name": "F#3",
            "ticks": 195840,
            "time": 142.32549600000002,
            "velocity": 0.6299212598425197
          },
          {
            "duration": 0.33430212499999357,
            "durationTicks": 460,
            "midi": 58,
            "name": "A#3",
            "ticks": 195840,
            "time": 142.32549600000002,
            "velocity": 0.6299212598425197
          },
          {
            "duration": 0.33430212499999357,
            "durationTicks": 460,
            "midi": 61,
            "name": "C#4",
            "ticks": 195840,
            "time": 142.32549600000002,
            "velocity": 0.6299212598425197
          },
          {
            "duration": 0.3488370000000032,
            "durationTicks": 480,
            "midi": 54,
            "name": "F#3",
            "ticks": 196320,
            "time": 142.674333,
            "velocity": 0.6299212598425197
          },
          {
            "duration": 0.33430212499999357,
            "durationTicks": 460,
            "midi": 58,
            "name": "A#3",
            "ticks": 196320,
            "time": 142.674333,
            "velocity": 0.6299212598425197
          },
          {
            "duration": 0.3197672500000124,
            "durationTicks": 440,
            "midi": 61,
            "name": "C#4",
            "ticks": 196320,
            "time": 142.674333,
            "velocity": 0.6299212598425197
          },
          {
            "duration": 0.6976740000000063,
            "durationTicks": 960,
            "midi": 54,
            "name": "F#3",
            "ticks": 196800,
            "time": 143.02317,
            "velocity": 0.6299212598425197
          },
          {
            "duration": 0.6831391249999967,
            "durationTicks": 940,
            "midi": 61,
            "name": "C#4",
            "ticks": 196800,
            "time": 143.02317,
            "velocity": 0.6299212598425197
          },
          {
            "duration": 0.6686042500000156,
            "durationTicks": 920,
            "midi": 63,
            "name": "D#4",
            "ticks": 196800,
            "time": 143.02317,
            "velocity": 0.6299212598425197
          },
          {
            "duration": 0.3488370000000032,
            "durationTicks": 480,
            "midi": 54,
            "name": "F#3",
            "ticks": 197760,
            "time": 143.720844,
            "velocity": 0.6299212598425197
          },
          {
            "duration": 0.33430212499999357,
            "durationTicks": 460,
            "midi": 58,
            "name": "A#3",
            "ticks": 197760,
            "time": 143.720844,
            "velocity": 0.6299212598425197
          },
          {
            "duration": 0.3197672500000124,
            "durationTicks": 440,
            "midi": 61,
            "name": "C#4",
            "ticks": 197760,
            "time": 143.720844,
            "velocity": 0.6299212598425197
          },
          {
            "duration": 0.3488370000000032,
            "durationTicks": 480,
            "midi": 54,
            "name": "F#3",
            "ticks": 198240,
            "time": 144.069681,
            "velocity": 0.6299212598425197
          },
          {
            "duration": 0.33430212499999357,
            "durationTicks": 460,
            "midi": 58,
            "name": "A#3",
            "ticks": 198240,
            "time": 144.069681,
            "velocity": 0.6299212598425197
          },
          {
            "duration": 0.3197672500000124,
            "durationTicks": 440,
            "midi": 61,
            "name": "C#4",
            "ticks": 198240,
            "time": 144.069681,
            "velocity": 0.6299212598425197
          },
          {
            "duration": 0.6976740000000063,
            "durationTicks": 960,
            "midi": 54,
            "name": "F#3",
            "ticks": 198720,
            "time": 144.418518,
            "velocity": 0.6299212598425197
          },
          {
            "duration": 0.6831391249999967,
            "durationTicks": 940,
            "midi": 61,
            "name": "C#4",
            "ticks": 198720,
            "time": 144.418518,
            "velocity": 0.6299212598425197
          },
          {
            "duration": 0.6686042500000156,
            "durationTicks": 920,
            "midi": 63,
            "name": "D#4",
            "ticks": 198720,
            "time": 144.418518,
            "velocity": 0.6299212598425197
          },
          {
            "duration": 0.3488370000000032,
            "durationTicks": 480,
            "midi": 54,
            "name": "F#3",
            "ticks": 199680,
            "time": 145.116192,
            "velocity": 0.6299212598425197
          },
          {
            "duration": 0.33430212499999357,
            "durationTicks": 460,
            "midi": 58,
            "name": "A#3",
            "ticks": 199680,
            "time": 145.116192,
            "velocity": 0.6299212598425197
          },
          {
            "duration": 0.31976724999998396,
            "durationTicks": 440,
            "midi": 61,
            "name": "C#4",
            "ticks": 199680,
            "time": 145.116192,
            "velocity": 0.6299212598425197
          },
          {
            "duration": 0.34883699999997475,
            "durationTicks": 480,
            "midi": 54,
            "name": "F#3",
            "ticks": 200160,
            "time": 145.46502900000002,
            "velocity": 0.6299212598425197
          },
          {
            "duration": 0.33430212499999357,
            "durationTicks": 460,
            "midi": 58,
            "name": "A#3",
            "ticks": 200160,
            "time": 145.46502900000002,
            "velocity": 0.6299212598425197
          },
          {
            "duration": 0.31976724999998396,
            "durationTicks": 440,
            "midi": 61,
            "name": "C#4",
            "ticks": 200160,
            "time": 145.46502900000002,
            "velocity": 0.6299212598425197
          },
          {
            "duration": 0.6976740000000063,
            "durationTicks": 960,
            "midi": 54,
            "name": "F#3",
            "ticks": 200640,
            "time": 145.813866,
            "velocity": 0.6299212598425197
          },
          {
            "duration": 0.6831391249999967,
            "durationTicks": 940,
            "midi": 61,
            "name": "C#4",
            "ticks": 200640,
            "time": 145.813866,
            "velocity": 0.6299212598425197
          },
          {
            "duration": 0.6686042500000156,
            "durationTicks": 920,
            "midi": 63,
            "name": "D#4",
            "ticks": 200640,
            "time": 145.813866,
            "velocity": 0.6299212598425197
          },
          {
            "duration": 0.7412786250000067,
            "durationTicks": 1020,
            "midi": 52,
            "name": "E3",
            "ticks": 201600,
            "time": 146.51154,
            "velocity": 0.6299212598425197
          },
          {
            "duration": 0.6831391249999967,
            "durationTicks": 940,
            "midi": 59,
            "name": "B3",
            "ticks": 201600,
            "time": 146.51154,
            "velocity": 0.6299212598425197
          },
          {
            "duration": 0.6686042500000156,
            "durationTicks": 920,
            "midi": 63,
            "name": "D#4",
            "ticks": 201600,
            "time": 146.51154,
            "velocity": 0.6299212598425197
          },
          {
            "duration": 0.39244162500000357,
            "durationTicks": 540,
            "midi": 52,
            "name": "E3",
            "ticks": 202560,
            "time": 147.209214,
            "velocity": 0.6299212598425197
          },
          {
            "duration": 0.33430212499999357,
            "durationTicks": 460,
            "midi": 59,
            "name": "B3",
            "ticks": 202560,
            "time": 147.209214,
            "velocity": 0.6299212598425197
          },
          {
            "duration": 0.3197672500000124,
            "durationTicks": 440,
            "midi": 63,
            "name": "D#4",
            "ticks": 202560,
            "time": 147.209214,
            "velocity": 0.6299212598425197
          },
          {
            "duration": 0.3488370000000032,
            "durationTicks": 480,
            "midi": 52,
            "name": "E3",
            "ticks": 203040,
            "time": 147.558051,
            "velocity": 0.6299212598425197
          },
          {
            "duration": 0.33430212499999357,
            "durationTicks": 460,
            "midi": 59,
            "name": "B3",
            "ticks": 203040,
            "time": 147.558051,
            "velocity": 0.6299212598425197
          },
          {
            "duration": 0.3197672500000124,
            "durationTicks": 440,
            "midi": 63,
            "name": "D#4",
            "ticks": 203040,
            "time": 147.558051,
            "velocity": 0.6299212598425197
          },
          {
            "duration": 0.7412786250000067,
            "durationTicks": 1020,
            "midi": 52,
            "name": "E3",
            "ticks": 203520,
            "time": 147.906888,
            "velocity": 0.6299212598425197
          },
          {
            "duration": 0.6831391249999967,
            "durationTicks": 940,
            "midi": 59,
            "name": "B3",
            "ticks": 203520,
            "time": 147.906888,
            "velocity": 0.6299212598425197
          },
          {
            "duration": 0.6686042499999871,
            "durationTicks": 920,
            "midi": 63,
            "name": "D#4",
            "ticks": 203520,
            "time": 147.906888,
            "velocity": 0.6299212598425197
          },
          {
            "duration": 0.39244162499997515,
            "durationTicks": 540,
            "midi": 52,
            "name": "E3",
            "ticks": 204480,
            "time": 148.60456200000002,
            "velocity": 0.6299212598425197
          },
          {
            "duration": 0.33430212499999357,
            "durationTicks": 460,
            "midi": 59,
            "name": "B3",
            "ticks": 204480,
            "time": 148.60456200000002,
            "velocity": 0.6299212598425197
          },
          {
            "duration": 0.31976724999998396,
            "durationTicks": 440,
            "midi": 63,
            "name": "D#4",
            "ticks": 204480,
            "time": 148.60456200000002,
            "velocity": 0.6299212598425197
          },
          {
            "duration": 0.3488370000000032,
            "durationTicks": 480,
            "midi": 52,
            "name": "E3",
            "ticks": 204960,
            "time": 148.953399,
            "velocity": 0.6299212598425197
          },
          {
            "duration": 0.33430212499999357,
            "durationTicks": 460,
            "midi": 59,
            "name": "B3",
            "ticks": 204960,
            "time": 148.953399,
            "velocity": 0.6299212598425197
          },
          {
            "duration": 0.3197672500000124,
            "durationTicks": 440,
            "midi": 63,
            "name": "D#4",
            "ticks": 204960,
            "time": 148.953399,
            "velocity": 0.6299212598425197
          },
          {
            "duration": 0.7412786250000067,
            "durationTicks": 1020,
            "midi": 52,
            "name": "E3",
            "ticks": 205440,
            "time": 149.302236,
            "velocity": 0.6299212598425197
          },
          {
            "duration": 0.6831391249999967,
            "durationTicks": 940,
            "midi": 59,
            "name": "B3",
            "ticks": 205440,
            "time": 149.302236,
            "velocity": 0.6299212598425197
          },
          {
            "duration": 0.6686042500000156,
            "durationTicks": 920,
            "midi": 63,
            "name": "D#4",
            "ticks": 205440,
            "time": 149.302236,
            "velocity": 0.6299212598425197
          },
          {
            "duration": 0.39244162500000357,
            "durationTicks": 540,
            "midi": 52,
            "name": "E3",
            "ticks": 206400,
            "time": 149.99991,
            "velocity": 0.6299212598425197
          },
          {
            "duration": 0.33430212499999357,
            "durationTicks": 460,
            "midi": 59,
            "name": "B3",
            "ticks": 206400,
            "time": 149.99991,
            "velocity": 0.6299212598425197
          },
          {
            "duration": 0.3197672500000124,
            "durationTicks": 440,
            "midi": 63,
            "name": "D#4",
            "ticks": 206400,
            "time": 149.99991,
            "velocity": 0.6299212598425197
          },
          {
            "duration": 0.3488370000000032,
            "durationTicks": 480,
            "midi": 52,
            "name": "E3",
            "ticks": 206880,
            "time": 150.348747,
            "velocity": 0.6299212598425197
          },
          {
            "duration": 0.33430212499999357,
            "durationTicks": 460,
            "midi": 59,
            "name": "B3",
            "ticks": 206880,
            "time": 150.348747,
            "velocity": 0.6299212598425197
          },
          {
            "duration": 0.3197672500000124,
            "durationTicks": 440,
            "midi": 63,
            "name": "D#4",
            "ticks": 206880,
            "time": 150.348747,
            "velocity": 0.6299212598425197
          },
          {
            "duration": 0.7412786250000067,
            "durationTicks": 1020,
            "midi": 52,
            "name": "E3",
            "ticks": 207360,
            "time": 150.697584,
            "velocity": 0.6299212598425197
          },
          {
            "duration": 0.6831391249999967,
            "durationTicks": 940,
            "midi": 59,
            "name": "B3",
            "ticks": 207360,
            "time": 150.697584,
            "velocity": 0.6299212598425197
          },
          {
            "duration": 0.6686042500000156,
            "durationTicks": 920,
            "midi": 63,
            "name": "D#4",
            "ticks": 207360,
            "time": 150.697584,
            "velocity": 0.6299212598425197
          },
          {
            "duration": 0.39244162500000357,
            "durationTicks": 540,
            "midi": 52,
            "name": "E3",
            "ticks": 208320,
            "time": 151.395258,
            "velocity": 0.6299212598425197
          },
          {
            "duration": 0.33430212499999357,
            "durationTicks": 460,
            "midi": 59,
            "name": "B3",
            "ticks": 208320,
            "time": 151.395258,
            "velocity": 0.6299212598425197
          },
          {
            "duration": 0.31976724999998396,
            "durationTicks": 440,
            "midi": 63,
            "name": "D#4",
            "ticks": 208320,
            "time": 151.395258,
            "velocity": 0.6299212598425197
          },
          {
            "duration": 0.34883699999997475,
            "durationTicks": 480,
            "midi": 52,
            "name": "E3",
            "ticks": 208800,
            "time": 151.74409500000002,
            "velocity": 0.6299212598425197
          },
          {
            "duration": 0.33430212499999357,
            "durationTicks": 460,
            "midi": 59,
            "name": "B3",
            "ticks": 208800,
            "time": 151.74409500000002,
            "velocity": 0.6299212598425197
          },
          {
            "duration": 0.31976724999998396,
            "durationTicks": 440,
            "midi": 63,
            "name": "D#4",
            "ticks": 208800,
            "time": 151.74409500000002,
            "velocity": 0.6299212598425197
          },
          {
            "duration": 0.3488370000000032,
            "durationTicks": 480,
            "midi": 54,
            "name": "F#3",
            "ticks": 209280,
            "time": 152.092932,
            "velocity": 0.6299212598425197
          },
          {
            "duration": 0.33430212499999357,
            "durationTicks": 460,
            "midi": 59,
            "name": "B3",
            "ticks": 209280,
            "time": 152.092932,
            "velocity": 0.6299212598425197
          },
          {
            "duration": 0.3197672500000124,
            "durationTicks": 440,
            "midi": 63,
            "name": "D#4",
            "ticks": 209280,
            "time": 152.092932,
            "velocity": 0.6299212598425197
          },
          {
            "duration": 0.3488370000000032,
            "durationTicks": 480,
            "midi": 54,
            "name": "F#3",
            "ticks": 209760,
            "time": 152.441769,
            "velocity": 0.6299212598425197
          },
          {
            "duration": 0.33430212499999357,
            "durationTicks": 460,
            "midi": 59,
            "name": "B3",
            "ticks": 209760,
            "time": 152.441769,
            "velocity": 0.6299212598425197
          },
          {
            "duration": 0.3197672500000124,
            "durationTicks": 440,
            "midi": 63,
            "name": "D#4",
            "ticks": 209760,
            "time": 152.441769,
            "velocity": 0.6299212598425197
          },
          {
            "duration": 0.6976740000000063,
            "durationTicks": 960,
            "midi": 59,
            "name": "B3",
            "ticks": 210240,
            "time": 152.790606,
            "velocity": 0.6299212598425197
          },
          {
            "duration": 0.6831391249999967,
            "durationTicks": 940,
            "midi": 63,
            "name": "D#4",
            "ticks": 210240,
            "time": 152.790606,
            "velocity": 0.6299212598425197
          },
          {
            "duration": 0.6686042500000156,
            "durationTicks": 920,
            "midi": 66,
            "name": "F#4",
            "ticks": 210240,
            "time": 152.790606,
            "velocity": 0.6299212598425197
          },
          {
            "duration": 0.3488370000000032,
            "durationTicks": 480,
            "midi": 54,
            "name": "F#3",
            "ticks": 211200,
            "time": 153.48828,
            "velocity": 0.6299212598425197
          },
          {
            "duration": 0.33430212499999357,
            "durationTicks": 460,
            "midi": 59,
            "name": "B3",
            "ticks": 211200,
            "time": 153.48828,
            "velocity": 0.6299212598425197
          },
          {
            "duration": 0.3197672500000124,
            "durationTicks": 440,
            "midi": 63,
            "name": "D#4",
            "ticks": 211200,
            "time": 153.48828,
            "velocity": 0.6299212598425197
          },
          {
            "duration": 0.3488370000000032,
            "durationTicks": 480,
            "midi": 54,
            "name": "F#3",
            "ticks": 211680,
            "time": 153.837117,
            "velocity": 0.6299212598425197
          },
          {
            "duration": 0.33430212499999357,
            "durationTicks": 460,
            "midi": 59,
            "name": "B3",
            "ticks": 211680,
            "time": 153.837117,
            "velocity": 0.6299212598425197
          },
          {
            "duration": 0.3197672500000124,
            "durationTicks": 440,
            "midi": 63,
            "name": "D#4",
            "ticks": 211680,
            "time": 153.837117,
            "velocity": 0.6299212598425197
          },
          {
            "duration": 0.6976740000000063,
            "durationTicks": 960,
            "midi": 54,
            "name": "F#3",
            "ticks": 212160,
            "time": 154.185954,
            "velocity": 0.6299212598425197
          },
          {
            "duration": 0.6831391249999967,
            "durationTicks": 940,
            "midi": 59,
            "name": "B3",
            "ticks": 212160,
            "time": 154.185954,
            "velocity": 0.6299212598425197
          },
          {
            "duration": 0.6686042499999871,
            "durationTicks": 920,
            "midi": 63,
            "name": "D#4",
            "ticks": 212160,
            "time": 154.185954,
            "velocity": 0.6299212598425197
          },
          {
            "duration": 0.34883699999997475,
            "durationTicks": 480,
            "midi": 54,
            "name": "F#3",
            "ticks": 213120,
            "time": 154.88362800000002,
            "velocity": 0.6299212598425197
          },
          {
            "duration": 0.33430212499999357,
            "durationTicks": 460,
            "midi": 59,
            "name": "B3",
            "ticks": 213120,
            "time": 154.88362800000002,
            "velocity": 0.6299212598425197
          },
          {
            "duration": 0.31976724999998396,
            "durationTicks": 440,
            "midi": 63,
            "name": "D#4",
            "ticks": 213120,
            "time": 154.88362800000002,
            "velocity": 0.6299212598425197
          },
          {
            "duration": 0.3488370000000032,
            "durationTicks": 480,
            "midi": 54,
            "name": "F#3",
            "ticks": 213600,
            "time": 155.232465,
            "velocity": 0.6299212598425197
          },
          {
            "duration": 0.33430212499999357,
            "durationTicks": 460,
            "midi": 59,
            "name": "B3",
            "ticks": 213600,
            "time": 155.232465,
            "velocity": 0.6299212598425197
          },
          {
            "duration": 0.3197672500000124,
            "durationTicks": 440,
            "midi": 63,
            "name": "D#4",
            "ticks": 213600,
            "time": 155.232465,
            "velocity": 0.6299212598425197
          },
          {
            "duration": 0.6976740000000063,
            "durationTicks": 960,
            "midi": 59,
            "name": "B3",
            "ticks": 214080,
            "time": 155.581302,
            "velocity": 0.6299212598425197
          },
          {
            "duration": 0.6831391249999967,
            "durationTicks": 940,
            "midi": 63,
            "name": "D#4",
            "ticks": 214080,
            "time": 155.581302,
            "velocity": 0.6299212598425197
          },
          {
            "duration": 0.6686042500000156,
            "durationTicks": 920,
            "midi": 66,
            "name": "F#4",
            "ticks": 214080,
            "time": 155.581302,
            "velocity": 0.6299212598425197
          },
          {
            "duration": 0.3488370000000032,
            "durationTicks": 480,
            "midi": 54,
            "name": "F#3",
            "ticks": 215040,
            "time": 156.278976,
            "velocity": 0.6299212598425197
          },
          {
            "duration": 0.33430212499999357,
            "durationTicks": 460,
            "midi": 59,
            "name": "B3",
            "ticks": 215040,
            "time": 156.278976,
            "velocity": 0.6299212598425197
          },
          {
            "duration": 0.3197672500000124,
            "durationTicks": 440,
            "midi": 63,
            "name": "D#4",
            "ticks": 215040,
            "time": 156.278976,
            "velocity": 0.6299212598425197
          },
          {
            "duration": 0.3488370000000032,
            "durationTicks": 480,
            "midi": 54,
            "name": "F#3",
            "ticks": 215520,
            "time": 156.627813,
            "velocity": 0.6299212598425197
          },
          {
            "duration": 0.33430212499999357,
            "durationTicks": 460,
            "midi": 59,
            "name": "B3",
            "ticks": 215520,
            "time": 156.627813,
            "velocity": 0.6299212598425197
          },
          {
            "duration": 0.3197672500000124,
            "durationTicks": 440,
            "midi": 63,
            "name": "D#4",
            "ticks": 215520,
            "time": 156.627813,
            "velocity": 0.6299212598425197
          },
          {
            "duration": 0.6976740000000063,
            "durationTicks": 960,
            "midi": 54,
            "name": "F#3",
            "ticks": 216000,
            "time": 156.97665,
            "velocity": 0.6299212598425197
          },
          {
            "duration": 0.6831391249999967,
            "durationTicks": 940,
            "midi": 59,
            "name": "B3",
            "ticks": 216000,
            "time": 156.97665,
            "velocity": 0.6299212598425197
          },
          {
            "duration": 0.6686042500000156,
            "durationTicks": 920,
            "midi": 63,
            "name": "D#4",
            "ticks": 216000,
            "time": 156.97665,
            "velocity": 0.6299212598425197
          },
          {
            "duration": 0.3488370000000032,
            "durationTicks": 480,
            "midi": 54,
            "name": "F#3",
            "ticks": 216960,
            "time": 157.674324,
            "velocity": 0.6299212598425197
          },
          {
            "duration": 0.33430212499999357,
            "durationTicks": 460,
            "midi": 58,
            "name": "A#3",
            "ticks": 216960,
            "time": 157.674324,
            "velocity": 0.6299212598425197
          },
          {
            "duration": 0.31976724999998396,
            "durationTicks": 440,
            "midi": 61,
            "name": "C#4",
            "ticks": 216960,
            "time": 157.674324,
            "velocity": 0.6299212598425197
          },
          {
            "duration": 0.34883699999997475,
            "durationTicks": 480,
            "midi": 54,
            "name": "F#3",
            "ticks": 217440,
            "time": 158.02316100000002,
            "velocity": 0.6299212598425197
          },
          {
            "duration": 0.33430212499999357,
            "durationTicks": 460,
            "midi": 58,
            "name": "A#3",
            "ticks": 217440,
            "time": 158.02316100000002,
            "velocity": 0.6299212598425197
          },
          {
            "duration": 0.31976724999998396,
            "durationTicks": 440,
            "midi": 61,
            "name": "C#4",
            "ticks": 217440,
            "time": 158.02316100000002,
            "velocity": 0.6299212598425197
          },
          {
            "duration": 1.0465110000000095,
            "durationTicks": 1440,
            "midi": 54,
            "name": "F#3",
            "ticks": 217920,
            "time": 158.371998,
            "velocity": 0.6299212598425197
          },
          {
            "duration": 1.0174412500000187,
            "durationTicks": 1400,
            "midi": 61,
            "name": "C#4",
            "ticks": 217920,
            "time": 158.371998,
            "velocity": 0.6299212598425197
          },
          {
            "duration": 0.6686042500000156,
            "durationTicks": 920,
            "midi": 63,
            "name": "D#4",
            "ticks": 217920,
            "time": 158.371998,
            "velocity": 0.6299212598425197
          },
          {
            "duration": 0.3488370000000032,
            "durationTicks": 480,
            "midi": 54,
            "name": "F#3",
            "ticks": 218880,
            "time": 159.069672,
            "velocity": 0.6299212598425197
          },
          {
            "duration": 0.33430212499999357,
            "durationTicks": 460,
            "midi": 58,
            "name": "A#3",
            "ticks": 218880,
            "time": 159.069672,
            "velocity": 0.6299212598425197
          },
          {
            "duration": 0.33430212499999357,
            "durationTicks": 460,
            "midi": 61,
            "name": "C#4",
            "ticks": 218880,
            "time": 159.069672,
            "velocity": 0.6299212598425197
          },
          {
            "duration": 0.3488370000000032,
            "durationTicks": 480,
            "midi": 54,
            "name": "F#3",
            "ticks": 219360,
            "time": 159.418509,
            "velocity": 0.6299212598425197
          },
          {
            "duration": 0.33430212499999357,
            "durationTicks": 460,
            "midi": 58,
            "name": "A#3",
            "ticks": 219360,
            "time": 159.418509,
            "velocity": 0.6299212598425197
          },
          {
            "duration": 0.3197672500000124,
            "durationTicks": 440,
            "midi": 61,
            "name": "C#4",
            "ticks": 219360,
            "time": 159.418509,
            "velocity": 0.6299212598425197
          },
          {
            "duration": 0.6976740000000063,
            "durationTicks": 960,
            "midi": 54,
            "name": "F#3",
            "ticks": 219840,
            "time": 159.767346,
            "velocity": 0.6299212598425197
          },
          {
            "duration": 0.6831391249999967,
            "durationTicks": 940,
            "midi": 61,
            "name": "C#4",
            "ticks": 219840,
            "time": 159.767346,
            "velocity": 0.6299212598425197
          },
          {
            "duration": 0.6686042500000156,
            "durationTicks": 920,
            "midi": 63,
            "name": "D#4",
            "ticks": 219840,
            "time": 159.767346,
            "velocity": 0.6299212598425197
          },
          {
            "duration": 0.3488370000000032,
            "durationTicks": 480,
            "midi": 54,
            "name": "F#3",
            "ticks": 220800,
            "time": 160.46502,
            "velocity": 0.6299212598425197
          },
          {
            "duration": 0.33430212499999357,
            "durationTicks": 460,
            "midi": 58,
            "name": "A#3",
            "ticks": 220800,
            "time": 160.46502,
            "velocity": 0.6299212598425197
          },
          {
            "duration": 0.3197672500000124,
            "durationTicks": 440,
            "midi": 61,
            "name": "C#4",
            "ticks": 220800,
            "time": 160.46502,
            "velocity": 0.6299212598425197
          },
          {
            "duration": 0.3488370000000032,
            "durationTicks": 480,
            "midi": 54,
            "name": "F#3",
            "ticks": 221280,
            "time": 160.813857,
            "velocity": 0.6299212598425197
          },
          {
            "duration": 0.33430212499999357,
            "durationTicks": 460,
            "midi": 58,
            "name": "A#3",
            "ticks": 221280,
            "time": 160.813857,
            "velocity": 0.6299212598425197
          },
          {
            "duration": 0.31976724999998396,
            "durationTicks": 440,
            "midi": 61,
            "name": "C#4",
            "ticks": 221280,
            "time": 160.813857,
            "velocity": 0.6299212598425197
          },
          {
            "duration": 0.6976739999999779,
            "durationTicks": 960,
            "midi": 54,
            "name": "F#3",
            "ticks": 221760,
            "time": 161.16269400000002,
            "velocity": 0.6299212598425197
          },
          {
            "duration": 0.6831391249999683,
            "durationTicks": 940,
            "midi": 61,
            "name": "C#4",
            "ticks": 221760,
            "time": 161.16269400000002,
            "velocity": 0.6299212598425197
          },
          {
            "duration": 0.6686042499999871,
            "durationTicks": 920,
            "midi": 63,
            "name": "D#4",
            "ticks": 221760,
            "time": 161.16269400000002,
            "velocity": 0.6299212598425197
          },
          {
            "duration": 0.3488370000000032,
            "durationTicks": 480,
            "midi": 54,
            "name": "F#3",
            "ticks": 222720,
            "time": 161.860368,
            "velocity": 0.6299212598425197
          },
          {
            "duration": 0.33430212499999357,
            "durationTicks": 460,
            "midi": 58,
            "name": "A#3",
            "ticks": 222720,
            "time": 161.860368,
            "velocity": 0.6299212598425197
          },
          {
            "duration": 0.3197672500000124,
            "durationTicks": 440,
            "midi": 61,
            "name": "C#4",
            "ticks": 222720,
            "time": 161.860368,
            "velocity": 0.6299212598425197
          },
          {
            "duration": 0.3488370000000032,
            "durationTicks": 480,
            "midi": 54,
            "name": "F#3",
            "ticks": 223200,
            "time": 162.209205,
            "velocity": 0.6299212598425197
          },
          {
            "duration": 0.33430212499999357,
            "durationTicks": 460,
            "midi": 58,
            "name": "A#3",
            "ticks": 223200,
            "time": 162.209205,
            "velocity": 0.6299212598425197
          },
          {
            "duration": 0.3197672500000124,
            "durationTicks": 440,
            "midi": 61,
            "name": "C#4",
            "ticks": 223200,
            "time": 162.209205,
            "velocity": 0.6299212598425197
          },
          {
            "duration": 0.6976740000000063,
            "durationTicks": 960,
            "midi": 54,
            "name": "F#3",
            "ticks": 223680,
            "time": 162.558042,
            "velocity": 0.6299212598425197
          },
          {
            "duration": 0.6831391249999967,
            "durationTicks": 940,
            "midi": 61,
            "name": "C#4",
            "ticks": 223680,
            "time": 162.558042,
            "velocity": 0.6299212598425197
          },
          {
            "duration": 0.6686042500000156,
            "durationTicks": 920,
            "midi": 63,
            "name": "D#4",
            "ticks": 223680,
            "time": 162.558042,
            "velocity": 0.6299212598425197
          },
          {
            "duration": 0.7412786250000067,
            "durationTicks": 1020,
            "midi": 52,
            "name": "E3",
            "ticks": 224640,
            "time": 163.255716,
            "velocity": 0.6299212598425197
          },
          {
            "duration": 0.6831391249999967,
            "durationTicks": 940,
            "midi": 59,
            "name": "B3",
            "ticks": 224640,
            "time": 163.255716,
            "velocity": 0.6299212598425197
          },
          {
            "duration": 0.6686042500000156,
            "durationTicks": 920,
            "midi": 63,
            "name": "D#4",
            "ticks": 224640,
            "time": 163.255716,
            "velocity": 0.6299212598425197
          },
          {
            "duration": 0.39244162500000357,
            "durationTicks": 540,
            "midi": 52,
            "name": "E3",
            "ticks": 225600,
            "time": 163.95339,
            "velocity": 0.6299212598425197
          },
          {
            "duration": 0.33430212499999357,
            "durationTicks": 460,
            "midi": 59,
            "name": "B3",
            "ticks": 225600,
            "time": 163.95339,
            "velocity": 0.6299212598425197
          },
          {
            "duration": 0.31976724999998396,
            "durationTicks": 440,
            "midi": 63,
            "name": "D#4",
            "ticks": 225600,
            "time": 163.95339,
            "velocity": 0.6299212598425197
          },
          {
            "duration": 0.34883699999997475,
            "durationTicks": 480,
            "midi": 52,
            "name": "E3",
            "ticks": 226080,
            "time": 164.30222700000002,
            "velocity": 0.6299212598425197
          },
          {
            "duration": 0.33430212499999357,
            "durationTicks": 460,
            "midi": 59,
            "name": "B3",
            "ticks": 226080,
            "time": 164.30222700000002,
            "velocity": 0.6299212598425197
          },
          {
            "duration": 0.31976724999998396,
            "durationTicks": 440,
            "midi": 63,
            "name": "D#4",
            "ticks": 226080,
            "time": 164.30222700000002,
            "velocity": 0.6299212598425197
          },
          {
            "duration": 0.7412786250000067,
            "durationTicks": 1020,
            "midi": 52,
            "name": "E3",
            "ticks": 226560,
            "time": 164.651064,
            "velocity": 0.6299212598425197
          },
          {
            "duration": 0.6831391249999967,
            "durationTicks": 940,
            "midi": 59,
            "name": "B3",
            "ticks": 226560,
            "time": 164.651064,
            "velocity": 0.6299212598425197
          },
          {
            "duration": 0.6686042500000156,
            "durationTicks": 920,
            "midi": 63,
            "name": "D#4",
            "ticks": 226560,
            "time": 164.651064,
            "velocity": 0.6299212598425197
          },
          {
            "duration": 0.39244162500000357,
            "durationTicks": 540,
            "midi": 52,
            "name": "E3",
            "ticks": 227520,
            "time": 165.348738,
            "velocity": 0.6299212598425197
          },
          {
            "duration": 0.33430212499999357,
            "durationTicks": 460,
            "midi": 59,
            "name": "B3",
            "ticks": 227520,
            "time": 165.348738,
            "velocity": 0.6299212598425197
          },
          {
            "duration": 0.3197672500000124,
            "durationTicks": 440,
            "midi": 63,
            "name": "D#4",
            "ticks": 227520,
            "time": 165.348738,
            "velocity": 0.6299212598425197
          },
          {
            "duration": 0.3488370000000032,
            "durationTicks": 480,
            "midi": 52,
            "name": "E3",
            "ticks": 228000,
            "time": 165.697575,
            "velocity": 0.6299212598425197
          },
          {
            "duration": 0.33430212499999357,
            "durationTicks": 460,
            "midi": 59,
            "name": "B3",
            "ticks": 228000,
            "time": 165.697575,
            "velocity": 0.6299212598425197
          },
          {
            "duration": 0.3197672500000124,
            "durationTicks": 440,
            "midi": 63,
            "name": "D#4",
            "ticks": 228000,
            "time": 165.697575,
            "velocity": 0.6299212598425197
          },
          {
            "duration": 0.7412786250000067,
            "durationTicks": 1020,
            "midi": 52,
            "name": "E3",
            "ticks": 228480,
            "time": 166.046412,
            "velocity": 0.6299212598425197
          },
          {
            "duration": 0.6831391249999967,
            "durationTicks": 940,
            "midi": 59,
            "name": "B3",
            "ticks": 228480,
            "time": 166.046412,
            "velocity": 0.6299212598425197
          },
          {
            "duration": 0.6686042500000156,
            "durationTicks": 920,
            "midi": 63,
            "name": "D#4",
            "ticks": 228480,
            "time": 166.046412,
            "velocity": 0.6299212598425197
          },
          {
            "duration": 0.39244162500000357,
            "durationTicks": 540,
            "midi": 52,
            "name": "E3",
            "ticks": 229440,
            "time": 166.744086,
            "velocity": 0.6299212598425197
          },
          {
            "duration": 0.33430212499999357,
            "durationTicks": 460,
            "midi": 59,
            "name": "B3",
            "ticks": 229440,
            "time": 166.744086,
            "velocity": 0.6299212598425197
          },
          {
            "duration": 0.3197672500000124,
            "durationTicks": 440,
            "midi": 63,
            "name": "D#4",
            "ticks": 229440,
            "time": 166.744086,
            "velocity": 0.6299212598425197
          },
          {
            "duration": 0.3488370000000032,
            "durationTicks": 480,
            "midi": 52,
            "name": "E3",
            "ticks": 229920,
            "time": 167.092923,
            "velocity": 0.6299212598425197
          },
          {
            "duration": 0.33430212499999357,
            "durationTicks": 460,
            "midi": 59,
            "name": "B3",
            "ticks": 229920,
            "time": 167.092923,
            "velocity": 0.6299212598425197
          },
          {
            "duration": 0.31976724999998396,
            "durationTicks": 440,
            "midi": 63,
            "name": "D#4",
            "ticks": 229920,
            "time": 167.092923,
            "velocity": 0.6299212598425197
          },
          {
            "duration": 0.7412786249999783,
            "durationTicks": 1020,
            "midi": 52,
            "name": "E3",
            "ticks": 230400,
            "time": 167.44176000000002,
            "velocity": 0.6299212598425197
          },
          {
            "duration": 0.6831391249999683,
            "durationTicks": 940,
            "midi": 59,
            "name": "B3",
            "ticks": 230400,
            "time": 167.44176000000002,
            "velocity": 0.6299212598425197
          },
          {
            "duration": 0.6686042499999871,
            "durationTicks": 920,
            "midi": 63,
            "name": "D#4",
            "ticks": 230400,
            "time": 167.44176000000002,
            "velocity": 0.6299212598425197
          },
          {
            "duration": 0.39244162500000357,
            "durationTicks": 540,
            "midi": 52,
            "name": "E3",
            "ticks": 231360,
            "time": 168.139434,
            "velocity": 0.6299212598425197
          },
          {
            "duration": 0.33430212499999357,
            "durationTicks": 460,
            "midi": 59,
            "name": "B3",
            "ticks": 231360,
            "time": 168.139434,
            "velocity": 0.6299212598425197
          },
          {
            "duration": 0.3197672500000124,
            "durationTicks": 440,
            "midi": 63,
            "name": "D#4",
            "ticks": 231360,
            "time": 168.139434,
            "velocity": 0.6299212598425197
          },
          {
            "duration": 0.3488370000000032,
            "durationTicks": 480,
            "midi": 52,
            "name": "E3",
            "ticks": 231840,
            "time": 168.488271,
            "velocity": 0.6299212598425197
          },
          {
            "duration": 0.33430212499999357,
            "durationTicks": 460,
            "midi": 59,
            "name": "B3",
            "ticks": 231840,
            "time": 168.488271,
            "velocity": 0.6299212598425197
          },
          {
            "duration": 0.3197672500000124,
            "durationTicks": 440,
            "midi": 63,
            "name": "D#4",
            "ticks": 231840,
            "time": 168.488271,
            "velocity": 0.6299212598425197
          },
          {
            "duration": 0.3488370000000032,
            "durationTicks": 480,
            "midi": 54,
            "name": "F#3",
            "ticks": 232320,
            "time": 168.837108,
            "velocity": 0.7322834645669292
          },
          {
            "duration": 0.33430212499999357,
            "durationTicks": 460,
            "midi": 59,
            "name": "B3",
            "ticks": 232320,
            "time": 168.837108,
            "velocity": 0.8110236220472441
          },
          {
            "duration": 0.3197672500000124,
            "durationTicks": 440,
            "midi": 63,
            "name": "D#4",
            "ticks": 232320,
            "time": 168.837108,
            "velocity": 0.7952755905511811
          },
          {
            "duration": 0.3488370000000032,
            "durationTicks": 480,
            "midi": 54,
            "name": "F#3",
            "ticks": 232800,
            "time": 169.185945,
            "velocity": 0.7480314960629921
          },
          {
            "duration": 0.33430212499999357,
            "durationTicks": 460,
            "midi": 59,
            "name": "B3",
            "ticks": 232800,
            "time": 169.185945,
            "velocity": 0.6929133858267716
          },
          {
            "duration": 0.3197672500000124,
            "durationTicks": 440,
            "midi": 63,
            "name": "D#4",
            "ticks": 232800,
            "time": 169.185945,
            "velocity": 0.6535433070866141
          },
          {
            "duration": 0.3488370000000032,
            "durationTicks": 480,
            "midi": 54,
            "name": "F#3",
            "ticks": 233280,
            "time": 169.534782,
            "velocity": 0.7480314960629921
          },
          {
            "duration": 0.33430212499999357,
            "durationTicks": 460,
            "midi": 59,
            "name": "B3",
            "ticks": 233280,
            "time": 169.534782,
            "velocity": 0.7952755905511811
          },
          {
            "duration": 0.3197672500000124,
            "durationTicks": 440,
            "midi": 63,
            "name": "D#4",
            "ticks": 233280,
            "time": 169.534782,
            "velocity": 0.8110236220472441
          },
          {
            "duration": 0.3488370000000032,
            "durationTicks": 480,
            "midi": 54,
            "name": "F#3",
            "ticks": 233760,
            "time": 169.883619,
            "velocity": 0.7480314960629921
          },
          {
            "duration": 0.33430212499999357,
            "durationTicks": 460,
            "midi": 59,
            "name": "B3",
            "ticks": 233760,
            "time": 169.883619,
            "velocity": 0.7952755905511811
          },
          {
            "duration": 0.3197672500000124,
            "durationTicks": 440,
            "midi": 63,
            "name": "D#4",
            "ticks": 233760,
            "time": 169.883619,
            "velocity": 0.8110236220472441
          },
          {
            "duration": 0.3488370000000032,
            "durationTicks": 480,
            "midi": 54,
            "name": "F#3",
            "ticks": 234240,
            "time": 170.232456,
            "velocity": 0.5511811023622047
          },
          {
            "duration": 0.33430212499999357,
            "durationTicks": 460,
            "midi": 59,
            "name": "B3",
            "ticks": 234240,
            "time": 170.232456,
            "velocity": 0.6377952755905512
          },
          {
            "duration": 0.31976724999998396,
            "durationTicks": 440,
            "midi": 63,
            "name": "D#4",
            "ticks": 234240,
            "time": 170.232456,
            "velocity": 0.6771653543307087
          },
          {
            "duration": 0.34883699999997475,
            "durationTicks": 480,
            "midi": 54,
            "name": "F#3",
            "ticks": 234720,
            "time": 170.58129300000002,
            "velocity": 0.6535433070866141
          },
          {
            "duration": 0.33430212499999357,
            "durationTicks": 460,
            "midi": 59,
            "name": "B3",
            "ticks": 234720,
            "time": 170.58129300000002,
            "velocity": 0.84251968503937
          },
          {
            "duration": 0.31976724999998396,
            "durationTicks": 440,
            "midi": 63,
            "name": "D#4",
            "ticks": 234720,
            "time": 170.58129300000002,
            "velocity": 0.8582677165354331
          },
          {
            "duration": 0.3488370000000032,
            "durationTicks": 480,
            "midi": 54,
            "name": "F#3",
            "ticks": 235200,
            "time": 170.93013,
            "velocity": 0.8267716535433071
          },
          {
            "duration": 0.33430212499999357,
            "durationTicks": 460,
            "midi": 59,
            "name": "B3",
            "ticks": 235200,
            "time": 170.93013,
            "velocity": 0.8740157480314961
          },
          {
            "duration": 0.3197672500000124,
            "durationTicks": 440,
            "midi": 63,
            "name": "D#4",
            "ticks": 235200,
            "time": 170.93013,
            "velocity": 0.8740157480314961
          },
          {
            "duration": 0.3488370000000032,
            "durationTicks": 480,
            "midi": 54,
            "name": "F#3",
            "ticks": 235680,
            "time": 171.278967,
            "velocity": 0.6771653543307087
          },
          {
            "duration": 0.33430212499999357,
            "durationTicks": 460,
            "midi": 59,
            "name": "B3",
            "ticks": 235680,
            "time": 171.278967,
            "velocity": 0.6535433070866141
          },
          {
            "duration": 0.3197672500000124,
            "durationTicks": 440,
            "midi": 63,
            "name": "D#4",
            "ticks": 235680,
            "time": 171.278967,
            "velocity": 0.6377952755905512
          },
          {
            "duration": 0.3488370000000032,
            "durationTicks": 480,
            "midi": 54,
            "name": "F#3",
            "ticks": 236160,
            "time": 171.627804,
            "velocity": 0.5511811023622047
          },
          {
            "duration": 0.33430212499999357,
            "durationTicks": 460,
            "midi": 59,
            "name": "B3",
            "ticks": 236160,
            "time": 171.627804,
            "velocity": 0.6377952755905512
          },
          {
            "duration": 0.3197672500000124,
            "durationTicks": 440,
            "midi": 64,
            "name": "E4",
            "ticks": 236160,
            "time": 171.627804,
            "velocity": 0.6771653543307087
          },
          {
            "duration": 0.3488370000000032,
            "durationTicks": 480,
            "midi": 54,
            "name": "F#3",
            "ticks": 236640,
            "time": 171.976641,
            "velocity": 0.6535433070866141
          },
          {
            "duration": 0.33430212499999357,
            "durationTicks": 460,
            "midi": 59,
            "name": "B3",
            "ticks": 236640,
            "time": 171.976641,
            "velocity": 0.84251968503937
          },
          {
            "duration": 0.3197672500000124,
            "durationTicks": 440,
            "midi": 64,
            "name": "E4",
            "ticks": 236640,
            "time": 171.976641,
            "velocity": 0.8582677165354331
          },
          {
            "duration": 0.3488370000000032,
            "durationTicks": 480,
            "midi": 54,
            "name": "F#3",
            "ticks": 237120,
            "time": 172.325478,
            "velocity": 0.8267716535433071
          },
          {
            "duration": 0.33430212499999357,
            "durationTicks": 460,
            "midi": 59,
            "name": "B3",
            "ticks": 237120,
            "time": 172.325478,
            "velocity": 0.8740157480314961
          },
          {
            "duration": 0.3197672500000124,
            "durationTicks": 440,
            "midi": 64,
            "name": "E4",
            "ticks": 237120,
            "time": 172.325478,
            "velocity": 0.8740157480314961
          },
          {
            "duration": 0.3488370000000032,
            "durationTicks": 480,
            "midi": 54,
            "name": "F#3",
            "ticks": 237600,
            "time": 172.674315,
            "velocity": 0.6771653543307087
          },
          {
            "duration": 0.33430212499999357,
            "durationTicks": 460,
            "midi": 59,
            "name": "B3",
            "ticks": 237600,
            "time": 172.674315,
            "velocity": 0.6535433070866141
          },
          {
            "duration": 0.3197672500000124,
            "durationTicks": 440,
            "midi": 64,
            "name": "E4",
            "ticks": 237600,
            "time": 172.674315,
            "velocity": 0.6377952755905512
          },
          {
            "duration": 0.3488370000000032,
            "durationTicks": 480,
            "midi": 54,
            "name": "F#3",
            "ticks": 238080,
            "time": 173.023152,
            "velocity": 0.5511811023622047
          },
          {
            "duration": 0.33430212499999357,
            "durationTicks": 460,
            "midi": 59,
            "name": "B3",
            "ticks": 238080,
            "time": 173.023152,
            "velocity": 0.6377952755905512
          },
          {
            "duration": 0.3197672500000124,
            "durationTicks": 440,
            "midi": 63,
            "name": "D#4",
            "ticks": 238080,
            "time": 173.023152,
            "velocity": 0.6771653543307087
          },
          {
            "duration": 0.3488370000000032,
            "durationTicks": 480,
            "midi": 54,
            "name": "F#3",
            "ticks": 238560,
            "time": 173.371989,
            "velocity": 0.6535433070866141
          },
          {
            "duration": 0.33430212499999357,
            "durationTicks": 460,
            "midi": 59,
            "name": "B3",
            "ticks": 238560,
            "time": 173.371989,
            "velocity": 0.84251968503937
          },
          {
            "duration": 0.31976724999998396,
            "durationTicks": 440,
            "midi": 63,
            "name": "D#4",
            "ticks": 238560,
            "time": 173.371989,
            "velocity": 0.8582677165354331
          },
          {
            "duration": 0.34883699999997475,
            "durationTicks": 480,
            "midi": 54,
            "name": "F#3",
            "ticks": 239040,
            "time": 173.72082600000002,
            "velocity": 0.8267716535433071
          },
          {
            "duration": 0.33430212499999357,
            "durationTicks": 460,
            "midi": 59,
            "name": "B3",
            "ticks": 239040,
            "time": 173.72082600000002,
            "velocity": 0.8740157480314961
          },
          {
            "duration": 0.31976724999998396,
            "durationTicks": 440,
            "midi": 63,
            "name": "D#4",
            "ticks": 239040,
            "time": 173.72082600000002,
            "velocity": 0.8740157480314961
          },
          {
            "duration": 0.3488370000000032,
            "durationTicks": 480,
            "midi": 54,
            "name": "F#3",
            "ticks": 239520,
            "time": 174.069663,
            "velocity": 0.6771653543307087
          },
          {
            "duration": 0.33430212499999357,
            "durationTicks": 460,
            "midi": 59,
            "name": "B3",
            "ticks": 239520,
            "time": 174.069663,
            "velocity": 0.6535433070866141
          },
          {
            "duration": 0.3197672500000124,
            "durationTicks": 440,
            "midi": 63,
            "name": "D#4",
            "ticks": 239520,
            "time": 174.069663,
            "velocity": 0.6377952755905512
          },
          {
            "duration": 0.3488370000000032,
            "durationTicks": 480,
            "midi": 52,
            "name": "E3",
            "ticks": 240000,
            "time": 174.4185,
            "velocity": 0.7480314960629921
          },
          {
            "duration": 0.33430212499999357,
            "durationTicks": 460,
            "midi": 56,
            "name": "G#3",
            "ticks": 240000,
            "time": 174.4185,
            "velocity": 0.6377952755905512
          },
          {
            "duration": 0.3197672500000124,
            "durationTicks": 440,
            "midi": 59,
            "name": "B3",
            "ticks": 240000,
            "time": 174.4185,
            "velocity": 0.8110236220472441
          },
          {
            "duration": 0.3488370000000032,
            "durationTicks": 480,
            "midi": 52,
            "name": "E3",
            "ticks": 240480,
            "time": 174.767337,
            "velocity": 0.7480314960629921
          },
          {
            "duration": 0.33430212499999357,
            "durationTicks": 460,
            "midi": 56,
            "name": "G#3",
            "ticks": 240480,
            "time": 174.767337,
            "velocity": 0.6377952755905512
          },
          {
            "duration": 0.3197672500000124,
            "durationTicks": 440,
            "midi": 59,
            "name": "B3",
            "ticks": 240480,
            "time": 174.767337,
            "velocity": 0.8110236220472441
          },
          {
            "duration": 0.6976740000000063,
            "durationTicks": 960,
            "midi": 52,
            "name": "E3",
            "ticks": 240960,
            "time": 175.116174,
            "velocity": 0.6535433070866141
          },
          {
            "duration": 0.6831391249999967,
            "durationTicks": 940,
            "midi": 59,
            "name": "B3",
            "ticks": 240960,
            "time": 175.116174,
            "velocity": 0.6377952755905512
          },
          {
            "duration": 0.6686042500000156,
            "durationTicks": 920,
            "midi": 63,
            "name": "D#4",
            "ticks": 240960,
            "time": 175.116174,
            "velocity": 0.7480314960629921
          },
          {
            "duration": 0.3488370000000032,
            "durationTicks": 480,
            "midi": 52,
            "name": "E3",
            "ticks": 241920,
            "time": 175.813848,
            "velocity": 0.7480314960629921
          },
          {
            "duration": 0.33430212499999357,
            "durationTicks": 460,
            "midi": 56,
            "name": "G#3",
            "ticks": 241920,
            "time": 175.813848,
            "velocity": 0.6377952755905512
          },
          {
            "duration": 0.3197672500000124,
            "durationTicks": 440,
            "midi": 59,
            "name": "B3",
            "ticks": 241920,
            "time": 175.813848,
            "velocity": 0.8110236220472441
          },
          {
            "duration": 0.3488370000000032,
            "durationTicks": 480,
            "midi": 52,
            "name": "E3",
            "ticks": 242400,
            "time": 176.162685,
            "velocity": 0.7480314960629921
          },
          {
            "duration": 0.33430212499999357,
            "durationTicks": 460,
            "midi": 56,
            "name": "G#3",
            "ticks": 242400,
            "time": 176.162685,
            "velocity": 0.6377952755905512
          },
          {
            "duration": 0.3197672500000124,
            "durationTicks": 440,
            "midi": 59,
            "name": "B3",
            "ticks": 242400,
            "time": 176.162685,
            "velocity": 0.8110236220472441
          },
          {
            "duration": 0.6976739999999779,
            "durationTicks": 960,
            "midi": 52,
            "name": "E3",
            "ticks": 242880,
            "time": 176.511522,
            "velocity": 0.6535433070866141
          },
          {
            "duration": 0.6831391249999967,
            "durationTicks": 940,
            "midi": 59,
            "name": "B3",
            "ticks": 242880,
            "time": 176.511522,
            "velocity": 0.6377952755905512
          },
          {
            "duration": 0.6686042499999871,
            "durationTicks": 920,
            "midi": 63,
            "name": "D#4",
            "ticks": 242880,
            "time": 176.511522,
            "velocity": 0.7480314960629921
          },
          {
            "duration": 0.3488370000000032,
            "durationTicks": 480,
            "midi": 56,
            "name": "G#3",
            "ticks": 243840,
            "time": 177.209196,
            "velocity": 0.7322834645669292
          },
          {
            "duration": 0.33430212499999357,
            "durationTicks": 460,
            "midi": 59,
            "name": "B3",
            "ticks": 243840,
            "time": 177.209196,
            "velocity": 0.7952755905511811
          },
          {
            "duration": 0.3197672500000124,
            "durationTicks": 440,
            "midi": 63,
            "name": "D#4",
            "ticks": 243840,
            "time": 177.209196,
            "velocity": 0.6377952755905512
          },
          {
            "duration": 0.3488370000000032,
            "durationTicks": 480,
            "midi": 56,
            "name": "G#3",
            "ticks": 244320,
            "time": 177.558033,
            "velocity": 0.6299212598425197
          },
          {
            "duration": 0.33430212499999357,
            "durationTicks": 460,
            "midi": 59,
            "name": "B3",
            "ticks": 244320,
            "time": 177.558033,
            "velocity": 0.7322834645669292
          },
          {
            "duration": 0.3197672500000124,
            "durationTicks": 440,
            "midi": 63,
            "name": "D#4",
            "ticks": 244320,
            "time": 177.558033,
            "velocity": 0.6929133858267716
          },
          {
            "duration": 0.6976740000000063,
            "durationTicks": 960,
            "midi": 56,
            "name": "G#3",
            "ticks": 244800,
            "time": 177.90687,
            "velocity": 0.7480314960629921
          },
          {
            "duration": 0.6831391249999967,
            "durationTicks": 940,
            "midi": 59,
            "name": "B3",
            "ticks": 244800,
            "time": 177.90687,
            "velocity": 0.6535433070866141
          },
          {
            "duration": 0.6686042500000156,
            "durationTicks": 920,
            "midi": 66,
            "name": "F#4",
            "ticks": 244800,
            "time": 177.90687,
            "velocity": 0.6771653543307087
          },
          {
            "duration": 0.3488370000000032,
            "durationTicks": 480,
            "midi": 54,
            "name": "F#3",
            "ticks": 245760,
            "time": 178.604544,
            "velocity": 0.6535433070866141
          },
          {
            "duration": 0.334302125000022,
            "durationTicks": 460,
            "midi": 58,
            "name": "A#3",
            "ticks": 245760,
            "time": 178.604544,
            "velocity": 0.7952755905511811
          },
          {
            "duration": 0.31976724999998396,
            "durationTicks": 440,
            "midi": 68,
            "name": "G#4",
            "ticks": 245760,
            "time": 178.604544,
            "velocity": 0.6929133858267716
          },
          {
            "duration": 0.3488370000000032,
            "durationTicks": 480,
            "midi": 54,
            "name": "F#3",
            "ticks": 246240,
            "time": 178.953381,
            "velocity": 0.5354330708661418
          },
          {
            "duration": 0.334302125000022,
            "durationTicks": 460,
            "midi": 58,
            "name": "A#3",
            "ticks": 246240,
            "time": 178.953381,
            "velocity": 0.5984251968503937
          },
          {
            "duration": 0.31976724999998396,
            "durationTicks": 440,
            "midi": 68,
            "name": "G#4",
            "ticks": 246240,
            "time": 178.953381,
            "velocity": 0.6929133858267716
          },
          {
            "duration": 0.3488370000000032,
            "durationTicks": 480,
            "midi": 54,
            "name": "F#3",
            "ticks": 246720,
            "time": 179.302218,
            "velocity": 0.8110236220472441
          },
          {
            "duration": 0.33430212499999357,
            "durationTicks": 460,
            "midi": 58,
            "name": "A#3",
            "ticks": 246720,
            "time": 179.302218,
            "velocity": 0.8740157480314961
          },
          {
            "duration": 0.31976724999998396,
            "durationTicks": 440,
            "midi": 66,
            "name": "F#4",
            "ticks": 246720,
            "time": 179.302218,
            "velocity": 0.6535433070866141
          },
          {
            "duration": 0.3488370000000032,
            "durationTicks": 480,
            "midi": 54,
            "name": "F#3",
            "ticks": 247200,
            "time": 179.651055,
            "velocity": 0.8110236220472441
          },
          {
            "duration": 0.33430212499999357,
            "durationTicks": 460,
            "midi": 58,
            "name": "A#3",
            "ticks": 247200,
            "time": 179.651055,
            "velocity": 0.8740157480314961
          },
          {
            "duration": 0.31976724999998396,
            "durationTicks": 440,
            "midi": 66,
            "name": "F#4",
            "ticks": 247200,
            "time": 179.651055,
            "velocity": 0.6535433070866141
          },
          {
            "duration": 0.34883699999997475,
            "durationTicks": 480,
            "midi": 52,
            "name": "E3",
            "ticks": 247680,
            "time": 179.99989200000002,
            "velocity": 0.7480314960629921
          },
          {
            "duration": 0.33430212499999357,
            "durationTicks": 460,
            "midi": 56,
            "name": "G#3",
            "ticks": 247680,
            "time": 179.99989200000002,
            "velocity": 0.6377952755905512
          },
          {
            "duration": 0.31976724999998396,
            "durationTicks": 440,
            "midi": 59,
            "name": "B3",
            "ticks": 247680,
            "time": 179.99989200000002,
            "velocity": 0.8110236220472441
          },
          {
            "duration": 0.3488370000000032,
            "durationTicks": 480,
            "midi": 52,
            "name": "E3",
            "ticks": 248160,
            "time": 180.348729,
            "velocity": 0.7480314960629921
          },
          {
            "duration": 0.334302125000022,
            "durationTicks": 460,
            "midi": 56,
            "name": "G#3",
            "ticks": 248160,
            "time": 180.348729,
            "velocity": 0.6377952755905512
          },
          {
            "duration": 0.3197672500000124,
            "durationTicks": 440,
            "midi": 59,
            "name": "B3",
            "ticks": 248160,
            "time": 180.348729,
            "velocity": 0.8110236220472441
          },
          {
            "duration": 0.6976740000000063,
            "durationTicks": 960,
            "midi": 52,
            "name": "E3",
            "ticks": 248640,
            "time": 180.697566,
            "velocity": 0.6535433070866141
          },
          {
            "duration": 0.6831391250000252,
            "durationTicks": 940,
            "midi": 59,
            "name": "B3",
            "ticks": 248640,
            "time": 180.697566,
            "velocity": 0.6377952755905512
          },
          {
            "duration": 0.6686042499999871,
            "durationTicks": 920,
            "midi": 63,
            "name": "D#4",
            "ticks": 248640,
            "time": 180.697566,
            "velocity": 0.7480314960629921
          },
          {
            "duration": 0.3488370000000032,
            "durationTicks": 480,
            "midi": 52,
            "name": "E3",
            "ticks": 249600,
            "time": 181.39524,
            "velocity": 0.7480314960629921
          },
          {
            "duration": 0.334302125000022,
            "durationTicks": 460,
            "midi": 56,
            "name": "G#3",
            "ticks": 249600,
            "time": 181.39524,
            "velocity": 0.6377952755905512
          },
          {
            "duration": 0.31976724999998396,
            "durationTicks": 440,
            "midi": 59,
            "name": "B3",
            "ticks": 249600,
            "time": 181.39524,
            "velocity": 0.8110236220472441
          },
          {
            "duration": 0.3488370000000032,
            "durationTicks": 480,
            "midi": 52,
            "name": "E3",
            "ticks": 250080,
            "time": 181.744077,
            "velocity": 0.7480314960629921
          },
          {
            "duration": 0.334302125000022,
            "durationTicks": 460,
            "midi": 56,
            "name": "G#3",
            "ticks": 250080,
            "time": 181.744077,
            "velocity": 0.6377952755905512
          },
          {
            "duration": 0.31976724999998396,
            "durationTicks": 440,
            "midi": 59,
            "name": "B3",
            "ticks": 250080,
            "time": 181.744077,
            "velocity": 0.8110236220472441
          },
          {
            "duration": 0.6976740000000063,
            "durationTicks": 960,
            "midi": 52,
            "name": "E3",
            "ticks": 250560,
            "time": 182.092914,
            "velocity": 0.6535433070866141
          },
          {
            "duration": 0.6831391249999967,
            "durationTicks": 940,
            "midi": 59,
            "name": "B3",
            "ticks": 250560,
            "time": 182.092914,
            "velocity": 0.6377952755905512
          },
          {
            "duration": 0.6686042499999871,
            "durationTicks": 920,
            "midi": 63,
            "name": "D#4",
            "ticks": 250560,
            "time": 182.092914,
            "velocity": 0.7480314960629921
          },
          {
            "duration": 0.3488370000000032,
            "durationTicks": 480,
            "midi": 56,
            "name": "G#3",
            "ticks": 251520,
            "time": 182.790588,
            "velocity": 0.7322834645669292
          },
          {
            "duration": 0.33430212499999357,
            "durationTicks": 460,
            "midi": 59,
            "name": "B3",
            "ticks": 251520,
            "time": 182.790588,
            "velocity": 0.7952755905511811
          },
          {
            "duration": 0.31976724999998396,
            "durationTicks": 440,
            "midi": 63,
            "name": "D#4",
            "ticks": 251520,
            "time": 182.790588,
            "velocity": 0.6377952755905512
          },
          {
            "duration": 0.34883699999997475,
            "durationTicks": 480,
            "midi": 56,
            "name": "G#3",
            "ticks": 252000,
            "time": 183.13942500000002,
            "velocity": 0.6299212598425197
          },
          {
            "duration": 0.33430212499999357,
            "durationTicks": 460,
            "midi": 59,
            "name": "B3",
            "ticks": 252000,
            "time": 183.13942500000002,
            "velocity": 0.7322834645669292
          },
          {
            "duration": 0.31976724999998396,
            "durationTicks": 440,
            "midi": 63,
            "name": "D#4",
            "ticks": 252000,
            "time": 183.13942500000002,
            "velocity": 0.6929133858267716
          },
          {
            "duration": 0.6976740000000063,
            "durationTicks": 960,
            "midi": 56,
            "name": "G#3",
            "ticks": 252480,
            "time": 183.488262,
            "velocity": 0.7480314960629921
          },
          {
            "duration": 0.6831391250000252,
            "durationTicks": 940,
            "midi": 59,
            "name": "B3",
            "ticks": 252480,
            "time": 183.488262,
            "velocity": 0.6535433070866141
          },
          {
            "duration": 0.6686042499999871,
            "durationTicks": 920,
            "midi": 66,
            "name": "F#4",
            "ticks": 252480,
            "time": 183.488262,
            "velocity": 0.6771653543307087
          },
          {
            "duration": 0.3488370000000032,
            "durationTicks": 480,
            "midi": 54,
            "name": "F#3",
            "ticks": 253440,
            "time": 184.185936,
            "velocity": 0.6535433070866141
          },
          {
            "duration": 0.334302125000022,
            "durationTicks": 460,
            "midi": 58,
            "name": "A#3",
            "ticks": 253440,
            "time": 184.185936,
            "velocity": 0.7952755905511811
          },
          {
            "duration": 0.31976724999998396,
            "durationTicks": 440,
            "midi": 68,
            "name": "G#4",
            "ticks": 253440,
            "time": 184.185936,
            "velocity": 0.6929133858267716
          },
          {
            "duration": 0.3488370000000032,
            "durationTicks": 480,
            "midi": 54,
            "name": "F#3",
            "ticks": 253920,
            "time": 184.534773,
            "velocity": 0.5354330708661418
          },
          {
            "duration": 0.334302125000022,
            "durationTicks": 460,
            "midi": 58,
            "name": "A#3",
            "ticks": 253920,
            "time": 184.534773,
            "velocity": 0.5984251968503937
          },
          {
            "duration": 0.31976724999998396,
            "durationTicks": 440,
            "midi": 68,
            "name": "G#4",
            "ticks": 253920,
            "time": 184.534773,
            "velocity": 0.6929133858267716
          },
          {
            "duration": 0.3488370000000032,
            "durationTicks": 480,
            "midi": 54,
            "name": "F#3",
            "ticks": 254400,
            "time": 184.88361,
            "velocity": 0.8110236220472441
          },
          {
            "duration": 0.334302125000022,
            "durationTicks": 460,
            "midi": 58,
            "name": "A#3",
            "ticks": 254400,
            "time": 184.88361,
            "velocity": 0.8740157480314961
          },
          {
            "duration": 0.31976724999998396,
            "durationTicks": 440,
            "midi": 66,
            "name": "F#4",
            "ticks": 254400,
            "time": 184.88361,
            "velocity": 0.6535433070866141
          },
          {
            "duration": 0.3488370000000032,
            "durationTicks": 480,
            "midi": 54,
            "name": "F#3",
            "ticks": 254880,
            "time": 185.232447,
            "velocity": 0.8110236220472441
          },
          {
            "duration": 0.334302125000022,
            "durationTicks": 460,
            "midi": 58,
            "name": "A#3",
            "ticks": 254880,
            "time": 185.232447,
            "velocity": 0.8740157480314961
          },
          {
            "duration": 0.31976724999998396,
            "durationTicks": 440,
            "midi": 66,
            "name": "F#4",
            "ticks": 254880,
            "time": 185.232447,
            "velocity": 0.6535433070866141
          },
          {
            "duration": 0.3488370000000032,
            "durationTicks": 480,
            "midi": 52,
            "name": "E3",
            "ticks": 255360,
            "time": 185.581284,
            "velocity": 0.7480314960629921
          },
          {
            "duration": 0.33430212499999357,
            "durationTicks": 460,
            "midi": 56,
            "name": "G#3",
            "ticks": 255360,
            "time": 185.581284,
            "velocity": 0.6377952755905512
          },
          {
            "duration": 0.31976724999998396,
            "durationTicks": 440,
            "midi": 59,
            "name": "B3",
            "ticks": 255360,
            "time": 185.581284,
            "velocity": 0.8110236220472441
          },
          {
            "duration": 0.3488370000000032,
            "durationTicks": 480,
            "midi": 52,
            "name": "E3",
            "ticks": 255840,
            "time": 185.930121,
            "velocity": 0.7480314960629921
          },
          {
            "duration": 0.33430212499999357,
            "durationTicks": 460,
            "midi": 56,
            "name": "G#3",
            "ticks": 255840,
            "time": 185.930121,
            "velocity": 0.6377952755905512
          },
          {
            "duration": 0.31976724999998396,
            "durationTicks": 440,
            "midi": 59,
            "name": "B3",
            "ticks": 255840,
            "time": 185.930121,
            "velocity": 0.8110236220472441
          },
          {
            "duration": 0.6976739999999779,
            "durationTicks": 960,
            "midi": 52,
            "name": "E3",
            "ticks": 256320,
            "time": 186.27895800000002,
            "velocity": 0.6535433070866141
          },
          {
            "duration": 0.6831391249999967,
            "durationTicks": 940,
            "midi": 59,
            "name": "B3",
            "ticks": 256320,
            "time": 186.27895800000002,
            "velocity": 0.6377952755905512
          },
          {
            "duration": 0.6686042499999871,
            "durationTicks": 920,
            "midi": 63,
            "name": "D#4",
            "ticks": 256320,
            "time": 186.27895800000002,
            "velocity": 0.7480314960629921
          },
          {
            "duration": 0.3488370000000032,
            "durationTicks": 480,
            "midi": 52,
            "name": "E3",
            "ticks": 257280,
            "time": 186.976632,
            "velocity": 0.7480314960629921
          },
          {
            "duration": 0.334302125000022,
            "durationTicks": 460,
            "midi": 56,
            "name": "G#3",
            "ticks": 257280,
            "time": 186.976632,
            "velocity": 0.6377952755905512
          },
          {
            "duration": 0.31976724999998396,
            "durationTicks": 440,
            "midi": 59,
            "name": "B3",
            "ticks": 257280,
            "time": 186.976632,
            "velocity": 0.8110236220472441
          },
          {
            "duration": 0.3488370000000032,
            "durationTicks": 480,
            "midi": 52,
            "name": "E3",
            "ticks": 257760,
            "time": 187.325469,
            "velocity": 0.7480314960629921
          },
          {
            "duration": 0.334302125000022,
            "durationTicks": 460,
            "midi": 56,
            "name": "G#3",
            "ticks": 257760,
            "time": 187.325469,
            "velocity": 0.6377952755905512
          },
          {
            "duration": 0.31976724999998396,
            "durationTicks": 440,
            "midi": 59,
            "name": "B3",
            "ticks": 257760,
            "time": 187.325469,
            "velocity": 0.8110236220472441
          },
          {
            "duration": 0.6976740000000063,
            "durationTicks": 960,
            "midi": 52,
            "name": "E3",
            "ticks": 258240,
            "time": 187.674306,
            "velocity": 0.6535433070866141
          },
          {
            "duration": 0.6831391250000252,
            "durationTicks": 940,
            "midi": 59,
            "name": "B3",
            "ticks": 258240,
            "time": 187.674306,
            "velocity": 0.6377952755905512
          },
          {
            "duration": 0.6686042499999871,
            "durationTicks": 920,
            "midi": 63,
            "name": "D#4",
            "ticks": 258240,
            "time": 187.674306,
            "velocity": 0.7480314960629921
          },
          {
            "duration": 0.3488370000000032,
            "durationTicks": 480,
            "midi": 56,
            "name": "G#3",
            "ticks": 259200,
            "time": 188.37198,
            "velocity": 0.7322834645669292
          },
          {
            "duration": 0.334302125000022,
            "durationTicks": 460,
            "midi": 59,
            "name": "B3",
            "ticks": 259200,
            "time": 188.37198,
            "velocity": 0.7952755905511811
          },
          {
            "duration": 0.31976724999998396,
            "durationTicks": 440,
            "midi": 63,
            "name": "D#4",
            "ticks": 259200,
            "time": 188.37198,
            "velocity": 0.6377952755905512
          },
          {
            "duration": 0.3488370000000032,
            "durationTicks": 480,
            "midi": 56,
            "name": "G#3",
            "ticks": 259680,
            "time": 188.720817,
            "velocity": 0.6299212598425197
          },
          {
            "duration": 0.33430212499999357,
            "durationTicks": 460,
            "midi": 59,
            "name": "B3",
            "ticks": 259680,
            "time": 188.720817,
            "velocity": 0.7322834645669292
          },
          {
            "duration": 0.31976724999998396,
            "durationTicks": 440,
            "midi": 63,
            "name": "D#4",
            "ticks": 259680,
            "time": 188.720817,
            "velocity": 0.6929133858267716
          },
          {
            "duration": 0.6976739999999779,
            "durationTicks": 960,
            "midi": 56,
            "name": "G#3",
            "ticks": 260160,
            "time": 189.069654,
            "velocity": 0.7480314960629921
          },
          {
            "duration": 0.6831391249999967,
            "durationTicks": 940,
            "midi": 59,
            "name": "B3",
            "ticks": 260160,
            "time": 189.069654,
            "velocity": 0.6535433070866141
          },
          {
            "duration": 0.6686042499999871,
            "durationTicks": 920,
            "midi": 66,
            "name": "F#4",
            "ticks": 260160,
            "time": 189.069654,
            "velocity": 0.6771653543307087
          },
          {
            "duration": 0.3488370000000032,
            "durationTicks": 480,
            "midi": 54,
            "name": "F#3",
            "ticks": 261120,
            "time": 189.767328,
            "velocity": 0.6535433070866141
          },
          {
            "duration": 0.334302125000022,
            "durationTicks": 460,
            "midi": 58,
            "name": "A#3",
            "ticks": 261120,
            "time": 189.767328,
            "velocity": 0.7952755905511811
          },
          {
            "duration": 0.3197672500000124,
            "durationTicks": 440,
            "midi": 68,
            "name": "G#4",
            "ticks": 261120,
            "time": 189.767328,
            "velocity": 0.6929133858267716
          },
          {
            "duration": 0.3488370000000032,
            "durationTicks": 480,
            "midi": 54,
            "name": "F#3",
            "ticks": 261600,
            "time": 190.116165,
            "velocity": 0.5354330708661418
          },
          {
            "duration": 0.334302125000022,
            "durationTicks": 460,
            "midi": 58,
            "name": "A#3",
            "ticks": 261600,
            "time": 190.116165,
            "velocity": 0.5984251968503937
          },
          {
            "duration": 0.31976724999998396,
            "durationTicks": 440,
            "midi": 68,
            "name": "G#4",
            "ticks": 261600,
            "time": 190.116165,
            "velocity": 0.6929133858267716
          },
          {
            "duration": 0.3488370000000032,
            "durationTicks": 480,
            "midi": 54,
            "name": "F#3",
            "ticks": 262080,
            "time": 190.465002,
            "velocity": 0.8110236220472441
          },
          {
            "duration": 0.334302125000022,
            "durationTicks": 460,
            "midi": 58,
            "name": "A#3",
            "ticks": 262080,
            "time": 190.465002,
            "velocity": 0.8740157480314961
          },
          {
            "duration": 0.31976724999998396,
            "durationTicks": 440,
            "midi": 66,
            "name": "F#4",
            "ticks": 262080,
            "time": 190.465002,
            "velocity": 0.6535433070866141
          },
          {
            "duration": 0.3488370000000032,
            "durationTicks": 480,
            "midi": 54,
            "name": "F#3",
            "ticks": 262560,
            "time": 190.813839,
            "velocity": 0.8110236220472441
          },
          {
            "duration": 0.334302125000022,
            "durationTicks": 460,
            "midi": 58,
            "name": "A#3",
            "ticks": 262560,
            "time": 190.813839,
            "velocity": 0.8740157480314961
          },
          {
            "duration": 0.31976724999998396,
            "durationTicks": 440,
            "midi": 66,
            "name": "F#4",
            "ticks": 262560,
            "time": 190.813839,
            "velocity": 0.6535433070866141
          },
          {
            "duration": 0.6976740000000063,
            "durationTicks": 960,
            "midi": 52,
            "name": "E3",
            "ticks": 263040,
            "time": 191.162676,
            "velocity": 0.7874015748031497
          },
          {
            "duration": 0.6831391250000252,
            "durationTicks": 940,
            "midi": 56,
            "name": "G#3",
            "ticks": 263040,
            "time": 191.162676,
            "velocity": 0.7874015748031497
          },
          {
            "duration": 0.6686042499999871,
            "durationTicks": 920,
            "midi": 59,
            "name": "B3",
            "ticks": 263040,
            "time": 191.162676,
            "velocity": 0.7874015748031497
          },
          {
            "duration": 0.3488370000000032,
            "durationTicks": 480,
            "midi": 52,
            "name": "E3",
            "ticks": 264000,
            "time": 191.86035,
            "velocity": 0.7874015748031497
          },
          {
            "duration": 0.33430212499999357,
            "durationTicks": 460,
            "midi": 56,
            "name": "G#3",
            "ticks": 264000,
            "time": 191.86035,
            "velocity": 0.7874015748031497
          },
          {
            "duration": 0.31976724999998396,
            "durationTicks": 440,
            "midi": 59,
            "name": "B3",
            "ticks": 264000,
            "time": 191.86035,
            "velocity": 0.7874015748031497
          },
          {
            "duration": 0.3488370000000032,
            "durationTicks": 480,
            "midi": 52,
            "name": "E3",
            "ticks": 264480,
            "time": 192.20918700000001,
            "velocity": 0.7874015748031497
          },
          {
            "duration": 0.33430212499999357,
            "durationTicks": 460,
            "midi": 56,
            "name": "G#3",
            "ticks": 264480,
            "time": 192.20918700000001,
            "velocity": 0.7874015748031497
          },
          {
            "duration": 0.31976724999998396,
            "durationTicks": 440,
            "midi": 59,
            "name": "B3",
            "ticks": 264480,
            "time": 192.20918700000001,
            "velocity": 0.7874015748031497
          },
          {
            "duration": 0.34883699999997475,
            "durationTicks": 480,
            "midi": 52,
            "name": "E3",
            "ticks": 264960,
            "time": 192.55802400000002,
            "velocity": 0.7874015748031497
          },
          {
            "duration": 0.33430212499999357,
            "durationTicks": 460,
            "midi": 56,
            "name": "G#3",
            "ticks": 264960,
            "time": 192.55802400000002,
            "velocity": 0.7874015748031497
          },
          {
            "duration": 0.31976724999998396,
            "durationTicks": 440,
            "midi": 59,
            "name": "B3",
            "ticks": 264960,
            "time": 192.55802400000002,
            "velocity": 0.7874015748031497
          },
          {
            "duration": 0.3488370000000032,
            "durationTicks": 480,
            "midi": 52,
            "name": "E3",
            "ticks": 265440,
            "time": 192.906861,
            "velocity": 0.7874015748031497
          },
          {
            "duration": 0.334302125000022,
            "durationTicks": 460,
            "midi": 56,
            "name": "G#3",
            "ticks": 265440,
            "time": 192.906861,
            "velocity": 0.7874015748031497
          },
          {
            "duration": 0.5232555000000048,
            "durationTicks": 720,
            "midi": 52,
            "name": "E3",
            "ticks": 265920,
            "time": 193.255698,
            "velocity": 0.7874015748031497
          },
          {
            "duration": 0.5087206250000236,
            "durationTicks": 700,
            "midi": 56,
            "name": "G#3",
            "ticks": 265920,
            "time": 193.255698,
            "velocity": 0.7874015748031497
          },
          {
            "duration": 0.49418574999998555,
            "durationTicks": 680,
            "midi": 59,
            "name": "B3",
            "ticks": 265920,
            "time": 193.255698,
            "velocity": 0.7874015748031497
          },
          {
            "duration": 0.47965087500000436,
            "durationTicks": 660,
            "midi": 63,
            "name": "D#4",
            "ticks": 265920,
            "time": 193.255698,
            "velocity": 0.7874015748031497
          },
          {
            "duration": 0.1744185000000016,
            "durationTicks": 240,
            "midi": 52,
            "name": "E3",
            "ticks": 266640,
            "time": 193.7789535,
            "velocity": 0.7874015748031497
          },
          {
            "duration": 0.1598836250000204,
            "durationTicks": 220,
            "midi": 56,
            "name": "G#3",
            "ticks": 266640,
            "time": 193.7789535,
            "velocity": 0.7874015748031497
          },
          {
            "duration": 0.14534874999998237,
            "durationTicks": 200,
            "midi": 59,
            "name": "B3",
            "ticks": 266640,
            "time": 193.7789535,
            "velocity": 0.7874015748031497
          },
          {
            "duration": 0.1308138750000012,
            "durationTicks": 180,
            "midi": 63,
            "name": "D#4",
            "ticks": 266640,
            "time": 193.7789535,
            "velocity": 0.7874015748031497
          },
          {
            "duration": 2.790695999999997,
            "durationTicks": 3840,
            "midi": 52,
            "name": "E3",
            "ticks": 266880,
            "time": 193.953372,
            "velocity": 0.7874015748031497
          },
          {
            "duration": 2.7761611250000158,
            "durationTicks": 3820,
            "midi": 56,
            "name": "G#3",
            "ticks": 266880,
            "time": 193.953372,
            "velocity": 0.7874015748031497
          },
          {
            "duration": 2.7616262499999777,
            "durationTicks": 3800,
            "midi": 59,
            "name": "B3",
            "ticks": 266880,
            "time": 193.953372,
            "velocity": 0.7874015748031497
          },
          {
            "duration": 2.7470913749999966,
            "durationTicks": 3780,
            "midi": 63,
            "name": "D#4",
            "ticks": 266880,
            "time": 193.953372,
            "velocity": 0.7874015748031497
          },
          {
            "duration": 0.6976740000000063,
            "durationTicks": 960,
            "midi": 47,
            "name": "B2",
            "ticks": 347520,
            "time": 252.557988,
            "velocity": 0.6299212598425197
          },
          {
            "duration": 0.6831391250000252,
            "durationTicks": 940,
            "midi": 51,
            "name": "D#3",
            "ticks": 347520,
            "time": 252.557988,
            "velocity": 0.6299212598425197
          },
          {
            "duration": 0.6686042499999871,
            "durationTicks": 920,
            "midi": 59,
            "name": "B3",
            "ticks": 347520,
            "time": 252.557988,
            "velocity": 0.6299212598425197
          },
          {
            "duration": 0.6976740000000063,
            "durationTicks": 960,
            "midi": 47,
            "name": "B2",
            "ticks": 348480,
            "time": 253.255662,
            "velocity": 0.6299212598425197
          },
          {
            "duration": 0.6831391250000252,
            "durationTicks": 940,
            "midi": 51,
            "name": "D#3",
            "ticks": 348480,
            "time": 253.255662,
            "velocity": 0.6299212598425197
          },
          {
            "duration": 0.6686042499999871,
            "durationTicks": 920,
            "midi": 59,
            "name": "B3",
            "ticks": 348480,
            "time": 253.255662,
            "velocity": 0.6299212598425197
          },
          {
            "duration": 0.3488370000000032,
            "durationTicks": 480,
            "midi": 47,
            "name": "B2",
            "ticks": 349440,
            "time": 253.953336,
            "velocity": 0.6299212598425197
          },
          {
            "duration": 0.334302125000022,
            "durationTicks": 460,
            "midi": 51,
            "name": "D#3",
            "ticks": 349440,
            "time": 253.953336,
            "velocity": 0.6299212598425197
          },
          {
            "duration": 0.31976724999998396,
            "durationTicks": 440,
            "midi": 59,
            "name": "B3",
            "ticks": 349440,
            "time": 253.953336,
            "velocity": 0.6299212598425197
          },
          {
            "duration": 0.3488370000000032,
            "durationTicks": 480,
            "midi": 47,
            "name": "B2",
            "ticks": 349920,
            "time": 254.302173,
            "velocity": 0.6299212598425197
          },
          {
            "duration": 0.334302125000022,
            "durationTicks": 460,
            "midi": 51,
            "name": "D#3",
            "ticks": 349920,
            "time": 254.302173,
            "velocity": 0.6299212598425197
          },
          {
            "duration": 0.31976724999998396,
            "durationTicks": 440,
            "midi": 54,
            "name": "F#3",
            "ticks": 349920,
            "time": 254.302173,
            "velocity": 0.6299212598425197
          },
          {
            "duration": 0.5232555000000048,
            "durationTicks": 720,
            "midi": 47,
            "name": "B2",
            "ticks": 350400,
            "time": 254.65101,
            "velocity": 0.6299212598425197
          },
          {
            "duration": 0.5087206249999952,
            "durationTicks": 700,
            "midi": 54,
            "name": "F#3",
            "ticks": 350400,
            "time": 254.65101,
            "velocity": 0.6299212598425197
          },
          {
            "duration": 0.49418574999998555,
            "durationTicks": 680,
            "midi": 63,
            "name": "D#4",
            "ticks": 350400,
            "time": 254.65101,
            "velocity": 0.6299212598425197
          },
          {
            "duration": 0.1744185000000016,
            "durationTicks": 240,
            "midi": 47,
            "name": "B2",
            "ticks": 351120,
            "time": 255.17426550000002,
            "velocity": 0.6299212598425197
          },
          {
            "duration": 0.15988362499999198,
            "durationTicks": 220,
            "midi": 54,
            "name": "F#3",
            "ticks": 351120,
            "time": 255.17426550000002,
            "velocity": 0.6299212598425197
          },
          {
            "duration": 0.14534874999998237,
            "durationTicks": 200,
            "midi": 63,
            "name": "D#4",
            "ticks": 351120,
            "time": 255.17426550000002,
            "velocity": 0.6299212598425197
          },
          {
            "duration": 0.6976739999999779,
            "durationTicks": 960,
            "midi": 47,
            "name": "B2",
            "ticks": 351360,
            "time": 255.34868400000002,
            "velocity": 0.6299212598425197
          },
          {
            "duration": 0.6831391249999967,
            "durationTicks": 940,
            "midi": 54,
            "name": "F#3",
            "ticks": 351360,
            "time": 255.34868400000002,
            "velocity": 0.6299212598425197
          },
          {
            "duration": 0.6686042499999587,
            "durationTicks": 920,
            "midi": 63,
            "name": "D#4",
            "ticks": 351360,
            "time": 255.34868400000002,
            "velocity": 0.6299212598425197
          },
          {
            "duration": 0.3488370000000032,
            "durationTicks": 480,
            "midi": 47,
            "name": "B2",
            "ticks": 352320,
            "time": 256.046358,
            "velocity": 0.6299212598425197
          },
          {
            "duration": 0.334302125000022,
            "durationTicks": 460,
            "midi": 54,
            "name": "F#3",
            "ticks": 352320,
            "time": 256.046358,
            "velocity": 0.6299212598425197
          },
          {
            "duration": 0.31976724999998396,
            "durationTicks": 440,
            "midi": 63,
            "name": "D#4",
            "ticks": 352320,
            "time": 256.046358,
            "velocity": 0.6299212598425197
          },
          {
            "duration": 0.3488370000000032,
            "durationTicks": 480,
            "midi": 47,
            "name": "B2",
            "ticks": 352800,
            "time": 256.395195,
            "velocity": 0.6299212598425197
          },
          {
            "duration": 0.334302125000022,
            "durationTicks": 460,
            "midi": 51,
            "name": "D#3",
            "ticks": 352800,
            "time": 256.395195,
            "velocity": 0.6299212598425197
          },
          {
            "duration": 0.31976724999998396,
            "durationTicks": 440,
            "midi": 59,
            "name": "B3",
            "ticks": 352800,
            "time": 256.395195,
            "velocity": 0.6299212598425197
          },
          {
            "duration": 0.3488370000000032,
            "durationTicks": 480,
            "midi": 47,
            "name": "B2",
            "ticks": 353280,
            "time": 256.744032,
            "velocity": 0.6299212598425197
          },
          {
            "duration": 0.334302125000022,
            "durationTicks": 460,
            "midi": 51,
            "name": "D#3",
            "ticks": 353280,
            "time": 256.744032,
            "velocity": 0.6299212598425197
          },
          {
            "duration": 0.31976724999998396,
            "durationTicks": 440,
            "midi": 59,
            "name": "B3",
            "ticks": 353280,
            "time": 256.744032,
            "velocity": 0.6299212598425197
          },
          {
            "duration": 0.3488370000000032,
            "durationTicks": 480,
            "midi": 47,
            "name": "B2",
            "ticks": 353760,
            "time": 257.092869,
            "velocity": 0.6299212598425197
          },
          {
            "duration": 0.334302125000022,
            "durationTicks": 460,
            "midi": 51,
            "name": "D#3",
            "ticks": 353760,
            "time": 257.092869,
            "velocity": 0.6299212598425197
          },
          {
            "duration": 0.31976724999998396,
            "durationTicks": 440,
            "midi": 54,
            "name": "F#3",
            "ticks": 353760,
            "time": 257.092869,
            "velocity": 0.6299212598425197
          },
          {
            "duration": 0.3488370000000032,
            "durationTicks": 480,
            "midi": 47,
            "name": "B2",
            "ticks": 354240,
            "time": 257.441706,
            "velocity": 0.6299212598425197
          },
          {
            "duration": 0.334302125000022,
            "durationTicks": 460,
            "midi": 54,
            "name": "F#3",
            "ticks": 354240,
            "time": 257.441706,
            "velocity": 0.6299212598425197
          },
          {
            "duration": 0.31976724999998396,
            "durationTicks": 440,
            "midi": 63,
            "name": "D#4",
            "ticks": 354240,
            "time": 257.441706,
            "velocity": 0.6299212598425197
          },
          {
            "duration": 0.1744185000000016,
            "durationTicks": 240,
            "midi": 47,
            "name": "B2",
            "ticks": 354720,
            "time": 257.790543,
            "velocity": 0.6299212598425197
          },
          {
            "duration": 0.1598836250000204,
            "durationTicks": 220,
            "midi": 54,
            "name": "F#3",
            "ticks": 354720,
            "time": 257.790543,
            "velocity": 0.6299212598425197
          },
          {
            "duration": 0.14534874999998237,
            "durationTicks": 200,
            "midi": 63,
            "name": "D#4",
            "ticks": 354720,
            "time": 257.790543,
            "velocity": 0.6299212598425197
          },
          {
            "duration": 0.1744185000000016,
            "durationTicks": 240,
            "midi": 47,
            "name": "B2",
            "ticks": 354960,
            "time": 257.9649615,
            "velocity": 0.6299212598425197
          },
          {
            "duration": 0.1598836250000204,
            "durationTicks": 220,
            "midi": 54,
            "name": "F#3",
            "ticks": 354960,
            "time": 257.9649615,
            "velocity": 0.6299212598425197
          },
          {
            "duration": 0.14534874999998237,
            "durationTicks": 200,
            "midi": 63,
            "name": "D#4",
            "ticks": 354960,
            "time": 257.9649615,
            "velocity": 0.6299212598425197
          },
          {
            "duration": 0.6976740000000063,
            "durationTicks": 960,
            "midi": 54,
            "name": "F#3",
            "ticks": 355200,
            "time": 258.13938,
            "velocity": 0.6299212598425197
          },
          {
            "duration": 0.6831391250000252,
            "durationTicks": 940,
            "midi": 57,
            "name": "A3",
            "ticks": 355200,
            "time": 258.13938,
            "velocity": 0.6299212598425197
          },
          {
            "duration": 0.6686042499999871,
            "durationTicks": 920,
            "midi": 61,
            "name": "C#4",
            "ticks": 355200,
            "time": 258.13938,
            "velocity": 0.6299212598425197
          },
          {
            "duration": 0.654069375000006,
            "durationTicks": 900,
            "midi": 64,
            "name": "E4",
            "ticks": 355200,
            "time": 258.13938,
            "velocity": 0.6299212598425197
          },
          {
            "duration": 0.3488370000000032,
            "durationTicks": 480,
            "midi": 54,
            "name": "F#3",
            "ticks": 356160,
            "time": 258.837054,
            "velocity": 0.6299212598425197
          },
          {
            "duration": 0.334302125000022,
            "durationTicks": 460,
            "midi": 57,
            "name": "A3",
            "ticks": 356160,
            "time": 258.837054,
            "velocity": 0.6299212598425197
          },
          {
            "duration": 0.31976724999998396,
            "durationTicks": 440,
            "midi": 61,
            "name": "C#4",
            "ticks": 356160,
            "time": 258.837054,
            "velocity": 0.6299212598425197
          },
          {
            "duration": 0.3052323750000028,
            "durationTicks": 420,
            "midi": 64,
            "name": "E4",
            "ticks": 356160,
            "time": 258.837054,
            "velocity": 0.6299212598425197
          },
          {
            "duration": 0.6976740000000063,
            "durationTicks": 960,
            "midi": 54,
            "name": "F#3",
            "ticks": 356640,
            "time": 259.185891,
            "velocity": 0.6299212598425197
          },
          {
            "duration": 0.6831391249999683,
            "durationTicks": 940,
            "midi": 57,
            "name": "A3",
            "ticks": 356640,
            "time": 259.185891,
            "velocity": 0.6299212598425197
          },
          {
            "duration": 0.6686042499999871,
            "durationTicks": 920,
            "midi": 61,
            "name": "C#4",
            "ticks": 356640,
            "time": 259.185891,
            "velocity": 0.6299212598425197
          },
          {
            "duration": 0.34883699999994633,
            "durationTicks": 480,
            "midi": 54,
            "name": "F#3",
            "ticks": 357600,
            "time": 259.88356500000003,
            "velocity": 0.6299212598425197
          },
          {
            "duration": 0.33430212499996514,
            "durationTicks": 460,
            "midi": 57,
            "name": "A3",
            "ticks": 357600,
            "time": 259.88356500000003,
            "velocity": 0.6299212598425197
          },
          {
            "duration": 0.31976724999998396,
            "durationTicks": 440,
            "midi": 61,
            "name": "C#4",
            "ticks": 357600,
            "time": 259.88356500000003,
            "velocity": 0.6299212598425197
          },
          {
            "duration": 0.5232555000000048,
            "durationTicks": 720,
            "midi": 54,
            "name": "F#3",
            "ticks": 358080,
            "time": 260.232402,
            "velocity": 0.6299212598425197
          },
          {
            "duration": 0.5087206250000236,
            "durationTicks": 700,
            "midi": 57,
            "name": "A3",
            "ticks": 358080,
            "time": 260.232402,
            "velocity": 0.6299212598425197
          },
          {
            "duration": 0.49418574999998555,
            "durationTicks": 680,
            "midi": 61,
            "name": "C#4",
            "ticks": 358080,
            "time": 260.232402,
            "velocity": 0.6299212598425197
          },
          {
            "duration": 0.47965087500000436,
            "durationTicks": 660,
            "midi": 64,
            "name": "E4",
            "ticks": 358080,
            "time": 260.232402,
            "velocity": 0.6299212598425197
          },
          {
            "duration": 0.1744185000000016,
            "durationTicks": 240,
            "midi": 54,
            "name": "F#3",
            "ticks": 358800,
            "time": 260.7556575,
            "velocity": 0.6299212598425197
          },
          {
            "duration": 0.1598836250000204,
            "durationTicks": 220,
            "midi": 57,
            "name": "A3",
            "ticks": 358800,
            "time": 260.7556575,
            "velocity": 0.6299212598425197
          },
          {
            "duration": 0.14534874999998237,
            "durationTicks": 200,
            "midi": 61,
            "name": "C#4",
            "ticks": 358800,
            "time": 260.7556575,
            "velocity": 0.6299212598425197
          },
          {
            "duration": 0.1308138750000012,
            "durationTicks": 180,
            "midi": 64,
            "name": "E4",
            "ticks": 358800,
            "time": 260.7556575,
            "velocity": 0.6299212598425197
          },
          {
            "duration": 0.6976740000000063,
            "durationTicks": 960,
            "midi": 54,
            "name": "F#3",
            "ticks": 359040,
            "time": 260.930076,
            "velocity": 0.6299212598425197
          },
          {
            "duration": 0.6831391250000252,
            "durationTicks": 940,
            "midi": 57,
            "name": "A3",
            "ticks": 359040,
            "time": 260.930076,
            "velocity": 0.6299212598425197
          },
          {
            "duration": 0.6686042499999871,
            "durationTicks": 920,
            "midi": 61,
            "name": "C#4",
            "ticks": 359040,
            "time": 260.930076,
            "velocity": 0.6299212598425197
          },
          {
            "duration": 0.3488370000000032,
            "durationTicks": 480,
            "midi": 54,
            "name": "F#3",
            "ticks": 360000,
            "time": 261.62775,
            "velocity": 0.6299212598425197
          },
          {
            "duration": 0.334302125000022,
            "durationTicks": 460,
            "midi": 57,
            "name": "A3",
            "ticks": 360000,
            "time": 261.62775,
            "velocity": 0.6299212598425197
          },
          {
            "duration": 0.31976724999998396,
            "durationTicks": 440,
            "midi": 61,
            "name": "C#4",
            "ticks": 360000,
            "time": 261.62775,
            "velocity": 0.6299212598425197
          },
          {
            "duration": 0.3052323750000028,
            "durationTicks": 420,
            "midi": 64,
            "name": "E4",
            "ticks": 360000,
            "time": 261.62775,
            "velocity": 0.6299212598425197
          },
          {
            "duration": 0.3488370000000032,
            "durationTicks": 480,
            "midi": 54,
            "name": "F#3",
            "ticks": 360480,
            "time": 261.976587,
            "velocity": 0.6299212598425197
          },
          {
            "duration": 0.334302125000022,
            "durationTicks": 460,
            "midi": 57,
            "name": "A3",
            "ticks": 360480,
            "time": 261.976587,
            "velocity": 0.6299212598425197
          },
          {
            "duration": 0.31976724999998396,
            "durationTicks": 440,
            "midi": 61,
            "name": "C#4",
            "ticks": 360480,
            "time": 261.976587,
            "velocity": 0.6299212598425197
          },
          {
            "duration": 0.3488370000000032,
            "durationTicks": 480,
            "midi": 54,
            "name": "F#3",
            "ticks": 360960,
            "time": 262.325424,
            "velocity": 0.6299212598425197
          },
          {
            "duration": 0.334302125000022,
            "durationTicks": 460,
            "midi": 57,
            "name": "A3",
            "ticks": 360960,
            "time": 262.325424,
            "velocity": 0.6299212598425197
          },
          {
            "duration": 0.31976724999998396,
            "durationTicks": 440,
            "midi": 61,
            "name": "C#4",
            "ticks": 360960,
            "time": 262.325424,
            "velocity": 0.6299212598425197
          },
          {
            "duration": 0.3052323750000028,
            "durationTicks": 420,
            "midi": 64,
            "name": "E4",
            "ticks": 360960,
            "time": 262.325424,
            "velocity": 0.6299212598425197
          },
          {
            "duration": 0.3488370000000032,
            "durationTicks": 480,
            "midi": 54,
            "name": "F#3",
            "ticks": 361440,
            "time": 262.674261,
            "velocity": 0.6299212598425197
          },
          {
            "duration": 0.334302125000022,
            "durationTicks": 460,
            "midi": 57,
            "name": "A3",
            "ticks": 361440,
            "time": 262.674261,
            "velocity": 0.6299212598425197
          },
          {
            "duration": 0.31976724999998396,
            "durationTicks": 440,
            "midi": 61,
            "name": "C#4",
            "ticks": 361440,
            "time": 262.674261,
            "velocity": 0.6299212598425197
          },
          {
            "duration": 0.3488370000000032,
            "durationTicks": 480,
            "midi": 57,
            "name": "A3",
            "ticks": 361920,
            "time": 263.023098,
            "velocity": 0.6299212598425197
          },
          {
            "duration": 0.334302125000022,
            "durationTicks": 460,
            "midi": 61,
            "name": "C#4",
            "ticks": 361920,
            "time": 263.023098,
            "velocity": 0.6299212598425197
          },
          {
            "duration": 0.31976724999998396,
            "durationTicks": 440,
            "midi": 64,
            "name": "E4",
            "ticks": 361920,
            "time": 263.023098,
            "velocity": 0.6299212598425197
          },
          {
            "duration": 0.3488370000000032,
            "durationTicks": 480,
            "midi": 56,
            "name": "G#3",
            "ticks": 362400,
            "time": 263.371935,
            "velocity": 0.6299212598425197
          },
          {
            "duration": 0.334302125000022,
            "durationTicks": 460,
            "midi": 61,
            "name": "C#4",
            "ticks": 362400,
            "time": 263.371935,
            "velocity": 0.6299212598425197
          },
          {
            "duration": 0.31976724999998396,
            "durationTicks": 440,
            "midi": 64,
            "name": "E4",
            "ticks": 362400,
            "time": 263.371935,
            "velocity": 0.6299212598425197
          },
          {
            "duration": 2.7906959999999685,
            "durationTicks": 3840,
            "midi": 52,
            "name": "E3",
            "ticks": 362880,
            "time": 263.720772,
            "velocity": 0.6299212598425197
          },
          {
            "duration": 2.7906959999999685,
            "durationTicks": 3840,
            "midi": 56,
            "name": "G#3",
            "ticks": 362880,
            "time": 263.720772,
            "velocity": 0.6299212598425197
          },
          {
            "duration": 2.747091374999968,
            "durationTicks": 3780,
            "midi": 59,
            "name": "B3",
            "ticks": 363000,
            "time": 263.80798125,
            "velocity": 0.6299212598425197
          },
          {
            "duration": 2.7034867499999677,
            "durationTicks": 3720,
            "midi": 63,
            "name": "D#4",
            "ticks": 363000,
            "time": 263.80798125,
            "velocity": 0.6299212598425197
          }
        ]
      },
      {
        "channel": 0,
        "controlChanges": {},
        "pitchBends": [],
        "instrument": {
          "family": "piano",
          "number": 0,
          "name": "acoustic grand piano"
        },
        "name": "untitled",
        "notes": [],
        "endOfTrackTicks": 372480
      },
      {
        "channel": 3,
        "controlChanges": {
          "7": [
            {
              "number": 7,
              "ticks": 0,
              "time": 0,
              "value": 0.5511811023622047
            }
          ],
          "10": [
            {
              "number": 10,
              "ticks": 0,
              "time": 0,
              "value": 0.5039370078740157
            }
          ]
        },
        "pitchBends": [],
        "instrument": {
          "family": "guitar",
          "number": 28,
          "name": "electric guitar (muted)"
        },
        "name": "",
        "notes": [
          {
            "duration": 0.34883700000000006,
            "durationTicks": 480,
            "midi": 47,
            "name": "B2",
            "ticks": 1920,
            "time": 1.395348,
            "velocity": 0.7480314960629921
          },
          {
            "duration": 0.34883699999999984,
            "durationTicks": 480,
            "midi": 47,
            "name": "B2",
            "ticks": 2400,
            "time": 1.744185,
            "velocity": 0.7480314960629921
          },
          {
            "duration": 0.34883700000000006,
            "durationTicks": 480,
            "midi": 47,
            "name": "B2",
            "ticks": 2880,
            "time": 2.093022,
            "velocity": 0.7952755905511811
          },
          {
            "duration": 0.34883700000000006,
            "durationTicks": 480,
            "midi": 54,
            "name": "F#3",
            "ticks": 2880,
            "time": 2.093022,
            "velocity": 0.6535433070866141
          },
          {
            "duration": 0.34883700000000006,
            "durationTicks": 480,
            "midi": 47,
            "name": "B2",
            "ticks": 3360,
            "time": 2.441859,
            "velocity": 0.8267716535433071
          },
          {
            "duration": 0.34883700000000006,
            "durationTicks": 480,
            "midi": 54,
            "name": "F#3",
            "ticks": 3360,
            "time": 2.441859,
            "velocity": 0.8267716535433071
          },
          {
            "duration": 0.34883700000000006,
            "durationTicks": 480,
            "midi": 47,
            "name": "B2",
            "ticks": 3840,
            "time": 2.790696,
            "velocity": 0.8267716535433071
          },
          {
            "duration": 0.34883700000000006,
            "durationTicks": 480,
            "midi": 54,
            "name": "F#3",
            "ticks": 3840,
            "time": 2.790696,
            "velocity": 0.8267716535433071
          },
          {
            "duration": 0.34883700000000006,
            "durationTicks": 480,
            "midi": 47,
            "name": "B2",
            "ticks": 4320,
            "time": 3.139533,
            "velocity": 0.7322834645669292
          },
          {
            "duration": 0.34883700000000006,
            "durationTicks": 480,
            "midi": 54,
            "name": "F#3",
            "ticks": 4320,
            "time": 3.139533,
            "velocity": 0.7952755905511811
          },
          {
            "duration": 0.34883700000000006,
            "durationTicks": 480,
            "midi": 47,
            "name": "B2",
            "ticks": 4800,
            "time": 3.48837,
            "velocity": 0.8110236220472441
          },
          {
            "duration": 0.34883700000000006,
            "durationTicks": 480,
            "midi": 54,
            "name": "F#3",
            "ticks": 4800,
            "time": 3.48837,
            "velocity": 0.84251968503937
          },
          {
            "duration": 0.1744184999999998,
            "durationTicks": 240,
            "midi": 47,
            "name": "B2",
            "ticks": 5280,
            "time": 3.8372070000000003,
            "velocity": 0.8740157480314961
          },
          {
            "duration": 0.1744184999999998,
            "durationTicks": 240,
            "midi": 54,
            "name": "F#3",
            "ticks": 5280,
            "time": 3.8372070000000003,
            "velocity": 0.8267716535433071
          },
          {
            "duration": 0.1744184999999998,
            "durationTicks": 240,
            "midi": 47,
            "name": "B2",
            "ticks": 5520,
            "time": 4.0116255,
            "velocity": 0.8740157480314961
          },
          {
            "duration": 0.1744184999999998,
            "durationTicks": 240,
            "midi": 54,
            "name": "F#3",
            "ticks": 5520,
            "time": 4.0116255,
            "velocity": 0.8267716535433071
          },
          {
            "duration": 0.3488370000000005,
            "durationTicks": 480,
            "midi": 47,
            "name": "B2",
            "ticks": 5760,
            "time": 4.186044,
            "velocity": 0.8582677165354331
          },
          {
            "duration": 0.3488370000000005,
            "durationTicks": 480,
            "midi": 47,
            "name": "B2",
            "ticks": 5760,
            "time": 4.186044,
            "velocity": 0.8740157480314961
          },
          {
            "duration": 0.3488370000000005,
            "durationTicks": 480,
            "midi": 54,
            "name": "F#3",
            "ticks": 5760,
            "time": 4.186044,
            "velocity": 0.8582677165354331
          },
          {
            "duration": 0.3488370000000005,
            "durationTicks": 480,
            "midi": 54,
            "name": "F#3",
            "ticks": 5760,
            "time": 4.186044,
            "velocity": 0.8267716535433071
          },
          {
            "duration": 0.3488369999999996,
            "durationTicks": 480,
            "midi": 47,
            "name": "B2",
            "ticks": 6240,
            "time": 4.534881,
            "velocity": 0.8582677165354331
          },
          {
            "duration": 0.3488370000000005,
            "durationTicks": 480,
            "midi": 47,
            "name": "B2",
            "ticks": 6720,
            "time": 4.883718,
            "velocity": 0.8582677165354331
          },
          {
            "duration": 0.3488370000000005,
            "durationTicks": 480,
            "midi": 54,
            "name": "F#3",
            "ticks": 6720,
            "time": 4.883718,
            "velocity": 0.8976377952755905
          },
          {
            "duration": 0.3488369999999996,
            "durationTicks": 480,
            "midi": 47,
            "name": "B2",
            "ticks": 7200,
            "time": 5.2325550000000005,
            "velocity": 0.8267716535433071
          },
          {
            "duration": 0.3488369999999996,
            "durationTicks": 480,
            "midi": 54,
            "name": "F#3",
            "ticks": 7200,
            "time": 5.2325550000000005,
            "velocity": 0.8267716535433071
          },
          {
            "duration": 0.3488369999999996,
            "durationTicks": 480,
            "midi": 47,
            "name": "B2",
            "ticks": 7680,
            "time": 5.581392,
            "velocity": 0.8267716535433071
          },
          {
            "duration": 0.3488369999999996,
            "durationTicks": 480,
            "midi": 54,
            "name": "F#3",
            "ticks": 7680,
            "time": 5.581392,
            "velocity": 0.8267716535433071
          },
          {
            "duration": 0.3488370000000005,
            "durationTicks": 480,
            "midi": 47,
            "name": "B2",
            "ticks": 8160,
            "time": 5.930229,
            "velocity": 0.8267716535433071
          },
          {
            "duration": 0.3488370000000005,
            "durationTicks": 480,
            "midi": 54,
            "name": "F#3",
            "ticks": 8160,
            "time": 5.930229,
            "velocity": 0.8267716535433071
          },
          {
            "duration": 0.3488369999999996,
            "durationTicks": 480,
            "midi": 47,
            "name": "B2",
            "ticks": 8640,
            "time": 6.279066,
            "velocity": 0.8267716535433071
          },
          {
            "duration": 0.3488369999999996,
            "durationTicks": 480,
            "midi": 54,
            "name": "F#3",
            "ticks": 8640,
            "time": 6.279066,
            "velocity": 0.8267716535433071
          },
          {
            "duration": 0.1744185000000007,
            "durationTicks": 240,
            "midi": 47,
            "name": "B2",
            "ticks": 9120,
            "time": 6.627903,
            "velocity": 0.8267716535433071
          },
          {
            "duration": 0.1744185000000007,
            "durationTicks": 240,
            "midi": 54,
            "name": "F#3",
            "ticks": 9120,
            "time": 6.627903,
            "velocity": 0.8267716535433071
          },
          {
            "duration": 0.1744184999999998,
            "durationTicks": 240,
            "midi": 47,
            "name": "B2",
            "ticks": 9360,
            "time": 6.802321500000001,
            "velocity": 0.8267716535433071
          },
          {
            "duration": 0.1744184999999998,
            "durationTicks": 240,
            "midi": 54,
            "name": "F#3",
            "ticks": 9360,
            "time": 6.802321500000001,
            "velocity": 0.8267716535433071
          },
          {
            "duration": 0.3488369999999996,
            "durationTicks": 480,
            "midi": 47,
            "name": "B2",
            "ticks": 9600,
            "time": 6.97674,
            "velocity": 0.8267716535433071
          },
          {
            "duration": 0.3488369999999996,
            "durationTicks": 480,
            "midi": 54,
            "name": "F#3",
            "ticks": 9600,
            "time": 6.97674,
            "velocity": 0.8267716535433071
          },
          {
            "duration": 0.3488369999999996,
            "durationTicks": 480,
            "midi": 54,
            "name": "F#3",
            "ticks": 9600,
            "time": 6.97674,
            "velocity": 0.7480314960629921
          },
          {
            "duration": 0.3488370000000005,
            "durationTicks": 480,
            "midi": 47,
            "name": "B2",
            "ticks": 10080,
            "time": 7.325577,
            "velocity": 0.7480314960629921
          },
          {
            "duration": 0.3488369999999996,
            "durationTicks": 480,
            "midi": 47,
            "name": "B2",
            "ticks": 10560,
            "time": 7.6744140000000005,
            "velocity": 0.7952755905511811
          },
          {
            "duration": 0.3488369999999996,
            "durationTicks": 480,
            "midi": 54,
            "name": "F#3",
            "ticks": 10560,
            "time": 7.6744140000000005,
            "velocity": 0.6535433070866141
          },
          {
            "duration": 0.3488369999999996,
            "durationTicks": 480,
            "midi": 47,
            "name": "B2",
            "ticks": 11040,
            "time": 8.023251,
            "velocity": 0.8267716535433071
          },
          {
            "duration": 0.3488369999999996,
            "durationTicks": 480,
            "midi": 54,
            "name": "F#3",
            "ticks": 11040,
            "time": 8.023251,
            "velocity": 0.8267716535433071
          },
          {
            "duration": 0.3488369999999996,
            "durationTicks": 480,
            "midi": 47,
            "name": "B2",
            "ticks": 11520,
            "time": 8.372088,
            "velocity": 0.8267716535433071
          },
          {
            "duration": 0.3488369999999996,
            "durationTicks": 480,
            "midi": 54,
            "name": "F#3",
            "ticks": 11520,
            "time": 8.372088,
            "velocity": 0.8267716535433071
          },
          {
            "duration": 0.3488370000000014,
            "durationTicks": 480,
            "midi": 47,
            "name": "B2",
            "ticks": 12000,
            "time": 8.720925,
            "velocity": 0.7322834645669292
          },
          {
            "duration": 0.3488370000000014,
            "durationTicks": 480,
            "midi": 54,
            "name": "F#3",
            "ticks": 12000,
            "time": 8.720925,
            "velocity": 0.7952755905511811
          },
          {
            "duration": 0.3488369999999996,
            "durationTicks": 480,
            "midi": 47,
            "name": "B2",
            "ticks": 12480,
            "time": 9.069762,
            "velocity": 0.8110236220472441
          },
          {
            "duration": 0.3488369999999996,
            "durationTicks": 480,
            "midi": 54,
            "name": "F#3",
            "ticks": 12480,
            "time": 9.069762,
            "velocity": 0.84251968503937
          },
          {
            "duration": 0.1744184999999998,
            "durationTicks": 240,
            "midi": 47,
            "name": "B2",
            "ticks": 12960,
            "time": 9.418599,
            "velocity": 0.8740157480314961
          },
          {
            "duration": 0.1744184999999998,
            "durationTicks": 240,
            "midi": 54,
            "name": "F#3",
            "ticks": 12960,
            "time": 9.418599,
            "velocity": 0.8267716535433071
          },
          {
            "duration": 0.1744184999999998,
            "durationTicks": 240,
            "midi": 47,
            "name": "B2",
            "ticks": 13200,
            "time": 9.5930175,
            "velocity": 0.8740157480314961
          },
          {
            "duration": 0.1744184999999998,
            "durationTicks": 240,
            "midi": 54,
            "name": "F#3",
            "ticks": 13200,
            "time": 9.5930175,
            "velocity": 0.8267716535433071
          },
          {
            "duration": 0.3488369999999996,
            "durationTicks": 480,
            "midi": 47,
            "name": "B2",
            "ticks": 13440,
            "time": 9.767436,
            "velocity": 0.8582677165354331
          },
          {
            "duration": 0.3488369999999996,
            "durationTicks": 480,
            "midi": 54,
            "name": "F#3",
            "ticks": 13440,
            "time": 9.767436,
            "velocity": 0.8582677165354331
          },
          {
            "duration": 0.3488370000000014,
            "durationTicks": 480,
            "midi": 47,
            "name": "B2",
            "ticks": 13920,
            "time": 10.116273,
            "velocity": 0.8582677165354331
          },
          {
            "duration": 0.3488369999999996,
            "durationTicks": 480,
            "midi": 47,
            "name": "B2",
            "ticks": 14400,
            "time": 10.465110000000001,
            "velocity": 0.8582677165354331
          },
          {
            "duration": 0.3488369999999996,
            "durationTicks": 480,
            "midi": 54,
            "name": "F#3",
            "ticks": 14400,
            "time": 10.465110000000001,
            "velocity": 0.8976377952755905
          },
          {
            "duration": 0.3488369999999996,
            "durationTicks": 480,
            "midi": 47,
            "name": "B2",
            "ticks": 14880,
            "time": 10.813947,
            "velocity": 0.8267716535433071
          },
          {
            "duration": 0.3488369999999996,
            "durationTicks": 480,
            "midi": 54,
            "name": "F#3",
            "ticks": 14880,
            "time": 10.813947,
            "velocity": 0.8267716535433071
          },
          {
            "duration": 0.3488369999999996,
            "durationTicks": 480,
            "midi": 47,
            "name": "B2",
            "ticks": 15360,
            "time": 11.162784,
            "velocity": 0.8267716535433071
          },
          {
            "duration": 0.3488369999999996,
            "durationTicks": 480,
            "midi": 54,
            "name": "F#3",
            "ticks": 15360,
            "time": 11.162784,
            "velocity": 0.8267716535433071
          },
          {
            "duration": 0.3488369999999996,
            "durationTicks": 480,
            "midi": 47,
            "name": "B2",
            "ticks": 15840,
            "time": 11.511621,
            "velocity": 0.8267716535433071
          },
          {
            "duration": 0.3488369999999996,
            "durationTicks": 480,
            "midi": 54,
            "name": "F#3",
            "ticks": 15840,
            "time": 11.511621,
            "velocity": 0.8267716535433071
          },
          {
            "duration": 0.3488370000000014,
            "durationTicks": 480,
            "midi": 47,
            "name": "B2",
            "ticks": 16320,
            "time": 11.860458,
            "velocity": 0.8267716535433071
          },
          {
            "duration": 0.3488370000000014,
            "durationTicks": 480,
            "midi": 54,
            "name": "F#3",
            "ticks": 16320,
            "time": 11.860458,
            "velocity": 0.8267716535433071
          },
          {
            "duration": 0.1744184999999998,
            "durationTicks": 240,
            "midi": 47,
            "name": "B2",
            "ticks": 16800,
            "time": 12.209295000000001,
            "velocity": 0.8267716535433071
          },
          {
            "duration": 0.1744184999999998,
            "durationTicks": 240,
            "midi": 54,
            "name": "F#3",
            "ticks": 16800,
            "time": 12.209295000000001,
            "velocity": 0.8267716535433071
          },
          {
            "duration": 0.1744184999999998,
            "durationTicks": 240,
            "midi": 47,
            "name": "B2",
            "ticks": 17040,
            "time": 12.3837135,
            "velocity": 0.8267716535433071
          },
          {
            "duration": 0.1744184999999998,
            "durationTicks": 240,
            "midi": 54,
            "name": "F#3",
            "ticks": 17040,
            "time": 12.3837135,
            "velocity": 0.8267716535433071
          },
          {
            "duration": 0.3488369999999996,
            "durationTicks": 480,
            "midi": 47,
            "name": "B2",
            "ticks": 17280,
            "time": 12.558132,
            "velocity": 0.7480314960629921
          },
          {
            "duration": 0.3488369999999996,
            "durationTicks": 480,
            "midi": 54,
            "name": "F#3",
            "ticks": 17280,
            "time": 12.558132,
            "velocity": 0.7480314960629921
          },
          {
            "duration": 0.3488369999999996,
            "durationTicks": 480,
            "midi": 47,
            "name": "B2",
            "ticks": 17760,
            "time": 12.906969,
            "velocity": 0.7480314960629921
          },
          {
            "duration": 0.3488370000000014,
            "durationTicks": 480,
            "midi": 47,
            "name": "B2",
            "ticks": 18240,
            "time": 13.255806,
            "velocity": 0.7952755905511811
          },
          {
            "duration": 0.3488370000000014,
            "durationTicks": 480,
            "midi": 54,
            "name": "F#3",
            "ticks": 18240,
            "time": 13.255806,
            "velocity": 0.6535433070866141
          },
          {
            "duration": 0.3488369999999996,
            "durationTicks": 480,
            "midi": 47,
            "name": "B2",
            "ticks": 18720,
            "time": 13.604643000000001,
            "velocity": 0.8267716535433071
          },
          {
            "duration": 0.3488369999999996,
            "durationTicks": 480,
            "midi": 54,
            "name": "F#3",
            "ticks": 18720,
            "time": 13.604643000000001,
            "velocity": 0.8267716535433071
          },
          {
            "duration": 0.3488369999999996,
            "durationTicks": 480,
            "midi": 47,
            "name": "B2",
            "ticks": 19200,
            "time": 13.95348,
            "velocity": 0.8267716535433071
          },
          {
            "duration": 0.3488369999999996,
            "durationTicks": 480,
            "midi": 54,
            "name": "F#3",
            "ticks": 19200,
            "time": 13.95348,
            "velocity": 0.8267716535433071
          },
          {
            "duration": 0.3488369999999996,
            "durationTicks": 480,
            "midi": 47,
            "name": "B2",
            "ticks": 19680,
            "time": 14.302317,
            "velocity": 0.7322834645669292
          },
          {
            "duration": 0.3488369999999996,
            "durationTicks": 480,
            "midi": 54,
            "name": "F#3",
            "ticks": 19680,
            "time": 14.302317,
            "velocity": 0.7952755905511811
          },
          {
            "duration": 0.3488369999999996,
            "durationTicks": 480,
            "midi": 47,
            "name": "B2",
            "ticks": 20160,
            "time": 14.651154,
            "velocity": 0.8110236220472441
          },
          {
            "duration": 0.3488369999999996,
            "durationTicks": 480,
            "midi": 54,
            "name": "F#3",
            "ticks": 20160,
            "time": 14.651154,
            "velocity": 0.84251968503937
          },
          {
            "duration": 0.1744185000000016,
            "durationTicks": 240,
            "midi": 47,
            "name": "B2",
            "ticks": 20640,
            "time": 14.999991,
            "velocity": 0.8740157480314961
          },
          {
            "duration": 0.1744185000000016,
            "durationTicks": 240,
            "midi": 54,
            "name": "F#3",
            "ticks": 20640,
            "time": 14.999991,
            "velocity": 0.8267716535433071
          },
          {
            "duration": 0.1744184999999998,
            "durationTicks": 240,
            "midi": 47,
            "name": "B2",
            "ticks": 20880,
            "time": 15.174409500000001,
            "velocity": 0.8740157480314961
          },
          {
            "duration": 0.1744184999999998,
            "durationTicks": 240,
            "midi": 54,
            "name": "F#3",
            "ticks": 20880,
            "time": 15.174409500000001,
            "velocity": 0.8267716535433071
          },
          {
            "duration": 0.3488369999999996,
            "durationTicks": 480,
            "midi": 47,
            "name": "B2",
            "ticks": 21120,
            "time": 15.348828000000001,
            "velocity": 0.8740157480314961
          },
          {
            "duration": 0.3488369999999996,
            "durationTicks": 480,
            "midi": 47,
            "name": "B2",
            "ticks": 21120,
            "time": 15.348828000000001,
            "velocity": 0.8582677165354331
          },
          {
            "duration": 0.3488369999999996,
            "durationTicks": 480,
            "midi": 54,
            "name": "F#3",
            "ticks": 21120,
            "time": 15.348828000000001,
            "velocity": 0.8267716535433071
          },
          {
            "duration": 0.3488369999999996,
            "durationTicks": 480,
            "midi": 54,
            "name": "F#3",
            "ticks": 21120,
            "time": 15.348828000000001,
            "velocity": 0.8582677165354331
          },
          {
            "duration": 0.3488369999999996,
            "durationTicks": 480,
            "midi": 47,
            "name": "B2",
            "ticks": 21600,
            "time": 15.697665,
            "velocity": 0.8582677165354331
          },
          {
            "duration": 0.3488369999999996,
            "durationTicks": 480,
            "midi": 47,
            "name": "B2",
            "ticks": 22080,
            "time": 16.046502,
            "velocity": 0.8582677165354331
          },
          {
            "duration": 0.3488369999999996,
            "durationTicks": 480,
            "midi": 54,
            "name": "F#3",
            "ticks": 22080,
            "time": 16.046502,
            "velocity": 0.8976377952755905
          },
          {
            "duration": 0.3488369999999996,
            "durationTicks": 480,
            "midi": 47,
            "name": "B2",
            "ticks": 22560,
            "time": 16.395339,
            "velocity": 0.8267716535433071
          },
          {
            "duration": 0.3488369999999996,
            "durationTicks": 480,
            "midi": 54,
            "name": "F#3",
            "ticks": 22560,
            "time": 16.395339,
            "velocity": 0.8267716535433071
          },
          {
            "duration": 0.3488369999999996,
            "durationTicks": 480,
            "midi": 47,
            "name": "B2",
            "ticks": 23040,
            "time": 16.744176,
            "velocity": 0.8267716535433071
          },
          {
            "duration": 0.3488369999999996,
            "durationTicks": 480,
            "midi": 54,
            "name": "F#3",
            "ticks": 23040,
            "time": 16.744176,
            "velocity": 0.8267716535433071
          },
          {
            "duration": 0.3488369999999996,
            "durationTicks": 480,
            "midi": 47,
            "name": "B2",
            "ticks": 23520,
            "time": 17.093013,
            "velocity": 0.8267716535433071
          },
          {
            "duration": 0.3488369999999996,
            "durationTicks": 480,
            "midi": 54,
            "name": "F#3",
            "ticks": 23520,
            "time": 17.093013,
            "velocity": 0.8267716535433071
          },
          {
            "duration": 0.3488370000000032,
            "durationTicks": 480,
            "midi": 47,
            "name": "B2",
            "ticks": 24000,
            "time": 17.44185,
            "velocity": 0.8267716535433071
          },
          {
            "duration": 0.3488370000000032,
            "durationTicks": 480,
            "midi": 54,
            "name": "F#3",
            "ticks": 24000,
            "time": 17.44185,
            "velocity": 0.8267716535433071
          },
          {
            "duration": 0.17441849999999803,
            "durationTicks": 240,
            "midi": 47,
            "name": "B2",
            "ticks": 24480,
            "time": 17.790687000000002,
            "velocity": 0.8267716535433071
          },
          {
            "duration": 0.17441849999999803,
            "durationTicks": 240,
            "midi": 54,
            "name": "F#3",
            "ticks": 24480,
            "time": 17.790687000000002,
            "velocity": 0.8267716535433071
          },
          {
            "duration": 0.1744185000000016,
            "durationTicks": 240,
            "midi": 47,
            "name": "B2",
            "ticks": 24720,
            "time": 17.9651055,
            "velocity": 0.8267716535433071
          },
          {
            "duration": 0.1744185000000016,
            "durationTicks": 240,
            "midi": 54,
            "name": "F#3",
            "ticks": 24720,
            "time": 17.9651055,
            "velocity": 0.8267716535433071
          },
          {
            "duration": 0.3488369999999996,
            "durationTicks": 480,
            "midi": 54,
            "name": "F#3",
            "ticks": 24960,
            "time": 18.139524,
            "velocity": 0.7480314960629921
          },
          {
            "duration": 0.3488369999999996,
            "durationTicks": 480,
            "midi": 61,
            "name": "C#4",
            "ticks": 24960,
            "time": 18.139524,
            "velocity": 0.8267716535433071
          },
          {
            "duration": 0.3488369999999996,
            "durationTicks": 480,
            "midi": 61,
            "name": "C#4",
            "ticks": 25440,
            "time": 18.488361,
            "velocity": 0.7480314960629921
          },
          {
            "duration": 0.3488369999999996,
            "durationTicks": 480,
            "midi": 54,
            "name": "F#3",
            "ticks": 25920,
            "time": 18.837198,
            "velocity": 0.6535433070866141
          },
          {
            "duration": 0.3488369999999996,
            "durationTicks": 480,
            "midi": 61,
            "name": "C#4",
            "ticks": 25920,
            "time": 18.837198,
            "velocity": 0.7952755905511811
          },
          {
            "duration": 0.3488369999999996,
            "durationTicks": 480,
            "midi": 54,
            "name": "F#3",
            "ticks": 26400,
            "time": 19.186035,
            "velocity": 0.8267716535433071
          },
          {
            "duration": 0.3488369999999996,
            "durationTicks": 480,
            "midi": 61,
            "name": "C#4",
            "ticks": 26400,
            "time": 19.186035,
            "velocity": 0.8267716535433071
          },
          {
            "duration": 0.3488369999999996,
            "durationTicks": 480,
            "midi": 54,
            "name": "F#3",
            "ticks": 26880,
            "time": 19.534872,
            "velocity": 0.8267716535433071
          },
          {
            "duration": 0.3488369999999996,
            "durationTicks": 480,
            "midi": 61,
            "name": "C#4",
            "ticks": 26880,
            "time": 19.534872,
            "velocity": 0.8267716535433071
          },
          {
            "duration": 0.3488369999999996,
            "durationTicks": 480,
            "midi": 54,
            "name": "F#3",
            "ticks": 27360,
            "time": 19.883709,
            "velocity": 0.7952755905511811
          },
          {
            "duration": 0.3488369999999996,
            "durationTicks": 480,
            "midi": 61,
            "name": "C#4",
            "ticks": 27360,
            "time": 19.883709,
            "velocity": 0.7322834645669292
          },
          {
            "duration": 0.3488369999999996,
            "durationTicks": 480,
            "midi": 54,
            "name": "F#3",
            "ticks": 27840,
            "time": 20.232546,
            "velocity": 0.84251968503937
          },
          {
            "duration": 0.3488369999999996,
            "durationTicks": 480,
            "midi": 61,
            "name": "C#4",
            "ticks": 27840,
            "time": 20.232546,
            "velocity": 0.8110236220472441
          },
          {
            "duration": 0.1744185000000016,
            "durationTicks": 240,
            "midi": 54,
            "name": "F#3",
            "ticks": 28320,
            "time": 20.581383,
            "velocity": 0.8267716535433071
          },
          {
            "duration": 0.1744185000000016,
            "durationTicks": 240,
            "midi": 61,
            "name": "C#4",
            "ticks": 28320,
            "time": 20.581383,
            "velocity": 0.8740157480314961
          },
          {
            "duration": 0.1744185000000016,
            "durationTicks": 240,
            "midi": 54,
            "name": "F#3",
            "ticks": 28560,
            "time": 20.7558015,
            "velocity": 0.8267716535433071
          },
          {
            "duration": 0.1744185000000016,
            "durationTicks": 240,
            "midi": 61,
            "name": "C#4",
            "ticks": 28560,
            "time": 20.7558015,
            "velocity": 0.8740157480314961
          },
          {
            "duration": 0.3488369999999996,
            "durationTicks": 480,
            "midi": 54,
            "name": "F#3",
            "ticks": 28800,
            "time": 20.930220000000002,
            "velocity": 0.8267716535433071
          },
          {
            "duration": 0.3488369999999996,
            "durationTicks": 480,
            "midi": 59,
            "name": "B3",
            "ticks": 28800,
            "time": 20.930220000000002,
            "velocity": 0.8582677165354331
          },
          {
            "duration": 0.3488369999999996,
            "durationTicks": 480,
            "midi": 59,
            "name": "B3",
            "ticks": 29280,
            "time": 21.279057,
            "velocity": 0.8582677165354331
          },
          {
            "duration": 0.3488369999999996,
            "durationTicks": 480,
            "midi": 54,
            "name": "F#3",
            "ticks": 29760,
            "time": 21.627894,
            "velocity": 0.8976377952755905
          },
          {
            "duration": 0.3488369999999996,
            "durationTicks": 480,
            "midi": 59,
            "name": "B3",
            "ticks": 29760,
            "time": 21.627894,
            "velocity": 0.8582677165354331
          },
          {
            "duration": 0.3488369999999996,
            "durationTicks": 480,
            "midi": 54,
            "name": "F#3",
            "ticks": 30240,
            "time": 21.976731,
            "velocity": 0.8267716535433071
          },
          {
            "duration": 0.3488369999999996,
            "durationTicks": 480,
            "midi": 59,
            "name": "B3",
            "ticks": 30240,
            "time": 21.976731,
            "velocity": 0.8267716535433071
          },
          {
            "duration": 0.3488369999999996,
            "durationTicks": 480,
            "midi": 54,
            "name": "F#3",
            "ticks": 30720,
            "time": 22.325568,
            "velocity": 0.8267716535433071
          },
          {
            "duration": 0.3488369999999996,
            "durationTicks": 480,
            "midi": 59,
            "name": "B3",
            "ticks": 30720,
            "time": 22.325568,
            "velocity": 0.8267716535433071
          },
          {
            "duration": 0.3488369999999996,
            "durationTicks": 480,
            "midi": 54,
            "name": "F#3",
            "ticks": 31200,
            "time": 22.674405,
            "velocity": 0.8267716535433071
          },
          {
            "duration": 0.3488369999999996,
            "durationTicks": 480,
            "midi": 59,
            "name": "B3",
            "ticks": 31200,
            "time": 22.674405,
            "velocity": 0.8267716535433071
          },
          {
            "duration": 0.3488369999999996,
            "durationTicks": 480,
            "midi": 54,
            "name": "F#3",
            "ticks": 31680,
            "time": 23.023242,
            "velocity": 0.8267716535433071
          },
          {
            "duration": 0.3488369999999996,
            "durationTicks": 480,
            "midi": 59,
            "name": "B3",
            "ticks": 31680,
            "time": 23.023242,
            "velocity": 0.8267716535433071
          },
          {
            "duration": 0.1744185000000016,
            "durationTicks": 240,
            "midi": 54,
            "name": "F#3",
            "ticks": 32160,
            "time": 23.372079,
            "velocity": 0.8267716535433071
          },
          {
            "duration": 0.1744185000000016,
            "durationTicks": 240,
            "midi": 59,
            "name": "B3",
            "ticks": 32160,
            "time": 23.372079,
            "velocity": 0.8267716535433071
          },
          {
            "duration": 0.17441849999999803,
            "durationTicks": 240,
            "midi": 54,
            "name": "F#3",
            "ticks": 32400,
            "time": 23.5464975,
            "velocity": 0.8267716535433071
          },
          {
            "duration": 0.17441849999999803,
            "durationTicks": 240,
            "midi": 59,
            "name": "B3",
            "ticks": 32400,
            "time": 23.5464975,
            "velocity": 0.8267716535433071
          },
          {
            "duration": 0.3488370000000032,
            "durationTicks": 480,
            "midi": 52,
            "name": "E3",
            "ticks": 32640,
            "time": 23.720916,
            "velocity": 0.7480314960629921
          },
          {
            "duration": 0.3488370000000032,
            "durationTicks": 480,
            "midi": 59,
            "name": "B3",
            "ticks": 32640,
            "time": 23.720916,
            "velocity": 0.7480314960629921
          },
          {
            "duration": 0.3488369999999996,
            "durationTicks": 480,
            "midi": 59,
            "name": "B3",
            "ticks": 33120,
            "time": 24.069753000000002,
            "velocity": 0.7480314960629921
          },
          {
            "duration": 0.3488369999999996,
            "durationTicks": 480,
            "midi": 52,
            "name": "E3",
            "ticks": 33600,
            "time": 24.418590000000002,
            "velocity": 0.6535433070866141
          },
          {
            "duration": 0.3488369999999996,
            "durationTicks": 480,
            "midi": 59,
            "name": "B3",
            "ticks": 33600,
            "time": 24.418590000000002,
            "velocity": 0.7952755905511811
          },
          {
            "duration": 0.3488369999999996,
            "durationTicks": 480,
            "midi": 52,
            "name": "E3",
            "ticks": 34080,
            "time": 24.767427,
            "velocity": 0.8267716535433071
          },
          {
            "duration": 0.3488369999999996,
            "durationTicks": 480,
            "midi": 59,
            "name": "B3",
            "ticks": 34080,
            "time": 24.767427,
            "velocity": 0.8267716535433071
          },
          {
            "duration": 0.3488369999999996,
            "durationTicks": 480,
            "midi": 52,
            "name": "E3",
            "ticks": 34560,
            "time": 25.116264,
            "velocity": 0.8267716535433071
          },
          {
            "duration": 0.3488369999999996,
            "durationTicks": 480,
            "midi": 59,
            "name": "B3",
            "ticks": 34560,
            "time": 25.116264,
            "velocity": 0.8267716535433071
          },
          {
            "duration": 0.3488369999999996,
            "durationTicks": 480,
            "midi": 52,
            "name": "E3",
            "ticks": 35040,
            "time": 25.465101,
            "velocity": 0.7952755905511811
          },
          {
            "duration": 0.3488369999999996,
            "durationTicks": 480,
            "midi": 59,
            "name": "B3",
            "ticks": 35040,
            "time": 25.465101,
            "velocity": 0.7322834645669292
          },
          {
            "duration": 0.3488369999999996,
            "durationTicks": 480,
            "midi": 52,
            "name": "E3",
            "ticks": 35520,
            "time": 25.813938,
            "velocity": 0.84251968503937
          },
          {
            "duration": 0.3488369999999996,
            "durationTicks": 480,
            "midi": 59,
            "name": "B3",
            "ticks": 35520,
            "time": 25.813938,
            "velocity": 0.8110236220472441
          },
          {
            "duration": 0.1744185000000016,
            "durationTicks": 240,
            "midi": 52,
            "name": "E3",
            "ticks": 36000,
            "time": 26.162775,
            "velocity": 0.8267716535433071
          },
          {
            "duration": 0.1744185000000016,
            "durationTicks": 240,
            "midi": 59,
            "name": "B3",
            "ticks": 36000,
            "time": 26.162775,
            "velocity": 0.8740157480314961
          },
          {
            "duration": 0.17441849999999803,
            "durationTicks": 240,
            "midi": 52,
            "name": "E3",
            "ticks": 36240,
            "time": 26.3371935,
            "velocity": 0.8267716535433071
          },
          {
            "duration": 0.17441849999999803,
            "durationTicks": 240,
            "midi": 59,
            "name": "B3",
            "ticks": 36240,
            "time": 26.3371935,
            "velocity": 0.8740157480314961
          },
          {
            "duration": 0.3488369999999996,
            "durationTicks": 480,
            "midi": 52,
            "name": "E3",
            "ticks": 36480,
            "time": 26.511612,
            "velocity": 0.8582677165354331
          },
          {
            "duration": 0.3488369999999996,
            "durationTicks": 480,
            "midi": 59,
            "name": "B3",
            "ticks": 36480,
            "time": 26.511612,
            "velocity": 0.8740157480314961
          },
          {
            "duration": 0.3488370000000032,
            "durationTicks": 480,
            "midi": 59,
            "name": "B3",
            "ticks": 36960,
            "time": 26.860449,
            "velocity": 0.8582677165354331
          },
          {
            "duration": 0.3488369999999996,
            "durationTicks": 480,
            "midi": 52,
            "name": "E3",
            "ticks": 37440,
            "time": 27.209286000000002,
            "velocity": 0.8976377952755905
          },
          {
            "duration": 0.3488369999999996,
            "durationTicks": 480,
            "midi": 59,
            "name": "B3",
            "ticks": 37440,
            "time": 27.209286000000002,
            "velocity": 0.8582677165354331
          },
          {
            "duration": 0.3488369999999996,
            "durationTicks": 480,
            "midi": 52,
            "name": "E3",
            "ticks": 37920,
            "time": 27.558123000000002,
            "velocity": 0.8267716535433071
          },
          {
            "duration": 0.3488369999999996,
            "durationTicks": 480,
            "midi": 59,
            "name": "B3",
            "ticks": 37920,
            "time": 27.558123000000002,
            "velocity": 0.8267716535433071
          },
          {
            "duration": 0.3488369999999996,
            "durationTicks": 480,
            "midi": 52,
            "name": "E3",
            "ticks": 38400,
            "time": 27.90696,
            "velocity": 0.8267716535433071
          },
          {
            "duration": 0.3488369999999996,
            "durationTicks": 480,
            "midi": 59,
            "name": "B3",
            "ticks": 38400,
            "time": 27.90696,
            "velocity": 0.8267716535433071
          },
          {
            "duration": 0.3488369999999996,
            "durationTicks": 480,
            "midi": 52,
            "name": "E3",
            "ticks": 38880,
            "time": 28.255797,
            "velocity": 0.8267716535433071
          },
          {
            "duration": 0.3488369999999996,
            "durationTicks": 480,
            "midi": 59,
            "name": "B3",
            "ticks": 38880,
            "time": 28.255797,
            "velocity": 0.8267716535433071
          },
          {
            "duration": 0.3488369999999996,
            "durationTicks": 480,
            "midi": 52,
            "name": "E3",
            "ticks": 39360,
            "time": 28.604634,
            "velocity": 0.8267716535433071
          },
          {
            "duration": 0.3488369999999996,
            "durationTicks": 480,
            "midi": 59,
            "name": "B3",
            "ticks": 39360,
            "time": 28.604634,
            "velocity": 0.8267716535433071
          },
          {
            "duration": 0.1744185000000016,
            "durationTicks": 240,
            "midi": 52,
            "name": "E3",
            "ticks": 39840,
            "time": 28.953471,
            "velocity": 0.8267716535433071
          },
          {
            "duration": 0.1744185000000016,
            "durationTicks": 240,
            "midi": 59,
            "name": "B3",
            "ticks": 39840,
            "time": 28.953471,
            "velocity": 0.8267716535433071
          },
          {
            "duration": 0.17441849999999803,
            "durationTicks": 240,
            "midi": 52,
            "name": "E3",
            "ticks": 40080,
            "time": 29.127889500000002,
            "velocity": 0.8267716535433071
          },
          {
            "duration": 0.17441849999999803,
            "durationTicks": 240,
            "midi": 59,
            "name": "B3",
            "ticks": 40080,
            "time": 29.127889500000002,
            "velocity": 0.8267716535433071
          },
          {
            "duration": 0.3488369999999996,
            "durationTicks": 480,
            "midi": 47,
            "name": "B2",
            "ticks": 40320,
            "time": 29.302308,
            "velocity": 0.7480314960629921
          },
          {
            "duration": 0.3488369999999996,
            "durationTicks": 480,
            "midi": 54,
            "name": "F#3",
            "ticks": 40320,
            "time": 29.302308,
            "velocity": 0.7480314960629921
          },
          {
            "duration": 0.3488369999999996,
            "durationTicks": 480,
            "midi": 47,
            "name": "B2",
            "ticks": 40800,
            "time": 29.651145,
            "velocity": 0.7480314960629921
          },
          {
            "duration": 0.3488370000000032,
            "durationTicks": 480,
            "midi": 47,
            "name": "B2",
            "ticks": 41280,
            "time": 29.999982,
            "velocity": 0.7952755905511811
          },
          {
            "duration": 0.3488370000000032,
            "durationTicks": 480,
            "midi": 54,
            "name": "F#3",
            "ticks": 41280,
            "time": 29.999982,
            "velocity": 0.6535433070866141
          },
          {
            "duration": 0.3488369999999996,
            "durationTicks": 480,
            "midi": 47,
            "name": "B2",
            "ticks": 41760,
            "time": 30.348819000000002,
            "velocity": 0.8267716535433071
          },
          {
            "duration": 0.3488369999999996,
            "durationTicks": 480,
            "midi": 54,
            "name": "F#3",
            "ticks": 41760,
            "time": 30.348819000000002,
            "velocity": 0.8267716535433071
          },
          {
            "duration": 0.3488369999999996,
            "durationTicks": 480,
            "midi": 47,
            "name": "B2",
            "ticks": 42240,
            "time": 30.697656000000002,
            "velocity": 0.8267716535433071
          },
          {
            "duration": 0.3488369999999996,
            "durationTicks": 480,
            "midi": 54,
            "name": "F#3",
            "ticks": 42240,
            "time": 30.697656000000002,
            "velocity": 0.8267716535433071
          },
          {
            "duration": 0.3488369999999996,
            "durationTicks": 480,
            "midi": 47,
            "name": "B2",
            "ticks": 42720,
            "time": 31.046493,
            "velocity": 0.7322834645669292
          },
          {
            "duration": 0.3488369999999996,
            "durationTicks": 480,
            "midi": 54,
            "name": "F#3",
            "ticks": 42720,
            "time": 31.046493,
            "velocity": 0.7952755905511811
          },
          {
            "duration": 0.3488369999999996,
            "durationTicks": 480,
            "midi": 47,
            "name": "B2",
            "ticks": 43200,
            "time": 31.39533,
            "velocity": 0.8110236220472441
          },
          {
            "duration": 0.3488369999999996,
            "durationTicks": 480,
            "midi": 54,
            "name": "F#3",
            "ticks": 43200,
            "time": 31.39533,
            "velocity": 0.84251968503937
          },
          {
            "duration": 0.1744185000000016,
            "durationTicks": 240,
            "midi": 47,
            "name": "B2",
            "ticks": 43680,
            "time": 31.744167,
            "velocity": 0.8740157480314961
          },
          {
            "duration": 0.1744185000000016,
            "durationTicks": 240,
            "midi": 54,
            "name": "F#3",
            "ticks": 43680,
            "time": 31.744167,
            "velocity": 0.8267716535433071
          },
          {
            "duration": 0.17441849999999803,
            "durationTicks": 240,
            "midi": 47,
            "name": "B2",
            "ticks": 43920,
            "time": 31.918585500000002,
            "velocity": 0.8740157480314961
          },
          {
            "duration": 0.17441849999999803,
            "durationTicks": 240,
            "midi": 54,
            "name": "F#3",
            "ticks": 43920,
            "time": 31.918585500000002,
            "velocity": 0.8267716535433071
          },
          {
            "duration": 0.3488370000000032,
            "durationTicks": 480,
            "midi": 47,
            "name": "B2",
            "ticks": 44160,
            "time": 32.093004,
            "velocity": 0.8582677165354331
          },
          {
            "duration": 0.3488370000000032,
            "durationTicks": 480,
            "midi": 54,
            "name": "F#3",
            "ticks": 44160,
            "time": 32.093004,
            "velocity": 0.8267716535433071
          },
          {
            "duration": 0.34883699999999607,
            "durationTicks": 480,
            "midi": 47,
            "name": "B2",
            "ticks": 44640,
            "time": 32.441841000000004,
            "velocity": 0.8582677165354331
          },
          {
            "duration": 0.3488370000000032,
            "durationTicks": 480,
            "midi": 47,
            "name": "B2",
            "ticks": 45120,
            "time": 32.790678,
            "velocity": 0.8582677165354331
          },
          {
            "duration": 0.3488370000000032,
            "durationTicks": 480,
            "midi": 54,
            "name": "F#3",
            "ticks": 45120,
            "time": 32.790678,
            "velocity": 0.8976377952755905
          },
          {
            "duration": 0.34883699999999607,
            "durationTicks": 480,
            "midi": 47,
            "name": "B2",
            "ticks": 45600,
            "time": 33.139515,
            "velocity": 0.8267716535433071
          },
          {
            "duration": 0.34883699999999607,
            "durationTicks": 480,
            "midi": 54,
            "name": "F#3",
            "ticks": 45600,
            "time": 33.139515,
            "velocity": 0.8267716535433071
          },
          {
            "duration": 0.3488370000000032,
            "durationTicks": 480,
            "midi": 47,
            "name": "B2",
            "ticks": 46080,
            "time": 33.488352,
            "velocity": 0.8267716535433071
          },
          {
            "duration": 0.3488370000000032,
            "durationTicks": 480,
            "midi": 54,
            "name": "F#3",
            "ticks": 46080,
            "time": 33.488352,
            "velocity": 0.8267716535433071
          },
          {
            "duration": 0.34883699999999607,
            "durationTicks": 480,
            "midi": 47,
            "name": "B2",
            "ticks": 46560,
            "time": 33.837189,
            "velocity": 0.8267716535433071
          },
          {
            "duration": 0.34883699999999607,
            "durationTicks": 480,
            "midi": 54,
            "name": "F#3",
            "ticks": 46560,
            "time": 33.837189,
            "velocity": 0.8267716535433071
          },
          {
            "duration": 0.3488370000000032,
            "durationTicks": 480,
            "midi": 47,
            "name": "B2",
            "ticks": 47040,
            "time": 34.186026,
            "velocity": 0.8267716535433071
          },
          {
            "duration": 0.3488370000000032,
            "durationTicks": 480,
            "midi": 54,
            "name": "F#3",
            "ticks": 47040,
            "time": 34.186026,
            "velocity": 0.8267716535433071
          },
          {
            "duration": 0.1744185000000016,
            "durationTicks": 240,
            "midi": 47,
            "name": "B2",
            "ticks": 47520,
            "time": 34.534863,
            "velocity": 0.8267716535433071
          },
          {
            "duration": 0.1744185000000016,
            "durationTicks": 240,
            "midi": 54,
            "name": "F#3",
            "ticks": 47520,
            "time": 34.534863,
            "velocity": 0.8267716535433071
          },
          {
            "duration": 0.17441849999999448,
            "durationTicks": 240,
            "midi": 47,
            "name": "B2",
            "ticks": 47760,
            "time": 34.7092815,
            "velocity": 0.8267716535433071
          },
          {
            "duration": 0.17441849999999448,
            "durationTicks": 240,
            "midi": 54,
            "name": "F#3",
            "ticks": 47760,
            "time": 34.7092815,
            "velocity": 0.8267716535433071
          },
          {
            "duration": 0.3488370000000032,
            "durationTicks": 480,
            "midi": 47,
            "name": "B2",
            "ticks": 155520,
            "time": 113.023188,
            "velocity": 0.7480314960629921
          },
          {
            "duration": 0.3488370000000032,
            "durationTicks": 480,
            "midi": 54,
            "name": "F#3",
            "ticks": 155520,
            "time": 113.023188,
            "velocity": 0.7480314960629921
          },
          {
            "duration": 0.34883699999998896,
            "durationTicks": 480,
            "midi": 47,
            "name": "B2",
            "ticks": 156000,
            "time": 113.37202500000001,
            "velocity": 0.7480314960629921
          },
          {
            "duration": 0.3488370000000032,
            "durationTicks": 480,
            "midi": 47,
            "name": "B2",
            "ticks": 156480,
            "time": 113.720862,
            "velocity": 0.7952755905511811
          },
          {
            "duration": 0.3488370000000032,
            "durationTicks": 480,
            "midi": 54,
            "name": "F#3",
            "ticks": 156480,
            "time": 113.720862,
            "velocity": 0.6535433070866141
          },
          {
            "duration": 0.3488370000000032,
            "durationTicks": 480,
            "midi": 47,
            "name": "B2",
            "ticks": 156960,
            "time": 114.069699,
            "velocity": 0.8267716535433071
          },
          {
            "duration": 0.3488370000000032,
            "durationTicks": 480,
            "midi": 54,
            "name": "F#3",
            "ticks": 156960,
            "time": 114.069699,
            "velocity": 0.8267716535433071
          },
          {
            "duration": 0.3488370000000032,
            "durationTicks": 480,
            "midi": 47,
            "name": "B2",
            "ticks": 157440,
            "time": 114.418536,
            "velocity": 0.8267716535433071
          },
          {
            "duration": 0.3488370000000032,
            "durationTicks": 480,
            "midi": 54,
            "name": "F#3",
            "ticks": 157440,
            "time": 114.418536,
            "velocity": 0.8267716535433071
          },
          {
            "duration": 0.3488370000000032,
            "durationTicks": 480,
            "midi": 47,
            "name": "B2",
            "ticks": 157920,
            "time": 114.767373,
            "velocity": 0.7322834645669292
          },
          {
            "duration": 0.3488370000000032,
            "durationTicks": 480,
            "midi": 54,
            "name": "F#3",
            "ticks": 157920,
            "time": 114.767373,
            "velocity": 0.7952755905511811
          },
          {
            "duration": 0.34883699999998896,
            "durationTicks": 480,
            "midi": 47,
            "name": "B2",
            "ticks": 158400,
            "time": 115.11621000000001,
            "velocity": 0.8110236220472441
          },
          {
            "duration": 0.34883699999998896,
            "durationTicks": 480,
            "midi": 54,
            "name": "F#3",
            "ticks": 158400,
            "time": 115.11621000000001,
            "velocity": 0.84251968503937
          },
          {
            "duration": 0.1744185000000016,
            "durationTicks": 240,
            "midi": 47,
            "name": "B2",
            "ticks": 158880,
            "time": 115.465047,
            "velocity": 0.8740157480314961
          },
          {
            "duration": 0.1744185000000016,
            "durationTicks": 240,
            "midi": 54,
            "name": "F#3",
            "ticks": 158880,
            "time": 115.465047,
            "velocity": 0.8267716535433071
          },
          {
            "duration": 0.1744185000000016,
            "durationTicks": 240,
            "midi": 47,
            "name": "B2",
            "ticks": 159120,
            "time": 115.6394655,
            "velocity": 0.8740157480314961
          },
          {
            "duration": 0.1744185000000016,
            "durationTicks": 240,
            "midi": 54,
            "name": "F#3",
            "ticks": 159120,
            "time": 115.6394655,
            "velocity": 0.8267716535433071
          },
          {
            "duration": 0.3488370000000032,
            "durationTicks": 480,
            "midi": 47,
            "name": "B2",
            "ticks": 159360,
            "time": 115.813884,
            "velocity": 0.8740157480314961
          },
          {
            "duration": 0.3488370000000032,
            "durationTicks": 480,
            "midi": 47,
            "name": "B2",
            "ticks": 159360,
            "time": 115.813884,
            "velocity": 0.8582677165354331
          },
          {
            "duration": 0.3488370000000032,
            "durationTicks": 480,
            "midi": 54,
            "name": "F#3",
            "ticks": 159360,
            "time": 115.813884,
            "velocity": 0.8582677165354331
          },
          {
            "duration": 0.3488370000000032,
            "durationTicks": 480,
            "midi": 54,
            "name": "F#3",
            "ticks": 159360,
            "time": 115.813884,
            "velocity": 0.8267716535433071
          },
          {
            "duration": 0.3488370000000032,
            "durationTicks": 480,
            "midi": 47,
            "name": "B2",
            "ticks": 159840,
            "time": 116.162721,
            "velocity": 0.8582677165354331
          },
          {
            "duration": 0.34883699999998896,
            "durationTicks": 480,
            "midi": 47,
            "name": "B2",
            "ticks": 160320,
            "time": 116.51155800000001,
            "velocity": 0.8582677165354331
          },
          {
            "duration": 0.34883699999998896,
            "durationTicks": 480,
            "midi": 54,
            "name": "F#3",
            "ticks": 160320,
            "time": 116.51155800000001,
            "velocity": 0.8976377952755905
          },
          {
            "duration": 0.3488370000000032,
            "durationTicks": 480,
            "midi": 47,
            "name": "B2",
            "ticks": 160800,
            "time": 116.860395,
            "velocity": 0.8267716535433071
          },
          {
            "duration": 0.3488370000000032,
            "durationTicks": 480,
            "midi": 54,
            "name": "F#3",
            "ticks": 160800,
            "time": 116.860395,
            "velocity": 0.8267716535433071
          },
          {
            "duration": 0.3488370000000032,
            "durationTicks": 480,
            "midi": 47,
            "name": "B2",
            "ticks": 161280,
            "time": 117.209232,
            "velocity": 0.8267716535433071
          },
          {
            "duration": 0.3488370000000032,
            "durationTicks": 480,
            "midi": 54,
            "name": "F#3",
            "ticks": 161280,
            "time": 117.209232,
            "velocity": 0.8267716535433071
          },
          {
            "duration": 0.3488370000000032,
            "durationTicks": 480,
            "midi": 47,
            "name": "B2",
            "ticks": 161760,
            "time": 117.558069,
            "velocity": 0.8267716535433071
          },
          {
            "duration": 0.3488370000000032,
            "durationTicks": 480,
            "midi": 54,
            "name": "F#3",
            "ticks": 161760,
            "time": 117.558069,
            "velocity": 0.8267716535433071
          },
          {
            "duration": 0.3488370000000032,
            "durationTicks": 480,
            "midi": 47,
            "name": "B2",
            "ticks": 162240,
            "time": 117.906906,
            "velocity": 0.8267716535433071
          },
          {
            "duration": 0.3488370000000032,
            "durationTicks": 480,
            "midi": 54,
            "name": "F#3",
            "ticks": 162240,
            "time": 117.906906,
            "velocity": 0.8267716535433071
          },
          {
            "duration": 0.17441849999998738,
            "durationTicks": 240,
            "midi": 47,
            "name": "B2",
            "ticks": 162720,
            "time": 118.25574300000001,
            "velocity": 0.8267716535433071
          },
          {
            "duration": 0.17441849999998738,
            "durationTicks": 240,
            "midi": 54,
            "name": "F#3",
            "ticks": 162720,
            "time": 118.25574300000001,
            "velocity": 0.8267716535433071
          },
          {
            "duration": 0.1744185000000016,
            "durationTicks": 240,
            "midi": 47,
            "name": "B2",
            "ticks": 162960,
            "time": 118.4301615,
            "velocity": 0.8267716535433071
          },
          {
            "duration": 0.1744185000000016,
            "durationTicks": 240,
            "midi": 54,
            "name": "F#3",
            "ticks": 162960,
            "time": 118.4301615,
            "velocity": 0.8267716535433071
          },
          {
            "duration": 0.3488370000000032,
            "durationTicks": 480,
            "midi": 54,
            "name": "F#3",
            "ticks": 163200,
            "time": 118.60458,
            "velocity": 0.7480314960629921
          },
          {
            "duration": 0.3488370000000032,
            "durationTicks": 480,
            "midi": 61,
            "name": "C#4",
            "ticks": 163200,
            "time": 118.60458,
            "velocity": 0.8267716535433071
          },
          {
            "duration": 0.3488370000000032,
            "durationTicks": 480,
            "midi": 61,
            "name": "C#4",
            "ticks": 163680,
            "time": 118.953417,
            "velocity": 0.7480314960629921
          },
          {
            "duration": 0.3488370000000032,
            "durationTicks": 480,
            "midi": 54,
            "name": "F#3",
            "ticks": 164160,
            "time": 119.302254,
            "velocity": 0.6535433070866141
          },
          {
            "duration": 0.3488370000000032,
            "durationTicks": 480,
            "midi": 61,
            "name": "C#4",
            "ticks": 164160,
            "time": 119.302254,
            "velocity": 0.7952755905511811
          },
          {
            "duration": 0.34883699999998896,
            "durationTicks": 480,
            "midi": 54,
            "name": "F#3",
            "ticks": 164640,
            "time": 119.65109100000001,
            "velocity": 0.8267716535433071
          },
          {
            "duration": 0.34883699999998896,
            "durationTicks": 480,
            "midi": 61,
            "name": "C#4",
            "ticks": 164640,
            "time": 119.65109100000001,
            "velocity": 0.8267716535433071
          },
          {
            "duration": 0.3488370000000032,
            "durationTicks": 480,
            "midi": 54,
            "name": "F#3",
            "ticks": 165120,
            "time": 119.999928,
            "velocity": 0.8267716535433071
          },
          {
            "duration": 0.3488370000000032,
            "durationTicks": 480,
            "midi": 61,
            "name": "C#4",
            "ticks": 165120,
            "time": 119.999928,
            "velocity": 0.8267716535433071
          },
          {
            "duration": 0.3488370000000032,
            "durationTicks": 480,
            "midi": 54,
            "name": "F#3",
            "ticks": 165600,
            "time": 120.348765,
            "velocity": 0.7952755905511811
          },
          {
            "duration": 0.3488370000000032,
            "durationTicks": 480,
            "midi": 61,
            "name": "C#4",
            "ticks": 165600,
            "time": 120.348765,
            "velocity": 0.7322834645669292
          },
          {
            "duration": 0.3488370000000032,
            "durationTicks": 480,
            "midi": 54,
            "name": "F#3",
            "ticks": 166080,
            "time": 120.697602,
            "velocity": 0.84251968503937
          },
          {
            "duration": 0.3488370000000032,
            "durationTicks": 480,
            "midi": 61,
            "name": "C#4",
            "ticks": 166080,
            "time": 120.697602,
            "velocity": 0.8110236220472441
          },
          {
            "duration": 0.1744185000000016,
            "durationTicks": 240,
            "midi": 54,
            "name": "F#3",
            "ticks": 166560,
            "time": 121.046439,
            "velocity": 0.8267716535433071
          },
          {
            "duration": 0.1744185000000016,
            "durationTicks": 240,
            "midi": 61,
            "name": "C#4",
            "ticks": 166560,
            "time": 121.046439,
            "velocity": 0.8740157480314961
          },
          {
            "duration": 0.1744185000000016,
            "durationTicks": 240,
            "midi": 54,
            "name": "F#3",
            "ticks": 166800,
            "time": 121.22085750000001,
            "velocity": 0.8267716535433071
          },
          {
            "duration": 0.1744185000000016,
            "durationTicks": 240,
            "midi": 61,
            "name": "C#4",
            "ticks": 166800,
            "time": 121.22085750000001,
            "velocity": 0.8740157480314961
          },
          {
            "duration": 0.34883699999998896,
            "durationTicks": 480,
            "midi": 54,
            "name": "F#3",
            "ticks": 167040,
            "time": 121.39527600000001,
            "velocity": 0.8267716535433071
          },
          {
            "duration": 0.34883699999998896,
            "durationTicks": 480,
            "midi": 59,
            "name": "B3",
            "ticks": 167040,
            "time": 121.39527600000001,
            "velocity": 0.8582677165354331
          },
          {
            "duration": 0.3488370000000032,
            "durationTicks": 480,
            "midi": 59,
            "name": "B3",
            "ticks": 167520,
            "time": 121.744113,
            "velocity": 0.8582677165354331
          },
          {
            "duration": 0.3488370000000032,
            "durationTicks": 480,
            "midi": 54,
            "name": "F#3",
            "ticks": 168000,
            "time": 122.09295,
            "velocity": 0.8976377952755905
          },
          {
            "duration": 0.3488370000000032,
            "durationTicks": 480,
            "midi": 59,
            "name": "B3",
            "ticks": 168000,
            "time": 122.09295,
            "velocity": 0.8582677165354331
          },
          {
            "duration": 0.3488370000000032,
            "durationTicks": 480,
            "midi": 54,
            "name": "F#3",
            "ticks": 168480,
            "time": 122.441787,
            "velocity": 0.8267716535433071
          },
          {
            "duration": 0.3488370000000032,
            "durationTicks": 480,
            "midi": 59,
            "name": "B3",
            "ticks": 168480,
            "time": 122.441787,
            "velocity": 0.8267716535433071
          },
          {
            "duration": 0.34883699999998896,
            "durationTicks": 480,
            "midi": 54,
            "name": "F#3",
            "ticks": 168960,
            "time": 122.79062400000001,
            "velocity": 0.8267716535433071
          },
          {
            "duration": 0.34883699999998896,
            "durationTicks": 480,
            "midi": 59,
            "name": "B3",
            "ticks": 168960,
            "time": 122.79062400000001,
            "velocity": 0.8267716535433071
          },
          {
            "duration": 0.3488370000000032,
            "durationTicks": 480,
            "midi": 54,
            "name": "F#3",
            "ticks": 169440,
            "time": 123.139461,
            "velocity": 0.8267716535433071
          },
          {
            "duration": 0.3488370000000032,
            "durationTicks": 480,
            "midi": 59,
            "name": "B3",
            "ticks": 169440,
            "time": 123.139461,
            "velocity": 0.8267716535433071
          },
          {
            "duration": 0.3488370000000032,
            "durationTicks": 480,
            "midi": 54,
            "name": "F#3",
            "ticks": 169920,
            "time": 123.488298,
            "velocity": 0.8267716535433071
          },
          {
            "duration": 0.3488370000000032,
            "durationTicks": 480,
            "midi": 59,
            "name": "B3",
            "ticks": 169920,
            "time": 123.488298,
            "velocity": 0.8267716535433071
          },
          {
            "duration": 0.1744185000000016,
            "durationTicks": 240,
            "midi": 54,
            "name": "F#3",
            "ticks": 170400,
            "time": 123.837135,
            "velocity": 0.8267716535433071
          },
          {
            "duration": 0.1744185000000016,
            "durationTicks": 240,
            "midi": 59,
            "name": "B3",
            "ticks": 170400,
            "time": 123.837135,
            "velocity": 0.8267716535433071
          },
          {
            "duration": 0.1744185000000016,
            "durationTicks": 240,
            "midi": 54,
            "name": "F#3",
            "ticks": 170640,
            "time": 124.0115535,
            "velocity": 0.8267716535433071
          },
          {
            "duration": 0.1744185000000016,
            "durationTicks": 240,
            "midi": 59,
            "name": "B3",
            "ticks": 170640,
            "time": 124.0115535,
            "velocity": 0.8267716535433071
          },
          {
            "duration": 0.3488370000000032,
            "durationTicks": 480,
            "midi": 52,
            "name": "E3",
            "ticks": 170880,
            "time": 124.185972,
            "velocity": 0.7480314960629921
          },
          {
            "duration": 0.3488370000000032,
            "durationTicks": 480,
            "midi": 59,
            "name": "B3",
            "ticks": 170880,
            "time": 124.185972,
            "velocity": 0.7480314960629921
          },
          {
            "duration": 0.34883699999998896,
            "durationTicks": 480,
            "midi": 59,
            "name": "B3",
            "ticks": 171360,
            "time": 124.53480900000001,
            "velocity": 0.7480314960629921
          },
          {
            "duration": 0.3488370000000032,
            "durationTicks": 480,
            "midi": 52,
            "name": "E3",
            "ticks": 171840,
            "time": 124.883646,
            "velocity": 0.6535433070866141
          },
          {
            "duration": 0.3488370000000032,
            "durationTicks": 480,
            "midi": 59,
            "name": "B3",
            "ticks": 171840,
            "time": 124.883646,
            "velocity": 0.7952755905511811
          },
          {
            "duration": 0.3488370000000032,
            "durationTicks": 480,
            "midi": 52,
            "name": "E3",
            "ticks": 172320,
            "time": 125.232483,
            "velocity": 0.8267716535433071
          },
          {
            "duration": 0.3488370000000032,
            "durationTicks": 480,
            "midi": 59,
            "name": "B3",
            "ticks": 172320,
            "time": 125.232483,
            "velocity": 0.8267716535433071
          },
          {
            "duration": 0.3488370000000032,
            "durationTicks": 480,
            "midi": 52,
            "name": "E3",
            "ticks": 172800,
            "time": 125.58132,
            "velocity": 0.8267716535433071
          },
          {
            "duration": 0.3488370000000032,
            "durationTicks": 480,
            "midi": 59,
            "name": "B3",
            "ticks": 172800,
            "time": 125.58132,
            "velocity": 0.8267716535433071
          },
          {
            "duration": 0.34883699999998896,
            "durationTicks": 480,
            "midi": 52,
            "name": "E3",
            "ticks": 173280,
            "time": 125.93015700000001,
            "velocity": 0.7952755905511811
          },
          {
            "duration": 0.34883699999998896,
            "durationTicks": 480,
            "midi": 59,
            "name": "B3",
            "ticks": 173280,
            "time": 125.93015700000001,
            "velocity": 0.7322834645669292
          },
          {
            "duration": 0.3488370000000032,
            "durationTicks": 480,
            "midi": 52,
            "name": "E3",
            "ticks": 173760,
            "time": 126.278994,
            "velocity": 0.84251968503937
          },
          {
            "duration": 0.3488370000000032,
            "durationTicks": 480,
            "midi": 59,
            "name": "B3",
            "ticks": 173760,
            "time": 126.278994,
            "velocity": 0.8110236220472441
          },
          {
            "duration": 0.1744185000000016,
            "durationTicks": 240,
            "midi": 52,
            "name": "E3",
            "ticks": 174240,
            "time": 126.627831,
            "velocity": 0.8267716535433071
          },
          {
            "duration": 0.1744185000000016,
            "durationTicks": 240,
            "midi": 59,
            "name": "B3",
            "ticks": 174240,
            "time": 126.627831,
            "velocity": 0.8740157480314961
          },
          {
            "duration": 0.1744185000000016,
            "durationTicks": 240,
            "midi": 52,
            "name": "E3",
            "ticks": 174480,
            "time": 126.8022495,
            "velocity": 0.8267716535433071
          },
          {
            "duration": 0.1744185000000016,
            "durationTicks": 240,
            "midi": 59,
            "name": "B3",
            "ticks": 174480,
            "time": 126.8022495,
            "velocity": 0.8740157480314961
          },
          {
            "duration": 0.3488370000000032,
            "durationTicks": 480,
            "midi": 52,
            "name": "E3",
            "ticks": 174720,
            "time": 126.976668,
            "velocity": 0.8582677165354331
          },
          {
            "duration": 0.3488370000000032,
            "durationTicks": 480,
            "midi": 59,
            "name": "B3",
            "ticks": 174720,
            "time": 126.976668,
            "velocity": 0.8740157480314961
          },
          {
            "duration": 0.3488370000000032,
            "durationTicks": 480,
            "midi": 59,
            "name": "B3",
            "ticks": 175200,
            "time": 127.325505,
            "velocity": 0.8582677165354331
          },
          {
            "duration": 0.34883699999998896,
            "durationTicks": 480,
            "midi": 52,
            "name": "E3",
            "ticks": 175680,
            "time": 127.67434200000001,
            "velocity": 0.8976377952755905
          },
          {
            "duration": 0.34883699999998896,
            "durationTicks": 480,
            "midi": 59,
            "name": "B3",
            "ticks": 175680,
            "time": 127.67434200000001,
            "velocity": 0.8582677165354331
          },
          {
            "duration": 0.3488370000000032,
            "durationTicks": 480,
            "midi": 52,
            "name": "E3",
            "ticks": 176160,
            "time": 128.023179,
            "velocity": 0.8267716535433071
          },
          {
            "duration": 0.3488370000000032,
            "durationTicks": 480,
            "midi": 59,
            "name": "B3",
            "ticks": 176160,
            "time": 128.023179,
            "velocity": 0.8267716535433071
          },
          {
            "duration": 0.3488370000000032,
            "durationTicks": 480,
            "midi": 52,
            "name": "E3",
            "ticks": 176640,
            "time": 128.372016,
            "velocity": 0.8267716535433071
          },
          {
            "duration": 0.3488370000000032,
            "durationTicks": 480,
            "midi": 59,
            "name": "B3",
            "ticks": 176640,
            "time": 128.372016,
            "velocity": 0.8267716535433071
          },
          {
            "duration": 0.3488370000000032,
            "durationTicks": 480,
            "midi": 52,
            "name": "E3",
            "ticks": 177120,
            "time": 128.720853,
            "velocity": 0.8267716535433071
          },
          {
            "duration": 0.3488370000000032,
            "durationTicks": 480,
            "midi": 59,
            "name": "B3",
            "ticks": 177120,
            "time": 128.720853,
            "velocity": 0.8267716535433071
          },
          {
            "duration": 0.3488370000000032,
            "durationTicks": 480,
            "midi": 52,
            "name": "E3",
            "ticks": 177600,
            "time": 129.06969,
            "velocity": 0.8267716535433071
          },
          {
            "duration": 0.3488370000000032,
            "durationTicks": 480,
            "midi": 59,
            "name": "B3",
            "ticks": 177600,
            "time": 129.06969,
            "velocity": 0.8267716535433071
          },
          {
            "duration": 0.1744185000000016,
            "durationTicks": 240,
            "midi": 52,
            "name": "E3",
            "ticks": 178080,
            "time": 129.418527,
            "velocity": 0.8267716535433071
          },
          {
            "duration": 0.1744185000000016,
            "durationTicks": 240,
            "midi": 59,
            "name": "B3",
            "ticks": 178080,
            "time": 129.418527,
            "velocity": 0.8267716535433071
          },
          {
            "duration": 0.1744185000000016,
            "durationTicks": 240,
            "midi": 52,
            "name": "E3",
            "ticks": 178320,
            "time": 129.5929455,
            "velocity": 0.8267716535433071
          },
          {
            "duration": 0.1744185000000016,
            "durationTicks": 240,
            "midi": 59,
            "name": "B3",
            "ticks": 178320,
            "time": 129.5929455,
            "velocity": 0.8267716535433071
          },
          {
            "duration": 0.34883699999997475,
            "durationTicks": 480,
            "midi": 47,
            "name": "B2",
            "ticks": 178560,
            "time": 129.76736400000001,
            "velocity": 0.7480314960629921
          },
          {
            "duration": 0.34883699999997475,
            "durationTicks": 480,
            "midi": 54,
            "name": "F#3",
            "ticks": 178560,
            "time": 129.76736400000001,
            "velocity": 0.7480314960629921
          },
          {
            "duration": 0.3488370000000032,
            "durationTicks": 480,
            "midi": 47,
            "name": "B2",
            "ticks": 179040,
            "time": 130.116201,
            "velocity": 0.7480314960629921
          },
          {
            "duration": 0.3488370000000032,
            "durationTicks": 480,
            "midi": 47,
            "name": "B2",
            "ticks": 179520,
            "time": 130.465038,
            "velocity": 0.7952755905511811
          },
          {
            "duration": 0.3488370000000032,
            "durationTicks": 480,
            "midi": 54,
            "name": "F#3",
            "ticks": 179520,
            "time": 130.465038,
            "velocity": 0.6535433070866141
          },
          {
            "duration": 0.3488370000000032,
            "durationTicks": 480,
            "midi": 47,
            "name": "B2",
            "ticks": 180000,
            "time": 130.813875,
            "velocity": 0.8267716535433071
          },
          {
            "duration": 0.3488370000000032,
            "durationTicks": 480,
            "midi": 54,
            "name": "F#3",
            "ticks": 180000,
            "time": 130.813875,
            "velocity": 0.8267716535433071
          },
          {
            "duration": 0.3488370000000032,
            "durationTicks": 480,
            "midi": 47,
            "name": "B2",
            "ticks": 180480,
            "time": 131.162712,
            "velocity": 0.8267716535433071
          },
          {
            "duration": 0.3488370000000032,
            "durationTicks": 480,
            "midi": 54,
            "name": "F#3",
            "ticks": 180480,
            "time": 131.162712,
            "velocity": 0.8267716535433071
          },
          {
            "duration": 0.3488370000000032,
            "durationTicks": 480,
            "midi": 47,
            "name": "B2",
            "ticks": 180960,
            "time": 131.511549,
            "velocity": 0.7322834645669292
          },
          {
            "duration": 0.3488370000000032,
            "durationTicks": 480,
            "midi": 54,
            "name": "F#3",
            "ticks": 180960,
            "time": 131.511549,
            "velocity": 0.7952755905511811
          },
          {
            "duration": 0.3488370000000032,
            "durationTicks": 480,
            "midi": 47,
            "name": "B2",
            "ticks": 181440,
            "time": 131.860386,
            "velocity": 0.8110236220472441
          },
          {
            "duration": 0.3488370000000032,
            "durationTicks": 480,
            "midi": 54,
            "name": "F#3",
            "ticks": 181440,
            "time": 131.860386,
            "velocity": 0.84251968503937
          },
          {
            "duration": 0.1744185000000016,
            "durationTicks": 240,
            "midi": 47,
            "name": "B2",
            "ticks": 181920,
            "time": 132.209223,
            "velocity": 0.8740157480314961
          },
          {
            "duration": 0.1744185000000016,
            "durationTicks": 240,
            "midi": 54,
            "name": "F#3",
            "ticks": 181920,
            "time": 132.209223,
            "velocity": 0.8267716535433071
          },
          {
            "duration": 0.1744185000000016,
            "durationTicks": 240,
            "midi": 47,
            "name": "B2",
            "ticks": 182160,
            "time": 132.3836415,
            "velocity": 0.8740157480314961
          },
          {
            "duration": 0.1744185000000016,
            "durationTicks": 240,
            "midi": 54,
            "name": "F#3",
            "ticks": 182160,
            "time": 132.3836415,
            "velocity": 0.8267716535433071
          },
          {
            "duration": 0.3488370000000032,
            "durationTicks": 480,
            "midi": 47,
            "name": "B2",
            "ticks": 182400,
            "time": 132.55806,
            "velocity": 0.8582677165354331
          },
          {
            "duration": 0.3488370000000032,
            "durationTicks": 480,
            "midi": 54,
            "name": "F#3",
            "ticks": 182400,
            "time": 132.55806,
            "velocity": 0.8267716535433071
          },
          {
            "duration": 0.34883699999997475,
            "durationTicks": 480,
            "midi": 47,
            "name": "B2",
            "ticks": 182880,
            "time": 132.90689700000001,
            "velocity": 0.8582677165354331
          },
          {
            "duration": 0.3488370000000032,
            "durationTicks": 480,
            "midi": 47,
            "name": "B2",
            "ticks": 183360,
            "time": 133.255734,
            "velocity": 0.8582677165354331
          },
          {
            "duration": 0.3488370000000032,
            "durationTicks": 480,
            "midi": 54,
            "name": "F#3",
            "ticks": 183360,
            "time": 133.255734,
            "velocity": 0.8976377952755905
          },
          {
            "duration": 0.3488370000000032,
            "durationTicks": 480,
            "midi": 47,
            "name": "B2",
            "ticks": 183840,
            "time": 133.604571,
            "velocity": 0.8267716535433071
          },
          {
            "duration": 0.3488370000000032,
            "durationTicks": 480,
            "midi": 54,
            "name": "F#3",
            "ticks": 183840,
            "time": 133.604571,
            "velocity": 0.8267716535433071
          },
          {
            "duration": 0.3488370000000032,
            "durationTicks": 480,
            "midi": 47,
            "name": "B2",
            "ticks": 184320,
            "time": 133.953408,
            "velocity": 0.8267716535433071
          },
          {
            "duration": 0.3488370000000032,
            "durationTicks": 480,
            "midi": 54,
            "name": "F#3",
            "ticks": 184320,
            "time": 133.953408,
            "velocity": 0.8267716535433071
          },
          {
            "duration": 0.3488370000000032,
            "durationTicks": 480,
            "midi": 47,
            "name": "B2",
            "ticks": 184800,
            "time": 134.302245,
            "velocity": 0.8267716535433071
          },
          {
            "duration": 0.3488370000000032,
            "durationTicks": 480,
            "midi": 54,
            "name": "F#3",
            "ticks": 184800,
            "time": 134.302245,
            "velocity": 0.8267716535433071
          },
          {
            "duration": 0.3488370000000032,
            "durationTicks": 480,
            "midi": 47,
            "name": "B2",
            "ticks": 185280,
            "time": 134.651082,
            "velocity": 0.8267716535433071
          },
          {
            "duration": 0.3488370000000032,
            "durationTicks": 480,
            "midi": 54,
            "name": "F#3",
            "ticks": 185280,
            "time": 134.651082,
            "velocity": 0.8267716535433071
          },
          {
            "duration": 0.1744185000000016,
            "durationTicks": 240,
            "midi": 47,
            "name": "B2",
            "ticks": 185760,
            "time": 134.999919,
            "velocity": 0.8267716535433071
          },
          {
            "duration": 0.1744185000000016,
            "durationTicks": 240,
            "midi": 54,
            "name": "F#3",
            "ticks": 185760,
            "time": 134.999919,
            "velocity": 0.8267716535433071
          },
          {
            "duration": 0.1744185000000016,
            "durationTicks": 240,
            "midi": 47,
            "name": "B2",
            "ticks": 186000,
            "time": 135.1743375,
            "velocity": 0.8267716535433071
          },
          {
            "duration": 0.1744185000000016,
            "durationTicks": 240,
            "midi": 54,
            "name": "F#3",
            "ticks": 186000,
            "time": 135.1743375,
            "velocity": 0.8267716535433071
          },
          {
            "duration": 0.3488370000000032,
            "durationTicks": 480,
            "midi": 47,
            "name": "B2",
            "ticks": 270720,
            "time": 196.744068,
            "velocity": 0.7480314960629921
          },
          {
            "duration": 0.3488370000000032,
            "durationTicks": 480,
            "midi": 54,
            "name": "F#3",
            "ticks": 270720,
            "time": 196.744068,
            "velocity": 0.7480314960629921
          },
          {
            "duration": 0.3488370000000032,
            "durationTicks": 480,
            "midi": 47,
            "name": "B2",
            "ticks": 271200,
            "time": 197.092905,
            "velocity": 0.7480314960629921
          },
          {
            "duration": 0.3488370000000032,
            "durationTicks": 480,
            "midi": 47,
            "name": "B2",
            "ticks": 271680,
            "time": 197.441742,
            "velocity": 0.7952755905511811
          },
          {
            "duration": 0.3488370000000032,
            "durationTicks": 480,
            "midi": 54,
            "name": "F#3",
            "ticks": 271680,
            "time": 197.441742,
            "velocity": 0.6535433070866141
          },
          {
            "duration": 0.3488370000000032,
            "durationTicks": 480,
            "midi": 47,
            "name": "B2",
            "ticks": 272160,
            "time": 197.790579,
            "velocity": 0.8267716535433071
          },
          {
            "duration": 0.3488370000000032,
            "durationTicks": 480,
            "midi": 54,
            "name": "F#3",
            "ticks": 272160,
            "time": 197.790579,
            "velocity": 0.8267716535433071
          },
          {
            "duration": 0.3488370000000032,
            "durationTicks": 480,
            "midi": 47,
            "name": "B2",
            "ticks": 272640,
            "time": 198.139416,
            "velocity": 0.8267716535433071
          },
          {
            "duration": 0.3488370000000032,
            "durationTicks": 480,
            "midi": 54,
            "name": "F#3",
            "ticks": 272640,
            "time": 198.139416,
            "velocity": 0.8267716535433071
          },
          {
            "duration": 0.3488370000000032,
            "durationTicks": 480,
            "midi": 47,
            "name": "B2",
            "ticks": 273120,
            "time": 198.48825300000001,
            "velocity": 0.7322834645669292
          },
          {
            "duration": 0.3488370000000032,
            "durationTicks": 480,
            "midi": 54,
            "name": "F#3",
            "ticks": 273120,
            "time": 198.48825300000001,
            "velocity": 0.7952755905511811
          },
          {
            "duration": 0.34883699999997475,
            "durationTicks": 480,
            "midi": 47,
            "name": "B2",
            "ticks": 273600,
            "time": 198.83709000000002,
            "velocity": 0.8110236220472441
          },
          {
            "duration": 0.34883699999997475,
            "durationTicks": 480,
            "midi": 54,
            "name": "F#3",
            "ticks": 273600,
            "time": 198.83709000000002,
            "velocity": 0.84251968503937
          },
          {
            "duration": 0.1744185000000016,
            "durationTicks": 240,
            "midi": 47,
            "name": "B2",
            "ticks": 274080,
            "time": 199.185927,
            "velocity": 0.8740157480314961
          },
          {
            "duration": 0.1744185000000016,
            "durationTicks": 240,
            "midi": 54,
            "name": "F#3",
            "ticks": 274080,
            "time": 199.185927,
            "velocity": 0.8267716535433071
          },
          {
            "duration": 0.1744185000000016,
            "durationTicks": 240,
            "midi": 47,
            "name": "B2",
            "ticks": 274320,
            "time": 199.3603455,
            "velocity": 0.8740157480314961
          },
          {
            "duration": 0.1744185000000016,
            "durationTicks": 240,
            "midi": 54,
            "name": "F#3",
            "ticks": 274320,
            "time": 199.3603455,
            "velocity": 0.8267716535433071
          },
          {
            "duration": 0.3488370000000032,
            "durationTicks": 480,
            "midi": 47,
            "name": "B2",
            "ticks": 274560,
            "time": 199.534764,
            "velocity": 0.8582677165354331
          },
          {
            "duration": 0.3488370000000032,
            "durationTicks": 480,
            "midi": 47,
            "name": "B2",
            "ticks": 274560,
            "time": 199.534764,
            "velocity": 0.8740157480314961
          },
          {
            "duration": 0.3488370000000032,
            "durationTicks": 480,
            "midi": 54,
            "name": "F#3",
            "ticks": 274560,
            "time": 199.534764,
            "velocity": 0.8267716535433071
          },
          {
            "duration": 0.3488370000000032,
            "durationTicks": 480,
            "midi": 54,
            "name": "F#3",
            "ticks": 274560,
            "time": 199.534764,
            "velocity": 0.8582677165354331
          },
          {
            "duration": 0.3488370000000032,
            "durationTicks": 480,
            "midi": 47,
            "name": "B2",
            "ticks": 275040,
            "time": 199.883601,
            "velocity": 0.8582677165354331
          },
          {
            "duration": 0.3488370000000032,
            "durationTicks": 480,
            "midi": 47,
            "name": "B2",
            "ticks": 275520,
            "time": 200.232438,
            "velocity": 0.8582677165354331
          },
          {
            "duration": 0.3488370000000032,
            "durationTicks": 480,
            "midi": 54,
            "name": "F#3",
            "ticks": 275520,
            "time": 200.232438,
            "velocity": 0.8976377952755905
          },
          {
            "duration": 0.3488370000000032,
            "durationTicks": 480,
            "midi": 47,
            "name": "B2",
            "ticks": 276000,
            "time": 200.581275,
            "velocity": 0.8267716535433071
          },
          {
            "duration": 0.3488370000000032,
            "durationTicks": 480,
            "midi": 54,
            "name": "F#3",
            "ticks": 276000,
            "time": 200.581275,
            "velocity": 0.8267716535433071
          },
          {
            "duration": 0.3488370000000032,
            "durationTicks": 480,
            "midi": 47,
            "name": "B2",
            "ticks": 276480,
            "time": 200.930112,
            "velocity": 0.8267716535433071
          },
          {
            "duration": 0.3488370000000032,
            "durationTicks": 480,
            "midi": 54,
            "name": "F#3",
            "ticks": 276480,
            "time": 200.930112,
            "velocity": 0.8267716535433071
          },
          {
            "duration": 0.3488370000000032,
            "durationTicks": 480,
            "midi": 47,
            "name": "B2",
            "ticks": 276960,
            "time": 201.278949,
            "velocity": 0.8267716535433071
          },
          {
            "duration": 0.3488370000000032,
            "durationTicks": 480,
            "midi": 54,
            "name": "F#3",
            "ticks": 276960,
            "time": 201.278949,
            "velocity": 0.8267716535433071
          },
          {
            "duration": 0.3488370000000032,
            "durationTicks": 480,
            "midi": 47,
            "name": "B2",
            "ticks": 277440,
            "time": 201.62778600000001,
            "velocity": 0.8267716535433071
          },
          {
            "duration": 0.3488370000000032,
            "durationTicks": 480,
            "midi": 54,
            "name": "F#3",
            "ticks": 277440,
            "time": 201.62778600000001,
            "velocity": 0.8267716535433071
          },
          {
            "duration": 0.17441849999997316,
            "durationTicks": 240,
            "midi": 47,
            "name": "B2",
            "ticks": 277920,
            "time": 201.97662300000002,
            "velocity": 0.8267716535433071
          },
          {
            "duration": 0.17441849999997316,
            "durationTicks": 240,
            "midi": 54,
            "name": "F#3",
            "ticks": 277920,
            "time": 201.97662300000002,
            "velocity": 0.8267716535433071
          },
          {
            "duration": 0.1744185000000016,
            "durationTicks": 240,
            "midi": 47,
            "name": "B2",
            "ticks": 278160,
            "time": 202.1510415,
            "velocity": 0.8267716535433071
          },
          {
            "duration": 0.1744185000000016,
            "durationTicks": 240,
            "midi": 54,
            "name": "F#3",
            "ticks": 278160,
            "time": 202.1510415,
            "velocity": 0.8267716535433071
          },
          {
            "duration": 0.3488370000000032,
            "durationTicks": 480,
            "midi": 54,
            "name": "F#3",
            "ticks": 278400,
            "time": 202.32546,
            "velocity": 0.7480314960629921
          },
          {
            "duration": 0.3488370000000032,
            "durationTicks": 480,
            "midi": 61,
            "name": "C#4",
            "ticks": 278400,
            "time": 202.32546,
            "velocity": 0.8267716535433071
          },
          {
            "duration": 0.3488370000000032,
            "durationTicks": 480,
            "midi": 61,
            "name": "C#4",
            "ticks": 278880,
            "time": 202.674297,
            "velocity": 0.7480314960629921
          },
          {
            "duration": 0.3488370000000032,
            "durationTicks": 480,
            "midi": 54,
            "name": "F#3",
            "ticks": 279360,
            "time": 203.023134,
            "velocity": 0.6535433070866141
          },
          {
            "duration": 0.3488370000000032,
            "durationTicks": 480,
            "midi": 61,
            "name": "C#4",
            "ticks": 279360,
            "time": 203.023134,
            "velocity": 0.7952755905511811
          },
          {
            "duration": 0.3488370000000032,
            "durationTicks": 480,
            "midi": 54,
            "name": "F#3",
            "ticks": 279840,
            "time": 203.371971,
            "velocity": 0.8267716535433071
          },
          {
            "duration": 0.3488370000000032,
            "durationTicks": 480,
            "midi": 61,
            "name": "C#4",
            "ticks": 279840,
            "time": 203.371971,
            "velocity": 0.8267716535433071
          },
          {
            "duration": 0.3488370000000032,
            "durationTicks": 480,
            "midi": 54,
            "name": "F#3",
            "ticks": 280320,
            "time": 203.720808,
            "velocity": 0.8267716535433071
          },
          {
            "duration": 0.3488370000000032,
            "durationTicks": 480,
            "midi": 61,
            "name": "C#4",
            "ticks": 280320,
            "time": 203.720808,
            "velocity": 0.8267716535433071
          },
          {
            "duration": 0.3488370000000032,
            "durationTicks": 480,
            "midi": 54,
            "name": "F#3",
            "ticks": 280800,
            "time": 204.069645,
            "velocity": 0.7952755905511811
          },
          {
            "duration": 0.3488370000000032,
            "durationTicks": 480,
            "midi": 61,
            "name": "C#4",
            "ticks": 280800,
            "time": 204.069645,
            "velocity": 0.7322834645669292
          },
          {
            "duration": 0.3488370000000032,
            "durationTicks": 480,
            "midi": 54,
            "name": "F#3",
            "ticks": 281280,
            "time": 204.418482,
            "velocity": 0.84251968503937
          },
          {
            "duration": 0.3488370000000032,
            "durationTicks": 480,
            "midi": 61,
            "name": "C#4",
            "ticks": 281280,
            "time": 204.418482,
            "velocity": 0.8110236220472441
          },
          {
            "duration": 0.1744185000000016,
            "durationTicks": 240,
            "midi": 54,
            "name": "F#3",
            "ticks": 281760,
            "time": 204.76731900000001,
            "velocity": 0.8267716535433071
          },
          {
            "duration": 0.1744185000000016,
            "durationTicks": 240,
            "midi": 61,
            "name": "C#4",
            "ticks": 281760,
            "time": 204.76731900000001,
            "velocity": 0.8740157480314961
          },
          {
            "duration": 0.1744185000000016,
            "durationTicks": 240,
            "midi": 54,
            "name": "F#3",
            "ticks": 282000,
            "time": 204.94173750000002,
            "velocity": 0.8267716535433071
          },
          {
            "duration": 0.1744185000000016,
            "durationTicks": 240,
            "midi": 61,
            "name": "C#4",
            "ticks": 282000,
            "time": 204.94173750000002,
            "velocity": 0.8740157480314961
          },
          {
            "duration": 0.34883699999997475,
            "durationTicks": 480,
            "midi": 54,
            "name": "F#3",
            "ticks": 282240,
            "time": 205.11615600000002,
            "velocity": 0.8267716535433071
          },
          {
            "duration": 0.34883699999997475,
            "durationTicks": 480,
            "midi": 59,
            "name": "B3",
            "ticks": 282240,
            "time": 205.11615600000002,
            "velocity": 0.8582677165354331
          },
          {
            "duration": 0.3488370000000032,
            "durationTicks": 480,
            "midi": 59,
            "name": "B3",
            "ticks": 282720,
            "time": 205.464993,
            "velocity": 0.8582677165354331
          },
          {
            "duration": 0.3488370000000032,
            "durationTicks": 480,
            "midi": 54,
            "name": "F#3",
            "ticks": 283200,
            "time": 205.81383,
            "velocity": 0.8976377952755905
          },
          {
            "duration": 0.3488370000000032,
            "durationTicks": 480,
            "midi": 59,
            "name": "B3",
            "ticks": 283200,
            "time": 205.81383,
            "velocity": 0.8582677165354331
          },
          {
            "duration": 0.3488370000000032,
            "durationTicks": 480,
            "midi": 54,
            "name": "F#3",
            "ticks": 283680,
            "time": 206.162667,
            "velocity": 0.8267716535433071
          },
          {
            "duration": 0.3488370000000032,
            "durationTicks": 480,
            "midi": 59,
            "name": "B3",
            "ticks": 283680,
            "time": 206.162667,
            "velocity": 0.8267716535433071
          },
          {
            "duration": 0.3488370000000032,
            "durationTicks": 480,
            "midi": 54,
            "name": "F#3",
            "ticks": 284160,
            "time": 206.511504,
            "velocity": 0.8267716535433071
          },
          {
            "duration": 0.3488370000000032,
            "durationTicks": 480,
            "midi": 59,
            "name": "B3",
            "ticks": 284160,
            "time": 206.511504,
            "velocity": 0.8267716535433071
          },
          {
            "duration": 0.3488370000000032,
            "durationTicks": 480,
            "midi": 54,
            "name": "F#3",
            "ticks": 284640,
            "time": 206.860341,
            "velocity": 0.8267716535433071
          },
          {
            "duration": 0.3488370000000032,
            "durationTicks": 480,
            "midi": 59,
            "name": "B3",
            "ticks": 284640,
            "time": 206.860341,
            "velocity": 0.8267716535433071
          },
          {
            "duration": 0.3488370000000032,
            "durationTicks": 480,
            "midi": 54,
            "name": "F#3",
            "ticks": 285120,
            "time": 207.209178,
            "velocity": 0.8267716535433071
          },
          {
            "duration": 0.3488370000000032,
            "durationTicks": 480,
            "midi": 59,
            "name": "B3",
            "ticks": 285120,
            "time": 207.209178,
            "velocity": 0.8267716535433071
          },
          {
            "duration": 0.1744185000000016,
            "durationTicks": 240,
            "midi": 54,
            "name": "F#3",
            "ticks": 285600,
            "time": 207.558015,
            "velocity": 0.8267716535433071
          },
          {
            "duration": 0.1744185000000016,
            "durationTicks": 240,
            "midi": 59,
            "name": "B3",
            "ticks": 285600,
            "time": 207.558015,
            "velocity": 0.8267716535433071
          },
          {
            "duration": 0.1744185000000016,
            "durationTicks": 240,
            "midi": 54,
            "name": "F#3",
            "ticks": 285840,
            "time": 207.7324335,
            "velocity": 0.8267716535433071
          },
          {
            "duration": 0.1744185000000016,
            "durationTicks": 240,
            "midi": 59,
            "name": "B3",
            "ticks": 285840,
            "time": 207.7324335,
            "velocity": 0.8267716535433071
          },
          {
            "duration": 0.3488370000000032,
            "durationTicks": 480,
            "midi": 52,
            "name": "E3",
            "ticks": 286080,
            "time": 207.90685200000001,
            "velocity": 0.7480314960629921
          },
          {
            "duration": 0.3488370000000032,
            "durationTicks": 480,
            "midi": 59,
            "name": "B3",
            "ticks": 286080,
            "time": 207.90685200000001,
            "velocity": 0.7480314960629921
          },
          {
            "duration": 0.34883699999997475,
            "durationTicks": 480,
            "midi": 59,
            "name": "B3",
            "ticks": 286560,
            "time": 208.25568900000002,
            "velocity": 0.7480314960629921
          },
          {
            "duration": 0.3488370000000032,
            "durationTicks": 480,
            "midi": 52,
            "name": "E3",
            "ticks": 287040,
            "time": 208.604526,
            "velocity": 0.6535433070866141
          },
          {
            "duration": 0.3488370000000032,
            "durationTicks": 480,
            "midi": 59,
            "name": "B3",
            "ticks": 287040,
            "time": 208.604526,
            "velocity": 0.7952755905511811
          },
          {
            "duration": 0.3488370000000032,
            "durationTicks": 480,
            "midi": 52,
            "name": "E3",
            "ticks": 287520,
            "time": 208.953363,
            "velocity": 0.8267716535433071
          },
          {
            "duration": 0.3488370000000032,
            "durationTicks": 480,
            "midi": 59,
            "name": "B3",
            "ticks": 287520,
            "time": 208.953363,
            "velocity": 0.8267716535433071
          },
          {
            "duration": 0.3488370000000032,
            "durationTicks": 480,
            "midi": 52,
            "name": "E3",
            "ticks": 288000,
            "time": 209.3022,
            "velocity": 0.8267716535433071
          },
          {
            "duration": 0.3488370000000032,
            "durationTicks": 480,
            "midi": 59,
            "name": "B3",
            "ticks": 288000,
            "time": 209.3022,
            "velocity": 0.8267716535433071
          },
          {
            "duration": 0.3488370000000032,
            "durationTicks": 480,
            "midi": 52,
            "name": "E3",
            "ticks": 288480,
            "time": 209.651037,
            "velocity": 0.7952755905511811
          },
          {
            "duration": 0.3488370000000032,
            "durationTicks": 480,
            "midi": 59,
            "name": "B3",
            "ticks": 288480,
            "time": 209.651037,
            "velocity": 0.7322834645669292
          },
          {
            "duration": 0.3488370000000032,
            "durationTicks": 480,
            "midi": 52,
            "name": "E3",
            "ticks": 288960,
            "time": 209.999874,
            "velocity": 0.84251968503937
          },
          {
            "duration": 0.3488370000000032,
            "durationTicks": 480,
            "midi": 59,
            "name": "B3",
            "ticks": 288960,
            "time": 209.999874,
            "velocity": 0.8110236220472441
          },
          {
            "duration": 0.1744185000000016,
            "durationTicks": 240,
            "midi": 52,
            "name": "E3",
            "ticks": 289440,
            "time": 210.348711,
            "velocity": 0.8267716535433071
          },
          {
            "duration": 0.1744185000000016,
            "durationTicks": 240,
            "midi": 59,
            "name": "B3",
            "ticks": 289440,
            "time": 210.348711,
            "velocity": 0.8740157480314961
          },
          {
            "duration": 0.1744185000000016,
            "durationTicks": 240,
            "midi": 52,
            "name": "E3",
            "ticks": 289680,
            "time": 210.5231295,
            "velocity": 0.8267716535433071
          },
          {
            "duration": 0.1744185000000016,
            "durationTicks": 240,
            "midi": 59,
            "name": "B3",
            "ticks": 289680,
            "time": 210.5231295,
            "velocity": 0.8740157480314961
          },
          {
            "duration": 0.3488370000000032,
            "durationTicks": 480,
            "midi": 52,
            "name": "E3",
            "ticks": 289920,
            "time": 210.697548,
            "velocity": 0.8582677165354331
          },
          {
            "duration": 0.3488370000000032,
            "durationTicks": 480,
            "midi": 59,
            "name": "B3",
            "ticks": 289920,
            "time": 210.697548,
            "velocity": 0.8740157480314961
          },
          {
            "duration": 0.3488370000000032,
            "durationTicks": 480,
            "midi": 59,
            "name": "B3",
            "ticks": 290400,
            "time": 211.04638500000001,
            "velocity": 0.8582677165354331
          },
          {
            "duration": 0.34883699999997475,
            "durationTicks": 480,
            "midi": 52,
            "name": "E3",
            "ticks": 290880,
            "time": 211.39522200000002,
            "velocity": 0.8976377952755905
          },
          {
            "duration": 0.34883699999997475,
            "durationTicks": 480,
            "midi": 59,
            "name": "B3",
            "ticks": 290880,
            "time": 211.39522200000002,
            "velocity": 0.8582677165354331
          },
          {
            "duration": 0.3488370000000032,
            "durationTicks": 480,
            "midi": 52,
            "name": "E3",
            "ticks": 291360,
            "time": 211.744059,
            "velocity": 0.8267716535433071
          },
          {
            "duration": 0.3488370000000032,
            "durationTicks": 480,
            "midi": 59,
            "name": "B3",
            "ticks": 291360,
            "time": 211.744059,
            "velocity": 0.8267716535433071
          },
          {
            "duration": 0.3488370000000032,
            "durationTicks": 480,
            "midi": 52,
            "name": "E3",
            "ticks": 291840,
            "time": 212.092896,
            "velocity": 0.8267716535433071
          },
          {
            "duration": 0.3488370000000032,
            "durationTicks": 480,
            "midi": 59,
            "name": "B3",
            "ticks": 291840,
            "time": 212.092896,
            "velocity": 0.8267716535433071
          },
          {
            "duration": 0.3488370000000032,
            "durationTicks": 480,
            "midi": 52,
            "name": "E3",
            "ticks": 292320,
            "time": 212.441733,
            "velocity": 0.8267716535433071
          },
          {
            "duration": 0.3488370000000032,
            "durationTicks": 480,
            "midi": 59,
            "name": "B3",
            "ticks": 292320,
            "time": 212.441733,
            "velocity": 0.8267716535433071
          },
          {
            "duration": 0.3488370000000032,
            "durationTicks": 480,
            "midi": 52,
            "name": "E3",
            "ticks": 292800,
            "time": 212.79057,
            "velocity": 0.8267716535433071
          },
          {
            "duration": 0.3488370000000032,
            "durationTicks": 480,
            "midi": 59,
            "name": "B3",
            "ticks": 292800,
            "time": 212.79057,
            "velocity": 0.8267716535433071
          },
          {
            "duration": 0.1744185000000016,
            "durationTicks": 240,
            "midi": 52,
            "name": "E3",
            "ticks": 293280,
            "time": 213.139407,
            "velocity": 0.8267716535433071
          },
          {
            "duration": 0.1744185000000016,
            "durationTicks": 240,
            "midi": 59,
            "name": "B3",
            "ticks": 293280,
            "time": 213.139407,
            "velocity": 0.8267716535433071
          },
          {
            "duration": 0.1744185000000016,
            "durationTicks": 240,
            "midi": 52,
            "name": "E3",
            "ticks": 293520,
            "time": 213.3138255,
            "velocity": 0.8267716535433071
          },
          {
            "duration": 0.1744185000000016,
            "durationTicks": 240,
            "midi": 59,
            "name": "B3",
            "ticks": 293520,
            "time": 213.3138255,
            "velocity": 0.8267716535433071
          },
          {
            "duration": 0.3488370000000032,
            "durationTicks": 480,
            "midi": 47,
            "name": "B2",
            "ticks": 293760,
            "time": 213.488244,
            "velocity": 0.7480314960629921
          },
          {
            "duration": 0.3488370000000032,
            "durationTicks": 480,
            "midi": 54,
            "name": "F#3",
            "ticks": 293760,
            "time": 213.488244,
            "velocity": 0.7480314960629921
          },
          {
            "duration": 0.3488370000000032,
            "durationTicks": 480,
            "midi": 47,
            "name": "B2",
            "ticks": 294240,
            "time": 213.837081,
            "velocity": 0.7480314960629921
          },
          {
            "duration": 0.3488370000000032,
            "durationTicks": 480,
            "midi": 47,
            "name": "B2",
            "ticks": 294720,
            "time": 214.18591800000002,
            "velocity": 0.7952755905511811
          },
          {
            "duration": 0.3488370000000032,
            "durationTicks": 480,
            "midi": 54,
            "name": "F#3",
            "ticks": 294720,
            "time": 214.18591800000002,
            "velocity": 0.6535433070866141
          },
          {
            "duration": 0.34883699999997475,
            "durationTicks": 480,
            "midi": 47,
            "name": "B2",
            "ticks": 295200,
            "time": 214.53475500000002,
            "velocity": 0.8267716535433071
          },
          {
            "duration": 0.34883699999997475,
            "durationTicks": 480,
            "midi": 54,
            "name": "F#3",
            "ticks": 295200,
            "time": 214.53475500000002,
            "velocity": 0.8267716535433071
          },
          {
            "duration": 0.3488370000000032,
            "durationTicks": 480,
            "midi": 47,
            "name": "B2",
            "ticks": 295680,
            "time": 214.883592,
            "velocity": 0.8267716535433071
          },
          {
            "duration": 0.3488370000000032,
            "durationTicks": 480,
            "midi": 54,
            "name": "F#3",
            "ticks": 295680,
            "time": 214.883592,
            "velocity": 0.8267716535433071
          },
          {
            "duration": 0.3488370000000032,
            "durationTicks": 480,
            "midi": 47,
            "name": "B2",
            "ticks": 296160,
            "time": 215.232429,
            "velocity": 0.7322834645669292
          },
          {
            "duration": 0.3488370000000032,
            "durationTicks": 480,
            "midi": 54,
            "name": "F#3",
            "ticks": 296160,
            "time": 215.232429,
            "velocity": 0.7952755905511811
          },
          {
            "duration": 0.3488370000000032,
            "durationTicks": 480,
            "midi": 47,
            "name": "B2",
            "ticks": 296640,
            "time": 215.581266,
            "velocity": 0.8110236220472441
          },
          {
            "duration": 0.3488370000000032,
            "durationTicks": 480,
            "midi": 54,
            "name": "F#3",
            "ticks": 296640,
            "time": 215.581266,
            "velocity": 0.84251968503937
          },
          {
            "duration": 0.1744185000000016,
            "durationTicks": 240,
            "midi": 47,
            "name": "B2",
            "ticks": 297120,
            "time": 215.930103,
            "velocity": 0.8740157480314961
          },
          {
            "duration": 0.1744185000000016,
            "durationTicks": 240,
            "midi": 54,
            "name": "F#3",
            "ticks": 297120,
            "time": 215.930103,
            "velocity": 0.8267716535433071
          },
          {
            "duration": 0.1744185000000016,
            "durationTicks": 240,
            "midi": 47,
            "name": "B2",
            "ticks": 297360,
            "time": 216.1045215,
            "velocity": 0.8740157480314961
          },
          {
            "duration": 0.1744185000000016,
            "durationTicks": 240,
            "midi": 54,
            "name": "F#3",
            "ticks": 297360,
            "time": 216.1045215,
            "velocity": 0.8267716535433071
          },
          {
            "duration": 0.3488370000000032,
            "durationTicks": 480,
            "midi": 47,
            "name": "B2",
            "ticks": 297600,
            "time": 216.27894,
            "velocity": 0.8582677165354331
          },
          {
            "duration": 0.3488370000000032,
            "durationTicks": 480,
            "midi": 54,
            "name": "F#3",
            "ticks": 297600,
            "time": 216.27894,
            "velocity": 0.8267716535433071
          },
          {
            "duration": 0.3488370000000032,
            "durationTicks": 480,
            "midi": 47,
            "name": "B2",
            "ticks": 298080,
            "time": 216.627777,
            "velocity": 0.8582677165354331
          },
          {
            "duration": 0.3488370000000032,
            "durationTicks": 480,
            "midi": 47,
            "name": "B2",
            "ticks": 298560,
            "time": 216.976614,
            "velocity": 0.8582677165354331
          },
          {
            "duration": 0.3488370000000032,
            "durationTicks": 480,
            "midi": 54,
            "name": "F#3",
            "ticks": 298560,
            "time": 216.976614,
            "velocity": 0.8976377952755905
          },
          {
            "duration": 0.3488370000000032,
            "durationTicks": 480,
            "midi": 47,
            "name": "B2",
            "ticks": 299040,
            "time": 217.32545100000002,
            "velocity": 0.8267716535433071
          },
          {
            "duration": 0.3488370000000032,
            "durationTicks": 480,
            "midi": 54,
            "name": "F#3",
            "ticks": 299040,
            "time": 217.32545100000002,
            "velocity": 0.8267716535433071
          },
          {
            "duration": 0.34883699999997475,
            "durationTicks": 480,
            "midi": 47,
            "name": "B2",
            "ticks": 299520,
            "time": 217.67428800000002,
            "velocity": 0.8267716535433071
          },
          {
            "duration": 0.34883699999997475,
            "durationTicks": 480,
            "midi": 54,
            "name": "F#3",
            "ticks": 299520,
            "time": 217.67428800000002,
            "velocity": 0.8267716535433071
          },
          {
            "duration": 0.3488370000000032,
            "durationTicks": 480,
            "midi": 47,
            "name": "B2",
            "ticks": 300000,
            "time": 218.023125,
            "velocity": 0.8267716535433071
          },
          {
            "duration": 0.3488370000000032,
            "durationTicks": 480,
            "midi": 54,
            "name": "F#3",
            "ticks": 300000,
            "time": 218.023125,
            "velocity": 0.8267716535433071
          },
          {
            "duration": 0.3488370000000032,
            "durationTicks": 480,
            "midi": 47,
            "name": "B2",
            "ticks": 300480,
            "time": 218.371962,
            "velocity": 0.8267716535433071
          },
          {
            "duration": 0.3488370000000032,
            "durationTicks": 480,
            "midi": 54,
            "name": "F#3",
            "ticks": 300480,
            "time": 218.371962,
            "velocity": 0.8267716535433071
          },
          {
            "duration": 0.1744185000000016,
            "durationTicks": 240,
            "midi": 47,
            "name": "B2",
            "ticks": 300960,
            "time": 218.720799,
            "velocity": 0.8267716535433071
          },
          {
            "duration": 0.1744185000000016,
            "durationTicks": 240,
            "midi": 54,
            "name": "F#3",
            "ticks": 300960,
            "time": 218.720799,
            "velocity": 0.8267716535433071
          },
          {
            "duration": 0.1744185000000016,
            "durationTicks": 240,
            "midi": 54,
            "name": "F#3",
            "ticks": 301200,
            "time": 218.8952175,
            "velocity": 0.8267716535433071
          },
          {
            "duration": 0.3488370000000032,
            "durationTicks": 480,
            "midi": 47,
            "name": "B2",
            "ticks": 301440,
            "time": 219.069636,
            "velocity": 0.7480314960629921
          },
          {
            "duration": 0.3488370000000032,
            "durationTicks": 480,
            "midi": 54,
            "name": "F#3",
            "ticks": 301440,
            "time": 219.069636,
            "velocity": 0.7480314960629921
          },
          {
            "duration": 0.3488370000000032,
            "durationTicks": 480,
            "midi": 47,
            "name": "B2",
            "ticks": 301920,
            "time": 219.418473,
            "velocity": 0.7480314960629921
          },
          {
            "duration": 0.3488370000000032,
            "durationTicks": 480,
            "midi": 47,
            "name": "B2",
            "ticks": 302400,
            "time": 219.76731,
            "velocity": 0.7952755905511811
          },
          {
            "duration": 0.3488370000000032,
            "durationTicks": 480,
            "midi": 54,
            "name": "F#3",
            "ticks": 302400,
            "time": 219.76731,
            "velocity": 0.6535433070866141
          },
          {
            "duration": 0.3488370000000032,
            "durationTicks": 480,
            "midi": 47,
            "name": "B2",
            "ticks": 302880,
            "time": 220.116147,
            "velocity": 0.8267716535433071
          },
          {
            "duration": 0.3488370000000032,
            "durationTicks": 480,
            "midi": 54,
            "name": "F#3",
            "ticks": 302880,
            "time": 220.116147,
            "velocity": 0.8267716535433071
          },
          {
            "duration": 0.3488370000000032,
            "durationTicks": 480,
            "midi": 47,
            "name": "B2",
            "ticks": 303360,
            "time": 220.46498400000002,
            "velocity": 0.8267716535433071
          },
          {
            "duration": 0.3488370000000032,
            "durationTicks": 480,
            "midi": 54,
            "name": "F#3",
            "ticks": 303360,
            "time": 220.46498400000002,
            "velocity": 0.8267716535433071
          },
          {
            "duration": 0.34883699999997475,
            "durationTicks": 480,
            "midi": 47,
            "name": "B2",
            "ticks": 303840,
            "time": 220.81382100000002,
            "velocity": 0.7322834645669292
          },
          {
            "duration": 0.34883699999997475,
            "durationTicks": 480,
            "midi": 54,
            "name": "F#3",
            "ticks": 303840,
            "time": 220.81382100000002,
            "velocity": 0.7952755905511811
          },
          {
            "duration": 0.3488370000000032,
            "durationTicks": 480,
            "midi": 47,
            "name": "B2",
            "ticks": 304320,
            "time": 221.162658,
            "velocity": 0.8110236220472441
          },
          {
            "duration": 0.3488370000000032,
            "durationTicks": 480,
            "midi": 54,
            "name": "F#3",
            "ticks": 304320,
            "time": 221.162658,
            "velocity": 0.84251968503937
          },
          {
            "duration": 0.1744185000000016,
            "durationTicks": 240,
            "midi": 47,
            "name": "B2",
            "ticks": 304800,
            "time": 221.511495,
            "velocity": 0.8740157480314961
          },
          {
            "duration": 0.1744185000000016,
            "durationTicks": 240,
            "midi": 54,
            "name": "F#3",
            "ticks": 304800,
            "time": 221.511495,
            "velocity": 0.8267716535433071
          },
          {
            "duration": 0.1744185000000016,
            "durationTicks": 240,
            "midi": 47,
            "name": "B2",
            "ticks": 305040,
            "time": 221.6859135,
            "velocity": 0.8740157480314961
          },
          {
            "duration": 0.1744185000000016,
            "durationTicks": 240,
            "midi": 54,
            "name": "F#3",
            "ticks": 305040,
            "time": 221.6859135,
            "velocity": 0.8267716535433071
          },
          {
            "duration": 0.3488370000000032,
            "durationTicks": 480,
            "midi": 47,
            "name": "B2",
            "ticks": 305280,
            "time": 221.860332,
            "velocity": 0.8582677165354331
          },
          {
            "duration": 0.3488370000000032,
            "durationTicks": 480,
            "midi": 47,
            "name": "B2",
            "ticks": 305280,
            "time": 221.860332,
            "velocity": 0.8740157480314961
          },
          {
            "duration": 0.3488370000000032,
            "durationTicks": 480,
            "midi": 54,
            "name": "F#3",
            "ticks": 305280,
            "time": 221.860332,
            "velocity": 0.8582677165354331
          },
          {
            "duration": 0.3488370000000032,
            "durationTicks": 480,
            "midi": 54,
            "name": "F#3",
            "ticks": 305280,
            "time": 221.860332,
            "velocity": 0.8267716535433071
          },
          {
            "duration": 0.3488370000000032,
            "durationTicks": 480,
            "midi": 47,
            "name": "B2",
            "ticks": 305760,
            "time": 222.209169,
            "velocity": 0.8582677165354331
          },
          {
            "duration": 0.3488370000000032,
            "durationTicks": 480,
            "midi": 47,
            "name": "B2",
            "ticks": 306240,
            "time": 222.558006,
            "velocity": 0.8582677165354331
          },
          {
            "duration": 0.3488370000000032,
            "durationTicks": 480,
            "midi": 54,
            "name": "F#3",
            "ticks": 306240,
            "time": 222.558006,
            "velocity": 0.8976377952755905
          },
          {
            "duration": 0.3488370000000032,
            "durationTicks": 480,
            "midi": 47,
            "name": "B2",
            "ticks": 306720,
            "time": 222.906843,
            "velocity": 0.8267716535433071
          },
          {
            "duration": 0.3488370000000032,
            "durationTicks": 480,
            "midi": 54,
            "name": "F#3",
            "ticks": 306720,
            "time": 222.906843,
            "velocity": 0.8267716535433071
          },
          {
            "duration": 0.3488370000000032,
            "durationTicks": 480,
            "midi": 47,
            "name": "B2",
            "ticks": 307200,
            "time": 223.25568,
            "velocity": 0.8267716535433071
          },
          {
            "duration": 0.3488370000000032,
            "durationTicks": 480,
            "midi": 54,
            "name": "F#3",
            "ticks": 307200,
            "time": 223.25568,
            "velocity": 0.8267716535433071
          },
          {
            "duration": 0.3488370000000032,
            "durationTicks": 480,
            "midi": 47,
            "name": "B2",
            "ticks": 307680,
            "time": 223.60451700000002,
            "velocity": 0.8267716535433071
          },
          {
            "duration": 0.3488370000000032,
            "durationTicks": 480,
            "midi": 54,
            "name": "F#3",
            "ticks": 307680,
            "time": 223.60451700000002,
            "velocity": 0.8267716535433071
          },
          {
            "duration": 0.34883699999997475,
            "durationTicks": 480,
            "midi": 47,
            "name": "B2",
            "ticks": 308160,
            "time": 223.95335400000002,
            "velocity": 0.8267716535433071
          },
          {
            "duration": 0.34883699999997475,
            "durationTicks": 480,
            "midi": 54,
            "name": "F#3",
            "ticks": 308160,
            "time": 223.95335400000002,
            "velocity": 0.8267716535433071
          },
          {
            "duration": 0.1744185000000016,
            "durationTicks": 240,
            "midi": 47,
            "name": "B2",
            "ticks": 308640,
            "time": 224.302191,
            "velocity": 0.8267716535433071
          },
          {
            "duration": 0.1744185000000016,
            "durationTicks": 240,
            "midi": 54,
            "name": "F#3",
            "ticks": 308640,
            "time": 224.302191,
            "velocity": 0.8267716535433071
          },
          {
            "duration": 0.1744185000000016,
            "durationTicks": 240,
            "midi": 47,
            "name": "B2",
            "ticks": 308880,
            "time": 224.4766095,
            "velocity": 0.8267716535433071
          },
          {
            "duration": 0.1744185000000016,
            "durationTicks": 240,
            "midi": 54,
            "name": "F#3",
            "ticks": 308880,
            "time": 224.4766095,
            "velocity": 0.8267716535433071
          },
          {
            "duration": 0.3488370000000032,
            "durationTicks": 480,
            "midi": 54,
            "name": "F#3",
            "ticks": 309120,
            "time": 224.651028,
            "velocity": 0.7480314960629921
          },
          {
            "duration": 0.3488370000000032,
            "durationTicks": 480,
            "midi": 61,
            "name": "C#4",
            "ticks": 309120,
            "time": 224.651028,
            "velocity": 0.8267716535433071
          },
          {
            "duration": 0.3488370000000032,
            "durationTicks": 480,
            "midi": 61,
            "name": "C#4",
            "ticks": 309600,
            "time": 224.999865,
            "velocity": 0.7480314960629921
          },
          {
            "duration": 0.3488370000000032,
            "durationTicks": 480,
            "midi": 54,
            "name": "F#3",
            "ticks": 310080,
            "time": 225.348702,
            "velocity": 0.6535433070866141
          },
          {
            "duration": 0.3488370000000032,
            "durationTicks": 480,
            "midi": 61,
            "name": "C#4",
            "ticks": 310080,
            "time": 225.348702,
            "velocity": 0.7952755905511811
          },
          {
            "duration": 0.3488370000000032,
            "durationTicks": 480,
            "midi": 54,
            "name": "F#3",
            "ticks": 310560,
            "time": 225.697539,
            "velocity": 0.8267716535433071
          },
          {
            "duration": 0.3488370000000032,
            "durationTicks": 480,
            "midi": 61,
            "name": "C#4",
            "ticks": 310560,
            "time": 225.697539,
            "velocity": 0.8267716535433071
          },
          {
            "duration": 0.3488370000000032,
            "durationTicks": 480,
            "midi": 54,
            "name": "F#3",
            "ticks": 311040,
            "time": 226.046376,
            "velocity": 0.8267716535433071
          },
          {
            "duration": 0.3488370000000032,
            "durationTicks": 480,
            "midi": 61,
            "name": "C#4",
            "ticks": 311040,
            "time": 226.046376,
            "velocity": 0.8267716535433071
          },
          {
            "duration": 0.3488370000000032,
            "durationTicks": 480,
            "midi": 54,
            "name": "F#3",
            "ticks": 311520,
            "time": 226.395213,
            "velocity": 0.7952755905511811
          },
          {
            "duration": 0.3488370000000032,
            "durationTicks": 480,
            "midi": 61,
            "name": "C#4",
            "ticks": 311520,
            "time": 226.395213,
            "velocity": 0.7322834645669292
          },
          {
            "duration": 0.3488370000000032,
            "durationTicks": 480,
            "midi": 54,
            "name": "F#3",
            "ticks": 312000,
            "time": 226.74405000000002,
            "velocity": 0.84251968503937
          },
          {
            "duration": 0.3488370000000032,
            "durationTicks": 480,
            "midi": 61,
            "name": "C#4",
            "ticks": 312000,
            "time": 226.74405000000002,
            "velocity": 0.8110236220472441
          },
          {
            "duration": 0.17441849999997316,
            "durationTicks": 240,
            "midi": 54,
            "name": "F#3",
            "ticks": 312480,
            "time": 227.09288700000002,
            "velocity": 0.8267716535433071
          },
          {
            "duration": 0.17441849999997316,
            "durationTicks": 240,
            "midi": 61,
            "name": "C#4",
            "ticks": 312480,
            "time": 227.09288700000002,
            "velocity": 0.8740157480314961
          },
          {
            "duration": 0.1744185000000016,
            "durationTicks": 240,
            "midi": 54,
            "name": "F#3",
            "ticks": 312720,
            "time": 227.2673055,
            "velocity": 0.8267716535433071
          },
          {
            "duration": 0.1744185000000016,
            "durationTicks": 240,
            "midi": 61,
            "name": "C#4",
            "ticks": 312720,
            "time": 227.2673055,
            "velocity": 0.8740157480314961
          },
          {
            "duration": 0.3488370000000032,
            "durationTicks": 480,
            "midi": 54,
            "name": "F#3",
            "ticks": 312960,
            "time": 227.441724,
            "velocity": 0.8267716535433071
          },
          {
            "duration": 0.3488370000000032,
            "durationTicks": 480,
            "midi": 59,
            "name": "B3",
            "ticks": 312960,
            "time": 227.441724,
            "velocity": 0.8582677165354331
          },
          {
            "duration": 0.3488370000000032,
            "durationTicks": 480,
            "midi": 59,
            "name": "B3",
            "ticks": 313440,
            "time": 227.790561,
            "velocity": 0.8582677165354331
          },
          {
            "duration": 0.3488370000000032,
            "durationTicks": 480,
            "midi": 54,
            "name": "F#3",
            "ticks": 313920,
            "time": 228.139398,
            "velocity": 0.8976377952755905
          },
          {
            "duration": 0.3488370000000032,
            "durationTicks": 480,
            "midi": 59,
            "name": "B3",
            "ticks": 313920,
            "time": 228.139398,
            "velocity": 0.8582677165354331
          },
          {
            "duration": 0.3488370000000032,
            "durationTicks": 480,
            "midi": 54,
            "name": "F#3",
            "ticks": 314400,
            "time": 228.488235,
            "velocity": 0.8267716535433071
          },
          {
            "duration": 0.3488370000000032,
            "durationTicks": 480,
            "midi": 59,
            "name": "B3",
            "ticks": 314400,
            "time": 228.488235,
            "velocity": 0.8267716535433071
          },
          {
            "duration": 0.3488370000000032,
            "durationTicks": 480,
            "midi": 54,
            "name": "F#3",
            "ticks": 314880,
            "time": 228.837072,
            "velocity": 0.8267716535433071
          },
          {
            "duration": 0.3488370000000032,
            "durationTicks": 480,
            "midi": 59,
            "name": "B3",
            "ticks": 314880,
            "time": 228.837072,
            "velocity": 0.8267716535433071
          },
          {
            "duration": 0.3488370000000032,
            "durationTicks": 480,
            "midi": 54,
            "name": "F#3",
            "ticks": 315360,
            "time": 229.185909,
            "velocity": 0.8267716535433071
          },
          {
            "duration": 0.3488370000000032,
            "durationTicks": 480,
            "midi": 59,
            "name": "B3",
            "ticks": 315360,
            "time": 229.185909,
            "velocity": 0.8267716535433071
          },
          {
            "duration": 0.3488370000000032,
            "durationTicks": 480,
            "midi": 54,
            "name": "F#3",
            "ticks": 315840,
            "time": 229.534746,
            "velocity": 0.8267716535433071
          },
          {
            "duration": 0.3488370000000032,
            "durationTicks": 480,
            "midi": 59,
            "name": "B3",
            "ticks": 315840,
            "time": 229.534746,
            "velocity": 0.8267716535433071
          },
          {
            "duration": 0.1744185000000016,
            "durationTicks": 240,
            "midi": 54,
            "name": "F#3",
            "ticks": 316320,
            "time": 229.88358300000002,
            "velocity": 0.8267716535433071
          },
          {
            "duration": 0.1744185000000016,
            "durationTicks": 240,
            "midi": 59,
            "name": "B3",
            "ticks": 316320,
            "time": 229.88358300000002,
            "velocity": 0.8267716535433071
          },
          {
            "duration": 0.1744185000000016,
            "durationTicks": 240,
            "midi": 54,
            "name": "F#3",
            "ticks": 316560,
            "time": 230.05800150000002,
            "velocity": 0.8267716535433071
          },
          {
            "duration": 0.1744185000000016,
            "durationTicks": 240,
            "midi": 59,
            "name": "B3",
            "ticks": 316560,
            "time": 230.05800150000002,
            "velocity": 0.8267716535433071
          },
          {
            "duration": 0.34883699999997475,
            "durationTicks": 480,
            "midi": 52,
            "name": "E3",
            "ticks": 316800,
            "time": 230.23242000000002,
            "velocity": 0.7480314960629921
          },
          {
            "duration": 0.34883699999997475,
            "durationTicks": 480,
            "midi": 59,
            "name": "B3",
            "ticks": 316800,
            "time": 230.23242000000002,
            "velocity": 0.7480314960629921
          },
          {
            "duration": 0.3488370000000032,
            "durationTicks": 480,
            "midi": 59,
            "name": "B3",
            "ticks": 317280,
            "time": 230.581257,
            "velocity": 0.7480314960629921
          },
          {
            "duration": 0.3488370000000032,
            "durationTicks": 480,
            "midi": 52,
            "name": "E3",
            "ticks": 317760,
            "time": 230.930094,
            "velocity": 0.6535433070866141
          },
          {
            "duration": 0.3488370000000032,
            "durationTicks": 480,
            "midi": 59,
            "name": "B3",
            "ticks": 317760,
            "time": 230.930094,
            "velocity": 0.7952755905511811
          },
          {
            "duration": 0.3488370000000032,
            "durationTicks": 480,
            "midi": 52,
            "name": "E3",
            "ticks": 318240,
            "time": 231.278931,
            "velocity": 0.8267716535433071
          },
          {
            "duration": 0.3488370000000032,
            "durationTicks": 480,
            "midi": 59,
            "name": "B3",
            "ticks": 318240,
            "time": 231.278931,
            "velocity": 0.8267716535433071
          },
          {
            "duration": 0.3488370000000032,
            "durationTicks": 480,
            "midi": 52,
            "name": "E3",
            "ticks": 318720,
            "time": 231.627768,
            "velocity": 0.8267716535433071
          },
          {
            "duration": 0.3488370000000032,
            "durationTicks": 480,
            "midi": 59,
            "name": "B3",
            "ticks": 318720,
            "time": 231.627768,
            "velocity": 0.8267716535433071
          },
          {
            "duration": 0.3488370000000032,
            "durationTicks": 480,
            "midi": 52,
            "name": "E3",
            "ticks": 319200,
            "time": 231.976605,
            "velocity": 0.7952755905511811
          },
          {
            "duration": 0.3488370000000032,
            "durationTicks": 480,
            "midi": 59,
            "name": "B3",
            "ticks": 319200,
            "time": 231.976605,
            "velocity": 0.7322834645669292
          },
          {
            "duration": 0.3488370000000032,
            "durationTicks": 480,
            "midi": 52,
            "name": "E3",
            "ticks": 319680,
            "time": 232.325442,
            "velocity": 0.84251968503937
          },
          {
            "duration": 0.3488370000000032,
            "durationTicks": 480,
            "midi": 59,
            "name": "B3",
            "ticks": 319680,
            "time": 232.325442,
            "velocity": 0.8110236220472441
          },
          {
            "duration": 0.1744185000000016,
            "durationTicks": 240,
            "midi": 52,
            "name": "E3",
            "ticks": 320160,
            "time": 232.674279,
            "velocity": 0.8267716535433071
          },
          {
            "duration": 0.1744185000000016,
            "durationTicks": 240,
            "midi": 59,
            "name": "B3",
            "ticks": 320160,
            "time": 232.674279,
            "velocity": 0.8740157480314961
          },
          {
            "duration": 0.1744185000000016,
            "durationTicks": 240,
            "midi": 52,
            "name": "E3",
            "ticks": 320400,
            "time": 232.84869750000001,
            "velocity": 0.8267716535433071
          },
          {
            "duration": 0.1744185000000016,
            "durationTicks": 240,
            "midi": 59,
            "name": "B3",
            "ticks": 320400,
            "time": 232.84869750000001,
            "velocity": 0.8740157480314961
          },
          {
            "duration": 0.3488370000000032,
            "durationTicks": 480,
            "midi": 52,
            "name": "E3",
            "ticks": 320640,
            "time": 233.02311600000002,
            "velocity": 0.8582677165354331
          },
          {
            "duration": 0.3488370000000032,
            "durationTicks": 480,
            "midi": 59,
            "name": "B3",
            "ticks": 320640,
            "time": 233.02311600000002,
            "velocity": 0.8740157480314961
          },
          {
            "duration": 0.34883699999997475,
            "durationTicks": 480,
            "midi": 59,
            "name": "B3",
            "ticks": 321120,
            "time": 233.37195300000002,
            "velocity": 0.8582677165354331
          },
          {
            "duration": 0.3488370000000032,
            "durationTicks": 480,
            "midi": 52,
            "name": "E3",
            "ticks": 321600,
            "time": 233.72079,
            "velocity": 0.8976377952755905
          },
          {
            "duration": 0.3488370000000032,
            "durationTicks": 480,
            "midi": 59,
            "name": "B3",
            "ticks": 321600,
            "time": 233.72079,
            "velocity": 0.8582677165354331
          },
          {
            "duration": 0.3488370000000032,
            "durationTicks": 480,
            "midi": 52,
            "name": "E3",
            "ticks": 322080,
            "time": 234.069627,
            "velocity": 0.8267716535433071
          },
          {
            "duration": 0.3488370000000032,
            "durationTicks": 480,
            "midi": 59,
            "name": "B3",
            "ticks": 322080,
            "time": 234.069627,
            "velocity": 0.8267716535433071
          },
          {
            "duration": 0.3488370000000032,
            "durationTicks": 480,
            "midi": 52,
            "name": "E3",
            "ticks": 322560,
            "time": 234.418464,
            "velocity": 0.8267716535433071
          },
          {
            "duration": 0.3488370000000032,
            "durationTicks": 480,
            "midi": 59,
            "name": "B3",
            "ticks": 322560,
            "time": 234.418464,
            "velocity": 0.8267716535433071
          },
          {
            "duration": 0.3488370000000032,
            "durationTicks": 480,
            "midi": 52,
            "name": "E3",
            "ticks": 323040,
            "time": 234.767301,
            "velocity": 0.8267716535433071
          },
          {
            "duration": 0.3488370000000032,
            "durationTicks": 480,
            "midi": 59,
            "name": "B3",
            "ticks": 323040,
            "time": 234.767301,
            "velocity": 0.8267716535433071
          },
          {
            "duration": 0.3488370000000032,
            "durationTicks": 480,
            "midi": 52,
            "name": "E3",
            "ticks": 323520,
            "time": 235.116138,
            "velocity": 0.8267716535433071
          },
          {
            "duration": 0.3488370000000032,
            "durationTicks": 480,
            "midi": 59,
            "name": "B3",
            "ticks": 323520,
            "time": 235.116138,
            "velocity": 0.8267716535433071
          },
          {
            "duration": 0.1744185000000016,
            "durationTicks": 240,
            "midi": 52,
            "name": "E3",
            "ticks": 324000,
            "time": 235.464975,
            "velocity": 0.8267716535433071
          },
          {
            "duration": 0.1744185000000016,
            "durationTicks": 240,
            "midi": 59,
            "name": "B3",
            "ticks": 324000,
            "time": 235.464975,
            "velocity": 0.8267716535433071
          },
          {
            "duration": 0.1744185000000016,
            "durationTicks": 240,
            "midi": 52,
            "name": "E3",
            "ticks": 324240,
            "time": 235.6393935,
            "velocity": 0.8267716535433071
          },
          {
            "duration": 0.1744185000000016,
            "durationTicks": 240,
            "midi": 59,
            "name": "B3",
            "ticks": 324240,
            "time": 235.6393935,
            "velocity": 0.8267716535433071
          },
          {
            "duration": 0.3488370000000032,
            "durationTicks": 480,
            "midi": 47,
            "name": "B2",
            "ticks": 324480,
            "time": 235.813812,
            "velocity": 0.7480314960629921
          },
          {
            "duration": 0.3488370000000032,
            "durationTicks": 480,
            "midi": 54,
            "name": "F#3",
            "ticks": 324480,
            "time": 235.813812,
            "velocity": 0.7480314960629921
          },
          {
            "duration": 0.3488370000000032,
            "durationTicks": 480,
            "midi": 47,
            "name": "B2",
            "ticks": 324960,
            "time": 236.16264900000002,
            "velocity": 0.7480314960629921
          },
          {
            "duration": 0.34883699999997475,
            "durationTicks": 480,
            "midi": 47,
            "name": "B2",
            "ticks": 325440,
            "time": 236.51148600000002,
            "velocity": 0.7952755905511811
          },
          {
            "duration": 0.34883699999997475,
            "durationTicks": 480,
            "midi": 54,
            "name": "F#3",
            "ticks": 325440,
            "time": 236.51148600000002,
            "velocity": 0.6535433070866141
          },
          {
            "duration": 0.3488370000000032,
            "durationTicks": 480,
            "midi": 47,
            "name": "B2",
            "ticks": 325920,
            "time": 236.860323,
            "velocity": 0.8267716535433071
          },
          {
            "duration": 0.3488370000000032,
            "durationTicks": 480,
            "midi": 54,
            "name": "F#3",
            "ticks": 325920,
            "time": 236.860323,
            "velocity": 0.8267716535433071
          },
          {
            "duration": 0.3488370000000032,
            "durationTicks": 480,
            "midi": 47,
            "name": "B2",
            "ticks": 326400,
            "time": 237.20916,
            "velocity": 0.8267716535433071
          },
          {
            "duration": 0.3488370000000032,
            "durationTicks": 480,
            "midi": 54,
            "name": "F#3",
            "ticks": 326400,
            "time": 237.20916,
            "velocity": 0.8267716535433071
          },
          {
            "duration": 0.3488370000000032,
            "durationTicks": 480,
            "midi": 47,
            "name": "B2",
            "ticks": 326880,
            "time": 237.557997,
            "velocity": 0.7322834645669292
          },
          {
            "duration": 0.3488370000000032,
            "durationTicks": 480,
            "midi": 54,
            "name": "F#3",
            "ticks": 326880,
            "time": 237.557997,
            "velocity": 0.7952755905511811
          },
          {
            "duration": 0.3488370000000032,
            "durationTicks": 480,
            "midi": 47,
            "name": "B2",
            "ticks": 327360,
            "time": 237.906834,
            "velocity": 0.8110236220472441
          },
          {
            "duration": 0.3488370000000032,
            "durationTicks": 480,
            "midi": 54,
            "name": "F#3",
            "ticks": 327360,
            "time": 237.906834,
            "velocity": 0.84251968503937
          },
          {
            "duration": 0.1744185000000016,
            "durationTicks": 240,
            "midi": 47,
            "name": "B2",
            "ticks": 327840,
            "time": 238.255671,
            "velocity": 0.8740157480314961
          },
          {
            "duration": 0.1744185000000016,
            "durationTicks": 240,
            "midi": 54,
            "name": "F#3",
            "ticks": 327840,
            "time": 238.255671,
            "velocity": 0.8267716535433071
          },
          {
            "duration": 0.1744185000000016,
            "durationTicks": 240,
            "midi": 47,
            "name": "B2",
            "ticks": 328080,
            "time": 238.4300895,
            "velocity": 0.8740157480314961
          },
          {
            "duration": 0.1744185000000016,
            "durationTicks": 240,
            "midi": 54,
            "name": "F#3",
            "ticks": 328080,
            "time": 238.4300895,
            "velocity": 0.8267716535433071
          },
          {
            "duration": 0.3488370000000032,
            "durationTicks": 480,
            "midi": 47,
            "name": "B2",
            "ticks": 328320,
            "time": 238.604508,
            "velocity": 0.8582677165354331
          },
          {
            "duration": 0.3488370000000032,
            "durationTicks": 480,
            "midi": 47,
            "name": "B2",
            "ticks": 328320,
            "time": 238.604508,
            "velocity": 0.8740157480314961
          },
          {
            "duration": 0.3488370000000032,
            "durationTicks": 480,
            "midi": 54,
            "name": "F#3",
            "ticks": 328320,
            "time": 238.604508,
            "velocity": 0.8582677165354331
          },
          {
            "duration": 0.3488370000000032,
            "durationTicks": 480,
            "midi": 54,
            "name": "F#3",
            "ticks": 328320,
            "time": 238.604508,
            "velocity": 0.8267716535433071
          },
          {
            "duration": 0.3488370000000032,
            "durationTicks": 480,
            "midi": 47,
            "name": "B2",
            "ticks": 328800,
            "time": 238.953345,
            "velocity": 0.8582677165354331
          },
          {
            "duration": 0.3488370000000032,
            "durationTicks": 480,
            "midi": 47,
            "name": "B2",
            "ticks": 329280,
            "time": 239.30218200000002,
            "velocity": 0.8582677165354331
          },
          {
            "duration": 0.3488370000000032,
            "durationTicks": 480,
            "midi": 54,
            "name": "F#3",
            "ticks": 329280,
            "time": 239.30218200000002,
            "velocity": 0.8976377952755905
          },
          {
            "duration": 0.34883699999997475,
            "durationTicks": 480,
            "midi": 47,
            "name": "B2",
            "ticks": 329760,
            "time": 239.65101900000002,
            "velocity": 0.8267716535433071
          },
          {
            "duration": 0.34883699999997475,
            "durationTicks": 480,
            "midi": 54,
            "name": "F#3",
            "ticks": 329760,
            "time": 239.65101900000002,
            "velocity": 0.8267716535433071
          },
          {
            "duration": 0.3488370000000032,
            "durationTicks": 480,
            "midi": 47,
            "name": "B2",
            "ticks": 330240,
            "time": 239.999856,
            "velocity": 0.8267716535433071
          },
          {
            "duration": 0.3488370000000032,
            "durationTicks": 480,
            "midi": 54,
            "name": "F#3",
            "ticks": 330240,
            "time": 239.999856,
            "velocity": 0.8267716535433071
          },
          {
            "duration": 0.3488370000000032,
            "durationTicks": 480,
            "midi": 47,
            "name": "B2",
            "ticks": 330720,
            "time": 240.348693,
            "velocity": 0.8267716535433071
          },
          {
            "duration": 0.3488370000000032,
            "durationTicks": 480,
            "midi": 54,
            "name": "F#3",
            "ticks": 330720,
            "time": 240.348693,
            "velocity": 0.8267716535433071
          },
          {
            "duration": 0.3488370000000032,
            "durationTicks": 480,
            "midi": 47,
            "name": "B2",
            "ticks": 331200,
            "time": 240.69753,
            "velocity": 0.8267716535433071
          },
          {
            "duration": 0.3488370000000032,
            "durationTicks": 480,
            "midi": 54,
            "name": "F#3",
            "ticks": 331200,
            "time": 240.69753,
            "velocity": 0.8267716535433071
          },
          {
            "duration": 0.1744185000000016,
            "durationTicks": 240,
            "midi": 47,
            "name": "B2",
            "ticks": 331680,
            "time": 241.046367,
            "velocity": 0.8267716535433071
          },
          {
            "duration": 0.1744185000000016,
            "durationTicks": 240,
            "midi": 54,
            "name": "F#3",
            "ticks": 331680,
            "time": 241.046367,
            "velocity": 0.8267716535433071
          },
          {
            "duration": 0.1744185000000016,
            "durationTicks": 240,
            "midi": 47,
            "name": "B2",
            "ticks": 331920,
            "time": 241.2207855,
            "velocity": 0.8267716535433071
          },
          {
            "duration": 0.1744185000000016,
            "durationTicks": 240,
            "midi": 54,
            "name": "F#3",
            "ticks": 331920,
            "time": 241.2207855,
            "velocity": 0.8267716535433071
          },
          {
            "duration": 0.3488370000000032,
            "durationTicks": 480,
            "midi": 54,
            "name": "F#3",
            "ticks": 332160,
            "time": 241.395204,
            "velocity": 0.7480314960629921
          },
          {
            "duration": 0.3488370000000032,
            "durationTicks": 480,
            "midi": 61,
            "name": "C#4",
            "ticks": 332160,
            "time": 241.395204,
            "velocity": 0.8267716535433071
          },
          {
            "duration": 0.3488370000000032,
            "durationTicks": 480,
            "midi": 61,
            "name": "C#4",
            "ticks": 332640,
            "time": 241.744041,
            "velocity": 0.7480314960629921
          },
          {
            "duration": 0.3488370000000032,
            "durationTicks": 480,
            "midi": 54,
            "name": "F#3",
            "ticks": 333120,
            "time": 242.092878,
            "velocity": 0.6535433070866141
          },
          {
            "duration": 0.3488370000000032,
            "durationTicks": 480,
            "midi": 61,
            "name": "C#4",
            "ticks": 333120,
            "time": 242.092878,
            "velocity": 0.7952755905511811
          },
          {
            "duration": 0.3488370000000032,
            "durationTicks": 480,
            "midi": 54,
            "name": "F#3",
            "ticks": 333600,
            "time": 242.44171500000002,
            "velocity": 0.8267716535433071
          },
          {
            "duration": 0.3488370000000032,
            "durationTicks": 480,
            "midi": 61,
            "name": "C#4",
            "ticks": 333600,
            "time": 242.44171500000002,
            "velocity": 0.8267716535433071
          },
          {
            "duration": 0.34883699999997475,
            "durationTicks": 480,
            "midi": 54,
            "name": "F#3",
            "ticks": 334080,
            "time": 242.79055200000002,
            "velocity": 0.8267716535433071
          },
          {
            "duration": 0.34883699999997475,
            "durationTicks": 480,
            "midi": 61,
            "name": "C#4",
            "ticks": 334080,
            "time": 242.79055200000002,
            "velocity": 0.8267716535433071
          },
          {
            "duration": 0.3488370000000032,
            "durationTicks": 480,
            "midi": 54,
            "name": "F#3",
            "ticks": 334560,
            "time": 243.139389,
            "velocity": 0.7952755905511811
          },
          {
            "duration": 0.3488370000000032,
            "durationTicks": 480,
            "midi": 61,
            "name": "C#4",
            "ticks": 334560,
            "time": 243.139389,
            "velocity": 0.7322834645669292
          },
          {
            "duration": 0.3488370000000032,
            "durationTicks": 480,
            "midi": 54,
            "name": "F#3",
            "ticks": 335040,
            "time": 243.488226,
            "velocity": 0.84251968503937
          },
          {
            "duration": 0.3488370000000032,
            "durationTicks": 480,
            "midi": 61,
            "name": "C#4",
            "ticks": 335040,
            "time": 243.488226,
            "velocity": 0.8110236220472441
          },
          {
            "duration": 0.1744185000000016,
            "durationTicks": 240,
            "midi": 54,
            "name": "F#3",
            "ticks": 335520,
            "time": 243.837063,
            "velocity": 0.8267716535433071
          },
          {
            "duration": 0.1744185000000016,
            "durationTicks": 240,
            "midi": 61,
            "name": "C#4",
            "ticks": 335520,
            "time": 243.837063,
            "velocity": 0.8740157480314961
          },
          {
            "duration": 0.1744185000000016,
            "durationTicks": 240,
            "midi": 54,
            "name": "F#3",
            "ticks": 335760,
            "time": 244.0114815,
            "velocity": 0.8267716535433071
          },
          {
            "duration": 0.1744185000000016,
            "durationTicks": 240,
            "midi": 61,
            "name": "C#4",
            "ticks": 335760,
            "time": 244.0114815,
            "velocity": 0.8740157480314961
          },
          {
            "duration": 0.3488370000000032,
            "durationTicks": 480,
            "midi": 54,
            "name": "F#3",
            "ticks": 336000,
            "time": 244.1859,
            "velocity": 0.8267716535433071
          },
          {
            "duration": 0.3488370000000032,
            "durationTicks": 480,
            "midi": 59,
            "name": "B3",
            "ticks": 336000,
            "time": 244.1859,
            "velocity": 0.8582677165354331
          },
          {
            "duration": 0.3488370000000032,
            "durationTicks": 480,
            "midi": 59,
            "name": "B3",
            "ticks": 336480,
            "time": 244.534737,
            "velocity": 0.8582677165354331
          },
          {
            "duration": 0.3488370000000032,
            "durationTicks": 480,
            "midi": 54,
            "name": "F#3",
            "ticks": 336960,
            "time": 244.883574,
            "velocity": 0.8976377952755905
          },
          {
            "duration": 0.3488370000000032,
            "durationTicks": 480,
            "midi": 59,
            "name": "B3",
            "ticks": 336960,
            "time": 244.883574,
            "velocity": 0.8582677165354331
          },
          {
            "duration": 0.3488370000000032,
            "durationTicks": 480,
            "midi": 54,
            "name": "F#3",
            "ticks": 337440,
            "time": 245.232411,
            "velocity": 0.8267716535433071
          },
          {
            "duration": 0.3488370000000032,
            "durationTicks": 480,
            "midi": 59,
            "name": "B3",
            "ticks": 337440,
            "time": 245.232411,
            "velocity": 0.8267716535433071
          },
          {
            "duration": 0.3488370000000032,
            "durationTicks": 480,
            "midi": 54,
            "name": "F#3",
            "ticks": 337920,
            "time": 245.58124800000002,
            "velocity": 0.8267716535433071
          },
          {
            "duration": 0.3488370000000032,
            "durationTicks": 480,
            "midi": 59,
            "name": "B3",
            "ticks": 337920,
            "time": 245.58124800000002,
            "velocity": 0.8267716535433071
          },
          {
            "duration": 0.34883699999997475,
            "durationTicks": 480,
            "midi": 54,
            "name": "F#3",
            "ticks": 338400,
            "time": 245.93008500000002,
            "velocity": 0.8267716535433071
          },
          {
            "duration": 0.34883699999997475,
            "durationTicks": 480,
            "midi": 59,
            "name": "B3",
            "ticks": 338400,
            "time": 245.93008500000002,
            "velocity": 0.8267716535433071
          },
          {
            "duration": 0.3488370000000032,
            "durationTicks": 480,
            "midi": 54,
            "name": "F#3",
            "ticks": 338880,
            "time": 246.278922,
            "velocity": 0.8267716535433071
          },
          {
            "duration": 0.3488370000000032,
            "durationTicks": 480,
            "midi": 59,
            "name": "B3",
            "ticks": 338880,
            "time": 246.278922,
            "velocity": 0.8267716535433071
          },
          {
            "duration": 0.1744185000000016,
            "durationTicks": 240,
            "midi": 54,
            "name": "F#3",
            "ticks": 339360,
            "time": 246.627759,
            "velocity": 0.8267716535433071
          },
          {
            "duration": 0.1744185000000016,
            "durationTicks": 240,
            "midi": 59,
            "name": "B3",
            "ticks": 339360,
            "time": 246.627759,
            "velocity": 0.8267716535433071
          },
          {
            "duration": 0.1744185000000016,
            "durationTicks": 240,
            "midi": 54,
            "name": "F#3",
            "ticks": 339600,
            "time": 246.8021775,
            "velocity": 0.8267716535433071
          },
          {
            "duration": 0.1744185000000016,
            "durationTicks": 240,
            "midi": 59,
            "name": "B3",
            "ticks": 339600,
            "time": 246.8021775,
            "velocity": 0.8267716535433071
          },
          {
            "duration": 0.3488370000000032,
            "durationTicks": 480,
            "midi": 52,
            "name": "E3",
            "ticks": 339840,
            "time": 246.976596,
            "velocity": 0.7480314960629921
          },
          {
            "duration": 0.3488370000000032,
            "durationTicks": 480,
            "midi": 59,
            "name": "B3",
            "ticks": 339840,
            "time": 246.976596,
            "velocity": 0.7480314960629921
          },
          {
            "duration": 0.3488370000000032,
            "durationTicks": 480,
            "midi": 59,
            "name": "B3",
            "ticks": 340320,
            "time": 247.325433,
            "velocity": 0.7480314960629921
          },
          {
            "duration": 0.3488370000000032,
            "durationTicks": 480,
            "midi": 52,
            "name": "E3",
            "ticks": 340800,
            "time": 247.67427,
            "velocity": 0.6535433070866141
          },
          {
            "duration": 0.3488370000000032,
            "durationTicks": 480,
            "midi": 59,
            "name": "B3",
            "ticks": 340800,
            "time": 247.67427,
            "velocity": 0.7952755905511811
          },
          {
            "duration": 0.3488370000000032,
            "durationTicks": 480,
            "midi": 52,
            "name": "E3",
            "ticks": 341280,
            "time": 248.023107,
            "velocity": 0.8267716535433071
          },
          {
            "duration": 0.3488370000000032,
            "durationTicks": 480,
            "midi": 59,
            "name": "B3",
            "ticks": 341280,
            "time": 248.023107,
            "velocity": 0.8267716535433071
          },
          {
            "duration": 0.3488370000000032,
            "durationTicks": 480,
            "midi": 52,
            "name": "E3",
            "ticks": 341760,
            "time": 248.371944,
            "velocity": 0.8267716535433071
          },
          {
            "duration": 0.3488370000000032,
            "durationTicks": 480,
            "midi": 59,
            "name": "B3",
            "ticks": 341760,
            "time": 248.371944,
            "velocity": 0.8267716535433071
          },
          {
            "duration": 0.3488370000000032,
            "durationTicks": 480,
            "midi": 52,
            "name": "E3",
            "ticks": 342240,
            "time": 248.72078100000002,
            "velocity": 0.7952755905511811
          },
          {
            "duration": 0.3488370000000032,
            "durationTicks": 480,
            "midi": 59,
            "name": "B3",
            "ticks": 342240,
            "time": 248.72078100000002,
            "velocity": 0.7322834645669292
          },
          {
            "duration": 0.34883699999997475,
            "durationTicks": 480,
            "midi": 52,
            "name": "E3",
            "ticks": 342720,
            "time": 249.06961800000002,
            "velocity": 0.84251968503937
          },
          {
            "duration": 0.34883699999997475,
            "durationTicks": 480,
            "midi": 59,
            "name": "B3",
            "ticks": 342720,
            "time": 249.06961800000002,
            "velocity": 0.8110236220472441
          },
          {
            "duration": 0.1744185000000016,
            "durationTicks": 240,
            "midi": 52,
            "name": "E3",
            "ticks": 343200,
            "time": 249.418455,
            "velocity": 0.8267716535433071
          },
          {
            "duration": 0.1744185000000016,
            "durationTicks": 240,
            "midi": 59,
            "name": "B3",
            "ticks": 343200,
            "time": 249.418455,
            "velocity": 0.8740157480314961
          },
          {
            "duration": 0.1744185000000016,
            "durationTicks": 240,
            "midi": 52,
            "name": "E3",
            "ticks": 343440,
            "time": 249.5928735,
            "velocity": 0.8267716535433071
          },
          {
            "duration": 0.1744185000000016,
            "durationTicks": 240,
            "midi": 59,
            "name": "B3",
            "ticks": 343440,
            "time": 249.5928735,
            "velocity": 0.8740157480314961
          },
          {
            "duration": 0.3488370000000032,
            "durationTicks": 480,
            "midi": 52,
            "name": "E3",
            "ticks": 343680,
            "time": 249.767292,
            "velocity": 0.8582677165354331
          },
          {
            "duration": 0.3488370000000032,
            "durationTicks": 480,
            "midi": 59,
            "name": "B3",
            "ticks": 343680,
            "time": 249.767292,
            "velocity": 0.8740157480314961
          },
          {
            "duration": 0.3488370000000032,
            "durationTicks": 480,
            "midi": 59,
            "name": "B3",
            "ticks": 344160,
            "time": 250.116129,
            "velocity": 0.8582677165354331
          },
          {
            "duration": 0.3488370000000032,
            "durationTicks": 480,
            "midi": 52,
            "name": "E3",
            "ticks": 344640,
            "time": 250.464966,
            "velocity": 0.8976377952755905
          },
          {
            "duration": 0.3488370000000032,
            "durationTicks": 480,
            "midi": 59,
            "name": "B3",
            "ticks": 344640,
            "time": 250.464966,
            "velocity": 0.8582677165354331
          },
          {
            "duration": 0.3488370000000032,
            "durationTicks": 480,
            "midi": 52,
            "name": "E3",
            "ticks": 345120,
            "time": 250.813803,
            "velocity": 0.8267716535433071
          },
          {
            "duration": 0.3488370000000032,
            "durationTicks": 480,
            "midi": 59,
            "name": "B3",
            "ticks": 345120,
            "time": 250.813803,
            "velocity": 0.8267716535433071
          },
          {
            "duration": 0.3488370000000032,
            "durationTicks": 480,
            "midi": 52,
            "name": "E3",
            "ticks": 345600,
            "time": 251.16264,
            "velocity": 0.8267716535433071
          },
          {
            "duration": 0.3488370000000032,
            "durationTicks": 480,
            "midi": 59,
            "name": "B3",
            "ticks": 345600,
            "time": 251.16264,
            "velocity": 0.8267716535433071
          },
          {
            "duration": 0.3488370000000032,
            "durationTicks": 480,
            "midi": 52,
            "name": "E3",
            "ticks": 346080,
            "time": 251.511477,
            "velocity": 0.8267716535433071
          },
          {
            "duration": 0.3488370000000032,
            "durationTicks": 480,
            "midi": 59,
            "name": "B3",
            "ticks": 346080,
            "time": 251.511477,
            "velocity": 0.8267716535433071
          },
          {
            "duration": 0.3488370000000032,
            "durationTicks": 480,
            "midi": 52,
            "name": "E3",
            "ticks": 346560,
            "time": 251.86031400000002,
            "velocity": 0.8267716535433071
          },
          {
            "duration": 0.3488370000000032,
            "durationTicks": 480,
            "midi": 59,
            "name": "B3",
            "ticks": 346560,
            "time": 251.86031400000002,
            "velocity": 0.8267716535433071
          },
          {
            "duration": 0.17441849999997316,
            "durationTicks": 240,
            "midi": 52,
            "name": "E3",
            "ticks": 347040,
            "time": 252.20915100000002,
            "velocity": 0.8267716535433071
          },
          {
            "duration": 0.17441849999997316,
            "durationTicks": 240,
            "midi": 59,
            "name": "B3",
            "ticks": 347040,
            "time": 252.20915100000002,
            "velocity": 0.8267716535433071
          },
          {
            "duration": 0.1744185000000016,
            "durationTicks": 240,
            "midi": 52,
            "name": "E3",
            "ticks": 347280,
            "time": 252.3835695,
            "velocity": 0.8267716535433071
          },
          {
            "duration": 0.1744185000000016,
            "durationTicks": 240,
            "midi": 59,
            "name": "B3",
            "ticks": 347280,
            "time": 252.3835695,
            "velocity": 0.8267716535433071
          },
          {
            "duration": 0.6976740000000063,
            "durationTicks": 960,
            "midi": 59,
            "name": "B3",
            "ticks": 347520,
            "time": 252.557988,
            "velocity": 0.6299212598425197
          },
          {
            "duration": 0.6976740000000063,
            "durationTicks": 960,
            "midi": 63,
            "name": "D#4",
            "ticks": 347520,
            "time": 252.557988,
            "velocity": 0.6299212598425197
          },
          {
            "duration": 0.6976740000000063,
            "durationTicks": 960,
            "midi": 59,
            "name": "B3",
            "ticks": 348480,
            "time": 253.255662,
            "velocity": 0.6299212598425197
          },
          {
            "duration": 0.6976740000000063,
            "durationTicks": 960,
            "midi": 63,
            "name": "D#4",
            "ticks": 348480,
            "time": 253.255662,
            "velocity": 0.6299212598425197
          },
          {
            "duration": 0.3488370000000032,
            "durationTicks": 480,
            "midi": 59,
            "name": "B3",
            "ticks": 349440,
            "time": 253.953336,
            "velocity": 0.6299212598425197
          },
          {
            "duration": 0.3488370000000032,
            "durationTicks": 480,
            "midi": 63,
            "name": "D#4",
            "ticks": 349440,
            "time": 253.953336,
            "velocity": 0.6299212598425197
          },
          {
            "duration": 0.3488370000000032,
            "durationTicks": 480,
            "midi": 59,
            "name": "B3",
            "ticks": 349920,
            "time": 254.302173,
            "velocity": 0.6299212598425197
          },
          {
            "duration": 0.3488370000000032,
            "durationTicks": 480,
            "midi": 63,
            "name": "D#4",
            "ticks": 349920,
            "time": 254.302173,
            "velocity": 0.6299212598425197
          },
          {
            "duration": 0.5232555000000048,
            "durationTicks": 720,
            "midi": 59,
            "name": "B3",
            "ticks": 350400,
            "time": 254.65101,
            "velocity": 0.6299212598425197
          },
          {
            "duration": 0.5232555000000048,
            "durationTicks": 720,
            "midi": 66,
            "name": "F#4",
            "ticks": 350400,
            "time": 254.65101,
            "velocity": 0.6299212598425197
          },
          {
            "duration": 0.1744185000000016,
            "durationTicks": 240,
            "midi": 59,
            "name": "B3",
            "ticks": 351120,
            "time": 255.17426550000002,
            "velocity": 0.6299212598425197
          },
          {
            "duration": 0.1744185000000016,
            "durationTicks": 240,
            "midi": 66,
            "name": "F#4",
            "ticks": 351120,
            "time": 255.17426550000002,
            "velocity": 0.6299212598425197
          },
          {
            "duration": 0.6976739999999779,
            "durationTicks": 960,
            "midi": 59,
            "name": "B3",
            "ticks": 351360,
            "time": 255.34868400000002,
            "velocity": 0.6299212598425197
          },
          {
            "duration": 0.6976739999999779,
            "durationTicks": 960,
            "midi": 66,
            "name": "F#4",
            "ticks": 351360,
            "time": 255.34868400000002,
            "velocity": 0.6299212598425197
          },
          {
            "duration": 0.3488370000000032,
            "durationTicks": 480,
            "midi": 59,
            "name": "B3",
            "ticks": 352320,
            "time": 256.046358,
            "velocity": 0.6299212598425197
          },
          {
            "duration": 0.3488370000000032,
            "durationTicks": 480,
            "midi": 66,
            "name": "F#4",
            "ticks": 352320,
            "time": 256.046358,
            "velocity": 0.6299212598425197
          },
          {
            "duration": 0.3488370000000032,
            "durationTicks": 480,
            "midi": 59,
            "name": "B3",
            "ticks": 352800,
            "time": 256.395195,
            "velocity": 0.6299212598425197
          },
          {
            "duration": 0.3488370000000032,
            "durationTicks": 480,
            "midi": 63,
            "name": "D#4",
            "ticks": 352800,
            "time": 256.395195,
            "velocity": 0.6299212598425197
          },
          {
            "duration": 0.3488370000000032,
            "durationTicks": 480,
            "midi": 59,
            "name": "B3",
            "ticks": 353280,
            "time": 256.744032,
            "velocity": 0.6299212598425197
          },
          {
            "duration": 0.3488370000000032,
            "durationTicks": 480,
            "midi": 63,
            "name": "D#4",
            "ticks": 353280,
            "time": 256.744032,
            "velocity": 0.6299212598425197
          },
          {
            "duration": 0.3488370000000032,
            "durationTicks": 480,
            "midi": 59,
            "name": "B3",
            "ticks": 353760,
            "time": 257.092869,
            "velocity": 0.6299212598425197
          },
          {
            "duration": 0.3488370000000032,
            "durationTicks": 480,
            "midi": 63,
            "name": "D#4",
            "ticks": 353760,
            "time": 257.092869,
            "velocity": 0.6299212598425197
          },
          {
            "duration": 0.3488370000000032,
            "durationTicks": 480,
            "midi": 59,
            "name": "B3",
            "ticks": 354240,
            "time": 257.441706,
            "velocity": 0.6299212598425197
          },
          {
            "duration": 0.3488370000000032,
            "durationTicks": 480,
            "midi": 66,
            "name": "F#4",
            "ticks": 354240,
            "time": 257.441706,
            "velocity": 0.6299212598425197
          },
          {
            "duration": 0.1744185000000016,
            "durationTicks": 240,
            "midi": 59,
            "name": "B3",
            "ticks": 354720,
            "time": 257.790543,
            "velocity": 0.6299212598425197
          },
          {
            "duration": 0.1744185000000016,
            "durationTicks": 240,
            "midi": 66,
            "name": "F#4",
            "ticks": 354720,
            "time": 257.790543,
            "velocity": 0.6299212598425197
          },
          {
            "duration": 0.1744185000000016,
            "durationTicks": 240,
            "midi": 59,
            "name": "B3",
            "ticks": 354960,
            "time": 257.9649615,
            "velocity": 0.6299212598425197
          },
          {
            "duration": 0.1744185000000016,
            "durationTicks": 240,
            "midi": 66,
            "name": "F#4",
            "ticks": 354960,
            "time": 257.9649615,
            "velocity": 0.6299212598425197
          },
          {
            "duration": 0.6976740000000063,
            "durationTicks": 960,
            "midi": 66,
            "name": "F#4",
            "ticks": 355200,
            "time": 258.13938,
            "velocity": 0.6299212598425197
          },
          {
            "duration": 0.6976740000000063,
            "durationTicks": 960,
            "midi": 69,
            "name": "A4",
            "ticks": 355200,
            "time": 258.13938,
            "velocity": 0.6299212598425197
          },
          {
            "duration": 0.3488370000000032,
            "durationTicks": 480,
            "midi": 66,
            "name": "F#4",
            "ticks": 356160,
            "time": 258.837054,
            "velocity": 0.6299212598425197
          },
          {
            "duration": 0.3488370000000032,
            "durationTicks": 480,
            "midi": 69,
            "name": "A4",
            "ticks": 356160,
            "time": 258.837054,
            "velocity": 0.6299212598425197
          },
          {
            "duration": 0.6976740000000063,
            "durationTicks": 960,
            "midi": 66,
            "name": "F#4",
            "ticks": 356640,
            "time": 259.185891,
            "velocity": 0.6299212598425197
          },
          {
            "duration": 0.6976740000000063,
            "durationTicks": 960,
            "midi": 69,
            "name": "A4",
            "ticks": 356640,
            "time": 259.185891,
            "velocity": 0.6299212598425197
          },
          {
            "duration": 0.34883699999994633,
            "durationTicks": 480,
            "midi": 66,
            "name": "F#4",
            "ticks": 357600,
            "time": 259.88356500000003,
            "velocity": 0.6299212598425197
          },
          {
            "duration": 0.34883699999994633,
            "durationTicks": 480,
            "midi": 69,
            "name": "A4",
            "ticks": 357600,
            "time": 259.88356500000003,
            "velocity": 0.6299212598425197
          },
          {
            "duration": 0.5232555000000048,
            "durationTicks": 720,
            "midi": 66,
            "name": "F#4",
            "ticks": 358080,
            "time": 260.232402,
            "velocity": 0.6299212598425197
          },
          {
            "duration": 0.5232555000000048,
            "durationTicks": 720,
            "midi": 69,
            "name": "A4",
            "ticks": 358080,
            "time": 260.232402,
            "velocity": 0.6299212598425197
          },
          {
            "duration": 0.1744185000000016,
            "durationTicks": 240,
            "midi": 66,
            "name": "F#4",
            "ticks": 358800,
            "time": 260.7556575,
            "velocity": 0.6299212598425197
          },
          {
            "duration": 0.1744185000000016,
            "durationTicks": 240,
            "midi": 69,
            "name": "A4",
            "ticks": 358800,
            "time": 260.7556575,
            "velocity": 0.6299212598425197
          },
          {
            "duration": 0.6976740000000063,
            "durationTicks": 960,
            "midi": 66,
            "name": "F#4",
            "ticks": 359040,
            "time": 260.930076,
            "velocity": 0.6299212598425197
          },
          {
            "duration": 0.6976740000000063,
            "durationTicks": 960,
            "midi": 69,
            "name": "A4",
            "ticks": 359040,
            "time": 260.930076,
            "velocity": 0.6299212598425197
          },
          {
            "duration": 0.3488370000000032,
            "durationTicks": 480,
            "midi": 66,
            "name": "F#4",
            "ticks": 360000,
            "time": 261.62775,
            "velocity": 0.6299212598425197
          },
          {
            "duration": 0.3488370000000032,
            "durationTicks": 480,
            "midi": 69,
            "name": "A4",
            "ticks": 360000,
            "time": 261.62775,
            "velocity": 0.6299212598425197
          },
          {
            "duration": 0.3488370000000032,
            "durationTicks": 480,
            "midi": 66,
            "name": "F#4",
            "ticks": 360480,
            "time": 261.976587,
            "velocity": 0.6299212598425197
          },
          {
            "duration": 0.3488370000000032,
            "durationTicks": 480,
            "midi": 69,
            "name": "A4",
            "ticks": 360480,
            "time": 261.976587,
            "velocity": 0.6299212598425197
          },
          {
            "duration": 0.3488370000000032,
            "durationTicks": 480,
            "midi": 66,
            "name": "F#4",
            "ticks": 360960,
            "time": 262.325424,
            "velocity": 0.6299212598425197
          },
          {
            "duration": 0.3488370000000032,
            "durationTicks": 480,
            "midi": 69,
            "name": "A4",
            "ticks": 360960,
            "time": 262.325424,
            "velocity": 0.6299212598425197
          },
          {
            "duration": 0.3488370000000032,
            "durationTicks": 480,
            "midi": 66,
            "name": "F#4",
            "ticks": 361440,
            "time": 262.674261,
            "velocity": 0.6299212598425197
          },
          {
            "duration": 0.3488370000000032,
            "durationTicks": 480,
            "midi": 69,
            "name": "A4",
            "ticks": 361440,
            "time": 262.674261,
            "velocity": 0.6299212598425197
          },
          {
            "duration": 0.3488370000000032,
            "durationTicks": 480,
            "midi": 69,
            "name": "A4",
            "ticks": 361920,
            "time": 263.023098,
            "velocity": 0.6299212598425197
          },
          {
            "duration": 0.3488370000000032,
            "durationTicks": 480,
            "midi": 68,
            "name": "G#4",
            "ticks": 362400,
            "time": 263.371935,
            "velocity": 0.6299212598425197
          },
          {
            "duration": 2.7906959999999685,
            "durationTicks": 3840,
            "midi": 64,
            "name": "E4",
            "ticks": 362880,
            "time": 263.720772,
            "velocity": 0.6299212598425197
          },
          {
            "duration": 2.7906959999999685,
            "durationTicks": 3840,
            "midi": 68,
            "name": "G#4",
            "ticks": 362880,
            "time": 263.720772,
            "velocity": 0.6299212598425197
          },
          {
            "duration": 2.747091374999968,
            "durationTicks": 3780,
            "midi": 71,
            "name": "B4",
            "ticks": 363000,
            "time": 263.80798125,
            "velocity": 0.6299212598425197
          },
          {
            "duration": 2.7034867499999677,
            "durationTicks": 3720,
            "midi": 75,
            "name": "D#5",
            "ticks": 363000,
            "time": 263.80798125,
            "velocity": 0.6299212598425197
          }
        ]
      },
      {
        "channel": 0,
        "controlChanges": {},
        "pitchBends": [],
        "instrument": {
          "family": "piano",
          "number": 0,
          "name": "acoustic grand piano"
        },
        "name": "untitled",
        "notes": [],
        "endOfTrackTicks": 372480
      },
      {
        "channel": 4,
        "controlChanges": {
          "7": [
            {
              "number": 7,
              "ticks": 0,
              "time": 0,
              "value": 0.5511811023622047
            }
          ],
          "10": [
            {
              "number": 10,
              "ticks": 0,
              "time": 0,
              "value": 0.5039370078740157
            }
          ]
        },
        "pitchBends": [],
        "instrument": {
          "family": "guitar",
          "number": 26,
          "name": "electric guitar (jazz)"
        },
        "name": "",
        "notes": [
          {
            "duration": 0.34883700000000006,
            "durationTicks": 480,
            "midi": 66,
            "name": "F#4",
            "ticks": 1920,
            "time": 1.395348,
            "velocity": 0.6299212598425197
          },
          {
            "duration": 0.34883699999999984,
            "durationTicks": 480,
            "midi": 71,
            "name": "B4",
            "ticks": 2400,
            "time": 1.744185,
            "velocity": 0.6299212598425197
          },
          {
            "duration": 0.34883700000000006,
            "durationTicks": 480,
            "midi": 66,
            "name": "F#4",
            "ticks": 2880,
            "time": 2.093022,
            "velocity": 0.6299212598425197
          },
          {
            "duration": 0.6976740000000001,
            "durationTicks": 960,
            "midi": 71,
            "name": "B4",
            "ticks": 3360,
            "time": 2.441859,
            "velocity": 0.6299212598425197
          },
          {
            "duration": 0.34883700000000006,
            "durationTicks": 480,
            "midi": 66,
            "name": "F#4",
            "ticks": 4320,
            "time": 3.139533,
            "velocity": 0.6299212598425197
          },
          {
            "duration": 0.34883700000000006,
            "durationTicks": 480,
            "midi": 71,
            "name": "B4",
            "ticks": 4800,
            "time": 3.48837,
            "velocity": 0.6299212598425197
          },
          {
            "duration": 0.3488369999999996,
            "durationTicks": 480,
            "midi": 66,
            "name": "F#4",
            "ticks": 5280,
            "time": 3.8372070000000003,
            "velocity": 0.6299212598425197
          },
          {
            "duration": 0.3488370000000005,
            "durationTicks": 480,
            "midi": 66,
            "name": "F#4",
            "ticks": 5760,
            "time": 4.186044,
            "velocity": 0.6299212598425197
          },
          {
            "duration": 0.3488369999999996,
            "durationTicks": 480,
            "midi": 71,
            "name": "B4",
            "ticks": 6240,
            "time": 4.534881,
            "velocity": 0.6299212598425197
          },
          {
            "duration": 0.3488370000000005,
            "durationTicks": 480,
            "midi": 66,
            "name": "F#4",
            "ticks": 6720,
            "time": 4.883718,
            "velocity": 0.6299212598425197
          },
          {
            "duration": 0.6976739999999992,
            "durationTicks": 960,
            "midi": 71,
            "name": "B4",
            "ticks": 7200,
            "time": 5.2325550000000005,
            "velocity": 0.6299212598425197
          },
          {
            "duration": 0.3488370000000005,
            "durationTicks": 480,
            "midi": 66,
            "name": "F#4",
            "ticks": 8160,
            "time": 5.930229,
            "velocity": 0.6299212598425197
          },
          {
            "duration": 0.3488369999999996,
            "durationTicks": 480,
            "midi": 71,
            "name": "B4",
            "ticks": 8640,
            "time": 6.279066,
            "velocity": 0.6299212598425197
          },
          {
            "duration": 0.3488370000000005,
            "durationTicks": 480,
            "midi": 66,
            "name": "F#4",
            "ticks": 9120,
            "time": 6.627903,
            "velocity": 0.6299212598425197
          },
          {
            "duration": 0.3488369999999996,
            "durationTicks": 480,
            "midi": 66,
            "name": "F#4",
            "ticks": 9600,
            "time": 6.97674,
            "velocity": 0.6299212598425197
          },
          {
            "duration": 0.3488370000000005,
            "durationTicks": 480,
            "midi": 71,
            "name": "B4",
            "ticks": 10080,
            "time": 7.325577,
            "velocity": 0.6299212598425197
          },
          {
            "duration": 0.3488369999999996,
            "durationTicks": 480,
            "midi": 66,
            "name": "F#4",
            "ticks": 10560,
            "time": 7.6744140000000005,
            "velocity": 0.6299212598425197
          },
          {
            "duration": 0.6976739999999992,
            "durationTicks": 960,
            "midi": 71,
            "name": "B4",
            "ticks": 11040,
            "time": 8.023251,
            "velocity": 0.6299212598425197
          },
          {
            "duration": 0.3488370000000014,
            "durationTicks": 480,
            "midi": 66,
            "name": "F#4",
            "ticks": 12000,
            "time": 8.720925,
            "velocity": 0.6299212598425197
          },
          {
            "duration": 0.3488369999999996,
            "durationTicks": 480,
            "midi": 71,
            "name": "B4",
            "ticks": 12480,
            "time": 9.069762,
            "velocity": 0.6299212598425197
          },
          {
            "duration": 0.3488369999999996,
            "durationTicks": 480,
            "midi": 66,
            "name": "F#4",
            "ticks": 12960,
            "time": 9.418599,
            "velocity": 0.6299212598425197
          },
          {
            "duration": 0.3488369999999996,
            "durationTicks": 480,
            "midi": 66,
            "name": "F#4",
            "ticks": 13440,
            "time": 9.767436,
            "velocity": 0.6299212598425197
          },
          {
            "duration": 0.3488370000000014,
            "durationTicks": 480,
            "midi": 71,
            "name": "B4",
            "ticks": 13920,
            "time": 10.116273,
            "velocity": 0.6299212598425197
          },
          {
            "duration": 0.3488369999999996,
            "durationTicks": 480,
            "midi": 66,
            "name": "F#4",
            "ticks": 14400,
            "time": 10.465110000000001,
            "velocity": 0.6299212598425197
          },
          {
            "duration": 0.6976739999999992,
            "durationTicks": 960,
            "midi": 71,
            "name": "B4",
            "ticks": 14880,
            "time": 10.813947,
            "velocity": 0.6299212598425197
          },
          {
            "duration": 0.3488369999999996,
            "durationTicks": 480,
            "midi": 66,
            "name": "F#4",
            "ticks": 15840,
            "time": 11.511621,
            "velocity": 0.6299212598425197
          },
          {
            "duration": 0.3488370000000014,
            "durationTicks": 480,
            "midi": 71,
            "name": "B4",
            "ticks": 16320,
            "time": 11.860458,
            "velocity": 0.6299212598425197
          },
          {
            "duration": 0.3488369999999996,
            "durationTicks": 480,
            "midi": 66,
            "name": "F#4",
            "ticks": 16800,
            "time": 12.209295000000001,
            "velocity": 0.6299212598425197
          },
          {
            "duration": 0.3488369999999996,
            "durationTicks": 480,
            "midi": 66,
            "name": "F#4",
            "ticks": 17280,
            "time": 12.558132,
            "velocity": 0.6299212598425197
          },
          {
            "duration": 0.3488369999999996,
            "durationTicks": 480,
            "midi": 71,
            "name": "B4",
            "ticks": 17760,
            "time": 12.906969,
            "velocity": 0.6299212598425197
          },
          {
            "duration": 0.3488370000000014,
            "durationTicks": 480,
            "midi": 66,
            "name": "F#4",
            "ticks": 18240,
            "time": 13.255806,
            "velocity": 0.6299212598425197
          },
          {
            "duration": 0.6976739999999992,
            "durationTicks": 960,
            "midi": 71,
            "name": "B4",
            "ticks": 18720,
            "time": 13.604643000000001,
            "velocity": 0.6299212598425197
          },
          {
            "duration": 0.3488369999999996,
            "durationTicks": 480,
            "midi": 66,
            "name": "F#4",
            "ticks": 19680,
            "time": 14.302317,
            "velocity": 0.6299212598425197
          },
          {
            "duration": 0.3488369999999996,
            "durationTicks": 480,
            "midi": 71,
            "name": "B4",
            "ticks": 20160,
            "time": 14.651154,
            "velocity": 0.6299212598425197
          },
          {
            "duration": 0.3488370000000014,
            "durationTicks": 480,
            "midi": 66,
            "name": "F#4",
            "ticks": 20640,
            "time": 14.999991,
            "velocity": 0.6299212598425197
          },
          {
            "duration": 0.3488369999999996,
            "durationTicks": 480,
            "midi": 66,
            "name": "F#4",
            "ticks": 21120,
            "time": 15.348828000000001,
            "velocity": 0.6299212598425197
          },
          {
            "duration": 0.3488369999999996,
            "durationTicks": 480,
            "midi": 71,
            "name": "B4",
            "ticks": 21600,
            "time": 15.697665,
            "velocity": 0.6299212598425197
          },
          {
            "duration": 0.3488369999999996,
            "durationTicks": 480,
            "midi": 66,
            "name": "F#4",
            "ticks": 22080,
            "time": 16.046502,
            "velocity": 0.6299212598425197
          },
          {
            "duration": 0.6976739999999992,
            "durationTicks": 960,
            "midi": 71,
            "name": "B4",
            "ticks": 22560,
            "time": 16.395339,
            "velocity": 0.6299212598425197
          },
          {
            "duration": 0.3488369999999996,
            "durationTicks": 480,
            "midi": 66,
            "name": "F#4",
            "ticks": 23520,
            "time": 17.093013,
            "velocity": 0.6299212598425197
          },
          {
            "duration": 0.3488370000000032,
            "durationTicks": 480,
            "midi": 71,
            "name": "B4",
            "ticks": 24000,
            "time": 17.44185,
            "velocity": 0.6299212598425197
          },
          {
            "duration": 0.3488369999999996,
            "durationTicks": 480,
            "midi": 66,
            "name": "F#4",
            "ticks": 24480,
            "time": 17.790687000000002,
            "velocity": 0.6299212598425197
          },
          {
            "duration": 0.3488369999999996,
            "durationTicks": 480,
            "midi": 66,
            "name": "F#4",
            "ticks": 24960,
            "time": 18.139524,
            "velocity": 0.6299212598425197
          },
          {
            "duration": 0.3488369999999996,
            "durationTicks": 480,
            "midi": 70,
            "name": "A#4",
            "ticks": 25440,
            "time": 18.488361,
            "velocity": 0.6299212598425197
          },
          {
            "duration": 0.3488369999999996,
            "durationTicks": 480,
            "midi": 66,
            "name": "F#4",
            "ticks": 25920,
            "time": 18.837198,
            "velocity": 0.6299212598425197
          },
          {
            "duration": 0.6976739999999992,
            "durationTicks": 960,
            "midi": 70,
            "name": "A#4",
            "ticks": 26400,
            "time": 19.186035,
            "velocity": 0.6299212598425197
          },
          {
            "duration": 0.3488369999999996,
            "durationTicks": 480,
            "midi": 66,
            "name": "F#4",
            "ticks": 27360,
            "time": 19.883709,
            "velocity": 0.6299212598425197
          },
          {
            "duration": 0.3488369999999996,
            "durationTicks": 480,
            "midi": 70,
            "name": "A#4",
            "ticks": 27840,
            "time": 20.232546,
            "velocity": 0.6299212598425197
          },
          {
            "duration": 0.3488370000000032,
            "durationTicks": 480,
            "midi": 66,
            "name": "F#4",
            "ticks": 28320,
            "time": 20.581383,
            "velocity": 0.6299212598425197
          },
          {
            "duration": 0.3488369999999996,
            "durationTicks": 480,
            "midi": 66,
            "name": "F#4",
            "ticks": 28800,
            "time": 20.930220000000002,
            "velocity": 0.6299212598425197
          },
          {
            "duration": 0.3488369999999996,
            "durationTicks": 480,
            "midi": 70,
            "name": "A#4",
            "ticks": 29280,
            "time": 21.279057,
            "velocity": 0.6299212598425197
          },
          {
            "duration": 0.3488369999999996,
            "durationTicks": 480,
            "midi": 66,
            "name": "F#4",
            "ticks": 29760,
            "time": 21.627894,
            "velocity": 0.6299212598425197
          },
          {
            "duration": 0.6976739999999992,
            "durationTicks": 960,
            "midi": 70,
            "name": "A#4",
            "ticks": 30240,
            "time": 21.976731,
            "velocity": 0.6299212598425197
          },
          {
            "duration": 0.3488369999999996,
            "durationTicks": 480,
            "midi": 66,
            "name": "F#4",
            "ticks": 31200,
            "time": 22.674405,
            "velocity": 0.6299212598425197
          },
          {
            "duration": 0.3488369999999996,
            "durationTicks": 480,
            "midi": 70,
            "name": "A#4",
            "ticks": 31680,
            "time": 23.023242,
            "velocity": 0.6299212598425197
          },
          {
            "duration": 0.3488369999999996,
            "durationTicks": 480,
            "midi": 66,
            "name": "F#4",
            "ticks": 32160,
            "time": 23.372079,
            "velocity": 0.6299212598425197
          },
          {
            "duration": 0.3488370000000032,
            "durationTicks": 480,
            "midi": 61,
            "name": "C#4",
            "ticks": 32640,
            "time": 23.720916,
            "velocity": 0.6299212598425197
          },
          {
            "duration": 0.3488369999999996,
            "durationTicks": 480,
            "midi": 73,
            "name": "C#5",
            "ticks": 33120,
            "time": 24.069753000000002,
            "velocity": 0.6299212598425197
          },
          {
            "duration": 0.3488369999999996,
            "durationTicks": 480,
            "midi": 61,
            "name": "C#4",
            "ticks": 33600,
            "time": 24.418590000000002,
            "velocity": 0.6299212598425197
          },
          {
            "duration": 0.6976739999999992,
            "durationTicks": 960,
            "midi": 73,
            "name": "C#5",
            "ticks": 34080,
            "time": 24.767427,
            "velocity": 0.6299212598425197
          },
          {
            "duration": 0.3488369999999996,
            "durationTicks": 480,
            "midi": 61,
            "name": "C#4",
            "ticks": 35040,
            "time": 25.465101,
            "velocity": 0.6299212598425197
          },
          {
            "duration": 0.3488369999999996,
            "durationTicks": 480,
            "midi": 73,
            "name": "C#5",
            "ticks": 35520,
            "time": 25.813938,
            "velocity": 0.6299212598425197
          },
          {
            "duration": 0.3488369999999996,
            "durationTicks": 480,
            "midi": 61,
            "name": "C#4",
            "ticks": 36000,
            "time": 26.162775,
            "velocity": 0.6299212598425197
          },
          {
            "duration": 0.3488369999999996,
            "durationTicks": 480,
            "midi": 59,
            "name": "B3",
            "ticks": 36480,
            "time": 26.511612,
            "velocity": 0.6299212598425197
          },
          {
            "duration": 0.3488370000000032,
            "durationTicks": 480,
            "midi": 71,
            "name": "B4",
            "ticks": 36960,
            "time": 26.860449,
            "velocity": 0.6299212598425197
          },
          {
            "duration": 0.3488369999999996,
            "durationTicks": 480,
            "midi": 66,
            "name": "F#4",
            "ticks": 37440,
            "time": 27.209286000000002,
            "velocity": 0.6299212598425197
          },
          {
            "duration": 0.6976739999999992,
            "durationTicks": 960,
            "midi": 71,
            "name": "B4",
            "ticks": 37920,
            "time": 27.558123000000002,
            "velocity": 0.6299212598425197
          },
          {
            "duration": 0.3488369999999996,
            "durationTicks": 480,
            "midi": 66,
            "name": "F#4",
            "ticks": 38880,
            "time": 28.255797,
            "velocity": 0.6299212598425197
          },
          {
            "duration": 0.3488369999999996,
            "durationTicks": 480,
            "midi": 71,
            "name": "B4",
            "ticks": 39360,
            "time": 28.604634,
            "velocity": 0.6299212598425197
          },
          {
            "duration": 0.3488369999999996,
            "durationTicks": 480,
            "midi": 66,
            "name": "F#4",
            "ticks": 39840,
            "time": 28.953471,
            "velocity": 0.6299212598425197
          },
          {
            "duration": 0.3488369999999996,
            "durationTicks": 480,
            "midi": 66,
            "name": "F#4",
            "ticks": 40320,
            "time": 29.302308,
            "velocity": 0.6299212598425197
          },
          {
            "duration": 0.3488369999999996,
            "durationTicks": 480,
            "midi": 71,
            "name": "B4",
            "ticks": 40800,
            "time": 29.651145,
            "velocity": 0.6299212598425197
          },
          {
            "duration": 0.3488370000000032,
            "durationTicks": 480,
            "midi": 66,
            "name": "F#4",
            "ticks": 41280,
            "time": 29.999982,
            "velocity": 0.6299212598425197
          },
          {
            "duration": 0.6976739999999992,
            "durationTicks": 960,
            "midi": 71,
            "name": "B4",
            "ticks": 41760,
            "time": 30.348819000000002,
            "velocity": 0.6299212598425197
          },
          {
            "duration": 0.3488369999999996,
            "durationTicks": 480,
            "midi": 66,
            "name": "F#4",
            "ticks": 42720,
            "time": 31.046493,
            "velocity": 0.6299212598425197
          },
          {
            "duration": 0.3488369999999996,
            "durationTicks": 480,
            "midi": 71,
            "name": "B4",
            "ticks": 43200,
            "time": 31.39533,
            "velocity": 0.6299212598425197
          },
          {
            "duration": 0.3488369999999996,
            "durationTicks": 480,
            "midi": 66,
            "name": "F#4",
            "ticks": 43680,
            "time": 31.744167,
            "velocity": 0.6299212598425197
          },
          {
            "duration": 0.3488370000000032,
            "durationTicks": 480,
            "midi": 66,
            "name": "F#4",
            "ticks": 44160,
            "time": 32.093004,
            "velocity": 0.6299212598425197
          },
          {
            "duration": 0.34883699999999607,
            "durationTicks": 480,
            "midi": 71,
            "name": "B4",
            "ticks": 44640,
            "time": 32.441841000000004,
            "velocity": 0.6299212598425197
          },
          {
            "duration": 0.3488370000000032,
            "durationTicks": 480,
            "midi": 66,
            "name": "F#4",
            "ticks": 45120,
            "time": 32.790678,
            "velocity": 0.6299212598425197
          },
          {
            "duration": 0.6976739999999992,
            "durationTicks": 960,
            "midi": 71,
            "name": "B4",
            "ticks": 45600,
            "time": 33.139515,
            "velocity": 0.6299212598425197
          },
          {
            "duration": 0.34883699999999607,
            "durationTicks": 480,
            "midi": 66,
            "name": "F#4",
            "ticks": 46560,
            "time": 33.837189,
            "velocity": 0.6299212598425197
          },
          {
            "duration": 0.3488370000000032,
            "durationTicks": 480,
            "midi": 71,
            "name": "B4",
            "ticks": 47040,
            "time": 34.186026,
            "velocity": 0.6299212598425197
          },
          {
            "duration": 0.34883699999999607,
            "durationTicks": 480,
            "midi": 66,
            "name": "F#4",
            "ticks": 47520,
            "time": 34.534863,
            "velocity": 0.6299212598425197
          },
          {
            "duration": 0.1744185000000016,
            "durationTicks": 240,
            "midi": 66,
            "name": "F#4",
            "ticks": 117120,
            "time": 85.116228,
            "velocity": 0.7952755905511811
          },
          {
            "duration": 0.3488370000000032,
            "durationTicks": 480,
            "midi": 66,
            "name": "F#4",
            "ticks": 117600,
            "time": 85.465065,
            "velocity": 0.6377952755905512
          },
          {
            "duration": 0.3488370000000032,
            "durationTicks": 480,
            "midi": 71,
            "name": "B4",
            "ticks": 118080,
            "time": 85.813902,
            "velocity": 0.84251968503937
          },
          {
            "duration": 0.3488370000000032,
            "durationTicks": 480,
            "midi": 66,
            "name": "F#4",
            "ticks": 118560,
            "time": 86.162739,
            "velocity": 0.8110236220472441
          },
          {
            "duration": 0.3488370000000032,
            "durationTicks": 480,
            "midi": 71,
            "name": "B4",
            "ticks": 119040,
            "time": 86.511576,
            "velocity": 0.8582677165354331
          },
          {
            "duration": 0.34883699999998896,
            "durationTicks": 480,
            "midi": 66,
            "name": "F#4",
            "ticks": 119520,
            "time": 86.86041300000001,
            "velocity": 0.8110236220472441
          },
          {
            "duration": 0.3488370000000032,
            "durationTicks": 480,
            "midi": 71,
            "name": "B4",
            "ticks": 120000,
            "time": 87.20925,
            "velocity": 0.8267716535433071
          },
          {
            "duration": 0.3837206999999978,
            "durationTicks": 528,
            "midi": 66,
            "name": "F#4",
            "ticks": 120480,
            "time": 87.558087,
            "velocity": 0.6377952755905512
          },
          {
            "duration": 0.1744185000000016,
            "durationTicks": 240,
            "midi": 66,
            "name": "F#4",
            "ticks": 120960,
            "time": 87.906924,
            "velocity": 0.8582677165354331
          },
          {
            "duration": 0.34883699999998896,
            "durationTicks": 480,
            "midi": 66,
            "name": "F#4",
            "ticks": 121440,
            "time": 88.255761,
            "velocity": 0.84251968503937
          },
          {
            "duration": 0.3488370000000032,
            "durationTicks": 480,
            "midi": 71,
            "name": "B4",
            "ticks": 121920,
            "time": 88.604598,
            "velocity": 0.84251968503937
          },
          {
            "duration": 0.3488370000000032,
            "durationTicks": 480,
            "midi": 66,
            "name": "F#4",
            "ticks": 122400,
            "time": 88.953435,
            "velocity": 0.8110236220472441
          },
          {
            "duration": 0.3488370000000032,
            "durationTicks": 480,
            "midi": 71,
            "name": "B4",
            "ticks": 122880,
            "time": 89.302272,
            "velocity": 0.8740157480314961
          },
          {
            "duration": 0.3488370000000032,
            "durationTicks": 480,
            "midi": 66,
            "name": "F#4",
            "ticks": 123360,
            "time": 89.651109,
            "velocity": 0.84251968503937
          },
          {
            "duration": 0.34883699999998896,
            "durationTicks": 480,
            "midi": 71,
            "name": "B4",
            "ticks": 123840,
            "time": 89.99994600000001,
            "velocity": 0.8582677165354331
          },
          {
            "duration": 0.3488370000000032,
            "durationTicks": 480,
            "midi": 66,
            "name": "F#4",
            "ticks": 124320,
            "time": 90.348783,
            "velocity": 0.8110236220472441
          },
          {
            "duration": 0.3488370000000032,
            "durationTicks": 480,
            "midi": 63,
            "name": "D#4",
            "ticks": 124800,
            "time": 90.69762,
            "velocity": 0.8267716535433071
          },
          {
            "duration": 0.3488370000000032,
            "durationTicks": 480,
            "midi": 59,
            "name": "B3",
            "ticks": 125280,
            "time": 91.046457,
            "velocity": 0.8110236220472441
          },
          {
            "duration": 0.34883699999998896,
            "durationTicks": 480,
            "midi": 63,
            "name": "D#4",
            "ticks": 125760,
            "time": 91.395294,
            "velocity": 0.7952755905511811
          },
          {
            "duration": 0.3488370000000032,
            "durationTicks": 480,
            "midi": 59,
            "name": "B3",
            "ticks": 126240,
            "time": 91.744131,
            "velocity": 0.7952755905511811
          },
          {
            "duration": 0.3488370000000032,
            "durationTicks": 480,
            "midi": 63,
            "name": "D#4",
            "ticks": 126720,
            "time": 92.092968,
            "velocity": 0.8110236220472441
          },
          {
            "duration": 0.3488370000000032,
            "durationTicks": 480,
            "midi": 59,
            "name": "B3",
            "ticks": 127200,
            "time": 92.441805,
            "velocity": 0.7952755905511811
          },
          {
            "duration": 0.3488370000000032,
            "durationTicks": 480,
            "midi": 63,
            "name": "D#4",
            "ticks": 127680,
            "time": 92.790642,
            "velocity": 0.6535433070866141
          },
          {
            "duration": 0.34883699999998896,
            "durationTicks": 480,
            "midi": 59,
            "name": "B3",
            "ticks": 128160,
            "time": 93.13947900000001,
            "velocity": 0.8110236220472441
          },
          {
            "duration": 0.3488370000000032,
            "durationTicks": 480,
            "midi": 63,
            "name": "D#4",
            "ticks": 128640,
            "time": 93.488316,
            "velocity": 0.8267716535433071
          },
          {
            "duration": 0.3488370000000032,
            "durationTicks": 480,
            "midi": 59,
            "name": "B3",
            "ticks": 129120,
            "time": 93.837153,
            "velocity": 0.8110236220472441
          },
          {
            "duration": 0.3488370000000032,
            "durationTicks": 480,
            "midi": 63,
            "name": "D#4",
            "ticks": 129600,
            "time": 94.18599,
            "velocity": 0.7952755905511811
          },
          {
            "duration": 0.34883699999998896,
            "durationTicks": 480,
            "midi": 59,
            "name": "B3",
            "ticks": 130080,
            "time": 94.534827,
            "velocity": 0.7952755905511811
          },
          {
            "duration": 0.3488370000000032,
            "durationTicks": 480,
            "midi": 63,
            "name": "D#4",
            "ticks": 130560,
            "time": 94.883664,
            "velocity": 0.8110236220472441
          },
          {
            "duration": 0.3488370000000032,
            "durationTicks": 480,
            "midi": 59,
            "name": "B3",
            "ticks": 131040,
            "time": 95.232501,
            "velocity": 0.7952755905511811
          },
          {
            "duration": 0.3488370000000032,
            "durationTicks": 480,
            "midi": 63,
            "name": "D#4",
            "ticks": 131520,
            "time": 95.581338,
            "velocity": 0.6535433070866141
          },
          {
            "duration": 0.3488370000000032,
            "durationTicks": 480,
            "midi": 59,
            "name": "B3",
            "ticks": 132000,
            "time": 95.930175,
            "velocity": 0.8110236220472441
          },
          {
            "duration": 0.34883699999998896,
            "durationTicks": 480,
            "midi": 63,
            "name": "D#4",
            "ticks": 132480,
            "time": 96.27901200000001,
            "velocity": 0.8267716535433071
          },
          {
            "duration": 0.3488370000000032,
            "durationTicks": 480,
            "midi": 59,
            "name": "B3",
            "ticks": 132960,
            "time": 96.627849,
            "velocity": 0.8110236220472441
          },
          {
            "duration": 0.3488370000000032,
            "durationTicks": 480,
            "midi": 63,
            "name": "D#4",
            "ticks": 133440,
            "time": 96.976686,
            "velocity": 0.7952755905511811
          },
          {
            "duration": 0.3488370000000032,
            "durationTicks": 480,
            "midi": 59,
            "name": "B3",
            "ticks": 133920,
            "time": 97.325523,
            "velocity": 0.7952755905511811
          },
          {
            "duration": 0.34883699999998896,
            "durationTicks": 480,
            "midi": 63,
            "name": "D#4",
            "ticks": 134400,
            "time": 97.67436000000001,
            "velocity": 0.8110236220472441
          },
          {
            "duration": 0.3488370000000032,
            "durationTicks": 480,
            "midi": 59,
            "name": "B3",
            "ticks": 134880,
            "time": 98.023197,
            "velocity": 0.7952755905511811
          },
          {
            "duration": 0.3488370000000032,
            "durationTicks": 480,
            "midi": 63,
            "name": "D#4",
            "ticks": 135360,
            "time": 98.372034,
            "velocity": 0.6535433070866141
          },
          {
            "duration": 0.3488370000000032,
            "durationTicks": 480,
            "midi": 59,
            "name": "B3",
            "ticks": 135840,
            "time": 98.720871,
            "velocity": 0.8110236220472441
          },
          {
            "duration": 0.3488370000000032,
            "durationTicks": 480,
            "midi": 63,
            "name": "D#4",
            "ticks": 136320,
            "time": 99.069708,
            "velocity": 0.8267716535433071
          },
          {
            "duration": 0.34883699999998896,
            "durationTicks": 480,
            "midi": 59,
            "name": "B3",
            "ticks": 136800,
            "time": 99.41854500000001,
            "velocity": 0.8110236220472441
          },
          {
            "duration": 0.3488370000000032,
            "durationTicks": 480,
            "midi": 63,
            "name": "D#4",
            "ticks": 137280,
            "time": 99.767382,
            "velocity": 0.7952755905511811
          },
          {
            "duration": 0.3488370000000032,
            "durationTicks": 480,
            "midi": 59,
            "name": "B3",
            "ticks": 137760,
            "time": 100.116219,
            "velocity": 0.7952755905511811
          },
          {
            "duration": 0.3488370000000032,
            "durationTicks": 480,
            "midi": 63,
            "name": "D#4",
            "ticks": 138240,
            "time": 100.465056,
            "velocity": 0.8110236220472441
          },
          {
            "duration": 0.34883699999998896,
            "durationTicks": 480,
            "midi": 59,
            "name": "B3",
            "ticks": 138720,
            "time": 100.81389300000001,
            "velocity": 0.7952755905511811
          },
          {
            "duration": 0.3488370000000032,
            "durationTicks": 480,
            "midi": 63,
            "name": "D#4",
            "ticks": 139200,
            "time": 101.16273,
            "velocity": 0.6535433070866141
          },
          {
            "duration": 0.3488370000000032,
            "durationTicks": 480,
            "midi": 59,
            "name": "B3",
            "ticks": 139680,
            "time": 101.511567,
            "velocity": 0.8110236220472441
          },
          {
            "duration": 0.3488370000000032,
            "durationTicks": 480,
            "midi": 63,
            "name": "D#4",
            "ticks": 140160,
            "time": 101.860404,
            "velocity": 0.8267716535433071
          },
          {
            "duration": 0.3488370000000032,
            "durationTicks": 480,
            "midi": 59,
            "name": "B3",
            "ticks": 140640,
            "time": 102.209241,
            "velocity": 0.8110236220472441
          },
          {
            "duration": 0.34883699999998896,
            "durationTicks": 480,
            "midi": 63,
            "name": "D#4",
            "ticks": 141120,
            "time": 102.55807800000001,
            "velocity": 0.7952755905511811
          },
          {
            "duration": 0.3488370000000032,
            "durationTicks": 480,
            "midi": 59,
            "name": "B3",
            "ticks": 141600,
            "time": 102.906915,
            "velocity": 0.7952755905511811
          },
          {
            "duration": 0.3488370000000032,
            "durationTicks": 480,
            "midi": 63,
            "name": "D#4",
            "ticks": 142080,
            "time": 103.255752,
            "velocity": 0.8110236220472441
          },
          {
            "duration": 0.3488370000000032,
            "durationTicks": 480,
            "midi": 59,
            "name": "B3",
            "ticks": 142560,
            "time": 103.604589,
            "velocity": 0.7952755905511811
          },
          {
            "duration": 0.34883699999998896,
            "durationTicks": 480,
            "midi": 63,
            "name": "D#4",
            "ticks": 143040,
            "time": 103.95342600000001,
            "velocity": 0.6535433070866141
          },
          {
            "duration": 0.3488370000000032,
            "durationTicks": 480,
            "midi": 59,
            "name": "B3",
            "ticks": 143520,
            "time": 104.302263,
            "velocity": 0.8110236220472441
          },
          {
            "duration": 0.3488370000000032,
            "durationTicks": 480,
            "midi": 63,
            "name": "D#4",
            "ticks": 144000,
            "time": 104.6511,
            "velocity": 0.8267716535433071
          },
          {
            "duration": 0.3488370000000032,
            "durationTicks": 480,
            "midi": 59,
            "name": "B3",
            "ticks": 144480,
            "time": 104.999937,
            "velocity": 0.8110236220472441
          },
          {
            "duration": 0.3488370000000032,
            "durationTicks": 480,
            "midi": 63,
            "name": "D#4",
            "ticks": 144960,
            "time": 105.348774,
            "velocity": 0.7952755905511811
          },
          {
            "duration": 0.34883699999998896,
            "durationTicks": 480,
            "midi": 59,
            "name": "B3",
            "ticks": 145440,
            "time": 105.69761100000001,
            "velocity": 0.7952755905511811
          },
          {
            "duration": 0.3488370000000032,
            "durationTicks": 480,
            "midi": 63,
            "name": "D#4",
            "ticks": 145920,
            "time": 106.046448,
            "velocity": 0.8110236220472441
          },
          {
            "duration": 0.3488370000000032,
            "durationTicks": 480,
            "midi": 59,
            "name": "B3",
            "ticks": 146400,
            "time": 106.395285,
            "velocity": 0.7952755905511811
          },
          {
            "duration": 0.3488370000000032,
            "durationTicks": 480,
            "midi": 63,
            "name": "D#4",
            "ticks": 146880,
            "time": 106.744122,
            "velocity": 0.6535433070866141
          },
          {
            "duration": 0.34883699999998896,
            "durationTicks": 480,
            "midi": 59,
            "name": "B3",
            "ticks": 147360,
            "time": 107.09295900000001,
            "velocity": 0.8110236220472441
          },
          {
            "duration": 0.3488370000000032,
            "durationTicks": 480,
            "midi": 66,
            "name": "F#4",
            "ticks": 155520,
            "time": 113.023188,
            "velocity": 0.6299212598425197
          },
          {
            "duration": 0.34883699999998896,
            "durationTicks": 480,
            "midi": 71,
            "name": "B4",
            "ticks": 156000,
            "time": 113.37202500000001,
            "velocity": 0.6299212598425197
          },
          {
            "duration": 0.3488370000000032,
            "durationTicks": 480,
            "midi": 66,
            "name": "F#4",
            "ticks": 156480,
            "time": 113.720862,
            "velocity": 0.6299212598425197
          },
          {
            "duration": 0.6976740000000063,
            "durationTicks": 960,
            "midi": 71,
            "name": "B4",
            "ticks": 156960,
            "time": 114.069699,
            "velocity": 0.6299212598425197
          },
          {
            "duration": 0.3488370000000032,
            "durationTicks": 480,
            "midi": 66,
            "name": "F#4",
            "ticks": 157920,
            "time": 114.767373,
            "velocity": 0.6299212598425197
          },
          {
            "duration": 0.34883699999998896,
            "durationTicks": 480,
            "midi": 71,
            "name": "B4",
            "ticks": 158400,
            "time": 115.11621000000001,
            "velocity": 0.6299212598425197
          },
          {
            "duration": 0.3488370000000032,
            "durationTicks": 480,
            "midi": 66,
            "name": "F#4",
            "ticks": 158880,
            "time": 115.465047,
            "velocity": 0.6299212598425197
          },
          {
            "duration": 0.3488370000000032,
            "durationTicks": 480,
            "midi": 66,
            "name": "F#4",
            "ticks": 159360,
            "time": 115.813884,
            "velocity": 0.6299212598425197
          },
          {
            "duration": 0.3488370000000032,
            "durationTicks": 480,
            "midi": 71,
            "name": "B4",
            "ticks": 159840,
            "time": 116.162721,
            "velocity": 0.6299212598425197
          },
          {
            "duration": 0.34883699999998896,
            "durationTicks": 480,
            "midi": 66,
            "name": "F#4",
            "ticks": 160320,
            "time": 116.51155800000001,
            "velocity": 0.6299212598425197
          },
          {
            "duration": 0.6976740000000063,
            "durationTicks": 960,
            "midi": 71,
            "name": "B4",
            "ticks": 160800,
            "time": 116.860395,
            "velocity": 0.6299212598425197
          },
          {
            "duration": 0.3488370000000032,
            "durationTicks": 480,
            "midi": 66,
            "name": "F#4",
            "ticks": 161760,
            "time": 117.558069,
            "velocity": 0.6299212598425197
          },
          {
            "duration": 0.3488370000000032,
            "durationTicks": 480,
            "midi": 71,
            "name": "B4",
            "ticks": 162240,
            "time": 117.906906,
            "velocity": 0.6299212598425197
          },
          {
            "duration": 0.34883699999998896,
            "durationTicks": 480,
            "midi": 66,
            "name": "F#4",
            "ticks": 162720,
            "time": 118.25574300000001,
            "velocity": 0.6299212598425197
          },
          {
            "duration": 0.3488370000000032,
            "durationTicks": 480,
            "midi": 66,
            "name": "F#4",
            "ticks": 163200,
            "time": 118.60458,
            "velocity": 0.6299212598425197
          },
          {
            "duration": 0.3488370000000032,
            "durationTicks": 480,
            "midi": 70,
            "name": "A#4",
            "ticks": 163680,
            "time": 118.953417,
            "velocity": 0.6299212598425197
          },
          {
            "duration": 0.3488370000000032,
            "durationTicks": 480,
            "midi": 66,
            "name": "F#4",
            "ticks": 164160,
            "time": 119.302254,
            "velocity": 0.6299212598425197
          },
          {
            "duration": 0.6976739999999921,
            "durationTicks": 960,
            "midi": 70,
            "name": "A#4",
            "ticks": 164640,
            "time": 119.65109100000001,
            "velocity": 0.6299212598425197
          },
          {
            "duration": 0.3488370000000032,
            "durationTicks": 480,
            "midi": 66,
            "name": "F#4",
            "ticks": 165600,
            "time": 120.348765,
            "velocity": 0.6299212598425197
          },
          {
            "duration": 0.3488370000000032,
            "durationTicks": 480,
            "midi": 70,
            "name": "A#4",
            "ticks": 166080,
            "time": 120.697602,
            "velocity": 0.6299212598425197
          },
          {
            "duration": 0.3488370000000032,
            "durationTicks": 480,
            "midi": 66,
            "name": "F#4",
            "ticks": 166560,
            "time": 121.046439,
            "velocity": 0.6299212598425197
          },
          {
            "duration": 0.34883699999998896,
            "durationTicks": 480,
            "midi": 66,
            "name": "F#4",
            "ticks": 167040,
            "time": 121.39527600000001,
            "velocity": 0.6299212598425197
          },
          {
            "duration": 0.3488370000000032,
            "durationTicks": 480,
            "midi": 70,
            "name": "A#4",
            "ticks": 167520,
            "time": 121.744113,
            "velocity": 0.6299212598425197
          },
          {
            "duration": 0.3488370000000032,
            "durationTicks": 480,
            "midi": 66,
            "name": "F#4",
            "ticks": 168000,
            "time": 122.09295,
            "velocity": 0.6299212598425197
          },
          {
            "duration": 0.6976739999999921,
            "durationTicks": 960,
            "midi": 70,
            "name": "A#4",
            "ticks": 168480,
            "time": 122.441787,
            "velocity": 0.6299212598425197
          },
          {
            "duration": 0.3488370000000032,
            "durationTicks": 480,
            "midi": 66,
            "name": "F#4",
            "ticks": 169440,
            "time": 123.139461,
            "velocity": 0.6299212598425197
          },
          {
            "duration": 0.3488370000000032,
            "durationTicks": 480,
            "midi": 70,
            "name": "A#4",
            "ticks": 169920,
            "time": 123.488298,
            "velocity": 0.6299212598425197
          },
          {
            "duration": 0.3488370000000032,
            "durationTicks": 480,
            "midi": 66,
            "name": "F#4",
            "ticks": 170400,
            "time": 123.837135,
            "velocity": 0.6299212598425197
          },
          {
            "duration": 0.3488370000000032,
            "durationTicks": 480,
            "midi": 61,
            "name": "C#4",
            "ticks": 170880,
            "time": 124.185972,
            "velocity": 0.6299212598425197
          },
          {
            "duration": 0.34883699999998896,
            "durationTicks": 480,
            "midi": 73,
            "name": "C#5",
            "ticks": 171360,
            "time": 124.53480900000001,
            "velocity": 0.6299212598425197
          },
          {
            "duration": 0.3488370000000032,
            "durationTicks": 480,
            "midi": 61,
            "name": "C#4",
            "ticks": 171840,
            "time": 124.883646,
            "velocity": 0.6299212598425197
          },
          {
            "duration": 0.6976740000000063,
            "durationTicks": 960,
            "midi": 73,
            "name": "C#5",
            "ticks": 172320,
            "time": 125.232483,
            "velocity": 0.6299212598425197
          },
          {
            "duration": 0.34883699999998896,
            "durationTicks": 480,
            "midi": 61,
            "name": "C#4",
            "ticks": 173280,
            "time": 125.93015700000001,
            "velocity": 0.6299212598425197
          },
          {
            "duration": 0.3488370000000032,
            "durationTicks": 480,
            "midi": 73,
            "name": "C#5",
            "ticks": 173760,
            "time": 126.278994,
            "velocity": 0.6299212598425197
          },
          {
            "duration": 0.3488370000000032,
            "durationTicks": 480,
            "midi": 61,
            "name": "C#4",
            "ticks": 174240,
            "time": 126.627831,
            "velocity": 0.6299212598425197
          },
          {
            "duration": 0.3488370000000032,
            "durationTicks": 480,
            "midi": 59,
            "name": "B3",
            "ticks": 174720,
            "time": 126.976668,
            "velocity": 0.6299212598425197
          },
          {
            "duration": 0.3488370000000032,
            "durationTicks": 480,
            "midi": 71,
            "name": "B4",
            "ticks": 175200,
            "time": 127.325505,
            "velocity": 0.6299212598425197
          },
          {
            "duration": 0.34883699999998896,
            "durationTicks": 480,
            "midi": 66,
            "name": "F#4",
            "ticks": 175680,
            "time": 127.67434200000001,
            "velocity": 0.6299212598425197
          },
          {
            "duration": 0.6976740000000063,
            "durationTicks": 960,
            "midi": 71,
            "name": "B4",
            "ticks": 176160,
            "time": 128.023179,
            "velocity": 0.6299212598425197
          },
          {
            "duration": 0.3488370000000032,
            "durationTicks": 480,
            "midi": 66,
            "name": "F#4",
            "ticks": 177120,
            "time": 128.720853,
            "velocity": 0.6299212598425197
          },
          {
            "duration": 0.3488370000000032,
            "durationTicks": 480,
            "midi": 71,
            "name": "B4",
            "ticks": 177600,
            "time": 129.06969,
            "velocity": 0.6299212598425197
          },
          {
            "duration": 0.3488370000000032,
            "durationTicks": 480,
            "midi": 66,
            "name": "F#4",
            "ticks": 178080,
            "time": 129.418527,
            "velocity": 0.6299212598425197
          },
          {
            "duration": 0.34883699999997475,
            "durationTicks": 480,
            "midi": 66,
            "name": "F#4",
            "ticks": 178560,
            "time": 129.76736400000001,
            "velocity": 0.6299212598425197
          },
          {
            "duration": 0.3488370000000032,
            "durationTicks": 480,
            "midi": 71,
            "name": "B4",
            "ticks": 179040,
            "time": 130.116201,
            "velocity": 0.6299212598425197
          },
          {
            "duration": 0.3488370000000032,
            "durationTicks": 480,
            "midi": 66,
            "name": "F#4",
            "ticks": 179520,
            "time": 130.465038,
            "velocity": 0.6299212598425197
          },
          {
            "duration": 0.6976740000000063,
            "durationTicks": 960,
            "midi": 71,
            "name": "B4",
            "ticks": 180000,
            "time": 130.813875,
            "velocity": 0.6299212598425197
          },
          {
            "duration": 0.3488370000000032,
            "durationTicks": 480,
            "midi": 66,
            "name": "F#4",
            "ticks": 180960,
            "time": 131.511549,
            "velocity": 0.6299212598425197
          },
          {
            "duration": 0.3488370000000032,
            "durationTicks": 480,
            "midi": 71,
            "name": "B4",
            "ticks": 181440,
            "time": 131.860386,
            "velocity": 0.6299212598425197
          },
          {
            "duration": 0.3488370000000032,
            "durationTicks": 480,
            "midi": 66,
            "name": "F#4",
            "ticks": 181920,
            "time": 132.209223,
            "velocity": 0.6299212598425197
          },
          {
            "duration": 0.3488370000000032,
            "durationTicks": 480,
            "midi": 66,
            "name": "F#4",
            "ticks": 182400,
            "time": 132.55806,
            "velocity": 0.6299212598425197
          },
          {
            "duration": 0.34883699999997475,
            "durationTicks": 480,
            "midi": 71,
            "name": "B4",
            "ticks": 182880,
            "time": 132.90689700000001,
            "velocity": 0.6299212598425197
          },
          {
            "duration": 0.3488370000000032,
            "durationTicks": 480,
            "midi": 66,
            "name": "F#4",
            "ticks": 183360,
            "time": 133.255734,
            "velocity": 0.6299212598425197
          },
          {
            "duration": 0.6976740000000063,
            "durationTicks": 960,
            "midi": 71,
            "name": "B4",
            "ticks": 183840,
            "time": 133.604571,
            "velocity": 0.6299212598425197
          },
          {
            "duration": 0.3488370000000032,
            "durationTicks": 480,
            "midi": 66,
            "name": "F#4",
            "ticks": 184800,
            "time": 134.302245,
            "velocity": 0.6299212598425197
          },
          {
            "duration": 0.3488370000000032,
            "durationTicks": 480,
            "midi": 71,
            "name": "B4",
            "ticks": 185280,
            "time": 134.651082,
            "velocity": 0.6299212598425197
          },
          {
            "duration": 0.3488370000000032,
            "durationTicks": 480,
            "midi": 66,
            "name": "F#4",
            "ticks": 185760,
            "time": 134.999919,
            "velocity": 0.6299212598425197
          },
          {
            "duration": 0.1744185000000016,
            "durationTicks": 240,
            "midi": 66,
            "name": "F#4",
            "ticks": 232320,
            "time": 168.837108,
            "velocity": 0.7952755905511811
          },
          {
            "duration": 0.3488370000000032,
            "durationTicks": 480,
            "midi": 66,
            "name": "F#4",
            "ticks": 232800,
            "time": 169.185945,
            "velocity": 0.6377952755905512
          },
          {
            "duration": 0.3488370000000032,
            "durationTicks": 480,
            "midi": 71,
            "name": "B4",
            "ticks": 233280,
            "time": 169.534782,
            "velocity": 0.84251968503937
          },
          {
            "duration": 0.3488370000000032,
            "durationTicks": 480,
            "midi": 66,
            "name": "F#4",
            "ticks": 233760,
            "time": 169.883619,
            "velocity": 0.8110236220472441
          },
          {
            "duration": 0.3488370000000032,
            "durationTicks": 480,
            "midi": 71,
            "name": "B4",
            "ticks": 234240,
            "time": 170.232456,
            "velocity": 0.8582677165354331
          },
          {
            "duration": 0.34883699999997475,
            "durationTicks": 480,
            "midi": 66,
            "name": "F#4",
            "ticks": 234720,
            "time": 170.58129300000002,
            "velocity": 0.8110236220472441
          },
          {
            "duration": 0.3488370000000032,
            "durationTicks": 480,
            "midi": 71,
            "name": "B4",
            "ticks": 235200,
            "time": 170.93013,
            "velocity": 0.8267716535433071
          },
          {
            "duration": 0.3837207000000262,
            "durationTicks": 528,
            "midi": 66,
            "name": "F#4",
            "ticks": 235680,
            "time": 171.278967,
            "velocity": 0.6377952755905512
          },
          {
            "duration": 0.1744185000000016,
            "durationTicks": 240,
            "midi": 66,
            "name": "F#4",
            "ticks": 236160,
            "time": 171.627804,
            "velocity": 0.8582677165354331
          },
          {
            "duration": 0.3488370000000032,
            "durationTicks": 480,
            "midi": 66,
            "name": "F#4",
            "ticks": 236640,
            "time": 171.976641,
            "velocity": 0.84251968503937
          },
          {
            "duration": 0.3488370000000032,
            "durationTicks": 480,
            "midi": 71,
            "name": "B4",
            "ticks": 237120,
            "time": 172.325478,
            "velocity": 0.84251968503937
          },
          {
            "duration": 0.3488370000000032,
            "durationTicks": 480,
            "midi": 66,
            "name": "F#4",
            "ticks": 237600,
            "time": 172.674315,
            "velocity": 0.8110236220472441
          },
          {
            "duration": 0.3488370000000032,
            "durationTicks": 480,
            "midi": 71,
            "name": "B4",
            "ticks": 238080,
            "time": 173.023152,
            "velocity": 0.8740157480314961
          },
          {
            "duration": 0.3488370000000032,
            "durationTicks": 480,
            "midi": 66,
            "name": "F#4",
            "ticks": 238560,
            "time": 173.371989,
            "velocity": 0.84251968503937
          },
          {
            "duration": 0.34883699999997475,
            "durationTicks": 480,
            "midi": 71,
            "name": "B4",
            "ticks": 239040,
            "time": 173.72082600000002,
            "velocity": 0.8582677165354331
          },
          {
            "duration": 0.3488370000000032,
            "durationTicks": 480,
            "midi": 66,
            "name": "F#4",
            "ticks": 239520,
            "time": 174.069663,
            "velocity": 0.8110236220472441
          },
          {
            "duration": 0.3488370000000032,
            "durationTicks": 480,
            "midi": 63,
            "name": "D#4",
            "ticks": 240000,
            "time": 174.4185,
            "velocity": 0.8267716535433071
          },
          {
            "duration": 0.3488370000000032,
            "durationTicks": 480,
            "midi": 59,
            "name": "B3",
            "ticks": 240480,
            "time": 174.767337,
            "velocity": 0.8110236220472441
          },
          {
            "duration": 0.3488370000000032,
            "durationTicks": 480,
            "midi": 63,
            "name": "D#4",
            "ticks": 240960,
            "time": 175.116174,
            "velocity": 0.7952755905511811
          },
          {
            "duration": 0.3488370000000032,
            "durationTicks": 480,
            "midi": 59,
            "name": "B3",
            "ticks": 241440,
            "time": 175.465011,
            "velocity": 0.7952755905511811
          },
          {
            "duration": 0.3488370000000032,
            "durationTicks": 480,
            "midi": 63,
            "name": "D#4",
            "ticks": 241920,
            "time": 175.813848,
            "velocity": 0.8110236220472441
          },
          {
            "duration": 0.3488370000000032,
            "durationTicks": 480,
            "midi": 59,
            "name": "B3",
            "ticks": 242400,
            "time": 176.162685,
            "velocity": 0.7952755905511811
          },
          {
            "duration": 0.3488370000000032,
            "durationTicks": 480,
            "midi": 63,
            "name": "D#4",
            "ticks": 242880,
            "time": 176.511522,
            "velocity": 0.6535433070866141
          },
          {
            "duration": 0.34883699999997475,
            "durationTicks": 480,
            "midi": 59,
            "name": "B3",
            "ticks": 243360,
            "time": 176.86035900000002,
            "velocity": 0.8110236220472441
          },
          {
            "duration": 0.3488370000000032,
            "durationTicks": 480,
            "midi": 63,
            "name": "D#4",
            "ticks": 243840,
            "time": 177.209196,
            "velocity": 0.8267716535433071
          },
          {
            "duration": 0.3488370000000032,
            "durationTicks": 480,
            "midi": 59,
            "name": "B3",
            "ticks": 244320,
            "time": 177.558033,
            "velocity": 0.8110236220472441
          },
          {
            "duration": 0.3488370000000032,
            "durationTicks": 480,
            "midi": 63,
            "name": "D#4",
            "ticks": 244800,
            "time": 177.90687,
            "velocity": 0.7952755905511811
          },
          {
            "duration": 0.3488370000000032,
            "durationTicks": 480,
            "midi": 59,
            "name": "B3",
            "ticks": 245280,
            "time": 178.255707,
            "velocity": 0.7952755905511811
          },
          {
            "duration": 0.3488370000000032,
            "durationTicks": 480,
            "midi": 63,
            "name": "D#4",
            "ticks": 245760,
            "time": 178.604544,
            "velocity": 0.8110236220472441
          },
          {
            "duration": 0.3488370000000032,
            "durationTicks": 480,
            "midi": 59,
            "name": "B3",
            "ticks": 246240,
            "time": 178.953381,
            "velocity": 0.7952755905511811
          },
          {
            "duration": 0.3488370000000032,
            "durationTicks": 480,
            "midi": 63,
            "name": "D#4",
            "ticks": 246720,
            "time": 179.302218,
            "velocity": 0.6535433070866141
          },
          {
            "duration": 0.3488370000000032,
            "durationTicks": 480,
            "midi": 59,
            "name": "B3",
            "ticks": 247200,
            "time": 179.651055,
            "velocity": 0.8110236220472441
          },
          {
            "duration": 0.34883699999997475,
            "durationTicks": 480,
            "midi": 63,
            "name": "D#4",
            "ticks": 247680,
            "time": 179.99989200000002,
            "velocity": 0.8267716535433071
          },
          {
            "duration": 0.3488370000000032,
            "durationTicks": 480,
            "midi": 59,
            "name": "B3",
            "ticks": 248160,
            "time": 180.348729,
            "velocity": 0.8110236220472441
          },
          {
            "duration": 0.3488370000000032,
            "durationTicks": 480,
            "midi": 63,
            "name": "D#4",
            "ticks": 248640,
            "time": 180.697566,
            "velocity": 0.7952755905511811
          },
          {
            "duration": 0.3488370000000032,
            "durationTicks": 480,
            "midi": 59,
            "name": "B3",
            "ticks": 249120,
            "time": 181.046403,
            "velocity": 0.7952755905511811
          },
          {
            "duration": 0.3488370000000032,
            "durationTicks": 480,
            "midi": 63,
            "name": "D#4",
            "ticks": 249600,
            "time": 181.39524,
            "velocity": 0.8110236220472441
          },
          {
            "duration": 0.3488370000000032,
            "durationTicks": 480,
            "midi": 59,
            "name": "B3",
            "ticks": 250080,
            "time": 181.744077,
            "velocity": 0.7952755905511811
          },
          {
            "duration": 0.3488370000000032,
            "durationTicks": 480,
            "midi": 63,
            "name": "D#4",
            "ticks": 250560,
            "time": 182.092914,
            "velocity": 0.6535433070866141
          },
          {
            "duration": 0.3488370000000032,
            "durationTicks": 480,
            "midi": 59,
            "name": "B3",
            "ticks": 251040,
            "time": 182.441751,
            "velocity": 0.8110236220472441
          },
          {
            "duration": 0.3488370000000032,
            "durationTicks": 480,
            "midi": 63,
            "name": "D#4",
            "ticks": 251520,
            "time": 182.790588,
            "velocity": 0.8267716535433071
          },
          {
            "duration": 0.34883699999997475,
            "durationTicks": 480,
            "midi": 59,
            "name": "B3",
            "ticks": 252000,
            "time": 183.13942500000002,
            "velocity": 0.8110236220472441
          },
          {
            "duration": 0.3488370000000032,
            "durationTicks": 480,
            "midi": 63,
            "name": "D#4",
            "ticks": 252480,
            "time": 183.488262,
            "velocity": 0.7952755905511811
          },
          {
            "duration": 0.3488370000000032,
            "durationTicks": 480,
            "midi": 59,
            "name": "B3",
            "ticks": 252960,
            "time": 183.837099,
            "velocity": 0.7952755905511811
          },
          {
            "duration": 0.3488370000000032,
            "durationTicks": 480,
            "midi": 63,
            "name": "D#4",
            "ticks": 253440,
            "time": 184.185936,
            "velocity": 0.8110236220472441
          },
          {
            "duration": 0.3488370000000032,
            "durationTicks": 480,
            "midi": 59,
            "name": "B3",
            "ticks": 253920,
            "time": 184.534773,
            "velocity": 0.7952755905511811
          },
          {
            "duration": 0.3488370000000032,
            "durationTicks": 480,
            "midi": 63,
            "name": "D#4",
            "ticks": 254400,
            "time": 184.88361,
            "velocity": 0.6535433070866141
          },
          {
            "duration": 0.3488370000000032,
            "durationTicks": 480,
            "midi": 59,
            "name": "B3",
            "ticks": 254880,
            "time": 185.232447,
            "velocity": 0.8110236220472441
          },
          {
            "duration": 0.3488370000000032,
            "durationTicks": 480,
            "midi": 63,
            "name": "D#4",
            "ticks": 255360,
            "time": 185.581284,
            "velocity": 0.8267716535433071
          },
          {
            "duration": 0.3488370000000032,
            "durationTicks": 480,
            "midi": 59,
            "name": "B3",
            "ticks": 255840,
            "time": 185.930121,
            "velocity": 0.8110236220472441
          },
          {
            "duration": 0.34883699999997475,
            "durationTicks": 480,
            "midi": 63,
            "name": "D#4",
            "ticks": 256320,
            "time": 186.27895800000002,
            "velocity": 0.7952755905511811
          },
          {
            "duration": 0.3488370000000032,
            "durationTicks": 480,
            "midi": 59,
            "name": "B3",
            "ticks": 256800,
            "time": 186.627795,
            "velocity": 0.7952755905511811
          },
          {
            "duration": 0.3488370000000032,
            "durationTicks": 480,
            "midi": 63,
            "name": "D#4",
            "ticks": 257280,
            "time": 186.976632,
            "velocity": 0.8110236220472441
          },
          {
            "duration": 0.3488370000000032,
            "durationTicks": 480,
            "midi": 59,
            "name": "B3",
            "ticks": 257760,
            "time": 187.325469,
            "velocity": 0.7952755905511811
          },
          {
            "duration": 0.3488370000000032,
            "durationTicks": 480,
            "midi": 63,
            "name": "D#4",
            "ticks": 258240,
            "time": 187.674306,
            "velocity": 0.6535433070866141
          },
          {
            "duration": 0.3488370000000032,
            "durationTicks": 480,
            "midi": 59,
            "name": "B3",
            "ticks": 258720,
            "time": 188.023143,
            "velocity": 0.8110236220472441
          },
          {
            "duration": 0.3488370000000032,
            "durationTicks": 480,
            "midi": 63,
            "name": "D#4",
            "ticks": 259200,
            "time": 188.37198,
            "velocity": 0.8267716535433071
          },
          {
            "duration": 0.3488370000000032,
            "durationTicks": 480,
            "midi": 59,
            "name": "B3",
            "ticks": 259680,
            "time": 188.720817,
            "velocity": 0.8110236220472441
          },
          {
            "duration": 0.3488370000000032,
            "durationTicks": 480,
            "midi": 63,
            "name": "D#4",
            "ticks": 260160,
            "time": 189.069654,
            "velocity": 0.7952755905511811
          },
          {
            "duration": 0.34883699999997475,
            "durationTicks": 480,
            "midi": 59,
            "name": "B3",
            "ticks": 260640,
            "time": 189.41849100000002,
            "velocity": 0.7952755905511811
          },
          {
            "duration": 0.3488370000000032,
            "durationTicks": 480,
            "midi": 63,
            "name": "D#4",
            "ticks": 261120,
            "time": 189.767328,
            "velocity": 0.8110236220472441
          },
          {
            "duration": 0.3488370000000032,
            "durationTicks": 480,
            "midi": 59,
            "name": "B3",
            "ticks": 261600,
            "time": 190.116165,
            "velocity": 0.7952755905511811
          },
          {
            "duration": 0.3488370000000032,
            "durationTicks": 480,
            "midi": 63,
            "name": "D#4",
            "ticks": 262080,
            "time": 190.465002,
            "velocity": 0.6535433070866141
          },
          {
            "duration": 0.3488370000000032,
            "durationTicks": 480,
            "midi": 59,
            "name": "B3",
            "ticks": 262560,
            "time": 190.813839,
            "velocity": 0.8110236220472441
          },
          {
            "duration": 0.3488370000000032,
            "durationTicks": 480,
            "midi": 66,
            "name": "F#4",
            "ticks": 270720,
            "time": 196.744068,
            "velocity": 0.6299212598425197
          },
          {
            "duration": 0.3488370000000032,
            "durationTicks": 480,
            "midi": 71,
            "name": "B4",
            "ticks": 271200,
            "time": 197.092905,
            "velocity": 0.6299212598425197
          },
          {
            "duration": 0.3488370000000032,
            "durationTicks": 480,
            "midi": 66,
            "name": "F#4",
            "ticks": 271680,
            "time": 197.441742,
            "velocity": 0.6299212598425197
          },
          {
            "duration": 0.6976740000000063,
            "durationTicks": 960,
            "midi": 71,
            "name": "B4",
            "ticks": 272160,
            "time": 197.790579,
            "velocity": 0.6299212598425197
          },
          {
            "duration": 0.3488370000000032,
            "durationTicks": 480,
            "midi": 66,
            "name": "F#4",
            "ticks": 273120,
            "time": 198.48825300000001,
            "velocity": 0.6299212598425197
          },
          {
            "duration": 0.34883699999997475,
            "durationTicks": 480,
            "midi": 71,
            "name": "B4",
            "ticks": 273600,
            "time": 198.83709000000002,
            "velocity": 0.6299212598425197
          },
          {
            "duration": 0.3488370000000032,
            "durationTicks": 480,
            "midi": 66,
            "name": "F#4",
            "ticks": 274080,
            "time": 199.185927,
            "velocity": 0.6299212598425197
          },
          {
            "duration": 0.3488370000000032,
            "durationTicks": 480,
            "midi": 66,
            "name": "F#4",
            "ticks": 274560,
            "time": 199.534764,
            "velocity": 0.6299212598425197
          },
          {
            "duration": 0.3488370000000032,
            "durationTicks": 480,
            "midi": 71,
            "name": "B4",
            "ticks": 275040,
            "time": 199.883601,
            "velocity": 0.6299212598425197
          },
          {
            "duration": 0.3488370000000032,
            "durationTicks": 480,
            "midi": 66,
            "name": "F#4",
            "ticks": 275520,
            "time": 200.232438,
            "velocity": 0.6299212598425197
          },
          {
            "duration": 0.6976740000000063,
            "durationTicks": 960,
            "midi": 71,
            "name": "B4",
            "ticks": 276000,
            "time": 200.581275,
            "velocity": 0.6299212598425197
          },
          {
            "duration": 0.3488370000000032,
            "durationTicks": 480,
            "midi": 66,
            "name": "F#4",
            "ticks": 276960,
            "time": 201.278949,
            "velocity": 0.6299212598425197
          },
          {
            "duration": 0.3488370000000032,
            "durationTicks": 480,
            "midi": 71,
            "name": "B4",
            "ticks": 277440,
            "time": 201.62778600000001,
            "velocity": 0.6299212598425197
          },
          {
            "duration": 0.34883699999997475,
            "durationTicks": 480,
            "midi": 66,
            "name": "F#4",
            "ticks": 277920,
            "time": 201.97662300000002,
            "velocity": 0.6299212598425197
          },
          {
            "duration": 0.3488370000000032,
            "durationTicks": 480,
            "midi": 66,
            "name": "F#4",
            "ticks": 278400,
            "time": 202.32546,
            "velocity": 0.6299212598425197
          },
          {
            "duration": 0.3488370000000032,
            "durationTicks": 480,
            "midi": 70,
            "name": "A#4",
            "ticks": 278880,
            "time": 202.674297,
            "velocity": 0.6299212598425197
          },
          {
            "duration": 0.3488370000000032,
            "durationTicks": 480,
            "midi": 66,
            "name": "F#4",
            "ticks": 279360,
            "time": 203.023134,
            "velocity": 0.6299212598425197
          },
          {
            "duration": 0.6976740000000063,
            "durationTicks": 960,
            "midi": 70,
            "name": "A#4",
            "ticks": 279840,
            "time": 203.371971,
            "velocity": 0.6299212598425197
          },
          {
            "duration": 0.3488370000000032,
            "durationTicks": 480,
            "midi": 66,
            "name": "F#4",
            "ticks": 280800,
            "time": 204.069645,
            "velocity": 0.6299212598425197
          },
          {
            "duration": 0.3488370000000032,
            "durationTicks": 480,
            "midi": 70,
            "name": "A#4",
            "ticks": 281280,
            "time": 204.418482,
            "velocity": 0.6299212598425197
          },
          {
            "duration": 0.3488370000000032,
            "durationTicks": 480,
            "midi": 66,
            "name": "F#4",
            "ticks": 281760,
            "time": 204.76731900000001,
            "velocity": 0.6299212598425197
          },
          {
            "duration": 0.34883699999997475,
            "durationTicks": 480,
            "midi": 66,
            "name": "F#4",
            "ticks": 282240,
            "time": 205.11615600000002,
            "velocity": 0.6299212598425197
          },
          {
            "duration": 0.3488370000000032,
            "durationTicks": 480,
            "midi": 70,
            "name": "A#4",
            "ticks": 282720,
            "time": 205.464993,
            "velocity": 0.6299212598425197
          },
          {
            "duration": 0.3488370000000032,
            "durationTicks": 480,
            "midi": 66,
            "name": "F#4",
            "ticks": 283200,
            "time": 205.81383,
            "velocity": 0.6299212598425197
          },
          {
            "duration": 0.6976740000000063,
            "durationTicks": 960,
            "midi": 70,
            "name": "A#4",
            "ticks": 283680,
            "time": 206.162667,
            "velocity": 0.6299212598425197
          },
          {
            "duration": 0.3488370000000032,
            "durationTicks": 480,
            "midi": 66,
            "name": "F#4",
            "ticks": 284640,
            "time": 206.860341,
            "velocity": 0.6299212598425197
          },
          {
            "duration": 0.3488370000000032,
            "durationTicks": 480,
            "midi": 70,
            "name": "A#4",
            "ticks": 285120,
            "time": 207.209178,
            "velocity": 0.6299212598425197
          },
          {
            "duration": 0.3488370000000032,
            "durationTicks": 480,
            "midi": 66,
            "name": "F#4",
            "ticks": 285600,
            "time": 207.558015,
            "velocity": 0.6299212598425197
          },
          {
            "duration": 0.3488370000000032,
            "durationTicks": 480,
            "midi": 61,
            "name": "C#4",
            "ticks": 286080,
            "time": 207.90685200000001,
            "velocity": 0.6299212598425197
          },
          {
            "duration": 0.34883699999997475,
            "durationTicks": 480,
            "midi": 73,
            "name": "C#5",
            "ticks": 286560,
            "time": 208.25568900000002,
            "velocity": 0.6299212598425197
          },
          {
            "duration": 0.3488370000000032,
            "durationTicks": 480,
            "midi": 61,
            "name": "C#4",
            "ticks": 287040,
            "time": 208.604526,
            "velocity": 0.6299212598425197
          },
          {
            "duration": 0.6976740000000063,
            "durationTicks": 960,
            "midi": 73,
            "name": "C#5",
            "ticks": 287520,
            "time": 208.953363,
            "velocity": 0.6299212598425197
          },
          {
            "duration": 0.3488370000000032,
            "durationTicks": 480,
            "midi": 61,
            "name": "C#4",
            "ticks": 288480,
            "time": 209.651037,
            "velocity": 0.6299212598425197
          },
          {
            "duration": 0.3488370000000032,
            "durationTicks": 480,
            "midi": 73,
            "name": "C#5",
            "ticks": 288960,
            "time": 209.999874,
            "velocity": 0.6299212598425197
          },
          {
            "duration": 0.3488370000000032,
            "durationTicks": 480,
            "midi": 61,
            "name": "C#4",
            "ticks": 289440,
            "time": 210.348711,
            "velocity": 0.6299212598425197
          },
          {
            "duration": 0.3488370000000032,
            "durationTicks": 480,
            "midi": 59,
            "name": "B3",
            "ticks": 289920,
            "time": 210.697548,
            "velocity": 0.6299212598425197
          },
          {
            "duration": 0.3488370000000032,
            "durationTicks": 480,
            "midi": 71,
            "name": "B4",
            "ticks": 290400,
            "time": 211.04638500000001,
            "velocity": 0.6299212598425197
          },
          {
            "duration": 0.34883699999997475,
            "durationTicks": 480,
            "midi": 66,
            "name": "F#4",
            "ticks": 290880,
            "time": 211.39522200000002,
            "velocity": 0.6299212598425197
          },
          {
            "duration": 0.6976740000000063,
            "durationTicks": 960,
            "midi": 71,
            "name": "B4",
            "ticks": 291360,
            "time": 211.744059,
            "velocity": 0.6299212598425197
          },
          {
            "duration": 0.3488370000000032,
            "durationTicks": 480,
            "midi": 66,
            "name": "F#4",
            "ticks": 292320,
            "time": 212.441733,
            "velocity": 0.6299212598425197
          },
          {
            "duration": 0.3488370000000032,
            "durationTicks": 480,
            "midi": 71,
            "name": "B4",
            "ticks": 292800,
            "time": 212.79057,
            "velocity": 0.6299212598425197
          },
          {
            "duration": 0.3488370000000032,
            "durationTicks": 480,
            "midi": 66,
            "name": "F#4",
            "ticks": 293280,
            "time": 213.139407,
            "velocity": 0.6299212598425197
          },
          {
            "duration": 0.3488370000000032,
            "durationTicks": 480,
            "midi": 66,
            "name": "F#4",
            "ticks": 293760,
            "time": 213.488244,
            "velocity": 0.6299212598425197
          },
          {
            "duration": 0.3488370000000032,
            "durationTicks": 480,
            "midi": 71,
            "name": "B4",
            "ticks": 294240,
            "time": 213.837081,
            "velocity": 0.6299212598425197
          },
          {
            "duration": 0.3488370000000032,
            "durationTicks": 480,
            "midi": 66,
            "name": "F#4",
            "ticks": 294720,
            "time": 214.18591800000002,
            "velocity": 0.6299212598425197
          },
          {
            "duration": 0.6976739999999779,
            "durationTicks": 960,
            "midi": 71,
            "name": "B4",
            "ticks": 295200,
            "time": 214.53475500000002,
            "velocity": 0.6299212598425197
          },
          {
            "duration": 0.3488370000000032,
            "durationTicks": 480,
            "midi": 66,
            "name": "F#4",
            "ticks": 296160,
            "time": 215.232429,
            "velocity": 0.6299212598425197
          },
          {
            "duration": 0.3488370000000032,
            "durationTicks": 480,
            "midi": 71,
            "name": "B4",
            "ticks": 296640,
            "time": 215.581266,
            "velocity": 0.6299212598425197
          },
          {
            "duration": 0.3488370000000032,
            "durationTicks": 480,
            "midi": 66,
            "name": "F#4",
            "ticks": 297120,
            "time": 215.930103,
            "velocity": 0.6299212598425197
          },
          {
            "duration": 0.3488370000000032,
            "durationTicks": 480,
            "midi": 66,
            "name": "F#4",
            "ticks": 297600,
            "time": 216.27894,
            "velocity": 0.6299212598425197
          },
          {
            "duration": 0.3488370000000032,
            "durationTicks": 480,
            "midi": 71,
            "name": "B4",
            "ticks": 298080,
            "time": 216.627777,
            "velocity": 0.6299212598425197
          },
          {
            "duration": 0.3488370000000032,
            "durationTicks": 480,
            "midi": 66,
            "name": "F#4",
            "ticks": 298560,
            "time": 216.976614,
            "velocity": 0.6299212598425197
          },
          {
            "duration": 0.6976739999999779,
            "durationTicks": 960,
            "midi": 71,
            "name": "B4",
            "ticks": 299040,
            "time": 217.32545100000002,
            "velocity": 0.6299212598425197
          },
          {
            "duration": 0.3488370000000032,
            "durationTicks": 480,
            "midi": 66,
            "name": "F#4",
            "ticks": 300000,
            "time": 218.023125,
            "velocity": 0.6299212598425197
          },
          {
            "duration": 0.3488370000000032,
            "durationTicks": 480,
            "midi": 71,
            "name": "B4",
            "ticks": 300480,
            "time": 218.371962,
            "velocity": 0.6299212598425197
          },
          {
            "duration": 0.3488370000000032,
            "durationTicks": 480,
            "midi": 66,
            "name": "F#4",
            "ticks": 300960,
            "time": 218.720799,
            "velocity": 0.6299212598425197
          },
          {
            "duration": 0.3488370000000032,
            "durationTicks": 480,
            "midi": 66,
            "name": "F#4",
            "ticks": 301440,
            "time": 219.069636,
            "velocity": 0.6299212598425197
          },
          {
            "duration": 0.3488370000000032,
            "durationTicks": 480,
            "midi": 71,
            "name": "B4",
            "ticks": 301920,
            "time": 219.418473,
            "velocity": 0.6299212598425197
          },
          {
            "duration": 0.3488370000000032,
            "durationTicks": 480,
            "midi": 66,
            "name": "F#4",
            "ticks": 302400,
            "time": 219.76731,
            "velocity": 0.6299212598425197
          },
          {
            "duration": 0.6976740000000063,
            "durationTicks": 960,
            "midi": 71,
            "name": "B4",
            "ticks": 302880,
            "time": 220.116147,
            "velocity": 0.6299212598425197
          },
          {
            "duration": 0.34883699999997475,
            "durationTicks": 480,
            "midi": 66,
            "name": "F#4",
            "ticks": 303840,
            "time": 220.81382100000002,
            "velocity": 0.6299212598425197
          },
          {
            "duration": 0.3488370000000032,
            "durationTicks": 480,
            "midi": 71,
            "name": "B4",
            "ticks": 304320,
            "time": 221.162658,
            "velocity": 0.6299212598425197
          },
          {
            "duration": 0.3488370000000032,
            "durationTicks": 480,
            "midi": 66,
            "name": "F#4",
            "ticks": 304800,
            "time": 221.511495,
            "velocity": 0.6299212598425197
          },
          {
            "duration": 0.3488370000000032,
            "durationTicks": 480,
            "midi": 66,
            "name": "F#4",
            "ticks": 305280,
            "time": 221.860332,
            "velocity": 0.6299212598425197
          },
          {
            "duration": 0.3488370000000032,
            "durationTicks": 480,
            "midi": 71,
            "name": "B4",
            "ticks": 305760,
            "time": 222.209169,
            "velocity": 0.6299212598425197
          },
          {
            "duration": 0.3488370000000032,
            "durationTicks": 480,
            "midi": 66,
            "name": "F#4",
            "ticks": 306240,
            "time": 222.558006,
            "velocity": 0.6299212598425197
          },
          {
            "duration": 0.6976740000000063,
            "durationTicks": 960,
            "midi": 71,
            "name": "B4",
            "ticks": 306720,
            "time": 222.906843,
            "velocity": 0.6299212598425197
          },
          {
            "duration": 0.3488370000000032,
            "durationTicks": 480,
            "midi": 66,
            "name": "F#4",
            "ticks": 307680,
            "time": 223.60451700000002,
            "velocity": 0.6299212598425197
          },
          {
            "duration": 0.34883699999997475,
            "durationTicks": 480,
            "midi": 71,
            "name": "B4",
            "ticks": 308160,
            "time": 223.95335400000002,
            "velocity": 0.6299212598425197
          },
          {
            "duration": 0.3488370000000032,
            "durationTicks": 480,
            "midi": 66,
            "name": "F#4",
            "ticks": 308640,
            "time": 224.302191,
            "velocity": 0.6299212598425197
          },
          {
            "duration": 0.3488370000000032,
            "durationTicks": 480,
            "midi": 66,
            "name": "F#4",
            "ticks": 309120,
            "time": 224.651028,
            "velocity": 0.6299212598425197
          },
          {
            "duration": 0.3488370000000032,
            "durationTicks": 480,
            "midi": 70,
            "name": "A#4",
            "ticks": 309600,
            "time": 224.999865,
            "velocity": 0.6299212598425197
          },
          {
            "duration": 0.3488370000000032,
            "durationTicks": 480,
            "midi": 66,
            "name": "F#4",
            "ticks": 310080,
            "time": 225.348702,
            "velocity": 0.6299212598425197
          },
          {
            "duration": 0.6976740000000063,
            "durationTicks": 960,
            "midi": 70,
            "name": "A#4",
            "ticks": 310560,
            "time": 225.697539,
            "velocity": 0.6299212598425197
          },
          {
            "duration": 0.3488370000000032,
            "durationTicks": 480,
            "midi": 66,
            "name": "F#4",
            "ticks": 311520,
            "time": 226.395213,
            "velocity": 0.6299212598425197
          },
          {
            "duration": 0.3488370000000032,
            "durationTicks": 480,
            "midi": 70,
            "name": "A#4",
            "ticks": 312000,
            "time": 226.74405000000002,
            "velocity": 0.6299212598425197
          },
          {
            "duration": 0.34883699999997475,
            "durationTicks": 480,
            "midi": 66,
            "name": "F#4",
            "ticks": 312480,
            "time": 227.09288700000002,
            "velocity": 0.6299212598425197
          },
          {
            "duration": 0.3488370000000032,
            "durationTicks": 480,
            "midi": 66,
            "name": "F#4",
            "ticks": 312960,
            "time": 227.441724,
            "velocity": 0.6299212598425197
          },
          {
            "duration": 0.3488370000000032,
            "durationTicks": 480,
            "midi": 70,
            "name": "A#4",
            "ticks": 313440,
            "time": 227.790561,
            "velocity": 0.6299212598425197
          },
          {
            "duration": 0.3488370000000032,
            "durationTicks": 480,
            "midi": 66,
            "name": "F#4",
            "ticks": 313920,
            "time": 228.139398,
            "velocity": 0.6299212598425197
          },
          {
            "duration": 0.6976740000000063,
            "durationTicks": 960,
            "midi": 70,
            "name": "A#4",
            "ticks": 314400,
            "time": 228.488235,
            "velocity": 0.6299212598425197
          },
          {
            "duration": 0.3488370000000032,
            "durationTicks": 480,
            "midi": 66,
            "name": "F#4",
            "ticks": 315360,
            "time": 229.185909,
            "velocity": 0.6299212598425197
          },
          {
            "duration": 0.3488370000000032,
            "durationTicks": 480,
            "midi": 70,
            "name": "A#4",
            "ticks": 315840,
            "time": 229.534746,
            "velocity": 0.6299212598425197
          },
          {
            "duration": 0.3488370000000032,
            "durationTicks": 480,
            "midi": 66,
            "name": "F#4",
            "ticks": 316320,
            "time": 229.88358300000002,
            "velocity": 0.6299212598425197
          },
          {
            "duration": 0.34883699999997475,
            "durationTicks": 480,
            "midi": 61,
            "name": "C#4",
            "ticks": 316800,
            "time": 230.23242000000002,
            "velocity": 0.6299212598425197
          },
          {
            "duration": 0.3488370000000032,
            "durationTicks": 480,
            "midi": 73,
            "name": "C#5",
            "ticks": 317280,
            "time": 230.581257,
            "velocity": 0.6299212598425197
          },
          {
            "duration": 0.3488370000000032,
            "durationTicks": 480,
            "midi": 61,
            "name": "C#4",
            "ticks": 317760,
            "time": 230.930094,
            "velocity": 0.6299212598425197
          },
          {
            "duration": 0.6976740000000063,
            "durationTicks": 960,
            "midi": 73,
            "name": "C#5",
            "ticks": 318240,
            "time": 231.278931,
            "velocity": 0.6299212598425197
          },
          {
            "duration": 0.3488370000000032,
            "durationTicks": 480,
            "midi": 61,
            "name": "C#4",
            "ticks": 319200,
            "time": 231.976605,
            "velocity": 0.6299212598425197
          },
          {
            "duration": 0.3488370000000032,
            "durationTicks": 480,
            "midi": 73,
            "name": "C#5",
            "ticks": 319680,
            "time": 232.325442,
            "velocity": 0.6299212598425197
          },
          {
            "duration": 0.3488370000000032,
            "durationTicks": 480,
            "midi": 61,
            "name": "C#4",
            "ticks": 320160,
            "time": 232.674279,
            "velocity": 0.6299212598425197
          },
          {
            "duration": 0.3488370000000032,
            "durationTicks": 480,
            "midi": 59,
            "name": "B3",
            "ticks": 320640,
            "time": 233.02311600000002,
            "velocity": 0.6299212598425197
          },
          {
            "duration": 0.34883699999997475,
            "durationTicks": 480,
            "midi": 71,
            "name": "B4",
            "ticks": 321120,
            "time": 233.37195300000002,
            "velocity": 0.6299212598425197
          },
          {
            "duration": 0.3488370000000032,
            "durationTicks": 480,
            "midi": 66,
            "name": "F#4",
            "ticks": 321600,
            "time": 233.72079,
            "velocity": 0.6299212598425197
          },
          {
            "duration": 0.6976740000000063,
            "durationTicks": 960,
            "midi": 71,
            "name": "B4",
            "ticks": 322080,
            "time": 234.069627,
            "velocity": 0.6299212598425197
          },
          {
            "duration": 0.3488370000000032,
            "durationTicks": 480,
            "midi": 66,
            "name": "F#4",
            "ticks": 323040,
            "time": 234.767301,
            "velocity": 0.6299212598425197
          },
          {
            "duration": 0.3488370000000032,
            "durationTicks": 480,
            "midi": 71,
            "name": "B4",
            "ticks": 323520,
            "time": 235.116138,
            "velocity": 0.6299212598425197
          },
          {
            "duration": 0.334302125000022,
            "durationTicks": 460,
            "midi": 66,
            "name": "F#4",
            "ticks": 324000,
            "time": 235.464975,
            "velocity": 0.6299212598425197
          },
          {
            "duration": 0.3488370000000032,
            "durationTicks": 480,
            "midi": 66,
            "name": "F#4",
            "ticks": 324480,
            "time": 235.813812,
            "velocity": 0.6299212598425197
          },
          {
            "duration": 0.3488370000000032,
            "durationTicks": 480,
            "midi": 71,
            "name": "B4",
            "ticks": 324960,
            "time": 236.16264900000002,
            "velocity": 0.6299212598425197
          },
          {
            "duration": 0.34883699999997475,
            "durationTicks": 480,
            "midi": 66,
            "name": "F#4",
            "ticks": 325440,
            "time": 236.51148600000002,
            "velocity": 0.6299212598425197
          },
          {
            "duration": 0.6976740000000063,
            "durationTicks": 960,
            "midi": 71,
            "name": "B4",
            "ticks": 325920,
            "time": 236.860323,
            "velocity": 0.6299212598425197
          },
          {
            "duration": 0.3488370000000032,
            "durationTicks": 480,
            "midi": 66,
            "name": "F#4",
            "ticks": 326880,
            "time": 237.557997,
            "velocity": 0.6299212598425197
          },
          {
            "duration": 0.3488370000000032,
            "durationTicks": 480,
            "midi": 71,
            "name": "B4",
            "ticks": 327360,
            "time": 237.906834,
            "velocity": 0.6299212598425197
          },
          {
            "duration": 0.3488370000000032,
            "durationTicks": 480,
            "midi": 66,
            "name": "F#4",
            "ticks": 327840,
            "time": 238.255671,
            "velocity": 0.6299212598425197
          },
          {
            "duration": 0.3488370000000032,
            "durationTicks": 480,
            "midi": 66,
            "name": "F#4",
            "ticks": 328320,
            "time": 238.604508,
            "velocity": 0.6299212598425197
          },
          {
            "duration": 0.3488370000000032,
            "durationTicks": 480,
            "midi": 71,
            "name": "B4",
            "ticks": 328800,
            "time": 238.953345,
            "velocity": 0.6299212598425197
          },
          {
            "duration": 0.3488370000000032,
            "durationTicks": 480,
            "midi": 66,
            "name": "F#4",
            "ticks": 329280,
            "time": 239.30218200000002,
            "velocity": 0.6299212598425197
          },
          {
            "duration": 0.6976739999999779,
            "durationTicks": 960,
            "midi": 71,
            "name": "B4",
            "ticks": 329760,
            "time": 239.65101900000002,
            "velocity": 0.6299212598425197
          },
          {
            "duration": 0.3488370000000032,
            "durationTicks": 480,
            "midi": 66,
            "name": "F#4",
            "ticks": 330720,
            "time": 240.348693,
            "velocity": 0.6299212598425197
          },
          {
            "duration": 0.3488370000000032,
            "durationTicks": 480,
            "midi": 71,
            "name": "B4",
            "ticks": 331200,
            "time": 240.69753,
            "velocity": 0.6299212598425197
          },
          {
            "duration": 0.3488370000000032,
            "durationTicks": 480,
            "midi": 66,
            "name": "F#4",
            "ticks": 331680,
            "time": 241.046367,
            "velocity": 0.6299212598425197
          },
          {
            "duration": 0.3488370000000032,
            "durationTicks": 480,
            "midi": 66,
            "name": "F#4",
            "ticks": 332160,
            "time": 241.395204,
            "velocity": 0.6299212598425197
          },
          {
            "duration": 0.3488370000000032,
            "durationTicks": 480,
            "midi": 70,
            "name": "A#4",
            "ticks": 332640,
            "time": 241.744041,
            "velocity": 0.6299212598425197
          },
          {
            "duration": 0.3488370000000032,
            "durationTicks": 480,
            "midi": 66,
            "name": "F#4",
            "ticks": 333120,
            "time": 242.092878,
            "velocity": 0.6299212598425197
          },
          {
            "duration": 0.6976739999999779,
            "durationTicks": 960,
            "midi": 70,
            "name": "A#4",
            "ticks": 333600,
            "time": 242.44171500000002,
            "velocity": 0.6299212598425197
          },
          {
            "duration": 0.3488370000000032,
            "durationTicks": 480,
            "midi": 66,
            "name": "F#4",
            "ticks": 334560,
            "time": 243.139389,
            "velocity": 0.6299212598425197
          },
          {
            "duration": 0.3488370000000032,
            "durationTicks": 480,
            "midi": 70,
            "name": "A#4",
            "ticks": 335040,
            "time": 243.488226,
            "velocity": 0.6299212598425197
          },
          {
            "duration": 0.3488370000000032,
            "durationTicks": 480,
            "midi": 66,
            "name": "F#4",
            "ticks": 335520,
            "time": 243.837063,
            "velocity": 0.6299212598425197
          },
          {
            "duration": 0.3488370000000032,
            "durationTicks": 480,
            "midi": 66,
            "name": "F#4",
            "ticks": 336000,
            "time": 244.1859,
            "velocity": 0.6299212598425197
          },
          {
            "duration": 0.3488370000000032,
            "durationTicks": 480,
            "midi": 70,
            "name": "A#4",
            "ticks": 336480,
            "time": 244.534737,
            "velocity": 0.6299212598425197
          },
          {
            "duration": 0.3488370000000032,
            "durationTicks": 480,
            "midi": 66,
            "name": "F#4",
            "ticks": 336960,
            "time": 244.883574,
            "velocity": 0.6299212598425197
          },
          {
            "duration": 0.6976740000000063,
            "durationTicks": 960,
            "midi": 70,
            "name": "A#4",
            "ticks": 337440,
            "time": 245.232411,
            "velocity": 0.6299212598425197
          },
          {
            "duration": 0.34883699999997475,
            "durationTicks": 480,
            "midi": 66,
            "name": "F#4",
            "ticks": 338400,
            "time": 245.93008500000002,
            "velocity": 0.6299212598425197
          },
          {
            "duration": 0.3488370000000032,
            "durationTicks": 480,
            "midi": 70,
            "name": "A#4",
            "ticks": 338880,
            "time": 246.278922,
            "velocity": 0.6299212598425197
          },
          {
            "duration": 0.3488370000000032,
            "durationTicks": 480,
            "midi": 66,
            "name": "F#4",
            "ticks": 339360,
            "time": 246.627759,
            "velocity": 0.6299212598425197
          },
          {
            "duration": 0.3488370000000032,
            "durationTicks": 480,
            "midi": 61,
            "name": "C#4",
            "ticks": 339840,
            "time": 246.976596,
            "velocity": 0.6299212598425197
          },
          {
            "duration": 0.3488370000000032,
            "durationTicks": 480,
            "midi": 73,
            "name": "C#5",
            "ticks": 340320,
            "time": 247.325433,
            "velocity": 0.6299212598425197
          },
          {
            "duration": 0.3488370000000032,
            "durationTicks": 480,
            "midi": 61,
            "name": "C#4",
            "ticks": 340800,
            "time": 247.67427,
            "velocity": 0.6299212598425197
          },
          {
            "duration": 0.6976740000000063,
            "durationTicks": 960,
            "midi": 73,
            "name": "C#5",
            "ticks": 341280,
            "time": 248.023107,
            "velocity": 0.6299212598425197
          },
          {
            "duration": 0.3488370000000032,
            "durationTicks": 480,
            "midi": 61,
            "name": "C#4",
            "ticks": 342240,
            "time": 248.72078100000002,
            "velocity": 0.6299212598425197
          },
          {
            "duration": 0.34883699999997475,
            "durationTicks": 480,
            "midi": 73,
            "name": "C#5",
            "ticks": 342720,
            "time": 249.06961800000002,
            "velocity": 0.6299212598425197
          },
          {
            "duration": 0.3488370000000032,
            "durationTicks": 480,
            "midi": 61,
            "name": "C#4",
            "ticks": 343200,
            "time": 249.418455,
            "velocity": 0.6299212598425197
          },
          {
            "duration": 0.3488370000000032,
            "durationTicks": 480,
            "midi": 59,
            "name": "B3",
            "ticks": 343680,
            "time": 249.767292,
            "velocity": 0.6299212598425197
          },
          {
            "duration": 0.3488370000000032,
            "durationTicks": 480,
            "midi": 71,
            "name": "B4",
            "ticks": 344160,
            "time": 250.116129,
            "velocity": 0.6299212598425197
          },
          {
            "duration": 0.3488370000000032,
            "durationTicks": 480,
            "midi": 66,
            "name": "F#4",
            "ticks": 344640,
            "time": 250.464966,
            "velocity": 0.6299212598425197
          },
          {
            "duration": 0.6976740000000063,
            "durationTicks": 960,
            "midi": 71,
            "name": "B4",
            "ticks": 345120,
            "time": 250.813803,
            "velocity": 0.6299212598425197
          },
          {
            "duration": 0.3488370000000032,
            "durationTicks": 480,
            "midi": 66,
            "name": "F#4",
            "ticks": 346080,
            "time": 251.511477,
            "velocity": 0.6299212598425197
          },
          {
            "duration": 0.3488370000000032,
            "durationTicks": 480,
            "midi": 71,
            "name": "B4",
            "ticks": 346560,
            "time": 251.86031400000002,
            "velocity": 0.6299212598425197
          },
          {
            "duration": 0.33430212499999357,
            "durationTicks": 460,
            "midi": 66,
            "name": "F#4",
            "ticks": 347040,
            "time": 252.20915100000002,
            "velocity": 0.6299212598425197
          }
        ]
      },
      {
        "channel": 0,
        "controlChanges": {},
        "pitchBends": [],
        "instrument": {
          "family": "piano",
          "number": 0,
          "name": "acoustic grand piano"
        },
        "name": "untitled",
        "notes": [],
        "endOfTrackTicks": 372480
      },
      {
        "channel": 5,
        "controlChanges": {
          "7": [
            {
              "number": 7,
              "ticks": 0,
              "time": 0,
              "value": 0.6299212598425197
            }
          ],
          "10": [
            {
              "number": 10,
              "ticks": 0,
              "time": 0,
              "value": 1
            }
          ]
        },
        "pitchBends": [
          {
            "ticks": 17292,
            "time": 12.566852925,
            "value": -0.484375
          },
          {
            "ticks": 17328,
            "time": 12.5930157,
            "value": -0.3125
          },
          {
            "ticks": 17348,
            "time": 12.607550575,
            "value": -0.140625
          },
          {
            "ticks": 17396,
            "time": 12.642434275000001,
            "value": -0.0625
          },
          {
            "ticks": 17468,
            "time": 12.694759825,
            "value": -0.063232421875
          },
          {
            "ticks": 17520,
            "time": 12.7325505,
            "value": 0
          },
          {
            "ticks": 17760,
            "time": 12.906969,
            "value": -0.484375
          },
          {
            "ticks": 17796,
            "time": 12.933131775000001,
            "value": -0.3125
          },
          {
            "ticks": 17816,
            "time": 12.94766665,
            "value": -0.140625
          },
          {
            "ticks": 17864,
            "time": 12.98255035,
            "value": -0.0625
          },
          {
            "ticks": 17936,
            "time": 13.034875900000001,
            "value": -0.063232421875
          },
          {
            "ticks": 17988,
            "time": 13.072666575000001,
            "value": 0
          },
          {
            "ticks": 18252,
            "time": 13.264526925,
            "value": -0.484375
          },
          {
            "ticks": 18288,
            "time": 13.290689700000001,
            "value": -0.3125
          },
          {
            "ticks": 18308,
            "time": 13.305224575,
            "value": -0.140625
          },
          {
            "ticks": 18356,
            "time": 13.340108275,
            "value": -0.0625
          },
          {
            "ticks": 18428,
            "time": 13.392433825,
            "value": -0.063232421875
          },
          {
            "ticks": 18480,
            "time": 13.4302245,
            "value": 0
          },
          {
            "ticks": 18732,
            "time": 13.613363925,
            "value": -0.484375
          },
          {
            "ticks": 18768,
            "time": 13.639526700000001,
            "value": -0.3125
          },
          {
            "ticks": 18788,
            "time": 13.654061575,
            "value": -0.140625
          },
          {
            "ticks": 18836,
            "time": 13.688945275,
            "value": -0.0625
          },
          {
            "ticks": 18908,
            "time": 13.741270825,
            "value": -0.063232421875
          },
          {
            "ticks": 18960,
            "time": 13.779061500000001,
            "value": 0
          },
          {
            "ticks": 19200,
            "time": 13.95348,
            "value": -0.484375
          },
          {
            "ticks": 19236,
            "time": 13.979642775000002,
            "value": -0.3125
          },
          {
            "ticks": 19256,
            "time": 13.994177650000001,
            "value": -0.140625
          },
          {
            "ticks": 19304,
            "time": 14.029061350000001,
            "value": -0.0625
          },
          {
            "ticks": 19376,
            "time": 14.0813869,
            "value": -0.063232421875
          },
          {
            "ticks": 19428,
            "time": 14.119177575,
            "value": 0
          },
          {
            "ticks": 19680,
            "time": 14.302317,
            "value": -0.484375
          },
          {
            "ticks": 19716,
            "time": 14.328479775000002,
            "value": -0.3125
          },
          {
            "ticks": 19736,
            "time": 14.34301465,
            "value": -0.140625
          },
          {
            "ticks": 19784,
            "time": 14.37789835,
            "value": -0.0625
          },
          {
            "ticks": 19856,
            "time": 14.4302239,
            "value": -0.063232421875
          },
          {
            "ticks": 19908,
            "time": 14.468014575000002,
            "value": 0
          },
          {
            "ticks": 20160,
            "time": 14.651154,
            "value": -0.484375
          },
          {
            "ticks": 20196,
            "time": 14.677316775000001,
            "value": -0.3125
          },
          {
            "ticks": 20216,
            "time": 14.69185165,
            "value": -0.140625
          },
          {
            "ticks": 20264,
            "time": 14.72673535,
            "value": -0.0625
          },
          {
            "ticks": 20336,
            "time": 14.779060900000001,
            "value": -0.063232421875
          },
          {
            "ticks": 20388,
            "time": 14.816851575000001,
            "value": 0
          },
          {
            "ticks": 20652,
            "time": 15.008711925,
            "value": -0.484375
          },
          {
            "ticks": 20688,
            "time": 15.034874700000001,
            "value": -0.3125
          },
          {
            "ticks": 20708,
            "time": 15.049409575,
            "value": -0.140625
          },
          {
            "ticks": 20756,
            "time": 15.084293275,
            "value": -0.0625
          },
          {
            "ticks": 20828,
            "time": 15.136618825,
            "value": -0.063232421875
          },
          {
            "ticks": 20880,
            "time": 15.174409500000001,
            "value": 0
          },
          {
            "ticks": 20928,
            "time": 15.209293200000001,
            "value": -0.09375
          },
          {
            "ticks": 20996,
            "time": 15.258711775,
            "value": -0.234375
          },
          {
            "ticks": 21052,
            "time": 15.299409425,
            "value": -0.375
          },
          {
            "ticks": 21084,
            "time": 15.322665225,
            "value": -0.484375
          },
          {
            "ticks": 21124,
            "time": 15.351734975,
            "value": -0.484375
          },
          {
            "ticks": 21160,
            "time": 15.37789775,
            "value": -0.3125
          },
          {
            "ticks": 21180,
            "time": 15.392432625,
            "value": -0.140625
          },
          {
            "ticks": 21228,
            "time": 15.427316325000001,
            "value": -0.0625
          },
          {
            "ticks": 21300,
            "time": 15.479641875,
            "value": -0.063232421875
          },
          {
            "ticks": 21352,
            "time": 15.51743255,
            "value": 0
          },
          {
            "ticks": 21600,
            "time": 15.697665,
            "value": -0.484375
          },
          {
            "ticks": 21636,
            "time": 15.723827775000002,
            "value": -0.3125
          },
          {
            "ticks": 21656,
            "time": 15.738362650000001,
            "value": -0.140625
          },
          {
            "ticks": 21704,
            "time": 15.77324635,
            "value": -0.0625
          },
          {
            "ticks": 21776,
            "time": 15.8255719,
            "value": -0.063232421875
          },
          {
            "ticks": 21828,
            "time": 15.863362575,
            "value": 0
          },
          {
            "ticks": 22080,
            "time": 16.046502,
            "value": -0.484375
          },
          {
            "ticks": 22116,
            "time": 16.072664775,
            "value": -0.3125
          },
          {
            "ticks": 22136,
            "time": 16.087199650000002,
            "value": -0.140625
          },
          {
            "ticks": 22184,
            "time": 16.12208335,
            "value": -0.0625
          },
          {
            "ticks": 22256,
            "time": 16.1744089,
            "value": -0.063232421875
          },
          {
            "ticks": 22308,
            "time": 16.212199575,
            "value": 0
          },
          {
            "ticks": 22560,
            "time": 16.395339,
            "value": -0.484375
          },
          {
            "ticks": 22596,
            "time": 16.421501775000003,
            "value": -0.3125
          },
          {
            "ticks": 22616,
            "time": 16.436036650000002,
            "value": -0.140625
          },
          {
            "ticks": 22664,
            "time": 16.47092035,
            "value": -0.0625
          },
          {
            "ticks": 22736,
            "time": 16.5232459,
            "value": -0.063232421875
          },
          {
            "ticks": 22788,
            "time": 16.561036575,
            "value": 0
          },
          {
            "ticks": 23040,
            "time": 16.744176,
            "value": -0.484375
          },
          {
            "ticks": 23076,
            "time": 16.770338775000003,
            "value": -0.3125
          },
          {
            "ticks": 23096,
            "time": 16.78487365,
            "value": -0.140625
          },
          {
            "ticks": 23144,
            "time": 16.81975735,
            "value": -0.0625
          },
          {
            "ticks": 23216,
            "time": 16.872082900000002,
            "value": -0.063232421875
          },
          {
            "ticks": 23268,
            "time": 16.909873575000002,
            "value": 0
          },
          {
            "ticks": 23516,
            "time": 17.090106025,
            "value": -0.484375
          },
          {
            "ticks": 23552,
            "time": 17.1162688,
            "value": -0.3125
          },
          {
            "ticks": 23572,
            "time": 17.130803675,
            "value": -0.140625
          },
          {
            "ticks": 23620,
            "time": 17.165687375,
            "value": -0.0625
          },
          {
            "ticks": 23692,
            "time": 17.218012925,
            "value": -0.063232421875
          },
          {
            "ticks": 23744,
            "time": 17.2558036,
            "value": 0
          },
          {
            "ticks": 23996,
            "time": 17.438943025,
            "value": -0.484375
          },
          {
            "ticks": 24032,
            "time": 17.4651058,
            "value": -0.3125
          },
          {
            "ticks": 24052,
            "time": 17.479640675000002,
            "value": -0.140625
          },
          {
            "ticks": 24100,
            "time": 17.514524375,
            "value": -0.0625
          },
          {
            "ticks": 24172,
            "time": 17.566849925,
            "value": -0.063232421875
          },
          {
            "ticks": 24224,
            "time": 17.6046406,
            "value": 0
          },
          {
            "ticks": 24472,
            "time": 17.78487305,
            "value": -0.484375
          },
          {
            "ticks": 24508,
            "time": 17.811035824999998,
            "value": -0.3125
          },
          {
            "ticks": 24528,
            "time": 17.8255707,
            "value": -0.140625
          },
          {
            "ticks": 24576,
            "time": 17.860454400000002,
            "value": -0.0625
          },
          {
            "ticks": 24648,
            "time": 17.91277995,
            "value": -0.063232421875
          },
          {
            "ticks": 24696,
            "time": 17.947663650000003,
            "value": 0.03125
          },
          {
            "ticks": 24716,
            "time": 17.962198525,
            "value": 0.0625
          },
          {
            "ticks": 24724,
            "time": 17.968012475000002,
            "value": 0.09375
          },
          {
            "ticks": 24736,
            "time": 17.9767334,
            "value": 0.125
          },
          {
            "ticks": 24744,
            "time": 17.98254735,
            "value": 0.15625
          },
          {
            "ticks": 24764,
            "time": 17.997082225,
            "value": 0.21875
          },
          {
            "ticks": 24772,
            "time": 18.002896175,
            "value": 0.296875
          },
          {
            "ticks": 24784,
            "time": 18.0116171,
            "value": 0.375
          },
          {
            "ticks": 24792,
            "time": 18.01743105,
            "value": 0.984375
          },
          {
            "ticks": 24804,
            "time": 18.026151974999998,
            "value": 0.9998779296875
          },
          {
            "ticks": 24960,
            "time": 18.139524,
            "value": -0.484375
          },
          {
            "ticks": 24964,
            "time": 18.142430975,
            "value": 0
          },
          {
            "ticks": 24996,
            "time": 18.165686775,
            "value": -0.3125
          },
          {
            "ticks": 25016,
            "time": 18.18022165,
            "value": -0.140625
          },
          {
            "ticks": 25064,
            "time": 18.21510535,
            "value": -0.0625
          },
          {
            "ticks": 25136,
            "time": 18.2674309,
            "value": -0.063232421875
          },
          {
            "ticks": 25188,
            "time": 18.305221575,
            "value": 0
          },
          {
            "ticks": 25428,
            "time": 18.479640075000002,
            "value": -0.484375
          },
          {
            "ticks": 25464,
            "time": 18.50580285,
            "value": -0.3125
          },
          {
            "ticks": 25484,
            "time": 18.520337725,
            "value": -0.140625
          },
          {
            "ticks": 25532,
            "time": 18.555221425000003,
            "value": -0.0625
          },
          {
            "ticks": 25604,
            "time": 18.607546975,
            "value": -0.063232421875
          },
          {
            "ticks": 25656,
            "time": 18.645337650000002,
            "value": 0
          },
          {
            "ticks": 25920,
            "time": 18.837198,
            "value": -0.484375
          },
          {
            "ticks": 25956,
            "time": 18.863360775,
            "value": -0.3125
          },
          {
            "ticks": 25976,
            "time": 18.87789565,
            "value": -0.140625
          },
          {
            "ticks": 26024,
            "time": 18.91277935,
            "value": -0.0625
          },
          {
            "ticks": 26096,
            "time": 18.9651049,
            "value": -0.063232421875
          },
          {
            "ticks": 26148,
            "time": 19.002895575,
            "value": 0
          },
          {
            "ticks": 26400,
            "time": 19.186035,
            "value": -0.484375
          },
          {
            "ticks": 26436,
            "time": 19.212197775,
            "value": -0.3125
          },
          {
            "ticks": 26456,
            "time": 19.22673265,
            "value": -0.140625
          },
          {
            "ticks": 26504,
            "time": 19.26161635,
            "value": -0.0625
          },
          {
            "ticks": 26576,
            "time": 19.3139419,
            "value": -0.063232421875
          },
          {
            "ticks": 26628,
            "time": 19.351732575,
            "value": 0
          },
          {
            "ticks": 26868,
            "time": 19.526151075,
            "value": -0.484375
          },
          {
            "ticks": 26904,
            "time": 19.55231385,
            "value": -0.3125
          },
          {
            "ticks": 26924,
            "time": 19.566848725,
            "value": -0.140625
          },
          {
            "ticks": 26972,
            "time": 19.601732425,
            "value": -0.0625
          },
          {
            "ticks": 27044,
            "time": 19.654057975,
            "value": -0.063232421875
          },
          {
            "ticks": 27096,
            "time": 19.69184865,
            "value": 0
          },
          {
            "ticks": 27348,
            "time": 19.874988075,
            "value": -0.484375
          },
          {
            "ticks": 27384,
            "time": 19.90115085,
            "value": -0.3125
          },
          {
            "ticks": 27404,
            "time": 19.915685725,
            "value": -0.140625
          },
          {
            "ticks": 27452,
            "time": 19.950569425,
            "value": -0.0625
          },
          {
            "ticks": 27524,
            "time": 20.002894975,
            "value": -0.063232421875
          },
          {
            "ticks": 27576,
            "time": 20.04068565,
            "value": 0
          },
          {
            "ticks": 27828,
            "time": 20.223825075,
            "value": -0.484375
          },
          {
            "ticks": 27864,
            "time": 20.24998785,
            "value": -0.3125
          },
          {
            "ticks": 27884,
            "time": 20.264522725000003,
            "value": -0.140625
          },
          {
            "ticks": 27932,
            "time": 20.299406425,
            "value": -0.0625
          },
          {
            "ticks": 28004,
            "time": 20.351731975,
            "value": -0.063232421875
          },
          {
            "ticks": 28056,
            "time": 20.38952265,
            "value": 0
          },
          {
            "ticks": 28320,
            "time": 20.581383,
            "value": -0.484375
          },
          {
            "ticks": 28356,
            "time": 20.607545775000002,
            "value": -0.3125
          },
          {
            "ticks": 28376,
            "time": 20.62208065,
            "value": -0.140625
          },
          {
            "ticks": 28424,
            "time": 20.656964350000003,
            "value": -0.0625
          },
          {
            "ticks": 28496,
            "time": 20.7092899,
            "value": -0.063232421875
          },
          {
            "ticks": 28548,
            "time": 20.747080575000002,
            "value": 0
          },
          {
            "ticks": 28604,
            "time": 20.787778225,
            "value": -0.09375
          },
          {
            "ticks": 28660,
            "time": 20.828475875000002,
            "value": -0.203125
          },
          {
            "ticks": 28740,
            "time": 20.886615375,
            "value": -0.359375
          },
          {
            "ticks": 28768,
            "time": 20.9069642,
            "value": -0.484375
          },
          {
            "ticks": 28792,
            "time": 20.92440605,
            "value": -0.484375
          },
          {
            "ticks": 28828,
            "time": 20.950568824999998,
            "value": -0.3125
          },
          {
            "ticks": 28848,
            "time": 20.9651037,
            "value": -0.140625
          },
          {
            "ticks": 28896,
            "time": 20.999987400000002,
            "value": -0.0625
          },
          {
            "ticks": 28968,
            "time": 21.05231295,
            "value": -0.063232421875
          },
          {
            "ticks": 29020,
            "time": 21.090103625,
            "value": 0
          },
          {
            "ticks": 29268,
            "time": 21.270336075,
            "value": -0.484375
          },
          {
            "ticks": 29304,
            "time": 21.29649885,
            "value": -0.3125
          },
          {
            "ticks": 29324,
            "time": 21.311033725,
            "value": -0.140625
          },
          {
            "ticks": 29372,
            "time": 21.345917425000003,
            "value": -0.0625
          },
          {
            "ticks": 29444,
            "time": 21.398242975000002,
            "value": -0.063232421875
          },
          {
            "ticks": 29496,
            "time": 21.436033650000002,
            "value": 0
          },
          {
            "ticks": 29748,
            "time": 21.619173075000003,
            "value": -0.484375
          },
          {
            "ticks": 29784,
            "time": 21.64533585,
            "value": -0.3125
          },
          {
            "ticks": 29804,
            "time": 21.659870725,
            "value": -0.140625
          },
          {
            "ticks": 29852,
            "time": 21.694754425000003,
            "value": -0.0625
          },
          {
            "ticks": 29924,
            "time": 21.747079975000002,
            "value": -0.063232421875
          },
          {
            "ticks": 29976,
            "time": 21.784870650000002,
            "value": 0
          },
          {
            "ticks": 30228,
            "time": 21.968010075000002,
            "value": -0.484375
          },
          {
            "ticks": 30264,
            "time": 21.994172849999998,
            "value": -0.3125
          },
          {
            "ticks": 30284,
            "time": 22.008707725,
            "value": -0.140625
          },
          {
            "ticks": 30332,
            "time": 22.043591425000002,
            "value": -0.0625
          },
          {
            "ticks": 30404,
            "time": 22.095916975,
            "value": -0.063232421875
          },
          {
            "ticks": 30456,
            "time": 22.13370765,
            "value": 0
          },
          {
            "ticks": 30708,
            "time": 22.316847075000002,
            "value": -0.484375
          },
          {
            "ticks": 30744,
            "time": 22.343009849999998,
            "value": -0.3125
          },
          {
            "ticks": 30764,
            "time": 22.357544725,
            "value": -0.140625
          },
          {
            "ticks": 30812,
            "time": 22.392428425,
            "value": -0.0625
          },
          {
            "ticks": 30884,
            "time": 22.444753975,
            "value": -0.063232421875
          },
          {
            "ticks": 30936,
            "time": 22.48254465,
            "value": 0
          },
          {
            "ticks": 31184,
            "time": 22.6627771,
            "value": -0.484375
          },
          {
            "ticks": 31220,
            "time": 22.688939875000003,
            "value": -0.3125
          },
          {
            "ticks": 31240,
            "time": 22.703474749999998,
            "value": -0.140625
          },
          {
            "ticks": 31288,
            "time": 22.738358450000003,
            "value": -0.0625
          },
          {
            "ticks": 31360,
            "time": 22.790684,
            "value": -0.063232421875
          },
          {
            "ticks": 31412,
            "time": 22.828474675,
            "value": 0
          },
          {
            "ticks": 31664,
            "time": 23.011614100000003,
            "value": -0.484375
          },
          {
            "ticks": 31700,
            "time": 23.037776875000002,
            "value": -0.3125
          },
          {
            "ticks": 31720,
            "time": 23.052311749999998,
            "value": -0.140625
          },
          {
            "ticks": 31768,
            "time": 23.087195450000003,
            "value": -0.0625
          },
          {
            "ticks": 31840,
            "time": 23.139521,
            "value": -0.063232421875
          },
          {
            "ticks": 31892,
            "time": 23.177311675,
            "value": 0
          },
          {
            "ticks": 32140,
            "time": 23.357544125,
            "value": -0.484375
          },
          {
            "ticks": 32176,
            "time": 23.3837069,
            "value": -0.3125
          },
          {
            "ticks": 32196,
            "time": 23.398241775000002,
            "value": -0.140625
          },
          {
            "ticks": 32244,
            "time": 23.433125475,
            "value": -0.0625
          },
          {
            "ticks": 32316,
            "time": 23.485451025000003,
            "value": -0.063232421875
          },
          {
            "ticks": 32368,
            "time": 23.523241700000003,
            "value": 0
          },
          {
            "ticks": 32644,
            "time": 23.723822975000004,
            "value": -0.484375
          },
          {
            "ticks": 32680,
            "time": 23.74998575,
            "value": -0.3125
          },
          {
            "ticks": 32700,
            "time": 23.764520625,
            "value": -0.140625
          },
          {
            "ticks": 32748,
            "time": 23.799404324999998,
            "value": -0.0625
          },
          {
            "ticks": 32820,
            "time": 23.851729875,
            "value": -0.063232421875
          },
          {
            "ticks": 32872,
            "time": 23.88952055,
            "value": 0
          },
          {
            "ticks": 33112,
            "time": 24.063939050000002,
            "value": -0.484375
          },
          {
            "ticks": 33148,
            "time": 24.090101825,
            "value": -0.3125
          },
          {
            "ticks": 33168,
            "time": 24.104636699999997,
            "value": -0.140625
          },
          {
            "ticks": 33216,
            "time": 24.139520400000002,
            "value": -0.0625
          },
          {
            "ticks": 33288,
            "time": 24.191845949999998,
            "value": -0.063232421875
          },
          {
            "ticks": 33340,
            "time": 24.229636624999998,
            "value": 0
          },
          {
            "ticks": 33604,
            "time": 24.421496975000004,
            "value": -0.484375
          },
          {
            "ticks": 33640,
            "time": 24.44765975,
            "value": -0.3125
          },
          {
            "ticks": 33660,
            "time": 24.462194625000002,
            "value": -0.140625
          },
          {
            "ticks": 33708,
            "time": 24.497078324999997,
            "value": -0.0625
          },
          {
            "ticks": 33780,
            "time": 24.549403875,
            "value": -0.063232421875
          },
          {
            "ticks": 33832,
            "time": 24.58719455,
            "value": 0
          },
          {
            "ticks": 34084,
            "time": 24.770333975000003,
            "value": -0.484375
          },
          {
            "ticks": 34120,
            "time": 24.79649675,
            "value": -0.3125
          },
          {
            "ticks": 34140,
            "time": 24.811031625000002,
            "value": -0.140625
          },
          {
            "ticks": 34188,
            "time": 24.845915325,
            "value": -0.0625
          },
          {
            "ticks": 34260,
            "time": 24.898240875,
            "value": -0.063232421875
          },
          {
            "ticks": 34312,
            "time": 24.93603155,
            "value": 0
          },
          {
            "ticks": 34552,
            "time": 25.11045005,
            "value": -0.484375
          },
          {
            "ticks": 34588,
            "time": 25.136612825,
            "value": -0.3125
          },
          {
            "ticks": 34608,
            "time": 25.1511477,
            "value": -0.140625
          },
          {
            "ticks": 34656,
            "time": 25.1860314,
            "value": -0.0625
          },
          {
            "ticks": 34728,
            "time": 25.23835695,
            "value": -0.063232421875
          },
          {
            "ticks": 34780,
            "time": 25.276147625,
            "value": 0
          },
          {
            "ticks": 35032,
            "time": 25.45928705,
            "value": -0.484375
          },
          {
            "ticks": 35068,
            "time": 25.485449825000003,
            "value": -0.3125
          },
          {
            "ticks": 35088,
            "time": 25.4999847,
            "value": -0.140625
          },
          {
            "ticks": 35136,
            "time": 25.5348684,
            "value": -0.0625
          },
          {
            "ticks": 35208,
            "time": 25.58719395,
            "value": -0.063232421875
          },
          {
            "ticks": 35260,
            "time": 25.624984625,
            "value": 0
          },
          {
            "ticks": 35512,
            "time": 25.80812405,
            "value": -0.484375
          },
          {
            "ticks": 35548,
            "time": 25.834286825000003,
            "value": -0.3125
          },
          {
            "ticks": 35568,
            "time": 25.8488217,
            "value": -0.140625
          },
          {
            "ticks": 35616,
            "time": 25.8837054,
            "value": -0.0625
          },
          {
            "ticks": 35688,
            "time": 25.93603095,
            "value": -0.063232421875
          },
          {
            "ticks": 35740,
            "time": 25.973821625,
            "value": 0
          },
          {
            "ticks": 36004,
            "time": 26.165681975000002,
            "value": -0.484375
          },
          {
            "ticks": 36040,
            "time": 26.191844749999998,
            "value": -0.3125
          },
          {
            "ticks": 36060,
            "time": 26.206379625,
            "value": -0.140625
          },
          {
            "ticks": 36108,
            "time": 26.241263325,
            "value": -0.0625
          },
          {
            "ticks": 36180,
            "time": 26.293588875,
            "value": -0.063232421875
          },
          {
            "ticks": 36232,
            "time": 26.33137955,
            "value": 0
          },
          {
            "ticks": 36292,
            "time": 26.374984175,
            "value": -0.0625
          },
          {
            "ticks": 36320,
            "time": 26.395333,
            "value": -0.125
          },
          {
            "ticks": 36348,
            "time": 26.415681825,
            "value": -0.265625
          },
          {
            "ticks": 36396,
            "time": 26.450565525000002,
            "value": -0.375
          },
          {
            "ticks": 36428,
            "time": 26.473821325,
            "value": -0.453125
          },
          {
            "ticks": 36476,
            "time": 26.508705024999998,
            "value": -0.484375
          },
          {
            "ticks": 36512,
            "time": 26.5348678,
            "value": -0.3125
          },
          {
            "ticks": 36532,
            "time": 26.549402675,
            "value": -0.140625
          },
          {
            "ticks": 36580,
            "time": 26.584286374999998,
            "value": -0.0625
          },
          {
            "ticks": 36652,
            "time": 26.636611925,
            "value": -0.063232421875
          },
          {
            "ticks": 36704,
            "time": 26.6744026,
            "value": 0
          },
          {
            "ticks": 36952,
            "time": 26.854635050000002,
            "value": -0.484375
          },
          {
            "ticks": 36988,
            "time": 26.880797825000002,
            "value": -0.3125
          },
          {
            "ticks": 37008,
            "time": 26.895332699999997,
            "value": -0.140625
          },
          {
            "ticks": 37056,
            "time": 26.930216400000003,
            "value": -0.0625
          },
          {
            "ticks": 37128,
            "time": 26.982541949999998,
            "value": -0.063232421875
          },
          {
            "ticks": 37180,
            "time": 27.020332624999998,
            "value": 0
          },
          {
            "ticks": 37432,
            "time": 27.203472050000002,
            "value": -0.484375
          },
          {
            "ticks": 37468,
            "time": 27.229634825,
            "value": -0.3125
          },
          {
            "ticks": 37488,
            "time": 27.244169699999997,
            "value": -0.140625
          },
          {
            "ticks": 37536,
            "time": 27.279053400000002,
            "value": -0.0625
          },
          {
            "ticks": 37608,
            "time": 27.331378949999998,
            "value": -0.063232421875
          },
          {
            "ticks": 37660,
            "time": 27.369169624999998,
            "value": 0
          },
          {
            "ticks": 37912,
            "time": 27.55230905,
            "value": -0.484375
          },
          {
            "ticks": 37948,
            "time": 27.578471825,
            "value": -0.3125
          },
          {
            "ticks": 37968,
            "time": 27.5930067,
            "value": -0.140625
          },
          {
            "ticks": 38016,
            "time": 27.627890400000002,
            "value": -0.0625
          },
          {
            "ticks": 38088,
            "time": 27.680215949999997,
            "value": -0.063232421875
          },
          {
            "ticks": 38140,
            "time": 27.718006624999997,
            "value": 0
          },
          {
            "ticks": 38392,
            "time": 27.90114605,
            "value": -0.484375
          },
          {
            "ticks": 38428,
            "time": 27.927308825,
            "value": -0.3125
          },
          {
            "ticks": 38448,
            "time": 27.9418437,
            "value": -0.140625
          },
          {
            "ticks": 38496,
            "time": 27.9767274,
            "value": -0.0625
          },
          {
            "ticks": 38568,
            "time": 28.029052949999997,
            "value": -0.063232421875
          },
          {
            "ticks": 38620,
            "time": 28.066843625,
            "value": 0
          },
          {
            "ticks": 38868,
            "time": 28.247076075,
            "value": -0.484375
          },
          {
            "ticks": 38904,
            "time": 28.27323885,
            "value": -0.3125
          },
          {
            "ticks": 38924,
            "time": 28.287773725,
            "value": -0.140625
          },
          {
            "ticks": 38972,
            "time": 28.322657425,
            "value": -0.0625
          },
          {
            "ticks": 39044,
            "time": 28.374982975,
            "value": -0.063232421875
          },
          {
            "ticks": 39096,
            "time": 28.412773650000002,
            "value": 0
          },
          {
            "ticks": 39348,
            "time": 28.595913075,
            "value": -0.484375
          },
          {
            "ticks": 39384,
            "time": 28.622075849999998,
            "value": -0.3125
          },
          {
            "ticks": 39404,
            "time": 28.636610725,
            "value": -0.140625
          },
          {
            "ticks": 39452,
            "time": 28.671494425,
            "value": -0.0625
          },
          {
            "ticks": 39524,
            "time": 28.723819975,
            "value": -0.063232421875
          },
          {
            "ticks": 39576,
            "time": 28.76161065,
            "value": 0
          },
          {
            "ticks": 39824,
            "time": 28.9418431,
            "value": -0.484375
          },
          {
            "ticks": 39860,
            "time": 28.968005875000003,
            "value": -0.3125
          },
          {
            "ticks": 39880,
            "time": 28.98254075,
            "value": -0.140625
          },
          {
            "ticks": 39928,
            "time": 29.017424450000004,
            "value": -0.0625
          },
          {
            "ticks": 40000,
            "time": 29.06975,
            "value": -0.063232421875
          },
          {
            "ticks": 40052,
            "time": 29.107540675,
            "value": 0
          },
          {
            "ticks": 40096,
            "time": 29.1395174,
            "value": 0.03125
          },
          {
            "ticks": 40116,
            "time": 29.154052275,
            "value": 0.046875
          },
          {
            "ticks": 40124,
            "time": 29.159866225000002,
            "value": 0.078125
          },
          {
            "ticks": 40136,
            "time": 29.168587149999997,
            "value": 0.109375
          },
          {
            "ticks": 40152,
            "time": 29.18021505,
            "value": 0.140625
          },
          {
            "ticks": 40164,
            "time": 29.188935975,
            "value": 0.171875
          },
          {
            "ticks": 40172,
            "time": 29.194749925,
            "value": 0.234375
          },
          {
            "ticks": 40184,
            "time": 29.203470850000002,
            "value": 0.265625
          },
          {
            "ticks": 40192,
            "time": 29.209284800000002,
            "value": 0.28125
          },
          {
            "ticks": 40200,
            "time": 29.21509875,
            "value": 0.3125
          },
          {
            "ticks": 40212,
            "time": 29.223819675,
            "value": 0.34375
          },
          {
            "ticks": 40220,
            "time": 29.229633625,
            "value": 0.375
          },
          {
            "ticks": 40232,
            "time": 29.23835455,
            "value": 0.40625
          },
          {
            "ticks": 40240,
            "time": 29.2441685,
            "value": 0.4375
          },
          {
            "ticks": 40268,
            "time": 29.264517325,
            "value": 0.78125
          },
          {
            "ticks": 40280,
            "time": 29.273238250000002,
            "value": 0.875
          },
          {
            "ticks": 40288,
            "time": 29.279052200000002,
            "value": 0.921875
          },
          {
            "ticks": 40296,
            "time": 29.284866150000003,
            "value": 0.9998779296875
          },
          {
            "ticks": 40324,
            "time": 29.305214975000002,
            "value": -0.484375
          },
          {
            "ticks": 40360,
            "time": 29.331377749999998,
            "value": -0.3125
          },
          {
            "ticks": 40380,
            "time": 29.345912625,
            "value": -0.140625
          },
          {
            "ticks": 40428,
            "time": 29.380796325,
            "value": -0.0625
          },
          {
            "ticks": 40500,
            "time": 29.433121875,
            "value": -0.063232421875
          },
          {
            "ticks": 40552,
            "time": 29.47091255,
            "value": 0
          },
          {
            "ticks": 40792,
            "time": 29.64533105,
            "value": -0.484375
          },
          {
            "ticks": 40828,
            "time": 29.671493825000002,
            "value": -0.3125
          },
          {
            "ticks": 40848,
            "time": 29.686028699999998,
            "value": -0.140625
          },
          {
            "ticks": 40896,
            "time": 29.720912400000003,
            "value": -0.0625
          },
          {
            "ticks": 40968,
            "time": 29.77323795,
            "value": -0.063232421875
          },
          {
            "ticks": 41020,
            "time": 29.811028625,
            "value": 0
          },
          {
            "ticks": 41284,
            "time": 30.002888975000005,
            "value": -0.484375
          },
          {
            "ticks": 41320,
            "time": 30.02905175,
            "value": -0.3125
          },
          {
            "ticks": 41340,
            "time": 30.043586625,
            "value": -0.140625
          },
          {
            "ticks": 41388,
            "time": 30.078470324999998,
            "value": -0.0625
          },
          {
            "ticks": 41460,
            "time": 30.130795875,
            "value": -0.063232421875
          },
          {
            "ticks": 41512,
            "time": 30.16858655,
            "value": 0
          },
          {
            "ticks": 41764,
            "time": 30.351725975000004,
            "value": -0.484375
          },
          {
            "ticks": 41800,
            "time": 30.37788875,
            "value": -0.3125
          },
          {
            "ticks": 41820,
            "time": 30.392423625,
            "value": -0.140625
          },
          {
            "ticks": 41868,
            "time": 30.427307324999997,
            "value": -0.0625
          },
          {
            "ticks": 41940,
            "time": 30.479632875,
            "value": -0.063232421875
          },
          {
            "ticks": 41992,
            "time": 30.51742355,
            "value": 0
          },
          {
            "ticks": 42232,
            "time": 30.69184205,
            "value": -0.484375
          },
          {
            "ticks": 42268,
            "time": 30.718004825,
            "value": -0.3125
          },
          {
            "ticks": 42288,
            "time": 30.7325397,
            "value": -0.140625
          },
          {
            "ticks": 42336,
            "time": 30.767423400000002,
            "value": -0.0625
          },
          {
            "ticks": 42408,
            "time": 30.819748949999997,
            "value": -0.063232421875
          },
          {
            "ticks": 42460,
            "time": 30.857539624999998,
            "value": 0
          },
          {
            "ticks": 42712,
            "time": 31.04067905,
            "value": -0.484375
          },
          {
            "ticks": 42748,
            "time": 31.066841825,
            "value": -0.3125
          },
          {
            "ticks": 42768,
            "time": 31.0813767,
            "value": -0.140625
          },
          {
            "ticks": 42816,
            "time": 31.1162604,
            "value": -0.0625
          },
          {
            "ticks": 42888,
            "time": 31.168585949999997,
            "value": -0.063232421875
          },
          {
            "ticks": 42940,
            "time": 31.206376625,
            "value": 0
          },
          {
            "ticks": 43192,
            "time": 31.38951605,
            "value": -0.484375
          },
          {
            "ticks": 43228,
            "time": 31.415678825,
            "value": -0.3125
          },
          {
            "ticks": 43248,
            "time": 31.4302137,
            "value": -0.140625
          },
          {
            "ticks": 43296,
            "time": 31.4650974,
            "value": -0.0625
          },
          {
            "ticks": 43368,
            "time": 31.51742295,
            "value": -0.063232421875
          },
          {
            "ticks": 43420,
            "time": 31.555213625,
            "value": 0
          },
          {
            "ticks": 43684,
            "time": 31.747073975000003,
            "value": -0.484375
          },
          {
            "ticks": 43720,
            "time": 31.77323675,
            "value": -0.3125
          },
          {
            "ticks": 43740,
            "time": 31.787771625,
            "value": -0.140625
          },
          {
            "ticks": 43788,
            "time": 31.822655325,
            "value": -0.0625
          },
          {
            "ticks": 43860,
            "time": 31.874980875000002,
            "value": -0.063232421875
          },
          {
            "ticks": 43912,
            "time": 31.912771550000002,
            "value": 0
          },
          {
            "ticks": 43968,
            "time": 31.953469199999997,
            "value": -0.09375
          },
          {
            "ticks": 44024,
            "time": 31.994166850000003,
            "value": -0.1875
          },
          {
            "ticks": 44052,
            "time": 32.014515675000006,
            "value": -0.328125
          },
          {
            "ticks": 44092,
            "time": 32.043585425,
            "value": -0.46875
          },
          {
            "ticks": 44156,
            "time": 32.090097025,
            "value": -0.484375
          },
          {
            "ticks": 44192,
            "time": 32.1162598,
            "value": -0.3125
          },
          {
            "ticks": 44212,
            "time": 32.130794675000004,
            "value": -0.140625
          },
          {
            "ticks": 44260,
            "time": 32.165678375,
            "value": -0.0625
          },
          {
            "ticks": 44332,
            "time": 32.218003925,
            "value": -0.063232421875
          },
          {
            "ticks": 44384,
            "time": 32.2557946,
            "value": 0
          },
          {
            "ticks": 44632,
            "time": 32.43602705,
            "value": -0.484375
          },
          {
            "ticks": 44668,
            "time": 32.462189825,
            "value": -0.3125
          },
          {
            "ticks": 44688,
            "time": 32.4767247,
            "value": -0.140625
          },
          {
            "ticks": 44736,
            "time": 32.5116084,
            "value": -0.0625
          },
          {
            "ticks": 44808,
            "time": 32.56393395,
            "value": -0.063232421875
          },
          {
            "ticks": 44860,
            "time": 32.601724624999996,
            "value": 0
          },
          {
            "ticks": 45112,
            "time": 32.78486405,
            "value": -0.484375
          },
          {
            "ticks": 45148,
            "time": 32.811026825,
            "value": -0.3125
          },
          {
            "ticks": 45168,
            "time": 32.8255617,
            "value": -0.140625
          },
          {
            "ticks": 45216,
            "time": 32.8604454,
            "value": -0.0625
          },
          {
            "ticks": 45288,
            "time": 32.91277095,
            "value": -0.063232421875
          },
          {
            "ticks": 45340,
            "time": 32.950561625,
            "value": 0
          },
          {
            "ticks": 45592,
            "time": 33.13370105,
            "value": -0.484375
          },
          {
            "ticks": 45628,
            "time": 33.159863825,
            "value": -0.3125
          },
          {
            "ticks": 45648,
            "time": 33.1743987,
            "value": -0.140625
          },
          {
            "ticks": 45696,
            "time": 33.2092824,
            "value": -0.0625
          },
          {
            "ticks": 45768,
            "time": 33.26160795,
            "value": -0.063232421875
          },
          {
            "ticks": 45820,
            "time": 33.299398625,
            "value": 0
          },
          {
            "ticks": 46072,
            "time": 33.48253805,
            "value": -0.484375
          },
          {
            "ticks": 46108,
            "time": 33.508700825000005,
            "value": -0.3125
          },
          {
            "ticks": 46128,
            "time": 33.5232357,
            "value": -0.140625
          },
          {
            "ticks": 46176,
            "time": 33.5581194,
            "value": -0.0625
          },
          {
            "ticks": 46248,
            "time": 33.61044495,
            "value": -0.063232421875
          },
          {
            "ticks": 46300,
            "time": 33.648235625,
            "value": 0
          },
          {
            "ticks": 46548,
            "time": 33.828468074999996,
            "value": -0.484375
          },
          {
            "ticks": 46584,
            "time": 33.85463085,
            "value": -0.3125
          },
          {
            "ticks": 46604,
            "time": 33.869165725,
            "value": -0.140625
          },
          {
            "ticks": 46652,
            "time": 33.904049425,
            "value": -0.0625
          },
          {
            "ticks": 46724,
            "time": 33.956374975,
            "value": -0.063232421875
          },
          {
            "ticks": 46776,
            "time": 33.99416565,
            "value": 0
          },
          {
            "ticks": 47028,
            "time": 34.177305075,
            "value": -0.484375
          },
          {
            "ticks": 47064,
            "time": 34.20346785,
            "value": -0.3125
          },
          {
            "ticks": 47084,
            "time": 34.218002725,
            "value": -0.140625
          },
          {
            "ticks": 47132,
            "time": 34.252886425,
            "value": -0.0625
          },
          {
            "ticks": 47204,
            "time": 34.305211975,
            "value": -0.063232421875
          },
          {
            "ticks": 47256,
            "time": 34.34300265,
            "value": 0
          },
          {
            "ticks": 47504,
            "time": 34.5232351,
            "value": -0.484375
          },
          {
            "ticks": 47540,
            "time": 34.549397875000004,
            "value": -0.3125
          },
          {
            "ticks": 47560,
            "time": 34.56393275,
            "value": -0.140625
          },
          {
            "ticks": 47608,
            "time": 34.59881645,
            "value": -0.0625
          },
          {
            "ticks": 47680,
            "time": 34.651142,
            "value": -0.063232421875
          },
          {
            "ticks": 47732,
            "time": 34.688932675,
            "value": 0
          },
          {
            "ticks": 155532,
            "time": 113.031908925,
            "value": -0.484375
          },
          {
            "ticks": 155568,
            "time": 113.05807170000001,
            "value": -0.3125
          },
          {
            "ticks": 155588,
            "time": 113.072606575,
            "value": -0.140625
          },
          {
            "ticks": 155636,
            "time": 113.107490275,
            "value": -0.0625
          },
          {
            "ticks": 155708,
            "time": 113.159815825,
            "value": -0.063232421875
          },
          {
            "ticks": 155760,
            "time": 113.1976065,
            "value": 0
          },
          {
            "ticks": 156000,
            "time": 113.37202500000001,
            "value": -0.484375
          },
          {
            "ticks": 156036,
            "time": 113.398187775,
            "value": -0.3125
          },
          {
            "ticks": 156056,
            "time": 113.41272265,
            "value": -0.140625
          },
          {
            "ticks": 156104,
            "time": 113.44760634999999,
            "value": -0.0625
          },
          {
            "ticks": 156176,
            "time": 113.4999319,
            "value": -0.063232421875
          },
          {
            "ticks": 156228,
            "time": 113.537722575,
            "value": 0
          },
          {
            "ticks": 156492,
            "time": 113.72958292499999,
            "value": -0.484375
          },
          {
            "ticks": 156528,
            "time": 113.7557457,
            "value": -0.3125
          },
          {
            "ticks": 156548,
            "time": 113.770280575,
            "value": -0.140625
          },
          {
            "ticks": 156596,
            "time": 113.80516427500001,
            "value": -0.0625
          },
          {
            "ticks": 156668,
            "time": 113.857489825,
            "value": -0.063232421875
          },
          {
            "ticks": 156720,
            "time": 113.8952805,
            "value": 0
          },
          {
            "ticks": 156972,
            "time": 114.07841992499999,
            "value": -0.484375
          },
          {
            "ticks": 157008,
            "time": 114.10458270000001,
            "value": -0.3125
          },
          {
            "ticks": 157028,
            "time": 114.119117575,
            "value": -0.140625
          },
          {
            "ticks": 157076,
            "time": 114.154001275,
            "value": -0.0625
          },
          {
            "ticks": 157148,
            "time": 114.20632682499999,
            "value": -0.063232421875
          },
          {
            "ticks": 157200,
            "time": 114.2441175,
            "value": 0
          },
          {
            "ticks": 157440,
            "time": 114.418536,
            "value": -0.484375
          },
          {
            "ticks": 157476,
            "time": 114.44469877499999,
            "value": -0.3125
          },
          {
            "ticks": 157496,
            "time": 114.45923365,
            "value": -0.140625
          },
          {
            "ticks": 157544,
            "time": 114.49411735,
            "value": -0.0625
          },
          {
            "ticks": 157616,
            "time": 114.5464429,
            "value": -0.063232421875
          },
          {
            "ticks": 157668,
            "time": 114.58423357500001,
            "value": 0
          },
          {
            "ticks": 157920,
            "time": 114.767373,
            "value": -0.484375
          },
          {
            "ticks": 157956,
            "time": 114.793535775,
            "value": -0.3125
          },
          {
            "ticks": 157976,
            "time": 114.80807065,
            "value": -0.140625
          },
          {
            "ticks": 158024,
            "time": 114.84295435,
            "value": -0.0625
          },
          {
            "ticks": 158096,
            "time": 114.8952799,
            "value": -0.063232421875
          },
          {
            "ticks": 158148,
            "time": 114.93307057500002,
            "value": 0
          },
          {
            "ticks": 158400,
            "time": 115.11621000000001,
            "value": -0.484375
          },
          {
            "ticks": 158436,
            "time": 115.142372775,
            "value": -0.3125
          },
          {
            "ticks": 158456,
            "time": 115.15690765000001,
            "value": -0.140625
          },
          {
            "ticks": 158504,
            "time": 115.19179134999999,
            "value": -0.0625
          },
          {
            "ticks": 158576,
            "time": 115.24411690000001,
            "value": -0.063232421875
          },
          {
            "ticks": 158628,
            "time": 115.281907575,
            "value": 0
          },
          {
            "ticks": 158892,
            "time": 115.47376792499999,
            "value": -0.484375
          },
          {
            "ticks": 158928,
            "time": 115.49993070000001,
            "value": -0.3125
          },
          {
            "ticks": 158948,
            "time": 115.514465575,
            "value": -0.140625
          },
          {
            "ticks": 158996,
            "time": 115.54934927500001,
            "value": -0.0625
          },
          {
            "ticks": 159068,
            "time": 115.601674825,
            "value": -0.063232421875
          },
          {
            "ticks": 159120,
            "time": 115.6394655,
            "value": 0
          },
          {
            "ticks": 159168,
            "time": 115.67434920000001,
            "value": -0.09375
          },
          {
            "ticks": 159236,
            "time": 115.723767775,
            "value": -0.234375
          },
          {
            "ticks": 159292,
            "time": 115.76446542500001,
            "value": -0.375
          },
          {
            "ticks": 159324,
            "time": 115.78772122500001,
            "value": -0.484375
          },
          {
            "ticks": 159364,
            "time": 115.816790975,
            "value": -0.484375
          },
          {
            "ticks": 159400,
            "time": 115.84295374999999,
            "value": -0.3125
          },
          {
            "ticks": 159420,
            "time": 115.857488625,
            "value": -0.140625
          },
          {
            "ticks": 159468,
            "time": 115.89237232500001,
            "value": -0.0625
          },
          {
            "ticks": 159540,
            "time": 115.944697875,
            "value": -0.063232421875
          },
          {
            "ticks": 159592,
            "time": 115.98248855000001,
            "value": 0
          },
          {
            "ticks": 159840,
            "time": 116.162721,
            "value": -0.484375
          },
          {
            "ticks": 159876,
            "time": 116.188883775,
            "value": -0.3125
          },
          {
            "ticks": 159896,
            "time": 116.20341865,
            "value": -0.140625
          },
          {
            "ticks": 159944,
            "time": 116.23830235,
            "value": -0.0625
          },
          {
            "ticks": 160016,
            "time": 116.2906279,
            "value": -0.063232421875
          },
          {
            "ticks": 160068,
            "time": 116.32841857500001,
            "value": 0
          },
          {
            "ticks": 160320,
            "time": 116.51155800000001,
            "value": -0.484375
          },
          {
            "ticks": 160356,
            "time": 116.537720775,
            "value": -0.3125
          },
          {
            "ticks": 160376,
            "time": 116.55225565,
            "value": -0.140625
          },
          {
            "ticks": 160424,
            "time": 116.58713934999999,
            "value": -0.0625
          },
          {
            "ticks": 160496,
            "time": 116.63946490000001,
            "value": -0.063232421875
          },
          {
            "ticks": 160548,
            "time": 116.677255575,
            "value": 0
          },
          {
            "ticks": 160800,
            "time": 116.860395,
            "value": -0.484375
          },
          {
            "ticks": 160836,
            "time": 116.886557775,
            "value": -0.3125
          },
          {
            "ticks": 160856,
            "time": 116.90109265000001,
            "value": -0.140625
          },
          {
            "ticks": 160904,
            "time": 116.93597634999999,
            "value": -0.0625
          },
          {
            "ticks": 160976,
            "time": 116.98830190000001,
            "value": -0.063232421875
          },
          {
            "ticks": 161028,
            "time": 117.026092575,
            "value": 0
          },
          {
            "ticks": 161280,
            "time": 117.209232,
            "value": -0.484375
          },
          {
            "ticks": 161316,
            "time": 117.235394775,
            "value": -0.3125
          },
          {
            "ticks": 161336,
            "time": 117.24992965,
            "value": -0.140625
          },
          {
            "ticks": 161384,
            "time": 117.28481335,
            "value": -0.0625
          },
          {
            "ticks": 161456,
            "time": 117.3371389,
            "value": -0.063232421875
          },
          {
            "ticks": 161508,
            "time": 117.37492957500001,
            "value": 0
          },
          {
            "ticks": 161756,
            "time": 117.555162025,
            "value": -0.484375
          },
          {
            "ticks": 161792,
            "time": 117.5813248,
            "value": -0.3125
          },
          {
            "ticks": 161812,
            "time": 117.59585967500001,
            "value": -0.140625
          },
          {
            "ticks": 161860,
            "time": 117.630743375,
            "value": -0.0625
          },
          {
            "ticks": 161932,
            "time": 117.68306892500001,
            "value": -0.063232421875
          },
          {
            "ticks": 161984,
            "time": 117.7208596,
            "value": 0
          },
          {
            "ticks": 162236,
            "time": 117.903999025,
            "value": -0.484375
          },
          {
            "ticks": 162272,
            "time": 117.93016180000001,
            "value": -0.3125
          },
          {
            "ticks": 162292,
            "time": 117.944696675,
            "value": -0.140625
          },
          {
            "ticks": 162340,
            "time": 117.979580375,
            "value": -0.0625
          },
          {
            "ticks": 162412,
            "time": 118.031905925,
            "value": -0.063232421875
          },
          {
            "ticks": 162464,
            "time": 118.0696966,
            "value": 0
          },
          {
            "ticks": 162712,
            "time": 118.24992905,
            "value": -0.484375
          },
          {
            "ticks": 162748,
            "time": 118.27609182500001,
            "value": -0.3125
          },
          {
            "ticks": 162768,
            "time": 118.2906267,
            "value": -0.140625
          },
          {
            "ticks": 162816,
            "time": 118.3255104,
            "value": -0.0625
          },
          {
            "ticks": 162888,
            "time": 118.37783595,
            "value": -0.063232421875
          },
          {
            "ticks": 162936,
            "time": 118.41271965,
            "value": 0.03125
          },
          {
            "ticks": 162956,
            "time": 118.42725452500001,
            "value": 0.0625
          },
          {
            "ticks": 162964,
            "time": 118.433068475,
            "value": 0.09375
          },
          {
            "ticks": 162976,
            "time": 118.44178940000002,
            "value": 0.125
          },
          {
            "ticks": 162984,
            "time": 118.44760335000001,
            "value": 0.15625
          },
          {
            "ticks": 163004,
            "time": 118.46213822499999,
            "value": 0.21875
          },
          {
            "ticks": 163012,
            "time": 118.46795217500001,
            "value": 0.296875
          },
          {
            "ticks": 163024,
            "time": 118.4766731,
            "value": 0.375
          },
          {
            "ticks": 163032,
            "time": 118.48248704999999,
            "value": 0.984375
          },
          {
            "ticks": 163044,
            "time": 118.49120797500001,
            "value": 0.9998779296875
          },
          {
            "ticks": 163200,
            "time": 118.60458,
            "value": -0.484375
          },
          {
            "ticks": 163204,
            "time": 118.607486975,
            "value": 0
          },
          {
            "ticks": 163236,
            "time": 118.630742775,
            "value": -0.3125
          },
          {
            "ticks": 163256,
            "time": 118.64527765000001,
            "value": -0.140625
          },
          {
            "ticks": 163304,
            "time": 118.68016134999999,
            "value": -0.0625
          },
          {
            "ticks": 163376,
            "time": 118.73248690000001,
            "value": -0.063232421875
          },
          {
            "ticks": 163428,
            "time": 118.77027757500001,
            "value": 0
          },
          {
            "ticks": 163668,
            "time": 118.94469607500001,
            "value": -0.484375
          },
          {
            "ticks": 163704,
            "time": 118.97085885000001,
            "value": -0.3125
          },
          {
            "ticks": 163724,
            "time": 118.985393725,
            "value": -0.140625
          },
          {
            "ticks": 163772,
            "time": 119.020277425,
            "value": -0.0625
          },
          {
            "ticks": 163844,
            "time": 119.072602975,
            "value": -0.063232421875
          },
          {
            "ticks": 163896,
            "time": 119.11039364999999,
            "value": 0
          },
          {
            "ticks": 164160,
            "time": 119.302254,
            "value": -0.484375
          },
          {
            "ticks": 164196,
            "time": 119.328416775,
            "value": -0.3125
          },
          {
            "ticks": 164216,
            "time": 119.34295165,
            "value": -0.140625
          },
          {
            "ticks": 164264,
            "time": 119.37783535,
            "value": -0.0625
          },
          {
            "ticks": 164336,
            "time": 119.4301609,
            "value": -0.063232421875
          },
          {
            "ticks": 164388,
            "time": 119.46795157500001,
            "value": 0
          },
          {
            "ticks": 164640,
            "time": 119.65109100000001,
            "value": -0.484375
          },
          {
            "ticks": 164676,
            "time": 119.677253775,
            "value": -0.3125
          },
          {
            "ticks": 164696,
            "time": 119.69178865,
            "value": -0.140625
          },
          {
            "ticks": 164744,
            "time": 119.72667234999999,
            "value": -0.0625
          },
          {
            "ticks": 164816,
            "time": 119.77899790000001,
            "value": -0.063232421875
          },
          {
            "ticks": 164868,
            "time": 119.816788575,
            "value": 0
          },
          {
            "ticks": 165108,
            "time": 119.991207075,
            "value": -0.484375
          },
          {
            "ticks": 165144,
            "time": 120.01736985000001,
            "value": -0.3125
          },
          {
            "ticks": 165164,
            "time": 120.03190472499999,
            "value": -0.140625
          },
          {
            "ticks": 165212,
            "time": 120.066788425,
            "value": -0.0625
          },
          {
            "ticks": 165284,
            "time": 120.11911397499999,
            "value": -0.063232421875
          },
          {
            "ticks": 165336,
            "time": 120.15690465,
            "value": 0
          },
          {
            "ticks": 165588,
            "time": 120.34004407500001,
            "value": -0.484375
          },
          {
            "ticks": 165624,
            "time": 120.36620685000001,
            "value": -0.3125
          },
          {
            "ticks": 165644,
            "time": 120.380741725,
            "value": -0.140625
          },
          {
            "ticks": 165692,
            "time": 120.415625425,
            "value": -0.0625
          },
          {
            "ticks": 165764,
            "time": 120.467950975,
            "value": -0.063232421875
          },
          {
            "ticks": 165816,
            "time": 120.50574165,
            "value": 0
          },
          {
            "ticks": 166068,
            "time": 120.68888107500001,
            "value": -0.484375
          },
          {
            "ticks": 166104,
            "time": 120.71504385,
            "value": -0.3125
          },
          {
            "ticks": 166124,
            "time": 120.729578725,
            "value": -0.140625
          },
          {
            "ticks": 166172,
            "time": 120.764462425,
            "value": -0.0625
          },
          {
            "ticks": 166244,
            "time": 120.816787975,
            "value": -0.063232421875
          },
          {
            "ticks": 166296,
            "time": 120.85457865,
            "value": 0
          },
          {
            "ticks": 166560,
            "time": 121.046439,
            "value": -0.484375
          },
          {
            "ticks": 166596,
            "time": 121.072601775,
            "value": -0.3125
          },
          {
            "ticks": 166616,
            "time": 121.08713665,
            "value": -0.140625
          },
          {
            "ticks": 166664,
            "time": 121.12202035,
            "value": -0.0625
          },
          {
            "ticks": 166736,
            "time": 121.1743459,
            "value": -0.063232421875
          },
          {
            "ticks": 166788,
            "time": 121.21213657500002,
            "value": 0
          },
          {
            "ticks": 166844,
            "time": 121.25283422499999,
            "value": -0.09375
          },
          {
            "ticks": 166900,
            "time": 121.293531875,
            "value": -0.203125
          },
          {
            "ticks": 166980,
            "time": 121.35167137500001,
            "value": -0.359375
          },
          {
            "ticks": 167008,
            "time": 121.37202020000001,
            "value": -0.484375
          },
          {
            "ticks": 167032,
            "time": 121.38946205,
            "value": -0.484375
          },
          {
            "ticks": 167068,
            "time": 121.41562482500001,
            "value": -0.3125
          },
          {
            "ticks": 167088,
            "time": 121.4301597,
            "value": -0.140625
          },
          {
            "ticks": 167136,
            "time": 121.4650434,
            "value": -0.0625
          },
          {
            "ticks": 167208,
            "time": 121.51736895,
            "value": -0.063232421875
          },
          {
            "ticks": 167260,
            "time": 121.555159625,
            "value": 0
          },
          {
            "ticks": 167508,
            "time": 121.73539207500001,
            "value": -0.484375
          },
          {
            "ticks": 167544,
            "time": 121.76155485000001,
            "value": -0.3125
          },
          {
            "ticks": 167564,
            "time": 121.77608972499999,
            "value": -0.140625
          },
          {
            "ticks": 167612,
            "time": 121.810973425,
            "value": -0.0625
          },
          {
            "ticks": 167684,
            "time": 121.86329897499999,
            "value": -0.063232421875
          },
          {
            "ticks": 167736,
            "time": 121.90108965,
            "value": 0
          },
          {
            "ticks": 167988,
            "time": 122.08422907500001,
            "value": -0.484375
          },
          {
            "ticks": 168024,
            "time": 122.11039185000001,
            "value": -0.3125
          },
          {
            "ticks": 168044,
            "time": 122.124926725,
            "value": -0.140625
          },
          {
            "ticks": 168092,
            "time": 122.159810425,
            "value": -0.0625
          },
          {
            "ticks": 168164,
            "time": 122.212135975,
            "value": -0.063232421875
          },
          {
            "ticks": 168216,
            "time": 122.24992664999999,
            "value": 0
          },
          {
            "ticks": 168468,
            "time": 122.43306607500001,
            "value": -0.484375
          },
          {
            "ticks": 168504,
            "time": 122.45922885,
            "value": -0.3125
          },
          {
            "ticks": 168524,
            "time": 122.473763725,
            "value": -0.140625
          },
          {
            "ticks": 168572,
            "time": 122.508647425,
            "value": -0.0625
          },
          {
            "ticks": 168644,
            "time": 122.560972975,
            "value": -0.063232421875
          },
          {
            "ticks": 168696,
            "time": 122.59876365,
            "value": 0
          },
          {
            "ticks": 168948,
            "time": 122.78190307500002,
            "value": -0.484375
          },
          {
            "ticks": 168984,
            "time": 122.80806585,
            "value": -0.3125
          },
          {
            "ticks": 169004,
            "time": 122.82260072499999,
            "value": -0.140625
          },
          {
            "ticks": 169052,
            "time": 122.857484425,
            "value": -0.0625
          },
          {
            "ticks": 169124,
            "time": 122.90980997499999,
            "value": -0.063232421875
          },
          {
            "ticks": 169176,
            "time": 122.94760065,
            "value": 0
          },
          {
            "ticks": 169424,
            "time": 123.12783309999999,
            "value": -0.484375
          },
          {
            "ticks": 169460,
            "time": 123.153995875,
            "value": -0.3125
          },
          {
            "ticks": 169480,
            "time": 123.16853075,
            "value": -0.140625
          },
          {
            "ticks": 169528,
            "time": 123.20341445000001,
            "value": -0.0625
          },
          {
            "ticks": 169600,
            "time": 123.25574,
            "value": -0.063232421875
          },
          {
            "ticks": 169652,
            "time": 123.293530675,
            "value": 0
          },
          {
            "ticks": 169904,
            "time": 123.47667009999999,
            "value": -0.484375
          },
          {
            "ticks": 169940,
            "time": 123.50283287500001,
            "value": -0.3125
          },
          {
            "ticks": 169960,
            "time": 123.51736774999999,
            "value": -0.140625
          },
          {
            "ticks": 170008,
            "time": 123.55225145,
            "value": -0.0625
          },
          {
            "ticks": 170080,
            "time": 123.60457699999999,
            "value": -0.063232421875
          },
          {
            "ticks": 170132,
            "time": 123.642367675,
            "value": 0
          },
          {
            "ticks": 170380,
            "time": 123.822600125,
            "value": -0.484375
          },
          {
            "ticks": 170416,
            "time": 123.84876290000001,
            "value": -0.3125
          },
          {
            "ticks": 170436,
            "time": 123.86329777499999,
            "value": -0.140625
          },
          {
            "ticks": 170484,
            "time": 123.898181475,
            "value": -0.0625
          },
          {
            "ticks": 170556,
            "time": 123.950507025,
            "value": -0.063232421875
          },
          {
            "ticks": 170608,
            "time": 123.9882977,
            "value": 0
          },
          {
            "ticks": 170884,
            "time": 124.188878975,
            "value": -0.484375
          },
          {
            "ticks": 170920,
            "time": 124.21504175,
            "value": -0.3125
          },
          {
            "ticks": 170940,
            "time": 124.229576625,
            "value": -0.140625
          },
          {
            "ticks": 170988,
            "time": 124.26446032500002,
            "value": -0.0625
          },
          {
            "ticks": 171060,
            "time": 124.31678587500001,
            "value": -0.063232421875
          },
          {
            "ticks": 171112,
            "time": 124.35457655,
            "value": 0
          },
          {
            "ticks": 171352,
            "time": 124.52899505,
            "value": -0.484375
          },
          {
            "ticks": 171388,
            "time": 124.55515782500001,
            "value": -0.3125
          },
          {
            "ticks": 171408,
            "time": 124.5696927,
            "value": -0.140625
          },
          {
            "ticks": 171456,
            "time": 124.6045764,
            "value": -0.0625
          },
          {
            "ticks": 171528,
            "time": 124.65690195,
            "value": -0.063232421875
          },
          {
            "ticks": 171580,
            "time": 124.694692625,
            "value": 0
          },
          {
            "ticks": 171844,
            "time": 124.886552975,
            "value": -0.484375
          },
          {
            "ticks": 171880,
            "time": 124.91271574999999,
            "value": -0.3125
          },
          {
            "ticks": 171900,
            "time": 124.927250625,
            "value": -0.140625
          },
          {
            "ticks": 171948,
            "time": 124.96213432500001,
            "value": -0.0625
          },
          {
            "ticks": 172020,
            "time": 125.014459875,
            "value": -0.063232421875
          },
          {
            "ticks": 172072,
            "time": 125.05225055000001,
            "value": 0
          },
          {
            "ticks": 172324,
            "time": 125.235389975,
            "value": -0.484375
          },
          {
            "ticks": 172360,
            "time": 125.26155274999999,
            "value": -0.3125
          },
          {
            "ticks": 172380,
            "time": 125.276087625,
            "value": -0.140625
          },
          {
            "ticks": 172428,
            "time": 125.31097132500001,
            "value": -0.0625
          },
          {
            "ticks": 172500,
            "time": 125.363296875,
            "value": -0.063232421875
          },
          {
            "ticks": 172552,
            "time": 125.40108755000001,
            "value": 0
          },
          {
            "ticks": 172792,
            "time": 125.57550605,
            "value": -0.484375
          },
          {
            "ticks": 172828,
            "time": 125.601668825,
            "value": -0.3125
          },
          {
            "ticks": 172848,
            "time": 125.61620370000001,
            "value": -0.140625
          },
          {
            "ticks": 172896,
            "time": 125.6510874,
            "value": -0.0625
          },
          {
            "ticks": 172968,
            "time": 125.70341295000001,
            "value": -0.063232421875
          },
          {
            "ticks": 173020,
            "time": 125.741203625,
            "value": 0
          },
          {
            "ticks": 173272,
            "time": 125.92434305,
            "value": -0.484375
          },
          {
            "ticks": 173308,
            "time": 125.95050582500001,
            "value": -0.3125
          },
          {
            "ticks": 173328,
            "time": 125.96504070000002,
            "value": -0.140625
          },
          {
            "ticks": 173376,
            "time": 125.9999244,
            "value": -0.0625
          },
          {
            "ticks": 173448,
            "time": 126.05224995000002,
            "value": -0.063232421875
          },
          {
            "ticks": 173500,
            "time": 126.090040625,
            "value": 0
          },
          {
            "ticks": 173752,
            "time": 126.27318005000001,
            "value": -0.484375
          },
          {
            "ticks": 173788,
            "time": 126.29934282500001,
            "value": -0.3125
          },
          {
            "ticks": 173808,
            "time": 126.3138777,
            "value": -0.140625
          },
          {
            "ticks": 173856,
            "time": 126.3487614,
            "value": -0.0625
          },
          {
            "ticks": 173928,
            "time": 126.40108695,
            "value": -0.063232421875
          },
          {
            "ticks": 173980,
            "time": 126.43887762499999,
            "value": 0
          },
          {
            "ticks": 174244,
            "time": 126.630737975,
            "value": -0.484375
          },
          {
            "ticks": 174280,
            "time": 126.65690074999999,
            "value": -0.3125
          },
          {
            "ticks": 174300,
            "time": 126.671435625,
            "value": -0.140625
          },
          {
            "ticks": 174348,
            "time": 126.70631932500001,
            "value": -0.0625
          },
          {
            "ticks": 174420,
            "time": 126.758644875,
            "value": -0.063232421875
          },
          {
            "ticks": 174472,
            "time": 126.79643555000001,
            "value": 0
          },
          {
            "ticks": 174532,
            "time": 126.84004017500001,
            "value": -0.0625
          },
          {
            "ticks": 174560,
            "time": 126.86038900000001,
            "value": -0.125
          },
          {
            "ticks": 174588,
            "time": 126.88073782500001,
            "value": -0.265625
          },
          {
            "ticks": 174636,
            "time": 126.915621525,
            "value": -0.375
          },
          {
            "ticks": 174668,
            "time": 126.93887732499999,
            "value": -0.453125
          },
          {
            "ticks": 174716,
            "time": 126.973761025,
            "value": -0.484375
          },
          {
            "ticks": 174752,
            "time": 126.9999238,
            "value": -0.3125
          },
          {
            "ticks": 174772,
            "time": 127.01445867500001,
            "value": -0.140625
          },
          {
            "ticks": 174820,
            "time": 127.049342375,
            "value": -0.0625
          },
          {
            "ticks": 174892,
            "time": 127.10166792500002,
            "value": -0.063232421875
          },
          {
            "ticks": 174944,
            "time": 127.1394586,
            "value": 0
          },
          {
            "ticks": 175192,
            "time": 127.31969105,
            "value": -0.484375
          },
          {
            "ticks": 175228,
            "time": 127.345853825,
            "value": -0.3125
          },
          {
            "ticks": 175248,
            "time": 127.36038870000002,
            "value": -0.140625
          },
          {
            "ticks": 175296,
            "time": 127.3952724,
            "value": -0.0625
          },
          {
            "ticks": 175368,
            "time": 127.44759795000002,
            "value": -0.063232421875
          },
          {
            "ticks": 175420,
            "time": 127.485388625,
            "value": 0
          },
          {
            "ticks": 175672,
            "time": 127.66852805,
            "value": -0.484375
          },
          {
            "ticks": 175708,
            "time": 127.69469082500001,
            "value": -0.3125
          },
          {
            "ticks": 175728,
            "time": 127.7092257,
            "value": -0.140625
          },
          {
            "ticks": 175776,
            "time": 127.7441094,
            "value": -0.0625
          },
          {
            "ticks": 175848,
            "time": 127.79643495,
            "value": -0.063232421875
          },
          {
            "ticks": 175900,
            "time": 127.834225625,
            "value": 0
          },
          {
            "ticks": 176152,
            "time": 128.01736505,
            "value": -0.484375
          },
          {
            "ticks": 176188,
            "time": 128.043527825,
            "value": -0.3125
          },
          {
            "ticks": 176208,
            "time": 128.05806270000002,
            "value": -0.140625
          },
          {
            "ticks": 176256,
            "time": 128.0929464,
            "value": -0.0625
          },
          {
            "ticks": 176328,
            "time": 128.14527195000002,
            "value": -0.063232421875
          },
          {
            "ticks": 176380,
            "time": 128.183062625,
            "value": 0
          },
          {
            "ticks": 176632,
            "time": 128.36620205,
            "value": -0.484375
          },
          {
            "ticks": 176668,
            "time": 128.39236482500002,
            "value": -0.3125
          },
          {
            "ticks": 176688,
            "time": 128.4068997,
            "value": -0.140625
          },
          {
            "ticks": 176736,
            "time": 128.4417834,
            "value": -0.0625
          },
          {
            "ticks": 176808,
            "time": 128.49410895,
            "value": -0.063232421875
          },
          {
            "ticks": 176860,
            "time": 128.531899625,
            "value": 0
          },
          {
            "ticks": 177108,
            "time": 128.712132075,
            "value": -0.484375
          },
          {
            "ticks": 177144,
            "time": 128.73829485000002,
            "value": -0.3125
          },
          {
            "ticks": 177164,
            "time": 128.752829725,
            "value": -0.140625
          },
          {
            "ticks": 177212,
            "time": 128.787713425,
            "value": -0.0625
          },
          {
            "ticks": 177284,
            "time": 128.840038975,
            "value": -0.063232421875
          },
          {
            "ticks": 177336,
            "time": 128.87782965,
            "value": 0
          },
          {
            "ticks": 177588,
            "time": 129.060969075,
            "value": -0.484375
          },
          {
            "ticks": 177624,
            "time": 129.08713185000002,
            "value": -0.3125
          },
          {
            "ticks": 177644,
            "time": 129.101666725,
            "value": -0.140625
          },
          {
            "ticks": 177692,
            "time": 129.136550425,
            "value": -0.0625
          },
          {
            "ticks": 177764,
            "time": 129.188875975,
            "value": -0.063232421875
          },
          {
            "ticks": 177816,
            "time": 129.22666665,
            "value": 0
          },
          {
            "ticks": 178064,
            "time": 129.4068991,
            "value": -0.484375
          },
          {
            "ticks": 178100,
            "time": 129.43306187500002,
            "value": -0.3125
          },
          {
            "ticks": 178120,
            "time": 129.44759675,
            "value": -0.140625
          },
          {
            "ticks": 178168,
            "time": 129.48248045,
            "value": -0.0625
          },
          {
            "ticks": 178240,
            "time": 129.534806,
            "value": -0.063232421875
          },
          {
            "ticks": 178292,
            "time": 129.572596675,
            "value": 0
          },
          {
            "ticks": 178336,
            "time": 129.60457340000002,
            "value": 0.03125
          },
          {
            "ticks": 178356,
            "time": 129.619108275,
            "value": 0.046875
          },
          {
            "ticks": 178364,
            "time": 129.624922225,
            "value": 0.078125
          },
          {
            "ticks": 178376,
            "time": 129.63364315,
            "value": 0.109375
          },
          {
            "ticks": 178392,
            "time": 129.64527105,
            "value": 0.140625
          },
          {
            "ticks": 178404,
            "time": 129.653991975,
            "value": 0.171875
          },
          {
            "ticks": 178412,
            "time": 129.659805925,
            "value": 0.234375
          },
          {
            "ticks": 178424,
            "time": 129.66852685,
            "value": 0.265625
          },
          {
            "ticks": 178432,
            "time": 129.6743408,
            "value": 0.28125
          },
          {
            "ticks": 178440,
            "time": 129.68015475,
            "value": 0.3125
          },
          {
            "ticks": 178452,
            "time": 129.688875675,
            "value": 0.34375
          },
          {
            "ticks": 178460,
            "time": 129.69468962500002,
            "value": 0.375
          },
          {
            "ticks": 178472,
            "time": 129.70341055,
            "value": 0.40625
          },
          {
            "ticks": 178480,
            "time": 129.7092245,
            "value": 0.4375
          },
          {
            "ticks": 178508,
            "time": 129.729573325,
            "value": 0.78125
          },
          {
            "ticks": 178520,
            "time": 129.73829425,
            "value": 0.875
          },
          {
            "ticks": 178528,
            "time": 129.7441082,
            "value": 0.921875
          },
          {
            "ticks": 178536,
            "time": 129.74992215,
            "value": 0.9998779296875
          },
          {
            "ticks": 178564,
            "time": 129.770270975,
            "value": -0.484375
          },
          {
            "ticks": 178600,
            "time": 129.79643375,
            "value": -0.3125
          },
          {
            "ticks": 178620,
            "time": 129.81096862500002,
            "value": -0.140625
          },
          {
            "ticks": 178668,
            "time": 129.845852325,
            "value": -0.0625
          },
          {
            "ticks": 178740,
            "time": 129.89817787500002,
            "value": -0.063232421875
          },
          {
            "ticks": 178792,
            "time": 129.93596855,
            "value": 0
          },
          {
            "ticks": 179032,
            "time": 130.11038705,
            "value": -0.484375
          },
          {
            "ticks": 179068,
            "time": 130.136549825,
            "value": -0.3125
          },
          {
            "ticks": 179088,
            "time": 130.1510847,
            "value": -0.140625
          },
          {
            "ticks": 179136,
            "time": 130.1859684,
            "value": -0.0625
          },
          {
            "ticks": 179208,
            "time": 130.23829395,
            "value": -0.063232421875
          },
          {
            "ticks": 179260,
            "time": 130.276084625,
            "value": 0
          },
          {
            "ticks": 179524,
            "time": 130.467944975,
            "value": -0.484375
          },
          {
            "ticks": 179560,
            "time": 130.49410774999998,
            "value": -0.3125
          },
          {
            "ticks": 179580,
            "time": 130.508642625,
            "value": -0.140625
          },
          {
            "ticks": 179628,
            "time": 130.54352632500002,
            "value": -0.0625
          },
          {
            "ticks": 179700,
            "time": 130.595851875,
            "value": -0.063232421875
          },
          {
            "ticks": 179752,
            "time": 130.63364255000002,
            "value": 0
          },
          {
            "ticks": 180004,
            "time": 130.816781975,
            "value": -0.484375
          },
          {
            "ticks": 180040,
            "time": 130.84294475,
            "value": -0.3125
          },
          {
            "ticks": 180060,
            "time": 130.857479625,
            "value": -0.140625
          },
          {
            "ticks": 180108,
            "time": 130.89236332500002,
            "value": -0.0625
          },
          {
            "ticks": 180180,
            "time": 130.944688875,
            "value": -0.063232421875
          },
          {
            "ticks": 180232,
            "time": 130.98247955000002,
            "value": 0
          },
          {
            "ticks": 180472,
            "time": 131.15689805,
            "value": -0.484375
          },
          {
            "ticks": 180508,
            "time": 131.183060825,
            "value": -0.3125
          },
          {
            "ticks": 180528,
            "time": 131.19759570000002,
            "value": -0.140625
          },
          {
            "ticks": 180576,
            "time": 131.2324794,
            "value": -0.0625
          },
          {
            "ticks": 180648,
            "time": 131.28480495000002,
            "value": -0.063232421875
          },
          {
            "ticks": 180700,
            "time": 131.322595625,
            "value": 0
          },
          {
            "ticks": 180952,
            "time": 131.50573505,
            "value": -0.484375
          },
          {
            "ticks": 180988,
            "time": 131.53189782500002,
            "value": -0.3125
          },
          {
            "ticks": 181008,
            "time": 131.5464327,
            "value": -0.140625
          },
          {
            "ticks": 181056,
            "time": 131.5813164,
            "value": -0.0625
          },
          {
            "ticks": 181128,
            "time": 131.63364195,
            "value": -0.063232421875
          },
          {
            "ticks": 181180,
            "time": 131.671432625,
            "value": 0
          },
          {
            "ticks": 181432,
            "time": 131.85457205,
            "value": -0.484375
          },
          {
            "ticks": 181468,
            "time": 131.880734825,
            "value": -0.3125
          },
          {
            "ticks": 181488,
            "time": 131.8952697,
            "value": -0.140625
          },
          {
            "ticks": 181536,
            "time": 131.9301534,
            "value": -0.0625
          },
          {
            "ticks": 181608,
            "time": 131.98247895,
            "value": -0.063232421875
          },
          {
            "ticks": 181660,
            "time": 132.020269625,
            "value": 0
          },
          {
            "ticks": 181924,
            "time": 132.212129975,
            "value": -0.484375
          },
          {
            "ticks": 181960,
            "time": 132.23829275,
            "value": -0.3125
          },
          {
            "ticks": 181980,
            "time": 132.252827625,
            "value": -0.140625
          },
          {
            "ticks": 182028,
            "time": 132.287711325,
            "value": -0.0625
          },
          {
            "ticks": 182100,
            "time": 132.340036875,
            "value": -0.063232421875
          },
          {
            "ticks": 182152,
            "time": 132.37782755,
            "value": 0
          },
          {
            "ticks": 182208,
            "time": 132.4185252,
            "value": -0.09375
          },
          {
            "ticks": 182264,
            "time": 132.45922285,
            "value": -0.1875
          },
          {
            "ticks": 182292,
            "time": 132.479571675,
            "value": -0.328125
          },
          {
            "ticks": 182332,
            "time": 132.508641425,
            "value": -0.46875
          },
          {
            "ticks": 182396,
            "time": 132.555153025,
            "value": -0.484375
          },
          {
            "ticks": 182432,
            "time": 132.5813158,
            "value": -0.3125
          },
          {
            "ticks": 182452,
            "time": 132.595850675,
            "value": -0.140625
          },
          {
            "ticks": 182500,
            "time": 132.630734375,
            "value": -0.0625
          },
          {
            "ticks": 182572,
            "time": 132.683059925,
            "value": -0.063232421875
          },
          {
            "ticks": 182624,
            "time": 132.7208506,
            "value": 0
          },
          {
            "ticks": 182872,
            "time": 132.90108305,
            "value": -0.484375
          },
          {
            "ticks": 182908,
            "time": 132.927245825,
            "value": -0.3125
          },
          {
            "ticks": 182928,
            "time": 132.9417807,
            "value": -0.140625
          },
          {
            "ticks": 182976,
            "time": 132.9766644,
            "value": -0.0625
          },
          {
            "ticks": 183048,
            "time": 133.02898995,
            "value": -0.063232421875
          },
          {
            "ticks": 183100,
            "time": 133.066780625,
            "value": 0
          },
          {
            "ticks": 183352,
            "time": 133.24992005000001,
            "value": -0.484375
          },
          {
            "ticks": 183388,
            "time": 133.276082825,
            "value": -0.3125
          },
          {
            "ticks": 183408,
            "time": 133.2906177,
            "value": -0.140625
          },
          {
            "ticks": 183456,
            "time": 133.3255014,
            "value": -0.0625
          },
          {
            "ticks": 183528,
            "time": 133.37782695,
            "value": -0.063232421875
          },
          {
            "ticks": 183580,
            "time": 133.415617625,
            "value": 0
          },
          {
            "ticks": 183832,
            "time": 133.59875705000002,
            "value": -0.484375
          },
          {
            "ticks": 183868,
            "time": 133.624919825,
            "value": -0.3125
          },
          {
            "ticks": 183888,
            "time": 133.63945470000002,
            "value": -0.140625
          },
          {
            "ticks": 183936,
            "time": 133.6743384,
            "value": -0.0625
          },
          {
            "ticks": 184008,
            "time": 133.72666395000002,
            "value": -0.063232421875
          },
          {
            "ticks": 184060,
            "time": 133.76445462499998,
            "value": 0
          },
          {
            "ticks": 184312,
            "time": 133.94759405000002,
            "value": -0.484375
          },
          {
            "ticks": 184348,
            "time": 133.973756825,
            "value": -0.3125
          },
          {
            "ticks": 184368,
            "time": 133.98829170000002,
            "value": -0.140625
          },
          {
            "ticks": 184416,
            "time": 134.02317539999999,
            "value": -0.0625
          },
          {
            "ticks": 184488,
            "time": 134.07550095000002,
            "value": -0.063232421875
          },
          {
            "ticks": 184540,
            "time": 134.113291625,
            "value": 0
          },
          {
            "ticks": 184788,
            "time": 134.29352407500002,
            "value": -0.484375
          },
          {
            "ticks": 184824,
            "time": 134.31968685,
            "value": -0.3125
          },
          {
            "ticks": 184844,
            "time": 134.334221725,
            "value": -0.140625
          },
          {
            "ticks": 184892,
            "time": 134.36910542500001,
            "value": -0.0625
          },
          {
            "ticks": 184964,
            "time": 134.421430975,
            "value": -0.063232421875
          },
          {
            "ticks": 185016,
            "time": 134.45922165,
            "value": 0
          },
          {
            "ticks": 185268,
            "time": 134.64236107500003,
            "value": -0.484375
          },
          {
            "ticks": 185304,
            "time": 134.66852385,
            "value": -0.3125
          },
          {
            "ticks": 185324,
            "time": 134.683058725,
            "value": -0.140625
          },
          {
            "ticks": 185372,
            "time": 134.717942425,
            "value": -0.0625
          },
          {
            "ticks": 185444,
            "time": 134.770267975,
            "value": -0.063232421875
          },
          {
            "ticks": 185496,
            "time": 134.80805865,
            "value": 0
          },
          {
            "ticks": 185744,
            "time": 134.9882911,
            "value": -0.484375
          },
          {
            "ticks": 185780,
            "time": 135.01445387500002,
            "value": -0.3125
          },
          {
            "ticks": 185800,
            "time": 135.02898875,
            "value": -0.140625
          },
          {
            "ticks": 185848,
            "time": 135.06387245,
            "value": -0.0625
          },
          {
            "ticks": 185920,
            "time": 135.116198,
            "value": -0.063232421875
          },
          {
            "ticks": 185972,
            "time": 135.153988675,
            "value": 0
          },
          {
            "ticks": 270732,
            "time": 196.752788925,
            "value": -0.484375
          },
          {
            "ticks": 270768,
            "time": 196.77895170000002,
            "value": -0.3125
          },
          {
            "ticks": 270788,
            "time": 196.793486575,
            "value": -0.140625
          },
          {
            "ticks": 270836,
            "time": 196.828370275,
            "value": -0.0625
          },
          {
            "ticks": 270908,
            "time": 196.880695825,
            "value": -0.063232421875
          },
          {
            "ticks": 270960,
            "time": 196.9184865,
            "value": 0
          },
          {
            "ticks": 271200,
            "time": 197.092905,
            "value": -0.484375
          },
          {
            "ticks": 271236,
            "time": 197.11906777500002,
            "value": -0.3125
          },
          {
            "ticks": 271256,
            "time": 197.13360265,
            "value": -0.140625
          },
          {
            "ticks": 271304,
            "time": 197.16848635000002,
            "value": -0.0625
          },
          {
            "ticks": 271376,
            "time": 197.2208119,
            "value": -0.063232421875
          },
          {
            "ticks": 271428,
            "time": 197.25860257500003,
            "value": 0
          },
          {
            "ticks": 271692,
            "time": 197.450462925,
            "value": -0.484375
          },
          {
            "ticks": 271728,
            "time": 197.4766257,
            "value": -0.3125
          },
          {
            "ticks": 271748,
            "time": 197.491160575,
            "value": -0.140625
          },
          {
            "ticks": 271796,
            "time": 197.526044275,
            "value": -0.0625
          },
          {
            "ticks": 271868,
            "time": 197.578369825,
            "value": -0.063232421875
          },
          {
            "ticks": 271920,
            "time": 197.6161605,
            "value": 0
          },
          {
            "ticks": 272172,
            "time": 197.79929992499999,
            "value": -0.484375
          },
          {
            "ticks": 272208,
            "time": 197.8254627,
            "value": -0.3125
          },
          {
            "ticks": 272228,
            "time": 197.839997575,
            "value": -0.140625
          },
          {
            "ticks": 272276,
            "time": 197.874881275,
            "value": -0.0625
          },
          {
            "ticks": 272348,
            "time": 197.927206825,
            "value": -0.063232421875
          },
          {
            "ticks": 272400,
            "time": 197.9649975,
            "value": 0
          },
          {
            "ticks": 272640,
            "time": 198.139416,
            "value": -0.484375
          },
          {
            "ticks": 272676,
            "time": 198.16557877500003,
            "value": -0.3125
          },
          {
            "ticks": 272696,
            "time": 198.18011365,
            "value": -0.140625
          },
          {
            "ticks": 272744,
            "time": 198.21499735,
            "value": -0.0625
          },
          {
            "ticks": 272816,
            "time": 198.2673229,
            "value": -0.063232421875
          },
          {
            "ticks": 272868,
            "time": 198.305113575,
            "value": 0
          },
          {
            "ticks": 273120,
            "time": 198.48825300000001,
            "value": -0.484375
          },
          {
            "ticks": 273156,
            "time": 198.51441577500003,
            "value": -0.3125
          },
          {
            "ticks": 273176,
            "time": 198.52895065,
            "value": -0.140625
          },
          {
            "ticks": 273224,
            "time": 198.56383435,
            "value": -0.0625
          },
          {
            "ticks": 273296,
            "time": 198.6161599,
            "value": -0.063232421875
          },
          {
            "ticks": 273348,
            "time": 198.653950575,
            "value": 0
          },
          {
            "ticks": 273600,
            "time": 198.83709000000002,
            "value": -0.484375
          },
          {
            "ticks": 273636,
            "time": 198.863252775,
            "value": -0.3125
          },
          {
            "ticks": 273656,
            "time": 198.87778765000002,
            "value": -0.140625
          },
          {
            "ticks": 273704,
            "time": 198.91267135,
            "value": -0.0625
          },
          {
            "ticks": 273776,
            "time": 198.96499690000002,
            "value": -0.063232421875
          },
          {
            "ticks": 273828,
            "time": 199.002787575,
            "value": 0
          },
          {
            "ticks": 274092,
            "time": 199.194647925,
            "value": -0.484375
          },
          {
            "ticks": 274128,
            "time": 199.22081070000002,
            "value": -0.3125
          },
          {
            "ticks": 274148,
            "time": 199.235345575,
            "value": -0.140625
          },
          {
            "ticks": 274196,
            "time": 199.27022927500002,
            "value": -0.0625
          },
          {
            "ticks": 274268,
            "time": 199.322554825,
            "value": -0.063232421875
          },
          {
            "ticks": 274320,
            "time": 199.3603455,
            "value": 0
          },
          {
            "ticks": 274368,
            "time": 199.39522920000002,
            "value": -0.09375
          },
          {
            "ticks": 274436,
            "time": 199.44464777500002,
            "value": -0.234375
          },
          {
            "ticks": 274492,
            "time": 199.48534542500002,
            "value": -0.375
          },
          {
            "ticks": 274524,
            "time": 199.50860122499998,
            "value": -0.484375
          },
          {
            "ticks": 274564,
            "time": 199.537670975,
            "value": -0.484375
          },
          {
            "ticks": 274600,
            "time": 199.56383375000001,
            "value": -0.3125
          },
          {
            "ticks": 274620,
            "time": 199.578368625,
            "value": -0.140625
          },
          {
            "ticks": 274668,
            "time": 199.61325232500002,
            "value": -0.0625
          },
          {
            "ticks": 274740,
            "time": 199.665577875,
            "value": -0.063232421875
          },
          {
            "ticks": 274792,
            "time": 199.70336855000002,
            "value": 0
          },
          {
            "ticks": 275040,
            "time": 199.883601,
            "value": -0.484375
          },
          {
            "ticks": 275076,
            "time": 199.90976377500002,
            "value": -0.3125
          },
          {
            "ticks": 275096,
            "time": 199.92429865,
            "value": -0.140625
          },
          {
            "ticks": 275144,
            "time": 199.95918235000002,
            "value": -0.0625
          },
          {
            "ticks": 275216,
            "time": 200.0115079,
            "value": -0.063232421875
          },
          {
            "ticks": 275268,
            "time": 200.04929857500002,
            "value": 0
          },
          {
            "ticks": 275520,
            "time": 200.232438,
            "value": -0.484375
          },
          {
            "ticks": 275556,
            "time": 200.25860077500002,
            "value": -0.3125
          },
          {
            "ticks": 275576,
            "time": 200.27313565,
            "value": -0.140625
          },
          {
            "ticks": 275624,
            "time": 200.30801935000002,
            "value": -0.0625
          },
          {
            "ticks": 275696,
            "time": 200.3603449,
            "value": -0.063232421875
          },
          {
            "ticks": 275748,
            "time": 200.39813557500003,
            "value": 0
          },
          {
            "ticks": 276000,
            "time": 200.581275,
            "value": -0.484375
          },
          {
            "ticks": 276036,
            "time": 200.60743777500002,
            "value": -0.3125
          },
          {
            "ticks": 276056,
            "time": 200.62197265,
            "value": -0.140625
          },
          {
            "ticks": 276104,
            "time": 200.65685635000003,
            "value": -0.0625
          },
          {
            "ticks": 276176,
            "time": 200.7091819,
            "value": -0.063232421875
          },
          {
            "ticks": 276228,
            "time": 200.746972575,
            "value": 0
          },
          {
            "ticks": 276480,
            "time": 200.930112,
            "value": -0.484375
          },
          {
            "ticks": 276516,
            "time": 200.95627477500003,
            "value": -0.3125
          },
          {
            "ticks": 276536,
            "time": 200.97080965,
            "value": -0.140625
          },
          {
            "ticks": 276584,
            "time": 201.00569335,
            "value": -0.0625
          },
          {
            "ticks": 276656,
            "time": 201.0580189,
            "value": -0.063232421875
          },
          {
            "ticks": 276708,
            "time": 201.095809575,
            "value": 0
          },
          {
            "ticks": 276956,
            "time": 201.276042025,
            "value": -0.484375
          },
          {
            "ticks": 276992,
            "time": 201.30220480000003,
            "value": -0.3125
          },
          {
            "ticks": 277012,
            "time": 201.316739675,
            "value": -0.140625
          },
          {
            "ticks": 277060,
            "time": 201.35162337500003,
            "value": -0.0625
          },
          {
            "ticks": 277132,
            "time": 201.403948925,
            "value": -0.063232421875
          },
          {
            "ticks": 277184,
            "time": 201.4417396,
            "value": 0
          },
          {
            "ticks": 277436,
            "time": 201.624879025,
            "value": -0.484375
          },
          {
            "ticks": 277472,
            "time": 201.65104180000003,
            "value": -0.3125
          },
          {
            "ticks": 277492,
            "time": 201.665576675,
            "value": -0.140625
          },
          {
            "ticks": 277540,
            "time": 201.700460375,
            "value": -0.0625
          },
          {
            "ticks": 277612,
            "time": 201.752785925,
            "value": -0.063232421875
          },
          {
            "ticks": 277664,
            "time": 201.7905766,
            "value": 0
          },
          {
            "ticks": 277912,
            "time": 201.97080905,
            "value": -0.484375
          },
          {
            "ticks": 277948,
            "time": 201.99697182499997,
            "value": -0.3125
          },
          {
            "ticks": 277968,
            "time": 202.0115067,
            "value": -0.140625
          },
          {
            "ticks": 278016,
            "time": 202.0463904,
            "value": -0.0625
          },
          {
            "ticks": 278088,
            "time": 202.09871595,
            "value": -0.063232421875
          },
          {
            "ticks": 278136,
            "time": 202.13359965,
            "value": 0.03125
          },
          {
            "ticks": 278156,
            "time": 202.14813452500002,
            "value": 0.0625
          },
          {
            "ticks": 278164,
            "time": 202.153948475,
            "value": 0.09375
          },
          {
            "ticks": 278176,
            "time": 202.1626694,
            "value": 0.125
          },
          {
            "ticks": 278184,
            "time": 202.16848335,
            "value": 0.15625
          },
          {
            "ticks": 278204,
            "time": 202.183018225,
            "value": 0.21875
          },
          {
            "ticks": 278212,
            "time": 202.18883217500002,
            "value": 0.296875
          },
          {
            "ticks": 278224,
            "time": 202.1975531,
            "value": 0.375
          },
          {
            "ticks": 278232,
            "time": 202.20336705,
            "value": 0.984375
          },
          {
            "ticks": 278244,
            "time": 202.212087975,
            "value": 0.9998779296875
          },
          {
            "ticks": 278400,
            "time": 202.32546,
            "value": -0.484375
          },
          {
            "ticks": 278404,
            "time": 202.328366975,
            "value": 0
          },
          {
            "ticks": 278436,
            "time": 202.351622775,
            "value": -0.3125
          },
          {
            "ticks": 278456,
            "time": 202.36615765000002,
            "value": -0.140625
          },
          {
            "ticks": 278504,
            "time": 202.40104135,
            "value": -0.0625
          },
          {
            "ticks": 278576,
            "time": 202.45336690000002,
            "value": -0.063232421875
          },
          {
            "ticks": 278628,
            "time": 202.49115757500002,
            "value": 0
          },
          {
            "ticks": 278868,
            "time": 202.66557607500002,
            "value": -0.484375
          },
          {
            "ticks": 278904,
            "time": 202.69173884999998,
            "value": -0.3125
          },
          {
            "ticks": 278924,
            "time": 202.70627372500002,
            "value": -0.140625
          },
          {
            "ticks": 278972,
            "time": 202.741157425,
            "value": -0.0625
          },
          {
            "ticks": 279044,
            "time": 202.79348297500002,
            "value": -0.063232421875
          },
          {
            "ticks": 279096,
            "time": 202.83127365,
            "value": 0
          },
          {
            "ticks": 279360,
            "time": 203.023134,
            "value": -0.484375
          },
          {
            "ticks": 279396,
            "time": 203.04929677500002,
            "value": -0.3125
          },
          {
            "ticks": 279416,
            "time": 203.06383165,
            "value": -0.140625
          },
          {
            "ticks": 279464,
            "time": 203.09871535000002,
            "value": -0.0625
          },
          {
            "ticks": 279536,
            "time": 203.1510409,
            "value": -0.063232421875
          },
          {
            "ticks": 279588,
            "time": 203.18883157500002,
            "value": 0
          },
          {
            "ticks": 279840,
            "time": 203.371971,
            "value": -0.484375
          },
          {
            "ticks": 279876,
            "time": 203.39813377500002,
            "value": -0.3125
          },
          {
            "ticks": 279896,
            "time": 203.41266865,
            "value": -0.140625
          },
          {
            "ticks": 279944,
            "time": 203.44755235000002,
            "value": -0.0625
          },
          {
            "ticks": 280016,
            "time": 203.4998779,
            "value": -0.063232421875
          },
          {
            "ticks": 280068,
            "time": 203.53766857500003,
            "value": 0
          },
          {
            "ticks": 280308,
            "time": 203.712087075,
            "value": -0.484375
          },
          {
            "ticks": 280344,
            "time": 203.73824985,
            "value": -0.3125
          },
          {
            "ticks": 280364,
            "time": 203.75278472500003,
            "value": -0.140625
          },
          {
            "ticks": 280412,
            "time": 203.78766842500002,
            "value": -0.0625
          },
          {
            "ticks": 280484,
            "time": 203.83999397500003,
            "value": -0.063232421875
          },
          {
            "ticks": 280536,
            "time": 203.87778465000002,
            "value": 0
          },
          {
            "ticks": 280788,
            "time": 204.060924075,
            "value": -0.484375
          },
          {
            "ticks": 280824,
            "time": 204.08708685,
            "value": -0.3125
          },
          {
            "ticks": 280844,
            "time": 204.10162172500003,
            "value": -0.140625
          },
          {
            "ticks": 280892,
            "time": 204.13650542500002,
            "value": -0.0625
          },
          {
            "ticks": 280964,
            "time": 204.188830975,
            "value": -0.063232421875
          },
          {
            "ticks": 281016,
            "time": 204.22662165000003,
            "value": 0
          },
          {
            "ticks": 281268,
            "time": 204.409761075,
            "value": -0.484375
          },
          {
            "ticks": 281304,
            "time": 204.43592385,
            "value": -0.3125
          },
          {
            "ticks": 281324,
            "time": 204.450458725,
            "value": -0.140625
          },
          {
            "ticks": 281372,
            "time": 204.48534242500003,
            "value": -0.0625
          },
          {
            "ticks": 281444,
            "time": 204.537667975,
            "value": -0.063232421875
          },
          {
            "ticks": 281496,
            "time": 204.57545865000003,
            "value": 0
          },
          {
            "ticks": 281760,
            "time": 204.76731900000001,
            "value": -0.484375
          },
          {
            "ticks": 281796,
            "time": 204.79348177500003,
            "value": -0.3125
          },
          {
            "ticks": 281816,
            "time": 204.80801665,
            "value": -0.140625
          },
          {
            "ticks": 281864,
            "time": 204.84290035,
            "value": -0.0625
          },
          {
            "ticks": 281936,
            "time": 204.8952259,
            "value": -0.063232421875
          },
          {
            "ticks": 281988,
            "time": 204.933016575,
            "value": 0
          },
          {
            "ticks": 282044,
            "time": 204.973714225,
            "value": -0.09375
          },
          {
            "ticks": 282100,
            "time": 205.014411875,
            "value": -0.203125
          },
          {
            "ticks": 282180,
            "time": 205.07255137500002,
            "value": -0.359375
          },
          {
            "ticks": 282208,
            "time": 205.09290019999997,
            "value": -0.484375
          },
          {
            "ticks": 282232,
            "time": 205.11034205,
            "value": -0.484375
          },
          {
            "ticks": 282268,
            "time": 205.13650482499997,
            "value": -0.3125
          },
          {
            "ticks": 282288,
            "time": 205.1510397,
            "value": -0.140625
          },
          {
            "ticks": 282336,
            "time": 205.1859234,
            "value": -0.0625
          },
          {
            "ticks": 282408,
            "time": 205.23824895,
            "value": -0.063232421875
          },
          {
            "ticks": 282460,
            "time": 205.276039625,
            "value": 0
          },
          {
            "ticks": 282708,
            "time": 205.45627207500002,
            "value": -0.484375
          },
          {
            "ticks": 282744,
            "time": 205.48243484999998,
            "value": -0.3125
          },
          {
            "ticks": 282764,
            "time": 205.496969725,
            "value": -0.140625
          },
          {
            "ticks": 282812,
            "time": 205.53185342500004,
            "value": -0.0625
          },
          {
            "ticks": 282884,
            "time": 205.58417897500001,
            "value": -0.063232421875
          },
          {
            "ticks": 282936,
            "time": 205.62196965,
            "value": 0
          },
          {
            "ticks": 283188,
            "time": 205.80510907500002,
            "value": -0.484375
          },
          {
            "ticks": 283224,
            "time": 205.83127184999998,
            "value": -0.3125
          },
          {
            "ticks": 283244,
            "time": 205.84580672500002,
            "value": -0.140625
          },
          {
            "ticks": 283292,
            "time": 205.880690425,
            "value": -0.0625
          },
          {
            "ticks": 283364,
            "time": 205.93301597500002,
            "value": -0.063232421875
          },
          {
            "ticks": 283416,
            "time": 205.97080665000001,
            "value": 0
          },
          {
            "ticks": 283668,
            "time": 206.15394607500002,
            "value": -0.484375
          },
          {
            "ticks": 283704,
            "time": 206.18010884999998,
            "value": -0.3125
          },
          {
            "ticks": 283724,
            "time": 206.19464372500002,
            "value": -0.140625
          },
          {
            "ticks": 283772,
            "time": 206.22952742500001,
            "value": -0.0625
          },
          {
            "ticks": 283844,
            "time": 206.28185297500002,
            "value": -0.063232421875
          },
          {
            "ticks": 283896,
            "time": 206.31964365000002,
            "value": 0
          },
          {
            "ticks": 284148,
            "time": 206.50278307500002,
            "value": -0.484375
          },
          {
            "ticks": 284184,
            "time": 206.52894584999999,
            "value": -0.3125
          },
          {
            "ticks": 284204,
            "time": 206.54348072500002,
            "value": -0.140625
          },
          {
            "ticks": 284252,
            "time": 206.57836442500002,
            "value": -0.0625
          },
          {
            "ticks": 284324,
            "time": 206.63068997500002,
            "value": -0.063232421875
          },
          {
            "ticks": 284376,
            "time": 206.66848065000002,
            "value": 0
          },
          {
            "ticks": 284624,
            "time": 206.84871310000003,
            "value": -0.484375
          },
          {
            "ticks": 284660,
            "time": 206.874875875,
            "value": -0.3125
          },
          {
            "ticks": 284680,
            "time": 206.88941075000002,
            "value": -0.140625
          },
          {
            "ticks": 284728,
            "time": 206.92429445,
            "value": -0.0625
          },
          {
            "ticks": 284800,
            "time": 206.97662000000003,
            "value": -0.063232421875
          },
          {
            "ticks": 284852,
            "time": 207.01441067500002,
            "value": 0
          },
          {
            "ticks": 285104,
            "time": 207.19755010000003,
            "value": -0.484375
          },
          {
            "ticks": 285140,
            "time": 207.223712875,
            "value": -0.3125
          },
          {
            "ticks": 285160,
            "time": 207.23824775000003,
            "value": -0.140625
          },
          {
            "ticks": 285208,
            "time": 207.27313145,
            "value": -0.0625
          },
          {
            "ticks": 285280,
            "time": 207.32545700000003,
            "value": -0.063232421875
          },
          {
            "ticks": 285332,
            "time": 207.36324767500003,
            "value": 0
          },
          {
            "ticks": 285580,
            "time": 207.54348012500003,
            "value": -0.484375
          },
          {
            "ticks": 285616,
            "time": 207.5696429,
            "value": -0.3125
          },
          {
            "ticks": 285636,
            "time": 207.58417777500003,
            "value": -0.140625
          },
          {
            "ticks": 285684,
            "time": 207.619061475,
            "value": -0.0625
          },
          {
            "ticks": 285756,
            "time": 207.67138702500003,
            "value": -0.063232421875
          },
          {
            "ticks": 285808,
            "time": 207.7091777,
            "value": 0
          },
          {
            "ticks": 286084,
            "time": 207.909758975,
            "value": -0.484375
          },
          {
            "ticks": 286120,
            "time": 207.93592175,
            "value": -0.3125
          },
          {
            "ticks": 286140,
            "time": 207.95045662500002,
            "value": -0.140625
          },
          {
            "ticks": 286188,
            "time": 207.985340325,
            "value": -0.0625
          },
          {
            "ticks": 286260,
            "time": 208.03766587500002,
            "value": -0.063232421875
          },
          {
            "ticks": 286312,
            "time": 208.07545655,
            "value": 0
          },
          {
            "ticks": 286552,
            "time": 208.24987505,
            "value": -0.484375
          },
          {
            "ticks": 286588,
            "time": 208.27603782499997,
            "value": -0.3125
          },
          {
            "ticks": 286608,
            "time": 208.2905727,
            "value": -0.140625
          },
          {
            "ticks": 286656,
            "time": 208.3254564,
            "value": -0.0625
          },
          {
            "ticks": 286728,
            "time": 208.37778195,
            "value": -0.063232421875
          },
          {
            "ticks": 286780,
            "time": 208.415572625,
            "value": 0
          },
          {
            "ticks": 287044,
            "time": 208.607432975,
            "value": -0.484375
          },
          {
            "ticks": 287080,
            "time": 208.63359575,
            "value": -0.3125
          },
          {
            "ticks": 287100,
            "time": 208.648130625,
            "value": -0.140625
          },
          {
            "ticks": 287148,
            "time": 208.68301432500002,
            "value": -0.0625
          },
          {
            "ticks": 287220,
            "time": 208.735339875,
            "value": -0.063232421875
          },
          {
            "ticks": 287272,
            "time": 208.77313055000002,
            "value": 0
          },
          {
            "ticks": 287524,
            "time": 208.956269975,
            "value": -0.484375
          },
          {
            "ticks": 287560,
            "time": 208.98243275000002,
            "value": -0.3125
          },
          {
            "ticks": 287580,
            "time": 208.996967625,
            "value": -0.140625
          },
          {
            "ticks": 287628,
            "time": 209.03185132500002,
            "value": -0.0625
          },
          {
            "ticks": 287700,
            "time": 209.084176875,
            "value": -0.063232421875
          },
          {
            "ticks": 287752,
            "time": 209.12196755000002,
            "value": 0
          },
          {
            "ticks": 287992,
            "time": 209.29638605000002,
            "value": -0.484375
          },
          {
            "ticks": 288028,
            "time": 209.32254882499998,
            "value": -0.3125
          },
          {
            "ticks": 288048,
            "time": 209.33708370000002,
            "value": -0.140625
          },
          {
            "ticks": 288096,
            "time": 209.37196740000002,
            "value": -0.0625
          },
          {
            "ticks": 288168,
            "time": 209.42429295000002,
            "value": -0.063232421875
          },
          {
            "ticks": 288220,
            "time": 209.46208362500002,
            "value": 0
          },
          {
            "ticks": 288472,
            "time": 209.64522305,
            "value": -0.484375
          },
          {
            "ticks": 288508,
            "time": 209.671385825,
            "value": -0.3125
          },
          {
            "ticks": 288528,
            "time": 209.68592070000003,
            "value": -0.140625
          },
          {
            "ticks": 288576,
            "time": 209.72080440000002,
            "value": -0.0625
          },
          {
            "ticks": 288648,
            "time": 209.77312995000003,
            "value": -0.063232421875
          },
          {
            "ticks": 288700,
            "time": 209.81092062500002,
            "value": 0
          },
          {
            "ticks": 288952,
            "time": 209.99406005,
            "value": -0.484375
          },
          {
            "ticks": 288988,
            "time": 210.020222825,
            "value": -0.3125
          },
          {
            "ticks": 289008,
            "time": 210.0347577,
            "value": -0.140625
          },
          {
            "ticks": 289056,
            "time": 210.06964140000002,
            "value": -0.0625
          },
          {
            "ticks": 289128,
            "time": 210.12196695,
            "value": -0.063232421875
          },
          {
            "ticks": 289180,
            "time": 210.15975762500003,
            "value": 0
          },
          {
            "ticks": 289444,
            "time": 210.351617975,
            "value": -0.484375
          },
          {
            "ticks": 289480,
            "time": 210.37778075000003,
            "value": -0.3125
          },
          {
            "ticks": 289500,
            "time": 210.392315625,
            "value": -0.140625
          },
          {
            "ticks": 289548,
            "time": 210.427199325,
            "value": -0.0625
          },
          {
            "ticks": 289620,
            "time": 210.479524875,
            "value": -0.063232421875
          },
          {
            "ticks": 289672,
            "time": 210.51731555,
            "value": 0
          },
          {
            "ticks": 289732,
            "time": 210.560920175,
            "value": -0.0625
          },
          {
            "ticks": 289760,
            "time": 210.581269,
            "value": -0.125
          },
          {
            "ticks": 289788,
            "time": 210.601617825,
            "value": -0.265625
          },
          {
            "ticks": 289836,
            "time": 210.63650152500003,
            "value": -0.375
          },
          {
            "ticks": 289868,
            "time": 210.659757325,
            "value": -0.453125
          },
          {
            "ticks": 289916,
            "time": 210.694641025,
            "value": -0.484375
          },
          {
            "ticks": 289952,
            "time": 210.72080380000003,
            "value": -0.3125
          },
          {
            "ticks": 289972,
            "time": 210.735338675,
            "value": -0.140625
          },
          {
            "ticks": 290020,
            "time": 210.77022237500003,
            "value": -0.0625
          },
          {
            "ticks": 290092,
            "time": 210.822547925,
            "value": -0.063232421875
          },
          {
            "ticks": 290144,
            "time": 210.8603386,
            "value": 0
          },
          {
            "ticks": 290392,
            "time": 211.04057105,
            "value": -0.484375
          },
          {
            "ticks": 290428,
            "time": 211.066733825,
            "value": -0.3125
          },
          {
            "ticks": 290448,
            "time": 211.0812687,
            "value": -0.140625
          },
          {
            "ticks": 290496,
            "time": 211.11615240000003,
            "value": -0.0625
          },
          {
            "ticks": 290568,
            "time": 211.16847795,
            "value": -0.063232421875
          },
          {
            "ticks": 290620,
            "time": 211.206268625,
            "value": 0
          },
          {
            "ticks": 290872,
            "time": 211.38940805000001,
            "value": -0.484375
          },
          {
            "ticks": 290908,
            "time": 211.41557082499997,
            "value": -0.3125
          },
          {
            "ticks": 290928,
            "time": 211.4301057,
            "value": -0.140625
          },
          {
            "ticks": 290976,
            "time": 211.4649894,
            "value": -0.0625
          },
          {
            "ticks": 291048,
            "time": 211.51731495,
            "value": -0.063232421875
          },
          {
            "ticks": 291100,
            "time": 211.555105625,
            "value": 0
          },
          {
            "ticks": 291352,
            "time": 211.73824505000002,
            "value": -0.484375
          },
          {
            "ticks": 291388,
            "time": 211.76440782499998,
            "value": -0.3125
          },
          {
            "ticks": 291408,
            "time": 211.77894270000002,
            "value": -0.140625
          },
          {
            "ticks": 291456,
            "time": 211.8138264,
            "value": -0.0625
          },
          {
            "ticks": 291528,
            "time": 211.86615195000002,
            "value": -0.063232421875
          },
          {
            "ticks": 291580,
            "time": 211.903942625,
            "value": 0
          },
          {
            "ticks": 291832,
            "time": 212.08708205000002,
            "value": -0.484375
          },
          {
            "ticks": 291868,
            "time": 212.11324482499998,
            "value": -0.3125
          },
          {
            "ticks": 291888,
            "time": 212.12777970000002,
            "value": -0.140625
          },
          {
            "ticks": 291936,
            "time": 212.1626634,
            "value": -0.0625
          },
          {
            "ticks": 292008,
            "time": 212.21498895000002,
            "value": -0.063232421875
          },
          {
            "ticks": 292060,
            "time": 212.25277962500002,
            "value": 0
          },
          {
            "ticks": 292308,
            "time": 212.43301207500002,
            "value": -0.484375
          },
          {
            "ticks": 292344,
            "time": 212.45917484999998,
            "value": -0.3125
          },
          {
            "ticks": 292364,
            "time": 212.47370972500002,
            "value": -0.140625
          },
          {
            "ticks": 292412,
            "time": 212.50859342500002,
            "value": -0.0625
          },
          {
            "ticks": 292484,
            "time": 212.56091897500002,
            "value": -0.063232421875
          },
          {
            "ticks": 292536,
            "time": 212.59870965000002,
            "value": 0
          },
          {
            "ticks": 292788,
            "time": 212.78184907500003,
            "value": -0.484375
          },
          {
            "ticks": 292824,
            "time": 212.80801184999999,
            "value": -0.3125
          },
          {
            "ticks": 292844,
            "time": 212.82254672500002,
            "value": -0.140625
          },
          {
            "ticks": 292892,
            "time": 212.85743042500002,
            "value": -0.0625
          },
          {
            "ticks": 292964,
            "time": 212.90975597500002,
            "value": -0.063232421875
          },
          {
            "ticks": 293016,
            "time": 212.94754665000002,
            "value": 0
          },
          {
            "ticks": 293264,
            "time": 213.12777910000003,
            "value": -0.484375
          },
          {
            "ticks": 293300,
            "time": 213.153941875,
            "value": -0.3125
          },
          {
            "ticks": 293320,
            "time": 213.16847675000002,
            "value": -0.140625
          },
          {
            "ticks": 293368,
            "time": 213.20336045,
            "value": -0.0625
          },
          {
            "ticks": 293440,
            "time": 213.25568600000003,
            "value": -0.063232421875
          },
          {
            "ticks": 293492,
            "time": 213.29347667500002,
            "value": 0
          },
          {
            "ticks": 293536,
            "time": 213.3254534,
            "value": 0.03125
          },
          {
            "ticks": 293556,
            "time": 213.33998827500002,
            "value": 0.046875
          },
          {
            "ticks": 293564,
            "time": 213.34580222500003,
            "value": 0.078125
          },
          {
            "ticks": 293576,
            "time": 213.35452315,
            "value": 0.109375
          },
          {
            "ticks": 293592,
            "time": 213.36615104999998,
            "value": 0.140625
          },
          {
            "ticks": 293604,
            "time": 213.374871975,
            "value": 0.171875
          },
          {
            "ticks": 293612,
            "time": 213.38068592500002,
            "value": 0.234375
          },
          {
            "ticks": 293624,
            "time": 213.38940685000003,
            "value": 0.265625
          },
          {
            "ticks": 293632,
            "time": 213.3952208,
            "value": 0.28125
          },
          {
            "ticks": 293640,
            "time": 213.40103475,
            "value": 0.3125
          },
          {
            "ticks": 293652,
            "time": 213.40975567499999,
            "value": 0.34375
          },
          {
            "ticks": 293660,
            "time": 213.415569625,
            "value": 0.375
          },
          {
            "ticks": 293672,
            "time": 213.42429055000002,
            "value": 0.40625
          },
          {
            "ticks": 293680,
            "time": 213.43010450000003,
            "value": 0.4375
          },
          {
            "ticks": 293708,
            "time": 213.450453325,
            "value": 0.78125
          },
          {
            "ticks": 293720,
            "time": 213.45917425,
            "value": 0.875
          },
          {
            "ticks": 293728,
            "time": 213.4649882,
            "value": 0.921875
          },
          {
            "ticks": 293736,
            "time": 213.47080215000003,
            "value": 0.9998779296875
          },
          {
            "ticks": 293764,
            "time": 213.491150975,
            "value": -0.484375
          },
          {
            "ticks": 293800,
            "time": 213.51731375000003,
            "value": -0.3125
          },
          {
            "ticks": 293820,
            "time": 213.531848625,
            "value": -0.140625
          },
          {
            "ticks": 293868,
            "time": 213.566732325,
            "value": -0.0625
          },
          {
            "ticks": 293940,
            "time": 213.619057875,
            "value": -0.063232421875
          },
          {
            "ticks": 293992,
            "time": 213.65684855,
            "value": 0
          },
          {
            "ticks": 294232,
            "time": 213.83126705,
            "value": -0.484375
          },
          {
            "ticks": 294268,
            "time": 213.857429825,
            "value": -0.3125
          },
          {
            "ticks": 294288,
            "time": 213.8719647,
            "value": -0.140625
          },
          {
            "ticks": 294336,
            "time": 213.90684840000003,
            "value": -0.0625
          },
          {
            "ticks": 294408,
            "time": 213.95917395,
            "value": -0.063232421875
          },
          {
            "ticks": 294460,
            "time": 213.99696462500003,
            "value": 0
          },
          {
            "ticks": 294724,
            "time": 214.188824975,
            "value": -0.484375
          },
          {
            "ticks": 294760,
            "time": 214.21498775,
            "value": -0.3125
          },
          {
            "ticks": 294780,
            "time": 214.22952262500002,
            "value": -0.140625
          },
          {
            "ticks": 294828,
            "time": 214.264406325,
            "value": -0.0625
          },
          {
            "ticks": 294900,
            "time": 214.31673187500002,
            "value": -0.063232421875
          },
          {
            "ticks": 294952,
            "time": 214.35452255,
            "value": 0
          },
          {
            "ticks": 295204,
            "time": 214.537661975,
            "value": -0.484375
          },
          {
            "ticks": 295240,
            "time": 214.56382475,
            "value": -0.3125
          },
          {
            "ticks": 295260,
            "time": 214.57835962500002,
            "value": -0.140625
          },
          {
            "ticks": 295308,
            "time": 214.613243325,
            "value": -0.0625
          },
          {
            "ticks": 295380,
            "time": 214.665568875,
            "value": -0.063232421875
          },
          {
            "ticks": 295432,
            "time": 214.70335955000002,
            "value": 0
          },
          {
            "ticks": 295672,
            "time": 214.87777805000002,
            "value": -0.484375
          },
          {
            "ticks": 295708,
            "time": 214.90394082499998,
            "value": -0.3125
          },
          {
            "ticks": 295728,
            "time": 214.91847570000002,
            "value": -0.140625
          },
          {
            "ticks": 295776,
            "time": 214.9533594,
            "value": -0.0625
          },
          {
            "ticks": 295848,
            "time": 215.00568495000002,
            "value": -0.063232421875
          },
          {
            "ticks": 295900,
            "time": 215.043475625,
            "value": 0
          },
          {
            "ticks": 296152,
            "time": 215.22661505000002,
            "value": -0.484375
          },
          {
            "ticks": 296188,
            "time": 215.25277782499998,
            "value": -0.3125
          },
          {
            "ticks": 296208,
            "time": 215.26731270000002,
            "value": -0.140625
          },
          {
            "ticks": 296256,
            "time": 215.3021964,
            "value": -0.0625
          },
          {
            "ticks": 296328,
            "time": 215.35452195000002,
            "value": -0.063232421875
          },
          {
            "ticks": 296380,
            "time": 215.39231262500002,
            "value": 0
          },
          {
            "ticks": 296632,
            "time": 215.57545205000002,
            "value": -0.484375
          },
          {
            "ticks": 296668,
            "time": 215.60161482499998,
            "value": -0.3125
          },
          {
            "ticks": 296688,
            "time": 215.61614970000002,
            "value": -0.140625
          },
          {
            "ticks": 296736,
            "time": 215.65103340000002,
            "value": -0.0625
          },
          {
            "ticks": 296808,
            "time": 215.70335895000002,
            "value": -0.063232421875
          },
          {
            "ticks": 296860,
            "time": 215.74114962500002,
            "value": 0
          },
          {
            "ticks": 297124,
            "time": 215.933009975,
            "value": -0.484375
          },
          {
            "ticks": 297160,
            "time": 215.95917275000002,
            "value": -0.3125
          },
          {
            "ticks": 297180,
            "time": 215.973707625,
            "value": -0.140625
          },
          {
            "ticks": 297228,
            "time": 216.00859132500003,
            "value": -0.0625
          },
          {
            "ticks": 297300,
            "time": 216.060916875,
            "value": -0.063232421875
          },
          {
            "ticks": 297352,
            "time": 216.09870755,
            "value": 0
          },
          {
            "ticks": 297408,
            "time": 216.13940520000003,
            "value": -0.09375
          },
          {
            "ticks": 297464,
            "time": 216.18010285000003,
            "value": -0.1875
          },
          {
            "ticks": 297492,
            "time": 216.200451675,
            "value": -0.328125
          },
          {
            "ticks": 297532,
            "time": 216.229521425,
            "value": -0.46875
          },
          {
            "ticks": 297596,
            "time": 216.276033025,
            "value": -0.484375
          },
          {
            "ticks": 297632,
            "time": 216.30219580000002,
            "value": -0.3125
          },
          {
            "ticks": 297652,
            "time": 216.316730675,
            "value": -0.140625
          },
          {
            "ticks": 297700,
            "time": 216.35161437500003,
            "value": -0.0625
          },
          {
            "ticks": 297772,
            "time": 216.403939925,
            "value": -0.063232421875
          },
          {
            "ticks": 297824,
            "time": 216.44173060000003,
            "value": 0
          },
          {
            "ticks": 298072,
            "time": 216.62196305,
            "value": -0.484375
          },
          {
            "ticks": 298108,
            "time": 216.648125825,
            "value": -0.3125
          },
          {
            "ticks": 298128,
            "time": 216.6626607,
            "value": -0.140625
          },
          {
            "ticks": 298176,
            "time": 216.69754440000003,
            "value": -0.0625
          },
          {
            "ticks": 298248,
            "time": 216.74986995,
            "value": -0.063232421875
          },
          {
            "ticks": 298300,
            "time": 216.78766062500003,
            "value": 0
          },
          {
            "ticks": 298552,
            "time": 216.97080005,
            "value": -0.484375
          },
          {
            "ticks": 298588,
            "time": 216.996962825,
            "value": -0.3125
          },
          {
            "ticks": 298608,
            "time": 217.0114977,
            "value": -0.140625
          },
          {
            "ticks": 298656,
            "time": 217.04638140000003,
            "value": -0.0625
          },
          {
            "ticks": 298728,
            "time": 217.09870695,
            "value": -0.063232421875
          },
          {
            "ticks": 298780,
            "time": 217.13649762500003,
            "value": 0
          },
          {
            "ticks": 299032,
            "time": 217.31963705,
            "value": -0.484375
          },
          {
            "ticks": 299068,
            "time": 217.345799825,
            "value": -0.3125
          },
          {
            "ticks": 299088,
            "time": 217.3603347,
            "value": -0.140625
          },
          {
            "ticks": 299136,
            "time": 217.39521840000003,
            "value": -0.0625
          },
          {
            "ticks": 299208,
            "time": 217.44754395,
            "value": -0.063232421875
          },
          {
            "ticks": 299260,
            "time": 217.485334625,
            "value": 0
          },
          {
            "ticks": 299512,
            "time": 217.66847405000001,
            "value": -0.484375
          },
          {
            "ticks": 299548,
            "time": 217.69463682499998,
            "value": -0.3125
          },
          {
            "ticks": 299568,
            "time": 217.7091717,
            "value": -0.140625
          },
          {
            "ticks": 299616,
            "time": 217.7440554,
            "value": -0.0625
          },
          {
            "ticks": 299688,
            "time": 217.79638095,
            "value": -0.063232421875
          },
          {
            "ticks": 299740,
            "time": 217.834171625,
            "value": 0
          },
          {
            "ticks": 299988,
            "time": 218.01440407500002,
            "value": -0.484375
          },
          {
            "ticks": 300024,
            "time": 218.04056684999998,
            "value": -0.3125
          },
          {
            "ticks": 300044,
            "time": 218.05510172500001,
            "value": -0.140625
          },
          {
            "ticks": 300092,
            "time": 218.08998542500004,
            "value": -0.0625
          },
          {
            "ticks": 300164,
            "time": 218.14231097500002,
            "value": -0.063232421875
          },
          {
            "ticks": 300216,
            "time": 218.18010165,
            "value": 0
          },
          {
            "ticks": 300468,
            "time": 218.36324107500002,
            "value": -0.484375
          },
          {
            "ticks": 300504,
            "time": 218.38940384999998,
            "value": -0.3125
          },
          {
            "ticks": 300524,
            "time": 218.40393872500002,
            "value": -0.140625
          },
          {
            "ticks": 300572,
            "time": 218.438822425,
            "value": -0.0625
          },
          {
            "ticks": 300644,
            "time": 218.49114797500002,
            "value": -0.063232421875
          },
          {
            "ticks": 300696,
            "time": 218.52893865000001,
            "value": 0
          },
          {
            "ticks": 300944,
            "time": 218.70917110000002,
            "value": -0.484375
          },
          {
            "ticks": 300980,
            "time": 218.73533387499998,
            "value": -0.3125
          },
          {
            "ticks": 301000,
            "time": 218.74986875000002,
            "value": -0.140625
          },
          {
            "ticks": 301048,
            "time": 218.78475244999998,
            "value": -0.0625
          },
          {
            "ticks": 301120,
            "time": 218.83707800000002,
            "value": -0.063232421875
          },
          {
            "ticks": 301172,
            "time": 218.87486867500002,
            "value": 0
          },
          {
            "ticks": 301456,
            "time": 219.08126389999998,
            "value": -0.484375
          },
          {
            "ticks": 301492,
            "time": 219.107426675,
            "value": -0.3125
          },
          {
            "ticks": 301512,
            "time": 219.12196155,
            "value": -0.140625
          },
          {
            "ticks": 301560,
            "time": 219.15684525,
            "value": -0.0625
          },
          {
            "ticks": 301632,
            "time": 219.2091708,
            "value": -0.063232421875
          },
          {
            "ticks": 301684,
            "time": 219.246961475,
            "value": 0
          },
          {
            "ticks": 301924,
            "time": 219.421379975,
            "value": -0.484375
          },
          {
            "ticks": 301960,
            "time": 219.44754275000003,
            "value": -0.3125
          },
          {
            "ticks": 301980,
            "time": 219.462077625,
            "value": -0.140625
          },
          {
            "ticks": 302028,
            "time": 219.496961325,
            "value": -0.0625
          },
          {
            "ticks": 302100,
            "time": 219.549286875,
            "value": -0.063232421875
          },
          {
            "ticks": 302152,
            "time": 219.58707755,
            "value": 0
          },
          {
            "ticks": 302416,
            "time": 219.7789379,
            "value": -0.484375
          },
          {
            "ticks": 302452,
            "time": 219.805100675,
            "value": -0.3125
          },
          {
            "ticks": 302472,
            "time": 219.81963555,
            "value": -0.140625
          },
          {
            "ticks": 302520,
            "time": 219.85451925,
            "value": -0.0625
          },
          {
            "ticks": 302592,
            "time": 219.9068448,
            "value": -0.063232421875
          },
          {
            "ticks": 302644,
            "time": 219.944635475,
            "value": 0
          },
          {
            "ticks": 302896,
            "time": 220.1277749,
            "value": -0.484375
          },
          {
            "ticks": 302932,
            "time": 220.153937675,
            "value": -0.3125
          },
          {
            "ticks": 302952,
            "time": 220.16847255,
            "value": -0.140625
          },
          {
            "ticks": 303000,
            "time": 220.20335625,
            "value": -0.0625
          },
          {
            "ticks": 303072,
            "time": 220.2556818,
            "value": -0.063232421875
          },
          {
            "ticks": 303124,
            "time": 220.29347247500002,
            "value": 0
          },
          {
            "ticks": 303364,
            "time": 220.467890975,
            "value": -0.484375
          },
          {
            "ticks": 303400,
            "time": 220.49405375,
            "value": -0.3125
          },
          {
            "ticks": 303420,
            "time": 220.50858862500002,
            "value": -0.140625
          },
          {
            "ticks": 303468,
            "time": 220.543472325,
            "value": -0.0625
          },
          {
            "ticks": 303540,
            "time": 220.59579787500002,
            "value": -0.063232421875
          },
          {
            "ticks": 303592,
            "time": 220.63358855,
            "value": 0
          },
          {
            "ticks": 303844,
            "time": 220.816727975,
            "value": -0.484375
          },
          {
            "ticks": 303880,
            "time": 220.84289075,
            "value": -0.3125
          },
          {
            "ticks": 303900,
            "time": 220.85742562500002,
            "value": -0.140625
          },
          {
            "ticks": 303948,
            "time": 220.892309325,
            "value": -0.0625
          },
          {
            "ticks": 304020,
            "time": 220.944634875,
            "value": -0.063232421875
          },
          {
            "ticks": 304072,
            "time": 220.98242555000002,
            "value": 0
          },
          {
            "ticks": 304324,
            "time": 221.165564975,
            "value": -0.484375
          },
          {
            "ticks": 304360,
            "time": 221.19172775,
            "value": -0.3125
          },
          {
            "ticks": 304380,
            "time": 221.206262625,
            "value": -0.140625
          },
          {
            "ticks": 304428,
            "time": 221.24114632500002,
            "value": -0.0625
          },
          {
            "ticks": 304500,
            "time": 221.293471875,
            "value": -0.063232421875
          },
          {
            "ticks": 304552,
            "time": 221.33126255000002,
            "value": 0
          },
          {
            "ticks": 304816,
            "time": 221.5231229,
            "value": -0.484375
          },
          {
            "ticks": 304852,
            "time": 221.54928567500002,
            "value": -0.3125
          },
          {
            "ticks": 304872,
            "time": 221.56382055,
            "value": -0.140625
          },
          {
            "ticks": 304920,
            "time": 221.59870425,
            "value": -0.0625
          },
          {
            "ticks": 304992,
            "time": 221.6510298,
            "value": -0.063232421875
          },
          {
            "ticks": 305044,
            "time": 221.688820475,
            "value": 0
          },
          {
            "ticks": 305092,
            "time": 221.72370417500002,
            "value": -0.09375
          },
          {
            "ticks": 305160,
            "time": 221.77312275,
            "value": -0.234375
          },
          {
            "ticks": 305216,
            "time": 221.8138204,
            "value": -0.375
          },
          {
            "ticks": 305248,
            "time": 221.83707619999998,
            "value": -0.484375
          },
          {
            "ticks": 305288,
            "time": 221.86614595,
            "value": -0.484375
          },
          {
            "ticks": 305324,
            "time": 221.89230872500002,
            "value": -0.3125
          },
          {
            "ticks": 305344,
            "time": 221.9068436,
            "value": -0.140625
          },
          {
            "ticks": 305392,
            "time": 221.9417273,
            "value": -0.0625
          },
          {
            "ticks": 305464,
            "time": 221.99405285,
            "value": -0.063232421875
          },
          {
            "ticks": 305516,
            "time": 222.031843525,
            "value": 0
          },
          {
            "ticks": 305764,
            "time": 222.212075975,
            "value": -0.484375
          },
          {
            "ticks": 305800,
            "time": 222.23823875000002,
            "value": -0.3125
          },
          {
            "ticks": 305820,
            "time": 222.252773625,
            "value": -0.140625
          },
          {
            "ticks": 305868,
            "time": 222.28765732500003,
            "value": -0.0625
          },
          {
            "ticks": 305940,
            "time": 222.339982875,
            "value": -0.063232421875
          },
          {
            "ticks": 305992,
            "time": 222.37777355,
            "value": 0
          },
          {
            "ticks": 306244,
            "time": 222.560912975,
            "value": -0.484375
          },
          {
            "ticks": 306280,
            "time": 222.58707575000003,
            "value": -0.3125
          },
          {
            "ticks": 306300,
            "time": 222.601610625,
            "value": -0.140625
          },
          {
            "ticks": 306348,
            "time": 222.636494325,
            "value": -0.0625
          },
          {
            "ticks": 306420,
            "time": 222.688819875,
            "value": -0.063232421875
          },
          {
            "ticks": 306472,
            "time": 222.72661055,
            "value": 0
          },
          {
            "ticks": 306724,
            "time": 222.909749975,
            "value": -0.484375
          },
          {
            "ticks": 306760,
            "time": 222.93591275000003,
            "value": -0.3125
          },
          {
            "ticks": 306780,
            "time": 222.950447625,
            "value": -0.140625
          },
          {
            "ticks": 306828,
            "time": 222.985331325,
            "value": -0.0625
          },
          {
            "ticks": 306900,
            "time": 223.037656875,
            "value": -0.063232421875
          },
          {
            "ticks": 306952,
            "time": 223.07544755,
            "value": 0
          },
          {
            "ticks": 307204,
            "time": 223.25858697500001,
            "value": -0.484375
          },
          {
            "ticks": 307240,
            "time": 223.28474975000003,
            "value": -0.3125
          },
          {
            "ticks": 307260,
            "time": 223.299284625,
            "value": -0.140625
          },
          {
            "ticks": 307308,
            "time": 223.334168325,
            "value": -0.0625
          },
          {
            "ticks": 307380,
            "time": 223.386493875,
            "value": -0.063232421875
          },
          {
            "ticks": 307432,
            "time": 223.42428455,
            "value": 0
          },
          {
            "ticks": 307680,
            "time": 223.60451700000002,
            "value": -0.484375
          },
          {
            "ticks": 307716,
            "time": 223.63067977500003,
            "value": -0.3125
          },
          {
            "ticks": 307736,
            "time": 223.64521465,
            "value": -0.140625
          },
          {
            "ticks": 307784,
            "time": 223.68009835,
            "value": -0.0625
          },
          {
            "ticks": 307856,
            "time": 223.73242390000001,
            "value": -0.063232421875
          },
          {
            "ticks": 307908,
            "time": 223.770214575,
            "value": 0
          },
          {
            "ticks": 308160,
            "time": 223.95335400000002,
            "value": -0.484375
          },
          {
            "ticks": 308196,
            "time": 223.979516775,
            "value": -0.3125
          },
          {
            "ticks": 308216,
            "time": 223.99405165000002,
            "value": -0.140625
          },
          {
            "ticks": 308264,
            "time": 224.02893535,
            "value": -0.0625
          },
          {
            "ticks": 308336,
            "time": 224.08126090000002,
            "value": -0.063232421875
          },
          {
            "ticks": 308388,
            "time": 224.11905157500001,
            "value": 0
          },
          {
            "ticks": 308636,
            "time": 224.29928402500002,
            "value": -0.484375
          },
          {
            "ticks": 308672,
            "time": 224.32544680000004,
            "value": -0.3125
          },
          {
            "ticks": 308692,
            "time": 224.33998167500002,
            "value": -0.140625
          },
          {
            "ticks": 308740,
            "time": 224.374865375,
            "value": -0.0625
          },
          {
            "ticks": 308812,
            "time": 224.42719092500002,
            "value": -0.063232421875
          },
          {
            "ticks": 308860,
            "time": 224.462074625,
            "value": 0.03125
          },
          {
            "ticks": 308880,
            "time": 224.4766095,
            "value": 0.0625
          },
          {
            "ticks": 308888,
            "time": 224.48242345,
            "value": 0.09375
          },
          {
            "ticks": 308900,
            "time": 224.491144375,
            "value": 0.125
          },
          {
            "ticks": 308908,
            "time": 224.49695832499998,
            "value": 0.15625
          },
          {
            "ticks": 308928,
            "time": 224.51149320000002,
            "value": 0.21875
          },
          {
            "ticks": 308936,
            "time": 224.51730715000002,
            "value": 0.296875
          },
          {
            "ticks": 308948,
            "time": 224.526028075,
            "value": 0.375
          },
          {
            "ticks": 308956,
            "time": 224.531842025,
            "value": 0.984375
          },
          {
            "ticks": 308968,
            "time": 224.54056294999998,
            "value": 0.9998779296875
          },
          {
            "ticks": 309124,
            "time": 224.653934975,
            "value": -0.484375
          },
          {
            "ticks": 309128,
            "time": 224.65684195,
            "value": 0
          },
          {
            "ticks": 309160,
            "time": 224.68009775000002,
            "value": -0.3125
          },
          {
            "ticks": 309180,
            "time": 224.694632625,
            "value": -0.140625
          },
          {
            "ticks": 309228,
            "time": 224.72951632500002,
            "value": -0.0625
          },
          {
            "ticks": 309300,
            "time": 224.781841875,
            "value": -0.063232421875
          },
          {
            "ticks": 309352,
            "time": 224.81963255000002,
            "value": 0
          },
          {
            "ticks": 309592,
            "time": 224.99405105000002,
            "value": -0.484375
          },
          {
            "ticks": 309628,
            "time": 225.02021382499998,
            "value": -0.3125
          },
          {
            "ticks": 309648,
            "time": 225.03474870000002,
            "value": -0.140625
          },
          {
            "ticks": 309696,
            "time": 225.06963240000002,
            "value": -0.0625
          },
          {
            "ticks": 309768,
            "time": 225.12195795000002,
            "value": -0.063232421875
          },
          {
            "ticks": 309820,
            "time": 225.15974862500002,
            "value": 0
          },
          {
            "ticks": 310084,
            "time": 225.351608975,
            "value": -0.484375
          },
          {
            "ticks": 310120,
            "time": 225.37777175000002,
            "value": -0.3125
          },
          {
            "ticks": 310140,
            "time": 225.392306625,
            "value": -0.140625
          },
          {
            "ticks": 310188,
            "time": 225.42719032500003,
            "value": -0.0625
          },
          {
            "ticks": 310260,
            "time": 225.479515875,
            "value": -0.063232421875
          },
          {
            "ticks": 310312,
            "time": 225.51730655,
            "value": 0
          },
          {
            "ticks": 310564,
            "time": 225.700445975,
            "value": -0.484375
          },
          {
            "ticks": 310600,
            "time": 225.72660875000003,
            "value": -0.3125
          },
          {
            "ticks": 310620,
            "time": 225.741143625,
            "value": -0.140625
          },
          {
            "ticks": 310668,
            "time": 225.776027325,
            "value": -0.0625
          },
          {
            "ticks": 310740,
            "time": 225.828352875,
            "value": -0.063232421875
          },
          {
            "ticks": 310792,
            "time": 225.86614355,
            "value": 0
          },
          {
            "ticks": 311032,
            "time": 226.04056205,
            "value": -0.484375
          },
          {
            "ticks": 311068,
            "time": 226.066724825,
            "value": -0.3125
          },
          {
            "ticks": 311088,
            "time": 226.0812597,
            "value": -0.140625
          },
          {
            "ticks": 311136,
            "time": 226.11614340000003,
            "value": -0.0625
          },
          {
            "ticks": 311208,
            "time": 226.16846895,
            "value": -0.063232421875
          },
          {
            "ticks": 311260,
            "time": 226.20625962500003,
            "value": 0
          },
          {
            "ticks": 311512,
            "time": 226.38939905,
            "value": -0.484375
          },
          {
            "ticks": 311548,
            "time": 226.415561825,
            "value": -0.3125
          },
          {
            "ticks": 311568,
            "time": 226.4300967,
            "value": -0.140625
          },
          {
            "ticks": 311616,
            "time": 226.46498040000003,
            "value": -0.0625
          },
          {
            "ticks": 311688,
            "time": 226.51730595,
            "value": -0.063232421875
          },
          {
            "ticks": 311740,
            "time": 226.555096625,
            "value": 0
          },
          {
            "ticks": 311992,
            "time": 226.73823605,
            "value": -0.484375
          },
          {
            "ticks": 312028,
            "time": 226.764398825,
            "value": -0.3125
          },
          {
            "ticks": 312048,
            "time": 226.7789337,
            "value": -0.140625
          },
          {
            "ticks": 312096,
            "time": 226.81381740000003,
            "value": -0.0625
          },
          {
            "ticks": 312168,
            "time": 226.86614295,
            "value": -0.063232421875
          },
          {
            "ticks": 312220,
            "time": 226.903933625,
            "value": 0
          },
          {
            "ticks": 312484,
            "time": 227.095793975,
            "value": -0.484375
          },
          {
            "ticks": 312520,
            "time": 227.12195675,
            "value": -0.3125
          },
          {
            "ticks": 312540,
            "time": 227.13649162500002,
            "value": -0.140625
          },
          {
            "ticks": 312588,
            "time": 227.171375325,
            "value": -0.0625
          },
          {
            "ticks": 312660,
            "time": 227.223700875,
            "value": -0.063232421875
          },
          {
            "ticks": 312712,
            "time": 227.26149155000002,
            "value": 0
          },
          {
            "ticks": 312768,
            "time": 227.30218920000002,
            "value": -0.09375
          },
          {
            "ticks": 312824,
            "time": 227.34288685,
            "value": -0.203125
          },
          {
            "ticks": 312904,
            "time": 227.40102635,
            "value": -0.359375
          },
          {
            "ticks": 312932,
            "time": 227.42137517500004,
            "value": -0.484375
          },
          {
            "ticks": 312956,
            "time": 227.43881702500002,
            "value": -0.484375
          },
          {
            "ticks": 312992,
            "time": 227.46497980000004,
            "value": -0.3125
          },
          {
            "ticks": 313012,
            "time": 227.47951467500002,
            "value": -0.140625
          },
          {
            "ticks": 313060,
            "time": 227.514398375,
            "value": -0.0625
          },
          {
            "ticks": 313132,
            "time": 227.56672392500002,
            "value": -0.063232421875
          },
          {
            "ticks": 313184,
            "time": 227.60451460000002,
            "value": 0
          },
          {
            "ticks": 313432,
            "time": 227.78474705000002,
            "value": -0.484375
          },
          {
            "ticks": 313468,
            "time": 227.81090982499998,
            "value": -0.3125
          },
          {
            "ticks": 313488,
            "time": 227.82544470000002,
            "value": -0.140625
          },
          {
            "ticks": 313536,
            "time": 227.86032840000001,
            "value": -0.0625
          },
          {
            "ticks": 313608,
            "time": 227.91265395000002,
            "value": -0.063232421875
          },
          {
            "ticks": 313660,
            "time": 227.95044462500002,
            "value": 0
          },
          {
            "ticks": 313912,
            "time": 228.13358405000002,
            "value": -0.484375
          },
          {
            "ticks": 313948,
            "time": 228.15974682499998,
            "value": -0.3125
          },
          {
            "ticks": 313968,
            "time": 228.17428170000002,
            "value": -0.140625
          },
          {
            "ticks": 314016,
            "time": 228.20916540000002,
            "value": -0.0625
          },
          {
            "ticks": 314088,
            "time": 228.26149095000002,
            "value": -0.063232421875
          },
          {
            "ticks": 314140,
            "time": 228.29928162500002,
            "value": 0
          },
          {
            "ticks": 314392,
            "time": 228.48242105,
            "value": -0.484375
          },
          {
            "ticks": 314428,
            "time": 228.508583825,
            "value": -0.3125
          },
          {
            "ticks": 314448,
            "time": 228.52311870000003,
            "value": -0.140625
          },
          {
            "ticks": 314496,
            "time": 228.55800240000002,
            "value": -0.0625
          },
          {
            "ticks": 314568,
            "time": 228.61032795000003,
            "value": -0.063232421875
          },
          {
            "ticks": 314620,
            "time": 228.64811862500002,
            "value": 0
          },
          {
            "ticks": 314872,
            "time": 228.83125805,
            "value": -0.484375
          },
          {
            "ticks": 314908,
            "time": 228.857420825,
            "value": -0.3125
          },
          {
            "ticks": 314928,
            "time": 228.8719557,
            "value": -0.140625
          },
          {
            "ticks": 314976,
            "time": 228.90683940000002,
            "value": -0.0625
          },
          {
            "ticks": 315048,
            "time": 228.95916495,
            "value": -0.063232421875
          },
          {
            "ticks": 315100,
            "time": 228.99695562500003,
            "value": 0
          },
          {
            "ticks": 315348,
            "time": 229.177188075,
            "value": -0.484375
          },
          {
            "ticks": 315384,
            "time": 229.20335085,
            "value": -0.3125
          },
          {
            "ticks": 315404,
            "time": 229.217885725,
            "value": -0.140625
          },
          {
            "ticks": 315452,
            "time": 229.25276942500003,
            "value": -0.0625
          },
          {
            "ticks": 315524,
            "time": 229.305094975,
            "value": -0.063232421875
          },
          {
            "ticks": 315576,
            "time": 229.34288565000003,
            "value": 0
          },
          {
            "ticks": 315828,
            "time": 229.526025075,
            "value": -0.484375
          },
          {
            "ticks": 315864,
            "time": 229.55218785,
            "value": -0.3125
          },
          {
            "ticks": 315884,
            "time": 229.566722725,
            "value": -0.140625
          },
          {
            "ticks": 315932,
            "time": 229.60160642500003,
            "value": -0.0625
          },
          {
            "ticks": 316004,
            "time": 229.653931975,
            "value": -0.063232421875
          },
          {
            "ticks": 316056,
            "time": 229.69172265000003,
            "value": 0
          },
          {
            "ticks": 316304,
            "time": 229.8719551,
            "value": -0.484375
          },
          {
            "ticks": 316340,
            "time": 229.898117875,
            "value": -0.3125
          },
          {
            "ticks": 316360,
            "time": 229.91265275,
            "value": -0.140625
          },
          {
            "ticks": 316408,
            "time": 229.94753644999997,
            "value": -0.0625
          },
          {
            "ticks": 316480,
            "time": 229.999862,
            "value": -0.063232421875
          },
          {
            "ticks": 316532,
            "time": 230.03765267500003,
            "value": 0
          },
          {
            "ticks": 316808,
            "time": 230.23823395,
            "value": -0.484375
          },
          {
            "ticks": 316844,
            "time": 230.264396725,
            "value": -0.3125
          },
          {
            "ticks": 316864,
            "time": 230.2789316,
            "value": -0.140625
          },
          {
            "ticks": 316912,
            "time": 230.31381530000002,
            "value": -0.0625
          },
          {
            "ticks": 316984,
            "time": 230.36614085,
            "value": -0.063232421875
          },
          {
            "ticks": 317036,
            "time": 230.40393152500002,
            "value": 0
          },
          {
            "ticks": 317276,
            "time": 230.57835002500002,
            "value": -0.484375
          },
          {
            "ticks": 317312,
            "time": 230.60451280000004,
            "value": -0.3125
          },
          {
            "ticks": 317332,
            "time": 230.61904767500002,
            "value": -0.140625
          },
          {
            "ticks": 317380,
            "time": 230.653931375,
            "value": -0.0625
          },
          {
            "ticks": 317452,
            "time": 230.70625692500002,
            "value": -0.063232421875
          },
          {
            "ticks": 317504,
            "time": 230.74404760000002,
            "value": 0
          },
          {
            "ticks": 317768,
            "time": 230.93590795,
            "value": -0.484375
          },
          {
            "ticks": 317804,
            "time": 230.96207072500002,
            "value": -0.3125
          },
          {
            "ticks": 317824,
            "time": 230.9766056,
            "value": -0.140625
          },
          {
            "ticks": 317872,
            "time": 231.01148930000002,
            "value": -0.0625
          },
          {
            "ticks": 317944,
            "time": 231.06381485,
            "value": -0.063232421875
          },
          {
            "ticks": 317996,
            "time": 231.101605525,
            "value": 0
          },
          {
            "ticks": 318248,
            "time": 231.28474495,
            "value": -0.484375
          },
          {
            "ticks": 318284,
            "time": 231.31090772500002,
            "value": -0.3125
          },
          {
            "ticks": 318304,
            "time": 231.3254426,
            "value": -0.140625
          },
          {
            "ticks": 318352,
            "time": 231.3603263,
            "value": -0.0625
          },
          {
            "ticks": 318424,
            "time": 231.41265185,
            "value": -0.063232421875
          },
          {
            "ticks": 318476,
            "time": 231.450442525,
            "value": 0
          },
          {
            "ticks": 318716,
            "time": 231.624861025,
            "value": -0.484375
          },
          {
            "ticks": 318752,
            "time": 231.65102380000002,
            "value": -0.3125
          },
          {
            "ticks": 318772,
            "time": 231.665558675,
            "value": -0.140625
          },
          {
            "ticks": 318820,
            "time": 231.70044237500002,
            "value": -0.0625
          },
          {
            "ticks": 318892,
            "time": 231.752767925,
            "value": -0.063232421875
          },
          {
            "ticks": 318944,
            "time": 231.79055860000003,
            "value": 0
          },
          {
            "ticks": 319196,
            "time": 231.973698025,
            "value": -0.484375
          },
          {
            "ticks": 319232,
            "time": 231.99986080000002,
            "value": -0.3125
          },
          {
            "ticks": 319252,
            "time": 232.014395675,
            "value": -0.140625
          },
          {
            "ticks": 319300,
            "time": 232.04927937500003,
            "value": -0.0625
          },
          {
            "ticks": 319372,
            "time": 232.101604925,
            "value": -0.063232421875
          },
          {
            "ticks": 319424,
            "time": 232.13939560000003,
            "value": 0
          },
          {
            "ticks": 319676,
            "time": 232.322535025,
            "value": -0.484375
          },
          {
            "ticks": 319712,
            "time": 232.34869780000002,
            "value": -0.3125
          },
          {
            "ticks": 319732,
            "time": 232.363232675,
            "value": -0.140625
          },
          {
            "ticks": 319780,
            "time": 232.39811637500003,
            "value": -0.0625
          },
          {
            "ticks": 319852,
            "time": 232.450441925,
            "value": -0.063232421875
          },
          {
            "ticks": 319904,
            "time": 232.4882326,
            "value": 0
          },
          {
            "ticks": 320168,
            "time": 232.68009295,
            "value": -0.484375
          },
          {
            "ticks": 320204,
            "time": 232.706255725,
            "value": -0.3125
          },
          {
            "ticks": 320224,
            "time": 232.72079060000002,
            "value": -0.140625
          },
          {
            "ticks": 320272,
            "time": 232.7556743,
            "value": -0.0625
          },
          {
            "ticks": 320344,
            "time": 232.80799985000002,
            "value": -0.063232421875
          },
          {
            "ticks": 320396,
            "time": 232.845790525,
            "value": 0
          },
          {
            "ticks": 320456,
            "time": 232.88939515,
            "value": -0.0625
          },
          {
            "ticks": 320484,
            "time": 232.909743975,
            "value": -0.125
          },
          {
            "ticks": 320512,
            "time": 232.9300928,
            "value": -0.265625
          },
          {
            "ticks": 320560,
            "time": 232.9649765,
            "value": -0.375
          },
          {
            "ticks": 320592,
            "time": 232.9882323,
            "value": -0.453125
          },
          {
            "ticks": 320640,
            "time": 233.02311600000002,
            "value": -0.484375
          },
          {
            "ticks": 320676,
            "time": 233.04927877500003,
            "value": -0.3125
          },
          {
            "ticks": 320696,
            "time": 233.06381365000001,
            "value": -0.140625
          },
          {
            "ticks": 320744,
            "time": 233.09869735,
            "value": -0.0625
          },
          {
            "ticks": 320816,
            "time": 233.15102290000002,
            "value": -0.063232421875
          },
          {
            "ticks": 320868,
            "time": 233.188813575,
            "value": 0
          },
          {
            "ticks": 321116,
            "time": 233.36904602500002,
            "value": -0.484375
          },
          {
            "ticks": 321152,
            "time": 233.39520880000003,
            "value": -0.3125
          },
          {
            "ticks": 321172,
            "time": 233.40974367500002,
            "value": -0.140625
          },
          {
            "ticks": 321220,
            "time": 233.444627375,
            "value": -0.0625
          },
          {
            "ticks": 321292,
            "time": 233.49695292500002,
            "value": -0.063232421875
          },
          {
            "ticks": 321344,
            "time": 233.5347436,
            "value": 0
          },
          {
            "ticks": 321596,
            "time": 233.71788302500002,
            "value": -0.484375
          },
          {
            "ticks": 321632,
            "time": 233.74404580000004,
            "value": -0.3125
          },
          {
            "ticks": 321652,
            "time": 233.75858067500002,
            "value": -0.140625
          },
          {
            "ticks": 321700,
            "time": 233.793464375,
            "value": -0.0625
          },
          {
            "ticks": 321772,
            "time": 233.84578992500002,
            "value": -0.063232421875
          },
          {
            "ticks": 321824,
            "time": 233.88358060000002,
            "value": 0
          },
          {
            "ticks": 322076,
            "time": 234.066720025,
            "value": -0.484375
          },
          {
            "ticks": 322112,
            "time": 234.0928828,
            "value": -0.3125
          },
          {
            "ticks": 322132,
            "time": 234.10741767500002,
            "value": -0.140625
          },
          {
            "ticks": 322180,
            "time": 234.14230137500002,
            "value": -0.0625
          },
          {
            "ticks": 322252,
            "time": 234.19462692500002,
            "value": -0.063232421875
          },
          {
            "ticks": 322304,
            "time": 234.23241760000002,
            "value": 0
          },
          {
            "ticks": 322556,
            "time": 234.415557025,
            "value": -0.484375
          },
          {
            "ticks": 322592,
            "time": 234.44171980000002,
            "value": -0.3125
          },
          {
            "ticks": 322612,
            "time": 234.456254675,
            "value": -0.140625
          },
          {
            "ticks": 322660,
            "time": 234.49113837500002,
            "value": -0.0625
          },
          {
            "ticks": 322732,
            "time": 234.543463925,
            "value": -0.063232421875
          },
          {
            "ticks": 322784,
            "time": 234.58125460000002,
            "value": 0
          },
          {
            "ticks": 323032,
            "time": 234.76148705,
            "value": -0.484375
          },
          {
            "ticks": 323068,
            "time": 234.787649825,
            "value": -0.3125
          },
          {
            "ticks": 323088,
            "time": 234.80218470000003,
            "value": -0.140625
          },
          {
            "ticks": 323136,
            "time": 234.83706840000002,
            "value": -0.0625
          },
          {
            "ticks": 323208,
            "time": 234.88939395000003,
            "value": -0.063232421875
          },
          {
            "ticks": 323260,
            "time": 234.92718462500002,
            "value": 0
          },
          {
            "ticks": 323512,
            "time": 235.11032405,
            "value": -0.484375
          },
          {
            "ticks": 323548,
            "time": 235.136486825,
            "value": -0.3125
          },
          {
            "ticks": 323568,
            "time": 235.1510217,
            "value": -0.140625
          },
          {
            "ticks": 323616,
            "time": 235.18590540000002,
            "value": -0.0625
          },
          {
            "ticks": 323688,
            "time": 235.23823095,
            "value": -0.063232421875
          },
          {
            "ticks": 323740,
            "time": 235.27602162500003,
            "value": 0
          },
          {
            "ticks": 323988,
            "time": 235.456254075,
            "value": -0.484375
          },
          {
            "ticks": 324024,
            "time": 235.48241685,
            "value": -0.3125
          },
          {
            "ticks": 324044,
            "time": 235.496951725,
            "value": -0.140625
          },
          {
            "ticks": 324092,
            "time": 235.53183542500003,
            "value": -0.0625
          },
          {
            "ticks": 324164,
            "time": 235.584160975,
            "value": -0.063232421875
          },
          {
            "ticks": 324216,
            "time": 235.62195165000003,
            "value": 0
          },
          {
            "ticks": 324260,
            "time": 235.653928375,
            "value": 0.03125
          },
          {
            "ticks": 324280,
            "time": 235.66846325000003,
            "value": 0.046875
          },
          {
            "ticks": 324288,
            "time": 235.6742772,
            "value": 0.078125
          },
          {
            "ticks": 324300,
            "time": 235.682998125,
            "value": 0.109375
          },
          {
            "ticks": 324316,
            "time": 235.694626025,
            "value": 0.140625
          },
          {
            "ticks": 324328,
            "time": 235.70334695,
            "value": 0.171875
          },
          {
            "ticks": 324336,
            "time": 235.70916090000003,
            "value": 0.234375
          },
          {
            "ticks": 324348,
            "time": 235.717881825,
            "value": 0.265625
          },
          {
            "ticks": 324356,
            "time": 235.723695775,
            "value": 0.28125
          },
          {
            "ticks": 324364,
            "time": 235.729509725,
            "value": 0.3125
          },
          {
            "ticks": 324376,
            "time": 235.73823065,
            "value": 0.34375
          },
          {
            "ticks": 324384,
            "time": 235.7440446,
            "value": 0.375
          },
          {
            "ticks": 324396,
            "time": 235.75276552500003,
            "value": 0.40625
          },
          {
            "ticks": 324404,
            "time": 235.758579475,
            "value": 0.4375
          },
          {
            "ticks": 324432,
            "time": 235.7789283,
            "value": 0.78125
          },
          {
            "ticks": 324444,
            "time": 235.787649225,
            "value": 0.875
          },
          {
            "ticks": 324452,
            "time": 235.79346317500003,
            "value": 0.921875
          },
          {
            "ticks": 324460,
            "time": 235.79927712500003,
            "value": 0.9998779296875
          },
          {
            "ticks": 324492,
            "time": 235.822532925,
            "value": -0.484375
          },
          {
            "ticks": 324528,
            "time": 235.8486957,
            "value": -0.3125
          },
          {
            "ticks": 324548,
            "time": 235.863230575,
            "value": -0.140625
          },
          {
            "ticks": 324596,
            "time": 235.898114275,
            "value": -0.0625
          },
          {
            "ticks": 324668,
            "time": 235.950439825,
            "value": -0.063232421875
          },
          {
            "ticks": 324720,
            "time": 235.98823050000001,
            "value": 0
          },
          {
            "ticks": 324960,
            "time": 236.16264900000002,
            "value": -0.484375
          },
          {
            "ticks": 324996,
            "time": 236.18881177500003,
            "value": -0.3125
          },
          {
            "ticks": 325016,
            "time": 236.20334665000001,
            "value": -0.140625
          },
          {
            "ticks": 325064,
            "time": 236.23823035,
            "value": -0.0625
          },
          {
            "ticks": 325136,
            "time": 236.29055590000002,
            "value": -0.063232421875
          },
          {
            "ticks": 325188,
            "time": 236.328346575,
            "value": 0
          },
          {
            "ticks": 325452,
            "time": 236.520206925,
            "value": -0.484375
          },
          {
            "ticks": 325488,
            "time": 236.5463697,
            "value": -0.3125
          },
          {
            "ticks": 325508,
            "time": 236.560904575,
            "value": -0.140625
          },
          {
            "ticks": 325556,
            "time": 236.59578827500002,
            "value": -0.0625
          },
          {
            "ticks": 325628,
            "time": 236.648113825,
            "value": -0.063232421875
          },
          {
            "ticks": 325680,
            "time": 236.6859045,
            "value": 0
          },
          {
            "ticks": 325932,
            "time": 236.869043925,
            "value": -0.484375
          },
          {
            "ticks": 325968,
            "time": 236.89520670000002,
            "value": -0.3125
          },
          {
            "ticks": 325988,
            "time": 236.909741575,
            "value": -0.140625
          },
          {
            "ticks": 326036,
            "time": 236.94462527500002,
            "value": -0.0625
          },
          {
            "ticks": 326108,
            "time": 236.996950825,
            "value": -0.063232421875
          },
          {
            "ticks": 326160,
            "time": 237.0347415,
            "value": 0
          },
          {
            "ticks": 326400,
            "time": 237.20916,
            "value": -0.484375
          },
          {
            "ticks": 326436,
            "time": 237.23532277500001,
            "value": -0.3125
          },
          {
            "ticks": 326456,
            "time": 237.24985765,
            "value": -0.140625
          },
          {
            "ticks": 326504,
            "time": 237.28474135000002,
            "value": -0.0625
          },
          {
            "ticks": 326576,
            "time": 237.3370669,
            "value": -0.063232421875
          },
          {
            "ticks": 326628,
            "time": 237.37485757500002,
            "value": 0
          },
          {
            "ticks": 326880,
            "time": 237.557997,
            "value": -0.484375
          },
          {
            "ticks": 326916,
            "time": 237.58415977500002,
            "value": -0.3125
          },
          {
            "ticks": 326936,
            "time": 237.59869465,
            "value": -0.140625
          },
          {
            "ticks": 326984,
            "time": 237.63357835000002,
            "value": -0.0625
          },
          {
            "ticks": 327056,
            "time": 237.6859039,
            "value": -0.063232421875
          },
          {
            "ticks": 327108,
            "time": 237.72369457500002,
            "value": 0
          },
          {
            "ticks": 327360,
            "time": 237.906834,
            "value": -0.484375
          },
          {
            "ticks": 327396,
            "time": 237.93299677500002,
            "value": -0.3125
          },
          {
            "ticks": 327416,
            "time": 237.94753165,
            "value": -0.140625
          },
          {
            "ticks": 327464,
            "time": 237.98241535000003,
            "value": -0.0625
          },
          {
            "ticks": 327536,
            "time": 238.0347409,
            "value": -0.063232421875
          },
          {
            "ticks": 327588,
            "time": 238.07253157500003,
            "value": 0
          },
          {
            "ticks": 327852,
            "time": 238.26439192499998,
            "value": -0.484375
          },
          {
            "ticks": 327888,
            "time": 238.2905547,
            "value": -0.3125
          },
          {
            "ticks": 327908,
            "time": 238.305089575,
            "value": -0.140625
          },
          {
            "ticks": 327956,
            "time": 238.339973275,
            "value": -0.0625
          },
          {
            "ticks": 328028,
            "time": 238.392298825,
            "value": -0.063232421875
          },
          {
            "ticks": 328080,
            "time": 238.4300895,
            "value": 0
          },
          {
            "ticks": 328128,
            "time": 238.4649732,
            "value": -0.09375
          },
          {
            "ticks": 328196,
            "time": 238.514391775,
            "value": -0.234375
          },
          {
            "ticks": 328252,
            "time": 238.555089425,
            "value": -0.375
          },
          {
            "ticks": 328284,
            "time": 238.578345225,
            "value": -0.484375
          },
          {
            "ticks": 328324,
            "time": 238.607414975,
            "value": -0.484375
          },
          {
            "ticks": 328360,
            "time": 238.63357775000003,
            "value": -0.3125
          },
          {
            "ticks": 328380,
            "time": 238.648112625,
            "value": -0.140625
          },
          {
            "ticks": 328428,
            "time": 238.682996325,
            "value": -0.0625
          },
          {
            "ticks": 328500,
            "time": 238.735321875,
            "value": -0.063232421875
          },
          {
            "ticks": 328552,
            "time": 238.77311255,
            "value": 0
          },
          {
            "ticks": 328800,
            "time": 238.953345,
            "value": -0.484375
          },
          {
            "ticks": 328836,
            "time": 238.97950777500003,
            "value": -0.3125
          },
          {
            "ticks": 328856,
            "time": 238.99404265,
            "value": -0.140625
          },
          {
            "ticks": 328904,
            "time": 239.02892635,
            "value": -0.0625
          },
          {
            "ticks": 328976,
            "time": 239.0812519,
            "value": -0.063232421875
          },
          {
            "ticks": 329028,
            "time": 239.119042575,
            "value": 0
          },
          {
            "ticks": 329280,
            "time": 239.30218200000002,
            "value": -0.484375
          },
          {
            "ticks": 329316,
            "time": 239.32834477500003,
            "value": -0.3125
          },
          {
            "ticks": 329336,
            "time": 239.34287965000001,
            "value": -0.140625
          },
          {
            "ticks": 329384,
            "time": 239.37776335,
            "value": -0.0625
          },
          {
            "ticks": 329456,
            "time": 239.43008890000002,
            "value": -0.063232421875
          },
          {
            "ticks": 329508,
            "time": 239.467879575,
            "value": 0
          },
          {
            "ticks": 329760,
            "time": 239.65101900000002,
            "value": -0.484375
          },
          {
            "ticks": 329796,
            "time": 239.677181775,
            "value": -0.3125
          },
          {
            "ticks": 329816,
            "time": 239.69171665000002,
            "value": -0.140625
          },
          {
            "ticks": 329864,
            "time": 239.72660035,
            "value": -0.0625
          },
          {
            "ticks": 329936,
            "time": 239.77892590000002,
            "value": -0.063232421875
          },
          {
            "ticks": 329988,
            "time": 239.81671657500002,
            "value": 0
          },
          {
            "ticks": 330240,
            "time": 239.999856,
            "value": -0.484375
          },
          {
            "ticks": 330276,
            "time": 240.026018775,
            "value": -0.3125
          },
          {
            "ticks": 330296,
            "time": 240.04055365000002,
            "value": -0.140625
          },
          {
            "ticks": 330344,
            "time": 240.07543735000002,
            "value": -0.0625
          },
          {
            "ticks": 330416,
            "time": 240.12776290000002,
            "value": -0.063232421875
          },
          {
            "ticks": 330468,
            "time": 240.16555357500002,
            "value": 0
          },
          {
            "ticks": 330716,
            "time": 240.345786025,
            "value": -0.484375
          },
          {
            "ticks": 330752,
            "time": 240.3719488,
            "value": -0.3125
          },
          {
            "ticks": 330772,
            "time": 240.38648367500002,
            "value": -0.140625
          },
          {
            "ticks": 330820,
            "time": 240.42136737500002,
            "value": -0.0625
          },
          {
            "ticks": 330892,
            "time": 240.47369292500002,
            "value": -0.063232421875
          },
          {
            "ticks": 330944,
            "time": 240.51148360000002,
            "value": 0
          },
          {
            "ticks": 331196,
            "time": 240.694623025,
            "value": -0.484375
          },
          {
            "ticks": 331232,
            "time": 240.72078580000002,
            "value": -0.3125
          },
          {
            "ticks": 331252,
            "time": 240.735320675,
            "value": -0.140625
          },
          {
            "ticks": 331300,
            "time": 240.77020437500002,
            "value": -0.0625
          },
          {
            "ticks": 331372,
            "time": 240.822529925,
            "value": -0.063232421875
          },
          {
            "ticks": 331424,
            "time": 240.86032060000002,
            "value": 0
          },
          {
            "ticks": 331672,
            "time": 241.04055305,
            "value": -0.484375
          },
          {
            "ticks": 331708,
            "time": 241.066715825,
            "value": -0.3125
          },
          {
            "ticks": 331728,
            "time": 241.08125070000003,
            "value": -0.140625
          },
          {
            "ticks": 331776,
            "time": 241.11613440000002,
            "value": -0.0625
          },
          {
            "ticks": 331848,
            "time": 241.16845995000003,
            "value": -0.063232421875
          },
          {
            "ticks": 331896,
            "time": 241.20334365000002,
            "value": 0.03125
          },
          {
            "ticks": 331916,
            "time": 241.217878525,
            "value": 0.0625
          },
          {
            "ticks": 331924,
            "time": 241.223692475,
            "value": 0.09375
          },
          {
            "ticks": 331936,
            "time": 241.23241339999998,
            "value": 0.125
          },
          {
            "ticks": 331944,
            "time": 241.23822735,
            "value": 0.15625
          },
          {
            "ticks": 331964,
            "time": 241.25276222500003,
            "value": 0.21875
          },
          {
            "ticks": 331972,
            "time": 241.258576175,
            "value": 0.296875
          },
          {
            "ticks": 331984,
            "time": 241.2672971,
            "value": 0.375
          },
          {
            "ticks": 331992,
            "time": 241.27311105,
            "value": 0.984375
          },
          {
            "ticks": 332004,
            "time": 241.281831975,
            "value": 0.9998779296875
          },
          {
            "ticks": 332160,
            "time": 241.395204,
            "value": -0.484375
          },
          {
            "ticks": 332164,
            "time": 241.398110975,
            "value": 0
          },
          {
            "ticks": 332196,
            "time": 241.42136677500002,
            "value": -0.3125
          },
          {
            "ticks": 332216,
            "time": 241.43590165,
            "value": -0.140625
          },
          {
            "ticks": 332264,
            "time": 241.47078535000003,
            "value": -0.0625
          },
          {
            "ticks": 332336,
            "time": 241.5231109,
            "value": -0.063232421875
          },
          {
            "ticks": 332388,
            "time": 241.560901575,
            "value": 0
          },
          {
            "ticks": 332628,
            "time": 241.735320075,
            "value": -0.484375
          },
          {
            "ticks": 332664,
            "time": 241.76148285,
            "value": -0.3125
          },
          {
            "ticks": 332684,
            "time": 241.776017725,
            "value": -0.140625
          },
          {
            "ticks": 332732,
            "time": 241.81090142500003,
            "value": -0.0625
          },
          {
            "ticks": 332804,
            "time": 241.863226975,
            "value": -0.063232421875
          },
          {
            "ticks": 332856,
            "time": 241.90101765000003,
            "value": 0
          },
          {
            "ticks": 333120,
            "time": 242.092878,
            "value": -0.484375
          },
          {
            "ticks": 333156,
            "time": 242.11904077500003,
            "value": -0.3125
          },
          {
            "ticks": 333176,
            "time": 242.13357565,
            "value": -0.140625
          },
          {
            "ticks": 333224,
            "time": 242.16845935,
            "value": -0.0625
          },
          {
            "ticks": 333296,
            "time": 242.2207849,
            "value": -0.063232421875
          },
          {
            "ticks": 333348,
            "time": 242.258575575,
            "value": 0
          },
          {
            "ticks": 333600,
            "time": 242.44171500000002,
            "value": -0.484375
          },
          {
            "ticks": 333636,
            "time": 242.46787777500003,
            "value": -0.3125
          },
          {
            "ticks": 333656,
            "time": 242.48241265000001,
            "value": -0.140625
          },
          {
            "ticks": 333704,
            "time": 242.51729635,
            "value": -0.0625
          },
          {
            "ticks": 333776,
            "time": 242.56962190000002,
            "value": -0.063232421875
          },
          {
            "ticks": 333828,
            "time": 242.607412575,
            "value": 0
          },
          {
            "ticks": 334068,
            "time": 242.781831075,
            "value": -0.484375
          },
          {
            "ticks": 334104,
            "time": 242.80799385,
            "value": -0.3125
          },
          {
            "ticks": 334124,
            "time": 242.822528725,
            "value": -0.140625
          },
          {
            "ticks": 334172,
            "time": 242.85741242500004,
            "value": -0.0625
          },
          {
            "ticks": 334244,
            "time": 242.909737975,
            "value": -0.063232421875
          },
          {
            "ticks": 334296,
            "time": 242.94752865,
            "value": 0
          },
          {
            "ticks": 334548,
            "time": 243.13066807500002,
            "value": -0.484375
          },
          {
            "ticks": 334584,
            "time": 243.15683084999998,
            "value": -0.3125
          },
          {
            "ticks": 334604,
            "time": 243.17136572500002,
            "value": -0.140625
          },
          {
            "ticks": 334652,
            "time": 243.20624942500004,
            "value": -0.0625
          },
          {
            "ticks": 334724,
            "time": 243.25857497500002,
            "value": -0.063232421875
          },
          {
            "ticks": 334776,
            "time": 243.29636565,
            "value": 0
          },
          {
            "ticks": 335028,
            "time": 243.47950507500002,
            "value": -0.484375
          },
          {
            "ticks": 335064,
            "time": 243.50566784999998,
            "value": -0.3125
          },
          {
            "ticks": 335084,
            "time": 243.52020272500002,
            "value": -0.140625
          },
          {
            "ticks": 335132,
            "time": 243.555086425,
            "value": -0.0625
          },
          {
            "ticks": 335204,
            "time": 243.60741197500002,
            "value": -0.063232421875
          },
          {
            "ticks": 335256,
            "time": 243.64520265000002,
            "value": 0
          },
          {
            "ticks": 335520,
            "time": 243.837063,
            "value": -0.484375
          },
          {
            "ticks": 335556,
            "time": 243.86322577500002,
            "value": -0.3125
          },
          {
            "ticks": 335576,
            "time": 243.87776065,
            "value": -0.140625
          },
          {
            "ticks": 335624,
            "time": 243.91264435000002,
            "value": -0.0625
          },
          {
            "ticks": 335696,
            "time": 243.9649699,
            "value": -0.063232421875
          },
          {
            "ticks": 335748,
            "time": 244.00276057500002,
            "value": 0
          },
          {
            "ticks": 335804,
            "time": 244.04345822500002,
            "value": -0.09375
          },
          {
            "ticks": 335860,
            "time": 244.08415587500002,
            "value": -0.203125
          },
          {
            "ticks": 335940,
            "time": 244.142295375,
            "value": -0.359375
          },
          {
            "ticks": 335968,
            "time": 244.1626442,
            "value": -0.484375
          },
          {
            "ticks": 335992,
            "time": 244.18008605,
            "value": -0.484375
          },
          {
            "ticks": 336028,
            "time": 244.206248825,
            "value": -0.3125
          },
          {
            "ticks": 336048,
            "time": 244.22078370000003,
            "value": -0.140625
          },
          {
            "ticks": 336096,
            "time": 244.25566740000002,
            "value": -0.0625
          },
          {
            "ticks": 336168,
            "time": 244.30799295000003,
            "value": -0.063232421875
          },
          {
            "ticks": 336220,
            "time": 244.34578362500002,
            "value": 0
          },
          {
            "ticks": 336468,
            "time": 244.526016075,
            "value": -0.484375
          },
          {
            "ticks": 336504,
            "time": 244.55217885,
            "value": -0.3125
          },
          {
            "ticks": 336524,
            "time": 244.56671372500003,
            "value": -0.140625
          },
          {
            "ticks": 336572,
            "time": 244.60159742500002,
            "value": -0.0625
          },
          {
            "ticks": 336644,
            "time": 244.65392297500003,
            "value": -0.063232421875
          },
          {
            "ticks": 336696,
            "time": 244.69171365000003,
            "value": 0
          },
          {
            "ticks": 336948,
            "time": 244.874853075,
            "value": -0.484375
          },
          {
            "ticks": 336984,
            "time": 244.90101585,
            "value": -0.3125
          },
          {
            "ticks": 337004,
            "time": 244.915550725,
            "value": -0.140625
          },
          {
            "ticks": 337052,
            "time": 244.95043442500003,
            "value": -0.0625
          },
          {
            "ticks": 337124,
            "time": 245.002759975,
            "value": -0.063232421875
          },
          {
            "ticks": 337176,
            "time": 245.04055065000003,
            "value": 0
          },
          {
            "ticks": 337428,
            "time": 245.223690075,
            "value": -0.484375
          },
          {
            "ticks": 337464,
            "time": 245.24985285,
            "value": -0.3125
          },
          {
            "ticks": 337484,
            "time": 245.264387725,
            "value": -0.140625
          },
          {
            "ticks": 337532,
            "time": 245.29927142500003,
            "value": -0.0625
          },
          {
            "ticks": 337604,
            "time": 245.351596975,
            "value": -0.063232421875
          },
          {
            "ticks": 337656,
            "time": 245.38938765000003,
            "value": 0
          },
          {
            "ticks": 337908,
            "time": 245.572527075,
            "value": -0.484375
          },
          {
            "ticks": 337944,
            "time": 245.59868985,
            "value": -0.3125
          },
          {
            "ticks": 337964,
            "time": 245.613224725,
            "value": -0.140625
          },
          {
            "ticks": 338012,
            "time": 245.64810842500003,
            "value": -0.0625
          },
          {
            "ticks": 338084,
            "time": 245.700433975,
            "value": -0.063232421875
          },
          {
            "ticks": 338136,
            "time": 245.73822465000003,
            "value": 0
          },
          {
            "ticks": 338384,
            "time": 245.9184571,
            "value": -0.484375
          },
          {
            "ticks": 338420,
            "time": 245.944619875,
            "value": -0.3125
          },
          {
            "ticks": 338440,
            "time": 245.95915475,
            "value": -0.140625
          },
          {
            "ticks": 338488,
            "time": 245.99403844999998,
            "value": -0.0625
          },
          {
            "ticks": 338560,
            "time": 246.046364,
            "value": -0.063232421875
          },
          {
            "ticks": 338612,
            "time": 246.08415467500004,
            "value": 0
          },
          {
            "ticks": 338864,
            "time": 246.26729410000002,
            "value": -0.484375
          },
          {
            "ticks": 338900,
            "time": 246.293456875,
            "value": -0.3125
          },
          {
            "ticks": 338920,
            "time": 246.30799175,
            "value": -0.140625
          },
          {
            "ticks": 338968,
            "time": 246.34287544999998,
            "value": -0.0625
          },
          {
            "ticks": 339040,
            "time": 246.39520100000001,
            "value": -0.063232421875
          },
          {
            "ticks": 339092,
            "time": 246.432991675,
            "value": 0
          },
          {
            "ticks": 339340,
            "time": 246.61322412500002,
            "value": -0.484375
          },
          {
            "ticks": 339376,
            "time": 246.6393869,
            "value": -0.3125
          },
          {
            "ticks": 339396,
            "time": 246.65392177500001,
            "value": -0.140625
          },
          {
            "ticks": 339444,
            "time": 246.68880547499998,
            "value": -0.0625
          },
          {
            "ticks": 339516,
            "time": 246.74113102500002,
            "value": -0.063232421875
          },
          {
            "ticks": 339568,
            "time": 246.77892169999998,
            "value": 0
          },
          {
            "ticks": 339844,
            "time": 246.979502975,
            "value": -0.484375
          },
          {
            "ticks": 339880,
            "time": 247.00566575000002,
            "value": -0.3125
          },
          {
            "ticks": 339900,
            "time": 247.020200625,
            "value": -0.140625
          },
          {
            "ticks": 339948,
            "time": 247.05508432500002,
            "value": -0.0625
          },
          {
            "ticks": 340020,
            "time": 247.107409875,
            "value": -0.063232421875
          },
          {
            "ticks": 340072,
            "time": 247.14520055,
            "value": 0
          },
          {
            "ticks": 340312,
            "time": 247.31961905,
            "value": -0.484375
          },
          {
            "ticks": 340348,
            "time": 247.345781825,
            "value": -0.3125
          },
          {
            "ticks": 340368,
            "time": 247.36031670000003,
            "value": -0.140625
          },
          {
            "ticks": 340416,
            "time": 247.39520040000002,
            "value": -0.0625
          },
          {
            "ticks": 340488,
            "time": 247.44752595000003,
            "value": -0.063232421875
          },
          {
            "ticks": 340540,
            "time": 247.48531662500002,
            "value": 0
          },
          {
            "ticks": 340804,
            "time": 247.677176975,
            "value": -0.484375
          },
          {
            "ticks": 340840,
            "time": 247.70333975000003,
            "value": -0.3125
          },
          {
            "ticks": 340860,
            "time": 247.717874625,
            "value": -0.140625
          },
          {
            "ticks": 340908,
            "time": 247.752758325,
            "value": -0.0625
          },
          {
            "ticks": 340980,
            "time": 247.805083875,
            "value": -0.063232421875
          },
          {
            "ticks": 341032,
            "time": 247.84287455,
            "value": 0
          },
          {
            "ticks": 341284,
            "time": 248.026013975,
            "value": -0.484375
          },
          {
            "ticks": 341320,
            "time": 248.05217675000003,
            "value": -0.3125
          },
          {
            "ticks": 341340,
            "time": 248.066711625,
            "value": -0.140625
          },
          {
            "ticks": 341388,
            "time": 248.101595325,
            "value": -0.0625
          },
          {
            "ticks": 341460,
            "time": 248.153920875,
            "value": -0.063232421875
          },
          {
            "ticks": 341512,
            "time": 248.19171155,
            "value": 0
          },
          {
            "ticks": 341752,
            "time": 248.36613005,
            "value": -0.484375
          },
          {
            "ticks": 341788,
            "time": 248.392292825,
            "value": -0.3125
          },
          {
            "ticks": 341808,
            "time": 248.4068277,
            "value": -0.140625
          },
          {
            "ticks": 341856,
            "time": 248.44171140000003,
            "value": -0.0625
          },
          {
            "ticks": 341928,
            "time": 248.49403695,
            "value": -0.063232421875
          },
          {
            "ticks": 341980,
            "time": 248.531827625,
            "value": 0
          },
          {
            "ticks": 342232,
            "time": 248.71496705,
            "value": -0.484375
          },
          {
            "ticks": 342268,
            "time": 248.74112982499997,
            "value": -0.3125
          },
          {
            "ticks": 342288,
            "time": 248.7556647,
            "value": -0.140625
          },
          {
            "ticks": 342336,
            "time": 248.79054840000003,
            "value": -0.0625
          },
          {
            "ticks": 342408,
            "time": 248.84287395,
            "value": -0.063232421875
          },
          {
            "ticks": 342460,
            "time": 248.880664625,
            "value": 0
          },
          {
            "ticks": 342712,
            "time": 249.06380405000002,
            "value": -0.484375
          },
          {
            "ticks": 342748,
            "time": 249.08996682499998,
            "value": -0.3125
          },
          {
            "ticks": 342768,
            "time": 249.10450170000001,
            "value": -0.140625
          },
          {
            "ticks": 342816,
            "time": 249.1393854,
            "value": -0.0625
          },
          {
            "ticks": 342888,
            "time": 249.19171095000002,
            "value": -0.063232421875
          },
          {
            "ticks": 342940,
            "time": 249.229501625,
            "value": 0
          },
          {
            "ticks": 343204,
            "time": 249.421361975,
            "value": -0.484375
          },
          {
            "ticks": 343240,
            "time": 249.44752475,
            "value": -0.3125
          },
          {
            "ticks": 343260,
            "time": 249.462059625,
            "value": -0.140625
          },
          {
            "ticks": 343308,
            "time": 249.49694332500002,
            "value": -0.0625
          },
          {
            "ticks": 343380,
            "time": 249.549268875,
            "value": -0.063232421875
          },
          {
            "ticks": 343432,
            "time": 249.58705955000002,
            "value": 0
          },
          {
            "ticks": 343492,
            "time": 249.63066417500002,
            "value": -0.0625
          },
          {
            "ticks": 343520,
            "time": 249.651013,
            "value": -0.125
          },
          {
            "ticks": 343548,
            "time": 249.67136182500002,
            "value": -0.265625
          },
          {
            "ticks": 343596,
            "time": 249.706245525,
            "value": -0.375
          },
          {
            "ticks": 343628,
            "time": 249.729501325,
            "value": -0.453125
          },
          {
            "ticks": 343676,
            "time": 249.764385025,
            "value": -0.484375
          },
          {
            "ticks": 343712,
            "time": 249.7905478,
            "value": -0.3125
          },
          {
            "ticks": 343732,
            "time": 249.80508267500002,
            "value": -0.140625
          },
          {
            "ticks": 343780,
            "time": 249.83996637500002,
            "value": -0.0625
          },
          {
            "ticks": 343852,
            "time": 249.89229192500002,
            "value": -0.063232421875
          },
          {
            "ticks": 343904,
            "time": 249.93008260000002,
            "value": 0
          },
          {
            "ticks": 344152,
            "time": 250.11031505,
            "value": -0.484375
          },
          {
            "ticks": 344188,
            "time": 250.136477825,
            "value": -0.3125
          },
          {
            "ticks": 344208,
            "time": 250.15101270000002,
            "value": -0.140625
          },
          {
            "ticks": 344256,
            "time": 250.18589640000002,
            "value": -0.0625
          },
          {
            "ticks": 344328,
            "time": 250.23822195000002,
            "value": -0.063232421875
          },
          {
            "ticks": 344380,
            "time": 250.27601262500002,
            "value": 0
          },
          {
            "ticks": 344632,
            "time": 250.45915205,
            "value": -0.484375
          },
          {
            "ticks": 344668,
            "time": 250.485314825,
            "value": -0.3125
          },
          {
            "ticks": 344688,
            "time": 250.49984970000003,
            "value": -0.140625
          },
          {
            "ticks": 344736,
            "time": 250.53473340000002,
            "value": -0.0625
          },
          {
            "ticks": 344808,
            "time": 250.58705895000003,
            "value": -0.063232421875
          },
          {
            "ticks": 344860,
            "time": 250.62484962500002,
            "value": 0
          },
          {
            "ticks": 345112,
            "time": 250.80798905,
            "value": -0.484375
          },
          {
            "ticks": 345148,
            "time": 250.834151825,
            "value": -0.3125
          },
          {
            "ticks": 345168,
            "time": 250.8486867,
            "value": -0.140625
          },
          {
            "ticks": 345216,
            "time": 250.88357040000002,
            "value": -0.0625
          },
          {
            "ticks": 345288,
            "time": 250.93589595,
            "value": -0.063232421875
          },
          {
            "ticks": 345340,
            "time": 250.97368662500003,
            "value": 0
          },
          {
            "ticks": 345592,
            "time": 251.15682605,
            "value": -0.484375
          },
          {
            "ticks": 345628,
            "time": 251.182988825,
            "value": -0.3125
          },
          {
            "ticks": 345648,
            "time": 251.1975237,
            "value": -0.140625
          },
          {
            "ticks": 345696,
            "time": 251.23240740000003,
            "value": -0.0625
          },
          {
            "ticks": 345768,
            "time": 251.28473295,
            "value": -0.063232421875
          },
          {
            "ticks": 345820,
            "time": 251.32252362500003,
            "value": 0
          },
          {
            "ticks": 346068,
            "time": 251.502756075,
            "value": -0.484375
          },
          {
            "ticks": 346104,
            "time": 251.52891885,
            "value": -0.3125
          },
          {
            "ticks": 346124,
            "time": 251.543453725,
            "value": -0.140625
          },
          {
            "ticks": 346172,
            "time": 251.57833742500003,
            "value": -0.0625
          },
          {
            "ticks": 346244,
            "time": 251.630662975,
            "value": -0.063232421875
          },
          {
            "ticks": 346296,
            "time": 251.66845365000003,
            "value": 0
          },
          {
            "ticks": 346548,
            "time": 251.851593075,
            "value": -0.484375
          },
          {
            "ticks": 346584,
            "time": 251.87775585,
            "value": -0.3125
          },
          {
            "ticks": 346604,
            "time": 251.892290725,
            "value": -0.140625
          },
          {
            "ticks": 346652,
            "time": 251.92717442500003,
            "value": -0.0625
          },
          {
            "ticks": 346724,
            "time": 251.979499975,
            "value": -0.063232421875
          },
          {
            "ticks": 346776,
            "time": 252.01729065000004,
            "value": 0
          },
          {
            "ticks": 347024,
            "time": 252.1975231,
            "value": -0.484375
          },
          {
            "ticks": 347060,
            "time": 252.223685875,
            "value": -0.3125
          },
          {
            "ticks": 347080,
            "time": 252.23822075,
            "value": -0.140625
          },
          {
            "ticks": 347128,
            "time": 252.27310444999998,
            "value": -0.0625
          },
          {
            "ticks": 347200,
            "time": 252.32543,
            "value": -0.063232421875
          },
          {
            "ticks": 347252,
            "time": 252.36322067500004,
            "value": 0
          },
          {
            "ticks": 347296,
            "time": 252.3951974,
            "value": 0.03125
          },
          {
            "ticks": 347316,
            "time": 252.409732275,
            "value": 0.046875
          },
          {
            "ticks": 347324,
            "time": 252.415546225,
            "value": 0.078125
          },
          {
            "ticks": 347336,
            "time": 252.42426715000002,
            "value": 0.109375
          },
          {
            "ticks": 347352,
            "time": 252.43589505,
            "value": 0.140625
          },
          {
            "ticks": 347364,
            "time": 252.44461597499998,
            "value": 0.171875
          },
          {
            "ticks": 347372,
            "time": 252.45042992500004,
            "value": 0.234375
          },
          {
            "ticks": 347384,
            "time": 252.45915085000001,
            "value": 0.265625
          },
          {
            "ticks": 347392,
            "time": 252.46496480000002,
            "value": 0.28125
          },
          {
            "ticks": 347400,
            "time": 252.47077875,
            "value": 0.3125
          },
          {
            "ticks": 347412,
            "time": 252.479499675,
            "value": 0.34375
          },
          {
            "ticks": 347420,
            "time": 252.485313625,
            "value": 0.375
          },
          {
            "ticks": 347432,
            "time": 252.49403455000004,
            "value": 0.40625
          },
          {
            "ticks": 347440,
            "time": 252.4998485,
            "value": 0.4375
          },
          {
            "ticks": 347468,
            "time": 252.520197325,
            "value": 0.78125
          },
          {
            "ticks": 347480,
            "time": 252.52891825,
            "value": 0.875
          },
          {
            "ticks": 347488,
            "time": 252.53473219999998,
            "value": 0.921875
          },
          {
            "ticks": 347496,
            "time": 252.54054615,
            "value": 0.9998779296875
          },
          {
            "ticks": 347528,
            "time": 252.56380195,
            "value": 0
          }
        ],
        "instrument": {
          "family": "guitar",
          "number": 30,
          "name": "distortion guitar"
        },
        "name": "",
        "notes": [
          {
            "duration": 0.3488369999999996,
            "durationTicks": 480,
            "midi": 66,
            "name": "F#4",
            "ticks": 17280,
            "time": 12.558132,
            "velocity": 0.7874015748031497
          },
          {
            "duration": 0.3488369999999996,
            "durationTicks": 480,
            "midi": 71,
            "name": "B4",
            "ticks": 17280,
            "time": 12.558132,
            "velocity": 0.7874015748031497
          },
          {
            "duration": 0.3488369999999996,
            "durationTicks": 480,
            "midi": 78,
            "name": "F#5",
            "ticks": 17280,
            "time": 12.558132,
            "velocity": 1
          },
          {
            "duration": 0.3488369999999996,
            "durationTicks": 480,
            "midi": 66,
            "name": "F#4",
            "ticks": 17760,
            "time": 12.906969,
            "velocity": 0.7874015748031497
          },
          {
            "duration": 0.3488369999999996,
            "durationTicks": 480,
            "midi": 71,
            "name": "B4",
            "ticks": 17760,
            "time": 12.906969,
            "velocity": 0.7874015748031497
          },
          {
            "duration": 0.3488369999999996,
            "durationTicks": 480,
            "midi": 78,
            "name": "F#5",
            "ticks": 17760,
            "time": 12.906969,
            "velocity": 1
          },
          {
            "duration": 0.3488370000000014,
            "durationTicks": 480,
            "midi": 66,
            "name": "F#4",
            "ticks": 18240,
            "time": 13.255806,
            "velocity": 0.7874015748031497
          },
          {
            "duration": 0.3488370000000014,
            "durationTicks": 480,
            "midi": 71,
            "name": "B4",
            "ticks": 18240,
            "time": 13.255806,
            "velocity": 0.7874015748031497
          },
          {
            "duration": 0.3488370000000014,
            "durationTicks": 480,
            "midi": 78,
            "name": "F#5",
            "ticks": 18240,
            "time": 13.255806,
            "velocity": 1
          },
          {
            "duration": 0.3488369999999996,
            "durationTicks": 480,
            "midi": 66,
            "name": "F#4",
            "ticks": 18720,
            "time": 13.604643000000001,
            "velocity": 1
          },
          {
            "duration": 0.3488369999999996,
            "durationTicks": 480,
            "midi": 71,
            "name": "B4",
            "ticks": 18720,
            "time": 13.604643000000001,
            "velocity": 0.7874015748031497
          },
          {
            "duration": 0.3488369999999996,
            "durationTicks": 480,
            "midi": 78,
            "name": "F#5",
            "ticks": 18720,
            "time": 13.604643000000001,
            "velocity": 1
          },
          {
            "duration": 0.3488369999999996,
            "durationTicks": 480,
            "midi": 66,
            "name": "F#4",
            "ticks": 19200,
            "time": 13.95348,
            "velocity": 0.7874015748031497
          },
          {
            "duration": 0.3488369999999996,
            "durationTicks": 480,
            "midi": 71,
            "name": "B4",
            "ticks": 19200,
            "time": 13.95348,
            "velocity": 0.7874015748031497
          },
          {
            "duration": 0.3488369999999996,
            "durationTicks": 480,
            "midi": 78,
            "name": "F#5",
            "ticks": 19200,
            "time": 13.95348,
            "velocity": 1
          },
          {
            "duration": 0.3488369999999996,
            "durationTicks": 480,
            "midi": 66,
            "name": "F#4",
            "ticks": 19680,
            "time": 14.302317,
            "velocity": 0.7874015748031497
          },
          {
            "duration": 0.3488369999999996,
            "durationTicks": 480,
            "midi": 71,
            "name": "B4",
            "ticks": 19680,
            "time": 14.302317,
            "velocity": 0.7874015748031497
          },
          {
            "duration": 0.3488369999999996,
            "durationTicks": 480,
            "midi": 78,
            "name": "F#5",
            "ticks": 19680,
            "time": 14.302317,
            "velocity": 0.7874015748031497
          },
          {
            "duration": 0.3488369999999996,
            "durationTicks": 480,
            "midi": 66,
            "name": "F#4",
            "ticks": 20160,
            "time": 14.651154,
            "velocity": 0.7874015748031497
          },
          {
            "duration": 0.3488369999999996,
            "durationTicks": 480,
            "midi": 71,
            "name": "B4",
            "ticks": 20160,
            "time": 14.651154,
            "velocity": 0.7874015748031497
          },
          {
            "duration": 0.3488369999999996,
            "durationTicks": 480,
            "midi": 78,
            "name": "F#5",
            "ticks": 20160,
            "time": 14.651154,
            "velocity": 1
          },
          {
            "duration": 0.3488370000000014,
            "durationTicks": 480,
            "midi": 66,
            "name": "F#4",
            "ticks": 20640,
            "time": 14.999991,
            "velocity": 0.7874015748031497
          },
          {
            "duration": 0.3488370000000014,
            "durationTicks": 480,
            "midi": 71,
            "name": "B4",
            "ticks": 20640,
            "time": 14.999991,
            "velocity": 0.7874015748031497
          },
          {
            "duration": 0.3488370000000014,
            "durationTicks": 480,
            "midi": 78,
            "name": "F#5",
            "ticks": 20640,
            "time": 14.999991,
            "velocity": 1
          },
          {
            "duration": 0.3488369999999996,
            "durationTicks": 480,
            "midi": 66,
            "name": "F#4",
            "ticks": 21120,
            "time": 15.348828000000001,
            "velocity": 0.7874015748031497
          },
          {
            "duration": 0.3488369999999996,
            "durationTicks": 480,
            "midi": 71,
            "name": "B4",
            "ticks": 21120,
            "time": 15.348828000000001,
            "velocity": 0.7874015748031497
          },
          {
            "duration": 0.3488369999999996,
            "durationTicks": 480,
            "midi": 76,
            "name": "E5",
            "ticks": 21120,
            "time": 15.348828000000001,
            "velocity": 1
          },
          {
            "duration": 0.3488369999999996,
            "durationTicks": 480,
            "midi": 66,
            "name": "F#4",
            "ticks": 21600,
            "time": 15.697665,
            "velocity": 0.7874015748031497
          },
          {
            "duration": 0.3488369999999996,
            "durationTicks": 480,
            "midi": 71,
            "name": "B4",
            "ticks": 21600,
            "time": 15.697665,
            "velocity": 0.7874015748031497
          },
          {
            "duration": 0.3488369999999996,
            "durationTicks": 480,
            "midi": 76,
            "name": "E5",
            "ticks": 21600,
            "time": 15.697665,
            "velocity": 0.7874015748031497
          },
          {
            "duration": 0.3488369999999996,
            "durationTicks": 480,
            "midi": 66,
            "name": "F#4",
            "ticks": 22080,
            "time": 16.046502,
            "velocity": 0.7874015748031497
          },
          {
            "duration": 0.3488369999999996,
            "durationTicks": 480,
            "midi": 71,
            "name": "B4",
            "ticks": 22080,
            "time": 16.046502,
            "velocity": 0.7874015748031497
          },
          {
            "duration": 0.3488369999999996,
            "durationTicks": 480,
            "midi": 76,
            "name": "E5",
            "ticks": 22080,
            "time": 16.046502,
            "velocity": 1
          },
          {
            "duration": 0.3488369999999996,
            "durationTicks": 480,
            "midi": 66,
            "name": "F#4",
            "ticks": 22560,
            "time": 16.395339,
            "velocity": 0.7874015748031497
          },
          {
            "duration": 0.3488369999999996,
            "durationTicks": 480,
            "midi": 71,
            "name": "B4",
            "ticks": 22560,
            "time": 16.395339,
            "velocity": 0.7874015748031497
          },
          {
            "duration": 0.3488369999999996,
            "durationTicks": 480,
            "midi": 76,
            "name": "E5",
            "ticks": 22560,
            "time": 16.395339,
            "velocity": 1
          },
          {
            "duration": 0.3488369999999996,
            "durationTicks": 480,
            "midi": 66,
            "name": "F#4",
            "ticks": 23040,
            "time": 16.744176,
            "velocity": 0.7874015748031497
          },
          {
            "duration": 0.3488369999999996,
            "durationTicks": 480,
            "midi": 71,
            "name": "B4",
            "ticks": 23040,
            "time": 16.744176,
            "velocity": 0.7874015748031497
          },
          {
            "duration": 0.3488369999999996,
            "durationTicks": 480,
            "midi": 76,
            "name": "E5",
            "ticks": 23040,
            "time": 16.744176,
            "velocity": 1
          },
          {
            "duration": 0.3488369999999996,
            "durationTicks": 480,
            "midi": 66,
            "name": "F#4",
            "ticks": 23520,
            "time": 17.093013,
            "velocity": 0.7874015748031497
          },
          {
            "duration": 0.3488369999999996,
            "durationTicks": 480,
            "midi": 71,
            "name": "B4",
            "ticks": 23520,
            "time": 17.093013,
            "velocity": 0.7874015748031497
          },
          {
            "duration": 0.3488369999999996,
            "durationTicks": 480,
            "midi": 76,
            "name": "E5",
            "ticks": 23520,
            "time": 17.093013,
            "velocity": 1
          },
          {
            "duration": 0.3488370000000032,
            "durationTicks": 480,
            "midi": 66,
            "name": "F#4",
            "ticks": 24000,
            "time": 17.44185,
            "velocity": 0.7874015748031497
          },
          {
            "duration": 0.3488370000000032,
            "durationTicks": 480,
            "midi": 71,
            "name": "B4",
            "ticks": 24000,
            "time": 17.44185,
            "velocity": 0.7874015748031497
          },
          {
            "duration": 0.3488370000000032,
            "durationTicks": 480,
            "midi": 76,
            "name": "E5",
            "ticks": 24000,
            "time": 17.44185,
            "velocity": 1
          },
          {
            "duration": 0.3488369999999996,
            "durationTicks": 480,
            "midi": 66,
            "name": "F#4",
            "ticks": 24480,
            "time": 17.790687000000002,
            "velocity": 0.7874015748031497
          },
          {
            "duration": 0.3488369999999996,
            "durationTicks": 480,
            "midi": 71,
            "name": "B4",
            "ticks": 24480,
            "time": 17.790687000000002,
            "velocity": 0.7874015748031497
          },
          {
            "duration": 0.3488369999999996,
            "durationTicks": 480,
            "midi": 76,
            "name": "E5",
            "ticks": 24480,
            "time": 17.790687000000002,
            "velocity": 1
          },
          {
            "duration": 0.3488369999999996,
            "durationTicks": 480,
            "midi": 66,
            "name": "F#4",
            "ticks": 24960,
            "time": 18.139524,
            "velocity": 0.7874015748031497
          },
          {
            "duration": 0.3488369999999996,
            "durationTicks": 480,
            "midi": 73,
            "name": "C#5",
            "ticks": 24960,
            "time": 18.139524,
            "velocity": 1
          },
          {
            "duration": 0.3488369999999996,
            "durationTicks": 480,
            "midi": 78,
            "name": "F#5",
            "ticks": 24960,
            "time": 18.139524,
            "velocity": 0.7874015748031497
          },
          {
            "duration": 0.3488369999999996,
            "durationTicks": 480,
            "midi": 82,
            "name": "A#5",
            "ticks": 24960,
            "time": 18.139524,
            "velocity": 1
          },
          {
            "duration": 0.3488369999999996,
            "durationTicks": 480,
            "midi": 66,
            "name": "F#4",
            "ticks": 25440,
            "time": 18.488361,
            "velocity": 0.7874015748031497
          },
          {
            "duration": 0.3488369999999996,
            "durationTicks": 480,
            "midi": 73,
            "name": "C#5",
            "ticks": 25440,
            "time": 18.488361,
            "velocity": 1
          },
          {
            "duration": 0.3488369999999996,
            "durationTicks": 480,
            "midi": 78,
            "name": "F#5",
            "ticks": 25440,
            "time": 18.488361,
            "velocity": 0.7874015748031497
          },
          {
            "duration": 0.3488369999999996,
            "durationTicks": 480,
            "midi": 82,
            "name": "A#5",
            "ticks": 25440,
            "time": 18.488361,
            "velocity": 0.7874015748031497
          },
          {
            "duration": 0.3488369999999996,
            "durationTicks": 480,
            "midi": 66,
            "name": "F#4",
            "ticks": 25920,
            "time": 18.837198,
            "velocity": 0.7874015748031497
          },
          {
            "duration": 0.3488369999999996,
            "durationTicks": 480,
            "midi": 73,
            "name": "C#5",
            "ticks": 25920,
            "time": 18.837198,
            "velocity": 1
          },
          {
            "duration": 0.3488369999999996,
            "durationTicks": 480,
            "midi": 78,
            "name": "F#5",
            "ticks": 25920,
            "time": 18.837198,
            "velocity": 0.7874015748031497
          },
          {
            "duration": 0.3488369999999996,
            "durationTicks": 480,
            "midi": 82,
            "name": "A#5",
            "ticks": 25920,
            "time": 18.837198,
            "velocity": 1
          },
          {
            "duration": 0.3488369999999996,
            "durationTicks": 480,
            "midi": 66,
            "name": "F#4",
            "ticks": 26400,
            "time": 19.186035,
            "velocity": 0.7874015748031497
          },
          {
            "duration": 0.3488369999999996,
            "durationTicks": 480,
            "midi": 73,
            "name": "C#5",
            "ticks": 26400,
            "time": 19.186035,
            "velocity": 1
          },
          {
            "duration": 0.3488369999999996,
            "durationTicks": 480,
            "midi": 78,
            "name": "F#5",
            "ticks": 26400,
            "time": 19.186035,
            "velocity": 0.7874015748031497
          },
          {
            "duration": 0.3488369999999996,
            "durationTicks": 480,
            "midi": 82,
            "name": "A#5",
            "ticks": 26400,
            "time": 19.186035,
            "velocity": 1
          },
          {
            "duration": 0.3488369999999996,
            "durationTicks": 480,
            "midi": 66,
            "name": "F#4",
            "ticks": 26880,
            "time": 19.534872,
            "velocity": 0.7874015748031497
          },
          {
            "duration": 0.3488369999999996,
            "durationTicks": 480,
            "midi": 73,
            "name": "C#5",
            "ticks": 26880,
            "time": 19.534872,
            "velocity": 0.7874015748031497
          },
          {
            "duration": 0.3488369999999996,
            "durationTicks": 480,
            "midi": 78,
            "name": "F#5",
            "ticks": 26880,
            "time": 19.534872,
            "velocity": 0.7874015748031497
          },
          {
            "duration": 0.3488369999999996,
            "durationTicks": 480,
            "midi": 82,
            "name": "A#5",
            "ticks": 26880,
            "time": 19.534872,
            "velocity": 1
          },
          {
            "duration": 0.3488369999999996,
            "durationTicks": 480,
            "midi": 66,
            "name": "F#4",
            "ticks": 27360,
            "time": 19.883709,
            "velocity": 0.7874015748031497
          },
          {
            "duration": 0.3488369999999996,
            "durationTicks": 480,
            "midi": 73,
            "name": "C#5",
            "ticks": 27360,
            "time": 19.883709,
            "velocity": 0.7874015748031497
          },
          {
            "duration": 0.3488369999999996,
            "durationTicks": 480,
            "midi": 78,
            "name": "F#5",
            "ticks": 27360,
            "time": 19.883709,
            "velocity": 0.7874015748031497
          },
          {
            "duration": 0.3488369999999996,
            "durationTicks": 480,
            "midi": 82,
            "name": "A#5",
            "ticks": 27360,
            "time": 19.883709,
            "velocity": 1
          },
          {
            "duration": 0.3488369999999996,
            "durationTicks": 480,
            "midi": 66,
            "name": "F#4",
            "ticks": 27840,
            "time": 20.232546,
            "velocity": 0.7874015748031497
          },
          {
            "duration": 0.3488369999999996,
            "durationTicks": 480,
            "midi": 73,
            "name": "C#5",
            "ticks": 27840,
            "time": 20.232546,
            "velocity": 0.7874015748031497
          },
          {
            "duration": 0.3488369999999996,
            "durationTicks": 480,
            "midi": 78,
            "name": "F#5",
            "ticks": 27840,
            "time": 20.232546,
            "velocity": 0.7874015748031497
          },
          {
            "duration": 0.3488369999999996,
            "durationTicks": 480,
            "midi": 82,
            "name": "A#5",
            "ticks": 27840,
            "time": 20.232546,
            "velocity": 1
          },
          {
            "duration": 0.3488370000000032,
            "durationTicks": 480,
            "midi": 66,
            "name": "F#4",
            "ticks": 28320,
            "time": 20.581383,
            "velocity": 0.7874015748031497
          },
          {
            "duration": 0.3488370000000032,
            "durationTicks": 480,
            "midi": 73,
            "name": "C#5",
            "ticks": 28320,
            "time": 20.581383,
            "velocity": 0.7874015748031497
          },
          {
            "duration": 0.3488370000000032,
            "durationTicks": 480,
            "midi": 78,
            "name": "F#5",
            "ticks": 28320,
            "time": 20.581383,
            "velocity": 0.7874015748031497
          },
          {
            "duration": 0.3488370000000032,
            "durationTicks": 480,
            "midi": 82,
            "name": "A#5",
            "ticks": 28320,
            "time": 20.581383,
            "velocity": 1
          },
          {
            "duration": 0.3488369999999996,
            "durationTicks": 480,
            "midi": 66,
            "name": "F#4",
            "ticks": 28800,
            "time": 20.930220000000002,
            "velocity": 0.7874015748031497
          },
          {
            "duration": 0.3488369999999996,
            "durationTicks": 480,
            "midi": 70,
            "name": "A#4",
            "ticks": 28800,
            "time": 20.930220000000002,
            "velocity": 0.7874015748031497
          },
          {
            "duration": 0.3488369999999996,
            "durationTicks": 480,
            "midi": 73,
            "name": "C#5",
            "ticks": 28800,
            "time": 20.930220000000002,
            "velocity": 0.7874015748031497
          },
          {
            "duration": 0.3488369999999996,
            "durationTicks": 480,
            "midi": 80,
            "name": "G#5",
            "ticks": 28800,
            "time": 20.930220000000002,
            "velocity": 1
          },
          {
            "duration": 0.3488369999999996,
            "durationTicks": 480,
            "midi": 66,
            "name": "F#4",
            "ticks": 29280,
            "time": 21.279057,
            "velocity": 0.7874015748031497
          },
          {
            "duration": 0.3488369999999996,
            "durationTicks": 480,
            "midi": 70,
            "name": "A#4",
            "ticks": 29280,
            "time": 21.279057,
            "velocity": 0.7874015748031497
          },
          {
            "duration": 0.3488369999999996,
            "durationTicks": 480,
            "midi": 73,
            "name": "C#5",
            "ticks": 29280,
            "time": 21.279057,
            "velocity": 0.7874015748031497
          },
          {
            "duration": 0.3488369999999996,
            "durationTicks": 480,
            "midi": 80,
            "name": "G#5",
            "ticks": 29280,
            "time": 21.279057,
            "velocity": 1
          },
          {
            "duration": 0.3488369999999996,
            "durationTicks": 480,
            "midi": 66,
            "name": "F#4",
            "ticks": 29760,
            "time": 21.627894,
            "velocity": 0.7874015748031497
          },
          {
            "duration": 0.3488369999999996,
            "durationTicks": 480,
            "midi": 70,
            "name": "A#4",
            "ticks": 29760,
            "time": 21.627894,
            "velocity": 0.7874015748031497
          },
          {
            "duration": 0.3488369999999996,
            "durationTicks": 480,
            "midi": 73,
            "name": "C#5",
            "ticks": 29760,
            "time": 21.627894,
            "velocity": 0.7874015748031497
          },
          {
            "duration": 0.3488369999999996,
            "durationTicks": 480,
            "midi": 80,
            "name": "G#5",
            "ticks": 29760,
            "time": 21.627894,
            "velocity": 1
          },
          {
            "duration": 0.3488369999999996,
            "durationTicks": 480,
            "midi": 66,
            "name": "F#4",
            "ticks": 30240,
            "time": 21.976731,
            "velocity": 0.7874015748031497
          },
          {
            "duration": 0.3488369999999996,
            "durationTicks": 480,
            "midi": 70,
            "name": "A#4",
            "ticks": 30240,
            "time": 21.976731,
            "velocity": 0.7874015748031497
          },
          {
            "duration": 0.3488369999999996,
            "durationTicks": 480,
            "midi": 73,
            "name": "C#5",
            "ticks": 30240,
            "time": 21.976731,
            "velocity": 0.7874015748031497
          },
          {
            "duration": 0.3488369999999996,
            "durationTicks": 480,
            "midi": 80,
            "name": "G#5",
            "ticks": 30240,
            "time": 21.976731,
            "velocity": 1
          },
          {
            "duration": 0.3488369999999996,
            "durationTicks": 480,
            "midi": 66,
            "name": "F#4",
            "ticks": 30720,
            "time": 22.325568,
            "velocity": 0.7874015748031497
          },
          {
            "duration": 0.3488369999999996,
            "durationTicks": 480,
            "midi": 70,
            "name": "A#4",
            "ticks": 30720,
            "time": 22.325568,
            "velocity": 0.7874015748031497
          },
          {
            "duration": 0.3488369999999996,
            "durationTicks": 480,
            "midi": 73,
            "name": "C#5",
            "ticks": 30720,
            "time": 22.325568,
            "velocity": 0.7874015748031497
          },
          {
            "duration": 0.3488369999999996,
            "durationTicks": 480,
            "midi": 80,
            "name": "G#5",
            "ticks": 30720,
            "time": 22.325568,
            "velocity": 1
          },
          {
            "duration": 0.3488369999999996,
            "durationTicks": 480,
            "midi": 66,
            "name": "F#4",
            "ticks": 31200,
            "time": 22.674405,
            "velocity": 0.7874015748031497
          },
          {
            "duration": 0.3488369999999996,
            "durationTicks": 480,
            "midi": 70,
            "name": "A#4",
            "ticks": 31200,
            "time": 22.674405,
            "velocity": 0.7874015748031497
          },
          {
            "duration": 0.3488369999999996,
            "durationTicks": 480,
            "midi": 73,
            "name": "C#5",
            "ticks": 31200,
            "time": 22.674405,
            "velocity": 0.7874015748031497
          },
          {
            "duration": 0.3488369999999996,
            "durationTicks": 480,
            "midi": 80,
            "name": "G#5",
            "ticks": 31200,
            "time": 22.674405,
            "velocity": 1
          },
          {
            "duration": 0.3488369999999996,
            "durationTicks": 480,
            "midi": 66,
            "name": "F#4",
            "ticks": 31680,
            "time": 23.023242,
            "velocity": 0.7874015748031497
          },
          {
            "duration": 0.3488369999999996,
            "durationTicks": 480,
            "midi": 70,
            "name": "A#4",
            "ticks": 31680,
            "time": 23.023242,
            "velocity": 0.7874015748031497
          },
          {
            "duration": 0.3488369999999996,
            "durationTicks": 480,
            "midi": 73,
            "name": "C#5",
            "ticks": 31680,
            "time": 23.023242,
            "velocity": 1
          },
          {
            "duration": 0.3488369999999996,
            "durationTicks": 480,
            "midi": 80,
            "name": "G#5",
            "ticks": 31680,
            "time": 23.023242,
            "velocity": 1
          },
          {
            "duration": 0.3488369999999996,
            "durationTicks": 480,
            "midi": 70,
            "name": "A#4",
            "ticks": 32160,
            "time": 23.372079,
            "velocity": 0.7874015748031497
          },
          {
            "duration": 0.3488369999999996,
            "durationTicks": 480,
            "midi": 73,
            "name": "C#5",
            "ticks": 32160,
            "time": 23.372079,
            "velocity": 0.7874015748031497
          },
          {
            "duration": 0.2616277500000024,
            "durationTicks": 360,
            "midi": 75,
            "name": "D#5",
            "ticks": 32160,
            "time": 23.372079,
            "velocity": 1
          },
          {
            "duration": 0.3488370000000032,
            "durationTicks": 480,
            "midi": 52,
            "name": "E3",
            "ticks": 32640,
            "time": 23.720916,
            "velocity": 0.7874015748031497
          },
          {
            "duration": 0.3488370000000032,
            "durationTicks": 480,
            "midi": 61,
            "name": "C#4",
            "ticks": 32640,
            "time": 23.720916,
            "velocity": 0.7874015748031497
          },
          {
            "duration": 0.3488370000000032,
            "durationTicks": 480,
            "midi": 68,
            "name": "G#4",
            "ticks": 32640,
            "time": 23.720916,
            "velocity": 0.7874015748031497
          },
          {
            "duration": 0.3488370000000032,
            "durationTicks": 480,
            "midi": 73,
            "name": "C#5",
            "ticks": 32640,
            "time": 23.720916,
            "velocity": 0.7874015748031497
          },
          {
            "duration": 0.3488369999999996,
            "durationTicks": 480,
            "midi": 52,
            "name": "E3",
            "ticks": 33120,
            "time": 24.069753000000002,
            "velocity": 0.7874015748031497
          },
          {
            "duration": 0.3488369999999996,
            "durationTicks": 480,
            "midi": 61,
            "name": "C#4",
            "ticks": 33120,
            "time": 24.069753000000002,
            "velocity": 0.7874015748031497
          },
          {
            "duration": 0.3488369999999996,
            "durationTicks": 480,
            "midi": 68,
            "name": "G#4",
            "ticks": 33120,
            "time": 24.069753000000002,
            "velocity": 0.7874015748031497
          },
          {
            "duration": 0.3488369999999996,
            "durationTicks": 480,
            "midi": 73,
            "name": "C#5",
            "ticks": 33120,
            "time": 24.069753000000002,
            "velocity": 1
          },
          {
            "duration": 0.3488369999999996,
            "durationTicks": 480,
            "midi": 52,
            "name": "E3",
            "ticks": 33600,
            "time": 24.418590000000002,
            "velocity": 0.7874015748031497
          },
          {
            "duration": 0.3488369999999996,
            "durationTicks": 480,
            "midi": 61,
            "name": "C#4",
            "ticks": 33600,
            "time": 24.418590000000002,
            "velocity": 0.7874015748031497
          },
          {
            "duration": 0.3488369999999996,
            "durationTicks": 480,
            "midi": 68,
            "name": "G#4",
            "ticks": 33600,
            "time": 24.418590000000002,
            "velocity": 0.7874015748031497
          },
          {
            "duration": 0.3488369999999996,
            "durationTicks": 480,
            "midi": 73,
            "name": "C#5",
            "ticks": 33600,
            "time": 24.418590000000002,
            "velocity": 1
          },
          {
            "duration": 0.3488369999999996,
            "durationTicks": 480,
            "midi": 52,
            "name": "E3",
            "ticks": 34080,
            "time": 24.767427,
            "velocity": 0.7874015748031497
          },
          {
            "duration": 0.3488369999999996,
            "durationTicks": 480,
            "midi": 61,
            "name": "C#4",
            "ticks": 34080,
            "time": 24.767427,
            "velocity": 0.7874015748031497
          },
          {
            "duration": 0.3488369999999996,
            "durationTicks": 480,
            "midi": 68,
            "name": "G#4",
            "ticks": 34080,
            "time": 24.767427,
            "velocity": 0.7874015748031497
          },
          {
            "duration": 0.3488369999999996,
            "durationTicks": 480,
            "midi": 73,
            "name": "C#5",
            "ticks": 34080,
            "time": 24.767427,
            "velocity": 1
          },
          {
            "duration": 0.3488369999999996,
            "durationTicks": 480,
            "midi": 52,
            "name": "E3",
            "ticks": 34560,
            "time": 25.116264,
            "velocity": 0.7874015748031497
          },
          {
            "duration": 0.3488369999999996,
            "durationTicks": 480,
            "midi": 61,
            "name": "C#4",
            "ticks": 34560,
            "time": 25.116264,
            "velocity": 0.7874015748031497
          },
          {
            "duration": 0.3488369999999996,
            "durationTicks": 480,
            "midi": 68,
            "name": "G#4",
            "ticks": 34560,
            "time": 25.116264,
            "velocity": 0.7874015748031497
          },
          {
            "duration": 0.3488369999999996,
            "durationTicks": 480,
            "midi": 73,
            "name": "C#5",
            "ticks": 34560,
            "time": 25.116264,
            "velocity": 1
          },
          {
            "duration": 0.3488369999999996,
            "durationTicks": 480,
            "midi": 52,
            "name": "E3",
            "ticks": 35040,
            "time": 25.465101,
            "velocity": 0.7874015748031497
          },
          {
            "duration": 0.3488369999999996,
            "durationTicks": 480,
            "midi": 61,
            "name": "C#4",
            "ticks": 35040,
            "time": 25.465101,
            "velocity": 0.7874015748031497
          },
          {
            "duration": 0.3488369999999996,
            "durationTicks": 480,
            "midi": 68,
            "name": "G#4",
            "ticks": 35040,
            "time": 25.465101,
            "velocity": 0.7874015748031497
          },
          {
            "duration": 0.3488369999999996,
            "durationTicks": 480,
            "midi": 73,
            "name": "C#5",
            "ticks": 35040,
            "time": 25.465101,
            "velocity": 1
          },
          {
            "duration": 0.3488369999999996,
            "durationTicks": 480,
            "midi": 52,
            "name": "E3",
            "ticks": 35520,
            "time": 25.813938,
            "velocity": 0.7874015748031497
          },
          {
            "duration": 0.3488369999999996,
            "durationTicks": 480,
            "midi": 61,
            "name": "C#4",
            "ticks": 35520,
            "time": 25.813938,
            "velocity": 0.7874015748031497
          },
          {
            "duration": 0.3488369999999996,
            "durationTicks": 480,
            "midi": 68,
            "name": "G#4",
            "ticks": 35520,
            "time": 25.813938,
            "velocity": 0.7874015748031497
          },
          {
            "duration": 0.3488369999999996,
            "durationTicks": 480,
            "midi": 73,
            "name": "C#5",
            "ticks": 35520,
            "time": 25.813938,
            "velocity": 0.7874015748031497
          },
          {
            "duration": 0.3488369999999996,
            "durationTicks": 480,
            "midi": 52,
            "name": "E3",
            "ticks": 36000,
            "time": 26.162775,
            "velocity": 0.7874015748031497
          },
          {
            "duration": 0.3488369999999996,
            "durationTicks": 480,
            "midi": 61,
            "name": "C#4",
            "ticks": 36000,
            "time": 26.162775,
            "velocity": 0.7874015748031497
          },
          {
            "duration": 0.3488369999999996,
            "durationTicks": 480,
            "midi": 68,
            "name": "G#4",
            "ticks": 36000,
            "time": 26.162775,
            "velocity": 0.7874015748031497
          },
          {
            "duration": 0.3488369999999996,
            "durationTicks": 480,
            "midi": 73,
            "name": "C#5",
            "ticks": 36000,
            "time": 26.162775,
            "velocity": 1
          },
          {
            "duration": 0.3488369999999996,
            "durationTicks": 480,
            "midi": 59,
            "name": "B3",
            "ticks": 36480,
            "time": 26.511612,
            "velocity": 0.7874015748031497
          },
          {
            "duration": 0.3488369999999996,
            "durationTicks": 480,
            "midi": 66,
            "name": "F#4",
            "ticks": 36480,
            "time": 26.511612,
            "velocity": 0.7874015748031497
          },
          {
            "duration": 0.3488369999999996,
            "durationTicks": 480,
            "midi": 71,
            "name": "B4",
            "ticks": 36480,
            "time": 26.511612,
            "velocity": 1
          },
          {
            "duration": 0.3488370000000032,
            "durationTicks": 480,
            "midi": 52,
            "name": "E3",
            "ticks": 36960,
            "time": 26.860449,
            "velocity": 0.7874015748031497
          },
          {
            "duration": 0.3488370000000032,
            "durationTicks": 480,
            "midi": 59,
            "name": "B3",
            "ticks": 36960,
            "time": 26.860449,
            "velocity": 0.7874015748031497
          },
          {
            "duration": 0.3488370000000032,
            "durationTicks": 480,
            "midi": 66,
            "name": "F#4",
            "ticks": 36960,
            "time": 26.860449,
            "velocity": 0.7874015748031497
          },
          {
            "duration": 0.3488370000000032,
            "durationTicks": 480,
            "midi": 71,
            "name": "B4",
            "ticks": 36960,
            "time": 26.860449,
            "velocity": 1
          },
          {
            "duration": 0.3488369999999996,
            "durationTicks": 480,
            "midi": 52,
            "name": "E3",
            "ticks": 37440,
            "time": 27.209286000000002,
            "velocity": 0.7874015748031497
          },
          {
            "duration": 0.3488369999999996,
            "durationTicks": 480,
            "midi": 59,
            "name": "B3",
            "ticks": 37440,
            "time": 27.209286000000002,
            "velocity": 0.7874015748031497
          },
          {
            "duration": 0.3488369999999996,
            "durationTicks": 480,
            "midi": 66,
            "name": "F#4",
            "ticks": 37440,
            "time": 27.209286000000002,
            "velocity": 1
          },
          {
            "duration": 0.3488369999999996,
            "durationTicks": 480,
            "midi": 71,
            "name": "B4",
            "ticks": 37440,
            "time": 27.209286000000002,
            "velocity": 1
          },
          {
            "duration": 0.3488369999999996,
            "durationTicks": 480,
            "midi": 52,
            "name": "E3",
            "ticks": 37920,
            "time": 27.558123000000002,
            "velocity": 0.7874015748031497
          },
          {
            "duration": 0.3488369999999996,
            "durationTicks": 480,
            "midi": 59,
            "name": "B3",
            "ticks": 37920,
            "time": 27.558123000000002,
            "velocity": 0.7874015748031497
          },
          {
            "duration": 0.3488369999999996,
            "durationTicks": 480,
            "midi": 66,
            "name": "F#4",
            "ticks": 37920,
            "time": 27.558123000000002,
            "velocity": 0.7874015748031497
          },
          {
            "duration": 0.3488369999999996,
            "durationTicks": 480,
            "midi": 71,
            "name": "B4",
            "ticks": 37920,
            "time": 27.558123000000002,
            "velocity": 0.7874015748031497
          },
          {
            "duration": 0.3488369999999996,
            "durationTicks": 480,
            "midi": 52,
            "name": "E3",
            "ticks": 38400,
            "time": 27.90696,
            "velocity": 0.7874015748031497
          },
          {
            "duration": 0.3488369999999996,
            "durationTicks": 480,
            "midi": 59,
            "name": "B3",
            "ticks": 38400,
            "time": 27.90696,
            "velocity": 0.7874015748031497
          },
          {
            "duration": 0.3488369999999996,
            "durationTicks": 480,
            "midi": 66,
            "name": "F#4",
            "ticks": 38400,
            "time": 27.90696,
            "velocity": 0.7874015748031497
          },
          {
            "duration": 0.3488369999999996,
            "durationTicks": 480,
            "midi": 71,
            "name": "B4",
            "ticks": 38400,
            "time": 27.90696,
            "velocity": 1
          },
          {
            "duration": 0.3488369999999996,
            "durationTicks": 480,
            "midi": 52,
            "name": "E3",
            "ticks": 38880,
            "time": 28.255797,
            "velocity": 0.7874015748031497
          },
          {
            "duration": 0.3488369999999996,
            "durationTicks": 480,
            "midi": 59,
            "name": "B3",
            "ticks": 38880,
            "time": 28.255797,
            "velocity": 0.7874015748031497
          },
          {
            "duration": 0.3488369999999996,
            "durationTicks": 480,
            "midi": 66,
            "name": "F#4",
            "ticks": 38880,
            "time": 28.255797,
            "velocity": 0.7874015748031497
          },
          {
            "duration": 0.3488369999999996,
            "durationTicks": 480,
            "midi": 71,
            "name": "B4",
            "ticks": 38880,
            "time": 28.255797,
            "velocity": 1
          },
          {
            "duration": 0.3488369999999996,
            "durationTicks": 480,
            "midi": 52,
            "name": "E3",
            "ticks": 39360,
            "time": 28.604634,
            "velocity": 0.7874015748031497
          },
          {
            "duration": 0.3488369999999996,
            "durationTicks": 480,
            "midi": 59,
            "name": "B3",
            "ticks": 39360,
            "time": 28.604634,
            "velocity": 0.7874015748031497
          },
          {
            "duration": 0.3488369999999996,
            "durationTicks": 480,
            "midi": 66,
            "name": "F#4",
            "ticks": 39360,
            "time": 28.604634,
            "velocity": 0.7874015748031497
          },
          {
            "duration": 0.3488369999999996,
            "durationTicks": 480,
            "midi": 71,
            "name": "B4",
            "ticks": 39360,
            "time": 28.604634,
            "velocity": 1
          },
          {
            "duration": 0.3488369999999996,
            "durationTicks": 480,
            "midi": 52,
            "name": "E3",
            "ticks": 39840,
            "time": 28.953471,
            "velocity": 0.7874015748031497
          },
          {
            "duration": 0.3488369999999996,
            "durationTicks": 480,
            "midi": 59,
            "name": "B3",
            "ticks": 39840,
            "time": 28.953471,
            "velocity": 0.7874015748031497
          },
          {
            "duration": 0.3488369999999996,
            "durationTicks": 480,
            "midi": 66,
            "name": "F#4",
            "ticks": 39840,
            "time": 28.953471,
            "velocity": 0.7874015748031497
          },
          {
            "duration": 0.3488369999999996,
            "durationTicks": 480,
            "midi": 71,
            "name": "B4",
            "ticks": 39840,
            "time": 28.953471,
            "velocity": 1
          },
          {
            "duration": 0.3488369999999996,
            "durationTicks": 480,
            "midi": 66,
            "name": "F#4",
            "ticks": 40320,
            "time": 29.302308,
            "velocity": 0.7874015748031497
          },
          {
            "duration": 0.3488369999999996,
            "durationTicks": 480,
            "midi": 71,
            "name": "B4",
            "ticks": 40320,
            "time": 29.302308,
            "velocity": 0.7874015748031497
          },
          {
            "duration": 0.3488369999999996,
            "durationTicks": 480,
            "midi": 78,
            "name": "F#5",
            "ticks": 40320,
            "time": 29.302308,
            "velocity": 1
          },
          {
            "duration": 0.3488369999999996,
            "durationTicks": 480,
            "midi": 66,
            "name": "F#4",
            "ticks": 40800,
            "time": 29.651145,
            "velocity": 0.7874015748031497
          },
          {
            "duration": 0.3488369999999996,
            "durationTicks": 480,
            "midi": 71,
            "name": "B4",
            "ticks": 40800,
            "time": 29.651145,
            "velocity": 0.7874015748031497
          },
          {
            "duration": 0.3488369999999996,
            "durationTicks": 480,
            "midi": 78,
            "name": "F#5",
            "ticks": 40800,
            "time": 29.651145,
            "velocity": 1
          },
          {
            "duration": 0.3488370000000032,
            "durationTicks": 480,
            "midi": 66,
            "name": "F#4",
            "ticks": 41280,
            "time": 29.999982,
            "velocity": 0.7874015748031497
          },
          {
            "duration": 0.3488370000000032,
            "durationTicks": 480,
            "midi": 66,
            "name": "F#4",
            "ticks": 41280,
            "time": 29.999982,
            "velocity": 0.7874015748031497
          },
          {
            "duration": 0.3488370000000032,
            "durationTicks": 480,
            "midi": 71,
            "name": "B4",
            "ticks": 41280,
            "time": 29.999982,
            "velocity": 0.7874015748031497
          },
          {
            "duration": 0.3488370000000032,
            "durationTicks": 480,
            "midi": 78,
            "name": "F#5",
            "ticks": 41280,
            "time": 29.999982,
            "velocity": 1
          },
          {
            "duration": 0.3488369999999996,
            "durationTicks": 480,
            "midi": 66,
            "name": "F#4",
            "ticks": 41760,
            "time": 30.348819000000002,
            "velocity": 0.7874015748031497
          },
          {
            "duration": 0.3488369999999996,
            "durationTicks": 480,
            "midi": 71,
            "name": "B4",
            "ticks": 41760,
            "time": 30.348819000000002,
            "velocity": 0.7874015748031497
          },
          {
            "duration": 0.3488369999999996,
            "durationTicks": 480,
            "midi": 78,
            "name": "F#5",
            "ticks": 41760,
            "time": 30.348819000000002,
            "velocity": 1
          },
          {
            "duration": 0.3488369999999996,
            "durationTicks": 480,
            "midi": 66,
            "name": "F#4",
            "ticks": 42240,
            "time": 30.697656000000002,
            "velocity": 0.7874015748031497
          },
          {
            "duration": 0.3488369999999996,
            "durationTicks": 480,
            "midi": 71,
            "name": "B4",
            "ticks": 42240,
            "time": 30.697656000000002,
            "velocity": 0.7874015748031497
          },
          {
            "duration": 0.3488369999999996,
            "durationTicks": 480,
            "midi": 78,
            "name": "F#5",
            "ticks": 42240,
            "time": 30.697656000000002,
            "velocity": 1
          },
          {
            "duration": 0.3488369999999996,
            "durationTicks": 480,
            "midi": 66,
            "name": "F#4",
            "ticks": 42720,
            "time": 31.046493,
            "velocity": 0.7874015748031497
          },
          {
            "duration": 0.3488369999999996,
            "durationTicks": 480,
            "midi": 71,
            "name": "B4",
            "ticks": 42720,
            "time": 31.046493,
            "velocity": 0.7874015748031497
          },
          {
            "duration": 0.3488369999999996,
            "durationTicks": 480,
            "midi": 78,
            "name": "F#5",
            "ticks": 42720,
            "time": 31.046493,
            "velocity": 1
          },
          {
            "duration": 0.3488369999999996,
            "durationTicks": 480,
            "midi": 66,
            "name": "F#4",
            "ticks": 43200,
            "time": 31.39533,
            "velocity": 0.7874015748031497
          },
          {
            "duration": 0.3488369999999996,
            "durationTicks": 480,
            "midi": 71,
            "name": "B4",
            "ticks": 43200,
            "time": 31.39533,
            "velocity": 0.7874015748031497
          },
          {
            "duration": 0.3488369999999996,
            "durationTicks": 480,
            "midi": 78,
            "name": "F#5",
            "ticks": 43200,
            "time": 31.39533,
            "velocity": 1
          },
          {
            "duration": 0.3488369999999996,
            "durationTicks": 480,
            "midi": 66,
            "name": "F#4",
            "ticks": 43680,
            "time": 31.744167,
            "velocity": 0.7874015748031497
          },
          {
            "duration": 0.3488369999999996,
            "durationTicks": 480,
            "midi": 71,
            "name": "B4",
            "ticks": 43680,
            "time": 31.744167,
            "velocity": 0.7874015748031497
          },
          {
            "duration": 0.3488369999999996,
            "durationTicks": 480,
            "midi": 78,
            "name": "F#5",
            "ticks": 43680,
            "time": 31.744167,
            "velocity": 1
          },
          {
            "duration": 0.3488370000000032,
            "durationTicks": 480,
            "midi": 66,
            "name": "F#4",
            "ticks": 44160,
            "time": 32.093004,
            "velocity": 1
          },
          {
            "duration": 0.3488370000000032,
            "durationTicks": 480,
            "midi": 71,
            "name": "B4",
            "ticks": 44160,
            "time": 32.093004,
            "velocity": 0.7874015748031497
          },
          {
            "duration": 0.3488370000000032,
            "durationTicks": 480,
            "midi": 76,
            "name": "E5",
            "ticks": 44160,
            "time": 32.093004,
            "velocity": 1
          },
          {
            "duration": 0.34883699999999607,
            "durationTicks": 480,
            "midi": 66,
            "name": "F#4",
            "ticks": 44640,
            "time": 32.441841000000004,
            "velocity": 0.7874015748031497
          },
          {
            "duration": 0.34883699999999607,
            "durationTicks": 480,
            "midi": 71,
            "name": "B4",
            "ticks": 44640,
            "time": 32.441841000000004,
            "velocity": 0.7874015748031497
          },
          {
            "duration": 0.34883699999999607,
            "durationTicks": 480,
            "midi": 76,
            "name": "E5",
            "ticks": 44640,
            "time": 32.441841000000004,
            "velocity": 1
          },
          {
            "duration": 0.3488370000000032,
            "durationTicks": 480,
            "midi": 66,
            "name": "F#4",
            "ticks": 45120,
            "time": 32.790678,
            "velocity": 1
          },
          {
            "duration": 0.3488370000000032,
            "durationTicks": 480,
            "midi": 71,
            "name": "B4",
            "ticks": 45120,
            "time": 32.790678,
            "velocity": 0.7874015748031497
          },
          {
            "duration": 0.3488370000000032,
            "durationTicks": 480,
            "midi": 76,
            "name": "E5",
            "ticks": 45120,
            "time": 32.790678,
            "velocity": 1
          },
          {
            "duration": 0.34883699999999607,
            "durationTicks": 480,
            "midi": 66,
            "name": "F#4",
            "ticks": 45600,
            "time": 33.139515,
            "velocity": 1
          },
          {
            "duration": 0.34883699999999607,
            "durationTicks": 480,
            "midi": 71,
            "name": "B4",
            "ticks": 45600,
            "time": 33.139515,
            "velocity": 0.7874015748031497
          },
          {
            "duration": 0.34883699999999607,
            "durationTicks": 480,
            "midi": 76,
            "name": "E5",
            "ticks": 45600,
            "time": 33.139515,
            "velocity": 1
          },
          {
            "duration": 0.3488370000000032,
            "durationTicks": 480,
            "midi": 66,
            "name": "F#4",
            "ticks": 46080,
            "time": 33.488352,
            "velocity": 1
          },
          {
            "duration": 0.3488370000000032,
            "durationTicks": 480,
            "midi": 71,
            "name": "B4",
            "ticks": 46080,
            "time": 33.488352,
            "velocity": 0.7874015748031497
          },
          {
            "duration": 0.3488370000000032,
            "durationTicks": 480,
            "midi": 76,
            "name": "E5",
            "ticks": 46080,
            "time": 33.488352,
            "velocity": 1
          },
          {
            "duration": 0.34883699999999607,
            "durationTicks": 480,
            "midi": 66,
            "name": "F#4",
            "ticks": 46560,
            "time": 33.837189,
            "velocity": 1
          },
          {
            "duration": 0.34883699999999607,
            "durationTicks": 480,
            "midi": 71,
            "name": "B4",
            "ticks": 46560,
            "time": 33.837189,
            "velocity": 0.7874015748031497
          },
          {
            "duration": 0.34883699999999607,
            "durationTicks": 480,
            "midi": 76,
            "name": "E5",
            "ticks": 46560,
            "time": 33.837189,
            "velocity": 1
          },
          {
            "duration": 0.3488370000000032,
            "durationTicks": 480,
            "midi": 66,
            "name": "F#4",
            "ticks": 47040,
            "time": 34.186026,
            "velocity": 1
          },
          {
            "duration": 0.3488370000000032,
            "durationTicks": 480,
            "midi": 71,
            "name": "B4",
            "ticks": 47040,
            "time": 34.186026,
            "velocity": 0.7874015748031497
          },
          {
            "duration": 0.3488370000000032,
            "durationTicks": 480,
            "midi": 76,
            "name": "E5",
            "ticks": 47040,
            "time": 34.186026,
            "velocity": 1
          },
          {
            "duration": 0.34883699999999607,
            "durationTicks": 480,
            "midi": 66,
            "name": "F#4",
            "ticks": 47520,
            "time": 34.534863,
            "velocity": 1
          },
          {
            "duration": 0.34883699999999607,
            "durationTicks": 480,
            "midi": 71,
            "name": "B4",
            "ticks": 47520,
            "time": 34.534863,
            "velocity": 0.7874015748031497
          },
          {
            "duration": 0.34883699999999607,
            "durationTicks": 480,
            "midi": 76,
            "name": "E5",
            "ticks": 47520,
            "time": 34.534863,
            "velocity": 1
          },
          {
            "duration": 1.3953480000000056,
            "durationTicks": 1920,
            "midi": 66,
            "name": "F#4",
            "ticks": 48000,
            "time": 34.8837,
            "velocity": 0.7874015748031497
          },
          {
            "duration": 1.3953480000000056,
            "durationTicks": 1920,
            "midi": 71,
            "name": "B4",
            "ticks": 48000,
            "time": 34.8837,
            "velocity": 0.7874015748031497
          },
          {
            "duration": 1.3953480000000056,
            "durationTicks": 1920,
            "midi": 75,
            "name": "D#5",
            "ticks": 48000,
            "time": 34.8837,
            "velocity": 0.7874015748031497
          },
          {
            "duration": 0.3488370000000032,
            "durationTicks": 480,
            "midi": 66,
            "name": "F#4",
            "ticks": 155520,
            "time": 113.023188,
            "velocity": 0.7874015748031497
          },
          {
            "duration": 0.3488370000000032,
            "durationTicks": 480,
            "midi": 71,
            "name": "B4",
            "ticks": 155520,
            "time": 113.023188,
            "velocity": 0.7874015748031497
          },
          {
            "duration": 0.3488370000000032,
            "durationTicks": 480,
            "midi": 78,
            "name": "F#5",
            "ticks": 155520,
            "time": 113.023188,
            "velocity": 1
          },
          {
            "duration": 0.34883699999998896,
            "durationTicks": 480,
            "midi": 66,
            "name": "F#4",
            "ticks": 156000,
            "time": 113.37202500000001,
            "velocity": 0.7874015748031497
          },
          {
            "duration": 0.34883699999998896,
            "durationTicks": 480,
            "midi": 71,
            "name": "B4",
            "ticks": 156000,
            "time": 113.37202500000001,
            "velocity": 0.7874015748031497
          },
          {
            "duration": 0.34883699999998896,
            "durationTicks": 480,
            "midi": 78,
            "name": "F#5",
            "ticks": 156000,
            "time": 113.37202500000001,
            "velocity": 1
          },
          {
            "duration": 0.3488370000000032,
            "durationTicks": 480,
            "midi": 66,
            "name": "F#4",
            "ticks": 156480,
            "time": 113.720862,
            "velocity": 0.7874015748031497
          },
          {
            "duration": 0.3488370000000032,
            "durationTicks": 480,
            "midi": 71,
            "name": "B4",
            "ticks": 156480,
            "time": 113.720862,
            "velocity": 0.7874015748031497
          },
          {
            "duration": 0.3488370000000032,
            "durationTicks": 480,
            "midi": 78,
            "name": "F#5",
            "ticks": 156480,
            "time": 113.720862,
            "velocity": 1
          },
          {
            "duration": 0.3488370000000032,
            "durationTicks": 480,
            "midi": 66,
            "name": "F#4",
            "ticks": 156960,
            "time": 114.069699,
            "velocity": 1
          },
          {
            "duration": 0.3488370000000032,
            "durationTicks": 480,
            "midi": 71,
            "name": "B4",
            "ticks": 156960,
            "time": 114.069699,
            "velocity": 0.7874015748031497
          },
          {
            "duration": 0.3488370000000032,
            "durationTicks": 480,
            "midi": 78,
            "name": "F#5",
            "ticks": 156960,
            "time": 114.069699,
            "velocity": 1
          },
          {
            "duration": 0.3488370000000032,
            "durationTicks": 480,
            "midi": 66,
            "name": "F#4",
            "ticks": 157440,
            "time": 114.418536,
            "velocity": 0.7874015748031497
          },
          {
            "duration": 0.3488370000000032,
            "durationTicks": 480,
            "midi": 71,
            "name": "B4",
            "ticks": 157440,
            "time": 114.418536,
            "velocity": 0.7874015748031497
          },
          {
            "duration": 0.3488370000000032,
            "durationTicks": 480,
            "midi": 78,
            "name": "F#5",
            "ticks": 157440,
            "time": 114.418536,
            "velocity": 1
          },
          {
            "duration": 0.3488370000000032,
            "durationTicks": 480,
            "midi": 66,
            "name": "F#4",
            "ticks": 157920,
            "time": 114.767373,
            "velocity": 0.7874015748031497
          },
          {
            "duration": 0.3488370000000032,
            "durationTicks": 480,
            "midi": 71,
            "name": "B4",
            "ticks": 157920,
            "time": 114.767373,
            "velocity": 0.7874015748031497
          },
          {
            "duration": 0.3488370000000032,
            "durationTicks": 480,
            "midi": 78,
            "name": "F#5",
            "ticks": 157920,
            "time": 114.767373,
            "velocity": 0.7874015748031497
          },
          {
            "duration": 0.34883699999998896,
            "durationTicks": 480,
            "midi": 66,
            "name": "F#4",
            "ticks": 158400,
            "time": 115.11621000000001,
            "velocity": 0.7874015748031497
          },
          {
            "duration": 0.34883699999998896,
            "durationTicks": 480,
            "midi": 71,
            "name": "B4",
            "ticks": 158400,
            "time": 115.11621000000001,
            "velocity": 0.7874015748031497
          },
          {
            "duration": 0.34883699999998896,
            "durationTicks": 480,
            "midi": 78,
            "name": "F#5",
            "ticks": 158400,
            "time": 115.11621000000001,
            "velocity": 1
          },
          {
            "duration": 0.3488370000000032,
            "durationTicks": 480,
            "midi": 66,
            "name": "F#4",
            "ticks": 158880,
            "time": 115.465047,
            "velocity": 0.7874015748031497
          },
          {
            "duration": 0.3488370000000032,
            "durationTicks": 480,
            "midi": 71,
            "name": "B4",
            "ticks": 158880,
            "time": 115.465047,
            "velocity": 0.7874015748031497
          },
          {
            "duration": 0.3488370000000032,
            "durationTicks": 480,
            "midi": 78,
            "name": "F#5",
            "ticks": 158880,
            "time": 115.465047,
            "velocity": 1
          },
          {
            "duration": 0.3488370000000032,
            "durationTicks": 480,
            "midi": 66,
            "name": "F#4",
            "ticks": 159360,
            "time": 115.813884,
            "velocity": 0.7874015748031497
          },
          {
            "duration": 0.3488370000000032,
            "durationTicks": 480,
            "midi": 71,
            "name": "B4",
            "ticks": 159360,
            "time": 115.813884,
            "velocity": 0.7874015748031497
          },
          {
            "duration": 0.3488370000000032,
            "durationTicks": 480,
            "midi": 76,
            "name": "E5",
            "ticks": 159360,
            "time": 115.813884,
            "velocity": 1
          },
          {
            "duration": 0.3488370000000032,
            "durationTicks": 480,
            "midi": 66,
            "name": "F#4",
            "ticks": 159840,
            "time": 116.162721,
            "velocity": 0.7874015748031497
          },
          {
            "duration": 0.3488370000000032,
            "durationTicks": 480,
            "midi": 71,
            "name": "B4",
            "ticks": 159840,
            "time": 116.162721,
            "velocity": 0.7874015748031497
          },
          {
            "duration": 0.3488370000000032,
            "durationTicks": 480,
            "midi": 76,
            "name": "E5",
            "ticks": 159840,
            "time": 116.162721,
            "velocity": 0.7874015748031497
          },
          {
            "duration": 0.34883699999998896,
            "durationTicks": 480,
            "midi": 66,
            "name": "F#4",
            "ticks": 160320,
            "time": 116.51155800000001,
            "velocity": 0.7874015748031497
          },
          {
            "duration": 0.34883699999998896,
            "durationTicks": 480,
            "midi": 71,
            "name": "B4",
            "ticks": 160320,
            "time": 116.51155800000001,
            "velocity": 0.7874015748031497
          },
          {
            "duration": 0.34883699999998896,
            "durationTicks": 480,
            "midi": 76,
            "name": "E5",
            "ticks": 160320,
            "time": 116.51155800000001,
            "velocity": 1
          },
          {
            "duration": 0.3488370000000032,
            "durationTicks": 480,
            "midi": 66,
            "name": "F#4",
            "ticks": 160800,
            "time": 116.860395,
            "velocity": 0.7874015748031497
          },
          {
            "duration": 0.3488370000000032,
            "durationTicks": 480,
            "midi": 71,
            "name": "B4",
            "ticks": 160800,
            "time": 116.860395,
            "velocity": 0.7874015748031497
          },
          {
            "duration": 0.3488370000000032,
            "durationTicks": 480,
            "midi": 76,
            "name": "E5",
            "ticks": 160800,
            "time": 116.860395,
            "velocity": 1
          },
          {
            "duration": 0.3488370000000032,
            "durationTicks": 480,
            "midi": 66,
            "name": "F#4",
            "ticks": 161280,
            "time": 117.209232,
            "velocity": 0.7874015748031497
          },
          {
            "duration": 0.3488370000000032,
            "durationTicks": 480,
            "midi": 71,
            "name": "B4",
            "ticks": 161280,
            "time": 117.209232,
            "velocity": 0.7874015748031497
          },
          {
            "duration": 0.3488370000000032,
            "durationTicks": 480,
            "midi": 76,
            "name": "E5",
            "ticks": 161280,
            "time": 117.209232,
            "velocity": 1
          },
          {
            "duration": 0.3488370000000032,
            "durationTicks": 480,
            "midi": 66,
            "name": "F#4",
            "ticks": 161760,
            "time": 117.558069,
            "velocity": 0.7874015748031497
          },
          {
            "duration": 0.3488370000000032,
            "durationTicks": 480,
            "midi": 71,
            "name": "B4",
            "ticks": 161760,
            "time": 117.558069,
            "velocity": 0.7874015748031497
          },
          {
            "duration": 0.3488370000000032,
            "durationTicks": 480,
            "midi": 76,
            "name": "E5",
            "ticks": 161760,
            "time": 117.558069,
            "velocity": 1
          },
          {
            "duration": 0.3488370000000032,
            "durationTicks": 480,
            "midi": 66,
            "name": "F#4",
            "ticks": 162240,
            "time": 117.906906,
            "velocity": 0.7874015748031497
          },
          {
            "duration": 0.3488370000000032,
            "durationTicks": 480,
            "midi": 71,
            "name": "B4",
            "ticks": 162240,
            "time": 117.906906,
            "velocity": 0.7874015748031497
          },
          {
            "duration": 0.3488370000000032,
            "durationTicks": 480,
            "midi": 76,
            "name": "E5",
            "ticks": 162240,
            "time": 117.906906,
            "velocity": 1
          },
          {
            "duration": 0.34883699999998896,
            "durationTicks": 480,
            "midi": 66,
            "name": "F#4",
            "ticks": 162720,
            "time": 118.25574300000001,
            "velocity": 0.7874015748031497
          },
          {
            "duration": 0.34883699999998896,
            "durationTicks": 480,
            "midi": 71,
            "name": "B4",
            "ticks": 162720,
            "time": 118.25574300000001,
            "velocity": 0.7874015748031497
          },
          {
            "duration": 0.34883699999998896,
            "durationTicks": 480,
            "midi": 76,
            "name": "E5",
            "ticks": 162720,
            "time": 118.25574300000001,
            "velocity": 1
          },
          {
            "duration": 0.3488370000000032,
            "durationTicks": 480,
            "midi": 66,
            "name": "F#4",
            "ticks": 163200,
            "time": 118.60458,
            "velocity": 0.7874015748031497
          },
          {
            "duration": 0.3488370000000032,
            "durationTicks": 480,
            "midi": 73,
            "name": "C#5",
            "ticks": 163200,
            "time": 118.60458,
            "velocity": 1
          },
          {
            "duration": 0.3488370000000032,
            "durationTicks": 480,
            "midi": 78,
            "name": "F#5",
            "ticks": 163200,
            "time": 118.60458,
            "velocity": 0.7874015748031497
          },
          {
            "duration": 0.3488370000000032,
            "durationTicks": 480,
            "midi": 82,
            "name": "A#5",
            "ticks": 163200,
            "time": 118.60458,
            "velocity": 1
          },
          {
            "duration": 0.3488370000000032,
            "durationTicks": 480,
            "midi": 66,
            "name": "F#4",
            "ticks": 163680,
            "time": 118.953417,
            "velocity": 0.7874015748031497
          },
          {
            "duration": 0.3488370000000032,
            "durationTicks": 480,
            "midi": 73,
            "name": "C#5",
            "ticks": 163680,
            "time": 118.953417,
            "velocity": 1
          },
          {
            "duration": 0.3488370000000032,
            "durationTicks": 480,
            "midi": 78,
            "name": "F#5",
            "ticks": 163680,
            "time": 118.953417,
            "velocity": 0.7874015748031497
          },
          {
            "duration": 0.3488370000000032,
            "durationTicks": 480,
            "midi": 82,
            "name": "A#5",
            "ticks": 163680,
            "time": 118.953417,
            "velocity": 0.7874015748031497
          },
          {
            "duration": 0.3488370000000032,
            "durationTicks": 480,
            "midi": 66,
            "name": "F#4",
            "ticks": 164160,
            "time": 119.302254,
            "velocity": 0.7874015748031497
          },
          {
            "duration": 0.3488370000000032,
            "durationTicks": 480,
            "midi": 73,
            "name": "C#5",
            "ticks": 164160,
            "time": 119.302254,
            "velocity": 1
          },
          {
            "duration": 0.3488370000000032,
            "durationTicks": 480,
            "midi": 78,
            "name": "F#5",
            "ticks": 164160,
            "time": 119.302254,
            "velocity": 0.7874015748031497
          },
          {
            "duration": 0.3488370000000032,
            "durationTicks": 480,
            "midi": 82,
            "name": "A#5",
            "ticks": 164160,
            "time": 119.302254,
            "velocity": 1
          },
          {
            "duration": 0.34883699999998896,
            "durationTicks": 480,
            "midi": 66,
            "name": "F#4",
            "ticks": 164640,
            "time": 119.65109100000001,
            "velocity": 0.7874015748031497
          },
          {
            "duration": 0.34883699999998896,
            "durationTicks": 480,
            "midi": 73,
            "name": "C#5",
            "ticks": 164640,
            "time": 119.65109100000001,
            "velocity": 1
          },
          {
            "duration": 0.34883699999998896,
            "durationTicks": 480,
            "midi": 78,
            "name": "F#5",
            "ticks": 164640,
            "time": 119.65109100000001,
            "velocity": 0.7874015748031497
          },
          {
            "duration": 0.34883699999998896,
            "durationTicks": 480,
            "midi": 82,
            "name": "A#5",
            "ticks": 164640,
            "time": 119.65109100000001,
            "velocity": 1
          },
          {
            "duration": 0.3488370000000032,
            "durationTicks": 480,
            "midi": 66,
            "name": "F#4",
            "ticks": 165120,
            "time": 119.999928,
            "velocity": 0.7874015748031497
          },
          {
            "duration": 0.3488370000000032,
            "durationTicks": 480,
            "midi": 73,
            "name": "C#5",
            "ticks": 165120,
            "time": 119.999928,
            "velocity": 0.7874015748031497
          },
          {
            "duration": 0.3488370000000032,
            "durationTicks": 480,
            "midi": 78,
            "name": "F#5",
            "ticks": 165120,
            "time": 119.999928,
            "velocity": 0.7874015748031497
          },
          {
            "duration": 0.3488370000000032,
            "durationTicks": 480,
            "midi": 82,
            "name": "A#5",
            "ticks": 165120,
            "time": 119.999928,
            "velocity": 1
          },
          {
            "duration": 0.3488370000000032,
            "durationTicks": 480,
            "midi": 66,
            "name": "F#4",
            "ticks": 165600,
            "time": 120.348765,
            "velocity": 0.7874015748031497
          },
          {
            "duration": 0.3488370000000032,
            "durationTicks": 480,
            "midi": 73,
            "name": "C#5",
            "ticks": 165600,
            "time": 120.348765,
            "velocity": 0.7874015748031497
          },
          {
            "duration": 0.3488370000000032,
            "durationTicks": 480,
            "midi": 78,
            "name": "F#5",
            "ticks": 165600,
            "time": 120.348765,
            "velocity": 0.7874015748031497
          },
          {
            "duration": 0.3488370000000032,
            "durationTicks": 480,
            "midi": 82,
            "name": "A#5",
            "ticks": 165600,
            "time": 120.348765,
            "velocity": 1
          },
          {
            "duration": 0.3488370000000032,
            "durationTicks": 480,
            "midi": 66,
            "name": "F#4",
            "ticks": 166080,
            "time": 120.697602,
            "velocity": 0.7874015748031497
          },
          {
            "duration": 0.3488370000000032,
            "durationTicks": 480,
            "midi": 73,
            "name": "C#5",
            "ticks": 166080,
            "time": 120.697602,
            "velocity": 0.7874015748031497
          },
          {
            "duration": 0.3488370000000032,
            "durationTicks": 480,
            "midi": 78,
            "name": "F#5",
            "ticks": 166080,
            "time": 120.697602,
            "velocity": 0.7874015748031497
          },
          {
            "duration": 0.3488370000000032,
            "durationTicks": 480,
            "midi": 82,
            "name": "A#5",
            "ticks": 166080,
            "time": 120.697602,
            "velocity": 1
          },
          {
            "duration": 0.3488370000000032,
            "durationTicks": 480,
            "midi": 66,
            "name": "F#4",
            "ticks": 166560,
            "time": 121.046439,
            "velocity": 0.7874015748031497
          },
          {
            "duration": 0.3488370000000032,
            "durationTicks": 480,
            "midi": 73,
            "name": "C#5",
            "ticks": 166560,
            "time": 121.046439,
            "velocity": 0.7874015748031497
          },
          {
            "duration": 0.3488370000000032,
            "durationTicks": 480,
            "midi": 78,
            "name": "F#5",
            "ticks": 166560,
            "time": 121.046439,
            "velocity": 0.7874015748031497
          },
          {
            "duration": 0.3488370000000032,
            "durationTicks": 480,
            "midi": 82,
            "name": "A#5",
            "ticks": 166560,
            "time": 121.046439,
            "velocity": 1
          },
          {
            "duration": 0.34883699999998896,
            "durationTicks": 480,
            "midi": 66,
            "name": "F#4",
            "ticks": 167040,
            "time": 121.39527600000001,
            "velocity": 0.7874015748031497
          },
          {
            "duration": 0.34883699999998896,
            "durationTicks": 480,
            "midi": 70,
            "name": "A#4",
            "ticks": 167040,
            "time": 121.39527600000001,
            "velocity": 0.7874015748031497
          },
          {
            "duration": 0.34883699999998896,
            "durationTicks": 480,
            "midi": 73,
            "name": "C#5",
            "ticks": 167040,
            "time": 121.39527600000001,
            "velocity": 0.7874015748031497
          },
          {
            "duration": 0.34883699999998896,
            "durationTicks": 480,
            "midi": 80,
            "name": "G#5",
            "ticks": 167040,
            "time": 121.39527600000001,
            "velocity": 1
          },
          {
            "duration": 0.3488370000000032,
            "durationTicks": 480,
            "midi": 66,
            "name": "F#4",
            "ticks": 167520,
            "time": 121.744113,
            "velocity": 0.7874015748031497
          },
          {
            "duration": 0.3488370000000032,
            "durationTicks": 480,
            "midi": 70,
            "name": "A#4",
            "ticks": 167520,
            "time": 121.744113,
            "velocity": 0.7874015748031497
          },
          {
            "duration": 0.3488370000000032,
            "durationTicks": 480,
            "midi": 73,
            "name": "C#5",
            "ticks": 167520,
            "time": 121.744113,
            "velocity": 0.7874015748031497
          },
          {
            "duration": 0.3488370000000032,
            "durationTicks": 480,
            "midi": 80,
            "name": "G#5",
            "ticks": 167520,
            "time": 121.744113,
            "velocity": 1
          },
          {
            "duration": 0.3488370000000032,
            "durationTicks": 480,
            "midi": 66,
            "name": "F#4",
            "ticks": 168000,
            "time": 122.09295,
            "velocity": 0.7874015748031497
          },
          {
            "duration": 0.3488370000000032,
            "durationTicks": 480,
            "midi": 70,
            "name": "A#4",
            "ticks": 168000,
            "time": 122.09295,
            "velocity": 0.7874015748031497
          },
          {
            "duration": 0.3488370000000032,
            "durationTicks": 480,
            "midi": 73,
            "name": "C#5",
            "ticks": 168000,
            "time": 122.09295,
            "velocity": 0.7874015748031497
          },
          {
            "duration": 0.3488370000000032,
            "durationTicks": 480,
            "midi": 80,
            "name": "G#5",
            "ticks": 168000,
            "time": 122.09295,
            "velocity": 1
          },
          {
            "duration": 0.3488370000000032,
            "durationTicks": 480,
            "midi": 66,
            "name": "F#4",
            "ticks": 168480,
            "time": 122.441787,
            "velocity": 0.7874015748031497
          },
          {
            "duration": 0.3488370000000032,
            "durationTicks": 480,
            "midi": 70,
            "name": "A#4",
            "ticks": 168480,
            "time": 122.441787,
            "velocity": 0.7874015748031497
          },
          {
            "duration": 0.3488370000000032,
            "durationTicks": 480,
            "midi": 73,
            "name": "C#5",
            "ticks": 168480,
            "time": 122.441787,
            "velocity": 0.7874015748031497
          },
          {
            "duration": 0.3488370000000032,
            "durationTicks": 480,
            "midi": 80,
            "name": "G#5",
            "ticks": 168480,
            "time": 122.441787,
            "velocity": 1
          },
          {
            "duration": 0.34883699999998896,
            "durationTicks": 480,
            "midi": 66,
            "name": "F#4",
            "ticks": 168960,
            "time": 122.79062400000001,
            "velocity": 0.7874015748031497
          },
          {
            "duration": 0.34883699999998896,
            "durationTicks": 480,
            "midi": 70,
            "name": "A#4",
            "ticks": 168960,
            "time": 122.79062400000001,
            "velocity": 0.7874015748031497
          },
          {
            "duration": 0.34883699999998896,
            "durationTicks": 480,
            "midi": 73,
            "name": "C#5",
            "ticks": 168960,
            "time": 122.79062400000001,
            "velocity": 0.7874015748031497
          },
          {
            "duration": 0.34883699999998896,
            "durationTicks": 480,
            "midi": 80,
            "name": "G#5",
            "ticks": 168960,
            "time": 122.79062400000001,
            "velocity": 1
          },
          {
            "duration": 0.3488370000000032,
            "durationTicks": 480,
            "midi": 66,
            "name": "F#4",
            "ticks": 169440,
            "time": 123.139461,
            "velocity": 0.7874015748031497
          },
          {
            "duration": 0.3488370000000032,
            "durationTicks": 480,
            "midi": 70,
            "name": "A#4",
            "ticks": 169440,
            "time": 123.139461,
            "velocity": 0.7874015748031497
          },
          {
            "duration": 0.3488370000000032,
            "durationTicks": 480,
            "midi": 73,
            "name": "C#5",
            "ticks": 169440,
            "time": 123.139461,
            "velocity": 0.7874015748031497
          },
          {
            "duration": 0.3488370000000032,
            "durationTicks": 480,
            "midi": 80,
            "name": "G#5",
            "ticks": 169440,
            "time": 123.139461,
            "velocity": 1
          },
          {
            "duration": 0.3488370000000032,
            "durationTicks": 480,
            "midi": 66,
            "name": "F#4",
            "ticks": 169920,
            "time": 123.488298,
            "velocity": 0.7874015748031497
          },
          {
            "duration": 0.3488370000000032,
            "durationTicks": 480,
            "midi": 70,
            "name": "A#4",
            "ticks": 169920,
            "time": 123.488298,
            "velocity": 0.7874015748031497
          },
          {
            "duration": 0.3488370000000032,
            "durationTicks": 480,
            "midi": 73,
            "name": "C#5",
            "ticks": 169920,
            "time": 123.488298,
            "velocity": 1
          },
          {
            "duration": 0.3488370000000032,
            "durationTicks": 480,
            "midi": 80,
            "name": "G#5",
            "ticks": 169920,
            "time": 123.488298,
            "velocity": 1
          },
          {
            "duration": 0.3488370000000032,
            "durationTicks": 480,
            "midi": 70,
            "name": "A#4",
            "ticks": 170400,
            "time": 123.837135,
            "velocity": 0.7874015748031497
          },
          {
            "duration": 0.3488370000000032,
            "durationTicks": 480,
            "midi": 73,
            "name": "C#5",
            "ticks": 170400,
            "time": 123.837135,
            "velocity": 0.7874015748031497
          },
          {
            "duration": 0.2616277500000024,
            "durationTicks": 360,
            "midi": 75,
            "name": "D#5",
            "ticks": 170400,
            "time": 123.837135,
            "velocity": 1
          },
          {
            "duration": 0.3488370000000032,
            "durationTicks": 480,
            "midi": 52,
            "name": "E3",
            "ticks": 170880,
            "time": 124.185972,
            "velocity": 0.7874015748031497
          },
          {
            "duration": 0.3488370000000032,
            "durationTicks": 480,
            "midi": 61,
            "name": "C#4",
            "ticks": 170880,
            "time": 124.185972,
            "velocity": 0.7874015748031497
          },
          {
            "duration": 0.3488370000000032,
            "durationTicks": 480,
            "midi": 68,
            "name": "G#4",
            "ticks": 170880,
            "time": 124.185972,
            "velocity": 0.7874015748031497
          },
          {
            "duration": 0.3488370000000032,
            "durationTicks": 480,
            "midi": 73,
            "name": "C#5",
            "ticks": 170880,
            "time": 124.185972,
            "velocity": 0.7874015748031497
          },
          {
            "duration": 0.34883699999998896,
            "durationTicks": 480,
            "midi": 52,
            "name": "E3",
            "ticks": 171360,
            "time": 124.53480900000001,
            "velocity": 0.7874015748031497
          },
          {
            "duration": 0.34883699999998896,
            "durationTicks": 480,
            "midi": 61,
            "name": "C#4",
            "ticks": 171360,
            "time": 124.53480900000001,
            "velocity": 0.7874015748031497
          },
          {
            "duration": 0.34883699999998896,
            "durationTicks": 480,
            "midi": 68,
            "name": "G#4",
            "ticks": 171360,
            "time": 124.53480900000001,
            "velocity": 0.7874015748031497
          },
          {
            "duration": 0.34883699999998896,
            "durationTicks": 480,
            "midi": 73,
            "name": "C#5",
            "ticks": 171360,
            "time": 124.53480900000001,
            "velocity": 1
          },
          {
            "duration": 0.3488370000000032,
            "durationTicks": 480,
            "midi": 52,
            "name": "E3",
            "ticks": 171840,
            "time": 124.883646,
            "velocity": 0.7874015748031497
          },
          {
            "duration": 0.3488370000000032,
            "durationTicks": 480,
            "midi": 61,
            "name": "C#4",
            "ticks": 171840,
            "time": 124.883646,
            "velocity": 0.7874015748031497
          },
          {
            "duration": 0.3488370000000032,
            "durationTicks": 480,
            "midi": 68,
            "name": "G#4",
            "ticks": 171840,
            "time": 124.883646,
            "velocity": 0.7874015748031497
          },
          {
            "duration": 0.3488370000000032,
            "durationTicks": 480,
            "midi": 73,
            "name": "C#5",
            "ticks": 171840,
            "time": 124.883646,
            "velocity": 1
          },
          {
            "duration": 0.3488370000000032,
            "durationTicks": 480,
            "midi": 52,
            "name": "E3",
            "ticks": 172320,
            "time": 125.232483,
            "velocity": 0.7874015748031497
          },
          {
            "duration": 0.3488370000000032,
            "durationTicks": 480,
            "midi": 61,
            "name": "C#4",
            "ticks": 172320,
            "time": 125.232483,
            "velocity": 0.7874015748031497
          },
          {
            "duration": 0.3488370000000032,
            "durationTicks": 480,
            "midi": 68,
            "name": "G#4",
            "ticks": 172320,
            "time": 125.232483,
            "velocity": 0.7874015748031497
          },
          {
            "duration": 0.3488370000000032,
            "durationTicks": 480,
            "midi": 73,
            "name": "C#5",
            "ticks": 172320,
            "time": 125.232483,
            "velocity": 1
          },
          {
            "duration": 0.3488370000000032,
            "durationTicks": 480,
            "midi": 52,
            "name": "E3",
            "ticks": 172800,
            "time": 125.58132,
            "velocity": 0.7874015748031497
          },
          {
            "duration": 0.3488370000000032,
            "durationTicks": 480,
            "midi": 61,
            "name": "C#4",
            "ticks": 172800,
            "time": 125.58132,
            "velocity": 0.7874015748031497
          },
          {
            "duration": 0.3488370000000032,
            "durationTicks": 480,
            "midi": 68,
            "name": "G#4",
            "ticks": 172800,
            "time": 125.58132,
            "velocity": 0.7874015748031497
          },
          {
            "duration": 0.3488370000000032,
            "durationTicks": 480,
            "midi": 73,
            "name": "C#5",
            "ticks": 172800,
            "time": 125.58132,
            "velocity": 1
          },
          {
            "duration": 0.34883699999998896,
            "durationTicks": 480,
            "midi": 52,
            "name": "E3",
            "ticks": 173280,
            "time": 125.93015700000001,
            "velocity": 0.7874015748031497
          },
          {
            "duration": 0.34883699999998896,
            "durationTicks": 480,
            "midi": 61,
            "name": "C#4",
            "ticks": 173280,
            "time": 125.93015700000001,
            "velocity": 0.7874015748031497
          },
          {
            "duration": 0.34883699999998896,
            "durationTicks": 480,
            "midi": 68,
            "name": "G#4",
            "ticks": 173280,
            "time": 125.93015700000001,
            "velocity": 0.7874015748031497
          },
          {
            "duration": 0.34883699999998896,
            "durationTicks": 480,
            "midi": 73,
            "name": "C#5",
            "ticks": 173280,
            "time": 125.93015700000001,
            "velocity": 1
          },
          {
            "duration": 0.3488370000000032,
            "durationTicks": 480,
            "midi": 52,
            "name": "E3",
            "ticks": 173760,
            "time": 126.278994,
            "velocity": 0.7874015748031497
          },
          {
            "duration": 0.3488370000000032,
            "durationTicks": 480,
            "midi": 61,
            "name": "C#4",
            "ticks": 173760,
            "time": 126.278994,
            "velocity": 0.7874015748031497
          },
          {
            "duration": 0.3488370000000032,
            "durationTicks": 480,
            "midi": 68,
            "name": "G#4",
            "ticks": 173760,
            "time": 126.278994,
            "velocity": 0.7874015748031497
          },
          {
            "duration": 0.3488370000000032,
            "durationTicks": 480,
            "midi": 73,
            "name": "C#5",
            "ticks": 173760,
            "time": 126.278994,
            "velocity": 0.7874015748031497
          },
          {
            "duration": 0.3488370000000032,
            "durationTicks": 480,
            "midi": 52,
            "name": "E3",
            "ticks": 174240,
            "time": 126.627831,
            "velocity": 0.7874015748031497
          },
          {
            "duration": 0.3488370000000032,
            "durationTicks": 480,
            "midi": 61,
            "name": "C#4",
            "ticks": 174240,
            "time": 126.627831,
            "velocity": 0.7874015748031497
          },
          {
            "duration": 0.3488370000000032,
            "durationTicks": 480,
            "midi": 68,
            "name": "G#4",
            "ticks": 174240,
            "time": 126.627831,
            "velocity": 0.7874015748031497
          },
          {
            "duration": 0.3488370000000032,
            "durationTicks": 480,
            "midi": 73,
            "name": "C#5",
            "ticks": 174240,
            "time": 126.627831,
            "velocity": 1
          },
          {
            "duration": 0.3488370000000032,
            "durationTicks": 480,
            "midi": 59,
            "name": "B3",
            "ticks": 174720,
            "time": 126.976668,
            "velocity": 0.7874015748031497
          },
          {
            "duration": 0.3488370000000032,
            "durationTicks": 480,
            "midi": 66,
            "name": "F#4",
            "ticks": 174720,
            "time": 126.976668,
            "velocity": 0.7874015748031497
          },
          {
            "duration": 0.3488370000000032,
            "durationTicks": 480,
            "midi": 71,
            "name": "B4",
            "ticks": 174720,
            "time": 126.976668,
            "velocity": 1
          },
          {
            "duration": 0.3488370000000032,
            "durationTicks": 480,
            "midi": 52,
            "name": "E3",
            "ticks": 175200,
            "time": 127.325505,
            "velocity": 0.7874015748031497
          },
          {
            "duration": 0.3488370000000032,
            "durationTicks": 480,
            "midi": 59,
            "name": "B3",
            "ticks": 175200,
            "time": 127.325505,
            "velocity": 0.7874015748031497
          },
          {
            "duration": 0.3488370000000032,
            "durationTicks": 480,
            "midi": 66,
            "name": "F#4",
            "ticks": 175200,
            "time": 127.325505,
            "velocity": 0.7874015748031497
          },
          {
            "duration": 0.3488370000000032,
            "durationTicks": 480,
            "midi": 71,
            "name": "B4",
            "ticks": 175200,
            "time": 127.325505,
            "velocity": 1
          },
          {
            "duration": 0.34883699999998896,
            "durationTicks": 480,
            "midi": 52,
            "name": "E3",
            "ticks": 175680,
            "time": 127.67434200000001,
            "velocity": 0.7874015748031497
          },
          {
            "duration": 0.34883699999998896,
            "durationTicks": 480,
            "midi": 59,
            "name": "B3",
            "ticks": 175680,
            "time": 127.67434200000001,
            "velocity": 0.7874015748031497
          },
          {
            "duration": 0.34883699999998896,
            "durationTicks": 480,
            "midi": 66,
            "name": "F#4",
            "ticks": 175680,
            "time": 127.67434200000001,
            "velocity": 1
          },
          {
            "duration": 0.34883699999998896,
            "durationTicks": 480,
            "midi": 71,
            "name": "B4",
            "ticks": 175680,
            "time": 127.67434200000001,
            "velocity": 1
          },
          {
            "duration": 0.3488370000000032,
            "durationTicks": 480,
            "midi": 52,
            "name": "E3",
            "ticks": 176160,
            "time": 128.023179,
            "velocity": 0.7874015748031497
          },
          {
            "duration": 0.3488370000000032,
            "durationTicks": 480,
            "midi": 59,
            "name": "B3",
            "ticks": 176160,
            "time": 128.023179,
            "velocity": 0.7874015748031497
          },
          {
            "duration": 0.3488370000000032,
            "durationTicks": 480,
            "midi": 66,
            "name": "F#4",
            "ticks": 176160,
            "time": 128.023179,
            "velocity": 0.7874015748031497
          },
          {
            "duration": 0.3488370000000032,
            "durationTicks": 480,
            "midi": 71,
            "name": "B4",
            "ticks": 176160,
            "time": 128.023179,
            "velocity": 0.7874015748031497
          },
          {
            "duration": 0.3488370000000032,
            "durationTicks": 480,
            "midi": 52,
            "name": "E3",
            "ticks": 176640,
            "time": 128.372016,
            "velocity": 0.7874015748031497
          },
          {
            "duration": 0.3488370000000032,
            "durationTicks": 480,
            "midi": 59,
            "name": "B3",
            "ticks": 176640,
            "time": 128.372016,
            "velocity": 0.7874015748031497
          },
          {
            "duration": 0.3488370000000032,
            "durationTicks": 480,
            "midi": 66,
            "name": "F#4",
            "ticks": 176640,
            "time": 128.372016,
            "velocity": 0.7874015748031497
          },
          {
            "duration": 0.3488370000000032,
            "durationTicks": 480,
            "midi": 71,
            "name": "B4",
            "ticks": 176640,
            "time": 128.372016,
            "velocity": 1
          },
          {
            "duration": 0.3488370000000032,
            "durationTicks": 480,
            "midi": 52,
            "name": "E3",
            "ticks": 177120,
            "time": 128.720853,
            "velocity": 0.7874015748031497
          },
          {
            "duration": 0.3488370000000032,
            "durationTicks": 480,
            "midi": 59,
            "name": "B3",
            "ticks": 177120,
            "time": 128.720853,
            "velocity": 0.7874015748031497
          },
          {
            "duration": 0.3488370000000032,
            "durationTicks": 480,
            "midi": 66,
            "name": "F#4",
            "ticks": 177120,
            "time": 128.720853,
            "velocity": 0.7874015748031497
          },
          {
            "duration": 0.3488370000000032,
            "durationTicks": 480,
            "midi": 71,
            "name": "B4",
            "ticks": 177120,
            "time": 128.720853,
            "velocity": 1
          },
          {
            "duration": 0.3488370000000032,
            "durationTicks": 480,
            "midi": 52,
            "name": "E3",
            "ticks": 177600,
            "time": 129.06969,
            "velocity": 0.7874015748031497
          },
          {
            "duration": 0.3488370000000032,
            "durationTicks": 480,
            "midi": 59,
            "name": "B3",
            "ticks": 177600,
            "time": 129.06969,
            "velocity": 0.7874015748031497
          },
          {
            "duration": 0.3488370000000032,
            "durationTicks": 480,
            "midi": 66,
            "name": "F#4",
            "ticks": 177600,
            "time": 129.06969,
            "velocity": 0.7874015748031497
          },
          {
            "duration": 0.3488370000000032,
            "durationTicks": 480,
            "midi": 71,
            "name": "B4",
            "ticks": 177600,
            "time": 129.06969,
            "velocity": 1
          },
          {
            "duration": 0.3488370000000032,
            "durationTicks": 480,
            "midi": 52,
            "name": "E3",
            "ticks": 178080,
            "time": 129.418527,
            "velocity": 0.7874015748031497
          },
          {
            "duration": 0.3488370000000032,
            "durationTicks": 480,
            "midi": 59,
            "name": "B3",
            "ticks": 178080,
            "time": 129.418527,
            "velocity": 0.7874015748031497
          },
          {
            "duration": 0.3488370000000032,
            "durationTicks": 480,
            "midi": 66,
            "name": "F#4",
            "ticks": 178080,
            "time": 129.418527,
            "velocity": 0.7874015748031497
          },
          {
            "duration": 0.3488370000000032,
            "durationTicks": 480,
            "midi": 71,
            "name": "B4",
            "ticks": 178080,
            "time": 129.418527,
            "velocity": 1
          },
          {
            "duration": 0.34883699999997475,
            "durationTicks": 480,
            "midi": 66,
            "name": "F#4",
            "ticks": 178560,
            "time": 129.76736400000001,
            "velocity": 0.7874015748031497
          },
          {
            "duration": 0.34883699999997475,
            "durationTicks": 480,
            "midi": 71,
            "name": "B4",
            "ticks": 178560,
            "time": 129.76736400000001,
            "velocity": 0.7874015748031497
          },
          {
            "duration": 0.34883699999997475,
            "durationTicks": 480,
            "midi": 78,
            "name": "F#5",
            "ticks": 178560,
            "time": 129.76736400000001,
            "velocity": 1
          },
          {
            "duration": 0.3488370000000032,
            "durationTicks": 480,
            "midi": 66,
            "name": "F#4",
            "ticks": 179040,
            "time": 130.116201,
            "velocity": 0.7874015748031497
          },
          {
            "duration": 0.3488370000000032,
            "durationTicks": 480,
            "midi": 71,
            "name": "B4",
            "ticks": 179040,
            "time": 130.116201,
            "velocity": 0.7874015748031497
          },
          {
            "duration": 0.3488370000000032,
            "durationTicks": 480,
            "midi": 78,
            "name": "F#5",
            "ticks": 179040,
            "time": 130.116201,
            "velocity": 1
          },
          {
            "duration": 0.3488370000000032,
            "durationTicks": 480,
            "midi": 66,
            "name": "F#4",
            "ticks": 179520,
            "time": 130.465038,
            "velocity": 0.7874015748031497
          },
          {
            "duration": 0.3488370000000032,
            "durationTicks": 480,
            "midi": 66,
            "name": "F#4",
            "ticks": 179520,
            "time": 130.465038,
            "velocity": 0.7874015748031497
          },
          {
            "duration": 0.3488370000000032,
            "durationTicks": 480,
            "midi": 71,
            "name": "B4",
            "ticks": 179520,
            "time": 130.465038,
            "velocity": 0.7874015748031497
          },
          {
            "duration": 0.3488370000000032,
            "durationTicks": 480,
            "midi": 78,
            "name": "F#5",
            "ticks": 179520,
            "time": 130.465038,
            "velocity": 1
          },
          {
            "duration": 0.3488370000000032,
            "durationTicks": 480,
            "midi": 66,
            "name": "F#4",
            "ticks": 180000,
            "time": 130.813875,
            "velocity": 0.7874015748031497
          },
          {
            "duration": 0.3488370000000032,
            "durationTicks": 480,
            "midi": 71,
            "name": "B4",
            "ticks": 180000,
            "time": 130.813875,
            "velocity": 0.7874015748031497
          },
          {
            "duration": 0.3488370000000032,
            "durationTicks": 480,
            "midi": 78,
            "name": "F#5",
            "ticks": 180000,
            "time": 130.813875,
            "velocity": 1
          },
          {
            "duration": 0.3488370000000032,
            "durationTicks": 480,
            "midi": 66,
            "name": "F#4",
            "ticks": 180480,
            "time": 131.162712,
            "velocity": 0.7874015748031497
          },
          {
            "duration": 0.3488370000000032,
            "durationTicks": 480,
            "midi": 71,
            "name": "B4",
            "ticks": 180480,
            "time": 131.162712,
            "velocity": 0.7874015748031497
          },
          {
            "duration": 0.3488370000000032,
            "durationTicks": 480,
            "midi": 78,
            "name": "F#5",
            "ticks": 180480,
            "time": 131.162712,
            "velocity": 1
          },
          {
            "duration": 0.3488370000000032,
            "durationTicks": 480,
            "midi": 66,
            "name": "F#4",
            "ticks": 180960,
            "time": 131.511549,
            "velocity": 0.7874015748031497
          },
          {
            "duration": 0.3488370000000032,
            "durationTicks": 480,
            "midi": 71,
            "name": "B4",
            "ticks": 180960,
            "time": 131.511549,
            "velocity": 0.7874015748031497
          },
          {
            "duration": 0.3488370000000032,
            "durationTicks": 480,
            "midi": 78,
            "name": "F#5",
            "ticks": 180960,
            "time": 131.511549,
            "velocity": 1
          },
          {
            "duration": 0.3488370000000032,
            "durationTicks": 480,
            "midi": 66,
            "name": "F#4",
            "ticks": 181440,
            "time": 131.860386,
            "velocity": 0.7874015748031497
          },
          {
            "duration": 0.3488370000000032,
            "durationTicks": 480,
            "midi": 71,
            "name": "B4",
            "ticks": 181440,
            "time": 131.860386,
            "velocity": 0.7874015748031497
          },
          {
            "duration": 0.3488370000000032,
            "durationTicks": 480,
            "midi": 78,
            "name": "F#5",
            "ticks": 181440,
            "time": 131.860386,
            "velocity": 1
          },
          {
            "duration": 0.3488370000000032,
            "durationTicks": 480,
            "midi": 66,
            "name": "F#4",
            "ticks": 181920,
            "time": 132.209223,
            "velocity": 0.7874015748031497
          },
          {
            "duration": 0.3488370000000032,
            "durationTicks": 480,
            "midi": 71,
            "name": "B4",
            "ticks": 181920,
            "time": 132.209223,
            "velocity": 0.7874015748031497
          },
          {
            "duration": 0.3488370000000032,
            "durationTicks": 480,
            "midi": 78,
            "name": "F#5",
            "ticks": 181920,
            "time": 132.209223,
            "velocity": 1
          },
          {
            "duration": 0.3488370000000032,
            "durationTicks": 480,
            "midi": 66,
            "name": "F#4",
            "ticks": 182400,
            "time": 132.55806,
            "velocity": 1
          },
          {
            "duration": 0.3488370000000032,
            "durationTicks": 480,
            "midi": 71,
            "name": "B4",
            "ticks": 182400,
            "time": 132.55806,
            "velocity": 0.7874015748031497
          },
          {
            "duration": 0.3488370000000032,
            "durationTicks": 480,
            "midi": 76,
            "name": "E5",
            "ticks": 182400,
            "time": 132.55806,
            "velocity": 1
          },
          {
            "duration": 0.34883699999997475,
            "durationTicks": 480,
            "midi": 66,
            "name": "F#4",
            "ticks": 182880,
            "time": 132.90689700000001,
            "velocity": 0.7874015748031497
          },
          {
            "duration": 0.34883699999997475,
            "durationTicks": 480,
            "midi": 71,
            "name": "B4",
            "ticks": 182880,
            "time": 132.90689700000001,
            "velocity": 0.7874015748031497
          },
          {
            "duration": 0.34883699999997475,
            "durationTicks": 480,
            "midi": 76,
            "name": "E5",
            "ticks": 182880,
            "time": 132.90689700000001,
            "velocity": 1
          },
          {
            "duration": 0.3488370000000032,
            "durationTicks": 480,
            "midi": 66,
            "name": "F#4",
            "ticks": 183360,
            "time": 133.255734,
            "velocity": 1
          },
          {
            "duration": 0.3488370000000032,
            "durationTicks": 480,
            "midi": 71,
            "name": "B4",
            "ticks": 183360,
            "time": 133.255734,
            "velocity": 0.7874015748031497
          },
          {
            "duration": 0.3488370000000032,
            "durationTicks": 480,
            "midi": 76,
            "name": "E5",
            "ticks": 183360,
            "time": 133.255734,
            "velocity": 1
          },
          {
            "duration": 0.3488370000000032,
            "durationTicks": 480,
            "midi": 66,
            "name": "F#4",
            "ticks": 183840,
            "time": 133.604571,
            "velocity": 1
          },
          {
            "duration": 0.3488370000000032,
            "durationTicks": 480,
            "midi": 71,
            "name": "B4",
            "ticks": 183840,
            "time": 133.604571,
            "velocity": 0.7874015748031497
          },
          {
            "duration": 0.3488370000000032,
            "durationTicks": 480,
            "midi": 76,
            "name": "E5",
            "ticks": 183840,
            "time": 133.604571,
            "velocity": 1
          },
          {
            "duration": 0.3488370000000032,
            "durationTicks": 480,
            "midi": 66,
            "name": "F#4",
            "ticks": 184320,
            "time": 133.953408,
            "velocity": 1
          },
          {
            "duration": 0.3488370000000032,
            "durationTicks": 480,
            "midi": 71,
            "name": "B4",
            "ticks": 184320,
            "time": 133.953408,
            "velocity": 0.7874015748031497
          },
          {
            "duration": 0.3488370000000032,
            "durationTicks": 480,
            "midi": 76,
            "name": "E5",
            "ticks": 184320,
            "time": 133.953408,
            "velocity": 1
          },
          {
            "duration": 0.3488370000000032,
            "durationTicks": 480,
            "midi": 66,
            "name": "F#4",
            "ticks": 184800,
            "time": 134.302245,
            "velocity": 1
          },
          {
            "duration": 0.3488370000000032,
            "durationTicks": 480,
            "midi": 71,
            "name": "B4",
            "ticks": 184800,
            "time": 134.302245,
            "velocity": 0.7874015748031497
          },
          {
            "duration": 0.3488370000000032,
            "durationTicks": 480,
            "midi": 76,
            "name": "E5",
            "ticks": 184800,
            "time": 134.302245,
            "velocity": 1
          },
          {
            "duration": 0.3488370000000032,
            "durationTicks": 480,
            "midi": 66,
            "name": "F#4",
            "ticks": 185280,
            "time": 134.651082,
            "velocity": 1
          },
          {
            "duration": 0.3488370000000032,
            "durationTicks": 480,
            "midi": 71,
            "name": "B4",
            "ticks": 185280,
            "time": 134.651082,
            "velocity": 0.7874015748031497
          },
          {
            "duration": 0.3488370000000032,
            "durationTicks": 480,
            "midi": 76,
            "name": "E5",
            "ticks": 185280,
            "time": 134.651082,
            "velocity": 1
          },
          {
            "duration": 0.3488370000000032,
            "durationTicks": 480,
            "midi": 66,
            "name": "F#4",
            "ticks": 185760,
            "time": 134.999919,
            "velocity": 1
          },
          {
            "duration": 0.3488370000000032,
            "durationTicks": 480,
            "midi": 71,
            "name": "B4",
            "ticks": 185760,
            "time": 134.999919,
            "velocity": 0.7874015748031497
          },
          {
            "duration": 0.3488370000000032,
            "durationTicks": 480,
            "midi": 76,
            "name": "E5",
            "ticks": 185760,
            "time": 134.999919,
            "velocity": 1
          },
          {
            "duration": 1.3953479999999843,
            "durationTicks": 1920,
            "midi": 66,
            "name": "F#4",
            "ticks": 186240,
            "time": 135.348756,
            "velocity": 0.7874015748031497
          },
          {
            "duration": 1.3953479999999843,
            "durationTicks": 1920,
            "midi": 71,
            "name": "B4",
            "ticks": 186240,
            "time": 135.348756,
            "velocity": 0.7874015748031497
          },
          {
            "duration": 1.3953479999999843,
            "durationTicks": 1920,
            "midi": 75,
            "name": "D#5",
            "ticks": 186240,
            "time": 135.348756,
            "velocity": 0.7874015748031497
          },
          {
            "duration": 0.3488370000000032,
            "durationTicks": 480,
            "midi": 66,
            "name": "F#4",
            "ticks": 270720,
            "time": 196.744068,
            "velocity": 0.7874015748031497
          },
          {
            "duration": 0.3488370000000032,
            "durationTicks": 480,
            "midi": 71,
            "name": "B4",
            "ticks": 270720,
            "time": 196.744068,
            "velocity": 0.7874015748031497
          },
          {
            "duration": 0.3488370000000032,
            "durationTicks": 480,
            "midi": 78,
            "name": "F#5",
            "ticks": 270720,
            "time": 196.744068,
            "velocity": 1
          },
          {
            "duration": 0.3488370000000032,
            "durationTicks": 480,
            "midi": 66,
            "name": "F#4",
            "ticks": 271200,
            "time": 197.092905,
            "velocity": 0.7874015748031497
          },
          {
            "duration": 0.3488370000000032,
            "durationTicks": 480,
            "midi": 71,
            "name": "B4",
            "ticks": 271200,
            "time": 197.092905,
            "velocity": 0.7874015748031497
          },
          {
            "duration": 0.3488370000000032,
            "durationTicks": 480,
            "midi": 78,
            "name": "F#5",
            "ticks": 271200,
            "time": 197.092905,
            "velocity": 1
          },
          {
            "duration": 0.3488370000000032,
            "durationTicks": 480,
            "midi": 66,
            "name": "F#4",
            "ticks": 271680,
            "time": 197.441742,
            "velocity": 0.7874015748031497
          },
          {
            "duration": 0.3488370000000032,
            "durationTicks": 480,
            "midi": 71,
            "name": "B4",
            "ticks": 271680,
            "time": 197.441742,
            "velocity": 0.7874015748031497
          },
          {
            "duration": 0.3488370000000032,
            "durationTicks": 480,
            "midi": 78,
            "name": "F#5",
            "ticks": 271680,
            "time": 197.441742,
            "velocity": 1
          },
          {
            "duration": 0.3488370000000032,
            "durationTicks": 480,
            "midi": 66,
            "name": "F#4",
            "ticks": 272160,
            "time": 197.790579,
            "velocity": 1
          },
          {
            "duration": 0.3488370000000032,
            "durationTicks": 480,
            "midi": 71,
            "name": "B4",
            "ticks": 272160,
            "time": 197.790579,
            "velocity": 0.7874015748031497
          },
          {
            "duration": 0.3488370000000032,
            "durationTicks": 480,
            "midi": 78,
            "name": "F#5",
            "ticks": 272160,
            "time": 197.790579,
            "velocity": 1
          },
          {
            "duration": 0.3488370000000032,
            "durationTicks": 480,
            "midi": 66,
            "name": "F#4",
            "ticks": 272640,
            "time": 198.139416,
            "velocity": 0.7874015748031497
          },
          {
            "duration": 0.3488370000000032,
            "durationTicks": 480,
            "midi": 71,
            "name": "B4",
            "ticks": 272640,
            "time": 198.139416,
            "velocity": 0.7874015748031497
          },
          {
            "duration": 0.3488370000000032,
            "durationTicks": 480,
            "midi": 78,
            "name": "F#5",
            "ticks": 272640,
            "time": 198.139416,
            "velocity": 1
          },
          {
            "duration": 0.3488370000000032,
            "durationTicks": 480,
            "midi": 66,
            "name": "F#4",
            "ticks": 273120,
            "time": 198.48825300000001,
            "velocity": 0.7874015748031497
          },
          {
            "duration": 0.3488370000000032,
            "durationTicks": 480,
            "midi": 71,
            "name": "B4",
            "ticks": 273120,
            "time": 198.48825300000001,
            "velocity": 0.7874015748031497
          },
          {
            "duration": 0.3488370000000032,
            "durationTicks": 480,
            "midi": 78,
            "name": "F#5",
            "ticks": 273120,
            "time": 198.48825300000001,
            "velocity": 0.7874015748031497
          },
          {
            "duration": 0.34883699999997475,
            "durationTicks": 480,
            "midi": 66,
            "name": "F#4",
            "ticks": 273600,
            "time": 198.83709000000002,
            "velocity": 0.7874015748031497
          },
          {
            "duration": 0.34883699999997475,
            "durationTicks": 480,
            "midi": 71,
            "name": "B4",
            "ticks": 273600,
            "time": 198.83709000000002,
            "velocity": 0.7874015748031497
          },
          {
            "duration": 0.34883699999997475,
            "durationTicks": 480,
            "midi": 78,
            "name": "F#5",
            "ticks": 273600,
            "time": 198.83709000000002,
            "velocity": 1
          },
          {
            "duration": 0.3488370000000032,
            "durationTicks": 480,
            "midi": 66,
            "name": "F#4",
            "ticks": 274080,
            "time": 199.185927,
            "velocity": 0.7874015748031497
          },
          {
            "duration": 0.3488370000000032,
            "durationTicks": 480,
            "midi": 71,
            "name": "B4",
            "ticks": 274080,
            "time": 199.185927,
            "velocity": 0.7874015748031497
          },
          {
            "duration": 0.3488370000000032,
            "durationTicks": 480,
            "midi": 78,
            "name": "F#5",
            "ticks": 274080,
            "time": 199.185927,
            "velocity": 1
          },
          {
            "duration": 0.3488370000000032,
            "durationTicks": 480,
            "midi": 66,
            "name": "F#4",
            "ticks": 274560,
            "time": 199.534764,
            "velocity": 0.7874015748031497
          },
          {
            "duration": 0.3488370000000032,
            "durationTicks": 480,
            "midi": 71,
            "name": "B4",
            "ticks": 274560,
            "time": 199.534764,
            "velocity": 0.7874015748031497
          },
          {
            "duration": 0.3488370000000032,
            "durationTicks": 480,
            "midi": 76,
            "name": "E5",
            "ticks": 274560,
            "time": 199.534764,
            "velocity": 1
          },
          {
            "duration": 0.3488370000000032,
            "durationTicks": 480,
            "midi": 66,
            "name": "F#4",
            "ticks": 275040,
            "time": 199.883601,
            "velocity": 0.7874015748031497
          },
          {
            "duration": 0.3488370000000032,
            "durationTicks": 480,
            "midi": 71,
            "name": "B4",
            "ticks": 275040,
            "time": 199.883601,
            "velocity": 0.7874015748031497
          },
          {
            "duration": 0.3488370000000032,
            "durationTicks": 480,
            "midi": 76,
            "name": "E5",
            "ticks": 275040,
            "time": 199.883601,
            "velocity": 0.7874015748031497
          },
          {
            "duration": 0.3488370000000032,
            "durationTicks": 480,
            "midi": 66,
            "name": "F#4",
            "ticks": 275520,
            "time": 200.232438,
            "velocity": 0.7874015748031497
          },
          {
            "duration": 0.3488370000000032,
            "durationTicks": 480,
            "midi": 71,
            "name": "B4",
            "ticks": 275520,
            "time": 200.232438,
            "velocity": 0.7874015748031497
          },
          {
            "duration": 0.3488370000000032,
            "durationTicks": 480,
            "midi": 76,
            "name": "E5",
            "ticks": 275520,
            "time": 200.232438,
            "velocity": 1
          },
          {
            "duration": 0.3488370000000032,
            "durationTicks": 480,
            "midi": 66,
            "name": "F#4",
            "ticks": 276000,
            "time": 200.581275,
            "velocity": 0.7874015748031497
          },
          {
            "duration": 0.3488370000000032,
            "durationTicks": 480,
            "midi": 71,
            "name": "B4",
            "ticks": 276000,
            "time": 200.581275,
            "velocity": 0.7874015748031497
          },
          {
            "duration": 0.3488370000000032,
            "durationTicks": 480,
            "midi": 76,
            "name": "E5",
            "ticks": 276000,
            "time": 200.581275,
            "velocity": 1
          },
          {
            "duration": 0.3488370000000032,
            "durationTicks": 480,
            "midi": 66,
            "name": "F#4",
            "ticks": 276480,
            "time": 200.930112,
            "velocity": 0.7874015748031497
          },
          {
            "duration": 0.3488370000000032,
            "durationTicks": 480,
            "midi": 71,
            "name": "B4",
            "ticks": 276480,
            "time": 200.930112,
            "velocity": 0.7874015748031497
          },
          {
            "duration": 0.3488370000000032,
            "durationTicks": 480,
            "midi": 76,
            "name": "E5",
            "ticks": 276480,
            "time": 200.930112,
            "velocity": 1
          },
          {
            "duration": 0.3488370000000032,
            "durationTicks": 480,
            "midi": 66,
            "name": "F#4",
            "ticks": 276960,
            "time": 201.278949,
            "velocity": 0.7874015748031497
          },
          {
            "duration": 0.3488370000000032,
            "durationTicks": 480,
            "midi": 71,
            "name": "B4",
            "ticks": 276960,
            "time": 201.278949,
            "velocity": 0.7874015748031497
          },
          {
            "duration": 0.3488370000000032,
            "durationTicks": 480,
            "midi": 76,
            "name": "E5",
            "ticks": 276960,
            "time": 201.278949,
            "velocity": 1
          },
          {
            "duration": 0.3488370000000032,
            "durationTicks": 480,
            "midi": 66,
            "name": "F#4",
            "ticks": 277440,
            "time": 201.62778600000001,
            "velocity": 0.7874015748031497
          },
          {
            "duration": 0.3488370000000032,
            "durationTicks": 480,
            "midi": 71,
            "name": "B4",
            "ticks": 277440,
            "time": 201.62778600000001,
            "velocity": 0.7874015748031497
          },
          {
            "duration": 0.3488370000000032,
            "durationTicks": 480,
            "midi": 76,
            "name": "E5",
            "ticks": 277440,
            "time": 201.62778600000001,
            "velocity": 1
          },
          {
            "duration": 0.34883699999997475,
            "durationTicks": 480,
            "midi": 66,
            "name": "F#4",
            "ticks": 277920,
            "time": 201.97662300000002,
            "velocity": 0.7874015748031497
          },
          {
            "duration": 0.34883699999997475,
            "durationTicks": 480,
            "midi": 71,
            "name": "B4",
            "ticks": 277920,
            "time": 201.97662300000002,
            "velocity": 0.7874015748031497
          },
          {
            "duration": 0.34883699999997475,
            "durationTicks": 480,
            "midi": 76,
            "name": "E5",
            "ticks": 277920,
            "time": 201.97662300000002,
            "velocity": 1
          },
          {
            "duration": 0.3488370000000032,
            "durationTicks": 480,
            "midi": 66,
            "name": "F#4",
            "ticks": 278400,
            "time": 202.32546,
            "velocity": 0.7874015748031497
          },
          {
            "duration": 0.3488370000000032,
            "durationTicks": 480,
            "midi": 73,
            "name": "C#5",
            "ticks": 278400,
            "time": 202.32546,
            "velocity": 1
          },
          {
            "duration": 0.3488370000000032,
            "durationTicks": 480,
            "midi": 78,
            "name": "F#5",
            "ticks": 278400,
            "time": 202.32546,
            "velocity": 0.7874015748031497
          },
          {
            "duration": 0.3488370000000032,
            "durationTicks": 480,
            "midi": 82,
            "name": "A#5",
            "ticks": 278400,
            "time": 202.32546,
            "velocity": 1
          },
          {
            "duration": 0.3488370000000032,
            "durationTicks": 480,
            "midi": 66,
            "name": "F#4",
            "ticks": 278880,
            "time": 202.674297,
            "velocity": 0.7874015748031497
          },
          {
            "duration": 0.3488370000000032,
            "durationTicks": 480,
            "midi": 73,
            "name": "C#5",
            "ticks": 278880,
            "time": 202.674297,
            "velocity": 1
          },
          {
            "duration": 0.3488370000000032,
            "durationTicks": 480,
            "midi": 78,
            "name": "F#5",
            "ticks": 278880,
            "time": 202.674297,
            "velocity": 0.7874015748031497
          },
          {
            "duration": 0.3488370000000032,
            "durationTicks": 480,
            "midi": 82,
            "name": "A#5",
            "ticks": 278880,
            "time": 202.674297,
            "velocity": 0.7874015748031497
          },
          {
            "duration": 0.3488370000000032,
            "durationTicks": 480,
            "midi": 66,
            "name": "F#4",
            "ticks": 279360,
            "time": 203.023134,
            "velocity": 0.7874015748031497
          },
          {
            "duration": 0.3488370000000032,
            "durationTicks": 480,
            "midi": 73,
            "name": "C#5",
            "ticks": 279360,
            "time": 203.023134,
            "velocity": 1
          },
          {
            "duration": 0.3488370000000032,
            "durationTicks": 480,
            "midi": 78,
            "name": "F#5",
            "ticks": 279360,
            "time": 203.023134,
            "velocity": 0.7874015748031497
          },
          {
            "duration": 0.3488370000000032,
            "durationTicks": 480,
            "midi": 82,
            "name": "A#5",
            "ticks": 279360,
            "time": 203.023134,
            "velocity": 1
          },
          {
            "duration": 0.3488370000000032,
            "durationTicks": 480,
            "midi": 66,
            "name": "F#4",
            "ticks": 279840,
            "time": 203.371971,
            "velocity": 0.7874015748031497
          },
          {
            "duration": 0.3488370000000032,
            "durationTicks": 480,
            "midi": 73,
            "name": "C#5",
            "ticks": 279840,
            "time": 203.371971,
            "velocity": 1
          },
          {
            "duration": 0.3488370000000032,
            "durationTicks": 480,
            "midi": 78,
            "name": "F#5",
            "ticks": 279840,
            "time": 203.371971,
            "velocity": 0.7874015748031497
          },
          {
            "duration": 0.3488370000000032,
            "durationTicks": 480,
            "midi": 82,
            "name": "A#5",
            "ticks": 279840,
            "time": 203.371971,
            "velocity": 1
          },
          {
            "duration": 0.3488370000000032,
            "durationTicks": 480,
            "midi": 66,
            "name": "F#4",
            "ticks": 280320,
            "time": 203.720808,
            "velocity": 0.7874015748031497
          },
          {
            "duration": 0.3488370000000032,
            "durationTicks": 480,
            "midi": 73,
            "name": "C#5",
            "ticks": 280320,
            "time": 203.720808,
            "velocity": 0.7874015748031497
          },
          {
            "duration": 0.3488370000000032,
            "durationTicks": 480,
            "midi": 78,
            "name": "F#5",
            "ticks": 280320,
            "time": 203.720808,
            "velocity": 0.7874015748031497
          },
          {
            "duration": 0.3488370000000032,
            "durationTicks": 480,
            "midi": 82,
            "name": "A#5",
            "ticks": 280320,
            "time": 203.720808,
            "velocity": 1
          },
          {
            "duration": 0.3488370000000032,
            "durationTicks": 480,
            "midi": 66,
            "name": "F#4",
            "ticks": 280800,
            "time": 204.069645,
            "velocity": 0.7874015748031497
          },
          {
            "duration": 0.3488370000000032,
            "durationTicks": 480,
            "midi": 73,
            "name": "C#5",
            "ticks": 280800,
            "time": 204.069645,
            "velocity": 0.7874015748031497
          },
          {
            "duration": 0.3488370000000032,
            "durationTicks": 480,
            "midi": 78,
            "name": "F#5",
            "ticks": 280800,
            "time": 204.069645,
            "velocity": 0.7874015748031497
          },
          {
            "duration": 0.3488370000000032,
            "durationTicks": 480,
            "midi": 82,
            "name": "A#5",
            "ticks": 280800,
            "time": 204.069645,
            "velocity": 1
          },
          {
            "duration": 0.3488370000000032,
            "durationTicks": 480,
            "midi": 66,
            "name": "F#4",
            "ticks": 281280,
            "time": 204.418482,
            "velocity": 0.7874015748031497
          },
          {
            "duration": 0.3488370000000032,
            "durationTicks": 480,
            "midi": 73,
            "name": "C#5",
            "ticks": 281280,
            "time": 204.418482,
            "velocity": 0.7874015748031497
          },
          {
            "duration": 0.3488370000000032,
            "durationTicks": 480,
            "midi": 78,
            "name": "F#5",
            "ticks": 281280,
            "time": 204.418482,
            "velocity": 0.7874015748031497
          },
          {
            "duration": 0.3488370000000032,
            "durationTicks": 480,
            "midi": 82,
            "name": "A#5",
            "ticks": 281280,
            "time": 204.418482,
            "velocity": 1
          },
          {
            "duration": 0.3488370000000032,
            "durationTicks": 480,
            "midi": 66,
            "name": "F#4",
            "ticks": 281760,
            "time": 204.76731900000001,
            "velocity": 0.7874015748031497
          },
          {
            "duration": 0.3488370000000032,
            "durationTicks": 480,
            "midi": 73,
            "name": "C#5",
            "ticks": 281760,
            "time": 204.76731900000001,
            "velocity": 0.7874015748031497
          },
          {
            "duration": 0.3488370000000032,
            "durationTicks": 480,
            "midi": 78,
            "name": "F#5",
            "ticks": 281760,
            "time": 204.76731900000001,
            "velocity": 0.7874015748031497
          },
          {
            "duration": 0.3488370000000032,
            "durationTicks": 480,
            "midi": 82,
            "name": "A#5",
            "ticks": 281760,
            "time": 204.76731900000001,
            "velocity": 1
          },
          {
            "duration": 0.34883699999997475,
            "durationTicks": 480,
            "midi": 66,
            "name": "F#4",
            "ticks": 282240,
            "time": 205.11615600000002,
            "velocity": 0.7874015748031497
          },
          {
            "duration": 0.34883699999997475,
            "durationTicks": 480,
            "midi": 70,
            "name": "A#4",
            "ticks": 282240,
            "time": 205.11615600000002,
            "velocity": 0.7874015748031497
          },
          {
            "duration": 0.34883699999997475,
            "durationTicks": 480,
            "midi": 73,
            "name": "C#5",
            "ticks": 282240,
            "time": 205.11615600000002,
            "velocity": 0.7874015748031497
          },
          {
            "duration": 0.34883699999997475,
            "durationTicks": 480,
            "midi": 80,
            "name": "G#5",
            "ticks": 282240,
            "time": 205.11615600000002,
            "velocity": 1
          },
          {
            "duration": 0.3488370000000032,
            "durationTicks": 480,
            "midi": 66,
            "name": "F#4",
            "ticks": 282720,
            "time": 205.464993,
            "velocity": 0.7874015748031497
          },
          {
            "duration": 0.3488370000000032,
            "durationTicks": 480,
            "midi": 70,
            "name": "A#4",
            "ticks": 282720,
            "time": 205.464993,
            "velocity": 0.7874015748031497
          },
          {
            "duration": 0.3488370000000032,
            "durationTicks": 480,
            "midi": 73,
            "name": "C#5",
            "ticks": 282720,
            "time": 205.464993,
            "velocity": 0.7874015748031497
          },
          {
            "duration": 0.3488370000000032,
            "durationTicks": 480,
            "midi": 80,
            "name": "G#5",
            "ticks": 282720,
            "time": 205.464993,
            "velocity": 1
          },
          {
            "duration": 0.3488370000000032,
            "durationTicks": 480,
            "midi": 66,
            "name": "F#4",
            "ticks": 283200,
            "time": 205.81383,
            "velocity": 0.7874015748031497
          },
          {
            "duration": 0.3488370000000032,
            "durationTicks": 480,
            "midi": 70,
            "name": "A#4",
            "ticks": 283200,
            "time": 205.81383,
            "velocity": 0.7874015748031497
          },
          {
            "duration": 0.3488370000000032,
            "durationTicks": 480,
            "midi": 73,
            "name": "C#5",
            "ticks": 283200,
            "time": 205.81383,
            "velocity": 0.7874015748031497
          },
          {
            "duration": 0.3488370000000032,
            "durationTicks": 480,
            "midi": 80,
            "name": "G#5",
            "ticks": 283200,
            "time": 205.81383,
            "velocity": 1
          },
          {
            "duration": 0.3488370000000032,
            "durationTicks": 480,
            "midi": 66,
            "name": "F#4",
            "ticks": 283680,
            "time": 206.162667,
            "velocity": 0.7874015748031497
          },
          {
            "duration": 0.3488370000000032,
            "durationTicks": 480,
            "midi": 70,
            "name": "A#4",
            "ticks": 283680,
            "time": 206.162667,
            "velocity": 0.7874015748031497
          },
          {
            "duration": 0.3488370000000032,
            "durationTicks": 480,
            "midi": 73,
            "name": "C#5",
            "ticks": 283680,
            "time": 206.162667,
            "velocity": 0.7874015748031497
          },
          {
            "duration": 0.3488370000000032,
            "durationTicks": 480,
            "midi": 80,
            "name": "G#5",
            "ticks": 283680,
            "time": 206.162667,
            "velocity": 1
          },
          {
            "duration": 0.3488370000000032,
            "durationTicks": 480,
            "midi": 66,
            "name": "F#4",
            "ticks": 284160,
            "time": 206.511504,
            "velocity": 0.7874015748031497
          },
          {
            "duration": 0.3488370000000032,
            "durationTicks": 480,
            "midi": 70,
            "name": "A#4",
            "ticks": 284160,
            "time": 206.511504,
            "velocity": 0.7874015748031497
          },
          {
            "duration": 0.3488370000000032,
            "durationTicks": 480,
            "midi": 73,
            "name": "C#5",
            "ticks": 284160,
            "time": 206.511504,
            "velocity": 0.7874015748031497
          },
          {
            "duration": 0.3488370000000032,
            "durationTicks": 480,
            "midi": 80,
            "name": "G#5",
            "ticks": 284160,
            "time": 206.511504,
            "velocity": 1
          },
          {
            "duration": 0.3488370000000032,
            "durationTicks": 480,
            "midi": 66,
            "name": "F#4",
            "ticks": 284640,
            "time": 206.860341,
            "velocity": 0.7874015748031497
          },
          {
            "duration": 0.3488370000000032,
            "durationTicks": 480,
            "midi": 70,
            "name": "A#4",
            "ticks": 284640,
            "time": 206.860341,
            "velocity": 0.7874015748031497
          },
          {
            "duration": 0.3488370000000032,
            "durationTicks": 480,
            "midi": 73,
            "name": "C#5",
            "ticks": 284640,
            "time": 206.860341,
            "velocity": 0.7874015748031497
          },
          {
            "duration": 0.3488370000000032,
            "durationTicks": 480,
            "midi": 80,
            "name": "G#5",
            "ticks": 284640,
            "time": 206.860341,
            "velocity": 1
          },
          {
            "duration": 0.3488370000000032,
            "durationTicks": 480,
            "midi": 66,
            "name": "F#4",
            "ticks": 285120,
            "time": 207.209178,
            "velocity": 0.7874015748031497
          },
          {
            "duration": 0.3488370000000032,
            "durationTicks": 480,
            "midi": 70,
            "name": "A#4",
            "ticks": 285120,
            "time": 207.209178,
            "velocity": 0.7874015748031497
          },
          {
            "duration": 0.3488370000000032,
            "durationTicks": 480,
            "midi": 73,
            "name": "C#5",
            "ticks": 285120,
            "time": 207.209178,
            "velocity": 1
          },
          {
            "duration": 0.3488370000000032,
            "durationTicks": 480,
            "midi": 80,
            "name": "G#5",
            "ticks": 285120,
            "time": 207.209178,
            "velocity": 1
          },
          {
            "duration": 0.3488370000000032,
            "durationTicks": 480,
            "midi": 70,
            "name": "A#4",
            "ticks": 285600,
            "time": 207.558015,
            "velocity": 0.7874015748031497
          },
          {
            "duration": 0.3488370000000032,
            "durationTicks": 480,
            "midi": 73,
            "name": "C#5",
            "ticks": 285600,
            "time": 207.558015,
            "velocity": 0.7874015748031497
          },
          {
            "duration": 0.2616277500000024,
            "durationTicks": 360,
            "midi": 75,
            "name": "D#5",
            "ticks": 285600,
            "time": 207.558015,
            "velocity": 1
          },
          {
            "duration": 0.3488370000000032,
            "durationTicks": 480,
            "midi": 52,
            "name": "E3",
            "ticks": 286080,
            "time": 207.90685200000001,
            "velocity": 0.7874015748031497
          },
          {
            "duration": 0.3488370000000032,
            "durationTicks": 480,
            "midi": 61,
            "name": "C#4",
            "ticks": 286080,
            "time": 207.90685200000001,
            "velocity": 0.7874015748031497
          },
          {
            "duration": 0.3488370000000032,
            "durationTicks": 480,
            "midi": 68,
            "name": "G#4",
            "ticks": 286080,
            "time": 207.90685200000001,
            "velocity": 0.7874015748031497
          },
          {
            "duration": 0.3488370000000032,
            "durationTicks": 480,
            "midi": 73,
            "name": "C#5",
            "ticks": 286080,
            "time": 207.90685200000001,
            "velocity": 0.7874015748031497
          },
          {
            "duration": 0.34883699999997475,
            "durationTicks": 480,
            "midi": 52,
            "name": "E3",
            "ticks": 286560,
            "time": 208.25568900000002,
            "velocity": 0.7874015748031497
          },
          {
            "duration": 0.34883699999997475,
            "durationTicks": 480,
            "midi": 61,
            "name": "C#4",
            "ticks": 286560,
            "time": 208.25568900000002,
            "velocity": 0.7874015748031497
          },
          {
            "duration": 0.34883699999997475,
            "durationTicks": 480,
            "midi": 68,
            "name": "G#4",
            "ticks": 286560,
            "time": 208.25568900000002,
            "velocity": 0.7874015748031497
          },
          {
            "duration": 0.34883699999997475,
            "durationTicks": 480,
            "midi": 73,
            "name": "C#5",
            "ticks": 286560,
            "time": 208.25568900000002,
            "velocity": 1
          },
          {
            "duration": 0.3488370000000032,
            "durationTicks": 480,
            "midi": 52,
            "name": "E3",
            "ticks": 287040,
            "time": 208.604526,
            "velocity": 0.7874015748031497
          },
          {
            "duration": 0.3488370000000032,
            "durationTicks": 480,
            "midi": 61,
            "name": "C#4",
            "ticks": 287040,
            "time": 208.604526,
            "velocity": 0.7874015748031497
          },
          {
            "duration": 0.3488370000000032,
            "durationTicks": 480,
            "midi": 68,
            "name": "G#4",
            "ticks": 287040,
            "time": 208.604526,
            "velocity": 0.7874015748031497
          },
          {
            "duration": 0.3488370000000032,
            "durationTicks": 480,
            "midi": 73,
            "name": "C#5",
            "ticks": 287040,
            "time": 208.604526,
            "velocity": 1
          },
          {
            "duration": 0.3488370000000032,
            "durationTicks": 480,
            "midi": 52,
            "name": "E3",
            "ticks": 287520,
            "time": 208.953363,
            "velocity": 0.7874015748031497
          },
          {
            "duration": 0.3488370000000032,
            "durationTicks": 480,
            "midi": 61,
            "name": "C#4",
            "ticks": 287520,
            "time": 208.953363,
            "velocity": 0.7874015748031497
          },
          {
            "duration": 0.3488370000000032,
            "durationTicks": 480,
            "midi": 68,
            "name": "G#4",
            "ticks": 287520,
            "time": 208.953363,
            "velocity": 0.7874015748031497
          },
          {
            "duration": 0.3488370000000032,
            "durationTicks": 480,
            "midi": 73,
            "name": "C#5",
            "ticks": 287520,
            "time": 208.953363,
            "velocity": 1
          },
          {
            "duration": 0.3488370000000032,
            "durationTicks": 480,
            "midi": 52,
            "name": "E3",
            "ticks": 288000,
            "time": 209.3022,
            "velocity": 0.7874015748031497
          },
          {
            "duration": 0.3488370000000032,
            "durationTicks": 480,
            "midi": 61,
            "name": "C#4",
            "ticks": 288000,
            "time": 209.3022,
            "velocity": 0.7874015748031497
          },
          {
            "duration": 0.3488370000000032,
            "durationTicks": 480,
            "midi": 68,
            "name": "G#4",
            "ticks": 288000,
            "time": 209.3022,
            "velocity": 0.7874015748031497
          },
          {
            "duration": 0.3488370000000032,
            "durationTicks": 480,
            "midi": 73,
            "name": "C#5",
            "ticks": 288000,
            "time": 209.3022,
            "velocity": 1
          },
          {
            "duration": 0.3488370000000032,
            "durationTicks": 480,
            "midi": 52,
            "name": "E3",
            "ticks": 288480,
            "time": 209.651037,
            "velocity": 0.7874015748031497
          },
          {
            "duration": 0.3488370000000032,
            "durationTicks": 480,
            "midi": 61,
            "name": "C#4",
            "ticks": 288480,
            "time": 209.651037,
            "velocity": 0.7874015748031497
          },
          {
            "duration": 0.3488370000000032,
            "durationTicks": 480,
            "midi": 68,
            "name": "G#4",
            "ticks": 288480,
            "time": 209.651037,
            "velocity": 0.7874015748031497
          },
          {
            "duration": 0.3488370000000032,
            "durationTicks": 480,
            "midi": 73,
            "name": "C#5",
            "ticks": 288480,
            "time": 209.651037,
            "velocity": 1
          },
          {
            "duration": 0.3488370000000032,
            "durationTicks": 480,
            "midi": 52,
            "name": "E3",
            "ticks": 288960,
            "time": 209.999874,
            "velocity": 0.7874015748031497
          },
          {
            "duration": 0.3488370000000032,
            "durationTicks": 480,
            "midi": 61,
            "name": "C#4",
            "ticks": 288960,
            "time": 209.999874,
            "velocity": 0.7874015748031497
          },
          {
            "duration": 0.3488370000000032,
            "durationTicks": 480,
            "midi": 68,
            "name": "G#4",
            "ticks": 288960,
            "time": 209.999874,
            "velocity": 0.7874015748031497
          },
          {
            "duration": 0.3488370000000032,
            "durationTicks": 480,
            "midi": 73,
            "name": "C#5",
            "ticks": 288960,
            "time": 209.999874,
            "velocity": 0.7874015748031497
          },
          {
            "duration": 0.3488370000000032,
            "durationTicks": 480,
            "midi": 52,
            "name": "E3",
            "ticks": 289440,
            "time": 210.348711,
            "velocity": 0.7874015748031497
          },
          {
            "duration": 0.3488370000000032,
            "durationTicks": 480,
            "midi": 61,
            "name": "C#4",
            "ticks": 289440,
            "time": 210.348711,
            "velocity": 0.7874015748031497
          },
          {
            "duration": 0.3488370000000032,
            "durationTicks": 480,
            "midi": 68,
            "name": "G#4",
            "ticks": 289440,
            "time": 210.348711,
            "velocity": 0.7874015748031497
          },
          {
            "duration": 0.3488370000000032,
            "durationTicks": 480,
            "midi": 73,
            "name": "C#5",
            "ticks": 289440,
            "time": 210.348711,
            "velocity": 1
          },
          {
            "duration": 0.3488370000000032,
            "durationTicks": 480,
            "midi": 59,
            "name": "B3",
            "ticks": 289920,
            "time": 210.697548,
            "velocity": 0.7874015748031497
          },
          {
            "duration": 0.3488370000000032,
            "durationTicks": 480,
            "midi": 66,
            "name": "F#4",
            "ticks": 289920,
            "time": 210.697548,
            "velocity": 0.7874015748031497
          },
          {
            "duration": 0.3488370000000032,
            "durationTicks": 480,
            "midi": 71,
            "name": "B4",
            "ticks": 289920,
            "time": 210.697548,
            "velocity": 1
          },
          {
            "duration": 0.3488370000000032,
            "durationTicks": 480,
            "midi": 52,
            "name": "E3",
            "ticks": 290400,
            "time": 211.04638500000001,
            "velocity": 0.7874015748031497
          },
          {
            "duration": 0.3488370000000032,
            "durationTicks": 480,
            "midi": 59,
            "name": "B3",
            "ticks": 290400,
            "time": 211.04638500000001,
            "velocity": 0.7874015748031497
          },
          {
            "duration": 0.3488370000000032,
            "durationTicks": 480,
            "midi": 66,
            "name": "F#4",
            "ticks": 290400,
            "time": 211.04638500000001,
            "velocity": 0.7874015748031497
          },
          {
            "duration": 0.3488370000000032,
            "durationTicks": 480,
            "midi": 71,
            "name": "B4",
            "ticks": 290400,
            "time": 211.04638500000001,
            "velocity": 1
          },
          {
            "duration": 0.34883699999997475,
            "durationTicks": 480,
            "midi": 52,
            "name": "E3",
            "ticks": 290880,
            "time": 211.39522200000002,
            "velocity": 0.7874015748031497
          },
          {
            "duration": 0.34883699999997475,
            "durationTicks": 480,
            "midi": 59,
            "name": "B3",
            "ticks": 290880,
            "time": 211.39522200000002,
            "velocity": 0.7874015748031497
          },
          {
            "duration": 0.34883699999997475,
            "durationTicks": 480,
            "midi": 66,
            "name": "F#4",
            "ticks": 290880,
            "time": 211.39522200000002,
            "velocity": 1
          },
          {
            "duration": 0.34883699999997475,
            "durationTicks": 480,
            "midi": 71,
            "name": "B4",
            "ticks": 290880,
            "time": 211.39522200000002,
            "velocity": 1
          },
          {
            "duration": 0.3488370000000032,
            "durationTicks": 480,
            "midi": 52,
            "name": "E3",
            "ticks": 291360,
            "time": 211.744059,
            "velocity": 0.7874015748031497
          },
          {
            "duration": 0.3488370000000032,
            "durationTicks": 480,
            "midi": 59,
            "name": "B3",
            "ticks": 291360,
            "time": 211.744059,
            "velocity": 0.7874015748031497
          },
          {
            "duration": 0.3488370000000032,
            "durationTicks": 480,
            "midi": 66,
            "name": "F#4",
            "ticks": 291360,
            "time": 211.744059,
            "velocity": 0.7874015748031497
          },
          {
            "duration": 0.3488370000000032,
            "durationTicks": 480,
            "midi": 71,
            "name": "B4",
            "ticks": 291360,
            "time": 211.744059,
            "velocity": 0.7874015748031497
          },
          {
            "duration": 0.3488370000000032,
            "durationTicks": 480,
            "midi": 52,
            "name": "E3",
            "ticks": 291840,
            "time": 212.092896,
            "velocity": 0.7874015748031497
          },
          {
            "duration": 0.3488370000000032,
            "durationTicks": 480,
            "midi": 59,
            "name": "B3",
            "ticks": 291840,
            "time": 212.092896,
            "velocity": 0.7874015748031497
          },
          {
            "duration": 0.3488370000000032,
            "durationTicks": 480,
            "midi": 66,
            "name": "F#4",
            "ticks": 291840,
            "time": 212.092896,
            "velocity": 0.7874015748031497
          },
          {
            "duration": 0.3488370000000032,
            "durationTicks": 480,
            "midi": 71,
            "name": "B4",
            "ticks": 291840,
            "time": 212.092896,
            "velocity": 1
          },
          {
            "duration": 0.3488370000000032,
            "durationTicks": 480,
            "midi": 52,
            "name": "E3",
            "ticks": 292320,
            "time": 212.441733,
            "velocity": 0.7874015748031497
          },
          {
            "duration": 0.3488370000000032,
            "durationTicks": 480,
            "midi": 59,
            "name": "B3",
            "ticks": 292320,
            "time": 212.441733,
            "velocity": 0.7874015748031497
          },
          {
            "duration": 0.3488370000000032,
            "durationTicks": 480,
            "midi": 66,
            "name": "F#4",
            "ticks": 292320,
            "time": 212.441733,
            "velocity": 0.7874015748031497
          },
          {
            "duration": 0.3488370000000032,
            "durationTicks": 480,
            "midi": 71,
            "name": "B4",
            "ticks": 292320,
            "time": 212.441733,
            "velocity": 1
          },
          {
            "duration": 0.3488370000000032,
            "durationTicks": 480,
            "midi": 52,
            "name": "E3",
            "ticks": 292800,
            "time": 212.79057,
            "velocity": 0.7874015748031497
          },
          {
            "duration": 0.3488370000000032,
            "durationTicks": 480,
            "midi": 59,
            "name": "B3",
            "ticks": 292800,
            "time": 212.79057,
            "velocity": 0.7874015748031497
          },
          {
            "duration": 0.3488370000000032,
            "durationTicks": 480,
            "midi": 66,
            "name": "F#4",
            "ticks": 292800,
            "time": 212.79057,
            "velocity": 0.7874015748031497
          },
          {
            "duration": 0.3488370000000032,
            "durationTicks": 480,
            "midi": 71,
            "name": "B4",
            "ticks": 292800,
            "time": 212.79057,
            "velocity": 1
          },
          {
            "duration": 0.3488370000000032,
            "durationTicks": 480,
            "midi": 52,
            "name": "E3",
            "ticks": 293280,
            "time": 213.139407,
            "velocity": 0.7874015748031497
          },
          {
            "duration": 0.3488370000000032,
            "durationTicks": 480,
            "midi": 59,
            "name": "B3",
            "ticks": 293280,
            "time": 213.139407,
            "velocity": 0.7874015748031497
          },
          {
            "duration": 0.3488370000000032,
            "durationTicks": 480,
            "midi": 66,
            "name": "F#4",
            "ticks": 293280,
            "time": 213.139407,
            "velocity": 0.7874015748031497
          },
          {
            "duration": 0.3488370000000032,
            "durationTicks": 480,
            "midi": 71,
            "name": "B4",
            "ticks": 293280,
            "time": 213.139407,
            "velocity": 1
          },
          {
            "duration": 0.3488370000000032,
            "durationTicks": 480,
            "midi": 66,
            "name": "F#4",
            "ticks": 293760,
            "time": 213.488244,
            "velocity": 0.7874015748031497
          },
          {
            "duration": 0.3488370000000032,
            "durationTicks": 480,
            "midi": 71,
            "name": "B4",
            "ticks": 293760,
            "time": 213.488244,
            "velocity": 0.7874015748031497
          },
          {
            "duration": 0.3488370000000032,
            "durationTicks": 480,
            "midi": 78,
            "name": "F#5",
            "ticks": 293760,
            "time": 213.488244,
            "velocity": 1
          },
          {
            "duration": 0.3488370000000032,
            "durationTicks": 480,
            "midi": 66,
            "name": "F#4",
            "ticks": 294240,
            "time": 213.837081,
            "velocity": 0.7874015748031497
          },
          {
            "duration": 0.3488370000000032,
            "durationTicks": 480,
            "midi": 71,
            "name": "B4",
            "ticks": 294240,
            "time": 213.837081,
            "velocity": 0.7874015748031497
          },
          {
            "duration": 0.3488370000000032,
            "durationTicks": 480,
            "midi": 78,
            "name": "F#5",
            "ticks": 294240,
            "time": 213.837081,
            "velocity": 1
          },
          {
            "duration": 0.3488370000000032,
            "durationTicks": 480,
            "midi": 66,
            "name": "F#4",
            "ticks": 294720,
            "time": 214.18591800000002,
            "velocity": 0.7874015748031497
          },
          {
            "duration": 0.3488370000000032,
            "durationTicks": 480,
            "midi": 66,
            "name": "F#4",
            "ticks": 294720,
            "time": 214.18591800000002,
            "velocity": 0.7874015748031497
          },
          {
            "duration": 0.3488370000000032,
            "durationTicks": 480,
            "midi": 71,
            "name": "B4",
            "ticks": 294720,
            "time": 214.18591800000002,
            "velocity": 0.7874015748031497
          },
          {
            "duration": 0.3488370000000032,
            "durationTicks": 480,
            "midi": 78,
            "name": "F#5",
            "ticks": 294720,
            "time": 214.18591800000002,
            "velocity": 1
          },
          {
            "duration": 0.34883699999997475,
            "durationTicks": 480,
            "midi": 66,
            "name": "F#4",
            "ticks": 295200,
            "time": 214.53475500000002,
            "velocity": 0.7874015748031497
          },
          {
            "duration": 0.34883699999997475,
            "durationTicks": 480,
            "midi": 71,
            "name": "B4",
            "ticks": 295200,
            "time": 214.53475500000002,
            "velocity": 0.7874015748031497
          },
          {
            "duration": 0.34883699999997475,
            "durationTicks": 480,
            "midi": 78,
            "name": "F#5",
            "ticks": 295200,
            "time": 214.53475500000002,
            "velocity": 1
          },
          {
            "duration": 0.3488370000000032,
            "durationTicks": 480,
            "midi": 66,
            "name": "F#4",
            "ticks": 295680,
            "time": 214.883592,
            "velocity": 0.7874015748031497
          },
          {
            "duration": 0.3488370000000032,
            "durationTicks": 480,
            "midi": 71,
            "name": "B4",
            "ticks": 295680,
            "time": 214.883592,
            "velocity": 0.7874015748031497
          },
          {
            "duration": 0.3488370000000032,
            "durationTicks": 480,
            "midi": 78,
            "name": "F#5",
            "ticks": 295680,
            "time": 214.883592,
            "velocity": 1
          },
          {
            "duration": 0.3488370000000032,
            "durationTicks": 480,
            "midi": 66,
            "name": "F#4",
            "ticks": 296160,
            "time": 215.232429,
            "velocity": 0.7874015748031497
          },
          {
            "duration": 0.3488370000000032,
            "durationTicks": 480,
            "midi": 71,
            "name": "B4",
            "ticks": 296160,
            "time": 215.232429,
            "velocity": 0.7874015748031497
          },
          {
            "duration": 0.3488370000000032,
            "durationTicks": 480,
            "midi": 78,
            "name": "F#5",
            "ticks": 296160,
            "time": 215.232429,
            "velocity": 1
          },
          {
            "duration": 0.3488370000000032,
            "durationTicks": 480,
            "midi": 66,
            "name": "F#4",
            "ticks": 296640,
            "time": 215.581266,
            "velocity": 0.7874015748031497
          },
          {
            "duration": 0.3488370000000032,
            "durationTicks": 480,
            "midi": 71,
            "name": "B4",
            "ticks": 296640,
            "time": 215.581266,
            "velocity": 0.7874015748031497
          },
          {
            "duration": 0.3488370000000032,
            "durationTicks": 480,
            "midi": 78,
            "name": "F#5",
            "ticks": 296640,
            "time": 215.581266,
            "velocity": 1
          },
          {
            "duration": 0.3488370000000032,
            "durationTicks": 480,
            "midi": 66,
            "name": "F#4",
            "ticks": 297120,
            "time": 215.930103,
            "velocity": 0.7874015748031497
          },
          {
            "duration": 0.3488370000000032,
            "durationTicks": 480,
            "midi": 71,
            "name": "B4",
            "ticks": 297120,
            "time": 215.930103,
            "velocity": 0.7874015748031497
          },
          {
            "duration": 0.3488370000000032,
            "durationTicks": 480,
            "midi": 78,
            "name": "F#5",
            "ticks": 297120,
            "time": 215.930103,
            "velocity": 1
          },
          {
            "duration": 0.3488370000000032,
            "durationTicks": 480,
            "midi": 66,
            "name": "F#4",
            "ticks": 297600,
            "time": 216.27894,
            "velocity": 1
          },
          {
            "duration": 0.3488370000000032,
            "durationTicks": 480,
            "midi": 71,
            "name": "B4",
            "ticks": 297600,
            "time": 216.27894,
            "velocity": 0.7874015748031497
          },
          {
            "duration": 0.3488370000000032,
            "durationTicks": 480,
            "midi": 76,
            "name": "E5",
            "ticks": 297600,
            "time": 216.27894,
            "velocity": 1
          },
          {
            "duration": 0.3488370000000032,
            "durationTicks": 480,
            "midi": 66,
            "name": "F#4",
            "ticks": 298080,
            "time": 216.627777,
            "velocity": 0.7874015748031497
          },
          {
            "duration": 0.3488370000000032,
            "durationTicks": 480,
            "midi": 71,
            "name": "B4",
            "ticks": 298080,
            "time": 216.627777,
            "velocity": 0.7874015748031497
          },
          {
            "duration": 0.3488370000000032,
            "durationTicks": 480,
            "midi": 76,
            "name": "E5",
            "ticks": 298080,
            "time": 216.627777,
            "velocity": 1
          },
          {
            "duration": 0.3488370000000032,
            "durationTicks": 480,
            "midi": 66,
            "name": "F#4",
            "ticks": 298560,
            "time": 216.976614,
            "velocity": 1
          },
          {
            "duration": 0.3488370000000032,
            "durationTicks": 480,
            "midi": 71,
            "name": "B4",
            "ticks": 298560,
            "time": 216.976614,
            "velocity": 0.7874015748031497
          },
          {
            "duration": 0.3488370000000032,
            "durationTicks": 480,
            "midi": 76,
            "name": "E5",
            "ticks": 298560,
            "time": 216.976614,
            "velocity": 1
          },
          {
            "duration": 0.3488370000000032,
            "durationTicks": 480,
            "midi": 66,
            "name": "F#4",
            "ticks": 299040,
            "time": 217.32545100000002,
            "velocity": 1
          },
          {
            "duration": 0.3488370000000032,
            "durationTicks": 480,
            "midi": 71,
            "name": "B4",
            "ticks": 299040,
            "time": 217.32545100000002,
            "velocity": 0.7874015748031497
          },
          {
            "duration": 0.3488370000000032,
            "durationTicks": 480,
            "midi": 76,
            "name": "E5",
            "ticks": 299040,
            "time": 217.32545100000002,
            "velocity": 1
          },
          {
            "duration": 0.34883699999997475,
            "durationTicks": 480,
            "midi": 66,
            "name": "F#4",
            "ticks": 299520,
            "time": 217.67428800000002,
            "velocity": 1
          },
          {
            "duration": 0.34883699999997475,
            "durationTicks": 480,
            "midi": 71,
            "name": "B4",
            "ticks": 299520,
            "time": 217.67428800000002,
            "velocity": 0.7874015748031497
          },
          {
            "duration": 0.34883699999997475,
            "durationTicks": 480,
            "midi": 76,
            "name": "E5",
            "ticks": 299520,
            "time": 217.67428800000002,
            "velocity": 1
          },
          {
            "duration": 0.3488370000000032,
            "durationTicks": 480,
            "midi": 66,
            "name": "F#4",
            "ticks": 300000,
            "time": 218.023125,
            "velocity": 1
          },
          {
            "duration": 0.3488370000000032,
            "durationTicks": 480,
            "midi": 71,
            "name": "B4",
            "ticks": 300000,
            "time": 218.023125,
            "velocity": 0.7874015748031497
          },
          {
            "duration": 0.3488370000000032,
            "durationTicks": 480,
            "midi": 76,
            "name": "E5",
            "ticks": 300000,
            "time": 218.023125,
            "velocity": 1
          },
          {
            "duration": 0.3488370000000032,
            "durationTicks": 480,
            "midi": 66,
            "name": "F#4",
            "ticks": 300480,
            "time": 218.371962,
            "velocity": 1
          },
          {
            "duration": 0.3488370000000032,
            "durationTicks": 480,
            "midi": 71,
            "name": "B4",
            "ticks": 300480,
            "time": 218.371962,
            "velocity": 0.7874015748031497
          },
          {
            "duration": 0.3488370000000032,
            "durationTicks": 480,
            "midi": 76,
            "name": "E5",
            "ticks": 300480,
            "time": 218.371962,
            "velocity": 1
          },
          {
            "duration": 0.3488370000000032,
            "durationTicks": 480,
            "midi": 66,
            "name": "F#4",
            "ticks": 300960,
            "time": 218.720799,
            "velocity": 1
          },
          {
            "duration": 0.3488370000000032,
            "durationTicks": 480,
            "midi": 71,
            "name": "B4",
            "ticks": 300960,
            "time": 218.720799,
            "velocity": 0.7874015748031497
          },
          {
            "duration": 0.3488370000000032,
            "durationTicks": 480,
            "midi": 76,
            "name": "E5",
            "ticks": 300960,
            "time": 218.720799,
            "velocity": 1
          },
          {
            "duration": 0.3488370000000032,
            "durationTicks": 480,
            "midi": 66,
            "name": "F#4",
            "ticks": 301440,
            "time": 219.069636,
            "velocity": 0.7874015748031497
          },
          {
            "duration": 0.3488370000000032,
            "durationTicks": 480,
            "midi": 71,
            "name": "B4",
            "ticks": 301440,
            "time": 219.069636,
            "velocity": 0.7874015748031497
          },
          {
            "duration": 0.3488370000000032,
            "durationTicks": 480,
            "midi": 78,
            "name": "F#5",
            "ticks": 301440,
            "time": 219.069636,
            "velocity": 1
          },
          {
            "duration": 0.3488370000000032,
            "durationTicks": 480,
            "midi": 66,
            "name": "F#4",
            "ticks": 301920,
            "time": 219.418473,
            "velocity": 0.7874015748031497
          },
          {
            "duration": 0.3488370000000032,
            "durationTicks": 480,
            "midi": 71,
            "name": "B4",
            "ticks": 301920,
            "time": 219.418473,
            "velocity": 0.7874015748031497
          },
          {
            "duration": 0.3488370000000032,
            "durationTicks": 480,
            "midi": 78,
            "name": "F#5",
            "ticks": 301920,
            "time": 219.418473,
            "velocity": 1
          },
          {
            "duration": 0.3488370000000032,
            "durationTicks": 480,
            "midi": 66,
            "name": "F#4",
            "ticks": 302400,
            "time": 219.76731,
            "velocity": 0.7874015748031497
          },
          {
            "duration": 0.3488370000000032,
            "durationTicks": 480,
            "midi": 71,
            "name": "B4",
            "ticks": 302400,
            "time": 219.76731,
            "velocity": 0.7874015748031497
          },
          {
            "duration": 0.3488370000000032,
            "durationTicks": 480,
            "midi": 78,
            "name": "F#5",
            "ticks": 302400,
            "time": 219.76731,
            "velocity": 1
          },
          {
            "duration": 0.3488370000000032,
            "durationTicks": 480,
            "midi": 66,
            "name": "F#4",
            "ticks": 302880,
            "time": 220.116147,
            "velocity": 1
          },
          {
            "duration": 0.3488370000000032,
            "durationTicks": 480,
            "midi": 71,
            "name": "B4",
            "ticks": 302880,
            "time": 220.116147,
            "velocity": 0.7874015748031497
          },
          {
            "duration": 0.3488370000000032,
            "durationTicks": 480,
            "midi": 78,
            "name": "F#5",
            "ticks": 302880,
            "time": 220.116147,
            "velocity": 1
          },
          {
            "duration": 0.3488370000000032,
            "durationTicks": 480,
            "midi": 66,
            "name": "F#4",
            "ticks": 303360,
            "time": 220.46498400000002,
            "velocity": 0.7874015748031497
          },
          {
            "duration": 0.3488370000000032,
            "durationTicks": 480,
            "midi": 71,
            "name": "B4",
            "ticks": 303360,
            "time": 220.46498400000002,
            "velocity": 0.7874015748031497
          },
          {
            "duration": 0.3488370000000032,
            "durationTicks": 480,
            "midi": 78,
            "name": "F#5",
            "ticks": 303360,
            "time": 220.46498400000002,
            "velocity": 1
          },
          {
            "duration": 0.34883699999997475,
            "durationTicks": 480,
            "midi": 66,
            "name": "F#4",
            "ticks": 303840,
            "time": 220.81382100000002,
            "velocity": 0.7874015748031497
          },
          {
            "duration": 0.34883699999997475,
            "durationTicks": 480,
            "midi": 71,
            "name": "B4",
            "ticks": 303840,
            "time": 220.81382100000002,
            "velocity": 0.7874015748031497
          },
          {
            "duration": 0.34883699999997475,
            "durationTicks": 480,
            "midi": 78,
            "name": "F#5",
            "ticks": 303840,
            "time": 220.81382100000002,
            "velocity": 0.7874015748031497
          },
          {
            "duration": 0.3488370000000032,
            "durationTicks": 480,
            "midi": 66,
            "name": "F#4",
            "ticks": 304320,
            "time": 221.162658,
            "velocity": 0.7874015748031497
          },
          {
            "duration": 0.3488370000000032,
            "durationTicks": 480,
            "midi": 71,
            "name": "B4",
            "ticks": 304320,
            "time": 221.162658,
            "velocity": 0.7874015748031497
          },
          {
            "duration": 0.3488370000000032,
            "durationTicks": 480,
            "midi": 78,
            "name": "F#5",
            "ticks": 304320,
            "time": 221.162658,
            "velocity": 1
          },
          {
            "duration": 0.3488370000000032,
            "durationTicks": 480,
            "midi": 66,
            "name": "F#4",
            "ticks": 304800,
            "time": 221.511495,
            "velocity": 0.7874015748031497
          },
          {
            "duration": 0.3488370000000032,
            "durationTicks": 480,
            "midi": 71,
            "name": "B4",
            "ticks": 304800,
            "time": 221.511495,
            "velocity": 0.7874015748031497
          },
          {
            "duration": 0.3488370000000032,
            "durationTicks": 480,
            "midi": 78,
            "name": "F#5",
            "ticks": 304800,
            "time": 221.511495,
            "velocity": 1
          },
          {
            "duration": 0.3488370000000032,
            "durationTicks": 480,
            "midi": 66,
            "name": "F#4",
            "ticks": 305280,
            "time": 221.860332,
            "velocity": 0.7874015748031497
          },
          {
            "duration": 0.3488370000000032,
            "durationTicks": 480,
            "midi": 71,
            "name": "B4",
            "ticks": 305280,
            "time": 221.860332,
            "velocity": 0.7874015748031497
          },
          {
            "duration": 0.3488370000000032,
            "durationTicks": 480,
            "midi": 76,
            "name": "E5",
            "ticks": 305280,
            "time": 221.860332,
            "velocity": 1
          },
          {
            "duration": 0.3488370000000032,
            "durationTicks": 480,
            "midi": 66,
            "name": "F#4",
            "ticks": 305760,
            "time": 222.209169,
            "velocity": 0.7874015748031497
          },
          {
            "duration": 0.3488370000000032,
            "durationTicks": 480,
            "midi": 71,
            "name": "B4",
            "ticks": 305760,
            "time": 222.209169,
            "velocity": 0.7874015748031497
          },
          {
            "duration": 0.3488370000000032,
            "durationTicks": 480,
            "midi": 76,
            "name": "E5",
            "ticks": 305760,
            "time": 222.209169,
            "velocity": 0.7874015748031497
          },
          {
            "duration": 0.3488370000000032,
            "durationTicks": 480,
            "midi": 66,
            "name": "F#4",
            "ticks": 306240,
            "time": 222.558006,
            "velocity": 0.7874015748031497
          },
          {
            "duration": 0.3488370000000032,
            "durationTicks": 480,
            "midi": 71,
            "name": "B4",
            "ticks": 306240,
            "time": 222.558006,
            "velocity": 0.7874015748031497
          },
          {
            "duration": 0.3488370000000032,
            "durationTicks": 480,
            "midi": 76,
            "name": "E5",
            "ticks": 306240,
            "time": 222.558006,
            "velocity": 1
          },
          {
            "duration": 0.3488370000000032,
            "durationTicks": 480,
            "midi": 66,
            "name": "F#4",
            "ticks": 306720,
            "time": 222.906843,
            "velocity": 0.7874015748031497
          },
          {
            "duration": 0.3488370000000032,
            "durationTicks": 480,
            "midi": 71,
            "name": "B4",
            "ticks": 306720,
            "time": 222.906843,
            "velocity": 0.7874015748031497
          },
          {
            "duration": 0.3488370000000032,
            "durationTicks": 480,
            "midi": 76,
            "name": "E5",
            "ticks": 306720,
            "time": 222.906843,
            "velocity": 1
          },
          {
            "duration": 0.3488370000000032,
            "durationTicks": 480,
            "midi": 66,
            "name": "F#4",
            "ticks": 307200,
            "time": 223.25568,
            "velocity": 0.7874015748031497
          },
          {
            "duration": 0.3488370000000032,
            "durationTicks": 480,
            "midi": 71,
            "name": "B4",
            "ticks": 307200,
            "time": 223.25568,
            "velocity": 0.7874015748031497
          },
          {
            "duration": 0.3488370000000032,
            "durationTicks": 480,
            "midi": 76,
            "name": "E5",
            "ticks": 307200,
            "time": 223.25568,
            "velocity": 1
          },
          {
            "duration": 0.3488370000000032,
            "durationTicks": 480,
            "midi": 66,
            "name": "F#4",
            "ticks": 307680,
            "time": 223.60451700000002,
            "velocity": 0.7874015748031497
          },
          {
            "duration": 0.3488370000000032,
            "durationTicks": 480,
            "midi": 71,
            "name": "B4",
            "ticks": 307680,
            "time": 223.60451700000002,
            "velocity": 0.7874015748031497
          },
          {
            "duration": 0.3488370000000032,
            "durationTicks": 480,
            "midi": 76,
            "name": "E5",
            "ticks": 307680,
            "time": 223.60451700000002,
            "velocity": 1
          },
          {
            "duration": 0.34883699999997475,
            "durationTicks": 480,
            "midi": 66,
            "name": "F#4",
            "ticks": 308160,
            "time": 223.95335400000002,
            "velocity": 0.7874015748031497
          },
          {
            "duration": 0.34883699999997475,
            "durationTicks": 480,
            "midi": 71,
            "name": "B4",
            "ticks": 308160,
            "time": 223.95335400000002,
            "velocity": 0.7874015748031497
          },
          {
            "duration": 0.34883699999997475,
            "durationTicks": 480,
            "midi": 76,
            "name": "E5",
            "ticks": 308160,
            "time": 223.95335400000002,
            "velocity": 1
          },
          {
            "duration": 0.3488370000000032,
            "durationTicks": 480,
            "midi": 66,
            "name": "F#4",
            "ticks": 308640,
            "time": 224.302191,
            "velocity": 0.7874015748031497
          },
          {
            "duration": 0.3488370000000032,
            "durationTicks": 480,
            "midi": 71,
            "name": "B4",
            "ticks": 308640,
            "time": 224.302191,
            "velocity": 0.7874015748031497
          },
          {
            "duration": 0.3488370000000032,
            "durationTicks": 480,
            "midi": 76,
            "name": "E5",
            "ticks": 308640,
            "time": 224.302191,
            "velocity": 1
          },
          {
            "duration": 0.3488370000000032,
            "durationTicks": 480,
            "midi": 66,
            "name": "F#4",
            "ticks": 309120,
            "time": 224.651028,
            "velocity": 0.7874015748031497
          },
          {
            "duration": 0.3488370000000032,
            "durationTicks": 480,
            "midi": 73,
            "name": "C#5",
            "ticks": 309120,
            "time": 224.651028,
            "velocity": 1
          },
          {
            "duration": 0.3488370000000032,
            "durationTicks": 480,
            "midi": 78,
            "name": "F#5",
            "ticks": 309120,
            "time": 224.651028,
            "velocity": 0.7874015748031497
          },
          {
            "duration": 0.3488370000000032,
            "durationTicks": 480,
            "midi": 82,
            "name": "A#5",
            "ticks": 309120,
            "time": 224.651028,
            "velocity": 1
          },
          {
            "duration": 0.3488370000000032,
            "durationTicks": 480,
            "midi": 66,
            "name": "F#4",
            "ticks": 309600,
            "time": 224.999865,
            "velocity": 0.7874015748031497
          },
          {
            "duration": 0.3488370000000032,
            "durationTicks": 480,
            "midi": 73,
            "name": "C#5",
            "ticks": 309600,
            "time": 224.999865,
            "velocity": 1
          },
          {
            "duration": 0.3488370000000032,
            "durationTicks": 480,
            "midi": 78,
            "name": "F#5",
            "ticks": 309600,
            "time": 224.999865,
            "velocity": 0.7874015748031497
          },
          {
            "duration": 0.3488370000000032,
            "durationTicks": 480,
            "midi": 82,
            "name": "A#5",
            "ticks": 309600,
            "time": 224.999865,
            "velocity": 0.7874015748031497
          },
          {
            "duration": 0.3488370000000032,
            "durationTicks": 480,
            "midi": 66,
            "name": "F#4",
            "ticks": 310080,
            "time": 225.348702,
            "velocity": 0.7874015748031497
          },
          {
            "duration": 0.3488370000000032,
            "durationTicks": 480,
            "midi": 73,
            "name": "C#5",
            "ticks": 310080,
            "time": 225.348702,
            "velocity": 1
          },
          {
            "duration": 0.3488370000000032,
            "durationTicks": 480,
            "midi": 78,
            "name": "F#5",
            "ticks": 310080,
            "time": 225.348702,
            "velocity": 0.7874015748031497
          },
          {
            "duration": 0.3488370000000032,
            "durationTicks": 480,
            "midi": 82,
            "name": "A#5",
            "ticks": 310080,
            "time": 225.348702,
            "velocity": 1
          },
          {
            "duration": 0.3488370000000032,
            "durationTicks": 480,
            "midi": 66,
            "name": "F#4",
            "ticks": 310560,
            "time": 225.697539,
            "velocity": 0.7874015748031497
          },
          {
            "duration": 0.3488370000000032,
            "durationTicks": 480,
            "midi": 73,
            "name": "C#5",
            "ticks": 310560,
            "time": 225.697539,
            "velocity": 1
          },
          {
            "duration": 0.3488370000000032,
            "durationTicks": 480,
            "midi": 78,
            "name": "F#5",
            "ticks": 310560,
            "time": 225.697539,
            "velocity": 0.7874015748031497
          },
          {
            "duration": 0.3488370000000032,
            "durationTicks": 480,
            "midi": 82,
            "name": "A#5",
            "ticks": 310560,
            "time": 225.697539,
            "velocity": 1
          },
          {
            "duration": 0.3488370000000032,
            "durationTicks": 480,
            "midi": 66,
            "name": "F#4",
            "ticks": 311040,
            "time": 226.046376,
            "velocity": 0.7874015748031497
          },
          {
            "duration": 0.3488370000000032,
            "durationTicks": 480,
            "midi": 73,
            "name": "C#5",
            "ticks": 311040,
            "time": 226.046376,
            "velocity": 0.7874015748031497
          },
          {
            "duration": 0.3488370000000032,
            "durationTicks": 480,
            "midi": 78,
            "name": "F#5",
            "ticks": 311040,
            "time": 226.046376,
            "velocity": 0.7874015748031497
          },
          {
            "duration": 0.3488370000000032,
            "durationTicks": 480,
            "midi": 82,
            "name": "A#5",
            "ticks": 311040,
            "time": 226.046376,
            "velocity": 1
          },
          {
            "duration": 0.3488370000000032,
            "durationTicks": 480,
            "midi": 66,
            "name": "F#4",
            "ticks": 311520,
            "time": 226.395213,
            "velocity": 0.7874015748031497
          },
          {
            "duration": 0.3488370000000032,
            "durationTicks": 480,
            "midi": 73,
            "name": "C#5",
            "ticks": 311520,
            "time": 226.395213,
            "velocity": 0.7874015748031497
          },
          {
            "duration": 0.3488370000000032,
            "durationTicks": 480,
            "midi": 78,
            "name": "F#5",
            "ticks": 311520,
            "time": 226.395213,
            "velocity": 0.7874015748031497
          },
          {
            "duration": 0.3488370000000032,
            "durationTicks": 480,
            "midi": 82,
            "name": "A#5",
            "ticks": 311520,
            "time": 226.395213,
            "velocity": 1
          },
          {
            "duration": 0.3488370000000032,
            "durationTicks": 480,
            "midi": 66,
            "name": "F#4",
            "ticks": 312000,
            "time": 226.74405000000002,
            "velocity": 0.7874015748031497
          },
          {
            "duration": 0.3488370000000032,
            "durationTicks": 480,
            "midi": 73,
            "name": "C#5",
            "ticks": 312000,
            "time": 226.74405000000002,
            "velocity": 0.7874015748031497
          },
          {
            "duration": 0.3488370000000032,
            "durationTicks": 480,
            "midi": 78,
            "name": "F#5",
            "ticks": 312000,
            "time": 226.74405000000002,
            "velocity": 0.7874015748031497
          },
          {
            "duration": 0.3488370000000032,
            "durationTicks": 480,
            "midi": 82,
            "name": "A#5",
            "ticks": 312000,
            "time": 226.74405000000002,
            "velocity": 1
          },
          {
            "duration": 0.34883699999997475,
            "durationTicks": 480,
            "midi": 66,
            "name": "F#4",
            "ticks": 312480,
            "time": 227.09288700000002,
            "velocity": 0.7874015748031497
          },
          {
            "duration": 0.34883699999997475,
            "durationTicks": 480,
            "midi": 73,
            "name": "C#5",
            "ticks": 312480,
            "time": 227.09288700000002,
            "velocity": 0.7874015748031497
          },
          {
            "duration": 0.34883699999997475,
            "durationTicks": 480,
            "midi": 78,
            "name": "F#5",
            "ticks": 312480,
            "time": 227.09288700000002,
            "velocity": 0.7874015748031497
          },
          {
            "duration": 0.34883699999997475,
            "durationTicks": 480,
            "midi": 82,
            "name": "A#5",
            "ticks": 312480,
            "time": 227.09288700000002,
            "velocity": 1
          },
          {
            "duration": 0.3488370000000032,
            "durationTicks": 480,
            "midi": 66,
            "name": "F#4",
            "ticks": 312960,
            "time": 227.441724,
            "velocity": 0.7874015748031497
          },
          {
            "duration": 0.3488370000000032,
            "durationTicks": 480,
            "midi": 70,
            "name": "A#4",
            "ticks": 312960,
            "time": 227.441724,
            "velocity": 0.7874015748031497
          },
          {
            "duration": 0.3488370000000032,
            "durationTicks": 480,
            "midi": 73,
            "name": "C#5",
            "ticks": 312960,
            "time": 227.441724,
            "velocity": 0.7874015748031497
          },
          {
            "duration": 0.3488370000000032,
            "durationTicks": 480,
            "midi": 80,
            "name": "G#5",
            "ticks": 312960,
            "time": 227.441724,
            "velocity": 1
          },
          {
            "duration": 0.3488370000000032,
            "durationTicks": 480,
            "midi": 66,
            "name": "F#4",
            "ticks": 313440,
            "time": 227.790561,
            "velocity": 0.7874015748031497
          },
          {
            "duration": 0.3488370000000032,
            "durationTicks": 480,
            "midi": 70,
            "name": "A#4",
            "ticks": 313440,
            "time": 227.790561,
            "velocity": 0.7874015748031497
          },
          {
            "duration": 0.3488370000000032,
            "durationTicks": 480,
            "midi": 73,
            "name": "C#5",
            "ticks": 313440,
            "time": 227.790561,
            "velocity": 0.7874015748031497
          },
          {
            "duration": 0.3488370000000032,
            "durationTicks": 480,
            "midi": 80,
            "name": "G#5",
            "ticks": 313440,
            "time": 227.790561,
            "velocity": 1
          },
          {
            "duration": 0.3488370000000032,
            "durationTicks": 480,
            "midi": 66,
            "name": "F#4",
            "ticks": 313920,
            "time": 228.139398,
            "velocity": 0.7874015748031497
          },
          {
            "duration": 0.3488370000000032,
            "durationTicks": 480,
            "midi": 70,
            "name": "A#4",
            "ticks": 313920,
            "time": 228.139398,
            "velocity": 0.7874015748031497
          },
          {
            "duration": 0.3488370000000032,
            "durationTicks": 480,
            "midi": 73,
            "name": "C#5",
            "ticks": 313920,
            "time": 228.139398,
            "velocity": 0.7874015748031497
          },
          {
            "duration": 0.3488370000000032,
            "durationTicks": 480,
            "midi": 80,
            "name": "G#5",
            "ticks": 313920,
            "time": 228.139398,
            "velocity": 1
          },
          {
            "duration": 0.3488370000000032,
            "durationTicks": 480,
            "midi": 66,
            "name": "F#4",
            "ticks": 314400,
            "time": 228.488235,
            "velocity": 0.7874015748031497
          },
          {
            "duration": 0.3488370000000032,
            "durationTicks": 480,
            "midi": 70,
            "name": "A#4",
            "ticks": 314400,
            "time": 228.488235,
            "velocity": 0.7874015748031497
          },
          {
            "duration": 0.3488370000000032,
            "durationTicks": 480,
            "midi": 73,
            "name": "C#5",
            "ticks": 314400,
            "time": 228.488235,
            "velocity": 0.7874015748031497
          },
          {
            "duration": 0.3488370000000032,
            "durationTicks": 480,
            "midi": 80,
            "name": "G#5",
            "ticks": 314400,
            "time": 228.488235,
            "velocity": 1
          },
          {
            "duration": 0.3488370000000032,
            "durationTicks": 480,
            "midi": 66,
            "name": "F#4",
            "ticks": 314880,
            "time": 228.837072,
            "velocity": 0.7874015748031497
          },
          {
            "duration": 0.3488370000000032,
            "durationTicks": 480,
            "midi": 70,
            "name": "A#4",
            "ticks": 314880,
            "time": 228.837072,
            "velocity": 0.7874015748031497
          },
          {
            "duration": 0.3488370000000032,
            "durationTicks": 480,
            "midi": 73,
            "name": "C#5",
            "ticks": 314880,
            "time": 228.837072,
            "velocity": 0.7874015748031497
          },
          {
            "duration": 0.3488370000000032,
            "durationTicks": 480,
            "midi": 80,
            "name": "G#5",
            "ticks": 314880,
            "time": 228.837072,
            "velocity": 1
          },
          {
            "duration": 0.3488370000000032,
            "durationTicks": 480,
            "midi": 66,
            "name": "F#4",
            "ticks": 315360,
            "time": 229.185909,
            "velocity": 0.7874015748031497
          },
          {
            "duration": 0.3488370000000032,
            "durationTicks": 480,
            "midi": 70,
            "name": "A#4",
            "ticks": 315360,
            "time": 229.185909,
            "velocity": 0.7874015748031497
          },
          {
            "duration": 0.3488370000000032,
            "durationTicks": 480,
            "midi": 73,
            "name": "C#5",
            "ticks": 315360,
            "time": 229.185909,
            "velocity": 0.7874015748031497
          },
          {
            "duration": 0.3488370000000032,
            "durationTicks": 480,
            "midi": 80,
            "name": "G#5",
            "ticks": 315360,
            "time": 229.185909,
            "velocity": 1
          },
          {
            "duration": 0.3488370000000032,
            "durationTicks": 480,
            "midi": 66,
            "name": "F#4",
            "ticks": 315840,
            "time": 229.534746,
            "velocity": 0.7874015748031497
          },
          {
            "duration": 0.3488370000000032,
            "durationTicks": 480,
            "midi": 70,
            "name": "A#4",
            "ticks": 315840,
            "time": 229.534746,
            "velocity": 0.7874015748031497
          },
          {
            "duration": 0.3488370000000032,
            "durationTicks": 480,
            "midi": 73,
            "name": "C#5",
            "ticks": 315840,
            "time": 229.534746,
            "velocity": 1
          },
          {
            "duration": 0.3488370000000032,
            "durationTicks": 480,
            "midi": 80,
            "name": "G#5",
            "ticks": 315840,
            "time": 229.534746,
            "velocity": 1
          },
          {
            "duration": 0.3488370000000032,
            "durationTicks": 480,
            "midi": 70,
            "name": "A#4",
            "ticks": 316320,
            "time": 229.88358300000002,
            "velocity": 0.7874015748031497
          },
          {
            "duration": 0.3488370000000032,
            "durationTicks": 480,
            "midi": 73,
            "name": "C#5",
            "ticks": 316320,
            "time": 229.88358300000002,
            "velocity": 0.7874015748031497
          },
          {
            "duration": 0.2616277500000024,
            "durationTicks": 360,
            "midi": 75,
            "name": "D#5",
            "ticks": 316320,
            "time": 229.88358300000002,
            "velocity": 1
          },
          {
            "duration": 0.34883699999997475,
            "durationTicks": 480,
            "midi": 52,
            "name": "E3",
            "ticks": 316800,
            "time": 230.23242000000002,
            "velocity": 0.7874015748031497
          },
          {
            "duration": 0.34883699999997475,
            "durationTicks": 480,
            "midi": 61,
            "name": "C#4",
            "ticks": 316800,
            "time": 230.23242000000002,
            "velocity": 0.7874015748031497
          },
          {
            "duration": 0.34883699999997475,
            "durationTicks": 480,
            "midi": 68,
            "name": "G#4",
            "ticks": 316800,
            "time": 230.23242000000002,
            "velocity": 0.7874015748031497
          },
          {
            "duration": 0.34883699999997475,
            "durationTicks": 480,
            "midi": 73,
            "name": "C#5",
            "ticks": 316800,
            "time": 230.23242000000002,
            "velocity": 0.7874015748031497
          },
          {
            "duration": 0.3488370000000032,
            "durationTicks": 480,
            "midi": 52,
            "name": "E3",
            "ticks": 317280,
            "time": 230.581257,
            "velocity": 0.7874015748031497
          },
          {
            "duration": 0.3488370000000032,
            "durationTicks": 480,
            "midi": 61,
            "name": "C#4",
            "ticks": 317280,
            "time": 230.581257,
            "velocity": 0.7874015748031497
          },
          {
            "duration": 0.3488370000000032,
            "durationTicks": 480,
            "midi": 68,
            "name": "G#4",
            "ticks": 317280,
            "time": 230.581257,
            "velocity": 0.7874015748031497
          },
          {
            "duration": 0.3488370000000032,
            "durationTicks": 480,
            "midi": 73,
            "name": "C#5",
            "ticks": 317280,
            "time": 230.581257,
            "velocity": 1
          },
          {
            "duration": 0.3488370000000032,
            "durationTicks": 480,
            "midi": 52,
            "name": "E3",
            "ticks": 317760,
            "time": 230.930094,
            "velocity": 0.7874015748031497
          },
          {
            "duration": 0.3488370000000032,
            "durationTicks": 480,
            "midi": 61,
            "name": "C#4",
            "ticks": 317760,
            "time": 230.930094,
            "velocity": 0.7874015748031497
          },
          {
            "duration": 0.3488370000000032,
            "durationTicks": 480,
            "midi": 68,
            "name": "G#4",
            "ticks": 317760,
            "time": 230.930094,
            "velocity": 0.7874015748031497
          },
          {
            "duration": 0.3488370000000032,
            "durationTicks": 480,
            "midi": 73,
            "name": "C#5",
            "ticks": 317760,
            "time": 230.930094,
            "velocity": 1
          },
          {
            "duration": 0.3488370000000032,
            "durationTicks": 480,
            "midi": 52,
            "name": "E3",
            "ticks": 318240,
            "time": 231.278931,
            "velocity": 0.7874015748031497
          },
          {
            "duration": 0.3488370000000032,
            "durationTicks": 480,
            "midi": 61,
            "name": "C#4",
            "ticks": 318240,
            "time": 231.278931,
            "velocity": 0.7874015748031497
          },
          {
            "duration": 0.3488370000000032,
            "durationTicks": 480,
            "midi": 68,
            "name": "G#4",
            "ticks": 318240,
            "time": 231.278931,
            "velocity": 0.7874015748031497
          },
          {
            "duration": 0.3488370000000032,
            "durationTicks": 480,
            "midi": 73,
            "name": "C#5",
            "ticks": 318240,
            "time": 231.278931,
            "velocity": 1
          },
          {
            "duration": 0.3488370000000032,
            "durationTicks": 480,
            "midi": 52,
            "name": "E3",
            "ticks": 318720,
            "time": 231.627768,
            "velocity": 0.7874015748031497
          },
          {
            "duration": 0.3488370000000032,
            "durationTicks": 480,
            "midi": 61,
            "name": "C#4",
            "ticks": 318720,
            "time": 231.627768,
            "velocity": 0.7874015748031497
          },
          {
            "duration": 0.3488370000000032,
            "durationTicks": 480,
            "midi": 68,
            "name": "G#4",
            "ticks": 318720,
            "time": 231.627768,
            "velocity": 0.7874015748031497
          },
          {
            "duration": 0.3488370000000032,
            "durationTicks": 480,
            "midi": 73,
            "name": "C#5",
            "ticks": 318720,
            "time": 231.627768,
            "velocity": 1
          },
          {
            "duration": 0.3488370000000032,
            "durationTicks": 480,
            "midi": 52,
            "name": "E3",
            "ticks": 319200,
            "time": 231.976605,
            "velocity": 0.7874015748031497
          },
          {
            "duration": 0.3488370000000032,
            "durationTicks": 480,
            "midi": 61,
            "name": "C#4",
            "ticks": 319200,
            "time": 231.976605,
            "velocity": 0.7874015748031497
          },
          {
            "duration": 0.3488370000000032,
            "durationTicks": 480,
            "midi": 68,
            "name": "G#4",
            "ticks": 319200,
            "time": 231.976605,
            "velocity": 0.7874015748031497
          },
          {
            "duration": 0.3488370000000032,
            "durationTicks": 480,
            "midi": 73,
            "name": "C#5",
            "ticks": 319200,
            "time": 231.976605,
            "velocity": 1
          },
          {
            "duration": 0.3488370000000032,
            "durationTicks": 480,
            "midi": 52,
            "name": "E3",
            "ticks": 319680,
            "time": 232.325442,
            "velocity": 0.7874015748031497
          },
          {
            "duration": 0.3488370000000032,
            "durationTicks": 480,
            "midi": 61,
            "name": "C#4",
            "ticks": 319680,
            "time": 232.325442,
            "velocity": 0.7874015748031497
          },
          {
            "duration": 0.3488370000000032,
            "durationTicks": 480,
            "midi": 68,
            "name": "G#4",
            "ticks": 319680,
            "time": 232.325442,
            "velocity": 0.7874015748031497
          },
          {
            "duration": 0.3488370000000032,
            "durationTicks": 480,
            "midi": 73,
            "name": "C#5",
            "ticks": 319680,
            "time": 232.325442,
            "velocity": 0.7874015748031497
          },
          {
            "duration": 0.3488370000000032,
            "durationTicks": 480,
            "midi": 52,
            "name": "E3",
            "ticks": 320160,
            "time": 232.674279,
            "velocity": 0.7874015748031497
          },
          {
            "duration": 0.3488370000000032,
            "durationTicks": 480,
            "midi": 61,
            "name": "C#4",
            "ticks": 320160,
            "time": 232.674279,
            "velocity": 0.7874015748031497
          },
          {
            "duration": 0.3488370000000032,
            "durationTicks": 480,
            "midi": 68,
            "name": "G#4",
            "ticks": 320160,
            "time": 232.674279,
            "velocity": 0.7874015748031497
          },
          {
            "duration": 0.3488370000000032,
            "durationTicks": 480,
            "midi": 73,
            "name": "C#5",
            "ticks": 320160,
            "time": 232.674279,
            "velocity": 1
          },
          {
            "duration": 0.3488370000000032,
            "durationTicks": 480,
            "midi": 59,
            "name": "B3",
            "ticks": 320640,
            "time": 233.02311600000002,
            "velocity": 0.7874015748031497
          },
          {
            "duration": 0.3488370000000032,
            "durationTicks": 480,
            "midi": 66,
            "name": "F#4",
            "ticks": 320640,
            "time": 233.02311600000002,
            "velocity": 0.7874015748031497
          },
          {
            "duration": 0.3488370000000032,
            "durationTicks": 480,
            "midi": 71,
            "name": "B4",
            "ticks": 320640,
            "time": 233.02311600000002,
            "velocity": 1
          },
          {
            "duration": 0.34883699999997475,
            "durationTicks": 480,
            "midi": 52,
            "name": "E3",
            "ticks": 321120,
            "time": 233.37195300000002,
            "velocity": 0.7874015748031497
          },
          {
            "duration": 0.34883699999997475,
            "durationTicks": 480,
            "midi": 59,
            "name": "B3",
            "ticks": 321120,
            "time": 233.37195300000002,
            "velocity": 0.7874015748031497
          },
          {
            "duration": 0.34883699999997475,
            "durationTicks": 480,
            "midi": 66,
            "name": "F#4",
            "ticks": 321120,
            "time": 233.37195300000002,
            "velocity": 0.7874015748031497
          },
          {
            "duration": 0.34883699999997475,
            "durationTicks": 480,
            "midi": 71,
            "name": "B4",
            "ticks": 321120,
            "time": 233.37195300000002,
            "velocity": 1
          },
          {
            "duration": 0.3488370000000032,
            "durationTicks": 480,
            "midi": 52,
            "name": "E3",
            "ticks": 321600,
            "time": 233.72079,
            "velocity": 0.7874015748031497
          },
          {
            "duration": 0.3488370000000032,
            "durationTicks": 480,
            "midi": 59,
            "name": "B3",
            "ticks": 321600,
            "time": 233.72079,
            "velocity": 0.7874015748031497
          },
          {
            "duration": 0.3488370000000032,
            "durationTicks": 480,
            "midi": 66,
            "name": "F#4",
            "ticks": 321600,
            "time": 233.72079,
            "velocity": 1
          },
          {
            "duration": 0.3488370000000032,
            "durationTicks": 480,
            "midi": 71,
            "name": "B4",
            "ticks": 321600,
            "time": 233.72079,
            "velocity": 1
          },
          {
            "duration": 0.3488370000000032,
            "durationTicks": 480,
            "midi": 52,
            "name": "E3",
            "ticks": 322080,
            "time": 234.069627,
            "velocity": 0.7874015748031497
          },
          {
            "duration": 0.3488370000000032,
            "durationTicks": 480,
            "midi": 59,
            "name": "B3",
            "ticks": 322080,
            "time": 234.069627,
            "velocity": 0.7874015748031497
          },
          {
            "duration": 0.3488370000000032,
            "durationTicks": 480,
            "midi": 66,
            "name": "F#4",
            "ticks": 322080,
            "time": 234.069627,
            "velocity": 0.7874015748031497
          },
          {
            "duration": 0.3488370000000032,
            "durationTicks": 480,
            "midi": 71,
            "name": "B4",
            "ticks": 322080,
            "time": 234.069627,
            "velocity": 0.7874015748031497
          },
          {
            "duration": 0.3488370000000032,
            "durationTicks": 480,
            "midi": 52,
            "name": "E3",
            "ticks": 322560,
            "time": 234.418464,
            "velocity": 0.7874015748031497
          },
          {
            "duration": 0.3488370000000032,
            "durationTicks": 480,
            "midi": 59,
            "name": "B3",
            "ticks": 322560,
            "time": 234.418464,
            "velocity": 0.7874015748031497
          },
          {
            "duration": 0.3488370000000032,
            "durationTicks": 480,
            "midi": 66,
            "name": "F#4",
            "ticks": 322560,
            "time": 234.418464,
            "velocity": 0.7874015748031497
          },
          {
            "duration": 0.3488370000000032,
            "durationTicks": 480,
            "midi": 71,
            "name": "B4",
            "ticks": 322560,
            "time": 234.418464,
            "velocity": 1
          },
          {
            "duration": 0.3488370000000032,
            "durationTicks": 480,
            "midi": 52,
            "name": "E3",
            "ticks": 323040,
            "time": 234.767301,
            "velocity": 0.7874015748031497
          },
          {
            "duration": 0.3488370000000032,
            "durationTicks": 480,
            "midi": 59,
            "name": "B3",
            "ticks": 323040,
            "time": 234.767301,
            "velocity": 0.7874015748031497
          },
          {
            "duration": 0.3488370000000032,
            "durationTicks": 480,
            "midi": 66,
            "name": "F#4",
            "ticks": 323040,
            "time": 234.767301,
            "velocity": 0.7874015748031497
          },
          {
            "duration": 0.3488370000000032,
            "durationTicks": 480,
            "midi": 71,
            "name": "B4",
            "ticks": 323040,
            "time": 234.767301,
            "velocity": 1
          },
          {
            "duration": 0.3488370000000032,
            "durationTicks": 480,
            "midi": 52,
            "name": "E3",
            "ticks": 323520,
            "time": 235.116138,
            "velocity": 0.7874015748031497
          },
          {
            "duration": 0.3488370000000032,
            "durationTicks": 480,
            "midi": 59,
            "name": "B3",
            "ticks": 323520,
            "time": 235.116138,
            "velocity": 0.7874015748031497
          },
          {
            "duration": 0.3488370000000032,
            "durationTicks": 480,
            "midi": 66,
            "name": "F#4",
            "ticks": 323520,
            "time": 235.116138,
            "velocity": 0.7874015748031497
          },
          {
            "duration": 0.3488370000000032,
            "durationTicks": 480,
            "midi": 71,
            "name": "B4",
            "ticks": 323520,
            "time": 235.116138,
            "velocity": 1
          },
          {
            "duration": 0.3488370000000032,
            "durationTicks": 480,
            "midi": 52,
            "name": "E3",
            "ticks": 324000,
            "time": 235.464975,
            "velocity": 0.7874015748031497
          },
          {
            "duration": 0.3488370000000032,
            "durationTicks": 480,
            "midi": 59,
            "name": "B3",
            "ticks": 324000,
            "time": 235.464975,
            "velocity": 0.7874015748031497
          },
          {
            "duration": 0.3488370000000032,
            "durationTicks": 480,
            "midi": 66,
            "name": "F#4",
            "ticks": 324000,
            "time": 235.464975,
            "velocity": 0.7874015748031497
          },
          {
            "duration": 0.3488370000000032,
            "durationTicks": 480,
            "midi": 71,
            "name": "B4",
            "ticks": 324000,
            "time": 235.464975,
            "velocity": 1
          },
          {
            "duration": 0.3488370000000032,
            "durationTicks": 480,
            "midi": 66,
            "name": "F#4",
            "ticks": 324480,
            "time": 235.813812,
            "velocity": 0.7874015748031497
          },
          {
            "duration": 0.3488370000000032,
            "durationTicks": 480,
            "midi": 71,
            "name": "B4",
            "ticks": 324480,
            "time": 235.813812,
            "velocity": 0.7874015748031497
          },
          {
            "duration": 0.3488370000000032,
            "durationTicks": 480,
            "midi": 78,
            "name": "F#5",
            "ticks": 324480,
            "time": 235.813812,
            "velocity": 1
          },
          {
            "duration": 0.3488370000000032,
            "durationTicks": 480,
            "midi": 66,
            "name": "F#4",
            "ticks": 324960,
            "time": 236.16264900000002,
            "velocity": 0.7874015748031497
          },
          {
            "duration": 0.3488370000000032,
            "durationTicks": 480,
            "midi": 71,
            "name": "B4",
            "ticks": 324960,
            "time": 236.16264900000002,
            "velocity": 0.7874015748031497
          },
          {
            "duration": 0.3488370000000032,
            "durationTicks": 480,
            "midi": 78,
            "name": "F#5",
            "ticks": 324960,
            "time": 236.16264900000002,
            "velocity": 1
          },
          {
            "duration": 0.34883699999997475,
            "durationTicks": 480,
            "midi": 66,
            "name": "F#4",
            "ticks": 325440,
            "time": 236.51148600000002,
            "velocity": 0.7874015748031497
          },
          {
            "duration": 0.34883699999997475,
            "durationTicks": 480,
            "midi": 71,
            "name": "B4",
            "ticks": 325440,
            "time": 236.51148600000002,
            "velocity": 0.7874015748031497
          },
          {
            "duration": 0.34883699999997475,
            "durationTicks": 480,
            "midi": 78,
            "name": "F#5",
            "ticks": 325440,
            "time": 236.51148600000002,
            "velocity": 1
          },
          {
            "duration": 0.3488370000000032,
            "durationTicks": 480,
            "midi": 66,
            "name": "F#4",
            "ticks": 325920,
            "time": 236.860323,
            "velocity": 1
          },
          {
            "duration": 0.3488370000000032,
            "durationTicks": 480,
            "midi": 71,
            "name": "B4",
            "ticks": 325920,
            "time": 236.860323,
            "velocity": 0.7874015748031497
          },
          {
            "duration": 0.3488370000000032,
            "durationTicks": 480,
            "midi": 78,
            "name": "F#5",
            "ticks": 325920,
            "time": 236.860323,
            "velocity": 1
          },
          {
            "duration": 0.3488370000000032,
            "durationTicks": 480,
            "midi": 66,
            "name": "F#4",
            "ticks": 326400,
            "time": 237.20916,
            "velocity": 0.7874015748031497
          },
          {
            "duration": 0.3488370000000032,
            "durationTicks": 480,
            "midi": 71,
            "name": "B4",
            "ticks": 326400,
            "time": 237.20916,
            "velocity": 0.7874015748031497
          },
          {
            "duration": 0.3488370000000032,
            "durationTicks": 480,
            "midi": 78,
            "name": "F#5",
            "ticks": 326400,
            "time": 237.20916,
            "velocity": 1
          },
          {
            "duration": 0.3488370000000032,
            "durationTicks": 480,
            "midi": 66,
            "name": "F#4",
            "ticks": 326880,
            "time": 237.557997,
            "velocity": 0.7874015748031497
          },
          {
            "duration": 0.3488370000000032,
            "durationTicks": 480,
            "midi": 71,
            "name": "B4",
            "ticks": 326880,
            "time": 237.557997,
            "velocity": 0.7874015748031497
          },
          {
            "duration": 0.3488370000000032,
            "durationTicks": 480,
            "midi": 78,
            "name": "F#5",
            "ticks": 326880,
            "time": 237.557997,
            "velocity": 0.7874015748031497
          },
          {
            "duration": 0.3488370000000032,
            "durationTicks": 480,
            "midi": 66,
            "name": "F#4",
            "ticks": 327360,
            "time": 237.906834,
            "velocity": 0.7874015748031497
          },
          {
            "duration": 0.3488370000000032,
            "durationTicks": 480,
            "midi": 71,
            "name": "B4",
            "ticks": 327360,
            "time": 237.906834,
            "velocity": 0.7874015748031497
          },
          {
            "duration": 0.3488370000000032,
            "durationTicks": 480,
            "midi": 78,
            "name": "F#5",
            "ticks": 327360,
            "time": 237.906834,
            "velocity": 1
          },
          {
            "duration": 0.3488370000000032,
            "durationTicks": 480,
            "midi": 66,
            "name": "F#4",
            "ticks": 327840,
            "time": 238.255671,
            "velocity": 0.7874015748031497
          },
          {
            "duration": 0.3488370000000032,
            "durationTicks": 480,
            "midi": 71,
            "name": "B4",
            "ticks": 327840,
            "time": 238.255671,
            "velocity": 0.7874015748031497
          },
          {
            "duration": 0.3488370000000032,
            "durationTicks": 480,
            "midi": 78,
            "name": "F#5",
            "ticks": 327840,
            "time": 238.255671,
            "velocity": 1
          },
          {
            "duration": 0.3488370000000032,
            "durationTicks": 480,
            "midi": 66,
            "name": "F#4",
            "ticks": 328320,
            "time": 238.604508,
            "velocity": 0.7874015748031497
          },
          {
            "duration": 0.3488370000000032,
            "durationTicks": 480,
            "midi": 71,
            "name": "B4",
            "ticks": 328320,
            "time": 238.604508,
            "velocity": 0.7874015748031497
          },
          {
            "duration": 0.3488370000000032,
            "durationTicks": 480,
            "midi": 76,
            "name": "E5",
            "ticks": 328320,
            "time": 238.604508,
            "velocity": 1
          },
          {
            "duration": 0.3488370000000032,
            "durationTicks": 480,
            "midi": 66,
            "name": "F#4",
            "ticks": 328800,
            "time": 238.953345,
            "velocity": 0.7874015748031497
          },
          {
            "duration": 0.3488370000000032,
            "durationTicks": 480,
            "midi": 71,
            "name": "B4",
            "ticks": 328800,
            "time": 238.953345,
            "velocity": 0.7874015748031497
          },
          {
            "duration": 0.3488370000000032,
            "durationTicks": 480,
            "midi": 76,
            "name": "E5",
            "ticks": 328800,
            "time": 238.953345,
            "velocity": 0.7874015748031497
          },
          {
            "duration": 0.3488370000000032,
            "durationTicks": 480,
            "midi": 66,
            "name": "F#4",
            "ticks": 329280,
            "time": 239.30218200000002,
            "velocity": 0.7874015748031497
          },
          {
            "duration": 0.3488370000000032,
            "durationTicks": 480,
            "midi": 71,
            "name": "B4",
            "ticks": 329280,
            "time": 239.30218200000002,
            "velocity": 0.7874015748031497
          },
          {
            "duration": 0.3488370000000032,
            "durationTicks": 480,
            "midi": 76,
            "name": "E5",
            "ticks": 329280,
            "time": 239.30218200000002,
            "velocity": 1
          },
          {
            "duration": 0.34883699999997475,
            "durationTicks": 480,
            "midi": 66,
            "name": "F#4",
            "ticks": 329760,
            "time": 239.65101900000002,
            "velocity": 0.7874015748031497
          },
          {
            "duration": 0.34883699999997475,
            "durationTicks": 480,
            "midi": 71,
            "name": "B4",
            "ticks": 329760,
            "time": 239.65101900000002,
            "velocity": 0.7874015748031497
          },
          {
            "duration": 0.34883699999997475,
            "durationTicks": 480,
            "midi": 76,
            "name": "E5",
            "ticks": 329760,
            "time": 239.65101900000002,
            "velocity": 1
          },
          {
            "duration": 0.3488370000000032,
            "durationTicks": 480,
            "midi": 66,
            "name": "F#4",
            "ticks": 330240,
            "time": 239.999856,
            "velocity": 0.7874015748031497
          },
          {
            "duration": 0.3488370000000032,
            "durationTicks": 480,
            "midi": 71,
            "name": "B4",
            "ticks": 330240,
            "time": 239.999856,
            "velocity": 0.7874015748031497
          },
          {
            "duration": 0.3488370000000032,
            "durationTicks": 480,
            "midi": 76,
            "name": "E5",
            "ticks": 330240,
            "time": 239.999856,
            "velocity": 1
          },
          {
            "duration": 0.3488370000000032,
            "durationTicks": 480,
            "midi": 66,
            "name": "F#4",
            "ticks": 330720,
            "time": 240.348693,
            "velocity": 0.7874015748031497
          },
          {
            "duration": 0.3488370000000032,
            "durationTicks": 480,
            "midi": 71,
            "name": "B4",
            "ticks": 330720,
            "time": 240.348693,
            "velocity": 0.7874015748031497
          },
          {
            "duration": 0.3488370000000032,
            "durationTicks": 480,
            "midi": 76,
            "name": "E5",
            "ticks": 330720,
            "time": 240.348693,
            "velocity": 1
          },
          {
            "duration": 0.3488370000000032,
            "durationTicks": 480,
            "midi": 66,
            "name": "F#4",
            "ticks": 331200,
            "time": 240.69753,
            "velocity": 0.7874015748031497
          },
          {
            "duration": 0.3488370000000032,
            "durationTicks": 480,
            "midi": 71,
            "name": "B4",
            "ticks": 331200,
            "time": 240.69753,
            "velocity": 0.7874015748031497
          },
          {
            "duration": 0.3488370000000032,
            "durationTicks": 480,
            "midi": 76,
            "name": "E5",
            "ticks": 331200,
            "time": 240.69753,
            "velocity": 1
          },
          {
            "duration": 0.3488370000000032,
            "durationTicks": 480,
            "midi": 66,
            "name": "F#4",
            "ticks": 331680,
            "time": 241.046367,
            "velocity": 0.7874015748031497
          },
          {
            "duration": 0.3488370000000032,
            "durationTicks": 480,
            "midi": 71,
            "name": "B4",
            "ticks": 331680,
            "time": 241.046367,
            "velocity": 0.7874015748031497
          },
          {
            "duration": 0.3488370000000032,
            "durationTicks": 480,
            "midi": 76,
            "name": "E5",
            "ticks": 331680,
            "time": 241.046367,
            "velocity": 1
          },
          {
            "duration": 0.3488370000000032,
            "durationTicks": 480,
            "midi": 66,
            "name": "F#4",
            "ticks": 332160,
            "time": 241.395204,
            "velocity": 0.7874015748031497
          },
          {
            "duration": 0.3488370000000032,
            "durationTicks": 480,
            "midi": 73,
            "name": "C#5",
            "ticks": 332160,
            "time": 241.395204,
            "velocity": 1
          },
          {
            "duration": 0.3488370000000032,
            "durationTicks": 480,
            "midi": 78,
            "name": "F#5",
            "ticks": 332160,
            "time": 241.395204,
            "velocity": 0.7874015748031497
          },
          {
            "duration": 0.3488370000000032,
            "durationTicks": 480,
            "midi": 82,
            "name": "A#5",
            "ticks": 332160,
            "time": 241.395204,
            "velocity": 1
          },
          {
            "duration": 0.3488370000000032,
            "durationTicks": 480,
            "midi": 66,
            "name": "F#4",
            "ticks": 332640,
            "time": 241.744041,
            "velocity": 0.7874015748031497
          },
          {
            "duration": 0.3488370000000032,
            "durationTicks": 480,
            "midi": 73,
            "name": "C#5",
            "ticks": 332640,
            "time": 241.744041,
            "velocity": 1
          },
          {
            "duration": 0.3488370000000032,
            "durationTicks": 480,
            "midi": 78,
            "name": "F#5",
            "ticks": 332640,
            "time": 241.744041,
            "velocity": 0.7874015748031497
          },
          {
            "duration": 0.3488370000000032,
            "durationTicks": 480,
            "midi": 82,
            "name": "A#5",
            "ticks": 332640,
            "time": 241.744041,
            "velocity": 0.7874015748031497
          },
          {
            "duration": 0.3488370000000032,
            "durationTicks": 480,
            "midi": 66,
            "name": "F#4",
            "ticks": 333120,
            "time": 242.092878,
            "velocity": 0.7874015748031497
          },
          {
            "duration": 0.3488370000000032,
            "durationTicks": 480,
            "midi": 73,
            "name": "C#5",
            "ticks": 333120,
            "time": 242.092878,
            "velocity": 1
          },
          {
            "duration": 0.3488370000000032,
            "durationTicks": 480,
            "midi": 78,
            "name": "F#5",
            "ticks": 333120,
            "time": 242.092878,
            "velocity": 0.7874015748031497
          },
          {
            "duration": 0.3488370000000032,
            "durationTicks": 480,
            "midi": 82,
            "name": "A#5",
            "ticks": 333120,
            "time": 242.092878,
            "velocity": 1
          },
          {
            "duration": 0.3488370000000032,
            "durationTicks": 480,
            "midi": 66,
            "name": "F#4",
            "ticks": 333600,
            "time": 242.44171500000002,
            "velocity": 0.7874015748031497
          },
          {
            "duration": 0.3488370000000032,
            "durationTicks": 480,
            "midi": 73,
            "name": "C#5",
            "ticks": 333600,
            "time": 242.44171500000002,
            "velocity": 1
          },
          {
            "duration": 0.3488370000000032,
            "durationTicks": 480,
            "midi": 78,
            "name": "F#5",
            "ticks": 333600,
            "time": 242.44171500000002,
            "velocity": 0.7874015748031497
          },
          {
            "duration": 0.3488370000000032,
            "durationTicks": 480,
            "midi": 82,
            "name": "A#5",
            "ticks": 333600,
            "time": 242.44171500000002,
            "velocity": 1
          },
          {
            "duration": 0.34883699999997475,
            "durationTicks": 480,
            "midi": 66,
            "name": "F#4",
            "ticks": 334080,
            "time": 242.79055200000002,
            "velocity": 0.7874015748031497
          },
          {
            "duration": 0.34883699999997475,
            "durationTicks": 480,
            "midi": 73,
            "name": "C#5",
            "ticks": 334080,
            "time": 242.79055200000002,
            "velocity": 0.7874015748031497
          },
          {
            "duration": 0.34883699999997475,
            "durationTicks": 480,
            "midi": 78,
            "name": "F#5",
            "ticks": 334080,
            "time": 242.79055200000002,
            "velocity": 0.7874015748031497
          },
          {
            "duration": 0.34883699999997475,
            "durationTicks": 480,
            "midi": 82,
            "name": "A#5",
            "ticks": 334080,
            "time": 242.79055200000002,
            "velocity": 1
          },
          {
            "duration": 0.3488370000000032,
            "durationTicks": 480,
            "midi": 66,
            "name": "F#4",
            "ticks": 334560,
            "time": 243.139389,
            "velocity": 0.7874015748031497
          },
          {
            "duration": 0.3488370000000032,
            "durationTicks": 480,
            "midi": 73,
            "name": "C#5",
            "ticks": 334560,
            "time": 243.139389,
            "velocity": 0.7874015748031497
          },
          {
            "duration": 0.3488370000000032,
            "durationTicks": 480,
            "midi": 78,
            "name": "F#5",
            "ticks": 334560,
            "time": 243.139389,
            "velocity": 0.7874015748031497
          },
          {
            "duration": 0.3488370000000032,
            "durationTicks": 480,
            "midi": 82,
            "name": "A#5",
            "ticks": 334560,
            "time": 243.139389,
            "velocity": 1
          },
          {
            "duration": 0.3488370000000032,
            "durationTicks": 480,
            "midi": 66,
            "name": "F#4",
            "ticks": 335040,
            "time": 243.488226,
            "velocity": 0.7874015748031497
          },
          {
            "duration": 0.3488370000000032,
            "durationTicks": 480,
            "midi": 73,
            "name": "C#5",
            "ticks": 335040,
            "time": 243.488226,
            "velocity": 0.7874015748031497
          },
          {
            "duration": 0.3488370000000032,
            "durationTicks": 480,
            "midi": 78,
            "name": "F#5",
            "ticks": 335040,
            "time": 243.488226,
            "velocity": 0.7874015748031497
          },
          {
            "duration": 0.3488370000000032,
            "durationTicks": 480,
            "midi": 82,
            "name": "A#5",
            "ticks": 335040,
            "time": 243.488226,
            "velocity": 1
          },
          {
            "duration": 0.3488370000000032,
            "durationTicks": 480,
            "midi": 66,
            "name": "F#4",
            "ticks": 335520,
            "time": 243.837063,
            "velocity": 0.7874015748031497
          },
          {
            "duration": 0.3488370000000032,
            "durationTicks": 480,
            "midi": 73,
            "name": "C#5",
            "ticks": 335520,
            "time": 243.837063,
            "velocity": 0.7874015748031497
          },
          {
            "duration": 0.3488370000000032,
            "durationTicks": 480,
            "midi": 78,
            "name": "F#5",
            "ticks": 335520,
            "time": 243.837063,
            "velocity": 0.7874015748031497
          },
          {
            "duration": 0.3488370000000032,
            "durationTicks": 480,
            "midi": 82,
            "name": "A#5",
            "ticks": 335520,
            "time": 243.837063,
            "velocity": 1
          },
          {
            "duration": 0.3488370000000032,
            "durationTicks": 480,
            "midi": 66,
            "name": "F#4",
            "ticks": 336000,
            "time": 244.1859,
            "velocity": 0.7874015748031497
          },
          {
            "duration": 0.3488370000000032,
            "durationTicks": 480,
            "midi": 70,
            "name": "A#4",
            "ticks": 336000,
            "time": 244.1859,
            "velocity": 0.7874015748031497
          },
          {
            "duration": 0.3488370000000032,
            "durationTicks": 480,
            "midi": 73,
            "name": "C#5",
            "ticks": 336000,
            "time": 244.1859,
            "velocity": 0.7874015748031497
          },
          {
            "duration": 0.3488370000000032,
            "durationTicks": 480,
            "midi": 80,
            "name": "G#5",
            "ticks": 336000,
            "time": 244.1859,
            "velocity": 1
          },
          {
            "duration": 0.3488370000000032,
            "durationTicks": 480,
            "midi": 66,
            "name": "F#4",
            "ticks": 336480,
            "time": 244.534737,
            "velocity": 0.7874015748031497
          },
          {
            "duration": 0.3488370000000032,
            "durationTicks": 480,
            "midi": 70,
            "name": "A#4",
            "ticks": 336480,
            "time": 244.534737,
            "velocity": 0.7874015748031497
          },
          {
            "duration": 0.3488370000000032,
            "durationTicks": 480,
            "midi": 73,
            "name": "C#5",
            "ticks": 336480,
            "time": 244.534737,
            "velocity": 0.7874015748031497
          },
          {
            "duration": 0.3488370000000032,
            "durationTicks": 480,
            "midi": 80,
            "name": "G#5",
            "ticks": 336480,
            "time": 244.534737,
            "velocity": 1
          },
          {
            "duration": 0.3488370000000032,
            "durationTicks": 480,
            "midi": 66,
            "name": "F#4",
            "ticks": 336960,
            "time": 244.883574,
            "velocity": 0.7874015748031497
          },
          {
            "duration": 0.3488370000000032,
            "durationTicks": 480,
            "midi": 70,
            "name": "A#4",
            "ticks": 336960,
            "time": 244.883574,
            "velocity": 0.7874015748031497
          },
          {
            "duration": 0.3488370000000032,
            "durationTicks": 480,
            "midi": 73,
            "name": "C#5",
            "ticks": 336960,
            "time": 244.883574,
            "velocity": 0.7874015748031497
          },
          {
            "duration": 0.3488370000000032,
            "durationTicks": 480,
            "midi": 80,
            "name": "G#5",
            "ticks": 336960,
            "time": 244.883574,
            "velocity": 1
          },
          {
            "duration": 0.3488370000000032,
            "durationTicks": 480,
            "midi": 66,
            "name": "F#4",
            "ticks": 337440,
            "time": 245.232411,
            "velocity": 0.7874015748031497
          },
          {
            "duration": 0.3488370000000032,
            "durationTicks": 480,
            "midi": 70,
            "name": "A#4",
            "ticks": 337440,
            "time": 245.232411,
            "velocity": 0.7874015748031497
          },
          {
            "duration": 0.3488370000000032,
            "durationTicks": 480,
            "midi": 73,
            "name": "C#5",
            "ticks": 337440,
            "time": 245.232411,
            "velocity": 0.7874015748031497
          },
          {
            "duration": 0.3488370000000032,
            "durationTicks": 480,
            "midi": 80,
            "name": "G#5",
            "ticks": 337440,
            "time": 245.232411,
            "velocity": 1
          },
          {
            "duration": 0.3488370000000032,
            "durationTicks": 480,
            "midi": 66,
            "name": "F#4",
            "ticks": 337920,
            "time": 245.58124800000002,
            "velocity": 0.7874015748031497
          },
          {
            "duration": 0.3488370000000032,
            "durationTicks": 480,
            "midi": 70,
            "name": "A#4",
            "ticks": 337920,
            "time": 245.58124800000002,
            "velocity": 0.7874015748031497
          },
          {
            "duration": 0.3488370000000032,
            "durationTicks": 480,
            "midi": 73,
            "name": "C#5",
            "ticks": 337920,
            "time": 245.58124800000002,
            "velocity": 0.7874015748031497
          },
          {
            "duration": 0.3488370000000032,
            "durationTicks": 480,
            "midi": 80,
            "name": "G#5",
            "ticks": 337920,
            "time": 245.58124800000002,
            "velocity": 1
          },
          {
            "duration": 0.34883699999997475,
            "durationTicks": 480,
            "midi": 66,
            "name": "F#4",
            "ticks": 338400,
            "time": 245.93008500000002,
            "velocity": 0.7874015748031497
          },
          {
            "duration": 0.34883699999997475,
            "durationTicks": 480,
            "midi": 70,
            "name": "A#4",
            "ticks": 338400,
            "time": 245.93008500000002,
            "velocity": 0.7874015748031497
          },
          {
            "duration": 0.34883699999997475,
            "durationTicks": 480,
            "midi": 73,
            "name": "C#5",
            "ticks": 338400,
            "time": 245.93008500000002,
            "velocity": 0.7874015748031497
          },
          {
            "duration": 0.34883699999997475,
            "durationTicks": 480,
            "midi": 80,
            "name": "G#5",
            "ticks": 338400,
            "time": 245.93008500000002,
            "velocity": 1
          },
          {
            "duration": 0.3488370000000032,
            "durationTicks": 480,
            "midi": 66,
            "name": "F#4",
            "ticks": 338880,
            "time": 246.278922,
            "velocity": 0.7874015748031497
          },
          {
            "duration": 0.3488370000000032,
            "durationTicks": 480,
            "midi": 70,
            "name": "A#4",
            "ticks": 338880,
            "time": 246.278922,
            "velocity": 0.7874015748031497
          },
          {
            "duration": 0.3488370000000032,
            "durationTicks": 480,
            "midi": 73,
            "name": "C#5",
            "ticks": 338880,
            "time": 246.278922,
            "velocity": 1
          },
          {
            "duration": 0.3488370000000032,
            "durationTicks": 480,
            "midi": 80,
            "name": "G#5",
            "ticks": 338880,
            "time": 246.278922,
            "velocity": 1
          },
          {
            "duration": 0.3488370000000032,
            "durationTicks": 480,
            "midi": 70,
            "name": "A#4",
            "ticks": 339360,
            "time": 246.627759,
            "velocity": 0.7874015748031497
          },
          {
            "duration": 0.3488370000000032,
            "durationTicks": 480,
            "midi": 73,
            "name": "C#5",
            "ticks": 339360,
            "time": 246.627759,
            "velocity": 0.7874015748031497
          },
          {
            "duration": 0.2616277500000024,
            "durationTicks": 360,
            "midi": 75,
            "name": "D#5",
            "ticks": 339360,
            "time": 246.627759,
            "velocity": 1
          },
          {
            "duration": 0.3488370000000032,
            "durationTicks": 480,
            "midi": 52,
            "name": "E3",
            "ticks": 339840,
            "time": 246.976596,
            "velocity": 0.7874015748031497
          },
          {
            "duration": 0.3488370000000032,
            "durationTicks": 480,
            "midi": 61,
            "name": "C#4",
            "ticks": 339840,
            "time": 246.976596,
            "velocity": 0.7874015748031497
          },
          {
            "duration": 0.3488370000000032,
            "durationTicks": 480,
            "midi": 68,
            "name": "G#4",
            "ticks": 339840,
            "time": 246.976596,
            "velocity": 0.7874015748031497
          },
          {
            "duration": 0.3488370000000032,
            "durationTicks": 480,
            "midi": 73,
            "name": "C#5",
            "ticks": 339840,
            "time": 246.976596,
            "velocity": 0.7874015748031497
          },
          {
            "duration": 0.3488370000000032,
            "durationTicks": 480,
            "midi": 52,
            "name": "E3",
            "ticks": 340320,
            "time": 247.325433,
            "velocity": 0.7874015748031497
          },
          {
            "duration": 0.3488370000000032,
            "durationTicks": 480,
            "midi": 61,
            "name": "C#4",
            "ticks": 340320,
            "time": 247.325433,
            "velocity": 0.7874015748031497
          },
          {
            "duration": 0.3488370000000032,
            "durationTicks": 480,
            "midi": 68,
            "name": "G#4",
            "ticks": 340320,
            "time": 247.325433,
            "velocity": 0.7874015748031497
          },
          {
            "duration": 0.3488370000000032,
            "durationTicks": 480,
            "midi": 73,
            "name": "C#5",
            "ticks": 340320,
            "time": 247.325433,
            "velocity": 1
          },
          {
            "duration": 0.3488370000000032,
            "durationTicks": 480,
            "midi": 52,
            "name": "E3",
            "ticks": 340800,
            "time": 247.67427,
            "velocity": 0.7874015748031497
          },
          {
            "duration": 0.3488370000000032,
            "durationTicks": 480,
            "midi": 61,
            "name": "C#4",
            "ticks": 340800,
            "time": 247.67427,
            "velocity": 0.7874015748031497
          },
          {
            "duration": 0.3488370000000032,
            "durationTicks": 480,
            "midi": 68,
            "name": "G#4",
            "ticks": 340800,
            "time": 247.67427,
            "velocity": 0.7874015748031497
          },
          {
            "duration": 0.3488370000000032,
            "durationTicks": 480,
            "midi": 73,
            "name": "C#5",
            "ticks": 340800,
            "time": 247.67427,
            "velocity": 1
          },
          {
            "duration": 0.3488370000000032,
            "durationTicks": 480,
            "midi": 52,
            "name": "E3",
            "ticks": 341280,
            "time": 248.023107,
            "velocity": 0.7874015748031497
          },
          {
            "duration": 0.3488370000000032,
            "durationTicks": 480,
            "midi": 61,
            "name": "C#4",
            "ticks": 341280,
            "time": 248.023107,
            "velocity": 0.7874015748031497
          },
          {
            "duration": 0.3488370000000032,
            "durationTicks": 480,
            "midi": 68,
            "name": "G#4",
            "ticks": 341280,
            "time": 248.023107,
            "velocity": 0.7874015748031497
          },
          {
            "duration": 0.3488370000000032,
            "durationTicks": 480,
            "midi": 73,
            "name": "C#5",
            "ticks": 341280,
            "time": 248.023107,
            "velocity": 1
          },
          {
            "duration": 0.3488370000000032,
            "durationTicks": 480,
            "midi": 52,
            "name": "E3",
            "ticks": 341760,
            "time": 248.371944,
            "velocity": 0.7874015748031497
          },
          {
            "duration": 0.3488370000000032,
            "durationTicks": 480,
            "midi": 61,
            "name": "C#4",
            "ticks": 341760,
            "time": 248.371944,
            "velocity": 0.7874015748031497
          },
          {
            "duration": 0.3488370000000032,
            "durationTicks": 480,
            "midi": 68,
            "name": "G#4",
            "ticks": 341760,
            "time": 248.371944,
            "velocity": 0.7874015748031497
          },
          {
            "duration": 0.3488370000000032,
            "durationTicks": 480,
            "midi": 73,
            "name": "C#5",
            "ticks": 341760,
            "time": 248.371944,
            "velocity": 1
          },
          {
            "duration": 0.3488370000000032,
            "durationTicks": 480,
            "midi": 52,
            "name": "E3",
            "ticks": 342240,
            "time": 248.72078100000002,
            "velocity": 0.7874015748031497
          },
          {
            "duration": 0.3488370000000032,
            "durationTicks": 480,
            "midi": 61,
            "name": "C#4",
            "ticks": 342240,
            "time": 248.72078100000002,
            "velocity": 0.7874015748031497
          },
          {
            "duration": 0.3488370000000032,
            "durationTicks": 480,
            "midi": 68,
            "name": "G#4",
            "ticks": 342240,
            "time": 248.72078100000002,
            "velocity": 0.7874015748031497
          },
          {
            "duration": 0.3488370000000032,
            "durationTicks": 480,
            "midi": 73,
            "name": "C#5",
            "ticks": 342240,
            "time": 248.72078100000002,
            "velocity": 1
          },
          {
            "duration": 0.34883699999997475,
            "durationTicks": 480,
            "midi": 52,
            "name": "E3",
            "ticks": 342720,
            "time": 249.06961800000002,
            "velocity": 0.7874015748031497
          },
          {
            "duration": 0.34883699999997475,
            "durationTicks": 480,
            "midi": 61,
            "name": "C#4",
            "ticks": 342720,
            "time": 249.06961800000002,
            "velocity": 0.7874015748031497
          },
          {
            "duration": 0.34883699999997475,
            "durationTicks": 480,
            "midi": 68,
            "name": "G#4",
            "ticks": 342720,
            "time": 249.06961800000002,
            "velocity": 0.7874015748031497
          },
          {
            "duration": 0.34883699999997475,
            "durationTicks": 480,
            "midi": 73,
            "name": "C#5",
            "ticks": 342720,
            "time": 249.06961800000002,
            "velocity": 0.7874015748031497
          },
          {
            "duration": 0.3488370000000032,
            "durationTicks": 480,
            "midi": 52,
            "name": "E3",
            "ticks": 343200,
            "time": 249.418455,
            "velocity": 0.7874015748031497
          },
          {
            "duration": 0.3488370000000032,
            "durationTicks": 480,
            "midi": 61,
            "name": "C#4",
            "ticks": 343200,
            "time": 249.418455,
            "velocity": 0.7874015748031497
          },
          {
            "duration": 0.3488370000000032,
            "durationTicks": 480,
            "midi": 68,
            "name": "G#4",
            "ticks": 343200,
            "time": 249.418455,
            "velocity": 0.7874015748031497
          },
          {
            "duration": 0.3488370000000032,
            "durationTicks": 480,
            "midi": 73,
            "name": "C#5",
            "ticks": 343200,
            "time": 249.418455,
            "velocity": 1
          },
          {
            "duration": 0.3488370000000032,
            "durationTicks": 480,
            "midi": 59,
            "name": "B3",
            "ticks": 343680,
            "time": 249.767292,
            "velocity": 0.7874015748031497
          },
          {
            "duration": 0.3488370000000032,
            "durationTicks": 480,
            "midi": 66,
            "name": "F#4",
            "ticks": 343680,
            "time": 249.767292,
            "velocity": 0.7874015748031497
          },
          {
            "duration": 0.3488370000000032,
            "durationTicks": 480,
            "midi": 71,
            "name": "B4",
            "ticks": 343680,
            "time": 249.767292,
            "velocity": 1
          },
          {
            "duration": 0.3488370000000032,
            "durationTicks": 480,
            "midi": 52,
            "name": "E3",
            "ticks": 344160,
            "time": 250.116129,
            "velocity": 0.7874015748031497
          },
          {
            "duration": 0.3488370000000032,
            "durationTicks": 480,
            "midi": 59,
            "name": "B3",
            "ticks": 344160,
            "time": 250.116129,
            "velocity": 0.7874015748031497
          },
          {
            "duration": 0.3488370000000032,
            "durationTicks": 480,
            "midi": 66,
            "name": "F#4",
            "ticks": 344160,
            "time": 250.116129,
            "velocity": 0.7874015748031497
          },
          {
            "duration": 0.3488370000000032,
            "durationTicks": 480,
            "midi": 71,
            "name": "B4",
            "ticks": 344160,
            "time": 250.116129,
            "velocity": 1
          },
          {
            "duration": 0.3488370000000032,
            "durationTicks": 480,
            "midi": 52,
            "name": "E3",
            "ticks": 344640,
            "time": 250.464966,
            "velocity": 0.7874015748031497
          },
          {
            "duration": 0.3488370000000032,
            "durationTicks": 480,
            "midi": 59,
            "name": "B3",
            "ticks": 344640,
            "time": 250.464966,
            "velocity": 0.7874015748031497
          },
          {
            "duration": 0.3488370000000032,
            "durationTicks": 480,
            "midi": 66,
            "name": "F#4",
            "ticks": 344640,
            "time": 250.464966,
            "velocity": 1
          },
          {
            "duration": 0.3488370000000032,
            "durationTicks": 480,
            "midi": 71,
            "name": "B4",
            "ticks": 344640,
            "time": 250.464966,
            "velocity": 1
          },
          {
            "duration": 0.3488370000000032,
            "durationTicks": 480,
            "midi": 52,
            "name": "E3",
            "ticks": 345120,
            "time": 250.813803,
            "velocity": 0.7874015748031497
          },
          {
            "duration": 0.3488370000000032,
            "durationTicks": 480,
            "midi": 59,
            "name": "B3",
            "ticks": 345120,
            "time": 250.813803,
            "velocity": 0.7874015748031497
          },
          {
            "duration": 0.3488370000000032,
            "durationTicks": 480,
            "midi": 66,
            "name": "F#4",
            "ticks": 345120,
            "time": 250.813803,
            "velocity": 0.7874015748031497
          },
          {
            "duration": 0.3488370000000032,
            "durationTicks": 480,
            "midi": 71,
            "name": "B4",
            "ticks": 345120,
            "time": 250.813803,
            "velocity": 0.7874015748031497
          },
          {
            "duration": 0.3488370000000032,
            "durationTicks": 480,
            "midi": 52,
            "name": "E3",
            "ticks": 345600,
            "time": 251.16264,
            "velocity": 0.7874015748031497
          },
          {
            "duration": 0.3488370000000032,
            "durationTicks": 480,
            "midi": 59,
            "name": "B3",
            "ticks": 345600,
            "time": 251.16264,
            "velocity": 0.7874015748031497
          },
          {
            "duration": 0.3488370000000032,
            "durationTicks": 480,
            "midi": 66,
            "name": "F#4",
            "ticks": 345600,
            "time": 251.16264,
            "velocity": 0.7874015748031497
          },
          {
            "duration": 0.3488370000000032,
            "durationTicks": 480,
            "midi": 71,
            "name": "B4",
            "ticks": 345600,
            "time": 251.16264,
            "velocity": 1
          },
          {
            "duration": 0.3488370000000032,
            "durationTicks": 480,
            "midi": 52,
            "name": "E3",
            "ticks": 346080,
            "time": 251.511477,
            "velocity": 0.7874015748031497
          },
          {
            "duration": 0.3488370000000032,
            "durationTicks": 480,
            "midi": 59,
            "name": "B3",
            "ticks": 346080,
            "time": 251.511477,
            "velocity": 0.7874015748031497
          },
          {
            "duration": 0.3488370000000032,
            "durationTicks": 480,
            "midi": 66,
            "name": "F#4",
            "ticks": 346080,
            "time": 251.511477,
            "velocity": 0.7874015748031497
          },
          {
            "duration": 0.3488370000000032,
            "durationTicks": 480,
            "midi": 71,
            "name": "B4",
            "ticks": 346080,
            "time": 251.511477,
            "velocity": 1
          },
          {
            "duration": 0.3488370000000032,
            "durationTicks": 480,
            "midi": 52,
            "name": "E3",
            "ticks": 346560,
            "time": 251.86031400000002,
            "velocity": 0.7874015748031497
          },
          {
            "duration": 0.3488370000000032,
            "durationTicks": 480,
            "midi": 59,
            "name": "B3",
            "ticks": 346560,
            "time": 251.86031400000002,
            "velocity": 0.7874015748031497
          },
          {
            "duration": 0.3488370000000032,
            "durationTicks": 480,
            "midi": 66,
            "name": "F#4",
            "ticks": 346560,
            "time": 251.86031400000002,
            "velocity": 0.7874015748031497
          },
          {
            "duration": 0.3488370000000032,
            "durationTicks": 480,
            "midi": 71,
            "name": "B4",
            "ticks": 346560,
            "time": 251.86031400000002,
            "velocity": 1
          },
          {
            "duration": 0.34883699999997475,
            "durationTicks": 480,
            "midi": 52,
            "name": "E3",
            "ticks": 347040,
            "time": 252.20915100000002,
            "velocity": 0.7874015748031497
          },
          {
            "duration": 0.34883699999997475,
            "durationTicks": 480,
            "midi": 59,
            "name": "B3",
            "ticks": 347040,
            "time": 252.20915100000002,
            "velocity": 0.7874015748031497
          },
          {
            "duration": 0.34883699999997475,
            "durationTicks": 480,
            "midi": 66,
            "name": "F#4",
            "ticks": 347040,
            "time": 252.20915100000002,
            "velocity": 0.7874015748031497
          },
          {
            "duration": 0.34883699999997475,
            "durationTicks": 480,
            "midi": 71,
            "name": "B4",
            "ticks": 347040,
            "time": 252.20915100000002,
            "velocity": 1
          },
          {
            "duration": 1.3953480000000127,
            "durationTicks": 1920,
            "midi": 66,
            "name": "F#4",
            "ticks": 347520,
            "time": 252.557988,
            "velocity": 0.7874015748031497
          },
          {
            "duration": 1.3953480000000127,
            "durationTicks": 1920,
            "midi": 75,
            "name": "D#5",
            "ticks": 347520,
            "time": 252.557988,
            "velocity": 0.7874015748031497
          }
        ]
      },
      {
        "channel": 0,
        "controlChanges": {},
        "pitchBends": [],
        "instrument": {
          "family": "piano",
          "number": 0,
          "name": "acoustic grand piano"
        },
        "name": "untitled",
        "notes": [],
        "endOfTrackTicks": 372480
      },
      {
        "channel": 6,
        "controlChanges": {
          "7": [
            {
              "number": 7,
              "ticks": 0,
              "time": 0,
              "value": 0.5511811023622047
            }
          ],
          "10": [
            {
              "number": 10,
              "ticks": 0,
              "time": 0,
              "value": 1
            }
          ]
        },
        "pitchBends": [],
        "instrument": {
          "family": "guitar",
          "number": 30,
          "name": "distortion guitar"
        },
        "name": "",
        "notes": [
          {
            "duration": 0.3488369999999996,
            "durationTicks": 480,
            "midi": 54,
            "name": "F#3",
            "ticks": 17280,
            "time": 12.558132,
            "velocity": 0.7874015748031497
          },
          {
            "duration": 0.3488369999999996,
            "durationTicks": 480,
            "midi": 59,
            "name": "B3",
            "ticks": 17280,
            "time": 12.558132,
            "velocity": 0.7874015748031497
          },
          {
            "duration": 0.3488369999999996,
            "durationTicks": 480,
            "midi": 66,
            "name": "F#4",
            "ticks": 17280,
            "time": 12.558132,
            "velocity": 0.7874015748031497
          },
          {
            "duration": 0.3488369999999996,
            "durationTicks": 480,
            "midi": 71,
            "name": "B4",
            "ticks": 17280,
            "time": 12.558132,
            "velocity": 0.7874015748031497
          },
          {
            "duration": 0.3488369999999996,
            "durationTicks": 480,
            "midi": 54,
            "name": "F#3",
            "ticks": 17760,
            "time": 12.906969,
            "velocity": 0.7874015748031497
          },
          {
            "duration": 0.3488369999999996,
            "durationTicks": 480,
            "midi": 59,
            "name": "B3",
            "ticks": 17760,
            "time": 12.906969,
            "velocity": 0.7874015748031497
          },
          {
            "duration": 0.3488369999999996,
            "durationTicks": 480,
            "midi": 66,
            "name": "F#4",
            "ticks": 17760,
            "time": 12.906969,
            "velocity": 0.7874015748031497
          },
          {
            "duration": 0.3488369999999996,
            "durationTicks": 480,
            "midi": 71,
            "name": "B4",
            "ticks": 17760,
            "time": 12.906969,
            "velocity": 0.7874015748031497
          },
          {
            "duration": 0.3488370000000014,
            "durationTicks": 480,
            "midi": 54,
            "name": "F#3",
            "ticks": 18240,
            "time": 13.255806,
            "velocity": 0.7874015748031497
          },
          {
            "duration": 0.3488370000000014,
            "durationTicks": 480,
            "midi": 59,
            "name": "B3",
            "ticks": 18240,
            "time": 13.255806,
            "velocity": 0.7874015748031497
          },
          {
            "duration": 0.3488370000000014,
            "durationTicks": 480,
            "midi": 66,
            "name": "F#4",
            "ticks": 18240,
            "time": 13.255806,
            "velocity": 0.7874015748031497
          },
          {
            "duration": 0.3488370000000014,
            "durationTicks": 480,
            "midi": 71,
            "name": "B4",
            "ticks": 18240,
            "time": 13.255806,
            "velocity": 0.7874015748031497
          },
          {
            "duration": 0.3488369999999996,
            "durationTicks": 480,
            "midi": 54,
            "name": "F#3",
            "ticks": 18720,
            "time": 13.604643000000001,
            "velocity": 0.7874015748031497
          },
          {
            "duration": 0.3488369999999996,
            "durationTicks": 480,
            "midi": 59,
            "name": "B3",
            "ticks": 18720,
            "time": 13.604643000000001,
            "velocity": 0.7874015748031497
          },
          {
            "duration": 0.3488369999999996,
            "durationTicks": 480,
            "midi": 66,
            "name": "F#4",
            "ticks": 18720,
            "time": 13.604643000000001,
            "velocity": 0.7874015748031497
          },
          {
            "duration": 0.3488369999999996,
            "durationTicks": 480,
            "midi": 71,
            "name": "B4",
            "ticks": 18720,
            "time": 13.604643000000001,
            "velocity": 0.7874015748031497
          },
          {
            "duration": 0.3488369999999996,
            "durationTicks": 480,
            "midi": 54,
            "name": "F#3",
            "ticks": 19200,
            "time": 13.95348,
            "velocity": 0.7874015748031497
          },
          {
            "duration": 0.3488369999999996,
            "durationTicks": 480,
            "midi": 59,
            "name": "B3",
            "ticks": 19200,
            "time": 13.95348,
            "velocity": 0.7874015748031497
          },
          {
            "duration": 0.3488369999999996,
            "durationTicks": 480,
            "midi": 66,
            "name": "F#4",
            "ticks": 19200,
            "time": 13.95348,
            "velocity": 0.7874015748031497
          },
          {
            "duration": 0.3488369999999996,
            "durationTicks": 480,
            "midi": 71,
            "name": "B4",
            "ticks": 19200,
            "time": 13.95348,
            "velocity": 0.7874015748031497
          },
          {
            "duration": 0.3488369999999996,
            "durationTicks": 480,
            "midi": 54,
            "name": "F#3",
            "ticks": 19680,
            "time": 14.302317,
            "velocity": 0.7874015748031497
          },
          {
            "duration": 0.3488369999999996,
            "durationTicks": 480,
            "midi": 59,
            "name": "B3",
            "ticks": 19680,
            "time": 14.302317,
            "velocity": 0.7874015748031497
          },
          {
            "duration": 0.3488369999999996,
            "durationTicks": 480,
            "midi": 66,
            "name": "F#4",
            "ticks": 19680,
            "time": 14.302317,
            "velocity": 0.7874015748031497
          },
          {
            "duration": 0.3488369999999996,
            "durationTicks": 480,
            "midi": 71,
            "name": "B4",
            "ticks": 19680,
            "time": 14.302317,
            "velocity": 0.7874015748031497
          },
          {
            "duration": 0.3488369999999996,
            "durationTicks": 480,
            "midi": 54,
            "name": "F#3",
            "ticks": 20160,
            "time": 14.651154,
            "velocity": 0.7874015748031497
          },
          {
            "duration": 0.3488369999999996,
            "durationTicks": 480,
            "midi": 59,
            "name": "B3",
            "ticks": 20160,
            "time": 14.651154,
            "velocity": 0.7874015748031497
          },
          {
            "duration": 0.3488369999999996,
            "durationTicks": 480,
            "midi": 66,
            "name": "F#4",
            "ticks": 20160,
            "time": 14.651154,
            "velocity": 0.7874015748031497
          },
          {
            "duration": 0.3488369999999996,
            "durationTicks": 480,
            "midi": 71,
            "name": "B4",
            "ticks": 20160,
            "time": 14.651154,
            "velocity": 0.7874015748031497
          },
          {
            "duration": 0.3488370000000014,
            "durationTicks": 480,
            "midi": 54,
            "name": "F#3",
            "ticks": 20640,
            "time": 14.999991,
            "velocity": 0.7874015748031497
          },
          {
            "duration": 0.3488370000000014,
            "durationTicks": 480,
            "midi": 59,
            "name": "B3",
            "ticks": 20640,
            "time": 14.999991,
            "velocity": 0.7874015748031497
          },
          {
            "duration": 0.3488370000000014,
            "durationTicks": 480,
            "midi": 66,
            "name": "F#4",
            "ticks": 20640,
            "time": 14.999991,
            "velocity": 0.7874015748031497
          },
          {
            "duration": 0.3488370000000014,
            "durationTicks": 480,
            "midi": 71,
            "name": "B4",
            "ticks": 20640,
            "time": 14.999991,
            "velocity": 0.7874015748031497
          },
          {
            "duration": 0.3488369999999996,
            "durationTicks": 480,
            "midi": 54,
            "name": "F#3",
            "ticks": 21120,
            "time": 15.348828000000001,
            "velocity": 0.7874015748031497
          },
          {
            "duration": 0.3488369999999996,
            "durationTicks": 480,
            "midi": 59,
            "name": "B3",
            "ticks": 21120,
            "time": 15.348828000000001,
            "velocity": 0.7874015748031497
          },
          {
            "duration": 0.3488369999999996,
            "durationTicks": 480,
            "midi": 66,
            "name": "F#4",
            "ticks": 21120,
            "time": 15.348828000000001,
            "velocity": 0.7874015748031497
          },
          {
            "duration": 0.3488369999999996,
            "durationTicks": 480,
            "midi": 71,
            "name": "B4",
            "ticks": 21120,
            "time": 15.348828000000001,
            "velocity": 0.7874015748031497
          },
          {
            "duration": 0.3488369999999996,
            "durationTicks": 480,
            "midi": 54,
            "name": "F#3",
            "ticks": 21600,
            "time": 15.697665,
            "velocity": 0.7874015748031497
          },
          {
            "duration": 0.3488369999999996,
            "durationTicks": 480,
            "midi": 59,
            "name": "B3",
            "ticks": 21600,
            "time": 15.697665,
            "velocity": 0.7874015748031497
          },
          {
            "duration": 0.3488369999999996,
            "durationTicks": 480,
            "midi": 66,
            "name": "F#4",
            "ticks": 21600,
            "time": 15.697665,
            "velocity": 0.7874015748031497
          },
          {
            "duration": 0.3488369999999996,
            "durationTicks": 480,
            "midi": 71,
            "name": "B4",
            "ticks": 21600,
            "time": 15.697665,
            "velocity": 0.7874015748031497
          },
          {
            "duration": 0.3488369999999996,
            "durationTicks": 480,
            "midi": 54,
            "name": "F#3",
            "ticks": 22080,
            "time": 16.046502,
            "velocity": 0.7874015748031497
          },
          {
            "duration": 0.3488369999999996,
            "durationTicks": 480,
            "midi": 59,
            "name": "B3",
            "ticks": 22080,
            "time": 16.046502,
            "velocity": 0.7874015748031497
          },
          {
            "duration": 0.3488369999999996,
            "durationTicks": 480,
            "midi": 66,
            "name": "F#4",
            "ticks": 22080,
            "time": 16.046502,
            "velocity": 0.7874015748031497
          },
          {
            "duration": 0.3488369999999996,
            "durationTicks": 480,
            "midi": 71,
            "name": "B4",
            "ticks": 22080,
            "time": 16.046502,
            "velocity": 0.7874015748031497
          },
          {
            "duration": 0.3488369999999996,
            "durationTicks": 480,
            "midi": 54,
            "name": "F#3",
            "ticks": 22560,
            "time": 16.395339,
            "velocity": 0.7874015748031497
          },
          {
            "duration": 0.3488369999999996,
            "durationTicks": 480,
            "midi": 59,
            "name": "B3",
            "ticks": 22560,
            "time": 16.395339,
            "velocity": 0.7874015748031497
          },
          {
            "duration": 0.3488369999999996,
            "durationTicks": 480,
            "midi": 66,
            "name": "F#4",
            "ticks": 22560,
            "time": 16.395339,
            "velocity": 0.7874015748031497
          },
          {
            "duration": 0.3488369999999996,
            "durationTicks": 480,
            "midi": 71,
            "name": "B4",
            "ticks": 22560,
            "time": 16.395339,
            "velocity": 0.7874015748031497
          },
          {
            "duration": 0.3488369999999996,
            "durationTicks": 480,
            "midi": 54,
            "name": "F#3",
            "ticks": 23040,
            "time": 16.744176,
            "velocity": 0.7874015748031497
          },
          {
            "duration": 0.3488369999999996,
            "durationTicks": 480,
            "midi": 59,
            "name": "B3",
            "ticks": 23040,
            "time": 16.744176,
            "velocity": 0.7874015748031497
          },
          {
            "duration": 0.3488369999999996,
            "durationTicks": 480,
            "midi": 66,
            "name": "F#4",
            "ticks": 23040,
            "time": 16.744176,
            "velocity": 0.7874015748031497
          },
          {
            "duration": 0.3488369999999996,
            "durationTicks": 480,
            "midi": 71,
            "name": "B4",
            "ticks": 23040,
            "time": 16.744176,
            "velocity": 0.7874015748031497
          },
          {
            "duration": 0.3488369999999996,
            "durationTicks": 480,
            "midi": 54,
            "name": "F#3",
            "ticks": 23520,
            "time": 17.093013,
            "velocity": 0.7874015748031497
          },
          {
            "duration": 0.3488369999999996,
            "durationTicks": 480,
            "midi": 59,
            "name": "B3",
            "ticks": 23520,
            "time": 17.093013,
            "velocity": 0.7874015748031497
          },
          {
            "duration": 0.3488369999999996,
            "durationTicks": 480,
            "midi": 66,
            "name": "F#4",
            "ticks": 23520,
            "time": 17.093013,
            "velocity": 0.7874015748031497
          },
          {
            "duration": 0.3488369999999996,
            "durationTicks": 480,
            "midi": 71,
            "name": "B4",
            "ticks": 23520,
            "time": 17.093013,
            "velocity": 0.7874015748031497
          },
          {
            "duration": 0.3488370000000032,
            "durationTicks": 480,
            "midi": 54,
            "name": "F#3",
            "ticks": 24000,
            "time": 17.44185,
            "velocity": 0.7874015748031497
          },
          {
            "duration": 0.3488370000000032,
            "durationTicks": 480,
            "midi": 59,
            "name": "B3",
            "ticks": 24000,
            "time": 17.44185,
            "velocity": 0.7874015748031497
          },
          {
            "duration": 0.3488370000000032,
            "durationTicks": 480,
            "midi": 66,
            "name": "F#4",
            "ticks": 24000,
            "time": 17.44185,
            "velocity": 0.7874015748031497
          },
          {
            "duration": 0.3488370000000032,
            "durationTicks": 480,
            "midi": 71,
            "name": "B4",
            "ticks": 24000,
            "time": 17.44185,
            "velocity": 0.7874015748031497
          },
          {
            "duration": 0.3488369999999996,
            "durationTicks": 480,
            "midi": 54,
            "name": "F#3",
            "ticks": 24480,
            "time": 17.790687000000002,
            "velocity": 0.7874015748031497
          },
          {
            "duration": 0.3488369999999996,
            "durationTicks": 480,
            "midi": 59,
            "name": "B3",
            "ticks": 24480,
            "time": 17.790687000000002,
            "velocity": 0.7874015748031497
          },
          {
            "duration": 0.3488369999999996,
            "durationTicks": 480,
            "midi": 66,
            "name": "F#4",
            "ticks": 24480,
            "time": 17.790687000000002,
            "velocity": 0.7874015748031497
          },
          {
            "duration": 0.3488369999999996,
            "durationTicks": 480,
            "midi": 71,
            "name": "B4",
            "ticks": 24480,
            "time": 17.790687000000002,
            "velocity": 0.7874015748031497
          },
          {
            "duration": 0.3488369999999996,
            "durationTicks": 480,
            "midi": 54,
            "name": "F#3",
            "ticks": 24960,
            "time": 18.139524,
            "velocity": 0.7874015748031497
          },
          {
            "duration": 0.3488369999999996,
            "durationTicks": 480,
            "midi": 61,
            "name": "C#4",
            "ticks": 24960,
            "time": 18.139524,
            "velocity": 0.7874015748031497
          },
          {
            "duration": 0.3488369999999996,
            "durationTicks": 480,
            "midi": 66,
            "name": "F#4",
            "ticks": 24960,
            "time": 18.139524,
            "velocity": 0.7874015748031497
          },
          {
            "duration": 0.3488369999999996,
            "durationTicks": 480,
            "midi": 54,
            "name": "F#3",
            "ticks": 25440,
            "time": 18.488361,
            "velocity": 0.7874015748031497
          },
          {
            "duration": 0.3488369999999996,
            "durationTicks": 480,
            "midi": 59,
            "name": "B3",
            "ticks": 25440,
            "time": 18.488361,
            "velocity": 0.7874015748031497
          },
          {
            "duration": 0.3488369999999996,
            "durationTicks": 480,
            "midi": 66,
            "name": "F#4",
            "ticks": 25440,
            "time": 18.488361,
            "velocity": 0.7874015748031497
          },
          {
            "duration": 0.3488369999999996,
            "durationTicks": 480,
            "midi": 54,
            "name": "F#3",
            "ticks": 25920,
            "time": 18.837198,
            "velocity": 0.7874015748031497
          },
          {
            "duration": 0.3488369999999996,
            "durationTicks": 480,
            "midi": 61,
            "name": "C#4",
            "ticks": 25920,
            "time": 18.837198,
            "velocity": 0.7874015748031497
          },
          {
            "duration": 0.3488369999999996,
            "durationTicks": 480,
            "midi": 66,
            "name": "F#4",
            "ticks": 25920,
            "time": 18.837198,
            "velocity": 0.7874015748031497
          },
          {
            "duration": 0.3488369999999996,
            "durationTicks": 480,
            "midi": 54,
            "name": "F#3",
            "ticks": 26400,
            "time": 19.186035,
            "velocity": 0.7874015748031497
          },
          {
            "duration": 0.3488369999999996,
            "durationTicks": 480,
            "midi": 59,
            "name": "B3",
            "ticks": 26400,
            "time": 19.186035,
            "velocity": 0.7874015748031497
          },
          {
            "duration": 0.3488369999999996,
            "durationTicks": 480,
            "midi": 66,
            "name": "F#4",
            "ticks": 26400,
            "time": 19.186035,
            "velocity": 0.7874015748031497
          },
          {
            "duration": 0.3488369999999996,
            "durationTicks": 480,
            "midi": 54,
            "name": "F#3",
            "ticks": 26880,
            "time": 19.534872,
            "velocity": 0.7874015748031497
          },
          {
            "duration": 0.3488369999999996,
            "durationTicks": 480,
            "midi": 61,
            "name": "C#4",
            "ticks": 26880,
            "time": 19.534872,
            "velocity": 0.7874015748031497
          },
          {
            "duration": 0.3488369999999996,
            "durationTicks": 480,
            "midi": 66,
            "name": "F#4",
            "ticks": 26880,
            "time": 19.534872,
            "velocity": 0.7874015748031497
          },
          {
            "duration": 0.3488369999999996,
            "durationTicks": 480,
            "midi": 54,
            "name": "F#3",
            "ticks": 27360,
            "time": 19.883709,
            "velocity": 0.7874015748031497
          },
          {
            "duration": 0.3488369999999996,
            "durationTicks": 480,
            "midi": 59,
            "name": "B3",
            "ticks": 27360,
            "time": 19.883709,
            "velocity": 0.7874015748031497
          },
          {
            "duration": 0.3488369999999996,
            "durationTicks": 480,
            "midi": 66,
            "name": "F#4",
            "ticks": 27360,
            "time": 19.883709,
            "velocity": 0.7874015748031497
          },
          {
            "duration": 0.3488369999999996,
            "durationTicks": 480,
            "midi": 54,
            "name": "F#3",
            "ticks": 27840,
            "time": 20.232546,
            "velocity": 0.7874015748031497
          },
          {
            "duration": 0.3488369999999996,
            "durationTicks": 480,
            "midi": 61,
            "name": "C#4",
            "ticks": 27840,
            "time": 20.232546,
            "velocity": 0.7874015748031497
          },
          {
            "duration": 0.3488369999999996,
            "durationTicks": 480,
            "midi": 66,
            "name": "F#4",
            "ticks": 27840,
            "time": 20.232546,
            "velocity": 0.7874015748031497
          },
          {
            "duration": 0.3488370000000032,
            "durationTicks": 480,
            "midi": 54,
            "name": "F#3",
            "ticks": 28320,
            "time": 20.581383,
            "velocity": 0.7874015748031497
          },
          {
            "duration": 0.3488370000000032,
            "durationTicks": 480,
            "midi": 59,
            "name": "B3",
            "ticks": 28320,
            "time": 20.581383,
            "velocity": 0.7874015748031497
          },
          {
            "duration": 0.3488370000000032,
            "durationTicks": 480,
            "midi": 66,
            "name": "F#4",
            "ticks": 28320,
            "time": 20.581383,
            "velocity": 0.7874015748031497
          },
          {
            "duration": 0.3488369999999996,
            "durationTicks": 480,
            "midi": 54,
            "name": "F#3",
            "ticks": 28800,
            "time": 20.930220000000002,
            "velocity": 0.7874015748031497
          },
          {
            "duration": 0.3488369999999996,
            "durationTicks": 480,
            "midi": 59,
            "name": "B3",
            "ticks": 28800,
            "time": 20.930220000000002,
            "velocity": 0.7874015748031497
          },
          {
            "duration": 0.3488369999999996,
            "durationTicks": 480,
            "midi": 66,
            "name": "F#4",
            "ticks": 28800,
            "time": 20.930220000000002,
            "velocity": 0.7874015748031497
          },
          {
            "duration": 0.3488369999999996,
            "durationTicks": 480,
            "midi": 54,
            "name": "F#3",
            "ticks": 29280,
            "time": 21.279057,
            "velocity": 0.7874015748031497
          },
          {
            "duration": 0.3488369999999996,
            "durationTicks": 480,
            "midi": 59,
            "name": "B3",
            "ticks": 29280,
            "time": 21.279057,
            "velocity": 0.7874015748031497
          },
          {
            "duration": 0.3488369999999996,
            "durationTicks": 480,
            "midi": 66,
            "name": "F#4",
            "ticks": 29280,
            "time": 21.279057,
            "velocity": 0.7874015748031497
          },
          {
            "duration": 0.3488369999999996,
            "durationTicks": 480,
            "midi": 54,
            "name": "F#3",
            "ticks": 29760,
            "time": 21.627894,
            "velocity": 0.7874015748031497
          },
          {
            "duration": 0.3488369999999996,
            "durationTicks": 480,
            "midi": 59,
            "name": "B3",
            "ticks": 29760,
            "time": 21.627894,
            "velocity": 0.7874015748031497
          },
          {
            "duration": 0.3488369999999996,
            "durationTicks": 480,
            "midi": 66,
            "name": "F#4",
            "ticks": 29760,
            "time": 21.627894,
            "velocity": 0.7874015748031497
          },
          {
            "duration": 0.3488369999999996,
            "durationTicks": 480,
            "midi": 54,
            "name": "F#3",
            "ticks": 30240,
            "time": 21.976731,
            "velocity": 0.7874015748031497
          },
          {
            "duration": 0.3488369999999996,
            "durationTicks": 480,
            "midi": 59,
            "name": "B3",
            "ticks": 30240,
            "time": 21.976731,
            "velocity": 0.7874015748031497
          },
          {
            "duration": 0.3488369999999996,
            "durationTicks": 480,
            "midi": 66,
            "name": "F#4",
            "ticks": 30240,
            "time": 21.976731,
            "velocity": 0.7874015748031497
          },
          {
            "duration": 0.3488369999999996,
            "durationTicks": 480,
            "midi": 54,
            "name": "F#3",
            "ticks": 30720,
            "time": 22.325568,
            "velocity": 0.7874015748031497
          },
          {
            "duration": 0.35174397500000154,
            "durationTicks": 484,
            "midi": 59,
            "name": "B3",
            "ticks": 30720,
            "time": 22.325568,
            "velocity": 0.7874015748031497
          },
          {
            "duration": 0.3488369999999996,
            "durationTicks": 480,
            "midi": 66,
            "name": "F#4",
            "ticks": 30720,
            "time": 22.325568,
            "velocity": 0.7874015748031497
          },
          {
            "duration": 0.3488369999999996,
            "durationTicks": 480,
            "midi": 54,
            "name": "F#3",
            "ticks": 31200,
            "time": 22.674405,
            "velocity": 0.7874015748031497
          },
          {
            "duration": 0.3488369999999996,
            "durationTicks": 480,
            "midi": 59,
            "name": "B3",
            "ticks": 31200,
            "time": 22.674405,
            "velocity": 0.7874015748031497
          },
          {
            "duration": 0.3488369999999996,
            "durationTicks": 480,
            "midi": 66,
            "name": "F#4",
            "ticks": 31200,
            "time": 22.674405,
            "velocity": 0.7874015748031497
          },
          {
            "duration": 0.3488369999999996,
            "durationTicks": 480,
            "midi": 54,
            "name": "F#3",
            "ticks": 31680,
            "time": 23.023242,
            "velocity": 0.7874015748031497
          },
          {
            "duration": 0.3488369999999996,
            "durationTicks": 480,
            "midi": 59,
            "name": "B3",
            "ticks": 31680,
            "time": 23.023242,
            "velocity": 0.7874015748031497
          },
          {
            "duration": 0.3488369999999996,
            "durationTicks": 480,
            "midi": 66,
            "name": "F#4",
            "ticks": 31680,
            "time": 23.023242,
            "velocity": 0.7874015748031497
          },
          {
            "duration": 0.3488369999999996,
            "durationTicks": 480,
            "midi": 54,
            "name": "F#3",
            "ticks": 32160,
            "time": 23.372079,
            "velocity": 0.7874015748031497
          },
          {
            "duration": 0.3488369999999996,
            "durationTicks": 480,
            "midi": 59,
            "name": "B3",
            "ticks": 32160,
            "time": 23.372079,
            "velocity": 0.7874015748031497
          },
          {
            "duration": 0.3488369999999996,
            "durationTicks": 480,
            "midi": 66,
            "name": "F#4",
            "ticks": 32160,
            "time": 23.372079,
            "velocity": 0.7874015748031497
          },
          {
            "duration": 0.3488370000000032,
            "durationTicks": 480,
            "midi": 52,
            "name": "E3",
            "ticks": 32640,
            "time": 23.720916,
            "velocity": 0.7874015748031497
          },
          {
            "duration": 0.3488370000000032,
            "durationTicks": 480,
            "midi": 59,
            "name": "B3",
            "ticks": 32640,
            "time": 23.720916,
            "velocity": 0.7874015748031497
          },
          {
            "duration": 0.3488370000000032,
            "durationTicks": 480,
            "midi": 68,
            "name": "G#4",
            "ticks": 32640,
            "time": 23.720916,
            "velocity": 0.7874015748031497
          },
          {
            "duration": 0.3488369999999996,
            "durationTicks": 480,
            "midi": 52,
            "name": "E3",
            "ticks": 33120,
            "time": 24.069753000000002,
            "velocity": 0.7874015748031497
          },
          {
            "duration": 0.3488369999999996,
            "durationTicks": 480,
            "midi": 59,
            "name": "B3",
            "ticks": 33120,
            "time": 24.069753000000002,
            "velocity": 0.7874015748031497
          },
          {
            "duration": 0.3488369999999996,
            "durationTicks": 480,
            "midi": 66,
            "name": "F#4",
            "ticks": 33120,
            "time": 24.069753000000002,
            "velocity": 0.7874015748031497
          },
          {
            "duration": 0.3488369999999996,
            "durationTicks": 480,
            "midi": 52,
            "name": "E3",
            "ticks": 33600,
            "time": 24.418590000000002,
            "velocity": 0.7874015748031497
          },
          {
            "duration": 0.3488369999999996,
            "durationTicks": 480,
            "midi": 59,
            "name": "B3",
            "ticks": 33600,
            "time": 24.418590000000002,
            "velocity": 0.7874015748031497
          },
          {
            "duration": 0.3488369999999996,
            "durationTicks": 480,
            "midi": 66,
            "name": "F#4",
            "ticks": 33600,
            "time": 24.418590000000002,
            "velocity": 0.7874015748031497
          },
          {
            "duration": 0.3488369999999996,
            "durationTicks": 480,
            "midi": 52,
            "name": "E3",
            "ticks": 34080,
            "time": 24.767427,
            "velocity": 0.7874015748031497
          },
          {
            "duration": 0.3488369999999996,
            "durationTicks": 480,
            "midi": 59,
            "name": "B3",
            "ticks": 34080,
            "time": 24.767427,
            "velocity": 0.7874015748031497
          },
          {
            "duration": 0.3488369999999996,
            "durationTicks": 480,
            "midi": 68,
            "name": "G#4",
            "ticks": 34080,
            "time": 24.767427,
            "velocity": 0.7874015748031497
          },
          {
            "duration": 0.3488369999999996,
            "durationTicks": 480,
            "midi": 52,
            "name": "E3",
            "ticks": 34560,
            "time": 25.116264,
            "velocity": 0.7874015748031497
          },
          {
            "duration": 0.3488369999999996,
            "durationTicks": 480,
            "midi": 59,
            "name": "B3",
            "ticks": 34560,
            "time": 25.116264,
            "velocity": 0.7874015748031497
          },
          {
            "duration": 0.3488369999999996,
            "durationTicks": 480,
            "midi": 68,
            "name": "G#4",
            "ticks": 34560,
            "time": 25.116264,
            "velocity": 0.7874015748031497
          },
          {
            "duration": 0.3488369999999996,
            "durationTicks": 480,
            "midi": 52,
            "name": "E3",
            "ticks": 35040,
            "time": 25.465101,
            "velocity": 0.7874015748031497
          },
          {
            "duration": 0.3488369999999996,
            "durationTicks": 480,
            "midi": 59,
            "name": "B3",
            "ticks": 35040,
            "time": 25.465101,
            "velocity": 0.7874015748031497
          },
          {
            "duration": 0.3488369999999996,
            "durationTicks": 480,
            "midi": 66,
            "name": "F#4",
            "ticks": 35040,
            "time": 25.465101,
            "velocity": 0.7874015748031497
          },
          {
            "duration": 0.3488369999999996,
            "durationTicks": 480,
            "midi": 52,
            "name": "E3",
            "ticks": 35520,
            "time": 25.813938,
            "velocity": 0.7874015748031497
          },
          {
            "duration": 0.3488369999999996,
            "durationTicks": 480,
            "midi": 59,
            "name": "B3",
            "ticks": 35520,
            "time": 25.813938,
            "velocity": 0.7874015748031497
          },
          {
            "duration": 0.3488369999999996,
            "durationTicks": 480,
            "midi": 66,
            "name": "F#4",
            "ticks": 35520,
            "time": 25.813938,
            "velocity": 0.7874015748031497
          },
          {
            "duration": 0.3488369999999996,
            "durationTicks": 480,
            "midi": 52,
            "name": "E3",
            "ticks": 36000,
            "time": 26.162775,
            "velocity": 0.7874015748031497
          },
          {
            "duration": 0.3488369999999996,
            "durationTicks": 480,
            "midi": 59,
            "name": "B3",
            "ticks": 36000,
            "time": 26.162775,
            "velocity": 0.7874015748031497
          },
          {
            "duration": 0.3488369999999996,
            "durationTicks": 480,
            "midi": 68,
            "name": "G#4",
            "ticks": 36000,
            "time": 26.162775,
            "velocity": 0.7874015748031497
          },
          {
            "duration": 0.3488369999999996,
            "durationTicks": 480,
            "midi": 52,
            "name": "E3",
            "ticks": 36480,
            "time": 26.511612,
            "velocity": 0.7874015748031497
          },
          {
            "duration": 0.3488369999999996,
            "durationTicks": 480,
            "midi": 59,
            "name": "B3",
            "ticks": 36480,
            "time": 26.511612,
            "velocity": 0.7874015748031497
          },
          {
            "duration": 0.3488369999999996,
            "durationTicks": 480,
            "midi": 66,
            "name": "F#4",
            "ticks": 36480,
            "time": 26.511612,
            "velocity": 0.7874015748031497
          },
          {
            "duration": 0.17151152499999966,
            "durationTicks": 236,
            "midi": 52,
            "name": "E3",
            "ticks": 36960,
            "time": 26.860449,
            "velocity": 0.7874015748031497
          },
          {
            "duration": 0.1744185000000016,
            "durationTicks": 240,
            "midi": 59,
            "name": "B3",
            "ticks": 36960,
            "time": 26.860449,
            "velocity": 0.7874015748031497
          },
          {
            "duration": 0.1744185000000016,
            "durationTicks": 240,
            "midi": 66,
            "name": "F#4",
            "ticks": 36960,
            "time": 26.860449,
            "velocity": 0.7874015748031497
          },
          {
            "duration": 0.3488369999999996,
            "durationTicks": 480,
            "midi": 52,
            "name": "E3",
            "ticks": 37440,
            "time": 27.209286000000002,
            "velocity": 0.7874015748031497
          },
          {
            "duration": 0.3488369999999996,
            "durationTicks": 480,
            "midi": 59,
            "name": "B3",
            "ticks": 37440,
            "time": 27.209286000000002,
            "velocity": 0.7874015748031497
          },
          {
            "duration": 0.3488369999999996,
            "durationTicks": 480,
            "midi": 66,
            "name": "F#4",
            "ticks": 37440,
            "time": 27.209286000000002,
            "velocity": 0.7874015748031497
          },
          {
            "duration": 0.3488369999999996,
            "durationTicks": 480,
            "midi": 52,
            "name": "E3",
            "ticks": 37920,
            "time": 27.558123000000002,
            "velocity": 0.7874015748031497
          },
          {
            "duration": 0.3488369999999996,
            "durationTicks": 480,
            "midi": 59,
            "name": "B3",
            "ticks": 37920,
            "time": 27.558123000000002,
            "velocity": 0.7874015748031497
          },
          {
            "duration": 0.3488369999999996,
            "durationTicks": 480,
            "midi": 66,
            "name": "F#4",
            "ticks": 37920,
            "time": 27.558123000000002,
            "velocity": 0.7874015748031497
          },
          {
            "duration": 0.3488369999999996,
            "durationTicks": 480,
            "midi": 52,
            "name": "E3",
            "ticks": 38400,
            "time": 27.90696,
            "velocity": 0.7874015748031497
          },
          {
            "duration": 0.3488369999999996,
            "durationTicks": 480,
            "midi": 59,
            "name": "B3",
            "ticks": 38400,
            "time": 27.90696,
            "velocity": 0.7874015748031497
          },
          {
            "duration": 0.3488369999999996,
            "durationTicks": 480,
            "midi": 66,
            "name": "F#4",
            "ticks": 38400,
            "time": 27.90696,
            "velocity": 0.7874015748031497
          },
          {
            "duration": 0.3488369999999996,
            "durationTicks": 480,
            "midi": 52,
            "name": "E3",
            "ticks": 38880,
            "time": 28.255797,
            "velocity": 0.7874015748031497
          },
          {
            "duration": 0.3488369999999996,
            "durationTicks": 480,
            "midi": 59,
            "name": "B3",
            "ticks": 38880,
            "time": 28.255797,
            "velocity": 0.7874015748031497
          },
          {
            "duration": 0.3488369999999996,
            "durationTicks": 480,
            "midi": 66,
            "name": "F#4",
            "ticks": 38880,
            "time": 28.255797,
            "velocity": 0.7874015748031497
          },
          {
            "duration": 0.3488369999999996,
            "durationTicks": 480,
            "midi": 52,
            "name": "E3",
            "ticks": 39360,
            "time": 28.604634,
            "velocity": 0.7874015748031497
          },
          {
            "duration": 0.3488369999999996,
            "durationTicks": 480,
            "midi": 59,
            "name": "B3",
            "ticks": 39360,
            "time": 28.604634,
            "velocity": 0.7874015748031497
          },
          {
            "duration": 0.3488369999999996,
            "durationTicks": 480,
            "midi": 66,
            "name": "F#4",
            "ticks": 39360,
            "time": 28.604634,
            "velocity": 0.7874015748031497
          },
          {
            "duration": 0.3488369999999996,
            "durationTicks": 480,
            "midi": 52,
            "name": "E3",
            "ticks": 39840,
            "time": 28.953471,
            "velocity": 0.7874015748031497
          },
          {
            "duration": 0.3488369999999996,
            "durationTicks": 480,
            "midi": 59,
            "name": "B3",
            "ticks": 39840,
            "time": 28.953471,
            "velocity": 0.7874015748031497
          },
          {
            "duration": 0.3488369999999996,
            "durationTicks": 480,
            "midi": 66,
            "name": "F#4",
            "ticks": 39840,
            "time": 28.953471,
            "velocity": 0.7874015748031497
          },
          {
            "duration": 0.3488369999999996,
            "durationTicks": 480,
            "midi": 47,
            "name": "B2",
            "ticks": 40320,
            "time": 29.302308,
            "velocity": 0.7874015748031497
          },
          {
            "duration": 0.3488369999999996,
            "durationTicks": 480,
            "midi": 54,
            "name": "F#3",
            "ticks": 40320,
            "time": 29.302308,
            "velocity": 0.7874015748031497
          },
          {
            "duration": 0.3488369999999996,
            "durationTicks": 480,
            "midi": 59,
            "name": "B3",
            "ticks": 40320,
            "time": 29.302308,
            "velocity": 0.7874015748031497
          },
          {
            "duration": 0.3488369999999996,
            "durationTicks": 480,
            "midi": 66,
            "name": "F#4",
            "ticks": 40320,
            "time": 29.302308,
            "velocity": 0.7874015748031497
          },
          {
            "duration": 0.3488369999999996,
            "durationTicks": 480,
            "midi": 47,
            "name": "B2",
            "ticks": 40800,
            "time": 29.651145,
            "velocity": 0.7874015748031497
          },
          {
            "duration": 0.3488369999999996,
            "durationTicks": 480,
            "midi": 54,
            "name": "F#3",
            "ticks": 40800,
            "time": 29.651145,
            "velocity": 0.7874015748031497
          },
          {
            "duration": 0.3488369999999996,
            "durationTicks": 480,
            "midi": 59,
            "name": "B3",
            "ticks": 40800,
            "time": 29.651145,
            "velocity": 0.7874015748031497
          },
          {
            "duration": 0.3488369999999996,
            "durationTicks": 480,
            "midi": 66,
            "name": "F#4",
            "ticks": 40800,
            "time": 29.651145,
            "velocity": 0.7874015748031497
          },
          {
            "duration": 0.3488370000000032,
            "durationTicks": 480,
            "midi": 47,
            "name": "B2",
            "ticks": 41280,
            "time": 29.999982,
            "velocity": 0.7874015748031497
          },
          {
            "duration": 0.3488370000000032,
            "durationTicks": 480,
            "midi": 54,
            "name": "F#3",
            "ticks": 41280,
            "time": 29.999982,
            "velocity": 0.7874015748031497
          },
          {
            "duration": 0.3488370000000032,
            "durationTicks": 480,
            "midi": 59,
            "name": "B3",
            "ticks": 41280,
            "time": 29.999982,
            "velocity": 0.7874015748031497
          },
          {
            "duration": 0.3488370000000032,
            "durationTicks": 480,
            "midi": 66,
            "name": "F#4",
            "ticks": 41280,
            "time": 29.999982,
            "velocity": 0.7874015748031497
          },
          {
            "duration": 0.3488369999999996,
            "durationTicks": 480,
            "midi": 47,
            "name": "B2",
            "ticks": 41760,
            "time": 30.348819000000002,
            "velocity": 0.7874015748031497
          },
          {
            "duration": 0.3488369999999996,
            "durationTicks": 480,
            "midi": 54,
            "name": "F#3",
            "ticks": 41760,
            "time": 30.348819000000002,
            "velocity": 0.7874015748031497
          },
          {
            "duration": 0.3488369999999996,
            "durationTicks": 480,
            "midi": 59,
            "name": "B3",
            "ticks": 41760,
            "time": 30.348819000000002,
            "velocity": 0.7874015748031497
          },
          {
            "duration": 0.3488369999999996,
            "durationTicks": 480,
            "midi": 66,
            "name": "F#4",
            "ticks": 41760,
            "time": 30.348819000000002,
            "velocity": 0.7874015748031497
          },
          {
            "duration": 0.3488369999999996,
            "durationTicks": 480,
            "midi": 47,
            "name": "B2",
            "ticks": 42240,
            "time": 30.697656000000002,
            "velocity": 0.7874015748031497
          },
          {
            "duration": 0.3488369999999996,
            "durationTicks": 480,
            "midi": 54,
            "name": "F#3",
            "ticks": 42240,
            "time": 30.697656000000002,
            "velocity": 0.7874015748031497
          },
          {
            "duration": 0.3488369999999996,
            "durationTicks": 480,
            "midi": 59,
            "name": "B3",
            "ticks": 42240,
            "time": 30.697656000000002,
            "velocity": 0.7874015748031497
          },
          {
            "duration": 0.3488369999999996,
            "durationTicks": 480,
            "midi": 66,
            "name": "F#4",
            "ticks": 42240,
            "time": 30.697656000000002,
            "velocity": 0.7874015748031497
          },
          {
            "duration": 0.3488369999999996,
            "durationTicks": 480,
            "midi": 47,
            "name": "B2",
            "ticks": 42720,
            "time": 31.046493,
            "velocity": 0.7874015748031497
          },
          {
            "duration": 0.3488369999999996,
            "durationTicks": 480,
            "midi": 54,
            "name": "F#3",
            "ticks": 42720,
            "time": 31.046493,
            "velocity": 0.7874015748031497
          },
          {
            "duration": 0.3488369999999996,
            "durationTicks": 480,
            "midi": 59,
            "name": "B3",
            "ticks": 42720,
            "time": 31.046493,
            "velocity": 0.7874015748031497
          },
          {
            "duration": 0.3488369999999996,
            "durationTicks": 480,
            "midi": 66,
            "name": "F#4",
            "ticks": 42720,
            "time": 31.046493,
            "velocity": 0.7874015748031497
          },
          {
            "duration": 0.3488369999999996,
            "durationTicks": 480,
            "midi": 47,
            "name": "B2",
            "ticks": 43200,
            "time": 31.39533,
            "velocity": 0.7874015748031497
          },
          {
            "duration": 0.3488369999999996,
            "durationTicks": 480,
            "midi": 54,
            "name": "F#3",
            "ticks": 43200,
            "time": 31.39533,
            "velocity": 0.7874015748031497
          },
          {
            "duration": 0.3488369999999996,
            "durationTicks": 480,
            "midi": 59,
            "name": "B3",
            "ticks": 43200,
            "time": 31.39533,
            "velocity": 0.7874015748031497
          },
          {
            "duration": 0.3488369999999996,
            "durationTicks": 480,
            "midi": 66,
            "name": "F#4",
            "ticks": 43200,
            "time": 31.39533,
            "velocity": 0.7874015748031497
          },
          {
            "duration": 0.3488369999999996,
            "durationTicks": 480,
            "midi": 47,
            "name": "B2",
            "ticks": 43680,
            "time": 31.744167,
            "velocity": 0.7874015748031497
          },
          {
            "duration": 0.3488369999999996,
            "durationTicks": 480,
            "midi": 54,
            "name": "F#3",
            "ticks": 43680,
            "time": 31.744167,
            "velocity": 0.7874015748031497
          },
          {
            "duration": 0.3488369999999996,
            "durationTicks": 480,
            "midi": 59,
            "name": "B3",
            "ticks": 43680,
            "time": 31.744167,
            "velocity": 0.7874015748031497
          },
          {
            "duration": 0.3488369999999996,
            "durationTicks": 480,
            "midi": 66,
            "name": "F#4",
            "ticks": 43680,
            "time": 31.744167,
            "velocity": 0.7874015748031497
          },
          {
            "duration": 0.3488370000000032,
            "durationTicks": 480,
            "midi": 47,
            "name": "B2",
            "ticks": 44160,
            "time": 32.093004,
            "velocity": 0.7874015748031497
          },
          {
            "duration": 0.3488370000000032,
            "durationTicks": 480,
            "midi": 54,
            "name": "F#3",
            "ticks": 44160,
            "time": 32.093004,
            "velocity": 0.7874015748031497
          },
          {
            "duration": 0.3488370000000032,
            "durationTicks": 480,
            "midi": 59,
            "name": "B3",
            "ticks": 44160,
            "time": 32.093004,
            "velocity": 0.7874015748031497
          },
          {
            "duration": 0.3488370000000032,
            "durationTicks": 480,
            "midi": 66,
            "name": "F#4",
            "ticks": 44160,
            "time": 32.093004,
            "velocity": 0.7874015748031497
          },
          {
            "duration": 0.34883699999999607,
            "durationTicks": 480,
            "midi": 47,
            "name": "B2",
            "ticks": 44640,
            "time": 32.441841000000004,
            "velocity": 0.7874015748031497
          },
          {
            "duration": 0.34883699999999607,
            "durationTicks": 480,
            "midi": 54,
            "name": "F#3",
            "ticks": 44640,
            "time": 32.441841000000004,
            "velocity": 0.7874015748031497
          },
          {
            "duration": 0.34883699999999607,
            "durationTicks": 480,
            "midi": 59,
            "name": "B3",
            "ticks": 44640,
            "time": 32.441841000000004,
            "velocity": 0.7874015748031497
          },
          {
            "duration": 0.34883699999999607,
            "durationTicks": 480,
            "midi": 66,
            "name": "F#4",
            "ticks": 44640,
            "time": 32.441841000000004,
            "velocity": 0.7874015748031497
          },
          {
            "duration": 0.3488370000000032,
            "durationTicks": 480,
            "midi": 47,
            "name": "B2",
            "ticks": 45120,
            "time": 32.790678,
            "velocity": 0.7874015748031497
          },
          {
            "duration": 0.3488370000000032,
            "durationTicks": 480,
            "midi": 54,
            "name": "F#3",
            "ticks": 45120,
            "time": 32.790678,
            "velocity": 0.7874015748031497
          },
          {
            "duration": 0.3488370000000032,
            "durationTicks": 480,
            "midi": 59,
            "name": "B3",
            "ticks": 45120,
            "time": 32.790678,
            "velocity": 0.7874015748031497
          },
          {
            "duration": 0.3488370000000032,
            "durationTicks": 480,
            "midi": 66,
            "name": "F#4",
            "ticks": 45120,
            "time": 32.790678,
            "velocity": 0.7874015748031497
          },
          {
            "duration": 0.34883699999999607,
            "durationTicks": 480,
            "midi": 47,
            "name": "B2",
            "ticks": 45600,
            "time": 33.139515,
            "velocity": 0.7874015748031497
          },
          {
            "duration": 0.34883699999999607,
            "durationTicks": 480,
            "midi": 54,
            "name": "F#3",
            "ticks": 45600,
            "time": 33.139515,
            "velocity": 0.7874015748031497
          },
          {
            "duration": 0.34883699999999607,
            "durationTicks": 480,
            "midi": 59,
            "name": "B3",
            "ticks": 45600,
            "time": 33.139515,
            "velocity": 0.7874015748031497
          },
          {
            "duration": 0.34883699999999607,
            "durationTicks": 480,
            "midi": 66,
            "name": "F#4",
            "ticks": 45600,
            "time": 33.139515,
            "velocity": 0.7874015748031497
          },
          {
            "duration": 0.3488370000000032,
            "durationTicks": 480,
            "midi": 47,
            "name": "B2",
            "ticks": 46080,
            "time": 33.488352,
            "velocity": 0.7874015748031497
          },
          {
            "duration": 0.3488370000000032,
            "durationTicks": 480,
            "midi": 54,
            "name": "F#3",
            "ticks": 46080,
            "time": 33.488352,
            "velocity": 0.7874015748031497
          },
          {
            "duration": 0.3488370000000032,
            "durationTicks": 480,
            "midi": 59,
            "name": "B3",
            "ticks": 46080,
            "time": 33.488352,
            "velocity": 0.7874015748031497
          },
          {
            "duration": 0.3488370000000032,
            "durationTicks": 480,
            "midi": 66,
            "name": "F#4",
            "ticks": 46080,
            "time": 33.488352,
            "velocity": 0.7874015748031497
          },
          {
            "duration": 0.34883699999999607,
            "durationTicks": 480,
            "midi": 47,
            "name": "B2",
            "ticks": 46560,
            "time": 33.837189,
            "velocity": 0.7874015748031497
          },
          {
            "duration": 0.34883699999999607,
            "durationTicks": 480,
            "midi": 54,
            "name": "F#3",
            "ticks": 46560,
            "time": 33.837189,
            "velocity": 0.7874015748031497
          },
          {
            "duration": 0.34883699999999607,
            "durationTicks": 480,
            "midi": 59,
            "name": "B3",
            "ticks": 46560,
            "time": 33.837189,
            "velocity": 0.7874015748031497
          },
          {
            "duration": 0.34883699999999607,
            "durationTicks": 480,
            "midi": 66,
            "name": "F#4",
            "ticks": 46560,
            "time": 33.837189,
            "velocity": 0.7874015748031497
          },
          {
            "duration": 0.3488370000000032,
            "durationTicks": 480,
            "midi": 47,
            "name": "B2",
            "ticks": 47040,
            "time": 34.186026,
            "velocity": 0.7874015748031497
          },
          {
            "duration": 0.3488370000000032,
            "durationTicks": 480,
            "midi": 54,
            "name": "F#3",
            "ticks": 47040,
            "time": 34.186026,
            "velocity": 0.7874015748031497
          },
          {
            "duration": 0.3488370000000032,
            "durationTicks": 480,
            "midi": 59,
            "name": "B3",
            "ticks": 47040,
            "time": 34.186026,
            "velocity": 0.7874015748031497
          },
          {
            "duration": 0.3488370000000032,
            "durationTicks": 480,
            "midi": 66,
            "name": "F#4",
            "ticks": 47040,
            "time": 34.186026,
            "velocity": 0.7874015748031497
          },
          {
            "duration": 0.34883699999999607,
            "durationTicks": 480,
            "midi": 47,
            "name": "B2",
            "ticks": 47520,
            "time": 34.534863,
            "velocity": 0.7874015748031497
          },
          {
            "duration": 0.34883699999999607,
            "durationTicks": 480,
            "midi": 54,
            "name": "F#3",
            "ticks": 47520,
            "time": 34.534863,
            "velocity": 0.7874015748031497
          },
          {
            "duration": 0.34883699999999607,
            "durationTicks": 480,
            "midi": 59,
            "name": "B3",
            "ticks": 47520,
            "time": 34.534863,
            "velocity": 0.7874015748031497
          },
          {
            "duration": 0.34883699999999607,
            "durationTicks": 480,
            "midi": 66,
            "name": "F#4",
            "ticks": 47520,
            "time": 34.534863,
            "velocity": 0.7874015748031497
          },
          {
            "duration": 0.3488370000000032,
            "durationTicks": 480,
            "midi": 54,
            "name": "F#3",
            "ticks": 155520,
            "time": 113.023188,
            "velocity": 0.7874015748031497
          },
          {
            "duration": 0.3488370000000032,
            "durationTicks": 480,
            "midi": 59,
            "name": "B3",
            "ticks": 155520,
            "time": 113.023188,
            "velocity": 0.7874015748031497
          },
          {
            "duration": 0.3488370000000032,
            "durationTicks": 480,
            "midi": 66,
            "name": "F#4",
            "ticks": 155520,
            "time": 113.023188,
            "velocity": 0.7874015748031497
          },
          {
            "duration": 0.3488370000000032,
            "durationTicks": 480,
            "midi": 71,
            "name": "B4",
            "ticks": 155520,
            "time": 113.023188,
            "velocity": 0.7874015748031497
          },
          {
            "duration": 0.34883699999998896,
            "durationTicks": 480,
            "midi": 54,
            "name": "F#3",
            "ticks": 156000,
            "time": 113.37202500000001,
            "velocity": 0.7874015748031497
          },
          {
            "duration": 0.34883699999998896,
            "durationTicks": 480,
            "midi": 59,
            "name": "B3",
            "ticks": 156000,
            "time": 113.37202500000001,
            "velocity": 0.7874015748031497
          },
          {
            "duration": 0.34883699999998896,
            "durationTicks": 480,
            "midi": 66,
            "name": "F#4",
            "ticks": 156000,
            "time": 113.37202500000001,
            "velocity": 0.7874015748031497
          },
          {
            "duration": 0.34883699999998896,
            "durationTicks": 480,
            "midi": 71,
            "name": "B4",
            "ticks": 156000,
            "time": 113.37202500000001,
            "velocity": 0.7874015748031497
          },
          {
            "duration": 0.3488370000000032,
            "durationTicks": 480,
            "midi": 54,
            "name": "F#3",
            "ticks": 156480,
            "time": 113.720862,
            "velocity": 0.7874015748031497
          },
          {
            "duration": 0.3488370000000032,
            "durationTicks": 480,
            "midi": 59,
            "name": "B3",
            "ticks": 156480,
            "time": 113.720862,
            "velocity": 0.7874015748031497
          },
          {
            "duration": 0.3488370000000032,
            "durationTicks": 480,
            "midi": 66,
            "name": "F#4",
            "ticks": 156480,
            "time": 113.720862,
            "velocity": 0.7874015748031497
          },
          {
            "duration": 0.3488370000000032,
            "durationTicks": 480,
            "midi": 71,
            "name": "B4",
            "ticks": 156480,
            "time": 113.720862,
            "velocity": 0.7874015748031497
          },
          {
            "duration": 0.3488370000000032,
            "durationTicks": 480,
            "midi": 54,
            "name": "F#3",
            "ticks": 156960,
            "time": 114.069699,
            "velocity": 0.7874015748031497
          },
          {
            "duration": 0.3488370000000032,
            "durationTicks": 480,
            "midi": 59,
            "name": "B3",
            "ticks": 156960,
            "time": 114.069699,
            "velocity": 0.7874015748031497
          },
          {
            "duration": 0.3488370000000032,
            "durationTicks": 480,
            "midi": 66,
            "name": "F#4",
            "ticks": 156960,
            "time": 114.069699,
            "velocity": 0.7874015748031497
          },
          {
            "duration": 0.3488370000000032,
            "durationTicks": 480,
            "midi": 71,
            "name": "B4",
            "ticks": 156960,
            "time": 114.069699,
            "velocity": 0.7874015748031497
          },
          {
            "duration": 0.3488370000000032,
            "durationTicks": 480,
            "midi": 54,
            "name": "F#3",
            "ticks": 157440,
            "time": 114.418536,
            "velocity": 0.7874015748031497
          },
          {
            "duration": 0.3488370000000032,
            "durationTicks": 480,
            "midi": 59,
            "name": "B3",
            "ticks": 157440,
            "time": 114.418536,
            "velocity": 0.7874015748031497
          },
          {
            "duration": 0.3488370000000032,
            "durationTicks": 480,
            "midi": 66,
            "name": "F#4",
            "ticks": 157440,
            "time": 114.418536,
            "velocity": 0.7874015748031497
          },
          {
            "duration": 0.3488370000000032,
            "durationTicks": 480,
            "midi": 71,
            "name": "B4",
            "ticks": 157440,
            "time": 114.418536,
            "velocity": 0.7874015748031497
          },
          {
            "duration": 0.3488370000000032,
            "durationTicks": 480,
            "midi": 54,
            "name": "F#3",
            "ticks": 157920,
            "time": 114.767373,
            "velocity": 0.7874015748031497
          },
          {
            "duration": 0.3488370000000032,
            "durationTicks": 480,
            "midi": 59,
            "name": "B3",
            "ticks": 157920,
            "time": 114.767373,
            "velocity": 0.7874015748031497
          },
          {
            "duration": 0.3488370000000032,
            "durationTicks": 480,
            "midi": 66,
            "name": "F#4",
            "ticks": 157920,
            "time": 114.767373,
            "velocity": 0.7874015748031497
          },
          {
            "duration": 0.3488370000000032,
            "durationTicks": 480,
            "midi": 71,
            "name": "B4",
            "ticks": 157920,
            "time": 114.767373,
            "velocity": 0.7874015748031497
          },
          {
            "duration": 0.34883699999998896,
            "durationTicks": 480,
            "midi": 54,
            "name": "F#3",
            "ticks": 158400,
            "time": 115.11621000000001,
            "velocity": 0.7874015748031497
          },
          {
            "duration": 0.34883699999998896,
            "durationTicks": 480,
            "midi": 59,
            "name": "B3",
            "ticks": 158400,
            "time": 115.11621000000001,
            "velocity": 0.7874015748031497
          },
          {
            "duration": 0.34883699999998896,
            "durationTicks": 480,
            "midi": 66,
            "name": "F#4",
            "ticks": 158400,
            "time": 115.11621000000001,
            "velocity": 0.7874015748031497
          },
          {
            "duration": 0.34883699999998896,
            "durationTicks": 480,
            "midi": 71,
            "name": "B4",
            "ticks": 158400,
            "time": 115.11621000000001,
            "velocity": 0.7874015748031497
          },
          {
            "duration": 0.3488370000000032,
            "durationTicks": 480,
            "midi": 54,
            "name": "F#3",
            "ticks": 158880,
            "time": 115.465047,
            "velocity": 0.7874015748031497
          },
          {
            "duration": 0.3488370000000032,
            "durationTicks": 480,
            "midi": 59,
            "name": "B3",
            "ticks": 158880,
            "time": 115.465047,
            "velocity": 0.7874015748031497
          },
          {
            "duration": 0.3488370000000032,
            "durationTicks": 480,
            "midi": 66,
            "name": "F#4",
            "ticks": 158880,
            "time": 115.465047,
            "velocity": 0.7874015748031497
          },
          {
            "duration": 0.3488370000000032,
            "durationTicks": 480,
            "midi": 71,
            "name": "B4",
            "ticks": 158880,
            "time": 115.465047,
            "velocity": 0.7874015748031497
          },
          {
            "duration": 0.3488370000000032,
            "durationTicks": 480,
            "midi": 54,
            "name": "F#3",
            "ticks": 159360,
            "time": 115.813884,
            "velocity": 0.7874015748031497
          },
          {
            "duration": 0.3488370000000032,
            "durationTicks": 480,
            "midi": 59,
            "name": "B3",
            "ticks": 159360,
            "time": 115.813884,
            "velocity": 0.7874015748031497
          },
          {
            "duration": 0.3488370000000032,
            "durationTicks": 480,
            "midi": 66,
            "name": "F#4",
            "ticks": 159360,
            "time": 115.813884,
            "velocity": 0.7874015748031497
          },
          {
            "duration": 0.3488370000000032,
            "durationTicks": 480,
            "midi": 71,
            "name": "B4",
            "ticks": 159360,
            "time": 115.813884,
            "velocity": 0.7874015748031497
          },
          {
            "duration": 0.3488370000000032,
            "durationTicks": 480,
            "midi": 54,
            "name": "F#3",
            "ticks": 159840,
            "time": 116.162721,
            "velocity": 0.7874015748031497
          },
          {
            "duration": 0.3488370000000032,
            "durationTicks": 480,
            "midi": 59,
            "name": "B3",
            "ticks": 159840,
            "time": 116.162721,
            "velocity": 0.7874015748031497
          },
          {
            "duration": 0.3488370000000032,
            "durationTicks": 480,
            "midi": 66,
            "name": "F#4",
            "ticks": 159840,
            "time": 116.162721,
            "velocity": 0.7874015748031497
          },
          {
            "duration": 0.3488370000000032,
            "durationTicks": 480,
            "midi": 71,
            "name": "B4",
            "ticks": 159840,
            "time": 116.162721,
            "velocity": 0.7874015748031497
          },
          {
            "duration": 0.34883699999998896,
            "durationTicks": 480,
            "midi": 54,
            "name": "F#3",
            "ticks": 160320,
            "time": 116.51155800000001,
            "velocity": 0.7874015748031497
          },
          {
            "duration": 0.34883699999998896,
            "durationTicks": 480,
            "midi": 59,
            "name": "B3",
            "ticks": 160320,
            "time": 116.51155800000001,
            "velocity": 0.7874015748031497
          },
          {
            "duration": 0.34883699999998896,
            "durationTicks": 480,
            "midi": 66,
            "name": "F#4",
            "ticks": 160320,
            "time": 116.51155800000001,
            "velocity": 0.7874015748031497
          },
          {
            "duration": 0.34883699999998896,
            "durationTicks": 480,
            "midi": 71,
            "name": "B4",
            "ticks": 160320,
            "time": 116.51155800000001,
            "velocity": 0.7874015748031497
          },
          {
            "duration": 0.3488370000000032,
            "durationTicks": 480,
            "midi": 54,
            "name": "F#3",
            "ticks": 160800,
            "time": 116.860395,
            "velocity": 0.7874015748031497
          },
          {
            "duration": 0.3488370000000032,
            "durationTicks": 480,
            "midi": 59,
            "name": "B3",
            "ticks": 160800,
            "time": 116.860395,
            "velocity": 0.7874015748031497
          },
          {
            "duration": 0.3488370000000032,
            "durationTicks": 480,
            "midi": 66,
            "name": "F#4",
            "ticks": 160800,
            "time": 116.860395,
            "velocity": 0.7874015748031497
          },
          {
            "duration": 0.3488370000000032,
            "durationTicks": 480,
            "midi": 71,
            "name": "B4",
            "ticks": 160800,
            "time": 116.860395,
            "velocity": 0.7874015748031497
          },
          {
            "duration": 0.3488370000000032,
            "durationTicks": 480,
            "midi": 54,
            "name": "F#3",
            "ticks": 161280,
            "time": 117.209232,
            "velocity": 0.7874015748031497
          },
          {
            "duration": 0.3488370000000032,
            "durationTicks": 480,
            "midi": 59,
            "name": "B3",
            "ticks": 161280,
            "time": 117.209232,
            "velocity": 0.7874015748031497
          },
          {
            "duration": 0.3488370000000032,
            "durationTicks": 480,
            "midi": 66,
            "name": "F#4",
            "ticks": 161280,
            "time": 117.209232,
            "velocity": 0.7874015748031497
          },
          {
            "duration": 0.3488370000000032,
            "durationTicks": 480,
            "midi": 71,
            "name": "B4",
            "ticks": 161280,
            "time": 117.209232,
            "velocity": 0.7874015748031497
          },
          {
            "duration": 0.3488370000000032,
            "durationTicks": 480,
            "midi": 54,
            "name": "F#3",
            "ticks": 161760,
            "time": 117.558069,
            "velocity": 0.7874015748031497
          },
          {
            "duration": 0.3488370000000032,
            "durationTicks": 480,
            "midi": 59,
            "name": "B3",
            "ticks": 161760,
            "time": 117.558069,
            "velocity": 0.7874015748031497
          },
          {
            "duration": 0.3488370000000032,
            "durationTicks": 480,
            "midi": 66,
            "name": "F#4",
            "ticks": 161760,
            "time": 117.558069,
            "velocity": 0.7874015748031497
          },
          {
            "duration": 0.3488370000000032,
            "durationTicks": 480,
            "midi": 71,
            "name": "B4",
            "ticks": 161760,
            "time": 117.558069,
            "velocity": 0.7874015748031497
          },
          {
            "duration": 0.3488370000000032,
            "durationTicks": 480,
            "midi": 54,
            "name": "F#3",
            "ticks": 162240,
            "time": 117.906906,
            "velocity": 0.7874015748031497
          },
          {
            "duration": 0.3488370000000032,
            "durationTicks": 480,
            "midi": 59,
            "name": "B3",
            "ticks": 162240,
            "time": 117.906906,
            "velocity": 0.7874015748031497
          },
          {
            "duration": 0.3488370000000032,
            "durationTicks": 480,
            "midi": 66,
            "name": "F#4",
            "ticks": 162240,
            "time": 117.906906,
            "velocity": 0.7874015748031497
          },
          {
            "duration": 0.3488370000000032,
            "durationTicks": 480,
            "midi": 71,
            "name": "B4",
            "ticks": 162240,
            "time": 117.906906,
            "velocity": 0.7874015748031497
          },
          {
            "duration": 0.34883699999998896,
            "durationTicks": 480,
            "midi": 54,
            "name": "F#3",
            "ticks": 162720,
            "time": 118.25574300000001,
            "velocity": 0.7874015748031497
          },
          {
            "duration": 0.34883699999998896,
            "durationTicks": 480,
            "midi": 59,
            "name": "B3",
            "ticks": 162720,
            "time": 118.25574300000001,
            "velocity": 0.7874015748031497
          },
          {
            "duration": 0.34883699999998896,
            "durationTicks": 480,
            "midi": 66,
            "name": "F#4",
            "ticks": 162720,
            "time": 118.25574300000001,
            "velocity": 0.7874015748031497
          },
          {
            "duration": 0.34883699999998896,
            "durationTicks": 480,
            "midi": 71,
            "name": "B4",
            "ticks": 162720,
            "time": 118.25574300000001,
            "velocity": 0.7874015748031497
          },
          {
            "duration": 0.3488370000000032,
            "durationTicks": 480,
            "midi": 54,
            "name": "F#3",
            "ticks": 163200,
            "time": 118.60458,
            "velocity": 0.7874015748031497
          },
          {
            "duration": 0.3488370000000032,
            "durationTicks": 480,
            "midi": 61,
            "name": "C#4",
            "ticks": 163200,
            "time": 118.60458,
            "velocity": 0.7874015748031497
          },
          {
            "duration": 0.3488370000000032,
            "durationTicks": 480,
            "midi": 66,
            "name": "F#4",
            "ticks": 163200,
            "time": 118.60458,
            "velocity": 0.7874015748031497
          },
          {
            "duration": 0.3488370000000032,
            "durationTicks": 480,
            "midi": 54,
            "name": "F#3",
            "ticks": 163680,
            "time": 118.953417,
            "velocity": 0.7874015748031497
          },
          {
            "duration": 0.3488370000000032,
            "durationTicks": 480,
            "midi": 59,
            "name": "B3",
            "ticks": 163680,
            "time": 118.953417,
            "velocity": 0.7874015748031497
          },
          {
            "duration": 0.3488370000000032,
            "durationTicks": 480,
            "midi": 66,
            "name": "F#4",
            "ticks": 163680,
            "time": 118.953417,
            "velocity": 0.7874015748031497
          },
          {
            "duration": 0.3488370000000032,
            "durationTicks": 480,
            "midi": 54,
            "name": "F#3",
            "ticks": 164160,
            "time": 119.302254,
            "velocity": 0.7874015748031497
          },
          {
            "duration": 0.3488370000000032,
            "durationTicks": 480,
            "midi": 61,
            "name": "C#4",
            "ticks": 164160,
            "time": 119.302254,
            "velocity": 0.7874015748031497
          },
          {
            "duration": 0.3488370000000032,
            "durationTicks": 480,
            "midi": 66,
            "name": "F#4",
            "ticks": 164160,
            "time": 119.302254,
            "velocity": 0.7874015748031497
          },
          {
            "duration": 0.34883699999998896,
            "durationTicks": 480,
            "midi": 54,
            "name": "F#3",
            "ticks": 164640,
            "time": 119.65109100000001,
            "velocity": 0.7874015748031497
          },
          {
            "duration": 0.34883699999998896,
            "durationTicks": 480,
            "midi": 59,
            "name": "B3",
            "ticks": 164640,
            "time": 119.65109100000001,
            "velocity": 0.7874015748031497
          },
          {
            "duration": 0.34883699999998896,
            "durationTicks": 480,
            "midi": 66,
            "name": "F#4",
            "ticks": 164640,
            "time": 119.65109100000001,
            "velocity": 0.7874015748031497
          },
          {
            "duration": 0.3488370000000032,
            "durationTicks": 480,
            "midi": 54,
            "name": "F#3",
            "ticks": 165120,
            "time": 119.999928,
            "velocity": 0.7874015748031497
          },
          {
            "duration": 0.3488370000000032,
            "durationTicks": 480,
            "midi": 61,
            "name": "C#4",
            "ticks": 165120,
            "time": 119.999928,
            "velocity": 0.7874015748031497
          },
          {
            "duration": 0.3488370000000032,
            "durationTicks": 480,
            "midi": 66,
            "name": "F#4",
            "ticks": 165120,
            "time": 119.999928,
            "velocity": 0.7874015748031497
          },
          {
            "duration": 0.3488370000000032,
            "durationTicks": 480,
            "midi": 54,
            "name": "F#3",
            "ticks": 165600,
            "time": 120.348765,
            "velocity": 0.7874015748031497
          },
          {
            "duration": 0.3488370000000032,
            "durationTicks": 480,
            "midi": 59,
            "name": "B3",
            "ticks": 165600,
            "time": 120.348765,
            "velocity": 0.7874015748031497
          },
          {
            "duration": 0.3488370000000032,
            "durationTicks": 480,
            "midi": 66,
            "name": "F#4",
            "ticks": 165600,
            "time": 120.348765,
            "velocity": 0.7874015748031497
          },
          {
            "duration": 0.3488370000000032,
            "durationTicks": 480,
            "midi": 54,
            "name": "F#3",
            "ticks": 166080,
            "time": 120.697602,
            "velocity": 0.7874015748031497
          },
          {
            "duration": 0.3488370000000032,
            "durationTicks": 480,
            "midi": 61,
            "name": "C#4",
            "ticks": 166080,
            "time": 120.697602,
            "velocity": 0.7874015748031497
          },
          {
            "duration": 0.3488370000000032,
            "durationTicks": 480,
            "midi": 66,
            "name": "F#4",
            "ticks": 166080,
            "time": 120.697602,
            "velocity": 0.7874015748031497
          },
          {
            "duration": 0.3488370000000032,
            "durationTicks": 480,
            "midi": 54,
            "name": "F#3",
            "ticks": 166560,
            "time": 121.046439,
            "velocity": 0.7874015748031497
          },
          {
            "duration": 0.3488370000000032,
            "durationTicks": 480,
            "midi": 59,
            "name": "B3",
            "ticks": 166560,
            "time": 121.046439,
            "velocity": 0.7874015748031497
          },
          {
            "duration": 0.3488370000000032,
            "durationTicks": 480,
            "midi": 66,
            "name": "F#4",
            "ticks": 166560,
            "time": 121.046439,
            "velocity": 0.7874015748031497
          },
          {
            "duration": 0.34883699999998896,
            "durationTicks": 480,
            "midi": 54,
            "name": "F#3",
            "ticks": 167040,
            "time": 121.39527600000001,
            "velocity": 0.7874015748031497
          },
          {
            "duration": 0.34883699999998896,
            "durationTicks": 480,
            "midi": 59,
            "name": "B3",
            "ticks": 167040,
            "time": 121.39527600000001,
            "velocity": 0.7874015748031497
          },
          {
            "duration": 0.34883699999998896,
            "durationTicks": 480,
            "midi": 66,
            "name": "F#4",
            "ticks": 167040,
            "time": 121.39527600000001,
            "velocity": 0.7874015748031497
          },
          {
            "duration": 0.3488370000000032,
            "durationTicks": 480,
            "midi": 54,
            "name": "F#3",
            "ticks": 167520,
            "time": 121.744113,
            "velocity": 0.7874015748031497
          },
          {
            "duration": 0.3488370000000032,
            "durationTicks": 480,
            "midi": 59,
            "name": "B3",
            "ticks": 167520,
            "time": 121.744113,
            "velocity": 0.7874015748031497
          },
          {
            "duration": 0.3488370000000032,
            "durationTicks": 480,
            "midi": 66,
            "name": "F#4",
            "ticks": 167520,
            "time": 121.744113,
            "velocity": 0.7874015748031497
          },
          {
            "duration": 0.3488370000000032,
            "durationTicks": 480,
            "midi": 54,
            "name": "F#3",
            "ticks": 168000,
            "time": 122.09295,
            "velocity": 0.7874015748031497
          },
          {
            "duration": 0.3488370000000032,
            "durationTicks": 480,
            "midi": 59,
            "name": "B3",
            "ticks": 168000,
            "time": 122.09295,
            "velocity": 0.7874015748031497
          },
          {
            "duration": 0.3488370000000032,
            "durationTicks": 480,
            "midi": 66,
            "name": "F#4",
            "ticks": 168000,
            "time": 122.09295,
            "velocity": 0.7874015748031497
          },
          {
            "duration": 0.3488370000000032,
            "durationTicks": 480,
            "midi": 54,
            "name": "F#3",
            "ticks": 168480,
            "time": 122.441787,
            "velocity": 0.7874015748031497
          },
          {
            "duration": 0.3488370000000032,
            "durationTicks": 480,
            "midi": 59,
            "name": "B3",
            "ticks": 168480,
            "time": 122.441787,
            "velocity": 0.7874015748031497
          },
          {
            "duration": 0.3488370000000032,
            "durationTicks": 480,
            "midi": 66,
            "name": "F#4",
            "ticks": 168480,
            "time": 122.441787,
            "velocity": 0.7874015748031497
          },
          {
            "duration": 0.34883699999998896,
            "durationTicks": 480,
            "midi": 54,
            "name": "F#3",
            "ticks": 168960,
            "time": 122.79062400000001,
            "velocity": 0.7874015748031497
          },
          {
            "duration": 0.3517439749999909,
            "durationTicks": 484,
            "midi": 59,
            "name": "B3",
            "ticks": 168960,
            "time": 122.79062400000001,
            "velocity": 0.7874015748031497
          },
          {
            "duration": 0.34883699999998896,
            "durationTicks": 480,
            "midi": 66,
            "name": "F#4",
            "ticks": 168960,
            "time": 122.79062400000001,
            "velocity": 0.7874015748031497
          },
          {
            "duration": 0.3488370000000032,
            "durationTicks": 480,
            "midi": 54,
            "name": "F#3",
            "ticks": 169440,
            "time": 123.139461,
            "velocity": 0.7874015748031497
          },
          {
            "duration": 0.3488370000000032,
            "durationTicks": 480,
            "midi": 59,
            "name": "B3",
            "ticks": 169440,
            "time": 123.139461,
            "velocity": 0.7874015748031497
          },
          {
            "duration": 0.3488370000000032,
            "durationTicks": 480,
            "midi": 66,
            "name": "F#4",
            "ticks": 169440,
            "time": 123.139461,
            "velocity": 0.7874015748031497
          },
          {
            "duration": 0.3488370000000032,
            "durationTicks": 480,
            "midi": 54,
            "name": "F#3",
            "ticks": 169920,
            "time": 123.488298,
            "velocity": 0.7874015748031497
          },
          {
            "duration": 0.3488370000000032,
            "durationTicks": 480,
            "midi": 59,
            "name": "B3",
            "ticks": 169920,
            "time": 123.488298,
            "velocity": 0.7874015748031497
          },
          {
            "duration": 0.3488370000000032,
            "durationTicks": 480,
            "midi": 66,
            "name": "F#4",
            "ticks": 169920,
            "time": 123.488298,
            "velocity": 0.7874015748031497
          },
          {
            "duration": 0.3488370000000032,
            "durationTicks": 480,
            "midi": 54,
            "name": "F#3",
            "ticks": 170400,
            "time": 123.837135,
            "velocity": 0.7874015748031497
          },
          {
            "duration": 0.3488370000000032,
            "durationTicks": 480,
            "midi": 59,
            "name": "B3",
            "ticks": 170400,
            "time": 123.837135,
            "velocity": 0.7874015748031497
          },
          {
            "duration": 0.3488370000000032,
            "durationTicks": 480,
            "midi": 66,
            "name": "F#4",
            "ticks": 170400,
            "time": 123.837135,
            "velocity": 0.7874015748031497
          },
          {
            "duration": 0.3488370000000032,
            "durationTicks": 480,
            "midi": 52,
            "name": "E3",
            "ticks": 170880,
            "time": 124.185972,
            "velocity": 0.7874015748031497
          },
          {
            "duration": 0.3488370000000032,
            "durationTicks": 480,
            "midi": 59,
            "name": "B3",
            "ticks": 170880,
            "time": 124.185972,
            "velocity": 0.7874015748031497
          },
          {
            "duration": 0.3488370000000032,
            "durationTicks": 480,
            "midi": 68,
            "name": "G#4",
            "ticks": 170880,
            "time": 124.185972,
            "velocity": 0.7874015748031497
          },
          {
            "duration": 0.34883699999998896,
            "durationTicks": 480,
            "midi": 52,
            "name": "E3",
            "ticks": 171360,
            "time": 124.53480900000001,
            "velocity": 0.7874015748031497
          },
          {
            "duration": 0.34883699999998896,
            "durationTicks": 480,
            "midi": 59,
            "name": "B3",
            "ticks": 171360,
            "time": 124.53480900000001,
            "velocity": 0.7874015748031497
          },
          {
            "duration": 0.34883699999998896,
            "durationTicks": 480,
            "midi": 66,
            "name": "F#4",
            "ticks": 171360,
            "time": 124.53480900000001,
            "velocity": 0.7874015748031497
          },
          {
            "duration": 0.3488370000000032,
            "durationTicks": 480,
            "midi": 52,
            "name": "E3",
            "ticks": 171840,
            "time": 124.883646,
            "velocity": 0.7874015748031497
          },
          {
            "duration": 0.3488370000000032,
            "durationTicks": 480,
            "midi": 59,
            "name": "B3",
            "ticks": 171840,
            "time": 124.883646,
            "velocity": 0.7874015748031497
          },
          {
            "duration": 0.3488370000000032,
            "durationTicks": 480,
            "midi": 66,
            "name": "F#4",
            "ticks": 171840,
            "time": 124.883646,
            "velocity": 0.7874015748031497
          },
          {
            "duration": 0.3488370000000032,
            "durationTicks": 480,
            "midi": 52,
            "name": "E3",
            "ticks": 172320,
            "time": 125.232483,
            "velocity": 0.7874015748031497
          },
          {
            "duration": 0.3488370000000032,
            "durationTicks": 480,
            "midi": 59,
            "name": "B3",
            "ticks": 172320,
            "time": 125.232483,
            "velocity": 0.7874015748031497
          },
          {
            "duration": 0.3488370000000032,
            "durationTicks": 480,
            "midi": 68,
            "name": "G#4",
            "ticks": 172320,
            "time": 125.232483,
            "velocity": 0.7874015748031497
          },
          {
            "duration": 0.3488370000000032,
            "durationTicks": 480,
            "midi": 52,
            "name": "E3",
            "ticks": 172800,
            "time": 125.58132,
            "velocity": 0.7874015748031497
          },
          {
            "duration": 0.3488370000000032,
            "durationTicks": 480,
            "midi": 59,
            "name": "B3",
            "ticks": 172800,
            "time": 125.58132,
            "velocity": 0.7874015748031497
          },
          {
            "duration": 0.3488370000000032,
            "durationTicks": 480,
            "midi": 68,
            "name": "G#4",
            "ticks": 172800,
            "time": 125.58132,
            "velocity": 0.7874015748031497
          },
          {
            "duration": 0.34883699999998896,
            "durationTicks": 480,
            "midi": 52,
            "name": "E3",
            "ticks": 173280,
            "time": 125.93015700000001,
            "velocity": 0.7874015748031497
          },
          {
            "duration": 0.34883699999998896,
            "durationTicks": 480,
            "midi": 59,
            "name": "B3",
            "ticks": 173280,
            "time": 125.93015700000001,
            "velocity": 0.7874015748031497
          },
          {
            "duration": 0.34883699999998896,
            "durationTicks": 480,
            "midi": 66,
            "name": "F#4",
            "ticks": 173280,
            "time": 125.93015700000001,
            "velocity": 0.7874015748031497
          },
          {
            "duration": 0.3488370000000032,
            "durationTicks": 480,
            "midi": 52,
            "name": "E3",
            "ticks": 173760,
            "time": 126.278994,
            "velocity": 0.7874015748031497
          },
          {
            "duration": 0.3488370000000032,
            "durationTicks": 480,
            "midi": 59,
            "name": "B3",
            "ticks": 173760,
            "time": 126.278994,
            "velocity": 0.7874015748031497
          },
          {
            "duration": 0.3488370000000032,
            "durationTicks": 480,
            "midi": 66,
            "name": "F#4",
            "ticks": 173760,
            "time": 126.278994,
            "velocity": 0.7874015748031497
          },
          {
            "duration": 0.3488370000000032,
            "durationTicks": 480,
            "midi": 52,
            "name": "E3",
            "ticks": 174240,
            "time": 126.627831,
            "velocity": 0.7874015748031497
          },
          {
            "duration": 0.3488370000000032,
            "durationTicks": 480,
            "midi": 59,
            "name": "B3",
            "ticks": 174240,
            "time": 126.627831,
            "velocity": 0.7874015748031497
          },
          {
            "duration": 0.3488370000000032,
            "durationTicks": 480,
            "midi": 68,
            "name": "G#4",
            "ticks": 174240,
            "time": 126.627831,
            "velocity": 0.7874015748031497
          },
          {
            "duration": 0.3488370000000032,
            "durationTicks": 480,
            "midi": 52,
            "name": "E3",
            "ticks": 174720,
            "time": 126.976668,
            "velocity": 0.7874015748031497
          },
          {
            "duration": 0.3488370000000032,
            "durationTicks": 480,
            "midi": 59,
            "name": "B3",
            "ticks": 174720,
            "time": 126.976668,
            "velocity": 0.7874015748031497
          },
          {
            "duration": 0.3488370000000032,
            "durationTicks": 480,
            "midi": 66,
            "name": "F#4",
            "ticks": 174720,
            "time": 126.976668,
            "velocity": 0.7874015748031497
          },
          {
            "duration": 0.17151152499999966,
            "durationTicks": 236,
            "midi": 52,
            "name": "E3",
            "ticks": 175200,
            "time": 127.325505,
            "velocity": 0.7874015748031497
          },
          {
            "duration": 0.1744185000000016,
            "durationTicks": 240,
            "midi": 59,
            "name": "B3",
            "ticks": 175200,
            "time": 127.325505,
            "velocity": 0.7874015748031497
          },
          {
            "duration": 0.1744185000000016,
            "durationTicks": 240,
            "midi": 66,
            "name": "F#4",
            "ticks": 175200,
            "time": 127.325505,
            "velocity": 0.7874015748031497
          },
          {
            "duration": 0.34883699999998896,
            "durationTicks": 480,
            "midi": 52,
            "name": "E3",
            "ticks": 175680,
            "time": 127.67434200000001,
            "velocity": 0.7874015748031497
          },
          {
            "duration": 0.34883699999998896,
            "durationTicks": 480,
            "midi": 59,
            "name": "B3",
            "ticks": 175680,
            "time": 127.67434200000001,
            "velocity": 0.7874015748031497
          },
          {
            "duration": 0.34883699999998896,
            "durationTicks": 480,
            "midi": 66,
            "name": "F#4",
            "ticks": 175680,
            "time": 127.67434200000001,
            "velocity": 0.7874015748031497
          },
          {
            "duration": 0.3488370000000032,
            "durationTicks": 480,
            "midi": 52,
            "name": "E3",
            "ticks": 176160,
            "time": 128.023179,
            "velocity": 0.7874015748031497
          },
          {
            "duration": 0.3488370000000032,
            "durationTicks": 480,
            "midi": 59,
            "name": "B3",
            "ticks": 176160,
            "time": 128.023179,
            "velocity": 0.7874015748031497
          },
          {
            "duration": 0.3488370000000032,
            "durationTicks": 480,
            "midi": 66,
            "name": "F#4",
            "ticks": 176160,
            "time": 128.023179,
            "velocity": 0.7874015748031497
          },
          {
            "duration": 0.3488370000000032,
            "durationTicks": 480,
            "midi": 52,
            "name": "E3",
            "ticks": 176640,
            "time": 128.372016,
            "velocity": 0.7874015748031497
          },
          {
            "duration": 0.3488370000000032,
            "durationTicks": 480,
            "midi": 59,
            "name": "B3",
            "ticks": 176640,
            "time": 128.372016,
            "velocity": 0.7874015748031497
          },
          {
            "duration": 0.3488370000000032,
            "durationTicks": 480,
            "midi": 66,
            "name": "F#4",
            "ticks": 176640,
            "time": 128.372016,
            "velocity": 0.7874015748031497
          },
          {
            "duration": 0.3488370000000032,
            "durationTicks": 480,
            "midi": 52,
            "name": "E3",
            "ticks": 177120,
            "time": 128.720853,
            "velocity": 0.7874015748031497
          },
          {
            "duration": 0.3488370000000032,
            "durationTicks": 480,
            "midi": 59,
            "name": "B3",
            "ticks": 177120,
            "time": 128.720853,
            "velocity": 0.7874015748031497
          },
          {
            "duration": 0.3488370000000032,
            "durationTicks": 480,
            "midi": 66,
            "name": "F#4",
            "ticks": 177120,
            "time": 128.720853,
            "velocity": 0.7874015748031497
          },
          {
            "duration": 0.3488370000000032,
            "durationTicks": 480,
            "midi": 52,
            "name": "E3",
            "ticks": 177600,
            "time": 129.06969,
            "velocity": 0.7874015748031497
          },
          {
            "duration": 0.3488370000000032,
            "durationTicks": 480,
            "midi": 59,
            "name": "B3",
            "ticks": 177600,
            "time": 129.06969,
            "velocity": 0.7874015748031497
          },
          {
            "duration": 0.3488370000000032,
            "durationTicks": 480,
            "midi": 66,
            "name": "F#4",
            "ticks": 177600,
            "time": 129.06969,
            "velocity": 0.7874015748031497
          },
          {
            "duration": 0.3488370000000032,
            "durationTicks": 480,
            "midi": 52,
            "name": "E3",
            "ticks": 178080,
            "time": 129.418527,
            "velocity": 0.7874015748031497
          },
          {
            "duration": 0.3488370000000032,
            "durationTicks": 480,
            "midi": 59,
            "name": "B3",
            "ticks": 178080,
            "time": 129.418527,
            "velocity": 0.7874015748031497
          },
          {
            "duration": 0.3488370000000032,
            "durationTicks": 480,
            "midi": 66,
            "name": "F#4",
            "ticks": 178080,
            "time": 129.418527,
            "velocity": 0.7874015748031497
          },
          {
            "duration": 0.34883699999997475,
            "durationTicks": 480,
            "midi": 47,
            "name": "B2",
            "ticks": 178560,
            "time": 129.76736400000001,
            "velocity": 0.7874015748031497
          },
          {
            "duration": 0.34883699999997475,
            "durationTicks": 480,
            "midi": 54,
            "name": "F#3",
            "ticks": 178560,
            "time": 129.76736400000001,
            "velocity": 0.7874015748031497
          },
          {
            "duration": 0.34883699999997475,
            "durationTicks": 480,
            "midi": 59,
            "name": "B3",
            "ticks": 178560,
            "time": 129.76736400000001,
            "velocity": 0.7874015748031497
          },
          {
            "duration": 0.34883699999997475,
            "durationTicks": 480,
            "midi": 66,
            "name": "F#4",
            "ticks": 178560,
            "time": 129.76736400000001,
            "velocity": 0.7874015748031497
          },
          {
            "duration": 0.3488370000000032,
            "durationTicks": 480,
            "midi": 47,
            "name": "B2",
            "ticks": 179040,
            "time": 130.116201,
            "velocity": 0.7874015748031497
          },
          {
            "duration": 0.3488370000000032,
            "durationTicks": 480,
            "midi": 54,
            "name": "F#3",
            "ticks": 179040,
            "time": 130.116201,
            "velocity": 0.7874015748031497
          },
          {
            "duration": 0.3488370000000032,
            "durationTicks": 480,
            "midi": 59,
            "name": "B3",
            "ticks": 179040,
            "time": 130.116201,
            "velocity": 0.7874015748031497
          },
          {
            "duration": 0.3488370000000032,
            "durationTicks": 480,
            "midi": 66,
            "name": "F#4",
            "ticks": 179040,
            "time": 130.116201,
            "velocity": 0.7874015748031497
          },
          {
            "duration": 0.3488370000000032,
            "durationTicks": 480,
            "midi": 47,
            "name": "B2",
            "ticks": 179520,
            "time": 130.465038,
            "velocity": 0.7874015748031497
          },
          {
            "duration": 0.3488370000000032,
            "durationTicks": 480,
            "midi": 54,
            "name": "F#3",
            "ticks": 179520,
            "time": 130.465038,
            "velocity": 0.7874015748031497
          },
          {
            "duration": 0.3488370000000032,
            "durationTicks": 480,
            "midi": 59,
            "name": "B3",
            "ticks": 179520,
            "time": 130.465038,
            "velocity": 0.7874015748031497
          },
          {
            "duration": 0.3488370000000032,
            "durationTicks": 480,
            "midi": 66,
            "name": "F#4",
            "ticks": 179520,
            "time": 130.465038,
            "velocity": 0.7874015748031497
          },
          {
            "duration": 0.3488370000000032,
            "durationTicks": 480,
            "midi": 47,
            "name": "B2",
            "ticks": 180000,
            "time": 130.813875,
            "velocity": 0.7874015748031497
          },
          {
            "duration": 0.3488370000000032,
            "durationTicks": 480,
            "midi": 54,
            "name": "F#3",
            "ticks": 180000,
            "time": 130.813875,
            "velocity": 0.7874015748031497
          },
          {
            "duration": 0.3488370000000032,
            "durationTicks": 480,
            "midi": 59,
            "name": "B3",
            "ticks": 180000,
            "time": 130.813875,
            "velocity": 0.7874015748031497
          },
          {
            "duration": 0.3488370000000032,
            "durationTicks": 480,
            "midi": 66,
            "name": "F#4",
            "ticks": 180000,
            "time": 130.813875,
            "velocity": 0.7874015748031497
          },
          {
            "duration": 0.3488370000000032,
            "durationTicks": 480,
            "midi": 47,
            "name": "B2",
            "ticks": 180480,
            "time": 131.162712,
            "velocity": 0.7874015748031497
          },
          {
            "duration": 0.3488370000000032,
            "durationTicks": 480,
            "midi": 54,
            "name": "F#3",
            "ticks": 180480,
            "time": 131.162712,
            "velocity": 0.7874015748031497
          },
          {
            "duration": 0.3488370000000032,
            "durationTicks": 480,
            "midi": 59,
            "name": "B3",
            "ticks": 180480,
            "time": 131.162712,
            "velocity": 0.7874015748031497
          },
          {
            "duration": 0.3488370000000032,
            "durationTicks": 480,
            "midi": 66,
            "name": "F#4",
            "ticks": 180480,
            "time": 131.162712,
            "velocity": 0.7874015748031497
          },
          {
            "duration": 0.3488370000000032,
            "durationTicks": 480,
            "midi": 47,
            "name": "B2",
            "ticks": 180960,
            "time": 131.511549,
            "velocity": 0.7874015748031497
          },
          {
            "duration": 0.3488370000000032,
            "durationTicks": 480,
            "midi": 54,
            "name": "F#3",
            "ticks": 180960,
            "time": 131.511549,
            "velocity": 0.7874015748031497
          },
          {
            "duration": 0.3488370000000032,
            "durationTicks": 480,
            "midi": 59,
            "name": "B3",
            "ticks": 180960,
            "time": 131.511549,
            "velocity": 0.7874015748031497
          },
          {
            "duration": 0.3488370000000032,
            "durationTicks": 480,
            "midi": 66,
            "name": "F#4",
            "ticks": 180960,
            "time": 131.511549,
            "velocity": 0.7874015748031497
          },
          {
            "duration": 0.3488370000000032,
            "durationTicks": 480,
            "midi": 47,
            "name": "B2",
            "ticks": 181440,
            "time": 131.860386,
            "velocity": 0.7874015748031497
          },
          {
            "duration": 0.3488370000000032,
            "durationTicks": 480,
            "midi": 54,
            "name": "F#3",
            "ticks": 181440,
            "time": 131.860386,
            "velocity": 0.7874015748031497
          },
          {
            "duration": 0.3488370000000032,
            "durationTicks": 480,
            "midi": 59,
            "name": "B3",
            "ticks": 181440,
            "time": 131.860386,
            "velocity": 0.7874015748031497
          },
          {
            "duration": 0.3488370000000032,
            "durationTicks": 480,
            "midi": 66,
            "name": "F#4",
            "ticks": 181440,
            "time": 131.860386,
            "velocity": 0.7874015748031497
          },
          {
            "duration": 0.3488370000000032,
            "durationTicks": 480,
            "midi": 47,
            "name": "B2",
            "ticks": 181920,
            "time": 132.209223,
            "velocity": 0.7874015748031497
          },
          {
            "duration": 0.3488370000000032,
            "durationTicks": 480,
            "midi": 54,
            "name": "F#3",
            "ticks": 181920,
            "time": 132.209223,
            "velocity": 0.7874015748031497
          },
          {
            "duration": 0.3488370000000032,
            "durationTicks": 480,
            "midi": 59,
            "name": "B3",
            "ticks": 181920,
            "time": 132.209223,
            "velocity": 0.7874015748031497
          },
          {
            "duration": 0.3488370000000032,
            "durationTicks": 480,
            "midi": 66,
            "name": "F#4",
            "ticks": 181920,
            "time": 132.209223,
            "velocity": 0.7874015748031497
          },
          {
            "duration": 0.3488370000000032,
            "durationTicks": 480,
            "midi": 47,
            "name": "B2",
            "ticks": 182400,
            "time": 132.55806,
            "velocity": 0.7874015748031497
          },
          {
            "duration": 0.3488370000000032,
            "durationTicks": 480,
            "midi": 54,
            "name": "F#3",
            "ticks": 182400,
            "time": 132.55806,
            "velocity": 0.7874015748031497
          },
          {
            "duration": 0.3488370000000032,
            "durationTicks": 480,
            "midi": 59,
            "name": "B3",
            "ticks": 182400,
            "time": 132.55806,
            "velocity": 0.7874015748031497
          },
          {
            "duration": 0.3488370000000032,
            "durationTicks": 480,
            "midi": 66,
            "name": "F#4",
            "ticks": 182400,
            "time": 132.55806,
            "velocity": 0.7874015748031497
          },
          {
            "duration": 0.34883699999997475,
            "durationTicks": 480,
            "midi": 47,
            "name": "B2",
            "ticks": 182880,
            "time": 132.90689700000001,
            "velocity": 0.7874015748031497
          },
          {
            "duration": 0.34883699999997475,
            "durationTicks": 480,
            "midi": 54,
            "name": "F#3",
            "ticks": 182880,
            "time": 132.90689700000001,
            "velocity": 0.7874015748031497
          },
          {
            "duration": 0.34883699999997475,
            "durationTicks": 480,
            "midi": 59,
            "name": "B3",
            "ticks": 182880,
            "time": 132.90689700000001,
            "velocity": 0.7874015748031497
          },
          {
            "duration": 0.34883699999997475,
            "durationTicks": 480,
            "midi": 66,
            "name": "F#4",
            "ticks": 182880,
            "time": 132.90689700000001,
            "velocity": 0.7874015748031497
          },
          {
            "duration": 0.3488370000000032,
            "durationTicks": 480,
            "midi": 47,
            "name": "B2",
            "ticks": 183360,
            "time": 133.255734,
            "velocity": 0.7874015748031497
          },
          {
            "duration": 0.3488370000000032,
            "durationTicks": 480,
            "midi": 54,
            "name": "F#3",
            "ticks": 183360,
            "time": 133.255734,
            "velocity": 0.7874015748031497
          },
          {
            "duration": 0.3488370000000032,
            "durationTicks": 480,
            "midi": 59,
            "name": "B3",
            "ticks": 183360,
            "time": 133.255734,
            "velocity": 0.7874015748031497
          },
          {
            "duration": 0.3488370000000032,
            "durationTicks": 480,
            "midi": 66,
            "name": "F#4",
            "ticks": 183360,
            "time": 133.255734,
            "velocity": 0.7874015748031497
          },
          {
            "duration": 0.3488370000000032,
            "durationTicks": 480,
            "midi": 47,
            "name": "B2",
            "ticks": 183840,
            "time": 133.604571,
            "velocity": 0.7874015748031497
          },
          {
            "duration": 0.3488370000000032,
            "durationTicks": 480,
            "midi": 54,
            "name": "F#3",
            "ticks": 183840,
            "time": 133.604571,
            "velocity": 0.7874015748031497
          },
          {
            "duration": 0.3488370000000032,
            "durationTicks": 480,
            "midi": 59,
            "name": "B3",
            "ticks": 183840,
            "time": 133.604571,
            "velocity": 0.7874015748031497
          },
          {
            "duration": 0.3488370000000032,
            "durationTicks": 480,
            "midi": 66,
            "name": "F#4",
            "ticks": 183840,
            "time": 133.604571,
            "velocity": 0.7874015748031497
          },
          {
            "duration": 0.3488370000000032,
            "durationTicks": 480,
            "midi": 47,
            "name": "B2",
            "ticks": 184320,
            "time": 133.953408,
            "velocity": 0.7874015748031497
          },
          {
            "duration": 0.3488370000000032,
            "durationTicks": 480,
            "midi": 54,
            "name": "F#3",
            "ticks": 184320,
            "time": 133.953408,
            "velocity": 0.7874015748031497
          },
          {
            "duration": 0.3488370000000032,
            "durationTicks": 480,
            "midi": 59,
            "name": "B3",
            "ticks": 184320,
            "time": 133.953408,
            "velocity": 0.7874015748031497
          },
          {
            "duration": 0.3488370000000032,
            "durationTicks": 480,
            "midi": 66,
            "name": "F#4",
            "ticks": 184320,
            "time": 133.953408,
            "velocity": 0.7874015748031497
          },
          {
            "duration": 0.3488370000000032,
            "durationTicks": 480,
            "midi": 47,
            "name": "B2",
            "ticks": 184800,
            "time": 134.302245,
            "velocity": 0.7874015748031497
          },
          {
            "duration": 0.3488370000000032,
            "durationTicks": 480,
            "midi": 54,
            "name": "F#3",
            "ticks": 184800,
            "time": 134.302245,
            "velocity": 0.7874015748031497
          },
          {
            "duration": 0.3488370000000032,
            "durationTicks": 480,
            "midi": 59,
            "name": "B3",
            "ticks": 184800,
            "time": 134.302245,
            "velocity": 0.7874015748031497
          },
          {
            "duration": 0.3488370000000032,
            "durationTicks": 480,
            "midi": 66,
            "name": "F#4",
            "ticks": 184800,
            "time": 134.302245,
            "velocity": 0.7874015748031497
          },
          {
            "duration": 0.3488370000000032,
            "durationTicks": 480,
            "midi": 47,
            "name": "B2",
            "ticks": 185280,
            "time": 134.651082,
            "velocity": 0.7874015748031497
          },
          {
            "duration": 0.3488370000000032,
            "durationTicks": 480,
            "midi": 54,
            "name": "F#3",
            "ticks": 185280,
            "time": 134.651082,
            "velocity": 0.7874015748031497
          },
          {
            "duration": 0.3488370000000032,
            "durationTicks": 480,
            "midi": 59,
            "name": "B3",
            "ticks": 185280,
            "time": 134.651082,
            "velocity": 0.7874015748031497
          },
          {
            "duration": 0.3488370000000032,
            "durationTicks": 480,
            "midi": 66,
            "name": "F#4",
            "ticks": 185280,
            "time": 134.651082,
            "velocity": 0.7874015748031497
          },
          {
            "duration": 0.3488370000000032,
            "durationTicks": 480,
            "midi": 47,
            "name": "B2",
            "ticks": 185760,
            "time": 134.999919,
            "velocity": 0.7874015748031497
          },
          {
            "duration": 0.3488370000000032,
            "durationTicks": 480,
            "midi": 54,
            "name": "F#3",
            "ticks": 185760,
            "time": 134.999919,
            "velocity": 0.7874015748031497
          },
          {
            "duration": 0.3488370000000032,
            "durationTicks": 480,
            "midi": 59,
            "name": "B3",
            "ticks": 185760,
            "time": 134.999919,
            "velocity": 0.7874015748031497
          },
          {
            "duration": 0.3488370000000032,
            "durationTicks": 480,
            "midi": 66,
            "name": "F#4",
            "ticks": 185760,
            "time": 134.999919,
            "velocity": 0.7874015748031497
          },
          {
            "duration": 0.3488370000000032,
            "durationTicks": 480,
            "midi": 54,
            "name": "F#3",
            "ticks": 270720,
            "time": 196.744068,
            "velocity": 0.7874015748031497
          },
          {
            "duration": 0.3488370000000032,
            "durationTicks": 480,
            "midi": 59,
            "name": "B3",
            "ticks": 270720,
            "time": 196.744068,
            "velocity": 0.7874015748031497
          },
          {
            "duration": 0.3488370000000032,
            "durationTicks": 480,
            "midi": 66,
            "name": "F#4",
            "ticks": 270720,
            "time": 196.744068,
            "velocity": 0.7874015748031497
          },
          {
            "duration": 0.3488370000000032,
            "durationTicks": 480,
            "midi": 71,
            "name": "B4",
            "ticks": 270720,
            "time": 196.744068,
            "velocity": 0.7874015748031497
          },
          {
            "duration": 0.3488370000000032,
            "durationTicks": 480,
            "midi": 54,
            "name": "F#3",
            "ticks": 271200,
            "time": 197.092905,
            "velocity": 0.7874015748031497
          },
          {
            "duration": 0.3488370000000032,
            "durationTicks": 480,
            "midi": 59,
            "name": "B3",
            "ticks": 271200,
            "time": 197.092905,
            "velocity": 0.7874015748031497
          },
          {
            "duration": 0.3488370000000032,
            "durationTicks": 480,
            "midi": 66,
            "name": "F#4",
            "ticks": 271200,
            "time": 197.092905,
            "velocity": 0.7874015748031497
          },
          {
            "duration": 0.3488370000000032,
            "durationTicks": 480,
            "midi": 71,
            "name": "B4",
            "ticks": 271200,
            "time": 197.092905,
            "velocity": 0.7874015748031497
          },
          {
            "duration": 0.3488370000000032,
            "durationTicks": 480,
            "midi": 54,
            "name": "F#3",
            "ticks": 271680,
            "time": 197.441742,
            "velocity": 0.7874015748031497
          },
          {
            "duration": 0.3488370000000032,
            "durationTicks": 480,
            "midi": 59,
            "name": "B3",
            "ticks": 271680,
            "time": 197.441742,
            "velocity": 0.7874015748031497
          },
          {
            "duration": 0.3488370000000032,
            "durationTicks": 480,
            "midi": 66,
            "name": "F#4",
            "ticks": 271680,
            "time": 197.441742,
            "velocity": 0.7874015748031497
          },
          {
            "duration": 0.3488370000000032,
            "durationTicks": 480,
            "midi": 71,
            "name": "B4",
            "ticks": 271680,
            "time": 197.441742,
            "velocity": 0.7874015748031497
          },
          {
            "duration": 0.3488370000000032,
            "durationTicks": 480,
            "midi": 54,
            "name": "F#3",
            "ticks": 272160,
            "time": 197.790579,
            "velocity": 0.7874015748031497
          },
          {
            "duration": 0.3488370000000032,
            "durationTicks": 480,
            "midi": 59,
            "name": "B3",
            "ticks": 272160,
            "time": 197.790579,
            "velocity": 0.7874015748031497
          },
          {
            "duration": 0.3488370000000032,
            "durationTicks": 480,
            "midi": 66,
            "name": "F#4",
            "ticks": 272160,
            "time": 197.790579,
            "velocity": 0.7874015748031497
          },
          {
            "duration": 0.3488370000000032,
            "durationTicks": 480,
            "midi": 71,
            "name": "B4",
            "ticks": 272160,
            "time": 197.790579,
            "velocity": 0.7874015748031497
          },
          {
            "duration": 0.3488370000000032,
            "durationTicks": 480,
            "midi": 54,
            "name": "F#3",
            "ticks": 272640,
            "time": 198.139416,
            "velocity": 0.7874015748031497
          },
          {
            "duration": 0.3488370000000032,
            "durationTicks": 480,
            "midi": 59,
            "name": "B3",
            "ticks": 272640,
            "time": 198.139416,
            "velocity": 0.7874015748031497
          },
          {
            "duration": 0.3488370000000032,
            "durationTicks": 480,
            "midi": 66,
            "name": "F#4",
            "ticks": 272640,
            "time": 198.139416,
            "velocity": 0.7874015748031497
          },
          {
            "duration": 0.3488370000000032,
            "durationTicks": 480,
            "midi": 71,
            "name": "B4",
            "ticks": 272640,
            "time": 198.139416,
            "velocity": 0.7874015748031497
          },
          {
            "duration": 0.3488370000000032,
            "durationTicks": 480,
            "midi": 54,
            "name": "F#3",
            "ticks": 273120,
            "time": 198.48825300000001,
            "velocity": 0.7874015748031497
          },
          {
            "duration": 0.3488370000000032,
            "durationTicks": 480,
            "midi": 59,
            "name": "B3",
            "ticks": 273120,
            "time": 198.48825300000001,
            "velocity": 0.7874015748031497
          },
          {
            "duration": 0.3488370000000032,
            "durationTicks": 480,
            "midi": 66,
            "name": "F#4",
            "ticks": 273120,
            "time": 198.48825300000001,
            "velocity": 0.7874015748031497
          },
          {
            "duration": 0.3488370000000032,
            "durationTicks": 480,
            "midi": 71,
            "name": "B4",
            "ticks": 273120,
            "time": 198.48825300000001,
            "velocity": 0.7874015748031497
          },
          {
            "duration": 0.34883699999997475,
            "durationTicks": 480,
            "midi": 54,
            "name": "F#3",
            "ticks": 273600,
            "time": 198.83709000000002,
            "velocity": 0.7874015748031497
          },
          {
            "duration": 0.34883699999997475,
            "durationTicks": 480,
            "midi": 59,
            "name": "B3",
            "ticks": 273600,
            "time": 198.83709000000002,
            "velocity": 0.7874015748031497
          },
          {
            "duration": 0.34883699999997475,
            "durationTicks": 480,
            "midi": 66,
            "name": "F#4",
            "ticks": 273600,
            "time": 198.83709000000002,
            "velocity": 0.7874015748031497
          },
          {
            "duration": 0.34883699999997475,
            "durationTicks": 480,
            "midi": 71,
            "name": "B4",
            "ticks": 273600,
            "time": 198.83709000000002,
            "velocity": 0.7874015748031497
          },
          {
            "duration": 0.3488370000000032,
            "durationTicks": 480,
            "midi": 54,
            "name": "F#3",
            "ticks": 274080,
            "time": 199.185927,
            "velocity": 0.7874015748031497
          },
          {
            "duration": 0.3488370000000032,
            "durationTicks": 480,
            "midi": 59,
            "name": "B3",
            "ticks": 274080,
            "time": 199.185927,
            "velocity": 0.7874015748031497
          },
          {
            "duration": 0.3488370000000032,
            "durationTicks": 480,
            "midi": 66,
            "name": "F#4",
            "ticks": 274080,
            "time": 199.185927,
            "velocity": 0.7874015748031497
          },
          {
            "duration": 0.3488370000000032,
            "durationTicks": 480,
            "midi": 71,
            "name": "B4",
            "ticks": 274080,
            "time": 199.185927,
            "velocity": 0.7874015748031497
          },
          {
            "duration": 0.3488370000000032,
            "durationTicks": 480,
            "midi": 54,
            "name": "F#3",
            "ticks": 274560,
            "time": 199.534764,
            "velocity": 0.7874015748031497
          },
          {
            "duration": 0.3488370000000032,
            "durationTicks": 480,
            "midi": 59,
            "name": "B3",
            "ticks": 274560,
            "time": 199.534764,
            "velocity": 0.7874015748031497
          },
          {
            "duration": 0.3488370000000032,
            "durationTicks": 480,
            "midi": 66,
            "name": "F#4",
            "ticks": 274560,
            "time": 199.534764,
            "velocity": 0.7874015748031497
          },
          {
            "duration": 0.3488370000000032,
            "durationTicks": 480,
            "midi": 71,
            "name": "B4",
            "ticks": 274560,
            "time": 199.534764,
            "velocity": 0.7874015748031497
          },
          {
            "duration": 0.3488370000000032,
            "durationTicks": 480,
            "midi": 54,
            "name": "F#3",
            "ticks": 275040,
            "time": 199.883601,
            "velocity": 0.7874015748031497
          },
          {
            "duration": 0.3488370000000032,
            "durationTicks": 480,
            "midi": 59,
            "name": "B3",
            "ticks": 275040,
            "time": 199.883601,
            "velocity": 0.7874015748031497
          },
          {
            "duration": 0.3488370000000032,
            "durationTicks": 480,
            "midi": 66,
            "name": "F#4",
            "ticks": 275040,
            "time": 199.883601,
            "velocity": 0.7874015748031497
          },
          {
            "duration": 0.3488370000000032,
            "durationTicks": 480,
            "midi": 71,
            "name": "B4",
            "ticks": 275040,
            "time": 199.883601,
            "velocity": 0.7874015748031497
          },
          {
            "duration": 0.3488370000000032,
            "durationTicks": 480,
            "midi": 54,
            "name": "F#3",
            "ticks": 275520,
            "time": 200.232438,
            "velocity": 0.7874015748031497
          },
          {
            "duration": 0.3488370000000032,
            "durationTicks": 480,
            "midi": 59,
            "name": "B3",
            "ticks": 275520,
            "time": 200.232438,
            "velocity": 0.7874015748031497
          },
          {
            "duration": 0.3488370000000032,
            "durationTicks": 480,
            "midi": 66,
            "name": "F#4",
            "ticks": 275520,
            "time": 200.232438,
            "velocity": 0.7874015748031497
          },
          {
            "duration": 0.3488370000000032,
            "durationTicks": 480,
            "midi": 71,
            "name": "B4",
            "ticks": 275520,
            "time": 200.232438,
            "velocity": 0.7874015748031497
          },
          {
            "duration": 0.3488370000000032,
            "durationTicks": 480,
            "midi": 54,
            "name": "F#3",
            "ticks": 276000,
            "time": 200.581275,
            "velocity": 0.7874015748031497
          },
          {
            "duration": 0.3488370000000032,
            "durationTicks": 480,
            "midi": 59,
            "name": "B3",
            "ticks": 276000,
            "time": 200.581275,
            "velocity": 0.7874015748031497
          },
          {
            "duration": 0.3488370000000032,
            "durationTicks": 480,
            "midi": 66,
            "name": "F#4",
            "ticks": 276000,
            "time": 200.581275,
            "velocity": 0.7874015748031497
          },
          {
            "duration": 0.3488370000000032,
            "durationTicks": 480,
            "midi": 71,
            "name": "B4",
            "ticks": 276000,
            "time": 200.581275,
            "velocity": 0.7874015748031497
          },
          {
            "duration": 0.3488370000000032,
            "durationTicks": 480,
            "midi": 54,
            "name": "F#3",
            "ticks": 276480,
            "time": 200.930112,
            "velocity": 0.7874015748031497
          },
          {
            "duration": 0.3488370000000032,
            "durationTicks": 480,
            "midi": 59,
            "name": "B3",
            "ticks": 276480,
            "time": 200.930112,
            "velocity": 0.7874015748031497
          },
          {
            "duration": 0.3488370000000032,
            "durationTicks": 480,
            "midi": 66,
            "name": "F#4",
            "ticks": 276480,
            "time": 200.930112,
            "velocity": 0.7874015748031497
          },
          {
            "duration": 0.3488370000000032,
            "durationTicks": 480,
            "midi": 71,
            "name": "B4",
            "ticks": 276480,
            "time": 200.930112,
            "velocity": 0.7874015748031497
          },
          {
            "duration": 0.3488370000000032,
            "durationTicks": 480,
            "midi": 54,
            "name": "F#3",
            "ticks": 276960,
            "time": 201.278949,
            "velocity": 0.7874015748031497
          },
          {
            "duration": 0.3488370000000032,
            "durationTicks": 480,
            "midi": 59,
            "name": "B3",
            "ticks": 276960,
            "time": 201.278949,
            "velocity": 0.7874015748031497
          },
          {
            "duration": 0.3488370000000032,
            "durationTicks": 480,
            "midi": 66,
            "name": "F#4",
            "ticks": 276960,
            "time": 201.278949,
            "velocity": 0.7874015748031497
          },
          {
            "duration": 0.3488370000000032,
            "durationTicks": 480,
            "midi": 71,
            "name": "B4",
            "ticks": 276960,
            "time": 201.278949,
            "velocity": 0.7874015748031497
          },
          {
            "duration": 0.3488370000000032,
            "durationTicks": 480,
            "midi": 54,
            "name": "F#3",
            "ticks": 277440,
            "time": 201.62778600000001,
            "velocity": 0.7874015748031497
          },
          {
            "duration": 0.3488370000000032,
            "durationTicks": 480,
            "midi": 59,
            "name": "B3",
            "ticks": 277440,
            "time": 201.62778600000001,
            "velocity": 0.7874015748031497
          },
          {
            "duration": 0.3488370000000032,
            "durationTicks": 480,
            "midi": 66,
            "name": "F#4",
            "ticks": 277440,
            "time": 201.62778600000001,
            "velocity": 0.7874015748031497
          },
          {
            "duration": 0.3488370000000032,
            "durationTicks": 480,
            "midi": 71,
            "name": "B4",
            "ticks": 277440,
            "time": 201.62778600000001,
            "velocity": 0.7874015748031497
          },
          {
            "duration": 0.34883699999997475,
            "durationTicks": 480,
            "midi": 54,
            "name": "F#3",
            "ticks": 277920,
            "time": 201.97662300000002,
            "velocity": 0.7874015748031497
          },
          {
            "duration": 0.34883699999997475,
            "durationTicks": 480,
            "midi": 59,
            "name": "B3",
            "ticks": 277920,
            "time": 201.97662300000002,
            "velocity": 0.7874015748031497
          },
          {
            "duration": 0.34883699999997475,
            "durationTicks": 480,
            "midi": 66,
            "name": "F#4",
            "ticks": 277920,
            "time": 201.97662300000002,
            "velocity": 0.7874015748031497
          },
          {
            "duration": 0.34883699999997475,
            "durationTicks": 480,
            "midi": 71,
            "name": "B4",
            "ticks": 277920,
            "time": 201.97662300000002,
            "velocity": 0.7874015748031497
          },
          {
            "duration": 0.3488370000000032,
            "durationTicks": 480,
            "midi": 54,
            "name": "F#3",
            "ticks": 278400,
            "time": 202.32546,
            "velocity": 0.7874015748031497
          },
          {
            "duration": 0.3488370000000032,
            "durationTicks": 480,
            "midi": 61,
            "name": "C#4",
            "ticks": 278400,
            "time": 202.32546,
            "velocity": 0.7874015748031497
          },
          {
            "duration": 0.3488370000000032,
            "durationTicks": 480,
            "midi": 66,
            "name": "F#4",
            "ticks": 278400,
            "time": 202.32546,
            "velocity": 0.7874015748031497
          },
          {
            "duration": 0.3488370000000032,
            "durationTicks": 480,
            "midi": 54,
            "name": "F#3",
            "ticks": 278880,
            "time": 202.674297,
            "velocity": 0.7874015748031497
          },
          {
            "duration": 0.3488370000000032,
            "durationTicks": 480,
            "midi": 59,
            "name": "B3",
            "ticks": 278880,
            "time": 202.674297,
            "velocity": 0.7874015748031497
          },
          {
            "duration": 0.3488370000000032,
            "durationTicks": 480,
            "midi": 66,
            "name": "F#4",
            "ticks": 278880,
            "time": 202.674297,
            "velocity": 0.7874015748031497
          },
          {
            "duration": 0.3488370000000032,
            "durationTicks": 480,
            "midi": 54,
            "name": "F#3",
            "ticks": 279360,
            "time": 203.023134,
            "velocity": 0.7874015748031497
          },
          {
            "duration": 0.3488370000000032,
            "durationTicks": 480,
            "midi": 61,
            "name": "C#4",
            "ticks": 279360,
            "time": 203.023134,
            "velocity": 0.7874015748031497
          },
          {
            "duration": 0.3488370000000032,
            "durationTicks": 480,
            "midi": 66,
            "name": "F#4",
            "ticks": 279360,
            "time": 203.023134,
            "velocity": 0.7874015748031497
          },
          {
            "duration": 0.3488370000000032,
            "durationTicks": 480,
            "midi": 54,
            "name": "F#3",
            "ticks": 279840,
            "time": 203.371971,
            "velocity": 0.7874015748031497
          },
          {
            "duration": 0.3488370000000032,
            "durationTicks": 480,
            "midi": 59,
            "name": "B3",
            "ticks": 279840,
            "time": 203.371971,
            "velocity": 0.7874015748031497
          },
          {
            "duration": 0.3488370000000032,
            "durationTicks": 480,
            "midi": 66,
            "name": "F#4",
            "ticks": 279840,
            "time": 203.371971,
            "velocity": 0.7874015748031497
          },
          {
            "duration": 0.3488370000000032,
            "durationTicks": 480,
            "midi": 54,
            "name": "F#3",
            "ticks": 280320,
            "time": 203.720808,
            "velocity": 0.7874015748031497
          },
          {
            "duration": 0.3488370000000032,
            "durationTicks": 480,
            "midi": 61,
            "name": "C#4",
            "ticks": 280320,
            "time": 203.720808,
            "velocity": 0.7874015748031497
          },
          {
            "duration": 0.3488370000000032,
            "durationTicks": 480,
            "midi": 66,
            "name": "F#4",
            "ticks": 280320,
            "time": 203.720808,
            "velocity": 0.7874015748031497
          },
          {
            "duration": 0.3488370000000032,
            "durationTicks": 480,
            "midi": 54,
            "name": "F#3",
            "ticks": 280800,
            "time": 204.069645,
            "velocity": 0.7874015748031497
          },
          {
            "duration": 0.3488370000000032,
            "durationTicks": 480,
            "midi": 59,
            "name": "B3",
            "ticks": 280800,
            "time": 204.069645,
            "velocity": 0.7874015748031497
          },
          {
            "duration": 0.3488370000000032,
            "durationTicks": 480,
            "midi": 66,
            "name": "F#4",
            "ticks": 280800,
            "time": 204.069645,
            "velocity": 0.7874015748031497
          },
          {
            "duration": 0.3488370000000032,
            "durationTicks": 480,
            "midi": 54,
            "name": "F#3",
            "ticks": 281280,
            "time": 204.418482,
            "velocity": 0.7874015748031497
          },
          {
            "duration": 0.3488370000000032,
            "durationTicks": 480,
            "midi": 61,
            "name": "C#4",
            "ticks": 281280,
            "time": 204.418482,
            "velocity": 0.7874015748031497
          },
          {
            "duration": 0.3488370000000032,
            "durationTicks": 480,
            "midi": 66,
            "name": "F#4",
            "ticks": 281280,
            "time": 204.418482,
            "velocity": 0.7874015748031497
          },
          {
            "duration": 0.3488370000000032,
            "durationTicks": 480,
            "midi": 54,
            "name": "F#3",
            "ticks": 281760,
            "time": 204.76731900000001,
            "velocity": 0.7874015748031497
          },
          {
            "duration": 0.3488370000000032,
            "durationTicks": 480,
            "midi": 59,
            "name": "B3",
            "ticks": 281760,
            "time": 204.76731900000001,
            "velocity": 0.7874015748031497
          },
          {
            "duration": 0.3488370000000032,
            "durationTicks": 480,
            "midi": 66,
            "name": "F#4",
            "ticks": 281760,
            "time": 204.76731900000001,
            "velocity": 0.7874015748031497
          },
          {
            "duration": 0.34883699999997475,
            "durationTicks": 480,
            "midi": 54,
            "name": "F#3",
            "ticks": 282240,
            "time": 205.11615600000002,
            "velocity": 0.7874015748031497
          },
          {
            "duration": 0.34883699999997475,
            "durationTicks": 480,
            "midi": 59,
            "name": "B3",
            "ticks": 282240,
            "time": 205.11615600000002,
            "velocity": 0.7874015748031497
          },
          {
            "duration": 0.34883699999997475,
            "durationTicks": 480,
            "midi": 66,
            "name": "F#4",
            "ticks": 282240,
            "time": 205.11615600000002,
            "velocity": 0.7874015748031497
          },
          {
            "duration": 0.3488370000000032,
            "durationTicks": 480,
            "midi": 54,
            "name": "F#3",
            "ticks": 282720,
            "time": 205.464993,
            "velocity": 0.7874015748031497
          },
          {
            "duration": 0.3488370000000032,
            "durationTicks": 480,
            "midi": 59,
            "name": "B3",
            "ticks": 282720,
            "time": 205.464993,
            "velocity": 0.7874015748031497
          },
          {
            "duration": 0.3488370000000032,
            "durationTicks": 480,
            "midi": 66,
            "name": "F#4",
            "ticks": 282720,
            "time": 205.464993,
            "velocity": 0.7874015748031497
          },
          {
            "duration": 0.3488370000000032,
            "durationTicks": 480,
            "midi": 54,
            "name": "F#3",
            "ticks": 283200,
            "time": 205.81383,
            "velocity": 0.7874015748031497
          },
          {
            "duration": 0.3488370000000032,
            "durationTicks": 480,
            "midi": 59,
            "name": "B3",
            "ticks": 283200,
            "time": 205.81383,
            "velocity": 0.7874015748031497
          },
          {
            "duration": 0.3488370000000032,
            "durationTicks": 480,
            "midi": 66,
            "name": "F#4",
            "ticks": 283200,
            "time": 205.81383,
            "velocity": 0.7874015748031497
          },
          {
            "duration": 0.3488370000000032,
            "durationTicks": 480,
            "midi": 54,
            "name": "F#3",
            "ticks": 283680,
            "time": 206.162667,
            "velocity": 0.7874015748031497
          },
          {
            "duration": 0.3488370000000032,
            "durationTicks": 480,
            "midi": 59,
            "name": "B3",
            "ticks": 283680,
            "time": 206.162667,
            "velocity": 0.7874015748031497
          },
          {
            "duration": 0.3488370000000032,
            "durationTicks": 480,
            "midi": 66,
            "name": "F#4",
            "ticks": 283680,
            "time": 206.162667,
            "velocity": 0.7874015748031497
          },
          {
            "duration": 0.3488370000000032,
            "durationTicks": 480,
            "midi": 54,
            "name": "F#3",
            "ticks": 284160,
            "time": 206.511504,
            "velocity": 0.7874015748031497
          },
          {
            "duration": 0.3517439750000051,
            "durationTicks": 484,
            "midi": 59,
            "name": "B3",
            "ticks": 284160,
            "time": 206.511504,
            "velocity": 0.7874015748031497
          },
          {
            "duration": 0.3488370000000032,
            "durationTicks": 480,
            "midi": 66,
            "name": "F#4",
            "ticks": 284160,
            "time": 206.511504,
            "velocity": 0.7874015748031497
          },
          {
            "duration": 0.3488370000000032,
            "durationTicks": 480,
            "midi": 54,
            "name": "F#3",
            "ticks": 284640,
            "time": 206.860341,
            "velocity": 0.7874015748031497
          },
          {
            "duration": 0.3488370000000032,
            "durationTicks": 480,
            "midi": 59,
            "name": "B3",
            "ticks": 284640,
            "time": 206.860341,
            "velocity": 0.7874015748031497
          },
          {
            "duration": 0.3488370000000032,
            "durationTicks": 480,
            "midi": 66,
            "name": "F#4",
            "ticks": 284640,
            "time": 206.860341,
            "velocity": 0.7874015748031497
          },
          {
            "duration": 0.3488370000000032,
            "durationTicks": 480,
            "midi": 54,
            "name": "F#3",
            "ticks": 285120,
            "time": 207.209178,
            "velocity": 0.7874015748031497
          },
          {
            "duration": 0.3488370000000032,
            "durationTicks": 480,
            "midi": 59,
            "name": "B3",
            "ticks": 285120,
            "time": 207.209178,
            "velocity": 0.7874015748031497
          },
          {
            "duration": 0.3488370000000032,
            "durationTicks": 480,
            "midi": 66,
            "name": "F#4",
            "ticks": 285120,
            "time": 207.209178,
            "velocity": 0.7874015748031497
          },
          {
            "duration": 0.3488370000000032,
            "durationTicks": 480,
            "midi": 54,
            "name": "F#3",
            "ticks": 285600,
            "time": 207.558015,
            "velocity": 0.7874015748031497
          },
          {
            "duration": 0.3488370000000032,
            "durationTicks": 480,
            "midi": 59,
            "name": "B3",
            "ticks": 285600,
            "time": 207.558015,
            "velocity": 0.7874015748031497
          },
          {
            "duration": 0.3488370000000032,
            "durationTicks": 480,
            "midi": 66,
            "name": "F#4",
            "ticks": 285600,
            "time": 207.558015,
            "velocity": 0.7874015748031497
          },
          {
            "duration": 0.3488370000000032,
            "durationTicks": 480,
            "midi": 52,
            "name": "E3",
            "ticks": 286080,
            "time": 207.90685200000001,
            "velocity": 0.7874015748031497
          },
          {
            "duration": 0.3488370000000032,
            "durationTicks": 480,
            "midi": 59,
            "name": "B3",
            "ticks": 286080,
            "time": 207.90685200000001,
            "velocity": 0.7874015748031497
          },
          {
            "duration": 0.3488370000000032,
            "durationTicks": 480,
            "midi": 68,
            "name": "G#4",
            "ticks": 286080,
            "time": 207.90685200000001,
            "velocity": 0.7874015748031497
          },
          {
            "duration": 0.34883699999997475,
            "durationTicks": 480,
            "midi": 52,
            "name": "E3",
            "ticks": 286560,
            "time": 208.25568900000002,
            "velocity": 0.7874015748031497
          },
          {
            "duration": 0.34883699999997475,
            "durationTicks": 480,
            "midi": 59,
            "name": "B3",
            "ticks": 286560,
            "time": 208.25568900000002,
            "velocity": 0.7874015748031497
          },
          {
            "duration": 0.34883699999997475,
            "durationTicks": 480,
            "midi": 66,
            "name": "F#4",
            "ticks": 286560,
            "time": 208.25568900000002,
            "velocity": 0.7874015748031497
          },
          {
            "duration": 0.3488370000000032,
            "durationTicks": 480,
            "midi": 52,
            "name": "E3",
            "ticks": 287040,
            "time": 208.604526,
            "velocity": 0.7874015748031497
          },
          {
            "duration": 0.3488370000000032,
            "durationTicks": 480,
            "midi": 59,
            "name": "B3",
            "ticks": 287040,
            "time": 208.604526,
            "velocity": 0.7874015748031497
          },
          {
            "duration": 0.3488370000000032,
            "durationTicks": 480,
            "midi": 66,
            "name": "F#4",
            "ticks": 287040,
            "time": 208.604526,
            "velocity": 0.7874015748031497
          },
          {
            "duration": 0.3488370000000032,
            "durationTicks": 480,
            "midi": 52,
            "name": "E3",
            "ticks": 287520,
            "time": 208.953363,
            "velocity": 0.7874015748031497
          },
          {
            "duration": 0.3488370000000032,
            "durationTicks": 480,
            "midi": 59,
            "name": "B3",
            "ticks": 287520,
            "time": 208.953363,
            "velocity": 0.7874015748031497
          },
          {
            "duration": 0.3488370000000032,
            "durationTicks": 480,
            "midi": 68,
            "name": "G#4",
            "ticks": 287520,
            "time": 208.953363,
            "velocity": 0.7874015748031497
          },
          {
            "duration": 0.3488370000000032,
            "durationTicks": 480,
            "midi": 52,
            "name": "E3",
            "ticks": 288000,
            "time": 209.3022,
            "velocity": 0.7874015748031497
          },
          {
            "duration": 0.3488370000000032,
            "durationTicks": 480,
            "midi": 59,
            "name": "B3",
            "ticks": 288000,
            "time": 209.3022,
            "velocity": 0.7874015748031497
          },
          {
            "duration": 0.3488370000000032,
            "durationTicks": 480,
            "midi": 68,
            "name": "G#4",
            "ticks": 288000,
            "time": 209.3022,
            "velocity": 0.7874015748031497
          },
          {
            "duration": 0.3488370000000032,
            "durationTicks": 480,
            "midi": 52,
            "name": "E3",
            "ticks": 288480,
            "time": 209.651037,
            "velocity": 0.7874015748031497
          },
          {
            "duration": 0.3488370000000032,
            "durationTicks": 480,
            "midi": 59,
            "name": "B3",
            "ticks": 288480,
            "time": 209.651037,
            "velocity": 0.7874015748031497
          },
          {
            "duration": 0.3488370000000032,
            "durationTicks": 480,
            "midi": 66,
            "name": "F#4",
            "ticks": 288480,
            "time": 209.651037,
            "velocity": 0.7874015748031497
          },
          {
            "duration": 0.3488370000000032,
            "durationTicks": 480,
            "midi": 52,
            "name": "E3",
            "ticks": 288960,
            "time": 209.999874,
            "velocity": 0.7874015748031497
          },
          {
            "duration": 0.3488370000000032,
            "durationTicks": 480,
            "midi": 59,
            "name": "B3",
            "ticks": 288960,
            "time": 209.999874,
            "velocity": 0.7874015748031497
          },
          {
            "duration": 0.3488370000000032,
            "durationTicks": 480,
            "midi": 66,
            "name": "F#4",
            "ticks": 288960,
            "time": 209.999874,
            "velocity": 0.7874015748031497
          },
          {
            "duration": 0.3488370000000032,
            "durationTicks": 480,
            "midi": 52,
            "name": "E3",
            "ticks": 289440,
            "time": 210.348711,
            "velocity": 0.7874015748031497
          },
          {
            "duration": 0.3488370000000032,
            "durationTicks": 480,
            "midi": 59,
            "name": "B3",
            "ticks": 289440,
            "time": 210.348711,
            "velocity": 0.7874015748031497
          },
          {
            "duration": 0.3488370000000032,
            "durationTicks": 480,
            "midi": 68,
            "name": "G#4",
            "ticks": 289440,
            "time": 210.348711,
            "velocity": 0.7874015748031497
          },
          {
            "duration": 0.3488370000000032,
            "durationTicks": 480,
            "midi": 52,
            "name": "E3",
            "ticks": 289920,
            "time": 210.697548,
            "velocity": 0.7874015748031497
          },
          {
            "duration": 0.3488370000000032,
            "durationTicks": 480,
            "midi": 59,
            "name": "B3",
            "ticks": 289920,
            "time": 210.697548,
            "velocity": 0.7874015748031497
          },
          {
            "duration": 0.3488370000000032,
            "durationTicks": 480,
            "midi": 66,
            "name": "F#4",
            "ticks": 289920,
            "time": 210.697548,
            "velocity": 0.7874015748031497
          },
          {
            "duration": 0.17151152499999966,
            "durationTicks": 236,
            "midi": 52,
            "name": "E3",
            "ticks": 290400,
            "time": 211.04638500000001,
            "velocity": 0.7874015748031497
          },
          {
            "duration": 0.1744185000000016,
            "durationTicks": 240,
            "midi": 59,
            "name": "B3",
            "ticks": 290400,
            "time": 211.04638500000001,
            "velocity": 0.7874015748031497
          },
          {
            "duration": 0.1744185000000016,
            "durationTicks": 240,
            "midi": 66,
            "name": "F#4",
            "ticks": 290400,
            "time": 211.04638500000001,
            "velocity": 0.7874015748031497
          },
          {
            "duration": 0.34883699999997475,
            "durationTicks": 480,
            "midi": 52,
            "name": "E3",
            "ticks": 290880,
            "time": 211.39522200000002,
            "velocity": 0.7874015748031497
          },
          {
            "duration": 0.34883699999997475,
            "durationTicks": 480,
            "midi": 59,
            "name": "B3",
            "ticks": 290880,
            "time": 211.39522200000002,
            "velocity": 0.7874015748031497
          },
          {
            "duration": 0.34883699999997475,
            "durationTicks": 480,
            "midi": 66,
            "name": "F#4",
            "ticks": 290880,
            "time": 211.39522200000002,
            "velocity": 0.7874015748031497
          },
          {
            "duration": 0.3488370000000032,
            "durationTicks": 480,
            "midi": 52,
            "name": "E3",
            "ticks": 291360,
            "time": 211.744059,
            "velocity": 0.7874015748031497
          },
          {
            "duration": 0.3488370000000032,
            "durationTicks": 480,
            "midi": 59,
            "name": "B3",
            "ticks": 291360,
            "time": 211.744059,
            "velocity": 0.7874015748031497
          },
          {
            "duration": 0.3488370000000032,
            "durationTicks": 480,
            "midi": 66,
            "name": "F#4",
            "ticks": 291360,
            "time": 211.744059,
            "velocity": 0.7874015748031497
          },
          {
            "duration": 0.3488370000000032,
            "durationTicks": 480,
            "midi": 52,
            "name": "E3",
            "ticks": 291840,
            "time": 212.092896,
            "velocity": 0.7874015748031497
          },
          {
            "duration": 0.3488370000000032,
            "durationTicks": 480,
            "midi": 59,
            "name": "B3",
            "ticks": 291840,
            "time": 212.092896,
            "velocity": 0.7874015748031497
          },
          {
            "duration": 0.3488370000000032,
            "durationTicks": 480,
            "midi": 66,
            "name": "F#4",
            "ticks": 291840,
            "time": 212.092896,
            "velocity": 0.7874015748031497
          },
          {
            "duration": 0.3488370000000032,
            "durationTicks": 480,
            "midi": 52,
            "name": "E3",
            "ticks": 292320,
            "time": 212.441733,
            "velocity": 0.7874015748031497
          },
          {
            "duration": 0.3488370000000032,
            "durationTicks": 480,
            "midi": 59,
            "name": "B3",
            "ticks": 292320,
            "time": 212.441733,
            "velocity": 0.7874015748031497
          },
          {
            "duration": 0.3488370000000032,
            "durationTicks": 480,
            "midi": 66,
            "name": "F#4",
            "ticks": 292320,
            "time": 212.441733,
            "velocity": 0.7874015748031497
          },
          {
            "duration": 0.3488370000000032,
            "durationTicks": 480,
            "midi": 52,
            "name": "E3",
            "ticks": 292800,
            "time": 212.79057,
            "velocity": 0.7874015748031497
          },
          {
            "duration": 0.3488370000000032,
            "durationTicks": 480,
            "midi": 59,
            "name": "B3",
            "ticks": 292800,
            "time": 212.79057,
            "velocity": 0.7874015748031497
          },
          {
            "duration": 0.3488370000000032,
            "durationTicks": 480,
            "midi": 66,
            "name": "F#4",
            "ticks": 292800,
            "time": 212.79057,
            "velocity": 0.7874015748031497
          },
          {
            "duration": 0.3488370000000032,
            "durationTicks": 480,
            "midi": 52,
            "name": "E3",
            "ticks": 293280,
            "time": 213.139407,
            "velocity": 0.7874015748031497
          },
          {
            "duration": 0.3488370000000032,
            "durationTicks": 480,
            "midi": 59,
            "name": "B3",
            "ticks": 293280,
            "time": 213.139407,
            "velocity": 0.7874015748031497
          },
          {
            "duration": 0.3488370000000032,
            "durationTicks": 480,
            "midi": 66,
            "name": "F#4",
            "ticks": 293280,
            "time": 213.139407,
            "velocity": 0.7874015748031497
          },
          {
            "duration": 0.3488370000000032,
            "durationTicks": 480,
            "midi": 47,
            "name": "B2",
            "ticks": 293760,
            "time": 213.488244,
            "velocity": 0.7874015748031497
          },
          {
            "duration": 0.3488370000000032,
            "durationTicks": 480,
            "midi": 54,
            "name": "F#3",
            "ticks": 293760,
            "time": 213.488244,
            "velocity": 0.7874015748031497
          },
          {
            "duration": 0.3488370000000032,
            "durationTicks": 480,
            "midi": 59,
            "name": "B3",
            "ticks": 293760,
            "time": 213.488244,
            "velocity": 0.7874015748031497
          },
          {
            "duration": 0.3488370000000032,
            "durationTicks": 480,
            "midi": 66,
            "name": "F#4",
            "ticks": 293760,
            "time": 213.488244,
            "velocity": 0.7874015748031497
          },
          {
            "duration": 0.3488370000000032,
            "durationTicks": 480,
            "midi": 47,
            "name": "B2",
            "ticks": 294240,
            "time": 213.837081,
            "velocity": 0.7874015748031497
          },
          {
            "duration": 0.3488370000000032,
            "durationTicks": 480,
            "midi": 54,
            "name": "F#3",
            "ticks": 294240,
            "time": 213.837081,
            "velocity": 0.7874015748031497
          },
          {
            "duration": 0.3488370000000032,
            "durationTicks": 480,
            "midi": 59,
            "name": "B3",
            "ticks": 294240,
            "time": 213.837081,
            "velocity": 0.7874015748031497
          },
          {
            "duration": 0.3488370000000032,
            "durationTicks": 480,
            "midi": 66,
            "name": "F#4",
            "ticks": 294240,
            "time": 213.837081,
            "velocity": 0.7874015748031497
          },
          {
            "duration": 0.3488370000000032,
            "durationTicks": 480,
            "midi": 47,
            "name": "B2",
            "ticks": 294720,
            "time": 214.18591800000002,
            "velocity": 0.7874015748031497
          },
          {
            "duration": 0.3488370000000032,
            "durationTicks": 480,
            "midi": 54,
            "name": "F#3",
            "ticks": 294720,
            "time": 214.18591800000002,
            "velocity": 0.7874015748031497
          },
          {
            "duration": 0.3488370000000032,
            "durationTicks": 480,
            "midi": 59,
            "name": "B3",
            "ticks": 294720,
            "time": 214.18591800000002,
            "velocity": 0.7874015748031497
          },
          {
            "duration": 0.3488370000000032,
            "durationTicks": 480,
            "midi": 66,
            "name": "F#4",
            "ticks": 294720,
            "time": 214.18591800000002,
            "velocity": 0.7874015748031497
          },
          {
            "duration": 0.34883699999997475,
            "durationTicks": 480,
            "midi": 47,
            "name": "B2",
            "ticks": 295200,
            "time": 214.53475500000002,
            "velocity": 0.7874015748031497
          },
          {
            "duration": 0.34883699999997475,
            "durationTicks": 480,
            "midi": 54,
            "name": "F#3",
            "ticks": 295200,
            "time": 214.53475500000002,
            "velocity": 0.7874015748031497
          },
          {
            "duration": 0.34883699999997475,
            "durationTicks": 480,
            "midi": 59,
            "name": "B3",
            "ticks": 295200,
            "time": 214.53475500000002,
            "velocity": 0.7874015748031497
          },
          {
            "duration": 0.34883699999997475,
            "durationTicks": 480,
            "midi": 66,
            "name": "F#4",
            "ticks": 295200,
            "time": 214.53475500000002,
            "velocity": 0.7874015748031497
          },
          {
            "duration": 0.3488370000000032,
            "durationTicks": 480,
            "midi": 47,
            "name": "B2",
            "ticks": 295680,
            "time": 214.883592,
            "velocity": 0.7874015748031497
          },
          {
            "duration": 0.3488370000000032,
            "durationTicks": 480,
            "midi": 54,
            "name": "F#3",
            "ticks": 295680,
            "time": 214.883592,
            "velocity": 0.7874015748031497
          },
          {
            "duration": 0.3488370000000032,
            "durationTicks": 480,
            "midi": 59,
            "name": "B3",
            "ticks": 295680,
            "time": 214.883592,
            "velocity": 0.7874015748031497
          },
          {
            "duration": 0.3488370000000032,
            "durationTicks": 480,
            "midi": 66,
            "name": "F#4",
            "ticks": 295680,
            "time": 214.883592,
            "velocity": 0.7874015748031497
          },
          {
            "duration": 0.3488370000000032,
            "durationTicks": 480,
            "midi": 47,
            "name": "B2",
            "ticks": 296160,
            "time": 215.232429,
            "velocity": 0.7874015748031497
          },
          {
            "duration": 0.3488370000000032,
            "durationTicks": 480,
            "midi": 54,
            "name": "F#3",
            "ticks": 296160,
            "time": 215.232429,
            "velocity": 0.7874015748031497
          },
          {
            "duration": 0.3488370000000032,
            "durationTicks": 480,
            "midi": 59,
            "name": "B3",
            "ticks": 296160,
            "time": 215.232429,
            "velocity": 0.7874015748031497
          },
          {
            "duration": 0.3488370000000032,
            "durationTicks": 480,
            "midi": 66,
            "name": "F#4",
            "ticks": 296160,
            "time": 215.232429,
            "velocity": 0.7874015748031497
          },
          {
            "duration": 0.3488370000000032,
            "durationTicks": 480,
            "midi": 47,
            "name": "B2",
            "ticks": 296640,
            "time": 215.581266,
            "velocity": 0.7874015748031497
          },
          {
            "duration": 0.3488370000000032,
            "durationTicks": 480,
            "midi": 54,
            "name": "F#3",
            "ticks": 296640,
            "time": 215.581266,
            "velocity": 0.7874015748031497
          },
          {
            "duration": 0.3488370000000032,
            "durationTicks": 480,
            "midi": 59,
            "name": "B3",
            "ticks": 296640,
            "time": 215.581266,
            "velocity": 0.7874015748031497
          },
          {
            "duration": 0.3488370000000032,
            "durationTicks": 480,
            "midi": 66,
            "name": "F#4",
            "ticks": 296640,
            "time": 215.581266,
            "velocity": 0.7874015748031497
          },
          {
            "duration": 0.3488370000000032,
            "durationTicks": 480,
            "midi": 47,
            "name": "B2",
            "ticks": 297120,
            "time": 215.930103,
            "velocity": 0.7874015748031497
          },
          {
            "duration": 0.3488370000000032,
            "durationTicks": 480,
            "midi": 54,
            "name": "F#3",
            "ticks": 297120,
            "time": 215.930103,
            "velocity": 0.7874015748031497
          },
          {
            "duration": 0.3488370000000032,
            "durationTicks": 480,
            "midi": 59,
            "name": "B3",
            "ticks": 297120,
            "time": 215.930103,
            "velocity": 0.7874015748031497
          },
          {
            "duration": 0.3488370000000032,
            "durationTicks": 480,
            "midi": 66,
            "name": "F#4",
            "ticks": 297120,
            "time": 215.930103,
            "velocity": 0.7874015748031497
          },
          {
            "duration": 0.3488370000000032,
            "durationTicks": 480,
            "midi": 47,
            "name": "B2",
            "ticks": 297600,
            "time": 216.27894,
            "velocity": 0.7874015748031497
          },
          {
            "duration": 0.3488370000000032,
            "durationTicks": 480,
            "midi": 54,
            "name": "F#3",
            "ticks": 297600,
            "time": 216.27894,
            "velocity": 0.7874015748031497
          },
          {
            "duration": 0.3488370000000032,
            "durationTicks": 480,
            "midi": 59,
            "name": "B3",
            "ticks": 297600,
            "time": 216.27894,
            "velocity": 0.7874015748031497
          },
          {
            "duration": 0.3488370000000032,
            "durationTicks": 480,
            "midi": 66,
            "name": "F#4",
            "ticks": 297600,
            "time": 216.27894,
            "velocity": 0.7874015748031497
          },
          {
            "duration": 0.3488370000000032,
            "durationTicks": 480,
            "midi": 47,
            "name": "B2",
            "ticks": 298080,
            "time": 216.627777,
            "velocity": 0.7874015748031497
          },
          {
            "duration": 0.3488370000000032,
            "durationTicks": 480,
            "midi": 54,
            "name": "F#3",
            "ticks": 298080,
            "time": 216.627777,
            "velocity": 0.7874015748031497
          },
          {
            "duration": 0.3488370000000032,
            "durationTicks": 480,
            "midi": 59,
            "name": "B3",
            "ticks": 298080,
            "time": 216.627777,
            "velocity": 0.7874015748031497
          },
          {
            "duration": 0.3488370000000032,
            "durationTicks": 480,
            "midi": 66,
            "name": "F#4",
            "ticks": 298080,
            "time": 216.627777,
            "velocity": 0.7874015748031497
          },
          {
            "duration": 0.3488370000000032,
            "durationTicks": 480,
            "midi": 47,
            "name": "B2",
            "ticks": 298560,
            "time": 216.976614,
            "velocity": 0.7874015748031497
          },
          {
            "duration": 0.3488370000000032,
            "durationTicks": 480,
            "midi": 54,
            "name": "F#3",
            "ticks": 298560,
            "time": 216.976614,
            "velocity": 0.7874015748031497
          },
          {
            "duration": 0.3488370000000032,
            "durationTicks": 480,
            "midi": 59,
            "name": "B3",
            "ticks": 298560,
            "time": 216.976614,
            "velocity": 0.7874015748031497
          },
          {
            "duration": 0.3488370000000032,
            "durationTicks": 480,
            "midi": 66,
            "name": "F#4",
            "ticks": 298560,
            "time": 216.976614,
            "velocity": 0.7874015748031497
          },
          {
            "duration": 0.3488370000000032,
            "durationTicks": 480,
            "midi": 47,
            "name": "B2",
            "ticks": 299040,
            "time": 217.32545100000002,
            "velocity": 0.7874015748031497
          },
          {
            "duration": 0.3488370000000032,
            "durationTicks": 480,
            "midi": 54,
            "name": "F#3",
            "ticks": 299040,
            "time": 217.32545100000002,
            "velocity": 0.7874015748031497
          },
          {
            "duration": 0.3488370000000032,
            "durationTicks": 480,
            "midi": 59,
            "name": "B3",
            "ticks": 299040,
            "time": 217.32545100000002,
            "velocity": 0.7874015748031497
          },
          {
            "duration": 0.3488370000000032,
            "durationTicks": 480,
            "midi": 66,
            "name": "F#4",
            "ticks": 299040,
            "time": 217.32545100000002,
            "velocity": 0.7874015748031497
          },
          {
            "duration": 0.34883699999997475,
            "durationTicks": 480,
            "midi": 47,
            "name": "B2",
            "ticks": 299520,
            "time": 217.67428800000002,
            "velocity": 0.7874015748031497
          },
          {
            "duration": 0.34883699999997475,
            "durationTicks": 480,
            "midi": 54,
            "name": "F#3",
            "ticks": 299520,
            "time": 217.67428800000002,
            "velocity": 0.7874015748031497
          },
          {
            "duration": 0.34883699999997475,
            "durationTicks": 480,
            "midi": 59,
            "name": "B3",
            "ticks": 299520,
            "time": 217.67428800000002,
            "velocity": 0.7874015748031497
          },
          {
            "duration": 0.34883699999997475,
            "durationTicks": 480,
            "midi": 66,
            "name": "F#4",
            "ticks": 299520,
            "time": 217.67428800000002,
            "velocity": 0.7874015748031497
          },
          {
            "duration": 0.3488370000000032,
            "durationTicks": 480,
            "midi": 47,
            "name": "B2",
            "ticks": 300000,
            "time": 218.023125,
            "velocity": 0.7874015748031497
          },
          {
            "duration": 0.3488370000000032,
            "durationTicks": 480,
            "midi": 54,
            "name": "F#3",
            "ticks": 300000,
            "time": 218.023125,
            "velocity": 0.7874015748031497
          },
          {
            "duration": 0.3488370000000032,
            "durationTicks": 480,
            "midi": 59,
            "name": "B3",
            "ticks": 300000,
            "time": 218.023125,
            "velocity": 0.7874015748031497
          },
          {
            "duration": 0.3488370000000032,
            "durationTicks": 480,
            "midi": 66,
            "name": "F#4",
            "ticks": 300000,
            "time": 218.023125,
            "velocity": 0.7874015748031497
          },
          {
            "duration": 0.3488370000000032,
            "durationTicks": 480,
            "midi": 47,
            "name": "B2",
            "ticks": 300480,
            "time": 218.371962,
            "velocity": 0.7874015748031497
          },
          {
            "duration": 0.3488370000000032,
            "durationTicks": 480,
            "midi": 54,
            "name": "F#3",
            "ticks": 300480,
            "time": 218.371962,
            "velocity": 0.7874015748031497
          },
          {
            "duration": 0.3488370000000032,
            "durationTicks": 480,
            "midi": 59,
            "name": "B3",
            "ticks": 300480,
            "time": 218.371962,
            "velocity": 0.7874015748031497
          },
          {
            "duration": 0.3488370000000032,
            "durationTicks": 480,
            "midi": 66,
            "name": "F#4",
            "ticks": 300480,
            "time": 218.371962,
            "velocity": 0.7874015748031497
          },
          {
            "duration": 0.3488370000000032,
            "durationTicks": 480,
            "midi": 54,
            "name": "F#3",
            "ticks": 300960,
            "time": 218.720799,
            "velocity": 0.7874015748031497
          },
          {
            "duration": 0.3488370000000032,
            "durationTicks": 480,
            "midi": 59,
            "name": "B3",
            "ticks": 300960,
            "time": 218.720799,
            "velocity": 0.7874015748031497
          },
          {
            "duration": 0.3488370000000032,
            "durationTicks": 480,
            "midi": 66,
            "name": "F#4",
            "ticks": 300960,
            "time": 218.720799,
            "velocity": 0.7874015748031497
          },
          {
            "duration": 0.3488370000000032,
            "durationTicks": 480,
            "midi": 54,
            "name": "F#3",
            "ticks": 301440,
            "time": 219.069636,
            "velocity": 0.7874015748031497
          },
          {
            "duration": 0.3488370000000032,
            "durationTicks": 480,
            "midi": 59,
            "name": "B3",
            "ticks": 301440,
            "time": 219.069636,
            "velocity": 0.7874015748031497
          },
          {
            "duration": 0.3488370000000032,
            "durationTicks": 480,
            "midi": 66,
            "name": "F#4",
            "ticks": 301440,
            "time": 219.069636,
            "velocity": 0.7874015748031497
          },
          {
            "duration": 0.3488370000000032,
            "durationTicks": 480,
            "midi": 71,
            "name": "B4",
            "ticks": 301440,
            "time": 219.069636,
            "velocity": 0.7874015748031497
          },
          {
            "duration": 0.3488370000000032,
            "durationTicks": 480,
            "midi": 54,
            "name": "F#3",
            "ticks": 301920,
            "time": 219.418473,
            "velocity": 0.7874015748031497
          },
          {
            "duration": 0.3488370000000032,
            "durationTicks": 480,
            "midi": 59,
            "name": "B3",
            "ticks": 301920,
            "time": 219.418473,
            "velocity": 0.7874015748031497
          },
          {
            "duration": 0.3488370000000032,
            "durationTicks": 480,
            "midi": 66,
            "name": "F#4",
            "ticks": 301920,
            "time": 219.418473,
            "velocity": 0.7874015748031497
          },
          {
            "duration": 0.3488370000000032,
            "durationTicks": 480,
            "midi": 71,
            "name": "B4",
            "ticks": 301920,
            "time": 219.418473,
            "velocity": 0.7874015748031497
          },
          {
            "duration": 0.3488370000000032,
            "durationTicks": 480,
            "midi": 54,
            "name": "F#3",
            "ticks": 302400,
            "time": 219.76731,
            "velocity": 0.7874015748031497
          },
          {
            "duration": 0.3488370000000032,
            "durationTicks": 480,
            "midi": 59,
            "name": "B3",
            "ticks": 302400,
            "time": 219.76731,
            "velocity": 0.7874015748031497
          },
          {
            "duration": 0.3488370000000032,
            "durationTicks": 480,
            "midi": 66,
            "name": "F#4",
            "ticks": 302400,
            "time": 219.76731,
            "velocity": 0.7874015748031497
          },
          {
            "duration": 0.3488370000000032,
            "durationTicks": 480,
            "midi": 71,
            "name": "B4",
            "ticks": 302400,
            "time": 219.76731,
            "velocity": 0.7874015748031497
          },
          {
            "duration": 0.3488370000000032,
            "durationTicks": 480,
            "midi": 54,
            "name": "F#3",
            "ticks": 302880,
            "time": 220.116147,
            "velocity": 0.7874015748031497
          },
          {
            "duration": 0.3488370000000032,
            "durationTicks": 480,
            "midi": 59,
            "name": "B3",
            "ticks": 302880,
            "time": 220.116147,
            "velocity": 0.7874015748031497
          },
          {
            "duration": 0.3488370000000032,
            "durationTicks": 480,
            "midi": 66,
            "name": "F#4",
            "ticks": 302880,
            "time": 220.116147,
            "velocity": 0.7874015748031497
          },
          {
            "duration": 0.3488370000000032,
            "durationTicks": 480,
            "midi": 71,
            "name": "B4",
            "ticks": 302880,
            "time": 220.116147,
            "velocity": 0.7874015748031497
          },
          {
            "duration": 0.3488370000000032,
            "durationTicks": 480,
            "midi": 54,
            "name": "F#3",
            "ticks": 303360,
            "time": 220.46498400000002,
            "velocity": 0.7874015748031497
          },
          {
            "duration": 0.3488370000000032,
            "durationTicks": 480,
            "midi": 59,
            "name": "B3",
            "ticks": 303360,
            "time": 220.46498400000002,
            "velocity": 0.7874015748031497
          },
          {
            "duration": 0.3488370000000032,
            "durationTicks": 480,
            "midi": 66,
            "name": "F#4",
            "ticks": 303360,
            "time": 220.46498400000002,
            "velocity": 0.7874015748031497
          },
          {
            "duration": 0.3488370000000032,
            "durationTicks": 480,
            "midi": 71,
            "name": "B4",
            "ticks": 303360,
            "time": 220.46498400000002,
            "velocity": 0.7874015748031497
          },
          {
            "duration": 0.34883699999997475,
            "durationTicks": 480,
            "midi": 54,
            "name": "F#3",
            "ticks": 303840,
            "time": 220.81382100000002,
            "velocity": 0.7874015748031497
          },
          {
            "duration": 0.34883699999997475,
            "durationTicks": 480,
            "midi": 59,
            "name": "B3",
            "ticks": 303840,
            "time": 220.81382100000002,
            "velocity": 0.7874015748031497
          },
          {
            "duration": 0.34883699999997475,
            "durationTicks": 480,
            "midi": 66,
            "name": "F#4",
            "ticks": 303840,
            "time": 220.81382100000002,
            "velocity": 0.7874015748031497
          },
          {
            "duration": 0.34883699999997475,
            "durationTicks": 480,
            "midi": 71,
            "name": "B4",
            "ticks": 303840,
            "time": 220.81382100000002,
            "velocity": 0.7874015748031497
          },
          {
            "duration": 0.3488370000000032,
            "durationTicks": 480,
            "midi": 54,
            "name": "F#3",
            "ticks": 304320,
            "time": 221.162658,
            "velocity": 0.7874015748031497
          },
          {
            "duration": 0.3488370000000032,
            "durationTicks": 480,
            "midi": 59,
            "name": "B3",
            "ticks": 304320,
            "time": 221.162658,
            "velocity": 0.7874015748031497
          },
          {
            "duration": 0.3488370000000032,
            "durationTicks": 480,
            "midi": 66,
            "name": "F#4",
            "ticks": 304320,
            "time": 221.162658,
            "velocity": 0.7874015748031497
          },
          {
            "duration": 0.3488370000000032,
            "durationTicks": 480,
            "midi": 71,
            "name": "B4",
            "ticks": 304320,
            "time": 221.162658,
            "velocity": 0.7874015748031497
          },
          {
            "duration": 0.3488370000000032,
            "durationTicks": 480,
            "midi": 54,
            "name": "F#3",
            "ticks": 304800,
            "time": 221.511495,
            "velocity": 0.7874015748031497
          },
          {
            "duration": 0.3488370000000032,
            "durationTicks": 480,
            "midi": 59,
            "name": "B3",
            "ticks": 304800,
            "time": 221.511495,
            "velocity": 0.7874015748031497
          },
          {
            "duration": 0.3488370000000032,
            "durationTicks": 480,
            "midi": 66,
            "name": "F#4",
            "ticks": 304800,
            "time": 221.511495,
            "velocity": 0.7874015748031497
          },
          {
            "duration": 0.3488370000000032,
            "durationTicks": 480,
            "midi": 71,
            "name": "B4",
            "ticks": 304800,
            "time": 221.511495,
            "velocity": 0.7874015748031497
          },
          {
            "duration": 0.3488370000000032,
            "durationTicks": 480,
            "midi": 54,
            "name": "F#3",
            "ticks": 305280,
            "time": 221.860332,
            "velocity": 0.7874015748031497
          },
          {
            "duration": 0.3488370000000032,
            "durationTicks": 480,
            "midi": 59,
            "name": "B3",
            "ticks": 305280,
            "time": 221.860332,
            "velocity": 0.7874015748031497
          },
          {
            "duration": 0.3488370000000032,
            "durationTicks": 480,
            "midi": 66,
            "name": "F#4",
            "ticks": 305280,
            "time": 221.860332,
            "velocity": 0.7874015748031497
          },
          {
            "duration": 0.3488370000000032,
            "durationTicks": 480,
            "midi": 71,
            "name": "B4",
            "ticks": 305280,
            "time": 221.860332,
            "velocity": 0.7874015748031497
          },
          {
            "duration": 0.3488370000000032,
            "durationTicks": 480,
            "midi": 54,
            "name": "F#3",
            "ticks": 305760,
            "time": 222.209169,
            "velocity": 0.7874015748031497
          },
          {
            "duration": 0.3488370000000032,
            "durationTicks": 480,
            "midi": 59,
            "name": "B3",
            "ticks": 305760,
            "time": 222.209169,
            "velocity": 0.7874015748031497
          },
          {
            "duration": 0.3488370000000032,
            "durationTicks": 480,
            "midi": 66,
            "name": "F#4",
            "ticks": 305760,
            "time": 222.209169,
            "velocity": 0.7874015748031497
          },
          {
            "duration": 0.3488370000000032,
            "durationTicks": 480,
            "midi": 71,
            "name": "B4",
            "ticks": 305760,
            "time": 222.209169,
            "velocity": 0.7874015748031497
          },
          {
            "duration": 0.3488370000000032,
            "durationTicks": 480,
            "midi": 54,
            "name": "F#3",
            "ticks": 306240,
            "time": 222.558006,
            "velocity": 0.7874015748031497
          },
          {
            "duration": 0.3488370000000032,
            "durationTicks": 480,
            "midi": 59,
            "name": "B3",
            "ticks": 306240,
            "time": 222.558006,
            "velocity": 0.7874015748031497
          },
          {
            "duration": 0.3488370000000032,
            "durationTicks": 480,
            "midi": 66,
            "name": "F#4",
            "ticks": 306240,
            "time": 222.558006,
            "velocity": 0.7874015748031497
          },
          {
            "duration": 0.3488370000000032,
            "durationTicks": 480,
            "midi": 71,
            "name": "B4",
            "ticks": 306240,
            "time": 222.558006,
            "velocity": 0.7874015748031497
          },
          {
            "duration": 0.3488370000000032,
            "durationTicks": 480,
            "midi": 54,
            "name": "F#3",
            "ticks": 306720,
            "time": 222.906843,
            "velocity": 0.7874015748031497
          },
          {
            "duration": 0.3488370000000032,
            "durationTicks": 480,
            "midi": 59,
            "name": "B3",
            "ticks": 306720,
            "time": 222.906843,
            "velocity": 0.7874015748031497
          },
          {
            "duration": 0.3488370000000032,
            "durationTicks": 480,
            "midi": 66,
            "name": "F#4",
            "ticks": 306720,
            "time": 222.906843,
            "velocity": 0.7874015748031497
          },
          {
            "duration": 0.3488370000000032,
            "durationTicks": 480,
            "midi": 71,
            "name": "B4",
            "ticks": 306720,
            "time": 222.906843,
            "velocity": 0.7874015748031497
          },
          {
            "duration": 0.3488370000000032,
            "durationTicks": 480,
            "midi": 54,
            "name": "F#3",
            "ticks": 307200,
            "time": 223.25568,
            "velocity": 0.7874015748031497
          },
          {
            "duration": 0.3488370000000032,
            "durationTicks": 480,
            "midi": 59,
            "name": "B3",
            "ticks": 307200,
            "time": 223.25568,
            "velocity": 0.7874015748031497
          },
          {
            "duration": 0.3488370000000032,
            "durationTicks": 480,
            "midi": 66,
            "name": "F#4",
            "ticks": 307200,
            "time": 223.25568,
            "velocity": 0.7874015748031497
          },
          {
            "duration": 0.3488370000000032,
            "durationTicks": 480,
            "midi": 71,
            "name": "B4",
            "ticks": 307200,
            "time": 223.25568,
            "velocity": 0.7874015748031497
          },
          {
            "duration": 0.3488370000000032,
            "durationTicks": 480,
            "midi": 54,
            "name": "F#3",
            "ticks": 307680,
            "time": 223.60451700000002,
            "velocity": 0.7874015748031497
          },
          {
            "duration": 0.3488370000000032,
            "durationTicks": 480,
            "midi": 59,
            "name": "B3",
            "ticks": 307680,
            "time": 223.60451700000002,
            "velocity": 0.7874015748031497
          },
          {
            "duration": 0.3488370000000032,
            "durationTicks": 480,
            "midi": 66,
            "name": "F#4",
            "ticks": 307680,
            "time": 223.60451700000002,
            "velocity": 0.7874015748031497
          },
          {
            "duration": 0.3488370000000032,
            "durationTicks": 480,
            "midi": 71,
            "name": "B4",
            "ticks": 307680,
            "time": 223.60451700000002,
            "velocity": 0.7874015748031497
          },
          {
            "duration": 0.34883699999997475,
            "durationTicks": 480,
            "midi": 54,
            "name": "F#3",
            "ticks": 308160,
            "time": 223.95335400000002,
            "velocity": 0.7874015748031497
          },
          {
            "duration": 0.34883699999997475,
            "durationTicks": 480,
            "midi": 59,
            "name": "B3",
            "ticks": 308160,
            "time": 223.95335400000002,
            "velocity": 0.7874015748031497
          },
          {
            "duration": 0.34883699999997475,
            "durationTicks": 480,
            "midi": 66,
            "name": "F#4",
            "ticks": 308160,
            "time": 223.95335400000002,
            "velocity": 0.7874015748031497
          },
          {
            "duration": 0.34883699999997475,
            "durationTicks": 480,
            "midi": 71,
            "name": "B4",
            "ticks": 308160,
            "time": 223.95335400000002,
            "velocity": 0.7874015748031497
          },
          {
            "duration": 0.3488370000000032,
            "durationTicks": 480,
            "midi": 54,
            "name": "F#3",
            "ticks": 308640,
            "time": 224.302191,
            "velocity": 0.7874015748031497
          },
          {
            "duration": 0.3488370000000032,
            "durationTicks": 480,
            "midi": 59,
            "name": "B3",
            "ticks": 308640,
            "time": 224.302191,
            "velocity": 0.7874015748031497
          },
          {
            "duration": 0.3488370000000032,
            "durationTicks": 480,
            "midi": 66,
            "name": "F#4",
            "ticks": 308640,
            "time": 224.302191,
            "velocity": 0.7874015748031497
          },
          {
            "duration": 0.3488370000000032,
            "durationTicks": 480,
            "midi": 71,
            "name": "B4",
            "ticks": 308640,
            "time": 224.302191,
            "velocity": 0.7874015748031497
          },
          {
            "duration": 0.3488370000000032,
            "durationTicks": 480,
            "midi": 54,
            "name": "F#3",
            "ticks": 309120,
            "time": 224.651028,
            "velocity": 0.7874015748031497
          },
          {
            "duration": 0.3488370000000032,
            "durationTicks": 480,
            "midi": 61,
            "name": "C#4",
            "ticks": 309120,
            "time": 224.651028,
            "velocity": 0.7874015748031497
          },
          {
            "duration": 0.3488370000000032,
            "durationTicks": 480,
            "midi": 66,
            "name": "F#4",
            "ticks": 309120,
            "time": 224.651028,
            "velocity": 0.7874015748031497
          },
          {
            "duration": 0.3488370000000032,
            "durationTicks": 480,
            "midi": 54,
            "name": "F#3",
            "ticks": 309600,
            "time": 224.999865,
            "velocity": 0.7874015748031497
          },
          {
            "duration": 0.3488370000000032,
            "durationTicks": 480,
            "midi": 59,
            "name": "B3",
            "ticks": 309600,
            "time": 224.999865,
            "velocity": 0.7874015748031497
          },
          {
            "duration": 0.3488370000000032,
            "durationTicks": 480,
            "midi": 66,
            "name": "F#4",
            "ticks": 309600,
            "time": 224.999865,
            "velocity": 0.7874015748031497
          },
          {
            "duration": 0.3488370000000032,
            "durationTicks": 480,
            "midi": 54,
            "name": "F#3",
            "ticks": 310080,
            "time": 225.348702,
            "velocity": 0.7874015748031497
          },
          {
            "duration": 0.3488370000000032,
            "durationTicks": 480,
            "midi": 61,
            "name": "C#4",
            "ticks": 310080,
            "time": 225.348702,
            "velocity": 0.7874015748031497
          },
          {
            "duration": 0.3488370000000032,
            "durationTicks": 480,
            "midi": 66,
            "name": "F#4",
            "ticks": 310080,
            "time": 225.348702,
            "velocity": 0.7874015748031497
          },
          {
            "duration": 0.3488370000000032,
            "durationTicks": 480,
            "midi": 54,
            "name": "F#3",
            "ticks": 310560,
            "time": 225.697539,
            "velocity": 0.7874015748031497
          },
          {
            "duration": 0.3488370000000032,
            "durationTicks": 480,
            "midi": 59,
            "name": "B3",
            "ticks": 310560,
            "time": 225.697539,
            "velocity": 0.7874015748031497
          },
          {
            "duration": 0.3488370000000032,
            "durationTicks": 480,
            "midi": 66,
            "name": "F#4",
            "ticks": 310560,
            "time": 225.697539,
            "velocity": 0.7874015748031497
          },
          {
            "duration": 0.3488370000000032,
            "durationTicks": 480,
            "midi": 54,
            "name": "F#3",
            "ticks": 311040,
            "time": 226.046376,
            "velocity": 0.7874015748031497
          },
          {
            "duration": 0.3488370000000032,
            "durationTicks": 480,
            "midi": 61,
            "name": "C#4",
            "ticks": 311040,
            "time": 226.046376,
            "velocity": 0.7874015748031497
          },
          {
            "duration": 0.3488370000000032,
            "durationTicks": 480,
            "midi": 66,
            "name": "F#4",
            "ticks": 311040,
            "time": 226.046376,
            "velocity": 0.7874015748031497
          },
          {
            "duration": 0.3488370000000032,
            "durationTicks": 480,
            "midi": 54,
            "name": "F#3",
            "ticks": 311520,
            "time": 226.395213,
            "velocity": 0.7874015748031497
          },
          {
            "duration": 0.3488370000000032,
            "durationTicks": 480,
            "midi": 59,
            "name": "B3",
            "ticks": 311520,
            "time": 226.395213,
            "velocity": 0.7874015748031497
          },
          {
            "duration": 0.3488370000000032,
            "durationTicks": 480,
            "midi": 66,
            "name": "F#4",
            "ticks": 311520,
            "time": 226.395213,
            "velocity": 0.7874015748031497
          },
          {
            "duration": 0.3488370000000032,
            "durationTicks": 480,
            "midi": 54,
            "name": "F#3",
            "ticks": 312000,
            "time": 226.74405000000002,
            "velocity": 0.7874015748031497
          },
          {
            "duration": 0.3488370000000032,
            "durationTicks": 480,
            "midi": 61,
            "name": "C#4",
            "ticks": 312000,
            "time": 226.74405000000002,
            "velocity": 0.7874015748031497
          },
          {
            "duration": 0.3488370000000032,
            "durationTicks": 480,
            "midi": 66,
            "name": "F#4",
            "ticks": 312000,
            "time": 226.74405000000002,
            "velocity": 0.7874015748031497
          },
          {
            "duration": 0.34883699999997475,
            "durationTicks": 480,
            "midi": 54,
            "name": "F#3",
            "ticks": 312480,
            "time": 227.09288700000002,
            "velocity": 0.7874015748031497
          },
          {
            "duration": 0.34883699999997475,
            "durationTicks": 480,
            "midi": 59,
            "name": "B3",
            "ticks": 312480,
            "time": 227.09288700000002,
            "velocity": 0.7874015748031497
          },
          {
            "duration": 0.34883699999997475,
            "durationTicks": 480,
            "midi": 66,
            "name": "F#4",
            "ticks": 312480,
            "time": 227.09288700000002,
            "velocity": 0.7874015748031497
          },
          {
            "duration": 0.3488370000000032,
            "durationTicks": 480,
            "midi": 54,
            "name": "F#3",
            "ticks": 312960,
            "time": 227.441724,
            "velocity": 0.7874015748031497
          },
          {
            "duration": 0.3488370000000032,
            "durationTicks": 480,
            "midi": 59,
            "name": "B3",
            "ticks": 312960,
            "time": 227.441724,
            "velocity": 0.7874015748031497
          },
          {
            "duration": 0.3488370000000032,
            "durationTicks": 480,
            "midi": 66,
            "name": "F#4",
            "ticks": 312960,
            "time": 227.441724,
            "velocity": 0.7874015748031497
          },
          {
            "duration": 0.3488370000000032,
            "durationTicks": 480,
            "midi": 54,
            "name": "F#3",
            "ticks": 313440,
            "time": 227.790561,
            "velocity": 0.7874015748031497
          },
          {
            "duration": 0.3488370000000032,
            "durationTicks": 480,
            "midi": 59,
            "name": "B3",
            "ticks": 313440,
            "time": 227.790561,
            "velocity": 0.7874015748031497
          },
          {
            "duration": 0.3488370000000032,
            "durationTicks": 480,
            "midi": 66,
            "name": "F#4",
            "ticks": 313440,
            "time": 227.790561,
            "velocity": 0.7874015748031497
          },
          {
            "duration": 0.3488370000000032,
            "durationTicks": 480,
            "midi": 54,
            "name": "F#3",
            "ticks": 313920,
            "time": 228.139398,
            "velocity": 0.7874015748031497
          },
          {
            "duration": 0.3488370000000032,
            "durationTicks": 480,
            "midi": 59,
            "name": "B3",
            "ticks": 313920,
            "time": 228.139398,
            "velocity": 0.7874015748031497
          },
          {
            "duration": 0.3488370000000032,
            "durationTicks": 480,
            "midi": 66,
            "name": "F#4",
            "ticks": 313920,
            "time": 228.139398,
            "velocity": 0.7874015748031497
          },
          {
            "duration": 0.3488370000000032,
            "durationTicks": 480,
            "midi": 54,
            "name": "F#3",
            "ticks": 314400,
            "time": 228.488235,
            "velocity": 0.7874015748031497
          },
          {
            "duration": 0.3488370000000032,
            "durationTicks": 480,
            "midi": 59,
            "name": "B3",
            "ticks": 314400,
            "time": 228.488235,
            "velocity": 0.7874015748031497
          },
          {
            "duration": 0.3488370000000032,
            "durationTicks": 480,
            "midi": 66,
            "name": "F#4",
            "ticks": 314400,
            "time": 228.488235,
            "velocity": 0.7874015748031497
          },
          {
            "duration": 0.3488370000000032,
            "durationTicks": 480,
            "midi": 54,
            "name": "F#3",
            "ticks": 314880,
            "time": 228.837072,
            "velocity": 0.7874015748031497
          },
          {
            "duration": 0.3517439750000051,
            "durationTicks": 484,
            "midi": 59,
            "name": "B3",
            "ticks": 314880,
            "time": 228.837072,
            "velocity": 0.7874015748031497
          },
          {
            "duration": 0.3488370000000032,
            "durationTicks": 480,
            "midi": 66,
            "name": "F#4",
            "ticks": 314880,
            "time": 228.837072,
            "velocity": 0.7874015748031497
          },
          {
            "duration": 0.3488370000000032,
            "durationTicks": 480,
            "midi": 54,
            "name": "F#3",
            "ticks": 315360,
            "time": 229.185909,
            "velocity": 0.7874015748031497
          },
          {
            "duration": 0.3488370000000032,
            "durationTicks": 480,
            "midi": 59,
            "name": "B3",
            "ticks": 315360,
            "time": 229.185909,
            "velocity": 0.7874015748031497
          },
          {
            "duration": 0.3488370000000032,
            "durationTicks": 480,
            "midi": 66,
            "name": "F#4",
            "ticks": 315360,
            "time": 229.185909,
            "velocity": 0.7874015748031497
          },
          {
            "duration": 0.3488370000000032,
            "durationTicks": 480,
            "midi": 54,
            "name": "F#3",
            "ticks": 315840,
            "time": 229.534746,
            "velocity": 0.7874015748031497
          },
          {
            "duration": 0.3488370000000032,
            "durationTicks": 480,
            "midi": 59,
            "name": "B3",
            "ticks": 315840,
            "time": 229.534746,
            "velocity": 0.7874015748031497
          },
          {
            "duration": 0.3488370000000032,
            "durationTicks": 480,
            "midi": 66,
            "name": "F#4",
            "ticks": 315840,
            "time": 229.534746,
            "velocity": 0.7874015748031497
          },
          {
            "duration": 0.3488370000000032,
            "durationTicks": 480,
            "midi": 54,
            "name": "F#3",
            "ticks": 316320,
            "time": 229.88358300000002,
            "velocity": 0.7874015748031497
          },
          {
            "duration": 0.3488370000000032,
            "durationTicks": 480,
            "midi": 59,
            "name": "B3",
            "ticks": 316320,
            "time": 229.88358300000002,
            "velocity": 0.7874015748031497
          },
          {
            "duration": 0.3488370000000032,
            "durationTicks": 480,
            "midi": 66,
            "name": "F#4",
            "ticks": 316320,
            "time": 229.88358300000002,
            "velocity": 0.7874015748031497
          },
          {
            "duration": 0.34883699999997475,
            "durationTicks": 480,
            "midi": 52,
            "name": "E3",
            "ticks": 316800,
            "time": 230.23242000000002,
            "velocity": 0.7874015748031497
          },
          {
            "duration": 0.34883699999997475,
            "durationTicks": 480,
            "midi": 59,
            "name": "B3",
            "ticks": 316800,
            "time": 230.23242000000002,
            "velocity": 0.7874015748031497
          },
          {
            "duration": 0.34883699999997475,
            "durationTicks": 480,
            "midi": 68,
            "name": "G#4",
            "ticks": 316800,
            "time": 230.23242000000002,
            "velocity": 0.7874015748031497
          },
          {
            "duration": 0.3488370000000032,
            "durationTicks": 480,
            "midi": 52,
            "name": "E3",
            "ticks": 317280,
            "time": 230.581257,
            "velocity": 0.7874015748031497
          },
          {
            "duration": 0.3488370000000032,
            "durationTicks": 480,
            "midi": 59,
            "name": "B3",
            "ticks": 317280,
            "time": 230.581257,
            "velocity": 0.7874015748031497
          },
          {
            "duration": 0.3488370000000032,
            "durationTicks": 480,
            "midi": 66,
            "name": "F#4",
            "ticks": 317280,
            "time": 230.581257,
            "velocity": 0.7874015748031497
          },
          {
            "duration": 0.3488370000000032,
            "durationTicks": 480,
            "midi": 52,
            "name": "E3",
            "ticks": 317760,
            "time": 230.930094,
            "velocity": 0.7874015748031497
          },
          {
            "duration": 0.3488370000000032,
            "durationTicks": 480,
            "midi": 59,
            "name": "B3",
            "ticks": 317760,
            "time": 230.930094,
            "velocity": 0.7874015748031497
          },
          {
            "duration": 0.3488370000000032,
            "durationTicks": 480,
            "midi": 66,
            "name": "F#4",
            "ticks": 317760,
            "time": 230.930094,
            "velocity": 0.7874015748031497
          },
          {
            "duration": 0.3488370000000032,
            "durationTicks": 480,
            "midi": 52,
            "name": "E3",
            "ticks": 318240,
            "time": 231.278931,
            "velocity": 0.7874015748031497
          },
          {
            "duration": 0.3488370000000032,
            "durationTicks": 480,
            "midi": 59,
            "name": "B3",
            "ticks": 318240,
            "time": 231.278931,
            "velocity": 0.7874015748031497
          },
          {
            "duration": 0.3488370000000032,
            "durationTicks": 480,
            "midi": 68,
            "name": "G#4",
            "ticks": 318240,
            "time": 231.278931,
            "velocity": 0.7874015748031497
          },
          {
            "duration": 0.3488370000000032,
            "durationTicks": 480,
            "midi": 52,
            "name": "E3",
            "ticks": 318720,
            "time": 231.627768,
            "velocity": 0.7874015748031497
          },
          {
            "duration": 0.3488370000000032,
            "durationTicks": 480,
            "midi": 59,
            "name": "B3",
            "ticks": 318720,
            "time": 231.627768,
            "velocity": 0.7874015748031497
          },
          {
            "duration": 0.3488370000000032,
            "durationTicks": 480,
            "midi": 68,
            "name": "G#4",
            "ticks": 318720,
            "time": 231.627768,
            "velocity": 0.7874015748031497
          },
          {
            "duration": 0.3488370000000032,
            "durationTicks": 480,
            "midi": 52,
            "name": "E3",
            "ticks": 319200,
            "time": 231.976605,
            "velocity": 0.7874015748031497
          },
          {
            "duration": 0.3488370000000032,
            "durationTicks": 480,
            "midi": 59,
            "name": "B3",
            "ticks": 319200,
            "time": 231.976605,
            "velocity": 0.7874015748031497
          },
          {
            "duration": 0.3488370000000032,
            "durationTicks": 480,
            "midi": 66,
            "name": "F#4",
            "ticks": 319200,
            "time": 231.976605,
            "velocity": 0.7874015748031497
          },
          {
            "duration": 0.3488370000000032,
            "durationTicks": 480,
            "midi": 52,
            "name": "E3",
            "ticks": 319680,
            "time": 232.325442,
            "velocity": 0.7874015748031497
          },
          {
            "duration": 0.3488370000000032,
            "durationTicks": 480,
            "midi": 59,
            "name": "B3",
            "ticks": 319680,
            "time": 232.325442,
            "velocity": 0.7874015748031497
          },
          {
            "duration": 0.3488370000000032,
            "durationTicks": 480,
            "midi": 66,
            "name": "F#4",
            "ticks": 319680,
            "time": 232.325442,
            "velocity": 0.7874015748031497
          },
          {
            "duration": 0.3488370000000032,
            "durationTicks": 480,
            "midi": 52,
            "name": "E3",
            "ticks": 320160,
            "time": 232.674279,
            "velocity": 0.7874015748031497
          },
          {
            "duration": 0.3488370000000032,
            "durationTicks": 480,
            "midi": 59,
            "name": "B3",
            "ticks": 320160,
            "time": 232.674279,
            "velocity": 0.7874015748031497
          },
          {
            "duration": 0.3488370000000032,
            "durationTicks": 480,
            "midi": 68,
            "name": "G#4",
            "ticks": 320160,
            "time": 232.674279,
            "velocity": 0.7874015748031497
          },
          {
            "duration": 0.3488370000000032,
            "durationTicks": 480,
            "midi": 52,
            "name": "E3",
            "ticks": 320640,
            "time": 233.02311600000002,
            "velocity": 0.7874015748031497
          },
          {
            "duration": 0.3488370000000032,
            "durationTicks": 480,
            "midi": 59,
            "name": "B3",
            "ticks": 320640,
            "time": 233.02311600000002,
            "velocity": 0.7874015748031497
          },
          {
            "duration": 0.3488370000000032,
            "durationTicks": 480,
            "midi": 66,
            "name": "F#4",
            "ticks": 320640,
            "time": 233.02311600000002,
            "velocity": 0.7874015748031497
          },
          {
            "duration": 0.17151152499999966,
            "durationTicks": 236,
            "midi": 52,
            "name": "E3",
            "ticks": 321120,
            "time": 233.37195300000002,
            "velocity": 0.7874015748031497
          },
          {
            "duration": 0.17441849999997316,
            "durationTicks": 240,
            "midi": 59,
            "name": "B3",
            "ticks": 321120,
            "time": 233.37195300000002,
            "velocity": 0.7874015748031497
          },
          {
            "duration": 0.17441849999997316,
            "durationTicks": 240,
            "midi": 66,
            "name": "F#4",
            "ticks": 321120,
            "time": 233.37195300000002,
            "velocity": 0.7874015748031497
          },
          {
            "duration": 0.3488370000000032,
            "durationTicks": 480,
            "midi": 52,
            "name": "E3",
            "ticks": 321600,
            "time": 233.72079,
            "velocity": 0.7874015748031497
          },
          {
            "duration": 0.3488370000000032,
            "durationTicks": 480,
            "midi": 59,
            "name": "B3",
            "ticks": 321600,
            "time": 233.72079,
            "velocity": 0.7874015748031497
          },
          {
            "duration": 0.3488370000000032,
            "durationTicks": 480,
            "midi": 66,
            "name": "F#4",
            "ticks": 321600,
            "time": 233.72079,
            "velocity": 0.7874015748031497
          },
          {
            "duration": 0.3488370000000032,
            "durationTicks": 480,
            "midi": 52,
            "name": "E3",
            "ticks": 322080,
            "time": 234.069627,
            "velocity": 0.7874015748031497
          },
          {
            "duration": 0.3488370000000032,
            "durationTicks": 480,
            "midi": 59,
            "name": "B3",
            "ticks": 322080,
            "time": 234.069627,
            "velocity": 0.7874015748031497
          },
          {
            "duration": 0.3488370000000032,
            "durationTicks": 480,
            "midi": 66,
            "name": "F#4",
            "ticks": 322080,
            "time": 234.069627,
            "velocity": 0.7874015748031497
          },
          {
            "duration": 0.3488370000000032,
            "durationTicks": 480,
            "midi": 52,
            "name": "E3",
            "ticks": 322560,
            "time": 234.418464,
            "velocity": 0.7874015748031497
          },
          {
            "duration": 0.3488370000000032,
            "durationTicks": 480,
            "midi": 59,
            "name": "B3",
            "ticks": 322560,
            "time": 234.418464,
            "velocity": 0.7874015748031497
          },
          {
            "duration": 0.3488370000000032,
            "durationTicks": 480,
            "midi": 66,
            "name": "F#4",
            "ticks": 322560,
            "time": 234.418464,
            "velocity": 0.7874015748031497
          },
          {
            "duration": 0.3488370000000032,
            "durationTicks": 480,
            "midi": 52,
            "name": "E3",
            "ticks": 323040,
            "time": 234.767301,
            "velocity": 0.7874015748031497
          },
          {
            "duration": 0.3488370000000032,
            "durationTicks": 480,
            "midi": 59,
            "name": "B3",
            "ticks": 323040,
            "time": 234.767301,
            "velocity": 0.7874015748031497
          },
          {
            "duration": 0.3488370000000032,
            "durationTicks": 480,
            "midi": 66,
            "name": "F#4",
            "ticks": 323040,
            "time": 234.767301,
            "velocity": 0.7874015748031497
          },
          {
            "duration": 0.3488370000000032,
            "durationTicks": 480,
            "midi": 52,
            "name": "E3",
            "ticks": 323520,
            "time": 235.116138,
            "velocity": 0.7874015748031497
          },
          {
            "duration": 0.3488370000000032,
            "durationTicks": 480,
            "midi": 59,
            "name": "B3",
            "ticks": 323520,
            "time": 235.116138,
            "velocity": 0.7874015748031497
          },
          {
            "duration": 0.3488370000000032,
            "durationTicks": 480,
            "midi": 66,
            "name": "F#4",
            "ticks": 323520,
            "time": 235.116138,
            "velocity": 0.7874015748031497
          },
          {
            "duration": 0.3488370000000032,
            "durationTicks": 480,
            "midi": 52,
            "name": "E3",
            "ticks": 324000,
            "time": 235.464975,
            "velocity": 0.7874015748031497
          },
          {
            "duration": 0.3488370000000032,
            "durationTicks": 480,
            "midi": 59,
            "name": "B3",
            "ticks": 324000,
            "time": 235.464975,
            "velocity": 0.7874015748031497
          },
          {
            "duration": 0.3488370000000032,
            "durationTicks": 480,
            "midi": 66,
            "name": "F#4",
            "ticks": 324000,
            "time": 235.464975,
            "velocity": 0.7874015748031497
          },
          {
            "duration": 0.3488370000000032,
            "durationTicks": 480,
            "midi": 54,
            "name": "F#3",
            "ticks": 324480,
            "time": 235.813812,
            "velocity": 0.7874015748031497
          },
          {
            "duration": 0.3488370000000032,
            "durationTicks": 480,
            "midi": 59,
            "name": "B3",
            "ticks": 324480,
            "time": 235.813812,
            "velocity": 0.7874015748031497
          },
          {
            "duration": 0.3488370000000032,
            "durationTicks": 480,
            "midi": 66,
            "name": "F#4",
            "ticks": 324480,
            "time": 235.813812,
            "velocity": 0.7874015748031497
          },
          {
            "duration": 0.3488370000000032,
            "durationTicks": 480,
            "midi": 71,
            "name": "B4",
            "ticks": 324480,
            "time": 235.813812,
            "velocity": 0.7874015748031497
          },
          {
            "duration": 0.3488370000000032,
            "durationTicks": 480,
            "midi": 54,
            "name": "F#3",
            "ticks": 324960,
            "time": 236.16264900000002,
            "velocity": 0.7874015748031497
          },
          {
            "duration": 0.3488370000000032,
            "durationTicks": 480,
            "midi": 59,
            "name": "B3",
            "ticks": 324960,
            "time": 236.16264900000002,
            "velocity": 0.7874015748031497
          },
          {
            "duration": 0.3488370000000032,
            "durationTicks": 480,
            "midi": 66,
            "name": "F#4",
            "ticks": 324960,
            "time": 236.16264900000002,
            "velocity": 0.7874015748031497
          },
          {
            "duration": 0.3488370000000032,
            "durationTicks": 480,
            "midi": 71,
            "name": "B4",
            "ticks": 324960,
            "time": 236.16264900000002,
            "velocity": 0.7874015748031497
          },
          {
            "duration": 0.34883699999997475,
            "durationTicks": 480,
            "midi": 54,
            "name": "F#3",
            "ticks": 325440,
            "time": 236.51148600000002,
            "velocity": 0.7874015748031497
          },
          {
            "duration": 0.34883699999997475,
            "durationTicks": 480,
            "midi": 59,
            "name": "B3",
            "ticks": 325440,
            "time": 236.51148600000002,
            "velocity": 0.7874015748031497
          },
          {
            "duration": 0.34883699999997475,
            "durationTicks": 480,
            "midi": 66,
            "name": "F#4",
            "ticks": 325440,
            "time": 236.51148600000002,
            "velocity": 0.7874015748031497
          },
          {
            "duration": 0.34883699999997475,
            "durationTicks": 480,
            "midi": 71,
            "name": "B4",
            "ticks": 325440,
            "time": 236.51148600000002,
            "velocity": 0.7874015748031497
          },
          {
            "duration": 0.3488370000000032,
            "durationTicks": 480,
            "midi": 54,
            "name": "F#3",
            "ticks": 325920,
            "time": 236.860323,
            "velocity": 0.7874015748031497
          },
          {
            "duration": 0.3488370000000032,
            "durationTicks": 480,
            "midi": 59,
            "name": "B3",
            "ticks": 325920,
            "time": 236.860323,
            "velocity": 0.7874015748031497
          },
          {
            "duration": 0.3488370000000032,
            "durationTicks": 480,
            "midi": 66,
            "name": "F#4",
            "ticks": 325920,
            "time": 236.860323,
            "velocity": 0.7874015748031497
          },
          {
            "duration": 0.3488370000000032,
            "durationTicks": 480,
            "midi": 71,
            "name": "B4",
            "ticks": 325920,
            "time": 236.860323,
            "velocity": 0.7874015748031497
          },
          {
            "duration": 0.3488370000000032,
            "durationTicks": 480,
            "midi": 54,
            "name": "F#3",
            "ticks": 326400,
            "time": 237.20916,
            "velocity": 0.7874015748031497
          },
          {
            "duration": 0.3488370000000032,
            "durationTicks": 480,
            "midi": 59,
            "name": "B3",
            "ticks": 326400,
            "time": 237.20916,
            "velocity": 0.7874015748031497
          },
          {
            "duration": 0.3488370000000032,
            "durationTicks": 480,
            "midi": 66,
            "name": "F#4",
            "ticks": 326400,
            "time": 237.20916,
            "velocity": 0.7874015748031497
          },
          {
            "duration": 0.3488370000000032,
            "durationTicks": 480,
            "midi": 71,
            "name": "B4",
            "ticks": 326400,
            "time": 237.20916,
            "velocity": 0.7874015748031497
          },
          {
            "duration": 0.3488370000000032,
            "durationTicks": 480,
            "midi": 54,
            "name": "F#3",
            "ticks": 326880,
            "time": 237.557997,
            "velocity": 0.7874015748031497
          },
          {
            "duration": 0.3488370000000032,
            "durationTicks": 480,
            "midi": 59,
            "name": "B3",
            "ticks": 326880,
            "time": 237.557997,
            "velocity": 0.7874015748031497
          },
          {
            "duration": 0.3488370000000032,
            "durationTicks": 480,
            "midi": 66,
            "name": "F#4",
            "ticks": 326880,
            "time": 237.557997,
            "velocity": 0.7874015748031497
          },
          {
            "duration": 0.3488370000000032,
            "durationTicks": 480,
            "midi": 71,
            "name": "B4",
            "ticks": 326880,
            "time": 237.557997,
            "velocity": 0.7874015748031497
          },
          {
            "duration": 0.3488370000000032,
            "durationTicks": 480,
            "midi": 54,
            "name": "F#3",
            "ticks": 327360,
            "time": 237.906834,
            "velocity": 0.7874015748031497
          },
          {
            "duration": 0.3488370000000032,
            "durationTicks": 480,
            "midi": 59,
            "name": "B3",
            "ticks": 327360,
            "time": 237.906834,
            "velocity": 0.7874015748031497
          },
          {
            "duration": 0.3488370000000032,
            "durationTicks": 480,
            "midi": 66,
            "name": "F#4",
            "ticks": 327360,
            "time": 237.906834,
            "velocity": 0.7874015748031497
          },
          {
            "duration": 0.3488370000000032,
            "durationTicks": 480,
            "midi": 71,
            "name": "B4",
            "ticks": 327360,
            "time": 237.906834,
            "velocity": 0.7874015748031497
          },
          {
            "duration": 0.3488370000000032,
            "durationTicks": 480,
            "midi": 54,
            "name": "F#3",
            "ticks": 327840,
            "time": 238.255671,
            "velocity": 0.7874015748031497
          },
          {
            "duration": 0.3488370000000032,
            "durationTicks": 480,
            "midi": 59,
            "name": "B3",
            "ticks": 327840,
            "time": 238.255671,
            "velocity": 0.7874015748031497
          },
          {
            "duration": 0.3488370000000032,
            "durationTicks": 480,
            "midi": 66,
            "name": "F#4",
            "ticks": 327840,
            "time": 238.255671,
            "velocity": 0.7874015748031497
          },
          {
            "duration": 0.3488370000000032,
            "durationTicks": 480,
            "midi": 71,
            "name": "B4",
            "ticks": 327840,
            "time": 238.255671,
            "velocity": 0.7874015748031497
          },
          {
            "duration": 0.3488370000000032,
            "durationTicks": 480,
            "midi": 54,
            "name": "F#3",
            "ticks": 328320,
            "time": 238.604508,
            "velocity": 0.7874015748031497
          },
          {
            "duration": 0.3488370000000032,
            "durationTicks": 480,
            "midi": 59,
            "name": "B3",
            "ticks": 328320,
            "time": 238.604508,
            "velocity": 0.7874015748031497
          },
          {
            "duration": 0.3488370000000032,
            "durationTicks": 480,
            "midi": 66,
            "name": "F#4",
            "ticks": 328320,
            "time": 238.604508,
            "velocity": 0.7874015748031497
          },
          {
            "duration": 0.3488370000000032,
            "durationTicks": 480,
            "midi": 71,
            "name": "B4",
            "ticks": 328320,
            "time": 238.604508,
            "velocity": 0.7874015748031497
          },
          {
            "duration": 0.3488370000000032,
            "durationTicks": 480,
            "midi": 54,
            "name": "F#3",
            "ticks": 328800,
            "time": 238.953345,
            "velocity": 0.7874015748031497
          },
          {
            "duration": 0.3488370000000032,
            "durationTicks": 480,
            "midi": 59,
            "name": "B3",
            "ticks": 328800,
            "time": 238.953345,
            "velocity": 0.7874015748031497
          },
          {
            "duration": 0.3488370000000032,
            "durationTicks": 480,
            "midi": 66,
            "name": "F#4",
            "ticks": 328800,
            "time": 238.953345,
            "velocity": 0.7874015748031497
          },
          {
            "duration": 0.3488370000000032,
            "durationTicks": 480,
            "midi": 71,
            "name": "B4",
            "ticks": 328800,
            "time": 238.953345,
            "velocity": 0.7874015748031497
          },
          {
            "duration": 0.3488370000000032,
            "durationTicks": 480,
            "midi": 54,
            "name": "F#3",
            "ticks": 329280,
            "time": 239.30218200000002,
            "velocity": 0.7874015748031497
          },
          {
            "duration": 0.3488370000000032,
            "durationTicks": 480,
            "midi": 59,
            "name": "B3",
            "ticks": 329280,
            "time": 239.30218200000002,
            "velocity": 0.7874015748031497
          },
          {
            "duration": 0.3488370000000032,
            "durationTicks": 480,
            "midi": 66,
            "name": "F#4",
            "ticks": 329280,
            "time": 239.30218200000002,
            "velocity": 0.7874015748031497
          },
          {
            "duration": 0.3488370000000032,
            "durationTicks": 480,
            "midi": 71,
            "name": "B4",
            "ticks": 329280,
            "time": 239.30218200000002,
            "velocity": 0.7874015748031497
          },
          {
            "duration": 0.34883699999997475,
            "durationTicks": 480,
            "midi": 54,
            "name": "F#3",
            "ticks": 329760,
            "time": 239.65101900000002,
            "velocity": 0.7874015748031497
          },
          {
            "duration": 0.34883699999997475,
            "durationTicks": 480,
            "midi": 59,
            "name": "B3",
            "ticks": 329760,
            "time": 239.65101900000002,
            "velocity": 0.7874015748031497
          },
          {
            "duration": 0.34883699999997475,
            "durationTicks": 480,
            "midi": 66,
            "name": "F#4",
            "ticks": 329760,
            "time": 239.65101900000002,
            "velocity": 0.7874015748031497
          },
          {
            "duration": 0.34883699999997475,
            "durationTicks": 480,
            "midi": 71,
            "name": "B4",
            "ticks": 329760,
            "time": 239.65101900000002,
            "velocity": 0.7874015748031497
          },
          {
            "duration": 0.3488370000000032,
            "durationTicks": 480,
            "midi": 54,
            "name": "F#3",
            "ticks": 330240,
            "time": 239.999856,
            "velocity": 0.7874015748031497
          },
          {
            "duration": 0.3488370000000032,
            "durationTicks": 480,
            "midi": 59,
            "name": "B3",
            "ticks": 330240,
            "time": 239.999856,
            "velocity": 0.7874015748031497
          },
          {
            "duration": 0.3488370000000032,
            "durationTicks": 480,
            "midi": 66,
            "name": "F#4",
            "ticks": 330240,
            "time": 239.999856,
            "velocity": 0.7874015748031497
          },
          {
            "duration": 0.3488370000000032,
            "durationTicks": 480,
            "midi": 71,
            "name": "B4",
            "ticks": 330240,
            "time": 239.999856,
            "velocity": 0.7874015748031497
          },
          {
            "duration": 0.3488370000000032,
            "durationTicks": 480,
            "midi": 54,
            "name": "F#3",
            "ticks": 330720,
            "time": 240.348693,
            "velocity": 0.7874015748031497
          },
          {
            "duration": 0.3488370000000032,
            "durationTicks": 480,
            "midi": 59,
            "name": "B3",
            "ticks": 330720,
            "time": 240.348693,
            "velocity": 0.7874015748031497
          },
          {
            "duration": 0.3488370000000032,
            "durationTicks": 480,
            "midi": 66,
            "name": "F#4",
            "ticks": 330720,
            "time": 240.348693,
            "velocity": 0.7874015748031497
          },
          {
            "duration": 0.3488370000000032,
            "durationTicks": 480,
            "midi": 71,
            "name": "B4",
            "ticks": 330720,
            "time": 240.348693,
            "velocity": 0.7874015748031497
          },
          {
            "duration": 0.3488370000000032,
            "durationTicks": 480,
            "midi": 54,
            "name": "F#3",
            "ticks": 331200,
            "time": 240.69753,
            "velocity": 0.7874015748031497
          },
          {
            "duration": 0.3488370000000032,
            "durationTicks": 480,
            "midi": 59,
            "name": "B3",
            "ticks": 331200,
            "time": 240.69753,
            "velocity": 0.7874015748031497
          },
          {
            "duration": 0.3488370000000032,
            "durationTicks": 480,
            "midi": 66,
            "name": "F#4",
            "ticks": 331200,
            "time": 240.69753,
            "velocity": 0.7874015748031497
          },
          {
            "duration": 0.3488370000000032,
            "durationTicks": 480,
            "midi": 71,
            "name": "B4",
            "ticks": 331200,
            "time": 240.69753,
            "velocity": 0.7874015748031497
          },
          {
            "duration": 0.3488370000000032,
            "durationTicks": 480,
            "midi": 54,
            "name": "F#3",
            "ticks": 331680,
            "time": 241.046367,
            "velocity": 0.7874015748031497
          },
          {
            "duration": 0.3488370000000032,
            "durationTicks": 480,
            "midi": 59,
            "name": "B3",
            "ticks": 331680,
            "time": 241.046367,
            "velocity": 0.7874015748031497
          },
          {
            "duration": 0.3488370000000032,
            "durationTicks": 480,
            "midi": 66,
            "name": "F#4",
            "ticks": 331680,
            "time": 241.046367,
            "velocity": 0.7874015748031497
          },
          {
            "duration": 0.3488370000000032,
            "durationTicks": 480,
            "midi": 71,
            "name": "B4",
            "ticks": 331680,
            "time": 241.046367,
            "velocity": 0.7874015748031497
          },
          {
            "duration": 0.3488370000000032,
            "durationTicks": 480,
            "midi": 54,
            "name": "F#3",
            "ticks": 332160,
            "time": 241.395204,
            "velocity": 0.7874015748031497
          },
          {
            "duration": 0.3488370000000032,
            "durationTicks": 480,
            "midi": 61,
            "name": "C#4",
            "ticks": 332160,
            "time": 241.395204,
            "velocity": 0.7874015748031497
          },
          {
            "duration": 0.3488370000000032,
            "durationTicks": 480,
            "midi": 66,
            "name": "F#4",
            "ticks": 332160,
            "time": 241.395204,
            "velocity": 0.7874015748031497
          },
          {
            "duration": 0.3488370000000032,
            "durationTicks": 480,
            "midi": 54,
            "name": "F#3",
            "ticks": 332640,
            "time": 241.744041,
            "velocity": 0.7874015748031497
          },
          {
            "duration": 0.3488370000000032,
            "durationTicks": 480,
            "midi": 59,
            "name": "B3",
            "ticks": 332640,
            "time": 241.744041,
            "velocity": 0.7874015748031497
          },
          {
            "duration": 0.3488370000000032,
            "durationTicks": 480,
            "midi": 66,
            "name": "F#4",
            "ticks": 332640,
            "time": 241.744041,
            "velocity": 0.7874015748031497
          },
          {
            "duration": 0.3488370000000032,
            "durationTicks": 480,
            "midi": 54,
            "name": "F#3",
            "ticks": 333120,
            "time": 242.092878,
            "velocity": 0.7874015748031497
          },
          {
            "duration": 0.3488370000000032,
            "durationTicks": 480,
            "midi": 61,
            "name": "C#4",
            "ticks": 333120,
            "time": 242.092878,
            "velocity": 0.7874015748031497
          },
          {
            "duration": 0.3488370000000032,
            "durationTicks": 480,
            "midi": 66,
            "name": "F#4",
            "ticks": 333120,
            "time": 242.092878,
            "velocity": 0.7874015748031497
          },
          {
            "duration": 0.3488370000000032,
            "durationTicks": 480,
            "midi": 54,
            "name": "F#3",
            "ticks": 333600,
            "time": 242.44171500000002,
            "velocity": 0.7874015748031497
          },
          {
            "duration": 0.3488370000000032,
            "durationTicks": 480,
            "midi": 59,
            "name": "B3",
            "ticks": 333600,
            "time": 242.44171500000002,
            "velocity": 0.7874015748031497
          },
          {
            "duration": 0.3488370000000032,
            "durationTicks": 480,
            "midi": 66,
            "name": "F#4",
            "ticks": 333600,
            "time": 242.44171500000002,
            "velocity": 0.7874015748031497
          },
          {
            "duration": 0.34883699999997475,
            "durationTicks": 480,
            "midi": 54,
            "name": "F#3",
            "ticks": 334080,
            "time": 242.79055200000002,
            "velocity": 0.7874015748031497
          },
          {
            "duration": 0.34883699999997475,
            "durationTicks": 480,
            "midi": 61,
            "name": "C#4",
            "ticks": 334080,
            "time": 242.79055200000002,
            "velocity": 0.7874015748031497
          },
          {
            "duration": 0.34883699999997475,
            "durationTicks": 480,
            "midi": 66,
            "name": "F#4",
            "ticks": 334080,
            "time": 242.79055200000002,
            "velocity": 0.7874015748031497
          },
          {
            "duration": 0.3488370000000032,
            "durationTicks": 480,
            "midi": 54,
            "name": "F#3",
            "ticks": 334560,
            "time": 243.139389,
            "velocity": 0.7874015748031497
          },
          {
            "duration": 0.3488370000000032,
            "durationTicks": 480,
            "midi": 59,
            "name": "B3",
            "ticks": 334560,
            "time": 243.139389,
            "velocity": 0.7874015748031497
          },
          {
            "duration": 0.3488370000000032,
            "durationTicks": 480,
            "midi": 66,
            "name": "F#4",
            "ticks": 334560,
            "time": 243.139389,
            "velocity": 0.7874015748031497
          },
          {
            "duration": 0.3488370000000032,
            "durationTicks": 480,
            "midi": 54,
            "name": "F#3",
            "ticks": 335040,
            "time": 243.488226,
            "velocity": 0.7874015748031497
          },
          {
            "duration": 0.3488370000000032,
            "durationTicks": 480,
            "midi": 61,
            "name": "C#4",
            "ticks": 335040,
            "time": 243.488226,
            "velocity": 0.7874015748031497
          },
          {
            "duration": 0.3488370000000032,
            "durationTicks": 480,
            "midi": 66,
            "name": "F#4",
            "ticks": 335040,
            "time": 243.488226,
            "velocity": 0.7874015748031497
          },
          {
            "duration": 0.3488370000000032,
            "durationTicks": 480,
            "midi": 54,
            "name": "F#3",
            "ticks": 335520,
            "time": 243.837063,
            "velocity": 0.7874015748031497
          },
          {
            "duration": 0.3488370000000032,
            "durationTicks": 480,
            "midi": 59,
            "name": "B3",
            "ticks": 335520,
            "time": 243.837063,
            "velocity": 0.7874015748031497
          },
          {
            "duration": 0.3488370000000032,
            "durationTicks": 480,
            "midi": 66,
            "name": "F#4",
            "ticks": 335520,
            "time": 243.837063,
            "velocity": 0.7874015748031497
          },
          {
            "duration": 0.3488370000000032,
            "durationTicks": 480,
            "midi": 54,
            "name": "F#3",
            "ticks": 336000,
            "time": 244.1859,
            "velocity": 0.7874015748031497
          },
          {
            "duration": 0.3488370000000032,
            "durationTicks": 480,
            "midi": 59,
            "name": "B3",
            "ticks": 336000,
            "time": 244.1859,
            "velocity": 0.7874015748031497
          },
          {
            "duration": 0.3488370000000032,
            "durationTicks": 480,
            "midi": 66,
            "name": "F#4",
            "ticks": 336000,
            "time": 244.1859,
            "velocity": 0.7874015748031497
          },
          {
            "duration": 0.3488370000000032,
            "durationTicks": 480,
            "midi": 54,
            "name": "F#3",
            "ticks": 336480,
            "time": 244.534737,
            "velocity": 0.7874015748031497
          },
          {
            "duration": 0.3488370000000032,
            "durationTicks": 480,
            "midi": 59,
            "name": "B3",
            "ticks": 336480,
            "time": 244.534737,
            "velocity": 0.7874015748031497
          },
          {
            "duration": 0.3488370000000032,
            "durationTicks": 480,
            "midi": 66,
            "name": "F#4",
            "ticks": 336480,
            "time": 244.534737,
            "velocity": 0.7874015748031497
          },
          {
            "duration": 0.3488370000000032,
            "durationTicks": 480,
            "midi": 54,
            "name": "F#3",
            "ticks": 336960,
            "time": 244.883574,
            "velocity": 0.7874015748031497
          },
          {
            "duration": 0.3488370000000032,
            "durationTicks": 480,
            "midi": 59,
            "name": "B3",
            "ticks": 336960,
            "time": 244.883574,
            "velocity": 0.7874015748031497
          },
          {
            "duration": 0.3488370000000032,
            "durationTicks": 480,
            "midi": 66,
            "name": "F#4",
            "ticks": 336960,
            "time": 244.883574,
            "velocity": 0.7874015748031497
          },
          {
            "duration": 0.3488370000000032,
            "durationTicks": 480,
            "midi": 54,
            "name": "F#3",
            "ticks": 337440,
            "time": 245.232411,
            "velocity": 0.7874015748031497
          },
          {
            "duration": 0.3488370000000032,
            "durationTicks": 480,
            "midi": 59,
            "name": "B3",
            "ticks": 337440,
            "time": 245.232411,
            "velocity": 0.7874015748031497
          },
          {
            "duration": 0.3488370000000032,
            "durationTicks": 480,
            "midi": 66,
            "name": "F#4",
            "ticks": 337440,
            "time": 245.232411,
            "velocity": 0.7874015748031497
          },
          {
            "duration": 0.3488370000000032,
            "durationTicks": 480,
            "midi": 54,
            "name": "F#3",
            "ticks": 337920,
            "time": 245.58124800000002,
            "velocity": 0.7874015748031497
          },
          {
            "duration": 0.35174397499997667,
            "durationTicks": 484,
            "midi": 59,
            "name": "B3",
            "ticks": 337920,
            "time": 245.58124800000002,
            "velocity": 0.7874015748031497
          },
          {
            "duration": 0.3488370000000032,
            "durationTicks": 480,
            "midi": 66,
            "name": "F#4",
            "ticks": 337920,
            "time": 245.58124800000002,
            "velocity": 0.7874015748031497
          },
          {
            "duration": 0.34883699999997475,
            "durationTicks": 480,
            "midi": 54,
            "name": "F#3",
            "ticks": 338400,
            "time": 245.93008500000002,
            "velocity": 0.7874015748031497
          },
          {
            "duration": 0.34883699999997475,
            "durationTicks": 480,
            "midi": 59,
            "name": "B3",
            "ticks": 338400,
            "time": 245.93008500000002,
            "velocity": 0.7874015748031497
          },
          {
            "duration": 0.34883699999997475,
            "durationTicks": 480,
            "midi": 66,
            "name": "F#4",
            "ticks": 338400,
            "time": 245.93008500000002,
            "velocity": 0.7874015748031497
          },
          {
            "duration": 0.3488370000000032,
            "durationTicks": 480,
            "midi": 54,
            "name": "F#3",
            "ticks": 338880,
            "time": 246.278922,
            "velocity": 0.7874015748031497
          },
          {
            "duration": 0.3488370000000032,
            "durationTicks": 480,
            "midi": 59,
            "name": "B3",
            "ticks": 338880,
            "time": 246.278922,
            "velocity": 0.7874015748031497
          },
          {
            "duration": 0.3488370000000032,
            "durationTicks": 480,
            "midi": 66,
            "name": "F#4",
            "ticks": 338880,
            "time": 246.278922,
            "velocity": 0.7874015748031497
          },
          {
            "duration": 0.3488370000000032,
            "durationTicks": 480,
            "midi": 54,
            "name": "F#3",
            "ticks": 339360,
            "time": 246.627759,
            "velocity": 0.7874015748031497
          },
          {
            "duration": 0.3488370000000032,
            "durationTicks": 480,
            "midi": 59,
            "name": "B3",
            "ticks": 339360,
            "time": 246.627759,
            "velocity": 0.7874015748031497
          },
          {
            "duration": 0.3488370000000032,
            "durationTicks": 480,
            "midi": 66,
            "name": "F#4",
            "ticks": 339360,
            "time": 246.627759,
            "velocity": 0.7874015748031497
          },
          {
            "duration": 0.3488370000000032,
            "durationTicks": 480,
            "midi": 52,
            "name": "E3",
            "ticks": 339840,
            "time": 246.976596,
            "velocity": 0.7874015748031497
          },
          {
            "duration": 0.3488370000000032,
            "durationTicks": 480,
            "midi": 59,
            "name": "B3",
            "ticks": 339840,
            "time": 246.976596,
            "velocity": 0.7874015748031497
          },
          {
            "duration": 0.3488370000000032,
            "durationTicks": 480,
            "midi": 68,
            "name": "G#4",
            "ticks": 339840,
            "time": 246.976596,
            "velocity": 0.7874015748031497
          },
          {
            "duration": 0.3488370000000032,
            "durationTicks": 480,
            "midi": 52,
            "name": "E3",
            "ticks": 340320,
            "time": 247.325433,
            "velocity": 0.7874015748031497
          },
          {
            "duration": 0.3488370000000032,
            "durationTicks": 480,
            "midi": 59,
            "name": "B3",
            "ticks": 340320,
            "time": 247.325433,
            "velocity": 0.7874015748031497
          },
          {
            "duration": 0.3488370000000032,
            "durationTicks": 480,
            "midi": 66,
            "name": "F#4",
            "ticks": 340320,
            "time": 247.325433,
            "velocity": 0.7874015748031497
          },
          {
            "duration": 0.3488370000000032,
            "durationTicks": 480,
            "midi": 52,
            "name": "E3",
            "ticks": 340800,
            "time": 247.67427,
            "velocity": 0.7874015748031497
          },
          {
            "duration": 0.3488370000000032,
            "durationTicks": 480,
            "midi": 59,
            "name": "B3",
            "ticks": 340800,
            "time": 247.67427,
            "velocity": 0.7874015748031497
          },
          {
            "duration": 0.3488370000000032,
            "durationTicks": 480,
            "midi": 66,
            "name": "F#4",
            "ticks": 340800,
            "time": 247.67427,
            "velocity": 0.7874015748031497
          },
          {
            "duration": 0.3488370000000032,
            "durationTicks": 480,
            "midi": 52,
            "name": "E3",
            "ticks": 341280,
            "time": 248.023107,
            "velocity": 0.7874015748031497
          },
          {
            "duration": 0.3488370000000032,
            "durationTicks": 480,
            "midi": 59,
            "name": "B3",
            "ticks": 341280,
            "time": 248.023107,
            "velocity": 0.7874015748031497
          },
          {
            "duration": 0.3488370000000032,
            "durationTicks": 480,
            "midi": 68,
            "name": "G#4",
            "ticks": 341280,
            "time": 248.023107,
            "velocity": 0.7874015748031497
          },
          {
            "duration": 0.3488370000000032,
            "durationTicks": 480,
            "midi": 52,
            "name": "E3",
            "ticks": 341760,
            "time": 248.371944,
            "velocity": 0.7874015748031497
          },
          {
            "duration": 0.3488370000000032,
            "durationTicks": 480,
            "midi": 59,
            "name": "B3",
            "ticks": 341760,
            "time": 248.371944,
            "velocity": 0.7874015748031497
          },
          {
            "duration": 0.3488370000000032,
            "durationTicks": 480,
            "midi": 68,
            "name": "G#4",
            "ticks": 341760,
            "time": 248.371944,
            "velocity": 0.7874015748031497
          },
          {
            "duration": 0.3488370000000032,
            "durationTicks": 480,
            "midi": 52,
            "name": "E3",
            "ticks": 342240,
            "time": 248.72078100000002,
            "velocity": 0.7874015748031497
          },
          {
            "duration": 0.3488370000000032,
            "durationTicks": 480,
            "midi": 59,
            "name": "B3",
            "ticks": 342240,
            "time": 248.72078100000002,
            "velocity": 0.7874015748031497
          },
          {
            "duration": 0.3488370000000032,
            "durationTicks": 480,
            "midi": 66,
            "name": "F#4",
            "ticks": 342240,
            "time": 248.72078100000002,
            "velocity": 0.7874015748031497
          },
          {
            "duration": 0.34883699999997475,
            "durationTicks": 480,
            "midi": 52,
            "name": "E3",
            "ticks": 342720,
            "time": 249.06961800000002,
            "velocity": 0.7874015748031497
          },
          {
            "duration": 0.34883699999997475,
            "durationTicks": 480,
            "midi": 59,
            "name": "B3",
            "ticks": 342720,
            "time": 249.06961800000002,
            "velocity": 0.7874015748031497
          },
          {
            "duration": 0.34883699999997475,
            "durationTicks": 480,
            "midi": 66,
            "name": "F#4",
            "ticks": 342720,
            "time": 249.06961800000002,
            "velocity": 0.7874015748031497
          },
          {
            "duration": 0.3488370000000032,
            "durationTicks": 480,
            "midi": 52,
            "name": "E3",
            "ticks": 343200,
            "time": 249.418455,
            "velocity": 0.7874015748031497
          },
          {
            "duration": 0.3488370000000032,
            "durationTicks": 480,
            "midi": 59,
            "name": "B3",
            "ticks": 343200,
            "time": 249.418455,
            "velocity": 0.7874015748031497
          },
          {
            "duration": 0.3488370000000032,
            "durationTicks": 480,
            "midi": 68,
            "name": "G#4",
            "ticks": 343200,
            "time": 249.418455,
            "velocity": 0.7874015748031497
          },
          {
            "duration": 0.3488370000000032,
            "durationTicks": 480,
            "midi": 52,
            "name": "E3",
            "ticks": 343680,
            "time": 249.767292,
            "velocity": 0.7874015748031497
          },
          {
            "duration": 0.3488370000000032,
            "durationTicks": 480,
            "midi": 59,
            "name": "B3",
            "ticks": 343680,
            "time": 249.767292,
            "velocity": 0.7874015748031497
          },
          {
            "duration": 0.3488370000000032,
            "durationTicks": 480,
            "midi": 66,
            "name": "F#4",
            "ticks": 343680,
            "time": 249.767292,
            "velocity": 0.7874015748031497
          },
          {
            "duration": 0.17151152499999966,
            "durationTicks": 236,
            "midi": 52,
            "name": "E3",
            "ticks": 344160,
            "time": 250.116129,
            "velocity": 0.7874015748031497
          },
          {
            "duration": 0.1744185000000016,
            "durationTicks": 240,
            "midi": 59,
            "name": "B3",
            "ticks": 344160,
            "time": 250.116129,
            "velocity": 0.7874015748031497
          },
          {
            "duration": 0.1744185000000016,
            "durationTicks": 240,
            "midi": 66,
            "name": "F#4",
            "ticks": 344160,
            "time": 250.116129,
            "velocity": 0.7874015748031497
          },
          {
            "duration": 0.3488370000000032,
            "durationTicks": 480,
            "midi": 52,
            "name": "E3",
            "ticks": 344640,
            "time": 250.464966,
            "velocity": 0.7874015748031497
          },
          {
            "duration": 0.3488370000000032,
            "durationTicks": 480,
            "midi": 59,
            "name": "B3",
            "ticks": 344640,
            "time": 250.464966,
            "velocity": 0.7874015748031497
          },
          {
            "duration": 0.3488370000000032,
            "durationTicks": 480,
            "midi": 66,
            "name": "F#4",
            "ticks": 344640,
            "time": 250.464966,
            "velocity": 0.7874015748031497
          },
          {
            "duration": 0.3488370000000032,
            "durationTicks": 480,
            "midi": 52,
            "name": "E3",
            "ticks": 345120,
            "time": 250.813803,
            "velocity": 0.7874015748031497
          },
          {
            "duration": 0.3488370000000032,
            "durationTicks": 480,
            "midi": 59,
            "name": "B3",
            "ticks": 345120,
            "time": 250.813803,
            "velocity": 0.7874015748031497
          },
          {
            "duration": 0.3488370000000032,
            "durationTicks": 480,
            "midi": 66,
            "name": "F#4",
            "ticks": 345120,
            "time": 250.813803,
            "velocity": 0.7874015748031497
          },
          {
            "duration": 0.3488370000000032,
            "durationTicks": 480,
            "midi": 52,
            "name": "E3",
            "ticks": 345600,
            "time": 251.16264,
            "velocity": 0.7874015748031497
          },
          {
            "duration": 0.3488370000000032,
            "durationTicks": 480,
            "midi": 59,
            "name": "B3",
            "ticks": 345600,
            "time": 251.16264,
            "velocity": 0.7874015748031497
          },
          {
            "duration": 0.3488370000000032,
            "durationTicks": 480,
            "midi": 66,
            "name": "F#4",
            "ticks": 345600,
            "time": 251.16264,
            "velocity": 0.7874015748031497
          },
          {
            "duration": 0.3488370000000032,
            "durationTicks": 480,
            "midi": 52,
            "name": "E3",
            "ticks": 346080,
            "time": 251.511477,
            "velocity": 0.7874015748031497
          },
          {
            "duration": 0.3488370000000032,
            "durationTicks": 480,
            "midi": 59,
            "name": "B3",
            "ticks": 346080,
            "time": 251.511477,
            "velocity": 0.7874015748031497
          },
          {
            "duration": 0.3488370000000032,
            "durationTicks": 480,
            "midi": 66,
            "name": "F#4",
            "ticks": 346080,
            "time": 251.511477,
            "velocity": 0.7874015748031497
          },
          {
            "duration": 0.3488370000000032,
            "durationTicks": 480,
            "midi": 52,
            "name": "E3",
            "ticks": 346560,
            "time": 251.86031400000002,
            "velocity": 0.7874015748031497
          },
          {
            "duration": 0.3488370000000032,
            "durationTicks": 480,
            "midi": 59,
            "name": "B3",
            "ticks": 346560,
            "time": 251.86031400000002,
            "velocity": 0.7874015748031497
          },
          {
            "duration": 0.3488370000000032,
            "durationTicks": 480,
            "midi": 66,
            "name": "F#4",
            "ticks": 346560,
            "time": 251.86031400000002,
            "velocity": 0.7874015748031497
          },
          {
            "duration": 0.34883699999997475,
            "durationTicks": 480,
            "midi": 52,
            "name": "E3",
            "ticks": 347040,
            "time": 252.20915100000002,
            "velocity": 0.7874015748031497
          },
          {
            "duration": 0.34883699999997475,
            "durationTicks": 480,
            "midi": 59,
            "name": "B3",
            "ticks": 347040,
            "time": 252.20915100000002,
            "velocity": 0.7874015748031497
          },
          {
            "duration": 0.34883699999997475,
            "durationTicks": 480,
            "midi": 66,
            "name": "F#4",
            "ticks": 347040,
            "time": 252.20915100000002,
            "velocity": 0.7874015748031497
          }
        ]
      },
      {
        "channel": 0,
        "controlChanges": {},
        "pitchBends": [],
        "instrument": {
          "family": "piano",
          "number": 0,
          "name": "acoustic grand piano"
        },
        "name": "untitled",
        "notes": [],
        "endOfTrackTicks": 372480
      },
      {
        "channel": 7,
        "controlChanges": {
          "7": [
            {
              "number": 7,
              "ticks": 0,
              "time": 0,
              "value": 0.9448818897637795
            }
          ],
          "10": [
            {
              "number": 10,
              "ticks": 0,
              "time": 0,
              "value": 1
            }
          ]
        },
        "pitchBends": [],
        "instrument": {
          "family": "guitar",
          "number": 28,
          "name": "electric guitar (muted)"
        },
        "name": "",
        "notes": [
          {
            "duration": 1.0465109999999997,
            "durationTicks": 1440,
            "midi": 54,
            "name": "F#3",
            "ticks": 9600,
            "time": 6.97674,
            "velocity": 0.7874015748031497
          },
          {
            "duration": 1.0465109999999997,
            "durationTicks": 1440,
            "midi": 63,
            "name": "D#4",
            "ticks": 9600,
            "time": 6.97674,
            "velocity": 0.7874015748031497
          },
          {
            "duration": 1.0465109999999997,
            "durationTicks": 1440,
            "midi": 66,
            "name": "F#4",
            "ticks": 9600,
            "time": 6.97674,
            "velocity": 0.7874015748031497
          },
          {
            "duration": 1.0465110000000006,
            "durationTicks": 1440,
            "midi": 54,
            "name": "F#3",
            "ticks": 11040,
            "time": 8.023251,
            "velocity": 0.7874015748031497
          },
          {
            "duration": 1.0465110000000006,
            "durationTicks": 1440,
            "midi": 63,
            "name": "D#4",
            "ticks": 11040,
            "time": 8.023251,
            "velocity": 0.7874015748031497
          },
          {
            "duration": 0.5232554999999994,
            "durationTicks": 720,
            "midi": 59,
            "name": "B3",
            "ticks": 12480,
            "time": 9.069762,
            "velocity": 0.7874015748031497
          },
          {
            "duration": 0.5232554999999994,
            "durationTicks": 720,
            "midi": 63,
            "name": "D#4",
            "ticks": 12480,
            "time": 9.069762,
            "velocity": 0.7874015748031497
          },
          {
            "duration": 0.5232554999999994,
            "durationTicks": 720,
            "midi": 66,
            "name": "F#4",
            "ticks": 12480,
            "time": 9.069762,
            "velocity": 0.7874015748031497
          },
          {
            "duration": 0.1744184999999998,
            "durationTicks": 240,
            "midi": 54,
            "name": "F#3",
            "ticks": 13200,
            "time": 9.5930175,
            "velocity": 0.7874015748031497
          },
          {
            "duration": 0.1744184999999998,
            "durationTicks": 240,
            "midi": 59,
            "name": "B3",
            "ticks": 13200,
            "time": 9.5930175,
            "velocity": 0.7874015748031497
          },
          {
            "duration": 0.1744184999999998,
            "durationTicks": 240,
            "midi": 63,
            "name": "D#4",
            "ticks": 13200,
            "time": 9.5930175,
            "velocity": 0.7874015748031497
          },
          {
            "duration": 1.3953480000000003,
            "durationTicks": 1920,
            "midi": 59,
            "name": "B3",
            "ticks": 13440,
            "time": 9.767436,
            "velocity": 0.7874015748031497
          },
          {
            "duration": 1.3953480000000003,
            "durationTicks": 1920,
            "midi": 63,
            "name": "D#4",
            "ticks": 13440,
            "time": 9.767436,
            "velocity": 0.7874015748031497
          },
          {
            "duration": 1.3953480000000003,
            "durationTicks": 1920,
            "midi": 66,
            "name": "F#4",
            "ticks": 13440,
            "time": 9.767436,
            "velocity": 0.7874015748031497
          },
          {
            "duration": 0.3488370000000032,
            "durationTicks": 480,
            "midi": 63,
            "name": "D#4",
            "ticks": 48000,
            "time": 34.8837,
            "velocity": 0.7165354330708661
          },
          {
            "duration": 0.3488370000000032,
            "durationTicks": 480,
            "midi": 66,
            "name": "F#4",
            "ticks": 48000,
            "time": 34.8837,
            "velocity": 0.6929133858267716
          },
          {
            "duration": 0.3488370000000032,
            "durationTicks": 480,
            "midi": 63,
            "name": "D#4",
            "ticks": 48480,
            "time": 35.232537,
            "velocity": 0.7165354330708661
          },
          {
            "duration": 0.3488370000000032,
            "durationTicks": 480,
            "midi": 66,
            "name": "F#4",
            "ticks": 48480,
            "time": 35.232537,
            "velocity": 0.6929133858267716
          },
          {
            "duration": 0.34883699999999607,
            "durationTicks": 480,
            "midi": 59,
            "name": "B3",
            "ticks": 48960,
            "time": 35.581374000000004,
            "velocity": 0.7165354330708661
          },
          {
            "duration": 0.34883699999999607,
            "durationTicks": 480,
            "midi": 63,
            "name": "D#4",
            "ticks": 48960,
            "time": 35.581374000000004,
            "velocity": 0.7322834645669292
          },
          {
            "duration": 0.3488370000000032,
            "durationTicks": 480,
            "midi": 59,
            "name": "B3",
            "ticks": 49440,
            "time": 35.930211,
            "velocity": 0.7165354330708661
          },
          {
            "duration": 0.3488370000000032,
            "durationTicks": 480,
            "midi": 63,
            "name": "D#4",
            "ticks": 49440,
            "time": 35.930211,
            "velocity": 0.7322834645669292
          },
          {
            "duration": 0.34883699999999607,
            "durationTicks": 480,
            "midi": 63,
            "name": "D#4",
            "ticks": 49920,
            "time": 36.279048,
            "velocity": 0.7165354330708661
          },
          {
            "duration": 0.34883699999999607,
            "durationTicks": 480,
            "midi": 66,
            "name": "F#4",
            "ticks": 49920,
            "time": 36.279048,
            "velocity": 0.6771653543307087
          },
          {
            "duration": 0.3488370000000032,
            "durationTicks": 480,
            "midi": 63,
            "name": "D#4",
            "ticks": 50400,
            "time": 36.627885,
            "velocity": 0.7165354330708661
          },
          {
            "duration": 0.3488370000000032,
            "durationTicks": 480,
            "midi": 66,
            "name": "F#4",
            "ticks": 50400,
            "time": 36.627885,
            "velocity": 0.6771653543307087
          },
          {
            "duration": 0.34883699999999607,
            "durationTicks": 480,
            "midi": 59,
            "name": "B3",
            "ticks": 50880,
            "time": 36.976722,
            "velocity": 0.7322834645669292
          },
          {
            "duration": 0.34883699999999607,
            "durationTicks": 480,
            "midi": 63,
            "name": "D#4",
            "ticks": 50880,
            "time": 36.976722,
            "velocity": 0.7165354330708661
          },
          {
            "duration": 0.3488370000000032,
            "durationTicks": 480,
            "midi": 59,
            "name": "B3",
            "ticks": 51360,
            "time": 37.325559,
            "velocity": 0.7322834645669292
          },
          {
            "duration": 0.3488370000000032,
            "durationTicks": 480,
            "midi": 63,
            "name": "D#4",
            "ticks": 51360,
            "time": 37.325559,
            "velocity": 0.7165354330708661
          },
          {
            "duration": 0.34883699999999607,
            "durationTicks": 480,
            "midi": 63,
            "name": "D#4",
            "ticks": 51840,
            "time": 37.674396,
            "velocity": 0.7165354330708661
          },
          {
            "duration": 0.34883699999999607,
            "durationTicks": 480,
            "midi": 66,
            "name": "F#4",
            "ticks": 51840,
            "time": 37.674396,
            "velocity": 0.6771653543307087
          },
          {
            "duration": 0.3488370000000032,
            "durationTicks": 480,
            "midi": 63,
            "name": "D#4",
            "ticks": 52320,
            "time": 38.023233,
            "velocity": 0.7165354330708661
          },
          {
            "duration": 0.3488370000000032,
            "durationTicks": 480,
            "midi": 66,
            "name": "F#4",
            "ticks": 52320,
            "time": 38.023233,
            "velocity": 0.6771653543307087
          },
          {
            "duration": 0.3488370000000032,
            "durationTicks": 480,
            "midi": 59,
            "name": "B3",
            "ticks": 52800,
            "time": 38.37207,
            "velocity": 0.7322834645669292
          },
          {
            "duration": 0.3488370000000032,
            "durationTicks": 480,
            "midi": 63,
            "name": "D#4",
            "ticks": 52800,
            "time": 38.37207,
            "velocity": 0.7165354330708661
          },
          {
            "duration": 0.34883699999999607,
            "durationTicks": 480,
            "midi": 59,
            "name": "B3",
            "ticks": 53280,
            "time": 38.720907000000004,
            "velocity": 0.7322834645669292
          },
          {
            "duration": 0.34883699999999607,
            "durationTicks": 480,
            "midi": 63,
            "name": "D#4",
            "ticks": 53280,
            "time": 38.720907000000004,
            "velocity": 0.7165354330708661
          },
          {
            "duration": 0.3488370000000032,
            "durationTicks": 480,
            "midi": 63,
            "name": "D#4",
            "ticks": 53760,
            "time": 39.069744,
            "velocity": 0.7165354330708661
          },
          {
            "duration": 0.3488370000000032,
            "durationTicks": 480,
            "midi": 66,
            "name": "F#4",
            "ticks": 53760,
            "time": 39.069744,
            "velocity": 0.6771653543307087
          },
          {
            "duration": 0.34883699999999607,
            "durationTicks": 480,
            "midi": 63,
            "name": "D#4",
            "ticks": 54240,
            "time": 39.418581,
            "velocity": 0.7165354330708661
          },
          {
            "duration": 0.34883699999999607,
            "durationTicks": 480,
            "midi": 66,
            "name": "F#4",
            "ticks": 54240,
            "time": 39.418581,
            "velocity": 0.6771653543307087
          },
          {
            "duration": 0.3488370000000032,
            "durationTicks": 480,
            "midi": 59,
            "name": "B3",
            "ticks": 54720,
            "time": 39.767418,
            "velocity": 0.7322834645669292
          },
          {
            "duration": 0.3488370000000032,
            "durationTicks": 480,
            "midi": 63,
            "name": "D#4",
            "ticks": 54720,
            "time": 39.767418,
            "velocity": 0.7165354330708661
          },
          {
            "duration": 0.34883699999999607,
            "durationTicks": 480,
            "midi": 59,
            "name": "B3",
            "ticks": 55200,
            "time": 40.116255,
            "velocity": 0.7322834645669292
          },
          {
            "duration": 0.34883699999999607,
            "durationTicks": 480,
            "midi": 63,
            "name": "D#4",
            "ticks": 55200,
            "time": 40.116255,
            "velocity": 0.7165354330708661
          },
          {
            "duration": 0.6976739999999992,
            "durationTicks": 960,
            "midi": 58,
            "name": "A#3",
            "ticks": 55680,
            "time": 40.465092,
            "velocity": 0.6377952755905512
          },
          {
            "duration": 0.6976739999999992,
            "durationTicks": 960,
            "midi": 61,
            "name": "C#4",
            "ticks": 55680,
            "time": 40.465092,
            "velocity": 0.6377952755905512
          },
          {
            "duration": 0.3488370000000032,
            "durationTicks": 480,
            "midi": 54,
            "name": "F#3",
            "ticks": 56640,
            "time": 41.162766,
            "velocity": 0.6377952755905512
          },
          {
            "duration": 0.3488370000000032,
            "durationTicks": 480,
            "midi": 58,
            "name": "A#3",
            "ticks": 56640,
            "time": 41.162766,
            "velocity": 0.6377952755905512
          },
          {
            "duration": 0.3488370000000032,
            "durationTicks": 480,
            "midi": 54,
            "name": "F#3",
            "ticks": 57120,
            "time": 41.511603,
            "velocity": 0.6377952755905512
          },
          {
            "duration": 0.3488370000000032,
            "durationTicks": 480,
            "midi": 58,
            "name": "A#3",
            "ticks": 57120,
            "time": 41.511603,
            "velocity": 0.6377952755905512
          },
          {
            "duration": 0.6976739999999992,
            "durationTicks": 960,
            "midi": 58,
            "name": "A#3",
            "ticks": 57600,
            "time": 41.860440000000004,
            "velocity": 0.6377952755905512
          },
          {
            "duration": 0.6976739999999992,
            "durationTicks": 960,
            "midi": 61,
            "name": "C#4",
            "ticks": 57600,
            "time": 41.860440000000004,
            "velocity": 0.6377952755905512
          },
          {
            "duration": 0.34883699999999607,
            "durationTicks": 480,
            "midi": 54,
            "name": "F#3",
            "ticks": 58560,
            "time": 42.558114,
            "velocity": 0.6377952755905512
          },
          {
            "duration": 0.34883699999999607,
            "durationTicks": 480,
            "midi": 58,
            "name": "A#3",
            "ticks": 58560,
            "time": 42.558114,
            "velocity": 0.6377952755905512
          },
          {
            "duration": 0.3488370000000032,
            "durationTicks": 480,
            "midi": 54,
            "name": "F#3",
            "ticks": 59040,
            "time": 42.906951,
            "velocity": 0.6377952755905512
          },
          {
            "duration": 0.3488370000000032,
            "durationTicks": 480,
            "midi": 58,
            "name": "A#3",
            "ticks": 59040,
            "time": 42.906951,
            "velocity": 0.6377952755905512
          },
          {
            "duration": 0.6976739999999992,
            "durationTicks": 960,
            "midi": 58,
            "name": "A#3",
            "ticks": 59520,
            "time": 43.255788,
            "velocity": 0.6377952755905512
          },
          {
            "duration": 0.6976739999999992,
            "durationTicks": 960,
            "midi": 61,
            "name": "C#4",
            "ticks": 59520,
            "time": 43.255788,
            "velocity": 0.6377952755905512
          },
          {
            "duration": 0.34883699999999607,
            "durationTicks": 480,
            "midi": 54,
            "name": "F#3",
            "ticks": 60480,
            "time": 43.953462,
            "velocity": 0.6377952755905512
          },
          {
            "duration": 0.34883699999999607,
            "durationTicks": 480,
            "midi": 58,
            "name": "A#3",
            "ticks": 60480,
            "time": 43.953462,
            "velocity": 0.6377952755905512
          },
          {
            "duration": 0.3488370000000032,
            "durationTicks": 480,
            "midi": 54,
            "name": "F#3",
            "ticks": 60960,
            "time": 44.302299,
            "velocity": 0.6377952755905512
          },
          {
            "duration": 0.3488370000000032,
            "durationTicks": 480,
            "midi": 58,
            "name": "A#3",
            "ticks": 60960,
            "time": 44.302299,
            "velocity": 0.6377952755905512
          },
          {
            "duration": 0.6976739999999992,
            "durationTicks": 960,
            "midi": 58,
            "name": "A#3",
            "ticks": 61440,
            "time": 44.651136,
            "velocity": 0.6377952755905512
          },
          {
            "duration": 0.6976739999999992,
            "durationTicks": 960,
            "midi": 61,
            "name": "C#4",
            "ticks": 61440,
            "time": 44.651136,
            "velocity": 0.6377952755905512
          },
          {
            "duration": 0.3488370000000032,
            "durationTicks": 480,
            "midi": 59,
            "name": "B3",
            "ticks": 62400,
            "time": 45.34881,
            "velocity": 0.6377952755905512
          },
          {
            "duration": 0.3488370000000032,
            "durationTicks": 480,
            "midi": 63,
            "name": "D#4",
            "ticks": 62400,
            "time": 45.34881,
            "velocity": 0.6377952755905512
          },
          {
            "duration": 0.34883699999999607,
            "durationTicks": 480,
            "midi": 56,
            "name": "G#3",
            "ticks": 62880,
            "time": 45.697647,
            "velocity": 0.6377952755905512
          },
          {
            "duration": 0.34883699999999607,
            "durationTicks": 480,
            "midi": 59,
            "name": "B3",
            "ticks": 62880,
            "time": 45.697647,
            "velocity": 0.6377952755905512
          },
          {
            "duration": 0.3488370000000032,
            "durationTicks": 480,
            "midi": 52,
            "name": "E3",
            "ticks": 63360,
            "time": 46.046484,
            "velocity": 0.4566929133858268
          },
          {
            "duration": 0.3488370000000032,
            "durationTicks": 480,
            "midi": 56,
            "name": "G#3",
            "ticks": 63360,
            "time": 46.046484,
            "velocity": 0.6771653543307087
          },
          {
            "duration": 0.34883699999999607,
            "durationTicks": 480,
            "midi": 52,
            "name": "E3",
            "ticks": 63840,
            "time": 46.395321,
            "velocity": 0.4566929133858268
          },
          {
            "duration": 0.34883699999999607,
            "durationTicks": 480,
            "midi": 56,
            "name": "G#3",
            "ticks": 63840,
            "time": 46.395321,
            "velocity": 0.6771653543307087
          },
          {
            "duration": 0.3488370000000032,
            "durationTicks": 480,
            "midi": 52,
            "name": "E3",
            "ticks": 64320,
            "time": 46.744158,
            "velocity": 0.7952755905511811
          },
          {
            "duration": 0.3488370000000032,
            "durationTicks": 480,
            "midi": 56,
            "name": "G#3",
            "ticks": 64320,
            "time": 46.744158,
            "velocity": 0.8110236220472441
          },
          {
            "duration": 0.34883699999999607,
            "durationTicks": 480,
            "midi": 52,
            "name": "E3",
            "ticks": 64800,
            "time": 47.092995,
            "velocity": 0.7952755905511811
          },
          {
            "duration": 0.34883699999999607,
            "durationTicks": 480,
            "midi": 56,
            "name": "G#3",
            "ticks": 64800,
            "time": 47.092995,
            "velocity": 0.8110236220472441
          },
          {
            "duration": 0.3488370000000032,
            "durationTicks": 480,
            "midi": 56,
            "name": "G#3",
            "ticks": 65280,
            "time": 47.441832,
            "velocity": 0.6535433070866141
          },
          {
            "duration": 0.3488370000000032,
            "durationTicks": 480,
            "midi": 59,
            "name": "B3",
            "ticks": 65280,
            "time": 47.441832,
            "velocity": 0.8110236220472441
          },
          {
            "duration": 0.3488370000000032,
            "durationTicks": 480,
            "midi": 52,
            "name": "E3",
            "ticks": 65760,
            "time": 47.790669,
            "velocity": 0.8110236220472441
          },
          {
            "duration": 0.3488370000000032,
            "durationTicks": 480,
            "midi": 56,
            "name": "G#3",
            "ticks": 65760,
            "time": 47.790669,
            "velocity": 0.6535433070866141
          },
          {
            "duration": 0.34883699999999607,
            "durationTicks": 480,
            "midi": 56,
            "name": "G#3",
            "ticks": 66240,
            "time": 48.139506000000004,
            "velocity": 0.8267716535433071
          },
          {
            "duration": 0.34883699999999607,
            "durationTicks": 480,
            "midi": 59,
            "name": "B3",
            "ticks": 66240,
            "time": 48.139506000000004,
            "velocity": 0.8976377952755905
          },
          {
            "duration": 0.3488370000000032,
            "durationTicks": 480,
            "midi": 52,
            "name": "E3",
            "ticks": 66720,
            "time": 48.488343,
            "velocity": 0.8976377952755905
          },
          {
            "duration": 0.3488370000000032,
            "durationTicks": 480,
            "midi": 56,
            "name": "G#3",
            "ticks": 66720,
            "time": 48.488343,
            "velocity": 0.8267716535433071
          },
          {
            "duration": 0.34883699999999607,
            "durationTicks": 480,
            "midi": 52,
            "name": "E3",
            "ticks": 67200,
            "time": 48.837180000000004,
            "velocity": 0.4566929133858268
          },
          {
            "duration": 0.34883699999999607,
            "durationTicks": 480,
            "midi": 56,
            "name": "G#3",
            "ticks": 67200,
            "time": 48.837180000000004,
            "velocity": 0.6771653543307087
          },
          {
            "duration": 0.3488370000000032,
            "durationTicks": 480,
            "midi": 52,
            "name": "E3",
            "ticks": 67680,
            "time": 49.186017,
            "velocity": 0.4566929133858268
          },
          {
            "duration": 0.3488370000000032,
            "durationTicks": 480,
            "midi": 56,
            "name": "G#3",
            "ticks": 67680,
            "time": 49.186017,
            "velocity": 0.6771653543307087
          },
          {
            "duration": 0.34883699999999607,
            "durationTicks": 480,
            "midi": 52,
            "name": "E3",
            "ticks": 68160,
            "time": 49.534854,
            "velocity": 0.7952755905511811
          },
          {
            "duration": 0.34883699999999607,
            "durationTicks": 480,
            "midi": 56,
            "name": "G#3",
            "ticks": 68160,
            "time": 49.534854,
            "velocity": 0.8110236220472441
          },
          {
            "duration": 0.3488370000000032,
            "durationTicks": 480,
            "midi": 52,
            "name": "E3",
            "ticks": 68640,
            "time": 49.883691,
            "velocity": 0.7952755905511811
          },
          {
            "duration": 0.3488370000000032,
            "durationTicks": 480,
            "midi": 56,
            "name": "G#3",
            "ticks": 68640,
            "time": 49.883691,
            "velocity": 0.8110236220472441
          },
          {
            "duration": 0.34883699999999607,
            "durationTicks": 480,
            "midi": 56,
            "name": "G#3",
            "ticks": 69120,
            "time": 50.232528,
            "velocity": 0.6535433070866141
          },
          {
            "duration": 0.34883699999999607,
            "durationTicks": 480,
            "midi": 59,
            "name": "B3",
            "ticks": 69120,
            "time": 50.232528,
            "velocity": 0.8110236220472441
          },
          {
            "duration": 0.3488370000000032,
            "durationTicks": 480,
            "midi": 56,
            "name": "G#3",
            "ticks": 69600,
            "time": 50.581365,
            "velocity": 0.6535433070866141
          },
          {
            "duration": 0.3488370000000032,
            "durationTicks": 480,
            "midi": 59,
            "name": "B3",
            "ticks": 69600,
            "time": 50.581365,
            "velocity": 0.8110236220472441
          },
          {
            "duration": 0.3488370000000032,
            "durationTicks": 480,
            "midi": 56,
            "name": "G#3",
            "ticks": 70080,
            "time": 50.930202,
            "velocity": 0.8267716535433071
          },
          {
            "duration": 0.3488370000000032,
            "durationTicks": 480,
            "midi": 59,
            "name": "B3",
            "ticks": 70080,
            "time": 50.930202,
            "velocity": 0.8976377952755905
          },
          {
            "duration": 0.34883699999999607,
            "durationTicks": 480,
            "midi": 56,
            "name": "G#3",
            "ticks": 70560,
            "time": 51.279039000000004,
            "velocity": 0.8267716535433071
          },
          {
            "duration": 0.34883699999999607,
            "durationTicks": 480,
            "midi": 59,
            "name": "B3",
            "ticks": 70560,
            "time": 51.279039000000004,
            "velocity": 0.8976377952755905
          },
          {
            "duration": 0.3488370000000032,
            "durationTicks": 480,
            "midi": 63,
            "name": "D#4",
            "ticks": 71040,
            "time": 51.627876,
            "velocity": 0.7165354330708661
          },
          {
            "duration": 0.3488370000000032,
            "durationTicks": 480,
            "midi": 66,
            "name": "F#4",
            "ticks": 71040,
            "time": 51.627876,
            "velocity": 0.6929133858267716
          },
          {
            "duration": 0.34883699999999607,
            "durationTicks": 480,
            "midi": 63,
            "name": "D#4",
            "ticks": 71520,
            "time": 51.976713000000004,
            "velocity": 0.7165354330708661
          },
          {
            "duration": 0.34883699999999607,
            "durationTicks": 480,
            "midi": 66,
            "name": "F#4",
            "ticks": 71520,
            "time": 51.976713000000004,
            "velocity": 0.6929133858267716
          },
          {
            "duration": 0.3488370000000032,
            "durationTicks": 480,
            "midi": 59,
            "name": "B3",
            "ticks": 72000,
            "time": 52.32555,
            "velocity": 0.7165354330708661
          },
          {
            "duration": 0.3488370000000032,
            "durationTicks": 480,
            "midi": 63,
            "name": "D#4",
            "ticks": 72000,
            "time": 52.32555,
            "velocity": 0.7322834645669292
          },
          {
            "duration": 0.34883699999999607,
            "durationTicks": 480,
            "midi": 59,
            "name": "B3",
            "ticks": 72480,
            "time": 52.674387,
            "velocity": 0.7165354330708661
          },
          {
            "duration": 0.34883699999999607,
            "durationTicks": 480,
            "midi": 63,
            "name": "D#4",
            "ticks": 72480,
            "time": 52.674387,
            "velocity": 0.7322834645669292
          },
          {
            "duration": 0.3488370000000032,
            "durationTicks": 480,
            "midi": 63,
            "name": "D#4",
            "ticks": 72960,
            "time": 53.023224,
            "velocity": 0.7165354330708661
          },
          {
            "duration": 0.3488370000000032,
            "durationTicks": 480,
            "midi": 66,
            "name": "F#4",
            "ticks": 72960,
            "time": 53.023224,
            "velocity": 0.6771653543307087
          },
          {
            "duration": 0.34883699999999607,
            "durationTicks": 480,
            "midi": 63,
            "name": "D#4",
            "ticks": 73440,
            "time": 53.372061,
            "velocity": 0.7165354330708661
          },
          {
            "duration": 0.34883699999999607,
            "durationTicks": 480,
            "midi": 66,
            "name": "F#4",
            "ticks": 73440,
            "time": 53.372061,
            "velocity": 0.6771653543307087
          },
          {
            "duration": 0.3488370000000032,
            "durationTicks": 480,
            "midi": 59,
            "name": "B3",
            "ticks": 73920,
            "time": 53.720898,
            "velocity": 0.7322834645669292
          },
          {
            "duration": 0.3488370000000032,
            "durationTicks": 480,
            "midi": 63,
            "name": "D#4",
            "ticks": 73920,
            "time": 53.720898,
            "velocity": 0.7165354330708661
          },
          {
            "duration": 0.1744185000000016,
            "durationTicks": 240,
            "midi": 59,
            "name": "B3",
            "ticks": 74400,
            "time": 54.069735,
            "velocity": 0.7322834645669292
          },
          {
            "duration": 0.1744185000000016,
            "durationTicks": 240,
            "midi": 63,
            "name": "D#4",
            "ticks": 74400,
            "time": 54.069735,
            "velocity": 0.7165354330708661
          },
          {
            "duration": 0.1744185000000016,
            "durationTicks": 240,
            "midi": 59,
            "name": "B3",
            "ticks": 74640,
            "time": 54.2441535,
            "velocity": 0.7322834645669292
          },
          {
            "duration": 0.1744185000000016,
            "durationTicks": 240,
            "midi": 63,
            "name": "D#4",
            "ticks": 74640,
            "time": 54.2441535,
            "velocity": 0.7165354330708661
          },
          {
            "duration": 0.34883699999999607,
            "durationTicks": 480,
            "midi": 63,
            "name": "D#4",
            "ticks": 74880,
            "time": 54.418572000000005,
            "velocity": 0.7165354330708661
          },
          {
            "duration": 0.34883699999999607,
            "durationTicks": 480,
            "midi": 66,
            "name": "F#4",
            "ticks": 74880,
            "time": 54.418572000000005,
            "velocity": 0.6771653543307087
          },
          {
            "duration": 0.3488370000000032,
            "durationTicks": 480,
            "midi": 63,
            "name": "D#4",
            "ticks": 75360,
            "time": 54.767409,
            "velocity": 0.7165354330708661
          },
          {
            "duration": 0.3488370000000032,
            "durationTicks": 480,
            "midi": 66,
            "name": "F#4",
            "ticks": 75360,
            "time": 54.767409,
            "velocity": 0.6771653543307087
          },
          {
            "duration": 0.34883699999999607,
            "durationTicks": 480,
            "midi": 59,
            "name": "B3",
            "ticks": 75840,
            "time": 55.116246000000004,
            "velocity": 0.7322834645669292
          },
          {
            "duration": 0.34883699999999607,
            "durationTicks": 480,
            "midi": 63,
            "name": "D#4",
            "ticks": 75840,
            "time": 55.116246000000004,
            "velocity": 0.7165354330708661
          },
          {
            "duration": 0.3488370000000032,
            "durationTicks": 480,
            "midi": 59,
            "name": "B3",
            "ticks": 76320,
            "time": 55.465083,
            "velocity": 0.7322834645669292
          },
          {
            "duration": 0.3488370000000032,
            "durationTicks": 480,
            "midi": 63,
            "name": "D#4",
            "ticks": 76320,
            "time": 55.465083,
            "velocity": 0.7165354330708661
          },
          {
            "duration": 0.34883699999999607,
            "durationTicks": 480,
            "midi": 63,
            "name": "D#4",
            "ticks": 76800,
            "time": 55.81392,
            "velocity": 0.7165354330708661
          },
          {
            "duration": 0.34883699999999607,
            "durationTicks": 480,
            "midi": 66,
            "name": "F#4",
            "ticks": 76800,
            "time": 55.81392,
            "velocity": 0.6771653543307087
          },
          {
            "duration": 0.3488370000000032,
            "durationTicks": 480,
            "midi": 63,
            "name": "D#4",
            "ticks": 77280,
            "time": 56.162757,
            "velocity": 0.7165354330708661
          },
          {
            "duration": 0.3488370000000032,
            "durationTicks": 480,
            "midi": 66,
            "name": "F#4",
            "ticks": 77280,
            "time": 56.162757,
            "velocity": 0.6771653543307087
          },
          {
            "duration": 0.34883699999999607,
            "durationTicks": 480,
            "midi": 59,
            "name": "B3",
            "ticks": 77760,
            "time": 56.511594,
            "velocity": 0.7322834645669292
          },
          {
            "duration": 0.34883699999999607,
            "durationTicks": 480,
            "midi": 63,
            "name": "D#4",
            "ticks": 77760,
            "time": 56.511594,
            "velocity": 0.7165354330708661
          },
          {
            "duration": 0.3488370000000032,
            "durationTicks": 480,
            "midi": 59,
            "name": "B3",
            "ticks": 78240,
            "time": 56.860431,
            "velocity": 0.7322834645669292
          },
          {
            "duration": 0.3488370000000032,
            "durationTicks": 480,
            "midi": 63,
            "name": "D#4",
            "ticks": 78240,
            "time": 56.860431,
            "velocity": 0.7165354330708661
          },
          {
            "duration": 0.6976739999999992,
            "durationTicks": 960,
            "midi": 58,
            "name": "A#3",
            "ticks": 78720,
            "time": 57.209268,
            "velocity": 0.6377952755905512
          },
          {
            "duration": 0.6976739999999992,
            "durationTicks": 960,
            "midi": 61,
            "name": "C#4",
            "ticks": 78720,
            "time": 57.209268,
            "velocity": 0.6377952755905512
          },
          {
            "duration": 0.3488370000000032,
            "durationTicks": 480,
            "midi": 54,
            "name": "F#3",
            "ticks": 79680,
            "time": 57.906942,
            "velocity": 0.6377952755905512
          },
          {
            "duration": 0.3488370000000032,
            "durationTicks": 480,
            "midi": 58,
            "name": "A#3",
            "ticks": 79680,
            "time": 57.906942,
            "velocity": 0.6377952755905512
          },
          {
            "duration": 0.34883699999999607,
            "durationTicks": 480,
            "midi": 54,
            "name": "F#3",
            "ticks": 80160,
            "time": 58.255779000000004,
            "velocity": 0.6377952755905512
          },
          {
            "duration": 0.34883699999999607,
            "durationTicks": 480,
            "midi": 58,
            "name": "A#3",
            "ticks": 80160,
            "time": 58.255779000000004,
            "velocity": 0.6377952755905512
          },
          {
            "duration": 0.6976739999999992,
            "durationTicks": 960,
            "midi": 58,
            "name": "A#3",
            "ticks": 80640,
            "time": 58.604616,
            "velocity": 0.6377952755905512
          },
          {
            "duration": 0.6976739999999992,
            "durationTicks": 960,
            "midi": 61,
            "name": "C#4",
            "ticks": 80640,
            "time": 58.604616,
            "velocity": 0.6377952755905512
          },
          {
            "duration": 0.3488370000000032,
            "durationTicks": 480,
            "midi": 54,
            "name": "F#3",
            "ticks": 81600,
            "time": 59.30229,
            "velocity": 0.6377952755905512
          },
          {
            "duration": 0.3488370000000032,
            "durationTicks": 480,
            "midi": 58,
            "name": "A#3",
            "ticks": 81600,
            "time": 59.30229,
            "velocity": 0.6377952755905512
          },
          {
            "duration": 0.34883699999999607,
            "durationTicks": 480,
            "midi": 54,
            "name": "F#3",
            "ticks": 82080,
            "time": 59.651127,
            "velocity": 0.6377952755905512
          },
          {
            "duration": 0.34883699999999607,
            "durationTicks": 480,
            "midi": 58,
            "name": "A#3",
            "ticks": 82080,
            "time": 59.651127,
            "velocity": 0.6377952755905512
          },
          {
            "duration": 0.6976740000000063,
            "durationTicks": 960,
            "midi": 58,
            "name": "A#3",
            "ticks": 82560,
            "time": 59.999964,
            "velocity": 0.6377952755905512
          },
          {
            "duration": 0.6976740000000063,
            "durationTicks": 960,
            "midi": 61,
            "name": "C#4",
            "ticks": 82560,
            "time": 59.999964,
            "velocity": 0.6377952755905512
          },
          {
            "duration": 0.34883699999999607,
            "durationTicks": 480,
            "midi": 54,
            "name": "F#3",
            "ticks": 83520,
            "time": 60.697638000000005,
            "velocity": 0.6377952755905512
          },
          {
            "duration": 0.34883699999999607,
            "durationTicks": 480,
            "midi": 58,
            "name": "A#3",
            "ticks": 83520,
            "time": 60.697638000000005,
            "velocity": 0.6377952755905512
          },
          {
            "duration": 0.3488370000000032,
            "durationTicks": 480,
            "midi": 54,
            "name": "F#3",
            "ticks": 84000,
            "time": 61.046475,
            "velocity": 0.6377952755905512
          },
          {
            "duration": 0.3488370000000032,
            "durationTicks": 480,
            "midi": 58,
            "name": "A#3",
            "ticks": 84000,
            "time": 61.046475,
            "velocity": 0.6377952755905512
          },
          {
            "duration": 0.6976739999999992,
            "durationTicks": 960,
            "midi": 58,
            "name": "A#3",
            "ticks": 84480,
            "time": 61.395312000000004,
            "velocity": 0.6377952755905512
          },
          {
            "duration": 0.6976739999999992,
            "durationTicks": 960,
            "midi": 61,
            "name": "C#4",
            "ticks": 84480,
            "time": 61.395312000000004,
            "velocity": 0.6377952755905512
          },
          {
            "duration": 0.34883699999999607,
            "durationTicks": 480,
            "midi": 59,
            "name": "B3",
            "ticks": 85440,
            "time": 62.092986,
            "velocity": 0.6377952755905512
          },
          {
            "duration": 0.34883699999999607,
            "durationTicks": 480,
            "midi": 63,
            "name": "D#4",
            "ticks": 85440,
            "time": 62.092986,
            "velocity": 0.6377952755905512
          },
          {
            "duration": 0.3488370000000032,
            "durationTicks": 480,
            "midi": 56,
            "name": "G#3",
            "ticks": 85920,
            "time": 62.441823,
            "velocity": 0.6377952755905512
          },
          {
            "duration": 0.3488370000000032,
            "durationTicks": 480,
            "midi": 59,
            "name": "B3",
            "ticks": 85920,
            "time": 62.441823,
            "velocity": 0.6377952755905512
          },
          {
            "duration": 0.6976739999999992,
            "durationTicks": 960,
            "midi": 52,
            "name": "E3",
            "ticks": 86400,
            "time": 62.79066,
            "velocity": 0.4566929133858268
          },
          {
            "duration": 0.6976739999999992,
            "durationTicks": 960,
            "midi": 56,
            "name": "G#3",
            "ticks": 86400,
            "time": 62.79066,
            "velocity": 0.6771653543307087
          },
          {
            "duration": 1.3953480000000056,
            "durationTicks": 1920,
            "midi": 59,
            "name": "B3",
            "ticks": 87360,
            "time": 63.488334,
            "velocity": 0.8110236220472441
          },
          {
            "duration": 1.3372084999999956,
            "durationTicks": 1840,
            "midi": 63,
            "name": "D#4",
            "ticks": 87480,
            "time": 63.57554325,
            "velocity": 0.7952755905511811
          },
          {
            "duration": 1.2790689999999998,
            "durationTicks": 1760,
            "midi": 68,
            "name": "G#4",
            "ticks": 87480,
            "time": 63.57554325,
            "velocity": 0.7952755905511811
          },
          {
            "duration": 0.34883699999999607,
            "durationTicks": 480,
            "midi": 52,
            "name": "E3",
            "ticks": 87840,
            "time": 63.837171000000005,
            "velocity": 0.7952755905511811
          },
          {
            "duration": 0.34883699999999607,
            "durationTicks": 480,
            "midi": 56,
            "name": "G#3",
            "ticks": 87840,
            "time": 63.837171000000005,
            "velocity": 0.8110236220472441
          },
          {
            "duration": 0.3488370000000032,
            "durationTicks": 480,
            "midi": 52,
            "name": "E3",
            "ticks": 88320,
            "time": 64.186008,
            "velocity": 0.7322834645669292
          },
          {
            "duration": 0.3488370000000032,
            "durationTicks": 480,
            "midi": 56,
            "name": "G#3",
            "ticks": 88320,
            "time": 64.186008,
            "velocity": 0.6771653543307087
          },
          {
            "duration": 0.3488370000000032,
            "durationTicks": 480,
            "midi": 52,
            "name": "E3",
            "ticks": 88800,
            "time": 64.534845,
            "velocity": 0.8267716535433071
          },
          {
            "duration": 0.3488370000000032,
            "durationTicks": 480,
            "midi": 56,
            "name": "G#3",
            "ticks": 88800,
            "time": 64.534845,
            "velocity": 0.7952755905511811
          },
          {
            "duration": 0.34883699999998896,
            "durationTicks": 480,
            "midi": 56,
            "name": "G#3",
            "ticks": 89280,
            "time": 64.88368200000001,
            "velocity": 0.84251968503937
          },
          {
            "duration": 0.34883699999998896,
            "durationTicks": 480,
            "midi": 59,
            "name": "B3",
            "ticks": 89280,
            "time": 64.88368200000001,
            "velocity": 0.84251968503937
          },
          {
            "duration": 0.3488370000000032,
            "durationTicks": 480,
            "midi": 52,
            "name": "E3",
            "ticks": 89760,
            "time": 65.232519,
            "velocity": 0.8267716535433071
          },
          {
            "duration": 0.3488370000000032,
            "durationTicks": 480,
            "midi": 56,
            "name": "G#3",
            "ticks": 89760,
            "time": 65.232519,
            "velocity": 0.84251968503937
          },
          {
            "duration": 0.3488370000000032,
            "durationTicks": 480,
            "midi": 52,
            "name": "E3",
            "ticks": 90240,
            "time": 65.581356,
            "velocity": 0.7322834645669292
          },
          {
            "duration": 0.3488370000000032,
            "durationTicks": 480,
            "midi": 56,
            "name": "G#3",
            "ticks": 90240,
            "time": 65.581356,
            "velocity": 0.6771653543307087
          },
          {
            "duration": 0.3488370000000032,
            "durationTicks": 480,
            "midi": 52,
            "name": "E3",
            "ticks": 90720,
            "time": 65.930193,
            "velocity": 0.8267716535433071
          },
          {
            "duration": 0.3488370000000032,
            "durationTicks": 480,
            "midi": 56,
            "name": "G#3",
            "ticks": 90720,
            "time": 65.930193,
            "velocity": 0.7952755905511811
          },
          {
            "duration": 0.34883699999998896,
            "durationTicks": 480,
            "midi": 56,
            "name": "G#3",
            "ticks": 91200,
            "time": 66.27903,
            "velocity": 0.84251968503937
          },
          {
            "duration": 0.34883699999998896,
            "durationTicks": 480,
            "midi": 59,
            "name": "B3",
            "ticks": 91200,
            "time": 66.27903,
            "velocity": 0.84251968503937
          },
          {
            "duration": 0.3488370000000032,
            "durationTicks": 480,
            "midi": 52,
            "name": "E3",
            "ticks": 91680,
            "time": 66.627867,
            "velocity": 0.8267716535433071
          },
          {
            "duration": 0.3488370000000032,
            "durationTicks": 480,
            "midi": 56,
            "name": "G#3",
            "ticks": 91680,
            "time": 66.627867,
            "velocity": 0.84251968503937
          },
          {
            "duration": 0.3488370000000032,
            "durationTicks": 480,
            "midi": 52,
            "name": "E3",
            "ticks": 92160,
            "time": 66.976704,
            "velocity": 0.7322834645669292
          },
          {
            "duration": 0.3488370000000032,
            "durationTicks": 480,
            "midi": 56,
            "name": "G#3",
            "ticks": 92160,
            "time": 66.976704,
            "velocity": 0.6771653543307087
          },
          {
            "duration": 0.3488370000000032,
            "durationTicks": 480,
            "midi": 52,
            "name": "E3",
            "ticks": 92640,
            "time": 67.325541,
            "velocity": 0.8267716535433071
          },
          {
            "duration": 0.3488370000000032,
            "durationTicks": 480,
            "midi": 56,
            "name": "G#3",
            "ticks": 92640,
            "time": 67.325541,
            "velocity": 0.7952755905511811
          },
          {
            "duration": 0.3488370000000032,
            "durationTicks": 480,
            "midi": 56,
            "name": "G#3",
            "ticks": 93120,
            "time": 67.674378,
            "velocity": 0.84251968503937
          },
          {
            "duration": 0.3488370000000032,
            "durationTicks": 480,
            "midi": 59,
            "name": "B3",
            "ticks": 93120,
            "time": 67.674378,
            "velocity": 0.84251968503937
          },
          {
            "duration": 0.34883699999998896,
            "durationTicks": 480,
            "midi": 52,
            "name": "E3",
            "ticks": 93600,
            "time": 68.02321500000001,
            "velocity": 0.8267716535433071
          },
          {
            "duration": 0.34883699999998896,
            "durationTicks": 480,
            "midi": 56,
            "name": "G#3",
            "ticks": 93600,
            "time": 68.02321500000001,
            "velocity": 0.84251968503937
          },
          {
            "duration": 0.3488370000000032,
            "durationTicks": 480,
            "midi": 59,
            "name": "B3",
            "ticks": 94080,
            "time": 68.372052,
            "velocity": 0.6771653543307087
          },
          {
            "duration": 0.3488370000000032,
            "durationTicks": 480,
            "midi": 63,
            "name": "D#4",
            "ticks": 94080,
            "time": 68.372052,
            "velocity": 0.7165354330708661
          },
          {
            "duration": 0.3488370000000032,
            "durationTicks": 480,
            "midi": 59,
            "name": "B3",
            "ticks": 94560,
            "time": 68.720889,
            "velocity": 0.6771653543307087
          },
          {
            "duration": 0.3488370000000032,
            "durationTicks": 480,
            "midi": 63,
            "name": "D#4",
            "ticks": 94560,
            "time": 68.720889,
            "velocity": 0.7165354330708661
          },
          {
            "duration": 0.3488370000000032,
            "durationTicks": 480,
            "midi": 59,
            "name": "B3",
            "ticks": 95040,
            "time": 69.069726,
            "velocity": 0.6771653543307087
          },
          {
            "duration": 0.2906975000000074,
            "durationTicks": 400,
            "midi": 63,
            "name": "D#4",
            "ticks": 95160,
            "time": 69.15693525,
            "velocity": 0.7165354330708661
          },
          {
            "duration": 0.9302319999999895,
            "durationTicks": 1280,
            "midi": 66,
            "name": "F#4",
            "ticks": 95160,
            "time": 69.15693525,
            "velocity": 0.6771653543307087
          },
          {
            "duration": 0.34883699999998896,
            "durationTicks": 480,
            "midi": 59,
            "name": "B3",
            "ticks": 95520,
            "time": 69.418563,
            "velocity": 0.6771653543307087
          },
          {
            "duration": 0.34883699999998896,
            "durationTicks": 480,
            "midi": 63,
            "name": "D#4",
            "ticks": 95520,
            "time": 69.418563,
            "velocity": 0.7165354330708661
          },
          {
            "duration": 0.3488370000000032,
            "durationTicks": 480,
            "midi": 59,
            "name": "B3",
            "ticks": 96000,
            "time": 69.7674,
            "velocity": 0.6771653543307087
          },
          {
            "duration": 0.3488370000000032,
            "durationTicks": 480,
            "midi": 63,
            "name": "D#4",
            "ticks": 96000,
            "time": 69.7674,
            "velocity": 0.7165354330708661
          },
          {
            "duration": 0.3488370000000032,
            "durationTicks": 480,
            "midi": 59,
            "name": "B3",
            "ticks": 96480,
            "time": 70.116237,
            "velocity": 0.6771653543307087
          },
          {
            "duration": 0.3488370000000032,
            "durationTicks": 480,
            "midi": 63,
            "name": "D#4",
            "ticks": 96480,
            "time": 70.116237,
            "velocity": 0.7165354330708661
          },
          {
            "duration": 0.3488370000000032,
            "durationTicks": 480,
            "midi": 59,
            "name": "B3",
            "ticks": 96960,
            "time": 70.465074,
            "velocity": 0.6771653543307087
          },
          {
            "duration": 0.3488370000000032,
            "durationTicks": 480,
            "midi": 63,
            "name": "D#4",
            "ticks": 96960,
            "time": 70.465074,
            "velocity": 0.7165354330708661
          },
          {
            "duration": 0.3488370000000032,
            "durationTicks": 480,
            "midi": 66,
            "name": "F#4",
            "ticks": 96960,
            "time": 70.465074,
            "velocity": 0.6771653543307087
          },
          {
            "duration": 0.3488370000000032,
            "durationTicks": 480,
            "midi": 59,
            "name": "B3",
            "ticks": 97440,
            "time": 70.813911,
            "velocity": 0.6771653543307087
          },
          {
            "duration": 0.3488370000000032,
            "durationTicks": 480,
            "midi": 63,
            "name": "D#4",
            "ticks": 97440,
            "time": 70.813911,
            "velocity": 0.7165354330708661
          },
          {
            "duration": 0.34883699999998896,
            "durationTicks": 480,
            "midi": 63,
            "name": "D#4",
            "ticks": 97920,
            "time": 71.16274800000001,
            "velocity": 0.7165354330708661
          },
          {
            "duration": 0.34883699999998896,
            "durationTicks": 480,
            "midi": 66,
            "name": "F#4",
            "ticks": 97920,
            "time": 71.16274800000001,
            "velocity": 0.6771653543307087
          },
          {
            "duration": 0.3488370000000032,
            "durationTicks": 480,
            "midi": 63,
            "name": "D#4",
            "ticks": 98400,
            "time": 71.511585,
            "velocity": 0.7165354330708661
          },
          {
            "duration": 0.3488370000000032,
            "durationTicks": 480,
            "midi": 66,
            "name": "F#4",
            "ticks": 98400,
            "time": 71.511585,
            "velocity": 0.6771653543307087
          },
          {
            "duration": 0.3488370000000032,
            "durationTicks": 480,
            "midi": 59,
            "name": "B3",
            "ticks": 98880,
            "time": 71.860422,
            "velocity": 0.7322834645669292
          },
          {
            "duration": 0.3488370000000032,
            "durationTicks": 480,
            "midi": 63,
            "name": "D#4",
            "ticks": 98880,
            "time": 71.860422,
            "velocity": 0.7165354330708661
          },
          {
            "duration": 0.3488370000000032,
            "durationTicks": 480,
            "midi": 59,
            "name": "B3",
            "ticks": 99360,
            "time": 72.209259,
            "velocity": 0.7322834645669292
          },
          {
            "duration": 0.3488370000000032,
            "durationTicks": 480,
            "midi": 63,
            "name": "D#4",
            "ticks": 99360,
            "time": 72.209259,
            "velocity": 0.7165354330708661
          },
          {
            "duration": 0.34883699999998896,
            "durationTicks": 480,
            "midi": 63,
            "name": "D#4",
            "ticks": 99840,
            "time": 72.558096,
            "velocity": 0.7165354330708661
          },
          {
            "duration": 0.34883699999998896,
            "durationTicks": 480,
            "midi": 66,
            "name": "F#4",
            "ticks": 99840,
            "time": 72.558096,
            "velocity": 0.6771653543307087
          },
          {
            "duration": 0.3488370000000032,
            "durationTicks": 480,
            "midi": 63,
            "name": "D#4",
            "ticks": 100320,
            "time": 72.906933,
            "velocity": 0.7165354330708661
          },
          {
            "duration": 0.3488370000000032,
            "durationTicks": 480,
            "midi": 66,
            "name": "F#4",
            "ticks": 100320,
            "time": 72.906933,
            "velocity": 0.6771653543307087
          },
          {
            "duration": 0.3488370000000032,
            "durationTicks": 480,
            "midi": 59,
            "name": "B3",
            "ticks": 100800,
            "time": 73.25577,
            "velocity": 0.7322834645669292
          },
          {
            "duration": 0.3488370000000032,
            "durationTicks": 480,
            "midi": 63,
            "name": "D#4",
            "ticks": 100800,
            "time": 73.25577,
            "velocity": 0.7165354330708661
          },
          {
            "duration": 0.3488370000000032,
            "durationTicks": 480,
            "midi": 59,
            "name": "B3",
            "ticks": 101280,
            "time": 73.604607,
            "velocity": 0.7322834645669292
          },
          {
            "duration": 0.3488370000000032,
            "durationTicks": 480,
            "midi": 63,
            "name": "D#4",
            "ticks": 101280,
            "time": 73.604607,
            "velocity": 0.7165354330708661
          },
          {
            "duration": 0.6976739999999921,
            "durationTicks": 960,
            "midi": 58,
            "name": "A#3",
            "ticks": 101760,
            "time": 73.953444,
            "velocity": 0.6377952755905512
          },
          {
            "duration": 0.6976739999999921,
            "durationTicks": 960,
            "midi": 61,
            "name": "C#4",
            "ticks": 101760,
            "time": 73.953444,
            "velocity": 0.6377952755905512
          },
          {
            "duration": 0.3488370000000032,
            "durationTicks": 480,
            "midi": 54,
            "name": "F#3",
            "ticks": 102720,
            "time": 74.651118,
            "velocity": 0.6377952755905512
          },
          {
            "duration": 0.3488370000000032,
            "durationTicks": 480,
            "midi": 58,
            "name": "A#3",
            "ticks": 102720,
            "time": 74.651118,
            "velocity": 0.6377952755905512
          },
          {
            "duration": 0.3488370000000032,
            "durationTicks": 480,
            "midi": 54,
            "name": "F#3",
            "ticks": 103200,
            "time": 74.999955,
            "velocity": 0.6377952755905512
          },
          {
            "duration": 0.3488370000000032,
            "durationTicks": 480,
            "midi": 58,
            "name": "A#3",
            "ticks": 103200,
            "time": 74.999955,
            "velocity": 0.6377952755905512
          },
          {
            "duration": 0.6976739999999921,
            "durationTicks": 960,
            "midi": 58,
            "name": "A#3",
            "ticks": 103680,
            "time": 75.348792,
            "velocity": 0.6377952755905512
          },
          {
            "duration": 0.6976739999999921,
            "durationTicks": 960,
            "midi": 61,
            "name": "C#4",
            "ticks": 103680,
            "time": 75.348792,
            "velocity": 0.6377952755905512
          },
          {
            "duration": 0.3488370000000032,
            "durationTicks": 480,
            "midi": 54,
            "name": "F#3",
            "ticks": 104640,
            "time": 76.046466,
            "velocity": 0.6377952755905512
          },
          {
            "duration": 0.3488370000000032,
            "durationTicks": 480,
            "midi": 58,
            "name": "A#3",
            "ticks": 104640,
            "time": 76.046466,
            "velocity": 0.6377952755905512
          },
          {
            "duration": 0.3488370000000032,
            "durationTicks": 480,
            "midi": 54,
            "name": "F#3",
            "ticks": 105120,
            "time": 76.395303,
            "velocity": 0.6377952755905512
          },
          {
            "duration": 0.3488370000000032,
            "durationTicks": 480,
            "midi": 58,
            "name": "A#3",
            "ticks": 105120,
            "time": 76.395303,
            "velocity": 0.6377952755905512
          },
          {
            "duration": 0.6976740000000063,
            "durationTicks": 960,
            "midi": 58,
            "name": "A#3",
            "ticks": 105600,
            "time": 76.74414,
            "velocity": 0.6377952755905512
          },
          {
            "duration": 0.6976740000000063,
            "durationTicks": 960,
            "midi": 61,
            "name": "C#4",
            "ticks": 105600,
            "time": 76.74414,
            "velocity": 0.6377952755905512
          },
          {
            "duration": 0.34883699999998896,
            "durationTicks": 480,
            "midi": 54,
            "name": "F#3",
            "ticks": 106560,
            "time": 77.44181400000001,
            "velocity": 0.6377952755905512
          },
          {
            "duration": 0.34883699999998896,
            "durationTicks": 480,
            "midi": 58,
            "name": "A#3",
            "ticks": 106560,
            "time": 77.44181400000001,
            "velocity": 0.6377952755905512
          },
          {
            "duration": 0.3488370000000032,
            "durationTicks": 480,
            "midi": 54,
            "name": "F#3",
            "ticks": 107040,
            "time": 77.790651,
            "velocity": 0.6377952755905512
          },
          {
            "duration": 0.3488370000000032,
            "durationTicks": 480,
            "midi": 58,
            "name": "A#3",
            "ticks": 107040,
            "time": 77.790651,
            "velocity": 0.6377952755905512
          },
          {
            "duration": 0.6976740000000063,
            "durationTicks": 960,
            "midi": 58,
            "name": "A#3",
            "ticks": 107520,
            "time": 78.139488,
            "velocity": 0.6377952755905512
          },
          {
            "duration": 0.6976740000000063,
            "durationTicks": 960,
            "midi": 61,
            "name": "C#4",
            "ticks": 107520,
            "time": 78.139488,
            "velocity": 0.6377952755905512
          },
          {
            "duration": 0.34883699999998896,
            "durationTicks": 480,
            "midi": 59,
            "name": "B3",
            "ticks": 108480,
            "time": 78.837162,
            "velocity": 0.6377952755905512
          },
          {
            "duration": 0.34883699999998896,
            "durationTicks": 480,
            "midi": 63,
            "name": "D#4",
            "ticks": 108480,
            "time": 78.837162,
            "velocity": 0.6377952755905512
          },
          {
            "duration": 0.3488370000000032,
            "durationTicks": 480,
            "midi": 56,
            "name": "G#3",
            "ticks": 108960,
            "time": 79.185999,
            "velocity": 0.6377952755905512
          },
          {
            "duration": 0.3488370000000032,
            "durationTicks": 480,
            "midi": 59,
            "name": "B3",
            "ticks": 108960,
            "time": 79.185999,
            "velocity": 0.6377952755905512
          },
          {
            "duration": 0.6918600500000025,
            "durationTicks": 952,
            "midi": 56,
            "name": "G#3",
            "ticks": 109440,
            "time": 79.534836,
            "velocity": 0.6377952755905512
          },
          {
            "duration": 0.7354646750000029,
            "durationTicks": 1012,
            "midi": 59,
            "name": "B3",
            "ticks": 109440,
            "time": 79.534836,
            "velocity": 0.6377952755905512
          },
          {
            "duration": 0.3488370000000032,
            "durationTicks": 480,
            "midi": 59,
            "name": "B3",
            "ticks": 110400,
            "time": 80.23251,
            "velocity": 0.8110236220472441
          },
          {
            "duration": 0.9883714999999995,
            "durationTicks": 1360,
            "midi": 64,
            "name": "E4",
            "ticks": 110520,
            "time": 80.31971925,
            "velocity": 0.7952755905511811
          },
          {
            "duration": 0.9302319999999895,
            "durationTicks": 1280,
            "midi": 68,
            "name": "G#4",
            "ticks": 110520,
            "time": 80.31971925,
            "velocity": 0.7952755905511811
          },
          {
            "duration": 0.34883699999998896,
            "durationTicks": 480,
            "midi": 56,
            "name": "G#3",
            "ticks": 110880,
            "time": 80.58134700000001,
            "velocity": 0.8110236220472441
          },
          {
            "duration": 0.34883699999998896,
            "durationTicks": 480,
            "midi": 59,
            "name": "B3",
            "ticks": 110880,
            "time": 80.58134700000001,
            "velocity": 0.7952755905511811
          },
          {
            "duration": 0.3488370000000032,
            "durationTicks": 480,
            "midi": 52,
            "name": "E3",
            "ticks": 111360,
            "time": 80.930184,
            "velocity": 0.6377952755905512
          },
          {
            "duration": 0.3488370000000032,
            "durationTicks": 480,
            "midi": 56,
            "name": "G#3",
            "ticks": 111360,
            "time": 80.930184,
            "velocity": 0.7480314960629921
          },
          {
            "duration": 0.3488370000000032,
            "durationTicks": 480,
            "midi": 47,
            "name": "B2",
            "ticks": 111840,
            "time": 81.279021,
            "velocity": 0.8267716535433071
          },
          {
            "duration": 0.3488370000000032,
            "durationTicks": 480,
            "midi": 52,
            "name": "E3",
            "ticks": 111840,
            "time": 81.279021,
            "velocity": 0.8267716535433071
          },
          {
            "duration": 0.3488370000000032,
            "durationTicks": 480,
            "midi": 52,
            "name": "E3",
            "ticks": 112320,
            "time": 81.627858,
            "velocity": 0.8267716535433071
          },
          {
            "duration": 0.3488370000000032,
            "durationTicks": 480,
            "midi": 56,
            "name": "G#3",
            "ticks": 112320,
            "time": 81.627858,
            "velocity": 0.7952755905511811
          },
          {
            "duration": 0.34883699999998896,
            "durationTicks": 480,
            "midi": 47,
            "name": "B2",
            "ticks": 112800,
            "time": 81.976695,
            "velocity": 0.8976377952755905
          },
          {
            "duration": 0.34883699999998896,
            "durationTicks": 480,
            "midi": 52,
            "name": "E3",
            "ticks": 112800,
            "time": 81.976695,
            "velocity": 0.8976377952755905
          },
          {
            "duration": 0.3488370000000032,
            "durationTicks": 480,
            "midi": 52,
            "name": "E3",
            "ticks": 113280,
            "time": 82.325532,
            "velocity": 0.6377952755905512
          },
          {
            "duration": 0.3488370000000032,
            "durationTicks": 480,
            "midi": 56,
            "name": "G#3",
            "ticks": 113280,
            "time": 82.325532,
            "velocity": 0.7480314960629921
          },
          {
            "duration": 0.3488370000000032,
            "durationTicks": 480,
            "midi": 47,
            "name": "B2",
            "ticks": 113760,
            "time": 82.674369,
            "velocity": 0.8267716535433071
          },
          {
            "duration": 0.3488370000000032,
            "durationTicks": 480,
            "midi": 52,
            "name": "E3",
            "ticks": 113760,
            "time": 82.674369,
            "velocity": 0.8267716535433071
          },
          {
            "duration": 0.3488370000000032,
            "durationTicks": 480,
            "midi": 52,
            "name": "E3",
            "ticks": 114240,
            "time": 83.023206,
            "velocity": 0.8267716535433071
          },
          {
            "duration": 0.3488370000000032,
            "durationTicks": 480,
            "midi": 56,
            "name": "G#3",
            "ticks": 114240,
            "time": 83.023206,
            "velocity": 0.7952755905511811
          },
          {
            "duration": 0.3488370000000032,
            "durationTicks": 480,
            "midi": 47,
            "name": "B2",
            "ticks": 114720,
            "time": 83.372043,
            "velocity": 0.8976377952755905
          },
          {
            "duration": 0.3488370000000032,
            "durationTicks": 480,
            "midi": 52,
            "name": "E3",
            "ticks": 114720,
            "time": 83.372043,
            "velocity": 0.8976377952755905
          },
          {
            "duration": 0.34883699999998896,
            "durationTicks": 480,
            "midi": 52,
            "name": "E3",
            "ticks": 115200,
            "time": 83.72088000000001,
            "velocity": 0.8110236220472441
          },
          {
            "duration": 0.34883699999998896,
            "durationTicks": 480,
            "midi": 56,
            "name": "G#3",
            "ticks": 115200,
            "time": 83.72088000000001,
            "velocity": 0.7952755905511811
          },
          {
            "duration": 0.3488370000000032,
            "durationTicks": 480,
            "midi": 47,
            "name": "B2",
            "ticks": 115680,
            "time": 84.069717,
            "velocity": 0.8976377952755905
          },
          {
            "duration": 0.3488370000000032,
            "durationTicks": 480,
            "midi": 52,
            "name": "E3",
            "ticks": 115680,
            "time": 84.069717,
            "velocity": 0.8976377952755905
          },
          {
            "duration": 0.3488370000000032,
            "durationTicks": 480,
            "midi": 52,
            "name": "E3",
            "ticks": 116160,
            "time": 84.418554,
            "velocity": 0.8582677165354331
          },
          {
            "duration": 0.3488370000000032,
            "durationTicks": 480,
            "midi": 56,
            "name": "G#3",
            "ticks": 116160,
            "time": 84.418554,
            "velocity": 0.84251968503937
          },
          {
            "duration": 0.3488370000000032,
            "durationTicks": 480,
            "midi": 47,
            "name": "B2",
            "ticks": 116640,
            "time": 84.767391,
            "velocity": 0.7952755905511811
          },
          {
            "duration": 0.3488370000000032,
            "durationTicks": 480,
            "midi": 52,
            "name": "E3",
            "ticks": 116640,
            "time": 84.767391,
            "velocity": 0.7952755905511811
          },
          {
            "duration": 0.3488370000000032,
            "durationTicks": 480,
            "midi": 54,
            "name": "F#3",
            "ticks": 116640,
            "time": 84.767391,
            "velocity": 0.8582677165354331
          },
          {
            "duration": 0.34883699999998896,
            "durationTicks": 480,
            "midi": 47,
            "name": "B2",
            "ticks": 117120,
            "time": 85.116228,
            "velocity": 0.7952755905511811
          },
          {
            "duration": 0.34883699999998896,
            "durationTicks": 480,
            "midi": 51,
            "name": "D#3",
            "ticks": 117120,
            "time": 85.116228,
            "velocity": 0.7952755905511811
          },
          {
            "duration": 0.34883699999998896,
            "durationTicks": 480,
            "midi": 54,
            "name": "F#3",
            "ticks": 117120,
            "time": 85.116228,
            "velocity": 0.8582677165354331
          },
          {
            "duration": 0.3488370000000032,
            "durationTicks": 480,
            "midi": 47,
            "name": "B2",
            "ticks": 117600,
            "time": 85.465065,
            "velocity": 0.7952755905511811
          },
          {
            "duration": 0.3488370000000032,
            "durationTicks": 480,
            "midi": 51,
            "name": "D#3",
            "ticks": 117600,
            "time": 85.465065,
            "velocity": 0.7952755905511811
          },
          {
            "duration": 0.3488370000000032,
            "durationTicks": 480,
            "midi": 54,
            "name": "F#3",
            "ticks": 117600,
            "time": 85.465065,
            "velocity": 0.8582677165354331
          },
          {
            "duration": 0.3488370000000032,
            "durationTicks": 480,
            "midi": 51,
            "name": "D#3",
            "ticks": 118080,
            "time": 85.813902,
            "velocity": 0.7952755905511811
          },
          {
            "duration": 0.3488370000000032,
            "durationTicks": 480,
            "midi": 54,
            "name": "F#3",
            "ticks": 118080,
            "time": 85.813902,
            "velocity": 0.8582677165354331
          },
          {
            "duration": 0.3488370000000032,
            "durationTicks": 480,
            "midi": 59,
            "name": "B3",
            "ticks": 118080,
            "time": 85.813902,
            "velocity": 0.7952755905511811
          },
          {
            "duration": 0.3488370000000032,
            "durationTicks": 480,
            "midi": 47,
            "name": "B2",
            "ticks": 118560,
            "time": 86.162739,
            "velocity": 0.7952755905511811
          },
          {
            "duration": 0.3488370000000032,
            "durationTicks": 480,
            "midi": 51,
            "name": "D#3",
            "ticks": 118560,
            "time": 86.162739,
            "velocity": 0.7952755905511811
          },
          {
            "duration": 0.3488370000000032,
            "durationTicks": 480,
            "midi": 54,
            "name": "F#3",
            "ticks": 118560,
            "time": 86.162739,
            "velocity": 0.8582677165354331
          },
          {
            "duration": 0.3488370000000032,
            "durationTicks": 480,
            "midi": 51,
            "name": "D#3",
            "ticks": 119040,
            "time": 86.511576,
            "velocity": 0.7952755905511811
          },
          {
            "duration": 0.3488370000000032,
            "durationTicks": 480,
            "midi": 54,
            "name": "F#3",
            "ticks": 119040,
            "time": 86.511576,
            "velocity": 0.8582677165354331
          },
          {
            "duration": 0.3488370000000032,
            "durationTicks": 480,
            "midi": 59,
            "name": "B3",
            "ticks": 119040,
            "time": 86.511576,
            "velocity": 0.7952755905511811
          },
          {
            "duration": 0.34883699999998896,
            "durationTicks": 480,
            "midi": 47,
            "name": "B2",
            "ticks": 119520,
            "time": 86.86041300000001,
            "velocity": 0.7952755905511811
          },
          {
            "duration": 0.34883699999998896,
            "durationTicks": 480,
            "midi": 51,
            "name": "D#3",
            "ticks": 119520,
            "time": 86.86041300000001,
            "velocity": 0.7952755905511811
          },
          {
            "duration": 0.34883699999998896,
            "durationTicks": 480,
            "midi": 54,
            "name": "F#3",
            "ticks": 119520,
            "time": 86.86041300000001,
            "velocity": 0.8582677165354331
          },
          {
            "duration": 0.3488370000000032,
            "durationTicks": 480,
            "midi": 51,
            "name": "D#3",
            "ticks": 120000,
            "time": 87.20925,
            "velocity": 0.7952755905511811
          },
          {
            "duration": 0.3488370000000032,
            "durationTicks": 480,
            "midi": 54,
            "name": "F#3",
            "ticks": 120000,
            "time": 87.20925,
            "velocity": 0.8582677165354331
          },
          {
            "duration": 0.3488370000000032,
            "durationTicks": 480,
            "midi": 59,
            "name": "B3",
            "ticks": 120000,
            "time": 87.20925,
            "velocity": 0.7952755905511811
          },
          {
            "duration": 0.3488370000000032,
            "durationTicks": 480,
            "midi": 47,
            "name": "B2",
            "ticks": 120480,
            "time": 87.558087,
            "velocity": 0.7952755905511811
          },
          {
            "duration": 0.3488370000000032,
            "durationTicks": 480,
            "midi": 51,
            "name": "D#3",
            "ticks": 120480,
            "time": 87.558087,
            "velocity": 0.7952755905511811
          },
          {
            "duration": 0.3488370000000032,
            "durationTicks": 480,
            "midi": 54,
            "name": "F#3",
            "ticks": 120480,
            "time": 87.558087,
            "velocity": 0.8582677165354331
          },
          {
            "duration": 0.3488370000000032,
            "durationTicks": 480,
            "midi": 47,
            "name": "B2",
            "ticks": 120960,
            "time": 87.906924,
            "velocity": 0.7952755905511811
          },
          {
            "duration": 0.3488370000000032,
            "durationTicks": 480,
            "midi": 51,
            "name": "D#3",
            "ticks": 120960,
            "time": 87.906924,
            "velocity": 0.7952755905511811
          },
          {
            "duration": 0.3488370000000032,
            "durationTicks": 480,
            "midi": 54,
            "name": "F#3",
            "ticks": 120960,
            "time": 87.906924,
            "velocity": 0.8582677165354331
          },
          {
            "duration": 0.34883699999998896,
            "durationTicks": 480,
            "midi": 47,
            "name": "B2",
            "ticks": 121440,
            "time": 88.255761,
            "velocity": 0.7952755905511811
          },
          {
            "duration": 0.34883699999998896,
            "durationTicks": 480,
            "midi": 51,
            "name": "D#3",
            "ticks": 121440,
            "time": 88.255761,
            "velocity": 0.7952755905511811
          },
          {
            "duration": 0.34883699999998896,
            "durationTicks": 480,
            "midi": 54,
            "name": "F#3",
            "ticks": 121440,
            "time": 88.255761,
            "velocity": 0.8582677165354331
          },
          {
            "duration": 0.3488370000000032,
            "durationTicks": 480,
            "midi": 51,
            "name": "D#3",
            "ticks": 121920,
            "time": 88.604598,
            "velocity": 0.7952755905511811
          },
          {
            "duration": 0.3488370000000032,
            "durationTicks": 480,
            "midi": 54,
            "name": "F#3",
            "ticks": 121920,
            "time": 88.604598,
            "velocity": 0.8582677165354331
          },
          {
            "duration": 0.3488370000000032,
            "durationTicks": 480,
            "midi": 59,
            "name": "B3",
            "ticks": 121920,
            "time": 88.604598,
            "velocity": 0.7952755905511811
          },
          {
            "duration": 0.3488370000000032,
            "durationTicks": 480,
            "midi": 47,
            "name": "B2",
            "ticks": 122400,
            "time": 88.953435,
            "velocity": 0.7952755905511811
          },
          {
            "duration": 0.3488370000000032,
            "durationTicks": 480,
            "midi": 51,
            "name": "D#3",
            "ticks": 122400,
            "time": 88.953435,
            "velocity": 0.7952755905511811
          },
          {
            "duration": 0.3488370000000032,
            "durationTicks": 480,
            "midi": 54,
            "name": "F#3",
            "ticks": 122400,
            "time": 88.953435,
            "velocity": 0.8582677165354331
          },
          {
            "duration": 0.3488370000000032,
            "durationTicks": 480,
            "midi": 51,
            "name": "D#3",
            "ticks": 122880,
            "time": 89.302272,
            "velocity": 0.7952755905511811
          },
          {
            "duration": 0.3488370000000032,
            "durationTicks": 480,
            "midi": 54,
            "name": "F#3",
            "ticks": 122880,
            "time": 89.302272,
            "velocity": 0.8582677165354331
          },
          {
            "duration": 0.3488370000000032,
            "durationTicks": 480,
            "midi": 59,
            "name": "B3",
            "ticks": 122880,
            "time": 89.302272,
            "velocity": 0.7952755905511811
          },
          {
            "duration": 0.3488370000000032,
            "durationTicks": 480,
            "midi": 47,
            "name": "B2",
            "ticks": 123360,
            "time": 89.651109,
            "velocity": 0.7952755905511811
          },
          {
            "duration": 0.3488370000000032,
            "durationTicks": 480,
            "midi": 51,
            "name": "D#3",
            "ticks": 123360,
            "time": 89.651109,
            "velocity": 0.7952755905511811
          },
          {
            "duration": 0.3488370000000032,
            "durationTicks": 480,
            "midi": 54,
            "name": "F#3",
            "ticks": 123360,
            "time": 89.651109,
            "velocity": 0.8582677165354331
          },
          {
            "duration": 0.34883699999998896,
            "durationTicks": 480,
            "midi": 51,
            "name": "D#3",
            "ticks": 123840,
            "time": 89.99994600000001,
            "velocity": 0.7952755905511811
          },
          {
            "duration": 0.34883699999998896,
            "durationTicks": 480,
            "midi": 54,
            "name": "F#3",
            "ticks": 123840,
            "time": 89.99994600000001,
            "velocity": 0.8582677165354331
          },
          {
            "duration": 0.34883699999998896,
            "durationTicks": 480,
            "midi": 59,
            "name": "B3",
            "ticks": 123840,
            "time": 89.99994600000001,
            "velocity": 0.7952755905511811
          },
          {
            "duration": 0.3488370000000032,
            "durationTicks": 480,
            "midi": 47,
            "name": "B2",
            "ticks": 124320,
            "time": 90.348783,
            "velocity": 0.7952755905511811
          },
          {
            "duration": 0.3488370000000032,
            "durationTicks": 480,
            "midi": 51,
            "name": "D#3",
            "ticks": 124320,
            "time": 90.348783,
            "velocity": 0.7952755905511811
          },
          {
            "duration": 0.3488370000000032,
            "durationTicks": 480,
            "midi": 54,
            "name": "F#3",
            "ticks": 124320,
            "time": 90.348783,
            "velocity": 0.8582677165354331
          },
          {
            "duration": 0.3488370000000032,
            "durationTicks": 480,
            "midi": 52,
            "name": "E3",
            "ticks": 124800,
            "time": 90.69762,
            "velocity": 0.7165354330708661
          },
          {
            "duration": 0.3488370000000032,
            "durationTicks": 480,
            "midi": 56,
            "name": "G#3",
            "ticks": 124800,
            "time": 90.69762,
            "velocity": 0.7480314960629921
          },
          {
            "duration": 0.3488370000000032,
            "durationTicks": 480,
            "midi": 52,
            "name": "E3",
            "ticks": 125280,
            "time": 91.046457,
            "velocity": 0.7165354330708661
          },
          {
            "duration": 0.3488370000000032,
            "durationTicks": 480,
            "midi": 56,
            "name": "G#3",
            "ticks": 125280,
            "time": 91.046457,
            "velocity": 0.7480314960629921
          },
          {
            "duration": 0.34883699999998896,
            "durationTicks": 480,
            "midi": 52,
            "name": "E3",
            "ticks": 125760,
            "time": 91.395294,
            "velocity": 0.7165354330708661
          },
          {
            "duration": 0.34883699999998896,
            "durationTicks": 480,
            "midi": 56,
            "name": "G#3",
            "ticks": 125760,
            "time": 91.395294,
            "velocity": 0.7480314960629921
          },
          {
            "duration": 0.3488370000000032,
            "durationTicks": 480,
            "midi": 52,
            "name": "E3",
            "ticks": 126240,
            "time": 91.744131,
            "velocity": 0.7165354330708661
          },
          {
            "duration": 0.3488370000000032,
            "durationTicks": 480,
            "midi": 56,
            "name": "G#3",
            "ticks": 126240,
            "time": 91.744131,
            "velocity": 0.7480314960629921
          },
          {
            "duration": 0.3488370000000032,
            "durationTicks": 480,
            "midi": 52,
            "name": "E3",
            "ticks": 126720,
            "time": 92.092968,
            "velocity": 0.7165354330708661
          },
          {
            "duration": 0.3488370000000032,
            "durationTicks": 480,
            "midi": 56,
            "name": "G#3",
            "ticks": 126720,
            "time": 92.092968,
            "velocity": 0.7480314960629921
          },
          {
            "duration": 0.3488370000000032,
            "durationTicks": 480,
            "midi": 52,
            "name": "E3",
            "ticks": 127200,
            "time": 92.441805,
            "velocity": 0.7165354330708661
          },
          {
            "duration": 0.3488370000000032,
            "durationTicks": 480,
            "midi": 56,
            "name": "G#3",
            "ticks": 127200,
            "time": 92.441805,
            "velocity": 0.7480314960629921
          },
          {
            "duration": 0.3488370000000032,
            "durationTicks": 480,
            "midi": 52,
            "name": "E3",
            "ticks": 127680,
            "time": 92.790642,
            "velocity": 0.7165354330708661
          },
          {
            "duration": 0.3488370000000032,
            "durationTicks": 480,
            "midi": 56,
            "name": "G#3",
            "ticks": 127680,
            "time": 92.790642,
            "velocity": 0.7480314960629921
          },
          {
            "duration": 0.34883699999998896,
            "durationTicks": 480,
            "midi": 52,
            "name": "E3",
            "ticks": 128160,
            "time": 93.13947900000001,
            "velocity": 0.7165354330708661
          },
          {
            "duration": 0.34883699999998896,
            "durationTicks": 480,
            "midi": 56,
            "name": "G#3",
            "ticks": 128160,
            "time": 93.13947900000001,
            "velocity": 0.7480314960629921
          },
          {
            "duration": 0.3488370000000032,
            "durationTicks": 480,
            "midi": 56,
            "name": "G#3",
            "ticks": 128640,
            "time": 93.488316,
            "velocity": 0.7952755905511811
          },
          {
            "duration": 0.3488370000000032,
            "durationTicks": 480,
            "midi": 59,
            "name": "B3",
            "ticks": 128640,
            "time": 93.488316,
            "velocity": 0.6535433070866141
          },
          {
            "duration": 0.3488370000000032,
            "durationTicks": 480,
            "midi": 56,
            "name": "G#3",
            "ticks": 129120,
            "time": 93.837153,
            "velocity": 0.6535433070866141
          },
          {
            "duration": 0.3488370000000032,
            "durationTicks": 480,
            "midi": 59,
            "name": "B3",
            "ticks": 129120,
            "time": 93.837153,
            "velocity": 0.6377952755905512
          },
          {
            "duration": 0.3488370000000032,
            "durationTicks": 480,
            "midi": 56,
            "name": "G#3",
            "ticks": 129600,
            "time": 94.18599,
            "velocity": 0.6535433070866141
          },
          {
            "duration": 0.3488370000000032,
            "durationTicks": 480,
            "midi": 59,
            "name": "B3",
            "ticks": 129600,
            "time": 94.18599,
            "velocity": 0.7952755905511811
          },
          {
            "duration": 0.34883699999998896,
            "durationTicks": 480,
            "midi": 54,
            "name": "F#3",
            "ticks": 130080,
            "time": 94.534827,
            "velocity": 0.7952755905511811
          },
          {
            "duration": 0.34883699999998896,
            "durationTicks": 480,
            "midi": 58,
            "name": "A#3",
            "ticks": 130080,
            "time": 94.534827,
            "velocity": 0.8267716535433071
          },
          {
            "duration": 0.3488370000000032,
            "durationTicks": 480,
            "midi": 54,
            "name": "F#3",
            "ticks": 130560,
            "time": 94.883664,
            "velocity": 0.8582677165354331
          },
          {
            "duration": 0.3488370000000032,
            "durationTicks": 480,
            "midi": 58,
            "name": "A#3",
            "ticks": 130560,
            "time": 94.883664,
            "velocity": 0.8582677165354331
          },
          {
            "duration": 0.3488370000000032,
            "durationTicks": 480,
            "midi": 54,
            "name": "F#3",
            "ticks": 131040,
            "time": 95.232501,
            "velocity": 0.6535433070866141
          },
          {
            "duration": 0.3488370000000032,
            "durationTicks": 480,
            "midi": 58,
            "name": "A#3",
            "ticks": 131040,
            "time": 95.232501,
            "velocity": 0.8267716535433071
          },
          {
            "duration": 0.3488370000000032,
            "durationTicks": 480,
            "midi": 54,
            "name": "F#3",
            "ticks": 131520,
            "time": 95.581338,
            "velocity": 0.8582677165354331
          },
          {
            "duration": 0.3488370000000032,
            "durationTicks": 480,
            "midi": 58,
            "name": "A#3",
            "ticks": 131520,
            "time": 95.581338,
            "velocity": 0.8740157480314961
          },
          {
            "duration": 0.3488370000000032,
            "durationTicks": 480,
            "midi": 54,
            "name": "F#3",
            "ticks": 132000,
            "time": 95.930175,
            "velocity": 0.8582677165354331
          },
          {
            "duration": 0.3488370000000032,
            "durationTicks": 480,
            "midi": 58,
            "name": "A#3",
            "ticks": 132000,
            "time": 95.930175,
            "velocity": 0.9212598425196851
          },
          {
            "duration": 0.34883699999998896,
            "durationTicks": 480,
            "midi": 52,
            "name": "E3",
            "ticks": 132480,
            "time": 96.27901200000001,
            "velocity": 0.7165354330708661
          },
          {
            "duration": 0.34883699999998896,
            "durationTicks": 480,
            "midi": 56,
            "name": "G#3",
            "ticks": 132480,
            "time": 96.27901200000001,
            "velocity": 0.7480314960629921
          },
          {
            "duration": 0.3488370000000032,
            "durationTicks": 480,
            "midi": 52,
            "name": "E3",
            "ticks": 132960,
            "time": 96.627849,
            "velocity": 0.7165354330708661
          },
          {
            "duration": 0.3488370000000032,
            "durationTicks": 480,
            "midi": 56,
            "name": "G#3",
            "ticks": 132960,
            "time": 96.627849,
            "velocity": 0.7480314960629921
          },
          {
            "duration": 0.3488370000000032,
            "durationTicks": 480,
            "midi": 52,
            "name": "E3",
            "ticks": 133440,
            "time": 96.976686,
            "velocity": 0.7165354330708661
          },
          {
            "duration": 0.3488370000000032,
            "durationTicks": 480,
            "midi": 56,
            "name": "G#3",
            "ticks": 133440,
            "time": 96.976686,
            "velocity": 0.7480314960629921
          },
          {
            "duration": 0.3488370000000032,
            "durationTicks": 480,
            "midi": 52,
            "name": "E3",
            "ticks": 133920,
            "time": 97.325523,
            "velocity": 0.7165354330708661
          },
          {
            "duration": 0.3488370000000032,
            "durationTicks": 480,
            "midi": 56,
            "name": "G#3",
            "ticks": 133920,
            "time": 97.325523,
            "velocity": 0.7480314960629921
          },
          {
            "duration": 0.34883699999998896,
            "durationTicks": 480,
            "midi": 52,
            "name": "E3",
            "ticks": 134400,
            "time": 97.67436000000001,
            "velocity": 0.7165354330708661
          },
          {
            "duration": 0.34883699999998896,
            "durationTicks": 480,
            "midi": 56,
            "name": "G#3",
            "ticks": 134400,
            "time": 97.67436000000001,
            "velocity": 0.7480314960629921
          },
          {
            "duration": 0.3488370000000032,
            "durationTicks": 480,
            "midi": 52,
            "name": "E3",
            "ticks": 134880,
            "time": 98.023197,
            "velocity": 0.7165354330708661
          },
          {
            "duration": 0.3488370000000032,
            "durationTicks": 480,
            "midi": 56,
            "name": "G#3",
            "ticks": 134880,
            "time": 98.023197,
            "velocity": 0.7480314960629921
          },
          {
            "duration": 0.3488370000000032,
            "durationTicks": 480,
            "midi": 52,
            "name": "E3",
            "ticks": 135360,
            "time": 98.372034,
            "velocity": 0.7165354330708661
          },
          {
            "duration": 0.3488370000000032,
            "durationTicks": 480,
            "midi": 56,
            "name": "G#3",
            "ticks": 135360,
            "time": 98.372034,
            "velocity": 0.7480314960629921
          },
          {
            "duration": 0.3488370000000032,
            "durationTicks": 480,
            "midi": 52,
            "name": "E3",
            "ticks": 135840,
            "time": 98.720871,
            "velocity": 0.7165354330708661
          },
          {
            "duration": 0.3488370000000032,
            "durationTicks": 480,
            "midi": 56,
            "name": "G#3",
            "ticks": 135840,
            "time": 98.720871,
            "velocity": 0.7480314960629921
          },
          {
            "duration": 0.3488370000000032,
            "durationTicks": 480,
            "midi": 56,
            "name": "G#3",
            "ticks": 136320,
            "time": 99.069708,
            "velocity": 0.7952755905511811
          },
          {
            "duration": 0.3488370000000032,
            "durationTicks": 480,
            "midi": 59,
            "name": "B3",
            "ticks": 136320,
            "time": 99.069708,
            "velocity": 0.6535433070866141
          },
          {
            "duration": 0.34883699999998896,
            "durationTicks": 480,
            "midi": 56,
            "name": "G#3",
            "ticks": 136800,
            "time": 99.41854500000001,
            "velocity": 0.6535433070866141
          },
          {
            "duration": 0.34883699999998896,
            "durationTicks": 480,
            "midi": 59,
            "name": "B3",
            "ticks": 136800,
            "time": 99.41854500000001,
            "velocity": 0.6377952755905512
          },
          {
            "duration": 0.3488370000000032,
            "durationTicks": 480,
            "midi": 56,
            "name": "G#3",
            "ticks": 137280,
            "time": 99.767382,
            "velocity": 0.6535433070866141
          },
          {
            "duration": 0.3488370000000032,
            "durationTicks": 480,
            "midi": 59,
            "name": "B3",
            "ticks": 137280,
            "time": 99.767382,
            "velocity": 0.7952755905511811
          },
          {
            "duration": 0.3488370000000032,
            "durationTicks": 480,
            "midi": 54,
            "name": "F#3",
            "ticks": 137760,
            "time": 100.116219,
            "velocity": 0.7952755905511811
          },
          {
            "duration": 0.3488370000000032,
            "durationTicks": 480,
            "midi": 58,
            "name": "A#3",
            "ticks": 137760,
            "time": 100.116219,
            "velocity": 0.8267716535433071
          },
          {
            "duration": 0.3488370000000032,
            "durationTicks": 480,
            "midi": 54,
            "name": "F#3",
            "ticks": 138240,
            "time": 100.465056,
            "velocity": 0.8582677165354331
          },
          {
            "duration": 0.3488370000000032,
            "durationTicks": 480,
            "midi": 58,
            "name": "A#3",
            "ticks": 138240,
            "time": 100.465056,
            "velocity": 0.8582677165354331
          },
          {
            "duration": 0.34883699999998896,
            "durationTicks": 480,
            "midi": 54,
            "name": "F#3",
            "ticks": 138720,
            "time": 100.81389300000001,
            "velocity": 0.6535433070866141
          },
          {
            "duration": 0.34883699999998896,
            "durationTicks": 480,
            "midi": 58,
            "name": "A#3",
            "ticks": 138720,
            "time": 100.81389300000001,
            "velocity": 0.8267716535433071
          },
          {
            "duration": 0.3488370000000032,
            "durationTicks": 480,
            "midi": 54,
            "name": "F#3",
            "ticks": 139200,
            "time": 101.16273,
            "velocity": 0.8582677165354331
          },
          {
            "duration": 0.3488370000000032,
            "durationTicks": 480,
            "midi": 58,
            "name": "A#3",
            "ticks": 139200,
            "time": 101.16273,
            "velocity": 0.8740157480314961
          },
          {
            "duration": 0.3488370000000032,
            "durationTicks": 480,
            "midi": 54,
            "name": "F#3",
            "ticks": 139680,
            "time": 101.511567,
            "velocity": 0.8582677165354331
          },
          {
            "duration": 0.3488370000000032,
            "durationTicks": 480,
            "midi": 58,
            "name": "A#3",
            "ticks": 139680,
            "time": 101.511567,
            "velocity": 0.9212598425196851
          },
          {
            "duration": 0.3488370000000032,
            "durationTicks": 480,
            "midi": 52,
            "name": "E3",
            "ticks": 140160,
            "time": 101.860404,
            "velocity": 0.7165354330708661
          },
          {
            "duration": 0.3488370000000032,
            "durationTicks": 480,
            "midi": 56,
            "name": "G#3",
            "ticks": 140160,
            "time": 101.860404,
            "velocity": 0.7480314960629921
          },
          {
            "duration": 0.3488370000000032,
            "durationTicks": 480,
            "midi": 52,
            "name": "E3",
            "ticks": 140640,
            "time": 102.209241,
            "velocity": 0.7165354330708661
          },
          {
            "duration": 0.3488370000000032,
            "durationTicks": 480,
            "midi": 56,
            "name": "G#3",
            "ticks": 140640,
            "time": 102.209241,
            "velocity": 0.7480314960629921
          },
          {
            "duration": 0.34883699999998896,
            "durationTicks": 480,
            "midi": 52,
            "name": "E3",
            "ticks": 141120,
            "time": 102.55807800000001,
            "velocity": 0.7165354330708661
          },
          {
            "duration": 0.34883699999998896,
            "durationTicks": 480,
            "midi": 56,
            "name": "G#3",
            "ticks": 141120,
            "time": 102.55807800000001,
            "velocity": 0.7480314960629921
          },
          {
            "duration": 0.3488370000000032,
            "durationTicks": 480,
            "midi": 52,
            "name": "E3",
            "ticks": 141600,
            "time": 102.906915,
            "velocity": 0.7165354330708661
          },
          {
            "duration": 0.3488370000000032,
            "durationTicks": 480,
            "midi": 56,
            "name": "G#3",
            "ticks": 141600,
            "time": 102.906915,
            "velocity": 0.7480314960629921
          },
          {
            "duration": 0.3488370000000032,
            "durationTicks": 480,
            "midi": 52,
            "name": "E3",
            "ticks": 142080,
            "time": 103.255752,
            "velocity": 0.7165354330708661
          },
          {
            "duration": 0.3488370000000032,
            "durationTicks": 480,
            "midi": 56,
            "name": "G#3",
            "ticks": 142080,
            "time": 103.255752,
            "velocity": 0.7480314960629921
          },
          {
            "duration": 0.3488370000000032,
            "durationTicks": 480,
            "midi": 52,
            "name": "E3",
            "ticks": 142560,
            "time": 103.604589,
            "velocity": 0.7165354330708661
          },
          {
            "duration": 0.3488370000000032,
            "durationTicks": 480,
            "midi": 56,
            "name": "G#3",
            "ticks": 142560,
            "time": 103.604589,
            "velocity": 0.7480314960629921
          },
          {
            "duration": 0.34883699999998896,
            "durationTicks": 480,
            "midi": 52,
            "name": "E3",
            "ticks": 143040,
            "time": 103.95342600000001,
            "velocity": 0.7165354330708661
          },
          {
            "duration": 0.34883699999998896,
            "durationTicks": 480,
            "midi": 56,
            "name": "G#3",
            "ticks": 143040,
            "time": 103.95342600000001,
            "velocity": 0.7480314960629921
          },
          {
            "duration": 0.3488370000000032,
            "durationTicks": 480,
            "midi": 52,
            "name": "E3",
            "ticks": 143520,
            "time": 104.302263,
            "velocity": 0.7165354330708661
          },
          {
            "duration": 0.3488370000000032,
            "durationTicks": 480,
            "midi": 56,
            "name": "G#3",
            "ticks": 143520,
            "time": 104.302263,
            "velocity": 0.7480314960629921
          },
          {
            "duration": 0.3488370000000032,
            "durationTicks": 480,
            "midi": 56,
            "name": "G#3",
            "ticks": 144000,
            "time": 104.6511,
            "velocity": 0.7952755905511811
          },
          {
            "duration": 0.3488370000000032,
            "durationTicks": 480,
            "midi": 59,
            "name": "B3",
            "ticks": 144000,
            "time": 104.6511,
            "velocity": 0.6535433070866141
          },
          {
            "duration": 0.3488370000000032,
            "durationTicks": 480,
            "midi": 56,
            "name": "G#3",
            "ticks": 144480,
            "time": 104.999937,
            "velocity": 0.6535433070866141
          },
          {
            "duration": 0.3488370000000032,
            "durationTicks": 480,
            "midi": 59,
            "name": "B3",
            "ticks": 144480,
            "time": 104.999937,
            "velocity": 0.6377952755905512
          },
          {
            "duration": 0.3488370000000032,
            "durationTicks": 480,
            "midi": 56,
            "name": "G#3",
            "ticks": 144960,
            "time": 105.348774,
            "velocity": 0.6535433070866141
          },
          {
            "duration": 0.3488370000000032,
            "durationTicks": 480,
            "midi": 59,
            "name": "B3",
            "ticks": 144960,
            "time": 105.348774,
            "velocity": 0.7952755905511811
          },
          {
            "duration": 0.34883699999998896,
            "durationTicks": 480,
            "midi": 54,
            "name": "F#3",
            "ticks": 145440,
            "time": 105.69761100000001,
            "velocity": 0.7952755905511811
          },
          {
            "duration": 0.34883699999998896,
            "durationTicks": 480,
            "midi": 58,
            "name": "A#3",
            "ticks": 145440,
            "time": 105.69761100000001,
            "velocity": 0.8267716535433071
          },
          {
            "duration": 0.3488370000000032,
            "durationTicks": 480,
            "midi": 54,
            "name": "F#3",
            "ticks": 145920,
            "time": 106.046448,
            "velocity": 0.8582677165354331
          },
          {
            "duration": 0.3488370000000032,
            "durationTicks": 480,
            "midi": 58,
            "name": "A#3",
            "ticks": 145920,
            "time": 106.046448,
            "velocity": 0.8582677165354331
          },
          {
            "duration": 0.3488370000000032,
            "durationTicks": 480,
            "midi": 54,
            "name": "F#3",
            "ticks": 146400,
            "time": 106.395285,
            "velocity": 0.6535433070866141
          },
          {
            "duration": 0.3488370000000032,
            "durationTicks": 480,
            "midi": 58,
            "name": "A#3",
            "ticks": 146400,
            "time": 106.395285,
            "velocity": 0.8267716535433071
          },
          {
            "duration": 0.3488370000000032,
            "durationTicks": 480,
            "midi": 54,
            "name": "F#3",
            "ticks": 146880,
            "time": 106.744122,
            "velocity": 0.8582677165354331
          },
          {
            "duration": 0.3488370000000032,
            "durationTicks": 480,
            "midi": 58,
            "name": "A#3",
            "ticks": 146880,
            "time": 106.744122,
            "velocity": 0.8740157480314961
          },
          {
            "duration": 0.34883699999998896,
            "durationTicks": 480,
            "midi": 54,
            "name": "F#3",
            "ticks": 147360,
            "time": 107.09295900000001,
            "velocity": 0.8582677165354331
          },
          {
            "duration": 0.34883699999998896,
            "durationTicks": 480,
            "midi": 58,
            "name": "A#3",
            "ticks": 147360,
            "time": 107.09295900000001,
            "velocity": 0.9212598425196851
          },
          {
            "duration": 0.6976740000000063,
            "durationTicks": 960,
            "midi": 52,
            "name": "E3",
            "ticks": 147840,
            "time": 107.441796,
            "velocity": 0.7874015748031497
          },
          {
            "duration": 0.6976740000000063,
            "durationTicks": 960,
            "midi": 56,
            "name": "G#3",
            "ticks": 147840,
            "time": 107.441796,
            "velocity": 0.7874015748031497
          },
          {
            "duration": 0.6976740000000063,
            "durationTicks": 960,
            "midi": 52,
            "name": "E3",
            "ticks": 148800,
            "time": 108.13947,
            "velocity": 0.7874015748031497
          },
          {
            "duration": 0.6976740000000063,
            "durationTicks": 960,
            "midi": 56,
            "name": "G#3",
            "ticks": 148800,
            "time": 108.13947,
            "velocity": 0.7874015748031497
          },
          {
            "duration": 0.34883699999998896,
            "durationTicks": 480,
            "midi": 52,
            "name": "E3",
            "ticks": 149760,
            "time": 108.83714400000001,
            "velocity": 0.7874015748031497
          },
          {
            "duration": 0.34883699999998896,
            "durationTicks": 480,
            "midi": 56,
            "name": "G#3",
            "ticks": 149760,
            "time": 108.83714400000001,
            "velocity": 0.7874015748031497
          },
          {
            "duration": 0.3488370000000032,
            "durationTicks": 480,
            "midi": 52,
            "name": "E3",
            "ticks": 150240,
            "time": 109.185981,
            "velocity": 0.7874015748031497
          },
          {
            "duration": 0.3488370000000032,
            "durationTicks": 480,
            "midi": 56,
            "name": "G#3",
            "ticks": 150240,
            "time": 109.185981,
            "velocity": 0.7874015748031497
          },
          {
            "duration": 0.5232555000000048,
            "durationTicks": 720,
            "midi": 52,
            "name": "E3",
            "ticks": 150720,
            "time": 109.534818,
            "velocity": 0.7874015748031497
          },
          {
            "duration": 0.5232555000000048,
            "durationTicks": 720,
            "midi": 56,
            "name": "G#3",
            "ticks": 150720,
            "time": 109.534818,
            "velocity": 0.7874015748031497
          },
          {
            "duration": 0.1744185000000016,
            "durationTicks": 240,
            "midi": 52,
            "name": "E3",
            "ticks": 151440,
            "time": 110.0580735,
            "velocity": 0.7874015748031497
          },
          {
            "duration": 0.1744185000000016,
            "durationTicks": 240,
            "midi": 56,
            "name": "G#3",
            "ticks": 151440,
            "time": 110.0580735,
            "velocity": 0.7874015748031497
          },
          {
            "duration": 2.441858999999994,
            "durationTicks": 3360,
            "midi": 52,
            "name": "E3",
            "ticks": 151680,
            "time": 110.23249200000001,
            "velocity": 0.7874015748031497
          },
          {
            "duration": 2.441858999999994,
            "durationTicks": 3360,
            "midi": 56,
            "name": "G#3",
            "ticks": 151680,
            "time": 110.23249200000001,
            "velocity": 0.7874015748031497
          },
          {
            "duration": 0.3488370000000032,
            "durationTicks": 480,
            "midi": 63,
            "name": "D#4",
            "ticks": 186240,
            "time": 135.348756,
            "velocity": 0.7165354330708661
          },
          {
            "duration": 0.3488370000000032,
            "durationTicks": 480,
            "midi": 66,
            "name": "F#4",
            "ticks": 186240,
            "time": 135.348756,
            "velocity": 0.6929133858267716
          },
          {
            "duration": 0.3488370000000032,
            "durationTicks": 480,
            "midi": 63,
            "name": "D#4",
            "ticks": 186720,
            "time": 135.697593,
            "velocity": 0.7165354330708661
          },
          {
            "duration": 0.3488370000000032,
            "durationTicks": 480,
            "midi": 66,
            "name": "F#4",
            "ticks": 186720,
            "time": 135.697593,
            "velocity": 0.6929133858267716
          },
          {
            "duration": 0.34883699999997475,
            "durationTicks": 480,
            "midi": 59,
            "name": "B3",
            "ticks": 187200,
            "time": 136.04643000000002,
            "velocity": 0.7165354330708661
          },
          {
            "duration": 0.34883699999997475,
            "durationTicks": 480,
            "midi": 63,
            "name": "D#4",
            "ticks": 187200,
            "time": 136.04643000000002,
            "velocity": 0.7322834645669292
          },
          {
            "duration": 0.3488370000000032,
            "durationTicks": 480,
            "midi": 59,
            "name": "B3",
            "ticks": 187680,
            "time": 136.395267,
            "velocity": 0.7165354330708661
          },
          {
            "duration": 0.3488370000000032,
            "durationTicks": 480,
            "midi": 63,
            "name": "D#4",
            "ticks": 187680,
            "time": 136.395267,
            "velocity": 0.7322834645669292
          },
          {
            "duration": 0.3488370000000032,
            "durationTicks": 480,
            "midi": 63,
            "name": "D#4",
            "ticks": 188160,
            "time": 136.744104,
            "velocity": 0.7165354330708661
          },
          {
            "duration": 0.3488370000000032,
            "durationTicks": 480,
            "midi": 66,
            "name": "F#4",
            "ticks": 188160,
            "time": 136.744104,
            "velocity": 0.6771653543307087
          },
          {
            "duration": 0.3488370000000032,
            "durationTicks": 480,
            "midi": 63,
            "name": "D#4",
            "ticks": 188640,
            "time": 137.092941,
            "velocity": 0.7165354330708661
          },
          {
            "duration": 0.3488370000000032,
            "durationTicks": 480,
            "midi": 66,
            "name": "F#4",
            "ticks": 188640,
            "time": 137.092941,
            "velocity": 0.6771653543307087
          },
          {
            "duration": 0.3488370000000032,
            "durationTicks": 480,
            "midi": 59,
            "name": "B3",
            "ticks": 189120,
            "time": 137.441778,
            "velocity": 0.7322834645669292
          },
          {
            "duration": 0.3488370000000032,
            "durationTicks": 480,
            "midi": 63,
            "name": "D#4",
            "ticks": 189120,
            "time": 137.441778,
            "velocity": 0.7165354330708661
          },
          {
            "duration": 0.3488370000000032,
            "durationTicks": 480,
            "midi": 59,
            "name": "B3",
            "ticks": 189600,
            "time": 137.790615,
            "velocity": 0.7322834645669292
          },
          {
            "duration": 0.3488370000000032,
            "durationTicks": 480,
            "midi": 63,
            "name": "D#4",
            "ticks": 189600,
            "time": 137.790615,
            "velocity": 0.7165354330708661
          },
          {
            "duration": 0.3488370000000032,
            "durationTicks": 480,
            "midi": 63,
            "name": "D#4",
            "ticks": 190080,
            "time": 138.139452,
            "velocity": 0.7165354330708661
          },
          {
            "duration": 0.3488370000000032,
            "durationTicks": 480,
            "midi": 66,
            "name": "F#4",
            "ticks": 190080,
            "time": 138.139452,
            "velocity": 0.6771653543307087
          },
          {
            "duration": 0.3488370000000032,
            "durationTicks": 480,
            "midi": 63,
            "name": "D#4",
            "ticks": 190560,
            "time": 138.488289,
            "velocity": 0.7165354330708661
          },
          {
            "duration": 0.3488370000000032,
            "durationTicks": 480,
            "midi": 66,
            "name": "F#4",
            "ticks": 190560,
            "time": 138.488289,
            "velocity": 0.6771653543307087
          },
          {
            "duration": 0.3488370000000032,
            "durationTicks": 480,
            "midi": 59,
            "name": "B3",
            "ticks": 191040,
            "time": 138.837126,
            "velocity": 0.7322834645669292
          },
          {
            "duration": 0.3488370000000032,
            "durationTicks": 480,
            "midi": 63,
            "name": "D#4",
            "ticks": 191040,
            "time": 138.837126,
            "velocity": 0.7165354330708661
          },
          {
            "duration": 0.34883699999997475,
            "durationTicks": 480,
            "midi": 59,
            "name": "B3",
            "ticks": 191520,
            "time": 139.18596300000002,
            "velocity": 0.7322834645669292
          },
          {
            "duration": 0.34883699999997475,
            "durationTicks": 480,
            "midi": 63,
            "name": "D#4",
            "ticks": 191520,
            "time": 139.18596300000002,
            "velocity": 0.7165354330708661
          },
          {
            "duration": 0.3488370000000032,
            "durationTicks": 480,
            "midi": 63,
            "name": "D#4",
            "ticks": 192000,
            "time": 139.5348,
            "velocity": 0.7165354330708661
          },
          {
            "duration": 0.3488370000000032,
            "durationTicks": 480,
            "midi": 66,
            "name": "F#4",
            "ticks": 192000,
            "time": 139.5348,
            "velocity": 0.6771653543307087
          },
          {
            "duration": 0.3488370000000032,
            "durationTicks": 480,
            "midi": 63,
            "name": "D#4",
            "ticks": 192480,
            "time": 139.883637,
            "velocity": 0.7165354330708661
          },
          {
            "duration": 0.3488370000000032,
            "durationTicks": 480,
            "midi": 66,
            "name": "F#4",
            "ticks": 192480,
            "time": 139.883637,
            "velocity": 0.6771653543307087
          },
          {
            "duration": 0.3488370000000032,
            "durationTicks": 480,
            "midi": 59,
            "name": "B3",
            "ticks": 192960,
            "time": 140.232474,
            "velocity": 0.7322834645669292
          },
          {
            "duration": 0.3488370000000032,
            "durationTicks": 480,
            "midi": 63,
            "name": "D#4",
            "ticks": 192960,
            "time": 140.232474,
            "velocity": 0.7165354330708661
          },
          {
            "duration": 0.3488370000000032,
            "durationTicks": 480,
            "midi": 59,
            "name": "B3",
            "ticks": 193440,
            "time": 140.581311,
            "velocity": 0.7322834645669292
          },
          {
            "duration": 0.3488370000000032,
            "durationTicks": 480,
            "midi": 63,
            "name": "D#4",
            "ticks": 193440,
            "time": 140.581311,
            "velocity": 0.7165354330708661
          },
          {
            "duration": 0.6976740000000063,
            "durationTicks": 960,
            "midi": 58,
            "name": "A#3",
            "ticks": 193920,
            "time": 140.930148,
            "velocity": 0.6377952755905512
          },
          {
            "duration": 0.6976740000000063,
            "durationTicks": 960,
            "midi": 61,
            "name": "C#4",
            "ticks": 193920,
            "time": 140.930148,
            "velocity": 0.6377952755905512
          },
          {
            "duration": 0.3488370000000032,
            "durationTicks": 480,
            "midi": 54,
            "name": "F#3",
            "ticks": 194880,
            "time": 141.627822,
            "velocity": 0.6377952755905512
          },
          {
            "duration": 0.3488370000000032,
            "durationTicks": 480,
            "midi": 58,
            "name": "A#3",
            "ticks": 194880,
            "time": 141.627822,
            "velocity": 0.6377952755905512
          },
          {
            "duration": 0.3488370000000032,
            "durationTicks": 480,
            "midi": 54,
            "name": "F#3",
            "ticks": 195360,
            "time": 141.976659,
            "velocity": 0.6377952755905512
          },
          {
            "duration": 0.3488370000000032,
            "durationTicks": 480,
            "midi": 58,
            "name": "A#3",
            "ticks": 195360,
            "time": 141.976659,
            "velocity": 0.6377952755905512
          },
          {
            "duration": 0.6976739999999779,
            "durationTicks": 960,
            "midi": 58,
            "name": "A#3",
            "ticks": 195840,
            "time": 142.32549600000002,
            "velocity": 0.6377952755905512
          },
          {
            "duration": 0.6976739999999779,
            "durationTicks": 960,
            "midi": 61,
            "name": "C#4",
            "ticks": 195840,
            "time": 142.32549600000002,
            "velocity": 0.6377952755905512
          },
          {
            "duration": 0.3488370000000032,
            "durationTicks": 480,
            "midi": 54,
            "name": "F#3",
            "ticks": 196800,
            "time": 143.02317,
            "velocity": 0.6377952755905512
          },
          {
            "duration": 0.3488370000000032,
            "durationTicks": 480,
            "midi": 58,
            "name": "A#3",
            "ticks": 196800,
            "time": 143.02317,
            "velocity": 0.6377952755905512
          },
          {
            "duration": 0.3488370000000032,
            "durationTicks": 480,
            "midi": 54,
            "name": "F#3",
            "ticks": 197280,
            "time": 143.372007,
            "velocity": 0.6377952755905512
          },
          {
            "duration": 0.3488370000000032,
            "durationTicks": 480,
            "midi": 58,
            "name": "A#3",
            "ticks": 197280,
            "time": 143.372007,
            "velocity": 0.6377952755905512
          },
          {
            "duration": 0.6976740000000063,
            "durationTicks": 960,
            "midi": 58,
            "name": "A#3",
            "ticks": 197760,
            "time": 143.720844,
            "velocity": 0.6377952755905512
          },
          {
            "duration": 0.6976740000000063,
            "durationTicks": 960,
            "midi": 61,
            "name": "C#4",
            "ticks": 197760,
            "time": 143.720844,
            "velocity": 0.6377952755905512
          },
          {
            "duration": 0.3488370000000032,
            "durationTicks": 480,
            "midi": 54,
            "name": "F#3",
            "ticks": 198720,
            "time": 144.418518,
            "velocity": 0.6377952755905512
          },
          {
            "duration": 0.3488370000000032,
            "durationTicks": 480,
            "midi": 58,
            "name": "A#3",
            "ticks": 198720,
            "time": 144.418518,
            "velocity": 0.6377952755905512
          },
          {
            "duration": 0.3488370000000032,
            "durationTicks": 480,
            "midi": 54,
            "name": "F#3",
            "ticks": 199200,
            "time": 144.767355,
            "velocity": 0.6377952755905512
          },
          {
            "duration": 0.3488370000000032,
            "durationTicks": 480,
            "midi": 58,
            "name": "A#3",
            "ticks": 199200,
            "time": 144.767355,
            "velocity": 0.6377952755905512
          },
          {
            "duration": 0.6976739999999779,
            "durationTicks": 960,
            "midi": 58,
            "name": "A#3",
            "ticks": 199680,
            "time": 145.116192,
            "velocity": 0.6377952755905512
          },
          {
            "duration": 0.6976739999999779,
            "durationTicks": 960,
            "midi": 61,
            "name": "C#4",
            "ticks": 199680,
            "time": 145.116192,
            "velocity": 0.6377952755905512
          },
          {
            "duration": 0.3488370000000032,
            "durationTicks": 480,
            "midi": 59,
            "name": "B3",
            "ticks": 200640,
            "time": 145.813866,
            "velocity": 0.6377952755905512
          },
          {
            "duration": 0.3488370000000032,
            "durationTicks": 480,
            "midi": 63,
            "name": "D#4",
            "ticks": 200640,
            "time": 145.813866,
            "velocity": 0.6377952755905512
          },
          {
            "duration": 0.3488370000000032,
            "durationTicks": 480,
            "midi": 56,
            "name": "G#3",
            "ticks": 201120,
            "time": 146.162703,
            "velocity": 0.6377952755905512
          },
          {
            "duration": 0.3488370000000032,
            "durationTicks": 480,
            "midi": 59,
            "name": "B3",
            "ticks": 201120,
            "time": 146.162703,
            "velocity": 0.6377952755905512
          },
          {
            "duration": 0.3488370000000032,
            "durationTicks": 480,
            "midi": 52,
            "name": "E3",
            "ticks": 201600,
            "time": 146.51154,
            "velocity": 0.4566929133858268
          },
          {
            "duration": 0.3488370000000032,
            "durationTicks": 480,
            "midi": 56,
            "name": "G#3",
            "ticks": 201600,
            "time": 146.51154,
            "velocity": 0.6771653543307087
          },
          {
            "duration": 0.3488370000000032,
            "durationTicks": 480,
            "midi": 52,
            "name": "E3",
            "ticks": 202080,
            "time": 146.860377,
            "velocity": 0.4566929133858268
          },
          {
            "duration": 0.3488370000000032,
            "durationTicks": 480,
            "midi": 56,
            "name": "G#3",
            "ticks": 202080,
            "time": 146.860377,
            "velocity": 0.6771653543307087
          },
          {
            "duration": 0.3488370000000032,
            "durationTicks": 480,
            "midi": 52,
            "name": "E3",
            "ticks": 202560,
            "time": 147.209214,
            "velocity": 0.7952755905511811
          },
          {
            "duration": 0.3488370000000032,
            "durationTicks": 480,
            "midi": 56,
            "name": "G#3",
            "ticks": 202560,
            "time": 147.209214,
            "velocity": 0.8110236220472441
          },
          {
            "duration": 0.3488370000000032,
            "durationTicks": 480,
            "midi": 52,
            "name": "E3",
            "ticks": 203040,
            "time": 147.558051,
            "velocity": 0.7952755905511811
          },
          {
            "duration": 0.3488370000000032,
            "durationTicks": 480,
            "midi": 56,
            "name": "G#3",
            "ticks": 203040,
            "time": 147.558051,
            "velocity": 0.8110236220472441
          },
          {
            "duration": 0.3488370000000032,
            "durationTicks": 480,
            "midi": 56,
            "name": "G#3",
            "ticks": 203520,
            "time": 147.906888,
            "velocity": 0.6535433070866141
          },
          {
            "duration": 0.3488370000000032,
            "durationTicks": 480,
            "midi": 59,
            "name": "B3",
            "ticks": 203520,
            "time": 147.906888,
            "velocity": 0.8110236220472441
          },
          {
            "duration": 0.3488370000000032,
            "durationTicks": 480,
            "midi": 52,
            "name": "E3",
            "ticks": 204000,
            "time": 148.255725,
            "velocity": 0.8110236220472441
          },
          {
            "duration": 0.3488370000000032,
            "durationTicks": 480,
            "midi": 56,
            "name": "G#3",
            "ticks": 204000,
            "time": 148.255725,
            "velocity": 0.6535433070866141
          },
          {
            "duration": 0.34883699999997475,
            "durationTicks": 480,
            "midi": 56,
            "name": "G#3",
            "ticks": 204480,
            "time": 148.60456200000002,
            "velocity": 0.8267716535433071
          },
          {
            "duration": 0.34883699999997475,
            "durationTicks": 480,
            "midi": 59,
            "name": "B3",
            "ticks": 204480,
            "time": 148.60456200000002,
            "velocity": 0.8976377952755905
          },
          {
            "duration": 0.3488370000000032,
            "durationTicks": 480,
            "midi": 52,
            "name": "E3",
            "ticks": 204960,
            "time": 148.953399,
            "velocity": 0.8976377952755905
          },
          {
            "duration": 0.3488370000000032,
            "durationTicks": 480,
            "midi": 56,
            "name": "G#3",
            "ticks": 204960,
            "time": 148.953399,
            "velocity": 0.8267716535433071
          },
          {
            "duration": 0.3488370000000032,
            "durationTicks": 480,
            "midi": 52,
            "name": "E3",
            "ticks": 205440,
            "time": 149.302236,
            "velocity": 0.4566929133858268
          },
          {
            "duration": 0.3488370000000032,
            "durationTicks": 480,
            "midi": 56,
            "name": "G#3",
            "ticks": 205440,
            "time": 149.302236,
            "velocity": 0.6771653543307087
          },
          {
            "duration": 0.3488370000000032,
            "durationTicks": 480,
            "midi": 52,
            "name": "E3",
            "ticks": 205920,
            "time": 149.651073,
            "velocity": 0.4566929133858268
          },
          {
            "duration": 0.3488370000000032,
            "durationTicks": 480,
            "midi": 56,
            "name": "G#3",
            "ticks": 205920,
            "time": 149.651073,
            "velocity": 0.6771653543307087
          },
          {
            "duration": 0.3488370000000032,
            "durationTicks": 480,
            "midi": 52,
            "name": "E3",
            "ticks": 206400,
            "time": 149.99991,
            "velocity": 0.7952755905511811
          },
          {
            "duration": 0.3488370000000032,
            "durationTicks": 480,
            "midi": 56,
            "name": "G#3",
            "ticks": 206400,
            "time": 149.99991,
            "velocity": 0.8110236220472441
          },
          {
            "duration": 0.3488370000000032,
            "durationTicks": 480,
            "midi": 52,
            "name": "E3",
            "ticks": 206880,
            "time": 150.348747,
            "velocity": 0.7952755905511811
          },
          {
            "duration": 0.3488370000000032,
            "durationTicks": 480,
            "midi": 56,
            "name": "G#3",
            "ticks": 206880,
            "time": 150.348747,
            "velocity": 0.8110236220472441
          },
          {
            "duration": 0.3488370000000032,
            "durationTicks": 480,
            "midi": 56,
            "name": "G#3",
            "ticks": 207360,
            "time": 150.697584,
            "velocity": 0.6535433070866141
          },
          {
            "duration": 0.3488370000000032,
            "durationTicks": 480,
            "midi": 59,
            "name": "B3",
            "ticks": 207360,
            "time": 150.697584,
            "velocity": 0.8110236220472441
          },
          {
            "duration": 0.3488370000000032,
            "durationTicks": 480,
            "midi": 56,
            "name": "G#3",
            "ticks": 207840,
            "time": 151.046421,
            "velocity": 0.6535433070866141
          },
          {
            "duration": 0.3488370000000032,
            "durationTicks": 480,
            "midi": 59,
            "name": "B3",
            "ticks": 207840,
            "time": 151.046421,
            "velocity": 0.8110236220472441
          },
          {
            "duration": 0.3488370000000032,
            "durationTicks": 480,
            "midi": 56,
            "name": "G#3",
            "ticks": 208320,
            "time": 151.395258,
            "velocity": 0.8267716535433071
          },
          {
            "duration": 0.3488370000000032,
            "durationTicks": 480,
            "midi": 59,
            "name": "B3",
            "ticks": 208320,
            "time": 151.395258,
            "velocity": 0.8976377952755905
          },
          {
            "duration": 0.34883699999997475,
            "durationTicks": 480,
            "midi": 56,
            "name": "G#3",
            "ticks": 208800,
            "time": 151.74409500000002,
            "velocity": 0.8267716535433071
          },
          {
            "duration": 0.34883699999997475,
            "durationTicks": 480,
            "midi": 59,
            "name": "B3",
            "ticks": 208800,
            "time": 151.74409500000002,
            "velocity": 0.8976377952755905
          },
          {
            "duration": 0.3488370000000032,
            "durationTicks": 480,
            "midi": 63,
            "name": "D#4",
            "ticks": 209280,
            "time": 152.092932,
            "velocity": 0.7165354330708661
          },
          {
            "duration": 0.3488370000000032,
            "durationTicks": 480,
            "midi": 66,
            "name": "F#4",
            "ticks": 209280,
            "time": 152.092932,
            "velocity": 0.6929133858267716
          },
          {
            "duration": 0.3488370000000032,
            "durationTicks": 480,
            "midi": 63,
            "name": "D#4",
            "ticks": 209760,
            "time": 152.441769,
            "velocity": 0.7165354330708661
          },
          {
            "duration": 0.3488370000000032,
            "durationTicks": 480,
            "midi": 66,
            "name": "F#4",
            "ticks": 209760,
            "time": 152.441769,
            "velocity": 0.6929133858267716
          },
          {
            "duration": 0.3488370000000032,
            "durationTicks": 480,
            "midi": 59,
            "name": "B3",
            "ticks": 210240,
            "time": 152.790606,
            "velocity": 0.7165354330708661
          },
          {
            "duration": 0.3488370000000032,
            "durationTicks": 480,
            "midi": 63,
            "name": "D#4",
            "ticks": 210240,
            "time": 152.790606,
            "velocity": 0.7322834645669292
          },
          {
            "duration": 0.3488370000000032,
            "durationTicks": 480,
            "midi": 59,
            "name": "B3",
            "ticks": 210720,
            "time": 153.139443,
            "velocity": 0.7165354330708661
          },
          {
            "duration": 0.3488370000000032,
            "durationTicks": 480,
            "midi": 63,
            "name": "D#4",
            "ticks": 210720,
            "time": 153.139443,
            "velocity": 0.7322834645669292
          },
          {
            "duration": 0.3488370000000032,
            "durationTicks": 480,
            "midi": 63,
            "name": "D#4",
            "ticks": 211200,
            "time": 153.48828,
            "velocity": 0.7165354330708661
          },
          {
            "duration": 0.3488370000000032,
            "durationTicks": 480,
            "midi": 66,
            "name": "F#4",
            "ticks": 211200,
            "time": 153.48828,
            "velocity": 0.6771653543307087
          },
          {
            "duration": 0.3488370000000032,
            "durationTicks": 480,
            "midi": 63,
            "name": "D#4",
            "ticks": 211680,
            "time": 153.837117,
            "velocity": 0.7165354330708661
          },
          {
            "duration": 0.3488370000000032,
            "durationTicks": 480,
            "midi": 66,
            "name": "F#4",
            "ticks": 211680,
            "time": 153.837117,
            "velocity": 0.6771653543307087
          },
          {
            "duration": 0.3488370000000032,
            "durationTicks": 480,
            "midi": 59,
            "name": "B3",
            "ticks": 212160,
            "time": 154.185954,
            "velocity": 0.7322834645669292
          },
          {
            "duration": 0.3488370000000032,
            "durationTicks": 480,
            "midi": 63,
            "name": "D#4",
            "ticks": 212160,
            "time": 154.185954,
            "velocity": 0.7165354330708661
          },
          {
            "duration": 0.1744185000000016,
            "durationTicks": 240,
            "midi": 59,
            "name": "B3",
            "ticks": 212640,
            "time": 154.534791,
            "velocity": 0.7322834645669292
          },
          {
            "duration": 0.1744185000000016,
            "durationTicks": 240,
            "midi": 63,
            "name": "D#4",
            "ticks": 212640,
            "time": 154.534791,
            "velocity": 0.7165354330708661
          },
          {
            "duration": 0.1744185000000016,
            "durationTicks": 240,
            "midi": 59,
            "name": "B3",
            "ticks": 212880,
            "time": 154.70920950000001,
            "velocity": 0.7322834645669292
          },
          {
            "duration": 0.1744185000000016,
            "durationTicks": 240,
            "midi": 63,
            "name": "D#4",
            "ticks": 212880,
            "time": 154.70920950000001,
            "velocity": 0.7165354330708661
          },
          {
            "duration": 0.34883699999997475,
            "durationTicks": 480,
            "midi": 63,
            "name": "D#4",
            "ticks": 213120,
            "time": 154.88362800000002,
            "velocity": 0.7165354330708661
          },
          {
            "duration": 0.34883699999997475,
            "durationTicks": 480,
            "midi": 66,
            "name": "F#4",
            "ticks": 213120,
            "time": 154.88362800000002,
            "velocity": 0.6771653543307087
          },
          {
            "duration": 0.3488370000000032,
            "durationTicks": 480,
            "midi": 63,
            "name": "D#4",
            "ticks": 213600,
            "time": 155.232465,
            "velocity": 0.7165354330708661
          },
          {
            "duration": 0.3488370000000032,
            "durationTicks": 480,
            "midi": 66,
            "name": "F#4",
            "ticks": 213600,
            "time": 155.232465,
            "velocity": 0.6771653543307087
          },
          {
            "duration": 0.3488370000000032,
            "durationTicks": 480,
            "midi": 59,
            "name": "B3",
            "ticks": 214080,
            "time": 155.581302,
            "velocity": 0.7322834645669292
          },
          {
            "duration": 0.3488370000000032,
            "durationTicks": 480,
            "midi": 63,
            "name": "D#4",
            "ticks": 214080,
            "time": 155.581302,
            "velocity": 0.7165354330708661
          },
          {
            "duration": 0.3488370000000032,
            "durationTicks": 480,
            "midi": 59,
            "name": "B3",
            "ticks": 214560,
            "time": 155.930139,
            "velocity": 0.7322834645669292
          },
          {
            "duration": 0.3488370000000032,
            "durationTicks": 480,
            "midi": 63,
            "name": "D#4",
            "ticks": 214560,
            "time": 155.930139,
            "velocity": 0.7165354330708661
          },
          {
            "duration": 0.3488370000000032,
            "durationTicks": 480,
            "midi": 63,
            "name": "D#4",
            "ticks": 215040,
            "time": 156.278976,
            "velocity": 0.7165354330708661
          },
          {
            "duration": 0.3488370000000032,
            "durationTicks": 480,
            "midi": 66,
            "name": "F#4",
            "ticks": 215040,
            "time": 156.278976,
            "velocity": 0.6771653543307087
          },
          {
            "duration": 0.3488370000000032,
            "durationTicks": 480,
            "midi": 63,
            "name": "D#4",
            "ticks": 215520,
            "time": 156.627813,
            "velocity": 0.7165354330708661
          },
          {
            "duration": 0.3488370000000032,
            "durationTicks": 480,
            "midi": 66,
            "name": "F#4",
            "ticks": 215520,
            "time": 156.627813,
            "velocity": 0.6771653543307087
          },
          {
            "duration": 0.3488370000000032,
            "durationTicks": 480,
            "midi": 59,
            "name": "B3",
            "ticks": 216000,
            "time": 156.97665,
            "velocity": 0.7322834645669292
          },
          {
            "duration": 0.3488370000000032,
            "durationTicks": 480,
            "midi": 63,
            "name": "D#4",
            "ticks": 216000,
            "time": 156.97665,
            "velocity": 0.7165354330708661
          },
          {
            "duration": 0.3488370000000032,
            "durationTicks": 480,
            "midi": 59,
            "name": "B3",
            "ticks": 216480,
            "time": 157.325487,
            "velocity": 0.7322834645669292
          },
          {
            "duration": 0.3488370000000032,
            "durationTicks": 480,
            "midi": 63,
            "name": "D#4",
            "ticks": 216480,
            "time": 157.325487,
            "velocity": 0.7165354330708661
          },
          {
            "duration": 0.6976739999999779,
            "durationTicks": 960,
            "midi": 58,
            "name": "A#3",
            "ticks": 216960,
            "time": 157.674324,
            "velocity": 0.6377952755905512
          },
          {
            "duration": 0.6976739999999779,
            "durationTicks": 960,
            "midi": 61,
            "name": "C#4",
            "ticks": 216960,
            "time": 157.674324,
            "velocity": 0.6377952755905512
          },
          {
            "duration": 0.3488370000000032,
            "durationTicks": 480,
            "midi": 54,
            "name": "F#3",
            "ticks": 217920,
            "time": 158.371998,
            "velocity": 0.6377952755905512
          },
          {
            "duration": 0.3488370000000032,
            "durationTicks": 480,
            "midi": 58,
            "name": "A#3",
            "ticks": 217920,
            "time": 158.371998,
            "velocity": 0.6377952755905512
          },
          {
            "duration": 0.3488370000000032,
            "durationTicks": 480,
            "midi": 54,
            "name": "F#3",
            "ticks": 218400,
            "time": 158.720835,
            "velocity": 0.6377952755905512
          },
          {
            "duration": 0.3488370000000032,
            "durationTicks": 480,
            "midi": 58,
            "name": "A#3",
            "ticks": 218400,
            "time": 158.720835,
            "velocity": 0.6377952755905512
          },
          {
            "duration": 0.6976740000000063,
            "durationTicks": 960,
            "midi": 58,
            "name": "A#3",
            "ticks": 218880,
            "time": 159.069672,
            "velocity": 0.6377952755905512
          },
          {
            "duration": 0.6976740000000063,
            "durationTicks": 960,
            "midi": 61,
            "name": "C#4",
            "ticks": 218880,
            "time": 159.069672,
            "velocity": 0.6377952755905512
          },
          {
            "duration": 0.3488370000000032,
            "durationTicks": 480,
            "midi": 54,
            "name": "F#3",
            "ticks": 219840,
            "time": 159.767346,
            "velocity": 0.6377952755905512
          },
          {
            "duration": 0.3488370000000032,
            "durationTicks": 480,
            "midi": 58,
            "name": "A#3",
            "ticks": 219840,
            "time": 159.767346,
            "velocity": 0.6377952755905512
          },
          {
            "duration": 0.3488370000000032,
            "durationTicks": 480,
            "midi": 54,
            "name": "F#3",
            "ticks": 220320,
            "time": 160.116183,
            "velocity": 0.6377952755905512
          },
          {
            "duration": 0.3488370000000032,
            "durationTicks": 480,
            "midi": 58,
            "name": "A#3",
            "ticks": 220320,
            "time": 160.116183,
            "velocity": 0.6377952755905512
          },
          {
            "duration": 0.6976740000000063,
            "durationTicks": 960,
            "midi": 58,
            "name": "A#3",
            "ticks": 220800,
            "time": 160.46502,
            "velocity": 0.6377952755905512
          },
          {
            "duration": 0.6976740000000063,
            "durationTicks": 960,
            "midi": 61,
            "name": "C#4",
            "ticks": 220800,
            "time": 160.46502,
            "velocity": 0.6377952755905512
          },
          {
            "duration": 0.34883699999997475,
            "durationTicks": 480,
            "midi": 54,
            "name": "F#3",
            "ticks": 221760,
            "time": 161.16269400000002,
            "velocity": 0.6377952755905512
          },
          {
            "duration": 0.34883699999997475,
            "durationTicks": 480,
            "midi": 58,
            "name": "A#3",
            "ticks": 221760,
            "time": 161.16269400000002,
            "velocity": 0.6377952755905512
          },
          {
            "duration": 0.3488370000000032,
            "durationTicks": 480,
            "midi": 54,
            "name": "F#3",
            "ticks": 222240,
            "time": 161.511531,
            "velocity": 0.6377952755905512
          },
          {
            "duration": 0.3488370000000032,
            "durationTicks": 480,
            "midi": 58,
            "name": "A#3",
            "ticks": 222240,
            "time": 161.511531,
            "velocity": 0.6377952755905512
          },
          {
            "duration": 0.6976740000000063,
            "durationTicks": 960,
            "midi": 58,
            "name": "A#3",
            "ticks": 222720,
            "time": 161.860368,
            "velocity": 0.6377952755905512
          },
          {
            "duration": 0.6976740000000063,
            "durationTicks": 960,
            "midi": 61,
            "name": "C#4",
            "ticks": 222720,
            "time": 161.860368,
            "velocity": 0.6377952755905512
          },
          {
            "duration": 0.3488370000000032,
            "durationTicks": 480,
            "midi": 59,
            "name": "B3",
            "ticks": 223680,
            "time": 162.558042,
            "velocity": 0.6377952755905512
          },
          {
            "duration": 0.3488370000000032,
            "durationTicks": 480,
            "midi": 63,
            "name": "D#4",
            "ticks": 223680,
            "time": 162.558042,
            "velocity": 0.6377952755905512
          },
          {
            "duration": 0.3488370000000032,
            "durationTicks": 480,
            "midi": 56,
            "name": "G#3",
            "ticks": 224160,
            "time": 162.906879,
            "velocity": 0.6377952755905512
          },
          {
            "duration": 0.3488370000000032,
            "durationTicks": 480,
            "midi": 59,
            "name": "B3",
            "ticks": 224160,
            "time": 162.906879,
            "velocity": 0.6377952755905512
          },
          {
            "duration": 0.6976740000000063,
            "durationTicks": 960,
            "midi": 52,
            "name": "E3",
            "ticks": 224640,
            "time": 163.255716,
            "velocity": 0.4566929133858268
          },
          {
            "duration": 0.6976740000000063,
            "durationTicks": 960,
            "midi": 56,
            "name": "G#3",
            "ticks": 224640,
            "time": 163.255716,
            "velocity": 0.6771653543307087
          },
          {
            "duration": 1.3953479999999843,
            "durationTicks": 1920,
            "midi": 59,
            "name": "B3",
            "ticks": 225600,
            "time": 163.95339,
            "velocity": 0.8110236220472441
          },
          {
            "duration": 1.3372084999999743,
            "durationTicks": 1840,
            "midi": 63,
            "name": "D#4",
            "ticks": 225720,
            "time": 164.04059925,
            "velocity": 0.7952755905511811
          },
          {
            "duration": 1.2790689999999927,
            "durationTicks": 1760,
            "midi": 68,
            "name": "G#4",
            "ticks": 225720,
            "time": 164.04059925,
            "velocity": 0.7952755905511811
          },
          {
            "duration": 0.34883699999997475,
            "durationTicks": 480,
            "midi": 52,
            "name": "E3",
            "ticks": 226080,
            "time": 164.30222700000002,
            "velocity": 0.7952755905511811
          },
          {
            "duration": 0.34883699999997475,
            "durationTicks": 480,
            "midi": 56,
            "name": "G#3",
            "ticks": 226080,
            "time": 164.30222700000002,
            "velocity": 0.8110236220472441
          },
          {
            "duration": 0.3488370000000032,
            "durationTicks": 480,
            "midi": 52,
            "name": "E3",
            "ticks": 226560,
            "time": 164.651064,
            "velocity": 0.7322834645669292
          },
          {
            "duration": 0.3488370000000032,
            "durationTicks": 480,
            "midi": 56,
            "name": "G#3",
            "ticks": 226560,
            "time": 164.651064,
            "velocity": 0.6771653543307087
          },
          {
            "duration": 0.3488370000000032,
            "durationTicks": 480,
            "midi": 52,
            "name": "E3",
            "ticks": 227040,
            "time": 164.999901,
            "velocity": 0.8267716535433071
          },
          {
            "duration": 0.3488370000000032,
            "durationTicks": 480,
            "midi": 56,
            "name": "G#3",
            "ticks": 227040,
            "time": 164.999901,
            "velocity": 0.7952755905511811
          },
          {
            "duration": 0.3488370000000032,
            "durationTicks": 480,
            "midi": 56,
            "name": "G#3",
            "ticks": 227520,
            "time": 165.348738,
            "velocity": 0.84251968503937
          },
          {
            "duration": 0.3488370000000032,
            "durationTicks": 480,
            "midi": 59,
            "name": "B3",
            "ticks": 227520,
            "time": 165.348738,
            "velocity": 0.84251968503937
          },
          {
            "duration": 0.3488370000000032,
            "durationTicks": 480,
            "midi": 52,
            "name": "E3",
            "ticks": 228000,
            "time": 165.697575,
            "velocity": 0.8267716535433071
          },
          {
            "duration": 0.3488370000000032,
            "durationTicks": 480,
            "midi": 56,
            "name": "G#3",
            "ticks": 228000,
            "time": 165.697575,
            "velocity": 0.84251968503937
          },
          {
            "duration": 0.3488370000000032,
            "durationTicks": 480,
            "midi": 52,
            "name": "E3",
            "ticks": 228480,
            "time": 166.046412,
            "velocity": 0.7322834645669292
          },
          {
            "duration": 0.3488370000000032,
            "durationTicks": 480,
            "midi": 56,
            "name": "G#3",
            "ticks": 228480,
            "time": 166.046412,
            "velocity": 0.6771653543307087
          },
          {
            "duration": 0.3488370000000032,
            "durationTicks": 480,
            "midi": 52,
            "name": "E3",
            "ticks": 228960,
            "time": 166.395249,
            "velocity": 0.8267716535433071
          },
          {
            "duration": 0.3488370000000032,
            "durationTicks": 480,
            "midi": 56,
            "name": "G#3",
            "ticks": 228960,
            "time": 166.395249,
            "velocity": 0.7952755905511811
          },
          {
            "duration": 0.3488370000000032,
            "durationTicks": 480,
            "midi": 56,
            "name": "G#3",
            "ticks": 229440,
            "time": 166.744086,
            "velocity": 0.84251968503937
          },
          {
            "duration": 0.3488370000000032,
            "durationTicks": 480,
            "midi": 59,
            "name": "B3",
            "ticks": 229440,
            "time": 166.744086,
            "velocity": 0.84251968503937
          },
          {
            "duration": 0.3488370000000032,
            "durationTicks": 480,
            "midi": 52,
            "name": "E3",
            "ticks": 229920,
            "time": 167.092923,
            "velocity": 0.8267716535433071
          },
          {
            "duration": 0.3488370000000032,
            "durationTicks": 480,
            "midi": 56,
            "name": "G#3",
            "ticks": 229920,
            "time": 167.092923,
            "velocity": 0.84251968503937
          },
          {
            "duration": 0.34883699999997475,
            "durationTicks": 480,
            "midi": 52,
            "name": "E3",
            "ticks": 230400,
            "time": 167.44176000000002,
            "velocity": 0.7322834645669292
          },
          {
            "duration": 0.34883699999997475,
            "durationTicks": 480,
            "midi": 56,
            "name": "G#3",
            "ticks": 230400,
            "time": 167.44176000000002,
            "velocity": 0.6771653543307087
          },
          {
            "duration": 0.3488370000000032,
            "durationTicks": 480,
            "midi": 52,
            "name": "E3",
            "ticks": 230880,
            "time": 167.790597,
            "velocity": 0.8267716535433071
          },
          {
            "duration": 0.3488370000000032,
            "durationTicks": 480,
            "midi": 56,
            "name": "G#3",
            "ticks": 230880,
            "time": 167.790597,
            "velocity": 0.7952755905511811
          },
          {
            "duration": 0.3488370000000032,
            "durationTicks": 480,
            "midi": 56,
            "name": "G#3",
            "ticks": 231360,
            "time": 168.139434,
            "velocity": 0.84251968503937
          },
          {
            "duration": 0.3488370000000032,
            "durationTicks": 480,
            "midi": 59,
            "name": "B3",
            "ticks": 231360,
            "time": 168.139434,
            "velocity": 0.84251968503937
          },
          {
            "duration": 0.3488370000000032,
            "durationTicks": 480,
            "midi": 52,
            "name": "E3",
            "ticks": 231840,
            "time": 168.488271,
            "velocity": 0.8267716535433071
          },
          {
            "duration": 0.3488370000000032,
            "durationTicks": 480,
            "midi": 56,
            "name": "G#3",
            "ticks": 231840,
            "time": 168.488271,
            "velocity": 0.84251968503937
          },
          {
            "duration": 0.3488370000000032,
            "durationTicks": 480,
            "midi": 47,
            "name": "B2",
            "ticks": 232320,
            "time": 168.837108,
            "velocity": 0.7952755905511811
          },
          {
            "duration": 0.3488370000000032,
            "durationTicks": 480,
            "midi": 51,
            "name": "D#3",
            "ticks": 232320,
            "time": 168.837108,
            "velocity": 0.7952755905511811
          },
          {
            "duration": 0.3488370000000032,
            "durationTicks": 480,
            "midi": 54,
            "name": "F#3",
            "ticks": 232320,
            "time": 168.837108,
            "velocity": 0.8582677165354331
          },
          {
            "duration": 0.3488370000000032,
            "durationTicks": 480,
            "midi": 47,
            "name": "B2",
            "ticks": 232800,
            "time": 169.185945,
            "velocity": 0.7952755905511811
          },
          {
            "duration": 0.3488370000000032,
            "durationTicks": 480,
            "midi": 51,
            "name": "D#3",
            "ticks": 232800,
            "time": 169.185945,
            "velocity": 0.7952755905511811
          },
          {
            "duration": 0.3488370000000032,
            "durationTicks": 480,
            "midi": 54,
            "name": "F#3",
            "ticks": 232800,
            "time": 169.185945,
            "velocity": 0.8582677165354331
          },
          {
            "duration": 0.3488370000000032,
            "durationTicks": 480,
            "midi": 51,
            "name": "D#3",
            "ticks": 233280,
            "time": 169.534782,
            "velocity": 0.7952755905511811
          },
          {
            "duration": 0.3488370000000032,
            "durationTicks": 480,
            "midi": 54,
            "name": "F#3",
            "ticks": 233280,
            "time": 169.534782,
            "velocity": 0.8582677165354331
          },
          {
            "duration": 0.3488370000000032,
            "durationTicks": 480,
            "midi": 59,
            "name": "B3",
            "ticks": 233280,
            "time": 169.534782,
            "velocity": 0.7952755905511811
          },
          {
            "duration": 0.3488370000000032,
            "durationTicks": 480,
            "midi": 47,
            "name": "B2",
            "ticks": 233760,
            "time": 169.883619,
            "velocity": 0.7952755905511811
          },
          {
            "duration": 0.3488370000000032,
            "durationTicks": 480,
            "midi": 51,
            "name": "D#3",
            "ticks": 233760,
            "time": 169.883619,
            "velocity": 0.7952755905511811
          },
          {
            "duration": 0.3488370000000032,
            "durationTicks": 480,
            "midi": 54,
            "name": "F#3",
            "ticks": 233760,
            "time": 169.883619,
            "velocity": 0.8582677165354331
          },
          {
            "duration": 0.3488370000000032,
            "durationTicks": 480,
            "midi": 51,
            "name": "D#3",
            "ticks": 234240,
            "time": 170.232456,
            "velocity": 0.7952755905511811
          },
          {
            "duration": 0.3488370000000032,
            "durationTicks": 480,
            "midi": 54,
            "name": "F#3",
            "ticks": 234240,
            "time": 170.232456,
            "velocity": 0.8582677165354331
          },
          {
            "duration": 0.3488370000000032,
            "durationTicks": 480,
            "midi": 59,
            "name": "B3",
            "ticks": 234240,
            "time": 170.232456,
            "velocity": 0.7952755905511811
          },
          {
            "duration": 0.34883699999997475,
            "durationTicks": 480,
            "midi": 47,
            "name": "B2",
            "ticks": 234720,
            "time": 170.58129300000002,
            "velocity": 0.7952755905511811
          },
          {
            "duration": 0.34883699999997475,
            "durationTicks": 480,
            "midi": 51,
            "name": "D#3",
            "ticks": 234720,
            "time": 170.58129300000002,
            "velocity": 0.7952755905511811
          },
          {
            "duration": 0.34883699999997475,
            "durationTicks": 480,
            "midi": 54,
            "name": "F#3",
            "ticks": 234720,
            "time": 170.58129300000002,
            "velocity": 0.8582677165354331
          },
          {
            "duration": 0.3488370000000032,
            "durationTicks": 480,
            "midi": 51,
            "name": "D#3",
            "ticks": 235200,
            "time": 170.93013,
            "velocity": 0.7952755905511811
          },
          {
            "duration": 0.3488370000000032,
            "durationTicks": 480,
            "midi": 54,
            "name": "F#3",
            "ticks": 235200,
            "time": 170.93013,
            "velocity": 0.8582677165354331
          },
          {
            "duration": 0.3488370000000032,
            "durationTicks": 480,
            "midi": 59,
            "name": "B3",
            "ticks": 235200,
            "time": 170.93013,
            "velocity": 0.7952755905511811
          },
          {
            "duration": 0.3488370000000032,
            "durationTicks": 480,
            "midi": 47,
            "name": "B2",
            "ticks": 235680,
            "time": 171.278967,
            "velocity": 0.7952755905511811
          },
          {
            "duration": 0.3488370000000032,
            "durationTicks": 480,
            "midi": 51,
            "name": "D#3",
            "ticks": 235680,
            "time": 171.278967,
            "velocity": 0.7952755905511811
          },
          {
            "duration": 0.3488370000000032,
            "durationTicks": 480,
            "midi": 54,
            "name": "F#3",
            "ticks": 235680,
            "time": 171.278967,
            "velocity": 0.8582677165354331
          },
          {
            "duration": 0.3488370000000032,
            "durationTicks": 480,
            "midi": 47,
            "name": "B2",
            "ticks": 236160,
            "time": 171.627804,
            "velocity": 0.7952755905511811
          },
          {
            "duration": 0.3488370000000032,
            "durationTicks": 480,
            "midi": 51,
            "name": "D#3",
            "ticks": 236160,
            "time": 171.627804,
            "velocity": 0.7952755905511811
          },
          {
            "duration": 0.3488370000000032,
            "durationTicks": 480,
            "midi": 54,
            "name": "F#3",
            "ticks": 236160,
            "time": 171.627804,
            "velocity": 0.8582677165354331
          },
          {
            "duration": 0.3488370000000032,
            "durationTicks": 480,
            "midi": 47,
            "name": "B2",
            "ticks": 236640,
            "time": 171.976641,
            "velocity": 0.7952755905511811
          },
          {
            "duration": 0.3488370000000032,
            "durationTicks": 480,
            "midi": 51,
            "name": "D#3",
            "ticks": 236640,
            "time": 171.976641,
            "velocity": 0.7952755905511811
          },
          {
            "duration": 0.3488370000000032,
            "durationTicks": 480,
            "midi": 54,
            "name": "F#3",
            "ticks": 236640,
            "time": 171.976641,
            "velocity": 0.8582677165354331
          },
          {
            "duration": 0.3488370000000032,
            "durationTicks": 480,
            "midi": 51,
            "name": "D#3",
            "ticks": 237120,
            "time": 172.325478,
            "velocity": 0.7952755905511811
          },
          {
            "duration": 0.3488370000000032,
            "durationTicks": 480,
            "midi": 54,
            "name": "F#3",
            "ticks": 237120,
            "time": 172.325478,
            "velocity": 0.8582677165354331
          },
          {
            "duration": 0.3488370000000032,
            "durationTicks": 480,
            "midi": 59,
            "name": "B3",
            "ticks": 237120,
            "time": 172.325478,
            "velocity": 0.7952755905511811
          },
          {
            "duration": 0.3488370000000032,
            "durationTicks": 480,
            "midi": 47,
            "name": "B2",
            "ticks": 237600,
            "time": 172.674315,
            "velocity": 0.7952755905511811
          },
          {
            "duration": 0.3488370000000032,
            "durationTicks": 480,
            "midi": 51,
            "name": "D#3",
            "ticks": 237600,
            "time": 172.674315,
            "velocity": 0.7952755905511811
          },
          {
            "duration": 0.3488370000000032,
            "durationTicks": 480,
            "midi": 54,
            "name": "F#3",
            "ticks": 237600,
            "time": 172.674315,
            "velocity": 0.8582677165354331
          },
          {
            "duration": 0.3488370000000032,
            "durationTicks": 480,
            "midi": 51,
            "name": "D#3",
            "ticks": 238080,
            "time": 173.023152,
            "velocity": 0.7952755905511811
          },
          {
            "duration": 0.3488370000000032,
            "durationTicks": 480,
            "midi": 54,
            "name": "F#3",
            "ticks": 238080,
            "time": 173.023152,
            "velocity": 0.8582677165354331
          },
          {
            "duration": 0.3488370000000032,
            "durationTicks": 480,
            "midi": 59,
            "name": "B3",
            "ticks": 238080,
            "time": 173.023152,
            "velocity": 0.7952755905511811
          },
          {
            "duration": 0.3488370000000032,
            "durationTicks": 480,
            "midi": 47,
            "name": "B2",
            "ticks": 238560,
            "time": 173.371989,
            "velocity": 0.7952755905511811
          },
          {
            "duration": 0.3488370000000032,
            "durationTicks": 480,
            "midi": 51,
            "name": "D#3",
            "ticks": 238560,
            "time": 173.371989,
            "velocity": 0.7952755905511811
          },
          {
            "duration": 0.3488370000000032,
            "durationTicks": 480,
            "midi": 54,
            "name": "F#3",
            "ticks": 238560,
            "time": 173.371989,
            "velocity": 0.8582677165354331
          },
          {
            "duration": 0.34883699999997475,
            "durationTicks": 480,
            "midi": 51,
            "name": "D#3",
            "ticks": 239040,
            "time": 173.72082600000002,
            "velocity": 0.7952755905511811
          },
          {
            "duration": 0.34883699999997475,
            "durationTicks": 480,
            "midi": 54,
            "name": "F#3",
            "ticks": 239040,
            "time": 173.72082600000002,
            "velocity": 0.8582677165354331
          },
          {
            "duration": 0.34883699999997475,
            "durationTicks": 480,
            "midi": 59,
            "name": "B3",
            "ticks": 239040,
            "time": 173.72082600000002,
            "velocity": 0.7952755905511811
          },
          {
            "duration": 0.3488370000000032,
            "durationTicks": 480,
            "midi": 47,
            "name": "B2",
            "ticks": 239520,
            "time": 174.069663,
            "velocity": 0.7952755905511811
          },
          {
            "duration": 0.3488370000000032,
            "durationTicks": 480,
            "midi": 51,
            "name": "D#3",
            "ticks": 239520,
            "time": 174.069663,
            "velocity": 0.7952755905511811
          },
          {
            "duration": 0.3488370000000032,
            "durationTicks": 480,
            "midi": 54,
            "name": "F#3",
            "ticks": 239520,
            "time": 174.069663,
            "velocity": 0.8582677165354331
          },
          {
            "duration": 0.3488370000000032,
            "durationTicks": 480,
            "midi": 52,
            "name": "E3",
            "ticks": 240000,
            "time": 174.4185,
            "velocity": 0.7165354330708661
          },
          {
            "duration": 0.3488370000000032,
            "durationTicks": 480,
            "midi": 56,
            "name": "G#3",
            "ticks": 240000,
            "time": 174.4185,
            "velocity": 0.7480314960629921
          },
          {
            "duration": 0.3488370000000032,
            "durationTicks": 480,
            "midi": 52,
            "name": "E3",
            "ticks": 240480,
            "time": 174.767337,
            "velocity": 0.7165354330708661
          },
          {
            "duration": 0.3488370000000032,
            "durationTicks": 480,
            "midi": 56,
            "name": "G#3",
            "ticks": 240480,
            "time": 174.767337,
            "velocity": 0.7480314960629921
          },
          {
            "duration": 0.3488370000000032,
            "durationTicks": 480,
            "midi": 52,
            "name": "E3",
            "ticks": 240960,
            "time": 175.116174,
            "velocity": 0.7165354330708661
          },
          {
            "duration": 0.3488370000000032,
            "durationTicks": 480,
            "midi": 56,
            "name": "G#3",
            "ticks": 240960,
            "time": 175.116174,
            "velocity": 0.7480314960629921
          },
          {
            "duration": 0.3488370000000032,
            "durationTicks": 480,
            "midi": 52,
            "name": "E3",
            "ticks": 241440,
            "time": 175.465011,
            "velocity": 0.7165354330708661
          },
          {
            "duration": 0.3488370000000032,
            "durationTicks": 480,
            "midi": 56,
            "name": "G#3",
            "ticks": 241440,
            "time": 175.465011,
            "velocity": 0.7480314960629921
          },
          {
            "duration": 0.3488370000000032,
            "durationTicks": 480,
            "midi": 52,
            "name": "E3",
            "ticks": 241920,
            "time": 175.813848,
            "velocity": 0.7165354330708661
          },
          {
            "duration": 0.3488370000000032,
            "durationTicks": 480,
            "midi": 56,
            "name": "G#3",
            "ticks": 241920,
            "time": 175.813848,
            "velocity": 0.7480314960629921
          },
          {
            "duration": 0.3488370000000032,
            "durationTicks": 480,
            "midi": 52,
            "name": "E3",
            "ticks": 242400,
            "time": 176.162685,
            "velocity": 0.7165354330708661
          },
          {
            "duration": 0.3488370000000032,
            "durationTicks": 480,
            "midi": 56,
            "name": "G#3",
            "ticks": 242400,
            "time": 176.162685,
            "velocity": 0.7480314960629921
          },
          {
            "duration": 0.3488370000000032,
            "durationTicks": 480,
            "midi": 52,
            "name": "E3",
            "ticks": 242880,
            "time": 176.511522,
            "velocity": 0.7165354330708661
          },
          {
            "duration": 0.3488370000000032,
            "durationTicks": 480,
            "midi": 56,
            "name": "G#3",
            "ticks": 242880,
            "time": 176.511522,
            "velocity": 0.7480314960629921
          },
          {
            "duration": 0.34883699999997475,
            "durationTicks": 480,
            "midi": 52,
            "name": "E3",
            "ticks": 243360,
            "time": 176.86035900000002,
            "velocity": 0.7165354330708661
          },
          {
            "duration": 0.34883699999997475,
            "durationTicks": 480,
            "midi": 56,
            "name": "G#3",
            "ticks": 243360,
            "time": 176.86035900000002,
            "velocity": 0.7480314960629921
          },
          {
            "duration": 0.3488370000000032,
            "durationTicks": 480,
            "midi": 56,
            "name": "G#3",
            "ticks": 243840,
            "time": 177.209196,
            "velocity": 0.7952755905511811
          },
          {
            "duration": 0.3488370000000032,
            "durationTicks": 480,
            "midi": 59,
            "name": "B3",
            "ticks": 243840,
            "time": 177.209196,
            "velocity": 0.6535433070866141
          },
          {
            "duration": 0.3488370000000032,
            "durationTicks": 480,
            "midi": 56,
            "name": "G#3",
            "ticks": 244320,
            "time": 177.558033,
            "velocity": 0.6535433070866141
          },
          {
            "duration": 0.3488370000000032,
            "durationTicks": 480,
            "midi": 59,
            "name": "B3",
            "ticks": 244320,
            "time": 177.558033,
            "velocity": 0.6377952755905512
          },
          {
            "duration": 0.3488370000000032,
            "durationTicks": 480,
            "midi": 56,
            "name": "G#3",
            "ticks": 244800,
            "time": 177.90687,
            "velocity": 0.6535433070866141
          },
          {
            "duration": 0.3488370000000032,
            "durationTicks": 480,
            "midi": 59,
            "name": "B3",
            "ticks": 244800,
            "time": 177.90687,
            "velocity": 0.7952755905511811
          },
          {
            "duration": 0.3488370000000032,
            "durationTicks": 480,
            "midi": 54,
            "name": "F#3",
            "ticks": 245280,
            "time": 178.255707,
            "velocity": 0.7952755905511811
          },
          {
            "duration": 0.3488370000000032,
            "durationTicks": 480,
            "midi": 58,
            "name": "A#3",
            "ticks": 245280,
            "time": 178.255707,
            "velocity": 0.8267716535433071
          },
          {
            "duration": 0.3488370000000032,
            "durationTicks": 480,
            "midi": 54,
            "name": "F#3",
            "ticks": 245760,
            "time": 178.604544,
            "velocity": 0.8582677165354331
          },
          {
            "duration": 0.3488370000000032,
            "durationTicks": 480,
            "midi": 58,
            "name": "A#3",
            "ticks": 245760,
            "time": 178.604544,
            "velocity": 0.8582677165354331
          },
          {
            "duration": 0.3488370000000032,
            "durationTicks": 480,
            "midi": 54,
            "name": "F#3",
            "ticks": 246240,
            "time": 178.953381,
            "velocity": 0.6535433070866141
          },
          {
            "duration": 0.3488370000000032,
            "durationTicks": 480,
            "midi": 58,
            "name": "A#3",
            "ticks": 246240,
            "time": 178.953381,
            "velocity": 0.8267716535433071
          },
          {
            "duration": 0.3488370000000032,
            "durationTicks": 480,
            "midi": 54,
            "name": "F#3",
            "ticks": 246720,
            "time": 179.302218,
            "velocity": 0.8582677165354331
          },
          {
            "duration": 0.3488370000000032,
            "durationTicks": 480,
            "midi": 58,
            "name": "A#3",
            "ticks": 246720,
            "time": 179.302218,
            "velocity": 0.8740157480314961
          },
          {
            "duration": 0.3488370000000032,
            "durationTicks": 480,
            "midi": 54,
            "name": "F#3",
            "ticks": 247200,
            "time": 179.651055,
            "velocity": 0.8582677165354331
          },
          {
            "duration": 0.3488370000000032,
            "durationTicks": 480,
            "midi": 58,
            "name": "A#3",
            "ticks": 247200,
            "time": 179.651055,
            "velocity": 0.9212598425196851
          },
          {
            "duration": 0.34883699999997475,
            "durationTicks": 480,
            "midi": 52,
            "name": "E3",
            "ticks": 247680,
            "time": 179.99989200000002,
            "velocity": 0.7165354330708661
          },
          {
            "duration": 0.34883699999997475,
            "durationTicks": 480,
            "midi": 56,
            "name": "G#3",
            "ticks": 247680,
            "time": 179.99989200000002,
            "velocity": 0.7480314960629921
          },
          {
            "duration": 0.3488370000000032,
            "durationTicks": 480,
            "midi": 52,
            "name": "E3",
            "ticks": 248160,
            "time": 180.348729,
            "velocity": 0.7165354330708661
          },
          {
            "duration": 0.3488370000000032,
            "durationTicks": 480,
            "midi": 56,
            "name": "G#3",
            "ticks": 248160,
            "time": 180.348729,
            "velocity": 0.7480314960629921
          },
          {
            "duration": 0.3488370000000032,
            "durationTicks": 480,
            "midi": 52,
            "name": "E3",
            "ticks": 248640,
            "time": 180.697566,
            "velocity": 0.7165354330708661
          },
          {
            "duration": 0.3488370000000032,
            "durationTicks": 480,
            "midi": 56,
            "name": "G#3",
            "ticks": 248640,
            "time": 180.697566,
            "velocity": 0.7480314960629921
          },
          {
            "duration": 0.3488370000000032,
            "durationTicks": 480,
            "midi": 52,
            "name": "E3",
            "ticks": 249120,
            "time": 181.046403,
            "velocity": 0.7165354330708661
          },
          {
            "duration": 0.3488370000000032,
            "durationTicks": 480,
            "midi": 56,
            "name": "G#3",
            "ticks": 249120,
            "time": 181.046403,
            "velocity": 0.7480314960629921
          },
          {
            "duration": 0.3488370000000032,
            "durationTicks": 480,
            "midi": 52,
            "name": "E3",
            "ticks": 249600,
            "time": 181.39524,
            "velocity": 0.7165354330708661
          },
          {
            "duration": 0.3488370000000032,
            "durationTicks": 480,
            "midi": 56,
            "name": "G#3",
            "ticks": 249600,
            "time": 181.39524,
            "velocity": 0.7480314960629921
          },
          {
            "duration": 0.3488370000000032,
            "durationTicks": 480,
            "midi": 52,
            "name": "E3",
            "ticks": 250080,
            "time": 181.744077,
            "velocity": 0.7165354330708661
          },
          {
            "duration": 0.3488370000000032,
            "durationTicks": 480,
            "midi": 56,
            "name": "G#3",
            "ticks": 250080,
            "time": 181.744077,
            "velocity": 0.7480314960629921
          },
          {
            "duration": 0.3488370000000032,
            "durationTicks": 480,
            "midi": 52,
            "name": "E3",
            "ticks": 250560,
            "time": 182.092914,
            "velocity": 0.7165354330708661
          },
          {
            "duration": 0.3488370000000032,
            "durationTicks": 480,
            "midi": 56,
            "name": "G#3",
            "ticks": 250560,
            "time": 182.092914,
            "velocity": 0.7480314960629921
          },
          {
            "duration": 0.3488370000000032,
            "durationTicks": 480,
            "midi": 52,
            "name": "E3",
            "ticks": 251040,
            "time": 182.441751,
            "velocity": 0.7165354330708661
          },
          {
            "duration": 0.3488370000000032,
            "durationTicks": 480,
            "midi": 56,
            "name": "G#3",
            "ticks": 251040,
            "time": 182.441751,
            "velocity": 0.7480314960629921
          },
          {
            "duration": 0.3488370000000032,
            "durationTicks": 480,
            "midi": 56,
            "name": "G#3",
            "ticks": 251520,
            "time": 182.790588,
            "velocity": 0.7952755905511811
          },
          {
            "duration": 0.3488370000000032,
            "durationTicks": 480,
            "midi": 59,
            "name": "B3",
            "ticks": 251520,
            "time": 182.790588,
            "velocity": 0.6535433070866141
          },
          {
            "duration": 0.34883699999997475,
            "durationTicks": 480,
            "midi": 56,
            "name": "G#3",
            "ticks": 252000,
            "time": 183.13942500000002,
            "velocity": 0.6535433070866141
          },
          {
            "duration": 0.34883699999997475,
            "durationTicks": 480,
            "midi": 59,
            "name": "B3",
            "ticks": 252000,
            "time": 183.13942500000002,
            "velocity": 0.6377952755905512
          },
          {
            "duration": 0.3488370000000032,
            "durationTicks": 480,
            "midi": 56,
            "name": "G#3",
            "ticks": 252480,
            "time": 183.488262,
            "velocity": 0.6535433070866141
          },
          {
            "duration": 0.3488370000000032,
            "durationTicks": 480,
            "midi": 59,
            "name": "B3",
            "ticks": 252480,
            "time": 183.488262,
            "velocity": 0.7952755905511811
          },
          {
            "duration": 0.3488370000000032,
            "durationTicks": 480,
            "midi": 54,
            "name": "F#3",
            "ticks": 252960,
            "time": 183.837099,
            "velocity": 0.7952755905511811
          },
          {
            "duration": 0.3488370000000032,
            "durationTicks": 480,
            "midi": 58,
            "name": "A#3",
            "ticks": 252960,
            "time": 183.837099,
            "velocity": 0.8267716535433071
          },
          {
            "duration": 0.3488370000000032,
            "durationTicks": 480,
            "midi": 54,
            "name": "F#3",
            "ticks": 253440,
            "time": 184.185936,
            "velocity": 0.8582677165354331
          },
          {
            "duration": 0.3488370000000032,
            "durationTicks": 480,
            "midi": 58,
            "name": "A#3",
            "ticks": 253440,
            "time": 184.185936,
            "velocity": 0.8582677165354331
          },
          {
            "duration": 0.3488370000000032,
            "durationTicks": 480,
            "midi": 54,
            "name": "F#3",
            "ticks": 253920,
            "time": 184.534773,
            "velocity": 0.6535433070866141
          },
          {
            "duration": 0.3488370000000032,
            "durationTicks": 480,
            "midi": 58,
            "name": "A#3",
            "ticks": 253920,
            "time": 184.534773,
            "velocity": 0.8267716535433071
          },
          {
            "duration": 0.3488370000000032,
            "durationTicks": 480,
            "midi": 54,
            "name": "F#3",
            "ticks": 254400,
            "time": 184.88361,
            "velocity": 0.8582677165354331
          },
          {
            "duration": 0.3488370000000032,
            "durationTicks": 480,
            "midi": 58,
            "name": "A#3",
            "ticks": 254400,
            "time": 184.88361,
            "velocity": 0.8740157480314961
          },
          {
            "duration": 0.3488370000000032,
            "durationTicks": 480,
            "midi": 54,
            "name": "F#3",
            "ticks": 254880,
            "time": 185.232447,
            "velocity": 0.8582677165354331
          },
          {
            "duration": 0.3488370000000032,
            "durationTicks": 480,
            "midi": 58,
            "name": "A#3",
            "ticks": 254880,
            "time": 185.232447,
            "velocity": 0.9212598425196851
          },
          {
            "duration": 0.3488370000000032,
            "durationTicks": 480,
            "midi": 52,
            "name": "E3",
            "ticks": 255360,
            "time": 185.581284,
            "velocity": 0.7165354330708661
          },
          {
            "duration": 0.3488370000000032,
            "durationTicks": 480,
            "midi": 56,
            "name": "G#3",
            "ticks": 255360,
            "time": 185.581284,
            "velocity": 0.7480314960629921
          },
          {
            "duration": 0.3488370000000032,
            "durationTicks": 480,
            "midi": 52,
            "name": "E3",
            "ticks": 255840,
            "time": 185.930121,
            "velocity": 0.7165354330708661
          },
          {
            "duration": 0.3488370000000032,
            "durationTicks": 480,
            "midi": 56,
            "name": "G#3",
            "ticks": 255840,
            "time": 185.930121,
            "velocity": 0.7480314960629921
          },
          {
            "duration": 0.34883699999997475,
            "durationTicks": 480,
            "midi": 52,
            "name": "E3",
            "ticks": 256320,
            "time": 186.27895800000002,
            "velocity": 0.7165354330708661
          },
          {
            "duration": 0.34883699999997475,
            "durationTicks": 480,
            "midi": 56,
            "name": "G#3",
            "ticks": 256320,
            "time": 186.27895800000002,
            "velocity": 0.7480314960629921
          },
          {
            "duration": 0.3488370000000032,
            "durationTicks": 480,
            "midi": 52,
            "name": "E3",
            "ticks": 256800,
            "time": 186.627795,
            "velocity": 0.7165354330708661
          },
          {
            "duration": 0.3488370000000032,
            "durationTicks": 480,
            "midi": 56,
            "name": "G#3",
            "ticks": 256800,
            "time": 186.627795,
            "velocity": 0.7480314960629921
          },
          {
            "duration": 0.3488370000000032,
            "durationTicks": 480,
            "midi": 52,
            "name": "E3",
            "ticks": 257280,
            "time": 186.976632,
            "velocity": 0.7165354330708661
          },
          {
            "duration": 0.3488370000000032,
            "durationTicks": 480,
            "midi": 56,
            "name": "G#3",
            "ticks": 257280,
            "time": 186.976632,
            "velocity": 0.7480314960629921
          },
          {
            "duration": 0.3488370000000032,
            "durationTicks": 480,
            "midi": 52,
            "name": "E3",
            "ticks": 257760,
            "time": 187.325469,
            "velocity": 0.7165354330708661
          },
          {
            "duration": 0.3488370000000032,
            "durationTicks": 480,
            "midi": 56,
            "name": "G#3",
            "ticks": 257760,
            "time": 187.325469,
            "velocity": 0.7480314960629921
          },
          {
            "duration": 0.3488370000000032,
            "durationTicks": 480,
            "midi": 52,
            "name": "E3",
            "ticks": 258240,
            "time": 187.674306,
            "velocity": 0.7165354330708661
          },
          {
            "duration": 0.3488370000000032,
            "durationTicks": 480,
            "midi": 56,
            "name": "G#3",
            "ticks": 258240,
            "time": 187.674306,
            "velocity": 0.7480314960629921
          },
          {
            "duration": 0.3488370000000032,
            "durationTicks": 480,
            "midi": 52,
            "name": "E3",
            "ticks": 258720,
            "time": 188.023143,
            "velocity": 0.7165354330708661
          },
          {
            "duration": 0.3488370000000032,
            "durationTicks": 480,
            "midi": 56,
            "name": "G#3",
            "ticks": 258720,
            "time": 188.023143,
            "velocity": 0.7480314960629921
          },
          {
            "duration": 0.3488370000000032,
            "durationTicks": 480,
            "midi": 56,
            "name": "G#3",
            "ticks": 259200,
            "time": 188.37198,
            "velocity": 0.7952755905511811
          },
          {
            "duration": 0.3488370000000032,
            "durationTicks": 480,
            "midi": 59,
            "name": "B3",
            "ticks": 259200,
            "time": 188.37198,
            "velocity": 0.6535433070866141
          },
          {
            "duration": 0.3488370000000032,
            "durationTicks": 480,
            "midi": 56,
            "name": "G#3",
            "ticks": 259680,
            "time": 188.720817,
            "velocity": 0.6535433070866141
          },
          {
            "duration": 0.3488370000000032,
            "durationTicks": 480,
            "midi": 59,
            "name": "B3",
            "ticks": 259680,
            "time": 188.720817,
            "velocity": 0.6377952755905512
          },
          {
            "duration": 0.3488370000000032,
            "durationTicks": 480,
            "midi": 56,
            "name": "G#3",
            "ticks": 260160,
            "time": 189.069654,
            "velocity": 0.6535433070866141
          },
          {
            "duration": 0.3488370000000032,
            "durationTicks": 480,
            "midi": 59,
            "name": "B3",
            "ticks": 260160,
            "time": 189.069654,
            "velocity": 0.7952755905511811
          },
          {
            "duration": 0.34883699999997475,
            "durationTicks": 480,
            "midi": 54,
            "name": "F#3",
            "ticks": 260640,
            "time": 189.41849100000002,
            "velocity": 0.7952755905511811
          },
          {
            "duration": 0.34883699999997475,
            "durationTicks": 480,
            "midi": 58,
            "name": "A#3",
            "ticks": 260640,
            "time": 189.41849100000002,
            "velocity": 0.8267716535433071
          },
          {
            "duration": 0.3488370000000032,
            "durationTicks": 480,
            "midi": 54,
            "name": "F#3",
            "ticks": 261120,
            "time": 189.767328,
            "velocity": 0.8582677165354331
          },
          {
            "duration": 0.3488370000000032,
            "durationTicks": 480,
            "midi": 58,
            "name": "A#3",
            "ticks": 261120,
            "time": 189.767328,
            "velocity": 0.8582677165354331
          },
          {
            "duration": 0.3488370000000032,
            "durationTicks": 480,
            "midi": 54,
            "name": "F#3",
            "ticks": 261600,
            "time": 190.116165,
            "velocity": 0.6535433070866141
          },
          {
            "duration": 0.3488370000000032,
            "durationTicks": 480,
            "midi": 58,
            "name": "A#3",
            "ticks": 261600,
            "time": 190.116165,
            "velocity": 0.8267716535433071
          },
          {
            "duration": 0.3488370000000032,
            "durationTicks": 480,
            "midi": 54,
            "name": "F#3",
            "ticks": 262080,
            "time": 190.465002,
            "velocity": 0.8582677165354331
          },
          {
            "duration": 0.3488370000000032,
            "durationTicks": 480,
            "midi": 58,
            "name": "A#3",
            "ticks": 262080,
            "time": 190.465002,
            "velocity": 0.8740157480314961
          },
          {
            "duration": 0.3488370000000032,
            "durationTicks": 480,
            "midi": 54,
            "name": "F#3",
            "ticks": 262560,
            "time": 190.813839,
            "velocity": 0.8582677165354331
          },
          {
            "duration": 0.3488370000000032,
            "durationTicks": 480,
            "midi": 58,
            "name": "A#3",
            "ticks": 262560,
            "time": 190.813839,
            "velocity": 0.9212598425196851
          },
          {
            "duration": 0.6976740000000063,
            "durationTicks": 960,
            "midi": 52,
            "name": "E3",
            "ticks": 263040,
            "time": 191.162676,
            "velocity": 0.7874015748031497
          },
          {
            "duration": 0.6976740000000063,
            "durationTicks": 960,
            "midi": 56,
            "name": "G#3",
            "ticks": 263040,
            "time": 191.162676,
            "velocity": 0.7874015748031497
          },
          {
            "duration": 0.6976740000000063,
            "durationTicks": 960,
            "midi": 52,
            "name": "E3",
            "ticks": 264000,
            "time": 191.86035,
            "velocity": 0.7874015748031497
          },
          {
            "duration": 0.6976740000000063,
            "durationTicks": 960,
            "midi": 56,
            "name": "G#3",
            "ticks": 264000,
            "time": 191.86035,
            "velocity": 0.7874015748031497
          },
          {
            "duration": 0.34883699999997475,
            "durationTicks": 480,
            "midi": 52,
            "name": "E3",
            "ticks": 264960,
            "time": 192.55802400000002,
            "velocity": 0.7874015748031497
          },
          {
            "duration": 0.34883699999997475,
            "durationTicks": 480,
            "midi": 56,
            "name": "G#3",
            "ticks": 264960,
            "time": 192.55802400000002,
            "velocity": 0.7874015748031497
          },
          {
            "duration": 0.3488370000000032,
            "durationTicks": 480,
            "midi": 52,
            "name": "E3",
            "ticks": 265440,
            "time": 192.906861,
            "velocity": 0.7874015748031497
          },
          {
            "duration": 0.3488370000000032,
            "durationTicks": 480,
            "midi": 56,
            "name": "G#3",
            "ticks": 265440,
            "time": 192.906861,
            "velocity": 0.7874015748031497
          },
          {
            "duration": 0.5232555000000048,
            "durationTicks": 720,
            "midi": 52,
            "name": "E3",
            "ticks": 265920,
            "time": 193.255698,
            "velocity": 0.7874015748031497
          },
          {
            "duration": 0.5232555000000048,
            "durationTicks": 720,
            "midi": 56,
            "name": "G#3",
            "ticks": 265920,
            "time": 193.255698,
            "velocity": 0.7874015748031497
          },
          {
            "duration": 0.1744185000000016,
            "durationTicks": 240,
            "midi": 52,
            "name": "E3",
            "ticks": 266640,
            "time": 193.7789535,
            "velocity": 0.7874015748031497
          },
          {
            "duration": 0.1744185000000016,
            "durationTicks": 240,
            "midi": 56,
            "name": "G#3",
            "ticks": 266640,
            "time": 193.7789535,
            "velocity": 0.7874015748031497
          },
          {
            "duration": 2.790695999999997,
            "durationTicks": 3840,
            "midi": 52,
            "name": "E3",
            "ticks": 266880,
            "time": 193.953372,
            "velocity": 0.7874015748031497
          },
          {
            "duration": 2.790695999999997,
            "durationTicks": 3840,
            "midi": 56,
            "name": "G#3",
            "ticks": 266880,
            "time": 193.953372,
            "velocity": 0.7874015748031497
          }
        ]
      },
      {
        "channel": 0,
        "controlChanges": {},
        "pitchBends": [],
        "instrument": {
          "family": "piano",
          "number": 0,
          "name": "acoustic grand piano"
        },
        "name": "untitled",
        "notes": [],
        "endOfTrackTicks": 372480
      },
      {
        "channel": 8,
        "controlChanges": {
          "7": [
            {
              "number": 7,
              "ticks": 0,
              "time": 0,
              "value": 0.8661417322834646
            }
          ],
          "10": [
            {
              "number": 10,
              "ticks": 0,
              "time": 0,
              "value": 0
            }
          ]
        },
        "pitchBends": [],
        "instrument": {
          "family": "guitar",
          "number": 25,
          "name": "acoustic guitar (steel)"
        },
        "name": "",
        "notes": [
          {
            "duration": 0.1744184999999998,
            "durationTicks": 240,
            "midi": 54,
            "name": "F#3",
            "ticks": 17040,
            "time": 12.3837135,
            "velocity": 0.8582677165354331
          },
          {
            "duration": 0.15988362500000086,
            "durationTicks": 220,
            "midi": 59,
            "name": "B3",
            "ticks": 17040,
            "time": 12.3837135,
            "velocity": 0.7952755905511811
          },
          {
            "duration": 0.14534874999999836,
            "durationTicks": 200,
            "midi": 63,
            "name": "D#4",
            "ticks": 17040,
            "time": 12.3837135,
            "velocity": 0.7952755905511811
          },
          {
            "duration": 0.6976739999999992,
            "durationTicks": 960,
            "midi": 59,
            "name": "B3",
            "ticks": 17280,
            "time": 12.558132,
            "velocity": 0.7165354330708661
          },
          {
            "duration": 0.6831391250000003,
            "durationTicks": 940,
            "midi": 63,
            "name": "D#4",
            "ticks": 17280,
            "time": 12.558132,
            "velocity": 0.6299212598425197
          },
          {
            "duration": 0.6686042499999996,
            "durationTicks": 920,
            "midi": 66,
            "name": "F#4",
            "ticks": 17280,
            "time": 12.558132,
            "velocity": 0.6771653543307087
          },
          {
            "duration": 0.3488370000000014,
            "durationTicks": 480,
            "midi": 59,
            "name": "B3",
            "ticks": 18240,
            "time": 13.255806,
            "velocity": 0.6535433070866141
          },
          {
            "duration": 0.33430212500000067,
            "durationTicks": 460,
            "midi": 63,
            "name": "D#4",
            "ticks": 18240,
            "time": 13.255806,
            "velocity": 0.6377952755905512
          },
          {
            "duration": 0.31976724999999995,
            "durationTicks": 440,
            "midi": 66,
            "name": "F#4",
            "ticks": 18240,
            "time": 13.255806,
            "velocity": 0.7480314960629921
          },
          {
            "duration": 1.0465109999999989,
            "durationTicks": 1440,
            "midi": 59,
            "name": "B3",
            "ticks": 18720,
            "time": 13.604643000000001,
            "velocity": 0.6535433070866141
          },
          {
            "duration": 1.031976125,
            "durationTicks": 1420,
            "midi": 63,
            "name": "D#4",
            "ticks": 18720,
            "time": 13.604643000000001,
            "velocity": 0.6377952755905512
          },
          {
            "duration": 1.0174412499999992,
            "durationTicks": 1400,
            "midi": 66,
            "name": "F#4",
            "ticks": 18720,
            "time": 13.604643000000001,
            "velocity": 0.7480314960629921
          },
          {
            "duration": 0.3488369999999996,
            "durationTicks": 480,
            "midi": 59,
            "name": "B3",
            "ticks": 20160,
            "time": 14.651154,
            "velocity": 0.7952755905511811
          },
          {
            "duration": 0.33430212500000067,
            "durationTicks": 460,
            "midi": 63,
            "name": "D#4",
            "ticks": 20160,
            "time": 14.651154,
            "velocity": 0.7952755905511811
          },
          {
            "duration": 0.31976724999999995,
            "durationTicks": 440,
            "midi": 66,
            "name": "F#4",
            "ticks": 20160,
            "time": 14.651154,
            "velocity": 0.7165354330708661
          },
          {
            "duration": 0.1744185000000016,
            "durationTicks": 240,
            "midi": 59,
            "name": "B3",
            "ticks": 20640,
            "time": 14.999991,
            "velocity": 0.7952755905511811
          },
          {
            "duration": 0.15988362500000086,
            "durationTicks": 220,
            "midi": 63,
            "name": "D#4",
            "ticks": 20640,
            "time": 14.999991,
            "velocity": 0.7952755905511811
          },
          {
            "duration": 0.23255799999999915,
            "durationTicks": 320,
            "midi": 66,
            "name": "F#4",
            "ticks": 20640,
            "time": 14.999991,
            "velocity": 0.7165354330708661
          },
          {
            "duration": 0.1744184999999998,
            "durationTicks": 240,
            "midi": 59,
            "name": "B3",
            "ticks": 20880,
            "time": 15.174409500000001,
            "velocity": 0.7952755905511811
          },
          {
            "duration": 0.15988362499999909,
            "durationTicks": 220,
            "midi": 63,
            "name": "D#4",
            "ticks": 20880,
            "time": 15.174409500000001,
            "velocity": 0.7952755905511811
          },
          {
            "duration": 0.14534874999999836,
            "durationTicks": 200,
            "midi": 66,
            "name": "F#4",
            "ticks": 20880,
            "time": 15.174409500000001,
            "velocity": 0.7165354330708661
          },
          {
            "duration": 0.3488369999999996,
            "durationTicks": 480,
            "midi": 54,
            "name": "F#3",
            "ticks": 21120,
            "time": 15.348828000000001,
            "velocity": 0.7480314960629921
          },
          {
            "duration": 0.33430212500000067,
            "durationTicks": 460,
            "midi": 59,
            "name": "B3",
            "ticks": 21120,
            "time": 15.348828000000001,
            "velocity": 0.6535433070866141
          },
          {
            "duration": 0.31976724999999817,
            "durationTicks": 440,
            "midi": 64,
            "name": "E4",
            "ticks": 21120,
            "time": 15.348828000000001,
            "velocity": 0.7322834645669292
          },
          {
            "duration": 0.3488369999999996,
            "durationTicks": 480,
            "midi": 54,
            "name": "F#3",
            "ticks": 21600,
            "time": 15.697665,
            "velocity": 0.7480314960629921
          },
          {
            "duration": 0.33430212500000067,
            "durationTicks": 460,
            "midi": 59,
            "name": "B3",
            "ticks": 21600,
            "time": 15.697665,
            "velocity": 0.6535433070866141
          },
          {
            "duration": 0.31976724999999817,
            "durationTicks": 440,
            "midi": 64,
            "name": "E4",
            "ticks": 21600,
            "time": 15.697665,
            "velocity": 0.7322834645669292
          },
          {
            "duration": 0.3488369999999996,
            "durationTicks": 480,
            "midi": 54,
            "name": "F#3",
            "ticks": 22080,
            "time": 16.046502,
            "velocity": 0.7322834645669292
          },
          {
            "duration": 0.33430212500000067,
            "durationTicks": 460,
            "midi": 59,
            "name": "B3",
            "ticks": 22080,
            "time": 16.046502,
            "velocity": 0.7952755905511811
          },
          {
            "duration": 0.31976724999999817,
            "durationTicks": 440,
            "midi": 64,
            "name": "E4",
            "ticks": 22080,
            "time": 16.046502,
            "velocity": 0.8110236220472441
          },
          {
            "duration": 1.0465109999999989,
            "durationTicks": 1440,
            "midi": 54,
            "name": "F#3",
            "ticks": 22560,
            "time": 16.395339,
            "velocity": 0.7322834645669292
          },
          {
            "duration": 1.031976125,
            "durationTicks": 1420,
            "midi": 59,
            "name": "B3",
            "ticks": 22560,
            "time": 16.395339,
            "velocity": 0.7952755905511811
          },
          {
            "duration": 1.017441250000001,
            "durationTicks": 1400,
            "midi": 64,
            "name": "E4",
            "ticks": 22560,
            "time": 16.395339,
            "velocity": 0.8110236220472441
          },
          {
            "duration": 0.3488370000000032,
            "durationTicks": 480,
            "midi": 54,
            "name": "F#3",
            "ticks": 24000,
            "time": 17.44185,
            "velocity": 0.6929133858267716
          },
          {
            "duration": 0.3343021250000042,
            "durationTicks": 460,
            "midi": 59,
            "name": "B3",
            "ticks": 24000,
            "time": 17.44185,
            "velocity": 0.7165354330708661
          },
          {
            "duration": 0.3197672500000017,
            "durationTicks": 440,
            "midi": 64,
            "name": "E4",
            "ticks": 24000,
            "time": 17.44185,
            "velocity": 0.5984251968503937
          },
          {
            "duration": 0.17441849999999803,
            "durationTicks": 240,
            "midi": 54,
            "name": "F#3",
            "ticks": 24480,
            "time": 17.790687000000002,
            "velocity": 0.6929133858267716
          },
          {
            "duration": 0.15988362499999909,
            "durationTicks": 220,
            "midi": 59,
            "name": "B3",
            "ticks": 24480,
            "time": 17.790687000000002,
            "velocity": 0.7165354330708661
          },
          {
            "duration": 0.14534874999999658,
            "durationTicks": 200,
            "midi": 64,
            "name": "E4",
            "ticks": 24480,
            "time": 17.790687000000002,
            "velocity": 0.5984251968503937
          },
          {
            "duration": 0.1744185000000016,
            "durationTicks": 240,
            "midi": 54,
            "name": "F#3",
            "ticks": 24720,
            "time": 17.9651055,
            "velocity": 0.6929133858267716
          },
          {
            "duration": 0.15988362500000264,
            "durationTicks": 220,
            "midi": 59,
            "name": "B3",
            "ticks": 24720,
            "time": 17.9651055,
            "velocity": 0.7165354330708661
          },
          {
            "duration": 0.14534875000000014,
            "durationTicks": 200,
            "midi": 64,
            "name": "E4",
            "ticks": 24720,
            "time": 17.9651055,
            "velocity": 0.5984251968503937
          },
          {
            "duration": 0.6976739999999992,
            "durationTicks": 960,
            "midi": 54,
            "name": "F#3",
            "ticks": 24960,
            "time": 18.139524,
            "velocity": 0.6771653543307087
          },
          {
            "duration": 0.6831391250000003,
            "durationTicks": 940,
            "midi": 61,
            "name": "C#4",
            "ticks": 24960,
            "time": 18.139524,
            "velocity": 0.6299212598425197
          },
          {
            "duration": 0.6686042499999978,
            "durationTicks": 920,
            "midi": 66,
            "name": "F#4",
            "ticks": 24960,
            "time": 18.139524,
            "velocity": 0.7165354330708661
          },
          {
            "duration": 0.3488369999999996,
            "durationTicks": 480,
            "midi": 54,
            "name": "F#3",
            "ticks": 25920,
            "time": 18.837198,
            "velocity": 0.7480314960629921
          },
          {
            "duration": 0.33430212500000067,
            "durationTicks": 460,
            "midi": 61,
            "name": "C#4",
            "ticks": 25920,
            "time": 18.837198,
            "velocity": 0.6377952755905512
          },
          {
            "duration": 0.31976724999999817,
            "durationTicks": 440,
            "midi": 66,
            "name": "F#4",
            "ticks": 25920,
            "time": 18.837198,
            "velocity": 0.6535433070866141
          },
          {
            "duration": 1.0465109999999989,
            "durationTicks": 1440,
            "midi": 54,
            "name": "F#3",
            "ticks": 26400,
            "time": 19.186035,
            "velocity": 0.7480314960629921
          },
          {
            "duration": 1.031976125,
            "durationTicks": 1420,
            "midi": 61,
            "name": "C#4",
            "ticks": 26400,
            "time": 19.186035,
            "velocity": 0.6377952755905512
          },
          {
            "duration": 1.017441250000001,
            "durationTicks": 1400,
            "midi": 66,
            "name": "F#4",
            "ticks": 26400,
            "time": 19.186035,
            "velocity": 0.6535433070866141
          },
          {
            "duration": 0.3488369999999996,
            "durationTicks": 480,
            "midi": 54,
            "name": "F#3",
            "ticks": 27840,
            "time": 20.232546,
            "velocity": 0.7165354330708661
          },
          {
            "duration": 0.33430212500000067,
            "durationTicks": 460,
            "midi": 61,
            "name": "C#4",
            "ticks": 27840,
            "time": 20.232546,
            "velocity": 0.7952755905511811
          },
          {
            "duration": 0.3197672500000017,
            "durationTicks": 440,
            "midi": 66,
            "name": "F#4",
            "ticks": 27840,
            "time": 20.232546,
            "velocity": 0.7952755905511811
          },
          {
            "duration": 0.1744185000000016,
            "durationTicks": 240,
            "midi": 54,
            "name": "F#3",
            "ticks": 28320,
            "time": 20.581383,
            "velocity": 0.7165354330708661
          },
          {
            "duration": 0.15988362500000264,
            "durationTicks": 220,
            "midi": 61,
            "name": "C#4",
            "ticks": 28320,
            "time": 20.581383,
            "velocity": 0.7952755905511811
          },
          {
            "duration": 0.14534875000000014,
            "durationTicks": 200,
            "midi": 66,
            "name": "F#4",
            "ticks": 28320,
            "time": 20.581383,
            "velocity": 0.7952755905511811
          },
          {
            "duration": 0.1744185000000016,
            "durationTicks": 240,
            "midi": 54,
            "name": "F#3",
            "ticks": 28560,
            "time": 20.7558015,
            "velocity": 0.7165354330708661
          },
          {
            "duration": 0.15988362499999909,
            "durationTicks": 220,
            "midi": 61,
            "name": "C#4",
            "ticks": 28560,
            "time": 20.7558015,
            "velocity": 0.7952755905511811
          },
          {
            "duration": 0.14534875000000014,
            "durationTicks": 200,
            "midi": 66,
            "name": "F#4",
            "ticks": 28560,
            "time": 20.7558015,
            "velocity": 0.7952755905511811
          },
          {
            "duration": 0.33430212500000067,
            "durationTicks": 460,
            "midi": 54,
            "name": "F#3",
            "ticks": 28800,
            "time": 20.930220000000002,
            "velocity": 0.7480314960629921
          },
          {
            "duration": 0.3488369999999996,
            "durationTicks": 480,
            "midi": 54,
            "name": "F#3",
            "ticks": 28800,
            "time": 20.930220000000002,
            "velocity": 0.7165354330708661
          },
          {
            "duration": 0.31976724999999817,
            "durationTicks": 440,
            "midi": 61,
            "name": "C#4",
            "ticks": 28800,
            "time": 20.930220000000002,
            "velocity": 0.7952755905511811
          },
          {
            "duration": 0.6540693749999988,
            "durationTicks": 900,
            "midi": 66,
            "name": "F#4",
            "ticks": 28800,
            "time": 20.930220000000002,
            "velocity": 0.7165354330708661
          },
          {
            "duration": 0.3488369999999996,
            "durationTicks": 480,
            "midi": 54,
            "name": "F#3",
            "ticks": 29280,
            "time": 21.279057,
            "velocity": 0.7480314960629921
          },
          {
            "duration": 0.33430212500000067,
            "durationTicks": 460,
            "midi": 61,
            "name": "C#4",
            "ticks": 29280,
            "time": 21.279057,
            "velocity": 0.6535433070866141
          },
          {
            "duration": 0.3488369999999996,
            "durationTicks": 480,
            "midi": 54,
            "name": "F#3",
            "ticks": 29760,
            "time": 21.627894,
            "velocity": 0.7322834645669292
          },
          {
            "duration": 0.33430212500000067,
            "durationTicks": 460,
            "midi": 61,
            "name": "C#4",
            "ticks": 29760,
            "time": 21.627894,
            "velocity": 0.7952755905511811
          },
          {
            "duration": 0.31976724999999817,
            "durationTicks": 440,
            "midi": 66,
            "name": "F#4",
            "ticks": 29760,
            "time": 21.627894,
            "velocity": 0.6535433070866141
          },
          {
            "duration": 1.0465109999999989,
            "durationTicks": 1440,
            "midi": 54,
            "name": "F#3",
            "ticks": 30240,
            "time": 21.976731,
            "velocity": 0.7322834645669292
          },
          {
            "duration": 1.0319761249999964,
            "durationTicks": 1420,
            "midi": 61,
            "name": "C#4",
            "ticks": 30240,
            "time": 21.976731,
            "velocity": 0.7952755905511811
          },
          {
            "duration": 1.017441250000001,
            "durationTicks": 1400,
            "midi": 66,
            "name": "F#4",
            "ticks": 30240,
            "time": 21.976731,
            "velocity": 0.6535433070866141
          },
          {
            "duration": 0.3488369999999996,
            "durationTicks": 480,
            "midi": 54,
            "name": "F#3",
            "ticks": 31680,
            "time": 23.023242,
            "velocity": 0.6929133858267716
          },
          {
            "duration": 0.33430212500000067,
            "durationTicks": 460,
            "midi": 61,
            "name": "C#4",
            "ticks": 31680,
            "time": 23.023242,
            "velocity": 0.7165354330708661
          },
          {
            "duration": 0.3197672500000017,
            "durationTicks": 440,
            "midi": 66,
            "name": "F#4",
            "ticks": 31680,
            "time": 23.023242,
            "velocity": 0.7952755905511811
          },
          {
            "duration": 0.1744185000000016,
            "durationTicks": 240,
            "midi": 54,
            "name": "F#3",
            "ticks": 32160,
            "time": 23.372079,
            "velocity": 0.6929133858267716
          },
          {
            "duration": 0.15988362499999909,
            "durationTicks": 220,
            "midi": 61,
            "name": "C#4",
            "ticks": 32160,
            "time": 23.372079,
            "velocity": 0.7165354330708661
          },
          {
            "duration": 0.1453487500000037,
            "durationTicks": 200,
            "midi": 66,
            "name": "F#4",
            "ticks": 32160,
            "time": 23.372079,
            "velocity": 0.7952755905511811
          },
          {
            "duration": 0.17441849999999803,
            "durationTicks": 240,
            "midi": 54,
            "name": "F#3",
            "ticks": 32400,
            "time": 23.5464975,
            "velocity": 0.6929133858267716
          },
          {
            "duration": 0.15988362499999909,
            "durationTicks": 220,
            "midi": 61,
            "name": "C#4",
            "ticks": 32400,
            "time": 23.5464975,
            "velocity": 0.7165354330708661
          },
          {
            "duration": 0.14534875000000014,
            "durationTicks": 200,
            "midi": 66,
            "name": "F#4",
            "ticks": 32400,
            "time": 23.5464975,
            "velocity": 0.7952755905511811
          },
          {
            "duration": 0.6976740000000028,
            "durationTicks": 960,
            "midi": 52,
            "name": "E3",
            "ticks": 32640,
            "time": 23.720916,
            "velocity": 0.6299212598425197
          },
          {
            "duration": 0.6831391250000003,
            "durationTicks": 940,
            "midi": 59,
            "name": "B3",
            "ticks": 32640,
            "time": 23.720916,
            "velocity": 0.7165354330708661
          },
          {
            "duration": 0.6686042500000049,
            "durationTicks": 920,
            "midi": 68,
            "name": "G#4",
            "ticks": 32640,
            "time": 23.720916,
            "velocity": 0.6771653543307087
          },
          {
            "duration": 0.3488369999999996,
            "durationTicks": 480,
            "midi": 52,
            "name": "E3",
            "ticks": 33600,
            "time": 24.418590000000002,
            "velocity": 0.6377952755905512
          },
          {
            "duration": 0.3343021249999971,
            "durationTicks": 460,
            "midi": 59,
            "name": "B3",
            "ticks": 33600,
            "time": 24.418590000000002,
            "velocity": 0.6535433070866141
          },
          {
            "duration": 0.3197672500000017,
            "durationTicks": 440,
            "midi": 68,
            "name": "G#4",
            "ticks": 33600,
            "time": 24.418590000000002,
            "velocity": 0.7480314960629921
          },
          {
            "duration": 1.0465109999999989,
            "durationTicks": 1440,
            "midi": 52,
            "name": "E3",
            "ticks": 34080,
            "time": 24.767427,
            "velocity": 0.6377952755905512
          },
          {
            "duration": 1.0319761249999964,
            "durationTicks": 1420,
            "midi": 59,
            "name": "B3",
            "ticks": 34080,
            "time": 24.767427,
            "velocity": 0.6535433070866141
          },
          {
            "duration": 1.017441250000001,
            "durationTicks": 1400,
            "midi": 68,
            "name": "G#4",
            "ticks": 34080,
            "time": 24.767427,
            "velocity": 0.7480314960629921
          },
          {
            "duration": 0.3488369999999996,
            "durationTicks": 480,
            "midi": 52,
            "name": "E3",
            "ticks": 35520,
            "time": 25.813938,
            "velocity": 0.7952755905511811
          },
          {
            "duration": 0.3343021249999971,
            "durationTicks": 460,
            "midi": 59,
            "name": "B3",
            "ticks": 35520,
            "time": 25.813938,
            "velocity": 0.7952755905511811
          },
          {
            "duration": 0.3197672500000017,
            "durationTicks": 440,
            "midi": 68,
            "name": "G#4",
            "ticks": 35520,
            "time": 25.813938,
            "velocity": 0.7165354330708661
          },
          {
            "duration": 0.1744185000000016,
            "durationTicks": 240,
            "midi": 52,
            "name": "E3",
            "ticks": 36000,
            "time": 26.162775,
            "velocity": 0.7952755905511811
          },
          {
            "duration": 0.15988362499999909,
            "durationTicks": 220,
            "midi": 59,
            "name": "B3",
            "ticks": 36000,
            "time": 26.162775,
            "velocity": 0.7952755905511811
          },
          {
            "duration": 0.23255800000000093,
            "durationTicks": 320,
            "midi": 68,
            "name": "G#4",
            "ticks": 36000,
            "time": 26.162775,
            "velocity": 0.7165354330708661
          },
          {
            "duration": 0.17441849999999803,
            "durationTicks": 240,
            "midi": 52,
            "name": "E3",
            "ticks": 36240,
            "time": 26.3371935,
            "velocity": 0.7952755905511811
          },
          {
            "duration": 0.15988362499999909,
            "durationTicks": 220,
            "midi": 59,
            "name": "B3",
            "ticks": 36240,
            "time": 26.3371935,
            "velocity": 0.7952755905511811
          },
          {
            "duration": 0.14534875000000014,
            "durationTicks": 200,
            "midi": 68,
            "name": "G#4",
            "ticks": 36240,
            "time": 26.3371935,
            "velocity": 0.7165354330708661
          },
          {
            "duration": 0.3488369999999996,
            "durationTicks": 480,
            "midi": 52,
            "name": "E3",
            "ticks": 36480,
            "time": 26.511612,
            "velocity": 0.7480314960629921
          },
          {
            "duration": 0.33430212500000067,
            "durationTicks": 460,
            "midi": 56,
            "name": "G#3",
            "ticks": 36480,
            "time": 26.511612,
            "velocity": 0.7322834645669292
          },
          {
            "duration": 0.3197672500000017,
            "durationTicks": 440,
            "midi": 59,
            "name": "B3",
            "ticks": 36480,
            "time": 26.511612,
            "velocity": 0.6535433070866141
          },
          {
            "duration": 0.3488370000000032,
            "durationTicks": 480,
            "midi": 52,
            "name": "E3",
            "ticks": 36960,
            "time": 26.860449,
            "velocity": 0.7480314960629921
          },
          {
            "duration": 0.33430212500000067,
            "durationTicks": 460,
            "midi": 56,
            "name": "G#3",
            "ticks": 36960,
            "time": 26.860449,
            "velocity": 0.7322834645669292
          },
          {
            "duration": 0.3197672500000017,
            "durationTicks": 440,
            "midi": 59,
            "name": "B3",
            "ticks": 36960,
            "time": 26.860449,
            "velocity": 0.6535433070866141
          },
          {
            "duration": 0.3488369999999996,
            "durationTicks": 480,
            "midi": 52,
            "name": "E3",
            "ticks": 37440,
            "time": 27.209286000000002,
            "velocity": 0.7322834645669292
          },
          {
            "duration": 0.3343021249999971,
            "durationTicks": 460,
            "midi": 56,
            "name": "G#3",
            "ticks": 37440,
            "time": 27.209286000000002,
            "velocity": 0.8110236220472441
          },
          {
            "duration": 0.3197672500000017,
            "durationTicks": 440,
            "midi": 59,
            "name": "B3",
            "ticks": 37440,
            "time": 27.209286000000002,
            "velocity": 0.7952755905511811
          },
          {
            "duration": 1.0465109999999989,
            "durationTicks": 1440,
            "midi": 52,
            "name": "E3",
            "ticks": 37920,
            "time": 27.558123000000002,
            "velocity": 0.7322834645669292
          },
          {
            "duration": 1.0319761249999964,
            "durationTicks": 1420,
            "midi": 56,
            "name": "G#3",
            "ticks": 37920,
            "time": 27.558123000000002,
            "velocity": 0.8110236220472441
          },
          {
            "duration": 1.017441250000001,
            "durationTicks": 1400,
            "midi": 59,
            "name": "B3",
            "ticks": 37920,
            "time": 27.558123000000002,
            "velocity": 0.7952755905511811
          },
          {
            "duration": 0.3488369999999996,
            "durationTicks": 480,
            "midi": 52,
            "name": "E3",
            "ticks": 39360,
            "time": 28.604634,
            "velocity": 0.6929133858267716
          },
          {
            "duration": 0.3343021249999971,
            "durationTicks": 460,
            "midi": 56,
            "name": "G#3",
            "ticks": 39360,
            "time": 28.604634,
            "velocity": 0.5984251968503937
          },
          {
            "duration": 0.3197672500000017,
            "durationTicks": 440,
            "midi": 59,
            "name": "B3",
            "ticks": 39360,
            "time": 28.604634,
            "velocity": 0.7165354330708661
          },
          {
            "duration": 0.1744185000000016,
            "durationTicks": 240,
            "midi": 52,
            "name": "E3",
            "ticks": 39840,
            "time": 28.953471,
            "velocity": 0.6929133858267716
          },
          {
            "duration": 0.15988362499999909,
            "durationTicks": 220,
            "midi": 56,
            "name": "G#3",
            "ticks": 39840,
            "time": 28.953471,
            "velocity": 0.5984251968503937
          },
          {
            "duration": 0.1453487500000037,
            "durationTicks": 200,
            "midi": 59,
            "name": "B3",
            "ticks": 39840,
            "time": 28.953471,
            "velocity": 0.7165354330708661
          },
          {
            "duration": 0.17441849999999803,
            "durationTicks": 240,
            "midi": 52,
            "name": "E3",
            "ticks": 40080,
            "time": 29.127889500000002,
            "velocity": 0.6929133858267716
          },
          {
            "duration": 0.15988362499999553,
            "durationTicks": 220,
            "midi": 56,
            "name": "G#3",
            "ticks": 40080,
            "time": 29.127889500000002,
            "velocity": 0.5984251968503937
          },
          {
            "duration": 0.14534875000000014,
            "durationTicks": 200,
            "midi": 59,
            "name": "B3",
            "ticks": 40080,
            "time": 29.127889500000002,
            "velocity": 0.7165354330708661
          },
          {
            "duration": 0.6976739999999992,
            "durationTicks": 960,
            "midi": 59,
            "name": "B3",
            "ticks": 40320,
            "time": 29.302308,
            "velocity": 0.7165354330708661
          },
          {
            "duration": 0.6831391250000003,
            "durationTicks": 940,
            "midi": 63,
            "name": "D#4",
            "ticks": 40320,
            "time": 29.302308,
            "velocity": 0.6299212598425197
          },
          {
            "duration": 0.6686042500000013,
            "durationTicks": 920,
            "midi": 66,
            "name": "F#4",
            "ticks": 40320,
            "time": 29.302308,
            "velocity": 0.6771653543307087
          },
          {
            "duration": 0.3488370000000032,
            "durationTicks": 480,
            "midi": 59,
            "name": "B3",
            "ticks": 41280,
            "time": 29.999982,
            "velocity": 0.6535433070866141
          },
          {
            "duration": 0.33430212500000067,
            "durationTicks": 460,
            "midi": 63,
            "name": "D#4",
            "ticks": 41280,
            "time": 29.999982,
            "velocity": 0.6377952755905512
          },
          {
            "duration": 0.3197672500000017,
            "durationTicks": 440,
            "midi": 66,
            "name": "F#4",
            "ticks": 41280,
            "time": 29.999982,
            "velocity": 0.7480314960629921
          },
          {
            "duration": 1.0465109999999989,
            "durationTicks": 1440,
            "midi": 59,
            "name": "B3",
            "ticks": 41760,
            "time": 30.348819000000002,
            "velocity": 0.6535433070866141
          },
          {
            "duration": 1.0319761249999964,
            "durationTicks": 1420,
            "midi": 63,
            "name": "D#4",
            "ticks": 41760,
            "time": 30.348819000000002,
            "velocity": 0.6377952755905512
          },
          {
            "duration": 1.017441250000001,
            "durationTicks": 1400,
            "midi": 66,
            "name": "F#4",
            "ticks": 41760,
            "time": 30.348819000000002,
            "velocity": 0.7480314960629921
          },
          {
            "duration": 0.3488369999999996,
            "durationTicks": 480,
            "midi": 59,
            "name": "B3",
            "ticks": 43200,
            "time": 31.39533,
            "velocity": 0.7952755905511811
          },
          {
            "duration": 0.3343021249999971,
            "durationTicks": 460,
            "midi": 63,
            "name": "D#4",
            "ticks": 43200,
            "time": 31.39533,
            "velocity": 0.7952755905511811
          },
          {
            "duration": 0.3197672500000017,
            "durationTicks": 440,
            "midi": 66,
            "name": "F#4",
            "ticks": 43200,
            "time": 31.39533,
            "velocity": 0.7165354330708661
          },
          {
            "duration": 0.1744185000000016,
            "durationTicks": 240,
            "midi": 59,
            "name": "B3",
            "ticks": 43680,
            "time": 31.744167,
            "velocity": 0.7952755905511811
          },
          {
            "duration": 0.15988362499999909,
            "durationTicks": 220,
            "midi": 63,
            "name": "D#4",
            "ticks": 43680,
            "time": 31.744167,
            "velocity": 0.7952755905511811
          },
          {
            "duration": 0.23255800000000093,
            "durationTicks": 320,
            "midi": 66,
            "name": "F#4",
            "ticks": 43680,
            "time": 31.744167,
            "velocity": 0.7165354330708661
          },
          {
            "duration": 0.17441849999999803,
            "durationTicks": 240,
            "midi": 59,
            "name": "B3",
            "ticks": 43920,
            "time": 31.918585500000002,
            "velocity": 0.7952755905511811
          },
          {
            "duration": 0.15988362499999553,
            "durationTicks": 220,
            "midi": 63,
            "name": "D#4",
            "ticks": 43920,
            "time": 31.918585500000002,
            "velocity": 0.7952755905511811
          },
          {
            "duration": 0.14534875000000014,
            "durationTicks": 200,
            "midi": 66,
            "name": "F#4",
            "ticks": 43920,
            "time": 31.918585500000002,
            "velocity": 0.7165354330708661
          },
          {
            "duration": 0.3488370000000032,
            "durationTicks": 480,
            "midi": 54,
            "name": "F#3",
            "ticks": 44160,
            "time": 32.093004,
            "velocity": 0.7480314960629921
          },
          {
            "duration": 0.33430212500000067,
            "durationTicks": 460,
            "midi": 59,
            "name": "B3",
            "ticks": 44160,
            "time": 32.093004,
            "velocity": 0.6535433070866141
          },
          {
            "duration": 0.3197672500000053,
            "durationTicks": 440,
            "midi": 64,
            "name": "E4",
            "ticks": 44160,
            "time": 32.093004,
            "velocity": 0.7322834645669292
          },
          {
            "duration": 0.34883699999999607,
            "durationTicks": 480,
            "midi": 54,
            "name": "F#3",
            "ticks": 44640,
            "time": 32.441841000000004,
            "velocity": 0.7480314960629921
          },
          {
            "duration": 0.33430212499999357,
            "durationTicks": 460,
            "midi": 59,
            "name": "B3",
            "ticks": 44640,
            "time": 32.441841000000004,
            "velocity": 0.6535433070866141
          },
          {
            "duration": 0.31976724999999817,
            "durationTicks": 440,
            "midi": 64,
            "name": "E4",
            "ticks": 44640,
            "time": 32.441841000000004,
            "velocity": 0.7322834645669292
          },
          {
            "duration": 0.3488370000000032,
            "durationTicks": 480,
            "midi": 54,
            "name": "F#3",
            "ticks": 45120,
            "time": 32.790678,
            "velocity": 0.7322834645669292
          },
          {
            "duration": 0.33430212500000067,
            "durationTicks": 460,
            "midi": 59,
            "name": "B3",
            "ticks": 45120,
            "time": 32.790678,
            "velocity": 0.7952755905511811
          },
          {
            "duration": 0.3197672500000053,
            "durationTicks": 440,
            "midi": 64,
            "name": "E4",
            "ticks": 45120,
            "time": 32.790678,
            "velocity": 0.8110236220472441
          },
          {
            "duration": 1.0465109999999953,
            "durationTicks": 1440,
            "midi": 54,
            "name": "F#3",
            "ticks": 45600,
            "time": 33.139515,
            "velocity": 0.7322834645669292
          },
          {
            "duration": 1.0319761249999928,
            "durationTicks": 1420,
            "midi": 59,
            "name": "B3",
            "ticks": 45600,
            "time": 33.139515,
            "velocity": 0.7952755905511811
          },
          {
            "duration": 1.0174412499999974,
            "durationTicks": 1400,
            "midi": 64,
            "name": "E4",
            "ticks": 45600,
            "time": 33.139515,
            "velocity": 0.8110236220472441
          },
          {
            "duration": 0.3488370000000032,
            "durationTicks": 480,
            "midi": 54,
            "name": "F#3",
            "ticks": 47040,
            "time": 34.186026,
            "velocity": 0.6929133858267716
          },
          {
            "duration": 0.33430212500000067,
            "durationTicks": 460,
            "midi": 59,
            "name": "B3",
            "ticks": 47040,
            "time": 34.186026,
            "velocity": 0.7165354330708661
          },
          {
            "duration": 0.3197672500000053,
            "durationTicks": 440,
            "midi": 64,
            "name": "E4",
            "ticks": 47040,
            "time": 34.186026,
            "velocity": 0.5984251968503937
          },
          {
            "duration": 0.1744185000000016,
            "durationTicks": 240,
            "midi": 54,
            "name": "F#3",
            "ticks": 47520,
            "time": 34.534863,
            "velocity": 0.6929133858267716
          },
          {
            "duration": 0.15988362499999909,
            "durationTicks": 220,
            "midi": 59,
            "name": "B3",
            "ticks": 47520,
            "time": 34.534863,
            "velocity": 0.7165354330708661
          },
          {
            "duration": 0.1453487500000037,
            "durationTicks": 200,
            "midi": 64,
            "name": "E4",
            "ticks": 47520,
            "time": 34.534863,
            "velocity": 0.5984251968503937
          },
          {
            "duration": 0.17441849999999448,
            "durationTicks": 240,
            "midi": 54,
            "name": "F#3",
            "ticks": 47760,
            "time": 34.7092815,
            "velocity": 0.6929133858267716
          },
          {
            "duration": 0.15988362499999909,
            "durationTicks": 220,
            "midi": 59,
            "name": "B3",
            "ticks": 47760,
            "time": 34.7092815,
            "velocity": 0.7165354330708661
          },
          {
            "duration": 0.14534874999999658,
            "durationTicks": 200,
            "midi": 64,
            "name": "E4",
            "ticks": 47760,
            "time": 34.7092815,
            "velocity": 0.5984251968503937
          },
          {
            "duration": 1.3953480000000056,
            "durationTicks": 1920,
            "midi": 51,
            "name": "D#3",
            "ticks": 48000,
            "time": 34.8837,
            "velocity": 0.47244094488188976
          },
          {
            "duration": 1.3662782500000077,
            "durationTicks": 1880,
            "midi": 54,
            "name": "F#3",
            "ticks": 48000,
            "time": 34.8837,
            "velocity": 0.4566929133858268
          },
          {
            "duration": 1.3372085000000027,
            "durationTicks": 1840,
            "midi": 59,
            "name": "B3",
            "ticks": 48120,
            "time": 34.97090925,
            "velocity": 0.7165354330708661
          },
          {
            "duration": 1.3081387500000048,
            "durationTicks": 1800,
            "midi": 63,
            "name": "D#4",
            "ticks": 48120,
            "time": 34.97090925,
            "velocity": 0.8740157480314961
          },
          {
            "duration": 1.5261618749999997,
            "durationTicks": 2100,
            "midi": 54,
            "name": "F#3",
            "ticks": 70920,
            "time": 51.54066675,
            "velocity": 0.4566929133858268
          },
          {
            "duration": 1.4825572499999993,
            "durationTicks": 2040,
            "midi": 59,
            "name": "B3",
            "ticks": 70920,
            "time": 51.54066675,
            "velocity": 0.7165354330708661
          },
          {
            "duration": 1.3953479999999985,
            "durationTicks": 1920,
            "midi": 63,
            "name": "D#4",
            "ticks": 71040,
            "time": 51.627876,
            "velocity": 0.8740157480314961
          },
          {
            "duration": 1.5697665,
            "durationTicks": 2160,
            "midi": 58,
            "name": "A#3",
            "ticks": 78480,
            "time": 57.0348495,
            "velocity": 0.7322834645669292
          },
          {
            "duration": 1.4825572499999993,
            "durationTicks": 2040,
            "midi": 61,
            "name": "C#4",
            "ticks": 78600,
            "time": 57.12205875,
            "velocity": 0.7480314960629921
          },
          {
            "duration": 1.380813125000003,
            "durationTicks": 1900,
            "midi": 66,
            "name": "F#4",
            "ticks": 78720,
            "time": 57.209268,
            "velocity": 0.7952755905511811
          },
          {
            "duration": 1.9186034999999961,
            "durationTicks": 2640,
            "midi": 59,
            "name": "B3",
            "ticks": 85680,
            "time": 62.267404500000005,
            "velocity": 0.5354330708661418
          },
          {
            "duration": 1.8313942500000024,
            "durationTicks": 2520,
            "midi": 63,
            "name": "D#4",
            "ticks": 85800,
            "time": 62.35461375,
            "velocity": 0.7322834645669292
          },
          {
            "duration": 1.787789625000002,
            "durationTicks": 2460,
            "midi": 68,
            "name": "G#4",
            "ticks": 85800,
            "time": 62.35461375,
            "velocity": 0.8110236220472441
          },
          {
            "duration": 1.7441849999999874,
            "durationTicks": 2400,
            "midi": 59,
            "name": "B3",
            "ticks": 93600,
            "time": 68.02321500000001,
            "velocity": 0.6377952755905512
          },
          {
            "duration": 1.6569757499999866,
            "durationTicks": 2280,
            "midi": 63,
            "name": "D#4",
            "ticks": 93720,
            "time": 68.11042425000001,
            "velocity": 0.7165354330708661
          },
          {
            "duration": 1.5697665,
            "durationTicks": 2160,
            "midi": 71,
            "name": "B4",
            "ticks": 93840,
            "time": 68.1976335,
            "velocity": 0.7952755905511811
          },
          {
            "duration": 1.5697665,
            "durationTicks": 2160,
            "midi": 58,
            "name": "A#3",
            "ticks": 101520,
            "time": 73.7790255,
            "velocity": 0.7322834645669292
          },
          {
            "duration": 1.4825572499999993,
            "durationTicks": 2040,
            "midi": 61,
            "name": "C#4",
            "ticks": 101640,
            "time": 73.86623475,
            "velocity": 0.7480314960629921
          },
          {
            "duration": 1.380813125000003,
            "durationTicks": 1900,
            "midi": 66,
            "name": "F#4",
            "ticks": 101760,
            "time": 73.953444,
            "velocity": 0.7952755905511811
          },
          {
            "duration": 1.918603499999989,
            "durationTicks": 2640,
            "midi": 59,
            "name": "B3",
            "ticks": 108720,
            "time": 79.01158050000001,
            "velocity": 0.5354330708661418
          },
          {
            "duration": 1.8313942499999882,
            "durationTicks": 2520,
            "midi": 63,
            "name": "D#4",
            "ticks": 108840,
            "time": 79.09878975000001,
            "velocity": 0.7322834645669292
          },
          {
            "duration": 1.7877896249999878,
            "durationTicks": 2460,
            "midi": 68,
            "name": "G#4",
            "ticks": 108840,
            "time": 79.09878975000001,
            "velocity": 0.8110236220472441
          },
          {
            "duration": 0.6976739999999921,
            "durationTicks": 960,
            "midi": 59,
            "name": "B3",
            "ticks": 155520,
            "time": 113.023188,
            "velocity": 0.7165354330708661
          },
          {
            "duration": 0.6831391249999967,
            "durationTicks": 940,
            "midi": 63,
            "name": "D#4",
            "ticks": 155520,
            "time": 113.023188,
            "velocity": 0.6299212598425197
          },
          {
            "duration": 0.6686042500000013,
            "durationTicks": 920,
            "midi": 66,
            "name": "F#4",
            "ticks": 155520,
            "time": 113.023188,
            "velocity": 0.6771653543307087
          },
          {
            "duration": 0.3488370000000032,
            "durationTicks": 480,
            "midi": 59,
            "name": "B3",
            "ticks": 156480,
            "time": 113.720862,
            "velocity": 0.6535433070866141
          },
          {
            "duration": 0.33430212499999357,
            "durationTicks": 460,
            "midi": 63,
            "name": "D#4",
            "ticks": 156480,
            "time": 113.720862,
            "velocity": 0.6377952755905512
          },
          {
            "duration": 0.3197672500000124,
            "durationTicks": 440,
            "midi": 66,
            "name": "F#4",
            "ticks": 156480,
            "time": 113.720862,
            "velocity": 0.7480314960629921
          },
          {
            "duration": 1.0465110000000095,
            "durationTicks": 1440,
            "midi": 59,
            "name": "B3",
            "ticks": 156960,
            "time": 114.069699,
            "velocity": 0.6535433070866141
          },
          {
            "duration": 1.031976125,
            "durationTicks": 1420,
            "midi": 63,
            "name": "D#4",
            "ticks": 156960,
            "time": 114.069699,
            "velocity": 0.6377952755905512
          },
          {
            "duration": 1.0174412500000045,
            "durationTicks": 1400,
            "midi": 66,
            "name": "F#4",
            "ticks": 156960,
            "time": 114.069699,
            "velocity": 0.7480314960629921
          },
          {
            "duration": 0.34883699999998896,
            "durationTicks": 480,
            "midi": 59,
            "name": "B3",
            "ticks": 158400,
            "time": 115.11621000000001,
            "velocity": 0.7952755905511811
          },
          {
            "duration": 0.33430212499999357,
            "durationTicks": 460,
            "midi": 63,
            "name": "D#4",
            "ticks": 158400,
            "time": 115.11621000000001,
            "velocity": 0.7952755905511811
          },
          {
            "duration": 0.31976724999999817,
            "durationTicks": 440,
            "midi": 66,
            "name": "F#4",
            "ticks": 158400,
            "time": 115.11621000000001,
            "velocity": 0.7165354330708661
          },
          {
            "duration": 0.1744185000000016,
            "durationTicks": 240,
            "midi": 59,
            "name": "B3",
            "ticks": 158880,
            "time": 115.465047,
            "velocity": 0.7952755905511811
          },
          {
            "duration": 0.15988362499999198,
            "durationTicks": 220,
            "midi": 63,
            "name": "D#4",
            "ticks": 158880,
            "time": 115.465047,
            "velocity": 0.7952755905511811
          },
          {
            "duration": 0.2325580000000116,
            "durationTicks": 320,
            "midi": 66,
            "name": "F#4",
            "ticks": 158880,
            "time": 115.465047,
            "velocity": 0.7165354330708661
          },
          {
            "duration": 0.1744185000000016,
            "durationTicks": 240,
            "midi": 59,
            "name": "B3",
            "ticks": 159120,
            "time": 115.6394655,
            "velocity": 0.7952755905511811
          },
          {
            "duration": 0.15988362499999198,
            "durationTicks": 220,
            "midi": 63,
            "name": "D#4",
            "ticks": 159120,
            "time": 115.6394655,
            "velocity": 0.7952755905511811
          },
          {
            "duration": 0.1453487500000108,
            "durationTicks": 200,
            "midi": 66,
            "name": "F#4",
            "ticks": 159120,
            "time": 115.6394655,
            "velocity": 0.7165354330708661
          },
          {
            "duration": 0.3488370000000032,
            "durationTicks": 480,
            "midi": 54,
            "name": "F#3",
            "ticks": 159360,
            "time": 115.813884,
            "velocity": 0.7480314960629921
          },
          {
            "duration": 0.33430212499999357,
            "durationTicks": 460,
            "midi": 59,
            "name": "B3",
            "ticks": 159360,
            "time": 115.813884,
            "velocity": 0.6535433070866141
          },
          {
            "duration": 0.3197672500000124,
            "durationTicks": 440,
            "midi": 64,
            "name": "E4",
            "ticks": 159360,
            "time": 115.813884,
            "velocity": 0.7322834645669292
          },
          {
            "duration": 0.3488370000000032,
            "durationTicks": 480,
            "midi": 54,
            "name": "F#3",
            "ticks": 159840,
            "time": 116.162721,
            "velocity": 0.7480314960629921
          },
          {
            "duration": 0.33430212499999357,
            "durationTicks": 460,
            "midi": 59,
            "name": "B3",
            "ticks": 159840,
            "time": 116.162721,
            "velocity": 0.6535433070866141
          },
          {
            "duration": 0.31976724999999817,
            "durationTicks": 440,
            "midi": 64,
            "name": "E4",
            "ticks": 159840,
            "time": 116.162721,
            "velocity": 0.7322834645669292
          },
          {
            "duration": 0.34883699999998896,
            "durationTicks": 480,
            "midi": 54,
            "name": "F#3",
            "ticks": 160320,
            "time": 116.51155800000001,
            "velocity": 0.7322834645669292
          },
          {
            "duration": 0.33430212499999357,
            "durationTicks": 460,
            "midi": 59,
            "name": "B3",
            "ticks": 160320,
            "time": 116.51155800000001,
            "velocity": 0.7952755905511811
          },
          {
            "duration": 0.31976724999999817,
            "durationTicks": 440,
            "midi": 64,
            "name": "E4",
            "ticks": 160320,
            "time": 116.51155800000001,
            "velocity": 0.8110236220472441
          },
          {
            "duration": 1.0465110000000095,
            "durationTicks": 1440,
            "midi": 54,
            "name": "F#3",
            "ticks": 160800,
            "time": 116.860395,
            "velocity": 0.7322834645669292
          },
          {
            "duration": 1.031976125,
            "durationTicks": 1420,
            "midi": 59,
            "name": "B3",
            "ticks": 160800,
            "time": 116.860395,
            "velocity": 0.7952755905511811
          },
          {
            "duration": 1.0174412500000187,
            "durationTicks": 1400,
            "midi": 64,
            "name": "E4",
            "ticks": 160800,
            "time": 116.860395,
            "velocity": 0.8110236220472441
          },
          {
            "duration": 0.3488370000000032,
            "durationTicks": 480,
            "midi": 54,
            "name": "F#3",
            "ticks": 162240,
            "time": 117.906906,
            "velocity": 0.6929133858267716
          },
          {
            "duration": 0.33430212499999357,
            "durationTicks": 460,
            "midi": 59,
            "name": "B3",
            "ticks": 162240,
            "time": 117.906906,
            "velocity": 0.7165354330708661
          },
          {
            "duration": 0.31976724999999817,
            "durationTicks": 440,
            "midi": 64,
            "name": "E4",
            "ticks": 162240,
            "time": 117.906906,
            "velocity": 0.5984251968503937
          },
          {
            "duration": 0.17441849999998738,
            "durationTicks": 240,
            "midi": 54,
            "name": "F#3",
            "ticks": 162720,
            "time": 118.25574300000001,
            "velocity": 0.6929133858267716
          },
          {
            "duration": 0.15988362499999198,
            "durationTicks": 220,
            "midi": 59,
            "name": "B3",
            "ticks": 162720,
            "time": 118.25574300000001,
            "velocity": 0.7165354330708661
          },
          {
            "duration": 0.14534874999999658,
            "durationTicks": 200,
            "midi": 64,
            "name": "E4",
            "ticks": 162720,
            "time": 118.25574300000001,
            "velocity": 0.5984251968503937
          },
          {
            "duration": 0.1744185000000016,
            "durationTicks": 240,
            "midi": 54,
            "name": "F#3",
            "ticks": 162960,
            "time": 118.4301615,
            "velocity": 0.6929133858267716
          },
          {
            "duration": 0.1598836250000062,
            "durationTicks": 220,
            "midi": 59,
            "name": "B3",
            "ticks": 162960,
            "time": 118.4301615,
            "velocity": 0.7165354330708661
          },
          {
            "duration": 0.1453487500000108,
            "durationTicks": 200,
            "midi": 64,
            "name": "E4",
            "ticks": 162960,
            "time": 118.4301615,
            "velocity": 0.5984251968503937
          },
          {
            "duration": 0.6976740000000063,
            "durationTicks": 960,
            "midi": 54,
            "name": "F#3",
            "ticks": 163200,
            "time": 118.60458,
            "velocity": 0.6771653543307087
          },
          {
            "duration": 0.6831391249999967,
            "durationTicks": 940,
            "midi": 61,
            "name": "C#4",
            "ticks": 163200,
            "time": 118.60458,
            "velocity": 0.6299212598425197
          },
          {
            "duration": 0.6686042500000156,
            "durationTicks": 920,
            "midi": 66,
            "name": "F#4",
            "ticks": 163200,
            "time": 118.60458,
            "velocity": 0.7165354330708661
          },
          {
            "duration": 0.3488370000000032,
            "durationTicks": 480,
            "midi": 54,
            "name": "F#3",
            "ticks": 164160,
            "time": 119.302254,
            "velocity": 0.7480314960629921
          },
          {
            "duration": 0.33430212499999357,
            "durationTicks": 460,
            "midi": 61,
            "name": "C#4",
            "ticks": 164160,
            "time": 119.302254,
            "velocity": 0.6377952755905512
          },
          {
            "duration": 0.31976724999999817,
            "durationTicks": 440,
            "midi": 66,
            "name": "F#4",
            "ticks": 164160,
            "time": 119.302254,
            "velocity": 0.6535433070866141
          },
          {
            "duration": 1.0465109999999953,
            "durationTicks": 1440,
            "midi": 54,
            "name": "F#3",
            "ticks": 164640,
            "time": 119.65109100000001,
            "velocity": 0.7480314960629921
          },
          {
            "duration": 1.0319761249999857,
            "durationTicks": 1420,
            "midi": 61,
            "name": "C#4",
            "ticks": 164640,
            "time": 119.65109100000001,
            "velocity": 0.6377952755905512
          },
          {
            "duration": 1.0174412500000045,
            "durationTicks": 1400,
            "midi": 66,
            "name": "F#4",
            "ticks": 164640,
            "time": 119.65109100000001,
            "velocity": 0.6535433070866141
          },
          {
            "duration": 0.3488370000000032,
            "durationTicks": 480,
            "midi": 54,
            "name": "F#3",
            "ticks": 166080,
            "time": 120.697602,
            "velocity": 0.7165354330708661
          },
          {
            "duration": 0.33430212499999357,
            "durationTicks": 460,
            "midi": 61,
            "name": "C#4",
            "ticks": 166080,
            "time": 120.697602,
            "velocity": 0.7952755905511811
          },
          {
            "duration": 0.3197672500000124,
            "durationTicks": 440,
            "midi": 66,
            "name": "F#4",
            "ticks": 166080,
            "time": 120.697602,
            "velocity": 0.7952755905511811
          },
          {
            "duration": 0.1744185000000016,
            "durationTicks": 240,
            "midi": 54,
            "name": "F#3",
            "ticks": 166560,
            "time": 121.046439,
            "velocity": 0.7165354330708661
          },
          {
            "duration": 0.15988362499999198,
            "durationTicks": 220,
            "midi": 61,
            "name": "C#4",
            "ticks": 166560,
            "time": 121.046439,
            "velocity": 0.7952755905511811
          },
          {
            "duration": 0.14534874999999658,
            "durationTicks": 200,
            "midi": 66,
            "name": "F#4",
            "ticks": 166560,
            "time": 121.046439,
            "velocity": 0.7952755905511811
          },
          {
            "duration": 0.1744185000000016,
            "durationTicks": 240,
            "midi": 54,
            "name": "F#3",
            "ticks": 166800,
            "time": 121.22085750000001,
            "velocity": 0.7165354330708661
          },
          {
            "duration": 0.15988362499999198,
            "durationTicks": 220,
            "midi": 61,
            "name": "C#4",
            "ticks": 166800,
            "time": 121.22085750000001,
            "velocity": 0.7952755905511811
          },
          {
            "duration": 0.14534874999999658,
            "durationTicks": 200,
            "midi": 66,
            "name": "F#4",
            "ticks": 166800,
            "time": 121.22085750000001,
            "velocity": 0.7952755905511811
          },
          {
            "duration": 0.33430212499999357,
            "durationTicks": 460,
            "midi": 54,
            "name": "F#3",
            "ticks": 167040,
            "time": 121.39527600000001,
            "velocity": 0.7480314960629921
          },
          {
            "duration": 0.34883699999998896,
            "durationTicks": 480,
            "midi": 54,
            "name": "F#3",
            "ticks": 167040,
            "time": 121.39527600000001,
            "velocity": 0.7165354330708661
          },
          {
            "duration": 0.31976724999999817,
            "durationTicks": 440,
            "midi": 61,
            "name": "C#4",
            "ticks": 167040,
            "time": 121.39527600000001,
            "velocity": 0.7952755905511811
          },
          {
            "duration": 0.6540693749999917,
            "durationTicks": 900,
            "midi": 66,
            "name": "F#4",
            "ticks": 167040,
            "time": 121.39527600000001,
            "velocity": 0.7165354330708661
          },
          {
            "duration": 0.3488370000000032,
            "durationTicks": 480,
            "midi": 54,
            "name": "F#3",
            "ticks": 167520,
            "time": 121.744113,
            "velocity": 0.7480314960629921
          },
          {
            "duration": 0.33430212499999357,
            "durationTicks": 460,
            "midi": 61,
            "name": "C#4",
            "ticks": 167520,
            "time": 121.744113,
            "velocity": 0.6535433070866141
          },
          {
            "duration": 0.3488370000000032,
            "durationTicks": 480,
            "midi": 54,
            "name": "F#3",
            "ticks": 168000,
            "time": 122.09295,
            "velocity": 0.7322834645669292
          },
          {
            "duration": 0.33430212499999357,
            "durationTicks": 460,
            "midi": 61,
            "name": "C#4",
            "ticks": 168000,
            "time": 122.09295,
            "velocity": 0.7952755905511811
          },
          {
            "duration": 0.3197672500000124,
            "durationTicks": 440,
            "midi": 66,
            "name": "F#4",
            "ticks": 168000,
            "time": 122.09295,
            "velocity": 0.6535433070866141
          },
          {
            "duration": 1.0465109999999953,
            "durationTicks": 1440,
            "midi": 54,
            "name": "F#3",
            "ticks": 168480,
            "time": 122.441787,
            "velocity": 0.7322834645669292
          },
          {
            "duration": 1.0319761249999857,
            "durationTicks": 1420,
            "midi": 61,
            "name": "C#4",
            "ticks": 168480,
            "time": 122.441787,
            "velocity": 0.7952755905511811
          },
          {
            "duration": 1.0174412500000045,
            "durationTicks": 1400,
            "midi": 66,
            "name": "F#4",
            "ticks": 168480,
            "time": 122.441787,
            "velocity": 0.6535433070866141
          },
          {
            "duration": 0.3488370000000032,
            "durationTicks": 480,
            "midi": 54,
            "name": "F#3",
            "ticks": 169920,
            "time": 123.488298,
            "velocity": 0.6929133858267716
          },
          {
            "duration": 0.33430212499999357,
            "durationTicks": 460,
            "midi": 61,
            "name": "C#4",
            "ticks": 169920,
            "time": 123.488298,
            "velocity": 0.7165354330708661
          },
          {
            "duration": 0.3197672500000124,
            "durationTicks": 440,
            "midi": 66,
            "name": "F#4",
            "ticks": 169920,
            "time": 123.488298,
            "velocity": 0.7952755905511811
          },
          {
            "duration": 0.1744185000000016,
            "durationTicks": 240,
            "midi": 54,
            "name": "F#3",
            "ticks": 170400,
            "time": 123.837135,
            "velocity": 0.6929133858267716
          },
          {
            "duration": 0.15988362499999198,
            "durationTicks": 220,
            "midi": 61,
            "name": "C#4",
            "ticks": 170400,
            "time": 123.837135,
            "velocity": 0.7165354330708661
          },
          {
            "duration": 0.1453487500000108,
            "durationTicks": 200,
            "midi": 66,
            "name": "F#4",
            "ticks": 170400,
            "time": 123.837135,
            "velocity": 0.7952755905511811
          },
          {
            "duration": 0.1744185000000016,
            "durationTicks": 240,
            "midi": 54,
            "name": "F#3",
            "ticks": 170640,
            "time": 124.0115535,
            "velocity": 0.6929133858267716
          },
          {
            "duration": 0.15988362499999198,
            "durationTicks": 220,
            "midi": 61,
            "name": "C#4",
            "ticks": 170640,
            "time": 124.0115535,
            "velocity": 0.7165354330708661
          },
          {
            "duration": 0.1453487500000108,
            "durationTicks": 200,
            "midi": 66,
            "name": "F#4",
            "ticks": 170640,
            "time": 124.0115535,
            "velocity": 0.7952755905511811
          },
          {
            "duration": 0.6976739999999921,
            "durationTicks": 960,
            "midi": 52,
            "name": "E3",
            "ticks": 170880,
            "time": 124.185972,
            "velocity": 0.6299212598425197
          },
          {
            "duration": 0.6831391249999825,
            "durationTicks": 940,
            "midi": 59,
            "name": "B3",
            "ticks": 170880,
            "time": 124.185972,
            "velocity": 0.7165354330708661
          },
          {
            "duration": 0.6686042500000013,
            "durationTicks": 920,
            "midi": 68,
            "name": "G#4",
            "ticks": 170880,
            "time": 124.185972,
            "velocity": 0.6771653543307087
          },
          {
            "duration": 0.3488370000000032,
            "durationTicks": 480,
            "midi": 52,
            "name": "E3",
            "ticks": 171840,
            "time": 124.883646,
            "velocity": 0.6377952755905512
          },
          {
            "duration": 0.33430212499999357,
            "durationTicks": 460,
            "midi": 59,
            "name": "B3",
            "ticks": 171840,
            "time": 124.883646,
            "velocity": 0.6535433070866141
          },
          {
            "duration": 0.3197672500000124,
            "durationTicks": 440,
            "midi": 68,
            "name": "G#4",
            "ticks": 171840,
            "time": 124.883646,
            "velocity": 0.7480314960629921
          },
          {
            "duration": 1.0465109999999953,
            "durationTicks": 1440,
            "midi": 52,
            "name": "E3",
            "ticks": 172320,
            "time": 125.232483,
            "velocity": 0.6377952755905512
          },
          {
            "duration": 1.031976125,
            "durationTicks": 1420,
            "midi": 59,
            "name": "B3",
            "ticks": 172320,
            "time": 125.232483,
            "velocity": 0.6535433070866141
          },
          {
            "duration": 1.0174412500000045,
            "durationTicks": 1400,
            "midi": 68,
            "name": "G#4",
            "ticks": 172320,
            "time": 125.232483,
            "velocity": 0.7480314960629921
          },
          {
            "duration": 0.3488370000000032,
            "durationTicks": 480,
            "midi": 52,
            "name": "E3",
            "ticks": 173760,
            "time": 126.278994,
            "velocity": 0.7952755905511811
          },
          {
            "duration": 0.33430212499999357,
            "durationTicks": 460,
            "midi": 59,
            "name": "B3",
            "ticks": 173760,
            "time": 126.278994,
            "velocity": 0.7952755905511811
          },
          {
            "duration": 0.3197672500000124,
            "durationTicks": 440,
            "midi": 68,
            "name": "G#4",
            "ticks": 173760,
            "time": 126.278994,
            "velocity": 0.7165354330708661
          },
          {
            "duration": 0.1744185000000016,
            "durationTicks": 240,
            "midi": 52,
            "name": "E3",
            "ticks": 174240,
            "time": 126.627831,
            "velocity": 0.7952755905511811
          },
          {
            "duration": 0.15988362499999198,
            "durationTicks": 220,
            "midi": 59,
            "name": "B3",
            "ticks": 174240,
            "time": 126.627831,
            "velocity": 0.7952755905511811
          },
          {
            "duration": 0.2325580000000116,
            "durationTicks": 320,
            "midi": 68,
            "name": "G#4",
            "ticks": 174240,
            "time": 126.627831,
            "velocity": 0.7165354330708661
          },
          {
            "duration": 0.1744185000000016,
            "durationTicks": 240,
            "midi": 52,
            "name": "E3",
            "ticks": 174480,
            "time": 126.8022495,
            "velocity": 0.7952755905511811
          },
          {
            "duration": 0.15988362499999198,
            "durationTicks": 220,
            "midi": 59,
            "name": "B3",
            "ticks": 174480,
            "time": 126.8022495,
            "velocity": 0.7952755905511811
          },
          {
            "duration": 0.1453487500000108,
            "durationTicks": 200,
            "midi": 68,
            "name": "G#4",
            "ticks": 174480,
            "time": 126.8022495,
            "velocity": 0.7165354330708661
          },
          {
            "duration": 0.3488370000000032,
            "durationTicks": 480,
            "midi": 52,
            "name": "E3",
            "ticks": 174720,
            "time": 126.976668,
            "velocity": 0.7480314960629921
          },
          {
            "duration": 0.33430212499999357,
            "durationTicks": 460,
            "midi": 56,
            "name": "G#3",
            "ticks": 174720,
            "time": 126.976668,
            "velocity": 0.7322834645669292
          },
          {
            "duration": 0.3197672500000124,
            "durationTicks": 440,
            "midi": 59,
            "name": "B3",
            "ticks": 174720,
            "time": 126.976668,
            "velocity": 0.6535433070866141
          },
          {
            "duration": 0.3488370000000032,
            "durationTicks": 480,
            "midi": 52,
            "name": "E3",
            "ticks": 175200,
            "time": 127.325505,
            "velocity": 0.7480314960629921
          },
          {
            "duration": 0.33430212499999357,
            "durationTicks": 460,
            "midi": 56,
            "name": "G#3",
            "ticks": 175200,
            "time": 127.325505,
            "velocity": 0.7322834645669292
          },
          {
            "duration": 0.31976724999999817,
            "durationTicks": 440,
            "midi": 59,
            "name": "B3",
            "ticks": 175200,
            "time": 127.325505,
            "velocity": 0.6535433070866141
          },
          {
            "duration": 0.34883699999998896,
            "durationTicks": 480,
            "midi": 52,
            "name": "E3",
            "ticks": 175680,
            "time": 127.67434200000001,
            "velocity": 0.7322834645669292
          },
          {
            "duration": 0.33430212499997936,
            "durationTicks": 460,
            "midi": 56,
            "name": "G#3",
            "ticks": 175680,
            "time": 127.67434200000001,
            "velocity": 0.8110236220472441
          },
          {
            "duration": 0.31976724999999817,
            "durationTicks": 440,
            "midi": 59,
            "name": "B3",
            "ticks": 175680,
            "time": 127.67434200000001,
            "velocity": 0.7952755905511811
          },
          {
            "duration": 1.0465110000000095,
            "durationTicks": 1440,
            "midi": 52,
            "name": "E3",
            "ticks": 176160,
            "time": 128.023179,
            "velocity": 0.7322834645669292
          },
          {
            "duration": 1.031976125,
            "durationTicks": 1420,
            "midi": 56,
            "name": "G#3",
            "ticks": 176160,
            "time": 128.023179,
            "velocity": 0.8110236220472441
          },
          {
            "duration": 1.0174412500000187,
            "durationTicks": 1400,
            "midi": 59,
            "name": "B3",
            "ticks": 176160,
            "time": 128.023179,
            "velocity": 0.7952755905511811
          },
          {
            "duration": 0.3488370000000032,
            "durationTicks": 480,
            "midi": 52,
            "name": "E3",
            "ticks": 177600,
            "time": 129.06969,
            "velocity": 0.6929133858267716
          },
          {
            "duration": 0.33430212499999357,
            "durationTicks": 460,
            "midi": 56,
            "name": "G#3",
            "ticks": 177600,
            "time": 129.06969,
            "velocity": 0.5984251968503937
          },
          {
            "duration": 0.3197672500000124,
            "durationTicks": 440,
            "midi": 59,
            "name": "B3",
            "ticks": 177600,
            "time": 129.06969,
            "velocity": 0.7165354330708661
          },
          {
            "duration": 0.1744185000000016,
            "durationTicks": 240,
            "midi": 52,
            "name": "E3",
            "ticks": 178080,
            "time": 129.418527,
            "velocity": 0.6929133858267716
          },
          {
            "duration": 0.15988362499999198,
            "durationTicks": 220,
            "midi": 56,
            "name": "G#3",
            "ticks": 178080,
            "time": 129.418527,
            "velocity": 0.5984251968503937
          },
          {
            "duration": 0.1453487500000108,
            "durationTicks": 200,
            "midi": 59,
            "name": "B3",
            "ticks": 178080,
            "time": 129.418527,
            "velocity": 0.7165354330708661
          },
          {
            "duration": 0.1744185000000016,
            "durationTicks": 240,
            "midi": 52,
            "name": "E3",
            "ticks": 178320,
            "time": 129.5929455,
            "velocity": 0.6929133858267716
          },
          {
            "duration": 0.15988362499999198,
            "durationTicks": 220,
            "midi": 56,
            "name": "G#3",
            "ticks": 178320,
            "time": 129.5929455,
            "velocity": 0.5984251968503937
          },
          {
            "duration": 0.14534874999998237,
            "durationTicks": 200,
            "midi": 59,
            "name": "B3",
            "ticks": 178320,
            "time": 129.5929455,
            "velocity": 0.7165354330708661
          },
          {
            "duration": 0.6976739999999779,
            "durationTicks": 960,
            "midi": 59,
            "name": "B3",
            "ticks": 178560,
            "time": 129.76736400000001,
            "velocity": 0.7165354330708661
          },
          {
            "duration": 0.6831391249999683,
            "durationTicks": 940,
            "midi": 63,
            "name": "D#4",
            "ticks": 178560,
            "time": 129.76736400000001,
            "velocity": 0.6299212598425197
          },
          {
            "duration": 0.6686042499999871,
            "durationTicks": 920,
            "midi": 66,
            "name": "F#4",
            "ticks": 178560,
            "time": 129.76736400000001,
            "velocity": 0.6771653543307087
          },
          {
            "duration": 0.3488370000000032,
            "durationTicks": 480,
            "midi": 59,
            "name": "B3",
            "ticks": 179520,
            "time": 130.465038,
            "velocity": 0.6535433070866141
          },
          {
            "duration": 0.33430212499999357,
            "durationTicks": 460,
            "midi": 63,
            "name": "D#4",
            "ticks": 179520,
            "time": 130.465038,
            "velocity": 0.6377952755905512
          },
          {
            "duration": 0.3197672500000124,
            "durationTicks": 440,
            "midi": 66,
            "name": "F#4",
            "ticks": 179520,
            "time": 130.465038,
            "velocity": 0.7480314960629921
          },
          {
            "duration": 1.0465110000000095,
            "durationTicks": 1440,
            "midi": 59,
            "name": "B3",
            "ticks": 180000,
            "time": 130.813875,
            "velocity": 0.6535433070866141
          },
          {
            "duration": 1.031976125,
            "durationTicks": 1420,
            "midi": 63,
            "name": "D#4",
            "ticks": 180000,
            "time": 130.813875,
            "velocity": 0.6377952755905512
          },
          {
            "duration": 1.0174412500000187,
            "durationTicks": 1400,
            "midi": 66,
            "name": "F#4",
            "ticks": 180000,
            "time": 130.813875,
            "velocity": 0.7480314960629921
          },
          {
            "duration": 0.3488370000000032,
            "durationTicks": 480,
            "midi": 59,
            "name": "B3",
            "ticks": 181440,
            "time": 131.860386,
            "velocity": 0.7952755905511811
          },
          {
            "duration": 0.33430212499999357,
            "durationTicks": 460,
            "midi": 63,
            "name": "D#4",
            "ticks": 181440,
            "time": 131.860386,
            "velocity": 0.7952755905511811
          },
          {
            "duration": 0.3197672500000124,
            "durationTicks": 440,
            "midi": 66,
            "name": "F#4",
            "ticks": 181440,
            "time": 131.860386,
            "velocity": 0.7165354330708661
          },
          {
            "duration": 0.1744185000000016,
            "durationTicks": 240,
            "midi": 59,
            "name": "B3",
            "ticks": 181920,
            "time": 132.209223,
            "velocity": 0.7952755905511811
          },
          {
            "duration": 0.15988362499999198,
            "durationTicks": 220,
            "midi": 63,
            "name": "D#4",
            "ticks": 181920,
            "time": 132.209223,
            "velocity": 0.7952755905511811
          },
          {
            "duration": 0.2325580000000116,
            "durationTicks": 320,
            "midi": 66,
            "name": "F#4",
            "ticks": 181920,
            "time": 132.209223,
            "velocity": 0.7165354330708661
          },
          {
            "duration": 0.1744185000000016,
            "durationTicks": 240,
            "midi": 59,
            "name": "B3",
            "ticks": 182160,
            "time": 132.3836415,
            "velocity": 0.7952755905511811
          },
          {
            "duration": 0.15988362499999198,
            "durationTicks": 220,
            "midi": 63,
            "name": "D#4",
            "ticks": 182160,
            "time": 132.3836415,
            "velocity": 0.7952755905511811
          },
          {
            "duration": 0.1453487500000108,
            "durationTicks": 200,
            "midi": 66,
            "name": "F#4",
            "ticks": 182160,
            "time": 132.3836415,
            "velocity": 0.7165354330708661
          },
          {
            "duration": 0.3488370000000032,
            "durationTicks": 480,
            "midi": 54,
            "name": "F#3",
            "ticks": 182400,
            "time": 132.55806,
            "velocity": 0.7480314960629921
          },
          {
            "duration": 0.33430212499999357,
            "durationTicks": 460,
            "midi": 59,
            "name": "B3",
            "ticks": 182400,
            "time": 132.55806,
            "velocity": 0.6535433070866141
          },
          {
            "duration": 0.31976724999998396,
            "durationTicks": 440,
            "midi": 64,
            "name": "E4",
            "ticks": 182400,
            "time": 132.55806,
            "velocity": 0.7322834645669292
          },
          {
            "duration": 0.34883699999997475,
            "durationTicks": 480,
            "midi": 54,
            "name": "F#3",
            "ticks": 182880,
            "time": 132.90689700000001,
            "velocity": 0.7480314960629921
          },
          {
            "duration": 0.33430212499999357,
            "durationTicks": 460,
            "midi": 59,
            "name": "B3",
            "ticks": 182880,
            "time": 132.90689700000001,
            "velocity": 0.6535433070866141
          },
          {
            "duration": 0.31976724999998396,
            "durationTicks": 440,
            "midi": 64,
            "name": "E4",
            "ticks": 182880,
            "time": 132.90689700000001,
            "velocity": 0.7322834645669292
          },
          {
            "duration": 0.3488370000000032,
            "durationTicks": 480,
            "midi": 54,
            "name": "F#3",
            "ticks": 183360,
            "time": 133.255734,
            "velocity": 0.7322834645669292
          },
          {
            "duration": 0.33430212499999357,
            "durationTicks": 460,
            "midi": 59,
            "name": "B3",
            "ticks": 183360,
            "time": 133.255734,
            "velocity": 0.7952755905511811
          },
          {
            "duration": 0.3197672500000124,
            "durationTicks": 440,
            "midi": 64,
            "name": "E4",
            "ticks": 183360,
            "time": 133.255734,
            "velocity": 0.8110236220472441
          },
          {
            "duration": 1.0465110000000095,
            "durationTicks": 1440,
            "midi": 54,
            "name": "F#3",
            "ticks": 183840,
            "time": 133.604571,
            "velocity": 0.7322834645669292
          },
          {
            "duration": 1.031976125,
            "durationTicks": 1420,
            "midi": 59,
            "name": "B3",
            "ticks": 183840,
            "time": 133.604571,
            "velocity": 0.7952755905511811
          },
          {
            "duration": 1.0174412500000187,
            "durationTicks": 1400,
            "midi": 64,
            "name": "E4",
            "ticks": 183840,
            "time": 133.604571,
            "velocity": 0.8110236220472441
          },
          {
            "duration": 0.3488370000000032,
            "durationTicks": 480,
            "midi": 54,
            "name": "F#3",
            "ticks": 185280,
            "time": 134.651082,
            "velocity": 0.6929133858267716
          },
          {
            "duration": 0.33430212499999357,
            "durationTicks": 460,
            "midi": 59,
            "name": "B3",
            "ticks": 185280,
            "time": 134.651082,
            "velocity": 0.7165354330708661
          },
          {
            "duration": 0.3197672500000124,
            "durationTicks": 440,
            "midi": 64,
            "name": "E4",
            "ticks": 185280,
            "time": 134.651082,
            "velocity": 0.5984251968503937
          },
          {
            "duration": 0.1744185000000016,
            "durationTicks": 240,
            "midi": 54,
            "name": "F#3",
            "ticks": 185760,
            "time": 134.999919,
            "velocity": 0.6929133858267716
          },
          {
            "duration": 0.15988362499999198,
            "durationTicks": 220,
            "midi": 59,
            "name": "B3",
            "ticks": 185760,
            "time": 134.999919,
            "velocity": 0.7165354330708661
          },
          {
            "duration": 0.1453487500000108,
            "durationTicks": 200,
            "midi": 64,
            "name": "E4",
            "ticks": 185760,
            "time": 134.999919,
            "velocity": 0.5984251968503937
          },
          {
            "duration": 0.1744185000000016,
            "durationTicks": 240,
            "midi": 54,
            "name": "F#3",
            "ticks": 186000,
            "time": 135.1743375,
            "velocity": 0.6929133858267716
          },
          {
            "duration": 0.15988362499999198,
            "durationTicks": 220,
            "midi": 59,
            "name": "B3",
            "ticks": 186000,
            "time": 135.1743375,
            "velocity": 0.7165354330708661
          },
          {
            "duration": 0.1453487500000108,
            "durationTicks": 200,
            "midi": 64,
            "name": "E4",
            "ticks": 186000,
            "time": 135.1743375,
            "velocity": 0.5984251968503937
          },
          {
            "duration": 1.3953479999999843,
            "durationTicks": 1920,
            "midi": 51,
            "name": "D#3",
            "ticks": 186240,
            "time": 135.348756,
            "velocity": 0.47244094488188976
          },
          {
            "duration": 1.3662782499999935,
            "durationTicks": 1880,
            "midi": 54,
            "name": "F#3",
            "ticks": 186240,
            "time": 135.348756,
            "velocity": 0.4566929133858268
          },
          {
            "duration": 1.3372084999999743,
            "durationTicks": 1840,
            "midi": 59,
            "name": "B3",
            "ticks": 186360,
            "time": 135.43596525,
            "velocity": 0.7165354330708661
          },
          {
            "duration": 1.3081387499999835,
            "durationTicks": 1800,
            "midi": 63,
            "name": "D#4",
            "ticks": 186360,
            "time": 135.43596525,
            "velocity": 0.8740157480314961
          },
          {
            "duration": 1.5261618750000139,
            "durationTicks": 2100,
            "midi": 54,
            "name": "F#3",
            "ticks": 209160,
            "time": 152.00572275,
            "velocity": 0.4566929133858268
          },
          {
            "duration": 1.4825572500000135,
            "durationTicks": 2040,
            "midi": 59,
            "name": "B3",
            "ticks": 209160,
            "time": 152.00572275,
            "velocity": 0.7165354330708661
          },
          {
            "duration": 1.3953480000000127,
            "durationTicks": 1920,
            "midi": 63,
            "name": "D#4",
            "ticks": 209280,
            "time": 152.092932,
            "velocity": 0.8740157480314961
          },
          {
            "duration": 1.5697664999999859,
            "durationTicks": 2160,
            "midi": 58,
            "name": "A#3",
            "ticks": 216720,
            "time": 157.4999055,
            "velocity": 0.7322834645669292
          },
          {
            "duration": 1.482557249999985,
            "durationTicks": 2040,
            "midi": 61,
            "name": "C#4",
            "ticks": 216840,
            "time": 157.58711475,
            "velocity": 0.7480314960629921
          },
          {
            "duration": 1.3808131249999747,
            "durationTicks": 1900,
            "midi": 66,
            "name": "F#4",
            "ticks": 216960,
            "time": 157.674324,
            "velocity": 0.7952755905511811
          },
          {
            "duration": 1.918603499999989,
            "durationTicks": 2640,
            "midi": 59,
            "name": "B3",
            "ticks": 223920,
            "time": 162.7324605,
            "velocity": 0.5354330708661418
          },
          {
            "duration": 1.8313942499999882,
            "durationTicks": 2520,
            "midi": 63,
            "name": "D#4",
            "ticks": 224040,
            "time": 162.81966975,
            "velocity": 0.7322834645669292
          },
          {
            "duration": 1.7877896249999878,
            "durationTicks": 2460,
            "midi": 68,
            "name": "G#4",
            "ticks": 224040,
            "time": 162.81966975,
            "velocity": 0.8110236220472441
          },
          {
            "duration": 0.6976740000000063,
            "durationTicks": 960,
            "midi": 59,
            "name": "B3",
            "ticks": 270720,
            "time": 196.744068,
            "velocity": 0.7165354330708661
          },
          {
            "duration": 0.6831391250000252,
            "durationTicks": 940,
            "midi": 63,
            "name": "D#4",
            "ticks": 270720,
            "time": 196.744068,
            "velocity": 0.6299212598425197
          },
          {
            "duration": 0.6686042499999871,
            "durationTicks": 920,
            "midi": 66,
            "name": "F#4",
            "ticks": 270720,
            "time": 196.744068,
            "velocity": 0.6771653543307087
          },
          {
            "duration": 0.3488370000000032,
            "durationTicks": 480,
            "midi": 59,
            "name": "B3",
            "ticks": 271680,
            "time": 197.441742,
            "velocity": 0.6535433070866141
          },
          {
            "duration": 0.334302125000022,
            "durationTicks": 460,
            "midi": 63,
            "name": "D#4",
            "ticks": 271680,
            "time": 197.441742,
            "velocity": 0.6377952755905512
          },
          {
            "duration": 0.31976724999998396,
            "durationTicks": 440,
            "midi": 66,
            "name": "F#4",
            "ticks": 271680,
            "time": 197.441742,
            "velocity": 0.7480314960629921
          },
          {
            "duration": 1.0465110000000095,
            "durationTicks": 1440,
            "midi": 59,
            "name": "B3",
            "ticks": 272160,
            "time": 197.790579,
            "velocity": 0.6535433070866141
          },
          {
            "duration": 1.031976125,
            "durationTicks": 1420,
            "midi": 63,
            "name": "D#4",
            "ticks": 272160,
            "time": 197.790579,
            "velocity": 0.6377952755905512
          },
          {
            "duration": 1.0174412499999903,
            "durationTicks": 1400,
            "midi": 66,
            "name": "F#4",
            "ticks": 272160,
            "time": 197.790579,
            "velocity": 0.7480314960629921
          },
          {
            "duration": 0.34883699999997475,
            "durationTicks": 480,
            "midi": 59,
            "name": "B3",
            "ticks": 273600,
            "time": 198.83709000000002,
            "velocity": 0.7952755905511811
          },
          {
            "duration": 0.33430212499999357,
            "durationTicks": 460,
            "midi": 63,
            "name": "D#4",
            "ticks": 273600,
            "time": 198.83709000000002,
            "velocity": 0.7952755905511811
          },
          {
            "duration": 0.31976724999998396,
            "durationTicks": 440,
            "midi": 66,
            "name": "F#4",
            "ticks": 273600,
            "time": 198.83709000000002,
            "velocity": 0.7165354330708661
          },
          {
            "duration": 0.1744185000000016,
            "durationTicks": 240,
            "midi": 59,
            "name": "B3",
            "ticks": 274080,
            "time": 199.185927,
            "velocity": 0.7952755905511811
          },
          {
            "duration": 0.1598836250000204,
            "durationTicks": 220,
            "midi": 63,
            "name": "D#4",
            "ticks": 274080,
            "time": 199.185927,
            "velocity": 0.7952755905511811
          },
          {
            "duration": 0.2325580000000116,
            "durationTicks": 320,
            "midi": 66,
            "name": "F#4",
            "ticks": 274080,
            "time": 199.185927,
            "velocity": 0.7165354330708661
          },
          {
            "duration": 0.1744185000000016,
            "durationTicks": 240,
            "midi": 59,
            "name": "B3",
            "ticks": 274320,
            "time": 199.3603455,
            "velocity": 0.7952755905511811
          },
          {
            "duration": 0.1598836250000204,
            "durationTicks": 220,
            "midi": 63,
            "name": "D#4",
            "ticks": 274320,
            "time": 199.3603455,
            "velocity": 0.7952755905511811
          },
          {
            "duration": 0.1453487500000108,
            "durationTicks": 200,
            "midi": 66,
            "name": "F#4",
            "ticks": 274320,
            "time": 199.3603455,
            "velocity": 0.7165354330708661
          },
          {
            "duration": 0.3488370000000032,
            "durationTicks": 480,
            "midi": 54,
            "name": "F#3",
            "ticks": 274560,
            "time": 199.534764,
            "velocity": 0.7480314960629921
          },
          {
            "duration": 0.334302125000022,
            "durationTicks": 460,
            "midi": 59,
            "name": "B3",
            "ticks": 274560,
            "time": 199.534764,
            "velocity": 0.6535433070866141
          },
          {
            "duration": 0.31976724999998396,
            "durationTicks": 440,
            "midi": 64,
            "name": "E4",
            "ticks": 274560,
            "time": 199.534764,
            "velocity": 0.7322834645669292
          },
          {
            "duration": 0.3488370000000032,
            "durationTicks": 480,
            "midi": 54,
            "name": "F#3",
            "ticks": 275040,
            "time": 199.883601,
            "velocity": 0.7480314960629921
          },
          {
            "duration": 0.334302125000022,
            "durationTicks": 460,
            "midi": 59,
            "name": "B3",
            "ticks": 275040,
            "time": 199.883601,
            "velocity": 0.6535433070866141
          },
          {
            "duration": 0.31976724999998396,
            "durationTicks": 440,
            "midi": 64,
            "name": "E4",
            "ticks": 275040,
            "time": 199.883601,
            "velocity": 0.7322834645669292
          },
          {
            "duration": 0.3488370000000032,
            "durationTicks": 480,
            "midi": 54,
            "name": "F#3",
            "ticks": 275520,
            "time": 200.232438,
            "velocity": 0.7322834645669292
          },
          {
            "duration": 0.334302125000022,
            "durationTicks": 460,
            "midi": 59,
            "name": "B3",
            "ticks": 275520,
            "time": 200.232438,
            "velocity": 0.7952755905511811
          },
          {
            "duration": 0.31976724999998396,
            "durationTicks": 440,
            "midi": 64,
            "name": "E4",
            "ticks": 275520,
            "time": 200.232438,
            "velocity": 0.8110236220472441
          },
          {
            "duration": 1.0465110000000095,
            "durationTicks": 1440,
            "midi": 54,
            "name": "F#3",
            "ticks": 276000,
            "time": 200.581275,
            "velocity": 0.7322834645669292
          },
          {
            "duration": 1.031976125,
            "durationTicks": 1420,
            "midi": 59,
            "name": "B3",
            "ticks": 276000,
            "time": 200.581275,
            "velocity": 0.7952755905511811
          },
          {
            "duration": 1.0174412499999903,
            "durationTicks": 1400,
            "midi": 64,
            "name": "E4",
            "ticks": 276000,
            "time": 200.581275,
            "velocity": 0.8110236220472441
          },
          {
            "duration": 0.3488370000000032,
            "durationTicks": 480,
            "midi": 54,
            "name": "F#3",
            "ticks": 277440,
            "time": 201.62778600000001,
            "velocity": 0.6929133858267716
          },
          {
            "duration": 0.33430212499999357,
            "durationTicks": 460,
            "midi": 59,
            "name": "B3",
            "ticks": 277440,
            "time": 201.62778600000001,
            "velocity": 0.7165354330708661
          },
          {
            "duration": 0.31976724999998396,
            "durationTicks": 440,
            "midi": 64,
            "name": "E4",
            "ticks": 277440,
            "time": 201.62778600000001,
            "velocity": 0.5984251968503937
          },
          {
            "duration": 0.17441849999997316,
            "durationTicks": 240,
            "midi": 54,
            "name": "F#3",
            "ticks": 277920,
            "time": 201.97662300000002,
            "velocity": 0.6929133858267716
          },
          {
            "duration": 0.15988362499999198,
            "durationTicks": 220,
            "midi": 59,
            "name": "B3",
            "ticks": 277920,
            "time": 201.97662300000002,
            "velocity": 0.7165354330708661
          },
          {
            "duration": 0.14534874999998237,
            "durationTicks": 200,
            "midi": 64,
            "name": "E4",
            "ticks": 277920,
            "time": 201.97662300000002,
            "velocity": 0.5984251968503937
          },
          {
            "duration": 0.1744185000000016,
            "durationTicks": 240,
            "midi": 54,
            "name": "F#3",
            "ticks": 278160,
            "time": 202.1510415,
            "velocity": 0.6929133858267716
          },
          {
            "duration": 0.1598836250000204,
            "durationTicks": 220,
            "midi": 59,
            "name": "B3",
            "ticks": 278160,
            "time": 202.1510415,
            "velocity": 0.7165354330708661
          },
          {
            "duration": 0.1453487500000108,
            "durationTicks": 200,
            "midi": 64,
            "name": "E4",
            "ticks": 278160,
            "time": 202.1510415,
            "velocity": 0.5984251968503937
          },
          {
            "duration": 0.6976740000000063,
            "durationTicks": 960,
            "midi": 54,
            "name": "F#3",
            "ticks": 278400,
            "time": 202.32546,
            "velocity": 0.6771653543307087
          },
          {
            "duration": 0.6831391250000252,
            "durationTicks": 940,
            "midi": 61,
            "name": "C#4",
            "ticks": 278400,
            "time": 202.32546,
            "velocity": 0.6299212598425197
          },
          {
            "duration": 0.6686042499999871,
            "durationTicks": 920,
            "midi": 66,
            "name": "F#4",
            "ticks": 278400,
            "time": 202.32546,
            "velocity": 0.7165354330708661
          },
          {
            "duration": 0.3488370000000032,
            "durationTicks": 480,
            "midi": 54,
            "name": "F#3",
            "ticks": 279360,
            "time": 203.023134,
            "velocity": 0.7480314960629921
          },
          {
            "duration": 0.334302125000022,
            "durationTicks": 460,
            "midi": 61,
            "name": "C#4",
            "ticks": 279360,
            "time": 203.023134,
            "velocity": 0.6377952755905512
          },
          {
            "duration": 0.31976724999998396,
            "durationTicks": 440,
            "midi": 66,
            "name": "F#4",
            "ticks": 279360,
            "time": 203.023134,
            "velocity": 0.6535433070866141
          },
          {
            "duration": 1.0465110000000095,
            "durationTicks": 1440,
            "midi": 54,
            "name": "F#3",
            "ticks": 279840,
            "time": 203.371971,
            "velocity": 0.7480314960629921
          },
          {
            "duration": 1.0319761250000283,
            "durationTicks": 1420,
            "midi": 61,
            "name": "C#4",
            "ticks": 279840,
            "time": 203.371971,
            "velocity": 0.6377952755905512
          },
          {
            "duration": 1.0174412499999903,
            "durationTicks": 1400,
            "midi": 66,
            "name": "F#4",
            "ticks": 279840,
            "time": 203.371971,
            "velocity": 0.6535433070866141
          },
          {
            "duration": 0.3488370000000032,
            "durationTicks": 480,
            "midi": 54,
            "name": "F#3",
            "ticks": 281280,
            "time": 204.418482,
            "velocity": 0.7165354330708661
          },
          {
            "duration": 0.33430212499999357,
            "durationTicks": 460,
            "midi": 61,
            "name": "C#4",
            "ticks": 281280,
            "time": 204.418482,
            "velocity": 0.7952755905511811
          },
          {
            "duration": 0.31976724999998396,
            "durationTicks": 440,
            "midi": 66,
            "name": "F#4",
            "ticks": 281280,
            "time": 204.418482,
            "velocity": 0.7952755905511811
          },
          {
            "duration": 0.1744185000000016,
            "durationTicks": 240,
            "midi": 54,
            "name": "F#3",
            "ticks": 281760,
            "time": 204.76731900000001,
            "velocity": 0.7165354330708661
          },
          {
            "duration": 0.15988362499999198,
            "durationTicks": 220,
            "midi": 61,
            "name": "C#4",
            "ticks": 281760,
            "time": 204.76731900000001,
            "velocity": 0.7952755905511811
          },
          {
            "duration": 0.14534874999998237,
            "durationTicks": 200,
            "midi": 66,
            "name": "F#4",
            "ticks": 281760,
            "time": 204.76731900000001,
            "velocity": 0.7952755905511811
          },
          {
            "duration": 0.1744185000000016,
            "durationTicks": 240,
            "midi": 54,
            "name": "F#3",
            "ticks": 282000,
            "time": 204.94173750000002,
            "velocity": 0.7165354330708661
          },
          {
            "duration": 0.15988362499999198,
            "durationTicks": 220,
            "midi": 61,
            "name": "C#4",
            "ticks": 282000,
            "time": 204.94173750000002,
            "velocity": 0.7952755905511811
          },
          {
            "duration": 0.14534874999998237,
            "durationTicks": 200,
            "midi": 66,
            "name": "F#4",
            "ticks": 282000,
            "time": 204.94173750000002,
            "velocity": 0.7952755905511811
          },
          {
            "duration": 0.33430212499999357,
            "durationTicks": 460,
            "midi": 54,
            "name": "F#3",
            "ticks": 282240,
            "time": 205.11615600000002,
            "velocity": 0.7480314960629921
          },
          {
            "duration": 0.34883699999997475,
            "durationTicks": 480,
            "midi": 54,
            "name": "F#3",
            "ticks": 282240,
            "time": 205.11615600000002,
            "velocity": 0.7165354330708661
          },
          {
            "duration": 0.31976724999998396,
            "durationTicks": 440,
            "midi": 61,
            "name": "C#4",
            "ticks": 282240,
            "time": 205.11615600000002,
            "velocity": 0.7952755905511811
          },
          {
            "duration": 0.6540693749999775,
            "durationTicks": 900,
            "midi": 66,
            "name": "F#4",
            "ticks": 282240,
            "time": 205.11615600000002,
            "velocity": 0.7165354330708661
          },
          {
            "duration": 0.3488370000000032,
            "durationTicks": 480,
            "midi": 54,
            "name": "F#3",
            "ticks": 282720,
            "time": 205.464993,
            "velocity": 0.7480314960629921
          },
          {
            "duration": 0.334302125000022,
            "durationTicks": 460,
            "midi": 61,
            "name": "C#4",
            "ticks": 282720,
            "time": 205.464993,
            "velocity": 0.6535433070866141
          },
          {
            "duration": 0.3488370000000032,
            "durationTicks": 480,
            "midi": 54,
            "name": "F#3",
            "ticks": 283200,
            "time": 205.81383,
            "velocity": 0.7322834645669292
          },
          {
            "duration": 0.334302125000022,
            "durationTicks": 460,
            "midi": 61,
            "name": "C#4",
            "ticks": 283200,
            "time": 205.81383,
            "velocity": 0.7952755905511811
          },
          {
            "duration": 0.31976724999998396,
            "durationTicks": 440,
            "midi": 66,
            "name": "F#4",
            "ticks": 283200,
            "time": 205.81383,
            "velocity": 0.6535433070866141
          },
          {
            "duration": 1.0465110000000095,
            "durationTicks": 1440,
            "midi": 54,
            "name": "F#3",
            "ticks": 283680,
            "time": 206.162667,
            "velocity": 0.7322834645669292
          },
          {
            "duration": 1.0319761250000283,
            "durationTicks": 1420,
            "midi": 61,
            "name": "C#4",
            "ticks": 283680,
            "time": 206.162667,
            "velocity": 0.7952755905511811
          },
          {
            "duration": 1.0174412499999903,
            "durationTicks": 1400,
            "midi": 66,
            "name": "F#4",
            "ticks": 283680,
            "time": 206.162667,
            "velocity": 0.6535433070866141
          },
          {
            "duration": 0.3488370000000032,
            "durationTicks": 480,
            "midi": 54,
            "name": "F#3",
            "ticks": 285120,
            "time": 207.209178,
            "velocity": 0.6929133858267716
          },
          {
            "duration": 0.334302125000022,
            "durationTicks": 460,
            "midi": 61,
            "name": "C#4",
            "ticks": 285120,
            "time": 207.209178,
            "velocity": 0.7165354330708661
          },
          {
            "duration": 0.31976724999998396,
            "durationTicks": 440,
            "midi": 66,
            "name": "F#4",
            "ticks": 285120,
            "time": 207.209178,
            "velocity": 0.7952755905511811
          },
          {
            "duration": 0.1744185000000016,
            "durationTicks": 240,
            "midi": 54,
            "name": "F#3",
            "ticks": 285600,
            "time": 207.558015,
            "velocity": 0.6929133858267716
          },
          {
            "duration": 0.1598836250000204,
            "durationTicks": 220,
            "midi": 61,
            "name": "C#4",
            "ticks": 285600,
            "time": 207.558015,
            "velocity": 0.7165354330708661
          },
          {
            "duration": 0.14534874999998237,
            "durationTicks": 200,
            "midi": 66,
            "name": "F#4",
            "ticks": 285600,
            "time": 207.558015,
            "velocity": 0.7952755905511811
          },
          {
            "duration": 0.1744185000000016,
            "durationTicks": 240,
            "midi": 54,
            "name": "F#3",
            "ticks": 285840,
            "time": 207.7324335,
            "velocity": 0.6929133858267716
          },
          {
            "duration": 0.15988362499999198,
            "durationTicks": 220,
            "midi": 61,
            "name": "C#4",
            "ticks": 285840,
            "time": 207.7324335,
            "velocity": 0.7165354330708661
          },
          {
            "duration": 0.14534874999998237,
            "durationTicks": 200,
            "midi": 66,
            "name": "F#4",
            "ticks": 285840,
            "time": 207.7324335,
            "velocity": 0.7952755905511811
          },
          {
            "duration": 0.6976739999999779,
            "durationTicks": 960,
            "midi": 52,
            "name": "E3",
            "ticks": 286080,
            "time": 207.90685200000001,
            "velocity": 0.6299212598425197
          },
          {
            "duration": 0.6831391249999967,
            "durationTicks": 940,
            "midi": 59,
            "name": "B3",
            "ticks": 286080,
            "time": 207.90685200000001,
            "velocity": 0.7165354330708661
          },
          {
            "duration": 0.6686042499999871,
            "durationTicks": 920,
            "midi": 68,
            "name": "G#4",
            "ticks": 286080,
            "time": 207.90685200000001,
            "velocity": 0.6771653543307087
          },
          {
            "duration": 0.3488370000000032,
            "durationTicks": 480,
            "midi": 52,
            "name": "E3",
            "ticks": 287040,
            "time": 208.604526,
            "velocity": 0.6377952755905512
          },
          {
            "duration": 0.334302125000022,
            "durationTicks": 460,
            "midi": 59,
            "name": "B3",
            "ticks": 287040,
            "time": 208.604526,
            "velocity": 0.6535433070866141
          },
          {
            "duration": 0.3197672500000124,
            "durationTicks": 440,
            "midi": 68,
            "name": "G#4",
            "ticks": 287040,
            "time": 208.604526,
            "velocity": 0.7480314960629921
          },
          {
            "duration": 1.0465110000000095,
            "durationTicks": 1440,
            "midi": 52,
            "name": "E3",
            "ticks": 287520,
            "time": 208.953363,
            "velocity": 0.6377952755905512
          },
          {
            "duration": 1.0319761250000283,
            "durationTicks": 1420,
            "midi": 59,
            "name": "B3",
            "ticks": 287520,
            "time": 208.953363,
            "velocity": 0.6535433070866141
          },
          {
            "duration": 1.0174412499999903,
            "durationTicks": 1400,
            "midi": 68,
            "name": "G#4",
            "ticks": 287520,
            "time": 208.953363,
            "velocity": 0.7480314960629921
          },
          {
            "duration": 0.3488370000000032,
            "durationTicks": 480,
            "midi": 52,
            "name": "E3",
            "ticks": 288960,
            "time": 209.999874,
            "velocity": 0.7952755905511811
          },
          {
            "duration": 0.334302125000022,
            "durationTicks": 460,
            "midi": 59,
            "name": "B3",
            "ticks": 288960,
            "time": 209.999874,
            "velocity": 0.7952755905511811
          },
          {
            "duration": 0.31976724999998396,
            "durationTicks": 440,
            "midi": 68,
            "name": "G#4",
            "ticks": 288960,
            "time": 209.999874,
            "velocity": 0.7165354330708661
          },
          {
            "duration": 0.1744185000000016,
            "durationTicks": 240,
            "midi": 52,
            "name": "E3",
            "ticks": 289440,
            "time": 210.348711,
            "velocity": 0.7952755905511811
          },
          {
            "duration": 0.1598836250000204,
            "durationTicks": 220,
            "midi": 59,
            "name": "B3",
            "ticks": 289440,
            "time": 210.348711,
            "velocity": 0.7952755905511811
          },
          {
            "duration": 0.23255799999998317,
            "durationTicks": 320,
            "midi": 68,
            "name": "G#4",
            "ticks": 289440,
            "time": 210.348711,
            "velocity": 0.7165354330708661
          },
          {
            "duration": 0.1744185000000016,
            "durationTicks": 240,
            "midi": 52,
            "name": "E3",
            "ticks": 289680,
            "time": 210.5231295,
            "velocity": 0.7952755905511811
          },
          {
            "duration": 0.1598836250000204,
            "durationTicks": 220,
            "midi": 59,
            "name": "B3",
            "ticks": 289680,
            "time": 210.5231295,
            "velocity": 0.7952755905511811
          },
          {
            "duration": 0.14534874999998237,
            "durationTicks": 200,
            "midi": 68,
            "name": "G#4",
            "ticks": 289680,
            "time": 210.5231295,
            "velocity": 0.7165354330708661
          },
          {
            "duration": 0.3488370000000032,
            "durationTicks": 480,
            "midi": 52,
            "name": "E3",
            "ticks": 289920,
            "time": 210.697548,
            "velocity": 0.7480314960629921
          },
          {
            "duration": 0.33430212499999357,
            "durationTicks": 460,
            "midi": 56,
            "name": "G#3",
            "ticks": 289920,
            "time": 210.697548,
            "velocity": 0.7322834645669292
          },
          {
            "duration": 0.31976724999998396,
            "durationTicks": 440,
            "midi": 59,
            "name": "B3",
            "ticks": 289920,
            "time": 210.697548,
            "velocity": 0.6535433070866141
          },
          {
            "duration": 0.3488370000000032,
            "durationTicks": 480,
            "midi": 52,
            "name": "E3",
            "ticks": 290400,
            "time": 211.04638500000001,
            "velocity": 0.7480314960629921
          },
          {
            "duration": 0.33430212499999357,
            "durationTicks": 460,
            "midi": 56,
            "name": "G#3",
            "ticks": 290400,
            "time": 211.04638500000001,
            "velocity": 0.7322834645669292
          },
          {
            "duration": 0.31976724999998396,
            "durationTicks": 440,
            "midi": 59,
            "name": "B3",
            "ticks": 290400,
            "time": 211.04638500000001,
            "velocity": 0.6535433070866141
          },
          {
            "duration": 0.34883699999997475,
            "durationTicks": 480,
            "midi": 52,
            "name": "E3",
            "ticks": 290880,
            "time": 211.39522200000002,
            "velocity": 0.7322834645669292
          },
          {
            "duration": 0.33430212499999357,
            "durationTicks": 460,
            "midi": 56,
            "name": "G#3",
            "ticks": 290880,
            "time": 211.39522200000002,
            "velocity": 0.8110236220472441
          },
          {
            "duration": 0.31976724999998396,
            "durationTicks": 440,
            "midi": 59,
            "name": "B3",
            "ticks": 290880,
            "time": 211.39522200000002,
            "velocity": 0.7952755905511811
          },
          {
            "duration": 1.0465110000000095,
            "durationTicks": 1440,
            "midi": 52,
            "name": "E3",
            "ticks": 291360,
            "time": 211.744059,
            "velocity": 0.7322834645669292
          },
          {
            "duration": 1.0319761250000283,
            "durationTicks": 1420,
            "midi": 56,
            "name": "G#3",
            "ticks": 291360,
            "time": 211.744059,
            "velocity": 0.8110236220472441
          },
          {
            "duration": 1.0174412499999903,
            "durationTicks": 1400,
            "midi": 59,
            "name": "B3",
            "ticks": 291360,
            "time": 211.744059,
            "velocity": 0.7952755905511811
          },
          {
            "duration": 0.3488370000000032,
            "durationTicks": 480,
            "midi": 52,
            "name": "E3",
            "ticks": 292800,
            "time": 212.79057,
            "velocity": 0.6929133858267716
          },
          {
            "duration": 0.334302125000022,
            "durationTicks": 460,
            "midi": 56,
            "name": "G#3",
            "ticks": 292800,
            "time": 212.79057,
            "velocity": 0.5984251968503937
          },
          {
            "duration": 0.31976724999998396,
            "durationTicks": 440,
            "midi": 59,
            "name": "B3",
            "ticks": 292800,
            "time": 212.79057,
            "velocity": 0.7165354330708661
          },
          {
            "duration": 0.1744185000000016,
            "durationTicks": 240,
            "midi": 52,
            "name": "E3",
            "ticks": 293280,
            "time": 213.139407,
            "velocity": 0.6929133858267716
          },
          {
            "duration": 0.1598836250000204,
            "durationTicks": 220,
            "midi": 56,
            "name": "G#3",
            "ticks": 293280,
            "time": 213.139407,
            "velocity": 0.5984251968503937
          },
          {
            "duration": 0.14534874999998237,
            "durationTicks": 200,
            "midi": 59,
            "name": "B3",
            "ticks": 293280,
            "time": 213.139407,
            "velocity": 0.7165354330708661
          },
          {
            "duration": 0.1744185000000016,
            "durationTicks": 240,
            "midi": 52,
            "name": "E3",
            "ticks": 293520,
            "time": 213.3138255,
            "velocity": 0.6929133858267716
          },
          {
            "duration": 0.1598836250000204,
            "durationTicks": 220,
            "midi": 56,
            "name": "G#3",
            "ticks": 293520,
            "time": 213.3138255,
            "velocity": 0.5984251968503937
          },
          {
            "duration": 0.14534874999998237,
            "durationTicks": 200,
            "midi": 59,
            "name": "B3",
            "ticks": 293520,
            "time": 213.3138255,
            "velocity": 0.7165354330708661
          },
          {
            "duration": 0.6976740000000063,
            "durationTicks": 960,
            "midi": 59,
            "name": "B3",
            "ticks": 293760,
            "time": 213.488244,
            "velocity": 0.7165354330708661
          },
          {
            "duration": 0.6831391249999967,
            "durationTicks": 940,
            "midi": 63,
            "name": "D#4",
            "ticks": 293760,
            "time": 213.488244,
            "velocity": 0.6299212598425197
          },
          {
            "duration": 0.6686042499999871,
            "durationTicks": 920,
            "midi": 66,
            "name": "F#4",
            "ticks": 293760,
            "time": 213.488244,
            "velocity": 0.6771653543307087
          },
          {
            "duration": 0.3488370000000032,
            "durationTicks": 480,
            "midi": 59,
            "name": "B3",
            "ticks": 294720,
            "time": 214.18591800000002,
            "velocity": 0.6535433070866141
          },
          {
            "duration": 0.33430212499999357,
            "durationTicks": 460,
            "midi": 63,
            "name": "D#4",
            "ticks": 294720,
            "time": 214.18591800000002,
            "velocity": 0.6377952755905512
          },
          {
            "duration": 0.31976724999998396,
            "durationTicks": 440,
            "midi": 66,
            "name": "F#4",
            "ticks": 294720,
            "time": 214.18591800000002,
            "velocity": 0.7480314960629921
          },
          {
            "duration": 1.046510999999981,
            "durationTicks": 1440,
            "midi": 59,
            "name": "B3",
            "ticks": 295200,
            "time": 214.53475500000002,
            "velocity": 0.6535433070866141
          },
          {
            "duration": 1.031976125,
            "durationTicks": 1420,
            "midi": 63,
            "name": "D#4",
            "ticks": 295200,
            "time": 214.53475500000002,
            "velocity": 0.6377952755905512
          },
          {
            "duration": 1.0174412499999619,
            "durationTicks": 1400,
            "midi": 66,
            "name": "F#4",
            "ticks": 295200,
            "time": 214.53475500000002,
            "velocity": 0.7480314960629921
          },
          {
            "duration": 0.3488370000000032,
            "durationTicks": 480,
            "midi": 59,
            "name": "B3",
            "ticks": 296640,
            "time": 215.581266,
            "velocity": 0.7952755905511811
          },
          {
            "duration": 0.334302125000022,
            "durationTicks": 460,
            "midi": 63,
            "name": "D#4",
            "ticks": 296640,
            "time": 215.581266,
            "velocity": 0.7952755905511811
          },
          {
            "duration": 0.31976724999998396,
            "durationTicks": 440,
            "midi": 66,
            "name": "F#4",
            "ticks": 296640,
            "time": 215.581266,
            "velocity": 0.7165354330708661
          },
          {
            "duration": 0.1744185000000016,
            "durationTicks": 240,
            "midi": 59,
            "name": "B3",
            "ticks": 297120,
            "time": 215.930103,
            "velocity": 0.7952755905511811
          },
          {
            "duration": 0.1598836250000204,
            "durationTicks": 220,
            "midi": 63,
            "name": "D#4",
            "ticks": 297120,
            "time": 215.930103,
            "velocity": 0.7952755905511811
          },
          {
            "duration": 0.23255799999998317,
            "durationTicks": 320,
            "midi": 66,
            "name": "F#4",
            "ticks": 297120,
            "time": 215.930103,
            "velocity": 0.7165354330708661
          },
          {
            "duration": 0.1744185000000016,
            "durationTicks": 240,
            "midi": 59,
            "name": "B3",
            "ticks": 297360,
            "time": 216.1045215,
            "velocity": 0.7952755905511811
          },
          {
            "duration": 0.1598836250000204,
            "durationTicks": 220,
            "midi": 63,
            "name": "D#4",
            "ticks": 297360,
            "time": 216.1045215,
            "velocity": 0.7952755905511811
          },
          {
            "duration": 0.14534874999998237,
            "durationTicks": 200,
            "midi": 66,
            "name": "F#4",
            "ticks": 297360,
            "time": 216.1045215,
            "velocity": 0.7165354330708661
          },
          {
            "duration": 0.3488370000000032,
            "durationTicks": 480,
            "midi": 54,
            "name": "F#3",
            "ticks": 297600,
            "time": 216.27894,
            "velocity": 0.7480314960629921
          },
          {
            "duration": 0.334302125000022,
            "durationTicks": 460,
            "midi": 59,
            "name": "B3",
            "ticks": 297600,
            "time": 216.27894,
            "velocity": 0.6535433070866141
          },
          {
            "duration": 0.31976724999998396,
            "durationTicks": 440,
            "midi": 64,
            "name": "E4",
            "ticks": 297600,
            "time": 216.27894,
            "velocity": 0.7322834645669292
          },
          {
            "duration": 0.3488370000000032,
            "durationTicks": 480,
            "midi": 54,
            "name": "F#3",
            "ticks": 298080,
            "time": 216.627777,
            "velocity": 0.7480314960629921
          },
          {
            "duration": 0.334302125000022,
            "durationTicks": 460,
            "midi": 59,
            "name": "B3",
            "ticks": 298080,
            "time": 216.627777,
            "velocity": 0.6535433070866141
          },
          {
            "duration": 0.31976724999998396,
            "durationTicks": 440,
            "midi": 64,
            "name": "E4",
            "ticks": 298080,
            "time": 216.627777,
            "velocity": 0.7322834645669292
          },
          {
            "duration": 0.3488370000000032,
            "durationTicks": 480,
            "midi": 54,
            "name": "F#3",
            "ticks": 298560,
            "time": 216.976614,
            "velocity": 0.7322834645669292
          },
          {
            "duration": 0.33430212499999357,
            "durationTicks": 460,
            "midi": 59,
            "name": "B3",
            "ticks": 298560,
            "time": 216.976614,
            "velocity": 0.7952755905511811
          },
          {
            "duration": 0.31976724999998396,
            "durationTicks": 440,
            "midi": 64,
            "name": "E4",
            "ticks": 298560,
            "time": 216.976614,
            "velocity": 0.8110236220472441
          },
          {
            "duration": 1.046510999999981,
            "durationTicks": 1440,
            "midi": 54,
            "name": "F#3",
            "ticks": 299040,
            "time": 217.32545100000002,
            "velocity": 0.7322834645669292
          },
          {
            "duration": 1.031976125,
            "durationTicks": 1420,
            "midi": 59,
            "name": "B3",
            "ticks": 299040,
            "time": 217.32545100000002,
            "velocity": 0.7952755905511811
          },
          {
            "duration": 1.0174412499999903,
            "durationTicks": 1400,
            "midi": 64,
            "name": "E4",
            "ticks": 299040,
            "time": 217.32545100000002,
            "velocity": 0.8110236220472441
          },
          {
            "duration": 0.3488370000000032,
            "durationTicks": 480,
            "midi": 54,
            "name": "F#3",
            "ticks": 300480,
            "time": 218.371962,
            "velocity": 0.6929133858267716
          },
          {
            "duration": 0.334302125000022,
            "durationTicks": 460,
            "midi": 59,
            "name": "B3",
            "ticks": 300480,
            "time": 218.371962,
            "velocity": 0.7165354330708661
          },
          {
            "duration": 0.31976724999998396,
            "durationTicks": 440,
            "midi": 64,
            "name": "E4",
            "ticks": 300480,
            "time": 218.371962,
            "velocity": 0.5984251968503937
          },
          {
            "duration": 0.1744185000000016,
            "durationTicks": 240,
            "midi": 54,
            "name": "F#3",
            "ticks": 300960,
            "time": 218.720799,
            "velocity": 0.6929133858267716
          },
          {
            "duration": 0.1598836250000204,
            "durationTicks": 220,
            "midi": 59,
            "name": "B3",
            "ticks": 300960,
            "time": 218.720799,
            "velocity": 0.7165354330708661
          },
          {
            "duration": 0.14534874999998237,
            "durationTicks": 200,
            "midi": 64,
            "name": "E4",
            "ticks": 300960,
            "time": 218.720799,
            "velocity": 0.5984251968503937
          },
          {
            "duration": 0.1744185000000016,
            "durationTicks": 240,
            "midi": 54,
            "name": "F#3",
            "ticks": 301200,
            "time": 218.8952175,
            "velocity": 0.6929133858267716
          },
          {
            "duration": 0.1598836250000204,
            "durationTicks": 220,
            "midi": 59,
            "name": "B3",
            "ticks": 301200,
            "time": 218.8952175,
            "velocity": 0.7165354330708661
          },
          {
            "duration": 0.14534874999998237,
            "durationTicks": 200,
            "midi": 64,
            "name": "E4",
            "ticks": 301200,
            "time": 218.8952175,
            "velocity": 0.5984251968503937
          },
          {
            "duration": 0.6976740000000063,
            "durationTicks": 960,
            "midi": 59,
            "name": "B3",
            "ticks": 301440,
            "time": 219.069636,
            "velocity": 0.7165354330708661
          },
          {
            "duration": 0.6831391250000252,
            "durationTicks": 940,
            "midi": 63,
            "name": "D#4",
            "ticks": 301440,
            "time": 219.069636,
            "velocity": 0.6299212598425197
          },
          {
            "duration": 0.6686042499999871,
            "durationTicks": 920,
            "midi": 66,
            "name": "F#4",
            "ticks": 301440,
            "time": 219.069636,
            "velocity": 0.6771653543307087
          },
          {
            "duration": 0.3488370000000032,
            "durationTicks": 480,
            "midi": 59,
            "name": "B3",
            "ticks": 302400,
            "time": 219.76731,
            "velocity": 0.6535433070866141
          },
          {
            "duration": 0.334302125000022,
            "durationTicks": 460,
            "midi": 63,
            "name": "D#4",
            "ticks": 302400,
            "time": 219.76731,
            "velocity": 0.6377952755905512
          },
          {
            "duration": 0.31976724999998396,
            "durationTicks": 440,
            "midi": 66,
            "name": "F#4",
            "ticks": 302400,
            "time": 219.76731,
            "velocity": 0.7480314960629921
          },
          {
            "duration": 1.046510999999981,
            "durationTicks": 1440,
            "midi": 59,
            "name": "B3",
            "ticks": 302880,
            "time": 220.116147,
            "velocity": 0.6535433070866141
          },
          {
            "duration": 1.031976125,
            "durationTicks": 1420,
            "midi": 63,
            "name": "D#4",
            "ticks": 302880,
            "time": 220.116147,
            "velocity": 0.6377952755905512
          },
          {
            "duration": 1.0174412499999903,
            "durationTicks": 1400,
            "midi": 66,
            "name": "F#4",
            "ticks": 302880,
            "time": 220.116147,
            "velocity": 0.7480314960629921
          },
          {
            "duration": 0.3488370000000032,
            "durationTicks": 480,
            "midi": 59,
            "name": "B3",
            "ticks": 304320,
            "time": 221.162658,
            "velocity": 0.7952755905511811
          },
          {
            "duration": 0.334302125000022,
            "durationTicks": 460,
            "midi": 63,
            "name": "D#4",
            "ticks": 304320,
            "time": 221.162658,
            "velocity": 0.7952755905511811
          },
          {
            "duration": 0.3197672500000124,
            "durationTicks": 440,
            "midi": 66,
            "name": "F#4",
            "ticks": 304320,
            "time": 221.162658,
            "velocity": 0.7165354330708661
          },
          {
            "duration": 0.1744185000000016,
            "durationTicks": 240,
            "midi": 59,
            "name": "B3",
            "ticks": 304800,
            "time": 221.511495,
            "velocity": 0.7952755905511811
          },
          {
            "duration": 0.1598836250000204,
            "durationTicks": 220,
            "midi": 63,
            "name": "D#4",
            "ticks": 304800,
            "time": 221.511495,
            "velocity": 0.7952755905511811
          },
          {
            "duration": 0.23255799999998317,
            "durationTicks": 320,
            "midi": 66,
            "name": "F#4",
            "ticks": 304800,
            "time": 221.511495,
            "velocity": 0.7165354330708661
          },
          {
            "duration": 0.1744185000000016,
            "durationTicks": 240,
            "midi": 59,
            "name": "B3",
            "ticks": 305040,
            "time": 221.6859135,
            "velocity": 0.7952755905511811
          },
          {
            "duration": 0.1598836250000204,
            "durationTicks": 220,
            "midi": 63,
            "name": "D#4",
            "ticks": 305040,
            "time": 221.6859135,
            "velocity": 0.7952755905511811
          },
          {
            "duration": 0.14534874999998237,
            "durationTicks": 200,
            "midi": 66,
            "name": "F#4",
            "ticks": 305040,
            "time": 221.6859135,
            "velocity": 0.7165354330708661
          },
          {
            "duration": 0.3488370000000032,
            "durationTicks": 480,
            "midi": 54,
            "name": "F#3",
            "ticks": 305280,
            "time": 221.860332,
            "velocity": 0.7480314960629921
          },
          {
            "duration": 0.334302125000022,
            "durationTicks": 460,
            "midi": 59,
            "name": "B3",
            "ticks": 305280,
            "time": 221.860332,
            "velocity": 0.6535433070866141
          },
          {
            "duration": 0.31976724999998396,
            "durationTicks": 440,
            "midi": 64,
            "name": "E4",
            "ticks": 305280,
            "time": 221.860332,
            "velocity": 0.7322834645669292
          },
          {
            "duration": 0.3488370000000032,
            "durationTicks": 480,
            "midi": 54,
            "name": "F#3",
            "ticks": 305760,
            "time": 222.209169,
            "velocity": 0.7480314960629921
          },
          {
            "duration": 0.334302125000022,
            "durationTicks": 460,
            "midi": 59,
            "name": "B3",
            "ticks": 305760,
            "time": 222.209169,
            "velocity": 0.6535433070866141
          },
          {
            "duration": 0.31976724999998396,
            "durationTicks": 440,
            "midi": 64,
            "name": "E4",
            "ticks": 305760,
            "time": 222.209169,
            "velocity": 0.7322834645669292
          },
          {
            "duration": 0.3488370000000032,
            "durationTicks": 480,
            "midi": 54,
            "name": "F#3",
            "ticks": 306240,
            "time": 222.558006,
            "velocity": 0.7322834645669292
          },
          {
            "duration": 0.334302125000022,
            "durationTicks": 460,
            "midi": 59,
            "name": "B3",
            "ticks": 306240,
            "time": 222.558006,
            "velocity": 0.7952755905511811
          },
          {
            "duration": 0.31976724999998396,
            "durationTicks": 440,
            "midi": 64,
            "name": "E4",
            "ticks": 306240,
            "time": 222.558006,
            "velocity": 0.8110236220472441
          },
          {
            "duration": 1.0465110000000095,
            "durationTicks": 1440,
            "midi": 54,
            "name": "F#3",
            "ticks": 306720,
            "time": 222.906843,
            "velocity": 0.7322834645669292
          },
          {
            "duration": 1.031976125,
            "durationTicks": 1420,
            "midi": 59,
            "name": "B3",
            "ticks": 306720,
            "time": 222.906843,
            "velocity": 0.7952755905511811
          },
          {
            "duration": 1.0174412499999903,
            "durationTicks": 1400,
            "midi": 64,
            "name": "E4",
            "ticks": 306720,
            "time": 222.906843,
            "velocity": 0.8110236220472441
          },
          {
            "duration": 0.34883699999997475,
            "durationTicks": 480,
            "midi": 54,
            "name": "F#3",
            "ticks": 308160,
            "time": 223.95335400000002,
            "velocity": 0.6929133858267716
          },
          {
            "duration": 0.33430212499999357,
            "durationTicks": 460,
            "midi": 59,
            "name": "B3",
            "ticks": 308160,
            "time": 223.95335400000002,
            "velocity": 0.7165354330708661
          },
          {
            "duration": 0.31976724999998396,
            "durationTicks": 440,
            "midi": 64,
            "name": "E4",
            "ticks": 308160,
            "time": 223.95335400000002,
            "velocity": 0.5984251968503937
          },
          {
            "duration": 0.1744185000000016,
            "durationTicks": 240,
            "midi": 54,
            "name": "F#3",
            "ticks": 308640,
            "time": 224.302191,
            "velocity": 0.6929133858267716
          },
          {
            "duration": 0.1598836250000204,
            "durationTicks": 220,
            "midi": 59,
            "name": "B3",
            "ticks": 308640,
            "time": 224.302191,
            "velocity": 0.7165354330708661
          },
          {
            "duration": 0.1453487500000108,
            "durationTicks": 200,
            "midi": 64,
            "name": "E4",
            "ticks": 308640,
            "time": 224.302191,
            "velocity": 0.5984251968503937
          },
          {
            "duration": 0.1744185000000016,
            "durationTicks": 240,
            "midi": 54,
            "name": "F#3",
            "ticks": 308880,
            "time": 224.4766095,
            "velocity": 0.6929133858267716
          },
          {
            "duration": 0.1598836250000204,
            "durationTicks": 220,
            "midi": 59,
            "name": "B3",
            "ticks": 308880,
            "time": 224.4766095,
            "velocity": 0.7165354330708661
          },
          {
            "duration": 0.1453487500000108,
            "durationTicks": 200,
            "midi": 64,
            "name": "E4",
            "ticks": 308880,
            "time": 224.4766095,
            "velocity": 0.5984251968503937
          },
          {
            "duration": 0.6976740000000063,
            "durationTicks": 960,
            "midi": 54,
            "name": "F#3",
            "ticks": 309120,
            "time": 224.651028,
            "velocity": 0.6771653543307087
          },
          {
            "duration": 0.6831391250000252,
            "durationTicks": 940,
            "midi": 61,
            "name": "C#4",
            "ticks": 309120,
            "time": 224.651028,
            "velocity": 0.6299212598425197
          },
          {
            "duration": 0.6686042499999871,
            "durationTicks": 920,
            "midi": 66,
            "name": "F#4",
            "ticks": 309120,
            "time": 224.651028,
            "velocity": 0.7165354330708661
          },
          {
            "duration": 0.3488370000000032,
            "durationTicks": 480,
            "midi": 54,
            "name": "F#3",
            "ticks": 310080,
            "time": 225.348702,
            "velocity": 0.7480314960629921
          },
          {
            "duration": 0.334302125000022,
            "durationTicks": 460,
            "midi": 61,
            "name": "C#4",
            "ticks": 310080,
            "time": 225.348702,
            "velocity": 0.6377952755905512
          },
          {
            "duration": 0.31976724999998396,
            "durationTicks": 440,
            "midi": 66,
            "name": "F#4",
            "ticks": 310080,
            "time": 225.348702,
            "velocity": 0.6535433070866141
          },
          {
            "duration": 1.0465110000000095,
            "durationTicks": 1440,
            "midi": 54,
            "name": "F#3",
            "ticks": 310560,
            "time": 225.697539,
            "velocity": 0.7480314960629921
          },
          {
            "duration": 1.031976125,
            "durationTicks": 1420,
            "midi": 61,
            "name": "C#4",
            "ticks": 310560,
            "time": 225.697539,
            "velocity": 0.6377952755905512
          },
          {
            "duration": 1.0174412499999903,
            "durationTicks": 1400,
            "midi": 66,
            "name": "F#4",
            "ticks": 310560,
            "time": 225.697539,
            "velocity": 0.6535433070866141
          },
          {
            "duration": 0.3488370000000032,
            "durationTicks": 480,
            "midi": 54,
            "name": "F#3",
            "ticks": 312000,
            "time": 226.74405000000002,
            "velocity": 0.7165354330708661
          },
          {
            "duration": 0.33430212499999357,
            "durationTicks": 460,
            "midi": 61,
            "name": "C#4",
            "ticks": 312000,
            "time": 226.74405000000002,
            "velocity": 0.7952755905511811
          },
          {
            "duration": 0.31976724999998396,
            "durationTicks": 440,
            "midi": 66,
            "name": "F#4",
            "ticks": 312000,
            "time": 226.74405000000002,
            "velocity": 0.7952755905511811
          },
          {
            "duration": 0.17441849999997316,
            "durationTicks": 240,
            "midi": 54,
            "name": "F#3",
            "ticks": 312480,
            "time": 227.09288700000002,
            "velocity": 0.7165354330708661
          },
          {
            "duration": 0.15988362499999198,
            "durationTicks": 220,
            "midi": 61,
            "name": "C#4",
            "ticks": 312480,
            "time": 227.09288700000002,
            "velocity": 0.7952755905511811
          },
          {
            "duration": 0.14534874999998237,
            "durationTicks": 200,
            "midi": 66,
            "name": "F#4",
            "ticks": 312480,
            "time": 227.09288700000002,
            "velocity": 0.7952755905511811
          },
          {
            "duration": 0.1744185000000016,
            "durationTicks": 240,
            "midi": 54,
            "name": "F#3",
            "ticks": 312720,
            "time": 227.2673055,
            "velocity": 0.7165354330708661
          },
          {
            "duration": 0.1598836250000204,
            "durationTicks": 220,
            "midi": 61,
            "name": "C#4",
            "ticks": 312720,
            "time": 227.2673055,
            "velocity": 0.7952755905511811
          },
          {
            "duration": 0.1453487500000108,
            "durationTicks": 200,
            "midi": 66,
            "name": "F#4",
            "ticks": 312720,
            "time": 227.2673055,
            "velocity": 0.7952755905511811
          },
          {
            "duration": 0.334302125000022,
            "durationTicks": 460,
            "midi": 54,
            "name": "F#3",
            "ticks": 312960,
            "time": 227.441724,
            "velocity": 0.7480314960629921
          },
          {
            "duration": 0.3488370000000032,
            "durationTicks": 480,
            "midi": 54,
            "name": "F#3",
            "ticks": 312960,
            "time": 227.441724,
            "velocity": 0.7165354330708661
          },
          {
            "duration": 0.3197672500000124,
            "durationTicks": 440,
            "midi": 61,
            "name": "C#4",
            "ticks": 312960,
            "time": 227.441724,
            "velocity": 0.7952755905511811
          },
          {
            "duration": 0.654069375000006,
            "durationTicks": 900,
            "midi": 66,
            "name": "F#4",
            "ticks": 312960,
            "time": 227.441724,
            "velocity": 0.7165354330708661
          },
          {
            "duration": 0.3488370000000032,
            "durationTicks": 480,
            "midi": 54,
            "name": "F#3",
            "ticks": 313440,
            "time": 227.790561,
            "velocity": 0.7480314960629921
          },
          {
            "duration": 0.334302125000022,
            "durationTicks": 460,
            "midi": 61,
            "name": "C#4",
            "ticks": 313440,
            "time": 227.790561,
            "velocity": 0.6535433070866141
          },
          {
            "duration": 0.3488370000000032,
            "durationTicks": 480,
            "midi": 54,
            "name": "F#3",
            "ticks": 313920,
            "time": 228.139398,
            "velocity": 0.7322834645669292
          },
          {
            "duration": 0.334302125000022,
            "durationTicks": 460,
            "midi": 61,
            "name": "C#4",
            "ticks": 313920,
            "time": 228.139398,
            "velocity": 0.7952755905511811
          },
          {
            "duration": 0.31976724999998396,
            "durationTicks": 440,
            "midi": 66,
            "name": "F#4",
            "ticks": 313920,
            "time": 228.139398,
            "velocity": 0.6535433070866141
          },
          {
            "duration": 1.0465110000000095,
            "durationTicks": 1440,
            "midi": 54,
            "name": "F#3",
            "ticks": 314400,
            "time": 228.488235,
            "velocity": 0.7322834645669292
          },
          {
            "duration": 1.0319761250000283,
            "durationTicks": 1420,
            "midi": 61,
            "name": "C#4",
            "ticks": 314400,
            "time": 228.488235,
            "velocity": 0.7952755905511811
          },
          {
            "duration": 1.0174412499999903,
            "durationTicks": 1400,
            "midi": 66,
            "name": "F#4",
            "ticks": 314400,
            "time": 228.488235,
            "velocity": 0.6535433070866141
          },
          {
            "duration": 0.3488370000000032,
            "durationTicks": 480,
            "midi": 54,
            "name": "F#3",
            "ticks": 315840,
            "time": 229.534746,
            "velocity": 0.6929133858267716
          },
          {
            "duration": 0.33430212499999357,
            "durationTicks": 460,
            "midi": 61,
            "name": "C#4",
            "ticks": 315840,
            "time": 229.534746,
            "velocity": 0.7165354330708661
          },
          {
            "duration": 0.31976724999998396,
            "durationTicks": 440,
            "midi": 66,
            "name": "F#4",
            "ticks": 315840,
            "time": 229.534746,
            "velocity": 0.7952755905511811
          },
          {
            "duration": 0.1744185000000016,
            "durationTicks": 240,
            "midi": 54,
            "name": "F#3",
            "ticks": 316320,
            "time": 229.88358300000002,
            "velocity": 0.6929133858267716
          },
          {
            "duration": 0.15988362499999198,
            "durationTicks": 220,
            "midi": 61,
            "name": "C#4",
            "ticks": 316320,
            "time": 229.88358300000002,
            "velocity": 0.7165354330708661
          },
          {
            "duration": 0.14534874999998237,
            "durationTicks": 200,
            "midi": 66,
            "name": "F#4",
            "ticks": 316320,
            "time": 229.88358300000002,
            "velocity": 0.7952755905511811
          },
          {
            "duration": 0.1744185000000016,
            "durationTicks": 240,
            "midi": 54,
            "name": "F#3",
            "ticks": 316560,
            "time": 230.05800150000002,
            "velocity": 0.6929133858267716
          },
          {
            "duration": 0.15988362499999198,
            "durationTicks": 220,
            "midi": 61,
            "name": "C#4",
            "ticks": 316560,
            "time": 230.05800150000002,
            "velocity": 0.7165354330708661
          },
          {
            "duration": 0.14534874999998237,
            "durationTicks": 200,
            "midi": 66,
            "name": "F#4",
            "ticks": 316560,
            "time": 230.05800150000002,
            "velocity": 0.7952755905511811
          },
          {
            "duration": 0.6976739999999779,
            "durationTicks": 960,
            "midi": 52,
            "name": "E3",
            "ticks": 316800,
            "time": 230.23242000000002,
            "velocity": 0.6299212598425197
          },
          {
            "duration": 0.6831391249999967,
            "durationTicks": 940,
            "midi": 59,
            "name": "B3",
            "ticks": 316800,
            "time": 230.23242000000002,
            "velocity": 0.7165354330708661
          },
          {
            "duration": 0.6686042499999871,
            "durationTicks": 920,
            "midi": 68,
            "name": "G#4",
            "ticks": 316800,
            "time": 230.23242000000002,
            "velocity": 0.6771653543307087
          },
          {
            "duration": 0.3488370000000032,
            "durationTicks": 480,
            "midi": 52,
            "name": "E3",
            "ticks": 317760,
            "time": 230.930094,
            "velocity": 0.6377952755905512
          },
          {
            "duration": 0.334302125000022,
            "durationTicks": 460,
            "midi": 59,
            "name": "B3",
            "ticks": 317760,
            "time": 230.930094,
            "velocity": 0.6535433070866141
          },
          {
            "duration": 0.31976724999998396,
            "durationTicks": 440,
            "midi": 68,
            "name": "G#4",
            "ticks": 317760,
            "time": 230.930094,
            "velocity": 0.7480314960629921
          },
          {
            "duration": 1.0465110000000095,
            "durationTicks": 1440,
            "midi": 52,
            "name": "E3",
            "ticks": 318240,
            "time": 231.278931,
            "velocity": 0.6377952755905512
          },
          {
            "duration": 1.0319761250000283,
            "durationTicks": 1420,
            "midi": 59,
            "name": "B3",
            "ticks": 318240,
            "time": 231.278931,
            "velocity": 0.6535433070866141
          },
          {
            "duration": 1.0174412499999903,
            "durationTicks": 1400,
            "midi": 68,
            "name": "G#4",
            "ticks": 318240,
            "time": 231.278931,
            "velocity": 0.7480314960629921
          },
          {
            "duration": 0.3488370000000032,
            "durationTicks": 480,
            "midi": 52,
            "name": "E3",
            "ticks": 319680,
            "time": 232.325442,
            "velocity": 0.7952755905511811
          },
          {
            "duration": 0.334302125000022,
            "durationTicks": 460,
            "midi": 59,
            "name": "B3",
            "ticks": 319680,
            "time": 232.325442,
            "velocity": 0.7952755905511811
          },
          {
            "duration": 0.31976724999998396,
            "durationTicks": 440,
            "midi": 68,
            "name": "G#4",
            "ticks": 319680,
            "time": 232.325442,
            "velocity": 0.7165354330708661
          },
          {
            "duration": 0.1744185000000016,
            "durationTicks": 240,
            "midi": 52,
            "name": "E3",
            "ticks": 320160,
            "time": 232.674279,
            "velocity": 0.7952755905511811
          },
          {
            "duration": 0.15988362499999198,
            "durationTicks": 220,
            "midi": 59,
            "name": "B3",
            "ticks": 320160,
            "time": 232.674279,
            "velocity": 0.7952755905511811
          },
          {
            "duration": 0.23255799999998317,
            "durationTicks": 320,
            "midi": 68,
            "name": "G#4",
            "ticks": 320160,
            "time": 232.674279,
            "velocity": 0.7165354330708661
          },
          {
            "duration": 0.1744185000000016,
            "durationTicks": 240,
            "midi": 52,
            "name": "E3",
            "ticks": 320400,
            "time": 232.84869750000001,
            "velocity": 0.7952755905511811
          },
          {
            "duration": 0.15988362499999198,
            "durationTicks": 220,
            "midi": 59,
            "name": "B3",
            "ticks": 320400,
            "time": 232.84869750000001,
            "velocity": 0.7952755905511811
          },
          {
            "duration": 0.14534874999998237,
            "durationTicks": 200,
            "midi": 68,
            "name": "G#4",
            "ticks": 320400,
            "time": 232.84869750000001,
            "velocity": 0.7165354330708661
          },
          {
            "duration": 0.3488370000000032,
            "durationTicks": 480,
            "midi": 52,
            "name": "E3",
            "ticks": 320640,
            "time": 233.02311600000002,
            "velocity": 0.7480314960629921
          },
          {
            "duration": 0.33430212499999357,
            "durationTicks": 460,
            "midi": 56,
            "name": "G#3",
            "ticks": 320640,
            "time": 233.02311600000002,
            "velocity": 0.7322834645669292
          },
          {
            "duration": 0.31976724999998396,
            "durationTicks": 440,
            "midi": 59,
            "name": "B3",
            "ticks": 320640,
            "time": 233.02311600000002,
            "velocity": 0.6535433070866141
          },
          {
            "duration": 0.34883699999997475,
            "durationTicks": 480,
            "midi": 52,
            "name": "E3",
            "ticks": 321120,
            "time": 233.37195300000002,
            "velocity": 0.7480314960629921
          },
          {
            "duration": 0.33430212499999357,
            "durationTicks": 460,
            "midi": 56,
            "name": "G#3",
            "ticks": 321120,
            "time": 233.37195300000002,
            "velocity": 0.7322834645669292
          },
          {
            "duration": 0.31976724999998396,
            "durationTicks": 440,
            "midi": 59,
            "name": "B3",
            "ticks": 321120,
            "time": 233.37195300000002,
            "velocity": 0.6535433070866141
          },
          {
            "duration": 0.3488370000000032,
            "durationTicks": 480,
            "midi": 52,
            "name": "E3",
            "ticks": 321600,
            "time": 233.72079,
            "velocity": 0.7322834645669292
          },
          {
            "duration": 0.334302125000022,
            "durationTicks": 460,
            "midi": 56,
            "name": "G#3",
            "ticks": 321600,
            "time": 233.72079,
            "velocity": 0.8110236220472441
          },
          {
            "duration": 0.3197672500000124,
            "durationTicks": 440,
            "midi": 59,
            "name": "B3",
            "ticks": 321600,
            "time": 233.72079,
            "velocity": 0.7952755905511811
          },
          {
            "duration": 1.0465110000000095,
            "durationTicks": 1440,
            "midi": 52,
            "name": "E3",
            "ticks": 322080,
            "time": 234.069627,
            "velocity": 0.7322834645669292
          },
          {
            "duration": 1.0319761250000283,
            "durationTicks": 1420,
            "midi": 56,
            "name": "G#3",
            "ticks": 322080,
            "time": 234.069627,
            "velocity": 0.8110236220472441
          },
          {
            "duration": 1.0174412499999903,
            "durationTicks": 1400,
            "midi": 59,
            "name": "B3",
            "ticks": 322080,
            "time": 234.069627,
            "velocity": 0.7952755905511811
          },
          {
            "duration": 0.3488370000000032,
            "durationTicks": 480,
            "midi": 52,
            "name": "E3",
            "ticks": 323520,
            "time": 235.116138,
            "velocity": 0.6929133858267716
          },
          {
            "duration": 0.334302125000022,
            "durationTicks": 460,
            "midi": 56,
            "name": "G#3",
            "ticks": 323520,
            "time": 235.116138,
            "velocity": 0.5984251968503937
          },
          {
            "duration": 0.31976724999998396,
            "durationTicks": 440,
            "midi": 59,
            "name": "B3",
            "ticks": 323520,
            "time": 235.116138,
            "velocity": 0.7165354330708661
          },
          {
            "duration": 0.1744185000000016,
            "durationTicks": 240,
            "midi": 52,
            "name": "E3",
            "ticks": 324000,
            "time": 235.464975,
            "velocity": 0.6929133858267716
          },
          {
            "duration": 0.1598836250000204,
            "durationTicks": 220,
            "midi": 56,
            "name": "G#3",
            "ticks": 324000,
            "time": 235.464975,
            "velocity": 0.5984251968503937
          },
          {
            "duration": 0.14534874999998237,
            "durationTicks": 200,
            "midi": 59,
            "name": "B3",
            "ticks": 324000,
            "time": 235.464975,
            "velocity": 0.7165354330708661
          },
          {
            "duration": 0.1744185000000016,
            "durationTicks": 240,
            "midi": 52,
            "name": "E3",
            "ticks": 324240,
            "time": 235.6393935,
            "velocity": 0.6929133858267716
          },
          {
            "duration": 0.1598836250000204,
            "durationTicks": 220,
            "midi": 56,
            "name": "G#3",
            "ticks": 324240,
            "time": 235.6393935,
            "velocity": 0.5984251968503937
          },
          {
            "duration": 0.14534874999998237,
            "durationTicks": 200,
            "midi": 59,
            "name": "B3",
            "ticks": 324240,
            "time": 235.6393935,
            "velocity": 0.7165354330708661
          },
          {
            "duration": 0.6976740000000063,
            "durationTicks": 960,
            "midi": 59,
            "name": "B3",
            "ticks": 324480,
            "time": 235.813812,
            "velocity": 0.7165354330708661
          },
          {
            "duration": 0.6831391249999967,
            "durationTicks": 940,
            "midi": 63,
            "name": "D#4",
            "ticks": 324480,
            "time": 235.813812,
            "velocity": 0.6299212598425197
          },
          {
            "duration": 0.6686042499999871,
            "durationTicks": 920,
            "midi": 66,
            "name": "F#4",
            "ticks": 324480,
            "time": 235.813812,
            "velocity": 0.6771653543307087
          },
          {
            "duration": 0.34883699999997475,
            "durationTicks": 480,
            "midi": 59,
            "name": "B3",
            "ticks": 325440,
            "time": 236.51148600000002,
            "velocity": 0.6535433070866141
          },
          {
            "duration": 0.33430212499999357,
            "durationTicks": 460,
            "midi": 63,
            "name": "D#4",
            "ticks": 325440,
            "time": 236.51148600000002,
            "velocity": 0.6377952755905512
          },
          {
            "duration": 0.31976724999998396,
            "durationTicks": 440,
            "midi": 66,
            "name": "F#4",
            "ticks": 325440,
            "time": 236.51148600000002,
            "velocity": 0.7480314960629921
          },
          {
            "duration": 1.0465110000000095,
            "durationTicks": 1440,
            "midi": 59,
            "name": "B3",
            "ticks": 325920,
            "time": 236.860323,
            "velocity": 0.6535433070866141
          },
          {
            "duration": 1.0319761250000283,
            "durationTicks": 1420,
            "midi": 63,
            "name": "D#4",
            "ticks": 325920,
            "time": 236.860323,
            "velocity": 0.6377952755905512
          },
          {
            "duration": 1.0174412499999903,
            "durationTicks": 1400,
            "midi": 66,
            "name": "F#4",
            "ticks": 325920,
            "time": 236.860323,
            "velocity": 0.7480314960629921
          },
          {
            "duration": 0.3488370000000032,
            "durationTicks": 480,
            "midi": 59,
            "name": "B3",
            "ticks": 327360,
            "time": 237.906834,
            "velocity": 0.7952755905511811
          },
          {
            "duration": 0.334302125000022,
            "durationTicks": 460,
            "midi": 63,
            "name": "D#4",
            "ticks": 327360,
            "time": 237.906834,
            "velocity": 0.7952755905511811
          },
          {
            "duration": 0.31976724999998396,
            "durationTicks": 440,
            "midi": 66,
            "name": "F#4",
            "ticks": 327360,
            "time": 237.906834,
            "velocity": 0.7165354330708661
          },
          {
            "duration": 0.1744185000000016,
            "durationTicks": 240,
            "midi": 59,
            "name": "B3",
            "ticks": 327840,
            "time": 238.255671,
            "velocity": 0.7952755905511811
          },
          {
            "duration": 0.1598836250000204,
            "durationTicks": 220,
            "midi": 63,
            "name": "D#4",
            "ticks": 327840,
            "time": 238.255671,
            "velocity": 0.7952755905511811
          },
          {
            "duration": 0.23255799999998317,
            "durationTicks": 320,
            "midi": 66,
            "name": "F#4",
            "ticks": 327840,
            "time": 238.255671,
            "velocity": 0.7165354330708661
          },
          {
            "duration": 0.1744185000000016,
            "durationTicks": 240,
            "midi": 59,
            "name": "B3",
            "ticks": 328080,
            "time": 238.4300895,
            "velocity": 0.7952755905511811
          },
          {
            "duration": 0.1598836250000204,
            "durationTicks": 220,
            "midi": 63,
            "name": "D#4",
            "ticks": 328080,
            "time": 238.4300895,
            "velocity": 0.7952755905511811
          },
          {
            "duration": 0.14534874999998237,
            "durationTicks": 200,
            "midi": 66,
            "name": "F#4",
            "ticks": 328080,
            "time": 238.4300895,
            "velocity": 0.7165354330708661
          },
          {
            "duration": 0.3488370000000032,
            "durationTicks": 480,
            "midi": 54,
            "name": "F#3",
            "ticks": 328320,
            "time": 238.604508,
            "velocity": 0.7480314960629921
          },
          {
            "duration": 0.334302125000022,
            "durationTicks": 460,
            "midi": 59,
            "name": "B3",
            "ticks": 328320,
            "time": 238.604508,
            "velocity": 0.6535433070866141
          },
          {
            "duration": 0.31976724999998396,
            "durationTicks": 440,
            "midi": 64,
            "name": "E4",
            "ticks": 328320,
            "time": 238.604508,
            "velocity": 0.7322834645669292
          },
          {
            "duration": 0.3488370000000032,
            "durationTicks": 480,
            "midi": 54,
            "name": "F#3",
            "ticks": 328800,
            "time": 238.953345,
            "velocity": 0.7480314960629921
          },
          {
            "duration": 0.33430212499999357,
            "durationTicks": 460,
            "midi": 59,
            "name": "B3",
            "ticks": 328800,
            "time": 238.953345,
            "velocity": 0.6535433070866141
          },
          {
            "duration": 0.31976724999998396,
            "durationTicks": 440,
            "midi": 64,
            "name": "E4",
            "ticks": 328800,
            "time": 238.953345,
            "velocity": 0.7322834645669292
          },
          {
            "duration": 0.3488370000000032,
            "durationTicks": 480,
            "midi": 54,
            "name": "F#3",
            "ticks": 329280,
            "time": 239.30218200000002,
            "velocity": 0.7322834645669292
          },
          {
            "duration": 0.33430212499999357,
            "durationTicks": 460,
            "midi": 59,
            "name": "B3",
            "ticks": 329280,
            "time": 239.30218200000002,
            "velocity": 0.7952755905511811
          },
          {
            "duration": 0.31976724999998396,
            "durationTicks": 440,
            "midi": 64,
            "name": "E4",
            "ticks": 329280,
            "time": 239.30218200000002,
            "velocity": 0.8110236220472441
          },
          {
            "duration": 1.046510999999981,
            "durationTicks": 1440,
            "midi": 54,
            "name": "F#3",
            "ticks": 329760,
            "time": 239.65101900000002,
            "velocity": 0.7322834645669292
          },
          {
            "duration": 1.031976125,
            "durationTicks": 1420,
            "midi": 59,
            "name": "B3",
            "ticks": 329760,
            "time": 239.65101900000002,
            "velocity": 0.7952755905511811
          },
          {
            "duration": 1.0174412499999619,
            "durationTicks": 1400,
            "midi": 64,
            "name": "E4",
            "ticks": 329760,
            "time": 239.65101900000002,
            "velocity": 0.8110236220472441
          },
          {
            "duration": 0.3488370000000032,
            "durationTicks": 480,
            "midi": 54,
            "name": "F#3",
            "ticks": 331200,
            "time": 240.69753,
            "velocity": 0.6929133858267716
          },
          {
            "duration": 0.334302125000022,
            "durationTicks": 460,
            "midi": 59,
            "name": "B3",
            "ticks": 331200,
            "time": 240.69753,
            "velocity": 0.7165354330708661
          },
          {
            "duration": 0.31976724999998396,
            "durationTicks": 440,
            "midi": 64,
            "name": "E4",
            "ticks": 331200,
            "time": 240.69753,
            "velocity": 0.5984251968503937
          },
          {
            "duration": 0.1744185000000016,
            "durationTicks": 240,
            "midi": 54,
            "name": "F#3",
            "ticks": 331680,
            "time": 241.046367,
            "velocity": 0.6929133858267716
          },
          {
            "duration": 0.1598836250000204,
            "durationTicks": 220,
            "midi": 59,
            "name": "B3",
            "ticks": 331680,
            "time": 241.046367,
            "velocity": 0.7165354330708661
          },
          {
            "duration": 0.14534874999998237,
            "durationTicks": 200,
            "midi": 64,
            "name": "E4",
            "ticks": 331680,
            "time": 241.046367,
            "velocity": 0.5984251968503937
          },
          {
            "duration": 0.1744185000000016,
            "durationTicks": 240,
            "midi": 54,
            "name": "F#3",
            "ticks": 331920,
            "time": 241.2207855,
            "velocity": 0.6929133858267716
          },
          {
            "duration": 0.1598836250000204,
            "durationTicks": 220,
            "midi": 59,
            "name": "B3",
            "ticks": 331920,
            "time": 241.2207855,
            "velocity": 0.7165354330708661
          },
          {
            "duration": 0.14534874999998237,
            "durationTicks": 200,
            "midi": 64,
            "name": "E4",
            "ticks": 331920,
            "time": 241.2207855,
            "velocity": 0.5984251968503937
          },
          {
            "duration": 0.6976740000000063,
            "durationTicks": 960,
            "midi": 54,
            "name": "F#3",
            "ticks": 332160,
            "time": 241.395204,
            "velocity": 0.6771653543307087
          },
          {
            "duration": 0.6831391250000252,
            "durationTicks": 940,
            "midi": 61,
            "name": "C#4",
            "ticks": 332160,
            "time": 241.395204,
            "velocity": 0.6299212598425197
          },
          {
            "duration": 0.6686042499999871,
            "durationTicks": 920,
            "midi": 66,
            "name": "F#4",
            "ticks": 332160,
            "time": 241.395204,
            "velocity": 0.7165354330708661
          },
          {
            "duration": 0.3488370000000032,
            "durationTicks": 480,
            "midi": 54,
            "name": "F#3",
            "ticks": 333120,
            "time": 242.092878,
            "velocity": 0.7480314960629921
          },
          {
            "duration": 0.33430212499999357,
            "durationTicks": 460,
            "midi": 61,
            "name": "C#4",
            "ticks": 333120,
            "time": 242.092878,
            "velocity": 0.6377952755905512
          },
          {
            "duration": 0.31976724999998396,
            "durationTicks": 440,
            "midi": 66,
            "name": "F#4",
            "ticks": 333120,
            "time": 242.092878,
            "velocity": 0.6535433070866141
          },
          {
            "duration": 1.046510999999981,
            "durationTicks": 1440,
            "midi": 54,
            "name": "F#3",
            "ticks": 333600,
            "time": 242.44171500000002,
            "velocity": 0.7480314960629921
          },
          {
            "duration": 1.031976125,
            "durationTicks": 1420,
            "midi": 61,
            "name": "C#4",
            "ticks": 333600,
            "time": 242.44171500000002,
            "velocity": 0.6377952755905512
          },
          {
            "duration": 1.0174412499999903,
            "durationTicks": 1400,
            "midi": 66,
            "name": "F#4",
            "ticks": 333600,
            "time": 242.44171500000002,
            "velocity": 0.6535433070866141
          },
          {
            "duration": 0.3488370000000032,
            "durationTicks": 480,
            "midi": 54,
            "name": "F#3",
            "ticks": 335040,
            "time": 243.488226,
            "velocity": 0.7165354330708661
          },
          {
            "duration": 0.334302125000022,
            "durationTicks": 460,
            "midi": 61,
            "name": "C#4",
            "ticks": 335040,
            "time": 243.488226,
            "velocity": 0.7952755905511811
          },
          {
            "duration": 0.31976724999998396,
            "durationTicks": 440,
            "midi": 66,
            "name": "F#4",
            "ticks": 335040,
            "time": 243.488226,
            "velocity": 0.7952755905511811
          },
          {
            "duration": 0.1744185000000016,
            "durationTicks": 240,
            "midi": 54,
            "name": "F#3",
            "ticks": 335520,
            "time": 243.837063,
            "velocity": 0.7165354330708661
          },
          {
            "duration": 0.1598836250000204,
            "durationTicks": 220,
            "midi": 61,
            "name": "C#4",
            "ticks": 335520,
            "time": 243.837063,
            "velocity": 0.7952755905511811
          },
          {
            "duration": 0.14534874999998237,
            "durationTicks": 200,
            "midi": 66,
            "name": "F#4",
            "ticks": 335520,
            "time": 243.837063,
            "velocity": 0.7952755905511811
          },
          {
            "duration": 0.1744185000000016,
            "durationTicks": 240,
            "midi": 54,
            "name": "F#3",
            "ticks": 335760,
            "time": 244.0114815,
            "velocity": 0.7165354330708661
          },
          {
            "duration": 0.1598836250000204,
            "durationTicks": 220,
            "midi": 61,
            "name": "C#4",
            "ticks": 335760,
            "time": 244.0114815,
            "velocity": 0.7952755905511811
          },
          {
            "duration": 0.14534874999998237,
            "durationTicks": 200,
            "midi": 66,
            "name": "F#4",
            "ticks": 335760,
            "time": 244.0114815,
            "velocity": 0.7952755905511811
          },
          {
            "duration": 0.334302125000022,
            "durationTicks": 460,
            "midi": 54,
            "name": "F#3",
            "ticks": 336000,
            "time": 244.1859,
            "velocity": 0.7480314960629921
          },
          {
            "duration": 0.3488370000000032,
            "durationTicks": 480,
            "midi": 54,
            "name": "F#3",
            "ticks": 336000,
            "time": 244.1859,
            "velocity": 0.7165354330708661
          },
          {
            "duration": 0.31976724999998396,
            "durationTicks": 440,
            "midi": 61,
            "name": "C#4",
            "ticks": 336000,
            "time": 244.1859,
            "velocity": 0.7952755905511811
          },
          {
            "duration": 0.654069375000006,
            "durationTicks": 900,
            "midi": 66,
            "name": "F#4",
            "ticks": 336000,
            "time": 244.1859,
            "velocity": 0.7165354330708661
          },
          {
            "duration": 0.3488370000000032,
            "durationTicks": 480,
            "midi": 54,
            "name": "F#3",
            "ticks": 336480,
            "time": 244.534737,
            "velocity": 0.7480314960629921
          },
          {
            "duration": 0.334302125000022,
            "durationTicks": 460,
            "midi": 61,
            "name": "C#4",
            "ticks": 336480,
            "time": 244.534737,
            "velocity": 0.6535433070866141
          },
          {
            "duration": 0.3488370000000032,
            "durationTicks": 480,
            "midi": 54,
            "name": "F#3",
            "ticks": 336960,
            "time": 244.883574,
            "velocity": 0.7322834645669292
          },
          {
            "duration": 0.334302125000022,
            "durationTicks": 460,
            "midi": 61,
            "name": "C#4",
            "ticks": 336960,
            "time": 244.883574,
            "velocity": 0.7952755905511811
          },
          {
            "duration": 0.31976724999998396,
            "durationTicks": 440,
            "midi": 66,
            "name": "F#4",
            "ticks": 336960,
            "time": 244.883574,
            "velocity": 0.6535433070866141
          },
          {
            "duration": 1.046510999999981,
            "durationTicks": 1440,
            "midi": 54,
            "name": "F#3",
            "ticks": 337440,
            "time": 245.232411,
            "velocity": 0.7322834645669292
          },
          {
            "duration": 1.031976125,
            "durationTicks": 1420,
            "midi": 61,
            "name": "C#4",
            "ticks": 337440,
            "time": 245.232411,
            "velocity": 0.7952755905511811
          },
          {
            "duration": 1.0174412499999903,
            "durationTicks": 1400,
            "midi": 66,
            "name": "F#4",
            "ticks": 337440,
            "time": 245.232411,
            "velocity": 0.6535433070866141
          },
          {
            "duration": 0.3488370000000032,
            "durationTicks": 480,
            "midi": 54,
            "name": "F#3",
            "ticks": 338880,
            "time": 246.278922,
            "velocity": 0.6929133858267716
          },
          {
            "duration": 0.334302125000022,
            "durationTicks": 460,
            "midi": 61,
            "name": "C#4",
            "ticks": 338880,
            "time": 246.278922,
            "velocity": 0.7165354330708661
          },
          {
            "duration": 0.3197672500000124,
            "durationTicks": 440,
            "midi": 66,
            "name": "F#4",
            "ticks": 338880,
            "time": 246.278922,
            "velocity": 0.7952755905511811
          },
          {
            "duration": 0.1744185000000016,
            "durationTicks": 240,
            "midi": 54,
            "name": "F#3",
            "ticks": 339360,
            "time": 246.627759,
            "velocity": 0.6929133858267716
          },
          {
            "duration": 0.1598836250000204,
            "durationTicks": 220,
            "midi": 61,
            "name": "C#4",
            "ticks": 339360,
            "time": 246.627759,
            "velocity": 0.7165354330708661
          },
          {
            "duration": 0.14534874999998237,
            "durationTicks": 200,
            "midi": 66,
            "name": "F#4",
            "ticks": 339360,
            "time": 246.627759,
            "velocity": 0.7952755905511811
          },
          {
            "duration": 0.1744185000000016,
            "durationTicks": 240,
            "midi": 54,
            "name": "F#3",
            "ticks": 339600,
            "time": 246.8021775,
            "velocity": 0.6929133858267716
          },
          {
            "duration": 0.1598836250000204,
            "durationTicks": 220,
            "midi": 61,
            "name": "C#4",
            "ticks": 339600,
            "time": 246.8021775,
            "velocity": 0.7165354330708661
          },
          {
            "duration": 0.14534874999998237,
            "durationTicks": 200,
            "midi": 66,
            "name": "F#4",
            "ticks": 339600,
            "time": 246.8021775,
            "velocity": 0.7952755905511811
          },
          {
            "duration": 0.6976740000000063,
            "durationTicks": 960,
            "midi": 52,
            "name": "E3",
            "ticks": 339840,
            "time": 246.976596,
            "velocity": 0.6299212598425197
          },
          {
            "duration": 0.6831391250000252,
            "durationTicks": 940,
            "midi": 59,
            "name": "B3",
            "ticks": 339840,
            "time": 246.976596,
            "velocity": 0.7165354330708661
          },
          {
            "duration": 0.6686042499999871,
            "durationTicks": 920,
            "midi": 68,
            "name": "G#4",
            "ticks": 339840,
            "time": 246.976596,
            "velocity": 0.6771653543307087
          },
          {
            "duration": 0.3488370000000032,
            "durationTicks": 480,
            "midi": 52,
            "name": "E3",
            "ticks": 340800,
            "time": 247.67427,
            "velocity": 0.6377952755905512
          },
          {
            "duration": 0.334302125000022,
            "durationTicks": 460,
            "midi": 59,
            "name": "B3",
            "ticks": 340800,
            "time": 247.67427,
            "velocity": 0.6535433070866141
          },
          {
            "duration": 0.31976724999998396,
            "durationTicks": 440,
            "midi": 68,
            "name": "G#4",
            "ticks": 340800,
            "time": 247.67427,
            "velocity": 0.7480314960629921
          },
          {
            "duration": 1.0465110000000095,
            "durationTicks": 1440,
            "midi": 52,
            "name": "E3",
            "ticks": 341280,
            "time": 248.023107,
            "velocity": 0.6377952755905512
          },
          {
            "duration": 1.031976125,
            "durationTicks": 1420,
            "midi": 59,
            "name": "B3",
            "ticks": 341280,
            "time": 248.023107,
            "velocity": 0.6535433070866141
          },
          {
            "duration": 1.0174412499999903,
            "durationTicks": 1400,
            "midi": 68,
            "name": "G#4",
            "ticks": 341280,
            "time": 248.023107,
            "velocity": 0.7480314960629921
          },
          {
            "duration": 0.34883699999997475,
            "durationTicks": 480,
            "midi": 52,
            "name": "E3",
            "ticks": 342720,
            "time": 249.06961800000002,
            "velocity": 0.7952755905511811
          },
          {
            "duration": 0.33430212499999357,
            "durationTicks": 460,
            "midi": 59,
            "name": "B3",
            "ticks": 342720,
            "time": 249.06961800000002,
            "velocity": 0.7952755905511811
          },
          {
            "duration": 0.31976724999998396,
            "durationTicks": 440,
            "midi": 68,
            "name": "G#4",
            "ticks": 342720,
            "time": 249.06961800000002,
            "velocity": 0.7165354330708661
          },
          {
            "duration": 0.1744185000000016,
            "durationTicks": 240,
            "midi": 52,
            "name": "E3",
            "ticks": 343200,
            "time": 249.418455,
            "velocity": 0.7952755905511811
          },
          {
            "duration": 0.1598836250000204,
            "durationTicks": 220,
            "midi": 59,
            "name": "B3",
            "ticks": 343200,
            "time": 249.418455,
            "velocity": 0.7952755905511811
          },
          {
            "duration": 0.2325580000000116,
            "durationTicks": 320,
            "midi": 68,
            "name": "G#4",
            "ticks": 343200,
            "time": 249.418455,
            "velocity": 0.7165354330708661
          },
          {
            "duration": 0.1744185000000016,
            "durationTicks": 240,
            "midi": 52,
            "name": "E3",
            "ticks": 343440,
            "time": 249.5928735,
            "velocity": 0.7952755905511811
          },
          {
            "duration": 0.1598836250000204,
            "durationTicks": 220,
            "midi": 59,
            "name": "B3",
            "ticks": 343440,
            "time": 249.5928735,
            "velocity": 0.7952755905511811
          },
          {
            "duration": 0.14534874999998237,
            "durationTicks": 200,
            "midi": 68,
            "name": "G#4",
            "ticks": 343440,
            "time": 249.5928735,
            "velocity": 0.7165354330708661
          },
          {
            "duration": 0.3488370000000032,
            "durationTicks": 480,
            "midi": 52,
            "name": "E3",
            "ticks": 343680,
            "time": 249.767292,
            "velocity": 0.7480314960629921
          },
          {
            "duration": 0.334302125000022,
            "durationTicks": 460,
            "midi": 56,
            "name": "G#3",
            "ticks": 343680,
            "time": 249.767292,
            "velocity": 0.7322834645669292
          },
          {
            "duration": 0.31976724999998396,
            "durationTicks": 440,
            "midi": 59,
            "name": "B3",
            "ticks": 343680,
            "time": 249.767292,
            "velocity": 0.6535433070866141
          },
          {
            "duration": 0.3488370000000032,
            "durationTicks": 480,
            "midi": 52,
            "name": "E3",
            "ticks": 344160,
            "time": 250.116129,
            "velocity": 0.7480314960629921
          },
          {
            "duration": 0.334302125000022,
            "durationTicks": 460,
            "midi": 56,
            "name": "G#3",
            "ticks": 344160,
            "time": 250.116129,
            "velocity": 0.7322834645669292
          },
          {
            "duration": 0.31976724999998396,
            "durationTicks": 440,
            "midi": 59,
            "name": "B3",
            "ticks": 344160,
            "time": 250.116129,
            "velocity": 0.6535433070866141
          },
          {
            "duration": 0.3488370000000032,
            "durationTicks": 480,
            "midi": 52,
            "name": "E3",
            "ticks": 344640,
            "time": 250.464966,
            "velocity": 0.7322834645669292
          },
          {
            "duration": 0.334302125000022,
            "durationTicks": 460,
            "midi": 56,
            "name": "G#3",
            "ticks": 344640,
            "time": 250.464966,
            "velocity": 0.8110236220472441
          },
          {
            "duration": 0.31976724999998396,
            "durationTicks": 440,
            "midi": 59,
            "name": "B3",
            "ticks": 344640,
            "time": 250.464966,
            "velocity": 0.7952755905511811
          },
          {
            "duration": 1.0465110000000095,
            "durationTicks": 1440,
            "midi": 52,
            "name": "E3",
            "ticks": 345120,
            "time": 250.813803,
            "velocity": 0.7322834645669292
          },
          {
            "duration": 1.031976125,
            "durationTicks": 1420,
            "midi": 56,
            "name": "G#3",
            "ticks": 345120,
            "time": 250.813803,
            "velocity": 0.8110236220472441
          },
          {
            "duration": 1.0174412499999903,
            "durationTicks": 1400,
            "midi": 59,
            "name": "B3",
            "ticks": 345120,
            "time": 250.813803,
            "velocity": 0.7952755905511811
          },
          {
            "duration": 0.3488370000000032,
            "durationTicks": 480,
            "midi": 52,
            "name": "E3",
            "ticks": 346560,
            "time": 251.86031400000002,
            "velocity": 0.6929133858267716
          },
          {
            "duration": 0.33430212499999357,
            "durationTicks": 460,
            "midi": 56,
            "name": "G#3",
            "ticks": 346560,
            "time": 251.86031400000002,
            "velocity": 0.5984251968503937
          },
          {
            "duration": 0.31976724999998396,
            "durationTicks": 440,
            "midi": 59,
            "name": "B3",
            "ticks": 346560,
            "time": 251.86031400000002,
            "velocity": 0.7165354330708661
          },
          {
            "duration": 0.17441849999997316,
            "durationTicks": 240,
            "midi": 52,
            "name": "E3",
            "ticks": 347040,
            "time": 252.20915100000002,
            "velocity": 0.6929133858267716
          },
          {
            "duration": 0.15988362499999198,
            "durationTicks": 220,
            "midi": 56,
            "name": "G#3",
            "ticks": 347040,
            "time": 252.20915100000002,
            "velocity": 0.5984251968503937
          },
          {
            "duration": 0.14534874999998237,
            "durationTicks": 200,
            "midi": 59,
            "name": "B3",
            "ticks": 347040,
            "time": 252.20915100000002,
            "velocity": 0.7165354330708661
          },
          {
            "duration": 0.1744185000000016,
            "durationTicks": 240,
            "midi": 52,
            "name": "E3",
            "ticks": 347280,
            "time": 252.3835695,
            "velocity": 0.6929133858267716
          },
          {
            "duration": 0.1598836250000204,
            "durationTicks": 220,
            "midi": 56,
            "name": "G#3",
            "ticks": 347280,
            "time": 252.3835695,
            "velocity": 0.5984251968503937
          },
          {
            "duration": 0.1453487500000108,
            "durationTicks": 200,
            "midi": 59,
            "name": "B3",
            "ticks": 347280,
            "time": 252.3835695,
            "velocity": 0.7165354330708661
          }
        ]
      },
      {
        "channel": 9,
        "controlChanges": {
          "7": [
            {
              "number": 7,
              "ticks": 0,
              "time": 0,
              "value": 0.9448818897637795
            }
          ],
          "10": [
            {
              "number": 10,
              "ticks": 0,
              "time": 0,
              "value": 0.5039370078740157
            }
          ]
        },
        "pitchBends": [],
        "instrument": {
          "family": "drums",
          "number": 0,
          "name": "standard kit"
        },
        "name": "untitled",
        "notes": [
          {
            "duration": 0.15988362500000086,
            "durationTicks": 220,
            "midi": 36,
            "name": "C2",
            "ticks": 17280,
            "time": 12.558132,
            "velocity": 0.9448818897637795
          },
          {
            "duration": 0.15988362500000086,
            "durationTicks": 220,
            "midi": 49,
            "name": "C#3",
            "ticks": 17280,
            "time": 12.558132,
            "velocity": 0.9448818897637795
          },
          {
            "duration": 0.15988362500000086,
            "durationTicks": 220,
            "midi": 46,
            "name": "A#2",
            "ticks": 17760,
            "time": 12.906969,
            "velocity": 0.9448818897637795
          },
          {
            "duration": 0.15988362500000086,
            "durationTicks": 220,
            "midi": 40,
            "name": "E2",
            "ticks": 18240,
            "time": 13.255806,
            "velocity": 0.9448818897637795
          },
          {
            "duration": 0.15988362500000086,
            "durationTicks": 220,
            "midi": 46,
            "name": "A#2",
            "ticks": 18240,
            "time": 13.255806,
            "velocity": 0.9448818897637795
          },
          {
            "duration": 0.15988362500000086,
            "durationTicks": 220,
            "midi": 36,
            "name": "C2",
            "ticks": 18720,
            "time": 13.604643000000001,
            "velocity": 0.9448818897637795
          },
          {
            "duration": 0.15988362500000086,
            "durationTicks": 220,
            "midi": 46,
            "name": "A#2",
            "ticks": 18720,
            "time": 13.604643000000001,
            "velocity": 0.9448818897637795
          },
          {
            "duration": 0.1744184999999998,
            "durationTicks": 240,
            "midi": 36,
            "name": "C2",
            "ticks": 19200,
            "time": 13.95348,
            "velocity": 0.9448818897637795
          },
          {
            "duration": 0.15988362500000086,
            "durationTicks": 220,
            "midi": 46,
            "name": "A#2",
            "ticks": 19200,
            "time": 13.95348,
            "velocity": 0.9448818897637795
          },
          {
            "duration": 0.1744184999999998,
            "durationTicks": 240,
            "midi": 36,
            "name": "C2",
            "ticks": 19680,
            "time": 14.302317,
            "velocity": 0.9448818897637795
          },
          {
            "duration": 0.15988362500000086,
            "durationTicks": 220,
            "midi": 46,
            "name": "A#2",
            "ticks": 19680,
            "time": 14.302317,
            "velocity": 0.9448818897637795
          },
          {
            "duration": 0.1744184999999998,
            "durationTicks": 240,
            "midi": 40,
            "name": "E2",
            "ticks": 20160,
            "time": 14.651154,
            "velocity": 0.9448818897637795
          },
          {
            "duration": 0.15988362500000086,
            "durationTicks": 220,
            "midi": 46,
            "name": "A#2",
            "ticks": 20160,
            "time": 14.651154,
            "velocity": 0.9448818897637795
          },
          {
            "duration": 0.1744185000000016,
            "durationTicks": 240,
            "midi": 36,
            "name": "C2",
            "ticks": 20640,
            "time": 14.999991,
            "velocity": 0.9448818897637795
          },
          {
            "duration": 0.15988362500000086,
            "durationTicks": 220,
            "midi": 46,
            "name": "A#2",
            "ticks": 20640,
            "time": 14.999991,
            "velocity": 0.9448818897637795
          },
          {
            "duration": 0.1744184999999998,
            "durationTicks": 240,
            "midi": 36,
            "name": "C2",
            "ticks": 21120,
            "time": 15.348828000000001,
            "velocity": 0.9448818897637795
          },
          {
            "duration": 0.15988362500000086,
            "durationTicks": 220,
            "midi": 46,
            "name": "A#2",
            "ticks": 21120,
            "time": 15.348828000000001,
            "velocity": 0.9448818897637795
          },
          {
            "duration": 0.15988362500000086,
            "durationTicks": 220,
            "midi": 46,
            "name": "A#2",
            "ticks": 21600,
            "time": 15.697665,
            "velocity": 0.9448818897637795
          },
          {
            "duration": 0.1744185000000016,
            "durationTicks": 240,
            "midi": 40,
            "name": "E2",
            "ticks": 22080,
            "time": 16.046502,
            "velocity": 0.9448818897637795
          },
          {
            "duration": 0.15988362500000264,
            "durationTicks": 220,
            "midi": 46,
            "name": "A#2",
            "ticks": 22080,
            "time": 16.046502,
            "velocity": 0.9448818897637795
          },
          {
            "duration": 0.1744185000000016,
            "durationTicks": 240,
            "midi": 36,
            "name": "C2",
            "ticks": 22560,
            "time": 16.395339,
            "velocity": 0.9448818897637795
          },
          {
            "duration": 0.15988362500000264,
            "durationTicks": 220,
            "midi": 46,
            "name": "A#2",
            "ticks": 22560,
            "time": 16.395339,
            "velocity": 0.9448818897637795
          },
          {
            "duration": 0.1744185000000016,
            "durationTicks": 240,
            "midi": 36,
            "name": "C2",
            "ticks": 23040,
            "time": 16.744176,
            "velocity": 0.9448818897637795
          },
          {
            "duration": 0.15988362500000264,
            "durationTicks": 220,
            "midi": 46,
            "name": "A#2",
            "ticks": 23040,
            "time": 16.744176,
            "velocity": 0.9448818897637795
          },
          {
            "duration": 0.1744185000000016,
            "durationTicks": 240,
            "midi": 36,
            "name": "C2",
            "ticks": 23520,
            "time": 17.093013,
            "velocity": 0.9448818897637795
          },
          {
            "duration": 0.15988362500000264,
            "durationTicks": 220,
            "midi": 46,
            "name": "A#2",
            "ticks": 23520,
            "time": 17.093013,
            "velocity": 0.9448818897637795
          },
          {
            "duration": 0.1744185000000016,
            "durationTicks": 240,
            "midi": 40,
            "name": "E2",
            "ticks": 24000,
            "time": 17.44185,
            "velocity": 0.9448818897637795
          },
          {
            "duration": 0.15988362500000264,
            "durationTicks": 220,
            "midi": 46,
            "name": "A#2",
            "ticks": 24000,
            "time": 17.44185,
            "velocity": 0.9448818897637795
          },
          {
            "duration": 0.17441849999999803,
            "durationTicks": 240,
            "midi": 36,
            "name": "C2",
            "ticks": 24480,
            "time": 17.790687000000002,
            "velocity": 0.9448818897637795
          },
          {
            "duration": 0.15988362499999909,
            "durationTicks": 220,
            "midi": 46,
            "name": "A#2",
            "ticks": 24480,
            "time": 17.790687000000002,
            "velocity": 0.9448818897637795
          },
          {
            "duration": 0.17441849999999803,
            "durationTicks": 240,
            "midi": 36,
            "name": "C2",
            "ticks": 24960,
            "time": 18.139524,
            "velocity": 0.9448818897637795
          },
          {
            "duration": 0.15988362499999909,
            "durationTicks": 220,
            "midi": 46,
            "name": "A#2",
            "ticks": 24960,
            "time": 18.139524,
            "velocity": 0.9448818897637795
          },
          {
            "duration": 0.15988362499999909,
            "durationTicks": 220,
            "midi": 46,
            "name": "A#2",
            "ticks": 25440,
            "time": 18.488361,
            "velocity": 0.9448818897637795
          },
          {
            "duration": 0.17441849999999803,
            "durationTicks": 240,
            "midi": 40,
            "name": "E2",
            "ticks": 25920,
            "time": 18.837198,
            "velocity": 0.9448818897637795
          },
          {
            "duration": 0.15988362499999909,
            "durationTicks": 220,
            "midi": 46,
            "name": "A#2",
            "ticks": 25920,
            "time": 18.837198,
            "velocity": 0.9448818897637795
          },
          {
            "duration": 0.1744185000000016,
            "durationTicks": 240,
            "midi": 36,
            "name": "C2",
            "ticks": 26400,
            "time": 19.186035,
            "velocity": 0.9448818897637795
          },
          {
            "duration": 0.15988362500000264,
            "durationTicks": 220,
            "midi": 46,
            "name": "A#2",
            "ticks": 26400,
            "time": 19.186035,
            "velocity": 0.9448818897637795
          },
          {
            "duration": 0.1744185000000016,
            "durationTicks": 240,
            "midi": 36,
            "name": "C2",
            "ticks": 26880,
            "time": 19.534872,
            "velocity": 0.9448818897637795
          },
          {
            "duration": 0.15988362500000264,
            "durationTicks": 220,
            "midi": 46,
            "name": "A#2",
            "ticks": 26880,
            "time": 19.534872,
            "velocity": 0.9448818897637795
          },
          {
            "duration": 0.1744185000000016,
            "durationTicks": 240,
            "midi": 36,
            "name": "C2",
            "ticks": 27360,
            "time": 19.883709,
            "velocity": 0.9448818897637795
          },
          {
            "duration": 0.15988362500000264,
            "durationTicks": 220,
            "midi": 46,
            "name": "A#2",
            "ticks": 27360,
            "time": 19.883709,
            "velocity": 0.9448818897637795
          },
          {
            "duration": 0.1744185000000016,
            "durationTicks": 240,
            "midi": 40,
            "name": "E2",
            "ticks": 27840,
            "time": 20.232546,
            "velocity": 0.9448818897637795
          },
          {
            "duration": 0.15988362500000264,
            "durationTicks": 220,
            "midi": 46,
            "name": "A#2",
            "ticks": 27840,
            "time": 20.232546,
            "velocity": 0.9448818897637795
          },
          {
            "duration": 0.1744185000000016,
            "durationTicks": 240,
            "midi": 36,
            "name": "C2",
            "ticks": 28320,
            "time": 20.581383,
            "velocity": 0.9448818897637795
          },
          {
            "duration": 0.15988362500000264,
            "durationTicks": 220,
            "midi": 46,
            "name": "A#2",
            "ticks": 28320,
            "time": 20.581383,
            "velocity": 0.9448818897637795
          },
          {
            "duration": 0.17441849999999803,
            "durationTicks": 240,
            "midi": 36,
            "name": "C2",
            "ticks": 28800,
            "time": 20.930220000000002,
            "velocity": 0.9448818897637795
          },
          {
            "duration": 0.15988362499999909,
            "durationTicks": 220,
            "midi": 46,
            "name": "A#2",
            "ticks": 28800,
            "time": 20.930220000000002,
            "velocity": 0.9448818897637795
          },
          {
            "duration": 0.15988362499999909,
            "durationTicks": 220,
            "midi": 46,
            "name": "A#2",
            "ticks": 29280,
            "time": 21.279057,
            "velocity": 0.9448818897637795
          },
          {
            "duration": 0.17441849999999803,
            "durationTicks": 240,
            "midi": 40,
            "name": "E2",
            "ticks": 29760,
            "time": 21.627894,
            "velocity": 0.9448818897637795
          },
          {
            "duration": 0.15988362499999909,
            "durationTicks": 220,
            "midi": 46,
            "name": "A#2",
            "ticks": 29760,
            "time": 21.627894,
            "velocity": 0.9448818897637795
          },
          {
            "duration": 0.17441849999999803,
            "durationTicks": 240,
            "midi": 36,
            "name": "C2",
            "ticks": 30240,
            "time": 21.976731,
            "velocity": 0.9448818897637795
          },
          {
            "duration": 0.15988362499999909,
            "durationTicks": 220,
            "midi": 46,
            "name": "A#2",
            "ticks": 30240,
            "time": 21.976731,
            "velocity": 0.9448818897637795
          },
          {
            "duration": 0.1744185000000016,
            "durationTicks": 240,
            "midi": 36,
            "name": "C2",
            "ticks": 30720,
            "time": 22.325568,
            "velocity": 0.9448818897637795
          },
          {
            "duration": 0.15988362499999909,
            "durationTicks": 220,
            "midi": 46,
            "name": "A#2",
            "ticks": 30720,
            "time": 22.325568,
            "velocity": 0.9448818897637795
          },
          {
            "duration": 0.1744185000000016,
            "durationTicks": 240,
            "midi": 36,
            "name": "C2",
            "ticks": 31200,
            "time": 22.674405,
            "velocity": 0.9448818897637795
          },
          {
            "duration": 0.15988362499999909,
            "durationTicks": 220,
            "midi": 46,
            "name": "A#2",
            "ticks": 31200,
            "time": 22.674405,
            "velocity": 0.9448818897637795
          },
          {
            "duration": 0.1744185000000016,
            "durationTicks": 240,
            "midi": 40,
            "name": "E2",
            "ticks": 31680,
            "time": 23.023242,
            "velocity": 0.9448818897637795
          },
          {
            "duration": 0.15988362499999909,
            "durationTicks": 220,
            "midi": 46,
            "name": "A#2",
            "ticks": 31680,
            "time": 23.023242,
            "velocity": 0.9448818897637795
          },
          {
            "duration": 0.1744185000000016,
            "durationTicks": 240,
            "midi": 36,
            "name": "C2",
            "ticks": 32160,
            "time": 23.372079,
            "velocity": 0.9448818897637795
          },
          {
            "duration": 0.15988362499999909,
            "durationTicks": 220,
            "midi": 46,
            "name": "A#2",
            "ticks": 32160,
            "time": 23.372079,
            "velocity": 0.9448818897637795
          },
          {
            "duration": 0.1744185000000016,
            "durationTicks": 240,
            "midi": 36,
            "name": "C2",
            "ticks": 32640,
            "time": 23.720916,
            "velocity": 0.9448818897637795
          },
          {
            "duration": 0.15988362499999909,
            "durationTicks": 220,
            "midi": 46,
            "name": "A#2",
            "ticks": 32640,
            "time": 23.720916,
            "velocity": 0.9448818897637795
          },
          {
            "duration": 0.15988362499999553,
            "durationTicks": 220,
            "midi": 46,
            "name": "A#2",
            "ticks": 33120,
            "time": 24.069753000000002,
            "velocity": 0.9448818897637795
          },
          {
            "duration": 0.17441849999999803,
            "durationTicks": 240,
            "midi": 40,
            "name": "E2",
            "ticks": 33600,
            "time": 24.418590000000002,
            "velocity": 0.9448818897637795
          },
          {
            "duration": 0.15988362499999553,
            "durationTicks": 220,
            "midi": 46,
            "name": "A#2",
            "ticks": 33600,
            "time": 24.418590000000002,
            "velocity": 0.9448818897637795
          },
          {
            "duration": 0.17441849999999803,
            "durationTicks": 240,
            "midi": 36,
            "name": "C2",
            "ticks": 34080,
            "time": 24.767427,
            "velocity": 0.9448818897637795
          },
          {
            "duration": 0.15988362499999909,
            "durationTicks": 220,
            "midi": 46,
            "name": "A#2",
            "ticks": 34080,
            "time": 24.767427,
            "velocity": 0.9448818897637795
          },
          {
            "duration": 0.17441849999999803,
            "durationTicks": 240,
            "midi": 36,
            "name": "C2",
            "ticks": 34560,
            "time": 25.116264,
            "velocity": 0.9448818897637795
          },
          {
            "duration": 0.15988362499999909,
            "durationTicks": 220,
            "midi": 46,
            "name": "A#2",
            "ticks": 34560,
            "time": 25.116264,
            "velocity": 0.9448818897637795
          },
          {
            "duration": 0.1744185000000016,
            "durationTicks": 240,
            "midi": 36,
            "name": "C2",
            "ticks": 35040,
            "time": 25.465101,
            "velocity": 0.9448818897637795
          },
          {
            "duration": 0.15988362499999909,
            "durationTicks": 220,
            "midi": 46,
            "name": "A#2",
            "ticks": 35040,
            "time": 25.465101,
            "velocity": 0.9448818897637795
          },
          {
            "duration": 0.1744185000000016,
            "durationTicks": 240,
            "midi": 40,
            "name": "E2",
            "ticks": 35520,
            "time": 25.813938,
            "velocity": 0.9448818897637795
          },
          {
            "duration": 0.15988362499999909,
            "durationTicks": 220,
            "midi": 46,
            "name": "A#2",
            "ticks": 35520,
            "time": 25.813938,
            "velocity": 0.9448818897637795
          },
          {
            "duration": 0.1744185000000016,
            "durationTicks": 240,
            "midi": 36,
            "name": "C2",
            "ticks": 36000,
            "time": 26.162775,
            "velocity": 0.9448818897637795
          },
          {
            "duration": 0.15988362499999909,
            "durationTicks": 220,
            "midi": 46,
            "name": "A#2",
            "ticks": 36000,
            "time": 26.162775,
            "velocity": 0.9448818897637795
          },
          {
            "duration": 0.1744185000000016,
            "durationTicks": 240,
            "midi": 36,
            "name": "C2",
            "ticks": 36480,
            "time": 26.511612,
            "velocity": 0.9448818897637795
          },
          {
            "duration": 0.15988362499999909,
            "durationTicks": 220,
            "midi": 46,
            "name": "A#2",
            "ticks": 36480,
            "time": 26.511612,
            "velocity": 0.9448818897637795
          },
          {
            "duration": 0.15988362499999909,
            "durationTicks": 220,
            "midi": 46,
            "name": "A#2",
            "ticks": 36960,
            "time": 26.860449,
            "velocity": 0.9448818897637795
          },
          {
            "duration": 0.17441849999999803,
            "durationTicks": 240,
            "midi": 40,
            "name": "E2",
            "ticks": 37440,
            "time": 27.209286000000002,
            "velocity": 0.9448818897637795
          },
          {
            "duration": 0.15988362499999553,
            "durationTicks": 220,
            "midi": 46,
            "name": "A#2",
            "ticks": 37440,
            "time": 27.209286000000002,
            "velocity": 0.9448818897637795
          },
          {
            "duration": 0.17441849999999803,
            "durationTicks": 240,
            "midi": 36,
            "name": "C2",
            "ticks": 37920,
            "time": 27.558123000000002,
            "velocity": 0.9448818897637795
          },
          {
            "duration": 0.15988362499999553,
            "durationTicks": 220,
            "midi": 46,
            "name": "A#2",
            "ticks": 37920,
            "time": 27.558123000000002,
            "velocity": 0.9448818897637795
          },
          {
            "duration": 0.17441849999999803,
            "durationTicks": 240,
            "midi": 36,
            "name": "C2",
            "ticks": 38400,
            "time": 27.90696,
            "velocity": 0.9448818897637795
          },
          {
            "duration": 0.15988362499999909,
            "durationTicks": 220,
            "midi": 46,
            "name": "A#2",
            "ticks": 38400,
            "time": 27.90696,
            "velocity": 0.9448818897637795
          },
          {
            "duration": 0.17441849999999803,
            "durationTicks": 240,
            "midi": 36,
            "name": "C2",
            "ticks": 38880,
            "time": 28.255797,
            "velocity": 0.9448818897637795
          },
          {
            "duration": 0.15988362499999909,
            "durationTicks": 220,
            "midi": 46,
            "name": "A#2",
            "ticks": 38880,
            "time": 28.255797,
            "velocity": 0.9448818897637795
          },
          {
            "duration": 0.1744185000000016,
            "durationTicks": 240,
            "midi": 40,
            "name": "E2",
            "ticks": 39360,
            "time": 28.604634,
            "velocity": 0.9448818897637795
          },
          {
            "duration": 0.15988362499999909,
            "durationTicks": 220,
            "midi": 46,
            "name": "A#2",
            "ticks": 39360,
            "time": 28.604634,
            "velocity": 0.9448818897637795
          },
          {
            "duration": 0.1744185000000016,
            "durationTicks": 240,
            "midi": 36,
            "name": "C2",
            "ticks": 39840,
            "time": 28.953471,
            "velocity": 0.9448818897637795
          },
          {
            "duration": 0.15988362499999909,
            "durationTicks": 220,
            "midi": 46,
            "name": "A#2",
            "ticks": 39840,
            "time": 28.953471,
            "velocity": 0.9448818897637795
          },
          {
            "duration": 0.1744185000000016,
            "durationTicks": 240,
            "midi": 36,
            "name": "C2",
            "ticks": 40320,
            "time": 29.302308,
            "velocity": 0.9448818897637795
          },
          {
            "duration": 0.15988362499999909,
            "durationTicks": 220,
            "midi": 46,
            "name": "A#2",
            "ticks": 40320,
            "time": 29.302308,
            "velocity": 0.9448818897637795
          },
          {
            "duration": 0.15988362499999909,
            "durationTicks": 220,
            "midi": 46,
            "name": "A#2",
            "ticks": 40800,
            "time": 29.651145,
            "velocity": 0.9448818897637795
          },
          {
            "duration": 0.1744185000000016,
            "durationTicks": 240,
            "midi": 40,
            "name": "E2",
            "ticks": 41280,
            "time": 29.999982,
            "velocity": 0.9448818897637795
          },
          {
            "duration": 0.15988362499999909,
            "durationTicks": 220,
            "midi": 46,
            "name": "A#2",
            "ticks": 41280,
            "time": 29.999982,
            "velocity": 0.9448818897637795
          },
          {
            "duration": 0.17441849999999803,
            "durationTicks": 240,
            "midi": 36,
            "name": "C2",
            "ticks": 41760,
            "time": 30.348819000000002,
            "velocity": 0.9448818897637795
          },
          {
            "duration": 0.15988362499999553,
            "durationTicks": 220,
            "midi": 46,
            "name": "A#2",
            "ticks": 41760,
            "time": 30.348819000000002,
            "velocity": 0.9448818897637795
          },
          {
            "duration": 0.17441849999999803,
            "durationTicks": 240,
            "midi": 36,
            "name": "C2",
            "ticks": 42240,
            "time": 30.697656000000002,
            "velocity": 0.9448818897637795
          },
          {
            "duration": 0.15988362499999553,
            "durationTicks": 220,
            "midi": 46,
            "name": "A#2",
            "ticks": 42240,
            "time": 30.697656000000002,
            "velocity": 0.9448818897637795
          },
          {
            "duration": 0.17441849999999803,
            "durationTicks": 240,
            "midi": 36,
            "name": "C2",
            "ticks": 42720,
            "time": 31.046493,
            "velocity": 0.9448818897637795
          },
          {
            "duration": 0.15988362499999909,
            "durationTicks": 220,
            "midi": 46,
            "name": "A#2",
            "ticks": 42720,
            "time": 31.046493,
            "velocity": 0.9448818897637795
          },
          {
            "duration": 0.17441849999999803,
            "durationTicks": 240,
            "midi": 40,
            "name": "E2",
            "ticks": 43200,
            "time": 31.39533,
            "velocity": 0.9448818897637795
          },
          {
            "duration": 0.15988362499999909,
            "durationTicks": 220,
            "midi": 46,
            "name": "A#2",
            "ticks": 43200,
            "time": 31.39533,
            "velocity": 0.9448818897637795
          },
          {
            "duration": 0.1744185000000016,
            "durationTicks": 240,
            "midi": 36,
            "name": "C2",
            "ticks": 43680,
            "time": 31.744167,
            "velocity": 0.9448818897637795
          },
          {
            "duration": 0.15988362499999909,
            "durationTicks": 220,
            "midi": 46,
            "name": "A#2",
            "ticks": 43680,
            "time": 31.744167,
            "velocity": 0.9448818897637795
          },
          {
            "duration": 0.1744185000000016,
            "durationTicks": 240,
            "midi": 36,
            "name": "C2",
            "ticks": 44160,
            "time": 32.093004,
            "velocity": 0.9448818897637795
          },
          {
            "duration": 0.15988362499999909,
            "durationTicks": 220,
            "midi": 46,
            "name": "A#2",
            "ticks": 44160,
            "time": 32.093004,
            "velocity": 0.9448818897637795
          },
          {
            "duration": 0.15988362499999198,
            "durationTicks": 220,
            "midi": 46,
            "name": "A#2",
            "ticks": 44640,
            "time": 32.441841000000004,
            "velocity": 0.9448818897637795
          },
          {
            "duration": 0.1744185000000016,
            "durationTicks": 240,
            "midi": 40,
            "name": "E2",
            "ticks": 45120,
            "time": 32.790678,
            "velocity": 0.9448818897637795
          },
          {
            "duration": 0.15988362499999909,
            "durationTicks": 220,
            "midi": 46,
            "name": "A#2",
            "ticks": 45120,
            "time": 32.790678,
            "velocity": 0.9448818897637795
          },
          {
            "duration": 0.17441849999999448,
            "durationTicks": 240,
            "midi": 36,
            "name": "C2",
            "ticks": 45600,
            "time": 33.139515,
            "velocity": 0.9448818897637795
          },
          {
            "duration": 0.15988362499999909,
            "durationTicks": 220,
            "midi": 46,
            "name": "A#2",
            "ticks": 45600,
            "time": 33.139515,
            "velocity": 0.9448818897637795
          },
          {
            "duration": 0.1744185000000016,
            "durationTicks": 240,
            "midi": 36,
            "name": "C2",
            "ticks": 46080,
            "time": 33.488352,
            "velocity": 0.9448818897637795
          },
          {
            "duration": 0.15988362499999909,
            "durationTicks": 220,
            "midi": 46,
            "name": "A#2",
            "ticks": 46080,
            "time": 33.488352,
            "velocity": 0.9448818897637795
          },
          {
            "duration": 0.1744185000000016,
            "durationTicks": 240,
            "midi": 36,
            "name": "C2",
            "ticks": 46560,
            "time": 33.837189,
            "velocity": 0.9448818897637795
          },
          {
            "duration": 0.15988362499999909,
            "durationTicks": 220,
            "midi": 46,
            "name": "A#2",
            "ticks": 46560,
            "time": 33.837189,
            "velocity": 0.9448818897637795
          },
          {
            "duration": 0.1744185000000016,
            "durationTicks": 240,
            "midi": 40,
            "name": "E2",
            "ticks": 47040,
            "time": 34.186026,
            "velocity": 0.9448818897637795
          },
          {
            "duration": 0.15988362499999909,
            "durationTicks": 220,
            "midi": 46,
            "name": "A#2",
            "ticks": 47040,
            "time": 34.186026,
            "velocity": 0.9448818897637795
          },
          {
            "duration": 0.1744185000000016,
            "durationTicks": 240,
            "midi": 36,
            "name": "C2",
            "ticks": 47520,
            "time": 34.534863,
            "velocity": 0.9448818897637795
          },
          {
            "duration": 0.15988362499999909,
            "durationTicks": 220,
            "midi": 46,
            "name": "A#2",
            "ticks": 47520,
            "time": 34.534863,
            "velocity": 0.9448818897637795
          },
          {
            "duration": 0.1744185000000016,
            "durationTicks": 240,
            "midi": 36,
            "name": "C2",
            "ticks": 48000,
            "time": 34.8837,
            "velocity": 0.9448818897637795
          },
          {
            "duration": 0.1744185000000016,
            "durationTicks": 240,
            "midi": 49,
            "name": "C#3",
            "ticks": 48000,
            "time": 34.8837,
            "velocity": 0.7874015748031497
          },
          {
            "duration": 0.1744185000000016,
            "durationTicks": 240,
            "midi": 36,
            "name": "C2",
            "ticks": 48480,
            "time": 35.232537,
            "velocity": 0.9448818897637795
          },
          {
            "duration": 0.1744185000000016,
            "durationTicks": 240,
            "midi": 44,
            "name": "G#2",
            "ticks": 48480,
            "time": 35.232537,
            "velocity": 0.7874015748031497
          },
          {
            "duration": 0.1744185000000016,
            "durationTicks": 240,
            "midi": 44,
            "name": "G#2",
            "ticks": 48480,
            "time": 35.232537,
            "velocity": 0.7874015748031497
          },
          {
            "duration": 0.17441849999999448,
            "durationTicks": 240,
            "midi": 40,
            "name": "E2",
            "ticks": 48960,
            "time": 35.581374000000004,
            "velocity": 0.9448818897637795
          },
          {
            "duration": 0.17441849999999448,
            "durationTicks": 240,
            "midi": 44,
            "name": "G#2",
            "ticks": 48960,
            "time": 35.581374000000004,
            "velocity": 0.7874015748031497
          },
          {
            "duration": 0.1744185000000016,
            "durationTicks": 240,
            "midi": 36,
            "name": "C2",
            "ticks": 49440,
            "time": 35.930211,
            "velocity": 0.9448818897637795
          },
          {
            "duration": 0.1744185000000016,
            "durationTicks": 240,
            "midi": 44,
            "name": "G#2",
            "ticks": 49440,
            "time": 35.930211,
            "velocity": 0.7874015748031497
          },
          {
            "duration": 0.17441849999999448,
            "durationTicks": 240,
            "midi": 36,
            "name": "C2",
            "ticks": 49920,
            "time": 36.279048,
            "velocity": 0.9448818897637795
          },
          {
            "duration": 0.17441849999999448,
            "durationTicks": 240,
            "midi": 44,
            "name": "G#2",
            "ticks": 49920,
            "time": 36.279048,
            "velocity": 0.7874015748031497
          },
          {
            "duration": 0.1744185000000016,
            "durationTicks": 240,
            "midi": 36,
            "name": "C2",
            "ticks": 50400,
            "time": 36.627885,
            "velocity": 0.9448818897637795
          },
          {
            "duration": 0.1744185000000016,
            "durationTicks": 240,
            "midi": 44,
            "name": "G#2",
            "ticks": 50400,
            "time": 36.627885,
            "velocity": 0.7874015748031497
          },
          {
            "duration": 0.1744185000000016,
            "durationTicks": 240,
            "midi": 40,
            "name": "E2",
            "ticks": 50880,
            "time": 36.976722,
            "velocity": 0.9448818897637795
          },
          {
            "duration": 0.1744185000000016,
            "durationTicks": 240,
            "midi": 44,
            "name": "G#2",
            "ticks": 50880,
            "time": 36.976722,
            "velocity": 0.7874015748031497
          },
          {
            "duration": 0.1744185000000016,
            "durationTicks": 240,
            "midi": 36,
            "name": "C2",
            "ticks": 51360,
            "time": 37.325559,
            "velocity": 0.9448818897637795
          },
          {
            "duration": 0.1744185000000016,
            "durationTicks": 240,
            "midi": 44,
            "name": "G#2",
            "ticks": 51360,
            "time": 37.325559,
            "velocity": 0.7874015748031497
          },
          {
            "duration": 0.1744185000000016,
            "durationTicks": 240,
            "midi": 36,
            "name": "C2",
            "ticks": 51840,
            "time": 37.674396,
            "velocity": 0.9448818897637795
          },
          {
            "duration": 0.1744185000000016,
            "durationTicks": 240,
            "midi": 44,
            "name": "G#2",
            "ticks": 51840,
            "time": 37.674396,
            "velocity": 0.7874015748031497
          },
          {
            "duration": 0.1744185000000016,
            "durationTicks": 240,
            "midi": 36,
            "name": "C2",
            "ticks": 52320,
            "time": 38.023233,
            "velocity": 0.9448818897637795
          },
          {
            "duration": 0.1744185000000016,
            "durationTicks": 240,
            "midi": 44,
            "name": "G#2",
            "ticks": 52320,
            "time": 38.023233,
            "velocity": 0.7874015748031497
          },
          {
            "duration": 0.1744185000000016,
            "durationTicks": 240,
            "midi": 40,
            "name": "E2",
            "ticks": 52800,
            "time": 38.37207,
            "velocity": 0.9448818897637795
          },
          {
            "duration": 0.1744185000000016,
            "durationTicks": 240,
            "midi": 44,
            "name": "G#2",
            "ticks": 52800,
            "time": 38.37207,
            "velocity": 0.7874015748031497
          },
          {
            "duration": 0.17441849999999448,
            "durationTicks": 240,
            "midi": 36,
            "name": "C2",
            "ticks": 53280,
            "time": 38.720907000000004,
            "velocity": 0.9448818897637795
          },
          {
            "duration": 0.17441849999999448,
            "durationTicks": 240,
            "midi": 44,
            "name": "G#2",
            "ticks": 53280,
            "time": 38.720907000000004,
            "velocity": 0.7874015748031497
          },
          {
            "duration": 0.1744185000000016,
            "durationTicks": 240,
            "midi": 36,
            "name": "C2",
            "ticks": 53760,
            "time": 39.069744,
            "velocity": 0.9448818897637795
          },
          {
            "duration": 0.1744185000000016,
            "durationTicks": 240,
            "midi": 44,
            "name": "G#2",
            "ticks": 53760,
            "time": 39.069744,
            "velocity": 0.7874015748031497
          },
          {
            "duration": 0.17441849999999448,
            "durationTicks": 240,
            "midi": 36,
            "name": "C2",
            "ticks": 54240,
            "time": 39.418581,
            "velocity": 0.9448818897637795
          },
          {
            "duration": 0.17441849999999448,
            "durationTicks": 240,
            "midi": 44,
            "name": "G#2",
            "ticks": 54240,
            "time": 39.418581,
            "velocity": 0.7874015748031497
          },
          {
            "duration": 0.1744185000000016,
            "durationTicks": 240,
            "midi": 40,
            "name": "E2",
            "ticks": 54720,
            "time": 39.767418,
            "velocity": 0.9448818897637795
          },
          {
            "duration": 0.1744185000000016,
            "durationTicks": 240,
            "midi": 44,
            "name": "G#2",
            "ticks": 54720,
            "time": 39.767418,
            "velocity": 0.7874015748031497
          },
          {
            "duration": 0.1744185000000016,
            "durationTicks": 240,
            "midi": 36,
            "name": "C2",
            "ticks": 55200,
            "time": 40.116255,
            "velocity": 0.9448818897637795
          },
          {
            "duration": 0.1744185000000016,
            "durationTicks": 240,
            "midi": 46,
            "name": "A#2",
            "ticks": 55200,
            "time": 40.116255,
            "velocity": 0.7874015748031497
          },
          {
            "duration": 0.1744185000000016,
            "durationTicks": 240,
            "midi": 36,
            "name": "C2",
            "ticks": 55680,
            "time": 40.465092,
            "velocity": 0.9448818897637795
          },
          {
            "duration": 0.1744185000000016,
            "durationTicks": 240,
            "midi": 44,
            "name": "G#2",
            "ticks": 55680,
            "time": 40.465092,
            "velocity": 0.7874015748031497
          },
          {
            "duration": 0.1744185000000016,
            "durationTicks": 240,
            "midi": 36,
            "name": "C2",
            "ticks": 56160,
            "time": 40.813929,
            "velocity": 0.9448818897637795
          },
          {
            "duration": 0.1744185000000016,
            "durationTicks": 240,
            "midi": 44,
            "name": "G#2",
            "ticks": 56160,
            "time": 40.813929,
            "velocity": 0.7874015748031497
          },
          {
            "duration": 0.1744185000000016,
            "durationTicks": 240,
            "midi": 40,
            "name": "E2",
            "ticks": 56640,
            "time": 41.162766,
            "velocity": 0.9448818897637795
          },
          {
            "duration": 0.1744185000000016,
            "durationTicks": 240,
            "midi": 44,
            "name": "G#2",
            "ticks": 56640,
            "time": 41.162766,
            "velocity": 0.7874015748031497
          },
          {
            "duration": 0.1744185000000016,
            "durationTicks": 240,
            "midi": 36,
            "name": "C2",
            "ticks": 57120,
            "time": 41.511603,
            "velocity": 0.9448818897637795
          },
          {
            "duration": 0.1744185000000016,
            "durationTicks": 240,
            "midi": 44,
            "name": "G#2",
            "ticks": 57120,
            "time": 41.511603,
            "velocity": 0.7874015748031497
          },
          {
            "duration": 0.17441849999999448,
            "durationTicks": 240,
            "midi": 36,
            "name": "C2",
            "ticks": 57600,
            "time": 41.860440000000004,
            "velocity": 0.9448818897637795
          },
          {
            "duration": 0.17441849999999448,
            "durationTicks": 240,
            "midi": 44,
            "name": "G#2",
            "ticks": 57600,
            "time": 41.860440000000004,
            "velocity": 0.7874015748031497
          },
          {
            "duration": 0.1744185000000016,
            "durationTicks": 240,
            "midi": 36,
            "name": "C2",
            "ticks": 58080,
            "time": 42.209277,
            "velocity": 0.9448818897637795
          },
          {
            "duration": 0.1744185000000016,
            "durationTicks": 240,
            "midi": 44,
            "name": "G#2",
            "ticks": 58080,
            "time": 42.209277,
            "velocity": 0.7874015748031497
          },
          {
            "duration": 0.17441849999999448,
            "durationTicks": 240,
            "midi": 40,
            "name": "E2",
            "ticks": 58560,
            "time": 42.558114,
            "velocity": 0.9448818897637795
          },
          {
            "duration": 0.17441849999999448,
            "durationTicks": 240,
            "midi": 44,
            "name": "G#2",
            "ticks": 58560,
            "time": 42.558114,
            "velocity": 0.7874015748031497
          },
          {
            "duration": 0.1744185000000016,
            "durationTicks": 240,
            "midi": 36,
            "name": "C2",
            "ticks": 59040,
            "time": 42.906951,
            "velocity": 0.9448818897637795
          },
          {
            "duration": 0.1744185000000016,
            "durationTicks": 240,
            "midi": 44,
            "name": "G#2",
            "ticks": 59040,
            "time": 42.906951,
            "velocity": 0.7874015748031497
          },
          {
            "duration": 0.1744185000000016,
            "durationTicks": 240,
            "midi": 36,
            "name": "C2",
            "ticks": 59520,
            "time": 43.255788,
            "velocity": 0.9448818897637795
          },
          {
            "duration": 0.1744185000000016,
            "durationTicks": 240,
            "midi": 44,
            "name": "G#2",
            "ticks": 59520,
            "time": 43.255788,
            "velocity": 0.7874015748031497
          },
          {
            "duration": 0.1744185000000016,
            "durationTicks": 240,
            "midi": 36,
            "name": "C2",
            "ticks": 60000,
            "time": 43.604625,
            "velocity": 0.9448818897637795
          },
          {
            "duration": 0.1744185000000016,
            "durationTicks": 240,
            "midi": 44,
            "name": "G#2",
            "ticks": 60000,
            "time": 43.604625,
            "velocity": 0.7874015748031497
          },
          {
            "duration": 0.1744185000000016,
            "durationTicks": 240,
            "midi": 40,
            "name": "E2",
            "ticks": 60480,
            "time": 43.953462,
            "velocity": 0.9448818897637795
          },
          {
            "duration": 0.1744185000000016,
            "durationTicks": 240,
            "midi": 44,
            "name": "G#2",
            "ticks": 60480,
            "time": 43.953462,
            "velocity": 0.7874015748031497
          },
          {
            "duration": 0.1744185000000016,
            "durationTicks": 240,
            "midi": 36,
            "name": "C2",
            "ticks": 60960,
            "time": 44.302299,
            "velocity": 0.9448818897637795
          },
          {
            "duration": 0.1744185000000016,
            "durationTicks": 240,
            "midi": 44,
            "name": "G#2",
            "ticks": 60960,
            "time": 44.302299,
            "velocity": 0.7874015748031497
          },
          {
            "duration": 0.1744185000000016,
            "durationTicks": 240,
            "midi": 36,
            "name": "C2",
            "ticks": 61440,
            "time": 44.651136,
            "velocity": 0.9448818897637795
          },
          {
            "duration": 0.1744185000000016,
            "durationTicks": 240,
            "midi": 44,
            "name": "G#2",
            "ticks": 61440,
            "time": 44.651136,
            "velocity": 0.7874015748031497
          },
          {
            "duration": 0.17441849999999448,
            "durationTicks": 240,
            "midi": 36,
            "name": "C2",
            "ticks": 61920,
            "time": 44.999973000000004,
            "velocity": 0.9448818897637795
          },
          {
            "duration": 0.17441849999999448,
            "durationTicks": 240,
            "midi": 44,
            "name": "G#2",
            "ticks": 61920,
            "time": 44.999973000000004,
            "velocity": 0.7874015748031497
          },
          {
            "duration": 0.1744185000000016,
            "durationTicks": 240,
            "midi": 40,
            "name": "E2",
            "ticks": 62400,
            "time": 45.34881,
            "velocity": 0.9448818897637795
          },
          {
            "duration": 0.1744185000000016,
            "durationTicks": 240,
            "midi": 44,
            "name": "G#2",
            "ticks": 62400,
            "time": 45.34881,
            "velocity": 0.7874015748031497
          },
          {
            "duration": 0.17441849999999448,
            "durationTicks": 240,
            "midi": 36,
            "name": "C2",
            "ticks": 62880,
            "time": 45.697647,
            "velocity": 0.9448818897637795
          },
          {
            "duration": 0.17441849999999448,
            "durationTicks": 240,
            "midi": 46,
            "name": "A#2",
            "ticks": 62880,
            "time": 45.697647,
            "velocity": 0.7874015748031497
          },
          {
            "duration": 0.1744185000000016,
            "durationTicks": 240,
            "midi": 36,
            "name": "C2",
            "ticks": 63360,
            "time": 46.046484,
            "velocity": 0.9448818897637795
          },
          {
            "duration": 0.1744185000000016,
            "durationTicks": 240,
            "midi": 44,
            "name": "G#2",
            "ticks": 63360,
            "time": 46.046484,
            "velocity": 0.7874015748031497
          },
          {
            "duration": 0.1744185000000016,
            "durationTicks": 240,
            "midi": 36,
            "name": "C2",
            "ticks": 63840,
            "time": 46.395321,
            "velocity": 0.9448818897637795
          },
          {
            "duration": 0.1744185000000016,
            "durationTicks": 240,
            "midi": 44,
            "name": "G#2",
            "ticks": 63840,
            "time": 46.395321,
            "velocity": 0.7874015748031497
          },
          {
            "duration": 0.1744185000000016,
            "durationTicks": 240,
            "midi": 40,
            "name": "E2",
            "ticks": 64320,
            "time": 46.744158,
            "velocity": 0.9448818897637795
          },
          {
            "duration": 0.1744185000000016,
            "durationTicks": 240,
            "midi": 44,
            "name": "G#2",
            "ticks": 64320,
            "time": 46.744158,
            "velocity": 0.7874015748031497
          },
          {
            "duration": 0.1744185000000016,
            "durationTicks": 240,
            "midi": 36,
            "name": "C2",
            "ticks": 64800,
            "time": 47.092995,
            "velocity": 0.9448818897637795
          },
          {
            "duration": 0.1744185000000016,
            "durationTicks": 240,
            "midi": 44,
            "name": "G#2",
            "ticks": 64800,
            "time": 47.092995,
            "velocity": 0.7874015748031497
          },
          {
            "duration": 0.1744185000000016,
            "durationTicks": 240,
            "midi": 36,
            "name": "C2",
            "ticks": 65280,
            "time": 47.441832,
            "velocity": 0.9448818897637795
          },
          {
            "duration": 0.1744185000000016,
            "durationTicks": 240,
            "midi": 44,
            "name": "G#2",
            "ticks": 65280,
            "time": 47.441832,
            "velocity": 0.7874015748031497
          },
          {
            "duration": 0.1744185000000016,
            "durationTicks": 240,
            "midi": 36,
            "name": "C2",
            "ticks": 65760,
            "time": 47.790669,
            "velocity": 0.9448818897637795
          },
          {
            "duration": 0.1744185000000016,
            "durationTicks": 240,
            "midi": 44,
            "name": "G#2",
            "ticks": 65760,
            "time": 47.790669,
            "velocity": 0.7874015748031497
          },
          {
            "duration": 0.17441849999999448,
            "durationTicks": 240,
            "midi": 40,
            "name": "E2",
            "ticks": 66240,
            "time": 48.139506000000004,
            "velocity": 0.9448818897637795
          },
          {
            "duration": 0.17441849999999448,
            "durationTicks": 240,
            "midi": 44,
            "name": "G#2",
            "ticks": 66240,
            "time": 48.139506000000004,
            "velocity": 0.7874015748031497
          },
          {
            "duration": 0.1744185000000016,
            "durationTicks": 240,
            "midi": 36,
            "name": "C2",
            "ticks": 66720,
            "time": 48.488343,
            "velocity": 0.9448818897637795
          },
          {
            "duration": 0.1744185000000016,
            "durationTicks": 240,
            "midi": 44,
            "name": "G#2",
            "ticks": 66720,
            "time": 48.488343,
            "velocity": 0.7874015748031497
          },
          {
            "duration": 0.17441849999999448,
            "durationTicks": 240,
            "midi": 36,
            "name": "C2",
            "ticks": 67200,
            "time": 48.837180000000004,
            "velocity": 0.9448818897637795
          },
          {
            "duration": 0.17441849999999448,
            "durationTicks": 240,
            "midi": 44,
            "name": "G#2",
            "ticks": 67200,
            "time": 48.837180000000004,
            "velocity": 0.7874015748031497
          },
          {
            "duration": 0.1744185000000016,
            "durationTicks": 240,
            "midi": 36,
            "name": "C2",
            "ticks": 67680,
            "time": 49.186017,
            "velocity": 0.9448818897637795
          },
          {
            "duration": 0.1744185000000016,
            "durationTicks": 240,
            "midi": 44,
            "name": "G#2",
            "ticks": 67680,
            "time": 49.186017,
            "velocity": 0.7874015748031497
          },
          {
            "duration": 0.1744185000000016,
            "durationTicks": 240,
            "midi": 40,
            "name": "E2",
            "ticks": 68160,
            "time": 49.534854,
            "velocity": 0.9448818897637795
          },
          {
            "duration": 0.1744185000000016,
            "durationTicks": 240,
            "midi": 44,
            "name": "G#2",
            "ticks": 68160,
            "time": 49.534854,
            "velocity": 0.7874015748031497
          },
          {
            "duration": 0.1744185000000016,
            "durationTicks": 240,
            "midi": 36,
            "name": "C2",
            "ticks": 68640,
            "time": 49.883691,
            "velocity": 0.9448818897637795
          },
          {
            "duration": 0.1744185000000016,
            "durationTicks": 240,
            "midi": 44,
            "name": "G#2",
            "ticks": 68640,
            "time": 49.883691,
            "velocity": 0.7874015748031497
          },
          {
            "duration": 0.1744185000000016,
            "durationTicks": 240,
            "midi": 36,
            "name": "C2",
            "ticks": 69120,
            "time": 50.232528,
            "velocity": 0.9448818897637795
          },
          {
            "duration": 0.1744185000000016,
            "durationTicks": 240,
            "midi": 44,
            "name": "G#2",
            "ticks": 69120,
            "time": 50.232528,
            "velocity": 0.7874015748031497
          },
          {
            "duration": 0.1744185000000016,
            "durationTicks": 240,
            "midi": 36,
            "name": "C2",
            "ticks": 69600,
            "time": 50.581365,
            "velocity": 0.9448818897637795
          },
          {
            "duration": 0.1744185000000016,
            "durationTicks": 240,
            "midi": 44,
            "name": "G#2",
            "ticks": 69600,
            "time": 50.581365,
            "velocity": 0.7874015748031497
          },
          {
            "duration": 0.1744185000000016,
            "durationTicks": 240,
            "midi": 40,
            "name": "E2",
            "ticks": 70080,
            "time": 50.930202,
            "velocity": 0.9448818897637795
          },
          {
            "duration": 0.1744185000000016,
            "durationTicks": 240,
            "midi": 44,
            "name": "G#2",
            "ticks": 70080,
            "time": 50.930202,
            "velocity": 0.7874015748031497
          },
          {
            "duration": 0.17441849999999448,
            "durationTicks": 240,
            "midi": 36,
            "name": "C2",
            "ticks": 70560,
            "time": 51.279039000000004,
            "velocity": 0.9448818897637795
          },
          {
            "duration": 0.17441849999999448,
            "durationTicks": 240,
            "midi": 46,
            "name": "A#2",
            "ticks": 70560,
            "time": 51.279039000000004,
            "velocity": 0.7874015748031497
          },
          {
            "duration": 0.1744185000000016,
            "durationTicks": 240,
            "midi": 36,
            "name": "C2",
            "ticks": 71040,
            "time": 51.627876,
            "velocity": 0.9448818897637795
          },
          {
            "duration": 0.1744185000000016,
            "durationTicks": 240,
            "midi": 44,
            "name": "G#2",
            "ticks": 71040,
            "time": 51.627876,
            "velocity": 0.7874015748031497
          },
          {
            "duration": 0.17441849999999448,
            "durationTicks": 240,
            "midi": 36,
            "name": "C2",
            "ticks": 71520,
            "time": 51.976713000000004,
            "velocity": 0.9448818897637795
          },
          {
            "duration": 0.17441849999999448,
            "durationTicks": 240,
            "midi": 44,
            "name": "G#2",
            "ticks": 71520,
            "time": 51.976713000000004,
            "velocity": 0.7874015748031497
          },
          {
            "duration": 0.1744185000000016,
            "durationTicks": 240,
            "midi": 40,
            "name": "E2",
            "ticks": 72000,
            "time": 52.32555,
            "velocity": 0.9448818897637795
          },
          {
            "duration": 0.1744185000000016,
            "durationTicks": 240,
            "midi": 44,
            "name": "G#2",
            "ticks": 72000,
            "time": 52.32555,
            "velocity": 0.7874015748031497
          },
          {
            "duration": 0.1744185000000016,
            "durationTicks": 240,
            "midi": 36,
            "name": "C2",
            "ticks": 72480,
            "time": 52.674387,
            "velocity": 0.9448818897637795
          },
          {
            "duration": 0.1744185000000016,
            "durationTicks": 240,
            "midi": 44,
            "name": "G#2",
            "ticks": 72480,
            "time": 52.674387,
            "velocity": 0.7874015748031497
          },
          {
            "duration": 0.1744185000000016,
            "durationTicks": 240,
            "midi": 36,
            "name": "C2",
            "ticks": 72960,
            "time": 53.023224,
            "velocity": 0.9448818897637795
          },
          {
            "duration": 0.1744185000000016,
            "durationTicks": 240,
            "midi": 44,
            "name": "G#2",
            "ticks": 72960,
            "time": 53.023224,
            "velocity": 0.7874015748031497
          },
          {
            "duration": 0.1744185000000016,
            "durationTicks": 240,
            "midi": 36,
            "name": "C2",
            "ticks": 73440,
            "time": 53.372061,
            "velocity": 0.9448818897637795
          },
          {
            "duration": 0.1744185000000016,
            "durationTicks": 240,
            "midi": 44,
            "name": "G#2",
            "ticks": 73440,
            "time": 53.372061,
            "velocity": 0.7874015748031497
          },
          {
            "duration": 0.1744185000000016,
            "durationTicks": 240,
            "midi": 40,
            "name": "E2",
            "ticks": 73920,
            "time": 53.720898,
            "velocity": 0.9448818897637795
          },
          {
            "duration": 0.1744185000000016,
            "durationTicks": 240,
            "midi": 44,
            "name": "G#2",
            "ticks": 73920,
            "time": 53.720898,
            "velocity": 0.7874015748031497
          },
          {
            "duration": 0.1744185000000016,
            "durationTicks": 240,
            "midi": 36,
            "name": "C2",
            "ticks": 74400,
            "time": 54.069735,
            "velocity": 0.9448818897637795
          },
          {
            "duration": 0.1744185000000016,
            "durationTicks": 240,
            "midi": 44,
            "name": "G#2",
            "ticks": 74400,
            "time": 54.069735,
            "velocity": 0.7874015748031497
          },
          {
            "duration": 0.17441849999999448,
            "durationTicks": 240,
            "midi": 36,
            "name": "C2",
            "ticks": 74880,
            "time": 54.418572000000005,
            "velocity": 0.9448818897637795
          },
          {
            "duration": 0.17441849999999448,
            "durationTicks": 240,
            "midi": 44,
            "name": "G#2",
            "ticks": 74880,
            "time": 54.418572000000005,
            "velocity": 0.7874015748031497
          },
          {
            "duration": 0.1744185000000016,
            "durationTicks": 240,
            "midi": 36,
            "name": "C2",
            "ticks": 75360,
            "time": 54.767409,
            "velocity": 0.9448818897637795
          },
          {
            "duration": 0.1744185000000016,
            "durationTicks": 240,
            "midi": 44,
            "name": "G#2",
            "ticks": 75360,
            "time": 54.767409,
            "velocity": 0.7874015748031497
          },
          {
            "duration": 0.17441849999999448,
            "durationTicks": 240,
            "midi": 40,
            "name": "E2",
            "ticks": 75840,
            "time": 55.116246000000004,
            "velocity": 0.9448818897637795
          },
          {
            "duration": 0.17441849999999448,
            "durationTicks": 240,
            "midi": 44,
            "name": "G#2",
            "ticks": 75840,
            "time": 55.116246000000004,
            "velocity": 0.7874015748031497
          },
          {
            "duration": 0.1744185000000016,
            "durationTicks": 240,
            "midi": 36,
            "name": "C2",
            "ticks": 76320,
            "time": 55.465083,
            "velocity": 0.9448818897637795
          },
          {
            "duration": 0.1744185000000016,
            "durationTicks": 240,
            "midi": 44,
            "name": "G#2",
            "ticks": 76320,
            "time": 55.465083,
            "velocity": 0.7874015748031497
          },
          {
            "duration": 0.1744185000000016,
            "durationTicks": 240,
            "midi": 36,
            "name": "C2",
            "ticks": 76800,
            "time": 55.81392,
            "velocity": 0.9448818897637795
          },
          {
            "duration": 0.1744185000000016,
            "durationTicks": 240,
            "midi": 44,
            "name": "G#2",
            "ticks": 76800,
            "time": 55.81392,
            "velocity": 0.7874015748031497
          },
          {
            "duration": 0.1744185000000016,
            "durationTicks": 240,
            "midi": 36,
            "name": "C2",
            "ticks": 77280,
            "time": 56.162757,
            "velocity": 0.9448818897637795
          },
          {
            "duration": 0.1744185000000016,
            "durationTicks": 240,
            "midi": 44,
            "name": "G#2",
            "ticks": 77280,
            "time": 56.162757,
            "velocity": 0.7874015748031497
          },
          {
            "duration": 0.1744185000000016,
            "durationTicks": 240,
            "midi": 40,
            "name": "E2",
            "ticks": 77760,
            "time": 56.511594,
            "velocity": 0.9448818897637795
          },
          {
            "duration": 0.1744185000000016,
            "durationTicks": 240,
            "midi": 44,
            "name": "G#2",
            "ticks": 77760,
            "time": 56.511594,
            "velocity": 0.7874015748031497
          },
          {
            "duration": 0.1744185000000016,
            "durationTicks": 240,
            "midi": 36,
            "name": "C2",
            "ticks": 78240,
            "time": 56.860431,
            "velocity": 0.9448818897637795
          },
          {
            "duration": 0.1744185000000016,
            "durationTicks": 240,
            "midi": 46,
            "name": "A#2",
            "ticks": 78240,
            "time": 56.860431,
            "velocity": 0.7874015748031497
          },
          {
            "duration": 0.1744185000000016,
            "durationTicks": 240,
            "midi": 36,
            "name": "C2",
            "ticks": 78720,
            "time": 57.209268,
            "velocity": 0.9448818897637795
          },
          {
            "duration": 0.1744185000000016,
            "durationTicks": 240,
            "midi": 44,
            "name": "G#2",
            "ticks": 78720,
            "time": 57.209268,
            "velocity": 0.7874015748031497
          },
          {
            "duration": 0.17441849999999448,
            "durationTicks": 240,
            "midi": 36,
            "name": "C2",
            "ticks": 79200,
            "time": 57.558105000000005,
            "velocity": 0.9448818897637795
          },
          {
            "duration": 0.17441849999999448,
            "durationTicks": 240,
            "midi": 44,
            "name": "G#2",
            "ticks": 79200,
            "time": 57.558105000000005,
            "velocity": 0.7874015748031497
          },
          {
            "duration": 0.1744185000000016,
            "durationTicks": 240,
            "midi": 40,
            "name": "E2",
            "ticks": 79680,
            "time": 57.906942,
            "velocity": 0.9448818897637795
          },
          {
            "duration": 0.1744185000000016,
            "durationTicks": 240,
            "midi": 44,
            "name": "G#2",
            "ticks": 79680,
            "time": 57.906942,
            "velocity": 0.7874015748031497
          },
          {
            "duration": 0.17441849999999448,
            "durationTicks": 240,
            "midi": 36,
            "name": "C2",
            "ticks": 80160,
            "time": 58.255779000000004,
            "velocity": 0.9448818897637795
          },
          {
            "duration": 0.17441849999999448,
            "durationTicks": 240,
            "midi": 44,
            "name": "G#2",
            "ticks": 80160,
            "time": 58.255779000000004,
            "velocity": 0.7874015748031497
          },
          {
            "duration": 0.1744185000000016,
            "durationTicks": 240,
            "midi": 36,
            "name": "C2",
            "ticks": 80640,
            "time": 58.604616,
            "velocity": 0.9448818897637795
          },
          {
            "duration": 0.1744185000000016,
            "durationTicks": 240,
            "midi": 44,
            "name": "G#2",
            "ticks": 80640,
            "time": 58.604616,
            "velocity": 0.7874015748031497
          },
          {
            "duration": 0.1744185000000016,
            "durationTicks": 240,
            "midi": 36,
            "name": "C2",
            "ticks": 81120,
            "time": 58.953453,
            "velocity": 0.9448818897637795
          },
          {
            "duration": 0.1744185000000016,
            "durationTicks": 240,
            "midi": 44,
            "name": "G#2",
            "ticks": 81120,
            "time": 58.953453,
            "velocity": 0.7874015748031497
          },
          {
            "duration": 0.1744185000000016,
            "durationTicks": 240,
            "midi": 40,
            "name": "E2",
            "ticks": 81600,
            "time": 59.30229,
            "velocity": 0.9448818897637795
          },
          {
            "duration": 0.1744185000000016,
            "durationTicks": 240,
            "midi": 44,
            "name": "G#2",
            "ticks": 81600,
            "time": 59.30229,
            "velocity": 0.7874015748031497
          },
          {
            "duration": 0.1744185000000016,
            "durationTicks": 240,
            "midi": 36,
            "name": "C2",
            "ticks": 82080,
            "time": 59.651127,
            "velocity": 0.9448818897637795
          },
          {
            "duration": 0.1744185000000016,
            "durationTicks": 240,
            "midi": 44,
            "name": "G#2",
            "ticks": 82080,
            "time": 59.651127,
            "velocity": 0.7874015748031497
          },
          {
            "duration": 0.1744185000000016,
            "durationTicks": 240,
            "midi": 36,
            "name": "C2",
            "ticks": 82560,
            "time": 59.999964,
            "velocity": 0.9448818897637795
          },
          {
            "duration": 0.1744185000000016,
            "durationTicks": 240,
            "midi": 44,
            "name": "G#2",
            "ticks": 82560,
            "time": 59.999964,
            "velocity": 0.7874015748031497
          },
          {
            "duration": 0.1744185000000016,
            "durationTicks": 240,
            "midi": 36,
            "name": "C2",
            "ticks": 83040,
            "time": 60.348801,
            "velocity": 0.9448818897637795
          },
          {
            "duration": 0.1744185000000016,
            "durationTicks": 240,
            "midi": 44,
            "name": "G#2",
            "ticks": 83040,
            "time": 60.348801,
            "velocity": 0.7874015748031497
          },
          {
            "duration": 0.17441849999999448,
            "durationTicks": 240,
            "midi": 40,
            "name": "E2",
            "ticks": 83520,
            "time": 60.697638000000005,
            "velocity": 0.9448818897637795
          },
          {
            "duration": 0.17441849999999448,
            "durationTicks": 240,
            "midi": 44,
            "name": "G#2",
            "ticks": 83520,
            "time": 60.697638000000005,
            "velocity": 0.7874015748031497
          },
          {
            "duration": 0.1744185000000016,
            "durationTicks": 240,
            "midi": 36,
            "name": "C2",
            "ticks": 84000,
            "time": 61.046475,
            "velocity": 0.9448818897637795
          },
          {
            "duration": 0.1744185000000016,
            "durationTicks": 240,
            "midi": 44,
            "name": "G#2",
            "ticks": 84000,
            "time": 61.046475,
            "velocity": 0.7874015748031497
          },
          {
            "duration": 0.17441849999999448,
            "durationTicks": 240,
            "midi": 36,
            "name": "C2",
            "ticks": 84480,
            "time": 61.395312000000004,
            "velocity": 0.9448818897637795
          },
          {
            "duration": 0.17441849999999448,
            "durationTicks": 240,
            "midi": 44,
            "name": "G#2",
            "ticks": 84480,
            "time": 61.395312000000004,
            "velocity": 0.7874015748031497
          },
          {
            "duration": 0.1744185000000016,
            "durationTicks": 240,
            "midi": 36,
            "name": "C2",
            "ticks": 84960,
            "time": 61.744149,
            "velocity": 0.9448818897637795
          },
          {
            "duration": 0.1744185000000016,
            "durationTicks": 240,
            "midi": 44,
            "name": "G#2",
            "ticks": 84960,
            "time": 61.744149,
            "velocity": 0.7874015748031497
          },
          {
            "duration": 0.1744185000000016,
            "durationTicks": 240,
            "midi": 40,
            "name": "E2",
            "ticks": 85440,
            "time": 62.092986,
            "velocity": 0.9448818897637795
          },
          {
            "duration": 0.1744185000000016,
            "durationTicks": 240,
            "midi": 44,
            "name": "G#2",
            "ticks": 85440,
            "time": 62.092986,
            "velocity": 0.7874015748031497
          },
          {
            "duration": 0.1744185000000016,
            "durationTicks": 240,
            "midi": 36,
            "name": "C2",
            "ticks": 85920,
            "time": 62.441823,
            "velocity": 0.9448818897637795
          },
          {
            "duration": 0.1744185000000016,
            "durationTicks": 240,
            "midi": 46,
            "name": "A#2",
            "ticks": 85920,
            "time": 62.441823,
            "velocity": 0.7874015748031497
          },
          {
            "duration": 0.1744185000000016,
            "durationTicks": 240,
            "midi": 36,
            "name": "C2",
            "ticks": 86400,
            "time": 62.79066,
            "velocity": 0.9448818897637795
          },
          {
            "duration": 0.1744185000000016,
            "durationTicks": 240,
            "midi": 44,
            "name": "G#2",
            "ticks": 86400,
            "time": 62.79066,
            "velocity": 0.7874015748031497
          },
          {
            "duration": 0.1744185000000016,
            "durationTicks": 240,
            "midi": 36,
            "name": "C2",
            "ticks": 86880,
            "time": 63.139497,
            "velocity": 0.9448818897637795
          },
          {
            "duration": 0.1744185000000016,
            "durationTicks": 240,
            "midi": 44,
            "name": "G#2",
            "ticks": 86880,
            "time": 63.139497,
            "velocity": 0.7874015748031497
          },
          {
            "duration": 0.1744185000000016,
            "durationTicks": 240,
            "midi": 40,
            "name": "E2",
            "ticks": 87360,
            "time": 63.488334,
            "velocity": 0.9448818897637795
          },
          {
            "duration": 0.1744185000000016,
            "durationTicks": 240,
            "midi": 44,
            "name": "G#2",
            "ticks": 87360,
            "time": 63.488334,
            "velocity": 0.7874015748031497
          },
          {
            "duration": 0.17441849999999448,
            "durationTicks": 240,
            "midi": 36,
            "name": "C2",
            "ticks": 87840,
            "time": 63.837171000000005,
            "velocity": 0.9448818897637795
          },
          {
            "duration": 0.17441849999999448,
            "durationTicks": 240,
            "midi": 44,
            "name": "G#2",
            "ticks": 87840,
            "time": 63.837171000000005,
            "velocity": 0.7874015748031497
          },
          {
            "duration": 0.1744185000000016,
            "durationTicks": 240,
            "midi": 36,
            "name": "C2",
            "ticks": 88320,
            "time": 64.186008,
            "velocity": 0.9448818897637795
          },
          {
            "duration": 0.1744185000000016,
            "durationTicks": 240,
            "midi": 44,
            "name": "G#2",
            "ticks": 88320,
            "time": 64.186008,
            "velocity": 0.7874015748031497
          },
          {
            "duration": 0.1744185000000016,
            "durationTicks": 240,
            "midi": 36,
            "name": "C2",
            "ticks": 88800,
            "time": 64.534845,
            "velocity": 0.9448818897637795
          },
          {
            "duration": 0.1744185000000016,
            "durationTicks": 240,
            "midi": 44,
            "name": "G#2",
            "ticks": 88800,
            "time": 64.534845,
            "velocity": 0.7874015748031497
          },
          {
            "duration": 0.17441849999998738,
            "durationTicks": 240,
            "midi": 40,
            "name": "E2",
            "ticks": 89280,
            "time": 64.88368200000001,
            "velocity": 0.9448818897637795
          },
          {
            "duration": 0.17441849999998738,
            "durationTicks": 240,
            "midi": 44,
            "name": "G#2",
            "ticks": 89280,
            "time": 64.88368200000001,
            "velocity": 0.7874015748031497
          },
          {
            "duration": 0.1744185000000016,
            "durationTicks": 240,
            "midi": 36,
            "name": "C2",
            "ticks": 89760,
            "time": 65.232519,
            "velocity": 0.9448818897637795
          },
          {
            "duration": 0.1744185000000016,
            "durationTicks": 240,
            "midi": 44,
            "name": "G#2",
            "ticks": 89760,
            "time": 65.232519,
            "velocity": 0.7874015748031497
          },
          {
            "duration": 0.1744185000000016,
            "durationTicks": 240,
            "midi": 36,
            "name": "C2",
            "ticks": 90240,
            "time": 65.581356,
            "velocity": 0.9448818897637795
          },
          {
            "duration": 0.1744185000000016,
            "durationTicks": 240,
            "midi": 44,
            "name": "G#2",
            "ticks": 90240,
            "time": 65.581356,
            "velocity": 0.7874015748031497
          },
          {
            "duration": 0.1744185000000016,
            "durationTicks": 240,
            "midi": 36,
            "name": "C2",
            "ticks": 90720,
            "time": 65.930193,
            "velocity": 0.9448818897637795
          },
          {
            "duration": 0.1744185000000016,
            "durationTicks": 240,
            "midi": 44,
            "name": "G#2",
            "ticks": 90720,
            "time": 65.930193,
            "velocity": 0.7874015748031497
          },
          {
            "duration": 0.1744185000000016,
            "durationTicks": 240,
            "midi": 40,
            "name": "E2",
            "ticks": 91200,
            "time": 66.27903,
            "velocity": 0.9448818897637795
          },
          {
            "duration": 0.1744185000000016,
            "durationTicks": 240,
            "midi": 44,
            "name": "G#2",
            "ticks": 91200,
            "time": 66.27903,
            "velocity": 0.7874015748031497
          },
          {
            "duration": 0.1744185000000016,
            "durationTicks": 240,
            "midi": 36,
            "name": "C2",
            "ticks": 91680,
            "time": 66.627867,
            "velocity": 0.9448818897637795
          },
          {
            "duration": 0.1744185000000016,
            "durationTicks": 240,
            "midi": 44,
            "name": "G#2",
            "ticks": 91680,
            "time": 66.627867,
            "velocity": 0.7874015748031497
          },
          {
            "duration": 0.1744185000000016,
            "durationTicks": 240,
            "midi": 36,
            "name": "C2",
            "ticks": 92160,
            "time": 66.976704,
            "velocity": 0.9448818897637795
          },
          {
            "duration": 0.1744185000000016,
            "durationTicks": 240,
            "midi": 44,
            "name": "G#2",
            "ticks": 92160,
            "time": 66.976704,
            "velocity": 0.7874015748031497
          },
          {
            "duration": 0.1744185000000016,
            "durationTicks": 240,
            "midi": 36,
            "name": "C2",
            "ticks": 92640,
            "time": 67.325541,
            "velocity": 0.9448818897637795
          },
          {
            "duration": 0.1744185000000016,
            "durationTicks": 240,
            "midi": 44,
            "name": "G#2",
            "ticks": 92640,
            "time": 67.325541,
            "velocity": 0.7874015748031497
          },
          {
            "duration": 0.1744185000000016,
            "durationTicks": 240,
            "midi": 40,
            "name": "E2",
            "ticks": 93120,
            "time": 67.674378,
            "velocity": 0.9448818897637795
          },
          {
            "duration": 0.1744185000000016,
            "durationTicks": 240,
            "midi": 44,
            "name": "G#2",
            "ticks": 93120,
            "time": 67.674378,
            "velocity": 0.7874015748031497
          },
          {
            "duration": 0.17441849999998738,
            "durationTicks": 240,
            "midi": 36,
            "name": "C2",
            "ticks": 93600,
            "time": 68.02321500000001,
            "velocity": 0.9448818897637795
          },
          {
            "duration": 0.17441849999998738,
            "durationTicks": 240,
            "midi": 46,
            "name": "A#2",
            "ticks": 93600,
            "time": 68.02321500000001,
            "velocity": 0.7874015748031497
          },
          {
            "duration": 0.1744185000000016,
            "durationTicks": 240,
            "midi": 36,
            "name": "C2",
            "ticks": 94080,
            "time": 68.372052,
            "velocity": 0.9448818897637795
          },
          {
            "duration": 0.1744185000000016,
            "durationTicks": 240,
            "midi": 44,
            "name": "G#2",
            "ticks": 94080,
            "time": 68.372052,
            "velocity": 0.7874015748031497
          },
          {
            "duration": 0.1744185000000016,
            "durationTicks": 240,
            "midi": 36,
            "name": "C2",
            "ticks": 94560,
            "time": 68.720889,
            "velocity": 0.9448818897637795
          },
          {
            "duration": 0.1744185000000016,
            "durationTicks": 240,
            "midi": 44,
            "name": "G#2",
            "ticks": 94560,
            "time": 68.720889,
            "velocity": 0.7874015748031497
          },
          {
            "duration": 0.1744185000000016,
            "durationTicks": 240,
            "midi": 36,
            "name": "C2",
            "ticks": 95040,
            "time": 69.069726,
            "velocity": 0.9448818897637795
          },
          {
            "duration": 0.1744185000000016,
            "durationTicks": 240,
            "midi": 36,
            "name": "C2",
            "ticks": 95040,
            "time": 69.069726,
            "velocity": 0.9448818897637795
          },
          {
            "duration": 0.1744185000000016,
            "durationTicks": 240,
            "midi": 40,
            "name": "E2",
            "ticks": 95040,
            "time": 69.069726,
            "velocity": 0.6299212598425197
          },
          {
            "duration": 0.1744185000000016,
            "durationTicks": 240,
            "midi": 44,
            "name": "G#2",
            "ticks": 95040,
            "time": 69.069726,
            "velocity": 0.7874015748031497
          },
          {
            "duration": 0.1744185000000016,
            "durationTicks": 240,
            "midi": 44,
            "name": "G#2",
            "ticks": 95040,
            "time": 69.069726,
            "velocity": 0.7874015748031497
          },
          {
            "duration": 0.1744185000000016,
            "durationTicks": 240,
            "midi": 36,
            "name": "C2",
            "ticks": 95520,
            "time": 69.418563,
            "velocity": 0.9448818897637795
          },
          {
            "duration": 0.1744185000000016,
            "durationTicks": 240,
            "midi": 36,
            "name": "C2",
            "ticks": 95520,
            "time": 69.418563,
            "velocity": 0.9448818897637795
          },
          {
            "duration": 0.1744185000000016,
            "durationTicks": 240,
            "midi": 44,
            "name": "G#2",
            "ticks": 95520,
            "time": 69.418563,
            "velocity": 0.7874015748031497
          },
          {
            "duration": 0.1744185000000016,
            "durationTicks": 240,
            "midi": 44,
            "name": "G#2",
            "ticks": 95520,
            "time": 69.418563,
            "velocity": 0.7874015748031497
          },
          {
            "duration": 0.1744185000000016,
            "durationTicks": 240,
            "midi": 36,
            "name": "C2",
            "ticks": 96000,
            "time": 69.7674,
            "velocity": 0.9448818897637795
          },
          {
            "duration": 0.1744185000000016,
            "durationTicks": 240,
            "midi": 44,
            "name": "G#2",
            "ticks": 96000,
            "time": 69.7674,
            "velocity": 0.7874015748031497
          },
          {
            "duration": 0.1744185000000016,
            "durationTicks": 240,
            "midi": 36,
            "name": "C2",
            "ticks": 96480,
            "time": 70.116237,
            "velocity": 0.9448818897637795
          },
          {
            "duration": 0.1744185000000016,
            "durationTicks": 240,
            "midi": 44,
            "name": "G#2",
            "ticks": 96480,
            "time": 70.116237,
            "velocity": 0.7874015748031497
          },
          {
            "duration": 0.1744185000000016,
            "durationTicks": 240,
            "midi": 36,
            "name": "C2",
            "ticks": 96960,
            "time": 70.465074,
            "velocity": 0.9448818897637795
          },
          {
            "duration": 0.1744185000000016,
            "durationTicks": 240,
            "midi": 40,
            "name": "E2",
            "ticks": 96960,
            "time": 70.465074,
            "velocity": 0.6299212598425197
          },
          {
            "duration": 0.1744185000000016,
            "durationTicks": 240,
            "midi": 44,
            "name": "G#2",
            "ticks": 96960,
            "time": 70.465074,
            "velocity": 0.7874015748031497
          },
          {
            "duration": 0.1744185000000016,
            "durationTicks": 240,
            "midi": 36,
            "name": "C2",
            "ticks": 97440,
            "time": 70.813911,
            "velocity": 0.9448818897637795
          },
          {
            "duration": 0.1744185000000016,
            "durationTicks": 240,
            "midi": 44,
            "name": "G#2",
            "ticks": 97440,
            "time": 70.813911,
            "velocity": 0.7874015748031497
          },
          {
            "duration": 0.17441849999998738,
            "durationTicks": 240,
            "midi": 36,
            "name": "C2",
            "ticks": 97920,
            "time": 71.16274800000001,
            "velocity": 0.9448818897637795
          },
          {
            "duration": 0.17441849999998738,
            "durationTicks": 240,
            "midi": 44,
            "name": "G#2",
            "ticks": 97920,
            "time": 71.16274800000001,
            "velocity": 0.7874015748031497
          },
          {
            "duration": 0.1744185000000016,
            "durationTicks": 240,
            "midi": 36,
            "name": "C2",
            "ticks": 98400,
            "time": 71.511585,
            "velocity": 0.9448818897637795
          },
          {
            "duration": 0.1744185000000016,
            "durationTicks": 240,
            "midi": 44,
            "name": "G#2",
            "ticks": 98400,
            "time": 71.511585,
            "velocity": 0.7874015748031497
          },
          {
            "duration": 0.1744185000000016,
            "durationTicks": 240,
            "midi": 40,
            "name": "E2",
            "ticks": 98880,
            "time": 71.860422,
            "velocity": 0.9448818897637795
          },
          {
            "duration": 0.1744185000000016,
            "durationTicks": 240,
            "midi": 44,
            "name": "G#2",
            "ticks": 98880,
            "time": 71.860422,
            "velocity": 0.7874015748031497
          },
          {
            "duration": 0.1744185000000016,
            "durationTicks": 240,
            "midi": 36,
            "name": "C2",
            "ticks": 99360,
            "time": 72.209259,
            "velocity": 0.9448818897637795
          },
          {
            "duration": 0.1744185000000016,
            "durationTicks": 240,
            "midi": 44,
            "name": "G#2",
            "ticks": 99360,
            "time": 72.209259,
            "velocity": 0.7874015748031497
          },
          {
            "duration": 0.1744185000000016,
            "durationTicks": 240,
            "midi": 36,
            "name": "C2",
            "ticks": 99840,
            "time": 72.558096,
            "velocity": 0.9448818897637795
          },
          {
            "duration": 0.1744185000000016,
            "durationTicks": 240,
            "midi": 44,
            "name": "G#2",
            "ticks": 99840,
            "time": 72.558096,
            "velocity": 0.7874015748031497
          },
          {
            "duration": 0.1744185000000016,
            "durationTicks": 240,
            "midi": 36,
            "name": "C2",
            "ticks": 100320,
            "time": 72.906933,
            "velocity": 0.9448818897637795
          },
          {
            "duration": 0.1744185000000016,
            "durationTicks": 240,
            "midi": 44,
            "name": "G#2",
            "ticks": 100320,
            "time": 72.906933,
            "velocity": 0.7874015748031497
          },
          {
            "duration": 0.1744185000000016,
            "durationTicks": 240,
            "midi": 40,
            "name": "E2",
            "ticks": 100800,
            "time": 73.25577,
            "velocity": 0.9448818897637795
          },
          {
            "duration": 0.1744185000000016,
            "durationTicks": 240,
            "midi": 44,
            "name": "G#2",
            "ticks": 100800,
            "time": 73.25577,
            "velocity": 0.7874015748031497
          },
          {
            "duration": 0.1744185000000016,
            "durationTicks": 240,
            "midi": 36,
            "name": "C2",
            "ticks": 101280,
            "time": 73.604607,
            "velocity": 0.9448818897637795
          },
          {
            "duration": 0.1744185000000016,
            "durationTicks": 240,
            "midi": 46,
            "name": "A#2",
            "ticks": 101280,
            "time": 73.604607,
            "velocity": 0.7874015748031497
          },
          {
            "duration": 0.1744185000000016,
            "durationTicks": 240,
            "midi": 36,
            "name": "C2",
            "ticks": 101760,
            "time": 73.953444,
            "velocity": 0.9448818897637795
          },
          {
            "duration": 0.1744185000000016,
            "durationTicks": 240,
            "midi": 44,
            "name": "G#2",
            "ticks": 101760,
            "time": 73.953444,
            "velocity": 0.7874015748031497
          },
          {
            "duration": 0.17441849999998738,
            "durationTicks": 240,
            "midi": 36,
            "name": "C2",
            "ticks": 102240,
            "time": 74.30228100000001,
            "velocity": 0.9448818897637795
          },
          {
            "duration": 0.17441849999998738,
            "durationTicks": 240,
            "midi": 44,
            "name": "G#2",
            "ticks": 102240,
            "time": 74.30228100000001,
            "velocity": 0.7874015748031497
          },
          {
            "duration": 0.1744185000000016,
            "durationTicks": 240,
            "midi": 40,
            "name": "E2",
            "ticks": 102720,
            "time": 74.651118,
            "velocity": 0.9448818897637795
          },
          {
            "duration": 0.1744185000000016,
            "durationTicks": 240,
            "midi": 44,
            "name": "G#2",
            "ticks": 102720,
            "time": 74.651118,
            "velocity": 0.7874015748031497
          },
          {
            "duration": 0.1744185000000016,
            "durationTicks": 240,
            "midi": 36,
            "name": "C2",
            "ticks": 103200,
            "time": 74.999955,
            "velocity": 0.9448818897637795
          },
          {
            "duration": 0.1744185000000016,
            "durationTicks": 240,
            "midi": 44,
            "name": "G#2",
            "ticks": 103200,
            "time": 74.999955,
            "velocity": 0.7874015748031497
          },
          {
            "duration": 0.1744185000000016,
            "durationTicks": 240,
            "midi": 36,
            "name": "C2",
            "ticks": 103680,
            "time": 75.348792,
            "velocity": 0.9448818897637795
          },
          {
            "duration": 0.1744185000000016,
            "durationTicks": 240,
            "midi": 44,
            "name": "G#2",
            "ticks": 103680,
            "time": 75.348792,
            "velocity": 0.7874015748031497
          },
          {
            "duration": 0.1744185000000016,
            "durationTicks": 240,
            "midi": 36,
            "name": "C2",
            "ticks": 104160,
            "time": 75.697629,
            "velocity": 0.9448818897637795
          },
          {
            "duration": 0.1744185000000016,
            "durationTicks": 240,
            "midi": 44,
            "name": "G#2",
            "ticks": 104160,
            "time": 75.697629,
            "velocity": 0.7874015748031497
          },
          {
            "duration": 0.1744185000000016,
            "durationTicks": 240,
            "midi": 40,
            "name": "E2",
            "ticks": 104640,
            "time": 76.046466,
            "velocity": 0.9448818897637795
          },
          {
            "duration": 0.1744185000000016,
            "durationTicks": 240,
            "midi": 44,
            "name": "G#2",
            "ticks": 104640,
            "time": 76.046466,
            "velocity": 0.7874015748031497
          },
          {
            "duration": 0.1744185000000016,
            "durationTicks": 240,
            "midi": 36,
            "name": "C2",
            "ticks": 105120,
            "time": 76.395303,
            "velocity": 0.9448818897637795
          },
          {
            "duration": 0.1744185000000016,
            "durationTicks": 240,
            "midi": 44,
            "name": "G#2",
            "ticks": 105120,
            "time": 76.395303,
            "velocity": 0.7874015748031497
          },
          {
            "duration": 0.1744185000000016,
            "durationTicks": 240,
            "midi": 36,
            "name": "C2",
            "ticks": 105600,
            "time": 76.74414,
            "velocity": 0.9448818897637795
          },
          {
            "duration": 0.1744185000000016,
            "durationTicks": 240,
            "midi": 44,
            "name": "G#2",
            "ticks": 105600,
            "time": 76.74414,
            "velocity": 0.7874015748031497
          },
          {
            "duration": 0.1744185000000016,
            "durationTicks": 240,
            "midi": 36,
            "name": "C2",
            "ticks": 106080,
            "time": 77.092977,
            "velocity": 0.9448818897637795
          },
          {
            "duration": 0.1744185000000016,
            "durationTicks": 240,
            "midi": 44,
            "name": "G#2",
            "ticks": 106080,
            "time": 77.092977,
            "velocity": 0.7874015748031497
          },
          {
            "duration": 0.17441849999998738,
            "durationTicks": 240,
            "midi": 40,
            "name": "E2",
            "ticks": 106560,
            "time": 77.44181400000001,
            "velocity": 0.9448818897637795
          },
          {
            "duration": 0.17441849999998738,
            "durationTicks": 240,
            "midi": 44,
            "name": "G#2",
            "ticks": 106560,
            "time": 77.44181400000001,
            "velocity": 0.7874015748031497
          },
          {
            "duration": 0.1744185000000016,
            "durationTicks": 240,
            "midi": 36,
            "name": "C2",
            "ticks": 107040,
            "time": 77.790651,
            "velocity": 0.9448818897637795
          },
          {
            "duration": 0.1744185000000016,
            "durationTicks": 240,
            "midi": 44,
            "name": "G#2",
            "ticks": 107040,
            "time": 77.790651,
            "velocity": 0.7874015748031497
          },
          {
            "duration": 0.1744185000000016,
            "durationTicks": 240,
            "midi": 36,
            "name": "C2",
            "ticks": 107520,
            "time": 78.139488,
            "velocity": 0.9448818897637795
          },
          {
            "duration": 0.1744185000000016,
            "durationTicks": 240,
            "midi": 44,
            "name": "G#2",
            "ticks": 107520,
            "time": 78.139488,
            "velocity": 0.7874015748031497
          },
          {
            "duration": 0.1744185000000016,
            "durationTicks": 240,
            "midi": 36,
            "name": "C2",
            "ticks": 108000,
            "time": 78.488325,
            "velocity": 0.9448818897637795
          },
          {
            "duration": 0.1744185000000016,
            "durationTicks": 240,
            "midi": 44,
            "name": "G#2",
            "ticks": 108000,
            "time": 78.488325,
            "velocity": 0.7874015748031497
          },
          {
            "duration": 0.1744185000000016,
            "durationTicks": 240,
            "midi": 40,
            "name": "E2",
            "ticks": 108480,
            "time": 78.837162,
            "velocity": 0.9448818897637795
          },
          {
            "duration": 0.1744185000000016,
            "durationTicks": 240,
            "midi": 44,
            "name": "G#2",
            "ticks": 108480,
            "time": 78.837162,
            "velocity": 0.7874015748031497
          },
          {
            "duration": 0.1744185000000016,
            "durationTicks": 240,
            "midi": 36,
            "name": "C2",
            "ticks": 108960,
            "time": 79.185999,
            "velocity": 0.9448818897637795
          },
          {
            "duration": 0.1744185000000016,
            "durationTicks": 240,
            "midi": 46,
            "name": "A#2",
            "ticks": 108960,
            "time": 79.185999,
            "velocity": 0.7874015748031497
          },
          {
            "duration": 0.1744185000000016,
            "durationTicks": 240,
            "midi": 36,
            "name": "C2",
            "ticks": 109440,
            "time": 79.534836,
            "velocity": 0.9448818897637795
          },
          {
            "duration": 0.1744185000000016,
            "durationTicks": 240,
            "midi": 44,
            "name": "G#2",
            "ticks": 109440,
            "time": 79.534836,
            "velocity": 0.7874015748031497
          },
          {
            "duration": 0.1744185000000016,
            "durationTicks": 240,
            "midi": 36,
            "name": "C2",
            "ticks": 109920,
            "time": 79.883673,
            "velocity": 0.9448818897637795
          },
          {
            "duration": 0.1744185000000016,
            "durationTicks": 240,
            "midi": 44,
            "name": "G#2",
            "ticks": 109920,
            "time": 79.883673,
            "velocity": 0.7874015748031497
          },
          {
            "duration": 0.1744185000000016,
            "durationTicks": 240,
            "midi": 40,
            "name": "E2",
            "ticks": 110400,
            "time": 80.23251,
            "velocity": 0.9448818897637795
          },
          {
            "duration": 0.1744185000000016,
            "durationTicks": 240,
            "midi": 44,
            "name": "G#2",
            "ticks": 110400,
            "time": 80.23251,
            "velocity": 0.7874015748031497
          },
          {
            "duration": 0.17441849999998738,
            "durationTicks": 240,
            "midi": 36,
            "name": "C2",
            "ticks": 110880,
            "time": 80.58134700000001,
            "velocity": 0.9448818897637795
          },
          {
            "duration": 0.17441849999998738,
            "durationTicks": 240,
            "midi": 44,
            "name": "G#2",
            "ticks": 110880,
            "time": 80.58134700000001,
            "velocity": 0.7874015748031497
          },
          {
            "duration": 0.1744185000000016,
            "durationTicks": 240,
            "midi": 36,
            "name": "C2",
            "ticks": 111360,
            "time": 80.930184,
            "velocity": 0.9448818897637795
          },
          {
            "duration": 0.1744185000000016,
            "durationTicks": 240,
            "midi": 44,
            "name": "G#2",
            "ticks": 111360,
            "time": 80.930184,
            "velocity": 0.7874015748031497
          },
          {
            "duration": 0.1744185000000016,
            "durationTicks": 240,
            "midi": 36,
            "name": "C2",
            "ticks": 111840,
            "time": 81.279021,
            "velocity": 0.9448818897637795
          },
          {
            "duration": 0.1744185000000016,
            "durationTicks": 240,
            "midi": 44,
            "name": "G#2",
            "ticks": 111840,
            "time": 81.279021,
            "velocity": 0.7874015748031497
          },
          {
            "duration": 0.1744185000000016,
            "durationTicks": 240,
            "midi": 40,
            "name": "E2",
            "ticks": 112320,
            "time": 81.627858,
            "velocity": 0.9448818897637795
          },
          {
            "duration": 0.1744185000000016,
            "durationTicks": 240,
            "midi": 44,
            "name": "G#2",
            "ticks": 112320,
            "time": 81.627858,
            "velocity": 0.7874015748031497
          },
          {
            "duration": 0.1744185000000016,
            "durationTicks": 240,
            "midi": 36,
            "name": "C2",
            "ticks": 112800,
            "time": 81.976695,
            "velocity": 0.9448818897637795
          },
          {
            "duration": 0.1744185000000016,
            "durationTicks": 240,
            "midi": 44,
            "name": "G#2",
            "ticks": 112800,
            "time": 81.976695,
            "velocity": 0.7874015748031497
          },
          {
            "duration": 0.1744185000000016,
            "durationTicks": 240,
            "midi": 36,
            "name": "C2",
            "ticks": 113280,
            "time": 82.325532,
            "velocity": 0.9448818897637795
          },
          {
            "duration": 0.1744185000000016,
            "durationTicks": 240,
            "midi": 44,
            "name": "G#2",
            "ticks": 113280,
            "time": 82.325532,
            "velocity": 0.7874015748031497
          },
          {
            "duration": 0.1744185000000016,
            "durationTicks": 240,
            "midi": 36,
            "name": "C2",
            "ticks": 113760,
            "time": 82.674369,
            "velocity": 0.9448818897637795
          },
          {
            "duration": 0.1744185000000016,
            "durationTicks": 240,
            "midi": 44,
            "name": "G#2",
            "ticks": 113760,
            "time": 82.674369,
            "velocity": 0.7874015748031497
          },
          {
            "duration": 0.1744185000000016,
            "durationTicks": 240,
            "midi": 40,
            "name": "E2",
            "ticks": 114240,
            "time": 83.023206,
            "velocity": 0.9448818897637795
          },
          {
            "duration": 0.1744185000000016,
            "durationTicks": 240,
            "midi": 44,
            "name": "G#2",
            "ticks": 114240,
            "time": 83.023206,
            "velocity": 0.7874015748031497
          },
          {
            "duration": 0.1744185000000016,
            "durationTicks": 240,
            "midi": 36,
            "name": "C2",
            "ticks": 114720,
            "time": 83.372043,
            "velocity": 0.9448818897637795
          },
          {
            "duration": 0.1744185000000016,
            "durationTicks": 240,
            "midi": 44,
            "name": "G#2",
            "ticks": 114720,
            "time": 83.372043,
            "velocity": 0.7874015748031497
          },
          {
            "duration": 0.17441849999998738,
            "durationTicks": 240,
            "midi": 36,
            "name": "C2",
            "ticks": 115200,
            "time": 83.72088000000001,
            "velocity": 0.9448818897637795
          },
          {
            "duration": 0.17441849999998738,
            "durationTicks": 240,
            "midi": 44,
            "name": "G#2",
            "ticks": 115200,
            "time": 83.72088000000001,
            "velocity": 0.7874015748031497
          },
          {
            "duration": 0.1744185000000016,
            "durationTicks": 240,
            "midi": 36,
            "name": "C2",
            "ticks": 115680,
            "time": 84.069717,
            "velocity": 0.9448818897637795
          },
          {
            "duration": 0.1744185000000016,
            "durationTicks": 240,
            "midi": 44,
            "name": "G#2",
            "ticks": 115680,
            "time": 84.069717,
            "velocity": 0.7874015748031497
          },
          {
            "duration": 0.1744185000000016,
            "durationTicks": 240,
            "midi": 40,
            "name": "E2",
            "ticks": 116160,
            "time": 84.418554,
            "velocity": 0.9448818897637795
          },
          {
            "duration": 0.1744185000000016,
            "durationTicks": 240,
            "midi": 44,
            "name": "G#2",
            "ticks": 116160,
            "time": 84.418554,
            "velocity": 0.7874015748031497
          },
          {
            "duration": 0.1744185000000016,
            "durationTicks": 240,
            "midi": 36,
            "name": "C2",
            "ticks": 116640,
            "time": 84.767391,
            "velocity": 0.9448818897637795
          },
          {
            "duration": 0.1744185000000016,
            "durationTicks": 240,
            "midi": 46,
            "name": "A#2",
            "ticks": 116640,
            "time": 84.767391,
            "velocity": 0.7874015748031497
          },
          {
            "duration": 0.15988362499999198,
            "durationTicks": 220,
            "midi": 36,
            "name": "C2",
            "ticks": 117120,
            "time": 85.116228,
            "velocity": 0.9448818897637795
          },
          {
            "duration": 0.15988362499999198,
            "durationTicks": 220,
            "midi": 46,
            "name": "A#2",
            "ticks": 117120,
            "time": 85.116228,
            "velocity": 0.9448818897637795
          },
          {
            "duration": 0.1598836250000062,
            "durationTicks": 220,
            "midi": 36,
            "name": "C2",
            "ticks": 117600,
            "time": 85.465065,
            "velocity": 0.9448818897637795
          },
          {
            "duration": 0.1598836250000062,
            "durationTicks": 220,
            "midi": 46,
            "name": "A#2",
            "ticks": 117600,
            "time": 85.465065,
            "velocity": 0.9448818897637795
          },
          {
            "duration": 0.1598836250000062,
            "durationTicks": 220,
            "midi": 40,
            "name": "E2",
            "ticks": 118080,
            "time": 85.813902,
            "velocity": 0.9448818897637795
          },
          {
            "duration": 0.1598836250000062,
            "durationTicks": 220,
            "midi": 46,
            "name": "A#2",
            "ticks": 118080,
            "time": 85.813902,
            "velocity": 0.9448818897637795
          },
          {
            "duration": 0.1598836250000062,
            "durationTicks": 220,
            "midi": 36,
            "name": "C2",
            "ticks": 118560,
            "time": 86.162739,
            "velocity": 0.9448818897637795
          },
          {
            "duration": 0.1598836250000062,
            "durationTicks": 220,
            "midi": 46,
            "name": "A#2",
            "ticks": 118560,
            "time": 86.162739,
            "velocity": 0.9448818897637795
          },
          {
            "duration": 0.1744185000000016,
            "durationTicks": 240,
            "midi": 36,
            "name": "C2",
            "ticks": 119040,
            "time": 86.511576,
            "velocity": 0.9448818897637795
          },
          {
            "duration": 0.1598836250000062,
            "durationTicks": 220,
            "midi": 46,
            "name": "A#2",
            "ticks": 119040,
            "time": 86.511576,
            "velocity": 0.9448818897637795
          },
          {
            "duration": 0.17441849999998738,
            "durationTicks": 240,
            "midi": 36,
            "name": "C2",
            "ticks": 119520,
            "time": 86.86041300000001,
            "velocity": 0.9448818897637795
          },
          {
            "duration": 0.15988362499999198,
            "durationTicks": 220,
            "midi": 46,
            "name": "A#2",
            "ticks": 119520,
            "time": 86.86041300000001,
            "velocity": 0.9448818897637795
          },
          {
            "duration": 0.1744185000000016,
            "durationTicks": 240,
            "midi": 40,
            "name": "E2",
            "ticks": 120000,
            "time": 87.20925,
            "velocity": 0.9448818897637795
          },
          {
            "duration": 0.1598836250000062,
            "durationTicks": 220,
            "midi": 46,
            "name": "A#2",
            "ticks": 120000,
            "time": 87.20925,
            "velocity": 0.9448818897637795
          },
          {
            "duration": 0.1744185000000016,
            "durationTicks": 240,
            "midi": 36,
            "name": "C2",
            "ticks": 120480,
            "time": 87.558087,
            "velocity": 0.9448818897637795
          },
          {
            "duration": 0.1598836250000062,
            "durationTicks": 220,
            "midi": 46,
            "name": "A#2",
            "ticks": 120480,
            "time": 87.558087,
            "velocity": 0.9448818897637795
          },
          {
            "duration": 0.1744185000000016,
            "durationTicks": 240,
            "midi": 36,
            "name": "C2",
            "ticks": 120960,
            "time": 87.906924,
            "velocity": 0.9448818897637795
          },
          {
            "duration": 0.1598836250000062,
            "durationTicks": 220,
            "midi": 46,
            "name": "A#2",
            "ticks": 120960,
            "time": 87.906924,
            "velocity": 0.9448818897637795
          },
          {
            "duration": 0.15988362499999198,
            "durationTicks": 220,
            "midi": 36,
            "name": "C2",
            "ticks": 121440,
            "time": 88.255761,
            "velocity": 0.9448818897637795
          },
          {
            "duration": 0.15988362499999198,
            "durationTicks": 220,
            "midi": 46,
            "name": "A#2",
            "ticks": 121440,
            "time": 88.255761,
            "velocity": 0.9448818897637795
          },
          {
            "duration": 0.1744185000000016,
            "durationTicks": 240,
            "midi": 40,
            "name": "E2",
            "ticks": 121920,
            "time": 88.604598,
            "velocity": 0.9448818897637795
          },
          {
            "duration": 0.1598836250000062,
            "durationTicks": 220,
            "midi": 46,
            "name": "A#2",
            "ticks": 121920,
            "time": 88.604598,
            "velocity": 0.9448818897637795
          },
          {
            "duration": 0.1744185000000016,
            "durationTicks": 240,
            "midi": 36,
            "name": "C2",
            "ticks": 122400,
            "time": 88.953435,
            "velocity": 0.9448818897637795
          },
          {
            "duration": 0.1598836250000062,
            "durationTicks": 220,
            "midi": 46,
            "name": "A#2",
            "ticks": 122400,
            "time": 88.953435,
            "velocity": 0.9448818897637795
          },
          {
            "duration": 0.1744185000000016,
            "durationTicks": 240,
            "midi": 36,
            "name": "C2",
            "ticks": 122880,
            "time": 89.302272,
            "velocity": 0.9448818897637795
          },
          {
            "duration": 0.15988362499999198,
            "durationTicks": 220,
            "midi": 46,
            "name": "A#2",
            "ticks": 122880,
            "time": 89.302272,
            "velocity": 0.9448818897637795
          },
          {
            "duration": 0.1744185000000016,
            "durationTicks": 240,
            "midi": 36,
            "name": "C2",
            "ticks": 123360,
            "time": 89.651109,
            "velocity": 0.9448818897637795
          },
          {
            "duration": 0.15988362499999198,
            "durationTicks": 220,
            "midi": 46,
            "name": "A#2",
            "ticks": 123360,
            "time": 89.651109,
            "velocity": 0.9448818897637795
          },
          {
            "duration": 0.17441849999998738,
            "durationTicks": 240,
            "midi": 40,
            "name": "E2",
            "ticks": 123840,
            "time": 89.99994600000001,
            "velocity": 0.9448818897637795
          },
          {
            "duration": 0.15988362499999198,
            "durationTicks": 220,
            "midi": 46,
            "name": "A#2",
            "ticks": 123840,
            "time": 89.99994600000001,
            "velocity": 0.9448818897637795
          },
          {
            "duration": 0.1744185000000016,
            "durationTicks": 240,
            "midi": 36,
            "name": "C2",
            "ticks": 124320,
            "time": 90.348783,
            "velocity": 0.9448818897637795
          },
          {
            "duration": 0.15988362499999198,
            "durationTicks": 220,
            "midi": 46,
            "name": "A#2",
            "ticks": 124320,
            "time": 90.348783,
            "velocity": 0.9448818897637795
          },
          {
            "duration": 0.1744185000000016,
            "durationTicks": 240,
            "midi": 36,
            "name": "C2",
            "ticks": 124800,
            "time": 90.69762,
            "velocity": 0.9448818897637795
          },
          {
            "duration": 0.15988362499999198,
            "durationTicks": 220,
            "midi": 49,
            "name": "C#3",
            "ticks": 124800,
            "time": 90.69762,
            "velocity": 0.9448818897637795
          },
          {
            "duration": 0.15988362499999198,
            "durationTicks": 220,
            "midi": 51,
            "name": "D#3",
            "ticks": 125280,
            "time": 91.046457,
            "velocity": 0.9448818897637795
          },
          {
            "duration": 0.1744185000000016,
            "durationTicks": 240,
            "midi": 40,
            "name": "E2",
            "ticks": 125760,
            "time": 91.395294,
            "velocity": 0.9448818897637795
          },
          {
            "duration": 0.15988362499999198,
            "durationTicks": 220,
            "midi": 51,
            "name": "D#3",
            "ticks": 125760,
            "time": 91.395294,
            "velocity": 0.9448818897637795
          },
          {
            "duration": 0.1744185000000016,
            "durationTicks": 240,
            "midi": 36,
            "name": "C2",
            "ticks": 126240,
            "time": 91.744131,
            "velocity": 0.9448818897637795
          },
          {
            "duration": 0.1598836250000062,
            "durationTicks": 220,
            "midi": 51,
            "name": "D#3",
            "ticks": 126240,
            "time": 91.744131,
            "velocity": 0.9448818897637795
          },
          {
            "duration": 0.1744185000000016,
            "durationTicks": 240,
            "midi": 36,
            "name": "C2",
            "ticks": 126720,
            "time": 92.092968,
            "velocity": 0.9448818897637795
          },
          {
            "duration": 0.15988362499999198,
            "durationTicks": 220,
            "midi": 51,
            "name": "D#3",
            "ticks": 126720,
            "time": 92.092968,
            "velocity": 0.9448818897637795
          },
          {
            "duration": 0.1744185000000016,
            "durationTicks": 240,
            "midi": 36,
            "name": "C2",
            "ticks": 127200,
            "time": 92.441805,
            "velocity": 0.9448818897637795
          },
          {
            "duration": 0.15988362499999198,
            "durationTicks": 220,
            "midi": 51,
            "name": "D#3",
            "ticks": 127200,
            "time": 92.441805,
            "velocity": 0.9448818897637795
          },
          {
            "duration": 0.1744185000000016,
            "durationTicks": 240,
            "midi": 40,
            "name": "E2",
            "ticks": 127680,
            "time": 92.790642,
            "velocity": 0.9448818897637795
          },
          {
            "duration": 0.15988362499999198,
            "durationTicks": 220,
            "midi": 51,
            "name": "D#3",
            "ticks": 127680,
            "time": 92.790642,
            "velocity": 0.9448818897637795
          },
          {
            "duration": 0.15988362499999198,
            "durationTicks": 220,
            "midi": 51,
            "name": "D#3",
            "ticks": 128160,
            "time": 93.13947900000001,
            "velocity": 0.9448818897637795
          },
          {
            "duration": 0.1744185000000016,
            "durationTicks": 240,
            "midi": 36,
            "name": "C2",
            "ticks": 128640,
            "time": 93.488316,
            "velocity": 0.9448818897637795
          },
          {
            "duration": 0.15988362499999198,
            "durationTicks": 220,
            "midi": 51,
            "name": "D#3",
            "ticks": 128640,
            "time": 93.488316,
            "velocity": 0.9448818897637795
          },
          {
            "duration": 0.15988362499999198,
            "durationTicks": 220,
            "midi": 51,
            "name": "D#3",
            "ticks": 129120,
            "time": 93.837153,
            "velocity": 0.9448818897637795
          },
          {
            "duration": 0.1744185000000016,
            "durationTicks": 240,
            "midi": 40,
            "name": "E2",
            "ticks": 129600,
            "time": 94.18599,
            "velocity": 0.9448818897637795
          },
          {
            "duration": 0.15988362499999198,
            "durationTicks": 220,
            "midi": 51,
            "name": "D#3",
            "ticks": 129600,
            "time": 94.18599,
            "velocity": 0.9448818897637795
          },
          {
            "duration": 0.1744185000000016,
            "durationTicks": 240,
            "midi": 36,
            "name": "C2",
            "ticks": 130080,
            "time": 94.534827,
            "velocity": 0.9448818897637795
          },
          {
            "duration": 0.15988362499999198,
            "durationTicks": 220,
            "midi": 51,
            "name": "D#3",
            "ticks": 130080,
            "time": 94.534827,
            "velocity": 0.9448818897637795
          },
          {
            "duration": 0.1744185000000016,
            "durationTicks": 240,
            "midi": 36,
            "name": "C2",
            "ticks": 130560,
            "time": 94.883664,
            "velocity": 0.9448818897637795
          },
          {
            "duration": 0.1598836250000062,
            "durationTicks": 220,
            "midi": 51,
            "name": "D#3",
            "ticks": 130560,
            "time": 94.883664,
            "velocity": 0.9448818897637795
          },
          {
            "duration": 0.1744185000000016,
            "durationTicks": 240,
            "midi": 36,
            "name": "C2",
            "ticks": 131040,
            "time": 95.232501,
            "velocity": 0.9448818897637795
          },
          {
            "duration": 0.15988362499999198,
            "durationTicks": 220,
            "midi": 51,
            "name": "D#3",
            "ticks": 131040,
            "time": 95.232501,
            "velocity": 0.9448818897637795
          },
          {
            "duration": 0.1744185000000016,
            "durationTicks": 240,
            "midi": 40,
            "name": "E2",
            "ticks": 131520,
            "time": 95.581338,
            "velocity": 0.9448818897637795
          },
          {
            "duration": 0.15988362499999198,
            "durationTicks": 220,
            "midi": 51,
            "name": "D#3",
            "ticks": 131520,
            "time": 95.581338,
            "velocity": 0.9448818897637795
          },
          {
            "duration": 0.15988362499999198,
            "durationTicks": 220,
            "midi": 51,
            "name": "D#3",
            "ticks": 132000,
            "time": 95.930175,
            "velocity": 0.9448818897637795
          },
          {
            "duration": 0.17441849999998738,
            "durationTicks": 240,
            "midi": 36,
            "name": "C2",
            "ticks": 132480,
            "time": 96.27901200000001,
            "velocity": 0.9448818897637795
          },
          {
            "duration": 0.15988362499999198,
            "durationTicks": 220,
            "midi": 51,
            "name": "D#3",
            "ticks": 132480,
            "time": 96.27901200000001,
            "velocity": 0.9448818897637795
          },
          {
            "duration": 0.15988362499999198,
            "durationTicks": 220,
            "midi": 51,
            "name": "D#3",
            "ticks": 132960,
            "time": 96.627849,
            "velocity": 0.9448818897637795
          },
          {
            "duration": 0.1744185000000016,
            "durationTicks": 240,
            "midi": 40,
            "name": "E2",
            "ticks": 133440,
            "time": 96.976686,
            "velocity": 0.9448818897637795
          },
          {
            "duration": 0.15988362499999198,
            "durationTicks": 220,
            "midi": 51,
            "name": "D#3",
            "ticks": 133440,
            "time": 96.976686,
            "velocity": 0.9448818897637795
          },
          {
            "duration": 0.1744185000000016,
            "durationTicks": 240,
            "midi": 36,
            "name": "C2",
            "ticks": 133920,
            "time": 97.325523,
            "velocity": 0.9448818897637795
          },
          {
            "duration": 0.15988362499999198,
            "durationTicks": 220,
            "midi": 51,
            "name": "D#3",
            "ticks": 133920,
            "time": 97.325523,
            "velocity": 0.9448818897637795
          },
          {
            "duration": 0.1744185000000016,
            "durationTicks": 240,
            "midi": 36,
            "name": "C2",
            "ticks": 134400,
            "time": 97.67436000000001,
            "velocity": 0.9448818897637795
          },
          {
            "duration": 0.15988362499999198,
            "durationTicks": 220,
            "midi": 51,
            "name": "D#3",
            "ticks": 134400,
            "time": 97.67436000000001,
            "velocity": 0.9448818897637795
          },
          {
            "duration": 0.1744185000000016,
            "durationTicks": 240,
            "midi": 36,
            "name": "C2",
            "ticks": 134880,
            "time": 98.023197,
            "velocity": 0.9448818897637795
          },
          {
            "duration": 0.1598836250000062,
            "durationTicks": 220,
            "midi": 51,
            "name": "D#3",
            "ticks": 134880,
            "time": 98.023197,
            "velocity": 0.9448818897637795
          },
          {
            "duration": 0.1744185000000016,
            "durationTicks": 240,
            "midi": 40,
            "name": "E2",
            "ticks": 135360,
            "time": 98.372034,
            "velocity": 0.9448818897637795
          },
          {
            "duration": 0.15988362499999198,
            "durationTicks": 220,
            "midi": 51,
            "name": "D#3",
            "ticks": 135360,
            "time": 98.372034,
            "velocity": 0.9448818897637795
          },
          {
            "duration": 0.1744185000000016,
            "durationTicks": 240,
            "midi": 36,
            "name": "C2",
            "ticks": 135840,
            "time": 98.720871,
            "velocity": 0.9448818897637795
          },
          {
            "duration": 0.15988362499999198,
            "durationTicks": 220,
            "midi": 51,
            "name": "D#3",
            "ticks": 135840,
            "time": 98.720871,
            "velocity": 0.9448818897637795
          },
          {
            "duration": 0.1744185000000016,
            "durationTicks": 240,
            "midi": 36,
            "name": "C2",
            "ticks": 136320,
            "time": 99.069708,
            "velocity": 0.9448818897637795
          },
          {
            "duration": 0.15988362499999198,
            "durationTicks": 220,
            "midi": 51,
            "name": "D#3",
            "ticks": 136320,
            "time": 99.069708,
            "velocity": 0.9448818897637795
          },
          {
            "duration": 0.15988362499999198,
            "durationTicks": 220,
            "midi": 51,
            "name": "D#3",
            "ticks": 136800,
            "time": 99.41854500000001,
            "velocity": 0.9448818897637795
          },
          {
            "duration": 0.1744185000000016,
            "durationTicks": 240,
            "midi": 40,
            "name": "E2",
            "ticks": 137280,
            "time": 99.767382,
            "velocity": 0.9448818897637795
          },
          {
            "duration": 0.15988362499999198,
            "durationTicks": 220,
            "midi": 51,
            "name": "D#3",
            "ticks": 137280,
            "time": 99.767382,
            "velocity": 0.9448818897637795
          },
          {
            "duration": 0.1744185000000016,
            "durationTicks": 240,
            "midi": 36,
            "name": "C2",
            "ticks": 137760,
            "time": 100.116219,
            "velocity": 0.9448818897637795
          },
          {
            "duration": 0.15988362499999198,
            "durationTicks": 220,
            "midi": 51,
            "name": "D#3",
            "ticks": 137760,
            "time": 100.116219,
            "velocity": 0.9448818897637795
          },
          {
            "duration": 0.1744185000000016,
            "durationTicks": 240,
            "midi": 36,
            "name": "C2",
            "ticks": 138240,
            "time": 100.465056,
            "velocity": 0.9448818897637795
          },
          {
            "duration": 0.15988362499999198,
            "durationTicks": 220,
            "midi": 51,
            "name": "D#3",
            "ticks": 138240,
            "time": 100.465056,
            "velocity": 0.9448818897637795
          },
          {
            "duration": 0.1744185000000016,
            "durationTicks": 240,
            "midi": 36,
            "name": "C2",
            "ticks": 138720,
            "time": 100.81389300000001,
            "velocity": 0.9448818897637795
          },
          {
            "duration": 0.15988362499999198,
            "durationTicks": 220,
            "midi": 51,
            "name": "D#3",
            "ticks": 138720,
            "time": 100.81389300000001,
            "velocity": 0.9448818897637795
          },
          {
            "duration": 0.1744185000000016,
            "durationTicks": 240,
            "midi": 40,
            "name": "E2",
            "ticks": 139200,
            "time": 101.16273,
            "velocity": 0.9448818897637795
          },
          {
            "duration": 0.1598836250000062,
            "durationTicks": 220,
            "midi": 51,
            "name": "D#3",
            "ticks": 139200,
            "time": 101.16273,
            "velocity": 0.9448818897637795
          },
          {
            "duration": 0.1744185000000016,
            "durationTicks": 240,
            "midi": 36,
            "name": "C2",
            "ticks": 139680,
            "time": 101.511567,
            "velocity": 0.9448818897637795
          },
          {
            "duration": 0.15988362499999198,
            "durationTicks": 220,
            "midi": 51,
            "name": "D#3",
            "ticks": 139680,
            "time": 101.511567,
            "velocity": 0.9448818897637795
          },
          {
            "duration": 0.1744185000000016,
            "durationTicks": 240,
            "midi": 36,
            "name": "C2",
            "ticks": 140160,
            "time": 101.860404,
            "velocity": 0.9448818897637795
          },
          {
            "duration": 0.15988362499999198,
            "durationTicks": 220,
            "midi": 51,
            "name": "D#3",
            "ticks": 140160,
            "time": 101.860404,
            "velocity": 0.9448818897637795
          },
          {
            "duration": 0.15988362499999198,
            "durationTicks": 220,
            "midi": 51,
            "name": "D#3",
            "ticks": 140640,
            "time": 102.209241,
            "velocity": 0.9448818897637795
          },
          {
            "duration": 0.17441849999998738,
            "durationTicks": 240,
            "midi": 40,
            "name": "E2",
            "ticks": 141120,
            "time": 102.55807800000001,
            "velocity": 0.9448818897637795
          },
          {
            "duration": 0.15988362499999198,
            "durationTicks": 220,
            "midi": 51,
            "name": "D#3",
            "ticks": 141120,
            "time": 102.55807800000001,
            "velocity": 0.9448818897637795
          },
          {
            "duration": 0.1744185000000016,
            "durationTicks": 240,
            "midi": 36,
            "name": "C2",
            "ticks": 141600,
            "time": 102.906915,
            "velocity": 0.9448818897637795
          },
          {
            "duration": 0.15988362499999198,
            "durationTicks": 220,
            "midi": 51,
            "name": "D#3",
            "ticks": 141600,
            "time": 102.906915,
            "velocity": 0.9448818897637795
          },
          {
            "duration": 0.1744185000000016,
            "durationTicks": 240,
            "midi": 36,
            "name": "C2",
            "ticks": 142080,
            "time": 103.255752,
            "velocity": 0.9448818897637795
          },
          {
            "duration": 0.15988362499999198,
            "durationTicks": 220,
            "midi": 51,
            "name": "D#3",
            "ticks": 142080,
            "time": 103.255752,
            "velocity": 0.9448818897637795
          },
          {
            "duration": 0.1744185000000016,
            "durationTicks": 240,
            "midi": 36,
            "name": "C2",
            "ticks": 142560,
            "time": 103.604589,
            "velocity": 0.9448818897637795
          },
          {
            "duration": 0.15988362499999198,
            "durationTicks": 220,
            "midi": 51,
            "name": "D#3",
            "ticks": 142560,
            "time": 103.604589,
            "velocity": 0.9448818897637795
          },
          {
            "duration": 0.1744185000000016,
            "durationTicks": 240,
            "midi": 40,
            "name": "E2",
            "ticks": 143040,
            "time": 103.95342600000001,
            "velocity": 0.9448818897637795
          },
          {
            "duration": 0.15988362499999198,
            "durationTicks": 220,
            "midi": 51,
            "name": "D#3",
            "ticks": 143040,
            "time": 103.95342600000001,
            "velocity": 0.9448818897637795
          },
          {
            "duration": 0.1744185000000016,
            "durationTicks": 240,
            "midi": 36,
            "name": "C2",
            "ticks": 143520,
            "time": 104.302263,
            "velocity": 0.9448818897637795
          },
          {
            "duration": 0.1598836250000062,
            "durationTicks": 220,
            "midi": 51,
            "name": "D#3",
            "ticks": 143520,
            "time": 104.302263,
            "velocity": 0.9448818897637795
          },
          {
            "duration": 0.1744185000000016,
            "durationTicks": 240,
            "midi": 36,
            "name": "C2",
            "ticks": 144000,
            "time": 104.6511,
            "velocity": 0.9448818897637795
          },
          {
            "duration": 0.15988362499999198,
            "durationTicks": 220,
            "midi": 51,
            "name": "D#3",
            "ticks": 144000,
            "time": 104.6511,
            "velocity": 0.9448818897637795
          },
          {
            "duration": 0.15988362499999198,
            "durationTicks": 220,
            "midi": 51,
            "name": "D#3",
            "ticks": 144480,
            "time": 104.999937,
            "velocity": 0.9448818897637795
          },
          {
            "duration": 0.1744185000000016,
            "durationTicks": 240,
            "midi": 40,
            "name": "E2",
            "ticks": 144960,
            "time": 105.348774,
            "velocity": 0.9448818897637795
          },
          {
            "duration": 0.15988362499999198,
            "durationTicks": 220,
            "midi": 51,
            "name": "D#3",
            "ticks": 144960,
            "time": 105.348774,
            "velocity": 0.9448818897637795
          },
          {
            "duration": 0.17441849999998738,
            "durationTicks": 240,
            "midi": 36,
            "name": "C2",
            "ticks": 145440,
            "time": 105.69761100000001,
            "velocity": 0.9448818897637795
          },
          {
            "duration": 0.15988362499999198,
            "durationTicks": 220,
            "midi": 51,
            "name": "D#3",
            "ticks": 145440,
            "time": 105.69761100000001,
            "velocity": 0.9448818897637795
          },
          {
            "duration": 0.1744185000000016,
            "durationTicks": 240,
            "midi": 36,
            "name": "C2",
            "ticks": 145920,
            "time": 106.046448,
            "velocity": 0.9448818897637795
          },
          {
            "duration": 0.15988362499999198,
            "durationTicks": 220,
            "midi": 51,
            "name": "D#3",
            "ticks": 145920,
            "time": 106.046448,
            "velocity": 0.9448818897637795
          },
          {
            "duration": 0.1744185000000016,
            "durationTicks": 240,
            "midi": 36,
            "name": "C2",
            "ticks": 146400,
            "time": 106.395285,
            "velocity": 0.9448818897637795
          },
          {
            "duration": 0.15988362499999198,
            "durationTicks": 220,
            "midi": 51,
            "name": "D#3",
            "ticks": 146400,
            "time": 106.395285,
            "velocity": 0.9448818897637795
          },
          {
            "duration": 0.1744185000000016,
            "durationTicks": 240,
            "midi": 40,
            "name": "E2",
            "ticks": 146880,
            "time": 106.744122,
            "velocity": 0.9448818897637795
          },
          {
            "duration": 0.15988362499999198,
            "durationTicks": 220,
            "midi": 51,
            "name": "D#3",
            "ticks": 146880,
            "time": 106.744122,
            "velocity": 0.9448818897637795
          },
          {
            "duration": 0.1744185000000016,
            "durationTicks": 240,
            "midi": 36,
            "name": "C2",
            "ticks": 147360,
            "time": 107.09295900000001,
            "velocity": 0.9448818897637795
          },
          {
            "duration": 0.15988362499999198,
            "durationTicks": 220,
            "midi": 51,
            "name": "D#3",
            "ticks": 147360,
            "time": 107.09295900000001,
            "velocity": 0.9448818897637795
          },
          {
            "duration": 0.1598836250000062,
            "durationTicks": 220,
            "midi": 36,
            "name": "C2",
            "ticks": 147840,
            "time": 107.441796,
            "velocity": 0.9448818897637795
          },
          {
            "duration": 0.1598836250000062,
            "durationTicks": 220,
            "midi": 49,
            "name": "C#3",
            "ticks": 147840,
            "time": 107.441796,
            "velocity": 0.9448818897637795
          },
          {
            "duration": 0.15988362499999198,
            "durationTicks": 220,
            "midi": 36,
            "name": "C2",
            "ticks": 155520,
            "time": 113.023188,
            "velocity": 0.9448818897637795
          },
          {
            "duration": 0.15988362499999198,
            "durationTicks": 220,
            "midi": 49,
            "name": "C#3",
            "ticks": 155520,
            "time": 113.023188,
            "velocity": 0.9448818897637795
          },
          {
            "duration": 0.15988362499999198,
            "durationTicks": 220,
            "midi": 46,
            "name": "A#2",
            "ticks": 156000,
            "time": 113.37202500000001,
            "velocity": 0.9448818897637795
          },
          {
            "duration": 0.1598836250000062,
            "durationTicks": 220,
            "midi": 40,
            "name": "E2",
            "ticks": 156480,
            "time": 113.720862,
            "velocity": 0.9448818897637795
          },
          {
            "duration": 0.1598836250000062,
            "durationTicks": 220,
            "midi": 46,
            "name": "A#2",
            "ticks": 156480,
            "time": 113.720862,
            "velocity": 0.9448818897637795
          },
          {
            "duration": 0.15988362499999198,
            "durationTicks": 220,
            "midi": 36,
            "name": "C2",
            "ticks": 156960,
            "time": 114.069699,
            "velocity": 0.9448818897637795
          },
          {
            "duration": 0.15988362499999198,
            "durationTicks": 220,
            "midi": 46,
            "name": "A#2",
            "ticks": 156960,
            "time": 114.069699,
            "velocity": 0.9448818897637795
          },
          {
            "duration": 0.1744185000000016,
            "durationTicks": 240,
            "midi": 36,
            "name": "C2",
            "ticks": 157440,
            "time": 114.418536,
            "velocity": 0.9448818897637795
          },
          {
            "duration": 0.15988362499999198,
            "durationTicks": 220,
            "midi": 46,
            "name": "A#2",
            "ticks": 157440,
            "time": 114.418536,
            "velocity": 0.9448818897637795
          },
          {
            "duration": 0.1744185000000016,
            "durationTicks": 240,
            "midi": 36,
            "name": "C2",
            "ticks": 157920,
            "time": 114.767373,
            "velocity": 0.9448818897637795
          },
          {
            "duration": 0.15988362499999198,
            "durationTicks": 220,
            "midi": 46,
            "name": "A#2",
            "ticks": 157920,
            "time": 114.767373,
            "velocity": 0.9448818897637795
          },
          {
            "duration": 0.17441849999998738,
            "durationTicks": 240,
            "midi": 40,
            "name": "E2",
            "ticks": 158400,
            "time": 115.11621000000001,
            "velocity": 0.9448818897637795
          },
          {
            "duration": 0.15988362499999198,
            "durationTicks": 220,
            "midi": 46,
            "name": "A#2",
            "ticks": 158400,
            "time": 115.11621000000001,
            "velocity": 0.9448818897637795
          },
          {
            "duration": 0.1744185000000016,
            "durationTicks": 240,
            "midi": 36,
            "name": "C2",
            "ticks": 158880,
            "time": 115.465047,
            "velocity": 0.9448818897637795
          },
          {
            "duration": 0.15988362499999198,
            "durationTicks": 220,
            "midi": 46,
            "name": "A#2",
            "ticks": 158880,
            "time": 115.465047,
            "velocity": 0.9448818897637795
          },
          {
            "duration": 0.1744185000000016,
            "durationTicks": 240,
            "midi": 36,
            "name": "C2",
            "ticks": 159360,
            "time": 115.813884,
            "velocity": 0.9448818897637795
          },
          {
            "duration": 0.15988362499999198,
            "durationTicks": 220,
            "midi": 46,
            "name": "A#2",
            "ticks": 159360,
            "time": 115.813884,
            "velocity": 0.9448818897637795
          },
          {
            "duration": 0.15988362499999198,
            "durationTicks": 220,
            "midi": 46,
            "name": "A#2",
            "ticks": 159840,
            "time": 116.162721,
            "velocity": 0.9448818897637795
          },
          {
            "duration": 0.1744185000000016,
            "durationTicks": 240,
            "midi": 40,
            "name": "E2",
            "ticks": 160320,
            "time": 116.51155800000001,
            "velocity": 0.9448818897637795
          },
          {
            "duration": 0.15988362499999198,
            "durationTicks": 220,
            "midi": 46,
            "name": "A#2",
            "ticks": 160320,
            "time": 116.51155800000001,
            "velocity": 0.9448818897637795
          },
          {
            "duration": 0.1744185000000016,
            "durationTicks": 240,
            "midi": 36,
            "name": "C2",
            "ticks": 160800,
            "time": 116.860395,
            "velocity": 0.9448818897637795
          },
          {
            "duration": 0.1598836250000062,
            "durationTicks": 220,
            "midi": 46,
            "name": "A#2",
            "ticks": 160800,
            "time": 116.860395,
            "velocity": 0.9448818897637795
          },
          {
            "duration": 0.1744185000000016,
            "durationTicks": 240,
            "midi": 36,
            "name": "C2",
            "ticks": 161280,
            "time": 117.209232,
            "velocity": 0.9448818897637795
          },
          {
            "duration": 0.15988362499999198,
            "durationTicks": 220,
            "midi": 46,
            "name": "A#2",
            "ticks": 161280,
            "time": 117.209232,
            "velocity": 0.9448818897637795
          },
          {
            "duration": 0.1744185000000016,
            "durationTicks": 240,
            "midi": 36,
            "name": "C2",
            "ticks": 161760,
            "time": 117.558069,
            "velocity": 0.9448818897637795
          },
          {
            "duration": 0.15988362499999198,
            "durationTicks": 220,
            "midi": 46,
            "name": "A#2",
            "ticks": 161760,
            "time": 117.558069,
            "velocity": 0.9448818897637795
          },
          {
            "duration": 0.1744185000000016,
            "durationTicks": 240,
            "midi": 40,
            "name": "E2",
            "ticks": 162240,
            "time": 117.906906,
            "velocity": 0.9448818897637795
          },
          {
            "duration": 0.15988362499999198,
            "durationTicks": 220,
            "midi": 46,
            "name": "A#2",
            "ticks": 162240,
            "time": 117.906906,
            "velocity": 0.9448818897637795
          },
          {
            "duration": 0.17441849999998738,
            "durationTicks": 240,
            "midi": 36,
            "name": "C2",
            "ticks": 162720,
            "time": 118.25574300000001,
            "velocity": 0.9448818897637795
          },
          {
            "duration": 0.15988362499999198,
            "durationTicks": 220,
            "midi": 46,
            "name": "A#2",
            "ticks": 162720,
            "time": 118.25574300000001,
            "velocity": 0.9448818897637795
          },
          {
            "duration": 0.1744185000000016,
            "durationTicks": 240,
            "midi": 36,
            "name": "C2",
            "ticks": 163200,
            "time": 118.60458,
            "velocity": 0.9448818897637795
          },
          {
            "duration": 0.15988362499999198,
            "durationTicks": 220,
            "midi": 46,
            "name": "A#2",
            "ticks": 163200,
            "time": 118.60458,
            "velocity": 0.9448818897637795
          },
          {
            "duration": 0.15988362499999198,
            "durationTicks": 220,
            "midi": 46,
            "name": "A#2",
            "ticks": 163680,
            "time": 118.953417,
            "velocity": 0.9448818897637795
          },
          {
            "duration": 0.1744185000000016,
            "durationTicks": 240,
            "midi": 40,
            "name": "E2",
            "ticks": 164160,
            "time": 119.302254,
            "velocity": 0.9448818897637795
          },
          {
            "duration": 0.15988362499999198,
            "durationTicks": 220,
            "midi": 46,
            "name": "A#2",
            "ticks": 164160,
            "time": 119.302254,
            "velocity": 0.9448818897637795
          },
          {
            "duration": 0.1744185000000016,
            "durationTicks": 240,
            "midi": 36,
            "name": "C2",
            "ticks": 164640,
            "time": 119.65109100000001,
            "velocity": 0.9448818897637795
          },
          {
            "duration": 0.15988362499999198,
            "durationTicks": 220,
            "midi": 46,
            "name": "A#2",
            "ticks": 164640,
            "time": 119.65109100000001,
            "velocity": 0.9448818897637795
          },
          {
            "duration": 0.1744185000000016,
            "durationTicks": 240,
            "midi": 36,
            "name": "C2",
            "ticks": 165120,
            "time": 119.999928,
            "velocity": 0.9448818897637795
          },
          {
            "duration": 0.1598836250000062,
            "durationTicks": 220,
            "midi": 46,
            "name": "A#2",
            "ticks": 165120,
            "time": 119.999928,
            "velocity": 0.9448818897637795
          },
          {
            "duration": 0.1744185000000016,
            "durationTicks": 240,
            "midi": 36,
            "name": "C2",
            "ticks": 165600,
            "time": 120.348765,
            "velocity": 0.9448818897637795
          },
          {
            "duration": 0.15988362499999198,
            "durationTicks": 220,
            "midi": 46,
            "name": "A#2",
            "ticks": 165600,
            "time": 120.348765,
            "velocity": 0.9448818897637795
          },
          {
            "duration": 0.1744185000000016,
            "durationTicks": 240,
            "midi": 40,
            "name": "E2",
            "ticks": 166080,
            "time": 120.697602,
            "velocity": 0.9448818897637795
          },
          {
            "duration": 0.15988362499999198,
            "durationTicks": 220,
            "midi": 46,
            "name": "A#2",
            "ticks": 166080,
            "time": 120.697602,
            "velocity": 0.9448818897637795
          },
          {
            "duration": 0.1744185000000016,
            "durationTicks": 240,
            "midi": 36,
            "name": "C2",
            "ticks": 166560,
            "time": 121.046439,
            "velocity": 0.9448818897637795
          },
          {
            "duration": 0.15988362499999198,
            "durationTicks": 220,
            "midi": 46,
            "name": "A#2",
            "ticks": 166560,
            "time": 121.046439,
            "velocity": 0.9448818897637795
          },
          {
            "duration": 0.17441849999998738,
            "durationTicks": 240,
            "midi": 36,
            "name": "C2",
            "ticks": 167040,
            "time": 121.39527600000001,
            "velocity": 0.9448818897637795
          },
          {
            "duration": 0.15988362499999198,
            "durationTicks": 220,
            "midi": 46,
            "name": "A#2",
            "ticks": 167040,
            "time": 121.39527600000001,
            "velocity": 0.9448818897637795
          },
          {
            "duration": 0.15988362499999198,
            "durationTicks": 220,
            "midi": 46,
            "name": "A#2",
            "ticks": 167520,
            "time": 121.744113,
            "velocity": 0.9448818897637795
          },
          {
            "duration": 0.1744185000000016,
            "durationTicks": 240,
            "midi": 40,
            "name": "E2",
            "ticks": 168000,
            "time": 122.09295,
            "velocity": 0.9448818897637795
          },
          {
            "duration": 0.15988362499999198,
            "durationTicks": 220,
            "midi": 46,
            "name": "A#2",
            "ticks": 168000,
            "time": 122.09295,
            "velocity": 0.9448818897637795
          },
          {
            "duration": 0.1744185000000016,
            "durationTicks": 240,
            "midi": 36,
            "name": "C2",
            "ticks": 168480,
            "time": 122.441787,
            "velocity": 0.9448818897637795
          },
          {
            "duration": 0.15988362499999198,
            "durationTicks": 220,
            "midi": 46,
            "name": "A#2",
            "ticks": 168480,
            "time": 122.441787,
            "velocity": 0.9448818897637795
          },
          {
            "duration": 0.1744185000000016,
            "durationTicks": 240,
            "midi": 36,
            "name": "C2",
            "ticks": 168960,
            "time": 122.79062400000001,
            "velocity": 0.9448818897637795
          },
          {
            "duration": 0.15988362499999198,
            "durationTicks": 220,
            "midi": 46,
            "name": "A#2",
            "ticks": 168960,
            "time": 122.79062400000001,
            "velocity": 0.9448818897637795
          },
          {
            "duration": 0.1744185000000016,
            "durationTicks": 240,
            "midi": 36,
            "name": "C2",
            "ticks": 169440,
            "time": 123.139461,
            "velocity": 0.9448818897637795
          },
          {
            "duration": 0.1598836250000062,
            "durationTicks": 220,
            "midi": 46,
            "name": "A#2",
            "ticks": 169440,
            "time": 123.139461,
            "velocity": 0.9448818897637795
          },
          {
            "duration": 0.1744185000000016,
            "durationTicks": 240,
            "midi": 40,
            "name": "E2",
            "ticks": 169920,
            "time": 123.488298,
            "velocity": 0.9448818897637795
          },
          {
            "duration": 0.15988362499999198,
            "durationTicks": 220,
            "midi": 46,
            "name": "A#2",
            "ticks": 169920,
            "time": 123.488298,
            "velocity": 0.9448818897637795
          },
          {
            "duration": 0.1744185000000016,
            "durationTicks": 240,
            "midi": 36,
            "name": "C2",
            "ticks": 170400,
            "time": 123.837135,
            "velocity": 0.9448818897637795
          },
          {
            "duration": 0.15988362499999198,
            "durationTicks": 220,
            "midi": 46,
            "name": "A#2",
            "ticks": 170400,
            "time": 123.837135,
            "velocity": 0.9448818897637795
          },
          {
            "duration": 0.1744185000000016,
            "durationTicks": 240,
            "midi": 36,
            "name": "C2",
            "ticks": 170880,
            "time": 124.185972,
            "velocity": 0.9448818897637795
          },
          {
            "duration": 0.15988362499999198,
            "durationTicks": 220,
            "midi": 46,
            "name": "A#2",
            "ticks": 170880,
            "time": 124.185972,
            "velocity": 0.9448818897637795
          },
          {
            "duration": 0.15988362499999198,
            "durationTicks": 220,
            "midi": 46,
            "name": "A#2",
            "ticks": 171360,
            "time": 124.53480900000001,
            "velocity": 0.9448818897637795
          },
          {
            "duration": 0.1744185000000016,
            "durationTicks": 240,
            "midi": 40,
            "name": "E2",
            "ticks": 171840,
            "time": 124.883646,
            "velocity": 0.9448818897637795
          },
          {
            "duration": 0.15988362499999198,
            "durationTicks": 220,
            "midi": 46,
            "name": "A#2",
            "ticks": 171840,
            "time": 124.883646,
            "velocity": 0.9448818897637795
          },
          {
            "duration": 0.1744185000000016,
            "durationTicks": 240,
            "midi": 36,
            "name": "C2",
            "ticks": 172320,
            "time": 125.232483,
            "velocity": 0.9448818897637795
          },
          {
            "duration": 0.15988362499999198,
            "durationTicks": 220,
            "midi": 46,
            "name": "A#2",
            "ticks": 172320,
            "time": 125.232483,
            "velocity": 0.9448818897637795
          },
          {
            "duration": 0.1744185000000016,
            "durationTicks": 240,
            "midi": 36,
            "name": "C2",
            "ticks": 172800,
            "time": 125.58132,
            "velocity": 0.9448818897637795
          },
          {
            "duration": 0.15988362499999198,
            "durationTicks": 220,
            "midi": 46,
            "name": "A#2",
            "ticks": 172800,
            "time": 125.58132,
            "velocity": 0.9448818897637795
          },
          {
            "duration": 0.1744185000000016,
            "durationTicks": 240,
            "midi": 36,
            "name": "C2",
            "ticks": 173280,
            "time": 125.93015700000001,
            "velocity": 0.9448818897637795
          },
          {
            "duration": 0.15988362499999198,
            "durationTicks": 220,
            "midi": 46,
            "name": "A#2",
            "ticks": 173280,
            "time": 125.93015700000001,
            "velocity": 0.9448818897637795
          },
          {
            "duration": 0.1744185000000016,
            "durationTicks": 240,
            "midi": 40,
            "name": "E2",
            "ticks": 173760,
            "time": 126.278994,
            "velocity": 0.9448818897637795
          },
          {
            "duration": 0.15988362499999198,
            "durationTicks": 220,
            "midi": 46,
            "name": "A#2",
            "ticks": 173760,
            "time": 126.278994,
            "velocity": 0.9448818897637795
          },
          {
            "duration": 0.1744185000000016,
            "durationTicks": 240,
            "midi": 36,
            "name": "C2",
            "ticks": 174240,
            "time": 126.627831,
            "velocity": 0.9448818897637795
          },
          {
            "duration": 0.15988362499999198,
            "durationTicks": 220,
            "midi": 46,
            "name": "A#2",
            "ticks": 174240,
            "time": 126.627831,
            "velocity": 0.9448818897637795
          },
          {
            "duration": 0.1744185000000016,
            "durationTicks": 240,
            "midi": 36,
            "name": "C2",
            "ticks": 174720,
            "time": 126.976668,
            "velocity": 0.9448818897637795
          },
          {
            "duration": 0.15988362499999198,
            "durationTicks": 220,
            "midi": 46,
            "name": "A#2",
            "ticks": 174720,
            "time": 126.976668,
            "velocity": 0.9448818897637795
          },
          {
            "duration": 0.15988362499999198,
            "durationTicks": 220,
            "midi": 46,
            "name": "A#2",
            "ticks": 175200,
            "time": 127.325505,
            "velocity": 0.9448818897637795
          },
          {
            "duration": 0.17441849999998738,
            "durationTicks": 240,
            "midi": 40,
            "name": "E2",
            "ticks": 175680,
            "time": 127.67434200000001,
            "velocity": 0.9448818897637795
          },
          {
            "duration": 0.15988362499999198,
            "durationTicks": 220,
            "midi": 46,
            "name": "A#2",
            "ticks": 175680,
            "time": 127.67434200000001,
            "velocity": 0.9448818897637795
          },
          {
            "duration": 0.1744185000000016,
            "durationTicks": 240,
            "midi": 36,
            "name": "C2",
            "ticks": 176160,
            "time": 128.023179,
            "velocity": 0.9448818897637795
          },
          {
            "duration": 0.15988362499999198,
            "durationTicks": 220,
            "midi": 46,
            "name": "A#2",
            "ticks": 176160,
            "time": 128.023179,
            "velocity": 0.9448818897637795
          },
          {
            "duration": 0.1744185000000016,
            "durationTicks": 240,
            "midi": 36,
            "name": "C2",
            "ticks": 176640,
            "time": 128.372016,
            "velocity": 0.9448818897637795
          },
          {
            "duration": 0.15988362499999198,
            "durationTicks": 220,
            "midi": 46,
            "name": "A#2",
            "ticks": 176640,
            "time": 128.372016,
            "velocity": 0.9448818897637795
          },
          {
            "duration": 0.1744185000000016,
            "durationTicks": 240,
            "midi": 36,
            "name": "C2",
            "ticks": 177120,
            "time": 128.720853,
            "velocity": 0.9448818897637795
          },
          {
            "duration": 0.15988362499999198,
            "durationTicks": 220,
            "midi": 46,
            "name": "A#2",
            "ticks": 177120,
            "time": 128.720853,
            "velocity": 0.9448818897637795
          },
          {
            "duration": 0.1744185000000016,
            "durationTicks": 240,
            "midi": 40,
            "name": "E2",
            "ticks": 177600,
            "time": 129.06969,
            "velocity": 0.9448818897637795
          },
          {
            "duration": 0.15988362499999198,
            "durationTicks": 220,
            "midi": 46,
            "name": "A#2",
            "ticks": 177600,
            "time": 129.06969,
            "velocity": 0.9448818897637795
          },
          {
            "duration": 0.1744185000000016,
            "durationTicks": 240,
            "midi": 36,
            "name": "C2",
            "ticks": 178080,
            "time": 129.418527,
            "velocity": 0.9448818897637795
          },
          {
            "duration": 0.15988362499999198,
            "durationTicks": 220,
            "midi": 46,
            "name": "A#2",
            "ticks": 178080,
            "time": 129.418527,
            "velocity": 0.9448818897637795
          },
          {
            "duration": 0.1744185000000016,
            "durationTicks": 240,
            "midi": 36,
            "name": "C2",
            "ticks": 178560,
            "time": 129.76736400000001,
            "velocity": 0.9448818897637795
          },
          {
            "duration": 0.15988362499999198,
            "durationTicks": 220,
            "midi": 46,
            "name": "A#2",
            "ticks": 178560,
            "time": 129.76736400000001,
            "velocity": 0.9448818897637795
          },
          {
            "duration": 0.1598836250000204,
            "durationTicks": 220,
            "midi": 46,
            "name": "A#2",
            "ticks": 179040,
            "time": 130.116201,
            "velocity": 0.9448818897637795
          },
          {
            "duration": 0.1744185000000016,
            "durationTicks": 240,
            "midi": 40,
            "name": "E2",
            "ticks": 179520,
            "time": 130.465038,
            "velocity": 0.9448818897637795
          },
          {
            "duration": 0.15988362499999198,
            "durationTicks": 220,
            "midi": 46,
            "name": "A#2",
            "ticks": 179520,
            "time": 130.465038,
            "velocity": 0.9448818897637795
          },
          {
            "duration": 0.1744185000000016,
            "durationTicks": 240,
            "midi": 36,
            "name": "C2",
            "ticks": 180000,
            "time": 130.813875,
            "velocity": 0.9448818897637795
          },
          {
            "duration": 0.15988362499999198,
            "durationTicks": 220,
            "midi": 46,
            "name": "A#2",
            "ticks": 180000,
            "time": 130.813875,
            "velocity": 0.9448818897637795
          },
          {
            "duration": 0.1744185000000016,
            "durationTicks": 240,
            "midi": 36,
            "name": "C2",
            "ticks": 180480,
            "time": 131.162712,
            "velocity": 0.9448818897637795
          },
          {
            "duration": 0.15988362499999198,
            "durationTicks": 220,
            "midi": 46,
            "name": "A#2",
            "ticks": 180480,
            "time": 131.162712,
            "velocity": 0.9448818897637795
          },
          {
            "duration": 0.1744185000000016,
            "durationTicks": 240,
            "midi": 36,
            "name": "C2",
            "ticks": 180960,
            "time": 131.511549,
            "velocity": 0.9448818897637795
          },
          {
            "duration": 0.15988362499999198,
            "durationTicks": 220,
            "midi": 46,
            "name": "A#2",
            "ticks": 180960,
            "time": 131.511549,
            "velocity": 0.9448818897637795
          },
          {
            "duration": 0.1744185000000016,
            "durationTicks": 240,
            "midi": 40,
            "name": "E2",
            "ticks": 181440,
            "time": 131.860386,
            "velocity": 0.9448818897637795
          },
          {
            "duration": 0.15988362499999198,
            "durationTicks": 220,
            "midi": 46,
            "name": "A#2",
            "ticks": 181440,
            "time": 131.860386,
            "velocity": 0.9448818897637795
          },
          {
            "duration": 0.1744185000000016,
            "durationTicks": 240,
            "midi": 36,
            "name": "C2",
            "ticks": 181920,
            "time": 132.209223,
            "velocity": 0.9448818897637795
          },
          {
            "duration": 0.15988362499999198,
            "durationTicks": 220,
            "midi": 46,
            "name": "A#2",
            "ticks": 181920,
            "time": 132.209223,
            "velocity": 0.9448818897637795
          },
          {
            "duration": 0.1744185000000016,
            "durationTicks": 240,
            "midi": 36,
            "name": "C2",
            "ticks": 182400,
            "time": 132.55806,
            "velocity": 0.9448818897637795
          },
          {
            "duration": 0.15988362499999198,
            "durationTicks": 220,
            "midi": 46,
            "name": "A#2",
            "ticks": 182400,
            "time": 132.55806,
            "velocity": 0.9448818897637795
          },
          {
            "duration": 0.15988362499999198,
            "durationTicks": 220,
            "midi": 46,
            "name": "A#2",
            "ticks": 182880,
            "time": 132.90689700000001,
            "velocity": 0.9448818897637795
          },
          {
            "duration": 0.1744185000000016,
            "durationTicks": 240,
            "midi": 40,
            "name": "E2",
            "ticks": 183360,
            "time": 133.255734,
            "velocity": 0.9448818897637795
          },
          {
            "duration": 0.1598836250000204,
            "durationTicks": 220,
            "midi": 46,
            "name": "A#2",
            "ticks": 183360,
            "time": 133.255734,
            "velocity": 0.9448818897637795
          },
          {
            "duration": 0.1744185000000016,
            "durationTicks": 240,
            "midi": 36,
            "name": "C2",
            "ticks": 183840,
            "time": 133.604571,
            "velocity": 0.9448818897637795
          },
          {
            "duration": 0.15988362499999198,
            "durationTicks": 220,
            "midi": 46,
            "name": "A#2",
            "ticks": 183840,
            "time": 133.604571,
            "velocity": 0.9448818897637795
          },
          {
            "duration": 0.1744185000000016,
            "durationTicks": 240,
            "midi": 36,
            "name": "C2",
            "ticks": 184320,
            "time": 133.953408,
            "velocity": 0.9448818897637795
          },
          {
            "duration": 0.15988362499999198,
            "durationTicks": 220,
            "midi": 46,
            "name": "A#2",
            "ticks": 184320,
            "time": 133.953408,
            "velocity": 0.9448818897637795
          },
          {
            "duration": 0.1744185000000016,
            "durationTicks": 240,
            "midi": 36,
            "name": "C2",
            "ticks": 184800,
            "time": 134.302245,
            "velocity": 0.9448818897637795
          },
          {
            "duration": 0.15988362499999198,
            "durationTicks": 220,
            "midi": 46,
            "name": "A#2",
            "ticks": 184800,
            "time": 134.302245,
            "velocity": 0.9448818897637795
          },
          {
            "duration": 0.1744185000000016,
            "durationTicks": 240,
            "midi": 40,
            "name": "E2",
            "ticks": 185280,
            "time": 134.651082,
            "velocity": 0.9448818897637795
          },
          {
            "duration": 0.15988362499999198,
            "durationTicks": 220,
            "midi": 46,
            "name": "A#2",
            "ticks": 185280,
            "time": 134.651082,
            "velocity": 0.9448818897637795
          },
          {
            "duration": 0.1744185000000016,
            "durationTicks": 240,
            "midi": 36,
            "name": "C2",
            "ticks": 185760,
            "time": 134.999919,
            "velocity": 0.9448818897637795
          },
          {
            "duration": 0.15988362499999198,
            "durationTicks": 220,
            "midi": 46,
            "name": "A#2",
            "ticks": 185760,
            "time": 134.999919,
            "velocity": 0.9448818897637795
          },
          {
            "duration": 0.1744185000000016,
            "durationTicks": 240,
            "midi": 36,
            "name": "C2",
            "ticks": 186240,
            "time": 135.348756,
            "velocity": 0.9448818897637795
          },
          {
            "duration": 0.1744185000000016,
            "durationTicks": 240,
            "midi": 49,
            "name": "C#3",
            "ticks": 186240,
            "time": 135.348756,
            "velocity": 0.7874015748031497
          },
          {
            "duration": 0.1744185000000016,
            "durationTicks": 240,
            "midi": 36,
            "name": "C2",
            "ticks": 186720,
            "time": 135.697593,
            "velocity": 0.9448818897637795
          },
          {
            "duration": 0.1744185000000016,
            "durationTicks": 240,
            "midi": 44,
            "name": "G#2",
            "ticks": 186720,
            "time": 135.697593,
            "velocity": 0.7874015748031497
          },
          {
            "duration": 0.1744185000000016,
            "durationTicks": 240,
            "midi": 44,
            "name": "G#2",
            "ticks": 186720,
            "time": 135.697593,
            "velocity": 0.7874015748031497
          },
          {
            "duration": 0.1744185000000016,
            "durationTicks": 240,
            "midi": 40,
            "name": "E2",
            "ticks": 187200,
            "time": 136.04643000000002,
            "velocity": 0.9448818897637795
          },
          {
            "duration": 0.1744185000000016,
            "durationTicks": 240,
            "midi": 44,
            "name": "G#2",
            "ticks": 187200,
            "time": 136.04643000000002,
            "velocity": 0.7874015748031497
          },
          {
            "duration": 0.1744185000000016,
            "durationTicks": 240,
            "midi": 36,
            "name": "C2",
            "ticks": 187680,
            "time": 136.395267,
            "velocity": 0.9448818897637795
          },
          {
            "duration": 0.1744185000000016,
            "durationTicks": 240,
            "midi": 44,
            "name": "G#2",
            "ticks": 187680,
            "time": 136.395267,
            "velocity": 0.7874015748031497
          },
          {
            "duration": 0.1744185000000016,
            "durationTicks": 240,
            "midi": 36,
            "name": "C2",
            "ticks": 188160,
            "time": 136.744104,
            "velocity": 0.9448818897637795
          },
          {
            "duration": 0.1744185000000016,
            "durationTicks": 240,
            "midi": 44,
            "name": "G#2",
            "ticks": 188160,
            "time": 136.744104,
            "velocity": 0.7874015748031497
          },
          {
            "duration": 0.1744185000000016,
            "durationTicks": 240,
            "midi": 36,
            "name": "C2",
            "ticks": 188640,
            "time": 137.092941,
            "velocity": 0.9448818897637795
          },
          {
            "duration": 0.1744185000000016,
            "durationTicks": 240,
            "midi": 44,
            "name": "G#2",
            "ticks": 188640,
            "time": 137.092941,
            "velocity": 0.7874015748031497
          },
          {
            "duration": 0.1744185000000016,
            "durationTicks": 240,
            "midi": 40,
            "name": "E2",
            "ticks": 189120,
            "time": 137.441778,
            "velocity": 0.9448818897637795
          },
          {
            "duration": 0.1744185000000016,
            "durationTicks": 240,
            "midi": 44,
            "name": "G#2",
            "ticks": 189120,
            "time": 137.441778,
            "velocity": 0.7874015748031497
          },
          {
            "duration": 0.1744185000000016,
            "durationTicks": 240,
            "midi": 36,
            "name": "C2",
            "ticks": 189600,
            "time": 137.790615,
            "velocity": 0.9448818897637795
          },
          {
            "duration": 0.1744185000000016,
            "durationTicks": 240,
            "midi": 44,
            "name": "G#2",
            "ticks": 189600,
            "time": 137.790615,
            "velocity": 0.7874015748031497
          },
          {
            "duration": 0.1744185000000016,
            "durationTicks": 240,
            "midi": 36,
            "name": "C2",
            "ticks": 190080,
            "time": 138.139452,
            "velocity": 0.9448818897637795
          },
          {
            "duration": 0.1744185000000016,
            "durationTicks": 240,
            "midi": 44,
            "name": "G#2",
            "ticks": 190080,
            "time": 138.139452,
            "velocity": 0.7874015748031497
          },
          {
            "duration": 0.1744185000000016,
            "durationTicks": 240,
            "midi": 36,
            "name": "C2",
            "ticks": 190560,
            "time": 138.488289,
            "velocity": 0.9448818897637795
          },
          {
            "duration": 0.1744185000000016,
            "durationTicks": 240,
            "midi": 44,
            "name": "G#2",
            "ticks": 190560,
            "time": 138.488289,
            "velocity": 0.7874015748031497
          },
          {
            "duration": 0.1744185000000016,
            "durationTicks": 240,
            "midi": 40,
            "name": "E2",
            "ticks": 191040,
            "time": 138.837126,
            "velocity": 0.9448818897637795
          },
          {
            "duration": 0.1744185000000016,
            "durationTicks": 240,
            "midi": 44,
            "name": "G#2",
            "ticks": 191040,
            "time": 138.837126,
            "velocity": 0.7874015748031497
          },
          {
            "duration": 0.1744185000000016,
            "durationTicks": 240,
            "midi": 36,
            "name": "C2",
            "ticks": 191520,
            "time": 139.18596300000002,
            "velocity": 0.9448818897637795
          },
          {
            "duration": 0.1744185000000016,
            "durationTicks": 240,
            "midi": 44,
            "name": "G#2",
            "ticks": 191520,
            "time": 139.18596300000002,
            "velocity": 0.7874015748031497
          },
          {
            "duration": 0.1744185000000016,
            "durationTicks": 240,
            "midi": 36,
            "name": "C2",
            "ticks": 192000,
            "time": 139.5348,
            "velocity": 0.9448818897637795
          },
          {
            "duration": 0.1744185000000016,
            "durationTicks": 240,
            "midi": 44,
            "name": "G#2",
            "ticks": 192000,
            "time": 139.5348,
            "velocity": 0.7874015748031497
          },
          {
            "duration": 0.1744185000000016,
            "durationTicks": 240,
            "midi": 36,
            "name": "C2",
            "ticks": 192480,
            "time": 139.883637,
            "velocity": 0.9448818897637795
          },
          {
            "duration": 0.1744185000000016,
            "durationTicks": 240,
            "midi": 44,
            "name": "G#2",
            "ticks": 192480,
            "time": 139.883637,
            "velocity": 0.7874015748031497
          },
          {
            "duration": 0.1744185000000016,
            "durationTicks": 240,
            "midi": 40,
            "name": "E2",
            "ticks": 192960,
            "time": 140.232474,
            "velocity": 0.9448818897637795
          },
          {
            "duration": 0.1744185000000016,
            "durationTicks": 240,
            "midi": 44,
            "name": "G#2",
            "ticks": 192960,
            "time": 140.232474,
            "velocity": 0.7874015748031497
          },
          {
            "duration": 0.1744185000000016,
            "durationTicks": 240,
            "midi": 36,
            "name": "C2",
            "ticks": 193440,
            "time": 140.581311,
            "velocity": 0.9448818897637795
          },
          {
            "duration": 0.1744185000000016,
            "durationTicks": 240,
            "midi": 46,
            "name": "A#2",
            "ticks": 193440,
            "time": 140.581311,
            "velocity": 0.7874015748031497
          },
          {
            "duration": 0.1744185000000016,
            "durationTicks": 240,
            "midi": 36,
            "name": "C2",
            "ticks": 193920,
            "time": 140.930148,
            "velocity": 0.9448818897637795
          },
          {
            "duration": 0.1744185000000016,
            "durationTicks": 240,
            "midi": 44,
            "name": "G#2",
            "ticks": 193920,
            "time": 140.930148,
            "velocity": 0.7874015748031497
          },
          {
            "duration": 0.1744185000000016,
            "durationTicks": 240,
            "midi": 36,
            "name": "C2",
            "ticks": 194400,
            "time": 141.278985,
            "velocity": 0.9448818897637795
          },
          {
            "duration": 0.1744185000000016,
            "durationTicks": 240,
            "midi": 44,
            "name": "G#2",
            "ticks": 194400,
            "time": 141.278985,
            "velocity": 0.7874015748031497
          },
          {
            "duration": 0.1744185000000016,
            "durationTicks": 240,
            "midi": 40,
            "name": "E2",
            "ticks": 194880,
            "time": 141.627822,
            "velocity": 0.9448818897637795
          },
          {
            "duration": 0.1744185000000016,
            "durationTicks": 240,
            "midi": 44,
            "name": "G#2",
            "ticks": 194880,
            "time": 141.627822,
            "velocity": 0.7874015748031497
          },
          {
            "duration": 0.1744185000000016,
            "durationTicks": 240,
            "midi": 36,
            "name": "C2",
            "ticks": 195360,
            "time": 141.976659,
            "velocity": 0.9448818897637795
          },
          {
            "duration": 0.1744185000000016,
            "durationTicks": 240,
            "midi": 44,
            "name": "G#2",
            "ticks": 195360,
            "time": 141.976659,
            "velocity": 0.7874015748031497
          },
          {
            "duration": 0.1744185000000016,
            "durationTicks": 240,
            "midi": 36,
            "name": "C2",
            "ticks": 195840,
            "time": 142.32549600000002,
            "velocity": 0.9448818897637795
          },
          {
            "duration": 0.1744185000000016,
            "durationTicks": 240,
            "midi": 44,
            "name": "G#2",
            "ticks": 195840,
            "time": 142.32549600000002,
            "velocity": 0.7874015748031497
          },
          {
            "duration": 0.1744185000000016,
            "durationTicks": 240,
            "midi": 36,
            "name": "C2",
            "ticks": 196320,
            "time": 142.674333,
            "velocity": 0.9448818897637795
          },
          {
            "duration": 0.1744185000000016,
            "durationTicks": 240,
            "midi": 44,
            "name": "G#2",
            "ticks": 196320,
            "time": 142.674333,
            "velocity": 0.7874015748031497
          },
          {
            "duration": 0.1744185000000016,
            "durationTicks": 240,
            "midi": 40,
            "name": "E2",
            "ticks": 196800,
            "time": 143.02317,
            "velocity": 0.9448818897637795
          },
          {
            "duration": 0.1744185000000016,
            "durationTicks": 240,
            "midi": 44,
            "name": "G#2",
            "ticks": 196800,
            "time": 143.02317,
            "velocity": 0.7874015748031497
          },
          {
            "duration": 0.1744185000000016,
            "durationTicks": 240,
            "midi": 36,
            "name": "C2",
            "ticks": 197280,
            "time": 143.372007,
            "velocity": 0.9448818897637795
          },
          {
            "duration": 0.1744185000000016,
            "durationTicks": 240,
            "midi": 44,
            "name": "G#2",
            "ticks": 197280,
            "time": 143.372007,
            "velocity": 0.7874015748031497
          },
          {
            "duration": 0.1744185000000016,
            "durationTicks": 240,
            "midi": 36,
            "name": "C2",
            "ticks": 197760,
            "time": 143.720844,
            "velocity": 0.9448818897637795
          },
          {
            "duration": 0.1744185000000016,
            "durationTicks": 240,
            "midi": 44,
            "name": "G#2",
            "ticks": 197760,
            "time": 143.720844,
            "velocity": 0.7874015748031497
          },
          {
            "duration": 0.1744185000000016,
            "durationTicks": 240,
            "midi": 36,
            "name": "C2",
            "ticks": 198240,
            "time": 144.069681,
            "velocity": 0.9448818897637795
          },
          {
            "duration": 0.1744185000000016,
            "durationTicks": 240,
            "midi": 44,
            "name": "G#2",
            "ticks": 198240,
            "time": 144.069681,
            "velocity": 0.7874015748031497
          },
          {
            "duration": 0.1744185000000016,
            "durationTicks": 240,
            "midi": 40,
            "name": "E2",
            "ticks": 198720,
            "time": 144.418518,
            "velocity": 0.9448818897637795
          },
          {
            "duration": 0.1744185000000016,
            "durationTicks": 240,
            "midi": 44,
            "name": "G#2",
            "ticks": 198720,
            "time": 144.418518,
            "velocity": 0.7874015748031497
          },
          {
            "duration": 0.1744185000000016,
            "durationTicks": 240,
            "midi": 36,
            "name": "C2",
            "ticks": 199200,
            "time": 144.767355,
            "velocity": 0.9448818897637795
          },
          {
            "duration": 0.1744185000000016,
            "durationTicks": 240,
            "midi": 44,
            "name": "G#2",
            "ticks": 199200,
            "time": 144.767355,
            "velocity": 0.7874015748031497
          },
          {
            "duration": 0.1744185000000016,
            "durationTicks": 240,
            "midi": 36,
            "name": "C2",
            "ticks": 199680,
            "time": 145.116192,
            "velocity": 0.9448818897637795
          },
          {
            "duration": 0.1744185000000016,
            "durationTicks": 240,
            "midi": 44,
            "name": "G#2",
            "ticks": 199680,
            "time": 145.116192,
            "velocity": 0.7874015748031497
          },
          {
            "duration": 0.1744185000000016,
            "durationTicks": 240,
            "midi": 36,
            "name": "C2",
            "ticks": 200160,
            "time": 145.46502900000002,
            "velocity": 0.9448818897637795
          },
          {
            "duration": 0.1744185000000016,
            "durationTicks": 240,
            "midi": 44,
            "name": "G#2",
            "ticks": 200160,
            "time": 145.46502900000002,
            "velocity": 0.7874015748031497
          },
          {
            "duration": 0.1744185000000016,
            "durationTicks": 240,
            "midi": 40,
            "name": "E2",
            "ticks": 200640,
            "time": 145.813866,
            "velocity": 0.9448818897637795
          },
          {
            "duration": 0.1744185000000016,
            "durationTicks": 240,
            "midi": 44,
            "name": "G#2",
            "ticks": 200640,
            "time": 145.813866,
            "velocity": 0.7874015748031497
          },
          {
            "duration": 0.1744185000000016,
            "durationTicks": 240,
            "midi": 36,
            "name": "C2",
            "ticks": 201120,
            "time": 146.162703,
            "velocity": 0.9448818897637795
          },
          {
            "duration": 0.1744185000000016,
            "durationTicks": 240,
            "midi": 46,
            "name": "A#2",
            "ticks": 201120,
            "time": 146.162703,
            "velocity": 0.7874015748031497
          },
          {
            "duration": 0.1744185000000016,
            "durationTicks": 240,
            "midi": 36,
            "name": "C2",
            "ticks": 201600,
            "time": 146.51154,
            "velocity": 0.9448818897637795
          },
          {
            "duration": 0.1744185000000016,
            "durationTicks": 240,
            "midi": 44,
            "name": "G#2",
            "ticks": 201600,
            "time": 146.51154,
            "velocity": 0.7874015748031497
          },
          {
            "duration": 0.1744185000000016,
            "durationTicks": 240,
            "midi": 36,
            "name": "C2",
            "ticks": 202080,
            "time": 146.860377,
            "velocity": 0.9448818897637795
          },
          {
            "duration": 0.1744185000000016,
            "durationTicks": 240,
            "midi": 44,
            "name": "G#2",
            "ticks": 202080,
            "time": 146.860377,
            "velocity": 0.7874015748031497
          },
          {
            "duration": 0.1744185000000016,
            "durationTicks": 240,
            "midi": 40,
            "name": "E2",
            "ticks": 202560,
            "time": 147.209214,
            "velocity": 0.9448818897637795
          },
          {
            "duration": 0.1744185000000016,
            "durationTicks": 240,
            "midi": 44,
            "name": "G#2",
            "ticks": 202560,
            "time": 147.209214,
            "velocity": 0.7874015748031497
          },
          {
            "duration": 0.1744185000000016,
            "durationTicks": 240,
            "midi": 36,
            "name": "C2",
            "ticks": 203040,
            "time": 147.558051,
            "velocity": 0.9448818897637795
          },
          {
            "duration": 0.1744185000000016,
            "durationTicks": 240,
            "midi": 44,
            "name": "G#2",
            "ticks": 203040,
            "time": 147.558051,
            "velocity": 0.7874015748031497
          },
          {
            "duration": 0.1744185000000016,
            "durationTicks": 240,
            "midi": 36,
            "name": "C2",
            "ticks": 203520,
            "time": 147.906888,
            "velocity": 0.9448818897637795
          },
          {
            "duration": 0.1744185000000016,
            "durationTicks": 240,
            "midi": 44,
            "name": "G#2",
            "ticks": 203520,
            "time": 147.906888,
            "velocity": 0.7874015748031497
          },
          {
            "duration": 0.1744185000000016,
            "durationTicks": 240,
            "midi": 36,
            "name": "C2",
            "ticks": 204000,
            "time": 148.255725,
            "velocity": 0.9448818897637795
          },
          {
            "duration": 0.1744185000000016,
            "durationTicks": 240,
            "midi": 44,
            "name": "G#2",
            "ticks": 204000,
            "time": 148.255725,
            "velocity": 0.7874015748031497
          },
          {
            "duration": 0.1744185000000016,
            "durationTicks": 240,
            "midi": 40,
            "name": "E2",
            "ticks": 204480,
            "time": 148.60456200000002,
            "velocity": 0.9448818897637795
          },
          {
            "duration": 0.1744185000000016,
            "durationTicks": 240,
            "midi": 44,
            "name": "G#2",
            "ticks": 204480,
            "time": 148.60456200000002,
            "velocity": 0.7874015748031497
          },
          {
            "duration": 0.1744185000000016,
            "durationTicks": 240,
            "midi": 36,
            "name": "C2",
            "ticks": 204960,
            "time": 148.953399,
            "velocity": 0.9448818897637795
          },
          {
            "duration": 0.1744185000000016,
            "durationTicks": 240,
            "midi": 44,
            "name": "G#2",
            "ticks": 204960,
            "time": 148.953399,
            "velocity": 0.7874015748031497
          },
          {
            "duration": 0.1744185000000016,
            "durationTicks": 240,
            "midi": 36,
            "name": "C2",
            "ticks": 205440,
            "time": 149.302236,
            "velocity": 0.9448818897637795
          },
          {
            "duration": 0.1744185000000016,
            "durationTicks": 240,
            "midi": 44,
            "name": "G#2",
            "ticks": 205440,
            "time": 149.302236,
            "velocity": 0.7874015748031497
          },
          {
            "duration": 0.1744185000000016,
            "durationTicks": 240,
            "midi": 36,
            "name": "C2",
            "ticks": 205920,
            "time": 149.651073,
            "velocity": 0.9448818897637795
          },
          {
            "duration": 0.1744185000000016,
            "durationTicks": 240,
            "midi": 44,
            "name": "G#2",
            "ticks": 205920,
            "time": 149.651073,
            "velocity": 0.7874015748031497
          },
          {
            "duration": 0.1744185000000016,
            "durationTicks": 240,
            "midi": 40,
            "name": "E2",
            "ticks": 206400,
            "time": 149.99991,
            "velocity": 0.9448818897637795
          },
          {
            "duration": 0.1744185000000016,
            "durationTicks": 240,
            "midi": 44,
            "name": "G#2",
            "ticks": 206400,
            "time": 149.99991,
            "velocity": 0.7874015748031497
          },
          {
            "duration": 0.1744185000000016,
            "durationTicks": 240,
            "midi": 36,
            "name": "C2",
            "ticks": 206880,
            "time": 150.348747,
            "velocity": 0.9448818897637795
          },
          {
            "duration": 0.1744185000000016,
            "durationTicks": 240,
            "midi": 44,
            "name": "G#2",
            "ticks": 206880,
            "time": 150.348747,
            "velocity": 0.7874015748031497
          },
          {
            "duration": 0.1744185000000016,
            "durationTicks": 240,
            "midi": 36,
            "name": "C2",
            "ticks": 207360,
            "time": 150.697584,
            "velocity": 0.9448818897637795
          },
          {
            "duration": 0.1744185000000016,
            "durationTicks": 240,
            "midi": 44,
            "name": "G#2",
            "ticks": 207360,
            "time": 150.697584,
            "velocity": 0.7874015748031497
          },
          {
            "duration": 0.1744185000000016,
            "durationTicks": 240,
            "midi": 36,
            "name": "C2",
            "ticks": 207840,
            "time": 151.046421,
            "velocity": 0.9448818897637795
          },
          {
            "duration": 0.1744185000000016,
            "durationTicks": 240,
            "midi": 44,
            "name": "G#2",
            "ticks": 207840,
            "time": 151.046421,
            "velocity": 0.7874015748031497
          },
          {
            "duration": 0.1744185000000016,
            "durationTicks": 240,
            "midi": 40,
            "name": "E2",
            "ticks": 208320,
            "time": 151.395258,
            "velocity": 0.9448818897637795
          },
          {
            "duration": 0.1744185000000016,
            "durationTicks": 240,
            "midi": 44,
            "name": "G#2",
            "ticks": 208320,
            "time": 151.395258,
            "velocity": 0.7874015748031497
          },
          {
            "duration": 0.1744185000000016,
            "durationTicks": 240,
            "midi": 36,
            "name": "C2",
            "ticks": 208800,
            "time": 151.74409500000002,
            "velocity": 0.9448818897637795
          },
          {
            "duration": 0.1744185000000016,
            "durationTicks": 240,
            "midi": 46,
            "name": "A#2",
            "ticks": 208800,
            "time": 151.74409500000002,
            "velocity": 0.7874015748031497
          },
          {
            "duration": 0.1744185000000016,
            "durationTicks": 240,
            "midi": 36,
            "name": "C2",
            "ticks": 209280,
            "time": 152.092932,
            "velocity": 0.9448818897637795
          },
          {
            "duration": 0.1744185000000016,
            "durationTicks": 240,
            "midi": 44,
            "name": "G#2",
            "ticks": 209280,
            "time": 152.092932,
            "velocity": 0.7874015748031497
          },
          {
            "duration": 0.1744185000000016,
            "durationTicks": 240,
            "midi": 36,
            "name": "C2",
            "ticks": 209760,
            "time": 152.441769,
            "velocity": 0.9448818897637795
          },
          {
            "duration": 0.1744185000000016,
            "durationTicks": 240,
            "midi": 44,
            "name": "G#2",
            "ticks": 209760,
            "time": 152.441769,
            "velocity": 0.7874015748031497
          },
          {
            "duration": 0.1744185000000016,
            "durationTicks": 240,
            "midi": 40,
            "name": "E2",
            "ticks": 210240,
            "time": 152.790606,
            "velocity": 0.9448818897637795
          },
          {
            "duration": 0.1744185000000016,
            "durationTicks": 240,
            "midi": 44,
            "name": "G#2",
            "ticks": 210240,
            "time": 152.790606,
            "velocity": 0.7874015748031497
          },
          {
            "duration": 0.1744185000000016,
            "durationTicks": 240,
            "midi": 36,
            "name": "C2",
            "ticks": 210720,
            "time": 153.139443,
            "velocity": 0.9448818897637795
          },
          {
            "duration": 0.1744185000000016,
            "durationTicks": 240,
            "midi": 44,
            "name": "G#2",
            "ticks": 210720,
            "time": 153.139443,
            "velocity": 0.7874015748031497
          },
          {
            "duration": 0.1744185000000016,
            "durationTicks": 240,
            "midi": 36,
            "name": "C2",
            "ticks": 211200,
            "time": 153.48828,
            "velocity": 0.9448818897637795
          },
          {
            "duration": 0.1744185000000016,
            "durationTicks": 240,
            "midi": 44,
            "name": "G#2",
            "ticks": 211200,
            "time": 153.48828,
            "velocity": 0.7874015748031497
          },
          {
            "duration": 0.1744185000000016,
            "durationTicks": 240,
            "midi": 36,
            "name": "C2",
            "ticks": 211680,
            "time": 153.837117,
            "velocity": 0.9448818897637795
          },
          {
            "duration": 0.1744185000000016,
            "durationTicks": 240,
            "midi": 44,
            "name": "G#2",
            "ticks": 211680,
            "time": 153.837117,
            "velocity": 0.7874015748031497
          },
          {
            "duration": 0.1744185000000016,
            "durationTicks": 240,
            "midi": 40,
            "name": "E2",
            "ticks": 212160,
            "time": 154.185954,
            "velocity": 0.9448818897637795
          },
          {
            "duration": 0.1744185000000016,
            "durationTicks": 240,
            "midi": 44,
            "name": "G#2",
            "ticks": 212160,
            "time": 154.185954,
            "velocity": 0.7874015748031497
          },
          {
            "duration": 0.1744185000000016,
            "durationTicks": 240,
            "midi": 36,
            "name": "C2",
            "ticks": 212640,
            "time": 154.534791,
            "velocity": 0.9448818897637795
          },
          {
            "duration": 0.1744185000000016,
            "durationTicks": 240,
            "midi": 44,
            "name": "G#2",
            "ticks": 212640,
            "time": 154.534791,
            "velocity": 0.7874015748031497
          },
          {
            "duration": 0.1744185000000016,
            "durationTicks": 240,
            "midi": 36,
            "name": "C2",
            "ticks": 213120,
            "time": 154.88362800000002,
            "velocity": 0.9448818897637795
          },
          {
            "duration": 0.1744185000000016,
            "durationTicks": 240,
            "midi": 44,
            "name": "G#2",
            "ticks": 213120,
            "time": 154.88362800000002,
            "velocity": 0.7874015748031497
          },
          {
            "duration": 0.1744185000000016,
            "durationTicks": 240,
            "midi": 36,
            "name": "C2",
            "ticks": 213600,
            "time": 155.232465,
            "velocity": 0.9448818897637795
          },
          {
            "duration": 0.1744185000000016,
            "durationTicks": 240,
            "midi": 44,
            "name": "G#2",
            "ticks": 213600,
            "time": 155.232465,
            "velocity": 0.7874015748031497
          },
          {
            "duration": 0.1744185000000016,
            "durationTicks": 240,
            "midi": 40,
            "name": "E2",
            "ticks": 214080,
            "time": 155.581302,
            "velocity": 0.9448818897637795
          },
          {
            "duration": 0.1744185000000016,
            "durationTicks": 240,
            "midi": 44,
            "name": "G#2",
            "ticks": 214080,
            "time": 155.581302,
            "velocity": 0.7874015748031497
          },
          {
            "duration": 0.1744185000000016,
            "durationTicks": 240,
            "midi": 36,
            "name": "C2",
            "ticks": 214560,
            "time": 155.930139,
            "velocity": 0.9448818897637795
          },
          {
            "duration": 0.1744185000000016,
            "durationTicks": 240,
            "midi": 44,
            "name": "G#2",
            "ticks": 214560,
            "time": 155.930139,
            "velocity": 0.7874015748031497
          },
          {
            "duration": 0.1744185000000016,
            "durationTicks": 240,
            "midi": 36,
            "name": "C2",
            "ticks": 215040,
            "time": 156.278976,
            "velocity": 0.9448818897637795
          },
          {
            "duration": 0.1744185000000016,
            "durationTicks": 240,
            "midi": 44,
            "name": "G#2",
            "ticks": 215040,
            "time": 156.278976,
            "velocity": 0.7874015748031497
          },
          {
            "duration": 0.1744185000000016,
            "durationTicks": 240,
            "midi": 36,
            "name": "C2",
            "ticks": 215520,
            "time": 156.627813,
            "velocity": 0.9448818897637795
          },
          {
            "duration": 0.1744185000000016,
            "durationTicks": 240,
            "midi": 44,
            "name": "G#2",
            "ticks": 215520,
            "time": 156.627813,
            "velocity": 0.7874015748031497
          },
          {
            "duration": 0.1744185000000016,
            "durationTicks": 240,
            "midi": 40,
            "name": "E2",
            "ticks": 216000,
            "time": 156.97665,
            "velocity": 0.9448818897637795
          },
          {
            "duration": 0.1744185000000016,
            "durationTicks": 240,
            "midi": 44,
            "name": "G#2",
            "ticks": 216000,
            "time": 156.97665,
            "velocity": 0.7874015748031497
          },
          {
            "duration": 0.1744185000000016,
            "durationTicks": 240,
            "midi": 36,
            "name": "C2",
            "ticks": 216480,
            "time": 157.325487,
            "velocity": 0.9448818897637795
          },
          {
            "duration": 0.1744185000000016,
            "durationTicks": 240,
            "midi": 46,
            "name": "A#2",
            "ticks": 216480,
            "time": 157.325487,
            "velocity": 0.7874015748031497
          },
          {
            "duration": 0.1744185000000016,
            "durationTicks": 240,
            "midi": 36,
            "name": "C2",
            "ticks": 216960,
            "time": 157.674324,
            "velocity": 0.9448818897637795
          },
          {
            "duration": 0.1744185000000016,
            "durationTicks": 240,
            "midi": 44,
            "name": "G#2",
            "ticks": 216960,
            "time": 157.674324,
            "velocity": 0.7874015748031497
          },
          {
            "duration": 0.1744185000000016,
            "durationTicks": 240,
            "midi": 36,
            "name": "C2",
            "ticks": 217440,
            "time": 158.02316100000002,
            "velocity": 0.9448818897637795
          },
          {
            "duration": 0.1744185000000016,
            "durationTicks": 240,
            "midi": 44,
            "name": "G#2",
            "ticks": 217440,
            "time": 158.02316100000002,
            "velocity": 0.7874015748031497
          },
          {
            "duration": 0.1744185000000016,
            "durationTicks": 240,
            "midi": 40,
            "name": "E2",
            "ticks": 217920,
            "time": 158.371998,
            "velocity": 0.9448818897637795
          },
          {
            "duration": 0.1744185000000016,
            "durationTicks": 240,
            "midi": 44,
            "name": "G#2",
            "ticks": 217920,
            "time": 158.371998,
            "velocity": 0.7874015748031497
          },
          {
            "duration": 0.1744185000000016,
            "durationTicks": 240,
            "midi": 36,
            "name": "C2",
            "ticks": 218400,
            "time": 158.720835,
            "velocity": 0.9448818897637795
          },
          {
            "duration": 0.1744185000000016,
            "durationTicks": 240,
            "midi": 44,
            "name": "G#2",
            "ticks": 218400,
            "time": 158.720835,
            "velocity": 0.7874015748031497
          },
          {
            "duration": 0.1744185000000016,
            "durationTicks": 240,
            "midi": 36,
            "name": "C2",
            "ticks": 218880,
            "time": 159.069672,
            "velocity": 0.9448818897637795
          },
          {
            "duration": 0.1744185000000016,
            "durationTicks": 240,
            "midi": 44,
            "name": "G#2",
            "ticks": 218880,
            "time": 159.069672,
            "velocity": 0.7874015748031497
          },
          {
            "duration": 0.1744185000000016,
            "durationTicks": 240,
            "midi": 36,
            "name": "C2",
            "ticks": 219360,
            "time": 159.418509,
            "velocity": 0.9448818897637795
          },
          {
            "duration": 0.1744185000000016,
            "durationTicks": 240,
            "midi": 44,
            "name": "G#2",
            "ticks": 219360,
            "time": 159.418509,
            "velocity": 0.7874015748031497
          },
          {
            "duration": 0.1744185000000016,
            "durationTicks": 240,
            "midi": 40,
            "name": "E2",
            "ticks": 219840,
            "time": 159.767346,
            "velocity": 0.9448818897637795
          },
          {
            "duration": 0.1744185000000016,
            "durationTicks": 240,
            "midi": 44,
            "name": "G#2",
            "ticks": 219840,
            "time": 159.767346,
            "velocity": 0.7874015748031497
          },
          {
            "duration": 0.1744185000000016,
            "durationTicks": 240,
            "midi": 36,
            "name": "C2",
            "ticks": 220320,
            "time": 160.116183,
            "velocity": 0.9448818897637795
          },
          {
            "duration": 0.1744185000000016,
            "durationTicks": 240,
            "midi": 44,
            "name": "G#2",
            "ticks": 220320,
            "time": 160.116183,
            "velocity": 0.7874015748031497
          },
          {
            "duration": 0.1744185000000016,
            "durationTicks": 240,
            "midi": 36,
            "name": "C2",
            "ticks": 220800,
            "time": 160.46502,
            "velocity": 0.9448818897637795
          },
          {
            "duration": 0.1744185000000016,
            "durationTicks": 240,
            "midi": 44,
            "name": "G#2",
            "ticks": 220800,
            "time": 160.46502,
            "velocity": 0.7874015748031497
          },
          {
            "duration": 0.1744185000000016,
            "durationTicks": 240,
            "midi": 36,
            "name": "C2",
            "ticks": 221280,
            "time": 160.813857,
            "velocity": 0.9448818897637795
          },
          {
            "duration": 0.1744185000000016,
            "durationTicks": 240,
            "midi": 44,
            "name": "G#2",
            "ticks": 221280,
            "time": 160.813857,
            "velocity": 0.7874015748031497
          },
          {
            "duration": 0.1744185000000016,
            "durationTicks": 240,
            "midi": 40,
            "name": "E2",
            "ticks": 221760,
            "time": 161.16269400000002,
            "velocity": 0.9448818897637795
          },
          {
            "duration": 0.1744185000000016,
            "durationTicks": 240,
            "midi": 44,
            "name": "G#2",
            "ticks": 221760,
            "time": 161.16269400000002,
            "velocity": 0.7874015748031497
          },
          {
            "duration": 0.1744185000000016,
            "durationTicks": 240,
            "midi": 36,
            "name": "C2",
            "ticks": 222240,
            "time": 161.511531,
            "velocity": 0.9448818897637795
          },
          {
            "duration": 0.1744185000000016,
            "durationTicks": 240,
            "midi": 44,
            "name": "G#2",
            "ticks": 222240,
            "time": 161.511531,
            "velocity": 0.7874015748031497
          },
          {
            "duration": 0.1744185000000016,
            "durationTicks": 240,
            "midi": 36,
            "name": "C2",
            "ticks": 222720,
            "time": 161.860368,
            "velocity": 0.9448818897637795
          },
          {
            "duration": 0.1744185000000016,
            "durationTicks": 240,
            "midi": 44,
            "name": "G#2",
            "ticks": 222720,
            "time": 161.860368,
            "velocity": 0.7874015748031497
          },
          {
            "duration": 0.1744185000000016,
            "durationTicks": 240,
            "midi": 36,
            "name": "C2",
            "ticks": 223200,
            "time": 162.209205,
            "velocity": 0.9448818897637795
          },
          {
            "duration": 0.1744185000000016,
            "durationTicks": 240,
            "midi": 44,
            "name": "G#2",
            "ticks": 223200,
            "time": 162.209205,
            "velocity": 0.7874015748031497
          },
          {
            "duration": 0.1744185000000016,
            "durationTicks": 240,
            "midi": 40,
            "name": "E2",
            "ticks": 223680,
            "time": 162.558042,
            "velocity": 0.9448818897637795
          },
          {
            "duration": 0.1744185000000016,
            "durationTicks": 240,
            "midi": 44,
            "name": "G#2",
            "ticks": 223680,
            "time": 162.558042,
            "velocity": 0.7874015748031497
          },
          {
            "duration": 0.1744185000000016,
            "durationTicks": 240,
            "midi": 36,
            "name": "C2",
            "ticks": 224160,
            "time": 162.906879,
            "velocity": 0.9448818897637795
          },
          {
            "duration": 0.1744185000000016,
            "durationTicks": 240,
            "midi": 46,
            "name": "A#2",
            "ticks": 224160,
            "time": 162.906879,
            "velocity": 0.7874015748031497
          },
          {
            "duration": 0.1744185000000016,
            "durationTicks": 240,
            "midi": 36,
            "name": "C2",
            "ticks": 224640,
            "time": 163.255716,
            "velocity": 0.9448818897637795
          },
          {
            "duration": 0.1744185000000016,
            "durationTicks": 240,
            "midi": 44,
            "name": "G#2",
            "ticks": 224640,
            "time": 163.255716,
            "velocity": 0.7874015748031497
          },
          {
            "duration": 0.1744185000000016,
            "durationTicks": 240,
            "midi": 36,
            "name": "C2",
            "ticks": 225120,
            "time": 163.604553,
            "velocity": 0.9448818897637795
          },
          {
            "duration": 0.1744185000000016,
            "durationTicks": 240,
            "midi": 44,
            "name": "G#2",
            "ticks": 225120,
            "time": 163.604553,
            "velocity": 0.7874015748031497
          },
          {
            "duration": 0.1744185000000016,
            "durationTicks": 240,
            "midi": 40,
            "name": "E2",
            "ticks": 225600,
            "time": 163.95339,
            "velocity": 0.9448818897637795
          },
          {
            "duration": 0.1744185000000016,
            "durationTicks": 240,
            "midi": 44,
            "name": "G#2",
            "ticks": 225600,
            "time": 163.95339,
            "velocity": 0.7874015748031497
          },
          {
            "duration": 0.1744185000000016,
            "durationTicks": 240,
            "midi": 36,
            "name": "C2",
            "ticks": 226080,
            "time": 164.30222700000002,
            "velocity": 0.9448818897637795
          },
          {
            "duration": 0.1744185000000016,
            "durationTicks": 240,
            "midi": 44,
            "name": "G#2",
            "ticks": 226080,
            "time": 164.30222700000002,
            "velocity": 0.7874015748031497
          },
          {
            "duration": 0.1744185000000016,
            "durationTicks": 240,
            "midi": 36,
            "name": "C2",
            "ticks": 226560,
            "time": 164.651064,
            "velocity": 0.9448818897637795
          },
          {
            "duration": 0.1744185000000016,
            "durationTicks": 240,
            "midi": 44,
            "name": "G#2",
            "ticks": 226560,
            "time": 164.651064,
            "velocity": 0.7874015748031497
          },
          {
            "duration": 0.1744185000000016,
            "durationTicks": 240,
            "midi": 36,
            "name": "C2",
            "ticks": 227040,
            "time": 164.999901,
            "velocity": 0.9448818897637795
          },
          {
            "duration": 0.1744185000000016,
            "durationTicks": 240,
            "midi": 44,
            "name": "G#2",
            "ticks": 227040,
            "time": 164.999901,
            "velocity": 0.7874015748031497
          },
          {
            "duration": 0.1744185000000016,
            "durationTicks": 240,
            "midi": 40,
            "name": "E2",
            "ticks": 227520,
            "time": 165.348738,
            "velocity": 0.9448818897637795
          },
          {
            "duration": 0.1744185000000016,
            "durationTicks": 240,
            "midi": 44,
            "name": "G#2",
            "ticks": 227520,
            "time": 165.348738,
            "velocity": 0.7874015748031497
          },
          {
            "duration": 0.1744185000000016,
            "durationTicks": 240,
            "midi": 36,
            "name": "C2",
            "ticks": 228000,
            "time": 165.697575,
            "velocity": 0.9448818897637795
          },
          {
            "duration": 0.1744185000000016,
            "durationTicks": 240,
            "midi": 44,
            "name": "G#2",
            "ticks": 228000,
            "time": 165.697575,
            "velocity": 0.7874015748031497
          },
          {
            "duration": 0.1744185000000016,
            "durationTicks": 240,
            "midi": 36,
            "name": "C2",
            "ticks": 228480,
            "time": 166.046412,
            "velocity": 0.9448818897637795
          },
          {
            "duration": 0.1744185000000016,
            "durationTicks": 240,
            "midi": 44,
            "name": "G#2",
            "ticks": 228480,
            "time": 166.046412,
            "velocity": 0.7874015748031497
          },
          {
            "duration": 0.1744185000000016,
            "durationTicks": 240,
            "midi": 36,
            "name": "C2",
            "ticks": 228960,
            "time": 166.395249,
            "velocity": 0.9448818897637795
          },
          {
            "duration": 0.1744185000000016,
            "durationTicks": 240,
            "midi": 44,
            "name": "G#2",
            "ticks": 228960,
            "time": 166.395249,
            "velocity": 0.7874015748031497
          },
          {
            "duration": 0.1744185000000016,
            "durationTicks": 240,
            "midi": 40,
            "name": "E2",
            "ticks": 229440,
            "time": 166.744086,
            "velocity": 0.9448818897637795
          },
          {
            "duration": 0.1744185000000016,
            "durationTicks": 240,
            "midi": 44,
            "name": "G#2",
            "ticks": 229440,
            "time": 166.744086,
            "velocity": 0.7874015748031497
          },
          {
            "duration": 0.1744185000000016,
            "durationTicks": 240,
            "midi": 36,
            "name": "C2",
            "ticks": 229920,
            "time": 167.092923,
            "velocity": 0.9448818897637795
          },
          {
            "duration": 0.1744185000000016,
            "durationTicks": 240,
            "midi": 44,
            "name": "G#2",
            "ticks": 229920,
            "time": 167.092923,
            "velocity": 0.7874015748031497
          },
          {
            "duration": 0.1744185000000016,
            "durationTicks": 240,
            "midi": 36,
            "name": "C2",
            "ticks": 230400,
            "time": 167.44176000000002,
            "velocity": 0.9448818897637795
          },
          {
            "duration": 0.1744185000000016,
            "durationTicks": 240,
            "midi": 44,
            "name": "G#2",
            "ticks": 230400,
            "time": 167.44176000000002,
            "velocity": 0.7874015748031497
          },
          {
            "duration": 0.1744185000000016,
            "durationTicks": 240,
            "midi": 36,
            "name": "C2",
            "ticks": 230880,
            "time": 167.790597,
            "velocity": 0.9448818897637795
          },
          {
            "duration": 0.1744185000000016,
            "durationTicks": 240,
            "midi": 44,
            "name": "G#2",
            "ticks": 230880,
            "time": 167.790597,
            "velocity": 0.7874015748031497
          },
          {
            "duration": 0.1744185000000016,
            "durationTicks": 240,
            "midi": 40,
            "name": "E2",
            "ticks": 231360,
            "time": 168.139434,
            "velocity": 0.9448818897637795
          },
          {
            "duration": 0.1744185000000016,
            "durationTicks": 240,
            "midi": 44,
            "name": "G#2",
            "ticks": 231360,
            "time": 168.139434,
            "velocity": 0.7874015748031497
          },
          {
            "duration": 0.1744185000000016,
            "durationTicks": 240,
            "midi": 36,
            "name": "C2",
            "ticks": 231840,
            "time": 168.488271,
            "velocity": 0.9448818897637795
          },
          {
            "duration": 0.1744185000000016,
            "durationTicks": 240,
            "midi": 46,
            "name": "A#2",
            "ticks": 231840,
            "time": 168.488271,
            "velocity": 0.7874015748031497
          },
          {
            "duration": 0.1627905999999939,
            "durationTicks": 224,
            "midi": 36,
            "name": "C2",
            "ticks": 232320,
            "time": 168.837108,
            "velocity": 0.9448818897637795
          },
          {
            "duration": 0.17151152499999966,
            "durationTicks": 236,
            "midi": 36,
            "name": "C2",
            "ticks": 232320,
            "time": 168.837108,
            "velocity": 0.9448818897637795
          },
          {
            "duration": 0.15988362499999198,
            "durationTicks": 220,
            "midi": 46,
            "name": "A#2",
            "ticks": 232320,
            "time": 168.837108,
            "velocity": 0.9448818897637795
          },
          {
            "duration": 0.15988362499999198,
            "durationTicks": 220,
            "midi": 36,
            "name": "C2",
            "ticks": 232800,
            "time": 169.185945,
            "velocity": 0.9448818897637795
          },
          {
            "duration": 0.15988362499999198,
            "durationTicks": 220,
            "midi": 46,
            "name": "A#2",
            "ticks": 232800,
            "time": 169.185945,
            "velocity": 0.9448818897637795
          },
          {
            "duration": 0.15988362499999198,
            "durationTicks": 220,
            "midi": 40,
            "name": "E2",
            "ticks": 233280,
            "time": 169.534782,
            "velocity": 0.9448818897637795
          },
          {
            "duration": 0.15988362499999198,
            "durationTicks": 220,
            "midi": 46,
            "name": "A#2",
            "ticks": 233280,
            "time": 169.534782,
            "velocity": 0.9448818897637795
          },
          {
            "duration": 0.15988362499999198,
            "durationTicks": 220,
            "midi": 36,
            "name": "C2",
            "ticks": 233760,
            "time": 169.883619,
            "velocity": 0.9448818897637795
          },
          {
            "duration": 0.15988362499999198,
            "durationTicks": 220,
            "midi": 46,
            "name": "A#2",
            "ticks": 233760,
            "time": 169.883619,
            "velocity": 0.9448818897637795
          },
          {
            "duration": 0.1744185000000016,
            "durationTicks": 240,
            "midi": 36,
            "name": "C2",
            "ticks": 234240,
            "time": 170.232456,
            "velocity": 0.9448818897637795
          },
          {
            "duration": 0.15988362499999198,
            "durationTicks": 220,
            "midi": 46,
            "name": "A#2",
            "ticks": 234240,
            "time": 170.232456,
            "velocity": 0.9448818897637795
          },
          {
            "duration": 0.1744185000000016,
            "durationTicks": 240,
            "midi": 36,
            "name": "C2",
            "ticks": 234720,
            "time": 170.58129300000002,
            "velocity": 0.9448818897637795
          },
          {
            "duration": 0.15988362499999198,
            "durationTicks": 220,
            "midi": 46,
            "name": "A#2",
            "ticks": 234720,
            "time": 170.58129300000002,
            "velocity": 0.9448818897637795
          },
          {
            "duration": 0.1744185000000016,
            "durationTicks": 240,
            "midi": 40,
            "name": "E2",
            "ticks": 235200,
            "time": 170.93013,
            "velocity": 0.9448818897637795
          },
          {
            "duration": 0.15988362499999198,
            "durationTicks": 220,
            "midi": 46,
            "name": "A#2",
            "ticks": 235200,
            "time": 170.93013,
            "velocity": 0.9448818897637795
          },
          {
            "duration": 0.1744185000000016,
            "durationTicks": 240,
            "midi": 36,
            "name": "C2",
            "ticks": 235680,
            "time": 171.278967,
            "velocity": 0.9448818897637795
          },
          {
            "duration": 0.15988362499999198,
            "durationTicks": 220,
            "midi": 46,
            "name": "A#2",
            "ticks": 235680,
            "time": 171.278967,
            "velocity": 0.9448818897637795
          },
          {
            "duration": 0.1744185000000016,
            "durationTicks": 240,
            "midi": 36,
            "name": "C2",
            "ticks": 236160,
            "time": 171.627804,
            "velocity": 0.9448818897637795
          },
          {
            "duration": 0.15988362499999198,
            "durationTicks": 220,
            "midi": 46,
            "name": "A#2",
            "ticks": 236160,
            "time": 171.627804,
            "velocity": 0.9448818897637795
          },
          {
            "duration": 0.15988362499999198,
            "durationTicks": 220,
            "midi": 36,
            "name": "C2",
            "ticks": 236640,
            "time": 171.976641,
            "velocity": 0.9448818897637795
          },
          {
            "duration": 0.15988362499999198,
            "durationTicks": 220,
            "midi": 46,
            "name": "A#2",
            "ticks": 236640,
            "time": 171.976641,
            "velocity": 0.9448818897637795
          },
          {
            "duration": 0.1744185000000016,
            "durationTicks": 240,
            "midi": 40,
            "name": "E2",
            "ticks": 237120,
            "time": 172.325478,
            "velocity": 0.9448818897637795
          },
          {
            "duration": 0.15988362499999198,
            "durationTicks": 220,
            "midi": 46,
            "name": "A#2",
            "ticks": 237120,
            "time": 172.325478,
            "velocity": 0.9448818897637795
          },
          {
            "duration": 0.1744185000000016,
            "durationTicks": 240,
            "midi": 36,
            "name": "C2",
            "ticks": 237600,
            "time": 172.674315,
            "velocity": 0.9448818897637795
          },
          {
            "duration": 0.15988362499999198,
            "durationTicks": 220,
            "midi": 46,
            "name": "A#2",
            "ticks": 237600,
            "time": 172.674315,
            "velocity": 0.9448818897637795
          },
          {
            "duration": 0.1744185000000016,
            "durationTicks": 240,
            "midi": 36,
            "name": "C2",
            "ticks": 238080,
            "time": 173.023152,
            "velocity": 0.9448818897637795
          },
          {
            "duration": 0.15988362499999198,
            "durationTicks": 220,
            "midi": 46,
            "name": "A#2",
            "ticks": 238080,
            "time": 173.023152,
            "velocity": 0.9448818897637795
          },
          {
            "duration": 0.1744185000000016,
            "durationTicks": 240,
            "midi": 36,
            "name": "C2",
            "ticks": 238560,
            "time": 173.371989,
            "velocity": 0.9448818897637795
          },
          {
            "duration": 0.15988362499999198,
            "durationTicks": 220,
            "midi": 46,
            "name": "A#2",
            "ticks": 238560,
            "time": 173.371989,
            "velocity": 0.9448818897637795
          },
          {
            "duration": 0.1744185000000016,
            "durationTicks": 240,
            "midi": 40,
            "name": "E2",
            "ticks": 239040,
            "time": 173.72082600000002,
            "velocity": 0.9448818897637795
          },
          {
            "duration": 0.15988362499999198,
            "durationTicks": 220,
            "midi": 46,
            "name": "A#2",
            "ticks": 239040,
            "time": 173.72082600000002,
            "velocity": 0.9448818897637795
          },
          {
            "duration": 0.1744185000000016,
            "durationTicks": 240,
            "midi": 36,
            "name": "C2",
            "ticks": 239520,
            "time": 174.069663,
            "velocity": 0.9448818897637795
          },
          {
            "duration": 0.15988362499999198,
            "durationTicks": 220,
            "midi": 46,
            "name": "A#2",
            "ticks": 239520,
            "time": 174.069663,
            "velocity": 0.9448818897637795
          },
          {
            "duration": 0.1744185000000016,
            "durationTicks": 240,
            "midi": 36,
            "name": "C2",
            "ticks": 240000,
            "time": 174.4185,
            "velocity": 0.9448818897637795
          },
          {
            "duration": 0.15988362499999198,
            "durationTicks": 220,
            "midi": 49,
            "name": "C#3",
            "ticks": 240000,
            "time": 174.4185,
            "velocity": 0.9448818897637795
          },
          {
            "duration": 0.15988362499999198,
            "durationTicks": 220,
            "midi": 51,
            "name": "D#3",
            "ticks": 240480,
            "time": 174.767337,
            "velocity": 0.9448818897637795
          },
          {
            "duration": 0.1744185000000016,
            "durationTicks": 240,
            "midi": 40,
            "name": "E2",
            "ticks": 240960,
            "time": 175.116174,
            "velocity": 0.9448818897637795
          },
          {
            "duration": 0.15988362499999198,
            "durationTicks": 220,
            "midi": 51,
            "name": "D#3",
            "ticks": 240960,
            "time": 175.116174,
            "velocity": 0.9448818897637795
          },
          {
            "duration": 0.1744185000000016,
            "durationTicks": 240,
            "midi": 36,
            "name": "C2",
            "ticks": 241440,
            "time": 175.465011,
            "velocity": 0.9448818897637795
          },
          {
            "duration": 0.15988362499999198,
            "durationTicks": 220,
            "midi": 51,
            "name": "D#3",
            "ticks": 241440,
            "time": 175.465011,
            "velocity": 0.9448818897637795
          },
          {
            "duration": 0.1744185000000016,
            "durationTicks": 240,
            "midi": 36,
            "name": "C2",
            "ticks": 241920,
            "time": 175.813848,
            "velocity": 0.9448818897637795
          },
          {
            "duration": 0.15988362499999198,
            "durationTicks": 220,
            "midi": 51,
            "name": "D#3",
            "ticks": 241920,
            "time": 175.813848,
            "velocity": 0.9448818897637795
          },
          {
            "duration": 0.1744185000000016,
            "durationTicks": 240,
            "midi": 36,
            "name": "C2",
            "ticks": 242400,
            "time": 176.162685,
            "velocity": 0.9448818897637795
          },
          {
            "duration": 0.15988362499999198,
            "durationTicks": 220,
            "midi": 51,
            "name": "D#3",
            "ticks": 242400,
            "time": 176.162685,
            "velocity": 0.9448818897637795
          },
          {
            "duration": 0.1744185000000016,
            "durationTicks": 240,
            "midi": 40,
            "name": "E2",
            "ticks": 242880,
            "time": 176.511522,
            "velocity": 0.9448818897637795
          },
          {
            "duration": 0.15988362499999198,
            "durationTicks": 220,
            "midi": 51,
            "name": "D#3",
            "ticks": 242880,
            "time": 176.511522,
            "velocity": 0.9448818897637795
          },
          {
            "duration": 0.15988362499999198,
            "durationTicks": 220,
            "midi": 51,
            "name": "D#3",
            "ticks": 243360,
            "time": 176.86035900000002,
            "velocity": 0.9448818897637795
          },
          {
            "duration": 0.1744185000000016,
            "durationTicks": 240,
            "midi": 36,
            "name": "C2",
            "ticks": 243840,
            "time": 177.209196,
            "velocity": 0.9448818897637795
          },
          {
            "duration": 0.15988362499999198,
            "durationTicks": 220,
            "midi": 51,
            "name": "D#3",
            "ticks": 243840,
            "time": 177.209196,
            "velocity": 0.9448818897637795
          },
          {
            "duration": 0.15988362499999198,
            "durationTicks": 220,
            "midi": 51,
            "name": "D#3",
            "ticks": 244320,
            "time": 177.558033,
            "velocity": 0.9448818897637795
          },
          {
            "duration": 0.1744185000000016,
            "durationTicks": 240,
            "midi": 40,
            "name": "E2",
            "ticks": 244800,
            "time": 177.90687,
            "velocity": 0.9448818897637795
          },
          {
            "duration": 0.15988362499999198,
            "durationTicks": 220,
            "midi": 51,
            "name": "D#3",
            "ticks": 244800,
            "time": 177.90687,
            "velocity": 0.9448818897637795
          },
          {
            "duration": 0.1744185000000016,
            "durationTicks": 240,
            "midi": 36,
            "name": "C2",
            "ticks": 245280,
            "time": 178.255707,
            "velocity": 0.9448818897637795
          },
          {
            "duration": 0.15988362499999198,
            "durationTicks": 220,
            "midi": 51,
            "name": "D#3",
            "ticks": 245280,
            "time": 178.255707,
            "velocity": 0.9448818897637795
          },
          {
            "duration": 0.1744185000000016,
            "durationTicks": 240,
            "midi": 36,
            "name": "C2",
            "ticks": 245760,
            "time": 178.604544,
            "velocity": 0.9448818897637795
          },
          {
            "duration": 0.1598836250000204,
            "durationTicks": 220,
            "midi": 51,
            "name": "D#3",
            "ticks": 245760,
            "time": 178.604544,
            "velocity": 0.9448818897637795
          },
          {
            "duration": 0.1744185000000016,
            "durationTicks": 240,
            "midi": 36,
            "name": "C2",
            "ticks": 246240,
            "time": 178.953381,
            "velocity": 0.9448818897637795
          },
          {
            "duration": 0.1598836250000204,
            "durationTicks": 220,
            "midi": 51,
            "name": "D#3",
            "ticks": 246240,
            "time": 178.953381,
            "velocity": 0.9448818897637795
          },
          {
            "duration": 0.1744185000000016,
            "durationTicks": 240,
            "midi": 40,
            "name": "E2",
            "ticks": 246720,
            "time": 179.302218,
            "velocity": 0.9448818897637795
          },
          {
            "duration": 0.1598836250000204,
            "durationTicks": 220,
            "midi": 51,
            "name": "D#3",
            "ticks": 246720,
            "time": 179.302218,
            "velocity": 0.9448818897637795
          },
          {
            "duration": 0.15988362499999198,
            "durationTicks": 220,
            "midi": 51,
            "name": "D#3",
            "ticks": 247200,
            "time": 179.651055,
            "velocity": 0.9448818897637795
          },
          {
            "duration": 0.17441849999997316,
            "durationTicks": 240,
            "midi": 36,
            "name": "C2",
            "ticks": 247680,
            "time": 179.99989200000002,
            "velocity": 0.9448818897637795
          },
          {
            "duration": 0.15988362499999198,
            "durationTicks": 220,
            "midi": 51,
            "name": "D#3",
            "ticks": 247680,
            "time": 179.99989200000002,
            "velocity": 0.9448818897637795
          },
          {
            "duration": 0.1598836250000204,
            "durationTicks": 220,
            "midi": 51,
            "name": "D#3",
            "ticks": 248160,
            "time": 180.348729,
            "velocity": 0.9448818897637795
          },
          {
            "duration": 0.1744185000000016,
            "durationTicks": 240,
            "midi": 40,
            "name": "E2",
            "ticks": 248640,
            "time": 180.697566,
            "velocity": 0.9448818897637795
          },
          {
            "duration": 0.1598836250000204,
            "durationTicks": 220,
            "midi": 51,
            "name": "D#3",
            "ticks": 248640,
            "time": 180.697566,
            "velocity": 0.9448818897637795
          },
          {
            "duration": 0.1744185000000016,
            "durationTicks": 240,
            "midi": 36,
            "name": "C2",
            "ticks": 249120,
            "time": 181.046403,
            "velocity": 0.9448818897637795
          },
          {
            "duration": 0.1598836250000204,
            "durationTicks": 220,
            "midi": 51,
            "name": "D#3",
            "ticks": 249120,
            "time": 181.046403,
            "velocity": 0.9448818897637795
          },
          {
            "duration": 0.1744185000000016,
            "durationTicks": 240,
            "midi": 36,
            "name": "C2",
            "ticks": 249600,
            "time": 181.39524,
            "velocity": 0.9448818897637795
          },
          {
            "duration": 0.1598836250000204,
            "durationTicks": 220,
            "midi": 51,
            "name": "D#3",
            "ticks": 249600,
            "time": 181.39524,
            "velocity": 0.9448818897637795
          },
          {
            "duration": 0.1744185000000016,
            "durationTicks": 240,
            "midi": 36,
            "name": "C2",
            "ticks": 250080,
            "time": 181.744077,
            "velocity": 0.9448818897637795
          },
          {
            "duration": 0.1598836250000204,
            "durationTicks": 220,
            "midi": 51,
            "name": "D#3",
            "ticks": 250080,
            "time": 181.744077,
            "velocity": 0.9448818897637795
          },
          {
            "duration": 0.1744185000000016,
            "durationTicks": 240,
            "midi": 40,
            "name": "E2",
            "ticks": 250560,
            "time": 182.092914,
            "velocity": 0.9448818897637795
          },
          {
            "duration": 0.1598836250000204,
            "durationTicks": 220,
            "midi": 51,
            "name": "D#3",
            "ticks": 250560,
            "time": 182.092914,
            "velocity": 0.9448818897637795
          },
          {
            "duration": 0.1744185000000016,
            "durationTicks": 240,
            "midi": 36,
            "name": "C2",
            "ticks": 251040,
            "time": 182.441751,
            "velocity": 0.9448818897637795
          },
          {
            "duration": 0.1598836250000204,
            "durationTicks": 220,
            "midi": 51,
            "name": "D#3",
            "ticks": 251040,
            "time": 182.441751,
            "velocity": 0.9448818897637795
          },
          {
            "duration": 0.1744185000000016,
            "durationTicks": 240,
            "midi": 36,
            "name": "C2",
            "ticks": 251520,
            "time": 182.790588,
            "velocity": 0.9448818897637795
          },
          {
            "duration": 0.15988362499999198,
            "durationTicks": 220,
            "midi": 51,
            "name": "D#3",
            "ticks": 251520,
            "time": 182.790588,
            "velocity": 0.9448818897637795
          },
          {
            "duration": 0.15988362499999198,
            "durationTicks": 220,
            "midi": 51,
            "name": "D#3",
            "ticks": 252000,
            "time": 183.13942500000002,
            "velocity": 0.9448818897637795
          },
          {
            "duration": 0.1744185000000016,
            "durationTicks": 240,
            "midi": 40,
            "name": "E2",
            "ticks": 252480,
            "time": 183.488262,
            "velocity": 0.9448818897637795
          },
          {
            "duration": 0.1598836250000204,
            "durationTicks": 220,
            "midi": 51,
            "name": "D#3",
            "ticks": 252480,
            "time": 183.488262,
            "velocity": 0.9448818897637795
          },
          {
            "duration": 0.1744185000000016,
            "durationTicks": 240,
            "midi": 36,
            "name": "C2",
            "ticks": 252960,
            "time": 183.837099,
            "velocity": 0.9448818897637795
          },
          {
            "duration": 0.1598836250000204,
            "durationTicks": 220,
            "midi": 51,
            "name": "D#3",
            "ticks": 252960,
            "time": 183.837099,
            "velocity": 0.9448818897637795
          },
          {
            "duration": 0.1744185000000016,
            "durationTicks": 240,
            "midi": 36,
            "name": "C2",
            "ticks": 253440,
            "time": 184.185936,
            "velocity": 0.9448818897637795
          },
          {
            "duration": 0.1598836250000204,
            "durationTicks": 220,
            "midi": 51,
            "name": "D#3",
            "ticks": 253440,
            "time": 184.185936,
            "velocity": 0.9448818897637795
          },
          {
            "duration": 0.1744185000000016,
            "durationTicks": 240,
            "midi": 36,
            "name": "C2",
            "ticks": 253920,
            "time": 184.534773,
            "velocity": 0.9448818897637795
          },
          {
            "duration": 0.1598836250000204,
            "durationTicks": 220,
            "midi": 51,
            "name": "D#3",
            "ticks": 253920,
            "time": 184.534773,
            "velocity": 0.9448818897637795
          },
          {
            "duration": 0.1744185000000016,
            "durationTicks": 240,
            "midi": 40,
            "name": "E2",
            "ticks": 254400,
            "time": 184.88361,
            "velocity": 0.9448818897637795
          },
          {
            "duration": 0.1598836250000204,
            "durationTicks": 220,
            "midi": 51,
            "name": "D#3",
            "ticks": 254400,
            "time": 184.88361,
            "velocity": 0.9448818897637795
          },
          {
            "duration": 0.1744185000000016,
            "durationTicks": 240,
            "midi": 36,
            "name": "C2",
            "ticks": 254880,
            "time": 185.232447,
            "velocity": 0.9448818897637795
          },
          {
            "duration": 0.1598836250000204,
            "durationTicks": 220,
            "midi": 51,
            "name": "D#3",
            "ticks": 254880,
            "time": 185.232447,
            "velocity": 0.9448818897637795
          },
          {
            "duration": 0.1744185000000016,
            "durationTicks": 240,
            "midi": 36,
            "name": "C2",
            "ticks": 255360,
            "time": 185.581284,
            "velocity": 0.9448818897637795
          },
          {
            "duration": 0.1598836250000204,
            "durationTicks": 220,
            "midi": 51,
            "name": "D#3",
            "ticks": 255360,
            "time": 185.581284,
            "velocity": 0.9448818897637795
          },
          {
            "duration": 0.15988362499999198,
            "durationTicks": 220,
            "midi": 51,
            "name": "D#3",
            "ticks": 255840,
            "time": 185.930121,
            "velocity": 0.9448818897637795
          },
          {
            "duration": 0.17441849999997316,
            "durationTicks": 240,
            "midi": 40,
            "name": "E2",
            "ticks": 256320,
            "time": 186.27895800000002,
            "velocity": 0.9448818897637795
          },
          {
            "duration": 0.15988362499999198,
            "durationTicks": 220,
            "midi": 51,
            "name": "D#3",
            "ticks": 256320,
            "time": 186.27895800000002,
            "velocity": 0.9448818897637795
          },
          {
            "duration": 0.1744185000000016,
            "durationTicks": 240,
            "midi": 36,
            "name": "C2",
            "ticks": 256800,
            "time": 186.627795,
            "velocity": 0.9448818897637795
          },
          {
            "duration": 0.1598836250000204,
            "durationTicks": 220,
            "midi": 51,
            "name": "D#3",
            "ticks": 256800,
            "time": 186.627795,
            "velocity": 0.9448818897637795
          },
          {
            "duration": 0.1744185000000016,
            "durationTicks": 240,
            "midi": 36,
            "name": "C2",
            "ticks": 257280,
            "time": 186.976632,
            "velocity": 0.9448818897637795
          },
          {
            "duration": 0.1598836250000204,
            "durationTicks": 220,
            "midi": 51,
            "name": "D#3",
            "ticks": 257280,
            "time": 186.976632,
            "velocity": 0.9448818897637795
          },
          {
            "duration": 0.1744185000000016,
            "durationTicks": 240,
            "midi": 36,
            "name": "C2",
            "ticks": 257760,
            "time": 187.325469,
            "velocity": 0.9448818897637795
          },
          {
            "duration": 0.1598836250000204,
            "durationTicks": 220,
            "midi": 51,
            "name": "D#3",
            "ticks": 257760,
            "time": 187.325469,
            "velocity": 0.9448818897637795
          },
          {
            "duration": 0.1744185000000016,
            "durationTicks": 240,
            "midi": 40,
            "name": "E2",
            "ticks": 258240,
            "time": 187.674306,
            "velocity": 0.9448818897637795
          },
          {
            "duration": 0.1598836250000204,
            "durationTicks": 220,
            "midi": 51,
            "name": "D#3",
            "ticks": 258240,
            "time": 187.674306,
            "velocity": 0.9448818897637795
          },
          {
            "duration": 0.1744185000000016,
            "durationTicks": 240,
            "midi": 36,
            "name": "C2",
            "ticks": 258720,
            "time": 188.023143,
            "velocity": 0.9448818897637795
          },
          {
            "duration": 0.1598836250000204,
            "durationTicks": 220,
            "midi": 51,
            "name": "D#3",
            "ticks": 258720,
            "time": 188.023143,
            "velocity": 0.9448818897637795
          },
          {
            "duration": 0.1744185000000016,
            "durationTicks": 240,
            "midi": 36,
            "name": "C2",
            "ticks": 259200,
            "time": 188.37198,
            "velocity": 0.9448818897637795
          },
          {
            "duration": 0.1598836250000204,
            "durationTicks": 220,
            "midi": 51,
            "name": "D#3",
            "ticks": 259200,
            "time": 188.37198,
            "velocity": 0.9448818897637795
          },
          {
            "duration": 0.1598836250000204,
            "durationTicks": 220,
            "midi": 51,
            "name": "D#3",
            "ticks": 259680,
            "time": 188.720817,
            "velocity": 0.9448818897637795
          },
          {
            "duration": 0.1744185000000016,
            "durationTicks": 240,
            "midi": 40,
            "name": "E2",
            "ticks": 260160,
            "time": 189.069654,
            "velocity": 0.9448818897637795
          },
          {
            "duration": 0.15988362499999198,
            "durationTicks": 220,
            "midi": 51,
            "name": "D#3",
            "ticks": 260160,
            "time": 189.069654,
            "velocity": 0.9448818897637795
          },
          {
            "duration": 0.17441849999997316,
            "durationTicks": 240,
            "midi": 36,
            "name": "C2",
            "ticks": 260640,
            "time": 189.41849100000002,
            "velocity": 0.9448818897637795
          },
          {
            "duration": 0.15988362499999198,
            "durationTicks": 220,
            "midi": 51,
            "name": "D#3",
            "ticks": 260640,
            "time": 189.41849100000002,
            "velocity": 0.9448818897637795
          },
          {
            "duration": 0.1744185000000016,
            "durationTicks": 240,
            "midi": 36,
            "name": "C2",
            "ticks": 261120,
            "time": 189.767328,
            "velocity": 0.9448818897637795
          },
          {
            "duration": 0.1598836250000204,
            "durationTicks": 220,
            "midi": 51,
            "name": "D#3",
            "ticks": 261120,
            "time": 189.767328,
            "velocity": 0.9448818897637795
          },
          {
            "duration": 0.1744185000000016,
            "durationTicks": 240,
            "midi": 36,
            "name": "C2",
            "ticks": 261600,
            "time": 190.116165,
            "velocity": 0.9448818897637795
          },
          {
            "duration": 0.1598836250000204,
            "durationTicks": 220,
            "midi": 51,
            "name": "D#3",
            "ticks": 261600,
            "time": 190.116165,
            "velocity": 0.9448818897637795
          },
          {
            "duration": 0.1744185000000016,
            "durationTicks": 240,
            "midi": 40,
            "name": "E2",
            "ticks": 262080,
            "time": 190.465002,
            "velocity": 0.9448818897637795
          },
          {
            "duration": 0.1598836250000204,
            "durationTicks": 220,
            "midi": 51,
            "name": "D#3",
            "ticks": 262080,
            "time": 190.465002,
            "velocity": 0.9448818897637795
          },
          {
            "duration": 0.1744185000000016,
            "durationTicks": 240,
            "midi": 36,
            "name": "C2",
            "ticks": 262560,
            "time": 190.813839,
            "velocity": 0.9448818897637795
          },
          {
            "duration": 0.1598836250000204,
            "durationTicks": 220,
            "midi": 51,
            "name": "D#3",
            "ticks": 262560,
            "time": 190.813839,
            "velocity": 0.9448818897637795
          },
          {
            "duration": 0.1598836250000204,
            "durationTicks": 220,
            "midi": 36,
            "name": "C2",
            "ticks": 263040,
            "time": 191.162676,
            "velocity": 0.9448818897637795
          },
          {
            "duration": 0.1598836250000204,
            "durationTicks": 220,
            "midi": 49,
            "name": "C#3",
            "ticks": 263040,
            "time": 191.162676,
            "velocity": 0.9448818897637795
          },
          {
            "duration": 0.1598836250000204,
            "durationTicks": 220,
            "midi": 36,
            "name": "C2",
            "ticks": 270720,
            "time": 196.744068,
            "velocity": 0.9448818897637795
          },
          {
            "duration": 0.1598836250000204,
            "durationTicks": 220,
            "midi": 49,
            "name": "C#3",
            "ticks": 270720,
            "time": 196.744068,
            "velocity": 0.9448818897637795
          },
          {
            "duration": 0.1598836250000204,
            "durationTicks": 220,
            "midi": 46,
            "name": "A#2",
            "ticks": 271200,
            "time": 197.092905,
            "velocity": 0.9448818897637795
          },
          {
            "duration": 0.1598836250000204,
            "durationTicks": 220,
            "midi": 40,
            "name": "E2",
            "ticks": 271680,
            "time": 197.441742,
            "velocity": 0.9448818897637795
          },
          {
            "duration": 0.1598836250000204,
            "durationTicks": 220,
            "midi": 46,
            "name": "A#2",
            "ticks": 271680,
            "time": 197.441742,
            "velocity": 0.9448818897637795
          },
          {
            "duration": 0.1598836250000204,
            "durationTicks": 220,
            "midi": 36,
            "name": "C2",
            "ticks": 272160,
            "time": 197.790579,
            "velocity": 0.9448818897637795
          },
          {
            "duration": 0.1598836250000204,
            "durationTicks": 220,
            "midi": 46,
            "name": "A#2",
            "ticks": 272160,
            "time": 197.790579,
            "velocity": 0.9448818897637795
          },
          {
            "duration": 0.1744185000000016,
            "durationTicks": 240,
            "midi": 36,
            "name": "C2",
            "ticks": 272640,
            "time": 198.139416,
            "velocity": 0.9448818897637795
          },
          {
            "duration": 0.1598836250000204,
            "durationTicks": 220,
            "midi": 46,
            "name": "A#2",
            "ticks": 272640,
            "time": 198.139416,
            "velocity": 0.9448818897637795
          },
          {
            "duration": 0.1744185000000016,
            "durationTicks": 240,
            "midi": 36,
            "name": "C2",
            "ticks": 273120,
            "time": 198.48825300000001,
            "velocity": 0.9448818897637795
          },
          {
            "duration": 0.15988362499999198,
            "durationTicks": 220,
            "midi": 46,
            "name": "A#2",
            "ticks": 273120,
            "time": 198.48825300000001,
            "velocity": 0.9448818897637795
          },
          {
            "duration": 0.17441849999997316,
            "durationTicks": 240,
            "midi": 40,
            "name": "E2",
            "ticks": 273600,
            "time": 198.83709000000002,
            "velocity": 0.9448818897637795
          },
          {
            "duration": 0.15988362499999198,
            "durationTicks": 220,
            "midi": 46,
            "name": "A#2",
            "ticks": 273600,
            "time": 198.83709000000002,
            "velocity": 0.9448818897637795
          },
          {
            "duration": 0.1744185000000016,
            "durationTicks": 240,
            "midi": 36,
            "name": "C2",
            "ticks": 274080,
            "time": 199.185927,
            "velocity": 0.9448818897637795
          },
          {
            "duration": 0.1598836250000204,
            "durationTicks": 220,
            "midi": 46,
            "name": "A#2",
            "ticks": 274080,
            "time": 199.185927,
            "velocity": 0.9448818897637795
          },
          {
            "duration": 0.1744185000000016,
            "durationTicks": 240,
            "midi": 36,
            "name": "C2",
            "ticks": 274560,
            "time": 199.534764,
            "velocity": 0.9448818897637795
          },
          {
            "duration": 0.1598836250000204,
            "durationTicks": 220,
            "midi": 46,
            "name": "A#2",
            "ticks": 274560,
            "time": 199.534764,
            "velocity": 0.9448818897637795
          },
          {
            "duration": 0.1598836250000204,
            "durationTicks": 220,
            "midi": 46,
            "name": "A#2",
            "ticks": 275040,
            "time": 199.883601,
            "velocity": 0.9448818897637795
          },
          {
            "duration": 0.1744185000000016,
            "durationTicks": 240,
            "midi": 40,
            "name": "E2",
            "ticks": 275520,
            "time": 200.232438,
            "velocity": 0.9448818897637795
          },
          {
            "duration": 0.1598836250000204,
            "durationTicks": 220,
            "midi": 46,
            "name": "A#2",
            "ticks": 275520,
            "time": 200.232438,
            "velocity": 0.9448818897637795
          },
          {
            "duration": 0.1744185000000016,
            "durationTicks": 240,
            "midi": 36,
            "name": "C2",
            "ticks": 276000,
            "time": 200.581275,
            "velocity": 0.9448818897637795
          },
          {
            "duration": 0.1598836250000204,
            "durationTicks": 220,
            "midi": 46,
            "name": "A#2",
            "ticks": 276000,
            "time": 200.581275,
            "velocity": 0.9448818897637795
          },
          {
            "duration": 0.1744185000000016,
            "durationTicks": 240,
            "midi": 36,
            "name": "C2",
            "ticks": 276480,
            "time": 200.930112,
            "velocity": 0.9448818897637795
          },
          {
            "duration": 0.1598836250000204,
            "durationTicks": 220,
            "midi": 46,
            "name": "A#2",
            "ticks": 276480,
            "time": 200.930112,
            "velocity": 0.9448818897637795
          },
          {
            "duration": 0.1744185000000016,
            "durationTicks": 240,
            "midi": 36,
            "name": "C2",
            "ticks": 276960,
            "time": 201.278949,
            "velocity": 0.9448818897637795
          },
          {
            "duration": 0.1598836250000204,
            "durationTicks": 220,
            "midi": 46,
            "name": "A#2",
            "ticks": 276960,
            "time": 201.278949,
            "velocity": 0.9448818897637795
          },
          {
            "duration": 0.1744185000000016,
            "durationTicks": 240,
            "midi": 40,
            "name": "E2",
            "ticks": 277440,
            "time": 201.62778600000001,
            "velocity": 0.9448818897637795
          },
          {
            "duration": 0.15988362499999198,
            "durationTicks": 220,
            "midi": 46,
            "name": "A#2",
            "ticks": 277440,
            "time": 201.62778600000001,
            "velocity": 0.9448818897637795
          },
          {
            "duration": 0.17441849999997316,
            "durationTicks": 240,
            "midi": 36,
            "name": "C2",
            "ticks": 277920,
            "time": 201.97662300000002,
            "velocity": 0.9448818897637795
          },
          {
            "duration": 0.15988362499999198,
            "durationTicks": 220,
            "midi": 46,
            "name": "A#2",
            "ticks": 277920,
            "time": 201.97662300000002,
            "velocity": 0.9448818897637795
          },
          {
            "duration": 0.1744185000000016,
            "durationTicks": 240,
            "midi": 36,
            "name": "C2",
            "ticks": 278400,
            "time": 202.32546,
            "velocity": 0.9448818897637795
          },
          {
            "duration": 0.1598836250000204,
            "durationTicks": 220,
            "midi": 46,
            "name": "A#2",
            "ticks": 278400,
            "time": 202.32546,
            "velocity": 0.9448818897637795
          },
          {
            "duration": 0.1598836250000204,
            "durationTicks": 220,
            "midi": 46,
            "name": "A#2",
            "ticks": 278880,
            "time": 202.674297,
            "velocity": 0.9448818897637795
          },
          {
            "duration": 0.1744185000000016,
            "durationTicks": 240,
            "midi": 40,
            "name": "E2",
            "ticks": 279360,
            "time": 203.023134,
            "velocity": 0.9448818897637795
          },
          {
            "duration": 0.1598836250000204,
            "durationTicks": 220,
            "midi": 46,
            "name": "A#2",
            "ticks": 279360,
            "time": 203.023134,
            "velocity": 0.9448818897637795
          },
          {
            "duration": 0.1744185000000016,
            "durationTicks": 240,
            "midi": 36,
            "name": "C2",
            "ticks": 279840,
            "time": 203.371971,
            "velocity": 0.9448818897637795
          },
          {
            "duration": 0.1598836250000204,
            "durationTicks": 220,
            "midi": 46,
            "name": "A#2",
            "ticks": 279840,
            "time": 203.371971,
            "velocity": 0.9448818897637795
          },
          {
            "duration": 0.1744185000000016,
            "durationTicks": 240,
            "midi": 36,
            "name": "C2",
            "ticks": 280320,
            "time": 203.720808,
            "velocity": 0.9448818897637795
          },
          {
            "duration": 0.1598836250000204,
            "durationTicks": 220,
            "midi": 46,
            "name": "A#2",
            "ticks": 280320,
            "time": 203.720808,
            "velocity": 0.9448818897637795
          },
          {
            "duration": 0.1744185000000016,
            "durationTicks": 240,
            "midi": 36,
            "name": "C2",
            "ticks": 280800,
            "time": 204.069645,
            "velocity": 0.9448818897637795
          },
          {
            "duration": 0.1598836250000204,
            "durationTicks": 220,
            "midi": 46,
            "name": "A#2",
            "ticks": 280800,
            "time": 204.069645,
            "velocity": 0.9448818897637795
          },
          {
            "duration": 0.1744185000000016,
            "durationTicks": 240,
            "midi": 40,
            "name": "E2",
            "ticks": 281280,
            "time": 204.418482,
            "velocity": 0.9448818897637795
          },
          {
            "duration": 0.1598836250000204,
            "durationTicks": 220,
            "midi": 46,
            "name": "A#2",
            "ticks": 281280,
            "time": 204.418482,
            "velocity": 0.9448818897637795
          },
          {
            "duration": 0.1744185000000016,
            "durationTicks": 240,
            "midi": 36,
            "name": "C2",
            "ticks": 281760,
            "time": 204.76731900000001,
            "velocity": 0.9448818897637795
          },
          {
            "duration": 0.15988362499999198,
            "durationTicks": 220,
            "midi": 46,
            "name": "A#2",
            "ticks": 281760,
            "time": 204.76731900000001,
            "velocity": 0.9448818897637795
          },
          {
            "duration": 0.17441849999997316,
            "durationTicks": 240,
            "midi": 36,
            "name": "C2",
            "ticks": 282240,
            "time": 205.11615600000002,
            "velocity": 0.9448818897637795
          },
          {
            "duration": 0.15988362499999198,
            "durationTicks": 220,
            "midi": 46,
            "name": "A#2",
            "ticks": 282240,
            "time": 205.11615600000002,
            "velocity": 0.9448818897637795
          },
          {
            "duration": 0.1598836250000204,
            "durationTicks": 220,
            "midi": 46,
            "name": "A#2",
            "ticks": 282720,
            "time": 205.464993,
            "velocity": 0.9448818897637795
          },
          {
            "duration": 0.1744185000000016,
            "durationTicks": 240,
            "midi": 40,
            "name": "E2",
            "ticks": 283200,
            "time": 205.81383,
            "velocity": 0.9448818897637795
          },
          {
            "duration": 0.1598836250000204,
            "durationTicks": 220,
            "midi": 46,
            "name": "A#2",
            "ticks": 283200,
            "time": 205.81383,
            "velocity": 0.9448818897637795
          },
          {
            "duration": 0.1744185000000016,
            "durationTicks": 240,
            "midi": 36,
            "name": "C2",
            "ticks": 283680,
            "time": 206.162667,
            "velocity": 0.9448818897637795
          },
          {
            "duration": 0.1598836250000204,
            "durationTicks": 220,
            "midi": 46,
            "name": "A#2",
            "ticks": 283680,
            "time": 206.162667,
            "velocity": 0.9448818897637795
          },
          {
            "duration": 0.1744185000000016,
            "durationTicks": 240,
            "midi": 36,
            "name": "C2",
            "ticks": 284160,
            "time": 206.511504,
            "velocity": 0.9448818897637795
          },
          {
            "duration": 0.1598836250000204,
            "durationTicks": 220,
            "midi": 46,
            "name": "A#2",
            "ticks": 284160,
            "time": 206.511504,
            "velocity": 0.9448818897637795
          },
          {
            "duration": 0.1744185000000016,
            "durationTicks": 240,
            "midi": 36,
            "name": "C2",
            "ticks": 284640,
            "time": 206.860341,
            "velocity": 0.9448818897637795
          },
          {
            "duration": 0.1598836250000204,
            "durationTicks": 220,
            "midi": 46,
            "name": "A#2",
            "ticks": 284640,
            "time": 206.860341,
            "velocity": 0.9448818897637795
          },
          {
            "duration": 0.1744185000000016,
            "durationTicks": 240,
            "midi": 40,
            "name": "E2",
            "ticks": 285120,
            "time": 207.209178,
            "velocity": 0.9448818897637795
          },
          {
            "duration": 0.1598836250000204,
            "durationTicks": 220,
            "midi": 46,
            "name": "A#2",
            "ticks": 285120,
            "time": 207.209178,
            "velocity": 0.9448818897637795
          },
          {
            "duration": 0.1744185000000016,
            "durationTicks": 240,
            "midi": 36,
            "name": "C2",
            "ticks": 285600,
            "time": 207.558015,
            "velocity": 0.9448818897637795
          },
          {
            "duration": 0.1598836250000204,
            "durationTicks": 220,
            "midi": 46,
            "name": "A#2",
            "ticks": 285600,
            "time": 207.558015,
            "velocity": 0.9448818897637795
          },
          {
            "duration": 0.1744185000000016,
            "durationTicks": 240,
            "midi": 36,
            "name": "C2",
            "ticks": 286080,
            "time": 207.90685200000001,
            "velocity": 0.9448818897637795
          },
          {
            "duration": 0.15988362499999198,
            "durationTicks": 220,
            "midi": 46,
            "name": "A#2",
            "ticks": 286080,
            "time": 207.90685200000001,
            "velocity": 0.9448818897637795
          },
          {
            "duration": 0.15988362499999198,
            "durationTicks": 220,
            "midi": 46,
            "name": "A#2",
            "ticks": 286560,
            "time": 208.25568900000002,
            "velocity": 0.9448818897637795
          },
          {
            "duration": 0.1744185000000016,
            "durationTicks": 240,
            "midi": 40,
            "name": "E2",
            "ticks": 287040,
            "time": 208.604526,
            "velocity": 0.9448818897637795
          },
          {
            "duration": 0.1598836250000204,
            "durationTicks": 220,
            "midi": 46,
            "name": "A#2",
            "ticks": 287040,
            "time": 208.604526,
            "velocity": 0.9448818897637795
          },
          {
            "duration": 0.1744185000000016,
            "durationTicks": 240,
            "midi": 36,
            "name": "C2",
            "ticks": 287520,
            "time": 208.953363,
            "velocity": 0.9448818897637795
          },
          {
            "duration": 0.1598836250000204,
            "durationTicks": 220,
            "midi": 46,
            "name": "A#2",
            "ticks": 287520,
            "time": 208.953363,
            "velocity": 0.9448818897637795
          },
          {
            "duration": 0.1744185000000016,
            "durationTicks": 240,
            "midi": 36,
            "name": "C2",
            "ticks": 288000,
            "time": 209.3022,
            "velocity": 0.9448818897637795
          },
          {
            "duration": 0.1598836250000204,
            "durationTicks": 220,
            "midi": 46,
            "name": "A#2",
            "ticks": 288000,
            "time": 209.3022,
            "velocity": 0.9448818897637795
          },
          {
            "duration": 0.1744185000000016,
            "durationTicks": 240,
            "midi": 36,
            "name": "C2",
            "ticks": 288480,
            "time": 209.651037,
            "velocity": 0.9448818897637795
          },
          {
            "duration": 0.1598836250000204,
            "durationTicks": 220,
            "midi": 46,
            "name": "A#2",
            "ticks": 288480,
            "time": 209.651037,
            "velocity": 0.9448818897637795
          },
          {
            "duration": 0.1744185000000016,
            "durationTicks": 240,
            "midi": 40,
            "name": "E2",
            "ticks": 288960,
            "time": 209.999874,
            "velocity": 0.9448818897637795
          },
          {
            "duration": 0.1598836250000204,
            "durationTicks": 220,
            "midi": 46,
            "name": "A#2",
            "ticks": 288960,
            "time": 209.999874,
            "velocity": 0.9448818897637795
          },
          {
            "duration": 0.1744185000000016,
            "durationTicks": 240,
            "midi": 36,
            "name": "C2",
            "ticks": 289440,
            "time": 210.348711,
            "velocity": 0.9448818897637795
          },
          {
            "duration": 0.1598836250000204,
            "durationTicks": 220,
            "midi": 46,
            "name": "A#2",
            "ticks": 289440,
            "time": 210.348711,
            "velocity": 0.9448818897637795
          },
          {
            "duration": 0.1744185000000016,
            "durationTicks": 240,
            "midi": 36,
            "name": "C2",
            "ticks": 289920,
            "time": 210.697548,
            "velocity": 0.9448818897637795
          },
          {
            "duration": 0.1598836250000204,
            "durationTicks": 220,
            "midi": 46,
            "name": "A#2",
            "ticks": 289920,
            "time": 210.697548,
            "velocity": 0.9448818897637795
          },
          {
            "duration": 0.15988362499999198,
            "durationTicks": 220,
            "midi": 46,
            "name": "A#2",
            "ticks": 290400,
            "time": 211.04638500000001,
            "velocity": 0.9448818897637795
          },
          {
            "duration": 0.17441849999997316,
            "durationTicks": 240,
            "midi": 40,
            "name": "E2",
            "ticks": 290880,
            "time": 211.39522200000002,
            "velocity": 0.9448818897637795
          },
          {
            "duration": 0.15988362499999198,
            "durationTicks": 220,
            "midi": 46,
            "name": "A#2",
            "ticks": 290880,
            "time": 211.39522200000002,
            "velocity": 0.9448818897637795
          },
          {
            "duration": 0.1744185000000016,
            "durationTicks": 240,
            "midi": 36,
            "name": "C2",
            "ticks": 291360,
            "time": 211.744059,
            "velocity": 0.9448818897637795
          },
          {
            "duration": 0.1598836250000204,
            "durationTicks": 220,
            "midi": 46,
            "name": "A#2",
            "ticks": 291360,
            "time": 211.744059,
            "velocity": 0.9448818897637795
          },
          {
            "duration": 0.1744185000000016,
            "durationTicks": 240,
            "midi": 36,
            "name": "C2",
            "ticks": 291840,
            "time": 212.092896,
            "velocity": 0.9448818897637795
          },
          {
            "duration": 0.1598836250000204,
            "durationTicks": 220,
            "midi": 46,
            "name": "A#2",
            "ticks": 291840,
            "time": 212.092896,
            "velocity": 0.9448818897637795
          },
          {
            "duration": 0.1744185000000016,
            "durationTicks": 240,
            "midi": 36,
            "name": "C2",
            "ticks": 292320,
            "time": 212.441733,
            "velocity": 0.9448818897637795
          },
          {
            "duration": 0.1598836250000204,
            "durationTicks": 220,
            "midi": 46,
            "name": "A#2",
            "ticks": 292320,
            "time": 212.441733,
            "velocity": 0.9448818897637795
          },
          {
            "duration": 0.1744185000000016,
            "durationTicks": 240,
            "midi": 40,
            "name": "E2",
            "ticks": 292800,
            "time": 212.79057,
            "velocity": 0.9448818897637795
          },
          {
            "duration": 0.1598836250000204,
            "durationTicks": 220,
            "midi": 46,
            "name": "A#2",
            "ticks": 292800,
            "time": 212.79057,
            "velocity": 0.9448818897637795
          },
          {
            "duration": 0.1744185000000016,
            "durationTicks": 240,
            "midi": 36,
            "name": "C2",
            "ticks": 293280,
            "time": 213.139407,
            "velocity": 0.9448818897637795
          },
          {
            "duration": 0.1598836250000204,
            "durationTicks": 220,
            "midi": 46,
            "name": "A#2",
            "ticks": 293280,
            "time": 213.139407,
            "velocity": 0.9448818897637795
          },
          {
            "duration": 0.1744185000000016,
            "durationTicks": 240,
            "midi": 36,
            "name": "C2",
            "ticks": 293760,
            "time": 213.488244,
            "velocity": 0.9448818897637795
          },
          {
            "duration": 0.1598836250000204,
            "durationTicks": 220,
            "midi": 46,
            "name": "A#2",
            "ticks": 293760,
            "time": 213.488244,
            "velocity": 0.9448818897637795
          },
          {
            "duration": 0.1598836250000204,
            "durationTicks": 220,
            "midi": 46,
            "name": "A#2",
            "ticks": 294240,
            "time": 213.837081,
            "velocity": 0.9448818897637795
          },
          {
            "duration": 0.1744185000000016,
            "durationTicks": 240,
            "midi": 40,
            "name": "E2",
            "ticks": 294720,
            "time": 214.18591800000002,
            "velocity": 0.9448818897637795
          },
          {
            "duration": 0.15988362499999198,
            "durationTicks": 220,
            "midi": 46,
            "name": "A#2",
            "ticks": 294720,
            "time": 214.18591800000002,
            "velocity": 0.9448818897637795
          },
          {
            "duration": 0.17441849999997316,
            "durationTicks": 240,
            "midi": 36,
            "name": "C2",
            "ticks": 295200,
            "time": 214.53475500000002,
            "velocity": 0.9448818897637795
          },
          {
            "duration": 0.15988362499999198,
            "durationTicks": 220,
            "midi": 46,
            "name": "A#2",
            "ticks": 295200,
            "time": 214.53475500000002,
            "velocity": 0.9448818897637795
          },
          {
            "duration": 0.1744185000000016,
            "durationTicks": 240,
            "midi": 36,
            "name": "C2",
            "ticks": 295680,
            "time": 214.883592,
            "velocity": 0.9448818897637795
          },
          {
            "duration": 0.1598836250000204,
            "durationTicks": 220,
            "midi": 46,
            "name": "A#2",
            "ticks": 295680,
            "time": 214.883592,
            "velocity": 0.9448818897637795
          },
          {
            "duration": 0.1744185000000016,
            "durationTicks": 240,
            "midi": 36,
            "name": "C2",
            "ticks": 296160,
            "time": 215.232429,
            "velocity": 0.9448818897637795
          },
          {
            "duration": 0.1598836250000204,
            "durationTicks": 220,
            "midi": 46,
            "name": "A#2",
            "ticks": 296160,
            "time": 215.232429,
            "velocity": 0.9448818897637795
          },
          {
            "duration": 0.1744185000000016,
            "durationTicks": 240,
            "midi": 40,
            "name": "E2",
            "ticks": 296640,
            "time": 215.581266,
            "velocity": 0.9448818897637795
          },
          {
            "duration": 0.1598836250000204,
            "durationTicks": 220,
            "midi": 46,
            "name": "A#2",
            "ticks": 296640,
            "time": 215.581266,
            "velocity": 0.9448818897637795
          },
          {
            "duration": 0.1744185000000016,
            "durationTicks": 240,
            "midi": 36,
            "name": "C2",
            "ticks": 297120,
            "time": 215.930103,
            "velocity": 0.9448818897637795
          },
          {
            "duration": 0.1598836250000204,
            "durationTicks": 220,
            "midi": 46,
            "name": "A#2",
            "ticks": 297120,
            "time": 215.930103,
            "velocity": 0.9448818897637795
          },
          {
            "duration": 0.1744185000000016,
            "durationTicks": 240,
            "midi": 36,
            "name": "C2",
            "ticks": 297600,
            "time": 216.27894,
            "velocity": 0.9448818897637795
          },
          {
            "duration": 0.1598836250000204,
            "durationTicks": 220,
            "midi": 46,
            "name": "A#2",
            "ticks": 297600,
            "time": 216.27894,
            "velocity": 0.9448818897637795
          },
          {
            "duration": 0.1598836250000204,
            "durationTicks": 220,
            "midi": 46,
            "name": "A#2",
            "ticks": 298080,
            "time": 216.627777,
            "velocity": 0.9448818897637795
          },
          {
            "duration": 0.1744185000000016,
            "durationTicks": 240,
            "midi": 40,
            "name": "E2",
            "ticks": 298560,
            "time": 216.976614,
            "velocity": 0.9448818897637795
          },
          {
            "duration": 0.1598836250000204,
            "durationTicks": 220,
            "midi": 46,
            "name": "A#2",
            "ticks": 298560,
            "time": 216.976614,
            "velocity": 0.9448818897637795
          },
          {
            "duration": 0.1744185000000016,
            "durationTicks": 240,
            "midi": 36,
            "name": "C2",
            "ticks": 299040,
            "time": 217.32545100000002,
            "velocity": 0.9448818897637795
          },
          {
            "duration": 0.15988362499999198,
            "durationTicks": 220,
            "midi": 46,
            "name": "A#2",
            "ticks": 299040,
            "time": 217.32545100000002,
            "velocity": 0.9448818897637795
          },
          {
            "duration": 0.17441849999997316,
            "durationTicks": 240,
            "midi": 36,
            "name": "C2",
            "ticks": 299520,
            "time": 217.67428800000002,
            "velocity": 0.9448818897637795
          },
          {
            "duration": 0.15988362499999198,
            "durationTicks": 220,
            "midi": 46,
            "name": "A#2",
            "ticks": 299520,
            "time": 217.67428800000002,
            "velocity": 0.9448818897637795
          },
          {
            "duration": 0.1744185000000016,
            "durationTicks": 240,
            "midi": 36,
            "name": "C2",
            "ticks": 300000,
            "time": 218.023125,
            "velocity": 0.9448818897637795
          },
          {
            "duration": 0.1598836250000204,
            "durationTicks": 220,
            "midi": 46,
            "name": "A#2",
            "ticks": 300000,
            "time": 218.023125,
            "velocity": 0.9448818897637795
          },
          {
            "duration": 0.1744185000000016,
            "durationTicks": 240,
            "midi": 40,
            "name": "E2",
            "ticks": 300480,
            "time": 218.371962,
            "velocity": 0.9448818897637795
          },
          {
            "duration": 0.1598836250000204,
            "durationTicks": 220,
            "midi": 46,
            "name": "A#2",
            "ticks": 300480,
            "time": 218.371962,
            "velocity": 0.9448818897637795
          },
          {
            "duration": 0.1744185000000016,
            "durationTicks": 240,
            "midi": 36,
            "name": "C2",
            "ticks": 300960,
            "time": 218.720799,
            "velocity": 0.9448818897637795
          },
          {
            "duration": 0.1598836250000204,
            "durationTicks": 220,
            "midi": 46,
            "name": "A#2",
            "ticks": 300960,
            "time": 218.720799,
            "velocity": 0.9448818897637795
          },
          {
            "duration": 0.1598836250000204,
            "durationTicks": 220,
            "midi": 36,
            "name": "C2",
            "ticks": 301440,
            "time": 219.069636,
            "velocity": 0.9448818897637795
          },
          {
            "duration": 0.1598836250000204,
            "durationTicks": 220,
            "midi": 49,
            "name": "C#3",
            "ticks": 301440,
            "time": 219.069636,
            "velocity": 0.9448818897637795
          },
          {
            "duration": 0.1598836250000204,
            "durationTicks": 220,
            "midi": 46,
            "name": "A#2",
            "ticks": 301920,
            "time": 219.418473,
            "velocity": 0.9448818897637795
          },
          {
            "duration": 0.1598836250000204,
            "durationTicks": 220,
            "midi": 40,
            "name": "E2",
            "ticks": 302400,
            "time": 219.76731,
            "velocity": 0.9448818897637795
          },
          {
            "duration": 0.1598836250000204,
            "durationTicks": 220,
            "midi": 46,
            "name": "A#2",
            "ticks": 302400,
            "time": 219.76731,
            "velocity": 0.9448818897637795
          },
          {
            "duration": 0.15988362499999198,
            "durationTicks": 220,
            "midi": 36,
            "name": "C2",
            "ticks": 302880,
            "time": 220.116147,
            "velocity": 0.9448818897637795
          },
          {
            "duration": 0.15988362499999198,
            "durationTicks": 220,
            "midi": 46,
            "name": "A#2",
            "ticks": 302880,
            "time": 220.116147,
            "velocity": 0.9448818897637795
          },
          {
            "duration": 0.1744185000000016,
            "durationTicks": 240,
            "midi": 36,
            "name": "C2",
            "ticks": 303360,
            "time": 220.46498400000002,
            "velocity": 0.9448818897637795
          },
          {
            "duration": 0.15988362499999198,
            "durationTicks": 220,
            "midi": 46,
            "name": "A#2",
            "ticks": 303360,
            "time": 220.46498400000002,
            "velocity": 0.9448818897637795
          },
          {
            "duration": 0.17441849999997316,
            "durationTicks": 240,
            "midi": 36,
            "name": "C2",
            "ticks": 303840,
            "time": 220.81382100000002,
            "velocity": 0.9448818897637795
          },
          {
            "duration": 0.15988362499999198,
            "durationTicks": 220,
            "midi": 46,
            "name": "A#2",
            "ticks": 303840,
            "time": 220.81382100000002,
            "velocity": 0.9448818897637795
          },
          {
            "duration": 0.1744185000000016,
            "durationTicks": 240,
            "midi": 40,
            "name": "E2",
            "ticks": 304320,
            "time": 221.162658,
            "velocity": 0.9448818897637795
          },
          {
            "duration": 0.1598836250000204,
            "durationTicks": 220,
            "midi": 46,
            "name": "A#2",
            "ticks": 304320,
            "time": 221.162658,
            "velocity": 0.9448818897637795
          },
          {
            "duration": 0.1744185000000016,
            "durationTicks": 240,
            "midi": 36,
            "name": "C2",
            "ticks": 304800,
            "time": 221.511495,
            "velocity": 0.9448818897637795
          },
          {
            "duration": 0.1598836250000204,
            "durationTicks": 220,
            "midi": 46,
            "name": "A#2",
            "ticks": 304800,
            "time": 221.511495,
            "velocity": 0.9448818897637795
          },
          {
            "duration": 0.1744185000000016,
            "durationTicks": 240,
            "midi": 36,
            "name": "C2",
            "ticks": 305280,
            "time": 221.860332,
            "velocity": 0.9448818897637795
          },
          {
            "duration": 0.1598836250000204,
            "durationTicks": 220,
            "midi": 46,
            "name": "A#2",
            "ticks": 305280,
            "time": 221.860332,
            "velocity": 0.9448818897637795
          },
          {
            "duration": 0.1598836250000204,
            "durationTicks": 220,
            "midi": 46,
            "name": "A#2",
            "ticks": 305760,
            "time": 222.209169,
            "velocity": 0.9448818897637795
          },
          {
            "duration": 0.1744185000000016,
            "durationTicks": 240,
            "midi": 40,
            "name": "E2",
            "ticks": 306240,
            "time": 222.558006,
            "velocity": 0.9448818897637795
          },
          {
            "duration": 0.1598836250000204,
            "durationTicks": 220,
            "midi": 46,
            "name": "A#2",
            "ticks": 306240,
            "time": 222.558006,
            "velocity": 0.9448818897637795
          },
          {
            "duration": 0.1744185000000016,
            "durationTicks": 240,
            "midi": 36,
            "name": "C2",
            "ticks": 306720,
            "time": 222.906843,
            "velocity": 0.9448818897637795
          },
          {
            "duration": 0.1598836250000204,
            "durationTicks": 220,
            "midi": 46,
            "name": "A#2",
            "ticks": 306720,
            "time": 222.906843,
            "velocity": 0.9448818897637795
          },
          {
            "duration": 0.1744185000000016,
            "durationTicks": 240,
            "midi": 36,
            "name": "C2",
            "ticks": 307200,
            "time": 223.25568,
            "velocity": 0.9448818897637795
          },
          {
            "duration": 0.15988362499999198,
            "durationTicks": 220,
            "midi": 46,
            "name": "A#2",
            "ticks": 307200,
            "time": 223.25568,
            "velocity": 0.9448818897637795
          },
          {
            "duration": 0.1744185000000016,
            "durationTicks": 240,
            "midi": 36,
            "name": "C2",
            "ticks": 307680,
            "time": 223.60451700000002,
            "velocity": 0.9448818897637795
          },
          {
            "duration": 0.15988362499999198,
            "durationTicks": 220,
            "midi": 46,
            "name": "A#2",
            "ticks": 307680,
            "time": 223.60451700000002,
            "velocity": 0.9448818897637795
          },
          {
            "duration": 0.17441849999997316,
            "durationTicks": 240,
            "midi": 40,
            "name": "E2",
            "ticks": 308160,
            "time": 223.95335400000002,
            "velocity": 0.9448818897637795
          },
          {
            "duration": 0.15988362499999198,
            "durationTicks": 220,
            "midi": 46,
            "name": "A#2",
            "ticks": 308160,
            "time": 223.95335400000002,
            "velocity": 0.9448818897637795
          },
          {
            "duration": 0.1744185000000016,
            "durationTicks": 240,
            "midi": 36,
            "name": "C2",
            "ticks": 308640,
            "time": 224.302191,
            "velocity": 0.9448818897637795
          },
          {
            "duration": 0.1598836250000204,
            "durationTicks": 220,
            "midi": 46,
            "name": "A#2",
            "ticks": 308640,
            "time": 224.302191,
            "velocity": 0.9448818897637795
          },
          {
            "duration": 0.1744185000000016,
            "durationTicks": 240,
            "midi": 36,
            "name": "C2",
            "ticks": 309120,
            "time": 224.651028,
            "velocity": 0.9448818897637795
          },
          {
            "duration": 0.1598836250000204,
            "durationTicks": 220,
            "midi": 46,
            "name": "A#2",
            "ticks": 309120,
            "time": 224.651028,
            "velocity": 0.9448818897637795
          },
          {
            "duration": 0.1598836250000204,
            "durationTicks": 220,
            "midi": 46,
            "name": "A#2",
            "ticks": 309600,
            "time": 224.999865,
            "velocity": 0.9448818897637795
          },
          {
            "duration": 0.1744185000000016,
            "durationTicks": 240,
            "midi": 40,
            "name": "E2",
            "ticks": 310080,
            "time": 225.348702,
            "velocity": 0.9448818897637795
          },
          {
            "duration": 0.1598836250000204,
            "durationTicks": 220,
            "midi": 46,
            "name": "A#2",
            "ticks": 310080,
            "time": 225.348702,
            "velocity": 0.9448818897637795
          },
          {
            "duration": 0.1744185000000016,
            "durationTicks": 240,
            "midi": 36,
            "name": "C2",
            "ticks": 310560,
            "time": 225.697539,
            "velocity": 0.9448818897637795
          },
          {
            "duration": 0.1598836250000204,
            "durationTicks": 220,
            "midi": 46,
            "name": "A#2",
            "ticks": 310560,
            "time": 225.697539,
            "velocity": 0.9448818897637795
          },
          {
            "duration": 0.1744185000000016,
            "durationTicks": 240,
            "midi": 36,
            "name": "C2",
            "ticks": 311040,
            "time": 226.046376,
            "velocity": 0.9448818897637795
          },
          {
            "duration": 0.1598836250000204,
            "durationTicks": 220,
            "midi": 46,
            "name": "A#2",
            "ticks": 311040,
            "time": 226.046376,
            "velocity": 0.9448818897637795
          },
          {
            "duration": 0.1744185000000016,
            "durationTicks": 240,
            "midi": 36,
            "name": "C2",
            "ticks": 311520,
            "time": 226.395213,
            "velocity": 0.9448818897637795
          },
          {
            "duration": 0.15988362499999198,
            "durationTicks": 220,
            "midi": 46,
            "name": "A#2",
            "ticks": 311520,
            "time": 226.395213,
            "velocity": 0.9448818897637795
          },
          {
            "duration": 0.1744185000000016,
            "durationTicks": 240,
            "midi": 40,
            "name": "E2",
            "ticks": 312000,
            "time": 226.74405000000002,
            "velocity": 0.9448818897637795
          },
          {
            "duration": 0.15988362499999198,
            "durationTicks": 220,
            "midi": 46,
            "name": "A#2",
            "ticks": 312000,
            "time": 226.74405000000002,
            "velocity": 0.9448818897637795
          },
          {
            "duration": 0.17441849999997316,
            "durationTicks": 240,
            "midi": 36,
            "name": "C2",
            "ticks": 312480,
            "time": 227.09288700000002,
            "velocity": 0.9448818897637795
          },
          {
            "duration": 0.15988362499999198,
            "durationTicks": 220,
            "midi": 46,
            "name": "A#2",
            "ticks": 312480,
            "time": 227.09288700000002,
            "velocity": 0.9448818897637795
          },
          {
            "duration": 0.1744185000000016,
            "durationTicks": 240,
            "midi": 36,
            "name": "C2",
            "ticks": 312960,
            "time": 227.441724,
            "velocity": 0.9448818897637795
          },
          {
            "duration": 0.1598836250000204,
            "durationTicks": 220,
            "midi": 46,
            "name": "A#2",
            "ticks": 312960,
            "time": 227.441724,
            "velocity": 0.9448818897637795
          },
          {
            "duration": 0.1598836250000204,
            "durationTicks": 220,
            "midi": 46,
            "name": "A#2",
            "ticks": 313440,
            "time": 227.790561,
            "velocity": 0.9448818897637795
          },
          {
            "duration": 0.1744185000000016,
            "durationTicks": 240,
            "midi": 40,
            "name": "E2",
            "ticks": 313920,
            "time": 228.139398,
            "velocity": 0.9448818897637795
          },
          {
            "duration": 0.1598836250000204,
            "durationTicks": 220,
            "midi": 46,
            "name": "A#2",
            "ticks": 313920,
            "time": 228.139398,
            "velocity": 0.9448818897637795
          },
          {
            "duration": 0.1744185000000016,
            "durationTicks": 240,
            "midi": 36,
            "name": "C2",
            "ticks": 314400,
            "time": 228.488235,
            "velocity": 0.9448818897637795
          },
          {
            "duration": 0.1598836250000204,
            "durationTicks": 220,
            "midi": 46,
            "name": "A#2",
            "ticks": 314400,
            "time": 228.488235,
            "velocity": 0.9448818897637795
          },
          {
            "duration": 0.1744185000000016,
            "durationTicks": 240,
            "midi": 36,
            "name": "C2",
            "ticks": 314880,
            "time": 228.837072,
            "velocity": 0.9448818897637795
          },
          {
            "duration": 0.1598836250000204,
            "durationTicks": 220,
            "midi": 46,
            "name": "A#2",
            "ticks": 314880,
            "time": 228.837072,
            "velocity": 0.9448818897637795
          },
          {
            "duration": 0.1744185000000016,
            "durationTicks": 240,
            "midi": 36,
            "name": "C2",
            "ticks": 315360,
            "time": 229.185909,
            "velocity": 0.9448818897637795
          },
          {
            "duration": 0.1598836250000204,
            "durationTicks": 220,
            "midi": 46,
            "name": "A#2",
            "ticks": 315360,
            "time": 229.185909,
            "velocity": 0.9448818897637795
          },
          {
            "duration": 0.1744185000000016,
            "durationTicks": 240,
            "midi": 40,
            "name": "E2",
            "ticks": 315840,
            "time": 229.534746,
            "velocity": 0.9448818897637795
          },
          {
            "duration": 0.15988362499999198,
            "durationTicks": 220,
            "midi": 46,
            "name": "A#2",
            "ticks": 315840,
            "time": 229.534746,
            "velocity": 0.9448818897637795
          },
          {
            "duration": 0.1744185000000016,
            "durationTicks": 240,
            "midi": 36,
            "name": "C2",
            "ticks": 316320,
            "time": 229.88358300000002,
            "velocity": 0.9448818897637795
          },
          {
            "duration": 0.15988362499999198,
            "durationTicks": 220,
            "midi": 46,
            "name": "A#2",
            "ticks": 316320,
            "time": 229.88358300000002,
            "velocity": 0.9448818897637795
          },
          {
            "duration": 0.17441849999997316,
            "durationTicks": 240,
            "midi": 36,
            "name": "C2",
            "ticks": 316800,
            "time": 230.23242000000002,
            "velocity": 0.9448818897637795
          },
          {
            "duration": 0.15988362499999198,
            "durationTicks": 220,
            "midi": 46,
            "name": "A#2",
            "ticks": 316800,
            "time": 230.23242000000002,
            "velocity": 0.9448818897637795
          },
          {
            "duration": 0.1598836250000204,
            "durationTicks": 220,
            "midi": 46,
            "name": "A#2",
            "ticks": 317280,
            "time": 230.581257,
            "velocity": 0.9448818897637795
          },
          {
            "duration": 0.1744185000000016,
            "durationTicks": 240,
            "midi": 40,
            "name": "E2",
            "ticks": 317760,
            "time": 230.930094,
            "velocity": 0.9448818897637795
          },
          {
            "duration": 0.1598836250000204,
            "durationTicks": 220,
            "midi": 46,
            "name": "A#2",
            "ticks": 317760,
            "time": 230.930094,
            "velocity": 0.9448818897637795
          },
          {
            "duration": 0.1744185000000016,
            "durationTicks": 240,
            "midi": 36,
            "name": "C2",
            "ticks": 318240,
            "time": 231.278931,
            "velocity": 0.9448818897637795
          },
          {
            "duration": 0.1598836250000204,
            "durationTicks": 220,
            "midi": 46,
            "name": "A#2",
            "ticks": 318240,
            "time": 231.278931,
            "velocity": 0.9448818897637795
          },
          {
            "duration": 0.1744185000000016,
            "durationTicks": 240,
            "midi": 36,
            "name": "C2",
            "ticks": 318720,
            "time": 231.627768,
            "velocity": 0.9448818897637795
          },
          {
            "duration": 0.1598836250000204,
            "durationTicks": 220,
            "midi": 46,
            "name": "A#2",
            "ticks": 318720,
            "time": 231.627768,
            "velocity": 0.9448818897637795
          },
          {
            "duration": 0.1744185000000016,
            "durationTicks": 240,
            "midi": 36,
            "name": "C2",
            "ticks": 319200,
            "time": 231.976605,
            "velocity": 0.9448818897637795
          },
          {
            "duration": 0.1598836250000204,
            "durationTicks": 220,
            "midi": 46,
            "name": "A#2",
            "ticks": 319200,
            "time": 231.976605,
            "velocity": 0.9448818897637795
          },
          {
            "duration": 0.1744185000000016,
            "durationTicks": 240,
            "midi": 40,
            "name": "E2",
            "ticks": 319680,
            "time": 232.325442,
            "velocity": 0.9448818897637795
          },
          {
            "duration": 0.1598836250000204,
            "durationTicks": 220,
            "midi": 46,
            "name": "A#2",
            "ticks": 319680,
            "time": 232.325442,
            "velocity": 0.9448818897637795
          },
          {
            "duration": 0.1744185000000016,
            "durationTicks": 240,
            "midi": 36,
            "name": "C2",
            "ticks": 320160,
            "time": 232.674279,
            "velocity": 0.9448818897637795
          },
          {
            "duration": 0.15988362499999198,
            "durationTicks": 220,
            "midi": 46,
            "name": "A#2",
            "ticks": 320160,
            "time": 232.674279,
            "velocity": 0.9448818897637795
          },
          {
            "duration": 0.1744185000000016,
            "durationTicks": 240,
            "midi": 36,
            "name": "C2",
            "ticks": 320640,
            "time": 233.02311600000002,
            "velocity": 0.9448818897637795
          },
          {
            "duration": 0.15988362499999198,
            "durationTicks": 220,
            "midi": 46,
            "name": "A#2",
            "ticks": 320640,
            "time": 233.02311600000002,
            "velocity": 0.9448818897637795
          },
          {
            "duration": 0.15988362499999198,
            "durationTicks": 220,
            "midi": 46,
            "name": "A#2",
            "ticks": 321120,
            "time": 233.37195300000002,
            "velocity": 0.9448818897637795
          },
          {
            "duration": 0.1744185000000016,
            "durationTicks": 240,
            "midi": 40,
            "name": "E2",
            "ticks": 321600,
            "time": 233.72079,
            "velocity": 0.9448818897637795
          },
          {
            "duration": 0.1598836250000204,
            "durationTicks": 220,
            "midi": 46,
            "name": "A#2",
            "ticks": 321600,
            "time": 233.72079,
            "velocity": 0.9448818897637795
          },
          {
            "duration": 0.1744185000000016,
            "durationTicks": 240,
            "midi": 36,
            "name": "C2",
            "ticks": 322080,
            "time": 234.069627,
            "velocity": 0.9448818897637795
          },
          {
            "duration": 0.1598836250000204,
            "durationTicks": 220,
            "midi": 46,
            "name": "A#2",
            "ticks": 322080,
            "time": 234.069627,
            "velocity": 0.9448818897637795
          },
          {
            "duration": 0.1744185000000016,
            "durationTicks": 240,
            "midi": 36,
            "name": "C2",
            "ticks": 322560,
            "time": 234.418464,
            "velocity": 0.9448818897637795
          },
          {
            "duration": 0.1598836250000204,
            "durationTicks": 220,
            "midi": 46,
            "name": "A#2",
            "ticks": 322560,
            "time": 234.418464,
            "velocity": 0.9448818897637795
          },
          {
            "duration": 0.1744185000000016,
            "durationTicks": 240,
            "midi": 36,
            "name": "C2",
            "ticks": 323040,
            "time": 234.767301,
            "velocity": 0.9448818897637795
          },
          {
            "duration": 0.1598836250000204,
            "durationTicks": 220,
            "midi": 46,
            "name": "A#2",
            "ticks": 323040,
            "time": 234.767301,
            "velocity": 0.9448818897637795
          },
          {
            "duration": 0.1744185000000016,
            "durationTicks": 240,
            "midi": 40,
            "name": "E2",
            "ticks": 323520,
            "time": 235.116138,
            "velocity": 0.9448818897637795
          },
          {
            "duration": 0.1598836250000204,
            "durationTicks": 220,
            "midi": 46,
            "name": "A#2",
            "ticks": 323520,
            "time": 235.116138,
            "velocity": 0.9448818897637795
          },
          {
            "duration": 0.1744185000000016,
            "durationTicks": 240,
            "midi": 36,
            "name": "C2",
            "ticks": 324000,
            "time": 235.464975,
            "velocity": 0.9448818897637795
          },
          {
            "duration": 0.1598836250000204,
            "durationTicks": 220,
            "midi": 46,
            "name": "A#2",
            "ticks": 324000,
            "time": 235.464975,
            "velocity": 0.9448818897637795
          },
          {
            "duration": 0.15988362499999198,
            "durationTicks": 220,
            "midi": 36,
            "name": "C2",
            "ticks": 324480,
            "time": 235.813812,
            "velocity": 0.9448818897637795
          },
          {
            "duration": 0.15988362499999198,
            "durationTicks": 220,
            "midi": 49,
            "name": "C#3",
            "ticks": 324480,
            "time": 235.813812,
            "velocity": 0.9448818897637795
          },
          {
            "duration": 0.15988362499999198,
            "durationTicks": 220,
            "midi": 46,
            "name": "A#2",
            "ticks": 324960,
            "time": 236.16264900000002,
            "velocity": 0.9448818897637795
          },
          {
            "duration": 0.15988362499999198,
            "durationTicks": 220,
            "midi": 40,
            "name": "E2",
            "ticks": 325440,
            "time": 236.51148600000002,
            "velocity": 0.9448818897637795
          },
          {
            "duration": 0.15988362499999198,
            "durationTicks": 220,
            "midi": 46,
            "name": "A#2",
            "ticks": 325440,
            "time": 236.51148600000002,
            "velocity": 0.9448818897637795
          },
          {
            "duration": 0.1598836250000204,
            "durationTicks": 220,
            "midi": 36,
            "name": "C2",
            "ticks": 325920,
            "time": 236.860323,
            "velocity": 0.9448818897637795
          },
          {
            "duration": 0.1598836250000204,
            "durationTicks": 220,
            "midi": 46,
            "name": "A#2",
            "ticks": 325920,
            "time": 236.860323,
            "velocity": 0.9448818897637795
          },
          {
            "duration": 0.1744185000000016,
            "durationTicks": 240,
            "midi": 36,
            "name": "C2",
            "ticks": 326400,
            "time": 237.20916,
            "velocity": 0.9448818897637795
          },
          {
            "duration": 0.1598836250000204,
            "durationTicks": 220,
            "midi": 46,
            "name": "A#2",
            "ticks": 326400,
            "time": 237.20916,
            "velocity": 0.9448818897637795
          },
          {
            "duration": 0.1744185000000016,
            "durationTicks": 240,
            "midi": 36,
            "name": "C2",
            "ticks": 326880,
            "time": 237.557997,
            "velocity": 0.9448818897637795
          },
          {
            "duration": 0.1598836250000204,
            "durationTicks": 220,
            "midi": 46,
            "name": "A#2",
            "ticks": 326880,
            "time": 237.557997,
            "velocity": 0.9448818897637795
          },
          {
            "duration": 0.1744185000000016,
            "durationTicks": 240,
            "midi": 40,
            "name": "E2",
            "ticks": 327360,
            "time": 237.906834,
            "velocity": 0.9448818897637795
          },
          {
            "duration": 0.1598836250000204,
            "durationTicks": 220,
            "midi": 46,
            "name": "A#2",
            "ticks": 327360,
            "time": 237.906834,
            "velocity": 0.9448818897637795
          },
          {
            "duration": 0.1744185000000016,
            "durationTicks": 240,
            "midi": 36,
            "name": "C2",
            "ticks": 327840,
            "time": 238.255671,
            "velocity": 0.9448818897637795
          },
          {
            "duration": 0.1598836250000204,
            "durationTicks": 220,
            "midi": 46,
            "name": "A#2",
            "ticks": 327840,
            "time": 238.255671,
            "velocity": 0.9448818897637795
          },
          {
            "duration": 0.1744185000000016,
            "durationTicks": 240,
            "midi": 36,
            "name": "C2",
            "ticks": 328320,
            "time": 238.604508,
            "velocity": 0.9448818897637795
          },
          {
            "duration": 0.1598836250000204,
            "durationTicks": 220,
            "midi": 46,
            "name": "A#2",
            "ticks": 328320,
            "time": 238.604508,
            "velocity": 0.9448818897637795
          },
          {
            "duration": 0.15988362499999198,
            "durationTicks": 220,
            "midi": 46,
            "name": "A#2",
            "ticks": 328800,
            "time": 238.953345,
            "velocity": 0.9448818897637795
          },
          {
            "duration": 0.1744185000000016,
            "durationTicks": 240,
            "midi": 40,
            "name": "E2",
            "ticks": 329280,
            "time": 239.30218200000002,
            "velocity": 0.9448818897637795
          },
          {
            "duration": 0.15988362499999198,
            "durationTicks": 220,
            "midi": 46,
            "name": "A#2",
            "ticks": 329280,
            "time": 239.30218200000002,
            "velocity": 0.9448818897637795
          },
          {
            "duration": 0.17441849999997316,
            "durationTicks": 240,
            "midi": 36,
            "name": "C2",
            "ticks": 329760,
            "time": 239.65101900000002,
            "velocity": 0.9448818897637795
          },
          {
            "duration": 0.15988362499999198,
            "durationTicks": 220,
            "midi": 46,
            "name": "A#2",
            "ticks": 329760,
            "time": 239.65101900000002,
            "velocity": 0.9448818897637795
          },
          {
            "duration": 0.1744185000000016,
            "durationTicks": 240,
            "midi": 36,
            "name": "C2",
            "ticks": 330240,
            "time": 239.999856,
            "velocity": 0.9448818897637795
          },
          {
            "duration": 0.1598836250000204,
            "durationTicks": 220,
            "midi": 46,
            "name": "A#2",
            "ticks": 330240,
            "time": 239.999856,
            "velocity": 0.9448818897637795
          },
          {
            "duration": 0.1744185000000016,
            "durationTicks": 240,
            "midi": 36,
            "name": "C2",
            "ticks": 330720,
            "time": 240.348693,
            "velocity": 0.9448818897637795
          },
          {
            "duration": 0.1598836250000204,
            "durationTicks": 220,
            "midi": 46,
            "name": "A#2",
            "ticks": 330720,
            "time": 240.348693,
            "velocity": 0.9448818897637795
          },
          {
            "duration": 0.1744185000000016,
            "durationTicks": 240,
            "midi": 40,
            "name": "E2",
            "ticks": 331200,
            "time": 240.69753,
            "velocity": 0.9448818897637795
          },
          {
            "duration": 0.1598836250000204,
            "durationTicks": 220,
            "midi": 46,
            "name": "A#2",
            "ticks": 331200,
            "time": 240.69753,
            "velocity": 0.9448818897637795
          },
          {
            "duration": 0.1744185000000016,
            "durationTicks": 240,
            "midi": 36,
            "name": "C2",
            "ticks": 331680,
            "time": 241.046367,
            "velocity": 0.9448818897637795
          },
          {
            "duration": 0.1598836250000204,
            "durationTicks": 220,
            "midi": 46,
            "name": "A#2",
            "ticks": 331680,
            "time": 241.046367,
            "velocity": 0.9448818897637795
          },
          {
            "duration": 0.1744185000000016,
            "durationTicks": 240,
            "midi": 36,
            "name": "C2",
            "ticks": 332160,
            "time": 241.395204,
            "velocity": 0.9448818897637795
          },
          {
            "duration": 0.1598836250000204,
            "durationTicks": 220,
            "midi": 46,
            "name": "A#2",
            "ticks": 332160,
            "time": 241.395204,
            "velocity": 0.9448818897637795
          },
          {
            "duration": 0.1598836250000204,
            "durationTicks": 220,
            "midi": 46,
            "name": "A#2",
            "ticks": 332640,
            "time": 241.744041,
            "velocity": 0.9448818897637795
          },
          {
            "duration": 0.1744185000000016,
            "durationTicks": 240,
            "midi": 40,
            "name": "E2",
            "ticks": 333120,
            "time": 242.092878,
            "velocity": 0.9448818897637795
          },
          {
            "duration": 0.15988362499999198,
            "durationTicks": 220,
            "midi": 46,
            "name": "A#2",
            "ticks": 333120,
            "time": 242.092878,
            "velocity": 0.9448818897637795
          },
          {
            "duration": 0.1744185000000016,
            "durationTicks": 240,
            "midi": 36,
            "name": "C2",
            "ticks": 333600,
            "time": 242.44171500000002,
            "velocity": 0.9448818897637795
          },
          {
            "duration": 0.15988362499999198,
            "durationTicks": 220,
            "midi": 46,
            "name": "A#2",
            "ticks": 333600,
            "time": 242.44171500000002,
            "velocity": 0.9448818897637795
          },
          {
            "duration": 0.17441849999997316,
            "durationTicks": 240,
            "midi": 36,
            "name": "C2",
            "ticks": 334080,
            "time": 242.79055200000002,
            "velocity": 0.9448818897637795
          },
          {
            "duration": 0.15988362499999198,
            "durationTicks": 220,
            "midi": 46,
            "name": "A#2",
            "ticks": 334080,
            "time": 242.79055200000002,
            "velocity": 0.9448818897637795
          },
          {
            "duration": 0.1744185000000016,
            "durationTicks": 240,
            "midi": 36,
            "name": "C2",
            "ticks": 334560,
            "time": 243.139389,
            "velocity": 0.9448818897637795
          },
          {
            "duration": 0.1598836250000204,
            "durationTicks": 220,
            "midi": 46,
            "name": "A#2",
            "ticks": 334560,
            "time": 243.139389,
            "velocity": 0.9448818897637795
          },
          {
            "duration": 0.1744185000000016,
            "durationTicks": 240,
            "midi": 40,
            "name": "E2",
            "ticks": 335040,
            "time": 243.488226,
            "velocity": 0.9448818897637795
          },
          {
            "duration": 0.1598836250000204,
            "durationTicks": 220,
            "midi": 46,
            "name": "A#2",
            "ticks": 335040,
            "time": 243.488226,
            "velocity": 0.9448818897637795
          },
          {
            "duration": 0.1744185000000016,
            "durationTicks": 240,
            "midi": 36,
            "name": "C2",
            "ticks": 335520,
            "time": 243.837063,
            "velocity": 0.9448818897637795
          },
          {
            "duration": 0.1598836250000204,
            "durationTicks": 220,
            "midi": 46,
            "name": "A#2",
            "ticks": 335520,
            "time": 243.837063,
            "velocity": 0.9448818897637795
          },
          {
            "duration": 0.1744185000000016,
            "durationTicks": 240,
            "midi": 36,
            "name": "C2",
            "ticks": 336000,
            "time": 244.1859,
            "velocity": 0.9448818897637795
          },
          {
            "duration": 0.1598836250000204,
            "durationTicks": 220,
            "midi": 46,
            "name": "A#2",
            "ticks": 336000,
            "time": 244.1859,
            "velocity": 0.9448818897637795
          },
          {
            "duration": 0.1598836250000204,
            "durationTicks": 220,
            "midi": 46,
            "name": "A#2",
            "ticks": 336480,
            "time": 244.534737,
            "velocity": 0.9448818897637795
          },
          {
            "duration": 0.1744185000000016,
            "durationTicks": 240,
            "midi": 40,
            "name": "E2",
            "ticks": 336960,
            "time": 244.883574,
            "velocity": 0.9448818897637795
          },
          {
            "duration": 0.1598836250000204,
            "durationTicks": 220,
            "midi": 46,
            "name": "A#2",
            "ticks": 336960,
            "time": 244.883574,
            "velocity": 0.9448818897637795
          },
          {
            "duration": 0.1744185000000016,
            "durationTicks": 240,
            "midi": 36,
            "name": "C2",
            "ticks": 337440,
            "time": 245.232411,
            "velocity": 0.9448818897637795
          },
          {
            "duration": 0.15988362499999198,
            "durationTicks": 220,
            "midi": 46,
            "name": "A#2",
            "ticks": 337440,
            "time": 245.232411,
            "velocity": 0.9448818897637795
          },
          {
            "duration": 0.1744185000000016,
            "durationTicks": 240,
            "midi": 36,
            "name": "C2",
            "ticks": 337920,
            "time": 245.58124800000002,
            "velocity": 0.9448818897637795
          },
          {
            "duration": 0.15988362499999198,
            "durationTicks": 220,
            "midi": 46,
            "name": "A#2",
            "ticks": 337920,
            "time": 245.58124800000002,
            "velocity": 0.9448818897637795
          },
          {
            "duration": 0.17441849999997316,
            "durationTicks": 240,
            "midi": 36,
            "name": "C2",
            "ticks": 338400,
            "time": 245.93008500000002,
            "velocity": 0.9448818897637795
          },
          {
            "duration": 0.15988362499999198,
            "durationTicks": 220,
            "midi": 46,
            "name": "A#2",
            "ticks": 338400,
            "time": 245.93008500000002,
            "velocity": 0.9448818897637795
          },
          {
            "duration": 0.1744185000000016,
            "durationTicks": 240,
            "midi": 40,
            "name": "E2",
            "ticks": 338880,
            "time": 246.278922,
            "velocity": 0.9448818897637795
          },
          {
            "duration": 0.1598836250000204,
            "durationTicks": 220,
            "midi": 46,
            "name": "A#2",
            "ticks": 338880,
            "time": 246.278922,
            "velocity": 0.9448818897637795
          },
          {
            "duration": 0.1744185000000016,
            "durationTicks": 240,
            "midi": 36,
            "name": "C2",
            "ticks": 339360,
            "time": 246.627759,
            "velocity": 0.9448818897637795
          },
          {
            "duration": 0.1598836250000204,
            "durationTicks": 220,
            "midi": 46,
            "name": "A#2",
            "ticks": 339360,
            "time": 246.627759,
            "velocity": 0.9448818897637795
          },
          {
            "duration": 0.1744185000000016,
            "durationTicks": 240,
            "midi": 36,
            "name": "C2",
            "ticks": 339840,
            "time": 246.976596,
            "velocity": 0.9448818897637795
          },
          {
            "duration": 0.1598836250000204,
            "durationTicks": 220,
            "midi": 46,
            "name": "A#2",
            "ticks": 339840,
            "time": 246.976596,
            "velocity": 0.9448818897637795
          },
          {
            "duration": 0.1598836250000204,
            "durationTicks": 220,
            "midi": 46,
            "name": "A#2",
            "ticks": 340320,
            "time": 247.325433,
            "velocity": 0.9448818897637795
          },
          {
            "duration": 0.1744185000000016,
            "durationTicks": 240,
            "midi": 40,
            "name": "E2",
            "ticks": 340800,
            "time": 247.67427,
            "velocity": 0.9448818897637795
          },
          {
            "duration": 0.1598836250000204,
            "durationTicks": 220,
            "midi": 46,
            "name": "A#2",
            "ticks": 340800,
            "time": 247.67427,
            "velocity": 0.9448818897637795
          },
          {
            "duration": 0.1744185000000016,
            "durationTicks": 240,
            "midi": 36,
            "name": "C2",
            "ticks": 341280,
            "time": 248.023107,
            "velocity": 0.9448818897637795
          },
          {
            "duration": 0.1598836250000204,
            "durationTicks": 220,
            "midi": 46,
            "name": "A#2",
            "ticks": 341280,
            "time": 248.023107,
            "velocity": 0.9448818897637795
          },
          {
            "duration": 0.1744185000000016,
            "durationTicks": 240,
            "midi": 36,
            "name": "C2",
            "ticks": 341760,
            "time": 248.371944,
            "velocity": 0.9448818897637795
          },
          {
            "duration": 0.15988362499999198,
            "durationTicks": 220,
            "midi": 46,
            "name": "A#2",
            "ticks": 341760,
            "time": 248.371944,
            "velocity": 0.9448818897637795
          },
          {
            "duration": 0.1744185000000016,
            "durationTicks": 240,
            "midi": 36,
            "name": "C2",
            "ticks": 342240,
            "time": 248.72078100000002,
            "velocity": 0.9448818897637795
          },
          {
            "duration": 0.15988362499999198,
            "durationTicks": 220,
            "midi": 46,
            "name": "A#2",
            "ticks": 342240,
            "time": 248.72078100000002,
            "velocity": 0.9448818897637795
          },
          {
            "duration": 0.17441849999997316,
            "durationTicks": 240,
            "midi": 40,
            "name": "E2",
            "ticks": 342720,
            "time": 249.06961800000002,
            "velocity": 0.9448818897637795
          },
          {
            "duration": 0.15988362499999198,
            "durationTicks": 220,
            "midi": 46,
            "name": "A#2",
            "ticks": 342720,
            "time": 249.06961800000002,
            "velocity": 0.9448818897637795
          },
          {
            "duration": 0.1744185000000016,
            "durationTicks": 240,
            "midi": 36,
            "name": "C2",
            "ticks": 343200,
            "time": 249.418455,
            "velocity": 0.9448818897637795
          },
          {
            "duration": 0.1598836250000204,
            "durationTicks": 220,
            "midi": 46,
            "name": "A#2",
            "ticks": 343200,
            "time": 249.418455,
            "velocity": 0.9448818897637795
          },
          {
            "duration": 0.1744185000000016,
            "durationTicks": 240,
            "midi": 36,
            "name": "C2",
            "ticks": 343680,
            "time": 249.767292,
            "velocity": 0.9448818897637795
          },
          {
            "duration": 0.1598836250000204,
            "durationTicks": 220,
            "midi": 46,
            "name": "A#2",
            "ticks": 343680,
            "time": 249.767292,
            "velocity": 0.9448818897637795
          },
          {
            "duration": 0.1598836250000204,
            "durationTicks": 220,
            "midi": 46,
            "name": "A#2",
            "ticks": 344160,
            "time": 250.116129,
            "velocity": 0.9448818897637795
          },
          {
            "duration": 0.1744185000000016,
            "durationTicks": 240,
            "midi": 40,
            "name": "E2",
            "ticks": 344640,
            "time": 250.464966,
            "velocity": 0.9448818897637795
          },
          {
            "duration": 0.1598836250000204,
            "durationTicks": 220,
            "midi": 46,
            "name": "A#2",
            "ticks": 344640,
            "time": 250.464966,
            "velocity": 0.9448818897637795
          },
          {
            "duration": 0.1744185000000016,
            "durationTicks": 240,
            "midi": 36,
            "name": "C2",
            "ticks": 345120,
            "time": 250.813803,
            "velocity": 0.9448818897637795
          },
          {
            "duration": 0.1598836250000204,
            "durationTicks": 220,
            "midi": 46,
            "name": "A#2",
            "ticks": 345120,
            "time": 250.813803,
            "velocity": 0.9448818897637795
          },
          {
            "duration": 0.1744185000000016,
            "durationTicks": 240,
            "midi": 36,
            "name": "C2",
            "ticks": 345600,
            "time": 251.16264,
            "velocity": 0.9448818897637795
          },
          {
            "duration": 0.1598836250000204,
            "durationTicks": 220,
            "midi": 46,
            "name": "A#2",
            "ticks": 345600,
            "time": 251.16264,
            "velocity": 0.9448818897637795
          },
          {
            "duration": 0.1744185000000016,
            "durationTicks": 240,
            "midi": 36,
            "name": "C2",
            "ticks": 346080,
            "time": 251.511477,
            "velocity": 0.9448818897637795
          },
          {
            "duration": 0.15988362499999198,
            "durationTicks": 220,
            "midi": 46,
            "name": "A#2",
            "ticks": 346080,
            "time": 251.511477,
            "velocity": 0.9448818897637795
          },
          {
            "duration": 0.1744185000000016,
            "durationTicks": 240,
            "midi": 40,
            "name": "E2",
            "ticks": 346560,
            "time": 251.86031400000002,
            "velocity": 0.9448818897637795
          },
          {
            "duration": 0.15988362499999198,
            "durationTicks": 220,
            "midi": 46,
            "name": "A#2",
            "ticks": 346560,
            "time": 251.86031400000002,
            "velocity": 0.9448818897637795
          },
          {
            "duration": 0.17441849999997316,
            "durationTicks": 240,
            "midi": 36,
            "name": "C2",
            "ticks": 347040,
            "time": 252.20915100000002,
            "velocity": 0.9448818897637795
          },
          {
            "duration": 0.15988362499999198,
            "durationTicks": 220,
            "midi": 46,
            "name": "A#2",
            "ticks": 347040,
            "time": 252.20915100000002,
            "velocity": 0.9448818897637795
          }
        ],
        "endOfTrackTicks": 372480
      },
      {
        "channel": 0,
        "controlChanges": {},
        "pitchBends": [],
        "instrument": {
          "family": "piano",
          "number": 0,
          "name": "acoustic grand piano"
        },
        "name": "untitled",
        "notes": [],
        "endOfTrackTicks": 372480
      },
      {
        "channel": 12,
        "controlChanges": {
          "7": [
            {
              "number": 7,
              "ticks": 0,
              "time": 0,
              "value": 0.6299212598425197
            }
          ],
          "10": [
            {
              "number": 10,
              "ticks": 0,
              "time": 0,
              "value": 0.5039370078740157
            }
          ]
        },
        "pitchBends": [
          {
            "ticks": 124812,
            "time": 90.70634092499999,
            "value": -0.96875
          },
          {
            "ticks": 124824,
            "time": 90.71506185000001,
            "value": -0.9375
          },
          {
            "ticks": 124832,
            "time": 90.7208758,
            "value": -0.890625
          },
          {
            "ticks": 124844,
            "time": 90.729596725,
            "value": -0.859375
          },
          {
            "ticks": 124852,
            "time": 90.73541067500001,
            "value": -0.8125
          },
          {
            "ticks": 124860,
            "time": 90.741224625,
            "value": -0.78125
          },
          {
            "ticks": 124872,
            "time": 90.74994554999999,
            "value": -0.734375
          },
          {
            "ticks": 124880,
            "time": 90.75575950000001,
            "value": -0.703125
          },
          {
            "ticks": 124892,
            "time": 90.764480425,
            "value": -0.65625
          },
          {
            "ticks": 124900,
            "time": 90.77029437499999,
            "value": -0.625
          },
          {
            "ticks": 124908,
            "time": 90.77610832500001,
            "value": -0.578125
          },
          {
            "ticks": 124920,
            "time": 90.78482925,
            "value": -0.546875
          },
          {
            "ticks": 124928,
            "time": 90.79064319999999,
            "value": -0.5
          },
          {
            "ticks": 124940,
            "time": 90.79936412500001,
            "value": -0.46875
          },
          {
            "ticks": 124948,
            "time": 90.805178075,
            "value": -0.421875
          },
          {
            "ticks": 124956,
            "time": 90.810992025,
            "value": -0.390625
          },
          {
            "ticks": 124968,
            "time": 90.81971295000001,
            "value": -0.34375
          },
          {
            "ticks": 124976,
            "time": 90.8255269,
            "value": -0.3125
          },
          {
            "ticks": 124988,
            "time": 90.83424782499999,
            "value": -0.265625
          },
          {
            "ticks": 124996,
            "time": 90.84006177500001,
            "value": -0.234375
          },
          {
            "ticks": 125004,
            "time": 90.845875725,
            "value": -0.1875
          },
          {
            "ticks": 125016,
            "time": 90.85459665,
            "value": -0.15625
          },
          {
            "ticks": 125024,
            "time": 90.8604106,
            "value": -0.109375
          },
          {
            "ticks": 125036,
            "time": 90.869131525,
            "value": -0.0625
          },
          {
            "ticks": 125052,
            "time": 90.880759425,
            "value": 0
          },
          {
            "ticks": 125280,
            "time": 91.046457,
            "value": -0.96875
          },
          {
            "ticks": 125292,
            "time": 91.055177925,
            "value": -0.9375
          },
          {
            "ticks": 125300,
            "time": 91.06099187500001,
            "value": -0.890625
          },
          {
            "ticks": 125312,
            "time": 91.0697128,
            "value": -0.859375
          },
          {
            "ticks": 125320,
            "time": 91.07552675,
            "value": -0.8125
          },
          {
            "ticks": 125328,
            "time": 91.08134070000001,
            "value": -0.78125
          },
          {
            "ticks": 125340,
            "time": 91.090061625,
            "value": -0.734375
          },
          {
            "ticks": 125348,
            "time": 91.095875575,
            "value": -0.703125
          },
          {
            "ticks": 125360,
            "time": 91.10459650000001,
            "value": -0.65625
          },
          {
            "ticks": 125368,
            "time": 91.11041045,
            "value": -0.625
          },
          {
            "ticks": 125376,
            "time": 91.1162244,
            "value": -0.578125
          },
          {
            "ticks": 125388,
            "time": 91.12494532500001,
            "value": -0.546875
          },
          {
            "ticks": 125396,
            "time": 91.130759275,
            "value": -0.5
          },
          {
            "ticks": 125408,
            "time": 91.1394802,
            "value": -0.46875
          },
          {
            "ticks": 125416,
            "time": 91.14529415000001,
            "value": -0.421875
          },
          {
            "ticks": 125424,
            "time": 91.1511081,
            "value": -0.390625
          },
          {
            "ticks": 125436,
            "time": 91.159829025,
            "value": -0.34375
          },
          {
            "ticks": 125444,
            "time": 91.165642975,
            "value": -0.3125
          },
          {
            "ticks": 125456,
            "time": 91.1743639,
            "value": -0.265625
          },
          {
            "ticks": 125464,
            "time": 91.18017784999999,
            "value": -0.234375
          },
          {
            "ticks": 125472,
            "time": 91.1859918,
            "value": -0.1875
          },
          {
            "ticks": 125484,
            "time": 91.194712725,
            "value": -0.15625
          },
          {
            "ticks": 125492,
            "time": 91.200526675,
            "value": -0.109375
          },
          {
            "ticks": 125504,
            "time": 91.2092476,
            "value": -0.0625
          },
          {
            "ticks": 125520,
            "time": 91.2208755,
            "value": 0
          },
          {
            "ticks": 125760,
            "time": 91.395294,
            "value": -0.96875
          },
          {
            "ticks": 125772,
            "time": 91.404014925,
            "value": -0.9375
          },
          {
            "ticks": 125780,
            "time": 91.409828875,
            "value": -0.890625
          },
          {
            "ticks": 125792,
            "time": 91.4185498,
            "value": -0.859375
          },
          {
            "ticks": 125800,
            "time": 91.42436375,
            "value": -0.8125
          },
          {
            "ticks": 125808,
            "time": 91.43017770000002,
            "value": -0.78125
          },
          {
            "ticks": 125820,
            "time": 91.43889862500001,
            "value": -0.734375
          },
          {
            "ticks": 125828,
            "time": 91.444712575,
            "value": -0.703125
          },
          {
            "ticks": 125840,
            "time": 91.4534335,
            "value": -0.65625
          },
          {
            "ticks": 125848,
            "time": 91.45924745,
            "value": -0.625
          },
          {
            "ticks": 125856,
            "time": 91.4650614,
            "value": -0.578125
          },
          {
            "ticks": 125868,
            "time": 91.47378232500002,
            "value": -0.546875
          },
          {
            "ticks": 125876,
            "time": 91.479596275,
            "value": -0.5
          },
          {
            "ticks": 125888,
            "time": 91.4883172,
            "value": -0.46875
          },
          {
            "ticks": 125896,
            "time": 91.49413115000002,
            "value": -0.421875
          },
          {
            "ticks": 125904,
            "time": 91.4999451,
            "value": -0.390625
          },
          {
            "ticks": 125916,
            "time": 91.508666025,
            "value": -0.34375
          },
          {
            "ticks": 125924,
            "time": 91.51447997499999,
            "value": -0.3125
          },
          {
            "ticks": 125936,
            "time": 91.5232009,
            "value": -0.265625
          },
          {
            "ticks": 125944,
            "time": 91.52901485,
            "value": -0.234375
          },
          {
            "ticks": 125952,
            "time": 91.5348288,
            "value": -0.1875
          },
          {
            "ticks": 125964,
            "time": 91.543549725,
            "value": -0.15625
          },
          {
            "ticks": 125972,
            "time": 91.549363675,
            "value": -0.109375
          },
          {
            "ticks": 125984,
            "time": 91.55808459999999,
            "value": -0.0625
          },
          {
            "ticks": 126000,
            "time": 91.56971250000001,
            "value": 0
          },
          {
            "ticks": 126240,
            "time": 91.744131,
            "value": -0.96875
          },
          {
            "ticks": 126252,
            "time": 91.75285192499999,
            "value": -0.9375
          },
          {
            "ticks": 126260,
            "time": 91.758665875,
            "value": -0.890625
          },
          {
            "ticks": 126272,
            "time": 91.7673868,
            "value": -0.859375
          },
          {
            "ticks": 126280,
            "time": 91.77320075,
            "value": -0.8125
          },
          {
            "ticks": 126288,
            "time": 91.7790147,
            "value": -0.78125
          },
          {
            "ticks": 126300,
            "time": 91.787735625,
            "value": -0.734375
          },
          {
            "ticks": 126308,
            "time": 91.793549575,
            "value": -0.703125
          },
          {
            "ticks": 126320,
            "time": 91.8022705,
            "value": -0.65625
          },
          {
            "ticks": 126328,
            "time": 91.80808445000001,
            "value": -0.625
          },
          {
            "ticks": 126336,
            "time": 91.8138984,
            "value": -0.578125
          },
          {
            "ticks": 126348,
            "time": 91.822619325,
            "value": -0.546875
          },
          {
            "ticks": 126356,
            "time": 91.82843327500001,
            "value": -0.5
          },
          {
            "ticks": 126368,
            "time": 91.8371542,
            "value": -0.46875
          },
          {
            "ticks": 126376,
            "time": 91.84296815,
            "value": -0.421875
          },
          {
            "ticks": 126384,
            "time": 91.84878210000001,
            "value": -0.390625
          },
          {
            "ticks": 126396,
            "time": 91.857503025,
            "value": -0.34375
          },
          {
            "ticks": 126404,
            "time": 91.86331697499999,
            "value": -0.3125
          },
          {
            "ticks": 126416,
            "time": 91.87203790000001,
            "value": -0.265625
          },
          {
            "ticks": 126424,
            "time": 91.87785185,
            "value": -0.234375
          },
          {
            "ticks": 126432,
            "time": 91.88366579999999,
            "value": -0.1875
          },
          {
            "ticks": 126444,
            "time": 91.89238672500001,
            "value": -0.15625
          },
          {
            "ticks": 126452,
            "time": 91.898200675,
            "value": -0.109375
          },
          {
            "ticks": 126464,
            "time": 91.90692159999999,
            "value": -0.0625
          },
          {
            "ticks": 126480,
            "time": 91.9185495,
            "value": 0
          },
          {
            "ticks": 126720,
            "time": 92.092968,
            "value": -0.96875
          },
          {
            "ticks": 126732,
            "time": 92.10168892499999,
            "value": -0.9375
          },
          {
            "ticks": 126740,
            "time": 92.10750287500001,
            "value": -0.890625
          },
          {
            "ticks": 126752,
            "time": 92.1162238,
            "value": -0.859375
          },
          {
            "ticks": 126760,
            "time": 92.12203774999999,
            "value": -0.8125
          },
          {
            "ticks": 126768,
            "time": 92.12785170000001,
            "value": -0.78125
          },
          {
            "ticks": 126780,
            "time": 92.136572625,
            "value": -0.734375
          },
          {
            "ticks": 126788,
            "time": 92.142386575,
            "value": -0.703125
          },
          {
            "ticks": 126800,
            "time": 92.15110750000001,
            "value": -0.65625
          },
          {
            "ticks": 126808,
            "time": 92.15692145,
            "value": -0.625
          },
          {
            "ticks": 126816,
            "time": 92.1627354,
            "value": -0.578125
          },
          {
            "ticks": 126828,
            "time": 92.17145632500001,
            "value": -0.546875
          },
          {
            "ticks": 126836,
            "time": 92.177270275,
            "value": -0.5
          },
          {
            "ticks": 126848,
            "time": 92.1859912,
            "value": -0.46875
          },
          {
            "ticks": 126856,
            "time": 92.19180515000001,
            "value": -0.421875
          },
          {
            "ticks": 126864,
            "time": 92.19761910000001,
            "value": -0.390625
          },
          {
            "ticks": 126876,
            "time": 92.206340025,
            "value": -0.34375
          },
          {
            "ticks": 126884,
            "time": 92.21215397499999,
            "value": -0.3125
          },
          {
            "ticks": 126896,
            "time": 92.2208749,
            "value": -0.265625
          },
          {
            "ticks": 126904,
            "time": 92.22668885,
            "value": -0.234375
          },
          {
            "ticks": 126912,
            "time": 92.23250279999999,
            "value": -0.1875
          },
          {
            "ticks": 126924,
            "time": 92.24122372500001,
            "value": -0.15625
          },
          {
            "ticks": 126932,
            "time": 92.247037675,
            "value": -0.109375
          },
          {
            "ticks": 126944,
            "time": 92.2557586,
            "value": -0.0625
          },
          {
            "ticks": 126960,
            "time": 92.2673865,
            "value": 0
          },
          {
            "ticks": 127188,
            "time": 92.43308407500001,
            "value": -0.96875
          },
          {
            "ticks": 127200,
            "time": 92.441805,
            "value": -0.9375
          },
          {
            "ticks": 127208,
            "time": 92.44761894999999,
            "value": -0.890625
          },
          {
            "ticks": 127220,
            "time": 92.45633987500001,
            "value": -0.859375
          },
          {
            "ticks": 127228,
            "time": 92.462153825,
            "value": -0.8125
          },
          {
            "ticks": 127236,
            "time": 92.467967775,
            "value": -0.78125
          },
          {
            "ticks": 127248,
            "time": 92.47668870000001,
            "value": -0.734375
          },
          {
            "ticks": 127256,
            "time": 92.48250265,
            "value": -0.703125
          },
          {
            "ticks": 127268,
            "time": 92.49122357499999,
            "value": -0.65625
          },
          {
            "ticks": 127276,
            "time": 92.49703752500001,
            "value": -0.625
          },
          {
            "ticks": 127284,
            "time": 92.502851475,
            "value": -0.578125
          },
          {
            "ticks": 127296,
            "time": 92.51157239999999,
            "value": -0.546875
          },
          {
            "ticks": 127304,
            "time": 92.51738635,
            "value": -0.5
          },
          {
            "ticks": 127316,
            "time": 92.526107275,
            "value": -0.46875
          },
          {
            "ticks": 127324,
            "time": 92.531921225,
            "value": -0.421875
          },
          {
            "ticks": 127332,
            "time": 92.537735175,
            "value": -0.390625
          },
          {
            "ticks": 127344,
            "time": 92.5464561,
            "value": -0.34375
          },
          {
            "ticks": 127352,
            "time": 92.55227005,
            "value": -0.3125
          },
          {
            "ticks": 127364,
            "time": 92.560990975,
            "value": -0.265625
          },
          {
            "ticks": 127372,
            "time": 92.56680492500001,
            "value": -0.234375
          },
          {
            "ticks": 127380,
            "time": 92.572618875,
            "value": -0.1875
          },
          {
            "ticks": 127392,
            "time": 92.5813398,
            "value": -0.15625
          },
          {
            "ticks": 127400,
            "time": 92.58715375000001,
            "value": -0.109375
          },
          {
            "ticks": 127412,
            "time": 92.595874675,
            "value": -0.0625
          },
          {
            "ticks": 127428,
            "time": 92.60750257500001,
            "value": 0
          },
          {
            "ticks": 127668,
            "time": 92.78192107500001,
            "value": -0.96875
          },
          {
            "ticks": 127680,
            "time": 92.790642,
            "value": -0.9375
          },
          {
            "ticks": 127688,
            "time": 92.79645595,
            "value": -0.890625
          },
          {
            "ticks": 127700,
            "time": 92.80517687500002,
            "value": -0.859375
          },
          {
            "ticks": 127708,
            "time": 92.810990825,
            "value": -0.8125
          },
          {
            "ticks": 127716,
            "time": 92.816804775,
            "value": -0.78125
          },
          {
            "ticks": 127728,
            "time": 92.82552570000001,
            "value": -0.734375
          },
          {
            "ticks": 127736,
            "time": 92.83133965,
            "value": -0.703125
          },
          {
            "ticks": 127748,
            "time": 92.840060575,
            "value": -0.65625
          },
          {
            "ticks": 127756,
            "time": 92.84587452500001,
            "value": -0.625
          },
          {
            "ticks": 127764,
            "time": 92.851688475,
            "value": -0.578125
          },
          {
            "ticks": 127776,
            "time": 92.8604094,
            "value": -0.546875
          },
          {
            "ticks": 127784,
            "time": 92.86622335,
            "value": -0.5
          },
          {
            "ticks": 127796,
            "time": 92.874944275,
            "value": -0.46875
          },
          {
            "ticks": 127804,
            "time": 92.880758225,
            "value": -0.421875
          },
          {
            "ticks": 127812,
            "time": 92.886572175,
            "value": -0.390625
          },
          {
            "ticks": 127824,
            "time": 92.8952931,
            "value": -0.34375
          },
          {
            "ticks": 127832,
            "time": 92.90110705000001,
            "value": -0.3125
          },
          {
            "ticks": 127844,
            "time": 92.909827975,
            "value": -0.265625
          },
          {
            "ticks": 127852,
            "time": 92.915641925,
            "value": -0.234375
          },
          {
            "ticks": 127860,
            "time": 92.921455875,
            "value": -0.1875
          },
          {
            "ticks": 127872,
            "time": 92.9301768,
            "value": -0.15625
          },
          {
            "ticks": 127880,
            "time": 92.93599075,
            "value": -0.109375
          },
          {
            "ticks": 127892,
            "time": 92.94471167500001,
            "value": -0.0625
          },
          {
            "ticks": 127908,
            "time": 92.95633957500002,
            "value": 0
          },
          {
            "ticks": 128148,
            "time": 93.13075807500002,
            "value": -0.96875
          },
          {
            "ticks": 128160,
            "time": 93.13947900000001,
            "value": -0.9375
          },
          {
            "ticks": 128168,
            "time": 93.14529295,
            "value": -0.890625
          },
          {
            "ticks": 128180,
            "time": 93.154013875,
            "value": -0.859375
          },
          {
            "ticks": 128188,
            "time": 93.15982782500001,
            "value": -0.8125
          },
          {
            "ticks": 128196,
            "time": 93.165641775,
            "value": -0.78125
          },
          {
            "ticks": 128208,
            "time": 93.1743627,
            "value": -0.734375
          },
          {
            "ticks": 128216,
            "time": 93.18017665,
            "value": -0.703125
          },
          {
            "ticks": 128228,
            "time": 93.188897575,
            "value": -0.65625
          },
          {
            "ticks": 128236,
            "time": 93.19471152500002,
            "value": -0.625
          },
          {
            "ticks": 128244,
            "time": 93.200525475,
            "value": -0.578125
          },
          {
            "ticks": 128256,
            "time": 93.2092464,
            "value": -0.546875
          },
          {
            "ticks": 128264,
            "time": 93.21506034999999,
            "value": -0.5
          },
          {
            "ticks": 128276,
            "time": 93.22378127500001,
            "value": -0.46875
          },
          {
            "ticks": 128284,
            "time": 93.229595225,
            "value": -0.421875
          },
          {
            "ticks": 128292,
            "time": 93.235409175,
            "value": -0.390625
          },
          {
            "ticks": 128304,
            "time": 93.2441301,
            "value": -0.34375
          },
          {
            "ticks": 128312,
            "time": 93.24994405,
            "value": -0.3125
          },
          {
            "ticks": 128324,
            "time": 93.25866497499999,
            "value": -0.265625
          },
          {
            "ticks": 128332,
            "time": 93.264478925,
            "value": -0.234375
          },
          {
            "ticks": 128340,
            "time": 93.270292875,
            "value": -0.1875
          },
          {
            "ticks": 128344,
            "time": 93.27319985,
            "value": -0.109375
          },
          {
            "ticks": 128352,
            "time": 93.2790138,
            "value": -0.15625
          },
          {
            "ticks": 128360,
            "time": 93.28482775,
            "value": -0.109375
          },
          {
            "ticks": 128372,
            "time": 93.293548675,
            "value": -0.0625
          },
          {
            "ticks": 128388,
            "time": 93.305176575,
            "value": 0
          },
          {
            "ticks": 128408,
            "time": 93.31971145,
            "value": 0
          },
          {
            "ticks": 128640,
            "time": 93.488316,
            "value": -0.96875
          },
          {
            "ticks": 128652,
            "time": 93.49703692499999,
            "value": -0.9375
          },
          {
            "ticks": 128660,
            "time": 93.50285087500001,
            "value": -0.890625
          },
          {
            "ticks": 128672,
            "time": 93.5115718,
            "value": -0.859375
          },
          {
            "ticks": 128680,
            "time": 93.51738575,
            "value": -0.8125
          },
          {
            "ticks": 128688,
            "time": 93.5231997,
            "value": -0.78125
          },
          {
            "ticks": 128700,
            "time": 93.531920625,
            "value": -0.734375
          },
          {
            "ticks": 128708,
            "time": 93.537734575,
            "value": -0.703125
          },
          {
            "ticks": 128720,
            "time": 93.54645550000001,
            "value": -0.65625
          },
          {
            "ticks": 128728,
            "time": 93.55226945,
            "value": -0.625
          },
          {
            "ticks": 128736,
            "time": 93.5580834,
            "value": -0.578125
          },
          {
            "ticks": 128748,
            "time": 93.566804325,
            "value": -0.546875
          },
          {
            "ticks": 128756,
            "time": 93.57261827500001,
            "value": -0.5
          },
          {
            "ticks": 128768,
            "time": 93.5813392,
            "value": -0.46875
          },
          {
            "ticks": 128776,
            "time": 93.58715315,
            "value": -0.421875
          },
          {
            "ticks": 128784,
            "time": 93.59296710000001,
            "value": -0.390625
          },
          {
            "ticks": 128796,
            "time": 93.601688025,
            "value": -0.34375
          },
          {
            "ticks": 128804,
            "time": 93.60750197499999,
            "value": -0.3125
          },
          {
            "ticks": 128816,
            "time": 93.61622290000001,
            "value": -0.265625
          },
          {
            "ticks": 128824,
            "time": 93.62203685,
            "value": -0.234375
          },
          {
            "ticks": 128832,
            "time": 93.62785079999999,
            "value": -0.1875
          },
          {
            "ticks": 128844,
            "time": 93.63657172500001,
            "value": -0.15625
          },
          {
            "ticks": 128852,
            "time": 93.642385675,
            "value": -0.109375
          },
          {
            "ticks": 128864,
            "time": 93.65110659999999,
            "value": -0.0625
          },
          {
            "ticks": 128880,
            "time": 93.6627345,
            "value": 0
          },
          {
            "ticks": 129108,
            "time": 93.82843207500001,
            "value": -0.96875
          },
          {
            "ticks": 129120,
            "time": 93.837153,
            "value": -0.9375
          },
          {
            "ticks": 129128,
            "time": 93.84296694999999,
            "value": -0.890625
          },
          {
            "ticks": 129140,
            "time": 93.85168787500001,
            "value": -0.859375
          },
          {
            "ticks": 129148,
            "time": 93.857501825,
            "value": -0.8125
          },
          {
            "ticks": 129156,
            "time": 93.863315775,
            "value": -0.78125
          },
          {
            "ticks": 129168,
            "time": 93.87203670000001,
            "value": -0.734375
          },
          {
            "ticks": 129176,
            "time": 93.87785065,
            "value": -0.703125
          },
          {
            "ticks": 129188,
            "time": 93.88657157499999,
            "value": -0.65625
          },
          {
            "ticks": 129196,
            "time": 93.89238552500001,
            "value": -0.625
          },
          {
            "ticks": 129204,
            "time": 93.89819947500001,
            "value": -0.578125
          },
          {
            "ticks": 129216,
            "time": 93.9069204,
            "value": -0.546875
          },
          {
            "ticks": 129224,
            "time": 93.91273435,
            "value": -0.5
          },
          {
            "ticks": 129236,
            "time": 93.921455275,
            "value": -0.46875
          },
          {
            "ticks": 129244,
            "time": 93.927269225,
            "value": -0.421875
          },
          {
            "ticks": 129252,
            "time": 93.933083175,
            "value": -0.390625
          },
          {
            "ticks": 129264,
            "time": 93.94180410000001,
            "value": -0.34375
          },
          {
            "ticks": 129272,
            "time": 93.94761805,
            "value": -0.3125
          },
          {
            "ticks": 129284,
            "time": 93.956338975,
            "value": -0.265625
          },
          {
            "ticks": 129292,
            "time": 93.96215292500001,
            "value": -0.234375
          },
          {
            "ticks": 129300,
            "time": 93.967966875,
            "value": -0.1875
          },
          {
            "ticks": 129312,
            "time": 93.9766878,
            "value": -0.15625
          },
          {
            "ticks": 129320,
            "time": 93.98250175000001,
            "value": -0.109375
          },
          {
            "ticks": 129332,
            "time": 93.991222675,
            "value": -0.0625
          },
          {
            "ticks": 129348,
            "time": 94.00285057500001,
            "value": 0
          },
          {
            "ticks": 129588,
            "time": 94.17726907500001,
            "value": -0.96875
          },
          {
            "ticks": 129600,
            "time": 94.18599,
            "value": -0.9375
          },
          {
            "ticks": 129608,
            "time": 94.19180395,
            "value": -0.890625
          },
          {
            "ticks": 129620,
            "time": 94.20052487500001,
            "value": -0.859375
          },
          {
            "ticks": 129628,
            "time": 94.206338825,
            "value": -0.8125
          },
          {
            "ticks": 129636,
            "time": 94.21215277499999,
            "value": -0.78125
          },
          {
            "ticks": 129648,
            "time": 94.22087370000001,
            "value": -0.734375
          },
          {
            "ticks": 129656,
            "time": 94.22668765,
            "value": -0.703125
          },
          {
            "ticks": 129668,
            "time": 94.235408575,
            "value": -0.65625
          },
          {
            "ticks": 129676,
            "time": 94.24122252500001,
            "value": -0.625
          },
          {
            "ticks": 129684,
            "time": 94.247036475,
            "value": -0.578125
          },
          {
            "ticks": 129696,
            "time": 94.2557574,
            "value": -0.546875
          },
          {
            "ticks": 129704,
            "time": 94.26157135,
            "value": -0.5
          },
          {
            "ticks": 129716,
            "time": 94.270292275,
            "value": -0.46875
          },
          {
            "ticks": 129724,
            "time": 94.276106225,
            "value": -0.421875
          },
          {
            "ticks": 129732,
            "time": 94.281920175,
            "value": -0.390625
          },
          {
            "ticks": 129744,
            "time": 94.2906411,
            "value": -0.34375
          },
          {
            "ticks": 129752,
            "time": 94.29645505,
            "value": -0.3125
          },
          {
            "ticks": 129764,
            "time": 94.305175975,
            "value": -0.265625
          },
          {
            "ticks": 129772,
            "time": 94.310989925,
            "value": -0.234375
          },
          {
            "ticks": 129780,
            "time": 94.316803875,
            "value": -0.1875
          },
          {
            "ticks": 129792,
            "time": 94.3255248,
            "value": -0.15625
          },
          {
            "ticks": 129800,
            "time": 94.33133875000001,
            "value": -0.109375
          },
          {
            "ticks": 129812,
            "time": 94.340059675,
            "value": -0.0625
          },
          {
            "ticks": 129828,
            "time": 94.35168757500001,
            "value": 0
          },
          {
            "ticks": 130068,
            "time": 94.52610607500002,
            "value": -0.96875
          },
          {
            "ticks": 130080,
            "time": 94.534827,
            "value": -0.9375
          },
          {
            "ticks": 130088,
            "time": 94.54064095,
            "value": -0.890625
          },
          {
            "ticks": 130100,
            "time": 94.549361875,
            "value": -0.859375
          },
          {
            "ticks": 130108,
            "time": 94.555175825,
            "value": -0.8125
          },
          {
            "ticks": 130116,
            "time": 94.560989775,
            "value": -0.78125
          },
          {
            "ticks": 130128,
            "time": 94.56971070000002,
            "value": -0.734375
          },
          {
            "ticks": 130136,
            "time": 94.57552465,
            "value": -0.703125
          },
          {
            "ticks": 130148,
            "time": 94.584245575,
            "value": -0.65625
          },
          {
            "ticks": 130156,
            "time": 94.59005952500002,
            "value": -0.625
          },
          {
            "ticks": 130164,
            "time": 94.595873475,
            "value": -0.578125
          },
          {
            "ticks": 130176,
            "time": 94.6045944,
            "value": -0.546875
          },
          {
            "ticks": 130184,
            "time": 94.61040834999999,
            "value": -0.5
          },
          {
            "ticks": 130196,
            "time": 94.619129275,
            "value": -0.46875
          },
          {
            "ticks": 130204,
            "time": 94.624943225,
            "value": -0.421875
          },
          {
            "ticks": 130212,
            "time": 94.630757175,
            "value": -0.390625
          },
          {
            "ticks": 130224,
            "time": 94.6394781,
            "value": -0.34375
          },
          {
            "ticks": 130232,
            "time": 94.64529205,
            "value": -0.3125
          },
          {
            "ticks": 130244,
            "time": 94.65401297499999,
            "value": -0.265625
          },
          {
            "ticks": 130252,
            "time": 94.659826925,
            "value": -0.234375
          },
          {
            "ticks": 130260,
            "time": 94.66564087500001,
            "value": -0.1875
          },
          {
            "ticks": 130272,
            "time": 94.6743618,
            "value": -0.15625
          },
          {
            "ticks": 130280,
            "time": 94.68017575,
            "value": -0.109375
          },
          {
            "ticks": 130292,
            "time": 94.688896675,
            "value": -0.0625
          },
          {
            "ticks": 130308,
            "time": 94.70052457500002,
            "value": 0
          },
          {
            "ticks": 130336,
            "time": 94.72087340000002,
            "value": -0.015625
          },
          {
            "ticks": 130344,
            "time": 94.72668735,
            "value": -0.046875
          },
          {
            "ticks": 130352,
            "time": 94.7325013,
            "value": -0.078125
          },
          {
            "ticks": 130364,
            "time": 94.74122222499999,
            "value": -0.125
          },
          {
            "ticks": 130372,
            "time": 94.747036175,
            "value": -0.15625
          },
          {
            "ticks": 130384,
            "time": 94.7557571,
            "value": -0.203125
          },
          {
            "ticks": 130392,
            "time": 94.76157105,
            "value": -0.234375
          },
          {
            "ticks": 130400,
            "time": 94.767385,
            "value": -0.265625
          },
          {
            "ticks": 130412,
            "time": 94.776105925,
            "value": -0.3125
          },
          {
            "ticks": 130420,
            "time": 94.781919875,
            "value": -0.34375
          },
          {
            "ticks": 130432,
            "time": 94.7906408,
            "value": -0.390625
          },
          {
            "ticks": 130440,
            "time": 94.79645475,
            "value": -0.421875
          },
          {
            "ticks": 130448,
            "time": 94.8022687,
            "value": -0.453125
          },
          {
            "ticks": 130460,
            "time": 94.810989625,
            "value": -0.5
          },
          {
            "ticks": 130468,
            "time": 94.81680357500001,
            "value": -0.53125
          },
          {
            "ticks": 130480,
            "time": 94.8255245,
            "value": -0.578125
          },
          {
            "ticks": 130488,
            "time": 94.83133845,
            "value": -0.609375
          },
          {
            "ticks": 130496,
            "time": 94.83715240000001,
            "value": -0.640625
          },
          {
            "ticks": 130508,
            "time": 94.845873325,
            "value": -0.6875
          },
          {
            "ticks": 130516,
            "time": 94.85168727500002,
            "value": -0.71875
          },
          {
            "ticks": 130528,
            "time": 94.86040820000001,
            "value": -0.765625
          },
          {
            "ticks": 130536,
            "time": 94.86622215,
            "value": -0.796875
          },
          {
            "ticks": 130544,
            "time": 94.87203609999999,
            "value": -0.828125
          },
          {
            "ticks": 130556,
            "time": 94.88075702500001,
            "value": -0.875
          },
          {
            "ticks": 130564,
            "time": 94.886570975,
            "value": -0.90625
          },
          {
            "ticks": 130576,
            "time": 94.89529190000002,
            "value": -0.953125
          },
          {
            "ticks": 130580,
            "time": 94.898198875,
            "value": -0.859375
          },
          {
            "ticks": 130588,
            "time": 94.90401282500001,
            "value": -0.8125
          },
          {
            "ticks": 130596,
            "time": 94.909826775,
            "value": -0.78125
          },
          {
            "ticks": 130608,
            "time": 94.9185477,
            "value": -0.734375
          },
          {
            "ticks": 130616,
            "time": 94.92436165000001,
            "value": -0.703125
          },
          {
            "ticks": 130628,
            "time": 94.933082575,
            "value": -0.65625
          },
          {
            "ticks": 130636,
            "time": 94.93889652500002,
            "value": -0.625
          },
          {
            "ticks": 130644,
            "time": 94.94471047500001,
            "value": -0.578125
          },
          {
            "ticks": 130656,
            "time": 94.9534314,
            "value": -0.546875
          },
          {
            "ticks": 130664,
            "time": 94.95924534999999,
            "value": -0.5
          },
          {
            "ticks": 130676,
            "time": 94.96796627500001,
            "value": -0.46875
          },
          {
            "ticks": 130684,
            "time": 94.973780225,
            "value": -0.421875
          },
          {
            "ticks": 130692,
            "time": 94.97959417499999,
            "value": -0.390625
          },
          {
            "ticks": 130704,
            "time": 94.98831510000001,
            "value": -0.34375
          },
          {
            "ticks": 130712,
            "time": 94.99412905,
            "value": -0.3125
          },
          {
            "ticks": 130724,
            "time": 95.00284997499999,
            "value": -0.265625
          },
          {
            "ticks": 130732,
            "time": 95.00866392500001,
            "value": -0.234375
          },
          {
            "ticks": 130740,
            "time": 95.014477875,
            "value": -0.1875
          },
          {
            "ticks": 130752,
            "time": 95.02319879999999,
            "value": -0.15625
          },
          {
            "ticks": 130760,
            "time": 95.02901275,
            "value": -0.109375
          },
          {
            "ticks": 130772,
            "time": 95.037733675,
            "value": -0.0625
          },
          {
            "ticks": 130788,
            "time": 95.049361575,
            "value": 0
          },
          {
            "ticks": 131016,
            "time": 95.21505915,
            "value": -0.96875
          },
          {
            "ticks": 131028,
            "time": 95.22378007500001,
            "value": -0.9375
          },
          {
            "ticks": 131036,
            "time": 95.22959402500001,
            "value": -0.890625
          },
          {
            "ticks": 131048,
            "time": 95.23831495,
            "value": -0.859375
          },
          {
            "ticks": 131056,
            "time": 95.2441289,
            "value": -0.8125
          },
          {
            "ticks": 131064,
            "time": 95.24994285000001,
            "value": -0.78125
          },
          {
            "ticks": 131076,
            "time": 95.258663775,
            "value": -0.734375
          },
          {
            "ticks": 131084,
            "time": 95.26447772499999,
            "value": -0.703125
          },
          {
            "ticks": 131096,
            "time": 95.27319865000001,
            "value": -0.65625
          },
          {
            "ticks": 131104,
            "time": 95.2790126,
            "value": -0.625
          },
          {
            "ticks": 131112,
            "time": 95.28482654999999,
            "value": -0.578125
          },
          {
            "ticks": 131124,
            "time": 95.29354747500001,
            "value": -0.546875
          },
          {
            "ticks": 131132,
            "time": 95.299361425,
            "value": -0.5
          },
          {
            "ticks": 131144,
            "time": 95.30808234999999,
            "value": -0.46875
          },
          {
            "ticks": 131152,
            "time": 95.31389630000001,
            "value": -0.421875
          },
          {
            "ticks": 131160,
            "time": 95.31971025,
            "value": -0.390625
          },
          {
            "ticks": 131172,
            "time": 95.32843117499999,
            "value": -0.34375
          },
          {
            "ticks": 131180,
            "time": 95.33424512500001,
            "value": -0.3125
          },
          {
            "ticks": 131192,
            "time": 95.34296605,
            "value": -0.265625
          },
          {
            "ticks": 131200,
            "time": 95.34877999999999,
            "value": -0.234375
          },
          {
            "ticks": 131208,
            "time": 95.35459395000001,
            "value": -0.1875
          },
          {
            "ticks": 131220,
            "time": 95.363314875,
            "value": -0.15625
          },
          {
            "ticks": 131228,
            "time": 95.36912882499999,
            "value": -0.109375
          },
          {
            "ticks": 131240,
            "time": 95.37784975000001,
            "value": -0.0625
          },
          {
            "ticks": 131256,
            "time": 95.38947765,
            "value": 0
          },
          {
            "ticks": 131496,
            "time": 95.56389615,
            "value": -0.96875
          },
          {
            "ticks": 131508,
            "time": 95.57261707500001,
            "value": -0.9375
          },
          {
            "ticks": 131516,
            "time": 95.578431025,
            "value": -0.890625
          },
          {
            "ticks": 131528,
            "time": 95.58715194999999,
            "value": -0.859375
          },
          {
            "ticks": 131536,
            "time": 95.59296590000001,
            "value": -0.8125
          },
          {
            "ticks": 131544,
            "time": 95.59877985,
            "value": -0.78125
          },
          {
            "ticks": 131556,
            "time": 95.60750077499999,
            "value": -0.734375
          },
          {
            "ticks": 131564,
            "time": 95.613314725,
            "value": -0.703125
          },
          {
            "ticks": 131576,
            "time": 95.62203565,
            "value": -0.65625
          },
          {
            "ticks": 131584,
            "time": 95.6278496,
            "value": -0.625
          },
          {
            "ticks": 131592,
            "time": 95.63366355,
            "value": -0.578125
          },
          {
            "ticks": 131604,
            "time": 95.642384475,
            "value": -0.546875
          },
          {
            "ticks": 131612,
            "time": 95.648198425,
            "value": -0.5
          },
          {
            "ticks": 131624,
            "time": 95.65691935,
            "value": -0.46875
          },
          {
            "ticks": 131632,
            "time": 95.66273330000001,
            "value": -0.421875
          },
          {
            "ticks": 131640,
            "time": 95.66854725,
            "value": -0.390625
          },
          {
            "ticks": 131652,
            "time": 95.677268175,
            "value": -0.34375
          },
          {
            "ticks": 131660,
            "time": 95.68308212500001,
            "value": -0.3125
          },
          {
            "ticks": 131672,
            "time": 95.69180305,
            "value": -0.265625
          },
          {
            "ticks": 131680,
            "time": 95.697617,
            "value": -0.234375
          },
          {
            "ticks": 131688,
            "time": 95.70343095000001,
            "value": -0.1875
          },
          {
            "ticks": 131700,
            "time": 95.712151875,
            "value": -0.15625
          },
          {
            "ticks": 131708,
            "time": 95.717965825,
            "value": -0.109375
          },
          {
            "ticks": 131720,
            "time": 95.72668675000001,
            "value": -0.0625
          },
          {
            "ticks": 131736,
            "time": 95.73831464999999,
            "value": 0
          },
          {
            "ticks": 131976,
            "time": 95.91273315,
            "value": -0.96875
          },
          {
            "ticks": 131988,
            "time": 95.92145407500001,
            "value": -0.9375
          },
          {
            "ticks": 131996,
            "time": 95.927268025,
            "value": -0.890625
          },
          {
            "ticks": 132008,
            "time": 95.93598895,
            "value": -0.859375
          },
          {
            "ticks": 132016,
            "time": 95.94180290000001,
            "value": -0.8125
          },
          {
            "ticks": 132024,
            "time": 95.94761685,
            "value": -0.78125
          },
          {
            "ticks": 132036,
            "time": 95.956337775,
            "value": -0.734375
          },
          {
            "ticks": 132044,
            "time": 95.962151725,
            "value": -0.703125
          },
          {
            "ticks": 132056,
            "time": 95.97087265,
            "value": -0.65625
          },
          {
            "ticks": 132064,
            "time": 95.9766866,
            "value": -0.625
          },
          {
            "ticks": 132072,
            "time": 95.98250055,
            "value": -0.578125
          },
          {
            "ticks": 132084,
            "time": 95.991221475,
            "value": -0.546875
          },
          {
            "ticks": 132092,
            "time": 95.997035425,
            "value": -0.5
          },
          {
            "ticks": 132104,
            "time": 96.00575635,
            "value": -0.46875
          },
          {
            "ticks": 132112,
            "time": 96.0115703,
            "value": -0.421875
          },
          {
            "ticks": 132120,
            "time": 96.01738425,
            "value": -0.390625
          },
          {
            "ticks": 132132,
            "time": 96.026105175,
            "value": -0.34375
          },
          {
            "ticks": 132140,
            "time": 96.03191912500002,
            "value": -0.3125
          },
          {
            "ticks": 132152,
            "time": 96.04064005000001,
            "value": -0.265625
          },
          {
            "ticks": 132160,
            "time": 96.046454,
            "value": -0.234375
          },
          {
            "ticks": 132168,
            "time": 96.05226795000002,
            "value": -0.1875
          },
          {
            "ticks": 132172,
            "time": 96.055174925,
            "value": -0.109375
          },
          {
            "ticks": 132180,
            "time": 96.060988875,
            "value": -0.15625
          },
          {
            "ticks": 132188,
            "time": 96.066802825,
            "value": -0.109375
          },
          {
            "ticks": 132200,
            "time": 96.07552375,
            "value": -0.0625
          },
          {
            "ticks": 132216,
            "time": 96.08715165,
            "value": 0
          },
          {
            "ticks": 132236,
            "time": 96.101686525,
            "value": 0
          },
          {
            "ticks": 132480,
            "time": 96.27901200000001,
            "value": -0.96875
          },
          {
            "ticks": 132492,
            "time": 96.287732925,
            "value": -0.9375
          },
          {
            "ticks": 132500,
            "time": 96.293546875,
            "value": -0.890625
          },
          {
            "ticks": 132512,
            "time": 96.3022678,
            "value": -0.859375
          },
          {
            "ticks": 132520,
            "time": 96.30808175,
            "value": -0.8125
          },
          {
            "ticks": 132528,
            "time": 96.3138957,
            "value": -0.78125
          },
          {
            "ticks": 132540,
            "time": 96.32261662500001,
            "value": -0.734375
          },
          {
            "ticks": 132548,
            "time": 96.328430575,
            "value": -0.703125
          },
          {
            "ticks": 132560,
            "time": 96.3371515,
            "value": -0.65625
          },
          {
            "ticks": 132568,
            "time": 96.34296545000001,
            "value": -0.625
          },
          {
            "ticks": 132576,
            "time": 96.3487794,
            "value": -0.578125
          },
          {
            "ticks": 132588,
            "time": 96.357500325,
            "value": -0.546875
          },
          {
            "ticks": 132596,
            "time": 96.36331427500001,
            "value": -0.5
          },
          {
            "ticks": 132608,
            "time": 96.3720352,
            "value": -0.46875
          },
          {
            "ticks": 132616,
            "time": 96.37784915000002,
            "value": -0.421875
          },
          {
            "ticks": 132624,
            "time": 96.3836631,
            "value": -0.390625
          },
          {
            "ticks": 132636,
            "time": 96.392384025,
            "value": -0.34375
          },
          {
            "ticks": 132644,
            "time": 96.39819797499999,
            "value": -0.3125
          },
          {
            "ticks": 132656,
            "time": 96.40691890000001,
            "value": -0.265625
          },
          {
            "ticks": 132664,
            "time": 96.41273285,
            "value": -0.234375
          },
          {
            "ticks": 132672,
            "time": 96.41854679999999,
            "value": -0.1875
          },
          {
            "ticks": 132684,
            "time": 96.42726772500001,
            "value": -0.15625
          },
          {
            "ticks": 132692,
            "time": 96.433081675,
            "value": -0.109375
          },
          {
            "ticks": 132704,
            "time": 96.44180259999999,
            "value": -0.0625
          },
          {
            "ticks": 132720,
            "time": 96.4534305,
            "value": 0
          },
          {
            "ticks": 132948,
            "time": 96.619128075,
            "value": -0.96875
          },
          {
            "ticks": 132960,
            "time": 96.627849,
            "value": -0.9375
          },
          {
            "ticks": 132968,
            "time": 96.63366295,
            "value": -0.890625
          },
          {
            "ticks": 132980,
            "time": 96.64238387500001,
            "value": -0.859375
          },
          {
            "ticks": 132988,
            "time": 96.648197825,
            "value": -0.8125
          },
          {
            "ticks": 132996,
            "time": 96.654011775,
            "value": -0.78125
          },
          {
            "ticks": 133008,
            "time": 96.6627327,
            "value": -0.734375
          },
          {
            "ticks": 133016,
            "time": 96.66854665000001,
            "value": -0.703125
          },
          {
            "ticks": 133028,
            "time": 96.677267575,
            "value": -0.65625
          },
          {
            "ticks": 133036,
            "time": 96.683081525,
            "value": -0.625
          },
          {
            "ticks": 133044,
            "time": 96.68889547500001,
            "value": -0.578125
          },
          {
            "ticks": 133056,
            "time": 96.6976164,
            "value": -0.546875
          },
          {
            "ticks": 133064,
            "time": 96.70343034999999,
            "value": -0.5
          },
          {
            "ticks": 133076,
            "time": 96.71215127500001,
            "value": -0.46875
          },
          {
            "ticks": 133084,
            "time": 96.717965225,
            "value": -0.421875
          },
          {
            "ticks": 133092,
            "time": 96.72377917499999,
            "value": -0.390625
          },
          {
            "ticks": 133104,
            "time": 96.73250010000001,
            "value": -0.34375
          },
          {
            "ticks": 133112,
            "time": 96.73831405,
            "value": -0.3125
          },
          {
            "ticks": 133124,
            "time": 96.74703497499999,
            "value": -0.265625
          },
          {
            "ticks": 133132,
            "time": 96.75284892500001,
            "value": -0.234375
          },
          {
            "ticks": 133140,
            "time": 96.758662875,
            "value": -0.1875
          },
          {
            "ticks": 133152,
            "time": 96.76738379999999,
            "value": -0.15625
          },
          {
            "ticks": 133160,
            "time": 96.77319775000001,
            "value": -0.109375
          },
          {
            "ticks": 133172,
            "time": 96.781918675,
            "value": -0.0625
          },
          {
            "ticks": 133188,
            "time": 96.79354657500001,
            "value": 0
          },
          {
            "ticks": 133428,
            "time": 96.96796507500001,
            "value": -0.96875
          },
          {
            "ticks": 133440,
            "time": 96.976686,
            "value": -0.9375
          },
          {
            "ticks": 133448,
            "time": 96.98249994999999,
            "value": -0.890625
          },
          {
            "ticks": 133460,
            "time": 96.99122087500001,
            "value": -0.859375
          },
          {
            "ticks": 133468,
            "time": 96.997034825,
            "value": -0.8125
          },
          {
            "ticks": 133476,
            "time": 97.002848775,
            "value": -0.78125
          },
          {
            "ticks": 133488,
            "time": 97.01156970000001,
            "value": -0.734375
          },
          {
            "ticks": 133496,
            "time": 97.01738365,
            "value": -0.703125
          },
          {
            "ticks": 133508,
            "time": 97.02610457499999,
            "value": -0.65625
          },
          {
            "ticks": 133516,
            "time": 97.03191852500001,
            "value": -0.625
          },
          {
            "ticks": 133524,
            "time": 97.03773247500001,
            "value": -0.578125
          },
          {
            "ticks": 133536,
            "time": 97.0464534,
            "value": -0.546875
          },
          {
            "ticks": 133544,
            "time": 97.05226735,
            "value": -0.5
          },
          {
            "ticks": 133556,
            "time": 97.060988275,
            "value": -0.46875
          },
          {
            "ticks": 133564,
            "time": 97.066802225,
            "value": -0.421875
          },
          {
            "ticks": 133572,
            "time": 97.072616175,
            "value": -0.390625
          },
          {
            "ticks": 133584,
            "time": 97.08133710000001,
            "value": -0.34375
          },
          {
            "ticks": 133592,
            "time": 97.08715105,
            "value": -0.3125
          },
          {
            "ticks": 133604,
            "time": 97.095871975,
            "value": -0.265625
          },
          {
            "ticks": 133612,
            "time": 97.10168592500001,
            "value": -0.234375
          },
          {
            "ticks": 133620,
            "time": 97.107499875,
            "value": -0.1875
          },
          {
            "ticks": 133632,
            "time": 97.1162208,
            "value": -0.15625
          },
          {
            "ticks": 133640,
            "time": 97.12203475000001,
            "value": -0.109375
          },
          {
            "ticks": 133652,
            "time": 97.130755675,
            "value": -0.0625
          },
          {
            "ticks": 133668,
            "time": 97.14238357500001,
            "value": 0
          },
          {
            "ticks": 133908,
            "time": 97.31680207500001,
            "value": -0.96875
          },
          {
            "ticks": 133920,
            "time": 97.325523,
            "value": -0.9375
          },
          {
            "ticks": 133928,
            "time": 97.33133695,
            "value": -0.890625
          },
          {
            "ticks": 133940,
            "time": 97.34005787500001,
            "value": -0.859375
          },
          {
            "ticks": 133948,
            "time": 97.345871825,
            "value": -0.8125
          },
          {
            "ticks": 133956,
            "time": 97.35168577499999,
            "value": -0.78125
          },
          {
            "ticks": 133968,
            "time": 97.36040670000001,
            "value": -0.734375
          },
          {
            "ticks": 133976,
            "time": 97.36622065,
            "value": -0.703125
          },
          {
            "ticks": 133988,
            "time": 97.374941575,
            "value": -0.65625
          },
          {
            "ticks": 133996,
            "time": 97.38075552500001,
            "value": -0.625
          },
          {
            "ticks": 134004,
            "time": 97.386569475,
            "value": -0.578125
          },
          {
            "ticks": 134016,
            "time": 97.3952904,
            "value": -0.546875
          },
          {
            "ticks": 134024,
            "time": 97.40110435,
            "value": -0.5
          },
          {
            "ticks": 134036,
            "time": 97.409825275,
            "value": -0.46875
          },
          {
            "ticks": 134044,
            "time": 97.415639225,
            "value": -0.421875
          },
          {
            "ticks": 134052,
            "time": 97.421453175,
            "value": -0.390625
          },
          {
            "ticks": 134064,
            "time": 97.4301741,
            "value": -0.34375
          },
          {
            "ticks": 134072,
            "time": 97.43598805,
            "value": -0.3125
          },
          {
            "ticks": 134084,
            "time": 97.444708975,
            "value": -0.265625
          },
          {
            "ticks": 134092,
            "time": 97.450522925,
            "value": -0.234375
          },
          {
            "ticks": 134100,
            "time": 97.456336875,
            "value": -0.1875
          },
          {
            "ticks": 134112,
            "time": 97.4650578,
            "value": -0.15625
          },
          {
            "ticks": 134120,
            "time": 97.47087175000001,
            "value": -0.109375
          },
          {
            "ticks": 134132,
            "time": 97.479592675,
            "value": -0.0625
          },
          {
            "ticks": 134148,
            "time": 97.49122057500001,
            "value": 0
          },
          {
            "ticks": 134388,
            "time": 97.66563907500002,
            "value": -0.96875
          },
          {
            "ticks": 134400,
            "time": 97.67436000000001,
            "value": -0.9375
          },
          {
            "ticks": 134408,
            "time": 97.68017395,
            "value": -0.890625
          },
          {
            "ticks": 134420,
            "time": 97.688894875,
            "value": -0.859375
          },
          {
            "ticks": 134428,
            "time": 97.694708825,
            "value": -0.8125
          },
          {
            "ticks": 134436,
            "time": 97.700522775,
            "value": -0.78125
          },
          {
            "ticks": 134448,
            "time": 97.70924370000002,
            "value": -0.734375
          },
          {
            "ticks": 134456,
            "time": 97.71505765,
            "value": -0.703125
          },
          {
            "ticks": 134468,
            "time": 97.723778575,
            "value": -0.65625
          },
          {
            "ticks": 134476,
            "time": 97.72959252500002,
            "value": -0.625
          },
          {
            "ticks": 134484,
            "time": 97.735406475,
            "value": -0.578125
          },
          {
            "ticks": 134496,
            "time": 97.7441274,
            "value": -0.546875
          },
          {
            "ticks": 134504,
            "time": 97.74994134999999,
            "value": -0.5
          },
          {
            "ticks": 134516,
            "time": 97.758662275,
            "value": -0.46875
          },
          {
            "ticks": 134524,
            "time": 97.764476225,
            "value": -0.421875
          },
          {
            "ticks": 134532,
            "time": 97.770290175,
            "value": -0.390625
          },
          {
            "ticks": 134544,
            "time": 97.7790111,
            "value": -0.34375
          },
          {
            "ticks": 134552,
            "time": 97.78482505,
            "value": -0.3125
          },
          {
            "ticks": 134564,
            "time": 97.79354597499999,
            "value": -0.265625
          },
          {
            "ticks": 134572,
            "time": 97.799359925,
            "value": -0.234375
          },
          {
            "ticks": 134580,
            "time": 97.80517387500001,
            "value": -0.1875
          },
          {
            "ticks": 134592,
            "time": 97.8138948,
            "value": -0.15625
          },
          {
            "ticks": 134600,
            "time": 97.81970875,
            "value": -0.109375
          },
          {
            "ticks": 134612,
            "time": 97.828429675,
            "value": -0.0625
          },
          {
            "ticks": 134628,
            "time": 97.84005757500002,
            "value": 0
          },
          {
            "ticks": 134856,
            "time": 98.00575515,
            "value": -0.96875
          },
          {
            "ticks": 134868,
            "time": 98.014476075,
            "value": -0.9375
          },
          {
            "ticks": 134876,
            "time": 98.02029002500001,
            "value": -0.890625
          },
          {
            "ticks": 134888,
            "time": 98.02901095,
            "value": -0.859375
          },
          {
            "ticks": 134896,
            "time": 98.03482490000002,
            "value": -0.8125
          },
          {
            "ticks": 134904,
            "time": 98.04063885000001,
            "value": -0.78125
          },
          {
            "ticks": 134916,
            "time": 98.049359775,
            "value": -0.734375
          },
          {
            "ticks": 134924,
            "time": 98.05517372499999,
            "value": -0.703125
          },
          {
            "ticks": 134936,
            "time": 98.06389465000001,
            "value": -0.65625
          },
          {
            "ticks": 134944,
            "time": 98.0697086,
            "value": -0.625
          },
          {
            "ticks": 134952,
            "time": 98.07552254999999,
            "value": -0.578125
          },
          {
            "ticks": 134964,
            "time": 98.08424347500001,
            "value": -0.546875
          },
          {
            "ticks": 134972,
            "time": 98.090057425,
            "value": -0.5
          },
          {
            "ticks": 134984,
            "time": 98.09877834999999,
            "value": -0.46875
          },
          {
            "ticks": 134992,
            "time": 98.10459230000001,
            "value": -0.421875
          },
          {
            "ticks": 135000,
            "time": 98.11040625,
            "value": -0.390625
          },
          {
            "ticks": 135012,
            "time": 98.11912717499999,
            "value": -0.34375
          },
          {
            "ticks": 135020,
            "time": 98.124941125,
            "value": -0.3125
          },
          {
            "ticks": 135032,
            "time": 98.13366205,
            "value": -0.265625
          },
          {
            "ticks": 135040,
            "time": 98.139476,
            "value": -0.234375
          },
          {
            "ticks": 135048,
            "time": 98.14528995,
            "value": -0.1875
          },
          {
            "ticks": 135060,
            "time": 98.154010875,
            "value": -0.15625
          },
          {
            "ticks": 135068,
            "time": 98.159824825,
            "value": -0.109375
          },
          {
            "ticks": 135080,
            "time": 98.16854575,
            "value": -0.0625
          },
          {
            "ticks": 135096,
            "time": 98.18017365,
            "value": 0
          },
          {
            "ticks": 135336,
            "time": 98.35459215,
            "value": -0.96875
          },
          {
            "ticks": 135348,
            "time": 98.36331307500001,
            "value": -0.9375
          },
          {
            "ticks": 135356,
            "time": 98.36912702500001,
            "value": -0.890625
          },
          {
            "ticks": 135368,
            "time": 98.37784795,
            "value": -0.859375
          },
          {
            "ticks": 135376,
            "time": 98.3836619,
            "value": -0.8125
          },
          {
            "ticks": 135384,
            "time": 98.38947585000001,
            "value": -0.78125
          },
          {
            "ticks": 135396,
            "time": 98.398196775,
            "value": -0.734375
          },
          {
            "ticks": 135404,
            "time": 98.40401072499999,
            "value": -0.703125
          },
          {
            "ticks": 135416,
            "time": 98.41273165000001,
            "value": -0.65625
          },
          {
            "ticks": 135424,
            "time": 98.4185456,
            "value": -0.625
          },
          {
            "ticks": 135432,
            "time": 98.42435954999999,
            "value": -0.578125
          },
          {
            "ticks": 135444,
            "time": 98.43308047500001,
            "value": -0.546875
          },
          {
            "ticks": 135452,
            "time": 98.438894425,
            "value": -0.5
          },
          {
            "ticks": 135464,
            "time": 98.44761534999999,
            "value": -0.46875
          },
          {
            "ticks": 135472,
            "time": 98.45342930000001,
            "value": -0.421875
          },
          {
            "ticks": 135480,
            "time": 98.45924325,
            "value": -0.390625
          },
          {
            "ticks": 135492,
            "time": 98.46796417499999,
            "value": -0.34375
          },
          {
            "ticks": 135500,
            "time": 98.47377812500001,
            "value": -0.3125
          },
          {
            "ticks": 135512,
            "time": 98.48249905,
            "value": -0.265625
          },
          {
            "ticks": 135520,
            "time": 98.48831299999999,
            "value": -0.234375
          },
          {
            "ticks": 135528,
            "time": 98.49412695000001,
            "value": -0.1875
          },
          {
            "ticks": 135540,
            "time": 98.502847875,
            "value": -0.15625
          },
          {
            "ticks": 135548,
            "time": 98.50866182499999,
            "value": -0.109375
          },
          {
            "ticks": 135560,
            "time": 98.51738275000001,
            "value": -0.0625
          },
          {
            "ticks": 135576,
            "time": 98.52901065,
            "value": 0
          },
          {
            "ticks": 135816,
            "time": 98.70342915,
            "value": -0.96875
          },
          {
            "ticks": 135828,
            "time": 98.71215007500001,
            "value": -0.9375
          },
          {
            "ticks": 135836,
            "time": 98.717964025,
            "value": -0.890625
          },
          {
            "ticks": 135848,
            "time": 98.72668494999999,
            "value": -0.859375
          },
          {
            "ticks": 135856,
            "time": 98.73249890000001,
            "value": -0.8125
          },
          {
            "ticks": 135864,
            "time": 98.73831285,
            "value": -0.78125
          },
          {
            "ticks": 135876,
            "time": 98.74703377499999,
            "value": -0.734375
          },
          {
            "ticks": 135884,
            "time": 98.752847725,
            "value": -0.703125
          },
          {
            "ticks": 135896,
            "time": 98.76156865,
            "value": -0.65625
          },
          {
            "ticks": 135904,
            "time": 98.7673826,
            "value": -0.625
          },
          {
            "ticks": 135912,
            "time": 98.77319655,
            "value": -0.578125
          },
          {
            "ticks": 135924,
            "time": 98.781917475,
            "value": -0.546875
          },
          {
            "ticks": 135932,
            "time": 98.787731425,
            "value": -0.5
          },
          {
            "ticks": 135944,
            "time": 98.79645235,
            "value": -0.46875
          },
          {
            "ticks": 135952,
            "time": 98.80226630000001,
            "value": -0.421875
          },
          {
            "ticks": 135960,
            "time": 98.80808025,
            "value": -0.390625
          },
          {
            "ticks": 135972,
            "time": 98.816801175,
            "value": -0.34375
          },
          {
            "ticks": 135980,
            "time": 98.82261512500001,
            "value": -0.3125
          },
          {
            "ticks": 135992,
            "time": 98.83133605,
            "value": -0.265625
          },
          {
            "ticks": 136000,
            "time": 98.83715,
            "value": -0.234375
          },
          {
            "ticks": 136008,
            "time": 98.84296395000001,
            "value": -0.1875
          },
          {
            "ticks": 136012,
            "time": 98.84587092500001,
            "value": -0.109375
          },
          {
            "ticks": 136020,
            "time": 98.851684875,
            "value": -0.15625
          },
          {
            "ticks": 136028,
            "time": 98.857498825,
            "value": -0.109375
          },
          {
            "ticks": 136040,
            "time": 98.86621975000001,
            "value": -0.0625
          },
          {
            "ticks": 136056,
            "time": 98.87784764999999,
            "value": 0
          },
          {
            "ticks": 136076,
            "time": 98.892382525,
            "value": 0
          },
          {
            "ticks": 136308,
            "time": 99.06098707500001,
            "value": -0.96875
          },
          {
            "ticks": 136320,
            "time": 99.069708,
            "value": -0.9375
          },
          {
            "ticks": 136328,
            "time": 99.07552195,
            "value": -0.890625
          },
          {
            "ticks": 136340,
            "time": 99.08424287500002,
            "value": -0.859375
          },
          {
            "ticks": 136348,
            "time": 99.090056825,
            "value": -0.8125
          },
          {
            "ticks": 136356,
            "time": 99.095870775,
            "value": -0.78125
          },
          {
            "ticks": 136368,
            "time": 99.10459170000001,
            "value": -0.734375
          },
          {
            "ticks": 136376,
            "time": 99.11040565,
            "value": -0.703125
          },
          {
            "ticks": 136388,
            "time": 99.119126575,
            "value": -0.65625
          },
          {
            "ticks": 136396,
            "time": 99.12494052500001,
            "value": -0.625
          },
          {
            "ticks": 136404,
            "time": 99.130754475,
            "value": -0.578125
          },
          {
            "ticks": 136416,
            "time": 99.1394754,
            "value": -0.546875
          },
          {
            "ticks": 136424,
            "time": 99.14528935,
            "value": -0.5
          },
          {
            "ticks": 136436,
            "time": 99.154010275,
            "value": -0.46875
          },
          {
            "ticks": 136444,
            "time": 99.159824225,
            "value": -0.421875
          },
          {
            "ticks": 136452,
            "time": 99.165638175,
            "value": -0.390625
          },
          {
            "ticks": 136464,
            "time": 99.1743591,
            "value": -0.34375
          },
          {
            "ticks": 136472,
            "time": 99.18017305000001,
            "value": -0.3125
          },
          {
            "ticks": 136484,
            "time": 99.188893975,
            "value": -0.265625
          },
          {
            "ticks": 136492,
            "time": 99.194707925,
            "value": -0.234375
          },
          {
            "ticks": 136500,
            "time": 99.200521875,
            "value": -0.1875
          },
          {
            "ticks": 136512,
            "time": 99.2092428,
            "value": -0.15625
          },
          {
            "ticks": 136520,
            "time": 99.21505675,
            "value": -0.109375
          },
          {
            "ticks": 136532,
            "time": 99.22377767500001,
            "value": -0.0625
          },
          {
            "ticks": 136548,
            "time": 99.23540557500002,
            "value": 0
          },
          {
            "ticks": 136776,
            "time": 99.40110315,
            "value": -0.96875
          },
          {
            "ticks": 136788,
            "time": 99.40982407500002,
            "value": -0.9375
          },
          {
            "ticks": 136796,
            "time": 99.415638025,
            "value": -0.890625
          },
          {
            "ticks": 136808,
            "time": 99.42435895,
            "value": -0.859375
          },
          {
            "ticks": 136816,
            "time": 99.43017290000002,
            "value": -0.8125
          },
          {
            "ticks": 136824,
            "time": 99.43598685,
            "value": -0.78125
          },
          {
            "ticks": 136836,
            "time": 99.444707775,
            "value": -0.734375
          },
          {
            "ticks": 136844,
            "time": 99.45052172499999,
            "value": -0.703125
          },
          {
            "ticks": 136856,
            "time": 99.45924265000001,
            "value": -0.65625
          },
          {
            "ticks": 136864,
            "time": 99.4650566,
            "value": -0.625
          },
          {
            "ticks": 136872,
            "time": 99.47087055,
            "value": -0.578125
          },
          {
            "ticks": 136884,
            "time": 99.479591475,
            "value": -0.546875
          },
          {
            "ticks": 136892,
            "time": 99.485405425,
            "value": -0.5
          },
          {
            "ticks": 136904,
            "time": 99.49412634999999,
            "value": -0.46875
          },
          {
            "ticks": 136912,
            "time": 99.4999403,
            "value": -0.421875
          },
          {
            "ticks": 136920,
            "time": 99.50575425,
            "value": -0.390625
          },
          {
            "ticks": 136932,
            "time": 99.514475175,
            "value": -0.34375
          },
          {
            "ticks": 136940,
            "time": 99.520289125,
            "value": -0.3125
          },
          {
            "ticks": 136952,
            "time": 99.52901005,
            "value": -0.265625
          },
          {
            "ticks": 136960,
            "time": 99.534824,
            "value": -0.234375
          },
          {
            "ticks": 136968,
            "time": 99.54063795,
            "value": -0.1875
          },
          {
            "ticks": 136980,
            "time": 99.549358875,
            "value": -0.15625
          },
          {
            "ticks": 136988,
            "time": 99.555172825,
            "value": -0.109375
          },
          {
            "ticks": 137000,
            "time": 99.56389375,
            "value": -0.0625
          },
          {
            "ticks": 137016,
            "time": 99.57552165,
            "value": 0
          },
          {
            "ticks": 137256,
            "time": 99.74994015,
            "value": -0.96875
          },
          {
            "ticks": 137268,
            "time": 99.758661075,
            "value": -0.9375
          },
          {
            "ticks": 137276,
            "time": 99.76447502500001,
            "value": -0.890625
          },
          {
            "ticks": 137288,
            "time": 99.77319595,
            "value": -0.859375
          },
          {
            "ticks": 137296,
            "time": 99.7790099,
            "value": -0.8125
          },
          {
            "ticks": 137304,
            "time": 99.78482385000001,
            "value": -0.78125
          },
          {
            "ticks": 137316,
            "time": 99.793544775,
            "value": -0.734375
          },
          {
            "ticks": 137324,
            "time": 99.79935872499999,
            "value": -0.703125
          },
          {
            "ticks": 137336,
            "time": 99.80807965000001,
            "value": -0.65625
          },
          {
            "ticks": 137344,
            "time": 99.8138936,
            "value": -0.625
          },
          {
            "ticks": 137352,
            "time": 99.81970754999999,
            "value": -0.578125
          },
          {
            "ticks": 137364,
            "time": 99.82842847500001,
            "value": -0.546875
          },
          {
            "ticks": 137372,
            "time": 99.834242425,
            "value": -0.5
          },
          {
            "ticks": 137384,
            "time": 99.84296334999999,
            "value": -0.46875
          },
          {
            "ticks": 137392,
            "time": 99.84877730000001,
            "value": -0.421875
          },
          {
            "ticks": 137400,
            "time": 99.85459125,
            "value": -0.390625
          },
          {
            "ticks": 137412,
            "time": 99.86331217499999,
            "value": -0.34375
          },
          {
            "ticks": 137420,
            "time": 99.86912612500001,
            "value": -0.3125
          },
          {
            "ticks": 137432,
            "time": 99.87784705,
            "value": -0.265625
          },
          {
            "ticks": 137440,
            "time": 99.88366099999999,
            "value": -0.234375
          },
          {
            "ticks": 137448,
            "time": 99.88947495000001,
            "value": -0.1875
          },
          {
            "ticks": 137460,
            "time": 99.898195875,
            "value": -0.15625
          },
          {
            "ticks": 137468,
            "time": 99.904009825,
            "value": -0.109375
          },
          {
            "ticks": 137480,
            "time": 99.91273075000001,
            "value": -0.0625
          },
          {
            "ticks": 137496,
            "time": 99.92435865,
            "value": 0
          },
          {
            "ticks": 137736,
            "time": 100.09877715,
            "value": -0.96875
          },
          {
            "ticks": 137748,
            "time": 100.10749807500001,
            "value": -0.9375
          },
          {
            "ticks": 137756,
            "time": 100.113312025,
            "value": -0.890625
          },
          {
            "ticks": 137768,
            "time": 100.12203294999999,
            "value": -0.859375
          },
          {
            "ticks": 137776,
            "time": 100.12784690000001,
            "value": -0.8125
          },
          {
            "ticks": 137784,
            "time": 100.13366085000001,
            "value": -0.78125
          },
          {
            "ticks": 137796,
            "time": 100.142381775,
            "value": -0.734375
          },
          {
            "ticks": 137804,
            "time": 100.148195725,
            "value": -0.703125
          },
          {
            "ticks": 137816,
            "time": 100.15691665,
            "value": -0.65625
          },
          {
            "ticks": 137824,
            "time": 100.1627306,
            "value": -0.625
          },
          {
            "ticks": 137832,
            "time": 100.16854455,
            "value": -0.578125
          },
          {
            "ticks": 137844,
            "time": 100.17726547500001,
            "value": -0.546875
          },
          {
            "ticks": 137852,
            "time": 100.183079425,
            "value": -0.5
          },
          {
            "ticks": 137864,
            "time": 100.19180035,
            "value": -0.46875
          },
          {
            "ticks": 137872,
            "time": 100.19761430000001,
            "value": -0.421875
          },
          {
            "ticks": 137880,
            "time": 100.20342825,
            "value": -0.390625
          },
          {
            "ticks": 137892,
            "time": 100.212149175,
            "value": -0.34375
          },
          {
            "ticks": 137900,
            "time": 100.21796312500001,
            "value": -0.3125
          },
          {
            "ticks": 137912,
            "time": 100.22668405,
            "value": -0.265625
          },
          {
            "ticks": 137920,
            "time": 100.23249799999999,
            "value": -0.234375
          },
          {
            "ticks": 137928,
            "time": 100.23831195000001,
            "value": -0.1875
          },
          {
            "ticks": 137940,
            "time": 100.247032875,
            "value": -0.15625
          },
          {
            "ticks": 137948,
            "time": 100.25284682499999,
            "value": -0.109375
          },
          {
            "ticks": 137960,
            "time": 100.26156775000001,
            "value": -0.0625
          },
          {
            "ticks": 137976,
            "time": 100.27319565,
            "value": 0
          },
          {
            "ticks": 138004,
            "time": 100.293544475,
            "value": -0.015625
          },
          {
            "ticks": 138012,
            "time": 100.299358425,
            "value": -0.046875
          },
          {
            "ticks": 138020,
            "time": 100.30517237500001,
            "value": -0.078125
          },
          {
            "ticks": 138032,
            "time": 100.3138933,
            "value": -0.125
          },
          {
            "ticks": 138040,
            "time": 100.31970725,
            "value": -0.15625
          },
          {
            "ticks": 138052,
            "time": 100.32842817500001,
            "value": -0.203125
          },
          {
            "ticks": 138060,
            "time": 100.334242125,
            "value": -0.234375
          },
          {
            "ticks": 138068,
            "time": 100.34005607499999,
            "value": -0.265625
          },
          {
            "ticks": 138080,
            "time": 100.34877700000001,
            "value": -0.3125
          },
          {
            "ticks": 138088,
            "time": 100.35459095,
            "value": -0.34375
          },
          {
            "ticks": 138100,
            "time": 100.363311875,
            "value": -0.390625
          },
          {
            "ticks": 138108,
            "time": 100.36912582500001,
            "value": -0.421875
          },
          {
            "ticks": 138116,
            "time": 100.374939775,
            "value": -0.453125
          },
          {
            "ticks": 138128,
            "time": 100.3836607,
            "value": -0.5
          },
          {
            "ticks": 138136,
            "time": 100.38947465000001,
            "value": -0.53125
          },
          {
            "ticks": 138148,
            "time": 100.398195575,
            "value": -0.578125
          },
          {
            "ticks": 138156,
            "time": 100.40400952499999,
            "value": -0.609375
          },
          {
            "ticks": 138164,
            "time": 100.409823475,
            "value": -0.640625
          },
          {
            "ticks": 138176,
            "time": 100.4185444,
            "value": -0.6875
          },
          {
            "ticks": 138184,
            "time": 100.42435835,
            "value": -0.71875
          },
          {
            "ticks": 138196,
            "time": 100.43307927500001,
            "value": -0.765625
          },
          {
            "ticks": 138204,
            "time": 100.438893225,
            "value": -0.796875
          },
          {
            "ticks": 138212,
            "time": 100.444707175,
            "value": -0.828125
          },
          {
            "ticks": 138224,
            "time": 100.4534281,
            "value": -0.875
          },
          {
            "ticks": 138232,
            "time": 100.45924205000001,
            "value": -0.90625
          },
          {
            "ticks": 138244,
            "time": 100.467962975,
            "value": -0.953125
          },
          {
            "ticks": 138248,
            "time": 100.47086995,
            "value": -0.859375
          },
          {
            "ticks": 138256,
            "time": 100.47668390000001,
            "value": -0.8125
          },
          {
            "ticks": 138264,
            "time": 100.48249785,
            "value": -0.78125
          },
          {
            "ticks": 138276,
            "time": 100.491218775,
            "value": -0.734375
          },
          {
            "ticks": 138284,
            "time": 100.497032725,
            "value": -0.703125
          },
          {
            "ticks": 138296,
            "time": 100.50575365,
            "value": -0.65625
          },
          {
            "ticks": 138304,
            "time": 100.5115676,
            "value": -0.625
          },
          {
            "ticks": 138312,
            "time": 100.51738155,
            "value": -0.578125
          },
          {
            "ticks": 138324,
            "time": 100.526102475,
            "value": -0.546875
          },
          {
            "ticks": 138332,
            "time": 100.531916425,
            "value": -0.5
          },
          {
            "ticks": 138344,
            "time": 100.54063735,
            "value": -0.46875
          },
          {
            "ticks": 138352,
            "time": 100.5464513,
            "value": -0.421875
          },
          {
            "ticks": 138360,
            "time": 100.55226525,
            "value": -0.390625
          },
          {
            "ticks": 138372,
            "time": 100.560986175,
            "value": -0.34375
          },
          {
            "ticks": 138380,
            "time": 100.56680012500001,
            "value": -0.3125
          },
          {
            "ticks": 138392,
            "time": 100.57552105,
            "value": -0.265625
          },
          {
            "ticks": 138400,
            "time": 100.581335,
            "value": -0.234375
          },
          {
            "ticks": 138408,
            "time": 100.58714895000001,
            "value": -0.1875
          },
          {
            "ticks": 138420,
            "time": 100.595869875,
            "value": -0.15625
          },
          {
            "ticks": 138428,
            "time": 100.601683825,
            "value": -0.109375
          },
          {
            "ticks": 138440,
            "time": 100.61040475000001,
            "value": -0.0625
          },
          {
            "ticks": 138456,
            "time": 100.62203265,
            "value": 0
          },
          {
            "ticks": 138684,
            "time": 100.787730225,
            "value": -0.96875
          },
          {
            "ticks": 138696,
            "time": 100.79645115,
            "value": -0.9375
          },
          {
            "ticks": 138704,
            "time": 100.8022651,
            "value": -0.890625
          },
          {
            "ticks": 138716,
            "time": 100.810986025,
            "value": -0.859375
          },
          {
            "ticks": 138724,
            "time": 100.816799975,
            "value": -0.8125
          },
          {
            "ticks": 138732,
            "time": 100.822613925,
            "value": -0.78125
          },
          {
            "ticks": 138744,
            "time": 100.83133485,
            "value": -0.734375
          },
          {
            "ticks": 138752,
            "time": 100.8371488,
            "value": -0.703125
          },
          {
            "ticks": 138764,
            "time": 100.845869725,
            "value": -0.65625
          },
          {
            "ticks": 138772,
            "time": 100.851683675,
            "value": -0.625
          },
          {
            "ticks": 138780,
            "time": 100.85749762500001,
            "value": -0.578125
          },
          {
            "ticks": 138792,
            "time": 100.86621855,
            "value": -0.546875
          },
          {
            "ticks": 138800,
            "time": 100.8720325,
            "value": -0.5
          },
          {
            "ticks": 138812,
            "time": 100.880753425,
            "value": -0.46875
          },
          {
            "ticks": 138820,
            "time": 100.886567375,
            "value": -0.421875
          },
          {
            "ticks": 138828,
            "time": 100.89238132500002,
            "value": -0.390625
          },
          {
            "ticks": 138840,
            "time": 100.90110225000001,
            "value": -0.34375
          },
          {
            "ticks": 138848,
            "time": 100.9069162,
            "value": -0.3125
          },
          {
            "ticks": 138860,
            "time": 100.915637125,
            "value": -0.265625
          },
          {
            "ticks": 138868,
            "time": 100.92145107500001,
            "value": -0.234375
          },
          {
            "ticks": 138876,
            "time": 100.927265025,
            "value": -0.1875
          },
          {
            "ticks": 138888,
            "time": 100.93598595000002,
            "value": -0.15625
          },
          {
            "ticks": 138896,
            "time": 100.9417999,
            "value": -0.109375
          },
          {
            "ticks": 138908,
            "time": 100.950520825,
            "value": -0.0625
          },
          {
            "ticks": 138924,
            "time": 100.962148725,
            "value": 0
          },
          {
            "ticks": 139164,
            "time": 101.13656722500001,
            "value": -0.96875
          },
          {
            "ticks": 139176,
            "time": 101.14528815,
            "value": -0.9375
          },
          {
            "ticks": 139184,
            "time": 101.15110209999999,
            "value": -0.890625
          },
          {
            "ticks": 139196,
            "time": 101.15982302500001,
            "value": -0.859375
          },
          {
            "ticks": 139204,
            "time": 101.165636975,
            "value": -0.8125
          },
          {
            "ticks": 139212,
            "time": 101.17145092499999,
            "value": -0.78125
          },
          {
            "ticks": 139224,
            "time": 101.18017185000001,
            "value": -0.734375
          },
          {
            "ticks": 139232,
            "time": 101.1859858,
            "value": -0.703125
          },
          {
            "ticks": 139244,
            "time": 101.19470672499999,
            "value": -0.65625
          },
          {
            "ticks": 139252,
            "time": 101.200520675,
            "value": -0.625
          },
          {
            "ticks": 139260,
            "time": 101.206334625,
            "value": -0.578125
          },
          {
            "ticks": 139272,
            "time": 101.21505554999999,
            "value": -0.546875
          },
          {
            "ticks": 139280,
            "time": 101.2208695,
            "value": -0.5
          },
          {
            "ticks": 139292,
            "time": 101.229590425,
            "value": -0.46875
          },
          {
            "ticks": 139300,
            "time": 101.235404375,
            "value": -0.421875
          },
          {
            "ticks": 139308,
            "time": 101.241218325,
            "value": -0.390625
          },
          {
            "ticks": 139320,
            "time": 101.24993925,
            "value": -0.34375
          },
          {
            "ticks": 139328,
            "time": 101.2557532,
            "value": -0.3125
          },
          {
            "ticks": 139340,
            "time": 101.264474125,
            "value": -0.265625
          },
          {
            "ticks": 139348,
            "time": 101.27028807500001,
            "value": -0.234375
          },
          {
            "ticks": 139356,
            "time": 101.276102025,
            "value": -0.1875
          },
          {
            "ticks": 139368,
            "time": 101.28482295,
            "value": -0.15625
          },
          {
            "ticks": 139376,
            "time": 101.29063690000001,
            "value": -0.109375
          },
          {
            "ticks": 139388,
            "time": 101.299357825,
            "value": -0.0625
          },
          {
            "ticks": 139404,
            "time": 101.31098572500001,
            "value": 0
          },
          {
            "ticks": 139644,
            "time": 101.48540422500001,
            "value": -0.96875
          },
          {
            "ticks": 139656,
            "time": 101.49412515,
            "value": -0.9375
          },
          {
            "ticks": 139664,
            "time": 101.49993909999999,
            "value": -0.890625
          },
          {
            "ticks": 139676,
            "time": 101.50866002500001,
            "value": -0.859375
          },
          {
            "ticks": 139684,
            "time": 101.514473975,
            "value": -0.8125
          },
          {
            "ticks": 139692,
            "time": 101.52028792499999,
            "value": -0.78125
          },
          {
            "ticks": 139704,
            "time": 101.52900885000001,
            "value": -0.734375
          },
          {
            "ticks": 139712,
            "time": 101.5348228,
            "value": -0.703125
          },
          {
            "ticks": 139724,
            "time": 101.54354372499999,
            "value": -0.65625
          },
          {
            "ticks": 139732,
            "time": 101.54935767500001,
            "value": -0.625
          },
          {
            "ticks": 139740,
            "time": 101.555171625,
            "value": -0.578125
          },
          {
            "ticks": 139752,
            "time": 101.56389254999999,
            "value": -0.546875
          },
          {
            "ticks": 139760,
            "time": 101.56970650000001,
            "value": -0.5
          },
          {
            "ticks": 139772,
            "time": 101.578427425,
            "value": -0.46875
          },
          {
            "ticks": 139780,
            "time": 101.58424137499999,
            "value": -0.421875
          },
          {
            "ticks": 139788,
            "time": 101.59005532500001,
            "value": -0.390625
          },
          {
            "ticks": 139800,
            "time": 101.59877625,
            "value": -0.34375
          },
          {
            "ticks": 139808,
            "time": 101.6045902,
            "value": -0.3125
          },
          {
            "ticks": 139820,
            "time": 101.61331112500001,
            "value": -0.265625
          },
          {
            "ticks": 139828,
            "time": 101.619125075,
            "value": -0.234375
          },
          {
            "ticks": 139836,
            "time": 101.624939025,
            "value": -0.1875
          },
          {
            "ticks": 139840,
            "time": 101.62784599999999,
            "value": -0.109375
          },
          {
            "ticks": 139848,
            "time": 101.63365995000001,
            "value": -0.15625
          },
          {
            "ticks": 139856,
            "time": 101.6394739,
            "value": -0.109375
          },
          {
            "ticks": 139868,
            "time": 101.64819482499999,
            "value": -0.0625
          },
          {
            "ticks": 139884,
            "time": 101.65982272500001,
            "value": 0
          },
          {
            "ticks": 139904,
            "time": 101.6743576,
            "value": 0
          },
          {
            "ticks": 140160,
            "time": 101.860404,
            "value": -0.96875
          },
          {
            "ticks": 140172,
            "time": 101.869124925,
            "value": -0.9375
          },
          {
            "ticks": 140180,
            "time": 101.87493887500001,
            "value": -0.890625
          },
          {
            "ticks": 140192,
            "time": 101.8836598,
            "value": -0.859375
          },
          {
            "ticks": 140200,
            "time": 101.88947375,
            "value": -0.8125
          },
          {
            "ticks": 140208,
            "time": 101.89528770000001,
            "value": -0.78125
          },
          {
            "ticks": 140220,
            "time": 101.904008625,
            "value": -0.734375
          },
          {
            "ticks": 140228,
            "time": 101.90982257499999,
            "value": -0.703125
          },
          {
            "ticks": 140240,
            "time": 101.91854350000001,
            "value": -0.65625
          },
          {
            "ticks": 140248,
            "time": 101.92435745,
            "value": -0.625
          },
          {
            "ticks": 140256,
            "time": 101.93017139999999,
            "value": -0.578125
          },
          {
            "ticks": 140268,
            "time": 101.93889232500001,
            "value": -0.546875
          },
          {
            "ticks": 140276,
            "time": 101.944706275,
            "value": -0.5
          },
          {
            "ticks": 140288,
            "time": 101.9534272,
            "value": -0.46875
          },
          {
            "ticks": 140296,
            "time": 101.95924115000001,
            "value": -0.421875
          },
          {
            "ticks": 140304,
            "time": 101.9650551,
            "value": -0.390625
          },
          {
            "ticks": 140316,
            "time": 101.97377602499999,
            "value": -0.34375
          },
          {
            "ticks": 140324,
            "time": 101.979589975,
            "value": -0.3125
          },
          {
            "ticks": 140336,
            "time": 101.9883109,
            "value": -0.265625
          },
          {
            "ticks": 140344,
            "time": 101.99412485,
            "value": -0.234375
          },
          {
            "ticks": 140352,
            "time": 101.9999388,
            "value": -0.1875
          },
          {
            "ticks": 140364,
            "time": 102.008659725,
            "value": -0.15625
          },
          {
            "ticks": 140372,
            "time": 102.014473675,
            "value": -0.109375
          },
          {
            "ticks": 140384,
            "time": 102.0231946,
            "value": -0.0625
          },
          {
            "ticks": 140400,
            "time": 102.0348225,
            "value": 0
          },
          {
            "ticks": 140628,
            "time": 102.20052007500001,
            "value": -0.96875
          },
          {
            "ticks": 140640,
            "time": 102.209241,
            "value": -0.9375
          },
          {
            "ticks": 140648,
            "time": 102.21505495,
            "value": -0.890625
          },
          {
            "ticks": 140660,
            "time": 102.22377587500002,
            "value": -0.859375
          },
          {
            "ticks": 140668,
            "time": 102.229589825,
            "value": -0.8125
          },
          {
            "ticks": 140676,
            "time": 102.235403775,
            "value": -0.78125
          },
          {
            "ticks": 140688,
            "time": 102.24412470000001,
            "value": -0.734375
          },
          {
            "ticks": 140696,
            "time": 102.24993865,
            "value": -0.703125
          },
          {
            "ticks": 140708,
            "time": 102.258659575,
            "value": -0.65625
          },
          {
            "ticks": 140716,
            "time": 102.26447352500001,
            "value": -0.625
          },
          {
            "ticks": 140724,
            "time": 102.270287475,
            "value": -0.578125
          },
          {
            "ticks": 140736,
            "time": 102.2790084,
            "value": -0.546875
          },
          {
            "ticks": 140744,
            "time": 102.28482235,
            "value": -0.5
          },
          {
            "ticks": 140756,
            "time": 102.293543275,
            "value": -0.46875
          },
          {
            "ticks": 140764,
            "time": 102.299357225,
            "value": -0.421875
          },
          {
            "ticks": 140772,
            "time": 102.305171175,
            "value": -0.390625
          },
          {
            "ticks": 140784,
            "time": 102.3138921,
            "value": -0.34375
          },
          {
            "ticks": 140792,
            "time": 102.31970605000001,
            "value": -0.3125
          },
          {
            "ticks": 140804,
            "time": 102.328426975,
            "value": -0.265625
          },
          {
            "ticks": 140812,
            "time": 102.334240925,
            "value": -0.234375
          },
          {
            "ticks": 140820,
            "time": 102.340054875,
            "value": -0.1875
          },
          {
            "ticks": 140832,
            "time": 102.3487758,
            "value": -0.15625
          },
          {
            "ticks": 140840,
            "time": 102.35458975,
            "value": -0.109375
          },
          {
            "ticks": 140852,
            "time": 102.36331067500001,
            "value": -0.0625
          },
          {
            "ticks": 140868,
            "time": 102.37493857500002,
            "value": 0
          },
          {
            "ticks": 141108,
            "time": 102.54935707500002,
            "value": -0.96875
          },
          {
            "ticks": 141120,
            "time": 102.55807800000001,
            "value": -0.9375
          },
          {
            "ticks": 141128,
            "time": 102.56389195,
            "value": -0.890625
          },
          {
            "ticks": 141140,
            "time": 102.572612875,
            "value": -0.859375
          },
          {
            "ticks": 141148,
            "time": 102.57842682500001,
            "value": -0.8125
          },
          {
            "ticks": 141156,
            "time": 102.584240775,
            "value": -0.78125
          },
          {
            "ticks": 141168,
            "time": 102.5929617,
            "value": -0.734375
          },
          {
            "ticks": 141176,
            "time": 102.59877565000001,
            "value": -0.703125
          },
          {
            "ticks": 141188,
            "time": 102.607496575,
            "value": -0.65625
          },
          {
            "ticks": 141196,
            "time": 102.61331052500002,
            "value": -0.625
          },
          {
            "ticks": 141204,
            "time": 102.619124475,
            "value": -0.578125
          },
          {
            "ticks": 141216,
            "time": 102.6278454,
            "value": -0.546875
          },
          {
            "ticks": 141224,
            "time": 102.63365934999999,
            "value": -0.5
          },
          {
            "ticks": 141236,
            "time": 102.64238027500001,
            "value": -0.46875
          },
          {
            "ticks": 141244,
            "time": 102.648194225,
            "value": -0.421875
          },
          {
            "ticks": 141252,
            "time": 102.654008175,
            "value": -0.390625
          },
          {
            "ticks": 141264,
            "time": 102.6627291,
            "value": -0.34375
          },
          {
            "ticks": 141272,
            "time": 102.66854305,
            "value": -0.3125
          },
          {
            "ticks": 141284,
            "time": 102.67726397499999,
            "value": -0.265625
          },
          {
            "ticks": 141292,
            "time": 102.683077925,
            "value": -0.234375
          },
          {
            "ticks": 141300,
            "time": 102.688891875,
            "value": -0.1875
          },
          {
            "ticks": 141312,
            "time": 102.69761279999999,
            "value": -0.15625
          },
          {
            "ticks": 141320,
            "time": 102.70342675,
            "value": -0.109375
          },
          {
            "ticks": 141332,
            "time": 102.712147675,
            "value": -0.0625
          },
          {
            "ticks": 141348,
            "time": 102.723775575,
            "value": 0
          },
          {
            "ticks": 141588,
            "time": 102.898194075,
            "value": -0.96875
          },
          {
            "ticks": 141600,
            "time": 102.906915,
            "value": -0.9375
          },
          {
            "ticks": 141608,
            "time": 102.91272895,
            "value": -0.890625
          },
          {
            "ticks": 141620,
            "time": 102.92144987500001,
            "value": -0.859375
          },
          {
            "ticks": 141628,
            "time": 102.927263825,
            "value": -0.8125
          },
          {
            "ticks": 141636,
            "time": 102.933077775,
            "value": -0.78125
          },
          {
            "ticks": 141648,
            "time": 102.9417987,
            "value": -0.734375
          },
          {
            "ticks": 141656,
            "time": 102.94761265000001,
            "value": -0.703125
          },
          {
            "ticks": 141668,
            "time": 102.956333575,
            "value": -0.65625
          },
          {
            "ticks": 141676,
            "time": 102.962147525,
            "value": -0.625
          },
          {
            "ticks": 141684,
            "time": 102.96796147500001,
            "value": -0.578125
          },
          {
            "ticks": 141696,
            "time": 102.9766824,
            "value": -0.546875
          },
          {
            "ticks": 141704,
            "time": 102.98249634999999,
            "value": -0.5
          },
          {
            "ticks": 141716,
            "time": 102.99121727500001,
            "value": -0.46875
          },
          {
            "ticks": 141724,
            "time": 102.997031225,
            "value": -0.421875
          },
          {
            "ticks": 141732,
            "time": 103.00284517499999,
            "value": -0.390625
          },
          {
            "ticks": 141744,
            "time": 103.01156610000001,
            "value": -0.34375
          },
          {
            "ticks": 141752,
            "time": 103.01738005,
            "value": -0.3125
          },
          {
            "ticks": 141764,
            "time": 103.02610097499999,
            "value": -0.265625
          },
          {
            "ticks": 141772,
            "time": 103.03191492500001,
            "value": -0.234375
          },
          {
            "ticks": 141780,
            "time": 103.037728875,
            "value": -0.1875
          },
          {
            "ticks": 141792,
            "time": 103.04644979999999,
            "value": -0.15625
          },
          {
            "ticks": 141800,
            "time": 103.05226375000001,
            "value": -0.109375
          },
          {
            "ticks": 141812,
            "time": 103.060984675,
            "value": -0.0625
          },
          {
            "ticks": 141828,
            "time": 103.07261257500001,
            "value": 0
          },
          {
            "ticks": 142068,
            "time": 103.24703107500001,
            "value": -0.96875
          },
          {
            "ticks": 142080,
            "time": 103.255752,
            "value": -0.9375
          },
          {
            "ticks": 142088,
            "time": 103.26156594999999,
            "value": -0.890625
          },
          {
            "ticks": 142100,
            "time": 103.27028687500001,
            "value": -0.859375
          },
          {
            "ticks": 142108,
            "time": 103.276100825,
            "value": -0.8125
          },
          {
            "ticks": 142116,
            "time": 103.281914775,
            "value": -0.78125
          },
          {
            "ticks": 142128,
            "time": 103.29063570000001,
            "value": -0.734375
          },
          {
            "ticks": 142136,
            "time": 103.29644965,
            "value": -0.703125
          },
          {
            "ticks": 142148,
            "time": 103.30517057499999,
            "value": -0.65625
          },
          {
            "ticks": 142156,
            "time": 103.31098452500001,
            "value": -0.625
          },
          {
            "ticks": 142164,
            "time": 103.31679847500001,
            "value": -0.578125
          },
          {
            "ticks": 142176,
            "time": 103.3255194,
            "value": -0.546875
          },
          {
            "ticks": 142184,
            "time": 103.33133335,
            "value": -0.5
          },
          {
            "ticks": 142196,
            "time": 103.340054275,
            "value": -0.46875
          },
          {
            "ticks": 142204,
            "time": 103.345868225,
            "value": -0.421875
          },
          {
            "ticks": 142212,
            "time": 103.351682175,
            "value": -0.390625
          },
          {
            "ticks": 142224,
            "time": 103.36040310000001,
            "value": -0.34375
          },
          {
            "ticks": 142232,
            "time": 103.36621705,
            "value": -0.3125
          },
          {
            "ticks": 142244,
            "time": 103.374937975,
            "value": -0.265625
          },
          {
            "ticks": 142252,
            "time": 103.38075192500001,
            "value": -0.234375
          },
          {
            "ticks": 142260,
            "time": 103.386565875,
            "value": -0.1875
          },
          {
            "ticks": 142272,
            "time": 103.3952868,
            "value": -0.15625
          },
          {
            "ticks": 142280,
            "time": 103.40110075000001,
            "value": -0.109375
          },
          {
            "ticks": 142292,
            "time": 103.409821675,
            "value": -0.0625
          },
          {
            "ticks": 142308,
            "time": 103.42144957500001,
            "value": 0
          },
          {
            "ticks": 142536,
            "time": 103.58714714999999,
            "value": -0.96875
          },
          {
            "ticks": 142548,
            "time": 103.59586807500001,
            "value": -0.9375
          },
          {
            "ticks": 142556,
            "time": 103.601682025,
            "value": -0.890625
          },
          {
            "ticks": 142568,
            "time": 103.61040295,
            "value": -0.859375
          },
          {
            "ticks": 142576,
            "time": 103.61621690000001,
            "value": -0.8125
          },
          {
            "ticks": 142584,
            "time": 103.62203085,
            "value": -0.78125
          },
          {
            "ticks": 142596,
            "time": 103.630751775,
            "value": -0.734375
          },
          {
            "ticks": 142604,
            "time": 103.636565725,
            "value": -0.703125
          },
          {
            "ticks": 142616,
            "time": 103.64528665,
            "value": -0.65625
          },
          {
            "ticks": 142624,
            "time": 103.6511006,
            "value": -0.625
          },
          {
            "ticks": 142632,
            "time": 103.65691455,
            "value": -0.578125
          },
          {
            "ticks": 142644,
            "time": 103.665635475,
            "value": -0.546875
          },
          {
            "ticks": 142652,
            "time": 103.671449425,
            "value": -0.5
          },
          {
            "ticks": 142664,
            "time": 103.68017035,
            "value": -0.46875
          },
          {
            "ticks": 142672,
            "time": 103.6859843,
            "value": -0.421875
          },
          {
            "ticks": 142680,
            "time": 103.69179825,
            "value": -0.390625
          },
          {
            "ticks": 142692,
            "time": 103.700519175,
            "value": -0.34375
          },
          {
            "ticks": 142700,
            "time": 103.70633312500001,
            "value": -0.3125
          },
          {
            "ticks": 142712,
            "time": 103.71505405,
            "value": -0.265625
          },
          {
            "ticks": 142720,
            "time": 103.720868,
            "value": -0.234375
          },
          {
            "ticks": 142728,
            "time": 103.72668195000001,
            "value": -0.1875
          },
          {
            "ticks": 142740,
            "time": 103.735402875,
            "value": -0.15625
          },
          {
            "ticks": 142748,
            "time": 103.741216825,
            "value": -0.109375
          },
          {
            "ticks": 142760,
            "time": 103.74993775000002,
            "value": -0.0625
          },
          {
            "ticks": 142776,
            "time": 103.76156565,
            "value": 0
          },
          {
            "ticks": 143016,
            "time": 103.93598415,
            "value": -0.96875
          },
          {
            "ticks": 143028,
            "time": 103.94470507500002,
            "value": -0.9375
          },
          {
            "ticks": 143036,
            "time": 103.950519025,
            "value": -0.890625
          },
          {
            "ticks": 143048,
            "time": 103.95923995,
            "value": -0.859375
          },
          {
            "ticks": 143056,
            "time": 103.96505390000002,
            "value": -0.8125
          },
          {
            "ticks": 143064,
            "time": 103.97086785,
            "value": -0.78125
          },
          {
            "ticks": 143076,
            "time": 103.979588775,
            "value": -0.734375
          },
          {
            "ticks": 143084,
            "time": 103.985402725,
            "value": -0.703125
          },
          {
            "ticks": 143096,
            "time": 103.99412365,
            "value": -0.65625
          },
          {
            "ticks": 143104,
            "time": 103.9999376,
            "value": -0.625
          },
          {
            "ticks": 143112,
            "time": 104.00575155,
            "value": -0.578125
          },
          {
            "ticks": 143124,
            "time": 104.014472475,
            "value": -0.546875
          },
          {
            "ticks": 143132,
            "time": 104.020286425,
            "value": -0.5
          },
          {
            "ticks": 143144,
            "time": 104.02900734999999,
            "value": -0.46875
          },
          {
            "ticks": 143152,
            "time": 104.0348213,
            "value": -0.421875
          },
          {
            "ticks": 143160,
            "time": 104.04063525000001,
            "value": -0.390625
          },
          {
            "ticks": 143172,
            "time": 104.049356175,
            "value": -0.34375
          },
          {
            "ticks": 143180,
            "time": 104.055170125,
            "value": -0.3125
          },
          {
            "ticks": 143192,
            "time": 104.06389105,
            "value": -0.265625
          },
          {
            "ticks": 143200,
            "time": 104.069705,
            "value": -0.234375
          },
          {
            "ticks": 143208,
            "time": 104.07551895000002,
            "value": -0.1875
          },
          {
            "ticks": 143220,
            "time": 104.08423987500001,
            "value": -0.15625
          },
          {
            "ticks": 143228,
            "time": 104.090053825,
            "value": -0.109375
          },
          {
            "ticks": 143240,
            "time": 104.09877475,
            "value": -0.0625
          },
          {
            "ticks": 143256,
            "time": 104.11040265,
            "value": 0
          },
          {
            "ticks": 143496,
            "time": 104.28482115,
            "value": -0.96875
          },
          {
            "ticks": 143508,
            "time": 104.293542075,
            "value": -0.9375
          },
          {
            "ticks": 143516,
            "time": 104.29935602500001,
            "value": -0.890625
          },
          {
            "ticks": 143528,
            "time": 104.30807695,
            "value": -0.859375
          },
          {
            "ticks": 143536,
            "time": 104.31389090000002,
            "value": -0.8125
          },
          {
            "ticks": 143544,
            "time": 104.31970485000001,
            "value": -0.78125
          },
          {
            "ticks": 143556,
            "time": 104.328425775,
            "value": -0.734375
          },
          {
            "ticks": 143564,
            "time": 104.33423972499999,
            "value": -0.703125
          },
          {
            "ticks": 143576,
            "time": 104.34296065000001,
            "value": -0.65625
          },
          {
            "ticks": 143584,
            "time": 104.3487746,
            "value": -0.625
          },
          {
            "ticks": 143592,
            "time": 104.35458854999999,
            "value": -0.578125
          },
          {
            "ticks": 143604,
            "time": 104.36330947500001,
            "value": -0.546875
          },
          {
            "ticks": 143612,
            "time": 104.369123425,
            "value": -0.5
          },
          {
            "ticks": 143624,
            "time": 104.37784434999999,
            "value": -0.46875
          },
          {
            "ticks": 143632,
            "time": 104.38365830000001,
            "value": -0.421875
          },
          {
            "ticks": 143640,
            "time": 104.38947225,
            "value": -0.390625
          },
          {
            "ticks": 143652,
            "time": 104.39819317499999,
            "value": -0.34375
          },
          {
            "ticks": 143660,
            "time": 104.404007125,
            "value": -0.3125
          },
          {
            "ticks": 143672,
            "time": 104.41272805,
            "value": -0.265625
          },
          {
            "ticks": 143680,
            "time": 104.418542,
            "value": -0.234375
          },
          {
            "ticks": 143688,
            "time": 104.42435595,
            "value": -0.1875
          },
          {
            "ticks": 143692,
            "time": 104.42726292500001,
            "value": -0.109375
          },
          {
            "ticks": 143700,
            "time": 104.433076875,
            "value": -0.15625
          },
          {
            "ticks": 143708,
            "time": 104.438890825,
            "value": -0.109375
          },
          {
            "ticks": 143720,
            "time": 104.44761175000001,
            "value": -0.0625
          },
          {
            "ticks": 143736,
            "time": 104.45923965,
            "value": 0
          },
          {
            "ticks": 143756,
            "time": 104.47377452500001,
            "value": 0
          },
          {
            "ticks": 143988,
            "time": 104.64237907500001,
            "value": -0.96875
          },
          {
            "ticks": 144000,
            "time": 104.6511,
            "value": -0.9375
          },
          {
            "ticks": 144008,
            "time": 104.65691395,
            "value": -0.890625
          },
          {
            "ticks": 144020,
            "time": 104.66563487500001,
            "value": -0.859375
          },
          {
            "ticks": 144028,
            "time": 104.671448825,
            "value": -0.8125
          },
          {
            "ticks": 144036,
            "time": 104.677262775,
            "value": -0.78125
          },
          {
            "ticks": 144048,
            "time": 104.68598370000001,
            "value": -0.734375
          },
          {
            "ticks": 144056,
            "time": 104.69179765,
            "value": -0.703125
          },
          {
            "ticks": 144068,
            "time": 104.700518575,
            "value": -0.65625
          },
          {
            "ticks": 144076,
            "time": 104.70633252500001,
            "value": -0.625
          },
          {
            "ticks": 144084,
            "time": 104.71214647500001,
            "value": -0.578125
          },
          {
            "ticks": 144096,
            "time": 104.7208674,
            "value": -0.546875
          },
          {
            "ticks": 144104,
            "time": 104.72668134999999,
            "value": -0.5
          },
          {
            "ticks": 144116,
            "time": 104.735402275,
            "value": -0.46875
          },
          {
            "ticks": 144124,
            "time": 104.741216225,
            "value": -0.421875
          },
          {
            "ticks": 144132,
            "time": 104.74703017499999,
            "value": -0.390625
          },
          {
            "ticks": 144144,
            "time": 104.75575110000001,
            "value": -0.34375
          },
          {
            "ticks": 144152,
            "time": 104.76156505,
            "value": -0.3125
          },
          {
            "ticks": 144164,
            "time": 104.770285975,
            "value": -0.265625
          },
          {
            "ticks": 144172,
            "time": 104.77609992500001,
            "value": -0.234375
          },
          {
            "ticks": 144180,
            "time": 104.781913875,
            "value": -0.1875
          },
          {
            "ticks": 144192,
            "time": 104.79063479999999,
            "value": -0.15625
          },
          {
            "ticks": 144200,
            "time": 104.79644875000001,
            "value": -0.109375
          },
          {
            "ticks": 144212,
            "time": 104.805169675,
            "value": -0.0625
          },
          {
            "ticks": 144228,
            "time": 104.81679757500001,
            "value": 0
          },
          {
            "ticks": 144456,
            "time": 104.98249515,
            "value": -0.96875
          },
          {
            "ticks": 144468,
            "time": 104.99121607500001,
            "value": -0.9375
          },
          {
            "ticks": 144476,
            "time": 104.997030025,
            "value": -0.890625
          },
          {
            "ticks": 144488,
            "time": 105.00575094999999,
            "value": -0.859375
          },
          {
            "ticks": 144496,
            "time": 105.01156490000001,
            "value": -0.8125
          },
          {
            "ticks": 144504,
            "time": 105.01737885,
            "value": -0.78125
          },
          {
            "ticks": 144516,
            "time": 105.02609977499999,
            "value": -0.734375
          },
          {
            "ticks": 144524,
            "time": 105.031913725,
            "value": -0.703125
          },
          {
            "ticks": 144536,
            "time": 105.04063465,
            "value": -0.65625
          },
          {
            "ticks": 144544,
            "time": 105.0464486,
            "value": -0.625
          },
          {
            "ticks": 144552,
            "time": 105.05226255,
            "value": -0.578125
          },
          {
            "ticks": 144564,
            "time": 105.060983475,
            "value": -0.546875
          },
          {
            "ticks": 144572,
            "time": 105.066797425,
            "value": -0.5
          },
          {
            "ticks": 144584,
            "time": 105.07551835,
            "value": -0.46875
          },
          {
            "ticks": 144592,
            "time": 105.08133230000001,
            "value": -0.421875
          },
          {
            "ticks": 144600,
            "time": 105.08714625,
            "value": -0.390625
          },
          {
            "ticks": 144612,
            "time": 105.095867175,
            "value": -0.34375
          },
          {
            "ticks": 144620,
            "time": 105.10168112500001,
            "value": -0.3125
          },
          {
            "ticks": 144632,
            "time": 105.11040205,
            "value": -0.265625
          },
          {
            "ticks": 144640,
            "time": 105.116216,
            "value": -0.234375
          },
          {
            "ticks": 144648,
            "time": 105.12202995000001,
            "value": -0.1875
          },
          {
            "ticks": 144660,
            "time": 105.130750875,
            "value": -0.15625
          },
          {
            "ticks": 144668,
            "time": 105.136564825,
            "value": -0.109375
          },
          {
            "ticks": 144680,
            "time": 105.14528575000001,
            "value": -0.0625
          },
          {
            "ticks": 144696,
            "time": 105.15691364999999,
            "value": 0
          },
          {
            "ticks": 144936,
            "time": 105.33133215,
            "value": -0.96875
          },
          {
            "ticks": 144948,
            "time": 105.34005307500001,
            "value": -0.9375
          },
          {
            "ticks": 144956,
            "time": 105.345867025,
            "value": -0.890625
          },
          {
            "ticks": 144968,
            "time": 105.35458795,
            "value": -0.859375
          },
          {
            "ticks": 144976,
            "time": 105.36040190000001,
            "value": -0.8125
          },
          {
            "ticks": 144984,
            "time": 105.36621585,
            "value": -0.78125
          },
          {
            "ticks": 144996,
            "time": 105.374936775,
            "value": -0.734375
          },
          {
            "ticks": 145004,
            "time": 105.380750725,
            "value": -0.703125
          },
          {
            "ticks": 145016,
            "time": 105.38947165,
            "value": -0.65625
          },
          {
            "ticks": 145024,
            "time": 105.3952856,
            "value": -0.625
          },
          {
            "ticks": 145032,
            "time": 105.40109955,
            "value": -0.578125
          },
          {
            "ticks": 145044,
            "time": 105.409820475,
            "value": -0.546875
          },
          {
            "ticks": 145052,
            "time": 105.41563442500001,
            "value": -0.5
          },
          {
            "ticks": 145064,
            "time": 105.42435535,
            "value": -0.46875
          },
          {
            "ticks": 145072,
            "time": 105.4301693,
            "value": -0.421875
          },
          {
            "ticks": 145080,
            "time": 105.43598325,
            "value": -0.390625
          },
          {
            "ticks": 145092,
            "time": 105.444704175,
            "value": -0.34375
          },
          {
            "ticks": 145100,
            "time": 105.450518125,
            "value": -0.3125
          },
          {
            "ticks": 145112,
            "time": 105.45923905000001,
            "value": -0.265625
          },
          {
            "ticks": 145120,
            "time": 105.465053,
            "value": -0.234375
          },
          {
            "ticks": 145128,
            "time": 105.47086695000002,
            "value": -0.1875
          },
          {
            "ticks": 145140,
            "time": 105.479587875,
            "value": -0.15625
          },
          {
            "ticks": 145148,
            "time": 105.485401825,
            "value": -0.109375
          },
          {
            "ticks": 145160,
            "time": 105.49412275,
            "value": -0.0625
          },
          {
            "ticks": 145176,
            "time": 105.50575065,
            "value": 0
          },
          {
            "ticks": 145416,
            "time": 105.68016915,
            "value": -0.96875
          },
          {
            "ticks": 145428,
            "time": 105.688890075,
            "value": -0.9375
          },
          {
            "ticks": 145436,
            "time": 105.69470402500001,
            "value": -0.890625
          },
          {
            "ticks": 145448,
            "time": 105.70342495,
            "value": -0.859375
          },
          {
            "ticks": 145456,
            "time": 105.70923890000002,
            "value": -0.8125
          },
          {
            "ticks": 145464,
            "time": 105.71505285,
            "value": -0.78125
          },
          {
            "ticks": 145476,
            "time": 105.723773775,
            "value": -0.734375
          },
          {
            "ticks": 145484,
            "time": 105.72958772499999,
            "value": -0.703125
          },
          {
            "ticks": 145496,
            "time": 105.73830865000001,
            "value": -0.65625
          },
          {
            "ticks": 145504,
            "time": 105.7441226,
            "value": -0.625
          },
          {
            "ticks": 145512,
            "time": 105.74993655,
            "value": -0.578125
          },
          {
            "ticks": 145524,
            "time": 105.758657475,
            "value": -0.546875
          },
          {
            "ticks": 145532,
            "time": 105.764471425,
            "value": -0.5
          },
          {
            "ticks": 145544,
            "time": 105.77319234999999,
            "value": -0.46875
          },
          {
            "ticks": 145552,
            "time": 105.7790063,
            "value": -0.421875
          },
          {
            "ticks": 145560,
            "time": 105.78482025,
            "value": -0.390625
          },
          {
            "ticks": 145572,
            "time": 105.793541175,
            "value": -0.34375
          },
          {
            "ticks": 145580,
            "time": 105.799355125,
            "value": -0.3125
          },
          {
            "ticks": 145592,
            "time": 105.80807605,
            "value": -0.265625
          },
          {
            "ticks": 145600,
            "time": 105.81389,
            "value": -0.234375
          },
          {
            "ticks": 145608,
            "time": 105.81970395,
            "value": -0.1875
          },
          {
            "ticks": 145620,
            "time": 105.828424875,
            "value": -0.15625
          },
          {
            "ticks": 145628,
            "time": 105.834238825,
            "value": -0.109375
          },
          {
            "ticks": 145640,
            "time": 105.84295975,
            "value": -0.0625
          },
          {
            "ticks": 145656,
            "time": 105.85458765,
            "value": 0
          },
          {
            "ticks": 145684,
            "time": 105.874936475,
            "value": -0.015625
          },
          {
            "ticks": 145692,
            "time": 105.88075042499999,
            "value": -0.046875
          },
          {
            "ticks": 145700,
            "time": 105.886564375,
            "value": -0.078125
          },
          {
            "ticks": 145712,
            "time": 105.8952853,
            "value": -0.125
          },
          {
            "ticks": 145720,
            "time": 105.90109925,
            "value": -0.15625
          },
          {
            "ticks": 145732,
            "time": 105.90982017500001,
            "value": -0.203125
          },
          {
            "ticks": 145740,
            "time": 105.915634125,
            "value": -0.234375
          },
          {
            "ticks": 145748,
            "time": 105.921448075,
            "value": -0.265625
          },
          {
            "ticks": 145760,
            "time": 105.930169,
            "value": -0.3125
          },
          {
            "ticks": 145768,
            "time": 105.93598295000001,
            "value": -0.34375
          },
          {
            "ticks": 145780,
            "time": 105.944703875,
            "value": -0.390625
          },
          {
            "ticks": 145788,
            "time": 105.950517825,
            "value": -0.421875
          },
          {
            "ticks": 145796,
            "time": 105.95633177500001,
            "value": -0.453125
          },
          {
            "ticks": 145808,
            "time": 105.9650527,
            "value": -0.5
          },
          {
            "ticks": 145816,
            "time": 105.97086665,
            "value": -0.53125
          },
          {
            "ticks": 145828,
            "time": 105.97958757500001,
            "value": -0.578125
          },
          {
            "ticks": 145836,
            "time": 105.985401525,
            "value": -0.609375
          },
          {
            "ticks": 145844,
            "time": 105.99121547499999,
            "value": -0.640625
          },
          {
            "ticks": 145856,
            "time": 105.99993640000001,
            "value": -0.6875
          },
          {
            "ticks": 145864,
            "time": 106.00575035,
            "value": -0.71875
          },
          {
            "ticks": 145876,
            "time": 106.014471275,
            "value": -0.765625
          },
          {
            "ticks": 145884,
            "time": 106.02028522500001,
            "value": -0.796875
          },
          {
            "ticks": 145892,
            "time": 106.026099175,
            "value": -0.828125
          },
          {
            "ticks": 145904,
            "time": 106.03482009999999,
            "value": -0.875
          },
          {
            "ticks": 145912,
            "time": 106.04063405000001,
            "value": -0.90625
          },
          {
            "ticks": 145924,
            "time": 106.049354975,
            "value": -0.953125
          },
          {
            "ticks": 145928,
            "time": 106.05226195,
            "value": -0.859375
          },
          {
            "ticks": 145936,
            "time": 106.0580759,
            "value": -0.8125
          },
          {
            "ticks": 145944,
            "time": 106.06388985000001,
            "value": -0.78125
          },
          {
            "ticks": 145956,
            "time": 106.072610775,
            "value": -0.734375
          },
          {
            "ticks": 145964,
            "time": 106.07842472499999,
            "value": -0.703125
          },
          {
            "ticks": 145976,
            "time": 106.08714565000001,
            "value": -0.65625
          },
          {
            "ticks": 145984,
            "time": 106.0929596,
            "value": -0.625
          },
          {
            "ticks": 145992,
            "time": 106.09877354999999,
            "value": -0.578125
          },
          {
            "ticks": 146004,
            "time": 106.10749447500001,
            "value": -0.546875
          },
          {
            "ticks": 146012,
            "time": 106.113308425,
            "value": -0.5
          },
          {
            "ticks": 146024,
            "time": 106.12202934999999,
            "value": -0.46875
          },
          {
            "ticks": 146032,
            "time": 106.12784330000001,
            "value": -0.421875
          },
          {
            "ticks": 146040,
            "time": 106.13365725,
            "value": -0.390625
          },
          {
            "ticks": 146052,
            "time": 106.14237817499999,
            "value": -0.34375
          },
          {
            "ticks": 146060,
            "time": 106.14819212500001,
            "value": -0.3125
          },
          {
            "ticks": 146072,
            "time": 106.15691305,
            "value": -0.265625
          },
          {
            "ticks": 146080,
            "time": 106.16272699999999,
            "value": -0.234375
          },
          {
            "ticks": 146088,
            "time": 106.16854095000001,
            "value": -0.1875
          },
          {
            "ticks": 146100,
            "time": 106.177261875,
            "value": -0.15625
          },
          {
            "ticks": 146108,
            "time": 106.183075825,
            "value": -0.109375
          },
          {
            "ticks": 146120,
            "time": 106.19179675000001,
            "value": -0.0625
          },
          {
            "ticks": 146136,
            "time": 106.20342465,
            "value": 0
          },
          {
            "ticks": 146364,
            "time": 106.36912222500001,
            "value": -0.96875
          },
          {
            "ticks": 146376,
            "time": 106.37784315,
            "value": -0.9375
          },
          {
            "ticks": 146384,
            "time": 106.3836571,
            "value": -0.890625
          },
          {
            "ticks": 146396,
            "time": 106.392378025,
            "value": -0.859375
          },
          {
            "ticks": 146404,
            "time": 106.398191975,
            "value": -0.8125
          },
          {
            "ticks": 146412,
            "time": 106.40400592499999,
            "value": -0.78125
          },
          {
            "ticks": 146424,
            "time": 106.41272685000001,
            "value": -0.734375
          },
          {
            "ticks": 146432,
            "time": 106.4185408,
            "value": -0.703125
          },
          {
            "ticks": 146444,
            "time": 106.427261725,
            "value": -0.65625
          },
          {
            "ticks": 146452,
            "time": 106.43307567500001,
            "value": -0.625
          },
          {
            "ticks": 146460,
            "time": 106.438889625,
            "value": -0.578125
          },
          {
            "ticks": 146472,
            "time": 106.44761055,
            "value": -0.546875
          },
          {
            "ticks": 146480,
            "time": 106.45342450000001,
            "value": -0.5
          },
          {
            "ticks": 146492,
            "time": 106.462145425,
            "value": -0.46875
          },
          {
            "ticks": 146500,
            "time": 106.46795937499999,
            "value": -0.421875
          },
          {
            "ticks": 146508,
            "time": 106.47377332500001,
            "value": -0.390625
          },
          {
            "ticks": 146520,
            "time": 106.48249425,
            "value": -0.34375
          },
          {
            "ticks": 146528,
            "time": 106.48830819999999,
            "value": -0.3125
          },
          {
            "ticks": 146540,
            "time": 106.49702912500001,
            "value": -0.265625
          },
          {
            "ticks": 146548,
            "time": 106.502843075,
            "value": -0.234375
          },
          {
            "ticks": 146556,
            "time": 106.508657025,
            "value": -0.1875
          },
          {
            "ticks": 146568,
            "time": 106.51737795000001,
            "value": -0.15625
          },
          {
            "ticks": 146576,
            "time": 106.5231919,
            "value": -0.109375
          },
          {
            "ticks": 146588,
            "time": 106.53191282499999,
            "value": -0.0625
          },
          {
            "ticks": 146604,
            "time": 106.543540725,
            "value": 0
          },
          {
            "ticks": 146844,
            "time": 106.717959225,
            "value": -0.96875
          },
          {
            "ticks": 146856,
            "time": 106.72668014999999,
            "value": -0.9375
          },
          {
            "ticks": 146864,
            "time": 106.7324941,
            "value": -0.890625
          },
          {
            "ticks": 146876,
            "time": 106.741215025,
            "value": -0.859375
          },
          {
            "ticks": 146884,
            "time": 106.747028975,
            "value": -0.8125
          },
          {
            "ticks": 146892,
            "time": 106.752842925,
            "value": -0.78125
          },
          {
            "ticks": 146904,
            "time": 106.76156385,
            "value": -0.734375
          },
          {
            "ticks": 146912,
            "time": 106.7673778,
            "value": -0.703125
          },
          {
            "ticks": 146924,
            "time": 106.776098725,
            "value": -0.65625
          },
          {
            "ticks": 146932,
            "time": 106.781912675,
            "value": -0.625
          },
          {
            "ticks": 146940,
            "time": 106.787726625,
            "value": -0.578125
          },
          {
            "ticks": 146952,
            "time": 106.79644755,
            "value": -0.546875
          },
          {
            "ticks": 146960,
            "time": 106.80226150000001,
            "value": -0.5
          },
          {
            "ticks": 146972,
            "time": 106.810982425,
            "value": -0.46875
          },
          {
            "ticks": 146980,
            "time": 106.816796375,
            "value": -0.421875
          },
          {
            "ticks": 146988,
            "time": 106.82261032500001,
            "value": -0.390625
          },
          {
            "ticks": 147000,
            "time": 106.83133125,
            "value": -0.34375
          },
          {
            "ticks": 147008,
            "time": 106.8371452,
            "value": -0.3125
          },
          {
            "ticks": 147020,
            "time": 106.84586612500001,
            "value": -0.265625
          },
          {
            "ticks": 147028,
            "time": 106.851680075,
            "value": -0.234375
          },
          {
            "ticks": 147036,
            "time": 106.857494025,
            "value": -0.1875
          },
          {
            "ticks": 147048,
            "time": 106.86621495000001,
            "value": -0.15625
          },
          {
            "ticks": 147056,
            "time": 106.8720289,
            "value": -0.109375
          },
          {
            "ticks": 147068,
            "time": 106.880749825,
            "value": -0.0625
          },
          {
            "ticks": 147084,
            "time": 106.892377725,
            "value": 0
          },
          {
            "ticks": 147324,
            "time": 107.066796225,
            "value": -0.96875
          },
          {
            "ticks": 147336,
            "time": 107.07551715,
            "value": -0.9375
          },
          {
            "ticks": 147344,
            "time": 107.0813311,
            "value": -0.890625
          },
          {
            "ticks": 147356,
            "time": 107.090052025,
            "value": -0.859375
          },
          {
            "ticks": 147364,
            "time": 107.095865975,
            "value": -0.8125
          },
          {
            "ticks": 147372,
            "time": 107.101679925,
            "value": -0.78125
          },
          {
            "ticks": 147384,
            "time": 107.11040085,
            "value": -0.734375
          },
          {
            "ticks": 147392,
            "time": 107.1162148,
            "value": -0.703125
          },
          {
            "ticks": 147404,
            "time": 107.124935725,
            "value": -0.65625
          },
          {
            "ticks": 147412,
            "time": 107.130749675,
            "value": -0.625
          },
          {
            "ticks": 147420,
            "time": 107.13656362500001,
            "value": -0.578125
          },
          {
            "ticks": 147432,
            "time": 107.14528455,
            "value": -0.546875
          },
          {
            "ticks": 147440,
            "time": 107.1510985,
            "value": -0.5
          },
          {
            "ticks": 147452,
            "time": 107.159819425,
            "value": -0.46875
          },
          {
            "ticks": 147460,
            "time": 107.165633375,
            "value": -0.421875
          },
          {
            "ticks": 147468,
            "time": 107.17144732500002,
            "value": -0.390625
          },
          {
            "ticks": 147480,
            "time": 107.18016825000001,
            "value": -0.34375
          },
          {
            "ticks": 147488,
            "time": 107.1859822,
            "value": -0.3125
          },
          {
            "ticks": 147500,
            "time": 107.194703125,
            "value": -0.265625
          },
          {
            "ticks": 147508,
            "time": 107.20051707500001,
            "value": -0.234375
          },
          {
            "ticks": 147516,
            "time": 107.206331025,
            "value": -0.1875
          },
          {
            "ticks": 147520,
            "time": 107.209238,
            "value": -0.109375
          },
          {
            "ticks": 147528,
            "time": 107.21505195000002,
            "value": -0.15625
          },
          {
            "ticks": 147536,
            "time": 107.2208659,
            "value": -0.109375
          },
          {
            "ticks": 147548,
            "time": 107.229586825,
            "value": -0.0625
          },
          {
            "ticks": 147564,
            "time": 107.241214725,
            "value": 0
          },
          {
            "ticks": 147584,
            "time": 107.25574959999999,
            "value": 0
          },
          {
            "ticks": 240000,
            "time": 174.4185,
            "value": -0.96875
          },
          {
            "ticks": 240012,
            "time": 174.427220925,
            "value": -0.9375
          },
          {
            "ticks": 240020,
            "time": 174.433034875,
            "value": -0.890625
          },
          {
            "ticks": 240032,
            "time": 174.4417558,
            "value": -0.859375
          },
          {
            "ticks": 240040,
            "time": 174.44756974999999,
            "value": -0.8125
          },
          {
            "ticks": 240048,
            "time": 174.45338370000002,
            "value": -0.78125
          },
          {
            "ticks": 240060,
            "time": 174.462104625,
            "value": -0.734375
          },
          {
            "ticks": 240068,
            "time": 174.467918575,
            "value": -0.703125
          },
          {
            "ticks": 240080,
            "time": 174.4766395,
            "value": -0.65625
          },
          {
            "ticks": 240088,
            "time": 174.48245345,
            "value": -0.625
          },
          {
            "ticks": 240096,
            "time": 174.4882674,
            "value": -0.578125
          },
          {
            "ticks": 240108,
            "time": 174.49698832500002,
            "value": -0.546875
          },
          {
            "ticks": 240116,
            "time": 174.502802275,
            "value": -0.5
          },
          {
            "ticks": 240128,
            "time": 174.5115232,
            "value": -0.46875
          },
          {
            "ticks": 240136,
            "time": 174.51733715,
            "value": -0.421875
          },
          {
            "ticks": 240144,
            "time": 174.5231511,
            "value": -0.390625
          },
          {
            "ticks": 240156,
            "time": 174.531872025,
            "value": -0.34375
          },
          {
            "ticks": 240164,
            "time": 174.537685975,
            "value": -0.3125
          },
          {
            "ticks": 240176,
            "time": 174.5464069,
            "value": -0.265625
          },
          {
            "ticks": 240184,
            "time": 174.55222085,
            "value": -0.234375
          },
          {
            "ticks": 240192,
            "time": 174.5580348,
            "value": -0.1875
          },
          {
            "ticks": 240204,
            "time": 174.566755725,
            "value": -0.15625
          },
          {
            "ticks": 240212,
            "time": 174.572569675,
            "value": -0.109375
          },
          {
            "ticks": 240224,
            "time": 174.5812906,
            "value": -0.0625
          },
          {
            "ticks": 240240,
            "time": 174.5929185,
            "value": 0
          },
          {
            "ticks": 240468,
            "time": 174.75861607500002,
            "value": -0.96875
          },
          {
            "ticks": 240480,
            "time": 174.767337,
            "value": -0.9375
          },
          {
            "ticks": 240488,
            "time": 174.77315095,
            "value": -0.890625
          },
          {
            "ticks": 240500,
            "time": 174.781871875,
            "value": -0.859375
          },
          {
            "ticks": 240508,
            "time": 174.787685825,
            "value": -0.8125
          },
          {
            "ticks": 240516,
            "time": 174.793499775,
            "value": -0.78125
          },
          {
            "ticks": 240528,
            "time": 174.80222070000002,
            "value": -0.734375
          },
          {
            "ticks": 240536,
            "time": 174.80803465,
            "value": -0.703125
          },
          {
            "ticks": 240548,
            "time": 174.816755575,
            "value": -0.65625
          },
          {
            "ticks": 240556,
            "time": 174.822569525,
            "value": -0.625
          },
          {
            "ticks": 240564,
            "time": 174.828383475,
            "value": -0.578125
          },
          {
            "ticks": 240576,
            "time": 174.8371044,
            "value": -0.546875
          },
          {
            "ticks": 240584,
            "time": 174.84291835,
            "value": -0.5
          },
          {
            "ticks": 240596,
            "time": 174.851639275,
            "value": -0.46875
          },
          {
            "ticks": 240604,
            "time": 174.857453225,
            "value": -0.421875
          },
          {
            "ticks": 240612,
            "time": 174.863267175,
            "value": -0.390625
          },
          {
            "ticks": 240624,
            "time": 174.8719881,
            "value": -0.34375
          },
          {
            "ticks": 240632,
            "time": 174.87780205,
            "value": -0.3125
          },
          {
            "ticks": 240644,
            "time": 174.886522975,
            "value": -0.265625
          },
          {
            "ticks": 240652,
            "time": 174.89233692500002,
            "value": -0.234375
          },
          {
            "ticks": 240660,
            "time": 174.898150875,
            "value": -0.1875
          },
          {
            "ticks": 240672,
            "time": 174.9068718,
            "value": -0.15625
          },
          {
            "ticks": 240680,
            "time": 174.91268575,
            "value": -0.109375
          },
          {
            "ticks": 240692,
            "time": 174.92140667500001,
            "value": -0.0625
          },
          {
            "ticks": 240708,
            "time": 174.93303457500002,
            "value": 0
          },
          {
            "ticks": 240948,
            "time": 175.10745307500002,
            "value": -0.96875
          },
          {
            "ticks": 240960,
            "time": 175.116174,
            "value": -0.9375
          },
          {
            "ticks": 240968,
            "time": 175.12198795,
            "value": -0.890625
          },
          {
            "ticks": 240980,
            "time": 175.130708875,
            "value": -0.859375
          },
          {
            "ticks": 240988,
            "time": 175.13652282500001,
            "value": -0.8125
          },
          {
            "ticks": 240996,
            "time": 175.142336775,
            "value": -0.78125
          },
          {
            "ticks": 241008,
            "time": 175.15105770000002,
            "value": -0.734375
          },
          {
            "ticks": 241016,
            "time": 175.15687165,
            "value": -0.703125
          },
          {
            "ticks": 241028,
            "time": 175.165592575,
            "value": -0.65625
          },
          {
            "ticks": 241036,
            "time": 175.171406525,
            "value": -0.625
          },
          {
            "ticks": 241044,
            "time": 175.177220475,
            "value": -0.578125
          },
          {
            "ticks": 241056,
            "time": 175.1859414,
            "value": -0.546875
          },
          {
            "ticks": 241064,
            "time": 175.19175535,
            "value": -0.5
          },
          {
            "ticks": 241076,
            "time": 175.200476275,
            "value": -0.46875
          },
          {
            "ticks": 241084,
            "time": 175.206290225,
            "value": -0.421875
          },
          {
            "ticks": 241092,
            "time": 175.212104175,
            "value": -0.390625
          },
          {
            "ticks": 241104,
            "time": 175.2208251,
            "value": -0.34375
          },
          {
            "ticks": 241112,
            "time": 175.22663905,
            "value": -0.3125
          },
          {
            "ticks": 241124,
            "time": 175.235359975,
            "value": -0.265625
          },
          {
            "ticks": 241132,
            "time": 175.241173925,
            "value": -0.234375
          },
          {
            "ticks": 241140,
            "time": 175.246987875,
            "value": -0.1875
          },
          {
            "ticks": 241152,
            "time": 175.2557088,
            "value": -0.15625
          },
          {
            "ticks": 241160,
            "time": 175.26152275,
            "value": -0.109375
          },
          {
            "ticks": 241172,
            "time": 175.270243675,
            "value": -0.0625
          },
          {
            "ticks": 241188,
            "time": 175.28187157500003,
            "value": 0
          },
          {
            "ticks": 241428,
            "time": 175.456290075,
            "value": -0.96875
          },
          {
            "ticks": 241440,
            "time": 175.465011,
            "value": -0.9375
          },
          {
            "ticks": 241448,
            "time": 175.47082495,
            "value": -0.890625
          },
          {
            "ticks": 241460,
            "time": 175.479545875,
            "value": -0.859375
          },
          {
            "ticks": 241468,
            "time": 175.48535982500002,
            "value": -0.8125
          },
          {
            "ticks": 241476,
            "time": 175.491173775,
            "value": -0.78125
          },
          {
            "ticks": 241488,
            "time": 175.4998947,
            "value": -0.734375
          },
          {
            "ticks": 241496,
            "time": 175.50570865,
            "value": -0.703125
          },
          {
            "ticks": 241508,
            "time": 175.514429575,
            "value": -0.65625
          },
          {
            "ticks": 241516,
            "time": 175.520243525,
            "value": -0.625
          },
          {
            "ticks": 241524,
            "time": 175.52605747500002,
            "value": -0.578125
          },
          {
            "ticks": 241536,
            "time": 175.5347784,
            "value": -0.546875
          },
          {
            "ticks": 241544,
            "time": 175.54059235,
            "value": -0.5
          },
          {
            "ticks": 241556,
            "time": 175.549313275,
            "value": -0.46875
          },
          {
            "ticks": 241564,
            "time": 175.555127225,
            "value": -0.421875
          },
          {
            "ticks": 241572,
            "time": 175.56094117499998,
            "value": -0.390625
          },
          {
            "ticks": 241584,
            "time": 175.56966210000002,
            "value": -0.34375
          },
          {
            "ticks": 241592,
            "time": 175.57547605,
            "value": -0.3125
          },
          {
            "ticks": 241604,
            "time": 175.584196975,
            "value": -0.265625
          },
          {
            "ticks": 241612,
            "time": 175.590010925,
            "value": -0.234375
          },
          {
            "ticks": 241620,
            "time": 175.595824875,
            "value": -0.1875
          },
          {
            "ticks": 241632,
            "time": 175.60454579999998,
            "value": -0.15625
          },
          {
            "ticks": 241640,
            "time": 175.61035975000001,
            "value": -0.109375
          },
          {
            "ticks": 241652,
            "time": 175.619080675,
            "value": -0.0625
          },
          {
            "ticks": 241668,
            "time": 175.630708575,
            "value": 0
          },
          {
            "ticks": 241908,
            "time": 175.805127075,
            "value": -0.96875
          },
          {
            "ticks": 241920,
            "time": 175.813848,
            "value": -0.9375
          },
          {
            "ticks": 241928,
            "time": 175.81966195,
            "value": -0.890625
          },
          {
            "ticks": 241940,
            "time": 175.82838287500002,
            "value": -0.859375
          },
          {
            "ticks": 241948,
            "time": 175.834196825,
            "value": -0.8125
          },
          {
            "ticks": 241956,
            "time": 175.840010775,
            "value": -0.78125
          },
          {
            "ticks": 241968,
            "time": 175.8487317,
            "value": -0.734375
          },
          {
            "ticks": 241976,
            "time": 175.85454565,
            "value": -0.703125
          },
          {
            "ticks": 241988,
            "time": 175.863266575,
            "value": -0.65625
          },
          {
            "ticks": 241996,
            "time": 175.86908052500002,
            "value": -0.625
          },
          {
            "ticks": 242004,
            "time": 175.87489447500002,
            "value": -0.578125
          },
          {
            "ticks": 242016,
            "time": 175.8836154,
            "value": -0.546875
          },
          {
            "ticks": 242024,
            "time": 175.88942935,
            "value": -0.5
          },
          {
            "ticks": 242036,
            "time": 175.898150275,
            "value": -0.46875
          },
          {
            "ticks": 242044,
            "time": 175.903964225,
            "value": -0.421875
          },
          {
            "ticks": 242052,
            "time": 175.90977817499999,
            "value": -0.390625
          },
          {
            "ticks": 242064,
            "time": 175.91849910000002,
            "value": -0.34375
          },
          {
            "ticks": 242072,
            "time": 175.92431305,
            "value": -0.3125
          },
          {
            "ticks": 242084,
            "time": 175.933033975,
            "value": -0.265625
          },
          {
            "ticks": 242092,
            "time": 175.938847925,
            "value": -0.234375
          },
          {
            "ticks": 242100,
            "time": 175.944661875,
            "value": -0.1875
          },
          {
            "ticks": 242112,
            "time": 175.95338279999999,
            "value": -0.15625
          },
          {
            "ticks": 242120,
            "time": 175.95919675000002,
            "value": -0.109375
          },
          {
            "ticks": 242132,
            "time": 175.967917675,
            "value": -0.0625
          },
          {
            "ticks": 242148,
            "time": 175.979545575,
            "value": 0
          },
          {
            "ticks": 242376,
            "time": 176.14524315,
            "value": -0.96875
          },
          {
            "ticks": 242388,
            "time": 176.153964075,
            "value": -0.9375
          },
          {
            "ticks": 242396,
            "time": 176.159778025,
            "value": -0.890625
          },
          {
            "ticks": 242408,
            "time": 176.16849895,
            "value": -0.859375
          },
          {
            "ticks": 242416,
            "time": 176.17431290000002,
            "value": -0.8125
          },
          {
            "ticks": 242424,
            "time": 176.18012685000002,
            "value": -0.78125
          },
          {
            "ticks": 242436,
            "time": 176.188847775,
            "value": -0.734375
          },
          {
            "ticks": 242444,
            "time": 176.194661725,
            "value": -0.703125
          },
          {
            "ticks": 242456,
            "time": 176.20338265,
            "value": -0.65625
          },
          {
            "ticks": 242464,
            "time": 176.2091966,
            "value": -0.625
          },
          {
            "ticks": 242472,
            "time": 176.21501055,
            "value": -0.578125
          },
          {
            "ticks": 242484,
            "time": 176.223731475,
            "value": -0.546875
          },
          {
            "ticks": 242492,
            "time": 176.229545425,
            "value": -0.5
          },
          {
            "ticks": 242504,
            "time": 176.23826635,
            "value": -0.46875
          },
          {
            "ticks": 242512,
            "time": 176.2440803,
            "value": -0.421875
          },
          {
            "ticks": 242520,
            "time": 176.24989425,
            "value": -0.390625
          },
          {
            "ticks": 242532,
            "time": 176.258615175,
            "value": -0.34375
          },
          {
            "ticks": 242540,
            "time": 176.26442912500002,
            "value": -0.3125
          },
          {
            "ticks": 242552,
            "time": 176.27315005,
            "value": -0.265625
          },
          {
            "ticks": 242560,
            "time": 176.278964,
            "value": -0.234375
          },
          {
            "ticks": 242568,
            "time": 176.28477795,
            "value": -0.1875
          },
          {
            "ticks": 242580,
            "time": 176.293498875,
            "value": -0.15625
          },
          {
            "ticks": 242588,
            "time": 176.299312825,
            "value": -0.109375
          },
          {
            "ticks": 242600,
            "time": 176.30803375000002,
            "value": -0.0625
          },
          {
            "ticks": 242616,
            "time": 176.31966165,
            "value": 0
          },
          {
            "ticks": 242856,
            "time": 176.49408015,
            "value": -0.96875
          },
          {
            "ticks": 242868,
            "time": 176.502801075,
            "value": -0.9375
          },
          {
            "ticks": 242876,
            "time": 176.508615025,
            "value": -0.890625
          },
          {
            "ticks": 242888,
            "time": 176.51733595,
            "value": -0.859375
          },
          {
            "ticks": 242896,
            "time": 176.52314990000002,
            "value": -0.8125
          },
          {
            "ticks": 242904,
            "time": 176.52896385,
            "value": -0.78125
          },
          {
            "ticks": 242916,
            "time": 176.537684775,
            "value": -0.734375
          },
          {
            "ticks": 242924,
            "time": 176.543498725,
            "value": -0.703125
          },
          {
            "ticks": 242936,
            "time": 176.55221965,
            "value": -0.65625
          },
          {
            "ticks": 242944,
            "time": 176.5580336,
            "value": -0.625
          },
          {
            "ticks": 242952,
            "time": 176.56384755,
            "value": -0.578125
          },
          {
            "ticks": 242964,
            "time": 176.572568475,
            "value": -0.546875
          },
          {
            "ticks": 242972,
            "time": 176.578382425,
            "value": -0.5
          },
          {
            "ticks": 242984,
            "time": 176.58710335,
            "value": -0.46875
          },
          {
            "ticks": 242992,
            "time": 176.5929173,
            "value": -0.421875
          },
          {
            "ticks": 243000,
            "time": 176.59873125000001,
            "value": -0.390625
          },
          {
            "ticks": 243012,
            "time": 176.607452175,
            "value": -0.34375
          },
          {
            "ticks": 243020,
            "time": 176.61326612500002,
            "value": -0.3125
          },
          {
            "ticks": 243032,
            "time": 176.62198705,
            "value": -0.265625
          },
          {
            "ticks": 243040,
            "time": 176.627801,
            "value": -0.234375
          },
          {
            "ticks": 243048,
            "time": 176.63361495,
            "value": -0.1875
          },
          {
            "ticks": 243060,
            "time": 176.64233587500001,
            "value": -0.15625
          },
          {
            "ticks": 243068,
            "time": 176.648149825,
            "value": -0.109375
          },
          {
            "ticks": 243080,
            "time": 176.65687075000002,
            "value": -0.0625
          },
          {
            "ticks": 243096,
            "time": 176.66849865,
            "value": 0
          },
          {
            "ticks": 243336,
            "time": 176.84291715,
            "value": -0.96875
          },
          {
            "ticks": 243348,
            "time": 176.851638075,
            "value": -0.9375
          },
          {
            "ticks": 243356,
            "time": 176.85745202500001,
            "value": -0.890625
          },
          {
            "ticks": 243368,
            "time": 176.86617295,
            "value": -0.859375
          },
          {
            "ticks": 243376,
            "time": 176.87198690000002,
            "value": -0.8125
          },
          {
            "ticks": 243384,
            "time": 176.87780085,
            "value": -0.78125
          },
          {
            "ticks": 243396,
            "time": 176.886521775,
            "value": -0.734375
          },
          {
            "ticks": 243404,
            "time": 176.89233572499998,
            "value": -0.703125
          },
          {
            "ticks": 243416,
            "time": 176.90105665000002,
            "value": -0.65625
          },
          {
            "ticks": 243424,
            "time": 176.9068706,
            "value": -0.625
          },
          {
            "ticks": 243432,
            "time": 176.91268455,
            "value": -0.578125
          },
          {
            "ticks": 243444,
            "time": 176.921405475,
            "value": -0.546875
          },
          {
            "ticks": 243452,
            "time": 176.927219425,
            "value": -0.5
          },
          {
            "ticks": 243464,
            "time": 176.93594034999998,
            "value": -0.46875
          },
          {
            "ticks": 243472,
            "time": 176.9417543,
            "value": -0.421875
          },
          {
            "ticks": 243480,
            "time": 176.94756825000002,
            "value": -0.390625
          },
          {
            "ticks": 243492,
            "time": 176.956289175,
            "value": -0.34375
          },
          {
            "ticks": 243500,
            "time": 176.962103125,
            "value": -0.3125
          },
          {
            "ticks": 243512,
            "time": 176.97082405,
            "value": -0.265625
          },
          {
            "ticks": 243520,
            "time": 176.976638,
            "value": -0.234375
          },
          {
            "ticks": 243528,
            "time": 176.98245195,
            "value": -0.1875
          },
          {
            "ticks": 243532,
            "time": 176.985358925,
            "value": -0.109375
          },
          {
            "ticks": 243540,
            "time": 176.99117287500002,
            "value": -0.15625
          },
          {
            "ticks": 243548,
            "time": 176.996986825,
            "value": -0.109375
          },
          {
            "ticks": 243560,
            "time": 177.00570775,
            "value": -0.0625
          },
          {
            "ticks": 243576,
            "time": 177.01733565,
            "value": 0
          },
          {
            "ticks": 243596,
            "time": 177.03187052500002,
            "value": 0
          },
          {
            "ticks": 243828,
            "time": 177.200475075,
            "value": -0.96875
          },
          {
            "ticks": 243840,
            "time": 177.209196,
            "value": -0.9375
          },
          {
            "ticks": 243848,
            "time": 177.21500995,
            "value": -0.890625
          },
          {
            "ticks": 243860,
            "time": 177.223730875,
            "value": -0.859375
          },
          {
            "ticks": 243868,
            "time": 177.229544825,
            "value": -0.8125
          },
          {
            "ticks": 243876,
            "time": 177.235358775,
            "value": -0.78125
          },
          {
            "ticks": 243888,
            "time": 177.24407970000001,
            "value": -0.734375
          },
          {
            "ticks": 243896,
            "time": 177.24989365000002,
            "value": -0.703125
          },
          {
            "ticks": 243908,
            "time": 177.258614575,
            "value": -0.65625
          },
          {
            "ticks": 243916,
            "time": 177.264428525,
            "value": -0.625
          },
          {
            "ticks": 243924,
            "time": 177.270242475,
            "value": -0.578125
          },
          {
            "ticks": 243936,
            "time": 177.2789634,
            "value": -0.546875
          },
          {
            "ticks": 243944,
            "time": 177.28477734999998,
            "value": -0.5
          },
          {
            "ticks": 243956,
            "time": 177.29349827500002,
            "value": -0.46875
          },
          {
            "ticks": 243964,
            "time": 177.299312225,
            "value": -0.421875
          },
          {
            "ticks": 243972,
            "time": 177.305126175,
            "value": -0.390625
          },
          {
            "ticks": 243984,
            "time": 177.3138471,
            "value": -0.34375
          },
          {
            "ticks": 243992,
            "time": 177.31966105,
            "value": -0.3125
          },
          {
            "ticks": 244004,
            "time": 177.32838197499999,
            "value": -0.265625
          },
          {
            "ticks": 244012,
            "time": 177.33419592500002,
            "value": -0.234375
          },
          {
            "ticks": 244020,
            "time": 177.340009875,
            "value": -0.1875
          },
          {
            "ticks": 244032,
            "time": 177.3487308,
            "value": -0.15625
          },
          {
            "ticks": 244040,
            "time": 177.35454475,
            "value": -0.109375
          },
          {
            "ticks": 244052,
            "time": 177.363265675,
            "value": -0.0625
          },
          {
            "ticks": 244068,
            "time": 177.37489357500002,
            "value": 0
          },
          {
            "ticks": 244296,
            "time": 177.54059115,
            "value": -0.96875
          },
          {
            "ticks": 244308,
            "time": 177.54931207500002,
            "value": -0.9375
          },
          {
            "ticks": 244316,
            "time": 177.555126025,
            "value": -0.890625
          },
          {
            "ticks": 244328,
            "time": 177.56384695,
            "value": -0.859375
          },
          {
            "ticks": 244336,
            "time": 177.5696609,
            "value": -0.8125
          },
          {
            "ticks": 244344,
            "time": 177.57547485,
            "value": -0.78125
          },
          {
            "ticks": 244356,
            "time": 177.584195775,
            "value": -0.734375
          },
          {
            "ticks": 244364,
            "time": 177.590009725,
            "value": -0.703125
          },
          {
            "ticks": 244376,
            "time": 177.59873065,
            "value": -0.65625
          },
          {
            "ticks": 244384,
            "time": 177.6045446,
            "value": -0.625
          },
          {
            "ticks": 244392,
            "time": 177.61035855,
            "value": -0.578125
          },
          {
            "ticks": 244404,
            "time": 177.619079475,
            "value": -0.546875
          },
          {
            "ticks": 244412,
            "time": 177.624893425,
            "value": -0.5
          },
          {
            "ticks": 244424,
            "time": 177.63361435,
            "value": -0.46875
          },
          {
            "ticks": 244432,
            "time": 177.63942830000002,
            "value": -0.421875
          },
          {
            "ticks": 244440,
            "time": 177.64524225,
            "value": -0.390625
          },
          {
            "ticks": 244452,
            "time": 177.653963175,
            "value": -0.34375
          },
          {
            "ticks": 244460,
            "time": 177.659777125,
            "value": -0.3125
          },
          {
            "ticks": 244472,
            "time": 177.66849805,
            "value": -0.265625
          },
          {
            "ticks": 244480,
            "time": 177.674312,
            "value": -0.234375
          },
          {
            "ticks": 244488,
            "time": 177.68012595000002,
            "value": -0.1875
          },
          {
            "ticks": 244500,
            "time": 177.688846875,
            "value": -0.15625
          },
          {
            "ticks": 244508,
            "time": 177.694660825,
            "value": -0.109375
          },
          {
            "ticks": 244520,
            "time": 177.70338175,
            "value": -0.0625
          },
          {
            "ticks": 244536,
            "time": 177.71500965,
            "value": 0
          },
          {
            "ticks": 244776,
            "time": 177.88942815,
            "value": -0.96875
          },
          {
            "ticks": 244788,
            "time": 177.89814907500002,
            "value": -0.9375
          },
          {
            "ticks": 244796,
            "time": 177.903963025,
            "value": -0.890625
          },
          {
            "ticks": 244808,
            "time": 177.91268395,
            "value": -0.859375
          },
          {
            "ticks": 244816,
            "time": 177.9184979,
            "value": -0.8125
          },
          {
            "ticks": 244824,
            "time": 177.92431185,
            "value": -0.78125
          },
          {
            "ticks": 244836,
            "time": 177.933032775,
            "value": -0.734375
          },
          {
            "ticks": 244844,
            "time": 177.938846725,
            "value": -0.703125
          },
          {
            "ticks": 244856,
            "time": 177.94756765,
            "value": -0.65625
          },
          {
            "ticks": 244864,
            "time": 177.9533816,
            "value": -0.625
          },
          {
            "ticks": 244872,
            "time": 177.95919555,
            "value": -0.578125
          },
          {
            "ticks": 244884,
            "time": 177.967916475,
            "value": -0.546875
          },
          {
            "ticks": 244892,
            "time": 177.973730425,
            "value": -0.5
          },
          {
            "ticks": 244904,
            "time": 177.98245135,
            "value": -0.46875
          },
          {
            "ticks": 244912,
            "time": 177.98826530000002,
            "value": -0.421875
          },
          {
            "ticks": 244920,
            "time": 177.99407925,
            "value": -0.390625
          },
          {
            "ticks": 244932,
            "time": 178.002800175,
            "value": -0.34375
          },
          {
            "ticks": 244940,
            "time": 178.008614125,
            "value": -0.3125
          },
          {
            "ticks": 244952,
            "time": 178.01733505,
            "value": -0.265625
          },
          {
            "ticks": 244960,
            "time": 178.023149,
            "value": -0.234375
          },
          {
            "ticks": 244968,
            "time": 178.02896295000002,
            "value": -0.1875
          },
          {
            "ticks": 244980,
            "time": 178.037683875,
            "value": -0.15625
          },
          {
            "ticks": 244988,
            "time": 178.043497825,
            "value": -0.109375
          },
          {
            "ticks": 245000,
            "time": 178.05221875,
            "value": -0.0625
          },
          {
            "ticks": 245016,
            "time": 178.06384665,
            "value": 0
          },
          {
            "ticks": 245256,
            "time": 178.23826515,
            "value": -0.96875
          },
          {
            "ticks": 245268,
            "time": 178.24698607500002,
            "value": -0.9375
          },
          {
            "ticks": 245276,
            "time": 178.252800025,
            "value": -0.890625
          },
          {
            "ticks": 245288,
            "time": 178.26152095,
            "value": -0.859375
          },
          {
            "ticks": 245296,
            "time": 178.2673349,
            "value": -0.8125
          },
          {
            "ticks": 245304,
            "time": 178.27314885,
            "value": -0.78125
          },
          {
            "ticks": 245316,
            "time": 178.281869775,
            "value": -0.734375
          },
          {
            "ticks": 245324,
            "time": 178.287683725,
            "value": -0.703125
          },
          {
            "ticks": 245336,
            "time": 178.29640465,
            "value": -0.65625
          },
          {
            "ticks": 245344,
            "time": 178.3022186,
            "value": -0.625
          },
          {
            "ticks": 245352,
            "time": 178.30803255,
            "value": -0.578125
          },
          {
            "ticks": 245364,
            "time": 178.316753475,
            "value": -0.546875
          },
          {
            "ticks": 245372,
            "time": 178.32256742500002,
            "value": -0.5
          },
          {
            "ticks": 245384,
            "time": 178.33128835,
            "value": -0.46875
          },
          {
            "ticks": 245392,
            "time": 178.3371023,
            "value": -0.421875
          },
          {
            "ticks": 245400,
            "time": 178.34291625,
            "value": -0.390625
          },
          {
            "ticks": 245412,
            "time": 178.351637175,
            "value": -0.34375
          },
          {
            "ticks": 245420,
            "time": 178.357451125,
            "value": -0.3125
          },
          {
            "ticks": 245432,
            "time": 178.36617205,
            "value": -0.265625
          },
          {
            "ticks": 245440,
            "time": 178.371986,
            "value": -0.234375
          },
          {
            "ticks": 245448,
            "time": 178.37779995000002,
            "value": -0.1875
          },
          {
            "ticks": 245460,
            "time": 178.386520875,
            "value": -0.15625
          },
          {
            "ticks": 245468,
            "time": 178.392334825,
            "value": -0.109375
          },
          {
            "ticks": 245480,
            "time": 178.40105575,
            "value": -0.0625
          },
          {
            "ticks": 245496,
            "time": 178.41268365,
            "value": 0
          },
          {
            "ticks": 245524,
            "time": 178.433032475,
            "value": -0.015625
          },
          {
            "ticks": 245532,
            "time": 178.438846425,
            "value": -0.046875
          },
          {
            "ticks": 245540,
            "time": 178.444660375,
            "value": -0.078125
          },
          {
            "ticks": 245552,
            "time": 178.4533813,
            "value": -0.125
          },
          {
            "ticks": 245560,
            "time": 178.45919525,
            "value": -0.15625
          },
          {
            "ticks": 245572,
            "time": 178.467916175,
            "value": -0.203125
          },
          {
            "ticks": 245580,
            "time": 178.473730125,
            "value": -0.234375
          },
          {
            "ticks": 245588,
            "time": 178.479544075,
            "value": -0.265625
          },
          {
            "ticks": 245600,
            "time": 178.488265,
            "value": -0.3125
          },
          {
            "ticks": 245608,
            "time": 178.49407895000002,
            "value": -0.34375
          },
          {
            "ticks": 245620,
            "time": 178.502799875,
            "value": -0.390625
          },
          {
            "ticks": 245628,
            "time": 178.50861382500003,
            "value": -0.421875
          },
          {
            "ticks": 245636,
            "time": 178.514427775,
            "value": -0.453125
          },
          {
            "ticks": 245648,
            "time": 178.5231487,
            "value": -0.5
          },
          {
            "ticks": 245656,
            "time": 178.52896265,
            "value": -0.53125
          },
          {
            "ticks": 245668,
            "time": 178.53768357500002,
            "value": -0.578125
          },
          {
            "ticks": 245676,
            "time": 178.543497525,
            "value": -0.609375
          },
          {
            "ticks": 245684,
            "time": 178.549311475,
            "value": -0.640625
          },
          {
            "ticks": 245696,
            "time": 178.5580324,
            "value": -0.6875
          },
          {
            "ticks": 245704,
            "time": 178.56384635,
            "value": -0.71875
          },
          {
            "ticks": 245716,
            "time": 178.572567275,
            "value": -0.765625
          },
          {
            "ticks": 245724,
            "time": 178.57838122500002,
            "value": -0.796875
          },
          {
            "ticks": 245732,
            "time": 178.584195175,
            "value": -0.828125
          },
          {
            "ticks": 245744,
            "time": 178.5929161,
            "value": -0.875
          },
          {
            "ticks": 245752,
            "time": 178.59873005,
            "value": -0.90625
          },
          {
            "ticks": 245764,
            "time": 178.607450975,
            "value": -0.953125
          },
          {
            "ticks": 245768,
            "time": 178.61035795,
            "value": -0.859375
          },
          {
            "ticks": 245776,
            "time": 178.61617189999998,
            "value": -0.8125
          },
          {
            "ticks": 245784,
            "time": 178.62198585,
            "value": -0.78125
          },
          {
            "ticks": 245796,
            "time": 178.63070677500002,
            "value": -0.734375
          },
          {
            "ticks": 245804,
            "time": 178.63652072500003,
            "value": -0.703125
          },
          {
            "ticks": 245816,
            "time": 178.64524165,
            "value": -0.65625
          },
          {
            "ticks": 245824,
            "time": 178.6510556,
            "value": -0.625
          },
          {
            "ticks": 245832,
            "time": 178.65686955,
            "value": -0.578125
          },
          {
            "ticks": 245844,
            "time": 178.665590475,
            "value": -0.546875
          },
          {
            "ticks": 245852,
            "time": 178.67140442500002,
            "value": -0.5
          },
          {
            "ticks": 245864,
            "time": 178.68012535000003,
            "value": -0.46875
          },
          {
            "ticks": 245872,
            "time": 178.6859393,
            "value": -0.421875
          },
          {
            "ticks": 245880,
            "time": 178.69175325,
            "value": -0.390625
          },
          {
            "ticks": 245892,
            "time": 178.70047417499998,
            "value": -0.34375
          },
          {
            "ticks": 245900,
            "time": 178.706288125,
            "value": -0.3125
          },
          {
            "ticks": 245912,
            "time": 178.71500905000002,
            "value": -0.265625
          },
          {
            "ticks": 245920,
            "time": 178.72082300000002,
            "value": -0.234375
          },
          {
            "ticks": 245928,
            "time": 178.72663695,
            "value": -0.1875
          },
          {
            "ticks": 245940,
            "time": 178.735357875,
            "value": -0.15625
          },
          {
            "ticks": 245948,
            "time": 178.741171825,
            "value": -0.109375
          },
          {
            "ticks": 245960,
            "time": 178.74989275,
            "value": -0.0625
          },
          {
            "ticks": 245976,
            "time": 178.76152065000002,
            "value": 0
          },
          {
            "ticks": 246204,
            "time": 178.927218225,
            "value": -0.96875
          },
          {
            "ticks": 246216,
            "time": 178.93593915000002,
            "value": -0.9375
          },
          {
            "ticks": 246224,
            "time": 178.94175310000003,
            "value": -0.890625
          },
          {
            "ticks": 246236,
            "time": 178.950474025,
            "value": -0.859375
          },
          {
            "ticks": 246244,
            "time": 178.956287975,
            "value": -0.8125
          },
          {
            "ticks": 246252,
            "time": 178.96210192499998,
            "value": -0.78125
          },
          {
            "ticks": 246264,
            "time": 178.97082285,
            "value": -0.734375
          },
          {
            "ticks": 246272,
            "time": 178.97663680000002,
            "value": -0.703125
          },
          {
            "ticks": 246284,
            "time": 178.98535772500003,
            "value": -0.65625
          },
          {
            "ticks": 246292,
            "time": 178.991171675,
            "value": -0.625
          },
          {
            "ticks": 246300,
            "time": 178.996985625,
            "value": -0.578125
          },
          {
            "ticks": 246312,
            "time": 179.00570654999999,
            "value": -0.546875
          },
          {
            "ticks": 246320,
            "time": 179.0115205,
            "value": -0.5
          },
          {
            "ticks": 246332,
            "time": 179.02024142500002,
            "value": -0.46875
          },
          {
            "ticks": 246340,
            "time": 179.02605537500003,
            "value": -0.421875
          },
          {
            "ticks": 246348,
            "time": 179.031869325,
            "value": -0.390625
          },
          {
            "ticks": 246360,
            "time": 179.04059025,
            "value": -0.34375
          },
          {
            "ticks": 246368,
            "time": 179.0464042,
            "value": -0.3125
          },
          {
            "ticks": 246380,
            "time": 179.055125125,
            "value": -0.265625
          },
          {
            "ticks": 246388,
            "time": 179.060939075,
            "value": -0.234375
          },
          {
            "ticks": 246396,
            "time": 179.06675302500003,
            "value": -0.1875
          },
          {
            "ticks": 246408,
            "time": 179.07547395,
            "value": -0.15625
          },
          {
            "ticks": 246416,
            "time": 179.0812879,
            "value": -0.109375
          },
          {
            "ticks": 246428,
            "time": 179.090008825,
            "value": -0.0625
          },
          {
            "ticks": 246444,
            "time": 179.101636725,
            "value": 0
          },
          {
            "ticks": 246684,
            "time": 179.276055225,
            "value": -0.96875
          },
          {
            "ticks": 246696,
            "time": 179.28477615000003,
            "value": -0.9375
          },
          {
            "ticks": 246704,
            "time": 179.2905901,
            "value": -0.890625
          },
          {
            "ticks": 246716,
            "time": 179.299311025,
            "value": -0.859375
          },
          {
            "ticks": 246724,
            "time": 179.305124975,
            "value": -0.8125
          },
          {
            "ticks": 246732,
            "time": 179.310938925,
            "value": -0.78125
          },
          {
            "ticks": 246744,
            "time": 179.31965985,
            "value": -0.734375
          },
          {
            "ticks": 246752,
            "time": 179.32547380000003,
            "value": -0.703125
          },
          {
            "ticks": 246764,
            "time": 179.334194725,
            "value": -0.65625
          },
          {
            "ticks": 246772,
            "time": 179.340008675,
            "value": -0.625
          },
          {
            "ticks": 246780,
            "time": 179.345822625,
            "value": -0.578125
          },
          {
            "ticks": 246792,
            "time": 179.35454355,
            "value": -0.546875
          },
          {
            "ticks": 246800,
            "time": 179.3603575,
            "value": -0.5
          },
          {
            "ticks": 246812,
            "time": 179.36907842500003,
            "value": -0.46875
          },
          {
            "ticks": 246820,
            "time": 179.37489237500003,
            "value": -0.421875
          },
          {
            "ticks": 246828,
            "time": 179.380706325,
            "value": -0.390625
          },
          {
            "ticks": 246840,
            "time": 179.38942725,
            "value": -0.34375
          },
          {
            "ticks": 246848,
            "time": 179.3952412,
            "value": -0.3125
          },
          {
            "ticks": 246860,
            "time": 179.403962125,
            "value": -0.265625
          },
          {
            "ticks": 246868,
            "time": 179.409776075,
            "value": -0.234375
          },
          {
            "ticks": 246876,
            "time": 179.41559002500003,
            "value": -0.1875
          },
          {
            "ticks": 246888,
            "time": 179.42431095,
            "value": -0.15625
          },
          {
            "ticks": 246896,
            "time": 179.4301249,
            "value": -0.109375
          },
          {
            "ticks": 246908,
            "time": 179.438845825,
            "value": -0.0625
          },
          {
            "ticks": 246924,
            "time": 179.450473725,
            "value": 0
          },
          {
            "ticks": 247164,
            "time": 179.624892225,
            "value": -0.96875
          },
          {
            "ticks": 247176,
            "time": 179.63361315000003,
            "value": -0.9375
          },
          {
            "ticks": 247184,
            "time": 179.6394271,
            "value": -0.890625
          },
          {
            "ticks": 247196,
            "time": 179.648148025,
            "value": -0.859375
          },
          {
            "ticks": 247204,
            "time": 179.65396197500002,
            "value": -0.8125
          },
          {
            "ticks": 247212,
            "time": 179.659775925,
            "value": -0.78125
          },
          {
            "ticks": 247224,
            "time": 179.66849685,
            "value": -0.734375
          },
          {
            "ticks": 247232,
            "time": 179.67431080000003,
            "value": -0.703125
          },
          {
            "ticks": 247244,
            "time": 179.683031725,
            "value": -0.65625
          },
          {
            "ticks": 247252,
            "time": 179.688845675,
            "value": -0.625
          },
          {
            "ticks": 247260,
            "time": 179.694659625,
            "value": -0.578125
          },
          {
            "ticks": 247272,
            "time": 179.70338055,
            "value": -0.546875
          },
          {
            "ticks": 247280,
            "time": 179.7091945,
            "value": -0.5
          },
          {
            "ticks": 247292,
            "time": 179.71791542500003,
            "value": -0.46875
          },
          {
            "ticks": 247300,
            "time": 179.723729375,
            "value": -0.421875
          },
          {
            "ticks": 247308,
            "time": 179.729543325,
            "value": -0.390625
          },
          {
            "ticks": 247320,
            "time": 179.73826425000001,
            "value": -0.34375
          },
          {
            "ticks": 247328,
            "time": 179.7440782,
            "value": -0.3125
          },
          {
            "ticks": 247340,
            "time": 179.752799125,
            "value": -0.265625
          },
          {
            "ticks": 247348,
            "time": 179.758613075,
            "value": -0.234375
          },
          {
            "ticks": 247356,
            "time": 179.76442702500003,
            "value": -0.1875
          },
          {
            "ticks": 247360,
            "time": 179.767334,
            "value": -0.109375
          },
          {
            "ticks": 247368,
            "time": 179.77314795,
            "value": -0.15625
          },
          {
            "ticks": 247376,
            "time": 179.7789619,
            "value": -0.109375
          },
          {
            "ticks": 247388,
            "time": 179.787682825,
            "value": -0.0625
          },
          {
            "ticks": 247404,
            "time": 179.799310725,
            "value": 0
          },
          {
            "ticks": 247424,
            "time": 179.8138456,
            "value": 0
          },
          {
            "ticks": 247668,
            "time": 179.991171075,
            "value": -0.96875
          },
          {
            "ticks": 247680,
            "time": 179.99989200000002,
            "value": -0.9375
          },
          {
            "ticks": 247688,
            "time": 180.00570595,
            "value": -0.890625
          },
          {
            "ticks": 247700,
            "time": 180.014426875,
            "value": -0.859375
          },
          {
            "ticks": 247708,
            "time": 180.02024082499997,
            "value": -0.8125
          },
          {
            "ticks": 247716,
            "time": 180.02605477500003,
            "value": -0.78125
          },
          {
            "ticks": 247728,
            "time": 180.0347757,
            "value": -0.734375
          },
          {
            "ticks": 247736,
            "time": 180.04058965000002,
            "value": -0.703125
          },
          {
            "ticks": 247748,
            "time": 180.049310575,
            "value": -0.65625
          },
          {
            "ticks": 247756,
            "time": 180.055124525,
            "value": -0.625
          },
          {
            "ticks": 247764,
            "time": 180.060938475,
            "value": -0.578125
          },
          {
            "ticks": 247776,
            "time": 180.0696594,
            "value": -0.546875
          },
          {
            "ticks": 247784,
            "time": 180.07547335,
            "value": -0.5
          },
          {
            "ticks": 247796,
            "time": 180.08419427500002,
            "value": -0.46875
          },
          {
            "ticks": 247804,
            "time": 180.090008225,
            "value": -0.421875
          },
          {
            "ticks": 247812,
            "time": 180.095822175,
            "value": -0.390625
          },
          {
            "ticks": 247824,
            "time": 180.1045431,
            "value": -0.34375
          },
          {
            "ticks": 247832,
            "time": 180.11035705000003,
            "value": -0.3125
          },
          {
            "ticks": 247844,
            "time": 180.119077975,
            "value": -0.265625
          },
          {
            "ticks": 247852,
            "time": 180.12489192500001,
            "value": -0.234375
          },
          {
            "ticks": 247860,
            "time": 180.13070587500002,
            "value": -0.1875
          },
          {
            "ticks": 247872,
            "time": 180.1394268,
            "value": -0.15625
          },
          {
            "ticks": 247880,
            "time": 180.14524075,
            "value": -0.109375
          },
          {
            "ticks": 247892,
            "time": 180.15396167500003,
            "value": -0.0625
          },
          {
            "ticks": 247908,
            "time": 180.165589575,
            "value": 0
          },
          {
            "ticks": 248136,
            "time": 180.33128715,
            "value": -0.96875
          },
          {
            "ticks": 248148,
            "time": 180.34000807500001,
            "value": -0.9375
          },
          {
            "ticks": 248156,
            "time": 180.34582202500002,
            "value": -0.890625
          },
          {
            "ticks": 248168,
            "time": 180.35454295,
            "value": -0.859375
          },
          {
            "ticks": 248176,
            "time": 180.3603569,
            "value": -0.8125
          },
          {
            "ticks": 248184,
            "time": 180.36617084999997,
            "value": -0.78125
          },
          {
            "ticks": 248196,
            "time": 180.374891775,
            "value": -0.734375
          },
          {
            "ticks": 248204,
            "time": 180.380705725,
            "value": -0.703125
          },
          {
            "ticks": 248216,
            "time": 180.38942665000002,
            "value": -0.65625
          },
          {
            "ticks": 248224,
            "time": 180.3952406,
            "value": -0.625
          },
          {
            "ticks": 248232,
            "time": 180.40105455,
            "value": -0.578125
          },
          {
            "ticks": 248244,
            "time": 180.40977547499998,
            "value": -0.546875
          },
          {
            "ticks": 248252,
            "time": 180.41558942500004,
            "value": -0.5
          },
          {
            "ticks": 248264,
            "time": 180.42431035,
            "value": -0.46875
          },
          {
            "ticks": 248272,
            "time": 180.43012430000002,
            "value": -0.421875
          },
          {
            "ticks": 248280,
            "time": 180.43593825,
            "value": -0.390625
          },
          {
            "ticks": 248292,
            "time": 180.444659175,
            "value": -0.34375
          },
          {
            "ticks": 248300,
            "time": 180.450473125,
            "value": -0.3125
          },
          {
            "ticks": 248312,
            "time": 180.45919405000004,
            "value": -0.265625
          },
          {
            "ticks": 248320,
            "time": 180.465008,
            "value": -0.234375
          },
          {
            "ticks": 248328,
            "time": 180.47082195000002,
            "value": -0.1875
          },
          {
            "ticks": 248340,
            "time": 180.479542875,
            "value": -0.15625
          },
          {
            "ticks": 248348,
            "time": 180.485356825,
            "value": -0.109375
          },
          {
            "ticks": 248360,
            "time": 180.49407775,
            "value": -0.0625
          },
          {
            "ticks": 248376,
            "time": 180.50570565,
            "value": 0
          },
          {
            "ticks": 248616,
            "time": 180.68012415,
            "value": -0.96875
          },
          {
            "ticks": 248628,
            "time": 180.68884507500002,
            "value": -0.9375
          },
          {
            "ticks": 248636,
            "time": 180.694659025,
            "value": -0.890625
          },
          {
            "ticks": 248648,
            "time": 180.70337995,
            "value": -0.859375
          },
          {
            "ticks": 248656,
            "time": 180.7091939,
            "value": -0.8125
          },
          {
            "ticks": 248664,
            "time": 180.71500784999998,
            "value": -0.78125
          },
          {
            "ticks": 248676,
            "time": 180.723728775,
            "value": -0.734375
          },
          {
            "ticks": 248684,
            "time": 180.72954272500002,
            "value": -0.703125
          },
          {
            "ticks": 248696,
            "time": 180.73826365,
            "value": -0.65625
          },
          {
            "ticks": 248704,
            "time": 180.7440776,
            "value": -0.625
          },
          {
            "ticks": 248712,
            "time": 180.74989155,
            "value": -0.578125
          },
          {
            "ticks": 248724,
            "time": 180.75861247499998,
            "value": -0.546875
          },
          {
            "ticks": 248732,
            "time": 180.764426425,
            "value": -0.5
          },
          {
            "ticks": 248744,
            "time": 180.77314735000002,
            "value": -0.46875
          },
          {
            "ticks": 248752,
            "time": 180.77896130000002,
            "value": -0.421875
          },
          {
            "ticks": 248760,
            "time": 180.78477525,
            "value": -0.390625
          },
          {
            "ticks": 248772,
            "time": 180.793496175,
            "value": -0.34375
          },
          {
            "ticks": 248780,
            "time": 180.799310125,
            "value": -0.3125
          },
          {
            "ticks": 248792,
            "time": 180.80803105,
            "value": -0.265625
          },
          {
            "ticks": 248800,
            "time": 180.81384500000001,
            "value": -0.234375
          },
          {
            "ticks": 248808,
            "time": 180.81965895000002,
            "value": -0.1875
          },
          {
            "ticks": 248820,
            "time": 180.828379875,
            "value": -0.15625
          },
          {
            "ticks": 248828,
            "time": 180.834193825,
            "value": -0.109375
          },
          {
            "ticks": 248840,
            "time": 180.84291474999998,
            "value": -0.0625
          },
          {
            "ticks": 248856,
            "time": 180.85454265,
            "value": 0
          },
          {
            "ticks": 249096,
            "time": 181.02896115000001,
            "value": -0.96875
          },
          {
            "ticks": 249108,
            "time": 181.03768207500002,
            "value": -0.9375
          },
          {
            "ticks": 249116,
            "time": 181.043496025,
            "value": -0.890625
          },
          {
            "ticks": 249128,
            "time": 181.05221695,
            "value": -0.859375
          },
          {
            "ticks": 249136,
            "time": 181.0580309,
            "value": -0.8125
          },
          {
            "ticks": 249144,
            "time": 181.06384484999998,
            "value": -0.78125
          },
          {
            "ticks": 249156,
            "time": 181.07256577500002,
            "value": -0.734375
          },
          {
            "ticks": 249164,
            "time": 181.07837972500002,
            "value": -0.703125
          },
          {
            "ticks": 249176,
            "time": 181.08710065,
            "value": -0.65625
          },
          {
            "ticks": 249184,
            "time": 181.0929146,
            "value": -0.625
          },
          {
            "ticks": 249192,
            "time": 181.09872855,
            "value": -0.578125
          },
          {
            "ticks": 249204,
            "time": 181.10744947499998,
            "value": -0.546875
          },
          {
            "ticks": 249212,
            "time": 181.113263425,
            "value": -0.5
          },
          {
            "ticks": 249224,
            "time": 181.12198435000002,
            "value": -0.46875
          },
          {
            "ticks": 249232,
            "time": 181.12779830000002,
            "value": -0.421875
          },
          {
            "ticks": 249240,
            "time": 181.13361225,
            "value": -0.390625
          },
          {
            "ticks": 249252,
            "time": 181.142333175,
            "value": -0.34375
          },
          {
            "ticks": 249260,
            "time": 181.14814712499998,
            "value": -0.3125
          },
          {
            "ticks": 249272,
            "time": 181.15686805,
            "value": -0.265625
          },
          {
            "ticks": 249280,
            "time": 181.16268200000002,
            "value": -0.234375
          },
          {
            "ticks": 249288,
            "time": 181.16849595000002,
            "value": -0.1875
          },
          {
            "ticks": 249300,
            "time": 181.177216875,
            "value": -0.15625
          },
          {
            "ticks": 249308,
            "time": 181.183030825,
            "value": -0.109375
          },
          {
            "ticks": 249320,
            "time": 181.19175174999998,
            "value": -0.0625
          },
          {
            "ticks": 249336,
            "time": 181.20337965000002,
            "value": 0
          },
          {
            "ticks": 249576,
            "time": 181.37779815000002,
            "value": -0.96875
          },
          {
            "ticks": 249588,
            "time": 181.38651907500002,
            "value": -0.9375
          },
          {
            "ticks": 249596,
            "time": 181.392333025,
            "value": -0.890625
          },
          {
            "ticks": 249608,
            "time": 181.40105395,
            "value": -0.859375
          },
          {
            "ticks": 249616,
            "time": 181.40686789999998,
            "value": -0.8125
          },
          {
            "ticks": 249624,
            "time": 181.41268184999998,
            "value": -0.78125
          },
          {
            "ticks": 249636,
            "time": 181.42140277500002,
            "value": -0.734375
          },
          {
            "ticks": 249644,
            "time": 181.42721672500002,
            "value": -0.703125
          },
          {
            "ticks": 249656,
            "time": 181.43593765,
            "value": -0.65625
          },
          {
            "ticks": 249664,
            "time": 181.4417516,
            "value": -0.625
          },
          {
            "ticks": 249672,
            "time": 181.44756555,
            "value": -0.578125
          },
          {
            "ticks": 249684,
            "time": 181.45628647499998,
            "value": -0.546875
          },
          {
            "ticks": 249692,
            "time": 181.46210042500002,
            "value": -0.5
          },
          {
            "ticks": 249704,
            "time": 181.47082135000002,
            "value": -0.46875
          },
          {
            "ticks": 249712,
            "time": 181.4766353,
            "value": -0.421875
          },
          {
            "ticks": 249720,
            "time": 181.48244925,
            "value": -0.390625
          },
          {
            "ticks": 249732,
            "time": 181.491170175,
            "value": -0.34375
          },
          {
            "ticks": 249740,
            "time": 181.49698412499998,
            "value": -0.3125
          },
          {
            "ticks": 249752,
            "time": 181.50570505000002,
            "value": -0.265625
          },
          {
            "ticks": 249760,
            "time": 181.51151900000002,
            "value": -0.234375
          },
          {
            "ticks": 249768,
            "time": 181.51733295000002,
            "value": -0.1875
          },
          {
            "ticks": 249780,
            "time": 181.526053875,
            "value": -0.15625
          },
          {
            "ticks": 249788,
            "time": 181.531867825,
            "value": -0.109375
          },
          {
            "ticks": 249800,
            "time": 181.54058874999998,
            "value": -0.0625
          },
          {
            "ticks": 249816,
            "time": 181.55221665000002,
            "value": 0
          },
          {
            "ticks": 250044,
            "time": 181.717914225,
            "value": -0.96875
          },
          {
            "ticks": 250056,
            "time": 181.72663515000002,
            "value": -0.9375
          },
          {
            "ticks": 250064,
            "time": 181.73244910000003,
            "value": -0.890625
          },
          {
            "ticks": 250076,
            "time": 181.741170025,
            "value": -0.859375
          },
          {
            "ticks": 250084,
            "time": 181.746983975,
            "value": -0.8125
          },
          {
            "ticks": 250092,
            "time": 181.752797925,
            "value": -0.78125
          },
          {
            "ticks": 250104,
            "time": 181.76151885,
            "value": -0.734375
          },
          {
            "ticks": 250112,
            "time": 181.76733280000002,
            "value": -0.703125
          },
          {
            "ticks": 250124,
            "time": 181.77605372500003,
            "value": -0.65625
          },
          {
            "ticks": 250132,
            "time": 181.781867675,
            "value": -0.625
          },
          {
            "ticks": 250140,
            "time": 181.787681625,
            "value": -0.578125
          },
          {
            "ticks": 250152,
            "time": 181.79640255,
            "value": -0.546875
          },
          {
            "ticks": 250160,
            "time": 181.8022165,
            "value": -0.5
          },
          {
            "ticks": 250172,
            "time": 181.81093742500002,
            "value": -0.46875
          },
          {
            "ticks": 250180,
            "time": 181.81675137500002,
            "value": -0.421875
          },
          {
            "ticks": 250188,
            "time": 181.822565325,
            "value": -0.390625
          },
          {
            "ticks": 250200,
            "time": 181.83128625,
            "value": -0.34375
          },
          {
            "ticks": 250208,
            "time": 181.8371002,
            "value": -0.3125
          },
          {
            "ticks": 250220,
            "time": 181.845821125,
            "value": -0.265625
          },
          {
            "ticks": 250228,
            "time": 181.851635075,
            "value": -0.234375
          },
          {
            "ticks": 250236,
            "time": 181.85744902500002,
            "value": -0.1875
          },
          {
            "ticks": 250248,
            "time": 181.86616995,
            "value": -0.15625
          },
          {
            "ticks": 250256,
            "time": 181.8719839,
            "value": -0.109375
          },
          {
            "ticks": 250268,
            "time": 181.880704825,
            "value": -0.0625
          },
          {
            "ticks": 250284,
            "time": 181.892332725,
            "value": 0
          },
          {
            "ticks": 250524,
            "time": 182.066751225,
            "value": -0.96875
          },
          {
            "ticks": 250536,
            "time": 182.07547215000002,
            "value": -0.9375
          },
          {
            "ticks": 250544,
            "time": 182.08128610000003,
            "value": -0.890625
          },
          {
            "ticks": 250556,
            "time": 182.090007025,
            "value": -0.859375
          },
          {
            "ticks": 250564,
            "time": 182.095820975,
            "value": -0.8125
          },
          {
            "ticks": 250572,
            "time": 182.10163492499998,
            "value": -0.78125
          },
          {
            "ticks": 250584,
            "time": 182.11035585,
            "value": -0.734375
          },
          {
            "ticks": 250592,
            "time": 182.11616980000002,
            "value": -0.703125
          },
          {
            "ticks": 250604,
            "time": 182.12489072500003,
            "value": -0.65625
          },
          {
            "ticks": 250612,
            "time": 182.130704675,
            "value": -0.625
          },
          {
            "ticks": 250620,
            "time": 182.136518625,
            "value": -0.578125
          },
          {
            "ticks": 250632,
            "time": 182.14523954999999,
            "value": -0.546875
          },
          {
            "ticks": 250640,
            "time": 182.1510535,
            "value": -0.5
          },
          {
            "ticks": 250652,
            "time": 182.15977442500002,
            "value": -0.46875
          },
          {
            "ticks": 250660,
            "time": 182.16558837500003,
            "value": -0.421875
          },
          {
            "ticks": 250668,
            "time": 182.171402325,
            "value": -0.390625
          },
          {
            "ticks": 250680,
            "time": 182.18012325,
            "value": -0.34375
          },
          {
            "ticks": 250688,
            "time": 182.1859372,
            "value": -0.3125
          },
          {
            "ticks": 250700,
            "time": 182.194658125,
            "value": -0.265625
          },
          {
            "ticks": 250708,
            "time": 182.200472075,
            "value": -0.234375
          },
          {
            "ticks": 250716,
            "time": 182.20628602500003,
            "value": -0.1875
          },
          {
            "ticks": 250728,
            "time": 182.21500695,
            "value": -0.15625
          },
          {
            "ticks": 250736,
            "time": 182.2208209,
            "value": -0.109375
          },
          {
            "ticks": 250748,
            "time": 182.229541825,
            "value": -0.0625
          },
          {
            "ticks": 250764,
            "time": 182.241169725,
            "value": 0
          },
          {
            "ticks": 251004,
            "time": 182.415588225,
            "value": -0.96875
          },
          {
            "ticks": 251016,
            "time": 182.42430915000003,
            "value": -0.9375
          },
          {
            "ticks": 251024,
            "time": 182.4301231,
            "value": -0.890625
          },
          {
            "ticks": 251036,
            "time": 182.438844025,
            "value": -0.859375
          },
          {
            "ticks": 251044,
            "time": 182.444657975,
            "value": -0.8125
          },
          {
            "ticks": 251052,
            "time": 182.450471925,
            "value": -0.78125
          },
          {
            "ticks": 251064,
            "time": 182.45919285,
            "value": -0.734375
          },
          {
            "ticks": 251072,
            "time": 182.46500680000003,
            "value": -0.703125
          },
          {
            "ticks": 251084,
            "time": 182.473727725,
            "value": -0.65625
          },
          {
            "ticks": 251092,
            "time": 182.479541675,
            "value": -0.625
          },
          {
            "ticks": 251100,
            "time": 182.485355625,
            "value": -0.578125
          },
          {
            "ticks": 251112,
            "time": 182.49407655,
            "value": -0.546875
          },
          {
            "ticks": 251120,
            "time": 182.4998905,
            "value": -0.5
          },
          {
            "ticks": 251132,
            "time": 182.50861142500003,
            "value": -0.46875
          },
          {
            "ticks": 251140,
            "time": 182.51442537500003,
            "value": -0.421875
          },
          {
            "ticks": 251148,
            "time": 182.520239325,
            "value": -0.390625
          },
          {
            "ticks": 251160,
            "time": 182.52896025,
            "value": -0.34375
          },
          {
            "ticks": 251168,
            "time": 182.5347742,
            "value": -0.3125
          },
          {
            "ticks": 251180,
            "time": 182.543495125,
            "value": -0.265625
          },
          {
            "ticks": 251188,
            "time": 182.549309075,
            "value": -0.234375
          },
          {
            "ticks": 251196,
            "time": 182.55512302500003,
            "value": -0.1875
          },
          {
            "ticks": 251200,
            "time": 182.55803000000003,
            "value": -0.109375
          },
          {
            "ticks": 251208,
            "time": 182.56384395,
            "value": -0.15625
          },
          {
            "ticks": 251216,
            "time": 182.5696579,
            "value": -0.109375
          },
          {
            "ticks": 251228,
            "time": 182.578378825,
            "value": -0.0625
          },
          {
            "ticks": 251244,
            "time": 182.590006725,
            "value": 0
          },
          {
            "ticks": 251264,
            "time": 182.6045416,
            "value": 0
          },
          {
            "ticks": 251496,
            "time": 182.77314615000003,
            "value": -0.96875
          },
          {
            "ticks": 251508,
            "time": 182.781867075,
            "value": -0.9375
          },
          {
            "ticks": 251516,
            "time": 182.787681025,
            "value": -0.890625
          },
          {
            "ticks": 251528,
            "time": 182.79640195,
            "value": -0.859375
          },
          {
            "ticks": 251536,
            "time": 182.8022159,
            "value": -0.8125
          },
          {
            "ticks": 251544,
            "time": 182.80802985,
            "value": -0.78125
          },
          {
            "ticks": 251556,
            "time": 182.81675077500003,
            "value": -0.734375
          },
          {
            "ticks": 251564,
            "time": 182.822564725,
            "value": -0.703125
          },
          {
            "ticks": 251576,
            "time": 182.83128565,
            "value": -0.65625
          },
          {
            "ticks": 251584,
            "time": 182.8370996,
            "value": -0.625
          },
          {
            "ticks": 251592,
            "time": 182.84291355,
            "value": -0.578125
          },
          {
            "ticks": 251604,
            "time": 182.851634475,
            "value": -0.546875
          },
          {
            "ticks": 251612,
            "time": 182.85744842500003,
            "value": -0.5
          },
          {
            "ticks": 251624,
            "time": 182.86616935,
            "value": -0.46875
          },
          {
            "ticks": 251632,
            "time": 182.8719833,
            "value": -0.421875
          },
          {
            "ticks": 251640,
            "time": 182.87779725000001,
            "value": -0.390625
          },
          {
            "ticks": 251652,
            "time": 182.886518175,
            "value": -0.34375
          },
          {
            "ticks": 251660,
            "time": 182.892332125,
            "value": -0.3125
          },
          {
            "ticks": 251672,
            "time": 182.90105305000003,
            "value": -0.265625
          },
          {
            "ticks": 251680,
            "time": 182.906867,
            "value": -0.234375
          },
          {
            "ticks": 251688,
            "time": 182.91268095,
            "value": -0.1875
          },
          {
            "ticks": 251700,
            "time": 182.92140187500002,
            "value": -0.15625
          },
          {
            "ticks": 251708,
            "time": 182.927215825,
            "value": -0.109375
          },
          {
            "ticks": 251720,
            "time": 182.93593675,
            "value": -0.0625
          },
          {
            "ticks": 251736,
            "time": 182.94756465000003,
            "value": 0
          },
          {
            "ticks": 251964,
            "time": 183.113262225,
            "value": -0.96875
          },
          {
            "ticks": 251976,
            "time": 183.12198315000003,
            "value": -0.9375
          },
          {
            "ticks": 251984,
            "time": 183.1277971,
            "value": -0.890625
          },
          {
            "ticks": 251996,
            "time": 183.13651802500002,
            "value": -0.859375
          },
          {
            "ticks": 252004,
            "time": 183.142331975,
            "value": -0.8125
          },
          {
            "ticks": 252012,
            "time": 183.148145925,
            "value": -0.78125
          },
          {
            "ticks": 252024,
            "time": 183.15686685,
            "value": -0.734375
          },
          {
            "ticks": 252032,
            "time": 183.16268080000003,
            "value": -0.703125
          },
          {
            "ticks": 252044,
            "time": 183.171401725,
            "value": -0.65625
          },
          {
            "ticks": 252052,
            "time": 183.177215675,
            "value": -0.625
          },
          {
            "ticks": 252060,
            "time": 183.18302962500002,
            "value": -0.578125
          },
          {
            "ticks": 252072,
            "time": 183.19175055,
            "value": -0.546875
          },
          {
            "ticks": 252080,
            "time": 183.1975645,
            "value": -0.5
          },
          {
            "ticks": 252092,
            "time": 183.20628542500003,
            "value": -0.46875
          },
          {
            "ticks": 252100,
            "time": 183.212099375,
            "value": -0.421875
          },
          {
            "ticks": 252108,
            "time": 183.217913325,
            "value": -0.390625
          },
          {
            "ticks": 252120,
            "time": 183.22663425000002,
            "value": -0.34375
          },
          {
            "ticks": 252128,
            "time": 183.2324482,
            "value": -0.3125
          },
          {
            "ticks": 252140,
            "time": 183.241169125,
            "value": -0.265625
          },
          {
            "ticks": 252148,
            "time": 183.24698307499997,
            "value": -0.234375
          },
          {
            "ticks": 252156,
            "time": 183.252797025,
            "value": -0.1875
          },
          {
            "ticks": 252168,
            "time": 183.26151795,
            "value": -0.15625
          },
          {
            "ticks": 252176,
            "time": 183.26733190000002,
            "value": -0.109375
          },
          {
            "ticks": 252188,
            "time": 183.276052825,
            "value": -0.0625
          },
          {
            "ticks": 252204,
            "time": 183.287680725,
            "value": 0
          },
          {
            "ticks": 252444,
            "time": 183.46209922499997,
            "value": -0.96875
          },
          {
            "ticks": 252456,
            "time": 183.47082015,
            "value": -0.9375
          },
          {
            "ticks": 252464,
            "time": 183.4766341,
            "value": -0.890625
          },
          {
            "ticks": 252476,
            "time": 183.48535502500002,
            "value": -0.859375
          },
          {
            "ticks": 252484,
            "time": 183.491168975,
            "value": -0.8125
          },
          {
            "ticks": 252492,
            "time": 183.496982925,
            "value": -0.78125
          },
          {
            "ticks": 252504,
            "time": 183.50570384999997,
            "value": -0.734375
          },
          {
            "ticks": 252512,
            "time": 183.51151780000004,
            "value": -0.703125
          },
          {
            "ticks": 252524,
            "time": 183.520238725,
            "value": -0.65625
          },
          {
            "ticks": 252532,
            "time": 183.52605267500002,
            "value": -0.625
          },
          {
            "ticks": 252540,
            "time": 183.531866625,
            "value": -0.578125
          },
          {
            "ticks": 252552,
            "time": 183.54058755,
            "value": -0.546875
          },
          {
            "ticks": 252560,
            "time": 183.5464015,
            "value": -0.5
          },
          {
            "ticks": 252572,
            "time": 183.55512242500004,
            "value": -0.46875
          },
          {
            "ticks": 252580,
            "time": 183.560936375,
            "value": -0.421875
          },
          {
            "ticks": 252588,
            "time": 183.56675032500002,
            "value": -0.390625
          },
          {
            "ticks": 252600,
            "time": 183.57547125,
            "value": -0.34375
          },
          {
            "ticks": 252608,
            "time": 183.5812852,
            "value": -0.3125
          },
          {
            "ticks": 252620,
            "time": 183.590006125,
            "value": -0.265625
          },
          {
            "ticks": 252628,
            "time": 183.59582007499998,
            "value": -0.234375
          },
          {
            "ticks": 252636,
            "time": 183.601634025,
            "value": -0.1875
          },
          {
            "ticks": 252648,
            "time": 183.61035495000002,
            "value": -0.15625
          },
          {
            "ticks": 252656,
            "time": 183.61616890000002,
            "value": -0.109375
          },
          {
            "ticks": 252668,
            "time": 183.624889825,
            "value": -0.0625
          },
          {
            "ticks": 252684,
            "time": 183.63651772499998,
            "value": 0
          },
          {
            "ticks": 252924,
            "time": 183.81093622499998,
            "value": -0.96875
          },
          {
            "ticks": 252936,
            "time": 183.81965715,
            "value": -0.9375
          },
          {
            "ticks": 252944,
            "time": 183.82547110000002,
            "value": -0.890625
          },
          {
            "ticks": 252956,
            "time": 183.834192025,
            "value": -0.859375
          },
          {
            "ticks": 252964,
            "time": 183.840005975,
            "value": -0.8125
          },
          {
            "ticks": 252972,
            "time": 183.845819925,
            "value": -0.78125
          },
          {
            "ticks": 252984,
            "time": 183.85454084999998,
            "value": -0.734375
          },
          {
            "ticks": 252992,
            "time": 183.8603548,
            "value": -0.703125
          },
          {
            "ticks": 253004,
            "time": 183.86907572500002,
            "value": -0.65625
          },
          {
            "ticks": 253012,
            "time": 183.87488967500002,
            "value": -0.625
          },
          {
            "ticks": 253020,
            "time": 183.880703625,
            "value": -0.578125
          },
          {
            "ticks": 253032,
            "time": 183.88942455,
            "value": -0.546875
          },
          {
            "ticks": 253040,
            "time": 183.8952385,
            "value": -0.5
          },
          {
            "ticks": 253052,
            "time": 183.903959425,
            "value": -0.46875
          },
          {
            "ticks": 253060,
            "time": 183.90977337500001,
            "value": -0.421875
          },
          {
            "ticks": 253068,
            "time": 183.91558732500002,
            "value": -0.390625
          },
          {
            "ticks": 253080,
            "time": 183.92430825,
            "value": -0.34375
          },
          {
            "ticks": 253088,
            "time": 183.9301222,
            "value": -0.3125
          },
          {
            "ticks": 253100,
            "time": 183.93884312499998,
            "value": -0.265625
          },
          {
            "ticks": 253108,
            "time": 183.94465707499998,
            "value": -0.234375
          },
          {
            "ticks": 253116,
            "time": 183.950471025,
            "value": -0.1875
          },
          {
            "ticks": 253128,
            "time": 183.95919195000002,
            "value": -0.15625
          },
          {
            "ticks": 253136,
            "time": 183.9650059,
            "value": -0.109375
          },
          {
            "ticks": 253148,
            "time": 183.973726825,
            "value": -0.0625
          },
          {
            "ticks": 253164,
            "time": 183.98535472499998,
            "value": 0
          },
          {
            "ticks": 253192,
            "time": 184.00570355000002,
            "value": -0.015625
          },
          {
            "ticks": 253200,
            "time": 184.0115175,
            "value": -0.046875
          },
          {
            "ticks": 253208,
            "time": 184.01733145,
            "value": -0.078125
          },
          {
            "ticks": 253220,
            "time": 184.02605237499998,
            "value": -0.125
          },
          {
            "ticks": 253228,
            "time": 184.03186632499998,
            "value": -0.15625
          },
          {
            "ticks": 253240,
            "time": 184.04058725000002,
            "value": -0.203125
          },
          {
            "ticks": 253248,
            "time": 184.04640120000002,
            "value": -0.234375
          },
          {
            "ticks": 253256,
            "time": 184.05221515,
            "value": -0.265625
          },
          {
            "ticks": 253268,
            "time": 184.060936075,
            "value": -0.3125
          },
          {
            "ticks": 253276,
            "time": 184.066750025,
            "value": -0.34375
          },
          {
            "ticks": 253288,
            "time": 184.07547094999998,
            "value": -0.390625
          },
          {
            "ticks": 253296,
            "time": 184.0812849,
            "value": -0.421875
          },
          {
            "ticks": 253304,
            "time": 184.08709885000002,
            "value": -0.453125
          },
          {
            "ticks": 253316,
            "time": 184.095819775,
            "value": -0.5
          },
          {
            "ticks": 253324,
            "time": 184.101633725,
            "value": -0.53125
          },
          {
            "ticks": 253336,
            "time": 184.11035465,
            "value": -0.578125
          },
          {
            "ticks": 253344,
            "time": 184.11616859999998,
            "value": -0.609375
          },
          {
            "ticks": 253352,
            "time": 184.12198255,
            "value": -0.640625
          },
          {
            "ticks": 253364,
            "time": 184.13070347500002,
            "value": -0.6875
          },
          {
            "ticks": 253372,
            "time": 184.13651742500002,
            "value": -0.71875
          },
          {
            "ticks": 253384,
            "time": 184.14523835,
            "value": -0.765625
          },
          {
            "ticks": 253392,
            "time": 184.1510523,
            "value": -0.796875
          },
          {
            "ticks": 253400,
            "time": 184.15686624999998,
            "value": -0.828125
          },
          {
            "ticks": 253412,
            "time": 184.165587175,
            "value": -0.875
          },
          {
            "ticks": 253420,
            "time": 184.17140112500002,
            "value": -0.90625
          },
          {
            "ticks": 253432,
            "time": 184.18012205000002,
            "value": -0.953125
          },
          {
            "ticks": 253436,
            "time": 184.183029025,
            "value": -0.859375
          },
          {
            "ticks": 253444,
            "time": 184.188842975,
            "value": -0.8125
          },
          {
            "ticks": 253452,
            "time": 184.194656925,
            "value": -0.78125
          },
          {
            "ticks": 253464,
            "time": 184.20337784999998,
            "value": -0.734375
          },
          {
            "ticks": 253472,
            "time": 184.2091918,
            "value": -0.703125
          },
          {
            "ticks": 253484,
            "time": 184.21791272500002,
            "value": -0.65625
          },
          {
            "ticks": 253492,
            "time": 184.22372667500002,
            "value": -0.625
          },
          {
            "ticks": 253500,
            "time": 184.229540625,
            "value": -0.578125
          },
          {
            "ticks": 253512,
            "time": 184.23826155,
            "value": -0.546875
          },
          {
            "ticks": 253520,
            "time": 184.24407549999998,
            "value": -0.5
          },
          {
            "ticks": 253532,
            "time": 184.252796425,
            "value": -0.46875
          },
          {
            "ticks": 253540,
            "time": 184.25861037500002,
            "value": -0.421875
          },
          {
            "ticks": 253548,
            "time": 184.26442432500002,
            "value": -0.390625
          },
          {
            "ticks": 253560,
            "time": 184.27314525,
            "value": -0.34375
          },
          {
            "ticks": 253568,
            "time": 184.2789592,
            "value": -0.3125
          },
          {
            "ticks": 253580,
            "time": 184.28768012499998,
            "value": -0.265625
          },
          {
            "ticks": 253588,
            "time": 184.29349407499998,
            "value": -0.234375
          },
          {
            "ticks": 253596,
            "time": 184.29930802500002,
            "value": -0.1875
          },
          {
            "ticks": 253608,
            "time": 184.30802895000002,
            "value": -0.15625
          },
          {
            "ticks": 253616,
            "time": 184.3138429,
            "value": -0.109375
          },
          {
            "ticks": 253628,
            "time": 184.322563825,
            "value": -0.0625
          },
          {
            "ticks": 253644,
            "time": 184.33419172499998,
            "value": 0
          },
          {
            "ticks": 253872,
            "time": 184.4998893,
            "value": -0.96875
          },
          {
            "ticks": 253884,
            "time": 184.50861022499998,
            "value": -0.9375
          },
          {
            "ticks": 253892,
            "time": 184.51442417500002,
            "value": -0.890625
          },
          {
            "ticks": 253904,
            "time": 184.52314510000002,
            "value": -0.859375
          },
          {
            "ticks": 253912,
            "time": 184.52895905,
            "value": -0.8125
          },
          {
            "ticks": 253920,
            "time": 184.534773,
            "value": -0.78125
          },
          {
            "ticks": 253932,
            "time": 184.543493925,
            "value": -0.734375
          },
          {
            "ticks": 253940,
            "time": 184.54930787499998,
            "value": -0.703125
          },
          {
            "ticks": 253952,
            "time": 184.55802880000002,
            "value": -0.65625
          },
          {
            "ticks": 253960,
            "time": 184.56384275000002,
            "value": -0.625
          },
          {
            "ticks": 253968,
            "time": 184.56965670000002,
            "value": -0.578125
          },
          {
            "ticks": 253980,
            "time": 184.578377625,
            "value": -0.546875
          },
          {
            "ticks": 253988,
            "time": 184.584191575,
            "value": -0.5
          },
          {
            "ticks": 254000,
            "time": 184.59291249999998,
            "value": -0.46875
          },
          {
            "ticks": 254008,
            "time": 184.59872645,
            "value": -0.421875
          },
          {
            "ticks": 254016,
            "time": 184.60454040000002,
            "value": -0.390625
          },
          {
            "ticks": 254028,
            "time": 184.61326132500002,
            "value": -0.34375
          },
          {
            "ticks": 254036,
            "time": 184.619075275,
            "value": -0.3125
          },
          {
            "ticks": 254048,
            "time": 184.6277962,
            "value": -0.265625
          },
          {
            "ticks": 254056,
            "time": 184.63361014999998,
            "value": -0.234375
          },
          {
            "ticks": 254064,
            "time": 184.63942409999999,
            "value": -0.1875
          },
          {
            "ticks": 254076,
            "time": 184.64814502500002,
            "value": -0.15625
          },
          {
            "ticks": 254084,
            "time": 184.65395897500002,
            "value": -0.109375
          },
          {
            "ticks": 254096,
            "time": 184.6626799,
            "value": -0.0625
          },
          {
            "ticks": 254112,
            "time": 184.6743078,
            "value": 0
          },
          {
            "ticks": 254352,
            "time": 184.8487263,
            "value": -0.96875
          },
          {
            "ticks": 254364,
            "time": 184.857447225,
            "value": -0.9375
          },
          {
            "ticks": 254372,
            "time": 184.86326117500002,
            "value": -0.890625
          },
          {
            "ticks": 254384,
            "time": 184.87198210000003,
            "value": -0.859375
          },
          {
            "ticks": 254392,
            "time": 184.87779605,
            "value": -0.8125
          },
          {
            "ticks": 254400,
            "time": 184.88361,
            "value": -0.78125
          },
          {
            "ticks": 254412,
            "time": 184.892330925,
            "value": -0.734375
          },
          {
            "ticks": 254420,
            "time": 184.89814487499999,
            "value": -0.703125
          },
          {
            "ticks": 254432,
            "time": 184.90686580000002,
            "value": -0.65625
          },
          {
            "ticks": 254440,
            "time": 184.91267975000002,
            "value": -0.625
          },
          {
            "ticks": 254448,
            "time": 184.9184937,
            "value": -0.578125
          },
          {
            "ticks": 254460,
            "time": 184.927214625,
            "value": -0.546875
          },
          {
            "ticks": 254468,
            "time": 184.933028575,
            "value": -0.5
          },
          {
            "ticks": 254480,
            "time": 184.9417495,
            "value": -0.46875
          },
          {
            "ticks": 254488,
            "time": 184.94756345,
            "value": -0.421875
          },
          {
            "ticks": 254496,
            "time": 184.95337740000002,
            "value": -0.390625
          },
          {
            "ticks": 254508,
            "time": 184.962098325,
            "value": -0.34375
          },
          {
            "ticks": 254516,
            "time": 184.967912275,
            "value": -0.3125
          },
          {
            "ticks": 254528,
            "time": 184.9766332,
            "value": -0.265625
          },
          {
            "ticks": 254536,
            "time": 184.98244714999998,
            "value": -0.234375
          },
          {
            "ticks": 254544,
            "time": 184.9882611,
            "value": -0.1875
          },
          {
            "ticks": 254556,
            "time": 184.99698202500002,
            "value": -0.15625
          },
          {
            "ticks": 254564,
            "time": 185.00279597500003,
            "value": -0.109375
          },
          {
            "ticks": 254576,
            "time": 185.0115169,
            "value": -0.0625
          },
          {
            "ticks": 254592,
            "time": 185.02314479999998,
            "value": 0
          },
          {
            "ticks": 254832,
            "time": 185.19756329999998,
            "value": -0.96875
          },
          {
            "ticks": 254844,
            "time": 185.206284225,
            "value": -0.9375
          },
          {
            "ticks": 254852,
            "time": 185.21209817500002,
            "value": -0.890625
          },
          {
            "ticks": 254864,
            "time": 185.22081910000003,
            "value": -0.859375
          },
          {
            "ticks": 254872,
            "time": 185.22663305,
            "value": -0.8125
          },
          {
            "ticks": 254880,
            "time": 185.232447,
            "value": -0.78125
          },
          {
            "ticks": 254892,
            "time": 185.24116792499998,
            "value": -0.734375
          },
          {
            "ticks": 254900,
            "time": 185.246981875,
            "value": -0.703125
          },
          {
            "ticks": 254912,
            "time": 185.25570280000002,
            "value": -0.65625
          },
          {
            "ticks": 254920,
            "time": 185.26151675000003,
            "value": -0.625
          },
          {
            "ticks": 254928,
            "time": 185.2673307,
            "value": -0.578125
          },
          {
            "ticks": 254940,
            "time": 185.276051625,
            "value": -0.546875
          },
          {
            "ticks": 254948,
            "time": 185.281865575,
            "value": -0.5
          },
          {
            "ticks": 254960,
            "time": 185.2905865,
            "value": -0.46875
          },
          {
            "ticks": 254968,
            "time": 185.29640045,
            "value": -0.421875
          },
          {
            "ticks": 254976,
            "time": 185.30221440000003,
            "value": -0.390625
          },
          {
            "ticks": 254988,
            "time": 185.310935325,
            "value": -0.34375
          },
          {
            "ticks": 254996,
            "time": 185.316749275,
            "value": -0.3125
          },
          {
            "ticks": 255008,
            "time": 185.3254702,
            "value": -0.265625
          },
          {
            "ticks": 255016,
            "time": 185.33128415,
            "value": -0.234375
          },
          {
            "ticks": 255024,
            "time": 185.3370981,
            "value": -0.1875
          },
          {
            "ticks": 255028,
            "time": 185.340005075,
            "value": -0.109375
          },
          {
            "ticks": 255036,
            "time": 185.34581902500003,
            "value": -0.15625
          },
          {
            "ticks": 255044,
            "time": 185.351632975,
            "value": -0.109375
          },
          {
            "ticks": 255056,
            "time": 185.3603539,
            "value": -0.0625
          },
          {
            "ticks": 255072,
            "time": 185.3719818,
            "value": 0
          },
          {
            "ticks": 255092,
            "time": 185.38651667500002,
            "value": 0
          },
          {
            "ticks": 255348,
            "time": 185.572563075,
            "value": -0.96875
          },
          {
            "ticks": 255360,
            "time": 185.581284,
            "value": -0.9375
          },
          {
            "ticks": 255368,
            "time": 185.58709795,
            "value": -0.890625
          },
          {
            "ticks": 255380,
            "time": 185.595818875,
            "value": -0.859375
          },
          {
            "ticks": 255388,
            "time": 185.601632825,
            "value": -0.8125
          },
          {
            "ticks": 255396,
            "time": 185.60744677500003,
            "value": -0.78125
          },
          {
            "ticks": 255408,
            "time": 185.6161677,
            "value": -0.734375
          },
          {
            "ticks": 255416,
            "time": 185.62198165,
            "value": -0.703125
          },
          {
            "ticks": 255428,
            "time": 185.630702575,
            "value": -0.65625
          },
          {
            "ticks": 255436,
            "time": 185.636516525,
            "value": -0.625
          },
          {
            "ticks": 255444,
            "time": 185.642330475,
            "value": -0.578125
          },
          {
            "ticks": 255456,
            "time": 185.65105140000003,
            "value": -0.546875
          },
          {
            "ticks": 255464,
            "time": 185.65686535,
            "value": -0.5
          },
          {
            "ticks": 255476,
            "time": 185.665586275,
            "value": -0.46875
          },
          {
            "ticks": 255484,
            "time": 185.671400225,
            "value": -0.421875
          },
          {
            "ticks": 255492,
            "time": 185.677214175,
            "value": -0.390625
          },
          {
            "ticks": 255504,
            "time": 185.6859351,
            "value": -0.34375
          },
          {
            "ticks": 255512,
            "time": 185.69174905000003,
            "value": -0.3125
          },
          {
            "ticks": 255524,
            "time": 185.700469975,
            "value": -0.265625
          },
          {
            "ticks": 255532,
            "time": 185.706283925,
            "value": -0.234375
          },
          {
            "ticks": 255540,
            "time": 185.712097875,
            "value": -0.1875
          },
          {
            "ticks": 255552,
            "time": 185.7208188,
            "value": -0.15625
          },
          {
            "ticks": 255560,
            "time": 185.72663275,
            "value": -0.109375
          },
          {
            "ticks": 255572,
            "time": 185.73535367500003,
            "value": -0.0625
          },
          {
            "ticks": 255588,
            "time": 185.746981575,
            "value": 0
          },
          {
            "ticks": 255816,
            "time": 185.91267915000003,
            "value": -0.96875
          },
          {
            "ticks": 255828,
            "time": 185.921400075,
            "value": -0.9375
          },
          {
            "ticks": 255836,
            "time": 185.927214025,
            "value": -0.890625
          },
          {
            "ticks": 255848,
            "time": 185.93593495,
            "value": -0.859375
          },
          {
            "ticks": 255856,
            "time": 185.9417489,
            "value": -0.8125
          },
          {
            "ticks": 255864,
            "time": 185.94756285,
            "value": -0.78125
          },
          {
            "ticks": 255876,
            "time": 185.95628377500003,
            "value": -0.734375
          },
          {
            "ticks": 255884,
            "time": 185.962097725,
            "value": -0.703125
          },
          {
            "ticks": 255896,
            "time": 185.97081865,
            "value": -0.65625
          },
          {
            "ticks": 255904,
            "time": 185.9766326,
            "value": -0.625
          },
          {
            "ticks": 255912,
            "time": 185.98244655,
            "value": -0.578125
          },
          {
            "ticks": 255924,
            "time": 185.991167475,
            "value": -0.546875
          },
          {
            "ticks": 255932,
            "time": 185.99698142500003,
            "value": -0.5
          },
          {
            "ticks": 255944,
            "time": 186.00570235,
            "value": -0.46875
          },
          {
            "ticks": 255952,
            "time": 186.0115163,
            "value": -0.421875
          },
          {
            "ticks": 255960,
            "time": 186.01733025000001,
            "value": -0.390625
          },
          {
            "ticks": 255972,
            "time": 186.026051175,
            "value": -0.34375
          },
          {
            "ticks": 255980,
            "time": 186.031865125,
            "value": -0.3125
          },
          {
            "ticks": 255992,
            "time": 186.04058605000003,
            "value": -0.265625
          },
          {
            "ticks": 256000,
            "time": 186.0464,
            "value": -0.234375
          },
          {
            "ticks": 256008,
            "time": 186.05221395,
            "value": -0.1875
          },
          {
            "ticks": 256020,
            "time": 186.06093487500002,
            "value": -0.15625
          },
          {
            "ticks": 256028,
            "time": 186.066748825,
            "value": -0.109375
          },
          {
            "ticks": 256040,
            "time": 186.07546975,
            "value": -0.0625
          },
          {
            "ticks": 256056,
            "time": 186.08709765000003,
            "value": 0
          },
          {
            "ticks": 256296,
            "time": 186.26151615000003,
            "value": -0.96875
          },
          {
            "ticks": 256308,
            "time": 186.270237075,
            "value": -0.9375
          },
          {
            "ticks": 256316,
            "time": 186.27605102500002,
            "value": -0.890625
          },
          {
            "ticks": 256328,
            "time": 186.28477195,
            "value": -0.859375
          },
          {
            "ticks": 256336,
            "time": 186.2905859,
            "value": -0.8125
          },
          {
            "ticks": 256344,
            "time": 186.29639985,
            "value": -0.78125
          },
          {
            "ticks": 256356,
            "time": 186.30512077500003,
            "value": -0.734375
          },
          {
            "ticks": 256364,
            "time": 186.310934725,
            "value": -0.703125
          },
          {
            "ticks": 256376,
            "time": 186.31965565000002,
            "value": -0.65625
          },
          {
            "ticks": 256384,
            "time": 186.3254696,
            "value": -0.625
          },
          {
            "ticks": 256392,
            "time": 186.33128355,
            "value": -0.578125
          },
          {
            "ticks": 256404,
            "time": 186.340004475,
            "value": -0.546875
          },
          {
            "ticks": 256412,
            "time": 186.34581842500003,
            "value": -0.5
          },
          {
            "ticks": 256424,
            "time": 186.35453935,
            "value": -0.46875
          },
          {
            "ticks": 256432,
            "time": 186.3603533,
            "value": -0.421875
          },
          {
            "ticks": 256440,
            "time": 186.36616725000002,
            "value": -0.390625
          },
          {
            "ticks": 256452,
            "time": 186.374888175,
            "value": -0.34375
          },
          {
            "ticks": 256460,
            "time": 186.380702125,
            "value": -0.3125
          },
          {
            "ticks": 256472,
            "time": 186.38942305000003,
            "value": -0.265625
          },
          {
            "ticks": 256480,
            "time": 186.395237,
            "value": -0.234375
          },
          {
            "ticks": 256488,
            "time": 186.40105095,
            "value": -0.1875
          },
          {
            "ticks": 256500,
            "time": 186.40977187500002,
            "value": -0.15625
          },
          {
            "ticks": 256508,
            "time": 186.415585825,
            "value": -0.109375
          },
          {
            "ticks": 256520,
            "time": 186.42430675,
            "value": -0.0625
          },
          {
            "ticks": 256536,
            "time": 186.43593465,
            "value": 0
          },
          {
            "ticks": 256776,
            "time": 186.61035315,
            "value": -0.96875
          },
          {
            "ticks": 256788,
            "time": 186.61907407500001,
            "value": -0.9375
          },
          {
            "ticks": 256796,
            "time": 186.62488802500002,
            "value": -0.890625
          },
          {
            "ticks": 256808,
            "time": 186.63360895,
            "value": -0.859375
          },
          {
            "ticks": 256816,
            "time": 186.6394229,
            "value": -0.8125
          },
          {
            "ticks": 256824,
            "time": 186.64523684999997,
            "value": -0.78125
          },
          {
            "ticks": 256836,
            "time": 186.653957775,
            "value": -0.734375
          },
          {
            "ticks": 256844,
            "time": 186.659771725,
            "value": -0.703125
          },
          {
            "ticks": 256856,
            "time": 186.66849265000002,
            "value": -0.65625
          },
          {
            "ticks": 256864,
            "time": 186.6743066,
            "value": -0.625
          },
          {
            "ticks": 256872,
            "time": 186.68012055,
            "value": -0.578125
          },
          {
            "ticks": 256884,
            "time": 186.68884147499998,
            "value": -0.546875
          },
          {
            "ticks": 256892,
            "time": 186.69465542500004,
            "value": -0.5
          },
          {
            "ticks": 256904,
            "time": 186.70337635,
            "value": -0.46875
          },
          {
            "ticks": 256912,
            "time": 186.70919030000002,
            "value": -0.421875
          },
          {
            "ticks": 256920,
            "time": 186.71500425,
            "value": -0.390625
          },
          {
            "ticks": 256932,
            "time": 186.723725175,
            "value": -0.34375
          },
          {
            "ticks": 256940,
            "time": 186.729539125,
            "value": -0.3125
          },
          {
            "ticks": 256952,
            "time": 186.73826005000004,
            "value": -0.265625
          },
          {
            "ticks": 256960,
            "time": 186.744074,
            "value": -0.234375
          },
          {
            "ticks": 256968,
            "time": 186.74988795000002,
            "value": -0.1875
          },
          {
            "ticks": 256980,
            "time": 186.758608875,
            "value": -0.15625
          },
          {
            "ticks": 256988,
            "time": 186.764422825,
            "value": -0.109375
          },
          {
            "ticks": 257000,
            "time": 186.77314375,
            "value": -0.0625
          },
          {
            "ticks": 257016,
            "time": 186.78477165,
            "value": 0
          },
          {
            "ticks": 257256,
            "time": 186.95919015,
            "value": -0.96875
          },
          {
            "ticks": 257268,
            "time": 186.96791107500002,
            "value": -0.9375
          },
          {
            "ticks": 257276,
            "time": 186.973725025,
            "value": -0.890625
          },
          {
            "ticks": 257288,
            "time": 186.98244595,
            "value": -0.859375
          },
          {
            "ticks": 257296,
            "time": 186.9882599,
            "value": -0.8125
          },
          {
            "ticks": 257304,
            "time": 186.99407384999998,
            "value": -0.78125
          },
          {
            "ticks": 257316,
            "time": 187.002794775,
            "value": -0.734375
          },
          {
            "ticks": 257324,
            "time": 187.00860872500002,
            "value": -0.703125
          },
          {
            "ticks": 257336,
            "time": 187.01732965,
            "value": -0.65625
          },
          {
            "ticks": 257344,
            "time": 187.0231436,
            "value": -0.625
          },
          {
            "ticks": 257352,
            "time": 187.02895755,
            "value": -0.578125
          },
          {
            "ticks": 257364,
            "time": 187.03767847499998,
            "value": -0.546875
          },
          {
            "ticks": 257372,
            "time": 187.043492425,
            "value": -0.5
          },
          {
            "ticks": 257384,
            "time": 187.05221335000002,
            "value": -0.46875
          },
          {
            "ticks": 257392,
            "time": 187.05802730000002,
            "value": -0.421875
          },
          {
            "ticks": 257400,
            "time": 187.06384125,
            "value": -0.390625
          },
          {
            "ticks": 257412,
            "time": 187.072562175,
            "value": -0.34375
          },
          {
            "ticks": 257420,
            "time": 187.07837612499998,
            "value": -0.3125
          },
          {
            "ticks": 257432,
            "time": 187.08709705,
            "value": -0.265625
          },
          {
            "ticks": 257440,
            "time": 187.09291100000002,
            "value": -0.234375
          },
          {
            "ticks": 257448,
            "time": 187.09872495000002,
            "value": -0.1875
          },
          {
            "ticks": 257460,
            "time": 187.107445875,
            "value": -0.15625
          },
          {
            "ticks": 257468,
            "time": 187.113259825,
            "value": -0.109375
          },
          {
            "ticks": 257480,
            "time": 187.12198074999998,
            "value": -0.0625
          },
          {
            "ticks": 257496,
            "time": 187.13360865,
            "value": 0
          },
          {
            "ticks": 257724,
            "time": 187.29930622499998,
            "value": -0.96875
          },
          {
            "ticks": 257736,
            "time": 187.30802715000002,
            "value": -0.9375
          },
          {
            "ticks": 257744,
            "time": 187.31384110000002,
            "value": -0.890625
          },
          {
            "ticks": 257756,
            "time": 187.322562025,
            "value": -0.859375
          },
          {
            "ticks": 257764,
            "time": 187.328375975,
            "value": -0.8125
          },
          {
            "ticks": 257772,
            "time": 187.334189925,
            "value": -0.78125
          },
          {
            "ticks": 257784,
            "time": 187.34291084999998,
            "value": -0.734375
          },
          {
            "ticks": 257792,
            "time": 187.3487248,
            "value": -0.703125
          },
          {
            "ticks": 257804,
            "time": 187.35744572500002,
            "value": -0.65625
          },
          {
            "ticks": 257812,
            "time": 187.36325967500002,
            "value": -0.625
          },
          {
            "ticks": 257820,
            "time": 187.369073625,
            "value": -0.578125
          },
          {
            "ticks": 257832,
            "time": 187.37779455,
            "value": -0.546875
          },
          {
            "ticks": 257840,
            "time": 187.38360849999998,
            "value": -0.5
          },
          {
            "ticks": 257852,
            "time": 187.392329425,
            "value": -0.46875
          },
          {
            "ticks": 257860,
            "time": 187.39814337500002,
            "value": -0.421875
          },
          {
            "ticks": 257868,
            "time": 187.40395732500002,
            "value": -0.390625
          },
          {
            "ticks": 257880,
            "time": 187.41267825,
            "value": -0.34375
          },
          {
            "ticks": 257888,
            "time": 187.4184922,
            "value": -0.3125
          },
          {
            "ticks": 257900,
            "time": 187.42721312499998,
            "value": -0.265625
          },
          {
            "ticks": 257908,
            "time": 187.43302707499998,
            "value": -0.234375
          },
          {
            "ticks": 257916,
            "time": 187.43884102500002,
            "value": -0.1875
          },
          {
            "ticks": 257928,
            "time": 187.44756195000002,
            "value": -0.15625
          },
          {
            "ticks": 257936,
            "time": 187.4533759,
            "value": -0.109375
          },
          {
            "ticks": 257948,
            "time": 187.462096825,
            "value": -0.0625
          },
          {
            "ticks": 257964,
            "time": 187.47372472499998,
            "value": 0
          },
          {
            "ticks": 258204,
            "time": 187.64814322499998,
            "value": -0.96875
          },
          {
            "ticks": 258216,
            "time": 187.65686415000002,
            "value": -0.9375
          },
          {
            "ticks": 258224,
            "time": 187.66267810000002,
            "value": -0.890625
          },
          {
            "ticks": 258236,
            "time": 187.671399025,
            "value": -0.859375
          },
          {
            "ticks": 258244,
            "time": 187.677212975,
            "value": -0.8125
          },
          {
            "ticks": 258252,
            "time": 187.683026925,
            "value": -0.78125
          },
          {
            "ticks": 258264,
            "time": 187.69174784999998,
            "value": -0.734375
          },
          {
            "ticks": 258272,
            "time": 187.69756180000002,
            "value": -0.703125
          },
          {
            "ticks": 258284,
            "time": 187.70628272500002,
            "value": -0.65625
          },
          {
            "ticks": 258292,
            "time": 187.712096675,
            "value": -0.625
          },
          {
            "ticks": 258300,
            "time": 187.717910625,
            "value": -0.578125
          },
          {
            "ticks": 258312,
            "time": 187.72663155,
            "value": -0.546875
          },
          {
            "ticks": 258320,
            "time": 187.73244549999998,
            "value": -0.5
          },
          {
            "ticks": 258332,
            "time": 187.74116642500002,
            "value": -0.46875
          },
          {
            "ticks": 258340,
            "time": 187.74698037500002,
            "value": -0.421875
          },
          {
            "ticks": 258348,
            "time": 187.75279432500002,
            "value": -0.390625
          },
          {
            "ticks": 258360,
            "time": 187.76151525,
            "value": -0.34375
          },
          {
            "ticks": 258368,
            "time": 187.7673292,
            "value": -0.3125
          },
          {
            "ticks": 258380,
            "time": 187.77605012499998,
            "value": -0.265625
          },
          {
            "ticks": 258388,
            "time": 187.781864075,
            "value": -0.234375
          },
          {
            "ticks": 258396,
            "time": 187.78767802500002,
            "value": -0.1875
          },
          {
            "ticks": 258408,
            "time": 187.79639895000003,
            "value": -0.15625
          },
          {
            "ticks": 258416,
            "time": 187.8022129,
            "value": -0.109375
          },
          {
            "ticks": 258428,
            "time": 187.810933825,
            "value": -0.0625
          },
          {
            "ticks": 258444,
            "time": 187.82256172499999,
            "value": 0
          },
          {
            "ticks": 258684,
            "time": 187.996980225,
            "value": -0.96875
          },
          {
            "ticks": 258696,
            "time": 188.00570115000002,
            "value": -0.9375
          },
          {
            "ticks": 258704,
            "time": 188.01151510000003,
            "value": -0.890625
          },
          {
            "ticks": 258716,
            "time": 188.020236025,
            "value": -0.859375
          },
          {
            "ticks": 258724,
            "time": 188.026049975,
            "value": -0.8125
          },
          {
            "ticks": 258732,
            "time": 188.031863925,
            "value": -0.78125
          },
          {
            "ticks": 258744,
            "time": 188.04058485,
            "value": -0.734375
          },
          {
            "ticks": 258752,
            "time": 188.04639880000002,
            "value": -0.703125
          },
          {
            "ticks": 258764,
            "time": 188.05511972500003,
            "value": -0.65625
          },
          {
            "ticks": 258772,
            "time": 188.060933675,
            "value": -0.625
          },
          {
            "ticks": 258780,
            "time": 188.066747625,
            "value": -0.578125
          },
          {
            "ticks": 258792,
            "time": 188.07546854999998,
            "value": -0.546875
          },
          {
            "ticks": 258800,
            "time": 188.0812825,
            "value": -0.5
          },
          {
            "ticks": 258812,
            "time": 188.09000342500002,
            "value": -0.46875
          },
          {
            "ticks": 258820,
            "time": 188.09581737500002,
            "value": -0.421875
          },
          {
            "ticks": 258828,
            "time": 188.101631325,
            "value": -0.390625
          },
          {
            "ticks": 258840,
            "time": 188.11035225,
            "value": -0.34375
          },
          {
            "ticks": 258848,
            "time": 188.1161662,
            "value": -0.3125
          },
          {
            "ticks": 258860,
            "time": 188.124887125,
            "value": -0.265625
          },
          {
            "ticks": 258868,
            "time": 188.130701075,
            "value": -0.234375
          },
          {
            "ticks": 258876,
            "time": 188.13651502500002,
            "value": -0.1875
          },
          {
            "ticks": 258880,
            "time": 188.13942200000002,
            "value": -0.109375
          },
          {
            "ticks": 258888,
            "time": 188.14523595,
            "value": -0.15625
          },
          {
            "ticks": 258896,
            "time": 188.1510499,
            "value": -0.109375
          },
          {
            "ticks": 258908,
            "time": 188.159770825,
            "value": -0.0625
          },
          {
            "ticks": 258924,
            "time": 188.171398725,
            "value": 0
          },
          {
            "ticks": 258944,
            "time": 188.18593360000003,
            "value": 0
          },
          {
            "ticks": 259176,
            "time": 188.35453815000002,
            "value": -0.96875
          },
          {
            "ticks": 259188,
            "time": 188.363259075,
            "value": -0.9375
          },
          {
            "ticks": 259196,
            "time": 188.369073025,
            "value": -0.890625
          },
          {
            "ticks": 259208,
            "time": 188.37779395,
            "value": -0.859375
          },
          {
            "ticks": 259216,
            "time": 188.3836079,
            "value": -0.8125
          },
          {
            "ticks": 259224,
            "time": 188.38942185,
            "value": -0.78125
          },
          {
            "ticks": 259236,
            "time": 188.39814277500003,
            "value": -0.734375
          },
          {
            "ticks": 259244,
            "time": 188.40395672500003,
            "value": -0.703125
          },
          {
            "ticks": 259256,
            "time": 188.41267765,
            "value": -0.65625
          },
          {
            "ticks": 259264,
            "time": 188.4184916,
            "value": -0.625
          },
          {
            "ticks": 259272,
            "time": 188.42430554999999,
            "value": -0.578125
          },
          {
            "ticks": 259284,
            "time": 188.433026475,
            "value": -0.546875
          },
          {
            "ticks": 259292,
            "time": 188.43884042500002,
            "value": -0.5
          },
          {
            "ticks": 259304,
            "time": 188.44756135,
            "value": -0.46875
          },
          {
            "ticks": 259312,
            "time": 188.4533753,
            "value": -0.421875
          },
          {
            "ticks": 259320,
            "time": 188.45918925,
            "value": -0.390625
          },
          {
            "ticks": 259332,
            "time": 188.467910175,
            "value": -0.34375
          },
          {
            "ticks": 259340,
            "time": 188.473724125,
            "value": -0.3125
          },
          {
            "ticks": 259352,
            "time": 188.48244505000002,
            "value": -0.265625
          },
          {
            "ticks": 259360,
            "time": 188.48825900000003,
            "value": -0.234375
          },
          {
            "ticks": 259368,
            "time": 188.49407295,
            "value": -0.1875
          },
          {
            "ticks": 259380,
            "time": 188.502793875,
            "value": -0.15625
          },
          {
            "ticks": 259388,
            "time": 188.508607825,
            "value": -0.109375
          },
          {
            "ticks": 259400,
            "time": 188.51732875,
            "value": -0.0625
          },
          {
            "ticks": 259416,
            "time": 188.52895665000003,
            "value": 0
          },
          {
            "ticks": 259644,
            "time": 188.694654225,
            "value": -0.96875
          },
          {
            "ticks": 259656,
            "time": 188.70337515000003,
            "value": -0.9375
          },
          {
            "ticks": 259664,
            "time": 188.7091891,
            "value": -0.890625
          },
          {
            "ticks": 259676,
            "time": 188.717910025,
            "value": -0.859375
          },
          {
            "ticks": 259684,
            "time": 188.723723975,
            "value": -0.8125
          },
          {
            "ticks": 259692,
            "time": 188.729537925,
            "value": -0.78125
          },
          {
            "ticks": 259704,
            "time": 188.73825885,
            "value": -0.734375
          },
          {
            "ticks": 259712,
            "time": 188.74407280000003,
            "value": -0.703125
          },
          {
            "ticks": 259724,
            "time": 188.752793725,
            "value": -0.65625
          },
          {
            "ticks": 259732,
            "time": 188.758607675,
            "value": -0.625
          },
          {
            "ticks": 259740,
            "time": 188.764421625,
            "value": -0.578125
          },
          {
            "ticks": 259752,
            "time": 188.77314255,
            "value": -0.546875
          },
          {
            "ticks": 259760,
            "time": 188.7789565,
            "value": -0.5
          },
          {
            "ticks": 259772,
            "time": 188.78767742500003,
            "value": -0.46875
          },
          {
            "ticks": 259780,
            "time": 188.79349137500003,
            "value": -0.421875
          },
          {
            "ticks": 259788,
            "time": 188.799305325,
            "value": -0.390625
          },
          {
            "ticks": 259800,
            "time": 188.80802625,
            "value": -0.34375
          },
          {
            "ticks": 259808,
            "time": 188.8138402,
            "value": -0.3125
          },
          {
            "ticks": 259820,
            "time": 188.822561125,
            "value": -0.265625
          },
          {
            "ticks": 259828,
            "time": 188.828375075,
            "value": -0.234375
          },
          {
            "ticks": 259836,
            "time": 188.83418902500003,
            "value": -0.1875
          },
          {
            "ticks": 259848,
            "time": 188.84290995,
            "value": -0.15625
          },
          {
            "ticks": 259856,
            "time": 188.8487239,
            "value": -0.109375
          },
          {
            "ticks": 259868,
            "time": 188.857444825,
            "value": -0.0625
          },
          {
            "ticks": 259884,
            "time": 188.869072725,
            "value": 0
          },
          {
            "ticks": 260124,
            "time": 189.043491225,
            "value": -0.96875
          },
          {
            "ticks": 260136,
            "time": 189.05221215000003,
            "value": -0.9375
          },
          {
            "ticks": 260144,
            "time": 189.0580261,
            "value": -0.890625
          },
          {
            "ticks": 260156,
            "time": 189.066747025,
            "value": -0.859375
          },
          {
            "ticks": 260164,
            "time": 189.072560975,
            "value": -0.8125
          },
          {
            "ticks": 260172,
            "time": 189.078374925,
            "value": -0.78125
          },
          {
            "ticks": 260184,
            "time": 189.08709585,
            "value": -0.734375
          },
          {
            "ticks": 260192,
            "time": 189.09290980000003,
            "value": -0.703125
          },
          {
            "ticks": 260204,
            "time": 189.101630725,
            "value": -0.65625
          },
          {
            "ticks": 260212,
            "time": 189.107444675,
            "value": -0.625
          },
          {
            "ticks": 260220,
            "time": 189.11325862500001,
            "value": -0.578125
          },
          {
            "ticks": 260232,
            "time": 189.12197955,
            "value": -0.546875
          },
          {
            "ticks": 260240,
            "time": 189.1277935,
            "value": -0.5
          },
          {
            "ticks": 260252,
            "time": 189.13651442500003,
            "value": -0.46875
          },
          {
            "ticks": 260260,
            "time": 189.142328375,
            "value": -0.421875
          },
          {
            "ticks": 260268,
            "time": 189.148142325,
            "value": -0.390625
          },
          {
            "ticks": 260280,
            "time": 189.15686325000001,
            "value": -0.34375
          },
          {
            "ticks": 260288,
            "time": 189.1626772,
            "value": -0.3125
          },
          {
            "ticks": 260300,
            "time": 189.171398125,
            "value": -0.265625
          },
          {
            "ticks": 260308,
            "time": 189.177212075,
            "value": -0.234375
          },
          {
            "ticks": 260316,
            "time": 189.18302602500003,
            "value": -0.1875
          },
          {
            "ticks": 260328,
            "time": 189.19174695,
            "value": -0.15625
          },
          {
            "ticks": 260336,
            "time": 189.1975609,
            "value": -0.109375
          },
          {
            "ticks": 260348,
            "time": 189.206281825,
            "value": -0.0625
          },
          {
            "ticks": 260364,
            "time": 189.217909725,
            "value": 0
          },
          {
            "ticks": 260604,
            "time": 189.392328225,
            "value": -0.96875
          },
          {
            "ticks": 260616,
            "time": 189.40104915000003,
            "value": -0.9375
          },
          {
            "ticks": 260624,
            "time": 189.4068631,
            "value": -0.890625
          },
          {
            "ticks": 260636,
            "time": 189.41558402500002,
            "value": -0.859375
          },
          {
            "ticks": 260644,
            "time": 189.421397975,
            "value": -0.8125
          },
          {
            "ticks": 260652,
            "time": 189.427211925,
            "value": -0.78125
          },
          {
            "ticks": 260664,
            "time": 189.43593285,
            "value": -0.734375
          },
          {
            "ticks": 260672,
            "time": 189.44174680000003,
            "value": -0.703125
          },
          {
            "ticks": 260684,
            "time": 189.450467725,
            "value": -0.65625
          },
          {
            "ticks": 260692,
            "time": 189.456281675,
            "value": -0.625
          },
          {
            "ticks": 260700,
            "time": 189.46209562500002,
            "value": -0.578125
          },
          {
            "ticks": 260712,
            "time": 189.47081655,
            "value": -0.546875
          },
          {
            "ticks": 260720,
            "time": 189.4766305,
            "value": -0.5
          },
          {
            "ticks": 260732,
            "time": 189.48535142500003,
            "value": -0.46875
          },
          {
            "ticks": 260740,
            "time": 189.491165375,
            "value": -0.421875
          },
          {
            "ticks": 260748,
            "time": 189.496979325,
            "value": -0.390625
          },
          {
            "ticks": 260760,
            "time": 189.50570025000002,
            "value": -0.34375
          },
          {
            "ticks": 260768,
            "time": 189.5115142,
            "value": -0.3125
          },
          {
            "ticks": 260780,
            "time": 189.520235125,
            "value": -0.265625
          },
          {
            "ticks": 260788,
            "time": 189.52604907499997,
            "value": -0.234375
          },
          {
            "ticks": 260796,
            "time": 189.531863025,
            "value": -0.1875
          },
          {
            "ticks": 260808,
            "time": 189.54058395,
            "value": -0.15625
          },
          {
            "ticks": 260816,
            "time": 189.54639790000002,
            "value": -0.109375
          },
          {
            "ticks": 260828,
            "time": 189.555118825,
            "value": -0.0625
          },
          {
            "ticks": 260844,
            "time": 189.566746725,
            "value": 0
          },
          {
            "ticks": 260872,
            "time": 189.58709555000002,
            "value": -0.015625
          },
          {
            "ticks": 260880,
            "time": 189.5929095,
            "value": -0.046875
          },
          {
            "ticks": 260888,
            "time": 189.59872345,
            "value": -0.078125
          },
          {
            "ticks": 260900,
            "time": 189.607444375,
            "value": -0.125
          },
          {
            "ticks": 260908,
            "time": 189.61325832499998,
            "value": -0.15625
          },
          {
            "ticks": 260920,
            "time": 189.62197925,
            "value": -0.203125
          },
          {
            "ticks": 260928,
            "time": 189.6277932,
            "value": -0.234375
          },
          {
            "ticks": 260936,
            "time": 189.63360715000002,
            "value": -0.265625
          },
          {
            "ticks": 260948,
            "time": 189.642328075,
            "value": -0.3125
          },
          {
            "ticks": 260956,
            "time": 189.648142025,
            "value": -0.34375
          },
          {
            "ticks": 260968,
            "time": 189.65686294999998,
            "value": -0.390625
          },
          {
            "ticks": 260976,
            "time": 189.6626769,
            "value": -0.421875
          },
          {
            "ticks": 260984,
            "time": 189.66849085,
            "value": -0.453125
          },
          {
            "ticks": 260996,
            "time": 189.67721177500002,
            "value": -0.5
          },
          {
            "ticks": 261004,
            "time": 189.683025725,
            "value": -0.53125
          },
          {
            "ticks": 261016,
            "time": 189.69174665,
            "value": -0.578125
          },
          {
            "ticks": 261024,
            "time": 189.6975606,
            "value": -0.609375
          },
          {
            "ticks": 261032,
            "time": 189.70337455000004,
            "value": -0.640625
          },
          {
            "ticks": 261044,
            "time": 189.712095475,
            "value": -0.6875
          },
          {
            "ticks": 261052,
            "time": 189.71790942500002,
            "value": -0.71875
          },
          {
            "ticks": 261064,
            "time": 189.72663035,
            "value": -0.765625
          },
          {
            "ticks": 261072,
            "time": 189.7324443,
            "value": -0.796875
          },
          {
            "ticks": 261080,
            "time": 189.73825825,
            "value": -0.828125
          },
          {
            "ticks": 261092,
            "time": 189.74697917500004,
            "value": -0.875
          },
          {
            "ticks": 261100,
            "time": 189.752793125,
            "value": -0.90625
          },
          {
            "ticks": 261112,
            "time": 189.76151405000002,
            "value": -0.953125
          },
          {
            "ticks": 261116,
            "time": 189.76442102500002,
            "value": -0.859375
          },
          {
            "ticks": 261124,
            "time": 189.770234975,
            "value": -0.8125
          },
          {
            "ticks": 261132,
            "time": 189.776048925,
            "value": -0.78125
          },
          {
            "ticks": 261144,
            "time": 189.78476984999998,
            "value": -0.734375
          },
          {
            "ticks": 261152,
            "time": 189.79058380000004,
            "value": -0.703125
          },
          {
            "ticks": 261164,
            "time": 189.799304725,
            "value": -0.65625
          },
          {
            "ticks": 261172,
            "time": 189.80511867500002,
            "value": -0.625
          },
          {
            "ticks": 261180,
            "time": 189.810932625,
            "value": -0.578125
          },
          {
            "ticks": 261192,
            "time": 189.81965355,
            "value": -0.546875
          },
          {
            "ticks": 261200,
            "time": 189.8254675,
            "value": -0.5
          },
          {
            "ticks": 261212,
            "time": 189.83418842500004,
            "value": -0.46875
          },
          {
            "ticks": 261220,
            "time": 189.840002375,
            "value": -0.421875
          },
          {
            "ticks": 261228,
            "time": 189.84581632500002,
            "value": -0.390625
          },
          {
            "ticks": 261240,
            "time": 189.85453725,
            "value": -0.34375
          },
          {
            "ticks": 261248,
            "time": 189.8603512,
            "value": -0.3125
          },
          {
            "ticks": 261260,
            "time": 189.869072125,
            "value": -0.265625
          },
          {
            "ticks": 261268,
            "time": 189.87488607499998,
            "value": -0.234375
          },
          {
            "ticks": 261276,
            "time": 189.880700025,
            "value": -0.1875
          },
          {
            "ticks": 261288,
            "time": 189.88942095000002,
            "value": -0.15625
          },
          {
            "ticks": 261296,
            "time": 189.89523490000002,
            "value": -0.109375
          },
          {
            "ticks": 261308,
            "time": 189.903955825,
            "value": -0.0625
          },
          {
            "ticks": 261324,
            "time": 189.91558372499998,
            "value": 0
          },
          {
            "ticks": 261552,
            "time": 190.0812813,
            "value": -0.96875
          },
          {
            "ticks": 261564,
            "time": 190.09000222499998,
            "value": -0.9375
          },
          {
            "ticks": 261572,
            "time": 190.095816175,
            "value": -0.890625
          },
          {
            "ticks": 261584,
            "time": 190.10453710000002,
            "value": -0.859375
          },
          {
            "ticks": 261592,
            "time": 190.11035105000002,
            "value": -0.8125
          },
          {
            "ticks": 261600,
            "time": 190.116165,
            "value": -0.78125
          },
          {
            "ticks": 261612,
            "time": 190.124885925,
            "value": -0.734375
          },
          {
            "ticks": 261620,
            "time": 190.130699875,
            "value": -0.703125
          },
          {
            "ticks": 261632,
            "time": 190.1394208,
            "value": -0.65625
          },
          {
            "ticks": 261640,
            "time": 190.14523475000001,
            "value": -0.625
          },
          {
            "ticks": 261648,
            "time": 190.15104870000002,
            "value": -0.578125
          },
          {
            "ticks": 261660,
            "time": 190.159769625,
            "value": -0.546875
          },
          {
            "ticks": 261668,
            "time": 190.165583575,
            "value": -0.5
          },
          {
            "ticks": 261680,
            "time": 190.1743045,
            "value": -0.46875
          },
          {
            "ticks": 261688,
            "time": 190.18011844999998,
            "value": -0.421875
          },
          {
            "ticks": 261696,
            "time": 190.1859324,
            "value": -0.390625
          },
          {
            "ticks": 261708,
            "time": 190.19465332500002,
            "value": -0.34375
          },
          {
            "ticks": 261716,
            "time": 190.200467275,
            "value": -0.3125
          },
          {
            "ticks": 261728,
            "time": 190.2091882,
            "value": -0.265625
          },
          {
            "ticks": 261736,
            "time": 190.21500215,
            "value": -0.234375
          },
          {
            "ticks": 261744,
            "time": 190.22081609999998,
            "value": -0.1875
          },
          {
            "ticks": 261756,
            "time": 190.229537025,
            "value": -0.15625
          },
          {
            "ticks": 261764,
            "time": 190.23535097500002,
            "value": -0.109375
          },
          {
            "ticks": 261776,
            "time": 190.2440719,
            "value": -0.0625
          },
          {
            "ticks": 261792,
            "time": 190.2556998,
            "value": 0
          },
          {
            "ticks": 262032,
            "time": 190.4301183,
            "value": -0.96875
          },
          {
            "ticks": 262044,
            "time": 190.43883922499998,
            "value": -0.9375
          },
          {
            "ticks": 262052,
            "time": 190.444653175,
            "value": -0.890625
          },
          {
            "ticks": 262064,
            "time": 190.45337410000002,
            "value": -0.859375
          },
          {
            "ticks": 262072,
            "time": 190.45918805000002,
            "value": -0.8125
          },
          {
            "ticks": 262080,
            "time": 190.465002,
            "value": -0.78125
          },
          {
            "ticks": 262092,
            "time": 190.473722925,
            "value": -0.734375
          },
          {
            "ticks": 262100,
            "time": 190.47953687499998,
            "value": -0.703125
          },
          {
            "ticks": 262112,
            "time": 190.4882578,
            "value": -0.65625
          },
          {
            "ticks": 262120,
            "time": 190.49407175000002,
            "value": -0.625
          },
          {
            "ticks": 262128,
            "time": 190.49988570000002,
            "value": -0.578125
          },
          {
            "ticks": 262140,
            "time": 190.508606625,
            "value": -0.546875
          },
          {
            "ticks": 262148,
            "time": 190.514420575,
            "value": -0.5
          },
          {
            "ticks": 262160,
            "time": 190.52314149999998,
            "value": -0.46875
          },
          {
            "ticks": 262168,
            "time": 190.52895544999998,
            "value": -0.421875
          },
          {
            "ticks": 262176,
            "time": 190.53476940000002,
            "value": -0.390625
          },
          {
            "ticks": 262188,
            "time": 190.54349032500002,
            "value": -0.34375
          },
          {
            "ticks": 262196,
            "time": 190.549304275,
            "value": -0.3125
          },
          {
            "ticks": 262208,
            "time": 190.5580252,
            "value": -0.265625
          },
          {
            "ticks": 262216,
            "time": 190.56383915,
            "value": -0.234375
          },
          {
            "ticks": 262224,
            "time": 190.56965309999998,
            "value": -0.1875
          },
          {
            "ticks": 262236,
            "time": 190.57837402500002,
            "value": -0.15625
          },
          {
            "ticks": 262244,
            "time": 190.58418797500002,
            "value": -0.109375
          },
          {
            "ticks": 262256,
            "time": 190.5929089,
            "value": -0.0625
          },
          {
            "ticks": 262272,
            "time": 190.6045368,
            "value": 0
          },
          {
            "ticks": 262512,
            "time": 190.7789553,
            "value": -0.96875
          },
          {
            "ticks": 262524,
            "time": 190.78767622499998,
            "value": -0.9375
          },
          {
            "ticks": 262532,
            "time": 190.79349017500002,
            "value": -0.890625
          },
          {
            "ticks": 262544,
            "time": 190.80221110000002,
            "value": -0.859375
          },
          {
            "ticks": 262552,
            "time": 190.80802505,
            "value": -0.8125
          },
          {
            "ticks": 262560,
            "time": 190.813839,
            "value": -0.78125
          },
          {
            "ticks": 262572,
            "time": 190.822559925,
            "value": -0.734375
          },
          {
            "ticks": 262580,
            "time": 190.82837387499998,
            "value": -0.703125
          },
          {
            "ticks": 262592,
            "time": 190.83709480000002,
            "value": -0.65625
          },
          {
            "ticks": 262600,
            "time": 190.84290875000002,
            "value": -0.625
          },
          {
            "ticks": 262608,
            "time": 190.84872270000002,
            "value": -0.578125
          },
          {
            "ticks": 262620,
            "time": 190.857443625,
            "value": -0.546875
          },
          {
            "ticks": 262628,
            "time": 190.863257575,
            "value": -0.5
          },
          {
            "ticks": 262640,
            "time": 190.87197849999998,
            "value": -0.46875
          },
          {
            "ticks": 262648,
            "time": 190.87779245,
            "value": -0.421875
          },
          {
            "ticks": 262656,
            "time": 190.88360640000002,
            "value": -0.390625
          },
          {
            "ticks": 262668,
            "time": 190.89232732500002,
            "value": -0.34375
          },
          {
            "ticks": 262676,
            "time": 190.898141275,
            "value": -0.3125
          },
          {
            "ticks": 262688,
            "time": 190.9068622,
            "value": -0.265625
          },
          {
            "ticks": 262696,
            "time": 190.91267614999998,
            "value": -0.234375
          },
          {
            "ticks": 262704,
            "time": 190.91849009999999,
            "value": -0.1875
          },
          {
            "ticks": 262708,
            "time": 190.921397075,
            "value": -0.109375
          },
          {
            "ticks": 262716,
            "time": 190.92721102500002,
            "value": -0.15625
          },
          {
            "ticks": 262724,
            "time": 190.93302497500002,
            "value": -0.109375
          },
          {
            "ticks": 262736,
            "time": 190.9417459,
            "value": -0.0625
          },
          {
            "ticks": 262752,
            "time": 190.9533738,
            "value": 0
          },
          {
            "ticks": 262772,
            "time": 190.96790867500002,
            "value": 0
          }
        ],
        "instrument": {
          "family": "guitar",
          "number": 26,
          "name": "electric guitar (jazz)"
        },
        "name": "",
        "notes": [
          {
            "duration": 0.34883699999998896,
            "durationTicks": 480,
            "midi": 63,
            "name": "D#4",
            "ticks": 117120,
            "time": 85.116228,
            "velocity": 0.8110236220472441
          },
          {
            "duration": 0.3488370000000032,
            "durationTicks": 480,
            "midi": 63,
            "name": "D#4",
            "ticks": 117600,
            "time": 85.465065,
            "velocity": 0.8267716535433071
          },
          {
            "duration": 0.3488370000000032,
            "durationTicks": 480,
            "midi": 63,
            "name": "D#4",
            "ticks": 118080,
            "time": 85.813902,
            "velocity": 0.7952755905511811
          },
          {
            "duration": 0.3488370000000032,
            "durationTicks": 480,
            "midi": 63,
            "name": "D#4",
            "ticks": 118560,
            "time": 86.162739,
            "velocity": 0.84251968503937
          },
          {
            "duration": 0.3488370000000032,
            "durationTicks": 480,
            "midi": 63,
            "name": "D#4",
            "ticks": 119040,
            "time": 86.511576,
            "velocity": 0.6377952755905512
          },
          {
            "duration": 0.34883699999998896,
            "durationTicks": 480,
            "midi": 63,
            "name": "D#4",
            "ticks": 119520,
            "time": 86.86041300000001,
            "velocity": 0.8267716535433071
          },
          {
            "duration": 0.3488370000000032,
            "durationTicks": 480,
            "midi": 63,
            "name": "D#4",
            "ticks": 120000,
            "time": 87.20925,
            "velocity": 0.8740157480314961
          },
          {
            "duration": 0.3488370000000032,
            "durationTicks": 480,
            "midi": 63,
            "name": "D#4",
            "ticks": 120480,
            "time": 87.558087,
            "velocity": 0.8740157480314961
          },
          {
            "duration": 0.3488370000000032,
            "durationTicks": 480,
            "midi": 64,
            "name": "E4",
            "ticks": 120960,
            "time": 87.906924,
            "velocity": 0.8976377952755905
          },
          {
            "duration": 0.34883699999998896,
            "durationTicks": 480,
            "midi": 64,
            "name": "E4",
            "ticks": 121440,
            "time": 88.255761,
            "velocity": 0.8267716535433071
          },
          {
            "duration": 0.3488370000000032,
            "durationTicks": 480,
            "midi": 64,
            "name": "E4",
            "ticks": 121920,
            "time": 88.604598,
            "velocity": 0.8740157480314961
          },
          {
            "duration": 0.3488370000000032,
            "durationTicks": 480,
            "midi": 64,
            "name": "E4",
            "ticks": 122400,
            "time": 88.953435,
            "velocity": 0.8740157480314961
          },
          {
            "duration": 0.3488370000000032,
            "durationTicks": 480,
            "midi": 63,
            "name": "D#4",
            "ticks": 122880,
            "time": 89.302272,
            "velocity": 0.84251968503937
          },
          {
            "duration": 0.3488370000000032,
            "durationTicks": 480,
            "midi": 59,
            "name": "B3",
            "ticks": 123360,
            "time": 89.651109,
            "velocity": 0.7952755905511811
          },
          {
            "duration": 0.34883699999998896,
            "durationTicks": 480,
            "midi": 63,
            "name": "D#4",
            "ticks": 123840,
            "time": 89.99994600000001,
            "velocity": 0.6535433070866141
          },
          {
            "duration": 0.3488370000000032,
            "durationTicks": 480,
            "midi": 59,
            "name": "B3",
            "ticks": 124320,
            "time": 90.348783,
            "velocity": 0.8267716535433071
          },
          {
            "duration": 0.3488370000000032,
            "durationTicks": 480,
            "midi": 71,
            "name": "B4",
            "ticks": 124800,
            "time": 90.69762,
            "velocity": 0.7952755905511811
          },
          {
            "duration": 0.3488370000000032,
            "durationTicks": 480,
            "midi": 71,
            "name": "B4",
            "ticks": 125280,
            "time": 91.046457,
            "velocity": 0.8110236220472441
          },
          {
            "duration": 0.34883699999998896,
            "durationTicks": 480,
            "midi": 71,
            "name": "B4",
            "ticks": 125760,
            "time": 91.395294,
            "velocity": 0.7952755905511811
          },
          {
            "duration": 0.3488370000000032,
            "durationTicks": 480,
            "midi": 71,
            "name": "B4",
            "ticks": 126240,
            "time": 91.744131,
            "velocity": 0.8110236220472441
          },
          {
            "duration": 0.3488370000000032,
            "durationTicks": 480,
            "midi": 71,
            "name": "B4",
            "ticks": 126720,
            "time": 92.092968,
            "velocity": 0.7952755905511811
          },
          {
            "duration": 0.3488370000000032,
            "durationTicks": 480,
            "midi": 71,
            "name": "B4",
            "ticks": 127200,
            "time": 92.441805,
            "velocity": 0.8110236220472441
          },
          {
            "duration": 0.3488370000000032,
            "durationTicks": 480,
            "midi": 71,
            "name": "B4",
            "ticks": 127680,
            "time": 92.790642,
            "velocity": 0.7952755905511811
          },
          {
            "duration": 0.34883699999998896,
            "durationTicks": 480,
            "midi": 71,
            "name": "B4",
            "ticks": 128160,
            "time": 93.13947900000001,
            "velocity": 0.8110236220472441
          },
          {
            "duration": 0.3488370000000032,
            "durationTicks": 480,
            "midi": 71,
            "name": "B4",
            "ticks": 128640,
            "time": 93.488316,
            "velocity": 0.7952755905511811
          },
          {
            "duration": 0.3488370000000032,
            "durationTicks": 480,
            "midi": 71,
            "name": "B4",
            "ticks": 129120,
            "time": 93.837153,
            "velocity": 0.8110236220472441
          },
          {
            "duration": 0.3488370000000032,
            "durationTicks": 480,
            "midi": 71,
            "name": "B4",
            "ticks": 129600,
            "time": 94.18599,
            "velocity": 0.7952755905511811
          },
          {
            "duration": 0.34883699999998896,
            "durationTicks": 480,
            "midi": 71,
            "name": "B4",
            "ticks": 130080,
            "time": 94.534827,
            "velocity": 0.8110236220472441
          },
          {
            "duration": 0.3488370000000032,
            "durationTicks": 480,
            "midi": 70,
            "name": "A#4",
            "ticks": 130560,
            "time": 94.883664,
            "velocity": 0.7952755905511811
          },
          {
            "duration": 0.3488370000000032,
            "durationTicks": 480,
            "midi": 70,
            "name": "A#4",
            "ticks": 131040,
            "time": 95.232501,
            "velocity": 0.8110236220472441
          },
          {
            "duration": 0.3488370000000032,
            "durationTicks": 480,
            "midi": 70,
            "name": "A#4",
            "ticks": 131520,
            "time": 95.581338,
            "velocity": 0.7952755905511811
          },
          {
            "duration": 0.3488370000000032,
            "durationTicks": 480,
            "midi": 70,
            "name": "A#4",
            "ticks": 132000,
            "time": 95.930175,
            "velocity": 0.8110236220472441
          },
          {
            "duration": 0.34883699999998896,
            "durationTicks": 480,
            "midi": 71,
            "name": "B4",
            "ticks": 132480,
            "time": 96.27901200000001,
            "velocity": 0.7952755905511811
          },
          {
            "duration": 0.3488370000000032,
            "durationTicks": 480,
            "midi": 71,
            "name": "B4",
            "ticks": 132960,
            "time": 96.627849,
            "velocity": 0.8110236220472441
          },
          {
            "duration": 0.3488370000000032,
            "durationTicks": 480,
            "midi": 71,
            "name": "B4",
            "ticks": 133440,
            "time": 96.976686,
            "velocity": 0.7952755905511811
          },
          {
            "duration": 0.3488370000000032,
            "durationTicks": 480,
            "midi": 71,
            "name": "B4",
            "ticks": 133920,
            "time": 97.325523,
            "velocity": 0.8110236220472441
          },
          {
            "duration": 0.34883699999998896,
            "durationTicks": 480,
            "midi": 71,
            "name": "B4",
            "ticks": 134400,
            "time": 97.67436000000001,
            "velocity": 0.7952755905511811
          },
          {
            "duration": 0.3488370000000032,
            "durationTicks": 480,
            "midi": 71,
            "name": "B4",
            "ticks": 134880,
            "time": 98.023197,
            "velocity": 0.8110236220472441
          },
          {
            "duration": 0.3488370000000032,
            "durationTicks": 480,
            "midi": 71,
            "name": "B4",
            "ticks": 135360,
            "time": 98.372034,
            "velocity": 0.7952755905511811
          },
          {
            "duration": 0.3488370000000032,
            "durationTicks": 480,
            "midi": 71,
            "name": "B4",
            "ticks": 135840,
            "time": 98.720871,
            "velocity": 0.8110236220472441
          },
          {
            "duration": 0.3488370000000032,
            "durationTicks": 480,
            "midi": 71,
            "name": "B4",
            "ticks": 136320,
            "time": 99.069708,
            "velocity": 0.7952755905511811
          },
          {
            "duration": 0.34883699999998896,
            "durationTicks": 480,
            "midi": 71,
            "name": "B4",
            "ticks": 136800,
            "time": 99.41854500000001,
            "velocity": 0.8110236220472441
          },
          {
            "duration": 0.3488370000000032,
            "durationTicks": 480,
            "midi": 71,
            "name": "B4",
            "ticks": 137280,
            "time": 99.767382,
            "velocity": 0.7952755905511811
          },
          {
            "duration": 0.3488370000000032,
            "durationTicks": 480,
            "midi": 71,
            "name": "B4",
            "ticks": 137760,
            "time": 100.116219,
            "velocity": 0.8110236220472441
          },
          {
            "duration": 0.3488370000000032,
            "durationTicks": 480,
            "midi": 70,
            "name": "A#4",
            "ticks": 138240,
            "time": 100.465056,
            "velocity": 0.7952755905511811
          },
          {
            "duration": 0.34883699999998896,
            "durationTicks": 480,
            "midi": 70,
            "name": "A#4",
            "ticks": 138720,
            "time": 100.81389300000001,
            "velocity": 0.8110236220472441
          },
          {
            "duration": 0.3488370000000032,
            "durationTicks": 480,
            "midi": 70,
            "name": "A#4",
            "ticks": 139200,
            "time": 101.16273,
            "velocity": 0.7952755905511811
          },
          {
            "duration": 0.3488370000000032,
            "durationTicks": 480,
            "midi": 70,
            "name": "A#4",
            "ticks": 139680,
            "time": 101.511567,
            "velocity": 0.8110236220472441
          },
          {
            "duration": 0.3488370000000032,
            "durationTicks": 480,
            "midi": 71,
            "name": "B4",
            "ticks": 140160,
            "time": 101.860404,
            "velocity": 0.7952755905511811
          },
          {
            "duration": 0.3488370000000032,
            "durationTicks": 480,
            "midi": 71,
            "name": "B4",
            "ticks": 140640,
            "time": 102.209241,
            "velocity": 0.8110236220472441
          },
          {
            "duration": 0.34883699999998896,
            "durationTicks": 480,
            "midi": 71,
            "name": "B4",
            "ticks": 141120,
            "time": 102.55807800000001,
            "velocity": 0.7952755905511811
          },
          {
            "duration": 0.3488370000000032,
            "durationTicks": 480,
            "midi": 71,
            "name": "B4",
            "ticks": 141600,
            "time": 102.906915,
            "velocity": 0.8110236220472441
          },
          {
            "duration": 0.3488370000000032,
            "durationTicks": 480,
            "midi": 71,
            "name": "B4",
            "ticks": 142080,
            "time": 103.255752,
            "velocity": 0.7952755905511811
          },
          {
            "duration": 0.3488370000000032,
            "durationTicks": 480,
            "midi": 71,
            "name": "B4",
            "ticks": 142560,
            "time": 103.604589,
            "velocity": 0.8110236220472441
          },
          {
            "duration": 0.34883699999998896,
            "durationTicks": 480,
            "midi": 71,
            "name": "B4",
            "ticks": 143040,
            "time": 103.95342600000001,
            "velocity": 0.7952755905511811
          },
          {
            "duration": 0.3488370000000032,
            "durationTicks": 480,
            "midi": 71,
            "name": "B4",
            "ticks": 143520,
            "time": 104.302263,
            "velocity": 0.8110236220472441
          },
          {
            "duration": 0.3488370000000032,
            "durationTicks": 480,
            "midi": 71,
            "name": "B4",
            "ticks": 144000,
            "time": 104.6511,
            "velocity": 0.7952755905511811
          },
          {
            "duration": 0.3488370000000032,
            "durationTicks": 480,
            "midi": 71,
            "name": "B4",
            "ticks": 144480,
            "time": 104.999937,
            "velocity": 0.8110236220472441
          },
          {
            "duration": 0.3488370000000032,
            "durationTicks": 480,
            "midi": 71,
            "name": "B4",
            "ticks": 144960,
            "time": 105.348774,
            "velocity": 0.7952755905511811
          },
          {
            "duration": 0.34883699999998896,
            "durationTicks": 480,
            "midi": 71,
            "name": "B4",
            "ticks": 145440,
            "time": 105.69761100000001,
            "velocity": 0.8110236220472441
          },
          {
            "duration": 0.3488370000000032,
            "durationTicks": 480,
            "midi": 70,
            "name": "A#4",
            "ticks": 145920,
            "time": 106.046448,
            "velocity": 0.7952755905511811
          },
          {
            "duration": 0.3488370000000032,
            "durationTicks": 480,
            "midi": 70,
            "name": "A#4",
            "ticks": 146400,
            "time": 106.395285,
            "velocity": 0.8110236220472441
          },
          {
            "duration": 0.3488370000000032,
            "durationTicks": 480,
            "midi": 70,
            "name": "A#4",
            "ticks": 146880,
            "time": 106.744122,
            "velocity": 0.7952755905511811
          },
          {
            "duration": 0.34883699999998896,
            "durationTicks": 480,
            "midi": 70,
            "name": "A#4",
            "ticks": 147360,
            "time": 107.09295900000001,
            "velocity": 0.8110236220472441
          },
          {
            "duration": 0.3488370000000032,
            "durationTicks": 480,
            "midi": 63,
            "name": "D#4",
            "ticks": 232320,
            "time": 168.837108,
            "velocity": 0.8110236220472441
          },
          {
            "duration": 0.3488370000000032,
            "durationTicks": 480,
            "midi": 63,
            "name": "D#4",
            "ticks": 232800,
            "time": 169.185945,
            "velocity": 0.8267716535433071
          },
          {
            "duration": 0.3488370000000032,
            "durationTicks": 480,
            "midi": 63,
            "name": "D#4",
            "ticks": 233280,
            "time": 169.534782,
            "velocity": 0.7952755905511811
          },
          {
            "duration": 0.3488370000000032,
            "durationTicks": 480,
            "midi": 63,
            "name": "D#4",
            "ticks": 233760,
            "time": 169.883619,
            "velocity": 0.84251968503937
          },
          {
            "duration": 0.3488370000000032,
            "durationTicks": 480,
            "midi": 63,
            "name": "D#4",
            "ticks": 234240,
            "time": 170.232456,
            "velocity": 0.6377952755905512
          },
          {
            "duration": 0.34883699999997475,
            "durationTicks": 480,
            "midi": 63,
            "name": "D#4",
            "ticks": 234720,
            "time": 170.58129300000002,
            "velocity": 0.8267716535433071
          },
          {
            "duration": 0.3488370000000032,
            "durationTicks": 480,
            "midi": 63,
            "name": "D#4",
            "ticks": 235200,
            "time": 170.93013,
            "velocity": 0.8740157480314961
          },
          {
            "duration": 0.3488370000000032,
            "durationTicks": 480,
            "midi": 63,
            "name": "D#4",
            "ticks": 235680,
            "time": 171.278967,
            "velocity": 0.8740157480314961
          },
          {
            "duration": 0.3488370000000032,
            "durationTicks": 480,
            "midi": 64,
            "name": "E4",
            "ticks": 236160,
            "time": 171.627804,
            "velocity": 0.8976377952755905
          },
          {
            "duration": 0.3488370000000032,
            "durationTicks": 480,
            "midi": 64,
            "name": "E4",
            "ticks": 236640,
            "time": 171.976641,
            "velocity": 0.8267716535433071
          },
          {
            "duration": 0.3488370000000032,
            "durationTicks": 480,
            "midi": 64,
            "name": "E4",
            "ticks": 237120,
            "time": 172.325478,
            "velocity": 0.8740157480314961
          },
          {
            "duration": 0.3488370000000032,
            "durationTicks": 480,
            "midi": 64,
            "name": "E4",
            "ticks": 237600,
            "time": 172.674315,
            "velocity": 0.8740157480314961
          },
          {
            "duration": 0.3488370000000032,
            "durationTicks": 480,
            "midi": 63,
            "name": "D#4",
            "ticks": 238080,
            "time": 173.023152,
            "velocity": 0.84251968503937
          },
          {
            "duration": 0.3488370000000032,
            "durationTicks": 480,
            "midi": 59,
            "name": "B3",
            "ticks": 238560,
            "time": 173.371989,
            "velocity": 0.7952755905511811
          },
          {
            "duration": 0.34883699999997475,
            "durationTicks": 480,
            "midi": 63,
            "name": "D#4",
            "ticks": 239040,
            "time": 173.72082600000002,
            "velocity": 0.6535433070866141
          },
          {
            "duration": 0.3488370000000032,
            "durationTicks": 480,
            "midi": 59,
            "name": "B3",
            "ticks": 239520,
            "time": 174.069663,
            "velocity": 0.8267716535433071
          },
          {
            "duration": 0.3488370000000032,
            "durationTicks": 480,
            "midi": 71,
            "name": "B4",
            "ticks": 240000,
            "time": 174.4185,
            "velocity": 0.7952755905511811
          },
          {
            "duration": 0.3488370000000032,
            "durationTicks": 480,
            "midi": 71,
            "name": "B4",
            "ticks": 240480,
            "time": 174.767337,
            "velocity": 0.8110236220472441
          },
          {
            "duration": 0.3488370000000032,
            "durationTicks": 480,
            "midi": 71,
            "name": "B4",
            "ticks": 240960,
            "time": 175.116174,
            "velocity": 0.7952755905511811
          },
          {
            "duration": 0.3488370000000032,
            "durationTicks": 480,
            "midi": 71,
            "name": "B4",
            "ticks": 241440,
            "time": 175.465011,
            "velocity": 0.8110236220472441
          },
          {
            "duration": 0.3488370000000032,
            "durationTicks": 480,
            "midi": 71,
            "name": "B4",
            "ticks": 241920,
            "time": 175.813848,
            "velocity": 0.7952755905511811
          },
          {
            "duration": 0.3488370000000032,
            "durationTicks": 480,
            "midi": 71,
            "name": "B4",
            "ticks": 242400,
            "time": 176.162685,
            "velocity": 0.8110236220472441
          },
          {
            "duration": 0.3488370000000032,
            "durationTicks": 480,
            "midi": 71,
            "name": "B4",
            "ticks": 242880,
            "time": 176.511522,
            "velocity": 0.7952755905511811
          },
          {
            "duration": 0.34883699999997475,
            "durationTicks": 480,
            "midi": 71,
            "name": "B4",
            "ticks": 243360,
            "time": 176.86035900000002,
            "velocity": 0.8110236220472441
          },
          {
            "duration": 0.3488370000000032,
            "durationTicks": 480,
            "midi": 71,
            "name": "B4",
            "ticks": 243840,
            "time": 177.209196,
            "velocity": 0.7952755905511811
          },
          {
            "duration": 0.3488370000000032,
            "durationTicks": 480,
            "midi": 71,
            "name": "B4",
            "ticks": 244320,
            "time": 177.558033,
            "velocity": 0.8110236220472441
          },
          {
            "duration": 0.3488370000000032,
            "durationTicks": 480,
            "midi": 71,
            "name": "B4",
            "ticks": 244800,
            "time": 177.90687,
            "velocity": 0.7952755905511811
          },
          {
            "duration": 0.3488370000000032,
            "durationTicks": 480,
            "midi": 71,
            "name": "B4",
            "ticks": 245280,
            "time": 178.255707,
            "velocity": 0.8110236220472441
          },
          {
            "duration": 0.3488370000000032,
            "durationTicks": 480,
            "midi": 70,
            "name": "A#4",
            "ticks": 245760,
            "time": 178.604544,
            "velocity": 0.7952755905511811
          },
          {
            "duration": 0.3488370000000032,
            "durationTicks": 480,
            "midi": 70,
            "name": "A#4",
            "ticks": 246240,
            "time": 178.953381,
            "velocity": 0.8110236220472441
          },
          {
            "duration": 0.3488370000000032,
            "durationTicks": 480,
            "midi": 70,
            "name": "A#4",
            "ticks": 246720,
            "time": 179.302218,
            "velocity": 0.7952755905511811
          },
          {
            "duration": 0.3488370000000032,
            "durationTicks": 480,
            "midi": 70,
            "name": "A#4",
            "ticks": 247200,
            "time": 179.651055,
            "velocity": 0.8110236220472441
          },
          {
            "duration": 0.34883699999997475,
            "durationTicks": 480,
            "midi": 71,
            "name": "B4",
            "ticks": 247680,
            "time": 179.99989200000002,
            "velocity": 0.7952755905511811
          },
          {
            "duration": 0.3488370000000032,
            "durationTicks": 480,
            "midi": 71,
            "name": "B4",
            "ticks": 248160,
            "time": 180.348729,
            "velocity": 0.8110236220472441
          },
          {
            "duration": 0.3488370000000032,
            "durationTicks": 480,
            "midi": 71,
            "name": "B4",
            "ticks": 248640,
            "time": 180.697566,
            "velocity": 0.7952755905511811
          },
          {
            "duration": 0.3488370000000032,
            "durationTicks": 480,
            "midi": 71,
            "name": "B4",
            "ticks": 249120,
            "time": 181.046403,
            "velocity": 0.8110236220472441
          },
          {
            "duration": 0.3488370000000032,
            "durationTicks": 480,
            "midi": 71,
            "name": "B4",
            "ticks": 249600,
            "time": 181.39524,
            "velocity": 0.7952755905511811
          },
          {
            "duration": 0.3488370000000032,
            "durationTicks": 480,
            "midi": 71,
            "name": "B4",
            "ticks": 250080,
            "time": 181.744077,
            "velocity": 0.8110236220472441
          },
          {
            "duration": 0.3488370000000032,
            "durationTicks": 480,
            "midi": 71,
            "name": "B4",
            "ticks": 250560,
            "time": 182.092914,
            "velocity": 0.7952755905511811
          },
          {
            "duration": 0.3488370000000032,
            "durationTicks": 480,
            "midi": 71,
            "name": "B4",
            "ticks": 251040,
            "time": 182.441751,
            "velocity": 0.8110236220472441
          },
          {
            "duration": 0.3488370000000032,
            "durationTicks": 480,
            "midi": 71,
            "name": "B4",
            "ticks": 251520,
            "time": 182.790588,
            "velocity": 0.7952755905511811
          },
          {
            "duration": 0.34883699999997475,
            "durationTicks": 480,
            "midi": 71,
            "name": "B4",
            "ticks": 252000,
            "time": 183.13942500000002,
            "velocity": 0.8110236220472441
          },
          {
            "duration": 0.3488370000000032,
            "durationTicks": 480,
            "midi": 71,
            "name": "B4",
            "ticks": 252480,
            "time": 183.488262,
            "velocity": 0.7952755905511811
          },
          {
            "duration": 0.3488370000000032,
            "durationTicks": 480,
            "midi": 71,
            "name": "B4",
            "ticks": 252960,
            "time": 183.837099,
            "velocity": 0.8110236220472441
          },
          {
            "duration": 0.3488370000000032,
            "durationTicks": 480,
            "midi": 70,
            "name": "A#4",
            "ticks": 253440,
            "time": 184.185936,
            "velocity": 0.7952755905511811
          },
          {
            "duration": 0.3488370000000032,
            "durationTicks": 480,
            "midi": 70,
            "name": "A#4",
            "ticks": 253920,
            "time": 184.534773,
            "velocity": 0.8110236220472441
          },
          {
            "duration": 0.3488370000000032,
            "durationTicks": 480,
            "midi": 70,
            "name": "A#4",
            "ticks": 254400,
            "time": 184.88361,
            "velocity": 0.7952755905511811
          },
          {
            "duration": 0.3488370000000032,
            "durationTicks": 480,
            "midi": 70,
            "name": "A#4",
            "ticks": 254880,
            "time": 185.232447,
            "velocity": 0.8110236220472441
          },
          {
            "duration": 0.3488370000000032,
            "durationTicks": 480,
            "midi": 71,
            "name": "B4",
            "ticks": 255360,
            "time": 185.581284,
            "velocity": 0.7952755905511811
          },
          {
            "duration": 0.3488370000000032,
            "durationTicks": 480,
            "midi": 71,
            "name": "B4",
            "ticks": 255840,
            "time": 185.930121,
            "velocity": 0.8110236220472441
          },
          {
            "duration": 0.34883699999997475,
            "durationTicks": 480,
            "midi": 71,
            "name": "B4",
            "ticks": 256320,
            "time": 186.27895800000002,
            "velocity": 0.7952755905511811
          },
          {
            "duration": 0.3488370000000032,
            "durationTicks": 480,
            "midi": 71,
            "name": "B4",
            "ticks": 256800,
            "time": 186.627795,
            "velocity": 0.8110236220472441
          },
          {
            "duration": 0.3488370000000032,
            "durationTicks": 480,
            "midi": 71,
            "name": "B4",
            "ticks": 257280,
            "time": 186.976632,
            "velocity": 0.7952755905511811
          },
          {
            "duration": 0.3488370000000032,
            "durationTicks": 480,
            "midi": 71,
            "name": "B4",
            "ticks": 257760,
            "time": 187.325469,
            "velocity": 0.8110236220472441
          },
          {
            "duration": 0.3488370000000032,
            "durationTicks": 480,
            "midi": 71,
            "name": "B4",
            "ticks": 258240,
            "time": 187.674306,
            "velocity": 0.7952755905511811
          },
          {
            "duration": 0.3488370000000032,
            "durationTicks": 480,
            "midi": 71,
            "name": "B4",
            "ticks": 258720,
            "time": 188.023143,
            "velocity": 0.8110236220472441
          },
          {
            "duration": 0.3488370000000032,
            "durationTicks": 480,
            "midi": 71,
            "name": "B4",
            "ticks": 259200,
            "time": 188.37198,
            "velocity": 0.7952755905511811
          },
          {
            "duration": 0.3488370000000032,
            "durationTicks": 480,
            "midi": 71,
            "name": "B4",
            "ticks": 259680,
            "time": 188.720817,
            "velocity": 0.8110236220472441
          },
          {
            "duration": 0.3488370000000032,
            "durationTicks": 480,
            "midi": 71,
            "name": "B4",
            "ticks": 260160,
            "time": 189.069654,
            "velocity": 0.7952755905511811
          },
          {
            "duration": 0.34883699999997475,
            "durationTicks": 480,
            "midi": 71,
            "name": "B4",
            "ticks": 260640,
            "time": 189.41849100000002,
            "velocity": 0.8110236220472441
          },
          {
            "duration": 0.3488370000000032,
            "durationTicks": 480,
            "midi": 70,
            "name": "A#4",
            "ticks": 261120,
            "time": 189.767328,
            "velocity": 0.7952755905511811
          },
          {
            "duration": 0.3488370000000032,
            "durationTicks": 480,
            "midi": 70,
            "name": "A#4",
            "ticks": 261600,
            "time": 190.116165,
            "velocity": 0.8110236220472441
          },
          {
            "duration": 0.3488370000000032,
            "durationTicks": 480,
            "midi": 70,
            "name": "A#4",
            "ticks": 262080,
            "time": 190.465002,
            "velocity": 0.7952755905511811
          },
          {
            "duration": 0.3488370000000032,
            "durationTicks": 480,
            "midi": 70,
            "name": "A#4",
            "ticks": 262560,
            "time": 190.813839,
            "velocity": 0.8110236220472441
          }
        ]
      },
      {
        "channel": 0,
        "controlChanges": {},
        "pitchBends": [],
        "instrument": {
          "family": "piano",
          "number": 0,
          "name": "acoustic grand piano"
        },
        "name": "untitled",
        "notes": [],
        "endOfTrackTicks": 372480
      },
      {
        "channel": 13,
        "controlChanges": {
          "7": [
            {
              "number": 7,
              "ticks": 0,
              "time": 0,
              "value": 0.7086614173228346
            }
          ],
          "10": [
            {
              "number": 10,
              "ticks": 0,
              "time": 0,
              "value": 1
            }
          ]
        },
        "pitchBends": [],
        "instrument": {
          "family": "pipe",
          "number": 72,
          "name": "piccolo"
        },
        "name": "",
        "notes": [
          {
            "duration": 2.790695999999997,
            "durationTicks": 3840,
            "midi": 83,
            "name": "B5",
            "ticks": 124800,
            "time": 90.69762,
            "velocity": 0.7874015748031497
          },
          {
            "duration": 1.3953479999999985,
            "durationTicks": 1920,
            "midi": 83,
            "name": "B5",
            "ticks": 128640,
            "time": 93.488316,
            "velocity": 0.7874015748031497
          },
          {
            "duration": 1.3953480000000127,
            "durationTicks": 1920,
            "midi": 82,
            "name": "A#5",
            "ticks": 130560,
            "time": 94.883664,
            "velocity": 0.7874015748031497
          },
          {
            "duration": 2.790695999999997,
            "durationTicks": 3840,
            "midi": 83,
            "name": "B5",
            "ticks": 132480,
            "time": 96.27901200000001,
            "velocity": 0.7874015748031497
          },
          {
            "duration": 1.3953479999999985,
            "durationTicks": 1920,
            "midi": 83,
            "name": "B5",
            "ticks": 136320,
            "time": 99.069708,
            "velocity": 0.7874015748031497
          },
          {
            "duration": 1.3953479999999985,
            "durationTicks": 1920,
            "midi": 82,
            "name": "A#5",
            "ticks": 138240,
            "time": 100.465056,
            "velocity": 0.7874015748031497
          },
          {
            "duration": 2.790695999999997,
            "durationTicks": 3840,
            "midi": 83,
            "name": "B5",
            "ticks": 140160,
            "time": 101.860404,
            "velocity": 0.7874015748031497
          },
          {
            "duration": 1.3953479999999985,
            "durationTicks": 1920,
            "midi": 83,
            "name": "B5",
            "ticks": 144000,
            "time": 104.6511,
            "velocity": 0.7874015748031497
          },
          {
            "duration": 1.3953479999999985,
            "durationTicks": 1920,
            "midi": 82,
            "name": "A#5",
            "ticks": 145920,
            "time": 106.046448,
            "velocity": 0.7874015748031497
          },
          {
            "duration": 1.3953480000000127,
            "durationTicks": 1920,
            "midi": 83,
            "name": "B5",
            "ticks": 147840,
            "time": 107.441796,
            "velocity": 0.7874015748031497
          },
          {
            "duration": 0.3488370000000032,
            "durationTicks": 480,
            "midi": 71,
            "name": "B4",
            "ticks": 210240,
            "time": 152.790606,
            "velocity": 0.9448818897637795
          },
          {
            "duration": 0.3488370000000032,
            "durationTicks": 480,
            "midi": 70,
            "name": "A#4",
            "ticks": 210720,
            "time": 153.139443,
            "velocity": 0.9448818897637795
          },
          {
            "duration": 0.6976740000000063,
            "durationTicks": 960,
            "midi": 71,
            "name": "B4",
            "ticks": 211200,
            "time": 153.48828,
            "velocity": 0.9448818897637795
          },
          {
            "duration": 0.3488370000000032,
            "durationTicks": 480,
            "midi": 71,
            "name": "B4",
            "ticks": 214080,
            "time": 155.581302,
            "velocity": 0.9448818897637795
          },
          {
            "duration": 0.3488370000000032,
            "durationTicks": 480,
            "midi": 70,
            "name": "A#4",
            "ticks": 214560,
            "time": 155.930139,
            "velocity": 0.9448818897637795
          },
          {
            "duration": 0.5232555000000048,
            "durationTicks": 720,
            "midi": 71,
            "name": "B4",
            "ticks": 215040,
            "time": 156.278976,
            "velocity": 0.9448818897637795
          },
          {
            "duration": 1.09011562500001,
            "durationTicks": 1500,
            "midi": 71,
            "name": "B4",
            "ticks": 215760,
            "time": 156.8022315,
            "velocity": 0.9448818897637795
          },
          {
            "duration": 1.1773248749999823,
            "durationTicks": 1620,
            "midi": 70,
            "name": "A#4",
            "ticks": 217200,
            "time": 157.84874250000001,
            "velocity": 0.9448818897637795
          },
          {
            "duration": 2.790695999999997,
            "durationTicks": 3840,
            "midi": 83,
            "name": "B5",
            "ticks": 240000,
            "time": 174.4185,
            "velocity": 0.7874015748031497
          },
          {
            "duration": 1.3953480000000127,
            "durationTicks": 1920,
            "midi": 83,
            "name": "B5",
            "ticks": 243840,
            "time": 177.209196,
            "velocity": 0.7874015748031497
          },
          {
            "duration": 1.3953480000000127,
            "durationTicks": 1920,
            "midi": 82,
            "name": "A#5",
            "ticks": 245760,
            "time": 178.604544,
            "velocity": 0.7874015748031497
          },
          {
            "duration": 2.790695999999997,
            "durationTicks": 3840,
            "midi": 83,
            "name": "B5",
            "ticks": 247680,
            "time": 179.99989200000002,
            "velocity": 0.7874015748031497
          },
          {
            "duration": 1.3953479999999843,
            "durationTicks": 1920,
            "midi": 83,
            "name": "B5",
            "ticks": 251520,
            "time": 182.790588,
            "velocity": 0.7874015748031497
          },
          {
            "duration": 1.3953480000000127,
            "durationTicks": 1920,
            "midi": 82,
            "name": "A#5",
            "ticks": 253440,
            "time": 184.185936,
            "velocity": 0.7874015748031497
          },
          {
            "duration": 2.790695999999997,
            "durationTicks": 3840,
            "midi": 83,
            "name": "B5",
            "ticks": 255360,
            "time": 185.581284,
            "velocity": 0.7874015748031497
          },
          {
            "duration": 1.3953479999999843,
            "durationTicks": 1920,
            "midi": 83,
            "name": "B5",
            "ticks": 259200,
            "time": 188.37198,
            "velocity": 0.7874015748031497
          },
          {
            "duration": 1.3953480000000127,
            "durationTicks": 1920,
            "midi": 82,
            "name": "A#5",
            "ticks": 261120,
            "time": 189.767328,
            "velocity": 0.7874015748031497
          },
          {
            "duration": 1.3953480000000127,
            "durationTicks": 1920,
            "midi": 83,
            "name": "B5",
            "ticks": 263040,
            "time": 191.162676,
            "velocity": 0.7874015748031497
          }
        ]
      },
      {
        "channel": 0,
        "controlChanges": {},
        "pitchBends": [],
        "instrument": {
          "family": "piano",
          "number": 0,
          "name": "acoustic grand piano"
        },
        "name": "untitled",
        "notes": [],
        "endOfTrackTicks": 372480
      },
      {
        "channel": 14,
        "controlChanges": {
          "7": [
            {
              "number": 7,
              "ticks": 0,
              "time": 0,
              "value": 0.7086614173228346
            }
          ],
          "10": [
            {
              "number": 10,
              "ticks": 0,
              "time": 0,
              "value": 0
            }
          ]
        },
        "pitchBends": [
          {
            "ticks": 124828,
            "time": 90.717968825,
            "value": -0.953125
          },
          {
            "ticks": 124836,
            "time": 90.723782775,
            "value": -0.9375
          },
          {
            "ticks": 124844,
            "time": 90.729596725,
            "value": -0.921875
          },
          {
            "ticks": 124864,
            "time": 90.7441316,
            "value": -0.90625
          },
          {
            "ticks": 124876,
            "time": 90.75285252500001,
            "value": -0.890625
          },
          {
            "ticks": 124892,
            "time": 90.764480425,
            "value": -0.875
          },
          {
            "ticks": 124912,
            "time": 90.77901530000001,
            "value": -0.859375
          },
          {
            "ticks": 124924,
            "time": 90.787736225,
            "value": -0.84375
          },
          {
            "ticks": 124940,
            "time": 90.79936412500001,
            "value": -0.828125
          },
          {
            "ticks": 124960,
            "time": 90.81389899999999,
            "value": -0.8125
          },
          {
            "ticks": 124972,
            "time": 90.82261992500001,
            "value": -0.796875
          },
          {
            "ticks": 124988,
            "time": 90.83424782499999,
            "value": -0.78125
          },
          {
            "ticks": 125008,
            "time": 90.8487827,
            "value": -0.765625
          },
          {
            "ticks": 125020,
            "time": 90.85750362499999,
            "value": -0.75
          },
          {
            "ticks": 125036,
            "time": 90.869131525,
            "value": -0.734375
          },
          {
            "ticks": 125056,
            "time": 90.88366640000001,
            "value": -0.71875
          },
          {
            "ticks": 125068,
            "time": 90.892387325,
            "value": -0.703125
          },
          {
            "ticks": 125084,
            "time": 90.904015225,
            "value": -0.6875
          },
          {
            "ticks": 125096,
            "time": 90.91273615,
            "value": -0.671875
          },
          {
            "ticks": 125116,
            "time": 90.92727102500001,
            "value": -0.65625
          },
          {
            "ticks": 125132,
            "time": 90.938898925,
            "value": -0.640625
          },
          {
            "ticks": 125144,
            "time": 90.94761985,
            "value": -0.625
          },
          {
            "ticks": 125164,
            "time": 90.962154725,
            "value": -0.609375
          },
          {
            "ticks": 125180,
            "time": 90.97378262500001,
            "value": -0.59375
          },
          {
            "ticks": 125192,
            "time": 90.98250355,
            "value": -0.578125
          },
          {
            "ticks": 125212,
            "time": 90.99703842500001,
            "value": -0.5625
          },
          {
            "ticks": 125228,
            "time": 91.008666325,
            "value": -0.546875
          },
          {
            "ticks": 125240,
            "time": 91.01738725000001,
            "value": -0.53125
          },
          {
            "ticks": 125260,
            "time": 91.031922125,
            "value": -0.515625
          },
          {
            "ticks": 125276,
            "time": 91.043550025,
            "value": -0.5
          },
          {
            "ticks": 125288,
            "time": 91.05227095,
            "value": -0.484375
          },
          {
            "ticks": 125308,
            "time": 91.066805825,
            "value": -0.46875
          },
          {
            "ticks": 125316,
            "time": 91.07261977499999,
            "value": -0.453125
          },
          {
            "ticks": 125336,
            "time": 91.08715465,
            "value": -0.4375
          },
          {
            "ticks": 125356,
            "time": 91.10168952500001,
            "value": -0.421875
          },
          {
            "ticks": 125364,
            "time": 91.107503475,
            "value": -0.40625
          },
          {
            "ticks": 125384,
            "time": 91.12203835,
            "value": -0.390625
          },
          {
            "ticks": 125404,
            "time": 91.136573225,
            "value": -0.375
          },
          {
            "ticks": 125412,
            "time": 91.142387175,
            "value": -0.359375
          },
          {
            "ticks": 125432,
            "time": 91.15692205,
            "value": -0.34375
          },
          {
            "ticks": 125452,
            "time": 91.171456925,
            "value": -0.328125
          },
          {
            "ticks": 125460,
            "time": 91.177270875,
            "value": -0.3125
          },
          {
            "ticks": 125480,
            "time": 91.19180575000001,
            "value": -0.296875
          },
          {
            "ticks": 125500,
            "time": 91.206340625,
            "value": -0.28125
          },
          {
            "ticks": 125508,
            "time": 91.21215457500001,
            "value": -0.265625
          },
          {
            "ticks": 125528,
            "time": 91.22668945,
            "value": -0.25
          },
          {
            "ticks": 125536,
            "time": 91.23250340000001,
            "value": -0.234375
          },
          {
            "ticks": 125556,
            "time": 91.247038275,
            "value": -0.21875
          },
          {
            "ticks": 125576,
            "time": 91.26157315,
            "value": -0.203125
          },
          {
            "ticks": 125584,
            "time": 91.2673871,
            "value": -0.1875
          },
          {
            "ticks": 125604,
            "time": 91.281921975,
            "value": -0.171875
          },
          {
            "ticks": 125624,
            "time": 91.29645685,
            "value": -0.15625
          },
          {
            "ticks": 125632,
            "time": 91.3022708,
            "value": -0.140625
          },
          {
            "ticks": 125652,
            "time": 91.316805675,
            "value": -0.125
          },
          {
            "ticks": 125672,
            "time": 91.33134055000001,
            "value": -0.109375
          },
          {
            "ticks": 125680,
            "time": 91.3371545,
            "value": -0.09375
          },
          {
            "ticks": 125700,
            "time": 91.351689375,
            "value": -0.078125
          },
          {
            "ticks": 125720,
            "time": 91.36622425,
            "value": -0.0625
          },
          {
            "ticks": 125728,
            "time": 91.3720382,
            "value": -0.046875
          },
          {
            "ticks": 125748,
            "time": 91.38657307500002,
            "value": -0.03125
          },
          {
            "ticks": 125768,
            "time": 91.40110795,
            "value": 0
          },
          {
            "ticks": 127668,
            "time": 92.78192107500001,
            "value": 0.03125
          },
          {
            "ticks": 127688,
            "time": 92.79645595,
            "value": 0.015625
          },
          {
            "ticks": 127708,
            "time": 92.810990825,
            "value": 0
          },
          {
            "ticks": 127716,
            "time": 92.816804775,
            "value": -0.015625
          },
          {
            "ticks": 127736,
            "time": 92.83133965,
            "value": -0.03125
          },
          {
            "ticks": 127748,
            "time": 92.840060575,
            "value": -0.046875
          },
          {
            "ticks": 127764,
            "time": 92.851688475,
            "value": -0.0625
          },
          {
            "ticks": 127776,
            "time": 92.8604094,
            "value": -0.078125
          },
          {
            "ticks": 127796,
            "time": 92.874944275,
            "value": -0.09375
          },
          {
            "ticks": 127804,
            "time": 92.880758225,
            "value": -0.109375
          },
          {
            "ticks": 127824,
            "time": 92.8952931,
            "value": -0.125
          },
          {
            "ticks": 127832,
            "time": 92.90110705000001,
            "value": -0.140625
          },
          {
            "ticks": 127852,
            "time": 92.915641925,
            "value": -0.15625
          },
          {
            "ticks": 127860,
            "time": 92.921455875,
            "value": -0.171875
          },
          {
            "ticks": 127880,
            "time": 92.93599075,
            "value": -0.1875
          },
          {
            "ticks": 127892,
            "time": 92.94471167500001,
            "value": -0.203125
          },
          {
            "ticks": 127908,
            "time": 92.95633957500002,
            "value": -0.21875
          },
          {
            "ticks": 127920,
            "time": 92.9650605,
            "value": -0.234375
          },
          {
            "ticks": 127940,
            "time": 92.979595375,
            "value": -0.25
          },
          {
            "ticks": 127948,
            "time": 92.985409325,
            "value": -0.265625
          },
          {
            "ticks": 127968,
            "time": 92.99994420000002,
            "value": -0.28125
          },
          {
            "ticks": 127976,
            "time": 93.00575815,
            "value": -0.296875
          },
          {
            "ticks": 127996,
            "time": 93.02029302500002,
            "value": -0.3125
          },
          {
            "ticks": 128016,
            "time": 93.0348279,
            "value": -0.328125
          },
          {
            "ticks": 128024,
            "time": 93.04064184999999,
            "value": -0.34375
          },
          {
            "ticks": 128044,
            "time": 93.055176725,
            "value": -0.359375
          },
          {
            "ticks": 128052,
            "time": 93.060990675,
            "value": -0.375
          },
          {
            "ticks": 128072,
            "time": 93.07552555,
            "value": -0.390625
          },
          {
            "ticks": 128084,
            "time": 93.08424647499999,
            "value": -0.40625
          },
          {
            "ticks": 128100,
            "time": 93.09587437500001,
            "value": -0.421875
          },
          {
            "ticks": 128112,
            "time": 93.1045953,
            "value": -0.4375
          },
          {
            "ticks": 128132,
            "time": 93.119130175,
            "value": -0.453125
          },
          {
            "ticks": 128140,
            "time": 93.124944125,
            "value": -0.46875
          },
          {
            "ticks": 128160,
            "time": 93.13947900000001,
            "value": -0.484375
          },
          {
            "ticks": 128168,
            "time": 93.14529295,
            "value": -0.5
          },
          {
            "ticks": 128188,
            "time": 93.15982782500001,
            "value": -0.515625
          },
          {
            "ticks": 128196,
            "time": 93.165641775,
            "value": -0.53125
          },
          {
            "ticks": 128216,
            "time": 93.18017665,
            "value": -0.546875
          },
          {
            "ticks": 128228,
            "time": 93.188897575,
            "value": -0.5625
          },
          {
            "ticks": 128244,
            "time": 93.200525475,
            "value": -0.578125
          },
          {
            "ticks": 128256,
            "time": 93.2092464,
            "value": -0.59375
          },
          {
            "ticks": 128276,
            "time": 93.22378127500001,
            "value": -0.609375
          },
          {
            "ticks": 128284,
            "time": 93.229595225,
            "value": -0.625
          },
          {
            "ticks": 128304,
            "time": 93.2441301,
            "value": -0.640625
          },
          {
            "ticks": 128324,
            "time": 93.25866497499999,
            "value": -0.65625
          },
          {
            "ticks": 128332,
            "time": 93.264478925,
            "value": -0.671875
          },
          {
            "ticks": 128352,
            "time": 93.2790138,
            "value": -0.6875
          },
          {
            "ticks": 128360,
            "time": 93.28482775,
            "value": -0.703125
          },
          {
            "ticks": 128380,
            "time": 93.299362625,
            "value": -0.71875
          },
          {
            "ticks": 128388,
            "time": 93.305176575,
            "value": -0.734375
          },
          {
            "ticks": 128408,
            "time": 93.31971145,
            "value": -0.75
          },
          {
            "ticks": 128420,
            "time": 93.328432375,
            "value": -0.765625
          },
          {
            "ticks": 128436,
            "time": 93.340060275,
            "value": -0.78125
          },
          {
            "ticks": 128448,
            "time": 93.3487812,
            "value": -0.796875
          },
          {
            "ticks": 128468,
            "time": 93.363316075,
            "value": -0.8125
          },
          {
            "ticks": 128476,
            "time": 93.36913002500002,
            "value": -0.828125
          },
          {
            "ticks": 128496,
            "time": 93.3836649,
            "value": -0.84375
          },
          {
            "ticks": 128504,
            "time": 93.38947884999999,
            "value": -0.859375
          },
          {
            "ticks": 128524,
            "time": 93.404013725,
            "value": -0.875
          },
          {
            "ticks": 128532,
            "time": 93.40982767499999,
            "value": -0.890625
          },
          {
            "ticks": 128552,
            "time": 93.42436255,
            "value": -0.90625
          },
          {
            "ticks": 128564,
            "time": 93.43308347499999,
            "value": -0.921875
          },
          {
            "ticks": 128580,
            "time": 93.444711375,
            "value": -0.9375
          },
          {
            "ticks": 128592,
            "time": 93.45343229999999,
            "value": -0.953125
          },
          {
            "ticks": 128612,
            "time": 93.467967175,
            "value": -0.96875
          },
          {
            "ticks": 128620,
            "time": 93.473781125,
            "value": -0.984375
          },
          {
            "ticks": 128628,
            "time": 93.479595075,
            "value": -0.984375
          },
          {
            "ticks": 132508,
            "time": 96.29936082500001,
            "value": -0.953125
          },
          {
            "ticks": 132516,
            "time": 96.305174775,
            "value": -0.9375
          },
          {
            "ticks": 132524,
            "time": 96.31098872499999,
            "value": -0.921875
          },
          {
            "ticks": 132544,
            "time": 96.3255236,
            "value": -0.90625
          },
          {
            "ticks": 132556,
            "time": 96.33424452500002,
            "value": -0.890625
          },
          {
            "ticks": 132572,
            "time": 96.345872425,
            "value": -0.875
          },
          {
            "ticks": 132592,
            "time": 96.3604073,
            "value": -0.859375
          },
          {
            "ticks": 132604,
            "time": 96.369128225,
            "value": -0.84375
          },
          {
            "ticks": 132620,
            "time": 96.380756125,
            "value": -0.828125
          },
          {
            "ticks": 132640,
            "time": 96.395291,
            "value": -0.8125
          },
          {
            "ticks": 132652,
            "time": 96.404011925,
            "value": -0.796875
          },
          {
            "ticks": 132668,
            "time": 96.415639825,
            "value": -0.78125
          },
          {
            "ticks": 132688,
            "time": 96.43017470000001,
            "value": -0.765625
          },
          {
            "ticks": 132700,
            "time": 96.438895625,
            "value": -0.75
          },
          {
            "ticks": 132716,
            "time": 96.45052352500001,
            "value": -0.734375
          },
          {
            "ticks": 132736,
            "time": 96.46505840000002,
            "value": -0.71875
          },
          {
            "ticks": 132748,
            "time": 96.47377932500001,
            "value": -0.703125
          },
          {
            "ticks": 132764,
            "time": 96.48540722499999,
            "value": -0.6875
          },
          {
            "ticks": 132776,
            "time": 96.49412815000001,
            "value": -0.671875
          },
          {
            "ticks": 132796,
            "time": 96.50866302500002,
            "value": -0.65625
          },
          {
            "ticks": 132812,
            "time": 96.520290925,
            "value": -0.640625
          },
          {
            "ticks": 132824,
            "time": 96.52901184999999,
            "value": -0.625
          },
          {
            "ticks": 132844,
            "time": 96.543546725,
            "value": -0.609375
          },
          {
            "ticks": 132860,
            "time": 96.555174625,
            "value": -0.59375
          },
          {
            "ticks": 132872,
            "time": 96.56389555,
            "value": -0.578125
          },
          {
            "ticks": 132892,
            "time": 96.57843042500001,
            "value": -0.5625
          },
          {
            "ticks": 132908,
            "time": 96.590058325,
            "value": -0.546875
          },
          {
            "ticks": 132920,
            "time": 96.59877925,
            "value": -0.53125
          },
          {
            "ticks": 132940,
            "time": 96.613314125,
            "value": -0.515625
          },
          {
            "ticks": 132956,
            "time": 96.62494202500001,
            "value": -0.5
          },
          {
            "ticks": 132968,
            "time": 96.63366295,
            "value": -0.484375
          },
          {
            "ticks": 132988,
            "time": 96.648197825,
            "value": -0.46875
          },
          {
            "ticks": 132996,
            "time": 96.654011775,
            "value": -0.453125
          },
          {
            "ticks": 133016,
            "time": 96.66854665000001,
            "value": -0.4375
          },
          {
            "ticks": 133036,
            "time": 96.683081525,
            "value": -0.421875
          },
          {
            "ticks": 133044,
            "time": 96.68889547500001,
            "value": -0.40625
          },
          {
            "ticks": 133064,
            "time": 96.70343034999999,
            "value": -0.390625
          },
          {
            "ticks": 133084,
            "time": 96.717965225,
            "value": -0.375
          },
          {
            "ticks": 133092,
            "time": 96.72377917499999,
            "value": -0.359375
          },
          {
            "ticks": 133112,
            "time": 96.73831405,
            "value": -0.34375
          },
          {
            "ticks": 133132,
            "time": 96.75284892500001,
            "value": -0.328125
          },
          {
            "ticks": 133140,
            "time": 96.758662875,
            "value": -0.3125
          },
          {
            "ticks": 133160,
            "time": 96.77319775000001,
            "value": -0.296875
          },
          {
            "ticks": 133180,
            "time": 96.78773262499999,
            "value": -0.28125
          },
          {
            "ticks": 133188,
            "time": 96.79354657500001,
            "value": -0.265625
          },
          {
            "ticks": 133208,
            "time": 96.80808145,
            "value": -0.25
          },
          {
            "ticks": 133216,
            "time": 96.8138954,
            "value": -0.234375
          },
          {
            "ticks": 133236,
            "time": 96.828430275,
            "value": -0.21875
          },
          {
            "ticks": 133256,
            "time": 96.84296515000001,
            "value": -0.203125
          },
          {
            "ticks": 133264,
            "time": 96.8487791,
            "value": -0.1875
          },
          {
            "ticks": 133284,
            "time": 96.86331397500001,
            "value": -0.171875
          },
          {
            "ticks": 133304,
            "time": 96.87784884999999,
            "value": -0.15625
          },
          {
            "ticks": 133312,
            "time": 96.88366280000001,
            "value": -0.140625
          },
          {
            "ticks": 133332,
            "time": 96.89819767499999,
            "value": -0.125
          },
          {
            "ticks": 133352,
            "time": 96.91273255,
            "value": -0.109375
          },
          {
            "ticks": 133360,
            "time": 96.91854649999999,
            "value": -0.09375
          },
          {
            "ticks": 133380,
            "time": 96.933081375,
            "value": -0.078125
          },
          {
            "ticks": 133400,
            "time": 96.94761625000001,
            "value": -0.0625
          },
          {
            "ticks": 133408,
            "time": 96.9534302,
            "value": -0.046875
          },
          {
            "ticks": 133428,
            "time": 96.96796507500001,
            "value": -0.03125
          },
          {
            "ticks": 133448,
            "time": 96.98249994999999,
            "value": 0
          },
          {
            "ticks": 135348,
            "time": 98.36331307500001,
            "value": 0.03125
          },
          {
            "ticks": 135368,
            "time": 98.37784795,
            "value": 0.015625
          },
          {
            "ticks": 135388,
            "time": 98.392382825,
            "value": 0
          },
          {
            "ticks": 135396,
            "time": 98.398196775,
            "value": -0.015625
          },
          {
            "ticks": 135416,
            "time": 98.41273165000001,
            "value": -0.03125
          },
          {
            "ticks": 135428,
            "time": 98.421452575,
            "value": -0.046875
          },
          {
            "ticks": 135444,
            "time": 98.43308047500001,
            "value": -0.0625
          },
          {
            "ticks": 135456,
            "time": 98.4418014,
            "value": -0.078125
          },
          {
            "ticks": 135476,
            "time": 98.456336275,
            "value": -0.09375
          },
          {
            "ticks": 135484,
            "time": 98.462150225,
            "value": -0.109375
          },
          {
            "ticks": 135504,
            "time": 98.47668510000001,
            "value": -0.125
          },
          {
            "ticks": 135512,
            "time": 98.48249905,
            "value": -0.140625
          },
          {
            "ticks": 135532,
            "time": 98.49703392500001,
            "value": -0.15625
          },
          {
            "ticks": 135540,
            "time": 98.502847875,
            "value": -0.171875
          },
          {
            "ticks": 135560,
            "time": 98.51738275000001,
            "value": -0.1875
          },
          {
            "ticks": 135572,
            "time": 98.526103675,
            "value": -0.203125
          },
          {
            "ticks": 135588,
            "time": 98.53773157500001,
            "value": -0.21875
          },
          {
            "ticks": 135600,
            "time": 98.5464525,
            "value": -0.234375
          },
          {
            "ticks": 135620,
            "time": 98.56098737500001,
            "value": -0.25
          },
          {
            "ticks": 135628,
            "time": 98.566801325,
            "value": -0.265625
          },
          {
            "ticks": 135648,
            "time": 98.58133620000001,
            "value": -0.28125
          },
          {
            "ticks": 135656,
            "time": 98.58715015,
            "value": -0.296875
          },
          {
            "ticks": 135676,
            "time": 98.60168502500001,
            "value": -0.3125
          },
          {
            "ticks": 135696,
            "time": 98.6162199,
            "value": -0.328125
          },
          {
            "ticks": 135704,
            "time": 98.62203385,
            "value": -0.34375
          },
          {
            "ticks": 135724,
            "time": 98.636568725,
            "value": -0.359375
          },
          {
            "ticks": 135732,
            "time": 98.642382675,
            "value": -0.375
          },
          {
            "ticks": 135752,
            "time": 98.65691755,
            "value": -0.390625
          },
          {
            "ticks": 135764,
            "time": 98.665638475,
            "value": -0.40625
          },
          {
            "ticks": 135780,
            "time": 98.677266375,
            "value": -0.421875
          },
          {
            "ticks": 135792,
            "time": 98.6859873,
            "value": -0.4375
          },
          {
            "ticks": 135812,
            "time": 98.700522175,
            "value": -0.453125
          },
          {
            "ticks": 135820,
            "time": 98.70633612499999,
            "value": -0.46875
          },
          {
            "ticks": 135840,
            "time": 98.720871,
            "value": -0.484375
          },
          {
            "ticks": 135848,
            "time": 98.72668494999999,
            "value": -0.5
          },
          {
            "ticks": 135868,
            "time": 98.741219825,
            "value": -0.515625
          },
          {
            "ticks": 135876,
            "time": 98.74703377499999,
            "value": -0.53125
          },
          {
            "ticks": 135896,
            "time": 98.76156865,
            "value": -0.546875
          },
          {
            "ticks": 135908,
            "time": 98.77028957499999,
            "value": -0.5625
          },
          {
            "ticks": 135924,
            "time": 98.781917475,
            "value": -0.578125
          },
          {
            "ticks": 135936,
            "time": 98.79063839999999,
            "value": -0.59375
          },
          {
            "ticks": 135956,
            "time": 98.805173275,
            "value": -0.609375
          },
          {
            "ticks": 135964,
            "time": 98.810987225,
            "value": -0.625
          },
          {
            "ticks": 135984,
            "time": 98.8255221,
            "value": -0.640625
          },
          {
            "ticks": 136004,
            "time": 98.840056975,
            "value": -0.65625
          },
          {
            "ticks": 136012,
            "time": 98.84587092500001,
            "value": -0.671875
          },
          {
            "ticks": 136032,
            "time": 98.8604058,
            "value": -0.6875
          },
          {
            "ticks": 136040,
            "time": 98.86621975000001,
            "value": -0.703125
          },
          {
            "ticks": 136060,
            "time": 98.880754625,
            "value": -0.71875
          },
          {
            "ticks": 136068,
            "time": 98.88656857500001,
            "value": -0.734375
          },
          {
            "ticks": 136088,
            "time": 98.90110345,
            "value": -0.75
          },
          {
            "ticks": 136100,
            "time": 98.90982437500001,
            "value": -0.765625
          },
          {
            "ticks": 136116,
            "time": 98.921452275,
            "value": -0.78125
          },
          {
            "ticks": 136128,
            "time": 98.93017320000001,
            "value": -0.796875
          },
          {
            "ticks": 136148,
            "time": 98.944708075,
            "value": -0.8125
          },
          {
            "ticks": 136156,
            "time": 98.95052202500001,
            "value": -0.828125
          },
          {
            "ticks": 136176,
            "time": 98.9650569,
            "value": -0.84375
          },
          {
            "ticks": 136184,
            "time": 98.97087085,
            "value": -0.859375
          },
          {
            "ticks": 136204,
            "time": 98.985405725,
            "value": -0.875
          },
          {
            "ticks": 136212,
            "time": 98.991219675,
            "value": -0.890625
          },
          {
            "ticks": 136232,
            "time": 99.00575455,
            "value": -0.90625
          },
          {
            "ticks": 136244,
            "time": 99.014475475,
            "value": -0.921875
          },
          {
            "ticks": 136260,
            "time": 99.026103375,
            "value": -0.9375
          },
          {
            "ticks": 136272,
            "time": 99.0348243,
            "value": -0.953125
          },
          {
            "ticks": 136292,
            "time": 99.049359175,
            "value": -0.96875
          },
          {
            "ticks": 136300,
            "time": 99.055173125,
            "value": -0.984375
          },
          {
            "ticks": 136308,
            "time": 99.06098707500001,
            "value": -0.984375
          },
          {
            "ticks": 140188,
            "time": 101.880752825,
            "value": -0.953125
          },
          {
            "ticks": 140196,
            "time": 101.88656677499999,
            "value": -0.9375
          },
          {
            "ticks": 140204,
            "time": 101.892380725,
            "value": -0.921875
          },
          {
            "ticks": 140224,
            "time": 101.9069156,
            "value": -0.90625
          },
          {
            "ticks": 140236,
            "time": 101.91563652500001,
            "value": -0.890625
          },
          {
            "ticks": 140252,
            "time": 101.927264425,
            "value": -0.875
          },
          {
            "ticks": 140272,
            "time": 101.94179930000001,
            "value": -0.859375
          },
          {
            "ticks": 140284,
            "time": 101.950520225,
            "value": -0.84375
          },
          {
            "ticks": 140300,
            "time": 101.96214812500001,
            "value": -0.828125
          },
          {
            "ticks": 140320,
            "time": 101.976683,
            "value": -0.8125
          },
          {
            "ticks": 140332,
            "time": 101.98540392500001,
            "value": -0.796875
          },
          {
            "ticks": 140348,
            "time": 101.997031825,
            "value": -0.78125
          },
          {
            "ticks": 140368,
            "time": 102.0115667,
            "value": -0.765625
          },
          {
            "ticks": 140380,
            "time": 102.020287625,
            "value": -0.75
          },
          {
            "ticks": 140396,
            "time": 102.031915525,
            "value": -0.734375
          },
          {
            "ticks": 140416,
            "time": 102.04645040000001,
            "value": -0.71875
          },
          {
            "ticks": 140428,
            "time": 102.055171325,
            "value": -0.703125
          },
          {
            "ticks": 140444,
            "time": 102.066799225,
            "value": -0.6875
          },
          {
            "ticks": 140456,
            "time": 102.07552015,
            "value": -0.671875
          },
          {
            "ticks": 140476,
            "time": 102.09005502500001,
            "value": -0.65625
          },
          {
            "ticks": 140492,
            "time": 102.101682925,
            "value": -0.640625
          },
          {
            "ticks": 140504,
            "time": 102.11040385,
            "value": -0.625
          },
          {
            "ticks": 140524,
            "time": 102.12493872499999,
            "value": -0.609375
          },
          {
            "ticks": 140540,
            "time": 102.13656662500001,
            "value": -0.59375
          },
          {
            "ticks": 140552,
            "time": 102.14528755,
            "value": -0.578125
          },
          {
            "ticks": 140572,
            "time": 102.159822425,
            "value": -0.5625
          },
          {
            "ticks": 140588,
            "time": 102.171450325,
            "value": -0.546875
          },
          {
            "ticks": 140600,
            "time": 102.18017125000001,
            "value": -0.53125
          },
          {
            "ticks": 140620,
            "time": 102.194706125,
            "value": -0.515625
          },
          {
            "ticks": 140636,
            "time": 102.206334025,
            "value": -0.5
          },
          {
            "ticks": 140648,
            "time": 102.21505495,
            "value": -0.484375
          },
          {
            "ticks": 140668,
            "time": 102.229589825,
            "value": -0.46875
          },
          {
            "ticks": 140676,
            "time": 102.235403775,
            "value": -0.453125
          },
          {
            "ticks": 140696,
            "time": 102.24993865,
            "value": -0.4375
          },
          {
            "ticks": 140716,
            "time": 102.26447352500001,
            "value": -0.421875
          },
          {
            "ticks": 140724,
            "time": 102.270287475,
            "value": -0.40625
          },
          {
            "ticks": 140744,
            "time": 102.28482235,
            "value": -0.390625
          },
          {
            "ticks": 140764,
            "time": 102.299357225,
            "value": -0.375
          },
          {
            "ticks": 140772,
            "time": 102.305171175,
            "value": -0.359375
          },
          {
            "ticks": 140792,
            "time": 102.31970605000001,
            "value": -0.34375
          },
          {
            "ticks": 140812,
            "time": 102.334240925,
            "value": -0.328125
          },
          {
            "ticks": 140820,
            "time": 102.340054875,
            "value": -0.3125
          },
          {
            "ticks": 140840,
            "time": 102.35458975,
            "value": -0.296875
          },
          {
            "ticks": 140860,
            "time": 102.369124625,
            "value": -0.28125
          },
          {
            "ticks": 140868,
            "time": 102.37493857500002,
            "value": -0.265625
          },
          {
            "ticks": 140888,
            "time": 102.38947345,
            "value": -0.25
          },
          {
            "ticks": 140896,
            "time": 102.39528740000002,
            "value": -0.234375
          },
          {
            "ticks": 140916,
            "time": 102.409822275,
            "value": -0.21875
          },
          {
            "ticks": 140936,
            "time": 102.42435715,
            "value": -0.203125
          },
          {
            "ticks": 140944,
            "time": 102.4301711,
            "value": -0.1875
          },
          {
            "ticks": 140964,
            "time": 102.444705975,
            "value": -0.171875
          },
          {
            "ticks": 140984,
            "time": 102.45924084999999,
            "value": -0.15625
          },
          {
            "ticks": 140992,
            "time": 102.4650548,
            "value": -0.140625
          },
          {
            "ticks": 141012,
            "time": 102.479589675,
            "value": -0.125
          },
          {
            "ticks": 141032,
            "time": 102.49412455,
            "value": -0.109375
          },
          {
            "ticks": 141040,
            "time": 102.4999385,
            "value": -0.09375
          },
          {
            "ticks": 141060,
            "time": 102.51447337500001,
            "value": -0.078125
          },
          {
            "ticks": 141080,
            "time": 102.52900825,
            "value": -0.0625
          },
          {
            "ticks": 141088,
            "time": 102.53482220000001,
            "value": -0.046875
          },
          {
            "ticks": 141108,
            "time": 102.54935707500002,
            "value": -0.03125
          },
          {
            "ticks": 141128,
            "time": 102.56389195,
            "value": 0
          },
          {
            "ticks": 143028,
            "time": 103.94470507500002,
            "value": 0.03125
          },
          {
            "ticks": 143048,
            "time": 103.95923995,
            "value": 0.015625
          },
          {
            "ticks": 143068,
            "time": 103.973774825,
            "value": 0
          },
          {
            "ticks": 143076,
            "time": 103.979588775,
            "value": -0.015625
          },
          {
            "ticks": 143096,
            "time": 103.99412365,
            "value": -0.03125
          },
          {
            "ticks": 143108,
            "time": 104.002844575,
            "value": -0.046875
          },
          {
            "ticks": 143124,
            "time": 104.014472475,
            "value": -0.0625
          },
          {
            "ticks": 143136,
            "time": 104.0231934,
            "value": -0.078125
          },
          {
            "ticks": 143156,
            "time": 104.037728275,
            "value": -0.09375
          },
          {
            "ticks": 143164,
            "time": 104.043542225,
            "value": -0.109375
          },
          {
            "ticks": 143184,
            "time": 104.0580771,
            "value": -0.125
          },
          {
            "ticks": 143192,
            "time": 104.06389105,
            "value": -0.140625
          },
          {
            "ticks": 143212,
            "time": 104.078425925,
            "value": -0.15625
          },
          {
            "ticks": 143220,
            "time": 104.08423987500001,
            "value": -0.171875
          },
          {
            "ticks": 143240,
            "time": 104.09877475,
            "value": -0.1875
          },
          {
            "ticks": 143252,
            "time": 104.107495675,
            "value": -0.203125
          },
          {
            "ticks": 143268,
            "time": 104.11912357500002,
            "value": -0.21875
          },
          {
            "ticks": 143280,
            "time": 104.12784450000001,
            "value": -0.234375
          },
          {
            "ticks": 143300,
            "time": 104.142379375,
            "value": -0.25
          },
          {
            "ticks": 143308,
            "time": 104.14819332500001,
            "value": -0.265625
          },
          {
            "ticks": 143328,
            "time": 104.1627282,
            "value": -0.28125
          },
          {
            "ticks": 143336,
            "time": 104.16854215000001,
            "value": -0.296875
          },
          {
            "ticks": 143356,
            "time": 104.18307702500002,
            "value": -0.3125
          },
          {
            "ticks": 143376,
            "time": 104.1976119,
            "value": -0.328125
          },
          {
            "ticks": 143384,
            "time": 104.20342584999999,
            "value": -0.34375
          },
          {
            "ticks": 143404,
            "time": 104.217960725,
            "value": -0.359375
          },
          {
            "ticks": 143412,
            "time": 104.223774675,
            "value": -0.375
          },
          {
            "ticks": 143432,
            "time": 104.23830955,
            "value": -0.390625
          },
          {
            "ticks": 143444,
            "time": 104.24703047499999,
            "value": -0.40625
          },
          {
            "ticks": 143460,
            "time": 104.258658375,
            "value": -0.421875
          },
          {
            "ticks": 143472,
            "time": 104.26737929999999,
            "value": -0.4375
          },
          {
            "ticks": 143492,
            "time": 104.281914175,
            "value": -0.453125
          },
          {
            "ticks": 143500,
            "time": 104.287728125,
            "value": -0.46875
          },
          {
            "ticks": 143520,
            "time": 104.302263,
            "value": -0.484375
          },
          {
            "ticks": 143528,
            "time": 104.30807695,
            "value": -0.5
          },
          {
            "ticks": 143548,
            "time": 104.32261182500001,
            "value": -0.515625
          },
          {
            "ticks": 143556,
            "time": 104.328425775,
            "value": -0.53125
          },
          {
            "ticks": 143576,
            "time": 104.34296065000001,
            "value": -0.546875
          },
          {
            "ticks": 143588,
            "time": 104.351681575,
            "value": -0.5625
          },
          {
            "ticks": 143604,
            "time": 104.36330947500001,
            "value": -0.578125
          },
          {
            "ticks": 143616,
            "time": 104.3720304,
            "value": -0.59375
          },
          {
            "ticks": 143636,
            "time": 104.38656527500001,
            "value": -0.609375
          },
          {
            "ticks": 143644,
            "time": 104.392379225,
            "value": -0.625
          },
          {
            "ticks": 143664,
            "time": 104.40691410000001,
            "value": -0.640625
          },
          {
            "ticks": 143684,
            "time": 104.42144897499999,
            "value": -0.65625
          },
          {
            "ticks": 143692,
            "time": 104.42726292500001,
            "value": -0.671875
          },
          {
            "ticks": 143712,
            "time": 104.44179779999999,
            "value": -0.6875
          },
          {
            "ticks": 143720,
            "time": 104.44761175000001,
            "value": -0.703125
          },
          {
            "ticks": 143740,
            "time": 104.462146625,
            "value": -0.71875
          },
          {
            "ticks": 143748,
            "time": 104.467960575,
            "value": -0.734375
          },
          {
            "ticks": 143768,
            "time": 104.48249545,
            "value": -0.75
          },
          {
            "ticks": 143780,
            "time": 104.49121637500001,
            "value": -0.765625
          },
          {
            "ticks": 143796,
            "time": 104.502844275,
            "value": -0.78125
          },
          {
            "ticks": 143808,
            "time": 104.5115652,
            "value": -0.796875
          },
          {
            "ticks": 143828,
            "time": 104.526100075,
            "value": -0.8125
          },
          {
            "ticks": 143836,
            "time": 104.531914025,
            "value": -0.828125
          },
          {
            "ticks": 143856,
            "time": 104.5464489,
            "value": -0.84375
          },
          {
            "ticks": 143864,
            "time": 104.55226284999999,
            "value": -0.859375
          },
          {
            "ticks": 143884,
            "time": 104.566797725,
            "value": -0.875
          },
          {
            "ticks": 143892,
            "time": 104.57261167499999,
            "value": -0.890625
          },
          {
            "ticks": 143912,
            "time": 104.58714655,
            "value": -0.90625
          },
          {
            "ticks": 143924,
            "time": 104.59586747499999,
            "value": -0.921875
          },
          {
            "ticks": 143940,
            "time": 104.607495375,
            "value": -0.9375
          },
          {
            "ticks": 143952,
            "time": 104.61621629999999,
            "value": -0.953125
          },
          {
            "ticks": 143972,
            "time": 104.630751175,
            "value": -0.96875
          },
          {
            "ticks": 143980,
            "time": 104.63656512499999,
            "value": -0.984375
          },
          {
            "ticks": 143988,
            "time": 104.64237907500001,
            "value": -0.984375
          },
          {
            "ticks": 240028,
            "time": 174.438848825,
            "value": -0.953125
          },
          {
            "ticks": 240036,
            "time": 174.444662775,
            "value": -0.9375
          },
          {
            "ticks": 240044,
            "time": 174.450476725,
            "value": -0.921875
          },
          {
            "ticks": 240064,
            "time": 174.4650116,
            "value": -0.90625
          },
          {
            "ticks": 240076,
            "time": 174.473732525,
            "value": -0.890625
          },
          {
            "ticks": 240092,
            "time": 174.485360425,
            "value": -0.875
          },
          {
            "ticks": 240112,
            "time": 174.49989530000002,
            "value": -0.859375
          },
          {
            "ticks": 240124,
            "time": 174.508616225,
            "value": -0.84375
          },
          {
            "ticks": 240140,
            "time": 174.520244125,
            "value": -0.828125
          },
          {
            "ticks": 240160,
            "time": 174.534779,
            "value": -0.8125
          },
          {
            "ticks": 240172,
            "time": 174.54349992500002,
            "value": -0.796875
          },
          {
            "ticks": 240188,
            "time": 174.555127825,
            "value": -0.78125
          },
          {
            "ticks": 240208,
            "time": 174.5696627,
            "value": -0.765625
          },
          {
            "ticks": 240220,
            "time": 174.578383625,
            "value": -0.75
          },
          {
            "ticks": 240236,
            "time": 174.590011525,
            "value": -0.734375
          },
          {
            "ticks": 240256,
            "time": 174.6045464,
            "value": -0.71875
          },
          {
            "ticks": 240268,
            "time": 174.613267325,
            "value": -0.703125
          },
          {
            "ticks": 240284,
            "time": 174.624895225,
            "value": -0.6875
          },
          {
            "ticks": 240296,
            "time": 174.63361615,
            "value": -0.671875
          },
          {
            "ticks": 240316,
            "time": 174.648151025,
            "value": -0.65625
          },
          {
            "ticks": 240332,
            "time": 174.659778925,
            "value": -0.640625
          },
          {
            "ticks": 240344,
            "time": 174.66849985,
            "value": -0.625
          },
          {
            "ticks": 240364,
            "time": 174.683034725,
            "value": -0.609375
          },
          {
            "ticks": 240380,
            "time": 174.694662625,
            "value": -0.59375
          },
          {
            "ticks": 240392,
            "time": 174.70338355,
            "value": -0.578125
          },
          {
            "ticks": 240412,
            "time": 174.71791842500002,
            "value": -0.5625
          },
          {
            "ticks": 240428,
            "time": 174.729546325,
            "value": -0.546875
          },
          {
            "ticks": 240440,
            "time": 174.73826725,
            "value": -0.53125
          },
          {
            "ticks": 240460,
            "time": 174.752802125,
            "value": -0.515625
          },
          {
            "ticks": 240476,
            "time": 174.764430025,
            "value": -0.5
          },
          {
            "ticks": 240488,
            "time": 174.77315095,
            "value": -0.484375
          },
          {
            "ticks": 240508,
            "time": 174.787685825,
            "value": -0.46875
          },
          {
            "ticks": 240516,
            "time": 174.793499775,
            "value": -0.453125
          },
          {
            "ticks": 240536,
            "time": 174.80803465,
            "value": -0.4375
          },
          {
            "ticks": 240556,
            "time": 174.822569525,
            "value": -0.421875
          },
          {
            "ticks": 240564,
            "time": 174.828383475,
            "value": -0.40625
          },
          {
            "ticks": 240584,
            "time": 174.84291835,
            "value": -0.390625
          },
          {
            "ticks": 240604,
            "time": 174.857453225,
            "value": -0.375
          },
          {
            "ticks": 240612,
            "time": 174.863267175,
            "value": -0.359375
          },
          {
            "ticks": 240632,
            "time": 174.87780205,
            "value": -0.34375
          },
          {
            "ticks": 240652,
            "time": 174.89233692500002,
            "value": -0.328125
          },
          {
            "ticks": 240660,
            "time": 174.898150875,
            "value": -0.3125
          },
          {
            "ticks": 240680,
            "time": 174.91268575,
            "value": -0.296875
          },
          {
            "ticks": 240700,
            "time": 174.927220625,
            "value": -0.28125
          },
          {
            "ticks": 240708,
            "time": 174.93303457500002,
            "value": -0.265625
          },
          {
            "ticks": 240728,
            "time": 174.94756945,
            "value": -0.25
          },
          {
            "ticks": 240736,
            "time": 174.9533834,
            "value": -0.234375
          },
          {
            "ticks": 240756,
            "time": 174.967918275,
            "value": -0.21875
          },
          {
            "ticks": 240776,
            "time": 174.98245315,
            "value": -0.203125
          },
          {
            "ticks": 240784,
            "time": 174.9882671,
            "value": -0.1875
          },
          {
            "ticks": 240804,
            "time": 175.002801975,
            "value": -0.171875
          },
          {
            "ticks": 240824,
            "time": 175.01733685,
            "value": -0.15625
          },
          {
            "ticks": 240832,
            "time": 175.0231508,
            "value": -0.140625
          },
          {
            "ticks": 240852,
            "time": 175.037685675,
            "value": -0.125
          },
          {
            "ticks": 240872,
            "time": 175.05222055000002,
            "value": -0.109375
          },
          {
            "ticks": 240880,
            "time": 175.0580345,
            "value": -0.09375
          },
          {
            "ticks": 240900,
            "time": 175.072569375,
            "value": -0.078125
          },
          {
            "ticks": 240920,
            "time": 175.08710425,
            "value": -0.0625
          },
          {
            "ticks": 240928,
            "time": 175.0929182,
            "value": -0.046875
          },
          {
            "ticks": 240948,
            "time": 175.10745307500002,
            "value": -0.03125
          },
          {
            "ticks": 240968,
            "time": 175.12198795,
            "value": 0
          },
          {
            "ticks": 242868,
            "time": 176.502801075,
            "value": 0.03125
          },
          {
            "ticks": 242888,
            "time": 176.51733595,
            "value": 0.015625
          },
          {
            "ticks": 242908,
            "time": 176.531870825,
            "value": 0
          },
          {
            "ticks": 242916,
            "time": 176.537684775,
            "value": -0.015625
          },
          {
            "ticks": 242936,
            "time": 176.55221965,
            "value": -0.03125
          },
          {
            "ticks": 242948,
            "time": 176.560940575,
            "value": -0.046875
          },
          {
            "ticks": 242964,
            "time": 176.572568475,
            "value": -0.0625
          },
          {
            "ticks": 242976,
            "time": 176.5812894,
            "value": -0.078125
          },
          {
            "ticks": 242996,
            "time": 176.595824275,
            "value": -0.09375
          },
          {
            "ticks": 243004,
            "time": 176.601638225,
            "value": -0.109375
          },
          {
            "ticks": 243024,
            "time": 176.6161731,
            "value": -0.125
          },
          {
            "ticks": 243032,
            "time": 176.62198705,
            "value": -0.140625
          },
          {
            "ticks": 243052,
            "time": 176.636521925,
            "value": -0.15625
          },
          {
            "ticks": 243060,
            "time": 176.64233587500001,
            "value": -0.171875
          },
          {
            "ticks": 243080,
            "time": 176.65687075000002,
            "value": -0.1875
          },
          {
            "ticks": 243092,
            "time": 176.665591675,
            "value": -0.203125
          },
          {
            "ticks": 243108,
            "time": 176.677219575,
            "value": -0.21875
          },
          {
            "ticks": 243120,
            "time": 176.68594050000002,
            "value": -0.234375
          },
          {
            "ticks": 243140,
            "time": 176.70047537500002,
            "value": -0.25
          },
          {
            "ticks": 243148,
            "time": 176.706289325,
            "value": -0.265625
          },
          {
            "ticks": 243168,
            "time": 176.7208242,
            "value": -0.28125
          },
          {
            "ticks": 243176,
            "time": 176.72663815,
            "value": -0.296875
          },
          {
            "ticks": 243196,
            "time": 176.74117302500002,
            "value": -0.3125
          },
          {
            "ticks": 243216,
            "time": 176.7557079,
            "value": -0.328125
          },
          {
            "ticks": 243224,
            "time": 176.76152185,
            "value": -0.34375
          },
          {
            "ticks": 243244,
            "time": 176.776056725,
            "value": -0.359375
          },
          {
            "ticks": 243252,
            "time": 176.781870675,
            "value": -0.375
          },
          {
            "ticks": 243272,
            "time": 176.79640555,
            "value": -0.390625
          },
          {
            "ticks": 243284,
            "time": 176.805126475,
            "value": -0.40625
          },
          {
            "ticks": 243300,
            "time": 176.81675437500002,
            "value": -0.421875
          },
          {
            "ticks": 243312,
            "time": 176.8254753,
            "value": -0.4375
          },
          {
            "ticks": 243332,
            "time": 176.840010175,
            "value": -0.453125
          },
          {
            "ticks": 243340,
            "time": 176.845824125,
            "value": -0.46875
          },
          {
            "ticks": 243360,
            "time": 176.86035900000002,
            "value": -0.484375
          },
          {
            "ticks": 243368,
            "time": 176.86617295,
            "value": -0.5
          },
          {
            "ticks": 243388,
            "time": 176.880707825,
            "value": -0.515625
          },
          {
            "ticks": 243396,
            "time": 176.886521775,
            "value": -0.53125
          },
          {
            "ticks": 243416,
            "time": 176.90105665000002,
            "value": -0.546875
          },
          {
            "ticks": 243428,
            "time": 176.909777575,
            "value": -0.5625
          },
          {
            "ticks": 243444,
            "time": 176.921405475,
            "value": -0.578125
          },
          {
            "ticks": 243456,
            "time": 176.9301264,
            "value": -0.59375
          },
          {
            "ticks": 243476,
            "time": 176.94466127500002,
            "value": -0.609375
          },
          {
            "ticks": 243484,
            "time": 176.950475225,
            "value": -0.625
          },
          {
            "ticks": 243504,
            "time": 176.9650101,
            "value": -0.640625
          },
          {
            "ticks": 243524,
            "time": 176.97954497499998,
            "value": -0.65625
          },
          {
            "ticks": 243532,
            "time": 176.985358925,
            "value": -0.671875
          },
          {
            "ticks": 243552,
            "time": 176.9998938,
            "value": -0.6875
          },
          {
            "ticks": 243560,
            "time": 177.00570775,
            "value": -0.703125
          },
          {
            "ticks": 243580,
            "time": 177.020242625,
            "value": -0.71875
          },
          {
            "ticks": 243588,
            "time": 177.026056575,
            "value": -0.734375
          },
          {
            "ticks": 243608,
            "time": 177.04059145,
            "value": -0.75
          },
          {
            "ticks": 243620,
            "time": 177.049312375,
            "value": -0.765625
          },
          {
            "ticks": 243636,
            "time": 177.060940275,
            "value": -0.78125
          },
          {
            "ticks": 243648,
            "time": 177.0696612,
            "value": -0.796875
          },
          {
            "ticks": 243668,
            "time": 177.084196075,
            "value": -0.8125
          },
          {
            "ticks": 243676,
            "time": 177.09001002500003,
            "value": -0.828125
          },
          {
            "ticks": 243696,
            "time": 177.1045449,
            "value": -0.84375
          },
          {
            "ticks": 243704,
            "time": 177.11035884999998,
            "value": -0.859375
          },
          {
            "ticks": 243724,
            "time": 177.124893725,
            "value": -0.875
          },
          {
            "ticks": 243732,
            "time": 177.130707675,
            "value": -0.890625
          },
          {
            "ticks": 243752,
            "time": 177.14524255,
            "value": -0.90625
          },
          {
            "ticks": 243764,
            "time": 177.15396347499998,
            "value": -0.921875
          },
          {
            "ticks": 243780,
            "time": 177.165591375,
            "value": -0.9375
          },
          {
            "ticks": 243792,
            "time": 177.1743123,
            "value": -0.953125
          },
          {
            "ticks": 243812,
            "time": 177.188847175,
            "value": -0.96875
          },
          {
            "ticks": 243820,
            "time": 177.194661125,
            "value": -0.984375
          },
          {
            "ticks": 243828,
            "time": 177.200475075,
            "value": -0.984375
          },
          {
            "ticks": 247708,
            "time": 180.02024082499997,
            "value": -0.953125
          },
          {
            "ticks": 247716,
            "time": 180.02605477500003,
            "value": -0.9375
          },
          {
            "ticks": 247724,
            "time": 180.031868725,
            "value": -0.921875
          },
          {
            "ticks": 247744,
            "time": 180.0464036,
            "value": -0.90625
          },
          {
            "ticks": 247756,
            "time": 180.055124525,
            "value": -0.890625
          },
          {
            "ticks": 247772,
            "time": 180.06675242500003,
            "value": -0.875
          },
          {
            "ticks": 247792,
            "time": 180.0812873,
            "value": -0.859375
          },
          {
            "ticks": 247804,
            "time": 180.090008225,
            "value": -0.84375
          },
          {
            "ticks": 247820,
            "time": 180.101636125,
            "value": -0.828125
          },
          {
            "ticks": 247840,
            "time": 180.116171,
            "value": -0.8125
          },
          {
            "ticks": 247852,
            "time": 180.12489192500001,
            "value": -0.796875
          },
          {
            "ticks": 247868,
            "time": 180.136519825,
            "value": -0.78125
          },
          {
            "ticks": 247888,
            "time": 180.15105469999997,
            "value": -0.765625
          },
          {
            "ticks": 247900,
            "time": 180.159775625,
            "value": -0.75
          },
          {
            "ticks": 247916,
            "time": 180.17140352500002,
            "value": -0.734375
          },
          {
            "ticks": 247936,
            "time": 180.1859384,
            "value": -0.71875
          },
          {
            "ticks": 247948,
            "time": 180.19465932499998,
            "value": -0.703125
          },
          {
            "ticks": 247964,
            "time": 180.206287225,
            "value": -0.6875
          },
          {
            "ticks": 247976,
            "time": 180.21500815000002,
            "value": -0.671875
          },
          {
            "ticks": 247996,
            "time": 180.229543025,
            "value": -0.65625
          },
          {
            "ticks": 248012,
            "time": 180.24117092500003,
            "value": -0.640625
          },
          {
            "ticks": 248024,
            "time": 180.24989185,
            "value": -0.625
          },
          {
            "ticks": 248044,
            "time": 180.264426725,
            "value": -0.609375
          },
          {
            "ticks": 248060,
            "time": 180.276054625,
            "value": -0.59375
          },
          {
            "ticks": 248072,
            "time": 180.28477555000003,
            "value": -0.578125
          },
          {
            "ticks": 248092,
            "time": 180.29931042500002,
            "value": -0.5625
          },
          {
            "ticks": 248108,
            "time": 180.310938325,
            "value": -0.546875
          },
          {
            "ticks": 248120,
            "time": 180.31965925,
            "value": -0.53125
          },
          {
            "ticks": 248140,
            "time": 180.334194125,
            "value": -0.515625
          },
          {
            "ticks": 248156,
            "time": 180.34582202500002,
            "value": -0.5
          },
          {
            "ticks": 248168,
            "time": 180.35454295,
            "value": -0.484375
          },
          {
            "ticks": 248188,
            "time": 180.36907782499998,
            "value": -0.46875
          },
          {
            "ticks": 248196,
            "time": 180.374891775,
            "value": -0.453125
          },
          {
            "ticks": 248216,
            "time": 180.38942665000002,
            "value": -0.4375
          },
          {
            "ticks": 248236,
            "time": 180.403961525,
            "value": -0.421875
          },
          {
            "ticks": 248244,
            "time": 180.40977547499998,
            "value": -0.40625
          },
          {
            "ticks": 248264,
            "time": 180.42431035,
            "value": -0.390625
          },
          {
            "ticks": 248284,
            "time": 180.438845225,
            "value": -0.375
          },
          {
            "ticks": 248292,
            "time": 180.444659175,
            "value": -0.359375
          },
          {
            "ticks": 248312,
            "time": 180.45919405000004,
            "value": -0.34375
          },
          {
            "ticks": 248332,
            "time": 180.47372892500002,
            "value": -0.328125
          },
          {
            "ticks": 248340,
            "time": 180.479542875,
            "value": -0.3125
          },
          {
            "ticks": 248360,
            "time": 180.49407775,
            "value": -0.296875
          },
          {
            "ticks": 248380,
            "time": 180.508612625,
            "value": -0.28125
          },
          {
            "ticks": 248388,
            "time": 180.51442657500002,
            "value": -0.265625
          },
          {
            "ticks": 248408,
            "time": 180.52896145,
            "value": -0.25
          },
          {
            "ticks": 248416,
            "time": 180.5347754,
            "value": -0.234375
          },
          {
            "ticks": 248436,
            "time": 180.549310275,
            "value": -0.21875
          },
          {
            "ticks": 248456,
            "time": 180.56384515000002,
            "value": -0.203125
          },
          {
            "ticks": 248464,
            "time": 180.5696591,
            "value": -0.1875
          },
          {
            "ticks": 248484,
            "time": 180.58419397499998,
            "value": -0.171875
          },
          {
            "ticks": 248504,
            "time": 180.59872885000001,
            "value": -0.15625
          },
          {
            "ticks": 248512,
            "time": 180.60454280000002,
            "value": -0.140625
          },
          {
            "ticks": 248532,
            "time": 180.619077675,
            "value": -0.125
          },
          {
            "ticks": 248552,
            "time": 180.63361255,
            "value": -0.109375
          },
          {
            "ticks": 248560,
            "time": 180.6394265,
            "value": -0.09375
          },
          {
            "ticks": 248580,
            "time": 180.653961375,
            "value": -0.078125
          },
          {
            "ticks": 248600,
            "time": 180.66849625,
            "value": -0.0625
          },
          {
            "ticks": 248608,
            "time": 180.67431019999998,
            "value": -0.046875
          },
          {
            "ticks": 248628,
            "time": 180.68884507500002,
            "value": -0.03125
          },
          {
            "ticks": 248648,
            "time": 180.70337995,
            "value": 0
          },
          {
            "ticks": 250548,
            "time": 182.084193075,
            "value": 0.03125
          },
          {
            "ticks": 250568,
            "time": 182.09872795,
            "value": 0.015625
          },
          {
            "ticks": 250588,
            "time": 182.113262825,
            "value": 0
          },
          {
            "ticks": 250596,
            "time": 182.11907677500002,
            "value": -0.015625
          },
          {
            "ticks": 250616,
            "time": 182.13361165,
            "value": -0.03125
          },
          {
            "ticks": 250628,
            "time": 182.142332575,
            "value": -0.046875
          },
          {
            "ticks": 250644,
            "time": 182.153960475,
            "value": -0.0625
          },
          {
            "ticks": 250656,
            "time": 182.16268140000003,
            "value": -0.078125
          },
          {
            "ticks": 250676,
            "time": 182.177216275,
            "value": -0.09375
          },
          {
            "ticks": 250684,
            "time": 182.183030225,
            "value": -0.109375
          },
          {
            "ticks": 250704,
            "time": 182.1975651,
            "value": -0.125
          },
          {
            "ticks": 250712,
            "time": 182.20337905000002,
            "value": -0.140625
          },
          {
            "ticks": 250732,
            "time": 182.217913925,
            "value": -0.15625
          },
          {
            "ticks": 250740,
            "time": 182.223727875,
            "value": -0.171875
          },
          {
            "ticks": 250760,
            "time": 182.23826275,
            "value": -0.1875
          },
          {
            "ticks": 250772,
            "time": 182.24698367500002,
            "value": -0.203125
          },
          {
            "ticks": 250788,
            "time": 182.258611575,
            "value": -0.21875
          },
          {
            "ticks": 250800,
            "time": 182.2673325,
            "value": -0.234375
          },
          {
            "ticks": 250820,
            "time": 182.281867375,
            "value": -0.25
          },
          {
            "ticks": 250828,
            "time": 182.287681325,
            "value": -0.265625
          },
          {
            "ticks": 250848,
            "time": 182.3022162,
            "value": -0.28125
          },
          {
            "ticks": 250856,
            "time": 182.30803015,
            "value": -0.296875
          },
          {
            "ticks": 250876,
            "time": 182.322565025,
            "value": -0.3125
          },
          {
            "ticks": 250896,
            "time": 182.33709990000003,
            "value": -0.328125
          },
          {
            "ticks": 250904,
            "time": 182.34291385,
            "value": -0.34375
          },
          {
            "ticks": 250924,
            "time": 182.357448725,
            "value": -0.359375
          },
          {
            "ticks": 250932,
            "time": 182.363262675,
            "value": -0.375
          },
          {
            "ticks": 250952,
            "time": 182.37779755000003,
            "value": -0.390625
          },
          {
            "ticks": 250964,
            "time": 182.386518475,
            "value": -0.40625
          },
          {
            "ticks": 250980,
            "time": 182.398146375,
            "value": -0.421875
          },
          {
            "ticks": 250992,
            "time": 182.4068673,
            "value": -0.4375
          },
          {
            "ticks": 251012,
            "time": 182.42140217500003,
            "value": -0.453125
          },
          {
            "ticks": 251020,
            "time": 182.42721612500003,
            "value": -0.46875
          },
          {
            "ticks": 251040,
            "time": 182.441751,
            "value": -0.484375
          },
          {
            "ticks": 251048,
            "time": 182.44756495,
            "value": -0.5
          },
          {
            "ticks": 251068,
            "time": 182.462099825,
            "value": -0.515625
          },
          {
            "ticks": 251076,
            "time": 182.46791377500003,
            "value": -0.53125
          },
          {
            "ticks": 251096,
            "time": 182.48244865,
            "value": -0.546875
          },
          {
            "ticks": 251108,
            "time": 182.491169575,
            "value": -0.5625
          },
          {
            "ticks": 251124,
            "time": 182.502797475,
            "value": -0.578125
          },
          {
            "ticks": 251136,
            "time": 182.51151840000003,
            "value": -0.59375
          },
          {
            "ticks": 251156,
            "time": 182.526053275,
            "value": -0.609375
          },
          {
            "ticks": 251164,
            "time": 182.531867225,
            "value": -0.625
          },
          {
            "ticks": 251184,
            "time": 182.5464021,
            "value": -0.640625
          },
          {
            "ticks": 251204,
            "time": 182.560936975,
            "value": -0.65625
          },
          {
            "ticks": 251212,
            "time": 182.566750925,
            "value": -0.671875
          },
          {
            "ticks": 251232,
            "time": 182.5812858,
            "value": -0.6875
          },
          {
            "ticks": 251240,
            "time": 182.58709975,
            "value": -0.703125
          },
          {
            "ticks": 251260,
            "time": 182.60163462500003,
            "value": -0.71875
          },
          {
            "ticks": 251268,
            "time": 182.607448575,
            "value": -0.734375
          },
          {
            "ticks": 251288,
            "time": 182.62198345,
            "value": -0.75
          },
          {
            "ticks": 251300,
            "time": 182.630704375,
            "value": -0.765625
          },
          {
            "ticks": 251316,
            "time": 182.64233227500003,
            "value": -0.78125
          },
          {
            "ticks": 251328,
            "time": 182.6510532,
            "value": -0.796875
          },
          {
            "ticks": 251348,
            "time": 182.665588075,
            "value": -0.8125
          },
          {
            "ticks": 251356,
            "time": 182.671402025,
            "value": -0.828125
          },
          {
            "ticks": 251376,
            "time": 182.68593690000003,
            "value": -0.84375
          },
          {
            "ticks": 251384,
            "time": 182.69175085,
            "value": -0.859375
          },
          {
            "ticks": 251404,
            "time": 182.70628572500001,
            "value": -0.875
          },
          {
            "ticks": 251412,
            "time": 182.712099675,
            "value": -0.890625
          },
          {
            "ticks": 251432,
            "time": 182.72663455000003,
            "value": -0.90625
          },
          {
            "ticks": 251444,
            "time": 182.735355475,
            "value": -0.921875
          },
          {
            "ticks": 251460,
            "time": 182.746983375,
            "value": -0.9375
          },
          {
            "ticks": 251472,
            "time": 182.7557043,
            "value": -0.953125
          },
          {
            "ticks": 251492,
            "time": 182.77023917500003,
            "value": -0.96875
          },
          {
            "ticks": 251500,
            "time": 182.776053125,
            "value": -0.984375
          },
          {
            "ticks": 251508,
            "time": 182.781867075,
            "value": -0.984375
          },
          {
            "ticks": 255388,
            "time": 185.601632825,
            "value": -0.953125
          },
          {
            "ticks": 255396,
            "time": 185.60744677500003,
            "value": -0.9375
          },
          {
            "ticks": 255404,
            "time": 185.613260725,
            "value": -0.921875
          },
          {
            "ticks": 255424,
            "time": 185.6277956,
            "value": -0.90625
          },
          {
            "ticks": 255436,
            "time": 185.636516525,
            "value": -0.890625
          },
          {
            "ticks": 255452,
            "time": 185.64814442500003,
            "value": -0.875
          },
          {
            "ticks": 255472,
            "time": 185.6626793,
            "value": -0.859375
          },
          {
            "ticks": 255484,
            "time": 185.671400225,
            "value": -0.84375
          },
          {
            "ticks": 255500,
            "time": 185.683028125,
            "value": -0.828125
          },
          {
            "ticks": 255520,
            "time": 185.69756300000003,
            "value": -0.8125
          },
          {
            "ticks": 255532,
            "time": 185.706283925,
            "value": -0.796875
          },
          {
            "ticks": 255548,
            "time": 185.717911825,
            "value": -0.78125
          },
          {
            "ticks": 255568,
            "time": 185.7324467,
            "value": -0.765625
          },
          {
            "ticks": 255580,
            "time": 185.74116762500003,
            "value": -0.75
          },
          {
            "ticks": 255596,
            "time": 185.752795525,
            "value": -0.734375
          },
          {
            "ticks": 255616,
            "time": 185.7673304,
            "value": -0.71875
          },
          {
            "ticks": 255628,
            "time": 185.776051325,
            "value": -0.703125
          },
          {
            "ticks": 255644,
            "time": 185.787679225,
            "value": -0.6875
          },
          {
            "ticks": 255656,
            "time": 185.79640015,
            "value": -0.671875
          },
          {
            "ticks": 255676,
            "time": 185.810935025,
            "value": -0.65625
          },
          {
            "ticks": 255692,
            "time": 185.82256292500003,
            "value": -0.640625
          },
          {
            "ticks": 255704,
            "time": 185.83128385,
            "value": -0.625
          },
          {
            "ticks": 255724,
            "time": 185.84581872500002,
            "value": -0.609375
          },
          {
            "ticks": 255740,
            "time": 185.857446625,
            "value": -0.59375
          },
          {
            "ticks": 255752,
            "time": 185.86616755000003,
            "value": -0.578125
          },
          {
            "ticks": 255772,
            "time": 185.880702425,
            "value": -0.5625
          },
          {
            "ticks": 255788,
            "time": 185.892330325,
            "value": -0.546875
          },
          {
            "ticks": 255800,
            "time": 185.90105125,
            "value": -0.53125
          },
          {
            "ticks": 255820,
            "time": 185.915586125,
            "value": -0.515625
          },
          {
            "ticks": 255836,
            "time": 185.927214025,
            "value": -0.5
          },
          {
            "ticks": 255848,
            "time": 185.93593495,
            "value": -0.484375
          },
          {
            "ticks": 255868,
            "time": 185.950469825,
            "value": -0.46875
          },
          {
            "ticks": 255876,
            "time": 185.95628377500003,
            "value": -0.453125
          },
          {
            "ticks": 255896,
            "time": 185.97081865,
            "value": -0.4375
          },
          {
            "ticks": 255916,
            "time": 185.985353525,
            "value": -0.421875
          },
          {
            "ticks": 255924,
            "time": 185.991167475,
            "value": -0.40625
          },
          {
            "ticks": 255944,
            "time": 186.00570235,
            "value": -0.390625
          },
          {
            "ticks": 255964,
            "time": 186.020237225,
            "value": -0.375
          },
          {
            "ticks": 255972,
            "time": 186.026051175,
            "value": -0.359375
          },
          {
            "ticks": 255992,
            "time": 186.04058605000003,
            "value": -0.34375
          },
          {
            "ticks": 256012,
            "time": 186.055120925,
            "value": -0.328125
          },
          {
            "ticks": 256020,
            "time": 186.06093487500002,
            "value": -0.3125
          },
          {
            "ticks": 256040,
            "time": 186.07546975,
            "value": -0.296875
          },
          {
            "ticks": 256060,
            "time": 186.090004625,
            "value": -0.28125
          },
          {
            "ticks": 256068,
            "time": 186.095818575,
            "value": -0.265625
          },
          {
            "ticks": 256088,
            "time": 186.11035345,
            "value": -0.25
          },
          {
            "ticks": 256096,
            "time": 186.1161674,
            "value": -0.234375
          },
          {
            "ticks": 256116,
            "time": 186.13070227500003,
            "value": -0.21875
          },
          {
            "ticks": 256136,
            "time": 186.14523715,
            "value": -0.203125
          },
          {
            "ticks": 256144,
            "time": 186.1510511,
            "value": -0.1875
          },
          {
            "ticks": 256164,
            "time": 186.165585975,
            "value": -0.171875
          },
          {
            "ticks": 256184,
            "time": 186.18012085,
            "value": -0.15625
          },
          {
            "ticks": 256192,
            "time": 186.1859348,
            "value": -0.140625
          },
          {
            "ticks": 256212,
            "time": 186.200469675,
            "value": -0.125
          },
          {
            "ticks": 256232,
            "time": 186.21500455000003,
            "value": -0.109375
          },
          {
            "ticks": 256240,
            "time": 186.2208185,
            "value": -0.09375
          },
          {
            "ticks": 256260,
            "time": 186.23535337500002,
            "value": -0.078125
          },
          {
            "ticks": 256280,
            "time": 186.24988825,
            "value": -0.0625
          },
          {
            "ticks": 256288,
            "time": 186.25570219999997,
            "value": -0.046875
          },
          {
            "ticks": 256308,
            "time": 186.270237075,
            "value": -0.03125
          },
          {
            "ticks": 256328,
            "time": 186.28477195,
            "value": 0
          },
          {
            "ticks": 258228,
            "time": 187.66558507500002,
            "value": 0.03125
          },
          {
            "ticks": 258248,
            "time": 187.68011995,
            "value": 0.015625
          },
          {
            "ticks": 258268,
            "time": 187.694654825,
            "value": 0
          },
          {
            "ticks": 258276,
            "time": 187.70046877500002,
            "value": -0.015625
          },
          {
            "ticks": 258296,
            "time": 187.71500365,
            "value": -0.03125
          },
          {
            "ticks": 258308,
            "time": 187.723724575,
            "value": -0.046875
          },
          {
            "ticks": 258324,
            "time": 187.73535247499998,
            "value": -0.0625
          },
          {
            "ticks": 258336,
            "time": 187.74407340000002,
            "value": -0.078125
          },
          {
            "ticks": 258356,
            "time": 187.758608275,
            "value": -0.09375
          },
          {
            "ticks": 258364,
            "time": 187.764422225,
            "value": -0.109375
          },
          {
            "ticks": 258384,
            "time": 187.77895709999999,
            "value": -0.125
          },
          {
            "ticks": 258392,
            "time": 187.78477105000002,
            "value": -0.140625
          },
          {
            "ticks": 258412,
            "time": 187.799305925,
            "value": -0.15625
          },
          {
            "ticks": 258420,
            "time": 187.805119875,
            "value": -0.171875
          },
          {
            "ticks": 258440,
            "time": 187.81965474999998,
            "value": -0.1875
          },
          {
            "ticks": 258452,
            "time": 187.82837567500002,
            "value": -0.203125
          },
          {
            "ticks": 258468,
            "time": 187.84000357500003,
            "value": -0.21875
          },
          {
            "ticks": 258480,
            "time": 187.8487245,
            "value": -0.234375
          },
          {
            "ticks": 258500,
            "time": 187.86325937499998,
            "value": -0.25
          },
          {
            "ticks": 258508,
            "time": 187.869073325,
            "value": -0.265625
          },
          {
            "ticks": 258528,
            "time": 187.88360820000003,
            "value": -0.28125
          },
          {
            "ticks": 258536,
            "time": 187.88942215,
            "value": -0.296875
          },
          {
            "ticks": 258556,
            "time": 187.90395702499998,
            "value": -0.3125
          },
          {
            "ticks": 258576,
            "time": 187.91849190000002,
            "value": -0.328125
          },
          {
            "ticks": 258584,
            "time": 187.92430585000002,
            "value": -0.34375
          },
          {
            "ticks": 258604,
            "time": 187.938840725,
            "value": -0.359375
          },
          {
            "ticks": 258612,
            "time": 187.944654675,
            "value": -0.375
          },
          {
            "ticks": 258632,
            "time": 187.95918955000002,
            "value": -0.390625
          },
          {
            "ticks": 258644,
            "time": 187.96791047500002,
            "value": -0.40625
          },
          {
            "ticks": 258660,
            "time": 187.979538375,
            "value": -0.421875
          },
          {
            "ticks": 258672,
            "time": 187.9882593,
            "value": -0.4375
          },
          {
            "ticks": 258692,
            "time": 188.00279417500002,
            "value": -0.453125
          },
          {
            "ticks": 258700,
            "time": 188.00860812500002,
            "value": -0.46875
          },
          {
            "ticks": 258720,
            "time": 188.023143,
            "value": -0.484375
          },
          {
            "ticks": 258728,
            "time": 188.02895695,
            "value": -0.5
          },
          {
            "ticks": 258748,
            "time": 188.043491825,
            "value": -0.515625
          },
          {
            "ticks": 258756,
            "time": 188.04930577500002,
            "value": -0.53125
          },
          {
            "ticks": 258776,
            "time": 188.06384065,
            "value": -0.546875
          },
          {
            "ticks": 258788,
            "time": 188.072561575,
            "value": -0.5625
          },
          {
            "ticks": 258804,
            "time": 188.084189475,
            "value": -0.578125
          },
          {
            "ticks": 258816,
            "time": 188.09291040000002,
            "value": -0.59375
          },
          {
            "ticks": 258836,
            "time": 188.107445275,
            "value": -0.609375
          },
          {
            "ticks": 258844,
            "time": 188.113259225,
            "value": -0.625
          },
          {
            "ticks": 258864,
            "time": 188.1277941,
            "value": -0.640625
          },
          {
            "ticks": 258884,
            "time": 188.14232897500003,
            "value": -0.65625
          },
          {
            "ticks": 258892,
            "time": 188.148142925,
            "value": -0.671875
          },
          {
            "ticks": 258912,
            "time": 188.16267779999998,
            "value": -0.6875
          },
          {
            "ticks": 258920,
            "time": 188.16849175,
            "value": -0.703125
          },
          {
            "ticks": 258940,
            "time": 188.18302662500002,
            "value": -0.71875
          },
          {
            "ticks": 258948,
            "time": 188.188840575,
            "value": -0.734375
          },
          {
            "ticks": 258968,
            "time": 188.20337545,
            "value": -0.75
          },
          {
            "ticks": 258980,
            "time": 188.212096375,
            "value": -0.765625
          },
          {
            "ticks": 258996,
            "time": 188.22372427500002,
            "value": -0.78125
          },
          {
            "ticks": 259008,
            "time": 188.2324452,
            "value": -0.796875
          },
          {
            "ticks": 259028,
            "time": 188.246980075,
            "value": -0.8125
          },
          {
            "ticks": 259036,
            "time": 188.252794025,
            "value": -0.828125
          },
          {
            "ticks": 259056,
            "time": 188.26732890000002,
            "value": -0.84375
          },
          {
            "ticks": 259064,
            "time": 188.27314285000003,
            "value": -0.859375
          },
          {
            "ticks": 259084,
            "time": 188.287677725,
            "value": -0.875
          },
          {
            "ticks": 259092,
            "time": 188.29349167499998,
            "value": -0.890625
          },
          {
            "ticks": 259112,
            "time": 188.30802655000002,
            "value": -0.90625
          },
          {
            "ticks": 259124,
            "time": 188.31674747500003,
            "value": -0.921875
          },
          {
            "ticks": 259140,
            "time": 188.328375375,
            "value": -0.9375
          },
          {
            "ticks": 259152,
            "time": 188.33709629999998,
            "value": -0.953125
          },
          {
            "ticks": 259172,
            "time": 188.35163117500002,
            "value": -0.96875
          },
          {
            "ticks": 259180,
            "time": 188.35744512500003,
            "value": -0.984375
          },
          {
            "ticks": 259188,
            "time": 188.363259075,
            "value": -0.984375
          }
        ],
        "instrument": {
          "family": "pipe",
          "number": 73,
          "name": "flute"
        },
        "name": "",
        "notes": [
          {
            "duration": 5.581392000000008,
            "durationTicks": 7680,
            "midi": 68,
            "name": "G#4",
            "ticks": 124800,
            "time": 90.69762,
            "velocity": 0.7874015748031497
          },
          {
            "duration": 5.581391999999994,
            "durationTicks": 7680,
            "midi": 68,
            "name": "G#4",
            "ticks": 132480,
            "time": 96.27901200000001,
            "velocity": 0.7874015748031497
          },
          {
            "duration": 5.581391999999994,
            "durationTicks": 7680,
            "midi": 68,
            "name": "G#4",
            "ticks": 140160,
            "time": 101.860404,
            "velocity": 0.7874015748031497
          },
          {
            "duration": 5.581392000000022,
            "durationTicks": 7680,
            "midi": 68,
            "name": "G#4",
            "ticks": 240000,
            "time": 174.4185,
            "velocity": 0.7874015748031497
          },
          {
            "duration": 5.581391999999994,
            "durationTicks": 7680,
            "midi": 68,
            "name": "G#4",
            "ticks": 247680,
            "time": 179.99989200000002,
            "velocity": 0.7874015748031497
          },
          {
            "duration": 5.581391999999994,
            "durationTicks": 7680,
            "midi": 68,
            "name": "G#4",
            "ticks": 255360,
            "time": 185.581284,
            "velocity": 0.7874015748031497
          }
        ]
      }
    ]
  }