{
    "header": {
      "keySignatures": [
        {
          "key": "F",
          "scale": "major",
          "ticks": 0
        }
      ],
      "meta": [],
      "name": "",
      "ppq": 480,
      "tempos": [
        {
          "bpm": 89.9999550000225,
          "ticks": 0
        }
      ],
      "timeSignatures": [
        {
          "ticks": 0,
          "timeSignature": [
            4,
            4
          ],
          "measures": 0
        }
      ]
    },
    "tracks": [
      {
        "channel": 0,
        "controlChanges": {},
        "pitchBends": [],
        "instrument": {
          "family": "piano",
          "number": 0,
          "name": "acoustic grand piano"
        },
        "name": "BEATLES_THE_-_Yesterday__Take",
        "notes": [],
        "endOfTrackTicks": 1920
      },
      {
        "channel": 0,
        "controlChanges": {
          "0": [
            {
              "number": 0,
              "ticks": 0,
              "time": 0,
              "value": 0
            }
          ]
        },
        "pitchBends": [],
        "instrument": {
          "family": "piano",
          "number": 0,
          "name": "acoustic grand piano"
        },
        "name": "melody",
        "notes": [],
        "endOfTrackTicks": 90240
      },
      {
        "channel": 0,
        "controlChanges": {
          "7": [
            {
              "number": 7,
              "ticks": 0,
              "time": 0,
              "value": 1
            }
          ],
          "10": [
            {
              "number": 10,
              "ticks": 0,
              "time": 0,
              "value": 0.7086614173228346
            }
          ]
        },
        "pitchBends": [],
        "instrument": {
          "family": "guitar",
          "number": 24,
          "name": "acoustic guitar (nylon)"
        },
        "name": "",
        "notes": [
          {
            "duration": 0.33333350000000017,
            "durationTicks": 240,
            "midi": 55,
            "name": "G3",
            "ticks": 1920,
            "time": 2.666668,
            "velocity": 1
          },
          {
            "duration": 0.22916678125,
            "durationTicks": 165,
            "midi": 53,
            "name": "F3",
            "ticks": 2160,
            "time": 3.0000015,
            "velocity": 1
          },
          {
            "duration": 0.7013892395833334,
            "durationTicks": 505,
            "midi": 53,
            "name": "F3",
            "ticks": 2400,
            "time": 3.333335,
            "velocity": 1
          },
          {
            "duration": 0.36805573958333326,
            "durationTicks": 265,
            "midi": 57,
            "name": "A3",
            "ticks": 4320,
            "time": 6.000003,
            "velocity": 1
          },
          {
            "duration": 0.35416684375000074,
            "durationTicks": 255,
            "midi": 59,
            "name": "B3",
            "ticks": 4560,
            "time": 6.3333365,
            "velocity": 1
          },
          {
            "duration": 0.35416684374999985,
            "durationTicks": 255,
            "midi": 61,
            "name": "C#4",
            "ticks": 4800,
            "time": 6.66667,
            "velocity": 1
          },
          {
            "duration": 0.34027794791666643,
            "durationTicks": 245,
            "midi": 62,
            "name": "D4",
            "ticks": 5040,
            "time": 7.0000035,
            "velocity": 1
          },
          {
            "duration": 0.20833343750000033,
            "durationTicks": 150,
            "midi": 64,
            "name": "E4",
            "ticks": 5280,
            "time": 7.333337,
            "velocity": 1
          },
          {
            "duration": 0.2638890208333331,
            "durationTicks": 190,
            "midi": 65,
            "name": "F4",
            "ticks": 5520,
            "time": 7.6666705,
            "velocity": 1
          },
          {
            "duration": 0.5000002499999994,
            "durationTicks": 360,
            "midi": 64,
            "name": "E4",
            "ticks": 5760,
            "time": 8.000004,
            "velocity": 1
          },
          {
            "duration": 0.1666667499999992,
            "durationTicks": 120,
            "midi": 62,
            "name": "D4",
            "ticks": 6240,
            "time": 8.666671000000001,
            "velocity": 1
          },
          {
            "duration": 2.2430566770833327,
            "durationTicks": 1615,
            "midi": 62,
            "name": "D4",
            "ticks": 6480,
            "time": 9.0000045,
            "velocity": 1
          },
          {
            "duration": 0.1666667499999992,
            "durationTicks": 120,
            "midi": 62,
            "name": "D4",
            "ticks": 8160,
            "time": 11.333339,
            "velocity": 1
          },
          {
            "duration": 0.29166681249999904,
            "durationTicks": 210,
            "midi": 62,
            "name": "D4",
            "ticks": 8400,
            "time": 11.6666725,
            "velocity": 1
          },
          {
            "duration": 0.31944460416666765,
            "durationTicks": 230,
            "midi": 60,
            "name": "C4",
            "ticks": 8640,
            "time": 12.000006,
            "velocity": 1
          },
          {
            "duration": 0.32638905208333213,
            "durationTicks": 235,
            "midi": 58,
            "name": "A#3",
            "ticks": 8880,
            "time": 12.333339500000001,
            "velocity": 1
          },
          {
            "duration": 0.3472223958333327,
            "durationTicks": 250,
            "midi": 57,
            "name": "A3",
            "ticks": 9120,
            "time": 12.666673,
            "velocity": 1
          },
          {
            "duration": 0.3611112916666688,
            "durationTicks": 260,
            "midi": 55,
            "name": "G3",
            "ticks": 9360,
            "time": 13.0000065,
            "velocity": 1
          },
          {
            "duration": 0.5972225208333324,
            "durationTicks": 430,
            "midi": 58,
            "name": "A#3",
            "ticks": 9600,
            "time": 13.33334,
            "velocity": 1
          },
          {
            "duration": 0.30555570833333334,
            "durationTicks": 220,
            "midi": 57,
            "name": "A3",
            "ticks": 10080,
            "time": 14.000007,
            "velocity": 1
          },
          {
            "duration": 0.7916670625000002,
            "durationTicks": 570,
            "midi": 57,
            "name": "A3",
            "ticks": 10320,
            "time": 14.3333405,
            "velocity": 1
          },
          {
            "duration": 0.3472223958333327,
            "durationTicks": 250,
            "midi": 55,
            "name": "G3",
            "ticks": 11280,
            "time": 15.666674500000001,
            "velocity": 1
          },
          {
            "duration": 0.6597225520833305,
            "durationTicks": 475,
            "midi": 53,
            "name": "F3",
            "ticks": 11520,
            "time": 16.000008,
            "velocity": 1
          },
          {
            "duration": 0.3819446354166658,
            "durationTicks": 275,
            "midi": 57,
            "name": "A3",
            "ticks": 12000,
            "time": 16.666675,
            "velocity": 1
          },
          {
            "duration": 1.2569450729166682,
            "durationTicks": 905,
            "midi": 55,
            "name": "G3",
            "ticks": 12240,
            "time": 17.0000085,
            "velocity": 1
          },
          {
            "duration": 0.32638905208333213,
            "durationTicks": 235,
            "midi": 50,
            "name": "D3",
            "ticks": 13200,
            "time": 18.3333425,
            "velocity": 1
          },
          {
            "duration": 0.5416669375000005,
            "durationTicks": 390,
            "midi": 53,
            "name": "F3",
            "ticks": 13440,
            "time": 18.666676,
            "velocity": 1
          },
          {
            "duration": 0.24305567708333342,
            "durationTicks": 175,
            "midi": 57,
            "name": "A3",
            "ticks": 13920,
            "time": 19.333343,
            "velocity": 1
          },
          {
            "duration": 0.5138891458333319,
            "durationTicks": 370,
            "midi": 57,
            "name": "A3",
            "ticks": 14160,
            "time": 19.6666765,
            "velocity": 1
          },
          {
            "duration": 0.3333334999999984,
            "durationTicks": 240,
            "midi": 55,
            "name": "G3",
            "ticks": 15360,
            "time": 21.333344,
            "velocity": 1
          },
          {
            "duration": 0.2291667812500009,
            "durationTicks": 165,
            "midi": 53,
            "name": "F3",
            "ticks": 15600,
            "time": 21.6666775,
            "velocity": 1
          },
          {
            "duration": 0.7013892395833352,
            "durationTicks": 505,
            "midi": 53,
            "name": "F3",
            "ticks": 15840,
            "time": 22.000011,
            "velocity": 1
          },
          {
            "duration": 0.36805573958333326,
            "durationTicks": 265,
            "midi": 57,
            "name": "A3",
            "ticks": 17760,
            "time": 24.666679000000002,
            "velocity": 1
          },
          {
            "duration": 0.35416684375000074,
            "durationTicks": 255,
            "midi": 59,
            "name": "B3",
            "ticks": 18000,
            "time": 25.0000125,
            "velocity": 1
          },
          {
            "duration": 0.35416684375000074,
            "durationTicks": 255,
            "midi": 61,
            "name": "C#4",
            "ticks": 18240,
            "time": 25.333346,
            "velocity": 1
          },
          {
            "duration": 0.34027794791666466,
            "durationTicks": 245,
            "midi": 62,
            "name": "D4",
            "ticks": 18480,
            "time": 25.6666795,
            "velocity": 1
          },
          {
            "duration": 0.2083334375000021,
            "durationTicks": 150,
            "midi": 64,
            "name": "E4",
            "ticks": 18720,
            "time": 26.000013,
            "velocity": 1
          },
          {
            "duration": 0.26388902083333576,
            "durationTicks": 190,
            "midi": 65,
            "name": "F4",
            "ticks": 18960,
            "time": 26.3333465,
            "velocity": 1
          },
          {
            "duration": 0.5000002499999994,
            "durationTicks": 360,
            "midi": 64,
            "name": "E4",
            "ticks": 19200,
            "time": 26.66668,
            "velocity": 1
          },
          {
            "duration": 0.16666675000000097,
            "durationTicks": 120,
            "midi": 62,
            "name": "D4",
            "ticks": 19680,
            "time": 27.333347,
            "velocity": 1
          },
          {
            "duration": 2.2430566770833344,
            "durationTicks": 1615,
            "midi": 62,
            "name": "D4",
            "ticks": 19920,
            "time": 27.666680500000002,
            "velocity": 1
          },
          {
            "duration": 0.16666675000000097,
            "durationTicks": 120,
            "midi": 62,
            "name": "D4",
            "ticks": 21600,
            "time": 30.000015,
            "velocity": 1
          },
          {
            "duration": 0.2916668125000008,
            "durationTicks": 210,
            "midi": 62,
            "name": "D4",
            "ticks": 21840,
            "time": 30.3333485,
            "velocity": 1
          },
          {
            "duration": 0.3194446041666623,
            "durationTicks": 230,
            "midi": 60,
            "name": "C4",
            "ticks": 22080,
            "time": 30.666682,
            "velocity": 1
          },
          {
            "duration": 0.3263890520833357,
            "durationTicks": 235,
            "midi": 58,
            "name": "A#3",
            "ticks": 22320,
            "time": 31.0000155,
            "velocity": 1
          },
          {
            "duration": 0.3472223958333345,
            "durationTicks": 250,
            "midi": 57,
            "name": "A3",
            "ticks": 22560,
            "time": 31.333349000000002,
            "velocity": 1
          },
          {
            "duration": 0.361111291666667,
            "durationTicks": 260,
            "midi": 55,
            "name": "G3",
            "ticks": 22800,
            "time": 31.6666825,
            "velocity": 1
          },
          {
            "duration": 0.5972225208333342,
            "durationTicks": 430,
            "midi": 58,
            "name": "A#3",
            "ticks": 23040,
            "time": 32.000016,
            "velocity": 1
          },
          {
            "duration": 0.3055557083333369,
            "durationTicks": 220,
            "midi": 57,
            "name": "A3",
            "ticks": 23520,
            "time": 32.666683,
            "velocity": 1
          },
          {
            "duration": 0.7916670624999966,
            "durationTicks": 570,
            "midi": 57,
            "name": "A3",
            "ticks": 23760,
            "time": 33.0000165,
            "velocity": 1
          },
          {
            "duration": 0.3472223958333345,
            "durationTicks": 250,
            "midi": 55,
            "name": "G3",
            "ticks": 24720,
            "time": 34.3333505,
            "velocity": 1
          },
          {
            "duration": 0.6597225520833305,
            "durationTicks": 475,
            "midi": 53,
            "name": "F3",
            "ticks": 24960,
            "time": 34.666684000000004,
            "velocity": 1
          },
          {
            "duration": 0.3819446354166658,
            "durationTicks": 275,
            "midi": 57,
            "name": "A3",
            "ticks": 25440,
            "time": 35.333351,
            "velocity": 1
          },
          {
            "duration": 1.2569450729166647,
            "durationTicks": 905,
            "midi": 55,
            "name": "G3",
            "ticks": 25680,
            "time": 35.6666845,
            "velocity": 1
          },
          {
            "duration": 0.3263890520833357,
            "durationTicks": 235,
            "midi": 50,
            "name": "D3",
            "ticks": 26640,
            "time": 37.0000185,
            "velocity": 1
          },
          {
            "duration": 0.541666937500004,
            "durationTicks": 390,
            "midi": 53,
            "name": "F3",
            "ticks": 26880,
            "time": 37.333352,
            "velocity": 1
          },
          {
            "duration": 0.24305567708333342,
            "durationTicks": 175,
            "midi": 57,
            "name": "A3",
            "ticks": 27360,
            "time": 38.000019,
            "velocity": 1
          },
          {
            "duration": 0.5138891458333319,
            "durationTicks": 370,
            "midi": 57,
            "name": "A3",
            "ticks": 27600,
            "time": 38.333352500000004,
            "velocity": 1
          },
          {
            "duration": 1.0277782916666638,
            "durationTicks": 740,
            "midi": 57,
            "name": "A3",
            "ticks": 28800,
            "time": 40.00002,
            "velocity": 1
          },
          {
            "duration": 0.902778229166664,
            "durationTicks": 650,
            "midi": 57,
            "name": "A3",
            "ticks": 29760,
            "time": 41.333354,
            "velocity": 1
          },
          {
            "duration": 0.5694447291666691,
            "durationTicks": 410,
            "midi": 62,
            "name": "D4",
            "ticks": 30720,
            "time": 42.666688,
            "velocity": 1
          },
          {
            "duration": 0.6319447604166726,
            "durationTicks": 455,
            "midi": 64,
            "name": "E4",
            "ticks": 31200,
            "time": 43.333355,
            "velocity": 1
          },
          {
            "duration": 0.597222520833327,
            "durationTicks": 430,
            "midi": 65,
            "name": "F4",
            "ticks": 31680,
            "time": 44.000022,
            "velocity": 1
          },
          {
            "duration": 0.24305567708333342,
            "durationTicks": 175,
            "midi": 64,
            "name": "E4",
            "ticks": 32160,
            "time": 44.666689,
            "velocity": 1
          },
          {
            "duration": 0.23611122916666716,
            "durationTicks": 170,
            "midi": 62,
            "name": "D4",
            "ticks": 32400,
            "time": 45.0000225,
            "velocity": 1
          },
          {
            "duration": 0.9236115729166698,
            "durationTicks": 665,
            "midi": 64,
            "name": "E4",
            "ticks": 32640,
            "time": 45.333356,
            "velocity": 1
          },
          {
            "duration": 0.284722364583331,
            "durationTicks": 205,
            "midi": 62,
            "name": "D4",
            "ticks": 33360,
            "time": 46.3333565,
            "velocity": 1
          },
          {
            "duration": 0.6041669687500004,
            "durationTicks": 435,
            "midi": 60,
            "name": "C4",
            "ticks": 33600,
            "time": 46.66669,
            "velocity": 1
          },
          {
            "duration": 0.3472223958333345,
            "durationTicks": 250,
            "midi": 62,
            "name": "D4",
            "ticks": 34080,
            "time": 47.333357,
            "velocity": 1
          },
          {
            "duration": 0.930556020833329,
            "durationTicks": 670,
            "midi": 57,
            "name": "A3",
            "ticks": 34320,
            "time": 47.6666905,
            "velocity": 1
          },
          {
            "duration": 0.9722227083333337,
            "durationTicks": 700,
            "midi": 57,
            "name": "A3",
            "ticks": 36480,
            "time": 50.666692,
            "velocity": 1
          },
          {
            "duration": 1.1180561145833323,
            "durationTicks": 805,
            "midi": 57,
            "name": "A3",
            "ticks": 37440,
            "time": 52.000026,
            "velocity": 1
          },
          {
            "duration": 0.5625002812500028,
            "durationTicks": 405,
            "midi": 62,
            "name": "D4",
            "ticks": 38400,
            "time": 53.33336,
            "velocity": 1
          },
          {
            "duration": 0.6180558645833258,
            "durationTicks": 445,
            "midi": 64,
            "name": "E4",
            "ticks": 38880,
            "time": 54.000027,
            "velocity": 1
          },
          {
            "duration": 0.5555558333333295,
            "durationTicks": 400,
            "midi": 65,
            "name": "F4",
            "ticks": 39360,
            "time": 54.666694,
            "velocity": 1
          },
          {
            "duration": 0.25694457291666595,
            "durationTicks": 185,
            "midi": 64,
            "name": "E4",
            "ticks": 39840,
            "time": 55.333361000000004,
            "velocity": 1
          },
          {
            "duration": 0.22222233333333463,
            "durationTicks": 160,
            "midi": 62,
            "name": "D4",
            "ticks": 40080,
            "time": 55.6666945,
            "velocity": 1
          },
          {
            "duration": 1.03472273958333,
            "durationTicks": 745,
            "midi": 64,
            "name": "E4",
            "ticks": 40320,
            "time": 56.000028,
            "velocity": 1
          },
          {
            "duration": 0.3472223958333345,
            "durationTicks": 250,
            "midi": 62,
            "name": "D4",
            "ticks": 41040,
            "time": 57.0000285,
            "velocity": 1
          },
          {
            "duration": 0.6666669999999968,
            "durationTicks": 480,
            "midi": 60,
            "name": "C4",
            "ticks": 41280,
            "time": 57.333362,
            "velocity": 1
          },
          {
            "duration": 0.38888908333333205,
            "durationTicks": 280,
            "midi": 64,
            "name": "E4",
            "ticks": 41760,
            "time": 58.000029,
            "velocity": 1
          },
          {
            "duration": 0.7708337187499978,
            "durationTicks": 555,
            "midi": 65,
            "name": "F4",
            "ticks": 42000,
            "time": 58.3333625,
            "velocity": 1
          },
          {
            "duration": 0.33333349999999484,
            "durationTicks": 240,
            "midi": 55,
            "name": "G3",
            "ticks": 44160,
            "time": 61.333364,
            "velocity": 1
          },
          {
            "duration": 0.2291667812500009,
            "durationTicks": 165,
            "midi": 53,
            "name": "F3",
            "ticks": 44400,
            "time": 61.6666975,
            "velocity": 1
          },
          {
            "duration": 0.7013892395833281,
            "durationTicks": 505,
            "midi": 53,
            "name": "F3",
            "ticks": 44640,
            "time": 62.000031,
            "velocity": 1
          },
          {
            "duration": 0.36805573958334037,
            "durationTicks": 265,
            "midi": 57,
            "name": "A3",
            "ticks": 46560,
            "time": 64.666699,
            "velocity": 1
          },
          {
            "duration": 0.35416684374999363,
            "durationTicks": 255,
            "midi": 59,
            "name": "B3",
            "ticks": 46800,
            "time": 65.0000325,
            "velocity": 1
          },
          {
            "duration": 0.35416684375000784,
            "durationTicks": 255,
            "midi": 61,
            "name": "C#4",
            "ticks": 47040,
            "time": 65.333366,
            "velocity": 1
          },
          {
            "duration": 0.3402779479166611,
            "durationTicks": 245,
            "midi": 62,
            "name": "D4",
            "ticks": 47280,
            "time": 65.66669950000001,
            "velocity": 1
          },
          {
            "duration": 0.2083334375000021,
            "durationTicks": 150,
            "midi": 64,
            "name": "E4",
            "ticks": 47520,
            "time": 66.000033,
            "velocity": 1
          },
          {
            "duration": 0.2638890208333322,
            "durationTicks": 190,
            "midi": 65,
            "name": "F4",
            "ticks": 47760,
            "time": 66.3333665,
            "velocity": 1
          },
          {
            "duration": 0.5000002499999994,
            "durationTicks": 360,
            "midi": 64,
            "name": "E4",
            "ticks": 48000,
            "time": 66.6667,
            "velocity": 1
          },
          {
            "duration": 0.16666675000000453,
            "durationTicks": 120,
            "midi": 62,
            "name": "D4",
            "ticks": 48480,
            "time": 67.333367,
            "velocity": 1
          },
          {
            "duration": 2.243056677083331,
            "durationTicks": 1615,
            "midi": 62,
            "name": "D4",
            "ticks": 48720,
            "time": 67.6667005,
            "velocity": 1
          },
          {
            "duration": 0.16666675000000453,
            "durationTicks": 120,
            "midi": 62,
            "name": "D4",
            "ticks": 50400,
            "time": 70.000035,
            "velocity": 1
          },
          {
            "duration": 0.29166681249999726,
            "durationTicks": 210,
            "midi": 62,
            "name": "D4",
            "ticks": 50640,
            "time": 70.3333685,
            "velocity": 1
          },
          {
            "duration": 0.3194446041666765,
            "durationTicks": 230,
            "midi": 60,
            "name": "C4",
            "ticks": 50880,
            "time": 70.666702,
            "velocity": 1
          },
          {
            "duration": 0.3263890520833286,
            "durationTicks": 235,
            "midi": 58,
            "name": "A#3",
            "ticks": 51120,
            "time": 71.0000355,
            "velocity": 1
          },
          {
            "duration": 0.34722239583332737,
            "durationTicks": 250,
            "midi": 57,
            "name": "A3",
            "ticks": 51360,
            "time": 71.333369,
            "velocity": 1
          },
          {
            "duration": 0.3611112916666741,
            "durationTicks": 260,
            "midi": 55,
            "name": "G3",
            "ticks": 51600,
            "time": 71.6667025,
            "velocity": 1
          },
          {
            "duration": 0.5972225208333413,
            "durationTicks": 430,
            "midi": 58,
            "name": "A#3",
            "ticks": 51840,
            "time": 72.000036,
            "velocity": 1
          },
          {
            "duration": 0.3055557083333298,
            "durationTicks": 220,
            "midi": 57,
            "name": "A3",
            "ticks": 52320,
            "time": 72.666703,
            "velocity": 1
          },
          {
            "duration": 0.7916670624999966,
            "durationTicks": 570,
            "midi": 57,
            "name": "A3",
            "ticks": 52560,
            "time": 73.00003650000001,
            "velocity": 1
          },
          {
            "duration": 0.34722239583332737,
            "durationTicks": 250,
            "midi": 55,
            "name": "G3",
            "ticks": 53520,
            "time": 74.3333705,
            "velocity": 1
          },
          {
            "duration": 0.6597225520833376,
            "durationTicks": 475,
            "midi": 53,
            "name": "F3",
            "ticks": 53760,
            "time": 74.666704,
            "velocity": 1
          },
          {
            "duration": 0.3819446354166729,
            "durationTicks": 275,
            "midi": 57,
            "name": "A3",
            "ticks": 54240,
            "time": 75.333371,
            "velocity": 1
          },
          {
            "duration": 1.256945072916679,
            "durationTicks": 905,
            "midi": 55,
            "name": "G3",
            "ticks": 54480,
            "time": 75.6667045,
            "velocity": 1
          },
          {
            "duration": 0.3263890520833286,
            "durationTicks": 235,
            "midi": 50,
            "name": "D3",
            "ticks": 55440,
            "time": 77.0000385,
            "velocity": 1
          },
          {
            "duration": 0.541666937499997,
            "durationTicks": 390,
            "midi": 53,
            "name": "F3",
            "ticks": 55680,
            "time": 77.333372,
            "velocity": 1
          },
          {
            "duration": 0.24305567708333342,
            "durationTicks": 175,
            "midi": 57,
            "name": "A3",
            "ticks": 56160,
            "time": 78.000039,
            "velocity": 1
          },
          {
            "duration": 0.5138891458333319,
            "durationTicks": 370,
            "midi": 57,
            "name": "A3",
            "ticks": 56400,
            "time": 78.3333725,
            "velocity": 1
          },
          {
            "duration": 1.027778291666678,
            "durationTicks": 740,
            "midi": 57,
            "name": "A3",
            "ticks": 57600,
            "time": 80.00004,
            "velocity": 1
          },
          {
            "duration": 0.902778229166671,
            "durationTicks": 650,
            "midi": 57,
            "name": "A3",
            "ticks": 58560,
            "time": 81.333374,
            "velocity": 1
          },
          {
            "duration": 0.5694447291666762,
            "durationTicks": 410,
            "midi": 62,
            "name": "D4",
            "ticks": 59520,
            "time": 82.666708,
            "velocity": 1
          },
          {
            "duration": 0.6319447604166726,
            "durationTicks": 455,
            "midi": 64,
            "name": "E4",
            "ticks": 60000,
            "time": 83.333375,
            "velocity": 1
          },
          {
            "duration": 0.597222520833327,
            "durationTicks": 430,
            "midi": 65,
            "name": "F4",
            "ticks": 60480,
            "time": 84.00004200000001,
            "velocity": 1
          },
          {
            "duration": 0.24305567708333342,
            "durationTicks": 175,
            "midi": 64,
            "name": "E4",
            "ticks": 60960,
            "time": 84.666709,
            "velocity": 1
          },
          {
            "duration": 0.23611122916666716,
            "durationTicks": 170,
            "midi": 62,
            "name": "D4",
            "ticks": 61200,
            "time": 85.0000425,
            "velocity": 1
          },
          {
            "duration": 0.9236115729166556,
            "durationTicks": 665,
            "midi": 64,
            "name": "E4",
            "ticks": 61440,
            "time": 85.333376,
            "velocity": 1
          },
          {
            "duration": 0.2847223645833452,
            "durationTicks": 205,
            "midi": 62,
            "name": "D4",
            "ticks": 62160,
            "time": 86.3333765,
            "velocity": 1
          },
          {
            "duration": 0.6041669687500075,
            "durationTicks": 435,
            "midi": 60,
            "name": "C4",
            "ticks": 62400,
            "time": 86.66671,
            "velocity": 1
          },
          {
            "duration": 0.3472223958333416,
            "durationTicks": 250,
            "midi": 62,
            "name": "D4",
            "ticks": 62880,
            "time": 87.333377,
            "velocity": 1
          },
          {
            "duration": 0.9305560208333361,
            "durationTicks": 670,
            "midi": 57,
            "name": "A3",
            "ticks": 63120,
            "time": 87.66671050000001,
            "velocity": 1
          },
          {
            "duration": 0.9722227083333337,
            "durationTicks": 700,
            "midi": 57,
            "name": "A3",
            "ticks": 65280,
            "time": 90.666712,
            "velocity": 1
          },
          {
            "duration": 1.1180561145833394,
            "durationTicks": 805,
            "midi": 57,
            "name": "A3",
            "ticks": 66240,
            "time": 92.000046,
            "velocity": 1
          },
          {
            "duration": 0.5625002812499957,
            "durationTicks": 405,
            "midi": 62,
            "name": "D4",
            "ticks": 67200,
            "time": 93.33338,
            "velocity": 1
          },
          {
            "duration": 0.61805586458334,
            "durationTicks": 445,
            "midi": 64,
            "name": "E4",
            "ticks": 67680,
            "time": 94.000047,
            "velocity": 1
          },
          {
            "duration": 0.5555558333333437,
            "durationTicks": 400,
            "midi": 65,
            "name": "F4",
            "ticks": 68160,
            "time": 94.666714,
            "velocity": 1
          },
          {
            "duration": 0.25694457291666595,
            "durationTicks": 185,
            "midi": 64,
            "name": "E4",
            "ticks": 68640,
            "time": 95.333381,
            "velocity": 1
          },
          {
            "duration": 0.22222233333334884,
            "durationTicks": 160,
            "midi": 62,
            "name": "D4",
            "ticks": 68880,
            "time": 95.6667145,
            "velocity": 1
          },
          {
            "duration": 1.03472273958333,
            "durationTicks": 745,
            "midi": 64,
            "name": "E4",
            "ticks": 69120,
            "time": 96.000048,
            "velocity": 1
          },
          {
            "duration": 0.3472223958333416,
            "durationTicks": 250,
            "midi": 62,
            "name": "D4",
            "ticks": 69840,
            "time": 97.0000485,
            "velocity": 1
          },
          {
            "duration": 0.6666670000000039,
            "durationTicks": 480,
            "midi": 60,
            "name": "C4",
            "ticks": 70080,
            "time": 97.333382,
            "velocity": 1
          },
          {
            "duration": 0.38888908333333916,
            "durationTicks": 280,
            "midi": 64,
            "name": "E4",
            "ticks": 70560,
            "time": 98.000049,
            "velocity": 1
          },
          {
            "duration": 0.7708337187499978,
            "durationTicks": 555,
            "midi": 65,
            "name": "F4",
            "ticks": 70800,
            "time": 98.3333825,
            "velocity": 1
          },
          {
            "duration": 0.33333350000000905,
            "durationTicks": 240,
            "midi": 55,
            "name": "G3",
            "ticks": 72960,
            "time": 101.333384,
            "velocity": 1
          },
          {
            "duration": 0.2291667812500009,
            "durationTicks": 165,
            "midi": 53,
            "name": "F3",
            "ticks": 73200,
            "time": 101.6667175,
            "velocity": 1
          },
          {
            "duration": 0.7013892395833352,
            "durationTicks": 505,
            "midi": 53,
            "name": "F3",
            "ticks": 73440,
            "time": 102.000051,
            "velocity": 1
          },
          {
            "duration": 0.36805573958334037,
            "durationTicks": 265,
            "midi": 57,
            "name": "A3",
            "ticks": 75360,
            "time": 104.666719,
            "velocity": 1
          },
          {
            "duration": 0.35416684375000784,
            "durationTicks": 255,
            "midi": 59,
            "name": "B3",
            "ticks": 75600,
            "time": 105.0000525,
            "velocity": 1
          },
          {
            "duration": 0.35416684374999363,
            "durationTicks": 255,
            "midi": 61,
            "name": "C#4",
            "ticks": 75840,
            "time": 105.333386,
            "velocity": 1
          },
          {
            "duration": 0.3402779479166611,
            "durationTicks": 245,
            "midi": 62,
            "name": "D4",
            "ticks": 76080,
            "time": 105.6667195,
            "velocity": 1
          },
          {
            "duration": 0.2083334374999879,
            "durationTicks": 150,
            "midi": 64,
            "name": "E4",
            "ticks": 76320,
            "time": 106.00005300000001,
            "velocity": 1
          },
          {
            "duration": 0.2638890208333322,
            "durationTicks": 190,
            "midi": 65,
            "name": "F4",
            "ticks": 76560,
            "time": 106.3333865,
            "velocity": 1
          },
          {
            "duration": 0.5000002499999994,
            "durationTicks": 360,
            "midi": 64,
            "name": "E4",
            "ticks": 76800,
            "time": 106.66672,
            "velocity": 1
          },
          {
            "duration": 0.16666675000000453,
            "durationTicks": 120,
            "midi": 62,
            "name": "D4",
            "ticks": 77280,
            "time": 107.333387,
            "velocity": 1
          },
          {
            "duration": 2.243056677083345,
            "durationTicks": 1615,
            "midi": 62,
            "name": "D4",
            "ticks": 77520,
            "time": 107.6667205,
            "velocity": 1
          },
          {
            "duration": 0.16666675000000453,
            "durationTicks": 120,
            "midi": 62,
            "name": "D4",
            "ticks": 79200,
            "time": 110.000055,
            "velocity": 1
          },
          {
            "duration": 0.29166681249999726,
            "durationTicks": 210,
            "midi": 62,
            "name": "D4",
            "ticks": 79440,
            "time": 110.3333885,
            "velocity": 1
          },
          {
            "duration": 0.3194446041666481,
            "durationTicks": 230,
            "midi": 60,
            "name": "C4",
            "ticks": 79680,
            "time": 110.66672200000001,
            "velocity": 1
          },
          {
            "duration": 0.3263890520833428,
            "durationTicks": 235,
            "midi": 58,
            "name": "A#3",
            "ticks": 79920,
            "time": 111.0000555,
            "velocity": 1
          },
          {
            "duration": 0.3472223958333416,
            "durationTicks": 250,
            "midi": 57,
            "name": "A3",
            "ticks": 80160,
            "time": 111.333389,
            "velocity": 1
          },
          {
            "duration": 0.3611112916666599,
            "durationTicks": 260,
            "midi": 55,
            "name": "G3",
            "ticks": 80400,
            "time": 111.6667225,
            "velocity": 1
          },
          {
            "duration": 0.5972225208333413,
            "durationTicks": 430,
            "midi": 58,
            "name": "A#3",
            "ticks": 80640,
            "time": 112.000056,
            "velocity": 1
          },
          {
            "duration": 0.3055557083333298,
            "durationTicks": 220,
            "midi": 57,
            "name": "A3",
            "ticks": 81120,
            "time": 112.666723,
            "velocity": 1
          },
          {
            "duration": 0.7916670624999966,
            "durationTicks": 570,
            "midi": 57,
            "name": "A3",
            "ticks": 81360,
            "time": 113.0000565,
            "velocity": 1
          },
          {
            "duration": 0.34722239583332737,
            "durationTicks": 250,
            "midi": 55,
            "name": "G3",
            "ticks": 82320,
            "time": 114.33339050000001,
            "velocity": 1
          },
          {
            "duration": 0.6597225520833376,
            "durationTicks": 475,
            "midi": 53,
            "name": "F3",
            "ticks": 82560,
            "time": 114.666724,
            "velocity": 1
          },
          {
            "duration": 0.3819446354166587,
            "durationTicks": 275,
            "midi": 57,
            "name": "A3",
            "ticks": 83040,
            "time": 115.333391,
            "velocity": 1
          },
          {
            "duration": 1.2569450729166647,
            "durationTicks": 905,
            "midi": 55,
            "name": "G3",
            "ticks": 83280,
            "time": 115.6667245,
            "velocity": 1
          },
          {
            "duration": 0.3263890520833286,
            "durationTicks": 235,
            "midi": 50,
            "name": "D3",
            "ticks": 84240,
            "time": 117.00005850000001,
            "velocity": 1
          },
          {
            "duration": 0.541666937499997,
            "durationTicks": 390,
            "midi": 53,
            "name": "F3",
            "ticks": 84480,
            "time": 117.333392,
            "velocity": 1
          },
          {
            "duration": 0.24305567708333342,
            "durationTicks": 175,
            "midi": 57,
            "name": "A3",
            "ticks": 84960,
            "time": 118.00005900000001,
            "velocity": 1
          },
          {
            "duration": 0.5138891458333461,
            "durationTicks": 370,
            "midi": 57,
            "name": "A3",
            "ticks": 85200,
            "time": 118.3333925,
            "velocity": 1
          },
          {
            "duration": 0.6597225520833376,
            "durationTicks": 475,
            "midi": 53,
            "name": "F3",
            "ticks": 86400,
            "time": 120.00006,
            "velocity": 1
          },
          {
            "duration": 0.3819446354166587,
            "durationTicks": 275,
            "midi": 57,
            "name": "A3",
            "ticks": 86880,
            "time": 120.66672700000001,
            "velocity": 1
          },
          {
            "duration": 1.2569450729166647,
            "durationTicks": 905,
            "midi": 55,
            "name": "G3",
            "ticks": 87120,
            "time": 121.0000605,
            "velocity": 1
          },
          {
            "duration": 0.3263890520833428,
            "durationTicks": 235,
            "midi": 50,
            "name": "D3",
            "ticks": 88080,
            "time": 122.3333945,
            "velocity": 1
          },
          {
            "duration": 0.541666937499997,
            "durationTicks": 390,
            "midi": 53,
            "name": "F3",
            "ticks": 88320,
            "time": 122.666728,
            "velocity": 1
          },
          {
            "duration": 0.24305567708334763,
            "durationTicks": 175,
            "midi": 57,
            "name": "A3",
            "ticks": 88800,
            "time": 123.333395,
            "velocity": 1
          },
          {
            "duration": 0.5138891458333319,
            "durationTicks": 370,
            "midi": 57,
            "name": "A3",
            "ticks": 89040,
            "time": 123.6667285,
            "velocity": 1
          }
        ]
      },
      {
        "channel": 0,
        "controlChanges": {
          "0": [
            {
              "number": 0,
              "ticks": 0,
              "time": 0,
              "value": 0
            }
          ]
        },
        "pitchBends": [],
        "instrument": {
          "family": "piano",
          "number": 0,
          "name": "acoustic grand piano"
        },
        "name": "Strings",
        "notes": [],
        "endOfTrackTicks": 92160
      },
      {
        "channel": 1,
        "controlChanges": {
          "7": [
            {
              "number": 7,
              "ticks": 0,
              "time": 0,
              "value": 0.9133858267716536
            }
          ],
          "10": [
            {
              "number": 10,
              "ticks": 0,
              "time": 0,
              "value": 0.6614173228346457
            }
          ]
        },
        "pitchBends": [],
        "instrument": {
          "family": "ensemble",
          "number": 48,
          "name": "string ensemble 1"
        },
        "name": "",
        "notes": [
          {
            "duration": 2.722223583333335,
            "durationTicks": 1960,
            "midi": 53,
            "name": "F3",
            "ticks": 15360,
            "time": 21.333344,
            "velocity": 0.6062992125984252
          },
          {
            "duration": 2.6944457916666664,
            "durationTicks": 1940,
            "midi": 72,
            "name": "C5",
            "ticks": 15360,
            "time": 21.333344,
            "velocity": 0.6614173228346457
          },
          {
            "duration": 2.722223583333335,
            "durationTicks": 1960,
            "midi": 77,
            "name": "F5",
            "ticks": 15360,
            "time": 21.333344,
            "velocity": 0.4330708661417323
          },
          {
            "duration": 4.0000019999999985,
            "durationTicks": 2880,
            "midi": 81,
            "name": "A5",
            "ticks": 15360,
            "time": 21.333344,
            "velocity": 0.3858267716535433
          },
          {
            "duration": 1.2500006249999984,
            "durationTicks": 900,
            "midi": 52,
            "name": "E3",
            "ticks": 17280,
            "time": 24.000012,
            "velocity": 0.7165354330708661
          },
          {
            "duration": 1.3333339999999971,
            "durationTicks": 960,
            "midi": 70,
            "name": "A#4",
            "ticks": 17280,
            "time": 24.000012,
            "velocity": 0.6220472440944882
          },
          {
            "duration": 1.3611117916666622,
            "durationTicks": 980,
            "midi": 74,
            "name": "D5",
            "ticks": 17280,
            "time": 24.000012,
            "velocity": 0.5511811023622047
          },
          {
            "duration": 1.3055562083333356,
            "durationTicks": 940,
            "midi": 57,
            "name": "A3",
            "ticks": 18240,
            "time": 25.333346,
            "velocity": 0.7165354330708661
          },
          {
            "duration": 1.3611117916666657,
            "durationTicks": 980,
            "midi": 67,
            "name": "G4",
            "ticks": 18240,
            "time": 25.333346,
            "velocity": 0.5905511811023622
          },
          {
            "duration": 1.388889583333338,
            "durationTicks": 1000,
            "midi": 73,
            "name": "C#5",
            "ticks": 18240,
            "time": 25.333346,
            "velocity": 0.49606299212598426
          },
          {
            "duration": 0.6944447916666654,
            "durationTicks": 500,
            "midi": 76,
            "name": "E5",
            "ticks": 18240,
            "time": 25.333346,
            "velocity": 0.6220472440944882
          },
          {
            "duration": 1.9444454166666674,
            "durationTicks": 1400,
            "midi": 62,
            "name": "D4",
            "ticks": 19200,
            "time": 26.66668,
            "velocity": 0.6220472440944882
          },
          {
            "duration": 2.4444456666666667,
            "durationTicks": 1760,
            "midi": 69,
            "name": "A4",
            "ticks": 19200,
            "time": 26.66668,
            "velocity": 0.5511811023622047
          },
          {
            "duration": 1.9166676250000023,
            "durationTicks": 1380,
            "midi": 74,
            "name": "D5",
            "ticks": 19200,
            "time": 26.66668,
            "velocity": 0.4566929133858268
          },
          {
            "duration": 2.0833343749999997,
            "durationTicks": 1500,
            "midi": 77,
            "name": "F5",
            "ticks": 19200,
            "time": 26.66668,
            "velocity": 0.5669291338582677
          },
          {
            "duration": 0.6944447916666654,
            "durationTicks": 500,
            "midi": 60,
            "name": "C4",
            "ticks": 20640,
            "time": 28.666681,
            "velocity": 0.7165354330708661
          },
          {
            "duration": 1.3055562083333356,
            "durationTicks": 940,
            "midi": 58,
            "name": "A#3",
            "ticks": 21120,
            "time": 29.333348,
            "velocity": 0.7007874015748031
          },
          {
            "duration": 1.083333875000001,
            "durationTicks": 780,
            "midi": 74,
            "name": "D5",
            "ticks": 21120,
            "time": 29.333348,
            "velocity": 0.47244094488188976
          },
          {
            "duration": 1.3055562083333356,
            "durationTicks": 940,
            "midi": 77,
            "name": "F5",
            "ticks": 21120,
            "time": 29.333348,
            "velocity": 0.5275590551181102
          },
          {
            "duration": 1.3611117916666657,
            "durationTicks": 980,
            "midi": 60,
            "name": "C4",
            "ticks": 22080,
            "time": 30.666682,
            "velocity": 0.7165354330708661
          },
          {
            "duration": 1.305556208333332,
            "durationTicks": 940,
            "midi": 72,
            "name": "C5",
            "ticks": 22080,
            "time": 30.666682,
            "velocity": 0.5669291338582677
          },
          {
            "duration": 1.3611117916666657,
            "durationTicks": 980,
            "midi": 76,
            "name": "E5",
            "ticks": 22080,
            "time": 30.666682,
            "velocity": 0.7165354330708661
          },
          {
            "duration": 0.9444449166666615,
            "durationTicks": 680,
            "midi": 53,
            "name": "F3",
            "ticks": 23040,
            "time": 32.000016,
            "velocity": 0.7165354330708661
          },
          {
            "duration": 0.722222583333334,
            "durationTicks": 520,
            "midi": 70,
            "name": "A#4",
            "ticks": 23040,
            "time": 32.000016,
            "velocity": 0.5905511811023622
          },
          {
            "duration": 0.6666669999999968,
            "durationTicks": 480,
            "midi": 74,
            "name": "D5",
            "ticks": 23040,
            "time": 32.000016,
            "velocity": 0.6062992125984252
          },
          {
            "duration": 0.19444454166666958,
            "durationTicks": 140,
            "midi": 69,
            "name": "A4",
            "ticks": 23520,
            "time": 32.666683,
            "velocity": 0.5669291338582677
          },
          {
            "duration": 0.19444454166666958,
            "durationTicks": 140,
            "midi": 72,
            "name": "C5",
            "ticks": 23520,
            "time": 32.666683,
            "velocity": 0.6062992125984252
          },
          {
            "duration": 0.22222233333333463,
            "durationTicks": 160,
            "midi": 53,
            "name": "F3",
            "ticks": 23760,
            "time": 33.0000165,
            "velocity": 0.5905511811023622
          },
          {
            "duration": 1.2222228333333334,
            "durationTicks": 880,
            "midi": 69,
            "name": "A4",
            "ticks": 23760,
            "time": 33.0000165,
            "velocity": 0.5511811023622047
          },
          {
            "duration": 0.9166671249999965,
            "durationTicks": 660,
            "midi": 72,
            "name": "C5",
            "ticks": 23760,
            "time": 33.0000165,
            "velocity": 0.5511811023622047
          },
          {
            "duration": 0.6666669999999968,
            "durationTicks": 480,
            "midi": 53,
            "name": "F3",
            "ticks": 24000,
            "time": 33.33335,
            "velocity": 0.5118110236220472
          },
          {
            "duration": 0.6111114166666667,
            "durationTicks": 440,
            "midi": 52,
            "name": "E3",
            "ticks": 24480,
            "time": 34.000017,
            "velocity": 0.7165354330708661
          },
          {
            "duration": 0.16666674999999742,
            "durationTicks": 120,
            "midi": 69,
            "name": "A4",
            "ticks": 24720,
            "time": 34.3333505,
            "velocity": 0.49606299212598426
          },
          {
            "duration": 0.22222233333333463,
            "durationTicks": 160,
            "midi": 72,
            "name": "C5",
            "ticks": 24720,
            "time": 34.3333505,
            "velocity": 0.6220472440944882
          },
          {
            "duration": 0.9444449166666615,
            "durationTicks": 680,
            "midi": 50,
            "name": "D3",
            "ticks": 24960,
            "time": 34.666684000000004,
            "velocity": 0.7165354330708661
          },
          {
            "duration": 1.3611117916666586,
            "durationTicks": 980,
            "midi": 69,
            "name": "A4",
            "ticks": 24960,
            "time": 34.666684000000004,
            "velocity": 0.5118110236220472
          },
          {
            "duration": 0.6944447916666618,
            "durationTicks": 500,
            "midi": 72,
            "name": "C5",
            "ticks": 24960,
            "time": 34.666684000000004,
            "velocity": 0.5511811023622047
          },
          {
            "duration": 0.3055557083333369,
            "durationTicks": 220,
            "midi": 77,
            "name": "F5",
            "ticks": 25440,
            "time": 35.333351,
            "velocity": 0.5118110236220472
          },
          {
            "duration": 0.3611112916666599,
            "durationTicks": 260,
            "midi": 50,
            "name": "D3",
            "ticks": 25680,
            "time": 35.6666845,
            "velocity": 0.7165354330708661
          },
          {
            "duration": 0.3611112916666599,
            "durationTicks": 260,
            "midi": 72,
            "name": "C5",
            "ticks": 25680,
            "time": 35.6666845,
            "velocity": 0.5669291338582677
          },
          {
            "duration": 0.9166671250000036,
            "durationTicks": 660,
            "midi": 55,
            "name": "G3",
            "ticks": 25920,
            "time": 36.000018,
            "velocity": 0.6220472440944882
          },
          {
            "duration": 1.388889583333338,
            "durationTicks": 1000,
            "midi": 67,
            "name": "G4",
            "ticks": 25920,
            "time": 36.000018,
            "velocity": 0.5511811023622047
          },
          {
            "duration": 0.7222225833333411,
            "durationTicks": 520,
            "midi": 71,
            "name": "B4",
            "ticks": 25920,
            "time": 36.000018,
            "velocity": 0.49606299212598426
          },
          {
            "duration": 0.22222233333333463,
            "durationTicks": 160,
            "midi": 77,
            "name": "F5",
            "ticks": 26400,
            "time": 36.666685,
            "velocity": 0.5511811023622047
          },
          {
            "duration": 0.3611112916666599,
            "durationTicks": 260,
            "midi": 55,
            "name": "G3",
            "ticks": 26640,
            "time": 37.0000185,
            "velocity": 0.5905511811023622
          },
          {
            "duration": 0.3611112916666599,
            "durationTicks": 260,
            "midi": 71,
            "name": "B4",
            "ticks": 26640,
            "time": 37.0000185,
            "velocity": 0.4330708661417323
          },
          {
            "duration": 0.6666670000000039,
            "durationTicks": 480,
            "midi": 58,
            "name": "A#3",
            "ticks": 26880,
            "time": 37.333352,
            "velocity": 0.7165354330708661
          },
          {
            "duration": 0.6666670000000039,
            "durationTicks": 480,
            "midi": 70,
            "name": "A#4",
            "ticks": 26880,
            "time": 37.333352,
            "velocity": 0.5669291338582677
          },
          {
            "duration": 0.694444791666669,
            "durationTicks": 500,
            "midi": 74,
            "name": "D5",
            "ticks": 26880,
            "time": 37.333352,
            "velocity": 0.5669291338582677
          },
          {
            "duration": 0.4166668750000042,
            "durationTicks": 300,
            "midi": 77,
            "name": "F5",
            "ticks": 26880,
            "time": 37.333352,
            "velocity": 0.6062992125984252
          },
          {
            "duration": 0.13888895833333237,
            "durationTicks": 100,
            "midi": 53,
            "name": "F3",
            "ticks": 27360,
            "time": 38.000019,
            "velocity": 0.7165354330708661
          },
          {
            "duration": 0.13888895833333237,
            "durationTicks": 100,
            "midi": 69,
            "name": "A4",
            "ticks": 27360,
            "time": 38.000019,
            "velocity": 0.6220472440944882
          },
          {
            "duration": 0.13888895833333237,
            "durationTicks": 100,
            "midi": 72,
            "name": "C5",
            "ticks": 27360,
            "time": 38.000019,
            "velocity": 0.6220472440944882
          },
          {
            "duration": 0.19444454166666247,
            "durationTicks": 140,
            "midi": 77,
            "name": "F5",
            "ticks": 27360,
            "time": 38.000019,
            "velocity": 0.5511811023622047
          },
          {
            "duration": 1.6388897083333305,
            "durationTicks": 1180,
            "midi": 53,
            "name": "F3",
            "ticks": 27600,
            "time": 38.333352500000004,
            "velocity": 0.6220472440944882
          },
          {
            "duration": 1.2222228333333334,
            "durationTicks": 880,
            "midi": 69,
            "name": "A4",
            "ticks": 27600,
            "time": 38.333352500000004,
            "velocity": 0.5511811023622047
          },
          {
            "duration": 1.2222228333333334,
            "durationTicks": 880,
            "midi": 72,
            "name": "C5",
            "ticks": 27600,
            "time": 38.333352500000004,
            "velocity": 0.5511811023622047
          },
          {
            "duration": 1.138889458333331,
            "durationTicks": 820,
            "midi": 77,
            "name": "F5",
            "ticks": 27600,
            "time": 38.333352500000004,
            "velocity": 0.5511811023622047
          },
          {
            "duration": 1.3194451041666682,
            "durationTicks": 950,
            "midi": 52,
            "name": "E3",
            "ticks": 28800,
            "time": 40.00002,
            "velocity": 0.7165354330708661
          },
          {
            "duration": 1.3055562083333356,
            "durationTicks": 940,
            "midi": 71,
            "name": "B4",
            "ticks": 28800,
            "time": 40.00002,
            "velocity": 0.4330708661417323
          },
          {
            "duration": 1.3055562083333356,
            "durationTicks": 940,
            "midi": 74,
            "name": "D5",
            "ticks": 28800,
            "time": 40.00002,
            "velocity": 0.3858267716535433
          },
          {
            "duration": 1.3055562083333356,
            "durationTicks": 940,
            "midi": 73,
            "name": "C#5",
            "ticks": 29760,
            "time": 41.333354,
            "velocity": 0.49606299212598426
          },
          {
            "duration": 1.3611117916666728,
            "durationTicks": 980,
            "midi": 76,
            "name": "E5",
            "ticks": 29760,
            "time": 41.333354,
            "velocity": 0.47244094488188976
          },
          {
            "duration": 0.6111114166666667,
            "durationTicks": 440,
            "midi": 62,
            "name": "D4",
            "ticks": 30720,
            "time": 42.666688,
            "velocity": 0.6220472440944882
          },
          {
            "duration": 4.027779791666667,
            "durationTicks": 2900,
            "midi": 74,
            "name": "D5",
            "ticks": 30720,
            "time": 42.666688,
            "velocity": 0.5275590551181102
          },
          {
            "duration": 2.166667750000002,
            "durationTicks": 1560,
            "midi": 77,
            "name": "F5",
            "ticks": 30720,
            "time": 42.666688,
            "velocity": 0.4330708661417323
          },
          {
            "duration": 0.6388892083333317,
            "durationTicks": 460,
            "midi": 60,
            "name": "C4",
            "ticks": 31200,
            "time": 43.333355,
            "velocity": 0.7165354330708661
          },
          {
            "duration": 0.6388892083333317,
            "durationTicks": 460,
            "midi": 58,
            "name": "A#3",
            "ticks": 31680,
            "time": 44.000022,
            "velocity": 0.7165354330708661
          },
          {
            "duration": 0.6666670000000039,
            "durationTicks": 480,
            "midi": 57,
            "name": "A3",
            "ticks": 32160,
            "time": 44.666689,
            "velocity": 0.7165354330708661
          },
          {
            "duration": 0.8611115416666664,
            "durationTicks": 620,
            "midi": 55,
            "name": "G3",
            "ticks": 32640,
            "time": 45.333356,
            "velocity": 0.7165354330708661
          },
          {
            "duration": 1.3888895833333308,
            "durationTicks": 1000,
            "midi": 70,
            "name": "A#4",
            "ticks": 32640,
            "time": 45.333356,
            "velocity": 0.4251968503937008
          },
          {
            "duration": 0.27777791666667184,
            "durationTicks": 200,
            "midi": 55,
            "name": "G3",
            "ticks": 33360,
            "time": 46.3333565,
            "velocity": 0.6220472440944882
          },
          {
            "duration": 0.8611115416666664,
            "durationTicks": 620,
            "midi": 60,
            "name": "C4",
            "ticks": 33600,
            "time": 46.66669,
            "velocity": 0.5511811023622047
          },
          {
            "duration": 3.944446416666665,
            "durationTicks": 2840,
            "midi": 72,
            "name": "C5",
            "ticks": 33600,
            "time": 46.66669,
            "velocity": 0.47244094488188976
          },
          {
            "duration": 1.1666672499999962,
            "durationTicks": 840,
            "midi": 76,
            "name": "E5",
            "ticks": 33600,
            "time": 46.66669,
            "velocity": 0.4330708661417323
          },
          {
            "duration": 0.08333337499999516,
            "durationTicks": 60,
            "midi": 77,
            "name": "F5",
            "ticks": 33600,
            "time": 46.66669,
            "velocity": 0.4251968503937008
          },
          {
            "duration": 0.27777791666667184,
            "durationTicks": 200,
            "midi": 60,
            "name": "C4",
            "ticks": 34320,
            "time": 47.6666905,
            "velocity": 0.5275590551181102
          },
          {
            "duration": 0.8611115416666664,
            "durationTicks": 620,
            "midi": 53,
            "name": "F3",
            "ticks": 34560,
            "time": 48.000024,
            "velocity": 0.6062992125984252
          },
          {
            "duration": 2.6944457916666664,
            "durationTicks": 1940,
            "midi": 69,
            "name": "A4",
            "ticks": 34560,
            "time": 48.000024,
            "velocity": 0.4251968503937008
          },
          {
            "duration": 0.2500001249999997,
            "durationTicks": 180,
            "midi": 53,
            "name": "F3",
            "ticks": 35280,
            "time": 49.0000245,
            "velocity": 0.5275590551181102
          },
          {
            "duration": 0.9166671249999965,
            "durationTicks": 660,
            "midi": 53,
            "name": "F3",
            "ticks": 35520,
            "time": 49.333358000000004,
            "velocity": 0.47244094488188976
          },
          {
            "duration": 0.3055557083333298,
            "durationTicks": 220,
            "midi": 53,
            "name": "F3",
            "ticks": 36240,
            "time": 50.3333585,
            "velocity": 0.5669291338582677
          },
          {
            "duration": 0.9444449166666757,
            "durationTicks": 680,
            "midi": 52,
            "name": "E3",
            "ticks": 36480,
            "time": 50.666692,
            "velocity": 0.7165354330708661
          },
          {
            "duration": 1.3333340000000007,
            "durationTicks": 960,
            "midi": 71,
            "name": "B4",
            "ticks": 36480,
            "time": 50.666692,
            "velocity": 0.5511811023622047
          },
          {
            "duration": 1.3333340000000007,
            "durationTicks": 960,
            "midi": 74,
            "name": "D5",
            "ticks": 36480,
            "time": 50.666692,
            "velocity": 0.5275590551181102
          },
          {
            "duration": 0.8888893333333314,
            "durationTicks": 640,
            "midi": 57,
            "name": "A3",
            "ticks": 37440,
            "time": 52.000026,
            "velocity": 0.6062992125984252
          },
          {
            "duration": 1.2500006250000055,
            "durationTicks": 900,
            "midi": 73,
            "name": "C#5",
            "ticks": 37440,
            "time": 52.000026,
            "velocity": 0.6220472440944882
          },
          {
            "duration": 1.3611117916666728,
            "durationTicks": 980,
            "midi": 76,
            "name": "E5",
            "ticks": 37440,
            "time": 52.000026,
            "velocity": 0.5905511811023622
          },
          {
            "duration": 0.361111291666667,
            "durationTicks": 260,
            "midi": 57,
            "name": "A3",
            "ticks": 38160,
            "time": 53.000026500000004,
            "velocity": 0.5905511811023622
          },
          {
            "duration": 0.694444791666669,
            "durationTicks": 500,
            "midi": 62,
            "name": "D4",
            "ticks": 38400,
            "time": 53.33336,
            "velocity": 0.5669291338582677
          },
          {
            "duration": 3.944446416666672,
            "durationTicks": 2840,
            "midi": 74,
            "name": "D5",
            "ticks": 38400,
            "time": 53.33336,
            "velocity": 0.5669291338582677
          },
          {
            "duration": 2.444445666666674,
            "durationTicks": 1760,
            "midi": 77,
            "name": "F5",
            "ticks": 38400,
            "time": 53.33336,
            "velocity": 0.5118110236220472
          },
          {
            "duration": 0.6388892083333246,
            "durationTicks": 460,
            "midi": 60,
            "name": "C4",
            "ticks": 38880,
            "time": 54.000027,
            "velocity": 0.7165354330708661
          },
          {
            "duration": 0.6111114166666738,
            "durationTicks": 440,
            "midi": 58,
            "name": "A#3",
            "ticks": 39360,
            "time": 54.666694,
            "velocity": 0.7165354330708661
          },
          {
            "duration": 0.694444791666669,
            "durationTicks": 500,
            "midi": 57,
            "name": "A3",
            "ticks": 39840,
            "time": 55.333361000000004,
            "velocity": 0.7165354330708661
          },
          {
            "duration": 0.8888893333333314,
            "durationTicks": 640,
            "midi": 55,
            "name": "G3",
            "ticks": 40320,
            "time": 56.000028,
            "velocity": 0.5511811023622047
          },
          {
            "duration": 1.2777784166666706,
            "durationTicks": 920,
            "midi": 70,
            "name": "A#4",
            "ticks": 40320,
            "time": 56.000028,
            "velocity": 0.3858267716535433
          },
          {
            "duration": 0.3055557083333298,
            "durationTicks": 220,
            "midi": 55,
            "name": "G3",
            "ticks": 41040,
            "time": 57.0000285,
            "velocity": 0.6062992125984252
          },
          {
            "duration": 0.8333337500000013,
            "durationTicks": 600,
            "midi": 60,
            "name": "C4",
            "ticks": 41280,
            "time": 57.333362,
            "velocity": 0.5669291338582677
          },
          {
            "duration": 1.8888898333333302,
            "durationTicks": 1360,
            "midi": 72,
            "name": "C5",
            "ticks": 41280,
            "time": 57.333362,
            "velocity": 0.4330708661417323
          },
          {
            "duration": 1.3611117916666728,
            "durationTicks": 980,
            "midi": 76,
            "name": "E5",
            "ticks": 41280,
            "time": 57.333362,
            "velocity": 0.4330708661417323
          },
          {
            "duration": 2.4444456666666667,
            "durationTicks": 1760,
            "midi": 53,
            "name": "F3",
            "ticks": 42240,
            "time": 58.666696,
            "velocity": 0.6062992125984252
          },
          {
            "duration": 2.527779041666669,
            "durationTicks": 1820,
            "midi": 77,
            "name": "F5",
            "ticks": 42240,
            "time": 58.666696,
            "velocity": 0.4094488188976378
          },
          {
            "duration": 0.722222583333334,
            "durationTicks": 520,
            "midi": 72,
            "name": "C5",
            "ticks": 42720,
            "time": 59.333363,
            "velocity": 1
          },
          {
            "duration": 0.7222225833333269,
            "durationTicks": 520,
            "midi": 70,
            "name": "A#4",
            "ticks": 43200,
            "time": 60.00003,
            "velocity": 1
          },
          {
            "duration": 0.722222583333334,
            "durationTicks": 520,
            "midi": 69,
            "name": "A4",
            "ticks": 43680,
            "time": 60.666697,
            "velocity": 1
          },
          {
            "duration": 2.222223333333325,
            "durationTicks": 1600,
            "midi": 53,
            "name": "F3",
            "ticks": 44160,
            "time": 61.333364,
            "velocity": 0.7165354330708661
          },
          {
            "duration": 2.527779041666669,
            "durationTicks": 1820,
            "midi": 72,
            "name": "C5",
            "ticks": 44160,
            "time": 61.333364,
            "velocity": 0.7165354330708661
          },
          {
            "duration": 2.638890208333329,
            "durationTicks": 1900,
            "midi": 77,
            "name": "F5",
            "ticks": 44160,
            "time": 61.333364,
            "velocity": 0.7165354330708661
          },
          {
            "duration": 5.361113791666668,
            "durationTicks": 3860,
            "midi": 81,
            "name": "A5",
            "ticks": 44160,
            "time": 61.333364,
            "velocity": 0.7165354330708661
          },
          {
            "duration": 0.8888893333333243,
            "durationTicks": 640,
            "midi": 52,
            "name": "E3",
            "ticks": 46080,
            "time": 64.000032,
            "velocity": 0.7165354330708661
          },
          {
            "duration": 1.3888895833333237,
            "durationTicks": 1000,
            "midi": 70,
            "name": "A#4",
            "ticks": 46080,
            "time": 64.000032,
            "velocity": 0.7007874015748031
          },
          {
            "duration": 1.39583403124999,
            "durationTicks": 1005,
            "midi": 74,
            "name": "D5",
            "ticks": 46080,
            "time": 64.000032,
            "velocity": 0.6062992125984252
          },
          {
            "duration": 0.8888893333333385,
            "durationTicks": 640,
            "midi": 57,
            "name": "A3",
            "ticks": 47040,
            "time": 65.333366,
            "velocity": 0.7165354330708661
          },
          {
            "duration": 3.8611130416666697,
            "durationTicks": 2780,
            "midi": 69,
            "name": "A4",
            "ticks": 47040,
            "time": 65.333366,
            "velocity": 0.7165354330708661
          },
          {
            "duration": 1.3541673437500066,
            "durationTicks": 975,
            "midi": 73,
            "name": "C#5",
            "ticks": 47040,
            "time": 65.333366,
            "velocity": 0.7165354330708661
          },
          {
            "duration": 0.8888893333333243,
            "durationTicks": 640,
            "midi": 62,
            "name": "D4",
            "ticks": 48000,
            "time": 66.6667,
            "velocity": 0.6062992125984252
          },
          {
            "duration": 2.0277787916666625,
            "durationTicks": 1460,
            "midi": 74,
            "name": "D5",
            "ticks": 48000,
            "time": 66.6667,
            "velocity": 0.7165354330708661
          },
          {
            "duration": 1.2222228333333192,
            "durationTicks": 880,
            "midi": 77,
            "name": "F5",
            "ticks": 48000,
            "time": 66.6667,
            "velocity": 0.7165354330708661
          },
          {
            "duration": 0.5833336249999945,
            "durationTicks": 420,
            "midi": 62,
            "name": "D4",
            "ticks": 48960,
            "time": 68.000034,
            "velocity": 0.5669291338582677
          },
          {
            "duration": 1.2777784166666777,
            "durationTicks": 920,
            "midi": 65,
            "name": "F4",
            "ticks": 48960,
            "time": 68.000034,
            "velocity": 0.5669291338582677
          },
          {
            "duration": 0.6388892083333246,
            "durationTicks": 460,
            "midi": 60,
            "name": "C4",
            "ticks": 49440,
            "time": 68.666701,
            "velocity": 0.7165354330708661
          },
          {
            "duration": 0.3611112916666741,
            "durationTicks": 260,
            "midi": 76,
            "name": "E5",
            "ticks": 49440,
            "time": 68.666701,
            "velocity": 0.7165354330708661
          },
          {
            "duration": 0.38888908333333916,
            "durationTicks": 280,
            "midi": 77,
            "name": "F5",
            "ticks": 49680,
            "time": 69.0000345,
            "velocity": 0.5669291338582677
          },
          {
            "duration": 1.3611117916666586,
            "durationTicks": 980,
            "midi": 58,
            "name": "A#3",
            "ticks": 49920,
            "time": 69.33336800000001,
            "velocity": 0.7165354330708661
          },
          {
            "duration": 1.2777784166666635,
            "durationTicks": 920,
            "midi": 70,
            "name": "A#4",
            "ticks": 49920,
            "time": 69.33336800000001,
            "velocity": 0.6220472440944882
          },
          {
            "duration": 1.3611117916666586,
            "durationTicks": 980,
            "midi": 74,
            "name": "D5",
            "ticks": 49920,
            "time": 69.33336800000001,
            "velocity": 0.6220472440944882
          },
          {
            "duration": 1.3611117916666728,
            "durationTicks": 980,
            "midi": 60,
            "name": "C4",
            "ticks": 50880,
            "time": 70.666702,
            "velocity": 0.7165354330708661
          },
          {
            "duration": 1.1666672500000033,
            "durationTicks": 840,
            "midi": 67,
            "name": "G4",
            "ticks": 50880,
            "time": 70.666702,
            "velocity": 0.5669291338582677
          },
          {
            "duration": 1.083333874999994,
            "durationTicks": 780,
            "midi": 72,
            "name": "C5",
            "ticks": 50880,
            "time": 70.666702,
            "velocity": 0.5511811023622047
          },
          {
            "duration": 1.1944450416666683,
            "durationTicks": 860,
            "midi": 76,
            "name": "E5",
            "ticks": 50880,
            "time": 70.666702,
            "velocity": 0.47244094488188976
          },
          {
            "duration": 1.2222228333333334,
            "durationTicks": 880,
            "midi": 53,
            "name": "F3",
            "ticks": 51840,
            "time": 72.000036,
            "velocity": 0.7165354330708661
          },
          {
            "duration": 0.5833336250000087,
            "durationTicks": 420,
            "midi": 70,
            "name": "A#4",
            "ticks": 51840,
            "time": 72.000036,
            "velocity": 0.7165354330708661
          },
          {
            "duration": 0.6388892083333388,
            "durationTicks": 460,
            "midi": 74,
            "name": "D5",
            "ticks": 51840,
            "time": 72.000036,
            "velocity": 0.7165354330708661
          },
          {
            "duration": 2.222223333333332,
            "durationTicks": 1600,
            "midi": 77,
            "name": "F5",
            "ticks": 51840,
            "time": 72.000036,
            "velocity": 0.6062992125984252
          },
          {
            "duration": 0.19444454166666958,
            "durationTicks": 140,
            "midi": 69,
            "name": "A4",
            "ticks": 52320,
            "time": 72.666703,
            "velocity": 0.5511811023622047
          },
          {
            "duration": 0.2500001249999997,
            "durationTicks": 180,
            "midi": 72,
            "name": "C5",
            "ticks": 52320,
            "time": 72.666703,
            "velocity": 0.6220472440944882
          },
          {
            "duration": 3.97222420833333,
            "durationTicks": 2860,
            "midi": 69,
            "name": "A4",
            "ticks": 52560,
            "time": 73.00003650000001,
            "velocity": 0.6062992125984252
          },
          {
            "duration": 1.138889458333324,
            "durationTicks": 820,
            "midi": 72,
            "name": "C5",
            "ticks": 52560,
            "time": 73.00003650000001,
            "velocity": 0.7165354330708661
          },
          {
            "duration": 0.694444791666669,
            "durationTicks": 500,
            "midi": 53,
            "name": "F3",
            "ticks": 52800,
            "time": 73.33337,
            "velocity": 0.7165354330708661
          },
          {
            "duration": 0.694444791666669,
            "durationTicks": 500,
            "midi": 52,
            "name": "E3",
            "ticks": 53280,
            "time": 74.000037,
            "velocity": 0.7165354330708661
          },
          {
            "duration": 0.2500001249999997,
            "durationTicks": 180,
            "midi": 72,
            "name": "C5",
            "ticks": 53520,
            "time": 74.3333705,
            "velocity": 0.7165354330708661
          },
          {
            "duration": 1.3611117916666728,
            "durationTicks": 980,
            "midi": 50,
            "name": "D3",
            "ticks": 53760,
            "time": 74.666704,
            "velocity": 0.7165354330708661
          },
          {
            "duration": 0.8333337500000084,
            "durationTicks": 600,
            "midi": 72,
            "name": "C5",
            "ticks": 53760,
            "time": 74.666704,
            "velocity": 0.7165354330708661
          },
          {
            "duration": 0.33333349999999484,
            "durationTicks": 240,
            "midi": 77,
            "name": "F5",
            "ticks": 54240,
            "time": 75.333371,
            "velocity": 0.7165354330708661
          },
          {
            "duration": 0.3611112916666741,
            "durationTicks": 260,
            "midi": 72,
            "name": "C5",
            "ticks": 54480,
            "time": 75.6667045,
            "velocity": 0.7165354330708661
          },
          {
            "duration": 1.3888895833333237,
            "durationTicks": 1000,
            "midi": 55,
            "name": "G3",
            "ticks": 54720,
            "time": 76.000038,
            "velocity": 0.7165354330708661
          },
          {
            "duration": 0.722222583333334,
            "durationTicks": 520,
            "midi": 71,
            "name": "B4",
            "ticks": 54720,
            "time": 76.000038,
            "velocity": 0.7165354330708661
          },
          {
            "duration": 0.7222225833333198,
            "durationTicks": 520,
            "midi": 77,
            "name": "F5",
            "ticks": 55200,
            "time": 76.66670500000001,
            "velocity": 0.7007874015748031
          },
          {
            "duration": 0.2500001249999997,
            "durationTicks": 180,
            "midi": 71,
            "name": "B4",
            "ticks": 55440,
            "time": 77.0000385,
            "velocity": 0.7165354330708661
          },
          {
            "duration": 0.722222583333334,
            "durationTicks": 520,
            "midi": 58,
            "name": "A#3",
            "ticks": 55680,
            "time": 77.333372,
            "velocity": 0.7007874015748031
          },
          {
            "duration": 0.6111114166666738,
            "durationTicks": 440,
            "midi": 70,
            "name": "A#4",
            "ticks": 55680,
            "time": 77.333372,
            "velocity": 0.6220472440944882
          },
          {
            "duration": 0.5833336250000087,
            "durationTicks": 420,
            "midi": 74,
            "name": "D5",
            "ticks": 55680,
            "time": 77.333372,
            "velocity": 0.6062992125984252
          },
          {
            "duration": 0.694444791666669,
            "durationTicks": 500,
            "midi": 77,
            "name": "F5",
            "ticks": 55680,
            "time": 77.333372,
            "velocity": 0.3858267716535433
          },
          {
            "duration": 0.19444454166666958,
            "durationTicks": 140,
            "midi": 53,
            "name": "F3",
            "ticks": 56160,
            "time": 78.000039,
            "velocity": 0.7165354330708661
          },
          {
            "duration": 0.22222233333333463,
            "durationTicks": 160,
            "midi": 69,
            "name": "A4",
            "ticks": 56160,
            "time": 78.000039,
            "velocity": 0.6062992125984252
          },
          {
            "duration": 0.2500001249999997,
            "durationTicks": 180,
            "midi": 72,
            "name": "C5",
            "ticks": 56160,
            "time": 78.000039,
            "velocity": 0.6614173228346457
          },
          {
            "duration": 1.6388897083333376,
            "durationTicks": 1180,
            "midi": 53,
            "name": "F3",
            "ticks": 56400,
            "time": 78.3333725,
            "velocity": 0.6062992125984252
          },
          {
            "duration": 1.1111116666666732,
            "durationTicks": 800,
            "midi": 69,
            "name": "A4",
            "ticks": 56400,
            "time": 78.3333725,
            "velocity": 0.7165354330708661
          },
          {
            "duration": 1.083333875000008,
            "durationTicks": 780,
            "midi": 72,
            "name": "C5",
            "ticks": 56400,
            "time": 78.3333725,
            "velocity": 0.7165354330708661
          },
          {
            "duration": 1.1111116666666732,
            "durationTicks": 800,
            "midi": 77,
            "name": "F5",
            "ticks": 56400,
            "time": 78.3333725,
            "velocity": 0.6614173228346457
          },
          {
            "duration": 1.312500656250009,
            "durationTicks": 945,
            "midi": 52,
            "name": "E3",
            "ticks": 57600,
            "time": 80.00004,
            "velocity": 0.7165354330708661
          },
          {
            "duration": 1.312500656250009,
            "durationTicks": 945,
            "midi": 71,
            "name": "B4",
            "ticks": 57600,
            "time": 80.00004,
            "velocity": 0.5275590551181102
          },
          {
            "duration": 1.3194451041666753,
            "durationTicks": 950,
            "midi": 74,
            "name": "D5",
            "ticks": 57600,
            "time": 80.00004,
            "velocity": 0.6062992125984252
          },
          {
            "duration": 1.3333339999999936,
            "durationTicks": 960,
            "midi": 57,
            "name": "A3",
            "ticks": 58560,
            "time": 81.333374,
            "velocity": 0.29133858267716534
          },
          {
            "duration": 1.3888895833333237,
            "durationTicks": 1000,
            "midi": 73,
            "name": "C#5",
            "ticks": 58560,
            "time": 81.333374,
            "velocity": 0.47244094488188976
          },
          {
            "duration": 1.3333339999999936,
            "durationTicks": 960,
            "midi": 76,
            "name": "E5",
            "ticks": 58560,
            "time": 81.333374,
            "velocity": 0.7165354330708661
          },
          {
            "duration": 0.5833336249999945,
            "durationTicks": 420,
            "midi": 62,
            "name": "D4",
            "ticks": 59520,
            "time": 82.666708,
            "velocity": 0.6062992125984252
          },
          {
            "duration": 2.6111124166666713,
            "durationTicks": 1880,
            "midi": 74,
            "name": "D5",
            "ticks": 59520,
            "time": 82.666708,
            "velocity": 0.5118110236220472
          },
          {
            "duration": 0.6666670000000039,
            "durationTicks": 480,
            "midi": 77,
            "name": "F5",
            "ticks": 59520,
            "time": 82.666708,
            "velocity": 0.7165354330708661
          },
          {
            "duration": 0.694444791666669,
            "durationTicks": 500,
            "midi": 60,
            "name": "C4",
            "ticks": 60000,
            "time": 83.333375,
            "velocity": 0.7165354330708661
          },
          {
            "duration": 0.6388892083333246,
            "durationTicks": 460,
            "midi": 79,
            "name": "G5",
            "ticks": 60000,
            "time": 83.333375,
            "velocity": 0.7165354330708661
          },
          {
            "duration": 0.6388892083333246,
            "durationTicks": 460,
            "midi": 58,
            "name": "A#3",
            "ticks": 60480,
            "time": 84.00004200000001,
            "velocity": 0.7165354330708661
          },
          {
            "duration": 0.5833336249999945,
            "durationTicks": 420,
            "midi": 81,
            "name": "A5",
            "ticks": 60480,
            "time": 84.00004200000001,
            "velocity": 0.7165354330708661
          },
          {
            "duration": 0.694444791666669,
            "durationTicks": 500,
            "midi": 57,
            "name": "A3",
            "ticks": 60960,
            "time": 84.666709,
            "velocity": 0.7165354330708661
          },
          {
            "duration": 0.3611112916666741,
            "durationTicks": 260,
            "midi": 79,
            "name": "G5",
            "ticks": 60960,
            "time": 84.666709,
            "velocity": 0.7165354330708661
          },
          {
            "duration": 0.41666687499999,
            "durationTicks": 300,
            "midi": 77,
            "name": "F5",
            "ticks": 61200,
            "time": 85.0000425,
            "velocity": 0.5669291338582677
          },
          {
            "duration": 0.8888893333333385,
            "durationTicks": 640,
            "midi": 55,
            "name": "G3",
            "ticks": 61440,
            "time": 85.333376,
            "velocity": 0.6062992125984252
          },
          {
            "duration": 1.4444451666666538,
            "durationTicks": 1040,
            "midi": 70,
            "name": "A#4",
            "ticks": 61440,
            "time": 85.333376,
            "velocity": 0.5275590551181102
          },
          {
            "duration": 0.9444449166666544,
            "durationTicks": 680,
            "midi": 79,
            "name": "G5",
            "ticks": 61440,
            "time": 85.333376,
            "velocity": 0.5275590551181102
          },
          {
            "duration": 0.305555708333344,
            "durationTicks": 220,
            "midi": 55,
            "name": "G3",
            "ticks": 62160,
            "time": 86.3333765,
            "velocity": 0.5669291338582677
          },
          {
            "duration": 0.3611112916666599,
            "durationTicks": 260,
            "midi": 77,
            "name": "F5",
            "ticks": 62160,
            "time": 86.3333765,
            "velocity": 0.7165354330708661
          },
          {
            "duration": 0.7777781666666641,
            "durationTicks": 560,
            "midi": 60,
            "name": "C4",
            "ticks": 62400,
            "time": 86.66671,
            "velocity": 0.7007874015748031
          },
          {
            "duration": 1.2500006250000126,
            "durationTicks": 900,
            "midi": 72,
            "name": "C5",
            "ticks": 62400,
            "time": 86.66671,
            "velocity": 0.5511811023622047
          },
          {
            "duration": 0.638889208333353,
            "durationTicks": 460,
            "midi": 76,
            "name": "E5",
            "ticks": 62400,
            "time": 86.66671,
            "velocity": 0.5511811023622047
          },
          {
            "duration": 3.222223833333345,
            "durationTicks": 2320,
            "midi": 77,
            "name": "F5",
            "ticks": 62880,
            "time": 87.333377,
            "velocity": 0.4566929133858268
          },
          {
            "duration": 0.3611112916666599,
            "durationTicks": 260,
            "midi": 60,
            "name": "C4",
            "ticks": 63120,
            "time": 87.66671050000001,
            "velocity": 0.5511811023622047
          },
          {
            "duration": 0.6388892083333388,
            "durationTicks": 460,
            "midi": 53,
            "name": "F3",
            "ticks": 63360,
            "time": 88.000044,
            "velocity": 0.7165354330708661
          },
          {
            "duration": 2.7222235833333315,
            "durationTicks": 1960,
            "midi": 69,
            "name": "A4",
            "ticks": 63360,
            "time": 88.000044,
            "velocity": 0.30708661417322836
          },
          {
            "duration": 2.7222235833333315,
            "durationTicks": 1960,
            "midi": 72,
            "name": "C5",
            "ticks": 63360,
            "time": 88.000044,
            "velocity": 0.30708661417322836
          },
          {
            "duration": 2.7222235833333315,
            "durationTicks": 1960,
            "midi": 81,
            "name": "A5",
            "ticks": 63360,
            "time": 88.000044,
            "velocity": 0.30708661417322836
          },
          {
            "duration": 0.6319447604166584,
            "durationTicks": 455,
            "midi": 60,
            "name": "C4",
            "ticks": 63840,
            "time": 88.666711,
            "velocity": 0.7165354330708661
          },
          {
            "duration": 0.6388892083333388,
            "durationTicks": 460,
            "midi": 60,
            "name": "C4",
            "ticks": 64320,
            "time": 89.333378,
            "velocity": 0.7165354330708661
          },
          {
            "duration": 0.27777791666666474,
            "durationTicks": 200,
            "midi": 60,
            "name": "C4",
            "ticks": 64800,
            "time": 90.000045,
            "velocity": 0.7165354330708661
          },
          {
            "duration": 0.38888908333333916,
            "durationTicks": 280,
            "midi": 58,
            "name": "A#3",
            "ticks": 65040,
            "time": 90.3333785,
            "velocity": 0.5905511811023622
          },
          {
            "duration": 2.138889958333337,
            "durationTicks": 1540,
            "midi": 57,
            "name": "A3",
            "ticks": 65280,
            "time": 90.666712,
            "velocity": 0.7165354330708661
          },
          {
            "duration": 0.750000374999999,
            "durationTicks": 540,
            "midi": 71,
            "name": "B4",
            "ticks": 65280,
            "time": 90.666712,
            "velocity": 0.7165354330708661
          },
          {
            "duration": 1.2500006249999984,
            "durationTicks": 900,
            "midi": 74,
            "name": "D5",
            "ticks": 65280,
            "time": 90.666712,
            "velocity": 0.6850393700787402
          },
          {
            "duration": 0.6388892083333388,
            "durationTicks": 460,
            "midi": 71,
            "name": "B4",
            "ticks": 65880,
            "time": 91.50004575,
            "velocity": 0.7165354330708661
          },
          {
            "duration": 1.3333340000000078,
            "durationTicks": 960,
            "midi": 73,
            "name": "C#5",
            "ticks": 66240,
            "time": 92.000046,
            "velocity": 0.7165354330708661
          },
          {
            "duration": 1.416667375000003,
            "durationTicks": 1020,
            "midi": 76,
            "name": "E5",
            "ticks": 66240,
            "time": 92.000046,
            "velocity": 0.7165354330708661
          },
          {
            "duration": 2.611112416666657,
            "durationTicks": 1880,
            "midi": 74,
            "name": "D5",
            "ticks": 67200,
            "time": 93.33338,
            "velocity": 0.6062992125984252
          },
          {
            "duration": 0.6388892083333388,
            "durationTicks": 460,
            "midi": 77,
            "name": "F5",
            "ticks": 67200,
            "time": 93.33338,
            "velocity": 0.7165354330708661
          },
          {
            "duration": 0.44444466666665505,
            "durationTicks": 320,
            "midi": 62,
            "name": "D4",
            "ticks": 67440,
            "time": 93.6667135,
            "velocity": 0.7007874015748031
          },
          {
            "duration": 0.6111114166666738,
            "durationTicks": 440,
            "midi": 60,
            "name": "C4",
            "ticks": 67680,
            "time": 94.000047,
            "velocity": 0.7165354330708661
          },
          {
            "duration": 0.638889208333353,
            "durationTicks": 460,
            "midi": 79,
            "name": "G5",
            "ticks": 67680,
            "time": 94.000047,
            "velocity": 0.7165354330708661
          },
          {
            "duration": 0.694444791666669,
            "durationTicks": 500,
            "midi": 58,
            "name": "A#3",
            "ticks": 68160,
            "time": 94.666714,
            "velocity": 0.7165354330708661
          },
          {
            "duration": 0.6666670000000039,
            "durationTicks": 480,
            "midi": 81,
            "name": "A5",
            "ticks": 68160,
            "time": 94.666714,
            "velocity": 0.6614173228346457
          },
          {
            "duration": 0.722222583333334,
            "durationTicks": 520,
            "midi": 57,
            "name": "A3",
            "ticks": 68640,
            "time": 95.333381,
            "velocity": 0.6062992125984252
          },
          {
            "duration": 0.2500001249999997,
            "durationTicks": 180,
            "midi": 79,
            "name": "G5",
            "ticks": 68640,
            "time": 95.333381,
            "velocity": 0.7165354330708661
          },
          {
            "duration": 0.38888908333333916,
            "durationTicks": 280,
            "midi": 77,
            "name": "F5",
            "ticks": 68880,
            "time": 95.6667145,
            "velocity": 0.5669291338582677
          },
          {
            "duration": 0.8333337499999942,
            "durationTicks": 600,
            "midi": 55,
            "name": "G3",
            "ticks": 69120,
            "time": 96.000048,
            "velocity": 0.7165354330708661
          },
          {
            "duration": 1.4166673749999887,
            "durationTicks": 1020,
            "midi": 70,
            "name": "A#4",
            "ticks": 69120,
            "time": 96.000048,
            "velocity": 0.6062992125984252
          },
          {
            "duration": 0.9444449166666544,
            "durationTicks": 680,
            "midi": 79,
            "name": "G5",
            "ticks": 69120,
            "time": 96.000048,
            "velocity": 0.49606299212598426
          },
          {
            "duration": 0.3611112916666599,
            "durationTicks": 260,
            "midi": 55,
            "name": "G3",
            "ticks": 69840,
            "time": 97.0000485,
            "velocity": 0.7007874015748031
          },
          {
            "duration": 0.3611112916666599,
            "durationTicks": 260,
            "midi": 77,
            "name": "F5",
            "ticks": 69840,
            "time": 97.0000485,
            "velocity": 0.6614173228346457
          },
          {
            "duration": 0.8333337499999942,
            "durationTicks": 600,
            "midi": 60,
            "name": "C4",
            "ticks": 70080,
            "time": 97.333382,
            "velocity": 0.7007874015748031
          },
          {
            "duration": 1.2777784166666635,
            "durationTicks": 920,
            "midi": 72,
            "name": "C5",
            "ticks": 70080,
            "time": 97.333382,
            "velocity": 0.7165354330708661
          },
          {
            "duration": 0.6666670000000039,
            "durationTicks": 480,
            "midi": 76,
            "name": "E5",
            "ticks": 70080,
            "time": 97.333382,
            "velocity": 0.5511811023622047
          },
          {
            "duration": 2.944445916666652,
            "durationTicks": 2120,
            "midi": 77,
            "name": "F5",
            "ticks": 70560,
            "time": 98.000049,
            "velocity": 0.3858267716535433
          },
          {
            "duration": 0.27777791666666474,
            "durationTicks": 200,
            "midi": 60,
            "name": "C4",
            "ticks": 70800,
            "time": 98.3333825,
            "velocity": 0.6062992125984252
          },
          {
            "duration": 2.4444456666666525,
            "durationTicks": 1760,
            "midi": 53,
            "name": "F3",
            "ticks": 71040,
            "time": 98.66671600000001,
            "velocity": 0.7165354330708661
          },
          {
            "duration": 2.138889958333337,
            "durationTicks": 1540,
            "midi": 69,
            "name": "A4",
            "ticks": 71040,
            "time": 98.66671600000001,
            "velocity": 0.7165354330708661
          },
          {
            "duration": 1.805556458333328,
            "durationTicks": 1300,
            "midi": 72,
            "name": "C5",
            "ticks": 71040,
            "time": 98.66671600000001,
            "velocity": 0.1968503937007874
          },
          {
            "duration": 0.2777779166666505,
            "durationTicks": 200,
            "midi": 81,
            "name": "A5",
            "ticks": 71040,
            "time": 98.66671600000001,
            "velocity": 0.2755905511811024
          },
          {
            "duration": 2.277778916666662,
            "durationTicks": 1640,
            "midi": 53,
            "name": "F3",
            "ticks": 72960,
            "time": 101.333384,
            "velocity": 0.7007874015748031
          },
          {
            "duration": 2.6944457916666664,
            "durationTicks": 1940,
            "midi": 72,
            "name": "C5",
            "ticks": 72960,
            "time": 101.333384,
            "velocity": 0.5118110236220472
          },
          {
            "duration": 2.583334625000006,
            "durationTicks": 1860,
            "midi": 77,
            "name": "F5",
            "ticks": 72960,
            "time": 101.333384,
            "velocity": 0.5275590551181102
          },
          {
            "duration": 12.555561833333343,
            "durationTicks": 9040,
            "midi": 93,
            "name": "A6",
            "ticks": 72960,
            "time": 101.333384,
            "velocity": 0.25984251968503935
          },
          {
            "duration": 12.500006250000013,
            "durationTicks": 9000,
            "midi": 105,
            "name": "A7",
            "ticks": 72960,
            "time": 101.333384,
            "velocity": 0.2677165354330709
          },
          {
            "duration": 0.3611112916666599,
            "durationTicks": 260,
            "midi": 53,
            "name": "F3",
            "ticks": 74640,
            "time": 103.6667185,
            "velocity": 0.5118110236220472
          },
          {
            "duration": 1.388889583333338,
            "durationTicks": 1000,
            "midi": 52,
            "name": "E3",
            "ticks": 74880,
            "time": 104.000052,
            "velocity": 0.7165354330708661
          },
          {
            "duration": 1.3611117916666586,
            "durationTicks": 980,
            "midi": 70,
            "name": "A#4",
            "ticks": 74880,
            "time": 104.000052,
            "velocity": 0.5905511811023622
          },
          {
            "duration": 1.2777784166666635,
            "durationTicks": 920,
            "midi": 74,
            "name": "D5",
            "ticks": 74880,
            "time": 104.000052,
            "velocity": 0.7165354330708661
          },
          {
            "duration": 1.3333339999999936,
            "durationTicks": 960,
            "midi": 57,
            "name": "A3",
            "ticks": 75840,
            "time": 105.333386,
            "velocity": 0.7165354330708661
          },
          {
            "duration": 1.3611117916666586,
            "durationTicks": 980,
            "midi": 67,
            "name": "G4",
            "ticks": 75840,
            "time": 105.333386,
            "velocity": 0.6062992125984252
          },
          {
            "duration": 1.3611117916666586,
            "durationTicks": 980,
            "midi": 73,
            "name": "C#5",
            "ticks": 75840,
            "time": 105.333386,
            "velocity": 0.7165354330708661
          },
          {
            "duration": 1.2777784166666635,
            "durationTicks": 920,
            "midi": 62,
            "name": "D4",
            "ticks": 76800,
            "time": 106.66672,
            "velocity": 0.6220472440944882
          },
          {
            "duration": 3.972224208333344,
            "durationTicks": 2860,
            "midi": 74,
            "name": "D5",
            "ticks": 76800,
            "time": 106.66672,
            "velocity": 0.7165354330708661
          },
          {
            "duration": 1.8333342500000072,
            "durationTicks": 1320,
            "midi": 77,
            "name": "F5",
            "ticks": 76800,
            "time": 106.66672,
            "velocity": 0.6062992125984252
          },
          {
            "duration": 0.6111114166666596,
            "durationTicks": 440,
            "midi": 62,
            "name": "D4",
            "ticks": 77760,
            "time": 108.000054,
            "velocity": 0.6614173228346457
          },
          {
            "duration": 0.694444791666669,
            "durationTicks": 500,
            "midi": 60,
            "name": "C4",
            "ticks": 78240,
            "time": 108.666721,
            "velocity": 0.7165354330708661
          },
          {
            "duration": 0.305555708333344,
            "durationTicks": 220,
            "midi": 76,
            "name": "E5",
            "ticks": 78240,
            "time": 108.666721,
            "velocity": 0.7165354330708661
          },
          {
            "duration": 0.3611112916666599,
            "durationTicks": 260,
            "midi": 77,
            "name": "F5",
            "ticks": 78480,
            "time": 109.0000545,
            "velocity": 0.6614173228346457
          },
          {
            "duration": 1.416667375000003,
            "durationTicks": 1020,
            "midi": 58,
            "name": "A#3",
            "ticks": 78720,
            "time": 109.333388,
            "velocity": 0.7165354330708661
          },
          {
            "duration": 1.3611117916666586,
            "durationTicks": 980,
            "midi": 70,
            "name": "A#4",
            "ticks": 78720,
            "time": 109.333388,
            "velocity": 0.3700787401574803
          },
          {
            "duration": 1.3611117916666586,
            "durationTicks": 980,
            "midi": 60,
            "name": "C4",
            "ticks": 79680,
            "time": 110.66672200000001,
            "velocity": 0.7165354330708661
          },
          {
            "duration": 1.194445041666654,
            "durationTicks": 860,
            "midi": 72,
            "name": "C5",
            "ticks": 79680,
            "time": 110.66672200000001,
            "velocity": 0.7165354330708661
          },
          {
            "duration": 1.111111666666659,
            "durationTicks": 800,
            "midi": 76,
            "name": "E5",
            "ticks": 79680,
            "time": 110.66672200000001,
            "velocity": 0.7007874015748031
          },
          {
            "duration": 1.9722232083333466,
            "durationTicks": 1420,
            "midi": 53,
            "name": "F3",
            "ticks": 80640,
            "time": 112.000056,
            "velocity": 0.6220472440944882
          },
          {
            "duration": 0.5555558333333437,
            "durationTicks": 400,
            "midi": 70,
            "name": "A#4",
            "ticks": 80640,
            "time": 112.000056,
            "velocity": 0.6062992125984252
          },
          {
            "duration": 0.6944447916666547,
            "durationTicks": 500,
            "midi": 74,
            "name": "D5",
            "ticks": 80640,
            "time": 112.000056,
            "velocity": 0.7165354330708661
          },
          {
            "duration": 0.5000002499999994,
            "durationTicks": 360,
            "midi": 77,
            "name": "F5",
            "ticks": 80640,
            "time": 112.000056,
            "velocity": 0.7165354330708661
          },
          {
            "duration": 0.23611122916665295,
            "durationTicks": 170,
            "midi": 69,
            "name": "A4",
            "ticks": 81120,
            "time": 112.666723,
            "velocity": 0.5275590551181102
          },
          {
            "duration": 0.25694457291665174,
            "durationTicks": 185,
            "midi": 72,
            "name": "C5",
            "ticks": 81120,
            "time": 112.666723,
            "velocity": 0.5275590551181102
          },
          {
            "duration": 0.2500001249999997,
            "durationTicks": 180,
            "midi": 77,
            "name": "F5",
            "ticks": 81120,
            "time": 112.666723,
            "velocity": 0.6062992125984252
          },
          {
            "duration": 1.111111666666659,
            "durationTicks": 800,
            "midi": 69,
            "name": "A4",
            "ticks": 81360,
            "time": 113.0000565,
            "velocity": 0.7165354330708661
          },
          {
            "duration": 1.083333875000008,
            "durationTicks": 780,
            "midi": 72,
            "name": "C5",
            "ticks": 81360,
            "time": 113.0000565,
            "velocity": 0.7165354330708661
          },
          {
            "duration": 1.055556083333343,
            "durationTicks": 760,
            "midi": 77,
            "name": "F5",
            "ticks": 81360,
            "time": 113.0000565,
            "velocity": 0.7007874015748031
          },
          {
            "duration": 0.7222225833333482,
            "durationTicks": 520,
            "midi": 52,
            "name": "E3",
            "ticks": 82080,
            "time": 114.000057,
            "velocity": 0.7165354330708661
          },
          {
            "duration": 0.3055557083333298,
            "durationTicks": 220,
            "midi": 72,
            "name": "C5",
            "ticks": 82320,
            "time": 114.33339050000001,
            "velocity": 0.6062992125984252
          },
          {
            "duration": 1.3611117916666586,
            "durationTicks": 980,
            "midi": 50,
            "name": "D3",
            "ticks": 82560,
            "time": 114.666724,
            "velocity": 0.7165354330708661
          },
          {
            "duration": 0.6944447916666547,
            "durationTicks": 500,
            "midi": 72,
            "name": "C5",
            "ticks": 82560,
            "time": 114.666724,
            "velocity": 0.5275590551181102
          },
          {
            "duration": 0.8888893333333385,
            "durationTicks": 640,
            "midi": 69,
            "name": "A4",
            "ticks": 82800,
            "time": 115.0000575,
            "velocity": 0.25196850393700787
          },
          {
            "duration": 0.33333349999999484,
            "durationTicks": 240,
            "midi": 77,
            "name": "F5",
            "ticks": 83040,
            "time": 115.333391,
            "velocity": 0.7007874015748031
          },
          {
            "duration": 0.3611112916666599,
            "durationTicks": 260,
            "midi": 72,
            "name": "C5",
            "ticks": 83280,
            "time": 115.6667245,
            "velocity": 0.7165354330708661
          },
          {
            "duration": 1.3611117916666728,
            "durationTicks": 980,
            "midi": 55,
            "name": "G3",
            "ticks": 83520,
            "time": 116.000058,
            "velocity": 0.7165354330708661
          },
          {
            "duration": 1.2500006250000126,
            "durationTicks": 900,
            "midi": 67,
            "name": "G4",
            "ticks": 83520,
            "time": 116.000058,
            "velocity": 0.7165354330708661
          },
          {
            "duration": 0.7222225833333482,
            "durationTicks": 520,
            "midi": 71,
            "name": "B4",
            "ticks": 83520,
            "time": 116.000058,
            "velocity": 0.7165354330708661
          },
          {
            "duration": 0.5833336250000087,
            "durationTicks": 420,
            "midi": 77,
            "name": "F5",
            "ticks": 84000,
            "time": 116.666725,
            "velocity": 0.5118110236220472
          },
          {
            "duration": 0.22222233333333463,
            "durationTicks": 160,
            "midi": 71,
            "name": "B4",
            "ticks": 84240,
            "time": 117.00005850000001,
            "velocity": 0.7165354330708661
          },
          {
            "duration": 0.6944447916666547,
            "durationTicks": 500,
            "midi": 58,
            "name": "A#3",
            "ticks": 84480,
            "time": 117.333392,
            "velocity": 0.7165354330708661
          },
          {
            "duration": 0.5555558333333437,
            "durationTicks": 400,
            "midi": 70,
            "name": "A#4",
            "ticks": 84480,
            "time": 117.333392,
            "velocity": 0.7165354330708661
          },
          {
            "duration": 0.5277780416666644,
            "durationTicks": 380,
            "midi": 74,
            "name": "D5",
            "ticks": 84480,
            "time": 117.333392,
            "velocity": 0.7165354330708661
          },
          {
            "duration": 0.5833336249999945,
            "durationTicks": 420,
            "midi": 77,
            "name": "F5",
            "ticks": 84480,
            "time": 117.333392,
            "velocity": 0.6062992125984252
          },
          {
            "duration": 0.13888895833333947,
            "durationTicks": 100,
            "midi": 53,
            "name": "F3",
            "ticks": 84960,
            "time": 118.00005900000001,
            "velocity": 0.7165354330708661
          },
          {
            "duration": 0.11111116666666021,
            "durationTicks": 80,
            "midi": 69,
            "name": "A4",
            "ticks": 84960,
            "time": 118.00005900000001,
            "velocity": 0.6614173228346457
          },
          {
            "duration": 0.16666674999999032,
            "durationTicks": 120,
            "midi": 72,
            "name": "C5",
            "ticks": 84960,
            "time": 118.00005900000001,
            "velocity": 0.6062992125984252
          },
          {
            "duration": 0.11111116666666021,
            "durationTicks": 80,
            "midi": 77,
            "name": "F5",
            "ticks": 84960,
            "time": 118.00005900000001,
            "velocity": 0.4566929133858268
          },
          {
            "duration": 1.5555563333333424,
            "durationTicks": 1120,
            "midi": 53,
            "name": "F3",
            "ticks": 85200,
            "time": 118.3333925,
            "velocity": 0.7007874015748031
          },
          {
            "duration": 1.194445041666654,
            "durationTicks": 860,
            "midi": 69,
            "name": "A4",
            "ticks": 85200,
            "time": 118.3333925,
            "velocity": 0.7165354330708661
          },
          {
            "duration": 1.1666672500000033,
            "durationTicks": 840,
            "midi": 72,
            "name": "C5",
            "ticks": 85200,
            "time": 118.3333925,
            "velocity": 0.7165354330708661
          },
          {
            "duration": 1.1666672500000033,
            "durationTicks": 840,
            "midi": 77,
            "name": "F5",
            "ticks": 85200,
            "time": 118.3333925,
            "velocity": 0.7165354330708661
          },
          {
            "duration": 1.416667375000003,
            "durationTicks": 1020,
            "midi": 60,
            "name": "C4",
            "ticks": 86400,
            "time": 120.00006,
            "velocity": 0.7007874015748031
          },
          {
            "duration": 1.3611117916666586,
            "durationTicks": 980,
            "midi": 59,
            "name": "B3",
            "ticks": 87360,
            "time": 121.333394,
            "velocity": 0.7165354330708661
          },
          {
            "duration": 0.6944447916666547,
            "durationTicks": 500,
            "midi": 58,
            "name": "A#3",
            "ticks": 88320,
            "time": 122.666728,
            "velocity": 0.7165354330708661
          },
          {
            "duration": 0.22222233333334884,
            "durationTicks": 160,
            "midi": 53,
            "name": "F3",
            "ticks": 88800,
            "time": 123.333395,
            "velocity": 0.7007874015748031
          },
          {
            "duration": 0.13888895833333947,
            "durationTicks": 100,
            "midi": 69,
            "name": "A4",
            "ticks": 88800,
            "time": 123.333395,
            "velocity": 0.5275590551181102
          },
          {
            "duration": 0.13888895833333947,
            "durationTicks": 100,
            "midi": 72,
            "name": "C5",
            "ticks": 88800,
            "time": 123.333395,
            "velocity": 0.5275590551181102
          },
          {
            "duration": 0.13888895833333947,
            "durationTicks": 100,
            "midi": 77,
            "name": "F5",
            "ticks": 88800,
            "time": 123.333395,
            "velocity": 0.49606299212598426
          },
          {
            "duration": 2.7777791666666616,
            "durationTicks": 2000,
            "midi": 53,
            "name": "F3",
            "ticks": 89040,
            "time": 123.6667285,
            "velocity": 0.7165354330708661
          },
          {
            "duration": 3.0833348749999914,
            "durationTicks": 2220,
            "midi": 69,
            "name": "A4",
            "ticks": 89040,
            "time": 123.6667285,
            "velocity": 0.7007874015748031
          },
          {
            "duration": 3.0833348749999914,
            "durationTicks": 2220,
            "midi": 72,
            "name": "C5",
            "ticks": 89040,
            "time": 123.6667285,
            "velocity": 0.7165354330708661
          },
          {
            "duration": 3.1111126666666564,
            "durationTicks": 2240,
            "midi": 77,
            "name": "F5",
            "ticks": 89040,
            "time": 123.6667285,
            "velocity": 0.7165354330708661
          }
        ]
      },
      {
        "channel": 0,
        "controlChanges": {
          "0": [
            {
              "number": 0,
              "ticks": 0,
              "time": 0,
              "value": 0.06299212598425197
            }
          ]
        },
        "pitchBends": [],
        "instrument": {
          "family": "piano",
          "number": 0,
          "name": "acoustic grand piano"
        },
        "name": "rythm guitar",
        "notes": [],
        "endOfTrackTicks": 90240
      },
      {
        "channel": 2,
        "controlChanges": {
          "7": [
            {
              "number": 7,
              "ticks": 0,
              "time": 0,
              "value": 0.5590551181102362
            }
          ],
          "10": [
            {
              "number": 10,
              "ticks": 0,
              "time": 0,
              "value": 0.5039370078740157
            }
          ],
          "64": [
            {
              "number": 64,
              "ticks": 10,
              "time": 0.013888895833333333,
              "value": 1
            },
            {
              "number": 64,
              "ticks": 950,
              "time": 1.3194451041666668,
              "value": 0
            },
            {
              "number": 64,
              "ticks": 970,
              "time": 1.3472228958333334,
              "value": 1
            },
            {
              "number": 64,
              "ticks": 1910,
              "time": 2.6527791041666666,
              "value": 0
            },
            {
              "number": 64,
              "ticks": 1930,
              "time": 2.680556895833333,
              "value": 1
            },
            {
              "number": 64,
              "ticks": 2870,
              "time": 3.986113104166667,
              "value": 0
            },
            {
              "number": 64,
              "ticks": 2890,
              "time": 4.013890895833333,
              "value": 1
            },
            {
              "number": 64,
              "ticks": 3830,
              "time": 5.319447104166667,
              "value": 0
            },
            {
              "number": 64,
              "ticks": 3850,
              "time": 5.3472248958333335,
              "value": 1
            },
            {
              "number": 64,
              "ticks": 4790,
              "time": 6.6527811041666665,
              "value": 0
            },
            {
              "number": 64,
              "ticks": 4810,
              "time": 6.680558895833334,
              "value": 1
            },
            {
              "number": 64,
              "ticks": 5750,
              "time": 7.986115104166666,
              "value": 0
            },
            {
              "number": 64,
              "ticks": 5770,
              "time": 8.013892895833333,
              "value": 1
            },
            {
              "number": 64,
              "ticks": 6710,
              "time": 9.319449104166667,
              "value": 0
            },
            {
              "number": 64,
              "ticks": 6730,
              "time": 9.347226895833334,
              "value": 1
            },
            {
              "number": 64,
              "ticks": 7670,
              "time": 10.652783104166666,
              "value": 0
            },
            {
              "number": 64,
              "ticks": 7690,
              "time": 10.680560895833333,
              "value": 1
            },
            {
              "number": 64,
              "ticks": 8630,
              "time": 11.986117104166668,
              "value": 0
            },
            {
              "number": 64,
              "ticks": 8650,
              "time": 12.013894895833333,
              "value": 1
            },
            {
              "number": 64,
              "ticks": 9590,
              "time": 13.319451104166667,
              "value": 0
            },
            {
              "number": 64,
              "ticks": 9610,
              "time": 13.347228895833332,
              "value": 1
            },
            {
              "number": 64,
              "ticks": 10550,
              "time": 14.652785104166668,
              "value": 0
            },
            {
              "number": 64,
              "ticks": 10570,
              "time": 14.680562895833333,
              "value": 1
            },
            {
              "number": 64,
              "ticks": 11510,
              "time": 15.986119104166667,
              "value": 0
            },
            {
              "number": 64,
              "ticks": 11530,
              "time": 16.013896895833334,
              "value": 1
            },
            {
              "number": 64,
              "ticks": 12470,
              "time": 17.31945310416667,
              "value": 0
            },
            {
              "number": 64,
              "ticks": 12490,
              "time": 17.347230895833334,
              "value": 1
            },
            {
              "number": 64,
              "ticks": 13430,
              "time": 18.652787104166666,
              "value": 0
            },
            {
              "number": 64,
              "ticks": 13450,
              "time": 18.68056489583333,
              "value": 1
            },
            {
              "number": 64,
              "ticks": 14885,
              "time": 20.673621447916666,
              "value": 0
            },
            {
              "number": 64,
              "ticks": 14900,
              "time": 20.69445479166667,
              "value": 1
            },
            {
              "number": 64,
              "ticks": 15350,
              "time": 21.319455104166668,
              "value": 0
            },
            {
              "number": 64,
              "ticks": 15370,
              "time": 21.347232895833336,
              "value": 1
            },
            {
              "number": 64,
              "ticks": 16310,
              "time": 22.652789104166665,
              "value": 0
            },
            {
              "number": 64,
              "ticks": 16330,
              "time": 22.680566895833334,
              "value": 1
            },
            {
              "number": 64,
              "ticks": 17270,
              "time": 23.986123104166666,
              "value": 0
            },
            {
              "number": 64,
              "ticks": 17290,
              "time": 24.013900895833334,
              "value": 1
            },
            {
              "number": 64,
              "ticks": 18230,
              "time": 25.319457104166666,
              "value": 0
            },
            {
              "number": 64,
              "ticks": 18250,
              "time": 25.347234895833335,
              "value": 1
            },
            {
              "number": 64,
              "ticks": 19190,
              "time": 26.652791104166667,
              "value": 0
            },
            {
              "number": 64,
              "ticks": 19210,
              "time": 26.680568895833336,
              "value": 1
            },
            {
              "number": 64,
              "ticks": 20150,
              "time": 27.986125104166664,
              "value": 0
            },
            {
              "number": 64,
              "ticks": 20170,
              "time": 28.013902895833336,
              "value": 1
            },
            {
              "number": 64,
              "ticks": 21110,
              "time": 29.319459104166665,
              "value": 0
            },
            {
              "number": 64,
              "ticks": 21130,
              "time": 29.347236895833337,
              "value": 1
            },
            {
              "number": 64,
              "ticks": 22070,
              "time": 30.652793104166665,
              "value": 0
            },
            {
              "number": 64,
              "ticks": 22090,
              "time": 30.680570895833334,
              "value": 1
            },
            {
              "number": 64,
              "ticks": 23030,
              "time": 31.986127104166666,
              "value": 0
            },
            {
              "number": 64,
              "ticks": 23050,
              "time": 32.013904895833335,
              "value": 1
            },
            {
              "number": 64,
              "ticks": 23990,
              "time": 33.31946110416666,
              "value": 0
            },
            {
              "number": 64,
              "ticks": 24010,
              "time": 33.347238895833335,
              "value": 1
            },
            {
              "number": 64,
              "ticks": 24950,
              "time": 34.652795104166664,
              "value": 0
            },
            {
              "number": 64,
              "ticks": 24970,
              "time": 34.680572895833336,
              "value": 1
            },
            {
              "number": 64,
              "ticks": 25910,
              "time": 35.986129104166665,
              "value": 0
            },
            {
              "number": 64,
              "ticks": 25930,
              "time": 36.01390689583334,
              "value": 1
            },
            {
              "number": 64,
              "ticks": 26870,
              "time": 37.319463104166665,
              "value": 0
            },
            {
              "number": 64,
              "ticks": 26890,
              "time": 37.34724089583334,
              "value": 1
            },
            {
              "number": 64,
              "ticks": 28320,
              "time": 39.333353,
              "value": 0
            },
            {
              "number": 64,
              "ticks": 28330,
              "time": 39.347241895833335,
              "value": 1
            },
            {
              "number": 64,
              "ticks": 28810,
              "time": 40.01390889583334,
              "value": 1
            },
            {
              "number": 64,
              "ticks": 29750,
              "time": 41.31946510416667,
              "value": 0
            },
            {
              "number": 64,
              "ticks": 29770,
              "time": 41.34724289583333,
              "value": 1
            },
            {
              "number": 64,
              "ticks": 30710,
              "time": 42.65279910416667,
              "value": 0
            },
            {
              "number": 64,
              "ticks": 30730,
              "time": 42.68057689583333,
              "value": 1
            },
            {
              "number": 64,
              "ticks": 31670,
              "time": 43.98613310416667,
              "value": 0
            },
            {
              "number": 64,
              "ticks": 31690,
              "time": 44.013910895833334,
              "value": 1
            },
            {
              "number": 64,
              "ticks": 32630,
              "time": 45.31946710416667,
              "value": 0
            },
            {
              "number": 64,
              "ticks": 32650,
              "time": 45.34724489583333,
              "value": 1
            },
            {
              "number": 64,
              "ticks": 33590,
              "time": 46.65280110416667,
              "value": 0
            },
            {
              "number": 64,
              "ticks": 33610,
              "time": 46.68057889583333,
              "value": 1
            },
            {
              "number": 64,
              "ticks": 34550,
              "time": 47.98613510416667,
              "value": 0
            },
            {
              "number": 64,
              "ticks": 34570,
              "time": 48.01391289583333,
              "value": 1
            },
            {
              "number": 64,
              "ticks": 35510,
              "time": 49.31946910416667,
              "value": 0
            },
            {
              "number": 64,
              "ticks": 35530,
              "time": 49.34724689583333,
              "value": 1
            },
            {
              "number": 64,
              "ticks": 36470,
              "time": 50.65280310416667,
              "value": 0
            },
            {
              "number": 64,
              "ticks": 36490,
              "time": 50.68058089583333,
              "value": 1
            },
            {
              "number": 64,
              "ticks": 37430,
              "time": 51.98613710416667,
              "value": 0
            },
            {
              "number": 64,
              "ticks": 37450,
              "time": 52.01391489583333,
              "value": 1
            },
            {
              "number": 64,
              "ticks": 38390,
              "time": 53.319471104166674,
              "value": 0
            },
            {
              "number": 64,
              "ticks": 38410,
              "time": 53.34724889583333,
              "value": 1
            },
            {
              "number": 64,
              "ticks": 39350,
              "time": 54.65280510416667,
              "value": 0
            },
            {
              "number": 64,
              "ticks": 39370,
              "time": 54.68058289583333,
              "value": 1
            },
            {
              "number": 64,
              "ticks": 40310,
              "time": 55.98613910416667,
              "value": 0
            },
            {
              "number": 64,
              "ticks": 40330,
              "time": 56.01391689583333,
              "value": 1
            },
            {
              "number": 64,
              "ticks": 41270,
              "time": 57.31947310416667,
              "value": 0
            },
            {
              "number": 64,
              "ticks": 41290,
              "time": 57.347250895833334,
              "value": 1
            },
            {
              "number": 64,
              "ticks": 42230,
              "time": 58.65280710416667,
              "value": 0
            },
            {
              "number": 64,
              "ticks": 42250,
              "time": 58.680584895833334,
              "value": 1
            },
            {
              "number": 64,
              "ticks": 43190,
              "time": 59.98614110416667,
              "value": 0
            },
            {
              "number": 64,
              "ticks": 43210,
              "time": 60.01391889583333,
              "value": 1
            },
            {
              "number": 64,
              "ticks": 44150,
              "time": 61.31947510416667,
              "value": 0
            },
            {
              "number": 64,
              "ticks": 44170,
              "time": 61.34725289583333,
              "value": 1
            },
            {
              "number": 64,
              "ticks": 45110,
              "time": 62.65280910416667,
              "value": 0
            },
            {
              "number": 64,
              "ticks": 45130,
              "time": 62.68058689583333,
              "value": 1
            },
            {
              "number": 64,
              "ticks": 46070,
              "time": 63.98614310416667,
              "value": 0
            },
            {
              "number": 64,
              "ticks": 46090,
              "time": 64.01392089583334,
              "value": 1
            },
            {
              "number": 64,
              "ticks": 47030,
              "time": 65.31947710416667,
              "value": 0
            },
            {
              "number": 64,
              "ticks": 47050,
              "time": 65.34725489583333,
              "value": 1
            },
            {
              "number": 64,
              "ticks": 47990,
              "time": 66.65281110416667,
              "value": 0
            },
            {
              "number": 64,
              "ticks": 48010,
              "time": 66.68058889583332,
              "value": 1
            },
            {
              "number": 64,
              "ticks": 48950,
              "time": 67.98614510416667,
              "value": 0
            },
            {
              "number": 64,
              "ticks": 48970,
              "time": 68.01392289583333,
              "value": 1
            },
            {
              "number": 64,
              "ticks": 49910,
              "time": 69.31947910416667,
              "value": 0
            },
            {
              "number": 64,
              "ticks": 49930,
              "time": 69.34725689583333,
              "value": 1
            },
            {
              "number": 64,
              "ticks": 50870,
              "time": 70.65281310416667,
              "value": 0
            },
            {
              "number": 64,
              "ticks": 50890,
              "time": 70.68059089583333,
              "value": 1
            },
            {
              "number": 64,
              "ticks": 51830,
              "time": 71.98614710416668,
              "value": 0
            },
            {
              "number": 64,
              "ticks": 51850,
              "time": 72.01392489583333,
              "value": 1
            },
            {
              "number": 64,
              "ticks": 52790,
              "time": 73.31948110416667,
              "value": 0
            },
            {
              "number": 64,
              "ticks": 52810,
              "time": 73.34725889583333,
              "value": 1
            },
            {
              "number": 64,
              "ticks": 53750,
              "time": 74.65281510416668,
              "value": 0
            },
            {
              "number": 64,
              "ticks": 53770,
              "time": 74.68059289583333,
              "value": 1
            },
            {
              "number": 64,
              "ticks": 54710,
              "time": 75.98614910416667,
              "value": 0
            },
            {
              "number": 64,
              "ticks": 54730,
              "time": 76.01392689583334,
              "value": 1
            },
            {
              "number": 64,
              "ticks": 55670,
              "time": 77.31948310416666,
              "value": 0
            },
            {
              "number": 64,
              "ticks": 55690,
              "time": 77.34726089583333,
              "value": 1
            },
            {
              "number": 64,
              "ticks": 57120,
              "time": 79.333373,
              "value": 0
            },
            {
              "number": 64,
              "ticks": 57130,
              "time": 79.34726189583333,
              "value": 1
            },
            {
              "number": 64,
              "ticks": 57610,
              "time": 80.01392889583333,
              "value": 1
            },
            {
              "number": 64,
              "ticks": 58550,
              "time": 81.31948510416667,
              "value": 0
            },
            {
              "number": 64,
              "ticks": 58570,
              "time": 81.34726289583332,
              "value": 1
            },
            {
              "number": 64,
              "ticks": 59510,
              "time": 82.65281910416667,
              "value": 0
            },
            {
              "number": 64,
              "ticks": 59530,
              "time": 82.68059689583333,
              "value": 1
            },
            {
              "number": 64,
              "ticks": 60470,
              "time": 83.98615310416668,
              "value": 0
            },
            {
              "number": 64,
              "ticks": 60490,
              "time": 84.01393089583333,
              "value": 1
            },
            {
              "number": 64,
              "ticks": 61430,
              "time": 85.31948710416667,
              "value": 0
            },
            {
              "number": 64,
              "ticks": 61450,
              "time": 85.34726489583335,
              "value": 1
            },
            {
              "number": 64,
              "ticks": 62390,
              "time": 86.65282110416666,
              "value": 0
            },
            {
              "number": 64,
              "ticks": 62410,
              "time": 86.68059889583334,
              "value": 1
            },
            {
              "number": 64,
              "ticks": 63350,
              "time": 87.98615510416666,
              "value": 0
            },
            {
              "number": 64,
              "ticks": 63370,
              "time": 88.01393289583334,
              "value": 1
            },
            {
              "number": 64,
              "ticks": 64310,
              "time": 89.31948910416666,
              "value": 0
            },
            {
              "number": 64,
              "ticks": 64330,
              "time": 89.34726689583334,
              "value": 1
            },
            {
              "number": 64,
              "ticks": 65270,
              "time": 90.65282310416666,
              "value": 0
            },
            {
              "number": 64,
              "ticks": 65290,
              "time": 90.68060089583334,
              "value": 1
            },
            {
              "number": 64,
              "ticks": 66230,
              "time": 91.98615710416667,
              "value": 0
            },
            {
              "number": 64,
              "ticks": 66250,
              "time": 92.01393489583334,
              "value": 1
            },
            {
              "number": 64,
              "ticks": 67190,
              "time": 93.31949110416666,
              "value": 0
            },
            {
              "number": 64,
              "ticks": 67210,
              "time": 93.34726889583334,
              "value": 1
            },
            {
              "number": 64,
              "ticks": 68150,
              "time": 94.65282510416667,
              "value": 0
            },
            {
              "number": 64,
              "ticks": 68170,
              "time": 94.68060289583335,
              "value": 1
            },
            {
              "number": 64,
              "ticks": 69110,
              "time": 95.98615910416666,
              "value": 0
            },
            {
              "number": 64,
              "ticks": 69130,
              "time": 96.01393689583334,
              "value": 1
            },
            {
              "number": 64,
              "ticks": 70070,
              "time": 97.31949310416667,
              "value": 0
            },
            {
              "number": 64,
              "ticks": 70090,
              "time": 97.34727089583335,
              "value": 1
            },
            {
              "number": 64,
              "ticks": 71030,
              "time": 98.65282710416666,
              "value": 0
            },
            {
              "number": 64,
              "ticks": 71050,
              "time": 98.68060489583334,
              "value": 1
            },
            {
              "number": 64,
              "ticks": 71990,
              "time": 99.98616110416665,
              "value": 0
            },
            {
              "number": 64,
              "ticks": 72010,
              "time": 100.01393889583333,
              "value": 1
            },
            {
              "number": 64,
              "ticks": 72950,
              "time": 101.31949510416666,
              "value": 0
            },
            {
              "number": 64,
              "ticks": 72970,
              "time": 101.34727289583334,
              "value": 1
            },
            {
              "number": 64,
              "ticks": 73910,
              "time": 102.65282910416666,
              "value": 0
            },
            {
              "number": 64,
              "ticks": 73930,
              "time": 102.68060689583334,
              "value": 1
            },
            {
              "number": 64,
              "ticks": 74870,
              "time": 103.98616310416666,
              "value": 0
            },
            {
              "number": 64,
              "ticks": 74890,
              "time": 104.01394089583334,
              "value": 1
            },
            {
              "number": 64,
              "ticks": 75830,
              "time": 105.31949710416666,
              "value": 0
            },
            {
              "number": 64,
              "ticks": 75850,
              "time": 105.34727489583334,
              "value": 1
            },
            {
              "number": 64,
              "ticks": 76790,
              "time": 106.65283110416667,
              "value": 0
            },
            {
              "number": 64,
              "ticks": 76810,
              "time": 106.68060889583334,
              "value": 1
            },
            {
              "number": 64,
              "ticks": 77750,
              "time": 107.98616510416666,
              "value": 0
            },
            {
              "number": 64,
              "ticks": 77770,
              "time": 108.01394289583334,
              "value": 1
            },
            {
              "number": 64,
              "ticks": 78710,
              "time": 109.31949910416667,
              "value": 0
            },
            {
              "number": 64,
              "ticks": 78730,
              "time": 109.34727689583335,
              "value": 1
            },
            {
              "number": 64,
              "ticks": 79670,
              "time": 110.65283310416666,
              "value": 0
            },
            {
              "number": 64,
              "ticks": 79690,
              "time": 110.68061089583334,
              "value": 1
            },
            {
              "number": 64,
              "ticks": 80630,
              "time": 111.98616710416667,
              "value": 0
            },
            {
              "number": 64,
              "ticks": 80650,
              "time": 112.01394489583335,
              "value": 1
            },
            {
              "number": 64,
              "ticks": 81590,
              "time": 113.31950110416666,
              "value": 0
            },
            {
              "number": 64,
              "ticks": 81610,
              "time": 113.34727889583334,
              "value": 1
            },
            {
              "number": 64,
              "ticks": 82550,
              "time": 114.65283510416666,
              "value": 0
            },
            {
              "number": 64,
              "ticks": 82570,
              "time": 114.68061289583333,
              "value": 1
            },
            {
              "number": 64,
              "ticks": 83510,
              "time": 115.98616910416666,
              "value": 0
            },
            {
              "number": 64,
              "ticks": 83530,
              "time": 116.01394689583334,
              "value": 1
            },
            {
              "number": 64,
              "ticks": 84470,
              "time": 117.31950310416666,
              "value": 0
            },
            {
              "number": 64,
              "ticks": 84490,
              "time": 117.34728089583334,
              "value": 1
            },
            {
              "number": 64,
              "ticks": 85430,
              "time": 118.65283710416666,
              "value": 0
            },
            {
              "number": 64,
              "ticks": 85450,
              "time": 118.68061489583334,
              "value": 1
            },
            {
              "number": 64,
              "ticks": 86390,
              "time": 119.98617110416666,
              "value": 0
            },
            {
              "number": 64,
              "ticks": 86410,
              "time": 120.01394889583334,
              "value": 1
            },
            {
              "number": 64,
              "ticks": 87350,
              "time": 121.31950510416667,
              "value": 0
            },
            {
              "number": 64,
              "ticks": 87370,
              "time": 121.34728289583335,
              "value": 1
            },
            {
              "number": 64,
              "ticks": 88240,
              "time": 122.55561683333335,
              "value": 0
            },
            {
              "number": 64,
              "ticks": 88265,
              "time": 122.59033907291666,
              "value": 1
            },
            {
              "number": 64,
              "ticks": 89750,
              "time": 124.65284010416666,
              "value": 0
            }
          ]
        },
        "pitchBends": [],
        "instrument": {
          "family": "guitar",
          "number": 25,
          "name": "acoustic guitar (steel)"
        },
        "name": "",
        "notes": [
          {
            "duration": 0.027777791666666666,
            "durationTicks": 20,
            "midi": 41,
            "name": "F2",
            "ticks": 0,
            "time": 0,
            "velocity": 1
          },
          {
            "duration": 0.027777791666666662,
            "durationTicks": 20,
            "midi": 60,
            "name": "C4",
            "ticks": 240,
            "time": 0.3333335,
            "velocity": 1
          },
          {
            "duration": 0.027777791666666662,
            "durationTicks": 20,
            "midi": 65,
            "name": "F4",
            "ticks": 240,
            "time": 0.3333335,
            "velocity": 1
          },
          {
            "duration": 0.027777791666666718,
            "durationTicks": 20,
            "midi": 60,
            "name": "C4",
            "ticks": 480,
            "time": 0.666667,
            "velocity": 1
          },
          {
            "duration": 0.027777791666666718,
            "durationTicks": 20,
            "midi": 65,
            "name": "F4",
            "ticks": 480,
            "time": 0.666667,
            "velocity": 1
          },
          {
            "duration": 0.027777791666666607,
            "durationTicks": 20,
            "midi": 60,
            "name": "C4",
            "ticks": 720,
            "time": 1.0000005,
            "velocity": 1
          },
          {
            "duration": 0.027777791666666607,
            "durationTicks": 20,
            "midi": 65,
            "name": "F4",
            "ticks": 720,
            "time": 1.0000005,
            "velocity": 1
          },
          {
            "duration": 0.027777791666666607,
            "durationTicks": 20,
            "midi": 41,
            "name": "F2",
            "ticks": 960,
            "time": 1.333334,
            "velocity": 1
          },
          {
            "duration": 0.027777791666666607,
            "durationTicks": 20,
            "midi": 60,
            "name": "C4",
            "ticks": 1200,
            "time": 1.6666675,
            "velocity": 1
          },
          {
            "duration": 0.027777791666666607,
            "durationTicks": 20,
            "midi": 65,
            "name": "F4",
            "ticks": 1200,
            "time": 1.6666675,
            "velocity": 1
          },
          {
            "duration": 0.027777791666666385,
            "durationTicks": 20,
            "midi": 60,
            "name": "C4",
            "ticks": 1440,
            "time": 2.000001,
            "velocity": 1
          },
          {
            "duration": 0.027777791666666385,
            "durationTicks": 20,
            "midi": 65,
            "name": "F4",
            "ticks": 1440,
            "time": 2.000001,
            "velocity": 1
          },
          {
            "duration": 0.02777779166666683,
            "durationTicks": 20,
            "midi": 60,
            "name": "C4",
            "ticks": 1680,
            "time": 2.3333345,
            "velocity": 1
          },
          {
            "duration": 0.02777779166666683,
            "durationTicks": 20,
            "midi": 65,
            "name": "F4",
            "ticks": 1680,
            "time": 2.3333345,
            "velocity": 1
          },
          {
            "duration": 0.02777779166666683,
            "durationTicks": 20,
            "midi": 41,
            "name": "F2",
            "ticks": 1920,
            "time": 2.666668,
            "velocity": 1
          },
          {
            "duration": 0.02777779166666683,
            "durationTicks": 20,
            "midi": 60,
            "name": "C4",
            "ticks": 2160,
            "time": 3.0000015,
            "velocity": 1
          },
          {
            "duration": 0.02777779166666683,
            "durationTicks": 20,
            "midi": 65,
            "name": "F4",
            "ticks": 2160,
            "time": 3.0000015,
            "velocity": 1
          },
          {
            "duration": 0.02777779166666683,
            "durationTicks": 20,
            "midi": 60,
            "name": "C4",
            "ticks": 2400,
            "time": 3.333335,
            "velocity": 1
          },
          {
            "duration": 0.02777779166666683,
            "durationTicks": 20,
            "midi": 65,
            "name": "F4",
            "ticks": 2400,
            "time": 3.333335,
            "velocity": 1
          },
          {
            "duration": 0.02777779166666683,
            "durationTicks": 20,
            "midi": 60,
            "name": "C4",
            "ticks": 2640,
            "time": 3.6666685,
            "velocity": 1
          },
          {
            "duration": 0.02777779166666683,
            "durationTicks": 20,
            "midi": 65,
            "name": "F4",
            "ticks": 2640,
            "time": 3.6666685,
            "velocity": 1
          },
          {
            "duration": 0.02777779166666683,
            "durationTicks": 20,
            "midi": 41,
            "name": "F2",
            "ticks": 2880,
            "time": 4.000002,
            "velocity": 1
          },
          {
            "duration": 0.02777779166666683,
            "durationTicks": 20,
            "midi": 60,
            "name": "C4",
            "ticks": 3120,
            "time": 4.3333355000000005,
            "velocity": 1
          },
          {
            "duration": 0.02777779166666683,
            "durationTicks": 20,
            "midi": 65,
            "name": "F4",
            "ticks": 3120,
            "time": 4.3333355000000005,
            "velocity": 1
          },
          {
            "duration": 0.02777779166666683,
            "durationTicks": 20,
            "midi": 60,
            "name": "C4",
            "ticks": 3360,
            "time": 4.666669,
            "velocity": 1
          },
          {
            "duration": 0.02777779166666683,
            "durationTicks": 20,
            "midi": 65,
            "name": "F4",
            "ticks": 3360,
            "time": 4.666669,
            "velocity": 1
          },
          {
            "duration": 0.02777779166666683,
            "durationTicks": 20,
            "midi": 50,
            "name": "D3",
            "ticks": 3600,
            "time": 5.0000025,
            "velocity": 1
          },
          {
            "duration": 0.02777779166666683,
            "durationTicks": 20,
            "midi": 60,
            "name": "C4",
            "ticks": 3600,
            "time": 5.0000025,
            "velocity": 1
          },
          {
            "duration": 0.02777779166666683,
            "durationTicks": 20,
            "midi": 65,
            "name": "F4",
            "ticks": 3600,
            "time": 5.0000025,
            "velocity": 1
          },
          {
            "duration": 0.02777779166666594,
            "durationTicks": 20,
            "midi": 40,
            "name": "E2",
            "ticks": 3840,
            "time": 5.333336,
            "velocity": 1
          },
          {
            "duration": 0.02777779166666594,
            "durationTicks": 20,
            "midi": 55,
            "name": "G3",
            "ticks": 4080,
            "time": 5.6666695,
            "velocity": 1
          },
          {
            "duration": 0.02777779166666594,
            "durationTicks": 20,
            "midi": 59,
            "name": "B3",
            "ticks": 4080,
            "time": 5.6666695,
            "velocity": 1
          },
          {
            "duration": 0.02777779166666594,
            "durationTicks": 20,
            "midi": 62,
            "name": "D4",
            "ticks": 4080,
            "time": 5.6666695,
            "velocity": 1
          },
          {
            "duration": 0.02777779166666594,
            "durationTicks": 20,
            "midi": 55,
            "name": "G3",
            "ticks": 4320,
            "time": 6.000003,
            "velocity": 1
          },
          {
            "duration": 0.02777779166666594,
            "durationTicks": 20,
            "midi": 59,
            "name": "B3",
            "ticks": 4320,
            "time": 6.000003,
            "velocity": 1
          },
          {
            "duration": 0.02777779166666594,
            "durationTicks": 20,
            "midi": 62,
            "name": "D4",
            "ticks": 4320,
            "time": 6.000003,
            "velocity": 1
          },
          {
            "duration": 0.02777779166666683,
            "durationTicks": 20,
            "midi": 40,
            "name": "E2",
            "ticks": 4560,
            "time": 6.3333365,
            "velocity": 1
          },
          {
            "duration": 0.02777779166666683,
            "durationTicks": 20,
            "midi": 55,
            "name": "G3",
            "ticks": 4560,
            "time": 6.3333365,
            "velocity": 1
          },
          {
            "duration": 0.02777779166666683,
            "durationTicks": 20,
            "midi": 59,
            "name": "B3",
            "ticks": 4560,
            "time": 6.3333365,
            "velocity": 1
          },
          {
            "duration": 0.02777779166666683,
            "durationTicks": 20,
            "midi": 62,
            "name": "D4",
            "ticks": 4560,
            "time": 6.3333365,
            "velocity": 1
          },
          {
            "duration": 0.02777779166666683,
            "durationTicks": 20,
            "midi": 45,
            "name": "A2",
            "ticks": 4800,
            "time": 6.66667,
            "velocity": 1
          },
          {
            "duration": 0.02777779166666594,
            "durationTicks": 20,
            "midi": 55,
            "name": "G3",
            "ticks": 5040,
            "time": 7.0000035,
            "velocity": 1
          },
          {
            "duration": 0.02777779166666594,
            "durationTicks": 20,
            "midi": 61,
            "name": "C#4",
            "ticks": 5040,
            "time": 7.0000035,
            "velocity": 1
          },
          {
            "duration": 0.02777779166666594,
            "durationTicks": 20,
            "midi": 64,
            "name": "E4",
            "ticks": 5040,
            "time": 7.0000035,
            "velocity": 1
          },
          {
            "duration": 0.02777779166666594,
            "durationTicks": 20,
            "midi": 55,
            "name": "G3",
            "ticks": 5280,
            "time": 7.333337,
            "velocity": 1
          },
          {
            "duration": 0.02777779166666594,
            "durationTicks": 20,
            "midi": 61,
            "name": "C#4",
            "ticks": 5280,
            "time": 7.333337,
            "velocity": 1
          },
          {
            "duration": 0.02777779166666594,
            "durationTicks": 20,
            "midi": 64,
            "name": "E4",
            "ticks": 5280,
            "time": 7.333337,
            "velocity": 1
          },
          {
            "duration": 0.02777779166666594,
            "durationTicks": 20,
            "midi": 45,
            "name": "A2",
            "ticks": 5520,
            "time": 7.6666705,
            "velocity": 1
          },
          {
            "duration": 0.02777779166666594,
            "durationTicks": 20,
            "midi": 55,
            "name": "G3",
            "ticks": 5520,
            "time": 7.6666705,
            "velocity": 1
          },
          {
            "duration": 0.02777779166666594,
            "durationTicks": 20,
            "midi": 61,
            "name": "C#4",
            "ticks": 5520,
            "time": 7.6666705,
            "velocity": 1
          },
          {
            "duration": 0.02777779166666594,
            "durationTicks": 20,
            "midi": 64,
            "name": "E4",
            "ticks": 5520,
            "time": 7.6666705,
            "velocity": 1
          },
          {
            "duration": 0.027777791666665053,
            "durationTicks": 20,
            "midi": 50,
            "name": "D3",
            "ticks": 5760,
            "time": 8.000004,
            "velocity": 1
          },
          {
            "duration": 0.027777791666665053,
            "durationTicks": 20,
            "midi": 57,
            "name": "A3",
            "ticks": 6000,
            "time": 8.3333375,
            "velocity": 1
          },
          {
            "duration": 0.027777791666665053,
            "durationTicks": 20,
            "midi": 62,
            "name": "D4",
            "ticks": 6000,
            "time": 8.3333375,
            "velocity": 1
          },
          {
            "duration": 0.027777791666665053,
            "durationTicks": 20,
            "midi": 65,
            "name": "F4",
            "ticks": 6000,
            "time": 8.3333375,
            "velocity": 1
          },
          {
            "duration": 0.027777791666665053,
            "durationTicks": 20,
            "midi": 57,
            "name": "A3",
            "ticks": 6240,
            "time": 8.666671000000001,
            "velocity": 1
          },
          {
            "duration": 0.027777791666665053,
            "durationTicks": 20,
            "midi": 62,
            "name": "D4",
            "ticks": 6240,
            "time": 8.666671000000001,
            "velocity": 1
          },
          {
            "duration": 0.027777791666665053,
            "durationTicks": 20,
            "midi": 65,
            "name": "F4",
            "ticks": 6240,
            "time": 8.666671000000001,
            "velocity": 1
          },
          {
            "duration": 0.02777779166666683,
            "durationTicks": 20,
            "midi": 57,
            "name": "A3",
            "ticks": 6480,
            "time": 9.0000045,
            "velocity": 1
          },
          {
            "duration": 0.02777779166666683,
            "durationTicks": 20,
            "midi": 62,
            "name": "D4",
            "ticks": 6480,
            "time": 9.0000045,
            "velocity": 1
          },
          {
            "duration": 0.02777779166666683,
            "durationTicks": 20,
            "midi": 65,
            "name": "F4",
            "ticks": 6480,
            "time": 9.0000045,
            "velocity": 1
          },
          {
            "duration": 0.02777779166666683,
            "durationTicks": 20,
            "midi": 50,
            "name": "D3",
            "ticks": 6720,
            "time": 9.333338,
            "velocity": 1
          },
          {
            "duration": 0.02777779166666683,
            "durationTicks": 20,
            "midi": 57,
            "name": "A3",
            "ticks": 6960,
            "time": 9.6666715,
            "velocity": 1
          },
          {
            "duration": 0.02777779166666683,
            "durationTicks": 20,
            "midi": 62,
            "name": "D4",
            "ticks": 6960,
            "time": 9.6666715,
            "velocity": 1
          },
          {
            "duration": 0.02777779166666683,
            "durationTicks": 20,
            "midi": 65,
            "name": "F4",
            "ticks": 6960,
            "time": 9.6666715,
            "velocity": 1
          },
          {
            "duration": 0.02777779166666683,
            "durationTicks": 20,
            "midi": 48,
            "name": "C3",
            "ticks": 7200,
            "time": 10.000005,
            "velocity": 1
          },
          {
            "duration": 0.02777779166666683,
            "durationTicks": 20,
            "midi": 55,
            "name": "G3",
            "ticks": 7440,
            "time": 10.3333385,
            "velocity": 1
          },
          {
            "duration": 0.02777779166666683,
            "durationTicks": 20,
            "midi": 60,
            "name": "C4",
            "ticks": 7440,
            "time": 10.3333385,
            "velocity": 1
          },
          {
            "duration": 0.02777779166666683,
            "durationTicks": 20,
            "midi": 64,
            "name": "E4",
            "ticks": 7440,
            "time": 10.3333385,
            "velocity": 1
          },
          {
            "duration": 0.02777779166666683,
            "durationTicks": 20,
            "midi": 46,
            "name": "A#2",
            "ticks": 7680,
            "time": 10.666672,
            "velocity": 1
          },
          {
            "duration": 0.02777779166666683,
            "durationTicks": 20,
            "midi": 53,
            "name": "F3",
            "ticks": 7920,
            "time": 11.0000055,
            "velocity": 1
          },
          {
            "duration": 0.02777779166666683,
            "durationTicks": 20,
            "midi": 58,
            "name": "A#3",
            "ticks": 7920,
            "time": 11.0000055,
            "velocity": 1
          },
          {
            "duration": 0.02777779166666683,
            "durationTicks": 20,
            "midi": 62,
            "name": "D4",
            "ticks": 7920,
            "time": 11.0000055,
            "velocity": 1
          },
          {
            "duration": 0.02777779166666683,
            "durationTicks": 20,
            "midi": 53,
            "name": "F3",
            "ticks": 8160,
            "time": 11.333339,
            "velocity": 1
          },
          {
            "duration": 0.02777779166666683,
            "durationTicks": 20,
            "midi": 58,
            "name": "A#3",
            "ticks": 8160,
            "time": 11.333339,
            "velocity": 1
          },
          {
            "duration": 0.02777779166666683,
            "durationTicks": 20,
            "midi": 62,
            "name": "D4",
            "ticks": 8160,
            "time": 11.333339,
            "velocity": 1
          },
          {
            "duration": 0.02777779166666683,
            "durationTicks": 20,
            "midi": 46,
            "name": "A#2",
            "ticks": 8400,
            "time": 11.6666725,
            "velocity": 1
          },
          {
            "duration": 0.02777779166666683,
            "durationTicks": 20,
            "midi": 53,
            "name": "F3",
            "ticks": 8400,
            "time": 11.6666725,
            "velocity": 1
          },
          {
            "duration": 0.02777779166666683,
            "durationTicks": 20,
            "midi": 58,
            "name": "A#3",
            "ticks": 8400,
            "time": 11.6666725,
            "velocity": 1
          },
          {
            "duration": 0.02777779166666683,
            "durationTicks": 20,
            "midi": 62,
            "name": "D4",
            "ticks": 8400,
            "time": 11.6666725,
            "velocity": 1
          },
          {
            "duration": 0.02777779166666683,
            "durationTicks": 20,
            "midi": 48,
            "name": "C3",
            "ticks": 8640,
            "time": 12.000006,
            "velocity": 1
          },
          {
            "duration": 0.02777779166666683,
            "durationTicks": 20,
            "midi": 55,
            "name": "G3",
            "ticks": 8880,
            "time": 12.333339500000001,
            "velocity": 1
          },
          {
            "duration": 0.02777779166666683,
            "durationTicks": 20,
            "midi": 60,
            "name": "C4",
            "ticks": 8880,
            "time": 12.333339500000001,
            "velocity": 1
          },
          {
            "duration": 0.02777779166666683,
            "durationTicks": 20,
            "midi": 64,
            "name": "E4",
            "ticks": 8880,
            "time": 12.333339500000001,
            "velocity": 1
          },
          {
            "duration": 0.027777791666668605,
            "durationTicks": 20,
            "midi": 55,
            "name": "G3",
            "ticks": 9120,
            "time": 12.666673,
            "velocity": 1
          },
          {
            "duration": 0.027777791666668605,
            "durationTicks": 20,
            "midi": 58,
            "name": "A#3",
            "ticks": 9120,
            "time": 12.666673,
            "velocity": 1
          },
          {
            "duration": 0.027777791666668605,
            "durationTicks": 20,
            "midi": 60,
            "name": "C4",
            "ticks": 9120,
            "time": 12.666673,
            "velocity": 1
          },
          {
            "duration": 0.027777791666668605,
            "durationTicks": 20,
            "midi": 64,
            "name": "E4",
            "ticks": 9120,
            "time": 12.666673,
            "velocity": 1
          },
          {
            "duration": 0.027777791666668605,
            "durationTicks": 20,
            "midi": 48,
            "name": "C3",
            "ticks": 9360,
            "time": 13.0000065,
            "velocity": 1
          },
          {
            "duration": 0.027777791666668605,
            "durationTicks": 20,
            "midi": 55,
            "name": "G3",
            "ticks": 9360,
            "time": 13.0000065,
            "velocity": 1
          },
          {
            "duration": 0.027777791666668605,
            "durationTicks": 20,
            "midi": 58,
            "name": "A#3",
            "ticks": 9360,
            "time": 13.0000065,
            "velocity": 1
          },
          {
            "duration": 0.027777791666668605,
            "durationTicks": 20,
            "midi": 60,
            "name": "C4",
            "ticks": 9360,
            "time": 13.0000065,
            "velocity": 1
          },
          {
            "duration": 0.027777791666668605,
            "durationTicks": 20,
            "midi": 64,
            "name": "E4",
            "ticks": 9360,
            "time": 13.0000065,
            "velocity": 1
          },
          {
            "duration": 0.027777791666668605,
            "durationTicks": 20,
            "midi": 41,
            "name": "F2",
            "ticks": 9600,
            "time": 13.33334,
            "velocity": 1
          },
          {
            "duration": 0.027777791666668605,
            "durationTicks": 20,
            "midi": 57,
            "name": "A3",
            "ticks": 9840,
            "time": 13.6666735,
            "velocity": 1
          },
          {
            "duration": 0.027777791666668605,
            "durationTicks": 20,
            "midi": 60,
            "name": "C4",
            "ticks": 9840,
            "time": 13.6666735,
            "velocity": 1
          },
          {
            "duration": 0.027777791666668605,
            "durationTicks": 20,
            "midi": 65,
            "name": "F4",
            "ticks": 9840,
            "time": 13.6666735,
            "velocity": 1
          },
          {
            "duration": 0.02777779166666683,
            "durationTicks": 20,
            "midi": 57,
            "name": "A3",
            "ticks": 10080,
            "time": 14.000007,
            "velocity": 1
          },
          {
            "duration": 0.02777779166666683,
            "durationTicks": 20,
            "midi": 60,
            "name": "C4",
            "ticks": 10080,
            "time": 14.000007,
            "velocity": 1
          },
          {
            "duration": 0.02777779166666683,
            "durationTicks": 20,
            "midi": 65,
            "name": "F4",
            "ticks": 10080,
            "time": 14.000007,
            "velocity": 1
          },
          {
            "duration": 0.02777779166666683,
            "durationTicks": 20,
            "midi": 41,
            "name": "F2",
            "ticks": 10320,
            "time": 14.3333405,
            "velocity": 1
          },
          {
            "duration": 0.02777779166666683,
            "durationTicks": 20,
            "midi": 57,
            "name": "A3",
            "ticks": 10320,
            "time": 14.3333405,
            "velocity": 1
          },
          {
            "duration": 0.02777779166666683,
            "durationTicks": 20,
            "midi": 60,
            "name": "C4",
            "ticks": 10320,
            "time": 14.3333405,
            "velocity": 1
          },
          {
            "duration": 0.02777779166666683,
            "durationTicks": 20,
            "midi": 65,
            "name": "F4",
            "ticks": 10320,
            "time": 14.3333405,
            "velocity": 1
          },
          {
            "duration": 0.02777779166666683,
            "durationTicks": 20,
            "midi": 41,
            "name": "F2",
            "ticks": 10560,
            "time": 14.666674,
            "velocity": 1
          },
          {
            "duration": 0.02777779166666683,
            "durationTicks": 20,
            "midi": 57,
            "name": "A3",
            "ticks": 10800,
            "time": 15.0000075,
            "velocity": 1
          },
          {
            "duration": 0.02777779166666683,
            "durationTicks": 20,
            "midi": 60,
            "name": "C4",
            "ticks": 10800,
            "time": 15.0000075,
            "velocity": 1
          },
          {
            "duration": 0.02777779166666683,
            "durationTicks": 20,
            "midi": 65,
            "name": "F4",
            "ticks": 10800,
            "time": 15.0000075,
            "velocity": 1
          },
          {
            "duration": 0.02777779166666683,
            "durationTicks": 20,
            "midi": 40,
            "name": "E2",
            "ticks": 11040,
            "time": 15.333341,
            "velocity": 1
          },
          {
            "duration": 0.02777779166666683,
            "durationTicks": 20,
            "midi": 57,
            "name": "A3",
            "ticks": 11280,
            "time": 15.666674500000001,
            "velocity": 1
          },
          {
            "duration": 0.02777779166666683,
            "durationTicks": 20,
            "midi": 60,
            "name": "C4",
            "ticks": 11280,
            "time": 15.666674500000001,
            "velocity": 1
          },
          {
            "duration": 0.02777779166666683,
            "durationTicks": 20,
            "midi": 64,
            "name": "E4",
            "ticks": 11280,
            "time": 15.666674500000001,
            "velocity": 1
          },
          {
            "duration": 0.027777791666665053,
            "durationTicks": 20,
            "midi": 50,
            "name": "D3",
            "ticks": 11520,
            "time": 16.000008,
            "velocity": 1
          },
          {
            "duration": 0.027777791666668605,
            "durationTicks": 20,
            "midi": 57,
            "name": "A3",
            "ticks": 11760,
            "time": 16.3333415,
            "velocity": 1
          },
          {
            "duration": 0.027777791666668605,
            "durationTicks": 20,
            "midi": 62,
            "name": "D4",
            "ticks": 11760,
            "time": 16.3333415,
            "velocity": 1
          },
          {
            "duration": 0.027777791666668605,
            "durationTicks": 20,
            "midi": 65,
            "name": "F4",
            "ticks": 11760,
            "time": 16.3333415,
            "velocity": 1
          },
          {
            "duration": 0.027777791666665053,
            "durationTicks": 20,
            "midi": 57,
            "name": "A3",
            "ticks": 12000,
            "time": 16.666675,
            "velocity": 1
          },
          {
            "duration": 0.027777791666665053,
            "durationTicks": 20,
            "midi": 62,
            "name": "D4",
            "ticks": 12000,
            "time": 16.666675,
            "velocity": 1
          },
          {
            "duration": 0.027777791666665053,
            "durationTicks": 20,
            "midi": 65,
            "name": "F4",
            "ticks": 12000,
            "time": 16.666675,
            "velocity": 1
          },
          {
            "duration": 0.027777791666668605,
            "durationTicks": 20,
            "midi": 50,
            "name": "D3",
            "ticks": 12240,
            "time": 17.0000085,
            "velocity": 1
          },
          {
            "duration": 0.027777791666668605,
            "durationTicks": 20,
            "midi": 57,
            "name": "A3",
            "ticks": 12240,
            "time": 17.0000085,
            "velocity": 1
          },
          {
            "duration": 0.027777791666668605,
            "durationTicks": 20,
            "midi": 62,
            "name": "D4",
            "ticks": 12240,
            "time": 17.0000085,
            "velocity": 1
          },
          {
            "duration": 0.027777791666668605,
            "durationTicks": 20,
            "midi": 65,
            "name": "F4",
            "ticks": 12240,
            "time": 17.0000085,
            "velocity": 1
          },
          {
            "duration": 0.027777791666665053,
            "durationTicks": 20,
            "midi": 43,
            "name": "G2",
            "ticks": 12480,
            "time": 17.333342000000002,
            "velocity": 1
          },
          {
            "duration": 0.027777791666668605,
            "durationTicks": 20,
            "midi": 59,
            "name": "B3",
            "ticks": 12720,
            "time": 17.6666755,
            "velocity": 1
          },
          {
            "duration": 0.027777791666668605,
            "durationTicks": 20,
            "midi": 62,
            "name": "D4",
            "ticks": 12720,
            "time": 17.6666755,
            "velocity": 1
          },
          {
            "duration": 0.027777791666668605,
            "durationTicks": 20,
            "midi": 59,
            "name": "B3",
            "ticks": 12960,
            "time": 18.000009,
            "velocity": 1
          },
          {
            "duration": 0.027777791666668605,
            "durationTicks": 20,
            "midi": 62,
            "name": "D4",
            "ticks": 12960,
            "time": 18.000009,
            "velocity": 1
          },
          {
            "duration": 0.027777791666668605,
            "durationTicks": 20,
            "midi": 43,
            "name": "G2",
            "ticks": 13200,
            "time": 18.3333425,
            "velocity": 1
          },
          {
            "duration": 0.027777791666668605,
            "durationTicks": 20,
            "midi": 59,
            "name": "B3",
            "ticks": 13200,
            "time": 18.3333425,
            "velocity": 1
          },
          {
            "duration": 0.027777791666668605,
            "durationTicks": 20,
            "midi": 62,
            "name": "D4",
            "ticks": 13200,
            "time": 18.3333425,
            "velocity": 1
          },
          {
            "duration": 0.027777791666668605,
            "durationTicks": 20,
            "midi": 46,
            "name": "A#2",
            "ticks": 13440,
            "time": 18.666676,
            "velocity": 1
          },
          {
            "duration": 0.027777791666668605,
            "durationTicks": 20,
            "midi": 53,
            "name": "F3",
            "ticks": 13440,
            "time": 18.666676,
            "velocity": 1
          },
          {
            "duration": 0.027777791666668605,
            "durationTicks": 20,
            "midi": 58,
            "name": "A#3",
            "ticks": 13440,
            "time": 18.666676,
            "velocity": 1
          },
          {
            "duration": 0.027777791666668605,
            "durationTicks": 20,
            "midi": 62,
            "name": "D4",
            "ticks": 13440,
            "time": 18.666676,
            "velocity": 1
          },
          {
            "duration": 0.027777791666668605,
            "durationTicks": 20,
            "midi": 41,
            "name": "F2",
            "ticks": 13920,
            "time": 19.333343,
            "velocity": 1
          },
          {
            "duration": 0.027777791666668605,
            "durationTicks": 20,
            "midi": 53,
            "name": "F3",
            "ticks": 13920,
            "time": 19.333343,
            "velocity": 1
          },
          {
            "duration": 0.027777791666668605,
            "durationTicks": 20,
            "midi": 57,
            "name": "A3",
            "ticks": 13920,
            "time": 19.333343,
            "velocity": 1
          },
          {
            "duration": 0.027777791666668605,
            "durationTicks": 20,
            "midi": 60,
            "name": "C4",
            "ticks": 13920,
            "time": 19.333343,
            "velocity": 1
          },
          {
            "duration": 0.027777791666665053,
            "durationTicks": 20,
            "midi": 41,
            "name": "F2",
            "ticks": 14160,
            "time": 19.6666765,
            "velocity": 1
          },
          {
            "duration": 0.027777791666665053,
            "durationTicks": 20,
            "midi": 53,
            "name": "F3",
            "ticks": 14160,
            "time": 19.6666765,
            "velocity": 1
          },
          {
            "duration": 0.027777791666665053,
            "durationTicks": 20,
            "midi": 57,
            "name": "A3",
            "ticks": 14160,
            "time": 19.6666765,
            "velocity": 1
          },
          {
            "duration": 0.027777791666665053,
            "durationTicks": 20,
            "midi": 60,
            "name": "C4",
            "ticks": 14160,
            "time": 19.6666765,
            "velocity": 1
          },
          {
            "duration": 0.027777791666665053,
            "durationTicks": 20,
            "midi": 41,
            "name": "F2",
            "ticks": 15360,
            "time": 21.333344,
            "velocity": 1
          },
          {
            "duration": 0.027777791666665053,
            "durationTicks": 20,
            "midi": 60,
            "name": "C4",
            "ticks": 15600,
            "time": 21.6666775,
            "velocity": 1
          },
          {
            "duration": 0.027777791666665053,
            "durationTicks": 20,
            "midi": 65,
            "name": "F4",
            "ticks": 15600,
            "time": 21.6666775,
            "velocity": 1
          },
          {
            "duration": 0.027777791666665053,
            "durationTicks": 20,
            "midi": 60,
            "name": "C4",
            "ticks": 15840,
            "time": 22.000011,
            "velocity": 1
          },
          {
            "duration": 0.027777791666665053,
            "durationTicks": 20,
            "midi": 65,
            "name": "F4",
            "ticks": 15840,
            "time": 22.000011,
            "velocity": 1
          },
          {
            "duration": 0.027777791666665053,
            "durationTicks": 20,
            "midi": 60,
            "name": "C4",
            "ticks": 16080,
            "time": 22.3333445,
            "velocity": 1
          },
          {
            "duration": 0.027777791666665053,
            "durationTicks": 20,
            "midi": 65,
            "name": "F4",
            "ticks": 16080,
            "time": 22.3333445,
            "velocity": 1
          },
          {
            "duration": 0.027777791666665053,
            "durationTicks": 20,
            "midi": 41,
            "name": "F2",
            "ticks": 16320,
            "time": 22.666678,
            "velocity": 1
          },
          {
            "duration": 0.027777791666665053,
            "durationTicks": 20,
            "midi": 60,
            "name": "C4",
            "ticks": 16560,
            "time": 23.0000115,
            "velocity": 1
          },
          {
            "duration": 0.027777791666665053,
            "durationTicks": 20,
            "midi": 65,
            "name": "F4",
            "ticks": 16560,
            "time": 23.0000115,
            "velocity": 1
          },
          {
            "duration": 0.027777791666665053,
            "durationTicks": 20,
            "midi": 60,
            "name": "C4",
            "ticks": 16800,
            "time": 23.333345,
            "velocity": 1
          },
          {
            "duration": 0.027777791666665053,
            "durationTicks": 20,
            "midi": 65,
            "name": "F4",
            "ticks": 16800,
            "time": 23.333345,
            "velocity": 1
          },
          {
            "duration": 0.027777791666665053,
            "durationTicks": 20,
            "midi": 50,
            "name": "D3",
            "ticks": 17040,
            "time": 23.6666785,
            "velocity": 1
          },
          {
            "duration": 0.027777791666665053,
            "durationTicks": 20,
            "midi": 60,
            "name": "C4",
            "ticks": 17040,
            "time": 23.6666785,
            "velocity": 1
          },
          {
            "duration": 0.027777791666665053,
            "durationTicks": 20,
            "midi": 65,
            "name": "F4",
            "ticks": 17040,
            "time": 23.6666785,
            "velocity": 1
          },
          {
            "duration": 0.027777791666665053,
            "durationTicks": 20,
            "midi": 40,
            "name": "E2",
            "ticks": 17280,
            "time": 24.000012,
            "velocity": 1
          },
          {
            "duration": 0.027777791666665053,
            "durationTicks": 20,
            "midi": 55,
            "name": "G3",
            "ticks": 17520,
            "time": 24.3333455,
            "velocity": 1
          },
          {
            "duration": 0.027777791666665053,
            "durationTicks": 20,
            "midi": 58,
            "name": "A#3",
            "ticks": 17520,
            "time": 24.3333455,
            "velocity": 1
          },
          {
            "duration": 0.027777791666665053,
            "durationTicks": 20,
            "midi": 62,
            "name": "D4",
            "ticks": 17520,
            "time": 24.3333455,
            "velocity": 1
          },
          {
            "duration": 0.027777791666665053,
            "durationTicks": 20,
            "midi": 55,
            "name": "G3",
            "ticks": 17760,
            "time": 24.666679000000002,
            "velocity": 1
          },
          {
            "duration": 0.027777791666665053,
            "durationTicks": 20,
            "midi": 58,
            "name": "A#3",
            "ticks": 17760,
            "time": 24.666679000000002,
            "velocity": 1
          },
          {
            "duration": 0.027777791666665053,
            "durationTicks": 20,
            "midi": 62,
            "name": "D4",
            "ticks": 17760,
            "time": 24.666679000000002,
            "velocity": 1
          },
          {
            "duration": 0.027777791666665053,
            "durationTicks": 20,
            "midi": 40,
            "name": "E2",
            "ticks": 18000,
            "time": 25.0000125,
            "velocity": 1
          },
          {
            "duration": 0.027777791666665053,
            "durationTicks": 20,
            "midi": 55,
            "name": "G3",
            "ticks": 18000,
            "time": 25.0000125,
            "velocity": 1
          },
          {
            "duration": 0.027777791666665053,
            "durationTicks": 20,
            "midi": 58,
            "name": "A#3",
            "ticks": 18000,
            "time": 25.0000125,
            "velocity": 1
          },
          {
            "duration": 0.027777791666665053,
            "durationTicks": 20,
            "midi": 62,
            "name": "D4",
            "ticks": 18000,
            "time": 25.0000125,
            "velocity": 1
          },
          {
            "duration": 0.027777791666665053,
            "durationTicks": 20,
            "midi": 45,
            "name": "A2",
            "ticks": 18240,
            "time": 25.333346,
            "velocity": 1
          },
          {
            "duration": 0.027777791666665053,
            "durationTicks": 20,
            "midi": 55,
            "name": "G3",
            "ticks": 18480,
            "time": 25.6666795,
            "velocity": 1
          },
          {
            "duration": 0.027777791666665053,
            "durationTicks": 20,
            "midi": 61,
            "name": "C#4",
            "ticks": 18480,
            "time": 25.6666795,
            "velocity": 1
          },
          {
            "duration": 0.027777791666665053,
            "durationTicks": 20,
            "midi": 64,
            "name": "E4",
            "ticks": 18480,
            "time": 25.6666795,
            "velocity": 1
          },
          {
            "duration": 0.027777791666665053,
            "durationTicks": 20,
            "midi": 55,
            "name": "G3",
            "ticks": 18720,
            "time": 26.000013,
            "velocity": 1
          },
          {
            "duration": 0.027777791666665053,
            "durationTicks": 20,
            "midi": 61,
            "name": "C#4",
            "ticks": 18720,
            "time": 26.000013,
            "velocity": 1
          },
          {
            "duration": 0.027777791666665053,
            "durationTicks": 20,
            "midi": 64,
            "name": "E4",
            "ticks": 18720,
            "time": 26.000013,
            "velocity": 1
          },
          {
            "duration": 0.027777791666665053,
            "durationTicks": 20,
            "midi": 45,
            "name": "A2",
            "ticks": 18960,
            "time": 26.3333465,
            "velocity": 1
          },
          {
            "duration": 0.027777791666665053,
            "durationTicks": 20,
            "midi": 55,
            "name": "G3",
            "ticks": 18960,
            "time": 26.3333465,
            "velocity": 1
          },
          {
            "duration": 0.027777791666665053,
            "durationTicks": 20,
            "midi": 61,
            "name": "C#4",
            "ticks": 18960,
            "time": 26.3333465,
            "velocity": 1
          },
          {
            "duration": 0.027777791666665053,
            "durationTicks": 20,
            "midi": 64,
            "name": "E4",
            "ticks": 18960,
            "time": 26.3333465,
            "velocity": 1
          },
          {
            "duration": 0.027777791666665053,
            "durationTicks": 20,
            "midi": 50,
            "name": "D3",
            "ticks": 19200,
            "time": 26.66668,
            "velocity": 1
          },
          {
            "duration": 0.027777791666665053,
            "durationTicks": 20,
            "midi": 57,
            "name": "A3",
            "ticks": 19440,
            "time": 27.0000135,
            "velocity": 1
          },
          {
            "duration": 0.027777791666665053,
            "durationTicks": 20,
            "midi": 62,
            "name": "D4",
            "ticks": 19440,
            "time": 27.0000135,
            "velocity": 1
          },
          {
            "duration": 0.027777791666665053,
            "durationTicks": 20,
            "midi": 65,
            "name": "F4",
            "ticks": 19440,
            "time": 27.0000135,
            "velocity": 1
          },
          {
            "duration": 0.027777791666665053,
            "durationTicks": 20,
            "midi": 57,
            "name": "A3",
            "ticks": 19680,
            "time": 27.333347,
            "velocity": 1
          },
          {
            "duration": 0.027777791666665053,
            "durationTicks": 20,
            "midi": 62,
            "name": "D4",
            "ticks": 19680,
            "time": 27.333347,
            "velocity": 1
          },
          {
            "duration": 0.027777791666665053,
            "durationTicks": 20,
            "midi": 65,
            "name": "F4",
            "ticks": 19680,
            "time": 27.333347,
            "velocity": 1
          },
          {
            "duration": 0.027777791666665053,
            "durationTicks": 20,
            "midi": 50,
            "name": "D3",
            "ticks": 19920,
            "time": 27.666680500000002,
            "velocity": 1
          },
          {
            "duration": 0.027777791666665053,
            "durationTicks": 20,
            "midi": 57,
            "name": "A3",
            "ticks": 19920,
            "time": 27.666680500000002,
            "velocity": 1
          },
          {
            "duration": 0.027777791666665053,
            "durationTicks": 20,
            "midi": 62,
            "name": "D4",
            "ticks": 19920,
            "time": 27.666680500000002,
            "velocity": 1
          },
          {
            "duration": 0.027777791666665053,
            "durationTicks": 20,
            "midi": 65,
            "name": "F4",
            "ticks": 19920,
            "time": 27.666680500000002,
            "velocity": 1
          },
          {
            "duration": 0.027777791666665053,
            "durationTicks": 20,
            "midi": 50,
            "name": "D3",
            "ticks": 20160,
            "time": 28.000014,
            "velocity": 1
          },
          {
            "duration": 0.027777791666665053,
            "durationTicks": 20,
            "midi": 57,
            "name": "A3",
            "ticks": 20400,
            "time": 28.333347500000002,
            "velocity": 1
          },
          {
            "duration": 0.027777791666665053,
            "durationTicks": 20,
            "midi": 62,
            "name": "D4",
            "ticks": 20400,
            "time": 28.333347500000002,
            "velocity": 1
          },
          {
            "duration": 0.027777791666665053,
            "durationTicks": 20,
            "midi": 65,
            "name": "F4",
            "ticks": 20400,
            "time": 28.333347500000002,
            "velocity": 1
          },
          {
            "duration": 0.027777791666665053,
            "durationTicks": 20,
            "midi": 48,
            "name": "C3",
            "ticks": 20640,
            "time": 28.666681,
            "velocity": 1
          },
          {
            "duration": 0.027777791666665053,
            "durationTicks": 20,
            "midi": 55,
            "name": "G3",
            "ticks": 20880,
            "time": 29.0000145,
            "velocity": 1
          },
          {
            "duration": 0.027777791666665053,
            "durationTicks": 20,
            "midi": 60,
            "name": "C4",
            "ticks": 20880,
            "time": 29.0000145,
            "velocity": 1
          },
          {
            "duration": 0.027777791666665053,
            "durationTicks": 20,
            "midi": 64,
            "name": "E4",
            "ticks": 20880,
            "time": 29.0000145,
            "velocity": 1
          },
          {
            "duration": 0.027777791666665053,
            "durationTicks": 20,
            "midi": 46,
            "name": "A#2",
            "ticks": 21120,
            "time": 29.333348,
            "velocity": 1
          },
          {
            "duration": 0.027777791666665053,
            "durationTicks": 20,
            "midi": 53,
            "name": "F3",
            "ticks": 21360,
            "time": 29.6666815,
            "velocity": 1
          },
          {
            "duration": 0.027777791666665053,
            "durationTicks": 20,
            "midi": 58,
            "name": "A#3",
            "ticks": 21360,
            "time": 29.6666815,
            "velocity": 1
          },
          {
            "duration": 0.027777791666665053,
            "durationTicks": 20,
            "midi": 62,
            "name": "D4",
            "ticks": 21360,
            "time": 29.6666815,
            "velocity": 1
          },
          {
            "duration": 0.027777791666665053,
            "durationTicks": 20,
            "midi": 53,
            "name": "F3",
            "ticks": 21600,
            "time": 30.000015,
            "velocity": 1
          },
          {
            "duration": 0.027777791666665053,
            "durationTicks": 20,
            "midi": 58,
            "name": "A#3",
            "ticks": 21600,
            "time": 30.000015,
            "velocity": 1
          },
          {
            "duration": 0.027777791666665053,
            "durationTicks": 20,
            "midi": 62,
            "name": "D4",
            "ticks": 21600,
            "time": 30.000015,
            "velocity": 1
          },
          {
            "duration": 0.027777791666665053,
            "durationTicks": 20,
            "midi": 46,
            "name": "A#2",
            "ticks": 21840,
            "time": 30.3333485,
            "velocity": 1
          },
          {
            "duration": 0.027777791666665053,
            "durationTicks": 20,
            "midi": 53,
            "name": "F3",
            "ticks": 21840,
            "time": 30.3333485,
            "velocity": 1
          },
          {
            "duration": 0.027777791666665053,
            "durationTicks": 20,
            "midi": 58,
            "name": "A#3",
            "ticks": 21840,
            "time": 30.3333485,
            "velocity": 1
          },
          {
            "duration": 0.027777791666665053,
            "durationTicks": 20,
            "midi": 62,
            "name": "D4",
            "ticks": 21840,
            "time": 30.3333485,
            "velocity": 1
          },
          {
            "duration": 0.027777791666665053,
            "durationTicks": 20,
            "midi": 48,
            "name": "C3",
            "ticks": 22080,
            "time": 30.666682,
            "velocity": 1
          },
          {
            "duration": 0.027777791666665053,
            "durationTicks": 20,
            "midi": 53,
            "name": "F3",
            "ticks": 22320,
            "time": 31.0000155,
            "velocity": 1
          },
          {
            "duration": 0.027777791666665053,
            "durationTicks": 20,
            "midi": 58,
            "name": "A#3",
            "ticks": 22320,
            "time": 31.0000155,
            "velocity": 1
          },
          {
            "duration": 0.027777791666665053,
            "durationTicks": 20,
            "midi": 60,
            "name": "C4",
            "ticks": 22320,
            "time": 31.0000155,
            "velocity": 1
          },
          {
            "duration": 0.027777791666665053,
            "durationTicks": 20,
            "midi": 64,
            "name": "E4",
            "ticks": 22320,
            "time": 31.0000155,
            "velocity": 1
          },
          {
            "duration": 0.027777791666665053,
            "durationTicks": 20,
            "midi": 58,
            "name": "A#3",
            "ticks": 22560,
            "time": 31.333349000000002,
            "velocity": 1
          },
          {
            "duration": 0.027777791666665053,
            "durationTicks": 20,
            "midi": 60,
            "name": "C4",
            "ticks": 22560,
            "time": 31.333349000000002,
            "velocity": 1
          },
          {
            "duration": 0.027777791666665053,
            "durationTicks": 20,
            "midi": 64,
            "name": "E4",
            "ticks": 22560,
            "time": 31.333349000000002,
            "velocity": 1
          },
          {
            "duration": 0.027777791666665053,
            "durationTicks": 20,
            "midi": 48,
            "name": "C3",
            "ticks": 22800,
            "time": 31.6666825,
            "velocity": 1
          },
          {
            "duration": 0.027777791666665053,
            "durationTicks": 20,
            "midi": 58,
            "name": "A#3",
            "ticks": 22800,
            "time": 31.6666825,
            "velocity": 1
          },
          {
            "duration": 0.027777791666665053,
            "durationTicks": 20,
            "midi": 60,
            "name": "C4",
            "ticks": 22800,
            "time": 31.6666825,
            "velocity": 1
          },
          {
            "duration": 0.027777791666665053,
            "durationTicks": 20,
            "midi": 64,
            "name": "E4",
            "ticks": 22800,
            "time": 31.6666825,
            "velocity": 1
          },
          {
            "duration": 0.027777791666665053,
            "durationTicks": 20,
            "midi": 41,
            "name": "F2",
            "ticks": 23040,
            "time": 32.000016,
            "velocity": 1
          },
          {
            "duration": 0.027777791666665053,
            "durationTicks": 20,
            "midi": 57,
            "name": "A3",
            "ticks": 23280,
            "time": 32.3333495,
            "velocity": 1
          },
          {
            "duration": 0.027777791666665053,
            "durationTicks": 20,
            "midi": 60,
            "name": "C4",
            "ticks": 23280,
            "time": 32.3333495,
            "velocity": 1
          },
          {
            "duration": 0.027777791666665053,
            "durationTicks": 20,
            "midi": 65,
            "name": "F4",
            "ticks": 23280,
            "time": 32.3333495,
            "velocity": 1
          },
          {
            "duration": 0.027777791666665053,
            "durationTicks": 20,
            "midi": 57,
            "name": "A3",
            "ticks": 23520,
            "time": 32.666683,
            "velocity": 1
          },
          {
            "duration": 0.027777791666665053,
            "durationTicks": 20,
            "midi": 60,
            "name": "C4",
            "ticks": 23520,
            "time": 32.666683,
            "velocity": 1
          },
          {
            "duration": 0.027777791666665053,
            "durationTicks": 20,
            "midi": 65,
            "name": "F4",
            "ticks": 23520,
            "time": 32.666683,
            "velocity": 1
          },
          {
            "duration": 0.027777791666665053,
            "durationTicks": 20,
            "midi": 41,
            "name": "F2",
            "ticks": 23760,
            "time": 33.0000165,
            "velocity": 1
          },
          {
            "duration": 0.027777791666665053,
            "durationTicks": 20,
            "midi": 57,
            "name": "A3",
            "ticks": 23760,
            "time": 33.0000165,
            "velocity": 1
          },
          {
            "duration": 0.027777791666665053,
            "durationTicks": 20,
            "midi": 60,
            "name": "C4",
            "ticks": 23760,
            "time": 33.0000165,
            "velocity": 1
          },
          {
            "duration": 0.027777791666665053,
            "durationTicks": 20,
            "midi": 65,
            "name": "F4",
            "ticks": 23760,
            "time": 33.0000165,
            "velocity": 1
          },
          {
            "duration": 0.027777791666665053,
            "durationTicks": 20,
            "midi": 41,
            "name": "F2",
            "ticks": 24000,
            "time": 33.33335,
            "velocity": 1
          },
          {
            "duration": 0.027777791666665053,
            "durationTicks": 20,
            "midi": 57,
            "name": "A3",
            "ticks": 24240,
            "time": 33.6666835,
            "velocity": 1
          },
          {
            "duration": 0.027777791666665053,
            "durationTicks": 20,
            "midi": 60,
            "name": "C4",
            "ticks": 24240,
            "time": 33.6666835,
            "velocity": 1
          },
          {
            "duration": 0.027777791666665053,
            "durationTicks": 20,
            "midi": 65,
            "name": "F4",
            "ticks": 24240,
            "time": 33.6666835,
            "velocity": 1
          },
          {
            "duration": 0.027777791666665053,
            "durationTicks": 20,
            "midi": 40,
            "name": "E2",
            "ticks": 24480,
            "time": 34.000017,
            "velocity": 1
          },
          {
            "duration": 0.027777791666665053,
            "durationTicks": 20,
            "midi": 57,
            "name": "A3",
            "ticks": 24720,
            "time": 34.3333505,
            "velocity": 1
          },
          {
            "duration": 0.027777791666665053,
            "durationTicks": 20,
            "midi": 60,
            "name": "C4",
            "ticks": 24720,
            "time": 34.3333505,
            "velocity": 1
          },
          {
            "duration": 0.027777791666665053,
            "durationTicks": 20,
            "midi": 64,
            "name": "E4",
            "ticks": 24720,
            "time": 34.3333505,
            "velocity": 1
          },
          {
            "duration": 0.027777791666665053,
            "durationTicks": 20,
            "midi": 50,
            "name": "D3",
            "ticks": 24960,
            "time": 34.666684000000004,
            "velocity": 1
          },
          {
            "duration": 0.027777791666665053,
            "durationTicks": 20,
            "midi": 57,
            "name": "A3",
            "ticks": 25200,
            "time": 35.0000175,
            "velocity": 1
          },
          {
            "duration": 0.027777791666665053,
            "durationTicks": 20,
            "midi": 62,
            "name": "D4",
            "ticks": 25200,
            "time": 35.0000175,
            "velocity": 1
          },
          {
            "duration": 0.027777791666665053,
            "durationTicks": 20,
            "midi": 65,
            "name": "F4",
            "ticks": 25200,
            "time": 35.0000175,
            "velocity": 1
          },
          {
            "duration": 0.027777791666665053,
            "durationTicks": 20,
            "midi": 57,
            "name": "A3",
            "ticks": 25440,
            "time": 35.333351,
            "velocity": 1
          },
          {
            "duration": 0.027777791666665053,
            "durationTicks": 20,
            "midi": 62,
            "name": "D4",
            "ticks": 25440,
            "time": 35.333351,
            "velocity": 1
          },
          {
            "duration": 0.027777791666665053,
            "durationTicks": 20,
            "midi": 65,
            "name": "F4",
            "ticks": 25440,
            "time": 35.333351,
            "velocity": 1
          },
          {
            "duration": 0.027777791666665053,
            "durationTicks": 20,
            "midi": 50,
            "name": "D3",
            "ticks": 25680,
            "time": 35.6666845,
            "velocity": 1
          },
          {
            "duration": 0.027777791666665053,
            "durationTicks": 20,
            "midi": 57,
            "name": "A3",
            "ticks": 25680,
            "time": 35.6666845,
            "velocity": 1
          },
          {
            "duration": 0.027777791666665053,
            "durationTicks": 20,
            "midi": 62,
            "name": "D4",
            "ticks": 25680,
            "time": 35.6666845,
            "velocity": 1
          },
          {
            "duration": 0.027777791666665053,
            "durationTicks": 20,
            "midi": 65,
            "name": "F4",
            "ticks": 25680,
            "time": 35.6666845,
            "velocity": 1
          },
          {
            "duration": 0.027777791666665053,
            "durationTicks": 20,
            "midi": 43,
            "name": "G2",
            "ticks": 25920,
            "time": 36.000018,
            "velocity": 1
          },
          {
            "duration": 0.027777791666665053,
            "durationTicks": 20,
            "midi": 59,
            "name": "B3",
            "ticks": 26160,
            "time": 36.3333515,
            "velocity": 1
          },
          {
            "duration": 0.027777791666665053,
            "durationTicks": 20,
            "midi": 62,
            "name": "D4",
            "ticks": 26160,
            "time": 36.3333515,
            "velocity": 1
          },
          {
            "duration": 0.027777791666665053,
            "durationTicks": 20,
            "midi": 67,
            "name": "G4",
            "ticks": 26160,
            "time": 36.3333515,
            "velocity": 1
          },
          {
            "duration": 0.027777791666665053,
            "durationTicks": 20,
            "midi": 59,
            "name": "B3",
            "ticks": 26400,
            "time": 36.666685,
            "velocity": 1
          },
          {
            "duration": 0.027777791666665053,
            "durationTicks": 20,
            "midi": 62,
            "name": "D4",
            "ticks": 26400,
            "time": 36.666685,
            "velocity": 1
          },
          {
            "duration": 0.027777791666665053,
            "durationTicks": 20,
            "midi": 67,
            "name": "G4",
            "ticks": 26400,
            "time": 36.666685,
            "velocity": 1
          },
          {
            "duration": 0.027777791666665053,
            "durationTicks": 20,
            "midi": 43,
            "name": "G2",
            "ticks": 26640,
            "time": 37.0000185,
            "velocity": 1
          },
          {
            "duration": 0.027777791666665053,
            "durationTicks": 20,
            "midi": 59,
            "name": "B3",
            "ticks": 26640,
            "time": 37.0000185,
            "velocity": 1
          },
          {
            "duration": 0.027777791666665053,
            "durationTicks": 20,
            "midi": 62,
            "name": "D4",
            "ticks": 26640,
            "time": 37.0000185,
            "velocity": 1
          },
          {
            "duration": 0.027777791666665053,
            "durationTicks": 20,
            "midi": 67,
            "name": "G4",
            "ticks": 26640,
            "time": 37.0000185,
            "velocity": 1
          },
          {
            "duration": 0.027777791666665053,
            "durationTicks": 20,
            "midi": 46,
            "name": "A#2",
            "ticks": 26880,
            "time": 37.333352,
            "velocity": 1
          },
          {
            "duration": 0.027777791666665053,
            "durationTicks": 20,
            "midi": 53,
            "name": "F3",
            "ticks": 26880,
            "time": 37.333352,
            "velocity": 1
          },
          {
            "duration": 0.027777791666665053,
            "durationTicks": 20,
            "midi": 58,
            "name": "A#3",
            "ticks": 26880,
            "time": 37.333352,
            "velocity": 1
          },
          {
            "duration": 0.027777791666665053,
            "durationTicks": 20,
            "midi": 62,
            "name": "D4",
            "ticks": 26880,
            "time": 37.333352,
            "velocity": 1
          },
          {
            "duration": 0.027777791666665053,
            "durationTicks": 20,
            "midi": 41,
            "name": "F2",
            "ticks": 27360,
            "time": 38.000019,
            "velocity": 1
          },
          {
            "duration": 0.027777791666665053,
            "durationTicks": 20,
            "midi": 53,
            "name": "F3",
            "ticks": 27360,
            "time": 38.000019,
            "velocity": 1
          },
          {
            "duration": 0.027777791666665053,
            "durationTicks": 20,
            "midi": 57,
            "name": "A3",
            "ticks": 27360,
            "time": 38.000019,
            "velocity": 1
          },
          {
            "duration": 0.027777791666665053,
            "durationTicks": 20,
            "midi": 60,
            "name": "C4",
            "ticks": 27360,
            "time": 38.000019,
            "velocity": 1
          },
          {
            "duration": 0.5833336249999945,
            "durationTicks": 420,
            "midi": 41,
            "name": "F2",
            "ticks": 27600,
            "time": 38.333352500000004,
            "velocity": 1
          },
          {
            "duration": 0.5833336249999945,
            "durationTicks": 420,
            "midi": 53,
            "name": "F3",
            "ticks": 27600,
            "time": 38.333352500000004,
            "velocity": 1
          },
          {
            "duration": 0.5833336249999945,
            "durationTicks": 420,
            "midi": 57,
            "name": "A3",
            "ticks": 27600,
            "time": 38.333352500000004,
            "velocity": 1
          },
          {
            "duration": 0.5833336249999945,
            "durationTicks": 420,
            "midi": 60,
            "name": "C4",
            "ticks": 27600,
            "time": 38.333352500000004,
            "velocity": 1
          },
          {
            "duration": 0.027777791666665053,
            "durationTicks": 20,
            "midi": 40,
            "name": "E2",
            "ticks": 28800,
            "time": 40.00002,
            "velocity": 1
          },
          {
            "duration": 0.027777791666665053,
            "durationTicks": 20,
            "midi": 55,
            "name": "G3",
            "ticks": 29040,
            "time": 40.3333535,
            "velocity": 1
          },
          {
            "duration": 0.027777791666665053,
            "durationTicks": 20,
            "midi": 59,
            "name": "B3",
            "ticks": 29040,
            "time": 40.3333535,
            "velocity": 1
          },
          {
            "duration": 0.027777791666665053,
            "durationTicks": 20,
            "midi": 62,
            "name": "D4",
            "ticks": 29040,
            "time": 40.3333535,
            "velocity": 1
          },
          {
            "duration": 0.027777791666665053,
            "durationTicks": 20,
            "midi": 55,
            "name": "G3",
            "ticks": 29280,
            "time": 40.666687,
            "velocity": 1
          },
          {
            "duration": 0.027777791666665053,
            "durationTicks": 20,
            "midi": 59,
            "name": "B3",
            "ticks": 29280,
            "time": 40.666687,
            "velocity": 1
          },
          {
            "duration": 0.027777791666665053,
            "durationTicks": 20,
            "midi": 62,
            "name": "D4",
            "ticks": 29280,
            "time": 40.666687,
            "velocity": 1
          },
          {
            "duration": 0.027777791666665053,
            "durationTicks": 20,
            "midi": 40,
            "name": "E2",
            "ticks": 29520,
            "time": 41.0000205,
            "velocity": 1
          },
          {
            "duration": 0.027777791666665053,
            "durationTicks": 20,
            "midi": 55,
            "name": "G3",
            "ticks": 29520,
            "time": 41.0000205,
            "velocity": 1
          },
          {
            "duration": 0.027777791666665053,
            "durationTicks": 20,
            "midi": 59,
            "name": "B3",
            "ticks": 29520,
            "time": 41.0000205,
            "velocity": 1
          },
          {
            "duration": 0.027777791666665053,
            "durationTicks": 20,
            "midi": 62,
            "name": "D4",
            "ticks": 29520,
            "time": 41.0000205,
            "velocity": 1
          },
          {
            "duration": 0.027777791666665053,
            "durationTicks": 20,
            "midi": 45,
            "name": "A2",
            "ticks": 29760,
            "time": 41.333354,
            "velocity": 1
          },
          {
            "duration": 0.027777791666665053,
            "durationTicks": 20,
            "midi": 55,
            "name": "G3",
            "ticks": 30000,
            "time": 41.6666875,
            "velocity": 1
          },
          {
            "duration": 0.027777791666665053,
            "durationTicks": 20,
            "midi": 61,
            "name": "C#4",
            "ticks": 30000,
            "time": 41.6666875,
            "velocity": 1
          },
          {
            "duration": 0.027777791666665053,
            "durationTicks": 20,
            "midi": 64,
            "name": "E4",
            "ticks": 30000,
            "time": 41.6666875,
            "velocity": 1
          },
          {
            "duration": 0.027777791666665053,
            "durationTicks": 20,
            "midi": 55,
            "name": "G3",
            "ticks": 30240,
            "time": 42.000021000000004,
            "velocity": 1
          },
          {
            "duration": 0.027777791666665053,
            "durationTicks": 20,
            "midi": 61,
            "name": "C#4",
            "ticks": 30240,
            "time": 42.000021000000004,
            "velocity": 1
          },
          {
            "duration": 0.027777791666665053,
            "durationTicks": 20,
            "midi": 64,
            "name": "E4",
            "ticks": 30240,
            "time": 42.000021000000004,
            "velocity": 1
          },
          {
            "duration": 0.027777791666665053,
            "durationTicks": 20,
            "midi": 45,
            "name": "A2",
            "ticks": 30480,
            "time": 42.3333545,
            "velocity": 1
          },
          {
            "duration": 0.027777791666665053,
            "durationTicks": 20,
            "midi": 55,
            "name": "G3",
            "ticks": 30480,
            "time": 42.3333545,
            "velocity": 1
          },
          {
            "duration": 0.027777791666665053,
            "durationTicks": 20,
            "midi": 61,
            "name": "C#4",
            "ticks": 30480,
            "time": 42.3333545,
            "velocity": 1
          },
          {
            "duration": 0.027777791666665053,
            "durationTicks": 20,
            "midi": 64,
            "name": "E4",
            "ticks": 30480,
            "time": 42.3333545,
            "velocity": 1
          },
          {
            "duration": 0.027777791666672158,
            "durationTicks": 20,
            "midi": 50,
            "name": "D3",
            "ticks": 30720,
            "time": 42.666688,
            "velocity": 1
          },
          {
            "duration": 0.027777791666672158,
            "durationTicks": 20,
            "midi": 57,
            "name": "A3",
            "ticks": 30720,
            "time": 42.666688,
            "velocity": 1
          },
          {
            "duration": 0.027777791666672158,
            "durationTicks": 20,
            "midi": 62,
            "name": "D4",
            "ticks": 30720,
            "time": 42.666688,
            "velocity": 1
          },
          {
            "duration": 0.027777791666672158,
            "durationTicks": 20,
            "midi": 65,
            "name": "F4",
            "ticks": 30720,
            "time": 42.666688,
            "velocity": 1
          },
          {
            "duration": 0.027777791666672158,
            "durationTicks": 20,
            "midi": 48,
            "name": "C3",
            "ticks": 31200,
            "time": 43.333355,
            "velocity": 1
          },
          {
            "duration": 0.027777791666672158,
            "durationTicks": 20,
            "midi": 55,
            "name": "G3",
            "ticks": 31200,
            "time": 43.333355,
            "velocity": 1
          },
          {
            "duration": 0.027777791666672158,
            "durationTicks": 20,
            "midi": 60,
            "name": "C4",
            "ticks": 31200,
            "time": 43.333355,
            "velocity": 1
          },
          {
            "duration": 0.027777791666672158,
            "durationTicks": 20,
            "midi": 64,
            "name": "E4",
            "ticks": 31200,
            "time": 43.333355,
            "velocity": 1
          },
          {
            "duration": 0.027777791666672158,
            "durationTicks": 20,
            "midi": 46,
            "name": "A#2",
            "ticks": 31680,
            "time": 44.000022,
            "velocity": 1
          },
          {
            "duration": 0.027777791666672158,
            "durationTicks": 20,
            "midi": 53,
            "name": "F3",
            "ticks": 31680,
            "time": 44.000022,
            "velocity": 1
          },
          {
            "duration": 0.027777791666672158,
            "durationTicks": 20,
            "midi": 58,
            "name": "A#3",
            "ticks": 31680,
            "time": 44.000022,
            "velocity": 1
          },
          {
            "duration": 0.027777791666672158,
            "durationTicks": 20,
            "midi": 62,
            "name": "D4",
            "ticks": 31680,
            "time": 44.000022,
            "velocity": 1
          },
          {
            "duration": 0.027777791666672158,
            "durationTicks": 20,
            "midi": 45,
            "name": "A2",
            "ticks": 32160,
            "time": 44.666689,
            "velocity": 1
          },
          {
            "duration": 0.027777791666672158,
            "durationTicks": 20,
            "midi": 53,
            "name": "F3",
            "ticks": 32160,
            "time": 44.666689,
            "velocity": 1
          },
          {
            "duration": 0.027777791666672158,
            "durationTicks": 20,
            "midi": 57,
            "name": "A3",
            "ticks": 32160,
            "time": 44.666689,
            "velocity": 1
          },
          {
            "duration": 0.027777791666672158,
            "durationTicks": 20,
            "midi": 60,
            "name": "C4",
            "ticks": 32160,
            "time": 44.666689,
            "velocity": 1
          },
          {
            "duration": 0.027777791666665053,
            "durationTicks": 20,
            "midi": 43,
            "name": "G2",
            "ticks": 32640,
            "time": 45.333356,
            "velocity": 1
          },
          {
            "duration": 0.027777791666665053,
            "durationTicks": 20,
            "midi": 55,
            "name": "G3",
            "ticks": 32880,
            "time": 45.666689500000004,
            "velocity": 1
          },
          {
            "duration": 0.027777791666665053,
            "durationTicks": 20,
            "midi": 58,
            "name": "A#3",
            "ticks": 32880,
            "time": 45.666689500000004,
            "velocity": 1
          },
          {
            "duration": 0.027777791666665053,
            "durationTicks": 20,
            "midi": 62,
            "name": "D4",
            "ticks": 32880,
            "time": 45.666689500000004,
            "velocity": 1
          },
          {
            "duration": 0.027777791666672158,
            "durationTicks": 20,
            "midi": 55,
            "name": "G3",
            "ticks": 33120,
            "time": 46.000023,
            "velocity": 1
          },
          {
            "duration": 0.027777791666672158,
            "durationTicks": 20,
            "midi": 58,
            "name": "A#3",
            "ticks": 33120,
            "time": 46.000023,
            "velocity": 1
          },
          {
            "duration": 0.027777791666672158,
            "durationTicks": 20,
            "midi": 62,
            "name": "D4",
            "ticks": 33120,
            "time": 46.000023,
            "velocity": 1
          },
          {
            "duration": 0.027777791666672158,
            "durationTicks": 20,
            "midi": 43,
            "name": "G2",
            "ticks": 33360,
            "time": 46.3333565,
            "velocity": 1
          },
          {
            "duration": 0.027777791666672158,
            "durationTicks": 20,
            "midi": 55,
            "name": "G3",
            "ticks": 33360,
            "time": 46.3333565,
            "velocity": 1
          },
          {
            "duration": 0.027777791666672158,
            "durationTicks": 20,
            "midi": 58,
            "name": "A#3",
            "ticks": 33360,
            "time": 46.3333565,
            "velocity": 1
          },
          {
            "duration": 0.027777791666672158,
            "durationTicks": 20,
            "midi": 62,
            "name": "D4",
            "ticks": 33360,
            "time": 46.3333565,
            "velocity": 1
          },
          {
            "duration": 0.027777791666665053,
            "durationTicks": 20,
            "midi": 48,
            "name": "C3",
            "ticks": 33600,
            "time": 46.66669,
            "velocity": 1
          },
          {
            "duration": 0.027777791666672158,
            "durationTicks": 20,
            "midi": 55,
            "name": "G3",
            "ticks": 33840,
            "time": 47.0000235,
            "velocity": 1
          },
          {
            "duration": 0.027777791666672158,
            "durationTicks": 20,
            "midi": 58,
            "name": "A#3",
            "ticks": 33840,
            "time": 47.0000235,
            "velocity": 1
          },
          {
            "duration": 0.027777791666672158,
            "durationTicks": 20,
            "midi": 60,
            "name": "C4",
            "ticks": 33840,
            "time": 47.0000235,
            "velocity": 1
          },
          {
            "duration": 0.027777791666672158,
            "durationTicks": 20,
            "midi": 64,
            "name": "E4",
            "ticks": 33840,
            "time": 47.0000235,
            "velocity": 1
          },
          {
            "duration": 0.027777791666672158,
            "durationTicks": 20,
            "midi": 55,
            "name": "G3",
            "ticks": 34080,
            "time": 47.333357,
            "velocity": 1
          },
          {
            "duration": 0.027777791666672158,
            "durationTicks": 20,
            "midi": 58,
            "name": "A#3",
            "ticks": 34080,
            "time": 47.333357,
            "velocity": 1
          },
          {
            "duration": 0.027777791666672158,
            "durationTicks": 20,
            "midi": 60,
            "name": "C4",
            "ticks": 34080,
            "time": 47.333357,
            "velocity": 1
          },
          {
            "duration": 0.027777791666672158,
            "durationTicks": 20,
            "midi": 64,
            "name": "E4",
            "ticks": 34080,
            "time": 47.333357,
            "velocity": 1
          },
          {
            "duration": 0.027777791666672158,
            "durationTicks": 20,
            "midi": 48,
            "name": "C3",
            "ticks": 34320,
            "time": 47.6666905,
            "velocity": 1
          },
          {
            "duration": 0.027777791666672158,
            "durationTicks": 20,
            "midi": 55,
            "name": "G3",
            "ticks": 34320,
            "time": 47.6666905,
            "velocity": 1
          },
          {
            "duration": 0.027777791666672158,
            "durationTicks": 20,
            "midi": 58,
            "name": "A#3",
            "ticks": 34320,
            "time": 47.6666905,
            "velocity": 1
          },
          {
            "duration": 0.027777791666672158,
            "durationTicks": 20,
            "midi": 60,
            "name": "C4",
            "ticks": 34320,
            "time": 47.6666905,
            "velocity": 1
          },
          {
            "duration": 0.027777791666672158,
            "durationTicks": 20,
            "midi": 64,
            "name": "E4",
            "ticks": 34320,
            "time": 47.6666905,
            "velocity": 1
          },
          {
            "duration": 0.027777791666665053,
            "durationTicks": 20,
            "midi": 41,
            "name": "F2",
            "ticks": 34560,
            "time": 48.000024,
            "velocity": 1
          },
          {
            "duration": 0.027777791666672158,
            "durationTicks": 20,
            "midi": 57,
            "name": "A3",
            "ticks": 34800,
            "time": 48.3333575,
            "velocity": 1
          },
          {
            "duration": 0.027777791666672158,
            "durationTicks": 20,
            "midi": 60,
            "name": "C4",
            "ticks": 34800,
            "time": 48.3333575,
            "velocity": 1
          },
          {
            "duration": 0.027777791666672158,
            "durationTicks": 20,
            "midi": 65,
            "name": "F4",
            "ticks": 34800,
            "time": 48.3333575,
            "velocity": 1
          },
          {
            "duration": 0.027777791666672158,
            "durationTicks": 20,
            "midi": 57,
            "name": "A3",
            "ticks": 35040,
            "time": 48.666691,
            "velocity": 1
          },
          {
            "duration": 0.027777791666672158,
            "durationTicks": 20,
            "midi": 60,
            "name": "C4",
            "ticks": 35040,
            "time": 48.666691,
            "velocity": 1
          },
          {
            "duration": 0.027777791666672158,
            "durationTicks": 20,
            "midi": 65,
            "name": "F4",
            "ticks": 35040,
            "time": 48.666691,
            "velocity": 1
          },
          {
            "duration": 0.027777791666665053,
            "durationTicks": 20,
            "midi": 41,
            "name": "F2",
            "ticks": 35280,
            "time": 49.0000245,
            "velocity": 1
          },
          {
            "duration": 0.027777791666665053,
            "durationTicks": 20,
            "midi": 57,
            "name": "A3",
            "ticks": 35280,
            "time": 49.0000245,
            "velocity": 1
          },
          {
            "duration": 0.027777791666665053,
            "durationTicks": 20,
            "midi": 60,
            "name": "C4",
            "ticks": 35280,
            "time": 49.0000245,
            "velocity": 1
          },
          {
            "duration": 0.027777791666665053,
            "durationTicks": 20,
            "midi": 65,
            "name": "F4",
            "ticks": 35280,
            "time": 49.0000245,
            "velocity": 1
          },
          {
            "duration": 0.027777791666665053,
            "durationTicks": 20,
            "midi": 41,
            "name": "F2",
            "ticks": 35520,
            "time": 49.333358000000004,
            "velocity": 1
          },
          {
            "duration": 0.027777791666672158,
            "durationTicks": 20,
            "midi": 57,
            "name": "A3",
            "ticks": 35760,
            "time": 49.6666915,
            "velocity": 1
          },
          {
            "duration": 0.027777791666672158,
            "durationTicks": 20,
            "midi": 60,
            "name": "C4",
            "ticks": 35760,
            "time": 49.6666915,
            "velocity": 1
          },
          {
            "duration": 0.027777791666672158,
            "durationTicks": 20,
            "midi": 65,
            "name": "F4",
            "ticks": 35760,
            "time": 49.6666915,
            "velocity": 1
          },
          {
            "duration": 0.027777791666672158,
            "durationTicks": 20,
            "midi": 57,
            "name": "A3",
            "ticks": 36000,
            "time": 50.000025,
            "velocity": 1
          },
          {
            "duration": 0.027777791666672158,
            "durationTicks": 20,
            "midi": 60,
            "name": "C4",
            "ticks": 36000,
            "time": 50.000025,
            "velocity": 1
          },
          {
            "duration": 0.027777791666672158,
            "durationTicks": 20,
            "midi": 65,
            "name": "F4",
            "ticks": 36000,
            "time": 50.000025,
            "velocity": 1
          },
          {
            "duration": 0.027777791666665053,
            "durationTicks": 20,
            "midi": 41,
            "name": "F2",
            "ticks": 36240,
            "time": 50.3333585,
            "velocity": 1
          },
          {
            "duration": 0.027777791666665053,
            "durationTicks": 20,
            "midi": 57,
            "name": "A3",
            "ticks": 36240,
            "time": 50.3333585,
            "velocity": 1
          },
          {
            "duration": 0.027777791666665053,
            "durationTicks": 20,
            "midi": 60,
            "name": "C4",
            "ticks": 36240,
            "time": 50.3333585,
            "velocity": 1
          },
          {
            "duration": 0.027777791666665053,
            "durationTicks": 20,
            "midi": 65,
            "name": "F4",
            "ticks": 36240,
            "time": 50.3333585,
            "velocity": 1
          },
          {
            "duration": 0.027777791666672158,
            "durationTicks": 20,
            "midi": 40,
            "name": "E2",
            "ticks": 36480,
            "time": 50.666692,
            "velocity": 1
          },
          {
            "duration": 0.027777791666672158,
            "durationTicks": 20,
            "midi": 55,
            "name": "G3",
            "ticks": 36720,
            "time": 51.0000255,
            "velocity": 1
          },
          {
            "duration": 0.027777791666672158,
            "durationTicks": 20,
            "midi": 59,
            "name": "B3",
            "ticks": 36720,
            "time": 51.0000255,
            "velocity": 1
          },
          {
            "duration": 0.027777791666672158,
            "durationTicks": 20,
            "midi": 62,
            "name": "D4",
            "ticks": 36720,
            "time": 51.0000255,
            "velocity": 1
          },
          {
            "duration": 0.027777791666672158,
            "durationTicks": 20,
            "midi": 55,
            "name": "G3",
            "ticks": 36960,
            "time": 51.333359,
            "velocity": 1
          },
          {
            "duration": 0.027777791666672158,
            "durationTicks": 20,
            "midi": 59,
            "name": "B3",
            "ticks": 36960,
            "time": 51.333359,
            "velocity": 1
          },
          {
            "duration": 0.027777791666672158,
            "durationTicks": 20,
            "midi": 62,
            "name": "D4",
            "ticks": 36960,
            "time": 51.333359,
            "velocity": 1
          },
          {
            "duration": 0.027777791666665053,
            "durationTicks": 20,
            "midi": 40,
            "name": "E2",
            "ticks": 37200,
            "time": 51.6666925,
            "velocity": 1
          },
          {
            "duration": 0.027777791666665053,
            "durationTicks": 20,
            "midi": 55,
            "name": "G3",
            "ticks": 37200,
            "time": 51.6666925,
            "velocity": 1
          },
          {
            "duration": 0.027777791666665053,
            "durationTicks": 20,
            "midi": 59,
            "name": "B3",
            "ticks": 37200,
            "time": 51.6666925,
            "velocity": 1
          },
          {
            "duration": 0.027777791666665053,
            "durationTicks": 20,
            "midi": 62,
            "name": "D4",
            "ticks": 37200,
            "time": 51.6666925,
            "velocity": 1
          },
          {
            "duration": 0.027777791666672158,
            "durationTicks": 20,
            "midi": 45,
            "name": "A2",
            "ticks": 37440,
            "time": 52.000026,
            "velocity": 1
          },
          {
            "duration": 0.027777791666672158,
            "durationTicks": 20,
            "midi": 55,
            "name": "G3",
            "ticks": 37680,
            "time": 52.3333595,
            "velocity": 1
          },
          {
            "duration": 0.027777791666672158,
            "durationTicks": 20,
            "midi": 61,
            "name": "C#4",
            "ticks": 37680,
            "time": 52.3333595,
            "velocity": 1
          },
          {
            "duration": 0.027777791666672158,
            "durationTicks": 20,
            "midi": 64,
            "name": "E4",
            "ticks": 37680,
            "time": 52.3333595,
            "velocity": 1
          },
          {
            "duration": 0.027777791666665053,
            "durationTicks": 20,
            "midi": 55,
            "name": "G3",
            "ticks": 37920,
            "time": 52.666693,
            "velocity": 1
          },
          {
            "duration": 0.027777791666665053,
            "durationTicks": 20,
            "midi": 61,
            "name": "C#4",
            "ticks": 37920,
            "time": 52.666693,
            "velocity": 1
          },
          {
            "duration": 0.027777791666665053,
            "durationTicks": 20,
            "midi": 64,
            "name": "E4",
            "ticks": 37920,
            "time": 52.666693,
            "velocity": 1
          },
          {
            "duration": 0.027777791666665053,
            "durationTicks": 20,
            "midi": 45,
            "name": "A2",
            "ticks": 38160,
            "time": 53.000026500000004,
            "velocity": 1
          },
          {
            "duration": 0.027777791666665053,
            "durationTicks": 20,
            "midi": 55,
            "name": "G3",
            "ticks": 38160,
            "time": 53.000026500000004,
            "velocity": 1
          },
          {
            "duration": 0.027777791666665053,
            "durationTicks": 20,
            "midi": 61,
            "name": "C#4",
            "ticks": 38160,
            "time": 53.000026500000004,
            "velocity": 1
          },
          {
            "duration": 0.027777791666665053,
            "durationTicks": 20,
            "midi": 64,
            "name": "E4",
            "ticks": 38160,
            "time": 53.000026500000004,
            "velocity": 1
          },
          {
            "duration": 0.027777791666672158,
            "durationTicks": 20,
            "midi": 50,
            "name": "D3",
            "ticks": 38400,
            "time": 53.33336,
            "velocity": 1
          },
          {
            "duration": 0.027777791666672158,
            "durationTicks": 20,
            "midi": 57,
            "name": "A3",
            "ticks": 38400,
            "time": 53.33336,
            "velocity": 1
          },
          {
            "duration": 0.027777791666672158,
            "durationTicks": 20,
            "midi": 62,
            "name": "D4",
            "ticks": 38400,
            "time": 53.33336,
            "velocity": 1
          },
          {
            "duration": 0.027777791666672158,
            "durationTicks": 20,
            "midi": 65,
            "name": "F4",
            "ticks": 38400,
            "time": 53.33336,
            "velocity": 1
          },
          {
            "duration": 0.027777791666665053,
            "durationTicks": 20,
            "midi": 48,
            "name": "C3",
            "ticks": 38880,
            "time": 54.000027,
            "velocity": 1
          },
          {
            "duration": 0.027777791666665053,
            "durationTicks": 20,
            "midi": 55,
            "name": "G3",
            "ticks": 38880,
            "time": 54.000027,
            "velocity": 1
          },
          {
            "duration": 0.027777791666665053,
            "durationTicks": 20,
            "midi": 60,
            "name": "C4",
            "ticks": 38880,
            "time": 54.000027,
            "velocity": 1
          },
          {
            "duration": 0.027777791666665053,
            "durationTicks": 20,
            "midi": 64,
            "name": "E4",
            "ticks": 38880,
            "time": 54.000027,
            "velocity": 1
          },
          {
            "duration": 0.027777791666672158,
            "durationTicks": 20,
            "midi": 46,
            "name": "A#2",
            "ticks": 39360,
            "time": 54.666694,
            "velocity": 1
          },
          {
            "duration": 0.027777791666672158,
            "durationTicks": 20,
            "midi": 53,
            "name": "F3",
            "ticks": 39360,
            "time": 54.666694,
            "velocity": 1
          },
          {
            "duration": 0.027777791666672158,
            "durationTicks": 20,
            "midi": 58,
            "name": "A#3",
            "ticks": 39360,
            "time": 54.666694,
            "velocity": 1
          },
          {
            "duration": 0.027777791666672158,
            "durationTicks": 20,
            "midi": 62,
            "name": "D4",
            "ticks": 39360,
            "time": 54.666694,
            "velocity": 1
          },
          {
            "duration": 0.027777791666665053,
            "durationTicks": 20,
            "midi": 45,
            "name": "A2",
            "ticks": 39840,
            "time": 55.333361000000004,
            "velocity": 1
          },
          {
            "duration": 0.027777791666665053,
            "durationTicks": 20,
            "midi": 53,
            "name": "F3",
            "ticks": 39840,
            "time": 55.333361000000004,
            "velocity": 1
          },
          {
            "duration": 0.027777791666665053,
            "durationTicks": 20,
            "midi": 57,
            "name": "A3",
            "ticks": 39840,
            "time": 55.333361000000004,
            "velocity": 1
          },
          {
            "duration": 0.027777791666665053,
            "durationTicks": 20,
            "midi": 60,
            "name": "C4",
            "ticks": 39840,
            "time": 55.333361000000004,
            "velocity": 1
          },
          {
            "duration": 0.027777791666672158,
            "durationTicks": 20,
            "midi": 43,
            "name": "G2",
            "ticks": 40320,
            "time": 56.000028,
            "velocity": 1
          },
          {
            "duration": 0.027777791666665053,
            "durationTicks": 20,
            "midi": 55,
            "name": "G3",
            "ticks": 40560,
            "time": 56.3333615,
            "velocity": 1
          },
          {
            "duration": 0.027777791666665053,
            "durationTicks": 20,
            "midi": 58,
            "name": "A#3",
            "ticks": 40560,
            "time": 56.3333615,
            "velocity": 1
          },
          {
            "duration": 0.027777791666665053,
            "durationTicks": 20,
            "midi": 62,
            "name": "D4",
            "ticks": 40560,
            "time": 56.3333615,
            "velocity": 1
          },
          {
            "duration": 0.027777791666665053,
            "durationTicks": 20,
            "midi": 55,
            "name": "G3",
            "ticks": 40800,
            "time": 56.666695000000004,
            "velocity": 1
          },
          {
            "duration": 0.027777791666665053,
            "durationTicks": 20,
            "midi": 58,
            "name": "A#3",
            "ticks": 40800,
            "time": 56.666695000000004,
            "velocity": 1
          },
          {
            "duration": 0.027777791666665053,
            "durationTicks": 20,
            "midi": 62,
            "name": "D4",
            "ticks": 40800,
            "time": 56.666695000000004,
            "velocity": 1
          },
          {
            "duration": 0.027777791666672158,
            "durationTicks": 20,
            "midi": 43,
            "name": "G2",
            "ticks": 41040,
            "time": 57.0000285,
            "velocity": 1
          },
          {
            "duration": 0.027777791666672158,
            "durationTicks": 20,
            "midi": 55,
            "name": "G3",
            "ticks": 41040,
            "time": 57.0000285,
            "velocity": 1
          },
          {
            "duration": 0.027777791666672158,
            "durationTicks": 20,
            "midi": 58,
            "name": "A#3",
            "ticks": 41040,
            "time": 57.0000285,
            "velocity": 1
          },
          {
            "duration": 0.027777791666672158,
            "durationTicks": 20,
            "midi": 62,
            "name": "D4",
            "ticks": 41040,
            "time": 57.0000285,
            "velocity": 1
          },
          {
            "duration": 0.027777791666672158,
            "durationTicks": 20,
            "midi": 48,
            "name": "C3",
            "ticks": 41280,
            "time": 57.333362,
            "velocity": 1
          },
          {
            "duration": 0.027777791666665053,
            "durationTicks": 20,
            "midi": 55,
            "name": "G3",
            "ticks": 41520,
            "time": 57.6666955,
            "velocity": 1
          },
          {
            "duration": 0.027777791666665053,
            "durationTicks": 20,
            "midi": 58,
            "name": "A#3",
            "ticks": 41520,
            "time": 57.6666955,
            "velocity": 1
          },
          {
            "duration": 0.027777791666665053,
            "durationTicks": 20,
            "midi": 60,
            "name": "C4",
            "ticks": 41520,
            "time": 57.6666955,
            "velocity": 1
          },
          {
            "duration": 0.027777791666665053,
            "durationTicks": 20,
            "midi": 64,
            "name": "E4",
            "ticks": 41520,
            "time": 57.6666955,
            "velocity": 1
          },
          {
            "duration": 0.027777791666672158,
            "durationTicks": 20,
            "midi": 55,
            "name": "G3",
            "ticks": 41760,
            "time": 58.000029,
            "velocity": 1
          },
          {
            "duration": 0.027777791666672158,
            "durationTicks": 20,
            "midi": 58,
            "name": "A#3",
            "ticks": 41760,
            "time": 58.000029,
            "velocity": 1
          },
          {
            "duration": 0.027777791666672158,
            "durationTicks": 20,
            "midi": 60,
            "name": "C4",
            "ticks": 41760,
            "time": 58.000029,
            "velocity": 1
          },
          {
            "duration": 0.027777791666672158,
            "durationTicks": 20,
            "midi": 64,
            "name": "E4",
            "ticks": 41760,
            "time": 58.000029,
            "velocity": 1
          },
          {
            "duration": 0.027777791666672158,
            "durationTicks": 20,
            "midi": 48,
            "name": "C3",
            "ticks": 42000,
            "time": 58.3333625,
            "velocity": 1
          },
          {
            "duration": 0.027777791666672158,
            "durationTicks": 20,
            "midi": 55,
            "name": "G3",
            "ticks": 42000,
            "time": 58.3333625,
            "velocity": 1
          },
          {
            "duration": 0.027777791666672158,
            "durationTicks": 20,
            "midi": 58,
            "name": "A#3",
            "ticks": 42000,
            "time": 58.3333625,
            "velocity": 1
          },
          {
            "duration": 0.027777791666672158,
            "durationTicks": 20,
            "midi": 60,
            "name": "C4",
            "ticks": 42000,
            "time": 58.3333625,
            "velocity": 1
          },
          {
            "duration": 0.027777791666672158,
            "durationTicks": 20,
            "midi": 64,
            "name": "E4",
            "ticks": 42000,
            "time": 58.3333625,
            "velocity": 1
          },
          {
            "duration": 0.027777791666672158,
            "durationTicks": 20,
            "midi": 41,
            "name": "F2",
            "ticks": 42240,
            "time": 58.666696,
            "velocity": 1
          },
          {
            "duration": 0.08333337500000226,
            "durationTicks": 60,
            "midi": 57,
            "name": "A3",
            "ticks": 42240,
            "time": 58.666696,
            "velocity": 1
          },
          {
            "duration": 0.08333337500000226,
            "durationTicks": 60,
            "midi": 60,
            "name": "C4",
            "ticks": 42240,
            "time": 58.666696,
            "velocity": 1
          },
          {
            "duration": 0.08333337500000226,
            "durationTicks": 60,
            "midi": 65,
            "name": "F4",
            "ticks": 42240,
            "time": 58.666696,
            "velocity": 1
          },
          {
            "duration": 0.027777791666665053,
            "durationTicks": 20,
            "midi": 41,
            "name": "F2",
            "ticks": 44160,
            "time": 61.333364,
            "velocity": 1
          },
          {
            "duration": 0.027777791666672158,
            "durationTicks": 20,
            "midi": 60,
            "name": "C4",
            "ticks": 44400,
            "time": 61.6666975,
            "velocity": 1
          },
          {
            "duration": 0.027777791666672158,
            "durationTicks": 20,
            "midi": 65,
            "name": "F4",
            "ticks": 44400,
            "time": 61.6666975,
            "velocity": 1
          },
          {
            "duration": 0.027777791666672158,
            "durationTicks": 20,
            "midi": 60,
            "name": "C4",
            "ticks": 44640,
            "time": 62.000031,
            "velocity": 1
          },
          {
            "duration": 0.027777791666672158,
            "durationTicks": 20,
            "midi": 65,
            "name": "F4",
            "ticks": 44640,
            "time": 62.000031,
            "velocity": 1
          },
          {
            "duration": 0.027777791666672158,
            "durationTicks": 20,
            "midi": 60,
            "name": "C4",
            "ticks": 44880,
            "time": 62.3333645,
            "velocity": 1
          },
          {
            "duration": 0.027777791666672158,
            "durationTicks": 20,
            "midi": 65,
            "name": "F4",
            "ticks": 44880,
            "time": 62.3333645,
            "velocity": 1
          },
          {
            "duration": 0.027777791666665053,
            "durationTicks": 20,
            "midi": 41,
            "name": "F2",
            "ticks": 45120,
            "time": 62.666698000000004,
            "velocity": 1
          },
          {
            "duration": 0.027777791666672158,
            "durationTicks": 20,
            "midi": 60,
            "name": "C4",
            "ticks": 45360,
            "time": 63.0000315,
            "velocity": 1
          },
          {
            "duration": 0.027777791666672158,
            "durationTicks": 20,
            "midi": 65,
            "name": "F4",
            "ticks": 45360,
            "time": 63.0000315,
            "velocity": 1
          },
          {
            "duration": 0.027777791666672158,
            "durationTicks": 20,
            "midi": 60,
            "name": "C4",
            "ticks": 45600,
            "time": 63.333365,
            "velocity": 1
          },
          {
            "duration": 0.027777791666672158,
            "durationTicks": 20,
            "midi": 65,
            "name": "F4",
            "ticks": 45600,
            "time": 63.333365,
            "velocity": 1
          },
          {
            "duration": 0.027777791666665053,
            "durationTicks": 20,
            "midi": 50,
            "name": "D3",
            "ticks": 45840,
            "time": 63.6666985,
            "velocity": 1
          },
          {
            "duration": 0.027777791666665053,
            "durationTicks": 20,
            "midi": 60,
            "name": "C4",
            "ticks": 45840,
            "time": 63.6666985,
            "velocity": 1
          },
          {
            "duration": 0.027777791666665053,
            "durationTicks": 20,
            "midi": 65,
            "name": "F4",
            "ticks": 45840,
            "time": 63.6666985,
            "velocity": 1
          },
          {
            "duration": 0.027777791666665053,
            "durationTicks": 20,
            "midi": 40,
            "name": "E2",
            "ticks": 46080,
            "time": 64.000032,
            "velocity": 1
          },
          {
            "duration": 0.027777791666665053,
            "durationTicks": 20,
            "midi": 55,
            "name": "G3",
            "ticks": 46320,
            "time": 64.3333655,
            "velocity": 1
          },
          {
            "duration": 0.027777791666665053,
            "durationTicks": 20,
            "midi": 58,
            "name": "A#3",
            "ticks": 46320,
            "time": 64.3333655,
            "velocity": 1
          },
          {
            "duration": 0.027777791666665053,
            "durationTicks": 20,
            "midi": 62,
            "name": "D4",
            "ticks": 46320,
            "time": 64.3333655,
            "velocity": 1
          },
          {
            "duration": 0.027777791666679263,
            "durationTicks": 20,
            "midi": 55,
            "name": "G3",
            "ticks": 46560,
            "time": 64.666699,
            "velocity": 1
          },
          {
            "duration": 0.027777791666679263,
            "durationTicks": 20,
            "midi": 58,
            "name": "A#3",
            "ticks": 46560,
            "time": 64.666699,
            "velocity": 1
          },
          {
            "duration": 0.027777791666679263,
            "durationTicks": 20,
            "midi": 62,
            "name": "D4",
            "ticks": 46560,
            "time": 64.666699,
            "velocity": 1
          },
          {
            "duration": 0.027777791666665053,
            "durationTicks": 20,
            "midi": 40,
            "name": "E2",
            "ticks": 46800,
            "time": 65.0000325,
            "velocity": 1
          },
          {
            "duration": 0.027777791666665053,
            "durationTicks": 20,
            "midi": 55,
            "name": "G3",
            "ticks": 46800,
            "time": 65.0000325,
            "velocity": 1
          },
          {
            "duration": 0.027777791666665053,
            "durationTicks": 20,
            "midi": 58,
            "name": "A#3",
            "ticks": 46800,
            "time": 65.0000325,
            "velocity": 1
          },
          {
            "duration": 0.027777791666665053,
            "durationTicks": 20,
            "midi": 62,
            "name": "D4",
            "ticks": 46800,
            "time": 65.0000325,
            "velocity": 1
          },
          {
            "duration": 0.027777791666679263,
            "durationTicks": 20,
            "midi": 45,
            "name": "A2",
            "ticks": 47040,
            "time": 65.333366,
            "velocity": 1
          },
          {
            "duration": 0.027777791666665053,
            "durationTicks": 20,
            "midi": 55,
            "name": "G3",
            "ticks": 47280,
            "time": 65.66669950000001,
            "velocity": 1
          },
          {
            "duration": 0.027777791666665053,
            "durationTicks": 20,
            "midi": 61,
            "name": "C#4",
            "ticks": 47280,
            "time": 65.66669950000001,
            "velocity": 1
          },
          {
            "duration": 0.027777791666665053,
            "durationTicks": 20,
            "midi": 64,
            "name": "E4",
            "ticks": 47280,
            "time": 65.66669950000001,
            "velocity": 1
          },
          {
            "duration": 0.027777791666665053,
            "durationTicks": 20,
            "midi": 55,
            "name": "G3",
            "ticks": 47520,
            "time": 66.000033,
            "velocity": 1
          },
          {
            "duration": 0.027777791666665053,
            "durationTicks": 20,
            "midi": 61,
            "name": "C#4",
            "ticks": 47520,
            "time": 66.000033,
            "velocity": 1
          },
          {
            "duration": 0.027777791666665053,
            "durationTicks": 20,
            "midi": 64,
            "name": "E4",
            "ticks": 47520,
            "time": 66.000033,
            "velocity": 1
          },
          {
            "duration": 0.027777791666679263,
            "durationTicks": 20,
            "midi": 45,
            "name": "A2",
            "ticks": 47760,
            "time": 66.3333665,
            "velocity": 1
          },
          {
            "duration": 0.027777791666679263,
            "durationTicks": 20,
            "midi": 55,
            "name": "G3",
            "ticks": 47760,
            "time": 66.3333665,
            "velocity": 1
          },
          {
            "duration": 0.027777791666679263,
            "durationTicks": 20,
            "midi": 61,
            "name": "C#4",
            "ticks": 47760,
            "time": 66.3333665,
            "velocity": 1
          },
          {
            "duration": 0.027777791666679263,
            "durationTicks": 20,
            "midi": 64,
            "name": "E4",
            "ticks": 47760,
            "time": 66.3333665,
            "velocity": 1
          },
          {
            "duration": 0.027777791666665053,
            "durationTicks": 20,
            "midi": 50,
            "name": "D3",
            "ticks": 48000,
            "time": 66.6667,
            "velocity": 1
          },
          {
            "duration": 0.027777791666665053,
            "durationTicks": 20,
            "midi": 57,
            "name": "A3",
            "ticks": 48240,
            "time": 67.0000335,
            "velocity": 1
          },
          {
            "duration": 0.027777791666665053,
            "durationTicks": 20,
            "midi": 62,
            "name": "D4",
            "ticks": 48240,
            "time": 67.0000335,
            "velocity": 1
          },
          {
            "duration": 0.027777791666665053,
            "durationTicks": 20,
            "midi": 65,
            "name": "F4",
            "ticks": 48240,
            "time": 67.0000335,
            "velocity": 1
          },
          {
            "duration": 0.027777791666679263,
            "durationTicks": 20,
            "midi": 57,
            "name": "A3",
            "ticks": 48480,
            "time": 67.333367,
            "velocity": 1
          },
          {
            "duration": 0.027777791666679263,
            "durationTicks": 20,
            "midi": 62,
            "name": "D4",
            "ticks": 48480,
            "time": 67.333367,
            "velocity": 1
          },
          {
            "duration": 0.027777791666679263,
            "durationTicks": 20,
            "midi": 65,
            "name": "F4",
            "ticks": 48480,
            "time": 67.333367,
            "velocity": 1
          },
          {
            "duration": 0.027777791666665053,
            "durationTicks": 20,
            "midi": 50,
            "name": "D3",
            "ticks": 48720,
            "time": 67.6667005,
            "velocity": 1
          },
          {
            "duration": 0.027777791666665053,
            "durationTicks": 20,
            "midi": 57,
            "name": "A3",
            "ticks": 48720,
            "time": 67.6667005,
            "velocity": 1
          },
          {
            "duration": 0.027777791666665053,
            "durationTicks": 20,
            "midi": 62,
            "name": "D4",
            "ticks": 48720,
            "time": 67.6667005,
            "velocity": 1
          },
          {
            "duration": 0.027777791666665053,
            "durationTicks": 20,
            "midi": 65,
            "name": "F4",
            "ticks": 48720,
            "time": 67.6667005,
            "velocity": 1
          },
          {
            "duration": 0.027777791666665053,
            "durationTicks": 20,
            "midi": 50,
            "name": "D3",
            "ticks": 48960,
            "time": 68.000034,
            "velocity": 1
          },
          {
            "duration": 0.027777791666679263,
            "durationTicks": 20,
            "midi": 57,
            "name": "A3",
            "ticks": 49200,
            "time": 68.3333675,
            "velocity": 1
          },
          {
            "duration": 0.027777791666679263,
            "durationTicks": 20,
            "midi": 62,
            "name": "D4",
            "ticks": 49200,
            "time": 68.3333675,
            "velocity": 1
          },
          {
            "duration": 0.027777791666679263,
            "durationTicks": 20,
            "midi": 65,
            "name": "F4",
            "ticks": 49200,
            "time": 68.3333675,
            "velocity": 1
          },
          {
            "duration": 0.027777791666665053,
            "durationTicks": 20,
            "midi": 48,
            "name": "C3",
            "ticks": 49440,
            "time": 68.666701,
            "velocity": 1
          },
          {
            "duration": 0.027777791666679263,
            "durationTicks": 20,
            "midi": 55,
            "name": "G3",
            "ticks": 49680,
            "time": 69.0000345,
            "velocity": 1
          },
          {
            "duration": 0.027777791666679263,
            "durationTicks": 20,
            "midi": 60,
            "name": "C4",
            "ticks": 49680,
            "time": 69.0000345,
            "velocity": 1
          },
          {
            "duration": 0.027777791666679263,
            "durationTicks": 20,
            "midi": 64,
            "name": "E4",
            "ticks": 49680,
            "time": 69.0000345,
            "velocity": 1
          },
          {
            "duration": 0.027777791666665053,
            "durationTicks": 20,
            "midi": 46,
            "name": "A#2",
            "ticks": 49920,
            "time": 69.33336800000001,
            "velocity": 1
          },
          {
            "duration": 0.027777791666665053,
            "durationTicks": 20,
            "midi": 53,
            "name": "F3",
            "ticks": 50160,
            "time": 69.6667015,
            "velocity": 1
          },
          {
            "duration": 0.027777791666665053,
            "durationTicks": 20,
            "midi": 58,
            "name": "A#3",
            "ticks": 50160,
            "time": 69.6667015,
            "velocity": 1
          },
          {
            "duration": 0.027777791666665053,
            "durationTicks": 20,
            "midi": 62,
            "name": "D4",
            "ticks": 50160,
            "time": 69.6667015,
            "velocity": 1
          },
          {
            "duration": 0.027777791666679263,
            "durationTicks": 20,
            "midi": 53,
            "name": "F3",
            "ticks": 50400,
            "time": 70.000035,
            "velocity": 1
          },
          {
            "duration": 0.027777791666679263,
            "durationTicks": 20,
            "midi": 58,
            "name": "A#3",
            "ticks": 50400,
            "time": 70.000035,
            "velocity": 1
          },
          {
            "duration": 0.027777791666679263,
            "durationTicks": 20,
            "midi": 62,
            "name": "D4",
            "ticks": 50400,
            "time": 70.000035,
            "velocity": 1
          },
          {
            "duration": 0.027777791666665053,
            "durationTicks": 20,
            "midi": 46,
            "name": "A#2",
            "ticks": 50640,
            "time": 70.3333685,
            "velocity": 1
          },
          {
            "duration": 0.027777791666665053,
            "durationTicks": 20,
            "midi": 53,
            "name": "F3",
            "ticks": 50640,
            "time": 70.3333685,
            "velocity": 1
          },
          {
            "duration": 0.027777791666665053,
            "durationTicks": 20,
            "midi": 58,
            "name": "A#3",
            "ticks": 50640,
            "time": 70.3333685,
            "velocity": 1
          },
          {
            "duration": 0.027777791666665053,
            "durationTicks": 20,
            "midi": 62,
            "name": "D4",
            "ticks": 50640,
            "time": 70.3333685,
            "velocity": 1
          },
          {
            "duration": 0.027777791666665053,
            "durationTicks": 20,
            "midi": 48,
            "name": "C3",
            "ticks": 50880,
            "time": 70.666702,
            "velocity": 1
          },
          {
            "duration": 0.027777791666679263,
            "durationTicks": 20,
            "midi": 55,
            "name": "G3",
            "ticks": 51120,
            "time": 71.0000355,
            "velocity": 1
          },
          {
            "duration": 0.027777791666679263,
            "durationTicks": 20,
            "midi": 60,
            "name": "C4",
            "ticks": 51120,
            "time": 71.0000355,
            "velocity": 1
          },
          {
            "duration": 0.027777791666679263,
            "durationTicks": 20,
            "midi": 64,
            "name": "E4",
            "ticks": 51120,
            "time": 71.0000355,
            "velocity": 1
          },
          {
            "duration": 0.027777791666665053,
            "durationTicks": 20,
            "midi": 55,
            "name": "G3",
            "ticks": 51360,
            "time": 71.333369,
            "velocity": 1
          },
          {
            "duration": 0.027777791666665053,
            "durationTicks": 20,
            "midi": 60,
            "name": "C4",
            "ticks": 51360,
            "time": 71.333369,
            "velocity": 1
          },
          {
            "duration": 0.027777791666665053,
            "durationTicks": 20,
            "midi": 64,
            "name": "E4",
            "ticks": 51360,
            "time": 71.333369,
            "velocity": 1
          },
          {
            "duration": 0.027777791666665053,
            "durationTicks": 20,
            "midi": 48,
            "name": "C3",
            "ticks": 51600,
            "time": 71.6667025,
            "velocity": 1
          },
          {
            "duration": 0.027777791666665053,
            "durationTicks": 20,
            "midi": 55,
            "name": "G3",
            "ticks": 51600,
            "time": 71.6667025,
            "velocity": 1
          },
          {
            "duration": 0.027777791666665053,
            "durationTicks": 20,
            "midi": 60,
            "name": "C4",
            "ticks": 51600,
            "time": 71.6667025,
            "velocity": 1
          },
          {
            "duration": 0.027777791666665053,
            "durationTicks": 20,
            "midi": 64,
            "name": "E4",
            "ticks": 51600,
            "time": 71.6667025,
            "velocity": 1
          },
          {
            "duration": 0.027777791666679263,
            "durationTicks": 20,
            "midi": 41,
            "name": "F2",
            "ticks": 51840,
            "time": 72.000036,
            "velocity": 1
          },
          {
            "duration": 0.027777791666665053,
            "durationTicks": 20,
            "midi": 57,
            "name": "A3",
            "ticks": 52080,
            "time": 72.3333695,
            "velocity": 1
          },
          {
            "duration": 0.027777791666665053,
            "durationTicks": 20,
            "midi": 60,
            "name": "C4",
            "ticks": 52080,
            "time": 72.3333695,
            "velocity": 1
          },
          {
            "duration": 0.027777791666665053,
            "durationTicks": 20,
            "midi": 65,
            "name": "F4",
            "ticks": 52080,
            "time": 72.3333695,
            "velocity": 1
          },
          {
            "duration": 0.027777791666679263,
            "durationTicks": 20,
            "midi": 57,
            "name": "A3",
            "ticks": 52320,
            "time": 72.666703,
            "velocity": 1
          },
          {
            "duration": 0.027777791666679263,
            "durationTicks": 20,
            "midi": 60,
            "name": "C4",
            "ticks": 52320,
            "time": 72.666703,
            "velocity": 1
          },
          {
            "duration": 0.027777791666679263,
            "durationTicks": 20,
            "midi": 65,
            "name": "F4",
            "ticks": 52320,
            "time": 72.666703,
            "velocity": 1
          },
          {
            "duration": 0.027777791666665053,
            "durationTicks": 20,
            "midi": 41,
            "name": "F2",
            "ticks": 52560,
            "time": 73.00003650000001,
            "velocity": 1
          },
          {
            "duration": 0.027777791666665053,
            "durationTicks": 20,
            "midi": 57,
            "name": "A3",
            "ticks": 52560,
            "time": 73.00003650000001,
            "velocity": 1
          },
          {
            "duration": 0.027777791666665053,
            "durationTicks": 20,
            "midi": 60,
            "name": "C4",
            "ticks": 52560,
            "time": 73.00003650000001,
            "velocity": 1
          },
          {
            "duration": 0.027777791666665053,
            "durationTicks": 20,
            "midi": 65,
            "name": "F4",
            "ticks": 52560,
            "time": 73.00003650000001,
            "velocity": 1
          },
          {
            "duration": 0.027777791666665053,
            "durationTicks": 20,
            "midi": 41,
            "name": "F2",
            "ticks": 52800,
            "time": 73.33337,
            "velocity": 1
          },
          {
            "duration": 0.027777791666679263,
            "durationTicks": 20,
            "midi": 57,
            "name": "A3",
            "ticks": 53040,
            "time": 73.6667035,
            "velocity": 1
          },
          {
            "duration": 0.027777791666679263,
            "durationTicks": 20,
            "midi": 60,
            "name": "C4",
            "ticks": 53040,
            "time": 73.6667035,
            "velocity": 1
          },
          {
            "duration": 0.027777791666679263,
            "durationTicks": 20,
            "midi": 65,
            "name": "F4",
            "ticks": 53040,
            "time": 73.6667035,
            "velocity": 1
          },
          {
            "duration": 0.027777791666665053,
            "durationTicks": 20,
            "midi": 40,
            "name": "E2",
            "ticks": 53280,
            "time": 74.000037,
            "velocity": 1
          },
          {
            "duration": 0.027777791666665053,
            "durationTicks": 20,
            "midi": 57,
            "name": "A3",
            "ticks": 53520,
            "time": 74.3333705,
            "velocity": 1
          },
          {
            "duration": 0.027777791666665053,
            "durationTicks": 20,
            "midi": 60,
            "name": "C4",
            "ticks": 53520,
            "time": 74.3333705,
            "velocity": 1
          },
          {
            "duration": 0.027777791666665053,
            "durationTicks": 20,
            "midi": 64,
            "name": "E4",
            "ticks": 53520,
            "time": 74.3333705,
            "velocity": 1
          },
          {
            "duration": 0.027777791666679263,
            "durationTicks": 20,
            "midi": 50,
            "name": "D3",
            "ticks": 53760,
            "time": 74.666704,
            "velocity": 1
          },
          {
            "duration": 0.027777791666665053,
            "durationTicks": 20,
            "midi": 57,
            "name": "A3",
            "ticks": 54000,
            "time": 75.0000375,
            "velocity": 1
          },
          {
            "duration": 0.027777791666665053,
            "durationTicks": 20,
            "midi": 62,
            "name": "D4",
            "ticks": 54000,
            "time": 75.0000375,
            "velocity": 1
          },
          {
            "duration": 0.027777791666665053,
            "durationTicks": 20,
            "midi": 65,
            "name": "F4",
            "ticks": 54000,
            "time": 75.0000375,
            "velocity": 1
          },
          {
            "duration": 0.027777791666665053,
            "durationTicks": 20,
            "midi": 57,
            "name": "A3",
            "ticks": 54240,
            "time": 75.333371,
            "velocity": 1
          },
          {
            "duration": 0.027777791666665053,
            "durationTicks": 20,
            "midi": 62,
            "name": "D4",
            "ticks": 54240,
            "time": 75.333371,
            "velocity": 1
          },
          {
            "duration": 0.027777791666665053,
            "durationTicks": 20,
            "midi": 65,
            "name": "F4",
            "ticks": 54240,
            "time": 75.333371,
            "velocity": 1
          },
          {
            "duration": 0.027777791666679263,
            "durationTicks": 20,
            "midi": 50,
            "name": "D3",
            "ticks": 54480,
            "time": 75.6667045,
            "velocity": 1
          },
          {
            "duration": 0.027777791666679263,
            "durationTicks": 20,
            "midi": 57,
            "name": "A3",
            "ticks": 54480,
            "time": 75.6667045,
            "velocity": 1
          },
          {
            "duration": 0.027777791666679263,
            "durationTicks": 20,
            "midi": 62,
            "name": "D4",
            "ticks": 54480,
            "time": 75.6667045,
            "velocity": 1
          },
          {
            "duration": 0.027777791666679263,
            "durationTicks": 20,
            "midi": 65,
            "name": "F4",
            "ticks": 54480,
            "time": 75.6667045,
            "velocity": 1
          },
          {
            "duration": 0.027777791666665053,
            "durationTicks": 20,
            "midi": 43,
            "name": "G2",
            "ticks": 54720,
            "time": 76.000038,
            "velocity": 1
          },
          {
            "duration": 0.027777791666679263,
            "durationTicks": 20,
            "midi": 59,
            "name": "B3",
            "ticks": 54960,
            "time": 76.3333715,
            "velocity": 1
          },
          {
            "duration": 0.027777791666679263,
            "durationTicks": 20,
            "midi": 62,
            "name": "D4",
            "ticks": 54960,
            "time": 76.3333715,
            "velocity": 1
          },
          {
            "duration": 0.027777791666679263,
            "durationTicks": 20,
            "midi": 67,
            "name": "G4",
            "ticks": 54960,
            "time": 76.3333715,
            "velocity": 1
          },
          {
            "duration": 0.027777791666665053,
            "durationTicks": 20,
            "midi": 59,
            "name": "B3",
            "ticks": 55200,
            "time": 76.66670500000001,
            "velocity": 1
          },
          {
            "duration": 0.027777791666665053,
            "durationTicks": 20,
            "midi": 62,
            "name": "D4",
            "ticks": 55200,
            "time": 76.66670500000001,
            "velocity": 1
          },
          {
            "duration": 0.027777791666665053,
            "durationTicks": 20,
            "midi": 67,
            "name": "G4",
            "ticks": 55200,
            "time": 76.66670500000001,
            "velocity": 1
          },
          {
            "duration": 0.027777791666665053,
            "durationTicks": 20,
            "midi": 43,
            "name": "G2",
            "ticks": 55440,
            "time": 77.0000385,
            "velocity": 1
          },
          {
            "duration": 0.027777791666665053,
            "durationTicks": 20,
            "midi": 59,
            "name": "B3",
            "ticks": 55440,
            "time": 77.0000385,
            "velocity": 1
          },
          {
            "duration": 0.027777791666665053,
            "durationTicks": 20,
            "midi": 62,
            "name": "D4",
            "ticks": 55440,
            "time": 77.0000385,
            "velocity": 1
          },
          {
            "duration": 0.027777791666665053,
            "durationTicks": 20,
            "midi": 67,
            "name": "G4",
            "ticks": 55440,
            "time": 77.0000385,
            "velocity": 1
          },
          {
            "duration": 0.027777791666679263,
            "durationTicks": 20,
            "midi": 46,
            "name": "A#2",
            "ticks": 55680,
            "time": 77.333372,
            "velocity": 1
          },
          {
            "duration": 0.027777791666679263,
            "durationTicks": 20,
            "midi": 53,
            "name": "F3",
            "ticks": 55680,
            "time": 77.333372,
            "velocity": 1
          },
          {
            "duration": 0.027777791666679263,
            "durationTicks": 20,
            "midi": 58,
            "name": "A#3",
            "ticks": 55680,
            "time": 77.333372,
            "velocity": 1
          },
          {
            "duration": 0.027777791666679263,
            "durationTicks": 20,
            "midi": 62,
            "name": "D4",
            "ticks": 55680,
            "time": 77.333372,
            "velocity": 1
          },
          {
            "duration": 0.027777791666665053,
            "durationTicks": 20,
            "midi": 41,
            "name": "F2",
            "ticks": 56160,
            "time": 78.000039,
            "velocity": 1
          },
          {
            "duration": 0.027777791666665053,
            "durationTicks": 20,
            "midi": 53,
            "name": "F3",
            "ticks": 56160,
            "time": 78.000039,
            "velocity": 1
          },
          {
            "duration": 0.027777791666665053,
            "durationTicks": 20,
            "midi": 57,
            "name": "A3",
            "ticks": 56160,
            "time": 78.000039,
            "velocity": 1
          },
          {
            "duration": 0.027777791666665053,
            "durationTicks": 20,
            "midi": 60,
            "name": "C4",
            "ticks": 56160,
            "time": 78.000039,
            "velocity": 1
          },
          {
            "duration": 0.5833336250000087,
            "durationTicks": 420,
            "midi": 41,
            "name": "F2",
            "ticks": 56400,
            "time": 78.3333725,
            "velocity": 1
          },
          {
            "duration": 0.5833336250000087,
            "durationTicks": 420,
            "midi": 53,
            "name": "F3",
            "ticks": 56400,
            "time": 78.3333725,
            "velocity": 1
          },
          {
            "duration": 0.5833336250000087,
            "durationTicks": 420,
            "midi": 57,
            "name": "A3",
            "ticks": 56400,
            "time": 78.3333725,
            "velocity": 1
          },
          {
            "duration": 0.5833336250000087,
            "durationTicks": 420,
            "midi": 60,
            "name": "C4",
            "ticks": 56400,
            "time": 78.3333725,
            "velocity": 1
          },
          {
            "duration": 0.027777791666679263,
            "durationTicks": 20,
            "midi": 40,
            "name": "E2",
            "ticks": 57600,
            "time": 80.00004,
            "velocity": 1
          },
          {
            "duration": 0.027777791666665053,
            "durationTicks": 20,
            "midi": 55,
            "name": "G3",
            "ticks": 57840,
            "time": 80.33337350000001,
            "velocity": 1
          },
          {
            "duration": 0.027777791666665053,
            "durationTicks": 20,
            "midi": 59,
            "name": "B3",
            "ticks": 57840,
            "time": 80.33337350000001,
            "velocity": 1
          },
          {
            "duration": 0.027777791666665053,
            "durationTicks": 20,
            "midi": 62,
            "name": "D4",
            "ticks": 57840,
            "time": 80.33337350000001,
            "velocity": 1
          },
          {
            "duration": 0.027777791666665053,
            "durationTicks": 20,
            "midi": 55,
            "name": "G3",
            "ticks": 58080,
            "time": 80.666707,
            "velocity": 1
          },
          {
            "duration": 0.027777791666665053,
            "durationTicks": 20,
            "midi": 59,
            "name": "B3",
            "ticks": 58080,
            "time": 80.666707,
            "velocity": 1
          },
          {
            "duration": 0.027777791666665053,
            "durationTicks": 20,
            "midi": 62,
            "name": "D4",
            "ticks": 58080,
            "time": 80.666707,
            "velocity": 1
          },
          {
            "duration": 0.027777791666679263,
            "durationTicks": 20,
            "midi": 40,
            "name": "E2",
            "ticks": 58320,
            "time": 81.0000405,
            "velocity": 1
          },
          {
            "duration": 0.027777791666679263,
            "durationTicks": 20,
            "midi": 55,
            "name": "G3",
            "ticks": 58320,
            "time": 81.0000405,
            "velocity": 1
          },
          {
            "duration": 0.027777791666679263,
            "durationTicks": 20,
            "midi": 59,
            "name": "B3",
            "ticks": 58320,
            "time": 81.0000405,
            "velocity": 1
          },
          {
            "duration": 0.027777791666679263,
            "durationTicks": 20,
            "midi": 62,
            "name": "D4",
            "ticks": 58320,
            "time": 81.0000405,
            "velocity": 1
          },
          {
            "duration": 0.027777791666665053,
            "durationTicks": 20,
            "midi": 45,
            "name": "A2",
            "ticks": 58560,
            "time": 81.333374,
            "velocity": 1
          },
          {
            "duration": 0.027777791666665053,
            "durationTicks": 20,
            "midi": 55,
            "name": "G3",
            "ticks": 58800,
            "time": 81.6667075,
            "velocity": 1
          },
          {
            "duration": 0.027777791666665053,
            "durationTicks": 20,
            "midi": 61,
            "name": "C#4",
            "ticks": 58800,
            "time": 81.6667075,
            "velocity": 1
          },
          {
            "duration": 0.027777791666665053,
            "durationTicks": 20,
            "midi": 64,
            "name": "E4",
            "ticks": 58800,
            "time": 81.6667075,
            "velocity": 1
          },
          {
            "duration": 0.027777791666679263,
            "durationTicks": 20,
            "midi": 55,
            "name": "G3",
            "ticks": 59040,
            "time": 82.000041,
            "velocity": 1
          },
          {
            "duration": 0.027777791666679263,
            "durationTicks": 20,
            "midi": 61,
            "name": "C#4",
            "ticks": 59040,
            "time": 82.000041,
            "velocity": 1
          },
          {
            "duration": 0.027777791666679263,
            "durationTicks": 20,
            "midi": 64,
            "name": "E4",
            "ticks": 59040,
            "time": 82.000041,
            "velocity": 1
          },
          {
            "duration": 0.027777791666665053,
            "durationTicks": 20,
            "midi": 45,
            "name": "A2",
            "ticks": 59280,
            "time": 82.3333745,
            "velocity": 1
          },
          {
            "duration": 0.027777791666665053,
            "durationTicks": 20,
            "midi": 55,
            "name": "G3",
            "ticks": 59280,
            "time": 82.3333745,
            "velocity": 1
          },
          {
            "duration": 0.027777791666665053,
            "durationTicks": 20,
            "midi": 61,
            "name": "C#4",
            "ticks": 59280,
            "time": 82.3333745,
            "velocity": 1
          },
          {
            "duration": 0.027777791666665053,
            "durationTicks": 20,
            "midi": 64,
            "name": "E4",
            "ticks": 59280,
            "time": 82.3333745,
            "velocity": 1
          },
          {
            "duration": 0.027777791666665053,
            "durationTicks": 20,
            "midi": 50,
            "name": "D3",
            "ticks": 59520,
            "time": 82.666708,
            "velocity": 1
          },
          {
            "duration": 0.027777791666665053,
            "durationTicks": 20,
            "midi": 57,
            "name": "A3",
            "ticks": 59520,
            "time": 82.666708,
            "velocity": 1
          },
          {
            "duration": 0.027777791666665053,
            "durationTicks": 20,
            "midi": 62,
            "name": "D4",
            "ticks": 59520,
            "time": 82.666708,
            "velocity": 1
          },
          {
            "duration": 0.027777791666665053,
            "durationTicks": 20,
            "midi": 65,
            "name": "F4",
            "ticks": 59520,
            "time": 82.666708,
            "velocity": 1
          },
          {
            "duration": 0.027777791666665053,
            "durationTicks": 20,
            "midi": 48,
            "name": "C3",
            "ticks": 60000,
            "time": 83.333375,
            "velocity": 1
          },
          {
            "duration": 0.027777791666665053,
            "durationTicks": 20,
            "midi": 55,
            "name": "G3",
            "ticks": 60000,
            "time": 83.333375,
            "velocity": 1
          },
          {
            "duration": 0.027777791666665053,
            "durationTicks": 20,
            "midi": 60,
            "name": "C4",
            "ticks": 60000,
            "time": 83.333375,
            "velocity": 1
          },
          {
            "duration": 0.027777791666665053,
            "durationTicks": 20,
            "midi": 64,
            "name": "E4",
            "ticks": 60000,
            "time": 83.333375,
            "velocity": 1
          },
          {
            "duration": 0.027777791666665053,
            "durationTicks": 20,
            "midi": 46,
            "name": "A#2",
            "ticks": 60480,
            "time": 84.00004200000001,
            "velocity": 1
          },
          {
            "duration": 0.027777791666665053,
            "durationTicks": 20,
            "midi": 53,
            "name": "F3",
            "ticks": 60480,
            "time": 84.00004200000001,
            "velocity": 1
          },
          {
            "duration": 0.027777791666665053,
            "durationTicks": 20,
            "midi": 58,
            "name": "A#3",
            "ticks": 60480,
            "time": 84.00004200000001,
            "velocity": 1
          },
          {
            "duration": 0.027777791666665053,
            "durationTicks": 20,
            "midi": 62,
            "name": "D4",
            "ticks": 60480,
            "time": 84.00004200000001,
            "velocity": 1
          },
          {
            "duration": 0.027777791666679263,
            "durationTicks": 20,
            "midi": 45,
            "name": "A2",
            "ticks": 60960,
            "time": 84.666709,
            "velocity": 1
          },
          {
            "duration": 0.027777791666679263,
            "durationTicks": 20,
            "midi": 53,
            "name": "F3",
            "ticks": 60960,
            "time": 84.666709,
            "velocity": 1
          },
          {
            "duration": 0.027777791666679263,
            "durationTicks": 20,
            "midi": 57,
            "name": "A3",
            "ticks": 60960,
            "time": 84.666709,
            "velocity": 1
          },
          {
            "duration": 0.027777791666679263,
            "durationTicks": 20,
            "midi": 60,
            "name": "C4",
            "ticks": 60960,
            "time": 84.666709,
            "velocity": 1
          },
          {
            "duration": 0.027777791666665053,
            "durationTicks": 20,
            "midi": 43,
            "name": "G2",
            "ticks": 61440,
            "time": 85.333376,
            "velocity": 1
          },
          {
            "duration": 0.027777791666665053,
            "durationTicks": 20,
            "midi": 55,
            "name": "G3",
            "ticks": 61680,
            "time": 85.6667095,
            "velocity": 1
          },
          {
            "duration": 0.027777791666665053,
            "durationTicks": 20,
            "midi": 58,
            "name": "A#3",
            "ticks": 61680,
            "time": 85.6667095,
            "velocity": 1
          },
          {
            "duration": 0.027777791666665053,
            "durationTicks": 20,
            "midi": 62,
            "name": "D4",
            "ticks": 61680,
            "time": 85.6667095,
            "velocity": 1
          },
          {
            "duration": 0.027777791666650842,
            "durationTicks": 20,
            "midi": 55,
            "name": "G3",
            "ticks": 61920,
            "time": 86.000043,
            "velocity": 1
          },
          {
            "duration": 0.027777791666650842,
            "durationTicks": 20,
            "midi": 58,
            "name": "A#3",
            "ticks": 61920,
            "time": 86.000043,
            "velocity": 1
          },
          {
            "duration": 0.027777791666650842,
            "durationTicks": 20,
            "midi": 62,
            "name": "D4",
            "ticks": 61920,
            "time": 86.000043,
            "velocity": 1
          },
          {
            "duration": 0.027777791666665053,
            "durationTicks": 20,
            "midi": 43,
            "name": "G2",
            "ticks": 62160,
            "time": 86.3333765,
            "velocity": 1
          },
          {
            "duration": 0.027777791666665053,
            "durationTicks": 20,
            "midi": 55,
            "name": "G3",
            "ticks": 62160,
            "time": 86.3333765,
            "velocity": 1
          },
          {
            "duration": 0.027777791666665053,
            "durationTicks": 20,
            "midi": 58,
            "name": "A#3",
            "ticks": 62160,
            "time": 86.3333765,
            "velocity": 1
          },
          {
            "duration": 0.027777791666665053,
            "durationTicks": 20,
            "midi": 62,
            "name": "D4",
            "ticks": 62160,
            "time": 86.3333765,
            "velocity": 1
          },
          {
            "duration": 0.027777791666665053,
            "durationTicks": 20,
            "midi": 48,
            "name": "C3",
            "ticks": 62400,
            "time": 86.66671,
            "velocity": 1
          },
          {
            "duration": 0.027777791666650842,
            "durationTicks": 20,
            "midi": 55,
            "name": "G3",
            "ticks": 62640,
            "time": 87.0000435,
            "velocity": 1
          },
          {
            "duration": 0.027777791666650842,
            "durationTicks": 20,
            "midi": 58,
            "name": "A#3",
            "ticks": 62640,
            "time": 87.0000435,
            "velocity": 1
          },
          {
            "duration": 0.027777791666650842,
            "durationTicks": 20,
            "midi": 60,
            "name": "C4",
            "ticks": 62640,
            "time": 87.0000435,
            "velocity": 1
          },
          {
            "duration": 0.027777791666650842,
            "durationTicks": 20,
            "midi": 64,
            "name": "E4",
            "ticks": 62640,
            "time": 87.0000435,
            "velocity": 1
          },
          {
            "duration": 0.027777791666665053,
            "durationTicks": 20,
            "midi": 55,
            "name": "G3",
            "ticks": 62880,
            "time": 87.333377,
            "velocity": 1
          },
          {
            "duration": 0.027777791666665053,
            "durationTicks": 20,
            "midi": 58,
            "name": "A#3",
            "ticks": 62880,
            "time": 87.333377,
            "velocity": 1
          },
          {
            "duration": 0.027777791666665053,
            "durationTicks": 20,
            "midi": 60,
            "name": "C4",
            "ticks": 62880,
            "time": 87.333377,
            "velocity": 1
          },
          {
            "duration": 0.027777791666665053,
            "durationTicks": 20,
            "midi": 64,
            "name": "E4",
            "ticks": 62880,
            "time": 87.333377,
            "velocity": 1
          },
          {
            "duration": 0.027777791666650842,
            "durationTicks": 20,
            "midi": 48,
            "name": "C3",
            "ticks": 63120,
            "time": 87.66671050000001,
            "velocity": 1
          },
          {
            "duration": 0.027777791666650842,
            "durationTicks": 20,
            "midi": 55,
            "name": "G3",
            "ticks": 63120,
            "time": 87.66671050000001,
            "velocity": 1
          },
          {
            "duration": 0.027777791666650842,
            "durationTicks": 20,
            "midi": 58,
            "name": "A#3",
            "ticks": 63120,
            "time": 87.66671050000001,
            "velocity": 1
          },
          {
            "duration": 0.027777791666650842,
            "durationTicks": 20,
            "midi": 60,
            "name": "C4",
            "ticks": 63120,
            "time": 87.66671050000001,
            "velocity": 1
          },
          {
            "duration": 0.027777791666650842,
            "durationTicks": 20,
            "midi": 64,
            "name": "E4",
            "ticks": 63120,
            "time": 87.66671050000001,
            "velocity": 1
          },
          {
            "duration": 0.027777791666665053,
            "durationTicks": 20,
            "midi": 41,
            "name": "F2",
            "ticks": 63360,
            "time": 88.000044,
            "velocity": 1
          },
          {
            "duration": 0.027777791666665053,
            "durationTicks": 20,
            "midi": 57,
            "name": "A3",
            "ticks": 63600,
            "time": 88.3333775,
            "velocity": 1
          },
          {
            "duration": 0.027777791666665053,
            "durationTicks": 20,
            "midi": 60,
            "name": "C4",
            "ticks": 63600,
            "time": 88.3333775,
            "velocity": 1
          },
          {
            "duration": 0.027777791666665053,
            "durationTicks": 20,
            "midi": 65,
            "name": "F4",
            "ticks": 63600,
            "time": 88.3333775,
            "velocity": 1
          },
          {
            "duration": 0.027777791666650842,
            "durationTicks": 20,
            "midi": 57,
            "name": "A3",
            "ticks": 63840,
            "time": 88.666711,
            "velocity": 1
          },
          {
            "duration": 0.027777791666650842,
            "durationTicks": 20,
            "midi": 60,
            "name": "C4",
            "ticks": 63840,
            "time": 88.666711,
            "velocity": 1
          },
          {
            "duration": 0.027777791666650842,
            "durationTicks": 20,
            "midi": 65,
            "name": "F4",
            "ticks": 63840,
            "time": 88.666711,
            "velocity": 1
          },
          {
            "duration": 0.027777791666665053,
            "durationTicks": 20,
            "midi": 41,
            "name": "F2",
            "ticks": 64080,
            "time": 89.0000445,
            "velocity": 1
          },
          {
            "duration": 0.027777791666665053,
            "durationTicks": 20,
            "midi": 57,
            "name": "A3",
            "ticks": 64080,
            "time": 89.0000445,
            "velocity": 1
          },
          {
            "duration": 0.027777791666665053,
            "durationTicks": 20,
            "midi": 60,
            "name": "C4",
            "ticks": 64080,
            "time": 89.0000445,
            "velocity": 1
          },
          {
            "duration": 0.027777791666665053,
            "durationTicks": 20,
            "midi": 65,
            "name": "F4",
            "ticks": 64080,
            "time": 89.0000445,
            "velocity": 1
          },
          {
            "duration": 0.027777791666665053,
            "durationTicks": 20,
            "midi": 41,
            "name": "F2",
            "ticks": 64320,
            "time": 89.333378,
            "velocity": 1
          },
          {
            "duration": 0.027777791666650842,
            "durationTicks": 20,
            "midi": 57,
            "name": "A3",
            "ticks": 64560,
            "time": 89.6667115,
            "velocity": 1
          },
          {
            "duration": 0.027777791666650842,
            "durationTicks": 20,
            "midi": 60,
            "name": "C4",
            "ticks": 64560,
            "time": 89.6667115,
            "velocity": 1
          },
          {
            "duration": 0.027777791666650842,
            "durationTicks": 20,
            "midi": 65,
            "name": "F4",
            "ticks": 64560,
            "time": 89.6667115,
            "velocity": 1
          },
          {
            "duration": 0.027777791666665053,
            "durationTicks": 20,
            "midi": 57,
            "name": "A3",
            "ticks": 64800,
            "time": 90.000045,
            "velocity": 1
          },
          {
            "duration": 0.027777791666665053,
            "durationTicks": 20,
            "midi": 60,
            "name": "C4",
            "ticks": 64800,
            "time": 90.000045,
            "velocity": 1
          },
          {
            "duration": 0.027777791666665053,
            "durationTicks": 20,
            "midi": 65,
            "name": "F4",
            "ticks": 64800,
            "time": 90.000045,
            "velocity": 1
          },
          {
            "duration": 0.027777791666665053,
            "durationTicks": 20,
            "midi": 41,
            "name": "F2",
            "ticks": 65040,
            "time": 90.3333785,
            "velocity": 1
          },
          {
            "duration": 0.027777791666665053,
            "durationTicks": 20,
            "midi": 57,
            "name": "A3",
            "ticks": 65040,
            "time": 90.3333785,
            "velocity": 1
          },
          {
            "duration": 0.027777791666665053,
            "durationTicks": 20,
            "midi": 60,
            "name": "C4",
            "ticks": 65040,
            "time": 90.3333785,
            "velocity": 1
          },
          {
            "duration": 0.027777791666665053,
            "durationTicks": 20,
            "midi": 65,
            "name": "F4",
            "ticks": 65040,
            "time": 90.3333785,
            "velocity": 1
          },
          {
            "duration": 0.027777791666650842,
            "durationTicks": 20,
            "midi": 40,
            "name": "E2",
            "ticks": 65280,
            "time": 90.666712,
            "velocity": 1
          },
          {
            "duration": 0.027777791666665053,
            "durationTicks": 20,
            "midi": 55,
            "name": "G3",
            "ticks": 65520,
            "time": 91.0000455,
            "velocity": 1
          },
          {
            "duration": 0.027777791666665053,
            "durationTicks": 20,
            "midi": 59,
            "name": "B3",
            "ticks": 65520,
            "time": 91.0000455,
            "velocity": 1
          },
          {
            "duration": 0.027777791666665053,
            "durationTicks": 20,
            "midi": 62,
            "name": "D4",
            "ticks": 65520,
            "time": 91.0000455,
            "velocity": 1
          },
          {
            "duration": 0.027777791666650842,
            "durationTicks": 20,
            "midi": 55,
            "name": "G3",
            "ticks": 65760,
            "time": 91.33337900000001,
            "velocity": 1
          },
          {
            "duration": 0.027777791666650842,
            "durationTicks": 20,
            "midi": 59,
            "name": "B3",
            "ticks": 65760,
            "time": 91.33337900000001,
            "velocity": 1
          },
          {
            "duration": 0.027777791666650842,
            "durationTicks": 20,
            "midi": 62,
            "name": "D4",
            "ticks": 65760,
            "time": 91.33337900000001,
            "velocity": 1
          },
          {
            "duration": 0.027777791666665053,
            "durationTicks": 20,
            "midi": 40,
            "name": "E2",
            "ticks": 66000,
            "time": 91.6667125,
            "velocity": 1
          },
          {
            "duration": 0.027777791666665053,
            "durationTicks": 20,
            "midi": 55,
            "name": "G3",
            "ticks": 66000,
            "time": 91.6667125,
            "velocity": 1
          },
          {
            "duration": 0.027777791666665053,
            "durationTicks": 20,
            "midi": 59,
            "name": "B3",
            "ticks": 66000,
            "time": 91.6667125,
            "velocity": 1
          },
          {
            "duration": 0.027777791666665053,
            "durationTicks": 20,
            "midi": 62,
            "name": "D4",
            "ticks": 66000,
            "time": 91.6667125,
            "velocity": 1
          },
          {
            "duration": 0.027777791666665053,
            "durationTicks": 20,
            "midi": 45,
            "name": "A2",
            "ticks": 66240,
            "time": 92.000046,
            "velocity": 1
          },
          {
            "duration": 0.027777791666650842,
            "durationTicks": 20,
            "midi": 55,
            "name": "G3",
            "ticks": 66480,
            "time": 92.3333795,
            "velocity": 1
          },
          {
            "duration": 0.027777791666650842,
            "durationTicks": 20,
            "midi": 61,
            "name": "C#4",
            "ticks": 66480,
            "time": 92.3333795,
            "velocity": 1
          },
          {
            "duration": 0.027777791666650842,
            "durationTicks": 20,
            "midi": 64,
            "name": "E4",
            "ticks": 66480,
            "time": 92.3333795,
            "velocity": 1
          },
          {
            "duration": 0.027777791666665053,
            "durationTicks": 20,
            "midi": 55,
            "name": "G3",
            "ticks": 66720,
            "time": 92.666713,
            "velocity": 1
          },
          {
            "duration": 0.027777791666665053,
            "durationTicks": 20,
            "midi": 61,
            "name": "C#4",
            "ticks": 66720,
            "time": 92.666713,
            "velocity": 1
          },
          {
            "duration": 0.027777791666665053,
            "durationTicks": 20,
            "midi": 64,
            "name": "E4",
            "ticks": 66720,
            "time": 92.666713,
            "velocity": 1
          },
          {
            "duration": 0.027777791666665053,
            "durationTicks": 20,
            "midi": 45,
            "name": "A2",
            "ticks": 66960,
            "time": 93.0000465,
            "velocity": 1
          },
          {
            "duration": 0.027777791666665053,
            "durationTicks": 20,
            "midi": 55,
            "name": "G3",
            "ticks": 66960,
            "time": 93.0000465,
            "velocity": 1
          },
          {
            "duration": 0.027777791666665053,
            "durationTicks": 20,
            "midi": 61,
            "name": "C#4",
            "ticks": 66960,
            "time": 93.0000465,
            "velocity": 1
          },
          {
            "duration": 0.027777791666665053,
            "durationTicks": 20,
            "midi": 64,
            "name": "E4",
            "ticks": 66960,
            "time": 93.0000465,
            "velocity": 1
          },
          {
            "duration": 0.027777791666650842,
            "durationTicks": 20,
            "midi": 50,
            "name": "D3",
            "ticks": 67200,
            "time": 93.33338,
            "velocity": 1
          },
          {
            "duration": 0.027777791666650842,
            "durationTicks": 20,
            "midi": 57,
            "name": "A3",
            "ticks": 67200,
            "time": 93.33338,
            "velocity": 1
          },
          {
            "duration": 0.027777791666650842,
            "durationTicks": 20,
            "midi": 62,
            "name": "D4",
            "ticks": 67200,
            "time": 93.33338,
            "velocity": 1
          },
          {
            "duration": 0.027777791666650842,
            "durationTicks": 20,
            "midi": 65,
            "name": "F4",
            "ticks": 67200,
            "time": 93.33338,
            "velocity": 1
          },
          {
            "duration": 0.027777791666665053,
            "durationTicks": 20,
            "midi": 48,
            "name": "C3",
            "ticks": 67680,
            "time": 94.000047,
            "velocity": 1
          },
          {
            "duration": 0.027777791666665053,
            "durationTicks": 20,
            "midi": 55,
            "name": "G3",
            "ticks": 67680,
            "time": 94.000047,
            "velocity": 1
          },
          {
            "duration": 0.027777791666665053,
            "durationTicks": 20,
            "midi": 60,
            "name": "C4",
            "ticks": 67680,
            "time": 94.000047,
            "velocity": 1
          },
          {
            "duration": 0.027777791666665053,
            "durationTicks": 20,
            "midi": 64,
            "name": "E4",
            "ticks": 67680,
            "time": 94.000047,
            "velocity": 1
          },
          {
            "duration": 0.027777791666665053,
            "durationTicks": 20,
            "midi": 46,
            "name": "A#2",
            "ticks": 68160,
            "time": 94.666714,
            "velocity": 1
          },
          {
            "duration": 0.027777791666665053,
            "durationTicks": 20,
            "midi": 53,
            "name": "F3",
            "ticks": 68160,
            "time": 94.666714,
            "velocity": 1
          },
          {
            "duration": 0.027777791666665053,
            "durationTicks": 20,
            "midi": 58,
            "name": "A#3",
            "ticks": 68160,
            "time": 94.666714,
            "velocity": 1
          },
          {
            "duration": 0.027777791666665053,
            "durationTicks": 20,
            "midi": 62,
            "name": "D4",
            "ticks": 68160,
            "time": 94.666714,
            "velocity": 1
          },
          {
            "duration": 0.027777791666665053,
            "durationTicks": 20,
            "midi": 45,
            "name": "A2",
            "ticks": 68640,
            "time": 95.333381,
            "velocity": 1
          },
          {
            "duration": 0.027777791666665053,
            "durationTicks": 20,
            "midi": 53,
            "name": "F3",
            "ticks": 68640,
            "time": 95.333381,
            "velocity": 1
          },
          {
            "duration": 0.027777791666665053,
            "durationTicks": 20,
            "midi": 57,
            "name": "A3",
            "ticks": 68640,
            "time": 95.333381,
            "velocity": 1
          },
          {
            "duration": 0.027777791666665053,
            "durationTicks": 20,
            "midi": 60,
            "name": "C4",
            "ticks": 68640,
            "time": 95.333381,
            "velocity": 1
          },
          {
            "duration": 0.027777791666650842,
            "durationTicks": 20,
            "midi": 43,
            "name": "G2",
            "ticks": 69120,
            "time": 96.000048,
            "velocity": 1
          },
          {
            "duration": 0.027777791666665053,
            "durationTicks": 20,
            "midi": 55,
            "name": "G3",
            "ticks": 69360,
            "time": 96.3333815,
            "velocity": 1
          },
          {
            "duration": 0.027777791666665053,
            "durationTicks": 20,
            "midi": 58,
            "name": "A#3",
            "ticks": 69360,
            "time": 96.3333815,
            "velocity": 1
          },
          {
            "duration": 0.027777791666665053,
            "durationTicks": 20,
            "midi": 62,
            "name": "D4",
            "ticks": 69360,
            "time": 96.3333815,
            "velocity": 1
          },
          {
            "duration": 0.027777791666665053,
            "durationTicks": 20,
            "midi": 55,
            "name": "G3",
            "ticks": 69600,
            "time": 96.666715,
            "velocity": 1
          },
          {
            "duration": 0.027777791666665053,
            "durationTicks": 20,
            "midi": 58,
            "name": "A#3",
            "ticks": 69600,
            "time": 96.666715,
            "velocity": 1
          },
          {
            "duration": 0.027777791666665053,
            "durationTicks": 20,
            "midi": 62,
            "name": "D4",
            "ticks": 69600,
            "time": 96.666715,
            "velocity": 1
          },
          {
            "duration": 0.027777791666650842,
            "durationTicks": 20,
            "midi": 43,
            "name": "G2",
            "ticks": 69840,
            "time": 97.0000485,
            "velocity": 1
          },
          {
            "duration": 0.027777791666650842,
            "durationTicks": 20,
            "midi": 55,
            "name": "G3",
            "ticks": 69840,
            "time": 97.0000485,
            "velocity": 1
          },
          {
            "duration": 0.027777791666650842,
            "durationTicks": 20,
            "midi": 58,
            "name": "A#3",
            "ticks": 69840,
            "time": 97.0000485,
            "velocity": 1
          },
          {
            "duration": 0.027777791666650842,
            "durationTicks": 20,
            "midi": 62,
            "name": "D4",
            "ticks": 69840,
            "time": 97.0000485,
            "velocity": 1
          },
          {
            "duration": 0.027777791666665053,
            "durationTicks": 20,
            "midi": 48,
            "name": "C3",
            "ticks": 70080,
            "time": 97.333382,
            "velocity": 1
          },
          {
            "duration": 0.027777791666665053,
            "durationTicks": 20,
            "midi": 55,
            "name": "G3",
            "ticks": 70320,
            "time": 97.6667155,
            "velocity": 1
          },
          {
            "duration": 0.027777791666665053,
            "durationTicks": 20,
            "midi": 58,
            "name": "A#3",
            "ticks": 70320,
            "time": 97.6667155,
            "velocity": 1
          },
          {
            "duration": 0.027777791666665053,
            "durationTicks": 20,
            "midi": 60,
            "name": "C4",
            "ticks": 70320,
            "time": 97.6667155,
            "velocity": 1
          },
          {
            "duration": 0.027777791666665053,
            "durationTicks": 20,
            "midi": 64,
            "name": "E4",
            "ticks": 70320,
            "time": 97.6667155,
            "velocity": 1
          },
          {
            "duration": 0.027777791666650842,
            "durationTicks": 20,
            "midi": 55,
            "name": "G3",
            "ticks": 70560,
            "time": 98.000049,
            "velocity": 1
          },
          {
            "duration": 0.027777791666650842,
            "durationTicks": 20,
            "midi": 58,
            "name": "A#3",
            "ticks": 70560,
            "time": 98.000049,
            "velocity": 1
          },
          {
            "duration": 0.027777791666650842,
            "durationTicks": 20,
            "midi": 60,
            "name": "C4",
            "ticks": 70560,
            "time": 98.000049,
            "velocity": 1
          },
          {
            "duration": 0.027777791666650842,
            "durationTicks": 20,
            "midi": 64,
            "name": "E4",
            "ticks": 70560,
            "time": 98.000049,
            "velocity": 1
          },
          {
            "duration": 0.027777791666665053,
            "durationTicks": 20,
            "midi": 48,
            "name": "C3",
            "ticks": 70800,
            "time": 98.3333825,
            "velocity": 1
          },
          {
            "duration": 0.027777791666665053,
            "durationTicks": 20,
            "midi": 55,
            "name": "G3",
            "ticks": 70800,
            "time": 98.3333825,
            "velocity": 1
          },
          {
            "duration": 0.027777791666665053,
            "durationTicks": 20,
            "midi": 58,
            "name": "A#3",
            "ticks": 70800,
            "time": 98.3333825,
            "velocity": 1
          },
          {
            "duration": 0.027777791666665053,
            "durationTicks": 20,
            "midi": 60,
            "name": "C4",
            "ticks": 70800,
            "time": 98.3333825,
            "velocity": 1
          },
          {
            "duration": 0.027777791666665053,
            "durationTicks": 20,
            "midi": 64,
            "name": "E4",
            "ticks": 70800,
            "time": 98.3333825,
            "velocity": 1
          },
          {
            "duration": 0.027777791666650842,
            "durationTicks": 20,
            "midi": 41,
            "name": "F2",
            "ticks": 71040,
            "time": 98.66671600000001,
            "velocity": 1
          },
          {
            "duration": 0.08333337499999516,
            "durationTicks": 60,
            "midi": 57,
            "name": "A3",
            "ticks": 71040,
            "time": 98.66671600000001,
            "velocity": 1
          },
          {
            "duration": 0.08333337499999516,
            "durationTicks": 60,
            "midi": 60,
            "name": "C4",
            "ticks": 71040,
            "time": 98.66671600000001,
            "velocity": 1
          },
          {
            "duration": 0.08333337500000937,
            "durationTicks": 60,
            "midi": 65,
            "name": "F4",
            "ticks": 71160,
            "time": 98.83338275,
            "velocity": 1
          },
          {
            "duration": 0.027777791666665053,
            "durationTicks": 20,
            "midi": 41,
            "name": "F2",
            "ticks": 72960,
            "time": 101.333384,
            "velocity": 1
          },
          {
            "duration": 0.027777791666650842,
            "durationTicks": 20,
            "midi": 60,
            "name": "C4",
            "ticks": 73200,
            "time": 101.6667175,
            "velocity": 1
          },
          {
            "duration": 0.027777791666650842,
            "durationTicks": 20,
            "midi": 65,
            "name": "F4",
            "ticks": 73200,
            "time": 101.6667175,
            "velocity": 1
          },
          {
            "duration": 0.027777791666665053,
            "durationTicks": 20,
            "midi": 60,
            "name": "C4",
            "ticks": 73440,
            "time": 102.000051,
            "velocity": 1
          },
          {
            "duration": 0.027777791666665053,
            "durationTicks": 20,
            "midi": 65,
            "name": "F4",
            "ticks": 73440,
            "time": 102.000051,
            "velocity": 1
          },
          {
            "duration": 0.027777791666650842,
            "durationTicks": 20,
            "midi": 60,
            "name": "C4",
            "ticks": 73680,
            "time": 102.33338450000001,
            "velocity": 1
          },
          {
            "duration": 0.027777791666650842,
            "durationTicks": 20,
            "midi": 65,
            "name": "F4",
            "ticks": 73680,
            "time": 102.33338450000001,
            "velocity": 1
          },
          {
            "duration": 0.027777791666665053,
            "durationTicks": 20,
            "midi": 41,
            "name": "F2",
            "ticks": 73920,
            "time": 102.666718,
            "velocity": 1
          },
          {
            "duration": 0.027777791666665053,
            "durationTicks": 20,
            "midi": 60,
            "name": "C4",
            "ticks": 74160,
            "time": 103.0000515,
            "velocity": 1
          },
          {
            "duration": 0.027777791666665053,
            "durationTicks": 20,
            "midi": 65,
            "name": "F4",
            "ticks": 74160,
            "time": 103.0000515,
            "velocity": 1
          },
          {
            "duration": 0.027777791666650842,
            "durationTicks": 20,
            "midi": 60,
            "name": "C4",
            "ticks": 74400,
            "time": 103.333385,
            "velocity": 1
          },
          {
            "duration": 0.027777791666650842,
            "durationTicks": 20,
            "midi": 65,
            "name": "F4",
            "ticks": 74400,
            "time": 103.333385,
            "velocity": 1
          },
          {
            "duration": 0.027777791666665053,
            "durationTicks": 20,
            "midi": 50,
            "name": "D3",
            "ticks": 74640,
            "time": 103.6667185,
            "velocity": 1
          },
          {
            "duration": 0.027777791666665053,
            "durationTicks": 20,
            "midi": 60,
            "name": "C4",
            "ticks": 74640,
            "time": 103.6667185,
            "velocity": 1
          },
          {
            "duration": 0.027777791666665053,
            "durationTicks": 20,
            "midi": 65,
            "name": "F4",
            "ticks": 74640,
            "time": 103.6667185,
            "velocity": 1
          },
          {
            "duration": 0.027777791666665053,
            "durationTicks": 20,
            "midi": 40,
            "name": "E2",
            "ticks": 74880,
            "time": 104.000052,
            "velocity": 1
          },
          {
            "duration": 0.027777791666650842,
            "durationTicks": 20,
            "midi": 55,
            "name": "G3",
            "ticks": 75120,
            "time": 104.3333855,
            "velocity": 1
          },
          {
            "duration": 0.027777791666650842,
            "durationTicks": 20,
            "midi": 58,
            "name": "A#3",
            "ticks": 75120,
            "time": 104.3333855,
            "velocity": 1
          },
          {
            "duration": 0.027777791666650842,
            "durationTicks": 20,
            "midi": 62,
            "name": "D4",
            "ticks": 75120,
            "time": 104.3333855,
            "velocity": 1
          },
          {
            "duration": 0.027777791666665053,
            "durationTicks": 20,
            "midi": 55,
            "name": "G3",
            "ticks": 75360,
            "time": 104.666719,
            "velocity": 1
          },
          {
            "duration": 0.027777791666665053,
            "durationTicks": 20,
            "midi": 58,
            "name": "A#3",
            "ticks": 75360,
            "time": 104.666719,
            "velocity": 1
          },
          {
            "duration": 0.027777791666665053,
            "durationTicks": 20,
            "midi": 62,
            "name": "D4",
            "ticks": 75360,
            "time": 104.666719,
            "velocity": 1
          },
          {
            "duration": 0.027777791666665053,
            "durationTicks": 20,
            "midi": 40,
            "name": "E2",
            "ticks": 75600,
            "time": 105.0000525,
            "velocity": 1
          },
          {
            "duration": 0.027777791666665053,
            "durationTicks": 20,
            "midi": 55,
            "name": "G3",
            "ticks": 75600,
            "time": 105.0000525,
            "velocity": 1
          },
          {
            "duration": 0.027777791666665053,
            "durationTicks": 20,
            "midi": 58,
            "name": "A#3",
            "ticks": 75600,
            "time": 105.0000525,
            "velocity": 1
          },
          {
            "duration": 0.027777791666665053,
            "durationTicks": 20,
            "midi": 62,
            "name": "D4",
            "ticks": 75600,
            "time": 105.0000525,
            "velocity": 1
          },
          {
            "duration": 0.027777791666650842,
            "durationTicks": 20,
            "midi": 45,
            "name": "A2",
            "ticks": 75840,
            "time": 105.333386,
            "velocity": 1
          },
          {
            "duration": 0.027777791666665053,
            "durationTicks": 20,
            "midi": 55,
            "name": "G3",
            "ticks": 76080,
            "time": 105.6667195,
            "velocity": 1
          },
          {
            "duration": 0.027777791666665053,
            "durationTicks": 20,
            "midi": 61,
            "name": "C#4",
            "ticks": 76080,
            "time": 105.6667195,
            "velocity": 1
          },
          {
            "duration": 0.027777791666665053,
            "durationTicks": 20,
            "midi": 64,
            "name": "E4",
            "ticks": 76080,
            "time": 105.6667195,
            "velocity": 1
          },
          {
            "duration": 0.027777791666650842,
            "durationTicks": 20,
            "midi": 55,
            "name": "G3",
            "ticks": 76320,
            "time": 106.00005300000001,
            "velocity": 1
          },
          {
            "duration": 0.027777791666650842,
            "durationTicks": 20,
            "midi": 61,
            "name": "C#4",
            "ticks": 76320,
            "time": 106.00005300000001,
            "velocity": 1
          },
          {
            "duration": 0.027777791666650842,
            "durationTicks": 20,
            "midi": 64,
            "name": "E4",
            "ticks": 76320,
            "time": 106.00005300000001,
            "velocity": 1
          },
          {
            "duration": 0.027777791666665053,
            "durationTicks": 20,
            "midi": 45,
            "name": "A2",
            "ticks": 76560,
            "time": 106.3333865,
            "velocity": 1
          },
          {
            "duration": 0.027777791666665053,
            "durationTicks": 20,
            "midi": 55,
            "name": "G3",
            "ticks": 76560,
            "time": 106.3333865,
            "velocity": 1
          },
          {
            "duration": 0.027777791666665053,
            "durationTicks": 20,
            "midi": 61,
            "name": "C#4",
            "ticks": 76560,
            "time": 106.3333865,
            "velocity": 1
          },
          {
            "duration": 0.027777791666665053,
            "durationTicks": 20,
            "midi": 64,
            "name": "E4",
            "ticks": 76560,
            "time": 106.3333865,
            "velocity": 1
          },
          {
            "duration": 0.027777791666665053,
            "durationTicks": 20,
            "midi": 50,
            "name": "D3",
            "ticks": 76800,
            "time": 106.66672,
            "velocity": 1
          },
          {
            "duration": 0.027777791666650842,
            "durationTicks": 20,
            "midi": 57,
            "name": "A3",
            "ticks": 77040,
            "time": 107.0000535,
            "velocity": 1
          },
          {
            "duration": 0.027777791666650842,
            "durationTicks": 20,
            "midi": 62,
            "name": "D4",
            "ticks": 77040,
            "time": 107.0000535,
            "velocity": 1
          },
          {
            "duration": 0.027777791666650842,
            "durationTicks": 20,
            "midi": 65,
            "name": "F4",
            "ticks": 77040,
            "time": 107.0000535,
            "velocity": 1
          },
          {
            "duration": 0.027777791666665053,
            "durationTicks": 20,
            "midi": 57,
            "name": "A3",
            "ticks": 77280,
            "time": 107.333387,
            "velocity": 1
          },
          {
            "duration": 0.027777791666665053,
            "durationTicks": 20,
            "midi": 62,
            "name": "D4",
            "ticks": 77280,
            "time": 107.333387,
            "velocity": 1
          },
          {
            "duration": 0.027777791666665053,
            "durationTicks": 20,
            "midi": 65,
            "name": "F4",
            "ticks": 77280,
            "time": 107.333387,
            "velocity": 1
          },
          {
            "duration": 0.027777791666665053,
            "durationTicks": 20,
            "midi": 50,
            "name": "D3",
            "ticks": 77520,
            "time": 107.6667205,
            "velocity": 1
          },
          {
            "duration": 0.027777791666665053,
            "durationTicks": 20,
            "midi": 57,
            "name": "A3",
            "ticks": 77520,
            "time": 107.6667205,
            "velocity": 1
          },
          {
            "duration": 0.027777791666665053,
            "durationTicks": 20,
            "midi": 62,
            "name": "D4",
            "ticks": 77520,
            "time": 107.6667205,
            "velocity": 1
          },
          {
            "duration": 0.027777791666665053,
            "durationTicks": 20,
            "midi": 65,
            "name": "F4",
            "ticks": 77520,
            "time": 107.6667205,
            "velocity": 1
          },
          {
            "duration": 0.027777791666650842,
            "durationTicks": 20,
            "midi": 50,
            "name": "D3",
            "ticks": 77760,
            "time": 108.000054,
            "velocity": 1
          },
          {
            "duration": 0.027777791666665053,
            "durationTicks": 20,
            "midi": 57,
            "name": "A3",
            "ticks": 78000,
            "time": 108.3333875,
            "velocity": 1
          },
          {
            "duration": 0.027777791666665053,
            "durationTicks": 20,
            "midi": 62,
            "name": "D4",
            "ticks": 78000,
            "time": 108.3333875,
            "velocity": 1
          },
          {
            "duration": 0.027777791666665053,
            "durationTicks": 20,
            "midi": 65,
            "name": "F4",
            "ticks": 78000,
            "time": 108.3333875,
            "velocity": 1
          },
          {
            "duration": 0.027777791666665053,
            "durationTicks": 20,
            "midi": 48,
            "name": "C3",
            "ticks": 78240,
            "time": 108.666721,
            "velocity": 1
          },
          {
            "duration": 0.027777791666650842,
            "durationTicks": 20,
            "midi": 55,
            "name": "G3",
            "ticks": 78480,
            "time": 109.0000545,
            "velocity": 1
          },
          {
            "duration": 0.027777791666650842,
            "durationTicks": 20,
            "midi": 60,
            "name": "C4",
            "ticks": 78480,
            "time": 109.0000545,
            "velocity": 1
          },
          {
            "duration": 0.027777791666650842,
            "durationTicks": 20,
            "midi": 64,
            "name": "E4",
            "ticks": 78480,
            "time": 109.0000545,
            "velocity": 1
          },
          {
            "duration": 0.027777791666665053,
            "durationTicks": 20,
            "midi": 46,
            "name": "A#2",
            "ticks": 78720,
            "time": 109.333388,
            "velocity": 1
          },
          {
            "duration": 0.027777791666650842,
            "durationTicks": 20,
            "midi": 53,
            "name": "F3",
            "ticks": 78960,
            "time": 109.66672150000001,
            "velocity": 1
          },
          {
            "duration": 0.027777791666650842,
            "durationTicks": 20,
            "midi": 58,
            "name": "A#3",
            "ticks": 78960,
            "time": 109.66672150000001,
            "velocity": 1
          },
          {
            "duration": 0.027777791666650842,
            "durationTicks": 20,
            "midi": 62,
            "name": "D4",
            "ticks": 78960,
            "time": 109.66672150000001,
            "velocity": 1
          },
          {
            "duration": 0.027777791666665053,
            "durationTicks": 20,
            "midi": 53,
            "name": "F3",
            "ticks": 79200,
            "time": 110.000055,
            "velocity": 1
          },
          {
            "duration": 0.027777791666665053,
            "durationTicks": 20,
            "midi": 58,
            "name": "A#3",
            "ticks": 79200,
            "time": 110.000055,
            "velocity": 1
          },
          {
            "duration": 0.027777791666665053,
            "durationTicks": 20,
            "midi": 62,
            "name": "D4",
            "ticks": 79200,
            "time": 110.000055,
            "velocity": 1
          },
          {
            "duration": 0.027777791666665053,
            "durationTicks": 20,
            "midi": 46,
            "name": "A#2",
            "ticks": 79440,
            "time": 110.3333885,
            "velocity": 1
          },
          {
            "duration": 0.027777791666665053,
            "durationTicks": 20,
            "midi": 53,
            "name": "F3",
            "ticks": 79440,
            "time": 110.3333885,
            "velocity": 1
          },
          {
            "duration": 0.027777791666665053,
            "durationTicks": 20,
            "midi": 58,
            "name": "A#3",
            "ticks": 79440,
            "time": 110.3333885,
            "velocity": 1
          },
          {
            "duration": 0.027777791666665053,
            "durationTicks": 20,
            "midi": 62,
            "name": "D4",
            "ticks": 79440,
            "time": 110.3333885,
            "velocity": 1
          },
          {
            "duration": 0.027777791666650842,
            "durationTicks": 20,
            "midi": 48,
            "name": "C3",
            "ticks": 79680,
            "time": 110.66672200000001,
            "velocity": 1
          },
          {
            "duration": 0.027777791666665053,
            "durationTicks": 20,
            "midi": 58,
            "name": "A#3",
            "ticks": 79920,
            "time": 111.0000555,
            "velocity": 1
          },
          {
            "duration": 0.027777791666665053,
            "durationTicks": 20,
            "midi": 60,
            "name": "C4",
            "ticks": 79920,
            "time": 111.0000555,
            "velocity": 1
          },
          {
            "duration": 0.027777791666665053,
            "durationTicks": 20,
            "midi": 64,
            "name": "E4",
            "ticks": 79920,
            "time": 111.0000555,
            "velocity": 1
          },
          {
            "duration": 0.027777791666665053,
            "durationTicks": 20,
            "midi": 58,
            "name": "A#3",
            "ticks": 80160,
            "time": 111.333389,
            "velocity": 1
          },
          {
            "duration": 0.027777791666665053,
            "durationTicks": 20,
            "midi": 60,
            "name": "C4",
            "ticks": 80160,
            "time": 111.333389,
            "velocity": 1
          },
          {
            "duration": 0.027777791666665053,
            "durationTicks": 20,
            "midi": 64,
            "name": "E4",
            "ticks": 80160,
            "time": 111.333389,
            "velocity": 1
          },
          {
            "duration": 0.027777791666650842,
            "durationTicks": 20,
            "midi": 48,
            "name": "C3",
            "ticks": 80400,
            "time": 111.6667225,
            "velocity": 1
          },
          {
            "duration": 0.027777791666650842,
            "durationTicks": 20,
            "midi": 58,
            "name": "A#3",
            "ticks": 80400,
            "time": 111.6667225,
            "velocity": 1
          },
          {
            "duration": 0.027777791666650842,
            "durationTicks": 20,
            "midi": 60,
            "name": "C4",
            "ticks": 80400,
            "time": 111.6667225,
            "velocity": 1
          },
          {
            "duration": 0.027777791666650842,
            "durationTicks": 20,
            "midi": 64,
            "name": "E4",
            "ticks": 80400,
            "time": 111.6667225,
            "velocity": 1
          },
          {
            "duration": 0.027777791666665053,
            "durationTicks": 20,
            "midi": 41,
            "name": "F2",
            "ticks": 80640,
            "time": 112.000056,
            "velocity": 1
          },
          {
            "duration": 0.027777791666665053,
            "durationTicks": 20,
            "midi": 57,
            "name": "A3",
            "ticks": 80880,
            "time": 112.3333895,
            "velocity": 1
          },
          {
            "duration": 0.027777791666665053,
            "durationTicks": 20,
            "midi": 60,
            "name": "C4",
            "ticks": 80880,
            "time": 112.3333895,
            "velocity": 1
          },
          {
            "duration": 0.027777791666665053,
            "durationTicks": 20,
            "midi": 65,
            "name": "F4",
            "ticks": 80880,
            "time": 112.3333895,
            "velocity": 1
          },
          {
            "duration": 0.027777791666650842,
            "durationTicks": 20,
            "midi": 57,
            "name": "A3",
            "ticks": 81120,
            "time": 112.666723,
            "velocity": 1
          },
          {
            "duration": 0.027777791666650842,
            "durationTicks": 20,
            "midi": 60,
            "name": "C4",
            "ticks": 81120,
            "time": 112.666723,
            "velocity": 1
          },
          {
            "duration": 0.027777791666650842,
            "durationTicks": 20,
            "midi": 65,
            "name": "F4",
            "ticks": 81120,
            "time": 112.666723,
            "velocity": 1
          },
          {
            "duration": 0.027777791666665053,
            "durationTicks": 20,
            "midi": 41,
            "name": "F2",
            "ticks": 81360,
            "time": 113.0000565,
            "velocity": 1
          },
          {
            "duration": 0.027777791666665053,
            "durationTicks": 20,
            "midi": 57,
            "name": "A3",
            "ticks": 81360,
            "time": 113.0000565,
            "velocity": 1
          },
          {
            "duration": 0.027777791666665053,
            "durationTicks": 20,
            "midi": 60,
            "name": "C4",
            "ticks": 81360,
            "time": 113.0000565,
            "velocity": 1
          },
          {
            "duration": 0.027777791666665053,
            "durationTicks": 20,
            "midi": 65,
            "name": "F4",
            "ticks": 81360,
            "time": 113.0000565,
            "velocity": 1
          },
          {
            "duration": 0.027777791666650842,
            "durationTicks": 20,
            "midi": 41,
            "name": "F2",
            "ticks": 81600,
            "time": 113.33339000000001,
            "velocity": 1
          },
          {
            "duration": 0.027777791666665053,
            "durationTicks": 20,
            "midi": 57,
            "name": "A3",
            "ticks": 81840,
            "time": 113.6667235,
            "velocity": 1
          },
          {
            "duration": 0.027777791666665053,
            "durationTicks": 20,
            "midi": 60,
            "name": "C4",
            "ticks": 81840,
            "time": 113.6667235,
            "velocity": 1
          },
          {
            "duration": 0.027777791666665053,
            "durationTicks": 20,
            "midi": 65,
            "name": "F4",
            "ticks": 81840,
            "time": 113.6667235,
            "velocity": 1
          },
          {
            "duration": 0.027777791666665053,
            "durationTicks": 20,
            "midi": 40,
            "name": "E2",
            "ticks": 82080,
            "time": 114.000057,
            "velocity": 1
          },
          {
            "duration": 0.027777791666650842,
            "durationTicks": 20,
            "midi": 57,
            "name": "A3",
            "ticks": 82320,
            "time": 114.33339050000001,
            "velocity": 1
          },
          {
            "duration": 0.027777791666650842,
            "durationTicks": 20,
            "midi": 60,
            "name": "C4",
            "ticks": 82320,
            "time": 114.33339050000001,
            "velocity": 1
          },
          {
            "duration": 0.027777791666650842,
            "durationTicks": 20,
            "midi": 64,
            "name": "E4",
            "ticks": 82320,
            "time": 114.33339050000001,
            "velocity": 1
          },
          {
            "duration": 0.027777791666665053,
            "durationTicks": 20,
            "midi": 50,
            "name": "D3",
            "ticks": 82560,
            "time": 114.666724,
            "velocity": 1
          },
          {
            "duration": 0.027777791666665053,
            "durationTicks": 20,
            "midi": 57,
            "name": "A3",
            "ticks": 82800,
            "time": 115.0000575,
            "velocity": 1
          },
          {
            "duration": 0.027777791666665053,
            "durationTicks": 20,
            "midi": 62,
            "name": "D4",
            "ticks": 82800,
            "time": 115.0000575,
            "velocity": 1
          },
          {
            "duration": 0.027777791666665053,
            "durationTicks": 20,
            "midi": 65,
            "name": "F4",
            "ticks": 82800,
            "time": 115.0000575,
            "velocity": 1
          },
          {
            "duration": 0.027777791666650842,
            "durationTicks": 20,
            "midi": 57,
            "name": "A3",
            "ticks": 83040,
            "time": 115.333391,
            "velocity": 1
          },
          {
            "duration": 0.027777791666650842,
            "durationTicks": 20,
            "midi": 62,
            "name": "D4",
            "ticks": 83040,
            "time": 115.333391,
            "velocity": 1
          },
          {
            "duration": 0.027777791666650842,
            "durationTicks": 20,
            "midi": 65,
            "name": "F4",
            "ticks": 83040,
            "time": 115.333391,
            "velocity": 1
          },
          {
            "duration": 0.027777791666665053,
            "durationTicks": 20,
            "midi": 50,
            "name": "D3",
            "ticks": 83280,
            "time": 115.6667245,
            "velocity": 1
          },
          {
            "duration": 0.027777791666665053,
            "durationTicks": 20,
            "midi": 57,
            "name": "A3",
            "ticks": 83280,
            "time": 115.6667245,
            "velocity": 1
          },
          {
            "duration": 0.027777791666665053,
            "durationTicks": 20,
            "midi": 62,
            "name": "D4",
            "ticks": 83280,
            "time": 115.6667245,
            "velocity": 1
          },
          {
            "duration": 0.027777791666665053,
            "durationTicks": 20,
            "midi": 65,
            "name": "F4",
            "ticks": 83280,
            "time": 115.6667245,
            "velocity": 1
          },
          {
            "duration": 0.027777791666665053,
            "durationTicks": 20,
            "midi": 43,
            "name": "G2",
            "ticks": 83520,
            "time": 116.000058,
            "velocity": 1
          },
          {
            "duration": 0.027777791666650842,
            "durationTicks": 20,
            "midi": 55,
            "name": "G3",
            "ticks": 83760,
            "time": 116.3333915,
            "velocity": 1
          },
          {
            "duration": 0.027777791666650842,
            "durationTicks": 20,
            "midi": 59,
            "name": "B3",
            "ticks": 83760,
            "time": 116.3333915,
            "velocity": 1
          },
          {
            "duration": 0.027777791666650842,
            "durationTicks": 20,
            "midi": 62,
            "name": "D4",
            "ticks": 83760,
            "time": 116.3333915,
            "velocity": 1
          },
          {
            "duration": 0.027777791666665053,
            "durationTicks": 20,
            "midi": 55,
            "name": "G3",
            "ticks": 84000,
            "time": 116.666725,
            "velocity": 1
          },
          {
            "duration": 0.027777791666665053,
            "durationTicks": 20,
            "midi": 59,
            "name": "B3",
            "ticks": 84000,
            "time": 116.666725,
            "velocity": 1
          },
          {
            "duration": 0.027777791666665053,
            "durationTicks": 20,
            "midi": 62,
            "name": "D4",
            "ticks": 84000,
            "time": 116.666725,
            "velocity": 1
          },
          {
            "duration": 0.027777791666650842,
            "durationTicks": 20,
            "midi": 43,
            "name": "G2",
            "ticks": 84240,
            "time": 117.00005850000001,
            "velocity": 1
          },
          {
            "duration": 0.027777791666650842,
            "durationTicks": 20,
            "midi": 55,
            "name": "G3",
            "ticks": 84240,
            "time": 117.00005850000001,
            "velocity": 1
          },
          {
            "duration": 0.027777791666650842,
            "durationTicks": 20,
            "midi": 59,
            "name": "B3",
            "ticks": 84240,
            "time": 117.00005850000001,
            "velocity": 1
          },
          {
            "duration": 0.027777791666650842,
            "durationTicks": 20,
            "midi": 62,
            "name": "D4",
            "ticks": 84240,
            "time": 117.00005850000001,
            "velocity": 1
          },
          {
            "duration": 0.027777791666665053,
            "durationTicks": 20,
            "midi": 46,
            "name": "A#2",
            "ticks": 84480,
            "time": 117.333392,
            "velocity": 1
          },
          {
            "duration": 0.027777791666665053,
            "durationTicks": 20,
            "midi": 53,
            "name": "F3",
            "ticks": 84720,
            "time": 117.6667255,
            "velocity": 1
          },
          {
            "duration": 0.027777791666665053,
            "durationTicks": 20,
            "midi": 58,
            "name": "A#3",
            "ticks": 84720,
            "time": 117.6667255,
            "velocity": 1
          },
          {
            "duration": 0.027777791666665053,
            "durationTicks": 20,
            "midi": 62,
            "name": "D4",
            "ticks": 84720,
            "time": 117.6667255,
            "velocity": 1
          },
          {
            "duration": 0.027777791666650842,
            "durationTicks": 20,
            "midi": 41,
            "name": "F2",
            "ticks": 84960,
            "time": 118.00005900000001,
            "velocity": 1
          },
          {
            "duration": 0.027777791666665053,
            "durationTicks": 20,
            "midi": 41,
            "name": "F2",
            "ticks": 85200,
            "time": 118.3333925,
            "velocity": 1
          },
          {
            "duration": 0.055555583333344316,
            "durationTicks": 40,
            "midi": 53,
            "name": "F3",
            "ticks": 85200,
            "time": 118.3333925,
            "velocity": 1
          },
          {
            "duration": 0.055555583333344316,
            "durationTicks": 40,
            "midi": 57,
            "name": "A3",
            "ticks": 85200,
            "time": 118.3333925,
            "velocity": 1
          },
          {
            "duration": 0.055555583333344316,
            "durationTicks": 40,
            "midi": 60,
            "name": "C4",
            "ticks": 85200,
            "time": 118.3333925,
            "velocity": 1
          },
          {
            "duration": 0.027777791666650842,
            "durationTicks": 20,
            "midi": 41,
            "name": "F2",
            "ticks": 86400,
            "time": 120.00006,
            "velocity": 1
          },
          {
            "duration": 0.027777791666665053,
            "durationTicks": 20,
            "midi": 57,
            "name": "A3",
            "ticks": 86640,
            "time": 120.3333935,
            "velocity": 1
          },
          {
            "duration": 0.027777791666665053,
            "durationTicks": 20,
            "midi": 60,
            "name": "C4",
            "ticks": 86640,
            "time": 120.3333935,
            "velocity": 1
          },
          {
            "duration": 0.027777791666650842,
            "durationTicks": 20,
            "midi": 57,
            "name": "A3",
            "ticks": 86880,
            "time": 120.66672700000001,
            "velocity": 1
          },
          {
            "duration": 0.027777791666650842,
            "durationTicks": 20,
            "midi": 60,
            "name": "C4",
            "ticks": 86880,
            "time": 120.66672700000001,
            "velocity": 1
          },
          {
            "duration": 0.027777791666650842,
            "durationTicks": 20,
            "midi": 65,
            "name": "F4",
            "ticks": 86880,
            "time": 120.66672700000001,
            "velocity": 1
          },
          {
            "duration": 0.027777791666665053,
            "durationTicks": 20,
            "midi": 41,
            "name": "F2",
            "ticks": 87120,
            "time": 121.0000605,
            "velocity": 1
          },
          {
            "duration": 0.027777791666665053,
            "durationTicks": 20,
            "midi": 57,
            "name": "A3",
            "ticks": 87120,
            "time": 121.0000605,
            "velocity": 1
          },
          {
            "duration": 0.027777791666665053,
            "durationTicks": 20,
            "midi": 60,
            "name": "C4",
            "ticks": 87120,
            "time": 121.0000605,
            "velocity": 1
          },
          {
            "duration": 0.027777791666665053,
            "durationTicks": 20,
            "midi": 65,
            "name": "F4",
            "ticks": 87120,
            "time": 121.0000605,
            "velocity": 1
          },
          {
            "duration": 0.027777791666665053,
            "durationTicks": 20,
            "midi": 43,
            "name": "G2",
            "ticks": 87360,
            "time": 121.333394,
            "velocity": 1
          },
          {
            "duration": 0.027777791666650842,
            "durationTicks": 20,
            "midi": 55,
            "name": "G3",
            "ticks": 87600,
            "time": 121.66672750000001,
            "velocity": 1
          },
          {
            "duration": 0.027777791666650842,
            "durationTicks": 20,
            "midi": 59,
            "name": "B3",
            "ticks": 87600,
            "time": 121.66672750000001,
            "velocity": 1
          },
          {
            "duration": 0.027777791666650842,
            "durationTicks": 20,
            "midi": 62,
            "name": "D4",
            "ticks": 87600,
            "time": 121.66672750000001,
            "velocity": 1
          },
          {
            "duration": 0.027777791666665053,
            "durationTicks": 20,
            "midi": 55,
            "name": "G3",
            "ticks": 87840,
            "time": 122.000061,
            "velocity": 1
          },
          {
            "duration": 0.027777791666665053,
            "durationTicks": 20,
            "midi": 59,
            "name": "B3",
            "ticks": 87840,
            "time": 122.000061,
            "velocity": 1
          },
          {
            "duration": 0.027777791666665053,
            "durationTicks": 20,
            "midi": 62,
            "name": "D4",
            "ticks": 87840,
            "time": 122.000061,
            "velocity": 1
          },
          {
            "duration": 0.027777791666665053,
            "durationTicks": 20,
            "midi": 43,
            "name": "G2",
            "ticks": 88080,
            "time": 122.3333945,
            "velocity": 1
          },
          {
            "duration": 0.027777791666665053,
            "durationTicks": 20,
            "midi": 55,
            "name": "G3",
            "ticks": 88080,
            "time": 122.3333945,
            "velocity": 1
          },
          {
            "duration": 0.027777791666665053,
            "durationTicks": 20,
            "midi": 59,
            "name": "B3",
            "ticks": 88080,
            "time": 122.3333945,
            "velocity": 1
          },
          {
            "duration": 0.027777791666665053,
            "durationTicks": 20,
            "midi": 62,
            "name": "D4",
            "ticks": 88080,
            "time": 122.3333945,
            "velocity": 1
          },
          {
            "duration": 0.027777791666650842,
            "durationTicks": 20,
            "midi": 46,
            "name": "A#2",
            "ticks": 88320,
            "time": 122.666728,
            "velocity": 1
          },
          {
            "duration": 0.027777791666650842,
            "durationTicks": 20,
            "midi": 53,
            "name": "F3",
            "ticks": 88320,
            "time": 122.666728,
            "velocity": 1
          },
          {
            "duration": 0.027777791666650842,
            "durationTicks": 20,
            "midi": 58,
            "name": "A#3",
            "ticks": 88320,
            "time": 122.666728,
            "velocity": 1
          },
          {
            "duration": 0.027777791666665053,
            "durationTicks": 20,
            "midi": 62,
            "name": "D4",
            "ticks": 88440,
            "time": 122.83339475,
            "velocity": 1
          },
          {
            "duration": 0.027777791666665053,
            "durationTicks": 20,
            "midi": 41,
            "name": "F2",
            "ticks": 88560,
            "time": 123.0000615,
            "velocity": 1
          },
          {
            "duration": 0.027777791666665053,
            "durationTicks": 20,
            "midi": 41,
            "name": "F2",
            "ticks": 88800,
            "time": 123.333395,
            "velocity": 1
          },
          {
            "duration": 0.027777791666665053,
            "durationTicks": 20,
            "midi": 53,
            "name": "F3",
            "ticks": 88800,
            "time": 123.333395,
            "velocity": 1
          },
          {
            "duration": 0.027777791666665053,
            "durationTicks": 20,
            "midi": 57,
            "name": "A3",
            "ticks": 88800,
            "time": 123.333395,
            "velocity": 1
          },
          {
            "duration": 0.027777791666665053,
            "durationTicks": 20,
            "midi": 60,
            "name": "C4",
            "ticks": 88800,
            "time": 123.333395,
            "velocity": 1
          },
          {
            "duration": 0.04861113541666384,
            "durationTicks": 35,
            "midi": 53,
            "name": "F3",
            "ticks": 89040,
            "time": 123.6667285,
            "velocity": 1
          },
          {
            "duration": 0.06250003124999637,
            "durationTicks": 45,
            "midi": 57,
            "name": "A3",
            "ticks": 89040,
            "time": 123.6667285,
            "velocity": 1
          },
          {
            "duration": 0.055555583333330105,
            "durationTicks": 40,
            "midi": 60,
            "name": "C4",
            "ticks": 89040,
            "time": 123.6667285,
            "velocity": 1
          },
          {
            "duration": 0.06944447916666263,
            "durationTicks": 50,
            "midi": 65,
            "name": "F4",
            "ticks": 89040,
            "time": 123.6667285,
            "velocity": 1
          }
        ]
      },
      {
        "channel": 0,
        "controlChanges": {
          "0": [
            {
              "number": 0,
              "ticks": 0,
              "time": 0,
              "value": 0
            }
          ]
        },
        "pitchBends": [],
        "instrument": {
          "family": "piano",
          "number": 0,
          "name": "acoustic grand piano"
        },
        "name": "Bass",
        "notes": [],
        "endOfTrackTicks": 92160
      },
      {
        "channel": 3,
        "controlChanges": {
          "7": [
            {
              "number": 7,
              "ticks": 0,
              "time": 0,
              "value": 0.952755905511811
            }
          ],
          "10": [
            {
              "number": 10,
              "ticks": 0,
              "time": 0,
              "value": 0.5039370078740157
            }
          ]
        },
        "pitchBends": [],
        "instrument": {
          "family": "bass",
          "number": 32,
          "name": "acoustic bass"
        },
        "name": "",
        "notes": [
          {
            "duration": 1.1388894583333333,
            "durationTicks": 820,
            "midi": 41,
            "name": "F2",
            "ticks": 0,
            "time": 0,
            "velocity": 1
          },
          {
            "duration": 1.1111116666666667,
            "durationTicks": 800,
            "midi": 41,
            "name": "F2",
            "ticks": 960,
            "time": 1.333334,
            "velocity": 0.84251968503937
          },
          {
            "duration": 1.111111666666667,
            "durationTicks": 800,
            "midi": 41,
            "name": "F2",
            "ticks": 1920,
            "time": 2.666668,
            "velocity": 0.968503937007874
          },
          {
            "duration": 0.8055559583333327,
            "durationTicks": 580,
            "midi": 41,
            "name": "F2",
            "ticks": 2880,
            "time": 4.000002,
            "velocity": 0.968503937007874
          },
          {
            "duration": 0.2777779166666674,
            "durationTicks": 200,
            "midi": 38,
            "name": "D2",
            "ticks": 3600,
            "time": 5.0000025,
            "velocity": 1
          },
          {
            "duration": 0.8333337500000004,
            "durationTicks": 600,
            "midi": 40,
            "name": "E2",
            "ticks": 3840,
            "time": 5.333336,
            "velocity": 1
          },
          {
            "duration": 0.33333350000000017,
            "durationTicks": 240,
            "midi": 40,
            "name": "E2",
            "ticks": 4560,
            "time": 6.3333365,
            "velocity": 1
          },
          {
            "duration": 0.8333337500000004,
            "durationTicks": 600,
            "midi": 45,
            "name": "A2",
            "ticks": 4800,
            "time": 6.66667,
            "velocity": 0.7795275590551181
          },
          {
            "duration": 0.33333350000000017,
            "durationTicks": 240,
            "midi": 45,
            "name": "A2",
            "ticks": 5520,
            "time": 7.6666705,
            "velocity": 0.5590551181102362
          },
          {
            "duration": 1.2500006250000002,
            "durationTicks": 900,
            "midi": 50,
            "name": "D3",
            "ticks": 5760,
            "time": 8.000004,
            "velocity": 0.7480314960629921
          },
          {
            "duration": 0.6388892083333353,
            "durationTicks": 460,
            "midi": 50,
            "name": "D3",
            "ticks": 6720,
            "time": 9.333338,
            "velocity": 0.7480314960629921
          },
          {
            "duration": 0.6666670000000003,
            "durationTicks": 480,
            "midi": 48,
            "name": "C3",
            "ticks": 7200,
            "time": 10.000005,
            "velocity": 0.968503937007874
          },
          {
            "duration": 0.8055559583333327,
            "durationTicks": 580,
            "midi": 46,
            "name": "A#2",
            "ticks": 7680,
            "time": 10.666672,
            "velocity": 0.84251968503937
          },
          {
            "duration": 0.33333350000000017,
            "durationTicks": 240,
            "midi": 46,
            "name": "A#2",
            "ticks": 8400,
            "time": 11.6666725,
            "velocity": 0.8110236220472441
          },
          {
            "duration": 0.8333337499999995,
            "durationTicks": 600,
            "midi": 48,
            "name": "C3",
            "ticks": 8640,
            "time": 12.000006,
            "velocity": 0.8110236220472441
          },
          {
            "duration": 0.3611112916666688,
            "durationTicks": 260,
            "midi": 48,
            "name": "C3",
            "ticks": 9360,
            "time": 13.0000065,
            "velocity": 0.84251968503937
          },
          {
            "duration": 0.9444449166666686,
            "durationTicks": 680,
            "midi": 41,
            "name": "F2",
            "ticks": 9600,
            "time": 13.33334,
            "velocity": 0.905511811023622
          },
          {
            "duration": 0.22222233333333286,
            "durationTicks": 160,
            "midi": 41,
            "name": "F2",
            "ticks": 10320,
            "time": 14.3333405,
            "velocity": 0.49606299212598426
          },
          {
            "duration": 0.6666670000000003,
            "durationTicks": 480,
            "midi": 41,
            "name": "F2",
            "ticks": 10560,
            "time": 14.666674,
            "velocity": 0.905511811023622
          },
          {
            "duration": 0.6944447916666654,
            "durationTicks": 500,
            "midi": 40,
            "name": "E2",
            "ticks": 11040,
            "time": 15.333341,
            "velocity": 1
          },
          {
            "duration": 0.8888893333333314,
            "durationTicks": 640,
            "midi": 38,
            "name": "D2",
            "ticks": 11520,
            "time": 16.000008,
            "velocity": 1
          },
          {
            "duration": 0.30555570833333334,
            "durationTicks": 220,
            "midi": 38,
            "name": "D2",
            "ticks": 12240,
            "time": 17.0000085,
            "velocity": 0.968503937007874
          },
          {
            "duration": 0.8333337499999978,
            "durationTicks": 600,
            "midi": 43,
            "name": "G2",
            "ticks": 12480,
            "time": 17.333342000000002,
            "velocity": 0.7480314960629921
          },
          {
            "duration": 0.2777779166666683,
            "durationTicks": 200,
            "midi": 43,
            "name": "G2",
            "ticks": 13200,
            "time": 18.3333425,
            "velocity": 0.8110236220472441
          },
          {
            "duration": 0.527778041666668,
            "durationTicks": 380,
            "midi": 46,
            "name": "A#2",
            "ticks": 13440,
            "time": 18.666676,
            "velocity": 0.905511811023622
          },
          {
            "duration": 0.11111116666666732,
            "durationTicks": 80,
            "midi": 41,
            "name": "F2",
            "ticks": 13920,
            "time": 19.333343,
            "velocity": 0.84251968503937
          },
          {
            "duration": 1.444445166666668,
            "durationTicks": 1040,
            "midi": 41,
            "name": "F2",
            "ticks": 14160,
            "time": 19.6666765,
            "velocity": 0.905511811023622
          },
          {
            "duration": 1.111111666666666,
            "durationTicks": 800,
            "midi": 41,
            "name": "F2",
            "ticks": 15360,
            "time": 21.333344,
            "velocity": 1
          },
          {
            "duration": 0.9722227083333337,
            "durationTicks": 700,
            "midi": 41,
            "name": "F2",
            "ticks": 16320,
            "time": 22.666678,
            "velocity": 1
          },
          {
            "duration": 0.361111291666667,
            "durationTicks": 260,
            "midi": 38,
            "name": "D2",
            "ticks": 17040,
            "time": 23.6666785,
            "velocity": 1
          },
          {
            "duration": 0.888889333333335,
            "durationTicks": 640,
            "midi": 40,
            "name": "E2",
            "ticks": 17280,
            "time": 24.000012,
            "velocity": 1
          },
          {
            "duration": 0.30555570833333334,
            "durationTicks": 220,
            "midi": 40,
            "name": "E2",
            "ticks": 18000,
            "time": 25.0000125,
            "velocity": 1
          },
          {
            "duration": 0.8333337500000013,
            "durationTicks": 600,
            "midi": 45,
            "name": "A2",
            "ticks": 18240,
            "time": 25.333346,
            "velocity": 0.8110236220472441
          },
          {
            "duration": 0.3333334999999984,
            "durationTicks": 240,
            "midi": 45,
            "name": "A2",
            "ticks": 18960,
            "time": 26.3333465,
            "velocity": 0.7165354330708661
          },
          {
            "duration": 0.8333337500000013,
            "durationTicks": 600,
            "midi": 50,
            "name": "D3",
            "ticks": 19200,
            "time": 26.66668,
            "velocity": 0.7480314960629921
          },
          {
            "duration": 0.19444454166666247,
            "durationTicks": 140,
            "midi": 50,
            "name": "D3",
            "ticks": 19920,
            "time": 27.666680500000002,
            "velocity": 0.5275590551181102
          },
          {
            "duration": 0.6944447916666654,
            "durationTicks": 500,
            "midi": 50,
            "name": "D3",
            "ticks": 20160,
            "time": 28.000014,
            "velocity": 0.7165354330708661
          },
          {
            "duration": 0.6944447916666654,
            "durationTicks": 500,
            "midi": 48,
            "name": "C3",
            "ticks": 20640,
            "time": 28.666681,
            "velocity": 0.968503937007874
          },
          {
            "duration": 0.8055559583333327,
            "durationTicks": 580,
            "midi": 46,
            "name": "A#2",
            "ticks": 21120,
            "time": 29.333348,
            "velocity": 0.968503937007874
          },
          {
            "duration": 0.3055557083333369,
            "durationTicks": 220,
            "midi": 46,
            "name": "A#2",
            "ticks": 21840,
            "time": 30.3333485,
            "velocity": 0.905511811023622
          },
          {
            "duration": 0.7777781666666641,
            "durationTicks": 560,
            "midi": 48,
            "name": "C3",
            "ticks": 22080,
            "time": 30.666682,
            "velocity": 0.84251968503937
          },
          {
            "duration": 0.361111291666667,
            "durationTicks": 260,
            "midi": 48,
            "name": "C3",
            "ticks": 22800,
            "time": 31.6666825,
            "velocity": 0.7480314960629921
          },
          {
            "duration": 0.8888893333333314,
            "durationTicks": 640,
            "midi": 41,
            "name": "F2",
            "ticks": 23040,
            "time": 32.000016,
            "velocity": 0.968503937007874
          },
          {
            "duration": 0.19444454166666247,
            "durationTicks": 140,
            "midi": 41,
            "name": "F2",
            "ticks": 23760,
            "time": 33.0000165,
            "velocity": 0.84251968503937
          },
          {
            "duration": 0.6388892083333317,
            "durationTicks": 460,
            "midi": 41,
            "name": "F2",
            "ticks": 24000,
            "time": 33.33335,
            "velocity": 0.8110236220472441
          },
          {
            "duration": 0.6666670000000039,
            "durationTicks": 480,
            "midi": 40,
            "name": "E2",
            "ticks": 24480,
            "time": 34.000017,
            "velocity": 1
          },
          {
            "duration": 0.8055559583333292,
            "durationTicks": 580,
            "midi": 38,
            "name": "D2",
            "ticks": 24960,
            "time": 34.666684000000004,
            "velocity": 1
          },
          {
            "duration": 0.27777791666666474,
            "durationTicks": 200,
            "midi": 38,
            "name": "D2",
            "ticks": 25680,
            "time": 35.6666845,
            "velocity": 1
          },
          {
            "duration": 0.8611115416666664,
            "durationTicks": 620,
            "midi": 43,
            "name": "G2",
            "ticks": 25920,
            "time": 36.000018,
            "velocity": 1
          },
          {
            "duration": 0.38888908333333205,
            "durationTicks": 280,
            "midi": 43,
            "name": "G2",
            "ticks": 26640,
            "time": 37.0000185,
            "velocity": 0.8110236220472441
          },
          {
            "duration": 0.6111114166666667,
            "durationTicks": 440,
            "midi": 46,
            "name": "A#2",
            "ticks": 26880,
            "time": 37.333352,
            "velocity": 0.968503937007874
          },
          {
            "duration": 0.08333337500000226,
            "durationTicks": 60,
            "midi": 41,
            "name": "F2",
            "ticks": 27360,
            "time": 38.000019,
            "velocity": 0.8110236220472441
          },
          {
            "duration": 1.7222230833333327,
            "durationTicks": 1240,
            "midi": 41,
            "name": "F2",
            "ticks": 27600,
            "time": 38.333352500000004,
            "velocity": 1
          },
          {
            "duration": 0.8055559583333363,
            "durationTicks": 580,
            "midi": 40,
            "name": "E2",
            "ticks": 28800,
            "time": 40.00002,
            "velocity": 1
          },
          {
            "duration": 0.361111291666667,
            "durationTicks": 260,
            "midi": 40,
            "name": "E2",
            "ticks": 29520,
            "time": 41.0000205,
            "velocity": 0.8110236220472441
          },
          {
            "duration": 0.8333337500000013,
            "durationTicks": 600,
            "midi": 45,
            "name": "A2",
            "ticks": 29760,
            "time": 41.333354,
            "velocity": 0.968503937007874
          },
          {
            "duration": 0.33333350000000195,
            "durationTicks": 240,
            "midi": 45,
            "name": "A2",
            "ticks": 30480,
            "time": 42.3333545,
            "velocity": 0.7165354330708661
          },
          {
            "duration": 0.6111114166666667,
            "durationTicks": 440,
            "midi": 50,
            "name": "D3",
            "ticks": 30720,
            "time": 42.666688,
            "velocity": 0.7795275590551181
          },
          {
            "duration": 0.694444791666676,
            "durationTicks": 500,
            "midi": 48,
            "name": "C3",
            "ticks": 31200,
            "time": 43.333355,
            "velocity": 0.968503937007874
          },
          {
            "duration": 0.6388892083333317,
            "durationTicks": 460,
            "midi": 46,
            "name": "A#2",
            "ticks": 31680,
            "time": 44.000022,
            "velocity": 1
          },
          {
            "duration": 0.6388892083333317,
            "durationTicks": 460,
            "midi": 45,
            "name": "A2",
            "ticks": 32160,
            "time": 44.666689,
            "velocity": 0.968503937007874
          },
          {
            "duration": 0.8055559583333292,
            "durationTicks": 580,
            "midi": 43,
            "name": "G2",
            "ticks": 32640,
            "time": 45.333356,
            "velocity": 0.8110236220472441
          },
          {
            "duration": 0.3055557083333298,
            "durationTicks": 220,
            "midi": 43,
            "name": "G2",
            "ticks": 33360,
            "time": 46.3333565,
            "velocity": 0.8110236220472441
          },
          {
            "duration": 0.8055559583333292,
            "durationTicks": 580,
            "midi": 48,
            "name": "C3",
            "ticks": 33600,
            "time": 46.66669,
            "velocity": 0.8110236220472441
          },
          {
            "duration": 0.33333350000000195,
            "durationTicks": 240,
            "midi": 48,
            "name": "C3",
            "ticks": 34320,
            "time": 47.6666905,
            "velocity": 0.6850393700787402
          },
          {
            "duration": 0.8888893333333243,
            "durationTicks": 640,
            "midi": 41,
            "name": "F2",
            "ticks": 34560,
            "time": 48.000024,
            "velocity": 0.8110236220472441
          },
          {
            "duration": 0.16666674999999742,
            "durationTicks": 120,
            "midi": 41,
            "name": "F2",
            "ticks": 35280,
            "time": 49.0000245,
            "velocity": 0.6220472440944882
          },
          {
            "duration": 0.8333337499999942,
            "durationTicks": 600,
            "midi": 41,
            "name": "F2",
            "ticks": 35520,
            "time": 49.333358000000004,
            "velocity": 0.905511811023622
          },
          {
            "duration": 0.361111291666667,
            "durationTicks": 260,
            "midi": 41,
            "name": "F2",
            "ticks": 36240,
            "time": 50.3333585,
            "velocity": 0.6535433070866141
          },
          {
            "duration": 0.8333337500000013,
            "durationTicks": 600,
            "midi": 40,
            "name": "E2",
            "ticks": 36480,
            "time": 50.666692,
            "velocity": 1
          },
          {
            "duration": 0.361111291666667,
            "durationTicks": 260,
            "midi": 40,
            "name": "E2",
            "ticks": 37200,
            "time": 51.6666925,
            "velocity": 1
          },
          {
            "duration": 0.8611115416666735,
            "durationTicks": 620,
            "midi": 45,
            "name": "A2",
            "ticks": 37440,
            "time": 52.000026,
            "velocity": 0.968503937007874
          },
          {
            "duration": 0.38888908333332495,
            "durationTicks": 280,
            "midi": 45,
            "name": "A2",
            "ticks": 38160,
            "time": 53.000026500000004,
            "velocity": 0.7480314960629921
          },
          {
            "duration": 0.694444791666669,
            "durationTicks": 500,
            "midi": 50,
            "name": "D3",
            "ticks": 38400,
            "time": 53.33336,
            "velocity": 0.8110236220472441
          },
          {
            "duration": 0.6388892083333246,
            "durationTicks": 460,
            "midi": 48,
            "name": "C3",
            "ticks": 38880,
            "time": 54.000027,
            "velocity": 0.968503937007874
          },
          {
            "duration": 0.6666670000000039,
            "durationTicks": 480,
            "midi": 46,
            "name": "A#2",
            "ticks": 39360,
            "time": 54.666694,
            "velocity": 1
          },
          {
            "duration": 0.694444791666669,
            "durationTicks": 500,
            "midi": 45,
            "name": "A2",
            "ticks": 39840,
            "time": 55.333361000000004,
            "velocity": 0.968503937007874
          },
          {
            "duration": 0.8055559583333292,
            "durationTicks": 580,
            "midi": 43,
            "name": "G2",
            "ticks": 40320,
            "time": 56.000028,
            "velocity": 0.905511811023622
          },
          {
            "duration": 0.3055557083333298,
            "durationTicks": 220,
            "midi": 43,
            "name": "G2",
            "ticks": 41040,
            "time": 57.0000285,
            "velocity": 0.8110236220472441
          },
          {
            "duration": 0.8055559583333292,
            "durationTicks": 580,
            "midi": 48,
            "name": "C3",
            "ticks": 41280,
            "time": 57.333362,
            "velocity": 0.7165354330708661
          },
          {
            "duration": 0.3611112916666741,
            "durationTicks": 260,
            "midi": 48,
            "name": "C3",
            "ticks": 42000,
            "time": 58.3333625,
            "velocity": 0.8110236220472441
          },
          {
            "duration": 2.4166678750000017,
            "durationTicks": 1740,
            "midi": 41,
            "name": "F2",
            "ticks": 42240,
            "time": 58.666696,
            "velocity": 1
          },
          {
            "duration": 1.1944450416666683,
            "durationTicks": 860,
            "midi": 41,
            "name": "F2",
            "ticks": 44160,
            "time": 61.333364,
            "velocity": 1
          },
          {
            "duration": 1.0000004999999987,
            "durationTicks": 720,
            "midi": 41,
            "name": "F2",
            "ticks": 45120,
            "time": 62.666698000000004,
            "velocity": 1
          },
          {
            "duration": 0.361111291666667,
            "durationTicks": 260,
            "midi": 38,
            "name": "D2",
            "ticks": 45840,
            "time": 63.6666985,
            "velocity": 1
          },
          {
            "duration": 0.8611115416666593,
            "durationTicks": 620,
            "midi": 40,
            "name": "E2",
            "ticks": 46080,
            "time": 64.000032,
            "velocity": 1
          },
          {
            "duration": 0.3611112916666741,
            "durationTicks": 260,
            "midi": 40,
            "name": "E2",
            "ticks": 46800,
            "time": 65.0000325,
            "velocity": 1
          },
          {
            "duration": 0.8611115416666735,
            "durationTicks": 620,
            "midi": 45,
            "name": "A2",
            "ticks": 47040,
            "time": 65.333366,
            "velocity": 1
          },
          {
            "duration": 0.3611112916666741,
            "durationTicks": 260,
            "midi": 45,
            "name": "A2",
            "ticks": 47760,
            "time": 66.3333665,
            "velocity": 0.7480314960629921
          },
          {
            "duration": 0.8888893333333243,
            "durationTicks": 640,
            "midi": 50,
            "name": "D3",
            "ticks": 48000,
            "time": 66.6667,
            "velocity": 0.8110236220472441
          },
          {
            "duration": 0.19444454166666958,
            "durationTicks": 140,
            "midi": 50,
            "name": "D3",
            "ticks": 48720,
            "time": 67.6667005,
            "velocity": 0.49606299212598426
          },
          {
            "duration": 0.694444791666669,
            "durationTicks": 500,
            "midi": 50,
            "name": "D3",
            "ticks": 48960,
            "time": 68.000034,
            "velocity": 0.84251968503937
          },
          {
            "duration": 0.694444791666669,
            "durationTicks": 500,
            "midi": 48,
            "name": "C3",
            "ticks": 49440,
            "time": 68.666701,
            "velocity": 1
          },
          {
            "duration": 0.8055559583333292,
            "durationTicks": 580,
            "midi": 46,
            "name": "A#2",
            "ticks": 49920,
            "time": 69.33336800000001,
            "velocity": 0.968503937007874
          },
          {
            "duration": 0.33333349999999484,
            "durationTicks": 240,
            "midi": 46,
            "name": "A#2",
            "ticks": 50640,
            "time": 70.3333685,
            "velocity": 0.8110236220472441
          },
          {
            "duration": 0.8333337499999942,
            "durationTicks": 600,
            "midi": 48,
            "name": "C3",
            "ticks": 50880,
            "time": 70.666702,
            "velocity": 1
          },
          {
            "duration": 0.3611112916666741,
            "durationTicks": 260,
            "midi": 48,
            "name": "C3",
            "ticks": 51600,
            "time": 71.6667025,
            "velocity": 1
          },
          {
            "duration": 0.8333337500000084,
            "durationTicks": 600,
            "midi": 41,
            "name": "F2",
            "ticks": 51840,
            "time": 72.000036,
            "velocity": 0.968503937007874
          },
          {
            "duration": 0.13888895833332526,
            "durationTicks": 100,
            "midi": 41,
            "name": "F2",
            "ticks": 52560,
            "time": 73.00003650000001,
            "velocity": 0.84251968503937
          },
          {
            "duration": 0.6388892083333246,
            "durationTicks": 460,
            "midi": 41,
            "name": "F2",
            "ticks": 52800,
            "time": 73.33337,
            "velocity": 0.84251968503937
          },
          {
            "duration": 0.7222225833333198,
            "durationTicks": 520,
            "midi": 40,
            "name": "E2",
            "ticks": 53280,
            "time": 74.000037,
            "velocity": 1
          },
          {
            "duration": 0.8333337500000084,
            "durationTicks": 600,
            "midi": 38,
            "name": "D2",
            "ticks": 53760,
            "time": 74.666704,
            "velocity": 1
          },
          {
            "duration": 0.3611112916666741,
            "durationTicks": 260,
            "midi": 38,
            "name": "D2",
            "ticks": 54480,
            "time": 75.6667045,
            "velocity": 1
          },
          {
            "duration": 0.8611115416666735,
            "durationTicks": 620,
            "midi": 43,
            "name": "G2",
            "ticks": 54720,
            "time": 76.000038,
            "velocity": 1
          },
          {
            "duration": 0.3611112916666741,
            "durationTicks": 260,
            "midi": 43,
            "name": "G2",
            "ticks": 55440,
            "time": 77.0000385,
            "velocity": 0.7480314960629921
          },
          {
            "duration": 0.6111114166666738,
            "durationTicks": 440,
            "midi": 46,
            "name": "A#2",
            "ticks": 55680,
            "time": 77.333372,
            "velocity": 0.84251968503937
          },
          {
            "duration": 0.08333337499999516,
            "durationTicks": 60,
            "midi": 41,
            "name": "F2",
            "ticks": 56160,
            "time": 78.000039,
            "velocity": 0.905511811023622
          },
          {
            "duration": 1.6666675000000026,
            "durationTicks": 1200,
            "midi": 41,
            "name": "F2",
            "ticks": 56400,
            "time": 78.3333725,
            "velocity": 0.968503937007874
          },
          {
            "duration": 0.8055559583333292,
            "durationTicks": 580,
            "midi": 40,
            "name": "E2",
            "ticks": 57600,
            "time": 80.00004,
            "velocity": 1
          },
          {
            "duration": 0.33333350000000905,
            "durationTicks": 240,
            "midi": 40,
            "name": "E2",
            "ticks": 58320,
            "time": 81.0000405,
            "velocity": 0.84251968503937
          },
          {
            "duration": 0.8055559583333292,
            "durationTicks": 580,
            "midi": 45,
            "name": "A2",
            "ticks": 58560,
            "time": 81.333374,
            "velocity": 0.968503937007874
          },
          {
            "duration": 0.3611112916666599,
            "durationTicks": 260,
            "midi": 45,
            "name": "A2",
            "ticks": 59280,
            "time": 82.3333745,
            "velocity": 0.8110236220472441
          },
          {
            "duration": 0.694444791666669,
            "durationTicks": 500,
            "midi": 50,
            "name": "D3",
            "ticks": 59520,
            "time": 82.666708,
            "velocity": 0.7480314960629921
          },
          {
            "duration": 0.6666670000000039,
            "durationTicks": 480,
            "midi": 48,
            "name": "C3",
            "ticks": 60000,
            "time": 83.333375,
            "velocity": 0.905511811023622
          },
          {
            "duration": 0.694444791666669,
            "durationTicks": 500,
            "midi": 46,
            "name": "A#2",
            "ticks": 60480,
            "time": 84.00004200000001,
            "velocity": 1
          },
          {
            "duration": 0.694444791666669,
            "durationTicks": 500,
            "midi": 45,
            "name": "A2",
            "ticks": 60960,
            "time": 84.666709,
            "velocity": 1
          },
          {
            "duration": 0.7777781666666641,
            "durationTicks": 560,
            "midi": 43,
            "name": "G2",
            "ticks": 61440,
            "time": 85.333376,
            "velocity": 1
          },
          {
            "duration": 0.33333349999999484,
            "durationTicks": 240,
            "midi": 43,
            "name": "G2",
            "ticks": 62160,
            "time": 86.3333765,
            "velocity": 0.968503937007874
          },
          {
            "duration": 0.8055559583333434,
            "durationTicks": 580,
            "midi": 48,
            "name": "C3",
            "ticks": 62400,
            "time": 86.66671,
            "velocity": 0.7795275590551181
          },
          {
            "duration": 0.2777779166666505,
            "durationTicks": 200,
            "midi": 48,
            "name": "C3",
            "ticks": 63120,
            "time": 87.66671050000001,
            "velocity": 0.905511811023622
          },
          {
            "duration": 0.8611115416666593,
            "durationTicks": 620,
            "midi": 41,
            "name": "F2",
            "ticks": 63360,
            "time": 88.000044,
            "velocity": 1
          },
          {
            "duration": 0.16666675000000453,
            "durationTicks": 120,
            "midi": 41,
            "name": "F2",
            "ticks": 64080,
            "time": 89.0000445,
            "velocity": 0.7165354330708661
          },
          {
            "duration": 0.9444449166666686,
            "durationTicks": 680,
            "midi": 41,
            "name": "F2",
            "ticks": 64320,
            "time": 89.333378,
            "velocity": 0.905511811023622
          },
          {
            "duration": 0.38888908333333916,
            "durationTicks": 280,
            "midi": 41,
            "name": "F2",
            "ticks": 65040,
            "time": 90.3333785,
            "velocity": 0.6850393700787402
          },
          {
            "duration": 0.8611115416666593,
            "durationTicks": 620,
            "midi": 40,
            "name": "E2",
            "ticks": 65280,
            "time": 90.666712,
            "velocity": 1
          },
          {
            "duration": 0.3611112916666599,
            "durationTicks": 260,
            "midi": 40,
            "name": "E2",
            "ticks": 66000,
            "time": 91.6667125,
            "velocity": 1
          },
          {
            "duration": 0.8333337500000084,
            "durationTicks": 600,
            "midi": 45,
            "name": "A2",
            "ticks": 66240,
            "time": 92.000046,
            "velocity": 0.84251968503937
          },
          {
            "duration": 0.33333350000000905,
            "durationTicks": 240,
            "midi": 45,
            "name": "A2",
            "ticks": 66960,
            "time": 93.0000465,
            "velocity": 0.84251968503937
          },
          {
            "duration": 0.722222583333334,
            "durationTicks": 520,
            "midi": 50,
            "name": "D3",
            "ticks": 67200,
            "time": 93.33338,
            "velocity": 0.7480314960629921
          },
          {
            "duration": 0.6666670000000039,
            "durationTicks": 480,
            "midi": 48,
            "name": "C3",
            "ticks": 67680,
            "time": 94.000047,
            "velocity": 1
          },
          {
            "duration": 0.694444791666669,
            "durationTicks": 500,
            "midi": 46,
            "name": "A#2",
            "ticks": 68160,
            "time": 94.666714,
            "velocity": 1
          },
          {
            "duration": 0.6944447916666547,
            "durationTicks": 500,
            "midi": 45,
            "name": "A2",
            "ticks": 68640,
            "time": 95.333381,
            "velocity": 0.968503937007874
          },
          {
            "duration": 0.8055559583333292,
            "durationTicks": 580,
            "midi": 43,
            "name": "G2",
            "ticks": 69120,
            "time": 96.000048,
            "velocity": 0.7795275590551181
          },
          {
            "duration": 0.3611112916666599,
            "durationTicks": 260,
            "midi": 43,
            "name": "G2",
            "ticks": 69840,
            "time": 97.0000485,
            "velocity": 0.7795275590551181
          },
          {
            "duration": 0.8333337499999942,
            "durationTicks": 600,
            "midi": 48,
            "name": "C3",
            "ticks": 70080,
            "time": 97.333382,
            "velocity": 0.7480314960629921
          },
          {
            "duration": 0.33333350000000905,
            "durationTicks": 240,
            "midi": 48,
            "name": "C3",
            "ticks": 70800,
            "time": 98.3333825,
            "velocity": 0.7795275590551181
          },
          {
            "duration": 2.472223458333332,
            "durationTicks": 1780,
            "midi": 41,
            "name": "F2",
            "ticks": 71040,
            "time": 98.66671600000001,
            "velocity": 1
          },
          {
            "duration": 1.1944450416666683,
            "durationTicks": 860,
            "midi": 41,
            "name": "F2",
            "ticks": 72960,
            "time": 101.333384,
            "velocity": 1
          },
          {
            "duration": 1.0000004999999987,
            "durationTicks": 720,
            "midi": 41,
            "name": "F2",
            "ticks": 73920,
            "time": 102.666718,
            "velocity": 1
          },
          {
            "duration": 0.305555708333344,
            "durationTicks": 220,
            "midi": 38,
            "name": "D2",
            "ticks": 74640,
            "time": 103.6667185,
            "velocity": 1
          },
          {
            "duration": 0.8333337500000084,
            "durationTicks": 600,
            "midi": 40,
            "name": "E2",
            "ticks": 74880,
            "time": 104.000052,
            "velocity": 1
          },
          {
            "duration": 0.33333350000000905,
            "durationTicks": 240,
            "midi": 40,
            "name": "E2",
            "ticks": 75600,
            "time": 105.0000525,
            "velocity": 1
          },
          {
            "duration": 0.8333337499999942,
            "durationTicks": 600,
            "midi": 45,
            "name": "A2",
            "ticks": 75840,
            "time": 105.333386,
            "velocity": 0.905511811023622
          },
          {
            "duration": 0.33333349999999484,
            "durationTicks": 240,
            "midi": 45,
            "name": "A2",
            "ticks": 76560,
            "time": 106.3333865,
            "velocity": 0.7480314960629921
          },
          {
            "duration": 0.8611115416666593,
            "durationTicks": 620,
            "midi": 50,
            "name": "D3",
            "ticks": 76800,
            "time": 106.66672,
            "velocity": 0.8110236220472441
          },
          {
            "duration": 0.19444454166666958,
            "durationTicks": 140,
            "midi": 50,
            "name": "D3",
            "ticks": 77520,
            "time": 107.6667205,
            "velocity": 0.6850393700787402
          },
          {
            "duration": 0.6944447916666547,
            "durationTicks": 500,
            "midi": 50,
            "name": "D3",
            "ticks": 77760,
            "time": 108.000054,
            "velocity": 0.7165354330708661
          },
          {
            "duration": 0.694444791666669,
            "durationTicks": 500,
            "midi": 48,
            "name": "C3",
            "ticks": 78240,
            "time": 108.666721,
            "velocity": 1
          },
          {
            "duration": 0.8333337500000084,
            "durationTicks": 600,
            "midi": 46,
            "name": "A#2",
            "ticks": 78720,
            "time": 109.333388,
            "velocity": 0.905511811023622
          },
          {
            "duration": 0.305555708333344,
            "durationTicks": 220,
            "midi": 46,
            "name": "A#2",
            "ticks": 79440,
            "time": 110.3333885,
            "velocity": 0.8110236220472441
          },
          {
            "duration": 0.8055559583333292,
            "durationTicks": 580,
            "midi": 48,
            "name": "C3",
            "ticks": 79680,
            "time": 110.66672200000001,
            "velocity": 0.905511811023622
          },
          {
            "duration": 0.33333349999999484,
            "durationTicks": 240,
            "midi": 48,
            "name": "C3",
            "ticks": 80400,
            "time": 111.6667225,
            "velocity": 0.7480314960629921
          },
          {
            "duration": 0.8333337499999942,
            "durationTicks": 600,
            "midi": 41,
            "name": "F2",
            "ticks": 80640,
            "time": 112.000056,
            "velocity": 0.8110236220472441
          },
          {
            "duration": 0.11111116666666021,
            "durationTicks": 80,
            "midi": 41,
            "name": "F2",
            "ticks": 81360,
            "time": 113.0000565,
            "velocity": 0.6850393700787402
          },
          {
            "duration": 0.6666669999999897,
            "durationTicks": 480,
            "midi": 41,
            "name": "F2",
            "ticks": 81600,
            "time": 113.33339000000001,
            "velocity": 0.7795275590551181
          },
          {
            "duration": 0.7222225833333482,
            "durationTicks": 520,
            "midi": 40,
            "name": "E2",
            "ticks": 82080,
            "time": 114.000057,
            "velocity": 1
          },
          {
            "duration": 0.8055559583333434,
            "durationTicks": 580,
            "midi": 38,
            "name": "D2",
            "ticks": 82560,
            "time": 114.666724,
            "velocity": 1
          },
          {
            "duration": 0.27777791666666474,
            "durationTicks": 200,
            "midi": 38,
            "name": "D2",
            "ticks": 83280,
            "time": 115.6667245,
            "velocity": 0.968503937007874
          },
          {
            "duration": 0.8611115416666593,
            "durationTicks": 620,
            "midi": 43,
            "name": "G2",
            "ticks": 83520,
            "time": 116.000058,
            "velocity": 1
          },
          {
            "duration": 0.33333349999999484,
            "durationTicks": 240,
            "midi": 43,
            "name": "G2",
            "ticks": 84240,
            "time": 117.00005850000001,
            "velocity": 0.968503937007874
          },
          {
            "duration": 0.6666670000000039,
            "durationTicks": 480,
            "midi": 46,
            "name": "A#2",
            "ticks": 84480,
            "time": 117.333392,
            "velocity": 1
          },
          {
            "duration": 0.11111116666666021,
            "durationTicks": 80,
            "midi": 41,
            "name": "F2",
            "ticks": 84960,
            "time": 118.00005900000001,
            "velocity": 0.968503937007874
          },
          {
            "duration": 1.416667375000003,
            "durationTicks": 1020,
            "midi": 41,
            "name": "F2",
            "ticks": 85200,
            "time": 118.3333925,
            "velocity": 1
          },
          {
            "duration": 0.722222583333334,
            "durationTicks": 520,
            "midi": 41,
            "name": "F2",
            "ticks": 86400,
            "time": 120.00006,
            "velocity": 0.905511811023622
          },
          {
            "duration": 0.3611112916666599,
            "durationTicks": 260,
            "midi": 41,
            "name": "F2",
            "ticks": 87120,
            "time": 121.0000605,
            "velocity": 0.84251968503937
          },
          {
            "duration": 0.9166671250000036,
            "durationTicks": 660,
            "midi": 43,
            "name": "G2",
            "ticks": 87360,
            "time": 121.333394,
            "velocity": 1
          },
          {
            "duration": 0.3611112916666599,
            "durationTicks": 260,
            "midi": 43,
            "name": "G2",
            "ticks": 88080,
            "time": 122.3333945,
            "velocity": 0.8110236220472441
          },
          {
            "duration": 0.5277780416666502,
            "durationTicks": 380,
            "midi": 46,
            "name": "A#2",
            "ticks": 88320,
            "time": 122.666728,
            "velocity": 0.905511811023622
          },
          {
            "duration": 0.11111116666666021,
            "durationTicks": 80,
            "midi": 41,
            "name": "F2",
            "ticks": 88800,
            "time": 123.333395,
            "velocity": 0.8110236220472441
          },
          {
            "duration": 2.583334624999992,
            "durationTicks": 1860,
            "midi": 41,
            "name": "F2",
            "ticks": 89040,
            "time": 123.6667285,
            "velocity": 1
          }
        ]
      },
      {
        "channel": 0,
        "controlChanges": {
          "0": [
            {
              "number": 0,
              "ticks": 0,
              "time": 0,
              "value": 0
            }
          ]
        },
        "pitchBends": [],
        "instrument": {
          "family": "piano",
          "number": 0,
          "name": "acoustic grand piano"
        },
        "name": "Cello",
        "notes": [],
        "endOfTrackTicks": 92160
      },
      {
        "channel": 4,
        "controlChanges": {
          "7": [
            {
              "number": 7,
              "ticks": 0,
              "time": 0,
              "value": 1
            }
          ]
        },
        "pitchBends": [],
        "instrument": {
          "family": "strings",
          "number": 42,
          "name": "cello"
        },
        "name": "",
        "notes": [
          {
            "duration": 0.11111116666666376,
            "durationTicks": 80,
            "midi": 46,
            "name": "A#2",
            "ticks": 16200,
            "time": 22.50001125,
            "velocity": 0.7874015748031497
          },
          {
            "duration": 0.4444446666666657,
            "durationTicks": 320,
            "midi": 48,
            "name": "C3",
            "ticks": 16320,
            "time": 22.666678,
            "velocity": 0.7874015748031497
          },
          {
            "duration": 0.4444446666666657,
            "durationTicks": 320,
            "midi": 53,
            "name": "F3",
            "ticks": 16800,
            "time": 23.333345,
            "velocity": 0.7874015748031497
          },
          {
            "duration": 0.888889333333335,
            "durationTicks": 640,
            "midi": 52,
            "name": "E3",
            "ticks": 17280,
            "time": 24.000012,
            "velocity": 0.7874015748031497
          },
          {
            "duration": 0.888889333333335,
            "durationTicks": 640,
            "midi": 45,
            "name": "A2",
            "ticks": 18240,
            "time": 25.333346,
            "velocity": 0.7874015748031497
          },
          {
            "duration": 0.888889333333335,
            "durationTicks": 640,
            "midi": 50,
            "name": "D3",
            "ticks": 19200,
            "time": 26.66668,
            "velocity": 0.7874015748031497
          },
          {
            "duration": 0.4444446666666657,
            "durationTicks": 320,
            "midi": 50,
            "name": "D3",
            "ticks": 20160,
            "time": 28.000014,
            "velocity": 0.7874015748031497
          },
          {
            "duration": 0.4444446666666657,
            "durationTicks": 320,
            "midi": 48,
            "name": "C3",
            "ticks": 20640,
            "time": 28.666681,
            "velocity": 0.7874015748031497
          },
          {
            "duration": 0.888889333333335,
            "durationTicks": 640,
            "midi": 46,
            "name": "A#2",
            "ticks": 21120,
            "time": 29.333348,
            "velocity": 0.7874015748031497
          },
          {
            "duration": 0.888889333333335,
            "durationTicks": 640,
            "midi": 48,
            "name": "C3",
            "ticks": 22080,
            "time": 30.666682,
            "velocity": 0.7874015748031497
          },
          {
            "duration": 0.8888893333333314,
            "durationTicks": 640,
            "midi": 53,
            "name": "F3",
            "ticks": 23040,
            "time": 32.000016,
            "velocity": 0.7874015748031497
          },
          {
            "duration": 0.44444466666666216,
            "durationTicks": 320,
            "midi": 53,
            "name": "F3",
            "ticks": 24000,
            "time": 33.33335,
            "velocity": 0.7874015748031497
          },
          {
            "duration": 0.44444466666666926,
            "durationTicks": 320,
            "midi": 52,
            "name": "E3",
            "ticks": 24480,
            "time": 34.000017,
            "velocity": 0.7874015748031497
          },
          {
            "duration": 0.8888893333333314,
            "durationTicks": 640,
            "midi": 50,
            "name": "D3",
            "ticks": 24960,
            "time": 34.666684000000004,
            "velocity": 0.7874015748031497
          },
          {
            "duration": 0.8888893333333385,
            "durationTicks": 640,
            "midi": 43,
            "name": "G2",
            "ticks": 25920,
            "time": 36.000018,
            "velocity": 0.7874015748031497
          },
          {
            "duration": 0.6111114166666667,
            "durationTicks": 440,
            "midi": 46,
            "name": "A#2",
            "ticks": 26880,
            "time": 37.333352,
            "velocity": 0.968503937007874
          },
          {
            "duration": 0.08333337500000226,
            "durationTicks": 60,
            "midi": 41,
            "name": "F2",
            "ticks": 27360,
            "time": 38.000019,
            "velocity": 0.8110236220472441
          },
          {
            "duration": 1.7222230833333327,
            "durationTicks": 1240,
            "midi": 41,
            "name": "F2",
            "ticks": 27600,
            "time": 38.333352500000004,
            "velocity": 1
          },
          {
            "duration": 0.8888893333333385,
            "durationTicks": 640,
            "midi": 45,
            "name": "A2",
            "ticks": 28800,
            "time": 40.00002,
            "velocity": 0.7874015748031497
          },
          {
            "duration": 0.8888893333333385,
            "durationTicks": 640,
            "midi": 45,
            "name": "A2",
            "ticks": 29760,
            "time": 41.333354,
            "velocity": 0.7874015748031497
          },
          {
            "duration": 0.44444466666666926,
            "durationTicks": 320,
            "midi": 50,
            "name": "D3",
            "ticks": 30720,
            "time": 42.666688,
            "velocity": 0.7874015748031497
          },
          {
            "duration": 0.44444466666667637,
            "durationTicks": 320,
            "midi": 48,
            "name": "C3",
            "ticks": 31200,
            "time": 43.333355,
            "velocity": 0.7874015748031497
          },
          {
            "duration": 0.44444466666666926,
            "durationTicks": 320,
            "midi": 46,
            "name": "A#2",
            "ticks": 31680,
            "time": 44.000022,
            "velocity": 0.7874015748031497
          },
          {
            "duration": 0.44444466666666926,
            "durationTicks": 320,
            "midi": 45,
            "name": "A2",
            "ticks": 32160,
            "time": 44.666689,
            "velocity": 0.7874015748031497
          },
          {
            "duration": 0.8888893333333314,
            "durationTicks": 640,
            "midi": 43,
            "name": "G2",
            "ticks": 32640,
            "time": 45.333356,
            "velocity": 0.7874015748031497
          },
          {
            "duration": 0.8888893333333314,
            "durationTicks": 640,
            "midi": 48,
            "name": "C3",
            "ticks": 33600,
            "time": 46.66669,
            "velocity": 0.7874015748031497
          },
          {
            "duration": 0.44444466666666926,
            "durationTicks": 320,
            "midi": 41,
            "name": "F2",
            "ticks": 34560,
            "time": 48.000024,
            "velocity": 0.7874015748031497
          },
          {
            "duration": 0.11111116666666732,
            "durationTicks": 80,
            "midi": 46,
            "name": "A#2",
            "ticks": 34920,
            "time": 48.50002425,
            "velocity": 0.7874015748031497
          },
          {
            "duration": 0.44444466666666926,
            "durationTicks": 320,
            "midi": 48,
            "name": "C3",
            "ticks": 35040,
            "time": 48.666691,
            "velocity": 0.7874015748031497
          },
          {
            "duration": 0.44444466666666926,
            "durationTicks": 320,
            "midi": 53,
            "name": "F3",
            "ticks": 35520,
            "time": 49.333358000000004,
            "velocity": 0.7874015748031497
          },
          {
            "duration": 0.44444466666666926,
            "durationTicks": 320,
            "midi": 52,
            "name": "E3",
            "ticks": 36000,
            "time": 50.000025,
            "velocity": 0.7874015748031497
          },
          {
            "duration": 0.8888893333333314,
            "durationTicks": 640,
            "midi": 45,
            "name": "A2",
            "ticks": 36480,
            "time": 50.666692,
            "velocity": 0.7874015748031497
          },
          {
            "duration": 0.8888893333333314,
            "durationTicks": 640,
            "midi": 45,
            "name": "A2",
            "ticks": 37440,
            "time": 52.000026,
            "velocity": 0.7874015748031497
          },
          {
            "duration": 0.44444466666666926,
            "durationTicks": 320,
            "midi": 50,
            "name": "D3",
            "ticks": 38400,
            "time": 53.33336,
            "velocity": 0.7874015748031497
          },
          {
            "duration": 0.44444466666666926,
            "durationTicks": 320,
            "midi": 48,
            "name": "C3",
            "ticks": 38880,
            "time": 54.000027,
            "velocity": 0.7874015748031497
          },
          {
            "duration": 0.44444466666666926,
            "durationTicks": 320,
            "midi": 46,
            "name": "A#2",
            "ticks": 39360,
            "time": 54.666694,
            "velocity": 0.7874015748031497
          },
          {
            "duration": 0.44444466666666926,
            "durationTicks": 320,
            "midi": 45,
            "name": "A2",
            "ticks": 39840,
            "time": 55.333361000000004,
            "velocity": 0.7874015748031497
          },
          {
            "duration": 0.8888893333333314,
            "durationTicks": 640,
            "midi": 43,
            "name": "G2",
            "ticks": 40320,
            "time": 56.000028,
            "velocity": 0.7874015748031497
          },
          {
            "duration": 0.8888893333333314,
            "durationTicks": 640,
            "midi": 48,
            "name": "C3",
            "ticks": 41280,
            "time": 57.333362,
            "velocity": 0.7874015748031497
          },
          {
            "duration": 1.784723114583329,
            "durationTicks": 1285,
            "midi": 41,
            "name": "F2",
            "ticks": 42240,
            "time": 58.666696,
            "velocity": 0.7874015748031497
          },
          {
            "duration": 0.8888893333333314,
            "durationTicks": 640,
            "midi": 41,
            "name": "F2",
            "ticks": 44160,
            "time": 61.333364,
            "velocity": 0.7874015748031497
          },
          {
            "duration": 0.44444466666666926,
            "durationTicks": 320,
            "midi": 48,
            "name": "C3",
            "ticks": 45120,
            "time": 62.666698000000004,
            "velocity": 0.7874015748031497
          },
          {
            "duration": 0.11111116666666732,
            "durationTicks": 80,
            "midi": 52,
            "name": "E3",
            "ticks": 45480,
            "time": 63.16669825,
            "velocity": 0.7874015748031497
          },
          {
            "duration": 0.44444466666666926,
            "durationTicks": 320,
            "midi": 53,
            "name": "F3",
            "ticks": 45600,
            "time": 63.333365,
            "velocity": 0.7874015748031497
          },
          {
            "duration": 0.8888893333333243,
            "durationTicks": 640,
            "midi": 52,
            "name": "E3",
            "ticks": 46080,
            "time": 64.000032,
            "velocity": 0.7874015748031497
          },
          {
            "duration": 0.8888893333333385,
            "durationTicks": 640,
            "midi": 45,
            "name": "A2",
            "ticks": 47040,
            "time": 65.333366,
            "velocity": 0.7874015748031497
          },
          {
            "duration": 0.8888893333333243,
            "durationTicks": 640,
            "midi": 50,
            "name": "D3",
            "ticks": 48000,
            "time": 66.6667,
            "velocity": 0.7874015748031497
          },
          {
            "duration": 0.44444466666666926,
            "durationTicks": 320,
            "midi": 50,
            "name": "D3",
            "ticks": 48960,
            "time": 68.000034,
            "velocity": 0.7874015748031497
          },
          {
            "duration": 0.44444466666666926,
            "durationTicks": 320,
            "midi": 48,
            "name": "C3",
            "ticks": 49440,
            "time": 68.666701,
            "velocity": 0.7874015748031497
          },
          {
            "duration": 0.8888893333333243,
            "durationTicks": 640,
            "midi": 46,
            "name": "A#2",
            "ticks": 49920,
            "time": 69.33336800000001,
            "velocity": 0.7874015748031497
          },
          {
            "duration": 0.8888893333333243,
            "durationTicks": 640,
            "midi": 48,
            "name": "C3",
            "ticks": 50880,
            "time": 70.666702,
            "velocity": 0.7874015748031497
          },
          {
            "duration": 0.8888893333333385,
            "durationTicks": 640,
            "midi": 53,
            "name": "F3",
            "ticks": 51840,
            "time": 72.000036,
            "velocity": 0.7874015748031497
          },
          {
            "duration": 0.44444466666666926,
            "durationTicks": 320,
            "midi": 53,
            "name": "F3",
            "ticks": 52800,
            "time": 73.33337,
            "velocity": 0.7874015748031497
          },
          {
            "duration": 0.44444466666666926,
            "durationTicks": 320,
            "midi": 52,
            "name": "E3",
            "ticks": 53280,
            "time": 74.000037,
            "velocity": 0.7874015748031497
          },
          {
            "duration": 0.8888893333333385,
            "durationTicks": 640,
            "midi": 50,
            "name": "D3",
            "ticks": 53760,
            "time": 74.666704,
            "velocity": 0.7874015748031497
          },
          {
            "duration": 0.8888893333333243,
            "durationTicks": 640,
            "midi": 43,
            "name": "G2",
            "ticks": 54720,
            "time": 76.000038,
            "velocity": 0.7874015748031497
          },
          {
            "duration": 0.6111114166666738,
            "durationTicks": 440,
            "midi": 46,
            "name": "A#2",
            "ticks": 55680,
            "time": 77.333372,
            "velocity": 0.968503937007874
          },
          {
            "duration": 0.08333337499999516,
            "durationTicks": 60,
            "midi": 41,
            "name": "F2",
            "ticks": 56160,
            "time": 78.000039,
            "velocity": 0.8110236220472441
          },
          {
            "duration": 1.7222230833333327,
            "durationTicks": 1240,
            "midi": 41,
            "name": "F2",
            "ticks": 56400,
            "time": 78.3333725,
            "velocity": 1
          },
          {
            "duration": 0.8888893333333385,
            "durationTicks": 640,
            "midi": 45,
            "name": "A2",
            "ticks": 57600,
            "time": 80.00004,
            "velocity": 0.7874015748031497
          },
          {
            "duration": 0.8888893333333243,
            "durationTicks": 640,
            "midi": 45,
            "name": "A2",
            "ticks": 58560,
            "time": 81.333374,
            "velocity": 0.7874015748031497
          },
          {
            "duration": 0.44444466666666926,
            "durationTicks": 320,
            "midi": 50,
            "name": "D3",
            "ticks": 59520,
            "time": 82.666708,
            "velocity": 0.7874015748031497
          },
          {
            "duration": 0.44444466666666926,
            "durationTicks": 320,
            "midi": 48,
            "name": "C3",
            "ticks": 60000,
            "time": 83.333375,
            "velocity": 0.7874015748031497
          },
          {
            "duration": 0.44444466666666926,
            "durationTicks": 320,
            "midi": 46,
            "name": "A#2",
            "ticks": 60480,
            "time": 84.00004200000001,
            "velocity": 0.7874015748031497
          },
          {
            "duration": 0.44444466666666926,
            "durationTicks": 320,
            "midi": 45,
            "name": "A2",
            "ticks": 60960,
            "time": 84.666709,
            "velocity": 0.7874015748031497
          },
          {
            "duration": 0.8888893333333385,
            "durationTicks": 640,
            "midi": 43,
            "name": "G2",
            "ticks": 61440,
            "time": 85.333376,
            "velocity": 0.7874015748031497
          },
          {
            "duration": 0.8888893333333527,
            "durationTicks": 640,
            "midi": 36,
            "name": "C2",
            "ticks": 62400,
            "time": 86.66671,
            "velocity": 0.7874015748031497
          },
          {
            "duration": 0.44444466666665505,
            "durationTicks": 320,
            "midi": 41,
            "name": "F2",
            "ticks": 63360,
            "time": 88.000044,
            "velocity": 0.7874015748031497
          },
          {
            "duration": 0.11111116666666021,
            "durationTicks": 80,
            "midi": 46,
            "name": "A#2",
            "ticks": 63720,
            "time": 88.50004425,
            "velocity": 0.7874015748031497
          },
          {
            "duration": 0.44444466666665505,
            "durationTicks": 320,
            "midi": 48,
            "name": "C3",
            "ticks": 63840,
            "time": 88.666711,
            "velocity": 0.7874015748031497
          },
          {
            "duration": 0.44444466666666926,
            "durationTicks": 320,
            "midi": 53,
            "name": "F3",
            "ticks": 64320,
            "time": 89.333378,
            "velocity": 0.7874015748031497
          },
          {
            "duration": 0.44444466666665505,
            "durationTicks": 320,
            "midi": 52,
            "name": "E3",
            "ticks": 64800,
            "time": 90.000045,
            "velocity": 0.7874015748031497
          },
          {
            "duration": 0.8888893333333385,
            "durationTicks": 640,
            "midi": 45,
            "name": "A2",
            "ticks": 65280,
            "time": 90.666712,
            "velocity": 0.7874015748031497
          },
          {
            "duration": 0.8888893333333385,
            "durationTicks": 640,
            "midi": 45,
            "name": "A2",
            "ticks": 66240,
            "time": 92.000046,
            "velocity": 0.7874015748031497
          },
          {
            "duration": 0.44444466666665505,
            "durationTicks": 320,
            "midi": 50,
            "name": "D3",
            "ticks": 67200,
            "time": 93.33338,
            "velocity": 0.7874015748031497
          },
          {
            "duration": 0.44444466666666926,
            "durationTicks": 320,
            "midi": 48,
            "name": "C3",
            "ticks": 67680,
            "time": 94.000047,
            "velocity": 0.7874015748031497
          },
          {
            "duration": 0.44444466666666926,
            "durationTicks": 320,
            "midi": 46,
            "name": "A#2",
            "ticks": 68160,
            "time": 94.666714,
            "velocity": 0.7874015748031497
          },
          {
            "duration": 0.44444466666665505,
            "durationTicks": 320,
            "midi": 45,
            "name": "A2",
            "ticks": 68640,
            "time": 95.333381,
            "velocity": 0.7874015748031497
          },
          {
            "duration": 0.8888893333333385,
            "durationTicks": 640,
            "midi": 43,
            "name": "G2",
            "ticks": 69120,
            "time": 96.000048,
            "velocity": 0.7874015748031497
          },
          {
            "duration": 0.8888893333333385,
            "durationTicks": 640,
            "midi": 48,
            "name": "C3",
            "ticks": 70080,
            "time": 97.333382,
            "velocity": 0.7874015748031497
          },
          {
            "duration": 0.44444466666665505,
            "durationTicks": 320,
            "midi": 41,
            "name": "F2",
            "ticks": 71040,
            "time": 98.66671600000001,
            "velocity": 0.7874015748031497
          },
          {
            "duration": 0.44444466666666926,
            "durationTicks": 320,
            "midi": 48,
            "name": "C3",
            "ticks": 71520,
            "time": 99.333383,
            "velocity": 0.7874015748031497
          },
          {
            "duration": 0.44444466666665505,
            "durationTicks": 320,
            "midi": 46,
            "name": "A#2",
            "ticks": 72000,
            "time": 100.00005,
            "velocity": 0.7874015748031497
          },
          {
            "duration": 0.44444466666665505,
            "durationTicks": 320,
            "midi": 45,
            "name": "A2",
            "ticks": 72480,
            "time": 100.666717,
            "velocity": 0.7874015748031497
          },
          {
            "duration": 0.8888893333333527,
            "durationTicks": 640,
            "midi": 41,
            "name": "F2",
            "ticks": 72960,
            "time": 101.333384,
            "velocity": 0.7874015748031497
          },
          {
            "duration": 0.44444466666665505,
            "durationTicks": 320,
            "midi": 48,
            "name": "C3",
            "ticks": 73920,
            "time": 102.666718,
            "velocity": 0.7874015748031497
          },
          {
            "duration": 0.11111116666666021,
            "durationTicks": 80,
            "midi": 52,
            "name": "E3",
            "ticks": 74280,
            "time": 103.16671825,
            "velocity": 0.7874015748031497
          },
          {
            "duration": 0.44444466666665505,
            "durationTicks": 320,
            "midi": 53,
            "name": "F3",
            "ticks": 74400,
            "time": 103.333385,
            "velocity": 0.7874015748031497
          },
          {
            "duration": 0.8888893333333385,
            "durationTicks": 640,
            "midi": 52,
            "name": "E3",
            "ticks": 74880,
            "time": 104.000052,
            "velocity": 0.7874015748031497
          },
          {
            "duration": 0.8888893333333385,
            "durationTicks": 640,
            "midi": 45,
            "name": "A2",
            "ticks": 75840,
            "time": 105.333386,
            "velocity": 0.7874015748031497
          },
          {
            "duration": 0.8888893333333385,
            "durationTicks": 640,
            "midi": 50,
            "name": "D3",
            "ticks": 76800,
            "time": 106.66672,
            "velocity": 0.7874015748031497
          },
          {
            "duration": 0.44444466666665505,
            "durationTicks": 320,
            "midi": 50,
            "name": "D3",
            "ticks": 77760,
            "time": 108.000054,
            "velocity": 0.7874015748031497
          },
          {
            "duration": 0.44444466666666926,
            "durationTicks": 320,
            "midi": 48,
            "name": "C3",
            "ticks": 78240,
            "time": 108.666721,
            "velocity": 0.7874015748031497
          },
          {
            "duration": 0.8888893333333385,
            "durationTicks": 640,
            "midi": 46,
            "name": "A#2",
            "ticks": 78720,
            "time": 109.333388,
            "velocity": 0.7874015748031497
          },
          {
            "duration": 0.8888893333333385,
            "durationTicks": 640,
            "midi": 48,
            "name": "C3",
            "ticks": 79680,
            "time": 110.66672200000001,
            "velocity": 0.7874015748031497
          },
          {
            "duration": 0.8888893333333385,
            "durationTicks": 640,
            "midi": 53,
            "name": "F3",
            "ticks": 80640,
            "time": 112.000056,
            "velocity": 0.7874015748031497
          },
          {
            "duration": 0.44444466666665505,
            "durationTicks": 320,
            "midi": 53,
            "name": "F3",
            "ticks": 81600,
            "time": 113.33339000000001,
            "velocity": 0.7874015748031497
          },
          {
            "duration": 0.44444466666666926,
            "durationTicks": 320,
            "midi": 52,
            "name": "E3",
            "ticks": 82080,
            "time": 114.000057,
            "velocity": 0.7874015748031497
          },
          {
            "duration": 0.8888893333333385,
            "durationTicks": 640,
            "midi": 50,
            "name": "D3",
            "ticks": 82560,
            "time": 114.666724,
            "velocity": 0.7874015748031497
          },
          {
            "duration": 0.8888893333333527,
            "durationTicks": 640,
            "midi": 43,
            "name": "G2",
            "ticks": 83520,
            "time": 116.000058,
            "velocity": 0.7874015748031497
          },
          {
            "duration": 0.6666670000000039,
            "durationTicks": 480,
            "midi": 46,
            "name": "A#2",
            "ticks": 84480,
            "time": 117.333392,
            "velocity": 1
          },
          {
            "duration": 0.11111116666666021,
            "durationTicks": 80,
            "midi": 41,
            "name": "F2",
            "ticks": 84960,
            "time": 118.00005900000001,
            "velocity": 0.968503937007874
          },
          {
            "duration": 1.416667375000003,
            "durationTicks": 1020,
            "midi": 41,
            "name": "F2",
            "ticks": 85200,
            "time": 118.3333925,
            "velocity": 1
          },
          {
            "duration": 0.8888893333333385,
            "durationTicks": 640,
            "midi": 48,
            "name": "C3",
            "ticks": 86400,
            "time": 120.00006,
            "velocity": 0.7874015748031497
          },
          {
            "duration": 0.8888893333333385,
            "durationTicks": 640,
            "midi": 47,
            "name": "B2",
            "ticks": 87360,
            "time": 121.333394,
            "velocity": 0.7874015748031497
          },
          {
            "duration": 0.5277780416666502,
            "durationTicks": 380,
            "midi": 46,
            "name": "A#2",
            "ticks": 88320,
            "time": 122.666728,
            "velocity": 0.905511811023622
          },
          {
            "duration": 0.11111116666666021,
            "durationTicks": 80,
            "midi": 41,
            "name": "F2",
            "ticks": 88800,
            "time": 123.333395,
            "velocity": 0.8110236220472441
          },
          {
            "duration": 2.583334624999992,
            "durationTicks": 1860,
            "midi": 41,
            "name": "F2",
            "ticks": 89040,
            "time": 123.6667285,
            "velocity": 1
          }
        ]
      }
    ]
  }