{
  "header": {
    "keySignatures": [
      {
        "key": "C",
        "scale": "major",
        "ticks": 0
      }
    ],
    "meta": [],
    "name": "野蜂飞舞",
    "ppq": 480,
    "tempos": [
      {
        "bpm": 156.000156000156,
        "ticks": 0
      }
    ],
    "timeSignatures": [
      {
        "ticks": 0,
        "timeSignature": [
          2,
          4
        ],
        "measures": 0
      }
    ]
  },
  "tracks": [
    {
      "channel": 0,
      "controlChanges": {
        "10": [
          {
            "number": 10,
            "ticks": 0,
            "time": 0,
            "value": 0.5039370078740157
          }
        ]
      },
      "pitchBends": [],
      "instrument": {
        "family": "piano",
        "number": 0,
        "name": "acoustic grand piano"
      },
      "name": "Piano",
      "notes": [
        {
          "duration": 0.076923,
          "durationTicks": 96,
          "midi": 88,
          "name": "E6",
          "ticks": 0,
          "time": 0,
          "velocity": 0.7086614173228346
        },
        {
          "duration": 0.09455118750000001,
          "durationTicks": 118,
          "midi": 87,
          "name": "D#6",
          "ticks": 120,
          "time": 0.09615375,
          "velocity": 0.7086614173228346
        },
        {
          "duration": 0.0945511875,
          "durationTicks": 118,
          "midi": 86,
          "name": "D6",
          "ticks": 240,
          "time": 0.1923075,
          "velocity": 0.7086614173228346
        },
        {
          "duration": 0.09455118749999997,
          "durationTicks": 118,
          "midi": 85,
          "name": "C#6",
          "ticks": 360,
          "time": 0.28846125,
          "velocity": 0.7086614173228346
        },
        {
          "duration": 0.09455118750000002,
          "durationTicks": 118,
          "midi": 86,
          "name": "D6",
          "ticks": 480,
          "time": 0.384615,
          "velocity": 0.7086614173228346
        },
        {
          "duration": 0.09455118750000002,
          "durationTicks": 118,
          "midi": 85,
          "name": "C#6",
          "ticks": 600,
          "time": 0.48076874999999997,
          "velocity": 0.7086614173228346
        },
        {
          "duration": 0.09455118750000002,
          "durationTicks": 118,
          "midi": 84,
          "name": "C6",
          "ticks": 720,
          "time": 0.5769225,
          "velocity": 0.7086614173228346
        },
        {
          "duration": 0.09455118750000002,
          "durationTicks": 118,
          "midi": 83,
          "name": "B5",
          "ticks": 840,
          "time": 0.6730762499999999,
          "velocity": 0.7086614173228346
        },
        {
          "duration": 0.09455118749999991,
          "durationTicks": 118,
          "midi": 84,
          "name": "C6",
          "ticks": 960,
          "time": 0.76923,
          "velocity": 0.7086614173228346
        },
        {
          "duration": 0.09455118749999991,
          "durationTicks": 118,
          "midi": 83,
          "name": "B5",
          "ticks": 1080,
          "time": 0.86538375,
          "velocity": 0.7086614173228346
        },
        {
          "duration": 0.09455118750000002,
          "durationTicks": 118,
          "midi": 82,
          "name": "A#5",
          "ticks": 1200,
          "time": 0.9615374999999999,
          "velocity": 0.7086614173228346
        },
        {
          "duration": 0.0945511874999998,
          "durationTicks": 118,
          "midi": 81,
          "name": "A5",
          "ticks": 1320,
          "time": 1.05769125,
          "velocity": 0.7086614173228346
        },
        {
          "duration": 0.0945511874999998,
          "durationTicks": 118,
          "midi": 80,
          "name": "G#5",
          "ticks": 1440,
          "time": 1.153845,
          "velocity": 0.7086614173228346
        },
        {
          "duration": 0.0945511874999998,
          "durationTicks": 118,
          "midi": 79,
          "name": "G5",
          "ticks": 1560,
          "time": 1.24999875,
          "velocity": 0.7086614173228346
        },
        {
          "duration": 0.09455118750000002,
          "durationTicks": 118,
          "midi": 78,
          "name": "F#5",
          "ticks": 1680,
          "time": 1.3461524999999999,
          "velocity": 0.7086614173228346
        },
        {
          "duration": 0.09455118750000002,
          "durationTicks": 118,
          "midi": 77,
          "name": "F5",
          "ticks": 1800,
          "time": 1.44230625,
          "velocity": 0.7086614173228346
        },
        {
          "duration": 0.09455118750000002,
          "durationTicks": 118,
          "midi": 76,
          "name": "E5",
          "ticks": 1920,
          "time": 1.53846,
          "velocity": 0.7086614173228346
        },
        {
          "duration": 0.09455118750000002,
          "durationTicks": 118,
          "midi": 75,
          "name": "D#5",
          "ticks": 2040,
          "time": 1.63461375,
          "velocity": 0.7086614173228346
        },
        {
          "duration": 0.09455118750000002,
          "durationTicks": 118,
          "midi": 74,
          "name": "D5",
          "ticks": 2160,
          "time": 1.7307675,
          "velocity": 0.7086614173228346
        },
        {
          "duration": 0.09455118750000024,
          "durationTicks": 118,
          "midi": 73,
          "name": "C#5",
          "ticks": 2280,
          "time": 1.8269212499999998,
          "velocity": 0.7086614173228346
        },
        {
          "duration": 0.09455118750000002,
          "durationTicks": 118,
          "midi": 74,
          "name": "D5",
          "ticks": 2400,
          "time": 1.9230749999999999,
          "velocity": 0.7086614173228346
        },
        {
          "duration": 0.09455118750000002,
          "durationTicks": 118,
          "midi": 73,
          "name": "C#5",
          "ticks": 2520,
          "time": 2.01922875,
          "velocity": 0.7086614173228346
        },
        {
          "duration": 0.09455118750000002,
          "durationTicks": 118,
          "midi": 72,
          "name": "C5",
          "ticks": 2640,
          "time": 2.1153825,
          "velocity": 0.7086614173228346
        },
        {
          "duration": 0.09455118750000002,
          "durationTicks": 118,
          "midi": 71,
          "name": "B4",
          "ticks": 2760,
          "time": 2.21153625,
          "velocity": 0.7086614173228346
        },
        {
          "duration": 0.09455118750000002,
          "durationTicks": 118,
          "midi": 72,
          "name": "C5",
          "ticks": 2880,
          "time": 2.30769,
          "velocity": 0.7086614173228346
        },
        {
          "duration": 0.09455118750000002,
          "durationTicks": 118,
          "midi": 71,
          "name": "B4",
          "ticks": 3000,
          "time": 2.40384375,
          "velocity": 0.7086614173228346
        },
        {
          "duration": 0.09455118750000002,
          "durationTicks": 118,
          "midi": 70,
          "name": "A#4",
          "ticks": 3120,
          "time": 2.4999975,
          "velocity": 0.7086614173228346
        },
        {
          "duration": 0.09455118750000047,
          "durationTicks": 118,
          "midi": 69,
          "name": "A4",
          "ticks": 3240,
          "time": 2.5961512499999997,
          "velocity": 0.7086614173228346
        },
        {
          "duration": 0.09455118750000047,
          "durationTicks": 118,
          "midi": 68,
          "name": "G#4",
          "ticks": 3360,
          "time": 2.6923049999999997,
          "velocity": 0.7086614173228346
        },
        {
          "duration": 0.09455118750000002,
          "durationTicks": 118,
          "midi": 67,
          "name": "G4",
          "ticks": 3480,
          "time": 2.7884587499999998,
          "velocity": 0.7086614173228346
        },
        {
          "duration": 0.09455118750000002,
          "durationTicks": 118,
          "midi": 66,
          "name": "F#4",
          "ticks": 3600,
          "time": 2.8846125,
          "velocity": 0.7086614173228346
        },
        {
          "duration": 0.09455118750000002,
          "durationTicks": 118,
          "midi": 65,
          "name": "F4",
          "ticks": 3720,
          "time": 2.98076625,
          "velocity": 0.7086614173228346
        },
        {
          "duration": 0.07692299999999985,
          "durationTicks": 96,
          "midi": 64,
          "name": "E4",
          "ticks": 3840,
          "time": 3.07692,
          "velocity": 0.7086614173228346
        },
        {
          "duration": 0.09455118750000002,
          "durationTicks": 118,
          "midi": 63,
          "name": "D#4",
          "ticks": 3960,
          "time": 3.17307375,
          "velocity": 0.7086614173228346
        },
        {
          "duration": 0.09455118750000002,
          "durationTicks": 118,
          "midi": 62,
          "name": "D4",
          "ticks": 4080,
          "time": 3.2692275,
          "velocity": 0.7086614173228346
        },
        {
          "duration": 0.09455118750000002,
          "durationTicks": 118,
          "midi": 61,
          "name": "C#4",
          "ticks": 4200,
          "time": 3.36538125,
          "velocity": 0.7086614173228346
        },
        {
          "duration": 0.09455118750000002,
          "durationTicks": 118,
          "midi": 62,
          "name": "D4",
          "ticks": 4320,
          "time": 3.461535,
          "velocity": 0.7086614173228346
        },
        {
          "duration": 0.09455118750000002,
          "durationTicks": 118,
          "midi": 61,
          "name": "C#4",
          "ticks": 4440,
          "time": 3.55768875,
          "velocity": 0.7086614173228346
        },
        {
          "duration": 0.09455118750000047,
          "durationTicks": 118,
          "midi": 60,
          "name": "C4",
          "ticks": 4560,
          "time": 3.6538424999999997,
          "velocity": 0.7086614173228346
        },
        {
          "duration": 0.09455118750000002,
          "durationTicks": 118,
          "midi": 59,
          "name": "B3",
          "ticks": 4680,
          "time": 3.7499962499999997,
          "velocity": 0.7086614173228346
        },
        {
          "duration": 0.07692299999999985,
          "durationTicks": 96,
          "midi": 64,
          "name": "E4",
          "ticks": 4800,
          "time": 3.8461499999999997,
          "velocity": 0.7086614173228346
        },
        {
          "duration": 0.09455118750000047,
          "durationTicks": 118,
          "midi": 63,
          "name": "D#4",
          "ticks": 4920,
          "time": 3.9423037499999998,
          "velocity": 0.7086614173228346
        },
        {
          "duration": 0.09455118750000047,
          "durationTicks": 118,
          "midi": 62,
          "name": "D4",
          "ticks": 5040,
          "time": 4.0384575,
          "velocity": 0.7086614173228346
        },
        {
          "duration": 0.09455118750000047,
          "durationTicks": 118,
          "midi": 61,
          "name": "C#4",
          "ticks": 5160,
          "time": 4.13461125,
          "velocity": 0.7007874015748031
        },
        {
          "duration": 0.09455118750000047,
          "durationTicks": 118,
          "midi": 62,
          "name": "D4",
          "ticks": 5280,
          "time": 4.230765,
          "velocity": 0.6850393700787402
        },
        {
          "duration": 0.09455118749999958,
          "durationTicks": 118,
          "midi": 61,
          "name": "C#4",
          "ticks": 5400,
          "time": 4.32691875,
          "velocity": 0.6771653543307087
        },
        {
          "duration": 0.09455118749999958,
          "durationTicks": 118,
          "midi": 60,
          "name": "C4",
          "ticks": 5520,
          "time": 4.4230725,
          "velocity": 0.6614173228346457
        },
        {
          "duration": 0.09455118749999958,
          "durationTicks": 118,
          "midi": 59,
          "name": "B3",
          "ticks": 5640,
          "time": 4.51922625,
          "velocity": 0.6535433070866141
        },
        {
          "duration": 0.07692299999999985,
          "durationTicks": 96,
          "midi": 64,
          "name": "E4",
          "ticks": 5760,
          "time": 4.61538,
          "velocity": 0.6377952755905512
        },
        {
          "duration": 0.09455118749999958,
          "durationTicks": 118,
          "midi": 63,
          "name": "D#4",
          "ticks": 5880,
          "time": 4.71153375,
          "velocity": 0.6220472440944882
        },
        {
          "duration": 0.09455118749999958,
          "durationTicks": 118,
          "midi": 62,
          "name": "D4",
          "ticks": 6000,
          "time": 4.8076875,
          "velocity": 0.6141732283464567
        },
        {
          "duration": 0.09455118749999958,
          "durationTicks": 118,
          "midi": 61,
          "name": "C#4",
          "ticks": 6120,
          "time": 4.90384125,
          "velocity": 0.5984251968503937
        },
        {
          "duration": 0.09455118749999958,
          "durationTicks": 118,
          "midi": 62,
          "name": "D4",
          "ticks": 6240,
          "time": 4.999995,
          "velocity": 0.5905511811023622
        },
        {
          "duration": 0.09455118749999958,
          "durationTicks": 118,
          "midi": 61,
          "name": "C#4",
          "ticks": 6360,
          "time": 5.09614875,
          "velocity": 0.5748031496062992
        },
        {
          "duration": 0.09455118750000047,
          "durationTicks": 118,
          "midi": 60,
          "name": "C4",
          "ticks": 6480,
          "time": 5.192302499999999,
          "velocity": 0.5669291338582677
        },
        {
          "duration": 0.09455118750000047,
          "durationTicks": 118,
          "midi": 59,
          "name": "B3",
          "ticks": 6600,
          "time": 5.288456249999999,
          "velocity": 0.5511811023622047
        },
        {
          "duration": 0.07692299999999985,
          "durationTicks": 96,
          "midi": 64,
          "name": "E4",
          "ticks": 6720,
          "time": 5.3846099999999995,
          "velocity": 0.5433070866141733
        },
        {
          "duration": 0.09455118750000047,
          "durationTicks": 118,
          "midi": 63,
          "name": "D#4",
          "ticks": 6840,
          "time": 5.4807637499999995,
          "velocity": 0.5275590551181102
        },
        {
          "duration": 0.09455118750000047,
          "durationTicks": 118,
          "midi": 62,
          "name": "D4",
          "ticks": 6960,
          "time": 5.5769174999999995,
          "velocity": 0.5118110236220472
        },
        {
          "duration": 0.09455118750000047,
          "durationTicks": 118,
          "midi": 61,
          "name": "C#4",
          "ticks": 7080,
          "time": 5.67307125,
          "velocity": 0.5039370078740157
        },
        {
          "duration": 0.09455118750000047,
          "durationTicks": 118,
          "midi": 62,
          "name": "D4",
          "ticks": 7200,
          "time": 5.769225,
          "velocity": 0.4881889763779528
        },
        {
          "duration": 0.09455118750000047,
          "durationTicks": 118,
          "midi": 61,
          "name": "C#4",
          "ticks": 7320,
          "time": 5.86537875,
          "velocity": 0.48031496062992124
        },
        {
          "duration": 0.09455118750000047,
          "durationTicks": 118,
          "midi": 60,
          "name": "C4",
          "ticks": 7440,
          "time": 5.9615325,
          "velocity": 0.4645669291338583
        },
        {
          "duration": 0.09455118750000047,
          "durationTicks": 118,
          "midi": 59,
          "name": "B3",
          "ticks": 7560,
          "time": 6.05768625,
          "velocity": 0.4566929133858268
        },
        {
          "duration": 0.07692299999999985,
          "durationTicks": 96,
          "midi": 64,
          "name": "E4",
          "ticks": 7680,
          "time": 6.15384,
          "velocity": 0.3937007874015748
        },
        {
          "duration": 0.07692299999999985,
          "durationTicks": 96,
          "midi": 63,
          "name": "D#4",
          "ticks": 7800,
          "time": 6.24999375,
          "velocity": 0.3937007874015748
        },
        {
          "duration": 0.07692299999999985,
          "durationTicks": 96,
          "midi": 62,
          "name": "D4",
          "ticks": 7920,
          "time": 6.3461475,
          "velocity": 0.3937007874015748
        },
        {
          "duration": 0.07692299999999985,
          "durationTicks": 96,
          "midi": 61,
          "name": "C#4",
          "ticks": 8040,
          "time": 6.44230125,
          "velocity": 0.3937007874015748
        },
        {
          "duration": 0.07692299999999985,
          "durationTicks": 96,
          "midi": 60,
          "name": "C4",
          "ticks": 8160,
          "time": 6.538455,
          "velocity": 0.3937007874015748
        },
        {
          "duration": 0.07692299999999985,
          "durationTicks": 96,
          "midi": 65,
          "name": "F4",
          "ticks": 8280,
          "time": 6.63460875,
          "velocity": 0.3937007874015748
        },
        {
          "duration": 0.07692299999999985,
          "durationTicks": 96,
          "midi": 64,
          "name": "E4",
          "ticks": 8400,
          "time": 6.7307625,
          "velocity": 0.3937007874015748
        },
        {
          "duration": 0.07692299999999985,
          "durationTicks": 96,
          "midi": 63,
          "name": "D#4",
          "ticks": 8520,
          "time": 6.82691625,
          "velocity": 0.3937007874015748
        },
        {
          "duration": 0.07692299999999896,
          "durationTicks": 96,
          "midi": 64,
          "name": "E4",
          "ticks": 8640,
          "time": 6.92307,
          "velocity": 0.3937007874015748
        },
        {
          "duration": 0.07692299999999896,
          "durationTicks": 96,
          "midi": 63,
          "name": "D#4",
          "ticks": 8760,
          "time": 7.01922375,
          "velocity": 0.3937007874015748
        },
        {
          "duration": 0.07692299999999896,
          "durationTicks": 96,
          "midi": 62,
          "name": "D4",
          "ticks": 8880,
          "time": 7.1153775,
          "velocity": 0.3937007874015748
        },
        {
          "duration": 0.07692299999999985,
          "durationTicks": 96,
          "midi": 61,
          "name": "C#4",
          "ticks": 9000,
          "time": 7.211531249999999,
          "velocity": 0.3937007874015748
        },
        {
          "duration": 0.07692299999999985,
          "durationTicks": 96,
          "midi": 60,
          "name": "C4",
          "ticks": 9120,
          "time": 7.307684999999999,
          "velocity": 0.3937007874015748
        },
        {
          "duration": 0.07692299999999985,
          "durationTicks": 96,
          "midi": 61,
          "name": "C#4",
          "ticks": 9240,
          "time": 7.403838749999999,
          "velocity": 0.3937007874015748
        },
        {
          "duration": 0.07692299999999985,
          "durationTicks": 96,
          "midi": 62,
          "name": "D4",
          "ticks": 9360,
          "time": 7.499992499999999,
          "velocity": 0.3937007874015748
        },
        {
          "duration": 0.07692299999999985,
          "durationTicks": 96,
          "midi": 63,
          "name": "D#4",
          "ticks": 9480,
          "time": 7.596146249999999,
          "velocity": 0.3937007874015748
        },
        {
          "duration": 0.07692299999999985,
          "durationTicks": 96,
          "midi": 64,
          "name": "E4",
          "ticks": 9600,
          "time": 7.6922999999999995,
          "velocity": 0.3937007874015748
        },
        {
          "duration": 0.07692299999999985,
          "durationTicks": 96,
          "midi": 63,
          "name": "D#4",
          "ticks": 9720,
          "time": 7.7884537499999995,
          "velocity": 0.3937007874015748
        },
        {
          "duration": 0.07692299999999985,
          "durationTicks": 96,
          "midi": 62,
          "name": "D4",
          "ticks": 9840,
          "time": 7.8846074999999995,
          "velocity": 0.3937007874015748
        },
        {
          "duration": 0.07692299999999985,
          "durationTicks": 96,
          "midi": 61,
          "name": "C#4",
          "ticks": 9960,
          "time": 7.98076125,
          "velocity": 0.3937007874015748
        },
        {
          "duration": 0.07692299999999896,
          "durationTicks": 96,
          "midi": 60,
          "name": "C4",
          "ticks": 10080,
          "time": 8.076915,
          "velocity": 0.3937007874015748
        },
        {
          "duration": 0.07692299999999896,
          "durationTicks": 96,
          "midi": 65,
          "name": "F4",
          "ticks": 10200,
          "time": 8.17306875,
          "velocity": 0.3937007874015748
        },
        {
          "duration": 0.07692299999999896,
          "durationTicks": 96,
          "midi": 64,
          "name": "E4",
          "ticks": 10320,
          "time": 8.2692225,
          "velocity": 0.3937007874015748
        },
        {
          "duration": 0.07692300000000074,
          "durationTicks": 96,
          "midi": 63,
          "name": "D#4",
          "ticks": 10440,
          "time": 8.365376249999999,
          "velocity": 0.3937007874015748
        },
        {
          "duration": 0.07692299999999896,
          "durationTicks": 96,
          "midi": 64,
          "name": "E4",
          "ticks": 10560,
          "time": 8.46153,
          "velocity": 0.3937007874015748
        },
        {
          "duration": 0.07692300000000074,
          "durationTicks": 96,
          "midi": 63,
          "name": "D#4",
          "ticks": 10680,
          "time": 8.557683749999999,
          "velocity": 0.3937007874015748
        },
        {
          "duration": 0.07692299999999896,
          "durationTicks": 96,
          "midi": 62,
          "name": "D4",
          "ticks": 10800,
          "time": 8.6538375,
          "velocity": 0.3937007874015748
        },
        {
          "duration": 0.07692300000000074,
          "durationTicks": 96,
          "midi": 61,
          "name": "C#4",
          "ticks": 10920,
          "time": 8.749991249999999,
          "velocity": 0.3937007874015748
        },
        {
          "duration": 0.07692299999999896,
          "durationTicks": 96,
          "midi": 60,
          "name": "C4",
          "ticks": 11040,
          "time": 8.846145,
          "velocity": 0.3937007874015748
        },
        {
          "duration": 0.07692300000000074,
          "durationTicks": 96,
          "midi": 61,
          "name": "C#4",
          "ticks": 11160,
          "time": 8.942298749999999,
          "velocity": 0.3937007874015748
        },
        {
          "duration": 0.07692299999999896,
          "durationTicks": 96,
          "midi": 62,
          "name": "D4",
          "ticks": 11280,
          "time": 9.0384525,
          "velocity": 0.3937007874015748
        },
        {
          "duration": 0.07692300000000074,
          "durationTicks": 96,
          "midi": 63,
          "name": "D#4",
          "ticks": 11400,
          "time": 9.13460625,
          "velocity": 0.3937007874015748
        },
        {
          "duration": 0.07692299999999896,
          "durationTicks": 96,
          "midi": 64,
          "name": "E4",
          "ticks": 11520,
          "time": 9.23076,
          "velocity": 0.3937007874015748
        },
        {
          "duration": 0.07692300000000074,
          "durationTicks": 96,
          "midi": 63,
          "name": "D#4",
          "ticks": 11640,
          "time": 9.32691375,
          "velocity": 0.3937007874015748
        },
        {
          "duration": 0.07692299999999896,
          "durationTicks": 96,
          "midi": 62,
          "name": "D4",
          "ticks": 11760,
          "time": 9.4230675,
          "velocity": 0.3937007874015748
        },
        {
          "duration": 0.07692300000000074,
          "durationTicks": 96,
          "midi": 61,
          "name": "C#4",
          "ticks": 11880,
          "time": 9.51922125,
          "velocity": 0.3937007874015748
        },
        {
          "duration": 0.07692299999999896,
          "durationTicks": 96,
          "midi": 62,
          "name": "D4",
          "ticks": 12000,
          "time": 9.615375,
          "velocity": 0.3937007874015748
        },
        {
          "duration": 0.07692300000000074,
          "durationTicks": 96,
          "midi": 61,
          "name": "C#4",
          "ticks": 12120,
          "time": 9.71152875,
          "velocity": 0.3937007874015748
        },
        {
          "duration": 0.07692299999999896,
          "durationTicks": 96,
          "midi": 60,
          "name": "C4",
          "ticks": 12240,
          "time": 9.8076825,
          "velocity": 0.3937007874015748
        },
        {
          "duration": 0.07692300000000074,
          "durationTicks": 96,
          "midi": 59,
          "name": "B3",
          "ticks": 12360,
          "time": 9.90383625,
          "velocity": 0.3937007874015748
        },
        {
          "duration": 0.07692299999999896,
          "durationTicks": 96,
          "midi": 60,
          "name": "C4",
          "ticks": 12480,
          "time": 9.99999,
          "velocity": 0.3779527559055118
        },
        {
          "duration": 0.07692299999999896,
          "durationTicks": 96,
          "midi": 61,
          "name": "C#4",
          "ticks": 12600,
          "time": 10.09614375,
          "velocity": 0.41732283464566927
        },
        {
          "duration": 0.07692299999999896,
          "durationTicks": 96,
          "midi": 62,
          "name": "D4",
          "ticks": 12720,
          "time": 10.1922975,
          "velocity": 0.44881889763779526
        },
        {
          "duration": 0.07692299999999896,
          "durationTicks": 96,
          "midi": 63,
          "name": "D#4",
          "ticks": 12840,
          "time": 10.28845125,
          "velocity": 0.4881889763779528
        },
        {
          "duration": 0.07692300000000074,
          "durationTicks": 96,
          "midi": 64,
          "name": "E4",
          "ticks": 12960,
          "time": 10.384604999999999,
          "velocity": 0.5039370078740157
        },
        {
          "duration": 0.07692299999999896,
          "durationTicks": 96,
          "midi": 65,
          "name": "F4",
          "ticks": 13080,
          "time": 10.48075875,
          "velocity": 0.4645669291338583
        },
        {
          "duration": 0.07692300000000074,
          "durationTicks": 96,
          "midi": 64,
          "name": "E4",
          "ticks": 13200,
          "time": 10.576912499999999,
          "velocity": 0.4330708661417323
        },
        {
          "duration": 0.07692299999999896,
          "durationTicks": 96,
          "midi": 63,
          "name": "D#4",
          "ticks": 13320,
          "time": 10.67306625,
          "velocity": 0.3937007874015748
        },
        {
          "duration": 0.07692300000000074,
          "durationTicks": 96,
          "midi": 64,
          "name": "E4",
          "ticks": 13440,
          "time": 10.769219999999999,
          "velocity": 0.3937007874015748
        },
        {
          "duration": 0.07692299999999896,
          "durationTicks": 96,
          "midi": 63,
          "name": "D#4",
          "ticks": 13560,
          "time": 10.86537375,
          "velocity": 0.3937007874015748
        },
        {
          "duration": 0.07692300000000074,
          "durationTicks": 96,
          "midi": 62,
          "name": "D4",
          "ticks": 13680,
          "time": 10.961527499999999,
          "velocity": 0.3937007874015748
        },
        {
          "duration": 0.07692299999999896,
          "durationTicks": 96,
          "midi": 61,
          "name": "C#4",
          "ticks": 13800,
          "time": 11.05768125,
          "velocity": 0.3937007874015748
        },
        {
          "duration": 0.07692300000000074,
          "durationTicks": 96,
          "midi": 62,
          "name": "D4",
          "ticks": 13920,
          "time": 11.153834999999999,
          "velocity": 0.3937007874015748
        },
        {
          "duration": 0.07692299999999896,
          "durationTicks": 96,
          "midi": 61,
          "name": "C#4",
          "ticks": 14040,
          "time": 11.24998875,
          "velocity": 0.3937007874015748
        },
        {
          "duration": 0.07692300000000074,
          "durationTicks": 96,
          "midi": 60,
          "name": "C4",
          "ticks": 14160,
          "time": 11.3461425,
          "velocity": 0.3937007874015748
        },
        {
          "duration": 0.07692299999999896,
          "durationTicks": 96,
          "midi": 59,
          "name": "B3",
          "ticks": 14280,
          "time": 11.44229625,
          "velocity": 0.3937007874015748
        },
        {
          "duration": 0.07692300000000074,
          "durationTicks": 96,
          "midi": 60,
          "name": "C4",
          "ticks": 14400,
          "time": 11.53845,
          "velocity": 0.3937007874015748
        },
        {
          "duration": 0.07692299999999896,
          "durationTicks": 96,
          "midi": 61,
          "name": "C#4",
          "ticks": 14520,
          "time": 11.63460375,
          "velocity": 0.3937007874015748
        },
        {
          "duration": 0.07692300000000074,
          "durationTicks": 96,
          "midi": 62,
          "name": "D4",
          "ticks": 14640,
          "time": 11.7307575,
          "velocity": 0.3937007874015748
        },
        {
          "duration": 0.07692299999999896,
          "durationTicks": 96,
          "midi": 63,
          "name": "D#4",
          "ticks": 14760,
          "time": 11.82691125,
          "velocity": 0.3937007874015748
        },
        {
          "duration": 0.07692300000000074,
          "durationTicks": 96,
          "midi": 64,
          "name": "E4",
          "ticks": 14880,
          "time": 11.923065,
          "velocity": 0.3937007874015748
        },
        {
          "duration": 0.07692299999999896,
          "durationTicks": 96,
          "midi": 66,
          "name": "F#4",
          "ticks": 15000,
          "time": 12.01921875,
          "velocity": 0.3937007874015748
        },
        {
          "duration": 0.07692299999999896,
          "durationTicks": 96,
          "midi": 67,
          "name": "G4",
          "ticks": 15120,
          "time": 12.1153725,
          "velocity": 0.3937007874015748
        },
        {
          "duration": 0.07692299999999896,
          "durationTicks": 96,
          "midi": 68,
          "name": "G#4",
          "ticks": 15240,
          "time": 12.21152625,
          "velocity": 0.3937007874015748
        },
        {
          "duration": 0.07692300000000074,
          "durationTicks": 96,
          "midi": 69,
          "name": "A4",
          "ticks": 15360,
          "time": 12.30768,
          "velocity": 0.3937007874015748
        },
        {
          "duration": 0.07692300000000252,
          "durationTicks": 96,
          "midi": 68,
          "name": "G#4",
          "ticks": 15480,
          "time": 12.403833749999999,
          "velocity": 0.3937007874015748
        },
        {
          "duration": 0.07692300000000074,
          "durationTicks": 96,
          "midi": 67,
          "name": "G4",
          "ticks": 15600,
          "time": 12.4999875,
          "velocity": 0.3937007874015748
        },
        {
          "duration": 0.07692300000000252,
          "durationTicks": 96,
          "midi": 66,
          "name": "F#4",
          "ticks": 15720,
          "time": 12.596141249999999,
          "velocity": 0.3937007874015748
        },
        {
          "duration": 0.07692300000000074,
          "durationTicks": 96,
          "midi": 65,
          "name": "F4",
          "ticks": 15840,
          "time": 12.692295,
          "velocity": 0.3937007874015748
        },
        {
          "duration": 0.07692300000000252,
          "durationTicks": 96,
          "midi": 70,
          "name": "A#4",
          "ticks": 15960,
          "time": 12.788448749999999,
          "velocity": 0.3937007874015748
        },
        {
          "duration": 0.07692300000000074,
          "durationTicks": 96,
          "midi": 69,
          "name": "A4",
          "ticks": 16080,
          "time": 12.8846025,
          "velocity": 0.3937007874015748
        },
        {
          "duration": 0.07692300000000252,
          "durationTicks": 96,
          "midi": 68,
          "name": "G#4",
          "ticks": 16200,
          "time": 12.980756249999999,
          "velocity": 0.3937007874015748
        },
        {
          "duration": 0.07692300000000074,
          "durationTicks": 96,
          "midi": 69,
          "name": "A4",
          "ticks": 16320,
          "time": 13.07691,
          "velocity": 0.3937007874015748
        },
        {
          "duration": 0.07692300000000074,
          "durationTicks": 96,
          "midi": 68,
          "name": "G#4",
          "ticks": 16440,
          "time": 13.173063749999999,
          "velocity": 0.3937007874015748
        },
        {
          "duration": 0.07692300000000074,
          "durationTicks": 96,
          "midi": 67,
          "name": "G4",
          "ticks": 16560,
          "time": 13.2692175,
          "velocity": 0.3937007874015748
        },
        {
          "duration": 0.07692300000000074,
          "durationTicks": 96,
          "midi": 66,
          "name": "F#4",
          "ticks": 16680,
          "time": 13.365371249999999,
          "velocity": 0.3937007874015748
        },
        {
          "duration": 0.07692300000000074,
          "durationTicks": 96,
          "midi": 65,
          "name": "F4",
          "ticks": 16800,
          "time": 13.461525,
          "velocity": 0.3937007874015748
        },
        {
          "duration": 0.07692300000000074,
          "durationTicks": 96,
          "midi": 66,
          "name": "F#4",
          "ticks": 16920,
          "time": 13.55767875,
          "velocity": 0.3937007874015748
        },
        {
          "duration": 0.07692300000000074,
          "durationTicks": 96,
          "midi": 67,
          "name": "G4",
          "ticks": 17040,
          "time": 13.6538325,
          "velocity": 0.3937007874015748
        },
        {
          "duration": 0.07692300000000074,
          "durationTicks": 96,
          "midi": 68,
          "name": "G#4",
          "ticks": 17160,
          "time": 13.74998625,
          "velocity": 0.3937007874015748
        },
        {
          "duration": 0.07692300000000074,
          "durationTicks": 96,
          "midi": 69,
          "name": "A4",
          "ticks": 17280,
          "time": 13.84614,
          "velocity": 0.3937007874015748
        },
        {
          "duration": 0.07692300000000074,
          "durationTicks": 96,
          "midi": 68,
          "name": "G#4",
          "ticks": 17400,
          "time": 13.94229375,
          "velocity": 0.3937007874015748
        },
        {
          "duration": 0.07692300000000074,
          "durationTicks": 96,
          "midi": 67,
          "name": "G4",
          "ticks": 17520,
          "time": 14.0384475,
          "velocity": 0.3937007874015748
        },
        {
          "duration": 0.07692300000000074,
          "durationTicks": 96,
          "midi": 66,
          "name": "F#4",
          "ticks": 17640,
          "time": 14.13460125,
          "velocity": 0.3937007874015748
        },
        {
          "duration": 0.07692300000000074,
          "durationTicks": 96,
          "midi": 65,
          "name": "F4",
          "ticks": 17760,
          "time": 14.230755,
          "velocity": 0.3937007874015748
        },
        {
          "duration": 0.07692300000000074,
          "durationTicks": 96,
          "midi": 70,
          "name": "A#4",
          "ticks": 17880,
          "time": 14.32690875,
          "velocity": 0.3937007874015748
        },
        {
          "duration": 0.07692300000000252,
          "durationTicks": 96,
          "midi": 69,
          "name": "A4",
          "ticks": 18000,
          "time": 14.423062499999999,
          "velocity": 0.3937007874015748
        },
        {
          "duration": 0.07692300000000074,
          "durationTicks": 96,
          "midi": 68,
          "name": "G#4",
          "ticks": 18120,
          "time": 14.51921625,
          "velocity": 0.3937007874015748
        },
        {
          "duration": 0.07692300000000252,
          "durationTicks": 96,
          "midi": 69,
          "name": "A4",
          "ticks": 18240,
          "time": 14.615369999999999,
          "velocity": 0.3937007874015748
        },
        {
          "duration": 0.07692300000000074,
          "durationTicks": 96,
          "midi": 68,
          "name": "G#4",
          "ticks": 18360,
          "time": 14.71152375,
          "velocity": 0.3937007874015748
        },
        {
          "duration": 0.07692300000000252,
          "durationTicks": 96,
          "midi": 67,
          "name": "G4",
          "ticks": 18480,
          "time": 14.807677499999999,
          "velocity": 0.3937007874015748
        },
        {
          "duration": 0.07692300000000074,
          "durationTicks": 96,
          "midi": 66,
          "name": "F#4",
          "ticks": 18600,
          "time": 14.90383125,
          "velocity": 0.3937007874015748
        },
        {
          "duration": 0.07692300000000252,
          "durationTicks": 96,
          "midi": 65,
          "name": "F4",
          "ticks": 18720,
          "time": 14.999984999999999,
          "velocity": 0.3937007874015748
        },
        {
          "duration": 0.07692300000000074,
          "durationTicks": 96,
          "midi": 66,
          "name": "F#4",
          "ticks": 18840,
          "time": 15.09613875,
          "velocity": 0.3937007874015748
        },
        {
          "duration": 0.07692300000000074,
          "durationTicks": 96,
          "midi": 67,
          "name": "G4",
          "ticks": 18960,
          "time": 15.192292499999999,
          "velocity": 0.3937007874015748
        },
        {
          "duration": 0.07692300000000074,
          "durationTicks": 96,
          "midi": 68,
          "name": "G#4",
          "ticks": 19080,
          "time": 15.28844625,
          "velocity": 0.3937007874015748
        },
        {
          "duration": 0.07692300000000074,
          "durationTicks": 96,
          "midi": 69,
          "name": "A4",
          "ticks": 19200,
          "time": 15.384599999999999,
          "velocity": 0.3937007874015748
        },
        {
          "duration": 0.07692300000000074,
          "durationTicks": 96,
          "midi": 68,
          "name": "G#4",
          "ticks": 19320,
          "time": 15.48075375,
          "velocity": 0.3937007874015748
        },
        {
          "duration": 0.07692300000000074,
          "durationTicks": 96,
          "midi": 67,
          "name": "G4",
          "ticks": 19440,
          "time": 15.576907499999999,
          "velocity": 0.3937007874015748
        },
        {
          "duration": 0.07692300000000074,
          "durationTicks": 96,
          "midi": 66,
          "name": "F#4",
          "ticks": 19560,
          "time": 15.67306125,
          "velocity": 0.3937007874015748
        },
        {
          "duration": 0.07692300000000074,
          "durationTicks": 96,
          "midi": 67,
          "name": "G4",
          "ticks": 19680,
          "time": 15.769214999999999,
          "velocity": 0.3937007874015748
        },
        {
          "duration": 0.07692300000000074,
          "durationTicks": 96,
          "midi": 66,
          "name": "F#4",
          "ticks": 19800,
          "time": 15.86536875,
          "velocity": 0.3937007874015748
        },
        {
          "duration": 0.07692300000000252,
          "durationTicks": 96,
          "midi": 65,
          "name": "F4",
          "ticks": 19920,
          "time": 15.9615225,
          "velocity": 0.3937007874015748
        },
        {
          "duration": 0.07692300000000074,
          "durationTicks": 96,
          "midi": 64,
          "name": "E4",
          "ticks": 20040,
          "time": 16.05767625,
          "velocity": 0.3937007874015748
        },
        {
          "duration": 0.07692300000000074,
          "durationTicks": 96,
          "midi": 65,
          "name": "F4",
          "ticks": 20160,
          "time": 16.15383,
          "velocity": 0.3779527559055118
        },
        {
          "duration": 0.07692300000000074,
          "durationTicks": 96,
          "midi": 66,
          "name": "F#4",
          "ticks": 20280,
          "time": 16.24998375,
          "velocity": 0.41732283464566927
        },
        {
          "duration": 0.07692300000000074,
          "durationTicks": 96,
          "midi": 67,
          "name": "G4",
          "ticks": 20400,
          "time": 16.3461375,
          "velocity": 0.44881889763779526
        },
        {
          "duration": 0.07692300000000074,
          "durationTicks": 96,
          "midi": 68,
          "name": "G#4",
          "ticks": 20520,
          "time": 16.44229125,
          "velocity": 0.4881889763779528
        },
        {
          "duration": 0.07692300000000074,
          "durationTicks": 96,
          "midi": 69,
          "name": "A4",
          "ticks": 20640,
          "time": 16.538445,
          "velocity": 0.5039370078740157
        },
        {
          "duration": 0.07692300000000074,
          "durationTicks": 96,
          "midi": 70,
          "name": "A#4",
          "ticks": 20760,
          "time": 16.63459875,
          "velocity": 0.4645669291338583
        },
        {
          "duration": 0.0769230000000043,
          "durationTicks": 96,
          "midi": 69,
          "name": "A4",
          "ticks": 20880,
          "time": 16.730752499999998,
          "velocity": 0.4409448818897638
        },
        {
          "duration": 0.07692300000000074,
          "durationTicks": 96,
          "midi": 68,
          "name": "G#4",
          "ticks": 21000,
          "time": 16.82690625,
          "velocity": 0.4015748031496063
        },
        {
          "duration": 0.07692300000000074,
          "durationTicks": 96,
          "midi": 69,
          "name": "A4",
          "ticks": 21120,
          "time": 16.92306,
          "velocity": 0.3937007874015748
        },
        {
          "duration": 0.07692300000000074,
          "durationTicks": 96,
          "midi": 68,
          "name": "G#4",
          "ticks": 21240,
          "time": 17.01921375,
          "velocity": 0.3937007874015748
        },
        {
          "duration": 0.0769230000000043,
          "durationTicks": 96,
          "midi": 67,
          "name": "G4",
          "ticks": 21360,
          "time": 17.115367499999998,
          "velocity": 0.3937007874015748
        },
        {
          "duration": 0.07692300000000074,
          "durationTicks": 96,
          "midi": 66,
          "name": "F#4",
          "ticks": 21480,
          "time": 17.21152125,
          "velocity": 0.3937007874015748
        },
        {
          "duration": 0.07692300000000074,
          "durationTicks": 96,
          "midi": 67,
          "name": "G4",
          "ticks": 21600,
          "time": 17.307675,
          "velocity": 0.3937007874015748
        },
        {
          "duration": 0.07692300000000074,
          "durationTicks": 96,
          "midi": 66,
          "name": "F#4",
          "ticks": 21720,
          "time": 17.40382875,
          "velocity": 0.3937007874015748
        },
        {
          "duration": 0.07692300000000074,
          "durationTicks": 96,
          "midi": 65,
          "name": "F4",
          "ticks": 21840,
          "time": 17.499982499999998,
          "velocity": 0.3937007874015748
        },
        {
          "duration": 0.07692300000000074,
          "durationTicks": 96,
          "midi": 64,
          "name": "E4",
          "ticks": 21960,
          "time": 17.59613625,
          "velocity": 0.3937007874015748
        },
        {
          "duration": 0.07692300000000074,
          "durationTicks": 96,
          "midi": 65,
          "name": "F4",
          "ticks": 22080,
          "time": 17.69229,
          "velocity": 0.3858267716535433
        },
        {
          "duration": 0.07692300000000074,
          "durationTicks": 96,
          "midi": 66,
          "name": "F#4",
          "ticks": 22200,
          "time": 17.78844375,
          "velocity": 0.4409448818897638
        },
        {
          "duration": 0.07692300000000074,
          "durationTicks": 96,
          "midi": 67,
          "name": "G4",
          "ticks": 22320,
          "time": 17.884597499999998,
          "velocity": 0.4881889763779528
        },
        {
          "duration": 0.07692300000000074,
          "durationTicks": 96,
          "midi": 68,
          "name": "G#4",
          "ticks": 22440,
          "time": 17.98075125,
          "velocity": 0.5118110236220472
        },
        {
          "duration": 0.07692300000000074,
          "durationTicks": 96,
          "midi": 69,
          "name": "A4",
          "ticks": 22560,
          "time": 18.076905,
          "velocity": 0.5039370078740157
        },
        {
          "duration": 0.07692300000000074,
          "durationTicks": 96,
          "midi": 70,
          "name": "A#4",
          "ticks": 22680,
          "time": 18.17305875,
          "velocity": 0.47244094488188976
        },
        {
          "duration": 0.07692300000000074,
          "durationTicks": 96,
          "midi": 69,
          "name": "A4",
          "ticks": 22800,
          "time": 18.2692125,
          "velocity": 0.4409448818897638
        },
        {
          "duration": 0.07692300000000074,
          "durationTicks": 96,
          "midi": 68,
          "name": "G#4",
          "ticks": 22920,
          "time": 18.36536625,
          "velocity": 0.4094488188976378
        },
        {
          "duration": 0.07692300000000074,
          "durationTicks": 96,
          "midi": 69,
          "name": "A4",
          "ticks": 23040,
          "time": 18.46152,
          "velocity": 0.3937007874015748
        },
        {
          "duration": 0.07692300000000074,
          "durationTicks": 96,
          "midi": 57,
          "name": "A3",
          "ticks": 23160,
          "time": 18.55767375,
          "velocity": 0.3937007874015748
        },
        {
          "duration": 0.0769230000000043,
          "durationTicks": 96,
          "midi": 57,
          "name": "A3",
          "ticks": 23400,
          "time": 18.749981249999998,
          "velocity": 0.3858267716535433
        },
        {
          "duration": 0.07692300000000074,
          "durationTicks": 96,
          "midi": 57,
          "name": "A3",
          "ticks": 23640,
          "time": 18.94228875,
          "velocity": 0.44881889763779526
        },
        {
          "duration": 0.0769230000000043,
          "durationTicks": 96,
          "midi": 57,
          "name": "A3",
          "ticks": 23880,
          "time": 19.134596249999998,
          "velocity": 0.5039370078740157
        },
        {
          "duration": 0.07692300000000074,
          "durationTicks": 96,
          "midi": 56,
          "name": "G#3",
          "ticks": 24000,
          "time": 19.23075,
          "velocity": 0.6692913385826772
        },
        {
          "duration": 0.07692300000000074,
          "durationTicks": 96,
          "midi": 58,
          "name": "A#3",
          "ticks": 24000,
          "time": 19.23075,
          "velocity": 0.6692913385826772
        },
        {
          "duration": 0.07692300000000074,
          "durationTicks": 96,
          "midi": 57,
          "name": "A3",
          "ticks": 24120,
          "time": 19.32690375,
          "velocity": 0.5118110236220472
        },
        {
          "duration": 0.07692300000000074,
          "durationTicks": 96,
          "midi": 70,
          "name": "A#4",
          "ticks": 24120,
          "time": 19.32690375,
          "velocity": 0.5118110236220472
        },
        {
          "duration": 0.07692300000000074,
          "durationTicks": 96,
          "midi": 56,
          "name": "G#3",
          "ticks": 24240,
          "time": 19.4230575,
          "velocity": 0.5118110236220472
        },
        {
          "duration": 0.07692300000000074,
          "durationTicks": 96,
          "midi": 58,
          "name": "A#3",
          "ticks": 24240,
          "time": 19.4230575,
          "velocity": 0.5118110236220472
        },
        {
          "duration": 0.07692300000000074,
          "durationTicks": 96,
          "midi": 57,
          "name": "A3",
          "ticks": 24360,
          "time": 19.519211249999998,
          "velocity": 0.5039370078740157
        },
        {
          "duration": 0.07692300000000074,
          "durationTicks": 96,
          "midi": 70,
          "name": "A#4",
          "ticks": 24360,
          "time": 19.519211249999998,
          "velocity": 0.5039370078740157
        },
        {
          "duration": 0.07692300000000074,
          "durationTicks": 96,
          "midi": 56,
          "name": "G#3",
          "ticks": 24480,
          "time": 19.615365,
          "velocity": 0.48031496062992124
        },
        {
          "duration": 0.07692300000000074,
          "durationTicks": 96,
          "midi": 58,
          "name": "A#3",
          "ticks": 24480,
          "time": 19.615365,
          "velocity": 0.48031496062992124
        },
        {
          "duration": 0.07692300000000074,
          "durationTicks": 96,
          "midi": 57,
          "name": "A3",
          "ticks": 24600,
          "time": 19.71151875,
          "velocity": 0.4566929133858268
        },
        {
          "duration": 0.07692300000000074,
          "durationTicks": 96,
          "midi": 70,
          "name": "A#4",
          "ticks": 24600,
          "time": 19.71151875,
          "velocity": 0.4566929133858268
        },
        {
          "duration": 0.07692300000000074,
          "durationTicks": 96,
          "midi": 56,
          "name": "G#3",
          "ticks": 24720,
          "time": 19.8076725,
          "velocity": 0.4330708661417323
        },
        {
          "duration": 0.07692300000000074,
          "durationTicks": 96,
          "midi": 58,
          "name": "A#3",
          "ticks": 24720,
          "time": 19.8076725,
          "velocity": 0.4330708661417323
        },
        {
          "duration": 0.07692300000000074,
          "durationTicks": 96,
          "midi": 57,
          "name": "A3",
          "ticks": 24840,
          "time": 19.903826249999998,
          "velocity": 0.4015748031496063
        },
        {
          "duration": 0.07692300000000074,
          "durationTicks": 96,
          "midi": 70,
          "name": "A#4",
          "ticks": 24840,
          "time": 19.903826249999998,
          "velocity": 0.4015748031496063
        },
        {
          "duration": 0.07692300000000074,
          "durationTicks": 96,
          "midi": 69,
          "name": "A4",
          "ticks": 24960,
          "time": 19.99998,
          "velocity": 0.3937007874015748
        },
        {
          "duration": 0.07692300000000074,
          "durationTicks": 96,
          "midi": 69,
          "name": "A4",
          "ticks": 25080,
          "time": 20.09613375,
          "velocity": 0.3937007874015748
        },
        {
          "duration": 0.07692300000000074,
          "durationTicks": 96,
          "midi": 69,
          "name": "A4",
          "ticks": 25320,
          "time": 20.288441249999998,
          "velocity": 0.3937007874015748
        },
        {
          "duration": 0.07692300000000074,
          "durationTicks": 96,
          "midi": 69,
          "name": "A4",
          "ticks": 25560,
          "time": 20.48074875,
          "velocity": 0.44881889763779526
        },
        {
          "duration": 0.07692300000000074,
          "durationTicks": 96,
          "midi": 69,
          "name": "A4",
          "ticks": 25800,
          "time": 20.67305625,
          "velocity": 0.49606299212598426
        },
        {
          "duration": 0.0769230000000043,
          "durationTicks": 96,
          "midi": 68,
          "name": "G#4",
          "ticks": 25920,
          "time": 20.769209999999998,
          "velocity": 0.6614173228346457
        },
        {
          "duration": 0.0769230000000043,
          "durationTicks": 96,
          "midi": 70,
          "name": "A#4",
          "ticks": 25920,
          "time": 20.769209999999998,
          "velocity": 0.6614173228346457
        },
        {
          "duration": 0.07692300000000074,
          "durationTicks": 96,
          "midi": 69,
          "name": "A4",
          "ticks": 26040,
          "time": 20.86536375,
          "velocity": 0.5039370078740157
        },
        {
          "duration": 0.07692300000000074,
          "durationTicks": 96,
          "midi": 82,
          "name": "A#5",
          "ticks": 26040,
          "time": 20.86536375,
          "velocity": 0.5039370078740157
        },
        {
          "duration": 0.07692300000000074,
          "durationTicks": 96,
          "midi": 68,
          "name": "G#4",
          "ticks": 26160,
          "time": 20.9615175,
          "velocity": 0.5039370078740157
        },
        {
          "duration": 0.07692300000000074,
          "durationTicks": 96,
          "midi": 70,
          "name": "A#4",
          "ticks": 26160,
          "time": 20.9615175,
          "velocity": 0.5039370078740157
        },
        {
          "duration": 0.07692300000000074,
          "durationTicks": 96,
          "midi": 69,
          "name": "A4",
          "ticks": 26280,
          "time": 21.05767125,
          "velocity": 0.5039370078740157
        },
        {
          "duration": 0.07692300000000074,
          "durationTicks": 96,
          "midi": 82,
          "name": "A#5",
          "ticks": 26280,
          "time": 21.05767125,
          "velocity": 0.5039370078740157
        },
        {
          "duration": 0.0769230000000043,
          "durationTicks": 96,
          "midi": 68,
          "name": "G#4",
          "ticks": 26400,
          "time": 21.153824999999998,
          "velocity": 0.48031496062992124
        },
        {
          "duration": 0.0769230000000043,
          "durationTicks": 96,
          "midi": 70,
          "name": "A#4",
          "ticks": 26400,
          "time": 21.153824999999998,
          "velocity": 0.48031496062992124
        },
        {
          "duration": 0.07692300000000074,
          "durationTicks": 96,
          "midi": 69,
          "name": "A4",
          "ticks": 26520,
          "time": 21.24997875,
          "velocity": 0.44881889763779526
        },
        {
          "duration": 0.07692300000000074,
          "durationTicks": 96,
          "midi": 82,
          "name": "A#5",
          "ticks": 26520,
          "time": 21.24997875,
          "velocity": 0.44881889763779526
        },
        {
          "duration": 0.07692300000000074,
          "durationTicks": 96,
          "midi": 68,
          "name": "G#4",
          "ticks": 26640,
          "time": 21.3461325,
          "velocity": 0.4251968503937008
        },
        {
          "duration": 0.07692300000000074,
          "durationTicks": 96,
          "midi": 70,
          "name": "A#4",
          "ticks": 26640,
          "time": 21.3461325,
          "velocity": 0.4251968503937008
        },
        {
          "duration": 0.07692300000000074,
          "durationTicks": 96,
          "midi": 69,
          "name": "A4",
          "ticks": 26760,
          "time": 21.44228625,
          "velocity": 0.4015748031496063
        },
        {
          "duration": 0.07692300000000074,
          "durationTicks": 96,
          "midi": 82,
          "name": "A#5",
          "ticks": 26760,
          "time": 21.44228625,
          "velocity": 0.4015748031496063
        },
        {
          "duration": 0.07692300000000074,
          "durationTicks": 96,
          "midi": 69,
          "name": "A4",
          "ticks": 26880,
          "time": 21.538439999999998,
          "velocity": 0.3937007874015748
        },
        {
          "duration": 0.07692300000000074,
          "durationTicks": 96,
          "midi": 70,
          "name": "A#4",
          "ticks": 27000,
          "time": 21.63459375,
          "velocity": 0.3937007874015748
        },
        {
          "duration": 0.07692300000000074,
          "durationTicks": 96,
          "midi": 69,
          "name": "A4",
          "ticks": 27120,
          "time": 21.7307475,
          "velocity": 0.3937007874015748
        },
        {
          "duration": 0.07692300000000074,
          "durationTicks": 96,
          "midi": 68,
          "name": "G#4",
          "ticks": 27240,
          "time": 21.82690125,
          "velocity": 0.3937007874015748
        },
        {
          "duration": 0.07692300000000074,
          "durationTicks": 96,
          "midi": 69,
          "name": "A4",
          "ticks": 27360,
          "time": 21.923054999999998,
          "velocity": 0.3937007874015748
        },
        {
          "duration": 0.07692300000000074,
          "durationTicks": 96,
          "midi": 70,
          "name": "A#4",
          "ticks": 27480,
          "time": 22.01920875,
          "velocity": 0.3937007874015748
        },
        {
          "duration": 0.07692300000000074,
          "durationTicks": 96,
          "midi": 69,
          "name": "A4",
          "ticks": 27600,
          "time": 22.1153625,
          "velocity": 0.3937007874015748
        },
        {
          "duration": 0.07692300000000074,
          "durationTicks": 96,
          "midi": 68,
          "name": "G#4",
          "ticks": 27720,
          "time": 22.21151625,
          "velocity": 0.3937007874015748
        },
        {
          "duration": 0.07692300000000074,
          "durationTicks": 96,
          "midi": 69,
          "name": "A4",
          "ticks": 27840,
          "time": 22.307669999999998,
          "velocity": 0.4015748031496063
        },
        {
          "duration": 0.07692300000000074,
          "durationTicks": 96,
          "midi": 70,
          "name": "A#4",
          "ticks": 27960,
          "time": 22.40382375,
          "velocity": 0.4251968503937008
        },
        {
          "duration": 0.07692300000000074,
          "durationTicks": 96,
          "midi": 69,
          "name": "A4",
          "ticks": 28080,
          "time": 22.4999775,
          "velocity": 0.4566929133858268
        },
        {
          "duration": 0.07692300000000074,
          "durationTicks": 96,
          "midi": 68,
          "name": "G#4",
          "ticks": 28200,
          "time": 22.59613125,
          "velocity": 0.4881889763779528
        },
        {
          "duration": 0.07692300000000074,
          "durationTicks": 96,
          "midi": 69,
          "name": "A4",
          "ticks": 28320,
          "time": 22.692285,
          "velocity": 0.5118110236220472
        },
        {
          "duration": 0.0769230000000043,
          "durationTicks": 96,
          "midi": 70,
          "name": "A#4",
          "ticks": 28440,
          "time": 22.788438749999997,
          "velocity": 0.5433070866141733
        },
        {
          "duration": 0.07692300000000074,
          "durationTicks": 96,
          "midi": 69,
          "name": "A4",
          "ticks": 28560,
          "time": 22.8845925,
          "velocity": 0.5748031496062992
        },
        {
          "duration": 0.07692300000000074,
          "durationTicks": 96,
          "midi": 68,
          "name": "G#4",
          "ticks": 28680,
          "time": 22.98074625,
          "velocity": 0.6062992125984252
        },
        {
          "duration": 0.09455118749999869,
          "durationTicks": 118,
          "midi": 69,
          "name": "A4",
          "ticks": 28800,
          "time": 23.0769,
          "velocity": 0.6299212598425197
        },
        {
          "duration": 0.09455118749999869,
          "durationTicks": 118,
          "midi": 70,
          "name": "A#4",
          "ticks": 28920,
          "time": 23.173053749999998,
          "velocity": 0.6535433070866141
        },
        {
          "duration": 0.09455118749999869,
          "durationTicks": 118,
          "midi": 71,
          "name": "B4",
          "ticks": 29040,
          "time": 23.2692075,
          "velocity": 0.5826771653543307
        },
        {
          "duration": 0.09455118749999869,
          "durationTicks": 118,
          "midi": 72,
          "name": "C5",
          "ticks": 29160,
          "time": 23.36536125,
          "velocity": 0.5039370078740157
        },
        {
          "duration": 0.09455118749999869,
          "durationTicks": 118,
          "midi": 73,
          "name": "C#5",
          "ticks": 29280,
          "time": 23.461515,
          "velocity": 0.47244094488188976
        },
        {
          "duration": 0.09455118749999869,
          "durationTicks": 118,
          "midi": 72,
          "name": "C5",
          "ticks": 29400,
          "time": 23.557668749999998,
          "velocity": 0.47244094488188976
        },
        {
          "duration": 0.09455118749999869,
          "durationTicks": 118,
          "midi": 71,
          "name": "B4",
          "ticks": 29520,
          "time": 23.6538225,
          "velocity": 0.47244094488188976
        },
        {
          "duration": 0.09455118749999869,
          "durationTicks": 118,
          "midi": 70,
          "name": "A#4",
          "ticks": 29640,
          "time": 23.74997625,
          "velocity": 0.47244094488188976
        },
        {
          "duration": 0.09455118749999869,
          "durationTicks": 118,
          "midi": 69,
          "name": "A4",
          "ticks": 29760,
          "time": 23.84613,
          "velocity": 0.47244094488188976
        },
        {
          "duration": 0.09455118749999869,
          "durationTicks": 118,
          "midi": 70,
          "name": "A#4",
          "ticks": 29880,
          "time": 23.942283749999998,
          "velocity": 0.47244094488188976
        },
        {
          "duration": 0.09455118749999869,
          "durationTicks": 118,
          "midi": 71,
          "name": "B4",
          "ticks": 30000,
          "time": 24.0384375,
          "velocity": 0.47244094488188976
        },
        {
          "duration": 0.09455118749999869,
          "durationTicks": 118,
          "midi": 72,
          "name": "C5",
          "ticks": 30120,
          "time": 24.13459125,
          "velocity": 0.47244094488188976
        },
        {
          "duration": 0.09455118749999869,
          "durationTicks": 118,
          "midi": 73,
          "name": "C#5",
          "ticks": 30240,
          "time": 24.230745,
          "velocity": 0.47244094488188976
        },
        {
          "duration": 0.09455118749999869,
          "durationTicks": 118,
          "midi": 72,
          "name": "C5",
          "ticks": 30360,
          "time": 24.326898749999998,
          "velocity": 0.47244094488188976
        },
        {
          "duration": 0.09455118749999869,
          "durationTicks": 118,
          "midi": 71,
          "name": "B4",
          "ticks": 30480,
          "time": 24.4230525,
          "velocity": 0.47244094488188976
        },
        {
          "duration": 0.09455118749999869,
          "durationTicks": 118,
          "midi": 70,
          "name": "A#4",
          "ticks": 30600,
          "time": 24.51920625,
          "velocity": 0.47244094488188976
        },
        {
          "duration": 0.09455118750000224,
          "durationTicks": 118,
          "midi": 69,
          "name": "A4",
          "ticks": 30720,
          "time": 24.61536,
          "velocity": 0.47244094488188976
        },
        {
          "duration": 0.07692300000000074,
          "durationTicks": 96,
          "midi": 57,
          "name": "A3",
          "ticks": 31080,
          "time": 24.90382125,
          "velocity": 0.47244094488188976
        },
        {
          "duration": 0.07692300000000074,
          "durationTicks": 96,
          "midi": 57,
          "name": "A3",
          "ticks": 31320,
          "time": 25.09612875,
          "velocity": 0.47244094488188976
        },
        {
          "duration": 0.07692300000000074,
          "durationTicks": 96,
          "midi": 57,
          "name": "A3",
          "ticks": 31560,
          "time": 25.28843625,
          "velocity": 0.47244094488188976
        },
        {
          "duration": 0.07692300000000074,
          "durationTicks": 96,
          "midi": 61,
          "name": "C#4",
          "ticks": 31680,
          "time": 25.38459,
          "velocity": 0.6299212598425197
        },
        {
          "duration": 0.07692300000000074,
          "durationTicks": 96,
          "midi": 64,
          "name": "E4",
          "ticks": 31680,
          "time": 25.38459,
          "velocity": 0.6299212598425197
        },
        {
          "duration": 0.07692300000000074,
          "durationTicks": 96,
          "midi": 62,
          "name": "D4",
          "ticks": 31800,
          "time": 25.48074375,
          "velocity": 0.47244094488188976
        },
        {
          "duration": 0.07692300000000074,
          "durationTicks": 96,
          "midi": 75,
          "name": "D#5",
          "ticks": 31800,
          "time": 25.48074375,
          "velocity": 0.47244094488188976
        },
        {
          "duration": 0.07692300000000074,
          "durationTicks": 96,
          "midi": 61,
          "name": "C#4",
          "ticks": 31920,
          "time": 25.576897499999998,
          "velocity": 0.47244094488188976
        },
        {
          "duration": 0.07692300000000074,
          "durationTicks": 96,
          "midi": 63,
          "name": "D#4",
          "ticks": 31920,
          "time": 25.576897499999998,
          "velocity": 0.47244094488188976
        },
        {
          "duration": 0.07692300000000074,
          "durationTicks": 96,
          "midi": 62,
          "name": "D4",
          "ticks": 32040,
          "time": 25.67305125,
          "velocity": 0.47244094488188976
        },
        {
          "duration": 0.07692300000000074,
          "durationTicks": 96,
          "midi": 75,
          "name": "D#5",
          "ticks": 32040,
          "time": 25.67305125,
          "velocity": 0.47244094488188976
        },
        {
          "duration": 0.07692300000000074,
          "durationTicks": 96,
          "midi": 61,
          "name": "C#4",
          "ticks": 32160,
          "time": 25.769205,
          "velocity": 0.47244094488188976
        },
        {
          "duration": 0.07692300000000074,
          "durationTicks": 96,
          "midi": 63,
          "name": "D#4",
          "ticks": 32160,
          "time": 25.769205,
          "velocity": 0.47244094488188976
        },
        {
          "duration": 0.07692300000000074,
          "durationTicks": 96,
          "midi": 62,
          "name": "D4",
          "ticks": 32280,
          "time": 25.86535875,
          "velocity": 0.47244094488188976
        },
        {
          "duration": 0.07692300000000074,
          "durationTicks": 96,
          "midi": 75,
          "name": "D#5",
          "ticks": 32280,
          "time": 25.86535875,
          "velocity": 0.47244094488188976
        },
        {
          "duration": 0.07692300000000074,
          "durationTicks": 96,
          "midi": 61,
          "name": "C#4",
          "ticks": 32400,
          "time": 25.961512499999998,
          "velocity": 0.47244094488188976
        },
        {
          "duration": 0.07692300000000074,
          "durationTicks": 96,
          "midi": 63,
          "name": "D#4",
          "ticks": 32400,
          "time": 25.961512499999998,
          "velocity": 0.47244094488188976
        },
        {
          "duration": 0.07692300000000074,
          "durationTicks": 96,
          "midi": 62,
          "name": "D4",
          "ticks": 32520,
          "time": 26.05766625,
          "velocity": 0.47244094488188976
        },
        {
          "duration": 0.07692300000000074,
          "durationTicks": 96,
          "midi": 75,
          "name": "D#5",
          "ticks": 32520,
          "time": 26.05766625,
          "velocity": 0.47244094488188976
        },
        {
          "duration": 0.07692300000000074,
          "durationTicks": 96,
          "midi": 74,
          "name": "D5",
          "ticks": 32640,
          "time": 26.15382,
          "velocity": 0.47244094488188976
        },
        {
          "duration": 0.07692300000000074,
          "durationTicks": 96,
          "midi": 74,
          "name": "D5",
          "ticks": 32760,
          "time": 26.24997375,
          "velocity": 0.47244094488188976
        },
        {
          "duration": 0.07692300000000074,
          "durationTicks": 96,
          "midi": 74,
          "name": "D5",
          "ticks": 33000,
          "time": 26.44228125,
          "velocity": 0.47244094488188976
        },
        {
          "duration": 0.07692300000000074,
          "durationTicks": 96,
          "midi": 74,
          "name": "D5",
          "ticks": 33240,
          "time": 26.63458875,
          "velocity": 0.47244094488188976
        },
        {
          "duration": 0.0769230000000043,
          "durationTicks": 96,
          "midi": 74,
          "name": "D5",
          "ticks": 33480,
          "time": 26.826896249999997,
          "velocity": 0.47244094488188976
        },
        {
          "duration": 0.07692300000000074,
          "durationTicks": 96,
          "midi": 73,
          "name": "C#5",
          "ticks": 33600,
          "time": 26.92305,
          "velocity": 0.6299212598425197
        },
        {
          "duration": 0.07692300000000074,
          "durationTicks": 96,
          "midi": 75,
          "name": "D#5",
          "ticks": 33600,
          "time": 26.92305,
          "velocity": 0.6299212598425197
        },
        {
          "duration": 0.07692300000000074,
          "durationTicks": 96,
          "midi": 74,
          "name": "D5",
          "ticks": 33720,
          "time": 27.01920375,
          "velocity": 0.47244094488188976
        },
        {
          "duration": 0.07692300000000074,
          "durationTicks": 96,
          "midi": 87,
          "name": "D#6",
          "ticks": 33720,
          "time": 27.01920375,
          "velocity": 0.47244094488188976
        },
        {
          "duration": 0.07692300000000074,
          "durationTicks": 96,
          "midi": 73,
          "name": "C#5",
          "ticks": 33840,
          "time": 27.1153575,
          "velocity": 0.47244094488188976
        },
        {
          "duration": 0.07692300000000074,
          "durationTicks": 96,
          "midi": 75,
          "name": "D#5",
          "ticks": 33840,
          "time": 27.1153575,
          "velocity": 0.47244094488188976
        },
        {
          "duration": 0.0769230000000043,
          "durationTicks": 96,
          "midi": 74,
          "name": "D5",
          "ticks": 33960,
          "time": 27.211511249999997,
          "velocity": 0.47244094488188976
        },
        {
          "duration": 0.0769230000000043,
          "durationTicks": 96,
          "midi": 87,
          "name": "D#6",
          "ticks": 33960,
          "time": 27.211511249999997,
          "velocity": 0.47244094488188976
        },
        {
          "duration": 0.07692300000000074,
          "durationTicks": 96,
          "midi": 73,
          "name": "C#5",
          "ticks": 34080,
          "time": 27.307665,
          "velocity": 0.47244094488188976
        },
        {
          "duration": 0.07692300000000074,
          "durationTicks": 96,
          "midi": 75,
          "name": "D#5",
          "ticks": 34080,
          "time": 27.307665,
          "velocity": 0.47244094488188976
        },
        {
          "duration": 0.07692300000000074,
          "durationTicks": 96,
          "midi": 74,
          "name": "D5",
          "ticks": 34200,
          "time": 27.40381875,
          "velocity": 0.47244094488188976
        },
        {
          "duration": 0.07692300000000074,
          "durationTicks": 96,
          "midi": 87,
          "name": "D#6",
          "ticks": 34200,
          "time": 27.40381875,
          "velocity": 0.47244094488188976
        },
        {
          "duration": 0.07692300000000074,
          "durationTicks": 96,
          "midi": 73,
          "name": "C#5",
          "ticks": 34320,
          "time": 27.4999725,
          "velocity": 0.47244094488188976
        },
        {
          "duration": 0.07692300000000074,
          "durationTicks": 96,
          "midi": 75,
          "name": "D#5",
          "ticks": 34320,
          "time": 27.4999725,
          "velocity": 0.47244094488188976
        },
        {
          "duration": 0.07692300000000074,
          "durationTicks": 96,
          "midi": 74,
          "name": "D5",
          "ticks": 34440,
          "time": 27.596126249999998,
          "velocity": 0.47244094488188976
        },
        {
          "duration": 0.07692300000000074,
          "durationTicks": 96,
          "midi": 87,
          "name": "D#6",
          "ticks": 34440,
          "time": 27.596126249999998,
          "velocity": 0.47244094488188976
        },
        {
          "duration": 0.07692300000000074,
          "durationTicks": 96,
          "midi": 74,
          "name": "D5",
          "ticks": 34560,
          "time": 27.69228,
          "velocity": 0.47244094488188976
        },
        {
          "duration": 0.07692300000000074,
          "durationTicks": 96,
          "midi": 75,
          "name": "D#5",
          "ticks": 34680,
          "time": 27.78843375,
          "velocity": 0.47244094488188976
        },
        {
          "duration": 0.07692300000000074,
          "durationTicks": 96,
          "midi": 74,
          "name": "D5",
          "ticks": 34800,
          "time": 27.8845875,
          "velocity": 0.47244094488188976
        },
        {
          "duration": 0.07692300000000074,
          "durationTicks": 96,
          "midi": 73,
          "name": "C#5",
          "ticks": 34920,
          "time": 27.980741249999998,
          "velocity": 0.47244094488188976
        },
        {
          "duration": 0.07692300000000074,
          "durationTicks": 96,
          "midi": 74,
          "name": "D5",
          "ticks": 35040,
          "time": 28.076895,
          "velocity": 0.47244094488188976
        },
        {
          "duration": 0.07692300000000074,
          "durationTicks": 96,
          "midi": 75,
          "name": "D#5",
          "ticks": 35160,
          "time": 28.17304875,
          "velocity": 0.47244094488188976
        },
        {
          "duration": 0.07692300000000074,
          "durationTicks": 96,
          "midi": 74,
          "name": "D5",
          "ticks": 35280,
          "time": 28.2692025,
          "velocity": 0.47244094488188976
        },
        {
          "duration": 0.07692300000000074,
          "durationTicks": 96,
          "midi": 73,
          "name": "C#5",
          "ticks": 35400,
          "time": 28.365356249999998,
          "velocity": 0.47244094488188976
        },
        {
          "duration": 0.07692300000000074,
          "durationTicks": 96,
          "midi": 74,
          "name": "D5",
          "ticks": 35520,
          "time": 28.46151,
          "velocity": 0.4566929133858268
        },
        {
          "duration": 0.07692300000000074,
          "durationTicks": 96,
          "midi": 75,
          "name": "D#5",
          "ticks": 35640,
          "time": 28.55766375,
          "velocity": 0.4881889763779528
        },
        {
          "duration": 0.07692300000000074,
          "durationTicks": 96,
          "midi": 74,
          "name": "D5",
          "ticks": 35760,
          "time": 28.6538175,
          "velocity": 0.5196850393700787
        },
        {
          "duration": 0.07692300000000074,
          "durationTicks": 96,
          "midi": 73,
          "name": "C#5",
          "ticks": 35880,
          "time": 28.749971249999998,
          "velocity": 0.5511811023622047
        },
        {
          "duration": 0.0769230000000043,
          "durationTicks": 96,
          "midi": 74,
          "name": "D5",
          "ticks": 36000,
          "time": 28.846124999999997,
          "velocity": 0.5826771653543307
        },
        {
          "duration": 0.07692300000000074,
          "durationTicks": 96,
          "midi": 75,
          "name": "D#5",
          "ticks": 36120,
          "time": 28.94227875,
          "velocity": 0.6220472440944882
        },
        {
          "duration": 0.07692300000000074,
          "durationTicks": 96,
          "midi": 74,
          "name": "D5",
          "ticks": 36240,
          "time": 29.0384325,
          "velocity": 0.6535433070866141
        },
        {
          "duration": 0.07692300000000074,
          "durationTicks": 96,
          "midi": 73,
          "name": "C#5",
          "ticks": 36360,
          "time": 29.134586249999998,
          "velocity": 0.6850393700787402
        },
        {
          "duration": 0.09455118750000224,
          "durationTicks": 118,
          "midi": 74,
          "name": "D5",
          "ticks": 36480,
          "time": 29.230739999999997,
          "velocity": 0.7007874015748031
        },
        {
          "duration": 0.09455118749999869,
          "durationTicks": 118,
          "midi": 75,
          "name": "D#5",
          "ticks": 36600,
          "time": 29.32689375,
          "velocity": 0.6456692913385826
        },
        {
          "duration": 0.055288406249999866,
          "durationTicks": 69,
          "midi": 76,
          "name": "E5",
          "ticks": 36720,
          "time": 29.4230475,
          "velocity": 0.5826771653543307
        },
        {
          "duration": 0.09455118750000224,
          "durationTicks": 118,
          "midi": 77,
          "name": "F5",
          "ticks": 36840,
          "time": 29.51920125,
          "velocity": 0.5118110236220472
        },
        {
          "duration": 0.09455118750000224,
          "durationTicks": 118,
          "midi": 78,
          "name": "F#5",
          "ticks": 36960,
          "time": 29.615354999999997,
          "velocity": 0.47244094488188976
        },
        {
          "duration": 0.09455118749999869,
          "durationTicks": 118,
          "midi": 77,
          "name": "F5",
          "ticks": 37080,
          "time": 29.71150875,
          "velocity": 0.47244094488188976
        },
        {
          "duration": 0.09455118750000224,
          "durationTicks": 118,
          "midi": 76,
          "name": "E5",
          "ticks": 37200,
          "time": 29.8076625,
          "velocity": 0.47244094488188976
        },
        {
          "duration": 0.09455118750000224,
          "durationTicks": 118,
          "midi": 75,
          "name": "D#5",
          "ticks": 37320,
          "time": 29.90381625,
          "velocity": 0.47244094488188976
        },
        {
          "duration": 0.09455118750000224,
          "durationTicks": 118,
          "midi": 74,
          "name": "D5",
          "ticks": 37440,
          "time": 29.999969999999998,
          "velocity": 0.47244094488188976
        },
        {
          "duration": 0.09455118749999869,
          "durationTicks": 118,
          "midi": 75,
          "name": "D#5",
          "ticks": 37560,
          "time": 30.09612375,
          "velocity": 0.47244094488188976
        },
        {
          "duration": 0.09455118750000224,
          "durationTicks": 118,
          "midi": 76,
          "name": "E5",
          "ticks": 37680,
          "time": 30.1922775,
          "velocity": 0.47244094488188976
        },
        {
          "duration": 0.09455118750000224,
          "durationTicks": 118,
          "midi": 77,
          "name": "F5",
          "ticks": 37800,
          "time": 30.28843125,
          "velocity": 0.47244094488188976
        },
        {
          "duration": 0.09455118750000224,
          "durationTicks": 118,
          "midi": 78,
          "name": "F#5",
          "ticks": 37920,
          "time": 30.384584999999998,
          "velocity": 0.47244094488188976
        },
        {
          "duration": 0.09455118749999869,
          "durationTicks": 118,
          "midi": 77,
          "name": "F5",
          "ticks": 38040,
          "time": 30.48073875,
          "velocity": 0.47244094488188976
        },
        {
          "duration": 0.09455118750000224,
          "durationTicks": 118,
          "midi": 76,
          "name": "E5",
          "ticks": 38160,
          "time": 30.5768925,
          "velocity": 0.47244094488188976
        },
        {
          "duration": 0.09455118750000224,
          "durationTicks": 118,
          "midi": 75,
          "name": "D#5",
          "ticks": 38280,
          "time": 30.67304625,
          "velocity": 0.47244094488188976
        },
        {
          "duration": 0.09455118750000224,
          "durationTicks": 118,
          "midi": 74,
          "name": "D5",
          "ticks": 38400,
          "time": 30.769199999999998,
          "velocity": 0.47244094488188976
        },
        {
          "duration": 0.09455118750000224,
          "durationTicks": 118,
          "midi": 73,
          "name": "C#5",
          "ticks": 38520,
          "time": 30.865353749999997,
          "velocity": 0.47244094488188976
        },
        {
          "duration": 0.09455118750000224,
          "durationTicks": 118,
          "midi": 72,
          "name": "C5",
          "ticks": 38640,
          "time": 30.9615075,
          "velocity": 0.47244094488188976
        },
        {
          "duration": 0.09455118750000224,
          "durationTicks": 118,
          "midi": 71,
          "name": "B4",
          "ticks": 38760,
          "time": 31.05766125,
          "velocity": 0.47244094488188976
        },
        {
          "duration": 0.09455118750000224,
          "durationTicks": 118,
          "midi": 87,
          "name": "D#6",
          "ticks": 39000,
          "time": 31.249968749999997,
          "velocity": 0.47244094488188976
        },
        {
          "duration": 0.09455118749999869,
          "durationTicks": 118,
          "midi": 86,
          "name": "D6",
          "ticks": 39120,
          "time": 31.3461225,
          "velocity": 0.47244094488188976
        },
        {
          "duration": 0.09455118750000224,
          "durationTicks": 118,
          "midi": 85,
          "name": "C#6",
          "ticks": 39240,
          "time": 31.44227625,
          "velocity": 0.47244094488188976
        },
        {
          "duration": 0.09455118750000224,
          "durationTicks": 118,
          "midi": 86,
          "name": "D6",
          "ticks": 39360,
          "time": 31.538429999999998,
          "velocity": 0.47244094488188976
        },
        {
          "duration": 0.09455118750000224,
          "durationTicks": 118,
          "midi": 85,
          "name": "C#6",
          "ticks": 39480,
          "time": 31.634583749999997,
          "velocity": 0.47244094488188976
        },
        {
          "duration": 0.09455118749999869,
          "durationTicks": 118,
          "midi": 84,
          "name": "C6",
          "ticks": 39600,
          "time": 31.7307375,
          "velocity": 0.47244094488188976
        },
        {
          "duration": 0.09455118750000224,
          "durationTicks": 118,
          "midi": 83,
          "name": "B5",
          "ticks": 39720,
          "time": 31.82689125,
          "velocity": 0.47244094488188976
        },
        {
          "duration": 0.09455118749999869,
          "durationTicks": 118,
          "midi": 82,
          "name": "A#5",
          "ticks": 39840,
          "time": 31.923045,
          "velocity": 0.47244094488188976
        },
        {
          "duration": 0.09455118750000224,
          "durationTicks": 118,
          "midi": 83,
          "name": "B5",
          "ticks": 39960,
          "time": 32.01919875,
          "velocity": 0.47244094488188976
        },
        {
          "duration": 0.09455118750000224,
          "durationTicks": 118,
          "midi": 84,
          "name": "C6",
          "ticks": 40080,
          "time": 32.1153525,
          "velocity": 0.47244094488188976
        },
        {
          "duration": 0.09455118750000224,
          "durationTicks": 118,
          "midi": 85,
          "name": "C#6",
          "ticks": 40200,
          "time": 32.21150625,
          "velocity": 0.47244094488188976
        },
        {
          "duration": 0.09455118750000224,
          "durationTicks": 118,
          "midi": 86,
          "name": "D6",
          "ticks": 40320,
          "time": 32.30766,
          "velocity": 0.44881889763779526
        },
        {
          "duration": 0.09455118750000224,
          "durationTicks": 118,
          "midi": 85,
          "name": "C#6",
          "ticks": 40440,
          "time": 32.40381375,
          "velocity": 0.4645669291338583
        },
        {
          "duration": 0.09455118750000224,
          "durationTicks": 118,
          "midi": 84,
          "name": "C6",
          "ticks": 40560,
          "time": 32.4999675,
          "velocity": 0.48031496062992124
        },
        {
          "duration": 0.09455118750000224,
          "durationTicks": 118,
          "midi": 83,
          "name": "B5",
          "ticks": 40680,
          "time": 32.596121249999996,
          "velocity": 0.5039370078740157
        },
        {
          "duration": 0.09455118749999514,
          "durationTicks": 118,
          "midi": 84,
          "name": "C6",
          "ticks": 40800,
          "time": 32.692275,
          "velocity": 0.5196850393700787
        },
        {
          "duration": 0.09455118750000224,
          "durationTicks": 118,
          "midi": 83,
          "name": "B5",
          "ticks": 40920,
          "time": 32.78842875,
          "velocity": 0.5354330708661418
        },
        {
          "duration": 0.09455118750000224,
          "durationTicks": 118,
          "midi": 82,
          "name": "A#5",
          "ticks": 41040,
          "time": 32.8845825,
          "velocity": 0.5511811023622047
        },
        {
          "duration": 0.09455118750000224,
          "durationTicks": 118,
          "midi": 81,
          "name": "A5",
          "ticks": 41160,
          "time": 32.98073625,
          "velocity": 0.5669291338582677
        },
        {
          "duration": 0.09455118750000224,
          "durationTicks": 118,
          "midi": 82,
          "name": "A#5",
          "ticks": 41280,
          "time": 33.07689,
          "velocity": 0.5826771653543307
        },
        {
          "duration": 0.09455118750000224,
          "durationTicks": 118,
          "midi": 83,
          "name": "B5",
          "ticks": 41400,
          "time": 33.17304375,
          "velocity": 0.5984251968503937
        },
        {
          "duration": 0.09455118750000224,
          "durationTicks": 118,
          "midi": 84,
          "name": "C6",
          "ticks": 41520,
          "time": 33.2691975,
          "velocity": 0.6141732283464567
        },
        {
          "duration": 0.09455118750000224,
          "durationTicks": 118,
          "midi": 85,
          "name": "C#6",
          "ticks": 41640,
          "time": 33.365351249999996,
          "velocity": 0.6299212598425197
        },
        {
          "duration": 0.09455118750000224,
          "durationTicks": 118,
          "midi": 84,
          "name": "C6",
          "ticks": 41760,
          "time": 33.461504999999995,
          "velocity": 0.6456692913385826
        },
        {
          "duration": 0.09455118749999514,
          "durationTicks": 118,
          "midi": 85,
          "name": "C#6",
          "ticks": 41880,
          "time": 33.55765875,
          "velocity": 0.6692913385826772
        },
        {
          "duration": 0.09455118750000224,
          "durationTicks": 118,
          "midi": 86,
          "name": "D6",
          "ticks": 42000,
          "time": 33.6538125,
          "velocity": 0.6850393700787402
        },
        {
          "duration": 0.09455118750000224,
          "durationTicks": 118,
          "midi": 87,
          "name": "D#6",
          "ticks": 42120,
          "time": 33.74996625,
          "velocity": 0.7007874015748031
        },
        {
          "duration": 0.09455118750000224,
          "durationTicks": 118,
          "midi": 88,
          "name": "E6",
          "ticks": 42240,
          "time": 33.84612,
          "velocity": 0.7086614173228346
        },
        {
          "duration": 0.09455118750000224,
          "durationTicks": 118,
          "midi": 87,
          "name": "D#6",
          "ticks": 42360,
          "time": 33.94227375,
          "velocity": 0.7086614173228346
        },
        {
          "duration": 0.09455118750000224,
          "durationTicks": 118,
          "midi": 86,
          "name": "D6",
          "ticks": 42480,
          "time": 34.0384275,
          "velocity": 0.7086614173228346
        },
        {
          "duration": 0.09455118750000224,
          "durationTicks": 118,
          "midi": 85,
          "name": "C#6",
          "ticks": 42600,
          "time": 34.13458125,
          "velocity": 0.7086614173228346
        },
        {
          "duration": 0.09455118750000224,
          "durationTicks": 118,
          "midi": 86,
          "name": "D6",
          "ticks": 42720,
          "time": 34.230734999999996,
          "velocity": 0.7086614173228346
        },
        {
          "duration": 0.09455118749999514,
          "durationTicks": 118,
          "midi": 85,
          "name": "C#6",
          "ticks": 42840,
          "time": 34.32688875,
          "velocity": 0.7086614173228346
        },
        {
          "duration": 0.09455118750000224,
          "durationTicks": 118,
          "midi": 84,
          "name": "C6",
          "ticks": 42960,
          "time": 34.4230425,
          "velocity": 0.7086614173228346
        },
        {
          "duration": 0.09455118750000224,
          "durationTicks": 118,
          "midi": 83,
          "name": "B5",
          "ticks": 43080,
          "time": 34.51919625,
          "velocity": 0.7086614173228346
        },
        {
          "duration": 0.09455118750000224,
          "durationTicks": 118,
          "midi": 84,
          "name": "C6",
          "ticks": 43200,
          "time": 34.61535,
          "velocity": 0.7086614173228346
        },
        {
          "duration": 0.09455118750000224,
          "durationTicks": 118,
          "midi": 83,
          "name": "B5",
          "ticks": 43320,
          "time": 34.71150375,
          "velocity": 0.7086614173228346
        },
        {
          "duration": 0.09455118750000224,
          "durationTicks": 118,
          "midi": 82,
          "name": "A#5",
          "ticks": 43440,
          "time": 34.8076575,
          "velocity": 0.7086614173228346
        },
        {
          "duration": 0.09455118750000224,
          "durationTicks": 118,
          "midi": 81,
          "name": "A5",
          "ticks": 43560,
          "time": 34.90381125,
          "velocity": 0.7086614173228346
        },
        {
          "duration": 0.09455118750000224,
          "durationTicks": 118,
          "midi": 80,
          "name": "G#5",
          "ticks": 43680,
          "time": 34.999964999999996,
          "velocity": 0.7086614173228346
        },
        {
          "duration": 0.09455118750000224,
          "durationTicks": 118,
          "midi": 79,
          "name": "G5",
          "ticks": 43800,
          "time": 35.096118749999995,
          "velocity": 0.7086614173228346
        },
        {
          "duration": 0.09455118749999514,
          "durationTicks": 118,
          "midi": 78,
          "name": "F#5",
          "ticks": 43920,
          "time": 35.1922725,
          "velocity": 0.7086614173228346
        },
        {
          "duration": 0.09455118750000224,
          "durationTicks": 118,
          "midi": 77,
          "name": "F5",
          "ticks": 44040,
          "time": 35.28842625,
          "velocity": 0.7086614173228346
        },
        {
          "duration": 0.08653837499999639,
          "durationTicks": 108,
          "midi": 76,
          "name": "E5",
          "ticks": 44160,
          "time": 35.38458,
          "velocity": 0.8661417322834646
        },
        {
          "duration": 0.07692300000000074,
          "durationTicks": 96,
          "midi": 77,
          "name": "F5",
          "ticks": 44280,
          "time": 35.48073375,
          "velocity": 0.7086614173228346
        },
        {
          "duration": 0.07692300000000074,
          "durationTicks": 96,
          "midi": 76,
          "name": "E5",
          "ticks": 44400,
          "time": 35.5768875,
          "velocity": 0.7086614173228346
        },
        {
          "duration": 0.07692300000000074,
          "durationTicks": 96,
          "midi": 75,
          "name": "D#5",
          "ticks": 44520,
          "time": 35.67304125,
          "velocity": 0.7086614173228346
        },
        {
          "duration": 0.07692300000000074,
          "durationTicks": 96,
          "midi": 76,
          "name": "E5",
          "ticks": 44640,
          "time": 35.769194999999996,
          "velocity": 0.7086614173228346
        },
        {
          "duration": 0.07692300000000074,
          "durationTicks": 96,
          "midi": 77,
          "name": "F5",
          "ticks": 44760,
          "time": 35.865348749999995,
          "velocity": 0.7086614173228346
        },
        {
          "duration": 0.07692300000000074,
          "durationTicks": 96,
          "midi": 76,
          "name": "E5",
          "ticks": 44880,
          "time": 35.9615025,
          "velocity": 0.7086614173228346
        },
        {
          "duration": 0.07692300000000074,
          "durationTicks": 96,
          "midi": 75,
          "name": "D#5",
          "ticks": 45000,
          "time": 36.05765625,
          "velocity": 0.7086614173228346
        },
        {
          "duration": 0.07692300000000074,
          "durationTicks": 96,
          "midi": 76,
          "name": "E5",
          "ticks": 45120,
          "time": 36.15381,
          "velocity": 0.7086614173228346
        },
        {
          "duration": 0.07692300000000074,
          "durationTicks": 96,
          "midi": 77,
          "name": "F5",
          "ticks": 45240,
          "time": 36.24996375,
          "velocity": 0.7086614173228346
        },
        {
          "duration": 0.07692300000000074,
          "durationTicks": 96,
          "midi": 76,
          "name": "E5",
          "ticks": 45360,
          "time": 36.3461175,
          "velocity": 0.7086614173228346
        },
        {
          "duration": 0.07692300000000074,
          "durationTicks": 96,
          "midi": 75,
          "name": "D#5",
          "ticks": 45480,
          "time": 36.44227125,
          "velocity": 0.7086614173228346
        },
        {
          "duration": 0.07692300000000074,
          "durationTicks": 96,
          "midi": 76,
          "name": "E5",
          "ticks": 45600,
          "time": 36.538425,
          "velocity": 0.7086614173228346
        },
        {
          "duration": 0.07692300000000074,
          "durationTicks": 96,
          "midi": 77,
          "name": "F5",
          "ticks": 45720,
          "time": 36.634578749999996,
          "velocity": 0.7086614173228346
        },
        {
          "duration": 0.07692300000000074,
          "durationTicks": 96,
          "midi": 76,
          "name": "E5",
          "ticks": 45840,
          "time": 36.7307325,
          "velocity": 0.7086614173228346
        },
        {
          "duration": 0.07692300000000074,
          "durationTicks": 96,
          "midi": 75,
          "name": "D#5",
          "ticks": 45960,
          "time": 36.82688625,
          "velocity": 0.7086614173228346
        },
        {
          "duration": 0.09455118750000224,
          "durationTicks": 118,
          "midi": 65,
          "name": "F4",
          "ticks": 46200,
          "time": 37.01919375,
          "velocity": 0.7086614173228346
        },
        {
          "duration": 0.09455118750000224,
          "durationTicks": 118,
          "midi": 64,
          "name": "E4",
          "ticks": 46320,
          "time": 37.1153475,
          "velocity": 0.7086614173228346
        },
        {
          "duration": 0.09455118750000224,
          "durationTicks": 118,
          "midi": 63,
          "name": "D#4",
          "ticks": 46440,
          "time": 37.21150125,
          "velocity": 0.7086614173228346
        },
        {
          "duration": 0.09455118750000224,
          "durationTicks": 118,
          "midi": 64,
          "name": "E4",
          "ticks": 46560,
          "time": 37.307655,
          "velocity": 0.7165354330708661
        },
        {
          "duration": 0.09455118750000224,
          "durationTicks": 118,
          "midi": 65,
          "name": "F4",
          "ticks": 46680,
          "time": 37.403808749999996,
          "velocity": 0.7086614173228346
        },
        {
          "duration": 0.09455118750000224,
          "durationTicks": 118,
          "midi": 64,
          "name": "E4",
          "ticks": 46800,
          "time": 37.499962499999995,
          "velocity": 0.7007874015748031
        },
        {
          "duration": 0.09455118749999514,
          "durationTicks": 118,
          "midi": 63,
          "name": "D#4",
          "ticks": 46920,
          "time": 37.59611625,
          "velocity": 0.6929133858267716
        },
        {
          "duration": 0.09455118750000224,
          "durationTicks": 118,
          "midi": 64,
          "name": "E4",
          "ticks": 47040,
          "time": 37.69227,
          "velocity": 0.6850393700787402
        },
        {
          "duration": 0.09455118750000224,
          "durationTicks": 118,
          "midi": 65,
          "name": "F4",
          "ticks": 47160,
          "time": 37.78842375,
          "velocity": 0.6692913385826772
        },
        {
          "duration": 0.09455118750000224,
          "durationTicks": 118,
          "midi": 64,
          "name": "E4",
          "ticks": 47280,
          "time": 37.8845775,
          "velocity": 0.6614173228346457
        },
        {
          "duration": 0.09455118750000224,
          "durationTicks": 118,
          "midi": 63,
          "name": "D#4",
          "ticks": 47400,
          "time": 37.98073125,
          "velocity": 0.6535433070866141
        },
        {
          "duration": 0.09455118750000224,
          "durationTicks": 118,
          "midi": 64,
          "name": "E4",
          "ticks": 47520,
          "time": 38.076885,
          "velocity": 0.6456692913385826
        },
        {
          "duration": 0.09455118750000224,
          "durationTicks": 118,
          "midi": 65,
          "name": "F4",
          "ticks": 47640,
          "time": 38.173038749999996,
          "velocity": 0.6377952755905512
        },
        {
          "duration": 0.09455118750000224,
          "durationTicks": 118,
          "midi": 64,
          "name": "E4",
          "ticks": 47760,
          "time": 38.269192499999996,
          "velocity": 0.6299212598425197
        },
        {
          "duration": 0.09455118749999514,
          "durationTicks": 118,
          "midi": 63,
          "name": "D#4",
          "ticks": 47880,
          "time": 38.36534625,
          "velocity": 0.6220472440944882
        },
        {
          "duration": 0.09455118750000224,
          "durationTicks": 118,
          "midi": 64,
          "name": "E4",
          "ticks": 48000,
          "time": 38.4615,
          "velocity": 0.6141732283464567
        },
        {
          "duration": 0.09455118750000224,
          "durationTicks": 118,
          "midi": 63,
          "name": "D#4",
          "ticks": 48120,
          "time": 38.55765375,
          "velocity": 0.5984251968503937
        },
        {
          "duration": 0.09455118750000224,
          "durationTicks": 118,
          "midi": 62,
          "name": "D4",
          "ticks": 48240,
          "time": 38.6538075,
          "velocity": 0.5905511811023622
        },
        {
          "duration": 0.09455118750000224,
          "durationTicks": 118,
          "midi": 61,
          "name": "C#4",
          "ticks": 48360,
          "time": 38.74996125,
          "velocity": 0.5826771653543307
        },
        {
          "duration": 0.09455118750000224,
          "durationTicks": 118,
          "midi": 62,
          "name": "D4",
          "ticks": 48480,
          "time": 38.846115,
          "velocity": 0.5748031496062992
        },
        {
          "duration": 0.09455118750000224,
          "durationTicks": 118,
          "midi": 61,
          "name": "C#4",
          "ticks": 48600,
          "time": 38.94226875,
          "velocity": 0.5669291338582677
        },
        {
          "duration": 0.09455118750000224,
          "durationTicks": 118,
          "midi": 60,
          "name": "C4",
          "ticks": 48720,
          "time": 39.038422499999996,
          "velocity": 0.5590551181102362
        },
        {
          "duration": 0.09455118750000224,
          "durationTicks": 118,
          "midi": 59,
          "name": "B3",
          "ticks": 48840,
          "time": 39.134576249999995,
          "velocity": 0.5511811023622047
        },
        {
          "duration": 0.09615374999999915,
          "durationTicks": 120,
          "midi": 72,
          "name": "C5",
          "ticks": 52320,
          "time": 41.923035,
          "velocity": 0.6299212598425197
        },
        {
          "duration": 0.09615374999999915,
          "durationTicks": 120,
          "midi": 76,
          "name": "E5",
          "ticks": 52320,
          "time": 41.923035,
          "velocity": 0.6299212598425197
        },
        {
          "duration": 0.09615374999999915,
          "durationTicks": 120,
          "midi": 69,
          "name": "A4",
          "ticks": 52560,
          "time": 42.1153425,
          "velocity": 0.6299212598425197
        },
        {
          "duration": 0.09615374999999915,
          "durationTicks": 120,
          "midi": 72,
          "name": "C5",
          "ticks": 52560,
          "time": 42.1153425,
          "velocity": 0.6299212598425197
        },
        {
          "duration": 0.09615375000000626,
          "durationTicks": 120,
          "midi": 65,
          "name": "F4",
          "ticks": 52800,
          "time": 42.307649999999995,
          "velocity": 0.6299212598425197
        },
        {
          "duration": 0.09615375000000626,
          "durationTicks": 120,
          "midi": 69,
          "name": "A4",
          "ticks": 52800,
          "time": 42.307649999999995,
          "velocity": 0.6299212598425197
        },
        {
          "duration": 0.09615374999999915,
          "durationTicks": 120,
          "midi": 61,
          "name": "C#4",
          "ticks": 53040,
          "time": 42.4999575,
          "velocity": 0.6299212598425197
        },
        {
          "duration": 0.09615374999999915,
          "durationTicks": 120,
          "midi": 65,
          "name": "F4",
          "ticks": 53040,
          "time": 42.4999575,
          "velocity": 0.6299212598425197
        },
        {
          "duration": 0.09615374999999915,
          "durationTicks": 120,
          "midi": 65,
          "name": "F4",
          "ticks": 53280,
          "time": 42.692265,
          "velocity": 0.6299212598425197
        },
        {
          "duration": 0.09615374999999915,
          "durationTicks": 120,
          "midi": 69,
          "name": "A4",
          "ticks": 53280,
          "time": 42.692265,
          "velocity": 0.6299212598425197
        },
        {
          "duration": 0.09615374999999915,
          "durationTicks": 120,
          "midi": 69,
          "name": "A4",
          "ticks": 53520,
          "time": 42.8845725,
          "velocity": 0.6299212598425197
        },
        {
          "duration": 0.09615374999999915,
          "durationTicks": 120,
          "midi": 72,
          "name": "C5",
          "ticks": 53520,
          "time": 42.8845725,
          "velocity": 0.6299212598425197
        },
        {
          "duration": 0.173076750000007,
          "durationTicks": 216,
          "midi": 72,
          "name": "C5",
          "ticks": 53760,
          "time": 43.076879999999996,
          "velocity": 0.6299212598425197
        },
        {
          "duration": 0.11538450000000466,
          "durationTicks": 144,
          "midi": 76,
          "name": "E5",
          "ticks": 53760,
          "time": 43.076879999999996,
          "velocity": 0.6299212598425197
        },
        {
          "duration": 0.09615374999999915,
          "durationTicks": 120,
          "midi": 81,
          "name": "A5",
          "ticks": 54240,
          "time": 43.461495,
          "velocity": 0.6299212598425197
        },
        {
          "duration": 0.09615374999999915,
          "durationTicks": 120,
          "midi": 84,
          "name": "C6",
          "ticks": 54240,
          "time": 43.461495,
          "velocity": 0.6299212598425197
        },
        {
          "duration": 0.09615374999999915,
          "durationTicks": 120,
          "midi": 88,
          "name": "E6",
          "ticks": 54240,
          "time": 43.461495,
          "velocity": 0.6299212598425197
        },
        {
          "duration": 0.09615374999999915,
          "durationTicks": 120,
          "midi": 76,
          "name": "E5",
          "ticks": 54480,
          "time": 43.6538025,
          "velocity": 0.6299212598425197
        },
        {
          "duration": 0.09615374999999915,
          "durationTicks": 120,
          "midi": 81,
          "name": "A5",
          "ticks": 54480,
          "time": 43.6538025,
          "velocity": 0.6299212598425197
        },
        {
          "duration": 0.09615374999999915,
          "durationTicks": 120,
          "midi": 84,
          "name": "C6",
          "ticks": 54480,
          "time": 43.6538025,
          "velocity": 0.6299212598425197
        },
        {
          "duration": 0.09615374999999915,
          "durationTicks": 120,
          "midi": 72,
          "name": "C5",
          "ticks": 54720,
          "time": 43.846109999999996,
          "velocity": 0.6299212598425197
        },
        {
          "duration": 0.09615374999999915,
          "durationTicks": 120,
          "midi": 77,
          "name": "F5",
          "ticks": 54720,
          "time": 43.846109999999996,
          "velocity": 0.6299212598425197
        },
        {
          "duration": 0.09615374999999915,
          "durationTicks": 120,
          "midi": 81,
          "name": "A5",
          "ticks": 54720,
          "time": 43.846109999999996,
          "velocity": 0.6299212598425197
        },
        {
          "duration": 0.09615374999999915,
          "durationTicks": 120,
          "midi": 69,
          "name": "A4",
          "ticks": 54960,
          "time": 44.0384175,
          "velocity": 0.6299212598425197
        },
        {
          "duration": 0.09615374999999915,
          "durationTicks": 120,
          "midi": 72,
          "name": "C5",
          "ticks": 54960,
          "time": 44.0384175,
          "velocity": 0.6299212598425197
        },
        {
          "duration": 0.09615374999999915,
          "durationTicks": 120,
          "midi": 77,
          "name": "F5",
          "ticks": 54960,
          "time": 44.0384175,
          "velocity": 0.6299212598425197
        },
        {
          "duration": 0.09615374999999915,
          "durationTicks": 120,
          "midi": 72,
          "name": "C5",
          "ticks": 55200,
          "time": 44.230725,
          "velocity": 0.6299212598425197
        },
        {
          "duration": 0.09615374999999915,
          "durationTicks": 120,
          "midi": 77,
          "name": "F5",
          "ticks": 55200,
          "time": 44.230725,
          "velocity": 0.6299212598425197
        },
        {
          "duration": 0.09615374999999915,
          "durationTicks": 120,
          "midi": 81,
          "name": "A5",
          "ticks": 55200,
          "time": 44.230725,
          "velocity": 0.6299212598425197
        },
        {
          "duration": 0.09615374999999915,
          "durationTicks": 120,
          "midi": 76,
          "name": "E5",
          "ticks": 55440,
          "time": 44.4230325,
          "velocity": 0.6299212598425197
        },
        {
          "duration": 0.09615374999999915,
          "durationTicks": 120,
          "midi": 81,
          "name": "A5",
          "ticks": 55440,
          "time": 44.4230325,
          "velocity": 0.6299212598425197
        },
        {
          "duration": 0.09615374999999915,
          "durationTicks": 120,
          "midi": 84,
          "name": "C6",
          "ticks": 55440,
          "time": 44.4230325,
          "velocity": 0.6299212598425197
        },
        {
          "duration": 0.1730767499999999,
          "durationTicks": 216,
          "midi": 81,
          "name": "A5",
          "ticks": 55680,
          "time": 44.615339999999996,
          "velocity": 0.6299212598425197
        },
        {
          "duration": 0.1730767499999999,
          "durationTicks": 216,
          "midi": 84,
          "name": "C6",
          "ticks": 55680,
          "time": 44.615339999999996,
          "velocity": 0.6299212598425197
        },
        {
          "duration": 0.11538449999999756,
          "durationTicks": 144,
          "midi": 88,
          "name": "E6",
          "ticks": 55680,
          "time": 44.615339999999996,
          "velocity": 0.6299212598425197
        },
        {
          "duration": 0.07692300000000074,
          "durationTicks": 96,
          "midi": 64,
          "name": "E4",
          "ticks": 56160,
          "time": 44.999955,
          "velocity": 0.47244094488188976
        },
        {
          "duration": 0.07692300000000074,
          "durationTicks": 96,
          "midi": 65,
          "name": "F4",
          "ticks": 56280,
          "time": 45.09610875,
          "velocity": 0.47244094488188976
        },
        {
          "duration": 0.07692300000000074,
          "durationTicks": 96,
          "midi": 66,
          "name": "F#4",
          "ticks": 56400,
          "time": 45.1922625,
          "velocity": 0.47244094488188976
        },
        {
          "duration": 0.07692300000000074,
          "durationTicks": 96,
          "midi": 67,
          "name": "G4",
          "ticks": 56520,
          "time": 45.28841625,
          "velocity": 0.47244094488188976
        },
        {
          "duration": 0.03685893749999991,
          "durationTicks": 46,
          "midi": 68,
          "name": "G#4",
          "ticks": 56640,
          "time": 45.38457,
          "velocity": 0.47244094488188976
        },
        {
          "duration": 0.09455118750000224,
          "durationTicks": 118,
          "midi": 69,
          "name": "A4",
          "ticks": 56760,
          "time": 45.480723749999996,
          "velocity": 0.47244094488188976
        },
        {
          "duration": 0.09455118750000224,
          "durationTicks": 118,
          "midi": 70,
          "name": "A#4",
          "ticks": 56880,
          "time": 45.576877499999995,
          "velocity": 0.47244094488188976
        },
        {
          "duration": 0.09455118749999514,
          "durationTicks": 118,
          "midi": 71,
          "name": "B4",
          "ticks": 57000,
          "time": 45.67303125,
          "velocity": 0.47244094488188976
        },
        {
          "duration": 0.09455118750000224,
          "durationTicks": 118,
          "midi": 72,
          "name": "C5",
          "ticks": 57120,
          "time": 45.769185,
          "velocity": 0.47244094488188976
        },
        {
          "duration": 0.09455118750000224,
          "durationTicks": 118,
          "midi": 73,
          "name": "C#5",
          "ticks": 57240,
          "time": 45.86533875,
          "velocity": 0.47244094488188976
        },
        {
          "duration": 0.09455118750000224,
          "durationTicks": 118,
          "midi": 74,
          "name": "D5",
          "ticks": 57360,
          "time": 45.9614925,
          "velocity": 0.47244094488188976
        },
        {
          "duration": 0.09455118750000224,
          "durationTicks": 118,
          "midi": 75,
          "name": "D#5",
          "ticks": 57480,
          "time": 46.05764625,
          "velocity": 0.47244094488188976
        },
        {
          "duration": 0.09455118750000224,
          "durationTicks": 118,
          "midi": 76,
          "name": "E5",
          "ticks": 57600,
          "time": 46.1538,
          "velocity": 0.47244094488188976
        },
        {
          "duration": 0.09455118750000224,
          "durationTicks": 118,
          "midi": 77,
          "name": "F5",
          "ticks": 57720,
          "time": 46.249953749999996,
          "velocity": 0.47244094488188976
        },
        {
          "duration": 0.09455118750000224,
          "durationTicks": 118,
          "midi": 78,
          "name": "F#5",
          "ticks": 57840,
          "time": 46.346107499999995,
          "velocity": 0.47244094488188976
        },
        {
          "duration": 0.09455118749999514,
          "durationTicks": 118,
          "midi": 79,
          "name": "G5",
          "ticks": 57960,
          "time": 46.44226125,
          "velocity": 0.47244094488188976
        },
        {
          "duration": 0.09455118750000224,
          "durationTicks": 118,
          "midi": 80,
          "name": "G#5",
          "ticks": 58080,
          "time": 46.538415,
          "velocity": 0.47244094488188976
        },
        {
          "duration": 0.09455118750000224,
          "durationTicks": 118,
          "midi": 81,
          "name": "A5",
          "ticks": 58200,
          "time": 46.63456875,
          "velocity": 0.47244094488188976
        },
        {
          "duration": 0.09455118750000224,
          "durationTicks": 118,
          "midi": 82,
          "name": "A#5",
          "ticks": 58320,
          "time": 46.7307225,
          "velocity": 0.47244094488188976
        },
        {
          "duration": 0.09455118750000224,
          "durationTicks": 118,
          "midi": 83,
          "name": "B5",
          "ticks": 58440,
          "time": 46.82687625,
          "velocity": 0.47244094488188976
        },
        {
          "duration": 0.09455118750000224,
          "durationTicks": 118,
          "midi": 84,
          "name": "C6",
          "ticks": 58560,
          "time": 46.92303,
          "velocity": 0.47244094488188976
        },
        {
          "duration": 0.09455118750000224,
          "durationTicks": 118,
          "midi": 85,
          "name": "C#6",
          "ticks": 58680,
          "time": 47.019183749999996,
          "velocity": 0.47244094488188976
        },
        {
          "duration": 0.09455118750000224,
          "durationTicks": 118,
          "midi": 86,
          "name": "D6",
          "ticks": 58800,
          "time": 47.115337499999995,
          "velocity": 0.47244094488188976
        },
        {
          "duration": 0.09455118750000224,
          "durationTicks": 118,
          "midi": 87,
          "name": "D#6",
          "ticks": 58920,
          "time": 47.211491249999995,
          "velocity": 0.47244094488188976
        },
        {
          "duration": 0.09455118750000224,
          "durationTicks": 118,
          "midi": 88,
          "name": "E6",
          "ticks": 59040,
          "time": 47.307645,
          "velocity": 0.47244094488188976
        },
        {
          "duration": 0.07692300000000074,
          "durationTicks": 96,
          "midi": 77,
          "name": "F5",
          "ticks": 59160,
          "time": 47.40379875,
          "velocity": 0.47244094488188976
        },
        {
          "duration": 0.07692300000000074,
          "durationTicks": 96,
          "midi": 76,
          "name": "E5",
          "ticks": 59280,
          "time": 47.4999525,
          "velocity": 0.47244094488188976
        },
        {
          "duration": 0.07692300000000074,
          "durationTicks": 96,
          "midi": 75,
          "name": "D#5",
          "ticks": 59400,
          "time": 47.59610625,
          "velocity": 0.47244094488188976
        },
        {
          "duration": 0.07692300000000074,
          "durationTicks": 96,
          "midi": 76,
          "name": "E5",
          "ticks": 59520,
          "time": 47.69226,
          "velocity": 0.3937007874015748
        },
        {
          "duration": 0.1730767499999999,
          "durationTicks": 216,
          "midi": 81,
          "name": "A5",
          "ticks": 59520,
          "time": 47.69226,
          "velocity": 0.3937007874015748
        },
        {
          "duration": 0.07692300000000074,
          "durationTicks": 96,
          "midi": 75,
          "name": "D#5",
          "ticks": 59640,
          "time": 47.78841375,
          "velocity": 0.3937007874015748
        },
        {
          "duration": 0.07692300000000074,
          "durationTicks": 96,
          "midi": 74,
          "name": "D5",
          "ticks": 59760,
          "time": 47.884567499999996,
          "velocity": 0.3937007874015748
        },
        {
          "duration": 0.07692300000000785,
          "durationTicks": 96,
          "midi": 73,
          "name": "C#5",
          "ticks": 59880,
          "time": 47.980721249999995,
          "velocity": 0.3937007874015748
        },
        {
          "duration": 0.07692300000000074,
          "durationTicks": 96,
          "midi": 72,
          "name": "C5",
          "ticks": 60000,
          "time": 48.076875,
          "velocity": 0.3937007874015748
        },
        {
          "duration": 0.07692300000000074,
          "durationTicks": 96,
          "midi": 77,
          "name": "F5",
          "ticks": 60120,
          "time": 48.17302875,
          "velocity": 0.3937007874015748
        },
        {
          "duration": 0.07692300000000074,
          "durationTicks": 96,
          "midi": 76,
          "name": "E5",
          "ticks": 60240,
          "time": 48.2691825,
          "velocity": 0.3937007874015748
        },
        {
          "duration": 0.07692300000000074,
          "durationTicks": 96,
          "midi": 75,
          "name": "D#5",
          "ticks": 60360,
          "time": 48.36533625,
          "velocity": 0.3937007874015748
        },
        {
          "duration": 0.07692300000000074,
          "durationTicks": 96,
          "midi": 76,
          "name": "E5",
          "ticks": 60480,
          "time": 48.46149,
          "velocity": 0.3937007874015748
        },
        {
          "duration": 0.07692300000000074,
          "durationTicks": 96,
          "midi": 75,
          "name": "D#5",
          "ticks": 60600,
          "time": 48.55764375,
          "velocity": 0.3937007874015748
        },
        {
          "duration": 0.07692300000000074,
          "durationTicks": 96,
          "midi": 74,
          "name": "D5",
          "ticks": 60720,
          "time": 48.653797499999996,
          "velocity": 0.3937007874015748
        },
        {
          "duration": 0.07692300000000074,
          "durationTicks": 96,
          "midi": 73,
          "name": "C#5",
          "ticks": 60840,
          "time": 48.749951249999995,
          "velocity": 0.3937007874015748
        },
        {
          "duration": 0.07692300000000074,
          "durationTicks": 96,
          "midi": 72,
          "name": "C5",
          "ticks": 60960,
          "time": 48.846105,
          "velocity": 0.3937007874015748
        },
        {
          "duration": 0.1730767499999999,
          "durationTicks": 216,
          "midi": 81,
          "name": "A5",
          "ticks": 60960,
          "time": 48.846105,
          "velocity": 0.3937007874015748
        },
        {
          "duration": 0.07692300000000074,
          "durationTicks": 96,
          "midi": 73,
          "name": "C#5",
          "ticks": 61080,
          "time": 48.94225875,
          "velocity": 0.3937007874015748
        },
        {
          "duration": 0.07692300000000074,
          "durationTicks": 96,
          "midi": 74,
          "name": "D5",
          "ticks": 61200,
          "time": 49.0384125,
          "velocity": 0.3937007874015748
        },
        {
          "duration": 0.07692300000000074,
          "durationTicks": 96,
          "midi": 75,
          "name": "D#5",
          "ticks": 61320,
          "time": 49.13456625,
          "velocity": 0.3937007874015748
        },
        {
          "duration": 0.07692299999999364,
          "durationTicks": 96,
          "midi": 76,
          "name": "E5",
          "ticks": 61440,
          "time": 49.23072,
          "velocity": 0.3937007874015748
        },
        {
          "duration": 0.17307674999999278,
          "durationTicks": 216,
          "midi": 81,
          "name": "A5",
          "ticks": 61440,
          "time": 49.23072,
          "velocity": 0.3937007874015748
        },
        {
          "duration": 0.07692299999999364,
          "durationTicks": 96,
          "midi": 75,
          "name": "D#5",
          "ticks": 61560,
          "time": 49.32687375,
          "velocity": 0.3937007874015748
        },
        {
          "duration": 0.07692300000000074,
          "durationTicks": 96,
          "midi": 74,
          "name": "D5",
          "ticks": 61680,
          "time": 49.423027499999996,
          "velocity": 0.3937007874015748
        },
        {
          "duration": 0.07692300000000074,
          "durationTicks": 96,
          "midi": 73,
          "name": "C#5",
          "ticks": 61800,
          "time": 49.519181249999995,
          "velocity": 0.3937007874015748
        },
        {
          "duration": 0.07692300000000074,
          "durationTicks": 96,
          "midi": 72,
          "name": "C5",
          "ticks": 61920,
          "time": 49.615334999999995,
          "velocity": 0.3937007874015748
        },
        {
          "duration": 0.07692299999999364,
          "durationTicks": 96,
          "midi": 77,
          "name": "F5",
          "ticks": 62040,
          "time": 49.71148875,
          "velocity": 0.3937007874015748
        },
        {
          "duration": 0.07692299999999364,
          "durationTicks": 96,
          "midi": 76,
          "name": "E5",
          "ticks": 62160,
          "time": 49.8076425,
          "velocity": 0.3937007874015748
        },
        {
          "duration": 0.07692299999999364,
          "durationTicks": 96,
          "midi": 75,
          "name": "D#5",
          "ticks": 62280,
          "time": 49.90379625,
          "velocity": 0.3937007874015748
        },
        {
          "duration": 0.07692299999999364,
          "durationTicks": 96,
          "midi": 76,
          "name": "E5",
          "ticks": 62400,
          "time": 49.99995,
          "velocity": 0.3937007874015748
        },
        {
          "duration": 0.07692299999999364,
          "durationTicks": 96,
          "midi": 75,
          "name": "D#5",
          "ticks": 62520,
          "time": 50.09610375,
          "velocity": 0.3937007874015748
        },
        {
          "duration": 0.07692299999999364,
          "durationTicks": 96,
          "midi": 74,
          "name": "D5",
          "ticks": 62640,
          "time": 50.1922575,
          "velocity": 0.3937007874015748
        },
        {
          "duration": 0.07692300000000074,
          "durationTicks": 96,
          "midi": 73,
          "name": "C#5",
          "ticks": 62760,
          "time": 50.288411249999996,
          "velocity": 0.3937007874015748
        },
        {
          "duration": 0.07692300000000074,
          "durationTicks": 96,
          "midi": 72,
          "name": "C5",
          "ticks": 62880,
          "time": 50.384564999999995,
          "velocity": 0.3937007874015748
        },
        {
          "duration": 0.1730767499999999,
          "durationTicks": 216,
          "midi": 81,
          "name": "A5",
          "ticks": 62880,
          "time": 50.384564999999995,
          "velocity": 0.3937007874015748
        },
        {
          "duration": 0.07692299999999364,
          "durationTicks": 96,
          "midi": 73,
          "name": "C#5",
          "ticks": 63000,
          "time": 50.48071875,
          "velocity": 0.3937007874015748
        },
        {
          "duration": 0.07692299999999364,
          "durationTicks": 96,
          "midi": 74,
          "name": "D5",
          "ticks": 63120,
          "time": 50.5768725,
          "velocity": 0.3937007874015748
        },
        {
          "duration": 0.07692299999999364,
          "durationTicks": 96,
          "midi": 75,
          "name": "D#5",
          "ticks": 63240,
          "time": 50.67302625,
          "velocity": 0.3937007874015748
        },
        {
          "duration": 0.07692299999999364,
          "durationTicks": 96,
          "midi": 76,
          "name": "E5",
          "ticks": 63360,
          "time": 50.76918,
          "velocity": 0.3937007874015748
        },
        {
          "duration": 0.17307674999999278,
          "durationTicks": 216,
          "midi": 81,
          "name": "A5",
          "ticks": 63360,
          "time": 50.76918,
          "velocity": 0.3937007874015748
        },
        {
          "duration": 0.07692299999999364,
          "durationTicks": 96,
          "midi": 75,
          "name": "D#5",
          "ticks": 63480,
          "time": 50.86533375,
          "velocity": 0.3937007874015748
        },
        {
          "duration": 0.07692299999999364,
          "durationTicks": 96,
          "midi": 74,
          "name": "D5",
          "ticks": 63600,
          "time": 50.9614875,
          "velocity": 0.3937007874015748
        },
        {
          "duration": 0.07692300000000074,
          "durationTicks": 96,
          "midi": 73,
          "name": "C#5",
          "ticks": 63720,
          "time": 51.057641249999996,
          "velocity": 0.3937007874015748
        },
        {
          "duration": 0.07692300000000074,
          "durationTicks": 96,
          "midi": 74,
          "name": "D5",
          "ticks": 63840,
          "time": 51.153794999999995,
          "velocity": 0.3937007874015748
        },
        {
          "duration": 0.07692299999999364,
          "durationTicks": 96,
          "midi": 73,
          "name": "C#5",
          "ticks": 63960,
          "time": 51.24994875,
          "velocity": 0.4015748031496063
        },
        {
          "duration": 0.07692299999999364,
          "durationTicks": 96,
          "midi": 72,
          "name": "C5",
          "ticks": 64080,
          "time": 51.3461025,
          "velocity": 0.4094488188976378
        },
        {
          "duration": 0.07692299999999364,
          "durationTicks": 96,
          "midi": 71,
          "name": "B4",
          "ticks": 64200,
          "time": 51.44225625,
          "velocity": 0.4251968503937008
        },
        {
          "duration": 0.07692299999999364,
          "durationTicks": 96,
          "midi": 72,
          "name": "C5",
          "ticks": 64320,
          "time": 51.53841,
          "velocity": 0.4330708661417323
        },
        {
          "duration": 0.07692299999999364,
          "durationTicks": 96,
          "midi": 73,
          "name": "C#5",
          "ticks": 64440,
          "time": 51.63456375,
          "velocity": 0.4409448818897638
        },
        {
          "duration": 0.07692299999999364,
          "durationTicks": 96,
          "midi": 74,
          "name": "D5",
          "ticks": 64560,
          "time": 51.7307175,
          "velocity": 0.44881889763779526
        },
        {
          "duration": 0.07692299999999364,
          "durationTicks": 96,
          "midi": 75,
          "name": "D#5",
          "ticks": 64680,
          "time": 51.826871249999996,
          "velocity": 0.4645669291338583
        },
        {
          "duration": 0.07692300000000074,
          "durationTicks": 96,
          "midi": 76,
          "name": "E5",
          "ticks": 64800,
          "time": 51.923024999999996,
          "velocity": 0.47244094488188976
        },
        {
          "duration": 0.07692300000000074,
          "durationTicks": 96,
          "midi": 77,
          "name": "F5",
          "ticks": 64920,
          "time": 52.019178749999995,
          "velocity": 0.48031496062992124
        },
        {
          "duration": 0.07692299999999364,
          "durationTicks": 96,
          "midi": 76,
          "name": "E5",
          "ticks": 65040,
          "time": 52.1153325,
          "velocity": 0.49606299212598426
        },
        {
          "duration": 0.07692299999999364,
          "durationTicks": 96,
          "midi": 75,
          "name": "D#5",
          "ticks": 65160,
          "time": 52.21148625,
          "velocity": 0.5039370078740157
        },
        {
          "duration": 0.07692299999999364,
          "durationTicks": 96,
          "midi": 76,
          "name": "E5",
          "ticks": 65280,
          "time": 52.30764,
          "velocity": 0.5118110236220472
        },
        {
          "duration": 0.07692299999999364,
          "durationTicks": 96,
          "midi": 75,
          "name": "D#5",
          "ticks": 65400,
          "time": 52.40379375,
          "velocity": 0.5275590551181102
        },
        {
          "duration": 0.07692299999999364,
          "durationTicks": 96,
          "midi": 74,
          "name": "D5",
          "ticks": 65520,
          "time": 52.4999475,
          "velocity": 0.5354330708661418
        },
        {
          "duration": 0.07692299999999364,
          "durationTicks": 96,
          "midi": 73,
          "name": "C#5",
          "ticks": 65640,
          "time": 52.59610125,
          "velocity": 0.5433070866141733
        },
        {
          "duration": 0.07692300000000074,
          "durationTicks": 96,
          "midi": 74,
          "name": "D5",
          "ticks": 65760,
          "time": 52.692254999999996,
          "velocity": 0.5590551181102362
        },
        {
          "duration": 0.07692300000000074,
          "durationTicks": 96,
          "midi": 73,
          "name": "C#5",
          "ticks": 65880,
          "time": 52.788408749999995,
          "velocity": 0.5433070866141733
        },
        {
          "duration": 0.07692299999999364,
          "durationTicks": 96,
          "midi": 72,
          "name": "C5",
          "ticks": 66000,
          "time": 52.8845625,
          "velocity": 0.5354330708661418
        },
        {
          "duration": 0.07692299999999364,
          "durationTicks": 96,
          "midi": 71,
          "name": "B4",
          "ticks": 66120,
          "time": 52.98071625,
          "velocity": 0.5196850393700787
        },
        {
          "duration": 0.07692299999999364,
          "durationTicks": 96,
          "midi": 72,
          "name": "C5",
          "ticks": 66240,
          "time": 53.07687,
          "velocity": 0.5039370078740157
        },
        {
          "duration": 0.07692299999999364,
          "durationTicks": 96,
          "midi": 73,
          "name": "C#5",
          "ticks": 66360,
          "time": 53.17302375,
          "velocity": 0.4881889763779528
        },
        {
          "duration": 0.07692299999999364,
          "durationTicks": 96,
          "midi": 74,
          "name": "D5",
          "ticks": 66480,
          "time": 53.2691775,
          "velocity": 0.47244094488188976
        },
        {
          "duration": 0.07692299999999364,
          "durationTicks": 96,
          "midi": 75,
          "name": "D#5",
          "ticks": 66600,
          "time": 53.36533125,
          "velocity": 0.4566929133858268
        },
        {
          "duration": 0.07692300000000074,
          "durationTicks": 96,
          "midi": 76,
          "name": "E5",
          "ticks": 66720,
          "time": 53.461484999999996,
          "velocity": 0.4409448818897638
        },
        {
          "duration": 0.07692300000000074,
          "durationTicks": 96,
          "midi": 78,
          "name": "F#5",
          "ticks": 66840,
          "time": 53.557638749999995,
          "velocity": 0.4251968503937008
        },
        {
          "duration": 0.07692300000000074,
          "durationTicks": 96,
          "midi": 79,
          "name": "G5",
          "ticks": 66960,
          "time": 53.653792499999994,
          "velocity": 0.41732283464566927
        },
        {
          "duration": 0.07692299999999364,
          "durationTicks": 96,
          "midi": 80,
          "name": "G#5",
          "ticks": 67080,
          "time": 53.74994625,
          "velocity": 0.4015748031496063
        },
        {
          "duration": 0.07692299999999364,
          "durationTicks": 96,
          "midi": 81,
          "name": "A5",
          "ticks": 67200,
          "time": 53.8461,
          "velocity": 0.3937007874015748
        },
        {
          "duration": 0.07692299999999364,
          "durationTicks": 96,
          "midi": 80,
          "name": "G#5",
          "ticks": 67320,
          "time": 53.94225375,
          "velocity": 0.3937007874015748
        },
        {
          "duration": 0.07692299999999364,
          "durationTicks": 96,
          "midi": 79,
          "name": "G5",
          "ticks": 67440,
          "time": 54.0384075,
          "velocity": 0.3937007874015748
        },
        {
          "duration": 0.07692299999999364,
          "durationTicks": 96,
          "midi": 78,
          "name": "F#5",
          "ticks": 67560,
          "time": 54.13456125,
          "velocity": 0.3937007874015748
        },
        {
          "duration": 0.07692299999999364,
          "durationTicks": 96,
          "midi": 77,
          "name": "F5",
          "ticks": 67680,
          "time": 54.230715,
          "velocity": 0.3937007874015748
        },
        {
          "duration": 0.07692300000000074,
          "durationTicks": 96,
          "midi": 82,
          "name": "A#5",
          "ticks": 67800,
          "time": 54.326868749999996,
          "velocity": 0.3937007874015748
        },
        {
          "duration": 0.07692300000000074,
          "durationTicks": 96,
          "midi": 81,
          "name": "A5",
          "ticks": 67920,
          "time": 54.423022499999995,
          "velocity": 0.3937007874015748
        },
        {
          "duration": 0.07692299999999364,
          "durationTicks": 96,
          "midi": 80,
          "name": "G#5",
          "ticks": 68040,
          "time": 54.51917625,
          "velocity": 0.3937007874015748
        },
        {
          "duration": 0.07692299999999364,
          "durationTicks": 96,
          "midi": 81,
          "name": "A5",
          "ticks": 68160,
          "time": 54.61533,
          "velocity": 0.3937007874015748
        },
        {
          "duration": 0.07692299999999364,
          "durationTicks": 96,
          "midi": 80,
          "name": "G#5",
          "ticks": 68280,
          "time": 54.71148375,
          "velocity": 0.3937007874015748
        },
        {
          "duration": 0.07692299999999364,
          "durationTicks": 96,
          "midi": 79,
          "name": "G5",
          "ticks": 68400,
          "time": 54.8076375,
          "velocity": 0.3937007874015748
        },
        {
          "duration": 0.07692299999999364,
          "durationTicks": 96,
          "midi": 78,
          "name": "F#5",
          "ticks": 68520,
          "time": 54.90379125,
          "velocity": 0.3937007874015748
        },
        {
          "duration": 0.07692299999999364,
          "durationTicks": 96,
          "midi": 77,
          "name": "F5",
          "ticks": 68640,
          "time": 54.999945,
          "velocity": 0.3937007874015748
        },
        {
          "duration": 0.1730767499999999,
          "durationTicks": 216,
          "midi": 86,
          "name": "D6",
          "ticks": 68640,
          "time": 54.999945,
          "velocity": 0.3937007874015748
        },
        {
          "duration": 0.07692300000000074,
          "durationTicks": 96,
          "midi": 78,
          "name": "F#5",
          "ticks": 68760,
          "time": 55.096098749999996,
          "velocity": 0.3937007874015748
        },
        {
          "duration": 0.07692300000000074,
          "durationTicks": 96,
          "midi": 79,
          "name": "G5",
          "ticks": 68880,
          "time": 55.192252499999995,
          "velocity": 0.3937007874015748
        },
        {
          "duration": 0.07692299999999364,
          "durationTicks": 96,
          "midi": 80,
          "name": "G#5",
          "ticks": 69000,
          "time": 55.28840625,
          "velocity": 0.3937007874015748
        },
        {
          "duration": 0.07692299999999364,
          "durationTicks": 96,
          "midi": 81,
          "name": "A5",
          "ticks": 69120,
          "time": 55.38456,
          "velocity": 0.3937007874015748
        },
        {
          "duration": 0.17307674999999278,
          "durationTicks": 216,
          "midi": 86,
          "name": "D6",
          "ticks": 69120,
          "time": 55.38456,
          "velocity": 0.3937007874015748
        },
        {
          "duration": 0.07692299999999364,
          "durationTicks": 96,
          "midi": 80,
          "name": "G#5",
          "ticks": 69240,
          "time": 55.48071375,
          "velocity": 0.3937007874015748
        },
        {
          "duration": 0.07692299999999364,
          "durationTicks": 96,
          "midi": 79,
          "name": "G5",
          "ticks": 69360,
          "time": 55.5768675,
          "velocity": 0.3937007874015748
        },
        {
          "duration": 0.07692299999999364,
          "durationTicks": 96,
          "midi": 78,
          "name": "F#5",
          "ticks": 69480,
          "time": 55.67302125,
          "velocity": 0.3937007874015748
        },
        {
          "duration": 0.07692299999999364,
          "durationTicks": 96,
          "midi": 77,
          "name": "F5",
          "ticks": 69600,
          "time": 55.769175,
          "velocity": 0.3937007874015748
        },
        {
          "duration": 0.07692300000000074,
          "durationTicks": 96,
          "midi": 82,
          "name": "A#5",
          "ticks": 69720,
          "time": 55.865328749999996,
          "velocity": 0.3937007874015748
        },
        {
          "duration": 0.07692300000000074,
          "durationTicks": 96,
          "midi": 81,
          "name": "A5",
          "ticks": 69840,
          "time": 55.961482499999995,
          "velocity": 0.3937007874015748
        },
        {
          "duration": 0.07692300000000074,
          "durationTicks": 96,
          "midi": 80,
          "name": "G#5",
          "ticks": 69960,
          "time": 56.057636249999995,
          "velocity": 0.3937007874015748
        },
        {
          "duration": 0.07692299999999364,
          "durationTicks": 96,
          "midi": 81,
          "name": "A5",
          "ticks": 70080,
          "time": 56.15379,
          "velocity": 0.3937007874015748
        },
        {
          "duration": 0.07692299999999364,
          "durationTicks": 96,
          "midi": 80,
          "name": "G#5",
          "ticks": 70200,
          "time": 56.24994375,
          "velocity": 0.3937007874015748
        },
        {
          "duration": 0.07692299999999364,
          "durationTicks": 96,
          "midi": 79,
          "name": "G5",
          "ticks": 70320,
          "time": 56.3460975,
          "velocity": 0.3937007874015748
        },
        {
          "duration": 0.07692299999999364,
          "durationTicks": 96,
          "midi": 78,
          "name": "F#5",
          "ticks": 70440,
          "time": 56.44225125,
          "velocity": 0.3937007874015748
        },
        {
          "duration": 0.07692299999999364,
          "durationTicks": 96,
          "midi": 77,
          "name": "F5",
          "ticks": 70560,
          "time": 56.538405,
          "velocity": 0.3937007874015748
        },
        {
          "duration": 0.17307674999999278,
          "durationTicks": 216,
          "midi": 86,
          "name": "D6",
          "ticks": 70560,
          "time": 56.538405,
          "velocity": 0.3937007874015748
        },
        {
          "duration": 0.07692299999999364,
          "durationTicks": 96,
          "midi": 78,
          "name": "F#5",
          "ticks": 70680,
          "time": 56.63455875,
          "velocity": 0.3937007874015748
        },
        {
          "duration": 0.07692300000000074,
          "durationTicks": 96,
          "midi": 79,
          "name": "G5",
          "ticks": 70800,
          "time": 56.730712499999996,
          "velocity": 0.3937007874015748
        },
        {
          "duration": 0.07692300000000074,
          "durationTicks": 96,
          "midi": 80,
          "name": "G#5",
          "ticks": 70920,
          "time": 56.826866249999995,
          "velocity": 0.3937007874015748
        },
        {
          "duration": 0.07692299999999364,
          "durationTicks": 96,
          "midi": 81,
          "name": "A5",
          "ticks": 71040,
          "time": 56.92302,
          "velocity": 0.3937007874015748
        },
        {
          "duration": 0.17307674999999278,
          "durationTicks": 216,
          "midi": 86,
          "name": "D6",
          "ticks": 71040,
          "time": 56.92302,
          "velocity": 0.3937007874015748
        },
        {
          "duration": 0.07692299999999364,
          "durationTicks": 96,
          "midi": 80,
          "name": "G#5",
          "ticks": 71160,
          "time": 57.01917375,
          "velocity": 0.3937007874015748
        },
        {
          "duration": 0.07692299999999364,
          "durationTicks": 96,
          "midi": 79,
          "name": "G5",
          "ticks": 71280,
          "time": 57.1153275,
          "velocity": 0.3937007874015748
        },
        {
          "duration": 0.07692299999999364,
          "durationTicks": 96,
          "midi": 78,
          "name": "F#5",
          "ticks": 71400,
          "time": 57.21148125,
          "velocity": 0.3937007874015748
        },
        {
          "duration": 0.07692299999999364,
          "durationTicks": 96,
          "midi": 79,
          "name": "G5",
          "ticks": 71520,
          "time": 57.307635,
          "velocity": 0.3937007874015748
        },
        {
          "duration": 0.07692299999999364,
          "durationTicks": 96,
          "midi": 78,
          "name": "F#5",
          "ticks": 71640,
          "time": 57.40378875,
          "velocity": 0.3858267716535433
        },
        {
          "duration": 0.07692300000000074,
          "durationTicks": 96,
          "midi": 77,
          "name": "F5",
          "ticks": 71760,
          "time": 57.499942499999996,
          "velocity": 0.3937007874015748
        },
        {
          "duration": 0.07692300000000074,
          "durationTicks": 96,
          "midi": 76,
          "name": "E5",
          "ticks": 71880,
          "time": 57.596096249999995,
          "velocity": 0.4015748031496063
        },
        {
          "duration": 0.07692300000000074,
          "durationTicks": 96,
          "midi": 77,
          "name": "F5",
          "ticks": 72000,
          "time": 57.692249999999994,
          "velocity": 0.4094488188976378
        },
        {
          "duration": 0.07692299999999364,
          "durationTicks": 96,
          "midi": 78,
          "name": "F#5",
          "ticks": 72120,
          "time": 57.78840375,
          "velocity": 0.41732283464566927
        },
        {
          "duration": 0.07692299999999364,
          "durationTicks": 96,
          "midi": 79,
          "name": "G5",
          "ticks": 72240,
          "time": 57.8845575,
          "velocity": 0.4251968503937008
        },
        {
          "duration": 0.07692299999999364,
          "durationTicks": 96,
          "midi": 80,
          "name": "G#5",
          "ticks": 72360,
          "time": 57.98071125,
          "velocity": 0.4330708661417323
        },
        {
          "duration": 0.07692299999999364,
          "durationTicks": 96,
          "midi": 81,
          "name": "A5",
          "ticks": 72480,
          "time": 58.076865,
          "velocity": 0.4409448818897638
        },
        {
          "duration": 0.07692299999999364,
          "durationTicks": 96,
          "midi": 82,
          "name": "A#5",
          "ticks": 72600,
          "time": 58.17301875,
          "velocity": 0.4566929133858268
        },
        {
          "duration": 0.07692299999999364,
          "durationTicks": 96,
          "midi": 81,
          "name": "A5",
          "ticks": 72720,
          "time": 58.269172499999996,
          "velocity": 0.4645669291338583
        },
        {
          "duration": 0.07692300000000074,
          "durationTicks": 96,
          "midi": 80,
          "name": "G#5",
          "ticks": 72840,
          "time": 58.365326249999995,
          "velocity": 0.47244094488188976
        },
        {
          "duration": 0.07692300000000074,
          "durationTicks": 96,
          "midi": 81,
          "name": "A5",
          "ticks": 72960,
          "time": 58.461479999999995,
          "velocity": 0.48031496062992124
        },
        {
          "duration": 0.07692299999999364,
          "durationTicks": 96,
          "midi": 80,
          "name": "G#5",
          "ticks": 73080,
          "time": 58.55763375,
          "velocity": 0.4881889763779528
        },
        {
          "duration": 0.07692299999999364,
          "durationTicks": 96,
          "midi": 79,
          "name": "G5",
          "ticks": 73200,
          "time": 58.6537875,
          "velocity": 0.49606299212598426
        },
        {
          "duration": 0.07692299999999364,
          "durationTicks": 96,
          "midi": 78,
          "name": "F#5",
          "ticks": 73320,
          "time": 58.74994125,
          "velocity": 0.5039370078740157
        },
        {
          "duration": 0.07692299999999364,
          "durationTicks": 96,
          "midi": 77,
          "name": "F5",
          "ticks": 73440,
          "time": 58.846095,
          "velocity": 0.5196850393700787
        },
        {
          "duration": 0.07692299999999364,
          "durationTicks": 96,
          "midi": 78,
          "name": "F#5",
          "ticks": 73560,
          "time": 58.94224875,
          "velocity": 0.5118110236220472
        },
        {
          "duration": 0.07692299999999364,
          "durationTicks": 96,
          "midi": 79,
          "name": "G5",
          "ticks": 73680,
          "time": 59.0384025,
          "velocity": 0.49606299212598426
        },
        {
          "duration": 0.07692300000000074,
          "durationTicks": 96,
          "midi": 80,
          "name": "G#5",
          "ticks": 73800,
          "time": 59.134556249999996,
          "velocity": 0.4881889763779528
        },
        {
          "duration": 0.07692300000000074,
          "durationTicks": 96,
          "midi": 81,
          "name": "A5",
          "ticks": 73920,
          "time": 59.230709999999995,
          "velocity": 0.47244094488188976
        },
        {
          "duration": 0.07692299999999364,
          "durationTicks": 96,
          "midi": 83,
          "name": "B5",
          "ticks": 74040,
          "time": 59.32686375,
          "velocity": 0.4645669291338583
        },
        {
          "duration": 0.07692299999999364,
          "durationTicks": 96,
          "midi": 84,
          "name": "C6",
          "ticks": 74160,
          "time": 59.4230175,
          "velocity": 0.44881889763779526
        },
        {
          "duration": 0.07692299999999364,
          "durationTicks": 96,
          "midi": 86,
          "name": "D6",
          "ticks": 74280,
          "time": 59.51917125,
          "velocity": 0.4409448818897638
        },
        {
          "duration": 0.07692299999999364,
          "durationTicks": 96,
          "midi": 88,
          "name": "E6",
          "ticks": 74400,
          "time": 59.615325,
          "velocity": 0.4251968503937008
        },
        {
          "duration": 0.07692299999999364,
          "durationTicks": 96,
          "midi": 89,
          "name": "F6",
          "ticks": 74520,
          "time": 59.71147875,
          "velocity": 0.4094488188976378
        },
        {
          "duration": 0.07692299999999364,
          "durationTicks": 96,
          "midi": 88,
          "name": "E6",
          "ticks": 74640,
          "time": 59.8076325,
          "velocity": 0.4015748031496063
        },
        {
          "duration": 0.07692300000000074,
          "durationTicks": 96,
          "midi": 87,
          "name": "D#6",
          "ticks": 74760,
          "time": 59.903786249999996,
          "velocity": 0.3858267716535433
        },
        {
          "duration": 0.07692300000000074,
          "durationTicks": 96,
          "midi": 88,
          "name": "E6",
          "ticks": 74880,
          "time": 59.999939999999995,
          "velocity": 0.3937007874015748
        },
        {
          "duration": 0.07692300000000074,
          "durationTicks": 96,
          "midi": 87,
          "name": "D#6",
          "ticks": 75000,
          "time": 60.096093749999994,
          "velocity": 0.3937007874015748
        },
        {
          "duration": 0.07692299999999364,
          "durationTicks": 96,
          "midi": 86,
          "name": "D6",
          "ticks": 75120,
          "time": 60.1922475,
          "velocity": 0.3937007874015748
        },
        {
          "duration": 0.07692299999999364,
          "durationTicks": 96,
          "midi": 85,
          "name": "C#6",
          "ticks": 75240,
          "time": 60.28840125,
          "velocity": 0.3937007874015748
        },
        {
          "duration": 0.07692299999999364,
          "durationTicks": 96,
          "midi": 84,
          "name": "C6",
          "ticks": 75360,
          "time": 60.384555,
          "velocity": 0.3937007874015748
        },
        {
          "duration": 0.07692299999999364,
          "durationTicks": 96,
          "midi": 89,
          "name": "F6",
          "ticks": 75480,
          "time": 60.48070875,
          "velocity": 0.3937007874015748
        },
        {
          "duration": 0.07692299999999364,
          "durationTicks": 96,
          "midi": 88,
          "name": "E6",
          "ticks": 75600,
          "time": 60.5768625,
          "velocity": 0.3937007874015748
        },
        {
          "duration": 0.07692299999999364,
          "durationTicks": 96,
          "midi": 87,
          "name": "D#6",
          "ticks": 75720,
          "time": 60.673016249999996,
          "velocity": 0.3937007874015748
        },
        {
          "duration": 0.07692300000000074,
          "durationTicks": 96,
          "midi": 88,
          "name": "E6",
          "ticks": 75840,
          "time": 60.769169999999995,
          "velocity": 0.3937007874015748
        },
        {
          "duration": 0.07692300000000074,
          "durationTicks": 96,
          "midi": 87,
          "name": "D#6",
          "ticks": 75960,
          "time": 60.865323749999995,
          "velocity": 0.3937007874015748
        },
        {
          "duration": 0.07692299999999364,
          "durationTicks": 96,
          "midi": 86,
          "name": "D6",
          "ticks": 76080,
          "time": 60.9614775,
          "velocity": 0.3937007874015748
        },
        {
          "duration": 0.07692299999999364,
          "durationTicks": 96,
          "midi": 85,
          "name": "C#6",
          "ticks": 76200,
          "time": 61.05763125,
          "velocity": 0.3937007874015748
        },
        {
          "duration": 0.07692299999999364,
          "durationTicks": 96,
          "midi": 84,
          "name": "C6",
          "ticks": 76320,
          "time": 61.153785,
          "velocity": 0.3937007874015748
        },
        {
          "duration": 0.17307674999999278,
          "durationTicks": 216,
          "midi": 93,
          "name": "A6",
          "ticks": 76320,
          "time": 61.153785,
          "velocity": 0.3937007874015748
        },
        {
          "duration": 0.07692299999999364,
          "durationTicks": 96,
          "midi": 85,
          "name": "C#6",
          "ticks": 76440,
          "time": 61.24993875,
          "velocity": 0.3937007874015748
        },
        {
          "duration": 0.07692299999999364,
          "durationTicks": 96,
          "midi": 86,
          "name": "D6",
          "ticks": 76560,
          "time": 61.3460925,
          "velocity": 0.3937007874015748
        },
        {
          "duration": 0.07692299999999364,
          "durationTicks": 96,
          "midi": 87,
          "name": "D#6",
          "ticks": 76680,
          "time": 61.44224625,
          "velocity": 0.3937007874015748
        },
        {
          "duration": 0.07692300000000074,
          "durationTicks": 96,
          "midi": 88,
          "name": "E6",
          "ticks": 76800,
          "time": 61.538399999999996,
          "velocity": 0.3937007874015748
        },
        {
          "duration": 0.1730767499999999,
          "durationTicks": 216,
          "midi": 93,
          "name": "A6",
          "ticks": 76800,
          "time": 61.538399999999996,
          "velocity": 0.3937007874015748
        },
        {
          "duration": 0.07692300000000074,
          "durationTicks": 96,
          "midi": 87,
          "name": "D#6",
          "ticks": 76920,
          "time": 61.634553749999995,
          "velocity": 0.3937007874015748
        },
        {
          "duration": 0.07692300000000074,
          "durationTicks": 96,
          "midi": 86,
          "name": "D6",
          "ticks": 77040,
          "time": 61.730707499999994,
          "velocity": 0.3937007874015748
        },
        {
          "duration": 0.07692299999999364,
          "durationTicks": 96,
          "midi": 85,
          "name": "C#6",
          "ticks": 77160,
          "time": 61.82686125,
          "velocity": 0.3937007874015748
        },
        {
          "duration": 0.07692299999999364,
          "durationTicks": 96,
          "midi": 84,
          "name": "C6",
          "ticks": 77280,
          "time": 61.923015,
          "velocity": 0.3937007874015748
        },
        {
          "duration": 0.07692299999999364,
          "durationTicks": 96,
          "midi": 89,
          "name": "F6",
          "ticks": 77400,
          "time": 62.01916875,
          "velocity": 0.3937007874015748
        },
        {
          "duration": 0.07692299999999364,
          "durationTicks": 96,
          "midi": 88,
          "name": "E6",
          "ticks": 77520,
          "time": 62.1153225,
          "velocity": 0.3937007874015748
        },
        {
          "duration": 0.07692299999999364,
          "durationTicks": 96,
          "midi": 87,
          "name": "D#6",
          "ticks": 77640,
          "time": 62.21147625,
          "velocity": 0.3937007874015748
        },
        {
          "duration": 0.07692299999999364,
          "durationTicks": 96,
          "midi": 88,
          "name": "E6",
          "ticks": 77760,
          "time": 62.307629999999996,
          "velocity": 0.3937007874015748
        },
        {
          "duration": 0.07692300000000074,
          "durationTicks": 96,
          "midi": 87,
          "name": "D#6",
          "ticks": 77880,
          "time": 62.403783749999995,
          "velocity": 0.3937007874015748
        },
        {
          "duration": 0.07692300000000074,
          "durationTicks": 96,
          "midi": 86,
          "name": "D6",
          "ticks": 78000,
          "time": 62.499937499999994,
          "velocity": 0.3937007874015748
        },
        {
          "duration": 0.07692299999999364,
          "durationTicks": 96,
          "midi": 85,
          "name": "C#6",
          "ticks": 78120,
          "time": 62.59609125,
          "velocity": 0.3937007874015748
        },
        {
          "duration": 0.07692299999999364,
          "durationTicks": 96,
          "midi": 84,
          "name": "C6",
          "ticks": 78240,
          "time": 62.692245,
          "velocity": 0.3937007874015748
        },
        {
          "duration": 0.17307674999999278,
          "durationTicks": 216,
          "midi": 93,
          "name": "A6",
          "ticks": 78240,
          "time": 62.692245,
          "velocity": 0.3937007874015748
        },
        {
          "duration": 0.07692299999999364,
          "durationTicks": 96,
          "midi": 85,
          "name": "C#6",
          "ticks": 78360,
          "time": 62.78839875,
          "velocity": 0.3937007874015748
        },
        {
          "duration": 0.07692299999999364,
          "durationTicks": 96,
          "midi": 86,
          "name": "D6",
          "ticks": 78480,
          "time": 62.8845525,
          "velocity": 0.3937007874015748
        },
        {
          "duration": 0.07692299999999364,
          "durationTicks": 96,
          "midi": 87,
          "name": "D#6",
          "ticks": 78600,
          "time": 62.98070625,
          "velocity": 0.3937007874015748
        },
        {
          "duration": 0.18108956249999864,
          "durationTicks": 226,
          "midi": 88,
          "name": "E6",
          "ticks": 78720,
          "time": 63.076859999999996,
          "velocity": 0.3937007874015748
        },
        {
          "duration": 0.1730767499999999,
          "durationTicks": 216,
          "midi": 93,
          "name": "A6",
          "ticks": 78720,
          "time": 63.076859999999996,
          "velocity": 0.3937007874015748
        },
        {
          "duration": 0.09455118750000224,
          "durationTicks": 118,
          "midi": 80,
          "name": "G#5",
          "ticks": 78960,
          "time": 63.269167499999995,
          "velocity": 0.3937007874015748
        },
        {
          "duration": 0.09455118749999514,
          "durationTicks": 118,
          "midi": 81,
          "name": "A5",
          "ticks": 79080,
          "time": 63.36532125,
          "velocity": 0.3937007874015748
        },
        {
          "duration": 0.018429468749999955,
          "durationTicks": 23,
          "midi": 82,
          "name": "A#5",
          "ticks": 79200,
          "time": 63.461475,
          "velocity": 0.3779527559055118
        },
        {
          "duration": 0.09455118750000224,
          "durationTicks": 118,
          "midi": 83,
          "name": "B5",
          "ticks": 79320,
          "time": 63.55762875,
          "velocity": 0.4094488188976378
        },
        {
          "duration": 0.09455118750000224,
          "durationTicks": 118,
          "midi": 84,
          "name": "C6",
          "ticks": 79440,
          "time": 63.6537825,
          "velocity": 0.4330708661417323
        },
        {
          "duration": 0.09455118750000224,
          "durationTicks": 118,
          "midi": 85,
          "name": "C#6",
          "ticks": 79560,
          "time": 63.74993625,
          "velocity": 0.4645669291338583
        },
        {
          "duration": 0.09455118750000224,
          "durationTicks": 118,
          "midi": 86,
          "name": "D6",
          "ticks": 79680,
          "time": 63.84609,
          "velocity": 0.49606299212598426
        },
        {
          "duration": 0.09455118750000935,
          "durationTicks": 118,
          "midi": 85,
          "name": "C#6",
          "ticks": 79800,
          "time": 63.942243749999996,
          "velocity": 0.47244094488188976
        },
        {
          "duration": 0.09455118750000224,
          "durationTicks": 118,
          "midi": 84,
          "name": "C6",
          "ticks": 79920,
          "time": 64.0383975,
          "velocity": 0.4409448818897638
        },
        {
          "duration": 0.09455118750000224,
          "durationTicks": 118,
          "midi": 83,
          "name": "B5",
          "ticks": 80040,
          "time": 64.13455125,
          "velocity": 0.41732283464566927
        },
        {
          "duration": 0.09455118750000224,
          "durationTicks": 118,
          "midi": 84,
          "name": "C6",
          "ticks": 80160,
          "time": 64.230705,
          "velocity": 0.3937007874015748
        },
        {
          "duration": 0.09455118750000224,
          "durationTicks": 118,
          "midi": 83,
          "name": "B5",
          "ticks": 80280,
          "time": 64.32685875,
          "velocity": 0.3937007874015748
        },
        {
          "duration": 0.09455118750000224,
          "durationTicks": 118,
          "midi": 82,
          "name": "A#5",
          "ticks": 80400,
          "time": 64.4230125,
          "velocity": 0.3937007874015748
        },
        {
          "duration": 0.09455118750000224,
          "durationTicks": 118,
          "midi": 81,
          "name": "A5",
          "ticks": 80520,
          "time": 64.51916625,
          "velocity": 0.3937007874015748
        },
        {
          "duration": 0.09455118750000224,
          "durationTicks": 118,
          "midi": 80,
          "name": "G#5",
          "ticks": 80640,
          "time": 64.61532,
          "velocity": 0.3937007874015748
        },
        {
          "duration": 0.09455118750000224,
          "durationTicks": 118,
          "midi": 81,
          "name": "A5",
          "ticks": 80760,
          "time": 64.71147375,
          "velocity": 0.3937007874015748
        },
        {
          "duration": 0.09455118750000224,
          "durationTicks": 118,
          "midi": 82,
          "name": "A#5",
          "ticks": 80880,
          "time": 64.8076275,
          "velocity": 0.3937007874015748
        },
        {
          "duration": 0.09455118750000224,
          "durationTicks": 118,
          "midi": 83,
          "name": "B5",
          "ticks": 81000,
          "time": 64.90378125,
          "velocity": 0.3937007874015748
        },
        {
          "duration": 0.09455118750000224,
          "durationTicks": 118,
          "midi": 84,
          "name": "C6",
          "ticks": 81120,
          "time": 64.999935,
          "velocity": 0.3937007874015748
        },
        {
          "duration": 0.09455118750000224,
          "durationTicks": 118,
          "midi": 85,
          "name": "C#6",
          "ticks": 81240,
          "time": 65.09608874999999,
          "velocity": 0.3937007874015748
        },
        {
          "duration": 0.09455118750000224,
          "durationTicks": 118,
          "midi": 86,
          "name": "D6",
          "ticks": 81360,
          "time": 65.19224249999999,
          "velocity": 0.3937007874015748
        },
        {
          "duration": 0.09455118750000224,
          "durationTicks": 118,
          "midi": 87,
          "name": "D#6",
          "ticks": 81480,
          "time": 65.28839624999999,
          "velocity": 0.3937007874015748
        },
        {
          "duration": 0.09455118749998803,
          "durationTicks": 118,
          "midi": 88,
          "name": "E6",
          "ticks": 81600,
          "time": 65.38455,
          "velocity": 0.3937007874015748
        },
        {
          "duration": 0.09455118750000224,
          "durationTicks": 118,
          "midi": 89,
          "name": "F6",
          "ticks": 81720,
          "time": 65.48070375,
          "velocity": 0.3937007874015748
        },
        {
          "duration": 0.09455118750000224,
          "durationTicks": 118,
          "midi": 88,
          "name": "E6",
          "ticks": 81840,
          "time": 65.5768575,
          "velocity": 0.3937007874015748
        },
        {
          "duration": 0.09455118750000224,
          "durationTicks": 118,
          "midi": 87,
          "name": "D#6",
          "ticks": 81960,
          "time": 65.67301125,
          "velocity": 0.3937007874015748
        },
        {
          "duration": 0.09455118750000224,
          "durationTicks": 118,
          "midi": 88,
          "name": "E6",
          "ticks": 82080,
          "time": 65.769165,
          "velocity": 0.3937007874015748
        },
        {
          "duration": 0.09455118750000224,
          "durationTicks": 118,
          "midi": 89,
          "name": "F6",
          "ticks": 82200,
          "time": 65.86531875,
          "velocity": 0.3937007874015748
        },
        {
          "duration": 0.09455118750000224,
          "durationTicks": 118,
          "midi": 88,
          "name": "E6",
          "ticks": 82320,
          "time": 65.9614725,
          "velocity": 0.3937007874015748
        },
        {
          "duration": 0.09455118750000224,
          "durationTicks": 118,
          "midi": 87,
          "name": "D#6",
          "ticks": 82440,
          "time": 66.05762625,
          "velocity": 0.3937007874015748
        },
        {
          "duration": 0.15384600000000148,
          "durationTicks": 192,
          "midi": 88,
          "name": "E6",
          "ticks": 82560,
          "time": 66.15378,
          "velocity": 0.3937007874015748
        },
        {
          "duration": 0.09455118750000224,
          "durationTicks": 118,
          "midi": 92,
          "name": "G#6",
          "ticks": 82800,
          "time": 66.3460875,
          "velocity": 0.47244094488188976
        },
        {
          "duration": 0.09455118750000224,
          "durationTicks": 118,
          "midi": 93,
          "name": "A6",
          "ticks": 82920,
          "time": 66.44224125,
          "velocity": 0.47244094488188976
        },
        {
          "duration": 0.09455118750000224,
          "durationTicks": 118,
          "midi": 94,
          "name": "A#6",
          "ticks": 83040,
          "time": 66.538395,
          "velocity": 0.47244094488188976
        },
        {
          "duration": 0.09455118750000224,
          "durationTicks": 118,
          "midi": 95,
          "name": "B6",
          "ticks": 83160,
          "time": 66.63454875,
          "velocity": 0.47244094488188976
        },
        {
          "duration": 0.09455118750000224,
          "durationTicks": 118,
          "midi": 96,
          "name": "C7",
          "ticks": 83280,
          "time": 66.73070249999999,
          "velocity": 0.47244094488188976
        },
        {
          "duration": 0.09455118750000224,
          "durationTicks": 118,
          "midi": 97,
          "name": "C#7",
          "ticks": 83400,
          "time": 66.82685624999999,
          "velocity": 0.47244094488188976
        },
        {
          "duration": 0.09455118750000224,
          "durationTicks": 118,
          "midi": 98,
          "name": "D7",
          "ticks": 83520,
          "time": 66.92300999999999,
          "velocity": 0.47244094488188976
        },
        {
          "duration": 0.09455118749998803,
          "durationTicks": 118,
          "midi": 97,
          "name": "C#7",
          "ticks": 83640,
          "time": 67.01916375,
          "velocity": 0.47244094488188976
        },
        {
          "duration": 0.09455118750000224,
          "durationTicks": 118,
          "midi": 96,
          "name": "C7",
          "ticks": 83760,
          "time": 67.1153175,
          "velocity": 0.47244094488188976
        },
        {
          "duration": 0.09455118750000224,
          "durationTicks": 118,
          "midi": 95,
          "name": "B6",
          "ticks": 83880,
          "time": 67.21147125,
          "velocity": 0.47244094488188976
        },
        {
          "duration": 0.09455118750000224,
          "durationTicks": 118,
          "midi": 96,
          "name": "C7",
          "ticks": 84000,
          "time": 67.307625,
          "velocity": 0.47244094488188976
        },
        {
          "duration": 0.09455118750000224,
          "durationTicks": 118,
          "midi": 95,
          "name": "B6",
          "ticks": 84120,
          "time": 67.40377875,
          "velocity": 0.47244094488188976
        },
        {
          "duration": 0.09455118750000224,
          "durationTicks": 118,
          "midi": 94,
          "name": "A#6",
          "ticks": 84240,
          "time": 67.4999325,
          "velocity": 0.47244094488188976
        },
        {
          "duration": 0.09455118750000224,
          "durationTicks": 118,
          "midi": 93,
          "name": "A6",
          "ticks": 84360,
          "time": 67.59608625,
          "velocity": 0.47244094488188976
        },
        {
          "duration": 0.09455118750000224,
          "durationTicks": 118,
          "midi": 92,
          "name": "G#6",
          "ticks": 84480,
          "time": 67.69224,
          "velocity": 0.47244094488188976
        },
        {
          "duration": 0.09455118750000224,
          "durationTicks": 118,
          "midi": 93,
          "name": "A6",
          "ticks": 84600,
          "time": 67.78839375,
          "velocity": 0.47244094488188976
        },
        {
          "duration": 0.09455118750000224,
          "durationTicks": 118,
          "midi": 95,
          "name": "B6",
          "ticks": 84720,
          "time": 67.8845475,
          "velocity": 0.47244094488188976
        },
        {
          "duration": 0.09455118750000224,
          "durationTicks": 118,
          "midi": 94,
          "name": "A#6",
          "ticks": 84840,
          "time": 67.98070125,
          "velocity": 0.47244094488188976
        },
        {
          "duration": 0.09455118750000224,
          "durationTicks": 118,
          "midi": 96,
          "name": "C7",
          "ticks": 84960,
          "time": 68.076855,
          "velocity": 0.47244094488188976
        },
        {
          "duration": 0.09455118750000224,
          "durationTicks": 118,
          "midi": 97,
          "name": "C#7",
          "ticks": 85080,
          "time": 68.17300875,
          "velocity": 0.47244094488188976
        },
        {
          "duration": 0.09455118750000224,
          "durationTicks": 118,
          "midi": 98,
          "name": "D7",
          "ticks": 85200,
          "time": 68.2691625,
          "velocity": 0.47244094488188976
        },
        {
          "duration": 0.09455118750000224,
          "durationTicks": 118,
          "midi": 99,
          "name": "D#7",
          "ticks": 85320,
          "time": 68.36531624999999,
          "velocity": 0.47244094488188976
        },
        {
          "duration": 0.09455118750000224,
          "durationTicks": 118,
          "midi": 100,
          "name": "E7",
          "ticks": 85440,
          "time": 68.46146999999999,
          "velocity": 0.47244094488188976
        },
        {
          "duration": 0.09455118750000224,
          "durationTicks": 118,
          "midi": 101,
          "name": "F7",
          "ticks": 85560,
          "time": 68.55762374999999,
          "velocity": 0.47244094488188976
        },
        {
          "duration": 0.09455118749998803,
          "durationTicks": 118,
          "midi": 100,
          "name": "E7",
          "ticks": 85680,
          "time": 68.6537775,
          "velocity": 0.47244094488188976
        },
        {
          "duration": 0.09455118750000224,
          "durationTicks": 118,
          "midi": 99,
          "name": "D#7",
          "ticks": 85800,
          "time": 68.74993125,
          "velocity": 0.47244094488188976
        },
        {
          "duration": 0.09455118750000224,
          "durationTicks": 118,
          "midi": 100,
          "name": "E7",
          "ticks": 85920,
          "time": 68.846085,
          "velocity": 0.48031496062992124
        },
        {
          "duration": 0.09455118750000224,
          "durationTicks": 118,
          "midi": 102,
          "name": "F#7",
          "ticks": 86040,
          "time": 68.94223875,
          "velocity": 0.5196850393700787
        },
        {
          "duration": 0.09455118750000224,
          "durationTicks": 118,
          "midi": 103,
          "name": "G7",
          "ticks": 86160,
          "time": 69.0383925,
          "velocity": 0.5511811023622047
        },
        {
          "duration": 0.09455118750000224,
          "durationTicks": 118,
          "midi": 104,
          "name": "G#7",
          "ticks": 86280,
          "time": 69.13454625,
          "velocity": 0.5905511811023622
        },
        {
          "duration": 0.09455118750000224,
          "durationTicks": 118,
          "midi": 105,
          "name": "A7",
          "ticks": 86400,
          "time": 69.2307,
          "velocity": 0.6299212598425197
        },
        {
          "duration": 0.09455118750000224,
          "durationTicks": 118,
          "midi": 104,
          "name": "G#7",
          "ticks": 86520,
          "time": 69.32685375,
          "velocity": 0.6299212598425197
        },
        {
          "duration": 0.09455118750000224,
          "durationTicks": 118,
          "midi": 103,
          "name": "G7",
          "ticks": 86640,
          "time": 69.4230075,
          "velocity": 0.6299212598425197
        },
        {
          "duration": 0.09455118750000224,
          "durationTicks": 118,
          "midi": 102,
          "name": "F#7",
          "ticks": 86760,
          "time": 69.51916125,
          "velocity": 0.6299212598425197
        },
        {
          "duration": 0.09455118750000224,
          "durationTicks": 118,
          "midi": 103,
          "name": "G7",
          "ticks": 86880,
          "time": 69.615315,
          "velocity": 0.6299212598425197
        },
        {
          "duration": 0.09455118750000224,
          "durationTicks": 118,
          "midi": 102,
          "name": "F#7",
          "ticks": 87000,
          "time": 69.71146875,
          "velocity": 0.6299212598425197
        },
        {
          "duration": 0.09455118750000224,
          "durationTicks": 118,
          "midi": 101,
          "name": "F7",
          "ticks": 87120,
          "time": 69.8076225,
          "velocity": 0.6299212598425197
        },
        {
          "duration": 0.09455118750000224,
          "durationTicks": 118,
          "midi": 100,
          "name": "E7",
          "ticks": 87240,
          "time": 69.90377624999999,
          "velocity": 0.6299212598425197
        },
        {
          "duration": 0.09455118750000224,
          "durationTicks": 118,
          "midi": 101,
          "name": "F7",
          "ticks": 87360,
          "time": 69.99992999999999,
          "velocity": 0.6299212598425197
        },
        {
          "duration": 0.09455118750000224,
          "durationTicks": 118,
          "midi": 100,
          "name": "E7",
          "ticks": 87480,
          "time": 70.09608374999999,
          "velocity": 0.6299212598425197
        },
        {
          "duration": 0.09455118750000224,
          "durationTicks": 118,
          "midi": 99,
          "name": "D#7",
          "ticks": 87600,
          "time": 70.19223749999999,
          "velocity": 0.6299212598425197
        },
        {
          "duration": 0.09455118749998803,
          "durationTicks": 118,
          "midi": 98,
          "name": "D7",
          "ticks": 87720,
          "time": 70.28839125,
          "velocity": 0.6299212598425197
        },
        {
          "duration": 0.09455118750000224,
          "durationTicks": 118,
          "midi": 97,
          "name": "C#7",
          "ticks": 87840,
          "time": 70.384545,
          "velocity": 0.6299212598425197
        },
        {
          "duration": 0.09455118750000224,
          "durationTicks": 118,
          "midi": 96,
          "name": "C7",
          "ticks": 87960,
          "time": 70.48069875,
          "velocity": 0.6299212598425197
        },
        {
          "duration": 0.09455118750000224,
          "durationTicks": 118,
          "midi": 95,
          "name": "B6",
          "ticks": 88080,
          "time": 70.5768525,
          "velocity": 0.6299212598425197
        },
        {
          "duration": 0.09455118750000224,
          "durationTicks": 118,
          "midi": 94,
          "name": "A#6",
          "ticks": 88200,
          "time": 70.67300625,
          "velocity": 0.6299212598425197
        },
        {
          "duration": 0.09455118750000224,
          "durationTicks": 118,
          "midi": 93,
          "name": "A6",
          "ticks": 88320,
          "time": 70.76916,
          "velocity": 0.6299212598425197
        },
        {
          "duration": 0.09455118750000224,
          "durationTicks": 118,
          "midi": 92,
          "name": "G#6",
          "ticks": 88440,
          "time": 70.86531375,
          "velocity": 0.6299212598425197
        },
        {
          "duration": 0.09455118750000224,
          "durationTicks": 118,
          "midi": 91,
          "name": "G6",
          "ticks": 88560,
          "time": 70.9614675,
          "velocity": 0.6299212598425197
        },
        {
          "duration": 0.09455118750000224,
          "durationTicks": 118,
          "midi": 90,
          "name": "F#6",
          "ticks": 88680,
          "time": 71.05762125,
          "velocity": 0.6299212598425197
        },
        {
          "duration": 0.09455118750000224,
          "durationTicks": 118,
          "midi": 91,
          "name": "G6",
          "ticks": 88800,
          "time": 71.153775,
          "velocity": 0.6299212598425197
        },
        {
          "duration": 0.09455118750000224,
          "durationTicks": 118,
          "midi": 90,
          "name": "F#6",
          "ticks": 88920,
          "time": 71.24992875,
          "velocity": 0.6299212598425197
        },
        {
          "duration": 0.09455118750000224,
          "durationTicks": 118,
          "midi": 89,
          "name": "F6",
          "ticks": 89040,
          "time": 71.3460825,
          "velocity": 0.6299212598425197
        },
        {
          "duration": 0.09455118750000224,
          "durationTicks": 118,
          "midi": 88,
          "name": "E6",
          "ticks": 89160,
          "time": 71.44223625,
          "velocity": 0.6299212598425197
        },
        {
          "duration": 0.09455118750000224,
          "durationTicks": 118,
          "midi": 89,
          "name": "F6",
          "ticks": 89280,
          "time": 71.53838999999999,
          "velocity": 0.6299212598425197
        },
        {
          "duration": 0.09455118750000224,
          "durationTicks": 118,
          "midi": 88,
          "name": "E6",
          "ticks": 89400,
          "time": 71.63454374999999,
          "velocity": 0.6299212598425197
        },
        {
          "duration": 0.09455118750000224,
          "durationTicks": 118,
          "midi": 87,
          "name": "D#6",
          "ticks": 89520,
          "time": 71.73069749999999,
          "velocity": 0.6299212598425197
        },
        {
          "duration": 0.09455118750000224,
          "durationTicks": 118,
          "midi": 86,
          "name": "D6",
          "ticks": 89640,
          "time": 71.82685124999999,
          "velocity": 0.6299212598425197
        },
        {
          "duration": 0.09455118750000224,
          "durationTicks": 118,
          "midi": 85,
          "name": "C#6",
          "ticks": 89760,
          "time": 71.923005,
          "velocity": 0.6299212598425197
        },
        {
          "duration": 0.09455118750000224,
          "durationTicks": 118,
          "midi": 84,
          "name": "C6",
          "ticks": 89880,
          "time": 72.01915875,
          "velocity": 0.6299212598425197
        },
        {
          "duration": 0.09455118750000224,
          "durationTicks": 118,
          "midi": 83,
          "name": "B5",
          "ticks": 90000,
          "time": 72.1153125,
          "velocity": 0.6299212598425197
        },
        {
          "duration": 0.09455118750000224,
          "durationTicks": 118,
          "midi": 83,
          "name": "B5",
          "ticks": 90120,
          "time": 72.21146625,
          "velocity": 0.6299212598425197
        },
        {
          "duration": 0.09455118750000224,
          "durationTicks": 118,
          "midi": 81,
          "name": "A5",
          "ticks": 90240,
          "time": 72.30762,
          "velocity": 0.7874015748031497
        },
        {
          "duration": 0.09455118750000224,
          "durationTicks": 118,
          "midi": 82,
          "name": "A#5",
          "ticks": 90360,
          "time": 72.40377375,
          "velocity": 0.6299212598425197
        },
        {
          "duration": 0.09455118750000224,
          "durationTicks": 118,
          "midi": 81,
          "name": "A5",
          "ticks": 90480,
          "time": 72.4999275,
          "velocity": 0.6299212598425197
        },
        {
          "duration": 0.09455118750000224,
          "durationTicks": 118,
          "midi": 80,
          "name": "G#5",
          "ticks": 90600,
          "time": 72.59608125,
          "velocity": 0.6299212598425197
        },
        {
          "duration": 0.09455118750000224,
          "durationTicks": 118,
          "midi": 81,
          "name": "A5",
          "ticks": 90720,
          "time": 72.692235,
          "velocity": 0.7874015748031497
        },
        {
          "duration": 0.09455118750000224,
          "durationTicks": 118,
          "midi": 82,
          "name": "A#5",
          "ticks": 90840,
          "time": 72.78838875,
          "velocity": 0.6299212598425197
        },
        {
          "duration": 0.09455118750000224,
          "durationTicks": 118,
          "midi": 81,
          "name": "A5",
          "ticks": 90960,
          "time": 72.8845425,
          "velocity": 0.6299212598425197
        },
        {
          "duration": 0.09455118750000224,
          "durationTicks": 118,
          "midi": 80,
          "name": "G#5",
          "ticks": 91080,
          "time": 72.98069625,
          "velocity": 0.6299212598425197
        },
        {
          "duration": 0.15384600000000148,
          "durationTicks": 192,
          "midi": 81,
          "name": "A5",
          "ticks": 91200,
          "time": 73.07685,
          "velocity": 0.7874015748031497
        },
        {
          "duration": 0.09455118750000224,
          "durationTicks": 118,
          "midi": 82,
          "name": "A#5",
          "ticks": 91440,
          "time": 73.26915749999999,
          "velocity": 0.6299212598425197
        },
        {
          "duration": 0.09455118750000224,
          "durationTicks": 118,
          "midi": 83,
          "name": "B5",
          "ticks": 91560,
          "time": 73.36531124999999,
          "velocity": 0.6299212598425197
        },
        {
          "duration": 0.09455118749998803,
          "durationTicks": 118,
          "midi": 84,
          "name": "C6",
          "ticks": 91680,
          "time": 73.461465,
          "velocity": 0.6299212598425197
        },
        {
          "duration": 0.09455118750000224,
          "durationTicks": 118,
          "midi": 85,
          "name": "C#6",
          "ticks": 91800,
          "time": 73.55761875,
          "velocity": 0.6299212598425197
        },
        {
          "duration": 0.09455118750000224,
          "durationTicks": 118,
          "midi": 86,
          "name": "D6",
          "ticks": 91920,
          "time": 73.6537725,
          "velocity": 0.6299212598425197
        },
        {
          "duration": 0.09455118750000224,
          "durationTicks": 118,
          "midi": 87,
          "name": "D#6",
          "ticks": 92040,
          "time": 73.74992625,
          "velocity": 0.6299212598425197
        },
        {
          "duration": 0.09455118750000224,
          "durationTicks": 118,
          "midi": 88,
          "name": "E6",
          "ticks": 92160,
          "time": 73.84608,
          "velocity": 0.7874015748031497
        },
        {
          "duration": 0.09455118750000224,
          "durationTicks": 118,
          "midi": 89,
          "name": "F6",
          "ticks": 92280,
          "time": 73.94223375,
          "velocity": 0.6299212598425197
        },
        {
          "duration": 0.09455118750000224,
          "durationTicks": 118,
          "midi": 88,
          "name": "E6",
          "ticks": 92400,
          "time": 74.0383875,
          "velocity": 0.6299212598425197
        },
        {
          "duration": 0.09455118750000224,
          "durationTicks": 118,
          "midi": 87,
          "name": "D#6",
          "ticks": 92520,
          "time": 74.13454125,
          "velocity": 0.6299212598425197
        },
        {
          "duration": 0.09455118750000224,
          "durationTicks": 118,
          "midi": 88,
          "name": "E6",
          "ticks": 92640,
          "time": 74.230695,
          "velocity": 0.7874015748031497
        },
        {
          "duration": 0.09455118750000224,
          "durationTicks": 118,
          "midi": 89,
          "name": "F6",
          "ticks": 92760,
          "time": 74.32684875,
          "velocity": 0.6299212598425197
        },
        {
          "duration": 0.09455118750000224,
          "durationTicks": 118,
          "midi": 88,
          "name": "E6",
          "ticks": 92880,
          "time": 74.4230025,
          "velocity": 0.6299212598425197
        },
        {
          "duration": 0.09455118750000224,
          "durationTicks": 118,
          "midi": 87,
          "name": "D#6",
          "ticks": 93000,
          "time": 74.51915625,
          "velocity": 0.6299212598425197
        },
        {
          "duration": 0.15384600000000148,
          "durationTicks": 192,
          "midi": 88,
          "name": "E6",
          "ticks": 93120,
          "time": 74.61531,
          "velocity": 0.6299212598425197
        },
        {
          "duration": 0.09455118750000224,
          "durationTicks": 118,
          "midi": 87,
          "name": "D#6",
          "ticks": 93360,
          "time": 74.80761749999999,
          "velocity": 0.6299212598425197
        },
        {
          "duration": 0.09455118750000224,
          "durationTicks": 118,
          "midi": 88,
          "name": "E6",
          "ticks": 93480,
          "time": 74.90377124999999,
          "velocity": 0.6299212598425197
        },
        {
          "duration": 0.09455118750000224,
          "durationTicks": 118,
          "midi": 89,
          "name": "F6",
          "ticks": 93600,
          "time": 74.99992499999999,
          "velocity": 0.6299212598425197
        },
        {
          "duration": 0.09455118749998803,
          "durationTicks": 118,
          "midi": 90,
          "name": "F#6",
          "ticks": 93720,
          "time": 75.09607875,
          "velocity": 0.6299212598425197
        },
        {
          "duration": 0.09455118750000224,
          "durationTicks": 118,
          "midi": 91,
          "name": "G6",
          "ticks": 93840,
          "time": 75.1922325,
          "velocity": 0.6299212598425197
        },
        {
          "duration": 0.09455118750000224,
          "durationTicks": 118,
          "midi": 92,
          "name": "G#6",
          "ticks": 93960,
          "time": 75.28838625,
          "velocity": 0.6299212598425197
        },
        {
          "duration": 0.1907049375000014,
          "durationTicks": 238,
          "midi": 93,
          "name": "A6",
          "ticks": 94080,
          "time": 75.38454,
          "velocity": 0.6299212598425197
        },
        {
          "duration": 0.09455118750000224,
          "durationTicks": 118,
          "midi": 76,
          "name": "E5",
          "ticks": 94560,
          "time": 75.769155,
          "velocity": 0.47244094488188976
        },
        {
          "duration": 0.09455118750000224,
          "durationTicks": 118,
          "midi": 77,
          "name": "F5",
          "ticks": 94680,
          "time": 75.86530875,
          "velocity": 0.47244094488188976
        },
        {
          "duration": 0.09455118750000224,
          "durationTicks": 118,
          "midi": 78,
          "name": "F#5",
          "ticks": 94800,
          "time": 75.9614625,
          "velocity": 0.47244094488188976
        },
        {
          "duration": 0.09455118750000224,
          "durationTicks": 118,
          "midi": 79,
          "name": "G5",
          "ticks": 94920,
          "time": 76.05761625,
          "velocity": 0.47244094488188976
        },
        {
          "duration": 0.09455118750000224,
          "durationTicks": 118,
          "midi": 80,
          "name": "G#5",
          "ticks": 95040,
          "time": 76.15377,
          "velocity": 0.47244094488188976
        },
        {
          "duration": 0.09455118750000224,
          "durationTicks": 118,
          "midi": 81,
          "name": "A5",
          "ticks": 95160,
          "time": 76.24992375,
          "velocity": 0.47244094488188976
        },
        {
          "duration": 0.09455118750000224,
          "durationTicks": 118,
          "midi": 82,
          "name": "A#5",
          "ticks": 95280,
          "time": 76.34607749999999,
          "velocity": 0.47244094488188976
        },
        {
          "duration": 0.09455118750000224,
          "durationTicks": 118,
          "midi": 83,
          "name": "B5",
          "ticks": 95400,
          "time": 76.44223124999999,
          "velocity": 0.47244094488188976
        },
        {
          "duration": 0.09455118750000224,
          "durationTicks": 118,
          "midi": 84,
          "name": "C6",
          "ticks": 95520,
          "time": 76.53838499999999,
          "velocity": 0.47244094488188976
        },
        {
          "duration": 0.09455118750000224,
          "durationTicks": 118,
          "midi": 85,
          "name": "C#6",
          "ticks": 95640,
          "time": 76.63453874999999,
          "velocity": 0.47244094488188976
        },
        {
          "duration": 0.09455118749998803,
          "durationTicks": 118,
          "midi": 86,
          "name": "D6",
          "ticks": 95760,
          "time": 76.7306925,
          "velocity": 0.47244094488188976
        },
        {
          "duration": 0.09455118750000224,
          "durationTicks": 118,
          "midi": 87,
          "name": "D#6",
          "ticks": 95880,
          "time": 76.82684625,
          "velocity": 0.47244094488188976
        },
        {
          "duration": 0.09455118750000224,
          "durationTicks": 118,
          "midi": 88,
          "name": "E6",
          "ticks": 96000,
          "time": 76.923,
          "velocity": 0.47244094488188976
        },
        {
          "duration": 0.09455118750000224,
          "durationTicks": 118,
          "midi": 89,
          "name": "F6",
          "ticks": 96120,
          "time": 77.01915375,
          "velocity": 0.47244094488188976
        },
        {
          "duration": 0.09455118750000224,
          "durationTicks": 118,
          "midi": 90,
          "name": "F#6",
          "ticks": 96240,
          "time": 77.1153075,
          "velocity": 0.47244094488188976
        },
        {
          "duration": 0.09455118750000224,
          "durationTicks": 118,
          "midi": 91,
          "name": "G6",
          "ticks": 96360,
          "time": 77.21146125,
          "velocity": 0.47244094488188976
        },
        {
          "duration": 0.09455118750000224,
          "durationTicks": 118,
          "midi": 92,
          "name": "G#6",
          "ticks": 96480,
          "time": 77.307615,
          "velocity": 0.47244094488188976
        },
        {
          "duration": 0.09455118750000224,
          "durationTicks": 118,
          "midi": 93,
          "name": "A6",
          "ticks": 96600,
          "time": 77.40376875,
          "velocity": 0.47244094488188976
        },
        {
          "duration": 0.09455118750000224,
          "durationTicks": 118,
          "midi": 94,
          "name": "A#6",
          "ticks": 96720,
          "time": 77.4999225,
          "velocity": 0.47244094488188976
        },
        {
          "duration": 0.09455118750000224,
          "durationTicks": 118,
          "midi": 95,
          "name": "B6",
          "ticks": 96840,
          "time": 77.59607625,
          "velocity": 0.47244094488188976
        },
        {
          "duration": 0.09455118750000224,
          "durationTicks": 118,
          "midi": 96,
          "name": "C7",
          "ticks": 96960,
          "time": 77.69223,
          "velocity": 0.47244094488188976
        },
        {
          "duration": 0.09455118750000224,
          "durationTicks": 118,
          "midi": 97,
          "name": "C#7",
          "ticks": 97080,
          "time": 77.78838375,
          "velocity": 0.47244094488188976
        },
        {
          "duration": 0.09455118750000224,
          "durationTicks": 118,
          "midi": 98,
          "name": "D7",
          "ticks": 97200,
          "time": 77.8845375,
          "velocity": 0.47244094488188976
        },
        {
          "duration": 0.09455118750000224,
          "durationTicks": 118,
          "midi": 99,
          "name": "D#7",
          "ticks": 97320,
          "time": 77.98069124999999,
          "velocity": 0.47244094488188976
        },
        {
          "duration": 0.09455118750000224,
          "durationTicks": 118,
          "midi": 100,
          "name": "E7",
          "ticks": 97440,
          "time": 78.07684499999999,
          "velocity": 0.47244094488188976
        },
        {
          "duration": 0.09455118750000224,
          "durationTicks": 118,
          "midi": 102,
          "name": "F#7",
          "ticks": 97560,
          "time": 78.17299874999999,
          "velocity": 0.47244094488188976
        },
        {
          "duration": 0.09455118750000224,
          "durationTicks": 118,
          "midi": 103,
          "name": "G7",
          "ticks": 97680,
          "time": 78.26915249999999,
          "velocity": 0.47244094488188976
        },
        {
          "duration": 0.09455118749998803,
          "durationTicks": 118,
          "midi": 104,
          "name": "G#7",
          "ticks": 97800,
          "time": 78.36530625,
          "velocity": 0.47244094488188976
        },
        {
          "duration": 0.1907049375000014,
          "durationTicks": 238,
          "midi": 96,
          "name": "C7",
          "ticks": 97920,
          "time": 78.46146,
          "velocity": 0.47244094488188976
        },
        {
          "duration": 0.1907049375000014,
          "durationTicks": 238,
          "midi": 105,
          "name": "A7",
          "ticks": 97920,
          "time": 78.46146,
          "velocity": 0.47244094488188976
        },
        {
          "duration": 0.6923069999999996,
          "durationTicks": 864,
          "midi": 69,
          "name": "A4",
          "ticks": 98880,
          "time": 79.23069,
          "velocity": 0.47244094488188976
        },
        {
          "duration": 0.6923069999999996,
          "durationTicks": 864,
          "midi": 72,
          "name": "C5",
          "ticks": 98880,
          "time": 79.23069,
          "velocity": 0.47244094488188976
        },
        {
          "duration": 0.6923069999999996,
          "durationTicks": 864,
          "midi": 76,
          "name": "E5",
          "ticks": 98880,
          "time": 79.23069,
          "velocity": 0.47244094488188976
        },
        {
          "duration": 0.6923069999999996,
          "durationTicks": 864,
          "midi": 81,
          "name": "A5",
          "ticks": 98880,
          "time": 79.23069,
          "velocity": 0.47244094488188976
        },
        {
          "duration": 0.1923074999999983,
          "durationTicks": 240,
          "midi": 57,
          "name": "A3",
          "ticks": 99840,
          "time": 79.99992,
          "velocity": 0.47244094488188976
        }
      ],
      "endOfTrackTicks": 100800
    },
    {
      "channel": 0,
      "controlChanges": {
        "10": [
          {
            "number": 10,
            "ticks": 0,
            "time": 0,
            "value": 0.5039370078740157
          }
        ],
        "64": [
          {
            "number": 64,
            "ticks": 24000,
            "time": 19.23075,
            "value": 1
          },
          {
            "number": 64,
            "ticks": 24960,
            "time": 19.99998,
            "value": 0
          },
          {
            "number": 64,
            "ticks": 25920,
            "time": 20.769209999999998,
            "value": 1
          },
          {
            "number": 64,
            "ticks": 26880,
            "time": 21.538439999999998,
            "value": 0
          },
          {
            "number": 64,
            "ticks": 28800,
            "time": 23.0769,
            "value": 1
          },
          {
            "number": 64,
            "ticks": 30720,
            "time": 24.61536,
            "value": 0
          },
          {
            "number": 64,
            "ticks": 31680,
            "time": 25.38459,
            "value": 1
          },
          {
            "number": 64,
            "ticks": 32640,
            "time": 26.15382,
            "value": 0
          },
          {
            "number": 64,
            "ticks": 33600,
            "time": 26.92305,
            "value": 1
          },
          {
            "number": 64,
            "ticks": 34560,
            "time": 27.69228,
            "value": 0
          },
          {
            "number": 64,
            "ticks": 36480,
            "time": 29.230739999999997,
            "value": 1
          },
          {
            "number": 64,
            "ticks": 38400,
            "time": 30.769199999999998,
            "value": 0
          },
          {
            "number": 64,
            "ticks": 46080,
            "time": 36.92304,
            "value": 1
          },
          {
            "number": 64,
            "ticks": 47040,
            "time": 37.69227,
            "value": 0
          },
          {
            "number": 64,
            "ticks": 98880,
            "time": 79.23069,
            "value": 1
          },
          {
            "number": 64,
            "ticks": 99840,
            "time": 79.99992,
            "value": 0
          }
        ]
      },
      "pitchBends": [],
      "instrument": {
        "family": "piano",
        "number": 0,
        "name": "acoustic grand piano"
      },
      "name": "Track 2",
      "notes": [
        {
          "duration": 0.1538459999999997,
          "durationTicks": 192,
          "midi": 45,
          "name": "A2",
          "ticks": 7680,
          "time": 6.15384,
          "velocity": 0.3937007874015748
        },
        {
          "duration": 0.1538459999999997,
          "durationTicks": 192,
          "midi": 52,
          "name": "E3",
          "ticks": 7680,
          "time": 6.15384,
          "velocity": 0.3937007874015748
        },
        {
          "duration": 0.1538459999999997,
          "durationTicks": 192,
          "midi": 60,
          "name": "C4",
          "ticks": 7680,
          "time": 6.15384,
          "velocity": 0.3937007874015748
        },
        {
          "duration": 0.15384599999999882,
          "durationTicks": 192,
          "midi": 45,
          "name": "A2",
          "ticks": 8640,
          "time": 6.92307,
          "velocity": 0.3937007874015748
        },
        {
          "duration": 0.15384599999999882,
          "durationTicks": 192,
          "midi": 52,
          "name": "E3",
          "ticks": 8640,
          "time": 6.92307,
          "velocity": 0.3937007874015748
        },
        {
          "duration": 0.15384599999999882,
          "durationTicks": 192,
          "midi": 60,
          "name": "C4",
          "ticks": 8640,
          "time": 6.92307,
          "velocity": 0.3937007874015748
        },
        {
          "duration": 0.1538459999999997,
          "durationTicks": 192,
          "midi": 50,
          "name": "D3",
          "ticks": 9120,
          "time": 7.307684999999999,
          "velocity": 0.3937007874015748
        },
        {
          "duration": 0.1538459999999997,
          "durationTicks": 192,
          "midi": 54,
          "name": "F#3",
          "ticks": 9120,
          "time": 7.307684999999999,
          "velocity": 0.3937007874015748
        },
        {
          "duration": 0.1538459999999997,
          "durationTicks": 192,
          "midi": 57,
          "name": "A3",
          "ticks": 9120,
          "time": 7.307684999999999,
          "velocity": 0.3937007874015748
        },
        {
          "duration": 0.1538459999999997,
          "durationTicks": 192,
          "midi": 45,
          "name": "A2",
          "ticks": 9600,
          "time": 7.6922999999999995,
          "velocity": 0.3937007874015748
        },
        {
          "duration": 0.1538459999999997,
          "durationTicks": 192,
          "midi": 52,
          "name": "E3",
          "ticks": 9600,
          "time": 7.6922999999999995,
          "velocity": 0.3937007874015748
        },
        {
          "duration": 0.1538459999999997,
          "durationTicks": 192,
          "midi": 60,
          "name": "C4",
          "ticks": 9600,
          "time": 7.6922999999999995,
          "velocity": 0.3937007874015748
        },
        {
          "duration": 0.1538459999999997,
          "durationTicks": 192,
          "midi": 45,
          "name": "A2",
          "ticks": 10560,
          "time": 8.46153,
          "velocity": 0.3937007874015748
        },
        {
          "duration": 0.1538459999999997,
          "durationTicks": 192,
          "midi": 52,
          "name": "E3",
          "ticks": 10560,
          "time": 8.46153,
          "velocity": 0.3937007874015748
        },
        {
          "duration": 0.1538459999999997,
          "durationTicks": 192,
          "midi": 60,
          "name": "C4",
          "ticks": 10560,
          "time": 8.46153,
          "velocity": 0.3937007874015748
        },
        {
          "duration": 0.1538459999999997,
          "durationTicks": 192,
          "midi": 50,
          "name": "D3",
          "ticks": 11040,
          "time": 8.846145,
          "velocity": 0.3937007874015748
        },
        {
          "duration": 0.1538459999999997,
          "durationTicks": 192,
          "midi": 54,
          "name": "F#3",
          "ticks": 11040,
          "time": 8.846145,
          "velocity": 0.3937007874015748
        },
        {
          "duration": 0.1538459999999997,
          "durationTicks": 192,
          "midi": 57,
          "name": "A3",
          "ticks": 11040,
          "time": 8.846145,
          "velocity": 0.3937007874015748
        },
        {
          "duration": 0.1538459999999997,
          "durationTicks": 192,
          "midi": 45,
          "name": "A2",
          "ticks": 11520,
          "time": 9.23076,
          "velocity": 0.3937007874015748
        },
        {
          "duration": 0.1538459999999997,
          "durationTicks": 192,
          "midi": 52,
          "name": "E3",
          "ticks": 11520,
          "time": 9.23076,
          "velocity": 0.3937007874015748
        },
        {
          "duration": 0.1538459999999997,
          "durationTicks": 192,
          "midi": 60,
          "name": "C4",
          "ticks": 11520,
          "time": 9.23076,
          "velocity": 0.3937007874015748
        },
        {
          "duration": 0.1538459999999997,
          "durationTicks": 192,
          "midi": 53,
          "name": "F3",
          "ticks": 12000,
          "time": 9.615375,
          "velocity": 0.3937007874015748
        },
        {
          "duration": 0.1538459999999997,
          "durationTicks": 192,
          "midi": 57,
          "name": "A3",
          "ticks": 12000,
          "time": 9.615375,
          "velocity": 0.3937007874015748
        },
        {
          "duration": 0.15384599999999793,
          "durationTicks": 192,
          "midi": 52,
          "name": "E3",
          "ticks": 12480,
          "time": 9.99999,
          "velocity": 0.3937007874015748
        },
        {
          "duration": 0.15384599999999793,
          "durationTicks": 192,
          "midi": 57,
          "name": "A3",
          "ticks": 12480,
          "time": 9.99999,
          "velocity": 0.3937007874015748
        },
        {
          "duration": 0.1538459999999997,
          "durationTicks": 192,
          "midi": 50,
          "name": "D3",
          "ticks": 12960,
          "time": 10.384604999999999,
          "velocity": 0.3937007874015748
        },
        {
          "duration": 0.1538459999999997,
          "durationTicks": 192,
          "midi": 56,
          "name": "G#3",
          "ticks": 12960,
          "time": 10.384604999999999,
          "velocity": 0.3937007874015748
        },
        {
          "duration": 0.1538459999999997,
          "durationTicks": 192,
          "midi": 59,
          "name": "B3",
          "ticks": 12960,
          "time": 10.384604999999999,
          "velocity": 0.3937007874015748
        },
        {
          "duration": 0.1538459999999997,
          "durationTicks": 192,
          "midi": 48,
          "name": "C3",
          "ticks": 13440,
          "time": 10.769219999999999,
          "velocity": 0.3937007874015748
        },
        {
          "duration": 0.1538459999999997,
          "durationTicks": 192,
          "midi": 52,
          "name": "E3",
          "ticks": 13440,
          "time": 10.769219999999999,
          "velocity": 0.3937007874015748
        },
        {
          "duration": 0.1538459999999997,
          "durationTicks": 192,
          "midi": 57,
          "name": "A3",
          "ticks": 13440,
          "time": 10.769219999999999,
          "velocity": 0.3937007874015748
        },
        {
          "duration": 0.1538459999999997,
          "durationTicks": 192,
          "midi": 41,
          "name": "F2",
          "ticks": 13920,
          "time": 11.153834999999999,
          "velocity": 0.3937007874015748
        },
        {
          "duration": 0.1538459999999997,
          "durationTicks": 192,
          "midi": 45,
          "name": "A2",
          "ticks": 13920,
          "time": 11.153834999999999,
          "velocity": 0.3937007874015748
        },
        {
          "duration": 0.1538459999999997,
          "durationTicks": 192,
          "midi": 50,
          "name": "D3",
          "ticks": 13920,
          "time": 11.153834999999999,
          "velocity": 0.3937007874015748
        },
        {
          "duration": 0.1538459999999997,
          "durationTicks": 192,
          "midi": 40,
          "name": "E2",
          "ticks": 14400,
          "time": 11.53845,
          "velocity": 0.3937007874015748
        },
        {
          "duration": 0.1538459999999997,
          "durationTicks": 192,
          "midi": 45,
          "name": "A2",
          "ticks": 14400,
          "time": 11.53845,
          "velocity": 0.3937007874015748
        },
        {
          "duration": 0.1538459999999997,
          "durationTicks": 192,
          "midi": 48,
          "name": "C3",
          "ticks": 14400,
          "time": 11.53845,
          "velocity": 0.3937007874015748
        },
        {
          "duration": 0.1538459999999997,
          "durationTicks": 192,
          "midi": 38,
          "name": "D2",
          "ticks": 14880,
          "time": 11.923065,
          "velocity": 0.3937007874015748
        },
        {
          "duration": 0.1538459999999997,
          "durationTicks": 192,
          "midi": 40,
          "name": "E2",
          "ticks": 14880,
          "time": 11.923065,
          "velocity": 0.3937007874015748
        },
        {
          "duration": 0.1538459999999997,
          "durationTicks": 192,
          "midi": 47,
          "name": "B2",
          "ticks": 14880,
          "time": 11.923065,
          "velocity": 0.3937007874015748
        },
        {
          "duration": 0.1538459999999997,
          "durationTicks": 192,
          "midi": 36,
          "name": "C2",
          "ticks": 15360,
          "time": 12.30768,
          "velocity": 0.3937007874015748
        },
        {
          "duration": 0.1538459999999997,
          "durationTicks": 192,
          "midi": 45,
          "name": "A2",
          "ticks": 15360,
          "time": 12.30768,
          "velocity": 0.3937007874015748
        },
        {
          "duration": 0.1538459999999997,
          "durationTicks": 192,
          "midi": 52,
          "name": "E3",
          "ticks": 15360,
          "time": 12.30768,
          "velocity": 0.3937007874015748
        },
        {
          "duration": 0.1538459999999997,
          "durationTicks": 192,
          "midi": 38,
          "name": "D2",
          "ticks": 15840,
          "time": 12.692295,
          "velocity": 0.3937007874015748
        },
        {
          "duration": 0.1538459999999997,
          "durationTicks": 192,
          "midi": 45,
          "name": "A2",
          "ticks": 15840,
          "time": 12.692295,
          "velocity": 0.3937007874015748
        },
        {
          "duration": 0.1538459999999997,
          "durationTicks": 192,
          "midi": 53,
          "name": "F3",
          "ticks": 15840,
          "time": 12.692295,
          "velocity": 0.3937007874015748
        },
        {
          "duration": 0.1538459999999997,
          "durationTicks": 192,
          "midi": 50,
          "name": "D3",
          "ticks": 16800,
          "time": 13.461525,
          "velocity": 0.3937007874015748
        },
        {
          "duration": 0.1538459999999997,
          "durationTicks": 192,
          "midi": 55,
          "name": "G3",
          "ticks": 16800,
          "time": 13.461525,
          "velocity": 0.3937007874015748
        },
        {
          "duration": 0.1538459999999997,
          "durationTicks": 192,
          "midi": 59,
          "name": "B3",
          "ticks": 16800,
          "time": 13.461525,
          "velocity": 0.3937007874015748
        },
        {
          "duration": 0.15384599999999793,
          "durationTicks": 192,
          "midi": 53,
          "name": "F3",
          "ticks": 17280,
          "time": 13.84614,
          "velocity": 0.3937007874015748
        },
        {
          "duration": 0.15384599999999793,
          "durationTicks": 192,
          "midi": 57,
          "name": "A3",
          "ticks": 17280,
          "time": 13.84614,
          "velocity": 0.3937007874015748
        },
        {
          "duration": 0.15384599999999793,
          "durationTicks": 192,
          "midi": 62,
          "name": "D4",
          "ticks": 17280,
          "time": 13.84614,
          "velocity": 0.3937007874015748
        },
        {
          "duration": 0.1538459999999997,
          "durationTicks": 192,
          "midi": 41,
          "name": "F2",
          "ticks": 18240,
          "time": 14.615369999999999,
          "velocity": 0.3937007874015748
        },
        {
          "duration": 0.1538459999999997,
          "durationTicks": 192,
          "midi": 50,
          "name": "D3",
          "ticks": 18240,
          "time": 14.615369999999999,
          "velocity": 0.3937007874015748
        },
        {
          "duration": 0.1538459999999997,
          "durationTicks": 192,
          "midi": 57,
          "name": "A3",
          "ticks": 18240,
          "time": 14.615369999999999,
          "velocity": 0.3937007874015748
        },
        {
          "duration": 0.1538459999999997,
          "durationTicks": 192,
          "midi": 50,
          "name": "D3",
          "ticks": 18720,
          "time": 14.999984999999999,
          "velocity": 0.3937007874015748
        },
        {
          "duration": 0.1538459999999997,
          "durationTicks": 192,
          "midi": 55,
          "name": "G3",
          "ticks": 18720,
          "time": 14.999984999999999,
          "velocity": 0.3937007874015748
        },
        {
          "duration": 0.1538459999999997,
          "durationTicks": 192,
          "midi": 59,
          "name": "B3",
          "ticks": 18720,
          "time": 14.999984999999999,
          "velocity": 0.3937007874015748
        },
        {
          "duration": 0.1538459999999997,
          "durationTicks": 192,
          "midi": 53,
          "name": "F3",
          "ticks": 19200,
          "time": 15.384599999999999,
          "velocity": 0.3937007874015748
        },
        {
          "duration": 0.1538459999999997,
          "durationTicks": 192,
          "midi": 57,
          "name": "A3",
          "ticks": 19200,
          "time": 15.384599999999999,
          "velocity": 0.3937007874015748
        },
        {
          "duration": 0.1538459999999997,
          "durationTicks": 192,
          "midi": 62,
          "name": "D4",
          "ticks": 19200,
          "time": 15.384599999999999,
          "velocity": 0.3937007874015748
        },
        {
          "duration": 0.1538459999999997,
          "durationTicks": 192,
          "midi": 58,
          "name": "A#3",
          "ticks": 19680,
          "time": 15.769214999999999,
          "velocity": 0.3937007874015748
        },
        {
          "duration": 0.1538459999999997,
          "durationTicks": 192,
          "midi": 61,
          "name": "C#4",
          "ticks": 19680,
          "time": 15.769214999999999,
          "velocity": 0.3937007874015748
        },
        {
          "duration": 0.15384599999999793,
          "durationTicks": 192,
          "midi": 57,
          "name": "A3",
          "ticks": 20160,
          "time": 16.15383,
          "velocity": 0.3937007874015748
        },
        {
          "duration": 0.15384599999999793,
          "durationTicks": 192,
          "midi": 60,
          "name": "C4",
          "ticks": 20160,
          "time": 16.15383,
          "velocity": 0.3937007874015748
        },
        {
          "duration": 0.15384599999999793,
          "durationTicks": 192,
          "midi": 52,
          "name": "E3",
          "ticks": 20640,
          "time": 16.538445,
          "velocity": 0.3937007874015748
        },
        {
          "duration": 0.15384599999999793,
          "durationTicks": 192,
          "midi": 55,
          "name": "G3",
          "ticks": 20640,
          "time": 16.538445,
          "velocity": 0.3937007874015748
        },
        {
          "duration": 0.15384599999999793,
          "durationTicks": 192,
          "midi": 61,
          "name": "C#4",
          "ticks": 20640,
          "time": 16.538445,
          "velocity": 0.3937007874015748
        },
        {
          "duration": 0.15384599999999793,
          "durationTicks": 192,
          "midi": 50,
          "name": "D3",
          "ticks": 21120,
          "time": 16.92306,
          "velocity": 0.3937007874015748
        },
        {
          "duration": 0.15384599999999793,
          "durationTicks": 192,
          "midi": 53,
          "name": "F3",
          "ticks": 21120,
          "time": 16.92306,
          "velocity": 0.3937007874015748
        },
        {
          "duration": 0.15384599999999793,
          "durationTicks": 192,
          "midi": 57,
          "name": "A3",
          "ticks": 21120,
          "time": 16.92306,
          "velocity": 0.3937007874015748
        },
        {
          "duration": 0.15384599999999793,
          "durationTicks": 192,
          "midi": 46,
          "name": "A#2",
          "ticks": 21600,
          "time": 17.307675,
          "velocity": 0.3937007874015748
        },
        {
          "duration": 0.15384599999999793,
          "durationTicks": 192,
          "midi": 50,
          "name": "D3",
          "ticks": 21600,
          "time": 17.307675,
          "velocity": 0.3937007874015748
        },
        {
          "duration": 0.15384599999999793,
          "durationTicks": 192,
          "midi": 55,
          "name": "G3",
          "ticks": 21600,
          "time": 17.307675,
          "velocity": 0.3937007874015748
        },
        {
          "duration": 0.15384599999999793,
          "durationTicks": 192,
          "midi": 45,
          "name": "A2",
          "ticks": 22080,
          "time": 17.69229,
          "velocity": 0.3937007874015748
        },
        {
          "duration": 0.15384599999999793,
          "durationTicks": 192,
          "midi": 50,
          "name": "D3",
          "ticks": 22080,
          "time": 17.69229,
          "velocity": 0.3937007874015748
        },
        {
          "duration": 0.15384599999999793,
          "durationTicks": 192,
          "midi": 53,
          "name": "F3",
          "ticks": 22080,
          "time": 17.69229,
          "velocity": 0.3937007874015748
        },
        {
          "duration": 0.15384599999999793,
          "durationTicks": 192,
          "midi": 43,
          "name": "G2",
          "ticks": 22560,
          "time": 18.076905,
          "velocity": 0.3937007874015748
        },
        {
          "duration": 0.15384599999999793,
          "durationTicks": 192,
          "midi": 49,
          "name": "C#3",
          "ticks": 22560,
          "time": 18.076905,
          "velocity": 0.3937007874015748
        },
        {
          "duration": 0.15384599999999793,
          "durationTicks": 192,
          "midi": 52,
          "name": "E3",
          "ticks": 22560,
          "time": 18.076905,
          "velocity": 0.3937007874015748
        },
        {
          "duration": 0.15384599999999793,
          "durationTicks": 192,
          "midi": 41,
          "name": "F2",
          "ticks": 23040,
          "time": 18.46152,
          "velocity": 0.3937007874015748
        },
        {
          "duration": 0.15384599999999793,
          "durationTicks": 192,
          "midi": 45,
          "name": "A2",
          "ticks": 23040,
          "time": 18.46152,
          "velocity": 0.3937007874015748
        },
        {
          "duration": 0.15384599999999793,
          "durationTicks": 192,
          "midi": 50,
          "name": "D3",
          "ticks": 23040,
          "time": 18.46152,
          "velocity": 0.3937007874015748
        },
        {
          "duration": 0.07692300000000074,
          "durationTicks": 96,
          "midi": 56,
          "name": "G#3",
          "ticks": 23280,
          "time": 18.6538275,
          "velocity": 0.3937007874015748
        },
        {
          "duration": 0.07692300000000074,
          "durationTicks": 96,
          "midi": 56,
          "name": "G#3",
          "ticks": 23520,
          "time": 18.846135,
          "velocity": 0.3937007874015748
        },
        {
          "duration": 0.07692300000000074,
          "durationTicks": 96,
          "midi": 56,
          "name": "G#3",
          "ticks": 23760,
          "time": 19.0384425,
          "velocity": 0.4645669291338583
        },
        {
          "duration": 0.15384599999999793,
          "durationTicks": 192,
          "midi": 57,
          "name": "A3",
          "ticks": 24960,
          "time": 19.99998,
          "velocity": 0.3937007874015748
        },
        {
          "duration": 0.07692300000000074,
          "durationTicks": 96,
          "midi": 68,
          "name": "G#4",
          "ticks": 25200,
          "time": 20.1922875,
          "velocity": 0.3937007874015748
        },
        {
          "duration": 0.07692300000000074,
          "durationTicks": 96,
          "midi": 68,
          "name": "G#4",
          "ticks": 25440,
          "time": 20.384595,
          "velocity": 0.3937007874015748
        },
        {
          "duration": 0.07692300000000074,
          "durationTicks": 96,
          "midi": 68,
          "name": "G#4",
          "ticks": 25680,
          "time": 20.5769025,
          "velocity": 0.48031496062992124
        },
        {
          "duration": 0.1907049375000014,
          "durationTicks": 238,
          "midi": 57,
          "name": "A3",
          "ticks": 27840,
          "time": 22.307669999999998,
          "velocity": 0.41732283464566927
        },
        {
          "duration": 0.19070493749999784,
          "durationTicks": 238,
          "midi": 56,
          "name": "G#3",
          "ticks": 28080,
          "time": 22.4999775,
          "velocity": 0.47244094488188976
        },
        {
          "duration": 0.19070493749999784,
          "durationTicks": 238,
          "midi": 58,
          "name": "A#3",
          "ticks": 28080,
          "time": 22.4999775,
          "velocity": 0.47244094488188976
        },
        {
          "duration": 0.19070493749999784,
          "durationTicks": 238,
          "midi": 55,
          "name": "G3",
          "ticks": 28320,
          "time": 22.692285,
          "velocity": 0.5196850393700787
        },
        {
          "duration": 0.19070493749999784,
          "durationTicks": 238,
          "midi": 59,
          "name": "B3",
          "ticks": 28320,
          "time": 22.692285,
          "velocity": 0.5196850393700787
        },
        {
          "duration": 0.19070493749999784,
          "durationTicks": 238,
          "midi": 54,
          "name": "F#3",
          "ticks": 28560,
          "time": 22.8845925,
          "velocity": 0.5748031496062992
        },
        {
          "duration": 0.19070493749999784,
          "durationTicks": 238,
          "midi": 60,
          "name": "C4",
          "ticks": 28560,
          "time": 22.8845925,
          "velocity": 0.5748031496062992
        },
        {
          "duration": 0.7676274374999998,
          "durationTicks": 958,
          "midi": 53,
          "name": "F3",
          "ticks": 28800,
          "time": 23.0769,
          "velocity": 0.8740157480314961
        },
        {
          "duration": 0.7676274374999998,
          "durationTicks": 958,
          "midi": 57,
          "name": "A3",
          "ticks": 28800,
          "time": 23.0769,
          "velocity": 0.8740157480314961
        },
        {
          "duration": 0.7676274374999998,
          "durationTicks": 958,
          "midi": 61,
          "name": "C#4",
          "ticks": 28800,
          "time": 23.0769,
          "velocity": 0.8740157480314961
        },
        {
          "duration": 0.07692300000000074,
          "durationTicks": 96,
          "midi": 81,
          "name": "A5",
          "ticks": 29280,
          "time": 23.461515,
          "velocity": 0.47244094488188976
        },
        {
          "duration": 0.07692300000000074,
          "durationTicks": 96,
          "midi": 82,
          "name": "A#5",
          "ticks": 29400,
          "time": 23.557668749999998,
          "velocity": 0.47244094488188976
        },
        {
          "duration": 0.07692300000000074,
          "durationTicks": 96,
          "midi": 83,
          "name": "B5",
          "ticks": 29520,
          "time": 23.6538225,
          "velocity": 0.47244094488188976
        },
        {
          "duration": 0.07692300000000074,
          "durationTicks": 96,
          "midi": 84,
          "name": "C6",
          "ticks": 29640,
          "time": 23.74997625,
          "velocity": 0.47244094488188976
        },
        {
          "duration": 0.09455118749999869,
          "durationTicks": 118,
          "midi": 85,
          "name": "C#6",
          "ticks": 29760,
          "time": 23.84613,
          "velocity": 0.47244094488188976
        },
        {
          "duration": 0.09455118749999869,
          "durationTicks": 118,
          "midi": 84,
          "name": "C6",
          "ticks": 29880,
          "time": 23.942283749999998,
          "velocity": 0.47244094488188976
        },
        {
          "duration": 0.09455118749999869,
          "durationTicks": 118,
          "midi": 83,
          "name": "B5",
          "ticks": 30000,
          "time": 24.0384375,
          "velocity": 0.47244094488188976
        },
        {
          "duration": 0.09455118749999869,
          "durationTicks": 118,
          "midi": 82,
          "name": "A#5",
          "ticks": 30120,
          "time": 24.13459125,
          "velocity": 0.47244094488188976
        },
        {
          "duration": 0.19070493749999784,
          "durationTicks": 238,
          "midi": 81,
          "name": "A5",
          "ticks": 30240,
          "time": 24.230745,
          "velocity": 0.47244094488188976
        },
        {
          "duration": 0.15384600000000148,
          "durationTicks": 192,
          "midi": 54,
          "name": "F#3",
          "ticks": 30720,
          "time": 24.61536,
          "velocity": 0.47244094488188976
        },
        {
          "duration": 0.15384600000000148,
          "durationTicks": 192,
          "midi": 57,
          "name": "A3",
          "ticks": 30720,
          "time": 24.61536,
          "velocity": 0.47244094488188976
        },
        {
          "duration": 0.15384600000000148,
          "durationTicks": 192,
          "midi": 62,
          "name": "D4",
          "ticks": 30720,
          "time": 24.61536,
          "velocity": 0.47244094488188976
        },
        {
          "duration": 0.0769230000000043,
          "durationTicks": 96,
          "midi": 56,
          "name": "G#3",
          "ticks": 30960,
          "time": 24.807667499999997,
          "velocity": 0.47244094488188976
        },
        {
          "duration": 0.07692300000000074,
          "durationTicks": 96,
          "midi": 56,
          "name": "G#3",
          "ticks": 31200,
          "time": 24.999975,
          "velocity": 0.47244094488188976
        },
        {
          "duration": 0.0769230000000043,
          "durationTicks": 96,
          "midi": 56,
          "name": "G#3",
          "ticks": 31440,
          "time": 25.192282499999997,
          "velocity": 0.47244094488188976
        },
        {
          "duration": 0.15384600000000148,
          "durationTicks": 192,
          "midi": 57,
          "name": "A3",
          "ticks": 32640,
          "time": 26.15382,
          "velocity": 0.47244094488188976
        },
        {
          "duration": 0.07692300000000074,
          "durationTicks": 96,
          "midi": 73,
          "name": "C#5",
          "ticks": 32880,
          "time": 26.346127499999998,
          "velocity": 0.47244094488188976
        },
        {
          "duration": 0.07692300000000074,
          "durationTicks": 96,
          "midi": 73,
          "name": "C#5",
          "ticks": 33120,
          "time": 26.538435,
          "velocity": 0.47244094488188976
        },
        {
          "duration": 0.07692300000000074,
          "durationTicks": 96,
          "midi": 73,
          "name": "C#5",
          "ticks": 33360,
          "time": 26.730742499999998,
          "velocity": 0.47244094488188976
        },
        {
          "duration": 0.1907049375000014,
          "durationTicks": 238,
          "midi": 62,
          "name": "D4",
          "ticks": 35520,
          "time": 28.46151,
          "velocity": 0.4251968503937008
        },
        {
          "duration": 0.1907049375000014,
          "durationTicks": 238,
          "midi": 61,
          "name": "C#4",
          "ticks": 35760,
          "time": 28.6538175,
          "velocity": 0.5039370078740157
        },
        {
          "duration": 0.1907049375000014,
          "durationTicks": 238,
          "midi": 63,
          "name": "D#4",
          "ticks": 35760,
          "time": 28.6538175,
          "velocity": 0.5039370078740157
        },
        {
          "duration": 0.19070493750000495,
          "durationTicks": 238,
          "midi": 60,
          "name": "C4",
          "ticks": 36000,
          "time": 28.846124999999997,
          "velocity": 0.5748031496062992
        },
        {
          "duration": 0.19070493750000495,
          "durationTicks": 238,
          "midi": 64,
          "name": "E4",
          "ticks": 36000,
          "time": 28.846124999999997,
          "velocity": 0.5748031496062992
        },
        {
          "duration": 0.1907049375000014,
          "durationTicks": 238,
          "midi": 59,
          "name": "B3",
          "ticks": 36240,
          "time": 29.0384325,
          "velocity": 0.6456692913385826
        },
        {
          "duration": 0.1907049375000014,
          "durationTicks": 238,
          "midi": 65,
          "name": "F4",
          "ticks": 36240,
          "time": 29.0384325,
          "velocity": 0.6456692913385826
        },
        {
          "duration": 0.7676274375000034,
          "durationTicks": 958,
          "midi": 58,
          "name": "A#3",
          "ticks": 36480,
          "time": 29.230739999999997,
          "velocity": 0.8818897637795275
        },
        {
          "duration": 0.7676274375000034,
          "durationTicks": 958,
          "midi": 62,
          "name": "D4",
          "ticks": 36480,
          "time": 29.230739999999997,
          "velocity": 0.8818897637795275
        },
        {
          "duration": 0.7676274375000034,
          "durationTicks": 958,
          "midi": 66,
          "name": "F#4",
          "ticks": 36480,
          "time": 29.230739999999997,
          "velocity": 0.8818897637795275
        },
        {
          "duration": 0.09455118750000224,
          "durationTicks": 118,
          "midi": 86,
          "name": "D6",
          "ticks": 36960,
          "time": 29.615354999999997,
          "velocity": 0.47244094488188976
        },
        {
          "duration": 0.09455118749999869,
          "durationTicks": 118,
          "midi": 87,
          "name": "D#6",
          "ticks": 37080,
          "time": 29.71150875,
          "velocity": 0.47244094488188976
        },
        {
          "duration": 0.09455118750000224,
          "durationTicks": 118,
          "midi": 88,
          "name": "E6",
          "ticks": 37200,
          "time": 29.8076625,
          "velocity": 0.47244094488188976
        },
        {
          "duration": 0.09455118750000224,
          "durationTicks": 118,
          "midi": 89,
          "name": "F6",
          "ticks": 37320,
          "time": 29.90381625,
          "velocity": 0.47244094488188976
        },
        {
          "duration": 0.09455118750000224,
          "durationTicks": 118,
          "midi": 90,
          "name": "F#6",
          "ticks": 37440,
          "time": 29.999969999999998,
          "velocity": 0.47244094488188976
        },
        {
          "duration": 0.09455118749999869,
          "durationTicks": 118,
          "midi": 89,
          "name": "F6",
          "ticks": 37560,
          "time": 30.09612375,
          "velocity": 0.47244094488188976
        },
        {
          "duration": 0.09455118750000224,
          "durationTicks": 118,
          "midi": 88,
          "name": "E6",
          "ticks": 37680,
          "time": 30.1922775,
          "velocity": 0.47244094488188976
        },
        {
          "duration": 0.09455118750000224,
          "durationTicks": 118,
          "midi": 87,
          "name": "D#6",
          "ticks": 37800,
          "time": 30.28843125,
          "velocity": 0.47244094488188976
        },
        {
          "duration": 0.1907049375000014,
          "durationTicks": 238,
          "midi": 86,
          "name": "D6",
          "ticks": 37920,
          "time": 30.384584999999998,
          "velocity": 0.47244094488188976
        },
        {
          "duration": 0.15384600000000148,
          "durationTicks": 192,
          "midi": 55,
          "name": "G3",
          "ticks": 38400,
          "time": 30.769199999999998,
          "velocity": 0.47244094488188976
        },
        {
          "duration": 0.15384600000000148,
          "durationTicks": 192,
          "midi": 58,
          "name": "A#3",
          "ticks": 38400,
          "time": 30.769199999999998,
          "velocity": 0.47244094488188976
        },
        {
          "duration": 0.15384600000000148,
          "durationTicks": 192,
          "midi": 62,
          "name": "D4",
          "ticks": 38400,
          "time": 30.769199999999998,
          "velocity": 0.47244094488188976
        },
        {
          "duration": 0.15384600000000148,
          "durationTicks": 192,
          "midi": 67,
          "name": "G4",
          "ticks": 38400,
          "time": 30.769199999999998,
          "velocity": 0.47244094488188976
        },
        {
          "duration": 0.15384600000000148,
          "durationTicks": 192,
          "midi": 70,
          "name": "A#4",
          "ticks": 38880,
          "time": 31.153814999999998,
          "velocity": 0.47244094488188976
        },
        {
          "duration": 0.15384600000000148,
          "durationTicks": 192,
          "midi": 75,
          "name": "D#5",
          "ticks": 39120,
          "time": 31.3461225,
          "velocity": 0.47244094488188976
        },
        {
          "duration": 0.15384600000000148,
          "durationTicks": 192,
          "midi": 74,
          "name": "D5",
          "ticks": 39360,
          "time": 31.538429999999998,
          "velocity": 0.47244094488188976
        },
        {
          "duration": 0.15384600000000503,
          "durationTicks": 192,
          "midi": 72,
          "name": "C5",
          "ticks": 39840,
          "time": 31.923045,
          "velocity": 0.47244094488188976
        },
        {
          "duration": 0.15384600000000503,
          "durationTicks": 192,
          "midi": 75,
          "name": "D#5",
          "ticks": 39840,
          "time": 31.923045,
          "velocity": 0.47244094488188976
        },
        {
          "duration": 0.15384600000000503,
          "durationTicks": 192,
          "midi": 78,
          "name": "F#5",
          "ticks": 39840,
          "time": 31.923045,
          "velocity": 0.47244094488188976
        },
        {
          "duration": 0.15384600000000148,
          "durationTicks": 192,
          "midi": 70,
          "name": "A#4",
          "ticks": 40320,
          "time": 32.30766,
          "velocity": 0.44881889763779526
        },
        {
          "duration": 0.15384600000000148,
          "durationTicks": 192,
          "midi": 74,
          "name": "D5",
          "ticks": 40320,
          "time": 32.30766,
          "velocity": 0.44881889763779526
        },
        {
          "duration": 0.15384600000000148,
          "durationTicks": 192,
          "midi": 77,
          "name": "F5",
          "ticks": 40320,
          "time": 32.30766,
          "velocity": 0.44881889763779526
        },
        {
          "duration": 0.15384600000000148,
          "durationTicks": 192,
          "midi": 66,
          "name": "F#4",
          "ticks": 40800,
          "time": 32.692275,
          "velocity": 0.5196850393700787
        },
        {
          "duration": 0.15384600000000148,
          "durationTicks": 192,
          "midi": 72,
          "name": "C5",
          "ticks": 40800,
          "time": 32.692275,
          "velocity": 0.5196850393700787
        },
        {
          "duration": 0.15384600000000148,
          "durationTicks": 192,
          "midi": 75,
          "name": "D#5",
          "ticks": 40800,
          "time": 32.692275,
          "velocity": 0.5196850393700787
        },
        {
          "duration": 0.15384600000000148,
          "durationTicks": 192,
          "midi": 67,
          "name": "G4",
          "ticks": 41280,
          "time": 33.07689,
          "velocity": 0.5905511811023622
        },
        {
          "duration": 0.15384600000000148,
          "durationTicks": 192,
          "midi": 70,
          "name": "A#4",
          "ticks": 41280,
          "time": 33.07689,
          "velocity": 0.5905511811023622
        },
        {
          "duration": 0.15384600000000148,
          "durationTicks": 192,
          "midi": 74,
          "name": "D5",
          "ticks": 41280,
          "time": 33.07689,
          "velocity": 0.5905511811023622
        },
        {
          "duration": 0.12660243750000433,
          "durationTicks": 158,
          "midi": 65,
          "name": "F4",
          "ticks": 41760,
          "time": 33.461504999999995,
          "velocity": 0.6614173228346457
        },
        {
          "duration": 0.12660243750000433,
          "durationTicks": 158,
          "midi": 69,
          "name": "A4",
          "ticks": 41760,
          "time": 33.461504999999995,
          "velocity": 0.6614173228346457
        },
        {
          "duration": 0.12660243750000433,
          "durationTicks": 158,
          "midi": 73,
          "name": "C#5",
          "ticks": 41760,
          "time": 33.461504999999995,
          "velocity": 0.6614173228346457
        },
        {
          "duration": 0.12660243749999722,
          "durationTicks": 158,
          "midi": 74,
          "name": "D5",
          "ticks": 41920,
          "time": 33.58971,
          "velocity": 0.6850393700787402
        },
        {
          "duration": 0.12660243750000433,
          "durationTicks": 158,
          "midi": 75,
          "name": "D#5",
          "ticks": 42080,
          "time": 33.717915,
          "velocity": 0.7007874015748031
        },
        {
          "duration": 0.1907049375000014,
          "durationTicks": 238,
          "midi": 64,
          "name": "E4",
          "ticks": 42240,
          "time": 33.84612,
          "velocity": 0.7086614173228346
        },
        {
          "duration": 0.1907049375000014,
          "durationTicks": 238,
          "midi": 68,
          "name": "G#4",
          "ticks": 42240,
          "time": 33.84612,
          "velocity": 0.7086614173228346
        },
        {
          "duration": 0.1907049375000014,
          "durationTicks": 238,
          "midi": 76,
          "name": "E5",
          "ticks": 42240,
          "time": 33.84612,
          "velocity": 0.7086614173228346
        },
        {
          "duration": 0.09455118750000224,
          "durationTicks": 118,
          "midi": 76,
          "name": "E5",
          "ticks": 42720,
          "time": 34.230734999999996,
          "velocity": 0.7086614173228346
        },
        {
          "duration": 0.09455118749999514,
          "durationTicks": 118,
          "midi": 77,
          "name": "F5",
          "ticks": 42840,
          "time": 34.32688875,
          "velocity": 0.7086614173228346
        },
        {
          "duration": 0.09455118750000224,
          "durationTicks": 118,
          "midi": 76,
          "name": "E5",
          "ticks": 42960,
          "time": 34.4230425,
          "velocity": 0.7086614173228346
        },
        {
          "duration": 0.09455118750000224,
          "durationTicks": 118,
          "midi": 77,
          "name": "F5",
          "ticks": 43080,
          "time": 34.51919625,
          "velocity": 0.7086614173228346
        },
        {
          "duration": 0.09455118750000224,
          "durationTicks": 118,
          "midi": 76,
          "name": "E5",
          "ticks": 43200,
          "time": 34.61535,
          "velocity": 0.7086614173228346
        },
        {
          "duration": 0.09455118750000224,
          "durationTicks": 118,
          "midi": 77,
          "name": "F5",
          "ticks": 43320,
          "time": 34.71150375,
          "velocity": 0.7086614173228346
        },
        {
          "duration": 0.09455118750000224,
          "durationTicks": 118,
          "midi": 76,
          "name": "E5",
          "ticks": 43440,
          "time": 34.8076575,
          "velocity": 0.7086614173228346
        },
        {
          "duration": 0.09455118750000224,
          "durationTicks": 118,
          "midi": 77,
          "name": "F5",
          "ticks": 43560,
          "time": 34.90381125,
          "velocity": 0.7086614173228346
        },
        {
          "duration": 0.09455118750000224,
          "durationTicks": 118,
          "midi": 76,
          "name": "E5",
          "ticks": 43680,
          "time": 34.999964999999996,
          "velocity": 0.7086614173228346
        },
        {
          "duration": 0.09455118750000224,
          "durationTicks": 118,
          "midi": 77,
          "name": "F5",
          "ticks": 43800,
          "time": 35.096118749999995,
          "velocity": 0.7086614173228346
        },
        {
          "duration": 0.09455118749999514,
          "durationTicks": 118,
          "midi": 76,
          "name": "E5",
          "ticks": 43920,
          "time": 35.1922725,
          "velocity": 0.7086614173228346
        },
        {
          "duration": 0.09455118750000224,
          "durationTicks": 118,
          "midi": 77,
          "name": "F5",
          "ticks": 44040,
          "time": 35.28842625,
          "velocity": 0.7086614173228346
        },
        {
          "duration": 0.06089737500000325,
          "durationTicks": 76,
          "midi": 64,
          "name": "E4",
          "ticks": 44640,
          "time": 35.769194999999996,
          "velocity": 0.7086614173228346
        },
        {
          "duration": 0.060897374999996146,
          "durationTicks": 76,
          "midi": 60,
          "name": "C4",
          "ticks": 44880,
          "time": 35.9615025,
          "velocity": 0.7086614173228346
        },
        {
          "duration": 0.060897374999996146,
          "durationTicks": 76,
          "midi": 57,
          "name": "A3",
          "ticks": 45120,
          "time": 36.15381,
          "velocity": 0.7086614173228346
        },
        {
          "duration": 0.060897374999996146,
          "durationTicks": 76,
          "midi": 53,
          "name": "F3",
          "ticks": 45360,
          "time": 36.3461175,
          "velocity": 0.7086614173228346
        },
        {
          "duration": 0.06089737500000325,
          "durationTicks": 76,
          "midi": 57,
          "name": "A3",
          "ticks": 45600,
          "time": 36.538425,
          "velocity": 0.7086614173228346
        },
        {
          "duration": 0.060897374999996146,
          "durationTicks": 76,
          "midi": 60,
          "name": "C4",
          "ticks": 45840,
          "time": 36.7307325,
          "velocity": 0.7086614173228346
        },
        {
          "duration": 0.30769199999999586,
          "durationTicks": 384,
          "midi": 64,
          "name": "E4",
          "ticks": 46080,
          "time": 36.92304,
          "velocity": 0.7086614173228346
        },
        {
          "duration": 0.06089737500000325,
          "durationTicks": 76,
          "midi": 40,
          "name": "E2",
          "ticks": 46560,
          "time": 37.307655,
          "velocity": 0.7322834645669292
        },
        {
          "duration": 0.06089737500000325,
          "durationTicks": 76,
          "midi": 52,
          "name": "E3",
          "ticks": 46560,
          "time": 37.307655,
          "velocity": 0.7322834645669292
        },
        {
          "duration": 0.06089737500000325,
          "durationTicks": 76,
          "midi": 36,
          "name": "C2",
          "ticks": 46800,
          "time": 37.499962499999995,
          "velocity": 0.7165354330708661
        },
        {
          "duration": 0.06089737500000325,
          "durationTicks": 76,
          "midi": 48,
          "name": "C3",
          "ticks": 46800,
          "time": 37.499962499999995,
          "velocity": 0.7165354330708661
        },
        {
          "duration": 0.060897374999996146,
          "durationTicks": 76,
          "midi": 33,
          "name": "A1",
          "ticks": 47040,
          "time": 37.69227,
          "velocity": 0.6929133858267716
        },
        {
          "duration": 0.060897374999996146,
          "durationTicks": 76,
          "midi": 45,
          "name": "A2",
          "ticks": 47040,
          "time": 37.69227,
          "velocity": 0.6929133858267716
        },
        {
          "duration": 0.060897374999996146,
          "durationTicks": 76,
          "midi": 29,
          "name": "F1",
          "ticks": 47280,
          "time": 37.8845775,
          "velocity": 0.6771653543307087
        },
        {
          "duration": 0.060897374999996146,
          "durationTicks": 76,
          "midi": 41,
          "name": "F2",
          "ticks": 47280,
          "time": 37.8845775,
          "velocity": 0.6771653543307087
        },
        {
          "duration": 0.06089737500000325,
          "durationTicks": 76,
          "midi": 33,
          "name": "A1",
          "ticks": 47520,
          "time": 38.076885,
          "velocity": 0.6614173228346457
        },
        {
          "duration": 0.06089737500000325,
          "durationTicks": 76,
          "midi": 45,
          "name": "A2",
          "ticks": 47520,
          "time": 38.076885,
          "velocity": 0.6614173228346457
        },
        {
          "duration": 0.06089737500000325,
          "durationTicks": 76,
          "midi": 36,
          "name": "C2",
          "ticks": 47760,
          "time": 38.269192499999996,
          "velocity": 0.6377952755905512
        },
        {
          "duration": 0.06089737500000325,
          "durationTicks": 76,
          "midi": 48,
          "name": "C3",
          "ticks": 47760,
          "time": 38.269192499999996,
          "velocity": 0.6377952755905512
        },
        {
          "duration": 0.15384600000000148,
          "durationTicks": 192,
          "midi": 40,
          "name": "E2",
          "ticks": 48000,
          "time": 38.4615,
          "velocity": 0.6220472440944882
        },
        {
          "duration": 0.15384600000000148,
          "durationTicks": 192,
          "midi": 52,
          "name": "E3",
          "ticks": 48000,
          "time": 38.4615,
          "velocity": 0.6220472440944882
        },
        {
          "duration": 0.07692300000000074,
          "durationTicks": 96,
          "midi": 60,
          "name": "C4",
          "ticks": 48960,
          "time": 39.23073,
          "velocity": 0.5433070866141733
        },
        {
          "duration": 0.07692300000000074,
          "durationTicks": 96,
          "midi": 59,
          "name": "B3",
          "ticks": 49080,
          "time": 39.32688375,
          "velocity": 0.5275590551181102
        },
        {
          "duration": 0.07692300000000074,
          "durationTicks": 96,
          "midi": 58,
          "name": "A#3",
          "ticks": 49200,
          "time": 39.4230375,
          "velocity": 0.5196850393700787
        },
        {
          "duration": 0.07692300000000074,
          "durationTicks": 96,
          "midi": 57,
          "name": "A3",
          "ticks": 49320,
          "time": 39.51919125,
          "velocity": 0.5118110236220472
        },
        {
          "duration": 0.07692300000000074,
          "durationTicks": 96,
          "midi": 56,
          "name": "G#3",
          "ticks": 49440,
          "time": 39.615345,
          "velocity": 0.5039370078740157
        },
        {
          "duration": 0.07692300000000074,
          "durationTicks": 96,
          "midi": 55,
          "name": "G3",
          "ticks": 49560,
          "time": 39.71149875,
          "velocity": 0.4881889763779528
        },
        {
          "duration": 0.07692300000000074,
          "durationTicks": 96,
          "midi": 54,
          "name": "F#3",
          "ticks": 49680,
          "time": 39.807652499999996,
          "velocity": 0.48031496062992124
        },
        {
          "duration": 0.07692300000000074,
          "durationTicks": 96,
          "midi": 53,
          "name": "F3",
          "ticks": 49800,
          "time": 39.903806249999995,
          "velocity": 0.47244094488188976
        },
        {
          "duration": 0.09455118749999514,
          "durationTicks": 118,
          "midi": 52,
          "name": "E3",
          "ticks": 49920,
          "time": 39.99996,
          "velocity": 0.6299212598425197
        },
        {
          "duration": 0.09455118750000224,
          "durationTicks": 118,
          "midi": 53,
          "name": "F3",
          "ticks": 50040,
          "time": 40.09611375,
          "velocity": 0.47244094488188976
        },
        {
          "duration": 0.09455118750000224,
          "durationTicks": 118,
          "midi": 52,
          "name": "E3",
          "ticks": 50160,
          "time": 40.1922675,
          "velocity": 0.47244094488188976
        },
        {
          "duration": 0.09455118750000224,
          "durationTicks": 118,
          "midi": 51,
          "name": "D#3",
          "ticks": 50280,
          "time": 40.28842125,
          "velocity": 0.47244094488188976
        },
        {
          "duration": 0.09455118750000224,
          "durationTicks": 118,
          "midi": 52,
          "name": "E3",
          "ticks": 50400,
          "time": 40.384575,
          "velocity": 0.6299212598425197
        },
        {
          "duration": 0.09455118750000224,
          "durationTicks": 118,
          "midi": 53,
          "name": "F3",
          "ticks": 50520,
          "time": 40.48072875,
          "velocity": 0.47244094488188976
        },
        {
          "duration": 0.09455118750000224,
          "durationTicks": 118,
          "midi": 52,
          "name": "E3",
          "ticks": 50640,
          "time": 40.576882499999996,
          "velocity": 0.47244094488188976
        },
        {
          "duration": 0.09455118750000224,
          "durationTicks": 118,
          "midi": 51,
          "name": "D#3",
          "ticks": 50760,
          "time": 40.673036249999996,
          "velocity": 0.47244094488188976
        },
        {
          "duration": 0.09455118749999514,
          "durationTicks": 118,
          "midi": 52,
          "name": "E3",
          "ticks": 50880,
          "time": 40.76919,
          "velocity": 0.6299212598425197
        },
        {
          "duration": 0.09455118750000224,
          "durationTicks": 118,
          "midi": 53,
          "name": "F3",
          "ticks": 51000,
          "time": 40.86534375,
          "velocity": 0.47244094488188976
        },
        {
          "duration": 0.09455118750000224,
          "durationTicks": 118,
          "midi": 52,
          "name": "E3",
          "ticks": 51120,
          "time": 40.9614975,
          "velocity": 0.47244094488188976
        },
        {
          "duration": 0.09455118750000224,
          "durationTicks": 118,
          "midi": 51,
          "name": "D#3",
          "ticks": 51240,
          "time": 41.05765125,
          "velocity": 0.47244094488188976
        },
        {
          "duration": 0.09455118750000224,
          "durationTicks": 118,
          "midi": 52,
          "name": "E3",
          "ticks": 51360,
          "time": 41.153805,
          "velocity": 0.6299212598425197
        },
        {
          "duration": 0.09455118750000224,
          "durationTicks": 118,
          "midi": 53,
          "name": "F3",
          "ticks": 51480,
          "time": 41.24995875,
          "velocity": 0.47244094488188976
        },
        {
          "duration": 0.09455118750000224,
          "durationTicks": 118,
          "midi": 52,
          "name": "E3",
          "ticks": 51600,
          "time": 41.3461125,
          "velocity": 0.47244094488188976
        },
        {
          "duration": 0.09455118750000224,
          "durationTicks": 118,
          "midi": 51,
          "name": "D#3",
          "ticks": 51720,
          "time": 41.442266249999996,
          "velocity": 0.47244094488188976
        },
        {
          "duration": 0.09455118750000224,
          "durationTicks": 118,
          "midi": 52,
          "name": "E3",
          "ticks": 51840,
          "time": 41.538419999999995,
          "velocity": 0.6299212598425197
        },
        {
          "duration": 0.09455118749999514,
          "durationTicks": 118,
          "midi": 53,
          "name": "F3",
          "ticks": 51960,
          "time": 41.63457375,
          "velocity": 0.47244094488188976
        },
        {
          "duration": 0.09455118750000224,
          "durationTicks": 118,
          "midi": 52,
          "name": "E3",
          "ticks": 52080,
          "time": 41.7307275,
          "velocity": 0.47244094488188976
        },
        {
          "duration": 0.09455118750000224,
          "durationTicks": 118,
          "midi": 51,
          "name": "D#3",
          "ticks": 52200,
          "time": 41.82688125,
          "velocity": 0.47244094488188976
        },
        {
          "duration": 0.09455118750000224,
          "durationTicks": 118,
          "midi": 52,
          "name": "E3",
          "ticks": 52320,
          "time": 41.923035,
          "velocity": 0.6299212598425197
        },
        {
          "duration": 0.09455118750000224,
          "durationTicks": 118,
          "midi": 53,
          "name": "F3",
          "ticks": 52440,
          "time": 42.01918875,
          "velocity": 0.47244094488188976
        },
        {
          "duration": 0.09455118750000224,
          "durationTicks": 118,
          "midi": 52,
          "name": "E3",
          "ticks": 52560,
          "time": 42.1153425,
          "velocity": 0.47244094488188976
        },
        {
          "duration": 0.09455118750000224,
          "durationTicks": 118,
          "midi": 51,
          "name": "D#3",
          "ticks": 52680,
          "time": 42.211496249999996,
          "velocity": 0.47244094488188976
        },
        {
          "duration": 0.09455118750000224,
          "durationTicks": 118,
          "midi": 52,
          "name": "E3",
          "ticks": 52800,
          "time": 42.307649999999995,
          "velocity": 0.6299212598425197
        },
        {
          "duration": 0.09455118749999514,
          "durationTicks": 118,
          "midi": 53,
          "name": "F3",
          "ticks": 52920,
          "time": 42.40380375,
          "velocity": 0.47244094488188976
        },
        {
          "duration": 0.09455118750000224,
          "durationTicks": 118,
          "midi": 52,
          "name": "E3",
          "ticks": 53040,
          "time": 42.4999575,
          "velocity": 0.47244094488188976
        },
        {
          "duration": 0.09455118750000224,
          "durationTicks": 118,
          "midi": 51,
          "name": "D#3",
          "ticks": 53160,
          "time": 42.59611125,
          "velocity": 0.47244094488188976
        },
        {
          "duration": 0.09455118750000224,
          "durationTicks": 118,
          "midi": 52,
          "name": "E3",
          "ticks": 53280,
          "time": 42.692265,
          "velocity": 0.6299212598425197
        },
        {
          "duration": 0.09455118750000224,
          "durationTicks": 118,
          "midi": 53,
          "name": "F3",
          "ticks": 53400,
          "time": 42.78841875,
          "velocity": 0.47244094488188976
        },
        {
          "duration": 0.09455118750000224,
          "durationTicks": 118,
          "midi": 52,
          "name": "E3",
          "ticks": 53520,
          "time": 42.8845725,
          "velocity": 0.47244094488188976
        },
        {
          "duration": 0.09455118750000224,
          "durationTicks": 118,
          "midi": 51,
          "name": "D#3",
          "ticks": 53640,
          "time": 42.98072625,
          "velocity": 0.47244094488188976
        },
        {
          "duration": 0.09455118750000224,
          "durationTicks": 118,
          "midi": 52,
          "name": "E3",
          "ticks": 53760,
          "time": 43.076879999999996,
          "velocity": 0.6299212598425197
        },
        {
          "duration": 0.09455118750000224,
          "durationTicks": 118,
          "midi": 53,
          "name": "F3",
          "ticks": 53880,
          "time": 43.173033749999995,
          "velocity": 0.47244094488188976
        },
        {
          "duration": 0.09455118750000224,
          "durationTicks": 118,
          "midi": 52,
          "name": "E3",
          "ticks": 54000,
          "time": 43.2691875,
          "velocity": 0.47244094488188976
        },
        {
          "duration": 0.09455118750000224,
          "durationTicks": 118,
          "midi": 51,
          "name": "D#3",
          "ticks": 54120,
          "time": 43.36534125,
          "velocity": 0.47244094488188976
        },
        {
          "duration": 0.09455118750000224,
          "durationTicks": 118,
          "midi": 52,
          "name": "E3",
          "ticks": 54240,
          "time": 43.461495,
          "velocity": 0.6299212598425197
        },
        {
          "duration": 0.09455118750000224,
          "durationTicks": 118,
          "midi": 53,
          "name": "F3",
          "ticks": 54360,
          "time": 43.55764875,
          "velocity": 0.47244094488188976
        },
        {
          "duration": 0.09455118750000224,
          "durationTicks": 118,
          "midi": 52,
          "name": "E3",
          "ticks": 54480,
          "time": 43.6538025,
          "velocity": 0.47244094488188976
        },
        {
          "duration": 0.09455118750000224,
          "durationTicks": 118,
          "midi": 51,
          "name": "D#3",
          "ticks": 54600,
          "time": 43.74995625,
          "velocity": 0.47244094488188976
        },
        {
          "duration": 0.09455118750000224,
          "durationTicks": 118,
          "midi": 52,
          "name": "E3",
          "ticks": 54720,
          "time": 43.846109999999996,
          "velocity": 0.6299212598425197
        },
        {
          "duration": 0.09455118750000224,
          "durationTicks": 118,
          "midi": 53,
          "name": "F3",
          "ticks": 54840,
          "time": 43.942263749999995,
          "velocity": 0.47244094488188976
        },
        {
          "duration": 0.09455118749999514,
          "durationTicks": 118,
          "midi": 52,
          "name": "E3",
          "ticks": 54960,
          "time": 44.0384175,
          "velocity": 0.47244094488188976
        },
        {
          "duration": 0.09455118750000224,
          "durationTicks": 118,
          "midi": 51,
          "name": "D#3",
          "ticks": 55080,
          "time": 44.13457125,
          "velocity": 0.47244094488188976
        },
        {
          "duration": 0.09455118750000224,
          "durationTicks": 118,
          "midi": 52,
          "name": "E3",
          "ticks": 55200,
          "time": 44.230725,
          "velocity": 0.6299212598425197
        },
        {
          "duration": 0.09455118750000224,
          "durationTicks": 118,
          "midi": 53,
          "name": "F3",
          "ticks": 55320,
          "time": 44.32687875,
          "velocity": 0.47244094488188976
        },
        {
          "duration": 0.09455118750000224,
          "durationTicks": 118,
          "midi": 52,
          "name": "E3",
          "ticks": 55440,
          "time": 44.4230325,
          "velocity": 0.47244094488188976
        },
        {
          "duration": 0.09455118750000224,
          "durationTicks": 118,
          "midi": 51,
          "name": "D#3",
          "ticks": 55560,
          "time": 44.51918625,
          "velocity": 0.47244094488188976
        },
        {
          "duration": 0.09455118750000224,
          "durationTicks": 118,
          "midi": 52,
          "name": "E3",
          "ticks": 55680,
          "time": 44.615339999999996,
          "velocity": 0.6299212598425197
        },
        {
          "duration": 0.09455118750000224,
          "durationTicks": 118,
          "midi": 53,
          "name": "F3",
          "ticks": 55800,
          "time": 44.711493749999995,
          "velocity": 0.47244094488188976
        },
        {
          "duration": 0.09455118749999514,
          "durationTicks": 118,
          "midi": 52,
          "name": "E3",
          "ticks": 55920,
          "time": 44.8076475,
          "velocity": 0.47244094488188976
        },
        {
          "duration": 0.09455118750000224,
          "durationTicks": 118,
          "midi": 51,
          "name": "D#3",
          "ticks": 56040,
          "time": 44.90380125,
          "velocity": 0.47244094488188976
        },
        {
          "duration": 0.1907049375000014,
          "durationTicks": 238,
          "midi": 52,
          "name": "E3",
          "ticks": 56160,
          "time": 44.999955,
          "velocity": 0.47244094488188976
        },
        {
          "duration": 0.15384600000000148,
          "durationTicks": 192,
          "midi": 60,
          "name": "C4",
          "ticks": 56640,
          "time": 45.38457,
          "velocity": 0.47244094488188976
        },
        {
          "duration": 0.15384600000000148,
          "durationTicks": 192,
          "midi": 65,
          "name": "F4",
          "ticks": 56640,
          "time": 45.38457,
          "velocity": 0.47244094488188976
        },
        {
          "duration": 0.15384600000000148,
          "durationTicks": 192,
          "midi": 64,
          "name": "E4",
          "ticks": 57120,
          "time": 45.769185,
          "velocity": 0.47244094488188976
        },
        {
          "duration": 0.15384600000000148,
          "durationTicks": 192,
          "midi": 68,
          "name": "G#4",
          "ticks": 57120,
          "time": 45.769185,
          "velocity": 0.47244094488188976
        },
        {
          "duration": 0.15384600000000148,
          "durationTicks": 192,
          "midi": 67,
          "name": "G4",
          "ticks": 57600,
          "time": 46.1538,
          "velocity": 0.47244094488188976
        },
        {
          "duration": 0.15384600000000148,
          "durationTicks": 192,
          "midi": 72,
          "name": "C5",
          "ticks": 57600,
          "time": 46.1538,
          "velocity": 0.47244094488188976
        },
        {
          "duration": 0.15384600000000148,
          "durationTicks": 192,
          "midi": 72,
          "name": "C5",
          "ticks": 58080,
          "time": 46.538415,
          "velocity": 0.47244094488188976
        },
        {
          "duration": 0.15384600000000148,
          "durationTicks": 192,
          "midi": 77,
          "name": "F5",
          "ticks": 58080,
          "time": 46.538415,
          "velocity": 0.47244094488188976
        },
        {
          "duration": 0.15384600000000148,
          "durationTicks": 192,
          "midi": 75,
          "name": "D#5",
          "ticks": 58560,
          "time": 46.92303,
          "velocity": 0.47244094488188976
        },
        {
          "duration": 0.15384600000000148,
          "durationTicks": 192,
          "midi": 80,
          "name": "G#5",
          "ticks": 58560,
          "time": 46.92303,
          "velocity": 0.47244094488188976
        },
        {
          "duration": 0.15384600000000148,
          "durationTicks": 192,
          "midi": 76,
          "name": "E5",
          "ticks": 59040,
          "time": 47.307645,
          "velocity": 0.47244094488188976
        },
        {
          "duration": 0.15384600000000148,
          "durationTicks": 192,
          "midi": 80,
          "name": "G#5",
          "ticks": 59040,
          "time": 47.307645,
          "velocity": 0.47244094488188976
        },
        {
          "duration": 0.15384600000000148,
          "durationTicks": 192,
          "midi": 84,
          "name": "C6",
          "ticks": 59040,
          "time": 47.307645,
          "velocity": 0.47244094488188976
        },
        {
          "duration": 0.15384600000000148,
          "durationTicks": 192,
          "midi": 57,
          "name": "A3",
          "ticks": 59520,
          "time": 47.69226,
          "velocity": 0.3937007874015748
        },
        {
          "duration": 0.15384600000000148,
          "durationTicks": 192,
          "midi": 60,
          "name": "C4",
          "ticks": 59520,
          "time": 47.69226,
          "velocity": 0.3937007874015748
        },
        {
          "duration": 0.15384600000000148,
          "durationTicks": 192,
          "midi": 64,
          "name": "E4",
          "ticks": 59520,
          "time": 47.69226,
          "velocity": 0.3937007874015748
        },
        {
          "duration": 0.15384600000000148,
          "durationTicks": 192,
          "midi": 69,
          "name": "A4",
          "ticks": 59520,
          "time": 47.69226,
          "velocity": 0.3937007874015748
        },
        {
          "duration": 0.15384600000000148,
          "durationTicks": 192,
          "midi": 57,
          "name": "A3",
          "ticks": 60480,
          "time": 48.46149,
          "velocity": 0.3937007874015748
        },
        {
          "duration": 0.15384600000000148,
          "durationTicks": 192,
          "midi": 60,
          "name": "C4",
          "ticks": 60480,
          "time": 48.46149,
          "velocity": 0.3937007874015748
        },
        {
          "duration": 0.15384600000000148,
          "durationTicks": 192,
          "midi": 64,
          "name": "E4",
          "ticks": 60480,
          "time": 48.46149,
          "velocity": 0.3937007874015748
        },
        {
          "duration": 0.15384600000000148,
          "durationTicks": 192,
          "midi": 69,
          "name": "A4",
          "ticks": 60480,
          "time": 48.46149,
          "velocity": 0.3937007874015748
        },
        {
          "duration": 0.15384600000000148,
          "durationTicks": 192,
          "midi": 54,
          "name": "F#3",
          "ticks": 60960,
          "time": 48.846105,
          "velocity": 0.3937007874015748
        },
        {
          "duration": 0.15384600000000148,
          "durationTicks": 192,
          "midi": 57,
          "name": "A3",
          "ticks": 60960,
          "time": 48.846105,
          "velocity": 0.3937007874015748
        },
        {
          "duration": 0.15384600000000148,
          "durationTicks": 192,
          "midi": 62,
          "name": "D4",
          "ticks": 60960,
          "time": 48.846105,
          "velocity": 0.3937007874015748
        },
        {
          "duration": 0.15384600000000148,
          "durationTicks": 192,
          "midi": 69,
          "name": "A4",
          "ticks": 60960,
          "time": 48.846105,
          "velocity": 0.3937007874015748
        },
        {
          "duration": 0.15384600000000148,
          "durationTicks": 192,
          "midi": 57,
          "name": "A3",
          "ticks": 61440,
          "time": 49.23072,
          "velocity": 0.3937007874015748
        },
        {
          "duration": 0.15384600000000148,
          "durationTicks": 192,
          "midi": 60,
          "name": "C4",
          "ticks": 61440,
          "time": 49.23072,
          "velocity": 0.3937007874015748
        },
        {
          "duration": 0.15384600000000148,
          "durationTicks": 192,
          "midi": 64,
          "name": "E4",
          "ticks": 61440,
          "time": 49.23072,
          "velocity": 0.3937007874015748
        },
        {
          "duration": 0.15384600000000148,
          "durationTicks": 192,
          "midi": 69,
          "name": "A4",
          "ticks": 61440,
          "time": 49.23072,
          "velocity": 0.3937007874015748
        },
        {
          "duration": 0.15384600000000148,
          "durationTicks": 192,
          "midi": 57,
          "name": "A3",
          "ticks": 62400,
          "time": 49.99995,
          "velocity": 0.3937007874015748
        },
        {
          "duration": 0.15384600000000148,
          "durationTicks": 192,
          "midi": 60,
          "name": "C4",
          "ticks": 62400,
          "time": 49.99995,
          "velocity": 0.3937007874015748
        },
        {
          "duration": 0.15384600000000148,
          "durationTicks": 192,
          "midi": 64,
          "name": "E4",
          "ticks": 62400,
          "time": 49.99995,
          "velocity": 0.3937007874015748
        },
        {
          "duration": 0.15384600000000148,
          "durationTicks": 192,
          "midi": 69,
          "name": "A4",
          "ticks": 62400,
          "time": 49.99995,
          "velocity": 0.3937007874015748
        },
        {
          "duration": 0.1538460000000086,
          "durationTicks": 192,
          "midi": 54,
          "name": "F#3",
          "ticks": 62880,
          "time": 50.384564999999995,
          "velocity": 0.3937007874015748
        },
        {
          "duration": 0.1538460000000086,
          "durationTicks": 192,
          "midi": 57,
          "name": "A3",
          "ticks": 62880,
          "time": 50.384564999999995,
          "velocity": 0.3937007874015748
        },
        {
          "duration": 0.1538460000000086,
          "durationTicks": 192,
          "midi": 62,
          "name": "D4",
          "ticks": 62880,
          "time": 50.384564999999995,
          "velocity": 0.3937007874015748
        },
        {
          "duration": 0.1538460000000086,
          "durationTicks": 192,
          "midi": 69,
          "name": "A4",
          "ticks": 62880,
          "time": 50.384564999999995,
          "velocity": 0.3937007874015748
        },
        {
          "duration": 0.15384600000000148,
          "durationTicks": 192,
          "midi": 57,
          "name": "A3",
          "ticks": 63360,
          "time": 50.76918,
          "velocity": 0.3937007874015748
        },
        {
          "duration": 0.15384600000000148,
          "durationTicks": 192,
          "midi": 60,
          "name": "C4",
          "ticks": 63360,
          "time": 50.76918,
          "velocity": 0.3937007874015748
        },
        {
          "duration": 0.15384600000000148,
          "durationTicks": 192,
          "midi": 64,
          "name": "E4",
          "ticks": 63360,
          "time": 50.76918,
          "velocity": 0.3937007874015748
        },
        {
          "duration": 0.15384600000000148,
          "durationTicks": 192,
          "midi": 69,
          "name": "A4",
          "ticks": 63360,
          "time": 50.76918,
          "velocity": 0.3937007874015748
        },
        {
          "duration": 0.15384600000000148,
          "durationTicks": 192,
          "midi": 53,
          "name": "F3",
          "ticks": 63840,
          "time": 51.153794999999995,
          "velocity": 0.4015748031496063
        },
        {
          "duration": 0.15384600000000148,
          "durationTicks": 192,
          "midi": 57,
          "name": "A3",
          "ticks": 63840,
          "time": 51.153794999999995,
          "velocity": 0.4015748031496063
        },
        {
          "duration": 0.15384600000000148,
          "durationTicks": 192,
          "midi": 62,
          "name": "D4",
          "ticks": 63840,
          "time": 51.153794999999995,
          "velocity": 0.4015748031496063
        },
        {
          "duration": 0.15384600000000148,
          "durationTicks": 192,
          "midi": 52,
          "name": "E3",
          "ticks": 64320,
          "time": 51.53841,
          "velocity": 0.4409448818897638
        },
        {
          "duration": 0.15384600000000148,
          "durationTicks": 192,
          "midi": 57,
          "name": "A3",
          "ticks": 64320,
          "time": 51.53841,
          "velocity": 0.4409448818897638
        },
        {
          "duration": 0.15384600000000148,
          "durationTicks": 192,
          "midi": 60,
          "name": "C4",
          "ticks": 64320,
          "time": 51.53841,
          "velocity": 0.4409448818897638
        },
        {
          "duration": 0.15384600000000148,
          "durationTicks": 192,
          "midi": 50,
          "name": "D3",
          "ticks": 64800,
          "time": 51.923024999999996,
          "velocity": 0.48031496062992124
        },
        {
          "duration": 0.15384600000000148,
          "durationTicks": 192,
          "midi": 52,
          "name": "E3",
          "ticks": 64800,
          "time": 51.923024999999996,
          "velocity": 0.48031496062992124
        },
        {
          "duration": 0.15384600000000148,
          "durationTicks": 192,
          "midi": 59,
          "name": "B3",
          "ticks": 64800,
          "time": 51.923024999999996,
          "velocity": 0.48031496062992124
        },
        {
          "duration": 0.15384600000000148,
          "durationTicks": 192,
          "midi": 48,
          "name": "C3",
          "ticks": 65280,
          "time": 52.30764,
          "velocity": 0.5196850393700787
        },
        {
          "duration": 0.15384600000000148,
          "durationTicks": 192,
          "midi": 52,
          "name": "E3",
          "ticks": 65280,
          "time": 52.30764,
          "velocity": 0.5196850393700787
        },
        {
          "duration": 0.15384600000000148,
          "durationTicks": 192,
          "midi": 57,
          "name": "A3",
          "ticks": 65280,
          "time": 52.30764,
          "velocity": 0.5196850393700787
        },
        {
          "duration": 0.15384600000000148,
          "durationTicks": 192,
          "midi": 41,
          "name": "F2",
          "ticks": 65760,
          "time": 52.692254999999996,
          "velocity": 0.5669291338582677
        },
        {
          "duration": 0.15384600000000148,
          "durationTicks": 192,
          "midi": 45,
          "name": "A2",
          "ticks": 65760,
          "time": 52.692254999999996,
          "velocity": 0.5669291338582677
        },
        {
          "duration": 0.15384600000000148,
          "durationTicks": 192,
          "midi": 50,
          "name": "D3",
          "ticks": 65760,
          "time": 52.692254999999996,
          "velocity": 0.5669291338582677
        },
        {
          "duration": 0.15384600000000148,
          "durationTicks": 192,
          "midi": 40,
          "name": "E2",
          "ticks": 66240,
          "time": 53.07687,
          "velocity": 0.5039370078740157
        },
        {
          "duration": 0.15384600000000148,
          "durationTicks": 192,
          "midi": 45,
          "name": "A2",
          "ticks": 66240,
          "time": 53.07687,
          "velocity": 0.5039370078740157
        },
        {
          "duration": 0.15384600000000148,
          "durationTicks": 192,
          "midi": 48,
          "name": "C3",
          "ticks": 66240,
          "time": 53.07687,
          "velocity": 0.5039370078740157
        },
        {
          "duration": 0.15384600000000148,
          "durationTicks": 192,
          "midi": 38,
          "name": "D2",
          "ticks": 66720,
          "time": 53.461484999999996,
          "velocity": 0.44881889763779526
        },
        {
          "duration": 0.15384600000000148,
          "durationTicks": 192,
          "midi": 40,
          "name": "E2",
          "ticks": 66720,
          "time": 53.461484999999996,
          "velocity": 0.44881889763779526
        },
        {
          "duration": 0.15384600000000148,
          "durationTicks": 192,
          "midi": 47,
          "name": "B2",
          "ticks": 66720,
          "time": 53.461484999999996,
          "velocity": 0.44881889763779526
        },
        {
          "duration": 0.15384600000000148,
          "durationTicks": 192,
          "midi": 37,
          "name": "C#2",
          "ticks": 67200,
          "time": 53.8461,
          "velocity": 0.3937007874015748
        },
        {
          "duration": 0.15384600000000148,
          "durationTicks": 192,
          "midi": 45,
          "name": "A2",
          "ticks": 67200,
          "time": 53.8461,
          "velocity": 0.3937007874015748
        },
        {
          "duration": 0.15384600000000148,
          "durationTicks": 192,
          "midi": 52,
          "name": "E3",
          "ticks": 67200,
          "time": 53.8461,
          "velocity": 0.3937007874015748
        },
        {
          "duration": 0.15384600000000148,
          "durationTicks": 192,
          "midi": 38,
          "name": "D2",
          "ticks": 67680,
          "time": 54.230715,
          "velocity": 0.3937007874015748
        },
        {
          "duration": 0.15384600000000148,
          "durationTicks": 192,
          "midi": 45,
          "name": "A2",
          "ticks": 67680,
          "time": 54.230715,
          "velocity": 0.3937007874015748
        },
        {
          "duration": 0.15384600000000148,
          "durationTicks": 192,
          "midi": 53,
          "name": "F3",
          "ticks": 67680,
          "time": 54.230715,
          "velocity": 0.3937007874015748
        },
        {
          "duration": 0.15384600000000148,
          "durationTicks": 192,
          "midi": 47,
          "name": "B2",
          "ticks": 68640,
          "time": 54.999945,
          "velocity": 0.3937007874015748
        },
        {
          "duration": 0.15384600000000148,
          "durationTicks": 192,
          "midi": 55,
          "name": "G3",
          "ticks": 68640,
          "time": 54.999945,
          "velocity": 0.3937007874015748
        },
        {
          "duration": 0.15384600000000148,
          "durationTicks": 192,
          "midi": 62,
          "name": "D4",
          "ticks": 68640,
          "time": 54.999945,
          "velocity": 0.3937007874015748
        },
        {
          "duration": 0.15384600000000148,
          "durationTicks": 192,
          "midi": 50,
          "name": "D3",
          "ticks": 69120,
          "time": 55.38456,
          "velocity": 0.3937007874015748
        },
        {
          "duration": 0.15384600000000148,
          "durationTicks": 192,
          "midi": 57,
          "name": "A3",
          "ticks": 69120,
          "time": 55.38456,
          "velocity": 0.3937007874015748
        },
        {
          "duration": 0.15384600000000148,
          "durationTicks": 192,
          "midi": 65,
          "name": "F4",
          "ticks": 69120,
          "time": 55.38456,
          "velocity": 0.3937007874015748
        },
        {
          "duration": 0.15384600000000148,
          "durationTicks": 192,
          "midi": 41,
          "name": "F2",
          "ticks": 70080,
          "time": 56.15379,
          "velocity": 0.3937007874015748
        },
        {
          "duration": 0.15384600000000148,
          "durationTicks": 192,
          "midi": 50,
          "name": "D3",
          "ticks": 70080,
          "time": 56.15379,
          "velocity": 0.3937007874015748
        },
        {
          "duration": 0.15384600000000148,
          "durationTicks": 192,
          "midi": 57,
          "name": "A3",
          "ticks": 70080,
          "time": 56.15379,
          "velocity": 0.3937007874015748
        },
        {
          "duration": 0.15384600000000148,
          "durationTicks": 192,
          "midi": 47,
          "name": "B2",
          "ticks": 70560,
          "time": 56.538405,
          "velocity": 0.3937007874015748
        },
        {
          "duration": 0.15384600000000148,
          "durationTicks": 192,
          "midi": 55,
          "name": "G3",
          "ticks": 70560,
          "time": 56.538405,
          "velocity": 0.3937007874015748
        },
        {
          "duration": 0.15384600000000148,
          "durationTicks": 192,
          "midi": 62,
          "name": "D4",
          "ticks": 70560,
          "time": 56.538405,
          "velocity": 0.3937007874015748
        },
        {
          "duration": 0.15384600000000148,
          "durationTicks": 192,
          "midi": 50,
          "name": "D3",
          "ticks": 71040,
          "time": 56.92302,
          "velocity": 0.3937007874015748
        },
        {
          "duration": 0.15384600000000148,
          "durationTicks": 192,
          "midi": 57,
          "name": "A3",
          "ticks": 71040,
          "time": 56.92302,
          "velocity": 0.3937007874015748
        },
        {
          "duration": 0.15384600000000148,
          "durationTicks": 192,
          "midi": 65,
          "name": "F4",
          "ticks": 71040,
          "time": 56.92302,
          "velocity": 0.3937007874015748
        },
        {
          "duration": 0.15384600000000148,
          "durationTicks": 192,
          "midi": 46,
          "name": "A#2",
          "ticks": 71520,
          "time": 57.307635,
          "velocity": 0.3779527559055118
        },
        {
          "duration": 0.15384600000000148,
          "durationTicks": 192,
          "midi": 50,
          "name": "D3",
          "ticks": 71520,
          "time": 57.307635,
          "velocity": 0.3779527559055118
        },
        {
          "duration": 0.15384600000000148,
          "durationTicks": 192,
          "midi": 55,
          "name": "G3",
          "ticks": 71520,
          "time": 57.307635,
          "velocity": 0.3779527559055118
        },
        {
          "duration": 0.1538460000000086,
          "durationTicks": 192,
          "midi": 45,
          "name": "A2",
          "ticks": 72000,
          "time": 57.692249999999994,
          "velocity": 0.4094488188976378
        },
        {
          "duration": 0.1538460000000086,
          "durationTicks": 192,
          "midi": 50,
          "name": "D3",
          "ticks": 72000,
          "time": 57.692249999999994,
          "velocity": 0.4094488188976378
        },
        {
          "duration": 0.1538460000000086,
          "durationTicks": 192,
          "midi": 53,
          "name": "F3",
          "ticks": 72000,
          "time": 57.692249999999994,
          "velocity": 0.4094488188976378
        },
        {
          "duration": 0.15384600000000148,
          "durationTicks": 192,
          "midi": 43,
          "name": "G2",
          "ticks": 72480,
          "time": 58.076865,
          "velocity": 0.44881889763779526
        },
        {
          "duration": 0.15384600000000148,
          "durationTicks": 192,
          "midi": 49,
          "name": "C#3",
          "ticks": 72480,
          "time": 58.076865,
          "velocity": 0.44881889763779526
        },
        {
          "duration": 0.15384600000000148,
          "durationTicks": 192,
          "midi": 52,
          "name": "E3",
          "ticks": 72480,
          "time": 58.076865,
          "velocity": 0.44881889763779526
        },
        {
          "duration": 0.1538460000000086,
          "durationTicks": 192,
          "midi": 41,
          "name": "F2",
          "ticks": 72960,
          "time": 58.461479999999995,
          "velocity": 0.4881889763779528
        },
        {
          "duration": 0.1538460000000086,
          "durationTicks": 192,
          "midi": 45,
          "name": "A2",
          "ticks": 72960,
          "time": 58.461479999999995,
          "velocity": 0.4881889763779528
        },
        {
          "duration": 0.1538460000000086,
          "durationTicks": 192,
          "midi": 50,
          "name": "D3",
          "ticks": 72960,
          "time": 58.461479999999995,
          "velocity": 0.4881889763779528
        },
        {
          "duration": 0.15384600000000148,
          "durationTicks": 192,
          "midi": 50,
          "name": "D3",
          "ticks": 73440,
          "time": 58.846095,
          "velocity": 0.5196850393700787
        },
        {
          "duration": 0.15384600000000148,
          "durationTicks": 192,
          "midi": 53,
          "name": "F3",
          "ticks": 73440,
          "time": 58.846095,
          "velocity": 0.5196850393700787
        },
        {
          "duration": 0.15384600000000148,
          "durationTicks": 192,
          "midi": 57,
          "name": "A3",
          "ticks": 73440,
          "time": 58.846095,
          "velocity": 0.5196850393700787
        },
        {
          "duration": 0.15384600000000148,
          "durationTicks": 192,
          "midi": 48,
          "name": "C3",
          "ticks": 73920,
          "time": 59.230709999999995,
          "velocity": 0.48031496062992124
        },
        {
          "duration": 0.15384600000000148,
          "durationTicks": 192,
          "midi": 52,
          "name": "E3",
          "ticks": 73920,
          "time": 59.230709999999995,
          "velocity": 0.48031496062992124
        },
        {
          "duration": 0.15384600000000148,
          "durationTicks": 192,
          "midi": 57,
          "name": "A3",
          "ticks": 73920,
          "time": 59.230709999999995,
          "velocity": 0.48031496062992124
        },
        {
          "duration": 0.15384600000000148,
          "durationTicks": 192,
          "midi": 47,
          "name": "B2",
          "ticks": 74400,
          "time": 59.615325,
          "velocity": 0.4251968503937008
        },
        {
          "duration": 0.15384600000000148,
          "durationTicks": 192,
          "midi": 52,
          "name": "E3",
          "ticks": 74400,
          "time": 59.615325,
          "velocity": 0.4251968503937008
        },
        {
          "duration": 0.15384600000000148,
          "durationTicks": 192,
          "midi": 56,
          "name": "G#3",
          "ticks": 74400,
          "time": 59.615325,
          "velocity": 0.4251968503937008
        },
        {
          "duration": 0.15384600000000148,
          "durationTicks": 192,
          "midi": 59,
          "name": "B3",
          "ticks": 74400,
          "time": 59.615325,
          "velocity": 0.4251968503937008
        },
        {
          "duration": 0.15384600000000148,
          "durationTicks": 192,
          "midi": 45,
          "name": "A2",
          "ticks": 74880,
          "time": 59.999939999999995,
          "velocity": 0.3937007874015748
        },
        {
          "duration": 0.15384600000000148,
          "durationTicks": 192,
          "midi": 52,
          "name": "E3",
          "ticks": 74880,
          "time": 59.999939999999995,
          "velocity": 0.3937007874015748
        },
        {
          "duration": 0.15384600000000148,
          "durationTicks": 192,
          "midi": 60,
          "name": "C4",
          "ticks": 74880,
          "time": 59.999939999999995,
          "velocity": 0.3937007874015748
        },
        {
          "duration": 0.15384600000000148,
          "durationTicks": 192,
          "midi": 60,
          "name": "C4",
          "ticks": 75120,
          "time": 60.1922475,
          "velocity": 0.3937007874015748
        },
        {
          "duration": 0.15384600000000148,
          "durationTicks": 192,
          "midi": 64,
          "name": "E4",
          "ticks": 75120,
          "time": 60.1922475,
          "velocity": 0.3937007874015748
        },
        {
          "duration": 0.15384600000000148,
          "durationTicks": 192,
          "midi": 69,
          "name": "A4",
          "ticks": 75120,
          "time": 60.1922475,
          "velocity": 0.3937007874015748
        },
        {
          "duration": 0.15384600000000148,
          "durationTicks": 192,
          "midi": 45,
          "name": "A2",
          "ticks": 75840,
          "time": 60.769169999999995,
          "velocity": 0.3937007874015748
        },
        {
          "duration": 0.15384600000000148,
          "durationTicks": 192,
          "midi": 52,
          "name": "E3",
          "ticks": 75840,
          "time": 60.769169999999995,
          "velocity": 0.3937007874015748
        },
        {
          "duration": 0.15384600000000148,
          "durationTicks": 192,
          "midi": 60,
          "name": "C4",
          "ticks": 75840,
          "time": 60.769169999999995,
          "velocity": 0.3937007874015748
        },
        {
          "duration": 0.15384600000000148,
          "durationTicks": 192,
          "midi": 42,
          "name": "F#2",
          "ticks": 76320,
          "time": 61.153785,
          "velocity": 0.3937007874015748
        },
        {
          "duration": 0.15384600000000148,
          "durationTicks": 192,
          "midi": 50,
          "name": "D3",
          "ticks": 76320,
          "time": 61.153785,
          "velocity": 0.3937007874015748
        },
        {
          "duration": 0.15384600000000148,
          "durationTicks": 192,
          "midi": 57,
          "name": "A3",
          "ticks": 76320,
          "time": 61.153785,
          "velocity": 0.3937007874015748
        },
        {
          "duration": 0.09615374999999915,
          "durationTicks": 120,
          "midi": 45,
          "name": "A2",
          "ticks": 76800,
          "time": 61.538399999999996,
          "velocity": 0.3937007874015748
        },
        {
          "duration": 0.09615374999999915,
          "durationTicks": 120,
          "midi": 52,
          "name": "E3",
          "ticks": 76800,
          "time": 61.538399999999996,
          "velocity": 0.3937007874015748
        },
        {
          "duration": 0.09615374999999915,
          "durationTicks": 120,
          "midi": 60,
          "name": "C4",
          "ticks": 76800,
          "time": 61.538399999999996,
          "velocity": 0.3937007874015748
        },
        {
          "duration": 0.09615375000000626,
          "durationTicks": 120,
          "midi": 60,
          "name": "C4",
          "ticks": 77040,
          "time": 61.730707499999994,
          "velocity": 0.3937007874015748
        },
        {
          "duration": 0.09615375000000626,
          "durationTicks": 120,
          "midi": 64,
          "name": "E4",
          "ticks": 77040,
          "time": 61.730707499999994,
          "velocity": 0.3937007874015748
        },
        {
          "duration": 0.09615375000000626,
          "durationTicks": 120,
          "midi": 69,
          "name": "A4",
          "ticks": 77040,
          "time": 61.730707499999994,
          "velocity": 0.3937007874015748
        },
        {
          "duration": 0.15384600000000148,
          "durationTicks": 192,
          "midi": 45,
          "name": "A2",
          "ticks": 77760,
          "time": 62.307629999999996,
          "velocity": 0.3937007874015748
        },
        {
          "duration": 0.15384600000000148,
          "durationTicks": 192,
          "midi": 52,
          "name": "E3",
          "ticks": 77760,
          "time": 62.307629999999996,
          "velocity": 0.3937007874015748
        },
        {
          "duration": 0.15384600000000148,
          "durationTicks": 192,
          "midi": 60,
          "name": "C4",
          "ticks": 77760,
          "time": 62.307629999999996,
          "velocity": 0.3937007874015748
        },
        {
          "duration": 0.15384600000000148,
          "durationTicks": 192,
          "midi": 42,
          "name": "F#2",
          "ticks": 78240,
          "time": 62.692245,
          "velocity": 0.3937007874015748
        },
        {
          "duration": 0.15384600000000148,
          "durationTicks": 192,
          "midi": 50,
          "name": "D3",
          "ticks": 78240,
          "time": 62.692245,
          "velocity": 0.3937007874015748
        },
        {
          "duration": 0.15384600000000148,
          "durationTicks": 192,
          "midi": 57,
          "name": "A3",
          "ticks": 78240,
          "time": 62.692245,
          "velocity": 0.3937007874015748
        },
        {
          "duration": 0.15384600000000148,
          "durationTicks": 192,
          "midi": 45,
          "name": "A2",
          "ticks": 78720,
          "time": 63.076859999999996,
          "velocity": 0.3937007874015748
        },
        {
          "duration": 0.15384600000000148,
          "durationTicks": 192,
          "midi": 52,
          "name": "E3",
          "ticks": 78720,
          "time": 63.076859999999996,
          "velocity": 0.3937007874015748
        },
        {
          "duration": 0.15384600000000148,
          "durationTicks": 192,
          "midi": 60,
          "name": "C4",
          "ticks": 78720,
          "time": 63.076859999999996,
          "velocity": 0.3937007874015748
        },
        {
          "duration": 0.15384600000000148,
          "durationTicks": 192,
          "midi": 69,
          "name": "A4",
          "ticks": 79200,
          "time": 63.461475,
          "velocity": 0.3937007874015748
        },
        {
          "duration": 0.15384600000000148,
          "durationTicks": 192,
          "midi": 65,
          "name": "F4",
          "ticks": 79440,
          "time": 63.6537825,
          "velocity": 0.3937007874015748
        },
        {
          "duration": 0.36057656250000747,
          "durationTicks": 450,
          "midi": 53,
          "name": "F3",
          "ticks": 79680,
          "time": 63.84609,
          "velocity": 0.3937007874015748
        },
        {
          "duration": 0.15384600000000148,
          "durationTicks": 192,
          "midi": 62,
          "name": "D4",
          "ticks": 79680,
          "time": 63.84609,
          "velocity": 0.3937007874015748
        },
        {
          "duration": 0.15384600000000148,
          "durationTicks": 192,
          "midi": 59,
          "name": "B3",
          "ticks": 79920,
          "time": 64.0383975,
          "velocity": 0.3937007874015748
        },
        {
          "duration": 0.15384600000000148,
          "durationTicks": 192,
          "midi": 62,
          "name": "D4",
          "ticks": 80160,
          "time": 64.230705,
          "velocity": 0.3937007874015748
        },
        {
          "duration": 0.15384600000000148,
          "durationTicks": 192,
          "midi": 65,
          "name": "F4",
          "ticks": 80400,
          "time": 64.4230125,
          "velocity": 0.3937007874015748
        },
        {
          "duration": 0.30769200000000296,
          "durationTicks": 384,
          "midi": 60,
          "name": "C4",
          "ticks": 80640,
          "time": 64.61532,
          "velocity": 0.3937007874015748
        },
        {
          "duration": 0.30769200000000296,
          "durationTicks": 384,
          "midi": 64,
          "name": "E4",
          "ticks": 80640,
          "time": 64.61532,
          "velocity": 0.3937007874015748
        },
        {
          "duration": 0.30769200000000296,
          "durationTicks": 384,
          "midi": 69,
          "name": "A4",
          "ticks": 80640,
          "time": 64.61532,
          "velocity": 0.3937007874015748
        },
        {
          "duration": 0.30769200000000296,
          "durationTicks": 384,
          "midi": 52,
          "name": "E3",
          "ticks": 81120,
          "time": 64.999935,
          "velocity": 0.3937007874015748
        },
        {
          "duration": 0.30769200000000296,
          "durationTicks": 384,
          "midi": 62,
          "name": "D4",
          "ticks": 81600,
          "time": 65.38455,
          "velocity": 0.3937007874015748
        },
        {
          "duration": 0.30769200000000296,
          "durationTicks": 384,
          "midi": 64,
          "name": "E4",
          "ticks": 81600,
          "time": 65.38455,
          "velocity": 0.3937007874015748
        },
        {
          "duration": 0.30769200000000296,
          "durationTicks": 384,
          "midi": 68,
          "name": "G#4",
          "ticks": 81600,
          "time": 65.38455,
          "velocity": 0.3937007874015748
        },
        {
          "duration": 0.15384600000000148,
          "durationTicks": 192,
          "midi": 57,
          "name": "A3",
          "ticks": 82560,
          "time": 66.15378,
          "velocity": 0.3937007874015748
        },
        {
          "duration": 0.15384600000000148,
          "durationTicks": 192,
          "midi": 60,
          "name": "C4",
          "ticks": 82560,
          "time": 66.15378,
          "velocity": 0.3937007874015748
        },
        {
          "duration": 0.15384600000000148,
          "durationTicks": 192,
          "midi": 64,
          "name": "E4",
          "ticks": 82560,
          "time": 66.15378,
          "velocity": 0.3937007874015748
        },
        {
          "duration": 0.15384600000000148,
          "durationTicks": 192,
          "midi": 69,
          "name": "A4",
          "ticks": 82560,
          "time": 66.15378,
          "velocity": 0.3937007874015748
        },
        {
          "duration": 0.060897374999996146,
          "durationTicks": 76,
          "midi": 72,
          "name": "C5",
          "ticks": 83040,
          "time": 66.538395,
          "velocity": 0.47244094488188976
        },
        {
          "duration": 0.060897374999996146,
          "durationTicks": 76,
          "midi": 81,
          "name": "A5",
          "ticks": 83040,
          "time": 66.538395,
          "velocity": 0.47244094488188976
        },
        {
          "duration": 0.060897375000010356,
          "durationTicks": 76,
          "midi": 69,
          "name": "A4",
          "ticks": 83280,
          "time": 66.73070249999999,
          "velocity": 0.47244094488188976
        },
        {
          "duration": 0.060897375000010356,
          "durationTicks": 76,
          "midi": 77,
          "name": "F5",
          "ticks": 83280,
          "time": 66.73070249999999,
          "velocity": 0.47244094488188976
        },
        {
          "duration": 0.060897375000010356,
          "durationTicks": 76,
          "midi": 65,
          "name": "F4",
          "ticks": 83520,
          "time": 66.92300999999999,
          "velocity": 0.47244094488188976
        },
        {
          "duration": 0.060897375000010356,
          "durationTicks": 76,
          "midi": 74,
          "name": "D5",
          "ticks": 83520,
          "time": 66.92300999999999,
          "velocity": 0.47244094488188976
        },
        {
          "duration": 0.060897374999996146,
          "durationTicks": 76,
          "midi": 62,
          "name": "D4",
          "ticks": 83760,
          "time": 67.1153175,
          "velocity": 0.47244094488188976
        },
        {
          "duration": 0.060897374999996146,
          "durationTicks": 76,
          "midi": 69,
          "name": "A4",
          "ticks": 83760,
          "time": 67.1153175,
          "velocity": 0.47244094488188976
        },
        {
          "duration": 0.060897374999996146,
          "durationTicks": 76,
          "midi": 65,
          "name": "F4",
          "ticks": 84000,
          "time": 67.307625,
          "velocity": 0.47244094488188976
        },
        {
          "duration": 0.060897374999996146,
          "durationTicks": 76,
          "midi": 74,
          "name": "D5",
          "ticks": 84000,
          "time": 67.307625,
          "velocity": 0.47244094488188976
        },
        {
          "duration": 0.060897374999996146,
          "durationTicks": 76,
          "midi": 69,
          "name": "A4",
          "ticks": 84240,
          "time": 67.4999325,
          "velocity": 0.47244094488188976
        },
        {
          "duration": 0.060897374999996146,
          "durationTicks": 76,
          "midi": 77,
          "name": "F5",
          "ticks": 84240,
          "time": 67.4999325,
          "velocity": 0.47244094488188976
        },
        {
          "duration": 0.12259603124999785,
          "durationTicks": 153,
          "midi": 72,
          "name": "C5",
          "ticks": 84480,
          "time": 67.69224,
          "velocity": 0.47244094488188976
        },
        {
          "duration": 0.12259603124999785,
          "durationTicks": 153,
          "midi": 81,
          "name": "A5",
          "ticks": 84480,
          "time": 67.69224,
          "velocity": 0.47244094488188976
        },
        {
          "duration": 0.12259603124999785,
          "durationTicks": 153,
          "midi": 64,
          "name": "E4",
          "ticks": 84960,
          "time": 68.076855,
          "velocity": 0.47244094488188976
        },
        {
          "duration": 0.12259603124999785,
          "durationTicks": 153,
          "midi": 74,
          "name": "D5",
          "ticks": 85440,
          "time": 68.46146999999999,
          "velocity": 0.47244094488188976
        },
        {
          "duration": 0.12259603124999785,
          "durationTicks": 153,
          "midi": 76,
          "name": "E5",
          "ticks": 85440,
          "time": 68.46146999999999,
          "velocity": 0.47244094488188976
        },
        {
          "duration": 0.12259603124999785,
          "durationTicks": 153,
          "midi": 80,
          "name": "G#5",
          "ticks": 85440,
          "time": 68.46146999999999,
          "velocity": 0.47244094488188976
        },
        {
          "duration": 0.15384600000000148,
          "durationTicks": 192,
          "midi": 69,
          "name": "A4",
          "ticks": 86400,
          "time": 69.2307,
          "velocity": 0.6299212598425197
        },
        {
          "duration": 0.15384600000000148,
          "durationTicks": 192,
          "midi": 72,
          "name": "C5",
          "ticks": 86400,
          "time": 69.2307,
          "velocity": 0.6299212598425197
        },
        {
          "duration": 0.15384600000000148,
          "durationTicks": 192,
          "midi": 76,
          "name": "E5",
          "ticks": 86400,
          "time": 69.2307,
          "velocity": 0.6299212598425197
        },
        {
          "duration": 0.15384600000000148,
          "durationTicks": 192,
          "midi": 81,
          "name": "A5",
          "ticks": 86400,
          "time": 69.2307,
          "velocity": 0.6299212598425197
        },
        {
          "duration": 0.15384600000000148,
          "durationTicks": 192,
          "midi": 61,
          "name": "C#4",
          "ticks": 86880,
          "time": 69.615315,
          "velocity": 0.6299212598425197
        },
        {
          "duration": 0.15384600000000148,
          "durationTicks": 192,
          "midi": 67,
          "name": "G4",
          "ticks": 86880,
          "time": 69.615315,
          "velocity": 0.6299212598425197
        },
        {
          "duration": 0.15384600000000148,
          "durationTicks": 192,
          "midi": 70,
          "name": "A#4",
          "ticks": 86880,
          "time": 69.615315,
          "velocity": 0.6299212598425197
        },
        {
          "duration": 0.15384600000000148,
          "durationTicks": 192,
          "midi": 57,
          "name": "A3",
          "ticks": 87360,
          "time": 69.99992999999999,
          "velocity": 0.6299212598425197
        },
        {
          "duration": 0.15384600000000148,
          "durationTicks": 192,
          "midi": 62,
          "name": "D4",
          "ticks": 87360,
          "time": 69.99992999999999,
          "velocity": 0.6299212598425197
        },
        {
          "duration": 0.15384600000000148,
          "durationTicks": 192,
          "midi": 65,
          "name": "F4",
          "ticks": 87360,
          "time": 69.99992999999999,
          "velocity": 0.6299212598425197
        },
        {
          "duration": 0.15384600000000148,
          "durationTicks": 192,
          "midi": 69,
          "name": "A4",
          "ticks": 87360,
          "time": 69.99992999999999,
          "velocity": 0.6299212598425197
        },
        {
          "duration": 0.15384600000000148,
          "durationTicks": 192,
          "midi": 57,
          "name": "A3",
          "ticks": 88320,
          "time": 70.76916,
          "velocity": 0.6299212598425197
        },
        {
          "duration": 0.15384600000000148,
          "durationTicks": 192,
          "midi": 60,
          "name": "C4",
          "ticks": 88320,
          "time": 70.76916,
          "velocity": 0.6299212598425197
        },
        {
          "duration": 0.15384600000000148,
          "durationTicks": 192,
          "midi": 64,
          "name": "E4",
          "ticks": 88320,
          "time": 70.76916,
          "velocity": 0.6299212598425197
        },
        {
          "duration": 0.15384600000000148,
          "durationTicks": 192,
          "midi": 69,
          "name": "A4",
          "ticks": 88320,
          "time": 70.76916,
          "velocity": 0.6299212598425197
        },
        {
          "duration": 0.15384600000000148,
          "durationTicks": 192,
          "midi": 55,
          "name": "G3",
          "ticks": 88800,
          "time": 71.153775,
          "velocity": 0.6299212598425197
        },
        {
          "duration": 0.15384600000000148,
          "durationTicks": 192,
          "midi": 58,
          "name": "A#3",
          "ticks": 88800,
          "time": 71.153775,
          "velocity": 0.6299212598425197
        },
        {
          "duration": 0.15384600000000148,
          "durationTicks": 192,
          "midi": 61,
          "name": "C#4",
          "ticks": 88800,
          "time": 71.153775,
          "velocity": 0.6299212598425197
        },
        {
          "duration": 0.15384600000000148,
          "durationTicks": 192,
          "midi": 53,
          "name": "F3",
          "ticks": 89280,
          "time": 71.53838999999999,
          "velocity": 0.6299212598425197
        },
        {
          "duration": 0.15384600000000148,
          "durationTicks": 192,
          "midi": 57,
          "name": "A3",
          "ticks": 89280,
          "time": 71.53838999999999,
          "velocity": 0.6299212598425197
        },
        {
          "duration": 0.15384600000000148,
          "durationTicks": 192,
          "midi": 62,
          "name": "D4",
          "ticks": 89280,
          "time": 71.53838999999999,
          "velocity": 0.6299212598425197
        },
        {
          "duration": 0.15384600000000148,
          "durationTicks": 192,
          "midi": 45,
          "name": "A2",
          "ticks": 89760,
          "time": 71.923005,
          "velocity": 0.6299212598425197
        },
        {
          "duration": 0.15384600000000148,
          "durationTicks": 192,
          "midi": 52,
          "name": "E3",
          "ticks": 90240,
          "time": 72.30762,
          "velocity": 0.6299212598425197
        },
        {
          "duration": 0.15384600000000148,
          "durationTicks": 192,
          "midi": 60,
          "name": "C4",
          "ticks": 90240,
          "time": 72.30762,
          "velocity": 0.6299212598425197
        },
        {
          "duration": 0.09455118750000224,
          "durationTicks": 118,
          "midi": 68,
          "name": "G#4",
          "ticks": 90720,
          "time": 72.692235,
          "velocity": 0.7874015748031497
        },
        {
          "duration": 0.09455118750000224,
          "durationTicks": 118,
          "midi": 69,
          "name": "A4",
          "ticks": 90720,
          "time": 72.692235,
          "velocity": 0.7874015748031497
        },
        {
          "duration": 0.09455118750000224,
          "durationTicks": 118,
          "midi": 70,
          "name": "A#4",
          "ticks": 90840,
          "time": 72.78838875,
          "velocity": 0.6299212598425197
        },
        {
          "duration": 0.09455118750000224,
          "durationTicks": 118,
          "midi": 68,
          "name": "G#4",
          "ticks": 90960,
          "time": 72.8845425,
          "velocity": 0.6299212598425197
        },
        {
          "duration": 0.09455118750000224,
          "durationTicks": 118,
          "midi": 69,
          "name": "A4",
          "ticks": 90960,
          "time": 72.8845425,
          "velocity": 0.6299212598425197
        },
        {
          "duration": 0.09455118750000224,
          "durationTicks": 118,
          "midi": 70,
          "name": "A#4",
          "ticks": 91080,
          "time": 72.98069625,
          "velocity": 0.6299212598425197
        },
        {
          "duration": 0.1907049375000014,
          "durationTicks": 238,
          "midi": 68,
          "name": "G#4",
          "ticks": 91200,
          "time": 73.07685,
          "velocity": 0.6299212598425197
        },
        {
          "duration": 0.1907049375000014,
          "durationTicks": 238,
          "midi": 69,
          "name": "A4",
          "ticks": 91200,
          "time": 73.07685,
          "velocity": 0.6299212598425197
        },
        {
          "duration": 0.15384600000000148,
          "durationTicks": 192,
          "midi": 67,
          "name": "G4",
          "ticks": 91440,
          "time": 73.26915749999999,
          "velocity": 0.6299212598425197
        },
        {
          "duration": 0.15384600000000148,
          "durationTicks": 192,
          "midi": 69,
          "name": "A4",
          "ticks": 91440,
          "time": 73.26915749999999,
          "velocity": 0.6299212598425197
        },
        {
          "duration": 0.15384600000000148,
          "durationTicks": 192,
          "midi": 66,
          "name": "F#4",
          "ticks": 91680,
          "time": 73.461465,
          "velocity": 0.6299212598425197
        },
        {
          "duration": 0.15384600000000148,
          "durationTicks": 192,
          "midi": 70,
          "name": "A#4",
          "ticks": 91680,
          "time": 73.461465,
          "velocity": 0.6299212598425197
        },
        {
          "duration": 0.15384600000000148,
          "durationTicks": 192,
          "midi": 65,
          "name": "F4",
          "ticks": 91920,
          "time": 73.6537725,
          "velocity": 0.6299212598425197
        },
        {
          "duration": 0.15384600000000148,
          "durationTicks": 192,
          "midi": 71,
          "name": "B4",
          "ticks": 91920,
          "time": 73.6537725,
          "velocity": 0.6299212598425197
        },
        {
          "duration": 0.15384600000000148,
          "durationTicks": 192,
          "midi": 64,
          "name": "E4",
          "ticks": 92160,
          "time": 73.84608,
          "velocity": 0.6299212598425197
        },
        {
          "duration": 0.15384600000000148,
          "durationTicks": 192,
          "midi": 69,
          "name": "A4",
          "ticks": 92160,
          "time": 73.84608,
          "velocity": 0.6299212598425197
        },
        {
          "duration": 0.15384600000000148,
          "durationTicks": 192,
          "midi": 72,
          "name": "C5",
          "ticks": 92160,
          "time": 73.84608,
          "velocity": 0.6299212598425197
        },
        {
          "duration": 0.09455118750000224,
          "durationTicks": 118,
          "midi": 75,
          "name": "D#5",
          "ticks": 92640,
          "time": 74.230695,
          "velocity": 0.7874015748031497
        },
        {
          "duration": 0.09455118750000224,
          "durationTicks": 118,
          "midi": 76,
          "name": "E5",
          "ticks": 92640,
          "time": 74.230695,
          "velocity": 0.7874015748031497
        },
        {
          "duration": 0.09455118750000224,
          "durationTicks": 118,
          "midi": 77,
          "name": "F5",
          "ticks": 92760,
          "time": 74.32684875,
          "velocity": 0.6299212598425197
        },
        {
          "duration": 0.09455118750000224,
          "durationTicks": 118,
          "midi": 75,
          "name": "D#5",
          "ticks": 92880,
          "time": 74.4230025,
          "velocity": 0.6299212598425197
        },
        {
          "duration": 0.09455118750000224,
          "durationTicks": 118,
          "midi": 76,
          "name": "E5",
          "ticks": 92880,
          "time": 74.4230025,
          "velocity": 0.6299212598425197
        },
        {
          "duration": 0.09455118750000224,
          "durationTicks": 118,
          "midi": 77,
          "name": "F5",
          "ticks": 93000,
          "time": 74.51915625,
          "velocity": 0.6299212598425197
        },
        {
          "duration": 0.1907049375000014,
          "durationTicks": 238,
          "midi": 75,
          "name": "D#5",
          "ticks": 93120,
          "time": 74.61531,
          "velocity": 0.6299212598425197
        },
        {
          "duration": 0.1907049375000014,
          "durationTicks": 238,
          "midi": 76,
          "name": "E5",
          "ticks": 93120,
          "time": 74.61531,
          "velocity": 0.6299212598425197
        },
        {
          "duration": 0.060897375000010356,
          "durationTicks": 76,
          "midi": 74,
          "name": "D5",
          "ticks": 93360,
          "time": 74.80761749999999,
          "velocity": 0.6299212598425197
        },
        {
          "duration": 0.060897375000010356,
          "durationTicks": 76,
          "midi": 78,
          "name": "F#5",
          "ticks": 93360,
          "time": 74.80761749999999,
          "velocity": 0.6299212598425197
        },
        {
          "duration": 0.060897375000010356,
          "durationTicks": 76,
          "midi": 72,
          "name": "C5",
          "ticks": 93600,
          "time": 74.99992499999999,
          "velocity": 0.6299212598425197
        },
        {
          "duration": 0.060897375000010356,
          "durationTicks": 76,
          "midi": 79,
          "name": "G5",
          "ticks": 93600,
          "time": 74.99992499999999,
          "velocity": 0.6299212598425197
        },
        {
          "duration": 0.060897374999996146,
          "durationTicks": 76,
          "midi": 71,
          "name": "B4",
          "ticks": 93840,
          "time": 75.1922325,
          "velocity": 0.6299212598425197
        },
        {
          "duration": 0.060897374999996146,
          "durationTicks": 76,
          "midi": 80,
          "name": "G#5",
          "ticks": 93840,
          "time": 75.1922325,
          "velocity": 0.6299212598425197
        },
        {
          "duration": 0.15384600000000148,
          "durationTicks": 192,
          "midi": 69,
          "name": "A4",
          "ticks": 94080,
          "time": 75.38454,
          "velocity": 0.6299212598425197
        },
        {
          "duration": 0.15384600000000148,
          "durationTicks": 192,
          "midi": 72,
          "name": "C5",
          "ticks": 94080,
          "time": 75.38454,
          "velocity": 0.6299212598425197
        },
        {
          "duration": 0.15384600000000148,
          "durationTicks": 192,
          "midi": 76,
          "name": "E5",
          "ticks": 94080,
          "time": 75.38454,
          "velocity": 0.6299212598425197
        },
        {
          "duration": 0.15384600000000148,
          "durationTicks": 192,
          "midi": 81,
          "name": "A5",
          "ticks": 94080,
          "time": 75.38454,
          "velocity": 0.6299212598425197
        },
        {
          "duration": 0.15384600000000148,
          "durationTicks": 192,
          "midi": 57,
          "name": "A3",
          "ticks": 95040,
          "time": 76.15377,
          "velocity": 0.47244094488188976
        },
        {
          "duration": 0.15384600000000148,
          "durationTicks": 192,
          "midi": 64,
          "name": "E4",
          "ticks": 95040,
          "time": 76.15377,
          "velocity": 0.47244094488188976
        },
        {
          "duration": 0.15384600000000148,
          "durationTicks": 192,
          "midi": 72,
          "name": "C5",
          "ticks": 95040,
          "time": 76.15377,
          "velocity": 0.47244094488188976
        },
        {
          "duration": 0.15384600000000148,
          "durationTicks": 192,
          "midi": 65,
          "name": "F4",
          "ticks": 95520,
          "time": 76.53838499999999,
          "velocity": 0.47244094488188976
        },
        {
          "duration": 0.15384600000000148,
          "durationTicks": 192,
          "midi": 68,
          "name": "G#4",
          "ticks": 95520,
          "time": 76.53838499999999,
          "velocity": 0.47244094488188976
        },
        {
          "duration": 0.15384600000000148,
          "durationTicks": 192,
          "midi": 73,
          "name": "C#5",
          "ticks": 95520,
          "time": 76.53838499999999,
          "velocity": 0.47244094488188976
        },
        {
          "duration": 0.15384600000000148,
          "durationTicks": 192,
          "midi": 69,
          "name": "A4",
          "ticks": 96000,
          "time": 76.923,
          "velocity": 0.47244094488188976
        },
        {
          "duration": 0.15384600000000148,
          "durationTicks": 192,
          "midi": 72,
          "name": "C5",
          "ticks": 96000,
          "time": 76.923,
          "velocity": 0.47244094488188976
        },
        {
          "duration": 0.15384600000000148,
          "durationTicks": 192,
          "midi": 77,
          "name": "F5",
          "ticks": 96000,
          "time": 76.923,
          "velocity": 0.47244094488188976
        },
        {
          "duration": 0.15384600000000148,
          "durationTicks": 192,
          "midi": 72,
          "name": "C5",
          "ticks": 96480,
          "time": 77.307615,
          "velocity": 0.47244094488188976
        },
        {
          "duration": 0.15384600000000148,
          "durationTicks": 192,
          "midi": 75,
          "name": "D#5",
          "ticks": 96480,
          "time": 77.307615,
          "velocity": 0.47244094488188976
        },
        {
          "duration": 0.15384600000000148,
          "durationTicks": 192,
          "midi": 80,
          "name": "G#5",
          "ticks": 96480,
          "time": 77.307615,
          "velocity": 0.47244094488188976
        },
        {
          "duration": 0.15384600000000148,
          "durationTicks": 192,
          "midi": 76,
          "name": "E5",
          "ticks": 96960,
          "time": 77.69223,
          "velocity": 0.47244094488188976
        },
        {
          "duration": 0.15384600000000148,
          "durationTicks": 192,
          "midi": 81,
          "name": "A5",
          "ticks": 96960,
          "time": 77.69223,
          "velocity": 0.47244094488188976
        },
        {
          "duration": 0.15384600000000148,
          "durationTicks": 192,
          "midi": 84,
          "name": "C6",
          "ticks": 96960,
          "time": 77.69223,
          "velocity": 0.47244094488188976
        },
        {
          "duration": 0.346153500000014,
          "durationTicks": 432,
          "midi": 80,
          "name": "G#5",
          "ticks": 97440,
          "time": 78.07684499999999,
          "velocity": 0.47244094488188976
        },
        {
          "duration": 0.09455118750000224,
          "durationTicks": 118,
          "midi": 88,
          "name": "E6",
          "ticks": 97440,
          "time": 78.07684499999999,
          "velocity": 0.47244094488188976
        },
        {
          "duration": 0.09455118750000224,
          "durationTicks": 118,
          "midi": 86,
          "name": "D6",
          "ticks": 97560,
          "time": 78.17299874999999,
          "velocity": 0.47244094488188976
        },
        {
          "duration": 0.09455118750000224,
          "durationTicks": 118,
          "midi": 84,
          "name": "C6",
          "ticks": 97680,
          "time": 78.26915249999999,
          "velocity": 0.47244094488188976
        },
        {
          "duration": 0.09455118749998803,
          "durationTicks": 118,
          "midi": 83,
          "name": "B5",
          "ticks": 97800,
          "time": 78.36530625,
          "velocity": 0.47244094488188976
        },
        {
          "duration": 0.15384600000000148,
          "durationTicks": 192,
          "midi": 81,
          "name": "A5",
          "ticks": 97920,
          "time": 78.46146,
          "velocity": 0.47244094488188976
        },
        {
          "duration": 0.1907049375000014,
          "durationTicks": 238,
          "midi": 88,
          "name": "E6",
          "ticks": 97920,
          "time": 78.46146,
          "velocity": 0.47244094488188976
        },
        {
          "duration": 0.6923069999999996,
          "durationTicks": 864,
          "midi": 52,
          "name": "E3",
          "ticks": 98880,
          "time": 79.23069,
          "velocity": 0.47244094488188976
        },
        {
          "duration": 0.6923069999999996,
          "durationTicks": 864,
          "midi": 57,
          "name": "A3",
          "ticks": 98880,
          "time": 79.23069,
          "velocity": 0.47244094488188976
        },
        {
          "duration": 0.6923069999999996,
          "durationTicks": 864,
          "midi": 60,
          "name": "C4",
          "ticks": 98880,
          "time": 79.23069,
          "velocity": 0.47244094488188976
        },
        {
          "duration": 0.6923069999999996,
          "durationTicks": 864,
          "midi": 64,
          "name": "E4",
          "ticks": 98880,
          "time": 79.23069,
          "velocity": 0.47244094488188976
        },
        {
          "duration": 0.1923074999999983,
          "durationTicks": 240,
          "midi": 33,
          "name": "A1",
          "ticks": 99840,
          "time": 79.99992,
          "velocity": 0.47244094488188976
        }
      ],
      "endOfTrackTicks": 100800
    }
  ]
}