{
  "header": {
    "keySignatures": [
      {
        "key": "C",
        "scale": "major",
        "ticks": 1920
      }
    ],
    "meta": [],
    "name": "Inst 1",
    "ppq": 480,
    "tempos": [
      {
        "bpm": 120,
        "ticks": 1920
      }
    ],
    "timeSignatures": [
      {
        "ticks": 1920,
        "timeSignature": [
          4,
          4
        ],
        "measures": 0
      }
    ]
  },
  "tracks": [
    {
      "channel": 4,
      "controlChanges": {},
      "pitchBends": [],
      "instrument": {
        "family": "piano",
        "number": 0,
        "name": "acoustic guitar (nylon)"
      },
      "name": "Inst 1",
      "notes": [
        {
          "duration": 1.3031250000000005,
          "durationTicks": 1251,
          "midi": 64,
          "name": "E4",
          "ticks": 3665,
          "time": 3.817708333333333,
          "velocity": 0.3779527559055118
        },
        {
          "duration": 0.3770833333333332,
          "durationTicks": 362,
          "midi": 73,
          "name": "C#5",
          "ticks": 3868,
          "time": 4.029166666666667,
          "velocity": 0.03937007874015748
        },
        {
          "duration": 2.976041666666667,
          "durationTicks": 2857,
          "midi": 68,
          "name": "G#4",
          "ticks": 4068,
          "time": 4.2375,
          "velocity": 0.4094488188976378
        },
        {
          "duration": 0.18020833333333375,
          "durationTicks": 173,
          "midi": 69,
          "name": "A4",
          "ticks": 4272,
          "time": 4.45,
          "velocity": 0.5590551181102362
        },
        {
          "duration": 1.510416666666667,
          "durationTicks": 1450,
          "midi": 54,
          "name": "F#3",
          "ticks": 4463,
          "time": 4.648958333333333,
          "velocity": 0.5354330708661418
        },
        {
          "duration": 2.6260416666666666,
          "durationTicks": 2521,
          "midi": 69,
          "name": "A4",
          "ticks": 4494,
          "time": 4.68125,
          "velocity": 0.7637795275590551
        },
        {
          "duration": 3.385416666666666,
          "durationTicks": 3250,
          "midi": 61,
          "name": "C#4",
          "ticks": 4678,
          "time": 4.872916666666667,
          "velocity": 0.03937007874015748
        },
        {
          "duration": 1.3999999999999995,
          "durationTicks": 1344,
          "midi": 62,
          "name": "D4",
          "ticks": 4856,
          "time": 5.058333333333334,
          "velocity": 0.03937007874015748
        },
        {
          "duration": 1.2979166666666666,
          "durationTicks": 1246,
          "midi": 64,
          "name": "E4",
          "ticks": 5041,
          "time": 5.251041666666667,
          "velocity": 0.3779527559055118
        },
        {
          "duration": 1.8156250000000007,
          "durationTicks": 1743,
          "midi": 54,
          "name": "F#3",
          "ticks": 5976,
          "time": 6.225,
          "velocity": 0.6062992125984252
        },
        {
          "duration": 1.7770833333333318,
          "durationTicks": 1706,
          "midi": 62,
          "name": "D4",
          "ticks": 6324,
          "time": 6.5875,
          "velocity": 0.5039370078740157
        },
        {
          "duration": 0.3572916666666668,
          "durationTicks": 343,
          "midi": 64,
          "name": "E4",
          "ticks": 6515,
          "time": 6.786458333333333,
          "velocity": 0.5905511811023622
        },
        {
          "duration": 0.27395833333333375,
          "durationTicks": 263,
          "midi": 64,
          "name": "E4",
          "ticks": 6892,
          "time": 7.179166666666666,
          "velocity": 0.6692913385826772
        },
        {
          "duration": 0.22708333333333375,
          "durationTicks": 218,
          "midi": 68,
          "name": "G#4",
          "ticks": 7220,
          "time": 7.520833333333333,
          "velocity": 0.7795275590551181
        },
        {
          "duration": 0.2343750000000009,
          "durationTicks": 225,
          "midi": 69,
          "name": "A4",
          "ticks": 7589,
          "time": 7.905208333333333,
          "velocity": 0.4094488188976378
        },
        {
          "duration": 1.6260416666666675,
          "durationTicks": 1561,
          "midi": 54,
          "name": "F#3",
          "ticks": 7838,
          "time": 8.164583333333333,
          "velocity": 0.4015748031496063
        },
        {
          "duration": 0.9364583333333343,
          "durationTicks": 899,
          "midi": 69,
          "name": "A4",
          "ticks": 7853,
          "time": 8.180208333333333,
          "velocity": 0.6614173228346457
        },
        {
          "duration": 1.2562500000000014,
          "durationTicks": 1206,
          "midi": 61,
          "name": "C#4",
          "ticks": 8033,
          "time": 8.367708333333333,
          "velocity": 0.4409448818897638
        },
        {
          "duration": 1.5135416666666668,
          "durationTicks": 1453,
          "midi": 62,
          "name": "D4",
          "ticks": 8238,
          "time": 8.58125,
          "velocity": 0.6220472440944882
        },
        {
          "duration": 1.5000000000000018,
          "durationTicks": 1440,
          "midi": 64,
          "name": "E4",
          "ticks": 8420,
          "time": 8.770833333333332,
          "velocity": 0.5433070866141733
        },
        {
          "duration": 1.5656250000000007,
          "durationTicks": 1503,
          "midi": 69,
          "name": "A4",
          "ticks": 8866,
          "time": 9.235416666666666,
          "velocity": 0.5905511811023622
        },
        {
          "duration": 1.8791666666666682,
          "durationTicks": 1804,
          "midi": 61,
          "name": "C#4",
          "ticks": 9286,
          "time": 9.672916666666666,
          "velocity": 0.5826771653543307
        },
        {
          "duration": 1.348958333333334,
          "durationTicks": 1295,
          "midi": 54,
          "name": "F#3",
          "ticks": 9480,
          "time": 9.875,
          "velocity": 0.5826771653543307
        },
        {
          "duration": 1.4416666666666682,
          "durationTicks": 1384,
          "midi": 62,
          "name": "D4",
          "ticks": 9807,
          "time": 10.215625,
          "velocity": 0.44881889763779526
        },
        {
          "duration": 0.5697916666666654,
          "durationTicks": 547,
          "midi": 64,
          "name": "E4",
          "ticks": 10042,
          "time": 10.460416666666667,
          "velocity": 0.4566929133858268
        },
        {
          "duration": 0.28541666666666643,
          "durationTicks": 274,
          "midi": 68,
          "name": "G#4",
          "ticks": 10405,
          "time": 10.838541666666666,
          "velocity": 0.8267716535433071
        },
        {
          "duration": 1.3479166666666682,
          "durationTicks": 1294,
          "midi": 69,
          "name": "A4",
          "ticks": 10664,
          "time": 11.108333333333333,
          "velocity": 0.7795275590551181
        },
        {
          "duration": 1.5979166666666682,
          "durationTicks": 1534,
          "midi": 54,
          "name": "F#3",
          "ticks": 10994,
          "time": 11.452083333333333,
          "velocity": 0.5433070866141733
        },
        {
          "duration": 2.9802083333333336,
          "durationTicks": 2861,
          "midi": 61,
          "name": "C#4",
          "ticks": 11169,
          "time": 11.634375,
          "velocity": 0.3779527559055118
        },
        {
          "duration": 0.8374999999999986,
          "durationTicks": 804,
          "midi": 62,
          "name": "D4",
          "ticks": 11373,
          "time": 11.846875,
          "velocity": 0.4566929133858268
        },
        {
          "duration": 1.4770833333333329,
          "durationTicks": 1418,
          "midi": 64,
          "name": "E4",
          "ticks": 11576,
          "time": 12.058333333333334,
          "velocity": 0.5354330708661418
        },
        {
          "duration": 1.2989583333333332,
          "durationTicks": 1247,
          "midi": 69,
          "name": "A4",
          "ticks": 12052,
          "time": 12.554166666666667,
          "velocity": 0.7165354330708661
        },
        {
          "duration": 0.5499999999999989,
          "durationTicks": 528,
          "midi": 62,
          "name": "D4",
          "ticks": 12266,
          "time": 12.777083333333334,
          "velocity": 0.47244094488188976
        },
        {
          "duration": 1.1583333333333332,
          "durationTicks": 1112,
          "midi": 54,
          "name": "F#3",
          "ticks": 12601,
          "time": 13.126041666666667,
          "velocity": 0.5511811023622047
        },
        {
          "duration": 1,
          "durationTicks": 960,
          "midi": 62,
          "name": "D4",
          "ticks": 12917,
          "time": 13.455208333333333,
          "velocity": 0.36220472440944884
        },
        {
          "duration": 0.7552083333333321,
          "durationTicks": 725,
          "midi": 64,
          "name": "E4",
          "ticks": 13115,
          "time": 13.661458333333334,
          "velocity": 0.7086614173228346
        },
        {
          "duration": 0.39479166666666643,
          "durationTicks": 379,
          "midi": 69,
          "name": "A4",
          "ticks": 13558,
          "time": 14.122916666666667,
          "velocity": 0.8267716535433071
        },
        {
          "duration": 0.7520833333333332,
          "durationTicks": 722,
          "midi": 56,
          "name": "G#3",
          "ticks": 13977,
          "time": 14.559375,
          "velocity": 0.5196850393700787
        },
        {
          "duration": 0.7802083333333325,
          "durationTicks": 749,
          "midi": 71,
          "name": "B4",
          "ticks": 14000,
          "time": 14.583333333333334,
          "velocity": 0.5354330708661418
        },
        {
          "duration": 0.47291666666666643,
          "durationTicks": 454,
          "midi": 62,
          "name": "D4",
          "ticks": 14223,
          "time": 14.815625,
          "velocity": 0.10236220472440945
        },
        {
          "duration": 0.19687500000000036,
          "durationTicks": 189,
          "midi": 64,
          "name": "E4",
          "ticks": 14487,
          "time": 15.090625,
          "velocity": 0.2755905511811024
        },
        {
          "duration": 0.9104166666666664,
          "durationTicks": 874,
          "midi": 49,
          "name": "C#3",
          "ticks": 15000,
          "time": 15.625,
          "velocity": 0.47244094488188976
        },
        {
          "duration": 0.6177083333333329,
          "durationTicks": 593,
          "midi": 73,
          "name": "C#5",
          "ticks": 15045,
          "time": 15.671875,
          "velocity": 0.7480314960629921
        },
        {
          "duration": 0.5520833333333321,
          "durationTicks": 530,
          "midi": 53,
          "name": "F3",
          "ticks": 15367,
          "time": 16.007291666666667,
          "velocity": 0.5905511811023622
        },
        {
          "duration": 0.39270833333333144,
          "durationTicks": 377,
          "midi": 59,
          "name": "B3",
          "ticks": 15548,
          "time": 16.195833333333333,
          "velocity": 0.6614173228346457
        },
        {
          "duration": 0.18333333333333357,
          "durationTicks": 176,
          "midi": 71,
          "name": "B4",
          "ticks": 15712,
          "time": 16.366666666666667,
          "velocity": 0.968503937007874
        },
        {
          "duration": 0.17916666666666714,
          "durationTicks": 172,
          "midi": 73,
          "name": "C#5",
          "ticks": 15934,
          "time": 16.597916666666666,
          "velocity": 0.7716535433070866
        },
        {
          "duration": 0.09270833333333428,
          "durationTicks": 89,
          "midi": 76,
          "name": "E5",
          "ticks": 16139,
          "time": 16.811458333333334,
          "velocity": 0.5984251968503937
        },
        {
          "duration": 0.6031250000000021,
          "durationTicks": 579,
          "midi": 69,
          "name": "A4",
          "ticks": 16369,
          "time": 17.051041666666666,
          "velocity": 0.7086614173228346
        },
        {
          "duration": 0.5770833333333343,
          "durationTicks": 554,
          "midi": 54,
          "name": "F#3",
          "ticks": 16369,
          "time": 17.051041666666666,
          "velocity": 0.3228346456692913
        },
        {
          "duration": 0.49583333333333357,
          "durationTicks": 476,
          "midi": 61,
          "name": "C#4",
          "ticks": 16557,
          "time": 17.246875,
          "velocity": 0.33858267716535434
        },
        {
          "duration": 0.2718750000000014,
          "durationTicks": 261,
          "midi": 64,
          "name": "E4",
          "ticks": 16772,
          "time": 17.47083333333333,
          "velocity": 0.6062992125984252
        },
        {
          "duration": 0.5104166666666679,
          "durationTicks": 490,
          "midi": 69,
          "name": "A4",
          "ticks": 16995,
          "time": 17.703125,
          "velocity": 0.84251968503937
        },
        {
          "duration": 0.9229166666666693,
          "durationTicks": 886,
          "midi": 52,
          "name": "E3",
          "ticks": 17011,
          "time": 17.719791666666666,
          "velocity": 0.7007874015748031
        },
        {
          "duration": 0.5427083333333336,
          "durationTicks": 521,
          "midi": 61,
          "name": "C#4",
          "ticks": 17331,
          "time": 18.053125,
          "velocity": 0.18110236220472442
        },
        {
          "duration": 0.42708333333333215,
          "durationTicks": 410,
          "midi": 68,
          "name": "G#4",
          "ticks": 17417,
          "time": 18.142708333333335,
          "velocity": 0.7165354330708661
        },
        {
          "duration": 0.22604166666666714,
          "durationTicks": 217,
          "midi": 69,
          "name": "A4",
          "ticks": 17768,
          "time": 18.508333333333333,
          "velocity": 0.6929133858267716
        },
        {
          "duration": 0.16562499999999858,
          "durationTicks": 159,
          "midi": 73,
          "name": "C#5",
          "ticks": 17987,
          "time": 18.736458333333335,
          "velocity": 0.6220472440944882
        },
        {
          "duration": 0.7395833333333357,
          "durationTicks": 710,
          "midi": 47,
          "name": "B2",
          "ticks": 18177,
          "time": 18.934375,
          "velocity": 0.6299212598425197
        },
        {
          "duration": 0.5947916666666657,
          "durationTicks": 571,
          "midi": 62,
          "name": "D4",
          "ticks": 18201,
          "time": 18.959375,
          "velocity": 0.6141732283464567
        },
        {
          "duration": 0.546875,
          "durationTicks": 525,
          "midi": 54,
          "name": "F#3",
          "ticks": 18385,
          "time": 19.151041666666668,
          "velocity": 0.3779527559055118
        },
        {
          "duration": 0.36979166666666785,
          "durationTicks": 355,
          "midi": 57,
          "name": "A3",
          "ticks": 18638,
          "time": 19.414583333333333,
          "velocity": 0.7322834645669292
        },
        {
          "duration": 0.16458333333333286,
          "durationTicks": 158,
          "midi": 62,
          "name": "D4",
          "ticks": 18855,
          "time": 19.640625,
          "velocity": 0.7480314960629921
        },
        {
          "duration": 0.3833333333333364,
          "durationTicks": 368,
          "midi": 73,
          "name": "C#5",
          "ticks": 19134,
          "time": 19.93125,
          "velocity": 0.5118110236220472
        },
        {
          "duration": 1.0354166666666664,
          "durationTicks": 994,
          "midi": 52,
          "name": "E3",
          "ticks": 19137,
          "time": 19.934375,
          "velocity": 0.5118110236220472
        },
        {
          "duration": 0.7770833333333336,
          "durationTicks": 746,
          "midi": 59,
          "name": "B3",
          "ticks": 19493,
          "time": 20.305208333333333,
          "velocity": 0.2440944881889764
        },
        {
          "duration": 0.22395833333333215,
          "durationTicks": 215,
          "midi": 74,
          "name": "D5",
          "ticks": 19525,
          "time": 20.338541666666668,
          "velocity": 0.7795275590551181
        },
        {
          "duration": 0.7312499999999993,
          "durationTicks": 702,
          "midi": 62,
          "name": "D4",
          "ticks": 19742,
          "time": 20.564583333333335,
          "velocity": 0.4251968503937008
        },
        {
          "duration": 0.19270833333333215,
          "durationTicks": 185,
          "midi": 71,
          "name": "B4",
          "ticks": 19821,
          "time": 20.646875,
          "velocity": 0.7480314960629921
        },
        {
          "duration": 0.11562500000000142,
          "durationTicks": 111,
          "midi": 73,
          "name": "C#5",
          "ticks": 20085,
          "time": 20.921875,
          "velocity": 0.3700787401574803
        },
        {
          "duration": 1.5947916666666693,
          "durationTicks": 1531,
          "midi": 54,
          "name": "F#3",
          "ticks": 20304,
          "time": 21.15,
          "velocity": 0.33858267716535434
        },
        {
          "duration": 1.1947916666666671,
          "durationTicks": 1147,
          "midi": 69,
          "name": "A4",
          "ticks": 20321,
          "time": 21.167708333333334,
          "velocity": 0.47244094488188976
        },
        {
          "duration": 1.1666666666666679,
          "durationTicks": 1120,
          "midi": 61,
          "name": "C#4",
          "ticks": 20561,
          "time": 21.417708333333334,
          "velocity": 0.29133858267716534
        },
        {
          "duration": 0.9291666666666671,
          "durationTicks": 892,
          "midi": 64,
          "name": "E4",
          "ticks": 20778,
          "time": 21.64375,
          "velocity": 0.4566929133858268
        },
        {
          "duration": 0.2687500000000007,
          "durationTicks": 258,
          "midi": 69,
          "name": "A4",
          "ticks": 21541,
          "time": 22.438541666666666,
          "velocity": 0.889763779527559
        },
        {
          "duration": 0.39895833333333286,
          "durationTicks": 383,
          "midi": 69,
          "name": "A4",
          "ticks": 21833,
          "time": 22.742708333333333,
          "velocity": 0.7086614173228346
        },
        {
          "duration": 0.294791666666665,
          "durationTicks": 283,
          "midi": 71,
          "name": "B4",
          "ticks": 22076,
          "time": 22.995833333333334,
          "velocity": 0.5118110236220472
        },
        {
          "duration": 0.328125,
          "durationTicks": 315,
          "midi": 73,
          "name": "C#5",
          "ticks": 22284,
          "time": 23.2125,
          "velocity": 0.5905511811023622
        },
        {
          "duration": 0.12291666666666856,
          "durationTicks": 118,
          "midi": 74,
          "name": "D5",
          "ticks": 22504,
          "time": 23.441666666666666,
          "velocity": 0.7322834645669292
        },
        {
          "duration": 1.5322916666666693,
          "durationTicks": 1471,
          "midi": 49,
          "name": "C#3",
          "ticks": 22756,
          "time": 23.704166666666666,
          "velocity": 0.3464566929133858
        },
        {
          "duration": 2.5406249999999986,
          "durationTicks": 2439,
          "midi": 76,
          "name": "E5",
          "ticks": 22787,
          "time": 23.736458333333335,
          "velocity": 0.6614173228346457
        },
        {
          "duration": 1.5166666666666657,
          "durationTicks": 1456,
          "midi": 56,
          "name": "G#3",
          "ticks": 22969,
          "time": 23.926041666666666,
          "velocity": 0.49606299212598426
        },
        {
          "duration": 1.2895833333333329,
          "durationTicks": 1238,
          "midi": 59,
          "name": "B3",
          "ticks": 23178,
          "time": 24.14375,
          "velocity": 0.4015748031496063
        },
        {
          "duration": 1.2447916666666679,
          "durationTicks": 1195,
          "midi": 64,
          "name": "E4",
          "ticks": 23394,
          "time": 24.36875,
          "velocity": 0.7244094488188977
        },
        {
          "duration": 0.16354166666666714,
          "durationTicks": 157,
          "midi": 68,
          "name": "G#4",
          "ticks": 24193,
          "time": 25.201041666666665,
          "velocity": 0.7874015748031497
        },
        {
          "duration": 1.7395833333333321,
          "durationTicks": 1670,
          "midi": 50,
          "name": "D3",
          "ticks": 24374,
          "time": 25.389583333333334,
          "velocity": 0.36220472440944884
        },
        {
          "duration": 0.75,
          "durationTicks": 720,
          "midi": 68,
          "name": "G#4",
          "ticks": 24394,
          "time": 25.410416666666666,
          "velocity": 0.6456692913385826
        },
        {
          "duration": 1.6062499999999993,
          "durationTicks": 1542,
          "midi": 57,
          "name": "A3",
          "ticks": 24587,
          "time": 25.611458333333335,
          "velocity": 0.1968503937007874
        },
        {
          "duration": 1.3093749999999993,
          "durationTicks": 1257,
          "midi": 62,
          "name": "D4",
          "ticks": 24791,
          "time": 25.823958333333334,
          "velocity": 0.1732283464566929
        },
        {
          "duration": 1.6104166666666657,
          "durationTicks": 1546,
          "midi": 66,
          "name": "F#4",
          "ticks": 25017,
          "time": 26.059375,
          "velocity": 0.3464566929133858
        },
        {
          "duration": 1.533333333333335,
          "durationTicks": 1472,
          "midi": 69,
          "name": "A4",
          "ticks": 25824,
          "time": 26.9,
          "velocity": 0.6771653543307087
        },
        {
          "duration": 1.5375000000000014,
          "durationTicks": 1476,
          "midi": 49,
          "name": "C#3",
          "ticks": 26255,
          "time": 27.348958333333332,
          "velocity": 0.5669291338582677
        },
        {
          "duration": 3.6458333333333357,
          "durationTicks": 3500,
          "midi": 76,
          "name": "E5",
          "ticks": 26259,
          "time": 27.353125,
          "velocity": 0.6771653543307087
        },
        {
          "duration": 1.6218749999999993,
          "durationTicks": 1557,
          "midi": 56,
          "name": "G#3",
          "ticks": 26453,
          "time": 27.555208333333333,
          "velocity": 0.4015748031496063
        },
        {
          "duration": 1.4604166666666671,
          "durationTicks": 1402,
          "midi": 59,
          "name": "B3",
          "ticks": 26649,
          "time": 27.759375,
          "velocity": 0.3543307086614173
        },
        {
          "duration": 1.497916666666665,
          "durationTicks": 1438,
          "midi": 64,
          "name": "E4",
          "ticks": 26872,
          "time": 27.991666666666667,
          "velocity": 0.6692913385826772
        },
        {
          "duration": 1.1437500000000007,
          "durationTicks": 1098,
          "midi": 68,
          "name": "G#4",
          "ticks": 27633,
          "time": 28.784375,
          "velocity": 0.6535433070866141
        },
        {
          "duration": 1.845833333333335,
          "durationTicks": 1772,
          "midi": 50,
          "name": "D3",
          "ticks": 27987,
          "time": 29.153125,
          "velocity": 0.6771653543307087
        },
        {
          "duration": 1.7385416666666664,
          "durationTicks": 1669,
          "midi": 57,
          "name": "A3",
          "ticks": 28189,
          "time": 29.363541666666666,
          "velocity": 0.30708661417322836
        },
        {
          "duration": 1.3989583333333329,
          "durationTicks": 1343,
          "midi": 62,
          "name": "D4",
          "ticks": 28420,
          "time": 29.604166666666668,
          "velocity": 0.3464566929133858
        },
        {
          "duration": 2.4072916666666693,
          "durationTicks": 2311,
          "midi": 66,
          "name": "F#4",
          "ticks": 28632,
          "time": 29.825,
          "velocity": 0.5039370078740157
        },
        {
          "duration": 1.1812500000000021,
          "durationTicks": 1134,
          "midi": 69,
          "name": "A4",
          "ticks": 29688,
          "time": 30.925,
          "velocity": 0.6299212598425197
        },
        {
          "duration": 1.3041666666666636,
          "durationTicks": 1252,
          "midi": 49,
          "name": "C#3",
          "ticks": 29906,
          "time": 31.152083333333334,
          "velocity": 0.41732283464566927
        },
        {
          "duration": 0.8260416666666686,
          "durationTicks": 793,
          "midi": 76,
          "name": "E5",
          "ticks": 29926,
          "time": 31.172916666666666,
          "velocity": 0.7401574803149606
        },
        {
          "duration": 1.1437500000000007,
          "durationTicks": 1098,
          "midi": 56,
          "name": "G#3",
          "ticks": 30124,
          "time": 31.379166666666666,
          "velocity": 0.3464566929133858
        },
        {
          "duration": 1.0531250000000014,
          "durationTicks": 1011,
          "midi": 59,
          "name": "B3",
          "ticks": 30337,
          "time": 31.601041666666667,
          "velocity": 0.4251968503937008
        },
        {
          "duration": 0.2979166666666657,
          "durationTicks": 286,
          "midi": 76,
          "name": "E5",
          "ticks": 30767,
          "time": 32.04895833333333,
          "velocity": 0.7322834645669292
        },
        {
          "duration": 0.17395833333333144,
          "durationTicks": 167,
          "midi": 74,
          "name": "D5",
          "ticks": 31022,
          "time": 32.31458333333333,
          "velocity": 0.5511811023622047
        },
        {
          "duration": 0.26979166666667,
          "durationTicks": 259,
          "midi": 73,
          "name": "C#5",
          "ticks": 31279,
          "time": 32.58229166666666,
          "velocity": 0.49606299212598426
        },
        {
          "duration": 0.22187500000000426,
          "durationTicks": 213,
          "midi": 71,
          "name": "B4",
          "ticks": 31418,
          "time": 32.72708333333333,
          "velocity": 0.5984251968503937
        },
        {
          "duration": 1.4979166666666615,
          "durationTicks": 1438,
          "midi": 54,
          "name": "F#3",
          "ticks": 31558,
          "time": 32.87291666666667,
          "velocity": 0.3464566929133858
        },
        {
          "duration": 0.5,
          "durationTicks": 480,
          "midi": 69,
          "name": "A4",
          "ticks": 31583,
          "time": 32.89895833333333,
          "velocity": 0.5669291338582677
        },
        {
          "duration": 1.4052083333333343,
          "durationTicks": 1349,
          "midi": 61,
          "name": "C#4",
          "ticks": 31761,
          "time": 33.084375,
          "velocity": 0.2440944881889764
        },
        {
          "duration": 0.6822916666666643,
          "durationTicks": 655,
          "midi": 64,
          "name": "E4",
          "ticks": 31978,
          "time": 33.31041666666667,
          "velocity": 0.6141732283464567
        },
        {
          "duration": 0.22812500000000568,
          "durationTicks": 219,
          "midi": 69,
          "name": "A4",
          "ticks": 32178,
          "time": 33.51875,
          "velocity": 0.7480314960629921
        },
        {
          "duration": 0.4843749999999929,
          "durationTicks": 465,
          "midi": 69,
          "name": "A4",
          "ticks": 32485,
          "time": 33.83854166666667,
          "velocity": 0.7795275590551181
        },
        {
          "duration": 0.23645833333333144,
          "durationTicks": 227,
          "midi": 71,
          "name": "B4",
          "ticks": 32783,
          "time": 34.14895833333333,
          "velocity": 0.7795275590551181
        },
        {
          "duration": 0.22500000000000142,
          "durationTicks": 216,
          "midi": 73,
          "name": "C#5",
          "ticks": 33026,
          "time": 34.40208333333333,
          "velocity": 0.7795275590551181
        },
        {
          "duration": 0.13958333333332718,
          "durationTicks": 134,
          "midi": 74,
          "name": "D5",
          "ticks": 33199,
          "time": 34.58229166666667,
          "velocity": 0.7007874015748031
        },
        {
          "duration": 1.51145833333333,
          "durationTicks": 1451,
          "midi": 55,
          "name": "G3",
          "ticks": 33381,
          "time": 34.771875,
          "velocity": 0.5669291338582677
        },
        {
          "duration": 0.7177083333333343,
          "durationTicks": 689,
          "midi": 71,
          "name": "B4",
          "ticks": 33418,
          "time": 34.81041666666667,
          "velocity": 0.7165354330708661
        },
        {
          "duration": 1.2197916666666657,
          "durationTicks": 1171,
          "midi": 62,
          "name": "D4",
          "ticks": 33634,
          "time": 35.03541666666667,
          "velocity": 0.44881889763779526
        },
        {
          "duration": 1.0020833333333314,
          "durationTicks": 962,
          "midi": 64,
          "name": "E4",
          "ticks": 33839,
          "time": 35.248958333333334,
          "velocity": 0.6771653543307087
        },
        {
          "duration": 1.890625,
          "durationTicks": 1815,
          "midi": 69,
          "name": "A4",
          "ticks": 34042,
          "time": 35.46041666666667,
          "velocity": 0.889763779527559
        },
        {
          "duration": 0.48854166666667,
          "durationTicks": 469,
          "midi": 64,
          "name": "E4",
          "ticks": 35146,
          "time": 36.610416666666666,
          "velocity": 0.5433070866141733
        },
        {
          "duration": 1.6041666666666643,
          "durationTicks": 1540,
          "midi": 52,
          "name": "E3",
          "ticks": 35149,
          "time": 36.61354166666667,
          "velocity": 0.3779527559055118
        },
        {
          "duration": 1.5583333333333371,
          "durationTicks": 1496,
          "midi": 59,
          "name": "B3",
          "ticks": 35350,
          "time": 36.822916666666664,
          "velocity": 0.30708661417322836
        },
        {
          "duration": 1.5489583333333314,
          "durationTicks": 1487,
          "midi": 62,
          "name": "D4",
          "ticks": 35550,
          "time": 37.03125,
          "velocity": 0.3700787401574803
        },
        {
          "duration": 1.4645833333333371,
          "durationTicks": 1406,
          "midi": 64,
          "name": "E4",
          "ticks": 35733,
          "time": 37.221875,
          "velocity": 0.5275590551181102
        },
        {
          "duration": 1.5593750000000028,
          "durationTicks": 1497,
          "midi": 69,
          "name": "A4",
          "ticks": 35972,
          "time": 37.47083333333333,
          "velocity": 0.6141732283464567
        },
        {
          "duration": 1.6822916666666643,
          "durationTicks": 1615,
          "midi": 54,
          "name": "F#3",
          "ticks": 36817,
          "time": 38.35104166666667,
          "velocity": 0.4251968503937008
        },
        {
          "duration": 1.3020833333333357,
          "durationTicks": 1250,
          "midi": 61,
          "name": "C#4",
          "ticks": 37012,
          "time": 38.55416666666667,
          "velocity": 0.6535433070866141
        },
        {
          "duration": 0.8843749999999986,
          "durationTicks": 849,
          "midi": 62,
          "name": "D4",
          "ticks": 37212,
          "time": 38.7625,
          "velocity": 0.48031496062992124
        },
        {
          "duration": 0.5697916666666671,
          "durationTicks": 547,
          "midi": 64,
          "name": "E4",
          "ticks": 37404,
          "time": 38.9625,
          "velocity": 0.7086614173228346
        },
        {
          "duration": 0.25729166666666714,
          "durationTicks": 247,
          "midi": 68,
          "name": "G#4",
          "ticks": 37608,
          "time": 39.175,
          "velocity": 0.7952755905511811
        },
        {
          "duration": 1.6499999999999986,
          "durationTicks": 1584,
          "midi": 69,
          "name": "A4",
          "ticks": 37807,
          "time": 39.38229166666667,
          "velocity": 0.6456692913385826
        },
        {
          "duration": 1.16041666666667,
          "durationTicks": 1114,
          "midi": 64,
          "name": "E4",
          "ticks": 38020,
          "time": 39.604166666666664,
          "velocity": 0.6771653543307087
        },
        {
          "duration": 2.1312500000000014,
          "durationTicks": 2046,
          "midi": 62,
          "name": "D4",
          "ticks": 38168,
          "time": 39.75833333333333,
          "velocity": 0.4881889763779528
        },
        {
          "duration": 1.6531250000000028,
          "durationTicks": 1587,
          "midi": 61,
          "name": "C#4",
          "ticks": 38340,
          "time": 39.9375,
          "velocity": 0.41732283464566927
        },
        {
          "duration": 0.8739583333333343,
          "durationTicks": 839,
          "midi": 68,
          "name": "G#4",
          "ticks": 38376,
          "time": 39.975,
          "velocity": 0.03937007874015748
        },
        {
          "duration": 1.40208333333333,
          "durationTicks": 1346,
          "midi": 54,
          "name": "F#3",
          "ticks": 38542,
          "time": 40.14791666666667,
          "velocity": 0.5748031496062992
        },
        {
          "duration": 0.2395833333333286,
          "durationTicks": 230,
          "midi": 64,
          "name": "E4",
          "ticks": 39246,
          "time": 40.88125,
          "velocity": 0.7637795275590551
        },
        {
          "duration": 0.1927083333333357,
          "durationTicks": 185,
          "midi": 68,
          "name": "G#4",
          "ticks": 39496,
          "time": 41.141666666666666,
          "velocity": 0.7795275590551181
        },
        {
          "duration": 2.70729166666667,
          "durationTicks": 2599,
          "midi": 69,
          "name": "A4",
          "ticks": 39795,
          "time": 41.453125,
          "velocity": 0.7559055118110236
        },
        {
          "duration": 1.7739583333333329,
          "durationTicks": 1703,
          "midi": 54,
          "name": "F#3",
          "ticks": 40000,
          "time": 41.666666666666664,
          "velocity": 0.6456692913385826
        },
        {
          "duration": 1.4031249999999957,
          "durationTicks": 1347,
          "midi": 61,
          "name": "C#4",
          "ticks": 40169,
          "time": 41.842708333333334,
          "velocity": 0.4409448818897638
        },
        {
          "duration": 1.0229166666666671,
          "durationTicks": 982,
          "midi": 62,
          "name": "D4",
          "ticks": 40368,
          "time": 42.05,
          "velocity": 0.3858267716535433
        },
        {
          "duration": 1.6614583333333286,
          "durationTicks": 1595,
          "midi": 64,
          "name": "E4",
          "ticks": 40566,
          "time": 42.25625,
          "velocity": 0.5905511811023622
        },
        {
          "duration": 0.5989583333333357,
          "durationTicks": 575,
          "midi": 62,
          "name": "D4",
          "ticks": 41430,
          "time": 43.15625,
          "velocity": 0.29133858267716534
        },
        {
          "duration": 0.3218749999999986,
          "durationTicks": 309,
          "midi": 61,
          "name": "C#4",
          "ticks": 41595,
          "time": 43.328125,
          "velocity": 0.5354330708661418
        },
        {
          "duration": 1.35520833333333,
          "durationTicks": 1301,
          "midi": 54,
          "name": "F#3",
          "ticks": 41781,
          "time": 43.521875,
          "velocity": 0.6614173228346457
        },
        {
          "duration": 1.3562500000000028,
          "durationTicks": 1302,
          "midi": 61,
          "name": "C#4",
          "ticks": 41949,
          "time": 43.696875,
          "velocity": 0.36220472440944884
        },
        {
          "duration": 1.3208333333333329,
          "durationTicks": 1268,
          "midi": 62,
          "name": "D4",
          "ticks": 42145,
          "time": 43.901041666666664,
          "velocity": 0.4409448818897638
        },
        {
          "duration": 0.17083333333333428,
          "durationTicks": 164,
          "midi": 64,
          "name": "E4",
          "ticks": 42336,
          "time": 44.1,
          "velocity": 0.7165354330708661
        },
        {
          "duration": 0.26874999999999716,
          "durationTicks": 258,
          "midi": 68,
          "name": "G#4",
          "ticks": 42680,
          "time": 44.458333333333336,
          "velocity": 0.7874015748031497
        },
        {
          "duration": 1.0708333333333329,
          "durationTicks": 1028,
          "midi": 69,
          "name": "A4",
          "ticks": 43000,
          "time": 44.791666666666664,
          "velocity": 0.8661417322834646
        },
        {
          "duration": 1.4552083333333314,
          "durationTicks": 1397,
          "midi": 54,
          "name": "F#3",
          "ticks": 43194,
          "time": 44.99375,
          "velocity": 0.5433070866141733
        },
        {
          "duration": 1.0604166666666686,
          "durationTicks": 1018,
          "midi": 61,
          "name": "C#4",
          "ticks": 43367,
          "time": 45.17395833333333,
          "velocity": 0.5196850393700787
        },
        {
          "duration": 0.66770833333333,
          "durationTicks": 641,
          "midi": 62,
          "name": "D4",
          "ticks": 43565,
          "time": 45.380208333333336,
          "velocity": 0.41732283464566927
        },
        {
          "duration": 1.41041666666667,
          "durationTicks": 1354,
          "midi": 64,
          "name": "E4",
          "ticks": 43720,
          "time": 45.541666666666664,
          "velocity": 0.6141732283464567
        },
        {
          "duration": 1.2250000000000014,
          "durationTicks": 1176,
          "midi": 69,
          "name": "A4",
          "ticks": 44160,
          "time": 46,
          "velocity": 0.6220472440944882
        },
        {
          "duration": 0.6302083333333286,
          "durationTicks": 605,
          "midi": 62,
          "name": "D4",
          "ticks": 44307,
          "time": 46.153125,
          "velocity": 0.4645669291338583
        },
        {
          "duration": 1.2708333333333286,
          "durationTicks": 1220,
          "midi": 61,
          "name": "C#4",
          "ticks": 44480,
          "time": 46.333333333333336,
          "velocity": 0.5669291338582677
        },
        {
          "duration": 1.52708333333333,
          "durationTicks": 1466,
          "midi": 54,
          "name": "F#3",
          "ticks": 44662,
          "time": 46.52291666666667,
          "velocity": 0.6141732283464567
        },
        {
          "duration": 0.7625000000000028,
          "durationTicks": 732,
          "midi": 62,
          "name": "D4",
          "ticks": 45016,
          "time": 46.891666666666666,
          "velocity": 0.3858267716535433
        },
        {
          "duration": 0.3229166666666643,
          "durationTicks": 310,
          "midi": 64,
          "name": "E4",
          "ticks": 45256,
          "time": 47.141666666666666,
          "velocity": 0.6692913385826772
        },
        {
          "duration": 0.24583333333333002,
          "durationTicks": 236,
          "midi": 69,
          "name": "A4",
          "ticks": 45598,
          "time": 47.49791666666667,
          "velocity": 0.7952755905511811
        },
        {
          "duration": 1.1166666666666671,
          "durationTicks": 1072,
          "midi": 71,
          "name": "B4",
          "ticks": 46113,
          "time": 48.034375,
          "velocity": 0.7952755905511811
        },
        {
          "duration": 0.5885416666666714,
          "durationTicks": 565,
          "midi": 56,
          "name": "G#3",
          "ticks": 46352,
          "time": 48.28333333333333,
          "velocity": 0.5196850393700787
        },
        {
          "duration": 0.3395833333333371,
          "durationTicks": 326,
          "midi": 62,
          "name": "D4",
          "ticks": 46556,
          "time": 48.49583333333333,
          "velocity": 0.3464566929133858
        },
        {
          "duration": 0.15416666666666856,
          "durationTicks": 148,
          "midi": 64,
          "name": "E4",
          "ticks": 46763,
          "time": 48.71145833333333,
          "velocity": 0.5039370078740157
        },
        {
          "duration": 0.7052083333333314,
          "durationTicks": 677,
          "midi": 49,
          "name": "C#3",
          "ticks": 47167,
          "time": 49.13229166666667,
          "velocity": 0.5905511811023622
        },
        {
          "duration": 0.3583333333333343,
          "durationTicks": 344,
          "midi": 73,
          "name": "C#5",
          "ticks": 47195,
          "time": 49.161458333333336,
          "velocity": 0.7952755905511811
        },
        {
          "duration": 0.015625,
          "durationTicks": 15,
          "midi": 71,
          "name": "B4",
          "ticks": 47212,
          "time": 49.17916666666667,
          "velocity": 0.6692913385826772
        },
        {
          "duration": 0.421875,
          "durationTicks": 405,
          "midi": 53,
          "name": "F3",
          "ticks": 47461,
          "time": 49.438541666666666,
          "velocity": 0.5196850393700787
        },
        {
          "duration": 0.2552083333333357,
          "durationTicks": 245,
          "midi": 71,
          "name": "B4",
          "ticks": 47477,
          "time": 49.45520833333333,
          "velocity": 0.7559055118110236
        },
        {
          "duration": 0.19895833333333002,
          "durationTicks": 191,
          "midi": 59,
          "name": "B3",
          "ticks": 47713,
          "time": 49.70104166666667,
          "velocity": 0.4645669291338583
        },
        {
          "duration": 0.21979166666666572,
          "durationTicks": 211,
          "midi": 73,
          "name": "C#5",
          "ticks": 47779,
          "time": 49.76979166666667,
          "velocity": 0.6771653543307087
        },
        {
          "duration": 0.12291666666666856,
          "durationTicks": 118,
          "midi": 76,
          "name": "E5",
          "ticks": 47954,
          "time": 49.952083333333334,
          "velocity": 0.6299212598425197
        },
        {
          "duration": 0.5906249999999957,
          "durationTicks": 567,
          "midi": 54,
          "name": "F#3",
          "ticks": 48141,
          "time": 50.146875,
          "velocity": 0.41732283464566927
        },
        {
          "duration": 0.5947916666666657,
          "durationTicks": 571,
          "midi": 69,
          "name": "A4",
          "ticks": 48143,
          "time": 50.14895833333333,
          "velocity": 0.6456692913385826
        },
        {
          "duration": 0.43541666666666146,
          "durationTicks": 418,
          "midi": 61,
          "name": "C#4",
          "ticks": 48350,
          "time": 50.364583333333336,
          "velocity": 0.31496062992125984
        },
        {
          "duration": 0.33020833333333854,
          "durationTicks": 317,
          "midi": 64,
          "name": "E4",
          "ticks": 48565,
          "time": 50.588541666666664,
          "velocity": 0.4566929133858268
        },
        {
          "duration": 0.3135416666666657,
          "durationTicks": 301,
          "midi": 69,
          "name": "A4",
          "ticks": 48794,
          "time": 50.827083333333334,
          "velocity": 0.984251968503937
        },
        {
          "duration": 0.8520833333333329,
          "durationTicks": 818,
          "midi": 52,
          "name": "E3",
          "ticks": 48800,
          "time": 50.833333333333336,
          "velocity": 0.6692913385826772
        },
        {
          "duration": 0.45520833333333854,
          "durationTicks": 437,
          "midi": 61,
          "name": "C#4",
          "ticks": 49097,
          "time": 51.14270833333333,
          "velocity": 0.1732283464566929
        },
        {
          "duration": 0.20624999999999716,
          "durationTicks": 198,
          "midi": 68,
          "name": "G#4",
          "ticks": 49133,
          "time": 51.18020833333333,
          "velocity": 0.7322834645669292
        },
        {
          "duration": 0.16354166666666003,
          "durationTicks": 157,
          "midi": 69,
          "name": "A4",
          "ticks": 49474,
          "time": 51.53541666666667,
          "velocity": 0.5196850393700787
        },
        {
          "duration": 0.10833333333333428,
          "durationTicks": 104,
          "midi": 73,
          "name": "C#5",
          "ticks": 49693,
          "time": 51.76354166666667,
          "velocity": 0.48031496062992124
        },
        {
          "duration": 0.8885416666666686,
          "durationTicks": 853,
          "midi": 47,
          "name": "B2",
          "ticks": 49901,
          "time": 51.98020833333333,
          "velocity": 0.4330708661417323
        },
        {
          "duration": 1.4239583333333385,
          "durationTicks": 1367,
          "midi": 62,
          "name": "D4",
          "ticks": 49922,
          "time": 52.00208333333333,
          "velocity": 0.6929133858267716
        },
        {
          "duration": 0.6604166666666629,
          "durationTicks": 634,
          "midi": 54,
          "name": "F#3",
          "ticks": 50143,
          "time": 52.23229166666667,
          "velocity": 0.3779527559055118
        },
        {
          "duration": 0.4697916666666657,
          "durationTicks": 451,
          "midi": 57,
          "name": "A3",
          "ticks": 50423,
          "time": 52.52395833333333,
          "velocity": 0.7480314960629921
        },
        {
          "duration": 0.7718750000000014,
          "durationTicks": 741,
          "midi": 73,
          "name": "C#5",
          "ticks": 50739,
          "time": 52.853125,
          "velocity": 0.7322834645669292
        },
        {
          "duration": 0.8489583333333357,
          "durationTicks": 815,
          "midi": 52,
          "name": "E3",
          "ticks": 51055,
          "time": 53.182291666666664,
          "velocity": 0.4330708661417323
        },
        {
          "duration": 0.3062499999999986,
          "durationTicks": 294,
          "midi": 74,
          "name": "D5",
          "ticks": 51357,
          "time": 53.496875,
          "velocity": 0.5590551181102362
        },
        {
          "duration": 0.4427083333333286,
          "durationTicks": 425,
          "midi": 59,
          "name": "B3",
          "ticks": 51381,
          "time": 53.521875,
          "velocity": 0.2283464566929134
        },
        {
          "duration": 0.26875000000000426,
          "durationTicks": 258,
          "midi": 71,
          "name": "B4",
          "ticks": 51633,
          "time": 53.784375,
          "velocity": 0.2283464566929134
        },
        {
          "duration": 0.17395833333333144,
          "durationTicks": 167,
          "midi": 62,
          "name": "D4",
          "ticks": 51653,
          "time": 53.80520833333333,
          "velocity": 0.25984251968503935
        },
        {
          "duration": 0.32083333333333286,
          "durationTicks": 308,
          "midi": 73,
          "name": "C#5",
          "ticks": 51838,
          "time": 53.99791666666667,
          "velocity": 0.4645669291338583
        },
        {
          "duration": 0.80104166666667,
          "durationTicks": 769,
          "midi": 69,
          "name": "A4",
          "ticks": 52088,
          "time": 54.25833333333333,
          "velocity": 0.44881889763779526
        },
        {
          "duration": 2.0260416666666714,
          "durationTicks": 1945,
          "midi": 45,
          "name": "A2",
          "ticks": 52121,
          "time": 54.29270833333333,
          "velocity": 0.33070866141732286
        },
        {
          "duration": 1.5635416666666657,
          "durationTicks": 1501,
          "midi": 52,
          "name": "E3",
          "ticks": 52370,
          "time": 54.552083333333336,
          "velocity": 0.2992125984251969
        },
        {
          "duration": 1.1031250000000057,
          "durationTicks": 1059,
          "midi": 57,
          "name": "A3",
          "ticks": 52600,
          "time": 54.791666666666664,
          "velocity": 0.31496062992125984
        },
        {
          "duration": 0.9354166666666686,
          "durationTicks": 898,
          "midi": 61,
          "name": "C#4",
          "ticks": 52823,
          "time": 55.02395833333333,
          "velocity": 0.5354330708661418
        },
        {
          "duration": 0.33541666666666714,
          "durationTicks": 322,
          "midi": 56,
          "name": "G#3",
          "ticks": 53820,
          "time": 56.0625,
          "velocity": 0.6850393700787402
        },
        {
          "duration": 0.3020833333333357,
          "durationTicks": 290,
          "midi": 62,
          "name": "D4",
          "ticks": 53820,
          "time": 56.0625,
          "velocity": 0.7559055118110236
        },
        {
          "duration": 0.3125,
          "durationTicks": 300,
          "midi": 64,
          "name": "E4",
          "ticks": 53820,
          "time": 56.0625,
          "velocity": 0.7007874015748031
        },
        {
          "duration": 1.328125,
          "durationTicks": 1275,
          "midi": 52,
          "name": "E3",
          "ticks": 54022,
          "time": 56.27291666666667,
          "velocity": 0.4094488188976378
        },
        {
          "duration": 1.6041666666666714,
          "durationTicks": 1540,
          "midi": 45,
          "name": "A2",
          "ticks": 54191,
          "time": 56.44895833333333,
          "velocity": 0.5669291338582677
        },
        {
          "duration": 0.8187500000000014,
          "durationTicks": 786,
          "midi": 61,
          "name": "C#4",
          "ticks": 54212,
          "time": 56.47083333333333,
          "velocity": 0.5511811023622047
        },
        {
          "duration": 0.5125000000000028,
          "durationTicks": 492,
          "midi": 48,
          "name": "C3",
          "ticks": 55218,
          "time": 57.51875,
          "velocity": 0.03937007874015748
        }
      ],
      "endOfTrackTicks": 78720
    }
  ]
}