{
    "header": {
      "keySignatures": [
        {
          "key": "C",
          "scale": "major",
          "ticks": 0
        }
      ],
      "meta": [],
      "name": "我的野蛮女友－背景音乐",
      "ppq": 480,
      "tempos": [
        {
          "bpm": 125,
          "ticks": 0
        }
      ],
      "timeSignatures": [
        {
          "ticks": 0,
          "timeSignature": [
            4,
            4
          ],
          "measures": 0
        }
      ]
    },
    "tracks": [
      {
        "channel": 0,
        "controlChanges": {
          "0": [
            {
              "number": 0,
              "ticks": 0,
              "time": 0,
              "value": 0
            }
          ]
        },
        "pitchBends": [],
        "instrument": {
          "family": "piano",
          "number": 0,
          "name": "acoustic grand piano"
        },
        "name": "Piano",
        "notes": [],
        "endOfTrackTicks": 115200
      },
      {
        "channel": 0,
        "controlChanges": {
          "6": [
            {
              "number": 6,
              "ticks": 0,
              "time": 0,
              "value": 0.09448818897637795
            },
            {
              "number": 6,
              "ticks": 0,
              "time": 0,
              "value": 0.5039370078740157
            }
          ],
          "10": [
            {
              "number": 10,
              "ticks": 0,
              "time": 0,
              "value": 0.5039370078740157
            },
            {
              "number": 10,
              "ticks": 0,
              "time": 0,
              "value": 0.5039370078740157
            }
          ],
          "38": [
            {
              "number": 38,
              "ticks": 0,
              "time": 0,
              "value": 0
            }
          ],
          "91": [
            {
              "number": 91,
              "ticks": 0,
              "time": 0,
              "value": 0
            }
          ],
          "92": [
            {
              "number": 92,
              "ticks": 0,
              "time": 0,
              "value": 0
            }
          ],
          "93": [
            {
              "number": 93,
              "ticks": 0,
              "time": 0,
              "value": 0
            }
          ],
          "95": [
            {
              "number": 95,
              "ticks": 0,
              "time": 0,
              "value": 0
            }
          ],
          "100": [
            {
              "number": 100,
              "ticks": 0,
              "time": 0,
              "value": 0
            },
            {
              "number": 100,
              "ticks": 0,
              "time": 0,
              "value": 0.007874015748031496
            },
            {
              "number": 100,
              "ticks": 0,
              "time": 0,
              "value": 0.015748031496062992
            },
            {
              "number": 100,
              "ticks": 0,
              "time": 0,
              "value": 1
            }
          ],
          "101": [
            {
              "number": 101,
              "ticks": 0,
              "time": 0,
              "value": 0
            },
            {
              "number": 101,
              "ticks": 0,
              "time": 0,
              "value": 1
            }
          ]
        },
        "pitchBends": [
          {
            "ticks": 0,
            "time": 0,
            "value": 0
          }
        ],
        "instrument": {
          "family": "bass",
          "number": 38,
          "name": "synth bass 1"
        },
        "name": "",
        "notes": [
          {
            "duration": 0.2400000000000002,
            "durationTicks": 240,
            "midi": 88,
            "name": "E6",
            "ticks": 1920,
            "time": 1.92,
            "velocity": 0.6692913385826772
          },
          {
            "duration": 0.17799999999999994,
            "durationTicks": 178,
            "midi": 87,
            "name": "D#6",
            "ticks": 2222,
            "time": 2.222,
            "velocity": 0.6692913385826772
          },
          {
            "duration": 0.23999999999999977,
            "durationTicks": 240,
            "midi": 88,
            "name": "E6",
            "ticks": 2400,
            "time": 2.4,
            "velocity": 0.6692913385826772
          },
          {
            "duration": 0.17799999999999994,
            "durationTicks": 178,
            "midi": 79,
            "name": "G5",
            "ticks": 2702,
            "time": 2.702,
            "velocity": 0.6692913385826772
          },
          {
            "duration": 0.17799999999999994,
            "durationTicks": 178,
            "midi": 79,
            "name": "G5",
            "ticks": 3182,
            "time": 3.182,
            "velocity": 0.6692913385826772
          },
          {
            "duration": 0.23999999999999977,
            "durationTicks": 240,
            "midi": 81,
            "name": "A5",
            "ticks": 3360,
            "time": 3.36,
            "velocity": 0.6692913385826772
          },
          {
            "duration": 0.17799999999999994,
            "durationTicks": 178,
            "midi": 82,
            "name": "A#5",
            "ticks": 3662,
            "time": 3.662,
            "velocity": 0.6692913385826772
          },
          {
            "duration": 0.2400000000000002,
            "durationTicks": 240,
            "midi": 83,
            "name": "B5",
            "ticks": 3840,
            "time": 3.84,
            "velocity": 0.6692913385826772
          },
          {
            "duration": 0.23999999999999932,
            "durationTicks": 240,
            "midi": 83,
            "name": "B5",
            "ticks": 4320,
            "time": 4.32,
            "velocity": 0.6692913385826772
          },
          {
            "duration": 0.17799999999999994,
            "durationTicks": 178,
            "midi": 82,
            "name": "A#5",
            "ticks": 4622,
            "time": 4.622,
            "velocity": 0.6692913385826772
          },
          {
            "duration": 0.2400000000000002,
            "durationTicks": 240,
            "midi": 81,
            "name": "A5",
            "ticks": 4800,
            "time": 4.8,
            "velocity": 0.6692913385826772
          },
          {
            "duration": 0.17799999999999994,
            "durationTicks": 178,
            "midi": 80,
            "name": "G#5",
            "ticks": 5102,
            "time": 5.101999999999999,
            "velocity": 0.6692913385826772
          },
          {
            "duration": 0.2400000000000002,
            "durationTicks": 240,
            "midi": 81,
            "name": "A5",
            "ticks": 5280,
            "time": 5.279999999999999,
            "velocity": 0.6692913385826772
          },
          {
            "duration": 0.08000000000000007,
            "durationTicks": 80,
            "midi": 77,
            "name": "F5",
            "ticks": 5600,
            "time": 5.6,
            "velocity": 0.6692913385826772
          },
          {
            "duration": 0.08000000000000007,
            "durationTicks": 80,
            "midi": 86,
            "name": "D6",
            "ticks": 5600,
            "time": 5.6,
            "velocity": 0.6692913385826772
          },
          {
            "duration": 0.08000000000000007,
            "durationTicks": 80,
            "midi": 76,
            "name": "E5",
            "ticks": 5680,
            "time": 5.68,
            "velocity": 0.6692913385826772
          },
          {
            "duration": 0.08000000000000007,
            "durationTicks": 80,
            "midi": 88,
            "name": "E6",
            "ticks": 5680,
            "time": 5.68,
            "velocity": 0.6692913385826772
          },
          {
            "duration": 0.2400000000000002,
            "durationTicks": 240,
            "midi": 74,
            "name": "D5",
            "ticks": 5760,
            "time": 5.76,
            "velocity": 0.6692913385826772
          },
          {
            "duration": 0.2400000000000002,
            "durationTicks": 240,
            "midi": 89,
            "name": "F6",
            "ticks": 5760,
            "time": 5.76,
            "velocity": 0.6692913385826772
          },
          {
            "duration": 0.17800000000000082,
            "durationTicks": 178,
            "midi": 88,
            "name": "E6",
            "ticks": 6062,
            "time": 6.061999999999999,
            "velocity": 0.6692913385826772
          },
          {
            "duration": 0.23999999999999932,
            "durationTicks": 240,
            "midi": 89,
            "name": "F6",
            "ticks": 6240,
            "time": 6.24,
            "velocity": 0.6692913385826772
          },
          {
            "duration": 0.17799999999999994,
            "durationTicks": 178,
            "midi": 81,
            "name": "A5",
            "ticks": 6542,
            "time": 6.542,
            "velocity": 0.6692913385826772
          },
          {
            "duration": 0.17799999999999994,
            "durationTicks": 178,
            "midi": 81,
            "name": "A5",
            "ticks": 7022,
            "time": 7.021999999999999,
            "velocity": 0.6692913385826772
          },
          {
            "duration": 0.17799999999999994,
            "durationTicks": 178,
            "midi": 80,
            "name": "G#5",
            "ticks": 7502,
            "time": 7.502,
            "velocity": 0.6692913385826772
          },
          {
            "duration": 0.2400000000000002,
            "durationTicks": 240,
            "midi": 79,
            "name": "G5",
            "ticks": 7680,
            "time": 7.68,
            "velocity": 0.6692913385826772
          },
          {
            "duration": 0.2400000000000002,
            "durationTicks": 240,
            "midi": 77,
            "name": "F5",
            "ticks": 8160,
            "time": 8.16,
            "velocity": 0.6692913385826772
          },
          {
            "duration": 0.2400000000000002,
            "durationTicks": 240,
            "midi": 79,
            "name": "G5",
            "ticks": 8160,
            "time": 8.16,
            "velocity": 0.6692913385826772
          },
          {
            "duration": 0.2400000000000002,
            "durationTicks": 240,
            "midi": 83,
            "name": "B5",
            "ticks": 8160,
            "time": 8.16,
            "velocity": 0.6692913385826772
          },
          {
            "duration": 0.2400000000000002,
            "durationTicks": 240,
            "midi": 88,
            "name": "E6",
            "ticks": 8160,
            "time": 8.16,
            "velocity": 0.6692913385826772
          },
          {
            "duration": 0.23999999999999844,
            "durationTicks": 240,
            "midi": 78,
            "name": "F#5",
            "ticks": 8640,
            "time": 8.64,
            "velocity": 0.6692913385826772
          },
          {
            "duration": 0.23999999999999844,
            "durationTicks": 240,
            "midi": 82,
            "name": "A#5",
            "ticks": 8640,
            "time": 8.64,
            "velocity": 0.6692913385826772
          },
          {
            "duration": 0.23999999999999844,
            "durationTicks": 240,
            "midi": 84,
            "name": "C6",
            "ticks": 8640,
            "time": 8.64,
            "velocity": 0.6692913385826772
          },
          {
            "duration": 0.23999999999999844,
            "durationTicks": 240,
            "midi": 87,
            "name": "D#6",
            "ticks": 8640,
            "time": 8.64,
            "velocity": 0.6692913385826772
          },
          {
            "duration": 0.2400000000000002,
            "durationTicks": 240,
            "midi": 77,
            "name": "F5",
            "ticks": 9120,
            "time": 9.12,
            "velocity": 0.6692913385826772
          },
          {
            "duration": 0.2400000000000002,
            "durationTicks": 240,
            "midi": 80,
            "name": "G#5",
            "ticks": 9120,
            "time": 9.12,
            "velocity": 0.6692913385826772
          },
          {
            "duration": 0.2400000000000002,
            "durationTicks": 240,
            "midi": 83,
            "name": "B5",
            "ticks": 9120,
            "time": 9.12,
            "velocity": 0.6692913385826772
          },
          {
            "duration": 0.2400000000000002,
            "durationTicks": 240,
            "midi": 86,
            "name": "D6",
            "ticks": 9120,
            "time": 9.12,
            "velocity": 0.6692913385826772
          },
          {
            "duration": 0.2400000000000002,
            "durationTicks": 240,
            "midi": 88,
            "name": "E6",
            "ticks": 9600,
            "time": 9.6,
            "velocity": 0.6692913385826772
          },
          {
            "duration": 0.17800000000000082,
            "durationTicks": 178,
            "midi": 87,
            "name": "D#6",
            "ticks": 9902,
            "time": 9.902,
            "velocity": 0.6692913385826772
          },
          {
            "duration": 0.2400000000000002,
            "durationTicks": 240,
            "midi": 88,
            "name": "E6",
            "ticks": 10080,
            "time": 10.08,
            "velocity": 0.6692913385826772
          },
          {
            "duration": 0.17799999999999905,
            "durationTicks": 178,
            "midi": 79,
            "name": "G5",
            "ticks": 10382,
            "time": 10.382,
            "velocity": 0.6692913385826772
          },
          {
            "duration": 0.17799999999999905,
            "durationTicks": 178,
            "midi": 79,
            "name": "G5",
            "ticks": 10862,
            "time": 10.862,
            "velocity": 0.6692913385826772
          },
          {
            "duration": 0.2400000000000002,
            "durationTicks": 240,
            "midi": 81,
            "name": "A5",
            "ticks": 11040,
            "time": 11.04,
            "velocity": 0.6692913385826772
          },
          {
            "duration": 0.17800000000000082,
            "durationTicks": 178,
            "midi": 82,
            "name": "A#5",
            "ticks": 11342,
            "time": 11.341999999999999,
            "velocity": 0.6692913385826772
          },
          {
            "duration": 0.2400000000000002,
            "durationTicks": 240,
            "midi": 83,
            "name": "B5",
            "ticks": 11520,
            "time": 11.52,
            "velocity": 0.6692913385826772
          },
          {
            "duration": 0.2400000000000002,
            "durationTicks": 240,
            "midi": 83,
            "name": "B5",
            "ticks": 12000,
            "time": 12,
            "velocity": 0.6692913385826772
          },
          {
            "duration": 0.17800000000000082,
            "durationTicks": 178,
            "midi": 82,
            "name": "A#5",
            "ticks": 12302,
            "time": 12.302,
            "velocity": 0.6692913385826772
          },
          {
            "duration": 0.23999999999999844,
            "durationTicks": 240,
            "midi": 81,
            "name": "A5",
            "ticks": 12480,
            "time": 12.48,
            "velocity": 0.6692913385826772
          },
          {
            "duration": 0.17799999999999905,
            "durationTicks": 178,
            "midi": 80,
            "name": "G#5",
            "ticks": 12782,
            "time": 12.782,
            "velocity": 0.6692913385826772
          },
          {
            "duration": 0.2400000000000002,
            "durationTicks": 240,
            "midi": 81,
            "name": "A5",
            "ticks": 12960,
            "time": 12.959999999999999,
            "velocity": 0.6692913385826772
          },
          {
            "duration": 0.08000000000000007,
            "durationTicks": 80,
            "midi": 77,
            "name": "F5",
            "ticks": 13280,
            "time": 13.28,
            "velocity": 0.6692913385826772
          },
          {
            "duration": 0.08000000000000007,
            "durationTicks": 80,
            "midi": 86,
            "name": "D6",
            "ticks": 13280,
            "time": 13.28,
            "velocity": 0.6692913385826772
          },
          {
            "duration": 0.08000000000000007,
            "durationTicks": 80,
            "midi": 76,
            "name": "E5",
            "ticks": 13360,
            "time": 13.36,
            "velocity": 0.6692913385826772
          },
          {
            "duration": 0.08000000000000007,
            "durationTicks": 80,
            "midi": 88,
            "name": "E6",
            "ticks": 13360,
            "time": 13.36,
            "velocity": 0.6692913385826772
          },
          {
            "duration": 0.2400000000000002,
            "durationTicks": 240,
            "midi": 74,
            "name": "D5",
            "ticks": 13440,
            "time": 13.44,
            "velocity": 0.6692913385826772
          },
          {
            "duration": 0.2400000000000002,
            "durationTicks": 240,
            "midi": 89,
            "name": "F6",
            "ticks": 13440,
            "time": 13.44,
            "velocity": 0.6692913385826772
          },
          {
            "duration": 0.17800000000000082,
            "durationTicks": 178,
            "midi": 88,
            "name": "E6",
            "ticks": 13742,
            "time": 13.741999999999999,
            "velocity": 0.6692913385826772
          },
          {
            "duration": 0.2400000000000002,
            "durationTicks": 240,
            "midi": 89,
            "name": "F6",
            "ticks": 13920,
            "time": 13.92,
            "velocity": 0.6692913385826772
          },
          {
            "duration": 0.17799999999999905,
            "durationTicks": 178,
            "midi": 81,
            "name": "A5",
            "ticks": 14222,
            "time": 14.222,
            "velocity": 0.6692913385826772
          },
          {
            "duration": 0.17799999999999905,
            "durationTicks": 178,
            "midi": 77,
            "name": "F5",
            "ticks": 14702,
            "time": 14.702,
            "velocity": 0.6692913385826772
          },
          {
            "duration": 0.17799999999999905,
            "durationTicks": 178,
            "midi": 81,
            "name": "A5",
            "ticks": 14702,
            "time": 14.702,
            "velocity": 0.6692913385826772
          },
          {
            "duration": 0.17799999999999905,
            "durationTicks": 178,
            "midi": 83,
            "name": "B5",
            "ticks": 14702,
            "time": 14.702,
            "velocity": 0.6692913385826772
          },
          {
            "duration": 0.17799999999999905,
            "durationTicks": 178,
            "midi": 88,
            "name": "E6",
            "ticks": 14702,
            "time": 14.702,
            "velocity": 0.6692913385826772
          },
          {
            "duration": 0.2400000000000002,
            "durationTicks": 240,
            "midi": 76,
            "name": "E5",
            "ticks": 15360,
            "time": 15.36,
            "velocity": 0.6692913385826772
          },
          {
            "duration": 0.2400000000000002,
            "durationTicks": 240,
            "midi": 79,
            "name": "G5",
            "ticks": 15360,
            "time": 15.36,
            "velocity": 0.6692913385826772
          },
          {
            "duration": 0.2400000000000002,
            "durationTicks": 240,
            "midi": 84,
            "name": "C6",
            "ticks": 15360,
            "time": 15.36,
            "velocity": 0.6692913385826772
          },
          {
            "duration": 0.4800000000000004,
            "durationTicks": 480,
            "midi": 72,
            "name": "C5",
            "ticks": 15840,
            "time": 15.84,
            "velocity": 0.6692913385826772
          },
          {
            "duration": 0.4800000000000004,
            "durationTicks": 480,
            "midi": 76,
            "name": "E5",
            "ticks": 15840,
            "time": 15.84,
            "velocity": 0.6692913385826772
          },
          {
            "duration": 0.4800000000000004,
            "durationTicks": 480,
            "midi": 79,
            "name": "G5",
            "ticks": 15840,
            "time": 15.84,
            "velocity": 0.6692913385826772
          },
          {
            "duration": 0.4800000000000004,
            "durationTicks": 480,
            "midi": 78,
            "name": "F#5",
            "ticks": 16320,
            "time": 16.32,
            "velocity": 0.6692913385826772
          },
          {
            "duration": 0.23999999999999844,
            "durationTicks": 240,
            "midi": 79,
            "name": "G5",
            "ticks": 16800,
            "time": 16.8,
            "velocity": 0.6692913385826772
          },
          {
            "duration": 0.23999999999999844,
            "durationTicks": 240,
            "midi": 88,
            "name": "E6",
            "ticks": 17280,
            "time": 17.28,
            "velocity": 0.6692913385826772
          },
          {
            "duration": 0.17799999999999727,
            "durationTicks": 178,
            "midi": 87,
            "name": "D#6",
            "ticks": 17582,
            "time": 17.582,
            "velocity": 0.6692913385826772
          },
          {
            "duration": 0.240000000000002,
            "durationTicks": 240,
            "midi": 88,
            "name": "E6",
            "ticks": 17760,
            "time": 17.759999999999998,
            "velocity": 0.6692913385826772
          },
          {
            "duration": 0.17799999999999727,
            "durationTicks": 178,
            "midi": 79,
            "name": "G5",
            "ticks": 18062,
            "time": 18.062,
            "velocity": 0.6692913385826772
          },
          {
            "duration": 0.17799999999999727,
            "durationTicks": 178,
            "midi": 79,
            "name": "G5",
            "ticks": 18542,
            "time": 18.542,
            "velocity": 0.6692913385826772
          },
          {
            "duration": 0.240000000000002,
            "durationTicks": 240,
            "midi": 81,
            "name": "A5",
            "ticks": 18720,
            "time": 18.72,
            "velocity": 0.6692913385826772
          },
          {
            "duration": 0.17799999999999727,
            "durationTicks": 178,
            "midi": 82,
            "name": "A#5",
            "ticks": 19022,
            "time": 19.022000000000002,
            "velocity": 0.6692913385826772
          },
          {
            "duration": 0.23999999999999844,
            "durationTicks": 240,
            "midi": 83,
            "name": "B5",
            "ticks": 19200,
            "time": 19.2,
            "velocity": 0.6692913385826772
          },
          {
            "duration": 0.23999999999999844,
            "durationTicks": 240,
            "midi": 83,
            "name": "B5",
            "ticks": 19680,
            "time": 19.68,
            "velocity": 0.6692913385826772
          },
          {
            "duration": 0.17800000000000082,
            "durationTicks": 178,
            "midi": 82,
            "name": "A#5",
            "ticks": 19982,
            "time": 19.982,
            "velocity": 0.6692913385826772
          },
          {
            "duration": 0.23999999999999844,
            "durationTicks": 240,
            "midi": 81,
            "name": "A5",
            "ticks": 20160,
            "time": 20.16,
            "velocity": 0.6692913385826772
          },
          {
            "duration": 0.17800000000000082,
            "durationTicks": 178,
            "midi": 80,
            "name": "G#5",
            "ticks": 20462,
            "time": 20.462,
            "velocity": 0.6692913385826772
          },
          {
            "duration": 0.23999999999999844,
            "durationTicks": 240,
            "midi": 81,
            "name": "A5",
            "ticks": 20640,
            "time": 20.64,
            "velocity": 0.6692913385826772
          },
          {
            "duration": 0.08000000000000185,
            "durationTicks": 80,
            "midi": 77,
            "name": "F5",
            "ticks": 20960,
            "time": 20.959999999999997,
            "velocity": 0.6692913385826772
          },
          {
            "duration": 0.08000000000000185,
            "durationTicks": 80,
            "midi": 86,
            "name": "D6",
            "ticks": 20960,
            "time": 20.959999999999997,
            "velocity": 0.6692913385826772
          },
          {
            "duration": 0.0799999999999983,
            "durationTicks": 80,
            "midi": 76,
            "name": "E5",
            "ticks": 21040,
            "time": 21.04,
            "velocity": 0.6692913385826772
          },
          {
            "duration": 0.0799999999999983,
            "durationTicks": 80,
            "midi": 88,
            "name": "E6",
            "ticks": 21040,
            "time": 21.04,
            "velocity": 0.6692913385826772
          },
          {
            "duration": 0.240000000000002,
            "durationTicks": 240,
            "midi": 74,
            "name": "D5",
            "ticks": 21120,
            "time": 21.119999999999997,
            "velocity": 0.6692913385826772
          },
          {
            "duration": 0.240000000000002,
            "durationTicks": 240,
            "midi": 89,
            "name": "F6",
            "ticks": 21120,
            "time": 21.119999999999997,
            "velocity": 0.6692913385826772
          },
          {
            "duration": 0.17799999999999727,
            "durationTicks": 178,
            "midi": 88,
            "name": "E6",
            "ticks": 21422,
            "time": 21.422,
            "velocity": 0.6692913385826772
          },
          {
            "duration": 0.240000000000002,
            "durationTicks": 240,
            "midi": 89,
            "name": "F6",
            "ticks": 21600,
            "time": 21.599999999999998,
            "velocity": 0.6692913385826772
          },
          {
            "duration": 0.17799999999999727,
            "durationTicks": 178,
            "midi": 81,
            "name": "A5",
            "ticks": 21902,
            "time": 21.902,
            "velocity": 0.6692913385826772
          },
          {
            "duration": 0.17799999999999727,
            "durationTicks": 178,
            "midi": 81,
            "name": "A5",
            "ticks": 22382,
            "time": 22.382,
            "velocity": 0.6692913385826772
          },
          {
            "duration": 0.17799999999999727,
            "durationTicks": 178,
            "midi": 80,
            "name": "G#5",
            "ticks": 22862,
            "time": 22.862000000000002,
            "velocity": 0.6692913385826772
          },
          {
            "duration": 0.23999999999999844,
            "durationTicks": 240,
            "midi": 79,
            "name": "G5",
            "ticks": 23040,
            "time": 23.04,
            "velocity": 0.6692913385826772
          },
          {
            "duration": 0.23999999999999844,
            "durationTicks": 240,
            "midi": 77,
            "name": "F5",
            "ticks": 23520,
            "time": 23.52,
            "velocity": 0.6692913385826772
          },
          {
            "duration": 0.23999999999999844,
            "durationTicks": 240,
            "midi": 79,
            "name": "G5",
            "ticks": 23520,
            "time": 23.52,
            "velocity": 0.6692913385826772
          },
          {
            "duration": 0.23999999999999844,
            "durationTicks": 240,
            "midi": 83,
            "name": "B5",
            "ticks": 23520,
            "time": 23.52,
            "velocity": 0.6692913385826772
          },
          {
            "duration": 0.23999999999999844,
            "durationTicks": 240,
            "midi": 88,
            "name": "E6",
            "ticks": 23520,
            "time": 23.52,
            "velocity": 0.6692913385826772
          },
          {
            "duration": 0.23999999999999844,
            "durationTicks": 240,
            "midi": 78,
            "name": "F#5",
            "ticks": 24000,
            "time": 24,
            "velocity": 0.6692913385826772
          },
          {
            "duration": 0.23999999999999844,
            "durationTicks": 240,
            "midi": 82,
            "name": "A#5",
            "ticks": 24000,
            "time": 24,
            "velocity": 0.6692913385826772
          },
          {
            "duration": 0.23999999999999844,
            "durationTicks": 240,
            "midi": 84,
            "name": "C6",
            "ticks": 24000,
            "time": 24,
            "velocity": 0.6692913385826772
          },
          {
            "duration": 0.23999999999999844,
            "durationTicks": 240,
            "midi": 87,
            "name": "D#6",
            "ticks": 24000,
            "time": 24,
            "velocity": 0.6692913385826772
          },
          {
            "duration": 0.23999999999999844,
            "durationTicks": 240,
            "midi": 77,
            "name": "F5",
            "ticks": 24480,
            "time": 24.48,
            "velocity": 0.6692913385826772
          },
          {
            "duration": 0.23999999999999844,
            "durationTicks": 240,
            "midi": 80,
            "name": "G#5",
            "ticks": 24480,
            "time": 24.48,
            "velocity": 0.6692913385826772
          },
          {
            "duration": 0.23999999999999844,
            "durationTicks": 240,
            "midi": 83,
            "name": "B5",
            "ticks": 24480,
            "time": 24.48,
            "velocity": 0.6692913385826772
          },
          {
            "duration": 0.23999999999999844,
            "durationTicks": 240,
            "midi": 86,
            "name": "D6",
            "ticks": 24480,
            "time": 24.48,
            "velocity": 0.6692913385826772
          },
          {
            "duration": 0.23999999999999844,
            "durationTicks": 240,
            "midi": 88,
            "name": "E6",
            "ticks": 24960,
            "time": 24.96,
            "velocity": 0.6692913385826772
          },
          {
            "duration": 0.17799999999999727,
            "durationTicks": 178,
            "midi": 87,
            "name": "D#6",
            "ticks": 25262,
            "time": 25.262,
            "velocity": 0.6692913385826772
          },
          {
            "duration": 0.240000000000002,
            "durationTicks": 240,
            "midi": 88,
            "name": "E6",
            "ticks": 25440,
            "time": 25.439999999999998,
            "velocity": 0.6692913385826772
          },
          {
            "duration": 0.17799999999999727,
            "durationTicks": 178,
            "midi": 79,
            "name": "G5",
            "ticks": 25742,
            "time": 25.742,
            "velocity": 0.6692913385826772
          },
          {
            "duration": 0.17799999999999727,
            "durationTicks": 178,
            "midi": 79,
            "name": "G5",
            "ticks": 26222,
            "time": 26.222,
            "velocity": 0.6692913385826772
          },
          {
            "duration": 0.240000000000002,
            "durationTicks": 240,
            "midi": 81,
            "name": "A5",
            "ticks": 26400,
            "time": 26.4,
            "velocity": 0.6692913385826772
          },
          {
            "duration": 0.17799999999999727,
            "durationTicks": 178,
            "midi": 82,
            "name": "A#5",
            "ticks": 26702,
            "time": 26.702,
            "velocity": 0.6692913385826772
          },
          {
            "duration": 0.23999999999999844,
            "durationTicks": 240,
            "midi": 83,
            "name": "B5",
            "ticks": 26880,
            "time": 26.88,
            "velocity": 0.6692913385826772
          },
          {
            "duration": 0.23999999999999844,
            "durationTicks": 240,
            "midi": 83,
            "name": "B5",
            "ticks": 27360,
            "time": 27.36,
            "velocity": 0.6692913385826772
          },
          {
            "duration": 0.17800000000000082,
            "durationTicks": 178,
            "midi": 82,
            "name": "A#5",
            "ticks": 27662,
            "time": 27.662,
            "velocity": 0.6692913385826772
          },
          {
            "duration": 0.23999999999999844,
            "durationTicks": 240,
            "midi": 81,
            "name": "A5",
            "ticks": 27840,
            "time": 27.84,
            "velocity": 0.6692913385826772
          },
          {
            "duration": 0.17800000000000082,
            "durationTicks": 178,
            "midi": 80,
            "name": "G#5",
            "ticks": 28142,
            "time": 28.142,
            "velocity": 0.6692913385826772
          },
          {
            "duration": 0.23999999999999844,
            "durationTicks": 240,
            "midi": 81,
            "name": "A5",
            "ticks": 28320,
            "time": 28.32,
            "velocity": 0.6692913385826772
          },
          {
            "duration": 0.08000000000000185,
            "durationTicks": 80,
            "midi": 77,
            "name": "F5",
            "ticks": 28640,
            "time": 28.639999999999997,
            "velocity": 0.6692913385826772
          },
          {
            "duration": 0.08000000000000185,
            "durationTicks": 80,
            "midi": 86,
            "name": "D6",
            "ticks": 28640,
            "time": 28.639999999999997,
            "velocity": 0.6692913385826772
          },
          {
            "duration": 0.0799999999999983,
            "durationTicks": 80,
            "midi": 76,
            "name": "E5",
            "ticks": 28720,
            "time": 28.72,
            "velocity": 0.6692913385826772
          },
          {
            "duration": 0.0799999999999983,
            "durationTicks": 80,
            "midi": 88,
            "name": "E6",
            "ticks": 28720,
            "time": 28.72,
            "velocity": 0.6692913385826772
          },
          {
            "duration": 0.240000000000002,
            "durationTicks": 240,
            "midi": 74,
            "name": "D5",
            "ticks": 28800,
            "time": 28.799999999999997,
            "velocity": 0.6692913385826772
          },
          {
            "duration": 0.240000000000002,
            "durationTicks": 240,
            "midi": 89,
            "name": "F6",
            "ticks": 28800,
            "time": 28.799999999999997,
            "velocity": 0.6692913385826772
          },
          {
            "duration": 0.17799999999999727,
            "durationTicks": 178,
            "midi": 88,
            "name": "E6",
            "ticks": 29102,
            "time": 29.102,
            "velocity": 0.6692913385826772
          },
          {
            "duration": 0.240000000000002,
            "durationTicks": 240,
            "midi": 89,
            "name": "F6",
            "ticks": 29280,
            "time": 29.279999999999998,
            "velocity": 0.6692913385826772
          },
          {
            "duration": 0.17799999999999727,
            "durationTicks": 178,
            "midi": 81,
            "name": "A5",
            "ticks": 29582,
            "time": 29.582,
            "velocity": 0.6692913385826772
          },
          {
            "duration": 0.17799999999999727,
            "durationTicks": 178,
            "midi": 77,
            "name": "F5",
            "ticks": 30062,
            "time": 30.062,
            "velocity": 0.6692913385826772
          },
          {
            "duration": 0.17799999999999727,
            "durationTicks": 178,
            "midi": 81,
            "name": "A5",
            "ticks": 30062,
            "time": 30.062,
            "velocity": 0.6692913385826772
          },
          {
            "duration": 0.17799999999999727,
            "durationTicks": 178,
            "midi": 83,
            "name": "B5",
            "ticks": 30062,
            "time": 30.062,
            "velocity": 0.6692913385826772
          },
          {
            "duration": 0.17799999999999727,
            "durationTicks": 178,
            "midi": 88,
            "name": "E6",
            "ticks": 30062,
            "time": 30.062,
            "velocity": 0.6692913385826772
          },
          {
            "duration": 0.23999999999999844,
            "durationTicks": 240,
            "midi": 76,
            "name": "E5",
            "ticks": 30720,
            "time": 30.72,
            "velocity": 0.6692913385826772
          },
          {
            "duration": 0.23999999999999844,
            "durationTicks": 240,
            "midi": 79,
            "name": "G5",
            "ticks": 30720,
            "time": 30.72,
            "velocity": 0.6692913385826772
          },
          {
            "duration": 0.23999999999999844,
            "durationTicks": 240,
            "midi": 84,
            "name": "C6",
            "ticks": 30720,
            "time": 30.72,
            "velocity": 0.6692913385826772
          },
          {
            "duration": 0.23999999999999844,
            "durationTicks": 240,
            "midi": 79,
            "name": "G5",
            "ticks": 31200,
            "time": 31.2,
            "velocity": 0.6692913385826772
          },
          {
            "duration": 0.23999999999999844,
            "durationTicks": 240,
            "midi": 88,
            "name": "E6",
            "ticks": 31200,
            "time": 31.2,
            "velocity": 0.6692913385826772
          },
          {
            "duration": 0.23999999999999844,
            "durationTicks": 240,
            "midi": 77,
            "name": "F5",
            "ticks": 31680,
            "time": 31.68,
            "velocity": 0.6692913385826772
          },
          {
            "duration": 0.23999999999999844,
            "durationTicks": 240,
            "midi": 84,
            "name": "C6",
            "ticks": 31680,
            "time": 31.68,
            "velocity": 0.6692913385826772
          },
          {
            "duration": 0.23999999999999844,
            "durationTicks": 240,
            "midi": 89,
            "name": "F6",
            "ticks": 31680,
            "time": 31.68,
            "velocity": 0.6692913385826772
          },
          {
            "duration": 0.240000000000002,
            "durationTicks": 240,
            "midi": 78,
            "name": "F#5",
            "ticks": 32160,
            "time": 32.16,
            "velocity": 0.6692913385826772
          },
          {
            "duration": 0.240000000000002,
            "durationTicks": 240,
            "midi": 85,
            "name": "C#6",
            "ticks": 32160,
            "time": 32.16,
            "velocity": 0.6692913385826772
          },
          {
            "duration": 0.240000000000002,
            "durationTicks": 240,
            "midi": 90,
            "name": "F#6",
            "ticks": 32160,
            "time": 32.16,
            "velocity": 0.6692913385826772
          },
          {
            "duration": 0.17800000000000438,
            "durationTicks": 178,
            "midi": 91,
            "name": "G6",
            "ticks": 32462,
            "time": 32.461999999999996,
            "velocity": 0.6692913385826772
          },
          {
            "duration": 0.23999999999999488,
            "durationTicks": 240,
            "midi": 80,
            "name": "G#5",
            "ticks": 32640,
            "time": 32.64,
            "velocity": 0.6692913385826772
          },
          {
            "duration": 0.23999999999999488,
            "durationTicks": 240,
            "midi": 87,
            "name": "D#6",
            "ticks": 32640,
            "time": 32.64,
            "velocity": 0.6692913385826772
          },
          {
            "duration": 0.23999999999999488,
            "durationTicks": 240,
            "midi": 92,
            "name": "G#6",
            "ticks": 32640,
            "time": 32.64,
            "velocity": 0.6692913385826772
          },
          {
            "duration": 0.0800000000000054,
            "durationTicks": 80,
            "midi": 91,
            "name": "G6",
            "ticks": 32880,
            "time": 32.879999999999995,
            "velocity": 0.6692913385826772
          },
          {
            "duration": 0.0799999999999983,
            "durationTicks": 80,
            "midi": 92,
            "name": "G#6",
            "ticks": 32960,
            "time": 32.96,
            "velocity": 0.6692913385826772
          },
          {
            "duration": 0.0799999999999983,
            "durationTicks": 80,
            "midi": 91,
            "name": "G6",
            "ticks": 33040,
            "time": 33.04,
            "velocity": 0.6692913385826772
          },
          {
            "duration": 0.240000000000002,
            "durationTicks": 240,
            "midi": 89,
            "name": "F6",
            "ticks": 33120,
            "time": 33.12,
            "velocity": 0.6692913385826772
          },
          {
            "duration": 0.17800000000000438,
            "durationTicks": 178,
            "midi": 84,
            "name": "C6",
            "ticks": 33422,
            "time": 33.422,
            "velocity": 0.6692913385826772
          },
          {
            "duration": 0.23999999999999488,
            "durationTicks": 240,
            "midi": 87,
            "name": "D#6",
            "ticks": 33600,
            "time": 33.6,
            "velocity": 0.6692913385826772
          },
          {
            "duration": 0.0800000000000054,
            "durationTicks": 80,
            "midi": 86,
            "name": "D6",
            "ticks": 33840,
            "time": 33.839999999999996,
            "velocity": 0.6692913385826772
          },
          {
            "duration": 0.0799999999999983,
            "durationTicks": 80,
            "midi": 87,
            "name": "D#6",
            "ticks": 33920,
            "time": 33.92,
            "velocity": 0.6692913385826772
          },
          {
            "duration": 0.0799999999999983,
            "durationTicks": 80,
            "midi": 86,
            "name": "D6",
            "ticks": 34000,
            "time": 34,
            "velocity": 0.6692913385826772
          },
          {
            "duration": 0.240000000000002,
            "durationTicks": 240,
            "midi": 84,
            "name": "C6",
            "ticks": 34080,
            "time": 34.08,
            "velocity": 0.6692913385826772
          },
          {
            "duration": 0.17800000000000438,
            "durationTicks": 178,
            "midi": 77,
            "name": "F5",
            "ticks": 34382,
            "time": 34.382,
            "velocity": 0.6692913385826772
          },
          {
            "duration": 0.3200000000000003,
            "durationTicks": 320,
            "midi": 80,
            "name": "G#5",
            "ticks": 34560,
            "time": 34.56,
            "velocity": 0.6692913385826772
          },
          {
            "duration": 0.07999999999999119,
            "durationTicks": 80,
            "midi": 79,
            "name": "G5",
            "ticks": 34880,
            "time": 34.88,
            "velocity": 0.6692913385826772
          },
          {
            "duration": 0.0800000000000054,
            "durationTicks": 80,
            "midi": 82,
            "name": "A#5",
            "ticks": 34960,
            "time": 34.959999999999994,
            "velocity": 0.6692913385826772
          },
          {
            "duration": 0.17799999999999727,
            "durationTicks": 178,
            "midi": 83,
            "name": "B5",
            "ticks": 35342,
            "time": 35.342,
            "velocity": 0.6692913385826772
          },
          {
            "duration": 0.240000000000002,
            "durationTicks": 240,
            "midi": 95,
            "name": "B6",
            "ticks": 35520,
            "time": 35.519999999999996,
            "velocity": 0.6692913385826772
          },
          {
            "duration": 0.17800000000000438,
            "durationTicks": 178,
            "midi": 94,
            "name": "A#6",
            "ticks": 35822,
            "time": 35.821999999999996,
            "velocity": 0.6692913385826772
          },
          {
            "duration": 0.240000000000002,
            "durationTicks": 240,
            "midi": 92,
            "name": "G#6",
            "ticks": 36000,
            "time": 36,
            "velocity": 0.6692913385826772
          },
          {
            "duration": 0.17799999999999727,
            "durationTicks": 178,
            "midi": 89,
            "name": "F6",
            "ticks": 36302,
            "time": 36.302,
            "velocity": 0.6692913385826772
          },
          {
            "duration": 0.240000000000002,
            "durationTicks": 240,
            "midi": 91,
            "name": "G6",
            "ticks": 36480,
            "time": 36.48,
            "velocity": 0.6692913385826772
          },
          {
            "duration": 0.17800000000000438,
            "durationTicks": 178,
            "midi": 94,
            "name": "A#6",
            "ticks": 36782,
            "time": 36.782,
            "velocity": 0.6692913385826772
          },
          {
            "duration": 0.23999999999999488,
            "durationTicks": 240,
            "midi": 98,
            "name": "D7",
            "ticks": 36960,
            "time": 36.96,
            "velocity": 0.6692913385826772
          },
          {
            "duration": 0.17800000000000438,
            "durationTicks": 178,
            "midi": 99,
            "name": "D#7",
            "ticks": 37262,
            "time": 37.26199999999999,
            "velocity": 0.6692913385826772
          },
          {
            "duration": 0.0800000000000054,
            "durationTicks": 80,
            "midi": 98,
            "name": "D7",
            "ticks": 37440,
            "time": 37.44,
            "velocity": 0.6692913385826772
          },
          {
            "duration": 0.07999999999999119,
            "durationTicks": 80,
            "midi": 99,
            "name": "D#7",
            "ticks": 37520,
            "time": 37.52,
            "velocity": 0.6692913385826772
          },
          {
            "duration": 0.0800000000000054,
            "durationTicks": 80,
            "midi": 98,
            "name": "D7",
            "ticks": 37600,
            "time": 37.599999999999994,
            "velocity": 0.6692913385826772
          },
          {
            "duration": 0.11999999999999744,
            "durationTicks": 120,
            "midi": 94,
            "name": "A#6",
            "ticks": 37680,
            "time": 37.68,
            "velocity": 0.6692913385826772
          },
          {
            "duration": 0.12000000000000455,
            "durationTicks": 120,
            "midi": 91,
            "name": "G6",
            "ticks": 37800,
            "time": 37.8,
            "velocity": 0.6692913385826772
          },
          {
            "duration": 0.23999999999999488,
            "durationTicks": 240,
            "midi": 90,
            "name": "F#6",
            "ticks": 37920,
            "time": 37.92,
            "velocity": 0.6692913385826772
          },
          {
            "duration": 0.17800000000000438,
            "durationTicks": 178,
            "midi": 89,
            "name": "F6",
            "ticks": 38222,
            "time": 38.221999999999994,
            "velocity": 0.6692913385826772
          },
          {
            "duration": 0.240000000000002,
            "durationTicks": 240,
            "midi": 87,
            "name": "D#6",
            "ticks": 38400,
            "time": 38.4,
            "velocity": 0.6692913385826772
          },
          {
            "duration": 0.17799999999999727,
            "durationTicks": 178,
            "midi": 84,
            "name": "C6",
            "ticks": 38702,
            "time": 38.702,
            "velocity": 0.6692913385826772
          },
          {
            "duration": 0.240000000000002,
            "durationTicks": 240,
            "midi": 87,
            "name": "D#6",
            "ticks": 38880,
            "time": 38.879999999999995,
            "velocity": 0.6692913385826772
          },
          {
            "duration": 0.17799999999999727,
            "durationTicks": 178,
            "midi": 84,
            "name": "C6",
            "ticks": 39662,
            "time": 39.662,
            "velocity": 0.6692913385826772
          },
          {
            "duration": 0.240000000000002,
            "durationTicks": 240,
            "midi": 86,
            "name": "D6",
            "ticks": 39840,
            "time": 39.839999999999996,
            "velocity": 0.6692913385826772
          },
          {
            "duration": 0.17800000000000438,
            "durationTicks": 178,
            "midi": 87,
            "name": "D#6",
            "ticks": 40142,
            "time": 40.141999999999996,
            "velocity": 0.6692913385826772
          },
          {
            "duration": 0.1599999999999966,
            "durationTicks": 160,
            "midi": 91,
            "name": "G6",
            "ticks": 40320,
            "time": 40.32,
            "velocity": 0.6692913385826772
          },
          {
            "duration": 0.1600000000000037,
            "durationTicks": 160,
            "midi": 99,
            "name": "D#7",
            "ticks": 40480,
            "time": 40.48,
            "velocity": 0.6692913385826772
          },
          {
            "duration": 0.1599999999999966,
            "durationTicks": 160,
            "midi": 98,
            "name": "D7",
            "ticks": 40640,
            "time": 40.64,
            "velocity": 0.6692913385826772
          },
          {
            "duration": 0.1599999999999966,
            "durationTicks": 160,
            "midi": 96,
            "name": "C7",
            "ticks": 40800,
            "time": 40.8,
            "velocity": 0.6692913385826772
          },
          {
            "duration": 0.1600000000000037,
            "durationTicks": 160,
            "midi": 91,
            "name": "G6",
            "ticks": 40960,
            "time": 40.959999999999994,
            "velocity": 0.6692913385826772
          },
          {
            "duration": 0.1600000000000037,
            "durationTicks": 160,
            "midi": 87,
            "name": "D#6",
            "ticks": 41120,
            "time": 41.12,
            "velocity": 0.6692913385826772
          },
          {
            "duration": 0.1599999999999966,
            "durationTicks": 160,
            "midi": 86,
            "name": "D6",
            "ticks": 41280,
            "time": 41.28,
            "velocity": 0.6692913385826772
          },
          {
            "duration": 0.1600000000000037,
            "durationTicks": 160,
            "midi": 84,
            "name": "C6",
            "ticks": 41440,
            "time": 41.44,
            "velocity": 0.6692913385826772
          },
          {
            "duration": 0.1599999999999966,
            "durationTicks": 160,
            "midi": 90,
            "name": "F#6",
            "ticks": 41600,
            "time": 41.6,
            "velocity": 0.6692913385826772
          },
          {
            "duration": 0.240000000000002,
            "durationTicks": 240,
            "midi": 93,
            "name": "A6",
            "ticks": 41760,
            "time": 41.76,
            "velocity": 0.6692913385826772
          },
          {
            "duration": 0.17799999999999727,
            "durationTicks": 178,
            "midi": 99,
            "name": "D#7",
            "ticks": 42062,
            "time": 42.062,
            "velocity": 0.6692913385826772
          },
          {
            "duration": 0.1600000000000037,
            "durationTicks": 160,
            "midi": 98,
            "name": "D7",
            "ticks": 42240,
            "time": 42.239999999999995,
            "velocity": 0.6692913385826772
          },
          {
            "duration": 0.1600000000000037,
            "durationTicks": 160,
            "midi": 96,
            "name": "C7",
            "ticks": 42400,
            "time": 42.4,
            "velocity": 0.6692913385826772
          },
          {
            "duration": 0.1599999999999966,
            "durationTicks": 160,
            "midi": 93,
            "name": "A6",
            "ticks": 42560,
            "time": 42.56,
            "velocity": 0.6692913385826772
          },
          {
            "duration": 0.1599999999999966,
            "durationTicks": 160,
            "midi": 94,
            "name": "A#6",
            "ticks": 42720,
            "time": 42.72,
            "velocity": 0.6692913385826772
          },
          {
            "duration": 0.1600000000000037,
            "durationTicks": 160,
            "midi": 93,
            "name": "A6",
            "ticks": 42880,
            "time": 42.879999999999995,
            "velocity": 0.6692913385826772
          },
          {
            "duration": 0.1599999999999966,
            "durationTicks": 160,
            "midi": 91,
            "name": "G6",
            "ticks": 43040,
            "time": 43.04,
            "velocity": 0.6692913385826772
          },
          {
            "duration": 0.1600000000000037,
            "durationTicks": 160,
            "midi": 89,
            "name": "F6",
            "ticks": 43200,
            "time": 43.199999999999996,
            "velocity": 0.6692913385826772
          },
          {
            "duration": 0.1600000000000037,
            "durationTicks": 160,
            "midi": 88,
            "name": "E6",
            "ticks": 43360,
            "time": 43.36,
            "velocity": 0.6692913385826772
          },
          {
            "duration": 0.1599999999999966,
            "durationTicks": 160,
            "midi": 93,
            "name": "A6",
            "ticks": 43520,
            "time": 43.52,
            "velocity": 0.6692913385826772
          },
          {
            "duration": 0.1599999999999966,
            "durationTicks": 160,
            "midi": 92,
            "name": "G#6",
            "ticks": 43680,
            "time": 43.68,
            "velocity": 0.6692913385826772
          },
          {
            "duration": 0.1600000000000037,
            "durationTicks": 160,
            "midi": 88,
            "name": "E6",
            "ticks": 43840,
            "time": 43.839999999999996,
            "velocity": 0.6692913385826772
          },
          {
            "duration": 0.1599999999999966,
            "durationTicks": 160,
            "midi": 91,
            "name": "G6",
            "ticks": 44000,
            "time": 44,
            "velocity": 0.6692913385826772
          },
          {
            "duration": 0.240000000000002,
            "durationTicks": 240,
            "midi": 84,
            "name": "C6",
            "ticks": 44160,
            "time": 44.16,
            "velocity": 0.6692913385826772
          },
          {
            "duration": 0.17800000000000438,
            "durationTicks": 178,
            "midi": 92,
            "name": "G#6",
            "ticks": 44462,
            "time": 44.461999999999996,
            "velocity": 0.6692913385826772
          },
          {
            "duration": 0.23999999999999488,
            "durationTicks": 240,
            "midi": 91,
            "name": "G6",
            "ticks": 44640,
            "time": 44.64,
            "velocity": 0.6692913385826772
          },
          {
            "duration": 0.17800000000000438,
            "durationTicks": 178,
            "midi": 89,
            "name": "F6",
            "ticks": 44942,
            "time": 44.94199999999999,
            "velocity": 0.6692913385826772
          },
          {
            "duration": 0.240000000000002,
            "durationTicks": 240,
            "midi": 95,
            "name": "B6",
            "ticks": 45120,
            "time": 45.12,
            "velocity": 0.6692913385826772
          },
          {
            "duration": 0.17800000000000438,
            "durationTicks": 178,
            "midi": 94,
            "name": "A#6",
            "ticks": 45422,
            "time": 45.422,
            "velocity": 0.6692913385826772
          },
          {
            "duration": 0.23999999999999488,
            "durationTicks": 240,
            "midi": 92,
            "name": "G#6",
            "ticks": 45600,
            "time": 45.6,
            "velocity": 0.6692913385826772
          },
          {
            "duration": 0.17800000000000438,
            "durationTicks": 178,
            "midi": 90,
            "name": "F#6",
            "ticks": 45902,
            "time": 45.901999999999994,
            "velocity": 0.6692913385826772
          },
          {
            "duration": 0.240000000000002,
            "durationTicks": 240,
            "midi": 91,
            "name": "G6",
            "ticks": 46080,
            "time": 46.08,
            "velocity": 0.6692913385826772
          },
          {
            "duration": 0.17799999999999727,
            "durationTicks": 178,
            "midi": 103,
            "name": "G7",
            "ticks": 46382,
            "time": 46.382,
            "velocity": 0.6692913385826772
          },
          {
            "duration": 0.17800000000000438,
            "durationTicks": 178,
            "midi": 91,
            "name": "G6",
            "ticks": 46862,
            "time": 46.861999999999995,
            "velocity": 0.6692913385826772
          },
          {
            "duration": 0.1599999999999966,
            "durationTicks": 160,
            "midi": 94,
            "name": "A#6",
            "ticks": 47040,
            "time": 47.04,
            "velocity": 0.6692913385826772
          },
          {
            "duration": 0.1600000000000037,
            "durationTicks": 160,
            "midi": 95,
            "name": "B6",
            "ticks": 47200,
            "time": 47.199999999999996,
            "velocity": 0.6692913385826772
          },
          {
            "duration": 0.1599999999999966,
            "durationTicks": 160,
            "midi": 98,
            "name": "D7",
            "ticks": 47360,
            "time": 47.36,
            "velocity": 0.6692913385826772
          },
          {
            "duration": 0.17800000000000438,
            "durationTicks": 178,
            "midi": 79,
            "name": "G5",
            "ticks": 47822,
            "time": 47.821999999999996,
            "velocity": 0.6692913385826772
          },
          {
            "duration": 0.23999999999999488,
            "durationTicks": 240,
            "midi": 88,
            "name": "E6",
            "ticks": 48000,
            "time": 48,
            "velocity": 0.6692913385826772
          },
          {
            "duration": 0.17799999999999727,
            "durationTicks": 178,
            "midi": 87,
            "name": "D#6",
            "ticks": 48302,
            "time": 48.302,
            "velocity": 0.6692913385826772
          },
          {
            "duration": 0.240000000000002,
            "durationTicks": 240,
            "midi": 88,
            "name": "E6",
            "ticks": 48480,
            "time": 48.48,
            "velocity": 0.6692913385826772
          },
          {
            "duration": 0.17800000000000438,
            "durationTicks": 178,
            "midi": 79,
            "name": "G5",
            "ticks": 48782,
            "time": 48.782,
            "velocity": 0.6692913385826772
          },
          {
            "duration": 0.17800000000000438,
            "durationTicks": 178,
            "midi": 79,
            "name": "G5",
            "ticks": 49262,
            "time": 49.26199999999999,
            "velocity": 0.6692913385826772
          },
          {
            "duration": 0.240000000000002,
            "durationTicks": 240,
            "midi": 81,
            "name": "A5",
            "ticks": 49440,
            "time": 49.44,
            "velocity": 0.6692913385826772
          },
          {
            "duration": 0.17800000000000438,
            "durationTicks": 178,
            "midi": 82,
            "name": "A#5",
            "ticks": 49742,
            "time": 49.742,
            "velocity": 0.6692913385826772
          },
          {
            "duration": 0.23999999999999488,
            "durationTicks": 240,
            "midi": 83,
            "name": "B5",
            "ticks": 49920,
            "time": 49.92,
            "velocity": 0.6692913385826772
          },
          {
            "duration": 0.240000000000002,
            "durationTicks": 240,
            "midi": 83,
            "name": "B5",
            "ticks": 50400,
            "time": 50.4,
            "velocity": 0.6692913385826772
          },
          {
            "duration": 0.17799999999999727,
            "durationTicks": 178,
            "midi": 82,
            "name": "A#5",
            "ticks": 50702,
            "time": 50.702,
            "velocity": 0.6692913385826772
          },
          {
            "duration": 0.240000000000002,
            "durationTicks": 240,
            "midi": 81,
            "name": "A5",
            "ticks": 50880,
            "time": 50.879999999999995,
            "velocity": 0.6692913385826772
          },
          {
            "duration": 0.17800000000000438,
            "durationTicks": 178,
            "midi": 80,
            "name": "G#5",
            "ticks": 51182,
            "time": 51.181999999999995,
            "velocity": 0.6692913385826772
          },
          {
            "duration": 0.240000000000002,
            "durationTicks": 240,
            "midi": 81,
            "name": "A5",
            "ticks": 51360,
            "time": 51.36,
            "velocity": 0.6692913385826772
          },
          {
            "duration": 0.0799999999999983,
            "durationTicks": 80,
            "midi": 77,
            "name": "F5",
            "ticks": 51680,
            "time": 51.68,
            "velocity": 0.6692913385826772
          },
          {
            "duration": 0.0799999999999983,
            "durationTicks": 80,
            "midi": 86,
            "name": "D6",
            "ticks": 51680,
            "time": 51.68,
            "velocity": 0.6692913385826772
          },
          {
            "duration": 0.0799999999999983,
            "durationTicks": 80,
            "midi": 76,
            "name": "E5",
            "ticks": 51760,
            "time": 51.76,
            "velocity": 0.6692913385826772
          },
          {
            "duration": 0.0799999999999983,
            "durationTicks": 80,
            "midi": 88,
            "name": "E6",
            "ticks": 51760,
            "time": 51.76,
            "velocity": 0.6692913385826772
          },
          {
            "duration": 0.240000000000002,
            "durationTicks": 240,
            "midi": 74,
            "name": "D5",
            "ticks": 51840,
            "time": 51.839999999999996,
            "velocity": 0.6692913385826772
          },
          {
            "duration": 0.240000000000002,
            "durationTicks": 240,
            "midi": 89,
            "name": "F6",
            "ticks": 51840,
            "time": 51.839999999999996,
            "velocity": 0.6692913385826772
          },
          {
            "duration": 0.17800000000000438,
            "durationTicks": 178,
            "midi": 88,
            "name": "E6",
            "ticks": 52142,
            "time": 52.141999999999996,
            "velocity": 0.6692913385826772
          },
          {
            "duration": 0.23999999999999488,
            "durationTicks": 240,
            "midi": 89,
            "name": "F6",
            "ticks": 52320,
            "time": 52.32,
            "velocity": 0.6692913385826772
          },
          {
            "duration": 0.17800000000000438,
            "durationTicks": 178,
            "midi": 81,
            "name": "A5",
            "ticks": 52622,
            "time": 52.62199999999999,
            "velocity": 0.6692913385826772
          },
          {
            "duration": 0.17800000000000438,
            "durationTicks": 178,
            "midi": 81,
            "name": "A5",
            "ticks": 53102,
            "time": 53.102,
            "velocity": 0.6692913385826772
          },
          {
            "duration": 0.17800000000000438,
            "durationTicks": 178,
            "midi": 80,
            "name": "G#5",
            "ticks": 53582,
            "time": 53.581999999999994,
            "velocity": 0.6692913385826772
          },
          {
            "duration": 0.240000000000002,
            "durationTicks": 240,
            "midi": 79,
            "name": "G5",
            "ticks": 53760,
            "time": 53.76,
            "velocity": 0.6692913385826772
          },
          {
            "duration": 0.240000000000002,
            "durationTicks": 240,
            "midi": 77,
            "name": "F5",
            "ticks": 54240,
            "time": 54.239999999999995,
            "velocity": 0.6692913385826772
          },
          {
            "duration": 0.240000000000002,
            "durationTicks": 240,
            "midi": 79,
            "name": "G5",
            "ticks": 54240,
            "time": 54.239999999999995,
            "velocity": 0.6692913385826772
          },
          {
            "duration": 0.240000000000002,
            "durationTicks": 240,
            "midi": 83,
            "name": "B5",
            "ticks": 54240,
            "time": 54.239999999999995,
            "velocity": 0.6692913385826772
          },
          {
            "duration": 0.240000000000002,
            "durationTicks": 240,
            "midi": 88,
            "name": "E6",
            "ticks": 54240,
            "time": 54.239999999999995,
            "velocity": 0.6692913385826772
          },
          {
            "duration": 0.240000000000002,
            "durationTicks": 240,
            "midi": 78,
            "name": "F#5",
            "ticks": 54720,
            "time": 54.72,
            "velocity": 0.6692913385826772
          },
          {
            "duration": 0.240000000000002,
            "durationTicks": 240,
            "midi": 82,
            "name": "A#5",
            "ticks": 54720,
            "time": 54.72,
            "velocity": 0.6692913385826772
          },
          {
            "duration": 0.240000000000002,
            "durationTicks": 240,
            "midi": 84,
            "name": "C6",
            "ticks": 54720,
            "time": 54.72,
            "velocity": 0.6692913385826772
          },
          {
            "duration": 0.240000000000002,
            "durationTicks": 240,
            "midi": 87,
            "name": "D#6",
            "ticks": 54720,
            "time": 54.72,
            "velocity": 0.6692913385826772
          },
          {
            "duration": 0.240000000000002,
            "durationTicks": 240,
            "midi": 77,
            "name": "F5",
            "ticks": 55200,
            "time": 55.199999999999996,
            "velocity": 0.6692913385826772
          },
          {
            "duration": 0.240000000000002,
            "durationTicks": 240,
            "midi": 80,
            "name": "G#5",
            "ticks": 55200,
            "time": 55.199999999999996,
            "velocity": 0.6692913385826772
          },
          {
            "duration": 0.240000000000002,
            "durationTicks": 240,
            "midi": 83,
            "name": "B5",
            "ticks": 55200,
            "time": 55.199999999999996,
            "velocity": 0.6692913385826772
          },
          {
            "duration": 0.240000000000002,
            "durationTicks": 240,
            "midi": 86,
            "name": "D6",
            "ticks": 55200,
            "time": 55.199999999999996,
            "velocity": 0.6692913385826772
          },
          {
            "duration": 0.23999999999999488,
            "durationTicks": 240,
            "midi": 88,
            "name": "E6",
            "ticks": 55680,
            "time": 55.68,
            "velocity": 0.6692913385826772
          },
          {
            "duration": 0.17799999999999727,
            "durationTicks": 178,
            "midi": 87,
            "name": "D#6",
            "ticks": 55982,
            "time": 55.982,
            "velocity": 0.6692913385826772
          },
          {
            "duration": 0.240000000000002,
            "durationTicks": 240,
            "midi": 88,
            "name": "E6",
            "ticks": 56160,
            "time": 56.16,
            "velocity": 0.6692913385826772
          },
          {
            "duration": 0.17800000000000438,
            "durationTicks": 178,
            "midi": 79,
            "name": "G5",
            "ticks": 56462,
            "time": 56.461999999999996,
            "velocity": 0.6692913385826772
          },
          {
            "duration": 0.17800000000000438,
            "durationTicks": 178,
            "midi": 79,
            "name": "G5",
            "ticks": 56942,
            "time": 56.94199999999999,
            "velocity": 0.6692913385826772
          },
          {
            "duration": 0.240000000000002,
            "durationTicks": 240,
            "midi": 81,
            "name": "A5",
            "ticks": 57120,
            "time": 57.12,
            "velocity": 0.6692913385826772
          },
          {
            "duration": 0.17799999999999727,
            "durationTicks": 178,
            "midi": 82,
            "name": "A#5",
            "ticks": 57422,
            "time": 57.422,
            "velocity": 0.6692913385826772
          },
          {
            "duration": 0.240000000000002,
            "durationTicks": 240,
            "midi": 83,
            "name": "B5",
            "ticks": 57600,
            "time": 57.599999999999994,
            "velocity": 0.6692913385826772
          },
          {
            "duration": 0.240000000000002,
            "durationTicks": 240,
            "midi": 83,
            "name": "B5",
            "ticks": 58080,
            "time": 58.08,
            "velocity": 0.6692913385826772
          },
          {
            "duration": 0.17799999999999727,
            "durationTicks": 178,
            "midi": 82,
            "name": "A#5",
            "ticks": 58382,
            "time": 58.382,
            "velocity": 0.6692913385826772
          },
          {
            "duration": 0.240000000000002,
            "durationTicks": 240,
            "midi": 81,
            "name": "A5",
            "ticks": 58560,
            "time": 58.559999999999995,
            "velocity": 0.6692913385826772
          },
          {
            "duration": 0.17800000000000438,
            "durationTicks": 178,
            "midi": 80,
            "name": "G#5",
            "ticks": 58862,
            "time": 58.861999999999995,
            "velocity": 0.6692913385826772
          },
          {
            "duration": 0.240000000000002,
            "durationTicks": 240,
            "midi": 81,
            "name": "A5",
            "ticks": 59040,
            "time": 59.04,
            "velocity": 0.6692913385826772
          },
          {
            "duration": 0.0799999999999983,
            "durationTicks": 80,
            "midi": 77,
            "name": "F5",
            "ticks": 59360,
            "time": 59.36,
            "velocity": 0.6692913385826772
          },
          {
            "duration": 0.0799999999999983,
            "durationTicks": 80,
            "midi": 86,
            "name": "D6",
            "ticks": 59360,
            "time": 59.36,
            "velocity": 0.6692913385826772
          },
          {
            "duration": 0.0799999999999983,
            "durationTicks": 80,
            "midi": 76,
            "name": "E5",
            "ticks": 59440,
            "time": 59.44,
            "velocity": 0.6692913385826772
          },
          {
            "duration": 0.0799999999999983,
            "durationTicks": 80,
            "midi": 88,
            "name": "E6",
            "ticks": 59440,
            "time": 59.44,
            "velocity": 0.6692913385826772
          },
          {
            "duration": 0.240000000000002,
            "durationTicks": 240,
            "midi": 74,
            "name": "D5",
            "ticks": 59520,
            "time": 59.519999999999996,
            "velocity": 0.6692913385826772
          },
          {
            "duration": 0.240000000000002,
            "durationTicks": 240,
            "midi": 89,
            "name": "F6",
            "ticks": 59520,
            "time": 59.519999999999996,
            "velocity": 0.6692913385826772
          },
          {
            "duration": 0.17800000000000438,
            "durationTicks": 178,
            "midi": 88,
            "name": "E6",
            "ticks": 59822,
            "time": 59.821999999999996,
            "velocity": 0.6692913385826772
          },
          {
            "duration": 0.23999999999999488,
            "durationTicks": 240,
            "midi": 89,
            "name": "F6",
            "ticks": 60000,
            "time": 60,
            "velocity": 0.6692913385826772
          },
          {
            "duration": 0.17800000000000438,
            "durationTicks": 178,
            "midi": 81,
            "name": "A5",
            "ticks": 60302,
            "time": 60.30199999999999,
            "velocity": 0.6692913385826772
          },
          {
            "duration": 0.17800000000000438,
            "durationTicks": 178,
            "midi": 77,
            "name": "F5",
            "ticks": 60782,
            "time": 60.782,
            "velocity": 0.6692913385826772
          },
          {
            "duration": 0.17800000000000438,
            "durationTicks": 178,
            "midi": 81,
            "name": "A5",
            "ticks": 60782,
            "time": 60.782,
            "velocity": 0.6692913385826772
          },
          {
            "duration": 0.17800000000000438,
            "durationTicks": 178,
            "midi": 83,
            "name": "B5",
            "ticks": 60782,
            "time": 60.782,
            "velocity": 0.6692913385826772
          },
          {
            "duration": 0.17800000000000438,
            "durationTicks": 178,
            "midi": 88,
            "name": "E6",
            "ticks": 60782,
            "time": 60.782,
            "velocity": 0.6692913385826772
          },
          {
            "duration": 0.6580000000000013,
            "durationTicks": 658,
            "midi": 76,
            "name": "E5",
            "ticks": 61262,
            "time": 61.26199999999999,
            "velocity": 0.6692913385826772
          },
          {
            "duration": 0.6580000000000013,
            "durationTicks": 658,
            "midi": 79,
            "name": "G5",
            "ticks": 61262,
            "time": 61.26199999999999,
            "velocity": 0.6692913385826772
          },
          {
            "duration": 0.6580000000000013,
            "durationTicks": 658,
            "midi": 84,
            "name": "C6",
            "ticks": 61262,
            "time": 61.26199999999999,
            "velocity": 0.6692913385826772
          },
          {
            "duration": 0.17800000000000438,
            "durationTicks": 178,
            "midi": 88,
            "name": "E6",
            "ticks": 62222,
            "time": 62.221999999999994,
            "velocity": 0.6692913385826772
          },
          {
            "duration": 0.240000000000002,
            "durationTicks": 240,
            "midi": 89,
            "name": "F6",
            "ticks": 62400,
            "time": 62.4,
            "velocity": 0.6692913385826772
          },
          {
            "duration": 0.17799999999999727,
            "durationTicks": 178,
            "midi": 90,
            "name": "F#6",
            "ticks": 62702,
            "time": 62.702,
            "velocity": 0.6692913385826772
          },
          {
            "duration": 0.240000000000002,
            "durationTicks": 240,
            "midi": 91,
            "name": "G6",
            "ticks": 62880,
            "time": 62.879999999999995,
            "velocity": 0.6692913385826772
          },
          {
            "duration": 0.17800000000000438,
            "durationTicks": 178,
            "midi": 95,
            "name": "B6",
            "ticks": 63182,
            "time": 63.181999999999995,
            "velocity": 0.6692913385826772
          },
          {
            "duration": 0.15999999999998948,
            "durationTicks": 160,
            "midi": 98,
            "name": "D7",
            "ticks": 63520,
            "time": 63.52,
            "velocity": 0.6692913385826772
          },
          {
            "duration": 0.240000000000002,
            "durationTicks": 240,
            "midi": 95,
            "name": "B6",
            "ticks": 63840,
            "time": 63.839999999999996,
            "velocity": 0.6692913385826772
          },
          {
            "duration": 0.17799999999999727,
            "durationTicks": 178,
            "midi": 91,
            "name": "G6",
            "ticks": 64142,
            "time": 64.142,
            "velocity": 0.6692913385826772
          },
          {
            "duration": 0.2400000000000091,
            "durationTicks": 240,
            "midi": 88,
            "name": "E6",
            "ticks": 64320,
            "time": 64.32,
            "velocity": 0.6692913385826772
          },
          {
            "duration": 0.17799999999999727,
            "durationTicks": 178,
            "midi": 91,
            "name": "G6",
            "ticks": 64622,
            "time": 64.622,
            "velocity": 0.6692913385826772
          },
          {
            "duration": 0.23999999999999488,
            "durationTicks": 240,
            "midi": 88,
            "name": "E6",
            "ticks": 64800,
            "time": 64.8,
            "velocity": 0.6692913385826772
          },
          {
            "duration": 0.480000000000004,
            "durationTicks": 480,
            "midi": 94,
            "name": "A#6",
            "ticks": 65520,
            "time": 65.52,
            "velocity": 0.6692913385826772
          },
          {
            "duration": 0.12000000000000455,
            "durationTicks": 120,
            "midi": 91,
            "name": "G6",
            "ticks": 66000,
            "time": 66,
            "velocity": 0.6692913385826772
          },
          {
            "duration": 0.11999999999999034,
            "durationTicks": 120,
            "midi": 86,
            "name": "D6",
            "ticks": 66120,
            "time": 66.12,
            "velocity": 0.6692913385826772
          },
          {
            "duration": 0.12000000000000455,
            "durationTicks": 120,
            "midi": 87,
            "name": "D#6",
            "ticks": 66240,
            "time": 66.24,
            "velocity": 0.6692913385826772
          },
          {
            "duration": 0.12000000000000455,
            "durationTicks": 120,
            "midi": 88,
            "name": "E6",
            "ticks": 66360,
            "time": 66.36,
            "velocity": 0.6692913385826772
          },
          {
            "duration": 0.11999999999999034,
            "durationTicks": 120,
            "midi": 86,
            "name": "D6",
            "ticks": 66480,
            "time": 66.48,
            "velocity": 0.6692913385826772
          },
          {
            "duration": 0.12000000000000455,
            "durationTicks": 120,
            "midi": 85,
            "name": "C#6",
            "ticks": 66600,
            "time": 66.6,
            "velocity": 0.6692913385826772
          },
          {
            "duration": 0.12000000000000455,
            "durationTicks": 120,
            "midi": 82,
            "name": "A#5",
            "ticks": 66720,
            "time": 66.72,
            "velocity": 0.6692913385826772
          },
          {
            "duration": 0.35999999999999943,
            "durationTicks": 360,
            "midi": 79,
            "name": "G5",
            "ticks": 66840,
            "time": 66.84,
            "velocity": 0.6692913385826772
          },
          {
            "duration": 0.12000000000000455,
            "durationTicks": 120,
            "midi": 77,
            "name": "F5",
            "ticks": 67680,
            "time": 67.67999999999999,
            "velocity": 0.6692913385826772
          },
          {
            "duration": 0.12000000000000455,
            "durationTicks": 120,
            "midi": 81,
            "name": "A5",
            "ticks": 67800,
            "time": 67.8,
            "velocity": 0.6692913385826772
          },
          {
            "duration": 0.11999999999999034,
            "durationTicks": 120,
            "midi": 84,
            "name": "C6",
            "ticks": 67920,
            "time": 67.92,
            "velocity": 0.6692913385826772
          },
          {
            "duration": 0.12000000000000455,
            "durationTicks": 120,
            "midi": 88,
            "name": "E6",
            "ticks": 68040,
            "time": 68.03999999999999,
            "velocity": 0.6692913385826772
          },
          {
            "duration": 0.1600000000000108,
            "durationTicks": 160,
            "midi": 89,
            "name": "F6",
            "ticks": 68160,
            "time": 68.16,
            "velocity": 0.6692913385826772
          },
          {
            "duration": 0.15999999999998238,
            "durationTicks": 160,
            "midi": 93,
            "name": "A6",
            "ticks": 68320,
            "time": 68.32000000000001,
            "velocity": 0.6692913385826772
          },
          {
            "duration": 0.1600000000000108,
            "durationTicks": 160,
            "midi": 96,
            "name": "C7",
            "ticks": 68480,
            "time": 68.47999999999999,
            "velocity": 0.6692913385826772
          },
          {
            "duration": 0.1599999999999966,
            "durationTicks": 160,
            "midi": 100,
            "name": "E7",
            "ticks": 68800,
            "time": 68.8,
            "velocity": 0.6692913385826772
          },
          {
            "duration": 0.3200000000000074,
            "durationTicks": 320,
            "midi": 95,
            "name": "B6",
            "ticks": 68960,
            "time": 68.96,
            "velocity": 0.6692913385826772
          },
          {
            "duration": 0.1599999999999966,
            "durationTicks": 160,
            "midi": 99,
            "name": "D#7",
            "ticks": 69280,
            "time": 69.28,
            "velocity": 0.6692913385826772
          },
          {
            "duration": 0.1599999999999966,
            "durationTicks": 160,
            "midi": 94,
            "name": "A#6",
            "ticks": 69440,
            "time": 69.44,
            "velocity": 0.6692913385826772
          },
          {
            "duration": 0.1600000000000108,
            "durationTicks": 160,
            "midi": 98,
            "name": "D7",
            "ticks": 69600,
            "time": 69.6,
            "velocity": 0.6692913385826772
          },
          {
            "duration": 0.15999999999998238,
            "durationTicks": 160,
            "midi": 93,
            "name": "A6",
            "ticks": 69760,
            "time": 69.76,
            "velocity": 0.6692913385826772
          },
          {
            "duration": 0.1600000000000108,
            "durationTicks": 160,
            "midi": 89,
            "name": "F6",
            "ticks": 69920,
            "time": 69.91999999999999,
            "velocity": 0.6692913385826772
          },
          {
            "duration": 0.12000000000000455,
            "durationTicks": 120,
            "midi": 92,
            "name": "G#6",
            "ticks": 70080,
            "time": 70.08,
            "velocity": 0.6692913385826772
          },
          {
            "duration": 0.07999999999998408,
            "durationTicks": 80,
            "midi": 91,
            "name": "G6",
            "ticks": 70200,
            "time": 70.2,
            "velocity": 0.6692913385826772
          },
          {
            "duration": 0.0800000000000125,
            "durationTicks": 80,
            "midi": 92,
            "name": "G#6",
            "ticks": 70280,
            "time": 70.27999999999999,
            "velocity": 0.6692913385826772
          },
          {
            "duration": 0.0799999999999983,
            "durationTicks": 80,
            "midi": 91,
            "name": "G6",
            "ticks": 70360,
            "time": 70.36,
            "velocity": 0.6692913385826772
          },
          {
            "duration": 0.12000000000000455,
            "durationTicks": 120,
            "midi": 89,
            "name": "F6",
            "ticks": 70440,
            "time": 70.44,
            "velocity": 0.6692913385826772
          },
          {
            "duration": 0.1599999999999966,
            "durationTicks": 160,
            "midi": 86,
            "name": "D6",
            "ticks": 70560,
            "time": 70.56,
            "velocity": 0.6692913385826772
          },
          {
            "duration": 0.1599999999999966,
            "durationTicks": 160,
            "midi": 87,
            "name": "D#6",
            "ticks": 70720,
            "time": 70.72,
            "velocity": 0.6692913385826772
          },
          {
            "duration": 0.1599999999999966,
            "durationTicks": 160,
            "midi": 88,
            "name": "E6",
            "ticks": 70880,
            "time": 70.88,
            "velocity": 0.6692913385826772
          },
          {
            "duration": 0.12000000000000455,
            "durationTicks": 120,
            "midi": 91,
            "name": "G6",
            "ticks": 71040,
            "time": 71.03999999999999,
            "velocity": 0.6692913385826772
          },
          {
            "duration": 0.12000000000000455,
            "durationTicks": 120,
            "midi": 86,
            "name": "D6",
            "ticks": 71160,
            "time": 71.16,
            "velocity": 0.6692913385826772
          },
          {
            "duration": 0.11999999999999034,
            "durationTicks": 120,
            "midi": 87,
            "name": "D#6",
            "ticks": 71280,
            "time": 71.28,
            "velocity": 0.6692913385826772
          },
          {
            "duration": 0.12000000000000455,
            "durationTicks": 120,
            "midi": 88,
            "name": "E6",
            "ticks": 71400,
            "time": 71.39999999999999,
            "velocity": 0.6692913385826772
          },
          {
            "duration": 0.12000000000000455,
            "durationTicks": 120,
            "midi": 91,
            "name": "G6",
            "ticks": 72720,
            "time": 72.72,
            "velocity": 0.6692913385826772
          },
          {
            "duration": 0.11999999999999034,
            "durationTicks": 120,
            "midi": 88,
            "name": "E6",
            "ticks": 72840,
            "time": 72.84,
            "velocity": 0.6692913385826772
          },
          {
            "duration": 0.2400000000000091,
            "durationTicks": 240,
            "midi": 86,
            "name": "D6",
            "ticks": 72960,
            "time": 72.96,
            "velocity": 0.6692913385826772
          },
          {
            "duration": 0.17799999999999727,
            "durationTicks": 178,
            "midi": 85,
            "name": "C#6",
            "ticks": 73262,
            "time": 73.262,
            "velocity": 0.6692913385826772
          },
          {
            "duration": 0.23999999999999488,
            "durationTicks": 240,
            "midi": 82,
            "name": "A#5",
            "ticks": 73440,
            "time": 73.44,
            "velocity": 0.6692913385826772
          },
          {
            "duration": 0.17800000000001148,
            "durationTicks": 178,
            "midi": 79,
            "name": "G5",
            "ticks": 73742,
            "time": 73.74199999999999,
            "velocity": 0.6692913385826772
          },
          {
            "duration": 0.23999999999999488,
            "durationTicks": 240,
            "midi": 82,
            "name": "A#5",
            "ticks": 73920,
            "time": 73.92,
            "velocity": 0.6692913385826772
          },
          {
            "duration": 0.0799999999999983,
            "durationTicks": 80,
            "midi": 81,
            "name": "A5",
            "ticks": 74160,
            "time": 74.16,
            "velocity": 0.6692913385826772
          },
          {
            "duration": 0.0800000000000125,
            "durationTicks": 80,
            "midi": 82,
            "name": "A#5",
            "ticks": 74240,
            "time": 74.24,
            "velocity": 0.6692913385826772
          },
          {
            "duration": 0.07999999999998408,
            "durationTicks": 80,
            "midi": 81,
            "name": "A5",
            "ticks": 74320,
            "time": 74.32000000000001,
            "velocity": 0.6692913385826772
          },
          {
            "duration": 0.2400000000000091,
            "durationTicks": 240,
            "midi": 79,
            "name": "G5",
            "ticks": 74400,
            "time": 74.39999999999999,
            "velocity": 0.6692913385826772
          },
          {
            "duration": 0.17799999999999727,
            "durationTicks": 178,
            "midi": 77,
            "name": "F5",
            "ticks": 74702,
            "time": 74.702,
            "velocity": 0.6692913385826772
          },
          {
            "duration": 0.1600000000000108,
            "durationTicks": 160,
            "midi": 81,
            "name": "A5",
            "ticks": 74880,
            "time": 74.88,
            "velocity": 0.6692913385826772
          },
          {
            "duration": 0.15999999999998238,
            "durationTicks": 160,
            "midi": 84,
            "name": "C6",
            "ticks": 75040,
            "time": 75.04,
            "velocity": 0.6692913385826772
          },
          {
            "duration": 0.1600000000000108,
            "durationTicks": 160,
            "midi": 88,
            "name": "E6",
            "ticks": 75200,
            "time": 75.19999999999999,
            "velocity": 0.6692913385826772
          },
          {
            "duration": 0.1599999999999966,
            "durationTicks": 160,
            "midi": 89,
            "name": "F6",
            "ticks": 75360,
            "time": 75.36,
            "velocity": 0.6692913385826772
          },
          {
            "duration": 0.1599999999999966,
            "durationTicks": 160,
            "midi": 93,
            "name": "A6",
            "ticks": 75520,
            "time": 75.52,
            "velocity": 0.6692913385826772
          },
          {
            "duration": 0.1600000000000108,
            "durationTicks": 160,
            "midi": 96,
            "name": "C7",
            "ticks": 75680,
            "time": 75.67999999999999,
            "velocity": 0.6692913385826772
          },
          {
            "duration": 0.23999999999999488,
            "durationTicks": 240,
            "midi": 100,
            "name": "E7",
            "ticks": 75840,
            "time": 75.84,
            "velocity": 0.6692913385826772
          },
          {
            "duration": 0.17799999999999727,
            "durationTicks": 178,
            "midi": 95,
            "name": "B6",
            "ticks": 76142,
            "time": 76.142,
            "velocity": 0.6692913385826772
          },
          {
            "duration": 0.2400000000000091,
            "durationTicks": 240,
            "midi": 100,
            "name": "E7",
            "ticks": 76320,
            "time": 76.32,
            "velocity": 0.6692913385826772
          },
          {
            "duration": 0.17799999999999727,
            "durationTicks": 178,
            "midi": 96,
            "name": "C7",
            "ticks": 76622,
            "time": 76.622,
            "velocity": 0.6692913385826772
          },
          {
            "duration": 0.23999999999999488,
            "durationTicks": 240,
            "midi": 76,
            "name": "E5",
            "ticks": 77280,
            "time": 77.28,
            "velocity": 0.6692913385826772
          },
          {
            "duration": 0.17799999999999727,
            "durationTicks": 178,
            "midi": 84,
            "name": "C6",
            "ticks": 77582,
            "time": 77.582,
            "velocity": 0.6692913385826772
          },
          {
            "duration": 0.2400000000000091,
            "durationTicks": 240,
            "midi": 77,
            "name": "F5",
            "ticks": 77760,
            "time": 77.75999999999999,
            "velocity": 0.6692913385826772
          },
          {
            "duration": 0.2400000000000091,
            "durationTicks": 240,
            "midi": 81,
            "name": "A5",
            "ticks": 77760,
            "time": 77.75999999999999,
            "velocity": 0.6692913385826772
          },
          {
            "duration": 0.2400000000000091,
            "durationTicks": 240,
            "midi": 84,
            "name": "C6",
            "ticks": 77760,
            "time": 77.75999999999999,
            "velocity": 0.6692913385826772
          },
          {
            "duration": 0.2400000000000091,
            "durationTicks": 240,
            "midi": 89,
            "name": "F6",
            "ticks": 77760,
            "time": 77.75999999999999,
            "velocity": 0.6692913385826772
          },
          {
            "duration": 0.2400000000000091,
            "durationTicks": 240,
            "midi": 79,
            "name": "G5",
            "ticks": 78240,
            "time": 78.24,
            "velocity": 0.6692913385826772
          },
          {
            "duration": 0.2400000000000091,
            "durationTicks": 240,
            "midi": 84,
            "name": "C6",
            "ticks": 78240,
            "time": 78.24,
            "velocity": 0.6692913385826772
          },
          {
            "duration": 0.2400000000000091,
            "durationTicks": 240,
            "midi": 88,
            "name": "E6",
            "ticks": 78240,
            "time": 78.24,
            "velocity": 0.6692913385826772
          },
          {
            "duration": 0.2400000000000091,
            "durationTicks": 240,
            "midi": 91,
            "name": "G6",
            "ticks": 78240,
            "time": 78.24,
            "velocity": 0.6692913385826772
          },
          {
            "duration": 0.23999999999999488,
            "durationTicks": 240,
            "midi": 80,
            "name": "G#5",
            "ticks": 78720,
            "time": 78.72,
            "velocity": 0.6692913385826772
          },
          {
            "duration": 0.23999999999999488,
            "durationTicks": 240,
            "midi": 87,
            "name": "D#6",
            "ticks": 78720,
            "time": 78.72,
            "velocity": 0.6692913385826772
          },
          {
            "duration": 0.23999999999999488,
            "durationTicks": 240,
            "midi": 92,
            "name": "G#6",
            "ticks": 78720,
            "time": 78.72,
            "velocity": 0.6692913385826772
          },
          {
            "duration": 0.0799999999999983,
            "durationTicks": 80,
            "midi": 91,
            "name": "G6",
            "ticks": 78960,
            "time": 78.96,
            "velocity": 0.6692913385826772
          },
          {
            "duration": 0.0800000000000125,
            "durationTicks": 80,
            "midi": 92,
            "name": "G#6",
            "ticks": 79040,
            "time": 79.03999999999999,
            "velocity": 0.6692913385826772
          },
          {
            "duration": 0.0799999999999983,
            "durationTicks": 80,
            "midi": 91,
            "name": "G6",
            "ticks": 79120,
            "time": 79.12,
            "velocity": 0.6692913385826772
          },
          {
            "duration": 0.1599999999999966,
            "durationTicks": 160,
            "midi": 89,
            "name": "F6",
            "ticks": 79200,
            "time": 79.2,
            "velocity": 0.6692913385826772
          },
          {
            "duration": 0.1599999999999966,
            "durationTicks": 160,
            "midi": 84,
            "name": "C6",
            "ticks": 79360,
            "time": 79.36,
            "velocity": 0.6692913385826772
          },
          {
            "duration": 0.1599999999999966,
            "durationTicks": 160,
            "midi": 87,
            "name": "D#6",
            "ticks": 79520,
            "time": 79.52,
            "velocity": 0.6692913385826772
          },
          {
            "duration": 0.0799999999999983,
            "durationTicks": 80,
            "midi": 86,
            "name": "D6",
            "ticks": 79680,
            "time": 79.67999999999999,
            "velocity": 0.6692913385826772
          },
          {
            "duration": 0.0800000000000125,
            "durationTicks": 80,
            "midi": 87,
            "name": "D#6",
            "ticks": 79760,
            "time": 79.75999999999999,
            "velocity": 0.6692913385826772
          },
          {
            "duration": 0.0799999999999983,
            "durationTicks": 80,
            "midi": 86,
            "name": "D6",
            "ticks": 79840,
            "time": 79.84,
            "velocity": 0.6692913385826772
          },
          {
            "duration": 0.17799999999999727,
            "durationTicks": 178,
            "midi": 84,
            "name": "C6",
            "ticks": 79982,
            "time": 79.982,
            "velocity": 0.6692913385826772
          },
          {
            "duration": 0.23999999999999488,
            "durationTicks": 240,
            "midi": 77,
            "name": "F5",
            "ticks": 80160,
            "time": 80.16,
            "velocity": 0.6692913385826772
          },
          {
            "duration": 0.17800000000001148,
            "durationTicks": 178,
            "midi": 80,
            "name": "G#5",
            "ticks": 80462,
            "time": 80.46199999999999,
            "velocity": 0.6692913385826772
          },
          {
            "duration": 0.23999999999999488,
            "durationTicks": 240,
            "midi": 82,
            "name": "A#5",
            "ticks": 80640,
            "time": 80.64,
            "velocity": 0.6692913385826772
          },
          {
            "duration": 0.17799999999999727,
            "durationTicks": 178,
            "midi": 83,
            "name": "B5",
            "ticks": 80942,
            "time": 80.942,
            "velocity": 0.6692913385826772
          },
          {
            "duration": 0.3199999999999932,
            "durationTicks": 320,
            "midi": 95,
            "name": "B6",
            "ticks": 81280,
            "time": 81.28,
            "velocity": 0.6692913385826772
          },
          {
            "duration": 0.2400000000000091,
            "durationTicks": 240,
            "midi": 95,
            "name": "B6",
            "ticks": 81600,
            "time": 81.6,
            "velocity": 0.6692913385826772
          },
          {
            "duration": 0.17799999999999727,
            "durationTicks": 178,
            "midi": 94,
            "name": "A#6",
            "ticks": 81902,
            "time": 81.902,
            "velocity": 0.6692913385826772
          },
          {
            "duration": 0.23999999999999488,
            "durationTicks": 240,
            "midi": 92,
            "name": "G#6",
            "ticks": 82080,
            "time": 82.08,
            "velocity": 0.6692913385826772
          },
          {
            "duration": 0.12000000000000455,
            "durationTicks": 120,
            "midi": 89,
            "name": "F6",
            "ticks": 82320,
            "time": 82.32,
            "velocity": 0.6692913385826772
          },
          {
            "duration": 0.12000000000000455,
            "durationTicks": 120,
            "midi": 90,
            "name": "F#6",
            "ticks": 82440,
            "time": 82.44,
            "velocity": 0.6692913385826772
          },
          {
            "duration": 0.23999999999999488,
            "durationTicks": 240,
            "midi": 91,
            "name": "G6",
            "ticks": 82560,
            "time": 82.56,
            "velocity": 0.6692913385826772
          },
          {
            "duration": 0.17799999999999727,
            "durationTicks": 178,
            "midi": 94,
            "name": "A#6",
            "ticks": 82862,
            "time": 82.862,
            "velocity": 0.6692913385826772
          },
          {
            "duration": 0.1600000000000108,
            "durationTicks": 160,
            "midi": 98,
            "name": "D7",
            "ticks": 83040,
            "time": 83.03999999999999,
            "velocity": 0.6692913385826772
          },
          {
            "duration": 0.1599999999999966,
            "durationTicks": 160,
            "midi": 99,
            "name": "D#7",
            "ticks": 83200,
            "time": 83.2,
            "velocity": 0.6692913385826772
          },
          {
            "duration": 0.1599999999999966,
            "durationTicks": 160,
            "midi": 98,
            "name": "D7",
            "ticks": 83360,
            "time": 83.36,
            "velocity": 0.6692913385826772
          },
          {
            "duration": 0.1600000000000108,
            "durationTicks": 160,
            "midi": 94,
            "name": "A#6",
            "ticks": 83520,
            "time": 83.52,
            "velocity": 0.6692913385826772
          },
          {
            "duration": 0.15999999999998238,
            "durationTicks": 160,
            "midi": 91,
            "name": "G6",
            "ticks": 83680,
            "time": 83.68,
            "velocity": 0.6692913385826772
          },
          {
            "duration": 0.0800000000000125,
            "durationTicks": 80,
            "midi": 89,
            "name": "F6",
            "ticks": 83840,
            "time": 83.83999999999999,
            "velocity": 0.6692913385826772
          },
          {
            "duration": 0.0799999999999983,
            "durationTicks": 80,
            "midi": 90,
            "name": "F#6",
            "ticks": 83920,
            "time": 83.92,
            "velocity": 0.6692913385826772
          },
          {
            "duration": 0.1599999999999966,
            "durationTicks": 160,
            "midi": 91,
            "name": "G6",
            "ticks": 84000,
            "time": 84,
            "velocity": 0.6692913385826772
          },
          {
            "duration": 0.0799999999999983,
            "durationTicks": 80,
            "midi": 91,
            "name": "G6",
            "ticks": 84160,
            "time": 84.16,
            "velocity": 0.6692913385826772
          },
          {
            "duration": 0.0799999999999983,
            "durationTicks": 80,
            "midi": 90,
            "name": "F#6",
            "ticks": 84240,
            "time": 84.24,
            "velocity": 0.6692913385826772
          },
          {
            "duration": 0.0800000000000125,
            "durationTicks": 80,
            "midi": 89,
            "name": "F6",
            "ticks": 84320,
            "time": 84.32,
            "velocity": 0.6692913385826772
          },
          {
            "duration": 0.07999999999998408,
            "durationTicks": 80,
            "midi": 88,
            "name": "E6",
            "ticks": 84400,
            "time": 84.4,
            "velocity": 0.6692913385826772
          },
          {
            "duration": 0.1600000000000108,
            "durationTicks": 160,
            "midi": 87,
            "name": "D#6",
            "ticks": 84480,
            "time": 84.47999999999999,
            "velocity": 0.6692913385826772
          },
          {
            "duration": 0.1599999999999966,
            "durationTicks": 160,
            "midi": 84,
            "name": "C6",
            "ticks": 84640,
            "time": 84.64,
            "velocity": 0.6692913385826772
          },
          {
            "duration": 0.1599999999999966,
            "durationTicks": 160,
            "midi": 87,
            "name": "D#6",
            "ticks": 84800,
            "time": 84.8,
            "velocity": 0.6692913385826772
          },
          {
            "duration": 0.1599999999999966,
            "durationTicks": 160,
            "midi": 84,
            "name": "C6",
            "ticks": 86080,
            "time": 86.08,
            "velocity": 0.6692913385826772
          },
          {
            "duration": 0.1599999999999966,
            "durationTicks": 160,
            "midi": 86,
            "name": "D6",
            "ticks": 86240,
            "time": 86.24,
            "velocity": 0.6692913385826772
          },
          {
            "duration": 0.1600000000000108,
            "durationTicks": 160,
            "midi": 87,
            "name": "D#6",
            "ticks": 86400,
            "time": 86.39999999999999,
            "velocity": 0.6692913385826772
          },
          {
            "duration": 0.1599999999999966,
            "durationTicks": 160,
            "midi": 91,
            "name": "G6",
            "ticks": 86560,
            "time": 86.56,
            "velocity": 0.6692913385826772
          },
          {
            "duration": 0.1599999999999966,
            "durationTicks": 160,
            "midi": 99,
            "name": "D#7",
            "ticks": 86720,
            "time": 86.72,
            "velocity": 0.6692913385826772
          },
          {
            "duration": 0.12000000000000455,
            "durationTicks": 120,
            "midi": 98,
            "name": "D7",
            "ticks": 86880,
            "time": 86.88,
            "velocity": 0.6692913385826772
          },
          {
            "duration": 0.11999999999999034,
            "durationTicks": 120,
            "midi": 99,
            "name": "D#7",
            "ticks": 87000,
            "time": 87,
            "velocity": 0.6692913385826772
          },
          {
            "duration": 0.12000000000000455,
            "durationTicks": 120,
            "midi": 98,
            "name": "D7",
            "ticks": 87120,
            "time": 87.11999999999999,
            "velocity": 0.6692913385826772
          },
          {
            "duration": 0.12000000000000455,
            "durationTicks": 120,
            "midi": 96,
            "name": "C7",
            "ticks": 87240,
            "time": 87.24,
            "velocity": 0.6692913385826772
          },
          {
            "duration": 0.11999999999999034,
            "durationTicks": 120,
            "midi": 91,
            "name": "G6",
            "ticks": 87360,
            "time": 87.36,
            "velocity": 0.6692913385826772
          },
          {
            "duration": 0.12000000000000455,
            "durationTicks": 120,
            "midi": 90,
            "name": "F#6",
            "ticks": 87480,
            "time": 87.47999999999999,
            "velocity": 0.6692913385826772
          },
          {
            "duration": 0.12000000000000455,
            "durationTicks": 120,
            "midi": 87,
            "name": "D#6",
            "ticks": 87600,
            "time": 87.6,
            "velocity": 0.6692913385826772
          },
          {
            "duration": 0.12000000000000455,
            "durationTicks": 120,
            "midi": 84,
            "name": "C6",
            "ticks": 87720,
            "time": 87.72,
            "velocity": 0.6692913385826772
          },
          {
            "duration": 0.23999999999999488,
            "durationTicks": 240,
            "midi": 93,
            "name": "A6",
            "ticks": 87840,
            "time": 87.84,
            "velocity": 0.6692913385826772
          },
          {
            "duration": 0.17799999999999727,
            "durationTicks": 178,
            "midi": 91,
            "name": "G6",
            "ticks": 88142,
            "time": 88.142,
            "velocity": 0.6692913385826772
          },
          {
            "duration": 0.1600000000000108,
            "durationTicks": 160,
            "midi": 90,
            "name": "F#6",
            "ticks": 88320,
            "time": 88.32,
            "velocity": 0.6692913385826772
          },
          {
            "duration": 0.15999999999998238,
            "durationTicks": 160,
            "midi": 87,
            "name": "D#6",
            "ticks": 88480,
            "time": 88.48,
            "velocity": 0.6692913385826772
          },
          {
            "duration": 0.1600000000000108,
            "durationTicks": 160,
            "midi": 86,
            "name": "D6",
            "ticks": 88640,
            "time": 88.63999999999999,
            "velocity": 0.6692913385826772
          },
          {
            "duration": 0.1600000000000108,
            "durationTicks": 160,
            "midi": 85,
            "name": "C#6",
            "ticks": 88800,
            "time": 88.8,
            "velocity": 0.6692913385826772
          },
          {
            "duration": 0.15999999999998238,
            "durationTicks": 160,
            "midi": 86,
            "name": "D6",
            "ticks": 88960,
            "time": 88.96000000000001,
            "velocity": 0.6692913385826772
          },
          {
            "duration": 0.1600000000000108,
            "durationTicks": 160,
            "midi": 91,
            "name": "G6",
            "ticks": 89120,
            "time": 89.11999999999999,
            "velocity": 0.6692913385826772
          },
          {
            "duration": 0.0799999999999983,
            "durationTicks": 80,
            "midi": 86,
            "name": "D6",
            "ticks": 89400,
            "time": 89.39999999999999,
            "velocity": 0.6692913385826772
          },
          {
            "duration": 0.0800000000000125,
            "durationTicks": 80,
            "midi": 85,
            "name": "C#6",
            "ticks": 89480,
            "time": 89.47999999999999,
            "velocity": 0.6692913385826772
          },
          {
            "duration": 0.0799999999999983,
            "durationTicks": 80,
            "midi": 84,
            "name": "C6",
            "ticks": 89560,
            "time": 89.56,
            "velocity": 0.6692913385826772
          },
          {
            "duration": 0.11999999999999034,
            "durationTicks": 120,
            "midi": 82,
            "name": "A#5",
            "ticks": 89640,
            "time": 89.64,
            "velocity": 0.6692913385826772
          },
          {
            "duration": 0.1600000000000108,
            "durationTicks": 160,
            "midi": 79,
            "name": "G5",
            "ticks": 89760,
            "time": 89.75999999999999,
            "velocity": 0.6692913385826772
          },
          {
            "duration": 0.1599999999999966,
            "durationTicks": 160,
            "midi": 87,
            "name": "D#6",
            "ticks": 89920,
            "time": 89.92,
            "velocity": 0.6692913385826772
          },
          {
            "duration": 0.1599999999999966,
            "durationTicks": 160,
            "midi": 88,
            "name": "E6",
            "ticks": 90080,
            "time": 90.08,
            "velocity": 0.6692913385826772
          },
          {
            "duration": 0.23999999999999488,
            "durationTicks": 240,
            "midi": 84,
            "name": "C6",
            "ticks": 90240,
            "time": 90.24,
            "velocity": 0.6692913385826772
          },
          {
            "duration": 0.17799999999999727,
            "durationTicks": 178,
            "midi": 91,
            "name": "G6",
            "ticks": 90542,
            "time": 90.542,
            "velocity": 0.6692913385826772
          },
          {
            "duration": 0.1599999999999966,
            "durationTicks": 160,
            "midi": 92,
            "name": "G#6",
            "ticks": 90720,
            "time": 90.72,
            "velocity": 0.6692913385826772
          },
          {
            "duration": 0.1599999999999966,
            "durationTicks": 160,
            "midi": 89,
            "name": "F6",
            "ticks": 90880,
            "time": 90.88,
            "velocity": 0.6692913385826772
          },
          {
            "duration": 0.1600000000000108,
            "durationTicks": 160,
            "midi": 91,
            "name": "G6",
            "ticks": 91040,
            "time": 91.03999999999999,
            "velocity": 0.6692913385826772
          },
          {
            "duration": 0.1599999999999966,
            "durationTicks": 160,
            "midi": 92,
            "name": "G#6",
            "ticks": 91200,
            "time": 91.2,
            "velocity": 0.6692913385826772
          },
          {
            "duration": 0.1599999999999966,
            "durationTicks": 160,
            "midi": 94,
            "name": "A#6",
            "ticks": 91360,
            "time": 91.36,
            "velocity": 0.6692913385826772
          },
          {
            "duration": 0.1599999999999966,
            "durationTicks": 160,
            "midi": 92,
            "name": "G#6",
            "ticks": 91520,
            "time": 91.52,
            "velocity": 0.6692913385826772
          },
          {
            "duration": 0.1600000000000108,
            "durationTicks": 160,
            "midi": 91,
            "name": "G6",
            "ticks": 91680,
            "time": 91.67999999999999,
            "velocity": 0.6692913385826772
          },
          {
            "duration": 0.15999999999998238,
            "durationTicks": 160,
            "midi": 89,
            "name": "F6",
            "ticks": 91840,
            "time": 91.84,
            "velocity": 0.6692913385826772
          },
          {
            "duration": 0.1600000000000108,
            "durationTicks": 160,
            "midi": 90,
            "name": "F#6",
            "ticks": 92000,
            "time": 91.99999999999999,
            "velocity": 0.6692913385826772
          },
          {
            "duration": 0.23999999999999488,
            "durationTicks": 240,
            "midi": 91,
            "name": "G6",
            "ticks": 92160,
            "time": 92.16,
            "velocity": 0.6692913385826772
          },
          {
            "duration": 0.17800000000001148,
            "durationTicks": 178,
            "midi": 103,
            "name": "G7",
            "ticks": 92462,
            "time": 92.46199999999999,
            "velocity": 0.6692913385826772
          },
          {
            "duration": 0.0799999999999983,
            "durationTicks": 80,
            "midi": 91,
            "name": "G6",
            "ticks": 92640,
            "time": 92.64,
            "velocity": 0.6692913385826772
          },
          {
            "duration": 0.0799999999999983,
            "durationTicks": 80,
            "midi": 103,
            "name": "G7",
            "ticks": 92720,
            "time": 92.72,
            "velocity": 0.6692913385826772
          },
          {
            "duration": 0.0799999999999983,
            "durationTicks": 80,
            "midi": 91,
            "name": "G6",
            "ticks": 92800,
            "time": 92.8,
            "velocity": 0.6692913385826772
          },
          {
            "duration": 0.0799999999999983,
            "durationTicks": 80,
            "midi": 103,
            "name": "G7",
            "ticks": 92880,
            "time": 92.88,
            "velocity": 0.6692913385826772
          },
          {
            "duration": 0.0800000000000125,
            "durationTicks": 80,
            "midi": 91,
            "name": "G6",
            "ticks": 92960,
            "time": 92.96,
            "velocity": 0.6692913385826772
          },
          {
            "duration": 0.07999999999998408,
            "durationTicks": 80,
            "midi": 103,
            "name": "G7",
            "ticks": 93040,
            "time": 93.04,
            "velocity": 0.6692913385826772
          },
          {
            "duration": 0.23999999999999488,
            "durationTicks": 240,
            "midi": 88,
            "name": "E6",
            "ticks": 94080,
            "time": 94.08,
            "velocity": 0.6692913385826772
          },
          {
            "duration": 0.17800000000001148,
            "durationTicks": 178,
            "midi": 87,
            "name": "D#6",
            "ticks": 94382,
            "time": 94.38199999999999,
            "velocity": 0.6692913385826772
          },
          {
            "duration": 0.23999999999999488,
            "durationTicks": 240,
            "midi": 88,
            "name": "E6",
            "ticks": 94560,
            "time": 94.56,
            "velocity": 0.6692913385826772
          },
          {
            "duration": 0.17799999999999727,
            "durationTicks": 178,
            "midi": 79,
            "name": "G5",
            "ticks": 94862,
            "time": 94.862,
            "velocity": 0.6692913385826772
          },
          {
            "duration": 0.17799999999999727,
            "durationTicks": 178,
            "midi": 79,
            "name": "G5",
            "ticks": 95342,
            "time": 95.342,
            "velocity": 0.6692913385826772
          },
          {
            "duration": 0.23999999999999488,
            "durationTicks": 240,
            "midi": 81,
            "name": "A5",
            "ticks": 95520,
            "time": 95.52,
            "velocity": 0.6692913385826772
          },
          {
            "duration": 0.17800000000001148,
            "durationTicks": 178,
            "midi": 82,
            "name": "A#5",
            "ticks": 95822,
            "time": 95.82199999999999,
            "velocity": 0.6692913385826772
          },
          {
            "duration": 0.23999999999999488,
            "durationTicks": 240,
            "midi": 83,
            "name": "B5",
            "ticks": 96000,
            "time": 96,
            "velocity": 0.6692913385826772
          },
          {
            "duration": 0.2400000000000091,
            "durationTicks": 240,
            "midi": 83,
            "name": "B5",
            "ticks": 96480,
            "time": 96.47999999999999,
            "velocity": 0.6692913385826772
          },
          {
            "duration": 0.17799999999999727,
            "durationTicks": 178,
            "midi": 82,
            "name": "A#5",
            "ticks": 96782,
            "time": 96.782,
            "velocity": 0.6692913385826772
          },
          {
            "duration": 0.2400000000000091,
            "durationTicks": 240,
            "midi": 81,
            "name": "A5",
            "ticks": 96960,
            "time": 96.96,
            "velocity": 0.6692913385826772
          },
          {
            "duration": 0.17799999999999727,
            "durationTicks": 178,
            "midi": 80,
            "name": "G#5",
            "ticks": 97262,
            "time": 97.262,
            "velocity": 0.6692913385826772
          },
          {
            "duration": 0.23999999999999488,
            "durationTicks": 240,
            "midi": 81,
            "name": "A5",
            "ticks": 97440,
            "time": 97.44,
            "velocity": 0.6692913385826772
          },
          {
            "duration": 0.0800000000000125,
            "durationTicks": 80,
            "midi": 77,
            "name": "F5",
            "ticks": 97760,
            "time": 97.75999999999999,
            "velocity": 0.6692913385826772
          },
          {
            "duration": 0.0800000000000125,
            "durationTicks": 80,
            "midi": 86,
            "name": "D6",
            "ticks": 97760,
            "time": 97.75999999999999,
            "velocity": 0.6692913385826772
          },
          {
            "duration": 0.0799999999999983,
            "durationTicks": 80,
            "midi": 76,
            "name": "E5",
            "ticks": 97840,
            "time": 97.84,
            "velocity": 0.6692913385826772
          },
          {
            "duration": 0.0799999999999983,
            "durationTicks": 80,
            "midi": 88,
            "name": "E6",
            "ticks": 97840,
            "time": 97.84,
            "velocity": 0.6692913385826772
          },
          {
            "duration": 0.23999999999999488,
            "durationTicks": 240,
            "midi": 74,
            "name": "D5",
            "ticks": 97920,
            "time": 97.92,
            "velocity": 0.6692913385826772
          },
          {
            "duration": 0.23999999999999488,
            "durationTicks": 240,
            "midi": 89,
            "name": "F6",
            "ticks": 97920,
            "time": 97.92,
            "velocity": 0.6692913385826772
          },
          {
            "duration": 0.17799999999999727,
            "durationTicks": 178,
            "midi": 88,
            "name": "E6",
            "ticks": 98222,
            "time": 98.222,
            "velocity": 0.6692913385826772
          },
          {
            "duration": 0.2400000000000091,
            "durationTicks": 240,
            "midi": 89,
            "name": "F6",
            "ticks": 98400,
            "time": 98.39999999999999,
            "velocity": 0.6692913385826772
          },
          {
            "duration": 0.17799999999999727,
            "durationTicks": 178,
            "midi": 81,
            "name": "A5",
            "ticks": 98702,
            "time": 98.702,
            "velocity": 0.6692913385826772
          },
          {
            "duration": 0.17800000000001148,
            "durationTicks": 178,
            "midi": 81,
            "name": "A5",
            "ticks": 99182,
            "time": 99.18199999999999,
            "velocity": 0.6692913385826772
          },
          {
            "duration": 0.17800000000001148,
            "durationTicks": 178,
            "midi": 80,
            "name": "G#5",
            "ticks": 99662,
            "time": 99.66199999999999,
            "velocity": 0.6692913385826772
          },
          {
            "duration": 0.23999999999999488,
            "durationTicks": 240,
            "midi": 79,
            "name": "G5",
            "ticks": 99840,
            "time": 99.84,
            "velocity": 0.6692913385826772
          },
          {
            "duration": 0.2400000000000091,
            "durationTicks": 240,
            "midi": 77,
            "name": "F5",
            "ticks": 100320,
            "time": 100.32,
            "velocity": 0.6692913385826772
          },
          {
            "duration": 0.2400000000000091,
            "durationTicks": 240,
            "midi": 79,
            "name": "G5",
            "ticks": 100320,
            "time": 100.32,
            "velocity": 0.6692913385826772
          },
          {
            "duration": 0.2400000000000091,
            "durationTicks": 240,
            "midi": 83,
            "name": "B5",
            "ticks": 100320,
            "time": 100.32,
            "velocity": 0.6692913385826772
          },
          {
            "duration": 0.2400000000000091,
            "durationTicks": 240,
            "midi": 88,
            "name": "E6",
            "ticks": 100320,
            "time": 100.32,
            "velocity": 0.6692913385826772
          },
          {
            "duration": 0.23999999999999488,
            "durationTicks": 240,
            "midi": 78,
            "name": "F#5",
            "ticks": 100800,
            "time": 100.8,
            "velocity": 0.6692913385826772
          },
          {
            "duration": 0.23999999999999488,
            "durationTicks": 240,
            "midi": 82,
            "name": "A#5",
            "ticks": 100800,
            "time": 100.8,
            "velocity": 0.6692913385826772
          },
          {
            "duration": 0.23999999999999488,
            "durationTicks": 240,
            "midi": 84,
            "name": "C6",
            "ticks": 100800,
            "time": 100.8,
            "velocity": 0.6692913385826772
          },
          {
            "duration": 0.23999999999999488,
            "durationTicks": 240,
            "midi": 87,
            "name": "D#6",
            "ticks": 100800,
            "time": 100.8,
            "velocity": 0.6692913385826772
          },
          {
            "duration": 0.23999999999999488,
            "durationTicks": 240,
            "midi": 77,
            "name": "F5",
            "ticks": 101280,
            "time": 101.28,
            "velocity": 0.6692913385826772
          },
          {
            "duration": 0.23999999999999488,
            "durationTicks": 240,
            "midi": 80,
            "name": "G#5",
            "ticks": 101280,
            "time": 101.28,
            "velocity": 0.6692913385826772
          },
          {
            "duration": 0.23999999999999488,
            "durationTicks": 240,
            "midi": 83,
            "name": "B5",
            "ticks": 101280,
            "time": 101.28,
            "velocity": 0.6692913385826772
          },
          {
            "duration": 0.23999999999999488,
            "durationTicks": 240,
            "midi": 86,
            "name": "D6",
            "ticks": 101280,
            "time": 101.28,
            "velocity": 0.6692913385826772
          },
          {
            "duration": 0.2400000000000091,
            "durationTicks": 240,
            "midi": 88,
            "name": "E6",
            "ticks": 101760,
            "time": 101.75999999999999,
            "velocity": 0.6692913385826772
          },
          {
            "duration": 0.17799999999999727,
            "durationTicks": 178,
            "midi": 87,
            "name": "D#6",
            "ticks": 102062,
            "time": 102.062,
            "velocity": 0.6692913385826772
          },
          {
            "duration": 0.23999999999999488,
            "durationTicks": 240,
            "midi": 88,
            "name": "E6",
            "ticks": 102240,
            "time": 102.24,
            "velocity": 0.6692913385826772
          },
          {
            "duration": 0.17800000000001148,
            "durationTicks": 178,
            "midi": 79,
            "name": "G5",
            "ticks": 102542,
            "time": 102.54199999999999,
            "velocity": 0.6692913385826772
          },
          {
            "duration": 0.17800000000001148,
            "durationTicks": 178,
            "midi": 79,
            "name": "G5",
            "ticks": 103022,
            "time": 103.02199999999999,
            "velocity": 0.6692913385826772
          },
          {
            "duration": 0.23999999999999488,
            "durationTicks": 240,
            "midi": 81,
            "name": "A5",
            "ticks": 103200,
            "time": 103.2,
            "velocity": 0.6692913385826772
          },
          {
            "duration": 0.17799999999999727,
            "durationTicks": 178,
            "midi": 82,
            "name": "A#5",
            "ticks": 103502,
            "time": 103.502,
            "velocity": 0.6692913385826772
          },
          {
            "duration": 0.2400000000000091,
            "durationTicks": 240,
            "midi": 83,
            "name": "B5",
            "ticks": 103680,
            "time": 103.67999999999999,
            "velocity": 0.6692913385826772
          },
          {
            "duration": 0.23999999999999488,
            "durationTicks": 240,
            "midi": 83,
            "name": "B5",
            "ticks": 104160,
            "time": 104.16,
            "velocity": 0.6692913385826772
          },
          {
            "duration": 0.17800000000001148,
            "durationTicks": 178,
            "midi": 82,
            "name": "A#5",
            "ticks": 104462,
            "time": 104.46199999999999,
            "velocity": 0.6692913385826772
          },
          {
            "duration": 0.23999999999999488,
            "durationTicks": 240,
            "midi": 81,
            "name": "A5",
            "ticks": 104640,
            "time": 104.64,
            "velocity": 0.6692913385826772
          },
          {
            "duration": 0.17799999999999727,
            "durationTicks": 178,
            "midi": 80,
            "name": "G#5",
            "ticks": 104942,
            "time": 104.942,
            "velocity": 0.6692913385826772
          },
          {
            "duration": 0.2400000000000091,
            "durationTicks": 240,
            "midi": 81,
            "name": "A5",
            "ticks": 105120,
            "time": 105.11999999999999,
            "velocity": 0.6692913385826772
          },
          {
            "duration": 0.0799999999999983,
            "durationTicks": 80,
            "midi": 77,
            "name": "F5",
            "ticks": 105440,
            "time": 105.44,
            "velocity": 0.6692913385826772
          },
          {
            "duration": 0.0799999999999983,
            "durationTicks": 80,
            "midi": 86,
            "name": "D6",
            "ticks": 105440,
            "time": 105.44,
            "velocity": 0.6692913385826772
          },
          {
            "duration": 0.0799999999999983,
            "durationTicks": 80,
            "midi": 76,
            "name": "E5",
            "ticks": 105520,
            "time": 105.52,
            "velocity": 0.6692913385826772
          },
          {
            "duration": 0.0799999999999983,
            "durationTicks": 80,
            "midi": 88,
            "name": "E6",
            "ticks": 105520,
            "time": 105.52,
            "velocity": 0.6692913385826772
          },
          {
            "duration": 0.23999999999999488,
            "durationTicks": 240,
            "midi": 74,
            "name": "D5",
            "ticks": 105600,
            "time": 105.6,
            "velocity": 0.6692913385826772
          },
          {
            "duration": 0.23999999999999488,
            "durationTicks": 240,
            "midi": 89,
            "name": "F6",
            "ticks": 105600,
            "time": 105.6,
            "velocity": 0.6692913385826772
          },
          {
            "duration": 0.17799999999999727,
            "durationTicks": 178,
            "midi": 88,
            "name": "E6",
            "ticks": 105902,
            "time": 105.902,
            "velocity": 0.6692913385826772
          },
          {
            "duration": 0.23999999999999488,
            "durationTicks": 240,
            "midi": 89,
            "name": "F6",
            "ticks": 106080,
            "time": 106.08,
            "velocity": 0.6692913385826772
          },
          {
            "duration": 0.17800000000001148,
            "durationTicks": 178,
            "midi": 81,
            "name": "A5",
            "ticks": 106382,
            "time": 106.38199999999999,
            "velocity": 0.6692913385826772
          },
          {
            "duration": 0.17799999999999727,
            "durationTicks": 178,
            "midi": 77,
            "name": "F5",
            "ticks": 106862,
            "time": 106.862,
            "velocity": 0.6692913385826772
          },
          {
            "duration": 0.17799999999999727,
            "durationTicks": 178,
            "midi": 81,
            "name": "A5",
            "ticks": 106862,
            "time": 106.862,
            "velocity": 0.6692913385826772
          },
          {
            "duration": 0.17799999999999727,
            "durationTicks": 178,
            "midi": 83,
            "name": "B5",
            "ticks": 106862,
            "time": 106.862,
            "velocity": 0.6692913385826772
          },
          {
            "duration": 0.17799999999999727,
            "durationTicks": 178,
            "midi": 88,
            "name": "E6",
            "ticks": 106862,
            "time": 106.862,
            "velocity": 0.6692913385826772
          },
          {
            "duration": 0.6580000000000013,
            "durationTicks": 658,
            "midi": 76,
            "name": "E5",
            "ticks": 107342,
            "time": 107.342,
            "velocity": 0.6692913385826772
          },
          {
            "duration": 0.6580000000000013,
            "durationTicks": 658,
            "midi": 79,
            "name": "G5",
            "ticks": 107342,
            "time": 107.342,
            "velocity": 0.6692913385826772
          },
          {
            "duration": 0.6580000000000013,
            "durationTicks": 658,
            "midi": 84,
            "name": "C6",
            "ticks": 107342,
            "time": 107.342,
            "velocity": 0.6692913385826772
          },
          {
            "duration": 0.17799999999999727,
            "durationTicks": 178,
            "midi": 76,
            "name": "E5",
            "ticks": 108302,
            "time": 108.30199999999999,
            "velocity": 0.6692913385826772
          },
          {
            "duration": 0.17799999999999727,
            "durationTicks": 178,
            "midi": 88,
            "name": "E6",
            "ticks": 108302,
            "time": 108.30199999999999,
            "velocity": 0.6692913385826772
          },
          {
            "duration": 0.2400000000000091,
            "durationTicks": 240,
            "midi": 77,
            "name": "F5",
            "ticks": 108480,
            "time": 108.47999999999999,
            "velocity": 0.6692913385826772
          },
          {
            "duration": 0.2400000000000091,
            "durationTicks": 240,
            "midi": 89,
            "name": "F6",
            "ticks": 108480,
            "time": 108.47999999999999,
            "velocity": 0.6692913385826772
          },
          {
            "duration": 0.2400000000000091,
            "durationTicks": 240,
            "midi": 79,
            "name": "G5",
            "ticks": 108960,
            "time": 108.96,
            "velocity": 0.6692913385826772
          },
          {
            "duration": 0.2400000000000091,
            "durationTicks": 240,
            "midi": 91,
            "name": "G6",
            "ticks": 108960,
            "time": 108.96,
            "velocity": 0.6692913385826772
          },
          {
            "duration": 0.3199999999999932,
            "durationTicks": 320,
            "midi": 77,
            "name": "F5",
            "ticks": 109440,
            "time": 109.44,
            "velocity": 0.6692913385826772
          },
          {
            "duration": 0.0800000000000125,
            "durationTicks": 80,
            "midi": 81,
            "name": "A5",
            "ticks": 109760,
            "time": 109.75999999999999,
            "velocity": 0.6692913385826772
          },
          {
            "duration": 0.0799999999999983,
            "durationTicks": 80,
            "midi": 84,
            "name": "C6",
            "ticks": 109840,
            "time": 109.84,
            "velocity": 0.6692913385826772
          },
          {
            "duration": 0.23999999999999488,
            "durationTicks": 240,
            "midi": 88,
            "name": "E6",
            "ticks": 109920,
            "time": 109.92,
            "velocity": 0.6692913385826772
          },
          {
            "duration": 0.17799999999999727,
            "durationTicks": 178,
            "midi": 86,
            "name": "D6",
            "ticks": 110222,
            "time": 110.222,
            "velocity": 0.6692913385826772
          },
          {
            "duration": 0.05400000000001626,
            "durationTicks": 54,
            "midi": 87,
            "name": "D#6",
            "ticks": 110400,
            "time": 110.39999999999999,
            "velocity": 0.6692913385826772
          },
          {
            "duration": 0.2400000000000091,
            "durationTicks": 240,
            "midi": 88,
            "name": "E6",
            "ticks": 110400,
            "time": 110.39999999999999,
            "velocity": 0.6692913385826772
          },
          {
            "duration": 0.17799999999999727,
            "durationTicks": 178,
            "midi": 91,
            "name": "G6",
            "ticks": 110702,
            "time": 110.702,
            "velocity": 0.6692913385826772
          },
          {
            "duration": 0.23999999999999488,
            "durationTicks": 240,
            "midi": 86,
            "name": "D6",
            "ticks": 110880,
            "time": 110.88,
            "velocity": 0.6692913385826772
          },
          {
            "duration": 0.054000000000002046,
            "durationTicks": 54,
            "midi": 87,
            "name": "D#6",
            "ticks": 110880,
            "time": 110.88,
            "velocity": 0.6692913385826772
          },
          {
            "duration": 0.17800000000001148,
            "durationTicks": 178,
            "midi": 84,
            "name": "C6",
            "ticks": 111182,
            "time": 111.18199999999999,
            "velocity": 0.6692913385826772
          },
          {
            "duration": 0.1599999999999966,
            "durationTicks": 160,
            "midi": 84,
            "name": "C6",
            "ticks": 111680,
            "time": 111.67999999999999,
            "velocity": 0.6692913385826772
          },
          {
            "duration": 0.1600000000000108,
            "durationTicks": 160,
            "midi": 82,
            "name": "A#5",
            "ticks": 111840,
            "time": 111.83999999999999,
            "velocity": 0.6692913385826772
          },
          {
            "duration": 0.1599999999999966,
            "durationTicks": 160,
            "midi": 79,
            "name": "G5",
            "ticks": 112000,
            "time": 112,
            "velocity": 0.6692913385826772
          },
          {
            "duration": 0.1599999999999966,
            "durationTicks": 160,
            "midi": 78,
            "name": "F#5",
            "ticks": 112160,
            "time": 112.16,
            "velocity": 0.6692913385826772
          },
          {
            "duration": 0.7199999999999989,
            "durationTicks": 720,
            "midi": 79,
            "name": "G5",
            "ticks": 112320,
            "time": 112.32,
            "velocity": 0.6692913385826772
          },
          {
            "duration": 0.17800000000001148,
            "durationTicks": 178,
            "midi": 72,
            "name": "C5",
            "ticks": 113102,
            "time": 113.10199999999999,
            "velocity": 0.6692913385826772
          },
          {
            "duration": 0.1599999999999966,
            "durationTicks": 160,
            "midi": 75,
            "name": "D#5",
            "ticks": 113280,
            "time": 113.28,
            "velocity": 0.6692913385826772
          },
          {
            "duration": 0.1599999999999966,
            "durationTicks": 160,
            "midi": 76,
            "name": "E5",
            "ticks": 113440,
            "time": 113.44,
            "velocity": 0.6692913385826772
          },
          {
            "duration": 0.1599999999999966,
            "durationTicks": 160,
            "midi": 72,
            "name": "C5",
            "ticks": 113600,
            "time": 113.6,
            "velocity": 0.6692913385826772
          },
          {
            "duration": 0.1600000000000108,
            "durationTicks": 160,
            "midi": 70,
            "name": "A#4",
            "ticks": 113760,
            "time": 113.75999999999999,
            "velocity": 0.6692913385826772
          },
          {
            "duration": 0.1599999999999966,
            "durationTicks": 160,
            "midi": 66,
            "name": "F#4",
            "ticks": 113920,
            "time": 113.92,
            "velocity": 0.6692913385826772
          },
          {
            "duration": 0.1599999999999966,
            "durationTicks": 160,
            "midi": 65,
            "name": "F4",
            "ticks": 114080,
            "time": 114.08,
            "velocity": 0.6692913385826772
          },
          {
            "duration": 0.23999999999999488,
            "durationTicks": 240,
            "midi": 63,
            "name": "D#4",
            "ticks": 114240,
            "time": 114.24,
            "velocity": 0.6692913385826772
          },
          {
            "duration": 0.6410000000000053,
            "durationTicks": 641,
            "midi": 60,
            "name": "C4",
            "ticks": 114542,
            "time": 114.54199999999999,
            "velocity": 0.6692913385826772
          }
        ]
      },
      {
        "channel": 4,
        "controlChanges": {
          "0": [
            {
              "number": 0,
              "ticks": 0,
              "time": 0,
              "value": 0
            }
          ],
          "6": [
            {
              "number": 6,
              "ticks": 0,
              "time": 0,
              "value": 0.09448818897637795
            },
            {
              "number": 6,
              "ticks": 0,
              "time": 0,
              "value": 0.5039370078740157
            }
          ],
          "10": [
            {
              "number": 10,
              "ticks": 0,
              "time": 0,
              "value": 0.5039370078740157
            },
            {
              "number": 10,
              "ticks": 0,
              "time": 0,
              "value": 0.5039370078740157
            }
          ],
          "38": [
            {
              "number": 38,
              "ticks": 0,
              "time": 0,
              "value": 0
            }
          ],
          "91": [
            {
              "number": 91,
              "ticks": 0,
              "time": 0,
              "value": 0
            }
          ],
          "92": [
            {
              "number": 92,
              "ticks": 0,
              "time": 0,
              "value": 0
            }
          ],
          "93": [
            {
              "number": 93,
              "ticks": 0,
              "time": 0,
              "value": 0
            }
          ],
          "95": [
            {
              "number": 95,
              "ticks": 0,
              "time": 0,
              "value": 0
            }
          ],
          "100": [
            {
              "number": 100,
              "ticks": 0,
              "time": 0,
              "value": 0
            },
            {
              "number": 100,
              "ticks": 0,
              "time": 0,
              "value": 0.007874015748031496
            },
            {
              "number": 100,
              "ticks": 0,
              "time": 0,
              "value": 0.015748031496062992
            },
            {
              "number": 100,
              "ticks": 0,
              "time": 0,
              "value": 1
            }
          ],
          "101": [
            {
              "number": 101,
              "ticks": 0,
              "time": 0,
              "value": 0
            },
            {
              "number": 101,
              "ticks": 0,
              "time": 0,
              "value": 1
            }
          ]
        },
        "pitchBends": [
          {
            "ticks": 0,
            "time": 0,
            "value": 0
          }
        ],
        "instrument": {
          "family": "piano",
          "number": 0,
          "name": "acoustic grand piano"
        },
        "name": "Track 3",
        "notes": [
          {
            "duration": 0.17800000000000005,
            "durationTicks": 178,
            "midi": 43,
            "name": "G2",
            "ticks": 782,
            "time": 0.7819999999999999,
            "velocity": 0.5039370078740157
          },
          {
            "duration": 0.24,
            "durationTicks": 240,
            "midi": 45,
            "name": "A2",
            "ticks": 960,
            "time": 0.96,
            "velocity": 0.5039370078740157
          },
          {
            "duration": 0.24,
            "durationTicks": 240,
            "midi": 47,
            "name": "B2",
            "ticks": 1440,
            "time": 1.44,
            "velocity": 0.5039370078740157
          },
          {
            "duration": 0.2400000000000002,
            "durationTicks": 240,
            "midi": 36,
            "name": "C2",
            "ticks": 1920,
            "time": 1.92,
            "velocity": 0.5039370078740157
          },
          {
            "duration": 0.2400000000000002,
            "durationTicks": 240,
            "midi": 48,
            "name": "C3",
            "ticks": 1920,
            "time": 1.92,
            "velocity": 0.5039370078740157
          },
          {
            "duration": 0.2400000000000002,
            "durationTicks": 240,
            "midi": 31,
            "name": "G1",
            "ticks": 2880,
            "time": 2.88,
            "velocity": 0.5039370078740157
          },
          {
            "duration": 0.2400000000000002,
            "durationTicks": 240,
            "midi": 43,
            "name": "G2",
            "ticks": 2880,
            "time": 2.88,
            "velocity": 0.5039370078740157
          },
          {
            "duration": 0.2400000000000002,
            "durationTicks": 240,
            "midi": 33,
            "name": "A1",
            "ticks": 3840,
            "time": 3.84,
            "velocity": 0.5039370078740157
          },
          {
            "duration": 0.2400000000000002,
            "durationTicks": 240,
            "midi": 45,
            "name": "A2",
            "ticks": 3840,
            "time": 3.84,
            "velocity": 0.5039370078740157
          },
          {
            "duration": 0.2400000000000002,
            "durationTicks": 240,
            "midi": 40,
            "name": "E2",
            "ticks": 4800,
            "time": 4.8,
            "velocity": 0.5039370078740157
          },
          {
            "duration": 0.2400000000000002,
            "durationTicks": 240,
            "midi": 52,
            "name": "E3",
            "ticks": 4800,
            "time": 4.8,
            "velocity": 0.5039370078740157
          },
          {
            "duration": 0.2400000000000002,
            "durationTicks": 240,
            "midi": 39,
            "name": "D#2",
            "ticks": 5280,
            "time": 5.279999999999999,
            "velocity": 0.5039370078740157
          },
          {
            "duration": 0.2400000000000002,
            "durationTicks": 240,
            "midi": 51,
            "name": "D#3",
            "ticks": 5280,
            "time": 5.279999999999999,
            "velocity": 0.5039370078740157
          },
          {
            "duration": 0.2400000000000002,
            "durationTicks": 240,
            "midi": 38,
            "name": "D2",
            "ticks": 5760,
            "time": 5.76,
            "velocity": 0.5039370078740157
          },
          {
            "duration": 0.2400000000000002,
            "durationTicks": 240,
            "midi": 50,
            "name": "D3",
            "ticks": 5760,
            "time": 5.76,
            "velocity": 0.5039370078740157
          },
          {
            "duration": 0.2400000000000002,
            "durationTicks": 240,
            "midi": 33,
            "name": "A1",
            "ticks": 6720,
            "time": 6.72,
            "velocity": 0.5039370078740157
          },
          {
            "duration": 0.2400000000000002,
            "durationTicks": 240,
            "midi": 45,
            "name": "A2",
            "ticks": 6720,
            "time": 6.72,
            "velocity": 0.5039370078740157
          },
          {
            "duration": 0.2400000000000002,
            "durationTicks": 240,
            "midi": 31,
            "name": "G1",
            "ticks": 7680,
            "time": 7.68,
            "velocity": 0.5039370078740157
          },
          {
            "duration": 0.2400000000000002,
            "durationTicks": 240,
            "midi": 43,
            "name": "G2",
            "ticks": 7680,
            "time": 7.68,
            "velocity": 0.5039370078740157
          },
          {
            "duration": 0.4800000000000004,
            "durationTicks": 480,
            "midi": 33,
            "name": "A1",
            "ticks": 8160,
            "time": 8.16,
            "velocity": 0.5039370078740157
          },
          {
            "duration": 0.4800000000000004,
            "durationTicks": 480,
            "midi": 45,
            "name": "A2",
            "ticks": 8160,
            "time": 8.16,
            "velocity": 0.5039370078740157
          },
          {
            "duration": 0.47999999999999865,
            "durationTicks": 480,
            "midi": 34,
            "name": "A#1",
            "ticks": 8640,
            "time": 8.64,
            "velocity": 0.5039370078740157
          },
          {
            "duration": 0.47999999999999865,
            "durationTicks": 480,
            "midi": 46,
            "name": "A#2",
            "ticks": 8640,
            "time": 8.64,
            "velocity": 0.5039370078740157
          },
          {
            "duration": 0.2400000000000002,
            "durationTicks": 240,
            "midi": 35,
            "name": "B1",
            "ticks": 9120,
            "time": 9.12,
            "velocity": 0.5039370078740157
          },
          {
            "duration": 0.2400000000000002,
            "durationTicks": 240,
            "midi": 47,
            "name": "B2",
            "ticks": 9120,
            "time": 9.12,
            "velocity": 0.5039370078740157
          },
          {
            "duration": 0.2400000000000002,
            "durationTicks": 240,
            "midi": 36,
            "name": "C2",
            "ticks": 9600,
            "time": 9.6,
            "velocity": 0.5039370078740157
          },
          {
            "duration": 0.2400000000000002,
            "durationTicks": 240,
            "midi": 48,
            "name": "C3",
            "ticks": 9600,
            "time": 9.6,
            "velocity": 0.5039370078740157
          },
          {
            "duration": 0.2400000000000002,
            "durationTicks": 240,
            "midi": 31,
            "name": "G1",
            "ticks": 10560,
            "time": 10.559999999999999,
            "velocity": 0.5039370078740157
          },
          {
            "duration": 0.2400000000000002,
            "durationTicks": 240,
            "midi": 43,
            "name": "G2",
            "ticks": 10560,
            "time": 10.559999999999999,
            "velocity": 0.5039370078740157
          },
          {
            "duration": 0.2400000000000002,
            "durationTicks": 240,
            "midi": 33,
            "name": "A1",
            "ticks": 11520,
            "time": 11.52,
            "velocity": 0.5039370078740157
          },
          {
            "duration": 0.2400000000000002,
            "durationTicks": 240,
            "midi": 45,
            "name": "A2",
            "ticks": 11520,
            "time": 11.52,
            "velocity": 0.5039370078740157
          },
          {
            "duration": 0.23999999999999844,
            "durationTicks": 240,
            "midi": 40,
            "name": "E2",
            "ticks": 12480,
            "time": 12.48,
            "velocity": 0.5039370078740157
          },
          {
            "duration": 0.23999999999999844,
            "durationTicks": 240,
            "midi": 52,
            "name": "E3",
            "ticks": 12480,
            "time": 12.48,
            "velocity": 0.5039370078740157
          },
          {
            "duration": 0.2400000000000002,
            "durationTicks": 240,
            "midi": 39,
            "name": "D#2",
            "ticks": 12960,
            "time": 12.959999999999999,
            "velocity": 0.5039370078740157
          },
          {
            "duration": 0.2400000000000002,
            "durationTicks": 240,
            "midi": 51,
            "name": "D#3",
            "ticks": 12960,
            "time": 12.959999999999999,
            "velocity": 0.5039370078740157
          },
          {
            "duration": 0.2400000000000002,
            "durationTicks": 240,
            "midi": 38,
            "name": "D2",
            "ticks": 13440,
            "time": 13.44,
            "velocity": 0.5039370078740157
          },
          {
            "duration": 0.2400000000000002,
            "durationTicks": 240,
            "midi": 50,
            "name": "D3",
            "ticks": 13440,
            "time": 13.44,
            "velocity": 0.5039370078740157
          },
          {
            "duration": 0.2400000000000002,
            "durationTicks": 240,
            "midi": 31,
            "name": "G1",
            "ticks": 14400,
            "time": 14.399999999999999,
            "velocity": 0.5039370078740157
          },
          {
            "duration": 0.2400000000000002,
            "durationTicks": 240,
            "midi": 43,
            "name": "G2",
            "ticks": 14400,
            "time": 14.399999999999999,
            "velocity": 0.5039370078740157
          },
          {
            "duration": 0.2400000000000002,
            "durationTicks": 240,
            "midi": 36,
            "name": "C2",
            "ticks": 15360,
            "time": 15.36,
            "velocity": 0.5039370078740157
          },
          {
            "duration": 0.2400000000000002,
            "durationTicks": 240,
            "midi": 48,
            "name": "C3",
            "ticks": 15360,
            "time": 15.36,
            "velocity": 0.5039370078740157
          },
          {
            "duration": 0.23999999999999844,
            "durationTicks": 240,
            "midi": 31,
            "name": "G1",
            "ticks": 16800,
            "time": 16.8,
            "velocity": 0.5039370078740157
          },
          {
            "duration": 0.23999999999999844,
            "durationTicks": 240,
            "midi": 43,
            "name": "G2",
            "ticks": 16800,
            "time": 16.8,
            "velocity": 0.5039370078740157
          },
          {
            "duration": 0.23999999999999844,
            "durationTicks": 240,
            "midi": 36,
            "name": "C2",
            "ticks": 17280,
            "time": 17.28,
            "velocity": 0.5039370078740157
          },
          {
            "duration": 0.23999999999999844,
            "durationTicks": 240,
            "midi": 48,
            "name": "C3",
            "ticks": 17280,
            "time": 17.28,
            "velocity": 0.5039370078740157
          },
          {
            "duration": 0.240000000000002,
            "durationTicks": 240,
            "midi": 31,
            "name": "G1",
            "ticks": 18240,
            "time": 18.24,
            "velocity": 0.5039370078740157
          },
          {
            "duration": 0.240000000000002,
            "durationTicks": 240,
            "midi": 43,
            "name": "G2",
            "ticks": 18240,
            "time": 18.24,
            "velocity": 0.5039370078740157
          },
          {
            "duration": 0.23999999999999844,
            "durationTicks": 240,
            "midi": 33,
            "name": "A1",
            "ticks": 19200,
            "time": 19.2,
            "velocity": 0.5039370078740157
          },
          {
            "duration": 0.23999999999999844,
            "durationTicks": 240,
            "midi": 45,
            "name": "A2",
            "ticks": 19200,
            "time": 19.2,
            "velocity": 0.5039370078740157
          },
          {
            "duration": 0.23999999999999844,
            "durationTicks": 240,
            "midi": 40,
            "name": "E2",
            "ticks": 20160,
            "time": 20.16,
            "velocity": 0.5039370078740157
          },
          {
            "duration": 0.23999999999999844,
            "durationTicks": 240,
            "midi": 52,
            "name": "E3",
            "ticks": 20160,
            "time": 20.16,
            "velocity": 0.5039370078740157
          },
          {
            "duration": 0.23999999999999844,
            "durationTicks": 240,
            "midi": 39,
            "name": "D#2",
            "ticks": 20640,
            "time": 20.64,
            "velocity": 0.5039370078740157
          },
          {
            "duration": 0.23999999999999844,
            "durationTicks": 240,
            "midi": 51,
            "name": "D#3",
            "ticks": 20640,
            "time": 20.64,
            "velocity": 0.5039370078740157
          },
          {
            "duration": 0.240000000000002,
            "durationTicks": 240,
            "midi": 38,
            "name": "D2",
            "ticks": 21120,
            "time": 21.119999999999997,
            "velocity": 0.5039370078740157
          },
          {
            "duration": 0.240000000000002,
            "durationTicks": 240,
            "midi": 50,
            "name": "D3",
            "ticks": 21120,
            "time": 21.119999999999997,
            "velocity": 0.5039370078740157
          },
          {
            "duration": 0.240000000000002,
            "durationTicks": 240,
            "midi": 33,
            "name": "A1",
            "ticks": 22080,
            "time": 22.08,
            "velocity": 0.5039370078740157
          },
          {
            "duration": 0.240000000000002,
            "durationTicks": 240,
            "midi": 45,
            "name": "A2",
            "ticks": 22080,
            "time": 22.08,
            "velocity": 0.5039370078740157
          },
          {
            "duration": 0.23999999999999844,
            "durationTicks": 240,
            "midi": 31,
            "name": "G1",
            "ticks": 23040,
            "time": 23.04,
            "velocity": 0.5039370078740157
          },
          {
            "duration": 0.23999999999999844,
            "durationTicks": 240,
            "midi": 43,
            "name": "G2",
            "ticks": 23040,
            "time": 23.04,
            "velocity": 0.5039370078740157
          },
          {
            "duration": 0.4800000000000004,
            "durationTicks": 480,
            "midi": 33,
            "name": "A1",
            "ticks": 23520,
            "time": 23.52,
            "velocity": 0.5039370078740157
          },
          {
            "duration": 0.4800000000000004,
            "durationTicks": 480,
            "midi": 45,
            "name": "A2",
            "ticks": 23520,
            "time": 23.52,
            "velocity": 0.5039370078740157
          },
          {
            "duration": 0.4800000000000004,
            "durationTicks": 480,
            "midi": 34,
            "name": "A#1",
            "ticks": 24000,
            "time": 24,
            "velocity": 0.5039370078740157
          },
          {
            "duration": 0.4800000000000004,
            "durationTicks": 480,
            "midi": 46,
            "name": "A#2",
            "ticks": 24000,
            "time": 24,
            "velocity": 0.5039370078740157
          },
          {
            "duration": 0.23999999999999844,
            "durationTicks": 240,
            "midi": 35,
            "name": "B1",
            "ticks": 24480,
            "time": 24.48,
            "velocity": 0.5039370078740157
          },
          {
            "duration": 0.23999999999999844,
            "durationTicks": 240,
            "midi": 47,
            "name": "B2",
            "ticks": 24480,
            "time": 24.48,
            "velocity": 0.5039370078740157
          },
          {
            "duration": 0.23999999999999844,
            "durationTicks": 240,
            "midi": 36,
            "name": "C2",
            "ticks": 24960,
            "time": 24.96,
            "velocity": 0.5039370078740157
          },
          {
            "duration": 0.23999999999999844,
            "durationTicks": 240,
            "midi": 48,
            "name": "C3",
            "ticks": 24960,
            "time": 24.96,
            "velocity": 0.5039370078740157
          },
          {
            "duration": 0.240000000000002,
            "durationTicks": 240,
            "midi": 31,
            "name": "G1",
            "ticks": 25920,
            "time": 25.919999999999998,
            "velocity": 0.5039370078740157
          },
          {
            "duration": 0.240000000000002,
            "durationTicks": 240,
            "midi": 43,
            "name": "G2",
            "ticks": 25920,
            "time": 25.919999999999998,
            "velocity": 0.5039370078740157
          },
          {
            "duration": 0.23999999999999844,
            "durationTicks": 240,
            "midi": 33,
            "name": "A1",
            "ticks": 26880,
            "time": 26.88,
            "velocity": 0.5039370078740157
          },
          {
            "duration": 0.23999999999999844,
            "durationTicks": 240,
            "midi": 45,
            "name": "A2",
            "ticks": 26880,
            "time": 26.88,
            "velocity": 0.5039370078740157
          },
          {
            "duration": 0.23999999999999844,
            "durationTicks": 240,
            "midi": 40,
            "name": "E2",
            "ticks": 27840,
            "time": 27.84,
            "velocity": 0.5039370078740157
          },
          {
            "duration": 0.23999999999999844,
            "durationTicks": 240,
            "midi": 52,
            "name": "E3",
            "ticks": 27840,
            "time": 27.84,
            "velocity": 0.5039370078740157
          },
          {
            "duration": 0.23999999999999844,
            "durationTicks": 240,
            "midi": 39,
            "name": "D#2",
            "ticks": 28320,
            "time": 28.32,
            "velocity": 0.5039370078740157
          },
          {
            "duration": 0.23999999999999844,
            "durationTicks": 240,
            "midi": 51,
            "name": "D#3",
            "ticks": 28320,
            "time": 28.32,
            "velocity": 0.5039370078740157
          },
          {
            "duration": 0.240000000000002,
            "durationTicks": 240,
            "midi": 38,
            "name": "D2",
            "ticks": 28800,
            "time": 28.799999999999997,
            "velocity": 0.5039370078740157
          },
          {
            "duration": 0.240000000000002,
            "durationTicks": 240,
            "midi": 50,
            "name": "D3",
            "ticks": 28800,
            "time": 28.799999999999997,
            "velocity": 0.5039370078740157
          },
          {
            "duration": 0.240000000000002,
            "durationTicks": 240,
            "midi": 31,
            "name": "G1",
            "ticks": 29760,
            "time": 29.759999999999998,
            "velocity": 0.5039370078740157
          },
          {
            "duration": 0.240000000000002,
            "durationTicks": 240,
            "midi": 43,
            "name": "G2",
            "ticks": 29760,
            "time": 29.759999999999998,
            "velocity": 0.5039370078740157
          },
          {
            "duration": 0.23999999999999844,
            "durationTicks": 240,
            "midi": 36,
            "name": "C2",
            "ticks": 30720,
            "time": 30.72,
            "velocity": 0.5039370078740157
          },
          {
            "duration": 0.23999999999999844,
            "durationTicks": 240,
            "midi": 48,
            "name": "C3",
            "ticks": 30720,
            "time": 30.72,
            "velocity": 0.5039370078740157
          },
          {
            "duration": 0.4800000000000004,
            "durationTicks": 480,
            "midi": 36,
            "name": "C2",
            "ticks": 31200,
            "time": 31.2,
            "velocity": 0.5039370078740157
          },
          {
            "duration": 0.4800000000000004,
            "durationTicks": 480,
            "midi": 48,
            "name": "C3",
            "ticks": 31200,
            "time": 31.2,
            "velocity": 0.5039370078740157
          },
          {
            "duration": 0.4799999999999969,
            "durationTicks": 480,
            "midi": 38,
            "name": "D2",
            "ticks": 31680,
            "time": 31.68,
            "velocity": 0.5039370078740157
          },
          {
            "duration": 0.4799999999999969,
            "durationTicks": 480,
            "midi": 50,
            "name": "D3",
            "ticks": 31680,
            "time": 31.68,
            "velocity": 0.5039370078740157
          },
          {
            "duration": 0.480000000000004,
            "durationTicks": 480,
            "midi": 39,
            "name": "D#2",
            "ticks": 32160,
            "time": 32.16,
            "velocity": 0.5039370078740157
          },
          {
            "duration": 0.480000000000004,
            "durationTicks": 480,
            "midi": 51,
            "name": "D#3",
            "ticks": 32160,
            "time": 32.16,
            "velocity": 0.5039370078740157
          },
          {
            "duration": 0.4799999999999969,
            "durationTicks": 480,
            "midi": 29,
            "name": "F1",
            "ticks": 32640,
            "time": 32.64,
            "velocity": 0.5039370078740157
          },
          {
            "duration": 0.480000000000004,
            "durationTicks": 480,
            "midi": 31,
            "name": "G1",
            "ticks": 33120,
            "time": 33.12,
            "velocity": 0.5039370078740157
          },
          {
            "duration": 0.4799999999999969,
            "durationTicks": 480,
            "midi": 32,
            "name": "G#1",
            "ticks": 33600,
            "time": 33.6,
            "velocity": 0.5039370078740157
          },
          {
            "duration": 0.480000000000004,
            "durationTicks": 480,
            "midi": 33,
            "name": "A1",
            "ticks": 34080,
            "time": 34.08,
            "velocity": 0.5039370078740157
          },
          {
            "duration": 0.4799999999999969,
            "durationTicks": 480,
            "midi": 34,
            "name": "A#1",
            "ticks": 34560,
            "time": 34.56,
            "velocity": 0.5039370078740157
          },
          {
            "duration": 0.4799999999999969,
            "durationTicks": 480,
            "midi": 35,
            "name": "B1",
            "ticks": 35040,
            "time": 35.04,
            "velocity": 0.5039370078740157
          },
          {
            "duration": 0.480000000000004,
            "durationTicks": 480,
            "midi": 38,
            "name": "D2",
            "ticks": 35520,
            "time": 35.519999999999996,
            "velocity": 0.5039370078740157
          },
          {
            "duration": 0.4799999999999969,
            "durationTicks": 480,
            "midi": 34,
            "name": "A#1",
            "ticks": 36000,
            "time": 36,
            "velocity": 0.5039370078740157
          },
          {
            "duration": 0.480000000000004,
            "durationTicks": 480,
            "midi": 39,
            "name": "D#2",
            "ticks": 36480,
            "time": 36.48,
            "velocity": 0.5039370078740157
          },
          {
            "duration": 0.4799999999999969,
            "durationTicks": 480,
            "midi": 38,
            "name": "D2",
            "ticks": 36960,
            "time": 36.96,
            "velocity": 0.5039370078740157
          },
          {
            "duration": 0.480000000000004,
            "durationTicks": 480,
            "midi": 36,
            "name": "C2",
            "ticks": 37440,
            "time": 37.44,
            "velocity": 0.5039370078740157
          },
          {
            "duration": 0.4799999999999969,
            "durationTicks": 480,
            "midi": 34,
            "name": "A#1",
            "ticks": 37920,
            "time": 37.92,
            "velocity": 0.5039370078740157
          },
          {
            "duration": 0.4799999999999969,
            "durationTicks": 480,
            "midi": 32,
            "name": "G#1",
            "ticks": 38400,
            "time": 38.4,
            "velocity": 0.5039370078740157
          },
          {
            "duration": 0.480000000000004,
            "durationTicks": 480,
            "midi": 31,
            "name": "G1",
            "ticks": 38880,
            "time": 38.879999999999995,
            "velocity": 0.5039370078740157
          },
          {
            "duration": 0.4799999999999969,
            "durationTicks": 480,
            "midi": 29,
            "name": "F1",
            "ticks": 39360,
            "time": 39.36,
            "velocity": 0.5039370078740157
          },
          {
            "duration": 0.480000000000004,
            "durationTicks": 480,
            "midi": 27,
            "name": "D#1",
            "ticks": 39840,
            "time": 39.839999999999996,
            "velocity": 0.5039370078740157
          },
          {
            "duration": 0.4799999999999969,
            "durationTicks": 480,
            "midi": 33,
            "name": "A1",
            "ticks": 40320,
            "time": 40.32,
            "velocity": 0.5039370078740157
          },
          {
            "duration": 0.480000000000004,
            "durationTicks": 480,
            "midi": 36,
            "name": "C2",
            "ticks": 40800,
            "time": 40.8,
            "velocity": 0.5039370078740157
          },
          {
            "duration": 0.4799999999999969,
            "durationTicks": 480,
            "midi": 38,
            "name": "D2",
            "ticks": 41280,
            "time": 41.28,
            "velocity": 0.5039370078740157
          },
          {
            "duration": 0.4799999999999969,
            "durationTicks": 480,
            "midi": 30,
            "name": "F#1",
            "ticks": 41760,
            "time": 41.76,
            "velocity": 0.5039370078740157
          },
          {
            "duration": 0.480000000000004,
            "durationTicks": 480,
            "midi": 31,
            "name": "G1",
            "ticks": 42240,
            "time": 42.239999999999995,
            "velocity": 0.5039370078740157
          },
          {
            "duration": 0.4799999999999969,
            "durationTicks": 480,
            "midi": 31,
            "name": "G1",
            "ticks": 42720,
            "time": 42.72,
            "velocity": 0.5039370078740157
          },
          {
            "duration": 0.480000000000004,
            "durationTicks": 480,
            "midi": 36,
            "name": "C2",
            "ticks": 43200,
            "time": 43.199999999999996,
            "velocity": 0.5039370078740157
          },
          {
            "duration": 0.4799999999999969,
            "durationTicks": 480,
            "midi": 43,
            "name": "G2",
            "ticks": 43680,
            "time": 43.68,
            "velocity": 0.5039370078740157
          },
          {
            "duration": 0.480000000000004,
            "durationTicks": 480,
            "midi": 29,
            "name": "F1",
            "ticks": 44160,
            "time": 44.16,
            "velocity": 0.5039370078740157
          },
          {
            "duration": 0.4799999999999969,
            "durationTicks": 480,
            "midi": 31,
            "name": "G1",
            "ticks": 44640,
            "time": 44.64,
            "velocity": 0.5039370078740157
          },
          {
            "duration": 0.480000000000004,
            "durationTicks": 480,
            "midi": 32,
            "name": "G#1",
            "ticks": 45120,
            "time": 45.12,
            "velocity": 0.5039370078740157
          },
          {
            "duration": 0.4799999999999969,
            "durationTicks": 480,
            "midi": 36,
            "name": "C2",
            "ticks": 45600,
            "time": 45.6,
            "velocity": 0.5039370078740157
          },
          {
            "duration": 0.4799999999999969,
            "durationTicks": 480,
            "midi": 31,
            "name": "G1",
            "ticks": 46080,
            "time": 46.08,
            "velocity": 0.5039370078740157
          },
          {
            "duration": 0.480000000000004,
            "durationTicks": 480,
            "midi": 33,
            "name": "A1",
            "ticks": 46560,
            "time": 46.559999999999995,
            "velocity": 0.5039370078740157
          },
          {
            "duration": 0.240000000000002,
            "durationTicks": 240,
            "midi": 34,
            "name": "A#1",
            "ticks": 47040,
            "time": 47.04,
            "velocity": 0.5039370078740157
          },
          {
            "duration": 0.240000000000002,
            "durationTicks": 240,
            "midi": 35,
            "name": "B1",
            "ticks": 47520,
            "time": 47.519999999999996,
            "velocity": 0.5039370078740157
          },
          {
            "duration": 0.23999999999999488,
            "durationTicks": 240,
            "midi": 36,
            "name": "C2",
            "ticks": 48000,
            "time": 48,
            "velocity": 0.5039370078740157
          },
          {
            "duration": 0.23999999999999488,
            "durationTicks": 240,
            "midi": 48,
            "name": "C3",
            "ticks": 48000,
            "time": 48,
            "velocity": 0.5039370078740157
          },
          {
            "duration": 0.23999999999999488,
            "durationTicks": 240,
            "midi": 31,
            "name": "G1",
            "ticks": 48960,
            "time": 48.96,
            "velocity": 0.5039370078740157
          },
          {
            "duration": 0.23999999999999488,
            "durationTicks": 240,
            "midi": 43,
            "name": "G2",
            "ticks": 48960,
            "time": 48.96,
            "velocity": 0.5039370078740157
          },
          {
            "duration": 0.23999999999999488,
            "durationTicks": 240,
            "midi": 33,
            "name": "A1",
            "ticks": 49920,
            "time": 49.92,
            "velocity": 0.5039370078740157
          },
          {
            "duration": 0.23999999999999488,
            "durationTicks": 240,
            "midi": 45,
            "name": "A2",
            "ticks": 49920,
            "time": 49.92,
            "velocity": 0.5039370078740157
          },
          {
            "duration": 0.240000000000002,
            "durationTicks": 240,
            "midi": 40,
            "name": "E2",
            "ticks": 50880,
            "time": 50.879999999999995,
            "velocity": 0.5039370078740157
          },
          {
            "duration": 0.240000000000002,
            "durationTicks": 240,
            "midi": 52,
            "name": "E3",
            "ticks": 50880,
            "time": 50.879999999999995,
            "velocity": 0.5039370078740157
          },
          {
            "duration": 0.240000000000002,
            "durationTicks": 240,
            "midi": 39,
            "name": "D#2",
            "ticks": 51360,
            "time": 51.36,
            "velocity": 0.5039370078740157
          },
          {
            "duration": 0.240000000000002,
            "durationTicks": 240,
            "midi": 51,
            "name": "D#3",
            "ticks": 51360,
            "time": 51.36,
            "velocity": 0.5039370078740157
          },
          {
            "duration": 0.240000000000002,
            "durationTicks": 240,
            "midi": 38,
            "name": "D2",
            "ticks": 51840,
            "time": 51.839999999999996,
            "velocity": 0.5039370078740157
          },
          {
            "duration": 0.240000000000002,
            "durationTicks": 240,
            "midi": 50,
            "name": "D3",
            "ticks": 51840,
            "time": 51.839999999999996,
            "velocity": 0.5039370078740157
          },
          {
            "duration": 0.240000000000002,
            "durationTicks": 240,
            "midi": 33,
            "name": "A1",
            "ticks": 52800,
            "time": 52.8,
            "velocity": 0.5039370078740157
          },
          {
            "duration": 0.240000000000002,
            "durationTicks": 240,
            "midi": 45,
            "name": "A2",
            "ticks": 52800,
            "time": 52.8,
            "velocity": 0.5039370078740157
          },
          {
            "duration": 0.240000000000002,
            "durationTicks": 240,
            "midi": 31,
            "name": "G1",
            "ticks": 53760,
            "time": 53.76,
            "velocity": 0.5039370078740157
          },
          {
            "duration": 0.240000000000002,
            "durationTicks": 240,
            "midi": 43,
            "name": "G2",
            "ticks": 53760,
            "time": 53.76,
            "velocity": 0.5039370078740157
          },
          {
            "duration": 0.480000000000004,
            "durationTicks": 480,
            "midi": 33,
            "name": "A1",
            "ticks": 54240,
            "time": 54.239999999999995,
            "velocity": 0.5039370078740157
          },
          {
            "duration": 0.480000000000004,
            "durationTicks": 480,
            "midi": 45,
            "name": "A2",
            "ticks": 54240,
            "time": 54.239999999999995,
            "velocity": 0.5039370078740157
          },
          {
            "duration": 0.4799999999999969,
            "durationTicks": 480,
            "midi": 34,
            "name": "A#1",
            "ticks": 54720,
            "time": 54.72,
            "velocity": 0.5039370078740157
          },
          {
            "duration": 0.4799999999999969,
            "durationTicks": 480,
            "midi": 46,
            "name": "A#2",
            "ticks": 54720,
            "time": 54.72,
            "velocity": 0.5039370078740157
          },
          {
            "duration": 0.240000000000002,
            "durationTicks": 240,
            "midi": 35,
            "name": "B1",
            "ticks": 55200,
            "time": 55.199999999999996,
            "velocity": 0.5039370078740157
          },
          {
            "duration": 0.240000000000002,
            "durationTicks": 240,
            "midi": 47,
            "name": "B2",
            "ticks": 55200,
            "time": 55.199999999999996,
            "velocity": 0.5039370078740157
          },
          {
            "duration": 0.23999999999999488,
            "durationTicks": 240,
            "midi": 36,
            "name": "C2",
            "ticks": 55680,
            "time": 55.68,
            "velocity": 0.5039370078740157
          },
          {
            "duration": 0.23999999999999488,
            "durationTicks": 240,
            "midi": 48,
            "name": "C3",
            "ticks": 55680,
            "time": 55.68,
            "velocity": 0.5039370078740157
          },
          {
            "duration": 0.23999999999999488,
            "durationTicks": 240,
            "midi": 31,
            "name": "G1",
            "ticks": 56640,
            "time": 56.64,
            "velocity": 0.5039370078740157
          },
          {
            "duration": 0.23999999999999488,
            "durationTicks": 240,
            "midi": 43,
            "name": "G2",
            "ticks": 56640,
            "time": 56.64,
            "velocity": 0.5039370078740157
          },
          {
            "duration": 0.240000000000002,
            "durationTicks": 240,
            "midi": 33,
            "name": "A1",
            "ticks": 57600,
            "time": 57.599999999999994,
            "velocity": 0.5039370078740157
          },
          {
            "duration": 0.240000000000002,
            "durationTicks": 240,
            "midi": 45,
            "name": "A2",
            "ticks": 57600,
            "time": 57.599999999999994,
            "velocity": 0.5039370078740157
          },
          {
            "duration": 0.240000000000002,
            "durationTicks": 240,
            "midi": 40,
            "name": "E2",
            "ticks": 58560,
            "time": 58.559999999999995,
            "velocity": 0.5039370078740157
          },
          {
            "duration": 0.240000000000002,
            "durationTicks": 240,
            "midi": 52,
            "name": "E3",
            "ticks": 58560,
            "time": 58.559999999999995,
            "velocity": 0.5039370078740157
          },
          {
            "duration": 0.240000000000002,
            "durationTicks": 240,
            "midi": 39,
            "name": "D#2",
            "ticks": 59040,
            "time": 59.04,
            "velocity": 0.5039370078740157
          },
          {
            "duration": 0.240000000000002,
            "durationTicks": 240,
            "midi": 51,
            "name": "D#3",
            "ticks": 59040,
            "time": 59.04,
            "velocity": 0.5039370078740157
          },
          {
            "duration": 0.240000000000002,
            "durationTicks": 240,
            "midi": 38,
            "name": "D2",
            "ticks": 59520,
            "time": 59.519999999999996,
            "velocity": 0.5039370078740157
          },
          {
            "duration": 0.240000000000002,
            "durationTicks": 240,
            "midi": 50,
            "name": "D3",
            "ticks": 59520,
            "time": 59.519999999999996,
            "velocity": 0.5039370078740157
          },
          {
            "duration": 0.240000000000002,
            "durationTicks": 240,
            "midi": 31,
            "name": "G1",
            "ticks": 60480,
            "time": 60.48,
            "velocity": 0.5039370078740157
          },
          {
            "duration": 0.240000000000002,
            "durationTicks": 240,
            "midi": 43,
            "name": "G2",
            "ticks": 60480,
            "time": 60.48,
            "velocity": 0.5039370078740157
          },
          {
            "duration": 0.17800000000000438,
            "durationTicks": 178,
            "midi": 50,
            "name": "D3",
            "ticks": 60782,
            "time": 60.782,
            "velocity": 0.5039370078740157
          },
          {
            "duration": 0.17800000000000438,
            "durationTicks": 178,
            "midi": 53,
            "name": "F3",
            "ticks": 60782,
            "time": 60.782,
            "velocity": 0.5039370078740157
          },
          {
            "duration": 0.23999999999999488,
            "durationTicks": 240,
            "midi": 50,
            "name": "D3",
            "ticks": 60960,
            "time": 60.96,
            "velocity": 0.5039370078740157
          },
          {
            "duration": 0.23999999999999488,
            "durationTicks": 240,
            "midi": 53,
            "name": "F3",
            "ticks": 60960,
            "time": 60.96,
            "velocity": 0.5039370078740157
          },
          {
            "duration": 0.23999999999999488,
            "durationTicks": 240,
            "midi": 59,
            "name": "B3",
            "ticks": 60960,
            "time": 60.96,
            "velocity": 0.5039370078740157
          },
          {
            "duration": 0.6580000000000013,
            "durationTicks": 658,
            "midi": 36,
            "name": "C2",
            "ticks": 61262,
            "time": 61.26199999999999,
            "velocity": 0.5039370078740157
          },
          {
            "duration": 0.6580000000000013,
            "durationTicks": 658,
            "midi": 48,
            "name": "C3",
            "ticks": 61262,
            "time": 61.26199999999999,
            "velocity": 0.5039370078740157
          },
          {
            "duration": 0.23999999999999488,
            "durationTicks": 240,
            "midi": 36,
            "name": "C2",
            "ticks": 63360,
            "time": 63.36,
            "velocity": 0.5039370078740157
          },
          {
            "duration": 0.23999999999999488,
            "durationTicks": 240,
            "midi": 48,
            "name": "C3",
            "ticks": 63360,
            "time": 63.36,
            "velocity": 0.5039370078740157
          },
          {
            "duration": 0.2400000000000091,
            "durationTicks": 240,
            "midi": 31,
            "name": "G1",
            "ticks": 64320,
            "time": 64.32,
            "velocity": 0.5039370078740157
          },
          {
            "duration": 0.2400000000000091,
            "durationTicks": 240,
            "midi": 43,
            "name": "G2",
            "ticks": 64320,
            "time": 64.32,
            "velocity": 0.5039370078740157
          },
          {
            "duration": 0.23999999999999488,
            "durationTicks": 240,
            "midi": 33,
            "name": "A1",
            "ticks": 65280,
            "time": 65.28,
            "velocity": 0.5039370078740157
          },
          {
            "duration": 0.23999999999999488,
            "durationTicks": 240,
            "midi": 45,
            "name": "A2",
            "ticks": 65280,
            "time": 65.28,
            "velocity": 0.5039370078740157
          },
          {
            "duration": 0.2400000000000091,
            "durationTicks": 240,
            "midi": 40,
            "name": "E2",
            "ticks": 66240,
            "time": 66.24,
            "velocity": 0.5039370078740157
          },
          {
            "duration": 0.2400000000000091,
            "durationTicks": 240,
            "midi": 52,
            "name": "E3",
            "ticks": 66240,
            "time": 66.24,
            "velocity": 0.5039370078740157
          },
          {
            "duration": 0.23999999999999488,
            "durationTicks": 240,
            "midi": 39,
            "name": "D#2",
            "ticks": 66720,
            "time": 66.72,
            "velocity": 0.5039370078740157
          },
          {
            "duration": 0.23999999999999488,
            "durationTicks": 240,
            "midi": 51,
            "name": "D#3",
            "ticks": 66720,
            "time": 66.72,
            "velocity": 0.5039370078740157
          },
          {
            "duration": 0.23999999999999488,
            "durationTicks": 240,
            "midi": 38,
            "name": "D2",
            "ticks": 67200,
            "time": 67.2,
            "velocity": 0.5039370078740157
          },
          {
            "duration": 0.23999999999999488,
            "durationTicks": 240,
            "midi": 50,
            "name": "D3",
            "ticks": 67200,
            "time": 67.2,
            "velocity": 0.5039370078740157
          },
          {
            "duration": 0.23999999999999488,
            "durationTicks": 240,
            "midi": 38,
            "name": "D2",
            "ticks": 68160,
            "time": 68.16,
            "velocity": 0.5039370078740157
          },
          {
            "duration": 0.23999999999999488,
            "durationTicks": 240,
            "midi": 50,
            "name": "D3",
            "ticks": 68160,
            "time": 68.16,
            "velocity": 0.5039370078740157
          },
          {
            "duration": 0.23999999999999488,
            "durationTicks": 240,
            "midi": 31,
            "name": "G1",
            "ticks": 69120,
            "time": 69.12,
            "velocity": 0.5039370078740157
          },
          {
            "duration": 0.23999999999999488,
            "durationTicks": 240,
            "midi": 43,
            "name": "G2",
            "ticks": 69120,
            "time": 69.12,
            "velocity": 0.5039370078740157
          },
          {
            "duration": 0.23999999999999488,
            "durationTicks": 240,
            "midi": 35,
            "name": "B1",
            "ticks": 70080,
            "time": 70.08,
            "velocity": 0.5039370078740157
          },
          {
            "duration": 0.23999999999999488,
            "durationTicks": 240,
            "midi": 47,
            "name": "B2",
            "ticks": 70080,
            "time": 70.08,
            "velocity": 0.5039370078740157
          },
          {
            "duration": 0.2400000000000091,
            "durationTicks": 240,
            "midi": 36,
            "name": "C2",
            "ticks": 71040,
            "time": 71.03999999999999,
            "velocity": 0.5039370078740157
          },
          {
            "duration": 0.2400000000000091,
            "durationTicks": 240,
            "midi": 48,
            "name": "C3",
            "ticks": 71040,
            "time": 71.03999999999999,
            "velocity": 0.5039370078740157
          },
          {
            "duration": 0.23999999999999488,
            "durationTicks": 240,
            "midi": 36,
            "name": "C2",
            "ticks": 72000,
            "time": 72,
            "velocity": 0.5039370078740157
          },
          {
            "duration": 0.23999999999999488,
            "durationTicks": 240,
            "midi": 48,
            "name": "C3",
            "ticks": 72000,
            "time": 72,
            "velocity": 0.5039370078740157
          },
          {
            "duration": 0.2400000000000091,
            "durationTicks": 240,
            "midi": 33,
            "name": "A1",
            "ticks": 72960,
            "time": 72.96,
            "velocity": 0.5039370078740157
          },
          {
            "duration": 0.2400000000000091,
            "durationTicks": 240,
            "midi": 45,
            "name": "A2",
            "ticks": 72960,
            "time": 72.96,
            "velocity": 0.5039370078740157
          },
          {
            "duration": 0.23999999999999488,
            "durationTicks": 240,
            "midi": 33,
            "name": "A1",
            "ticks": 73920,
            "time": 73.92,
            "velocity": 0.5039370078740157
          },
          {
            "duration": 0.23999999999999488,
            "durationTicks": 240,
            "midi": 45,
            "name": "A2",
            "ticks": 73920,
            "time": 73.92,
            "velocity": 0.5039370078740157
          },
          {
            "duration": 0.2400000000000091,
            "durationTicks": 240,
            "midi": 39,
            "name": "D#2",
            "ticks": 74400,
            "time": 74.39999999999999,
            "velocity": 0.5039370078740157
          },
          {
            "duration": 0.2400000000000091,
            "durationTicks": 240,
            "midi": 51,
            "name": "D#3",
            "ticks": 74400,
            "time": 74.39999999999999,
            "velocity": 0.5039370078740157
          },
          {
            "duration": 0.23999999999999488,
            "durationTicks": 240,
            "midi": 38,
            "name": "D2",
            "ticks": 74880,
            "time": 74.88,
            "velocity": 0.5039370078740157
          },
          {
            "duration": 0.23999999999999488,
            "durationTicks": 240,
            "midi": 50,
            "name": "D3",
            "ticks": 74880,
            "time": 74.88,
            "velocity": 0.5039370078740157
          },
          {
            "duration": 0.23999999999999488,
            "durationTicks": 240,
            "midi": 31,
            "name": "G1",
            "ticks": 75840,
            "time": 75.84,
            "velocity": 0.5039370078740157
          },
          {
            "duration": 0.23999999999999488,
            "durationTicks": 240,
            "midi": 43,
            "name": "G2",
            "ticks": 75840,
            "time": 75.84,
            "velocity": 0.5039370078740157
          },
          {
            "duration": 0.23999999999999488,
            "durationTicks": 240,
            "midi": 36,
            "name": "C2",
            "ticks": 76800,
            "time": 76.8,
            "velocity": 0.5039370078740157
          },
          {
            "duration": 0.23999999999999488,
            "durationTicks": 240,
            "midi": 48,
            "name": "C3",
            "ticks": 76800,
            "time": 76.8,
            "velocity": 0.5039370078740157
          },
          {
            "duration": 0.47999999999998977,
            "durationTicks": 480,
            "midi": 24,
            "name": "C1",
            "ticks": 77280,
            "time": 77.28,
            "velocity": 0.5039370078740157
          },
          {
            "duration": 0.47999999999998977,
            "durationTicks": 480,
            "midi": 36,
            "name": "C2",
            "ticks": 77280,
            "time": 77.28,
            "velocity": 0.5039370078740157
          },
          {
            "duration": 0.480000000000004,
            "durationTicks": 480,
            "midi": 26,
            "name": "D1",
            "ticks": 77760,
            "time": 77.75999999999999,
            "velocity": 0.5039370078740157
          },
          {
            "duration": 0.480000000000004,
            "durationTicks": 480,
            "midi": 38,
            "name": "D2",
            "ticks": 77760,
            "time": 77.75999999999999,
            "velocity": 0.5039370078740157
          },
          {
            "duration": 0.480000000000004,
            "durationTicks": 480,
            "midi": 28,
            "name": "E1",
            "ticks": 78240,
            "time": 78.24,
            "velocity": 0.5039370078740157
          },
          {
            "duration": 0.480000000000004,
            "durationTicks": 480,
            "midi": 40,
            "name": "E2",
            "ticks": 78240,
            "time": 78.24,
            "velocity": 0.5039370078740157
          },
          {
            "duration": 0.480000000000004,
            "durationTicks": 480,
            "midi": 29,
            "name": "F1",
            "ticks": 78720,
            "time": 78.72,
            "velocity": 0.5039370078740157
          },
          {
            "duration": 0.47999999999998977,
            "durationTicks": 480,
            "midi": 31,
            "name": "G1",
            "ticks": 79200,
            "time": 79.2,
            "velocity": 0.5039370078740157
          },
          {
            "duration": 0.480000000000004,
            "durationTicks": 480,
            "midi": 32,
            "name": "G#1",
            "ticks": 79680,
            "time": 79.67999999999999,
            "velocity": 0.5039370078740157
          },
          {
            "duration": 0.480000000000004,
            "durationTicks": 480,
            "midi": 33,
            "name": "A1",
            "ticks": 80160,
            "time": 80.16,
            "velocity": 0.5039370078740157
          },
          {
            "duration": 0.47999999999998977,
            "durationTicks": 480,
            "midi": 34,
            "name": "A#1",
            "ticks": 80640,
            "time": 80.64,
            "velocity": 0.5039370078740157
          },
          {
            "duration": 0.480000000000004,
            "durationTicks": 480,
            "midi": 35,
            "name": "B1",
            "ticks": 81120,
            "time": 81.11999999999999,
            "velocity": 0.5039370078740157
          },
          {
            "duration": 0.480000000000004,
            "durationTicks": 480,
            "midi": 38,
            "name": "D2",
            "ticks": 81600,
            "time": 81.6,
            "velocity": 0.5039370078740157
          },
          {
            "duration": 0.480000000000004,
            "durationTicks": 480,
            "midi": 34,
            "name": "A#1",
            "ticks": 82080,
            "time": 82.08,
            "velocity": 0.5039370078740157
          },
          {
            "duration": 0.47999999999998977,
            "durationTicks": 480,
            "midi": 39,
            "name": "D#2",
            "ticks": 82560,
            "time": 82.56,
            "velocity": 0.5039370078740157
          },
          {
            "duration": 0.480000000000004,
            "durationTicks": 480,
            "midi": 38,
            "name": "D2",
            "ticks": 83040,
            "time": 83.03999999999999,
            "velocity": 0.5039370078740157
          },
          {
            "duration": 0.480000000000004,
            "durationTicks": 480,
            "midi": 36,
            "name": "C2",
            "ticks": 83520,
            "time": 83.52,
            "velocity": 0.5039370078740157
          },
          {
            "duration": 0.47999999999998977,
            "durationTicks": 480,
            "midi": 34,
            "name": "A#1",
            "ticks": 84000,
            "time": 84,
            "velocity": 0.5039370078740157
          },
          {
            "duration": 0.480000000000004,
            "durationTicks": 480,
            "midi": 32,
            "name": "G#1",
            "ticks": 84480,
            "time": 84.47999999999999,
            "velocity": 0.5039370078740157
          },
          {
            "duration": 0.480000000000004,
            "durationTicks": 480,
            "midi": 31,
            "name": "G1",
            "ticks": 84960,
            "time": 84.96,
            "velocity": 0.5039370078740157
          },
          {
            "duration": 0.480000000000004,
            "durationTicks": 480,
            "midi": 29,
            "name": "F1",
            "ticks": 85440,
            "time": 85.44,
            "velocity": 0.5039370078740157
          },
          {
            "duration": 0.47999999999998977,
            "durationTicks": 480,
            "midi": 27,
            "name": "D#1",
            "ticks": 85920,
            "time": 85.92,
            "velocity": 0.5039370078740157
          },
          {
            "duration": 0.480000000000004,
            "durationTicks": 480,
            "midi": 33,
            "name": "A1",
            "ticks": 86400,
            "time": 86.39999999999999,
            "velocity": 0.5039370078740157
          },
          {
            "duration": 0.480000000000004,
            "durationTicks": 480,
            "midi": 36,
            "name": "C2",
            "ticks": 86880,
            "time": 86.88,
            "velocity": 0.5039370078740157
          },
          {
            "duration": 0.480000000000004,
            "durationTicks": 480,
            "midi": 38,
            "name": "D2",
            "ticks": 87360,
            "time": 87.36,
            "velocity": 0.5039370078740157
          },
          {
            "duration": 0.47999999999998977,
            "durationTicks": 480,
            "midi": 30,
            "name": "F#1",
            "ticks": 87840,
            "time": 87.84,
            "velocity": 0.5039370078740157
          },
          {
            "duration": 0.480000000000004,
            "durationTicks": 480,
            "midi": 31,
            "name": "G1",
            "ticks": 88320,
            "time": 88.32,
            "velocity": 0.5039370078740157
          },
          {
            "duration": 0.480000000000004,
            "durationTicks": 480,
            "midi": 31,
            "name": "G1",
            "ticks": 88800,
            "time": 88.8,
            "velocity": 0.5039370078740157
          },
          {
            "duration": 0.47999999999998977,
            "durationTicks": 480,
            "midi": 36,
            "name": "C2",
            "ticks": 89280,
            "time": 89.28,
            "velocity": 0.5039370078740157
          },
          {
            "duration": 0.480000000000004,
            "durationTicks": 480,
            "midi": 43,
            "name": "G2",
            "ticks": 89760,
            "time": 89.75999999999999,
            "velocity": 0.5039370078740157
          },
          {
            "duration": 0.480000000000004,
            "durationTicks": 480,
            "midi": 29,
            "name": "F1",
            "ticks": 90240,
            "time": 90.24,
            "velocity": 0.5039370078740157
          },
          {
            "duration": 0.480000000000004,
            "durationTicks": 480,
            "midi": 31,
            "name": "G1",
            "ticks": 90720,
            "time": 90.72,
            "velocity": 0.5039370078740157
          },
          {
            "duration": 0.47999999999998977,
            "durationTicks": 480,
            "midi": 32,
            "name": "G#1",
            "ticks": 91200,
            "time": 91.2,
            "velocity": 0.5039370078740157
          },
          {
            "duration": 0.480000000000004,
            "durationTicks": 480,
            "midi": 36,
            "name": "C2",
            "ticks": 91680,
            "time": 91.67999999999999,
            "velocity": 0.5039370078740157
          },
          {
            "duration": 0.480000000000004,
            "durationTicks": 480,
            "midi": 31,
            "name": "G1",
            "ticks": 92160,
            "time": 92.16,
            "velocity": 0.5039370078740157
          },
          {
            "duration": 0.47999999999998977,
            "durationTicks": 480,
            "midi": 33,
            "name": "A1",
            "ticks": 92640,
            "time": 92.64,
            "velocity": 0.5039370078740157
          },
          {
            "duration": 0.2400000000000091,
            "durationTicks": 240,
            "midi": 35,
            "name": "B1",
            "ticks": 93120,
            "time": 93.11999999999999,
            "velocity": 0.5039370078740157
          },
          {
            "duration": 0.2400000000000091,
            "durationTicks": 240,
            "midi": 31,
            "name": "G1",
            "ticks": 93600,
            "time": 93.6,
            "velocity": 0.5039370078740157
          },
          {
            "duration": 0.23999999999999488,
            "durationTicks": 240,
            "midi": 36,
            "name": "C2",
            "ticks": 94080,
            "time": 94.08,
            "velocity": 0.5039370078740157
          },
          {
            "duration": 0.23999999999999488,
            "durationTicks": 240,
            "midi": 48,
            "name": "C3",
            "ticks": 94080,
            "time": 94.08,
            "velocity": 0.5039370078740157
          },
          {
            "duration": 0.2400000000000091,
            "durationTicks": 240,
            "midi": 31,
            "name": "G1",
            "ticks": 95040,
            "time": 95.03999999999999,
            "velocity": 0.5039370078740157
          },
          {
            "duration": 0.2400000000000091,
            "durationTicks": 240,
            "midi": 43,
            "name": "G2",
            "ticks": 95040,
            "time": 95.03999999999999,
            "velocity": 0.5039370078740157
          },
          {
            "duration": 0.23999999999999488,
            "durationTicks": 240,
            "midi": 33,
            "name": "A1",
            "ticks": 96000,
            "time": 96,
            "velocity": 0.5039370078740157
          },
          {
            "duration": 0.23999999999999488,
            "durationTicks": 240,
            "midi": 45,
            "name": "A2",
            "ticks": 96000,
            "time": 96,
            "velocity": 0.5039370078740157
          },
          {
            "duration": 0.2400000000000091,
            "durationTicks": 240,
            "midi": 40,
            "name": "E2",
            "ticks": 96960,
            "time": 96.96,
            "velocity": 0.5039370078740157
          },
          {
            "duration": 0.2400000000000091,
            "durationTicks": 240,
            "midi": 52,
            "name": "E3",
            "ticks": 96960,
            "time": 96.96,
            "velocity": 0.5039370078740157
          },
          {
            "duration": 0.23999999999999488,
            "durationTicks": 240,
            "midi": 39,
            "name": "D#2",
            "ticks": 97440,
            "time": 97.44,
            "velocity": 0.5039370078740157
          },
          {
            "duration": 0.23999999999999488,
            "durationTicks": 240,
            "midi": 51,
            "name": "D#3",
            "ticks": 97440,
            "time": 97.44,
            "velocity": 0.5039370078740157
          },
          {
            "duration": 0.23999999999999488,
            "durationTicks": 240,
            "midi": 38,
            "name": "D2",
            "ticks": 97920,
            "time": 97.92,
            "velocity": 0.5039370078740157
          },
          {
            "duration": 0.23999999999999488,
            "durationTicks": 240,
            "midi": 50,
            "name": "D3",
            "ticks": 97920,
            "time": 97.92,
            "velocity": 0.5039370078740157
          },
          {
            "duration": 0.23999999999999488,
            "durationTicks": 240,
            "midi": 33,
            "name": "A1",
            "ticks": 98880,
            "time": 98.88,
            "velocity": 0.5039370078740157
          },
          {
            "duration": 0.23999999999999488,
            "durationTicks": 240,
            "midi": 45,
            "name": "A2",
            "ticks": 98880,
            "time": 98.88,
            "velocity": 0.5039370078740157
          },
          {
            "duration": 0.23999999999999488,
            "durationTicks": 240,
            "midi": 31,
            "name": "G1",
            "ticks": 99840,
            "time": 99.84,
            "velocity": 0.5039370078740157
          },
          {
            "duration": 0.23999999999999488,
            "durationTicks": 240,
            "midi": 43,
            "name": "G2",
            "ticks": 99840,
            "time": 99.84,
            "velocity": 0.5039370078740157
          },
          {
            "duration": 0.480000000000004,
            "durationTicks": 480,
            "midi": 33,
            "name": "A1",
            "ticks": 100320,
            "time": 100.32,
            "velocity": 0.5039370078740157
          },
          {
            "duration": 0.480000000000004,
            "durationTicks": 480,
            "midi": 45,
            "name": "A2",
            "ticks": 100320,
            "time": 100.32,
            "velocity": 0.5039370078740157
          },
          {
            "duration": 0.480000000000004,
            "durationTicks": 480,
            "midi": 34,
            "name": "A#1",
            "ticks": 100800,
            "time": 100.8,
            "velocity": 0.5039370078740157
          },
          {
            "duration": 0.480000000000004,
            "durationTicks": 480,
            "midi": 46,
            "name": "A#2",
            "ticks": 100800,
            "time": 100.8,
            "velocity": 0.5039370078740157
          },
          {
            "duration": 0.23999999999999488,
            "durationTicks": 240,
            "midi": 35,
            "name": "B1",
            "ticks": 101280,
            "time": 101.28,
            "velocity": 0.5039370078740157
          },
          {
            "duration": 0.23999999999999488,
            "durationTicks": 240,
            "midi": 47,
            "name": "B2",
            "ticks": 101280,
            "time": 101.28,
            "velocity": 0.5039370078740157
          },
          {
            "duration": 0.2400000000000091,
            "durationTicks": 240,
            "midi": 36,
            "name": "C2",
            "ticks": 101760,
            "time": 101.75999999999999,
            "velocity": 0.5039370078740157
          },
          {
            "duration": 0.2400000000000091,
            "durationTicks": 240,
            "midi": 48,
            "name": "C3",
            "ticks": 101760,
            "time": 101.75999999999999,
            "velocity": 0.5039370078740157
          },
          {
            "duration": 0.23999999999999488,
            "durationTicks": 240,
            "midi": 31,
            "name": "G1",
            "ticks": 102720,
            "time": 102.72,
            "velocity": 0.5039370078740157
          },
          {
            "duration": 0.23999999999999488,
            "durationTicks": 240,
            "midi": 43,
            "name": "G2",
            "ticks": 102720,
            "time": 102.72,
            "velocity": 0.5039370078740157
          },
          {
            "duration": 0.2400000000000091,
            "durationTicks": 240,
            "midi": 33,
            "name": "A1",
            "ticks": 103680,
            "time": 103.67999999999999,
            "velocity": 0.5039370078740157
          },
          {
            "duration": 0.2400000000000091,
            "durationTicks": 240,
            "midi": 45,
            "name": "A2",
            "ticks": 103680,
            "time": 103.67999999999999,
            "velocity": 0.5039370078740157
          },
          {
            "duration": 0.23999999999999488,
            "durationTicks": 240,
            "midi": 40,
            "name": "E2",
            "ticks": 104640,
            "time": 104.64,
            "velocity": 0.5039370078740157
          },
          {
            "duration": 0.23999999999999488,
            "durationTicks": 240,
            "midi": 52,
            "name": "E3",
            "ticks": 104640,
            "time": 104.64,
            "velocity": 0.5039370078740157
          },
          {
            "duration": 0.2400000000000091,
            "durationTicks": 240,
            "midi": 39,
            "name": "D#2",
            "ticks": 105120,
            "time": 105.11999999999999,
            "velocity": 0.5039370078740157
          },
          {
            "duration": 0.2400000000000091,
            "durationTicks": 240,
            "midi": 51,
            "name": "D#3",
            "ticks": 105120,
            "time": 105.11999999999999,
            "velocity": 0.5039370078740157
          },
          {
            "duration": 0.23999999999999488,
            "durationTicks": 240,
            "midi": 38,
            "name": "D2",
            "ticks": 105600,
            "time": 105.6,
            "velocity": 0.5039370078740157
          },
          {
            "duration": 0.23999999999999488,
            "durationTicks": 240,
            "midi": 50,
            "name": "D3",
            "ticks": 105600,
            "time": 105.6,
            "velocity": 0.5039370078740157
          },
          {
            "duration": 0.23999999999999488,
            "durationTicks": 240,
            "midi": 31,
            "name": "G1",
            "ticks": 106560,
            "time": 106.56,
            "velocity": 0.5039370078740157
          },
          {
            "duration": 0.23999999999999488,
            "durationTicks": 240,
            "midi": 43,
            "name": "G2",
            "ticks": 106560,
            "time": 106.56,
            "velocity": 0.5039370078740157
          },
          {
            "duration": 0.17799999999999727,
            "durationTicks": 178,
            "midi": 50,
            "name": "D3",
            "ticks": 106862,
            "time": 106.862,
            "velocity": 0.5039370078740157
          },
          {
            "duration": 0.17799999999999727,
            "durationTicks": 178,
            "midi": 53,
            "name": "F3",
            "ticks": 106862,
            "time": 106.862,
            "velocity": 0.5039370078740157
          },
          {
            "duration": 0.2400000000000091,
            "durationTicks": 240,
            "midi": 50,
            "name": "D3",
            "ticks": 107040,
            "time": 107.03999999999999,
            "velocity": 0.5039370078740157
          },
          {
            "duration": 0.2400000000000091,
            "durationTicks": 240,
            "midi": 53,
            "name": "F3",
            "ticks": 107040,
            "time": 107.03999999999999,
            "velocity": 0.5039370078740157
          },
          {
            "duration": 0.2400000000000091,
            "durationTicks": 240,
            "midi": 59,
            "name": "B3",
            "ticks": 107040,
            "time": 107.03999999999999,
            "velocity": 0.5039370078740157
          },
          {
            "duration": 0.6580000000000013,
            "durationTicks": 658,
            "midi": 36,
            "name": "C2",
            "ticks": 107342,
            "time": 107.342,
            "velocity": 0.5039370078740157
          },
          {
            "duration": 0.6580000000000013,
            "durationTicks": 658,
            "midi": 48,
            "name": "C3",
            "ticks": 107342,
            "time": 107.342,
            "velocity": 0.5039370078740157
          },
          {
            "duration": 0.480000000000004,
            "durationTicks": 480,
            "midi": 38,
            "name": "D2",
            "ticks": 109440,
            "time": 109.44,
            "velocity": 0.5039370078740157
          },
          {
            "duration": 0.480000000000004,
            "durationTicks": 480,
            "midi": 50,
            "name": "D3",
            "ticks": 109440,
            "time": 109.44,
            "velocity": 0.5039370078740157
          },
          {
            "duration": 0.480000000000004,
            "durationTicks": 480,
            "midi": 31,
            "name": "G1",
            "ticks": 110400,
            "time": 110.39999999999999,
            "velocity": 0.5039370078740157
          },
          {
            "duration": 0.480000000000004,
            "durationTicks": 480,
            "midi": 43,
            "name": "G2",
            "ticks": 110400,
            "time": 110.39999999999999,
            "velocity": 0.5039370078740157
          },
          {
            "duration": 0.6580000000000013,
            "durationTicks": 658,
            "midi": 36,
            "name": "C2",
            "ticks": 111182,
            "time": 111.18199999999999,
            "velocity": 0.5039370078740157
          },
          {
            "duration": 0.6580000000000013,
            "durationTicks": 658,
            "midi": 48,
            "name": "C3",
            "ticks": 111182,
            "time": 111.18199999999999,
            "velocity": 0.5039370078740157
          },
          {
            "duration": 2.6799999999999926,
            "durationTicks": 2680,
            "midi": 24,
            "name": "C1",
            "ticks": 112480,
            "time": 112.48,
            "velocity": 0.5039370078740157
          },
          {
            "duration": 2.6799999999999926,
            "durationTicks": 2680,
            "midi": 36,
            "name": "C2",
            "ticks": 112480,
            "time": 112.48,
            "velocity": 0.5039370078740157
          }
        ],
        "endOfTrackTicks": 115200
      }
    ]
  }