{
  "header": {
    "keySignatures": [
      {
        "key": "D",
        "scale": "major",
        "ticks": 0
      }
    ],
    "meta": [],
    "name": "",
    "ppq": 480,
    "tempos": [
      {
        "bpm": 94.99999208333399,
        "ticks": 0
      }
    ],
    "timeSignatures": [
      {
        "ticks": 0,
        "timeSignature": [
          4,
          4
        ],
        "measures": 0
      }
    ]
  },
  "tracks": [
    {
      "channel": 4,
      "controlChanges": {},
      "pitchBends": [],
      "instrument": {
        "family": "piano",
        "number": 0,
        "name": "acoustic guitar (nylon)"
      },
      "name": "Inst 1",
      "notes": [
        {
          "duration": 1.3394737958333331,
          "durationTicks": 1018,
          "midi": 50,
          "name": "D3",
          "ticks": 0,
          "time": 0,
          "velocity": 0.84251968503937
        },
        {
          "duration": 0.631579,
          "durationTicks": 480,
          "midi": 66,
          "name": "F#4",
          "ticks": 0,
          "time": 0,
          "velocity": 0.5590551181102362
        },
        {
          "duration": 1.263158,
          "durationTicks": 960,
          "midi": 69,
          "name": "A4",
          "ticks": 0,
          "time": 0,
          "velocity": 0.5905511811023622
        },
        {
          "duration": 0.5684210999999999,
          "durationTicks": 432,
          "midi": 57,
          "name": "A3",
          "ticks": 240,
          "time": 0.3157895,
          "velocity": 0.4094488188976378
        },
        {
          "duration": 0.6736842666666668,
          "durationTicks": 512,
          "midi": 62,
          "name": "D4",
          "ticks": 480,
          "time": 0.631579,
          "velocity": 0.7007874015748031
        },
        {
          "duration": 0.5394737291666668,
          "durationTicks": 410,
          "midi": 66,
          "name": "F#4",
          "ticks": 480,
          "time": 0.631579,
          "velocity": 0.7086614173228346
        },
        {
          "duration": 0.8526316500000001,
          "durationTicks": 648,
          "midi": 74,
          "name": "D5",
          "ticks": 480,
          "time": 0.631579,
          "velocity": 0.6535433070866141
        },
        {
          "duration": 0.35131581874999984,
          "durationTicks": 267,
          "midi": 57,
          "name": "A3",
          "ticks": 720,
          "time": 0.9473685000000001,
          "velocity": 0.4566929133858268
        },
        {
          "duration": 0.9631579749999999,
          "durationTicks": 732,
          "midi": 55,
          "name": "G3",
          "ticks": 960,
          "time": 1.263158,
          "velocity": 0.48031496062992124
        },
        {
          "duration": 0.53684215,
          "durationTicks": 408,
          "midi": 67,
          "name": "G4",
          "ticks": 960,
          "time": 1.263158,
          "velocity": 0.6062992125984252
        },
        {
          "duration": 0.66315795,
          "durationTicks": 504,
          "midi": 71,
          "name": "B4",
          "ticks": 960,
          "time": 1.263158,
          "velocity": 0.5669291338582677
        },
        {
          "duration": 0.3631579250000001,
          "durationTicks": 276,
          "midi": 62,
          "name": "D4",
          "ticks": 1200,
          "time": 1.5789475,
          "velocity": 0.4251968503937008
        },
        {
          "duration": 0.2578947583333333,
          "durationTicks": 196,
          "midi": 69,
          "name": "A4",
          "ticks": 1200,
          "time": 1.5789475,
          "velocity": 0.3543307086614173
        },
        {
          "duration": 0.42631582499999965,
          "durationTicks": 324,
          "midi": 59,
          "name": "B3",
          "ticks": 1440,
          "time": 1.8947370000000001,
          "velocity": 0.4881889763779528
        },
        {
          "duration": 0.53289478125,
          "durationTicks": 405,
          "midi": 67,
          "name": "G4",
          "ticks": 1440,
          "time": 1.8947370000000001,
          "velocity": 0.6771653543307087
        },
        {
          "duration": 0.4368421416666668,
          "durationTicks": 332,
          "midi": 69,
          "name": "A4",
          "ticks": 1440,
          "time": 1.8947370000000001,
          "velocity": 0.5905511811023622
        },
        {
          "duration": 0.7368421666666669,
          "durationTicks": 560,
          "midi": 74,
          "name": "D5",
          "ticks": 1440,
          "time": 1.8947370000000001,
          "velocity": 0.7401574803149606
        },
        {
          "duration": 0.394736875,
          "durationTicks": 300,
          "midi": 62,
          "name": "D4",
          "ticks": 1680,
          "time": 2.2105265,
          "velocity": 0.5196850393700787
        },
        {
          "duration": 1.0236842958333336,
          "durationTicks": 778,
          "midi": 57,
          "name": "A3",
          "ticks": 1920,
          "time": 2.526316,
          "velocity": 0.33070866141732286
        },
        {
          "duration": 0.7631579583333332,
          "durationTicks": 580,
          "midi": 67,
          "name": "G4",
          "ticks": 1920,
          "time": 2.526316,
          "velocity": 0.30708661417322836
        },
        {
          "duration": 0.3921052958333333,
          "durationTicks": 298,
          "midi": 69,
          "name": "A4",
          "ticks": 1920,
          "time": 2.526316,
          "velocity": 0.36220472440944884
        },
        {
          "duration": 0.32763160624999976,
          "durationTicks": 249,
          "midi": 73,
          "name": "C#5",
          "ticks": 1920,
          "time": 2.526316,
          "velocity": 0.5118110236220472
        },
        {
          "duration": 0.3855263479166666,
          "durationTicks": 293,
          "midi": 62,
          "name": "D4",
          "ticks": 2160,
          "time": 2.8421055,
          "velocity": 0.4251968503937008
        },
        {
          "duration": 1.0657895625,
          "durationTicks": 810,
          "midi": 76,
          "name": "E5",
          "ticks": 2160,
          "time": 2.8421055,
          "velocity": 0.3779527559055118
        },
        {
          "duration": 0.4026316125,
          "durationTicks": 306,
          "midi": 61,
          "name": "C#4",
          "ticks": 2400,
          "time": 3.157895,
          "velocity": 0.6220472440944882
        },
        {
          "duration": 0.3184210791666664,
          "durationTicks": 242,
          "midi": 62,
          "name": "D4",
          "ticks": 2640,
          "time": 3.4736845,
          "velocity": 0.6062992125984252
        },
        {
          "duration": 0.1868421208333335,
          "durationTicks": 142,
          "midi": 69,
          "name": "A4",
          "ticks": 2640,
          "time": 3.4736845,
          "velocity": 0.6929133858267716
        },
        {
          "duration": 0.09342106041666609,
          "durationTicks": 71,
          "midi": 67,
          "name": "G4",
          "ticks": 2760,
          "time": 3.63157925,
          "velocity": 0.5669291338582677
        },
        {
          "duration": 0.9631579749999997,
          "durationTicks": 732,
          "midi": 50,
          "name": "D3",
          "ticks": 2880,
          "time": 3.7894740000000002,
          "velocity": 0.7086614173228346
        },
        {
          "duration": 0.4552631958333331,
          "durationTicks": 346,
          "midi": 66,
          "name": "F#4",
          "ticks": 2880,
          "time": 3.7894740000000002,
          "velocity": 0.7007874015748031
        },
        {
          "duration": 0.44605266874999927,
          "durationTicks": 339,
          "midi": 57,
          "name": "A3",
          "ticks": 3120,
          "time": 4.1052635,
          "velocity": 0.5118110236220472
        },
        {
          "duration": 0.6157895250000003,
          "durationTicks": 468,
          "midi": 62,
          "name": "D4",
          "ticks": 3360,
          "time": 4.421053,
          "velocity": 0.7322834645669292
        },
        {
          "duration": 0.5000000416666674,
          "durationTicks": 380,
          "midi": 66,
          "name": "F#4",
          "ticks": 3360,
          "time": 4.421053,
          "velocity": 0.9763779527559056
        },
        {
          "duration": 0.4855263562500003,
          "durationTicks": 369,
          "midi": 69,
          "name": "A4",
          "ticks": 3360,
          "time": 4.421053,
          "velocity": 0.984251968503937
        },
        {
          "duration": 0.37105266250000035,
          "durationTicks": 282,
          "midi": 57,
          "name": "A3",
          "ticks": 3600,
          "time": 4.7368425,
          "velocity": 0.47244094488188976
        },
        {
          "duration": 1.040789560416667,
          "durationTicks": 791,
          "midi": 50,
          "name": "D3",
          "ticks": 3840,
          "time": 5.052632,
          "velocity": 0.7559055118110236
        },
        {
          "duration": 0.3250000270833331,
          "durationTicks": 247,
          "midi": 66,
          "name": "F#4",
          "ticks": 3840,
          "time": 5.052632,
          "velocity": 0.7086614173228346
        },
        {
          "duration": 0.31578950000000017,
          "durationTicks": 240,
          "midi": 69,
          "name": "A4",
          "ticks": 3840,
          "time": 5.052632,
          "velocity": 0.7322834645669292
        },
        {
          "duration": 0.41447371875000005,
          "durationTicks": 315,
          "midi": 57,
          "name": "A3",
          "ticks": 4080,
          "time": 5.3684215,
          "velocity": 0.4881889763779528
        },
        {
          "duration": 0.6789474249999996,
          "durationTicks": 516,
          "midi": 62,
          "name": "D4",
          "ticks": 4320,
          "time": 5.684211,
          "velocity": 0.6850393700787402
        },
        {
          "duration": 0.47894740833333227,
          "durationTicks": 364,
          "midi": 66,
          "name": "F#4",
          "ticks": 4320,
          "time": 5.684211,
          "velocity": 0.8661417322834646
        },
        {
          "duration": 0.5789474166666659,
          "durationTicks": 440,
          "midi": 69,
          "name": "A4",
          "ticks": 4320,
          "time": 5.684211,
          "velocity": 0.8267716535433071
        },
        {
          "duration": 0.7000000583333321,
          "durationTicks": 532,
          "midi": 74,
          "name": "D5",
          "ticks": 4320,
          "time": 5.684211,
          "velocity": 0.7795275590551181
        },
        {
          "duration": 0.3236842375000002,
          "durationTicks": 246,
          "midi": 57,
          "name": "A3",
          "ticks": 4560,
          "time": 6.0000005,
          "velocity": 0.47244094488188976
        },
        {
          "duration": 1.0144737687499994,
          "durationTicks": 771,
          "midi": 55,
          "name": "G3",
          "ticks": 4800,
          "time": 6.31579,
          "velocity": 0.4330708661417323
        },
        {
          "duration": 0.17500001458333347,
          "durationTicks": 133,
          "midi": 67,
          "name": "G4",
          "ticks": 4800,
          "time": 6.31579,
          "velocity": 0.4566929133858268
        },
        {
          "duration": 0.13552632708333334,
          "durationTicks": 103,
          "midi": 71,
          "name": "B4",
          "ticks": 4800,
          "time": 6.31579,
          "velocity": 0.5039370078740157
        },
        {
          "duration": 0.43815793125000013,
          "durationTicks": 333,
          "midi": 62,
          "name": "D4",
          "ticks": 5040,
          "time": 6.6315795,
          "velocity": 0.6141732283464567
        },
        {
          "duration": 0.7368421666666665,
          "durationTicks": 560,
          "midi": 67,
          "name": "G4",
          "ticks": 5160,
          "time": 6.78947425,
          "velocity": 0.7952755905511811
        },
        {
          "duration": 0.8421053333333344,
          "durationTicks": 640,
          "midi": 74,
          "name": "D5",
          "ticks": 5160,
          "time": 6.78947425,
          "velocity": 0.889763779527559
        },
        {
          "duration": 0.38289476874999906,
          "durationTicks": 291,
          "midi": 59,
          "name": "B3",
          "ticks": 5280,
          "time": 6.947369,
          "velocity": 0.5433070866141733
        },
        {
          "duration": 0.3447368708333327,
          "durationTicks": 262,
          "midi": 62,
          "name": "D4",
          "ticks": 5520,
          "time": 7.2631585,
          "velocity": 0.6771653543307087
        },
        {
          "duration": 1.017105347916667,
          "durationTicks": 773,
          "midi": 57,
          "name": "A3",
          "ticks": 5760,
          "time": 7.5789480000000005,
          "velocity": 0.5905511811023622
        },
        {
          "duration": 0.39605266458333244,
          "durationTicks": 301,
          "midi": 67,
          "name": "G4",
          "ticks": 5760,
          "time": 7.5789480000000005,
          "velocity": 0.7244094488188977
        },
        {
          "duration": 0.41447371874999916,
          "durationTicks": 315,
          "midi": 69,
          "name": "A4",
          "ticks": 5760,
          "time": 7.5789480000000005,
          "velocity": 0.7480314960629921
        },
        {
          "duration": 0.4342105624999988,
          "durationTicks": 330,
          "midi": 73,
          "name": "C#5",
          "ticks": 5760,
          "time": 7.5789480000000005,
          "velocity": 0.7007874015748031
        },
        {
          "duration": 0.3986842437500009,
          "durationTicks": 303,
          "midi": 62,
          "name": "D4",
          "ticks": 6000,
          "time": 7.8947375,
          "velocity": 0.6614173228346457
        },
        {
          "duration": 0.13026316875,
          "durationTicks": 99,
          "midi": 67,
          "name": "G4",
          "ticks": 6120,
          "time": 8.05263225,
          "velocity": 0.7559055118110236
        },
        {
          "duration": 0.08026316458333227,
          "durationTicks": 61,
          "midi": 69,
          "name": "A4",
          "ticks": 6120,
          "time": 8.05263225,
          "velocity": 0.7322834645669292
        },
        {
          "duration": 0.11447369374999994,
          "durationTicks": 87,
          "midi": 76,
          "name": "E5",
          "ticks": 6120,
          "time": 8.05263225,
          "velocity": 0.7322834645669292
        },
        {
          "duration": 0.29605265624999966,
          "durationTicks": 225,
          "midi": 61,
          "name": "C#4",
          "ticks": 6240,
          "time": 8.210527,
          "velocity": 0.5826771653543307
        },
        {
          "duration": 0.35921055624999987,
          "durationTicks": 273,
          "midi": 62,
          "name": "D4",
          "ticks": 6480,
          "time": 8.5263165,
          "velocity": 0.6614173228346457
        },
        {
          "duration": 0.49078951458333364,
          "durationTicks": 373,
          "midi": 66,
          "name": "F#4",
          "ticks": 6480,
          "time": 8.5263165,
          "velocity": 0.7637795275590551
        },
        {
          "duration": 0.5289474125000009,
          "durationTicks": 402,
          "midi": 69,
          "name": "A4",
          "ticks": 6480,
          "time": 8.5263165,
          "velocity": 0.7480314960629921
        },
        {
          "duration": 1.2671053687500002,
          "durationTicks": 963,
          "midi": 78,
          "name": "F#5",
          "ticks": 6480,
          "time": 8.5263165,
          "velocity": 0.8661417322834646
        },
        {
          "duration": 1.0473685083333333,
          "durationTicks": 796,
          "midi": 50,
          "name": "D3",
          "ticks": 6720,
          "time": 8.842106,
          "velocity": 0.905511811023622
        },
        {
          "duration": 0.4000000333333329,
          "durationTicks": 304,
          "midi": 57,
          "name": "A3",
          "ticks": 6960,
          "time": 9.1578955,
          "velocity": 0.4251968503937008
        },
        {
          "duration": 0.6776316354166667,
          "durationTicks": 515,
          "midi": 66,
          "name": "F#4",
          "ticks": 6960,
          "time": 9.1578955,
          "velocity": 0.5748031496062992
        },
        {
          "duration": 0.28552633958333296,
          "durationTicks": 217,
          "midi": 74,
          "name": "D5",
          "ticks": 7080,
          "time": 9.31579025,
          "velocity": 0.03937007874015748
        },
        {
          "duration": 0.6078947875000011,
          "durationTicks": 462,
          "midi": 62,
          "name": "D4",
          "ticks": 7200,
          "time": 9.473685,
          "velocity": 0.5196850393700787
        },
        {
          "duration": 0.3565789770833341,
          "durationTicks": 271,
          "midi": 57,
          "name": "A3",
          "ticks": 7440,
          "time": 9.7894745,
          "velocity": 0.33070866141732286
        },
        {
          "duration": 0.7631579583333323,
          "durationTicks": 580,
          "midi": 50,
          "name": "D3",
          "ticks": 7680,
          "time": 10.105264,
          "velocity": 0.6929133858267716
        },
        {
          "duration": 0.4986842520833328,
          "durationTicks": 379,
          "midi": 66,
          "name": "F#4",
          "ticks": 7680,
          "time": 10.105264,
          "velocity": 0.6535433070866141
        },
        {
          "duration": 0.5315789916666649,
          "durationTicks": 404,
          "midi": 69,
          "name": "A4",
          "ticks": 7680,
          "time": 10.105264,
          "velocity": 0.5905511811023622
        },
        {
          "duration": 0.6960526895833343,
          "durationTicks": 529,
          "midi": 57,
          "name": "A3",
          "ticks": 7920,
          "time": 10.4210535,
          "velocity": 0.3937007874015748
        },
        {
          "duration": 0.3657895041666652,
          "durationTicks": 278,
          "midi": 62,
          "name": "D4",
          "ticks": 8160,
          "time": 10.736843,
          "velocity": 0.6456692913385826
        },
        {
          "duration": 0.4289474041666672,
          "durationTicks": 326,
          "midi": 66,
          "name": "F#4",
          "ticks": 8160,
          "time": 10.736843,
          "velocity": 0.7874015748031497
        },
        {
          "duration": 0.602631629166666,
          "durationTicks": 458,
          "midi": 69,
          "name": "A4",
          "ticks": 8160,
          "time": 10.736843,
          "velocity": 0.6692913385826772
        },
        {
          "duration": 0.6578947916666671,
          "durationTicks": 500,
          "midi": 74,
          "name": "D5",
          "ticks": 8160,
          "time": 10.736843,
          "velocity": 0.7874015748031497
        },
        {
          "duration": 0.30394739375000057,
          "durationTicks": 231,
          "midi": 50,
          "name": "D3",
          "ticks": 8400,
          "time": 11.0526325,
          "velocity": 0.889763779527559
        },
        {
          "duration": 0.9736842916666664,
          "durationTicks": 740,
          "midi": 55,
          "name": "G3",
          "ticks": 8640,
          "time": 11.368422,
          "velocity": 0.5196850393700787
        },
        {
          "duration": 0.060526320833334424,
          "durationTicks": 46,
          "midi": 67,
          "name": "G4",
          "ticks": 8640,
          "time": 11.368422,
          "velocity": 0.6535433070866141
        },
        {
          "duration": 0.04736842499999838,
          "durationTicks": 36,
          "midi": 71,
          "name": "B4",
          "ticks": 8640,
          "time": 11.368422,
          "velocity": 0.5748031496062992
        },
        {
          "duration": 0.35131581874999895,
          "durationTicks": 267,
          "midi": 62,
          "name": "D4",
          "ticks": 8880,
          "time": 11.6842115,
          "velocity": 0.6456692913385826
        },
        {
          "duration": 0.5736842583333335,
          "durationTicks": 436,
          "midi": 67,
          "name": "G4",
          "ticks": 9000,
          "time": 11.84210625,
          "velocity": 0.7637795275590551
        },
        {
          "duration": 0.01842105416666584,
          "durationTicks": 14,
          "midi": 69,
          "name": "A4",
          "ticks": 9000,
          "time": 11.84210625,
          "velocity": 0.6062992125984252
        },
        {
          "duration": 0.7276316395833327,
          "durationTicks": 553,
          "midi": 74,
          "name": "D5",
          "ticks": 9000,
          "time": 11.84210625,
          "velocity": 0.7874015748031497
        },
        {
          "duration": 0.29605265625000143,
          "durationTicks": 225,
          "midi": 59,
          "name": "B3",
          "ticks": 9120,
          "time": 12.000001,
          "velocity": 0.47244094488188976
        },
        {
          "duration": 0.2881579187500005,
          "durationTicks": 219,
          "midi": 62,
          "name": "D4",
          "ticks": 9360,
          "time": 12.3157905,
          "velocity": 0.6535433070866141
        },
        {
          "duration": 0.8539474395833331,
          "durationTicks": 649,
          "midi": 57,
          "name": "A3",
          "ticks": 9600,
          "time": 12.63158,
          "velocity": 0.5748031496062992
        },
        {
          "duration": 0.34868423958333317,
          "durationTicks": 265,
          "midi": 67,
          "name": "G4",
          "ticks": 9600,
          "time": 12.63158,
          "velocity": 0.7244094488188977
        },
        {
          "duration": 0.38289476875000084,
          "durationTicks": 291,
          "midi": 69,
          "name": "A4",
          "ticks": 9600,
          "time": 12.63158,
          "velocity": 0.6929133858267716
        },
        {
          "duration": 0.4210526666666681,
          "durationTicks": 320,
          "midi": 73,
          "name": "C#5",
          "ticks": 9600,
          "time": 12.63158,
          "velocity": 0.7007874015748031
        },
        {
          "duration": 0.24210528333333237,
          "durationTicks": 184,
          "midi": 62,
          "name": "D4",
          "ticks": 9840,
          "time": 12.9473695,
          "velocity": 0.6614173228346457
        },
        {
          "duration": 0.06447368958333399,
          "durationTicks": 49,
          "midi": 67,
          "name": "G4",
          "ticks": 9960,
          "time": 13.10526425,
          "velocity": 0.7559055118110236
        },
        {
          "duration": 0.043421056250002366,
          "durationTicks": 33,
          "midi": 69,
          "name": "A4",
          "ticks": 9960,
          "time": 13.10526425,
          "velocity": 0.7952755905511811
        },
        {
          "duration": 0.056578952083334855,
          "durationTicks": 43,
          "midi": 76,
          "name": "E5",
          "ticks": 9960,
          "time": 13.10526425,
          "velocity": 0.7401574803149606
        },
        {
          "duration": 0.36052634583333365,
          "durationTicks": 274,
          "midi": 61,
          "name": "C#4",
          "ticks": 10080,
          "time": 13.263159,
          "velocity": 0.5590551181102362
        },
        {
          "duration": 0.30526318333333435,
          "durationTicks": 232,
          "midi": 62,
          "name": "D4",
          "ticks": 10320,
          "time": 13.5789485,
          "velocity": 0.7637795275590551
        },
        {
          "duration": 0.1828947520833335,
          "durationTicks": 139,
          "midi": 69,
          "name": "A4",
          "ticks": 10320,
          "time": 13.5789485,
          "velocity": 0.968503937007874
        },
        {
          "duration": 0.0868421124999994,
          "durationTicks": 66,
          "midi": 67,
          "name": "G4",
          "ticks": 10440,
          "time": 13.73684325,
          "velocity": 0.7086614173228346
        },
        {
          "duration": 1.0171053479166652,
          "durationTicks": 773,
          "midi": 50,
          "name": "D3",
          "ticks": 10560,
          "time": 13.894738,
          "velocity": 0.7874015748031497
        },
        {
          "duration": 0.5000000416666666,
          "durationTicks": 380,
          "midi": 66,
          "name": "F#4",
          "ticks": 10560,
          "time": 13.894738,
          "velocity": 0.6771653543307087
        },
        {
          "duration": 0.3763158208333355,
          "durationTicks": 286,
          "midi": 57,
          "name": "A3",
          "ticks": 10800,
          "time": 14.2105275,
          "velocity": 0.5275590551181102
        },
        {
          "duration": 0.6315790000000003,
          "durationTicks": 480,
          "midi": 62,
          "name": "D4",
          "ticks": 11040,
          "time": 14.526317,
          "velocity": 0.6141732283464567
        },
        {
          "duration": 0.431578983333333,
          "durationTicks": 328,
          "midi": 66,
          "name": "F#4",
          "ticks": 11040,
          "time": 14.526317,
          "velocity": 0.7007874015748031
        },
        {
          "duration": 0.44605266874999927,
          "durationTicks": 339,
          "midi": 69,
          "name": "A4",
          "ticks": 11040,
          "time": 14.526317,
          "velocity": 0.5984251968503937
        },
        {
          "duration": 0.3302631854166673,
          "durationTicks": 251,
          "midi": 57,
          "name": "A3",
          "ticks": 11280,
          "time": 14.8421065,
          "velocity": 0.3543307086614173
        },
        {
          "duration": 1.0381579812499986,
          "durationTicks": 789,
          "midi": 50,
          "name": "D3",
          "ticks": 11520,
          "time": 15.157896000000001,
          "velocity": 0.9921259842519685
        },
        {
          "duration": 0.38157897916666705,
          "durationTicks": 290,
          "midi": 57,
          "name": "A3",
          "ticks": 11760,
          "time": 15.4736855,
          "velocity": 0.5826771653543307
        },
        {
          "duration": 0.6855263729166676,
          "durationTicks": 521,
          "midi": 66,
          "name": "F#4",
          "ticks": 11760,
          "time": 15.4736855,
          "velocity": 0.8267716535433071
        },
        {
          "duration": 1.0328948229166688,
          "durationTicks": 785,
          "midi": 78,
          "name": "F#5",
          "ticks": 11760,
          "time": 15.4736855,
          "velocity": 0.8267716535433071
        },
        {
          "duration": 0.6302632104166648,
          "durationTicks": 479,
          "midi": 62,
          "name": "D4",
          "ticks": 12000,
          "time": 15.789475,
          "velocity": 0.7795275590551181
        },
        {
          "duration": 0.2776316020833356,
          "durationTicks": 211,
          "midi": 57,
          "name": "A3",
          "ticks": 12240,
          "time": 16.1052645,
          "velocity": 0.5433070866141733
        },
        {
          "duration": 0.15657896041666675,
          "durationTicks": 119,
          "midi": 74,
          "name": "D5",
          "ticks": 12240,
          "time": 16.1052645,
          "velocity": 0.6692913385826772
        },
        {
          "duration": 0.9473684999999996,
          "durationTicks": 720,
          "midi": 55,
          "name": "G3",
          "ticks": 12480,
          "time": 16.421054,
          "velocity": 0.5196850393700787
        },
        {
          "duration": 1.018421137499999,
          "durationTicks": 774,
          "midi": 67,
          "name": "G4",
          "ticks": 12480,
          "time": 16.421054,
          "velocity": 0.7086614173228346
        },
        {
          "duration": 0.7434211145833309,
          "durationTicks": 565,
          "midi": 74,
          "name": "D5",
          "ticks": 12480,
          "time": 16.421054,
          "velocity": 0.8267716535433071
        },
        {
          "duration": 0.41184213958333515,
          "durationTicks": 313,
          "midi": 62,
          "name": "D4",
          "ticks": 12720,
          "time": 16.7368435,
          "velocity": 0.6929133858267716
        },
        {
          "duration": 0.15789475000000053,
          "durationTicks": 120,
          "midi": 78,
          "name": "F#5",
          "ticks": 12720,
          "time": 16.7368435,
          "velocity": 0.12598425196850394
        },
        {
          "duration": 0.3486842395833314,
          "durationTicks": 265,
          "midi": 59,
          "name": "B3",
          "ticks": 12960,
          "time": 17.052633,
          "velocity": 0.4094488188976378
        },
        {
          "duration": 0.4078947708333338,
          "durationTicks": 310,
          "midi": 71,
          "name": "B4",
          "ticks": 12960,
          "time": 17.052633,
          "velocity": 0.7086614173228346
        },
        {
          "duration": 0.31973686874999885,
          "durationTicks": 243,
          "midi": 62,
          "name": "D4",
          "ticks": 13200,
          "time": 17.3684225,
          "velocity": 0.6535433070866141
        },
        {
          "duration": 0.9434211312500018,
          "durationTicks": 717,
          "midi": 57,
          "name": "A3",
          "ticks": 13440,
          "time": 17.684212,
          "velocity": 0.7637795275590551
        },
        {
          "duration": 0.4513158270833344,
          "durationTicks": 343,
          "midi": 67,
          "name": "G4",
          "ticks": 13440,
          "time": 17.684212,
          "velocity": 0.7952755905511811
        },
        {
          "duration": 0.46447372291666866,
          "durationTicks": 353,
          "midi": 73,
          "name": "C#5",
          "ticks": 13440,
          "time": 17.684212,
          "velocity": 0.968503937007874
        },
        {
          "duration": 0.3750000312499999,
          "durationTicks": 285,
          "midi": 62,
          "name": "D4",
          "ticks": 13680,
          "time": 18.0000015,
          "velocity": 0.6299212598425197
        },
        {
          "duration": 0.18684212083333307,
          "durationTicks": 142,
          "midi": 61,
          "name": "C#4",
          "ticks": 13920,
          "time": 18.315791,
          "velocity": 0.5669291338582677
        },
        {
          "duration": 0.05263158333333351,
          "durationTicks": 40,
          "midi": 66,
          "name": "F#4",
          "ticks": 13920,
          "time": 18.315791,
          "velocity": 0.7401574803149606
        },
        {
          "duration": 0.03815789791666546,
          "durationTicks": 29,
          "midi": 67,
          "name": "G4",
          "ticks": 13920,
          "time": 18.315791,
          "velocity": 0.7086614173228346
        },
        {
          "duration": 0.06052632083333265,
          "durationTicks": 46,
          "midi": 74,
          "name": "D5",
          "ticks": 13920,
          "time": 18.315791,
          "velocity": 0.7716535433070866
        },
        {
          "duration": 1.2368422083333357,
          "durationTicks": 940,
          "midi": 62,
          "name": "D4",
          "ticks": 14160,
          "time": 18.6315805,
          "velocity": 0.6141732283464567
        },
        {
          "duration": 1.1171053562500006,
          "durationTicks": 849,
          "midi": 66,
          "name": "F#4",
          "ticks": 14160,
          "time": 18.6315805,
          "velocity": 0.7952755905511811
        },
        {
          "duration": 1.1631579916666688,
          "durationTicks": 884,
          "midi": 74,
          "name": "D5",
          "ticks": 14160,
          "time": 18.6315805,
          "velocity": 0.7952755905511811
        },
        {
          "duration": 0.8500000708333353,
          "durationTicks": 646,
          "midi": 50,
          "name": "D3",
          "ticks": 14400,
          "time": 18.94737,
          "velocity": 0.84251968503937
        },
        {
          "duration": 1.340789585416669,
          "durationTicks": 1019,
          "midi": 59,
          "name": "B3",
          "ticks": 15360,
          "time": 20.210528,
          "velocity": 0.5590551181102362
        },
        {
          "duration": 1.1105264083333317,
          "durationTicks": 844,
          "midi": 78,
          "name": "F#5",
          "ticks": 15360,
          "time": 20.210528,
          "velocity": 0.7480314960629921
        },
        {
          "duration": 0.4092105604166676,
          "durationTicks": 311,
          "midi": 66,
          "name": "F#4",
          "ticks": 15600,
          "time": 20.5263175,
          "velocity": 0.7086614173228346
        },
        {
          "duration": 0.664473739583336,
          "durationTicks": 505,
          "midi": 62,
          "name": "D4",
          "ticks": 15840,
          "time": 20.842107,
          "velocity": 0.5275590551181102
        },
        {
          "duration": 0.48947372499999986,
          "durationTicks": 372,
          "midi": 74,
          "name": "D5",
          "ticks": 15840,
          "time": 20.842107,
          "velocity": 0.905511811023622
        },
        {
          "duration": 0.3763158208333337,
          "durationTicks": 286,
          "midi": 66,
          "name": "F#4",
          "ticks": 16080,
          "time": 21.1578965,
          "velocity": 0.7086614173228346
        },
        {
          "duration": 1.0210527166666665,
          "durationTicks": 776,
          "midi": 57,
          "name": "A3",
          "ticks": 16320,
          "time": 21.473686,
          "velocity": 0.889763779527559
        },
        {
          "duration": 0.40526319166666624,
          "durationTicks": 308,
          "midi": 69,
          "name": "A4",
          "ticks": 16320,
          "time": 21.473686,
          "velocity": 0.7952755905511811
        },
        {
          "duration": 0.3776316104166675,
          "durationTicks": 287,
          "midi": 74,
          "name": "D5",
          "ticks": 16320,
          "time": 21.473686,
          "velocity": 0.7322834645669292
        },
        {
          "duration": 0.36315792499999944,
          "durationTicks": 276,
          "midi": 78,
          "name": "F#5",
          "ticks": 16320,
          "time": 21.473686,
          "velocity": 0.7952755905511811
        },
        {
          "duration": 0.4750000395833318,
          "durationTicks": 361,
          "midi": 62,
          "name": "D4",
          "ticks": 16560,
          "time": 21.7894755,
          "velocity": 0.5354330708661418
        },
        {
          "duration": 0.10789474583333103,
          "durationTicks": 82,
          "midi": 81,
          "name": "A5",
          "ticks": 16560,
          "time": 21.7894755,
          "velocity": 0.7322834645669292
        },
        {
          "duration": 0.7105263750000006,
          "durationTicks": 540,
          "midi": 69,
          "name": "A4",
          "ticks": 16680,
          "time": 21.94737025,
          "velocity": 0.7795275590551181
        },
        {
          "duration": 0.6921053208333348,
          "durationTicks": 526,
          "midi": 74,
          "name": "D5",
          "ticks": 16680,
          "time": 21.94737025,
          "velocity": 0.7401574803149606
        },
        {
          "duration": 0.8723684937500025,
          "durationTicks": 663,
          "midi": 81,
          "name": "A5",
          "ticks": 16680,
          "time": 21.94737025,
          "velocity": 0.905511811023622
        },
        {
          "duration": 0.6302632104166683,
          "durationTicks": 479,
          "midi": 66,
          "name": "F#4",
          "ticks": 16800,
          "time": 22.105265,
          "velocity": 0.7559055118110236
        },
        {
          "duration": 0.3539473979166665,
          "durationTicks": 269,
          "midi": 62,
          "name": "D4",
          "ticks": 17040,
          "time": 22.4210545,
          "velocity": 0.5354330708661418
        },
        {
          "duration": 0.9460527104166658,
          "durationTicks": 719,
          "midi": 55,
          "name": "G3",
          "ticks": 17280,
          "time": 22.736844,
          "velocity": 0.7322834645669292
        },
        {
          "duration": 0.4210526666666645,
          "durationTicks": 320,
          "midi": 69,
          "name": "A4",
          "ticks": 17280,
          "time": 22.736844,
          "velocity": 0.7637795275590551
        },
        {
          "duration": 0.3000000249999992,
          "durationTicks": 228,
          "midi": 74,
          "name": "D5",
          "ticks": 17280,
          "time": 22.736844,
          "velocity": 0.7086614173228346
        },
        {
          "duration": 0.41578950833333295,
          "durationTicks": 316,
          "midi": 62,
          "name": "D4",
          "ticks": 17520,
          "time": 23.0526335,
          "velocity": 0.5433070866141733
        },
        {
          "duration": 0.3500000291666687,
          "durationTicks": 266,
          "midi": 66,
          "name": "F#4",
          "ticks": 17760,
          "time": 23.368423,
          "velocity": 0.6929133858267716
        },
        {
          "duration": 0.21578949166666916,
          "durationTicks": 164,
          "midi": 71,
          "name": "B4",
          "ticks": 17760,
          "time": 23.368423,
          "velocity": 0.7244094488188977
        },
        {
          "duration": 0.28421055000000095,
          "durationTicks": 216,
          "midi": 62,
          "name": "D4",
          "ticks": 18000,
          "time": 23.6842125,
          "velocity": 0.4645669291338583
        },
        {
          "duration": 0.9842106083333313,
          "durationTicks": 748,
          "midi": 54,
          "name": "F#3",
          "ticks": 18240,
          "time": 24.000002,
          "velocity": 0.8661417322834646
        },
        {
          "duration": 0.3828947687500026,
          "durationTicks": 291,
          "midi": 69,
          "name": "A4",
          "ticks": 18240,
          "time": 24.000002,
          "velocity": 0.7874015748031497
        },
        {
          "duration": 0.28026318125000316,
          "durationTicks": 213,
          "midi": 74,
          "name": "D5",
          "ticks": 18240,
          "time": 24.000002,
          "velocity": 0.8267716535433071
        },
        {
          "duration": 0.02500000208333475,
          "durationTicks": 19,
          "midi": 81,
          "name": "A5",
          "ticks": 18240,
          "time": 24.000002,
          "velocity": 0.6692913385826772
        },
        {
          "duration": 0.298684235416669,
          "durationTicks": 227,
          "midi": 62,
          "name": "D4",
          "ticks": 18480,
          "time": 24.3157915,
          "velocity": 0.5354330708661418
        },
        {
          "duration": 0.057894741666668637,
          "durationTicks": 44,
          "midi": 74,
          "name": "D5",
          "ticks": 18480,
          "time": 24.3157915,
          "velocity": 0.5984251968503937
        },
        {
          "duration": 0.10789474583333458,
          "durationTicks": 82,
          "midi": 81,
          "name": "A5",
          "ticks": 18480,
          "time": 24.3157915,
          "velocity": 0.984251968503937
        },
        {
          "duration": 0.5921053124999993,
          "durationTicks": 450,
          "midi": 69,
          "name": "A4",
          "ticks": 18600,
          "time": 24.47368625,
          "velocity": 0.889763779527559
        },
        {
          "duration": 1.1592106229166674,
          "durationTicks": 881,
          "midi": 78,
          "name": "F#5",
          "ticks": 18600,
          "time": 24.47368625,
          "velocity": 0.968503937007874
        },
        {
          "duration": 0.20789475416666647,
          "durationTicks": 158,
          "midi": 64,
          "name": "E4",
          "ticks": 18720,
          "time": 24.631581,
          "velocity": 0.5984251968503937
        },
        {
          "duration": 0.263157916666664,
          "durationTicks": 200,
          "midi": 62,
          "name": "D4",
          "ticks": 18960,
          "time": 24.9473705,
          "velocity": 0.3228346456692913
        },
        {
          "duration": 0.9710527125000006,
          "durationTicks": 738,
          "midi": 52,
          "name": "E3",
          "ticks": 19200,
          "time": 25.26316,
          "velocity": 0.7874015748031497
        },
        {
          "duration": 0.4236842458333321,
          "durationTicks": 322,
          "midi": 62,
          "name": "D4",
          "ticks": 19440,
          "time": 25.5789495,
          "velocity": 0.7480314960629921
        },
        {
          "duration": 0.14342106458333248,
          "durationTicks": 109,
          "midi": 67,
          "name": "G4",
          "ticks": 19440,
          "time": 25.5789495,
          "velocity": 0.8031496062992126
        },
        {
          "duration": 0.1276315895833342,
          "durationTicks": 97,
          "midi": 74,
          "name": "D5",
          "ticks": 19440,
          "time": 25.5789495,
          "velocity": 0.7086614173228346
        },
        {
          "duration": 0.6802632145833343,
          "durationTicks": 517,
          "midi": 59,
          "name": "B3",
          "ticks": 19680,
          "time": 25.894739,
          "velocity": 0.5984251968503937
        },
        {
          "duration": 0.43026319374999744,
          "durationTicks": 327,
          "midi": 67,
          "name": "G4",
          "ticks": 19680,
          "time": 25.894739,
          "velocity": 0.9763779527559056
        },
        {
          "duration": 0.14605264375000004,
          "durationTicks": 111,
          "midi": 69,
          "name": "A4",
          "ticks": 19680,
          "time": 25.894739,
          "velocity": 0.905511811023622
        },
        {
          "duration": 0.4000000333333311,
          "durationTicks": 304,
          "midi": 74,
          "name": "D5",
          "ticks": 19680,
          "time": 25.894739,
          "velocity": 0.9763779527559056
        },
        {
          "duration": 0.40263161250000223,
          "durationTicks": 306,
          "midi": 62,
          "name": "D4",
          "ticks": 19920,
          "time": 26.2105285,
          "velocity": 0.6377952755905512
        },
        {
          "duration": 0.13157895833333555,
          "durationTicks": 100,
          "midi": 71,
          "name": "B4",
          "ticks": 19920,
          "time": 26.2105285,
          "velocity": 0.6929133858267716
        },
        {
          "duration": 0.6065789979166674,
          "durationTicks": 461,
          "midi": 67,
          "name": "G4",
          "ticks": 20040,
          "time": 26.36842325,
          "velocity": 0.8661417322834646
        },
        {
          "duration": 0.4289474041666672,
          "durationTicks": 326,
          "midi": 71,
          "name": "B4",
          "ticks": 20040,
          "time": 26.36842325,
          "velocity": 0.984251968503937
        },
        {
          "duration": 0.37236845208333236,
          "durationTicks": 283,
          "midi": 74,
          "name": "D5",
          "ticks": 20040,
          "time": 26.36842325,
          "velocity": 0.984251968503937
        },
        {
          "duration": 0.6868421624999996,
          "durationTicks": 522,
          "midi": 52,
          "name": "E3",
          "ticks": 20160,
          "time": 26.526318,
          "velocity": 0.8031496062992126
        },
        {
          "duration": 0.11315790416666616,
          "durationTicks": 86,
          "midi": 76,
          "name": "E5",
          "ticks": 20280,
          "time": 26.68421275,
          "velocity": 0.7244094488188977
        },
        {
          "duration": 0.5973684708333309,
          "durationTicks": 454,
          "midi": 59,
          "name": "B3",
          "ticks": 20400,
          "time": 26.8421075,
          "velocity": 0.5118110236220472
        },
        {
          "duration": 0.19078948958333442,
          "durationTicks": 145,
          "midi": 78,
          "name": "F#5",
          "ticks": 20520,
          "time": 27.00000225,
          "velocity": 0.6929133858267716
        },
        {
          "duration": 0.48026319791666694,
          "durationTicks": 365,
          "midi": 62,
          "name": "D4",
          "ticks": 20640,
          "time": 27.157897,
          "velocity": 0.5669291338582677
        },
        {
          "duration": 0.2815789708333334,
          "durationTicks": 214,
          "midi": 79,
          "name": "G5",
          "ticks": 20760,
          "time": 27.31579175,
          "velocity": 0.5433070866141733
        },
        {
          "duration": 0.7815790124999964,
          "durationTicks": 594,
          "midi": 57,
          "name": "A3",
          "ticks": 21120,
          "time": 27.789476,
          "velocity": 0.7795275590551181
        },
        {
          "duration": 0.772368485416667,
          "durationTicks": 587,
          "midi": 69,
          "name": "A4",
          "ticks": 21120,
          "time": 27.789476,
          "velocity": 0.8267716535433071
        },
        {
          "duration": 0.7381579562500029,
          "durationTicks": 561,
          "midi": 74,
          "name": "D5",
          "ticks": 21120,
          "time": 27.789476,
          "velocity": 0.7559055118110236
        },
        {
          "duration": 0.9460527104166658,
          "durationTicks": 719,
          "midi": 78,
          "name": "F#5",
          "ticks": 21120,
          "time": 27.789476,
          "velocity": 0.7165354330708661
        },
        {
          "duration": 0.4236842458333321,
          "durationTicks": 322,
          "midi": 67,
          "name": "G4",
          "ticks": 21360,
          "time": 28.1052655,
          "velocity": 0.6141732283464567
        },
        {
          "duration": 0.11578948333333372,
          "durationTicks": 88,
          "midi": 64,
          "name": "E4",
          "ticks": 21600,
          "time": 28.421055,
          "velocity": 0.41732283464566927
        },
        {
          "duration": 1.5526317083333332,
          "durationTicks": 1180,
          "midi": 57,
          "name": "A3",
          "ticks": 21840,
          "time": 28.7368445,
          "velocity": 0.7559055118110236
        },
        {
          "duration": 1.4934211770833343,
          "durationTicks": 1135,
          "midi": 69,
          "name": "A4",
          "ticks": 21840,
          "time": 28.7368445,
          "velocity": 0.7559055118110236
        },
        {
          "duration": 1.4526316999999977,
          "durationTicks": 1104,
          "midi": 74,
          "name": "D5",
          "ticks": 21840,
          "time": 28.7368445,
          "velocity": 0.6850393700787402
        },
        {
          "duration": 1.5986843437500013,
          "durationTicks": 1215,
          "midi": 76,
          "name": "E5",
          "ticks": 21840,
          "time": 28.7368445,
          "velocity": 0.6929133858267716
        },
        {
          "duration": 0.2171052812499994,
          "durationTicks": 165,
          "midi": 62,
          "name": "D4",
          "ticks": 22800,
          "time": 30.0000025,
          "velocity": 0.4566929133858268
        },
        {
          "duration": 0.1881579104166633,
          "durationTicks": 143,
          "midi": 61,
          "name": "C#4",
          "ticks": 22920,
          "time": 30.15789725,
          "velocity": 0.5039370078740157
        },
        {
          "duration": 1.2697369479166625,
          "durationTicks": 965,
          "midi": 59,
          "name": "B3",
          "ticks": 23040,
          "time": 30.315792000000002,
          "velocity": 0.6141732283464567
        },
        {
          "duration": 0.4960526729166652,
          "durationTicks": 377,
          "midi": 69,
          "name": "A4",
          "ticks": 23040,
          "time": 30.315792000000002,
          "velocity": 0.7086614173228346
        },
        {
          "duration": 0.5223684645833337,
          "durationTicks": 397,
          "midi": 74,
          "name": "D5",
          "ticks": 23040,
          "time": 30.315792000000002,
          "velocity": 0.6850393700787402
        },
        {
          "duration": 0.3736842416666697,
          "durationTicks": 284,
          "midi": 62,
          "name": "D4",
          "ticks": 23280,
          "time": 30.6315815,
          "velocity": 0.5669291338582677
        },
        {
          "duration": 0.392105295833332,
          "durationTicks": 298,
          "midi": 66,
          "name": "F#4",
          "ticks": 23520,
          "time": 30.947371,
          "velocity": 0.7795275590551181
        },
        {
          "duration": 0.5223684645833337,
          "durationTicks": 397,
          "midi": 73,
          "name": "C#5",
          "ticks": 23520,
          "time": 30.947371,
          "velocity": 0.6850393700787402
        },
        {
          "duration": 0.35000002916666517,
          "durationTicks": 266,
          "midi": 62,
          "name": "D4",
          "ticks": 23760,
          "time": 31.2631605,
          "velocity": 0.7086614173228346
        },
        {
          "duration": 1.0131579791666638,
          "durationTicks": 770,
          "midi": 57,
          "name": "A3",
          "ticks": 24000,
          "time": 31.57895,
          "velocity": 0.7795275590551181
        },
        {
          "duration": 0.20526317500000246,
          "durationTicks": 156,
          "midi": 67,
          "name": "G4",
          "ticks": 24000,
          "time": 31.57895,
          "velocity": 0.7401574803149606
        },
        {
          "duration": 0.38947371666666797,
          "durationTicks": 296,
          "midi": 69,
          "name": "A4",
          "ticks": 24000,
          "time": 31.57895,
          "velocity": 0.7322834645669292
        },
        {
          "duration": 0.3868421375000004,
          "durationTicks": 294,
          "midi": 74,
          "name": "D5",
          "ticks": 24000,
          "time": 31.57895,
          "velocity": 0.7874015748031497
        },
        {
          "duration": 0.42763161458333343,
          "durationTicks": 325,
          "midi": 62,
          "name": "D4",
          "ticks": 24240,
          "time": 31.8947395,
          "velocity": 0.5275590551181102
        },
        {
          "duration": 0.10789474583333458,
          "durationTicks": 82,
          "midi": 81,
          "name": "A5",
          "ticks": 24240,
          "time": 31.8947395,
          "velocity": 0.7322834645669292
        },
        {
          "duration": 0.7197369020833335,
          "durationTicks": 547,
          "midi": 69,
          "name": "A4",
          "ticks": 24360,
          "time": 32.05263425,
          "velocity": 0.8661417322834646
        },
        {
          "duration": 0.6842105833333392,
          "durationTicks": 520,
          "midi": 74,
          "name": "D5",
          "ticks": 24360,
          "time": 32.05263425,
          "velocity": 0.8267716535433071
        },
        {
          "duration": 2.136842283333337,
          "durationTicks": 1624,
          "midi": 81,
          "name": "A5",
          "ticks": 24360,
          "time": 32.05263425,
          "velocity": 0.7952755905511811
        },
        {
          "duration": 0.6342105791666697,
          "durationTicks": 482,
          "midi": 66,
          "name": "F#4",
          "ticks": 24480,
          "time": 32.210529,
          "velocity": 0.7795275590551181
        },
        {
          "duration": 0.3421052916666625,
          "durationTicks": 260,
          "midi": 62,
          "name": "D4",
          "ticks": 24720,
          "time": 32.5263185,
          "velocity": 0.5748031496062992
        },
        {
          "duration": 0.971052712499997,
          "durationTicks": 738,
          "midi": 55,
          "name": "G3",
          "ticks": 24960,
          "time": 32.842108,
          "velocity": 0.8267716535433071
        },
        {
          "duration": 0.3802631895833315,
          "durationTicks": 289,
          "midi": 69,
          "name": "A4",
          "ticks": 24960,
          "time": 32.842108,
          "velocity": 0.7874015748031497
        },
        {
          "duration": 0.8447369124999966,
          "durationTicks": 642,
          "midi": 74,
          "name": "D5",
          "ticks": 24960,
          "time": 32.842108,
          "velocity": 0.889763779527559
        },
        {
          "duration": 0.42500003541666587,
          "durationTicks": 323,
          "midi": 62,
          "name": "D4",
          "ticks": 25200,
          "time": 33.1578975,
          "velocity": 0.4645669291338583
        },
        {
          "duration": 0.33289476458333667,
          "durationTicks": 253,
          "midi": 66,
          "name": "F#4",
          "ticks": 25440,
          "time": 33.473687,
          "velocity": 0.7401574803149606
        },
        {
          "duration": 0.33289476458333667,
          "durationTicks": 253,
          "midi": 71,
          "name": "B4",
          "ticks": 25440,
          "time": 33.473687,
          "velocity": 0.8031496062992126
        },
        {
          "duration": 0.30263160416666324,
          "durationTicks": 230,
          "midi": 62,
          "name": "D4",
          "ticks": 25680,
          "time": 33.7894765,
          "velocity": 0.4015748031496063
        },
        {
          "duration": 0.8986842854166639,
          "durationTicks": 683,
          "midi": 54,
          "name": "F#3",
          "ticks": 25920,
          "time": 34.105266,
          "velocity": 0.889763779527559
        },
        {
          "duration": 0.2342105458333279,
          "durationTicks": 178,
          "midi": 69,
          "name": "A4",
          "ticks": 25920,
          "time": 34.105266,
          "velocity": 0.8267716535433071
        },
        {
          "duration": 0.24473686249999815,
          "durationTicks": 186,
          "midi": 74,
          "name": "D5",
          "ticks": 25920,
          "time": 34.105266,
          "velocity": 0.8267716535433071
        },
        {
          "duration": 0.39605266458332977,
          "durationTicks": 301,
          "midi": 62,
          "name": "D4",
          "ticks": 26160,
          "time": 34.4210555,
          "velocity": 0.4330708661417323
        },
        {
          "duration": 0.07894737499999849,
          "durationTicks": 60,
          "midi": 69,
          "name": "A4",
          "ticks": 26160,
          "time": 34.4210555,
          "velocity": 0.6771653543307087
        },
        {
          "duration": 0.09342106041666653,
          "durationTicks": 71,
          "midi": 74,
          "name": "D5",
          "ticks": 26160,
          "time": 34.4210555,
          "velocity": 0.5118110236220472
        },
        {
          "duration": 0.20131580625000112,
          "durationTicks": 153,
          "midi": 81,
          "name": "A5",
          "ticks": 26160,
          "time": 34.4210555,
          "velocity": 0.7952755905511811
        },
        {
          "duration": 0.9263158666666698,
          "durationTicks": 704,
          "midi": 69,
          "name": "A4",
          "ticks": 26280,
          "time": 34.57895025,
          "velocity": 0.8267716535433071
        },
        {
          "duration": 1.343421164583333,
          "durationTicks": 1021,
          "midi": 78,
          "name": "F#5",
          "ticks": 26280,
          "time": 34.57895025,
          "velocity": 0.889763779527559
        },
        {
          "duration": 0.3815789791666617,
          "durationTicks": 290,
          "midi": 64,
          "name": "E4",
          "ticks": 26400,
          "time": 34.736845,
          "velocity": 0.7716535433070866
        },
        {
          "duration": 0.24605265208332838,
          "durationTicks": 187,
          "midi": 54,
          "name": "F#3",
          "ticks": 26640,
          "time": 35.0526345,
          "velocity": 0.7952755905511811
        },
        {
          "duration": 0.08815790208333141,
          "durationTicks": 67,
          "midi": 62,
          "name": "D4",
          "ticks": 26640,
          "time": 35.0526345,
          "velocity": 0.4015748031496063
        },
        {
          "duration": 0.8000000666666693,
          "durationTicks": 608,
          "midi": 52,
          "name": "E3",
          "ticks": 26880,
          "time": 35.368424,
          "velocity": 0.984251968503937
        },
        {
          "duration": 0.6736842666666689,
          "durationTicks": 512,
          "midi": 59,
          "name": "B3",
          "ticks": 27120,
          "time": 35.6842135,
          "velocity": 0.5669291338582677
        },
        {
          "duration": 0.19736843750000332,
          "durationTicks": 150,
          "midi": 67,
          "name": "G4",
          "ticks": 27120,
          "time": 35.6842135,
          "velocity": 0.7480314960629921
        },
        {
          "duration": 0.17763159375000015,
          "durationTicks": 135,
          "midi": 74,
          "name": "D5",
          "ticks": 27120,
          "time": 35.6842135,
          "velocity": 0.6141732283464567
        },
        {
          "duration": 0.36578950416666345,
          "durationTicks": 278,
          "midi": 62,
          "name": "D4",
          "ticks": 27360,
          "time": 36.000003,
          "velocity": 0.7086614173228346
        },
        {
          "duration": 0.11447369374999994,
          "durationTicks": 87,
          "midi": 67,
          "name": "G4",
          "ticks": 27360,
          "time": 36.000003,
          "velocity": 0.7716535433070866
        },
        {
          "duration": 0.09736842916667143,
          "durationTicks": 74,
          "midi": 74,
          "name": "D5",
          "ticks": 27360,
          "time": 36.000003,
          "velocity": 0.7952755905511811
        },
        {
          "duration": 0.6315790000000021,
          "durationTicks": 480,
          "midi": 52,
          "name": "E3",
          "ticks": 27600,
          "time": 36.3157925,
          "velocity": 0.7874015748031497
        },
        {
          "duration": 0.23289475624999767,
          "durationTicks": 177,
          "midi": 67,
          "name": "G4",
          "ticks": 27600,
          "time": 36.3157925,
          "velocity": 0.7637795275590551
        },
        {
          "duration": 0.2500000208333333,
          "durationTicks": 190,
          "midi": 71,
          "name": "B4",
          "ticks": 27600,
          "time": 36.3157925,
          "velocity": 0.7952755905511811
        },
        {
          "duration": 0.9763158708333322,
          "durationTicks": 742,
          "midi": 62,
          "name": "D4",
          "ticks": 27840,
          "time": 36.631582,
          "velocity": 0.8661417322834646
        },
        {
          "duration": 0.8973684958333337,
          "durationTicks": 682,
          "midi": 67,
          "name": "G4",
          "ticks": 27840,
          "time": 36.631582,
          "velocity": 0.7559055118110236
        },
        {
          "duration": 0.5434210979166636,
          "durationTicks": 413,
          "midi": 71,
          "name": "B4",
          "ticks": 27840,
          "time": 36.631582,
          "velocity": 0.7637795275590551
        },
        {
          "duration": 0.3934210854166693,
          "durationTicks": 299,
          "midi": 74,
          "name": "D5",
          "ticks": 27840,
          "time": 36.631582,
          "velocity": 0.8031496062992126
        },
        {
          "duration": 0.35657897708333053,
          "durationTicks": 271,
          "midi": 59,
          "name": "B3",
          "ticks": 28080,
          "time": 36.9473715,
          "velocity": 0.47244094488188976
        },
        {
          "duration": 0.18289475208332817,
          "durationTicks": 139,
          "midi": 76,
          "name": "E5",
          "ticks": 28080,
          "time": 36.9473715,
          "velocity": 0.7716535433070866
        },
        {
          "duration": 0.3802631895833386,
          "durationTicks": 289,
          "midi": 52,
          "name": "E3",
          "ticks": 28320,
          "time": 37.263161,
          "velocity": 1
        },
        {
          "duration": 0.18289475208333528,
          "durationTicks": 139,
          "midi": 69,
          "name": "A4",
          "ticks": 28320,
          "time": 37.263161,
          "velocity": 0.28346456692913385
        },
        {
          "duration": 0.09868421875000166,
          "durationTicks": 75,
          "midi": 71,
          "name": "B4",
          "ticks": 28320,
          "time": 37.263161,
          "velocity": 0.7086614173228346
        },
        {
          "duration": 0.2131579125000016,
          "durationTicks": 162,
          "midi": 78,
          "name": "F#5",
          "ticks": 28320,
          "time": 37.263161,
          "velocity": 0.7637795275590551
        },
        {
          "duration": 0.24736844166666572,
          "durationTicks": 188,
          "midi": 59,
          "name": "B3",
          "ticks": 28560,
          "time": 37.5789505,
          "velocity": 0.5511811023622047
        },
        {
          "duration": 0.2513158104166706,
          "durationTicks": 191,
          "midi": 79,
          "name": "G5",
          "ticks": 28560,
          "time": 37.5789505,
          "velocity": 0.7322834645669292
        },
        {
          "duration": 0.7368421666666691,
          "durationTicks": 560,
          "midi": 57,
          "name": "A3",
          "ticks": 28800,
          "time": 37.89474,
          "velocity": 0.7480314960629921
        },
        {
          "duration": 0.7500000624999998,
          "durationTicks": 570,
          "midi": 67,
          "name": "G4",
          "ticks": 28800,
          "time": 37.89474,
          "velocity": 0.7401574803149606
        },
        {
          "duration": 0.6473684750000004,
          "durationTicks": 492,
          "midi": 74,
          "name": "D5",
          "ticks": 28800,
          "time": 37.89474,
          "velocity": 0.6929133858267716
        },
        {
          "duration": 0.6776316354166667,
          "durationTicks": 515,
          "midi": 78,
          "name": "F#5",
          "ticks": 28800,
          "time": 37.89474,
          "velocity": 0.7086614173228346
        },
        {
          "duration": 1.0447369291666675,
          "durationTicks": 794,
          "midi": 57,
          "name": "A3",
          "ticks": 29520,
          "time": 38.8421085,
          "velocity": 0.968503937007874
        },
        {
          "duration": 1.2736843166666674,
          "durationTicks": 968,
          "midi": 67,
          "name": "G4",
          "ticks": 29520,
          "time": 38.8421085,
          "velocity": 0.7165354330708661
        },
        {
          "duration": 1.0684211416666685,
          "durationTicks": 812,
          "midi": 71,
          "name": "B4",
          "ticks": 29520,
          "time": 38.8421085,
          "velocity": 0.5984251968503937
        },
        {
          "duration": 1.128947462500001,
          "durationTicks": 858,
          "midi": 74,
          "name": "D5",
          "ticks": 29520,
          "time": 38.8421085,
          "velocity": 0.6220472440944882
        },
        {
          "duration": 1.21973694375,
          "durationTicks": 927,
          "midi": 50,
          "name": "D3",
          "ticks": 30720,
          "time": 40.421056,
          "velocity": 0.7716535433070866
        },
        {
          "duration": 0.6105263666666687,
          "durationTicks": 464,
          "midi": 66,
          "name": "F#4",
          "ticks": 30720,
          "time": 40.421056,
          "velocity": 0.6692913385826772
        },
        {
          "duration": 1.2921053708333332,
          "durationTicks": 982,
          "midi": 69,
          "name": "A4",
          "ticks": 30720,
          "time": 40.421056,
          "velocity": 0.6299212598425197
        },
        {
          "duration": 0.41184213958333515,
          "durationTicks": 313,
          "midi": 57,
          "name": "A3",
          "ticks": 30960,
          "time": 40.7368455,
          "velocity": 0.5433070866141733
        },
        {
          "duration": 0.7026316374999979,
          "durationTicks": 534,
          "midi": 62,
          "name": "D4",
          "ticks": 31200,
          "time": 41.052635,
          "velocity": 0.7952755905511811
        },
        {
          "duration": 0.44605266874999927,
          "durationTicks": 339,
          "midi": 66,
          "name": "F#4",
          "ticks": 31200,
          "time": 41.052635,
          "velocity": 0.7952755905511811
        },
        {
          "duration": 0.8118421729166627,
          "durationTicks": 617,
          "midi": 74,
          "name": "D5",
          "ticks": 31200,
          "time": 41.052635,
          "velocity": 0.8031496062992126
        },
        {
          "duration": 0.33684213333332735,
          "durationTicks": 256,
          "midi": 57,
          "name": "A3",
          "ticks": 31440,
          "time": 41.3684245,
          "velocity": 0.4881889763779528
        },
        {
          "duration": 1.0526316666666702,
          "durationTicks": 800,
          "midi": 55,
          "name": "G3",
          "ticks": 31680,
          "time": 41.684214,
          "velocity": 0.7480314960629921
        },
        {
          "duration": 0.4710526708333376,
          "durationTicks": 358,
          "midi": 67,
          "name": "G4",
          "ticks": 31680,
          "time": 41.684214,
          "velocity": 0.6929133858267716
        },
        {
          "duration": 0.5434210979166707,
          "durationTicks": 413,
          "midi": 71,
          "name": "B4",
          "ticks": 31680,
          "time": 41.684214,
          "velocity": 0.6771653543307087
        },
        {
          "duration": 0.42894740416666366,
          "durationTicks": 326,
          "midi": 62,
          "name": "D4",
          "ticks": 31920,
          "time": 42.0000035,
          "velocity": 0.6535433070866141
        },
        {
          "duration": 0.1710526458333348,
          "durationTicks": 130,
          "midi": 69,
          "name": "A4",
          "ticks": 31920,
          "time": 42.0000035,
          "velocity": 0.2204724409448819
        },
        {
          "duration": 0.6539474229166586,
          "durationTicks": 497,
          "midi": 67,
          "name": "G4",
          "ticks": 32040,
          "time": 42.15789825,
          "velocity": 0.6456692913385826
        },
        {
          "duration": 0.7513158520833301,
          "durationTicks": 571,
          "midi": 74,
          "name": "D5",
          "ticks": 32040,
          "time": 42.15789825,
          "velocity": 0.7401574803149606
        },
        {
          "duration": 0.3802631895833386,
          "durationTicks": 289,
          "midi": 59,
          "name": "B3",
          "ticks": 32160,
          "time": 42.315793,
          "velocity": 0.6299212598425197
        },
        {
          "duration": 0.33289476458333667,
          "durationTicks": 253,
          "midi": 62,
          "name": "D4",
          "ticks": 32400,
          "time": 42.6315825,
          "velocity": 0.7637795275590551
        },
        {
          "duration": 0.9842106083333348,
          "durationTicks": 748,
          "midi": 57,
          "name": "A3",
          "ticks": 32640,
          "time": 42.947372,
          "velocity": 0.6771653543307087
        },
        {
          "duration": 0.4223684562499983,
          "durationTicks": 321,
          "midi": 67,
          "name": "G4",
          "ticks": 32640,
          "time": 42.947372,
          "velocity": 0.7401574803149606
        },
        {
          "duration": 0.4263158249999961,
          "durationTicks": 324,
          "midi": 69,
          "name": "A4",
          "ticks": 32640,
          "time": 42.947372,
          "velocity": 0.7480314960629921
        },
        {
          "duration": 0.4526316166666646,
          "durationTicks": 344,
          "midi": 73,
          "name": "C#5",
          "ticks": 32640,
          "time": 42.947372,
          "velocity": 0.7007874015748031
        },
        {
          "duration": 0.41578950833333295,
          "durationTicks": 316,
          "midi": 62,
          "name": "D4",
          "ticks": 32880,
          "time": 43.2631615,
          "velocity": 0.6771653543307087
        },
        {
          "duration": 0.15263159166666185,
          "durationTicks": 116,
          "midi": 67,
          "name": "G4",
          "ticks": 33000,
          "time": 43.42105625,
          "velocity": 0.7716535433070866
        },
        {
          "duration": 0.1131579041666626,
          "durationTicks": 86,
          "midi": 69,
          "name": "A4",
          "ticks": 33000,
          "time": 43.42105625,
          "velocity": 0.7086614173228346
        },
        {
          "duration": 0.15263159166666185,
          "durationTicks": 116,
          "midi": 76,
          "name": "E5",
          "ticks": 33000,
          "time": 43.42105625,
          "velocity": 0.7874015748031497
        },
        {
          "duration": 0.33157897499999933,
          "durationTicks": 252,
          "midi": 61,
          "name": "C#4",
          "ticks": 33120,
          "time": 43.578951,
          "velocity": 0.5984251968503937
        },
        {
          "duration": 0.38289476875000616,
          "durationTicks": 291,
          "midi": 62,
          "name": "D4",
          "ticks": 33360,
          "time": 43.8947405,
          "velocity": 0.6456692913385826
        },
        {
          "duration": 0.21052633333333404,
          "durationTicks": 160,
          "midi": 69,
          "name": "A4",
          "ticks": 33360,
          "time": 43.8947405,
          "velocity": 0.8031496062992126
        },
        {
          "duration": 0.08421053333333361,
          "durationTicks": 64,
          "midi": 67,
          "name": "G4",
          "ticks": 33480,
          "time": 44.05263525,
          "velocity": 0.7086614173228346
        },
        {
          "duration": 1.0223685062500039,
          "durationTicks": 777,
          "midi": 50,
          "name": "D3",
          "ticks": 33600,
          "time": 44.21053,
          "velocity": 0.7795275590551181
        },
        {
          "duration": 0.48289477708333806,
          "durationTicks": 367,
          "midi": 66,
          "name": "F#4",
          "ticks": 33600,
          "time": 44.21053,
          "velocity": 0.7480314960629921
        },
        {
          "duration": 0.35789476666666786,
          "durationTicks": 272,
          "midi": 62,
          "name": "D4",
          "ticks": 33840,
          "time": 44.5263195,
          "velocity": 0.7401574803149606
        },
        {
          "duration": 0.6736842666666618,
          "durationTicks": 512,
          "midi": 57,
          "name": "A3",
          "ticks": 34080,
          "time": 44.842109,
          "velocity": 0.6141732283464567
        },
        {
          "duration": 0.5526316249999965,
          "durationTicks": 420,
          "midi": 66,
          "name": "F#4",
          "ticks": 34080,
          "time": 44.842109,
          "velocity": 0.7874015748031497
        },
        {
          "duration": 0.5421053083333334,
          "durationTicks": 412,
          "midi": 69,
          "name": "A4",
          "ticks": 34080,
          "time": 44.842109,
          "velocity": 0.7559055118110236
        },
        {
          "duration": 0.34868423958332784,
          "durationTicks": 265,
          "midi": 62,
          "name": "D4",
          "ticks": 34320,
          "time": 45.1578985,
          "velocity": 0.6850393700787402
        },
        {
          "duration": 1.023684295833334,
          "durationTicks": 778,
          "midi": 50,
          "name": "D3",
          "ticks": 34560,
          "time": 45.473688,
          "velocity": 0.9921259842519685
        },
        {
          "duration": 0.4513158270833344,
          "durationTicks": 343,
          "midi": 66,
          "name": "F#4",
          "ticks": 34560,
          "time": 45.473688,
          "velocity": 0.7637795275590551
        },
        {
          "duration": 0.46184214374999755,
          "durationTicks": 351,
          "midi": 69,
          "name": "A4",
          "ticks": 34560,
          "time": 45.473688,
          "velocity": 0.7952755905511811
        },
        {
          "duration": 0.4605263541666744,
          "durationTicks": 350,
          "midi": 57,
          "name": "A3",
          "ticks": 34800,
          "time": 45.7894775,
          "velocity": 0.5196850393700787
        },
        {
          "duration": 0.597368470833338,
          "durationTicks": 454,
          "midi": 62,
          "name": "D4",
          "ticks": 35040,
          "time": 46.105267,
          "velocity": 0.6141732283464567
        },
        {
          "duration": 0.3855263479166666,
          "durationTicks": 293,
          "midi": 66,
          "name": "F#4",
          "ticks": 35040,
          "time": 46.105267,
          "velocity": 0.7086614173228346
        },
        {
          "duration": 0.5013158312500039,
          "durationTicks": 381,
          "midi": 69,
          "name": "A4",
          "ticks": 35040,
          "time": 46.105267,
          "velocity": 0.6141732283464567
        },
        {
          "duration": 0.693421110416665,
          "durationTicks": 527,
          "midi": 74,
          "name": "D5",
          "ticks": 35040,
          "time": 46.105267,
          "velocity": 0.7007874015748031
        },
        {
          "duration": 0.2710526541666667,
          "durationTicks": 206,
          "midi": 57,
          "name": "A3",
          "ticks": 35280,
          "time": 46.4210565,
          "velocity": 0.4251968503937008
        },
        {
          "duration": 0.9171053395833368,
          "durationTicks": 697,
          "midi": 55,
          "name": "G3",
          "ticks": 35520,
          "time": 46.736846,
          "velocity": 0.6535433070866141
        },
        {
          "duration": 0.49868425208333633,
          "durationTicks": 379,
          "midi": 67,
          "name": "G4",
          "ticks": 35520,
          "time": 46.736846,
          "velocity": 0.7244094488188977
        },
        {
          "duration": 0.5447368875000009,
          "durationTicks": 414,
          "midi": 71,
          "name": "B4",
          "ticks": 35520,
          "time": 46.736846,
          "velocity": 0.7401574803149606
        },
        {
          "duration": 0.40789477083333026,
          "durationTicks": 310,
          "midi": 62,
          "name": "D4",
          "ticks": 35760,
          "time": 47.0526355,
          "velocity": 0.6062992125984252
        },
        {
          "duration": 0.34868423958332784,
          "durationTicks": 265,
          "midi": 59,
          "name": "B3",
          "ticks": 36000,
          "time": 47.368425,
          "velocity": 0.4015748031496063
        },
        {
          "duration": 0.39473687499999954,
          "durationTicks": 300,
          "midi": 67,
          "name": "G4",
          "ticks": 36000,
          "time": 47.368425,
          "velocity": 0.6220472440944882
        },
        {
          "duration": 0.4223684562499983,
          "durationTicks": 321,
          "midi": 74,
          "name": "D5",
          "ticks": 36000,
          "time": 47.368425,
          "velocity": 0.4881889763779528
        },
        {
          "duration": 0.35789476666666076,
          "durationTicks": 272,
          "midi": 62,
          "name": "D4",
          "ticks": 36240,
          "time": 47.6842145,
          "velocity": 0.4015748031496063
        },
        {
          "duration": 0.9592106062500037,
          "durationTicks": 729,
          "midi": 57,
          "name": "A3",
          "ticks": 36480,
          "time": 48.000004,
          "velocity": 0.7637795275590551
        },
        {
          "duration": 0.7355263770833389,
          "durationTicks": 559,
          "midi": 67,
          "name": "G4",
          "ticks": 36480,
          "time": 48.000004,
          "velocity": 0.7716535433070866
        },
        {
          "duration": 0.7368421666666762,
          "durationTicks": 560,
          "midi": 69,
          "name": "A4",
          "ticks": 36480,
          "time": 48.000004,
          "velocity": 0.905511811023622
        },
        {
          "duration": 0.42894740416666366,
          "durationTicks": 326,
          "midi": 73,
          "name": "C#5",
          "ticks": 36480,
          "time": 48.000004,
          "velocity": 0.8661417322834646
        },
        {
          "duration": 0.33289476458333667,
          "durationTicks": 253,
          "midi": 62,
          "name": "D4",
          "ticks": 36720,
          "time": 48.3157935,
          "velocity": 0.6299212598425197
        },
        {
          "duration": 0.46184214375000465,
          "durationTicks": 351,
          "midi": 76,
          "name": "E5",
          "ticks": 36720,
          "time": 48.3157935,
          "velocity": 0.7165354330708661
        },
        {
          "duration": 0.3605263458333354,
          "durationTicks": 274,
          "midi": 61,
          "name": "C#4",
          "ticks": 36960,
          "time": 48.631583,
          "velocity": 0.6456692913385826
        },
        {
          "duration": 0.4605263541666673,
          "durationTicks": 350,
          "midi": 62,
          "name": "D4",
          "ticks": 37200,
          "time": 48.9473725,
          "velocity": 0.7244094488188977
        },
        {
          "duration": 0.5842105750000002,
          "durationTicks": 444,
          "midi": 66,
          "name": "F#4",
          "ticks": 37200,
          "time": 48.9473725,
          "velocity": 0.7637795275590551
        },
        {
          "duration": 0.5894737333333353,
          "durationTicks": 448,
          "midi": 69,
          "name": "A4",
          "ticks": 37200,
          "time": 48.9473725,
          "velocity": 0.6771653543307087
        },
        {
          "duration": 1.3684211666666712,
          "durationTicks": 1040,
          "midi": 78,
          "name": "F#5",
          "ticks": 37200,
          "time": 48.9473725,
          "velocity": 0.7559055118110236
        },
        {
          "duration": 1.0171053479166616,
          "durationTicks": 773,
          "midi": 50,
          "name": "D3",
          "ticks": 37440,
          "time": 49.263162,
          "velocity": 0.984251968503937
        },
        {
          "duration": 0.39736845416666,
          "durationTicks": 302,
          "midi": 57,
          "name": "A3",
          "ticks": 37680,
          "time": 49.5789515,
          "velocity": 0.5511811023622047
        },
        {
          "duration": 0.6631579499999987,
          "durationTicks": 504,
          "midi": 66,
          "name": "F#4",
          "ticks": 37680,
          "time": 49.5789515,
          "velocity": 0.6141732283464567
        },
        {
          "duration": 0.36973687291666124,
          "durationTicks": 281,
          "midi": 69,
          "name": "A4",
          "ticks": 37680,
          "time": 49.5789515,
          "velocity": 0.36220472440944884
        },
        {
          "duration": 0.602631629166666,
          "durationTicks": 458,
          "midi": 74,
          "name": "D5",
          "ticks": 37680,
          "time": 49.5789515,
          "velocity": 0.3779527559055118
        },
        {
          "duration": 0.40000003333333467,
          "durationTicks": 304,
          "midi": 62,
          "name": "D4",
          "ticks": 37920,
          "time": 49.894741,
          "velocity": 0.6535433070866141
        },
        {
          "duration": 0.9921053458333375,
          "durationTicks": 754,
          "midi": 50,
          "name": "D3",
          "ticks": 38400,
          "time": 50.52632,
          "velocity": 0.984251968503937
        },
        {
          "duration": 0.564473731249997,
          "durationTicks": 429,
          "midi": 62,
          "name": "D4",
          "ticks": 38400,
          "time": 50.52632,
          "velocity": 0.7322834645669292
        },
        {
          "duration": 1.0250000854166714,
          "durationTicks": 779,
          "midi": 66,
          "name": "F#4",
          "ticks": 38400,
          "time": 50.52632,
          "velocity": 0.8031496062992126
        },
        {
          "duration": 1.1565790437499999,
          "durationTicks": 879,
          "midi": 69,
          "name": "A4",
          "ticks": 38400,
          "time": 50.52632,
          "velocity": 0.984251968503937
        },
        {
          "duration": 0.41184213958333515,
          "durationTicks": 313,
          "midi": 57,
          "name": "A3",
          "ticks": 38640,
          "time": 50.8421095,
          "velocity": 0.4645669291338583
        },
        {
          "duration": 0.5907895229166655,
          "durationTicks": 449,
          "midi": 62,
          "name": "D4",
          "ticks": 38880,
          "time": 51.157899,
          "velocity": 0.7559055118110236
        },
        {
          "duration": 0.6052632083333265,
          "durationTicks": 460,
          "midi": 74,
          "name": "D5",
          "ticks": 38880,
          "time": 51.157899,
          "velocity": 0.6692913385826772
        },
        {
          "duration": 0.28157897083333694,
          "durationTicks": 214,
          "midi": 57,
          "name": "A3",
          "ticks": 39120,
          "time": 51.4736885,
          "velocity": 0.49606299212598426
        },
        {
          "duration": 0.9368421833333329,
          "durationTicks": 712,
          "midi": 55,
          "name": "G3",
          "ticks": 39360,
          "time": 51.789478,
          "velocity": 0.6062992125984252
        },
        {
          "duration": 0.45394740624999486,
          "durationTicks": 345,
          "midi": 67,
          "name": "G4",
          "ticks": 39360,
          "time": 51.789478,
          "velocity": 0.7165354330708661
        },
        {
          "duration": 0.44868424791665973,
          "durationTicks": 341,
          "midi": 71,
          "name": "B4",
          "ticks": 39360,
          "time": 51.789478,
          "velocity": 0.7716535433070866
        },
        {
          "duration": 0.40263161249999513,
          "durationTicks": 306,
          "midi": 62,
          "name": "D4",
          "ticks": 39600,
          "time": 52.105267500000004,
          "velocity": 0.5669291338582677
        },
        {
          "duration": 0.3644737145833332,
          "durationTicks": 277,
          "midi": 59,
          "name": "B3",
          "ticks": 39840,
          "time": 52.421057,
          "velocity": 0.5669291338582677
        },
        {
          "duration": 0.4355263520833361,
          "durationTicks": 331,
          "midi": 67,
          "name": "G4",
          "ticks": 39840,
          "time": 52.421057,
          "velocity": 0.9763779527559056
        },
        {
          "duration": 0.45394740625000196,
          "durationTicks": 345,
          "midi": 74,
          "name": "D5",
          "ticks": 39840,
          "time": 52.421057,
          "velocity": 0.984251968503937
        },
        {
          "duration": 0.3750000312500035,
          "durationTicks": 285,
          "midi": 62,
          "name": "D4",
          "ticks": 40080,
          "time": 52.7368465,
          "velocity": 0.7244094488188977
        },
        {
          "duration": 0.39736845416666,
          "durationTicks": 302,
          "midi": 67,
          "name": "G4",
          "ticks": 40200,
          "time": 52.89474125,
          "velocity": 0.7795275590551181
        },
        {
          "duration": 0.3802631895833315,
          "durationTicks": 289,
          "midi": 69,
          "name": "A4",
          "ticks": 40200,
          "time": 52.89474125,
          "velocity": 0.9763779527559056
        },
        {
          "duration": 0.33289476458333667,
          "durationTicks": 253,
          "midi": 73,
          "name": "C#5",
          "ticks": 40200,
          "time": 52.89474125,
          "velocity": 0.7637795275590551
        },
        {
          "duration": 1.0381579812500021,
          "durationTicks": 789,
          "midi": 57,
          "name": "A3",
          "ticks": 40320,
          "time": 53.052636,
          "velocity": 0.6377952755905512
        },
        {
          "duration": 0.40000003333333467,
          "durationTicks": 304,
          "midi": 62,
          "name": "D4",
          "ticks": 40560,
          "time": 53.3684255,
          "velocity": 0.7244094488188977
        },
        {
          "duration": 0.10526316666666702,
          "durationTicks": 80,
          "midi": 67,
          "name": "G4",
          "ticks": 40560,
          "time": 53.3684255,
          "velocity": 0.7952755905511811
        },
        {
          "duration": 0.06578947916666777,
          "durationTicks": 50,
          "midi": 69,
          "name": "A4",
          "ticks": 40560,
          "time": 53.3684255,
          "velocity": 0.984251968503937
        },
        {
          "duration": 0.11447369374999994,
          "durationTicks": 87,
          "midi": 76,
          "name": "E5",
          "ticks": 40560,
          "time": 53.3684255,
          "velocity": 0.8267716535433071
        },
        {
          "duration": 0.37500003124999637,
          "durationTicks": 285,
          "midi": 61,
          "name": "C#4",
          "ticks": 40800,
          "time": 53.684215,
          "velocity": 0.7716535433070866
        },
        {
          "duration": 0.1842105416666726,
          "durationTicks": 140,
          "midi": 69,
          "name": "A4",
          "ticks": 40920,
          "time": 53.84210975,
          "velocity": 0.889763779527559
        },
        {
          "duration": 0.35000002916665807,
          "durationTicks": 266,
          "midi": 62,
          "name": "D4",
          "ticks": 41040,
          "time": 54.0000045,
          "velocity": 0.7559055118110236
        },
        {
          "duration": 0.08289474374999628,
          "durationTicks": 63,
          "midi": 67,
          "name": "G4",
          "ticks": 41040,
          "time": 54.0000045,
          "velocity": 0.7165354330708661
        },
        {
          "duration": 0.769736906250003,
          "durationTicks": 585,
          "midi": 50,
          "name": "D3",
          "ticks": 41280,
          "time": 54.315794,
          "velocity": 0.8661417322834646
        },
        {
          "duration": 0.497368462499999,
          "durationTicks": 378,
          "midi": 66,
          "name": "F#4",
          "ticks": 41280,
          "time": 54.315794,
          "velocity": 0.7401574803149606
        },
        {
          "duration": 0.6842105833333321,
          "durationTicks": 520,
          "midi": 57,
          "name": "A3",
          "ticks": 41520,
          "time": 54.6315835,
          "velocity": 0.5511811023622047
        },
        {
          "duration": 0.36578950416667055,
          "durationTicks": 278,
          "midi": 62,
          "name": "D4",
          "ticks": 41760,
          "time": 54.947373,
          "velocity": 0.8267716535433071
        },
        {
          "duration": 0.3644737145833332,
          "durationTicks": 277,
          "midi": 66,
          "name": "F#4",
          "ticks": 41760,
          "time": 54.947373,
          "velocity": 0.8661417322834646
        },
        {
          "duration": 0.35263160833333984,
          "durationTicks": 268,
          "midi": 69,
          "name": "A4",
          "ticks": 41760,
          "time": 54.947373,
          "velocity": 0.9763779527559056
        },
        {
          "duration": 0.18289475208333528,
          "durationTicks": 139,
          "midi": 50,
          "name": "D3",
          "ticks": 42000,
          "time": 55.2631625,
          "velocity": 0.9763779527559056
        },
        {
          "duration": 0.7671053270833355,
          "durationTicks": 583,
          "midi": 50,
          "name": "D3",
          "ticks": 42240,
          "time": 55.578952,
          "velocity": 1
        },
        {
          "duration": 0.6986842687500001,
          "durationTicks": 531,
          "midi": 57,
          "name": "A3",
          "ticks": 42480,
          "time": 55.8947415,
          "velocity": 0.5984251968503937
        },
        {
          "duration": 0.26184212708333376,
          "durationTicks": 199,
          "midi": 78,
          "name": "F#5",
          "ticks": 42480,
          "time": 55.8947415,
          "velocity": 0.7952755905511811
        },
        {
          "duration": 0.4565789854166624,
          "durationTicks": 347,
          "midi": 62,
          "name": "D4",
          "ticks": 42720,
          "time": 56.210531,
          "velocity": 0.7716535433070866
        },
        {
          "duration": 0.5947368916666633,
          "durationTicks": 452,
          "midi": 78,
          "name": "F#5",
          "ticks": 42720,
          "time": 56.210531,
          "velocity": 0.8661417322834646
        },
        {
          "duration": 0.0960526395833412,
          "durationTicks": 73,
          "midi": 50,
          "name": "D3",
          "ticks": 42960,
          "time": 56.5263205,
          "velocity": 0.889763779527559
        },
        {
          "duration": 0.21973686041666696,
          "durationTicks": 167,
          "midi": 74,
          "name": "D5",
          "ticks": 42960,
          "time": 56.5263205,
          "velocity": 0.7716535433070866
        },
        {
          "duration": 0.9828948187500046,
          "durationTicks": 747,
          "midi": 55,
          "name": "G3",
          "ticks": 43200,
          "time": 56.84211,
          "velocity": 0.7165354330708661
        },
        {
          "duration": 0.43289477291666856,
          "durationTicks": 329,
          "midi": 71,
          "name": "B4",
          "ticks": 43200,
          "time": 56.84211,
          "velocity": 0.84251968503937
        },
        {
          "duration": 0.45394740625000196,
          "durationTicks": 345,
          "midi": 74,
          "name": "D5",
          "ticks": 43200,
          "time": 56.84211,
          "velocity": 0.889763779527559
        },
        {
          "duration": 0.42894740416666366,
          "durationTicks": 326,
          "midi": 62,
          "name": "D4",
          "ticks": 43440,
          "time": 57.1578995,
          "velocity": 0.5118110236220472
        },
        {
          "duration": 0.4092105604166605,
          "durationTicks": 311,
          "midi": 69,
          "name": "A4",
          "ticks": 43680,
          "time": 57.473689,
          "velocity": 0.7322834645669292
        },
        {
          "duration": 0.12631580000000753,
          "durationTicks": 96,
          "midi": 71,
          "name": "B4",
          "ticks": 43800,
          "time": 57.63158375,
          "velocity": 0.7874015748031497
        },
        {
          "duration": 0.10394737708333679,
          "durationTicks": 79,
          "midi": 62,
          "name": "D4",
          "ticks": 43920,
          "time": 57.7894785,
          "velocity": 0.48031496062992124
        },
        {
          "duration": 0.28289476041666717,
          "durationTicks": 215,
          "midi": 57,
          "name": "A3",
          "ticks": 44160,
          "time": 58.105268,
          "velocity": 0.7952755905511811
        },
        {
          "duration": 0.2539473895833311,
          "durationTicks": 193,
          "midi": 67,
          "name": "G4",
          "ticks": 44160,
          "time": 58.105268,
          "velocity": 0.7637795275590551
        },
        {
          "duration": 0.24078949374999326,
          "durationTicks": 183,
          "midi": 69,
          "name": "A4",
          "ticks": 44160,
          "time": 58.105268,
          "velocity": 0.905511811023622
        },
        {
          "duration": 0.21973686041665985,
          "durationTicks": 167,
          "midi": 73,
          "name": "C#5",
          "ticks": 44160,
          "time": 58.105268,
          "velocity": 0.968503937007874
        },
        {
          "duration": 0.22236843958334163,
          "durationTicks": 169,
          "midi": 57,
          "name": "A3",
          "ticks": 44640,
          "time": 58.736847,
          "velocity": 0.889763779527559
        },
        {
          "duration": 0.3223684479166735,
          "durationTicks": 245,
          "midi": 67,
          "name": "G4",
          "ticks": 44640,
          "time": 58.736847,
          "velocity": 0.984251968503937
        },
        {
          "duration": 0.2750000229166716,
          "durationTicks": 209,
          "midi": 74,
          "name": "D5",
          "ticks": 44640,
          "time": 58.736847,
          "velocity": 1
        },
        {
          "duration": 0.860526387500002,
          "durationTicks": 654,
          "midi": 50,
          "name": "D3",
          "ticks": 45120,
          "time": 59.368426,
          "velocity": 0.984251968503937
        },
        {
          "duration": 0.8250000687500076,
          "durationTicks": 627,
          "midi": 66,
          "name": "F#4",
          "ticks": 45120,
          "time": 59.368426,
          "velocity": 0.7086614173228346
        },
        {
          "duration": 0.8500000708333317,
          "durationTicks": 646,
          "midi": 69,
          "name": "A4",
          "ticks": 45120,
          "time": 59.368426,
          "velocity": 0.6299212598425197
        },
        {
          "duration": 0.8763158625000003,
          "durationTicks": 666,
          "midi": 74,
          "name": "D5",
          "ticks": 45120,
          "time": 59.368426,
          "velocity": 0.7244094488188977
        }
      ],
      "endOfTrackTicks": 46080
    },
    {
      "channel": 0,
      "controlChanges": {},
      "pitchBends": [],
      "instrument": {
        "family": "piano",
        "number": 0,
        "name": "electric bass (finger)"
      },
      "name": "Inst 2",
      "notes": [
        {
          "duration": 0.15789475000000408,
          "durationTicks": 120,
          "midi": 71,
          "name": "B4",
          "ticks": 30240,
          "time": 39.789477,
          "velocity": 0.6299212598425197
        },
        {
          "duration": 0.15789475000000408,
          "durationTicks": 120,
          "midi": 67,
          "name": "G4",
          "ticks": 30480,
          "time": 40.1052665,
          "velocity": 0.6299212598425197
        },
        {
          "duration": 0.8157895416666676,
          "durationTicks": 620,
          "midi": 69,
          "name": "A4",
          "ticks": 30720,
          "time": 40.421056,
          "velocity": 0.6299212598425197
        },
        {
          "duration": 0.1171052729166675,
          "durationTicks": 89,
          "midi": 69,
          "name": "A4",
          "ticks": 31440,
          "time": 41.3684245,
          "velocity": 0.6299212598425197
        },
        {
          "duration": 0.05263158333332996,
          "durationTicks": 40,
          "midi": 69,
          "name": "A4",
          "ticks": 31560,
          "time": 41.52631925,
          "velocity": 0.6299212598425197
        },
        {
          "duration": 0.39473687499999954,
          "durationTicks": 300,
          "midi": 69,
          "name": "A4",
          "ticks": 31680,
          "time": 41.684214,
          "velocity": 0.6299212598425197
        },
        {
          "duration": 0.15789474999999698,
          "durationTicks": 120,
          "midi": 71,
          "name": "B4",
          "ticks": 32040,
          "time": 42.15789825,
          "velocity": 0.6299212598425197
        },
        {
          "duration": 0.31578950000000106,
          "durationTicks": 240,
          "midi": 71,
          "name": "B4",
          "ticks": 32400,
          "time": 42.6315825,
          "velocity": 0.6299212598425197
        },
        {
          "duration": 0.368421083333331,
          "durationTicks": 280,
          "midi": 73,
          "name": "C#5",
          "ticks": 32640,
          "time": 42.947372,
          "velocity": 0.6299212598425197
        },
        {
          "duration": 0.05263158333332996,
          "durationTicks": 40,
          "midi": 73,
          "name": "C#5",
          "ticks": 33000,
          "time": 43.42105625,
          "velocity": 0.6299212598425197
        },
        {
          "duration": 0.31578949999999395,
          "durationTicks": 240,
          "midi": 73,
          "name": "C#5",
          "ticks": 33120,
          "time": 43.578951,
          "velocity": 0.6299212598425197
        },
        {
          "duration": 0.1171052729166675,
          "durationTicks": 89,
          "midi": 74,
          "name": "D5",
          "ticks": 33360,
          "time": 43.8947405,
          "velocity": 0.6299212598425197
        },
        {
          "duration": 0.05263158333332996,
          "durationTicks": 40,
          "midi": 76,
          "name": "E5",
          "ticks": 33480,
          "time": 44.05263525,
          "velocity": 0.6299212598425197
        },
        {
          "duration": 0.6315790000000021,
          "durationTicks": 480,
          "midi": 69,
          "name": "A4",
          "ticks": 33600,
          "time": 44.21053,
          "velocity": 0.6299212598425197
        },
        {
          "duration": 0.31578950000000106,
          "durationTicks": 240,
          "midi": 69,
          "name": "A4",
          "ticks": 34080,
          "time": 44.842109,
          "velocity": 0.6299212598425197
        },
        {
          "duration": 0.07894737499999849,
          "durationTicks": 60,
          "midi": 62,
          "name": "D4",
          "ticks": 34320,
          "time": 45.1578985,
          "velocity": 0.6299212598425197
        },
        {
          "duration": 0.15789475000000408,
          "durationTicks": 120,
          "midi": 57,
          "name": "A3",
          "ticks": 34440,
          "time": 45.31579325,
          "velocity": 0.6299212598425197
        },
        {
          "duration": 0.8157895416666676,
          "durationTicks": 620,
          "midi": 50,
          "name": "D3",
          "ticks": 34560,
          "time": 45.473688,
          "velocity": 0.6299212598425197
        },
        {
          "duration": 0.1171052729166675,
          "durationTicks": 89,
          "midi": 50,
          "name": "D3",
          "ticks": 35280,
          "time": 46.4210565,
          "velocity": 0.6299212598425197
        },
        {
          "duration": 0.0460526354166646,
          "durationTicks": 35,
          "midi": 50,
          "name": "D3",
          "ticks": 35400,
          "time": 46.57895125,
          "velocity": 0.6299212598425197
        },
        {
          "duration": 0.9473685000000032,
          "durationTicks": 720,
          "midi": 55,
          "name": "G3",
          "ticks": 35520,
          "time": 46.736846,
          "velocity": 0.6299212598425197
        },
        {
          "duration": 0.31578949999999395,
          "durationTicks": 240,
          "midi": 62,
          "name": "D4",
          "ticks": 36240,
          "time": 47.6842145,
          "velocity": 0.6299212598425197
        },
        {
          "duration": 0.8157895416666747,
          "durationTicks": 620,
          "midi": 57,
          "name": "A3",
          "ticks": 36480,
          "time": 48.000004,
          "velocity": 0.6299212598425197
        },
        {
          "duration": 0.1171052729166675,
          "durationTicks": 89,
          "midi": 57,
          "name": "A3",
          "ticks": 37200,
          "time": 48.9473725,
          "velocity": 0.6299212598425197
        },
        {
          "duration": 0.046052635416671706,
          "durationTicks": 35,
          "midi": 57,
          "name": "A3",
          "ticks": 37320,
          "time": 49.10526725,
          "velocity": 0.6299212598425197
        },
        {
          "duration": 0.31578950000000106,
          "durationTicks": 240,
          "midi": 50,
          "name": "D3",
          "ticks": 37440,
          "time": 49.263162,
          "velocity": 0.6299212598425197
        },
        {
          "duration": 0.07894737499999849,
          "durationTicks": 60,
          "midi": 50,
          "name": "D3",
          "ticks": 37800,
          "time": 49.73684625,
          "velocity": 0.6299212598425197
        },
        {
          "duration": 0.23684212500000257,
          "durationTicks": 180,
          "midi": 50,
          "name": "D3",
          "ticks": 38160,
          "time": 50.2105305,
          "velocity": 0.6299212598425197
        },
        {
          "duration": 0.8157895416666747,
          "durationTicks": 620,
          "midi": 50,
          "name": "D3",
          "ticks": 38400,
          "time": 50.52632,
          "velocity": 0.6299212598425197
        },
        {
          "duration": 0.1171052729166675,
          "durationTicks": 89,
          "midi": 57,
          "name": "A3",
          "ticks": 39120,
          "time": 51.4736885,
          "velocity": 0.6299212598425197
        },
        {
          "duration": 0.05263158333332996,
          "durationTicks": 40,
          "midi": 57,
          "name": "A3",
          "ticks": 39240,
          "time": 51.63158325,
          "velocity": 0.6299212598425197
        },
        {
          "duration": 0.39473687499999954,
          "durationTicks": 300,
          "midi": 55,
          "name": "G3",
          "ticks": 39360,
          "time": 51.789478,
          "velocity": 0.6299212598425197
        },
        {
          "duration": 0.15789475000000408,
          "durationTicks": 120,
          "midi": 59,
          "name": "B3",
          "ticks": 39840,
          "time": 52.421057,
          "velocity": 0.6299212598425197
        },
        {
          "duration": 0.31578950000000106,
          "durationTicks": 240,
          "midi": 59,
          "name": "B3",
          "ticks": 40080,
          "time": 52.7368465,
          "velocity": 0.6299212598425197
        },
        {
          "duration": 0.368421083333331,
          "durationTicks": 280,
          "midi": 61,
          "name": "C#4",
          "ticks": 40320,
          "time": 53.052636,
          "velocity": 0.6299212598425197
        },
        {
          "duration": 0.05263158333332996,
          "durationTicks": 40,
          "midi": 61,
          "name": "C#4",
          "ticks": 40680,
          "time": 53.52632025,
          "velocity": 0.6299212598425197
        },
        {
          "duration": 0.31578950000000106,
          "durationTicks": 240,
          "midi": 61,
          "name": "C#4",
          "ticks": 40800,
          "time": 53.684215,
          "velocity": 0.6299212598425197
        },
        {
          "duration": 0.1171052729166675,
          "durationTicks": 89,
          "midi": 62,
          "name": "D4",
          "ticks": 41040,
          "time": 54.0000045,
          "velocity": 0.6299212598425197
        },
        {
          "duration": 0.05263158333332996,
          "durationTicks": 40,
          "midi": 64,
          "name": "E4",
          "ticks": 41160,
          "time": 54.15789925,
          "velocity": 0.6299212598425197
        },
        {
          "duration": 0.6315790000000021,
          "durationTicks": 480,
          "midi": 50,
          "name": "D3",
          "ticks": 41280,
          "time": 54.315794,
          "velocity": 0.6299212598425197
        },
        {
          "duration": 0.31578950000000106,
          "durationTicks": 240,
          "midi": 50,
          "name": "D3",
          "ticks": 41760,
          "time": 54.947373,
          "velocity": 0.6299212598425197
        },
        {
          "duration": 0.07894737499999849,
          "durationTicks": 60,
          "midi": 62,
          "name": "D4",
          "ticks": 42000,
          "time": 55.2631625,
          "velocity": 0.6299212598425197
        },
        {
          "duration": 0.15789475000000408,
          "durationTicks": 120,
          "midi": 57,
          "name": "A3",
          "ticks": 42120,
          "time": 55.42105725,
          "velocity": 0.6299212598425197
        },
        {
          "duration": 0.8157895416666676,
          "durationTicks": 620,
          "midi": 50,
          "name": "D3",
          "ticks": 42240,
          "time": 55.578952,
          "velocity": 0.6299212598425197
        },
        {
          "duration": 0.1171052729166675,
          "durationTicks": 89,
          "midi": 50,
          "name": "D3",
          "ticks": 42960,
          "time": 56.5263205,
          "velocity": 0.6299212598425197
        },
        {
          "duration": 0.046052635416671706,
          "durationTicks": 35,
          "midi": 50,
          "name": "D3",
          "ticks": 43080,
          "time": 56.68421525,
          "velocity": 0.6299212598425197
        },
        {
          "duration": 0.9473685000000032,
          "durationTicks": 720,
          "midi": 55,
          "name": "G3",
          "ticks": 43200,
          "time": 56.84211,
          "velocity": 0.6299212598425197
        },
        {
          "duration": 0.31578950000000106,
          "durationTicks": 240,
          "midi": 62,
          "name": "D4",
          "ticks": 43920,
          "time": 57.7894785,
          "velocity": 0.6299212598425197
        },
        {
          "duration": 0.8157895416666676,
          "durationTicks": 620,
          "midi": 57,
          "name": "A3",
          "ticks": 44160,
          "time": 58.105268,
          "velocity": 0.6299212598425197
        },
        {
          "duration": 0.1171052729166675,
          "durationTicks": 89,
          "midi": 57,
          "name": "A3",
          "ticks": 44880,
          "time": 59.0526365,
          "velocity": 0.6299212598425197
        },
        {
          "duration": 0.8684211249999976,
          "durationTicks": 660,
          "midi": 50,
          "name": "D3",
          "ticks": 45120,
          "time": 59.368426,
          "velocity": 0.6299212598425197
        }
      ],
      "endOfTrackTicks": 46080
    },
    {
      "channel": 0,
      "controlChanges": {},
      "pitchBends": [],
      "instrument": {
        "family": "piano",
        "number": 0,
        "name": "standard kit"
      },
      "name": "Inst 3",
      "notes": [
        {
          "duration": 0.11710527291666573,
          "durationTicks": 89,
          "midi": 42,
          "name": "F#2",
          "ticks": 7680,
          "time": 10.105264,
          "velocity": 0.889763779527559
        },
        {
          "duration": 0.11710527291666573,
          "durationTicks": 89,
          "midi": 42,
          "name": "F#2",
          "ticks": 7800,
          "time": 10.26315875,
          "velocity": 0.5118110236220472
        },
        {
          "duration": 0.11710527291666573,
          "durationTicks": 89,
          "midi": 42,
          "name": "F#2",
          "ticks": 7920,
          "time": 10.4210535,
          "velocity": 0.6771653543307087
        },
        {
          "duration": 0.11710527291666573,
          "durationTicks": 89,
          "midi": 42,
          "name": "F#2",
          "ticks": 8040,
          "time": 10.57894825,
          "velocity": 0.4094488188976378
        },
        {
          "duration": 0.11710527291666573,
          "durationTicks": 89,
          "midi": 42,
          "name": "F#2",
          "ticks": 8160,
          "time": 10.736843,
          "velocity": 0.889763779527559
        },
        {
          "duration": 0.11710527291666395,
          "durationTicks": 89,
          "midi": 42,
          "name": "F#2",
          "ticks": 8280,
          "time": 10.89473775,
          "velocity": 0.5118110236220472
        },
        {
          "duration": 0.11710527291666573,
          "durationTicks": 89,
          "midi": 46,
          "name": "A#2",
          "ticks": 8400,
          "time": 11.0526325,
          "velocity": 0.937007874015748
        },
        {
          "duration": 0.11710527291666573,
          "durationTicks": 89,
          "midi": 42,
          "name": "F#2",
          "ticks": 8640,
          "time": 11.368422,
          "velocity": 0.889763779527559
        },
        {
          "duration": 0.11710527291666573,
          "durationTicks": 89,
          "midi": 42,
          "name": "F#2",
          "ticks": 8760,
          "time": 11.52631675,
          "velocity": 0.5118110236220472
        },
        {
          "duration": 0.11710527291666573,
          "durationTicks": 89,
          "midi": 42,
          "name": "F#2",
          "ticks": 8880,
          "time": 11.6842115,
          "velocity": 0.6771653543307087
        },
        {
          "duration": 0.11710527291666573,
          "durationTicks": 89,
          "midi": 42,
          "name": "F#2",
          "ticks": 9000,
          "time": 11.84210625,
          "velocity": 0.4094488188976378
        },
        {
          "duration": 0.11710527291666573,
          "durationTicks": 89,
          "midi": 42,
          "name": "F#2",
          "ticks": 9120,
          "time": 12.000001,
          "velocity": 0.889763779527559
        },
        {
          "duration": 0.11710527291666573,
          "durationTicks": 89,
          "midi": 42,
          "name": "F#2",
          "ticks": 9240,
          "time": 12.15789575,
          "velocity": 0.5118110236220472
        },
        {
          "duration": 0.11710527291666573,
          "durationTicks": 89,
          "midi": 42,
          "name": "F#2",
          "ticks": 9360,
          "time": 12.3157905,
          "velocity": 0.6771653543307087
        },
        {
          "duration": 0.11710527291666395,
          "durationTicks": 89,
          "midi": 42,
          "name": "F#2",
          "ticks": 9480,
          "time": 12.47368525,
          "velocity": 0.4094488188976378
        },
        {
          "duration": 0.11710527291666573,
          "durationTicks": 89,
          "midi": 42,
          "name": "F#2",
          "ticks": 9600,
          "time": 12.63158,
          "velocity": 0.889763779527559
        },
        {
          "duration": 0.11710527291666573,
          "durationTicks": 89,
          "midi": 42,
          "name": "F#2",
          "ticks": 9720,
          "time": 12.78947475,
          "velocity": 0.5118110236220472
        },
        {
          "duration": 0.11710527291666573,
          "durationTicks": 89,
          "midi": 42,
          "name": "F#2",
          "ticks": 9840,
          "time": 12.9473695,
          "velocity": 0.6771653543307087
        },
        {
          "duration": 0.11710527291666573,
          "durationTicks": 89,
          "midi": 42,
          "name": "F#2",
          "ticks": 9960,
          "time": 13.10526425,
          "velocity": 0.4094488188976378
        },
        {
          "duration": 0.11710527291666573,
          "durationTicks": 89,
          "midi": 42,
          "name": "F#2",
          "ticks": 10080,
          "time": 13.263159,
          "velocity": 0.889763779527559
        },
        {
          "duration": 0.11710527291666573,
          "durationTicks": 89,
          "midi": 42,
          "name": "F#2",
          "ticks": 10200,
          "time": 13.42105375,
          "velocity": 0.5118110236220472
        },
        {
          "duration": 0.11710527291666573,
          "durationTicks": 89,
          "midi": 46,
          "name": "A#2",
          "ticks": 10320,
          "time": 13.5789485,
          "velocity": 0.937007874015748
        },
        {
          "duration": 0.11710527291666573,
          "durationTicks": 89,
          "midi": 42,
          "name": "F#2",
          "ticks": 10560,
          "time": 13.894738,
          "velocity": 0.889763779527559
        },
        {
          "duration": 0.11710527291666573,
          "durationTicks": 89,
          "midi": 42,
          "name": "F#2",
          "ticks": 10680,
          "time": 14.05263275,
          "velocity": 0.5118110236220472
        },
        {
          "duration": 0.11710527291666573,
          "durationTicks": 89,
          "midi": 42,
          "name": "F#2",
          "ticks": 10800,
          "time": 14.2105275,
          "velocity": 0.6771653543307087
        },
        {
          "duration": 0.11710527291666573,
          "durationTicks": 89,
          "midi": 42,
          "name": "F#2",
          "ticks": 10920,
          "time": 14.36842225,
          "velocity": 0.4094488188976378
        },
        {
          "duration": 0.11710527291666573,
          "durationTicks": 89,
          "midi": 42,
          "name": "F#2",
          "ticks": 11040,
          "time": 14.526317,
          "velocity": 0.889763779527559
        },
        {
          "duration": 0.11710527291666573,
          "durationTicks": 89,
          "midi": 42,
          "name": "F#2",
          "ticks": 11160,
          "time": 14.68421175,
          "velocity": 0.5118110236220472
        },
        {
          "duration": 0.11710527291666573,
          "durationTicks": 89,
          "midi": 42,
          "name": "F#2",
          "ticks": 11280,
          "time": 14.8421065,
          "velocity": 0.6771653543307087
        },
        {
          "duration": 0.11710527291666573,
          "durationTicks": 89,
          "midi": 42,
          "name": "F#2",
          "ticks": 11400,
          "time": 15.00000125,
          "velocity": 0.4094488188976378
        },
        {
          "duration": 0.11710527291666395,
          "durationTicks": 89,
          "midi": 42,
          "name": "F#2",
          "ticks": 11520,
          "time": 15.157896000000001,
          "velocity": 0.889763779527559
        },
        {
          "duration": 0.11710527291666573,
          "durationTicks": 89,
          "midi": 42,
          "name": "F#2",
          "ticks": 11640,
          "time": 15.31579075,
          "velocity": 0.5118110236220472
        },
        {
          "duration": 0.11710527291666573,
          "durationTicks": 89,
          "midi": 42,
          "name": "F#2",
          "ticks": 11760,
          "time": 15.4736855,
          "velocity": 0.6771653543307087
        },
        {
          "duration": 0.11710527291666573,
          "durationTicks": 89,
          "midi": 42,
          "name": "F#2",
          "ticks": 11880,
          "time": 15.63158025,
          "velocity": 0.4094488188976378
        },
        {
          "duration": 0.11710527291666573,
          "durationTicks": 89,
          "midi": 42,
          "name": "F#2",
          "ticks": 12000,
          "time": 15.789475,
          "velocity": 0.889763779527559
        },
        {
          "duration": 0.11710527291666395,
          "durationTicks": 89,
          "midi": 42,
          "name": "F#2",
          "ticks": 12120,
          "time": 15.94736975,
          "velocity": 0.5118110236220472
        },
        {
          "duration": 0.11710527291666395,
          "durationTicks": 89,
          "midi": 42,
          "name": "F#2",
          "ticks": 12240,
          "time": 16.1052645,
          "velocity": 0.7322834645669292
        },
        {
          "duration": 0.11710527291666395,
          "durationTicks": 89,
          "midi": 42,
          "name": "F#2",
          "ticks": 12480,
          "time": 16.421054,
          "velocity": 0.889763779527559
        },
        {
          "duration": 0.1171052729166675,
          "durationTicks": 89,
          "midi": 42,
          "name": "F#2",
          "ticks": 12600,
          "time": 16.57894875,
          "velocity": 0.5118110236220472
        },
        {
          "duration": 0.1171052729166675,
          "durationTicks": 89,
          "midi": 42,
          "name": "F#2",
          "ticks": 12720,
          "time": 16.7368435,
          "velocity": 0.6771653543307087
        },
        {
          "duration": 0.1171052729166675,
          "durationTicks": 89,
          "midi": 42,
          "name": "F#2",
          "ticks": 12840,
          "time": 16.89473825,
          "velocity": 0.4094488188976378
        },
        {
          "duration": 0.11710527291666395,
          "durationTicks": 89,
          "midi": 42,
          "name": "F#2",
          "ticks": 12960,
          "time": 17.052633,
          "velocity": 0.889763779527559
        },
        {
          "duration": 0.11710527291666395,
          "durationTicks": 89,
          "midi": 42,
          "name": "F#2",
          "ticks": 13080,
          "time": 17.21052775,
          "velocity": 0.5118110236220472
        },
        {
          "duration": 0.1171052729166675,
          "durationTicks": 89,
          "midi": 42,
          "name": "F#2",
          "ticks": 13440,
          "time": 17.684212,
          "velocity": 0.889763779527559
        },
        {
          "duration": 0.1171052729166675,
          "durationTicks": 89,
          "midi": 42,
          "name": "F#2",
          "ticks": 13560,
          "time": 17.84210675,
          "velocity": 0.5118110236220472
        },
        {
          "duration": 0.1171052729166675,
          "durationTicks": 89,
          "midi": 42,
          "name": "F#2",
          "ticks": 13680,
          "time": 18.0000015,
          "velocity": 0.6771653543307087
        },
        {
          "duration": 0.11710527291666395,
          "durationTicks": 89,
          "midi": 42,
          "name": "F#2",
          "ticks": 13800,
          "time": 18.15789625,
          "velocity": 0.4094488188976378
        },
        {
          "duration": 0.11710527291666395,
          "durationTicks": 89,
          "midi": 42,
          "name": "F#2",
          "ticks": 13920,
          "time": 18.315791,
          "velocity": 0.889763779527559
        },
        {
          "duration": 0.11710527291666395,
          "durationTicks": 89,
          "midi": 42,
          "name": "F#2",
          "ticks": 14040,
          "time": 18.47368575,
          "velocity": 0.5118110236220472
        },
        {
          "duration": 0.1171052729166675,
          "durationTicks": 89,
          "midi": 42,
          "name": "F#2",
          "ticks": 14160,
          "time": 18.6315805,
          "velocity": 0.6771653543307087
        },
        {
          "duration": 0.1171052729166675,
          "durationTicks": 89,
          "midi": 42,
          "name": "F#2",
          "ticks": 14280,
          "time": 18.78947525,
          "velocity": 0.4094488188976378
        },
        {
          "duration": 0.1171052729166675,
          "durationTicks": 89,
          "midi": 42,
          "name": "F#2",
          "ticks": 14400,
          "time": 18.94737,
          "velocity": 0.889763779527559
        },
        {
          "duration": 0.11710527291666395,
          "durationTicks": 89,
          "midi": 42,
          "name": "F#2",
          "ticks": 14640,
          "time": 19.2631595,
          "velocity": 0.6771653543307087
        },
        {
          "duration": 0.11710527291666395,
          "durationTicks": 89,
          "midi": 42,
          "name": "F#2",
          "ticks": 14760,
          "time": 19.42105425,
          "velocity": 0.4094488188976378
        },
        {
          "duration": 0.11710527291666395,
          "durationTicks": 89,
          "midi": 42,
          "name": "F#2",
          "ticks": 14880,
          "time": 19.578949,
          "velocity": 0.889763779527559
        },
        {
          "duration": 0.1171052729166675,
          "durationTicks": 89,
          "midi": 47,
          "name": "B2",
          "ticks": 29760,
          "time": 39.157898,
          "velocity": 0.889763779527559
        },
        {
          "duration": 0.1171052729166675,
          "durationTicks": 89,
          "midi": 43,
          "name": "G2",
          "ticks": 29880,
          "time": 39.31579275,
          "velocity": 0.889763779527559
        },
        {
          "duration": 0.1171052729166675,
          "durationTicks": 89,
          "midi": 40,
          "name": "E2",
          "ticks": 30000,
          "time": 39.4736875,
          "velocity": 0.6299212598425197
        },
        {
          "duration": 0.1171052729166675,
          "durationTicks": 89,
          "midi": 40,
          "name": "E2",
          "ticks": 30240,
          "time": 39.789477,
          "velocity": 0.6299212598425197
        },
        {
          "duration": 0.1171052729166675,
          "durationTicks": 89,
          "midi": 42,
          "name": "F#2",
          "ticks": 30240,
          "time": 39.789477,
          "velocity": 0.5511811023622047
        },
        {
          "duration": 0.1171052729166675,
          "durationTicks": 89,
          "midi": 36,
          "name": "C2",
          "ticks": 30480,
          "time": 40.1052665,
          "velocity": 0.7874015748031497
        },
        {
          "duration": 0.1171052729166675,
          "durationTicks": 89,
          "midi": 42,
          "name": "F#2",
          "ticks": 30480,
          "time": 40.1052665,
          "velocity": 0.4094488188976378
        },
        {
          "duration": 0.1171052729166675,
          "durationTicks": 89,
          "midi": 40,
          "name": "E2",
          "ticks": 30600,
          "time": 40.26316125,
          "velocity": 0.6299212598425197
        },
        {
          "duration": 0.1171052729166675,
          "durationTicks": 89,
          "midi": 44,
          "name": "G#2",
          "ticks": 30600,
          "time": 40.26316125,
          "velocity": 0.4094488188976378
        },
        {
          "duration": 0.1171052729166675,
          "durationTicks": 89,
          "midi": 36,
          "name": "C2",
          "ticks": 30720,
          "time": 40.421056,
          "velocity": 0.7559055118110236
        },
        {
          "duration": 0.1171052729166675,
          "durationTicks": 89,
          "midi": 42,
          "name": "F#2",
          "ticks": 30720,
          "time": 40.421056,
          "velocity": 0.889763779527559
        },
        {
          "duration": 0.1171052729166675,
          "durationTicks": 89,
          "midi": 42,
          "name": "F#2",
          "ticks": 30840,
          "time": 40.57895075,
          "velocity": 0.5118110236220472
        },
        {
          "duration": 0.1171052729166675,
          "durationTicks": 89,
          "midi": 36,
          "name": "C2",
          "ticks": 30960,
          "time": 40.7368455,
          "velocity": 0.8188976377952756
        },
        {
          "duration": 0.1171052729166675,
          "durationTicks": 89,
          "midi": 42,
          "name": "F#2",
          "ticks": 30960,
          "time": 40.7368455,
          "velocity": 0.6771653543307087
        },
        {
          "duration": 0.1171052729166675,
          "durationTicks": 89,
          "midi": 42,
          "name": "F#2",
          "ticks": 31080,
          "time": 40.89474025,
          "velocity": 0.4094488188976378
        },
        {
          "duration": 0.1171052729166675,
          "durationTicks": 89,
          "midi": 40,
          "name": "E2",
          "ticks": 31200,
          "time": 41.052635,
          "velocity": 0.8740157480314961
        },
        {
          "duration": 0.1171052729166675,
          "durationTicks": 89,
          "midi": 42,
          "name": "F#2",
          "ticks": 31200,
          "time": 41.052635,
          "velocity": 0.889763779527559
        },
        {
          "duration": 0.1171052729166675,
          "durationTicks": 89,
          "midi": 42,
          "name": "F#2",
          "ticks": 31320,
          "time": 41.21052975,
          "velocity": 0.5118110236220472
        },
        {
          "duration": 0.1171052729166675,
          "durationTicks": 89,
          "midi": 36,
          "name": "C2",
          "ticks": 31440,
          "time": 41.3684245,
          "velocity": 0.8740157480314961
        },
        {
          "duration": 0.1171052729166675,
          "durationTicks": 89,
          "midi": 42,
          "name": "F#2",
          "ticks": 31440,
          "time": 41.3684245,
          "velocity": 0.6771653543307087
        },
        {
          "duration": 0.1171052729166675,
          "durationTicks": 89,
          "midi": 40,
          "name": "E2",
          "ticks": 31560,
          "time": 41.52631925,
          "velocity": 0.7244094488188977
        },
        {
          "duration": 0.1171052729166675,
          "durationTicks": 89,
          "midi": 42,
          "name": "F#2",
          "ticks": 31560,
          "time": 41.52631925,
          "velocity": 0.4094488188976378
        },
        {
          "duration": 0.1171052729166675,
          "durationTicks": 89,
          "midi": 36,
          "name": "C2",
          "ticks": 31680,
          "time": 41.684214,
          "velocity": 0.889763779527559
        },
        {
          "duration": 0.1171052729166675,
          "durationTicks": 89,
          "midi": 42,
          "name": "F#2",
          "ticks": 31680,
          "time": 41.684214,
          "velocity": 0.889763779527559
        },
        {
          "duration": 0.1171052729166675,
          "durationTicks": 89,
          "midi": 42,
          "name": "F#2",
          "ticks": 31800,
          "time": 41.84210875,
          "velocity": 0.5118110236220472
        },
        {
          "duration": 0.1171052729166675,
          "durationTicks": 89,
          "midi": 42,
          "name": "F#2",
          "ticks": 31920,
          "time": 42.0000035,
          "velocity": 0.6771653543307087
        },
        {
          "duration": 0.1171052729166675,
          "durationTicks": 89,
          "midi": 36,
          "name": "C2",
          "ticks": 32040,
          "time": 42.15789825,
          "velocity": 0.8188976377952756
        },
        {
          "duration": 0.1171052729166675,
          "durationTicks": 89,
          "midi": 42,
          "name": "F#2",
          "ticks": 32040,
          "time": 42.15789825,
          "velocity": 0.4094488188976378
        },
        {
          "duration": 0.1171052729166675,
          "durationTicks": 89,
          "midi": 40,
          "name": "E2",
          "ticks": 32160,
          "time": 42.315793,
          "velocity": 0.889763779527559
        },
        {
          "duration": 0.1171052729166675,
          "durationTicks": 89,
          "midi": 42,
          "name": "F#2",
          "ticks": 32160,
          "time": 42.315793,
          "velocity": 0.889763779527559
        },
        {
          "duration": 0.1171052729166675,
          "durationTicks": 89,
          "midi": 42,
          "name": "F#2",
          "ticks": 32280,
          "time": 42.47368775,
          "velocity": 0.5118110236220472
        },
        {
          "duration": 0.1171052729166675,
          "durationTicks": 89,
          "midi": 36,
          "name": "C2",
          "ticks": 32400,
          "time": 42.6315825,
          "velocity": 0.889763779527559
        },
        {
          "duration": 0.1171052729166675,
          "durationTicks": 89,
          "midi": 42,
          "name": "F#2",
          "ticks": 32400,
          "time": 42.6315825,
          "velocity": 0.6771653543307087
        },
        {
          "duration": 0.1171052729166675,
          "durationTicks": 89,
          "midi": 42,
          "name": "F#2",
          "ticks": 32520,
          "time": 42.78947725,
          "velocity": 0.4094488188976378
        },
        {
          "duration": 0.1171052729166675,
          "durationTicks": 89,
          "midi": 36,
          "name": "C2",
          "ticks": 32640,
          "time": 42.947372,
          "velocity": 0.7559055118110236
        },
        {
          "duration": 0.1171052729166675,
          "durationTicks": 89,
          "midi": 42,
          "name": "F#2",
          "ticks": 32640,
          "time": 42.947372,
          "velocity": 0.889763779527559
        },
        {
          "duration": 0.1171052729166675,
          "durationTicks": 89,
          "midi": 42,
          "name": "F#2",
          "ticks": 32760,
          "time": 43.10526675,
          "velocity": 0.5118110236220472
        },
        {
          "duration": 0.1171052729166675,
          "durationTicks": 89,
          "midi": 36,
          "name": "C2",
          "ticks": 32880,
          "time": 43.2631615,
          "velocity": 0.8267716535433071
        },
        {
          "duration": 0.1171052729166675,
          "durationTicks": 89,
          "midi": 42,
          "name": "F#2",
          "ticks": 32880,
          "time": 43.2631615,
          "velocity": 0.6771653543307087
        },
        {
          "duration": 0.1171052729166675,
          "durationTicks": 89,
          "midi": 42,
          "name": "F#2",
          "ticks": 33000,
          "time": 43.42105625,
          "velocity": 0.4094488188976378
        },
        {
          "duration": 0.1171052729166675,
          "durationTicks": 89,
          "midi": 40,
          "name": "E2",
          "ticks": 33120,
          "time": 43.578951,
          "velocity": 0.8740157480314961
        },
        {
          "duration": 0.1171052729166675,
          "durationTicks": 89,
          "midi": 42,
          "name": "F#2",
          "ticks": 33120,
          "time": 43.578951,
          "velocity": 0.889763779527559
        },
        {
          "duration": 0.1171052729166675,
          "durationTicks": 89,
          "midi": 42,
          "name": "F#2",
          "ticks": 33240,
          "time": 43.73684575,
          "velocity": 0.5118110236220472
        },
        {
          "duration": 0.1171052729166675,
          "durationTicks": 89,
          "midi": 36,
          "name": "C2",
          "ticks": 33360,
          "time": 43.8947405,
          "velocity": 0.8740157480314961
        },
        {
          "duration": 0.1171052729166675,
          "durationTicks": 89,
          "midi": 42,
          "name": "F#2",
          "ticks": 33360,
          "time": 43.8947405,
          "velocity": 0.6771653543307087
        },
        {
          "duration": 0.1171052729166675,
          "durationTicks": 89,
          "midi": 40,
          "name": "E2",
          "ticks": 33480,
          "time": 44.05263525,
          "velocity": 0.7244094488188977
        },
        {
          "duration": 0.1171052729166675,
          "durationTicks": 89,
          "midi": 42,
          "name": "F#2",
          "ticks": 33480,
          "time": 44.05263525,
          "velocity": 0.4094488188976378
        },
        {
          "duration": 0.1171052729166675,
          "durationTicks": 89,
          "midi": 36,
          "name": "C2",
          "ticks": 33600,
          "time": 44.21053,
          "velocity": 0.889763779527559
        },
        {
          "duration": 0.1171052729166675,
          "durationTicks": 89,
          "midi": 42,
          "name": "F#2",
          "ticks": 33600,
          "time": 44.21053,
          "velocity": 0.889763779527559
        },
        {
          "duration": 0.1171052729166675,
          "durationTicks": 89,
          "midi": 42,
          "name": "F#2",
          "ticks": 33720,
          "time": 44.36842475,
          "velocity": 0.5118110236220472
        },
        {
          "duration": 0.1171052729166675,
          "durationTicks": 89,
          "midi": 42,
          "name": "F#2",
          "ticks": 33840,
          "time": 44.5263195,
          "velocity": 0.6771653543307087
        },
        {
          "duration": 0.11710527291667461,
          "durationTicks": 89,
          "midi": 42,
          "name": "F#2",
          "ticks": 33960,
          "time": 44.68421425,
          "velocity": 0.4094488188976378
        },
        {
          "duration": 0.1171052729166675,
          "durationTicks": 89,
          "midi": 40,
          "name": "E2",
          "ticks": 34080,
          "time": 44.842109,
          "velocity": 0.889763779527559
        },
        {
          "duration": 0.1171052729166675,
          "durationTicks": 89,
          "midi": 42,
          "name": "F#2",
          "ticks": 34080,
          "time": 44.842109,
          "velocity": 0.889763779527559
        },
        {
          "duration": 0.1171052729166675,
          "durationTicks": 89,
          "midi": 36,
          "name": "C2",
          "ticks": 34200,
          "time": 45.00000375,
          "velocity": 0.889763779527559
        },
        {
          "duration": 0.1171052729166675,
          "durationTicks": 89,
          "midi": 42,
          "name": "F#2",
          "ticks": 34200,
          "time": 45.00000375,
          "velocity": 0.5118110236220472
        },
        {
          "duration": 0.1171052729166675,
          "durationTicks": 89,
          "midi": 42,
          "name": "F#2",
          "ticks": 34320,
          "time": 45.1578985,
          "velocity": 0.6771653543307087
        },
        {
          "duration": 0.1171052729166675,
          "durationTicks": 89,
          "midi": 36,
          "name": "C2",
          "ticks": 34440,
          "time": 45.31579325,
          "velocity": 0.889763779527559
        },
        {
          "duration": 0.1171052729166675,
          "durationTicks": 89,
          "midi": 42,
          "name": "F#2",
          "ticks": 34440,
          "time": 45.31579325,
          "velocity": 0.4094488188976378
        },
        {
          "duration": 0.1171052729166675,
          "durationTicks": 89,
          "midi": 36,
          "name": "C2",
          "ticks": 34560,
          "time": 45.473688,
          "velocity": 0.7559055118110236
        },
        {
          "duration": 0.1171052729166675,
          "durationTicks": 89,
          "midi": 42,
          "name": "F#2",
          "ticks": 34560,
          "time": 45.473688,
          "velocity": 0.889763779527559
        },
        {
          "duration": 0.1171052729166675,
          "durationTicks": 89,
          "midi": 42,
          "name": "F#2",
          "ticks": 34680,
          "time": 45.63158275,
          "velocity": 0.5118110236220472
        },
        {
          "duration": 0.11710527291667461,
          "durationTicks": 89,
          "midi": 36,
          "name": "C2",
          "ticks": 34800,
          "time": 45.7894775,
          "velocity": 0.8110236220472441
        },
        {
          "duration": 0.11710527291667461,
          "durationTicks": 89,
          "midi": 42,
          "name": "F#2",
          "ticks": 34800,
          "time": 45.7894775,
          "velocity": 0.6771653543307087
        },
        {
          "duration": 0.1171052729166675,
          "durationTicks": 89,
          "midi": 42,
          "name": "F#2",
          "ticks": 34920,
          "time": 45.94737225,
          "velocity": 0.4094488188976378
        },
        {
          "duration": 0.1171052729166675,
          "durationTicks": 89,
          "midi": 40,
          "name": "E2",
          "ticks": 35040,
          "time": 46.105267,
          "velocity": 0.8740157480314961
        },
        {
          "duration": 0.1171052729166675,
          "durationTicks": 89,
          "midi": 42,
          "name": "F#2",
          "ticks": 35040,
          "time": 46.105267,
          "velocity": 0.889763779527559
        },
        {
          "duration": 0.1171052729166675,
          "durationTicks": 89,
          "midi": 42,
          "name": "F#2",
          "ticks": 35160,
          "time": 46.26316175,
          "velocity": 0.5118110236220472
        },
        {
          "duration": 0.1171052729166675,
          "durationTicks": 89,
          "midi": 36,
          "name": "C2",
          "ticks": 35280,
          "time": 46.4210565,
          "velocity": 0.8740157480314961
        },
        {
          "duration": 0.1171052729166675,
          "durationTicks": 89,
          "midi": 42,
          "name": "F#2",
          "ticks": 35280,
          "time": 46.4210565,
          "velocity": 0.6771653543307087
        },
        {
          "duration": 0.1171052729166675,
          "durationTicks": 89,
          "midi": 40,
          "name": "E2",
          "ticks": 35400,
          "time": 46.57895125,
          "velocity": 0.7244094488188977
        },
        {
          "duration": 0.1171052729166675,
          "durationTicks": 89,
          "midi": 42,
          "name": "F#2",
          "ticks": 35400,
          "time": 46.57895125,
          "velocity": 0.4094488188976378
        },
        {
          "duration": 0.1171052729166675,
          "durationTicks": 89,
          "midi": 36,
          "name": "C2",
          "ticks": 35520,
          "time": 46.736846,
          "velocity": 0.889763779527559
        },
        {
          "duration": 0.1171052729166675,
          "durationTicks": 89,
          "midi": 42,
          "name": "F#2",
          "ticks": 35520,
          "time": 46.736846,
          "velocity": 0.889763779527559
        },
        {
          "duration": 0.11710527291667461,
          "durationTicks": 89,
          "midi": 42,
          "name": "F#2",
          "ticks": 35640,
          "time": 46.89474075,
          "velocity": 0.5118110236220472
        },
        {
          "duration": 0.1171052729166675,
          "durationTicks": 89,
          "midi": 42,
          "name": "F#2",
          "ticks": 35760,
          "time": 47.0526355,
          "velocity": 0.6771653543307087
        },
        {
          "duration": 0.1171052729166675,
          "durationTicks": 89,
          "midi": 36,
          "name": "C2",
          "ticks": 35880,
          "time": 47.21053025,
          "velocity": 0.8188976377952756
        },
        {
          "duration": 0.1171052729166675,
          "durationTicks": 89,
          "midi": 42,
          "name": "F#2",
          "ticks": 35880,
          "time": 47.21053025,
          "velocity": 0.4094488188976378
        },
        {
          "duration": 0.1171052729166675,
          "durationTicks": 89,
          "midi": 40,
          "name": "E2",
          "ticks": 36000,
          "time": 47.368425,
          "velocity": 0.889763779527559
        },
        {
          "duration": 0.1171052729166675,
          "durationTicks": 89,
          "midi": 42,
          "name": "F#2",
          "ticks": 36000,
          "time": 47.368425,
          "velocity": 0.889763779527559
        },
        {
          "duration": 0.1171052729166675,
          "durationTicks": 89,
          "midi": 42,
          "name": "F#2",
          "ticks": 36120,
          "time": 47.52631975,
          "velocity": 0.5118110236220472
        },
        {
          "duration": 0.1171052729166675,
          "durationTicks": 89,
          "midi": 36,
          "name": "C2",
          "ticks": 36240,
          "time": 47.6842145,
          "velocity": 0.889763779527559
        },
        {
          "duration": 0.1171052729166675,
          "durationTicks": 89,
          "midi": 42,
          "name": "F#2",
          "ticks": 36240,
          "time": 47.6842145,
          "velocity": 0.6771653543307087
        },
        {
          "duration": 0.1171052729166675,
          "durationTicks": 89,
          "midi": 42,
          "name": "F#2",
          "ticks": 36360,
          "time": 47.84210925,
          "velocity": 0.4094488188976378
        },
        {
          "duration": 0.1171052729166675,
          "durationTicks": 89,
          "midi": 36,
          "name": "C2",
          "ticks": 36480,
          "time": 48.000004,
          "velocity": 0.7559055118110236
        },
        {
          "duration": 0.1171052729166675,
          "durationTicks": 89,
          "midi": 42,
          "name": "F#2",
          "ticks": 36480,
          "time": 48.000004,
          "velocity": 0.889763779527559
        },
        {
          "duration": 0.1171052729166675,
          "durationTicks": 89,
          "midi": 42,
          "name": "F#2",
          "ticks": 36600,
          "time": 48.15789875,
          "velocity": 0.5118110236220472
        },
        {
          "duration": 0.1171052729166675,
          "durationTicks": 89,
          "midi": 36,
          "name": "C2",
          "ticks": 36720,
          "time": 48.3157935,
          "velocity": 0.8267716535433071
        },
        {
          "duration": 0.1171052729166675,
          "durationTicks": 89,
          "midi": 42,
          "name": "F#2",
          "ticks": 36720,
          "time": 48.3157935,
          "velocity": 0.6771653543307087
        },
        {
          "duration": 0.1171052729166675,
          "durationTicks": 89,
          "midi": 42,
          "name": "F#2",
          "ticks": 36840,
          "time": 48.47368825,
          "velocity": 0.4094488188976378
        },
        {
          "duration": 0.1171052729166675,
          "durationTicks": 89,
          "midi": 40,
          "name": "E2",
          "ticks": 36960,
          "time": 48.631583,
          "velocity": 0.8740157480314961
        },
        {
          "duration": 0.1171052729166675,
          "durationTicks": 89,
          "midi": 42,
          "name": "F#2",
          "ticks": 36960,
          "time": 48.631583,
          "velocity": 0.889763779527559
        },
        {
          "duration": 0.1171052729166675,
          "durationTicks": 89,
          "midi": 42,
          "name": "F#2",
          "ticks": 37080,
          "time": 48.78947775,
          "velocity": 0.5118110236220472
        },
        {
          "duration": 0.1171052729166675,
          "durationTicks": 89,
          "midi": 36,
          "name": "C2",
          "ticks": 37200,
          "time": 48.9473725,
          "velocity": 0.8740157480314961
        },
        {
          "duration": 0.1171052729166675,
          "durationTicks": 89,
          "midi": 42,
          "name": "F#2",
          "ticks": 37200,
          "time": 48.9473725,
          "velocity": 0.6771653543307087
        },
        {
          "duration": 0.1171052729166675,
          "durationTicks": 89,
          "midi": 40,
          "name": "E2",
          "ticks": 37320,
          "time": 49.10526725,
          "velocity": 0.7244094488188977
        },
        {
          "duration": 0.1171052729166675,
          "durationTicks": 89,
          "midi": 42,
          "name": "F#2",
          "ticks": 37320,
          "time": 49.10526725,
          "velocity": 0.4094488188976378
        },
        {
          "duration": 0.1171052729166675,
          "durationTicks": 89,
          "midi": 36,
          "name": "C2",
          "ticks": 37440,
          "time": 49.263162,
          "velocity": 0.889763779527559
        },
        {
          "duration": 0.1171052729166675,
          "durationTicks": 89,
          "midi": 42,
          "name": "F#2",
          "ticks": 37440,
          "time": 49.263162,
          "velocity": 0.889763779527559
        },
        {
          "duration": 0.1171052729166675,
          "durationTicks": 89,
          "midi": 42,
          "name": "F#2",
          "ticks": 37560,
          "time": 49.42105675,
          "velocity": 0.5118110236220472
        },
        {
          "duration": 0.1171052729166675,
          "durationTicks": 89,
          "midi": 42,
          "name": "F#2",
          "ticks": 37680,
          "time": 49.5789515,
          "velocity": 0.6771653543307087
        },
        {
          "duration": 0.1171052729166675,
          "durationTicks": 89,
          "midi": 42,
          "name": "F#2",
          "ticks": 37800,
          "time": 49.73684625,
          "velocity": 0.4094488188976378
        },
        {
          "duration": 0.1171052729166675,
          "durationTicks": 89,
          "midi": 40,
          "name": "E2",
          "ticks": 37920,
          "time": 49.894741,
          "velocity": 0.889763779527559
        },
        {
          "duration": 0.1171052729166675,
          "durationTicks": 89,
          "midi": 42,
          "name": "F#2",
          "ticks": 37920,
          "time": 49.894741,
          "velocity": 0.889763779527559
        },
        {
          "duration": 0.1171052729166675,
          "durationTicks": 89,
          "midi": 42,
          "name": "F#2",
          "ticks": 38040,
          "time": 50.05263575,
          "velocity": 0.5118110236220472
        },
        {
          "duration": 0.1171052729166675,
          "durationTicks": 89,
          "midi": 36,
          "name": "C2",
          "ticks": 38160,
          "time": 50.2105305,
          "velocity": 0.889763779527559
        },
        {
          "duration": 0.1171052729166675,
          "durationTicks": 89,
          "midi": 42,
          "name": "F#2",
          "ticks": 38160,
          "time": 50.2105305,
          "velocity": 0.6771653543307087
        },
        {
          "duration": 0.1171052729166675,
          "durationTicks": 89,
          "midi": 42,
          "name": "F#2",
          "ticks": 38280,
          "time": 50.36842525,
          "velocity": 0.4094488188976378
        },
        {
          "duration": 0.1171052729166675,
          "durationTicks": 89,
          "midi": 36,
          "name": "C2",
          "ticks": 38400,
          "time": 50.52632,
          "velocity": 0.7559055118110236
        },
        {
          "duration": 0.1171052729166675,
          "durationTicks": 89,
          "midi": 42,
          "name": "F#2",
          "ticks": 38400,
          "time": 50.52632,
          "velocity": 0.889763779527559
        },
        {
          "duration": 0.1171052729166675,
          "durationTicks": 89,
          "midi": 42,
          "name": "F#2",
          "ticks": 38520,
          "time": 50.68421475,
          "velocity": 0.5118110236220472
        },
        {
          "duration": 0.1171052729166675,
          "durationTicks": 89,
          "midi": 36,
          "name": "C2",
          "ticks": 38640,
          "time": 50.8421095,
          "velocity": 0.8267716535433071
        },
        {
          "duration": 0.1171052729166675,
          "durationTicks": 89,
          "midi": 42,
          "name": "F#2",
          "ticks": 38640,
          "time": 50.8421095,
          "velocity": 0.6771653543307087
        },
        {
          "duration": 0.1171052729166675,
          "durationTicks": 89,
          "midi": 42,
          "name": "F#2",
          "ticks": 38760,
          "time": 51.00000425,
          "velocity": 0.4094488188976378
        },
        {
          "duration": 0.1171052729166675,
          "durationTicks": 89,
          "midi": 40,
          "name": "E2",
          "ticks": 38880,
          "time": 51.157899,
          "velocity": 0.8740157480314961
        },
        {
          "duration": 0.1171052729166675,
          "durationTicks": 89,
          "midi": 42,
          "name": "F#2",
          "ticks": 38880,
          "time": 51.157899,
          "velocity": 0.889763779527559
        },
        {
          "duration": 0.1171052729166675,
          "durationTicks": 89,
          "midi": 42,
          "name": "F#2",
          "ticks": 39000,
          "time": 51.31579375,
          "velocity": 0.5118110236220472
        },
        {
          "duration": 0.1171052729166675,
          "durationTicks": 89,
          "midi": 36,
          "name": "C2",
          "ticks": 39120,
          "time": 51.4736885,
          "velocity": 0.8740157480314961
        },
        {
          "duration": 0.1171052729166675,
          "durationTicks": 89,
          "midi": 42,
          "name": "F#2",
          "ticks": 39120,
          "time": 51.4736885,
          "velocity": 0.6771653543307087
        },
        {
          "duration": 0.1171052729166675,
          "durationTicks": 89,
          "midi": 40,
          "name": "E2",
          "ticks": 39240,
          "time": 51.63158325,
          "velocity": 0.7244094488188977
        },
        {
          "duration": 0.1171052729166675,
          "durationTicks": 89,
          "midi": 42,
          "name": "F#2",
          "ticks": 39240,
          "time": 51.63158325,
          "velocity": 0.4094488188976378
        },
        {
          "duration": 0.1171052729166675,
          "durationTicks": 89,
          "midi": 36,
          "name": "C2",
          "ticks": 39360,
          "time": 51.789478,
          "velocity": 0.889763779527559
        },
        {
          "duration": 0.1171052729166675,
          "durationTicks": 89,
          "midi": 42,
          "name": "F#2",
          "ticks": 39360,
          "time": 51.789478,
          "velocity": 0.889763779527559
        },
        {
          "duration": 0.1171052729166675,
          "durationTicks": 89,
          "midi": 42,
          "name": "F#2",
          "ticks": 39480,
          "time": 51.94737275,
          "velocity": 0.5118110236220472
        },
        {
          "duration": 0.1171052729166675,
          "durationTicks": 89,
          "midi": 42,
          "name": "F#2",
          "ticks": 39600,
          "time": 52.105267500000004,
          "velocity": 0.6771653543307087
        },
        {
          "duration": 0.1171052729166675,
          "durationTicks": 89,
          "midi": 36,
          "name": "C2",
          "ticks": 39720,
          "time": 52.26316225,
          "velocity": 0.8188976377952756
        },
        {
          "duration": 0.1171052729166675,
          "durationTicks": 89,
          "midi": 42,
          "name": "F#2",
          "ticks": 39720,
          "time": 52.26316225,
          "velocity": 0.4094488188976378
        },
        {
          "duration": 0.1171052729166675,
          "durationTicks": 89,
          "midi": 40,
          "name": "E2",
          "ticks": 39840,
          "time": 52.421057,
          "velocity": 0.889763779527559
        },
        {
          "duration": 0.1171052729166675,
          "durationTicks": 89,
          "midi": 42,
          "name": "F#2",
          "ticks": 39840,
          "time": 52.421057,
          "velocity": 0.889763779527559
        },
        {
          "duration": 0.1171052729166675,
          "durationTicks": 89,
          "midi": 42,
          "name": "F#2",
          "ticks": 39960,
          "time": 52.57895175,
          "velocity": 0.5118110236220472
        },
        {
          "duration": 0.1171052729166675,
          "durationTicks": 89,
          "midi": 36,
          "name": "C2",
          "ticks": 40080,
          "time": 52.7368465,
          "velocity": 0.889763779527559
        },
        {
          "duration": 0.1171052729166675,
          "durationTicks": 89,
          "midi": 42,
          "name": "F#2",
          "ticks": 40080,
          "time": 52.7368465,
          "velocity": 0.6771653543307087
        },
        {
          "duration": 0.1171052729166675,
          "durationTicks": 89,
          "midi": 42,
          "name": "F#2",
          "ticks": 40200,
          "time": 52.89474125,
          "velocity": 0.4094488188976378
        },
        {
          "duration": 0.1171052729166675,
          "durationTicks": 89,
          "midi": 36,
          "name": "C2",
          "ticks": 40320,
          "time": 53.052636,
          "velocity": 0.7559055118110236
        },
        {
          "duration": 0.1171052729166675,
          "durationTicks": 89,
          "midi": 42,
          "name": "F#2",
          "ticks": 40320,
          "time": 53.052636,
          "velocity": 0.889763779527559
        },
        {
          "duration": 0.11710527291667461,
          "durationTicks": 89,
          "midi": 42,
          "name": "F#2",
          "ticks": 40440,
          "time": 53.21053075,
          "velocity": 0.5118110236220472
        },
        {
          "duration": 0.1171052729166675,
          "durationTicks": 89,
          "midi": 36,
          "name": "C2",
          "ticks": 40560,
          "time": 53.3684255,
          "velocity": 0.8503937007874016
        },
        {
          "duration": 0.1171052729166675,
          "durationTicks": 89,
          "midi": 42,
          "name": "F#2",
          "ticks": 40560,
          "time": 53.3684255,
          "velocity": 0.6771653543307087
        },
        {
          "duration": 0.1171052729166675,
          "durationTicks": 89,
          "midi": 42,
          "name": "F#2",
          "ticks": 40680,
          "time": 53.52632025,
          "velocity": 0.4094488188976378
        },
        {
          "duration": 0.1171052729166675,
          "durationTicks": 89,
          "midi": 40,
          "name": "E2",
          "ticks": 40800,
          "time": 53.684215,
          "velocity": 0.8740157480314961
        },
        {
          "duration": 0.1171052729166675,
          "durationTicks": 89,
          "midi": 42,
          "name": "F#2",
          "ticks": 40800,
          "time": 53.684215,
          "velocity": 0.889763779527559
        },
        {
          "duration": 0.1171052729166675,
          "durationTicks": 89,
          "midi": 42,
          "name": "F#2",
          "ticks": 40920,
          "time": 53.84210975,
          "velocity": 0.5118110236220472
        },
        {
          "duration": 0.1171052729166675,
          "durationTicks": 89,
          "midi": 36,
          "name": "C2",
          "ticks": 41040,
          "time": 54.0000045,
          "velocity": 0.8740157480314961
        },
        {
          "duration": 0.1171052729166675,
          "durationTicks": 89,
          "midi": 42,
          "name": "F#2",
          "ticks": 41040,
          "time": 54.0000045,
          "velocity": 0.6771653543307087
        },
        {
          "duration": 0.1171052729166675,
          "durationTicks": 89,
          "midi": 40,
          "name": "E2",
          "ticks": 41160,
          "time": 54.15789925,
          "velocity": 0.7244094488188977
        },
        {
          "duration": 0.1171052729166675,
          "durationTicks": 89,
          "midi": 42,
          "name": "F#2",
          "ticks": 41160,
          "time": 54.15789925,
          "velocity": 0.4094488188976378
        },
        {
          "duration": 0.11710527291667461,
          "durationTicks": 89,
          "midi": 36,
          "name": "C2",
          "ticks": 41280,
          "time": 54.315794,
          "velocity": 0.889763779527559
        },
        {
          "duration": 0.11710527291667461,
          "durationTicks": 89,
          "midi": 42,
          "name": "F#2",
          "ticks": 41280,
          "time": 54.315794,
          "velocity": 0.889763779527559
        },
        {
          "duration": 0.1171052729166675,
          "durationTicks": 89,
          "midi": 42,
          "name": "F#2",
          "ticks": 41400,
          "time": 54.47368875,
          "velocity": 0.5118110236220472
        },
        {
          "duration": 0.1171052729166675,
          "durationTicks": 89,
          "midi": 42,
          "name": "F#2",
          "ticks": 41520,
          "time": 54.6315835,
          "velocity": 0.6771653543307087
        },
        {
          "duration": 0.1171052729166675,
          "durationTicks": 89,
          "midi": 42,
          "name": "F#2",
          "ticks": 41640,
          "time": 54.78947825,
          "velocity": 0.4094488188976378
        },
        {
          "duration": 0.1171052729166675,
          "durationTicks": 89,
          "midi": 40,
          "name": "E2",
          "ticks": 41760,
          "time": 54.947373,
          "velocity": 0.889763779527559
        },
        {
          "duration": 0.1171052729166675,
          "durationTicks": 89,
          "midi": 42,
          "name": "F#2",
          "ticks": 41760,
          "time": 54.947373,
          "velocity": 0.889763779527559
        },
        {
          "duration": 0.1171052729166675,
          "durationTicks": 89,
          "midi": 36,
          "name": "C2",
          "ticks": 41880,
          "time": 55.10526775,
          "velocity": 0.889763779527559
        },
        {
          "duration": 0.1171052729166675,
          "durationTicks": 89,
          "midi": 42,
          "name": "F#2",
          "ticks": 41880,
          "time": 55.10526775,
          "velocity": 0.5118110236220472
        },
        {
          "duration": 0.1171052729166675,
          "durationTicks": 89,
          "midi": 42,
          "name": "F#2",
          "ticks": 42000,
          "time": 55.2631625,
          "velocity": 0.6771653543307087
        },
        {
          "duration": 0.11710527291667461,
          "durationTicks": 89,
          "midi": 36,
          "name": "C2",
          "ticks": 42120,
          "time": 55.42105725,
          "velocity": 0.889763779527559
        },
        {
          "duration": 0.11710527291667461,
          "durationTicks": 89,
          "midi": 42,
          "name": "F#2",
          "ticks": 42120,
          "time": 55.42105725,
          "velocity": 0.4094488188976378
        },
        {
          "duration": 0.1171052729166675,
          "durationTicks": 89,
          "midi": 36,
          "name": "C2",
          "ticks": 42240,
          "time": 55.578952,
          "velocity": 0.7559055118110236
        },
        {
          "duration": 0.1171052729166675,
          "durationTicks": 89,
          "midi": 42,
          "name": "F#2",
          "ticks": 42240,
          "time": 55.578952,
          "velocity": 0.889763779527559
        },
        {
          "duration": 0.1171052729166675,
          "durationTicks": 89,
          "midi": 42,
          "name": "F#2",
          "ticks": 42360,
          "time": 55.73684675,
          "velocity": 0.5118110236220472
        },
        {
          "duration": 0.1171052729166675,
          "durationTicks": 89,
          "midi": 36,
          "name": "C2",
          "ticks": 42480,
          "time": 55.8947415,
          "velocity": 0.8582677165354331
        },
        {
          "duration": 0.1171052729166675,
          "durationTicks": 89,
          "midi": 42,
          "name": "F#2",
          "ticks": 42480,
          "time": 55.8947415,
          "velocity": 0.6771653543307087
        },
        {
          "duration": 0.1171052729166675,
          "durationTicks": 89,
          "midi": 42,
          "name": "F#2",
          "ticks": 42600,
          "time": 56.05263625,
          "velocity": 0.4094488188976378
        },
        {
          "duration": 0.1171052729166675,
          "durationTicks": 89,
          "midi": 40,
          "name": "E2",
          "ticks": 42720,
          "time": 56.210531,
          "velocity": 0.8740157480314961
        },
        {
          "duration": 0.1171052729166675,
          "durationTicks": 89,
          "midi": 42,
          "name": "F#2",
          "ticks": 42720,
          "time": 56.210531,
          "velocity": 0.889763779527559
        },
        {
          "duration": 0.1171052729166675,
          "durationTicks": 89,
          "midi": 42,
          "name": "F#2",
          "ticks": 42840,
          "time": 56.36842575,
          "velocity": 0.5118110236220472
        },
        {
          "duration": 0.1171052729166675,
          "durationTicks": 89,
          "midi": 36,
          "name": "C2",
          "ticks": 42960,
          "time": 56.5263205,
          "velocity": 0.8740157480314961
        },
        {
          "duration": 0.1171052729166675,
          "durationTicks": 89,
          "midi": 42,
          "name": "F#2",
          "ticks": 42960,
          "time": 56.5263205,
          "velocity": 0.6771653543307087
        },
        {
          "duration": 0.1171052729166675,
          "durationTicks": 89,
          "midi": 40,
          "name": "E2",
          "ticks": 43080,
          "time": 56.68421525,
          "velocity": 0.7244094488188977
        },
        {
          "duration": 0.1171052729166675,
          "durationTicks": 89,
          "midi": 42,
          "name": "F#2",
          "ticks": 43080,
          "time": 56.68421525,
          "velocity": 0.4094488188976378
        },
        {
          "duration": 0.1171052729166675,
          "durationTicks": 89,
          "midi": 36,
          "name": "C2",
          "ticks": 43200,
          "time": 56.84211,
          "velocity": 0.889763779527559
        },
        {
          "duration": 0.1171052729166675,
          "durationTicks": 89,
          "midi": 42,
          "name": "F#2",
          "ticks": 43200,
          "time": 56.84211,
          "velocity": 0.889763779527559
        },
        {
          "duration": 0.1171052729166675,
          "durationTicks": 89,
          "midi": 42,
          "name": "F#2",
          "ticks": 43320,
          "time": 57.00000475,
          "velocity": 0.5118110236220472
        },
        {
          "duration": 0.1171052729166675,
          "durationTicks": 89,
          "midi": 42,
          "name": "F#2",
          "ticks": 43440,
          "time": 57.1578995,
          "velocity": 0.6771653543307087
        },
        {
          "duration": 0.1171052729166675,
          "durationTicks": 89,
          "midi": 36,
          "name": "C2",
          "ticks": 43560,
          "time": 57.31579425,
          "velocity": 0.8188976377952756
        },
        {
          "duration": 0.1171052729166675,
          "durationTicks": 89,
          "midi": 42,
          "name": "F#2",
          "ticks": 43560,
          "time": 57.31579425,
          "velocity": 0.4094488188976378
        },
        {
          "duration": 0.1171052729166675,
          "durationTicks": 89,
          "midi": 40,
          "name": "E2",
          "ticks": 43680,
          "time": 57.473689,
          "velocity": 0.889763779527559
        },
        {
          "duration": 0.1171052729166675,
          "durationTicks": 89,
          "midi": 42,
          "name": "F#2",
          "ticks": 43680,
          "time": 57.473689,
          "velocity": 0.889763779527559
        },
        {
          "duration": 0.1171052729166675,
          "durationTicks": 89,
          "midi": 42,
          "name": "F#2",
          "ticks": 43800,
          "time": 57.63158375,
          "velocity": 0.5118110236220472
        },
        {
          "duration": 0.1171052729166675,
          "durationTicks": 89,
          "midi": 36,
          "name": "C2",
          "ticks": 43920,
          "time": 57.7894785,
          "velocity": 0.889763779527559
        },
        {
          "duration": 0.1171052729166675,
          "durationTicks": 89,
          "midi": 42,
          "name": "F#2",
          "ticks": 43920,
          "time": 57.7894785,
          "velocity": 0.6771653543307087
        },
        {
          "duration": 0.1171052729166675,
          "durationTicks": 89,
          "midi": 42,
          "name": "F#2",
          "ticks": 44040,
          "time": 57.94737325,
          "velocity": 0.4094488188976378
        },
        {
          "duration": 0.1171052729166675,
          "durationTicks": 89,
          "midi": 36,
          "name": "C2",
          "ticks": 44160,
          "time": 58.105268,
          "velocity": 0.7559055118110236
        },
        {
          "duration": 0.1171052729166675,
          "durationTicks": 89,
          "midi": 42,
          "name": "F#2",
          "ticks": 44160,
          "time": 58.105268,
          "velocity": 0.889763779527559
        },
        {
          "duration": 0.1171052729166675,
          "durationTicks": 89,
          "midi": 40,
          "name": "E2",
          "ticks": 44640,
          "time": 58.736847,
          "velocity": 0.8740157480314961
        },
        {
          "duration": 0.1171052729166675,
          "durationTicks": 89,
          "midi": 42,
          "name": "F#2",
          "ticks": 44640,
          "time": 58.736847,
          "velocity": 0.889763779527559
        },
        {
          "duration": 0.1171052729166675,
          "durationTicks": 89,
          "midi": 42,
          "name": "F#2",
          "ticks": 44760,
          "time": 58.89474175,
          "velocity": 0.5118110236220472
        },
        {
          "duration": 0.1171052729166675,
          "durationTicks": 89,
          "midi": 36,
          "name": "C2",
          "ticks": 44880,
          "time": 59.0526365,
          "velocity": 0.8740157480314961
        },
        {
          "duration": 0.1171052729166675,
          "durationTicks": 89,
          "midi": 42,
          "name": "F#2",
          "ticks": 44880,
          "time": 59.0526365,
          "velocity": 0.6771653543307087
        },
        {
          "duration": 0.1171052729166675,
          "durationTicks": 89,
          "midi": 40,
          "name": "E2",
          "ticks": 45000,
          "time": 59.21053125,
          "velocity": 0.7244094488188977
        },
        {
          "duration": 0.1171052729166675,
          "durationTicks": 89,
          "midi": 42,
          "name": "F#2",
          "ticks": 45000,
          "time": 59.21053125,
          "velocity": 0.4094488188976378
        },
        {
          "duration": 0.1171052729166675,
          "durationTicks": 89,
          "midi": 36,
          "name": "C2",
          "ticks": 45120,
          "time": 59.368426,
          "velocity": 0.889763779527559
        },
        {
          "duration": 0.1171052729166675,
          "durationTicks": 89,
          "midi": 49,
          "name": "C#3",
          "ticks": 45120,
          "time": 59.368426,
          "velocity": 0.889763779527559
        }
      ],
      "endOfTrackTicks": 46080
    }
  ]
}