{
    "header": {
      "keySignatures": [
        {
          "key": "C",
          "scale": "major",
          "ticks": 0
        }
      ],
      "meta": [],
      "name": "",
      "ppq": 480,
      "tempos": [
        {
          "bpm": 210.00021000021,
          "ticks": 0
        },
        {
          "bpm": 207.99966720053249,
          "ticks": 732000
        },
        {
          "bpm": 206.0000961333782,
          "ticks": 732480
        },
        {
          "bpm": 203.99975520029375,
          "ticks": 732960
        },
        {
          "bpm": 201.999798000202,
          "ticks": 733440
        },
        {
          "bpm": 201.0003115504829,
          "ticks": 733920
        },
        {
          "bpm": 198.99969486713454,
          "ticks": 734400
        },
        {
          "bpm": 196.9996946504733,
          "ticks": 734880
        },
        {
          "bpm": 195.000195000195,
          "ticks": 735360
        },
        {
          "bpm": 192.99989385005838,
          "ticks": 735840
        },
        {
          "bpm": 191.00007640003057,
          "ticks": 736320
        },
        {
          "bpm": 189.000189000189,
          "ticks": 736800
        },
        {
          "bpm": 186.9997756002693,
          "ticks": 737280
        },
        {
          "bpm": 185.99979540022505,
          "ticks": 737760
        },
        {
          "bpm": 183.99997546666995,
          "ticks": 738240
        },
        {
          "bpm": 182.000182000182,
          "ticks": 738720
        },
        {
          "bpm": 200,
          "ticks": 739200
        },
        {
          "bpm": 210.00021000021,
          "ticks": 754560
        },
        {
          "bpm": 190.0002850004275,
          "ticks": 762240
        },
        {
          "bpm": 180.00018000018,
          "ticks": 764160
        },
        {
          "bpm": 172.00010320006191,
          "ticks": 764640
        },
        {
          "bpm": 165.000165000165,
          "ticks": 765120
        },
        {
          "bpm": 156.9998377668343,
          "ticks": 765600
        },
        {
          "bpm": 160,
          "ticks": 766080
        },
        {
          "bpm": 60,
          "ticks": 768000
        }
      ],
      "timeSignatures": [
        {
          "ticks": 0,
          "timeSignature": [
            4,
            4
          ],
          "measures": 0
        }
      ]
    },
    "tracks": [
      {
        "channel": 0,
        "controlChanges": {},
        "pitchBends": [],
        "instrument": {
          "family": "piano",
          "number": 0,
          "name": "acoustic grand piano"
        },
        "name": "k550_1",
        "notes": [],
        "endOfTrackTicks": 768000
      },
      {
        "channel": 4,
        "controlChanges": {
          "7": [
            {
              "number": 7,
              "ticks": 0,
              "time": 0,
              "value": 0.9921259842519685
            }
          ],
          "10": [
            {
              "number": 10,
              "ticks": 0,
              "time": 0,
              "value": 0.2204724409448819
            }
          ],
          "91": [
            {
              "number": 91,
              "ticks": 0,
              "time": 0,
              "value": 0.5511811023622047
            }
          ]
        },
        "pitchBends": [],
        "instrument": {
          "family": "ensemble",
          "number": 48,
          "name": "string ensemble 1"
        },
        "name": "",
        "notes": [
          {
            "duration": 0.1428569999999998,
            "durationTicks": 240,
            "midi": 75,
            "name": "D#5",
            "ticks": 3360,
            "time": 1.9999980000000002,
            "velocity": 0.5511811023622047
          },
          {
            "duration": 0.11428560000000054,
            "durationTicks": 192,
            "midi": 74,
            "name": "D5",
            "ticks": 3600,
            "time": 2.142855,
            "velocity": 0.5511811023622047
          },
          {
            "duration": 0.2285712000000002,
            "durationTicks": 384,
            "midi": 74,
            "name": "D5",
            "ticks": 3840,
            "time": 2.285712,
            "velocity": 0.5511811023622047
          },
          {
            "duration": 0.1428569999999998,
            "durationTicks": 240,
            "midi": 75,
            "name": "D#5",
            "ticks": 4320,
            "time": 2.571426,
            "velocity": 0.5511811023622047
          },
          {
            "duration": 0.11428560000000054,
            "durationTicks": 192,
            "midi": 74,
            "name": "D5",
            "ticks": 4560,
            "time": 2.714283,
            "velocity": 0.5511811023622047
          },
          {
            "duration": 0.2285712000000002,
            "durationTicks": 384,
            "midi": 74,
            "name": "D5",
            "ticks": 4800,
            "time": 2.8571400000000002,
            "velocity": 0.5511811023622047
          },
          {
            "duration": 0.1428569999999998,
            "durationTicks": 240,
            "midi": 75,
            "name": "D#5",
            "ticks": 5280,
            "time": 3.1428540000000003,
            "velocity": 0.5511811023622047
          },
          {
            "duration": 0.11428560000000054,
            "durationTicks": 192,
            "midi": 74,
            "name": "D5",
            "ticks": 5520,
            "time": 3.285711,
            "velocity": 0.5511811023622047
          },
          {
            "duration": 0.285714,
            "durationTicks": 480,
            "midi": 74,
            "name": "D5",
            "ticks": 5760,
            "time": 3.4285680000000003,
            "velocity": 0.5511811023622047
          },
          {
            "duration": 0.2285712000000002,
            "durationTicks": 384,
            "midi": 82,
            "name": "A#5",
            "ticks": 6240,
            "time": 3.7142820000000003,
            "velocity": 0.5511811023622047
          },
          {
            "duration": 0.14285700000000023,
            "durationTicks": 240,
            "midi": 82,
            "name": "A#5",
            "ticks": 7200,
            "time": 4.28571,
            "velocity": 0.5511811023622047
          },
          {
            "duration": 0.11428560000000054,
            "durationTicks": 192,
            "midi": 81,
            "name": "A5",
            "ticks": 7440,
            "time": 4.428567,
            "velocity": 0.5511811023622047
          },
          {
            "duration": 0.2285712000000002,
            "durationTicks": 384,
            "midi": 79,
            "name": "G5",
            "ticks": 7680,
            "time": 4.571424,
            "velocity": 0.5511811023622047
          },
          {
            "duration": 0.14285699999999935,
            "durationTicks": 240,
            "midi": 79,
            "name": "G5",
            "ticks": 8160,
            "time": 4.857138000000001,
            "velocity": 0.5511811023622047
          },
          {
            "duration": 0.11428559999999965,
            "durationTicks": 192,
            "midi": 77,
            "name": "F5",
            "ticks": 8400,
            "time": 4.999995,
            "velocity": 0.5511811023622047
          },
          {
            "duration": 0.2285712000000002,
            "durationTicks": 384,
            "midi": 75,
            "name": "D#5",
            "ticks": 8640,
            "time": 5.142852,
            "velocity": 0.5511811023622047
          },
          {
            "duration": 0.14285700000000023,
            "durationTicks": 240,
            "midi": 75,
            "name": "D#5",
            "ticks": 9120,
            "time": 5.428566,
            "velocity": 0.5511811023622047
          },
          {
            "duration": 0.11428559999999965,
            "durationTicks": 192,
            "midi": 74,
            "name": "D5",
            "ticks": 9360,
            "time": 5.571423,
            "velocity": 0.5511811023622047
          },
          {
            "duration": 0.2285712000000002,
            "durationTicks": 384,
            "midi": 72,
            "name": "C5",
            "ticks": 9600,
            "time": 5.7142800000000005,
            "velocity": 0.5511811023622047
          },
          {
            "duration": 0.2285712000000002,
            "durationTicks": 384,
            "midi": 72,
            "name": "C5",
            "ticks": 10080,
            "time": 5.999994000000001,
            "velocity": 0.5511811023622047
          },
          {
            "duration": 0.14285700000000023,
            "durationTicks": 240,
            "midi": 74,
            "name": "D5",
            "ticks": 11040,
            "time": 6.571422,
            "velocity": 0.5511811023622047
          },
          {
            "duration": 0.11428559999999965,
            "durationTicks": 192,
            "midi": 72,
            "name": "C5",
            "ticks": 11280,
            "time": 6.714279,
            "velocity": 0.5511811023622047
          },
          {
            "duration": 0.2285712000000002,
            "durationTicks": 384,
            "midi": 72,
            "name": "C5",
            "ticks": 11520,
            "time": 6.857136000000001,
            "velocity": 0.5511811023622047
          },
          {
            "duration": 0.14285699999999935,
            "durationTicks": 240,
            "midi": 74,
            "name": "D5",
            "ticks": 12000,
            "time": 7.142850000000001,
            "velocity": 0.5511811023622047
          },
          {
            "duration": 0.11428559999999965,
            "durationTicks": 192,
            "midi": 72,
            "name": "C5",
            "ticks": 12240,
            "time": 7.285707,
            "velocity": 0.5511811023622047
          },
          {
            "duration": 0.2285712000000002,
            "durationTicks": 384,
            "midi": 72,
            "name": "C5",
            "ticks": 12480,
            "time": 7.428564000000001,
            "velocity": 0.5511811023622047
          },
          {
            "duration": 0.14285700000000023,
            "durationTicks": 240,
            "midi": 74,
            "name": "D5",
            "ticks": 12960,
            "time": 7.714278,
            "velocity": 0.5511811023622047
          },
          {
            "duration": 0.11428559999999965,
            "durationTicks": 192,
            "midi": 72,
            "name": "C5",
            "ticks": 13200,
            "time": 7.857135,
            "velocity": 0.5511811023622047
          },
          {
            "duration": 0.28571400000000047,
            "durationTicks": 480,
            "midi": 72,
            "name": "C5",
            "ticks": 13440,
            "time": 7.999992000000001,
            "velocity": 0.5511811023622047
          },
          {
            "duration": 0.2285711999999993,
            "durationTicks": 384,
            "midi": 81,
            "name": "A5",
            "ticks": 13920,
            "time": 8.285706000000001,
            "velocity": 0.5511811023622047
          },
          {
            "duration": 0.14285700000000112,
            "durationTicks": 240,
            "midi": 81,
            "name": "A5",
            "ticks": 14880,
            "time": 8.857134,
            "velocity": 0.5511811023622047
          },
          {
            "duration": 0.11428559999999877,
            "durationTicks": 192,
            "midi": 79,
            "name": "G5",
            "ticks": 15120,
            "time": 8.999991000000001,
            "velocity": 0.5511811023622047
          },
          {
            "duration": 0.2285711999999993,
            "durationTicks": 384,
            "midi": 78,
            "name": "F#5",
            "ticks": 15360,
            "time": 9.142848,
            "velocity": 0.5511811023622047
          },
          {
            "duration": 0.14285699999999935,
            "durationTicks": 240,
            "midi": 78,
            "name": "F#5",
            "ticks": 15840,
            "time": 9.428562000000001,
            "velocity": 0.5511811023622047
          },
          {
            "duration": 0.11428560000000054,
            "durationTicks": 192,
            "midi": 75,
            "name": "D#5",
            "ticks": 16080,
            "time": 9.571419,
            "velocity": 0.5511811023622047
          },
          {
            "duration": 0.22857119999999753,
            "durationTicks": 384,
            "midi": 74,
            "name": "D5",
            "ticks": 16320,
            "time": 9.714276000000002,
            "velocity": 0.5511811023622047
          },
          {
            "duration": 0.14285700000000112,
            "durationTicks": 240,
            "midi": 74,
            "name": "D5",
            "ticks": 16800,
            "time": 9.99999,
            "velocity": 0.5511811023622047
          },
          {
            "duration": 0.11428559999999877,
            "durationTicks": 192,
            "midi": 72,
            "name": "C5",
            "ticks": 17040,
            "time": 10.142847000000002,
            "velocity": 0.5511811023622047
          },
          {
            "duration": 0.2285711999999993,
            "durationTicks": 384,
            "midi": 70,
            "name": "A#4",
            "ticks": 17280,
            "time": 10.285704,
            "velocity": 0.5511811023622047
          },
          {
            "duration": 0.2285711999999993,
            "durationTicks": 384,
            "midi": 70,
            "name": "A#4",
            "ticks": 17760,
            "time": 10.571418000000001,
            "velocity": 0.5511811023622047
          },
          {
            "duration": 0.14285700000000112,
            "durationTicks": 240,
            "midi": 82,
            "name": "A#5",
            "ticks": 18720,
            "time": 11.142846,
            "velocity": 0.5511811023622047
          },
          {
            "duration": 0.11428559999999877,
            "durationTicks": 192,
            "midi": 81,
            "name": "A5",
            "ticks": 18960,
            "time": 11.285703000000002,
            "velocity": 0.5511811023622047
          },
          {
            "duration": 0.28571400000000047,
            "durationTicks": 480,
            "midi": 81,
            "name": "A5",
            "ticks": 19200,
            "time": 11.428560000000001,
            "velocity": 0.5511811023622047
          },
          {
            "duration": 0.28571400000000047,
            "durationTicks": 480,
            "midi": 84,
            "name": "C6",
            "ticks": 19680,
            "time": 11.714274000000001,
            "velocity": 0.5511811023622047
          },
          {
            "duration": 0.2857139999999987,
            "durationTicks": 480,
            "midi": 78,
            "name": "F#5",
            "ticks": 20160,
            "time": 11.999988000000002,
            "velocity": 0.5511811023622047
          },
          {
            "duration": 0.2285711999999993,
            "durationTicks": 384,
            "midi": 81,
            "name": "A5",
            "ticks": 20640,
            "time": 12.285702,
            "velocity": 0.5511811023622047
          },
          {
            "duration": 0.28571400000000047,
            "durationTicks": 480,
            "midi": 79,
            "name": "G5",
            "ticks": 21120,
            "time": 12.571416000000001,
            "velocity": 0.5511811023622047
          },
          {
            "duration": 0.2285711999999993,
            "durationTicks": 384,
            "midi": 74,
            "name": "D5",
            "ticks": 21600,
            "time": 12.857130000000002,
            "velocity": 0.5511811023622047
          },
          {
            "duration": 0.14285700000000112,
            "durationTicks": 240,
            "midi": 82,
            "name": "A#5",
            "ticks": 22560,
            "time": 13.428558,
            "velocity": 0.5511811023622047
          },
          {
            "duration": 0.11428559999999877,
            "durationTicks": 192,
            "midi": 81,
            "name": "A5",
            "ticks": 22800,
            "time": 13.571415000000002,
            "velocity": 0.5511811023622047
          },
          {
            "duration": 0.28571400000000047,
            "durationTicks": 480,
            "midi": 81,
            "name": "A5",
            "ticks": 23040,
            "time": 13.714272000000001,
            "velocity": 0.5511811023622047
          },
          {
            "duration": 0.28571400000000047,
            "durationTicks": 480,
            "midi": 84,
            "name": "C6",
            "ticks": 23520,
            "time": 13.999986000000002,
            "velocity": 0.5511811023622047
          },
          {
            "duration": 0.2857139999999987,
            "durationTicks": 480,
            "midi": 78,
            "name": "F#5",
            "ticks": 24000,
            "time": 14.285700000000002,
            "velocity": 0.5511811023622047
          },
          {
            "duration": 0.2285711999999993,
            "durationTicks": 384,
            "midi": 81,
            "name": "A5",
            "ticks": 24480,
            "time": 14.571414,
            "velocity": 0.5511811023622047
          },
          {
            "duration": 0.28571400000000047,
            "durationTicks": 480,
            "midi": 79,
            "name": "G5",
            "ticks": 24960,
            "time": 14.857128000000001,
            "velocity": 0.5511811023622047
          },
          {
            "duration": 0.2285711999999993,
            "durationTicks": 384,
            "midi": 82,
            "name": "A#5",
            "ticks": 25440,
            "time": 15.142842000000002,
            "velocity": 0.5511811023622047
          },
          {
            "duration": 0.14285700000000112,
            "durationTicks": 240,
            "midi": 81,
            "name": "A5",
            "ticks": 25920,
            "time": 15.428556,
            "velocity": 0.5511811023622047
          },
          {
            "duration": 0.14285699999999935,
            "durationTicks": 240,
            "midi": 79,
            "name": "G5",
            "ticks": 26160,
            "time": 15.571413000000002,
            "velocity": 0.5511811023622047
          },
          {
            "duration": 0.14285700000000112,
            "durationTicks": 240,
            "midi": 77,
            "name": "F5",
            "ticks": 26400,
            "time": 15.71427,
            "velocity": 0.5511811023622047
          },
          {
            "duration": 0.11428559999999877,
            "durationTicks": 192,
            "midi": 75,
            "name": "D#5",
            "ticks": 26640,
            "time": 15.857127000000002,
            "velocity": 0.5511811023622047
          },
          {
            "duration": 1.1428559999999983,
            "durationTicks": 1920,
            "midi": 74,
            "name": "D5",
            "ticks": 26880,
            "time": 15.999984000000001,
            "velocity": 0.5511811023622047
          },
          {
            "duration": 1.0857132000000007,
            "durationTicks": 1824,
            "midi": 73,
            "name": "C#5",
            "ticks": 28800,
            "time": 17.14284,
            "velocity": 0.5511811023622047
          },
          {
            "duration": 0.4571423999999986,
            "durationTicks": 768,
            "midi": 74,
            "name": "D5",
            "ticks": 30720,
            "time": 18.285696,
            "velocity": 0.5511811023622047
          },
          {
            "duration": 0.10714275000000129,
            "durationTicks": 180,
            "midi": 62,
            "name": "D4",
            "ticks": 32160,
            "time": 19.142838,
            "velocity": 0.8267716535433071
          },
          {
            "duration": 0.10714275000000129,
            "durationTicks": 180,
            "midi": 62,
            "name": "D4",
            "ticks": 32400,
            "time": 19.285695,
            "velocity": 0.8267716535433071
          },
          {
            "duration": 0.45714239999999506,
            "durationTicks": 768,
            "midi": 62,
            "name": "D4",
            "ticks": 32640,
            "time": 19.428552000000003,
            "velocity": 0.8267716535433071
          },
          {
            "duration": 0.10714274999999773,
            "durationTicks": 180,
            "midi": 62,
            "name": "D4",
            "ticks": 34080,
            "time": 20.285694000000003,
            "velocity": 0.8267716535433071
          },
          {
            "duration": 0.10714274999999773,
            "durationTicks": 180,
            "midi": 62,
            "name": "D4",
            "ticks": 34320,
            "time": 20.428551000000002,
            "velocity": 0.8267716535433071
          },
          {
            "duration": 0.4571423999999986,
            "durationTicks": 768,
            "midi": 62,
            "name": "D4",
            "ticks": 34560,
            "time": 20.571408,
            "velocity": 0.8267716535433071
          },
          {
            "duration": 0.10714275000000129,
            "durationTicks": 180,
            "midi": 62,
            "name": "D4",
            "ticks": 36000,
            "time": 21.42855,
            "velocity": 0.8267716535433071
          },
          {
            "duration": 0.10714275000000129,
            "durationTicks": 180,
            "midi": 62,
            "name": "D4",
            "ticks": 36240,
            "time": 21.571407,
            "velocity": 0.8267716535433071
          },
          {
            "duration": 0.21428550000000257,
            "durationTicks": 360,
            "midi": 62,
            "name": "D4",
            "ticks": 36480,
            "time": 21.714264,
            "velocity": 0.8267716535433071
          },
          {
            "duration": 0.10714275000000129,
            "durationTicks": 180,
            "midi": 62,
            "name": "D4",
            "ticks": 36960,
            "time": 21.999978000000002,
            "velocity": 0.8267716535433071
          },
          {
            "duration": 0.10714275000000129,
            "durationTicks": 180,
            "midi": 62,
            "name": "D4",
            "ticks": 37200,
            "time": 22.142835,
            "velocity": 0.8267716535433071
          },
          {
            "duration": 0.21428550000000257,
            "durationTicks": 360,
            "midi": 62,
            "name": "D4",
            "ticks": 37440,
            "time": 22.285692,
            "velocity": 0.8267716535433071
          },
          {
            "duration": 0.10714274999999773,
            "durationTicks": 180,
            "midi": 62,
            "name": "D4",
            "ticks": 37920,
            "time": 22.571406000000003,
            "velocity": 0.8267716535433071
          },
          {
            "duration": 0.10714274999999773,
            "durationTicks": 180,
            "midi": 62,
            "name": "D4",
            "ticks": 38160,
            "time": 22.714263000000003,
            "velocity": 0.8267716535433071
          },
          {
            "duration": 0.4571423999999986,
            "durationTicks": 768,
            "midi": 62,
            "name": "D4",
            "ticks": 38400,
            "time": 22.857120000000002,
            "velocity": 0.8267716535433071
          },
          {
            "duration": 0.14285699999999935,
            "durationTicks": 240,
            "midi": 75,
            "name": "D#5",
            "ticks": 39840,
            "time": 23.714262,
            "velocity": 0.5511811023622047
          },
          {
            "duration": 0.11428560000000232,
            "durationTicks": 192,
            "midi": 74,
            "name": "D5",
            "ticks": 40080,
            "time": 23.857119,
            "velocity": 0.5511811023622047
          },
          {
            "duration": 0.22857119999999753,
            "durationTicks": 384,
            "midi": 74,
            "name": "D5",
            "ticks": 40320,
            "time": 23.999976000000004,
            "velocity": 0.5511811023622047
          },
          {
            "duration": 0.14285699999999935,
            "durationTicks": 240,
            "midi": 75,
            "name": "D#5",
            "ticks": 40800,
            "time": 24.285690000000002,
            "velocity": 0.5511811023622047
          },
          {
            "duration": 0.11428560000000232,
            "durationTicks": 192,
            "midi": 74,
            "name": "D5",
            "ticks": 41040,
            "time": 24.428547000000002,
            "velocity": 0.5511811023622047
          },
          {
            "duration": 0.22857120000000108,
            "durationTicks": 384,
            "midi": 74,
            "name": "D5",
            "ticks": 41280,
            "time": 24.571404,
            "velocity": 0.5511811023622047
          },
          {
            "duration": 0.14285699999999935,
            "durationTicks": 240,
            "midi": 75,
            "name": "D#5",
            "ticks": 41760,
            "time": 24.857118000000003,
            "velocity": 0.5511811023622047
          },
          {
            "duration": 0.11428560000000232,
            "durationTicks": 192,
            "midi": 74,
            "name": "D5",
            "ticks": 42000,
            "time": 24.999975000000003,
            "velocity": 0.5511811023622047
          },
          {
            "duration": 0.2857139999999987,
            "durationTicks": 480,
            "midi": 74,
            "name": "D5",
            "ticks": 42240,
            "time": 25.142832000000002,
            "velocity": 0.5511811023622047
          },
          {
            "duration": 0.22857120000000108,
            "durationTicks": 384,
            "midi": 82,
            "name": "A#5",
            "ticks": 42720,
            "time": 25.428546,
            "velocity": 0.5511811023622047
          },
          {
            "duration": 0.14285699999999935,
            "durationTicks": 240,
            "midi": 82,
            "name": "A#5",
            "ticks": 43680,
            "time": 25.999974,
            "velocity": 0.5511811023622047
          },
          {
            "duration": 0.11428560000000232,
            "durationTicks": 192,
            "midi": 81,
            "name": "A5",
            "ticks": 43920,
            "time": 26.142831,
            "velocity": 0.5511811023622047
          },
          {
            "duration": 0.22857120000000108,
            "durationTicks": 384,
            "midi": 79,
            "name": "G5",
            "ticks": 44160,
            "time": 26.285688,
            "velocity": 0.5511811023622047
          },
          {
            "duration": 0.14285699999999935,
            "durationTicks": 240,
            "midi": 79,
            "name": "G5",
            "ticks": 44640,
            "time": 26.571402000000003,
            "velocity": 0.5511811023622047
          },
          {
            "duration": 0.11428560000000232,
            "durationTicks": 192,
            "midi": 77,
            "name": "F5",
            "ticks": 44880,
            "time": 26.714259000000002,
            "velocity": 0.5511811023622047
          },
          {
            "duration": 0.22857120000000108,
            "durationTicks": 384,
            "midi": 75,
            "name": "D#5",
            "ticks": 45120,
            "time": 26.857116,
            "velocity": 0.5511811023622047
          },
          {
            "duration": 0.14285699999999935,
            "durationTicks": 240,
            "midi": 75,
            "name": "D#5",
            "ticks": 45600,
            "time": 27.142830000000004,
            "velocity": 0.5511811023622047
          },
          {
            "duration": 0.11428560000000232,
            "durationTicks": 192,
            "midi": 74,
            "name": "D5",
            "ticks": 45840,
            "time": 27.285687000000003,
            "velocity": 0.5511811023622047
          },
          {
            "duration": 0.22857119999999753,
            "durationTicks": 384,
            "midi": 72,
            "name": "C5",
            "ticks": 46080,
            "time": 27.428544000000002,
            "velocity": 0.5511811023622047
          },
          {
            "duration": 0.22857120000000108,
            "durationTicks": 384,
            "midi": 72,
            "name": "C5",
            "ticks": 46560,
            "time": 27.714258,
            "velocity": 0.5511811023622047
          },
          {
            "duration": 0.14285699999999935,
            "durationTicks": 240,
            "midi": 77,
            "name": "F5",
            "ticks": 47520,
            "time": 28.285686000000002,
            "velocity": 0.5511811023622047
          },
          {
            "duration": 0.11428560000000232,
            "durationTicks": 192,
            "midi": 75,
            "name": "D#5",
            "ticks": 47760,
            "time": 28.428543,
            "velocity": 0.5511811023622047
          },
          {
            "duration": 0.22857119999999753,
            "durationTicks": 384,
            "midi": 75,
            "name": "D#5",
            "ticks": 48000,
            "time": 28.571400000000004,
            "velocity": 0.5511811023622047
          },
          {
            "duration": 0.14285699999999935,
            "durationTicks": 240,
            "midi": 77,
            "name": "F5",
            "ticks": 48480,
            "time": 28.857114000000003,
            "velocity": 0.5511811023622047
          },
          {
            "duration": 0.11428560000000232,
            "durationTicks": 192,
            "midi": 75,
            "name": "D#5",
            "ticks": 48720,
            "time": 28.999971000000002,
            "velocity": 0.5511811023622047
          },
          {
            "duration": 0.22857120000000108,
            "durationTicks": 384,
            "midi": 75,
            "name": "D#5",
            "ticks": 48960,
            "time": 29.142828,
            "velocity": 0.5511811023622047
          },
          {
            "duration": 0.14285699999999935,
            "durationTicks": 240,
            "midi": 77,
            "name": "F5",
            "ticks": 49440,
            "time": 29.428542000000004,
            "velocity": 0.5511811023622047
          },
          {
            "duration": 0.11428560000000232,
            "durationTicks": 192,
            "midi": 75,
            "name": "D#5",
            "ticks": 49680,
            "time": 29.571399000000003,
            "velocity": 0.5511811023622047
          },
          {
            "duration": 0.2857139999999987,
            "durationTicks": 480,
            "midi": 75,
            "name": "D#5",
            "ticks": 49920,
            "time": 29.714256000000002,
            "velocity": 0.5511811023622047
          },
          {
            "duration": 0.22857120000000108,
            "durationTicks": 384,
            "midi": 84,
            "name": "C6",
            "ticks": 50400,
            "time": 29.99997,
            "velocity": 0.5511811023622047
          },
          {
            "duration": 0.14285699999999935,
            "durationTicks": 240,
            "midi": 84,
            "name": "C6",
            "ticks": 51360,
            "time": 30.571398000000002,
            "velocity": 0.5511811023622047
          },
          {
            "duration": 0.11428560000000232,
            "durationTicks": 192,
            "midi": 82,
            "name": "A#5",
            "ticks": 51600,
            "time": 30.714255,
            "velocity": 0.5511811023622047
          },
          {
            "duration": 0.22857120000000108,
            "durationTicks": 384,
            "midi": 81,
            "name": "A5",
            "ticks": 51840,
            "time": 30.857112,
            "velocity": 0.5511811023622047
          },
          {
            "duration": 0.14285699999999935,
            "durationTicks": 240,
            "midi": 81,
            "name": "A5",
            "ticks": 52320,
            "time": 31.142826000000003,
            "velocity": 0.5511811023622047
          },
          {
            "duration": 0.11428560000000232,
            "durationTicks": 192,
            "midi": 79,
            "name": "G5",
            "ticks": 52560,
            "time": 31.285683000000002,
            "velocity": 0.5511811023622047
          },
          {
            "duration": 0.22857120000000108,
            "durationTicks": 384,
            "midi": 77,
            "name": "F5",
            "ticks": 52800,
            "time": 31.42854,
            "velocity": 0.5511811023622047
          },
          {
            "duration": 0.14285699999999935,
            "durationTicks": 240,
            "midi": 77,
            "name": "F5",
            "ticks": 53280,
            "time": 31.714254000000004,
            "velocity": 0.5511811023622047
          },
          {
            "duration": 0.11428560000000232,
            "durationTicks": 192,
            "midi": 75,
            "name": "D#5",
            "ticks": 53520,
            "time": 31.857111000000003,
            "velocity": 0.5511811023622047
          },
          {
            "duration": 0.9142848000000043,
            "durationTicks": 1536,
            "midi": 70,
            "name": "A#4",
            "ticks": 53760,
            "time": 31.999968000000003,
            "velocity": 0.8267716535433071
          },
          {
            "duration": 0.9142848000000043,
            "durationTicks": 1536,
            "midi": 82,
            "name": "A#5",
            "ticks": 53760,
            "time": 31.999968000000003,
            "velocity": 0.8267716535433071
          },
          {
            "duration": 0.6857135999999997,
            "durationTicks": 1152,
            "midi": 77,
            "name": "F5",
            "ticks": 55680,
            "time": 33.142824000000005,
            "velocity": 0.8267716535433071
          },
          {
            "duration": 0.07857135000000426,
            "durationTicks": 132,
            "midi": 77,
            "name": "F5",
            "ticks": 57360,
            "time": 34.142823,
            "velocity": 0.8267716535433071
          },
          {
            "duration": 0.1571427000000014,
            "durationTicks": 264,
            "midi": 75,
            "name": "D#5",
            "ticks": 57600,
            "time": 34.28568,
            "velocity": 0.8267716535433071
          },
          {
            "duration": 0.1571426999999943,
            "durationTicks": 264,
            "midi": 79,
            "name": "G5",
            "ticks": 58080,
            "time": 34.571394000000005,
            "velocity": 0.8267716535433071
          },
          {
            "duration": 0.1571427000000014,
            "durationTicks": 264,
            "midi": 82,
            "name": "A#5",
            "ticks": 58560,
            "time": 34.857108000000004,
            "velocity": 0.8267716535433071
          },
          {
            "duration": 0.1571427000000014,
            "durationTicks": 264,
            "midi": 74,
            "name": "D5",
            "ticks": 59520,
            "time": 35.428536,
            "velocity": 0.8267716535433071
          },
          {
            "duration": 0.1571427000000014,
            "durationTicks": 264,
            "midi": 77,
            "name": "F5",
            "ticks": 60000,
            "time": 35.71425,
            "velocity": 0.8267716535433071
          },
          {
            "duration": 0.1571426999999943,
            "durationTicks": 264,
            "midi": 82,
            "name": "A#5",
            "ticks": 60480,
            "time": 35.999964000000006,
            "velocity": 0.8267716535433071
          },
          {
            "duration": 0.07857135000000426,
            "durationTicks": 132,
            "midi": 74,
            "name": "D5",
            "ticks": 61200,
            "time": 36.428535000000004,
            "velocity": 0.8267716535433071
          },
          {
            "duration": 0.1571427000000014,
            "durationTicks": 264,
            "midi": 72,
            "name": "C5",
            "ticks": 61440,
            "time": 36.571392,
            "velocity": 0.8267716535433071
          },
          {
            "duration": 0.1571427000000014,
            "durationTicks": 264,
            "midi": 75,
            "name": "D#5",
            "ticks": 61920,
            "time": 36.857106,
            "velocity": 0.8267716535433071
          },
          {
            "duration": 0.15714270000000852,
            "durationTicks": 264,
            "midi": 79,
            "name": "G5",
            "ticks": 62400,
            "time": 37.14282,
            "velocity": 0.8267716535433071
          },
          {
            "duration": 0.1571427000000014,
            "durationTicks": 264,
            "midi": 72,
            "name": "C5",
            "ticks": 62880,
            "time": 37.428534000000006,
            "velocity": 0.8267716535433071
          },
          {
            "duration": 0.1571427000000014,
            "durationTicks": 264,
            "midi": 70,
            "name": "A#4",
            "ticks": 63360,
            "time": 37.714248000000005,
            "velocity": 0.8267716535433071
          },
          {
            "duration": 0.1571427000000014,
            "durationTicks": 264,
            "midi": 74,
            "name": "D5",
            "ticks": 63840,
            "time": 37.999962000000004,
            "velocity": 0.8267716535433071
          },
          {
            "duration": 0.1571427000000014,
            "durationTicks": 264,
            "midi": 77,
            "name": "F5",
            "ticks": 64320,
            "time": 38.285676,
            "velocity": 0.8267716535433071
          },
          {
            "duration": 0.07857135000000426,
            "durationTicks": 132,
            "midi": 77,
            "name": "F5",
            "ticks": 65040,
            "time": 38.714247,
            "velocity": 0.8267716535433071
          },
          {
            "duration": 0.11428559999999521,
            "durationTicks": 192,
            "midi": 76,
            "name": "E5",
            "ticks": 65280,
            "time": 38.85710400000001,
            "velocity": 0.984251968503937
          },
          {
            "duration": 0.11428559999999521,
            "durationTicks": 192,
            "midi": 77,
            "name": "F5",
            "ticks": 65520,
            "time": 38.999961000000006,
            "velocity": 0.8267716535433071
          },
          {
            "duration": 0.11428560000000232,
            "durationTicks": 192,
            "midi": 79,
            "name": "G5",
            "ticks": 65760,
            "time": 39.142818000000005,
            "velocity": 0.8267716535433071
          },
          {
            "duration": 0.11428560000000232,
            "durationTicks": 192,
            "midi": 81,
            "name": "A5",
            "ticks": 66000,
            "time": 39.285675000000005,
            "velocity": 0.8267716535433071
          },
          {
            "duration": 0.11428560000000232,
            "durationTicks": 192,
            "midi": 82,
            "name": "A#5",
            "ticks": 66240,
            "time": 39.428532000000004,
            "velocity": 0.8267716535433071
          },
          {
            "duration": 0.11428560000000232,
            "durationTicks": 192,
            "midi": 84,
            "name": "C6",
            "ticks": 66480,
            "time": 39.571389,
            "velocity": 0.8267716535433071
          },
          {
            "duration": 0.11428560000000232,
            "durationTicks": 192,
            "midi": 85,
            "name": "C#6",
            "ticks": 66720,
            "time": 39.714246,
            "velocity": 0.8267716535433071
          },
          {
            "duration": 0.11428560000000232,
            "durationTicks": 192,
            "midi": 77,
            "name": "F5",
            "ticks": 66960,
            "time": 39.857103,
            "velocity": 0.8267716535433071
          },
          {
            "duration": 0.11428560000000232,
            "durationTicks": 192,
            "midi": 76,
            "name": "E5",
            "ticks": 67200,
            "time": 39.99996,
            "velocity": 0.984251968503937
          },
          {
            "duration": 0.11428560000000232,
            "durationTicks": 192,
            "midi": 77,
            "name": "F5",
            "ticks": 67440,
            "time": 40.142817,
            "velocity": 0.8267716535433071
          },
          {
            "duration": 0.11428560000000232,
            "durationTicks": 192,
            "midi": 79,
            "name": "G5",
            "ticks": 67680,
            "time": 40.285674,
            "velocity": 0.8267716535433071
          },
          {
            "duration": 0.11428559999999521,
            "durationTicks": 192,
            "midi": 81,
            "name": "A5",
            "ticks": 67920,
            "time": 40.42853100000001,
            "velocity": 0.8267716535433071
          },
          {
            "duration": 0.11428560000000232,
            "durationTicks": 192,
            "midi": 82,
            "name": "A#5",
            "ticks": 68160,
            "time": 40.571388000000006,
            "velocity": 0.8267716535433071
          },
          {
            "duration": 0.11428560000000232,
            "durationTicks": 192,
            "midi": 84,
            "name": "C6",
            "ticks": 68400,
            "time": 40.714245000000005,
            "velocity": 0.8267716535433071
          },
          {
            "duration": 0.11428560000000232,
            "durationTicks": 192,
            "midi": 85,
            "name": "C#6",
            "ticks": 68640,
            "time": 40.857102000000005,
            "velocity": 0.8267716535433071
          },
          {
            "duration": 0.11428560000000232,
            "durationTicks": 192,
            "midi": 77,
            "name": "F5",
            "ticks": 68880,
            "time": 40.999959000000004,
            "velocity": 0.8267716535433071
          },
          {
            "duration": 0.11428560000000232,
            "durationTicks": 192,
            "midi": 76,
            "name": "E5",
            "ticks": 69120,
            "time": 41.142816,
            "velocity": 0.984251968503937
          },
          {
            "duration": 0.11428560000000232,
            "durationTicks": 192,
            "midi": 77,
            "name": "F5",
            "ticks": 69360,
            "time": 41.285673,
            "velocity": 0.8267716535433071
          },
          {
            "duration": 0.11428560000000232,
            "durationTicks": 192,
            "midi": 79,
            "name": "G5",
            "ticks": 69600,
            "time": 41.42853,
            "velocity": 0.8267716535433071
          },
          {
            "duration": 0.11428560000000232,
            "durationTicks": 192,
            "midi": 81,
            "name": "A5",
            "ticks": 69840,
            "time": 41.571387,
            "velocity": 0.8267716535433071
          },
          {
            "duration": 0.11428560000000232,
            "durationTicks": 192,
            "midi": 82,
            "name": "A#5",
            "ticks": 70080,
            "time": 41.714244,
            "velocity": 0.8267716535433071
          },
          {
            "duration": 0.11428560000000232,
            "durationTicks": 192,
            "midi": 84,
            "name": "C6",
            "ticks": 70320,
            "time": 41.857101,
            "velocity": 0.8267716535433071
          },
          {
            "duration": 0.11428559999999521,
            "durationTicks": 192,
            "midi": 85,
            "name": "C#6",
            "ticks": 70560,
            "time": 41.99995800000001,
            "velocity": 0.8267716535433071
          },
          {
            "duration": 0.11428560000000232,
            "durationTicks": 192,
            "midi": 77,
            "name": "F5",
            "ticks": 70800,
            "time": 42.142815000000006,
            "velocity": 0.8267716535433071
          },
          {
            "duration": 0.11428560000000232,
            "durationTicks": 192,
            "midi": 76,
            "name": "E5",
            "ticks": 71040,
            "time": 42.285672000000005,
            "velocity": 0.984251968503937
          },
          {
            "duration": 0.11428560000000232,
            "durationTicks": 192,
            "midi": 77,
            "name": "F5",
            "ticks": 71280,
            "time": 42.428529000000005,
            "velocity": 0.8267716535433071
          },
          {
            "duration": 0.11428560000000232,
            "durationTicks": 192,
            "midi": 79,
            "name": "G5",
            "ticks": 71520,
            "time": 42.571386000000004,
            "velocity": 0.8267716535433071
          },
          {
            "duration": 0.11428560000000232,
            "durationTicks": 192,
            "midi": 81,
            "name": "A5",
            "ticks": 71760,
            "time": 42.714243,
            "velocity": 0.8267716535433071
          },
          {
            "duration": 0.11428560000000232,
            "durationTicks": 192,
            "midi": 82,
            "name": "A#5",
            "ticks": 72000,
            "time": 42.8571,
            "velocity": 0.8267716535433071
          },
          {
            "duration": 0.11428560000000232,
            "durationTicks": 192,
            "midi": 84,
            "name": "C6",
            "ticks": 72240,
            "time": 42.999957,
            "velocity": 0.8267716535433071
          },
          {
            "duration": 0.11428560000000232,
            "durationTicks": 192,
            "midi": 85,
            "name": "C#6",
            "ticks": 72480,
            "time": 43.142814,
            "velocity": 0.8267716535433071
          },
          {
            "duration": 0.11428560000000232,
            "durationTicks": 192,
            "midi": 76,
            "name": "E5",
            "ticks": 72720,
            "time": 43.285671,
            "velocity": 0.8267716535433071
          },
          {
            "duration": 0.45714240000000217,
            "durationTicks": 768,
            "midi": 77,
            "name": "F5",
            "ticks": 72960,
            "time": 43.428528,
            "velocity": 0.8267716535433071
          },
          {
            "duration": 0.17142839999999637,
            "durationTicks": 288,
            "midi": 84,
            "name": "C6",
            "ticks": 73920,
            "time": 43.999956000000005,
            "velocity": 0.8267716535433071
          },
          {
            "duration": 0.17142839999999637,
            "durationTicks": 288,
            "midi": 81,
            "name": "A5",
            "ticks": 74400,
            "time": 44.28567,
            "velocity": 0.8267716535433071
          },
          {
            "duration": 0.45714240000000217,
            "durationTicks": 768,
            "midi": 85,
            "name": "C#6",
            "ticks": 74880,
            "time": 44.571384,
            "velocity": 0.8267716535433071
          },
          {
            "duration": 0.17142839999999637,
            "durationTicks": 288,
            "midi": 76,
            "name": "E5",
            "ticks": 75840,
            "time": 45.142812000000006,
            "velocity": 0.8267716535433071
          },
          {
            "duration": 0.17142839999999637,
            "durationTicks": 288,
            "midi": 79,
            "name": "G5",
            "ticks": 76320,
            "time": 45.428526000000005,
            "velocity": 0.8267716535433071
          },
          {
            "duration": 0.45714239999999506,
            "durationTicks": 768,
            "midi": 77,
            "name": "F5",
            "ticks": 76800,
            "time": 45.714240000000004,
            "velocity": 0.8267716535433071
          },
          {
            "duration": 0.11428560000000232,
            "durationTicks": 192,
            "midi": 84,
            "name": "C6",
            "ticks": 77760,
            "time": 46.285668,
            "velocity": 0.8267716535433071
          },
          {
            "duration": 0.11428560000000232,
            "durationTicks": 192,
            "midi": 81,
            "name": "A5",
            "ticks": 78000,
            "time": 46.428525,
            "velocity": 0.8267716535433071
          },
          {
            "duration": 0.11428559999999521,
            "durationTicks": 192,
            "midi": 84,
            "name": "C6",
            "ticks": 78240,
            "time": 46.57138200000001,
            "velocity": 0.8267716535433071
          },
          {
            "duration": 0.11428560000000232,
            "durationTicks": 192,
            "midi": 81,
            "name": "A5",
            "ticks": 78480,
            "time": 46.714239000000006,
            "velocity": 0.8267716535433071
          },
          {
            "duration": 0.11428560000000232,
            "durationTicks": 192,
            "midi": 85,
            "name": "C#6",
            "ticks": 78720,
            "time": 46.857096000000006,
            "velocity": 0.8267716535433071
          },
          {
            "duration": 0.11428560000000232,
            "durationTicks": 192,
            "midi": 82,
            "name": "A#5",
            "ticks": 78960,
            "time": 46.999953000000005,
            "velocity": 0.8267716535433071
          },
          {
            "duration": 0.11428560000000232,
            "durationTicks": 192,
            "midi": 85,
            "name": "C#6",
            "ticks": 79200,
            "time": 47.142810000000004,
            "velocity": 0.8267716535433071
          },
          {
            "duration": 0.11428560000000232,
            "durationTicks": 192,
            "midi": 82,
            "name": "A#5",
            "ticks": 79440,
            "time": 47.285667000000004,
            "velocity": 0.8267716535433071
          },
          {
            "duration": 0.11428560000000232,
            "durationTicks": 192,
            "midi": 76,
            "name": "E5",
            "ticks": 79680,
            "time": 47.428524,
            "velocity": 0.8267716535433071
          },
          {
            "duration": 0.11428560000000232,
            "durationTicks": 192,
            "midi": 79,
            "name": "G5",
            "ticks": 79920,
            "time": 47.571381,
            "velocity": 0.8267716535433071
          },
          {
            "duration": 0.11428560000000232,
            "durationTicks": 192,
            "midi": 76,
            "name": "E5",
            "ticks": 80160,
            "time": 47.714238,
            "velocity": 0.8267716535433071
          },
          {
            "duration": 0.11428560000000232,
            "durationTicks": 192,
            "midi": 79,
            "name": "G5",
            "ticks": 80400,
            "time": 47.857095,
            "velocity": 0.8267716535433071
          },
          {
            "duration": 0.22857119999999753,
            "durationTicks": 384,
            "midi": 77,
            "name": "F5",
            "ticks": 80640,
            "time": 47.99995200000001,
            "velocity": 0.8267716535433071
          },
          {
            "duration": 0.22857120000000464,
            "durationTicks": 384,
            "midi": 57,
            "name": "A3",
            "ticks": 81600,
            "time": 48.571380000000005,
            "velocity": 0.7244094488188977
          },
          {
            "duration": 0.22857120000000464,
            "durationTicks": 384,
            "midi": 65,
            "name": "F4",
            "ticks": 81600,
            "time": 48.571380000000005,
            "velocity": 0.7244094488188977
          },
          {
            "duration": 0.8571420000000032,
            "durationTicks": 1440,
            "midi": 77,
            "name": "F5",
            "ticks": 84480,
            "time": 50.285664000000004,
            "velocity": 0.4566929133858268
          },
          {
            "duration": 0.2857139999999987,
            "durationTicks": 480,
            "midi": 76,
            "name": "E5",
            "ticks": 85920,
            "time": 51.14280600000001,
            "velocity": 0.4566929133858268
          },
          {
            "duration": 0.22857120000000464,
            "durationTicks": 384,
            "midi": 75,
            "name": "D#5",
            "ticks": 86400,
            "time": 51.428520000000006,
            "velocity": 0.4566929133858268
          },
          {
            "duration": 0.18571409999999844,
            "durationTicks": 312,
            "midi": 70,
            "name": "A#4",
            "ticks": 88800,
            "time": 52.85709000000001,
            "velocity": 0.4566929133858268
          },
          {
            "duration": 0.2857139999999987,
            "durationTicks": 480,
            "midi": 70,
            "name": "A#4",
            "ticks": 89280,
            "time": 53.142804000000005,
            "velocity": 0.4566929133858268
          },
          {
            "duration": 0.22857120000000464,
            "durationTicks": 384,
            "midi": 72,
            "name": "C5",
            "ticks": 89760,
            "time": 53.428518000000004,
            "velocity": 0.4566929133858268
          },
          {
            "duration": 0.42857100000000514,
            "durationTicks": 720,
            "midi": 74,
            "name": "D5",
            "ticks": 90240,
            "time": 53.714232,
            "velocity": 0.4566929133858268
          },
          {
            "duration": 0.14285699999999935,
            "durationTicks": 240,
            "midi": 75,
            "name": "D#5",
            "ticks": 90960,
            "time": 54.14280300000001,
            "velocity": 0.4566929133858268
          },
          {
            "duration": 0.22857119999999753,
            "durationTicks": 384,
            "midi": 72,
            "name": "C5",
            "ticks": 91200,
            "time": 54.28566000000001,
            "velocity": 0.4566929133858268
          },
          {
            "duration": 0.8571420000000032,
            "durationTicks": 1440,
            "midi": 79,
            "name": "G5",
            "ticks": 92160,
            "time": 54.857088000000005,
            "velocity": 0.4566929133858268
          },
          {
            "duration": 0.2857139999999987,
            "durationTicks": 480,
            "midi": 78,
            "name": "F#5",
            "ticks": 93600,
            "time": 55.71423000000001,
            "velocity": 0.4566929133858268
          },
          {
            "duration": 0.2857139999999987,
            "durationTicks": 480,
            "midi": 77,
            "name": "F5",
            "ticks": 94080,
            "time": 55.999944000000006,
            "velocity": 0.4566929133858268
          },
          {
            "duration": 0.2857139999999987,
            "durationTicks": 480,
            "midi": 76,
            "name": "E5",
            "ticks": 94560,
            "time": 56.285658000000005,
            "velocity": 0.4566929133858268
          },
          {
            "duration": 0.2857139999999987,
            "durationTicks": 480,
            "midi": 75,
            "name": "D#5",
            "ticks": 95040,
            "time": 56.571372000000004,
            "velocity": 0.4566929133858268
          },
          {
            "duration": 0.22857120000000464,
            "durationTicks": 384,
            "midi": 74,
            "name": "D5",
            "ticks": 95520,
            "time": 56.857086,
            "velocity": 0.4566929133858268
          },
          {
            "duration": 0.2857139999999987,
            "durationTicks": 480,
            "midi": 72,
            "name": "C5",
            "ticks": 96000,
            "time": 57.14280000000001,
            "velocity": 0.4566929133858268
          },
          {
            "duration": 0.45714239999999506,
            "durationTicks": 768,
            "midi": 75,
            "name": "D#5",
            "ticks": 96480,
            "time": 57.42851400000001,
            "velocity": 0.4566929133858268
          },
          {
            "duration": 0.22857120000000464,
            "durationTicks": 384,
            "midi": 69,
            "name": "A4",
            "ticks": 97440,
            "time": 57.999942000000004,
            "velocity": 0.4566929133858268
          },
          {
            "duration": 0.22857120000000464,
            "durationTicks": 384,
            "midi": 70,
            "name": "A#4",
            "ticks": 97920,
            "time": 58.285656,
            "velocity": 0.4566929133858268
          },
          {
            "duration": 0.8571419999999961,
            "durationTicks": 1440,
            "midi": 75,
            "name": "D#5",
            "ticks": 101760,
            "time": 60.57136800000001,
            "velocity": 0.4566929133858268
          },
          {
            "duration": 0.07142850000000323,
            "durationTicks": 120,
            "midi": 77,
            "name": "F5",
            "ticks": 103200,
            "time": 61.42851,
            "velocity": 0.4566929133858268
          },
          {
            "duration": 0.07142849999999612,
            "durationTicks": 120,
            "midi": 75,
            "name": "D#5",
            "ticks": 103320,
            "time": 61.499938500000006,
            "velocity": 0.4566929133858268
          },
          {
            "duration": 0.07142850000000323,
            "durationTicks": 120,
            "midi": 74,
            "name": "D5",
            "ticks": 103440,
            "time": 61.571367,
            "velocity": 0.4566929133858268
          },
          {
            "duration": 0.07142849999999612,
            "durationTicks": 120,
            "midi": 72,
            "name": "C5",
            "ticks": 103560,
            "time": 61.642795500000005,
            "velocity": 0.4566929133858268
          },
          {
            "duration": 0.22857120000000464,
            "durationTicks": 384,
            "midi": 70,
            "name": "A#4",
            "ticks": 103680,
            "time": 61.714224,
            "velocity": 0.4566929133858268
          },
          {
            "duration": 0.8571419999999961,
            "durationTicks": 1440,
            "midi": 67,
            "name": "G4",
            "ticks": 107520,
            "time": 63.999936000000005,
            "velocity": 0.5511811023622047
          },
          {
            "duration": 0.2857139999999987,
            "durationTicks": 480,
            "midi": 66,
            "name": "F#4",
            "ticks": 108960,
            "time": 64.857078,
            "velocity": 0.5511811023622047
          },
          {
            "duration": 0.2857139999999987,
            "durationTicks": 480,
            "midi": 65,
            "name": "F4",
            "ticks": 109440,
            "time": 65.142792,
            "velocity": 0.5511811023622047
          },
          {
            "duration": 0.2857140000000129,
            "durationTicks": 480,
            "midi": 64,
            "name": "E4",
            "ticks": 109920,
            "time": 65.428506,
            "velocity": 0.5511811023622047
          },
          {
            "duration": 0.2857139999999987,
            "durationTicks": 480,
            "midi": 63,
            "name": "D#4",
            "ticks": 110400,
            "time": 65.71422000000001,
            "velocity": 0.5511811023622047
          },
          {
            "duration": 0.22857120000000464,
            "durationTicks": 384,
            "midi": 62,
            "name": "D4",
            "ticks": 110880,
            "time": 65.99993400000001,
            "velocity": 0.5511811023622047
          },
          {
            "duration": 0.8571419999999961,
            "durationTicks": 1440,
            "midi": 61,
            "name": "C#4",
            "ticks": 111360,
            "time": 66.28564800000001,
            "velocity": 0.4566929133858268
          },
          {
            "duration": 0.22857120000000464,
            "durationTicks": 384,
            "midi": 60,
            "name": "C4",
            "ticks": 112800,
            "time": 67.14279,
            "velocity": 0.4566929133858268
          },
          {
            "duration": 0.8571419999999961,
            "durationTicks": 1440,
            "midi": 61,
            "name": "C#4",
            "ticks": 113280,
            "time": 67.428504,
            "velocity": 0.4566929133858268
          },
          {
            "duration": 0.22857120000000464,
            "durationTicks": 384,
            "midi": 60,
            "name": "C4",
            "ticks": 114720,
            "time": 68.285646,
            "velocity": 0.4566929133858268
          },
          {
            "duration": 0.8571420000000103,
            "durationTicks": 1440,
            "midi": 61,
            "name": "C#4",
            "ticks": 115200,
            "time": 68.57136,
            "velocity": 0.4566929133858268
          },
          {
            "duration": 0.22857120000000464,
            "durationTicks": 384,
            "midi": 60,
            "name": "C4",
            "ticks": 116640,
            "time": 69.42850200000001,
            "velocity": 0.4566929133858268
          },
          {
            "duration": 0.8571419999999961,
            "durationTicks": 1440,
            "midi": 61,
            "name": "C#4",
            "ticks": 117120,
            "time": 69.71421600000001,
            "velocity": 0.4566929133858268
          },
          {
            "duration": 0.22857120000000464,
            "durationTicks": 384,
            "midi": 60,
            "name": "C4",
            "ticks": 118560,
            "time": 70.571358,
            "velocity": 0.4566929133858268
          },
          {
            "duration": 0.12857130000000438,
            "durationTicks": 216,
            "midi": 61,
            "name": "C#4",
            "ticks": 119040,
            "time": 70.857072,
            "velocity": 0.4566929133858268
          },
          {
            "duration": 0.12857129999999017,
            "durationTicks": 216,
            "midi": 73,
            "name": "C#5",
            "ticks": 119280,
            "time": 70.99992900000001,
            "velocity": 0.5511811023622047
          },
          {
            "duration": 0.12857130000000438,
            "durationTicks": 216,
            "midi": 73,
            "name": "C#5",
            "ticks": 119520,
            "time": 71.142786,
            "velocity": 0.5669291338582677
          },
          {
            "duration": 0.12857129999999017,
            "durationTicks": 216,
            "midi": 73,
            "name": "C#5",
            "ticks": 119760,
            "time": 71.28564300000001,
            "velocity": 0.5905511811023622
          },
          {
            "duration": 0.12857130000000438,
            "durationTicks": 216,
            "midi": 73,
            "name": "C#5",
            "ticks": 120000,
            "time": 71.4285,
            "velocity": 0.6141732283464567
          },
          {
            "duration": 0.12857129999999017,
            "durationTicks": 216,
            "midi": 73,
            "name": "C#5",
            "ticks": 120240,
            "time": 71.571357,
            "velocity": 0.6299212598425197
          },
          {
            "duration": 0.12857129999999017,
            "durationTicks": 216,
            "midi": 73,
            "name": "C#5",
            "ticks": 120480,
            "time": 71.71421400000001,
            "velocity": 0.6535433070866141
          },
          {
            "duration": 0.12857130000000438,
            "durationTicks": 216,
            "midi": 73,
            "name": "C#5",
            "ticks": 120720,
            "time": 71.857071,
            "velocity": 0.6771653543307087
          },
          {
            "duration": 0.12857129999999017,
            "durationTicks": 216,
            "midi": 73,
            "name": "C#5",
            "ticks": 120960,
            "time": 71.99992800000001,
            "velocity": 0.6929133858267716
          },
          {
            "duration": 0.12857130000000438,
            "durationTicks": 216,
            "midi": 85,
            "name": "C#6",
            "ticks": 121200,
            "time": 72.142785,
            "velocity": 0.7165354330708661
          },
          {
            "duration": 0.12857129999999017,
            "durationTicks": 216,
            "midi": 85,
            "name": "C#6",
            "ticks": 121440,
            "time": 72.28564200000001,
            "velocity": 0.7401574803149606
          },
          {
            "duration": 0.12857130000000438,
            "durationTicks": 216,
            "midi": 85,
            "name": "C#6",
            "ticks": 121680,
            "time": 72.428499,
            "velocity": 0.7559055118110236
          },
          {
            "duration": 0.12857129999999017,
            "durationTicks": 216,
            "midi": 85,
            "name": "C#6",
            "ticks": 121920,
            "time": 72.57135600000001,
            "velocity": 0.7795275590551181
          },
          {
            "duration": 0.12857130000000438,
            "durationTicks": 216,
            "midi": 85,
            "name": "C#6",
            "ticks": 122160,
            "time": 72.714213,
            "velocity": 0.8031496062992126
          },
          {
            "duration": 0.12857129999999017,
            "durationTicks": 216,
            "midi": 85,
            "name": "C#6",
            "ticks": 122400,
            "time": 72.85707000000001,
            "velocity": 0.8267716535433071
          },
          {
            "duration": 0.12857130000000438,
            "durationTicks": 216,
            "midi": 85,
            "name": "C#6",
            "ticks": 122640,
            "time": 72.999927,
            "velocity": 0.84251968503937
          },
          {
            "duration": 1.0857132000000007,
            "durationTicks": 1824,
            "midi": 86,
            "name": "D6",
            "ticks": 122880,
            "time": 73.142784,
            "velocity": 0.8267716535433071
          },
          {
            "duration": 0.07142850000001033,
            "durationTicks": 120,
            "midi": 82,
            "name": "A#5",
            "ticks": 124800,
            "time": 74.28564,
            "velocity": 0.8267716535433071
          },
          {
            "duration": 0.07142849999999612,
            "durationTicks": 120,
            "midi": 81,
            "name": "A5",
            "ticks": 124920,
            "time": 74.35706850000001,
            "velocity": 0.8267716535433071
          },
          {
            "duration": 0.07142849999999612,
            "durationTicks": 120,
            "midi": 82,
            "name": "A#5",
            "ticks": 125040,
            "time": 74.42849700000001,
            "velocity": 0.8267716535433071
          },
          {
            "duration": 0.07142849999999612,
            "durationTicks": 120,
            "midi": 81,
            "name": "A5",
            "ticks": 125160,
            "time": 74.4999255,
            "velocity": 0.8267716535433071
          },
          {
            "duration": 0.07142850000001033,
            "durationTicks": 120,
            "midi": 82,
            "name": "A#5",
            "ticks": 125280,
            "time": 74.571354,
            "velocity": 0.8267716535433071
          },
          {
            "duration": 0.07142849999999612,
            "durationTicks": 120,
            "midi": 81,
            "name": "A5",
            "ticks": 125400,
            "time": 74.64278250000001,
            "velocity": 0.8267716535433071
          },
          {
            "duration": 0.07142849999999612,
            "durationTicks": 120,
            "midi": 82,
            "name": "A#5",
            "ticks": 125520,
            "time": 74.714211,
            "velocity": 0.8267716535433071
          },
          {
            "duration": 0.07142850000001033,
            "durationTicks": 120,
            "midi": 81,
            "name": "A5",
            "ticks": 125640,
            "time": 74.7856395,
            "velocity": 0.8267716535433071
          },
          {
            "duration": 0.07142849999999612,
            "durationTicks": 120,
            "midi": 82,
            "name": "A#5",
            "ticks": 125760,
            "time": 74.85706800000001,
            "velocity": 0.8267716535433071
          },
          {
            "duration": 0.07142849999999612,
            "durationTicks": 120,
            "midi": 81,
            "name": "A5",
            "ticks": 125880,
            "time": 74.92849650000001,
            "velocity": 0.8267716535433071
          },
          {
            "duration": 0.07142849999999612,
            "durationTicks": 120,
            "midi": 82,
            "name": "A#5",
            "ticks": 126000,
            "time": 74.999925,
            "velocity": 0.8267716535433071
          },
          {
            "duration": 0.07142850000001033,
            "durationTicks": 120,
            "midi": 81,
            "name": "A5",
            "ticks": 126120,
            "time": 75.0713535,
            "velocity": 0.8267716535433071
          },
          {
            "duration": 0.07142849999999612,
            "durationTicks": 120,
            "midi": 82,
            "name": "A#5",
            "ticks": 126240,
            "time": 75.14278200000001,
            "velocity": 0.8267716535433071
          },
          {
            "duration": 0.07142849999999612,
            "durationTicks": 120,
            "midi": 81,
            "name": "A5",
            "ticks": 126360,
            "time": 75.21421050000001,
            "velocity": 0.8267716535433071
          },
          {
            "duration": 0.07142849999999612,
            "durationTicks": 120,
            "midi": 79,
            "name": "G5",
            "ticks": 126480,
            "time": 75.285639,
            "velocity": 0.8267716535433071
          },
          {
            "duration": 0.07142850000001033,
            "durationTicks": 120,
            "midi": 81,
            "name": "A5",
            "ticks": 126600,
            "time": 75.3570675,
            "velocity": 0.8267716535433071
          },
          {
            "duration": 0.22857120000000464,
            "durationTicks": 384,
            "midi": 82,
            "name": "A#5",
            "ticks": 126720,
            "time": 75.42849600000001,
            "velocity": 0.7244094488188977
          },
          {
            "duration": 0.11428559999998811,
            "durationTicks": 192,
            "midi": 62,
            "name": "D4",
            "ticks": 127200,
            "time": 75.71421000000001,
            "velocity": 0.984251968503937
          },
          {
            "duration": 0.11428560000000232,
            "durationTicks": 192,
            "midi": 62,
            "name": "D4",
            "ticks": 127440,
            "time": 75.857067,
            "velocity": 0.8267716535433071
          },
          {
            "duration": 0.11428559999998811,
            "durationTicks": 192,
            "midi": 62,
            "name": "D4",
            "ticks": 127680,
            "time": 75.99992400000001,
            "velocity": 0.8267716535433071
          },
          {
            "duration": 0.11428560000000232,
            "durationTicks": 192,
            "midi": 62,
            "name": "D4",
            "ticks": 127920,
            "time": 76.142781,
            "velocity": 0.8267716535433071
          },
          {
            "duration": 0.11428559999998811,
            "durationTicks": 192,
            "midi": 63,
            "name": "D#4",
            "ticks": 128160,
            "time": 76.285638,
            "velocity": 0.8267716535433071
          },
          {
            "duration": 0.11428559999998811,
            "durationTicks": 192,
            "midi": 63,
            "name": "D#4",
            "ticks": 128400,
            "time": 76.42849500000001,
            "velocity": 0.8267716535433071
          },
          {
            "duration": 0.11428560000000232,
            "durationTicks": 192,
            "midi": 64,
            "name": "E4",
            "ticks": 128640,
            "time": 76.571352,
            "velocity": 0.8267716535433071
          },
          {
            "duration": 0.11428559999998811,
            "durationTicks": 192,
            "midi": 64,
            "name": "E4",
            "ticks": 128880,
            "time": 76.71420900000001,
            "velocity": 0.8267716535433071
          },
          {
            "duration": 0.11428560000000232,
            "durationTicks": 192,
            "midi": 65,
            "name": "F4",
            "ticks": 129120,
            "time": 76.857066,
            "velocity": 0.8267716535433071
          },
          {
            "duration": 0.11428559999998811,
            "durationTicks": 192,
            "midi": 65,
            "name": "F4",
            "ticks": 129360,
            "time": 76.99992300000001,
            "velocity": 0.8267716535433071
          },
          {
            "duration": 0.11428560000000232,
            "durationTicks": 192,
            "midi": 66,
            "name": "F#4",
            "ticks": 129600,
            "time": 77.14278,
            "velocity": 0.8267716535433071
          },
          {
            "duration": 0.11428559999998811,
            "durationTicks": 192,
            "midi": 66,
            "name": "F#4",
            "ticks": 129840,
            "time": 77.28563700000001,
            "velocity": 0.8267716535433071
          },
          {
            "duration": 0.11428560000000232,
            "durationTicks": 192,
            "midi": 67,
            "name": "G4",
            "ticks": 130080,
            "time": 77.428494,
            "velocity": 0.8267716535433071
          },
          {
            "duration": 0.11428559999998811,
            "durationTicks": 192,
            "midi": 67,
            "name": "G4",
            "ticks": 130320,
            "time": 77.571351,
            "velocity": 0.8267716535433071
          },
          {
            "duration": 0.22857119999999043,
            "durationTicks": 384,
            "midi": 68,
            "name": "G#4",
            "ticks": 130560,
            "time": 77.71420800000001,
            "velocity": 0.8267716535433071
          },
          {
            "duration": 0.057142800000008265,
            "durationTicks": 96,
            "midi": 68,
            "name": "G#4",
            "ticks": 131400,
            "time": 78.2142075,
            "velocity": 0.8267716535433071
          },
          {
            "duration": 0.22857120000000464,
            "durationTicks": 384,
            "midi": 67,
            "name": "G4",
            "ticks": 131520,
            "time": 78.28563600000001,
            "velocity": 0.8267716535433071
          },
          {
            "duration": 0.057142799999994054,
            "durationTicks": 96,
            "midi": 67,
            "name": "G4",
            "ticks": 132360,
            "time": 78.78563550000001,
            "velocity": 0.8267716535433071
          },
          {
            "duration": 0.22857120000000464,
            "durationTicks": 384,
            "midi": 75,
            "name": "D#5",
            "ticks": 132480,
            "time": 78.85706400000001,
            "velocity": 0.8267716535433071
          },
          {
            "duration": 0.057142799999994054,
            "durationTicks": 96,
            "midi": 75,
            "name": "D#5",
            "ticks": 133320,
            "time": 79.35706350000001,
            "velocity": 0.8267716535433071
          },
          {
            "duration": 0.22857120000000464,
            "durationTicks": 384,
            "midi": 74,
            "name": "D5",
            "ticks": 133440,
            "time": 79.428492,
            "velocity": 0.8267716535433071
          },
          {
            "duration": 0.057142799999994054,
            "durationTicks": 96,
            "midi": 74,
            "name": "D5",
            "ticks": 134280,
            "time": 79.9284915,
            "velocity": 0.8267716535433071
          },
          {
            "duration": 0.6571422000000098,
            "durationTicks": 1104,
            "midi": 79,
            "name": "G5",
            "ticks": 134400,
            "time": 79.99992,
            "velocity": 0.8267716535433071
          },
          {
            "duration": 0.08571419999999819,
            "durationTicks": 144,
            "midi": 77,
            "name": "F5",
            "ticks": 135600,
            "time": 80.714205,
            "velocity": 0.5511811023622047
          },
          {
            "duration": 0.08571419999999819,
            "durationTicks": 144,
            "midi": 75,
            "name": "D#5",
            "ticks": 135840,
            "time": 80.85706200000001,
            "velocity": 0.5511811023622047
          },
          {
            "duration": 0.08571419999999819,
            "durationTicks": 144,
            "midi": 74,
            "name": "D5",
            "ticks": 136080,
            "time": 80.999919,
            "velocity": 0.5511811023622047
          },
          {
            "duration": 0.08571419999999819,
            "durationTicks": 144,
            "midi": 72,
            "name": "C5",
            "ticks": 136320,
            "time": 81.14277600000001,
            "velocity": 0.5511811023622047
          },
          {
            "duration": 0.0857142000000124,
            "durationTicks": 144,
            "midi": 70,
            "name": "A#4",
            "ticks": 136560,
            "time": 81.285633,
            "velocity": 0.5511811023622047
          },
          {
            "duration": 0.08571419999999819,
            "durationTicks": 144,
            "midi": 69,
            "name": "A4",
            "ticks": 136800,
            "time": 81.42849000000001,
            "velocity": 0.5511811023622047
          },
          {
            "duration": 0.0857142000000124,
            "durationTicks": 144,
            "midi": 67,
            "name": "G4",
            "ticks": 137040,
            "time": 81.571347,
            "velocity": 0.5511811023622047
          },
          {
            "duration": 0.08571419999999819,
            "durationTicks": 144,
            "midi": 65,
            "name": "F4",
            "ticks": 137280,
            "time": 81.71420400000001,
            "velocity": 0.5511811023622047
          },
          {
            "duration": 0.0857142000000124,
            "durationTicks": 144,
            "midi": 63,
            "name": "D#4",
            "ticks": 137520,
            "time": 81.857061,
            "velocity": 0.5511811023622047
          },
          {
            "duration": 0.08571419999999819,
            "durationTicks": 144,
            "midi": 62,
            "name": "D4",
            "ticks": 137760,
            "time": 81.99991800000001,
            "velocity": 0.5511811023622047
          },
          {
            "duration": 0.0857142000000124,
            "durationTicks": 144,
            "midi": 60,
            "name": "C4",
            "ticks": 138000,
            "time": 82.142775,
            "velocity": 0.5511811023622047
          },
          {
            "duration": 0.22857120000000464,
            "durationTicks": 384,
            "midi": 58,
            "name": "A#3",
            "ticks": 138240,
            "time": 82.285632,
            "velocity": 0.5511811023622047
          },
          {
            "duration": 1.142856000000009,
            "durationTicks": 1920,
            "midi": 82,
            "name": "A#5",
            "ticks": 139200,
            "time": 82.85706,
            "velocity": 0.4566929133858268
          },
          {
            "duration": 0.45714239999999506,
            "durationTicks": 768,
            "midi": 81,
            "name": "A5",
            "ticks": 141120,
            "time": 83.99991600000001,
            "velocity": 0.4566929133858268
          },
          {
            "duration": 1.1428559999999948,
            "durationTicks": 1920,
            "midi": 82,
            "name": "A#5",
            "ticks": 143040,
            "time": 85.14277200000001,
            "velocity": 0.4566929133858268
          },
          {
            "duration": 0.4571424000000093,
            "durationTicks": 768,
            "midi": 81,
            "name": "A5",
            "ticks": 144960,
            "time": 86.285628,
            "velocity": 0.4566929133858268
          },
          {
            "duration": 0.14285699999999224,
            "durationTicks": 240,
            "midi": 87,
            "name": "D#6",
            "ticks": 147360,
            "time": 87.71419800000001,
            "velocity": 0.8267716535433071
          },
          {
            "duration": 0.11428560000000232,
            "durationTicks": 192,
            "midi": 86,
            "name": "D6",
            "ticks": 147600,
            "time": 87.857055,
            "velocity": 0.8267716535433071
          },
          {
            "duration": 0.22857120000000464,
            "durationTicks": 384,
            "midi": 86,
            "name": "D6",
            "ticks": 147840,
            "time": 87.99991200000001,
            "velocity": 0.8267716535433071
          },
          {
            "duration": 0.14285700000000645,
            "durationTicks": 240,
            "midi": 87,
            "name": "D#6",
            "ticks": 148320,
            "time": 88.28562600000001,
            "velocity": 0.8267716535433071
          },
          {
            "duration": 0.11428559999998811,
            "durationTicks": 192,
            "midi": 86,
            "name": "D6",
            "ticks": 148560,
            "time": 88.42848300000001,
            "velocity": 0.8267716535433071
          },
          {
            "duration": 0.22857120000000464,
            "durationTicks": 384,
            "midi": 86,
            "name": "D6",
            "ticks": 148800,
            "time": 88.57134,
            "velocity": 0.8267716535433071
          },
          {
            "duration": 0.14285700000000645,
            "durationTicks": 240,
            "midi": 87,
            "name": "D#6",
            "ticks": 149280,
            "time": 88.857054,
            "velocity": 0.8267716535433071
          },
          {
            "duration": 0.11428559999998811,
            "durationTicks": 192,
            "midi": 86,
            "name": "D6",
            "ticks": 149520,
            "time": 88.99991100000001,
            "velocity": 0.8267716535433071
          },
          {
            "duration": 0.4571424000000093,
            "durationTicks": 768,
            "midi": 86,
            "name": "D6",
            "ticks": 149760,
            "time": 89.142768,
            "velocity": 0.8267716535433071
          },
          {
            "duration": 0.42857100000000514,
            "durationTicks": 720,
            "midi": 87,
            "name": "D#6",
            "ticks": 150720,
            "time": 89.714196,
            "velocity": 0.8267716535433071
          },
          {
            "duration": 0.11428559999998811,
            "durationTicks": 192,
            "midi": 84,
            "name": "C6",
            "ticks": 151440,
            "time": 90.142767,
            "velocity": 0.8267716535433071
          },
          {
            "duration": 0.42857099999999093,
            "durationTicks": 720,
            "midi": 82,
            "name": "A#5",
            "ticks": 151680,
            "time": 90.28562400000001,
            "velocity": 0.8267716535433071
          },
          {
            "duration": 0.11428560000000232,
            "durationTicks": 192,
            "midi": 86,
            "name": "D6",
            "ticks": 152400,
            "time": 90.714195,
            "velocity": 0.8267716535433071
          },
          {
            "duration": 0.42857099999999093,
            "durationTicks": 720,
            "midi": 84,
            "name": "C6",
            "ticks": 152640,
            "time": 90.85705200000001,
            "velocity": 0.8267716535433071
          },
          {
            "duration": 0.11428560000000232,
            "durationTicks": 192,
            "midi": 81,
            "name": "A5",
            "ticks": 153360,
            "time": 91.285623,
            "velocity": 0.8267716535433071
          },
          {
            "duration": 0.22857120000000464,
            "durationTicks": 384,
            "midi": 82,
            "name": "A#5",
            "ticks": 153600,
            "time": 91.42848000000001,
            "velocity": 0.7244094488188977
          },
          {
            "duration": 1.1428559999999948,
            "durationTicks": 1920,
            "midi": 87,
            "name": "D#6",
            "ticks": 156480,
            "time": 93.14276400000001,
            "velocity": 0.4566929133858268
          },
          {
            "duration": 0.22857120000000464,
            "durationTicks": 384,
            "midi": 86,
            "name": "D6",
            "ticks": 158400,
            "time": 94.28562000000001,
            "velocity": 0.4566929133858268
          },
          {
            "duration": 1.142856000000009,
            "durationTicks": 1920,
            "midi": 75,
            "name": "D#5",
            "ticks": 160320,
            "time": 95.428476,
            "velocity": 0.4566929133858268
          },
          {
            "duration": 0.22857120000000464,
            "durationTicks": 384,
            "midi": 74,
            "name": "D5",
            "ticks": 162240,
            "time": 96.57133200000001,
            "velocity": 0.4566929133858268
          },
          {
            "duration": 0.14285699999999224,
            "durationTicks": 240,
            "midi": 87,
            "name": "D#6",
            "ticks": 162720,
            "time": 96.85704600000001,
            "velocity": 0.8267716535433071
          },
          {
            "duration": 0.11428560000000232,
            "durationTicks": 192,
            "midi": 86,
            "name": "D6",
            "ticks": 162960,
            "time": 96.999903,
            "velocity": 0.8267716535433071
          },
          {
            "duration": 0.22857120000000464,
            "durationTicks": 384,
            "midi": 86,
            "name": "D6",
            "ticks": 163200,
            "time": 97.14276000000001,
            "velocity": 0.8267716535433071
          },
          {
            "duration": 0.14285700000000645,
            "durationTicks": 240,
            "midi": 87,
            "name": "D#6",
            "ticks": 163680,
            "time": 97.42847400000001,
            "velocity": 0.8267716535433071
          },
          {
            "duration": 0.11428559999998811,
            "durationTicks": 192,
            "midi": 86,
            "name": "D6",
            "ticks": 163920,
            "time": 97.57133100000001,
            "velocity": 0.8267716535433071
          },
          {
            "duration": 0.22857120000000464,
            "durationTicks": 384,
            "midi": 86,
            "name": "D6",
            "ticks": 164160,
            "time": 97.71418800000001,
            "velocity": 0.8267716535433071
          },
          {
            "duration": 0.14285700000000645,
            "durationTicks": 240,
            "midi": 87,
            "name": "D#6",
            "ticks": 164640,
            "time": 97.999902,
            "velocity": 0.8267716535433071
          },
          {
            "duration": 0.11428559999998811,
            "durationTicks": 192,
            "midi": 86,
            "name": "D6",
            "ticks": 164880,
            "time": 98.14275900000001,
            "velocity": 0.8267716535433071
          },
          {
            "duration": 0.4571424000000093,
            "durationTicks": 768,
            "midi": 86,
            "name": "D6",
            "ticks": 165120,
            "time": 98.285616,
            "velocity": 0.8267716535433071
          },
          {
            "duration": 0.42857100000000514,
            "durationTicks": 720,
            "midi": 87,
            "name": "D#6",
            "ticks": 166080,
            "time": 98.857044,
            "velocity": 0.8267716535433071
          },
          {
            "duration": 0.11428559999998811,
            "durationTicks": 192,
            "midi": 84,
            "name": "C6",
            "ticks": 166800,
            "time": 99.285615,
            "velocity": 0.8267716535433071
          },
          {
            "duration": 0.42857099999999093,
            "durationTicks": 720,
            "midi": 82,
            "name": "A#5",
            "ticks": 167040,
            "time": 99.42847200000001,
            "velocity": 0.8267716535433071
          },
          {
            "duration": 0.11428560000000232,
            "durationTicks": 192,
            "midi": 86,
            "name": "D6",
            "ticks": 167760,
            "time": 99.857043,
            "velocity": 0.8267716535433071
          },
          {
            "duration": 0.42857099999999093,
            "durationTicks": 720,
            "midi": 84,
            "name": "C6",
            "ticks": 168000,
            "time": 99.99990000000001,
            "velocity": 0.8267716535433071
          },
          {
            "duration": 0.11428560000000232,
            "durationTicks": 192,
            "midi": 81,
            "name": "A5",
            "ticks": 168720,
            "time": 100.428471,
            "velocity": 0.8267716535433071
          },
          {
            "duration": 0.11428559999998811,
            "durationTicks": 192,
            "midi": 82,
            "name": "A#5",
            "ticks": 168960,
            "time": 100.57132800000001,
            "velocity": 0.8267716535433071
          },
          {
            "duration": 0.11428559999998811,
            "durationTicks": 192,
            "midi": 77,
            "name": "F5",
            "ticks": 169200,
            "time": 100.71418500000001,
            "velocity": 0.8267716535433071
          },
          {
            "duration": 0.11428559999998811,
            "durationTicks": 192,
            "midi": 86,
            "name": "D6",
            "ticks": 169440,
            "time": 100.857042,
            "velocity": 0.8267716535433071
          },
          {
            "duration": 0.11428559999998811,
            "durationTicks": 192,
            "midi": 84,
            "name": "C6",
            "ticks": 169680,
            "time": 100.99989900000001,
            "velocity": 0.8267716535433071
          },
          {
            "duration": 0.11428560000000232,
            "durationTicks": 192,
            "midi": 82,
            "name": "A#5",
            "ticks": 169920,
            "time": 101.142756,
            "velocity": 0.8267716535433071
          },
          {
            "duration": 0.11428559999998811,
            "durationTicks": 192,
            "midi": 81,
            "name": "A5",
            "ticks": 170160,
            "time": 101.28561300000001,
            "velocity": 0.8267716535433071
          },
          {
            "duration": 0.11428560000000232,
            "durationTicks": 192,
            "midi": 79,
            "name": "G5",
            "ticks": 170400,
            "time": 101.42847,
            "velocity": 0.8267716535433071
          },
          {
            "duration": 0.11428559999998811,
            "durationTicks": 192,
            "midi": 77,
            "name": "F5",
            "ticks": 170640,
            "time": 101.57132700000001,
            "velocity": 0.8267716535433071
          },
          {
            "duration": 0.11428560000000232,
            "durationTicks": 192,
            "midi": 75,
            "name": "D#5",
            "ticks": 170880,
            "time": 101.714184,
            "velocity": 0.8267716535433071
          },
          {
            "duration": 0.11428559999998811,
            "durationTicks": 192,
            "midi": 74,
            "name": "D5",
            "ticks": 171120,
            "time": 101.85704100000001,
            "velocity": 0.8267716535433071
          },
          {
            "duration": 0.11428560000000232,
            "durationTicks": 192,
            "midi": 72,
            "name": "C5",
            "ticks": 171360,
            "time": 101.999898,
            "velocity": 0.8267716535433071
          },
          {
            "duration": 0.11428559999998811,
            "durationTicks": 192,
            "midi": 70,
            "name": "A#4",
            "ticks": 171600,
            "time": 102.14275500000001,
            "velocity": 0.8267716535433071
          },
          {
            "duration": 0.11428559999998811,
            "durationTicks": 192,
            "midi": 69,
            "name": "A4",
            "ticks": 171840,
            "time": 102.28561200000001,
            "velocity": 0.8267716535433071
          },
          {
            "duration": 0.11428559999998811,
            "durationTicks": 192,
            "midi": 67,
            "name": "G4",
            "ticks": 172080,
            "time": 102.428469,
            "velocity": 0.8267716535433071
          },
          {
            "duration": 0.11428559999998811,
            "durationTicks": 192,
            "midi": 65,
            "name": "F4",
            "ticks": 172320,
            "time": 102.57132600000001,
            "velocity": 0.8267716535433071
          },
          {
            "duration": 0.11428560000000232,
            "durationTicks": 192,
            "midi": 63,
            "name": "D#4",
            "ticks": 172560,
            "time": 102.714183,
            "velocity": 0.8267716535433071
          },
          {
            "duration": 0.1999997999999863,
            "durationTicks": 336,
            "midi": 62,
            "name": "D4",
            "ticks": 172800,
            "time": 102.85704000000001,
            "velocity": 0.8267716535433071
          },
          {
            "duration": 0.1999998000000005,
            "durationTicks": 336,
            "midi": 77,
            "name": "F5",
            "ticks": 173280,
            "time": 103.14275400000001,
            "velocity": 0.8267716535433071
          },
          {
            "duration": 0.1999998000000005,
            "durationTicks": 336,
            "midi": 79,
            "name": "G5",
            "ticks": 173760,
            "time": 103.42846800000001,
            "velocity": 0.8267716535433071
          },
          {
            "duration": 0.1999998000000005,
            "durationTicks": 336,
            "midi": 69,
            "name": "A4",
            "ticks": 174240,
            "time": 103.71418200000001,
            "velocity": 0.8267716535433071
          },
          {
            "duration": 0.11428560000000232,
            "durationTicks": 192,
            "midi": 70,
            "name": "A#4",
            "ticks": 174720,
            "time": 103.999896,
            "velocity": 0.8267716535433071
          },
          {
            "duration": 0.11428559999998811,
            "durationTicks": 192,
            "midi": 65,
            "name": "F4",
            "ticks": 174960,
            "time": 104.14275300000001,
            "velocity": 0.8267716535433071
          },
          {
            "duration": 0.11428560000000232,
            "durationTicks": 192,
            "midi": 74,
            "name": "D5",
            "ticks": 175200,
            "time": 104.28561,
            "velocity": 0.8267716535433071
          },
          {
            "duration": 0.11428559999998811,
            "durationTicks": 192,
            "midi": 72,
            "name": "C5",
            "ticks": 175440,
            "time": 104.42846700000001,
            "velocity": 0.8267716535433071
          },
          {
            "duration": 0.11428560000000232,
            "durationTicks": 192,
            "midi": 70,
            "name": "A#4",
            "ticks": 175680,
            "time": 104.571324,
            "velocity": 0.8267716535433071
          },
          {
            "duration": 0.11428559999998811,
            "durationTicks": 192,
            "midi": 69,
            "name": "A4",
            "ticks": 175920,
            "time": 104.71418100000001,
            "velocity": 0.8267716535433071
          },
          {
            "duration": 0.11428560000000232,
            "durationTicks": 192,
            "midi": 67,
            "name": "G4",
            "ticks": 176160,
            "time": 104.857038,
            "velocity": 0.8267716535433071
          },
          {
            "duration": 0.11428559999998811,
            "durationTicks": 192,
            "midi": 65,
            "name": "F4",
            "ticks": 176400,
            "time": 104.99989500000001,
            "velocity": 0.8267716535433071
          },
          {
            "duration": 0.11428560000000232,
            "durationTicks": 192,
            "midi": 63,
            "name": "D#4",
            "ticks": 176640,
            "time": 105.142752,
            "velocity": 0.8267716535433071
          },
          {
            "duration": 0.11428559999998811,
            "durationTicks": 192,
            "midi": 62,
            "name": "D4",
            "ticks": 176880,
            "time": 105.28560900000001,
            "velocity": 0.8267716535433071
          },
          {
            "duration": 0.11428559999998811,
            "durationTicks": 192,
            "midi": 60,
            "name": "C4",
            "ticks": 177120,
            "time": 105.42846600000001,
            "velocity": 0.8267716535433071
          },
          {
            "duration": 0.11428560000000232,
            "durationTicks": 192,
            "midi": 58,
            "name": "A#3",
            "ticks": 177360,
            "time": 105.571323,
            "velocity": 0.8267716535433071
          },
          {
            "duration": 0.11428559999998811,
            "durationTicks": 192,
            "midi": 57,
            "name": "A3",
            "ticks": 177600,
            "time": 105.71418000000001,
            "velocity": 0.8267716535433071
          },
          {
            "duration": 0.11428560000000232,
            "durationTicks": 192,
            "midi": 60,
            "name": "C4",
            "ticks": 177840,
            "time": 105.857037,
            "velocity": 0.8267716535433071
          },
          {
            "duration": 0.11428559999998811,
            "durationTicks": 192,
            "midi": 65,
            "name": "F4",
            "ticks": 178080,
            "time": 105.99989400000001,
            "velocity": 0.8267716535433071
          },
          {
            "duration": 0.11428560000000232,
            "durationTicks": 192,
            "midi": 63,
            "name": "D#4",
            "ticks": 178320,
            "time": 106.142751,
            "velocity": 0.8267716535433071
          },
          {
            "duration": 0.1999998000000005,
            "durationTicks": 336,
            "midi": 62,
            "name": "D4",
            "ticks": 178560,
            "time": 106.28560800000001,
            "velocity": 0.8267716535433071
          },
          {
            "duration": 0.1999998000000005,
            "durationTicks": 336,
            "midi": 77,
            "name": "F5",
            "ticks": 179040,
            "time": 106.57132200000001,
            "velocity": 0.8267716535433071
          },
          {
            "duration": 0.1999998000000005,
            "durationTicks": 336,
            "midi": 79,
            "name": "G5",
            "ticks": 179520,
            "time": 106.85703600000001,
            "velocity": 0.8267716535433071
          },
          {
            "duration": 0.1999998000000005,
            "durationTicks": 336,
            "midi": 81,
            "name": "A5",
            "ticks": 180000,
            "time": 107.14275,
            "velocity": 0.8267716535433071
          },
          {
            "duration": 0.1999998000000005,
            "durationTicks": 336,
            "midi": 82,
            "name": "A#5",
            "ticks": 180480,
            "time": 107.428464,
            "velocity": 0.8267716535433071
          },
          {
            "duration": 0.1999998000000005,
            "durationTicks": 336,
            "midi": 79,
            "name": "G5",
            "ticks": 180960,
            "time": 107.714178,
            "velocity": 0.8267716535433071
          },
          {
            "duration": 0.1999998000000005,
            "durationTicks": 336,
            "midi": 77,
            "name": "F5",
            "ticks": 181440,
            "time": 107.999892,
            "velocity": 0.8267716535433071
          },
          {
            "duration": 0.1999997999999863,
            "durationTicks": 336,
            "midi": 69,
            "name": "A4",
            "ticks": 181920,
            "time": 108.28560600000002,
            "velocity": 0.8267716535433071
          },
          {
            "duration": 0.14285699999999224,
            "durationTicks": 240,
            "midi": 70,
            "name": "A#4",
            "ticks": 182400,
            "time": 108.57132000000001,
            "velocity": 0.8267716535433071
          },
          {
            "duration": 0.0857142000000124,
            "durationTicks": 144,
            "midi": 74,
            "name": "D5",
            "ticks": 182640,
            "time": 108.714177,
            "velocity": 0.8267716535433071
          },
          {
            "duration": 0.08571419999999819,
            "durationTicks": 144,
            "midi": 77,
            "name": "F5",
            "ticks": 182880,
            "time": 108.85703400000001,
            "velocity": 0.8267716535433071
          },
          {
            "duration": 0.0857142000000124,
            "durationTicks": 144,
            "midi": 82,
            "name": "A#5",
            "ticks": 183120,
            "time": 108.999891,
            "velocity": 0.8267716535433071
          },
          {
            "duration": 0.14285699999999224,
            "durationTicks": 240,
            "midi": 81,
            "name": "A5",
            "ticks": 183360,
            "time": 109.14274800000001,
            "velocity": 0.8267716535433071
          },
          {
            "duration": 0.0857142000000124,
            "durationTicks": 144,
            "midi": 77,
            "name": "F5",
            "ticks": 183600,
            "time": 109.285605,
            "velocity": 0.8267716535433071
          },
          {
            "duration": 0.08571419999999819,
            "durationTicks": 144,
            "midi": 84,
            "name": "C6",
            "ticks": 183840,
            "time": 109.42846200000001,
            "velocity": 0.8267716535433071
          },
          {
            "duration": 0.0857142000000124,
            "durationTicks": 144,
            "midi": 81,
            "name": "A5",
            "ticks": 184080,
            "time": 109.571319,
            "velocity": 0.8267716535433071
          },
          {
            "duration": 0.14285700000000645,
            "durationTicks": 240,
            "midi": 82,
            "name": "A#5",
            "ticks": 184320,
            "time": 109.71417600000001,
            "velocity": 0.8267716535433071
          },
          {
            "duration": 0.08571419999999819,
            "durationTicks": 144,
            "midi": 77,
            "name": "F5",
            "ticks": 184560,
            "time": 109.85703300000002,
            "velocity": 0.8267716535433071
          },
          {
            "duration": 0.08571419999999819,
            "durationTicks": 144,
            "midi": 86,
            "name": "D6",
            "ticks": 184800,
            "time": 109.99989000000001,
            "velocity": 0.8267716535433071
          },
          {
            "duration": 0.08571419999999819,
            "durationTicks": 144,
            "midi": 82,
            "name": "A#5",
            "ticks": 185040,
            "time": 110.14274700000001,
            "velocity": 0.8267716535433071
          },
          {
            "duration": 0.14285700000000645,
            "durationTicks": 240,
            "midi": 81,
            "name": "A5",
            "ticks": 185280,
            "time": 110.285604,
            "velocity": 0.8267716535433071
          },
          {
            "duration": 0.08571419999999819,
            "durationTicks": 144,
            "midi": 77,
            "name": "F5",
            "ticks": 185520,
            "time": 110.42846100000001,
            "velocity": 0.8267716535433071
          },
          {
            "duration": 0.0857142000000124,
            "durationTicks": 144,
            "midi": 84,
            "name": "C6",
            "ticks": 185760,
            "time": 110.571318,
            "velocity": 0.8267716535433071
          },
          {
            "duration": 0.08571419999999819,
            "durationTicks": 144,
            "midi": 81,
            "name": "A5",
            "ticks": 186000,
            "time": 110.71417500000001,
            "velocity": 0.8267716535433071
          },
          {
            "duration": 0.14285700000000645,
            "durationTicks": 240,
            "midi": 82,
            "name": "A#5",
            "ticks": 186240,
            "time": 110.857032,
            "velocity": 0.8267716535433071
          },
          {
            "duration": 0.08571419999999819,
            "durationTicks": 144,
            "midi": 77,
            "name": "F5",
            "ticks": 186480,
            "time": 110.99988900000001,
            "velocity": 0.8267716535433071
          },
          {
            "duration": 0.0857142000000124,
            "durationTicks": 144,
            "midi": 86,
            "name": "D6",
            "ticks": 186720,
            "time": 111.142746,
            "velocity": 0.8267716535433071
          },
          {
            "duration": 0.08571419999999819,
            "durationTicks": 144,
            "midi": 82,
            "name": "A#5",
            "ticks": 186960,
            "time": 111.28560300000001,
            "velocity": 0.8267716535433071
          },
          {
            "duration": 0.14285699999999224,
            "durationTicks": 240,
            "midi": 81,
            "name": "A5",
            "ticks": 187200,
            "time": 111.42846000000002,
            "velocity": 0.8267716535433071
          },
          {
            "duration": 0.08571419999999819,
            "durationTicks": 144,
            "midi": 77,
            "name": "F5",
            "ticks": 187440,
            "time": 111.57131700000001,
            "velocity": 0.8267716535433071
          },
          {
            "duration": 0.08571419999999819,
            "durationTicks": 144,
            "midi": 84,
            "name": "C6",
            "ticks": 187680,
            "time": 111.71417400000001,
            "velocity": 0.8267716535433071
          },
          {
            "duration": 0.0857142000000124,
            "durationTicks": 144,
            "midi": 81,
            "name": "A5",
            "ticks": 187920,
            "time": 111.857031,
            "velocity": 0.8267716535433071
          },
          {
            "duration": 0.14285699999999224,
            "durationTicks": 240,
            "midi": 82,
            "name": "A#5",
            "ticks": 188160,
            "time": 111.99988800000001,
            "velocity": 0.8267716535433071
          },
          {
            "duration": 0.0857142000000124,
            "durationTicks": 144,
            "midi": 86,
            "name": "D6",
            "ticks": 188400,
            "time": 112.142745,
            "velocity": 0.8267716535433071
          },
          {
            "duration": 0.08571419999999819,
            "durationTicks": 144,
            "midi": 84,
            "name": "C6",
            "ticks": 188640,
            "time": 112.28560200000001,
            "velocity": 0.8267716535433071
          },
          {
            "duration": 0.0857142000000124,
            "durationTicks": 144,
            "midi": 81,
            "name": "A5",
            "ticks": 188880,
            "time": 112.428459,
            "velocity": 0.8267716535433071
          },
          {
            "duration": 0.14285699999999224,
            "durationTicks": 240,
            "midi": 82,
            "name": "A#5",
            "ticks": 189120,
            "time": 112.57131600000001,
            "velocity": 0.8267716535433071
          },
          {
            "duration": 0.0857142000000124,
            "durationTicks": 144,
            "midi": 86,
            "name": "D6",
            "ticks": 189360,
            "time": 112.714173,
            "velocity": 0.8267716535433071
          },
          {
            "duration": 0.08571419999999819,
            "durationTicks": 144,
            "midi": 84,
            "name": "C6",
            "ticks": 189600,
            "time": 112.85703000000001,
            "velocity": 0.8267716535433071
          },
          {
            "duration": 0.08571419999999819,
            "durationTicks": 144,
            "midi": 81,
            "name": "A5",
            "ticks": 189840,
            "time": 112.99988700000002,
            "velocity": 0.8267716535433071
          },
          {
            "duration": 0.22857120000000464,
            "durationTicks": 384,
            "midi": 82,
            "name": "A#5",
            "ticks": 190080,
            "time": 113.14274400000001,
            "velocity": 0.8267716535433071
          },
          {
            "duration": 0.22857119999999043,
            "durationTicks": 384,
            "midi": 62,
            "name": "D4",
            "ticks": 192000,
            "time": 114.28560000000002,
            "velocity": 0.8267716535433071
          },
          {
            "duration": 0.22857119999999043,
            "durationTicks": 384,
            "midi": 72,
            "name": "C5",
            "ticks": 192000,
            "time": 114.28560000000002,
            "velocity": 0.8267716535433071
          },
          {
            "duration": 0.22857119999999043,
            "durationTicks": 384,
            "midi": 78,
            "name": "F#5",
            "ticks": 192000,
            "time": 114.28560000000002,
            "velocity": 0.8267716535433071
          },
          {
            "duration": 0.14285700000000645,
            "durationTicks": 240,
            "midi": 75,
            "name": "D#5",
            "ticks": 195360,
            "time": 116.28559800000001,
            "velocity": 0.5511811023622047
          },
          {
            "duration": 0.11428559999998811,
            "durationTicks": 192,
            "midi": 74,
            "name": "D5",
            "ticks": 195600,
            "time": 116.42845500000001,
            "velocity": 0.5511811023622047
          },
          {
            "duration": 0.22857120000000464,
            "durationTicks": 384,
            "midi": 74,
            "name": "D5",
            "ticks": 195840,
            "time": 116.571312,
            "velocity": 0.5511811023622047
          },
          {
            "duration": 0.14285700000000645,
            "durationTicks": 240,
            "midi": 75,
            "name": "D#5",
            "ticks": 196320,
            "time": 116.857026,
            "velocity": 0.5511811023622047
          },
          {
            "duration": 0.11428559999998811,
            "durationTicks": 192,
            "midi": 74,
            "name": "D5",
            "ticks": 196560,
            "time": 116.99988300000001,
            "velocity": 0.5511811023622047
          },
          {
            "duration": 0.22857120000000464,
            "durationTicks": 384,
            "midi": 74,
            "name": "D5",
            "ticks": 196800,
            "time": 117.14274,
            "velocity": 0.5511811023622047
          },
          {
            "duration": 0.14285699999999224,
            "durationTicks": 240,
            "midi": 75,
            "name": "D#5",
            "ticks": 197280,
            "time": 117.42845400000002,
            "velocity": 0.5511811023622047
          },
          {
            "duration": 0.11428559999998811,
            "durationTicks": 192,
            "midi": 74,
            "name": "D5",
            "ticks": 197520,
            "time": 117.57131100000001,
            "velocity": 0.5511811023622047
          },
          {
            "duration": 0.2857139999999987,
            "durationTicks": 480,
            "midi": 74,
            "name": "D5",
            "ticks": 197760,
            "time": 117.71416800000002,
            "velocity": 0.5511811023622047
          },
          {
            "duration": 0.22857120000000464,
            "durationTicks": 384,
            "midi": 82,
            "name": "A#5",
            "ticks": 198240,
            "time": 117.99988200000001,
            "velocity": 0.5511811023622047
          },
          {
            "duration": 0.14285699999999224,
            "durationTicks": 240,
            "midi": 82,
            "name": "A#5",
            "ticks": 199200,
            "time": 118.57131000000001,
            "velocity": 0.5511811023622047
          },
          {
            "duration": 0.11428560000000232,
            "durationTicks": 192,
            "midi": 81,
            "name": "A5",
            "ticks": 199440,
            "time": 118.714167,
            "velocity": 0.5511811023622047
          },
          {
            "duration": 0.22857120000000464,
            "durationTicks": 384,
            "midi": 79,
            "name": "G5",
            "ticks": 199680,
            "time": 118.85702400000001,
            "velocity": 0.5511811023622047
          },
          {
            "duration": 0.14285700000000645,
            "durationTicks": 240,
            "midi": 79,
            "name": "G5",
            "ticks": 200160,
            "time": 119.14273800000001,
            "velocity": 0.5511811023622047
          },
          {
            "duration": 0.11428559999998811,
            "durationTicks": 192,
            "midi": 77,
            "name": "F5",
            "ticks": 200400,
            "time": 119.28559500000001,
            "velocity": 0.5511811023622047
          },
          {
            "duration": 0.22857120000000464,
            "durationTicks": 384,
            "midi": 75,
            "name": "D#5",
            "ticks": 200640,
            "time": 119.42845200000001,
            "velocity": 0.5511811023622047
          },
          {
            "duration": 0.14285700000000645,
            "durationTicks": 240,
            "midi": 75,
            "name": "D#5",
            "ticks": 201120,
            "time": 119.714166,
            "velocity": 0.5511811023622047
          },
          {
            "duration": 0.11428559999998811,
            "durationTicks": 192,
            "midi": 74,
            "name": "D5",
            "ticks": 201360,
            "time": 119.85702300000001,
            "velocity": 0.5511811023622047
          },
          {
            "duration": 0.22857120000000464,
            "durationTicks": 384,
            "midi": 72,
            "name": "C5",
            "ticks": 201600,
            "time": 119.99988,
            "velocity": 0.5511811023622047
          },
          {
            "duration": 0.22857120000000464,
            "durationTicks": 384,
            "midi": 72,
            "name": "C5",
            "ticks": 202080,
            "time": 120.285594,
            "velocity": 0.5511811023622047
          },
          {
            "duration": 0.14285699999999224,
            "durationTicks": 240,
            "midi": 74,
            "name": "D5",
            "ticks": 203040,
            "time": 120.85702200000001,
            "velocity": 0.5511811023622047
          },
          {
            "duration": 0.11428560000000232,
            "durationTicks": 192,
            "midi": 72,
            "name": "C5",
            "ticks": 203280,
            "time": 120.999879,
            "velocity": 0.5511811023622047
          },
          {
            "duration": 0.22857120000000464,
            "durationTicks": 384,
            "midi": 72,
            "name": "C5",
            "ticks": 203520,
            "time": 121.14273600000001,
            "velocity": 0.5511811023622047
          },
          {
            "duration": 0.14285699999999224,
            "durationTicks": 240,
            "midi": 74,
            "name": "D5",
            "ticks": 204000,
            "time": 121.42845000000001,
            "velocity": 0.5511811023622047
          },
          {
            "duration": 0.11428560000000232,
            "durationTicks": 192,
            "midi": 72,
            "name": "C5",
            "ticks": 204240,
            "time": 121.571307,
            "velocity": 0.5511811023622047
          },
          {
            "duration": 0.22857120000000464,
            "durationTicks": 384,
            "midi": 72,
            "name": "C5",
            "ticks": 204480,
            "time": 121.71416400000001,
            "velocity": 0.5511811023622047
          },
          {
            "duration": 0.14285700000000645,
            "durationTicks": 240,
            "midi": 74,
            "name": "D5",
            "ticks": 204960,
            "time": 121.99987800000001,
            "velocity": 0.5511811023622047
          },
          {
            "duration": 0.11428559999998811,
            "durationTicks": 192,
            "midi": 72,
            "name": "C5",
            "ticks": 205200,
            "time": 122.14273500000002,
            "velocity": 0.5511811023622047
          },
          {
            "duration": 0.2857139999999987,
            "durationTicks": 480,
            "midi": 72,
            "name": "C5",
            "ticks": 205440,
            "time": 122.28559200000001,
            "velocity": 0.5511811023622047
          },
          {
            "duration": 0.22857120000000464,
            "durationTicks": 384,
            "midi": 81,
            "name": "A5",
            "ticks": 205920,
            "time": 122.571306,
            "velocity": 0.5511811023622047
          },
          {
            "duration": 0.14285700000000645,
            "durationTicks": 240,
            "midi": 81,
            "name": "A5",
            "ticks": 206880,
            "time": 123.142734,
            "velocity": 0.5511811023622047
          },
          {
            "duration": 0.11428559999998811,
            "durationTicks": 192,
            "midi": 79,
            "name": "G5",
            "ticks": 207120,
            "time": 123.28559100000001,
            "velocity": 0.5511811023622047
          },
          {
            "duration": 0.22857120000000464,
            "durationTicks": 384,
            "midi": 78,
            "name": "F#5",
            "ticks": 207360,
            "time": 123.428448,
            "velocity": 0.5511811023622047
          },
          {
            "duration": 0.14285699999999224,
            "durationTicks": 240,
            "midi": 78,
            "name": "F#5",
            "ticks": 207840,
            "time": 123.71416200000002,
            "velocity": 0.5511811023622047
          },
          {
            "duration": 0.11428560000000232,
            "durationTicks": 192,
            "midi": 75,
            "name": "D#5",
            "ticks": 208080,
            "time": 123.85701900000001,
            "velocity": 0.5511811023622047
          },
          {
            "duration": 0.22857120000000464,
            "durationTicks": 384,
            "midi": 74,
            "name": "D5",
            "ticks": 208320,
            "time": 123.99987600000001,
            "velocity": 0.5511811023622047
          },
          {
            "duration": 0.14285699999999224,
            "durationTicks": 240,
            "midi": 74,
            "name": "D5",
            "ticks": 208800,
            "time": 124.28559000000001,
            "velocity": 0.5511811023622047
          },
          {
            "duration": 0.11428560000000232,
            "durationTicks": 192,
            "midi": 72,
            "name": "C5",
            "ticks": 209040,
            "time": 124.428447,
            "velocity": 0.5511811023622047
          },
          {
            "duration": 0.22857120000000464,
            "durationTicks": 384,
            "midi": 70,
            "name": "A#4",
            "ticks": 209280,
            "time": 124.57130400000001,
            "velocity": 0.5511811023622047
          },
          {
            "duration": 0.22857120000000464,
            "durationTicks": 384,
            "midi": 70,
            "name": "A#4",
            "ticks": 209760,
            "time": 124.85701800000001,
            "velocity": 0.5511811023622047
          },
          {
            "duration": 0.14285700000000645,
            "durationTicks": 240,
            "midi": 82,
            "name": "A#5",
            "ticks": 210720,
            "time": 125.42844600000001,
            "velocity": 0.5511811023622047
          },
          {
            "duration": 0.11428559999998811,
            "durationTicks": 192,
            "midi": 81,
            "name": "A5",
            "ticks": 210960,
            "time": 125.57130300000001,
            "velocity": 0.5511811023622047
          },
          {
            "duration": 0.2857139999999987,
            "durationTicks": 480,
            "midi": 81,
            "name": "A5",
            "ticks": 211200,
            "time": 125.71416,
            "velocity": 0.5511811023622047
          },
          {
            "duration": 0.2857139999999987,
            "durationTicks": 480,
            "midi": 84,
            "name": "C6",
            "ticks": 211680,
            "time": 125.999874,
            "velocity": 0.5511811023622047
          },
          {
            "duration": 0.2857140000000129,
            "durationTicks": 480,
            "midi": 78,
            "name": "F#5",
            "ticks": 212160,
            "time": 126.285588,
            "velocity": 0.5511811023622047
          },
          {
            "duration": 0.22857119999999043,
            "durationTicks": 384,
            "midi": 81,
            "name": "A5",
            "ticks": 212640,
            "time": 126.57130200000002,
            "velocity": 0.5511811023622047
          },
          {
            "duration": 0.2857139999999987,
            "durationTicks": 480,
            "midi": 79,
            "name": "G5",
            "ticks": 213120,
            "time": 126.85701600000002,
            "velocity": 0.5511811023622047
          },
          {
            "duration": 0.22857120000000464,
            "durationTicks": 384,
            "midi": 74,
            "name": "D5",
            "ticks": 213600,
            "time": 127.14273000000001,
            "velocity": 0.5511811023622047
          },
          {
            "duration": 0.14285699999999224,
            "durationTicks": 240,
            "midi": 82,
            "name": "A#5",
            "ticks": 214560,
            "time": 127.71415800000001,
            "velocity": 0.5511811023622047
          },
          {
            "duration": 0.11428560000000232,
            "durationTicks": 192,
            "midi": 81,
            "name": "A5",
            "ticks": 214800,
            "time": 127.857015,
            "velocity": 0.5511811023622047
          },
          {
            "duration": 0.2857140000000129,
            "durationTicks": 480,
            "midi": 81,
            "name": "A5",
            "ticks": 215040,
            "time": 127.99987200000001,
            "velocity": 0.5511811023622047
          },
          {
            "duration": 0.2857139999999845,
            "durationTicks": 480,
            "midi": 84,
            "name": "C6",
            "ticks": 215520,
            "time": 128.28558600000002,
            "velocity": 0.5511811023622047
          },
          {
            "duration": 0.2857140000000129,
            "durationTicks": 480,
            "midi": 78,
            "name": "F#5",
            "ticks": 216000,
            "time": 128.5713,
            "velocity": 0.5511811023622047
          },
          {
            "duration": 0.22857120000000464,
            "durationTicks": 384,
            "midi": 81,
            "name": "A5",
            "ticks": 216480,
            "time": 128.85701400000002,
            "velocity": 0.5511811023622047
          },
          {
            "duration": 0.2857140000000129,
            "durationTicks": 480,
            "midi": 79,
            "name": "G5",
            "ticks": 216960,
            "time": 129.142728,
            "velocity": 0.5511811023622047
          },
          {
            "duration": 0.22857120000000464,
            "durationTicks": 384,
            "midi": 82,
            "name": "A#5",
            "ticks": 217440,
            "time": 129.42844200000002,
            "velocity": 0.5511811023622047
          },
          {
            "duration": 0.14285700000002066,
            "durationTicks": 240,
            "midi": 81,
            "name": "A5",
            "ticks": 217920,
            "time": 129.714156,
            "velocity": 0.5511811023622047
          },
          {
            "duration": 0.14285699999999224,
            "durationTicks": 240,
            "midi": 79,
            "name": "G5",
            "ticks": 218160,
            "time": 129.85701300000002,
            "velocity": 0.5511811023622047
          },
          {
            "duration": 0.14285699999999224,
            "durationTicks": 240,
            "midi": 77,
            "name": "F5",
            "ticks": 218400,
            "time": 129.99987000000002,
            "velocity": 0.5511811023622047
          },
          {
            "duration": 0.11428559999998811,
            "durationTicks": 192,
            "midi": 75,
            "name": "D#5",
            "ticks": 218640,
            "time": 130.142727,
            "velocity": 0.5511811023622047
          },
          {
            "duration": 1.1428560000000232,
            "durationTicks": 1920,
            "midi": 74,
            "name": "D5",
            "ticks": 218880,
            "time": 130.285584,
            "velocity": 0.5511811023622047
          },
          {
            "duration": 1.0857131999999865,
            "durationTicks": 1824,
            "midi": 73,
            "name": "C#5",
            "ticks": 220800,
            "time": 131.42844000000002,
            "velocity": 0.5511811023622047
          },
          {
            "duration": 0.4571424000000093,
            "durationTicks": 768,
            "midi": 74,
            "name": "D5",
            "ticks": 222720,
            "time": 132.57129600000002,
            "velocity": 0.5511811023622047
          },
          {
            "duration": 0.10714275000000839,
            "durationTicks": 180,
            "midi": 62,
            "name": "D4",
            "ticks": 224160,
            "time": 133.428438,
            "velocity": 0.8267716535433071
          },
          {
            "duration": 0.10714274999997997,
            "durationTicks": 180,
            "midi": 62,
            "name": "D4",
            "ticks": 224400,
            "time": 133.57129500000002,
            "velocity": 0.8267716535433071
          },
          {
            "duration": 0.4571424000000093,
            "durationTicks": 768,
            "midi": 62,
            "name": "D4",
            "ticks": 224640,
            "time": 133.714152,
            "velocity": 0.8267716535433071
          },
          {
            "duration": 0.10714274999997997,
            "durationTicks": 180,
            "midi": 62,
            "name": "D4",
            "ticks": 226080,
            "time": 134.57129400000002,
            "velocity": 0.8267716535433071
          },
          {
            "duration": 0.10714275000000839,
            "durationTicks": 180,
            "midi": 62,
            "name": "D4",
            "ticks": 226320,
            "time": 134.71415100000002,
            "velocity": 0.8267716535433071
          },
          {
            "duration": 0.4571424000000093,
            "durationTicks": 768,
            "midi": 62,
            "name": "D4",
            "ticks": 226560,
            "time": 134.857008,
            "velocity": 0.8267716535433071
          },
          {
            "duration": 0.10714274999997997,
            "durationTicks": 180,
            "midi": 62,
            "name": "D4",
            "ticks": 228000,
            "time": 135.71415000000002,
            "velocity": 0.8267716535433071
          },
          {
            "duration": 0.10714275000000839,
            "durationTicks": 180,
            "midi": 62,
            "name": "D4",
            "ticks": 228240,
            "time": 135.857007,
            "velocity": 0.8267716535433071
          },
          {
            "duration": 0.21428550000001678,
            "durationTicks": 360,
            "midi": 62,
            "name": "D4",
            "ticks": 228480,
            "time": 135.999864,
            "velocity": 0.8267716535433071
          },
          {
            "duration": 0.10714275000000839,
            "durationTicks": 180,
            "midi": 62,
            "name": "D4",
            "ticks": 228960,
            "time": 136.28557800000002,
            "velocity": 0.8267716535433071
          },
          {
            "duration": 0.10714275000000839,
            "durationTicks": 180,
            "midi": 62,
            "name": "D4",
            "ticks": 229200,
            "time": 136.428435,
            "velocity": 0.8267716535433071
          },
          {
            "duration": 0.21428550000001678,
            "durationTicks": 360,
            "midi": 62,
            "name": "D4",
            "ticks": 229440,
            "time": 136.571292,
            "velocity": 0.8267716535433071
          },
          {
            "duration": 0.10714275000000839,
            "durationTicks": 180,
            "midi": 62,
            "name": "D4",
            "ticks": 229920,
            "time": 136.857006,
            "velocity": 0.8267716535433071
          },
          {
            "duration": 0.10714275000000839,
            "durationTicks": 180,
            "midi": 62,
            "name": "D4",
            "ticks": 230160,
            "time": 136.999863,
            "velocity": 0.8267716535433071
          },
          {
            "duration": 0.4571424000000093,
            "durationTicks": 768,
            "midi": 62,
            "name": "D4",
            "ticks": 230400,
            "time": 137.14272,
            "velocity": 0.8267716535433071
          },
          {
            "duration": 0.14285699999999224,
            "durationTicks": 240,
            "midi": 75,
            "name": "D#5",
            "ticks": 231840,
            "time": 137.999862,
            "velocity": 0.5511811023622047
          },
          {
            "duration": 0.11428560000001653,
            "durationTicks": 192,
            "midi": 74,
            "name": "D5",
            "ticks": 232080,
            "time": 138.142719,
            "velocity": 0.5511811023622047
          },
          {
            "duration": 0.22857120000000464,
            "durationTicks": 384,
            "midi": 74,
            "name": "D5",
            "ticks": 232320,
            "time": 138.28557600000002,
            "velocity": 0.5511811023622047
          },
          {
            "duration": 0.14285700000002066,
            "durationTicks": 240,
            "midi": 75,
            "name": "D#5",
            "ticks": 232800,
            "time": 138.57129,
            "velocity": 0.5511811023622047
          },
          {
            "duration": 0.11428559999998811,
            "durationTicks": 192,
            "midi": 74,
            "name": "D5",
            "ticks": 233040,
            "time": 138.71414700000003,
            "velocity": 0.5511811023622047
          },
          {
            "duration": 0.22857120000000464,
            "durationTicks": 384,
            "midi": 74,
            "name": "D5",
            "ticks": 233280,
            "time": 138.85700400000002,
            "velocity": 0.5511811023622047
          },
          {
            "duration": 0.14285700000002066,
            "durationTicks": 240,
            "midi": 75,
            "name": "D#5",
            "ticks": 233760,
            "time": 139.142718,
            "velocity": 0.5511811023622047
          },
          {
            "duration": 0.11428559999998811,
            "durationTicks": 192,
            "midi": 74,
            "name": "D5",
            "ticks": 234000,
            "time": 139.28557500000002,
            "velocity": 0.5511811023622047
          },
          {
            "duration": 0.2857139999999845,
            "durationTicks": 480,
            "midi": 74,
            "name": "D5",
            "ticks": 234240,
            "time": 139.42843200000002,
            "velocity": 0.5511811023622047
          },
          {
            "duration": 0.22857120000000464,
            "durationTicks": 384,
            "midi": 82,
            "name": "A#5",
            "ticks": 234720,
            "time": 139.714146,
            "velocity": 0.5511811023622047
          },
          {
            "duration": 0.14285699999999224,
            "durationTicks": 240,
            "midi": 82,
            "name": "A#5",
            "ticks": 235680,
            "time": 140.28557400000003,
            "velocity": 0.5511811023622047
          },
          {
            "duration": 0.11428559999998811,
            "durationTicks": 192,
            "midi": 81,
            "name": "A5",
            "ticks": 235920,
            "time": 140.42843100000002,
            "velocity": 0.5511811023622047
          },
          {
            "duration": 0.22857120000000464,
            "durationTicks": 384,
            "midi": 79,
            "name": "G5",
            "ticks": 236160,
            "time": 140.571288,
            "velocity": 0.5511811023622047
          },
          {
            "duration": 0.14285699999999224,
            "durationTicks": 240,
            "midi": 79,
            "name": "G5",
            "ticks": 236640,
            "time": 140.85700200000002,
            "velocity": 0.5511811023622047
          },
          {
            "duration": 0.11428559999998811,
            "durationTicks": 192,
            "midi": 77,
            "name": "F5",
            "ticks": 236880,
            "time": 140.99985900000001,
            "velocity": 0.5511811023622047
          },
          {
            "duration": 0.22857120000000464,
            "durationTicks": 384,
            "midi": 75,
            "name": "D#5",
            "ticks": 237120,
            "time": 141.142716,
            "velocity": 0.5511811023622047
          },
          {
            "duration": 0.14285699999999224,
            "durationTicks": 240,
            "midi": 75,
            "name": "D#5",
            "ticks": 237600,
            "time": 141.42843000000002,
            "velocity": 0.5511811023622047
          },
          {
            "duration": 0.11428559999998811,
            "durationTicks": 192,
            "midi": 74,
            "name": "D5",
            "ticks": 237840,
            "time": 141.571287,
            "velocity": 0.5511811023622047
          },
          {
            "duration": 0.22857120000000464,
            "durationTicks": 384,
            "midi": 72,
            "name": "C5",
            "ticks": 238080,
            "time": 141.714144,
            "velocity": 0.5511811023622047
          },
          {
            "duration": 0.22857120000000464,
            "durationTicks": 384,
            "midi": 72,
            "name": "C5",
            "ticks": 238560,
            "time": 141.99985800000002,
            "velocity": 0.5511811023622047
          },
          {
            "duration": 0.14285699999999224,
            "durationTicks": 240,
            "midi": 77,
            "name": "F5",
            "ticks": 239520,
            "time": 142.57128600000001,
            "velocity": 0.5511811023622047
          },
          {
            "duration": 0.11428559999998811,
            "durationTicks": 192,
            "midi": 75,
            "name": "D#5",
            "ticks": 239760,
            "time": 142.714143,
            "velocity": 0.5511811023622047
          },
          {
            "duration": 0.22857120000000464,
            "durationTicks": 384,
            "midi": 75,
            "name": "D#5",
            "ticks": 240000,
            "time": 142.857,
            "velocity": 0.5511811023622047
          },
          {
            "duration": 0.14285699999999224,
            "durationTicks": 240,
            "midi": 77,
            "name": "F5",
            "ticks": 240480,
            "time": 143.142714,
            "velocity": 0.5511811023622047
          },
          {
            "duration": 0.11428559999998811,
            "durationTicks": 192,
            "midi": 75,
            "name": "D#5",
            "ticks": 240720,
            "time": 143.285571,
            "velocity": 0.5511811023622047
          },
          {
            "duration": 0.22857119999997622,
            "durationTicks": 384,
            "midi": 75,
            "name": "D#5",
            "ticks": 240960,
            "time": 143.42842800000003,
            "velocity": 0.5511811023622047
          },
          {
            "duration": 0.14285699999999224,
            "durationTicks": 240,
            "midi": 77,
            "name": "F5",
            "ticks": 241440,
            "time": 143.714142,
            "velocity": 0.5511811023622047
          },
          {
            "duration": 0.11428560000001653,
            "durationTicks": 192,
            "midi": 75,
            "name": "D#5",
            "ticks": 241680,
            "time": 143.856999,
            "velocity": 0.5511811023622047
          },
          {
            "duration": 0.2857139999999845,
            "durationTicks": 480,
            "midi": 75,
            "name": "D#5",
            "ticks": 241920,
            "time": 143.99985600000002,
            "velocity": 0.5511811023622047
          },
          {
            "duration": 0.22857120000000464,
            "durationTicks": 384,
            "midi": 84,
            "name": "C6",
            "ticks": 242400,
            "time": 144.28557,
            "velocity": 0.5511811023622047
          },
          {
            "duration": 0.14285700000002066,
            "durationTicks": 240,
            "midi": 84,
            "name": "C6",
            "ticks": 243360,
            "time": 144.856998,
            "velocity": 0.5511811023622047
          },
          {
            "duration": 0.11428559999998811,
            "durationTicks": 192,
            "midi": 82,
            "name": "A#5",
            "ticks": 243600,
            "time": 144.99985500000003,
            "velocity": 0.5511811023622047
          },
          {
            "duration": 0.22857120000000464,
            "durationTicks": 384,
            "midi": 81,
            "name": "A5",
            "ticks": 243840,
            "time": 145.14271200000002,
            "velocity": 0.5511811023622047
          },
          {
            "duration": 0.14285700000002066,
            "durationTicks": 240,
            "midi": 81,
            "name": "A5",
            "ticks": 244320,
            "time": 145.428426,
            "velocity": 0.5511811023622047
          },
          {
            "duration": 0.11428559999998811,
            "durationTicks": 192,
            "midi": 79,
            "name": "G5",
            "ticks": 244560,
            "time": 145.57128300000002,
            "velocity": 0.5511811023622047
          },
          {
            "duration": 0.22857120000000464,
            "durationTicks": 384,
            "midi": 77,
            "name": "F5",
            "ticks": 244800,
            "time": 145.71414000000001,
            "velocity": 0.5511811023622047
          },
          {
            "duration": 0.14285700000002066,
            "durationTicks": 240,
            "midi": 77,
            "name": "F5",
            "ticks": 245280,
            "time": 145.999854,
            "velocity": 0.5511811023622047
          },
          {
            "duration": 0.11428559999998811,
            "durationTicks": 192,
            "midi": 75,
            "name": "D#5",
            "ticks": 245520,
            "time": 146.14271100000002,
            "velocity": 0.5511811023622047
          },
          {
            "duration": 0.9142848000000185,
            "durationTicks": 1536,
            "midi": 70,
            "name": "A#4",
            "ticks": 245760,
            "time": 146.285568,
            "velocity": 0.8267716535433071
          },
          {
            "duration": 0.9142848000000185,
            "durationTicks": 1536,
            "midi": 82,
            "name": "A#5",
            "ticks": 245760,
            "time": 146.285568,
            "velocity": 0.8267716535433071
          },
          {
            "duration": 0.6857135999999855,
            "durationTicks": 1152,
            "midi": 77,
            "name": "F5",
            "ticks": 247680,
            "time": 147.428424,
            "velocity": 0.8267716535433071
          },
          {
            "duration": 0.07857135000000426,
            "durationTicks": 132,
            "midi": 77,
            "name": "F5",
            "ticks": 249360,
            "time": 148.428423,
            "velocity": 0.8267716535433071
          },
          {
            "duration": 0.15714270000000852,
            "durationTicks": 264,
            "midi": 75,
            "name": "D#5",
            "ticks": 249600,
            "time": 148.57128,
            "velocity": 0.8267716535433071
          },
          {
            "duration": 0.1571426999999801,
            "durationTicks": 264,
            "midi": 79,
            "name": "G5",
            "ticks": 250080,
            "time": 148.85699400000001,
            "velocity": 0.8267716535433071
          },
          {
            "duration": 0.15714270000000852,
            "durationTicks": 264,
            "midi": 82,
            "name": "A#5",
            "ticks": 250560,
            "time": 149.142708,
            "velocity": 0.8267716535433071
          },
          {
            "duration": 0.1571426999999801,
            "durationTicks": 264,
            "midi": 74,
            "name": "D5",
            "ticks": 251520,
            "time": 149.71413600000002,
            "velocity": 0.8267716535433071
          },
          {
            "duration": 0.1571426999999801,
            "durationTicks": 264,
            "midi": 77,
            "name": "F5",
            "ticks": 252000,
            "time": 149.99985,
            "velocity": 0.8267716535433071
          },
          {
            "duration": 0.1571426999999801,
            "durationTicks": 264,
            "midi": 82,
            "name": "A#5",
            "ticks": 252480,
            "time": 150.28556400000002,
            "velocity": 0.8267716535433071
          },
          {
            "duration": 0.07857135000000426,
            "durationTicks": 132,
            "midi": 74,
            "name": "D5",
            "ticks": 253200,
            "time": 150.714135,
            "velocity": 0.8267716535433071
          },
          {
            "duration": 0.1571426999999801,
            "durationTicks": 264,
            "midi": 72,
            "name": "C5",
            "ticks": 253440,
            "time": 150.85699200000002,
            "velocity": 0.8267716535433071
          },
          {
            "duration": 0.15714270000000852,
            "durationTicks": 264,
            "midi": 75,
            "name": "D#5",
            "ticks": 253920,
            "time": 151.142706,
            "velocity": 0.8267716535433071
          },
          {
            "duration": 0.1571426999999801,
            "durationTicks": 264,
            "midi": 79,
            "name": "G5",
            "ticks": 254400,
            "time": 151.42842000000002,
            "velocity": 0.8267716535433071
          },
          {
            "duration": 0.15714270000000852,
            "durationTicks": 264,
            "midi": 72,
            "name": "C5",
            "ticks": 254880,
            "time": 151.714134,
            "velocity": 0.8267716535433071
          },
          {
            "duration": 0.1571426999999801,
            "durationTicks": 264,
            "midi": 70,
            "name": "A#4",
            "ticks": 255360,
            "time": 151.99984800000001,
            "velocity": 0.8267716535433071
          },
          {
            "duration": 0.15714270000000852,
            "durationTicks": 264,
            "midi": 74,
            "name": "D5",
            "ticks": 255840,
            "time": 152.285562,
            "velocity": 0.8267716535433071
          },
          {
            "duration": 0.1571426999999801,
            "durationTicks": 264,
            "midi": 77,
            "name": "F5",
            "ticks": 256320,
            "time": 152.571276,
            "velocity": 0.8267716535433071
          },
          {
            "duration": 0.07857134999997584,
            "durationTicks": 132,
            "midi": 77,
            "name": "F5",
            "ticks": 257040,
            "time": 152.99984700000002,
            "velocity": 0.8267716535433071
          },
          {
            "duration": 0.11428559999998811,
            "durationTicks": 192,
            "midi": 76,
            "name": "E5",
            "ticks": 257280,
            "time": 153.142704,
            "velocity": 0.984251968503937
          },
          {
            "duration": 0.11428560000001653,
            "durationTicks": 192,
            "midi": 77,
            "name": "F5",
            "ticks": 257520,
            "time": 153.285561,
            "velocity": 0.8267716535433071
          },
          {
            "duration": 0.11428559999998811,
            "durationTicks": 192,
            "midi": 79,
            "name": "G5",
            "ticks": 257760,
            "time": 153.42841800000002,
            "velocity": 0.8267716535433071
          },
          {
            "duration": 0.11428559999998811,
            "durationTicks": 192,
            "midi": 81,
            "name": "A5",
            "ticks": 258000,
            "time": 153.571275,
            "velocity": 0.8267716535433071
          },
          {
            "duration": 0.11428559999998811,
            "durationTicks": 192,
            "midi": 82,
            "name": "A#5",
            "ticks": 258240,
            "time": 153.714132,
            "velocity": 0.8267716535433071
          },
          {
            "duration": 0.11428560000001653,
            "durationTicks": 192,
            "midi": 84,
            "name": "C6",
            "ticks": 258480,
            "time": 153.856989,
            "velocity": 0.8267716535433071
          },
          {
            "duration": 0.11428559999998811,
            "durationTicks": 192,
            "midi": 85,
            "name": "C#6",
            "ticks": 258720,
            "time": 153.99984600000002,
            "velocity": 0.8267716535433071
          },
          {
            "duration": 0.11428559999998811,
            "durationTicks": 192,
            "midi": 77,
            "name": "F5",
            "ticks": 258960,
            "time": 154.142703,
            "velocity": 0.8267716535433071
          },
          {
            "duration": 0.11428560000001653,
            "durationTicks": 192,
            "midi": 76,
            "name": "E5",
            "ticks": 259200,
            "time": 154.28556,
            "velocity": 0.984251968503937
          },
          {
            "duration": 0.11428559999998811,
            "durationTicks": 192,
            "midi": 77,
            "name": "F5",
            "ticks": 259440,
            "time": 154.42841700000002,
            "velocity": 0.8267716535433071
          },
          {
            "duration": 0.11428559999998811,
            "durationTicks": 192,
            "midi": 79,
            "name": "G5",
            "ticks": 259680,
            "time": 154.57127400000002,
            "velocity": 0.8267716535433071
          },
          {
            "duration": 0.11428559999998811,
            "durationTicks": 192,
            "midi": 81,
            "name": "A5",
            "ticks": 259920,
            "time": 154.714131,
            "velocity": 0.8267716535433071
          },
          {
            "duration": 0.11428560000001653,
            "durationTicks": 192,
            "midi": 82,
            "name": "A#5",
            "ticks": 260160,
            "time": 154.856988,
            "velocity": 0.8267716535433071
          },
          {
            "duration": 0.11428559999998811,
            "durationTicks": 192,
            "midi": 84,
            "name": "C6",
            "ticks": 260400,
            "time": 154.99984500000002,
            "velocity": 0.8267716535433071
          },
          {
            "duration": 0.11428559999998811,
            "durationTicks": 192,
            "midi": 85,
            "name": "C#6",
            "ticks": 260640,
            "time": 155.142702,
            "velocity": 0.8267716535433071
          },
          {
            "duration": 0.11428559999998811,
            "durationTicks": 192,
            "midi": 77,
            "name": "F5",
            "ticks": 260880,
            "time": 155.285559,
            "velocity": 0.8267716535433071
          },
          {
            "duration": 0.11428559999998811,
            "durationTicks": 192,
            "midi": 76,
            "name": "E5",
            "ticks": 261120,
            "time": 155.42841600000003,
            "velocity": 0.984251968503937
          },
          {
            "duration": 0.11428559999998811,
            "durationTicks": 192,
            "midi": 77,
            "name": "F5",
            "ticks": 261360,
            "time": 155.57127300000002,
            "velocity": 0.8267716535433071
          },
          {
            "duration": 0.11428559999998811,
            "durationTicks": 192,
            "midi": 79,
            "name": "G5",
            "ticks": 261600,
            "time": 155.71413,
            "velocity": 0.8267716535433071
          },
          {
            "duration": 0.11428560000001653,
            "durationTicks": 192,
            "midi": 81,
            "name": "A5",
            "ticks": 261840,
            "time": 155.856987,
            "velocity": 0.8267716535433071
          },
          {
            "duration": 0.11428559999998811,
            "durationTicks": 192,
            "midi": 82,
            "name": "A#5",
            "ticks": 262080,
            "time": 155.99984400000002,
            "velocity": 0.8267716535433071
          },
          {
            "duration": 0.11428559999998811,
            "durationTicks": 192,
            "midi": 84,
            "name": "C6",
            "ticks": 262320,
            "time": 156.14270100000002,
            "velocity": 0.8267716535433071
          },
          {
            "duration": 0.11428559999998811,
            "durationTicks": 192,
            "midi": 85,
            "name": "C#6",
            "ticks": 262560,
            "time": 156.285558,
            "velocity": 0.8267716535433071
          },
          {
            "duration": 0.11428560000001653,
            "durationTicks": 192,
            "midi": 77,
            "name": "F5",
            "ticks": 262800,
            "time": 156.428415,
            "velocity": 0.8267716535433071
          },
          {
            "duration": 0.11428559999998811,
            "durationTicks": 192,
            "midi": 76,
            "name": "E5",
            "ticks": 263040,
            "time": 156.57127200000002,
            "velocity": 0.984251968503937
          },
          {
            "duration": 0.11428559999998811,
            "durationTicks": 192,
            "midi": 77,
            "name": "F5",
            "ticks": 263280,
            "time": 156.714129,
            "velocity": 0.8267716535433071
          },
          {
            "duration": 0.11428559999998811,
            "durationTicks": 192,
            "midi": 79,
            "name": "G5",
            "ticks": 263520,
            "time": 156.856986,
            "velocity": 0.8267716535433071
          },
          {
            "duration": 0.11428559999998811,
            "durationTicks": 192,
            "midi": 81,
            "name": "A5",
            "ticks": 263760,
            "time": 156.99984300000003,
            "velocity": 0.8267716535433071
          },
          {
            "duration": 0.11428559999998811,
            "durationTicks": 192,
            "midi": 82,
            "name": "A#5",
            "ticks": 264000,
            "time": 157.14270000000002,
            "velocity": 0.8267716535433071
          },
          {
            "duration": 0.11428559999998811,
            "durationTicks": 192,
            "midi": 84,
            "name": "C6",
            "ticks": 264240,
            "time": 157.285557,
            "velocity": 0.8267716535433071
          },
          {
            "duration": 0.11428560000001653,
            "durationTicks": 192,
            "midi": 85,
            "name": "C#6",
            "ticks": 264480,
            "time": 157.428414,
            "velocity": 0.8267716535433071
          },
          {
            "duration": 0.11428559999998811,
            "durationTicks": 192,
            "midi": 76,
            "name": "E5",
            "ticks": 264720,
            "time": 157.57127100000002,
            "velocity": 0.8267716535433071
          },
          {
            "duration": 0.4571424000000093,
            "durationTicks": 768,
            "midi": 77,
            "name": "F5",
            "ticks": 264960,
            "time": 157.71412800000002,
            "velocity": 0.8267716535433071
          },
          {
            "duration": 0.17142839999999637,
            "durationTicks": 288,
            "midi": 84,
            "name": "C6",
            "ticks": 265920,
            "time": 158.285556,
            "velocity": 0.8267716535433071
          },
          {
            "duration": 0.17142839999999637,
            "durationTicks": 288,
            "midi": 81,
            "name": "A5",
            "ticks": 266400,
            "time": 158.57127000000003,
            "velocity": 0.8267716535433071
          },
          {
            "duration": 0.4571424000000093,
            "durationTicks": 768,
            "midi": 85,
            "name": "C#6",
            "ticks": 266880,
            "time": 158.856984,
            "velocity": 0.8267716535433071
          },
          {
            "duration": 0.1714284000000248,
            "durationTicks": 288,
            "midi": 76,
            "name": "E5",
            "ticks": 267840,
            "time": 159.428412,
            "velocity": 0.8267716535433071
          },
          {
            "duration": 0.17142839999999637,
            "durationTicks": 288,
            "midi": 79,
            "name": "G5",
            "ticks": 268320,
            "time": 159.71412600000002,
            "velocity": 0.8267716535433071
          },
          {
            "duration": 0.4571424000000093,
            "durationTicks": 768,
            "midi": 77,
            "name": "F5",
            "ticks": 268800,
            "time": 159.99984,
            "velocity": 0.8267716535433071
          },
          {
            "duration": 0.11428560000001653,
            "durationTicks": 192,
            "midi": 84,
            "name": "C6",
            "ticks": 269760,
            "time": 160.571268,
            "velocity": 0.8267716535433071
          },
          {
            "duration": 0.11428559999998811,
            "durationTicks": 192,
            "midi": 81,
            "name": "A5",
            "ticks": 270000,
            "time": 160.71412500000002,
            "velocity": 0.8267716535433071
          },
          {
            "duration": 0.11428559999998811,
            "durationTicks": 192,
            "midi": 84,
            "name": "C6",
            "ticks": 270240,
            "time": 160.85698200000002,
            "velocity": 0.8267716535433071
          },
          {
            "duration": 0.11428559999998811,
            "durationTicks": 192,
            "midi": 81,
            "name": "A5",
            "ticks": 270480,
            "time": 160.999839,
            "velocity": 0.8267716535433071
          },
          {
            "duration": 0.11428560000001653,
            "durationTicks": 192,
            "midi": 85,
            "name": "C#6",
            "ticks": 270720,
            "time": 161.142696,
            "velocity": 0.8267716535433071
          },
          {
            "duration": 0.11428559999998811,
            "durationTicks": 192,
            "midi": 82,
            "name": "A#5",
            "ticks": 270960,
            "time": 161.28555300000002,
            "velocity": 0.8267716535433071
          },
          {
            "duration": 0.11428559999998811,
            "durationTicks": 192,
            "midi": 85,
            "name": "C#6",
            "ticks": 271200,
            "time": 161.42841,
            "velocity": 0.8267716535433071
          },
          {
            "duration": 0.11428559999998811,
            "durationTicks": 192,
            "midi": 82,
            "name": "A#5",
            "ticks": 271440,
            "time": 161.571267,
            "velocity": 0.8267716535433071
          },
          {
            "duration": 0.11428559999998811,
            "durationTicks": 192,
            "midi": 76,
            "name": "E5",
            "ticks": 271680,
            "time": 161.71412400000003,
            "velocity": 0.8267716535433071
          },
          {
            "duration": 0.11428559999998811,
            "durationTicks": 192,
            "midi": 79,
            "name": "G5",
            "ticks": 271920,
            "time": 161.85698100000002,
            "velocity": 0.8267716535433071
          },
          {
            "duration": 0.11428559999998811,
            "durationTicks": 192,
            "midi": 76,
            "name": "E5",
            "ticks": 272160,
            "time": 161.999838,
            "velocity": 0.8267716535433071
          },
          {
            "duration": 0.11428560000001653,
            "durationTicks": 192,
            "midi": 79,
            "name": "G5",
            "ticks": 272400,
            "time": 162.142695,
            "velocity": 0.8267716535433071
          },
          {
            "duration": 0.22857119999997622,
            "durationTicks": 384,
            "midi": 77,
            "name": "F5",
            "ticks": 272640,
            "time": 162.28555200000002,
            "velocity": 0.8267716535433071
          },
          {
            "duration": 0.22857119999997622,
            "durationTicks": 384,
            "midi": 57,
            "name": "A3",
            "ticks": 273600,
            "time": 162.85698000000002,
            "velocity": 0.7244094488188977
          },
          {
            "duration": 0.22857119999997622,
            "durationTicks": 384,
            "midi": 65,
            "name": "F4",
            "ticks": 273600,
            "time": 162.85698000000002,
            "velocity": 0.7244094488188977
          },
          {
            "duration": 0.8571420000000103,
            "durationTicks": 1440,
            "midi": 77,
            "name": "F5",
            "ticks": 276480,
            "time": 164.571264,
            "velocity": 0.4566929133858268
          },
          {
            "duration": 0.2857139999999845,
            "durationTicks": 480,
            "midi": 76,
            "name": "E5",
            "ticks": 277920,
            "time": 165.42840600000002,
            "velocity": 0.4566929133858268
          },
          {
            "duration": 0.22857120000000464,
            "durationTicks": 384,
            "midi": 75,
            "name": "D#5",
            "ticks": 278400,
            "time": 165.71412,
            "velocity": 0.4566929133858268
          },
          {
            "duration": 0.18571409999998423,
            "durationTicks": 312,
            "midi": 70,
            "name": "A#4",
            "ticks": 280800,
            "time": 167.14269000000002,
            "velocity": 0.4566929133858268
          },
          {
            "duration": 0.2857140000000129,
            "durationTicks": 480,
            "midi": 70,
            "name": "A#4",
            "ticks": 281280,
            "time": 167.428404,
            "velocity": 0.4566929133858268
          },
          {
            "duration": 0.22857119999997622,
            "durationTicks": 384,
            "midi": 72,
            "name": "C5",
            "ticks": 281760,
            "time": 167.714118,
            "velocity": 0.4566929133858268
          },
          {
            "duration": 0.4285709999999767,
            "durationTicks": 720,
            "midi": 74,
            "name": "D5",
            "ticks": 282240,
            "time": 167.99983200000003,
            "velocity": 0.4566929133858268
          },
          {
            "duration": 0.14285700000002066,
            "durationTicks": 240,
            "midi": 75,
            "name": "D#5",
            "ticks": 282960,
            "time": 168.428403,
            "velocity": 0.4566929133858268
          },
          {
            "duration": 0.22857119999997622,
            "durationTicks": 384,
            "midi": 72,
            "name": "C5",
            "ticks": 283200,
            "time": 168.57126000000002,
            "velocity": 0.4566929133858268
          },
          {
            "duration": 0.8571419999999819,
            "durationTicks": 1440,
            "midi": 79,
            "name": "G5",
            "ticks": 284160,
            "time": 169.14268800000002,
            "velocity": 0.4566929133858268
          },
          {
            "duration": 0.2857140000000129,
            "durationTicks": 480,
            "midi": 78,
            "name": "F#5",
            "ticks": 285600,
            "time": 169.99983,
            "velocity": 0.4566929133858268
          },
          {
            "duration": 0.2857139999999845,
            "durationTicks": 480,
            "midi": 77,
            "name": "F5",
            "ticks": 286080,
            "time": 170.28554400000002,
            "velocity": 0.4566929133858268
          },
          {
            "duration": 0.2857140000000129,
            "durationTicks": 480,
            "midi": 76,
            "name": "E5",
            "ticks": 286560,
            "time": 170.571258,
            "velocity": 0.4566929133858268
          },
          {
            "duration": 0.2857140000000129,
            "durationTicks": 480,
            "midi": 75,
            "name": "D#5",
            "ticks": 287040,
            "time": 170.856972,
            "velocity": 0.4566929133858268
          },
          {
            "duration": 0.22857119999997622,
            "durationTicks": 384,
            "midi": 74,
            "name": "D5",
            "ticks": 287520,
            "time": 171.14268600000003,
            "velocity": 0.4566929133858268
          },
          {
            "duration": 0.2857140000000129,
            "durationTicks": 480,
            "midi": 72,
            "name": "C5",
            "ticks": 288000,
            "time": 171.4284,
            "velocity": 0.4566929133858268
          },
          {
            "duration": 0.4571424000000093,
            "durationTicks": 768,
            "midi": 75,
            "name": "D#5",
            "ticks": 288480,
            "time": 171.71411400000002,
            "velocity": 0.4566929133858268
          },
          {
            "duration": 0.22857119999997622,
            "durationTicks": 384,
            "midi": 69,
            "name": "A4",
            "ticks": 289440,
            "time": 172.28554200000002,
            "velocity": 0.4566929133858268
          },
          {
            "duration": 0.22857120000000464,
            "durationTicks": 384,
            "midi": 70,
            "name": "A#4",
            "ticks": 289920,
            "time": 172.571256,
            "velocity": 0.4566929133858268
          },
          {
            "duration": 0.8571419999999819,
            "durationTicks": 1440,
            "midi": 75,
            "name": "D#5",
            "ticks": 293760,
            "time": 174.85696800000002,
            "velocity": 0.4566929133858268
          },
          {
            "duration": 0.07142849999999612,
            "durationTicks": 120,
            "midi": 77,
            "name": "F5",
            "ticks": 295200,
            "time": 175.71411,
            "velocity": 0.4566929133858268
          },
          {
            "duration": 0.07142850000002454,
            "durationTicks": 120,
            "midi": 75,
            "name": "D#5",
            "ticks": 295320,
            "time": 175.7855385,
            "velocity": 0.4566929133858268
          },
          {
            "duration": 0.07142849999999612,
            "durationTicks": 120,
            "midi": 74,
            "name": "D5",
            "ticks": 295440,
            "time": 175.85696700000003,
            "velocity": 0.4566929133858268
          },
          {
            "duration": 0.07142849999999612,
            "durationTicks": 120,
            "midi": 72,
            "name": "C5",
            "ticks": 295560,
            "time": 175.92839550000002,
            "velocity": 0.4566929133858268
          },
          {
            "duration": 0.22857119999997622,
            "durationTicks": 384,
            "midi": 70,
            "name": "A#4",
            "ticks": 295680,
            "time": 175.99982400000002,
            "velocity": 0.4566929133858268
          },
          {
            "duration": 0.8571420000000103,
            "durationTicks": 1440,
            "midi": 67,
            "name": "G4",
            "ticks": 299520,
            "time": 178.285536,
            "velocity": 0.5511811023622047
          },
          {
            "duration": 0.2857139999999845,
            "durationTicks": 480,
            "midi": 66,
            "name": "F#4",
            "ticks": 300960,
            "time": 179.14267800000002,
            "velocity": 0.5511811023622047
          },
          {
            "duration": 0.2857140000000129,
            "durationTicks": 480,
            "midi": 65,
            "name": "F4",
            "ticks": 301440,
            "time": 179.428392,
            "velocity": 0.5511811023622047
          },
          {
            "duration": 0.2857140000000129,
            "durationTicks": 480,
            "midi": 64,
            "name": "E4",
            "ticks": 301920,
            "time": 179.71410600000002,
            "velocity": 0.5511811023622047
          },
          {
            "duration": 0.2857139999999845,
            "durationTicks": 480,
            "midi": 63,
            "name": "D#4",
            "ticks": 302400,
            "time": 179.99982000000003,
            "velocity": 0.5511811023622047
          },
          {
            "duration": 0.22857119999997622,
            "durationTicks": 384,
            "midi": 62,
            "name": "D4",
            "ticks": 302880,
            "time": 180.285534,
            "velocity": 0.5511811023622047
          },
          {
            "duration": 0.8571419999999819,
            "durationTicks": 1440,
            "midi": 61,
            "name": "C#4",
            "ticks": 303360,
            "time": 180.57124800000003,
            "velocity": 0.4566929133858268
          },
          {
            "duration": 0.22857120000000464,
            "durationTicks": 384,
            "midi": 60,
            "name": "C4",
            "ticks": 304800,
            "time": 181.42839,
            "velocity": 0.4566929133858268
          },
          {
            "duration": 0.8571419999999819,
            "durationTicks": 1440,
            "midi": 61,
            "name": "C#4",
            "ticks": 305280,
            "time": 181.71410400000002,
            "velocity": 0.4566929133858268
          },
          {
            "duration": 0.22857120000000464,
            "durationTicks": 384,
            "midi": 60,
            "name": "C4",
            "ticks": 306720,
            "time": 182.571246,
            "velocity": 0.4566929133858268
          },
          {
            "duration": 0.8571420000000103,
            "durationTicks": 1440,
            "midi": 61,
            "name": "C#4",
            "ticks": 307200,
            "time": 182.85696000000002,
            "velocity": 0.4566929133858268
          },
          {
            "duration": 0.22857119999997622,
            "durationTicks": 384,
            "midi": 60,
            "name": "C4",
            "ticks": 308640,
            "time": 183.71410200000003,
            "velocity": 0.4566929133858268
          },
          {
            "duration": 0.8571420000000103,
            "durationTicks": 1440,
            "midi": 61,
            "name": "C#4",
            "ticks": 309120,
            "time": 183.999816,
            "velocity": 0.4566929133858268
          },
          {
            "duration": 0.22857119999997622,
            "durationTicks": 384,
            "midi": 60,
            "name": "C4",
            "ticks": 310560,
            "time": 184.85695800000002,
            "velocity": 0.4566929133858268
          },
          {
            "duration": 0.1285713000000328,
            "durationTicks": 216,
            "midi": 61,
            "name": "C#4",
            "ticks": 311040,
            "time": 185.142672,
            "velocity": 0.4566929133858268
          },
          {
            "duration": 0.12857130000000438,
            "durationTicks": 216,
            "midi": 73,
            "name": "C#5",
            "ticks": 311280,
            "time": 185.28552900000003,
            "velocity": 0.5511811023622047
          },
          {
            "duration": 0.12857130000000438,
            "durationTicks": 216,
            "midi": 73,
            "name": "C#5",
            "ticks": 311520,
            "time": 185.42838600000002,
            "velocity": 0.5669291338582677
          },
          {
            "duration": 0.12857130000000438,
            "durationTicks": 216,
            "midi": 73,
            "name": "C#5",
            "ticks": 311760,
            "time": 185.571243,
            "velocity": 0.5905511811023622
          },
          {
            "duration": 0.1285713000000328,
            "durationTicks": 216,
            "midi": 73,
            "name": "C#5",
            "ticks": 312000,
            "time": 185.7141,
            "velocity": 0.6141732283464567
          },
          {
            "duration": 0.12857130000000438,
            "durationTicks": 216,
            "midi": 73,
            "name": "C#5",
            "ticks": 312240,
            "time": 185.85695700000002,
            "velocity": 0.6299212598425197
          },
          {
            "duration": 0.12857130000000438,
            "durationTicks": 216,
            "midi": 73,
            "name": "C#5",
            "ticks": 312480,
            "time": 185.99981400000001,
            "velocity": 0.6535433070866141
          },
          {
            "duration": 0.1285713000000328,
            "durationTicks": 216,
            "midi": 73,
            "name": "C#5",
            "ticks": 312720,
            "time": 186.142671,
            "velocity": 0.6771653543307087
          },
          {
            "duration": 0.12857130000000438,
            "durationTicks": 216,
            "midi": 73,
            "name": "C#5",
            "ticks": 312960,
            "time": 186.28552800000003,
            "velocity": 0.6929133858267716
          },
          {
            "duration": 0.12857130000000438,
            "durationTicks": 216,
            "midi": 85,
            "name": "C#6",
            "ticks": 313200,
            "time": 186.42838500000002,
            "velocity": 0.7165354330708661
          },
          {
            "duration": 0.12857130000000438,
            "durationTicks": 216,
            "midi": 85,
            "name": "C#6",
            "ticks": 313440,
            "time": 186.571242,
            "velocity": 0.7401574803149606
          },
          {
            "duration": 0.1285713000000328,
            "durationTicks": 216,
            "midi": 85,
            "name": "C#6",
            "ticks": 313680,
            "time": 186.714099,
            "velocity": 0.7559055118110236
          },
          {
            "duration": 0.12857130000000438,
            "durationTicks": 216,
            "midi": 85,
            "name": "C#6",
            "ticks": 313920,
            "time": 186.85695600000003,
            "velocity": 0.7795275590551181
          },
          {
            "duration": 0.12857130000000438,
            "durationTicks": 216,
            "midi": 85,
            "name": "C#6",
            "ticks": 314160,
            "time": 186.99981300000002,
            "velocity": 0.8031496062992126
          },
          {
            "duration": 0.1285713000000328,
            "durationTicks": 216,
            "midi": 85,
            "name": "C#6",
            "ticks": 314400,
            "time": 187.14267,
            "velocity": 0.8267716535433071
          },
          {
            "duration": 0.1285713000000328,
            "durationTicks": 216,
            "midi": 85,
            "name": "C#6",
            "ticks": 314640,
            "time": 187.285527,
            "velocity": 0.84251968503937
          },
          {
            "duration": 1.0857131999999865,
            "durationTicks": 1824,
            "midi": 86,
            "name": "D6",
            "ticks": 314880,
            "time": 187.42838400000002,
            "velocity": 0.8267716535433071
          },
          {
            "duration": 0.07142849999999612,
            "durationTicks": 120,
            "midi": 82,
            "name": "A#5",
            "ticks": 316800,
            "time": 188.57124000000002,
            "velocity": 0.8267716535433071
          },
          {
            "duration": 0.07142849999999612,
            "durationTicks": 120,
            "midi": 81,
            "name": "A5",
            "ticks": 316920,
            "time": 188.6426685,
            "velocity": 0.8267716535433071
          },
          {
            "duration": 0.07142849999999612,
            "durationTicks": 120,
            "midi": 82,
            "name": "A#5",
            "ticks": 317040,
            "time": 188.714097,
            "velocity": 0.8267716535433071
          },
          {
            "duration": 0.07142849999999612,
            "durationTicks": 120,
            "midi": 81,
            "name": "A5",
            "ticks": 317160,
            "time": 188.7855255,
            "velocity": 0.8267716535433071
          },
          {
            "duration": 0.07142850000002454,
            "durationTicks": 120,
            "midi": 82,
            "name": "A#5",
            "ticks": 317280,
            "time": 188.856954,
            "velocity": 0.8267716535433071
          },
          {
            "duration": 0.07142849999999612,
            "durationTicks": 120,
            "midi": 81,
            "name": "A5",
            "ticks": 317400,
            "time": 188.92838250000003,
            "velocity": 0.8267716535433071
          },
          {
            "duration": 0.07142849999999612,
            "durationTicks": 120,
            "midi": 82,
            "name": "A#5",
            "ticks": 317520,
            "time": 188.99981100000002,
            "velocity": 0.8267716535433071
          },
          {
            "duration": 0.07142849999999612,
            "durationTicks": 120,
            "midi": 81,
            "name": "A5",
            "ticks": 317640,
            "time": 189.07123950000002,
            "velocity": 0.8267716535433071
          },
          {
            "duration": 0.07142849999999612,
            "durationTicks": 120,
            "midi": 82,
            "name": "A#5",
            "ticks": 317760,
            "time": 189.14266800000001,
            "velocity": 0.8267716535433071
          },
          {
            "duration": 0.07142849999999612,
            "durationTicks": 120,
            "midi": 81,
            "name": "A5",
            "ticks": 317880,
            "time": 189.2140965,
            "velocity": 0.8267716535433071
          },
          {
            "duration": 0.07142849999999612,
            "durationTicks": 120,
            "midi": 82,
            "name": "A#5",
            "ticks": 318000,
            "time": 189.285525,
            "velocity": 0.8267716535433071
          },
          {
            "duration": 0.07142850000002454,
            "durationTicks": 120,
            "midi": 81,
            "name": "A5",
            "ticks": 318120,
            "time": 189.3569535,
            "velocity": 0.8267716535433071
          },
          {
            "duration": 0.07142849999999612,
            "durationTicks": 120,
            "midi": 82,
            "name": "A#5",
            "ticks": 318240,
            "time": 189.42838200000003,
            "velocity": 0.8267716535433071
          },
          {
            "duration": 0.07142849999999612,
            "durationTicks": 120,
            "midi": 81,
            "name": "A5",
            "ticks": 318360,
            "time": 189.49981050000002,
            "velocity": 0.8267716535433071
          },
          {
            "duration": 0.07142849999999612,
            "durationTicks": 120,
            "midi": 79,
            "name": "G5",
            "ticks": 318480,
            "time": 189.57123900000002,
            "velocity": 0.8267716535433071
          },
          {
            "duration": 0.07142849999999612,
            "durationTicks": 120,
            "midi": 81,
            "name": "A5",
            "ticks": 318600,
            "time": 189.64266750000002,
            "velocity": 0.8267716535433071
          },
          {
            "duration": 0.22857120000000464,
            "durationTicks": 384,
            "midi": 82,
            "name": "A#5",
            "ticks": 318720,
            "time": 189.714096,
            "velocity": 0.7244094488188977
          },
          {
            "duration": 0.11428559999998811,
            "durationTicks": 192,
            "midi": 62,
            "name": "D4",
            "ticks": 319200,
            "time": 189.99981000000002,
            "velocity": 0.984251968503937
          },
          {
            "duration": 0.11428559999998811,
            "durationTicks": 192,
            "midi": 62,
            "name": "D4",
            "ticks": 319440,
            "time": 190.14266700000002,
            "velocity": 0.8267716535433071
          },
          {
            "duration": 0.11428559999998811,
            "durationTicks": 192,
            "midi": 62,
            "name": "D4",
            "ticks": 319680,
            "time": 190.285524,
            "velocity": 0.8267716535433071
          },
          {
            "duration": 0.11428560000001653,
            "durationTicks": 192,
            "midi": 62,
            "name": "D4",
            "ticks": 319920,
            "time": 190.428381,
            "velocity": 0.8267716535433071
          },
          {
            "duration": 0.11428559999998811,
            "durationTicks": 192,
            "midi": 63,
            "name": "D#4",
            "ticks": 320160,
            "time": 190.57123800000002,
            "velocity": 0.8267716535433071
          },
          {
            "duration": 0.11428559999998811,
            "durationTicks": 192,
            "midi": 63,
            "name": "D#4",
            "ticks": 320400,
            "time": 190.71409500000001,
            "velocity": 0.8267716535433071
          },
          {
            "duration": 0.11428560000001653,
            "durationTicks": 192,
            "midi": 64,
            "name": "E4",
            "ticks": 320640,
            "time": 190.856952,
            "velocity": 0.8267716535433071
          },
          {
            "duration": 0.11428559999998811,
            "durationTicks": 192,
            "midi": 64,
            "name": "E4",
            "ticks": 320880,
            "time": 190.99980900000003,
            "velocity": 0.8267716535433071
          },
          {
            "duration": 0.11428559999998811,
            "durationTicks": 192,
            "midi": 65,
            "name": "F4",
            "ticks": 321120,
            "time": 191.14266600000002,
            "velocity": 0.8267716535433071
          },
          {
            "duration": 0.11428559999998811,
            "durationTicks": 192,
            "midi": 65,
            "name": "F4",
            "ticks": 321360,
            "time": 191.285523,
            "velocity": 0.8267716535433071
          },
          {
            "duration": 0.11428560000001653,
            "durationTicks": 192,
            "midi": 66,
            "name": "F#4",
            "ticks": 321600,
            "time": 191.42838,
            "velocity": 0.8267716535433071
          },
          {
            "duration": 0.11428559999998811,
            "durationTicks": 192,
            "midi": 66,
            "name": "F#4",
            "ticks": 321840,
            "time": 191.57123700000002,
            "velocity": 0.8267716535433071
          },
          {
            "duration": 0.11428559999998811,
            "durationTicks": 192,
            "midi": 67,
            "name": "G4",
            "ticks": 322080,
            "time": 191.71409400000002,
            "velocity": 0.8267716535433071
          },
          {
            "duration": 0.11428559999998811,
            "durationTicks": 192,
            "midi": 67,
            "name": "G4",
            "ticks": 322320,
            "time": 191.856951,
            "velocity": 0.8267716535433071
          },
          {
            "duration": 0.22857119999997622,
            "durationTicks": 384,
            "midi": 68,
            "name": "G#4",
            "ticks": 322560,
            "time": 191.99980800000003,
            "velocity": 0.8267716535433071
          },
          {
            "duration": 0.057142800000036686,
            "durationTicks": 96,
            "midi": 68,
            "name": "G#4",
            "ticks": 323400,
            "time": 192.4998075,
            "velocity": 0.8267716535433071
          },
          {
            "duration": 0.22857119999997622,
            "durationTicks": 384,
            "midi": 67,
            "name": "G4",
            "ticks": 323520,
            "time": 192.57123600000003,
            "velocity": 0.8267716535433071
          },
          {
            "duration": 0.057142800000008265,
            "durationTicks": 96,
            "midi": 67,
            "name": "G4",
            "ticks": 324360,
            "time": 193.07123550000003,
            "velocity": 0.8267716535433071
          },
          {
            "duration": 0.22857119999997622,
            "durationTicks": 384,
            "midi": 75,
            "name": "D#5",
            "ticks": 324480,
            "time": 193.14266400000002,
            "velocity": 0.8267716535433071
          },
          {
            "duration": 0.057142800000008265,
            "durationTicks": 96,
            "midi": 75,
            "name": "D#5",
            "ticks": 325320,
            "time": 193.64266350000003,
            "velocity": 0.8267716535433071
          },
          {
            "duration": 0.22857119999997622,
            "durationTicks": 384,
            "midi": 74,
            "name": "D5",
            "ticks": 325440,
            "time": 193.71409200000002,
            "velocity": 0.8267716535433071
          },
          {
            "duration": 0.057142800000008265,
            "durationTicks": 96,
            "midi": 74,
            "name": "D5",
            "ticks": 326280,
            "time": 194.21409150000002,
            "velocity": 0.8267716535433071
          },
          {
            "duration": 0.6571421999999814,
            "durationTicks": 1104,
            "midi": 79,
            "name": "G5",
            "ticks": 326400,
            "time": 194.28552000000002,
            "velocity": 0.8267716535433071
          },
          {
            "duration": 0.08571419999998398,
            "durationTicks": 144,
            "midi": 77,
            "name": "F5",
            "ticks": 327600,
            "time": 194.999805,
            "velocity": 0.5511811023622047
          },
          {
            "duration": 0.08571419999998398,
            "durationTicks": 144,
            "midi": 75,
            "name": "D#5",
            "ticks": 327840,
            "time": 195.14266200000003,
            "velocity": 0.5511811023622047
          },
          {
            "duration": 0.08571419999998398,
            "durationTicks": 144,
            "midi": 74,
            "name": "D5",
            "ticks": 328080,
            "time": 195.28551900000002,
            "velocity": 0.5511811023622047
          },
          {
            "duration": 0.08571419999998398,
            "durationTicks": 144,
            "midi": 72,
            "name": "C5",
            "ticks": 328320,
            "time": 195.42837600000001,
            "velocity": 0.5511811023622047
          },
          {
            "duration": 0.08571419999998398,
            "durationTicks": 144,
            "midi": 70,
            "name": "A#4",
            "ticks": 328560,
            "time": 195.571233,
            "velocity": 0.5511811023622047
          },
          {
            "duration": 0.08571419999998398,
            "durationTicks": 144,
            "midi": 69,
            "name": "A4",
            "ticks": 328800,
            "time": 195.71409000000003,
            "velocity": 0.5511811023622047
          },
          {
            "duration": 0.08571419999998398,
            "durationTicks": 144,
            "midi": 67,
            "name": "G4",
            "ticks": 329040,
            "time": 195.85694700000002,
            "velocity": 0.5511811023622047
          },
          {
            "duration": 0.08571419999998398,
            "durationTicks": 144,
            "midi": 65,
            "name": "F4",
            "ticks": 329280,
            "time": 195.999804,
            "velocity": 0.5511811023622047
          },
          {
            "duration": 0.0857142000000124,
            "durationTicks": 144,
            "midi": 63,
            "name": "D#4",
            "ticks": 329520,
            "time": 196.142661,
            "velocity": 0.5511811023622047
          },
          {
            "duration": 0.08571419999998398,
            "durationTicks": 144,
            "midi": 62,
            "name": "D4",
            "ticks": 329760,
            "time": 196.28551800000002,
            "velocity": 0.5511811023622047
          },
          {
            "duration": 0.08571419999998398,
            "durationTicks": 144,
            "midi": 60,
            "name": "C4",
            "ticks": 330000,
            "time": 196.42837500000002,
            "velocity": 0.5511811023622047
          },
          {
            "duration": 0.22857120000000464,
            "durationTicks": 384,
            "midi": 58,
            "name": "A#3",
            "ticks": 330240,
            "time": 196.571232,
            "velocity": 0.5511811023622047
          },
          {
            "duration": 1.1428560000000232,
            "durationTicks": 1920,
            "midi": 82,
            "name": "A#5",
            "ticks": 331200,
            "time": 197.14266,
            "velocity": 0.4566929133858268
          },
          {
            "duration": 0.45714239999998085,
            "durationTicks": 768,
            "midi": 81,
            "name": "A5",
            "ticks": 333120,
            "time": 198.28551600000003,
            "velocity": 0.4566929133858268
          },
          {
            "duration": 1.1428559999999948,
            "durationTicks": 1920,
            "midi": 82,
            "name": "A#5",
            "ticks": 335040,
            "time": 199.42837200000002,
            "velocity": 0.4566929133858268
          },
          {
            "duration": 0.4571424000000093,
            "durationTicks": 768,
            "midi": 81,
            "name": "A5",
            "ticks": 336960,
            "time": 200.57122800000002,
            "velocity": 0.4566929133858268
          },
          {
            "duration": 0.14285699999999224,
            "durationTicks": 240,
            "midi": 87,
            "name": "D#6",
            "ticks": 339360,
            "time": 201.99979800000003,
            "velocity": 0.8267716535433071
          },
          {
            "duration": 0.11428559999998811,
            "durationTicks": 192,
            "midi": 86,
            "name": "D6",
            "ticks": 339600,
            "time": 202.14265500000002,
            "velocity": 0.8267716535433071
          },
          {
            "duration": 0.22857120000000464,
            "durationTicks": 384,
            "midi": 86,
            "name": "D6",
            "ticks": 339840,
            "time": 202.285512,
            "velocity": 0.8267716535433071
          },
          {
            "duration": 0.14285699999999224,
            "durationTicks": 240,
            "midi": 87,
            "name": "D#6",
            "ticks": 340320,
            "time": 202.57122600000002,
            "velocity": 0.8267716535433071
          },
          {
            "duration": 0.11428559999998811,
            "durationTicks": 192,
            "midi": 86,
            "name": "D6",
            "ticks": 340560,
            "time": 202.71408300000002,
            "velocity": 0.8267716535433071
          },
          {
            "duration": 0.22857120000000464,
            "durationTicks": 384,
            "midi": 86,
            "name": "D6",
            "ticks": 340800,
            "time": 202.85694,
            "velocity": 0.8267716535433071
          },
          {
            "duration": 0.14285699999999224,
            "durationTicks": 240,
            "midi": 87,
            "name": "D#6",
            "ticks": 341280,
            "time": 203.14265400000002,
            "velocity": 0.8267716535433071
          },
          {
            "duration": 0.11428559999998811,
            "durationTicks": 192,
            "midi": 86,
            "name": "D6",
            "ticks": 341520,
            "time": 203.285511,
            "velocity": 0.8267716535433071
          },
          {
            "duration": 0.4571424000000093,
            "durationTicks": 768,
            "midi": 86,
            "name": "D6",
            "ticks": 341760,
            "time": 203.428368,
            "velocity": 0.8267716535433071
          },
          {
            "duration": 0.42857100000000514,
            "durationTicks": 720,
            "midi": 87,
            "name": "D#6",
            "ticks": 342720,
            "time": 203.999796,
            "velocity": 0.8267716535433071
          },
          {
            "duration": 0.11428559999998811,
            "durationTicks": 192,
            "midi": 84,
            "name": "C6",
            "ticks": 343440,
            "time": 204.428367,
            "velocity": 0.8267716535433071
          },
          {
            "duration": 0.4285709999999767,
            "durationTicks": 720,
            "midi": 82,
            "name": "A#5",
            "ticks": 343680,
            "time": 204.57122400000003,
            "velocity": 0.8267716535433071
          },
          {
            "duration": 0.11428560000001653,
            "durationTicks": 192,
            "midi": 86,
            "name": "D6",
            "ticks": 344400,
            "time": 204.999795,
            "velocity": 0.8267716535433071
          },
          {
            "duration": 0.4285709999999767,
            "durationTicks": 720,
            "midi": 84,
            "name": "C6",
            "ticks": 344640,
            "time": 205.14265200000003,
            "velocity": 0.8267716535433071
          },
          {
            "duration": 0.11428560000001653,
            "durationTicks": 192,
            "midi": 81,
            "name": "A5",
            "ticks": 345360,
            "time": 205.571223,
            "velocity": 0.8267716535433071
          },
          {
            "duration": 0.22857119999997622,
            "durationTicks": 384,
            "midi": 82,
            "name": "A#5",
            "ticks": 345600,
            "time": 205.71408000000002,
            "velocity": 0.7244094488188977
          },
          {
            "duration": 1.1428559999999948,
            "durationTicks": 1920,
            "midi": 87,
            "name": "D#6",
            "ticks": 348480,
            "time": 207.42836400000002,
            "velocity": 0.4566929133858268
          },
          {
            "duration": 0.22857120000000464,
            "durationTicks": 384,
            "midi": 86,
            "name": "D6",
            "ticks": 350400,
            "time": 208.57122,
            "velocity": 0.4566929133858268
          },
          {
            "duration": 1.1428560000000232,
            "durationTicks": 1920,
            "midi": 75,
            "name": "D#5",
            "ticks": 352320,
            "time": 209.714076,
            "velocity": 0.4566929133858268
          },
          {
            "duration": 0.22857119999997622,
            "durationTicks": 384,
            "midi": 74,
            "name": "D5",
            "ticks": 354240,
            "time": 210.85693200000003,
            "velocity": 0.4566929133858268
          },
          {
            "duration": 0.14285699999999224,
            "durationTicks": 240,
            "midi": 87,
            "name": "D#6",
            "ticks": 354720,
            "time": 211.142646,
            "velocity": 0.8267716535433071
          },
          {
            "duration": 0.11428560000001653,
            "durationTicks": 192,
            "midi": 86,
            "name": "D6",
            "ticks": 354960,
            "time": 211.285503,
            "velocity": 0.8267716535433071
          },
          {
            "duration": 0.22857119999997622,
            "durationTicks": 384,
            "midi": 86,
            "name": "D6",
            "ticks": 355200,
            "time": 211.42836000000003,
            "velocity": 0.8267716535433071
          },
          {
            "duration": 0.14285700000002066,
            "durationTicks": 240,
            "midi": 87,
            "name": "D#6",
            "ticks": 355680,
            "time": 211.714074,
            "velocity": 0.8267716535433071
          },
          {
            "duration": 0.11428559999998811,
            "durationTicks": 192,
            "midi": 86,
            "name": "D6",
            "ticks": 355920,
            "time": 211.85693100000003,
            "velocity": 0.8267716535433071
          },
          {
            "duration": 0.22857119999997622,
            "durationTicks": 384,
            "midi": 86,
            "name": "D6",
            "ticks": 356160,
            "time": 211.99978800000002,
            "velocity": 0.8267716535433071
          },
          {
            "duration": 0.14285700000002066,
            "durationTicks": 240,
            "midi": 87,
            "name": "D#6",
            "ticks": 356640,
            "time": 212.285502,
            "velocity": 0.8267716535433071
          },
          {
            "duration": 0.11428559999998811,
            "durationTicks": 192,
            "midi": 86,
            "name": "D6",
            "ticks": 356880,
            "time": 212.42835900000003,
            "velocity": 0.8267716535433071
          },
          {
            "duration": 0.4571424000000093,
            "durationTicks": 768,
            "midi": 86,
            "name": "D6",
            "ticks": 357120,
            "time": 212.57121600000002,
            "velocity": 0.8267716535433071
          },
          {
            "duration": 0.42857100000000514,
            "durationTicks": 720,
            "midi": 87,
            "name": "D#6",
            "ticks": 358080,
            "time": 213.14264400000002,
            "velocity": 0.8267716535433071
          },
          {
            "duration": 0.11428559999998811,
            "durationTicks": 192,
            "midi": 84,
            "name": "C6",
            "ticks": 358800,
            "time": 213.57121500000002,
            "velocity": 0.8267716535433071
          },
          {
            "duration": 0.42857100000000514,
            "durationTicks": 720,
            "midi": 82,
            "name": "A#5",
            "ticks": 359040,
            "time": 213.71407200000002,
            "velocity": 0.8267716535433071
          },
          {
            "duration": 0.11428559999998811,
            "durationTicks": 192,
            "midi": 86,
            "name": "D6",
            "ticks": 359760,
            "time": 214.14264300000002,
            "velocity": 0.8267716535433071
          },
          {
            "duration": 0.42857100000000514,
            "durationTicks": 720,
            "midi": 84,
            "name": "C6",
            "ticks": 360000,
            "time": 214.2855,
            "velocity": 0.8267716535433071
          },
          {
            "duration": 0.11428559999998811,
            "durationTicks": 192,
            "midi": 81,
            "name": "A5",
            "ticks": 360720,
            "time": 214.71407100000002,
            "velocity": 0.8267716535433071
          },
          {
            "duration": 0.11428559999998811,
            "durationTicks": 192,
            "midi": 82,
            "name": "A#5",
            "ticks": 360960,
            "time": 214.856928,
            "velocity": 0.8267716535433071
          },
          {
            "duration": 0.11428559999998811,
            "durationTicks": 192,
            "midi": 77,
            "name": "F5",
            "ticks": 361200,
            "time": 214.99978500000003,
            "velocity": 0.8267716535433071
          },
          {
            "duration": 0.11428559999998811,
            "durationTicks": 192,
            "midi": 86,
            "name": "D6",
            "ticks": 361440,
            "time": 215.14264200000002,
            "velocity": 0.8267716535433071
          },
          {
            "duration": 0.11428559999998811,
            "durationTicks": 192,
            "midi": 84,
            "name": "C6",
            "ticks": 361680,
            "time": 215.28549900000002,
            "velocity": 0.8267716535433071
          },
          {
            "duration": 0.11428560000001653,
            "durationTicks": 192,
            "midi": 82,
            "name": "A#5",
            "ticks": 361920,
            "time": 215.428356,
            "velocity": 0.8267716535433071
          },
          {
            "duration": 0.11428559999998811,
            "durationTicks": 192,
            "midi": 81,
            "name": "A5",
            "ticks": 362160,
            "time": 215.57121300000003,
            "velocity": 0.8267716535433071
          },
          {
            "duration": 0.11428559999998811,
            "durationTicks": 192,
            "midi": 79,
            "name": "G5",
            "ticks": 362400,
            "time": 215.71407000000002,
            "velocity": 0.8267716535433071
          },
          {
            "duration": 0.11428559999998811,
            "durationTicks": 192,
            "midi": 77,
            "name": "F5",
            "ticks": 362640,
            "time": 215.856927,
            "velocity": 0.8267716535433071
          },
          {
            "duration": 0.11428560000001653,
            "durationTicks": 192,
            "midi": 75,
            "name": "D#5",
            "ticks": 362880,
            "time": 215.999784,
            "velocity": 0.8267716535433071
          },
          {
            "duration": 0.11428559999998811,
            "durationTicks": 192,
            "midi": 74,
            "name": "D5",
            "ticks": 363120,
            "time": 216.14264100000003,
            "velocity": 0.8267716535433071
          },
          {
            "duration": 0.11428559999998811,
            "durationTicks": 192,
            "midi": 72,
            "name": "C5",
            "ticks": 363360,
            "time": 216.28549800000002,
            "velocity": 0.8267716535433071
          },
          {
            "duration": 0.11428559999998811,
            "durationTicks": 192,
            "midi": 70,
            "name": "A#4",
            "ticks": 363600,
            "time": 216.428355,
            "velocity": 0.8267716535433071
          },
          {
            "duration": 0.11428559999998811,
            "durationTicks": 192,
            "midi": 69,
            "name": "A4",
            "ticks": 363840,
            "time": 216.57121200000003,
            "velocity": 0.8267716535433071
          },
          {
            "duration": 0.11428559999998811,
            "durationTicks": 192,
            "midi": 67,
            "name": "G4",
            "ticks": 364080,
            "time": 216.71406900000002,
            "velocity": 0.8267716535433071
          },
          {
            "duration": 0.11428559999998811,
            "durationTicks": 192,
            "midi": 65,
            "name": "F4",
            "ticks": 364320,
            "time": 216.85692600000002,
            "velocity": 0.8267716535433071
          },
          {
            "duration": 0.11428560000001653,
            "durationTicks": 192,
            "midi": 63,
            "name": "D#4",
            "ticks": 364560,
            "time": 216.999783,
            "velocity": 0.8267716535433071
          },
          {
            "duration": 0.1999998000000005,
            "durationTicks": 336,
            "midi": 62,
            "name": "D4",
            "ticks": 364800,
            "time": 217.14264000000003,
            "velocity": 0.8267716535433071
          },
          {
            "duration": 0.19999980000002893,
            "durationTicks": 336,
            "midi": 77,
            "name": "F5",
            "ticks": 365280,
            "time": 217.428354,
            "velocity": 0.8267716535433071
          },
          {
            "duration": 0.1999998000000005,
            "durationTicks": 336,
            "midi": 79,
            "name": "G5",
            "ticks": 365760,
            "time": 217.71406800000003,
            "velocity": 0.8267716535433071
          },
          {
            "duration": 0.19999980000002893,
            "durationTicks": 336,
            "midi": 69,
            "name": "A4",
            "ticks": 366240,
            "time": 217.999782,
            "velocity": 0.8267716535433071
          },
          {
            "duration": 0.11428559999998811,
            "durationTicks": 192,
            "midi": 70,
            "name": "A#4",
            "ticks": 366720,
            "time": 218.28549600000002,
            "velocity": 0.8267716535433071
          },
          {
            "duration": 0.11428559999998811,
            "durationTicks": 192,
            "midi": 65,
            "name": "F4",
            "ticks": 366960,
            "time": 218.42835300000002,
            "velocity": 0.8267716535433071
          },
          {
            "duration": 0.11428560000001653,
            "durationTicks": 192,
            "midi": 74,
            "name": "D5",
            "ticks": 367200,
            "time": 218.57121,
            "velocity": 0.8267716535433071
          },
          {
            "duration": 0.11428559999998811,
            "durationTicks": 192,
            "midi": 72,
            "name": "C5",
            "ticks": 367440,
            "time": 218.71406700000003,
            "velocity": 0.8267716535433071
          },
          {
            "duration": 0.11428559999998811,
            "durationTicks": 192,
            "midi": 70,
            "name": "A#4",
            "ticks": 367680,
            "time": 218.85692400000002,
            "velocity": 0.8267716535433071
          },
          {
            "duration": 0.11428559999998811,
            "durationTicks": 192,
            "midi": 69,
            "name": "A4",
            "ticks": 367920,
            "time": 218.999781,
            "velocity": 0.8267716535433071
          },
          {
            "duration": 0.11428560000001653,
            "durationTicks": 192,
            "midi": 67,
            "name": "G4",
            "ticks": 368160,
            "time": 219.142638,
            "velocity": 0.8267716535433071
          },
          {
            "duration": 0.11428559999998811,
            "durationTicks": 192,
            "midi": 65,
            "name": "F4",
            "ticks": 368400,
            "time": 219.28549500000003,
            "velocity": 0.8267716535433071
          },
          {
            "duration": 0.11428559999998811,
            "durationTicks": 192,
            "midi": 63,
            "name": "D#4",
            "ticks": 368640,
            "time": 219.42835200000002,
            "velocity": 0.8267716535433071
          },
          {
            "duration": 0.11428559999998811,
            "durationTicks": 192,
            "midi": 62,
            "name": "D4",
            "ticks": 368880,
            "time": 219.571209,
            "velocity": 0.8267716535433071
          },
          {
            "duration": 0.11428559999998811,
            "durationTicks": 192,
            "midi": 60,
            "name": "C4",
            "ticks": 369120,
            "time": 219.71406600000003,
            "velocity": 0.8267716535433071
          },
          {
            "duration": 0.11428559999998811,
            "durationTicks": 192,
            "midi": 58,
            "name": "A#3",
            "ticks": 369360,
            "time": 219.85692300000002,
            "velocity": 0.8267716535433071
          },
          {
            "duration": 0.11428559999998811,
            "durationTicks": 192,
            "midi": 57,
            "name": "A3",
            "ticks": 369600,
            "time": 219.99978000000002,
            "velocity": 0.8267716535433071
          },
          {
            "duration": 0.11428560000001653,
            "durationTicks": 192,
            "midi": 60,
            "name": "C4",
            "ticks": 369840,
            "time": 220.142637,
            "velocity": 0.8267716535433071
          },
          {
            "duration": 0.11428559999998811,
            "durationTicks": 192,
            "midi": 65,
            "name": "F4",
            "ticks": 370080,
            "time": 220.28549400000003,
            "velocity": 0.8267716535433071
          },
          {
            "duration": 0.11428559999998811,
            "durationTicks": 192,
            "midi": 63,
            "name": "D#4",
            "ticks": 370320,
            "time": 220.42835100000002,
            "velocity": 0.8267716535433071
          },
          {
            "duration": 0.19999980000002893,
            "durationTicks": 336,
            "midi": 62,
            "name": "D4",
            "ticks": 370560,
            "time": 220.571208,
            "velocity": 0.8267716535433071
          },
          {
            "duration": 0.1999998000000005,
            "durationTicks": 336,
            "midi": 77,
            "name": "F5",
            "ticks": 371040,
            "time": 220.85692200000003,
            "velocity": 0.8267716535433071
          },
          {
            "duration": 0.19999980000002893,
            "durationTicks": 336,
            "midi": 79,
            "name": "G5",
            "ticks": 371520,
            "time": 221.142636,
            "velocity": 0.8267716535433071
          },
          {
            "duration": 0.1999998000000005,
            "durationTicks": 336,
            "midi": 81,
            "name": "A5",
            "ticks": 372000,
            "time": 221.42835000000002,
            "velocity": 0.8267716535433071
          },
          {
            "duration": 0.19999980000002893,
            "durationTicks": 336,
            "midi": 82,
            "name": "A#5",
            "ticks": 372480,
            "time": 221.714064,
            "velocity": 0.8267716535433071
          },
          {
            "duration": 0.1999998000000005,
            "durationTicks": 336,
            "midi": 79,
            "name": "G5",
            "ticks": 372960,
            "time": 221.99977800000002,
            "velocity": 0.8267716535433071
          },
          {
            "duration": 0.19999980000002893,
            "durationTicks": 336,
            "midi": 77,
            "name": "F5",
            "ticks": 373440,
            "time": 222.285492,
            "velocity": 0.8267716535433071
          },
          {
            "duration": 0.1999998000000005,
            "durationTicks": 336,
            "midi": 69,
            "name": "A4",
            "ticks": 373920,
            "time": 222.57120600000002,
            "velocity": 0.8267716535433071
          },
          {
            "duration": 0.14285699999999224,
            "durationTicks": 240,
            "midi": 70,
            "name": "A#4",
            "ticks": 374400,
            "time": 222.85692000000003,
            "velocity": 0.8267716535433071
          },
          {
            "duration": 0.08571419999998398,
            "durationTicks": 144,
            "midi": 74,
            "name": "D5",
            "ticks": 374640,
            "time": 222.99977700000002,
            "velocity": 0.8267716535433071
          },
          {
            "duration": 0.08571419999998398,
            "durationTicks": 144,
            "midi": 77,
            "name": "F5",
            "ticks": 374880,
            "time": 223.14263400000002,
            "velocity": 0.8267716535433071
          },
          {
            "duration": 0.08571419999998398,
            "durationTicks": 144,
            "midi": 82,
            "name": "A#5",
            "ticks": 375120,
            "time": 223.285491,
            "velocity": 0.8267716535433071
          },
          {
            "duration": 0.14285699999999224,
            "durationTicks": 240,
            "midi": 81,
            "name": "A5",
            "ticks": 375360,
            "time": 223.42834800000003,
            "velocity": 0.8267716535433071
          },
          {
            "duration": 0.08571419999998398,
            "durationTicks": 144,
            "midi": 77,
            "name": "F5",
            "ticks": 375600,
            "time": 223.57120500000002,
            "velocity": 0.8267716535433071
          },
          {
            "duration": 0.08571419999998398,
            "durationTicks": 144,
            "midi": 84,
            "name": "C6",
            "ticks": 375840,
            "time": 223.714062,
            "velocity": 0.8267716535433071
          },
          {
            "duration": 0.0857142000000124,
            "durationTicks": 144,
            "midi": 81,
            "name": "A5",
            "ticks": 376080,
            "time": 223.856919,
            "velocity": 0.8267716535433071
          },
          {
            "duration": 0.14285699999999224,
            "durationTicks": 240,
            "midi": 82,
            "name": "A#5",
            "ticks": 376320,
            "time": 223.99977600000003,
            "velocity": 0.8267716535433071
          },
          {
            "duration": 0.08571419999998398,
            "durationTicks": 144,
            "midi": 77,
            "name": "F5",
            "ticks": 376560,
            "time": 224.14263300000002,
            "velocity": 0.8267716535433071
          },
          {
            "duration": 0.08571419999998398,
            "durationTicks": 144,
            "midi": 86,
            "name": "D6",
            "ticks": 376800,
            "time": 224.28549,
            "velocity": 0.8267716535433071
          },
          {
            "duration": 0.08571419999998398,
            "durationTicks": 144,
            "midi": 82,
            "name": "A#5",
            "ticks": 377040,
            "time": 224.42834700000003,
            "velocity": 0.8267716535433071
          },
          {
            "duration": 0.14285699999999224,
            "durationTicks": 240,
            "midi": 81,
            "name": "A5",
            "ticks": 377280,
            "time": 224.57120400000002,
            "velocity": 0.8267716535433071
          },
          {
            "duration": 0.08571419999998398,
            "durationTicks": 144,
            "midi": 77,
            "name": "F5",
            "ticks": 377520,
            "time": 224.71406100000002,
            "velocity": 0.8267716535433071
          },
          {
            "duration": 0.08571419999998398,
            "durationTicks": 144,
            "midi": 84,
            "name": "C6",
            "ticks": 377760,
            "time": 224.856918,
            "velocity": 0.8267716535433071
          },
          {
            "duration": 0.08571419999998398,
            "durationTicks": 144,
            "midi": 81,
            "name": "A5",
            "ticks": 378000,
            "time": 224.99977500000003,
            "velocity": 0.8267716535433071
          },
          {
            "duration": 0.14285699999999224,
            "durationTicks": 240,
            "midi": 82,
            "name": "A#5",
            "ticks": 378240,
            "time": 225.14263200000002,
            "velocity": 0.8267716535433071
          },
          {
            "duration": 0.08571419999998398,
            "durationTicks": 144,
            "midi": 77,
            "name": "F5",
            "ticks": 378480,
            "time": 225.285489,
            "velocity": 0.8267716535433071
          },
          {
            "duration": 0.0857142000000124,
            "durationTicks": 144,
            "midi": 86,
            "name": "D6",
            "ticks": 378720,
            "time": 225.428346,
            "velocity": 0.8267716535433071
          },
          {
            "duration": 0.08571419999998398,
            "durationTicks": 144,
            "midi": 82,
            "name": "A#5",
            "ticks": 378960,
            "time": 225.57120300000003,
            "velocity": 0.8267716535433071
          },
          {
            "duration": 0.14285699999999224,
            "durationTicks": 240,
            "midi": 81,
            "name": "A5",
            "ticks": 379200,
            "time": 225.71406000000002,
            "velocity": 0.8267716535433071
          },
          {
            "duration": 0.08571419999998398,
            "durationTicks": 144,
            "midi": 77,
            "name": "F5",
            "ticks": 379440,
            "time": 225.856917,
            "velocity": 0.8267716535433071
          },
          {
            "duration": 0.08571419999998398,
            "durationTicks": 144,
            "midi": 84,
            "name": "C6",
            "ticks": 379680,
            "time": 225.99977400000003,
            "velocity": 0.8267716535433071
          },
          {
            "duration": 0.08571419999998398,
            "durationTicks": 144,
            "midi": 81,
            "name": "A5",
            "ticks": 379920,
            "time": 226.14263100000002,
            "velocity": 0.8267716535433071
          },
          {
            "duration": 0.14285699999999224,
            "durationTicks": 240,
            "midi": 82,
            "name": "A#5",
            "ticks": 380160,
            "time": 226.28548800000002,
            "velocity": 0.8267716535433071
          },
          {
            "duration": 0.0857142000000124,
            "durationTicks": 144,
            "midi": 86,
            "name": "D6",
            "ticks": 380400,
            "time": 226.428345,
            "velocity": 0.8267716535433071
          },
          {
            "duration": 0.08571419999998398,
            "durationTicks": 144,
            "midi": 84,
            "name": "C6",
            "ticks": 380640,
            "time": 226.57120200000003,
            "velocity": 0.8267716535433071
          },
          {
            "duration": 0.08571419999998398,
            "durationTicks": 144,
            "midi": 81,
            "name": "A5",
            "ticks": 380880,
            "time": 226.71405900000002,
            "velocity": 0.8267716535433071
          },
          {
            "duration": 0.14285699999999224,
            "durationTicks": 240,
            "midi": 82,
            "name": "A#5",
            "ticks": 381120,
            "time": 226.856916,
            "velocity": 0.8267716535433071
          },
          {
            "duration": 0.0857142000000124,
            "durationTicks": 144,
            "midi": 86,
            "name": "D6",
            "ticks": 381360,
            "time": 226.999773,
            "velocity": 0.8267716535433071
          },
          {
            "duration": 0.08571419999998398,
            "durationTicks": 144,
            "midi": 84,
            "name": "C6",
            "ticks": 381600,
            "time": 227.14263000000003,
            "velocity": 0.8267716535433071
          },
          {
            "duration": 0.08571419999998398,
            "durationTicks": 144,
            "midi": 81,
            "name": "A5",
            "ticks": 381840,
            "time": 227.28548700000002,
            "velocity": 0.8267716535433071
          },
          {
            "duration": 0.22857120000000464,
            "durationTicks": 384,
            "midi": 82,
            "name": "A#5",
            "ticks": 382080,
            "time": 227.428344,
            "velocity": 0.8267716535433071
          },
          {
            "duration": 0.22857119999997622,
            "durationTicks": 384,
            "midi": 62,
            "name": "D4",
            "ticks": 384000,
            "time": 228.57120000000003,
            "velocity": 0.8267716535433071
          },
          {
            "duration": 0.22857119999997622,
            "durationTicks": 384,
            "midi": 72,
            "name": "C5",
            "ticks": 384000,
            "time": 228.57120000000003,
            "velocity": 0.8267716535433071
          },
          {
            "duration": 0.22857119999997622,
            "durationTicks": 384,
            "midi": 78,
            "name": "F#5",
            "ticks": 384000,
            "time": 228.57120000000003,
            "velocity": 0.8267716535433071
          },
          {
            "duration": 0.22857119999997622,
            "durationTicks": 384,
            "midi": 62,
            "name": "D4",
            "ticks": 385920,
            "time": 229.71405600000003,
            "velocity": 0.8267716535433071
          },
          {
            "duration": 0.22857119999997622,
            "durationTicks": 384,
            "midi": 70,
            "name": "A#4",
            "ticks": 385920,
            "time": 229.71405600000003,
            "velocity": 0.8267716535433071
          },
          {
            "duration": 0.22857119999997622,
            "durationTicks": 384,
            "midi": 79,
            "name": "G5",
            "ticks": 385920,
            "time": 229.71405600000003,
            "velocity": 0.8267716535433071
          },
          {
            "duration": 0.22857119999997622,
            "durationTicks": 384,
            "midi": 62,
            "name": "D4",
            "ticks": 386880,
            "time": 230.28548400000003,
            "velocity": 0.8267716535433071
          },
          {
            "duration": 0.22857119999997622,
            "durationTicks": 384,
            "midi": 71,
            "name": "B4",
            "ticks": 386880,
            "time": 230.28548400000003,
            "velocity": 0.8267716535433071
          },
          {
            "duration": 0.22857119999997622,
            "durationTicks": 384,
            "midi": 80,
            "name": "G#5",
            "ticks": 386880,
            "time": 230.28548400000003,
            "velocity": 0.8267716535433071
          },
          {
            "duration": 0.14285699999999224,
            "durationTicks": 240,
            "midi": 74,
            "name": "D5",
            "ticks": 391200,
            "time": 232.85691000000003,
            "velocity": 0.5511811023622047
          },
          {
            "duration": 0.11428559999998811,
            "durationTicks": 192,
            "midi": 73,
            "name": "C#5",
            "ticks": 391440,
            "time": 232.99976700000002,
            "velocity": 0.5511811023622047
          },
          {
            "duration": 0.22857120000000464,
            "durationTicks": 384,
            "midi": 73,
            "name": "C#5",
            "ticks": 391680,
            "time": 233.142624,
            "velocity": 0.5511811023622047
          },
          {
            "duration": 0.14285699999999224,
            "durationTicks": 240,
            "midi": 74,
            "name": "D5",
            "ticks": 392160,
            "time": 233.42833800000002,
            "velocity": 0.5511811023622047
          },
          {
            "duration": 0.11428559999998811,
            "durationTicks": 192,
            "midi": 73,
            "name": "C#5",
            "ticks": 392400,
            "time": 233.57119500000002,
            "velocity": 0.5511811023622047
          },
          {
            "duration": 0.22857120000000464,
            "durationTicks": 384,
            "midi": 73,
            "name": "C#5",
            "ticks": 392640,
            "time": 233.714052,
            "velocity": 0.5511811023622047
          },
          {
            "duration": 0.14285699999999224,
            "durationTicks": 240,
            "midi": 74,
            "name": "D5",
            "ticks": 393120,
            "time": 233.99976600000002,
            "velocity": 0.5511811023622047
          },
          {
            "duration": 0.11428559999998811,
            "durationTicks": 192,
            "midi": 73,
            "name": "C#5",
            "ticks": 393360,
            "time": 234.14262300000001,
            "velocity": 0.5511811023622047
          },
          {
            "duration": 0.2857140000000129,
            "durationTicks": 480,
            "midi": 73,
            "name": "C#5",
            "ticks": 393600,
            "time": 234.28548,
            "velocity": 0.5511811023622047
          },
          {
            "duration": 0.22857119999997622,
            "durationTicks": 384,
            "midi": 81,
            "name": "A5",
            "ticks": 394080,
            "time": 234.57119400000002,
            "velocity": 0.5511811023622047
          },
          {
            "duration": 0.14285699999999224,
            "durationTicks": 240,
            "midi": 81,
            "name": "A5",
            "ticks": 395040,
            "time": 235.14262200000002,
            "velocity": 0.5511811023622047
          },
          {
            "duration": 0.11428560000001653,
            "durationTicks": 192,
            "midi": 80,
            "name": "G#5",
            "ticks": 395280,
            "time": 235.285479,
            "velocity": 0.5511811023622047
          },
          {
            "duration": 0.22857119999997622,
            "durationTicks": 384,
            "midi": 78,
            "name": "F#5",
            "ticks": 395520,
            "time": 235.42833600000003,
            "velocity": 0.5511811023622047
          },
          {
            "duration": 0.14285699999999224,
            "durationTicks": 240,
            "midi": 78,
            "name": "F#5",
            "ticks": 396000,
            "time": 235.71405000000001,
            "velocity": 0.5511811023622047
          },
          {
            "duration": 0.11428560000001653,
            "durationTicks": 192,
            "midi": 76,
            "name": "E5",
            "ticks": 396240,
            "time": 235.856907,
            "velocity": 0.5511811023622047
          },
          {
            "duration": 0.22857119999997622,
            "durationTicks": 384,
            "midi": 74,
            "name": "D5",
            "ticks": 396480,
            "time": 235.99976400000003,
            "velocity": 0.5511811023622047
          },
          {
            "duration": 0.14285700000002066,
            "durationTicks": 240,
            "midi": 74,
            "name": "D5",
            "ticks": 396960,
            "time": 236.285478,
            "velocity": 0.5511811023622047
          },
          {
            "duration": 0.11428559999998811,
            "durationTicks": 192,
            "midi": 73,
            "name": "C#5",
            "ticks": 397200,
            "time": 236.42833500000003,
            "velocity": 0.5511811023622047
          },
          {
            "duration": 0.22857119999997622,
            "durationTicks": 384,
            "midi": 72,
            "name": "C5",
            "ticks": 397440,
            "time": 236.57119200000002,
            "velocity": 0.5511811023622047
          },
          {
            "duration": 0.22857120000000464,
            "durationTicks": 384,
            "midi": 72,
            "name": "C5",
            "ticks": 397920,
            "time": 236.856906,
            "velocity": 0.5511811023622047
          },
          {
            "duration": 0.14285700000002066,
            "durationTicks": 240,
            "midi": 73,
            "name": "C#5",
            "ticks": 398880,
            "time": 237.428334,
            "velocity": 0.5511811023622047
          },
          {
            "duration": 0.11428559999998811,
            "durationTicks": 192,
            "midi": 71,
            "name": "B4",
            "ticks": 399120,
            "time": 237.57119100000003,
            "velocity": 0.5511811023622047
          },
          {
            "duration": 0.22857119999997622,
            "durationTicks": 384,
            "midi": 71,
            "name": "B4",
            "ticks": 399360,
            "time": 237.71404800000002,
            "velocity": 0.5511811023622047
          },
          {
            "duration": 0.14285699999999224,
            "durationTicks": 240,
            "midi": 73,
            "name": "C#5",
            "ticks": 399840,
            "time": 237.99976200000003,
            "velocity": 0.5511811023622047
          },
          {
            "duration": 0.11428559999998811,
            "durationTicks": 192,
            "midi": 71,
            "name": "B4",
            "ticks": 400080,
            "time": 238.14261900000002,
            "velocity": 0.5511811023622047
          },
          {
            "duration": 0.22857119999997622,
            "durationTicks": 384,
            "midi": 71,
            "name": "B4",
            "ticks": 400320,
            "time": 238.28547600000002,
            "velocity": 0.5511811023622047
          },
          {
            "duration": 0.14285699999999224,
            "durationTicks": 240,
            "midi": 73,
            "name": "C#5",
            "ticks": 400800,
            "time": 238.57119000000003,
            "velocity": 0.5511811023622047
          },
          {
            "duration": 0.11428559999998811,
            "durationTicks": 192,
            "midi": 71,
            "name": "B4",
            "ticks": 401040,
            "time": 238.71404700000002,
            "velocity": 0.5511811023622047
          },
          {
            "duration": 0.2857140000000129,
            "durationTicks": 480,
            "midi": 71,
            "name": "B4",
            "ticks": 401280,
            "time": 238.85690400000001,
            "velocity": 0.5511811023622047
          },
          {
            "duration": 0.22857119999997622,
            "durationTicks": 384,
            "midi": 80,
            "name": "G#5",
            "ticks": 401760,
            "time": 239.14261800000003,
            "velocity": 0.5511811023622047
          },
          {
            "duration": 0.14285699999999224,
            "durationTicks": 240,
            "midi": 80,
            "name": "G#5",
            "ticks": 402720,
            "time": 239.71404600000002,
            "velocity": 0.5511811023622047
          },
          {
            "duration": 0.11428559999998811,
            "durationTicks": 192,
            "midi": 78,
            "name": "F#5",
            "ticks": 402960,
            "time": 239.85690300000002,
            "velocity": 0.5511811023622047
          },
          {
            "duration": 0.22857120000000464,
            "durationTicks": 384,
            "midi": 77,
            "name": "F5",
            "ticks": 403200,
            "time": 239.99976,
            "velocity": 0.5511811023622047
          },
          {
            "duration": 0.14285699999999224,
            "durationTicks": 240,
            "midi": 77,
            "name": "F5",
            "ticks": 403680,
            "time": 240.28547400000002,
            "velocity": 0.5511811023622047
          },
          {
            "duration": 0.11428559999998811,
            "durationTicks": 192,
            "midi": 74,
            "name": "D5",
            "ticks": 403920,
            "time": 240.42833100000001,
            "velocity": 0.5511811023622047
          },
          {
            "duration": 0.22857120000000464,
            "durationTicks": 384,
            "midi": 73,
            "name": "C#5",
            "ticks": 404160,
            "time": 240.571188,
            "velocity": 0.5511811023622047
          },
          {
            "duration": 0.14285699999999224,
            "durationTicks": 240,
            "midi": 73,
            "name": "C#5",
            "ticks": 404640,
            "time": 240.85690200000002,
            "velocity": 0.5511811023622047
          },
          {
            "duration": 0.11428559999998811,
            "durationTicks": 192,
            "midi": 71,
            "name": "B4",
            "ticks": 404880,
            "time": 240.999759,
            "velocity": 0.5511811023622047
          },
          {
            "duration": 0.22857119999997622,
            "durationTicks": 384,
            "midi": 70,
            "name": "A#4",
            "ticks": 405120,
            "time": 241.14261600000003,
            "velocity": 0.5511811023622047
          },
          {
            "duration": 0.22857119999997622,
            "durationTicks": 384,
            "midi": 70,
            "name": "A#4",
            "ticks": 405600,
            "time": 241.42833000000002,
            "velocity": 0.5511811023622047
          },
          {
            "duration": 0.14285699999999224,
            "durationTicks": 240,
            "midi": 71,
            "name": "B4",
            "ticks": 406560,
            "time": 241.999758,
            "velocity": 0.5511811023622047
          },
          {
            "duration": 0.11428560000001653,
            "durationTicks": 192,
            "midi": 69,
            "name": "A4",
            "ticks": 406800,
            "time": 242.142615,
            "velocity": 0.5511811023622047
          },
          {
            "duration": 0.22857119999997622,
            "durationTicks": 384,
            "midi": 69,
            "name": "A4",
            "ticks": 407040,
            "time": 242.28547200000003,
            "velocity": 0.5511811023622047
          },
          {
            "duration": 0.14285700000002066,
            "durationTicks": 240,
            "midi": 71,
            "name": "B4",
            "ticks": 407520,
            "time": 242.571186,
            "velocity": 0.5511811023622047
          },
          {
            "duration": 0.11428559999998811,
            "durationTicks": 192,
            "midi": 69,
            "name": "A4",
            "ticks": 407760,
            "time": 242.71404300000003,
            "velocity": 0.5511811023622047
          },
          {
            "duration": 0.22857119999997622,
            "durationTicks": 384,
            "midi": 69,
            "name": "A4",
            "ticks": 408000,
            "time": 242.85690000000002,
            "velocity": 0.5511811023622047
          },
          {
            "duration": 0.14285700000002066,
            "durationTicks": 240,
            "midi": 71,
            "name": "B4",
            "ticks": 408480,
            "time": 243.142614,
            "velocity": 0.5511811023622047
          },
          {
            "duration": 0.11428559999998811,
            "durationTicks": 192,
            "midi": 69,
            "name": "A4",
            "ticks": 408720,
            "time": 243.28547100000003,
            "velocity": 0.5511811023622047
          },
          {
            "duration": 0.2857139999999845,
            "durationTicks": 480,
            "midi": 69,
            "name": "A4",
            "ticks": 408960,
            "time": 243.42832800000002,
            "velocity": 0.5511811023622047
          },
          {
            "duration": 0.22857120000000464,
            "durationTicks": 384,
            "midi": 78,
            "name": "F#5",
            "ticks": 409440,
            "time": 243.714042,
            "velocity": 0.5511811023622047
          },
          {
            "duration": 0.14285699999999224,
            "durationTicks": 240,
            "midi": 78,
            "name": "F#5",
            "ticks": 410400,
            "time": 244.28547000000003,
            "velocity": 0.5511811023622047
          },
          {
            "duration": 0.11428559999998811,
            "durationTicks": 192,
            "midi": 76,
            "name": "E5",
            "ticks": 410640,
            "time": 244.42832700000002,
            "velocity": 0.5511811023622047
          },
          {
            "duration": 0.22857120000000464,
            "durationTicks": 384,
            "midi": 75,
            "name": "D#5",
            "ticks": 410880,
            "time": 244.57118400000002,
            "velocity": 0.5511811023622047
          },
          {
            "duration": 0.14285699999999224,
            "durationTicks": 240,
            "midi": 75,
            "name": "D#5",
            "ticks": 411360,
            "time": 244.85689800000003,
            "velocity": 0.5511811023622047
          },
          {
            "duration": 0.11428559999998811,
            "durationTicks": 192,
            "midi": 72,
            "name": "C5",
            "ticks": 411600,
            "time": 244.99975500000002,
            "velocity": 0.5511811023622047
          },
          {
            "duration": 0.08571419999998398,
            "durationTicks": 144,
            "midi": 71,
            "name": "B4",
            "ticks": 411840,
            "time": 245.142612,
            "velocity": 0.5511811023622047
          },
          {
            "duration": 0.0857142000000124,
            "durationTicks": 144,
            "midi": 75,
            "name": "D#5",
            "ticks": 412080,
            "time": 245.285469,
            "velocity": 0.7244094488188977
          },
          {
            "duration": 0.08571419999998398,
            "durationTicks": 144,
            "midi": 78,
            "name": "F#5",
            "ticks": 412320,
            "time": 245.42832600000003,
            "velocity": 0.7244094488188977
          },
          {
            "duration": 0.08571419999998398,
            "durationTicks": 144,
            "midi": 69,
            "name": "A4",
            "ticks": 412560,
            "time": 245.57118300000002,
            "velocity": 0.7244094488188977
          },
          {
            "duration": 0.08571419999998398,
            "durationTicks": 144,
            "midi": 67,
            "name": "G4",
            "ticks": 412800,
            "time": 245.71404,
            "velocity": 0.7244094488188977
          },
          {
            "duration": 0.08571419999998398,
            "durationTicks": 144,
            "midi": 71,
            "name": "B4",
            "ticks": 413040,
            "time": 245.85689700000003,
            "velocity": 0.7244094488188977
          },
          {
            "duration": 0.08571419999998398,
            "durationTicks": 144,
            "midi": 76,
            "name": "E5",
            "ticks": 413280,
            "time": 245.99975400000002,
            "velocity": 0.7244094488188977
          },
          {
            "duration": 0.08571419999998398,
            "durationTicks": 144,
            "midi": 69,
            "name": "A4",
            "ticks": 413520,
            "time": 246.14261100000002,
            "velocity": 0.7244094488188977
          },
          {
            "duration": 0.0857142000000124,
            "durationTicks": 144,
            "midi": 66,
            "name": "F#4",
            "ticks": 413760,
            "time": 246.285468,
            "velocity": 0.7244094488188977
          },
          {
            "duration": 0.08571419999998398,
            "durationTicks": 144,
            "midi": 69,
            "name": "A4",
            "ticks": 414000,
            "time": 246.42832500000003,
            "velocity": 0.7244094488188977
          },
          {
            "duration": 0.08571419999998398,
            "durationTicks": 144,
            "midi": 75,
            "name": "D#5",
            "ticks": 414240,
            "time": 246.57118200000002,
            "velocity": 0.7244094488188977
          },
          {
            "duration": 0.08571419999998398,
            "durationTicks": 144,
            "midi": 66,
            "name": "F#4",
            "ticks": 414480,
            "time": 246.714039,
            "velocity": 0.7244094488188977
          },
          {
            "duration": 0.0857142000000124,
            "durationTicks": 144,
            "midi": 67,
            "name": "G4",
            "ticks": 414720,
            "time": 246.856896,
            "velocity": 0.7244094488188977
          },
          {
            "duration": 0.08571419999998398,
            "durationTicks": 144,
            "midi": 71,
            "name": "B4",
            "ticks": 414960,
            "time": 246.99975300000003,
            "velocity": 0.7244094488188977
          },
          {
            "duration": 0.08571419999998398,
            "durationTicks": 144,
            "midi": 73,
            "name": "C#5",
            "ticks": 415200,
            "time": 247.14261000000002,
            "velocity": 0.7244094488188977
          },
          {
            "duration": 0.08571419999998398,
            "durationTicks": 144,
            "midi": 75,
            "name": "D#5",
            "ticks": 415440,
            "time": 247.285467,
            "velocity": 0.7244094488188977
          },
          {
            "duration": 0.08571419999998398,
            "durationTicks": 144,
            "midi": 76,
            "name": "E5",
            "ticks": 415680,
            "time": 247.42832400000003,
            "velocity": 0.7244094488188977
          },
          {
            "duration": 0.08571419999998398,
            "durationTicks": 144,
            "midi": 71,
            "name": "B4",
            "ticks": 415920,
            "time": 247.57118100000002,
            "velocity": 0.7244094488188977
          },
          {
            "duration": 0.08571419999998398,
            "durationTicks": 144,
            "midi": 76,
            "name": "E5",
            "ticks": 416160,
            "time": 247.71403800000002,
            "velocity": 0.7244094488188977
          },
          {
            "duration": 0.0857142000000124,
            "durationTicks": 144,
            "midi": 78,
            "name": "F#5",
            "ticks": 416400,
            "time": 247.856895,
            "velocity": 0.7244094488188977
          },
          {
            "duration": 0.08571419999998398,
            "durationTicks": 144,
            "midi": 79,
            "name": "G5",
            "ticks": 416640,
            "time": 247.99975200000003,
            "velocity": 0.7244094488188977
          },
          {
            "duration": 0.08571419999998398,
            "durationTicks": 144,
            "midi": 76,
            "name": "E5",
            "ticks": 416880,
            "time": 248.14260900000002,
            "velocity": 0.7244094488188977
          },
          {
            "duration": 0.08571419999998398,
            "durationTicks": 144,
            "midi": 78,
            "name": "F#5",
            "ticks": 417120,
            "time": 248.285466,
            "velocity": 0.7244094488188977
          },
          {
            "duration": 0.08571419999998398,
            "durationTicks": 144,
            "midi": 80,
            "name": "G#5",
            "ticks": 417360,
            "time": 248.42832300000003,
            "velocity": 0.7244094488188977
          },
          {
            "duration": 0.08571419999998398,
            "durationTicks": 144,
            "midi": 81,
            "name": "A5",
            "ticks": 417600,
            "time": 248.57118000000003,
            "velocity": 0.7244094488188977
          },
          {
            "duration": 0.08571419999998398,
            "durationTicks": 144,
            "midi": 76,
            "name": "E5",
            "ticks": 417840,
            "time": 248.71403700000002,
            "velocity": 0.7244094488188977
          },
          {
            "duration": 0.08571419999998398,
            "durationTicks": 144,
            "midi": 81,
            "name": "A5",
            "ticks": 418080,
            "time": 248.856894,
            "velocity": 0.7244094488188977
          },
          {
            "duration": 0.08571419999998398,
            "durationTicks": 144,
            "midi": 83,
            "name": "B5",
            "ticks": 418320,
            "time": 248.99975100000003,
            "velocity": 0.7244094488188977
          },
          {
            "duration": 0.1999998000000005,
            "durationTicks": 336,
            "midi": 84,
            "name": "C6",
            "ticks": 418560,
            "time": 249.14260800000002,
            "velocity": 0.8267716535433071
          },
          {
            "duration": 0.19999980000002893,
            "durationTicks": 336,
            "midi": 69,
            "name": "A4",
            "ticks": 419040,
            "time": 249.428322,
            "velocity": 0.8267716535433071
          },
          {
            "duration": 0.14285699999999224,
            "durationTicks": 240,
            "midi": 82,
            "name": "A#5",
            "ticks": 420000,
            "time": 249.99975000000003,
            "velocity": 0.8267716535433071
          },
          {
            "duration": 0.11428559999998811,
            "durationTicks": 192,
            "midi": 81,
            "name": "A5",
            "ticks": 420240,
            "time": 250.14260700000003,
            "velocity": 0.8267716535433071
          },
          {
            "duration": 0.22857119999997622,
            "durationTicks": 384,
            "midi": 81,
            "name": "A5",
            "ticks": 420480,
            "time": 250.28546400000002,
            "velocity": 0.8267716535433071
          },
          {
            "duration": 0.14285699999999224,
            "durationTicks": 240,
            "midi": 82,
            "name": "A#5",
            "ticks": 420960,
            "time": 250.57117800000003,
            "velocity": 0.8267716535433071
          },
          {
            "duration": 0.11428559999998811,
            "durationTicks": 192,
            "midi": 81,
            "name": "A5",
            "ticks": 421200,
            "time": 250.71403500000002,
            "velocity": 0.8267716535433071
          },
          {
            "duration": 0.22857120000000464,
            "durationTicks": 384,
            "midi": 81,
            "name": "A5",
            "ticks": 421440,
            "time": 250.85689200000002,
            "velocity": 0.8267716535433071
          },
          {
            "duration": 0.14285699999999224,
            "durationTicks": 240,
            "midi": 82,
            "name": "A#5",
            "ticks": 421920,
            "time": 251.14260600000003,
            "velocity": 0.8267716535433071
          },
          {
            "duration": 0.11428559999998811,
            "durationTicks": 192,
            "midi": 81,
            "name": "A5",
            "ticks": 422160,
            "time": 251.28546300000002,
            "velocity": 0.8267716535433071
          },
          {
            "duration": 0.2857140000000129,
            "durationTicks": 480,
            "midi": 81,
            "name": "A5",
            "ticks": 422400,
            "time": 251.42832,
            "velocity": 0.8267716535433071
          },
          {
            "duration": 0.22857119999997622,
            "durationTicks": 384,
            "midi": 89,
            "name": "F6",
            "ticks": 422880,
            "time": 251.71403400000003,
            "velocity": 0.8267716535433071
          },
          {
            "duration": 0.14285699999999224,
            "durationTicks": 240,
            "midi": 89,
            "name": "F6",
            "ticks": 423840,
            "time": 252.28546200000002,
            "velocity": 0.8267716535433071
          },
          {
            "duration": 0.11428559999998811,
            "durationTicks": 192,
            "midi": 88,
            "name": "E6",
            "ticks": 424080,
            "time": 252.42831900000002,
            "velocity": 0.8267716535433071
          },
          {
            "duration": 0.22857120000000464,
            "durationTicks": 384,
            "midi": 86,
            "name": "D6",
            "ticks": 424320,
            "time": 252.571176,
            "velocity": 0.8267716535433071
          },
          {
            "duration": 0.14285699999999224,
            "durationTicks": 240,
            "midi": 86,
            "name": "D6",
            "ticks": 424800,
            "time": 252.85689000000002,
            "velocity": 0.8267716535433071
          },
          {
            "duration": 0.11428559999998811,
            "durationTicks": 192,
            "midi": 84,
            "name": "C6",
            "ticks": 425040,
            "time": 252.999747,
            "velocity": 0.8267716535433071
          },
          {
            "duration": 0.22857119999997622,
            "durationTicks": 384,
            "midi": 82,
            "name": "A#5",
            "ticks": 425280,
            "time": 253.14260400000003,
            "velocity": 0.8267716535433071
          },
          {
            "duration": 0.14285699999999224,
            "durationTicks": 240,
            "midi": 82,
            "name": "A#5",
            "ticks": 425760,
            "time": 253.42831800000002,
            "velocity": 0.8267716535433071
          },
          {
            "duration": 0.11428560000001653,
            "durationTicks": 192,
            "midi": 81,
            "name": "A5",
            "ticks": 426000,
            "time": 253.571175,
            "velocity": 0.8267716535433071
          },
          {
            "duration": 0.08571419999998398,
            "durationTicks": 144,
            "midi": 79,
            "name": "G5",
            "ticks": 426240,
            "time": 253.71403200000003,
            "velocity": 0.7244094488188977
          },
          {
            "duration": 0.08571419999998398,
            "durationTicks": 144,
            "midi": 74,
            "name": "D5",
            "ticks": 426480,
            "time": 253.85688900000002,
            "velocity": 0.7244094488188977
          },
          {
            "duration": 0.08571419999998398,
            "durationTicks": 144,
            "midi": 70,
            "name": "A#4",
            "ticks": 426720,
            "time": 253.99974600000002,
            "velocity": 0.7244094488188977
          },
          {
            "duration": 0.0857142000000124,
            "durationTicks": 144,
            "midi": 72,
            "name": "C5",
            "ticks": 426960,
            "time": 254.142603,
            "velocity": 0.7244094488188977
          },
          {
            "duration": 0.08571419999998398,
            "durationTicks": 144,
            "midi": 74,
            "name": "D5",
            "ticks": 427200,
            "time": 254.28546000000003,
            "velocity": 0.7244094488188977
          },
          {
            "duration": 0.08571419999998398,
            "durationTicks": 144,
            "midi": 71,
            "name": "B4",
            "ticks": 427440,
            "time": 254.42831700000002,
            "velocity": 0.7244094488188977
          },
          {
            "duration": 0.08571419999998398,
            "durationTicks": 144,
            "midi": 74,
            "name": "D5",
            "ticks": 427680,
            "time": 254.571174,
            "velocity": 0.7244094488188977
          },
          {
            "duration": 0.08571419999998398,
            "durationTicks": 144,
            "midi": 65,
            "name": "F4",
            "ticks": 427920,
            "time": 254.71403100000003,
            "velocity": 0.7244094488188977
          },
          {
            "duration": 0.08571419999998398,
            "durationTicks": 144,
            "midi": 64,
            "name": "E4",
            "ticks": 428160,
            "time": 254.85688800000003,
            "velocity": 0.7244094488188977
          },
          {
            "duration": 0.08571419999998398,
            "durationTicks": 144,
            "midi": 67,
            "name": "G4",
            "ticks": 428400,
            "time": 254.99974500000002,
            "velocity": 0.7244094488188977
          },
          {
            "duration": 0.08571419999998398,
            "durationTicks": 144,
            "midi": 72,
            "name": "C5",
            "ticks": 428640,
            "time": 255.142602,
            "velocity": 0.7244094488188977
          },
          {
            "duration": 0.08571419999998398,
            "durationTicks": 144,
            "midi": 64,
            "name": "E4",
            "ticks": 428880,
            "time": 255.28545900000003,
            "velocity": 0.7244094488188977
          },
          {
            "duration": 0.08571419999998398,
            "durationTicks": 144,
            "midi": 62,
            "name": "D4",
            "ticks": 429120,
            "time": 255.42831600000002,
            "velocity": 0.7244094488188977
          },
          {
            "duration": 0.08571419999998398,
            "durationTicks": 144,
            "midi": 65,
            "name": "F4",
            "ticks": 429360,
            "time": 255.57117300000002,
            "velocity": 0.7244094488188977
          },
          {
            "duration": 0.0857142000000124,
            "durationTicks": 144,
            "midi": 71,
            "name": "B4",
            "ticks": 429600,
            "time": 255.71403,
            "velocity": 0.7244094488188977
          },
          {
            "duration": 0.08571419999998398,
            "durationTicks": 144,
            "midi": 62,
            "name": "D4",
            "ticks": 429840,
            "time": 255.85688700000003,
            "velocity": 0.7244094488188977
          },
          {
            "duration": 0.08571419999998398,
            "durationTicks": 144,
            "midi": 64,
            "name": "E4",
            "ticks": 430080,
            "time": 255.99974400000002,
            "velocity": 0.7244094488188977
          },
          {
            "duration": 0.08571419999998398,
            "durationTicks": 144,
            "midi": 67,
            "name": "G4",
            "ticks": 430320,
            "time": 256.142601,
            "velocity": 0.7244094488188977
          },
          {
            "duration": 0.08571419999998398,
            "durationTicks": 144,
            "midi": 69,
            "name": "A4",
            "ticks": 430560,
            "time": 256.285458,
            "velocity": 0.7244094488188977
          },
          {
            "duration": 0.08571419999998398,
            "durationTicks": 144,
            "midi": 71,
            "name": "B4",
            "ticks": 430800,
            "time": 256.428315,
            "velocity": 0.7244094488188977
          },
          {
            "duration": 0.08571419999998398,
            "durationTicks": 144,
            "midi": 72,
            "name": "C5",
            "ticks": 431040,
            "time": 256.57117200000005,
            "velocity": 0.7244094488188977
          },
          {
            "duration": 0.08571419999998398,
            "durationTicks": 144,
            "midi": 67,
            "name": "G4",
            "ticks": 431280,
            "time": 256.71402900000004,
            "velocity": 0.7244094488188977
          },
          {
            "duration": 0.08571419999998398,
            "durationTicks": 144,
            "midi": 72,
            "name": "C5",
            "ticks": 431520,
            "time": 256.85688600000003,
            "velocity": 0.7244094488188977
          },
          {
            "duration": 0.08571419999998398,
            "durationTicks": 144,
            "midi": 74,
            "name": "D5",
            "ticks": 431760,
            "time": 256.999743,
            "velocity": 0.7244094488188977
          },
          {
            "duration": 0.08571419999998398,
            "durationTicks": 144,
            "midi": 76,
            "name": "E5",
            "ticks": 432000,
            "time": 257.1426,
            "velocity": 0.7244094488188977
          },
          {
            "duration": 0.08571419999998398,
            "durationTicks": 144,
            "midi": 72,
            "name": "C5",
            "ticks": 432240,
            "time": 257.285457,
            "velocity": 0.7244094488188977
          },
          {
            "duration": 0.08571419999998398,
            "durationTicks": 144,
            "midi": 74,
            "name": "D5",
            "ticks": 432480,
            "time": 257.428314,
            "velocity": 0.7244094488188977
          },
          {
            "duration": 0.08571419999998398,
            "durationTicks": 144,
            "midi": 76,
            "name": "E5",
            "ticks": 432720,
            "time": 257.57117100000005,
            "velocity": 0.7244094488188977
          },
          {
            "duration": 0.08571419999998398,
            "durationTicks": 144,
            "midi": 77,
            "name": "F5",
            "ticks": 432960,
            "time": 257.71402800000004,
            "velocity": 0.7244094488188977
          },
          {
            "duration": 0.08571419999998398,
            "durationTicks": 144,
            "midi": 72,
            "name": "C5",
            "ticks": 433200,
            "time": 257.85688500000003,
            "velocity": 0.7244094488188977
          },
          {
            "duration": 0.08571419999998398,
            "durationTicks": 144,
            "midi": 77,
            "name": "F5",
            "ticks": 433440,
            "time": 257.999742,
            "velocity": 0.7244094488188977
          },
          {
            "duration": 0.08571419999998398,
            "durationTicks": 144,
            "midi": 79,
            "name": "G5",
            "ticks": 433680,
            "time": 258.142599,
            "velocity": 0.7244094488188977
          },
          {
            "duration": 0.1999998000000005,
            "durationTicks": 336,
            "midi": 81,
            "name": "A5",
            "ticks": 433920,
            "time": 258.285456,
            "velocity": 0.8267716535433071
          },
          {
            "duration": 0.19999980000005735,
            "durationTicks": 336,
            "midi": 65,
            "name": "F4",
            "ticks": 434400,
            "time": 258.57117,
            "velocity": 0.8267716535433071
          },
          {
            "duration": 0.14285699999999224,
            "durationTicks": 240,
            "midi": 79,
            "name": "G5",
            "ticks": 435360,
            "time": 259.142598,
            "velocity": 0.8267716535433071
          },
          {
            "duration": 0.11428560000001653,
            "durationTicks": 192,
            "midi": 77,
            "name": "F5",
            "ticks": 435600,
            "time": 259.285455,
            "velocity": 0.8267716535433071
          },
          {
            "duration": 0.22857119999997622,
            "durationTicks": 384,
            "midi": 77,
            "name": "F5",
            "ticks": 435840,
            "time": 259.428312,
            "velocity": 0.8267716535433071
          },
          {
            "duration": 0.14285699999999224,
            "durationTicks": 240,
            "midi": 79,
            "name": "G5",
            "ticks": 436320,
            "time": 259.71402600000005,
            "velocity": 0.8267716535433071
          },
          {
            "duration": 0.11428559999995969,
            "durationTicks": 192,
            "midi": 77,
            "name": "F5",
            "ticks": 436560,
            "time": 259.85688300000004,
            "velocity": 0.8267716535433071
          },
          {
            "duration": 0.22857119999997622,
            "durationTicks": 384,
            "midi": 77,
            "name": "F5",
            "ticks": 436800,
            "time": 259.99974000000003,
            "velocity": 0.8267716535433071
          },
          {
            "duration": 0.14285699999999224,
            "durationTicks": 240,
            "midi": 79,
            "name": "G5",
            "ticks": 437280,
            "time": 260.285454,
            "velocity": 0.8267716535433071
          },
          {
            "duration": 0.11428560000001653,
            "durationTicks": 192,
            "midi": 77,
            "name": "F5",
            "ticks": 437520,
            "time": 260.428311,
            "velocity": 0.8267716535433071
          },
          {
            "duration": 0.2857140000000413,
            "durationTicks": 480,
            "midi": 77,
            "name": "F5",
            "ticks": 437760,
            "time": 260.571168,
            "velocity": 0.8267716535433071
          },
          {
            "duration": 0.22857119999997622,
            "durationTicks": 384,
            "midi": 86,
            "name": "D6",
            "ticks": 438240,
            "time": 260.85688200000004,
            "velocity": 0.8267716535433071
          },
          {
            "duration": 0.14285699999999224,
            "durationTicks": 240,
            "midi": 86,
            "name": "D6",
            "ticks": 439200,
            "time": 261.42831,
            "velocity": 0.8267716535433071
          },
          {
            "duration": 0.11428560000001653,
            "durationTicks": 192,
            "midi": 84,
            "name": "C6",
            "ticks": 439440,
            "time": 261.571167,
            "velocity": 0.8267716535433071
          },
          {
            "duration": 0.22857120000003306,
            "durationTicks": 384,
            "midi": 82,
            "name": "A#5",
            "ticks": 439680,
            "time": 261.714024,
            "velocity": 0.8267716535433071
          },
          {
            "duration": 0.14285699999999224,
            "durationTicks": 240,
            "midi": 82,
            "name": "A#5",
            "ticks": 440160,
            "time": 261.99973800000004,
            "velocity": 0.8267716535433071
          },
          {
            "duration": 0.11428559999995969,
            "durationTicks": 192,
            "midi": 81,
            "name": "A5",
            "ticks": 440400,
            "time": 262.14259500000003,
            "velocity": 0.8267716535433071
          },
          {
            "duration": 0.22857119999997622,
            "durationTicks": 384,
            "midi": 79,
            "name": "G5",
            "ticks": 440640,
            "time": 262.285452,
            "velocity": 0.8267716535433071
          },
          {
            "duration": 0.14285699999999224,
            "durationTicks": 240,
            "midi": 79,
            "name": "G5",
            "ticks": 441120,
            "time": 262.571166,
            "velocity": 0.8267716535433071
          },
          {
            "duration": 0.11428560000001653,
            "durationTicks": 192,
            "midi": 77,
            "name": "F5",
            "ticks": 441360,
            "time": 262.714023,
            "velocity": 0.8267716535433071
          },
          {
            "duration": 0.2857139999999845,
            "durationTicks": 480,
            "midi": 75,
            "name": "D#5",
            "ticks": 441600,
            "time": 262.85688000000005,
            "velocity": 0.8267716535433071
          },
          {
            "duration": 0.22857119999997622,
            "durationTicks": 384,
            "midi": 84,
            "name": "C6",
            "ticks": 442080,
            "time": 263.14259400000003,
            "velocity": 0.8267716535433071
          },
          {
            "duration": 0.14285700000004908,
            "durationTicks": 240,
            "midi": 84,
            "name": "C6",
            "ticks": 443040,
            "time": 263.714022,
            "velocity": 0.8267716535433071
          },
          {
            "duration": 0.11428559999995969,
            "durationTicks": 192,
            "midi": 82,
            "name": "A#5",
            "ticks": 443280,
            "time": 263.85687900000005,
            "velocity": 0.8267716535433071
          },
          {
            "duration": 0.22857119999997622,
            "durationTicks": 384,
            "midi": 81,
            "name": "A5",
            "ticks": 443520,
            "time": 263.99973600000004,
            "velocity": 0.8267716535433071
          },
          {
            "duration": 0.14285699999999224,
            "durationTicks": 240,
            "midi": 81,
            "name": "A5",
            "ticks": 444000,
            "time": 264.28545,
            "velocity": 0.8267716535433071
          },
          {
            "duration": 0.11428560000001653,
            "durationTicks": 192,
            "midi": 79,
            "name": "G5",
            "ticks": 444240,
            "time": 264.428307,
            "velocity": 0.8267716535433071
          },
          {
            "duration": 0.22857119999997622,
            "durationTicks": 384,
            "midi": 78,
            "name": "F#5",
            "ticks": 444480,
            "time": 264.571164,
            "velocity": 0.8267716535433071
          },
          {
            "duration": 0.14285700000004908,
            "durationTicks": 240,
            "midi": 78,
            "name": "F#5",
            "ticks": 444960,
            "time": 264.856878,
            "velocity": 0.8267716535433071
          },
          {
            "duration": 0.11428559999995969,
            "durationTicks": 192,
            "midi": 76,
            "name": "E5",
            "ticks": 445200,
            "time": 264.99973500000004,
            "velocity": 0.8267716535433071
          },
          {
            "duration": 0.2857139999999845,
            "durationTicks": 480,
            "midi": 74,
            "name": "D5",
            "ticks": 445440,
            "time": 265.14259200000004,
            "velocity": 0.8267716535433071
          },
          {
            "duration": 0.22857119999997622,
            "durationTicks": 384,
            "midi": 82,
            "name": "A#5",
            "ticks": 445920,
            "time": 265.428306,
            "velocity": 0.8267716535433071
          },
          {
            "duration": 0.14285699999999224,
            "durationTicks": 240,
            "midi": 82,
            "name": "A#5",
            "ticks": 446880,
            "time": 265.99973400000005,
            "velocity": 0.8267716535433071
          },
          {
            "duration": 0.11428559999995969,
            "durationTicks": 192,
            "midi": 81,
            "name": "A5",
            "ticks": 447120,
            "time": 266.14259100000004,
            "velocity": 0.8267716535433071
          },
          {
            "duration": 0.22857119999997622,
            "durationTicks": 384,
            "midi": 79,
            "name": "G5",
            "ticks": 447360,
            "time": 266.28544800000003,
            "velocity": 0.8267716535433071
          },
          {
            "duration": 0.14285699999999224,
            "durationTicks": 240,
            "midi": 79,
            "name": "G5",
            "ticks": 447840,
            "time": 266.571162,
            "velocity": 0.8267716535433071
          },
          {
            "duration": 0.11428560000001653,
            "durationTicks": 192,
            "midi": 77,
            "name": "F5",
            "ticks": 448080,
            "time": 266.714019,
            "velocity": 0.8267716535433071
          },
          {
            "duration": 0.22857120000003306,
            "durationTicks": 384,
            "midi": 76,
            "name": "E5",
            "ticks": 448320,
            "time": 266.856876,
            "velocity": 0.8267716535433071
          },
          {
            "duration": 0.14285699999999224,
            "durationTicks": 240,
            "midi": 76,
            "name": "E5",
            "ticks": 448800,
            "time": 267.14259000000004,
            "velocity": 0.8267716535433071
          },
          {
            "duration": 0.11428559999995969,
            "durationTicks": 192,
            "midi": 74,
            "name": "D5",
            "ticks": 449040,
            "time": 267.28544700000003,
            "velocity": 0.8267716535433071
          },
          {
            "duration": 0.2857139999999845,
            "durationTicks": 480,
            "midi": 73,
            "name": "C#5",
            "ticks": 449280,
            "time": 267.428304,
            "velocity": 0.8267716535433071
          },
          {
            "duration": 0.22857119999997622,
            "durationTicks": 384,
            "midi": 81,
            "name": "A5",
            "ticks": 449760,
            "time": 267.714018,
            "velocity": 0.8267716535433071
          },
          {
            "duration": 0.14285699999999224,
            "durationTicks": 240,
            "midi": 82,
            "name": "A#5",
            "ticks": 450720,
            "time": 268.28544600000004,
            "velocity": 0.9133858267716536
          },
          {
            "duration": 0.11428559999995969,
            "durationTicks": 192,
            "midi": 81,
            "name": "A5",
            "ticks": 450960,
            "time": 268.428303,
            "velocity": 0.9133858267716536
          },
          {
            "duration": 0.22857119999997622,
            "durationTicks": 384,
            "midi": 81,
            "name": "A5",
            "ticks": 451200,
            "time": 268.57116,
            "velocity": 0.9133858267716536
          },
          {
            "duration": 0.14285699999999224,
            "durationTicks": 240,
            "midi": 82,
            "name": "A#5",
            "ticks": 451680,
            "time": 268.856874,
            "velocity": 0.9133858267716536
          },
          {
            "duration": 0.11428560000001653,
            "durationTicks": 192,
            "midi": 81,
            "name": "A5",
            "ticks": 451920,
            "time": 268.999731,
            "velocity": 0.9133858267716536
          },
          {
            "duration": 0.22857119999997622,
            "durationTicks": 384,
            "midi": 81,
            "name": "A5",
            "ticks": 452160,
            "time": 269.14258800000005,
            "velocity": 0.9133858267716536
          },
          {
            "duration": 0.14285699999999224,
            "durationTicks": 240,
            "midi": 82,
            "name": "A#5",
            "ticks": 452640,
            "time": 269.42830200000003,
            "velocity": 0.9133858267716536
          },
          {
            "duration": 0.11428560000001653,
            "durationTicks": 192,
            "midi": 81,
            "name": "A5",
            "ticks": 452880,
            "time": 269.571159,
            "velocity": 0.9133858267716536
          },
          {
            "duration": 0.22857119999997622,
            "durationTicks": 384,
            "midi": 81,
            "name": "A5",
            "ticks": 453120,
            "time": 269.714016,
            "velocity": 0.9133858267716536
          },
          {
            "duration": 0.22857120000003306,
            "durationTicks": 384,
            "midi": 81,
            "name": "A5",
            "ticks": 453600,
            "time": 269.99973,
            "velocity": 0.9133858267716536
          },
          {
            "duration": 0.14285699999999224,
            "durationTicks": 240,
            "midi": 82,
            "name": "A#5",
            "ticks": 454560,
            "time": 270.571158,
            "velocity": 0.9133858267716536
          },
          {
            "duration": 0.11428560000001653,
            "durationTicks": 192,
            "midi": 81,
            "name": "A5",
            "ticks": 454800,
            "time": 270.714015,
            "velocity": 0.9133858267716536
          },
          {
            "duration": 0.22857119999997622,
            "durationTicks": 384,
            "midi": 81,
            "name": "A5",
            "ticks": 455040,
            "time": 270.856872,
            "velocity": 0.9133858267716536
          },
          {
            "duration": 0.14285700000004908,
            "durationTicks": 240,
            "midi": 82,
            "name": "A#5",
            "ticks": 455520,
            "time": 271.142586,
            "velocity": 0.9133858267716536
          },
          {
            "duration": 0.11428559999995969,
            "durationTicks": 192,
            "midi": 81,
            "name": "A5",
            "ticks": 455760,
            "time": 271.28544300000004,
            "velocity": 0.9133858267716536
          },
          {
            "duration": 0.22857119999997622,
            "durationTicks": 384,
            "midi": 81,
            "name": "A5",
            "ticks": 456000,
            "time": 271.42830000000004,
            "velocity": 0.9133858267716536
          },
          {
            "duration": 0.14285699999999224,
            "durationTicks": 240,
            "midi": 82,
            "name": "A#5",
            "ticks": 456480,
            "time": 271.714014,
            "velocity": 0.9133858267716536
          },
          {
            "duration": 0.11428560000001653,
            "durationTicks": 192,
            "midi": 81,
            "name": "A5",
            "ticks": 456720,
            "time": 271.856871,
            "velocity": 0.9133858267716536
          },
          {
            "duration": 0.24285690000004934,
            "durationTicks": 408,
            "midi": 81,
            "name": "A5",
            "ticks": 456960,
            "time": 271.999728,
            "velocity": 0.9133858267716536
          },
          {
            "duration": 0.2428568999999925,
            "durationTicks": 408,
            "midi": 81,
            "name": "A5",
            "ticks": 457440,
            "time": 272.28544200000005,
            "velocity": 0.9133858267716536
          },
          {
            "duration": 0.14285699999999224,
            "durationTicks": 240,
            "midi": 82,
            "name": "A#5",
            "ticks": 458400,
            "time": 272.85687,
            "velocity": 0.5511811023622047
          },
          {
            "duration": 0.08571419999998398,
            "durationTicks": 144,
            "midi": 81,
            "name": "A5",
            "ticks": 458640,
            "time": 272.999727,
            "velocity": 0.5511811023622047
          },
          {
            "duration": 0.1714284000000248,
            "durationTicks": 288,
            "midi": 81,
            "name": "A5",
            "ticks": 458880,
            "time": 273.142584,
            "velocity": 0.5511811023622047
          },
          {
            "duration": 0.14285699999999224,
            "durationTicks": 240,
            "midi": 82,
            "name": "A#5",
            "ticks": 459360,
            "time": 273.42829800000004,
            "velocity": 0.5511811023622047
          },
          {
            "duration": 0.08571419999998398,
            "durationTicks": 144,
            "midi": 81,
            "name": "A5",
            "ticks": 459600,
            "time": 273.57115500000003,
            "velocity": 0.5511811023622047
          },
          {
            "duration": 0.1714284000000248,
            "durationTicks": 288,
            "midi": 81,
            "name": "A5",
            "ticks": 459840,
            "time": 273.714012,
            "velocity": 0.5511811023622047
          },
          {
            "duration": 0.14285699999999224,
            "durationTicks": 240,
            "midi": 82,
            "name": "A#5",
            "ticks": 460320,
            "time": 273.999726,
            "velocity": 0.5511811023622047
          },
          {
            "duration": 0.08571419999998398,
            "durationTicks": 144,
            "midi": 81,
            "name": "A5",
            "ticks": 460560,
            "time": 274.142583,
            "velocity": 0.5511811023622047
          },
          {
            "duration": 0.1714284000000248,
            "durationTicks": 288,
            "midi": 81,
            "name": "A5",
            "ticks": 460800,
            "time": 274.28544,
            "velocity": 0.5511811023622047
          },
          {
            "duration": 0.17142839999996795,
            "durationTicks": 288,
            "midi": 81,
            "name": "A5",
            "ticks": 461280,
            "time": 274.57115400000004,
            "velocity": 0.5511811023622047
          },
          {
            "duration": 0.14285699999999224,
            "durationTicks": 240,
            "midi": 84,
            "name": "C6",
            "ticks": 462240,
            "time": 275.142582,
            "velocity": 0.5511811023622047
          },
          {
            "duration": 0.08571420000004082,
            "durationTicks": 144,
            "midi": 82,
            "name": "A#5",
            "ticks": 462480,
            "time": 275.285439,
            "velocity": 0.5511811023622047
          },
          {
            "duration": 0.17142839999996795,
            "durationTicks": 288,
            "midi": 82,
            "name": "A#5",
            "ticks": 462720,
            "time": 275.42829600000005,
            "velocity": 0.5511811023622047
          },
          {
            "duration": 0.14285699999999224,
            "durationTicks": 240,
            "midi": 84,
            "name": "C6",
            "ticks": 463200,
            "time": 275.71401000000003,
            "velocity": 0.5511811023622047
          },
          {
            "duration": 0.08571419999998398,
            "durationTicks": 144,
            "midi": 82,
            "name": "A#5",
            "ticks": 463440,
            "time": 275.856867,
            "velocity": 0.5511811023622047
          },
          {
            "duration": 0.1714284000000248,
            "durationTicks": 288,
            "midi": 82,
            "name": "A#5",
            "ticks": 463680,
            "time": 275.999724,
            "velocity": 0.5511811023622047
          },
          {
            "duration": 0.14285700000004908,
            "durationTicks": 240,
            "midi": 84,
            "name": "C6",
            "ticks": 464160,
            "time": 276.285438,
            "velocity": 0.5511811023622047
          },
          {
            "duration": 0.08571419999998398,
            "durationTicks": 144,
            "midi": 82,
            "name": "A#5",
            "ticks": 464400,
            "time": 276.42829500000005,
            "velocity": 0.5511811023622047
          },
          {
            "duration": 0.17142839999996795,
            "durationTicks": 288,
            "midi": 82,
            "name": "A#5",
            "ticks": 464640,
            "time": 276.57115200000004,
            "velocity": 0.5511811023622047
          },
          {
            "duration": 0.1714284000000248,
            "durationTicks": 288,
            "midi": 82,
            "name": "A#5",
            "ticks": 465120,
            "time": 276.856866,
            "velocity": 0.5511811023622047
          },
          {
            "duration": 0.14285699999999224,
            "durationTicks": 240,
            "midi": 84,
            "name": "C6",
            "ticks": 466080,
            "time": 277.42829400000005,
            "velocity": 0.5511811023622047
          },
          {
            "duration": 0.08571419999998398,
            "durationTicks": 144,
            "midi": 83,
            "name": "B5",
            "ticks": 466320,
            "time": 277.57115100000004,
            "velocity": 0.5511811023622047
          },
          {
            "duration": 0.17142839999996795,
            "durationTicks": 288,
            "midi": 83,
            "name": "B5",
            "ticks": 466560,
            "time": 277.71400800000004,
            "velocity": 0.5511811023622047
          },
          {
            "duration": 0.14285699999999224,
            "durationTicks": 240,
            "midi": 84,
            "name": "C6",
            "ticks": 467040,
            "time": 277.999722,
            "velocity": 0.5511811023622047
          },
          {
            "duration": 0.08571419999998398,
            "durationTicks": 144,
            "midi": 83,
            "name": "B5",
            "ticks": 467280,
            "time": 278.142579,
            "velocity": 0.5511811023622047
          },
          {
            "duration": 0.1714284000000248,
            "durationTicks": 288,
            "midi": 83,
            "name": "B5",
            "ticks": 467520,
            "time": 278.285436,
            "velocity": 0.5511811023622047
          },
          {
            "duration": 0.14285699999999224,
            "durationTicks": 240,
            "midi": 84,
            "name": "C6",
            "ticks": 468000,
            "time": 278.57115000000005,
            "velocity": 0.5511811023622047
          },
          {
            "duration": 0.08571419999998398,
            "durationTicks": 144,
            "midi": 83,
            "name": "B5",
            "ticks": 468240,
            "time": 278.71400700000004,
            "velocity": 0.5511811023622047
          },
          {
            "duration": 0.1714284000000248,
            "durationTicks": 288,
            "midi": 83,
            "name": "B5",
            "ticks": 468480,
            "time": 278.85686400000003,
            "velocity": 0.5511811023622047
          },
          {
            "duration": 0.1714284000000248,
            "durationTicks": 288,
            "midi": 83,
            "name": "B5",
            "ticks": 468960,
            "time": 279.142578,
            "velocity": 0.5511811023622047
          },
          {
            "duration": 0.14285699999999224,
            "durationTicks": 240,
            "midi": 86,
            "name": "D6",
            "ticks": 469920,
            "time": 279.71400600000004,
            "velocity": 0.5511811023622047
          },
          {
            "duration": 0.08571419999998398,
            "durationTicks": 144,
            "midi": 84,
            "name": "C6",
            "ticks": 470160,
            "time": 279.85686300000003,
            "velocity": 0.5511811023622047
          },
          {
            "duration": 0.1714284000000248,
            "durationTicks": 288,
            "midi": 84,
            "name": "C6",
            "ticks": 470400,
            "time": 279.99972,
            "velocity": 0.5511811023622047
          },
          {
            "duration": 0.14285699999999224,
            "durationTicks": 240,
            "midi": 86,
            "name": "D6",
            "ticks": 470880,
            "time": 280.285434,
            "velocity": 0.5511811023622047
          },
          {
            "duration": 0.08571419999998398,
            "durationTicks": 144,
            "midi": 84,
            "name": "C6",
            "ticks": 471120,
            "time": 280.428291,
            "velocity": 0.5511811023622047
          },
          {
            "duration": 0.17142839999996795,
            "durationTicks": 288,
            "midi": 84,
            "name": "C6",
            "ticks": 471360,
            "time": 280.57114800000005,
            "velocity": 0.5511811023622047
          },
          {
            "duration": 0.14285699999999224,
            "durationTicks": 240,
            "midi": 86,
            "name": "D6",
            "ticks": 471840,
            "time": 280.85686200000004,
            "velocity": 0.5511811023622047
          },
          {
            "duration": 0.08571419999998398,
            "durationTicks": 144,
            "midi": 84,
            "name": "C6",
            "ticks": 472080,
            "time": 280.999719,
            "velocity": 0.5511811023622047
          },
          {
            "duration": 0.1714284000000248,
            "durationTicks": 288,
            "midi": 84,
            "name": "C6",
            "ticks": 472320,
            "time": 281.142576,
            "velocity": 0.5511811023622047
          },
          {
            "duration": 0.1714284000000248,
            "durationTicks": 288,
            "midi": 84,
            "name": "C6",
            "ticks": 472800,
            "time": 281.42829,
            "velocity": 0.5511811023622047
          },
          {
            "duration": 0.14285699999999224,
            "durationTicks": 240,
            "midi": 82,
            "name": "A#5",
            "ticks": 473760,
            "time": 281.99971800000003,
            "velocity": 0.5511811023622047
          },
          {
            "duration": 0.08571419999998398,
            "durationTicks": 144,
            "midi": 81,
            "name": "A5",
            "ticks": 474000,
            "time": 282.142575,
            "velocity": 0.5511811023622047
          },
          {
            "duration": 0.1714284000000248,
            "durationTicks": 288,
            "midi": 81,
            "name": "A5",
            "ticks": 474240,
            "time": 282.285432,
            "velocity": 0.5511811023622047
          },
          {
            "duration": 0.14285700000004908,
            "durationTicks": 240,
            "midi": 82,
            "name": "A#5",
            "ticks": 474720,
            "time": 282.571146,
            "velocity": 0.5511811023622047
          },
          {
            "duration": 0.08571419999998398,
            "durationTicks": 144,
            "midi": 81,
            "name": "A5",
            "ticks": 474960,
            "time": 282.71400300000005,
            "velocity": 0.5511811023622047
          },
          {
            "duration": 0.17142839999996795,
            "durationTicks": 288,
            "midi": 81,
            "name": "A5",
            "ticks": 475200,
            "time": 282.85686000000004,
            "velocity": 0.5511811023622047
          },
          {
            "duration": 0.14285699999999224,
            "durationTicks": 240,
            "midi": 82,
            "name": "A#5",
            "ticks": 475680,
            "time": 283.142574,
            "velocity": 0.5511811023622047
          },
          {
            "duration": 0.08571419999998398,
            "durationTicks": 144,
            "midi": 81,
            "name": "A5",
            "ticks": 475920,
            "time": 283.285431,
            "velocity": 0.5511811023622047
          },
          {
            "duration": 0.1714284000000248,
            "durationTicks": 288,
            "midi": 81,
            "name": "A5",
            "ticks": 476160,
            "time": 283.428288,
            "velocity": 0.5511811023622047
          },
          {
            "duration": 0.14285699999999224,
            "durationTicks": 240,
            "midi": 79,
            "name": "G5",
            "ticks": 477600,
            "time": 284.28543,
            "velocity": 0.5511811023622047
          },
          {
            "duration": 0.08571419999998398,
            "durationTicks": 144,
            "midi": 78,
            "name": "F#5",
            "ticks": 477840,
            "time": 284.428287,
            "velocity": 0.5511811023622047
          },
          {
            "duration": 0.1714284000000248,
            "durationTicks": 288,
            "midi": 78,
            "name": "F#5",
            "ticks": 478080,
            "time": 284.571144,
            "velocity": 0.5511811023622047
          },
          {
            "duration": 0.14285699999999224,
            "durationTicks": 240,
            "midi": 79,
            "name": "G5",
            "ticks": 478560,
            "time": 284.85685800000005,
            "velocity": 0.5511811023622047
          },
          {
            "duration": 0.08571419999998398,
            "durationTicks": 144,
            "midi": 78,
            "name": "F#5",
            "ticks": 478800,
            "time": 284.99971500000004,
            "velocity": 0.5511811023622047
          },
          {
            "duration": 0.1714284000000248,
            "durationTicks": 288,
            "midi": 78,
            "name": "F#5",
            "ticks": 479040,
            "time": 285.14257200000003,
            "velocity": 0.5511811023622047
          },
          {
            "duration": 0.14285699999999224,
            "durationTicks": 240,
            "midi": 79,
            "name": "G5",
            "ticks": 479520,
            "time": 285.428286,
            "velocity": 0.5511811023622047
          },
          {
            "duration": 0.08571419999998398,
            "durationTicks": 144,
            "midi": 78,
            "name": "F#5",
            "ticks": 479760,
            "time": 285.571143,
            "velocity": 0.5511811023622047
          },
          {
            "duration": 0.1714284000000248,
            "durationTicks": 288,
            "midi": 78,
            "name": "F#5",
            "ticks": 480000,
            "time": 285.714,
            "velocity": 0.5511811023622047
          },
          {
            "duration": 0.14285699999999224,
            "durationTicks": 240,
            "midi": 75,
            "name": "D#5",
            "ticks": 481440,
            "time": 286.571142,
            "velocity": 0.4566929133858268
          },
          {
            "duration": 0.08571419999998398,
            "durationTicks": 144,
            "midi": 74,
            "name": "D5",
            "ticks": 481680,
            "time": 286.713999,
            "velocity": 0.4566929133858268
          },
          {
            "duration": 0.22857119999997622,
            "durationTicks": 384,
            "midi": 74,
            "name": "D5",
            "ticks": 481920,
            "time": 286.85685600000005,
            "velocity": 0.4566929133858268
          },
          {
            "duration": 0.11428559999995969,
            "durationTicks": 192,
            "midi": 75,
            "name": "D#5",
            "ticks": 482400,
            "time": 287.14257000000003,
            "velocity": 0.4566929133858268
          },
          {
            "duration": 0.11428560000001653,
            "durationTicks": 192,
            "midi": 74,
            "name": "D5",
            "ticks": 482640,
            "time": 287.285427,
            "velocity": 0.4566929133858268
          },
          {
            "duration": 0.22857119999997622,
            "durationTicks": 384,
            "midi": 74,
            "name": "D5",
            "ticks": 482880,
            "time": 287.428284,
            "velocity": 0.4566929133858268
          },
          {
            "duration": 0.11428560000001653,
            "durationTicks": 192,
            "midi": 75,
            "name": "D#5",
            "ticks": 483360,
            "time": 287.713998,
            "velocity": 0.4566929133858268
          },
          {
            "duration": 0.11428560000001653,
            "durationTicks": 192,
            "midi": 74,
            "name": "D5",
            "ticks": 483600,
            "time": 287.856855,
            "velocity": 0.4566929133858268
          },
          {
            "duration": 0.22857119999997622,
            "durationTicks": 384,
            "midi": 74,
            "name": "D5",
            "ticks": 483840,
            "time": 287.99971200000005,
            "velocity": 0.4566929133858268
          },
          {
            "duration": 0.14285700000004908,
            "durationTicks": 240,
            "midi": 86,
            "name": "D6",
            "ticks": 485280,
            "time": 288.856854,
            "velocity": 0.9133858267716536
          },
          {
            "duration": 0.11428559999995969,
            "durationTicks": 192,
            "midi": 87,
            "name": "D#6",
            "ticks": 485520,
            "time": 288.99971100000005,
            "velocity": 0.9133858267716536
          },
          {
            "duration": 0.22857119999997622,
            "durationTicks": 384,
            "midi": 87,
            "name": "D#6",
            "ticks": 485760,
            "time": 289.14256800000004,
            "velocity": 0.9133858267716536
          },
          {
            "duration": 0.14285699999999224,
            "durationTicks": 240,
            "midi": 87,
            "name": "D#6",
            "ticks": 487200,
            "time": 289.99971000000005,
            "velocity": 0.9133858267716536
          },
          {
            "duration": 0.11428559999995969,
            "durationTicks": 192,
            "midi": 86,
            "name": "D6",
            "ticks": 487440,
            "time": 290.14256700000004,
            "velocity": 0.9133858267716536
          },
          {
            "duration": 0.22857119999997622,
            "durationTicks": 384,
            "midi": 86,
            "name": "D6",
            "ticks": 487680,
            "time": 290.28542400000003,
            "velocity": 0.9133858267716536
          },
          {
            "duration": 0.14285699999999224,
            "durationTicks": 240,
            "midi": 86,
            "name": "D6",
            "ticks": 489120,
            "time": 291.14256600000004,
            "velocity": 0.9133858267716536
          },
          {
            "duration": 0.11428559999995969,
            "durationTicks": 192,
            "midi": 85,
            "name": "C#6",
            "ticks": 489360,
            "time": 291.28542300000004,
            "velocity": 0.9133858267716536
          },
          {
            "duration": 0.22857119999997622,
            "durationTicks": 384,
            "midi": 85,
            "name": "C#6",
            "ticks": 489600,
            "time": 291.42828000000003,
            "velocity": 0.9133858267716536
          },
          {
            "duration": 0.14285699999999224,
            "durationTicks": 240,
            "midi": 85,
            "name": "C#6",
            "ticks": 491040,
            "time": 292.28542200000004,
            "velocity": 0.9133858267716536
          },
          {
            "duration": 0.11428559999995969,
            "durationTicks": 192,
            "midi": 86,
            "name": "D6",
            "ticks": 491280,
            "time": 292.42827900000003,
            "velocity": 0.9133858267716536
          },
          {
            "duration": 0.22857119999997622,
            "durationTicks": 384,
            "midi": 86,
            "name": "D6",
            "ticks": 491520,
            "time": 292.571136,
            "velocity": 0.9133858267716536
          },
          {
            "duration": 0.14285699999999224,
            "durationTicks": 240,
            "midi": 83,
            "name": "B5",
            "ticks": 492960,
            "time": 293.42827800000003,
            "velocity": 0.9133858267716536
          },
          {
            "duration": 0.11428560000001653,
            "durationTicks": 192,
            "midi": 84,
            "name": "C6",
            "ticks": 493200,
            "time": 293.571135,
            "velocity": 0.9133858267716536
          },
          {
            "duration": 0.22857119999997622,
            "durationTicks": 384,
            "midi": 84,
            "name": "C6",
            "ticks": 493440,
            "time": 293.713992,
            "velocity": 0.9133858267716536
          },
          {
            "duration": 0.14285699999999224,
            "durationTicks": 240,
            "midi": 81,
            "name": "A5",
            "ticks": 494880,
            "time": 294.57113400000003,
            "velocity": 0.9133858267716536
          },
          {
            "duration": 0.11428560000001653,
            "durationTicks": 192,
            "midi": 82,
            "name": "A#5",
            "ticks": 495120,
            "time": 294.713991,
            "velocity": 0.9133858267716536
          },
          {
            "duration": 0.22857119999997622,
            "durationTicks": 384,
            "midi": 82,
            "name": "A#5",
            "ticks": 495360,
            "time": 294.856848,
            "velocity": 0.9133858267716536
          },
          {
            "duration": 0.14285699999999224,
            "durationTicks": 240,
            "midi": 80,
            "name": "G#5",
            "ticks": 496800,
            "time": 295.71399,
            "velocity": 0.9133858267716536
          },
          {
            "duration": 0.11428560000001653,
            "durationTicks": 192,
            "midi": 81,
            "name": "A5",
            "ticks": 497040,
            "time": 295.856847,
            "velocity": 0.9133858267716536
          },
          {
            "duration": 0.22857119999997622,
            "durationTicks": 384,
            "midi": 81,
            "name": "A5",
            "ticks": 497280,
            "time": 295.999704,
            "velocity": 0.9133858267716536
          },
          {
            "duration": 0.14285699999999224,
            "durationTicks": 240,
            "midi": 78,
            "name": "F#5",
            "ticks": 497760,
            "time": 296.28541800000005,
            "velocity": 0.9133858267716536
          },
          {
            "duration": 0.11428560000001653,
            "durationTicks": 192,
            "midi": 79,
            "name": "G5",
            "ticks": 498000,
            "time": 296.42827500000004,
            "velocity": 0.9133858267716536
          },
          {
            "duration": 0.22857119999997622,
            "durationTicks": 384,
            "midi": 79,
            "name": "G5",
            "ticks": 498240,
            "time": 296.57113200000003,
            "velocity": 0.9133858267716536
          },
          {
            "duration": 0.14285699999999224,
            "durationTicks": 240,
            "midi": 73,
            "name": "C#5",
            "ticks": 498720,
            "time": 296.856846,
            "velocity": 0.9133858267716536
          },
          {
            "duration": 0.11428560000001653,
            "durationTicks": 192,
            "midi": 74,
            "name": "D5",
            "ticks": 498960,
            "time": 296.999703,
            "velocity": 0.9133858267716536
          },
          {
            "duration": 0.22857120000003306,
            "durationTicks": 384,
            "midi": 74,
            "name": "D5",
            "ticks": 499200,
            "time": 297.14256,
            "velocity": 0.8267716535433071
          },
          {
            "duration": 0.14285699999999224,
            "durationTicks": 240,
            "midi": 75,
            "name": "D#5",
            "ticks": 508320,
            "time": 302.57112600000005,
            "velocity": 0.5511811023622047
          },
          {
            "duration": 0.11428560000001653,
            "durationTicks": 192,
            "midi": 74,
            "name": "D5",
            "ticks": 508560,
            "time": 302.71398300000004,
            "velocity": 0.5511811023622047
          },
          {
            "duration": 0.22857119999997622,
            "durationTicks": 384,
            "midi": 74,
            "name": "D5",
            "ticks": 508800,
            "time": 302.85684000000003,
            "velocity": 0.5511811023622047
          },
          {
            "duration": 0.14285699999999224,
            "durationTicks": 240,
            "midi": 75,
            "name": "D#5",
            "ticks": 509280,
            "time": 303.142554,
            "velocity": 0.5511811023622047
          },
          {
            "duration": 0.11428560000001653,
            "durationTicks": 192,
            "midi": 74,
            "name": "D5",
            "ticks": 509520,
            "time": 303.285411,
            "velocity": 0.5511811023622047
          },
          {
            "duration": 0.22857120000003306,
            "durationTicks": 384,
            "midi": 74,
            "name": "D5",
            "ticks": 509760,
            "time": 303.428268,
            "velocity": 0.5511811023622047
          },
          {
            "duration": 0.14285699999999224,
            "durationTicks": 240,
            "midi": 75,
            "name": "D#5",
            "ticks": 510240,
            "time": 303.71398200000004,
            "velocity": 0.5511811023622047
          },
          {
            "duration": 0.11428560000001653,
            "durationTicks": 192,
            "midi": 74,
            "name": "D5",
            "ticks": 510480,
            "time": 303.85683900000004,
            "velocity": 0.5511811023622047
          },
          {
            "duration": 0.2857139999999845,
            "durationTicks": 480,
            "midi": 74,
            "name": "D5",
            "ticks": 510720,
            "time": 303.99969600000003,
            "velocity": 0.5511811023622047
          },
          {
            "duration": 0.22857119999997622,
            "durationTicks": 384,
            "midi": 82,
            "name": "A#5",
            "ticks": 511200,
            "time": 304.28541,
            "velocity": 0.5511811023622047
          },
          {
            "duration": 0.14285699999999224,
            "durationTicks": 240,
            "midi": 82,
            "name": "A#5",
            "ticks": 512160,
            "time": 304.85683800000004,
            "velocity": 0.5511811023622047
          },
          {
            "duration": 0.11428560000001653,
            "durationTicks": 192,
            "midi": 81,
            "name": "A5",
            "ticks": 512400,
            "time": 304.99969500000003,
            "velocity": 0.5511811023622047
          },
          {
            "duration": 0.22857119999997622,
            "durationTicks": 384,
            "midi": 79,
            "name": "G5",
            "ticks": 512640,
            "time": 305.142552,
            "velocity": 0.5511811023622047
          },
          {
            "duration": 0.14285699999999224,
            "durationTicks": 240,
            "midi": 79,
            "name": "G5",
            "ticks": 513120,
            "time": 305.428266,
            "velocity": 0.5511811023622047
          },
          {
            "duration": 0.11428560000007337,
            "durationTicks": 192,
            "midi": 77,
            "name": "F5",
            "ticks": 513360,
            "time": 305.571123,
            "velocity": 0.5511811023622047
          },
          {
            "duration": 0.22857119999997622,
            "durationTicks": 384,
            "midi": 75,
            "name": "D#5",
            "ticks": 513600,
            "time": 305.71398000000005,
            "velocity": 0.5511811023622047
          },
          {
            "duration": 0.14285699999999224,
            "durationTicks": 240,
            "midi": 75,
            "name": "D#5",
            "ticks": 514080,
            "time": 305.99969400000003,
            "velocity": 0.5511811023622047
          },
          {
            "duration": 0.11428560000001653,
            "durationTicks": 192,
            "midi": 74,
            "name": "D5",
            "ticks": 514320,
            "time": 306.142551,
            "velocity": 0.5511811023622047
          },
          {
            "duration": 0.22857119999997622,
            "durationTicks": 384,
            "midi": 72,
            "name": "C5",
            "ticks": 514560,
            "time": 306.285408,
            "velocity": 0.5511811023622047
          },
          {
            "duration": 0.22857120000003306,
            "durationTicks": 384,
            "midi": 72,
            "name": "C5",
            "ticks": 515040,
            "time": 306.571122,
            "velocity": 0.5511811023622047
          },
          {
            "duration": 0.14285699999999224,
            "durationTicks": 240,
            "midi": 74,
            "name": "D5",
            "ticks": 516000,
            "time": 307.14255,
            "velocity": 0.5511811023622047
          },
          {
            "duration": 0.11428560000001653,
            "durationTicks": 192,
            "midi": 72,
            "name": "C5",
            "ticks": 516240,
            "time": 307.285407,
            "velocity": 0.5511811023622047
          },
          {
            "duration": 0.22857119999997622,
            "durationTicks": 384,
            "midi": 72,
            "name": "C5",
            "ticks": 516480,
            "time": 307.428264,
            "velocity": 0.5511811023622047
          },
          {
            "duration": 0.14285700000004908,
            "durationTicks": 240,
            "midi": 74,
            "name": "D5",
            "ticks": 516960,
            "time": 307.713978,
            "velocity": 0.5511811023622047
          },
          {
            "duration": 0.11428560000001653,
            "durationTicks": 192,
            "midi": 72,
            "name": "C5",
            "ticks": 517200,
            "time": 307.85683500000005,
            "velocity": 0.5511811023622047
          },
          {
            "duration": 0.22857119999997622,
            "durationTicks": 384,
            "midi": 72,
            "name": "C5",
            "ticks": 517440,
            "time": 307.99969200000004,
            "velocity": 0.5511811023622047
          },
          {
            "duration": 0.14285699999999224,
            "durationTicks": 240,
            "midi": 74,
            "name": "D5",
            "ticks": 517920,
            "time": 308.285406,
            "velocity": 0.5511811023622047
          },
          {
            "duration": 0.11428560000001653,
            "durationTicks": 192,
            "midi": 72,
            "name": "C5",
            "ticks": 518160,
            "time": 308.428263,
            "velocity": 0.5511811023622047
          },
          {
            "duration": 0.2857140000000413,
            "durationTicks": 480,
            "midi": 72,
            "name": "C5",
            "ticks": 518400,
            "time": 308.57112,
            "velocity": 0.5511811023622047
          },
          {
            "duration": 0.22857119999997622,
            "durationTicks": 384,
            "midi": 81,
            "name": "A5",
            "ticks": 518880,
            "time": 308.85683400000005,
            "velocity": 0.5511811023622047
          },
          {
            "duration": 0.14285699999999224,
            "durationTicks": 240,
            "midi": 81,
            "name": "A5",
            "ticks": 519840,
            "time": 309.428262,
            "velocity": 0.5511811023622047
          },
          {
            "duration": 0.11428560000001653,
            "durationTicks": 192,
            "midi": 79,
            "name": "G5",
            "ticks": 520080,
            "time": 309.571119,
            "velocity": 0.5511811023622047
          },
          {
            "duration": 0.22857120000003306,
            "durationTicks": 384,
            "midi": 78,
            "name": "F#5",
            "ticks": 520320,
            "time": 309.713976,
            "velocity": 0.5511811023622047
          },
          {
            "duration": 0.14285699999999224,
            "durationTicks": 240,
            "midi": 78,
            "name": "F#5",
            "ticks": 520800,
            "time": 309.99969000000004,
            "velocity": 0.5511811023622047
          },
          {
            "duration": 0.11428560000001653,
            "durationTicks": 192,
            "midi": 75,
            "name": "D#5",
            "ticks": 521040,
            "time": 310.14254700000004,
            "velocity": 0.5511811023622047
          },
          {
            "duration": 0.22857119999997622,
            "durationTicks": 384,
            "midi": 74,
            "name": "D5",
            "ticks": 521280,
            "time": 310.285404,
            "velocity": 0.5511811023622047
          },
          {
            "duration": 0.14285699999999224,
            "durationTicks": 240,
            "midi": 74,
            "name": "D5",
            "ticks": 521760,
            "time": 310.571118,
            "velocity": 0.5511811023622047
          },
          {
            "duration": 0.11428560000007337,
            "durationTicks": 192,
            "midi": 72,
            "name": "C5",
            "ticks": 522000,
            "time": 310.713975,
            "velocity": 0.5511811023622047
          },
          {
            "duration": 0.22857119999997622,
            "durationTicks": 384,
            "midi": 70,
            "name": "A#4",
            "ticks": 522240,
            "time": 310.85683200000005,
            "velocity": 0.5511811023622047
          },
          {
            "duration": 0.22857119999997622,
            "durationTicks": 384,
            "midi": 70,
            "name": "A#4",
            "ticks": 522720,
            "time": 311.14254600000004,
            "velocity": 0.5511811023622047
          },
          {
            "duration": 0.14285699999999224,
            "durationTicks": 240,
            "midi": 82,
            "name": "A#5",
            "ticks": 523680,
            "time": 311.713974,
            "velocity": 0.5511811023622047
          },
          {
            "duration": 0.11428560000007337,
            "durationTicks": 192,
            "midi": 81,
            "name": "A5",
            "ticks": 523920,
            "time": 311.856831,
            "velocity": 0.5511811023622047
          },
          {
            "duration": 0.2857139999999845,
            "durationTicks": 480,
            "midi": 81,
            "name": "A5",
            "ticks": 524160,
            "time": 311.99968800000005,
            "velocity": 0.5511811023622047
          },
          {
            "duration": 0.2857139999999845,
            "durationTicks": 480,
            "midi": 84,
            "name": "C6",
            "ticks": 524640,
            "time": 312.28540200000003,
            "velocity": 0.5511811023622047
          },
          {
            "duration": 0.2857139999999845,
            "durationTicks": 480,
            "midi": 78,
            "name": "F#5",
            "ticks": 525120,
            "time": 312.571116,
            "velocity": 0.5511811023622047
          },
          {
            "duration": 0.22857120000003306,
            "durationTicks": 384,
            "midi": 81,
            "name": "A5",
            "ticks": 525600,
            "time": 312.85683,
            "velocity": 0.5511811023622047
          },
          {
            "duration": 0.2857139999999845,
            "durationTicks": 480,
            "midi": 79,
            "name": "G5",
            "ticks": 526080,
            "time": 313.14254400000004,
            "velocity": 0.5511811023622047
          },
          {
            "duration": 0.22857119999997622,
            "durationTicks": 384,
            "midi": 74,
            "name": "D5",
            "ticks": 526560,
            "time": 313.428258,
            "velocity": 0.5511811023622047
          },
          {
            "duration": 0.14285699999999224,
            "durationTicks": 240,
            "midi": 82,
            "name": "A#5",
            "ticks": 527520,
            "time": 313.99968600000005,
            "velocity": 0.5511811023622047
          },
          {
            "duration": 0.11428560000001653,
            "durationTicks": 192,
            "midi": 81,
            "name": "A5",
            "ticks": 527760,
            "time": 314.14254300000005,
            "velocity": 0.5511811023622047
          },
          {
            "duration": 0.2857139999999845,
            "durationTicks": 480,
            "midi": 81,
            "name": "A5",
            "ticks": 528000,
            "time": 314.28540000000004,
            "velocity": 0.5511811023622047
          },
          {
            "duration": 0.2857139999999845,
            "durationTicks": 480,
            "midi": 84,
            "name": "C6",
            "ticks": 528480,
            "time": 314.571114,
            "velocity": 0.5511811023622047
          },
          {
            "duration": 0.2857140000000413,
            "durationTicks": 480,
            "midi": 78,
            "name": "F#5",
            "ticks": 528960,
            "time": 314.856828,
            "velocity": 0.5511811023622047
          },
          {
            "duration": 0.22857119999997622,
            "durationTicks": 384,
            "midi": 81,
            "name": "A5",
            "ticks": 529440,
            "time": 315.14254200000005,
            "velocity": 0.5511811023622047
          },
          {
            "duration": 0.2857139999999845,
            "durationTicks": 480,
            "midi": 79,
            "name": "G5",
            "ticks": 529920,
            "time": 315.42825600000003,
            "velocity": 0.5511811023622047
          },
          {
            "duration": 0.22857119999997622,
            "durationTicks": 384,
            "midi": 82,
            "name": "A#5",
            "ticks": 530400,
            "time": 315.71397,
            "velocity": 0.5511811023622047
          },
          {
            "duration": 0.14285700000004908,
            "durationTicks": 240,
            "midi": 81,
            "name": "A5",
            "ticks": 530880,
            "time": 315.999684,
            "velocity": 0.5511811023622047
          },
          {
            "duration": 0.14285699999999224,
            "durationTicks": 240,
            "midi": 79,
            "name": "G5",
            "ticks": 531120,
            "time": 316.14254100000005,
            "velocity": 0.5511811023622047
          },
          {
            "duration": 0.14285699999999224,
            "durationTicks": 240,
            "midi": 77,
            "name": "F5",
            "ticks": 531360,
            "time": 316.28539800000004,
            "velocity": 0.5511811023622047
          },
          {
            "duration": 0.13571414999995568,
            "durationTicks": 228,
            "midi": 75,
            "name": "D#5",
            "ticks": 531600,
            "time": 316.42825500000004,
            "velocity": 0.5511811023622047
          },
          {
            "duration": 1.1428559999999948,
            "durationTicks": 1920,
            "midi": 74,
            "name": "D5",
            "ticks": 531840,
            "time": 316.571112,
            "velocity": 0.5511811023622047
          },
          {
            "duration": 1.0857131999999865,
            "durationTicks": 1824,
            "midi": 73,
            "name": "C#5",
            "ticks": 533760,
            "time": 317.713968,
            "velocity": 0.5511811023622047
          },
          {
            "duration": 0.4571424000000093,
            "durationTicks": 768,
            "midi": 74,
            "name": "D5",
            "ticks": 535680,
            "time": 318.856824,
            "velocity": 0.4566929133858268
          },
          {
            "duration": 0.11428560000001653,
            "durationTicks": 192,
            "midi": 62,
            "name": "D4",
            "ticks": 537120,
            "time": 319.713966,
            "velocity": 0.8267716535433071
          },
          {
            "duration": 0.11428560000001653,
            "durationTicks": 192,
            "midi": 62,
            "name": "D4",
            "ticks": 537360,
            "time": 319.856823,
            "velocity": 0.8267716535433071
          },
          {
            "duration": 0.4571424000000093,
            "durationTicks": 768,
            "midi": 62,
            "name": "D4",
            "ticks": 537600,
            "time": 319.99968,
            "velocity": 0.8267716535433071
          },
          {
            "duration": 0.11428560000001653,
            "durationTicks": 192,
            "midi": 62,
            "name": "D4",
            "ticks": 539040,
            "time": 320.856822,
            "velocity": 0.8267716535433071
          },
          {
            "duration": 0.11428560000001653,
            "durationTicks": 192,
            "midi": 62,
            "name": "D4",
            "ticks": 539280,
            "time": 320.999679,
            "velocity": 0.8267716535433071
          },
          {
            "duration": 0.4571424000000093,
            "durationTicks": 768,
            "midi": 62,
            "name": "D4",
            "ticks": 539520,
            "time": 321.142536,
            "velocity": 0.8267716535433071
          },
          {
            "duration": 0.09999990000000025,
            "durationTicks": 168,
            "midi": 62,
            "name": "D4",
            "ticks": 540960,
            "time": 321.999678,
            "velocity": 0.8267716535433071
          },
          {
            "duration": 0.09999990000000025,
            "durationTicks": 168,
            "midi": 62,
            "name": "D4",
            "ticks": 541200,
            "time": 322.142535,
            "velocity": 0.8267716535433071
          },
          {
            "duration": 0.19999980000005735,
            "durationTicks": 336,
            "midi": 62,
            "name": "D4",
            "ticks": 541440,
            "time": 322.285392,
            "velocity": 0.8267716535433071
          },
          {
            "duration": 0.09999989999994341,
            "durationTicks": 168,
            "midi": 62,
            "name": "D4",
            "ticks": 541920,
            "time": 322.57110600000004,
            "velocity": 0.8267716535433071
          },
          {
            "duration": 0.09999989999994341,
            "durationTicks": 168,
            "midi": 62,
            "name": "D4",
            "ticks": 542160,
            "time": 322.71396300000004,
            "velocity": 0.8267716535433071
          },
          {
            "duration": 0.1999998000000005,
            "durationTicks": 336,
            "midi": 62,
            "name": "D4",
            "ticks": 542400,
            "time": 322.85682,
            "velocity": 0.8267716535433071
          },
          {
            "duration": 0.09999990000000025,
            "durationTicks": 168,
            "midi": 62,
            "name": "D4",
            "ticks": 542880,
            "time": 323.142534,
            "velocity": 0.8267716535433071
          },
          {
            "duration": 0.09999990000000025,
            "durationTicks": 168,
            "midi": 62,
            "name": "D4",
            "ticks": 543120,
            "time": 323.285391,
            "velocity": 0.8267716535433071
          },
          {
            "duration": 0.45714239999995243,
            "durationTicks": 768,
            "midi": 62,
            "name": "D4",
            "ticks": 543360,
            "time": 323.42824800000005,
            "velocity": 0.8267716535433071
          },
          {
            "duration": 0.14285699999999224,
            "durationTicks": 240,
            "midi": 75,
            "name": "D#5",
            "ticks": 544800,
            "time": 324.28539,
            "velocity": 0.5511811023622047
          },
          {
            "duration": 0.11428560000007337,
            "durationTicks": 192,
            "midi": 74,
            "name": "D5",
            "ticks": 545040,
            "time": 324.428247,
            "velocity": 0.5511811023622047
          },
          {
            "duration": 0.22857119999997622,
            "durationTicks": 384,
            "midi": 74,
            "name": "D5",
            "ticks": 545280,
            "time": 324.57110400000005,
            "velocity": 0.5511811023622047
          },
          {
            "duration": 0.14285699999999224,
            "durationTicks": 240,
            "midi": 75,
            "name": "D#5",
            "ticks": 545760,
            "time": 324.85681800000003,
            "velocity": 0.5511811023622047
          },
          {
            "duration": 0.11428560000001653,
            "durationTicks": 192,
            "midi": 74,
            "name": "D5",
            "ticks": 546000,
            "time": 324.999675,
            "velocity": 0.5511811023622047
          },
          {
            "duration": 0.22857119999997622,
            "durationTicks": 384,
            "midi": 74,
            "name": "D5",
            "ticks": 546240,
            "time": 325.142532,
            "velocity": 0.5511811023622047
          },
          {
            "duration": 0.14285700000004908,
            "durationTicks": 240,
            "midi": 75,
            "name": "D#5",
            "ticks": 546720,
            "time": 325.428246,
            "velocity": 0.5511811023622047
          },
          {
            "duration": 0.11428560000001653,
            "durationTicks": 192,
            "midi": 74,
            "name": "D5",
            "ticks": 546960,
            "time": 325.57110300000005,
            "velocity": 0.5511811023622047
          },
          {
            "duration": 0.2857139999999845,
            "durationTicks": 480,
            "midi": 74,
            "name": "D5",
            "ticks": 547200,
            "time": 325.71396000000004,
            "velocity": 0.5511811023622047
          },
          {
            "duration": 0.22857119999997622,
            "durationTicks": 384,
            "midi": 82,
            "name": "A#5",
            "ticks": 547680,
            "time": 325.999674,
            "velocity": 0.5511811023622047
          },
          {
            "duration": 0.14285699999999224,
            "durationTicks": 240,
            "midi": 82,
            "name": "A#5",
            "ticks": 548640,
            "time": 326.57110200000005,
            "velocity": 0.5511811023622047
          },
          {
            "duration": 0.11428560000001653,
            "durationTicks": 192,
            "midi": 80,
            "name": "G#5",
            "ticks": 548880,
            "time": 326.71395900000005,
            "velocity": 0.5511811023622047
          },
          {
            "duration": 0.22857119999997622,
            "durationTicks": 384,
            "midi": 79,
            "name": "G5",
            "ticks": 549120,
            "time": 326.85681600000004,
            "velocity": 0.5511811023622047
          },
          {
            "duration": 0.14285699999999224,
            "durationTicks": 240,
            "midi": 79,
            "name": "G5",
            "ticks": 549600,
            "time": 327.14253,
            "velocity": 0.5511811023622047
          },
          {
            "duration": 0.11428560000001653,
            "durationTicks": 192,
            "midi": 77,
            "name": "F5",
            "ticks": 549840,
            "time": 327.285387,
            "velocity": 0.5511811023622047
          },
          {
            "duration": 0.22857120000003306,
            "durationTicks": 384,
            "midi": 75,
            "name": "D#5",
            "ticks": 550080,
            "time": 327.428244,
            "velocity": 0.5511811023622047
          },
          {
            "duration": 0.14285699999999224,
            "durationTicks": 240,
            "midi": 77,
            "name": "F5",
            "ticks": 550560,
            "time": 327.71395800000005,
            "velocity": 0.5511811023622047
          },
          {
            "duration": 0.11428560000001653,
            "durationTicks": 192,
            "midi": 75,
            "name": "D#5",
            "ticks": 550800,
            "time": 327.85681500000004,
            "velocity": 0.5511811023622047
          },
          {
            "duration": 0.22857119999997622,
            "durationTicks": 384,
            "midi": 74,
            "name": "D5",
            "ticks": 551040,
            "time": 327.99967200000003,
            "velocity": 0.5511811023622047
          },
          {
            "duration": 0.22857119999997622,
            "durationTicks": 384,
            "midi": 74,
            "name": "D5",
            "ticks": 551520,
            "time": 328.285386,
            "velocity": 0.5511811023622047
          },
          {
            "duration": 0.14285699999999224,
            "durationTicks": 240,
            "midi": 82,
            "name": "A#5",
            "ticks": 552480,
            "time": 328.85681400000004,
            "velocity": 0.5511811023622047
          },
          {
            "duration": 0.11428560000001653,
            "durationTicks": 192,
            "midi": 80,
            "name": "G#5",
            "ticks": 552720,
            "time": 328.99967100000003,
            "velocity": 0.5511811023622047
          },
          {
            "duration": 0.22857119999997622,
            "durationTicks": 384,
            "midi": 80,
            "name": "G#5",
            "ticks": 552960,
            "time": 329.142528,
            "velocity": 0.5511811023622047
          },
          {
            "duration": 0.14285699999999224,
            "durationTicks": 240,
            "midi": 82,
            "name": "A#5",
            "ticks": 553440,
            "time": 329.428242,
            "velocity": 0.5511811023622047
          },
          {
            "duration": 0.11428560000007337,
            "durationTicks": 192,
            "midi": 80,
            "name": "G#5",
            "ticks": 553680,
            "time": 329.571099,
            "velocity": 0.5511811023622047
          },
          {
            "duration": 0.22857119999997622,
            "durationTicks": 384,
            "midi": 80,
            "name": "G#5",
            "ticks": 553920,
            "time": 329.71395600000005,
            "velocity": 0.5511811023622047
          },
          {
            "duration": 0.14285699999999224,
            "durationTicks": 240,
            "midi": 82,
            "name": "A#5",
            "ticks": 554400,
            "time": 329.99967000000004,
            "velocity": 0.5511811023622047
          },
          {
            "duration": 0.11428560000001653,
            "durationTicks": 192,
            "midi": 80,
            "name": "G#5",
            "ticks": 554640,
            "time": 330.14252700000003,
            "velocity": 0.5511811023622047
          },
          {
            "duration": 0.2857139999999845,
            "durationTicks": 480,
            "midi": 80,
            "name": "G#5",
            "ticks": 554880,
            "time": 330.285384,
            "velocity": 0.5511811023622047
          },
          {
            "duration": 0.22857120000003306,
            "durationTicks": 384,
            "midi": 70,
            "name": "A#4",
            "ticks": 555360,
            "time": 330.571098,
            "velocity": 0.5511811023622047
          },
          {
            "duration": 0.14285699999999224,
            "durationTicks": 240,
            "midi": 77,
            "name": "F5",
            "ticks": 556320,
            "time": 331.14252600000003,
            "velocity": 0.5511811023622047
          },
          {
            "duration": 0.11428560000001653,
            "durationTicks": 192,
            "midi": 75,
            "name": "D#5",
            "ticks": 556560,
            "time": 331.285383,
            "velocity": 0.5511811023622047
          },
          {
            "duration": 0.22857119999997622,
            "durationTicks": 384,
            "midi": 74,
            "name": "D5",
            "ticks": 556800,
            "time": 331.42824,
            "velocity": 0.5511811023622047
          },
          {
            "duration": 0.14285700000004908,
            "durationTicks": 240,
            "midi": 74,
            "name": "D5",
            "ticks": 557280,
            "time": 331.713954,
            "velocity": 0.5511811023622047
          },
          {
            "duration": 0.11428560000001653,
            "durationTicks": 192,
            "midi": 72,
            "name": "C5",
            "ticks": 557520,
            "time": 331.85681100000005,
            "velocity": 0.5511811023622047
          },
          {
            "duration": 0.22857119999997622,
            "durationTicks": 384,
            "midi": 70,
            "name": "A#4",
            "ticks": 557760,
            "time": 331.99966800000004,
            "velocity": 0.5511811023622047
          },
          {
            "duration": 0.14285699999999224,
            "durationTicks": 240,
            "midi": 70,
            "name": "A#4",
            "ticks": 558240,
            "time": 332.285382,
            "velocity": 0.5511811023622047
          },
          {
            "duration": 0.11428560000001653,
            "durationTicks": 192,
            "midi": 68,
            "name": "G#4",
            "ticks": 558480,
            "time": 332.428239,
            "velocity": 0.5511811023622047
          },
          {
            "duration": 0.9142848000000185,
            "durationTicks": 1536,
            "midi": 67,
            "name": "G4",
            "ticks": 558720,
            "time": 332.571096,
            "velocity": 0.8267716535433071
          },
          {
            "duration": 0.9142848000000185,
            "durationTicks": 1536,
            "midi": 75,
            "name": "D#5",
            "ticks": 558720,
            "time": 332.571096,
            "velocity": 0.8267716535433071
          },
          {
            "duration": 0.22857120000003306,
            "durationTicks": 384,
            "midi": 62,
            "name": "D4",
            "ticks": 560640,
            "time": 333.713952,
            "velocity": 0.8267716535433071
          },
          {
            "duration": 0.22857120000003306,
            "durationTicks": 384,
            "midi": 70,
            "name": "A#4",
            "ticks": 560640,
            "time": 333.713952,
            "velocity": 0.8267716535433071
          },
          {
            "duration": 0.7428563999999938,
            "durationTicks": 1248,
            "midi": 82,
            "name": "A#5",
            "ticks": 560640,
            "time": 333.713952,
            "velocity": 0.8267716535433071
          },
          {
            "duration": 0.0785713500000611,
            "durationTicks": 132,
            "midi": 82,
            "name": "A#5",
            "ticks": 562320,
            "time": 334.713951,
            "velocity": 0.8267716535433071
          },
          {
            "duration": 0.15714270000000852,
            "durationTicks": 264,
            "midi": 80,
            "name": "G#5",
            "ticks": 562560,
            "time": 334.856808,
            "velocity": 0.8267716535433071
          },
          {
            "duration": 0.15714269999995167,
            "durationTicks": 264,
            "midi": 84,
            "name": "C6",
            "ticks": 563040,
            "time": 335.14252200000004,
            "velocity": 0.8267716535433071
          },
          {
            "duration": 0.15714270000000852,
            "durationTicks": 264,
            "midi": 87,
            "name": "D#6",
            "ticks": 563520,
            "time": 335.428236,
            "velocity": 0.8267716535433071
          },
          {
            "duration": 0.15714269999995167,
            "durationTicks": 264,
            "midi": 79,
            "name": "G5",
            "ticks": 564480,
            "time": 335.99966400000005,
            "velocity": 0.8267716535433071
          },
          {
            "duration": 0.15714269999995167,
            "durationTicks": 264,
            "midi": 82,
            "name": "A#5",
            "ticks": 564960,
            "time": 336.28537800000004,
            "velocity": 0.8267716535433071
          },
          {
            "duration": 0.15714270000000852,
            "durationTicks": 264,
            "midi": 87,
            "name": "D#6",
            "ticks": 565440,
            "time": 336.571092,
            "velocity": 0.8267716535433071
          },
          {
            "duration": 0.07857135000000426,
            "durationTicks": 132,
            "midi": 79,
            "name": "G5",
            "ticks": 566160,
            "time": 336.99966300000006,
            "velocity": 0.8267716535433071
          },
          {
            "duration": 0.15714269999995167,
            "durationTicks": 264,
            "midi": 77,
            "name": "F5",
            "ticks": 566400,
            "time": 337.14252000000005,
            "velocity": 0.8267716535433071
          },
          {
            "duration": 0.15714270000000852,
            "durationTicks": 264,
            "midi": 80,
            "name": "G#5",
            "ticks": 566880,
            "time": 337.42823400000003,
            "velocity": 0.8267716535433071
          },
          {
            "duration": 0.15714270000000852,
            "durationTicks": 264,
            "midi": 84,
            "name": "C6",
            "ticks": 567360,
            "time": 337.713948,
            "velocity": 0.8267716535433071
          },
          {
            "duration": 0.15714270000000852,
            "durationTicks": 264,
            "midi": 77,
            "name": "F5",
            "ticks": 567840,
            "time": 337.999662,
            "velocity": 0.8267716535433071
          },
          {
            "duration": 0.15714269999995167,
            "durationTicks": 264,
            "midi": 76,
            "name": "E5",
            "ticks": 568320,
            "time": 338.28537600000004,
            "velocity": 0.8267716535433071
          },
          {
            "duration": 0.15714270000000852,
            "durationTicks": 264,
            "midi": 79,
            "name": "G5",
            "ticks": 568800,
            "time": 338.57109,
            "velocity": 0.8267716535433071
          },
          {
            "duration": 0.15714270000000852,
            "durationTicks": 264,
            "midi": 82,
            "name": "A#5",
            "ticks": 569280,
            "time": 338.856804,
            "velocity": 0.8267716535433071
          },
          {
            "duration": 0.15714269999995167,
            "durationTicks": 264,
            "midi": 73,
            "name": "C#5",
            "ticks": 569760,
            "time": 339.14251800000005,
            "velocity": 0.8267716535433071
          },
          {
            "duration": 0.15714269999995167,
            "durationTicks": 264,
            "midi": 72,
            "name": "C5",
            "ticks": 570240,
            "time": 339.42823200000004,
            "velocity": 0.8267716535433071
          },
          {
            "duration": 0.15714270000000852,
            "durationTicks": 264,
            "midi": 76,
            "name": "E5",
            "ticks": 570720,
            "time": 339.713946,
            "velocity": 0.8267716535433071
          },
          {
            "duration": 0.15714270000000852,
            "durationTicks": 264,
            "midi": 79,
            "name": "G5",
            "ticks": 571200,
            "time": 339.99966,
            "velocity": 0.8267716535433071
          },
          {
            "duration": 0.15714269999995167,
            "durationTicks": 264,
            "midi": 72,
            "name": "C5",
            "ticks": 571680,
            "time": 340.28537400000005,
            "velocity": 0.8267716535433071
          },
          {
            "duration": 0.11428560000001653,
            "durationTicks": 192,
            "midi": 68,
            "name": "G#4",
            "ticks": 572160,
            "time": 340.57108800000003,
            "velocity": 0.7244094488188977
          },
          {
            "duration": 0.11428560000001653,
            "durationTicks": 192,
            "midi": 65,
            "name": "F4",
            "ticks": 572400,
            "time": 340.713945,
            "velocity": 0.7244094488188977
          },
          {
            "duration": 0.11428560000001653,
            "durationTicks": 192,
            "midi": 72,
            "name": "C5",
            "ticks": 572640,
            "time": 340.856802,
            "velocity": 0.7244094488188977
          },
          {
            "duration": 0.11428560000007337,
            "durationTicks": 192,
            "midi": 68,
            "name": "G#4",
            "ticks": 572880,
            "time": 340.999659,
            "velocity": 0.7244094488188977
          },
          {
            "duration": 0.11428560000007337,
            "durationTicks": 192,
            "midi": 77,
            "name": "F5",
            "ticks": 573120,
            "time": 341.142516,
            "velocity": 0.7244094488188977
          },
          {
            "duration": 0.11428560000001653,
            "durationTicks": 192,
            "midi": 72,
            "name": "C5",
            "ticks": 573360,
            "time": 341.28537300000005,
            "velocity": 0.7244094488188977
          },
          {
            "duration": 0.11428560000001653,
            "durationTicks": 192,
            "midi": 80,
            "name": "G#5",
            "ticks": 573600,
            "time": 341.42823000000004,
            "velocity": 0.7244094488188977
          },
          {
            "duration": 0.11428560000001653,
            "durationTicks": 192,
            "midi": 77,
            "name": "F5",
            "ticks": 573840,
            "time": 341.57108700000003,
            "velocity": 0.7244094488188977
          },
          {
            "duration": 0.11428560000001653,
            "durationTicks": 192,
            "midi": 76,
            "name": "E5",
            "ticks": 574080,
            "time": 341.713944,
            "velocity": 0.7244094488188977
          },
          {
            "duration": 0.11428560000001653,
            "durationTicks": 192,
            "midi": 79,
            "name": "G5",
            "ticks": 574320,
            "time": 341.856801,
            "velocity": 0.7244094488188977
          },
          {
            "duration": 0.11428560000001653,
            "durationTicks": 192,
            "midi": 84,
            "name": "C6",
            "ticks": 574560,
            "time": 341.999658,
            "velocity": 0.7244094488188977
          },
          {
            "duration": 0.11428560000007337,
            "durationTicks": 192,
            "midi": 82,
            "name": "A#5",
            "ticks": 574800,
            "time": 342.142515,
            "velocity": 0.7244094488188977
          },
          {
            "duration": 0.11428560000001653,
            "durationTicks": 192,
            "midi": 80,
            "name": "G#5",
            "ticks": 575040,
            "time": 342.28537200000005,
            "velocity": 0.7244094488188977
          },
          {
            "duration": 0.11428560000001653,
            "durationTicks": 192,
            "midi": 79,
            "name": "G5",
            "ticks": 575280,
            "time": 342.42822900000004,
            "velocity": 0.7244094488188977
          },
          {
            "duration": 0.11428560000001653,
            "durationTicks": 192,
            "midi": 77,
            "name": "F5",
            "ticks": 575520,
            "time": 342.57108600000004,
            "velocity": 0.7244094488188977
          },
          {
            "duration": 0.11428560000001653,
            "durationTicks": 192,
            "midi": 75,
            "name": "D#5",
            "ticks": 575760,
            "time": 342.71394300000003,
            "velocity": 0.7244094488188977
          },
          {
            "duration": 0.11428560000001653,
            "durationTicks": 192,
            "midi": 73,
            "name": "C#5",
            "ticks": 576000,
            "time": 342.8568,
            "velocity": 0.7244094488188977
          },
          {
            "duration": 0.11428560000001653,
            "durationTicks": 192,
            "midi": 77,
            "name": "F5",
            "ticks": 576240,
            "time": 342.999657,
            "velocity": 0.7244094488188977
          },
          {
            "duration": 0.11428560000007337,
            "durationTicks": 192,
            "midi": 82,
            "name": "A#5",
            "ticks": 576480,
            "time": 343.142514,
            "velocity": 0.7244094488188977
          },
          {
            "duration": 0.11428560000001653,
            "durationTicks": 192,
            "midi": 80,
            "name": "G#5",
            "ticks": 576720,
            "time": 343.28537100000005,
            "velocity": 0.7244094488188977
          },
          {
            "duration": 0.11428560000001653,
            "durationTicks": 192,
            "midi": 79,
            "name": "G5",
            "ticks": 576960,
            "time": 343.42822800000005,
            "velocity": 0.7244094488188977
          },
          {
            "duration": 0.11428560000001653,
            "durationTicks": 192,
            "midi": 77,
            "name": "F5",
            "ticks": 577200,
            "time": 343.57108500000004,
            "velocity": 0.7244094488188977
          },
          {
            "duration": 0.11428560000001653,
            "durationTicks": 192,
            "midi": 75,
            "name": "D#5",
            "ticks": 577440,
            "time": 343.71394200000003,
            "velocity": 0.7244094488188977
          },
          {
            "duration": 0.11428560000001653,
            "durationTicks": 192,
            "midi": 73,
            "name": "C#5",
            "ticks": 577680,
            "time": 343.856799,
            "velocity": 0.7244094488188977
          },
          {
            "duration": 0.11428560000001653,
            "durationTicks": 192,
            "midi": 72,
            "name": "C5",
            "ticks": 577920,
            "time": 343.999656,
            "velocity": 0.7244094488188977
          },
          {
            "duration": 0.11428560000007337,
            "durationTicks": 192,
            "midi": 75,
            "name": "D#5",
            "ticks": 578160,
            "time": 344.142513,
            "velocity": 0.7244094488188977
          },
          {
            "duration": 0.11428560000007337,
            "durationTicks": 192,
            "midi": 80,
            "name": "G#5",
            "ticks": 578400,
            "time": 344.28537,
            "velocity": 0.7244094488188977
          },
          {
            "duration": 0.11428560000001653,
            "durationTicks": 192,
            "midi": 79,
            "name": "G5",
            "ticks": 578640,
            "time": 344.42822700000005,
            "velocity": 0.7244094488188977
          },
          {
            "duration": 0.11428560000001653,
            "durationTicks": 192,
            "midi": 77,
            "name": "F5",
            "ticks": 578880,
            "time": 344.57108400000004,
            "velocity": 0.7244094488188977
          },
          {
            "duration": 0.11428560000001653,
            "durationTicks": 192,
            "midi": 75,
            "name": "D#5",
            "ticks": 579120,
            "time": 344.71394100000003,
            "velocity": 0.7244094488188977
          },
          {
            "duration": 0.11428560000001653,
            "durationTicks": 192,
            "midi": 73,
            "name": "C#5",
            "ticks": 579360,
            "time": 344.856798,
            "velocity": 0.7244094488188977
          },
          {
            "duration": 0.11428560000001653,
            "durationTicks": 192,
            "midi": 72,
            "name": "C5",
            "ticks": 579600,
            "time": 344.999655,
            "velocity": 0.7244094488188977
          },
          {
            "duration": 0.11428560000001653,
            "durationTicks": 192,
            "midi": 70,
            "name": "A#4",
            "ticks": 579840,
            "time": 345.142512,
            "velocity": 0.7244094488188977
          },
          {
            "duration": 0.11428560000007337,
            "durationTicks": 192,
            "midi": 73,
            "name": "C#5",
            "ticks": 580080,
            "time": 345.285369,
            "velocity": 0.7244094488188977
          },
          {
            "duration": 0.11428560000001653,
            "durationTicks": 192,
            "midi": 79,
            "name": "G5",
            "ticks": 580320,
            "time": 345.42822600000005,
            "velocity": 0.7244094488188977
          },
          {
            "duration": 0.11428560000001653,
            "durationTicks": 192,
            "midi": 77,
            "name": "F5",
            "ticks": 580560,
            "time": 345.57108300000004,
            "velocity": 0.7244094488188977
          },
          {
            "duration": 0.11428560000001653,
            "durationTicks": 192,
            "midi": 76,
            "name": "E5",
            "ticks": 580800,
            "time": 345.71394000000004,
            "velocity": 0.7244094488188977
          },
          {
            "duration": 0.11428560000001653,
            "durationTicks": 192,
            "midi": 73,
            "name": "C#5",
            "ticks": 581040,
            "time": 345.85679700000003,
            "velocity": 0.7244094488188977
          },
          {
            "duration": 0.11428560000001653,
            "durationTicks": 192,
            "midi": 72,
            "name": "C5",
            "ticks": 581280,
            "time": 345.999654,
            "velocity": 0.7244094488188977
          },
          {
            "duration": 0.11428560000001653,
            "durationTicks": 192,
            "midi": 70,
            "name": "A#4",
            "ticks": 581520,
            "time": 346.142511,
            "velocity": 0.7244094488188977
          },
          {
            "duration": 0.22857120000003306,
            "durationTicks": 384,
            "midi": 68,
            "name": "G#4",
            "ticks": 581760,
            "time": 346.285368,
            "velocity": 0.8267716535433071
          },
          {
            "duration": 0.08571419999998398,
            "durationTicks": 144,
            "midi": 72,
            "name": "C5",
            "ticks": 582480,
            "time": 346.71393900000004,
            "velocity": 0.8267716535433071
          },
          {
            "duration": 0.17142839999996795,
            "durationTicks": 288,
            "midi": 77,
            "name": "F5",
            "ticks": 582720,
            "time": 346.85679600000003,
            "velocity": 0.8267716535433071
          },
          {
            "duration": 0.17142839999996795,
            "durationTicks": 288,
            "midi": 80,
            "name": "G#5",
            "ticks": 583200,
            "time": 347.14251,
            "velocity": 0.8267716535433071
          },
          {
            "duration": 0.22857120000003306,
            "durationTicks": 384,
            "midi": 58,
            "name": "A#3",
            "ticks": 583680,
            "time": 347.428224,
            "velocity": 0.8267716535433071
          },
          {
            "duration": 0.08571419999998398,
            "durationTicks": 144,
            "midi": 77,
            "name": "F5",
            "ticks": 584400,
            "time": 347.85679500000003,
            "velocity": 0.8267716535433071
          },
          {
            "duration": 0.17142839999996795,
            "durationTicks": 288,
            "midi": 82,
            "name": "A#5",
            "ticks": 584640,
            "time": 347.999652,
            "velocity": 0.8267716535433071
          },
          {
            "duration": 0.17142839999996795,
            "durationTicks": 288,
            "midi": 86,
            "name": "D6",
            "ticks": 585120,
            "time": 348.285366,
            "velocity": 0.8267716535433071
          },
          {
            "duration": 0.22857119999997622,
            "durationTicks": 384,
            "midi": 63,
            "name": "D#4",
            "ticks": 585600,
            "time": 348.57108000000005,
            "velocity": 0.8267716535433071
          },
          {
            "duration": 0.08571419999998398,
            "durationTicks": 144,
            "midi": 70,
            "name": "A#4",
            "ticks": 586320,
            "time": 348.99965100000003,
            "velocity": 0.8267716535433071
          },
          {
            "duration": 0.17142839999996795,
            "durationTicks": 288,
            "midi": 75,
            "name": "D#5",
            "ticks": 586560,
            "time": 349.142508,
            "velocity": 0.8267716535433071
          },
          {
            "duration": 0.1714284000000248,
            "durationTicks": 288,
            "midi": 79,
            "name": "G5",
            "ticks": 587040,
            "time": 349.428222,
            "velocity": 0.8267716535433071
          },
          {
            "duration": 0.22857119999997622,
            "durationTicks": 384,
            "midi": 56,
            "name": "G#3",
            "ticks": 587520,
            "time": 349.71393600000005,
            "velocity": 0.8267716535433071
          },
          {
            "duration": 0.08571419999998398,
            "durationTicks": 144,
            "midi": 75,
            "name": "D#5",
            "ticks": 588240,
            "time": 350.142507,
            "velocity": 0.8267716535433071
          },
          {
            "duration": 0.17142839999996795,
            "durationTicks": 288,
            "midi": 80,
            "name": "G#5",
            "ticks": 588480,
            "time": 350.285364,
            "velocity": 0.8267716535433071
          },
          {
            "duration": 0.17142839999996795,
            "durationTicks": 288,
            "midi": 84,
            "name": "C6",
            "ticks": 588960,
            "time": 350.57107800000006,
            "velocity": 0.8267716535433071
          },
          {
            "duration": 0.22857119999997622,
            "durationTicks": 384,
            "midi": 62,
            "name": "D4",
            "ticks": 589440,
            "time": 350.85679200000004,
            "velocity": 0.8267716535433071
          },
          {
            "duration": 0.08571419999998398,
            "durationTicks": 144,
            "midi": 81,
            "name": "A5",
            "ticks": 590160,
            "time": 351.285363,
            "velocity": 0.8267716535433071
          },
          {
            "duration": 0.17142839999996795,
            "durationTicks": 288,
            "midi": 86,
            "name": "D6",
            "ticks": 590400,
            "time": 351.42822,
            "velocity": 0.8267716535433071
          },
          {
            "duration": 0.17142839999996795,
            "durationTicks": 288,
            "midi": 89,
            "name": "F6",
            "ticks": 590880,
            "time": 351.71393400000005,
            "velocity": 0.8267716535433071
          },
          {
            "duration": 0.22857119999997622,
            "durationTicks": 384,
            "midi": 55,
            "name": "G3",
            "ticks": 591360,
            "time": 351.99964800000004,
            "velocity": 0.8267716535433071
          },
          {
            "duration": 0.08571419999998398,
            "durationTicks": 144,
            "midi": 74,
            "name": "D5",
            "ticks": 592080,
            "time": 352.428219,
            "velocity": 0.8267716535433071
          },
          {
            "duration": 0.1714284000000248,
            "durationTicks": 288,
            "midi": 79,
            "name": "G5",
            "ticks": 592320,
            "time": 352.571076,
            "velocity": 0.8267716535433071
          },
          {
            "duration": 0.17142839999996795,
            "durationTicks": 288,
            "midi": 83,
            "name": "B5",
            "ticks": 592800,
            "time": 352.85679000000005,
            "velocity": 0.8267716535433071
          },
          {
            "duration": 0.22857119999997622,
            "durationTicks": 384,
            "midi": 60,
            "name": "C4",
            "ticks": 593280,
            "time": 353.14250400000003,
            "velocity": 0.8267716535433071
          },
          {
            "duration": 0.08571419999998398,
            "durationTicks": 144,
            "midi": 67,
            "name": "G4",
            "ticks": 594000,
            "time": 353.571075,
            "velocity": 0.8267716535433071
          },
          {
            "duration": 0.17142839999996795,
            "durationTicks": 288,
            "midi": 72,
            "name": "C5",
            "ticks": 594240,
            "time": 353.71393200000006,
            "velocity": 0.8267716535433071
          },
          {
            "duration": 0.17142839999996795,
            "durationTicks": 288,
            "midi": 75,
            "name": "D#5",
            "ticks": 594720,
            "time": 353.99964600000004,
            "velocity": 0.8267716535433071
          },
          {
            "duration": 0.22857119999997622,
            "durationTicks": 384,
            "midi": 62,
            "name": "D4",
            "ticks": 595200,
            "time": 354.28536,
            "velocity": 0.8267716535433071
          },
          {
            "duration": 0.08571420000004082,
            "durationTicks": 144,
            "midi": 72,
            "name": "C5",
            "ticks": 595920,
            "time": 354.713931,
            "velocity": 0.8267716535433071
          },
          {
            "duration": 0.17142839999996795,
            "durationTicks": 288,
            "midi": 78,
            "name": "F#5",
            "ticks": 596160,
            "time": 354.85678800000005,
            "velocity": 0.8267716535433071
          },
          {
            "duration": 0.17142839999996795,
            "durationTicks": 288,
            "midi": 81,
            "name": "A5",
            "ticks": 596640,
            "time": 355.14250200000004,
            "velocity": 0.8267716535433071
          },
          {
            "duration": 0.9142848000000185,
            "durationTicks": 1536,
            "midi": 55,
            "name": "G3",
            "ticks": 597120,
            "time": 355.428216,
            "velocity": 0.8267716535433071
          },
          {
            "duration": 0.9142848000000185,
            "durationTicks": 1536,
            "midi": 67,
            "name": "G4",
            "ticks": 597120,
            "time": 355.428216,
            "velocity": 0.8267716535433071
          },
          {
            "duration": 0.6857136000000423,
            "durationTicks": 1152,
            "midi": 62,
            "name": "D4",
            "ticks": 599040,
            "time": 356.571072,
            "velocity": 0.8267716535433071
          },
          {
            "duration": 0.6857136000000423,
            "durationTicks": 1152,
            "midi": 74,
            "name": "D5",
            "ticks": 599040,
            "time": 356.571072,
            "velocity": 0.8267716535433071
          },
          {
            "duration": 0.0785713500000611,
            "durationTicks": 132,
            "midi": 74,
            "name": "D5",
            "ticks": 600720,
            "time": 357.571071,
            "velocity": 0.8267716535433071
          },
          {
            "duration": 0.15714270000000852,
            "durationTicks": 264,
            "midi": 72,
            "name": "C5",
            "ticks": 600960,
            "time": 357.713928,
            "velocity": 0.8267716535433071
          },
          {
            "duration": 0.15714269999995167,
            "durationTicks": 264,
            "midi": 75,
            "name": "D#5",
            "ticks": 601440,
            "time": 357.99964200000005,
            "velocity": 0.8267716535433071
          },
          {
            "duration": 0.15714270000000852,
            "durationTicks": 264,
            "midi": 79,
            "name": "G5",
            "ticks": 601920,
            "time": 358.28535600000004,
            "velocity": 0.8267716535433071
          },
          {
            "duration": 0.15714270000000852,
            "durationTicks": 264,
            "midi": 70,
            "name": "A#4",
            "ticks": 602880,
            "time": 358.856784,
            "velocity": 0.8267716535433071
          },
          {
            "duration": 0.15714269999995167,
            "durationTicks": 264,
            "midi": 74,
            "name": "D5",
            "ticks": 603360,
            "time": 359.14249800000005,
            "velocity": 0.8267716535433071
          },
          {
            "duration": 0.15714270000000852,
            "durationTicks": 264,
            "midi": 79,
            "name": "G5",
            "ticks": 603840,
            "time": 359.42821200000003,
            "velocity": 0.8267716535433071
          },
          {
            "duration": 0.0785713500000611,
            "durationTicks": 132,
            "midi": 82,
            "name": "A#5",
            "ticks": 604560,
            "time": 359.856783,
            "velocity": 0.8267716535433071
          },
          {
            "duration": 0.15714269999995167,
            "durationTicks": 264,
            "midi": 81,
            "name": "A5",
            "ticks": 604800,
            "time": 359.99964000000006,
            "velocity": 0.8267716535433071
          },
          {
            "duration": 0.15714269999995167,
            "durationTicks": 264,
            "midi": 84,
            "name": "C6",
            "ticks": 605280,
            "time": 360.28535400000004,
            "velocity": 0.8267716535433071
          },
          {
            "duration": 0.15714270000000852,
            "durationTicks": 264,
            "midi": 87,
            "name": "D#6",
            "ticks": 605760,
            "time": 360.571068,
            "velocity": 0.8267716535433071
          },
          {
            "duration": 0.0785713500000611,
            "durationTicks": 132,
            "midi": 78,
            "name": "F#5",
            "ticks": 606480,
            "time": 360.999639,
            "velocity": 0.8267716535433071
          },
          {
            "duration": 0.15714269999995167,
            "durationTicks": 264,
            "midi": 79,
            "name": "G5",
            "ticks": 606720,
            "time": 361.14249600000005,
            "velocity": 0.8267716535433071
          },
          {
            "duration": 0.15714270000000852,
            "durationTicks": 264,
            "midi": 82,
            "name": "A#5",
            "ticks": 607200,
            "time": 361.42821000000004,
            "velocity": 0.8267716535433071
          },
          {
            "duration": 0.15714270000000852,
            "durationTicks": 264,
            "midi": 86,
            "name": "D6",
            "ticks": 607680,
            "time": 361.713924,
            "velocity": 0.8267716535433071
          },
          {
            "duration": 0.07857135000000426,
            "durationTicks": 132,
            "midi": 74,
            "name": "D5",
            "ticks": 608400,
            "time": 362.14249500000005,
            "velocity": 0.8267716535433071
          },
          {
            "duration": 0.11428560000001653,
            "durationTicks": 192,
            "midi": 73,
            "name": "C#5",
            "ticks": 608640,
            "time": 362.28535200000005,
            "velocity": 0.984251968503937
          },
          {
            "duration": 0.11428560000001653,
            "durationTicks": 192,
            "midi": 74,
            "name": "D5",
            "ticks": 608880,
            "time": 362.42820900000004,
            "velocity": 0.8267716535433071
          },
          {
            "duration": 0.11428560000001653,
            "durationTicks": 192,
            "midi": 76,
            "name": "E5",
            "ticks": 609120,
            "time": 362.57106600000003,
            "velocity": 0.8267716535433071
          },
          {
            "duration": 0.11428560000001653,
            "durationTicks": 192,
            "midi": 77,
            "name": "F5",
            "ticks": 609360,
            "time": 362.713923,
            "velocity": 0.8267716535433071
          },
          {
            "duration": 0.11428560000001653,
            "durationTicks": 192,
            "midi": 79,
            "name": "G5",
            "ticks": 609600,
            "time": 362.85678,
            "velocity": 0.8267716535433071
          },
          {
            "duration": 0.11428560000007337,
            "durationTicks": 192,
            "midi": 81,
            "name": "A5",
            "ticks": 609840,
            "time": 362.999637,
            "velocity": 0.8267716535433071
          },
          {
            "duration": 0.11428560000001653,
            "durationTicks": 192,
            "midi": 82,
            "name": "A#5",
            "ticks": 610080,
            "time": 363.14249400000006,
            "velocity": 0.8267716535433071
          },
          {
            "duration": 0.11428560000001653,
            "durationTicks": 192,
            "midi": 74,
            "name": "D5",
            "ticks": 610320,
            "time": 363.28535100000005,
            "velocity": 0.8267716535433071
          },
          {
            "duration": 0.11428560000001653,
            "durationTicks": 192,
            "midi": 73,
            "name": "C#5",
            "ticks": 610560,
            "time": 363.42820800000004,
            "velocity": 0.984251968503937
          },
          {
            "duration": 0.11428560000001653,
            "durationTicks": 192,
            "midi": 74,
            "name": "D5",
            "ticks": 610800,
            "time": 363.57106500000003,
            "velocity": 0.8267716535433071
          },
          {
            "duration": 0.11428560000001653,
            "durationTicks": 192,
            "midi": 76,
            "name": "E5",
            "ticks": 611040,
            "time": 363.713922,
            "velocity": 0.8267716535433071
          },
          {
            "duration": 0.11428560000001653,
            "durationTicks": 192,
            "midi": 77,
            "name": "F5",
            "ticks": 611280,
            "time": 363.856779,
            "velocity": 0.8267716535433071
          },
          {
            "duration": 0.11428560000007337,
            "durationTicks": 192,
            "midi": 79,
            "name": "G5",
            "ticks": 611520,
            "time": 363.999636,
            "velocity": 0.8267716535433071
          },
          {
            "duration": 0.11428560000007337,
            "durationTicks": 192,
            "midi": 81,
            "name": "A5",
            "ticks": 611760,
            "time": 364.142493,
            "velocity": 0.8267716535433071
          },
          {
            "duration": 0.11428560000001653,
            "durationTicks": 192,
            "midi": 82,
            "name": "A#5",
            "ticks": 612000,
            "time": 364.28535000000005,
            "velocity": 0.8267716535433071
          },
          {
            "duration": 0.11428560000001653,
            "durationTicks": 192,
            "midi": 74,
            "name": "D5",
            "ticks": 612240,
            "time": 364.42820700000004,
            "velocity": 0.8267716535433071
          },
          {
            "duration": 0.11428560000001653,
            "durationTicks": 192,
            "midi": 73,
            "name": "C#5",
            "ticks": 612480,
            "time": 364.57106400000004,
            "velocity": 0.984251968503937
          },
          {
            "duration": 0.11428560000001653,
            "durationTicks": 192,
            "midi": 74,
            "name": "D5",
            "ticks": 612720,
            "time": 364.713921,
            "velocity": 0.8267716535433071
          },
          {
            "duration": 0.11428560000001653,
            "durationTicks": 192,
            "midi": 76,
            "name": "E5",
            "ticks": 612960,
            "time": 364.856778,
            "velocity": 0.8267716535433071
          },
          {
            "duration": 0.11428560000001653,
            "durationTicks": 192,
            "midi": 77,
            "name": "F5",
            "ticks": 613200,
            "time": 364.999635,
            "velocity": 0.8267716535433071
          },
          {
            "duration": 0.11428560000007337,
            "durationTicks": 192,
            "midi": 79,
            "name": "G5",
            "ticks": 613440,
            "time": 365.142492,
            "velocity": 0.8267716535433071
          },
          {
            "duration": 0.11428560000001653,
            "durationTicks": 192,
            "midi": 81,
            "name": "A5",
            "ticks": 613680,
            "time": 365.28534900000005,
            "velocity": 0.8267716535433071
          },
          {
            "duration": 0.11428560000001653,
            "durationTicks": 192,
            "midi": 82,
            "name": "A#5",
            "ticks": 613920,
            "time": 365.42820600000005,
            "velocity": 0.8267716535433071
          },
          {
            "duration": 0.11428560000001653,
            "durationTicks": 192,
            "midi": 74,
            "name": "D5",
            "ticks": 614160,
            "time": 365.57106300000004,
            "velocity": 0.8267716535433071
          },
          {
            "duration": 0.11428560000001653,
            "durationTicks": 192,
            "midi": 73,
            "name": "C#5",
            "ticks": 614400,
            "time": 365.71392000000003,
            "velocity": 0.984251968503937
          },
          {
            "duration": 0.11428560000001653,
            "durationTicks": 192,
            "midi": 74,
            "name": "D5",
            "ticks": 614640,
            "time": 365.856777,
            "velocity": 0.8267716535433071
          },
          {
            "duration": 0.11428560000001653,
            "durationTicks": 192,
            "midi": 76,
            "name": "E5",
            "ticks": 614880,
            "time": 365.999634,
            "velocity": 0.8267716535433071
          },
          {
            "duration": 0.11428560000007337,
            "durationTicks": 192,
            "midi": 77,
            "name": "F5",
            "ticks": 615120,
            "time": 366.142491,
            "velocity": 0.8267716535433071
          },
          {
            "duration": 0.11428560000001653,
            "durationTicks": 192,
            "midi": 79,
            "name": "G5",
            "ticks": 615360,
            "time": 366.28534800000006,
            "velocity": 0.8267716535433071
          },
          {
            "duration": 0.11428560000001653,
            "durationTicks": 192,
            "midi": 81,
            "name": "A5",
            "ticks": 615600,
            "time": 366.42820500000005,
            "velocity": 0.8267716535433071
          },
          {
            "duration": 0.11428560000001653,
            "durationTicks": 192,
            "midi": 82,
            "name": "A#5",
            "ticks": 615840,
            "time": 366.57106200000004,
            "velocity": 0.8267716535433071
          },
          {
            "duration": 0.11428560000001653,
            "durationTicks": 192,
            "midi": 73,
            "name": "C#5",
            "ticks": 616080,
            "time": 366.71391900000003,
            "velocity": 0.8267716535433071
          },
          {
            "duration": 0.45714239999995243,
            "durationTicks": 768,
            "midi": 74,
            "name": "D5",
            "ticks": 616320,
            "time": 366.856776,
            "velocity": 0.8267716535433071
          },
          {
            "duration": 0.17142839999996795,
            "durationTicks": 288,
            "midi": 81,
            "name": "A5",
            "ticks": 617280,
            "time": 367.42820400000005,
            "velocity": 0.8267716535433071
          },
          {
            "duration": 0.17142839999996795,
            "durationTicks": 288,
            "midi": 78,
            "name": "F#5",
            "ticks": 617760,
            "time": 367.71391800000004,
            "velocity": 0.8267716535433071
          },
          {
            "duration": 0.4571424000000093,
            "durationTicks": 768,
            "midi": 82,
            "name": "A#5",
            "ticks": 618240,
            "time": 367.999632,
            "velocity": 0.8267716535433071
          },
          {
            "duration": 0.17142839999996795,
            "durationTicks": 288,
            "midi": 73,
            "name": "C#5",
            "ticks": 619200,
            "time": 368.57106000000005,
            "velocity": 0.8267716535433071
          },
          {
            "duration": 0.17142839999996795,
            "durationTicks": 288,
            "midi": 76,
            "name": "E5",
            "ticks": 619680,
            "time": 368.85677400000003,
            "velocity": 0.8267716535433071
          },
          {
            "duration": 0.4571424000000093,
            "durationTicks": 768,
            "midi": 74,
            "name": "D5",
            "ticks": 620160,
            "time": 369.142488,
            "velocity": 0.8267716535433071
          },
          {
            "duration": 0.09999989999994341,
            "durationTicks": 168,
            "midi": 81,
            "name": "A5",
            "ticks": 621120,
            "time": 369.71391600000004,
            "velocity": 0.8267716535433071
          },
          {
            "duration": 0.09999990000000025,
            "durationTicks": 168,
            "midi": 78,
            "name": "F#5",
            "ticks": 621360,
            "time": 369.85677300000003,
            "velocity": 0.8267716535433071
          },
          {
            "duration": 0.09999990000000025,
            "durationTicks": 168,
            "midi": 81,
            "name": "A5",
            "ticks": 621600,
            "time": 369.99963,
            "velocity": 0.8267716535433071
          },
          {
            "duration": 0.09999990000000025,
            "durationTicks": 168,
            "midi": 78,
            "name": "F#5",
            "ticks": 621840,
            "time": 370.142487,
            "velocity": 0.8267716535433071
          },
          {
            "duration": 0.11428560000007337,
            "durationTicks": 192,
            "midi": 82,
            "name": "A#5",
            "ticks": 622080,
            "time": 370.285344,
            "velocity": 0.8267716535433071
          },
          {
            "duration": 0.11428560000001653,
            "durationTicks": 192,
            "midi": 79,
            "name": "G5",
            "ticks": 622320,
            "time": 370.42820100000006,
            "velocity": 0.8267716535433071
          },
          {
            "duration": 0.11428560000001653,
            "durationTicks": 192,
            "midi": 82,
            "name": "A#5",
            "ticks": 622560,
            "time": 370.57105800000005,
            "velocity": 0.8267716535433071
          },
          {
            "duration": 0.11428560000001653,
            "durationTicks": 192,
            "midi": 79,
            "name": "G5",
            "ticks": 622800,
            "time": 370.71391500000004,
            "velocity": 0.8267716535433071
          },
          {
            "duration": 0.11428560000001653,
            "durationTicks": 192,
            "midi": 73,
            "name": "C#5",
            "ticks": 623040,
            "time": 370.85677200000003,
            "velocity": 0.8267716535433071
          },
          {
            "duration": 0.11428560000001653,
            "durationTicks": 192,
            "midi": 76,
            "name": "E5",
            "ticks": 623280,
            "time": 370.999629,
            "velocity": 0.8267716535433071
          },
          {
            "duration": 0.11428560000001653,
            "durationTicks": 192,
            "midi": 73,
            "name": "C#5",
            "ticks": 623520,
            "time": 371.142486,
            "velocity": 0.8267716535433071
          },
          {
            "duration": 0.11428560000001653,
            "durationTicks": 192,
            "midi": 76,
            "name": "E5",
            "ticks": 623760,
            "time": 371.285343,
            "velocity": 0.8267716535433071
          },
          {
            "duration": 0.22857120000003306,
            "durationTicks": 384,
            "midi": 74,
            "name": "D5",
            "ticks": 624000,
            "time": 371.4282,
            "velocity": 0.8267716535433071
          },
          {
            "duration": 0.22857119999997622,
            "durationTicks": 384,
            "midi": 62,
            "name": "D4",
            "ticks": 624960,
            "time": 371.99962800000003,
            "velocity": 0.7244094488188977
          },
          {
            "duration": 0.22857119999997622,
            "durationTicks": 384,
            "midi": 74,
            "name": "D5",
            "ticks": 624960,
            "time": 371.99962800000003,
            "velocity": 0.7244094488188977
          },
          {
            "duration": 0.22857119999997622,
            "durationTicks": 384,
            "midi": 86,
            "name": "D6",
            "ticks": 624960,
            "time": 371.99962800000003,
            "velocity": 0.7244094488188977
          },
          {
            "duration": 0.8571419999999534,
            "durationTicks": 1440,
            "midi": 74,
            "name": "D5",
            "ticks": 627840,
            "time": 373.71391200000005,
            "velocity": 0.4566929133858268
          },
          {
            "duration": 0.2857140000000413,
            "durationTicks": 480,
            "midi": 73,
            "name": "C#5",
            "ticks": 629280,
            "time": 374.571054,
            "velocity": 0.4566929133858268
          },
          {
            "duration": 0.22857119999997622,
            "durationTicks": 384,
            "midi": 72,
            "name": "C5",
            "ticks": 629760,
            "time": 374.85676800000005,
            "velocity": 0.4566929133858268
          },
          {
            "duration": 0.25714260000000877,
            "durationTicks": 432,
            "midi": 67,
            "name": "G4",
            "ticks": 632160,
            "time": 376.285338,
            "velocity": 0.4566929133858268
          },
          {
            "duration": 0.2857140000000413,
            "durationTicks": 480,
            "midi": 67,
            "name": "G4",
            "ticks": 632640,
            "time": 376.571052,
            "velocity": 0.4566929133858268
          },
          {
            "duration": 0.25714260000000877,
            "durationTicks": 432,
            "midi": 69,
            "name": "A4",
            "ticks": 633120,
            "time": 376.85676600000005,
            "velocity": 0.4566929133858268
          },
          {
            "duration": 0.4285709999999767,
            "durationTicks": 720,
            "midi": 70,
            "name": "A#4",
            "ticks": 633600,
            "time": 377.14248000000003,
            "velocity": 0.4566929133858268
          },
          {
            "duration": 0.14285699999999224,
            "durationTicks": 240,
            "midi": 72,
            "name": "C5",
            "ticks": 634320,
            "time": 377.571051,
            "velocity": 0.4566929133858268
          },
          {
            "duration": 0.22857120000003306,
            "durationTicks": 384,
            "midi": 69,
            "name": "A4",
            "ticks": 634560,
            "time": 377.713908,
            "velocity": 0.4566929133858268
          },
          {
            "duration": 0.8571420000000103,
            "durationTicks": 1440,
            "midi": 75,
            "name": "D#5",
            "ticks": 635520,
            "time": 378.28533600000003,
            "velocity": 0.4566929133858268
          },
          {
            "duration": 0.2857139999999845,
            "durationTicks": 480,
            "midi": 74,
            "name": "D5",
            "ticks": 636960,
            "time": 379.14247800000004,
            "velocity": 0.4566929133858268
          },
          {
            "duration": 0.2857139999999845,
            "durationTicks": 480,
            "midi": 73,
            "name": "C#5",
            "ticks": 637440,
            "time": 379.428192,
            "velocity": 0.4566929133858268
          },
          {
            "duration": 0.2857140000000413,
            "durationTicks": 480,
            "midi": 72,
            "name": "C5",
            "ticks": 637920,
            "time": 379.713906,
            "velocity": 0.4566929133858268
          },
          {
            "duration": 0.2857139999999845,
            "durationTicks": 480,
            "midi": 71,
            "name": "B4",
            "ticks": 638400,
            "time": 379.99962000000005,
            "velocity": 0.4566929133858268
          },
          {
            "duration": 0.22857119999997622,
            "durationTicks": 384,
            "midi": 70,
            "name": "A#4",
            "ticks": 638880,
            "time": 380.28533400000003,
            "velocity": 0.4566929133858268
          },
          {
            "duration": 0.2857139999999845,
            "durationTicks": 480,
            "midi": 69,
            "name": "A4",
            "ticks": 639360,
            "time": 380.571048,
            "velocity": 0.4566929133858268
          },
          {
            "duration": 0.4571424000000093,
            "durationTicks": 768,
            "midi": 72,
            "name": "C5",
            "ticks": 639840,
            "time": 380.856762,
            "velocity": 0.4566929133858268
          },
          {
            "duration": 0.22857119999997622,
            "durationTicks": 384,
            "midi": 66,
            "name": "F#4",
            "ticks": 640800,
            "time": 381.42819000000003,
            "velocity": 0.4566929133858268
          },
          {
            "duration": 0.22857120000003306,
            "durationTicks": 384,
            "midi": 67,
            "name": "G4",
            "ticks": 641280,
            "time": 381.713904,
            "velocity": 0.4566929133858268
          },
          {
            "duration": 0.8571419999999534,
            "durationTicks": 1440,
            "midi": 72,
            "name": "C5",
            "ticks": 645120,
            "time": 383.99961600000006,
            "velocity": 0.4566929133858268
          },
          {
            "duration": 0.07142850000002454,
            "durationTicks": 120,
            "midi": 74,
            "name": "D5",
            "ticks": 646560,
            "time": 384.856758,
            "velocity": 0.4566929133858268
          },
          {
            "duration": 0.0714284999999677,
            "durationTicks": 120,
            "midi": 72,
            "name": "C5",
            "ticks": 646680,
            "time": 384.92818650000004,
            "velocity": 0.4566929133858268
          },
          {
            "duration": 0.07142850000002454,
            "durationTicks": 120,
            "midi": 70,
            "name": "A#4",
            "ticks": 646800,
            "time": 384.999615,
            "velocity": 0.4566929133858268
          },
          {
            "duration": 0.07142850000002454,
            "durationTicks": 120,
            "midi": 69,
            "name": "A4",
            "ticks": 646920,
            "time": 385.07104350000003,
            "velocity": 0.4566929133858268
          },
          {
            "duration": 0.22857119999997622,
            "durationTicks": 384,
            "midi": 67,
            "name": "G4",
            "ticks": 647040,
            "time": 385.14247200000005,
            "velocity": 0.4566929133858268
          },
          {
            "duration": 0.8571420000000103,
            "durationTicks": 1440,
            "midi": 75,
            "name": "D#5",
            "ticks": 650880,
            "time": 387.42818400000004,
            "velocity": 0.4566929133858268
          },
          {
            "duration": 0.2857139999999845,
            "durationTicks": 480,
            "midi": 74,
            "name": "D5",
            "ticks": 652320,
            "time": 388.28532600000005,
            "velocity": 0.4566929133858268
          },
          {
            "duration": 0.2857139999999845,
            "durationTicks": 480,
            "midi": 73,
            "name": "C#5",
            "ticks": 652800,
            "time": 388.57104000000004,
            "velocity": 0.4566929133858268
          },
          {
            "duration": 0.2857139999999845,
            "durationTicks": 480,
            "midi": 72,
            "name": "C5",
            "ticks": 653280,
            "time": 388.856754,
            "velocity": 0.4566929133858268
          },
          {
            "duration": 0.2857140000000413,
            "durationTicks": 480,
            "midi": 71,
            "name": "B4",
            "ticks": 653760,
            "time": 389.142468,
            "velocity": 0.4566929133858268
          },
          {
            "duration": 0.22857119999997622,
            "durationTicks": 384,
            "midi": 70,
            "name": "A#4",
            "ticks": 654240,
            "time": 389.42818200000005,
            "velocity": 0.4566929133858268
          },
          {
            "duration": 0.8571420000000103,
            "durationTicks": 1440,
            "midi": 68,
            "name": "G#4",
            "ticks": 654720,
            "time": 389.71389600000003,
            "velocity": 0.4566929133858268
          },
          {
            "duration": 0.22857119999997622,
            "durationTicks": 384,
            "midi": 67,
            "name": "G4",
            "ticks": 656160,
            "time": 390.57103800000004,
            "velocity": 0.4566929133858268
          },
          {
            "duration": 0.8571420000000103,
            "durationTicks": 1440,
            "midi": 68,
            "name": "G#4",
            "ticks": 656640,
            "time": 390.85675200000003,
            "velocity": 0.4566929133858268
          },
          {
            "duration": 0.22857119999997622,
            "durationTicks": 384,
            "midi": 67,
            "name": "G4",
            "ticks": 658080,
            "time": 391.71389400000004,
            "velocity": 0.4566929133858268
          },
          {
            "duration": 0.8571420000000103,
            "durationTicks": 1440,
            "midi": 68,
            "name": "G#4",
            "ticks": 658560,
            "time": 391.999608,
            "velocity": 0.4566929133858268
          },
          {
            "duration": 0.22857119999997622,
            "durationTicks": 384,
            "midi": 67,
            "name": "G4",
            "ticks": 660000,
            "time": 392.85675000000003,
            "velocity": 0.4566929133858268
          },
          {
            "duration": 0.8571420000000103,
            "durationTicks": 1440,
            "midi": 68,
            "name": "G#4",
            "ticks": 660480,
            "time": 393.142464,
            "velocity": 0.4566929133858268
          },
          {
            "duration": 0.22857119999997622,
            "durationTicks": 384,
            "midi": 67,
            "name": "G4",
            "ticks": 661920,
            "time": 393.999606,
            "velocity": 0.4566929133858268
          },
          {
            "duration": 0.11428560000007337,
            "durationTicks": 192,
            "midi": 68,
            "name": "G#4",
            "ticks": 662400,
            "time": 394.28532,
            "velocity": 0.5511811023622047
          },
          {
            "duration": 0.11428560000007337,
            "durationTicks": 192,
            "midi": 80,
            "name": "G#5",
            "ticks": 662640,
            "time": 394.428177,
            "velocity": 0.5669291338582677
          },
          {
            "duration": 0.11428560000001653,
            "durationTicks": 192,
            "midi": 80,
            "name": "G#5",
            "ticks": 662880,
            "time": 394.57103400000005,
            "velocity": 0.5905511811023622
          },
          {
            "duration": 0.11428560000001653,
            "durationTicks": 192,
            "midi": 80,
            "name": "G#5",
            "ticks": 663120,
            "time": 394.71389100000005,
            "velocity": 0.6062992125984252
          },
          {
            "duration": 0.11428560000001653,
            "durationTicks": 192,
            "midi": 80,
            "name": "G#5",
            "ticks": 663360,
            "time": 394.85674800000004,
            "velocity": 0.6299212598425197
          },
          {
            "duration": 0.11428560000001653,
            "durationTicks": 192,
            "midi": 80,
            "name": "G#5",
            "ticks": 663600,
            "time": 394.99960500000003,
            "velocity": 0.6456692913385826
          },
          {
            "duration": 0.11428560000001653,
            "durationTicks": 192,
            "midi": 80,
            "name": "G#5",
            "ticks": 663840,
            "time": 395.142462,
            "velocity": 0.6692913385826772
          },
          {
            "duration": 0.11428560000001653,
            "durationTicks": 192,
            "midi": 80,
            "name": "G#5",
            "ticks": 664080,
            "time": 395.285319,
            "velocity": 0.6929133858267716
          },
          {
            "duration": 0.11428560000007337,
            "durationTicks": 192,
            "midi": 80,
            "name": "G#5",
            "ticks": 664320,
            "time": 395.428176,
            "velocity": 0.7086614173228346
          },
          {
            "duration": 0.11428560000001653,
            "durationTicks": 192,
            "midi": 80,
            "name": "G#5",
            "ticks": 664560,
            "time": 395.57103300000006,
            "velocity": 0.7322834645669292
          },
          {
            "duration": 0.11428560000001653,
            "durationTicks": 192,
            "midi": 80,
            "name": "G#5",
            "ticks": 664800,
            "time": 395.71389000000005,
            "velocity": 0.7480314960629921
          },
          {
            "duration": 0.11428560000001653,
            "durationTicks": 192,
            "midi": 80,
            "name": "G#5",
            "ticks": 665040,
            "time": 395.85674700000004,
            "velocity": 0.7716535433070866
          },
          {
            "duration": 0.11428560000001653,
            "durationTicks": 192,
            "midi": 80,
            "name": "G#5",
            "ticks": 665280,
            "time": 395.99960400000003,
            "velocity": 0.7874015748031497
          },
          {
            "duration": 0.11428560000001653,
            "durationTicks": 192,
            "midi": 80,
            "name": "G#5",
            "ticks": 665520,
            "time": 396.142461,
            "velocity": 0.8110236220472441
          },
          {
            "duration": 0.11428560000001653,
            "durationTicks": 192,
            "midi": 80,
            "name": "G#5",
            "ticks": 665760,
            "time": 396.285318,
            "velocity": 0.8346456692913385
          },
          {
            "duration": 0.11428560000007337,
            "durationTicks": 192,
            "midi": 80,
            "name": "G#5",
            "ticks": 666000,
            "time": 396.428175,
            "velocity": 0.8503937007874016
          },
          {
            "duration": 0.6857135999999855,
            "durationTicks": 1152,
            "midi": 81,
            "name": "A5",
            "ticks": 666240,
            "time": 396.57103200000006,
            "velocity": 0.9133858267716536
          },
          {
            "duration": 0.03571425000001227,
            "durationTicks": 60,
            "midi": 82,
            "name": "A#5",
            "ticks": 667680,
            "time": 397.428174,
            "velocity": 0.9133858267716536
          },
          {
            "duration": 0.03571425000001227,
            "durationTicks": 60,
            "midi": 81,
            "name": "A5",
            "ticks": 667740,
            "time": 397.46388825,
            "velocity": 0.9133858267716536
          },
          {
            "duration": 0.03571425000001227,
            "durationTicks": 60,
            "midi": 82,
            "name": "A#5",
            "ticks": 667800,
            "time": 397.49960250000004,
            "velocity": 0.9133858267716536
          },
          {
            "duration": 0.03571424999995543,
            "durationTicks": 60,
            "midi": 81,
            "name": "A5",
            "ticks": 667860,
            "time": 397.53531675000005,
            "velocity": 0.9133858267716536
          },
          {
            "duration": 0.03571425000001227,
            "durationTicks": 60,
            "midi": 82,
            "name": "A#5",
            "ticks": 667920,
            "time": 397.571031,
            "velocity": 0.9133858267716536
          },
          {
            "duration": 0.03571425000001227,
            "durationTicks": 60,
            "midi": 81,
            "name": "A5",
            "ticks": 667980,
            "time": 397.60674525,
            "velocity": 0.9133858267716536
          },
          {
            "duration": 0.03571425000001227,
            "durationTicks": 60,
            "midi": 79,
            "name": "G5",
            "ticks": 668040,
            "time": 397.64245950000003,
            "velocity": 0.9133858267716536
          },
          {
            "duration": 0.02857139999997571,
            "durationTicks": 48,
            "midi": 81,
            "name": "A5",
            "ticks": 668100,
            "time": 397.67817375000004,
            "velocity": 0.9133858267716536
          },
          {
            "duration": 0.6857135999999855,
            "durationTicks": 1152,
            "midi": 82,
            "name": "A#5",
            "ticks": 668160,
            "time": 397.71388800000005,
            "velocity": 0.9133858267716536
          },
          {
            "duration": 0.03571425000001227,
            "durationTicks": 60,
            "midi": 84,
            "name": "C6",
            "ticks": 669600,
            "time": 398.57103,
            "velocity": 0.9133858267716536
          },
          {
            "duration": 0.03571425000001227,
            "durationTicks": 60,
            "midi": 82,
            "name": "A#5",
            "ticks": 669660,
            "time": 398.60674425,
            "velocity": 0.9133858267716536
          },
          {
            "duration": 0.03571425000001227,
            "durationTicks": 60,
            "midi": 84,
            "name": "C6",
            "ticks": 669720,
            "time": 398.64245850000003,
            "velocity": 0.9133858267716536
          },
          {
            "duration": 0.03571425000001227,
            "durationTicks": 60,
            "midi": 82,
            "name": "A#5",
            "ticks": 669780,
            "time": 398.67817275000004,
            "velocity": 0.9133858267716536
          },
          {
            "duration": 0.03571424999995543,
            "durationTicks": 60,
            "midi": 84,
            "name": "C6",
            "ticks": 669840,
            "time": 398.71388700000006,
            "velocity": 0.9133858267716536
          },
          {
            "duration": 0.03571425000001227,
            "durationTicks": 60,
            "midi": 82,
            "name": "A#5",
            "ticks": 669900,
            "time": 398.74960125,
            "velocity": 0.9133858267716536
          },
          {
            "duration": 0.03571425000001227,
            "durationTicks": 60,
            "midi": 81,
            "name": "A5",
            "ticks": 669960,
            "time": 398.7853155,
            "velocity": 0.9133858267716536
          },
          {
            "duration": 0.02857139999997571,
            "durationTicks": 48,
            "midi": 82,
            "name": "A#5",
            "ticks": 670020,
            "time": 398.82102975000004,
            "velocity": 0.9133858267716536
          },
          {
            "duration": 0.6857135999999855,
            "durationTicks": 1152,
            "midi": 83,
            "name": "B5",
            "ticks": 670080,
            "time": 398.85674400000005,
            "velocity": 0.9133858267716536
          },
          {
            "duration": 0.03571424999995543,
            "durationTicks": 60,
            "midi": 84,
            "name": "C6",
            "ticks": 671520,
            "time": 399.71388600000006,
            "velocity": 0.9133858267716536
          },
          {
            "duration": 0.03571425000001227,
            "durationTicks": 60,
            "midi": 83,
            "name": "B5",
            "ticks": 671580,
            "time": 399.74960025,
            "velocity": 0.9133858267716536
          },
          {
            "duration": 0.03571425000001227,
            "durationTicks": 60,
            "midi": 84,
            "name": "C6",
            "ticks": 671640,
            "time": 399.7853145,
            "velocity": 0.9133858267716536
          },
          {
            "duration": 0.03571425000001227,
            "durationTicks": 60,
            "midi": 83,
            "name": "B5",
            "ticks": 671700,
            "time": 399.82102875000004,
            "velocity": 0.9133858267716536
          },
          {
            "duration": 0.03571424999995543,
            "durationTicks": 60,
            "midi": 84,
            "name": "C6",
            "ticks": 671760,
            "time": 399.85674300000005,
            "velocity": 0.9133858267716536
          },
          {
            "duration": 0.03571425000001227,
            "durationTicks": 60,
            "midi": 83,
            "name": "B5",
            "ticks": 671820,
            "time": 399.89245725,
            "velocity": 0.9133858267716536
          },
          {
            "duration": 0.03571425000001227,
            "durationTicks": 60,
            "midi": 81,
            "name": "A5",
            "ticks": 671880,
            "time": 399.9281715,
            "velocity": 0.9133858267716536
          },
          {
            "duration": 0.02857139999997571,
            "durationTicks": 48,
            "midi": 83,
            "name": "B5",
            "ticks": 671940,
            "time": 399.96388575000003,
            "velocity": 0.9133858267716536
          },
          {
            "duration": 0.6857136000000423,
            "durationTicks": 1152,
            "midi": 84,
            "name": "C6",
            "ticks": 672000,
            "time": 399.99960000000004,
            "velocity": 0.9133858267716536
          },
          {
            "duration": 0.03571424999995543,
            "durationTicks": 60,
            "midi": 86,
            "name": "D6",
            "ticks": 673440,
            "time": 400.85674200000005,
            "velocity": 0.9133858267716536
          },
          {
            "duration": 0.03571425000001227,
            "durationTicks": 60,
            "midi": 84,
            "name": "C6",
            "ticks": 673500,
            "time": 400.89245625,
            "velocity": 0.9133858267716536
          },
          {
            "duration": 0.03571425000001227,
            "durationTicks": 60,
            "midi": 86,
            "name": "D6",
            "ticks": 673560,
            "time": 400.9281705,
            "velocity": 0.9133858267716536
          },
          {
            "duration": 0.03571425000001227,
            "durationTicks": 60,
            "midi": 84,
            "name": "C6",
            "ticks": 673620,
            "time": 400.96388475000003,
            "velocity": 0.9133858267716536
          },
          {
            "duration": 0.03571425000001227,
            "durationTicks": 60,
            "midi": 86,
            "name": "D6",
            "ticks": 673680,
            "time": 400.99959900000005,
            "velocity": 0.9133858267716536
          },
          {
            "duration": 0.03571424999995543,
            "durationTicks": 60,
            "midi": 84,
            "name": "C6",
            "ticks": 673740,
            "time": 401.03531325000006,
            "velocity": 0.9133858267716536
          },
          {
            "duration": 0.03571425000001227,
            "durationTicks": 60,
            "midi": 83,
            "name": "B5",
            "ticks": 673800,
            "time": 401.0710275,
            "velocity": 0.9133858267716536
          },
          {
            "duration": 0.02857139999997571,
            "durationTicks": 48,
            "midi": 84,
            "name": "C6",
            "ticks": 673860,
            "time": 401.10674175,
            "velocity": 0.9133858267716536
          },
          {
            "duration": 0.1999998000000005,
            "durationTicks": 336,
            "midi": 85,
            "name": "C#6",
            "ticks": 673920,
            "time": 401.14245600000004,
            "velocity": 0.9133858267716536
          },
          {
            "duration": 0.1999998000000005,
            "durationTicks": 336,
            "midi": 85,
            "name": "C#6",
            "ticks": 674400,
            "time": 401.42817,
            "velocity": 0.9133858267716536
          },
          {
            "duration": 0.19999980000005735,
            "durationTicks": 336,
            "midi": 85,
            "name": "C#6",
            "ticks": 674880,
            "time": 401.713884,
            "velocity": 0.9133858267716536
          },
          {
            "duration": 0.1999998000000005,
            "durationTicks": 336,
            "midi": 85,
            "name": "C#6",
            "ticks": 675360,
            "time": 401.99959800000005,
            "velocity": 0.9133858267716536
          },
          {
            "duration": 0.07142850000002454,
            "durationTicks": 120,
            "midi": 62,
            "name": "D4",
            "ticks": 675840,
            "time": 402.28531200000003,
            "velocity": 0.9133858267716536
          },
          {
            "duration": 0.0714284999999677,
            "durationTicks": 120,
            "midi": 74,
            "name": "D5",
            "ticks": 675960,
            "time": 402.35674050000006,
            "velocity": 0.9133858267716536
          },
          {
            "duration": 0.8285706000000346,
            "durationTicks": 1392,
            "midi": 86,
            "name": "D6",
            "ticks": 676080,
            "time": 402.428169,
            "velocity": 0.9133858267716536
          },
          {
            "duration": 0.07142850000002454,
            "durationTicks": 120,
            "midi": 79,
            "name": "G5",
            "ticks": 677760,
            "time": 403.428168,
            "velocity": 0.9133858267716536
          },
          {
            "duration": 0.0714284999999677,
            "durationTicks": 120,
            "midi": 78,
            "name": "F#5",
            "ticks": 677880,
            "time": 403.49959650000005,
            "velocity": 0.9133858267716536
          },
          {
            "duration": 0.07142850000002454,
            "durationTicks": 120,
            "midi": 79,
            "name": "G5",
            "ticks": 678000,
            "time": 403.571025,
            "velocity": 0.9133858267716536
          },
          {
            "duration": 0.0714284999999677,
            "durationTicks": 120,
            "midi": 78,
            "name": "F#5",
            "ticks": 678120,
            "time": 403.64245350000004,
            "velocity": 0.9133858267716536
          },
          {
            "duration": 0.07142850000002454,
            "durationTicks": 120,
            "midi": 79,
            "name": "G5",
            "ticks": 678240,
            "time": 403.713882,
            "velocity": 0.9133858267716536
          },
          {
            "duration": 0.07142850000002454,
            "durationTicks": 120,
            "midi": 78,
            "name": "F#5",
            "ticks": 678360,
            "time": 403.78531050000004,
            "velocity": 0.9133858267716536
          },
          {
            "duration": 0.0714284999999677,
            "durationTicks": 120,
            "midi": 79,
            "name": "G5",
            "ticks": 678480,
            "time": 403.85673900000006,
            "velocity": 0.9133858267716536
          },
          {
            "duration": 0.07142850000002454,
            "durationTicks": 120,
            "midi": 78,
            "name": "F#5",
            "ticks": 678600,
            "time": 403.92816750000003,
            "velocity": 0.9133858267716536
          },
          {
            "duration": 0.0714284999999677,
            "durationTicks": 120,
            "midi": 79,
            "name": "G5",
            "ticks": 678720,
            "time": 403.99959600000005,
            "velocity": 0.9133858267716536
          },
          {
            "duration": 0.07142850000002454,
            "durationTicks": 120,
            "midi": 78,
            "name": "F#5",
            "ticks": 678840,
            "time": 404.0710245,
            "velocity": 0.9133858267716536
          },
          {
            "duration": 0.0714284999999677,
            "durationTicks": 120,
            "midi": 79,
            "name": "G5",
            "ticks": 678960,
            "time": 404.14245300000005,
            "velocity": 0.9133858267716536
          },
          {
            "duration": 0.07142850000002454,
            "durationTicks": 120,
            "midi": 78,
            "name": "F#5",
            "ticks": 679080,
            "time": 404.2138815,
            "velocity": 0.9133858267716536
          },
          {
            "duration": 0.0714284999999677,
            "durationTicks": 120,
            "midi": 79,
            "name": "G5",
            "ticks": 679200,
            "time": 404.28531000000004,
            "velocity": 0.9133858267716536
          },
          {
            "duration": 0.07142850000002454,
            "durationTicks": 120,
            "midi": 78,
            "name": "F#5",
            "ticks": 679320,
            "time": 404.3567385,
            "velocity": 0.9133858267716536
          },
          {
            "duration": 0.07142850000002454,
            "durationTicks": 120,
            "midi": 76,
            "name": "E5",
            "ticks": 679440,
            "time": 404.42816700000003,
            "velocity": 0.9133858267716536
          },
          {
            "duration": 0.0714284999999677,
            "durationTicks": 120,
            "midi": 78,
            "name": "F#5",
            "ticks": 679560,
            "time": 404.49959550000005,
            "velocity": 0.9133858267716536
          },
          {
            "duration": 0.22857119999997622,
            "durationTicks": 384,
            "midi": 79,
            "name": "G5",
            "ticks": 679680,
            "time": 404.571024,
            "velocity": 0.8267716535433071
          },
          {
            "duration": 0.11428560000007337,
            "durationTicks": 192,
            "midi": 58,
            "name": "A#3",
            "ticks": 680160,
            "time": 404.856738,
            "velocity": 0.984251968503937
          },
          {
            "duration": 0.11428560000001653,
            "durationTicks": 192,
            "midi": 58,
            "name": "A#3",
            "ticks": 680400,
            "time": 404.99959500000006,
            "velocity": 0.8267716535433071
          },
          {
            "duration": 0.11428560000001653,
            "durationTicks": 192,
            "midi": 58,
            "name": "A#3",
            "ticks": 680640,
            "time": 405.14245200000005,
            "velocity": 0.8267716535433071
          },
          {
            "duration": 0.11428560000001653,
            "durationTicks": 192,
            "midi": 58,
            "name": "A#3",
            "ticks": 680880,
            "time": 405.28530900000004,
            "velocity": 0.8267716535433071
          },
          {
            "duration": 0.11428560000001653,
            "durationTicks": 192,
            "midi": 60,
            "name": "C4",
            "ticks": 681120,
            "time": 405.42816600000003,
            "velocity": 0.8267716535433071
          },
          {
            "duration": 0.11428560000001653,
            "durationTicks": 192,
            "midi": 60,
            "name": "C4",
            "ticks": 681360,
            "time": 405.571023,
            "velocity": 0.8267716535433071
          },
          {
            "duration": 0.11428560000001653,
            "durationTicks": 192,
            "midi": 61,
            "name": "C#4",
            "ticks": 681600,
            "time": 405.71388,
            "velocity": 0.8267716535433071
          },
          {
            "duration": 0.11428560000007337,
            "durationTicks": 192,
            "midi": 61,
            "name": "C#4",
            "ticks": 681840,
            "time": 405.856737,
            "velocity": 0.8267716535433071
          },
          {
            "duration": 0.11428560000001653,
            "durationTicks": 192,
            "midi": 62,
            "name": "D4",
            "ticks": 682080,
            "time": 405.99959400000006,
            "velocity": 0.8267716535433071
          },
          {
            "duration": 0.11428560000001653,
            "durationTicks": 192,
            "midi": 62,
            "name": "D4",
            "ticks": 682320,
            "time": 406.14245100000005,
            "velocity": 0.8267716535433071
          },
          {
            "duration": 0.11428560000001653,
            "durationTicks": 192,
            "midi": 63,
            "name": "D#4",
            "ticks": 682560,
            "time": 406.28530800000004,
            "velocity": 0.8267716535433071
          },
          {
            "duration": 0.11428560000001653,
            "durationTicks": 192,
            "midi": 63,
            "name": "D#4",
            "ticks": 682800,
            "time": 406.42816500000004,
            "velocity": 0.8267716535433071
          },
          {
            "duration": 0.11428560000001653,
            "durationTicks": 192,
            "midi": 64,
            "name": "E4",
            "ticks": 683040,
            "time": 406.571022,
            "velocity": 0.8267716535433071
          },
          {
            "duration": 0.11428560000001653,
            "durationTicks": 192,
            "midi": 64,
            "name": "E4",
            "ticks": 683280,
            "time": 406.713879,
            "velocity": 0.8267716535433071
          },
          {
            "duration": 0.22857120000003306,
            "durationTicks": 384,
            "midi": 65,
            "name": "F4",
            "ticks": 683520,
            "time": 406.856736,
            "velocity": 0.8267716535433071
          },
          {
            "duration": 0.057142800000008265,
            "durationTicks": 96,
            "midi": 65,
            "name": "F4",
            "ticks": 684360,
            "time": 407.3567355,
            "velocity": 0.8267716535433071
          },
          {
            "duration": 0.22857119999997622,
            "durationTicks": 384,
            "midi": 63,
            "name": "D#4",
            "ticks": 684480,
            "time": 407.42816400000004,
            "velocity": 0.8267716535433071
          },
          {
            "duration": 0.057142800000008265,
            "durationTicks": 96,
            "midi": 63,
            "name": "D#4",
            "ticks": 685320,
            "time": 407.92816350000004,
            "velocity": 0.8267716535433071
          },
          {
            "duration": 0.22857120000003306,
            "durationTicks": 384,
            "midi": 72,
            "name": "C5",
            "ticks": 685440,
            "time": 407.999592,
            "velocity": 0.8267716535433071
          },
          {
            "duration": 0.05714280000006511,
            "durationTicks": 96,
            "midi": 72,
            "name": "C5",
            "ticks": 686280,
            "time": 408.4995915,
            "velocity": 0.8267716535433071
          },
          {
            "duration": 0.22857119999997622,
            "durationTicks": 384,
            "midi": 70,
            "name": "A#4",
            "ticks": 686400,
            "time": 408.57102000000003,
            "velocity": 0.8267716535433071
          },
          {
            "duration": 0.057142800000008265,
            "durationTicks": 96,
            "midi": 70,
            "name": "A#4",
            "ticks": 687240,
            "time": 409.07101950000003,
            "velocity": 0.8267716535433071
          },
          {
            "duration": 0.6571421999999529,
            "durationTicks": 1104,
            "midi": 75,
            "name": "D#5",
            "ticks": 687360,
            "time": 409.14244800000006,
            "velocity": 0.8267716535433071
          },
          {
            "duration": 0.08571419999998398,
            "durationTicks": 144,
            "midi": 74,
            "name": "D5",
            "ticks": 688560,
            "time": 409.856733,
            "velocity": 0.5511811023622047
          },
          {
            "duration": 0.08571419999998398,
            "durationTicks": 144,
            "midi": 72,
            "name": "C5",
            "ticks": 688800,
            "time": 409.99959,
            "velocity": 0.5511811023622047
          },
          {
            "duration": 0.08571419999998398,
            "durationTicks": 144,
            "midi": 70,
            "name": "A#4",
            "ticks": 689040,
            "time": 410.14244700000006,
            "velocity": 0.5511811023622047
          },
          {
            "duration": 0.08571419999998398,
            "durationTicks": 144,
            "midi": 69,
            "name": "A4",
            "ticks": 689280,
            "time": 410.28530400000005,
            "velocity": 0.5511811023622047
          },
          {
            "duration": 0.08571419999998398,
            "durationTicks": 144,
            "midi": 67,
            "name": "G4",
            "ticks": 689520,
            "time": 410.42816100000005,
            "velocity": 0.5511811023622047
          },
          {
            "duration": 0.08571419999998398,
            "durationTicks": 144,
            "midi": 66,
            "name": "F#4",
            "ticks": 689760,
            "time": 410.57101800000004,
            "velocity": 0.5511811023622047
          },
          {
            "duration": 0.08571419999998398,
            "durationTicks": 144,
            "midi": 63,
            "name": "D#4",
            "ticks": 690000,
            "time": 410.71387500000003,
            "velocity": 0.5511811023622047
          },
          {
            "duration": 0.08571419999998398,
            "durationTicks": 144,
            "midi": 62,
            "name": "D4",
            "ticks": 690240,
            "time": 410.856732,
            "velocity": 0.5511811023622047
          },
          {
            "duration": 0.08571419999998398,
            "durationTicks": 144,
            "midi": 60,
            "name": "C4",
            "ticks": 690480,
            "time": 410.999589,
            "velocity": 0.5511811023622047
          },
          {
            "duration": 0.08571420000004082,
            "durationTicks": 144,
            "midi": 58,
            "name": "A#3",
            "ticks": 690720,
            "time": 411.142446,
            "velocity": 0.5511811023622047
          },
          {
            "duration": 0.08571419999998398,
            "durationTicks": 144,
            "midi": 57,
            "name": "A3",
            "ticks": 690960,
            "time": 411.28530300000006,
            "velocity": 0.5511811023622047
          },
          {
            "duration": 0.22857119999997622,
            "durationTicks": 384,
            "midi": 55,
            "name": "G3",
            "ticks": 691200,
            "time": 411.42816000000005,
            "velocity": 0.4566929133858268
          },
          {
            "duration": 1.1428559999999948,
            "durationTicks": 1920,
            "midi": 79,
            "name": "G5",
            "ticks": 692160,
            "time": 411.999588,
            "velocity": 0.4566929133858268
          },
          {
            "duration": 0.22857120000003306,
            "durationTicks": 384,
            "midi": 78,
            "name": "F#5",
            "ticks": 694080,
            "time": 413.142444,
            "velocity": 0.4566929133858268
          },
          {
            "duration": 1.1428560000000516,
            "durationTicks": 1920,
            "midi": 67,
            "name": "G4",
            "ticks": 696000,
            "time": 414.2853,
            "velocity": 0.4566929133858268
          },
          {
            "duration": 0.22857119999997622,
            "durationTicks": 384,
            "midi": 66,
            "name": "F#4",
            "ticks": 697920,
            "time": 415.42815600000006,
            "velocity": 0.4566929133858268
          },
          {
            "duration": 0.14285699999999224,
            "durationTicks": 240,
            "midi": 80,
            "name": "G#5",
            "ticks": 700320,
            "time": 416.85672600000004,
            "velocity": 0.8267716535433071
          },
          {
            "duration": 0.11428560000001653,
            "durationTicks": 192,
            "midi": 79,
            "name": "G5",
            "ticks": 700560,
            "time": 416.99958300000003,
            "velocity": 0.8267716535433071
          },
          {
            "duration": 0.22857119999997622,
            "durationTicks": 384,
            "midi": 79,
            "name": "G5",
            "ticks": 700800,
            "time": 417.14244,
            "velocity": 0.8267716535433071
          },
          {
            "duration": 0.14285700000004908,
            "durationTicks": 240,
            "midi": 80,
            "name": "G#5",
            "ticks": 701280,
            "time": 417.428154,
            "velocity": 0.8267716535433071
          },
          {
            "duration": 0.11428560000001653,
            "durationTicks": 192,
            "midi": 79,
            "name": "G5",
            "ticks": 701520,
            "time": 417.57101100000006,
            "velocity": 0.8267716535433071
          },
          {
            "duration": 0.22857119999997622,
            "durationTicks": 384,
            "midi": 79,
            "name": "G5",
            "ticks": 701760,
            "time": 417.71386800000005,
            "velocity": 0.8267716535433071
          },
          {
            "duration": 0.14285699999999224,
            "durationTicks": 240,
            "midi": 80,
            "name": "G#5",
            "ticks": 702240,
            "time": 417.99958200000003,
            "velocity": 0.8267716535433071
          },
          {
            "duration": 0.11428560000001653,
            "durationTicks": 192,
            "midi": 79,
            "name": "G5",
            "ticks": 702480,
            "time": 418.142439,
            "velocity": 0.8267716535433071
          },
          {
            "duration": 0.4571424000000093,
            "durationTicks": 768,
            "midi": 79,
            "name": "G5",
            "ticks": 702720,
            "time": 418.285296,
            "velocity": 0.8267716535433071
          },
          {
            "duration": 0.4285709999999767,
            "durationTicks": 720,
            "midi": 87,
            "name": "D#6",
            "ticks": 703680,
            "time": 418.85672400000004,
            "velocity": 0.8267716535433071
          },
          {
            "duration": 0.11428560000001653,
            "durationTicks": 192,
            "midi": 84,
            "name": "C6",
            "ticks": 704400,
            "time": 419.285295,
            "velocity": 0.8267716535433071
          },
          {
            "duration": 0.42857100000003356,
            "durationTicks": 720,
            "midi": 82,
            "name": "A#5",
            "ticks": 704640,
            "time": 419.428152,
            "velocity": 0.8267716535433071
          },
          {
            "duration": 0.11428560000001653,
            "durationTicks": 192,
            "midi": 86,
            "name": "D6",
            "ticks": 705360,
            "time": 419.85672300000004,
            "velocity": 0.8267716535433071
          },
          {
            "duration": 0.4285709999999767,
            "durationTicks": 720,
            "midi": 78,
            "name": "F#5",
            "ticks": 705600,
            "time": 419.99958000000004,
            "velocity": 0.8267716535433071
          },
          {
            "duration": 0.11428560000007337,
            "durationTicks": 192,
            "midi": 81,
            "name": "A5",
            "ticks": 706320,
            "time": 420.428151,
            "velocity": 0.8267716535433071
          },
          {
            "duration": 0.22857120000003306,
            "durationTicks": 384,
            "midi": 79,
            "name": "G5",
            "ticks": 706560,
            "time": 420.571008,
            "velocity": 0.7244094488188977
          },
          {
            "duration": 1.1428559999999948,
            "durationTicks": 1920,
            "midi": 84,
            "name": "C6",
            "ticks": 709440,
            "time": 422.285292,
            "velocity": 0.4566929133858268
          },
          {
            "duration": 0.22857119999997622,
            "durationTicks": 384,
            "midi": 82,
            "name": "A#5",
            "ticks": 711360,
            "time": 423.428148,
            "velocity": 0.4566929133858268
          },
          {
            "duration": 1.1428559999999948,
            "durationTicks": 1920,
            "midi": 72,
            "name": "C5",
            "ticks": 713280,
            "time": 424.571004,
            "velocity": 0.4566929133858268
          },
          {
            "duration": 0.22857120000003306,
            "durationTicks": 384,
            "midi": 70,
            "name": "A#4",
            "ticks": 715200,
            "time": 425.71386,
            "velocity": 0.4566929133858268
          },
          {
            "duration": 0.14285699999999224,
            "durationTicks": 240,
            "midi": 80,
            "name": "G#5",
            "ticks": 715680,
            "time": 425.99957400000005,
            "velocity": 0.8267716535433071
          },
          {
            "duration": 0.11428560000001653,
            "durationTicks": 192,
            "midi": 79,
            "name": "G5",
            "ticks": 715920,
            "time": 426.14243100000004,
            "velocity": 0.8267716535433071
          },
          {
            "duration": 0.22857119999997622,
            "durationTicks": 384,
            "midi": 79,
            "name": "G5",
            "ticks": 716160,
            "time": 426.28528800000004,
            "velocity": 0.8267716535433071
          },
          {
            "duration": 0.14285699999999224,
            "durationTicks": 240,
            "midi": 80,
            "name": "G#5",
            "ticks": 716640,
            "time": 426.571002,
            "velocity": 0.8267716535433071
          },
          {
            "duration": 0.11428560000007337,
            "durationTicks": 192,
            "midi": 79,
            "name": "G5",
            "ticks": 716880,
            "time": 426.713859,
            "velocity": 0.8267716535433071
          },
          {
            "duration": 0.22857119999997622,
            "durationTicks": 384,
            "midi": 79,
            "name": "G5",
            "ticks": 717120,
            "time": 426.85671600000006,
            "velocity": 0.8267716535433071
          },
          {
            "duration": 0.14285699999999224,
            "durationTicks": 240,
            "midi": 80,
            "name": "G#5",
            "ticks": 717600,
            "time": 427.14243000000005,
            "velocity": 0.8267716535433071
          },
          {
            "duration": 0.11428560000001653,
            "durationTicks": 192,
            "midi": 79,
            "name": "G5",
            "ticks": 717840,
            "time": 427.28528700000004,
            "velocity": 0.8267716535433071
          },
          {
            "duration": 0.45714239999995243,
            "durationTicks": 768,
            "midi": 79,
            "name": "G5",
            "ticks": 718080,
            "time": 427.42814400000003,
            "velocity": 0.8267716535433071
          },
          {
            "duration": 0.4285709999999767,
            "durationTicks": 720,
            "midi": 87,
            "name": "D#6",
            "ticks": 719040,
            "time": 427.99957200000006,
            "velocity": 0.8267716535433071
          },
          {
            "duration": 0.11428560000001653,
            "durationTicks": 192,
            "midi": 84,
            "name": "C6",
            "ticks": 719760,
            "time": 428.42814300000003,
            "velocity": 0.8267716535433071
          },
          {
            "duration": 0.42857100000003356,
            "durationTicks": 720,
            "midi": 82,
            "name": "A#5",
            "ticks": 720000,
            "time": 428.571,
            "velocity": 0.8267716535433071
          },
          {
            "duration": 0.11428560000001653,
            "durationTicks": 192,
            "midi": 79,
            "name": "G5",
            "ticks": 720720,
            "time": 428.99957100000006,
            "velocity": 0.8267716535433071
          },
          {
            "duration": 0.4285709999999767,
            "durationTicks": 720,
            "midi": 86,
            "name": "D6",
            "ticks": 720960,
            "time": 429.14242800000005,
            "velocity": 0.8267716535433071
          },
          {
            "duration": 0.11428560000001653,
            "durationTicks": 192,
            "midi": 78,
            "name": "F#5",
            "ticks": 721680,
            "time": 429.57099900000003,
            "velocity": 0.8267716535433071
          },
          {
            "duration": 0.11428560000001653,
            "durationTicks": 192,
            "midi": 79,
            "name": "G5",
            "ticks": 721920,
            "time": 429.713856,
            "velocity": 0.8267716535433071
          },
          {
            "duration": 0.11428560000007337,
            "durationTicks": 192,
            "midi": 74,
            "name": "D5",
            "ticks": 722160,
            "time": 429.856713,
            "velocity": 0.8267716535433071
          },
          {
            "duration": 0.11428560000001653,
            "durationTicks": 192,
            "midi": 82,
            "name": "A#5",
            "ticks": 722400,
            "time": 429.99957000000006,
            "velocity": 0.8267716535433071
          },
          {
            "duration": 0.11428560000001653,
            "durationTicks": 192,
            "midi": 81,
            "name": "A5",
            "ticks": 722640,
            "time": 430.14242700000005,
            "velocity": 0.8267716535433071
          },
          {
            "duration": 0.11428560000001653,
            "durationTicks": 192,
            "midi": 79,
            "name": "G5",
            "ticks": 722880,
            "time": 430.28528400000005,
            "velocity": 0.8267716535433071
          },
          {
            "duration": 0.11428560000001653,
            "durationTicks": 192,
            "midi": 77,
            "name": "F5",
            "ticks": 723120,
            "time": 430.42814100000004,
            "velocity": 0.8267716535433071
          },
          {
            "duration": 0.11428560000001653,
            "durationTicks": 192,
            "midi": 75,
            "name": "D#5",
            "ticks": 723360,
            "time": 430.57099800000003,
            "velocity": 0.8267716535433071
          },
          {
            "duration": 0.11428560000001653,
            "durationTicks": 192,
            "midi": 74,
            "name": "D5",
            "ticks": 723600,
            "time": 430.713855,
            "velocity": 0.8267716535433071
          },
          {
            "duration": 0.11428560000007337,
            "durationTicks": 192,
            "midi": 72,
            "name": "C5",
            "ticks": 723840,
            "time": 430.856712,
            "velocity": 0.8267716535433071
          },
          {
            "duration": 0.11428560000007337,
            "durationTicks": 192,
            "midi": 70,
            "name": "A#4",
            "ticks": 724080,
            "time": 430.999569,
            "velocity": 0.8267716535433071
          },
          {
            "duration": 0.11428560000001653,
            "durationTicks": 192,
            "midi": 69,
            "name": "A4",
            "ticks": 724320,
            "time": 431.14242600000006,
            "velocity": 0.8267716535433071
          },
          {
            "duration": 0.11428560000001653,
            "durationTicks": 192,
            "midi": 67,
            "name": "G4",
            "ticks": 724560,
            "time": 431.28528300000005,
            "velocity": 0.8267716535433071
          },
          {
            "duration": 0.11428560000001653,
            "durationTicks": 192,
            "midi": 66,
            "name": "F#4",
            "ticks": 724800,
            "time": 431.42814000000004,
            "velocity": 0.8267716535433071
          },
          {
            "duration": 0.11428560000001653,
            "durationTicks": 192,
            "midi": 63,
            "name": "D#4",
            "ticks": 725040,
            "time": 431.57099700000003,
            "velocity": 0.8267716535433071
          },
          {
            "duration": 0.11428560000001653,
            "durationTicks": 192,
            "midi": 62,
            "name": "D4",
            "ticks": 725280,
            "time": 431.713854,
            "velocity": 0.8267716535433071
          },
          {
            "duration": 0.11428560000001653,
            "durationTicks": 192,
            "midi": 60,
            "name": "C4",
            "ticks": 725520,
            "time": 431.856711,
            "velocity": 0.8267716535433071
          },
          {
            "duration": 0.18571410000004107,
            "durationTicks": 312,
            "midi": 58,
            "name": "A#3",
            "ticks": 725760,
            "time": 431.999568,
            "velocity": 0.8267716535433071
          },
          {
            "duration": 0.18571409999998423,
            "durationTicks": 312,
            "midi": 74,
            "name": "D5",
            "ticks": 726240,
            "time": 432.28528200000005,
            "velocity": 0.8267716535433071
          },
          {
            "duration": 0.18571410000004107,
            "durationTicks": 312,
            "midi": 75,
            "name": "D#5",
            "ticks": 726720,
            "time": 432.57099600000004,
            "velocity": 0.8267716535433071
          },
          {
            "duration": 0.18571410000004107,
            "durationTicks": 312,
            "midi": 66,
            "name": "F#4",
            "ticks": 727200,
            "time": 432.85671,
            "velocity": 0.8267716535433071
          },
          {
            "duration": 0.11428560000001653,
            "durationTicks": 192,
            "midi": 67,
            "name": "G4",
            "ticks": 727680,
            "time": 433.14242400000006,
            "velocity": 0.8267716535433071
          },
          {
            "duration": 0.11428560000001653,
            "durationTicks": 192,
            "midi": 62,
            "name": "D4",
            "ticks": 727920,
            "time": 433.28528100000005,
            "velocity": 0.8267716535433071
          },
          {
            "duration": 0.11428560000001653,
            "durationTicks": 192,
            "midi": 70,
            "name": "A#4",
            "ticks": 728160,
            "time": 433.42813800000005,
            "velocity": 0.8267716535433071
          },
          {
            "duration": 0.11428560000001653,
            "durationTicks": 192,
            "midi": 69,
            "name": "A4",
            "ticks": 728400,
            "time": 433.57099500000004,
            "velocity": 0.8267716535433071
          },
          {
            "duration": 0.11428560000001653,
            "durationTicks": 192,
            "midi": 67,
            "name": "G4",
            "ticks": 728640,
            "time": 433.71385200000003,
            "velocity": 0.8267716535433071
          },
          {
            "duration": 0.11428560000001653,
            "durationTicks": 192,
            "midi": 65,
            "name": "F4",
            "ticks": 728880,
            "time": 433.856709,
            "velocity": 0.8267716535433071
          },
          {
            "duration": 0.11428560000007337,
            "durationTicks": 192,
            "midi": 63,
            "name": "D#4",
            "ticks": 729120,
            "time": 433.999566,
            "velocity": 0.8267716535433071
          },
          {
            "duration": 0.11428560000007337,
            "durationTicks": 192,
            "midi": 62,
            "name": "D4",
            "ticks": 729360,
            "time": 434.142423,
            "velocity": 0.8267716535433071
          },
          {
            "duration": 0.11428560000001653,
            "durationTicks": 192,
            "midi": 61,
            "name": "C#4",
            "ticks": 729600,
            "time": 434.28528000000006,
            "velocity": 0.8267716535433071
          },
          {
            "duration": 0.11428560000001653,
            "durationTicks": 192,
            "midi": 64,
            "name": "E4",
            "ticks": 729840,
            "time": 434.42813700000005,
            "velocity": 0.8267716535433071
          },
          {
            "duration": 0.11428560000001653,
            "durationTicks": 192,
            "midi": 69,
            "name": "A4",
            "ticks": 730080,
            "time": 434.57099400000004,
            "velocity": 0.8267716535433071
          },
          {
            "duration": 0.11428560000001653,
            "durationTicks": 192,
            "midi": 67,
            "name": "G4",
            "ticks": 730320,
            "time": 434.71385100000003,
            "velocity": 0.8267716535433071
          },
          {
            "duration": 0.11428560000001653,
            "durationTicks": 192,
            "midi": 66,
            "name": "F#4",
            "ticks": 730560,
            "time": 434.856708,
            "velocity": 0.8267716535433071
          },
          {
            "duration": 0.11428560000001653,
            "durationTicks": 192,
            "midi": 63,
            "name": "D#4",
            "ticks": 730800,
            "time": 434.999565,
            "velocity": 0.8267716535433071
          },
          {
            "duration": 0.11428560000007337,
            "durationTicks": 192,
            "midi": 62,
            "name": "D4",
            "ticks": 731040,
            "time": 435.142422,
            "velocity": 0.8267716535433071
          },
          {
            "duration": 0.11428560000001653,
            "durationTicks": 192,
            "midi": 60,
            "name": "C4",
            "ticks": 731280,
            "time": 435.28527900000006,
            "velocity": 0.8267716535433071
          },
          {
            "duration": 0.22857119999997622,
            "durationTicks": 384,
            "midi": 58,
            "name": "A#3",
            "ticks": 731520,
            "time": 435.42813600000005,
            "velocity": 0.8267716535433071
          },
          {
            "duration": 0.05769240000000764,
            "durationTicks": 96,
            "midi": 79,
            "name": "G5",
            "ticks": 732360,
            "time": 435.9301965,
            "velocity": 0.8267716535433071
          },
          {
            "duration": 0.2330096000000026,
            "durationTicks": 384,
            "midi": 79,
            "name": "G5",
            "ticks": 732480,
            "time": 436.002312,
            "velocity": 0.8267716535433071
          },
          {
            "duration": 0.058823599999982434,
            "durationTicks": 96,
            "midi": 80,
            "name": "G#5",
            "ticks": 733320,
            "time": 436.51416250000005,
            "velocity": 0.8267716535433071
          },
          {
            "duration": 0.23762399999998252,
            "durationTicks": 384,
            "midi": 80,
            "name": "G#5",
            "ticks": 733440,
            "time": 436.58769200000006,
            "velocity": 0.8267716535433071
          },
          {
            "duration": 0.059701399999994464,
            "durationTicks": 96,
            "midi": 81,
            "name": "A5",
            "ticks": 734280,
            "time": 437.10860225000005,
            "velocity": 0.8267716535433071
          },
          {
            "duration": 0.24120640000001004,
            "durationTicks": 384,
            "midi": 81,
            "name": "A5",
            "ticks": 734400,
            "time": 437.18322900000004,
            "velocity": 0.8267716535433071
          },
          {
            "duration": 0.0609138000000371,
            "durationTicks": 96,
            "midi": 82,
            "name": "A#5",
            "ticks": 735240,
            "time": 437.71316375000004,
            "velocity": 0.8267716535433071
          },
          {
            "duration": 0.24615360000001374,
            "durationTicks": 384,
            "midi": 82,
            "name": "A#5",
            "ticks": 735360,
            "time": 437.78930600000007,
            "velocity": 0.8267716535433071
          },
          {
            "duration": 0.062176199999953496,
            "durationTicks": 96,
            "midi": 83,
            "name": "B5",
            "ticks": 736200,
            "time": 438.33015875000007,
            "velocity": 0.8267716535433071
          },
          {
            "duration": 0.2513088000000039,
            "durationTicks": 384,
            "midi": 83,
            "name": "B5",
            "ticks": 736320,
            "time": 438.40787900000004,
            "velocity": 0.8267716535433071
          },
          {
            "duration": 0.06349199999999655,
            "durationTicks": 96,
            "midi": 84,
            "name": "C6",
            "ticks": 737160,
            "time": 438.96011000000004,
            "velocity": 0.8267716535433071
          },
          {
            "duration": 0.25668480000001637,
            "durationTicks": 384,
            "midi": 84,
            "name": "C6",
            "ticks": 737280,
            "time": 439.03947500000004,
            "velocity": 0.8267716535433071
          },
          {
            "duration": 0.06451620000001412,
            "durationTicks": 96,
            "midi": 85,
            "name": "C#6",
            "ticks": 738120,
            "time": 439.60226675,
            "velocity": 0.8267716535433071
          },
          {
            "duration": 0.26086959999997816,
            "durationTicks": 384,
            "midi": 85,
            "name": "C#6",
            "ticks": 738240,
            "time": 439.68291200000004,
            "velocity": 0.8267716535433071
          },
          {
            "duration": 0.14999999999997726,
            "durationTicks": 240,
            "midi": 80,
            "name": "G#5",
            "ticks": 744480,
            "time": 443.63866900000005,
            "velocity": 0.5511811023622047
          },
          {
            "duration": 0.12000000000000455,
            "durationTicks": 192,
            "midi": 79,
            "name": "G5",
            "ticks": 744720,
            "time": 443.788669,
            "velocity": 0.5511811023622047
          },
          {
            "duration": 0.23999999999995225,
            "durationTicks": 384,
            "midi": 79,
            "name": "G5",
            "ticks": 744960,
            "time": 443.93866900000006,
            "velocity": 0.5511811023622047
          },
          {
            "duration": 0.1500000000000341,
            "durationTicks": 240,
            "midi": 80,
            "name": "G#5",
            "ticks": 745440,
            "time": 444.238669,
            "velocity": 0.5511811023622047
          },
          {
            "duration": 0.12000000000000455,
            "durationTicks": 192,
            "midi": 79,
            "name": "G5",
            "ticks": 745680,
            "time": 444.38866900000005,
            "velocity": 0.5511811023622047
          },
          {
            "duration": 0.2400000000000091,
            "durationTicks": 384,
            "midi": 79,
            "name": "G5",
            "ticks": 745920,
            "time": 444.538669,
            "velocity": 0.5511811023622047
          },
          {
            "duration": 0.14999999999997726,
            "durationTicks": 240,
            "midi": 80,
            "name": "G#5",
            "ticks": 746400,
            "time": 444.83866900000004,
            "velocity": 0.5511811023622047
          },
          {
            "duration": 0.12000000000000455,
            "durationTicks": 192,
            "midi": 79,
            "name": "G5",
            "ticks": 746640,
            "time": 444.988669,
            "velocity": 0.5511811023622047
          },
          {
            "duration": 0.30000000000001137,
            "durationTicks": 480,
            "midi": 79,
            "name": "G5",
            "ticks": 746880,
            "time": 445.13866900000005,
            "velocity": 0.5511811023622047
          },
          {
            "duration": 0.5999999999999659,
            "durationTicks": 960,
            "midi": 84,
            "name": "C6",
            "ticks": 747360,
            "time": 445.43866900000006,
            "velocity": 0.5511811023622047
          },
          {
            "duration": 0.6000000000000227,
            "durationTicks": 960,
            "midi": 82,
            "name": "A#5",
            "ticks": 748320,
            "time": 446.038669,
            "velocity": 0.4566929133858268
          },
          {
            "duration": 0.5999999999999659,
            "durationTicks": 960,
            "midi": 81,
            "name": "A5",
            "ticks": 749280,
            "time": 446.63866900000005,
            "velocity": 0.4566929133858268
          },
          {
            "duration": 0.2400000000000091,
            "durationTicks": 384,
            "midi": 79,
            "name": "G5",
            "ticks": 750240,
            "time": 447.238669,
            "velocity": 0.4566929133858268
          },
          {
            "duration": 2.340000000000032,
            "durationTicks": 3744,
            "midi": 78,
            "name": "F#5",
            "ticks": 750720,
            "time": 447.538669,
            "velocity": 0.4566929133858268
          },
          {
            "duration": 0.09999990000000025,
            "durationTicks": 168,
            "midi": 79,
            "name": "G5",
            "ticks": 754560,
            "time": 449.93866900000006,
            "velocity": 0.9133858267716536
          },
          {
            "duration": 0.09999990000000025,
            "durationTicks": 168,
            "midi": 74,
            "name": "D5",
            "ticks": 754800,
            "time": 450.08152600000005,
            "velocity": 0.9133858267716536
          },
          {
            "duration": 0.09999990000000025,
            "durationTicks": 168,
            "midi": 82,
            "name": "A#5",
            "ticks": 755040,
            "time": 450.22438300000005,
            "velocity": 0.9133858267716536
          },
          {
            "duration": 0.09999990000000025,
            "durationTicks": 168,
            "midi": 79,
            "name": "G5",
            "ticks": 755280,
            "time": 450.36724000000004,
            "velocity": 0.9133858267716536
          },
          {
            "duration": 0.09999990000000025,
            "durationTicks": 168,
            "midi": 78,
            "name": "F#5",
            "ticks": 755520,
            "time": 450.5100970000001,
            "velocity": 0.9133858267716536
          },
          {
            "duration": 0.09999990000000025,
            "durationTicks": 168,
            "midi": 74,
            "name": "D5",
            "ticks": 755760,
            "time": 450.6529540000001,
            "velocity": 0.9133858267716536
          },
          {
            "duration": 0.09999990000000025,
            "durationTicks": 168,
            "midi": 81,
            "name": "A5",
            "ticks": 756000,
            "time": 450.79581100000007,
            "velocity": 0.9133858267716536
          },
          {
            "duration": 0.09999990000000025,
            "durationTicks": 168,
            "midi": 78,
            "name": "F#5",
            "ticks": 756240,
            "time": 450.93866800000006,
            "velocity": 0.9133858267716536
          },
          {
            "duration": 0.09999990000000025,
            "durationTicks": 168,
            "midi": 79,
            "name": "G5",
            "ticks": 756480,
            "time": 451.08152500000006,
            "velocity": 0.9133858267716536
          },
          {
            "duration": 0.09999990000000025,
            "durationTicks": 168,
            "midi": 74,
            "name": "D5",
            "ticks": 756720,
            "time": 451.22438200000005,
            "velocity": 0.9133858267716536
          },
          {
            "duration": 0.09999990000000025,
            "durationTicks": 168,
            "midi": 82,
            "name": "A#5",
            "ticks": 756960,
            "time": 451.36723900000004,
            "velocity": 0.9133858267716536
          },
          {
            "duration": 0.09999989999994341,
            "durationTicks": 168,
            "midi": 79,
            "name": "G5",
            "ticks": 757200,
            "time": 451.5100960000001,
            "velocity": 0.9133858267716536
          },
          {
            "duration": 0.09999990000000025,
            "durationTicks": 168,
            "midi": 78,
            "name": "F#5",
            "ticks": 757440,
            "time": 451.6529530000001,
            "velocity": 0.9133858267716536
          },
          {
            "duration": 0.09999990000000025,
            "durationTicks": 168,
            "midi": 74,
            "name": "D5",
            "ticks": 757680,
            "time": 451.7958100000001,
            "velocity": 0.9133858267716536
          },
          {
            "duration": 0.09999990000000025,
            "durationTicks": 168,
            "midi": 81,
            "name": "A5",
            "ticks": 757920,
            "time": 451.93866700000007,
            "velocity": 0.9133858267716536
          },
          {
            "duration": 0.09999990000000025,
            "durationTicks": 168,
            "midi": 78,
            "name": "F#5",
            "ticks": 758160,
            "time": 452.08152400000006,
            "velocity": 0.9133858267716536
          },
          {
            "duration": 0.09999990000000025,
            "durationTicks": 168,
            "midi": 79,
            "name": "G5",
            "ticks": 758400,
            "time": 452.22438100000005,
            "velocity": 0.9133858267716536
          },
          {
            "duration": 0.09999990000000025,
            "durationTicks": 168,
            "midi": 74,
            "name": "D5",
            "ticks": 758640,
            "time": 452.36723800000004,
            "velocity": 0.9133858267716536
          },
          {
            "duration": 0.09999990000000025,
            "durationTicks": 168,
            "midi": 82,
            "name": "A#5",
            "ticks": 758880,
            "time": 452.51009500000004,
            "velocity": 0.9133858267716536
          },
          {
            "duration": 0.09999990000000025,
            "durationTicks": 168,
            "midi": 79,
            "name": "G5",
            "ticks": 759120,
            "time": 452.6529520000001,
            "velocity": 0.9133858267716536
          },
          {
            "duration": 0.09999990000000025,
            "durationTicks": 168,
            "midi": 78,
            "name": "F#5",
            "ticks": 759360,
            "time": 452.7958090000001,
            "velocity": 0.9133858267716536
          },
          {
            "duration": 0.09999990000000025,
            "durationTicks": 168,
            "midi": 74,
            "name": "D5",
            "ticks": 759600,
            "time": 452.93866600000007,
            "velocity": 0.9133858267716536
          },
          {
            "duration": 0.09999990000000025,
            "durationTicks": 168,
            "midi": 81,
            "name": "A5",
            "ticks": 759840,
            "time": 453.08152300000006,
            "velocity": 0.9133858267716536
          },
          {
            "duration": 0.09999990000000025,
            "durationTicks": 168,
            "midi": 78,
            "name": "F#5",
            "ticks": 760080,
            "time": 453.22438000000005,
            "velocity": 0.9133858267716536
          },
          {
            "duration": 0.09999990000000025,
            "durationTicks": 168,
            "midi": 79,
            "name": "G5",
            "ticks": 760320,
            "time": 453.36723700000005,
            "velocity": 0.9133858267716536
          },
          {
            "duration": 0.09999990000000025,
            "durationTicks": 168,
            "midi": 82,
            "name": "A#5",
            "ticks": 760560,
            "time": 453.51009400000004,
            "velocity": 0.9133858267716536
          },
          {
            "duration": 0.09999990000000025,
            "durationTicks": 168,
            "midi": 81,
            "name": "A5",
            "ticks": 760800,
            "time": 453.6529510000001,
            "velocity": 0.9133858267716536
          },
          {
            "duration": 0.09999990000000025,
            "durationTicks": 168,
            "midi": 78,
            "name": "F#5",
            "ticks": 761040,
            "time": 453.7958080000001,
            "velocity": 0.9133858267716536
          },
          {
            "duration": 0.09999990000000025,
            "durationTicks": 168,
            "midi": 79,
            "name": "G5",
            "ticks": 761280,
            "time": 453.93866500000007,
            "velocity": 0.9133858267716536
          },
          {
            "duration": 0.09999990000000025,
            "durationTicks": 168,
            "midi": 82,
            "name": "A#5",
            "ticks": 761520,
            "time": 454.08152200000006,
            "velocity": 0.9133858267716536
          },
          {
            "duration": 0.09999990000000025,
            "durationTicks": 168,
            "midi": 81,
            "name": "A5",
            "ticks": 761760,
            "time": 454.22437900000006,
            "velocity": 0.9133858267716536
          },
          {
            "duration": 0.09999990000000025,
            "durationTicks": 168,
            "midi": 78,
            "name": "F#5",
            "ticks": 762000,
            "time": 454.36723600000005,
            "velocity": 0.9133858267716536
          },
          {
            "duration": 0.25263119999999617,
            "durationTicks": 384,
            "midi": 79,
            "name": "G5",
            "ticks": 762240,
            "time": 454.51009300000004,
            "velocity": 0.9133858267716536
          },
          {
            "duration": 0.2666664000000196,
            "durationTicks": 384,
            "midi": 62,
            "name": "D4",
            "ticks": 764160,
            "time": 455.773249,
            "velocity": 0.9133858267716536
          },
          {
            "duration": 0.2666664000000196,
            "durationTicks": 384,
            "midi": 70,
            "name": "A#4",
            "ticks": 764160,
            "time": 455.773249,
            "velocity": 0.9133858267716536
          },
          {
            "duration": 0.2666664000000196,
            "durationTicks": 384,
            "midi": 79,
            "name": "G5",
            "ticks": 764160,
            "time": 455.773249,
            "velocity": 0.9133858267716536
          },
          {
            "duration": 0.29090880000001107,
            "durationTicks": 384,
            "midi": 67,
            "name": "G4",
            "ticks": 765120,
            "time": 456.455419,
            "velocity": 0.9133858267716536
          },
          {
            "duration": 0.29090880000001107,
            "durationTicks": 384,
            "midi": 74,
            "name": "D5",
            "ticks": 765120,
            "time": 456.455419,
            "velocity": 0.9133858267716536
          },
          {
            "duration": 0.29090880000001107,
            "durationTicks": 384,
            "midi": 82,
            "name": "A#5",
            "ticks": 765120,
            "time": 456.455419,
            "velocity": 0.9133858267716536
          },
          {
            "duration": 0.75,
            "durationTicks": 960,
            "midi": 55,
            "name": "G3",
            "ticks": 766080,
            "time": 457.201221,
            "velocity": 0.9133858267716536
          }
        ]
      },
      {
        "channel": 0,
        "controlChanges": {},
        "pitchBends": [],
        "instrument": {
          "family": "piano",
          "number": 0,
          "name": "acoustic grand piano"
        },
        "name": "k550_1",
        "notes": [],
        "endOfTrackTicks": 768000
      },
      {
        "channel": 0,
        "controlChanges": {
          "7": [
            {
              "number": 7,
              "ticks": 0,
              "time": 0,
              "value": 0.7244094488188977
            }
          ],
          "10": [
            {
              "number": 10,
              "ticks": 0,
              "time": 0,
              "value": 0.4409448818897638
            }
          ],
          "91": [
            {
              "number": 91,
              "ticks": 0,
              "time": 0,
              "value": 0.5511811023622047
            }
          ]
        },
        "pitchBends": [],
        "instrument": {
          "family": "pipe",
          "number": 73,
          "name": "flute"
        },
        "name": "",
        "notes": [
          {
            "duration": 0.28571400000000224,
            "durationTicks": 480,
            "midi": 78,
            "name": "F#5",
            "ticks": 27360,
            "time": 16.285698,
            "velocity": 0.5511811023622047
          },
          {
            "duration": 0.2857139999999987,
            "durationTicks": 480,
            "midi": 79,
            "name": "G5",
            "ticks": 27840,
            "time": 16.571412000000002,
            "velocity": 0.5511811023622047
          },
          {
            "duration": 0.2857139999999987,
            "durationTicks": 480,
            "midi": 81,
            "name": "A5",
            "ticks": 28320,
            "time": 16.857126,
            "velocity": 0.5511811023622047
          },
          {
            "duration": 0.28571400000000224,
            "durationTicks": 480,
            "midi": 82,
            "name": "A#5",
            "ticks": 28800,
            "time": 17.14284,
            "velocity": 0.5511811023622047
          },
          {
            "duration": 0.14285699999999935,
            "durationTicks": 240,
            "midi": 84,
            "name": "C6",
            "ticks": 29280,
            "time": 17.428554000000002,
            "velocity": 0.5511811023622047
          },
          {
            "duration": 0.14285699999999935,
            "durationTicks": 240,
            "midi": 82,
            "name": "A#5",
            "ticks": 29520,
            "time": 17.571411,
            "velocity": 0.5511811023622047
          },
          {
            "duration": 0.28571400000000224,
            "durationTicks": 480,
            "midi": 81,
            "name": "A5",
            "ticks": 29760,
            "time": 17.714268,
            "velocity": 0.5511811023622047
          },
          {
            "duration": 0.2714283000000002,
            "durationTicks": 456,
            "midi": 79,
            "name": "G5",
            "ticks": 30240,
            "time": 17.999982000000003,
            "velocity": 0.5511811023622047
          },
          {
            "duration": 0.22857119999999753,
            "durationTicks": 384,
            "midi": 78,
            "name": "F#5",
            "ticks": 30720,
            "time": 18.285696,
            "velocity": 0.5511811023622047
          },
          {
            "duration": 0.5714280000000009,
            "durationTicks": 960,
            "midi": 85,
            "name": "C#6",
            "ticks": 31680,
            "time": 18.857124000000002,
            "velocity": 0.8267716535433071
          },
          {
            "duration": 0.22857119999999753,
            "durationTicks": 384,
            "midi": 86,
            "name": "D6",
            "ticks": 32640,
            "time": 19.428552000000003,
            "velocity": 0.8267716535433071
          },
          {
            "duration": 0.5714280000000009,
            "durationTicks": 960,
            "midi": 85,
            "name": "C#6",
            "ticks": 33600,
            "time": 19.99998,
            "velocity": 0.8267716535433071
          },
          {
            "duration": 0.22857119999999753,
            "durationTicks": 384,
            "midi": 86,
            "name": "D6",
            "ticks": 34560,
            "time": 20.571408,
            "velocity": 0.8267716535433071
          },
          {
            "duration": 0.5714279999999974,
            "durationTicks": 960,
            "midi": 85,
            "name": "C#6",
            "ticks": 35520,
            "time": 21.142836000000003,
            "velocity": 0.8267716535433071
          },
          {
            "duration": 0.17142839999999993,
            "durationTicks": 288,
            "midi": 86,
            "name": "D6",
            "ticks": 36480,
            "time": 21.714264,
            "velocity": 0.8267716535433071
          },
          {
            "duration": 0.17142839999999637,
            "durationTicks": 288,
            "midi": 85,
            "name": "C#6",
            "ticks": 36960,
            "time": 21.999978000000002,
            "velocity": 0.8267716535433071
          },
          {
            "duration": 0.17142839999999993,
            "durationTicks": 288,
            "midi": 86,
            "name": "D6",
            "ticks": 37440,
            "time": 22.285692,
            "velocity": 0.8267716535433071
          },
          {
            "duration": 0.17142839999999637,
            "durationTicks": 288,
            "midi": 85,
            "name": "C#6",
            "ticks": 37920,
            "time": 22.571406000000003,
            "velocity": 0.8267716535433071
          },
          {
            "duration": 0.4571423999999986,
            "durationTicks": 768,
            "midi": 86,
            "name": "D6",
            "ticks": 38400,
            "time": 22.857120000000002,
            "velocity": 0.8267716535433071
          },
          {
            "duration": 0.9142848000000043,
            "durationTicks": 1536,
            "midi": 82,
            "name": "A#5",
            "ticks": 53760,
            "time": 31.999968000000003,
            "velocity": 0.8267716535433071
          },
          {
            "duration": 0.9142847999999972,
            "durationTicks": 1536,
            "midi": 89,
            "name": "F6",
            "ticks": 55680,
            "time": 33.142824000000005,
            "velocity": 0.8267716535433071
          },
          {
            "duration": 0.9142848000000043,
            "durationTicks": 1536,
            "midi": 87,
            "name": "D#6",
            "ticks": 57600,
            "time": 34.28568,
            "velocity": 0.8267716535433071
          },
          {
            "duration": 0.9142848000000043,
            "durationTicks": 1536,
            "midi": 86,
            "name": "D6",
            "ticks": 59520,
            "time": 35.428536,
            "velocity": 0.8267716535433071
          },
          {
            "duration": 0.9142847999999972,
            "durationTicks": 1536,
            "midi": 84,
            "name": "C6",
            "ticks": 61440,
            "time": 36.571392,
            "velocity": 0.8267716535433071
          },
          {
            "duration": 0.9142847999999972,
            "durationTicks": 1536,
            "midi": 82,
            "name": "A#5",
            "ticks": 63360,
            "time": 37.714248000000005,
            "velocity": 0.8267716535433071
          },
          {
            "duration": 0.9142847999999901,
            "durationTicks": 1536,
            "midi": 88,
            "name": "E6",
            "ticks": 65280,
            "time": 38.85710400000001,
            "velocity": 0.8818897637795275
          },
          {
            "duration": 0.11428560000000232,
            "durationTicks": 192,
            "midi": 89,
            "name": "F6",
            "ticks": 66960,
            "time": 39.857103,
            "velocity": 0.7244094488188977
          },
          {
            "duration": 0.9142847999999972,
            "durationTicks": 1536,
            "midi": 88,
            "name": "E6",
            "ticks": 67200,
            "time": 39.99996,
            "velocity": 0.8818897637795275
          },
          {
            "duration": 0.11428560000000232,
            "durationTicks": 192,
            "midi": 89,
            "name": "F6",
            "ticks": 68880,
            "time": 40.999959000000004,
            "velocity": 0.7244094488188977
          },
          {
            "duration": 0.9142847999999972,
            "durationTicks": 1536,
            "midi": 88,
            "name": "E6",
            "ticks": 69120,
            "time": 41.142816,
            "velocity": 0.8818897637795275
          },
          {
            "duration": 0.11428560000000232,
            "durationTicks": 192,
            "midi": 89,
            "name": "F6",
            "ticks": 70800,
            "time": 42.142815000000006,
            "velocity": 0.7244094488188977
          },
          {
            "duration": 0.9142847999999972,
            "durationTicks": 1536,
            "midi": 88,
            "name": "E6",
            "ticks": 71040,
            "time": 42.285672000000005,
            "velocity": 0.7244094488188977
          },
          {
            "duration": 0.45714240000000217,
            "durationTicks": 768,
            "midi": 89,
            "name": "F6",
            "ticks": 72960,
            "time": 43.428528,
            "velocity": 0.7244094488188977
          },
          {
            "duration": 0.45714239999999506,
            "durationTicks": 768,
            "midi": 87,
            "name": "D#6",
            "ticks": 73920,
            "time": 43.999956000000005,
            "velocity": 0.8267716535433071
          },
          {
            "duration": 0.45714240000000217,
            "durationTicks": 768,
            "midi": 85,
            "name": "C#6",
            "ticks": 74880,
            "time": 44.571384,
            "velocity": 0.8267716535433071
          },
          {
            "duration": 0.45714239999999506,
            "durationTicks": 768,
            "midi": 88,
            "name": "E6",
            "ticks": 75840,
            "time": 45.142812000000006,
            "velocity": 0.8267716535433071
          },
          {
            "duration": 0.45714239999999506,
            "durationTicks": 768,
            "midi": 89,
            "name": "F6",
            "ticks": 76800,
            "time": 45.714240000000004,
            "velocity": 0.8267716535433071
          },
          {
            "duration": 0.45714240000000217,
            "durationTicks": 768,
            "midi": 87,
            "name": "D#6",
            "ticks": 77760,
            "time": 46.285668,
            "velocity": 0.8267716535433071
          },
          {
            "duration": 0.45714239999999506,
            "durationTicks": 768,
            "midi": 85,
            "name": "C#6",
            "ticks": 78720,
            "time": 46.857096000000006,
            "velocity": 0.8267716535433071
          },
          {
            "duration": 0.45714240000000217,
            "durationTicks": 768,
            "midi": 88,
            "name": "E6",
            "ticks": 79680,
            "time": 47.428524,
            "velocity": 0.8267716535433071
          },
          {
            "duration": 0.22857119999999753,
            "durationTicks": 384,
            "midi": 89,
            "name": "F6",
            "ticks": 80640,
            "time": 47.99995200000001,
            "velocity": 0.8267716535433071
          },
          {
            "duration": 0.22857120000000464,
            "durationTicks": 384,
            "midi": 77,
            "name": "F5",
            "ticks": 81600,
            "time": 48.571380000000005,
            "velocity": 0.7244094488188977
          },
          {
            "duration": 0.8571420000000032,
            "durationTicks": 1440,
            "midi": 89,
            "name": "F6",
            "ticks": 99840,
            "time": 59.428512000000005,
            "velocity": 0.5511811023622047
          },
          {
            "duration": 0.2857139999999987,
            "durationTicks": 480,
            "midi": 88,
            "name": "E6",
            "ticks": 101280,
            "time": 60.28565400000001,
            "velocity": 0.5511811023622047
          },
          {
            "duration": 0.22857120000000464,
            "durationTicks": 384,
            "midi": 87,
            "name": "D#6",
            "ticks": 101760,
            "time": 60.57136800000001,
            "velocity": 0.5511811023622047
          },
          {
            "duration": 0.18571409999999844,
            "durationTicks": 312,
            "midi": 82,
            "name": "A#5",
            "ticks": 104160,
            "time": 61.99993800000001,
            "velocity": 0.5511811023622047
          },
          {
            "duration": 0.2857139999999987,
            "durationTicks": 480,
            "midi": 82,
            "name": "A#5",
            "ticks": 104640,
            "time": 62.285652000000006,
            "velocity": 0.5511811023622047
          },
          {
            "duration": 0.22857120000000464,
            "durationTicks": 384,
            "midi": 84,
            "name": "C6",
            "ticks": 105120,
            "time": 62.571366000000005,
            "velocity": 0.5511811023622047
          },
          {
            "duration": 0.42857100000000514,
            "durationTicks": 720,
            "midi": 86,
            "name": "D6",
            "ticks": 105600,
            "time": 62.85708,
            "velocity": 0.5511811023622047
          },
          {
            "duration": 0.14285699999999935,
            "durationTicks": 240,
            "midi": 87,
            "name": "D#6",
            "ticks": 106320,
            "time": 63.28565100000001,
            "velocity": 0.5511811023622047
          },
          {
            "duration": 0.22857119999999753,
            "durationTicks": 384,
            "midi": 84,
            "name": "C6",
            "ticks": 106560,
            "time": 63.42850800000001,
            "velocity": 0.5511811023622047
          },
          {
            "duration": 0.5714279999999974,
            "durationTicks": 960,
            "midi": 79,
            "name": "G5",
            "ticks": 111840,
            "time": 66.57136200000001,
            "velocity": 0.4566929133858268
          },
          {
            "duration": 0.22857120000000464,
            "durationTicks": 384,
            "midi": 80,
            "name": "G#5",
            "ticks": 112800,
            "time": 67.14279,
            "velocity": 0.4566929133858268
          },
          {
            "duration": 0.5714279999999974,
            "durationTicks": 960,
            "midi": 79,
            "name": "G5",
            "ticks": 113760,
            "time": 67.714218,
            "velocity": 0.4566929133858268
          },
          {
            "duration": 0.22857120000000464,
            "durationTicks": 384,
            "midi": 80,
            "name": "G#5",
            "ticks": 114720,
            "time": 68.285646,
            "velocity": 0.4566929133858268
          },
          {
            "duration": 0.5714279999999974,
            "durationTicks": 960,
            "midi": 79,
            "name": "G5",
            "ticks": 115680,
            "time": 68.85707400000001,
            "velocity": 0.4566929133858268
          },
          {
            "duration": 0.22857120000000464,
            "durationTicks": 384,
            "midi": 80,
            "name": "G#5",
            "ticks": 116640,
            "time": 69.42850200000001,
            "velocity": 0.4566929133858268
          },
          {
            "duration": 0.5714279999999974,
            "durationTicks": 960,
            "midi": 79,
            "name": "G5",
            "ticks": 117600,
            "time": 69.99993,
            "velocity": 0.4566929133858268
          },
          {
            "duration": 0.22857120000000464,
            "durationTicks": 384,
            "midi": 80,
            "name": "G#5",
            "ticks": 118560,
            "time": 70.571358,
            "velocity": 0.4566929133858268
          },
          {
            "duration": 0.9142848000000043,
            "durationTicks": 1536,
            "midi": 82,
            "name": "A#5",
            "ticks": 119040,
            "time": 70.857072,
            "velocity": 0.5511811023622047
          },
          {
            "duration": 0.9142847999999901,
            "durationTicks": 1536,
            "midi": 91,
            "name": "G6",
            "ticks": 120960,
            "time": 71.99992800000001,
            "velocity": 0.7244094488188977
          },
          {
            "duration": 1.0857132000000007,
            "durationTicks": 1824,
            "midi": 89,
            "name": "F6",
            "ticks": 122880,
            "time": 73.142784,
            "velocity": 0.8267716535433071
          },
          {
            "duration": 0.07142850000001033,
            "durationTicks": 120,
            "midi": 86,
            "name": "D6",
            "ticks": 124800,
            "time": 74.28564,
            "velocity": 0.8267716535433071
          },
          {
            "duration": 0.07142849999999612,
            "durationTicks": 120,
            "midi": 84,
            "name": "C6",
            "ticks": 124920,
            "time": 74.35706850000001,
            "velocity": 0.8267716535433071
          },
          {
            "duration": 0.07142849999999612,
            "durationTicks": 120,
            "midi": 86,
            "name": "D6",
            "ticks": 125040,
            "time": 74.42849700000001,
            "velocity": 0.8267716535433071
          },
          {
            "duration": 0.07142849999999612,
            "durationTicks": 120,
            "midi": 84,
            "name": "C6",
            "ticks": 125160,
            "time": 74.4999255,
            "velocity": 0.8267716535433071
          },
          {
            "duration": 0.07142850000001033,
            "durationTicks": 120,
            "midi": 86,
            "name": "D6",
            "ticks": 125280,
            "time": 74.571354,
            "velocity": 0.8267716535433071
          },
          {
            "duration": 0.07142849999999612,
            "durationTicks": 120,
            "midi": 84,
            "name": "C6",
            "ticks": 125400,
            "time": 74.64278250000001,
            "velocity": 0.8267716535433071
          },
          {
            "duration": 0.07142849999999612,
            "durationTicks": 120,
            "midi": 86,
            "name": "D6",
            "ticks": 125520,
            "time": 74.714211,
            "velocity": 0.8267716535433071
          },
          {
            "duration": 0.07142850000001033,
            "durationTicks": 120,
            "midi": 84,
            "name": "C6",
            "ticks": 125640,
            "time": 74.7856395,
            "velocity": 0.8267716535433071
          },
          {
            "duration": 0.07142849999999612,
            "durationTicks": 120,
            "midi": 86,
            "name": "D6",
            "ticks": 125760,
            "time": 74.85706800000001,
            "velocity": 0.8267716535433071
          },
          {
            "duration": 0.07142849999999612,
            "durationTicks": 120,
            "midi": 84,
            "name": "C6",
            "ticks": 125880,
            "time": 74.92849650000001,
            "velocity": 0.8267716535433071
          },
          {
            "duration": 0.07142849999999612,
            "durationTicks": 120,
            "midi": 86,
            "name": "D6",
            "ticks": 126000,
            "time": 74.999925,
            "velocity": 0.8267716535433071
          },
          {
            "duration": 0.07142850000001033,
            "durationTicks": 120,
            "midi": 84,
            "name": "C6",
            "ticks": 126120,
            "time": 75.0713535,
            "velocity": 0.8267716535433071
          },
          {
            "duration": 0.07142849999999612,
            "durationTicks": 120,
            "midi": 86,
            "name": "D6",
            "ticks": 126240,
            "time": 75.14278200000001,
            "velocity": 0.8267716535433071
          },
          {
            "duration": 0.07142849999999612,
            "durationTicks": 120,
            "midi": 84,
            "name": "C6",
            "ticks": 126360,
            "time": 75.21421050000001,
            "velocity": 0.8267716535433071
          },
          {
            "duration": 0.07142849999999612,
            "durationTicks": 120,
            "midi": 82,
            "name": "A#5",
            "ticks": 126480,
            "time": 75.285639,
            "velocity": 0.8267716535433071
          },
          {
            "duration": 0.07142850000001033,
            "durationTicks": 120,
            "midi": 84,
            "name": "C6",
            "ticks": 126600,
            "time": 75.3570675,
            "velocity": 0.8267716535433071
          },
          {
            "duration": 0.22857120000000464,
            "durationTicks": 384,
            "midi": 82,
            "name": "A#5",
            "ticks": 126720,
            "time": 75.42849600000001,
            "velocity": 0.7244094488188977
          },
          {
            "duration": 0.22857120000000464,
            "durationTicks": 384,
            "midi": 84,
            "name": "C6",
            "ticks": 132480,
            "time": 78.85706400000001,
            "velocity": 0.8267716535433071
          },
          {
            "duration": 0.22857120000000464,
            "durationTicks": 384,
            "midi": 86,
            "name": "D6",
            "ticks": 133440,
            "time": 79.428492,
            "velocity": 0.8267716535433071
          },
          {
            "duration": 0.6571422000000098,
            "durationTicks": 1104,
            "midi": 91,
            "name": "G6",
            "ticks": 134400,
            "time": 79.99992,
            "velocity": 0.8267716535433071
          },
          {
            "duration": 0.08571419999999819,
            "durationTicks": 144,
            "midi": 89,
            "name": "F6",
            "ticks": 135600,
            "time": 80.714205,
            "velocity": 0.8267716535433071
          },
          {
            "duration": 0.08571419999999819,
            "durationTicks": 144,
            "midi": 87,
            "name": "D#6",
            "ticks": 135840,
            "time": 80.85706200000001,
            "velocity": 0.5511811023622047
          },
          {
            "duration": 0.08571419999999819,
            "durationTicks": 144,
            "midi": 86,
            "name": "D6",
            "ticks": 136080,
            "time": 80.999919,
            "velocity": 0.5511811023622047
          },
          {
            "duration": 0.08571419999999819,
            "durationTicks": 144,
            "midi": 84,
            "name": "C6",
            "ticks": 136320,
            "time": 81.14277600000001,
            "velocity": 0.5511811023622047
          },
          {
            "duration": 0.0857142000000124,
            "durationTicks": 144,
            "midi": 82,
            "name": "A#5",
            "ticks": 136560,
            "time": 81.285633,
            "velocity": 0.5511811023622047
          },
          {
            "duration": 0.08571419999999819,
            "durationTicks": 144,
            "midi": 81,
            "name": "A5",
            "ticks": 136800,
            "time": 81.42849000000001,
            "velocity": 0.5511811023622047
          },
          {
            "duration": 0.0857142000000124,
            "durationTicks": 144,
            "midi": 79,
            "name": "G5",
            "ticks": 137040,
            "time": 81.571347,
            "velocity": 0.5511811023622047
          },
          {
            "duration": 0.08571419999999819,
            "durationTicks": 144,
            "midi": 77,
            "name": "F5",
            "ticks": 137280,
            "time": 81.71420400000001,
            "velocity": 0.5511811023622047
          },
          {
            "duration": 0.0857142000000124,
            "durationTicks": 144,
            "midi": 75,
            "name": "D#5",
            "ticks": 137520,
            "time": 81.857061,
            "velocity": 0.5511811023622047
          },
          {
            "duration": 0.08571419999999819,
            "durationTicks": 144,
            "midi": 74,
            "name": "D5",
            "ticks": 137760,
            "time": 81.99991800000001,
            "velocity": 0.5511811023622047
          },
          {
            "duration": 0.0857142000000124,
            "durationTicks": 144,
            "midi": 72,
            "name": "C5",
            "ticks": 138000,
            "time": 82.142775,
            "velocity": 0.5511811023622047
          },
          {
            "duration": 0.22857120000000464,
            "durationTicks": 384,
            "midi": 70,
            "name": "A#4",
            "ticks": 138240,
            "time": 82.285632,
            "velocity": 0.5511811023622047
          },
          {
            "duration": 0.9142847999999901,
            "durationTicks": 1536,
            "midi": 90,
            "name": "F#6",
            "ticks": 147840,
            "time": 87.99991200000001,
            "velocity": 0.8267716535433071
          },
          {
            "duration": 0.4571424000000093,
            "durationTicks": 768,
            "midi": 91,
            "name": "G6",
            "ticks": 149760,
            "time": 89.142768,
            "velocity": 0.8267716535433071
          },
          {
            "duration": 0.34285680000000696,
            "durationTicks": 576,
            "midi": 91,
            "name": "G6",
            "ticks": 150720,
            "time": 89.714196,
            "velocity": 0.8267716535433071
          },
          {
            "duration": 0.11428559999998811,
            "durationTicks": 192,
            "midi": 87,
            "name": "D#6",
            "ticks": 151440,
            "time": 90.142767,
            "velocity": 0.8267716535433071
          },
          {
            "duration": 0.45714239999999506,
            "durationTicks": 768,
            "midi": 86,
            "name": "D6",
            "ticks": 151680,
            "time": 90.28562400000001,
            "velocity": 0.8267716535433071
          },
          {
            "duration": 0.4571424000000093,
            "durationTicks": 768,
            "midi": 84,
            "name": "C6",
            "ticks": 152640,
            "time": 90.85705200000001,
            "velocity": 0.8267716535433071
          },
          {
            "duration": 0.22857120000000464,
            "durationTicks": 384,
            "midi": 82,
            "name": "A#5",
            "ticks": 153600,
            "time": 91.42848000000001,
            "velocity": 0.7244094488188977
          },
          {
            "duration": 0.9142847999999901,
            "durationTicks": 1536,
            "midi": 90,
            "name": "F#6",
            "ticks": 163200,
            "time": 97.14276000000001,
            "velocity": 0.8267716535433071
          },
          {
            "duration": 0.4571424000000093,
            "durationTicks": 768,
            "midi": 91,
            "name": "G6",
            "ticks": 165120,
            "time": 98.285616,
            "velocity": 0.8267716535433071
          },
          {
            "duration": 0.34285680000000696,
            "durationTicks": 576,
            "midi": 91,
            "name": "G6",
            "ticks": 166080,
            "time": 98.857044,
            "velocity": 0.8267716535433071
          },
          {
            "duration": 0.11428559999998811,
            "durationTicks": 192,
            "midi": 87,
            "name": "D#6",
            "ticks": 166800,
            "time": 99.285615,
            "velocity": 0.8267716535433071
          },
          {
            "duration": 0.45714239999999506,
            "durationTicks": 768,
            "midi": 86,
            "name": "D6",
            "ticks": 167040,
            "time": 99.42847200000001,
            "velocity": 0.8267716535433071
          },
          {
            "duration": 0.4571424000000093,
            "durationTicks": 768,
            "midi": 84,
            "name": "C6",
            "ticks": 168000,
            "time": 99.99990000000001,
            "velocity": 0.8267716535433071
          },
          {
            "duration": 0.4571424000000093,
            "durationTicks": 768,
            "midi": 82,
            "name": "A#5",
            "ticks": 168960,
            "time": 100.57132800000001,
            "velocity": 0.8267716535433071
          },
          {
            "duration": 0.11428559999998811,
            "durationTicks": 192,
            "midi": 89,
            "name": "F6",
            "ticks": 170640,
            "time": 101.57132700000001,
            "velocity": 0.8267716535433071
          },
          {
            "duration": 0.11428560000000232,
            "durationTicks": 192,
            "midi": 87,
            "name": "D#6",
            "ticks": 170880,
            "time": 101.714184,
            "velocity": 0.8267716535433071
          },
          {
            "duration": 0.11428559999998811,
            "durationTicks": 192,
            "midi": 86,
            "name": "D6",
            "ticks": 171120,
            "time": 101.85704100000001,
            "velocity": 0.8267716535433071
          },
          {
            "duration": 0.11428560000000232,
            "durationTicks": 192,
            "midi": 84,
            "name": "C6",
            "ticks": 171360,
            "time": 101.999898,
            "velocity": 0.8267716535433071
          },
          {
            "duration": 0.11428559999998811,
            "durationTicks": 192,
            "midi": 82,
            "name": "A#5",
            "ticks": 171600,
            "time": 102.14275500000001,
            "velocity": 0.8267716535433071
          },
          {
            "duration": 0.11428559999998811,
            "durationTicks": 192,
            "midi": 81,
            "name": "A5",
            "ticks": 171840,
            "time": 102.28561200000001,
            "velocity": 0.8267716535433071
          },
          {
            "duration": 0.11428559999998811,
            "durationTicks": 192,
            "midi": 79,
            "name": "G5",
            "ticks": 172080,
            "time": 102.428469,
            "velocity": 0.8267716535433071
          },
          {
            "duration": 0.11428559999998811,
            "durationTicks": 192,
            "midi": 77,
            "name": "F5",
            "ticks": 172320,
            "time": 102.57132600000001,
            "velocity": 0.8267716535433071
          },
          {
            "duration": 0.11428560000000232,
            "durationTicks": 192,
            "midi": 75,
            "name": "D#5",
            "ticks": 172560,
            "time": 102.714183,
            "velocity": 0.8267716535433071
          },
          {
            "duration": 0.1999997999999863,
            "durationTicks": 336,
            "midi": 74,
            "name": "D5",
            "ticks": 172800,
            "time": 102.85704000000001,
            "velocity": 0.8267716535433071
          },
          {
            "duration": 0.1999998000000005,
            "durationTicks": 336,
            "midi": 77,
            "name": "F5",
            "ticks": 173280,
            "time": 103.14275400000001,
            "velocity": 0.8267716535433071
          },
          {
            "duration": 0.1999998000000005,
            "durationTicks": 336,
            "midi": 79,
            "name": "G5",
            "ticks": 173760,
            "time": 103.42846800000001,
            "velocity": 0.8267716535433071
          },
          {
            "duration": 0.1999998000000005,
            "durationTicks": 336,
            "midi": 81,
            "name": "A5",
            "ticks": 174240,
            "time": 103.71418200000001,
            "velocity": 0.8267716535433071
          },
          {
            "duration": 0.11428560000000232,
            "durationTicks": 192,
            "midi": 82,
            "name": "A#5",
            "ticks": 174720,
            "time": 103.999896,
            "velocity": 0.8267716535433071
          },
          {
            "duration": 0.11428559999998811,
            "durationTicks": 192,
            "midi": 77,
            "name": "F5",
            "ticks": 174960,
            "time": 104.14275300000001,
            "velocity": 0.8267716535433071
          },
          {
            "duration": 0.11428560000000232,
            "durationTicks": 192,
            "midi": 86,
            "name": "D6",
            "ticks": 175200,
            "time": 104.28561,
            "velocity": 0.8267716535433071
          },
          {
            "duration": 0.11428559999998811,
            "durationTicks": 192,
            "midi": 84,
            "name": "C6",
            "ticks": 175440,
            "time": 104.42846700000001,
            "velocity": 0.8267716535433071
          },
          {
            "duration": 0.11428560000000232,
            "durationTicks": 192,
            "midi": 82,
            "name": "A#5",
            "ticks": 175680,
            "time": 104.571324,
            "velocity": 0.8267716535433071
          },
          {
            "duration": 0.11428559999998811,
            "durationTicks": 192,
            "midi": 81,
            "name": "A5",
            "ticks": 175920,
            "time": 104.71418100000001,
            "velocity": 0.8267716535433071
          },
          {
            "duration": 0.11428560000000232,
            "durationTicks": 192,
            "midi": 79,
            "name": "G5",
            "ticks": 176160,
            "time": 104.857038,
            "velocity": 0.8267716535433071
          },
          {
            "duration": 0.11428559999998811,
            "durationTicks": 192,
            "midi": 77,
            "name": "F5",
            "ticks": 176400,
            "time": 104.99989500000001,
            "velocity": 0.8267716535433071
          },
          {
            "duration": 0.11428560000000232,
            "durationTicks": 192,
            "midi": 87,
            "name": "D#6",
            "ticks": 176640,
            "time": 105.142752,
            "velocity": 0.8267716535433071
          },
          {
            "duration": 0.11428559999998811,
            "durationTicks": 192,
            "midi": 86,
            "name": "D6",
            "ticks": 176880,
            "time": 105.28560900000001,
            "velocity": 0.8267716535433071
          },
          {
            "duration": 0.11428559999998811,
            "durationTicks": 192,
            "midi": 84,
            "name": "C6",
            "ticks": 177120,
            "time": 105.42846600000001,
            "velocity": 0.8267716535433071
          },
          {
            "duration": 0.11428560000000232,
            "durationTicks": 192,
            "midi": 82,
            "name": "A#5",
            "ticks": 177360,
            "time": 105.571323,
            "velocity": 0.8267716535433071
          },
          {
            "duration": 0.11428559999998811,
            "durationTicks": 192,
            "midi": 81,
            "name": "A5",
            "ticks": 177600,
            "time": 105.71418000000001,
            "velocity": 0.8267716535433071
          },
          {
            "duration": 0.11428560000000232,
            "durationTicks": 192,
            "midi": 84,
            "name": "C6",
            "ticks": 177840,
            "time": 105.857037,
            "velocity": 0.8267716535433071
          },
          {
            "duration": 0.11428559999998811,
            "durationTicks": 192,
            "midi": 89,
            "name": "F6",
            "ticks": 178080,
            "time": 105.99989400000001,
            "velocity": 0.8267716535433071
          },
          {
            "duration": 0.11428560000000232,
            "durationTicks": 192,
            "midi": 87,
            "name": "D#6",
            "ticks": 178320,
            "time": 106.142751,
            "velocity": 0.8267716535433071
          },
          {
            "duration": 0.1999998000000005,
            "durationTicks": 336,
            "midi": 86,
            "name": "D6",
            "ticks": 178560,
            "time": 106.28560800000001,
            "velocity": 0.8267716535433071
          },
          {
            "duration": 0.1999998000000005,
            "durationTicks": 336,
            "midi": 87,
            "name": "D#6",
            "ticks": 180000,
            "time": 107.14275,
            "velocity": 0.8267716535433071
          },
          {
            "duration": 0.1999998000000005,
            "durationTicks": 336,
            "midi": 86,
            "name": "D6",
            "ticks": 180480,
            "time": 107.428464,
            "velocity": 0.8267716535433071
          },
          {
            "duration": 0.1999998000000005,
            "durationTicks": 336,
            "midi": 91,
            "name": "G6",
            "ticks": 180960,
            "time": 107.714178,
            "velocity": 0.8267716535433071
          },
          {
            "duration": 0.1999998000000005,
            "durationTicks": 336,
            "midi": 89,
            "name": "F6",
            "ticks": 181440,
            "time": 107.999892,
            "velocity": 0.8267716535433071
          },
          {
            "duration": 0.1999997999999863,
            "durationTicks": 336,
            "midi": 81,
            "name": "A5",
            "ticks": 181920,
            "time": 108.28560600000002,
            "velocity": 0.8267716535433071
          },
          {
            "duration": 0.21428549999998836,
            "durationTicks": 360,
            "midi": 82,
            "name": "A#5",
            "ticks": 182400,
            "time": 108.57132000000001,
            "velocity": 0.8267716535433071
          },
          {
            "duration": 0.10714274999999418,
            "durationTicks": 180,
            "midi": 82,
            "name": "A#5",
            "ticks": 182880,
            "time": 108.85703400000001,
            "velocity": 0.8267716535433071
          },
          {
            "duration": 0.10714275000000839,
            "durationTicks": 180,
            "midi": 82,
            "name": "A#5",
            "ticks": 183120,
            "time": 108.999891,
            "velocity": 0.8267716535433071
          },
          {
            "duration": 0.21428550000000257,
            "durationTicks": 360,
            "midi": 81,
            "name": "A5",
            "ticks": 183360,
            "time": 109.14274800000001,
            "velocity": 0.8267716535433071
          },
          {
            "duration": 0.10714274999999418,
            "durationTicks": 180,
            "midi": 81,
            "name": "A5",
            "ticks": 183840,
            "time": 109.42846200000001,
            "velocity": 0.8267716535433071
          },
          {
            "duration": 0.10714275000000839,
            "durationTicks": 180,
            "midi": 81,
            "name": "A5",
            "ticks": 184080,
            "time": 109.571319,
            "velocity": 0.8267716535433071
          },
          {
            "duration": 0.21428550000000257,
            "durationTicks": 360,
            "midi": 82,
            "name": "A#5",
            "ticks": 184320,
            "time": 109.71417600000001,
            "velocity": 0.8267716535433071
          },
          {
            "duration": 0.10714275000000839,
            "durationTicks": 180,
            "midi": 82,
            "name": "A#5",
            "ticks": 184800,
            "time": 109.99989000000001,
            "velocity": 0.8267716535433071
          },
          {
            "duration": 0.10714274999999418,
            "durationTicks": 180,
            "midi": 82,
            "name": "A#5",
            "ticks": 185040,
            "time": 110.14274700000001,
            "velocity": 0.8267716535433071
          },
          {
            "duration": 0.21428550000000257,
            "durationTicks": 360,
            "midi": 81,
            "name": "A5",
            "ticks": 185280,
            "time": 110.285604,
            "velocity": 0.8267716535433071
          },
          {
            "duration": 0.10714275000000839,
            "durationTicks": 180,
            "midi": 81,
            "name": "A5",
            "ticks": 185760,
            "time": 110.571318,
            "velocity": 0.8267716535433071
          },
          {
            "duration": 0.10714274999999418,
            "durationTicks": 180,
            "midi": 81,
            "name": "A5",
            "ticks": 186000,
            "time": 110.71417500000001,
            "velocity": 0.8267716535433071
          },
          {
            "duration": 0.21428550000000257,
            "durationTicks": 360,
            "midi": 82,
            "name": "A#5",
            "ticks": 186240,
            "time": 110.857032,
            "velocity": 0.8267716535433071
          },
          {
            "duration": 0.10714275000000839,
            "durationTicks": 180,
            "midi": 82,
            "name": "A#5",
            "ticks": 186720,
            "time": 111.142746,
            "velocity": 0.8267716535433071
          },
          {
            "duration": 0.10714274999999418,
            "durationTicks": 180,
            "midi": 82,
            "name": "A#5",
            "ticks": 186960,
            "time": 111.28560300000001,
            "velocity": 0.8267716535433071
          },
          {
            "duration": 0.21428549999998836,
            "durationTicks": 360,
            "midi": 81,
            "name": "A5",
            "ticks": 187200,
            "time": 111.42846000000002,
            "velocity": 0.8267716535433071
          },
          {
            "duration": 0.10714274999999418,
            "durationTicks": 180,
            "midi": 81,
            "name": "A5",
            "ticks": 187680,
            "time": 111.71417400000001,
            "velocity": 0.8267716535433071
          },
          {
            "duration": 0.10714275000000839,
            "durationTicks": 180,
            "midi": 81,
            "name": "A5",
            "ticks": 187920,
            "time": 111.857031,
            "velocity": 0.8267716535433071
          },
          {
            "duration": 0.21428550000000257,
            "durationTicks": 360,
            "midi": 82,
            "name": "A#5",
            "ticks": 188160,
            "time": 111.99988800000001,
            "velocity": 0.8267716535433071
          },
          {
            "duration": 0.21428550000000257,
            "durationTicks": 360,
            "midi": 81,
            "name": "A5",
            "ticks": 188640,
            "time": 112.28560200000001,
            "velocity": 0.8267716535433071
          },
          {
            "duration": 0.21428550000000257,
            "durationTicks": 360,
            "midi": 82,
            "name": "A#5",
            "ticks": 189120,
            "time": 112.57131600000001,
            "velocity": 0.8267716535433071
          },
          {
            "duration": 0.21428550000000257,
            "durationTicks": 360,
            "midi": 81,
            "name": "A5",
            "ticks": 189600,
            "time": 112.85703000000001,
            "velocity": 0.8267716535433071
          },
          {
            "duration": 0.22857120000000464,
            "durationTicks": 384,
            "midi": 82,
            "name": "A#5",
            "ticks": 190080,
            "time": 113.14274400000001,
            "velocity": 0.8267716535433071
          },
          {
            "duration": 0.22857119999999043,
            "durationTicks": 384,
            "midi": 78,
            "name": "F#5",
            "ticks": 192000,
            "time": 114.28560000000002,
            "velocity": 0.8267716535433071
          },
          {
            "duration": 0.2857139999999845,
            "durationTicks": 480,
            "midi": 78,
            "name": "F#5",
            "ticks": 219360,
            "time": 130.571298,
            "velocity": 0.5511811023622047
          },
          {
            "duration": 0.2857140000000129,
            "durationTicks": 480,
            "midi": 79,
            "name": "G5",
            "ticks": 219840,
            "time": 130.857012,
            "velocity": 0.5511811023622047
          },
          {
            "duration": 0.2857140000000129,
            "durationTicks": 480,
            "midi": 81,
            "name": "A5",
            "ticks": 220320,
            "time": 131.142726,
            "velocity": 0.5511811023622047
          },
          {
            "duration": 0.2857139999999845,
            "durationTicks": 480,
            "midi": 82,
            "name": "A#5",
            "ticks": 220800,
            "time": 131.42844000000002,
            "velocity": 0.5511811023622047
          },
          {
            "duration": 0.14285699999999224,
            "durationTicks": 240,
            "midi": 84,
            "name": "C6",
            "ticks": 221280,
            "time": 131.714154,
            "velocity": 0.5511811023622047
          },
          {
            "duration": 0.14285700000002066,
            "durationTicks": 240,
            "midi": 82,
            "name": "A#5",
            "ticks": 221520,
            "time": 131.857011,
            "velocity": 0.5511811023622047
          },
          {
            "duration": 0.2857139999999845,
            "durationTicks": 480,
            "midi": 81,
            "name": "A5",
            "ticks": 221760,
            "time": 131.99986800000002,
            "velocity": 0.5511811023622047
          },
          {
            "duration": 0.2714282999999966,
            "durationTicks": 456,
            "midi": 79,
            "name": "G5",
            "ticks": 222240,
            "time": 132.285582,
            "velocity": 0.5511811023622047
          },
          {
            "duration": 0.22857120000000464,
            "durationTicks": 384,
            "midi": 78,
            "name": "F#5",
            "ticks": 222720,
            "time": 132.57129600000002,
            "velocity": 0.5511811023622047
          },
          {
            "duration": 0.5714279999999974,
            "durationTicks": 960,
            "midi": 85,
            "name": "C#6",
            "ticks": 223680,
            "time": 133.14272400000002,
            "velocity": 0.8267716535433071
          },
          {
            "duration": 0.22857120000000464,
            "durationTicks": 384,
            "midi": 86,
            "name": "D6",
            "ticks": 224640,
            "time": 133.714152,
            "velocity": 0.8267716535433071
          },
          {
            "duration": 0.5714279999999974,
            "durationTicks": 960,
            "midi": 85,
            "name": "C#6",
            "ticks": 225600,
            "time": 134.28558,
            "velocity": 0.8267716535433071
          },
          {
            "duration": 0.22857120000000464,
            "durationTicks": 384,
            "midi": 86,
            "name": "D6",
            "ticks": 226560,
            "time": 134.857008,
            "velocity": 0.8267716535433071
          },
          {
            "duration": 0.5714279999999974,
            "durationTicks": 960,
            "midi": 85,
            "name": "C#6",
            "ticks": 227520,
            "time": 135.428436,
            "velocity": 0.8267716535433071
          },
          {
            "duration": 0.1714284000000248,
            "durationTicks": 288,
            "midi": 86,
            "name": "D6",
            "ticks": 228480,
            "time": 135.999864,
            "velocity": 0.8267716535433071
          },
          {
            "duration": 0.17142839999999637,
            "durationTicks": 288,
            "midi": 85,
            "name": "C#6",
            "ticks": 228960,
            "time": 136.28557800000002,
            "velocity": 0.8267716535433071
          },
          {
            "duration": 0.1714284000000248,
            "durationTicks": 288,
            "midi": 86,
            "name": "D6",
            "ticks": 229440,
            "time": 136.571292,
            "velocity": 0.8267716535433071
          },
          {
            "duration": 0.17142839999999637,
            "durationTicks": 288,
            "midi": 85,
            "name": "C#6",
            "ticks": 229920,
            "time": 136.857006,
            "velocity": 0.8267716535433071
          },
          {
            "duration": 0.4571424000000093,
            "durationTicks": 768,
            "midi": 86,
            "name": "D6",
            "ticks": 230400,
            "time": 137.14272,
            "velocity": 0.8267716535433071
          },
          {
            "duration": 0.9142848000000185,
            "durationTicks": 1536,
            "midi": 82,
            "name": "A#5",
            "ticks": 245760,
            "time": 146.285568,
            "velocity": 0.8267716535433071
          },
          {
            "duration": 0.9142848000000185,
            "durationTicks": 1536,
            "midi": 89,
            "name": "F6",
            "ticks": 247680,
            "time": 147.428424,
            "velocity": 0.8267716535433071
          },
          {
            "duration": 0.9142848000000185,
            "durationTicks": 1536,
            "midi": 87,
            "name": "D#6",
            "ticks": 249600,
            "time": 148.57128,
            "velocity": 0.8267716535433071
          },
          {
            "duration": 0.9142847999999901,
            "durationTicks": 1536,
            "midi": 86,
            "name": "D6",
            "ticks": 251520,
            "time": 149.71413600000002,
            "velocity": 0.8267716535433071
          },
          {
            "duration": 0.9142848000000185,
            "durationTicks": 1536,
            "midi": 84,
            "name": "C6",
            "ticks": 253440,
            "time": 150.85699200000002,
            "velocity": 0.8267716535433071
          },
          {
            "duration": 0.9142848000000185,
            "durationTicks": 1536,
            "midi": 82,
            "name": "A#5",
            "ticks": 255360,
            "time": 151.99984800000001,
            "velocity": 0.8267716535433071
          },
          {
            "duration": 0.9142848000000185,
            "durationTicks": 1536,
            "midi": 88,
            "name": "E6",
            "ticks": 257280,
            "time": 153.142704,
            "velocity": 0.8818897637795275
          },
          {
            "duration": 0.11428559999998811,
            "durationTicks": 192,
            "midi": 89,
            "name": "F6",
            "ticks": 258960,
            "time": 154.142703,
            "velocity": 0.7244094488188977
          },
          {
            "duration": 0.9142848000000185,
            "durationTicks": 1536,
            "midi": 88,
            "name": "E6",
            "ticks": 259200,
            "time": 154.28556,
            "velocity": 0.8818897637795275
          },
          {
            "duration": 0.11428559999998811,
            "durationTicks": 192,
            "midi": 89,
            "name": "F6",
            "ticks": 260880,
            "time": 155.285559,
            "velocity": 0.7244094488188977
          },
          {
            "duration": 0.9142847999999901,
            "durationTicks": 1536,
            "midi": 88,
            "name": "E6",
            "ticks": 261120,
            "time": 155.42841600000003,
            "velocity": 0.8818897637795275
          },
          {
            "duration": 0.11428560000001653,
            "durationTicks": 192,
            "midi": 89,
            "name": "F6",
            "ticks": 262800,
            "time": 156.428415,
            "velocity": 0.7244094488188977
          },
          {
            "duration": 0.9142847999999901,
            "durationTicks": 1536,
            "midi": 88,
            "name": "E6",
            "ticks": 263040,
            "time": 156.57127200000002,
            "velocity": 0.7244094488188977
          },
          {
            "duration": 0.4571424000000093,
            "durationTicks": 768,
            "midi": 89,
            "name": "F6",
            "ticks": 264960,
            "time": 157.71412800000002,
            "velocity": 0.7244094488188977
          },
          {
            "duration": 0.4571424000000093,
            "durationTicks": 768,
            "midi": 87,
            "name": "D#6",
            "ticks": 265920,
            "time": 158.285556,
            "velocity": 0.8267716535433071
          },
          {
            "duration": 0.4571424000000093,
            "durationTicks": 768,
            "midi": 85,
            "name": "C#6",
            "ticks": 266880,
            "time": 158.856984,
            "velocity": 0.8267716535433071
          },
          {
            "duration": 0.4571424000000093,
            "durationTicks": 768,
            "midi": 88,
            "name": "E6",
            "ticks": 267840,
            "time": 159.428412,
            "velocity": 0.8267716535433071
          },
          {
            "duration": 0.4571424000000093,
            "durationTicks": 768,
            "midi": 89,
            "name": "F6",
            "ticks": 268800,
            "time": 159.99984,
            "velocity": 0.8267716535433071
          },
          {
            "duration": 0.4571424000000093,
            "durationTicks": 768,
            "midi": 87,
            "name": "D#6",
            "ticks": 269760,
            "time": 160.571268,
            "velocity": 0.8267716535433071
          },
          {
            "duration": 0.4571424000000093,
            "durationTicks": 768,
            "midi": 85,
            "name": "C#6",
            "ticks": 270720,
            "time": 161.142696,
            "velocity": 0.8267716535433071
          },
          {
            "duration": 0.45714239999998085,
            "durationTicks": 768,
            "midi": 88,
            "name": "E6",
            "ticks": 271680,
            "time": 161.71412400000003,
            "velocity": 0.8267716535433071
          },
          {
            "duration": 0.22857119999997622,
            "durationTicks": 384,
            "midi": 89,
            "name": "F6",
            "ticks": 272640,
            "time": 162.28555200000002,
            "velocity": 0.8267716535433071
          },
          {
            "duration": 0.22857119999997622,
            "durationTicks": 384,
            "midi": 77,
            "name": "F5",
            "ticks": 273600,
            "time": 162.85698000000002,
            "velocity": 0.7244094488188977
          },
          {
            "duration": 0.8571420000000103,
            "durationTicks": 1440,
            "midi": 89,
            "name": "F6",
            "ticks": 291840,
            "time": 173.714112,
            "velocity": 0.5511811023622047
          },
          {
            "duration": 0.2857140000000129,
            "durationTicks": 480,
            "midi": 88,
            "name": "E6",
            "ticks": 293280,
            "time": 174.571254,
            "velocity": 0.5511811023622047
          },
          {
            "duration": 0.22857119999997622,
            "durationTicks": 384,
            "midi": 87,
            "name": "D#6",
            "ticks": 293760,
            "time": 174.85696800000002,
            "velocity": 0.5511811023622047
          },
          {
            "duration": 0.18571410000001265,
            "durationTicks": 312,
            "midi": 82,
            "name": "A#5",
            "ticks": 296160,
            "time": 176.285538,
            "velocity": 0.5511811023622047
          },
          {
            "duration": 0.2857140000000129,
            "durationTicks": 480,
            "midi": 82,
            "name": "A#5",
            "ticks": 296640,
            "time": 176.57125200000002,
            "velocity": 0.5511811023622047
          },
          {
            "duration": 0.22857119999997622,
            "durationTicks": 384,
            "midi": 84,
            "name": "C6",
            "ticks": 297120,
            "time": 176.85696600000003,
            "velocity": 0.5511811023622047
          },
          {
            "duration": 0.42857100000000514,
            "durationTicks": 720,
            "midi": 86,
            "name": "D6",
            "ticks": 297600,
            "time": 177.14268,
            "velocity": 0.5511811023622047
          },
          {
            "duration": 0.14285699999999224,
            "durationTicks": 240,
            "midi": 87,
            "name": "D#6",
            "ticks": 298320,
            "time": 177.57125100000002,
            "velocity": 0.5511811023622047
          },
          {
            "duration": 0.22857120000000464,
            "durationTicks": 384,
            "midi": 84,
            "name": "C6",
            "ticks": 298560,
            "time": 177.714108,
            "velocity": 0.5511811023622047
          },
          {
            "duration": 0.5714279999999974,
            "durationTicks": 960,
            "midi": 79,
            "name": "G5",
            "ticks": 303840,
            "time": 180.856962,
            "velocity": 0.4566929133858268
          },
          {
            "duration": 0.22857120000000464,
            "durationTicks": 384,
            "midi": 80,
            "name": "G#5",
            "ticks": 304800,
            "time": 181.42839,
            "velocity": 0.4566929133858268
          },
          {
            "duration": 0.5714279999999974,
            "durationTicks": 960,
            "midi": 79,
            "name": "G5",
            "ticks": 305760,
            "time": 181.999818,
            "velocity": 0.4566929133858268
          },
          {
            "duration": 0.22857120000000464,
            "durationTicks": 384,
            "midi": 80,
            "name": "G#5",
            "ticks": 306720,
            "time": 182.571246,
            "velocity": 0.4566929133858268
          },
          {
            "duration": 0.5714279999999974,
            "durationTicks": 960,
            "midi": 79,
            "name": "G5",
            "ticks": 307680,
            "time": 183.14267400000003,
            "velocity": 0.4566929133858268
          },
          {
            "duration": 0.22857119999997622,
            "durationTicks": 384,
            "midi": 80,
            "name": "G#5",
            "ticks": 308640,
            "time": 183.71410200000003,
            "velocity": 0.4566929133858268
          },
          {
            "duration": 0.5714279999999974,
            "durationTicks": 960,
            "midi": 79,
            "name": "G5",
            "ticks": 309600,
            "time": 184.28553000000002,
            "velocity": 0.4566929133858268
          },
          {
            "duration": 0.22857119999997622,
            "durationTicks": 384,
            "midi": 80,
            "name": "G#5",
            "ticks": 310560,
            "time": 184.85695800000002,
            "velocity": 0.4566929133858268
          },
          {
            "duration": 0.9142848000000185,
            "durationTicks": 1536,
            "midi": 82,
            "name": "A#5",
            "ticks": 311040,
            "time": 185.142672,
            "velocity": 0.5511811023622047
          },
          {
            "duration": 0.9142847999999901,
            "durationTicks": 1536,
            "midi": 91,
            "name": "G6",
            "ticks": 312960,
            "time": 186.28552800000003,
            "velocity": 0.7244094488188977
          },
          {
            "duration": 1.0857131999999865,
            "durationTicks": 1824,
            "midi": 89,
            "name": "F6",
            "ticks": 314880,
            "time": 187.42838400000002,
            "velocity": 0.8267716535433071
          },
          {
            "duration": 0.07142849999999612,
            "durationTicks": 120,
            "midi": 86,
            "name": "D6",
            "ticks": 316800,
            "time": 188.57124000000002,
            "velocity": 0.8267716535433071
          },
          {
            "duration": 0.07142849999999612,
            "durationTicks": 120,
            "midi": 84,
            "name": "C6",
            "ticks": 316920,
            "time": 188.6426685,
            "velocity": 0.8267716535433071
          },
          {
            "duration": 0.07142849999999612,
            "durationTicks": 120,
            "midi": 86,
            "name": "D6",
            "ticks": 317040,
            "time": 188.714097,
            "velocity": 0.8267716535433071
          },
          {
            "duration": 0.07142849999999612,
            "durationTicks": 120,
            "midi": 84,
            "name": "C6",
            "ticks": 317160,
            "time": 188.7855255,
            "velocity": 0.8267716535433071
          },
          {
            "duration": 0.07142850000002454,
            "durationTicks": 120,
            "midi": 86,
            "name": "D6",
            "ticks": 317280,
            "time": 188.856954,
            "velocity": 0.8267716535433071
          },
          {
            "duration": 0.07142849999999612,
            "durationTicks": 120,
            "midi": 84,
            "name": "C6",
            "ticks": 317400,
            "time": 188.92838250000003,
            "velocity": 0.8267716535433071
          },
          {
            "duration": 0.07142849999999612,
            "durationTicks": 120,
            "midi": 86,
            "name": "D6",
            "ticks": 317520,
            "time": 188.99981100000002,
            "velocity": 0.8267716535433071
          },
          {
            "duration": 0.07142849999999612,
            "durationTicks": 120,
            "midi": 84,
            "name": "C6",
            "ticks": 317640,
            "time": 189.07123950000002,
            "velocity": 0.8267716535433071
          },
          {
            "duration": 0.07142849999999612,
            "durationTicks": 120,
            "midi": 86,
            "name": "D6",
            "ticks": 317760,
            "time": 189.14266800000001,
            "velocity": 0.8267716535433071
          },
          {
            "duration": 0.07142849999999612,
            "durationTicks": 120,
            "midi": 84,
            "name": "C6",
            "ticks": 317880,
            "time": 189.2140965,
            "velocity": 0.8267716535433071
          },
          {
            "duration": 0.07142849999999612,
            "durationTicks": 120,
            "midi": 86,
            "name": "D6",
            "ticks": 318000,
            "time": 189.285525,
            "velocity": 0.8267716535433071
          },
          {
            "duration": 0.07142850000002454,
            "durationTicks": 120,
            "midi": 84,
            "name": "C6",
            "ticks": 318120,
            "time": 189.3569535,
            "velocity": 0.8267716535433071
          },
          {
            "duration": 0.07142849999999612,
            "durationTicks": 120,
            "midi": 86,
            "name": "D6",
            "ticks": 318240,
            "time": 189.42838200000003,
            "velocity": 0.8267716535433071
          },
          {
            "duration": 0.07142849999999612,
            "durationTicks": 120,
            "midi": 84,
            "name": "C6",
            "ticks": 318360,
            "time": 189.49981050000002,
            "velocity": 0.8267716535433071
          },
          {
            "duration": 0.07142849999999612,
            "durationTicks": 120,
            "midi": 82,
            "name": "A#5",
            "ticks": 318480,
            "time": 189.57123900000002,
            "velocity": 0.8267716535433071
          },
          {
            "duration": 0.07142849999999612,
            "durationTicks": 120,
            "midi": 84,
            "name": "C6",
            "ticks": 318600,
            "time": 189.64266750000002,
            "velocity": 0.8267716535433071
          },
          {
            "duration": 0.22857120000000464,
            "durationTicks": 384,
            "midi": 82,
            "name": "A#5",
            "ticks": 318720,
            "time": 189.714096,
            "velocity": 0.7244094488188977
          },
          {
            "duration": 0.22857119999997622,
            "durationTicks": 384,
            "midi": 84,
            "name": "C6",
            "ticks": 324480,
            "time": 193.14266400000002,
            "velocity": 0.8267716535433071
          },
          {
            "duration": 0.22857119999997622,
            "durationTicks": 384,
            "midi": 86,
            "name": "D6",
            "ticks": 325440,
            "time": 193.71409200000002,
            "velocity": 0.8267716535433071
          },
          {
            "duration": 0.6571421999999814,
            "durationTicks": 1104,
            "midi": 91,
            "name": "G6",
            "ticks": 326400,
            "time": 194.28552000000002,
            "velocity": 0.8267716535433071
          },
          {
            "duration": 0.08571419999998398,
            "durationTicks": 144,
            "midi": 89,
            "name": "F6",
            "ticks": 327600,
            "time": 194.999805,
            "velocity": 0.8267716535433071
          },
          {
            "duration": 0.08571419999998398,
            "durationTicks": 144,
            "midi": 87,
            "name": "D#6",
            "ticks": 327840,
            "time": 195.14266200000003,
            "velocity": 0.5511811023622047
          },
          {
            "duration": 0.08571419999998398,
            "durationTicks": 144,
            "midi": 86,
            "name": "D6",
            "ticks": 328080,
            "time": 195.28551900000002,
            "velocity": 0.5511811023622047
          },
          {
            "duration": 0.08571419999998398,
            "durationTicks": 144,
            "midi": 84,
            "name": "C6",
            "ticks": 328320,
            "time": 195.42837600000001,
            "velocity": 0.5511811023622047
          },
          {
            "duration": 0.08571419999998398,
            "durationTicks": 144,
            "midi": 82,
            "name": "A#5",
            "ticks": 328560,
            "time": 195.571233,
            "velocity": 0.5511811023622047
          },
          {
            "duration": 0.08571419999998398,
            "durationTicks": 144,
            "midi": 81,
            "name": "A5",
            "ticks": 328800,
            "time": 195.71409000000003,
            "velocity": 0.5511811023622047
          },
          {
            "duration": 0.08571419999998398,
            "durationTicks": 144,
            "midi": 79,
            "name": "G5",
            "ticks": 329040,
            "time": 195.85694700000002,
            "velocity": 0.5511811023622047
          },
          {
            "duration": 0.08571419999998398,
            "durationTicks": 144,
            "midi": 77,
            "name": "F5",
            "ticks": 329280,
            "time": 195.999804,
            "velocity": 0.5511811023622047
          },
          {
            "duration": 0.0857142000000124,
            "durationTicks": 144,
            "midi": 75,
            "name": "D#5",
            "ticks": 329520,
            "time": 196.142661,
            "velocity": 0.5511811023622047
          },
          {
            "duration": 0.08571419999998398,
            "durationTicks": 144,
            "midi": 74,
            "name": "D5",
            "ticks": 329760,
            "time": 196.28551800000002,
            "velocity": 0.5511811023622047
          },
          {
            "duration": 0.08571419999998398,
            "durationTicks": 144,
            "midi": 72,
            "name": "C5",
            "ticks": 330000,
            "time": 196.42837500000002,
            "velocity": 0.5511811023622047
          },
          {
            "duration": 0.22857120000000464,
            "durationTicks": 384,
            "midi": 70,
            "name": "A#4",
            "ticks": 330240,
            "time": 196.571232,
            "velocity": 0.5511811023622047
          },
          {
            "duration": 0.9142848000000185,
            "durationTicks": 1536,
            "midi": 90,
            "name": "F#6",
            "ticks": 339840,
            "time": 202.285512,
            "velocity": 0.8267716535433071
          },
          {
            "duration": 0.4571424000000093,
            "durationTicks": 768,
            "midi": 91,
            "name": "G6",
            "ticks": 341760,
            "time": 203.428368,
            "velocity": 0.8267716535433071
          },
          {
            "duration": 0.34285680000002117,
            "durationTicks": 576,
            "midi": 91,
            "name": "G6",
            "ticks": 342720,
            "time": 203.999796,
            "velocity": 0.8267716535433071
          },
          {
            "duration": 0.11428559999998811,
            "durationTicks": 192,
            "midi": 87,
            "name": "D#6",
            "ticks": 343440,
            "time": 204.428367,
            "velocity": 0.8267716535433071
          },
          {
            "duration": 0.45714239999998085,
            "durationTicks": 768,
            "midi": 86,
            "name": "D6",
            "ticks": 343680,
            "time": 204.57122400000003,
            "velocity": 0.8267716535433071
          },
          {
            "duration": 0.4571424000000093,
            "durationTicks": 768,
            "midi": 84,
            "name": "C6",
            "ticks": 344640,
            "time": 205.14265200000003,
            "velocity": 0.8267716535433071
          },
          {
            "duration": 0.22857119999997622,
            "durationTicks": 384,
            "midi": 82,
            "name": "A#5",
            "ticks": 345600,
            "time": 205.71408000000002,
            "velocity": 0.7244094488188977
          },
          {
            "duration": 0.9142847999999901,
            "durationTicks": 1536,
            "midi": 90,
            "name": "F#6",
            "ticks": 355200,
            "time": 211.42836000000003,
            "velocity": 0.8267716535433071
          },
          {
            "duration": 0.4571424000000093,
            "durationTicks": 768,
            "midi": 91,
            "name": "G6",
            "ticks": 357120,
            "time": 212.57121600000002,
            "velocity": 0.8267716535433071
          },
          {
            "duration": 0.34285680000002117,
            "durationTicks": 576,
            "midi": 91,
            "name": "G6",
            "ticks": 358080,
            "time": 213.14264400000002,
            "velocity": 0.8267716535433071
          },
          {
            "duration": 0.11428559999998811,
            "durationTicks": 192,
            "midi": 87,
            "name": "D#6",
            "ticks": 358800,
            "time": 213.57121500000002,
            "velocity": 0.8267716535433071
          },
          {
            "duration": 0.4571424000000093,
            "durationTicks": 768,
            "midi": 86,
            "name": "D6",
            "ticks": 359040,
            "time": 213.71407200000002,
            "velocity": 0.8267716535433071
          },
          {
            "duration": 0.4571424000000093,
            "durationTicks": 768,
            "midi": 84,
            "name": "C6",
            "ticks": 360000,
            "time": 214.2855,
            "velocity": 0.8267716535433071
          },
          {
            "duration": 0.4571424000000093,
            "durationTicks": 768,
            "midi": 82,
            "name": "A#5",
            "ticks": 360960,
            "time": 214.856928,
            "velocity": 0.8267716535433071
          },
          {
            "duration": 0.11428559999998811,
            "durationTicks": 192,
            "midi": 89,
            "name": "F6",
            "ticks": 362640,
            "time": 215.856927,
            "velocity": 0.8267716535433071
          },
          {
            "duration": 0.11428560000001653,
            "durationTicks": 192,
            "midi": 87,
            "name": "D#6",
            "ticks": 362880,
            "time": 215.999784,
            "velocity": 0.8267716535433071
          },
          {
            "duration": 0.11428559999998811,
            "durationTicks": 192,
            "midi": 86,
            "name": "D6",
            "ticks": 363120,
            "time": 216.14264100000003,
            "velocity": 0.8267716535433071
          },
          {
            "duration": 0.11428559999998811,
            "durationTicks": 192,
            "midi": 84,
            "name": "C6",
            "ticks": 363360,
            "time": 216.28549800000002,
            "velocity": 0.8267716535433071
          },
          {
            "duration": 0.11428559999998811,
            "durationTicks": 192,
            "midi": 82,
            "name": "A#5",
            "ticks": 363600,
            "time": 216.428355,
            "velocity": 0.8267716535433071
          },
          {
            "duration": 0.11428559999998811,
            "durationTicks": 192,
            "midi": 81,
            "name": "A5",
            "ticks": 363840,
            "time": 216.57121200000003,
            "velocity": 0.8267716535433071
          },
          {
            "duration": 0.11428559999998811,
            "durationTicks": 192,
            "midi": 79,
            "name": "G5",
            "ticks": 364080,
            "time": 216.71406900000002,
            "velocity": 0.8267716535433071
          },
          {
            "duration": 0.11428559999998811,
            "durationTicks": 192,
            "midi": 77,
            "name": "F5",
            "ticks": 364320,
            "time": 216.85692600000002,
            "velocity": 0.8267716535433071
          },
          {
            "duration": 0.11428560000001653,
            "durationTicks": 192,
            "midi": 75,
            "name": "D#5",
            "ticks": 364560,
            "time": 216.999783,
            "velocity": 0.8267716535433071
          },
          {
            "duration": 0.1999998000000005,
            "durationTicks": 336,
            "midi": 74,
            "name": "D5",
            "ticks": 364800,
            "time": 217.14264000000003,
            "velocity": 0.8267716535433071
          },
          {
            "duration": 0.19999980000002893,
            "durationTicks": 336,
            "midi": 77,
            "name": "F5",
            "ticks": 365280,
            "time": 217.428354,
            "velocity": 0.8267716535433071
          },
          {
            "duration": 0.1999998000000005,
            "durationTicks": 336,
            "midi": 79,
            "name": "G5",
            "ticks": 365760,
            "time": 217.71406800000003,
            "velocity": 0.8267716535433071
          },
          {
            "duration": 0.19999980000002893,
            "durationTicks": 336,
            "midi": 81,
            "name": "A5",
            "ticks": 366240,
            "time": 217.999782,
            "velocity": 0.8267716535433071
          },
          {
            "duration": 0.11428559999998811,
            "durationTicks": 192,
            "midi": 82,
            "name": "A#5",
            "ticks": 366720,
            "time": 218.28549600000002,
            "velocity": 0.8267716535433071
          },
          {
            "duration": 0.11428559999998811,
            "durationTicks": 192,
            "midi": 77,
            "name": "F5",
            "ticks": 366960,
            "time": 218.42835300000002,
            "velocity": 0.8267716535433071
          },
          {
            "duration": 0.11428560000001653,
            "durationTicks": 192,
            "midi": 86,
            "name": "D6",
            "ticks": 367200,
            "time": 218.57121,
            "velocity": 0.8267716535433071
          },
          {
            "duration": 0.11428559999998811,
            "durationTicks": 192,
            "midi": 84,
            "name": "C6",
            "ticks": 367440,
            "time": 218.71406700000003,
            "velocity": 0.8267716535433071
          },
          {
            "duration": 0.11428559999998811,
            "durationTicks": 192,
            "midi": 82,
            "name": "A#5",
            "ticks": 367680,
            "time": 218.85692400000002,
            "velocity": 0.8267716535433071
          },
          {
            "duration": 0.11428559999998811,
            "durationTicks": 192,
            "midi": 81,
            "name": "A5",
            "ticks": 367920,
            "time": 218.999781,
            "velocity": 0.8267716535433071
          },
          {
            "duration": 0.11428560000001653,
            "durationTicks": 192,
            "midi": 79,
            "name": "G5",
            "ticks": 368160,
            "time": 219.142638,
            "velocity": 0.8267716535433071
          },
          {
            "duration": 0.11428559999998811,
            "durationTicks": 192,
            "midi": 77,
            "name": "F5",
            "ticks": 368400,
            "time": 219.28549500000003,
            "velocity": 0.8267716535433071
          },
          {
            "duration": 0.11428559999998811,
            "durationTicks": 192,
            "midi": 87,
            "name": "D#6",
            "ticks": 368640,
            "time": 219.42835200000002,
            "velocity": 0.8267716535433071
          },
          {
            "duration": 0.11428559999998811,
            "durationTicks": 192,
            "midi": 86,
            "name": "D6",
            "ticks": 368880,
            "time": 219.571209,
            "velocity": 0.8267716535433071
          },
          {
            "duration": 0.11428559999998811,
            "durationTicks": 192,
            "midi": 84,
            "name": "C6",
            "ticks": 369120,
            "time": 219.71406600000003,
            "velocity": 0.8267716535433071
          },
          {
            "duration": 0.11428559999998811,
            "durationTicks": 192,
            "midi": 82,
            "name": "A#5",
            "ticks": 369360,
            "time": 219.85692300000002,
            "velocity": 0.8267716535433071
          },
          {
            "duration": 0.11428559999998811,
            "durationTicks": 192,
            "midi": 81,
            "name": "A5",
            "ticks": 369600,
            "time": 219.99978000000002,
            "velocity": 0.8267716535433071
          },
          {
            "duration": 0.11428560000001653,
            "durationTicks": 192,
            "midi": 84,
            "name": "C6",
            "ticks": 369840,
            "time": 220.142637,
            "velocity": 0.8267716535433071
          },
          {
            "duration": 0.11428559999998811,
            "durationTicks": 192,
            "midi": 89,
            "name": "F6",
            "ticks": 370080,
            "time": 220.28549400000003,
            "velocity": 0.8267716535433071
          },
          {
            "duration": 0.11428559999998811,
            "durationTicks": 192,
            "midi": 87,
            "name": "D#6",
            "ticks": 370320,
            "time": 220.42835100000002,
            "velocity": 0.8267716535433071
          },
          {
            "duration": 0.19999980000002893,
            "durationTicks": 336,
            "midi": 86,
            "name": "D6",
            "ticks": 370560,
            "time": 220.571208,
            "velocity": 0.8267716535433071
          },
          {
            "duration": 0.1999998000000005,
            "durationTicks": 336,
            "midi": 87,
            "name": "D#6",
            "ticks": 372000,
            "time": 221.42835000000002,
            "velocity": 0.8267716535433071
          },
          {
            "duration": 0.19999980000002893,
            "durationTicks": 336,
            "midi": 86,
            "name": "D6",
            "ticks": 372480,
            "time": 221.714064,
            "velocity": 0.8267716535433071
          },
          {
            "duration": 0.1999998000000005,
            "durationTicks": 336,
            "midi": 91,
            "name": "G6",
            "ticks": 372960,
            "time": 221.99977800000002,
            "velocity": 0.8267716535433071
          },
          {
            "duration": 0.19999980000002893,
            "durationTicks": 336,
            "midi": 89,
            "name": "F6",
            "ticks": 373440,
            "time": 222.285492,
            "velocity": 0.8267716535433071
          },
          {
            "duration": 0.1999998000000005,
            "durationTicks": 336,
            "midi": 81,
            "name": "A5",
            "ticks": 373920,
            "time": 222.57120600000002,
            "velocity": 0.8267716535433071
          },
          {
            "duration": 0.21428549999998836,
            "durationTicks": 360,
            "midi": 82,
            "name": "A#5",
            "ticks": 374400,
            "time": 222.85692000000003,
            "velocity": 0.8267716535433071
          },
          {
            "duration": 0.10714275000000839,
            "durationTicks": 180,
            "midi": 82,
            "name": "A#5",
            "ticks": 374880,
            "time": 223.14263400000002,
            "velocity": 0.8267716535433071
          },
          {
            "duration": 0.10714275000000839,
            "durationTicks": 180,
            "midi": 82,
            "name": "A#5",
            "ticks": 375120,
            "time": 223.285491,
            "velocity": 0.8267716535433071
          },
          {
            "duration": 0.21428549999998836,
            "durationTicks": 360,
            "midi": 81,
            "name": "A5",
            "ticks": 375360,
            "time": 223.42834800000003,
            "velocity": 0.8267716535433071
          },
          {
            "duration": 0.10714275000000839,
            "durationTicks": 180,
            "midi": 81,
            "name": "A5",
            "ticks": 375840,
            "time": 223.714062,
            "velocity": 0.8267716535433071
          },
          {
            "duration": 0.10714275000000839,
            "durationTicks": 180,
            "midi": 81,
            "name": "A5",
            "ticks": 376080,
            "time": 223.856919,
            "velocity": 0.8267716535433071
          },
          {
            "duration": 0.21428549999998836,
            "durationTicks": 360,
            "midi": 82,
            "name": "A#5",
            "ticks": 376320,
            "time": 223.99977600000003,
            "velocity": 0.8267716535433071
          },
          {
            "duration": 0.10714275000000839,
            "durationTicks": 180,
            "midi": 82,
            "name": "A#5",
            "ticks": 376800,
            "time": 224.28549,
            "velocity": 0.8267716535433071
          },
          {
            "duration": 0.10714274999997997,
            "durationTicks": 180,
            "midi": 82,
            "name": "A#5",
            "ticks": 377040,
            "time": 224.42834700000003,
            "velocity": 0.8267716535433071
          },
          {
            "duration": 0.21428549999998836,
            "durationTicks": 360,
            "midi": 81,
            "name": "A5",
            "ticks": 377280,
            "time": 224.57120400000002,
            "velocity": 0.8267716535433071
          },
          {
            "duration": 0.10714275000000839,
            "durationTicks": 180,
            "midi": 81,
            "name": "A5",
            "ticks": 377760,
            "time": 224.856918,
            "velocity": 0.8267716535433071
          },
          {
            "duration": 0.10714274999997997,
            "durationTicks": 180,
            "midi": 81,
            "name": "A5",
            "ticks": 378000,
            "time": 224.99977500000003,
            "velocity": 0.8267716535433071
          },
          {
            "duration": 0.21428549999998836,
            "durationTicks": 360,
            "midi": 82,
            "name": "A#5",
            "ticks": 378240,
            "time": 225.14263200000002,
            "velocity": 0.8267716535433071
          },
          {
            "duration": 0.10714275000000839,
            "durationTicks": 180,
            "midi": 82,
            "name": "A#5",
            "ticks": 378720,
            "time": 225.428346,
            "velocity": 0.8267716535433071
          },
          {
            "duration": 0.10714274999997997,
            "durationTicks": 180,
            "midi": 82,
            "name": "A#5",
            "ticks": 378960,
            "time": 225.57120300000003,
            "velocity": 0.8267716535433071
          },
          {
            "duration": 0.21428549999998836,
            "durationTicks": 360,
            "midi": 81,
            "name": "A5",
            "ticks": 379200,
            "time": 225.71406000000002,
            "velocity": 0.8267716535433071
          },
          {
            "duration": 0.10714274999997997,
            "durationTicks": 180,
            "midi": 81,
            "name": "A5",
            "ticks": 379680,
            "time": 225.99977400000003,
            "velocity": 0.8267716535433071
          },
          {
            "duration": 0.10714275000000839,
            "durationTicks": 180,
            "midi": 81,
            "name": "A5",
            "ticks": 379920,
            "time": 226.14263100000002,
            "velocity": 0.8267716535433071
          },
          {
            "duration": 0.21428550000001678,
            "durationTicks": 360,
            "midi": 82,
            "name": "A#5",
            "ticks": 380160,
            "time": 226.28548800000002,
            "velocity": 0.8267716535433071
          },
          {
            "duration": 0.21428549999998836,
            "durationTicks": 360,
            "midi": 81,
            "name": "A5",
            "ticks": 380640,
            "time": 226.57120200000003,
            "velocity": 0.8267716535433071
          },
          {
            "duration": 0.21428550000001678,
            "durationTicks": 360,
            "midi": 82,
            "name": "A#5",
            "ticks": 381120,
            "time": 226.856916,
            "velocity": 0.8267716535433071
          },
          {
            "duration": 0.21428549999998836,
            "durationTicks": 360,
            "midi": 81,
            "name": "A5",
            "ticks": 381600,
            "time": 227.14263000000003,
            "velocity": 0.8267716535433071
          },
          {
            "duration": 0.22857120000000464,
            "durationTicks": 384,
            "midi": 82,
            "name": "A#5",
            "ticks": 382080,
            "time": 227.428344,
            "velocity": 0.8267716535433071
          },
          {
            "duration": 0.22857119999997622,
            "durationTicks": 384,
            "midi": 78,
            "name": "F#5",
            "ticks": 384000,
            "time": 228.57120000000003,
            "velocity": 0.8267716535433071
          },
          {
            "duration": 0.22857119999997622,
            "durationTicks": 384,
            "midi": 79,
            "name": "G5",
            "ticks": 385920,
            "time": 229.71405600000003,
            "velocity": 0.8267716535433071
          },
          {
            "duration": 0.22857119999997622,
            "durationTicks": 384,
            "midi": 80,
            "name": "G#5",
            "ticks": 386880,
            "time": 230.28548400000003,
            "velocity": 0.8267716535433071
          },
          {
            "duration": 1.1428559999999948,
            "durationTicks": 1920,
            "midi": 86,
            "name": "D6",
            "ticks": 387840,
            "time": 230.85691200000002,
            "velocity": 0.5511811023622047
          },
          {
            "duration": 0.5714279999999974,
            "durationTicks": 960,
            "midi": 85,
            "name": "C#6",
            "ticks": 389760,
            "time": 231.99976800000002,
            "velocity": 0.5511811023622047
          },
          {
            "duration": 0.5714279999999974,
            "durationTicks": 960,
            "midi": 83,
            "name": "B5",
            "ticks": 390720,
            "time": 232.57119600000001,
            "velocity": 0.5511811023622047
          },
          {
            "duration": 0.5714279999999974,
            "durationTicks": 960,
            "midi": 81,
            "name": "A5",
            "ticks": 391680,
            "time": 233.142624,
            "velocity": 0.5511811023622047
          },
          {
            "duration": 0.5714279999999974,
            "durationTicks": 960,
            "midi": 80,
            "name": "G#5",
            "ticks": 392640,
            "time": 233.714052,
            "velocity": 0.5511811023622047
          },
          {
            "duration": 0.22857120000000464,
            "durationTicks": 384,
            "midi": 78,
            "name": "F#5",
            "ticks": 393600,
            "time": 234.28548,
            "velocity": 0.4566929133858268
          },
          {
            "duration": 0.5142851999999891,
            "durationTicks": 864,
            "midi": 90,
            "name": "F#6",
            "ticks": 412320,
            "time": 245.42832600000003,
            "velocity": 0.4566929133858268
          },
          {
            "duration": 0.4571424000000093,
            "durationTicks": 768,
            "midi": 88,
            "name": "E6",
            "ticks": 413280,
            "time": 245.99975400000002,
            "velocity": 0.8267716535433071
          },
          {
            "duration": 0.22857119999997622,
            "durationTicks": 384,
            "midi": 87,
            "name": "D#6",
            "ticks": 414240,
            "time": 246.57118200000002,
            "velocity": 0.8267716535433071
          },
          {
            "duration": 0.22857120000000464,
            "durationTicks": 384,
            "midi": 88,
            "name": "E6",
            "ticks": 414720,
            "time": 246.856896,
            "velocity": 0.8267716535433071
          },
          {
            "duration": 0.5142851999999607,
            "durationTicks": 864,
            "midi": 88,
            "name": "E6",
            "ticks": 420000,
            "time": 249.99975000000003,
            "velocity": 0.8267716535433071
          },
          {
            "duration": 0.4571424000000093,
            "durationTicks": 768,
            "midi": 86,
            "name": "D6",
            "ticks": 420960,
            "time": 250.57117800000003,
            "velocity": 0.8267716535433071
          },
          {
            "duration": 0.22857119999997622,
            "durationTicks": 384,
            "midi": 85,
            "name": "C#6",
            "ticks": 421920,
            "time": 251.14260600000003,
            "velocity": 0.8267716535433071
          },
          {
            "duration": 0.22857120000000464,
            "durationTicks": 384,
            "midi": 86,
            "name": "D6",
            "ticks": 422400,
            "time": 251.42832,
            "velocity": 0.8267716535433071
          },
          {
            "duration": 0.5142851999999891,
            "durationTicks": 864,
            "midi": 86,
            "name": "D6",
            "ticks": 427680,
            "time": 254.571174,
            "velocity": 0.8267716535433071
          },
          {
            "duration": 0.4571424000000093,
            "durationTicks": 768,
            "midi": 84,
            "name": "C6",
            "ticks": 428640,
            "time": 255.142602,
            "velocity": 0.8267716535433071
          },
          {
            "duration": 0.22857120000000464,
            "durationTicks": 384,
            "midi": 83,
            "name": "B5",
            "ticks": 429600,
            "time": 255.71403,
            "velocity": 0.8267716535433071
          },
          {
            "duration": 0.22857119999997622,
            "durationTicks": 384,
            "midi": 84,
            "name": "C6",
            "ticks": 430080,
            "time": 255.99974400000002,
            "velocity": 0.8267716535433071
          },
          {
            "duration": 0.6857135999999855,
            "durationTicks": 1152,
            "midi": 77,
            "name": "F5",
            "ticks": 433920,
            "time": 258.285456,
            "velocity": 0.8267716535433071
          },
          {
            "duration": 0.22857119999997622,
            "durationTicks": 384,
            "midi": 84,
            "name": "C6",
            "ticks": 435360,
            "time": 259.142598,
            "velocity": 0.8267716535433071
          },
          {
            "duration": 0.4571424000000093,
            "durationTicks": 768,
            "midi": 89,
            "name": "F6",
            "ticks": 435840,
            "time": 259.428312,
            "velocity": 0.8267716535433071
          },
          {
            "duration": 0.4571424000000093,
            "durationTicks": 768,
            "midi": 87,
            "name": "D#6",
            "ticks": 436800,
            "time": 259.99974000000003,
            "velocity": 0.8267716535433071
          },
          {
            "duration": 2.5142832000000226,
            "durationTicks": 4224,
            "midi": 86,
            "name": "D6",
            "ticks": 437760,
            "time": 260.571168,
            "velocity": 0.8267716535433071
          },
          {
            "duration": 0.12857129999997596,
            "durationTicks": 216,
            "midi": 84,
            "name": "C6",
            "ticks": 442080,
            "time": 263.14259400000003,
            "velocity": 0.8267716535433071
          },
          {
            "duration": 0.11428560000001653,
            "durationTicks": 192,
            "midi": 82,
            "name": "A#5",
            "ticks": 442320,
            "time": 263.285451,
            "velocity": 0.8267716535433071
          },
          {
            "duration": 1.9428551999999968,
            "durationTicks": 3264,
            "midi": 84,
            "name": "C6",
            "ticks": 442560,
            "time": 263.428308,
            "velocity": 0.8267716535433071
          },
          {
            "duration": 0.11428560000001653,
            "durationTicks": 192,
            "midi": 82,
            "name": "A#5",
            "ticks": 445920,
            "time": 265.428306,
            "velocity": 0.8267716535433071
          },
          {
            "duration": 0.11428560000001653,
            "durationTicks": 192,
            "midi": 81,
            "name": "A5",
            "ticks": 446160,
            "time": 265.571163,
            "velocity": 0.8267716535433071
          },
          {
            "duration": 0.22857119999997622,
            "durationTicks": 384,
            "midi": 82,
            "name": "A#5",
            "ticks": 446400,
            "time": 265.71402,
            "velocity": 0.8267716535433071
          },
          {
            "duration": 0.34285679999999275,
            "durationTicks": 576,
            "midi": 91,
            "name": "G6",
            "ticks": 447360,
            "time": 266.28544800000003,
            "velocity": 0.8267716535433071
          },
          {
            "duration": 0.11428560000001653,
            "durationTicks": 192,
            "midi": 89,
            "name": "F6",
            "ticks": 448080,
            "time": 266.714019,
            "velocity": 0.8267716535433071
          },
          {
            "duration": 0.3428568000000496,
            "durationTicks": 576,
            "midi": 88,
            "name": "E6",
            "ticks": 448320,
            "time": 266.856876,
            "velocity": 0.8267716535433071
          },
          {
            "duration": 0.11428559999995969,
            "durationTicks": 192,
            "midi": 86,
            "name": "D6",
            "ticks": 449040,
            "time": 267.28544700000003,
            "velocity": 0.8267716535433071
          },
          {
            "duration": 0.2857139999999845,
            "durationTicks": 480,
            "midi": 85,
            "name": "C#6",
            "ticks": 449280,
            "time": 267.428304,
            "velocity": 0.8267716535433071
          },
          {
            "duration": 0.2857139999999845,
            "durationTicks": 480,
            "midi": 88,
            "name": "E6",
            "ticks": 449760,
            "time": 267.714018,
            "velocity": 0.8267716535433071
          },
          {
            "duration": 0.2857140000000413,
            "durationTicks": 480,
            "midi": 89,
            "name": "F6",
            "ticks": 450240,
            "time": 267.999732,
            "velocity": 0.8267716535433071
          },
          {
            "duration": 0.22857119999997622,
            "durationTicks": 384,
            "midi": 86,
            "name": "D6",
            "ticks": 450720,
            "time": 268.28544600000004,
            "velocity": 0.8267716535433071
          },
          {
            "duration": 0.2857139999999845,
            "durationTicks": 480,
            "midi": 85,
            "name": "C#6",
            "ticks": 451200,
            "time": 268.57116,
            "velocity": 0.8267716535433071
          },
          {
            "duration": 0.2857140000000413,
            "durationTicks": 480,
            "midi": 88,
            "name": "E6",
            "ticks": 451680,
            "time": 268.856874,
            "velocity": 0.8267716535433071
          },
          {
            "duration": 0.2857139999999845,
            "durationTicks": 480,
            "midi": 89,
            "name": "F6",
            "ticks": 452160,
            "time": 269.14258800000005,
            "velocity": 0.8267716535433071
          },
          {
            "duration": 0.22857119999997622,
            "durationTicks": 384,
            "midi": 86,
            "name": "D6",
            "ticks": 452640,
            "time": 269.42830200000003,
            "velocity": 0.8267716535433071
          },
          {
            "duration": 0.2857139999999845,
            "durationTicks": 480,
            "midi": 85,
            "name": "C#6",
            "ticks": 453120,
            "time": 269.714016,
            "velocity": 0.8267716535433071
          },
          {
            "duration": 0.2857140000000413,
            "durationTicks": 480,
            "midi": 88,
            "name": "E6",
            "ticks": 453600,
            "time": 269.99973,
            "velocity": 0.8267716535433071
          },
          {
            "duration": 0.2857139999999845,
            "durationTicks": 480,
            "midi": 89,
            "name": "F6",
            "ticks": 454080,
            "time": 270.28544400000004,
            "velocity": 0.8267716535433071
          },
          {
            "duration": 0.22857119999997622,
            "durationTicks": 384,
            "midi": 86,
            "name": "D6",
            "ticks": 454560,
            "time": 270.571158,
            "velocity": 0.8267716535433071
          },
          {
            "duration": 0.2857139999999845,
            "durationTicks": 480,
            "midi": 85,
            "name": "C#6",
            "ticks": 455040,
            "time": 270.856872,
            "velocity": 0.8267716535433071
          },
          {
            "duration": 0.2857140000000413,
            "durationTicks": 480,
            "midi": 88,
            "name": "E6",
            "ticks": 455520,
            "time": 271.142586,
            "velocity": 0.8267716535433071
          },
          {
            "duration": 0.2857139999999845,
            "durationTicks": 480,
            "midi": 89,
            "name": "F6",
            "ticks": 456000,
            "time": 271.42830000000004,
            "velocity": 0.8267716535433071
          },
          {
            "duration": 0.22857119999997622,
            "durationTicks": 384,
            "midi": 86,
            "name": "D6",
            "ticks": 456480,
            "time": 271.714014,
            "velocity": 0.8267716535433071
          },
          {
            "duration": 0.4571424000000093,
            "durationTicks": 768,
            "midi": 85,
            "name": "C#6",
            "ticks": 456960,
            "time": 271.999728,
            "velocity": 0.8267716535433071
          },
          {
            "duration": 0.14285699999999224,
            "durationTicks": 240,
            "midi": 77,
            "name": "F5",
            "ticks": 460320,
            "time": 273.999726,
            "velocity": 0.8267716535433071
          },
          {
            "duration": 0.08571419999998398,
            "durationTicks": 144,
            "midi": 75,
            "name": "D#5",
            "ticks": 460560,
            "time": 274.142583,
            "velocity": 0.5511811023622047
          },
          {
            "duration": 0.1714284000000248,
            "durationTicks": 288,
            "midi": 75,
            "name": "D#5",
            "ticks": 460800,
            "time": 274.28544,
            "velocity": 0.5511811023622047
          },
          {
            "duration": 0.14285699999999224,
            "durationTicks": 240,
            "midi": 77,
            "name": "F5",
            "ticks": 461280,
            "time": 274.57115400000004,
            "velocity": 0.5511811023622047
          },
          {
            "duration": 0.08571419999998398,
            "durationTicks": 144,
            "midi": 75,
            "name": "D#5",
            "ticks": 461520,
            "time": 274.714011,
            "velocity": 0.5511811023622047
          },
          {
            "duration": 0.1714284000000248,
            "durationTicks": 288,
            "midi": 75,
            "name": "D#5",
            "ticks": 461760,
            "time": 274.856868,
            "velocity": 0.5511811023622047
          },
          {
            "duration": 0.1714284000000248,
            "durationTicks": 288,
            "midi": 75,
            "name": "D#5",
            "ticks": 462240,
            "time": 275.142582,
            "velocity": 0.5511811023622047
          },
          {
            "duration": 0.14285700000004908,
            "durationTicks": 240,
            "midi": 78,
            "name": "F#5",
            "ticks": 464160,
            "time": 276.285438,
            "velocity": 0.5511811023622047
          },
          {
            "duration": 0.08571419999998398,
            "durationTicks": 144,
            "midi": 77,
            "name": "F5",
            "ticks": 464400,
            "time": 276.42829500000005,
            "velocity": 0.5511811023622047
          },
          {
            "duration": 0.17142839999996795,
            "durationTicks": 288,
            "midi": 77,
            "name": "F5",
            "ticks": 464640,
            "time": 276.57115200000004,
            "velocity": 0.5511811023622047
          },
          {
            "duration": 0.14285699999999224,
            "durationTicks": 240,
            "midi": 78,
            "name": "F#5",
            "ticks": 465120,
            "time": 276.856866,
            "velocity": 0.5511811023622047
          },
          {
            "duration": 0.08571419999998398,
            "durationTicks": 144,
            "midi": 77,
            "name": "F5",
            "ticks": 465360,
            "time": 276.999723,
            "velocity": 0.5511811023622047
          },
          {
            "duration": 0.1714284000000248,
            "durationTicks": 288,
            "midi": 77,
            "name": "F5",
            "ticks": 465600,
            "time": 277.14258,
            "velocity": 0.5511811023622047
          },
          {
            "duration": 0.17142839999996795,
            "durationTicks": 288,
            "midi": 77,
            "name": "F5",
            "ticks": 466080,
            "time": 277.42829400000005,
            "velocity": 0.5511811023622047
          },
          {
            "duration": 0.14285699999999224,
            "durationTicks": 240,
            "midi": 79,
            "name": "G5",
            "ticks": 468000,
            "time": 278.57115000000005,
            "velocity": 0.5511811023622047
          },
          {
            "duration": 0.08571419999998398,
            "durationTicks": 144,
            "midi": 77,
            "name": "F5",
            "ticks": 468240,
            "time": 278.71400700000004,
            "velocity": 0.5511811023622047
          },
          {
            "duration": 0.1714284000000248,
            "durationTicks": 288,
            "midi": 77,
            "name": "F5",
            "ticks": 468480,
            "time": 278.85686400000003,
            "velocity": 0.5511811023622047
          },
          {
            "duration": 0.14285699999999224,
            "durationTicks": 240,
            "midi": 79,
            "name": "G5",
            "ticks": 468960,
            "time": 279.142578,
            "velocity": 0.5511811023622047
          },
          {
            "duration": 0.08571419999998398,
            "durationTicks": 144,
            "midi": 77,
            "name": "F5",
            "ticks": 469200,
            "time": 279.285435,
            "velocity": 0.5511811023622047
          },
          {
            "duration": 0.1714284000000248,
            "durationTicks": 288,
            "midi": 77,
            "name": "F5",
            "ticks": 469440,
            "time": 279.428292,
            "velocity": 0.5511811023622047
          },
          {
            "duration": 0.17142839999996795,
            "durationTicks": 288,
            "midi": 77,
            "name": "F5",
            "ticks": 469920,
            "time": 279.71400600000004,
            "velocity": 0.5511811023622047
          },
          {
            "duration": 0.14285699999999224,
            "durationTicks": 240,
            "midi": 80,
            "name": "G#5",
            "ticks": 471840,
            "time": 280.85686200000004,
            "velocity": 0.5511811023622047
          },
          {
            "duration": 0.08571419999998398,
            "durationTicks": 144,
            "midi": 79,
            "name": "G5",
            "ticks": 472080,
            "time": 280.999719,
            "velocity": 0.5511811023622047
          },
          {
            "duration": 0.1714284000000248,
            "durationTicks": 288,
            "midi": 79,
            "name": "G5",
            "ticks": 472320,
            "time": 281.142576,
            "velocity": 0.5511811023622047
          },
          {
            "duration": 0.14285699999999224,
            "durationTicks": 240,
            "midi": 80,
            "name": "G#5",
            "ticks": 472800,
            "time": 281.42829,
            "velocity": 0.5511811023622047
          },
          {
            "duration": 0.08571420000004082,
            "durationTicks": 144,
            "midi": 79,
            "name": "G5",
            "ticks": 473040,
            "time": 281.571147,
            "velocity": 0.5511811023622047
          },
          {
            "duration": 0.17142839999996795,
            "durationTicks": 288,
            "midi": 79,
            "name": "G5",
            "ticks": 473280,
            "time": 281.71400400000005,
            "velocity": 0.5511811023622047
          },
          {
            "duration": 0.1714284000000248,
            "durationTicks": 288,
            "midi": 79,
            "name": "G5",
            "ticks": 473760,
            "time": 281.99971800000003,
            "velocity": 0.5511811023622047
          },
          {
            "duration": 0.14285699999999224,
            "durationTicks": 240,
            "midi": 83,
            "name": "B5",
            "ticks": 476640,
            "time": 283.71400200000005,
            "velocity": 0.5511811023622047
          },
          {
            "duration": 0.11428559999995969,
            "durationTicks": 192,
            "midi": 84,
            "name": "C6",
            "ticks": 476880,
            "time": 283.85685900000004,
            "velocity": 0.5511811023622047
          },
          {
            "duration": 0.22857119999997622,
            "durationTicks": 384,
            "midi": 84,
            "name": "C6",
            "ticks": 477120,
            "time": 283.99971600000003,
            "velocity": 0.5511811023622047
          },
          {
            "duration": 0.14285699999999224,
            "durationTicks": 240,
            "midi": 87,
            "name": "D#6",
            "ticks": 480480,
            "time": 285.99971400000004,
            "velocity": 0.5511811023622047
          },
          {
            "duration": 0.11428559999995969,
            "durationTicks": 192,
            "midi": 86,
            "name": "D6",
            "ticks": 480720,
            "time": 286.14257100000003,
            "velocity": 0.5511811023622047
          },
          {
            "duration": 0.22857119999997622,
            "durationTicks": 384,
            "midi": 86,
            "name": "D6",
            "ticks": 480960,
            "time": 286.285428,
            "velocity": 0.5511811023622047
          },
          {
            "duration": 0.14285699999999224,
            "durationTicks": 240,
            "midi": 91,
            "name": "G6",
            "ticks": 484320,
            "time": 288.28542600000003,
            "velocity": 0.4566929133858268
          },
          {
            "duration": 0.11428560000001653,
            "durationTicks": 192,
            "midi": 90,
            "name": "F#6",
            "ticks": 484560,
            "time": 288.428283,
            "velocity": 0.4566929133858268
          },
          {
            "duration": 0.22857119999997622,
            "durationTicks": 384,
            "midi": 90,
            "name": "F#6",
            "ticks": 484800,
            "time": 288.57114,
            "velocity": 0.4566929133858268
          },
          {
            "duration": 0.2857139999999845,
            "durationTicks": 480,
            "midi": 81,
            "name": "A5",
            "ticks": 485760,
            "time": 289.14256800000004,
            "velocity": 0.8267716535433071
          },
          {
            "duration": 0.2857139999999845,
            "durationTicks": 480,
            "midi": 84,
            "name": "C6",
            "ticks": 486240,
            "time": 289.428282,
            "velocity": 0.8267716535433071
          },
          {
            "duration": 0.22857119999997622,
            "durationTicks": 384,
            "midi": 87,
            "name": "D#6",
            "ticks": 486720,
            "time": 289.713996,
            "velocity": 0.8267716535433071
          },
          {
            "duration": 0.2857139999999845,
            "durationTicks": 480,
            "midi": 79,
            "name": "G5",
            "ticks": 487680,
            "time": 290.28542400000003,
            "velocity": 0.8267716535433071
          },
          {
            "duration": 0.2857139999999845,
            "durationTicks": 480,
            "midi": 82,
            "name": "A#5",
            "ticks": 488160,
            "time": 290.571138,
            "velocity": 0.8267716535433071
          },
          {
            "duration": 0.22857120000003306,
            "durationTicks": 384,
            "midi": 86,
            "name": "D6",
            "ticks": 488640,
            "time": 290.856852,
            "velocity": 0.8267716535433071
          },
          {
            "duration": 0.2857139999999845,
            "durationTicks": 480,
            "midi": 91,
            "name": "G6",
            "ticks": 489600,
            "time": 291.42828000000003,
            "velocity": 0.8267716535433071
          },
          {
            "duration": 0.2857139999999845,
            "durationTicks": 480,
            "midi": 88,
            "name": "E6",
            "ticks": 490080,
            "time": 291.713994,
            "velocity": 0.8267716535433071
          },
          {
            "duration": 0.22857120000003306,
            "durationTicks": 384,
            "midi": 85,
            "name": "C#6",
            "ticks": 490560,
            "time": 291.999708,
            "velocity": 0.8267716535433071
          },
          {
            "duration": 0.2857139999999845,
            "durationTicks": 480,
            "midi": 86,
            "name": "D6",
            "ticks": 491520,
            "time": 292.571136,
            "velocity": 0.8267716535433071
          },
          {
            "duration": 0.2857140000000413,
            "durationTicks": 480,
            "midi": 81,
            "name": "A5",
            "ticks": 492000,
            "time": 292.85685,
            "velocity": 0.8267716535433071
          },
          {
            "duration": 0.22857119999997622,
            "durationTicks": 384,
            "midi": 78,
            "name": "F#5",
            "ticks": 492480,
            "time": 293.14256400000005,
            "velocity": 0.8267716535433071
          },
          {
            "duration": 0.2857139999999845,
            "durationTicks": 480,
            "midi": 81,
            "name": "A5",
            "ticks": 493440,
            "time": 293.713992,
            "velocity": 0.8267716535433071
          },
          {
            "duration": 0.2857140000000413,
            "durationTicks": 480,
            "midi": 84,
            "name": "C6",
            "ticks": 493920,
            "time": 293.999706,
            "velocity": 0.8267716535433071
          },
          {
            "duration": 0.22857119999997622,
            "durationTicks": 384,
            "midi": 90,
            "name": "F#6",
            "ticks": 494400,
            "time": 294.28542000000004,
            "velocity": 0.8267716535433071
          },
          {
            "duration": 0.2857139999999845,
            "durationTicks": 480,
            "midi": 82,
            "name": "A#5",
            "ticks": 495360,
            "time": 294.856848,
            "velocity": 0.8267716535433071
          },
          {
            "duration": 0.2857140000000413,
            "durationTicks": 480,
            "midi": 86,
            "name": "D6",
            "ticks": 495840,
            "time": 295.142562,
            "velocity": 0.8267716535433071
          },
          {
            "duration": 0.22857119999997622,
            "durationTicks": 384,
            "midi": 91,
            "name": "G6",
            "ticks": 496320,
            "time": 295.42827600000004,
            "velocity": 0.8267716535433071
          },
          {
            "duration": 0.14285699999999224,
            "durationTicks": 240,
            "midi": 87,
            "name": "D#6",
            "ticks": 499680,
            "time": 297.42827400000004,
            "velocity": 0.5511811023622047
          },
          {
            "duration": 0.11428560000001653,
            "durationTicks": 192,
            "midi": 86,
            "name": "D6",
            "ticks": 499920,
            "time": 297.57113100000004,
            "velocity": 0.5511811023622047
          },
          {
            "duration": 0.799999200000002,
            "durationTicks": 1344,
            "midi": 86,
            "name": "D6",
            "ticks": 500160,
            "time": 297.71398800000003,
            "velocity": 0.5511811023622047
          },
          {
            "duration": 0.14285699999999224,
            "durationTicks": 240,
            "midi": 86,
            "name": "D6",
            "ticks": 501600,
            "time": 298.57113000000004,
            "velocity": 0.5511811023622047
          },
          {
            "duration": 0.11428560000001653,
            "durationTicks": 192,
            "midi": 85,
            "name": "C#6",
            "ticks": 501840,
            "time": 298.71398700000003,
            "velocity": 0.5511811023622047
          },
          {
            "duration": 0.799999200000002,
            "durationTicks": 1344,
            "midi": 84,
            "name": "C6",
            "ticks": 502080,
            "time": 298.856844,
            "velocity": 0.5511811023622047
          },
          {
            "duration": 0.14285699999999224,
            "durationTicks": 240,
            "midi": 84,
            "name": "C6",
            "ticks": 503520,
            "time": 299.71398600000003,
            "velocity": 0.5511811023622047
          },
          {
            "duration": 0.14285699999999224,
            "durationTicks": 240,
            "midi": 83,
            "name": "B5",
            "ticks": 503760,
            "time": 299.856843,
            "velocity": 0.5511811023622047
          },
          {
            "duration": 0.799999200000002,
            "durationTicks": 1344,
            "midi": 82,
            "name": "A#5",
            "ticks": 504000,
            "time": 299.9997,
            "velocity": 0.5511811023622047
          },
          {
            "duration": 0.14285699999999224,
            "durationTicks": 240,
            "midi": 82,
            "name": "A#5",
            "ticks": 505440,
            "time": 300.85684200000003,
            "velocity": 0.5511811023622047
          },
          {
            "duration": 0.11428560000001653,
            "durationTicks": 192,
            "midi": 81,
            "name": "A5",
            "ticks": 505680,
            "time": 300.999699,
            "velocity": 0.5511811023622047
          },
          {
            "duration": 0.799999200000002,
            "durationTicks": 1344,
            "midi": 81,
            "name": "A5",
            "ticks": 505920,
            "time": 301.142556,
            "velocity": 0.5511811023622047
          },
          {
            "duration": 0.14285699999999224,
            "durationTicks": 240,
            "midi": 81,
            "name": "A5",
            "ticks": 507360,
            "time": 301.999698,
            "velocity": 0.5511811023622047
          },
          {
            "duration": 0.11428560000001653,
            "durationTicks": 192,
            "midi": 80,
            "name": "G#5",
            "ticks": 507600,
            "time": 302.142555,
            "velocity": 0.5511811023622047
          },
          {
            "duration": 1.1428559999999948,
            "durationTicks": 1920,
            "midi": 79,
            "name": "G5",
            "ticks": 507840,
            "time": 302.285412,
            "velocity": 0.4566929133858268
          },
          {
            "duration": 0.5714280000000258,
            "durationTicks": 960,
            "midi": 78,
            "name": "F#5",
            "ticks": 509760,
            "time": 303.428268,
            "velocity": 0.4566929133858268
          },
          {
            "duration": 0.22857119999997622,
            "durationTicks": 384,
            "midi": 79,
            "name": "G5",
            "ticks": 510720,
            "time": 303.99969600000003,
            "velocity": 0.4566929133858268
          },
          {
            "duration": 0.2857140000000413,
            "durationTicks": 480,
            "midi": 78,
            "name": "F#5",
            "ticks": 532320,
            "time": 316.856826,
            "velocity": 0.5511811023622047
          },
          {
            "duration": 0.2857139999999845,
            "durationTicks": 480,
            "midi": 79,
            "name": "G5",
            "ticks": 532800,
            "time": 317.14254000000005,
            "velocity": 0.5511811023622047
          },
          {
            "duration": 0.2857139999999845,
            "durationTicks": 480,
            "midi": 81,
            "name": "A5",
            "ticks": 533280,
            "time": 317.42825400000004,
            "velocity": 0.5511811023622047
          },
          {
            "duration": 0.2857139999999845,
            "durationTicks": 480,
            "midi": 82,
            "name": "A#5",
            "ticks": 533760,
            "time": 317.713968,
            "velocity": 0.5511811023622047
          },
          {
            "duration": 0.14285699999999224,
            "durationTicks": 240,
            "midi": 84,
            "name": "C6",
            "ticks": 534240,
            "time": 317.999682,
            "velocity": 0.5511811023622047
          },
          {
            "duration": 0.14285700000004908,
            "durationTicks": 240,
            "midi": 82,
            "name": "A#5",
            "ticks": 534480,
            "time": 318.142539,
            "velocity": 0.5511811023622047
          },
          {
            "duration": 0.2857139999999845,
            "durationTicks": 480,
            "midi": 81,
            "name": "A5",
            "ticks": 534720,
            "time": 318.28539600000005,
            "velocity": 0.5511811023622047
          },
          {
            "duration": 0.2857139999999845,
            "durationTicks": 480,
            "midi": 79,
            "name": "G5",
            "ticks": 535200,
            "time": 318.57111000000003,
            "velocity": 0.5511811023622047
          },
          {
            "duration": 0.22857119999997622,
            "durationTicks": 384,
            "midi": 78,
            "name": "F#5",
            "ticks": 535680,
            "time": 318.856824,
            "velocity": 0.5511811023622047
          },
          {
            "duration": 0.571427999999969,
            "durationTicks": 960,
            "midi": 85,
            "name": "C#6",
            "ticks": 536640,
            "time": 319.42825200000004,
            "velocity": 0.8267716535433071
          },
          {
            "duration": 0.22857119999997622,
            "durationTicks": 384,
            "midi": 86,
            "name": "D6",
            "ticks": 537600,
            "time": 319.99968,
            "velocity": 0.8267716535433071
          },
          {
            "duration": 0.571427999999969,
            "durationTicks": 960,
            "midi": 85,
            "name": "C#6",
            "ticks": 538560,
            "time": 320.57110800000004,
            "velocity": 0.8267716535433071
          },
          {
            "duration": 0.22857120000003306,
            "durationTicks": 384,
            "midi": 86,
            "name": "D6",
            "ticks": 539520,
            "time": 321.142536,
            "velocity": 0.8267716535433071
          },
          {
            "duration": 0.571427999999969,
            "durationTicks": 960,
            "midi": 85,
            "name": "C#6",
            "ticks": 540480,
            "time": 321.71396400000003,
            "velocity": 0.8267716535433071
          },
          {
            "duration": 0.1714284000000248,
            "durationTicks": 288,
            "midi": 86,
            "name": "D6",
            "ticks": 541440,
            "time": 322.285392,
            "velocity": 0.8267716535433071
          },
          {
            "duration": 0.17142839999996795,
            "durationTicks": 288,
            "midi": 85,
            "name": "C#6",
            "ticks": 541920,
            "time": 322.57110600000004,
            "velocity": 0.8267716535433071
          },
          {
            "duration": 0.17142839999996795,
            "durationTicks": 288,
            "midi": 86,
            "name": "D6",
            "ticks": 542400,
            "time": 322.85682,
            "velocity": 0.8267716535433071
          },
          {
            "duration": 0.17142839999996795,
            "durationTicks": 288,
            "midi": 85,
            "name": "C#6",
            "ticks": 542880,
            "time": 323.142534,
            "velocity": 0.8267716535433071
          },
          {
            "duration": 0.45714239999995243,
            "durationTicks": 768,
            "midi": 86,
            "name": "D6",
            "ticks": 543360,
            "time": 323.42824800000005,
            "velocity": 0.8267716535433071
          },
          {
            "duration": 1.0857131999999865,
            "durationTicks": 1824,
            "midi": 82,
            "name": "A#5",
            "ticks": 551040,
            "time": 327.99967200000003,
            "velocity": 0.5511811023622047
          },
          {
            "duration": 1.0857131999999865,
            "durationTicks": 1824,
            "midi": 83,
            "name": "B5",
            "ticks": 552960,
            "time": 329.142528,
            "velocity": 0.5511811023622047
          },
          {
            "duration": 0.5428566000000501,
            "durationTicks": 912,
            "midi": 82,
            "name": "A#5",
            "ticks": 554880,
            "time": 330.285384,
            "velocity": 0.5511811023622047
          },
          {
            "duration": 1.114284600000019,
            "durationTicks": 1872,
            "midi": 86,
            "name": "D6",
            "ticks": 555840,
            "time": 330.85681200000005,
            "velocity": 0.5511811023622047
          },
          {
            "duration": 0.5428565999999933,
            "durationTicks": 912,
            "midi": 80,
            "name": "G#5",
            "ticks": 557760,
            "time": 331.99966800000004,
            "velocity": 0.5511811023622047
          },
          {
            "duration": 0.4571424000000093,
            "durationTicks": 768,
            "midi": 79,
            "name": "G5",
            "ticks": 558720,
            "time": 332.571096,
            "velocity": 0.8267716535433071
          },
          {
            "duration": 0.45714239999995243,
            "durationTicks": 768,
            "midi": 75,
            "name": "D#5",
            "ticks": 559680,
            "time": 333.14252400000004,
            "velocity": 0.8267716535433071
          },
          {
            "duration": 0.9142848000000185,
            "durationTicks": 1536,
            "midi": 82,
            "name": "A#5",
            "ticks": 560640,
            "time": 333.713952,
            "velocity": 0.8267716535433071
          },
          {
            "duration": 0.9142848000000185,
            "durationTicks": 1536,
            "midi": 80,
            "name": "G#5",
            "ticks": 562560,
            "time": 334.856808,
            "velocity": 0.8267716535433071
          },
          {
            "duration": 0.45714239999995243,
            "durationTicks": 768,
            "midi": 79,
            "name": "G5",
            "ticks": 564480,
            "time": 335.99966400000005,
            "velocity": 0.8267716535433071
          },
          {
            "duration": 0.45714239999995243,
            "durationTicks": 768,
            "midi": 91,
            "name": "G6",
            "ticks": 565440,
            "time": 336.571092,
            "velocity": 0.8267716535433071
          },
          {
            "duration": 0.9142848000000185,
            "durationTicks": 1536,
            "midi": 89,
            "name": "F6",
            "ticks": 566400,
            "time": 337.14252000000005,
            "velocity": 0.8267716535433071
          },
          {
            "duration": 0.45714239999995243,
            "durationTicks": 768,
            "midi": 88,
            "name": "E6",
            "ticks": 568320,
            "time": 338.28537600000004,
            "velocity": 0.8267716535433071
          },
          {
            "duration": 0.4571424000000093,
            "durationTicks": 768,
            "midi": 85,
            "name": "C#6",
            "ticks": 569280,
            "time": 338.856804,
            "velocity": 0.8267716535433071
          },
          {
            "duration": 0.45714239999995243,
            "durationTicks": 768,
            "midi": 84,
            "name": "C6",
            "ticks": 570240,
            "time": 339.42823200000004,
            "velocity": 0.8267716535433071
          },
          {
            "duration": 0.4571424000000093,
            "durationTicks": 768,
            "midi": 82,
            "name": "A#5",
            "ticks": 571200,
            "time": 339.99966,
            "velocity": 0.8267716535433071
          },
          {
            "duration": 0.45714239999995243,
            "durationTicks": 768,
            "midi": 80,
            "name": "G#5",
            "ticks": 572160,
            "time": 340.57108800000003,
            "velocity": 0.8267716535433071
          },
          {
            "duration": 0.4571424000000093,
            "durationTicks": 768,
            "midi": 77,
            "name": "F5",
            "ticks": 573120,
            "time": 341.142516,
            "velocity": 0.8267716535433071
          },
          {
            "duration": 0.9142848000000185,
            "durationTicks": 1536,
            "midi": 84,
            "name": "C6",
            "ticks": 574080,
            "time": 341.713944,
            "velocity": 0.8267716535433071
          },
          {
            "duration": 0.9142848000000185,
            "durationTicks": 1536,
            "midi": 85,
            "name": "C#6",
            "ticks": 576000,
            "time": 342.8568,
            "velocity": 0.8267716535433071
          },
          {
            "duration": 0.9142848000000185,
            "durationTicks": 1536,
            "midi": 84,
            "name": "C6",
            "ticks": 577920,
            "time": 343.999656,
            "velocity": 0.8267716535433071
          },
          {
            "duration": 0.9142848000000185,
            "durationTicks": 1536,
            "midi": 82,
            "name": "A#5",
            "ticks": 579840,
            "time": 345.142512,
            "velocity": 0.8267716535433071
          },
          {
            "duration": 0.22857120000003306,
            "durationTicks": 384,
            "midi": 80,
            "name": "G#5",
            "ticks": 581760,
            "time": 346.285368,
            "velocity": 0.8267716535433071
          },
          {
            "duration": 0.22857119999997622,
            "durationTicks": 384,
            "midi": 89,
            "name": "F6",
            "ticks": 582240,
            "time": 346.57108200000005,
            "velocity": 0.8267716535433071
          },
          {
            "duration": 0.22857119999997622,
            "durationTicks": 384,
            "midi": 89,
            "name": "F6",
            "ticks": 582720,
            "time": 346.85679600000003,
            "velocity": 0.8267716535433071
          },
          {
            "duration": 0.22857119999997622,
            "durationTicks": 384,
            "midi": 89,
            "name": "F6",
            "ticks": 583200,
            "time": 347.14251,
            "velocity": 0.8267716535433071
          },
          {
            "duration": 0.22857119999997622,
            "durationTicks": 384,
            "midi": 89,
            "name": "F6",
            "ticks": 584160,
            "time": 347.71393800000004,
            "velocity": 0.8267716535433071
          },
          {
            "duration": 0.22857119999997622,
            "durationTicks": 384,
            "midi": 89,
            "name": "F6",
            "ticks": 584640,
            "time": 347.999652,
            "velocity": 0.8267716535433071
          },
          {
            "duration": 0.22857120000003306,
            "durationTicks": 384,
            "midi": 89,
            "name": "F6",
            "ticks": 585120,
            "time": 348.285366,
            "velocity": 0.8267716535433071
          },
          {
            "duration": 0.2857139999999845,
            "durationTicks": 480,
            "midi": 89,
            "name": "F6",
            "ticks": 586080,
            "time": 348.85679400000004,
            "velocity": 0.8267716535433071
          },
          {
            "duration": 0.22857119999997622,
            "durationTicks": 384,
            "midi": 87,
            "name": "D#6",
            "ticks": 586560,
            "time": 349.142508,
            "velocity": 0.8267716535433071
          },
          {
            "duration": 0.1714284000000248,
            "durationTicks": 288,
            "midi": 87,
            "name": "D#6",
            "ticks": 587040,
            "time": 349.428222,
            "velocity": 0.8267716535433071
          },
          {
            "duration": 0.22857119999997622,
            "durationTicks": 384,
            "midi": 87,
            "name": "D#6",
            "ticks": 588000,
            "time": 349.99965000000003,
            "velocity": 0.8267716535433071
          },
          {
            "duration": 0.22857119999997622,
            "durationTicks": 384,
            "midi": 87,
            "name": "D#6",
            "ticks": 588480,
            "time": 350.285364,
            "velocity": 0.8267716535433071
          },
          {
            "duration": 0.22857119999997622,
            "durationTicks": 384,
            "midi": 87,
            "name": "D#6",
            "ticks": 588960,
            "time": 350.57107800000006,
            "velocity": 0.8267716535433071
          },
          {
            "duration": 0.2857139999999845,
            "durationTicks": 480,
            "midi": 87,
            "name": "D#6",
            "ticks": 589920,
            "time": 351.142506,
            "velocity": 0.8267716535433071
          },
          {
            "duration": 0.22857120000003306,
            "durationTicks": 384,
            "midi": 86,
            "name": "D6",
            "ticks": 590400,
            "time": 351.42822,
            "velocity": 0.8267716535433071
          },
          {
            "duration": 0.17142839999996795,
            "durationTicks": 288,
            "midi": 86,
            "name": "D6",
            "ticks": 590880,
            "time": 351.71393400000005,
            "velocity": 0.8267716535433071
          },
          {
            "duration": 0.22857119999997622,
            "durationTicks": 384,
            "midi": 86,
            "name": "D6",
            "ticks": 591840,
            "time": 352.285362,
            "velocity": 0.8267716535433071
          },
          {
            "duration": 0.22857120000003306,
            "durationTicks": 384,
            "midi": 86,
            "name": "D6",
            "ticks": 592320,
            "time": 352.571076,
            "velocity": 0.8267716535433071
          },
          {
            "duration": 0.22857119999997622,
            "durationTicks": 384,
            "midi": 86,
            "name": "D6",
            "ticks": 592800,
            "time": 352.85679000000005,
            "velocity": 0.8267716535433071
          },
          {
            "duration": 0.2857140000000413,
            "durationTicks": 480,
            "midi": 86,
            "name": "D6",
            "ticks": 593760,
            "time": 353.428218,
            "velocity": 0.8267716535433071
          },
          {
            "duration": 0.17142839999996795,
            "durationTicks": 288,
            "midi": 84,
            "name": "C6",
            "ticks": 594240,
            "time": 353.71393200000006,
            "velocity": 0.8267716535433071
          },
          {
            "duration": 0.17142839999996795,
            "durationTicks": 288,
            "midi": 84,
            "name": "C6",
            "ticks": 594720,
            "time": 353.99964600000004,
            "velocity": 0.8267716535433071
          },
          {
            "duration": 0.17142839999996795,
            "durationTicks": 288,
            "midi": 84,
            "name": "C6",
            "ticks": 595680,
            "time": 354.571074,
            "velocity": 0.8267716535433071
          },
          {
            "duration": 0.2857139999999845,
            "durationTicks": 480,
            "midi": 84,
            "name": "C6",
            "ticks": 596160,
            "time": 354.85678800000005,
            "velocity": 0.8267716535433071
          },
          {
            "duration": 0.17142839999996795,
            "durationTicks": 288,
            "midi": 78,
            "name": "F#5",
            "ticks": 596640,
            "time": 355.14250200000004,
            "velocity": 0.8267716535433071
          },
          {
            "duration": 1.0285703999999782,
            "durationTicks": 1728,
            "midi": 79,
            "name": "G5",
            "ticks": 597120,
            "time": 355.428216,
            "velocity": 0.8267716535433071
          },
          {
            "duration": 1.0285703999999782,
            "durationTicks": 1728,
            "midi": 86,
            "name": "D6",
            "ticks": 599040,
            "time": 356.571072,
            "velocity": 0.8267716535433071
          },
          {
            "duration": 1.0285703999999782,
            "durationTicks": 1728,
            "midi": 84,
            "name": "C6",
            "ticks": 600960,
            "time": 357.713928,
            "velocity": 0.8267716535433071
          },
          {
            "duration": 1.0285703999999782,
            "durationTicks": 1728,
            "midi": 82,
            "name": "A#5",
            "ticks": 602880,
            "time": 358.856784,
            "velocity": 0.8267716535433071
          },
          {
            "duration": 0.8571419999999534,
            "durationTicks": 1440,
            "midi": 81,
            "name": "A5",
            "ticks": 604800,
            "time": 359.99964000000006,
            "velocity": 0.8267716535433071
          },
          {
            "duration": 0.22857120000003306,
            "durationTicks": 384,
            "midi": 78,
            "name": "F#5",
            "ticks": 606240,
            "time": 360.856782,
            "velocity": 0.8267716535433071
          },
          {
            "duration": 0.7714277999999695,
            "durationTicks": 1296,
            "midi": 79,
            "name": "G5",
            "ticks": 606720,
            "time": 361.14249600000005,
            "velocity": 0.8267716535433071
          },
          {
            "duration": 0.22857120000003306,
            "durationTicks": 384,
            "midi": 86,
            "name": "D6",
            "ticks": 608160,
            "time": 361.999638,
            "velocity": 0.8267716535433071
          },
          {
            "duration": 0.9142848000000185,
            "durationTicks": 1536,
            "midi": 85,
            "name": "C#6",
            "ticks": 608640,
            "time": 362.28535200000005,
            "velocity": 0.984251968503937
          },
          {
            "duration": 0.11428560000001653,
            "durationTicks": 192,
            "midi": 86,
            "name": "D6",
            "ticks": 610320,
            "time": 363.28535100000005,
            "velocity": 0.8267716535433071
          },
          {
            "duration": 0.9142848000000185,
            "durationTicks": 1536,
            "midi": 85,
            "name": "C#6",
            "ticks": 610560,
            "time": 363.42820800000004,
            "velocity": 0.984251968503937
          },
          {
            "duration": 0.11428560000001653,
            "durationTicks": 192,
            "midi": 86,
            "name": "D6",
            "ticks": 612240,
            "time": 364.42820700000004,
            "velocity": 0.8267716535433071
          },
          {
            "duration": 0.9142848000000185,
            "durationTicks": 1536,
            "midi": 85,
            "name": "C#6",
            "ticks": 612480,
            "time": 364.57106400000004,
            "velocity": 0.984251968503937
          },
          {
            "duration": 0.11428560000001653,
            "durationTicks": 192,
            "midi": 86,
            "name": "D6",
            "ticks": 614160,
            "time": 365.57106300000004,
            "velocity": 0.8267716535433071
          },
          {
            "duration": 0.9142848000000185,
            "durationTicks": 1536,
            "midi": 85,
            "name": "C#6",
            "ticks": 614400,
            "time": 365.71392000000003,
            "velocity": 0.984251968503937
          },
          {
            "duration": 0.45714239999995243,
            "durationTicks": 768,
            "midi": 86,
            "name": "D6",
            "ticks": 616320,
            "time": 366.856776,
            "velocity": 0.8267716535433071
          },
          {
            "duration": 0.45714239999995243,
            "durationTicks": 768,
            "midi": 84,
            "name": "C6",
            "ticks": 617280,
            "time": 367.42820400000005,
            "velocity": 0.8267716535433071
          },
          {
            "duration": 0.4571424000000093,
            "durationTicks": 768,
            "midi": 82,
            "name": "A#5",
            "ticks": 618240,
            "time": 367.999632,
            "velocity": 0.8267716535433071
          },
          {
            "duration": 0.45714239999995243,
            "durationTicks": 768,
            "midi": 85,
            "name": "C#6",
            "ticks": 619200,
            "time": 368.57106000000005,
            "velocity": 0.8267716535433071
          },
          {
            "duration": 0.4571424000000093,
            "durationTicks": 768,
            "midi": 86,
            "name": "D6",
            "ticks": 620160,
            "time": 369.142488,
            "velocity": 0.8267716535433071
          },
          {
            "duration": 0.45714239999995243,
            "durationTicks": 768,
            "midi": 90,
            "name": "F#6",
            "ticks": 621120,
            "time": 369.71391600000004,
            "velocity": 0.8267716535433071
          },
          {
            "duration": 0.4571424000000093,
            "durationTicks": 768,
            "midi": 91,
            "name": "G6",
            "ticks": 622080,
            "time": 370.285344,
            "velocity": 0.8267716535433071
          },
          {
            "duration": 0.45714239999995243,
            "durationTicks": 768,
            "midi": 85,
            "name": "C#6",
            "ticks": 623040,
            "time": 370.85677200000003,
            "velocity": 0.8267716535433071
          },
          {
            "duration": 0.22857120000003306,
            "durationTicks": 384,
            "midi": 86,
            "name": "D6",
            "ticks": 624000,
            "time": 371.4282,
            "velocity": 0.8267716535433071
          },
          {
            "duration": 0.22857119999997622,
            "durationTicks": 384,
            "midi": 74,
            "name": "D5",
            "ticks": 624960,
            "time": 371.99962800000003,
            "velocity": 0.7244094488188977
          },
          {
            "duration": 0.8571420000000103,
            "durationTicks": 1440,
            "midi": 84,
            "name": "C6",
            "ticks": 629760,
            "time": 374.85676800000005,
            "velocity": 0.4566929133858268
          },
          {
            "duration": 0.0714284999999677,
            "durationTicks": 120,
            "midi": 86,
            "name": "D6",
            "ticks": 631200,
            "time": 375.71391000000006,
            "velocity": 0.4566929133858268
          },
          {
            "duration": 0.07142850000002454,
            "durationTicks": 120,
            "midi": 84,
            "name": "C6",
            "ticks": 631320,
            "time": 375.7853385,
            "velocity": 0.4566929133858268
          },
          {
            "duration": 0.0714284999999677,
            "durationTicks": 120,
            "midi": 82,
            "name": "A#5",
            "ticks": 631440,
            "time": 375.85676700000005,
            "velocity": 0.4566929133858268
          },
          {
            "duration": 0.07142850000002454,
            "durationTicks": 120,
            "midi": 81,
            "name": "A5",
            "ticks": 631560,
            "time": 375.9281955,
            "velocity": 0.4566929133858268
          },
          {
            "duration": 0.22857119999997622,
            "durationTicks": 384,
            "midi": 79,
            "name": "G5",
            "ticks": 631680,
            "time": 375.99962400000004,
            "velocity": 0.4566929133858268
          },
          {
            "duration": 0.14285699999999224,
            "durationTicks": 240,
            "midi": 79,
            "name": "G5",
            "ticks": 641280,
            "time": 381.713904,
            "velocity": 0.4566929133858268
          },
          {
            "duration": 0.14285700000004908,
            "durationTicks": 240,
            "midi": 78,
            "name": "F#5",
            "ticks": 641520,
            "time": 381.856761,
            "velocity": 0.4566929133858268
          },
          {
            "duration": 0.14285699999999224,
            "durationTicks": 240,
            "midi": 81,
            "name": "A5",
            "ticks": 641760,
            "time": 381.99961800000005,
            "velocity": 0.4566929133858268
          },
          {
            "duration": 0.14285699999999224,
            "durationTicks": 240,
            "midi": 79,
            "name": "G5",
            "ticks": 642000,
            "time": 382.14247500000005,
            "velocity": 0.4566929133858268
          },
          {
            "duration": 0.14285699999999224,
            "durationTicks": 240,
            "midi": 82,
            "name": "A#5",
            "ticks": 642240,
            "time": 382.28533200000004,
            "velocity": 0.4566929133858268
          },
          {
            "duration": 0.14285699999999224,
            "durationTicks": 240,
            "midi": 81,
            "name": "A5",
            "ticks": 642480,
            "time": 382.42818900000003,
            "velocity": 0.4566929133858268
          },
          {
            "duration": 0.14285699999999224,
            "durationTicks": 240,
            "midi": 84,
            "name": "C6",
            "ticks": 642720,
            "time": 382.571046,
            "velocity": 0.4566929133858268
          },
          {
            "duration": 0.11428560000001653,
            "durationTicks": 192,
            "midi": 82,
            "name": "A#5",
            "ticks": 642960,
            "time": 382.713903,
            "velocity": 0.4566929133858268
          },
          {
            "duration": 0.8571420000000103,
            "durationTicks": 1440,
            "midi": 86,
            "name": "D6",
            "ticks": 643200,
            "time": 382.85676,
            "velocity": 0.4566929133858268
          },
          {
            "duration": 0.2857140000000413,
            "durationTicks": 480,
            "midi": 85,
            "name": "C#6",
            "ticks": 644640,
            "time": 383.713902,
            "velocity": 0.4566929133858268
          },
          {
            "duration": 0.22857119999997622,
            "durationTicks": 384,
            "midi": 84,
            "name": "C6",
            "ticks": 645120,
            "time": 383.99961600000006,
            "velocity": 0.4566929133858268
          },
          {
            "duration": 0.17142839999996795,
            "durationTicks": 288,
            "midi": 79,
            "name": "G5",
            "ticks": 647520,
            "time": 385.42818600000004,
            "velocity": 0.4566929133858268
          },
          {
            "duration": 0.2857139999999845,
            "durationTicks": 480,
            "midi": 79,
            "name": "G5",
            "ticks": 648000,
            "time": 385.7139,
            "velocity": 0.4566929133858268
          },
          {
            "duration": 0.22857120000003306,
            "durationTicks": 384,
            "midi": 81,
            "name": "A5",
            "ticks": 648480,
            "time": 385.999614,
            "velocity": 0.4566929133858268
          },
          {
            "duration": 0.4285709999999767,
            "durationTicks": 720,
            "midi": 82,
            "name": "A#5",
            "ticks": 648960,
            "time": 386.28532800000005,
            "velocity": 0.4566929133858268
          },
          {
            "duration": 0.11428560000001653,
            "durationTicks": 192,
            "midi": 84,
            "name": "C6",
            "ticks": 649680,
            "time": 386.713899,
            "velocity": 0.4566929133858268
          },
          {
            "duration": 0.22857119999997622,
            "durationTicks": 384,
            "midi": 81,
            "name": "A5",
            "ticks": 649920,
            "time": 386.856756,
            "velocity": 0.4566929133858268
          },
          {
            "duration": 0.6857135999999855,
            "durationTicks": 1152,
            "midi": 87,
            "name": "D#6",
            "ticks": 650880,
            "time": 387.42818400000004,
            "velocity": 0.4566929133858268
          },
          {
            "duration": 0.22857119999997622,
            "durationTicks": 384,
            "midi": 86,
            "name": "D6",
            "ticks": 652320,
            "time": 388.28532600000005,
            "velocity": 0.4566929133858268
          },
          {
            "duration": 0.22857119999997622,
            "durationTicks": 384,
            "midi": 85,
            "name": "C#6",
            "ticks": 652800,
            "time": 388.57104000000004,
            "velocity": 0.4566929133858268
          },
          {
            "duration": 0.22857119999997622,
            "durationTicks": 384,
            "midi": 84,
            "name": "C6",
            "ticks": 653280,
            "time": 388.856754,
            "velocity": 0.4566929133858268
          },
          {
            "duration": 0.22857120000003306,
            "durationTicks": 384,
            "midi": 83,
            "name": "B5",
            "ticks": 653760,
            "time": 389.142468,
            "velocity": 0.4566929133858268
          },
          {
            "duration": 0.22857119999997622,
            "durationTicks": 384,
            "midi": 82,
            "name": "A#5",
            "ticks": 654240,
            "time": 389.42818200000005,
            "velocity": 0.4566929133858268
          },
          {
            "duration": 0.5714280000000258,
            "durationTicks": 960,
            "midi": 86,
            "name": "D6",
            "ticks": 655200,
            "time": 389.99961,
            "velocity": 0.4566929133858268
          },
          {
            "duration": 0.22857119999997622,
            "durationTicks": 384,
            "midi": 87,
            "name": "D#6",
            "ticks": 656160,
            "time": 390.57103800000004,
            "velocity": 0.4566929133858268
          },
          {
            "duration": 0.5714280000000258,
            "durationTicks": 960,
            "midi": 86,
            "name": "D6",
            "ticks": 657120,
            "time": 391.142466,
            "velocity": 0.4566929133858268
          },
          {
            "duration": 0.22857119999997622,
            "durationTicks": 384,
            "midi": 87,
            "name": "D#6",
            "ticks": 658080,
            "time": 391.71389400000004,
            "velocity": 0.4566929133858268
          },
          {
            "duration": 0.5714280000000258,
            "durationTicks": 960,
            "midi": 86,
            "name": "D6",
            "ticks": 659040,
            "time": 392.285322,
            "velocity": 0.4566929133858268
          },
          {
            "duration": 0.22857119999997622,
            "durationTicks": 384,
            "midi": 87,
            "name": "D#6",
            "ticks": 660000,
            "time": 392.85675000000003,
            "velocity": 0.4566929133858268
          },
          {
            "duration": 0.571427999999969,
            "durationTicks": 960,
            "midi": 86,
            "name": "D6",
            "ticks": 660960,
            "time": 393.42817800000006,
            "velocity": 0.4566929133858268
          },
          {
            "duration": 0.22857119999997622,
            "durationTicks": 384,
            "midi": 87,
            "name": "D#6",
            "ticks": 661920,
            "time": 393.999606,
            "velocity": 0.4566929133858268
          },
          {
            "duration": 2.0571408000000133,
            "durationTicks": 3456,
            "midi": 86,
            "name": "D6",
            "ticks": 662400,
            "time": 394.28532,
            "velocity": 0.5511811023622047
          },
          {
            "duration": 0.45714239999995243,
            "durationTicks": 768,
            "midi": 87,
            "name": "D#6",
            "ticks": 666240,
            "time": 396.57103200000006,
            "velocity": 0.8267716535433071
          },
          {
            "duration": 0.22857119999997622,
            "durationTicks": 384,
            "midi": 84,
            "name": "C6",
            "ticks": 667200,
            "time": 397.14246,
            "velocity": 0.8267716535433071
          },
          {
            "duration": 0.22857120000003306,
            "durationTicks": 384,
            "midi": 81,
            "name": "A5",
            "ticks": 667680,
            "time": 397.428174,
            "velocity": 0.8267716535433071
          },
          {
            "duration": 0.2857139999999845,
            "durationTicks": 480,
            "midi": 82,
            "name": "A#5",
            "ticks": 668160,
            "time": 397.71388800000005,
            "velocity": 0.8267716535433071
          },
          {
            "duration": 0.2857139999999845,
            "durationTicks": 480,
            "midi": 85,
            "name": "C#6",
            "ticks": 668640,
            "time": 397.99960200000004,
            "velocity": 0.8267716535433071
          },
          {
            "duration": 1.1428559999999948,
            "durationTicks": 1920,
            "midi": 89,
            "name": "F6",
            "ticks": 669120,
            "time": 398.285316,
            "velocity": 0.8267716535433071
          },
          {
            "duration": 0.2857140000000413,
            "durationTicks": 480,
            "midi": 86,
            "name": "D6",
            "ticks": 671040,
            "time": 399.428172,
            "velocity": 0.8267716535433071
          },
          {
            "duration": 0.22857119999997622,
            "durationTicks": 384,
            "midi": 83,
            "name": "B5",
            "ticks": 671520,
            "time": 399.71388600000006,
            "velocity": 0.8267716535433071
          },
          {
            "duration": 0.2857139999999845,
            "durationTicks": 480,
            "midi": 84,
            "name": "C6",
            "ticks": 672000,
            "time": 399.99960000000004,
            "velocity": 0.8267716535433071
          },
          {
            "duration": 0.2857139999999845,
            "durationTicks": 480,
            "midi": 87,
            "name": "D#6",
            "ticks": 672480,
            "time": 400.285314,
            "velocity": 0.8267716535433071
          },
          {
            "duration": 1.1428559999999948,
            "durationTicks": 1920,
            "midi": 91,
            "name": "G6",
            "ticks": 672960,
            "time": 400.571028,
            "velocity": 0.8267716535433071
          },
          {
            "duration": 0.2857140000000413,
            "durationTicks": 480,
            "midi": 88,
            "name": "E6",
            "ticks": 674880,
            "time": 401.713884,
            "velocity": 0.8267716535433071
          },
          {
            "duration": 0.22857119999997622,
            "durationTicks": 384,
            "midi": 85,
            "name": "C#6",
            "ticks": 675360,
            "time": 401.99959800000005,
            "velocity": 0.8267716535433071
          },
          {
            "duration": 0.9142848000000185,
            "durationTicks": 1536,
            "midi": 86,
            "name": "D6",
            "ticks": 675840,
            "time": 402.28531200000003,
            "velocity": 0.8267716535433071
          },
          {
            "duration": 0.07142850000002454,
            "durationTicks": 120,
            "midi": 82,
            "name": "A#5",
            "ticks": 677760,
            "time": 403.428168,
            "velocity": 0.8267716535433071
          },
          {
            "duration": 0.0714284999999677,
            "durationTicks": 120,
            "midi": 81,
            "name": "A5",
            "ticks": 677880,
            "time": 403.49959650000005,
            "velocity": 0.8267716535433071
          },
          {
            "duration": 0.07142850000002454,
            "durationTicks": 120,
            "midi": 82,
            "name": "A#5",
            "ticks": 678000,
            "time": 403.571025,
            "velocity": 0.8267716535433071
          },
          {
            "duration": 0.0714284999999677,
            "durationTicks": 120,
            "midi": 81,
            "name": "A5",
            "ticks": 678120,
            "time": 403.64245350000004,
            "velocity": 0.8267716535433071
          },
          {
            "duration": 0.07142850000002454,
            "durationTicks": 120,
            "midi": 82,
            "name": "A#5",
            "ticks": 678240,
            "time": 403.713882,
            "velocity": 0.8267716535433071
          },
          {
            "duration": 0.07142850000002454,
            "durationTicks": 120,
            "midi": 81,
            "name": "A5",
            "ticks": 678360,
            "time": 403.78531050000004,
            "velocity": 0.8267716535433071
          },
          {
            "duration": 0.0714284999999677,
            "durationTicks": 120,
            "midi": 82,
            "name": "A#5",
            "ticks": 678480,
            "time": 403.85673900000006,
            "velocity": 0.8267716535433071
          },
          {
            "duration": 0.07142850000002454,
            "durationTicks": 120,
            "midi": 81,
            "name": "A5",
            "ticks": 678600,
            "time": 403.92816750000003,
            "velocity": 0.8267716535433071
          },
          {
            "duration": 0.0714284999999677,
            "durationTicks": 120,
            "midi": 82,
            "name": "A#5",
            "ticks": 678720,
            "time": 403.99959600000005,
            "velocity": 0.8267716535433071
          },
          {
            "duration": 0.07142850000002454,
            "durationTicks": 120,
            "midi": 81,
            "name": "A5",
            "ticks": 678840,
            "time": 404.0710245,
            "velocity": 0.8267716535433071
          },
          {
            "duration": 0.0714284999999677,
            "durationTicks": 120,
            "midi": 82,
            "name": "A#5",
            "ticks": 678960,
            "time": 404.14245300000005,
            "velocity": 0.8267716535433071
          },
          {
            "duration": 0.07142850000002454,
            "durationTicks": 120,
            "midi": 81,
            "name": "A5",
            "ticks": 679080,
            "time": 404.2138815,
            "velocity": 0.8267716535433071
          },
          {
            "duration": 0.0714284999999677,
            "durationTicks": 120,
            "midi": 82,
            "name": "A#5",
            "ticks": 679200,
            "time": 404.28531000000004,
            "velocity": 0.8267716535433071
          },
          {
            "duration": 0.07142850000002454,
            "durationTicks": 120,
            "midi": 81,
            "name": "A5",
            "ticks": 679320,
            "time": 404.3567385,
            "velocity": 0.8267716535433071
          },
          {
            "duration": 0.07142850000002454,
            "durationTicks": 120,
            "midi": 79,
            "name": "G5",
            "ticks": 679440,
            "time": 404.42816700000003,
            "velocity": 0.8267716535433071
          },
          {
            "duration": 0.0714284999999677,
            "durationTicks": 120,
            "midi": 81,
            "name": "A5",
            "ticks": 679560,
            "time": 404.49959550000005,
            "velocity": 0.8267716535433071
          },
          {
            "duration": 0.22857119999997622,
            "durationTicks": 384,
            "midi": 79,
            "name": "G5",
            "ticks": 679680,
            "time": 404.571024,
            "velocity": 0.7244094488188977
          },
          {
            "duration": 0.22857120000003306,
            "durationTicks": 384,
            "midi": 81,
            "name": "A5",
            "ticks": 685440,
            "time": 407.999592,
            "velocity": 0.8267716535433071
          },
          {
            "duration": 0.22857119999997622,
            "durationTicks": 384,
            "midi": 82,
            "name": "A#5",
            "ticks": 686400,
            "time": 408.57102000000003,
            "velocity": 0.8267716535433071
          },
          {
            "duration": 0.6571421999999529,
            "durationTicks": 1104,
            "midi": 87,
            "name": "D#6",
            "ticks": 687360,
            "time": 409.14244800000006,
            "velocity": 0.8267716535433071
          },
          {
            "duration": 0.08571419999998398,
            "durationTicks": 144,
            "midi": 86,
            "name": "D6",
            "ticks": 688560,
            "time": 409.856733,
            "velocity": 0.5511811023622047
          },
          {
            "duration": 0.08571419999998398,
            "durationTicks": 144,
            "midi": 84,
            "name": "C6",
            "ticks": 688800,
            "time": 409.99959,
            "velocity": 0.5511811023622047
          },
          {
            "duration": 0.08571419999998398,
            "durationTicks": 144,
            "midi": 82,
            "name": "A#5",
            "ticks": 689040,
            "time": 410.14244700000006,
            "velocity": 0.5511811023622047
          },
          {
            "duration": 0.08571419999998398,
            "durationTicks": 144,
            "midi": 81,
            "name": "A5",
            "ticks": 689280,
            "time": 410.28530400000005,
            "velocity": 0.5511811023622047
          },
          {
            "duration": 0.08571419999998398,
            "durationTicks": 144,
            "midi": 79,
            "name": "G5",
            "ticks": 689520,
            "time": 410.42816100000005,
            "velocity": 0.5511811023622047
          },
          {
            "duration": 0.08571419999998398,
            "durationTicks": 144,
            "midi": 78,
            "name": "F#5",
            "ticks": 689760,
            "time": 410.57101800000004,
            "velocity": 0.5511811023622047
          },
          {
            "duration": 0.08571419999998398,
            "durationTicks": 144,
            "midi": 75,
            "name": "D#5",
            "ticks": 690000,
            "time": 410.71387500000003,
            "velocity": 0.5511811023622047
          },
          {
            "duration": 0.08571419999998398,
            "durationTicks": 144,
            "midi": 74,
            "name": "D5",
            "ticks": 690240,
            "time": 410.856732,
            "velocity": 0.5511811023622047
          },
          {
            "duration": 0.08571419999998398,
            "durationTicks": 144,
            "midi": 72,
            "name": "C5",
            "ticks": 690480,
            "time": 410.999589,
            "velocity": 0.5511811023622047
          },
          {
            "duration": 0.08571420000004082,
            "durationTicks": 144,
            "midi": 70,
            "name": "A#4",
            "ticks": 690720,
            "time": 411.142446,
            "velocity": 0.5511811023622047
          },
          {
            "duration": 0.08571419999998398,
            "durationTicks": 144,
            "midi": 69,
            "name": "A4",
            "ticks": 690960,
            "time": 411.28530300000006,
            "velocity": 0.5511811023622047
          },
          {
            "duration": 0.22857119999997622,
            "durationTicks": 384,
            "midi": 67,
            "name": "G4",
            "ticks": 691200,
            "time": 411.42816000000005,
            "velocity": 0.4566929133858268
          },
          {
            "duration": 0.14285699999999224,
            "durationTicks": 240,
            "midi": 87,
            "name": "D#6",
            "ticks": 696480,
            "time": 414.57101400000005,
            "velocity": 0.5511811023622047
          },
          {
            "duration": 0.11428560000001653,
            "durationTicks": 192,
            "midi": 86,
            "name": "D6",
            "ticks": 696720,
            "time": 414.71387100000004,
            "velocity": 0.5511811023622047
          },
          {
            "duration": 0.22857119999997622,
            "durationTicks": 384,
            "midi": 86,
            "name": "D6",
            "ticks": 696960,
            "time": 414.85672800000003,
            "velocity": 0.5511811023622047
          },
          {
            "duration": 0.14285699999999224,
            "durationTicks": 240,
            "midi": 87,
            "name": "D#6",
            "ticks": 697440,
            "time": 415.142442,
            "velocity": 0.5511811023622047
          },
          {
            "duration": 0.11428560000007337,
            "durationTicks": 192,
            "midi": 86,
            "name": "D6",
            "ticks": 697680,
            "time": 415.285299,
            "velocity": 0.5511811023622047
          },
          {
            "duration": 0.22857119999997622,
            "durationTicks": 384,
            "midi": 86,
            "name": "D6",
            "ticks": 697920,
            "time": 415.42815600000006,
            "velocity": 0.5511811023622047
          },
          {
            "duration": 0.9142848000000185,
            "durationTicks": 1536,
            "midi": 89,
            "name": "F6",
            "ticks": 700800,
            "time": 417.14244,
            "velocity": 0.8267716535433071
          },
          {
            "duration": 0.9142848000000185,
            "durationTicks": 1536,
            "midi": 87,
            "name": "D#6",
            "ticks": 702720,
            "time": 418.285296,
            "velocity": 0.8267716535433071
          },
          {
            "duration": 0.4571424000000093,
            "durationTicks": 768,
            "midi": 86,
            "name": "D6",
            "ticks": 704640,
            "time": 419.428152,
            "velocity": 0.8267716535433071
          },
          {
            "duration": 0.45714239999995243,
            "durationTicks": 768,
            "midi": 81,
            "name": "A5",
            "ticks": 705600,
            "time": 419.99958000000004,
            "velocity": 0.8267716535433071
          },
          {
            "duration": 0.22857120000003306,
            "durationTicks": 384,
            "midi": 79,
            "name": "G5",
            "ticks": 706560,
            "time": 420.571008,
            "velocity": 0.7244094488188977
          },
          {
            "duration": 0.14285699999999224,
            "durationTicks": 240,
            "midi": 87,
            "name": "D#6",
            "ticks": 713760,
            "time": 424.85671800000006,
            "velocity": 0.7244094488188977
          },
          {
            "duration": 0.11428560000001653,
            "durationTicks": 192,
            "midi": 86,
            "name": "D6",
            "ticks": 714000,
            "time": 424.99957500000005,
            "velocity": 0.5511811023622047
          },
          {
            "duration": 0.22857119999997622,
            "durationTicks": 384,
            "midi": 86,
            "name": "D6",
            "ticks": 714240,
            "time": 425.14243200000004,
            "velocity": 0.5511811023622047
          },
          {
            "duration": 0.14285699999999224,
            "durationTicks": 240,
            "midi": 87,
            "name": "D#6",
            "ticks": 714720,
            "time": 425.428146,
            "velocity": 0.5511811023622047
          },
          {
            "duration": 0.11428560000001653,
            "durationTicks": 192,
            "midi": 86,
            "name": "D6",
            "ticks": 714960,
            "time": 425.571003,
            "velocity": 0.5511811023622047
          },
          {
            "duration": 0.22857120000003306,
            "durationTicks": 384,
            "midi": 86,
            "name": "D6",
            "ticks": 715200,
            "time": 425.71386,
            "velocity": 0.5511811023622047
          },
          {
            "duration": 0.9142848000000185,
            "durationTicks": 1536,
            "midi": 89,
            "name": "F6",
            "ticks": 716160,
            "time": 426.28528800000004,
            "velocity": 0.8267716535433071
          },
          {
            "duration": 0.9142848000000185,
            "durationTicks": 1536,
            "midi": 87,
            "name": "D#6",
            "ticks": 718080,
            "time": 427.42814400000003,
            "velocity": 0.8267716535433071
          },
          {
            "duration": 0.5714280000000258,
            "durationTicks": 960,
            "midi": 86,
            "name": "D6",
            "ticks": 720000,
            "time": 428.571,
            "velocity": 0.8267716535433071
          },
          {
            "duration": 0.45714239999995243,
            "durationTicks": 768,
            "midi": 81,
            "name": "A5",
            "ticks": 720960,
            "time": 429.14242800000005,
            "velocity": 0.8267716535433071
          },
          {
            "duration": 0.4571424000000093,
            "durationTicks": 768,
            "midi": 79,
            "name": "G5",
            "ticks": 721920,
            "time": 429.713856,
            "velocity": 0.8267716535433071
          },
          {
            "duration": 0.11428560000001653,
            "durationTicks": 192,
            "midi": 86,
            "name": "D6",
            "ticks": 723600,
            "time": 430.713855,
            "velocity": 0.8267716535433071
          },
          {
            "duration": 0.11428560000007337,
            "durationTicks": 192,
            "midi": 84,
            "name": "C6",
            "ticks": 723840,
            "time": 430.856712,
            "velocity": 0.8267716535433071
          },
          {
            "duration": 0.11428560000007337,
            "durationTicks": 192,
            "midi": 82,
            "name": "A#5",
            "ticks": 724080,
            "time": 430.999569,
            "velocity": 0.8267716535433071
          },
          {
            "duration": 0.11428560000001653,
            "durationTicks": 192,
            "midi": 81,
            "name": "A5",
            "ticks": 724320,
            "time": 431.14242600000006,
            "velocity": 0.8267716535433071
          },
          {
            "duration": 0.11428560000001653,
            "durationTicks": 192,
            "midi": 79,
            "name": "G5",
            "ticks": 724560,
            "time": 431.28528300000005,
            "velocity": 0.8267716535433071
          },
          {
            "duration": 0.11428560000001653,
            "durationTicks": 192,
            "midi": 78,
            "name": "F#5",
            "ticks": 724800,
            "time": 431.42814000000004,
            "velocity": 0.8267716535433071
          },
          {
            "duration": 0.11428560000001653,
            "durationTicks": 192,
            "midi": 75,
            "name": "D#5",
            "ticks": 725040,
            "time": 431.57099700000003,
            "velocity": 0.8267716535433071
          },
          {
            "duration": 0.11428560000001653,
            "durationTicks": 192,
            "midi": 74,
            "name": "D5",
            "ticks": 725280,
            "time": 431.713854,
            "velocity": 0.8267716535433071
          },
          {
            "duration": 0.11428560000001653,
            "durationTicks": 192,
            "midi": 72,
            "name": "C5",
            "ticks": 725520,
            "time": 431.856711,
            "velocity": 0.8267716535433071
          },
          {
            "duration": 0.18571410000004107,
            "durationTicks": 312,
            "midi": 70,
            "name": "A#4",
            "ticks": 725760,
            "time": 431.999568,
            "velocity": 0.8267716535433071
          },
          {
            "duration": 0.18571409999998423,
            "durationTicks": 312,
            "midi": 86,
            "name": "D6",
            "ticks": 726240,
            "time": 432.28528200000005,
            "velocity": 0.8267716535433071
          },
          {
            "duration": 0.18571410000004107,
            "durationTicks": 312,
            "midi": 87,
            "name": "D#6",
            "ticks": 726720,
            "time": 432.57099600000004,
            "velocity": 0.8267716535433071
          },
          {
            "duration": 0.18571410000004107,
            "durationTicks": 312,
            "midi": 78,
            "name": "F#5",
            "ticks": 727200,
            "time": 432.85671,
            "velocity": 0.8267716535433071
          },
          {
            "duration": 0.22857119999997622,
            "durationTicks": 384,
            "midi": 79,
            "name": "G5",
            "ticks": 727680,
            "time": 433.14242400000006,
            "velocity": 0.8267716535433071
          },
          {
            "duration": 0.11428560000001653,
            "durationTicks": 192,
            "midi": 91,
            "name": "G6",
            "ticks": 730320,
            "time": 434.71385100000003,
            "velocity": 0.8267716535433071
          },
          {
            "duration": 0.11428560000001653,
            "durationTicks": 192,
            "midi": 90,
            "name": "F#6",
            "ticks": 730560,
            "time": 434.856708,
            "velocity": 0.8267716535433071
          },
          {
            "duration": 0.11428560000001653,
            "durationTicks": 192,
            "midi": 87,
            "name": "D#6",
            "ticks": 730800,
            "time": 434.999565,
            "velocity": 0.8267716535433071
          },
          {
            "duration": 0.11428560000007337,
            "durationTicks": 192,
            "midi": 86,
            "name": "D6",
            "ticks": 731040,
            "time": 435.142422,
            "velocity": 0.8267716535433071
          },
          {
            "duration": 0.11428560000001653,
            "durationTicks": 192,
            "midi": 84,
            "name": "C6",
            "ticks": 731280,
            "time": 435.28527900000006,
            "velocity": 0.8267716535433071
          },
          {
            "duration": 0.22857119999997622,
            "durationTicks": 384,
            "midi": 82,
            "name": "A#5",
            "ticks": 731520,
            "time": 435.42813600000005,
            "velocity": 0.8267716535433071
          },
          {
            "duration": 0.4632191999999691,
            "durationTicks": 768,
            "midi": 79,
            "name": "G5",
            "ticks": 732000,
            "time": 435.71385000000004,
            "velocity": 0.8267716535433071
          },
          {
            "duration": 0.5317420000000084,
            "durationTicks": 864,
            "midi": 80,
            "name": "G#5",
            "ticks": 732960,
            "time": 436.29357400000004,
            "velocity": 0.8267716535433071
          },
          {
            "duration": 0.47941179999997985,
            "durationTicks": 768,
            "midi": 81,
            "name": "A5",
            "ticks": 733920,
            "time": 436.88472200000007,
            "velocity": 0.8267716535433071
          },
          {
            "duration": 0.5507226000000287,
            "durationTicks": 864,
            "midi": 82,
            "name": "A#5",
            "ticks": 734880,
            "time": 437.48473700000005,
            "velocity": 0.8267716535433071
          },
          {
            "duration": 0.49936259999998356,
            "durationTicks": 768,
            "midi": 83,
            "name": "B5",
            "ticks": 735840,
            "time": 438.09699800000004,
            "velocity": 0.8267716535433071
          },
          {
            "duration": 0.5741447999999991,
            "durationTicks": 864,
            "midi": 84,
            "name": "C6",
            "ticks": 736800,
            "time": 438.72201500000006,
            "velocity": 0.8267716535433071
          },
          {
            "duration": 0.5182331999999974,
            "durationTicks": 768,
            "midi": 85,
            "name": "C#6",
            "ticks": 737760,
            "time": 439.36033100000003,
            "velocity": 0.8267716535433071
          },
          {
            "duration": 0.06593399999997018,
            "durationTicks": 96,
            "midi": 86,
            "name": "D6",
            "ticks": 739080,
            "time": 440.2562515,
            "velocity": 0.5511811023622047
          },
          {
            "duration": 1.1399999999999864,
            "durationTicks": 1824,
            "midi": 86,
            "name": "D6",
            "ticks": 739200,
            "time": 440.33866900000004,
            "velocity": 0.4566929133858268
          },
          {
            "duration": 1.1399999999999864,
            "durationTicks": 1824,
            "midi": 78,
            "name": "F#5",
            "ticks": 741120,
            "time": 441.538669,
            "velocity": 0.4566929133858268
          },
          {
            "duration": 0.2400000000000091,
            "durationTicks": 384,
            "midi": 79,
            "name": "G5",
            "ticks": 743040,
            "time": 442.738669,
            "velocity": 0.4566929133858268
          },
          {
            "duration": 0.14999999999997726,
            "durationTicks": 240,
            "midi": 87,
            "name": "D#6",
            "ticks": 752160,
            "time": 448.43866900000006,
            "velocity": 0.5511811023622047
          },
          {
            "duration": 0.12000000000000455,
            "durationTicks": 192,
            "midi": 86,
            "name": "D6",
            "ticks": 752400,
            "time": 448.58866900000004,
            "velocity": 0.5511811023622047
          },
          {
            "duration": 0.2400000000000091,
            "durationTicks": 384,
            "midi": 86,
            "name": "D6",
            "ticks": 752640,
            "time": 448.738669,
            "velocity": 0.5511811023622047
          },
          {
            "duration": 0.1500000000000341,
            "durationTicks": 240,
            "midi": 87,
            "name": "D#6",
            "ticks": 753120,
            "time": 449.038669,
            "velocity": 0.5511811023622047
          },
          {
            "duration": 0.1199999999999477,
            "durationTicks": 192,
            "midi": 86,
            "name": "D6",
            "ticks": 753360,
            "time": 449.18866900000006,
            "velocity": 0.5511811023622047
          },
          {
            "duration": 0.2400000000000091,
            "durationTicks": 384,
            "midi": 86,
            "name": "D6",
            "ticks": 753600,
            "time": 449.33866900000004,
            "velocity": 0.5511811023622047
          },
          {
            "duration": 0.14999999999997726,
            "durationTicks": 240,
            "midi": 87,
            "name": "D#6",
            "ticks": 754080,
            "time": 449.63866900000005,
            "velocity": 0.5511811023622047
          },
          {
            "duration": 0.12000000000000455,
            "durationTicks": 192,
            "midi": 86,
            "name": "D6",
            "ticks": 754320,
            "time": 449.788669,
            "velocity": 0.5511811023622047
          },
          {
            "duration": 0.1999998000000005,
            "durationTicks": 336,
            "midi": 86,
            "name": "D6",
            "ticks": 754560,
            "time": 449.93866900000006,
            "velocity": 0.8267716535433071
          },
          {
            "duration": 0.09999990000000025,
            "durationTicks": 168,
            "midi": 86,
            "name": "D6",
            "ticks": 755040,
            "time": 450.22438300000005,
            "velocity": 0.8267716535433071
          },
          {
            "duration": 0.09999990000000025,
            "durationTicks": 168,
            "midi": 86,
            "name": "D6",
            "ticks": 755280,
            "time": 450.36724000000004,
            "velocity": 0.8267716535433071
          },
          {
            "duration": 0.1999998000000005,
            "durationTicks": 336,
            "midi": 86,
            "name": "D6",
            "ticks": 755520,
            "time": 450.5100970000001,
            "velocity": 0.8267716535433071
          },
          {
            "duration": 0.09999990000000025,
            "durationTicks": 168,
            "midi": 86,
            "name": "D6",
            "ticks": 756000,
            "time": 450.79581100000007,
            "velocity": 0.8267716535433071
          },
          {
            "duration": 0.09999990000000025,
            "durationTicks": 168,
            "midi": 86,
            "name": "D6",
            "ticks": 756240,
            "time": 450.93866800000006,
            "velocity": 0.8267716535433071
          },
          {
            "duration": 0.1999998000000005,
            "durationTicks": 336,
            "midi": 86,
            "name": "D6",
            "ticks": 756480,
            "time": 451.08152500000006,
            "velocity": 0.8267716535433071
          },
          {
            "duration": 0.09999990000000025,
            "durationTicks": 168,
            "midi": 86,
            "name": "D6",
            "ticks": 756960,
            "time": 451.36723900000004,
            "velocity": 0.8267716535433071
          },
          {
            "duration": 0.09999989999994341,
            "durationTicks": 168,
            "midi": 86,
            "name": "D6",
            "ticks": 757200,
            "time": 451.5100960000001,
            "velocity": 0.8267716535433071
          },
          {
            "duration": 0.1999998000000005,
            "durationTicks": 336,
            "midi": 86,
            "name": "D6",
            "ticks": 757440,
            "time": 451.6529530000001,
            "velocity": 0.8267716535433071
          },
          {
            "duration": 0.09999990000000025,
            "durationTicks": 168,
            "midi": 86,
            "name": "D6",
            "ticks": 757920,
            "time": 451.93866700000007,
            "velocity": 0.8267716535433071
          },
          {
            "duration": 0.09999990000000025,
            "durationTicks": 168,
            "midi": 86,
            "name": "D6",
            "ticks": 758160,
            "time": 452.08152400000006,
            "velocity": 0.8267716535433071
          },
          {
            "duration": 0.1999998000000005,
            "durationTicks": 336,
            "midi": 86,
            "name": "D6",
            "ticks": 758400,
            "time": 452.22438100000005,
            "velocity": 0.8267716535433071
          },
          {
            "duration": 0.09999990000000025,
            "durationTicks": 168,
            "midi": 86,
            "name": "D6",
            "ticks": 758880,
            "time": 452.51009500000004,
            "velocity": 0.8267716535433071
          },
          {
            "duration": 0.09999990000000025,
            "durationTicks": 168,
            "midi": 86,
            "name": "D6",
            "ticks": 759120,
            "time": 452.6529520000001,
            "velocity": 0.8267716535433071
          },
          {
            "duration": 0.1999998000000005,
            "durationTicks": 336,
            "midi": 86,
            "name": "D6",
            "ticks": 759360,
            "time": 452.7958090000001,
            "velocity": 0.8267716535433071
          },
          {
            "duration": 0.09999990000000025,
            "durationTicks": 168,
            "midi": 86,
            "name": "D6",
            "ticks": 759840,
            "time": 453.08152300000006,
            "velocity": 0.8267716535433071
          },
          {
            "duration": 0.09999990000000025,
            "durationTicks": 168,
            "midi": 86,
            "name": "D6",
            "ticks": 760080,
            "time": 453.22438000000005,
            "velocity": 0.8267716535433071
          },
          {
            "duration": 0.1999998000000005,
            "durationTicks": 336,
            "midi": 86,
            "name": "D6",
            "ticks": 760320,
            "time": 453.36723700000005,
            "velocity": 0.8267716535433071
          },
          {
            "duration": 0.1999998000000005,
            "durationTicks": 336,
            "midi": 90,
            "name": "F#6",
            "ticks": 760800,
            "time": 453.6529510000001,
            "velocity": 0.8267716535433071
          },
          {
            "duration": 0.1999998000000005,
            "durationTicks": 336,
            "midi": 91,
            "name": "G6",
            "ticks": 761280,
            "time": 453.93866500000007,
            "velocity": 0.8267716535433071
          },
          {
            "duration": 0.1999998000000005,
            "durationTicks": 336,
            "midi": 90,
            "name": "F#6",
            "ticks": 761760,
            "time": 454.22437900000006,
            "velocity": 0.8267716535433071
          },
          {
            "duration": 0.25263119999999617,
            "durationTicks": 384,
            "midi": 91,
            "name": "G6",
            "ticks": 762240,
            "time": 454.51009300000004,
            "velocity": 0.8267716535433071
          },
          {
            "duration": 0.2666664000000196,
            "durationTicks": 384,
            "midi": 91,
            "name": "G6",
            "ticks": 764160,
            "time": 455.773249,
            "velocity": 0.8267716535433071
          },
          {
            "duration": 0.29090880000001107,
            "durationTicks": 384,
            "midi": 91,
            "name": "G6",
            "ticks": 765120,
            "time": 456.455419,
            "velocity": 0.8267716535433071
          },
          {
            "duration": 0.75,
            "durationTicks": 960,
            "midi": 91,
            "name": "G6",
            "ticks": 766080,
            "time": 457.201221,
            "velocity": 0.8267716535433071
          }
        ]
      },
      {
        "channel": 0,
        "controlChanges": {},
        "pitchBends": [],
        "instrument": {
          "family": "piano",
          "number": 0,
          "name": "acoustic grand piano"
        },
        "name": "k550_1",
        "notes": [],
        "endOfTrackTicks": 768000
      },
      {
        "channel": 1,
        "controlChanges": {
          "7": [
            {
              "number": 7,
              "ticks": 0,
              "time": 0,
              "value": 0.7244094488188977
            }
          ],
          "10": [
            {
              "number": 10,
              "ticks": 0,
              "time": 0,
              "value": 0.5039370078740157
            }
          ],
          "91": [
            {
              "number": 91,
              "ticks": 0,
              "time": 0,
              "value": 0.5511811023622047
            }
          ]
        },
        "pitchBends": [],
        "instrument": {
          "family": "reed",
          "number": 68,
          "name": "oboe"
        },
        "name": "",
        "notes": [
          {
            "duration": 0.28571400000000224,
            "durationTicks": 480,
            "midi": 66,
            "name": "F#4",
            "ticks": 27360,
            "time": 16.285698,
            "velocity": 0.5511811023622047
          },
          {
            "duration": 0.2857139999999987,
            "durationTicks": 480,
            "midi": 67,
            "name": "G4",
            "ticks": 27840,
            "time": 16.571412000000002,
            "velocity": 0.5511811023622047
          },
          {
            "duration": 0.2857139999999987,
            "durationTicks": 480,
            "midi": 69,
            "name": "A4",
            "ticks": 28320,
            "time": 16.857126,
            "velocity": 0.5511811023622047
          },
          {
            "duration": 0.28571400000000224,
            "durationTicks": 480,
            "midi": 70,
            "name": "A#4",
            "ticks": 28800,
            "time": 17.14284,
            "velocity": 0.5511811023622047
          },
          {
            "duration": 0.14285699999999935,
            "durationTicks": 240,
            "midi": 72,
            "name": "C5",
            "ticks": 29280,
            "time": 17.428554000000002,
            "velocity": 0.5511811023622047
          },
          {
            "duration": 0.14285699999999935,
            "durationTicks": 240,
            "midi": 70,
            "name": "A#4",
            "ticks": 29520,
            "time": 17.571411,
            "velocity": 0.5511811023622047
          },
          {
            "duration": 0.28571400000000224,
            "durationTicks": 480,
            "midi": 69,
            "name": "A4",
            "ticks": 29760,
            "time": 17.714268,
            "velocity": 0.5511811023622047
          },
          {
            "duration": 0.2714283000000002,
            "durationTicks": 456,
            "midi": 67,
            "name": "G4",
            "ticks": 30240,
            "time": 17.999982000000003,
            "velocity": 0.5511811023622047
          },
          {
            "duration": 0.22857119999999753,
            "durationTicks": 384,
            "midi": 66,
            "name": "F#4",
            "ticks": 30720,
            "time": 18.285696,
            "velocity": 0.5511811023622047
          },
          {
            "duration": 0.5714280000000009,
            "durationTicks": 960,
            "midi": 79,
            "name": "G5",
            "ticks": 31680,
            "time": 18.857124000000002,
            "velocity": 0.8267716535433071
          },
          {
            "duration": 0.5714280000000009,
            "durationTicks": 960,
            "midi": 82,
            "name": "A#5",
            "ticks": 31680,
            "time": 18.857124000000002,
            "velocity": 0.8267716535433071
          },
          {
            "duration": 0.22857119999999753,
            "durationTicks": 384,
            "midi": 78,
            "name": "F#5",
            "ticks": 32640,
            "time": 19.428552000000003,
            "velocity": 0.8267716535433071
          },
          {
            "duration": 0.22857119999999753,
            "durationTicks": 384,
            "midi": 81,
            "name": "A5",
            "ticks": 32640,
            "time": 19.428552000000003,
            "velocity": 0.8267716535433071
          },
          {
            "duration": 0.5714280000000009,
            "durationTicks": 960,
            "midi": 79,
            "name": "G5",
            "ticks": 33600,
            "time": 19.99998,
            "velocity": 0.8267716535433071
          },
          {
            "duration": 0.5714280000000009,
            "durationTicks": 960,
            "midi": 82,
            "name": "A#5",
            "ticks": 33600,
            "time": 19.99998,
            "velocity": 0.8267716535433071
          },
          {
            "duration": 0.22857119999999753,
            "durationTicks": 384,
            "midi": 78,
            "name": "F#5",
            "ticks": 34560,
            "time": 20.571408,
            "velocity": 0.8267716535433071
          },
          {
            "duration": 0.22857119999999753,
            "durationTicks": 384,
            "midi": 81,
            "name": "A5",
            "ticks": 34560,
            "time": 20.571408,
            "velocity": 0.8267716535433071
          },
          {
            "duration": 0.5714279999999974,
            "durationTicks": 960,
            "midi": 79,
            "name": "G5",
            "ticks": 35520,
            "time": 21.142836000000003,
            "velocity": 0.8267716535433071
          },
          {
            "duration": 0.5714279999999974,
            "durationTicks": 960,
            "midi": 82,
            "name": "A#5",
            "ticks": 35520,
            "time": 21.142836000000003,
            "velocity": 0.8267716535433071
          },
          {
            "duration": 0.17142839999999993,
            "durationTicks": 288,
            "midi": 78,
            "name": "F#5",
            "ticks": 36480,
            "time": 21.714264,
            "velocity": 0.8267716535433071
          },
          {
            "duration": 0.17142839999999993,
            "durationTicks": 288,
            "midi": 81,
            "name": "A5",
            "ticks": 36480,
            "time": 21.714264,
            "velocity": 0.8267716535433071
          },
          {
            "duration": 0.17142839999999637,
            "durationTicks": 288,
            "midi": 79,
            "name": "G5",
            "ticks": 36960,
            "time": 21.999978000000002,
            "velocity": 0.8267716535433071
          },
          {
            "duration": 0.17142839999999637,
            "durationTicks": 288,
            "midi": 82,
            "name": "A#5",
            "ticks": 36960,
            "time": 21.999978000000002,
            "velocity": 0.8267716535433071
          },
          {
            "duration": 0.17142839999999993,
            "durationTicks": 288,
            "midi": 78,
            "name": "F#5",
            "ticks": 37440,
            "time": 22.285692,
            "velocity": 0.8267716535433071
          },
          {
            "duration": 0.17142839999999993,
            "durationTicks": 288,
            "midi": 81,
            "name": "A5",
            "ticks": 37440,
            "time": 22.285692,
            "velocity": 0.8267716535433071
          },
          {
            "duration": 0.17142839999999637,
            "durationTicks": 288,
            "midi": 79,
            "name": "G5",
            "ticks": 37920,
            "time": 22.571406000000003,
            "velocity": 0.8267716535433071
          },
          {
            "duration": 0.17142839999999637,
            "durationTicks": 288,
            "midi": 82,
            "name": "A#5",
            "ticks": 37920,
            "time": 22.571406000000003,
            "velocity": 0.8267716535433071
          },
          {
            "duration": 0.4571423999999986,
            "durationTicks": 768,
            "midi": 78,
            "name": "F#5",
            "ticks": 38400,
            "time": 22.857120000000002,
            "velocity": 0.8267716535433071
          },
          {
            "duration": 0.4571423999999986,
            "durationTicks": 768,
            "midi": 81,
            "name": "A5",
            "ticks": 38400,
            "time": 22.857120000000002,
            "velocity": 0.8267716535433071
          },
          {
            "duration": 2.228569199999999,
            "durationTicks": 3744,
            "midi": 74,
            "name": "D5",
            "ticks": 42240,
            "time": 25.142832000000002,
            "velocity": 0.5511811023622047
          },
          {
            "duration": 4.514281199999999,
            "durationTicks": 7584,
            "midi": 82,
            "name": "A#5",
            "ticks": 42240,
            "time": 25.142832000000002,
            "velocity": 0.5511811023622047
          },
          {
            "duration": 4.514281199999999,
            "durationTicks": 7584,
            "midi": 72,
            "name": "C5",
            "ticks": 46080,
            "time": 27.428544000000002,
            "velocity": 0.5511811023622047
          },
          {
            "duration": 2.228569199999999,
            "durationTicks": 3744,
            "midi": 81,
            "name": "A5",
            "ticks": 49920,
            "time": 29.714256000000002,
            "velocity": 0.5511811023622047
          },
          {
            "duration": 0.9142848000000043,
            "durationTicks": 1536,
            "midi": 74,
            "name": "D5",
            "ticks": 53760,
            "time": 31.999968000000003,
            "velocity": 0.8267716535433071
          },
          {
            "duration": 0.9142848000000043,
            "durationTicks": 1536,
            "midi": 82,
            "name": "A#5",
            "ticks": 53760,
            "time": 31.999968000000003,
            "velocity": 0.8267716535433071
          },
          {
            "duration": 0.9142847999999972,
            "durationTicks": 1536,
            "midi": 77,
            "name": "F5",
            "ticks": 55680,
            "time": 33.142824000000005,
            "velocity": 0.8267716535433071
          },
          {
            "duration": 0.9142848000000043,
            "durationTicks": 1536,
            "midi": 75,
            "name": "D#5",
            "ticks": 57600,
            "time": 34.28568,
            "velocity": 0.8267716535433071
          },
          {
            "duration": 0.9142848000000043,
            "durationTicks": 1536,
            "midi": 74,
            "name": "D5",
            "ticks": 59520,
            "time": 35.428536,
            "velocity": 0.8267716535433071
          },
          {
            "duration": 0.9142847999999972,
            "durationTicks": 1536,
            "midi": 72,
            "name": "C5",
            "ticks": 61440,
            "time": 36.571392,
            "velocity": 0.8267716535433071
          },
          {
            "duration": 0.9142847999999972,
            "durationTicks": 1536,
            "midi": 70,
            "name": "A#4",
            "ticks": 63360,
            "time": 37.714248000000005,
            "velocity": 0.8267716535433071
          },
          {
            "duration": 0.9142847999999901,
            "durationTicks": 1536,
            "midi": 79,
            "name": "G5",
            "ticks": 65280,
            "time": 38.85710400000001,
            "velocity": 0.7244094488188977
          },
          {
            "duration": 0.9142847999999901,
            "durationTicks": 1536,
            "midi": 82,
            "name": "A#5",
            "ticks": 65280,
            "time": 38.85710400000001,
            "velocity": 0.8818897637795275
          },
          {
            "duration": 0.9142847999999972,
            "durationTicks": 1536,
            "midi": 79,
            "name": "G5",
            "ticks": 67200,
            "time": 39.99996,
            "velocity": 0.7244094488188977
          },
          {
            "duration": 0.9142847999999972,
            "durationTicks": 1536,
            "midi": 82,
            "name": "A#5",
            "ticks": 67200,
            "time": 39.99996,
            "velocity": 0.8818897637795275
          },
          {
            "duration": 0.9142847999999972,
            "durationTicks": 1536,
            "midi": 79,
            "name": "G5",
            "ticks": 69120,
            "time": 41.142816,
            "velocity": 0.7244094488188977
          },
          {
            "duration": 0.9142847999999972,
            "durationTicks": 1536,
            "midi": 82,
            "name": "A#5",
            "ticks": 69120,
            "time": 41.142816,
            "velocity": 0.8818897637795275
          },
          {
            "duration": 0.9142847999999972,
            "durationTicks": 1536,
            "midi": 79,
            "name": "G5",
            "ticks": 71040,
            "time": 42.285672000000005,
            "velocity": 0.7244094488188977
          },
          {
            "duration": 0.9142847999999972,
            "durationTicks": 1536,
            "midi": 82,
            "name": "A#5",
            "ticks": 71040,
            "time": 42.285672000000005,
            "velocity": 0.8818897637795275
          },
          {
            "duration": 1.599998400000004,
            "durationTicks": 2688,
            "midi": 77,
            "name": "F5",
            "ticks": 72960,
            "time": 43.428528,
            "velocity": 0.7244094488188977
          },
          {
            "duration": 0.9142847999999972,
            "durationTicks": 1536,
            "midi": 81,
            "name": "A5",
            "ticks": 72960,
            "time": 43.428528,
            "velocity": 0.7244094488188977
          },
          {
            "duration": 0.45714240000000217,
            "durationTicks": 768,
            "midi": 82,
            "name": "A#5",
            "ticks": 74880,
            "time": 44.571384,
            "velocity": 0.8267716535433071
          },
          {
            "duration": 0.45714239999999506,
            "durationTicks": 768,
            "midi": 76,
            "name": "E5",
            "ticks": 75840,
            "time": 45.142812000000006,
            "velocity": 0.8267716535433071
          },
          {
            "duration": 0.45714239999999506,
            "durationTicks": 768,
            "midi": 79,
            "name": "G5",
            "ticks": 75840,
            "time": 45.142812000000006,
            "velocity": 0.8267716535433071
          },
          {
            "duration": 1.599998399999997,
            "durationTicks": 2688,
            "midi": 77,
            "name": "F5",
            "ticks": 76800,
            "time": 45.714240000000004,
            "velocity": 0.8267716535433071
          },
          {
            "duration": 0.9142847999999972,
            "durationTicks": 1536,
            "midi": 81,
            "name": "A5",
            "ticks": 76800,
            "time": 45.714240000000004,
            "velocity": 0.8267716535433071
          },
          {
            "duration": 0.45714239999999506,
            "durationTicks": 768,
            "midi": 82,
            "name": "A#5",
            "ticks": 78720,
            "time": 46.857096000000006,
            "velocity": 0.8267716535433071
          },
          {
            "duration": 0.45714240000000217,
            "durationTicks": 768,
            "midi": 76,
            "name": "E5",
            "ticks": 79680,
            "time": 47.428524,
            "velocity": 0.8267716535433071
          },
          {
            "duration": 0.45714240000000217,
            "durationTicks": 768,
            "midi": 79,
            "name": "G5",
            "ticks": 79680,
            "time": 47.428524,
            "velocity": 0.8267716535433071
          },
          {
            "duration": 0.22857119999999753,
            "durationTicks": 384,
            "midi": 77,
            "name": "F5",
            "ticks": 80640,
            "time": 47.99995200000001,
            "velocity": 0.8267716535433071
          },
          {
            "duration": 0.22857119999999753,
            "durationTicks": 384,
            "midi": 81,
            "name": "A5",
            "ticks": 80640,
            "time": 47.99995200000001,
            "velocity": 0.8267716535433071
          },
          {
            "duration": 0.22857120000000464,
            "durationTicks": 384,
            "midi": 69,
            "name": "A4",
            "ticks": 81600,
            "time": 48.571380000000005,
            "velocity": 0.7244094488188977
          },
          {
            "duration": 0.22857120000000464,
            "durationTicks": 384,
            "midi": 72,
            "name": "C5",
            "ticks": 81600,
            "time": 48.571380000000005,
            "velocity": 0.7244094488188977
          },
          {
            "duration": 0.8571419999999961,
            "durationTicks": 1440,
            "midi": 75,
            "name": "D#5",
            "ticks": 86400,
            "time": 51.428520000000006,
            "velocity": 0.5511811023622047
          },
          {
            "duration": 0.07142850000000323,
            "durationTicks": 120,
            "midi": 77,
            "name": "F5",
            "ticks": 87840,
            "time": 52.285662,
            "velocity": 0.5511811023622047
          },
          {
            "duration": 0.07142849999999612,
            "durationTicks": 120,
            "midi": 75,
            "name": "D#5",
            "ticks": 87960,
            "time": 52.357090500000005,
            "velocity": 0.5511811023622047
          },
          {
            "duration": 0.07142850000000323,
            "durationTicks": 120,
            "midi": 74,
            "name": "D5",
            "ticks": 88080,
            "time": 52.428519,
            "velocity": 0.5511811023622047
          },
          {
            "duration": 0.07142849999999612,
            "durationTicks": 120,
            "midi": 72,
            "name": "C5",
            "ticks": 88200,
            "time": 52.499947500000005,
            "velocity": 0.5511811023622047
          },
          {
            "duration": 0.22857120000000464,
            "durationTicks": 384,
            "midi": 70,
            "name": "A#4",
            "ticks": 88320,
            "time": 52.571376,
            "velocity": 0.5511811023622047
          },
          {
            "duration": 0.14285699999999935,
            "durationTicks": 240,
            "midi": 70,
            "name": "A#4",
            "ticks": 97920,
            "time": 58.285656,
            "velocity": 0.5511811023622047
          },
          {
            "duration": 0.14285699999999935,
            "durationTicks": 240,
            "midi": 69,
            "name": "A4",
            "ticks": 98160,
            "time": 58.428513,
            "velocity": 0.5511811023622047
          },
          {
            "duration": 0.14285700000000645,
            "durationTicks": 240,
            "midi": 72,
            "name": "C5",
            "ticks": 98400,
            "time": 58.57137,
            "velocity": 0.5511811023622047
          },
          {
            "duration": 0.14285699999999935,
            "durationTicks": 240,
            "midi": 70,
            "name": "A#4",
            "ticks": 98640,
            "time": 58.71422700000001,
            "velocity": 0.5511811023622047
          },
          {
            "duration": 0.14285699999999935,
            "durationTicks": 240,
            "midi": 74,
            "name": "D5",
            "ticks": 98880,
            "time": 58.85708400000001,
            "velocity": 0.5511811023622047
          },
          {
            "duration": 0.14285699999999935,
            "durationTicks": 240,
            "midi": 72,
            "name": "C5",
            "ticks": 99120,
            "time": 58.99994100000001,
            "velocity": 0.5511811023622047
          },
          {
            "duration": 0.14285699999999935,
            "durationTicks": 240,
            "midi": 75,
            "name": "D#5",
            "ticks": 99360,
            "time": 59.142798000000006,
            "velocity": 0.5511811023622047
          },
          {
            "duration": 0.11428560000000232,
            "durationTicks": 192,
            "midi": 74,
            "name": "D5",
            "ticks": 99600,
            "time": 59.285655000000006,
            "velocity": 0.5511811023622047
          },
          {
            "duration": 0.8571420000000032,
            "durationTicks": 1440,
            "midi": 77,
            "name": "F5",
            "ticks": 99840,
            "time": 59.428512000000005,
            "velocity": 0.5511811023622047
          },
          {
            "duration": 0.2857139999999987,
            "durationTicks": 480,
            "midi": 76,
            "name": "E5",
            "ticks": 101280,
            "time": 60.28565400000001,
            "velocity": 0.5511811023622047
          },
          {
            "duration": 0.22857120000000464,
            "durationTicks": 384,
            "midi": 75,
            "name": "D#5",
            "ticks": 101760,
            "time": 60.57136800000001,
            "velocity": 0.5511811023622047
          },
          {
            "duration": 0.18571409999999844,
            "durationTicks": 312,
            "midi": 70,
            "name": "A#4",
            "ticks": 104160,
            "time": 61.99993800000001,
            "velocity": 0.5511811023622047
          },
          {
            "duration": 0.5142852000000033,
            "durationTicks": 864,
            "midi": 70,
            "name": "A#4",
            "ticks": 104640,
            "time": 62.285652000000006,
            "velocity": 0.5511811023622047
          },
          {
            "duration": 0.22857120000000464,
            "durationTicks": 384,
            "midi": 72,
            "name": "C5",
            "ticks": 105120,
            "time": 62.571366000000005,
            "velocity": 0.5511811023622047
          },
          {
            "duration": 0.42857100000000514,
            "durationTicks": 720,
            "midi": 70,
            "name": "A#4",
            "ticks": 105600,
            "time": 62.85708,
            "velocity": 0.5511811023622047
          },
          {
            "duration": 0.42857100000000514,
            "durationTicks": 720,
            "midi": 74,
            "name": "D5",
            "ticks": 105600,
            "time": 62.85708,
            "velocity": 0.5511811023622047
          },
          {
            "duration": 0.14285699999999935,
            "durationTicks": 240,
            "midi": 72,
            "name": "C5",
            "ticks": 106320,
            "time": 63.28565100000001,
            "velocity": 0.5511811023622047
          },
          {
            "duration": 0.14285699999999935,
            "durationTicks": 240,
            "midi": 75,
            "name": "D#5",
            "ticks": 106320,
            "time": 63.28565100000001,
            "velocity": 0.5511811023622047
          },
          {
            "duration": 0.22857119999999753,
            "durationTicks": 384,
            "midi": 69,
            "name": "A4",
            "ticks": 106560,
            "time": 63.42850800000001,
            "velocity": 0.5511811023622047
          },
          {
            "duration": 0.22857119999999753,
            "durationTicks": 384,
            "midi": 72,
            "name": "C5",
            "ticks": 106560,
            "time": 63.42850800000001,
            "velocity": 0.5511811023622047
          },
          {
            "duration": 0.6857135999999997,
            "durationTicks": 1152,
            "midi": 79,
            "name": "G5",
            "ticks": 107520,
            "time": 63.999936000000005,
            "velocity": 0.5511811023622047
          },
          {
            "duration": 0.22857120000000464,
            "durationTicks": 384,
            "midi": 78,
            "name": "F#5",
            "ticks": 108960,
            "time": 64.857078,
            "velocity": 0.5511811023622047
          },
          {
            "duration": 0.22857120000000464,
            "durationTicks": 384,
            "midi": 77,
            "name": "F5",
            "ticks": 109440,
            "time": 65.142792,
            "velocity": 0.5511811023622047
          },
          {
            "duration": 0.22857120000000464,
            "durationTicks": 384,
            "midi": 76,
            "name": "E5",
            "ticks": 109920,
            "time": 65.428506,
            "velocity": 0.5511811023622047
          },
          {
            "duration": 0.22857119999999043,
            "durationTicks": 384,
            "midi": 75,
            "name": "D#5",
            "ticks": 110400,
            "time": 65.71422000000001,
            "velocity": 0.5511811023622047
          },
          {
            "duration": 0.22857120000000464,
            "durationTicks": 384,
            "midi": 74,
            "name": "D5",
            "ticks": 110880,
            "time": 65.99993400000001,
            "velocity": 0.4566929133858268
          },
          {
            "duration": 0.8571419999999961,
            "durationTicks": 1440,
            "midi": 70,
            "name": "A#4",
            "ticks": 111360,
            "time": 66.28564800000001,
            "velocity": 0.4566929133858268
          },
          {
            "duration": 0.8571419999999961,
            "durationTicks": 1440,
            "midi": 73,
            "name": "C#5",
            "ticks": 111360,
            "time": 66.28564800000001,
            "velocity": 0.4566929133858268
          },
          {
            "duration": 0.22857120000000464,
            "durationTicks": 384,
            "midi": 68,
            "name": "G#4",
            "ticks": 112800,
            "time": 67.14279,
            "velocity": 0.4566929133858268
          },
          {
            "duration": 0.22857120000000464,
            "durationTicks": 384,
            "midi": 72,
            "name": "C5",
            "ticks": 112800,
            "time": 67.14279,
            "velocity": 0.4566929133858268
          },
          {
            "duration": 0.8571419999999961,
            "durationTicks": 1440,
            "midi": 70,
            "name": "A#4",
            "ticks": 113280,
            "time": 67.428504,
            "velocity": 0.4566929133858268
          },
          {
            "duration": 0.8571419999999961,
            "durationTicks": 1440,
            "midi": 73,
            "name": "C#5",
            "ticks": 113280,
            "time": 67.428504,
            "velocity": 0.4566929133858268
          },
          {
            "duration": 0.22857120000000464,
            "durationTicks": 384,
            "midi": 68,
            "name": "G#4",
            "ticks": 114720,
            "time": 68.285646,
            "velocity": 0.4566929133858268
          },
          {
            "duration": 0.22857120000000464,
            "durationTicks": 384,
            "midi": 72,
            "name": "C5",
            "ticks": 114720,
            "time": 68.285646,
            "velocity": 0.4566929133858268
          },
          {
            "duration": 0.8571420000000103,
            "durationTicks": 1440,
            "midi": 70,
            "name": "A#4",
            "ticks": 115200,
            "time": 68.57136,
            "velocity": 0.4566929133858268
          },
          {
            "duration": 0.8571420000000103,
            "durationTicks": 1440,
            "midi": 73,
            "name": "C#5",
            "ticks": 115200,
            "time": 68.57136,
            "velocity": 0.4566929133858268
          },
          {
            "duration": 0.22857120000000464,
            "durationTicks": 384,
            "midi": 68,
            "name": "G#4",
            "ticks": 116640,
            "time": 69.42850200000001,
            "velocity": 0.4566929133858268
          },
          {
            "duration": 0.22857120000000464,
            "durationTicks": 384,
            "midi": 72,
            "name": "C5",
            "ticks": 116640,
            "time": 69.42850200000001,
            "velocity": 0.4566929133858268
          },
          {
            "duration": 0.8571419999999961,
            "durationTicks": 1440,
            "midi": 70,
            "name": "A#4",
            "ticks": 117120,
            "time": 69.71421600000001,
            "velocity": 0.4566929133858268
          },
          {
            "duration": 0.8571419999999961,
            "durationTicks": 1440,
            "midi": 73,
            "name": "C#5",
            "ticks": 117120,
            "time": 69.71421600000001,
            "velocity": 0.4566929133858268
          },
          {
            "duration": 0.22857120000000464,
            "durationTicks": 384,
            "midi": 68,
            "name": "G#4",
            "ticks": 118560,
            "time": 70.571358,
            "velocity": 0.4566929133858268
          },
          {
            "duration": 0.22857120000000464,
            "durationTicks": 384,
            "midi": 72,
            "name": "C5",
            "ticks": 118560,
            "time": 70.571358,
            "velocity": 0.4566929133858268
          },
          {
            "duration": 2.057140799999999,
            "durationTicks": 3456,
            "midi": 73,
            "name": "C#5",
            "ticks": 119040,
            "time": 70.857072,
            "velocity": 0.5511811023622047
          },
          {
            "duration": 0.9142848000000043,
            "durationTicks": 1536,
            "midi": 79,
            "name": "G5",
            "ticks": 119040,
            "time": 70.857072,
            "velocity": 0.5511811023622047
          },
          {
            "duration": 0.9142847999999901,
            "durationTicks": 1536,
            "midi": 82,
            "name": "A#5",
            "ticks": 120960,
            "time": 71.99992800000001,
            "velocity": 0.7244094488188977
          },
          {
            "duration": 1.0857132000000007,
            "durationTicks": 1824,
            "midi": 74,
            "name": "D5",
            "ticks": 122880,
            "time": 73.142784,
            "velocity": 0.8267716535433071
          },
          {
            "duration": 1.0857132000000007,
            "durationTicks": 1824,
            "midi": 82,
            "name": "A#5",
            "ticks": 122880,
            "time": 73.142784,
            "velocity": 0.8267716535433071
          },
          {
            "duration": 1.142856000000009,
            "durationTicks": 1920,
            "midi": 75,
            "name": "D#5",
            "ticks": 124800,
            "time": 74.28564,
            "velocity": 0.8267716535433071
          },
          {
            "duration": 0.07142850000001033,
            "durationTicks": 120,
            "midi": 82,
            "name": "A#5",
            "ticks": 124800,
            "time": 74.28564,
            "velocity": 0.8267716535433071
          },
          {
            "duration": 0.07142849999999612,
            "durationTicks": 120,
            "midi": 81,
            "name": "A5",
            "ticks": 124920,
            "time": 74.35706850000001,
            "velocity": 0.8267716535433071
          },
          {
            "duration": 0.07142849999999612,
            "durationTicks": 120,
            "midi": 82,
            "name": "A#5",
            "ticks": 125040,
            "time": 74.42849700000001,
            "velocity": 0.8267716535433071
          },
          {
            "duration": 0.07142849999999612,
            "durationTicks": 120,
            "midi": 81,
            "name": "A5",
            "ticks": 125160,
            "time": 74.4999255,
            "velocity": 0.8267716535433071
          },
          {
            "duration": 0.07142850000001033,
            "durationTicks": 120,
            "midi": 82,
            "name": "A#5",
            "ticks": 125280,
            "time": 74.571354,
            "velocity": 0.8267716535433071
          },
          {
            "duration": 0.07142849999999612,
            "durationTicks": 120,
            "midi": 81,
            "name": "A5",
            "ticks": 125400,
            "time": 74.64278250000001,
            "velocity": 0.8267716535433071
          },
          {
            "duration": 0.07142849999999612,
            "durationTicks": 120,
            "midi": 82,
            "name": "A#5",
            "ticks": 125520,
            "time": 74.714211,
            "velocity": 0.8267716535433071
          },
          {
            "duration": 0.07142850000001033,
            "durationTicks": 120,
            "midi": 81,
            "name": "A5",
            "ticks": 125640,
            "time": 74.7856395,
            "velocity": 0.8267716535433071
          },
          {
            "duration": 0.07142849999999612,
            "durationTicks": 120,
            "midi": 82,
            "name": "A#5",
            "ticks": 125760,
            "time": 74.85706800000001,
            "velocity": 0.8267716535433071
          },
          {
            "duration": 0.07142849999999612,
            "durationTicks": 120,
            "midi": 81,
            "name": "A5",
            "ticks": 125880,
            "time": 74.92849650000001,
            "velocity": 0.8267716535433071
          },
          {
            "duration": 0.07142849999999612,
            "durationTicks": 120,
            "midi": 82,
            "name": "A#5",
            "ticks": 126000,
            "time": 74.999925,
            "velocity": 0.8267716535433071
          },
          {
            "duration": 0.07142850000001033,
            "durationTicks": 120,
            "midi": 81,
            "name": "A5",
            "ticks": 126120,
            "time": 75.0713535,
            "velocity": 0.8267716535433071
          },
          {
            "duration": 0.07142849999999612,
            "durationTicks": 120,
            "midi": 82,
            "name": "A#5",
            "ticks": 126240,
            "time": 75.14278200000001,
            "velocity": 0.8267716535433071
          },
          {
            "duration": 0.07142849999999612,
            "durationTicks": 120,
            "midi": 81,
            "name": "A5",
            "ticks": 126360,
            "time": 75.21421050000001,
            "velocity": 0.8267716535433071
          },
          {
            "duration": 0.07142849999999612,
            "durationTicks": 120,
            "midi": 79,
            "name": "G5",
            "ticks": 126480,
            "time": 75.285639,
            "velocity": 0.8267716535433071
          },
          {
            "duration": 0.07142850000001033,
            "durationTicks": 120,
            "midi": 81,
            "name": "A5",
            "ticks": 126600,
            "time": 75.3570675,
            "velocity": 0.8267716535433071
          },
          {
            "duration": 0.22857120000000464,
            "durationTicks": 384,
            "midi": 74,
            "name": "D5",
            "ticks": 126720,
            "time": 75.42849600000001,
            "velocity": 0.7244094488188977
          },
          {
            "duration": 0.22857120000000464,
            "durationTicks": 384,
            "midi": 82,
            "name": "A#5",
            "ticks": 126720,
            "time": 75.42849600000001,
            "velocity": 0.7244094488188977
          },
          {
            "duration": 0.22857119999999043,
            "durationTicks": 384,
            "midi": 74,
            "name": "D5",
            "ticks": 130560,
            "time": 77.71420800000001,
            "velocity": 0.8267716535433071
          },
          {
            "duration": 0.22857119999999043,
            "durationTicks": 384,
            "midi": 77,
            "name": "F5",
            "ticks": 130560,
            "time": 77.71420800000001,
            "velocity": 0.8267716535433071
          },
          {
            "duration": 0.22857120000000464,
            "durationTicks": 384,
            "midi": 75,
            "name": "D#5",
            "ticks": 131520,
            "time": 78.28563600000001,
            "velocity": 0.8267716535433071
          },
          {
            "duration": 0.22857120000000464,
            "durationTicks": 384,
            "midi": 79,
            "name": "G5",
            "ticks": 131520,
            "time": 78.28563600000001,
            "velocity": 0.8267716535433071
          },
          {
            "duration": 0.22857120000000464,
            "durationTicks": 384,
            "midi": 77,
            "name": "F5",
            "ticks": 132480,
            "time": 78.85706400000001,
            "velocity": 0.8267716535433071
          },
          {
            "duration": 0.22857120000000464,
            "durationTicks": 384,
            "midi": 81,
            "name": "A5",
            "ticks": 132480,
            "time": 78.85706400000001,
            "velocity": 0.8267716535433071
          },
          {
            "duration": 0.22857120000000464,
            "durationTicks": 384,
            "midi": 77,
            "name": "F5",
            "ticks": 133440,
            "time": 79.428492,
            "velocity": 0.8267716535433071
          },
          {
            "duration": 0.22857120000000464,
            "durationTicks": 384,
            "midi": 82,
            "name": "A#5",
            "ticks": 133440,
            "time": 79.428492,
            "velocity": 0.8267716535433071
          },
          {
            "duration": 0.14285700000000645,
            "durationTicks": 240,
            "midi": 79,
            "name": "G5",
            "ticks": 139680,
            "time": 83.142774,
            "velocity": 0.6299212598425197
          },
          {
            "duration": 0.11428559999998811,
            "durationTicks": 192,
            "midi": 77,
            "name": "F5",
            "ticks": 139920,
            "time": 83.28563100000001,
            "velocity": 0.6299212598425197
          },
          {
            "duration": 0.22857120000000464,
            "durationTicks": 384,
            "midi": 77,
            "name": "F5",
            "ticks": 140160,
            "time": 83.428488,
            "velocity": 0.6299212598425197
          },
          {
            "duration": 0.14285700000000645,
            "durationTicks": 240,
            "midi": 79,
            "name": "G5",
            "ticks": 140640,
            "time": 83.714202,
            "velocity": 0.6299212598425197
          },
          {
            "duration": 0.11428559999998811,
            "durationTicks": 192,
            "midi": 77,
            "name": "F5",
            "ticks": 140880,
            "time": 83.857059,
            "velocity": 0.6299212598425197
          },
          {
            "duration": 0.22857119999999043,
            "durationTicks": 384,
            "midi": 77,
            "name": "F5",
            "ticks": 141120,
            "time": 83.99991600000001,
            "velocity": 0.6299212598425197
          },
          {
            "duration": 0.14285700000000645,
            "durationTicks": 240,
            "midi": 79,
            "name": "G5",
            "ticks": 143520,
            "time": 85.428486,
            "velocity": 0.6299212598425197
          },
          {
            "duration": 0.11428559999998811,
            "durationTicks": 192,
            "midi": 77,
            "name": "F5",
            "ticks": 143760,
            "time": 85.57134300000001,
            "velocity": 0.6299212598425197
          },
          {
            "duration": 0.22857120000000464,
            "durationTicks": 384,
            "midi": 77,
            "name": "F5",
            "ticks": 144000,
            "time": 85.7142,
            "velocity": 0.6299212598425197
          },
          {
            "duration": 0.14285700000000645,
            "durationTicks": 240,
            "midi": 79,
            "name": "G5",
            "ticks": 144480,
            "time": 85.999914,
            "velocity": 0.6299212598425197
          },
          {
            "duration": 0.11428559999998811,
            "durationTicks": 192,
            "midi": 77,
            "name": "F5",
            "ticks": 144720,
            "time": 86.14277100000001,
            "velocity": 0.6299212598425197
          },
          {
            "duration": 0.22857120000000464,
            "durationTicks": 384,
            "midi": 77,
            "name": "F5",
            "ticks": 144960,
            "time": 86.285628,
            "velocity": 0.6299212598425197
          },
          {
            "duration": 0.9142847999999901,
            "durationTicks": 1536,
            "midi": 81,
            "name": "A5",
            "ticks": 147840,
            "time": 87.99991200000001,
            "velocity": 0.8267716535433071
          },
          {
            "duration": 0.9142847999999901,
            "durationTicks": 1536,
            "midi": 84,
            "name": "C6",
            "ticks": 147840,
            "time": 87.99991200000001,
            "velocity": 0.8267716535433071
          },
          {
            "duration": 1.0285704000000067,
            "durationTicks": 1728,
            "midi": 79,
            "name": "G5",
            "ticks": 149760,
            "time": 89.142768,
            "velocity": 0.8267716535433071
          },
          {
            "duration": 0.4571424000000093,
            "durationTicks": 768,
            "midi": 82,
            "name": "A#5",
            "ticks": 149760,
            "time": 89.142768,
            "velocity": 0.8267716535433071
          },
          {
            "duration": 0.4571424000000093,
            "durationTicks": 768,
            "midi": 84,
            "name": "C6",
            "ticks": 150720,
            "time": 89.714196,
            "velocity": 0.8267716535433071
          },
          {
            "duration": 0.45714239999999506,
            "durationTicks": 768,
            "midi": 77,
            "name": "F5",
            "ticks": 151680,
            "time": 90.28562400000001,
            "velocity": 0.8267716535433071
          },
          {
            "duration": 0.45714239999999506,
            "durationTicks": 768,
            "midi": 82,
            "name": "A#5",
            "ticks": 151680,
            "time": 90.28562400000001,
            "velocity": 0.8267716535433071
          },
          {
            "duration": 0.4571424000000093,
            "durationTicks": 768,
            "midi": 75,
            "name": "D#5",
            "ticks": 152640,
            "time": 90.85705200000001,
            "velocity": 0.8267716535433071
          },
          {
            "duration": 0.4571424000000093,
            "durationTicks": 768,
            "midi": 81,
            "name": "A5",
            "ticks": 152640,
            "time": 90.85705200000001,
            "velocity": 0.8267716535433071
          },
          {
            "duration": 0.22857120000000464,
            "durationTicks": 384,
            "midi": 74,
            "name": "D5",
            "ticks": 153600,
            "time": 91.42848000000001,
            "velocity": 0.7244094488188977
          },
          {
            "duration": 0.22857120000000464,
            "durationTicks": 384,
            "midi": 82,
            "name": "A#5",
            "ticks": 153600,
            "time": 91.42848000000001,
            "velocity": 0.7244094488188977
          },
          {
            "duration": 0.14285699999999224,
            "durationTicks": 240,
            "midi": 79,
            "name": "G5",
            "ticks": 156960,
            "time": 93.42847800000001,
            "velocity": 0.6299212598425197
          },
          {
            "duration": 0.11428560000000232,
            "durationTicks": 192,
            "midi": 77,
            "name": "F5",
            "ticks": 157200,
            "time": 93.571335,
            "velocity": 0.6299212598425197
          },
          {
            "duration": 0.22857120000000464,
            "durationTicks": 384,
            "midi": 77,
            "name": "F5",
            "ticks": 157440,
            "time": 93.71419200000001,
            "velocity": 0.6299212598425197
          },
          {
            "duration": 0.14285699999999224,
            "durationTicks": 240,
            "midi": 79,
            "name": "G5",
            "ticks": 157920,
            "time": 93.99990600000001,
            "velocity": 0.6299212598425197
          },
          {
            "duration": 0.11428560000000232,
            "durationTicks": 192,
            "midi": 77,
            "name": "F5",
            "ticks": 158160,
            "time": 94.142763,
            "velocity": 0.6299212598425197
          },
          {
            "duration": 0.22857120000000464,
            "durationTicks": 384,
            "midi": 77,
            "name": "F5",
            "ticks": 158400,
            "time": 94.28562000000001,
            "velocity": 0.6299212598425197
          },
          {
            "duration": 0.14285700000000645,
            "durationTicks": 240,
            "midi": 79,
            "name": "G5",
            "ticks": 160800,
            "time": 95.71419,
            "velocity": 0.6299212598425197
          },
          {
            "duration": 0.11428559999998811,
            "durationTicks": 192,
            "midi": 77,
            "name": "F5",
            "ticks": 161040,
            "time": 95.85704700000001,
            "velocity": 0.6299212598425197
          },
          {
            "duration": 0.22857119999999043,
            "durationTicks": 384,
            "midi": 77,
            "name": "F5",
            "ticks": 161280,
            "time": 95.99990400000002,
            "velocity": 0.6299212598425197
          },
          {
            "duration": 0.14285699999999224,
            "durationTicks": 240,
            "midi": 79,
            "name": "G5",
            "ticks": 161760,
            "time": 96.28561800000001,
            "velocity": 0.6299212598425197
          },
          {
            "duration": 0.11428560000000232,
            "durationTicks": 192,
            "midi": 77,
            "name": "F5",
            "ticks": 162000,
            "time": 96.428475,
            "velocity": 0.6299212598425197
          },
          {
            "duration": 0.22857120000000464,
            "durationTicks": 384,
            "midi": 77,
            "name": "F5",
            "ticks": 162240,
            "time": 96.57133200000001,
            "velocity": 0.6299212598425197
          },
          {
            "duration": 0.9142847999999901,
            "durationTicks": 1536,
            "midi": 81,
            "name": "A5",
            "ticks": 163200,
            "time": 97.14276000000001,
            "velocity": 0.8267716535433071
          },
          {
            "duration": 0.9142847999999901,
            "durationTicks": 1536,
            "midi": 84,
            "name": "C6",
            "ticks": 163200,
            "time": 97.14276000000001,
            "velocity": 0.8267716535433071
          },
          {
            "duration": 1.0285704000000067,
            "durationTicks": 1728,
            "midi": 79,
            "name": "G5",
            "ticks": 165120,
            "time": 98.285616,
            "velocity": 0.8267716535433071
          },
          {
            "duration": 0.4571424000000093,
            "durationTicks": 768,
            "midi": 82,
            "name": "A#5",
            "ticks": 165120,
            "time": 98.285616,
            "velocity": 0.8267716535433071
          },
          {
            "duration": 0.4571424000000093,
            "durationTicks": 768,
            "midi": 84,
            "name": "C6",
            "ticks": 166080,
            "time": 98.857044,
            "velocity": 0.8267716535433071
          },
          {
            "duration": 0.45714239999999506,
            "durationTicks": 768,
            "midi": 77,
            "name": "F5",
            "ticks": 167040,
            "time": 99.42847200000001,
            "velocity": 0.8267716535433071
          },
          {
            "duration": 0.45714239999999506,
            "durationTicks": 768,
            "midi": 82,
            "name": "A#5",
            "ticks": 167040,
            "time": 99.42847200000001,
            "velocity": 0.8267716535433071
          },
          {
            "duration": 0.4571424000000093,
            "durationTicks": 768,
            "midi": 75,
            "name": "D#5",
            "ticks": 168000,
            "time": 99.99990000000001,
            "velocity": 0.8267716535433071
          },
          {
            "duration": 0.4571424000000093,
            "durationTicks": 768,
            "midi": 81,
            "name": "A5",
            "ticks": 168000,
            "time": 99.99990000000001,
            "velocity": 0.8267716535433071
          },
          {
            "duration": 0.4571424000000093,
            "durationTicks": 768,
            "midi": 74,
            "name": "D5",
            "ticks": 168960,
            "time": 100.57132800000001,
            "velocity": 0.8267716535433071
          },
          {
            "duration": 0.4571424000000093,
            "durationTicks": 768,
            "midi": 82,
            "name": "A#5",
            "ticks": 168960,
            "time": 100.57132800000001,
            "velocity": 0.8267716535433071
          },
          {
            "duration": 0.11428559999998811,
            "durationTicks": 192,
            "midi": 77,
            "name": "F5",
            "ticks": 170640,
            "time": 101.57132700000001,
            "velocity": 0.8267716535433071
          },
          {
            "duration": 0.11428560000000232,
            "durationTicks": 192,
            "midi": 75,
            "name": "D#5",
            "ticks": 170880,
            "time": 101.714184,
            "velocity": 0.8267716535433071
          },
          {
            "duration": 0.11428559999998811,
            "durationTicks": 192,
            "midi": 74,
            "name": "D5",
            "ticks": 171120,
            "time": 101.85704100000001,
            "velocity": 0.8267716535433071
          },
          {
            "duration": 0.11428560000000232,
            "durationTicks": 192,
            "midi": 72,
            "name": "C5",
            "ticks": 171360,
            "time": 101.999898,
            "velocity": 0.8267716535433071
          },
          {
            "duration": 0.11428559999998811,
            "durationTicks": 192,
            "midi": 70,
            "name": "A#4",
            "ticks": 171600,
            "time": 102.14275500000001,
            "velocity": 0.8267716535433071
          },
          {
            "duration": 0.11428559999998811,
            "durationTicks": 192,
            "midi": 69,
            "name": "A4",
            "ticks": 171840,
            "time": 102.28561200000001,
            "velocity": 0.8267716535433071
          },
          {
            "duration": 0.11428559999998811,
            "durationTicks": 192,
            "midi": 67,
            "name": "G4",
            "ticks": 172080,
            "time": 102.428469,
            "velocity": 0.8267716535433071
          },
          {
            "duration": 0.11428559999998811,
            "durationTicks": 192,
            "midi": 65,
            "name": "F4",
            "ticks": 172320,
            "time": 102.57132600000001,
            "velocity": 0.8267716535433071
          },
          {
            "duration": 0.11428560000000232,
            "durationTicks": 192,
            "midi": 63,
            "name": "D#4",
            "ticks": 172560,
            "time": 102.714183,
            "velocity": 0.8267716535433071
          },
          {
            "duration": 0.1999997999999863,
            "durationTicks": 336,
            "midi": 62,
            "name": "D4",
            "ticks": 172800,
            "time": 102.85704000000001,
            "velocity": 0.8267716535433071
          },
          {
            "duration": 0.4857137999999992,
            "durationTicks": 816,
            "midi": 70,
            "name": "A#4",
            "ticks": 173280,
            "time": 103.14275400000001,
            "velocity": 0.8267716535433071
          },
          {
            "duration": 0.1999998000000005,
            "durationTicks": 336,
            "midi": 77,
            "name": "F5",
            "ticks": 173280,
            "time": 103.14275400000001,
            "velocity": 0.8267716535433071
          },
          {
            "duration": 0.1999998000000005,
            "durationTicks": 336,
            "midi": 79,
            "name": "G5",
            "ticks": 173760,
            "time": 103.42846800000001,
            "velocity": 0.8267716535433071
          },
          {
            "duration": 0.1999998000000005,
            "durationTicks": 336,
            "midi": 75,
            "name": "D#5",
            "ticks": 174240,
            "time": 103.71418200000001,
            "velocity": 0.8267716535433071
          },
          {
            "duration": 0.1999998000000005,
            "durationTicks": 336,
            "midi": 81,
            "name": "A5",
            "ticks": 174240,
            "time": 103.71418200000001,
            "velocity": 0.8267716535433071
          },
          {
            "duration": 0.25714259999999456,
            "durationTicks": 432,
            "midi": 74,
            "name": "D5",
            "ticks": 174720,
            "time": 103.999896,
            "velocity": 0.8267716535433071
          },
          {
            "duration": 0.11428560000000232,
            "durationTicks": 192,
            "midi": 82,
            "name": "A#5",
            "ticks": 174720,
            "time": 103.999896,
            "velocity": 0.8267716535433071
          },
          {
            "duration": 0.11428559999998811,
            "durationTicks": 192,
            "midi": 77,
            "name": "F5",
            "ticks": 174960,
            "time": 104.14275300000001,
            "velocity": 0.8267716535433071
          },
          {
            "duration": 0.11428560000000232,
            "durationTicks": 192,
            "midi": 86,
            "name": "D6",
            "ticks": 175200,
            "time": 104.28561,
            "velocity": 0.8267716535433071
          },
          {
            "duration": 0.11428559999998811,
            "durationTicks": 192,
            "midi": 84,
            "name": "C6",
            "ticks": 175440,
            "time": 104.42846700000001,
            "velocity": 0.8267716535433071
          },
          {
            "duration": 0.11428560000000232,
            "durationTicks": 192,
            "midi": 82,
            "name": "A#5",
            "ticks": 175680,
            "time": 104.571324,
            "velocity": 0.8267716535433071
          },
          {
            "duration": 0.11428559999998811,
            "durationTicks": 192,
            "midi": 81,
            "name": "A5",
            "ticks": 175920,
            "time": 104.71418100000001,
            "velocity": 0.8267716535433071
          },
          {
            "duration": 0.11428560000000232,
            "durationTicks": 192,
            "midi": 79,
            "name": "G5",
            "ticks": 176160,
            "time": 104.857038,
            "velocity": 0.8267716535433071
          },
          {
            "duration": 0.11428559999998811,
            "durationTicks": 192,
            "midi": 77,
            "name": "F5",
            "ticks": 176400,
            "time": 104.99989500000001,
            "velocity": 0.8267716535433071
          },
          {
            "duration": 0.11428560000000232,
            "durationTicks": 192,
            "midi": 75,
            "name": "D#5",
            "ticks": 176640,
            "time": 105.142752,
            "velocity": 0.8267716535433071
          },
          {
            "duration": 0.11428559999998811,
            "durationTicks": 192,
            "midi": 74,
            "name": "D5",
            "ticks": 176880,
            "time": 105.28560900000001,
            "velocity": 0.8267716535433071
          },
          {
            "duration": 0.11428559999998811,
            "durationTicks": 192,
            "midi": 72,
            "name": "C5",
            "ticks": 177120,
            "time": 105.42846600000001,
            "velocity": 0.8267716535433071
          },
          {
            "duration": 0.11428560000000232,
            "durationTicks": 192,
            "midi": 70,
            "name": "A#4",
            "ticks": 177360,
            "time": 105.571323,
            "velocity": 0.8267716535433071
          },
          {
            "duration": 0.11428559999998811,
            "durationTicks": 192,
            "midi": 69,
            "name": "A4",
            "ticks": 177600,
            "time": 105.71418000000001,
            "velocity": 0.8267716535433071
          },
          {
            "duration": 0.11428560000000232,
            "durationTicks": 192,
            "midi": 72,
            "name": "C5",
            "ticks": 177840,
            "time": 105.857037,
            "velocity": 0.8267716535433071
          },
          {
            "duration": 0.11428559999998811,
            "durationTicks": 192,
            "midi": 77,
            "name": "F5",
            "ticks": 178080,
            "time": 105.99989400000001,
            "velocity": 0.8267716535433071
          },
          {
            "duration": 0.11428560000000232,
            "durationTicks": 192,
            "midi": 75,
            "name": "D#5",
            "ticks": 178320,
            "time": 106.142751,
            "velocity": 0.8267716535433071
          },
          {
            "duration": 0.1999998000000005,
            "durationTicks": 336,
            "midi": 74,
            "name": "D5",
            "ticks": 178560,
            "time": 106.28560800000001,
            "velocity": 0.8267716535433071
          },
          {
            "duration": 0.1999998000000005,
            "durationTicks": 336,
            "midi": 70,
            "name": "A#4",
            "ticks": 179040,
            "time": 106.57132200000001,
            "velocity": 0.8267716535433071
          },
          {
            "duration": 0.1999998000000005,
            "durationTicks": 336,
            "midi": 77,
            "name": "F5",
            "ticks": 179040,
            "time": 106.57132200000001,
            "velocity": 0.8267716535433071
          },
          {
            "duration": 0.1999998000000005,
            "durationTicks": 336,
            "midi": 75,
            "name": "D#5",
            "ticks": 179520,
            "time": 106.85703600000001,
            "velocity": 0.8267716535433071
          },
          {
            "duration": 0.1999998000000005,
            "durationTicks": 336,
            "midi": 79,
            "name": "G5",
            "ticks": 179520,
            "time": 106.85703600000001,
            "velocity": 0.8267716535433071
          },
          {
            "duration": 0.1999998000000005,
            "durationTicks": 336,
            "midi": 81,
            "name": "A5",
            "ticks": 180000,
            "time": 107.14275,
            "velocity": 0.8267716535433071
          },
          {
            "duration": 0.1999998000000005,
            "durationTicks": 336,
            "midi": 84,
            "name": "C6",
            "ticks": 180000,
            "time": 107.14275,
            "velocity": 0.8267716535433071
          },
          {
            "duration": 0.1999998000000005,
            "durationTicks": 336,
            "midi": 82,
            "name": "A#5",
            "ticks": 180480,
            "time": 107.428464,
            "velocity": 0.8267716535433071
          },
          {
            "duration": 0.1999998000000005,
            "durationTicks": 336,
            "midi": 75,
            "name": "D#5",
            "ticks": 180960,
            "time": 107.714178,
            "velocity": 0.8267716535433071
          },
          {
            "duration": 0.1999998000000005,
            "durationTicks": 336,
            "midi": 82,
            "name": "A#5",
            "ticks": 180960,
            "time": 107.714178,
            "velocity": 0.8267716535433071
          },
          {
            "duration": 0.1999998000000005,
            "durationTicks": 336,
            "midi": 74,
            "name": "D5",
            "ticks": 181440,
            "time": 107.999892,
            "velocity": 0.8267716535433071
          },
          {
            "duration": 0.1999998000000005,
            "durationTicks": 336,
            "midi": 82,
            "name": "A#5",
            "ticks": 181440,
            "time": 107.999892,
            "velocity": 0.8267716535433071
          },
          {
            "duration": 0.1999997999999863,
            "durationTicks": 336,
            "midi": 75,
            "name": "D#5",
            "ticks": 181920,
            "time": 108.28560600000002,
            "velocity": 0.8267716535433071
          },
          {
            "duration": 0.1999997999999863,
            "durationTicks": 336,
            "midi": 77,
            "name": "F5",
            "ticks": 181920,
            "time": 108.28560600000002,
            "velocity": 0.8267716535433071
          },
          {
            "duration": 0.21428549999998836,
            "durationTicks": 360,
            "midi": 74,
            "name": "D5",
            "ticks": 182400,
            "time": 108.57132000000001,
            "velocity": 0.8267716535433071
          },
          {
            "duration": 0.21428549999998836,
            "durationTicks": 360,
            "midi": 77,
            "name": "F5",
            "ticks": 182400,
            "time": 108.57132000000001,
            "velocity": 0.8267716535433071
          },
          {
            "duration": 0.10714274999999418,
            "durationTicks": 180,
            "midi": 70,
            "name": "A#4",
            "ticks": 182880,
            "time": 108.85703400000001,
            "velocity": 0.8267716535433071
          },
          {
            "duration": 0.10714274999999418,
            "durationTicks": 180,
            "midi": 74,
            "name": "D5",
            "ticks": 182880,
            "time": 108.85703400000001,
            "velocity": 0.8267716535433071
          },
          {
            "duration": 0.10714275000000839,
            "durationTicks": 180,
            "midi": 70,
            "name": "A#4",
            "ticks": 183120,
            "time": 108.999891,
            "velocity": 0.8267716535433071
          },
          {
            "duration": 0.10714275000000839,
            "durationTicks": 180,
            "midi": 74,
            "name": "D5",
            "ticks": 183120,
            "time": 108.999891,
            "velocity": 0.8267716535433071
          },
          {
            "duration": 0.21428550000000257,
            "durationTicks": 360,
            "midi": 72,
            "name": "C5",
            "ticks": 183360,
            "time": 109.14274800000001,
            "velocity": 0.8267716535433071
          },
          {
            "duration": 0.21428550000000257,
            "durationTicks": 360,
            "midi": 75,
            "name": "D#5",
            "ticks": 183360,
            "time": 109.14274800000001,
            "velocity": 0.8267716535433071
          },
          {
            "duration": 0.10714274999999418,
            "durationTicks": 180,
            "midi": 72,
            "name": "C5",
            "ticks": 183840,
            "time": 109.42846200000001,
            "velocity": 0.8267716535433071
          },
          {
            "duration": 0.10714274999999418,
            "durationTicks": 180,
            "midi": 75,
            "name": "D#5",
            "ticks": 183840,
            "time": 109.42846200000001,
            "velocity": 0.8267716535433071
          },
          {
            "duration": 0.10714275000000839,
            "durationTicks": 180,
            "midi": 72,
            "name": "C5",
            "ticks": 184080,
            "time": 109.571319,
            "velocity": 0.8267716535433071
          },
          {
            "duration": 0.10714275000000839,
            "durationTicks": 180,
            "midi": 75,
            "name": "D#5",
            "ticks": 184080,
            "time": 109.571319,
            "velocity": 0.8267716535433071
          },
          {
            "duration": 0.21428550000000257,
            "durationTicks": 360,
            "midi": 74,
            "name": "D5",
            "ticks": 184320,
            "time": 109.71417600000001,
            "velocity": 0.8267716535433071
          },
          {
            "duration": 0.21428550000000257,
            "durationTicks": 360,
            "midi": 77,
            "name": "F5",
            "ticks": 184320,
            "time": 109.71417600000001,
            "velocity": 0.8267716535433071
          },
          {
            "duration": 0.10714275000000839,
            "durationTicks": 180,
            "midi": 70,
            "name": "A#4",
            "ticks": 184800,
            "time": 109.99989000000001,
            "velocity": 0.8267716535433071
          },
          {
            "duration": 0.10714275000000839,
            "durationTicks": 180,
            "midi": 74,
            "name": "D5",
            "ticks": 184800,
            "time": 109.99989000000001,
            "velocity": 0.8267716535433071
          },
          {
            "duration": 0.10714274999999418,
            "durationTicks": 180,
            "midi": 70,
            "name": "A#4",
            "ticks": 185040,
            "time": 110.14274700000001,
            "velocity": 0.8267716535433071
          },
          {
            "duration": 0.10714274999999418,
            "durationTicks": 180,
            "midi": 74,
            "name": "D5",
            "ticks": 185040,
            "time": 110.14274700000001,
            "velocity": 0.8267716535433071
          },
          {
            "duration": 0.21428550000000257,
            "durationTicks": 360,
            "midi": 72,
            "name": "C5",
            "ticks": 185280,
            "time": 110.285604,
            "velocity": 0.8267716535433071
          },
          {
            "duration": 0.21428550000000257,
            "durationTicks": 360,
            "midi": 75,
            "name": "D#5",
            "ticks": 185280,
            "time": 110.285604,
            "velocity": 0.8267716535433071
          },
          {
            "duration": 0.10714275000000839,
            "durationTicks": 180,
            "midi": 72,
            "name": "C5",
            "ticks": 185760,
            "time": 110.571318,
            "velocity": 0.8267716535433071
          },
          {
            "duration": 0.10714275000000839,
            "durationTicks": 180,
            "midi": 75,
            "name": "D#5",
            "ticks": 185760,
            "time": 110.571318,
            "velocity": 0.8267716535433071
          },
          {
            "duration": 0.10714274999999418,
            "durationTicks": 180,
            "midi": 72,
            "name": "C5",
            "ticks": 186000,
            "time": 110.71417500000001,
            "velocity": 0.8267716535433071
          },
          {
            "duration": 0.10714274999999418,
            "durationTicks": 180,
            "midi": 75,
            "name": "D#5",
            "ticks": 186000,
            "time": 110.71417500000001,
            "velocity": 0.8267716535433071
          },
          {
            "duration": 0.21428550000000257,
            "durationTicks": 360,
            "midi": 74,
            "name": "D5",
            "ticks": 186240,
            "time": 110.857032,
            "velocity": 0.8267716535433071
          },
          {
            "duration": 0.21428550000000257,
            "durationTicks": 360,
            "midi": 77,
            "name": "F5",
            "ticks": 186240,
            "time": 110.857032,
            "velocity": 0.8267716535433071
          },
          {
            "duration": 0.10714275000000839,
            "durationTicks": 180,
            "midi": 70,
            "name": "A#4",
            "ticks": 186720,
            "time": 111.142746,
            "velocity": 0.8267716535433071
          },
          {
            "duration": 0.10714275000000839,
            "durationTicks": 180,
            "midi": 74,
            "name": "D5",
            "ticks": 186720,
            "time": 111.142746,
            "velocity": 0.8267716535433071
          },
          {
            "duration": 0.10714274999999418,
            "durationTicks": 180,
            "midi": 70,
            "name": "A#4",
            "ticks": 186960,
            "time": 111.28560300000001,
            "velocity": 0.8267716535433071
          },
          {
            "duration": 0.10714274999999418,
            "durationTicks": 180,
            "midi": 74,
            "name": "D5",
            "ticks": 186960,
            "time": 111.28560300000001,
            "velocity": 0.8267716535433071
          },
          {
            "duration": 0.21428549999998836,
            "durationTicks": 360,
            "midi": 72,
            "name": "C5",
            "ticks": 187200,
            "time": 111.42846000000002,
            "velocity": 0.8267716535433071
          },
          {
            "duration": 0.21428549999998836,
            "durationTicks": 360,
            "midi": 75,
            "name": "D#5",
            "ticks": 187200,
            "time": 111.42846000000002,
            "velocity": 0.8267716535433071
          },
          {
            "duration": 0.10714274999999418,
            "durationTicks": 180,
            "midi": 72,
            "name": "C5",
            "ticks": 187680,
            "time": 111.71417400000001,
            "velocity": 0.8267716535433071
          },
          {
            "duration": 0.10714274999999418,
            "durationTicks": 180,
            "midi": 75,
            "name": "D#5",
            "ticks": 187680,
            "time": 111.71417400000001,
            "velocity": 0.8267716535433071
          },
          {
            "duration": 0.10714275000000839,
            "durationTicks": 180,
            "midi": 72,
            "name": "C5",
            "ticks": 187920,
            "time": 111.857031,
            "velocity": 0.8267716535433071
          },
          {
            "duration": 0.10714275000000839,
            "durationTicks": 180,
            "midi": 75,
            "name": "D#5",
            "ticks": 187920,
            "time": 111.857031,
            "velocity": 0.8267716535433071
          },
          {
            "duration": 0.21428550000000257,
            "durationTicks": 360,
            "midi": 70,
            "name": "A#4",
            "ticks": 188160,
            "time": 111.99988800000001,
            "velocity": 0.8267716535433071
          },
          {
            "duration": 0.21428550000000257,
            "durationTicks": 360,
            "midi": 74,
            "name": "D5",
            "ticks": 188160,
            "time": 111.99988800000001,
            "velocity": 0.8267716535433071
          },
          {
            "duration": 0.21428550000000257,
            "durationTicks": 360,
            "midi": 72,
            "name": "C5",
            "ticks": 188640,
            "time": 112.28560200000001,
            "velocity": 0.8267716535433071
          },
          {
            "duration": 0.21428550000000257,
            "durationTicks": 360,
            "midi": 75,
            "name": "D#5",
            "ticks": 188640,
            "time": 112.28560200000001,
            "velocity": 0.8267716535433071
          },
          {
            "duration": 0.21428550000000257,
            "durationTicks": 360,
            "midi": 70,
            "name": "A#4",
            "ticks": 189120,
            "time": 112.57131600000001,
            "velocity": 0.8267716535433071
          },
          {
            "duration": 0.21428550000000257,
            "durationTicks": 360,
            "midi": 74,
            "name": "D5",
            "ticks": 189120,
            "time": 112.57131600000001,
            "velocity": 0.8267716535433071
          },
          {
            "duration": 0.21428550000000257,
            "durationTicks": 360,
            "midi": 72,
            "name": "C5",
            "ticks": 189600,
            "time": 112.85703000000001,
            "velocity": 0.8267716535433071
          },
          {
            "duration": 0.21428550000000257,
            "durationTicks": 360,
            "midi": 75,
            "name": "D#5",
            "ticks": 189600,
            "time": 112.85703000000001,
            "velocity": 0.8267716535433071
          },
          {
            "duration": 0.22857120000000464,
            "durationTicks": 384,
            "midi": 70,
            "name": "A#4",
            "ticks": 190080,
            "time": 113.14274400000001,
            "velocity": 0.8267716535433071
          },
          {
            "duration": 0.22857120000000464,
            "durationTicks": 384,
            "midi": 74,
            "name": "D5",
            "ticks": 190080,
            "time": 113.14274400000001,
            "velocity": 0.8267716535433071
          },
          {
            "duration": 0.22857119999999043,
            "durationTicks": 384,
            "midi": 72,
            "name": "C5",
            "ticks": 192000,
            "time": 114.28560000000002,
            "velocity": 0.8267716535433071
          },
          {
            "duration": 0.22857119999999043,
            "durationTicks": 384,
            "midi": 78,
            "name": "F#5",
            "ticks": 192000,
            "time": 114.28560000000002,
            "velocity": 0.8267716535433071
          },
          {
            "duration": 0.2857139999999845,
            "durationTicks": 480,
            "midi": 66,
            "name": "F#4",
            "ticks": 219360,
            "time": 130.571298,
            "velocity": 0.5511811023622047
          },
          {
            "duration": 0.2857140000000129,
            "durationTicks": 480,
            "midi": 67,
            "name": "G4",
            "ticks": 219840,
            "time": 130.857012,
            "velocity": 0.5511811023622047
          },
          {
            "duration": 0.2857140000000129,
            "durationTicks": 480,
            "midi": 69,
            "name": "A4",
            "ticks": 220320,
            "time": 131.142726,
            "velocity": 0.5511811023622047
          },
          {
            "duration": 0.2857139999999845,
            "durationTicks": 480,
            "midi": 70,
            "name": "A#4",
            "ticks": 220800,
            "time": 131.42844000000002,
            "velocity": 0.5511811023622047
          },
          {
            "duration": 0.14285699999999224,
            "durationTicks": 240,
            "midi": 72,
            "name": "C5",
            "ticks": 221280,
            "time": 131.714154,
            "velocity": 0.5511811023622047
          },
          {
            "duration": 0.14285700000002066,
            "durationTicks": 240,
            "midi": 70,
            "name": "A#4",
            "ticks": 221520,
            "time": 131.857011,
            "velocity": 0.5511811023622047
          },
          {
            "duration": 0.2857139999999845,
            "durationTicks": 480,
            "midi": 69,
            "name": "A4",
            "ticks": 221760,
            "time": 131.99986800000002,
            "velocity": 0.5511811023622047
          },
          {
            "duration": 0.2714282999999966,
            "durationTicks": 456,
            "midi": 67,
            "name": "G4",
            "ticks": 222240,
            "time": 132.285582,
            "velocity": 0.5511811023622047
          },
          {
            "duration": 0.22857120000000464,
            "durationTicks": 384,
            "midi": 66,
            "name": "F#4",
            "ticks": 222720,
            "time": 132.57129600000002,
            "velocity": 0.5511811023622047
          },
          {
            "duration": 0.5714279999999974,
            "durationTicks": 960,
            "midi": 79,
            "name": "G5",
            "ticks": 223680,
            "time": 133.14272400000002,
            "velocity": 0.8267716535433071
          },
          {
            "duration": 0.5714279999999974,
            "durationTicks": 960,
            "midi": 82,
            "name": "A#5",
            "ticks": 223680,
            "time": 133.14272400000002,
            "velocity": 0.8267716535433071
          },
          {
            "duration": 0.22857120000000464,
            "durationTicks": 384,
            "midi": 78,
            "name": "F#5",
            "ticks": 224640,
            "time": 133.714152,
            "velocity": 0.8267716535433071
          },
          {
            "duration": 0.22857120000000464,
            "durationTicks": 384,
            "midi": 81,
            "name": "A5",
            "ticks": 224640,
            "time": 133.714152,
            "velocity": 0.8267716535433071
          },
          {
            "duration": 0.5714279999999974,
            "durationTicks": 960,
            "midi": 79,
            "name": "G5",
            "ticks": 225600,
            "time": 134.28558,
            "velocity": 0.8267716535433071
          },
          {
            "duration": 0.5714279999999974,
            "durationTicks": 960,
            "midi": 82,
            "name": "A#5",
            "ticks": 225600,
            "time": 134.28558,
            "velocity": 0.8267716535433071
          },
          {
            "duration": 0.22857120000000464,
            "durationTicks": 384,
            "midi": 78,
            "name": "F#5",
            "ticks": 226560,
            "time": 134.857008,
            "velocity": 0.8267716535433071
          },
          {
            "duration": 0.22857120000000464,
            "durationTicks": 384,
            "midi": 81,
            "name": "A5",
            "ticks": 226560,
            "time": 134.857008,
            "velocity": 0.8267716535433071
          },
          {
            "duration": 0.5714279999999974,
            "durationTicks": 960,
            "midi": 79,
            "name": "G5",
            "ticks": 227520,
            "time": 135.428436,
            "velocity": 0.8267716535433071
          },
          {
            "duration": 0.5714279999999974,
            "durationTicks": 960,
            "midi": 82,
            "name": "A#5",
            "ticks": 227520,
            "time": 135.428436,
            "velocity": 0.8267716535433071
          },
          {
            "duration": 0.1714284000000248,
            "durationTicks": 288,
            "midi": 78,
            "name": "F#5",
            "ticks": 228480,
            "time": 135.999864,
            "velocity": 0.8267716535433071
          },
          {
            "duration": 0.1714284000000248,
            "durationTicks": 288,
            "midi": 81,
            "name": "A5",
            "ticks": 228480,
            "time": 135.999864,
            "velocity": 0.8267716535433071
          },
          {
            "duration": 0.17142839999999637,
            "durationTicks": 288,
            "midi": 79,
            "name": "G5",
            "ticks": 228960,
            "time": 136.28557800000002,
            "velocity": 0.8267716535433071
          },
          {
            "duration": 0.17142839999999637,
            "durationTicks": 288,
            "midi": 82,
            "name": "A#5",
            "ticks": 228960,
            "time": 136.28557800000002,
            "velocity": 0.8267716535433071
          },
          {
            "duration": 0.1714284000000248,
            "durationTicks": 288,
            "midi": 78,
            "name": "F#5",
            "ticks": 229440,
            "time": 136.571292,
            "velocity": 0.8267716535433071
          },
          {
            "duration": 0.1714284000000248,
            "durationTicks": 288,
            "midi": 81,
            "name": "A5",
            "ticks": 229440,
            "time": 136.571292,
            "velocity": 0.8267716535433071
          },
          {
            "duration": 0.17142839999999637,
            "durationTicks": 288,
            "midi": 79,
            "name": "G5",
            "ticks": 229920,
            "time": 136.857006,
            "velocity": 0.8267716535433071
          },
          {
            "duration": 0.17142839999999637,
            "durationTicks": 288,
            "midi": 82,
            "name": "A#5",
            "ticks": 229920,
            "time": 136.857006,
            "velocity": 0.8267716535433071
          },
          {
            "duration": 0.4571424000000093,
            "durationTicks": 768,
            "midi": 78,
            "name": "F#5",
            "ticks": 230400,
            "time": 137.14272,
            "velocity": 0.8267716535433071
          },
          {
            "duration": 0.4571424000000093,
            "durationTicks": 768,
            "midi": 81,
            "name": "A5",
            "ticks": 230400,
            "time": 137.14272,
            "velocity": 0.8267716535433071
          },
          {
            "duration": 2.2285692000000097,
            "durationTicks": 3744,
            "midi": 74,
            "name": "D5",
            "ticks": 234240,
            "time": 139.42843200000002,
            "velocity": 0.5511811023622047
          },
          {
            "duration": 4.514281199999999,
            "durationTicks": 7584,
            "midi": 82,
            "name": "A#5",
            "ticks": 234240,
            "time": 139.42843200000002,
            "velocity": 0.5511811023622047
          },
          {
            "duration": 4.514281199999999,
            "durationTicks": 7584,
            "midi": 72,
            "name": "C5",
            "ticks": 238080,
            "time": 141.714144,
            "velocity": 0.5511811023622047
          },
          {
            "duration": 2.2285691999999813,
            "durationTicks": 3744,
            "midi": 81,
            "name": "A5",
            "ticks": 241920,
            "time": 143.99985600000002,
            "velocity": 0.5511811023622047
          },
          {
            "duration": 0.9142848000000185,
            "durationTicks": 1536,
            "midi": 74,
            "name": "D5",
            "ticks": 245760,
            "time": 146.285568,
            "velocity": 0.8267716535433071
          },
          {
            "duration": 0.9142848000000185,
            "durationTicks": 1536,
            "midi": 82,
            "name": "A#5",
            "ticks": 245760,
            "time": 146.285568,
            "velocity": 0.8267716535433071
          },
          {
            "duration": 0.9142848000000185,
            "durationTicks": 1536,
            "midi": 77,
            "name": "F5",
            "ticks": 247680,
            "time": 147.428424,
            "velocity": 0.8267716535433071
          },
          {
            "duration": 0.9142848000000185,
            "durationTicks": 1536,
            "midi": 75,
            "name": "D#5",
            "ticks": 249600,
            "time": 148.57128,
            "velocity": 0.8267716535433071
          },
          {
            "duration": 0.9142847999999901,
            "durationTicks": 1536,
            "midi": 74,
            "name": "D5",
            "ticks": 251520,
            "time": 149.71413600000002,
            "velocity": 0.8267716535433071
          },
          {
            "duration": 0.9142848000000185,
            "durationTicks": 1536,
            "midi": 72,
            "name": "C5",
            "ticks": 253440,
            "time": 150.85699200000002,
            "velocity": 0.8267716535433071
          },
          {
            "duration": 0.9142848000000185,
            "durationTicks": 1536,
            "midi": 70,
            "name": "A#4",
            "ticks": 255360,
            "time": 151.99984800000001,
            "velocity": 0.8267716535433071
          },
          {
            "duration": 0.9142848000000185,
            "durationTicks": 1536,
            "midi": 79,
            "name": "G5",
            "ticks": 257280,
            "time": 153.142704,
            "velocity": 0.7244094488188977
          },
          {
            "duration": 0.9142848000000185,
            "durationTicks": 1536,
            "midi": 82,
            "name": "A#5",
            "ticks": 257280,
            "time": 153.142704,
            "velocity": 0.8818897637795275
          },
          {
            "duration": 0.9142848000000185,
            "durationTicks": 1536,
            "midi": 79,
            "name": "G5",
            "ticks": 259200,
            "time": 154.28556,
            "velocity": 0.7244094488188977
          },
          {
            "duration": 0.9142848000000185,
            "durationTicks": 1536,
            "midi": 82,
            "name": "A#5",
            "ticks": 259200,
            "time": 154.28556,
            "velocity": 0.8818897637795275
          },
          {
            "duration": 0.9142847999999901,
            "durationTicks": 1536,
            "midi": 79,
            "name": "G5",
            "ticks": 261120,
            "time": 155.42841600000003,
            "velocity": 0.7244094488188977
          },
          {
            "duration": 0.9142847999999901,
            "durationTicks": 1536,
            "midi": 82,
            "name": "A#5",
            "ticks": 261120,
            "time": 155.42841600000003,
            "velocity": 0.8818897637795275
          },
          {
            "duration": 0.9142847999999901,
            "durationTicks": 1536,
            "midi": 79,
            "name": "G5",
            "ticks": 263040,
            "time": 156.57127200000002,
            "velocity": 0.7244094488188977
          },
          {
            "duration": 0.9142847999999901,
            "durationTicks": 1536,
            "midi": 82,
            "name": "A#5",
            "ticks": 263040,
            "time": 156.57127200000002,
            "velocity": 0.8818897637795275
          },
          {
            "duration": 1.599998400000004,
            "durationTicks": 2688,
            "midi": 77,
            "name": "F5",
            "ticks": 264960,
            "time": 157.71412800000002,
            "velocity": 0.7244094488188977
          },
          {
            "duration": 0.9142848000000185,
            "durationTicks": 1536,
            "midi": 81,
            "name": "A5",
            "ticks": 264960,
            "time": 157.71412800000002,
            "velocity": 0.7244094488188977
          },
          {
            "duration": 0.4571424000000093,
            "durationTicks": 768,
            "midi": 82,
            "name": "A#5",
            "ticks": 266880,
            "time": 158.856984,
            "velocity": 0.8267716535433071
          },
          {
            "duration": 0.4571424000000093,
            "durationTicks": 768,
            "midi": 76,
            "name": "E5",
            "ticks": 267840,
            "time": 159.428412,
            "velocity": 0.8267716535433071
          },
          {
            "duration": 0.4571424000000093,
            "durationTicks": 768,
            "midi": 79,
            "name": "G5",
            "ticks": 267840,
            "time": 159.428412,
            "velocity": 0.8267716535433071
          },
          {
            "duration": 1.599998400000004,
            "durationTicks": 2688,
            "midi": 77,
            "name": "F5",
            "ticks": 268800,
            "time": 159.99984,
            "velocity": 0.8267716535433071
          },
          {
            "duration": 0.9142848000000185,
            "durationTicks": 1536,
            "midi": 81,
            "name": "A5",
            "ticks": 268800,
            "time": 159.99984,
            "velocity": 0.8267716535433071
          },
          {
            "duration": 0.4571424000000093,
            "durationTicks": 768,
            "midi": 82,
            "name": "A#5",
            "ticks": 270720,
            "time": 161.142696,
            "velocity": 0.8267716535433071
          },
          {
            "duration": 0.45714239999998085,
            "durationTicks": 768,
            "midi": 76,
            "name": "E5",
            "ticks": 271680,
            "time": 161.71412400000003,
            "velocity": 0.8267716535433071
          },
          {
            "duration": 0.45714239999998085,
            "durationTicks": 768,
            "midi": 79,
            "name": "G5",
            "ticks": 271680,
            "time": 161.71412400000003,
            "velocity": 0.8267716535433071
          },
          {
            "duration": 0.22857119999997622,
            "durationTicks": 384,
            "midi": 77,
            "name": "F5",
            "ticks": 272640,
            "time": 162.28555200000002,
            "velocity": 0.8267716535433071
          },
          {
            "duration": 0.22857119999997622,
            "durationTicks": 384,
            "midi": 81,
            "name": "A5",
            "ticks": 272640,
            "time": 162.28555200000002,
            "velocity": 0.8267716535433071
          },
          {
            "duration": 0.22857119999997622,
            "durationTicks": 384,
            "midi": 69,
            "name": "A4",
            "ticks": 273600,
            "time": 162.85698000000002,
            "velocity": 0.7244094488188977
          },
          {
            "duration": 0.22857119999997622,
            "durationTicks": 384,
            "midi": 72,
            "name": "C5",
            "ticks": 273600,
            "time": 162.85698000000002,
            "velocity": 0.7244094488188977
          },
          {
            "duration": 0.8571420000000103,
            "durationTicks": 1440,
            "midi": 75,
            "name": "D#5",
            "ticks": 278400,
            "time": 165.71412,
            "velocity": 0.5511811023622047
          },
          {
            "duration": 0.07142849999999612,
            "durationTicks": 120,
            "midi": 77,
            "name": "F5",
            "ticks": 279840,
            "time": 166.57126200000002,
            "velocity": 0.5511811023622047
          },
          {
            "duration": 0.07142849999999612,
            "durationTicks": 120,
            "midi": 75,
            "name": "D#5",
            "ticks": 279960,
            "time": 166.64269050000001,
            "velocity": 0.5511811023622047
          },
          {
            "duration": 0.07142849999999612,
            "durationTicks": 120,
            "midi": 74,
            "name": "D5",
            "ticks": 280080,
            "time": 166.714119,
            "velocity": 0.5511811023622047
          },
          {
            "duration": 0.07142849999999612,
            "durationTicks": 120,
            "midi": 72,
            "name": "C5",
            "ticks": 280200,
            "time": 166.7855475,
            "velocity": 0.5511811023622047
          },
          {
            "duration": 0.22857120000000464,
            "durationTicks": 384,
            "midi": 70,
            "name": "A#4",
            "ticks": 280320,
            "time": 166.856976,
            "velocity": 0.5511811023622047
          },
          {
            "duration": 0.14285700000002066,
            "durationTicks": 240,
            "midi": 70,
            "name": "A#4",
            "ticks": 289920,
            "time": 172.571256,
            "velocity": 0.5511811023622047
          },
          {
            "duration": 0.14285699999999224,
            "durationTicks": 240,
            "midi": 69,
            "name": "A4",
            "ticks": 290160,
            "time": 172.71411300000003,
            "velocity": 0.5511811023622047
          },
          {
            "duration": 0.14285699999999224,
            "durationTicks": 240,
            "midi": 72,
            "name": "C5",
            "ticks": 290400,
            "time": 172.85697000000002,
            "velocity": 0.5511811023622047
          },
          {
            "duration": 0.14285699999999224,
            "durationTicks": 240,
            "midi": 70,
            "name": "A#4",
            "ticks": 290640,
            "time": 172.999827,
            "velocity": 0.5511811023622047
          },
          {
            "duration": 0.14285700000002066,
            "durationTicks": 240,
            "midi": 74,
            "name": "D5",
            "ticks": 290880,
            "time": 173.142684,
            "velocity": 0.5511811023622047
          },
          {
            "duration": 0.14285699999999224,
            "durationTicks": 240,
            "midi": 72,
            "name": "C5",
            "ticks": 291120,
            "time": 173.28554100000002,
            "velocity": 0.5511811023622047
          },
          {
            "duration": 0.14285699999999224,
            "durationTicks": 240,
            "midi": 75,
            "name": "D#5",
            "ticks": 291360,
            "time": 173.42839800000002,
            "velocity": 0.5511811023622047
          },
          {
            "duration": 0.11428559999998811,
            "durationTicks": 192,
            "midi": 74,
            "name": "D5",
            "ticks": 291600,
            "time": 173.571255,
            "velocity": 0.5511811023622047
          },
          {
            "duration": 0.8571420000000103,
            "durationTicks": 1440,
            "midi": 77,
            "name": "F5",
            "ticks": 291840,
            "time": 173.714112,
            "velocity": 0.5511811023622047
          },
          {
            "duration": 0.2857140000000129,
            "durationTicks": 480,
            "midi": 76,
            "name": "E5",
            "ticks": 293280,
            "time": 174.571254,
            "velocity": 0.5511811023622047
          },
          {
            "duration": 0.22857119999997622,
            "durationTicks": 384,
            "midi": 75,
            "name": "D#5",
            "ticks": 293760,
            "time": 174.85696800000002,
            "velocity": 0.5511811023622047
          },
          {
            "duration": 0.18571410000001265,
            "durationTicks": 312,
            "midi": 70,
            "name": "A#4",
            "ticks": 296160,
            "time": 176.285538,
            "velocity": 0.5511811023622047
          },
          {
            "duration": 0.5142851999999891,
            "durationTicks": 864,
            "midi": 70,
            "name": "A#4",
            "ticks": 296640,
            "time": 176.57125200000002,
            "velocity": 0.5511811023622047
          },
          {
            "duration": 0.22857119999997622,
            "durationTicks": 384,
            "midi": 72,
            "name": "C5",
            "ticks": 297120,
            "time": 176.85696600000003,
            "velocity": 0.5511811023622047
          },
          {
            "duration": 0.42857100000000514,
            "durationTicks": 720,
            "midi": 70,
            "name": "A#4",
            "ticks": 297600,
            "time": 177.14268,
            "velocity": 0.5511811023622047
          },
          {
            "duration": 0.42857100000000514,
            "durationTicks": 720,
            "midi": 74,
            "name": "D5",
            "ticks": 297600,
            "time": 177.14268,
            "velocity": 0.5511811023622047
          },
          {
            "duration": 0.14285699999999224,
            "durationTicks": 240,
            "midi": 72,
            "name": "C5",
            "ticks": 298320,
            "time": 177.57125100000002,
            "velocity": 0.5511811023622047
          },
          {
            "duration": 0.14285699999999224,
            "durationTicks": 240,
            "midi": 75,
            "name": "D#5",
            "ticks": 298320,
            "time": 177.57125100000002,
            "velocity": 0.5511811023622047
          },
          {
            "duration": 0.22857120000000464,
            "durationTicks": 384,
            "midi": 69,
            "name": "A4",
            "ticks": 298560,
            "time": 177.714108,
            "velocity": 0.5511811023622047
          },
          {
            "duration": 0.22857120000000464,
            "durationTicks": 384,
            "midi": 72,
            "name": "C5",
            "ticks": 298560,
            "time": 177.714108,
            "velocity": 0.5511811023622047
          },
          {
            "duration": 0.6857136000000139,
            "durationTicks": 1152,
            "midi": 79,
            "name": "G5",
            "ticks": 299520,
            "time": 178.285536,
            "velocity": 0.5511811023622047
          },
          {
            "duration": 0.22857119999997622,
            "durationTicks": 384,
            "midi": 78,
            "name": "F#5",
            "ticks": 300960,
            "time": 179.14267800000002,
            "velocity": 0.5511811023622047
          },
          {
            "duration": 0.22857120000000464,
            "durationTicks": 384,
            "midi": 77,
            "name": "F5",
            "ticks": 301440,
            "time": 179.428392,
            "velocity": 0.5511811023622047
          },
          {
            "duration": 0.22857119999997622,
            "durationTicks": 384,
            "midi": 76,
            "name": "E5",
            "ticks": 301920,
            "time": 179.71410600000002,
            "velocity": 0.5511811023622047
          },
          {
            "duration": 0.22857119999997622,
            "durationTicks": 384,
            "midi": 75,
            "name": "D#5",
            "ticks": 302400,
            "time": 179.99982000000003,
            "velocity": 0.5511811023622047
          },
          {
            "duration": 0.22857119999997622,
            "durationTicks": 384,
            "midi": 74,
            "name": "D5",
            "ticks": 302880,
            "time": 180.285534,
            "velocity": 0.4566929133858268
          },
          {
            "duration": 0.8571419999999819,
            "durationTicks": 1440,
            "midi": 70,
            "name": "A#4",
            "ticks": 303360,
            "time": 180.57124800000003,
            "velocity": 0.4566929133858268
          },
          {
            "duration": 0.8571419999999819,
            "durationTicks": 1440,
            "midi": 73,
            "name": "C#5",
            "ticks": 303360,
            "time": 180.57124800000003,
            "velocity": 0.4566929133858268
          },
          {
            "duration": 0.22857120000000464,
            "durationTicks": 384,
            "midi": 68,
            "name": "G#4",
            "ticks": 304800,
            "time": 181.42839,
            "velocity": 0.4566929133858268
          },
          {
            "duration": 0.22857120000000464,
            "durationTicks": 384,
            "midi": 72,
            "name": "C5",
            "ticks": 304800,
            "time": 181.42839,
            "velocity": 0.4566929133858268
          },
          {
            "duration": 0.8571419999999819,
            "durationTicks": 1440,
            "midi": 70,
            "name": "A#4",
            "ticks": 305280,
            "time": 181.71410400000002,
            "velocity": 0.4566929133858268
          },
          {
            "duration": 0.8571419999999819,
            "durationTicks": 1440,
            "midi": 73,
            "name": "C#5",
            "ticks": 305280,
            "time": 181.71410400000002,
            "velocity": 0.4566929133858268
          },
          {
            "duration": 0.22857120000000464,
            "durationTicks": 384,
            "midi": 68,
            "name": "G#4",
            "ticks": 306720,
            "time": 182.571246,
            "velocity": 0.4566929133858268
          },
          {
            "duration": 0.22857120000000464,
            "durationTicks": 384,
            "midi": 72,
            "name": "C5",
            "ticks": 306720,
            "time": 182.571246,
            "velocity": 0.4566929133858268
          },
          {
            "duration": 0.8571420000000103,
            "durationTicks": 1440,
            "midi": 70,
            "name": "A#4",
            "ticks": 307200,
            "time": 182.85696000000002,
            "velocity": 0.4566929133858268
          },
          {
            "duration": 0.8571420000000103,
            "durationTicks": 1440,
            "midi": 73,
            "name": "C#5",
            "ticks": 307200,
            "time": 182.85696000000002,
            "velocity": 0.4566929133858268
          },
          {
            "duration": 0.22857119999997622,
            "durationTicks": 384,
            "midi": 68,
            "name": "G#4",
            "ticks": 308640,
            "time": 183.71410200000003,
            "velocity": 0.4566929133858268
          },
          {
            "duration": 0.22857119999997622,
            "durationTicks": 384,
            "midi": 72,
            "name": "C5",
            "ticks": 308640,
            "time": 183.71410200000003,
            "velocity": 0.4566929133858268
          },
          {
            "duration": 0.8571420000000103,
            "durationTicks": 1440,
            "midi": 70,
            "name": "A#4",
            "ticks": 309120,
            "time": 183.999816,
            "velocity": 0.4566929133858268
          },
          {
            "duration": 0.8571420000000103,
            "durationTicks": 1440,
            "midi": 73,
            "name": "C#5",
            "ticks": 309120,
            "time": 183.999816,
            "velocity": 0.4566929133858268
          },
          {
            "duration": 0.22857119999997622,
            "durationTicks": 384,
            "midi": 68,
            "name": "G#4",
            "ticks": 310560,
            "time": 184.85695800000002,
            "velocity": 0.4566929133858268
          },
          {
            "duration": 0.22857119999997622,
            "durationTicks": 384,
            "midi": 72,
            "name": "C5",
            "ticks": 310560,
            "time": 184.85695800000002,
            "velocity": 0.4566929133858268
          },
          {
            "duration": 2.0571408000000133,
            "durationTicks": 3456,
            "midi": 73,
            "name": "C#5",
            "ticks": 311040,
            "time": 185.142672,
            "velocity": 0.5511811023622047
          },
          {
            "duration": 0.9142848000000185,
            "durationTicks": 1536,
            "midi": 79,
            "name": "G5",
            "ticks": 311040,
            "time": 185.142672,
            "velocity": 0.5511811023622047
          },
          {
            "duration": 0.9142847999999901,
            "durationTicks": 1536,
            "midi": 82,
            "name": "A#5",
            "ticks": 312960,
            "time": 186.28552800000003,
            "velocity": 0.7244094488188977
          },
          {
            "duration": 1.0857131999999865,
            "durationTicks": 1824,
            "midi": 74,
            "name": "D5",
            "ticks": 314880,
            "time": 187.42838400000002,
            "velocity": 0.8267716535433071
          },
          {
            "duration": 1.0857131999999865,
            "durationTicks": 1824,
            "midi": 82,
            "name": "A#5",
            "ticks": 314880,
            "time": 187.42838400000002,
            "velocity": 0.8267716535433071
          },
          {
            "duration": 1.1428559999999948,
            "durationTicks": 1920,
            "midi": 75,
            "name": "D#5",
            "ticks": 316800,
            "time": 188.57124000000002,
            "velocity": 0.8267716535433071
          },
          {
            "duration": 0.07142849999999612,
            "durationTicks": 120,
            "midi": 82,
            "name": "A#5",
            "ticks": 316800,
            "time": 188.57124000000002,
            "velocity": 0.8267716535433071
          },
          {
            "duration": 0.07142849999999612,
            "durationTicks": 120,
            "midi": 81,
            "name": "A5",
            "ticks": 316920,
            "time": 188.6426685,
            "velocity": 0.8267716535433071
          },
          {
            "duration": 0.07142849999999612,
            "durationTicks": 120,
            "midi": 82,
            "name": "A#5",
            "ticks": 317040,
            "time": 188.714097,
            "velocity": 0.8267716535433071
          },
          {
            "duration": 0.07142849999999612,
            "durationTicks": 120,
            "midi": 81,
            "name": "A5",
            "ticks": 317160,
            "time": 188.7855255,
            "velocity": 0.8267716535433071
          },
          {
            "duration": 0.07142850000002454,
            "durationTicks": 120,
            "midi": 82,
            "name": "A#5",
            "ticks": 317280,
            "time": 188.856954,
            "velocity": 0.8267716535433071
          },
          {
            "duration": 0.07142849999999612,
            "durationTicks": 120,
            "midi": 81,
            "name": "A5",
            "ticks": 317400,
            "time": 188.92838250000003,
            "velocity": 0.8267716535433071
          },
          {
            "duration": 0.07142849999999612,
            "durationTicks": 120,
            "midi": 82,
            "name": "A#5",
            "ticks": 317520,
            "time": 188.99981100000002,
            "velocity": 0.8267716535433071
          },
          {
            "duration": 0.07142849999999612,
            "durationTicks": 120,
            "midi": 81,
            "name": "A5",
            "ticks": 317640,
            "time": 189.07123950000002,
            "velocity": 0.8267716535433071
          },
          {
            "duration": 0.07142849999999612,
            "durationTicks": 120,
            "midi": 82,
            "name": "A#5",
            "ticks": 317760,
            "time": 189.14266800000001,
            "velocity": 0.8267716535433071
          },
          {
            "duration": 0.07142849999999612,
            "durationTicks": 120,
            "midi": 81,
            "name": "A5",
            "ticks": 317880,
            "time": 189.2140965,
            "velocity": 0.8267716535433071
          },
          {
            "duration": 0.07142849999999612,
            "durationTicks": 120,
            "midi": 82,
            "name": "A#5",
            "ticks": 318000,
            "time": 189.285525,
            "velocity": 0.8267716535433071
          },
          {
            "duration": 0.07142850000002454,
            "durationTicks": 120,
            "midi": 81,
            "name": "A5",
            "ticks": 318120,
            "time": 189.3569535,
            "velocity": 0.8267716535433071
          },
          {
            "duration": 0.07142849999999612,
            "durationTicks": 120,
            "midi": 82,
            "name": "A#5",
            "ticks": 318240,
            "time": 189.42838200000003,
            "velocity": 0.8267716535433071
          },
          {
            "duration": 0.07142849999999612,
            "durationTicks": 120,
            "midi": 81,
            "name": "A5",
            "ticks": 318360,
            "time": 189.49981050000002,
            "velocity": 0.8267716535433071
          },
          {
            "duration": 0.07142849999999612,
            "durationTicks": 120,
            "midi": 79,
            "name": "G5",
            "ticks": 318480,
            "time": 189.57123900000002,
            "velocity": 0.8267716535433071
          },
          {
            "duration": 0.07142849999999612,
            "durationTicks": 120,
            "midi": 81,
            "name": "A5",
            "ticks": 318600,
            "time": 189.64266750000002,
            "velocity": 0.8267716535433071
          },
          {
            "duration": 0.22857120000000464,
            "durationTicks": 384,
            "midi": 74,
            "name": "D5",
            "ticks": 318720,
            "time": 189.714096,
            "velocity": 0.7244094488188977
          },
          {
            "duration": 0.22857120000000464,
            "durationTicks": 384,
            "midi": 82,
            "name": "A#5",
            "ticks": 318720,
            "time": 189.714096,
            "velocity": 0.7244094488188977
          },
          {
            "duration": 0.22857119999997622,
            "durationTicks": 384,
            "midi": 74,
            "name": "D5",
            "ticks": 322560,
            "time": 191.99980800000003,
            "velocity": 0.8267716535433071
          },
          {
            "duration": 0.22857119999997622,
            "durationTicks": 384,
            "midi": 77,
            "name": "F5",
            "ticks": 322560,
            "time": 191.99980800000003,
            "velocity": 0.8267716535433071
          },
          {
            "duration": 0.22857119999997622,
            "durationTicks": 384,
            "midi": 75,
            "name": "D#5",
            "ticks": 323520,
            "time": 192.57123600000003,
            "velocity": 0.8267716535433071
          },
          {
            "duration": 0.22857119999997622,
            "durationTicks": 384,
            "midi": 79,
            "name": "G5",
            "ticks": 323520,
            "time": 192.57123600000003,
            "velocity": 0.8267716535433071
          },
          {
            "duration": 0.22857119999997622,
            "durationTicks": 384,
            "midi": 77,
            "name": "F5",
            "ticks": 324480,
            "time": 193.14266400000002,
            "velocity": 0.8267716535433071
          },
          {
            "duration": 0.22857119999997622,
            "durationTicks": 384,
            "midi": 81,
            "name": "A5",
            "ticks": 324480,
            "time": 193.14266400000002,
            "velocity": 0.8267716535433071
          },
          {
            "duration": 0.22857119999997622,
            "durationTicks": 384,
            "midi": 77,
            "name": "F5",
            "ticks": 325440,
            "time": 193.71409200000002,
            "velocity": 0.8267716535433071
          },
          {
            "duration": 0.22857119999997622,
            "durationTicks": 384,
            "midi": 82,
            "name": "A#5",
            "ticks": 325440,
            "time": 193.71409200000002,
            "velocity": 0.8267716535433071
          },
          {
            "duration": 0.14285699999999224,
            "durationTicks": 240,
            "midi": 79,
            "name": "G5",
            "ticks": 331680,
            "time": 197.42837400000002,
            "velocity": 0.6299212598425197
          },
          {
            "duration": 0.11428559999998811,
            "durationTicks": 192,
            "midi": 77,
            "name": "F5",
            "ticks": 331920,
            "time": 197.571231,
            "velocity": 0.6299212598425197
          },
          {
            "duration": 0.22857120000000464,
            "durationTicks": 384,
            "midi": 77,
            "name": "F5",
            "ticks": 332160,
            "time": 197.714088,
            "velocity": 0.6299212598425197
          },
          {
            "duration": 0.14285699999999224,
            "durationTicks": 240,
            "midi": 79,
            "name": "G5",
            "ticks": 332640,
            "time": 197.99980200000002,
            "velocity": 0.6299212598425197
          },
          {
            "duration": 0.11428559999998811,
            "durationTicks": 192,
            "midi": 77,
            "name": "F5",
            "ticks": 332880,
            "time": 198.142659,
            "velocity": 0.6299212598425197
          },
          {
            "duration": 0.22857119999997622,
            "durationTicks": 384,
            "midi": 77,
            "name": "F5",
            "ticks": 333120,
            "time": 198.28551600000003,
            "velocity": 0.6299212598425197
          },
          {
            "duration": 0.14285700000002066,
            "durationTicks": 240,
            "midi": 79,
            "name": "G5",
            "ticks": 335520,
            "time": 199.714086,
            "velocity": 0.6299212598425197
          },
          {
            "duration": 0.11428559999998811,
            "durationTicks": 192,
            "midi": 77,
            "name": "F5",
            "ticks": 335760,
            "time": 199.85694300000003,
            "velocity": 0.6299212598425197
          },
          {
            "duration": 0.22857119999997622,
            "durationTicks": 384,
            "midi": 77,
            "name": "F5",
            "ticks": 336000,
            "time": 199.99980000000002,
            "velocity": 0.6299212598425197
          },
          {
            "duration": 0.14285700000002066,
            "durationTicks": 240,
            "midi": 79,
            "name": "G5",
            "ticks": 336480,
            "time": 200.285514,
            "velocity": 0.6299212598425197
          },
          {
            "duration": 0.11428559999998811,
            "durationTicks": 192,
            "midi": 77,
            "name": "F5",
            "ticks": 336720,
            "time": 200.42837100000003,
            "velocity": 0.6299212598425197
          },
          {
            "duration": 0.22857119999997622,
            "durationTicks": 384,
            "midi": 77,
            "name": "F5",
            "ticks": 336960,
            "time": 200.57122800000002,
            "velocity": 0.6299212598425197
          },
          {
            "duration": 0.9142848000000185,
            "durationTicks": 1536,
            "midi": 81,
            "name": "A5",
            "ticks": 339840,
            "time": 202.285512,
            "velocity": 0.8267716535433071
          },
          {
            "duration": 0.9142848000000185,
            "durationTicks": 1536,
            "midi": 84,
            "name": "C6",
            "ticks": 339840,
            "time": 202.285512,
            "velocity": 0.8267716535433071
          },
          {
            "duration": 1.0285704000000067,
            "durationTicks": 1728,
            "midi": 79,
            "name": "G5",
            "ticks": 341760,
            "time": 203.428368,
            "velocity": 0.8267716535433071
          },
          {
            "duration": 0.4571424000000093,
            "durationTicks": 768,
            "midi": 82,
            "name": "A#5",
            "ticks": 341760,
            "time": 203.428368,
            "velocity": 0.8267716535433071
          },
          {
            "duration": 0.4571424000000093,
            "durationTicks": 768,
            "midi": 84,
            "name": "C6",
            "ticks": 342720,
            "time": 203.999796,
            "velocity": 0.8267716535433071
          },
          {
            "duration": 0.45714239999998085,
            "durationTicks": 768,
            "midi": 77,
            "name": "F5",
            "ticks": 343680,
            "time": 204.57122400000003,
            "velocity": 0.8267716535433071
          },
          {
            "duration": 0.45714239999998085,
            "durationTicks": 768,
            "midi": 82,
            "name": "A#5",
            "ticks": 343680,
            "time": 204.57122400000003,
            "velocity": 0.8267716535433071
          },
          {
            "duration": 0.4571424000000093,
            "durationTicks": 768,
            "midi": 75,
            "name": "D#5",
            "ticks": 344640,
            "time": 205.14265200000003,
            "velocity": 0.8267716535433071
          },
          {
            "duration": 0.4571424000000093,
            "durationTicks": 768,
            "midi": 81,
            "name": "A5",
            "ticks": 344640,
            "time": 205.14265200000003,
            "velocity": 0.8267716535433071
          },
          {
            "duration": 0.22857119999997622,
            "durationTicks": 384,
            "midi": 74,
            "name": "D5",
            "ticks": 345600,
            "time": 205.71408000000002,
            "velocity": 0.7244094488188977
          },
          {
            "duration": 0.22857119999997622,
            "durationTicks": 384,
            "midi": 82,
            "name": "A#5",
            "ticks": 345600,
            "time": 205.71408000000002,
            "velocity": 0.7244094488188977
          },
          {
            "duration": 0.14285699999999224,
            "durationTicks": 240,
            "midi": 79,
            "name": "G5",
            "ticks": 348960,
            "time": 207.71407800000003,
            "velocity": 0.6299212598425197
          },
          {
            "duration": 0.11428559999998811,
            "durationTicks": 192,
            "midi": 77,
            "name": "F5",
            "ticks": 349200,
            "time": 207.85693500000002,
            "velocity": 0.6299212598425197
          },
          {
            "duration": 0.22857120000000464,
            "durationTicks": 384,
            "midi": 77,
            "name": "F5",
            "ticks": 349440,
            "time": 207.999792,
            "velocity": 0.6299212598425197
          },
          {
            "duration": 0.14285699999999224,
            "durationTicks": 240,
            "midi": 79,
            "name": "G5",
            "ticks": 349920,
            "time": 208.28550600000003,
            "velocity": 0.6299212598425197
          },
          {
            "duration": 0.11428559999998811,
            "durationTicks": 192,
            "midi": 77,
            "name": "F5",
            "ticks": 350160,
            "time": 208.42836300000002,
            "velocity": 0.6299212598425197
          },
          {
            "duration": 0.22857120000000464,
            "durationTicks": 384,
            "midi": 77,
            "name": "F5",
            "ticks": 350400,
            "time": 208.57122,
            "velocity": 0.6299212598425197
          },
          {
            "duration": 0.14285699999999224,
            "durationTicks": 240,
            "midi": 79,
            "name": "G5",
            "ticks": 352800,
            "time": 209.99979000000002,
            "velocity": 0.6299212598425197
          },
          {
            "duration": 0.11428559999998811,
            "durationTicks": 192,
            "midi": 77,
            "name": "F5",
            "ticks": 353040,
            "time": 210.142647,
            "velocity": 0.6299212598425197
          },
          {
            "duration": 0.22857120000000464,
            "durationTicks": 384,
            "midi": 77,
            "name": "F5",
            "ticks": 353280,
            "time": 210.285504,
            "velocity": 0.6299212598425197
          },
          {
            "duration": 0.14285699999999224,
            "durationTicks": 240,
            "midi": 79,
            "name": "G5",
            "ticks": 353760,
            "time": 210.57121800000002,
            "velocity": 0.6299212598425197
          },
          {
            "duration": 0.11428560000001653,
            "durationTicks": 192,
            "midi": 77,
            "name": "F5",
            "ticks": 354000,
            "time": 210.714075,
            "velocity": 0.6299212598425197
          },
          {
            "duration": 0.22857119999997622,
            "durationTicks": 384,
            "midi": 77,
            "name": "F5",
            "ticks": 354240,
            "time": 210.85693200000003,
            "velocity": 0.6299212598425197
          },
          {
            "duration": 0.9142847999999901,
            "durationTicks": 1536,
            "midi": 81,
            "name": "A5",
            "ticks": 355200,
            "time": 211.42836000000003,
            "velocity": 0.8267716535433071
          },
          {
            "duration": 0.9142847999999901,
            "durationTicks": 1536,
            "midi": 84,
            "name": "C6",
            "ticks": 355200,
            "time": 211.42836000000003,
            "velocity": 0.8267716535433071
          },
          {
            "duration": 1.0285704000000067,
            "durationTicks": 1728,
            "midi": 79,
            "name": "G5",
            "ticks": 357120,
            "time": 212.57121600000002,
            "velocity": 0.8267716535433071
          },
          {
            "duration": 0.4571424000000093,
            "durationTicks": 768,
            "midi": 82,
            "name": "A#5",
            "ticks": 357120,
            "time": 212.57121600000002,
            "velocity": 0.8267716535433071
          },
          {
            "duration": 0.4571424000000093,
            "durationTicks": 768,
            "midi": 84,
            "name": "C6",
            "ticks": 358080,
            "time": 213.14264400000002,
            "velocity": 0.8267716535433071
          },
          {
            "duration": 0.4571424000000093,
            "durationTicks": 768,
            "midi": 77,
            "name": "F5",
            "ticks": 359040,
            "time": 213.71407200000002,
            "velocity": 0.8267716535433071
          },
          {
            "duration": 0.4571424000000093,
            "durationTicks": 768,
            "midi": 82,
            "name": "A#5",
            "ticks": 359040,
            "time": 213.71407200000002,
            "velocity": 0.8267716535433071
          },
          {
            "duration": 0.4571424000000093,
            "durationTicks": 768,
            "midi": 75,
            "name": "D#5",
            "ticks": 360000,
            "time": 214.2855,
            "velocity": 0.8267716535433071
          },
          {
            "duration": 0.4571424000000093,
            "durationTicks": 768,
            "midi": 81,
            "name": "A5",
            "ticks": 360000,
            "time": 214.2855,
            "velocity": 0.8267716535433071
          },
          {
            "duration": 0.4571424000000093,
            "durationTicks": 768,
            "midi": 74,
            "name": "D5",
            "ticks": 360960,
            "time": 214.856928,
            "velocity": 0.8267716535433071
          },
          {
            "duration": 0.4571424000000093,
            "durationTicks": 768,
            "midi": 82,
            "name": "A#5",
            "ticks": 360960,
            "time": 214.856928,
            "velocity": 0.8267716535433071
          },
          {
            "duration": 0.11428559999998811,
            "durationTicks": 192,
            "midi": 77,
            "name": "F5",
            "ticks": 362640,
            "time": 215.856927,
            "velocity": 0.8267716535433071
          },
          {
            "duration": 0.11428560000001653,
            "durationTicks": 192,
            "midi": 75,
            "name": "D#5",
            "ticks": 362880,
            "time": 215.999784,
            "velocity": 0.8267716535433071
          },
          {
            "duration": 0.11428559999998811,
            "durationTicks": 192,
            "midi": 74,
            "name": "D5",
            "ticks": 363120,
            "time": 216.14264100000003,
            "velocity": 0.8267716535433071
          },
          {
            "duration": 0.11428559999998811,
            "durationTicks": 192,
            "midi": 72,
            "name": "C5",
            "ticks": 363360,
            "time": 216.28549800000002,
            "velocity": 0.8267716535433071
          },
          {
            "duration": 0.11428559999998811,
            "durationTicks": 192,
            "midi": 70,
            "name": "A#4",
            "ticks": 363600,
            "time": 216.428355,
            "velocity": 0.8267716535433071
          },
          {
            "duration": 0.11428559999998811,
            "durationTicks": 192,
            "midi": 69,
            "name": "A4",
            "ticks": 363840,
            "time": 216.57121200000003,
            "velocity": 0.8267716535433071
          },
          {
            "duration": 0.11428559999998811,
            "durationTicks": 192,
            "midi": 67,
            "name": "G4",
            "ticks": 364080,
            "time": 216.71406900000002,
            "velocity": 0.8267716535433071
          },
          {
            "duration": 0.11428559999998811,
            "durationTicks": 192,
            "midi": 65,
            "name": "F4",
            "ticks": 364320,
            "time": 216.85692600000002,
            "velocity": 0.8267716535433071
          },
          {
            "duration": 0.11428560000001653,
            "durationTicks": 192,
            "midi": 63,
            "name": "D#4",
            "ticks": 364560,
            "time": 216.999783,
            "velocity": 0.8267716535433071
          },
          {
            "duration": 0.1999998000000005,
            "durationTicks": 336,
            "midi": 62,
            "name": "D4",
            "ticks": 364800,
            "time": 217.14264000000003,
            "velocity": 0.8267716535433071
          },
          {
            "duration": 0.4857138000000134,
            "durationTicks": 816,
            "midi": 70,
            "name": "A#4",
            "ticks": 365280,
            "time": 217.428354,
            "velocity": 0.8267716535433071
          },
          {
            "duration": 0.19999980000002893,
            "durationTicks": 336,
            "midi": 77,
            "name": "F5",
            "ticks": 365280,
            "time": 217.428354,
            "velocity": 0.8267716535433071
          },
          {
            "duration": 0.1999998000000005,
            "durationTicks": 336,
            "midi": 79,
            "name": "G5",
            "ticks": 365760,
            "time": 217.71406800000003,
            "velocity": 0.8267716535433071
          },
          {
            "duration": 0.19999980000002893,
            "durationTicks": 336,
            "midi": 75,
            "name": "D#5",
            "ticks": 366240,
            "time": 217.999782,
            "velocity": 0.8267716535433071
          },
          {
            "duration": 0.19999980000002893,
            "durationTicks": 336,
            "midi": 81,
            "name": "A5",
            "ticks": 366240,
            "time": 217.999782,
            "velocity": 0.8267716535433071
          },
          {
            "duration": 0.25714259999998035,
            "durationTicks": 432,
            "midi": 74,
            "name": "D5",
            "ticks": 366720,
            "time": 218.28549600000002,
            "velocity": 0.8267716535433071
          },
          {
            "duration": 0.11428559999998811,
            "durationTicks": 192,
            "midi": 82,
            "name": "A#5",
            "ticks": 366720,
            "time": 218.28549600000002,
            "velocity": 0.8267716535433071
          },
          {
            "duration": 0.11428559999998811,
            "durationTicks": 192,
            "midi": 77,
            "name": "F5",
            "ticks": 366960,
            "time": 218.42835300000002,
            "velocity": 0.8267716535433071
          },
          {
            "duration": 0.11428560000001653,
            "durationTicks": 192,
            "midi": 86,
            "name": "D6",
            "ticks": 367200,
            "time": 218.57121,
            "velocity": 0.8267716535433071
          },
          {
            "duration": 0.11428559999998811,
            "durationTicks": 192,
            "midi": 84,
            "name": "C6",
            "ticks": 367440,
            "time": 218.71406700000003,
            "velocity": 0.8267716535433071
          },
          {
            "duration": 0.11428559999998811,
            "durationTicks": 192,
            "midi": 82,
            "name": "A#5",
            "ticks": 367680,
            "time": 218.85692400000002,
            "velocity": 0.8267716535433071
          },
          {
            "duration": 0.11428559999998811,
            "durationTicks": 192,
            "midi": 81,
            "name": "A5",
            "ticks": 367920,
            "time": 218.999781,
            "velocity": 0.8267716535433071
          },
          {
            "duration": 0.11428560000001653,
            "durationTicks": 192,
            "midi": 79,
            "name": "G5",
            "ticks": 368160,
            "time": 219.142638,
            "velocity": 0.8267716535433071
          },
          {
            "duration": 0.11428559999998811,
            "durationTicks": 192,
            "midi": 77,
            "name": "F5",
            "ticks": 368400,
            "time": 219.28549500000003,
            "velocity": 0.8267716535433071
          },
          {
            "duration": 0.11428559999998811,
            "durationTicks": 192,
            "midi": 75,
            "name": "D#5",
            "ticks": 368640,
            "time": 219.42835200000002,
            "velocity": 0.8267716535433071
          },
          {
            "duration": 0.11428559999998811,
            "durationTicks": 192,
            "midi": 74,
            "name": "D5",
            "ticks": 368880,
            "time": 219.571209,
            "velocity": 0.8267716535433071
          },
          {
            "duration": 0.11428559999998811,
            "durationTicks": 192,
            "midi": 72,
            "name": "C5",
            "ticks": 369120,
            "time": 219.71406600000003,
            "velocity": 0.8267716535433071
          },
          {
            "duration": 0.11428559999998811,
            "durationTicks": 192,
            "midi": 70,
            "name": "A#4",
            "ticks": 369360,
            "time": 219.85692300000002,
            "velocity": 0.8267716535433071
          },
          {
            "duration": 0.11428559999998811,
            "durationTicks": 192,
            "midi": 69,
            "name": "A4",
            "ticks": 369600,
            "time": 219.99978000000002,
            "velocity": 0.8267716535433071
          },
          {
            "duration": 0.11428560000001653,
            "durationTicks": 192,
            "midi": 72,
            "name": "C5",
            "ticks": 369840,
            "time": 220.142637,
            "velocity": 0.8267716535433071
          },
          {
            "duration": 0.11428559999998811,
            "durationTicks": 192,
            "midi": 77,
            "name": "F5",
            "ticks": 370080,
            "time": 220.28549400000003,
            "velocity": 0.8267716535433071
          },
          {
            "duration": 0.11428559999998811,
            "durationTicks": 192,
            "midi": 75,
            "name": "D#5",
            "ticks": 370320,
            "time": 220.42835100000002,
            "velocity": 0.8267716535433071
          },
          {
            "duration": 0.19999980000002893,
            "durationTicks": 336,
            "midi": 74,
            "name": "D5",
            "ticks": 370560,
            "time": 220.571208,
            "velocity": 0.8267716535433071
          },
          {
            "duration": 0.1999998000000005,
            "durationTicks": 336,
            "midi": 70,
            "name": "A#4",
            "ticks": 371040,
            "time": 220.85692200000003,
            "velocity": 0.8267716535433071
          },
          {
            "duration": 0.1999998000000005,
            "durationTicks": 336,
            "midi": 77,
            "name": "F5",
            "ticks": 371040,
            "time": 220.85692200000003,
            "velocity": 0.8267716535433071
          },
          {
            "duration": 0.19999980000002893,
            "durationTicks": 336,
            "midi": 75,
            "name": "D#5",
            "ticks": 371520,
            "time": 221.142636,
            "velocity": 0.8267716535433071
          },
          {
            "duration": 0.19999980000002893,
            "durationTicks": 336,
            "midi": 79,
            "name": "G5",
            "ticks": 371520,
            "time": 221.142636,
            "velocity": 0.8267716535433071
          },
          {
            "duration": 0.1999998000000005,
            "durationTicks": 336,
            "midi": 81,
            "name": "A5",
            "ticks": 372000,
            "time": 221.42835000000002,
            "velocity": 0.8267716535433071
          },
          {
            "duration": 0.1999998000000005,
            "durationTicks": 336,
            "midi": 84,
            "name": "C6",
            "ticks": 372000,
            "time": 221.42835000000002,
            "velocity": 0.8267716535433071
          },
          {
            "duration": 0.19999980000002893,
            "durationTicks": 336,
            "midi": 82,
            "name": "A#5",
            "ticks": 372480,
            "time": 221.714064,
            "velocity": 0.8267716535433071
          },
          {
            "duration": 0.1999998000000005,
            "durationTicks": 336,
            "midi": 75,
            "name": "D#5",
            "ticks": 372960,
            "time": 221.99977800000002,
            "velocity": 0.8267716535433071
          },
          {
            "duration": 0.1999998000000005,
            "durationTicks": 336,
            "midi": 82,
            "name": "A#5",
            "ticks": 372960,
            "time": 221.99977800000002,
            "velocity": 0.8267716535433071
          },
          {
            "duration": 0.19999980000002893,
            "durationTicks": 336,
            "midi": 74,
            "name": "D5",
            "ticks": 373440,
            "time": 222.285492,
            "velocity": 0.8267716535433071
          },
          {
            "duration": 0.19999980000002893,
            "durationTicks": 336,
            "midi": 82,
            "name": "A#5",
            "ticks": 373440,
            "time": 222.285492,
            "velocity": 0.8267716535433071
          },
          {
            "duration": 0.1999998000000005,
            "durationTicks": 336,
            "midi": 75,
            "name": "D#5",
            "ticks": 373920,
            "time": 222.57120600000002,
            "velocity": 0.8267716535433071
          },
          {
            "duration": 0.1999998000000005,
            "durationTicks": 336,
            "midi": 77,
            "name": "F5",
            "ticks": 373920,
            "time": 222.57120600000002,
            "velocity": 0.8267716535433071
          },
          {
            "duration": 0.21428549999998836,
            "durationTicks": 360,
            "midi": 74,
            "name": "D5",
            "ticks": 374400,
            "time": 222.85692000000003,
            "velocity": 0.8267716535433071
          },
          {
            "duration": 0.21428549999998836,
            "durationTicks": 360,
            "midi": 77,
            "name": "F5",
            "ticks": 374400,
            "time": 222.85692000000003,
            "velocity": 0.8267716535433071
          },
          {
            "duration": 0.10714275000000839,
            "durationTicks": 180,
            "midi": 70,
            "name": "A#4",
            "ticks": 374880,
            "time": 223.14263400000002,
            "velocity": 0.8267716535433071
          },
          {
            "duration": 0.10714275000000839,
            "durationTicks": 180,
            "midi": 74,
            "name": "D5",
            "ticks": 374880,
            "time": 223.14263400000002,
            "velocity": 0.8267716535433071
          },
          {
            "duration": 0.10714275000000839,
            "durationTicks": 180,
            "midi": 70,
            "name": "A#4",
            "ticks": 375120,
            "time": 223.285491,
            "velocity": 0.8267716535433071
          },
          {
            "duration": 0.10714275000000839,
            "durationTicks": 180,
            "midi": 74,
            "name": "D5",
            "ticks": 375120,
            "time": 223.285491,
            "velocity": 0.8267716535433071
          },
          {
            "duration": 0.21428549999998836,
            "durationTicks": 360,
            "midi": 72,
            "name": "C5",
            "ticks": 375360,
            "time": 223.42834800000003,
            "velocity": 0.8267716535433071
          },
          {
            "duration": 0.21428549999998836,
            "durationTicks": 360,
            "midi": 75,
            "name": "D#5",
            "ticks": 375360,
            "time": 223.42834800000003,
            "velocity": 0.8267716535433071
          },
          {
            "duration": 0.10714275000000839,
            "durationTicks": 180,
            "midi": 72,
            "name": "C5",
            "ticks": 375840,
            "time": 223.714062,
            "velocity": 0.8267716535433071
          },
          {
            "duration": 0.10714275000000839,
            "durationTicks": 180,
            "midi": 75,
            "name": "D#5",
            "ticks": 375840,
            "time": 223.714062,
            "velocity": 0.8267716535433071
          },
          {
            "duration": 0.10714275000000839,
            "durationTicks": 180,
            "midi": 72,
            "name": "C5",
            "ticks": 376080,
            "time": 223.856919,
            "velocity": 0.8267716535433071
          },
          {
            "duration": 0.10714275000000839,
            "durationTicks": 180,
            "midi": 75,
            "name": "D#5",
            "ticks": 376080,
            "time": 223.856919,
            "velocity": 0.8267716535433071
          },
          {
            "duration": 0.21428549999998836,
            "durationTicks": 360,
            "midi": 74,
            "name": "D5",
            "ticks": 376320,
            "time": 223.99977600000003,
            "velocity": 0.8267716535433071
          },
          {
            "duration": 0.21428549999998836,
            "durationTicks": 360,
            "midi": 77,
            "name": "F5",
            "ticks": 376320,
            "time": 223.99977600000003,
            "velocity": 0.8267716535433071
          },
          {
            "duration": 0.10714275000000839,
            "durationTicks": 180,
            "midi": 70,
            "name": "A#4",
            "ticks": 376800,
            "time": 224.28549,
            "velocity": 0.8267716535433071
          },
          {
            "duration": 0.10714275000000839,
            "durationTicks": 180,
            "midi": 74,
            "name": "D5",
            "ticks": 376800,
            "time": 224.28549,
            "velocity": 0.8267716535433071
          },
          {
            "duration": 0.10714274999997997,
            "durationTicks": 180,
            "midi": 70,
            "name": "A#4",
            "ticks": 377040,
            "time": 224.42834700000003,
            "velocity": 0.8267716535433071
          },
          {
            "duration": 0.10714274999997997,
            "durationTicks": 180,
            "midi": 74,
            "name": "D5",
            "ticks": 377040,
            "time": 224.42834700000003,
            "velocity": 0.8267716535433071
          },
          {
            "duration": 0.21428549999998836,
            "durationTicks": 360,
            "midi": 72,
            "name": "C5",
            "ticks": 377280,
            "time": 224.57120400000002,
            "velocity": 0.8267716535433071
          },
          {
            "duration": 0.21428549999998836,
            "durationTicks": 360,
            "midi": 75,
            "name": "D#5",
            "ticks": 377280,
            "time": 224.57120400000002,
            "velocity": 0.8267716535433071
          },
          {
            "duration": 0.10714275000000839,
            "durationTicks": 180,
            "midi": 72,
            "name": "C5",
            "ticks": 377760,
            "time": 224.856918,
            "velocity": 0.8267716535433071
          },
          {
            "duration": 0.10714275000000839,
            "durationTicks": 180,
            "midi": 75,
            "name": "D#5",
            "ticks": 377760,
            "time": 224.856918,
            "velocity": 0.8267716535433071
          },
          {
            "duration": 0.10714274999997997,
            "durationTicks": 180,
            "midi": 72,
            "name": "C5",
            "ticks": 378000,
            "time": 224.99977500000003,
            "velocity": 0.8267716535433071
          },
          {
            "duration": 0.10714274999997997,
            "durationTicks": 180,
            "midi": 75,
            "name": "D#5",
            "ticks": 378000,
            "time": 224.99977500000003,
            "velocity": 0.8267716535433071
          },
          {
            "duration": 0.21428549999998836,
            "durationTicks": 360,
            "midi": 74,
            "name": "D5",
            "ticks": 378240,
            "time": 225.14263200000002,
            "velocity": 0.8267716535433071
          },
          {
            "duration": 0.21428549999998836,
            "durationTicks": 360,
            "midi": 77,
            "name": "F5",
            "ticks": 378240,
            "time": 225.14263200000002,
            "velocity": 0.8267716535433071
          },
          {
            "duration": 0.10714275000000839,
            "durationTicks": 180,
            "midi": 70,
            "name": "A#4",
            "ticks": 378720,
            "time": 225.428346,
            "velocity": 0.8267716535433071
          },
          {
            "duration": 0.10714275000000839,
            "durationTicks": 180,
            "midi": 74,
            "name": "D5",
            "ticks": 378720,
            "time": 225.428346,
            "velocity": 0.8267716535433071
          },
          {
            "duration": 0.10714274999997997,
            "durationTicks": 180,
            "midi": 70,
            "name": "A#4",
            "ticks": 378960,
            "time": 225.57120300000003,
            "velocity": 0.8267716535433071
          },
          {
            "duration": 0.10714274999997997,
            "durationTicks": 180,
            "midi": 74,
            "name": "D5",
            "ticks": 378960,
            "time": 225.57120300000003,
            "velocity": 0.8267716535433071
          },
          {
            "duration": 0.21428549999998836,
            "durationTicks": 360,
            "midi": 72,
            "name": "C5",
            "ticks": 379200,
            "time": 225.71406000000002,
            "velocity": 0.8267716535433071
          },
          {
            "duration": 0.21428549999998836,
            "durationTicks": 360,
            "midi": 75,
            "name": "D#5",
            "ticks": 379200,
            "time": 225.71406000000002,
            "velocity": 0.8267716535433071
          },
          {
            "duration": 0.10714274999997997,
            "durationTicks": 180,
            "midi": 72,
            "name": "C5",
            "ticks": 379680,
            "time": 225.99977400000003,
            "velocity": 0.8267716535433071
          },
          {
            "duration": 0.10714274999997997,
            "durationTicks": 180,
            "midi": 75,
            "name": "D#5",
            "ticks": 379680,
            "time": 225.99977400000003,
            "velocity": 0.8267716535433071
          },
          {
            "duration": 0.10714275000000839,
            "durationTicks": 180,
            "midi": 72,
            "name": "C5",
            "ticks": 379920,
            "time": 226.14263100000002,
            "velocity": 0.8267716535433071
          },
          {
            "duration": 0.10714275000000839,
            "durationTicks": 180,
            "midi": 75,
            "name": "D#5",
            "ticks": 379920,
            "time": 226.14263100000002,
            "velocity": 0.8267716535433071
          },
          {
            "duration": 0.21428550000001678,
            "durationTicks": 360,
            "midi": 70,
            "name": "A#4",
            "ticks": 380160,
            "time": 226.28548800000002,
            "velocity": 0.8267716535433071
          },
          {
            "duration": 0.21428550000001678,
            "durationTicks": 360,
            "midi": 74,
            "name": "D5",
            "ticks": 380160,
            "time": 226.28548800000002,
            "velocity": 0.8267716535433071
          },
          {
            "duration": 0.21428549999998836,
            "durationTicks": 360,
            "midi": 72,
            "name": "C5",
            "ticks": 380640,
            "time": 226.57120200000003,
            "velocity": 0.8267716535433071
          },
          {
            "duration": 0.21428549999998836,
            "durationTicks": 360,
            "midi": 75,
            "name": "D#5",
            "ticks": 380640,
            "time": 226.57120200000003,
            "velocity": 0.8267716535433071
          },
          {
            "duration": 0.21428550000001678,
            "durationTicks": 360,
            "midi": 70,
            "name": "A#4",
            "ticks": 381120,
            "time": 226.856916,
            "velocity": 0.8267716535433071
          },
          {
            "duration": 0.21428550000001678,
            "durationTicks": 360,
            "midi": 74,
            "name": "D5",
            "ticks": 381120,
            "time": 226.856916,
            "velocity": 0.8267716535433071
          },
          {
            "duration": 0.21428549999998836,
            "durationTicks": 360,
            "midi": 72,
            "name": "C5",
            "ticks": 381600,
            "time": 227.14263000000003,
            "velocity": 0.8267716535433071
          },
          {
            "duration": 0.21428549999998836,
            "durationTicks": 360,
            "midi": 75,
            "name": "D#5",
            "ticks": 381600,
            "time": 227.14263000000003,
            "velocity": 0.8267716535433071
          },
          {
            "duration": 0.22857120000000464,
            "durationTicks": 384,
            "midi": 70,
            "name": "A#4",
            "ticks": 382080,
            "time": 227.428344,
            "velocity": 0.8267716535433071
          },
          {
            "duration": 0.22857120000000464,
            "durationTicks": 384,
            "midi": 74,
            "name": "D5",
            "ticks": 382080,
            "time": 227.428344,
            "velocity": 0.8267716535433071
          },
          {
            "duration": 0.22857119999997622,
            "durationTicks": 384,
            "midi": 72,
            "name": "C5",
            "ticks": 384000,
            "time": 228.57120000000003,
            "velocity": 0.8267716535433071
          },
          {
            "duration": 0.22857119999997622,
            "durationTicks": 384,
            "midi": 78,
            "name": "F#5",
            "ticks": 384000,
            "time": 228.57120000000003,
            "velocity": 0.8267716535433071
          },
          {
            "duration": 0.22857119999997622,
            "durationTicks": 384,
            "midi": 79,
            "name": "G5",
            "ticks": 385920,
            "time": 229.71405600000003,
            "velocity": 0.8267716535433071
          },
          {
            "duration": 0.22857119999997622,
            "durationTicks": 384,
            "midi": 80,
            "name": "G#5",
            "ticks": 386880,
            "time": 230.28548400000003,
            "velocity": 0.8267716535433071
          },
          {
            "duration": 1.1428559999999948,
            "durationTicks": 1920,
            "midi": 83,
            "name": "B5",
            "ticks": 387840,
            "time": 230.85691200000002,
            "velocity": 0.5511811023622047
          },
          {
            "duration": 0.5714279999999974,
            "durationTicks": 960,
            "midi": 81,
            "name": "A5",
            "ticks": 389760,
            "time": 231.99976800000002,
            "velocity": 0.5511811023622047
          },
          {
            "duration": 0.5714279999999974,
            "durationTicks": 960,
            "midi": 80,
            "name": "G#5",
            "ticks": 390720,
            "time": 232.57119600000001,
            "velocity": 0.5511811023622047
          },
          {
            "duration": 0.5714279999999974,
            "durationTicks": 960,
            "midi": 78,
            "name": "F#5",
            "ticks": 391680,
            "time": 233.142624,
            "velocity": 0.5511811023622047
          },
          {
            "duration": 0.5714279999999974,
            "durationTicks": 960,
            "midi": 77,
            "name": "F5",
            "ticks": 392640,
            "time": 233.714052,
            "velocity": 0.5511811023622047
          },
          {
            "duration": 0.22857120000000464,
            "durationTicks": 384,
            "midi": 78,
            "name": "F#5",
            "ticks": 393600,
            "time": 234.28548,
            "velocity": 0.4566929133858268
          },
          {
            "duration": 0.5142851999999891,
            "durationTicks": 864,
            "midi": 78,
            "name": "F#5",
            "ticks": 412320,
            "time": 245.42832600000003,
            "velocity": 0.4566929133858268
          },
          {
            "duration": 0.22857119999997622,
            "durationTicks": 384,
            "midi": 81,
            "name": "A5",
            "ticks": 412320,
            "time": 245.42832600000003,
            "velocity": 0.4566929133858268
          },
          {
            "duration": 0.5142851999999891,
            "durationTicks": 864,
            "midi": 79,
            "name": "G5",
            "ticks": 412800,
            "time": 245.71404,
            "velocity": 0.8267716535433071
          },
          {
            "duration": 0.5142851999999891,
            "durationTicks": 864,
            "midi": 76,
            "name": "E5",
            "ticks": 413280,
            "time": 245.99975400000002,
            "velocity": 0.8267716535433071
          },
          {
            "duration": 0.5142851999999891,
            "durationTicks": 864,
            "midi": 78,
            "name": "F#5",
            "ticks": 413760,
            "time": 246.285468,
            "velocity": 0.8267716535433071
          },
          {
            "duration": 0.22857119999997622,
            "durationTicks": 384,
            "midi": 75,
            "name": "D#5",
            "ticks": 414240,
            "time": 246.57118200000002,
            "velocity": 0.8267716535433071
          },
          {
            "duration": 0.22857120000000464,
            "durationTicks": 384,
            "midi": 76,
            "name": "E5",
            "ticks": 414720,
            "time": 246.856896,
            "velocity": 0.8267716535433071
          },
          {
            "duration": 0.22857120000000464,
            "durationTicks": 384,
            "midi": 79,
            "name": "G5",
            "ticks": 414720,
            "time": 246.856896,
            "velocity": 0.8267716535433071
          },
          {
            "duration": 0.5142851999999607,
            "durationTicks": 864,
            "midi": 76,
            "name": "E5",
            "ticks": 420000,
            "time": 249.99975000000003,
            "velocity": 0.8267716535433071
          },
          {
            "duration": 0.5142851999999891,
            "durationTicks": 864,
            "midi": 81,
            "name": "A5",
            "ticks": 420480,
            "time": 250.28546400000002,
            "velocity": 0.8267716535433071
          },
          {
            "duration": 0.5142851999999891,
            "durationTicks": 864,
            "midi": 74,
            "name": "D5",
            "ticks": 420960,
            "time": 250.57117800000003,
            "velocity": 0.8267716535433071
          },
          {
            "duration": 0.5142851999999891,
            "durationTicks": 864,
            "midi": 79,
            "name": "G5",
            "ticks": 421440,
            "time": 250.85689200000002,
            "velocity": 0.8267716535433071
          },
          {
            "duration": 0.22857119999997622,
            "durationTicks": 384,
            "midi": 73,
            "name": "C#5",
            "ticks": 421920,
            "time": 251.14260600000003,
            "velocity": 0.8267716535433071
          },
          {
            "duration": 0.22857120000000464,
            "durationTicks": 384,
            "midi": 74,
            "name": "D5",
            "ticks": 422400,
            "time": 251.42832,
            "velocity": 0.8267716535433071
          },
          {
            "duration": 0.22857120000000464,
            "durationTicks": 384,
            "midi": 77,
            "name": "F5",
            "ticks": 422400,
            "time": 251.42832,
            "velocity": 0.8267716535433071
          },
          {
            "duration": 0.6857135999999855,
            "durationTicks": 1152,
            "midi": 67,
            "name": "G4",
            "ticks": 426240,
            "time": 253.71403200000003,
            "velocity": 0.8267716535433071
          },
          {
            "duration": 0.5142851999999891,
            "durationTicks": 864,
            "midi": 74,
            "name": "D5",
            "ticks": 427680,
            "time": 254.571174,
            "velocity": 0.8267716535433071
          },
          {
            "duration": 0.22857120000000464,
            "durationTicks": 384,
            "midi": 77,
            "name": "F5",
            "ticks": 427680,
            "time": 254.571174,
            "velocity": 0.8267716535433071
          },
          {
            "duration": 0.5142851999999891,
            "durationTicks": 864,
            "midi": 76,
            "name": "E5",
            "ticks": 428160,
            "time": 254.85688800000003,
            "velocity": 0.8267716535433071
          },
          {
            "duration": 0.5142851999999891,
            "durationTicks": 864,
            "midi": 72,
            "name": "C5",
            "ticks": 428640,
            "time": 255.142602,
            "velocity": 0.8267716535433071
          },
          {
            "duration": 0.5142851999999891,
            "durationTicks": 864,
            "midi": 74,
            "name": "D5",
            "ticks": 429120,
            "time": 255.42831600000002,
            "velocity": 0.8267716535433071
          },
          {
            "duration": 0.22857120000000464,
            "durationTicks": 384,
            "midi": 71,
            "name": "B4",
            "ticks": 429600,
            "time": 255.71403,
            "velocity": 0.8267716535433071
          },
          {
            "duration": 0.22857119999997622,
            "durationTicks": 384,
            "midi": 72,
            "name": "C5",
            "ticks": 430080,
            "time": 255.99974400000002,
            "velocity": 0.8267716535433071
          },
          {
            "duration": 0.22857119999997622,
            "durationTicks": 384,
            "midi": 76,
            "name": "E5",
            "ticks": 430080,
            "time": 255.99974400000002,
            "velocity": 0.8267716535433071
          },
          {
            "duration": 0.6857135999999855,
            "durationTicks": 1152,
            "midi": 65,
            "name": "F4",
            "ticks": 433920,
            "time": 258.285456,
            "velocity": 0.8267716535433071
          },
          {
            "duration": 0.6857135999999855,
            "durationTicks": 1152,
            "midi": 77,
            "name": "F5",
            "ticks": 433920,
            "time": 258.285456,
            "velocity": 0.8267716535433071
          },
          {
            "duration": 0.22857119999997622,
            "durationTicks": 384,
            "midi": 72,
            "name": "C5",
            "ticks": 435360,
            "time": 259.142598,
            "velocity": 0.8267716535433071
          },
          {
            "duration": 0.22857119999997622,
            "durationTicks": 384,
            "midi": 84,
            "name": "C6",
            "ticks": 435360,
            "time": 259.142598,
            "velocity": 0.8267716535433071
          },
          {
            "duration": 0.22857119999997622,
            "durationTicks": 384,
            "midi": 72,
            "name": "C5",
            "ticks": 435840,
            "time": 259.428312,
            "velocity": 0.8267716535433071
          },
          {
            "duration": 0.22857119999997622,
            "durationTicks": 384,
            "midi": 84,
            "name": "C6",
            "ticks": 435840,
            "time": 259.428312,
            "velocity": 0.8267716535433071
          },
          {
            "duration": 0.4571424000000093,
            "durationTicks": 768,
            "midi": 70,
            "name": "A#4",
            "ticks": 436320,
            "time": 259.71402600000005,
            "velocity": 0.8267716535433071
          },
          {
            "duration": 0.4571424000000093,
            "durationTicks": 768,
            "midi": 82,
            "name": "A#5",
            "ticks": 436320,
            "time": 259.71402600000005,
            "velocity": 0.8267716535433071
          },
          {
            "duration": 0.22857119999997622,
            "durationTicks": 384,
            "midi": 72,
            "name": "C5",
            "ticks": 437280,
            "time": 260.285454,
            "velocity": 0.8267716535433071
          },
          {
            "duration": 0.22857119999997622,
            "durationTicks": 384,
            "midi": 81,
            "name": "A5",
            "ticks": 437280,
            "time": 260.285454,
            "velocity": 0.8267716535433071
          },
          {
            "duration": 1.028570400000035,
            "durationTicks": 1728,
            "midi": 70,
            "name": "A#4",
            "ticks": 437760,
            "time": 260.571168,
            "velocity": 0.8267716535433071
          },
          {
            "duration": 0.4571424000000093,
            "durationTicks": 768,
            "midi": 82,
            "name": "A#5",
            "ticks": 437760,
            "time": 260.571168,
            "velocity": 0.8267716535433071
          },
          {
            "duration": 0.4571424000000093,
            "durationTicks": 768,
            "midi": 77,
            "name": "F5",
            "ticks": 438720,
            "time": 261.142596,
            "velocity": 0.8267716535433071
          },
          {
            "duration": 1.3714272000000278,
            "durationTicks": 2304,
            "midi": 74,
            "name": "D5",
            "ticks": 439680,
            "time": 261.714024,
            "velocity": 0.8267716535433071
          },
          {
            "duration": 1.3714272000000278,
            "durationTicks": 2304,
            "midi": 86,
            "name": "D6",
            "ticks": 439680,
            "time": 261.714024,
            "velocity": 0.8267716535433071
          },
          {
            "duration": 0.12857129999997596,
            "durationTicks": 216,
            "midi": 72,
            "name": "C5",
            "ticks": 442080,
            "time": 263.14259400000003,
            "velocity": 0.8267716535433071
          },
          {
            "duration": 0.12857129999997596,
            "durationTicks": 216,
            "midi": 84,
            "name": "C6",
            "ticks": 442080,
            "time": 263.14259400000003,
            "velocity": 0.8267716535433071
          },
          {
            "duration": 0.11428560000001653,
            "durationTicks": 192,
            "midi": 70,
            "name": "A#4",
            "ticks": 442320,
            "time": 263.285451,
            "velocity": 0.8267716535433071
          },
          {
            "duration": 0.11428560000001653,
            "durationTicks": 192,
            "midi": 82,
            "name": "A#5",
            "ticks": 442320,
            "time": 263.285451,
            "velocity": 0.8267716535433071
          },
          {
            "duration": 1.9428551999999968,
            "durationTicks": 3264,
            "midi": 72,
            "name": "C5",
            "ticks": 442560,
            "time": 263.428308,
            "velocity": 0.8267716535433071
          },
          {
            "duration": 1.9428551999999968,
            "durationTicks": 3264,
            "midi": 84,
            "name": "C6",
            "ticks": 442560,
            "time": 263.428308,
            "velocity": 0.8267716535433071
          },
          {
            "duration": 0.11428560000001653,
            "durationTicks": 192,
            "midi": 70,
            "name": "A#4",
            "ticks": 445920,
            "time": 265.428306,
            "velocity": 0.8267716535433071
          },
          {
            "duration": 0.11428560000001653,
            "durationTicks": 192,
            "midi": 82,
            "name": "A#5",
            "ticks": 445920,
            "time": 265.428306,
            "velocity": 0.8267716535433071
          },
          {
            "duration": 0.11428560000001653,
            "durationTicks": 192,
            "midi": 69,
            "name": "A4",
            "ticks": 446160,
            "time": 265.571163,
            "velocity": 0.8267716535433071
          },
          {
            "duration": 0.11428560000001653,
            "durationTicks": 192,
            "midi": 81,
            "name": "A5",
            "ticks": 446160,
            "time": 265.571163,
            "velocity": 0.8267716535433071
          },
          {
            "duration": 0.22857119999997622,
            "durationTicks": 384,
            "midi": 70,
            "name": "A#4",
            "ticks": 446400,
            "time": 265.71402,
            "velocity": 0.8267716535433071
          },
          {
            "duration": 0.22857119999997622,
            "durationTicks": 384,
            "midi": 82,
            "name": "A#5",
            "ticks": 446400,
            "time": 265.71402,
            "velocity": 0.8267716535433071
          },
          {
            "duration": 0.34285679999999275,
            "durationTicks": 576,
            "midi": 79,
            "name": "G5",
            "ticks": 447360,
            "time": 266.28544800000003,
            "velocity": 0.8267716535433071
          },
          {
            "duration": 0.11428560000001653,
            "durationTicks": 192,
            "midi": 77,
            "name": "F5",
            "ticks": 448080,
            "time": 266.714019,
            "velocity": 0.8267716535433071
          },
          {
            "duration": 0.3428568000000496,
            "durationTicks": 576,
            "midi": 76,
            "name": "E5",
            "ticks": 448320,
            "time": 266.856876,
            "velocity": 0.8267716535433071
          },
          {
            "duration": 0.11428559999995969,
            "durationTicks": 192,
            "midi": 74,
            "name": "D5",
            "ticks": 449040,
            "time": 267.28544700000003,
            "velocity": 0.8267716535433071
          },
          {
            "duration": 0.571427999999969,
            "durationTicks": 960,
            "midi": 73,
            "name": "C#5",
            "ticks": 449280,
            "time": 267.428304,
            "velocity": 0.8267716535433071
          },
          {
            "duration": 0.4571424000000093,
            "durationTicks": 768,
            "midi": 74,
            "name": "D5",
            "ticks": 450240,
            "time": 267.999732,
            "velocity": 0.8267716535433071
          },
          {
            "duration": 0.4571424000000093,
            "durationTicks": 768,
            "midi": 77,
            "name": "F5",
            "ticks": 450240,
            "time": 267.999732,
            "velocity": 0.8267716535433071
          },
          {
            "duration": 0.5714280000000258,
            "durationTicks": 960,
            "midi": 73,
            "name": "C#5",
            "ticks": 451200,
            "time": 268.57116,
            "velocity": 0.8267716535433071
          },
          {
            "duration": 0.4571424000000093,
            "durationTicks": 768,
            "midi": 74,
            "name": "D5",
            "ticks": 452160,
            "time": 269.14258800000005,
            "velocity": 0.8267716535433071
          },
          {
            "duration": 0.4571424000000093,
            "durationTicks": 768,
            "midi": 77,
            "name": "F5",
            "ticks": 452160,
            "time": 269.14258800000005,
            "velocity": 0.8267716535433071
          },
          {
            "duration": 0.5714280000000258,
            "durationTicks": 960,
            "midi": 73,
            "name": "C#5",
            "ticks": 453120,
            "time": 269.714016,
            "velocity": 0.8267716535433071
          },
          {
            "duration": 0.4571424000000093,
            "durationTicks": 768,
            "midi": 74,
            "name": "D5",
            "ticks": 454080,
            "time": 270.28544400000004,
            "velocity": 0.8267716535433071
          },
          {
            "duration": 0.4571424000000093,
            "durationTicks": 768,
            "midi": 77,
            "name": "F5",
            "ticks": 454080,
            "time": 270.28544400000004,
            "velocity": 0.8267716535433071
          },
          {
            "duration": 0.5714280000000258,
            "durationTicks": 960,
            "midi": 73,
            "name": "C#5",
            "ticks": 455040,
            "time": 270.856872,
            "velocity": 0.8267716535433071
          },
          {
            "duration": 0.4571424000000093,
            "durationTicks": 768,
            "midi": 74,
            "name": "D5",
            "ticks": 456000,
            "time": 271.42830000000004,
            "velocity": 0.8267716535433071
          },
          {
            "duration": 0.4571424000000093,
            "durationTicks": 768,
            "midi": 77,
            "name": "F5",
            "ticks": 456000,
            "time": 271.42830000000004,
            "velocity": 0.8267716535433071
          },
          {
            "duration": 0.4571424000000093,
            "durationTicks": 768,
            "midi": 73,
            "name": "C#5",
            "ticks": 456960,
            "time": 271.999728,
            "velocity": 0.8267716535433071
          },
          {
            "duration": 0.4571424000000093,
            "durationTicks": 768,
            "midi": 76,
            "name": "E5",
            "ticks": 456960,
            "time": 271.999728,
            "velocity": 0.8267716535433071
          },
          {
            "duration": 0.14285699999999224,
            "durationTicks": 240,
            "midi": 73,
            "name": "C#5",
            "ticks": 460320,
            "time": 273.999726,
            "velocity": 0.5511811023622047
          },
          {
            "duration": 0.08571419999998398,
            "durationTicks": 144,
            "midi": 72,
            "name": "C5",
            "ticks": 460560,
            "time": 274.142583,
            "velocity": 0.5511811023622047
          },
          {
            "duration": 3.414282300000025,
            "durationTicks": 5736,
            "midi": 65,
            "name": "F4",
            "ticks": 460800,
            "time": 274.28544,
            "velocity": 0.4566929133858268
          },
          {
            "duration": 0.1714284000000248,
            "durationTicks": 288,
            "midi": 72,
            "name": "C5",
            "ticks": 460800,
            "time": 274.28544,
            "velocity": 0.4566929133858268
          },
          {
            "duration": 0.14285699999999224,
            "durationTicks": 240,
            "midi": 73,
            "name": "C#5",
            "ticks": 461280,
            "time": 274.57115400000004,
            "velocity": 0.4566929133858268
          },
          {
            "duration": 0.08571419999998398,
            "durationTicks": 144,
            "midi": 72,
            "name": "C5",
            "ticks": 461520,
            "time": 274.714011,
            "velocity": 0.4566929133858268
          },
          {
            "duration": 0.1714284000000248,
            "durationTicks": 288,
            "midi": 72,
            "name": "C5",
            "ticks": 461760,
            "time": 274.856868,
            "velocity": 0.4566929133858268
          },
          {
            "duration": 0.1714284000000248,
            "durationTicks": 288,
            "midi": 72,
            "name": "C5",
            "ticks": 462240,
            "time": 275.142582,
            "velocity": 0.4566929133858268
          },
          {
            "duration": 0.14285700000004908,
            "durationTicks": 240,
            "midi": 75,
            "name": "D#5",
            "ticks": 464160,
            "time": 276.285438,
            "velocity": 0.4566929133858268
          },
          {
            "duration": 0.08571419999998398,
            "durationTicks": 144,
            "midi": 73,
            "name": "C#5",
            "ticks": 464400,
            "time": 276.42829500000005,
            "velocity": 0.4566929133858268
          },
          {
            "duration": 0.17142839999996795,
            "durationTicks": 288,
            "midi": 73,
            "name": "C#5",
            "ticks": 464640,
            "time": 276.57115200000004,
            "velocity": 0.4566929133858268
          },
          {
            "duration": 0.14285699999999224,
            "durationTicks": 240,
            "midi": 75,
            "name": "D#5",
            "ticks": 465120,
            "time": 276.856866,
            "velocity": 0.4566929133858268
          },
          {
            "duration": 0.08571419999998398,
            "durationTicks": 144,
            "midi": 73,
            "name": "C#5",
            "ticks": 465360,
            "time": 276.999723,
            "velocity": 0.4566929133858268
          },
          {
            "duration": 0.1714284000000248,
            "durationTicks": 288,
            "midi": 73,
            "name": "C#5",
            "ticks": 465600,
            "time": 277.14258,
            "velocity": 0.4566929133858268
          },
          {
            "duration": 0.17142839999996795,
            "durationTicks": 288,
            "midi": 73,
            "name": "C#5",
            "ticks": 466080,
            "time": 277.42829400000005,
            "velocity": 0.4566929133858268
          },
          {
            "duration": 4.171424399999978,
            "durationTicks": 7008,
            "midi": 67,
            "name": "G4",
            "ticks": 466560,
            "time": 277.71400800000004,
            "velocity": 0.4566929133858268
          },
          {
            "duration": 0.14285699999999224,
            "durationTicks": 240,
            "midi": 75,
            "name": "D#5",
            "ticks": 468000,
            "time": 278.57115000000005,
            "velocity": 0.4566929133858268
          },
          {
            "duration": 0.08571419999998398,
            "durationTicks": 144,
            "midi": 74,
            "name": "D5",
            "ticks": 468240,
            "time": 278.71400700000004,
            "velocity": 0.4566929133858268
          },
          {
            "duration": 0.1714284000000248,
            "durationTicks": 288,
            "midi": 72,
            "name": "C5",
            "ticks": 468480,
            "time": 278.85686400000003,
            "velocity": 0.4566929133858268
          },
          {
            "duration": 0.14285699999999224,
            "durationTicks": 240,
            "midi": 75,
            "name": "D#5",
            "ticks": 468960,
            "time": 279.142578,
            "velocity": 0.4566929133858268
          },
          {
            "duration": 0.08571419999998398,
            "durationTicks": 144,
            "midi": 74,
            "name": "D5",
            "ticks": 469200,
            "time": 279.285435,
            "velocity": 0.4566929133858268
          },
          {
            "duration": 0.1714284000000248,
            "durationTicks": 288,
            "midi": 74,
            "name": "D5",
            "ticks": 469440,
            "time": 279.428292,
            "velocity": 0.4566929133858268
          },
          {
            "duration": 0.17142839999996795,
            "durationTicks": 288,
            "midi": 74,
            "name": "D5",
            "ticks": 469920,
            "time": 279.71400600000004,
            "velocity": 0.4566929133858268
          },
          {
            "duration": 0.14285699999999224,
            "durationTicks": 240,
            "midi": 77,
            "name": "F5",
            "ticks": 471840,
            "time": 280.85686200000004,
            "velocity": 0.4566929133858268
          },
          {
            "duration": 0.08571419999998398,
            "durationTicks": 144,
            "midi": 75,
            "name": "D#5",
            "ticks": 472080,
            "time": 280.999719,
            "velocity": 0.4566929133858268
          },
          {
            "duration": 0.1714284000000248,
            "durationTicks": 288,
            "midi": 75,
            "name": "D#5",
            "ticks": 472320,
            "time": 281.142576,
            "velocity": 0.5511811023622047
          },
          {
            "duration": 0.14285699999999224,
            "durationTicks": 240,
            "midi": 77,
            "name": "F5",
            "ticks": 472800,
            "time": 281.42829,
            "velocity": 0.5511811023622047
          },
          {
            "duration": 0.08571420000004082,
            "durationTicks": 144,
            "midi": 75,
            "name": "D#5",
            "ticks": 473040,
            "time": 281.571147,
            "velocity": 0.5511811023622047
          },
          {
            "duration": 0.17142839999996795,
            "durationTicks": 288,
            "midi": 75,
            "name": "D#5",
            "ticks": 473280,
            "time": 281.71400400000005,
            "velocity": 0.5511811023622047
          },
          {
            "duration": 0.1714284000000248,
            "durationTicks": 288,
            "midi": 75,
            "name": "D#5",
            "ticks": 473760,
            "time": 281.99971800000003,
            "velocity": 0.5511811023622047
          },
          {
            "duration": 0.14285699999999224,
            "durationTicks": 240,
            "midi": 74,
            "name": "D5",
            "ticks": 476640,
            "time": 283.71400200000005,
            "velocity": 0.5511811023622047
          },
          {
            "duration": 0.14285699999999224,
            "durationTicks": 240,
            "midi": 80,
            "name": "G#5",
            "ticks": 476640,
            "time": 283.71400200000005,
            "velocity": 0.5511811023622047
          },
          {
            "duration": 0.11428559999995969,
            "durationTicks": 192,
            "midi": 75,
            "name": "D#5",
            "ticks": 476880,
            "time": 283.85685900000004,
            "velocity": 0.5511811023622047
          },
          {
            "duration": 0.11428559999995969,
            "durationTicks": 192,
            "midi": 81,
            "name": "A5",
            "ticks": 476880,
            "time": 283.85685900000004,
            "velocity": 0.5511811023622047
          },
          {
            "duration": 0.22857119999997622,
            "durationTicks": 384,
            "midi": 75,
            "name": "D#5",
            "ticks": 477120,
            "time": 283.99971600000003,
            "velocity": 0.5511811023622047
          },
          {
            "duration": 0.22857119999997622,
            "durationTicks": 384,
            "midi": 81,
            "name": "A5",
            "ticks": 477120,
            "time": 283.99971600000003,
            "velocity": 0.5511811023622047
          },
          {
            "duration": 0.14285699999999224,
            "durationTicks": 240,
            "midi": 71,
            "name": "B4",
            "ticks": 480480,
            "time": 285.99971400000004,
            "velocity": 0.5511811023622047
          },
          {
            "duration": 0.14285699999999224,
            "durationTicks": 240,
            "midi": 80,
            "name": "G#5",
            "ticks": 480480,
            "time": 285.99971400000004,
            "velocity": 0.5511811023622047
          },
          {
            "duration": 0.11428559999995969,
            "durationTicks": 192,
            "midi": 72,
            "name": "C5",
            "ticks": 480720,
            "time": 286.14257100000003,
            "velocity": 0.5511811023622047
          },
          {
            "duration": 0.11428559999995969,
            "durationTicks": 192,
            "midi": 81,
            "name": "A5",
            "ticks": 480720,
            "time": 286.14257100000003,
            "velocity": 0.5511811023622047
          },
          {
            "duration": 0.22857119999997622,
            "durationTicks": 384,
            "midi": 72,
            "name": "C5",
            "ticks": 480960,
            "time": 286.285428,
            "velocity": 0.5511811023622047
          },
          {
            "duration": 0.22857119999997622,
            "durationTicks": 384,
            "midi": 81,
            "name": "A5",
            "ticks": 480960,
            "time": 286.285428,
            "velocity": 0.5511811023622047
          },
          {
            "duration": 0.14285699999999224,
            "durationTicks": 240,
            "midi": 80,
            "name": "G#5",
            "ticks": 484320,
            "time": 288.28542600000003,
            "velocity": 0.5511811023622047
          },
          {
            "duration": 0.14285699999999224,
            "durationTicks": 240,
            "midi": 83,
            "name": "B5",
            "ticks": 484320,
            "time": 288.28542600000003,
            "velocity": 0.5511811023622047
          },
          {
            "duration": 0.11428560000001653,
            "durationTicks": 192,
            "midi": 81,
            "name": "A5",
            "ticks": 484560,
            "time": 288.428283,
            "velocity": 0.4566929133858268
          },
          {
            "duration": 0.11428560000001653,
            "durationTicks": 192,
            "midi": 84,
            "name": "C6",
            "ticks": 484560,
            "time": 288.428283,
            "velocity": 0.4566929133858268
          },
          {
            "duration": 0.22857119999997622,
            "durationTicks": 384,
            "midi": 81,
            "name": "A5",
            "ticks": 484800,
            "time": 288.57114,
            "velocity": 0.4566929133858268
          },
          {
            "duration": 0.22857119999997622,
            "durationTicks": 384,
            "midi": 84,
            "name": "C6",
            "ticks": 484800,
            "time": 288.57114,
            "velocity": 0.4566929133858268
          },
          {
            "duration": 0.2857139999999845,
            "durationTicks": 480,
            "midi": 72,
            "name": "C5",
            "ticks": 485760,
            "time": 289.14256800000004,
            "velocity": 0.8267716535433071
          },
          {
            "duration": 0.2857139999999845,
            "durationTicks": 480,
            "midi": 78,
            "name": "F#5",
            "ticks": 485760,
            "time": 289.14256800000004,
            "velocity": 0.8267716535433071
          },
          {
            "duration": 0.2857139999999845,
            "durationTicks": 480,
            "midi": 78,
            "name": "F#5",
            "ticks": 486240,
            "time": 289.428282,
            "velocity": 0.8267716535433071
          },
          {
            "duration": 0.2857139999999845,
            "durationTicks": 480,
            "midi": 81,
            "name": "A5",
            "ticks": 486240,
            "time": 289.428282,
            "velocity": 0.8267716535433071
          },
          {
            "duration": 0.22857119999997622,
            "durationTicks": 384,
            "midi": 81,
            "name": "A5",
            "ticks": 486720,
            "time": 289.713996,
            "velocity": 0.8267716535433071
          },
          {
            "duration": 0.22857119999997622,
            "durationTicks": 384,
            "midi": 84,
            "name": "C6",
            "ticks": 486720,
            "time": 289.713996,
            "velocity": 0.8267716535433071
          },
          {
            "duration": 0.2857139999999845,
            "durationTicks": 480,
            "midi": 70,
            "name": "A#4",
            "ticks": 487680,
            "time": 290.28542400000003,
            "velocity": 0.8267716535433071
          },
          {
            "duration": 0.2857139999999845,
            "durationTicks": 480,
            "midi": 74,
            "name": "D5",
            "ticks": 487680,
            "time": 290.28542400000003,
            "velocity": 0.8267716535433071
          },
          {
            "duration": 0.2857139999999845,
            "durationTicks": 480,
            "midi": 74,
            "name": "D5",
            "ticks": 488160,
            "time": 290.571138,
            "velocity": 0.8267716535433071
          },
          {
            "duration": 0.2857139999999845,
            "durationTicks": 480,
            "midi": 79,
            "name": "G5",
            "ticks": 488160,
            "time": 290.571138,
            "velocity": 0.8267716535433071
          },
          {
            "duration": 0.22857120000003306,
            "durationTicks": 384,
            "midi": 79,
            "name": "G5",
            "ticks": 488640,
            "time": 290.856852,
            "velocity": 0.8267716535433071
          },
          {
            "duration": 0.22857120000003306,
            "durationTicks": 384,
            "midi": 82,
            "name": "A#5",
            "ticks": 488640,
            "time": 290.856852,
            "velocity": 0.8267716535433071
          },
          {
            "duration": 0.2857139999999845,
            "durationTicks": 480,
            "midi": 82,
            "name": "A#5",
            "ticks": 489600,
            "time": 291.42828000000003,
            "velocity": 0.8267716535433071
          },
          {
            "duration": 0.2857139999999845,
            "durationTicks": 480,
            "midi": 85,
            "name": "C#6",
            "ticks": 489600,
            "time": 291.42828000000003,
            "velocity": 0.8267716535433071
          },
          {
            "duration": 0.2857139999999845,
            "durationTicks": 480,
            "midi": 79,
            "name": "G5",
            "ticks": 490080,
            "time": 291.713994,
            "velocity": 0.8267716535433071
          },
          {
            "duration": 0.2857139999999845,
            "durationTicks": 480,
            "midi": 82,
            "name": "A#5",
            "ticks": 490080,
            "time": 291.713994,
            "velocity": 0.8267716535433071
          },
          {
            "duration": 0.22857120000003306,
            "durationTicks": 384,
            "midi": 76,
            "name": "E5",
            "ticks": 490560,
            "time": 291.999708,
            "velocity": 0.8267716535433071
          },
          {
            "duration": 0.22857120000003306,
            "durationTicks": 384,
            "midi": 79,
            "name": "G5",
            "ticks": 490560,
            "time": 291.999708,
            "velocity": 0.8267716535433071
          },
          {
            "duration": 0.2857139999999845,
            "durationTicks": 480,
            "midi": 78,
            "name": "F#5",
            "ticks": 491520,
            "time": 292.571136,
            "velocity": 0.8267716535433071
          },
          {
            "duration": 0.2857139999999845,
            "durationTicks": 480,
            "midi": 81,
            "name": "A5",
            "ticks": 491520,
            "time": 292.571136,
            "velocity": 0.8267716535433071
          },
          {
            "duration": 0.2857140000000413,
            "durationTicks": 480,
            "midi": 74,
            "name": "D5",
            "ticks": 492000,
            "time": 292.85685,
            "velocity": 0.8267716535433071
          },
          {
            "duration": 0.2857140000000413,
            "durationTicks": 480,
            "midi": 78,
            "name": "F#5",
            "ticks": 492000,
            "time": 292.85685,
            "velocity": 0.8267716535433071
          },
          {
            "duration": 0.22857119999997622,
            "durationTicks": 384,
            "midi": 69,
            "name": "A4",
            "ticks": 492480,
            "time": 293.14256400000005,
            "velocity": 0.8267716535433071
          },
          {
            "duration": 0.22857119999997622,
            "durationTicks": 384,
            "midi": 74,
            "name": "D5",
            "ticks": 492480,
            "time": 293.14256400000005,
            "velocity": 0.8267716535433071
          },
          {
            "duration": 0.2857139999999845,
            "durationTicks": 480,
            "midi": 72,
            "name": "C5",
            "ticks": 493440,
            "time": 293.713992,
            "velocity": 0.8267716535433071
          },
          {
            "duration": 0.2857139999999845,
            "durationTicks": 480,
            "midi": 78,
            "name": "F#5",
            "ticks": 493440,
            "time": 293.713992,
            "velocity": 0.8267716535433071
          },
          {
            "duration": 0.2857140000000413,
            "durationTicks": 480,
            "midi": 78,
            "name": "F#5",
            "ticks": 493920,
            "time": 293.999706,
            "velocity": 0.8267716535433071
          },
          {
            "duration": 0.2857140000000413,
            "durationTicks": 480,
            "midi": 81,
            "name": "A5",
            "ticks": 493920,
            "time": 293.999706,
            "velocity": 0.8267716535433071
          },
          {
            "duration": 0.22857119999997622,
            "durationTicks": 384,
            "midi": 81,
            "name": "A5",
            "ticks": 494400,
            "time": 294.28542000000004,
            "velocity": 0.8267716535433071
          },
          {
            "duration": 0.22857119999997622,
            "durationTicks": 384,
            "midi": 84,
            "name": "C6",
            "ticks": 494400,
            "time": 294.28542000000004,
            "velocity": 0.8267716535433071
          },
          {
            "duration": 0.2857139999999845,
            "durationTicks": 480,
            "midi": 74,
            "name": "D5",
            "ticks": 495360,
            "time": 294.856848,
            "velocity": 0.8267716535433071
          },
          {
            "duration": 0.2857139999999845,
            "durationTicks": 480,
            "midi": 79,
            "name": "G5",
            "ticks": 495360,
            "time": 294.856848,
            "velocity": 0.8267716535433071
          },
          {
            "duration": 0.2857140000000413,
            "durationTicks": 480,
            "midi": 79,
            "name": "G5",
            "ticks": 495840,
            "time": 295.142562,
            "velocity": 0.8267716535433071
          },
          {
            "duration": 0.2857140000000413,
            "durationTicks": 480,
            "midi": 82,
            "name": "A#5",
            "ticks": 495840,
            "time": 295.142562,
            "velocity": 0.8267716535433071
          },
          {
            "duration": 0.22857119999997622,
            "durationTicks": 384,
            "midi": 82,
            "name": "A#5",
            "ticks": 496320,
            "time": 295.42827600000004,
            "velocity": 0.8267716535433071
          },
          {
            "duration": 0.22857119999997622,
            "durationTicks": 384,
            "midi": 86,
            "name": "D6",
            "ticks": 496320,
            "time": 295.42827600000004,
            "velocity": 0.8267716535433071
          },
          {
            "duration": 0.14285699999999224,
            "durationTicks": 240,
            "midi": 78,
            "name": "F#5",
            "ticks": 500640,
            "time": 297.999702,
            "velocity": 0.8267716535433071
          },
          {
            "duration": 0.14285699999999224,
            "durationTicks": 240,
            "midi": 81,
            "name": "A5",
            "ticks": 500640,
            "time": 297.999702,
            "velocity": 0.5511811023622047
          },
          {
            "duration": 0.11428560000001653,
            "durationTicks": 192,
            "midi": 77,
            "name": "F5",
            "ticks": 500880,
            "time": 298.142559,
            "velocity": 0.5511811023622047
          },
          {
            "duration": 0.11428560000001653,
            "durationTicks": 192,
            "midi": 80,
            "name": "G#5",
            "ticks": 500880,
            "time": 298.142559,
            "velocity": 0.5511811023622047
          },
          {
            "duration": 0.6857136000000423,
            "durationTicks": 1152,
            "midi": 76,
            "name": "E5",
            "ticks": 501120,
            "time": 298.285416,
            "velocity": 0.5511811023622047
          },
          {
            "duration": 0.6857136000000423,
            "durationTicks": 1152,
            "midi": 79,
            "name": "G5",
            "ticks": 501120,
            "time": 298.285416,
            "velocity": 0.5511811023622047
          },
          {
            "duration": 0.14285699999999224,
            "durationTicks": 240,
            "midi": 76,
            "name": "E5",
            "ticks": 502560,
            "time": 299.142558,
            "velocity": 0.5511811023622047
          },
          {
            "duration": 0.14285699999999224,
            "durationTicks": 240,
            "midi": 79,
            "name": "G5",
            "ticks": 502560,
            "time": 299.142558,
            "velocity": 0.5511811023622047
          },
          {
            "duration": 0.11428560000007337,
            "durationTicks": 192,
            "midi": 75,
            "name": "D#5",
            "ticks": 502800,
            "time": 299.285415,
            "velocity": 0.5511811023622047
          },
          {
            "duration": 0.11428560000007337,
            "durationTicks": 192,
            "midi": 78,
            "name": "F#5",
            "ticks": 502800,
            "time": 299.285415,
            "velocity": 0.5511811023622047
          },
          {
            "duration": 0.6857135999999855,
            "durationTicks": 1152,
            "midi": 74,
            "name": "D5",
            "ticks": 503040,
            "time": 299.42827200000005,
            "velocity": 0.5511811023622047
          },
          {
            "duration": 0.6857135999999855,
            "durationTicks": 1152,
            "midi": 77,
            "name": "F5",
            "ticks": 503040,
            "time": 299.42827200000005,
            "velocity": 0.5511811023622047
          },
          {
            "duration": 0.14285700000004908,
            "durationTicks": 240,
            "midi": 74,
            "name": "D5",
            "ticks": 504480,
            "time": 300.285414,
            "velocity": 0.5511811023622047
          },
          {
            "duration": 0.14285700000004908,
            "durationTicks": 240,
            "midi": 77,
            "name": "F5",
            "ticks": 504480,
            "time": 300.285414,
            "velocity": 0.5511811023622047
          },
          {
            "duration": 0.11428560000001653,
            "durationTicks": 192,
            "midi": 73,
            "name": "C#5",
            "ticks": 504720,
            "time": 300.42827100000005,
            "velocity": 0.5511811023622047
          },
          {
            "duration": 0.11428560000001653,
            "durationTicks": 192,
            "midi": 76,
            "name": "E5",
            "ticks": 504720,
            "time": 300.42827100000005,
            "velocity": 0.5511811023622047
          },
          {
            "duration": 0.6857135999999855,
            "durationTicks": 1152,
            "midi": 73,
            "name": "C#5",
            "ticks": 504960,
            "time": 300.57112800000004,
            "velocity": 0.5511811023622047
          },
          {
            "duration": 0.6857135999999855,
            "durationTicks": 1152,
            "midi": 76,
            "name": "E5",
            "ticks": 504960,
            "time": 300.57112800000004,
            "velocity": 0.5511811023622047
          },
          {
            "duration": 0.14285700000004908,
            "durationTicks": 240,
            "midi": 72,
            "name": "C5",
            "ticks": 506400,
            "time": 301.42827,
            "velocity": 0.5511811023622047
          },
          {
            "duration": 0.14285700000004908,
            "durationTicks": 240,
            "midi": 75,
            "name": "D#5",
            "ticks": 506400,
            "time": 301.42827,
            "velocity": 0.5511811023622047
          },
          {
            "duration": 0.11428560000001653,
            "durationTicks": 192,
            "midi": 71,
            "name": "B4",
            "ticks": 506640,
            "time": 301.57112700000005,
            "velocity": 0.5511811023622047
          },
          {
            "duration": 0.11428560000001653,
            "durationTicks": 192,
            "midi": 74,
            "name": "D5",
            "ticks": 506640,
            "time": 301.57112700000005,
            "velocity": 0.5511811023622047
          },
          {
            "duration": 0.571427999999969,
            "durationTicks": 960,
            "midi": 71,
            "name": "B4",
            "ticks": 506880,
            "time": 301.71398400000004,
            "velocity": 0.5511811023622047
          },
          {
            "duration": 0.571427999999969,
            "durationTicks": 960,
            "midi": 74,
            "name": "D5",
            "ticks": 506880,
            "time": 301.71398400000004,
            "velocity": 0.5511811023622047
          },
          {
            "duration": 0.4571424000000093,
            "durationTicks": 768,
            "midi": 70,
            "name": "A#4",
            "ticks": 507840,
            "time": 302.285412,
            "velocity": 0.4566929133858268
          },
          {
            "duration": 0.4571424000000093,
            "durationTicks": 768,
            "midi": 73,
            "name": "C#5",
            "ticks": 507840,
            "time": 302.285412,
            "velocity": 0.4566929133858268
          },
          {
            "duration": 1.1428559999999948,
            "durationTicks": 1920,
            "midi": 69,
            "name": "A4",
            "ticks": 508800,
            "time": 302.85684000000003,
            "velocity": 0.4566929133858268
          },
          {
            "duration": 1.1428559999999948,
            "durationTicks": 1920,
            "midi": 72,
            "name": "C5",
            "ticks": 508800,
            "time": 302.85684000000003,
            "velocity": 0.4566929133858268
          },
          {
            "duration": 0.22857119999997622,
            "durationTicks": 384,
            "midi": 67,
            "name": "G4",
            "ticks": 510720,
            "time": 303.99969600000003,
            "velocity": 0.4566929133858268
          },
          {
            "duration": 0.22857119999997622,
            "durationTicks": 384,
            "midi": 70,
            "name": "A#4",
            "ticks": 510720,
            "time": 303.99969600000003,
            "velocity": 0.4566929133858268
          },
          {
            "duration": 0.2857140000000413,
            "durationTicks": 480,
            "midi": 66,
            "name": "F#4",
            "ticks": 532320,
            "time": 316.856826,
            "velocity": 0.5511811023622047
          },
          {
            "duration": 0.2857139999999845,
            "durationTicks": 480,
            "midi": 67,
            "name": "G4",
            "ticks": 532800,
            "time": 317.14254000000005,
            "velocity": 0.5511811023622047
          },
          {
            "duration": 0.2857139999999845,
            "durationTicks": 480,
            "midi": 69,
            "name": "A4",
            "ticks": 533280,
            "time": 317.42825400000004,
            "velocity": 0.5511811023622047
          },
          {
            "duration": 0.2857139999999845,
            "durationTicks": 480,
            "midi": 70,
            "name": "A#4",
            "ticks": 533760,
            "time": 317.713968,
            "velocity": 0.5511811023622047
          },
          {
            "duration": 0.14285699999999224,
            "durationTicks": 240,
            "midi": 72,
            "name": "C5",
            "ticks": 534240,
            "time": 317.999682,
            "velocity": 0.5511811023622047
          },
          {
            "duration": 0.14285700000004908,
            "durationTicks": 240,
            "midi": 70,
            "name": "A#4",
            "ticks": 534480,
            "time": 318.142539,
            "velocity": 0.5511811023622047
          },
          {
            "duration": 0.2857139999999845,
            "durationTicks": 480,
            "midi": 69,
            "name": "A4",
            "ticks": 534720,
            "time": 318.28539600000005,
            "velocity": 0.5511811023622047
          },
          {
            "duration": 0.2857139999999845,
            "durationTicks": 480,
            "midi": 67,
            "name": "G4",
            "ticks": 535200,
            "time": 318.57111000000003,
            "velocity": 0.5511811023622047
          },
          {
            "duration": 0.22857119999997622,
            "durationTicks": 384,
            "midi": 66,
            "name": "F#4",
            "ticks": 535680,
            "time": 318.856824,
            "velocity": 0.5511811023622047
          },
          {
            "duration": 0.571427999999969,
            "durationTicks": 960,
            "midi": 79,
            "name": "G5",
            "ticks": 536640,
            "time": 319.42825200000004,
            "velocity": 0.8267716535433071
          },
          {
            "duration": 0.571427999999969,
            "durationTicks": 960,
            "midi": 82,
            "name": "A#5",
            "ticks": 536640,
            "time": 319.42825200000004,
            "velocity": 0.8267716535433071
          },
          {
            "duration": 0.22857119999997622,
            "durationTicks": 384,
            "midi": 78,
            "name": "F#5",
            "ticks": 537600,
            "time": 319.99968,
            "velocity": 0.8267716535433071
          },
          {
            "duration": 0.22857119999997622,
            "durationTicks": 384,
            "midi": 81,
            "name": "A5",
            "ticks": 537600,
            "time": 319.99968,
            "velocity": 0.8267716535433071
          },
          {
            "duration": 0.571427999999969,
            "durationTicks": 960,
            "midi": 79,
            "name": "G5",
            "ticks": 538560,
            "time": 320.57110800000004,
            "velocity": 0.8267716535433071
          },
          {
            "duration": 0.571427999999969,
            "durationTicks": 960,
            "midi": 82,
            "name": "A#5",
            "ticks": 538560,
            "time": 320.57110800000004,
            "velocity": 0.8267716535433071
          },
          {
            "duration": 0.22857120000003306,
            "durationTicks": 384,
            "midi": 78,
            "name": "F#5",
            "ticks": 539520,
            "time": 321.142536,
            "velocity": 0.8267716535433071
          },
          {
            "duration": 0.22857120000003306,
            "durationTicks": 384,
            "midi": 81,
            "name": "A5",
            "ticks": 539520,
            "time": 321.142536,
            "velocity": 0.8267716535433071
          },
          {
            "duration": 0.571427999999969,
            "durationTicks": 960,
            "midi": 79,
            "name": "G5",
            "ticks": 540480,
            "time": 321.71396400000003,
            "velocity": 0.8267716535433071
          },
          {
            "duration": 0.571427999999969,
            "durationTicks": 960,
            "midi": 82,
            "name": "A#5",
            "ticks": 540480,
            "time": 321.71396400000003,
            "velocity": 0.8267716535433071
          },
          {
            "duration": 0.1714284000000248,
            "durationTicks": 288,
            "midi": 78,
            "name": "F#5",
            "ticks": 541440,
            "time": 322.285392,
            "velocity": 0.8267716535433071
          },
          {
            "duration": 0.1714284000000248,
            "durationTicks": 288,
            "midi": 81,
            "name": "A5",
            "ticks": 541440,
            "time": 322.285392,
            "velocity": 0.8267716535433071
          },
          {
            "duration": 0.17142839999996795,
            "durationTicks": 288,
            "midi": 79,
            "name": "G5",
            "ticks": 541920,
            "time": 322.57110600000004,
            "velocity": 0.8267716535433071
          },
          {
            "duration": 0.17142839999996795,
            "durationTicks": 288,
            "midi": 82,
            "name": "A#5",
            "ticks": 541920,
            "time": 322.57110600000004,
            "velocity": 0.8267716535433071
          },
          {
            "duration": 0.17142839999996795,
            "durationTicks": 288,
            "midi": 78,
            "name": "F#5",
            "ticks": 542400,
            "time": 322.85682,
            "velocity": 0.8267716535433071
          },
          {
            "duration": 0.17142839999996795,
            "durationTicks": 288,
            "midi": 81,
            "name": "A5",
            "ticks": 542400,
            "time": 322.85682,
            "velocity": 0.8267716535433071
          },
          {
            "duration": 0.17142839999996795,
            "durationTicks": 288,
            "midi": 79,
            "name": "G5",
            "ticks": 542880,
            "time": 323.142534,
            "velocity": 0.8267716535433071
          },
          {
            "duration": 0.17142839999996795,
            "durationTicks": 288,
            "midi": 82,
            "name": "A#5",
            "ticks": 542880,
            "time": 323.142534,
            "velocity": 0.8267716535433071
          },
          {
            "duration": 0.45714239999995243,
            "durationTicks": 768,
            "midi": 78,
            "name": "F#5",
            "ticks": 543360,
            "time": 323.42824800000005,
            "velocity": 0.8267716535433071
          },
          {
            "duration": 0.45714239999995243,
            "durationTicks": 768,
            "midi": 81,
            "name": "A5",
            "ticks": 543360,
            "time": 323.42824800000005,
            "velocity": 0.8267716535433071
          },
          {
            "duration": 3.99999600000001,
            "durationTicks": 6720,
            "midi": 80,
            "name": "G#5",
            "ticks": 551040,
            "time": 327.99967200000003,
            "velocity": 0.5511811023622047
          },
          {
            "duration": 0.45714239999995243,
            "durationTicks": 768,
            "midi": 77,
            "name": "F5",
            "ticks": 557760,
            "time": 331.99966800000004,
            "velocity": 0.5511811023622047
          },
          {
            "duration": 0.9142848000000185,
            "durationTicks": 1536,
            "midi": 75,
            "name": "D#5",
            "ticks": 558720,
            "time": 332.571096,
            "velocity": 0.8267716535433071
          },
          {
            "duration": 0.9142848000000185,
            "durationTicks": 1536,
            "midi": 70,
            "name": "A#4",
            "ticks": 560640,
            "time": 333.713952,
            "velocity": 0.8267716535433071
          },
          {
            "duration": 0.9142848000000185,
            "durationTicks": 1536,
            "midi": 82,
            "name": "A#5",
            "ticks": 560640,
            "time": 333.713952,
            "velocity": 0.8267716535433071
          },
          {
            "duration": 0.9142848000000185,
            "durationTicks": 1536,
            "midi": 68,
            "name": "G#4",
            "ticks": 562560,
            "time": 334.856808,
            "velocity": 0.8267716535433071
          },
          {
            "duration": 0.9142848000000185,
            "durationTicks": 1536,
            "midi": 80,
            "name": "G#5",
            "ticks": 562560,
            "time": 334.856808,
            "velocity": 0.8267716535433071
          },
          {
            "duration": 0.9142847999999617,
            "durationTicks": 1536,
            "midi": 67,
            "name": "G4",
            "ticks": 564480,
            "time": 335.99966400000005,
            "velocity": 0.8267716535433071
          },
          {
            "duration": 0.9142847999999617,
            "durationTicks": 1536,
            "midi": 79,
            "name": "G5",
            "ticks": 564480,
            "time": 335.99966400000005,
            "velocity": 0.8267716535433071
          },
          {
            "duration": 0.9142848000000185,
            "durationTicks": 1536,
            "midi": 65,
            "name": "F4",
            "ticks": 566400,
            "time": 337.14252000000005,
            "velocity": 0.8267716535433071
          },
          {
            "duration": 0.9142848000000185,
            "durationTicks": 1536,
            "midi": 77,
            "name": "F5",
            "ticks": 566400,
            "time": 337.14252000000005,
            "velocity": 0.8267716535433071
          },
          {
            "duration": 0.45714239999995243,
            "durationTicks": 768,
            "midi": 64,
            "name": "E4",
            "ticks": 568320,
            "time": 338.28537600000004,
            "velocity": 0.8267716535433071
          },
          {
            "duration": 0.45714239999995243,
            "durationTicks": 768,
            "midi": 76,
            "name": "E5",
            "ticks": 568320,
            "time": 338.28537600000004,
            "velocity": 0.8267716535433071
          },
          {
            "duration": 0.4571424000000093,
            "durationTicks": 768,
            "midi": 61,
            "name": "C#4",
            "ticks": 569280,
            "time": 338.856804,
            "velocity": 0.8267716535433071
          },
          {
            "duration": 0.4571424000000093,
            "durationTicks": 768,
            "midi": 73,
            "name": "C#5",
            "ticks": 569280,
            "time": 338.856804,
            "velocity": 0.8267716535433071
          },
          {
            "duration": 0.45714239999995243,
            "durationTicks": 768,
            "midi": 60,
            "name": "C4",
            "ticks": 570240,
            "time": 339.42823200000004,
            "velocity": 0.8267716535433071
          },
          {
            "duration": 0.45714239999995243,
            "durationTicks": 768,
            "midi": 72,
            "name": "C5",
            "ticks": 570240,
            "time": 339.42823200000004,
            "velocity": 0.8267716535433071
          },
          {
            "duration": 0.4571424000000093,
            "durationTicks": 768,
            "midi": 76,
            "name": "E5",
            "ticks": 571200,
            "time": 339.99966,
            "velocity": 0.8267716535433071
          },
          {
            "duration": 0.4571424000000093,
            "durationTicks": 768,
            "midi": 79,
            "name": "G5",
            "ticks": 571200,
            "time": 339.99966,
            "velocity": 0.8267716535433071
          },
          {
            "duration": 1.0285703999999782,
            "durationTicks": 1728,
            "midi": 77,
            "name": "F5",
            "ticks": 572160,
            "time": 340.57108800000003,
            "velocity": 0.8267716535433071
          },
          {
            "duration": 0.4571424000000093,
            "durationTicks": 768,
            "midi": 65,
            "name": "F4",
            "ticks": 573120,
            "time": 341.142516,
            "velocity": 0.8267716535433071
          },
          {
            "duration": 0.9142848000000185,
            "durationTicks": 1536,
            "midi": 72,
            "name": "C5",
            "ticks": 574080,
            "time": 341.713944,
            "velocity": 0.8267716535433071
          },
          {
            "duration": 1.599998400000004,
            "durationTicks": 2688,
            "midi": 84,
            "name": "C6",
            "ticks": 574080,
            "time": 341.713944,
            "velocity": 0.8267716535433071
          },
          {
            "duration": 1.0285703999999782,
            "durationTicks": 1728,
            "midi": 73,
            "name": "C#5",
            "ticks": 576000,
            "time": 342.8568,
            "velocity": 0.8267716535433071
          },
          {
            "duration": 1.0285703999999782,
            "durationTicks": 1728,
            "midi": 82,
            "name": "A#5",
            "ticks": 576960,
            "time": 343.42822800000005,
            "velocity": 0.8267716535433071
          },
          {
            "duration": 1.0285703999999782,
            "durationTicks": 1728,
            "midi": 72,
            "name": "C5",
            "ticks": 577920,
            "time": 343.999656,
            "velocity": 0.8267716535433071
          },
          {
            "duration": 1.0285703999999782,
            "durationTicks": 1728,
            "midi": 80,
            "name": "G#5",
            "ticks": 578880,
            "time": 344.57108400000004,
            "velocity": 0.8267716535433071
          },
          {
            "duration": 1.0285703999999782,
            "durationTicks": 1728,
            "midi": 70,
            "name": "A#4",
            "ticks": 579840,
            "time": 345.142512,
            "velocity": 0.8267716535433071
          },
          {
            "duration": 0.45714239999995243,
            "durationTicks": 768,
            "midi": 79,
            "name": "G5",
            "ticks": 580800,
            "time": 345.71394000000004,
            "velocity": 0.8267716535433071
          },
          {
            "duration": 0.22857120000003306,
            "durationTicks": 384,
            "midi": 68,
            "name": "G#4",
            "ticks": 581760,
            "time": 346.285368,
            "velocity": 0.8267716535433071
          },
          {
            "duration": 0.22857120000003306,
            "durationTicks": 384,
            "midi": 77,
            "name": "F5",
            "ticks": 581760,
            "time": 346.285368,
            "velocity": 0.8267716535433071
          },
          {
            "duration": 0.22857119999997622,
            "durationTicks": 384,
            "midi": 77,
            "name": "F5",
            "ticks": 582240,
            "time": 346.57108200000005,
            "velocity": 0.8267716535433071
          },
          {
            "duration": 0.22857119999997622,
            "durationTicks": 384,
            "midi": 80,
            "name": "G#5",
            "ticks": 582240,
            "time": 346.57108200000005,
            "velocity": 0.8267716535433071
          },
          {
            "duration": 0.22857119999997622,
            "durationTicks": 384,
            "midi": 77,
            "name": "F5",
            "ticks": 582720,
            "time": 346.85679600000003,
            "velocity": 0.8267716535433071
          },
          {
            "duration": 0.22857119999997622,
            "durationTicks": 384,
            "midi": 80,
            "name": "G#5",
            "ticks": 582720,
            "time": 346.85679600000003,
            "velocity": 0.8267716535433071
          },
          {
            "duration": 0.22857119999997622,
            "durationTicks": 384,
            "midi": 77,
            "name": "F5",
            "ticks": 583200,
            "time": 347.14251,
            "velocity": 0.8267716535433071
          },
          {
            "duration": 0.22857119999997622,
            "durationTicks": 384,
            "midi": 80,
            "name": "G#5",
            "ticks": 583200,
            "time": 347.14251,
            "velocity": 0.8267716535433071
          },
          {
            "duration": 0.22857119999997622,
            "durationTicks": 384,
            "midi": 74,
            "name": "D5",
            "ticks": 584160,
            "time": 347.71393800000004,
            "velocity": 0.8267716535433071
          },
          {
            "duration": 0.22857119999997622,
            "durationTicks": 384,
            "midi": 80,
            "name": "G#5",
            "ticks": 584160,
            "time": 347.71393800000004,
            "velocity": 0.8267716535433071
          },
          {
            "duration": 0.22857119999997622,
            "durationTicks": 384,
            "midi": 74,
            "name": "D5",
            "ticks": 584640,
            "time": 347.999652,
            "velocity": 0.8267716535433071
          },
          {
            "duration": 0.22857119999997622,
            "durationTicks": 384,
            "midi": 80,
            "name": "G#5",
            "ticks": 584640,
            "time": 347.999652,
            "velocity": 0.8267716535433071
          },
          {
            "duration": 0.22857120000003306,
            "durationTicks": 384,
            "midi": 74,
            "name": "D5",
            "ticks": 585120,
            "time": 348.285366,
            "velocity": 0.8267716535433071
          },
          {
            "duration": 0.22857120000003306,
            "durationTicks": 384,
            "midi": 80,
            "name": "G#5",
            "ticks": 585120,
            "time": 348.285366,
            "velocity": 0.8267716535433071
          },
          {
            "duration": 0.45714239999995243,
            "durationTicks": 768,
            "midi": 74,
            "name": "D5",
            "ticks": 586080,
            "time": 348.85679400000004,
            "velocity": 0.8267716535433071
          },
          {
            "duration": 0.45714239999995243,
            "durationTicks": 768,
            "midi": 79,
            "name": "G5",
            "ticks": 586080,
            "time": 348.85679400000004,
            "velocity": 0.8267716535433071
          },
          {
            "duration": 0.22857120000003306,
            "durationTicks": 384,
            "midi": 74,
            "name": "D5",
            "ticks": 587040,
            "time": 349.428222,
            "velocity": 0.8267716535433071
          },
          {
            "duration": 0.22857120000003306,
            "durationTicks": 384,
            "midi": 79,
            "name": "G5",
            "ticks": 587040,
            "time": 349.428222,
            "velocity": 0.8267716535433071
          },
          {
            "duration": 0.22857119999997622,
            "durationTicks": 384,
            "midi": 72,
            "name": "C5",
            "ticks": 588000,
            "time": 349.99965000000003,
            "velocity": 0.8267716535433071
          },
          {
            "duration": 0.22857119999997622,
            "durationTicks": 384,
            "midi": 79,
            "name": "G5",
            "ticks": 588000,
            "time": 349.99965000000003,
            "velocity": 0.8267716535433071
          },
          {
            "duration": 0.22857119999997622,
            "durationTicks": 384,
            "midi": 72,
            "name": "C5",
            "ticks": 588480,
            "time": 350.285364,
            "velocity": 0.8267716535433071
          },
          {
            "duration": 0.22857119999997622,
            "durationTicks": 384,
            "midi": 79,
            "name": "G5",
            "ticks": 588480,
            "time": 350.285364,
            "velocity": 0.8267716535433071
          },
          {
            "duration": 0.22857119999997622,
            "durationTicks": 384,
            "midi": 72,
            "name": "C5",
            "ticks": 588960,
            "time": 350.57107800000006,
            "velocity": 0.8267716535433071
          },
          {
            "duration": 0.22857119999997622,
            "durationTicks": 384,
            "midi": 79,
            "name": "G5",
            "ticks": 588960,
            "time": 350.57107800000006,
            "velocity": 0.8267716535433071
          },
          {
            "duration": 0.45714239999995243,
            "durationTicks": 768,
            "midi": 72,
            "name": "C5",
            "ticks": 589920,
            "time": 351.142506,
            "velocity": 0.8267716535433071
          },
          {
            "duration": 0.45714239999995243,
            "durationTicks": 768,
            "midi": 77,
            "name": "F5",
            "ticks": 589920,
            "time": 351.142506,
            "velocity": 0.8267716535433071
          },
          {
            "duration": 0.22857119999997622,
            "durationTicks": 384,
            "midi": 72,
            "name": "C5",
            "ticks": 590880,
            "time": 351.71393400000005,
            "velocity": 0.8267716535433071
          },
          {
            "duration": 0.22857119999997622,
            "durationTicks": 384,
            "midi": 77,
            "name": "F5",
            "ticks": 590880,
            "time": 351.71393400000005,
            "velocity": 0.8267716535433071
          },
          {
            "duration": 0.22857119999997622,
            "durationTicks": 384,
            "midi": 71,
            "name": "B4",
            "ticks": 591840,
            "time": 352.285362,
            "velocity": 0.8267716535433071
          },
          {
            "duration": 0.22857119999997622,
            "durationTicks": 384,
            "midi": 77,
            "name": "F5",
            "ticks": 591840,
            "time": 352.285362,
            "velocity": 0.8267716535433071
          },
          {
            "duration": 0.22857120000003306,
            "durationTicks": 384,
            "midi": 71,
            "name": "B4",
            "ticks": 592320,
            "time": 352.571076,
            "velocity": 0.8267716535433071
          },
          {
            "duration": 0.22857120000003306,
            "durationTicks": 384,
            "midi": 77,
            "name": "F5",
            "ticks": 592320,
            "time": 352.571076,
            "velocity": 0.8267716535433071
          },
          {
            "duration": 0.22857119999997622,
            "durationTicks": 384,
            "midi": 71,
            "name": "B4",
            "ticks": 592800,
            "time": 352.85679000000005,
            "velocity": 0.8267716535433071
          },
          {
            "duration": 0.22857119999997622,
            "durationTicks": 384,
            "midi": 77,
            "name": "F5",
            "ticks": 592800,
            "time": 352.85679000000005,
            "velocity": 0.8267716535433071
          },
          {
            "duration": 0.4571424000000093,
            "durationTicks": 768,
            "midi": 72,
            "name": "C5",
            "ticks": 593760,
            "time": 353.428218,
            "velocity": 0.8267716535433071
          },
          {
            "duration": 0.4571424000000093,
            "durationTicks": 768,
            "midi": 75,
            "name": "D#5",
            "ticks": 593760,
            "time": 353.428218,
            "velocity": 0.8267716535433071
          },
          {
            "duration": 0.22857119999997622,
            "durationTicks": 384,
            "midi": 72,
            "name": "C5",
            "ticks": 594720,
            "time": 353.99964600000004,
            "velocity": 0.8267716535433071
          },
          {
            "duration": 0.22857119999997622,
            "durationTicks": 384,
            "midi": 75,
            "name": "D#5",
            "ticks": 594720,
            "time": 353.99964600000004,
            "velocity": 0.8267716535433071
          },
          {
            "duration": 0.4571424000000093,
            "durationTicks": 768,
            "midi": 69,
            "name": "A4",
            "ticks": 595680,
            "time": 354.571074,
            "velocity": 0.8267716535433071
          },
          {
            "duration": 0.4571424000000093,
            "durationTicks": 768,
            "midi": 78,
            "name": "F#5",
            "ticks": 595680,
            "time": 354.571074,
            "velocity": 0.8267716535433071
          },
          {
            "duration": 0.22857119999997622,
            "durationTicks": 384,
            "midi": 72,
            "name": "C5",
            "ticks": 596640,
            "time": 355.14250200000004,
            "velocity": 0.8267716535433071
          },
          {
            "duration": 0.22857119999997622,
            "durationTicks": 384,
            "midi": 74,
            "name": "D5",
            "ticks": 596640,
            "time": 355.14250200000004,
            "velocity": 0.8267716535433071
          },
          {
            "duration": 0.9142848000000185,
            "durationTicks": 1536,
            "midi": 70,
            "name": "A#4",
            "ticks": 597120,
            "time": 355.428216,
            "velocity": 0.8267716535433071
          },
          {
            "duration": 0.9142848000000185,
            "durationTicks": 1536,
            "midi": 74,
            "name": "D5",
            "ticks": 597120,
            "time": 355.428216,
            "velocity": 0.8267716535433071
          },
          {
            "duration": 0.9142848000000185,
            "durationTicks": 1536,
            "midi": 74,
            "name": "D5",
            "ticks": 599040,
            "time": 356.571072,
            "velocity": 0.8267716535433071
          },
          {
            "duration": 0.9142848000000185,
            "durationTicks": 1536,
            "midi": 72,
            "name": "C5",
            "ticks": 600960,
            "time": 357.713928,
            "velocity": 0.8267716535433071
          },
          {
            "duration": 0.9142848000000185,
            "durationTicks": 1536,
            "midi": 84,
            "name": "C6",
            "ticks": 600960,
            "time": 357.713928,
            "velocity": 0.8267716535433071
          },
          {
            "duration": 0.9142848000000185,
            "durationTicks": 1536,
            "midi": 70,
            "name": "A#4",
            "ticks": 602880,
            "time": 358.856784,
            "velocity": 0.8267716535433071
          },
          {
            "duration": 0.9142848000000185,
            "durationTicks": 1536,
            "midi": 82,
            "name": "A#5",
            "ticks": 602880,
            "time": 358.856784,
            "velocity": 0.8267716535433071
          },
          {
            "duration": 0.8571419999999534,
            "durationTicks": 1440,
            "midi": 69,
            "name": "A4",
            "ticks": 604800,
            "time": 359.99964000000006,
            "velocity": 0.8267716535433071
          },
          {
            "duration": 0.8571419999999534,
            "durationTicks": 1440,
            "midi": 81,
            "name": "A5",
            "ticks": 604800,
            "time": 359.99964000000006,
            "velocity": 0.8267716535433071
          },
          {
            "duration": 0.22857120000003306,
            "durationTicks": 384,
            "midi": 66,
            "name": "F#4",
            "ticks": 606240,
            "time": 360.856782,
            "velocity": 0.8267716535433071
          },
          {
            "duration": 0.22857120000003306,
            "durationTicks": 384,
            "midi": 78,
            "name": "F#5",
            "ticks": 606240,
            "time": 360.856782,
            "velocity": 0.8267716535433071
          },
          {
            "duration": 0.7714277999999695,
            "durationTicks": 1296,
            "midi": 67,
            "name": "G4",
            "ticks": 606720,
            "time": 361.14249600000005,
            "velocity": 0.8267716535433071
          },
          {
            "duration": 0.7714277999999695,
            "durationTicks": 1296,
            "midi": 79,
            "name": "G5",
            "ticks": 606720,
            "time": 361.14249600000005,
            "velocity": 0.8267716535433071
          },
          {
            "duration": 0.22857120000003306,
            "durationTicks": 384,
            "midi": 74,
            "name": "D5",
            "ticks": 608160,
            "time": 361.999638,
            "velocity": 0.8267716535433071
          },
          {
            "duration": 0.9142848000000185,
            "durationTicks": 1536,
            "midi": 76,
            "name": "E5",
            "ticks": 608640,
            "time": 362.28535200000005,
            "velocity": 0.8267716535433071
          },
          {
            "duration": 0.9142848000000185,
            "durationTicks": 1536,
            "midi": 79,
            "name": "G5",
            "ticks": 608640,
            "time": 362.28535200000005,
            "velocity": 0.984251968503937
          },
          {
            "duration": 0.9142848000000185,
            "durationTicks": 1536,
            "midi": 76,
            "name": "E5",
            "ticks": 610560,
            "time": 363.42820800000004,
            "velocity": 0.8267716535433071
          },
          {
            "duration": 0.9142848000000185,
            "durationTicks": 1536,
            "midi": 79,
            "name": "G5",
            "ticks": 610560,
            "time": 363.42820800000004,
            "velocity": 0.984251968503937
          },
          {
            "duration": 0.9142848000000185,
            "durationTicks": 1536,
            "midi": 76,
            "name": "E5",
            "ticks": 612480,
            "time": 364.57106400000004,
            "velocity": 0.8267716535433071
          },
          {
            "duration": 0.9142848000000185,
            "durationTicks": 1536,
            "midi": 79,
            "name": "G5",
            "ticks": 612480,
            "time": 364.57106400000004,
            "velocity": 0.984251968503937
          },
          {
            "duration": 0.9142848000000185,
            "durationTicks": 1536,
            "midi": 76,
            "name": "E5",
            "ticks": 614400,
            "time": 365.71392000000003,
            "velocity": 0.8267716535433071
          },
          {
            "duration": 0.9142848000000185,
            "durationTicks": 1536,
            "midi": 79,
            "name": "G5",
            "ticks": 614400,
            "time": 365.71392000000003,
            "velocity": 0.984251968503937
          },
          {
            "duration": 0.45714239999995243,
            "durationTicks": 768,
            "midi": 74,
            "name": "D5",
            "ticks": 616320,
            "time": 366.856776,
            "velocity": 0.8267716535433071
          },
          {
            "duration": 0.45714239999995243,
            "durationTicks": 768,
            "midi": 78,
            "name": "F#5",
            "ticks": 616320,
            "time": 366.856776,
            "velocity": 0.8267716535433071
          },
          {
            "duration": 0.45714239999995243,
            "durationTicks": 768,
            "midi": 78,
            "name": "F#5",
            "ticks": 617280,
            "time": 367.42820400000005,
            "velocity": 0.8267716535433071
          },
          {
            "duration": 0.45714239999995243,
            "durationTicks": 768,
            "midi": 81,
            "name": "A5",
            "ticks": 617280,
            "time": 367.42820400000005,
            "velocity": 0.8267716535433071
          },
          {
            "duration": 0.4571424000000093,
            "durationTicks": 768,
            "midi": 79,
            "name": "G5",
            "ticks": 618240,
            "time": 367.999632,
            "velocity": 0.8267716535433071
          },
          {
            "duration": 0.4571424000000093,
            "durationTicks": 768,
            "midi": 82,
            "name": "A#5",
            "ticks": 618240,
            "time": 367.999632,
            "velocity": 0.8267716535433071
          },
          {
            "duration": 0.45714239999995243,
            "durationTicks": 768,
            "midi": 76,
            "name": "E5",
            "ticks": 619200,
            "time": 368.57106000000005,
            "velocity": 0.8267716535433071
          },
          {
            "duration": 0.45714239999995243,
            "durationTicks": 768,
            "midi": 79,
            "name": "G5",
            "ticks": 619200,
            "time": 368.57106000000005,
            "velocity": 0.8267716535433071
          },
          {
            "duration": 0.4571424000000093,
            "durationTicks": 768,
            "midi": 74,
            "name": "D5",
            "ticks": 620160,
            "time": 369.142488,
            "velocity": 0.8267716535433071
          },
          {
            "duration": 0.4571424000000093,
            "durationTicks": 768,
            "midi": 78,
            "name": "F#5",
            "ticks": 620160,
            "time": 369.142488,
            "velocity": 0.8267716535433071
          },
          {
            "duration": 0.45714239999995243,
            "durationTicks": 768,
            "midi": 81,
            "name": "A5",
            "ticks": 621120,
            "time": 369.71391600000004,
            "velocity": 0.8267716535433071
          },
          {
            "duration": 0.45714239999995243,
            "durationTicks": 768,
            "midi": 85,
            "name": "C#6",
            "ticks": 621120,
            "time": 369.71391600000004,
            "velocity": 0.8267716535433071
          },
          {
            "duration": 0.4571424000000093,
            "durationTicks": 768,
            "midi": 79,
            "name": "G5",
            "ticks": 622080,
            "time": 370.285344,
            "velocity": 0.8267716535433071
          },
          {
            "duration": 0.4571424000000093,
            "durationTicks": 768,
            "midi": 82,
            "name": "A#5",
            "ticks": 622080,
            "time": 370.285344,
            "velocity": 0.8267716535433071
          },
          {
            "duration": 0.45714239999995243,
            "durationTicks": 768,
            "midi": 76,
            "name": "E5",
            "ticks": 623040,
            "time": 370.85677200000003,
            "velocity": 0.8267716535433071
          },
          {
            "duration": 0.45714239999995243,
            "durationTicks": 768,
            "midi": 79,
            "name": "G5",
            "ticks": 623040,
            "time": 370.85677200000003,
            "velocity": 0.8267716535433071
          },
          {
            "duration": 0.22857120000003306,
            "durationTicks": 384,
            "midi": 74,
            "name": "D5",
            "ticks": 624000,
            "time": 371.4282,
            "velocity": 0.8267716535433071
          },
          {
            "duration": 0.22857120000003306,
            "durationTicks": 384,
            "midi": 78,
            "name": "F#5",
            "ticks": 624000,
            "time": 371.4282,
            "velocity": 0.8267716535433071
          },
          {
            "duration": 0.22857119999997622,
            "durationTicks": 384,
            "midi": 66,
            "name": "F#4",
            "ticks": 624960,
            "time": 371.99962800000003,
            "velocity": 0.7244094488188977
          },
          {
            "duration": 0.22857119999997622,
            "durationTicks": 384,
            "midi": 69,
            "name": "A4",
            "ticks": 624960,
            "time": 371.99962800000003,
            "velocity": 0.7244094488188977
          },
          {
            "duration": 0.8571420000000103,
            "durationTicks": 1440,
            "midi": 72,
            "name": "C5",
            "ticks": 629760,
            "time": 374.85676800000005,
            "velocity": 0.4566929133858268
          },
          {
            "duration": 0.0714284999999677,
            "durationTicks": 120,
            "midi": 74,
            "name": "D5",
            "ticks": 631200,
            "time": 375.71391000000006,
            "velocity": 0.4566929133858268
          },
          {
            "duration": 0.07142850000002454,
            "durationTicks": 120,
            "midi": 72,
            "name": "C5",
            "ticks": 631320,
            "time": 375.7853385,
            "velocity": 0.4566929133858268
          },
          {
            "duration": 0.0714284999999677,
            "durationTicks": 120,
            "midi": 70,
            "name": "A#4",
            "ticks": 631440,
            "time": 375.85676700000005,
            "velocity": 0.4566929133858268
          },
          {
            "duration": 0.07142850000002454,
            "durationTicks": 120,
            "midi": 69,
            "name": "A4",
            "ticks": 631560,
            "time": 375.9281955,
            "velocity": 0.4566929133858268
          },
          {
            "duration": 0.22857119999997622,
            "durationTicks": 384,
            "midi": 67,
            "name": "G4",
            "ticks": 631680,
            "time": 375.99962400000004,
            "velocity": 0.4566929133858268
          },
          {
            "duration": 0.14285699999999224,
            "durationTicks": 240,
            "midi": 67,
            "name": "G4",
            "ticks": 641280,
            "time": 381.713904,
            "velocity": 0.4566929133858268
          },
          {
            "duration": 0.14285700000004908,
            "durationTicks": 240,
            "midi": 66,
            "name": "F#4",
            "ticks": 641520,
            "time": 381.856761,
            "velocity": 0.4566929133858268
          },
          {
            "duration": 0.14285699999999224,
            "durationTicks": 240,
            "midi": 69,
            "name": "A4",
            "ticks": 641760,
            "time": 381.99961800000005,
            "velocity": 0.4566929133858268
          },
          {
            "duration": 0.14285699999999224,
            "durationTicks": 240,
            "midi": 67,
            "name": "G4",
            "ticks": 642000,
            "time": 382.14247500000005,
            "velocity": 0.4566929133858268
          },
          {
            "duration": 0.14285699999999224,
            "durationTicks": 240,
            "midi": 70,
            "name": "A#4",
            "ticks": 642240,
            "time": 382.28533200000004,
            "velocity": 0.4566929133858268
          },
          {
            "duration": 0.14285699999999224,
            "durationTicks": 240,
            "midi": 69,
            "name": "A4",
            "ticks": 642480,
            "time": 382.42818900000003,
            "velocity": 0.4566929133858268
          },
          {
            "duration": 0.14285699999999224,
            "durationTicks": 240,
            "midi": 72,
            "name": "C5",
            "ticks": 642720,
            "time": 382.571046,
            "velocity": 0.4566929133858268
          },
          {
            "duration": 0.11428560000001653,
            "durationTicks": 192,
            "midi": 70,
            "name": "A#4",
            "ticks": 642960,
            "time": 382.713903,
            "velocity": 0.4566929133858268
          },
          {
            "duration": 0.8571420000000103,
            "durationTicks": 1440,
            "midi": 74,
            "name": "D5",
            "ticks": 643200,
            "time": 382.85676,
            "velocity": 0.4566929133858268
          },
          {
            "duration": 0.2857140000000413,
            "durationTicks": 480,
            "midi": 73,
            "name": "C#5",
            "ticks": 644640,
            "time": 383.713902,
            "velocity": 0.4566929133858268
          },
          {
            "duration": 0.22857119999997622,
            "durationTicks": 384,
            "midi": 72,
            "name": "C5",
            "ticks": 645120,
            "time": 383.99961600000006,
            "velocity": 0.4566929133858268
          },
          {
            "duration": 0.2857139999999845,
            "durationTicks": 480,
            "midi": 71,
            "name": "B4",
            "ticks": 647520,
            "time": 385.42818600000004,
            "velocity": 0.4566929133858268
          },
          {
            "duration": 0.2857139999999845,
            "durationTicks": 480,
            "midi": 72,
            "name": "C5",
            "ticks": 648000,
            "time": 385.7139,
            "velocity": 0.4566929133858268
          },
          {
            "duration": 0.5142852000000175,
            "durationTicks": 864,
            "midi": 79,
            "name": "G5",
            "ticks": 648000,
            "time": 385.7139,
            "velocity": 0.4566929133858268
          },
          {
            "duration": 0.22857120000003306,
            "durationTicks": 384,
            "midi": 73,
            "name": "C#5",
            "ticks": 648480,
            "time": 385.999614,
            "velocity": 0.4566929133858268
          },
          {
            "duration": 0.5428565999999933,
            "durationTicks": 912,
            "midi": 74,
            "name": "D5",
            "ticks": 648960,
            "time": 386.28532800000005,
            "velocity": 0.4566929133858268
          },
          {
            "duration": 0.4285709999999767,
            "durationTicks": 720,
            "midi": 79,
            "name": "G5",
            "ticks": 648960,
            "time": 386.28532800000005,
            "velocity": 0.4566929133858268
          },
          {
            "duration": 0.11428560000001653,
            "durationTicks": 192,
            "midi": 81,
            "name": "A5",
            "ticks": 649680,
            "time": 386.713899,
            "velocity": 0.4566929133858268
          },
          {
            "duration": 0.22857119999997622,
            "durationTicks": 384,
            "midi": 78,
            "name": "F#5",
            "ticks": 649920,
            "time": 386.856756,
            "velocity": 0.4566929133858268
          },
          {
            "duration": 0.8571420000000103,
            "durationTicks": 1440,
            "midi": 77,
            "name": "F5",
            "ticks": 654720,
            "time": 389.71389600000003,
            "velocity": 0.4566929133858268
          },
          {
            "duration": 0.8571420000000103,
            "durationTicks": 1440,
            "midi": 80,
            "name": "G#5",
            "ticks": 654720,
            "time": 389.71389600000003,
            "velocity": 0.4566929133858268
          },
          {
            "duration": 0.22857119999997622,
            "durationTicks": 384,
            "midi": 75,
            "name": "D#5",
            "ticks": 656160,
            "time": 390.57103800000004,
            "velocity": 0.4566929133858268
          },
          {
            "duration": 0.22857119999997622,
            "durationTicks": 384,
            "midi": 79,
            "name": "G5",
            "ticks": 656160,
            "time": 390.57103800000004,
            "velocity": 0.4566929133858268
          },
          {
            "duration": 0.8571420000000103,
            "durationTicks": 1440,
            "midi": 77,
            "name": "F5",
            "ticks": 656640,
            "time": 390.85675200000003,
            "velocity": 0.4566929133858268
          },
          {
            "duration": 0.8571420000000103,
            "durationTicks": 1440,
            "midi": 80,
            "name": "G#5",
            "ticks": 656640,
            "time": 390.85675200000003,
            "velocity": 0.4566929133858268
          },
          {
            "duration": 0.22857119999997622,
            "durationTicks": 384,
            "midi": 75,
            "name": "D#5",
            "ticks": 658080,
            "time": 391.71389400000004,
            "velocity": 0.4566929133858268
          },
          {
            "duration": 0.22857119999997622,
            "durationTicks": 384,
            "midi": 79,
            "name": "G5",
            "ticks": 658080,
            "time": 391.71389400000004,
            "velocity": 0.4566929133858268
          },
          {
            "duration": 0.8571420000000103,
            "durationTicks": 1440,
            "midi": 77,
            "name": "F5",
            "ticks": 658560,
            "time": 391.999608,
            "velocity": 0.4566929133858268
          },
          {
            "duration": 0.8571420000000103,
            "durationTicks": 1440,
            "midi": 80,
            "name": "G#5",
            "ticks": 658560,
            "time": 391.999608,
            "velocity": 0.4566929133858268
          },
          {
            "duration": 0.22857119999997622,
            "durationTicks": 384,
            "midi": 75,
            "name": "D#5",
            "ticks": 660000,
            "time": 392.85675000000003,
            "velocity": 0.4566929133858268
          },
          {
            "duration": 0.22857119999997622,
            "durationTicks": 384,
            "midi": 79,
            "name": "G5",
            "ticks": 660000,
            "time": 392.85675000000003,
            "velocity": 0.4566929133858268
          },
          {
            "duration": 0.8571420000000103,
            "durationTicks": 1440,
            "midi": 77,
            "name": "F5",
            "ticks": 660480,
            "time": 393.142464,
            "velocity": 0.4566929133858268
          },
          {
            "duration": 0.8571420000000103,
            "durationTicks": 1440,
            "midi": 80,
            "name": "G#5",
            "ticks": 660480,
            "time": 393.142464,
            "velocity": 0.4566929133858268
          },
          {
            "duration": 0.22857119999997622,
            "durationTicks": 384,
            "midi": 75,
            "name": "D#5",
            "ticks": 661920,
            "time": 393.999606,
            "velocity": 0.4566929133858268
          },
          {
            "duration": 0.22857119999997622,
            "durationTicks": 384,
            "midi": 79,
            "name": "G5",
            "ticks": 661920,
            "time": 393.999606,
            "velocity": 0.4566929133858268
          },
          {
            "duration": 1.599998400000004,
            "durationTicks": 2688,
            "midi": 77,
            "name": "F5",
            "ticks": 662400,
            "time": 394.28532,
            "velocity": 0.5511811023622047
          },
          {
            "duration": 1.599998400000004,
            "durationTicks": 2688,
            "midi": 80,
            "name": "G#5",
            "ticks": 662400,
            "time": 394.28532,
            "velocity": 0.5511811023622047
          },
          {
            "duration": 0.45714239999995243,
            "durationTicks": 768,
            "midi": 68,
            "name": "G#4",
            "ticks": 665280,
            "time": 395.99960400000003,
            "velocity": 0.7244094488188977
          },
          {
            "duration": 0.45714239999995243,
            "durationTicks": 768,
            "midi": 74,
            "name": "D5",
            "ticks": 665280,
            "time": 395.99960400000003,
            "velocity": 0.7244094488188977
          },
          {
            "duration": 1.0857131999999865,
            "durationTicks": 1824,
            "midi": 66,
            "name": "F#4",
            "ticks": 666240,
            "time": 396.57103200000006,
            "velocity": 0.8267716535433071
          },
          {
            "duration": 0.45714239999995243,
            "durationTicks": 768,
            "midi": 75,
            "name": "D#5",
            "ticks": 666240,
            "time": 396.57103200000006,
            "velocity": 0.8267716535433071
          },
          {
            "duration": 0.22857119999997622,
            "durationTicks": 384,
            "midi": 72,
            "name": "C5",
            "ticks": 667200,
            "time": 397.14246,
            "velocity": 0.8267716535433071
          },
          {
            "duration": 0.22857120000003306,
            "durationTicks": 384,
            "midi": 69,
            "name": "A4",
            "ticks": 667680,
            "time": 397.428174,
            "velocity": 0.8267716535433071
          },
          {
            "duration": 1.1428559999999948,
            "durationTicks": 1920,
            "midi": 65,
            "name": "F4",
            "ticks": 668160,
            "time": 397.71388800000005,
            "velocity": 0.8267716535433071
          },
          {
            "duration": 0.2857139999999845,
            "durationTicks": 480,
            "midi": 70,
            "name": "A#4",
            "ticks": 668160,
            "time": 397.71388800000005,
            "velocity": 0.8267716535433071
          },
          {
            "duration": 0.2857139999999845,
            "durationTicks": 480,
            "midi": 73,
            "name": "C#5",
            "ticks": 668640,
            "time": 397.99960200000004,
            "velocity": 0.8267716535433071
          },
          {
            "duration": 1.1428559999999948,
            "durationTicks": 1920,
            "midi": 77,
            "name": "F5",
            "ticks": 669120,
            "time": 398.285316,
            "velocity": 0.8267716535433071
          },
          {
            "duration": 1.0857131999999865,
            "durationTicks": 1824,
            "midi": 68,
            "name": "G#4",
            "ticks": 670080,
            "time": 398.85674400000005,
            "velocity": 0.8267716535433071
          },
          {
            "duration": 0.2857140000000413,
            "durationTicks": 480,
            "midi": 74,
            "name": "D5",
            "ticks": 671040,
            "time": 399.428172,
            "velocity": 0.8267716535433071
          },
          {
            "duration": 0.22857119999997622,
            "durationTicks": 384,
            "midi": 71,
            "name": "B4",
            "ticks": 671520,
            "time": 399.71388600000006,
            "velocity": 0.8267716535433071
          },
          {
            "duration": 1.1428559999999948,
            "durationTicks": 1920,
            "midi": 67,
            "name": "G4",
            "ticks": 672000,
            "time": 399.99960000000004,
            "velocity": 0.8267716535433071
          },
          {
            "duration": 0.2857139999999845,
            "durationTicks": 480,
            "midi": 72,
            "name": "C5",
            "ticks": 672000,
            "time": 399.99960000000004,
            "velocity": 0.8267716535433071
          },
          {
            "duration": 0.2857139999999845,
            "durationTicks": 480,
            "midi": 75,
            "name": "D#5",
            "ticks": 672480,
            "time": 400.285314,
            "velocity": 0.8267716535433071
          },
          {
            "duration": 1.1428559999999948,
            "durationTicks": 1920,
            "midi": 79,
            "name": "G5",
            "ticks": 672960,
            "time": 400.571028,
            "velocity": 0.8267716535433071
          },
          {
            "duration": 1.0857131999999865,
            "durationTicks": 1824,
            "midi": 70,
            "name": "A#4",
            "ticks": 673920,
            "time": 401.14245600000004,
            "velocity": 0.8267716535433071
          },
          {
            "duration": 0.2857140000000413,
            "durationTicks": 480,
            "midi": 76,
            "name": "E5",
            "ticks": 674880,
            "time": 401.713884,
            "velocity": 0.8267716535433071
          },
          {
            "duration": 0.22857119999997622,
            "durationTicks": 384,
            "midi": 73,
            "name": "C#5",
            "ticks": 675360,
            "time": 401.99959800000005,
            "velocity": 0.8267716535433071
          },
          {
            "duration": 0.9142848000000185,
            "durationTicks": 1536,
            "midi": 70,
            "name": "A#4",
            "ticks": 675840,
            "time": 402.28531200000003,
            "velocity": 0.8267716535433071
          },
          {
            "duration": 0.9142848000000185,
            "durationTicks": 1536,
            "midi": 74,
            "name": "D5",
            "ticks": 675840,
            "time": 402.28531200000003,
            "velocity": 0.8267716535433071
          },
          {
            "duration": 1.1428559999999948,
            "durationTicks": 1920,
            "midi": 72,
            "name": "C5",
            "ticks": 677760,
            "time": 403.428168,
            "velocity": 0.8267716535433071
          },
          {
            "duration": 0.07142850000002454,
            "durationTicks": 120,
            "midi": 79,
            "name": "G5",
            "ticks": 677760,
            "time": 403.428168,
            "velocity": 0.8267716535433071
          },
          {
            "duration": 0.0714284999999677,
            "durationTicks": 120,
            "midi": 78,
            "name": "F#5",
            "ticks": 677880,
            "time": 403.49959650000005,
            "velocity": 0.8267716535433071
          },
          {
            "duration": 0.07142850000002454,
            "durationTicks": 120,
            "midi": 79,
            "name": "G5",
            "ticks": 678000,
            "time": 403.571025,
            "velocity": 0.8267716535433071
          },
          {
            "duration": 0.0714284999999677,
            "durationTicks": 120,
            "midi": 78,
            "name": "F#5",
            "ticks": 678120,
            "time": 403.64245350000004,
            "velocity": 0.8267716535433071
          },
          {
            "duration": 0.07142850000002454,
            "durationTicks": 120,
            "midi": 79,
            "name": "G5",
            "ticks": 678240,
            "time": 403.713882,
            "velocity": 0.8267716535433071
          },
          {
            "duration": 0.07142850000002454,
            "durationTicks": 120,
            "midi": 78,
            "name": "F#5",
            "ticks": 678360,
            "time": 403.78531050000004,
            "velocity": 0.8267716535433071
          },
          {
            "duration": 0.0714284999999677,
            "durationTicks": 120,
            "midi": 79,
            "name": "G5",
            "ticks": 678480,
            "time": 403.85673900000006,
            "velocity": 0.8267716535433071
          },
          {
            "duration": 0.07142850000002454,
            "durationTicks": 120,
            "midi": 78,
            "name": "F#5",
            "ticks": 678600,
            "time": 403.92816750000003,
            "velocity": 0.8267716535433071
          },
          {
            "duration": 0.0714284999999677,
            "durationTicks": 120,
            "midi": 79,
            "name": "G5",
            "ticks": 678720,
            "time": 403.99959600000005,
            "velocity": 0.8267716535433071
          },
          {
            "duration": 0.07142850000002454,
            "durationTicks": 120,
            "midi": 78,
            "name": "F#5",
            "ticks": 678840,
            "time": 404.0710245,
            "velocity": 0.8267716535433071
          },
          {
            "duration": 0.0714284999999677,
            "durationTicks": 120,
            "midi": 79,
            "name": "G5",
            "ticks": 678960,
            "time": 404.14245300000005,
            "velocity": 0.8267716535433071
          },
          {
            "duration": 0.07142850000002454,
            "durationTicks": 120,
            "midi": 78,
            "name": "F#5",
            "ticks": 679080,
            "time": 404.2138815,
            "velocity": 0.8267716535433071
          },
          {
            "duration": 0.0714284999999677,
            "durationTicks": 120,
            "midi": 79,
            "name": "G5",
            "ticks": 679200,
            "time": 404.28531000000004,
            "velocity": 0.8267716535433071
          },
          {
            "duration": 0.07142850000002454,
            "durationTicks": 120,
            "midi": 78,
            "name": "F#5",
            "ticks": 679320,
            "time": 404.3567385,
            "velocity": 0.8267716535433071
          },
          {
            "duration": 0.07142850000002454,
            "durationTicks": 120,
            "midi": 76,
            "name": "E5",
            "ticks": 679440,
            "time": 404.42816700000003,
            "velocity": 0.8267716535433071
          },
          {
            "duration": 0.0714284999999677,
            "durationTicks": 120,
            "midi": 78,
            "name": "F#5",
            "ticks": 679560,
            "time": 404.49959550000005,
            "velocity": 0.8267716535433071
          },
          {
            "duration": 0.22857119999997622,
            "durationTicks": 384,
            "midi": 70,
            "name": "A#4",
            "ticks": 679680,
            "time": 404.571024,
            "velocity": 0.7244094488188977
          },
          {
            "duration": 0.22857119999997622,
            "durationTicks": 384,
            "midi": 79,
            "name": "G5",
            "ticks": 679680,
            "time": 404.571024,
            "velocity": 0.7244094488188977
          },
          {
            "duration": 0.22857120000003306,
            "durationTicks": 384,
            "midi": 71,
            "name": "B4",
            "ticks": 683520,
            "time": 406.856736,
            "velocity": 0.8267716535433071
          },
          {
            "duration": 0.22857120000003306,
            "durationTicks": 384,
            "midi": 74,
            "name": "D5",
            "ticks": 683520,
            "time": 406.856736,
            "velocity": 0.8267716535433071
          },
          {
            "duration": 0.22857119999997622,
            "durationTicks": 384,
            "midi": 72,
            "name": "C5",
            "ticks": 684480,
            "time": 407.42816400000004,
            "velocity": 0.8267716535433071
          },
          {
            "duration": 0.22857119999997622,
            "durationTicks": 384,
            "midi": 75,
            "name": "D#5",
            "ticks": 684480,
            "time": 407.42816400000004,
            "velocity": 0.8267716535433071
          },
          {
            "duration": 0.22857120000003306,
            "durationTicks": 384,
            "midi": 74,
            "name": "D5",
            "ticks": 685440,
            "time": 407.999592,
            "velocity": 0.8267716535433071
          },
          {
            "duration": 0.22857120000003306,
            "durationTicks": 384,
            "midi": 78,
            "name": "F#5",
            "ticks": 685440,
            "time": 407.999592,
            "velocity": 0.8267716535433071
          },
          {
            "duration": 0.22857119999997622,
            "durationTicks": 384,
            "midi": 74,
            "name": "D5",
            "ticks": 686400,
            "time": 408.57102000000003,
            "velocity": 0.8267716535433071
          },
          {
            "duration": 0.22857119999997622,
            "durationTicks": 384,
            "midi": 79,
            "name": "G5",
            "ticks": 686400,
            "time": 408.57102000000003,
            "velocity": 0.8267716535433071
          },
          {
            "duration": 0.14285699999999224,
            "durationTicks": 240,
            "midi": 75,
            "name": "D#5",
            "ticks": 692640,
            "time": 412.28530200000006,
            "velocity": 0.6299212598425197
          },
          {
            "duration": 0.11428560000001653,
            "durationTicks": 192,
            "midi": 74,
            "name": "D5",
            "ticks": 692880,
            "time": 412.42815900000005,
            "velocity": 0.6299212598425197
          },
          {
            "duration": 0.22857119999997622,
            "durationTicks": 384,
            "midi": 74,
            "name": "D5",
            "ticks": 693120,
            "time": 412.57101600000004,
            "velocity": 0.6299212598425197
          },
          {
            "duration": 0.14285699999999224,
            "durationTicks": 240,
            "midi": 75,
            "name": "D#5",
            "ticks": 693600,
            "time": 412.85673,
            "velocity": 0.6299212598425197
          },
          {
            "duration": 0.11428560000001653,
            "durationTicks": 192,
            "midi": 74,
            "name": "D5",
            "ticks": 693840,
            "time": 412.999587,
            "velocity": 0.6299212598425197
          },
          {
            "duration": 0.22857120000003306,
            "durationTicks": 384,
            "midi": 74,
            "name": "D5",
            "ticks": 694080,
            "time": 413.142444,
            "velocity": 0.6299212598425197
          },
          {
            "duration": 0.14285699999999224,
            "durationTicks": 240,
            "midi": 75,
            "name": "D#5",
            "ticks": 696480,
            "time": 414.57101400000005,
            "velocity": 0.6299212598425197
          },
          {
            "duration": 0.11428560000001653,
            "durationTicks": 192,
            "midi": 74,
            "name": "D5",
            "ticks": 696720,
            "time": 414.71387100000004,
            "velocity": 0.5511811023622047
          },
          {
            "duration": 0.22857119999997622,
            "durationTicks": 384,
            "midi": 74,
            "name": "D5",
            "ticks": 696960,
            "time": 414.85672800000003,
            "velocity": 0.5511811023622047
          },
          {
            "duration": 0.14285699999999224,
            "durationTicks": 240,
            "midi": 75,
            "name": "D#5",
            "ticks": 697440,
            "time": 415.142442,
            "velocity": 0.5511811023622047
          },
          {
            "duration": 0.11428560000007337,
            "durationTicks": 192,
            "midi": 74,
            "name": "D5",
            "ticks": 697680,
            "time": 415.285299,
            "velocity": 0.5511811023622047
          },
          {
            "duration": 0.22857119999997622,
            "durationTicks": 384,
            "midi": 74,
            "name": "D5",
            "ticks": 697920,
            "time": 415.42815600000006,
            "velocity": 0.5511811023622047
          },
          {
            "duration": 0.9142848000000185,
            "durationTicks": 1536,
            "midi": 79,
            "name": "G5",
            "ticks": 700800,
            "time": 417.14244,
            "velocity": 0.8267716535433071
          },
          {
            "duration": 0.9142848000000185,
            "durationTicks": 1536,
            "midi": 83,
            "name": "B5",
            "ticks": 700800,
            "time": 417.14244,
            "velocity": 0.8267716535433071
          },
          {
            "duration": 0.9142848000000185,
            "durationTicks": 1536,
            "midi": 79,
            "name": "G5",
            "ticks": 702720,
            "time": 418.285296,
            "velocity": 0.8267716535433071
          },
          {
            "duration": 0.9142848000000185,
            "durationTicks": 1536,
            "midi": 84,
            "name": "C6",
            "ticks": 702720,
            "time": 418.285296,
            "velocity": 0.8267716535433071
          },
          {
            "duration": 0.4571424000000093,
            "durationTicks": 768,
            "midi": 79,
            "name": "G5",
            "ticks": 704640,
            "time": 419.428152,
            "velocity": 0.8267716535433071
          },
          {
            "duration": 0.4571424000000093,
            "durationTicks": 768,
            "midi": 82,
            "name": "A#5",
            "ticks": 704640,
            "time": 419.428152,
            "velocity": 0.8267716535433071
          },
          {
            "duration": 0.45714239999995243,
            "durationTicks": 768,
            "midi": 72,
            "name": "C5",
            "ticks": 705600,
            "time": 419.99958000000004,
            "velocity": 0.8267716535433071
          },
          {
            "duration": 0.45714239999995243,
            "durationTicks": 768,
            "midi": 78,
            "name": "F#5",
            "ticks": 705600,
            "time": 419.99958000000004,
            "velocity": 0.8267716535433071
          },
          {
            "duration": 0.22857120000003306,
            "durationTicks": 384,
            "midi": 70,
            "name": "A#4",
            "ticks": 706560,
            "time": 420.571008,
            "velocity": 0.7244094488188977
          },
          {
            "duration": 0.22857120000003306,
            "durationTicks": 384,
            "midi": 79,
            "name": "G5",
            "ticks": 706560,
            "time": 420.571008,
            "velocity": 0.7244094488188977
          },
          {
            "duration": 0.14285700000004908,
            "durationTicks": 240,
            "midi": 75,
            "name": "D#5",
            "ticks": 709920,
            "time": 422.571006,
            "velocity": 0.6299212598425197
          },
          {
            "duration": 0.11428560000001653,
            "durationTicks": 192,
            "midi": 74,
            "name": "D5",
            "ticks": 710160,
            "time": 422.71386300000006,
            "velocity": 0.6299212598425197
          },
          {
            "duration": 0.22857119999997622,
            "durationTicks": 384,
            "midi": 74,
            "name": "D5",
            "ticks": 710400,
            "time": 422.85672000000005,
            "velocity": 0.6299212598425197
          },
          {
            "duration": 0.14285699999999224,
            "durationTicks": 240,
            "midi": 75,
            "name": "D#5",
            "ticks": 710880,
            "time": 423.14243400000004,
            "velocity": 0.6299212598425197
          },
          {
            "duration": 0.11428560000001653,
            "durationTicks": 192,
            "midi": 74,
            "name": "D5",
            "ticks": 711120,
            "time": 423.28529100000003,
            "velocity": 0.6299212598425197
          },
          {
            "duration": 0.22857119999997622,
            "durationTicks": 384,
            "midi": 74,
            "name": "D5",
            "ticks": 711360,
            "time": 423.428148,
            "velocity": 0.6299212598425197
          },
          {
            "duration": 0.14285699999999224,
            "durationTicks": 240,
            "midi": 75,
            "name": "D#5",
            "ticks": 713760,
            "time": 424.85671800000006,
            "velocity": 0.5511811023622047
          },
          {
            "duration": 0.11428560000001653,
            "durationTicks": 192,
            "midi": 74,
            "name": "D5",
            "ticks": 714000,
            "time": 424.99957500000005,
            "velocity": 0.5511811023622047
          },
          {
            "duration": 0.22857119999997622,
            "durationTicks": 384,
            "midi": 74,
            "name": "D5",
            "ticks": 714240,
            "time": 425.14243200000004,
            "velocity": 0.5511811023622047
          },
          {
            "duration": 0.14285699999999224,
            "durationTicks": 240,
            "midi": 75,
            "name": "D#5",
            "ticks": 714720,
            "time": 425.428146,
            "velocity": 0.5511811023622047
          },
          {
            "duration": 0.11428560000001653,
            "durationTicks": 192,
            "midi": 74,
            "name": "D5",
            "ticks": 714960,
            "time": 425.571003,
            "velocity": 0.5511811023622047
          },
          {
            "duration": 0.22857120000003306,
            "durationTicks": 384,
            "midi": 74,
            "name": "D5",
            "ticks": 715200,
            "time": 425.71386,
            "velocity": 0.5511811023622047
          },
          {
            "duration": 0.9142848000000185,
            "durationTicks": 1536,
            "midi": 79,
            "name": "G5",
            "ticks": 716160,
            "time": 426.28528800000004,
            "velocity": 0.8267716535433071
          },
          {
            "duration": 0.9142848000000185,
            "durationTicks": 1536,
            "midi": 83,
            "name": "B5",
            "ticks": 716160,
            "time": 426.28528800000004,
            "velocity": 0.8267716535433071
          },
          {
            "duration": 0.9142848000000185,
            "durationTicks": 1536,
            "midi": 79,
            "name": "G5",
            "ticks": 718080,
            "time": 427.42814400000003,
            "velocity": 0.8267716535433071
          },
          {
            "duration": 0.9142848000000185,
            "durationTicks": 1536,
            "midi": 84,
            "name": "C6",
            "ticks": 718080,
            "time": 427.42814400000003,
            "velocity": 0.8267716535433071
          },
          {
            "duration": 0.5714280000000258,
            "durationTicks": 960,
            "midi": 79,
            "name": "G5",
            "ticks": 720000,
            "time": 428.571,
            "velocity": 0.8267716535433071
          },
          {
            "duration": 0.5714280000000258,
            "durationTicks": 960,
            "midi": 82,
            "name": "A#5",
            "ticks": 720000,
            "time": 428.571,
            "velocity": 0.8267716535433071
          },
          {
            "duration": 0.45714239999995243,
            "durationTicks": 768,
            "midi": 72,
            "name": "C5",
            "ticks": 720960,
            "time": 429.14242800000005,
            "velocity": 0.8267716535433071
          },
          {
            "duration": 0.45714239999995243,
            "durationTicks": 768,
            "midi": 78,
            "name": "F#5",
            "ticks": 720960,
            "time": 429.14242800000005,
            "velocity": 0.8267716535433071
          },
          {
            "duration": 0.4571424000000093,
            "durationTicks": 768,
            "midi": 70,
            "name": "A#4",
            "ticks": 721920,
            "time": 429.713856,
            "velocity": 0.8267716535433071
          },
          {
            "duration": 0.4571424000000093,
            "durationTicks": 768,
            "midi": 79,
            "name": "G5",
            "ticks": 721920,
            "time": 429.713856,
            "velocity": 0.8267716535433071
          },
          {
            "duration": 0.11428560000001653,
            "durationTicks": 192,
            "midi": 74,
            "name": "D5",
            "ticks": 723600,
            "time": 430.713855,
            "velocity": 0.8267716535433071
          },
          {
            "duration": 0.11428560000001653,
            "durationTicks": 192,
            "midi": 86,
            "name": "D6",
            "ticks": 723600,
            "time": 430.713855,
            "velocity": 0.8267716535433071
          },
          {
            "duration": 0.11428560000007337,
            "durationTicks": 192,
            "midi": 72,
            "name": "C5",
            "ticks": 723840,
            "time": 430.856712,
            "velocity": 0.8267716535433071
          },
          {
            "duration": 0.11428560000007337,
            "durationTicks": 192,
            "midi": 84,
            "name": "C6",
            "ticks": 723840,
            "time": 430.856712,
            "velocity": 0.8267716535433071
          },
          {
            "duration": 0.11428560000007337,
            "durationTicks": 192,
            "midi": 70,
            "name": "A#4",
            "ticks": 724080,
            "time": 430.999569,
            "velocity": 0.8267716535433071
          },
          {
            "duration": 0.11428560000007337,
            "durationTicks": 192,
            "midi": 82,
            "name": "A#5",
            "ticks": 724080,
            "time": 430.999569,
            "velocity": 0.8267716535433071
          },
          {
            "duration": 0.11428560000001653,
            "durationTicks": 192,
            "midi": 69,
            "name": "A4",
            "ticks": 724320,
            "time": 431.14242600000006,
            "velocity": 0.8267716535433071
          },
          {
            "duration": 0.11428560000001653,
            "durationTicks": 192,
            "midi": 81,
            "name": "A5",
            "ticks": 724320,
            "time": 431.14242600000006,
            "velocity": 0.8267716535433071
          },
          {
            "duration": 0.11428560000001653,
            "durationTicks": 192,
            "midi": 67,
            "name": "G4",
            "ticks": 724560,
            "time": 431.28528300000005,
            "velocity": 0.8267716535433071
          },
          {
            "duration": 0.11428560000001653,
            "durationTicks": 192,
            "midi": 79,
            "name": "G5",
            "ticks": 724560,
            "time": 431.28528300000005,
            "velocity": 0.8267716535433071
          },
          {
            "duration": 0.11428560000001653,
            "durationTicks": 192,
            "midi": 66,
            "name": "F#4",
            "ticks": 724800,
            "time": 431.42814000000004,
            "velocity": 0.8267716535433071
          },
          {
            "duration": 0.11428560000001653,
            "durationTicks": 192,
            "midi": 78,
            "name": "F#5",
            "ticks": 724800,
            "time": 431.42814000000004,
            "velocity": 0.8267716535433071
          },
          {
            "duration": 0.11428560000001653,
            "durationTicks": 192,
            "midi": 63,
            "name": "D#4",
            "ticks": 725040,
            "time": 431.57099700000003,
            "velocity": 0.8267716535433071
          },
          {
            "duration": 0.11428560000001653,
            "durationTicks": 192,
            "midi": 75,
            "name": "D#5",
            "ticks": 725040,
            "time": 431.57099700000003,
            "velocity": 0.8267716535433071
          },
          {
            "duration": 0.11428560000001653,
            "durationTicks": 192,
            "midi": 62,
            "name": "D4",
            "ticks": 725280,
            "time": 431.713854,
            "velocity": 0.8267716535433071
          },
          {
            "duration": 0.11428560000001653,
            "durationTicks": 192,
            "midi": 74,
            "name": "D5",
            "ticks": 725280,
            "time": 431.713854,
            "velocity": 0.8267716535433071
          },
          {
            "duration": 0.11428560000001653,
            "durationTicks": 192,
            "midi": 60,
            "name": "C4",
            "ticks": 725520,
            "time": 431.856711,
            "velocity": 0.8267716535433071
          },
          {
            "duration": 0.11428560000001653,
            "durationTicks": 192,
            "midi": 72,
            "name": "C5",
            "ticks": 725520,
            "time": 431.856711,
            "velocity": 0.8267716535433071
          },
          {
            "duration": 0.18571410000004107,
            "durationTicks": 312,
            "midi": 70,
            "name": "A#4",
            "ticks": 725760,
            "time": 431.999568,
            "velocity": 0.8267716535433071
          },
          {
            "duration": 0.18571410000004107,
            "durationTicks": 312,
            "midi": 74,
            "name": "D5",
            "ticks": 725760,
            "time": 431.999568,
            "velocity": 0.8267716535433071
          },
          {
            "duration": 0.18571409999998423,
            "durationTicks": 312,
            "midi": 74,
            "name": "D5",
            "ticks": 726240,
            "time": 432.28528200000005,
            "velocity": 0.8267716535433071
          },
          {
            "duration": 0.18571409999998423,
            "durationTicks": 312,
            "midi": 79,
            "name": "G5",
            "ticks": 726240,
            "time": 432.28528200000005,
            "velocity": 0.8267716535433071
          },
          {
            "duration": 0.18571410000004107,
            "durationTicks": 312,
            "midi": 72,
            "name": "C5",
            "ticks": 726720,
            "time": 432.57099600000004,
            "velocity": 0.8267716535433071
          },
          {
            "duration": 0.18571410000004107,
            "durationTicks": 312,
            "midi": 79,
            "name": "G5",
            "ticks": 726720,
            "time": 432.57099600000004,
            "velocity": 0.8267716535433071
          },
          {
            "duration": 0.18571410000004107,
            "durationTicks": 312,
            "midi": 69,
            "name": "A4",
            "ticks": 727200,
            "time": 432.85671,
            "velocity": 0.8267716535433071
          },
          {
            "duration": 0.18571410000004107,
            "durationTicks": 312,
            "midi": 72,
            "name": "C5",
            "ticks": 727200,
            "time": 432.85671,
            "velocity": 0.8267716535433071
          },
          {
            "duration": 0.11428560000001653,
            "durationTicks": 192,
            "midi": 67,
            "name": "G4",
            "ticks": 727680,
            "time": 433.14242400000006,
            "velocity": 0.8267716535433071
          },
          {
            "duration": 0.11428560000001653,
            "durationTicks": 192,
            "midi": 70,
            "name": "A#4",
            "ticks": 727680,
            "time": 433.14242400000006,
            "velocity": 0.8267716535433071
          },
          {
            "duration": 0.11428560000001653,
            "durationTicks": 192,
            "midi": 74,
            "name": "D5",
            "ticks": 727920,
            "time": 433.28528100000005,
            "velocity": 0.8267716535433071
          },
          {
            "duration": 0.11428560000001653,
            "durationTicks": 192,
            "midi": 82,
            "name": "A#5",
            "ticks": 728160,
            "time": 433.42813800000005,
            "velocity": 0.8267716535433071
          },
          {
            "duration": 0.11428560000001653,
            "durationTicks": 192,
            "midi": 81,
            "name": "A5",
            "ticks": 728400,
            "time": 433.57099500000004,
            "velocity": 0.8267716535433071
          },
          {
            "duration": 0.11428560000001653,
            "durationTicks": 192,
            "midi": 79,
            "name": "G5",
            "ticks": 728640,
            "time": 433.71385200000003,
            "velocity": 0.8267716535433071
          },
          {
            "duration": 0.11428560000001653,
            "durationTicks": 192,
            "midi": 77,
            "name": "F5",
            "ticks": 728880,
            "time": 433.856709,
            "velocity": 0.8267716535433071
          },
          {
            "duration": 0.11428560000007337,
            "durationTicks": 192,
            "midi": 75,
            "name": "D#5",
            "ticks": 729120,
            "time": 433.999566,
            "velocity": 0.8267716535433071
          },
          {
            "duration": 0.11428560000007337,
            "durationTicks": 192,
            "midi": 74,
            "name": "D5",
            "ticks": 729360,
            "time": 434.142423,
            "velocity": 0.8267716535433071
          },
          {
            "duration": 0.11428560000001653,
            "durationTicks": 192,
            "midi": 73,
            "name": "C#5",
            "ticks": 729600,
            "time": 434.28528000000006,
            "velocity": 0.8267716535433071
          },
          {
            "duration": 0.11428560000001653,
            "durationTicks": 192,
            "midi": 76,
            "name": "E5",
            "ticks": 729840,
            "time": 434.42813700000005,
            "velocity": 0.8267716535433071
          },
          {
            "duration": 0.11428560000001653,
            "durationTicks": 192,
            "midi": 81,
            "name": "A5",
            "ticks": 730080,
            "time": 434.57099400000004,
            "velocity": 0.8267716535433071
          },
          {
            "duration": 0.11428560000001653,
            "durationTicks": 192,
            "midi": 79,
            "name": "G5",
            "ticks": 730320,
            "time": 434.71385100000003,
            "velocity": 0.8267716535433071
          },
          {
            "duration": 0.11428560000001653,
            "durationTicks": 192,
            "midi": 78,
            "name": "F#5",
            "ticks": 730560,
            "time": 434.856708,
            "velocity": 0.8267716535433071
          },
          {
            "duration": 0.11428560000001653,
            "durationTicks": 192,
            "midi": 75,
            "name": "D#5",
            "ticks": 730800,
            "time": 434.999565,
            "velocity": 0.8267716535433071
          },
          {
            "duration": 0.11428560000007337,
            "durationTicks": 192,
            "midi": 74,
            "name": "D5",
            "ticks": 731040,
            "time": 435.142422,
            "velocity": 0.8267716535433071
          },
          {
            "duration": 0.11428560000001653,
            "durationTicks": 192,
            "midi": 72,
            "name": "C5",
            "ticks": 731280,
            "time": 435.28527900000006,
            "velocity": 0.8267716535433071
          },
          {
            "duration": 0.22857119999997622,
            "durationTicks": 384,
            "midi": 70,
            "name": "A#4",
            "ticks": 731520,
            "time": 435.42813600000005,
            "velocity": 0.8267716535433071
          },
          {
            "duration": 0.4632191999999691,
            "durationTicks": 768,
            "midi": 67,
            "name": "G4",
            "ticks": 732000,
            "time": 435.71385000000004,
            "velocity": 0.7244094488188977
          },
          {
            "duration": 0.4632191999999691,
            "durationTicks": 768,
            "midi": 79,
            "name": "G5",
            "ticks": 732000,
            "time": 435.71385000000004,
            "velocity": 0.7244094488188977
          },
          {
            "duration": 0.5317420000000084,
            "durationTicks": 864,
            "midi": 68,
            "name": "G#4",
            "ticks": 732960,
            "time": 436.29357400000004,
            "velocity": 0.7244094488188977
          },
          {
            "duration": 0.5317420000000084,
            "durationTicks": 864,
            "midi": 80,
            "name": "G#5",
            "ticks": 732960,
            "time": 436.29357400000004,
            "velocity": 0.7244094488188977
          },
          {
            "duration": 0.47941179999997985,
            "durationTicks": 768,
            "midi": 69,
            "name": "A4",
            "ticks": 733920,
            "time": 436.88472200000007,
            "velocity": 0.7244094488188977
          },
          {
            "duration": 0.47941179999997985,
            "durationTicks": 768,
            "midi": 81,
            "name": "A5",
            "ticks": 733920,
            "time": 436.88472200000007,
            "velocity": 0.7244094488188977
          },
          {
            "duration": 0.5507226000000287,
            "durationTicks": 864,
            "midi": 70,
            "name": "A#4",
            "ticks": 734880,
            "time": 437.48473700000005,
            "velocity": 0.7244094488188977
          },
          {
            "duration": 0.5507226000000287,
            "durationTicks": 864,
            "midi": 82,
            "name": "A#5",
            "ticks": 734880,
            "time": 437.48473700000005,
            "velocity": 0.7244094488188977
          },
          {
            "duration": 0.49936259999998356,
            "durationTicks": 768,
            "midi": 71,
            "name": "B4",
            "ticks": 735840,
            "time": 438.09699800000004,
            "velocity": 0.7244094488188977
          },
          {
            "duration": 0.49936259999998356,
            "durationTicks": 768,
            "midi": 83,
            "name": "B5",
            "ticks": 735840,
            "time": 438.09699800000004,
            "velocity": 0.7244094488188977
          },
          {
            "duration": 0.5741447999999991,
            "durationTicks": 864,
            "midi": 72,
            "name": "C5",
            "ticks": 736800,
            "time": 438.72201500000006,
            "velocity": 0.7244094488188977
          },
          {
            "duration": 0.5741447999999991,
            "durationTicks": 864,
            "midi": 84,
            "name": "C6",
            "ticks": 736800,
            "time": 438.72201500000006,
            "velocity": 0.7244094488188977
          },
          {
            "duration": 0.5182331999999974,
            "durationTicks": 768,
            "midi": 73,
            "name": "C#5",
            "ticks": 737760,
            "time": 439.36033100000003,
            "velocity": 0.7244094488188977
          },
          {
            "duration": 0.5182331999999974,
            "durationTicks": 768,
            "midi": 85,
            "name": "C#6",
            "ticks": 737760,
            "time": 439.36033100000003,
            "velocity": 0.7244094488188977
          },
          {
            "duration": 0.06593399999997018,
            "durationTicks": 96,
            "midi": 70,
            "name": "A#4",
            "ticks": 739080,
            "time": 440.2562515,
            "velocity": 0.5511811023622047
          },
          {
            "duration": 0.06593399999997018,
            "durationTicks": 96,
            "midi": 79,
            "name": "G5",
            "ticks": 739080,
            "time": 440.2562515,
            "velocity": 0.5511811023622047
          },
          {
            "duration": 1.1399999999999864,
            "durationTicks": 1824,
            "midi": 70,
            "name": "A#4",
            "ticks": 739200,
            "time": 440.33866900000004,
            "velocity": 0.4566929133858268
          },
          {
            "duration": 1.1399999999999864,
            "durationTicks": 1824,
            "midi": 79,
            "name": "G5",
            "ticks": 739200,
            "time": 440.33866900000004,
            "velocity": 0.4566929133858268
          },
          {
            "duration": 1.1399999999999864,
            "durationTicks": 1824,
            "midi": 69,
            "name": "A4",
            "ticks": 741120,
            "time": 441.538669,
            "velocity": 0.4566929133858268
          },
          {
            "duration": 1.1399999999999864,
            "durationTicks": 1824,
            "midi": 72,
            "name": "C5",
            "ticks": 741120,
            "time": 441.538669,
            "velocity": 0.4566929133858268
          },
          {
            "duration": 0.2400000000000091,
            "durationTicks": 384,
            "midi": 67,
            "name": "G4",
            "ticks": 743040,
            "time": 442.738669,
            "velocity": 0.4566929133858268
          },
          {
            "duration": 0.2400000000000091,
            "durationTicks": 384,
            "midi": 70,
            "name": "A#4",
            "ticks": 743040,
            "time": 442.738669,
            "velocity": 0.4566929133858268
          },
          {
            "duration": 0.14999999999997726,
            "durationTicks": 240,
            "midi": 75,
            "name": "D#5",
            "ticks": 752160,
            "time": 448.43866900000006,
            "velocity": 0.5511811023622047
          },
          {
            "duration": 0.12000000000000455,
            "durationTicks": 192,
            "midi": 74,
            "name": "D5",
            "ticks": 752400,
            "time": 448.58866900000004,
            "velocity": 0.5511811023622047
          },
          {
            "duration": 0.2400000000000091,
            "durationTicks": 384,
            "midi": 74,
            "name": "D5",
            "ticks": 752640,
            "time": 448.738669,
            "velocity": 0.5511811023622047
          },
          {
            "duration": 0.1500000000000341,
            "durationTicks": 240,
            "midi": 75,
            "name": "D#5",
            "ticks": 753120,
            "time": 449.038669,
            "velocity": 0.5511811023622047
          },
          {
            "duration": 0.1199999999999477,
            "durationTicks": 192,
            "midi": 74,
            "name": "D5",
            "ticks": 753360,
            "time": 449.18866900000006,
            "velocity": 0.5511811023622047
          },
          {
            "duration": 0.2400000000000091,
            "durationTicks": 384,
            "midi": 74,
            "name": "D5",
            "ticks": 753600,
            "time": 449.33866900000004,
            "velocity": 0.5511811023622047
          },
          {
            "duration": 0.14999999999997726,
            "durationTicks": 240,
            "midi": 75,
            "name": "D#5",
            "ticks": 754080,
            "time": 449.63866900000005,
            "velocity": 0.5511811023622047
          },
          {
            "duration": 0.12000000000000455,
            "durationTicks": 192,
            "midi": 74,
            "name": "D5",
            "ticks": 754320,
            "time": 449.788669,
            "velocity": 0.5511811023622047
          },
          {
            "duration": 0.1999998000000005,
            "durationTicks": 336,
            "midi": 70,
            "name": "A#4",
            "ticks": 754560,
            "time": 449.93866900000006,
            "velocity": 0.8267716535433071
          },
          {
            "duration": 0.1999998000000005,
            "durationTicks": 336,
            "midi": 74,
            "name": "D5",
            "ticks": 754560,
            "time": 449.93866900000006,
            "velocity": 0.8267716535433071
          },
          {
            "duration": 0.09999990000000025,
            "durationTicks": 168,
            "midi": 79,
            "name": "G5",
            "ticks": 755040,
            "time": 450.22438300000005,
            "velocity": 0.8267716535433071
          },
          {
            "duration": 0.09999990000000025,
            "durationTicks": 168,
            "midi": 82,
            "name": "A#5",
            "ticks": 755040,
            "time": 450.22438300000005,
            "velocity": 0.8267716535433071
          },
          {
            "duration": 0.09999990000000025,
            "durationTicks": 168,
            "midi": 79,
            "name": "G5",
            "ticks": 755280,
            "time": 450.36724000000004,
            "velocity": 0.8267716535433071
          },
          {
            "duration": 0.09999990000000025,
            "durationTicks": 168,
            "midi": 82,
            "name": "A#5",
            "ticks": 755280,
            "time": 450.36724000000004,
            "velocity": 0.8267716535433071
          },
          {
            "duration": 0.1999998000000005,
            "durationTicks": 336,
            "midi": 78,
            "name": "F#5",
            "ticks": 755520,
            "time": 450.5100970000001,
            "velocity": 0.8267716535433071
          },
          {
            "duration": 0.1999998000000005,
            "durationTicks": 336,
            "midi": 81,
            "name": "A5",
            "ticks": 755520,
            "time": 450.5100970000001,
            "velocity": 0.8267716535433071
          },
          {
            "duration": 0.09999990000000025,
            "durationTicks": 168,
            "midi": 78,
            "name": "F#5",
            "ticks": 756000,
            "time": 450.79581100000007,
            "velocity": 0.8267716535433071
          },
          {
            "duration": 0.09999990000000025,
            "durationTicks": 168,
            "midi": 81,
            "name": "A5",
            "ticks": 756000,
            "time": 450.79581100000007,
            "velocity": 0.8267716535433071
          },
          {
            "duration": 0.09999990000000025,
            "durationTicks": 168,
            "midi": 78,
            "name": "F#5",
            "ticks": 756240,
            "time": 450.93866800000006,
            "velocity": 0.8267716535433071
          },
          {
            "duration": 0.09999990000000025,
            "durationTicks": 168,
            "midi": 81,
            "name": "A5",
            "ticks": 756240,
            "time": 450.93866800000006,
            "velocity": 0.8267716535433071
          },
          {
            "duration": 0.1999998000000005,
            "durationTicks": 336,
            "midi": 79,
            "name": "G5",
            "ticks": 756480,
            "time": 451.08152500000006,
            "velocity": 0.8267716535433071
          },
          {
            "duration": 0.1999998000000005,
            "durationTicks": 336,
            "midi": 82,
            "name": "A#5",
            "ticks": 756480,
            "time": 451.08152500000006,
            "velocity": 0.8267716535433071
          },
          {
            "duration": 0.09999990000000025,
            "durationTicks": 168,
            "midi": 79,
            "name": "G5",
            "ticks": 756960,
            "time": 451.36723900000004,
            "velocity": 0.8267716535433071
          },
          {
            "duration": 0.09999990000000025,
            "durationTicks": 168,
            "midi": 82,
            "name": "A#5",
            "ticks": 756960,
            "time": 451.36723900000004,
            "velocity": 0.8267716535433071
          },
          {
            "duration": 0.09999989999994341,
            "durationTicks": 168,
            "midi": 79,
            "name": "G5",
            "ticks": 757200,
            "time": 451.5100960000001,
            "velocity": 0.8267716535433071
          },
          {
            "duration": 0.09999989999994341,
            "durationTicks": 168,
            "midi": 82,
            "name": "A#5",
            "ticks": 757200,
            "time": 451.5100960000001,
            "velocity": 0.8267716535433071
          },
          {
            "duration": 0.1999998000000005,
            "durationTicks": 336,
            "midi": 78,
            "name": "F#5",
            "ticks": 757440,
            "time": 451.6529530000001,
            "velocity": 0.8267716535433071
          },
          {
            "duration": 0.1999998000000005,
            "durationTicks": 336,
            "midi": 81,
            "name": "A5",
            "ticks": 757440,
            "time": 451.6529530000001,
            "velocity": 0.8267716535433071
          },
          {
            "duration": 0.09999990000000025,
            "durationTicks": 168,
            "midi": 78,
            "name": "F#5",
            "ticks": 757920,
            "time": 451.93866700000007,
            "velocity": 0.8267716535433071
          },
          {
            "duration": 0.09999990000000025,
            "durationTicks": 168,
            "midi": 81,
            "name": "A5",
            "ticks": 757920,
            "time": 451.93866700000007,
            "velocity": 0.8267716535433071
          },
          {
            "duration": 0.09999990000000025,
            "durationTicks": 168,
            "midi": 78,
            "name": "F#5",
            "ticks": 758160,
            "time": 452.08152400000006,
            "velocity": 0.8267716535433071
          },
          {
            "duration": 0.09999990000000025,
            "durationTicks": 168,
            "midi": 81,
            "name": "A5",
            "ticks": 758160,
            "time": 452.08152400000006,
            "velocity": 0.8267716535433071
          },
          {
            "duration": 0.1999998000000005,
            "durationTicks": 336,
            "midi": 79,
            "name": "G5",
            "ticks": 758400,
            "time": 452.22438100000005,
            "velocity": 0.8267716535433071
          },
          {
            "duration": 0.1999998000000005,
            "durationTicks": 336,
            "midi": 82,
            "name": "A#5",
            "ticks": 758400,
            "time": 452.22438100000005,
            "velocity": 0.8267716535433071
          },
          {
            "duration": 0.09999990000000025,
            "durationTicks": 168,
            "midi": 79,
            "name": "G5",
            "ticks": 758880,
            "time": 452.51009500000004,
            "velocity": 0.8267716535433071
          },
          {
            "duration": 0.09999990000000025,
            "durationTicks": 168,
            "midi": 82,
            "name": "A#5",
            "ticks": 758880,
            "time": 452.51009500000004,
            "velocity": 0.8267716535433071
          },
          {
            "duration": 0.09999990000000025,
            "durationTicks": 168,
            "midi": 79,
            "name": "G5",
            "ticks": 759120,
            "time": 452.6529520000001,
            "velocity": 0.8267716535433071
          },
          {
            "duration": 0.09999990000000025,
            "durationTicks": 168,
            "midi": 82,
            "name": "A#5",
            "ticks": 759120,
            "time": 452.6529520000001,
            "velocity": 0.8267716535433071
          },
          {
            "duration": 0.1999998000000005,
            "durationTicks": 336,
            "midi": 78,
            "name": "F#5",
            "ticks": 759360,
            "time": 452.7958090000001,
            "velocity": 0.8267716535433071
          },
          {
            "duration": 0.1999998000000005,
            "durationTicks": 336,
            "midi": 81,
            "name": "A5",
            "ticks": 759360,
            "time": 452.7958090000001,
            "velocity": 0.8267716535433071
          },
          {
            "duration": 0.09999990000000025,
            "durationTicks": 168,
            "midi": 78,
            "name": "F#5",
            "ticks": 759840,
            "time": 453.08152300000006,
            "velocity": 0.8267716535433071
          },
          {
            "duration": 0.09999990000000025,
            "durationTicks": 168,
            "midi": 81,
            "name": "A5",
            "ticks": 759840,
            "time": 453.08152300000006,
            "velocity": 0.8267716535433071
          },
          {
            "duration": 0.09999990000000025,
            "durationTicks": 168,
            "midi": 78,
            "name": "F#5",
            "ticks": 760080,
            "time": 453.22438000000005,
            "velocity": 0.8267716535433071
          },
          {
            "duration": 0.09999990000000025,
            "durationTicks": 168,
            "midi": 81,
            "name": "A5",
            "ticks": 760080,
            "time": 453.22438000000005,
            "velocity": 0.8267716535433071
          },
          {
            "duration": 0.1999998000000005,
            "durationTicks": 336,
            "midi": 79,
            "name": "G5",
            "ticks": 760320,
            "time": 453.36723700000005,
            "velocity": 0.8267716535433071
          },
          {
            "duration": 0.1999998000000005,
            "durationTicks": 336,
            "midi": 82,
            "name": "A#5",
            "ticks": 760320,
            "time": 453.36723700000005,
            "velocity": 0.8267716535433071
          },
          {
            "duration": 0.1999998000000005,
            "durationTicks": 336,
            "midi": 81,
            "name": "A5",
            "ticks": 760800,
            "time": 453.6529510000001,
            "velocity": 0.8267716535433071
          },
          {
            "duration": 0.1999998000000005,
            "durationTicks": 336,
            "midi": 84,
            "name": "C6",
            "ticks": 760800,
            "time": 453.6529510000001,
            "velocity": 0.8267716535433071
          },
          {
            "duration": 0.1999998000000005,
            "durationTicks": 336,
            "midi": 79,
            "name": "G5",
            "ticks": 761280,
            "time": 453.93866500000007,
            "velocity": 0.8267716535433071
          },
          {
            "duration": 0.1999998000000005,
            "durationTicks": 336,
            "midi": 82,
            "name": "A#5",
            "ticks": 761280,
            "time": 453.93866500000007,
            "velocity": 0.8267716535433071
          },
          {
            "duration": 0.1999998000000005,
            "durationTicks": 336,
            "midi": 81,
            "name": "A5",
            "ticks": 761760,
            "time": 454.22437900000006,
            "velocity": 0.8267716535433071
          },
          {
            "duration": 0.1999998000000005,
            "durationTicks": 336,
            "midi": 84,
            "name": "C6",
            "ticks": 761760,
            "time": 454.22437900000006,
            "velocity": 0.8267716535433071
          },
          {
            "duration": 0.25263119999999617,
            "durationTicks": 384,
            "midi": 79,
            "name": "G5",
            "ticks": 762240,
            "time": 454.51009300000004,
            "velocity": 0.8267716535433071
          },
          {
            "duration": 0.25263119999999617,
            "durationTicks": 384,
            "midi": 82,
            "name": "A#5",
            "ticks": 762240,
            "time": 454.51009300000004,
            "velocity": 0.8267716535433071
          },
          {
            "duration": 0.2666664000000196,
            "durationTicks": 384,
            "midi": 79,
            "name": "G5",
            "ticks": 764160,
            "time": 455.773249,
            "velocity": 0.8267716535433071
          },
          {
            "duration": 0.2666664000000196,
            "durationTicks": 384,
            "midi": 82,
            "name": "A#5",
            "ticks": 764160,
            "time": 455.773249,
            "velocity": 0.8267716535433071
          },
          {
            "duration": 0.29090880000001107,
            "durationTicks": 384,
            "midi": 79,
            "name": "G5",
            "ticks": 765120,
            "time": 456.455419,
            "velocity": 0.8267716535433071
          },
          {
            "duration": 0.29090880000001107,
            "durationTicks": 384,
            "midi": 82,
            "name": "A#5",
            "ticks": 765120,
            "time": 456.455419,
            "velocity": 0.8267716535433071
          },
          {
            "duration": 0.75,
            "durationTicks": 960,
            "midi": 79,
            "name": "G5",
            "ticks": 766080,
            "time": 457.201221,
            "velocity": 0.8267716535433071
          },
          {
            "duration": 0.75,
            "durationTicks": 960,
            "midi": 82,
            "name": "A#5",
            "ticks": 766080,
            "time": 457.201221,
            "velocity": 0.8267716535433071
          }
        ]
      },
      {
        "channel": 0,
        "controlChanges": {},
        "pitchBends": [],
        "instrument": {
          "family": "piano",
          "number": 0,
          "name": "acoustic grand piano"
        },
        "name": "k550_1",
        "notes": [],
        "endOfTrackTicks": 768000
      },
      {
        "channel": 2,
        "controlChanges": {
          "7": [
            {
              "number": 7,
              "ticks": 0,
              "time": 0,
              "value": 0.7401574803149606
            }
          ],
          "10": [
            {
              "number": 10,
              "ticks": 0,
              "time": 0,
              "value": 0.5669291338582677
            }
          ],
          "91": [
            {
              "number": 91,
              "ticks": 0,
              "time": 0,
              "value": 0.5511811023622047
            }
          ]
        },
        "pitchBends": [],
        "instrument": {
          "family": "reed",
          "number": 70,
          "name": "bassoon"
        },
        "name": "",
        "notes": [
          {
            "duration": 0.28571400000000224,
            "durationTicks": 480,
            "midi": 54,
            "name": "F#3",
            "ticks": 27360,
            "time": 16.285698,
            "velocity": 0.5511811023622047
          },
          {
            "duration": 0.2857139999999987,
            "durationTicks": 480,
            "midi": 55,
            "name": "G3",
            "ticks": 27840,
            "time": 16.571412000000002,
            "velocity": 0.5511811023622047
          },
          {
            "duration": 0.2857139999999987,
            "durationTicks": 480,
            "midi": 57,
            "name": "A3",
            "ticks": 28320,
            "time": 16.857126,
            "velocity": 0.5511811023622047
          },
          {
            "duration": 0.28571400000000224,
            "durationTicks": 480,
            "midi": 58,
            "name": "A#3",
            "ticks": 28800,
            "time": 17.14284,
            "velocity": 0.5511811023622047
          },
          {
            "duration": 0.14285699999999935,
            "durationTicks": 240,
            "midi": 60,
            "name": "C4",
            "ticks": 29280,
            "time": 17.428554000000002,
            "velocity": 0.5511811023622047
          },
          {
            "duration": 0.14285699999999935,
            "durationTicks": 240,
            "midi": 58,
            "name": "A#3",
            "ticks": 29520,
            "time": 17.571411,
            "velocity": 0.5511811023622047
          },
          {
            "duration": 0.28571400000000224,
            "durationTicks": 480,
            "midi": 57,
            "name": "A3",
            "ticks": 29760,
            "time": 17.714268,
            "velocity": 0.5511811023622047
          },
          {
            "duration": 0.2714283000000002,
            "durationTicks": 456,
            "midi": 55,
            "name": "G3",
            "ticks": 30240,
            "time": 17.999982000000003,
            "velocity": 0.5511811023622047
          },
          {
            "duration": 0.22857119999999753,
            "durationTicks": 384,
            "midi": 54,
            "name": "F#3",
            "ticks": 30720,
            "time": 18.285696,
            "velocity": 0.5511811023622047
          },
          {
            "duration": 0.5714280000000009,
            "durationTicks": 960,
            "midi": 58,
            "name": "A#3",
            "ticks": 31680,
            "time": 18.857124000000002,
            "velocity": 0.8267716535433071
          },
          {
            "duration": 0.5714280000000009,
            "durationTicks": 960,
            "midi": 64,
            "name": "E4",
            "ticks": 31680,
            "time": 18.857124000000002,
            "velocity": 0.8267716535433071
          },
          {
            "duration": 0.22857119999999753,
            "durationTicks": 384,
            "midi": 57,
            "name": "A3",
            "ticks": 32640,
            "time": 19.428552000000003,
            "velocity": 0.8267716535433071
          },
          {
            "duration": 0.22857119999999753,
            "durationTicks": 384,
            "midi": 66,
            "name": "F#4",
            "ticks": 32640,
            "time": 19.428552000000003,
            "velocity": 0.8267716535433071
          },
          {
            "duration": 0.5714280000000009,
            "durationTicks": 960,
            "midi": 58,
            "name": "A#3",
            "ticks": 33600,
            "time": 19.99998,
            "velocity": 0.8267716535433071
          },
          {
            "duration": 0.5714280000000009,
            "durationTicks": 960,
            "midi": 64,
            "name": "E4",
            "ticks": 33600,
            "time": 19.99998,
            "velocity": 0.8267716535433071
          },
          {
            "duration": 0.22857119999999753,
            "durationTicks": 384,
            "midi": 57,
            "name": "A3",
            "ticks": 34560,
            "time": 20.571408,
            "velocity": 0.8267716535433071
          },
          {
            "duration": 0.22857119999999753,
            "durationTicks": 384,
            "midi": 66,
            "name": "F#4",
            "ticks": 34560,
            "time": 20.571408,
            "velocity": 0.8267716535433071
          },
          {
            "duration": 0.5714279999999974,
            "durationTicks": 960,
            "midi": 58,
            "name": "A#3",
            "ticks": 35520,
            "time": 21.142836000000003,
            "velocity": 0.8267716535433071
          },
          {
            "duration": 0.5714279999999974,
            "durationTicks": 960,
            "midi": 64,
            "name": "E4",
            "ticks": 35520,
            "time": 21.142836000000003,
            "velocity": 0.8267716535433071
          },
          {
            "duration": 0.17142839999999993,
            "durationTicks": 288,
            "midi": 57,
            "name": "A3",
            "ticks": 36480,
            "time": 21.714264,
            "velocity": 0.8267716535433071
          },
          {
            "duration": 0.17142839999999993,
            "durationTicks": 288,
            "midi": 66,
            "name": "F#4",
            "ticks": 36480,
            "time": 21.714264,
            "velocity": 0.8267716535433071
          },
          {
            "duration": 0.17142839999999637,
            "durationTicks": 288,
            "midi": 58,
            "name": "A#3",
            "ticks": 36960,
            "time": 21.999978000000002,
            "velocity": 0.8267716535433071
          },
          {
            "duration": 0.17142839999999637,
            "durationTicks": 288,
            "midi": 64,
            "name": "E4",
            "ticks": 36960,
            "time": 21.999978000000002,
            "velocity": 0.8267716535433071
          },
          {
            "duration": 0.17142839999999993,
            "durationTicks": 288,
            "midi": 57,
            "name": "A3",
            "ticks": 37440,
            "time": 22.285692,
            "velocity": 0.8267716535433071
          },
          {
            "duration": 0.17142839999999993,
            "durationTicks": 288,
            "midi": 66,
            "name": "F#4",
            "ticks": 37440,
            "time": 22.285692,
            "velocity": 0.8267716535433071
          },
          {
            "duration": 0.17142839999999637,
            "durationTicks": 288,
            "midi": 58,
            "name": "A#3",
            "ticks": 37920,
            "time": 22.571406000000003,
            "velocity": 0.8267716535433071
          },
          {
            "duration": 0.17142839999999637,
            "durationTicks": 288,
            "midi": 64,
            "name": "E4",
            "ticks": 37920,
            "time": 22.571406000000003,
            "velocity": 0.8267716535433071
          },
          {
            "duration": 0.5714280000000009,
            "durationTicks": 960,
            "midi": 57,
            "name": "A3",
            "ticks": 38400,
            "time": 22.857120000000002,
            "velocity": 0.8267716535433071
          },
          {
            "duration": 0.5714280000000009,
            "durationTicks": 960,
            "midi": 66,
            "name": "F#4",
            "ticks": 38400,
            "time": 22.857120000000002,
            "velocity": 0.8267716535433071
          },
          {
            "duration": 0.5714280000000009,
            "durationTicks": 960,
            "midi": 57,
            "name": "A3",
            "ticks": 39360,
            "time": 23.428548000000003,
            "velocity": 0.5511811023622047
          },
          {
            "duration": 0.5714280000000009,
            "durationTicks": 960,
            "midi": 60,
            "name": "C4",
            "ticks": 39360,
            "time": 23.428548000000003,
            "velocity": 0.5511811023622047
          },
          {
            "duration": 0.5714279999999974,
            "durationTicks": 960,
            "midi": 55,
            "name": "G3",
            "ticks": 40320,
            "time": 23.999976000000004,
            "velocity": 0.5511811023622047
          },
          {
            "duration": 0.5714279999999974,
            "durationTicks": 960,
            "midi": 58,
            "name": "A#3",
            "ticks": 40320,
            "time": 23.999976000000004,
            "velocity": 0.5511811023622047
          },
          {
            "duration": 0.5714280000000009,
            "durationTicks": 960,
            "midi": 54,
            "name": "F#3",
            "ticks": 41280,
            "time": 24.571404,
            "velocity": 0.5511811023622047
          },
          {
            "duration": 0.5714280000000009,
            "durationTicks": 960,
            "midi": 57,
            "name": "A3",
            "ticks": 41280,
            "time": 24.571404,
            "velocity": 0.5511811023622047
          },
          {
            "duration": 0.22857119999999753,
            "durationTicks": 384,
            "midi": 55,
            "name": "G3",
            "ticks": 42240,
            "time": 25.142832000000002,
            "velocity": 0.4566929133858268
          },
          {
            "duration": 0.22857119999999753,
            "durationTicks": 384,
            "midi": 58,
            "name": "A#3",
            "ticks": 42240,
            "time": 25.142832000000002,
            "velocity": 0.4566929133858268
          },
          {
            "duration": 4.514281199999999,
            "durationTicks": 7584,
            "midi": 63,
            "name": "D#4",
            "ticks": 46080,
            "time": 27.428544000000002,
            "velocity": 0.5511811023622047
          },
          {
            "duration": 2.228569199999999,
            "durationTicks": 3744,
            "midi": 67,
            "name": "G4",
            "ticks": 46080,
            "time": 27.428544000000002,
            "velocity": 0.5511811023622047
          },
          {
            "duration": 2.228569199999999,
            "durationTicks": 3744,
            "midi": 65,
            "name": "F4",
            "ticks": 49920,
            "time": 29.714256000000002,
            "velocity": 0.5511811023622047
          },
          {
            "duration": 0.22857119999999753,
            "durationTicks": 384,
            "midi": 62,
            "name": "D4",
            "ticks": 53760,
            "time": 31.999968000000003,
            "velocity": 0.8267716535433071
          },
          {
            "duration": 0.22857119999999753,
            "durationTicks": 384,
            "midi": 65,
            "name": "F4",
            "ticks": 53760,
            "time": 31.999968000000003,
            "velocity": 0.8267716535433071
          },
          {
            "duration": 0.11428560000000232,
            "durationTicks": 192,
            "midi": 58,
            "name": "A#3",
            "ticks": 54240,
            "time": 32.285682,
            "velocity": 0.8267716535433071
          },
          {
            "duration": 0.11428560000000232,
            "durationTicks": 192,
            "midi": 62,
            "name": "D4",
            "ticks": 54480,
            "time": 32.428539,
            "velocity": 0.8267716535433071
          },
          {
            "duration": 0.11428560000000232,
            "durationTicks": 192,
            "midi": 58,
            "name": "A#3",
            "ticks": 54720,
            "time": 32.571396,
            "velocity": 0.8267716535433071
          },
          {
            "duration": 0.11428560000000232,
            "durationTicks": 192,
            "midi": 62,
            "name": "D4",
            "ticks": 54960,
            "time": 32.714253,
            "velocity": 0.8267716535433071
          },
          {
            "duration": 0.11428559999999521,
            "durationTicks": 192,
            "midi": 58,
            "name": "A#3",
            "ticks": 55200,
            "time": 32.857110000000006,
            "velocity": 0.8267716535433071
          },
          {
            "duration": 0.11428560000000232,
            "durationTicks": 192,
            "midi": 62,
            "name": "D4",
            "ticks": 55440,
            "time": 32.999967000000005,
            "velocity": 0.8267716535433071
          },
          {
            "duration": 0.11428560000000232,
            "durationTicks": 192,
            "midi": 57,
            "name": "A3",
            "ticks": 55680,
            "time": 33.142824000000005,
            "velocity": 0.8267716535433071
          },
          {
            "duration": 0.11428560000000232,
            "durationTicks": 192,
            "midi": 60,
            "name": "C4",
            "ticks": 55920,
            "time": 33.285681000000004,
            "velocity": 0.8267716535433071
          },
          {
            "duration": 0.11428560000000232,
            "durationTicks": 192,
            "midi": 57,
            "name": "A3",
            "ticks": 56160,
            "time": 33.428538,
            "velocity": 0.8267716535433071
          },
          {
            "duration": 0.11428560000000232,
            "durationTicks": 192,
            "midi": 60,
            "name": "C4",
            "ticks": 56400,
            "time": 33.571395,
            "velocity": 0.8267716535433071
          },
          {
            "duration": 0.11428560000000232,
            "durationTicks": 192,
            "midi": 57,
            "name": "A3",
            "ticks": 56640,
            "time": 33.714252,
            "velocity": 0.8267716535433071
          },
          {
            "duration": 0.11428560000000232,
            "durationTicks": 192,
            "midi": 60,
            "name": "C4",
            "ticks": 56880,
            "time": 33.857109,
            "velocity": 0.8267716535433071
          },
          {
            "duration": 0.11428560000000232,
            "durationTicks": 192,
            "midi": 57,
            "name": "A3",
            "ticks": 57120,
            "time": 33.999966,
            "velocity": 0.8267716535433071
          },
          {
            "duration": 0.11428560000000232,
            "durationTicks": 192,
            "midi": 60,
            "name": "C4",
            "ticks": 57360,
            "time": 34.142823,
            "velocity": 0.8267716535433071
          },
          {
            "duration": 0.11428560000000232,
            "durationTicks": 192,
            "midi": 55,
            "name": "G3",
            "ticks": 57600,
            "time": 34.28568,
            "velocity": 0.8267716535433071
          },
          {
            "duration": 0.11428559999999521,
            "durationTicks": 192,
            "midi": 58,
            "name": "A#3",
            "ticks": 57840,
            "time": 34.428537000000006,
            "velocity": 0.8267716535433071
          },
          {
            "duration": 0.11428560000000232,
            "durationTicks": 192,
            "midi": 55,
            "name": "G3",
            "ticks": 58080,
            "time": 34.571394000000005,
            "velocity": 0.8267716535433071
          },
          {
            "duration": 0.11428560000000232,
            "durationTicks": 192,
            "midi": 58,
            "name": "A#3",
            "ticks": 58320,
            "time": 34.714251000000004,
            "velocity": 0.8267716535433071
          },
          {
            "duration": 0.11428560000000232,
            "durationTicks": 192,
            "midi": 55,
            "name": "G3",
            "ticks": 58560,
            "time": 34.857108000000004,
            "velocity": 0.8267716535433071
          },
          {
            "duration": 0.11428560000000232,
            "durationTicks": 192,
            "midi": 58,
            "name": "A#3",
            "ticks": 58800,
            "time": 34.999965,
            "velocity": 0.8267716535433071
          },
          {
            "duration": 0.11428560000000232,
            "durationTicks": 192,
            "midi": 55,
            "name": "G3",
            "ticks": 59040,
            "time": 35.142822,
            "velocity": 0.8267716535433071
          },
          {
            "duration": 0.11428560000000232,
            "durationTicks": 192,
            "midi": 58,
            "name": "A#3",
            "ticks": 59280,
            "time": 35.285679,
            "velocity": 0.8267716535433071
          },
          {
            "duration": 0.11428560000000232,
            "durationTicks": 192,
            "midi": 53,
            "name": "F3",
            "ticks": 59520,
            "time": 35.428536,
            "velocity": 0.8267716535433071
          },
          {
            "duration": 0.11428560000000232,
            "durationTicks": 192,
            "midi": 58,
            "name": "A#3",
            "ticks": 59760,
            "time": 35.571393,
            "velocity": 0.8267716535433071
          },
          {
            "duration": 0.11428560000000232,
            "durationTicks": 192,
            "midi": 53,
            "name": "F3",
            "ticks": 60000,
            "time": 35.71425,
            "velocity": 0.8267716535433071
          },
          {
            "duration": 0.11428559999999521,
            "durationTicks": 192,
            "midi": 58,
            "name": "A#3",
            "ticks": 60240,
            "time": 35.857107000000006,
            "velocity": 0.8267716535433071
          },
          {
            "duration": 0.11428560000000232,
            "durationTicks": 192,
            "midi": 53,
            "name": "F3",
            "ticks": 60480,
            "time": 35.999964000000006,
            "velocity": 0.8267716535433071
          },
          {
            "duration": 0.11428560000000232,
            "durationTicks": 192,
            "midi": 58,
            "name": "A#3",
            "ticks": 60720,
            "time": 36.142821000000005,
            "velocity": 0.8267716535433071
          },
          {
            "duration": 0.11428560000000232,
            "durationTicks": 192,
            "midi": 53,
            "name": "F3",
            "ticks": 60960,
            "time": 36.285678000000004,
            "velocity": 0.8267716535433071
          },
          {
            "duration": 0.11428560000000232,
            "durationTicks": 192,
            "midi": 58,
            "name": "A#3",
            "ticks": 61200,
            "time": 36.428535000000004,
            "velocity": 0.8267716535433071
          },
          {
            "duration": 0.11428560000000232,
            "durationTicks": 192,
            "midi": 51,
            "name": "D#3",
            "ticks": 61440,
            "time": 36.571392,
            "velocity": 0.8267716535433071
          },
          {
            "duration": 0.11428560000000232,
            "durationTicks": 192,
            "midi": 55,
            "name": "G3",
            "ticks": 61680,
            "time": 36.714249,
            "velocity": 0.8267716535433071
          },
          {
            "duration": 0.11428560000000232,
            "durationTicks": 192,
            "midi": 51,
            "name": "D#3",
            "ticks": 61920,
            "time": 36.857106,
            "velocity": 0.8267716535433071
          },
          {
            "duration": 0.11428560000000232,
            "durationTicks": 192,
            "midi": 55,
            "name": "G3",
            "ticks": 62160,
            "time": 36.999963,
            "velocity": 0.8267716535433071
          },
          {
            "duration": 0.11428560000000232,
            "durationTicks": 192,
            "midi": 51,
            "name": "D#3",
            "ticks": 62400,
            "time": 37.14282,
            "velocity": 0.8267716535433071
          },
          {
            "duration": 0.11428560000000232,
            "durationTicks": 192,
            "midi": 55,
            "name": "G3",
            "ticks": 62640,
            "time": 37.285677,
            "velocity": 0.8267716535433071
          },
          {
            "duration": 0.11428559999999521,
            "durationTicks": 192,
            "midi": 51,
            "name": "D#3",
            "ticks": 62880,
            "time": 37.428534000000006,
            "velocity": 0.8267716535433071
          },
          {
            "duration": 0.11428560000000232,
            "durationTicks": 192,
            "midi": 55,
            "name": "G3",
            "ticks": 63120,
            "time": 37.571391000000006,
            "velocity": 0.8267716535433071
          },
          {
            "duration": 0.11428560000000232,
            "durationTicks": 192,
            "midi": 50,
            "name": "D3",
            "ticks": 63360,
            "time": 37.714248000000005,
            "velocity": 0.8267716535433071
          },
          {
            "duration": 0.11428560000000232,
            "durationTicks": 192,
            "midi": 53,
            "name": "F3",
            "ticks": 63600,
            "time": 37.857105000000004,
            "velocity": 0.8267716535433071
          },
          {
            "duration": 0.11428560000000232,
            "durationTicks": 192,
            "midi": 50,
            "name": "D3",
            "ticks": 63840,
            "time": 37.999962000000004,
            "velocity": 0.8267716535433071
          },
          {
            "duration": 0.11428560000000232,
            "durationTicks": 192,
            "midi": 53,
            "name": "F3",
            "ticks": 64080,
            "time": 38.142819,
            "velocity": 0.8267716535433071
          },
          {
            "duration": 0.11428560000000232,
            "durationTicks": 192,
            "midi": 50,
            "name": "D3",
            "ticks": 64320,
            "time": 38.285676,
            "velocity": 0.8267716535433071
          },
          {
            "duration": 0.11428560000000232,
            "durationTicks": 192,
            "midi": 53,
            "name": "F3",
            "ticks": 64560,
            "time": 38.428533,
            "velocity": 0.8267716535433071
          },
          {
            "duration": 0.11428560000000232,
            "durationTicks": 192,
            "midi": 50,
            "name": "D3",
            "ticks": 64800,
            "time": 38.57139,
            "velocity": 0.8267716535433071
          },
          {
            "duration": 0.11428560000000232,
            "durationTicks": 192,
            "midi": 53,
            "name": "F3",
            "ticks": 65040,
            "time": 38.714247,
            "velocity": 0.8267716535433071
          },
          {
            "duration": 1.1142845999999977,
            "durationTicks": 1872,
            "midi": 55,
            "name": "G3",
            "ticks": 65280,
            "time": 38.85710400000001,
            "velocity": 0.7244094488188977
          },
          {
            "duration": 0.9142847999999901,
            "durationTicks": 1536,
            "midi": 64,
            "name": "E4",
            "ticks": 65280,
            "time": 38.85710400000001,
            "velocity": 0.8818897637795275
          },
          {
            "duration": 0.11428560000000232,
            "durationTicks": 192,
            "midi": 65,
            "name": "F4",
            "ticks": 66960,
            "time": 39.857103,
            "velocity": 0.7244094488188977
          },
          {
            "duration": 1.1142846000000048,
            "durationTicks": 1872,
            "midi": 55,
            "name": "G3",
            "ticks": 67200,
            "time": 39.99996,
            "velocity": 0.7244094488188977
          },
          {
            "duration": 0.9142847999999972,
            "durationTicks": 1536,
            "midi": 64,
            "name": "E4",
            "ticks": 67200,
            "time": 39.99996,
            "velocity": 0.8818897637795275
          },
          {
            "duration": 0.11428560000000232,
            "durationTicks": 192,
            "midi": 65,
            "name": "F4",
            "ticks": 68880,
            "time": 40.999959000000004,
            "velocity": 0.7244094488188977
          },
          {
            "duration": 1.1142846000000048,
            "durationTicks": 1872,
            "midi": 55,
            "name": "G3",
            "ticks": 69120,
            "time": 41.142816,
            "velocity": 0.7244094488188977
          },
          {
            "duration": 0.9142847999999972,
            "durationTicks": 1536,
            "midi": 64,
            "name": "E4",
            "ticks": 69120,
            "time": 41.142816,
            "velocity": 0.8818897637795275
          },
          {
            "duration": 0.11428560000000232,
            "durationTicks": 192,
            "midi": 65,
            "name": "F4",
            "ticks": 70800,
            "time": 42.142815000000006,
            "velocity": 0.7244094488188977
          },
          {
            "duration": 0.9142847999999972,
            "durationTicks": 1536,
            "midi": 55,
            "name": "G3",
            "ticks": 71040,
            "time": 42.285672000000005,
            "velocity": 0.7244094488188977
          },
          {
            "duration": 0.9142847999999972,
            "durationTicks": 1536,
            "midi": 64,
            "name": "E4",
            "ticks": 71040,
            "time": 42.285672000000005,
            "velocity": 0.8818897637795275
          },
          {
            "duration": 0.10714275000000129,
            "durationTicks": 180,
            "midi": 53,
            "name": "F3",
            "ticks": 72960,
            "time": 43.428528,
            "velocity": 0.8267716535433071
          },
          {
            "duration": 0.10714275000000129,
            "durationTicks": 180,
            "midi": 65,
            "name": "F4",
            "ticks": 72960,
            "time": 43.428528,
            "velocity": 0.8267716535433071
          },
          {
            "duration": 0.10714274999999418,
            "durationTicks": 180,
            "midi": 53,
            "name": "F3",
            "ticks": 73200,
            "time": 43.57138500000001,
            "velocity": 0.8267716535433071
          },
          {
            "duration": 0.10714275000000129,
            "durationTicks": 180,
            "midi": 53,
            "name": "F3",
            "ticks": 73440,
            "time": 43.714242000000006,
            "velocity": 0.8267716535433071
          },
          {
            "duration": 0.10714275000000129,
            "durationTicks": 180,
            "midi": 53,
            "name": "F3",
            "ticks": 73680,
            "time": 43.857099000000005,
            "velocity": 0.8267716535433071
          },
          {
            "duration": 0.10714275000000129,
            "durationTicks": 180,
            "midi": 53,
            "name": "F3",
            "ticks": 73920,
            "time": 43.999956000000005,
            "velocity": 0.8267716535433071
          },
          {
            "duration": 0.10714275000000129,
            "durationTicks": 180,
            "midi": 53,
            "name": "F3",
            "ticks": 74160,
            "time": 44.142813000000004,
            "velocity": 0.8267716535433071
          },
          {
            "duration": 0.10714275000000129,
            "durationTicks": 180,
            "midi": 53,
            "name": "F3",
            "ticks": 74400,
            "time": 44.28567,
            "velocity": 0.8267716535433071
          },
          {
            "duration": 0.10714275000000129,
            "durationTicks": 180,
            "midi": 53,
            "name": "F3",
            "ticks": 74640,
            "time": 44.428527,
            "velocity": 0.8267716535433071
          },
          {
            "duration": 0.10714275000000129,
            "durationTicks": 180,
            "midi": 53,
            "name": "F3",
            "ticks": 74880,
            "time": 44.571384,
            "velocity": 0.8267716535433071
          },
          {
            "duration": 0.10714275000000129,
            "durationTicks": 180,
            "midi": 53,
            "name": "F3",
            "ticks": 75120,
            "time": 44.714241,
            "velocity": 0.8267716535433071
          },
          {
            "duration": 0.10714275000000129,
            "durationTicks": 180,
            "midi": 53,
            "name": "F3",
            "ticks": 75360,
            "time": 44.857098,
            "velocity": 0.8267716535433071
          },
          {
            "duration": 0.10714274999999418,
            "durationTicks": 180,
            "midi": 53,
            "name": "F3",
            "ticks": 75600,
            "time": 44.99995500000001,
            "velocity": 0.8267716535433071
          },
          {
            "duration": 0.10714274999999418,
            "durationTicks": 180,
            "midi": 53,
            "name": "F3",
            "ticks": 75840,
            "time": 45.142812000000006,
            "velocity": 0.8267716535433071
          },
          {
            "duration": 0.10714275000000129,
            "durationTicks": 180,
            "midi": 53,
            "name": "F3",
            "ticks": 76080,
            "time": 45.285669000000006,
            "velocity": 0.8267716535433071
          },
          {
            "duration": 0.10714275000000129,
            "durationTicks": 180,
            "midi": 53,
            "name": "F3",
            "ticks": 76320,
            "time": 45.428526000000005,
            "velocity": 0.8267716535433071
          },
          {
            "duration": 0.10714275000000129,
            "durationTicks": 180,
            "midi": 53,
            "name": "F3",
            "ticks": 76560,
            "time": 45.571383000000004,
            "velocity": 0.8267716535433071
          },
          {
            "duration": 0.10714275000000129,
            "durationTicks": 180,
            "midi": 53,
            "name": "F3",
            "ticks": 76800,
            "time": 45.714240000000004,
            "velocity": 0.8267716535433071
          },
          {
            "duration": 0.10714275000000129,
            "durationTicks": 180,
            "midi": 53,
            "name": "F3",
            "ticks": 77040,
            "time": 45.857097,
            "velocity": 0.8267716535433071
          },
          {
            "duration": 0.10714275000000129,
            "durationTicks": 180,
            "midi": 53,
            "name": "F3",
            "ticks": 77280,
            "time": 45.999954,
            "velocity": 0.8267716535433071
          },
          {
            "duration": 0.10714275000000129,
            "durationTicks": 180,
            "midi": 53,
            "name": "F3",
            "ticks": 77520,
            "time": 46.142811,
            "velocity": 0.8267716535433071
          },
          {
            "duration": 0.10714275000000129,
            "durationTicks": 180,
            "midi": 53,
            "name": "F3",
            "ticks": 77760,
            "time": 46.285668,
            "velocity": 0.8267716535433071
          },
          {
            "duration": 0.10714275000000129,
            "durationTicks": 180,
            "midi": 53,
            "name": "F3",
            "ticks": 78000,
            "time": 46.428525,
            "velocity": 0.8267716535433071
          },
          {
            "duration": 0.10714274999999418,
            "durationTicks": 180,
            "midi": 53,
            "name": "F3",
            "ticks": 78240,
            "time": 46.57138200000001,
            "velocity": 0.8267716535433071
          },
          {
            "duration": 0.10714274999999418,
            "durationTicks": 180,
            "midi": 53,
            "name": "F3",
            "ticks": 78480,
            "time": 46.714239000000006,
            "velocity": 0.8267716535433071
          },
          {
            "duration": 0.10714275000000129,
            "durationTicks": 180,
            "midi": 53,
            "name": "F3",
            "ticks": 78720,
            "time": 46.857096000000006,
            "velocity": 0.8267716535433071
          },
          {
            "duration": 0.10714275000000129,
            "durationTicks": 180,
            "midi": 53,
            "name": "F3",
            "ticks": 78960,
            "time": 46.999953000000005,
            "velocity": 0.8267716535433071
          },
          {
            "duration": 0.10714275000000129,
            "durationTicks": 180,
            "midi": 53,
            "name": "F3",
            "ticks": 79200,
            "time": 47.142810000000004,
            "velocity": 0.8267716535433071
          },
          {
            "duration": 0.10714275000000129,
            "durationTicks": 180,
            "midi": 53,
            "name": "F3",
            "ticks": 79440,
            "time": 47.285667000000004,
            "velocity": 0.8267716535433071
          },
          {
            "duration": 0.10714275000000129,
            "durationTicks": 180,
            "midi": 53,
            "name": "F3",
            "ticks": 79680,
            "time": 47.428524,
            "velocity": 0.8267716535433071
          },
          {
            "duration": 0.10714275000000129,
            "durationTicks": 180,
            "midi": 53,
            "name": "F3",
            "ticks": 79920,
            "time": 47.571381,
            "velocity": 0.8267716535433071
          },
          {
            "duration": 0.10714275000000129,
            "durationTicks": 180,
            "midi": 53,
            "name": "F3",
            "ticks": 80160,
            "time": 47.714238,
            "velocity": 0.8267716535433071
          },
          {
            "duration": 0.10714275000000129,
            "durationTicks": 180,
            "midi": 53,
            "name": "F3",
            "ticks": 80400,
            "time": 47.857095,
            "velocity": 0.8267716535433071
          },
          {
            "duration": 0.22857119999999753,
            "durationTicks": 384,
            "midi": 53,
            "name": "F3",
            "ticks": 80640,
            "time": 47.99995200000001,
            "velocity": 0.8267716535433071
          },
          {
            "duration": 0.22857120000000464,
            "durationTicks": 384,
            "midi": 41,
            "name": "F2",
            "ticks": 81600,
            "time": 48.571380000000005,
            "velocity": 0.7244094488188977
          },
          {
            "duration": 0.8571419999999961,
            "durationTicks": 1440,
            "midi": 63,
            "name": "D#4",
            "ticks": 86400,
            "time": 51.428520000000006,
            "velocity": 0.5511811023622047
          },
          {
            "duration": 0.07142850000000323,
            "durationTicks": 120,
            "midi": 65,
            "name": "F4",
            "ticks": 87840,
            "time": 52.285662,
            "velocity": 0.5511811023622047
          },
          {
            "duration": 0.07142849999999612,
            "durationTicks": 120,
            "midi": 63,
            "name": "D#4",
            "ticks": 87960,
            "time": 52.357090500000005,
            "velocity": 0.5511811023622047
          },
          {
            "duration": 0.07142850000000323,
            "durationTicks": 120,
            "midi": 62,
            "name": "D4",
            "ticks": 88080,
            "time": 52.428519,
            "velocity": 0.5511811023622047
          },
          {
            "duration": 0.07142849999999612,
            "durationTicks": 120,
            "midi": 60,
            "name": "C4",
            "ticks": 88200,
            "time": 52.499947500000005,
            "velocity": 0.5511811023622047
          },
          {
            "duration": 0.22857120000000464,
            "durationTicks": 384,
            "midi": 58,
            "name": "A#3",
            "ticks": 88320,
            "time": 52.571376,
            "velocity": 0.5511811023622047
          },
          {
            "duration": 0.14285699999999935,
            "durationTicks": 240,
            "midi": 58,
            "name": "A#3",
            "ticks": 97920,
            "time": 58.285656,
            "velocity": 0.5511811023622047
          },
          {
            "duration": 0.14285699999999935,
            "durationTicks": 240,
            "midi": 57,
            "name": "A3",
            "ticks": 98160,
            "time": 58.428513,
            "velocity": 0.5511811023622047
          },
          {
            "duration": 0.14285700000000645,
            "durationTicks": 240,
            "midi": 60,
            "name": "C4",
            "ticks": 98400,
            "time": 58.57137,
            "velocity": 0.5511811023622047
          },
          {
            "duration": 0.14285699999999935,
            "durationTicks": 240,
            "midi": 58,
            "name": "A#3",
            "ticks": 98640,
            "time": 58.71422700000001,
            "velocity": 0.5511811023622047
          },
          {
            "duration": 0.14285699999999935,
            "durationTicks": 240,
            "midi": 62,
            "name": "D4",
            "ticks": 98880,
            "time": 58.85708400000001,
            "velocity": 0.5511811023622047
          },
          {
            "duration": 0.14285699999999935,
            "durationTicks": 240,
            "midi": 60,
            "name": "C4",
            "ticks": 99120,
            "time": 58.99994100000001,
            "velocity": 0.5511811023622047
          },
          {
            "duration": 0.14285699999999935,
            "durationTicks": 240,
            "midi": 63,
            "name": "D#4",
            "ticks": 99360,
            "time": 59.142798000000006,
            "velocity": 0.5511811023622047
          },
          {
            "duration": 0.11428560000000232,
            "durationTicks": 192,
            "midi": 62,
            "name": "D4",
            "ticks": 99600,
            "time": 59.285655000000006,
            "velocity": 0.5511811023622047
          },
          {
            "duration": 0.8571420000000032,
            "durationTicks": 1440,
            "midi": 62,
            "name": "D4",
            "ticks": 99840,
            "time": 59.428512000000005,
            "velocity": 0.5511811023622047
          },
          {
            "duration": 0.8571420000000032,
            "durationTicks": 1440,
            "midi": 65,
            "name": "F4",
            "ticks": 99840,
            "time": 59.428512000000005,
            "velocity": 0.5511811023622047
          },
          {
            "duration": 0.2857139999999987,
            "durationTicks": 480,
            "midi": 60,
            "name": "C4",
            "ticks": 101280,
            "time": 60.28565400000001,
            "velocity": 0.5511811023622047
          },
          {
            "duration": 0.2857139999999987,
            "durationTicks": 480,
            "midi": 64,
            "name": "E4",
            "ticks": 101280,
            "time": 60.28565400000001,
            "velocity": 0.5511811023622047
          },
          {
            "duration": 0.22857120000000464,
            "durationTicks": 384,
            "midi": 53,
            "name": "F3",
            "ticks": 101760,
            "time": 60.57136800000001,
            "velocity": 0.5511811023622047
          },
          {
            "duration": 0.22857120000000464,
            "durationTicks": 384,
            "midi": 63,
            "name": "D#4",
            "ticks": 101760,
            "time": 60.57136800000001,
            "velocity": 0.5511811023622047
          },
          {
            "duration": 0.18571409999999844,
            "durationTicks": 312,
            "midi": 55,
            "name": "G3",
            "ticks": 104160,
            "time": 61.99993800000001,
            "velocity": 0.5511811023622047
          },
          {
            "duration": 0.18571409999999844,
            "durationTicks": 312,
            "midi": 62,
            "name": "D4",
            "ticks": 104160,
            "time": 61.99993800000001,
            "velocity": 0.5511811023622047
          },
          {
            "duration": 0.2857139999999987,
            "durationTicks": 480,
            "midi": 55,
            "name": "G3",
            "ticks": 104640,
            "time": 62.285652000000006,
            "velocity": 0.5511811023622047
          },
          {
            "duration": 0.2857139999999987,
            "durationTicks": 480,
            "midi": 62,
            "name": "D4",
            "ticks": 104640,
            "time": 62.285652000000006,
            "velocity": 0.5511811023622047
          },
          {
            "duration": 0.22857120000000464,
            "durationTicks": 384,
            "midi": 52,
            "name": "E3",
            "ticks": 105120,
            "time": 62.571366000000005,
            "velocity": 0.5511811023622047
          },
          {
            "duration": 0.22857120000000464,
            "durationTicks": 384,
            "midi": 67,
            "name": "G4",
            "ticks": 105120,
            "time": 62.571366000000005,
            "velocity": 0.5511811023622047
          },
          {
            "duration": 0.5714280000000045,
            "durationTicks": 960,
            "midi": 53,
            "name": "F3",
            "ticks": 105600,
            "time": 62.85708,
            "velocity": 0.5511811023622047
          },
          {
            "duration": 0.5714280000000045,
            "durationTicks": 960,
            "midi": 65,
            "name": "F4",
            "ticks": 105600,
            "time": 62.85708,
            "velocity": 0.5511811023622047
          },
          {
            "duration": 0.5714279999999974,
            "durationTicks": 960,
            "midi": 58,
            "name": "A#3",
            "ticks": 111840,
            "time": 66.57136200000001,
            "velocity": 0.4566929133858268
          },
          {
            "duration": 0.5714279999999974,
            "durationTicks": 960,
            "midi": 61,
            "name": "C#4",
            "ticks": 111840,
            "time": 66.57136200000001,
            "velocity": 0.4566929133858268
          },
          {
            "duration": 0.22857120000000464,
            "durationTicks": 384,
            "midi": 56,
            "name": "G#3",
            "ticks": 112800,
            "time": 67.14279,
            "velocity": 0.4566929133858268
          },
          {
            "duration": 0.22857120000000464,
            "durationTicks": 384,
            "midi": 60,
            "name": "C4",
            "ticks": 112800,
            "time": 67.14279,
            "velocity": 0.4566929133858268
          },
          {
            "duration": 0.5714279999999974,
            "durationTicks": 960,
            "midi": 58,
            "name": "A#3",
            "ticks": 113760,
            "time": 67.714218,
            "velocity": 0.4566929133858268
          },
          {
            "duration": 0.5714279999999974,
            "durationTicks": 960,
            "midi": 61,
            "name": "C#4",
            "ticks": 113760,
            "time": 67.714218,
            "velocity": 0.4566929133858268
          },
          {
            "duration": 0.22857120000000464,
            "durationTicks": 384,
            "midi": 56,
            "name": "G#3",
            "ticks": 114720,
            "time": 68.285646,
            "velocity": 0.4566929133858268
          },
          {
            "duration": 0.22857120000000464,
            "durationTicks": 384,
            "midi": 60,
            "name": "C4",
            "ticks": 114720,
            "time": 68.285646,
            "velocity": 0.4566929133858268
          },
          {
            "duration": 0.5714279999999974,
            "durationTicks": 960,
            "midi": 58,
            "name": "A#3",
            "ticks": 115680,
            "time": 68.85707400000001,
            "velocity": 0.4566929133858268
          },
          {
            "duration": 0.5714279999999974,
            "durationTicks": 960,
            "midi": 61,
            "name": "C#4",
            "ticks": 115680,
            "time": 68.85707400000001,
            "velocity": 0.4566929133858268
          },
          {
            "duration": 0.22857120000000464,
            "durationTicks": 384,
            "midi": 56,
            "name": "G#3",
            "ticks": 116640,
            "time": 69.42850200000001,
            "velocity": 0.4566929133858268
          },
          {
            "duration": 0.22857120000000464,
            "durationTicks": 384,
            "midi": 60,
            "name": "C4",
            "ticks": 116640,
            "time": 69.42850200000001,
            "velocity": 0.4566929133858268
          },
          {
            "duration": 0.5714279999999974,
            "durationTicks": 960,
            "midi": 58,
            "name": "A#3",
            "ticks": 117600,
            "time": 69.99993,
            "velocity": 0.4566929133858268
          },
          {
            "duration": 0.5714279999999974,
            "durationTicks": 960,
            "midi": 61,
            "name": "C#4",
            "ticks": 117600,
            "time": 69.99993,
            "velocity": 0.4566929133858268
          },
          {
            "duration": 0.22857120000000464,
            "durationTicks": 384,
            "midi": 56,
            "name": "G#3",
            "ticks": 118560,
            "time": 70.571358,
            "velocity": 0.4566929133858268
          },
          {
            "duration": 0.22857120000000464,
            "durationTicks": 384,
            "midi": 60,
            "name": "C4",
            "ticks": 118560,
            "time": 70.571358,
            "velocity": 0.4566929133858268
          },
          {
            "duration": 0.11428560000000232,
            "durationTicks": 192,
            "midi": 51,
            "name": "D#3",
            "ticks": 119040,
            "time": 70.857072,
            "velocity": 0.5511811023622047
          },
          {
            "duration": 0.11428560000000232,
            "durationTicks": 192,
            "midi": 51,
            "name": "D#3",
            "ticks": 119280,
            "time": 70.99992900000001,
            "velocity": 0.5748031496062992
          },
          {
            "duration": 0.11428560000000232,
            "durationTicks": 192,
            "midi": 51,
            "name": "D#3",
            "ticks": 119520,
            "time": 71.142786,
            "velocity": 0.5984251968503937
          },
          {
            "duration": 0.11428560000000232,
            "durationTicks": 192,
            "midi": 51,
            "name": "D#3",
            "ticks": 119760,
            "time": 71.28564300000001,
            "velocity": 0.6220472440944882
          },
          {
            "duration": 0.11428560000000232,
            "durationTicks": 192,
            "midi": 51,
            "name": "D#3",
            "ticks": 120000,
            "time": 71.4285,
            "velocity": 0.6456692913385826
          },
          {
            "duration": 0.11428560000000232,
            "durationTicks": 192,
            "midi": 51,
            "name": "D#3",
            "ticks": 120240,
            "time": 71.571357,
            "velocity": 0.6692913385826772
          },
          {
            "duration": 0.11428559999998811,
            "durationTicks": 192,
            "midi": 51,
            "name": "D#3",
            "ticks": 120480,
            "time": 71.71421400000001,
            "velocity": 0.6929133858267716
          },
          {
            "duration": 0.11428560000000232,
            "durationTicks": 192,
            "midi": 51,
            "name": "D#3",
            "ticks": 120720,
            "time": 71.857071,
            "velocity": 0.7244094488188977
          },
          {
            "duration": 0.11428560000000232,
            "durationTicks": 192,
            "midi": 52,
            "name": "E3",
            "ticks": 120960,
            "time": 71.99992800000001,
            "velocity": 0.7480314960629921
          },
          {
            "duration": 0.11428560000000232,
            "durationTicks": 192,
            "midi": 52,
            "name": "E3",
            "ticks": 121200,
            "time": 72.142785,
            "velocity": 0.7716535433070866
          },
          {
            "duration": 0.11428560000000232,
            "durationTicks": 192,
            "midi": 52,
            "name": "E3",
            "ticks": 121440,
            "time": 72.28564200000001,
            "velocity": 0.7952755905511811
          },
          {
            "duration": 0.11428560000000232,
            "durationTicks": 192,
            "midi": 52,
            "name": "E3",
            "ticks": 121680,
            "time": 72.428499,
            "velocity": 0.8188976377952756
          },
          {
            "duration": 0.11428560000000232,
            "durationTicks": 192,
            "midi": 52,
            "name": "E3",
            "ticks": 121920,
            "time": 72.57135600000001,
            "velocity": 0.84251968503937
          },
          {
            "duration": 0.11428560000000232,
            "durationTicks": 192,
            "midi": 52,
            "name": "E3",
            "ticks": 122160,
            "time": 72.714213,
            "velocity": 0.8582677165354331
          },
          {
            "duration": 0.11428560000000232,
            "durationTicks": 192,
            "midi": 52,
            "name": "E3",
            "ticks": 122400,
            "time": 72.85707000000001,
            "velocity": 0.8582677165354331
          },
          {
            "duration": 0.11428560000000232,
            "durationTicks": 192,
            "midi": 52,
            "name": "E3",
            "ticks": 122640,
            "time": 72.999927,
            "velocity": 0.8582677165354331
          },
          {
            "duration": 0.11428559999998811,
            "durationTicks": 192,
            "midi": 53,
            "name": "F3",
            "ticks": 122880,
            "time": 73.142784,
            "velocity": 0.8267716535433071
          },
          {
            "duration": 0.11428559999998811,
            "durationTicks": 192,
            "midi": 53,
            "name": "F3",
            "ticks": 123120,
            "time": 73.28564100000001,
            "velocity": 0.8267716535433071
          },
          {
            "duration": 0.11428559999998811,
            "durationTicks": 192,
            "midi": 53,
            "name": "F3",
            "ticks": 123360,
            "time": 73.428498,
            "velocity": 0.8267716535433071
          },
          {
            "duration": 0.11428559999998811,
            "durationTicks": 192,
            "midi": 53,
            "name": "F3",
            "ticks": 123600,
            "time": 73.57135500000001,
            "velocity": 0.8267716535433071
          },
          {
            "duration": 0.11428560000000232,
            "durationTicks": 192,
            "midi": 53,
            "name": "F3",
            "ticks": 123840,
            "time": 73.714212,
            "velocity": 0.8267716535433071
          },
          {
            "duration": 0.11428559999998811,
            "durationTicks": 192,
            "midi": 53,
            "name": "F3",
            "ticks": 124080,
            "time": 73.85706900000001,
            "velocity": 0.8267716535433071
          },
          {
            "duration": 0.11428560000000232,
            "durationTicks": 192,
            "midi": 53,
            "name": "F3",
            "ticks": 124320,
            "time": 73.999926,
            "velocity": 0.8267716535433071
          },
          {
            "duration": 0.11428559999998811,
            "durationTicks": 192,
            "midi": 53,
            "name": "F3",
            "ticks": 124560,
            "time": 74.14278300000001,
            "velocity": 0.8267716535433071
          },
          {
            "duration": 0.11428560000000232,
            "durationTicks": 192,
            "midi": 41,
            "name": "F2",
            "ticks": 124800,
            "time": 74.28564,
            "velocity": 0.8267716535433071
          },
          {
            "duration": 0.11428559999998811,
            "durationTicks": 192,
            "midi": 41,
            "name": "F2",
            "ticks": 125040,
            "time": 74.42849700000001,
            "velocity": 0.8267716535433071
          },
          {
            "duration": 0.11428560000000232,
            "durationTicks": 192,
            "midi": 41,
            "name": "F2",
            "ticks": 125280,
            "time": 74.571354,
            "velocity": 0.8267716535433071
          },
          {
            "duration": 0.11428559999998811,
            "durationTicks": 192,
            "midi": 41,
            "name": "F2",
            "ticks": 125520,
            "time": 74.714211,
            "velocity": 0.8267716535433071
          },
          {
            "duration": 0.11428559999998811,
            "durationTicks": 192,
            "midi": 41,
            "name": "F2",
            "ticks": 125760,
            "time": 74.85706800000001,
            "velocity": 0.8267716535433071
          },
          {
            "duration": 0.11428559999998811,
            "durationTicks": 192,
            "midi": 41,
            "name": "F2",
            "ticks": 126000,
            "time": 74.999925,
            "velocity": 0.8267716535433071
          },
          {
            "duration": 0.11428559999998811,
            "durationTicks": 192,
            "midi": 41,
            "name": "F2",
            "ticks": 126240,
            "time": 75.14278200000001,
            "velocity": 0.8267716535433071
          },
          {
            "duration": 0.11428560000000232,
            "durationTicks": 192,
            "midi": 41,
            "name": "F2",
            "ticks": 126480,
            "time": 75.285639,
            "velocity": 0.8267716535433071
          },
          {
            "duration": 0.22857120000000464,
            "durationTicks": 384,
            "midi": 46,
            "name": "A#2",
            "ticks": 126720,
            "time": 75.42849600000001,
            "velocity": 0.7244094488188977
          },
          {
            "duration": 0.4571424000000093,
            "durationTicks": 768,
            "midi": 50,
            "name": "D3",
            "ticks": 127200,
            "time": 75.71421000000001,
            "velocity": 0.984251968503937
          },
          {
            "duration": 0.17142840000001058,
            "durationTicks": 288,
            "midi": 51,
            "name": "D#3",
            "ticks": 128160,
            "time": 76.285638,
            "velocity": 0.8267716535433071
          },
          {
            "duration": 0.17142840000001058,
            "durationTicks": 288,
            "midi": 52,
            "name": "E3",
            "ticks": 128640,
            "time": 76.571352,
            "velocity": 0.8267716535433071
          },
          {
            "duration": 0.17142840000001058,
            "durationTicks": 288,
            "midi": 53,
            "name": "F3",
            "ticks": 129120,
            "time": 76.857066,
            "velocity": 0.8267716535433071
          },
          {
            "duration": 0.17142840000001058,
            "durationTicks": 288,
            "midi": 54,
            "name": "F#3",
            "ticks": 129600,
            "time": 77.14278,
            "velocity": 0.8267716535433071
          },
          {
            "duration": 0.17142840000001058,
            "durationTicks": 288,
            "midi": 55,
            "name": "G3",
            "ticks": 130080,
            "time": 77.428494,
            "velocity": 0.8267716535433071
          },
          {
            "duration": 0.22857119999999043,
            "durationTicks": 384,
            "midi": 56,
            "name": "G#3",
            "ticks": 130560,
            "time": 77.71420800000001,
            "velocity": 0.8267716535433071
          },
          {
            "duration": 0.22857120000000464,
            "durationTicks": 384,
            "midi": 55,
            "name": "G3",
            "ticks": 131520,
            "time": 78.28563600000001,
            "velocity": 0.8267716535433071
          },
          {
            "duration": 0.22857120000000464,
            "durationTicks": 384,
            "midi": 57,
            "name": "A3",
            "ticks": 132480,
            "time": 78.85706400000001,
            "velocity": 0.8267716535433071
          },
          {
            "duration": 0.22857120000000464,
            "durationTicks": 384,
            "midi": 60,
            "name": "C4",
            "ticks": 132480,
            "time": 78.85706400000001,
            "velocity": 0.8267716535433071
          },
          {
            "duration": 0.22857120000000464,
            "durationTicks": 384,
            "midi": 58,
            "name": "A#3",
            "ticks": 133440,
            "time": 79.428492,
            "velocity": 0.8267716535433071
          },
          {
            "duration": 0.22857120000000464,
            "durationTicks": 384,
            "midi": 62,
            "name": "D4",
            "ticks": 133440,
            "time": 79.428492,
            "velocity": 0.8267716535433071
          },
          {
            "duration": 0.6571422000000098,
            "durationTicks": 1104,
            "midi": 67,
            "name": "G4",
            "ticks": 134400,
            "time": 79.99992,
            "velocity": 0.8267716535433071
          },
          {
            "duration": 0.08571419999999819,
            "durationTicks": 144,
            "midi": 65,
            "name": "F4",
            "ticks": 135600,
            "time": 80.714205,
            "velocity": 0.5511811023622047
          },
          {
            "duration": 0.08571419999999819,
            "durationTicks": 144,
            "midi": 63,
            "name": "D#4",
            "ticks": 135840,
            "time": 80.85706200000001,
            "velocity": 0.5511811023622047
          },
          {
            "duration": 0.08571419999999819,
            "durationTicks": 144,
            "midi": 62,
            "name": "D4",
            "ticks": 136080,
            "time": 80.999919,
            "velocity": 0.5511811023622047
          },
          {
            "duration": 0.08571419999999819,
            "durationTicks": 144,
            "midi": 60,
            "name": "C4",
            "ticks": 136320,
            "time": 81.14277600000001,
            "velocity": 0.5511811023622047
          },
          {
            "duration": 0.0857142000000124,
            "durationTicks": 144,
            "midi": 58,
            "name": "A#3",
            "ticks": 136560,
            "time": 81.285633,
            "velocity": 0.5511811023622047
          },
          {
            "duration": 0.08571419999999819,
            "durationTicks": 144,
            "midi": 57,
            "name": "A3",
            "ticks": 136800,
            "time": 81.42849000000001,
            "velocity": 0.5511811023622047
          },
          {
            "duration": 0.0857142000000124,
            "durationTicks": 144,
            "midi": 55,
            "name": "G3",
            "ticks": 137040,
            "time": 81.571347,
            "velocity": 0.5511811023622047
          },
          {
            "duration": 0.08571419999999819,
            "durationTicks": 144,
            "midi": 53,
            "name": "F3",
            "ticks": 137280,
            "time": 81.71420400000001,
            "velocity": 0.5511811023622047
          },
          {
            "duration": 0.0857142000000124,
            "durationTicks": 144,
            "midi": 51,
            "name": "D#3",
            "ticks": 137520,
            "time": 81.857061,
            "velocity": 0.5511811023622047
          },
          {
            "duration": 0.08571419999999819,
            "durationTicks": 144,
            "midi": 50,
            "name": "D3",
            "ticks": 137760,
            "time": 81.99991800000001,
            "velocity": 0.5511811023622047
          },
          {
            "duration": 0.0857142000000124,
            "durationTicks": 144,
            "midi": 48,
            "name": "C3",
            "ticks": 138000,
            "time": 82.142775,
            "velocity": 0.5511811023622047
          },
          {
            "duration": 0.22857120000000464,
            "durationTicks": 384,
            "midi": 46,
            "name": "A#2",
            "ticks": 138240,
            "time": 82.285632,
            "velocity": 0.5511811023622047
          },
          {
            "duration": 0.14285699999999224,
            "durationTicks": 240,
            "midi": 67,
            "name": "G4",
            "ticks": 141600,
            "time": 84.28563000000001,
            "velocity": 0.6299212598425197
          },
          {
            "duration": 0.11428560000000232,
            "durationTicks": 192,
            "midi": 65,
            "name": "F4",
            "ticks": 141840,
            "time": 84.428487,
            "velocity": 0.6299212598425197
          },
          {
            "duration": 0.22857120000000464,
            "durationTicks": 384,
            "midi": 65,
            "name": "F4",
            "ticks": 142080,
            "time": 84.57134400000001,
            "velocity": 0.6299212598425197
          },
          {
            "duration": 0.14285699999999224,
            "durationTicks": 240,
            "midi": 67,
            "name": "G4",
            "ticks": 142560,
            "time": 84.85705800000001,
            "velocity": 0.6299212598425197
          },
          {
            "duration": 0.11428560000000232,
            "durationTicks": 192,
            "midi": 65,
            "name": "F4",
            "ticks": 142800,
            "time": 84.999915,
            "velocity": 0.6299212598425197
          },
          {
            "duration": 0.22857120000000464,
            "durationTicks": 384,
            "midi": 65,
            "name": "F4",
            "ticks": 143040,
            "time": 85.14277200000001,
            "velocity": 0.6299212598425197
          },
          {
            "duration": 0.14285700000000645,
            "durationTicks": 240,
            "midi": 67,
            "name": "G4",
            "ticks": 145440,
            "time": 86.571342,
            "velocity": 0.6299212598425197
          },
          {
            "duration": 0.11428559999998811,
            "durationTicks": 192,
            "midi": 65,
            "name": "F4",
            "ticks": 145680,
            "time": 86.71419900000001,
            "velocity": 0.6299212598425197
          },
          {
            "duration": 0.22857120000000464,
            "durationTicks": 384,
            "midi": 65,
            "name": "F4",
            "ticks": 145920,
            "time": 86.857056,
            "velocity": 0.6299212598425197
          },
          {
            "duration": 0.14285699999999224,
            "durationTicks": 240,
            "midi": 67,
            "name": "G4",
            "ticks": 146400,
            "time": 87.14277000000001,
            "velocity": 0.6299212598425197
          },
          {
            "duration": 0.11428560000000232,
            "durationTicks": 192,
            "midi": 65,
            "name": "F4",
            "ticks": 146640,
            "time": 87.285627,
            "velocity": 0.6299212598425197
          },
          {
            "duration": 0.22857120000000464,
            "durationTicks": 384,
            "midi": 65,
            "name": "F4",
            "ticks": 146880,
            "time": 87.42848400000001,
            "velocity": 0.6299212598425197
          },
          {
            "duration": 0.11428559999998811,
            "durationTicks": 192,
            "midi": 50,
            "name": "D3",
            "ticks": 147840,
            "time": 87.99991200000001,
            "velocity": 0.8267716535433071
          },
          {
            "duration": 0.11428560000000232,
            "durationTicks": 192,
            "midi": 50,
            "name": "D3",
            "ticks": 148080,
            "time": 88.142769,
            "velocity": 0.8267716535433071
          },
          {
            "duration": 0.11428559999998811,
            "durationTicks": 192,
            "midi": 50,
            "name": "D3",
            "ticks": 148320,
            "time": 88.28562600000001,
            "velocity": 0.8267716535433071
          },
          {
            "duration": 0.11428559999998811,
            "durationTicks": 192,
            "midi": 50,
            "name": "D3",
            "ticks": 148560,
            "time": 88.42848300000001,
            "velocity": 0.8267716535433071
          },
          {
            "duration": 0.11428559999998811,
            "durationTicks": 192,
            "midi": 50,
            "name": "D3",
            "ticks": 148800,
            "time": 88.57134,
            "velocity": 0.8267716535433071
          },
          {
            "duration": 0.11428559999998811,
            "durationTicks": 192,
            "midi": 50,
            "name": "D3",
            "ticks": 149040,
            "time": 88.71419700000001,
            "velocity": 0.8267716535433071
          },
          {
            "duration": 0.11428560000000232,
            "durationTicks": 192,
            "midi": 50,
            "name": "D3",
            "ticks": 149280,
            "time": 88.857054,
            "velocity": 0.8267716535433071
          },
          {
            "duration": 0.11428559999998811,
            "durationTicks": 192,
            "midi": 50,
            "name": "D3",
            "ticks": 149520,
            "time": 88.99991100000001,
            "velocity": 0.8267716535433071
          },
          {
            "duration": 0.11428560000000232,
            "durationTicks": 192,
            "midi": 55,
            "name": "G3",
            "ticks": 149760,
            "time": 89.142768,
            "velocity": 0.8267716535433071
          },
          {
            "duration": 0.11428559999998811,
            "durationTicks": 192,
            "midi": 55,
            "name": "G3",
            "ticks": 150000,
            "time": 89.28562500000001,
            "velocity": 0.8267716535433071
          },
          {
            "duration": 0.11428560000000232,
            "durationTicks": 192,
            "midi": 55,
            "name": "G3",
            "ticks": 150240,
            "time": 89.428482,
            "velocity": 0.8267716535433071
          },
          {
            "duration": 0.11428559999998811,
            "durationTicks": 192,
            "midi": 55,
            "name": "G3",
            "ticks": 150480,
            "time": 89.57133900000001,
            "velocity": 0.8267716535433071
          },
          {
            "duration": 0.11428560000000232,
            "durationTicks": 192,
            "midi": 51,
            "name": "D#3",
            "ticks": 150720,
            "time": 89.714196,
            "velocity": 0.8267716535433071
          },
          {
            "duration": 0.11428559999998811,
            "durationTicks": 192,
            "midi": 51,
            "name": "D#3",
            "ticks": 150960,
            "time": 89.85705300000001,
            "velocity": 0.8267716535433071
          },
          {
            "duration": 0.11428559999998811,
            "durationTicks": 192,
            "midi": 51,
            "name": "D#3",
            "ticks": 151200,
            "time": 89.99991000000001,
            "velocity": 0.8267716535433071
          },
          {
            "duration": 0.11428559999998811,
            "durationTicks": 192,
            "midi": 51,
            "name": "D#3",
            "ticks": 151440,
            "time": 90.142767,
            "velocity": 0.8267716535433071
          },
          {
            "duration": 0.11428559999998811,
            "durationTicks": 192,
            "midi": 53,
            "name": "F3",
            "ticks": 151680,
            "time": 90.28562400000001,
            "velocity": 0.8267716535433071
          },
          {
            "duration": 0.11428560000000232,
            "durationTicks": 192,
            "midi": 53,
            "name": "F3",
            "ticks": 151920,
            "time": 90.428481,
            "velocity": 0.8267716535433071
          },
          {
            "duration": 0.11428559999998811,
            "durationTicks": 192,
            "midi": 53,
            "name": "F3",
            "ticks": 152160,
            "time": 90.57133800000001,
            "velocity": 0.8267716535433071
          },
          {
            "duration": 0.11428560000000232,
            "durationTicks": 192,
            "midi": 53,
            "name": "F3",
            "ticks": 152400,
            "time": 90.714195,
            "velocity": 0.8267716535433071
          },
          {
            "duration": 0.11428559999998811,
            "durationTicks": 192,
            "midi": 41,
            "name": "F2",
            "ticks": 152640,
            "time": 90.85705200000001,
            "velocity": 0.8267716535433071
          },
          {
            "duration": 0.11428560000000232,
            "durationTicks": 192,
            "midi": 41,
            "name": "F2",
            "ticks": 152880,
            "time": 90.999909,
            "velocity": 0.8267716535433071
          },
          {
            "duration": 0.11428559999998811,
            "durationTicks": 192,
            "midi": 41,
            "name": "F2",
            "ticks": 153120,
            "time": 91.14276600000001,
            "velocity": 0.8267716535433071
          },
          {
            "duration": 0.11428560000000232,
            "durationTicks": 192,
            "midi": 41,
            "name": "F2",
            "ticks": 153360,
            "time": 91.285623,
            "velocity": 0.8267716535433071
          },
          {
            "duration": 0.22857120000000464,
            "durationTicks": 384,
            "midi": 46,
            "name": "A#2",
            "ticks": 153600,
            "time": 91.42848000000001,
            "velocity": 0.7244094488188977
          },
          {
            "duration": 0.14285700000000645,
            "durationTicks": 240,
            "midi": 67,
            "name": "G4",
            "ticks": 155040,
            "time": 92.285622,
            "velocity": 0.6299212598425197
          },
          {
            "duration": 0.11428559999998811,
            "durationTicks": 192,
            "midi": 65,
            "name": "F4",
            "ticks": 155280,
            "time": 92.42847900000001,
            "velocity": 0.6299212598425197
          },
          {
            "duration": 0.22857120000000464,
            "durationTicks": 384,
            "midi": 65,
            "name": "F4",
            "ticks": 155520,
            "time": 92.571336,
            "velocity": 0.6299212598425197
          },
          {
            "duration": 0.14285700000000645,
            "durationTicks": 240,
            "midi": 67,
            "name": "G4",
            "ticks": 156000,
            "time": 92.85705,
            "velocity": 0.6299212598425197
          },
          {
            "duration": 0.11428559999998811,
            "durationTicks": 192,
            "midi": 65,
            "name": "F4",
            "ticks": 156240,
            "time": 92.99990700000001,
            "velocity": 0.6299212598425197
          },
          {
            "duration": 0.22857119999999043,
            "durationTicks": 384,
            "midi": 65,
            "name": "F4",
            "ticks": 156480,
            "time": 93.14276400000001,
            "velocity": 0.6299212598425197
          },
          {
            "duration": 0.14285700000000645,
            "durationTicks": 240,
            "midi": 67,
            "name": "G4",
            "ticks": 158880,
            "time": 94.57133400000001,
            "velocity": 0.6299212598425197
          },
          {
            "duration": 0.11428559999998811,
            "durationTicks": 192,
            "midi": 65,
            "name": "F4",
            "ticks": 159120,
            "time": 94.71419100000001,
            "velocity": 0.6299212598425197
          },
          {
            "duration": 0.22857120000000464,
            "durationTicks": 384,
            "midi": 65,
            "name": "F4",
            "ticks": 159360,
            "time": 94.857048,
            "velocity": 0.6299212598425197
          },
          {
            "duration": 0.14285700000000645,
            "durationTicks": 240,
            "midi": 67,
            "name": "G4",
            "ticks": 159840,
            "time": 95.142762,
            "velocity": 0.6299212598425197
          },
          {
            "duration": 0.11428559999998811,
            "durationTicks": 192,
            "midi": 65,
            "name": "F4",
            "ticks": 160080,
            "time": 95.28561900000001,
            "velocity": 0.6299212598425197
          },
          {
            "duration": 0.22857120000000464,
            "durationTicks": 384,
            "midi": 65,
            "name": "F4",
            "ticks": 160320,
            "time": 95.428476,
            "velocity": 0.6299212598425197
          },
          {
            "duration": 0.11428559999998811,
            "durationTicks": 192,
            "midi": 50,
            "name": "D3",
            "ticks": 163200,
            "time": 97.14276000000001,
            "velocity": 0.8267716535433071
          },
          {
            "duration": 0.11428560000000232,
            "durationTicks": 192,
            "midi": 50,
            "name": "D3",
            "ticks": 163440,
            "time": 97.285617,
            "velocity": 0.8267716535433071
          },
          {
            "duration": 0.11428559999998811,
            "durationTicks": 192,
            "midi": 50,
            "name": "D3",
            "ticks": 163680,
            "time": 97.42847400000001,
            "velocity": 0.8267716535433071
          },
          {
            "duration": 0.11428559999998811,
            "durationTicks": 192,
            "midi": 50,
            "name": "D3",
            "ticks": 163920,
            "time": 97.57133100000001,
            "velocity": 0.8267716535433071
          },
          {
            "duration": 0.11428559999998811,
            "durationTicks": 192,
            "midi": 50,
            "name": "D3",
            "ticks": 164160,
            "time": 97.71418800000001,
            "velocity": 0.8267716535433071
          },
          {
            "duration": 0.11428559999998811,
            "durationTicks": 192,
            "midi": 50,
            "name": "D3",
            "ticks": 164400,
            "time": 97.85704500000001,
            "velocity": 0.8267716535433071
          },
          {
            "duration": 0.11428560000000232,
            "durationTicks": 192,
            "midi": 50,
            "name": "D3",
            "ticks": 164640,
            "time": 97.999902,
            "velocity": 0.8267716535433071
          },
          {
            "duration": 0.11428559999998811,
            "durationTicks": 192,
            "midi": 50,
            "name": "D3",
            "ticks": 164880,
            "time": 98.14275900000001,
            "velocity": 0.8267716535433071
          },
          {
            "duration": 0.11428560000000232,
            "durationTicks": 192,
            "midi": 55,
            "name": "G3",
            "ticks": 165120,
            "time": 98.285616,
            "velocity": 0.8267716535433071
          },
          {
            "duration": 0.11428559999998811,
            "durationTicks": 192,
            "midi": 55,
            "name": "G3",
            "ticks": 165360,
            "time": 98.42847300000001,
            "velocity": 0.8267716535433071
          },
          {
            "duration": 0.11428560000000232,
            "durationTicks": 192,
            "midi": 55,
            "name": "G3",
            "ticks": 165600,
            "time": 98.57133,
            "velocity": 0.8267716535433071
          },
          {
            "duration": 0.11428559999998811,
            "durationTicks": 192,
            "midi": 55,
            "name": "G3",
            "ticks": 165840,
            "time": 98.71418700000001,
            "velocity": 0.8267716535433071
          },
          {
            "duration": 0.11428560000000232,
            "durationTicks": 192,
            "midi": 51,
            "name": "D#3",
            "ticks": 166080,
            "time": 98.857044,
            "velocity": 0.8267716535433071
          },
          {
            "duration": 0.11428559999998811,
            "durationTicks": 192,
            "midi": 51,
            "name": "D#3",
            "ticks": 166320,
            "time": 98.99990100000001,
            "velocity": 0.8267716535433071
          },
          {
            "duration": 0.11428559999998811,
            "durationTicks": 192,
            "midi": 51,
            "name": "D#3",
            "ticks": 166560,
            "time": 99.14275800000001,
            "velocity": 0.8267716535433071
          },
          {
            "duration": 0.11428559999998811,
            "durationTicks": 192,
            "midi": 51,
            "name": "D#3",
            "ticks": 166800,
            "time": 99.285615,
            "velocity": 0.8267716535433071
          },
          {
            "duration": 0.11428559999998811,
            "durationTicks": 192,
            "midi": 53,
            "name": "F3",
            "ticks": 167040,
            "time": 99.42847200000001,
            "velocity": 0.8267716535433071
          },
          {
            "duration": 0.11428560000000232,
            "durationTicks": 192,
            "midi": 53,
            "name": "F3",
            "ticks": 167280,
            "time": 99.571329,
            "velocity": 0.8267716535433071
          },
          {
            "duration": 0.11428559999998811,
            "durationTicks": 192,
            "midi": 53,
            "name": "F3",
            "ticks": 167520,
            "time": 99.71418600000001,
            "velocity": 0.8267716535433071
          },
          {
            "duration": 0.11428560000000232,
            "durationTicks": 192,
            "midi": 53,
            "name": "F3",
            "ticks": 167760,
            "time": 99.857043,
            "velocity": 0.8267716535433071
          },
          {
            "duration": 0.11428559999998811,
            "durationTicks": 192,
            "midi": 41,
            "name": "F2",
            "ticks": 168000,
            "time": 99.99990000000001,
            "velocity": 0.8267716535433071
          },
          {
            "duration": 0.11428560000000232,
            "durationTicks": 192,
            "midi": 41,
            "name": "F2",
            "ticks": 168240,
            "time": 100.142757,
            "velocity": 0.8267716535433071
          },
          {
            "duration": 0.11428559999998811,
            "durationTicks": 192,
            "midi": 41,
            "name": "F2",
            "ticks": 168480,
            "time": 100.28561400000001,
            "velocity": 0.8267716535433071
          },
          {
            "duration": 0.11428560000000232,
            "durationTicks": 192,
            "midi": 41,
            "name": "F2",
            "ticks": 168720,
            "time": 100.428471,
            "velocity": 0.8267716535433071
          },
          {
            "duration": 0.4571424000000093,
            "durationTicks": 768,
            "midi": 46,
            "name": "A#2",
            "ticks": 168960,
            "time": 100.57132800000001,
            "velocity": 0.8267716535433071
          },
          {
            "duration": 0.11428559999998811,
            "durationTicks": 192,
            "midi": 65,
            "name": "F4",
            "ticks": 170640,
            "time": 101.57132700000001,
            "velocity": 0.8267716535433071
          },
          {
            "duration": 0.11428560000000232,
            "durationTicks": 192,
            "midi": 63,
            "name": "D#4",
            "ticks": 170880,
            "time": 101.714184,
            "velocity": 0.8267716535433071
          },
          {
            "duration": 0.11428559999998811,
            "durationTicks": 192,
            "midi": 62,
            "name": "D4",
            "ticks": 171120,
            "time": 101.85704100000001,
            "velocity": 0.8267716535433071
          },
          {
            "duration": 0.11428560000000232,
            "durationTicks": 192,
            "midi": 60,
            "name": "C4",
            "ticks": 171360,
            "time": 101.999898,
            "velocity": 0.8267716535433071
          },
          {
            "duration": 0.11428559999998811,
            "durationTicks": 192,
            "midi": 58,
            "name": "A#3",
            "ticks": 171600,
            "time": 102.14275500000001,
            "velocity": 0.8267716535433071
          },
          {
            "duration": 0.11428559999998811,
            "durationTicks": 192,
            "midi": 57,
            "name": "A3",
            "ticks": 171840,
            "time": 102.28561200000001,
            "velocity": 0.8267716535433071
          },
          {
            "duration": 0.11428559999998811,
            "durationTicks": 192,
            "midi": 55,
            "name": "G3",
            "ticks": 172080,
            "time": 102.428469,
            "velocity": 0.8267716535433071
          },
          {
            "duration": 0.11428559999998811,
            "durationTicks": 192,
            "midi": 53,
            "name": "F3",
            "ticks": 172320,
            "time": 102.57132600000001,
            "velocity": 0.8267716535433071
          },
          {
            "duration": 0.11428560000000232,
            "durationTicks": 192,
            "midi": 51,
            "name": "D#3",
            "ticks": 172560,
            "time": 102.714183,
            "velocity": 0.8267716535433071
          },
          {
            "duration": 0.1999997999999863,
            "durationTicks": 336,
            "midi": 50,
            "name": "D3",
            "ticks": 172800,
            "time": 102.85704000000001,
            "velocity": 0.8267716535433071
          },
          {
            "duration": 0.1999998000000005,
            "durationTicks": 336,
            "midi": 50,
            "name": "D3",
            "ticks": 173280,
            "time": 103.14275400000001,
            "velocity": 0.8267716535433071
          },
          {
            "duration": 0.1999998000000005,
            "durationTicks": 336,
            "midi": 51,
            "name": "D#3",
            "ticks": 173760,
            "time": 103.42846800000001,
            "velocity": 0.8267716535433071
          },
          {
            "duration": 0.1999998000000005,
            "durationTicks": 336,
            "midi": 53,
            "name": "F3",
            "ticks": 174240,
            "time": 103.71418200000001,
            "velocity": 0.8267716535433071
          },
          {
            "duration": 0.11428560000000232,
            "durationTicks": 192,
            "midi": 58,
            "name": "A#3",
            "ticks": 174720,
            "time": 103.999896,
            "velocity": 0.8267716535433071
          },
          {
            "duration": 0.11428559999998811,
            "durationTicks": 192,
            "midi": 53,
            "name": "F3",
            "ticks": 174960,
            "time": 104.14275300000001,
            "velocity": 0.8267716535433071
          },
          {
            "duration": 0.11428560000000232,
            "durationTicks": 192,
            "midi": 62,
            "name": "D4",
            "ticks": 175200,
            "time": 104.28561,
            "velocity": 0.8267716535433071
          },
          {
            "duration": 0.11428559999998811,
            "durationTicks": 192,
            "midi": 60,
            "name": "C4",
            "ticks": 175440,
            "time": 104.42846700000001,
            "velocity": 0.8267716535433071
          },
          {
            "duration": 0.11428560000000232,
            "durationTicks": 192,
            "midi": 58,
            "name": "A#3",
            "ticks": 175680,
            "time": 104.571324,
            "velocity": 0.8267716535433071
          },
          {
            "duration": 0.11428559999998811,
            "durationTicks": 192,
            "midi": 57,
            "name": "A3",
            "ticks": 175920,
            "time": 104.71418100000001,
            "velocity": 0.8267716535433071
          },
          {
            "duration": 0.11428560000000232,
            "durationTicks": 192,
            "midi": 55,
            "name": "G3",
            "ticks": 176160,
            "time": 104.857038,
            "velocity": 0.8267716535433071
          },
          {
            "duration": 0.11428559999998811,
            "durationTicks": 192,
            "midi": 53,
            "name": "F3",
            "ticks": 176400,
            "time": 104.99989500000001,
            "velocity": 0.8267716535433071
          },
          {
            "duration": 0.11428560000000232,
            "durationTicks": 192,
            "midi": 51,
            "name": "D#3",
            "ticks": 176640,
            "time": 105.142752,
            "velocity": 0.8267716535433071
          },
          {
            "duration": 0.11428559999998811,
            "durationTicks": 192,
            "midi": 50,
            "name": "D3",
            "ticks": 176880,
            "time": 105.28560900000001,
            "velocity": 0.8267716535433071
          },
          {
            "duration": 0.11428559999998811,
            "durationTicks": 192,
            "midi": 48,
            "name": "C3",
            "ticks": 177120,
            "time": 105.42846600000001,
            "velocity": 0.8267716535433071
          },
          {
            "duration": 0.11428560000000232,
            "durationTicks": 192,
            "midi": 46,
            "name": "A#2",
            "ticks": 177360,
            "time": 105.571323,
            "velocity": 0.8267716535433071
          },
          {
            "duration": 0.11428559999998811,
            "durationTicks": 192,
            "midi": 45,
            "name": "A2",
            "ticks": 177600,
            "time": 105.71418000000001,
            "velocity": 0.8267716535433071
          },
          {
            "duration": 0.11428560000000232,
            "durationTicks": 192,
            "midi": 48,
            "name": "C3",
            "ticks": 177840,
            "time": 105.857037,
            "velocity": 0.8267716535433071
          },
          {
            "duration": 0.11428559999998811,
            "durationTicks": 192,
            "midi": 53,
            "name": "F3",
            "ticks": 178080,
            "time": 105.99989400000001,
            "velocity": 0.8267716535433071
          },
          {
            "duration": 0.11428560000000232,
            "durationTicks": 192,
            "midi": 51,
            "name": "D#3",
            "ticks": 178320,
            "time": 106.142751,
            "velocity": 0.8267716535433071
          },
          {
            "duration": 0.1999998000000005,
            "durationTicks": 336,
            "midi": 50,
            "name": "D3",
            "ticks": 178560,
            "time": 106.28560800000001,
            "velocity": 0.8267716535433071
          },
          {
            "duration": 0.1999998000000005,
            "durationTicks": 336,
            "midi": 50,
            "name": "D3",
            "ticks": 179040,
            "time": 106.57132200000001,
            "velocity": 0.8267716535433071
          },
          {
            "duration": 0.1999998000000005,
            "durationTicks": 336,
            "midi": 51,
            "name": "D#3",
            "ticks": 179520,
            "time": 106.85703600000001,
            "velocity": 0.8267716535433071
          },
          {
            "duration": 0.1999998000000005,
            "durationTicks": 336,
            "midi": 53,
            "name": "F3",
            "ticks": 180000,
            "time": 107.14275,
            "velocity": 0.8267716535433071
          },
          {
            "duration": 0.1999998000000005,
            "durationTicks": 336,
            "midi": 55,
            "name": "G3",
            "ticks": 180480,
            "time": 107.428464,
            "velocity": 0.8267716535433071
          },
          {
            "duration": 0.1999998000000005,
            "durationTicks": 336,
            "midi": 51,
            "name": "D#3",
            "ticks": 180960,
            "time": 107.714178,
            "velocity": 0.8267716535433071
          },
          {
            "duration": 0.1999998000000005,
            "durationTicks": 336,
            "midi": 53,
            "name": "F3",
            "ticks": 181440,
            "time": 107.999892,
            "velocity": 0.8267716535433071
          },
          {
            "duration": 0.1999997999999863,
            "durationTicks": 336,
            "midi": 41,
            "name": "F2",
            "ticks": 181920,
            "time": 108.28560600000002,
            "velocity": 0.8267716535433071
          },
          {
            "duration": 0.21428549999998836,
            "durationTicks": 360,
            "midi": 46,
            "name": "A#2",
            "ticks": 182400,
            "time": 108.57132000000001,
            "velocity": 0.8267716535433071
          },
          {
            "duration": 0.10714274999999418,
            "durationTicks": 180,
            "midi": 58,
            "name": "A#3",
            "ticks": 182880,
            "time": 108.85703400000001,
            "velocity": 0.8267716535433071
          },
          {
            "duration": 0.10714274999999418,
            "durationTicks": 180,
            "midi": 62,
            "name": "D4",
            "ticks": 182880,
            "time": 108.85703400000001,
            "velocity": 0.8267716535433071
          },
          {
            "duration": 0.10714275000000839,
            "durationTicks": 180,
            "midi": 58,
            "name": "A#3",
            "ticks": 183120,
            "time": 108.999891,
            "velocity": 0.8267716535433071
          },
          {
            "duration": 0.10714275000000839,
            "durationTicks": 180,
            "midi": 62,
            "name": "D4",
            "ticks": 183120,
            "time": 108.999891,
            "velocity": 0.8267716535433071
          },
          {
            "duration": 0.21428550000000257,
            "durationTicks": 360,
            "midi": 60,
            "name": "C4",
            "ticks": 183360,
            "time": 109.14274800000001,
            "velocity": 0.8267716535433071
          },
          {
            "duration": 0.21428550000000257,
            "durationTicks": 360,
            "midi": 63,
            "name": "D#4",
            "ticks": 183360,
            "time": 109.14274800000001,
            "velocity": 0.8267716535433071
          },
          {
            "duration": 0.10714274999999418,
            "durationTicks": 180,
            "midi": 60,
            "name": "C4",
            "ticks": 183840,
            "time": 109.42846200000001,
            "velocity": 0.8267716535433071
          },
          {
            "duration": 0.10714274999999418,
            "durationTicks": 180,
            "midi": 63,
            "name": "D#4",
            "ticks": 183840,
            "time": 109.42846200000001,
            "velocity": 0.8267716535433071
          },
          {
            "duration": 0.10714275000000839,
            "durationTicks": 180,
            "midi": 60,
            "name": "C4",
            "ticks": 184080,
            "time": 109.571319,
            "velocity": 0.8267716535433071
          },
          {
            "duration": 0.10714275000000839,
            "durationTicks": 180,
            "midi": 63,
            "name": "D#4",
            "ticks": 184080,
            "time": 109.571319,
            "velocity": 0.8267716535433071
          },
          {
            "duration": 0.21428550000000257,
            "durationTicks": 360,
            "midi": 58,
            "name": "A#3",
            "ticks": 184320,
            "time": 109.71417600000001,
            "velocity": 0.8267716535433071
          },
          {
            "duration": 0.21428550000000257,
            "durationTicks": 360,
            "midi": 62,
            "name": "D4",
            "ticks": 184320,
            "time": 109.71417600000001,
            "velocity": 0.8267716535433071
          },
          {
            "duration": 0.10714275000000839,
            "durationTicks": 180,
            "midi": 58,
            "name": "A#3",
            "ticks": 184800,
            "time": 109.99989000000001,
            "velocity": 0.8267716535433071
          },
          {
            "duration": 0.10714275000000839,
            "durationTicks": 180,
            "midi": 62,
            "name": "D4",
            "ticks": 184800,
            "time": 109.99989000000001,
            "velocity": 0.8267716535433071
          },
          {
            "duration": 0.10714274999999418,
            "durationTicks": 180,
            "midi": 58,
            "name": "A#3",
            "ticks": 185040,
            "time": 110.14274700000001,
            "velocity": 0.8267716535433071
          },
          {
            "duration": 0.10714274999999418,
            "durationTicks": 180,
            "midi": 62,
            "name": "D4",
            "ticks": 185040,
            "time": 110.14274700000001,
            "velocity": 0.8267716535433071
          },
          {
            "duration": 0.21428550000000257,
            "durationTicks": 360,
            "midi": 60,
            "name": "C4",
            "ticks": 185280,
            "time": 110.285604,
            "velocity": 0.8267716535433071
          },
          {
            "duration": 0.21428550000000257,
            "durationTicks": 360,
            "midi": 63,
            "name": "D#4",
            "ticks": 185280,
            "time": 110.285604,
            "velocity": 0.8267716535433071
          },
          {
            "duration": 0.10714275000000839,
            "durationTicks": 180,
            "midi": 60,
            "name": "C4",
            "ticks": 185760,
            "time": 110.571318,
            "velocity": 0.8267716535433071
          },
          {
            "duration": 0.10714275000000839,
            "durationTicks": 180,
            "midi": 63,
            "name": "D#4",
            "ticks": 185760,
            "time": 110.571318,
            "velocity": 0.8267716535433071
          },
          {
            "duration": 0.10714274999999418,
            "durationTicks": 180,
            "midi": 60,
            "name": "C4",
            "ticks": 186000,
            "time": 110.71417500000001,
            "velocity": 0.8267716535433071
          },
          {
            "duration": 0.10714274999999418,
            "durationTicks": 180,
            "midi": 63,
            "name": "D#4",
            "ticks": 186000,
            "time": 110.71417500000001,
            "velocity": 0.8267716535433071
          },
          {
            "duration": 0.21428550000000257,
            "durationTicks": 360,
            "midi": 58,
            "name": "A#3",
            "ticks": 186240,
            "time": 110.857032,
            "velocity": 0.8267716535433071
          },
          {
            "duration": 0.21428550000000257,
            "durationTicks": 360,
            "midi": 62,
            "name": "D4",
            "ticks": 186240,
            "time": 110.857032,
            "velocity": 0.8267716535433071
          },
          {
            "duration": 0.10714275000000839,
            "durationTicks": 180,
            "midi": 58,
            "name": "A#3",
            "ticks": 186720,
            "time": 111.142746,
            "velocity": 0.8267716535433071
          },
          {
            "duration": 0.10714275000000839,
            "durationTicks": 180,
            "midi": 62,
            "name": "D4",
            "ticks": 186720,
            "time": 111.142746,
            "velocity": 0.8267716535433071
          },
          {
            "duration": 0.10714274999999418,
            "durationTicks": 180,
            "midi": 58,
            "name": "A#3",
            "ticks": 186960,
            "time": 111.28560300000001,
            "velocity": 0.8267716535433071
          },
          {
            "duration": 0.10714274999999418,
            "durationTicks": 180,
            "midi": 62,
            "name": "D4",
            "ticks": 186960,
            "time": 111.28560300000001,
            "velocity": 0.8267716535433071
          },
          {
            "duration": 0.21428549999998836,
            "durationTicks": 360,
            "midi": 60,
            "name": "C4",
            "ticks": 187200,
            "time": 111.42846000000002,
            "velocity": 0.8267716535433071
          },
          {
            "duration": 0.21428549999998836,
            "durationTicks": 360,
            "midi": 63,
            "name": "D#4",
            "ticks": 187200,
            "time": 111.42846000000002,
            "velocity": 0.8267716535433071
          },
          {
            "duration": 0.10714274999999418,
            "durationTicks": 180,
            "midi": 60,
            "name": "C4",
            "ticks": 187680,
            "time": 111.71417400000001,
            "velocity": 0.8267716535433071
          },
          {
            "duration": 0.10714274999999418,
            "durationTicks": 180,
            "midi": 63,
            "name": "D#4",
            "ticks": 187680,
            "time": 111.71417400000001,
            "velocity": 0.8267716535433071
          },
          {
            "duration": 0.10714275000000839,
            "durationTicks": 180,
            "midi": 60,
            "name": "C4",
            "ticks": 187920,
            "time": 111.857031,
            "velocity": 0.8267716535433071
          },
          {
            "duration": 0.10714275000000839,
            "durationTicks": 180,
            "midi": 63,
            "name": "D#4",
            "ticks": 187920,
            "time": 111.857031,
            "velocity": 0.8267716535433071
          },
          {
            "duration": 0.21428550000000257,
            "durationTicks": 360,
            "midi": 58,
            "name": "A#3",
            "ticks": 188160,
            "time": 111.99988800000001,
            "velocity": 0.8267716535433071
          },
          {
            "duration": 0.21428550000000257,
            "durationTicks": 360,
            "midi": 62,
            "name": "D4",
            "ticks": 188160,
            "time": 111.99988800000001,
            "velocity": 0.8267716535433071
          },
          {
            "duration": 0.21428550000000257,
            "durationTicks": 360,
            "midi": 60,
            "name": "C4",
            "ticks": 188640,
            "time": 112.28560200000001,
            "velocity": 0.8267716535433071
          },
          {
            "duration": 0.21428550000000257,
            "durationTicks": 360,
            "midi": 63,
            "name": "D#4",
            "ticks": 188640,
            "time": 112.28560200000001,
            "velocity": 0.8267716535433071
          },
          {
            "duration": 0.21428550000000257,
            "durationTicks": 360,
            "midi": 58,
            "name": "A#3",
            "ticks": 189120,
            "time": 112.57131600000001,
            "velocity": 0.8267716535433071
          },
          {
            "duration": 0.21428550000000257,
            "durationTicks": 360,
            "midi": 62,
            "name": "D4",
            "ticks": 189120,
            "time": 112.57131600000001,
            "velocity": 0.8267716535433071
          },
          {
            "duration": 0.21428550000000257,
            "durationTicks": 360,
            "midi": 60,
            "name": "C4",
            "ticks": 189600,
            "time": 112.85703000000001,
            "velocity": 0.8267716535433071
          },
          {
            "duration": 0.21428550000000257,
            "durationTicks": 360,
            "midi": 63,
            "name": "D#4",
            "ticks": 189600,
            "time": 112.85703000000001,
            "velocity": 0.8267716535433071
          },
          {
            "duration": 0.22857120000000464,
            "durationTicks": 384,
            "midi": 58,
            "name": "A#3",
            "ticks": 190080,
            "time": 113.14274400000001,
            "velocity": 0.8267716535433071
          },
          {
            "duration": 0.22857120000000464,
            "durationTicks": 384,
            "midi": 62,
            "name": "D4",
            "ticks": 190080,
            "time": 113.14274400000001,
            "velocity": 0.8267716535433071
          },
          {
            "duration": 0.22857119999999043,
            "durationTicks": 384,
            "midi": 57,
            "name": "A3",
            "ticks": 192000,
            "time": 114.28560000000002,
            "velocity": 0.8267716535433071
          },
          {
            "duration": 0.2857139999999845,
            "durationTicks": 480,
            "midi": 54,
            "name": "F#3",
            "ticks": 219360,
            "time": 130.571298,
            "velocity": 0.5511811023622047
          },
          {
            "duration": 0.2857140000000129,
            "durationTicks": 480,
            "midi": 55,
            "name": "G3",
            "ticks": 219840,
            "time": 130.857012,
            "velocity": 0.5511811023622047
          },
          {
            "duration": 0.2857140000000129,
            "durationTicks": 480,
            "midi": 57,
            "name": "A3",
            "ticks": 220320,
            "time": 131.142726,
            "velocity": 0.5511811023622047
          },
          {
            "duration": 0.2857139999999845,
            "durationTicks": 480,
            "midi": 58,
            "name": "A#3",
            "ticks": 220800,
            "time": 131.42844000000002,
            "velocity": 0.5511811023622047
          },
          {
            "duration": 0.14285699999999224,
            "durationTicks": 240,
            "midi": 60,
            "name": "C4",
            "ticks": 221280,
            "time": 131.714154,
            "velocity": 0.5511811023622047
          },
          {
            "duration": 0.14285700000002066,
            "durationTicks": 240,
            "midi": 58,
            "name": "A#3",
            "ticks": 221520,
            "time": 131.857011,
            "velocity": 0.5511811023622047
          },
          {
            "duration": 0.2857139999999845,
            "durationTicks": 480,
            "midi": 57,
            "name": "A3",
            "ticks": 221760,
            "time": 131.99986800000002,
            "velocity": 0.5511811023622047
          },
          {
            "duration": 0.2714282999999966,
            "durationTicks": 456,
            "midi": 55,
            "name": "G3",
            "ticks": 222240,
            "time": 132.285582,
            "velocity": 0.5511811023622047
          },
          {
            "duration": 0.22857120000000464,
            "durationTicks": 384,
            "midi": 54,
            "name": "F#3",
            "ticks": 222720,
            "time": 132.57129600000002,
            "velocity": 0.5511811023622047
          },
          {
            "duration": 0.5714279999999974,
            "durationTicks": 960,
            "midi": 58,
            "name": "A#3",
            "ticks": 223680,
            "time": 133.14272400000002,
            "velocity": 0.8267716535433071
          },
          {
            "duration": 0.5714279999999974,
            "durationTicks": 960,
            "midi": 64,
            "name": "E4",
            "ticks": 223680,
            "time": 133.14272400000002,
            "velocity": 0.8267716535433071
          },
          {
            "duration": 0.22857120000000464,
            "durationTicks": 384,
            "midi": 57,
            "name": "A3",
            "ticks": 224640,
            "time": 133.714152,
            "velocity": 0.8267716535433071
          },
          {
            "duration": 0.22857120000000464,
            "durationTicks": 384,
            "midi": 66,
            "name": "F#4",
            "ticks": 224640,
            "time": 133.714152,
            "velocity": 0.8267716535433071
          },
          {
            "duration": 0.5714279999999974,
            "durationTicks": 960,
            "midi": 58,
            "name": "A#3",
            "ticks": 225600,
            "time": 134.28558,
            "velocity": 0.8267716535433071
          },
          {
            "duration": 0.5714279999999974,
            "durationTicks": 960,
            "midi": 64,
            "name": "E4",
            "ticks": 225600,
            "time": 134.28558,
            "velocity": 0.8267716535433071
          },
          {
            "duration": 0.22857120000000464,
            "durationTicks": 384,
            "midi": 57,
            "name": "A3",
            "ticks": 226560,
            "time": 134.857008,
            "velocity": 0.8267716535433071
          },
          {
            "duration": 0.22857120000000464,
            "durationTicks": 384,
            "midi": 66,
            "name": "F#4",
            "ticks": 226560,
            "time": 134.857008,
            "velocity": 0.8267716535433071
          },
          {
            "duration": 0.5714279999999974,
            "durationTicks": 960,
            "midi": 58,
            "name": "A#3",
            "ticks": 227520,
            "time": 135.428436,
            "velocity": 0.8267716535433071
          },
          {
            "duration": 0.5714279999999974,
            "durationTicks": 960,
            "midi": 64,
            "name": "E4",
            "ticks": 227520,
            "time": 135.428436,
            "velocity": 0.8267716535433071
          },
          {
            "duration": 0.1714284000000248,
            "durationTicks": 288,
            "midi": 57,
            "name": "A3",
            "ticks": 228480,
            "time": 135.999864,
            "velocity": 0.8267716535433071
          },
          {
            "duration": 0.1714284000000248,
            "durationTicks": 288,
            "midi": 66,
            "name": "F#4",
            "ticks": 228480,
            "time": 135.999864,
            "velocity": 0.8267716535433071
          },
          {
            "duration": 0.17142839999999637,
            "durationTicks": 288,
            "midi": 58,
            "name": "A#3",
            "ticks": 228960,
            "time": 136.28557800000002,
            "velocity": 0.8267716535433071
          },
          {
            "duration": 0.17142839999999637,
            "durationTicks": 288,
            "midi": 64,
            "name": "E4",
            "ticks": 228960,
            "time": 136.28557800000002,
            "velocity": 0.8267716535433071
          },
          {
            "duration": 0.1714284000000248,
            "durationTicks": 288,
            "midi": 57,
            "name": "A3",
            "ticks": 229440,
            "time": 136.571292,
            "velocity": 0.8267716535433071
          },
          {
            "duration": 0.1714284000000248,
            "durationTicks": 288,
            "midi": 66,
            "name": "F#4",
            "ticks": 229440,
            "time": 136.571292,
            "velocity": 0.8267716535433071
          },
          {
            "duration": 0.17142839999999637,
            "durationTicks": 288,
            "midi": 58,
            "name": "A#3",
            "ticks": 229920,
            "time": 136.857006,
            "velocity": 0.8267716535433071
          },
          {
            "duration": 0.17142839999999637,
            "durationTicks": 288,
            "midi": 64,
            "name": "E4",
            "ticks": 229920,
            "time": 136.857006,
            "velocity": 0.8267716535433071
          },
          {
            "duration": 0.5714280000000258,
            "durationTicks": 960,
            "midi": 57,
            "name": "A3",
            "ticks": 230400,
            "time": 137.14272,
            "velocity": 0.8267716535433071
          },
          {
            "duration": 0.5714280000000258,
            "durationTicks": 960,
            "midi": 66,
            "name": "F#4",
            "ticks": 230400,
            "time": 137.14272,
            "velocity": 0.8267716535433071
          },
          {
            "duration": 0.5714279999999974,
            "durationTicks": 960,
            "midi": 57,
            "name": "A3",
            "ticks": 231360,
            "time": 137.71414800000002,
            "velocity": 0.5511811023622047
          },
          {
            "duration": 0.5714279999999974,
            "durationTicks": 960,
            "midi": 60,
            "name": "C4",
            "ticks": 231360,
            "time": 137.71414800000002,
            "velocity": 0.5511811023622047
          },
          {
            "duration": 0.5714279999999974,
            "durationTicks": 960,
            "midi": 55,
            "name": "G3",
            "ticks": 232320,
            "time": 138.28557600000002,
            "velocity": 0.5511811023622047
          },
          {
            "duration": 0.5714279999999974,
            "durationTicks": 960,
            "midi": 58,
            "name": "A#3",
            "ticks": 232320,
            "time": 138.28557600000002,
            "velocity": 0.5511811023622047
          },
          {
            "duration": 0.5714279999999974,
            "durationTicks": 960,
            "midi": 54,
            "name": "F#3",
            "ticks": 233280,
            "time": 138.85700400000002,
            "velocity": 0.5511811023622047
          },
          {
            "duration": 0.5714279999999974,
            "durationTicks": 960,
            "midi": 57,
            "name": "A3",
            "ticks": 233280,
            "time": 138.85700400000002,
            "velocity": 0.5511811023622047
          },
          {
            "duration": 0.22857120000000464,
            "durationTicks": 384,
            "midi": 55,
            "name": "G3",
            "ticks": 234240,
            "time": 139.42843200000002,
            "velocity": 0.4566929133858268
          },
          {
            "duration": 0.22857120000000464,
            "durationTicks": 384,
            "midi": 58,
            "name": "A#3",
            "ticks": 234240,
            "time": 139.42843200000002,
            "velocity": 0.4566929133858268
          },
          {
            "duration": 4.514281199999999,
            "durationTicks": 7584,
            "midi": 63,
            "name": "D#4",
            "ticks": 238080,
            "time": 141.714144,
            "velocity": 0.5511811023622047
          },
          {
            "duration": 2.2285692000000097,
            "durationTicks": 3744,
            "midi": 67,
            "name": "G4",
            "ticks": 238080,
            "time": 141.714144,
            "velocity": 0.5511811023622047
          },
          {
            "duration": 2.2285691999999813,
            "durationTicks": 3744,
            "midi": 65,
            "name": "F4",
            "ticks": 241920,
            "time": 143.99985600000002,
            "velocity": 0.5511811023622047
          },
          {
            "duration": 0.22857119999997622,
            "durationTicks": 384,
            "midi": 62,
            "name": "D4",
            "ticks": 245760,
            "time": 146.285568,
            "velocity": 0.8267716535433071
          },
          {
            "duration": 0.22857119999997622,
            "durationTicks": 384,
            "midi": 65,
            "name": "F4",
            "ticks": 245760,
            "time": 146.285568,
            "velocity": 0.8267716535433071
          },
          {
            "duration": 0.11428559999998811,
            "durationTicks": 192,
            "midi": 58,
            "name": "A#3",
            "ticks": 246240,
            "time": 146.57128200000002,
            "velocity": 0.8267716535433071
          },
          {
            "duration": 0.11428559999998811,
            "durationTicks": 192,
            "midi": 62,
            "name": "D4",
            "ticks": 246480,
            "time": 146.71413900000002,
            "velocity": 0.8267716535433071
          },
          {
            "duration": 0.11428559999998811,
            "durationTicks": 192,
            "midi": 58,
            "name": "A#3",
            "ticks": 246720,
            "time": 146.856996,
            "velocity": 0.8267716535433071
          },
          {
            "duration": 0.11428560000001653,
            "durationTicks": 192,
            "midi": 62,
            "name": "D4",
            "ticks": 246960,
            "time": 146.999853,
            "velocity": 0.8267716535433071
          },
          {
            "duration": 0.11428559999998811,
            "durationTicks": 192,
            "midi": 58,
            "name": "A#3",
            "ticks": 247200,
            "time": 147.14271000000002,
            "velocity": 0.8267716535433071
          },
          {
            "duration": 0.11428559999998811,
            "durationTicks": 192,
            "midi": 62,
            "name": "D4",
            "ticks": 247440,
            "time": 147.28556700000001,
            "velocity": 0.8267716535433071
          },
          {
            "duration": 0.11428559999998811,
            "durationTicks": 192,
            "midi": 57,
            "name": "A3",
            "ticks": 247680,
            "time": 147.428424,
            "velocity": 0.8267716535433071
          },
          {
            "duration": 0.11428560000001653,
            "durationTicks": 192,
            "midi": 60,
            "name": "C4",
            "ticks": 247920,
            "time": 147.571281,
            "velocity": 0.8267716535433071
          },
          {
            "duration": 0.11428559999998811,
            "durationTicks": 192,
            "midi": 57,
            "name": "A3",
            "ticks": 248160,
            "time": 147.71413800000002,
            "velocity": 0.8267716535433071
          },
          {
            "duration": 0.11428559999998811,
            "durationTicks": 192,
            "midi": 60,
            "name": "C4",
            "ticks": 248400,
            "time": 147.856995,
            "velocity": 0.8267716535433071
          },
          {
            "duration": 0.11428559999998811,
            "durationTicks": 192,
            "midi": 57,
            "name": "A3",
            "ticks": 248640,
            "time": 147.999852,
            "velocity": 0.8267716535433071
          },
          {
            "duration": 0.11428559999998811,
            "durationTicks": 192,
            "midi": 60,
            "name": "C4",
            "ticks": 248880,
            "time": 148.14270900000002,
            "velocity": 0.8267716535433071
          },
          {
            "duration": 0.11428559999998811,
            "durationTicks": 192,
            "midi": 57,
            "name": "A3",
            "ticks": 249120,
            "time": 148.28556600000002,
            "velocity": 0.8267716535433071
          },
          {
            "duration": 0.11428559999998811,
            "durationTicks": 192,
            "midi": 60,
            "name": "C4",
            "ticks": 249360,
            "time": 148.428423,
            "velocity": 0.8267716535433071
          },
          {
            "duration": 0.11428560000001653,
            "durationTicks": 192,
            "midi": 55,
            "name": "G3",
            "ticks": 249600,
            "time": 148.57128,
            "velocity": 0.8267716535433071
          },
          {
            "duration": 0.11428559999998811,
            "durationTicks": 192,
            "midi": 58,
            "name": "A#3",
            "ticks": 249840,
            "time": 148.71413700000002,
            "velocity": 0.8267716535433071
          },
          {
            "duration": 0.11428559999998811,
            "durationTicks": 192,
            "midi": 55,
            "name": "G3",
            "ticks": 250080,
            "time": 148.85699400000001,
            "velocity": 0.8267716535433071
          },
          {
            "duration": 0.11428559999998811,
            "durationTicks": 192,
            "midi": 58,
            "name": "A#3",
            "ticks": 250320,
            "time": 148.999851,
            "velocity": 0.8267716535433071
          },
          {
            "duration": 0.11428560000001653,
            "durationTicks": 192,
            "midi": 55,
            "name": "G3",
            "ticks": 250560,
            "time": 149.142708,
            "velocity": 0.8267716535433071
          },
          {
            "duration": 0.11428559999998811,
            "durationTicks": 192,
            "midi": 58,
            "name": "A#3",
            "ticks": 250800,
            "time": 149.28556500000002,
            "velocity": 0.8267716535433071
          },
          {
            "duration": 0.11428559999998811,
            "durationTicks": 192,
            "midi": 55,
            "name": "G3",
            "ticks": 251040,
            "time": 149.428422,
            "velocity": 0.8267716535433071
          },
          {
            "duration": 0.11428559999998811,
            "durationTicks": 192,
            "midi": 58,
            "name": "A#3",
            "ticks": 251280,
            "time": 149.571279,
            "velocity": 0.8267716535433071
          },
          {
            "duration": 0.11428559999998811,
            "durationTicks": 192,
            "midi": 53,
            "name": "F3",
            "ticks": 251520,
            "time": 149.71413600000002,
            "velocity": 0.8267716535433071
          },
          {
            "duration": 0.11428559999998811,
            "durationTicks": 192,
            "midi": 58,
            "name": "A#3",
            "ticks": 251760,
            "time": 149.85699300000002,
            "velocity": 0.8267716535433071
          },
          {
            "duration": 0.11428559999998811,
            "durationTicks": 192,
            "midi": 53,
            "name": "F3",
            "ticks": 252000,
            "time": 149.99985,
            "velocity": 0.8267716535433071
          },
          {
            "duration": 0.11428560000001653,
            "durationTicks": 192,
            "midi": 58,
            "name": "A#3",
            "ticks": 252240,
            "time": 150.142707,
            "velocity": 0.8267716535433071
          },
          {
            "duration": 0.11428559999998811,
            "durationTicks": 192,
            "midi": 53,
            "name": "F3",
            "ticks": 252480,
            "time": 150.28556400000002,
            "velocity": 0.8267716535433071
          },
          {
            "duration": 0.11428559999998811,
            "durationTicks": 192,
            "midi": 58,
            "name": "A#3",
            "ticks": 252720,
            "time": 150.42842100000001,
            "velocity": 0.8267716535433071
          },
          {
            "duration": 0.11428559999998811,
            "durationTicks": 192,
            "midi": 53,
            "name": "F3",
            "ticks": 252960,
            "time": 150.571278,
            "velocity": 0.8267716535433071
          },
          {
            "duration": 0.11428560000001653,
            "durationTicks": 192,
            "midi": 58,
            "name": "A#3",
            "ticks": 253200,
            "time": 150.714135,
            "velocity": 0.8267716535433071
          },
          {
            "duration": 0.11428559999998811,
            "durationTicks": 192,
            "midi": 51,
            "name": "D#3",
            "ticks": 253440,
            "time": 150.85699200000002,
            "velocity": 0.8267716535433071
          },
          {
            "duration": 0.11428559999998811,
            "durationTicks": 192,
            "midi": 55,
            "name": "G3",
            "ticks": 253680,
            "time": 150.999849,
            "velocity": 0.8267716535433071
          },
          {
            "duration": 0.11428559999998811,
            "durationTicks": 192,
            "midi": 51,
            "name": "D#3",
            "ticks": 253920,
            "time": 151.142706,
            "velocity": 0.8267716535433071
          },
          {
            "duration": 0.11428559999998811,
            "durationTicks": 192,
            "midi": 55,
            "name": "G3",
            "ticks": 254160,
            "time": 151.28556300000002,
            "velocity": 0.8267716535433071
          },
          {
            "duration": 0.11428559999998811,
            "durationTicks": 192,
            "midi": 51,
            "name": "D#3",
            "ticks": 254400,
            "time": 151.42842000000002,
            "velocity": 0.8267716535433071
          },
          {
            "duration": 0.11428559999998811,
            "durationTicks": 192,
            "midi": 55,
            "name": "G3",
            "ticks": 254640,
            "time": 151.571277,
            "velocity": 0.8267716535433071
          },
          {
            "duration": 0.11428560000001653,
            "durationTicks": 192,
            "midi": 51,
            "name": "D#3",
            "ticks": 254880,
            "time": 151.714134,
            "velocity": 0.8267716535433071
          },
          {
            "duration": 0.11428559999998811,
            "durationTicks": 192,
            "midi": 55,
            "name": "G3",
            "ticks": 255120,
            "time": 151.85699100000002,
            "velocity": 0.8267716535433071
          },
          {
            "duration": 0.11428559999998811,
            "durationTicks": 192,
            "midi": 50,
            "name": "D3",
            "ticks": 255360,
            "time": 151.99984800000001,
            "velocity": 0.8267716535433071
          },
          {
            "duration": 0.11428559999998811,
            "durationTicks": 192,
            "midi": 53,
            "name": "F3",
            "ticks": 255600,
            "time": 152.142705,
            "velocity": 0.8267716535433071
          },
          {
            "duration": 0.11428560000001653,
            "durationTicks": 192,
            "midi": 50,
            "name": "D3",
            "ticks": 255840,
            "time": 152.285562,
            "velocity": 0.8267716535433071
          },
          {
            "duration": 0.11428559999998811,
            "durationTicks": 192,
            "midi": 53,
            "name": "F3",
            "ticks": 256080,
            "time": 152.42841900000002,
            "velocity": 0.8267716535433071
          },
          {
            "duration": 0.11428559999998811,
            "durationTicks": 192,
            "midi": 50,
            "name": "D3",
            "ticks": 256320,
            "time": 152.571276,
            "velocity": 0.8267716535433071
          },
          {
            "duration": 0.11428559999998811,
            "durationTicks": 192,
            "midi": 53,
            "name": "F3",
            "ticks": 256560,
            "time": 152.714133,
            "velocity": 0.8267716535433071
          },
          {
            "duration": 0.11428559999998811,
            "durationTicks": 192,
            "midi": 50,
            "name": "D3",
            "ticks": 256800,
            "time": 152.85699000000002,
            "velocity": 0.8267716535433071
          },
          {
            "duration": 0.11428559999998811,
            "durationTicks": 192,
            "midi": 53,
            "name": "F3",
            "ticks": 257040,
            "time": 152.99984700000002,
            "velocity": 0.8267716535433071
          },
          {
            "duration": 1.1142845999999906,
            "durationTicks": 1872,
            "midi": 55,
            "name": "G3",
            "ticks": 257280,
            "time": 153.142704,
            "velocity": 0.7244094488188977
          },
          {
            "duration": 0.9142848000000185,
            "durationTicks": 1536,
            "midi": 64,
            "name": "E4",
            "ticks": 257280,
            "time": 153.142704,
            "velocity": 0.8818897637795275
          },
          {
            "duration": 0.11428559999998811,
            "durationTicks": 192,
            "midi": 65,
            "name": "F4",
            "ticks": 258960,
            "time": 154.142703,
            "velocity": 0.7244094488188977
          },
          {
            "duration": 1.1142845999999906,
            "durationTicks": 1872,
            "midi": 55,
            "name": "G3",
            "ticks": 259200,
            "time": 154.28556,
            "velocity": 0.7244094488188977
          },
          {
            "duration": 0.9142848000000185,
            "durationTicks": 1536,
            "midi": 64,
            "name": "E4",
            "ticks": 259200,
            "time": 154.28556,
            "velocity": 0.8818897637795275
          },
          {
            "duration": 0.11428559999998811,
            "durationTicks": 192,
            "midi": 65,
            "name": "F4",
            "ticks": 260880,
            "time": 155.285559,
            "velocity": 0.7244094488188977
          },
          {
            "duration": 1.1142845999999906,
            "durationTicks": 1872,
            "midi": 55,
            "name": "G3",
            "ticks": 261120,
            "time": 155.42841600000003,
            "velocity": 0.7244094488188977
          },
          {
            "duration": 0.9142847999999901,
            "durationTicks": 1536,
            "midi": 64,
            "name": "E4",
            "ticks": 261120,
            "time": 155.42841600000003,
            "velocity": 0.8818897637795275
          },
          {
            "duration": 0.11428560000001653,
            "durationTicks": 192,
            "midi": 65,
            "name": "F4",
            "ticks": 262800,
            "time": 156.428415,
            "velocity": 0.7244094488188977
          },
          {
            "duration": 0.9142847999999901,
            "durationTicks": 1536,
            "midi": 55,
            "name": "G3",
            "ticks": 263040,
            "time": 156.57127200000002,
            "velocity": 0.7244094488188977
          },
          {
            "duration": 0.9142847999999901,
            "durationTicks": 1536,
            "midi": 64,
            "name": "E4",
            "ticks": 263040,
            "time": 156.57127200000002,
            "velocity": 0.8818897637795275
          },
          {
            "duration": 0.10714275000000839,
            "durationTicks": 180,
            "midi": 53,
            "name": "F3",
            "ticks": 264960,
            "time": 157.71412800000002,
            "velocity": 0.8267716535433071
          },
          {
            "duration": 0.10714275000000839,
            "durationTicks": 180,
            "midi": 65,
            "name": "F4",
            "ticks": 264960,
            "time": 157.71412800000002,
            "velocity": 0.8267716535433071
          },
          {
            "duration": 0.10714275000000839,
            "durationTicks": 180,
            "midi": 53,
            "name": "F3",
            "ticks": 265200,
            "time": 157.856985,
            "velocity": 0.8267716535433071
          },
          {
            "duration": 0.10714275000000839,
            "durationTicks": 180,
            "midi": 53,
            "name": "F3",
            "ticks": 265440,
            "time": 157.999842,
            "velocity": 0.8267716535433071
          },
          {
            "duration": 0.10714274999997997,
            "durationTicks": 180,
            "midi": 53,
            "name": "F3",
            "ticks": 265680,
            "time": 158.14269900000002,
            "velocity": 0.8267716535433071
          },
          {
            "duration": 0.10714275000000839,
            "durationTicks": 180,
            "midi": 53,
            "name": "F3",
            "ticks": 265920,
            "time": 158.285556,
            "velocity": 0.8267716535433071
          },
          {
            "duration": 0.10714275000000839,
            "durationTicks": 180,
            "midi": 53,
            "name": "F3",
            "ticks": 266160,
            "time": 158.428413,
            "velocity": 0.8267716535433071
          },
          {
            "duration": 0.10714274999997997,
            "durationTicks": 180,
            "midi": 53,
            "name": "F3",
            "ticks": 266400,
            "time": 158.57127000000003,
            "velocity": 0.8267716535433071
          },
          {
            "duration": 0.10714274999997997,
            "durationTicks": 180,
            "midi": 53,
            "name": "F3",
            "ticks": 266640,
            "time": 158.71412700000002,
            "velocity": 0.8267716535433071
          },
          {
            "duration": 0.10714275000000839,
            "durationTicks": 180,
            "midi": 53,
            "name": "F3",
            "ticks": 266880,
            "time": 158.856984,
            "velocity": 0.8267716535433071
          },
          {
            "duration": 0.10714275000000839,
            "durationTicks": 180,
            "midi": 53,
            "name": "F3",
            "ticks": 267120,
            "time": 158.999841,
            "velocity": 0.8267716535433071
          },
          {
            "duration": 0.10714274999997997,
            "durationTicks": 180,
            "midi": 53,
            "name": "F3",
            "ticks": 267360,
            "time": 159.14269800000002,
            "velocity": 0.8267716535433071
          },
          {
            "duration": 0.10714275000000839,
            "durationTicks": 180,
            "midi": 53,
            "name": "F3",
            "ticks": 267600,
            "time": 159.28555500000002,
            "velocity": 0.8267716535433071
          },
          {
            "duration": 0.10714275000000839,
            "durationTicks": 180,
            "midi": 53,
            "name": "F3",
            "ticks": 267840,
            "time": 159.428412,
            "velocity": 0.8267716535433071
          },
          {
            "duration": 0.10714275000000839,
            "durationTicks": 180,
            "midi": 53,
            "name": "F3",
            "ticks": 268080,
            "time": 159.571269,
            "velocity": 0.8267716535433071
          },
          {
            "duration": 0.10714274999997997,
            "durationTicks": 180,
            "midi": 53,
            "name": "F3",
            "ticks": 268320,
            "time": 159.71412600000002,
            "velocity": 0.8267716535433071
          },
          {
            "duration": 0.10714275000000839,
            "durationTicks": 180,
            "midi": 53,
            "name": "F3",
            "ticks": 268560,
            "time": 159.856983,
            "velocity": 0.8267716535433071
          },
          {
            "duration": 0.10714275000000839,
            "durationTicks": 180,
            "midi": 53,
            "name": "F3",
            "ticks": 268800,
            "time": 159.99984,
            "velocity": 0.8267716535433071
          },
          {
            "duration": 0.10714274999997997,
            "durationTicks": 180,
            "midi": 53,
            "name": "F3",
            "ticks": 269040,
            "time": 160.14269700000003,
            "velocity": 0.8267716535433071
          },
          {
            "duration": 0.10714275000000839,
            "durationTicks": 180,
            "midi": 53,
            "name": "F3",
            "ticks": 269280,
            "time": 160.28555400000002,
            "velocity": 0.8267716535433071
          },
          {
            "duration": 0.10714275000000839,
            "durationTicks": 180,
            "midi": 53,
            "name": "F3",
            "ticks": 269520,
            "time": 160.428411,
            "velocity": 0.8267716535433071
          },
          {
            "duration": 0.10714275000000839,
            "durationTicks": 180,
            "midi": 53,
            "name": "F3",
            "ticks": 269760,
            "time": 160.571268,
            "velocity": 0.8267716535433071
          },
          {
            "duration": 0.10714274999997997,
            "durationTicks": 180,
            "midi": 53,
            "name": "F3",
            "ticks": 270000,
            "time": 160.71412500000002,
            "velocity": 0.8267716535433071
          },
          {
            "duration": 0.10714275000000839,
            "durationTicks": 180,
            "midi": 53,
            "name": "F3",
            "ticks": 270240,
            "time": 160.85698200000002,
            "velocity": 0.8267716535433071
          },
          {
            "duration": 0.10714275000000839,
            "durationTicks": 180,
            "midi": 53,
            "name": "F3",
            "ticks": 270480,
            "time": 160.999839,
            "velocity": 0.8267716535433071
          },
          {
            "duration": 0.10714275000000839,
            "durationTicks": 180,
            "midi": 53,
            "name": "F3",
            "ticks": 270720,
            "time": 161.142696,
            "velocity": 0.8267716535433071
          },
          {
            "duration": 0.10714274999997997,
            "durationTicks": 180,
            "midi": 53,
            "name": "F3",
            "ticks": 270960,
            "time": 161.28555300000002,
            "velocity": 0.8267716535433071
          },
          {
            "duration": 0.10714275000000839,
            "durationTicks": 180,
            "midi": 53,
            "name": "F3",
            "ticks": 271200,
            "time": 161.42841,
            "velocity": 0.8267716535433071
          },
          {
            "duration": 0.10714275000000839,
            "durationTicks": 180,
            "midi": 53,
            "name": "F3",
            "ticks": 271440,
            "time": 161.571267,
            "velocity": 0.8267716535433071
          },
          {
            "duration": 0.10714274999997997,
            "durationTicks": 180,
            "midi": 53,
            "name": "F3",
            "ticks": 271680,
            "time": 161.71412400000003,
            "velocity": 0.8267716535433071
          },
          {
            "duration": 0.10714275000000839,
            "durationTicks": 180,
            "midi": 53,
            "name": "F3",
            "ticks": 271920,
            "time": 161.85698100000002,
            "velocity": 0.8267716535433071
          },
          {
            "duration": 0.10714275000000839,
            "durationTicks": 180,
            "midi": 53,
            "name": "F3",
            "ticks": 272160,
            "time": 161.999838,
            "velocity": 0.8267716535433071
          },
          {
            "duration": 0.10714275000000839,
            "durationTicks": 180,
            "midi": 53,
            "name": "F3",
            "ticks": 272400,
            "time": 162.142695,
            "velocity": 0.8267716535433071
          },
          {
            "duration": 0.22857119999997622,
            "durationTicks": 384,
            "midi": 53,
            "name": "F3",
            "ticks": 272640,
            "time": 162.28555200000002,
            "velocity": 0.8267716535433071
          },
          {
            "duration": 0.22857119999997622,
            "durationTicks": 384,
            "midi": 41,
            "name": "F2",
            "ticks": 273600,
            "time": 162.85698000000002,
            "velocity": 0.7244094488188977
          },
          {
            "duration": 0.8571420000000103,
            "durationTicks": 1440,
            "midi": 63,
            "name": "D#4",
            "ticks": 278400,
            "time": 165.71412,
            "velocity": 0.5511811023622047
          },
          {
            "duration": 0.07142849999999612,
            "durationTicks": 120,
            "midi": 65,
            "name": "F4",
            "ticks": 279840,
            "time": 166.57126200000002,
            "velocity": 0.5511811023622047
          },
          {
            "duration": 0.07142849999999612,
            "durationTicks": 120,
            "midi": 63,
            "name": "D#4",
            "ticks": 279960,
            "time": 166.64269050000001,
            "velocity": 0.5511811023622047
          },
          {
            "duration": 0.07142849999999612,
            "durationTicks": 120,
            "midi": 62,
            "name": "D4",
            "ticks": 280080,
            "time": 166.714119,
            "velocity": 0.5511811023622047
          },
          {
            "duration": 0.07142849999999612,
            "durationTicks": 120,
            "midi": 60,
            "name": "C4",
            "ticks": 280200,
            "time": 166.7855475,
            "velocity": 0.5511811023622047
          },
          {
            "duration": 0.22857120000000464,
            "durationTicks": 384,
            "midi": 58,
            "name": "A#3",
            "ticks": 280320,
            "time": 166.856976,
            "velocity": 0.5511811023622047
          },
          {
            "duration": 0.14285700000002066,
            "durationTicks": 240,
            "midi": 58,
            "name": "A#3",
            "ticks": 289920,
            "time": 172.571256,
            "velocity": 0.5511811023622047
          },
          {
            "duration": 0.14285699999999224,
            "durationTicks": 240,
            "midi": 57,
            "name": "A3",
            "ticks": 290160,
            "time": 172.71411300000003,
            "velocity": 0.5511811023622047
          },
          {
            "duration": 0.14285699999999224,
            "durationTicks": 240,
            "midi": 60,
            "name": "C4",
            "ticks": 290400,
            "time": 172.85697000000002,
            "velocity": 0.5511811023622047
          },
          {
            "duration": 0.14285699999999224,
            "durationTicks": 240,
            "midi": 58,
            "name": "A#3",
            "ticks": 290640,
            "time": 172.999827,
            "velocity": 0.5511811023622047
          },
          {
            "duration": 0.14285700000002066,
            "durationTicks": 240,
            "midi": 62,
            "name": "D4",
            "ticks": 290880,
            "time": 173.142684,
            "velocity": 0.5511811023622047
          },
          {
            "duration": 0.14285699999999224,
            "durationTicks": 240,
            "midi": 60,
            "name": "C4",
            "ticks": 291120,
            "time": 173.28554100000002,
            "velocity": 0.5511811023622047
          },
          {
            "duration": 0.14285699999999224,
            "durationTicks": 240,
            "midi": 63,
            "name": "D#4",
            "ticks": 291360,
            "time": 173.42839800000002,
            "velocity": 0.5511811023622047
          },
          {
            "duration": 0.11428559999998811,
            "durationTicks": 192,
            "midi": 62,
            "name": "D4",
            "ticks": 291600,
            "time": 173.571255,
            "velocity": 0.5511811023622047
          },
          {
            "duration": 0.8571420000000103,
            "durationTicks": 1440,
            "midi": 62,
            "name": "D4",
            "ticks": 291840,
            "time": 173.714112,
            "velocity": 0.5511811023622047
          },
          {
            "duration": 0.8571420000000103,
            "durationTicks": 1440,
            "midi": 65,
            "name": "F4",
            "ticks": 291840,
            "time": 173.714112,
            "velocity": 0.5511811023622047
          },
          {
            "duration": 0.2857140000000129,
            "durationTicks": 480,
            "midi": 60,
            "name": "C4",
            "ticks": 293280,
            "time": 174.571254,
            "velocity": 0.5511811023622047
          },
          {
            "duration": 0.2857140000000129,
            "durationTicks": 480,
            "midi": 64,
            "name": "E4",
            "ticks": 293280,
            "time": 174.571254,
            "velocity": 0.5511811023622047
          },
          {
            "duration": 0.22857119999997622,
            "durationTicks": 384,
            "midi": 53,
            "name": "F3",
            "ticks": 293760,
            "time": 174.85696800000002,
            "velocity": 0.5511811023622047
          },
          {
            "duration": 0.22857119999997622,
            "durationTicks": 384,
            "midi": 63,
            "name": "D#4",
            "ticks": 293760,
            "time": 174.85696800000002,
            "velocity": 0.5511811023622047
          },
          {
            "duration": 0.18571410000001265,
            "durationTicks": 312,
            "midi": 55,
            "name": "G3",
            "ticks": 296160,
            "time": 176.285538,
            "velocity": 0.5511811023622047
          },
          {
            "duration": 0.18571410000001265,
            "durationTicks": 312,
            "midi": 62,
            "name": "D4",
            "ticks": 296160,
            "time": 176.285538,
            "velocity": 0.5511811023622047
          },
          {
            "duration": 0.2857140000000129,
            "durationTicks": 480,
            "midi": 55,
            "name": "G3",
            "ticks": 296640,
            "time": 176.57125200000002,
            "velocity": 0.5511811023622047
          },
          {
            "duration": 0.2857140000000129,
            "durationTicks": 480,
            "midi": 62,
            "name": "D4",
            "ticks": 296640,
            "time": 176.57125200000002,
            "velocity": 0.5511811023622047
          },
          {
            "duration": 0.22857119999997622,
            "durationTicks": 384,
            "midi": 52,
            "name": "E3",
            "ticks": 297120,
            "time": 176.85696600000003,
            "velocity": 0.5511811023622047
          },
          {
            "duration": 0.22857119999997622,
            "durationTicks": 384,
            "midi": 67,
            "name": "G4",
            "ticks": 297120,
            "time": 176.85696600000003,
            "velocity": 0.5511811023622047
          },
          {
            "duration": 0.5714279999999974,
            "durationTicks": 960,
            "midi": 53,
            "name": "F3",
            "ticks": 297600,
            "time": 177.14268,
            "velocity": 0.5511811023622047
          },
          {
            "duration": 0.5714279999999974,
            "durationTicks": 960,
            "midi": 65,
            "name": "F4",
            "ticks": 297600,
            "time": 177.14268,
            "velocity": 0.5511811023622047
          },
          {
            "duration": 0.5714279999999974,
            "durationTicks": 960,
            "midi": 58,
            "name": "A#3",
            "ticks": 303840,
            "time": 180.856962,
            "velocity": 0.4566929133858268
          },
          {
            "duration": 0.5714279999999974,
            "durationTicks": 960,
            "midi": 61,
            "name": "C#4",
            "ticks": 303840,
            "time": 180.856962,
            "velocity": 0.4566929133858268
          },
          {
            "duration": 0.22857120000000464,
            "durationTicks": 384,
            "midi": 56,
            "name": "G#3",
            "ticks": 304800,
            "time": 181.42839,
            "velocity": 0.4566929133858268
          },
          {
            "duration": 0.22857120000000464,
            "durationTicks": 384,
            "midi": 60,
            "name": "C4",
            "ticks": 304800,
            "time": 181.42839,
            "velocity": 0.4566929133858268
          },
          {
            "duration": 0.5714279999999974,
            "durationTicks": 960,
            "midi": 58,
            "name": "A#3",
            "ticks": 305760,
            "time": 181.999818,
            "velocity": 0.4566929133858268
          },
          {
            "duration": 0.5714279999999974,
            "durationTicks": 960,
            "midi": 61,
            "name": "C#4",
            "ticks": 305760,
            "time": 181.999818,
            "velocity": 0.4566929133858268
          },
          {
            "duration": 0.22857120000000464,
            "durationTicks": 384,
            "midi": 56,
            "name": "G#3",
            "ticks": 306720,
            "time": 182.571246,
            "velocity": 0.4566929133858268
          },
          {
            "duration": 0.22857120000000464,
            "durationTicks": 384,
            "midi": 60,
            "name": "C4",
            "ticks": 306720,
            "time": 182.571246,
            "velocity": 0.4566929133858268
          },
          {
            "duration": 0.5714279999999974,
            "durationTicks": 960,
            "midi": 58,
            "name": "A#3",
            "ticks": 307680,
            "time": 183.14267400000003,
            "velocity": 0.4566929133858268
          },
          {
            "duration": 0.5714279999999974,
            "durationTicks": 960,
            "midi": 61,
            "name": "C#4",
            "ticks": 307680,
            "time": 183.14267400000003,
            "velocity": 0.4566929133858268
          },
          {
            "duration": 0.22857119999997622,
            "durationTicks": 384,
            "midi": 56,
            "name": "G#3",
            "ticks": 308640,
            "time": 183.71410200000003,
            "velocity": 0.4566929133858268
          },
          {
            "duration": 0.22857119999997622,
            "durationTicks": 384,
            "midi": 60,
            "name": "C4",
            "ticks": 308640,
            "time": 183.71410200000003,
            "velocity": 0.4566929133858268
          },
          {
            "duration": 0.5714279999999974,
            "durationTicks": 960,
            "midi": 58,
            "name": "A#3",
            "ticks": 309600,
            "time": 184.28553000000002,
            "velocity": 0.4566929133858268
          },
          {
            "duration": 0.5714279999999974,
            "durationTicks": 960,
            "midi": 61,
            "name": "C#4",
            "ticks": 309600,
            "time": 184.28553000000002,
            "velocity": 0.4566929133858268
          },
          {
            "duration": 0.22857119999997622,
            "durationTicks": 384,
            "midi": 56,
            "name": "G#3",
            "ticks": 310560,
            "time": 184.85695800000002,
            "velocity": 0.4566929133858268
          },
          {
            "duration": 0.22857119999997622,
            "durationTicks": 384,
            "midi": 60,
            "name": "C4",
            "ticks": 310560,
            "time": 184.85695800000002,
            "velocity": 0.4566929133858268
          },
          {
            "duration": 0.11428560000001653,
            "durationTicks": 192,
            "midi": 51,
            "name": "D#3",
            "ticks": 311040,
            "time": 185.142672,
            "velocity": 0.5511811023622047
          },
          {
            "duration": 0.11428559999998811,
            "durationTicks": 192,
            "midi": 51,
            "name": "D#3",
            "ticks": 311280,
            "time": 185.28552900000003,
            "velocity": 0.5748031496062992
          },
          {
            "duration": 0.11428559999998811,
            "durationTicks": 192,
            "midi": 51,
            "name": "D#3",
            "ticks": 311520,
            "time": 185.42838600000002,
            "velocity": 0.5984251968503937
          },
          {
            "duration": 0.11428559999998811,
            "durationTicks": 192,
            "midi": 51,
            "name": "D#3",
            "ticks": 311760,
            "time": 185.571243,
            "velocity": 0.6220472440944882
          },
          {
            "duration": 0.11428560000001653,
            "durationTicks": 192,
            "midi": 51,
            "name": "D#3",
            "ticks": 312000,
            "time": 185.7141,
            "velocity": 0.6456692913385826
          },
          {
            "duration": 0.11428559999998811,
            "durationTicks": 192,
            "midi": 51,
            "name": "D#3",
            "ticks": 312240,
            "time": 185.85695700000002,
            "velocity": 0.6692913385826772
          },
          {
            "duration": 0.11428559999998811,
            "durationTicks": 192,
            "midi": 51,
            "name": "D#3",
            "ticks": 312480,
            "time": 185.99981400000001,
            "velocity": 0.6929133858267716
          },
          {
            "duration": 0.11428559999998811,
            "durationTicks": 192,
            "midi": 51,
            "name": "D#3",
            "ticks": 312720,
            "time": 186.142671,
            "velocity": 0.7244094488188977
          },
          {
            "duration": 0.11428559999998811,
            "durationTicks": 192,
            "midi": 52,
            "name": "E3",
            "ticks": 312960,
            "time": 186.28552800000003,
            "velocity": 0.7480314960629921
          },
          {
            "duration": 0.11428559999998811,
            "durationTicks": 192,
            "midi": 52,
            "name": "E3",
            "ticks": 313200,
            "time": 186.42838500000002,
            "velocity": 0.7716535433070866
          },
          {
            "duration": 0.11428559999998811,
            "durationTicks": 192,
            "midi": 52,
            "name": "E3",
            "ticks": 313440,
            "time": 186.571242,
            "velocity": 0.7952755905511811
          },
          {
            "duration": 0.11428560000001653,
            "durationTicks": 192,
            "midi": 52,
            "name": "E3",
            "ticks": 313680,
            "time": 186.714099,
            "velocity": 0.8188976377952756
          },
          {
            "duration": 0.11428559999998811,
            "durationTicks": 192,
            "midi": 52,
            "name": "E3",
            "ticks": 313920,
            "time": 186.85695600000003,
            "velocity": 0.84251968503937
          },
          {
            "duration": 0.11428559999998811,
            "durationTicks": 192,
            "midi": 52,
            "name": "E3",
            "ticks": 314160,
            "time": 186.99981300000002,
            "velocity": 0.8582677165354331
          },
          {
            "duration": 0.11428559999998811,
            "durationTicks": 192,
            "midi": 52,
            "name": "E3",
            "ticks": 314400,
            "time": 187.14267,
            "velocity": 0.8582677165354331
          },
          {
            "duration": 0.11428560000001653,
            "durationTicks": 192,
            "midi": 52,
            "name": "E3",
            "ticks": 314640,
            "time": 187.285527,
            "velocity": 0.8582677165354331
          },
          {
            "duration": 0.11428559999998811,
            "durationTicks": 192,
            "midi": 53,
            "name": "F3",
            "ticks": 314880,
            "time": 187.42838400000002,
            "velocity": 0.8267716535433071
          },
          {
            "duration": 0.11428559999998811,
            "durationTicks": 192,
            "midi": 53,
            "name": "F3",
            "ticks": 315120,
            "time": 187.57124100000001,
            "velocity": 0.8267716535433071
          },
          {
            "duration": 0.11428559999998811,
            "durationTicks": 192,
            "midi": 53,
            "name": "F3",
            "ticks": 315360,
            "time": 187.714098,
            "velocity": 0.8267716535433071
          },
          {
            "duration": 0.11428559999998811,
            "durationTicks": 192,
            "midi": 53,
            "name": "F3",
            "ticks": 315600,
            "time": 187.85695500000003,
            "velocity": 0.8267716535433071
          },
          {
            "duration": 0.11428559999998811,
            "durationTicks": 192,
            "midi": 53,
            "name": "F3",
            "ticks": 315840,
            "time": 187.99981200000002,
            "velocity": 0.8267716535433071
          },
          {
            "duration": 0.11428559999998811,
            "durationTicks": 192,
            "midi": 53,
            "name": "F3",
            "ticks": 316080,
            "time": 188.142669,
            "velocity": 0.8267716535433071
          },
          {
            "duration": 0.11428560000001653,
            "durationTicks": 192,
            "midi": 53,
            "name": "F3",
            "ticks": 316320,
            "time": 188.285526,
            "velocity": 0.8267716535433071
          },
          {
            "duration": 0.11428559999998811,
            "durationTicks": 192,
            "midi": 53,
            "name": "F3",
            "ticks": 316560,
            "time": 188.42838300000003,
            "velocity": 0.8267716535433071
          },
          {
            "duration": 0.11428559999998811,
            "durationTicks": 192,
            "midi": 41,
            "name": "F2",
            "ticks": 316800,
            "time": 188.57124000000002,
            "velocity": 0.8267716535433071
          },
          {
            "duration": 0.11428559999998811,
            "durationTicks": 192,
            "midi": 41,
            "name": "F2",
            "ticks": 317040,
            "time": 188.714097,
            "velocity": 0.8267716535433071
          },
          {
            "duration": 0.11428560000001653,
            "durationTicks": 192,
            "midi": 41,
            "name": "F2",
            "ticks": 317280,
            "time": 188.856954,
            "velocity": 0.8267716535433071
          },
          {
            "duration": 0.11428559999998811,
            "durationTicks": 192,
            "midi": 41,
            "name": "F2",
            "ticks": 317520,
            "time": 188.99981100000002,
            "velocity": 0.8267716535433071
          },
          {
            "duration": 0.11428559999998811,
            "durationTicks": 192,
            "midi": 41,
            "name": "F2",
            "ticks": 317760,
            "time": 189.14266800000001,
            "velocity": 0.8267716535433071
          },
          {
            "duration": 0.11428559999998811,
            "durationTicks": 192,
            "midi": 41,
            "name": "F2",
            "ticks": 318000,
            "time": 189.285525,
            "velocity": 0.8267716535433071
          },
          {
            "duration": 0.11428559999998811,
            "durationTicks": 192,
            "midi": 41,
            "name": "F2",
            "ticks": 318240,
            "time": 189.42838200000003,
            "velocity": 0.8267716535433071
          },
          {
            "duration": 0.11428559999998811,
            "durationTicks": 192,
            "midi": 41,
            "name": "F2",
            "ticks": 318480,
            "time": 189.57123900000002,
            "velocity": 0.8267716535433071
          },
          {
            "duration": 0.22857120000000464,
            "durationTicks": 384,
            "midi": 46,
            "name": "A#2",
            "ticks": 318720,
            "time": 189.714096,
            "velocity": 0.7244094488188977
          },
          {
            "duration": 0.4571424000000093,
            "durationTicks": 768,
            "midi": 50,
            "name": "D3",
            "ticks": 319200,
            "time": 189.99981000000002,
            "velocity": 0.984251968503937
          },
          {
            "duration": 0.17142839999999637,
            "durationTicks": 288,
            "midi": 51,
            "name": "D#3",
            "ticks": 320160,
            "time": 190.57123800000002,
            "velocity": 0.8267716535433071
          },
          {
            "duration": 0.1714284000000248,
            "durationTicks": 288,
            "midi": 52,
            "name": "E3",
            "ticks": 320640,
            "time": 190.856952,
            "velocity": 0.8267716535433071
          },
          {
            "duration": 0.17142839999999637,
            "durationTicks": 288,
            "midi": 53,
            "name": "F3",
            "ticks": 321120,
            "time": 191.14266600000002,
            "velocity": 0.8267716535433071
          },
          {
            "duration": 0.1714284000000248,
            "durationTicks": 288,
            "midi": 54,
            "name": "F#3",
            "ticks": 321600,
            "time": 191.42838,
            "velocity": 0.8267716535433071
          },
          {
            "duration": 0.17142839999999637,
            "durationTicks": 288,
            "midi": 55,
            "name": "G3",
            "ticks": 322080,
            "time": 191.71409400000002,
            "velocity": 0.8267716535433071
          },
          {
            "duration": 0.22857119999997622,
            "durationTicks": 384,
            "midi": 56,
            "name": "G#3",
            "ticks": 322560,
            "time": 191.99980800000003,
            "velocity": 0.8267716535433071
          },
          {
            "duration": 0.22857119999997622,
            "durationTicks": 384,
            "midi": 55,
            "name": "G3",
            "ticks": 323520,
            "time": 192.57123600000003,
            "velocity": 0.8267716535433071
          },
          {
            "duration": 0.22857119999997622,
            "durationTicks": 384,
            "midi": 57,
            "name": "A3",
            "ticks": 324480,
            "time": 193.14266400000002,
            "velocity": 0.8267716535433071
          },
          {
            "duration": 0.22857119999997622,
            "durationTicks": 384,
            "midi": 60,
            "name": "C4",
            "ticks": 324480,
            "time": 193.14266400000002,
            "velocity": 0.8267716535433071
          },
          {
            "duration": 0.22857119999997622,
            "durationTicks": 384,
            "midi": 58,
            "name": "A#3",
            "ticks": 325440,
            "time": 193.71409200000002,
            "velocity": 0.8267716535433071
          },
          {
            "duration": 0.22857119999997622,
            "durationTicks": 384,
            "midi": 62,
            "name": "D4",
            "ticks": 325440,
            "time": 193.71409200000002,
            "velocity": 0.8267716535433071
          },
          {
            "duration": 0.6571421999999814,
            "durationTicks": 1104,
            "midi": 67,
            "name": "G4",
            "ticks": 326400,
            "time": 194.28552000000002,
            "velocity": 0.8267716535433071
          },
          {
            "duration": 0.08571419999998398,
            "durationTicks": 144,
            "midi": 65,
            "name": "F4",
            "ticks": 327600,
            "time": 194.999805,
            "velocity": 0.5511811023622047
          },
          {
            "duration": 0.08571419999998398,
            "durationTicks": 144,
            "midi": 63,
            "name": "D#4",
            "ticks": 327840,
            "time": 195.14266200000003,
            "velocity": 0.5511811023622047
          },
          {
            "duration": 0.08571419999998398,
            "durationTicks": 144,
            "midi": 62,
            "name": "D4",
            "ticks": 328080,
            "time": 195.28551900000002,
            "velocity": 0.5511811023622047
          },
          {
            "duration": 0.08571419999998398,
            "durationTicks": 144,
            "midi": 60,
            "name": "C4",
            "ticks": 328320,
            "time": 195.42837600000001,
            "velocity": 0.5511811023622047
          },
          {
            "duration": 0.08571419999998398,
            "durationTicks": 144,
            "midi": 58,
            "name": "A#3",
            "ticks": 328560,
            "time": 195.571233,
            "velocity": 0.5511811023622047
          },
          {
            "duration": 0.08571419999998398,
            "durationTicks": 144,
            "midi": 57,
            "name": "A3",
            "ticks": 328800,
            "time": 195.71409000000003,
            "velocity": 0.5511811023622047
          },
          {
            "duration": 0.08571419999998398,
            "durationTicks": 144,
            "midi": 55,
            "name": "G3",
            "ticks": 329040,
            "time": 195.85694700000002,
            "velocity": 0.5511811023622047
          },
          {
            "duration": 0.08571419999998398,
            "durationTicks": 144,
            "midi": 53,
            "name": "F3",
            "ticks": 329280,
            "time": 195.999804,
            "velocity": 0.5511811023622047
          },
          {
            "duration": 0.0857142000000124,
            "durationTicks": 144,
            "midi": 51,
            "name": "D#3",
            "ticks": 329520,
            "time": 196.142661,
            "velocity": 0.5511811023622047
          },
          {
            "duration": 0.08571419999998398,
            "durationTicks": 144,
            "midi": 50,
            "name": "D3",
            "ticks": 329760,
            "time": 196.28551800000002,
            "velocity": 0.5511811023622047
          },
          {
            "duration": 0.08571419999998398,
            "durationTicks": 144,
            "midi": 48,
            "name": "C3",
            "ticks": 330000,
            "time": 196.42837500000002,
            "velocity": 0.5511811023622047
          },
          {
            "duration": 0.22857120000000464,
            "durationTicks": 384,
            "midi": 46,
            "name": "A#2",
            "ticks": 330240,
            "time": 196.571232,
            "velocity": 0.5511811023622047
          },
          {
            "duration": 0.14285699999999224,
            "durationTicks": 240,
            "midi": 67,
            "name": "G4",
            "ticks": 333600,
            "time": 198.57123,
            "velocity": 0.6299212598425197
          },
          {
            "duration": 0.11428560000001653,
            "durationTicks": 192,
            "midi": 65,
            "name": "F4",
            "ticks": 333840,
            "time": 198.714087,
            "velocity": 0.6299212598425197
          },
          {
            "duration": 0.22857119999997622,
            "durationTicks": 384,
            "midi": 65,
            "name": "F4",
            "ticks": 334080,
            "time": 198.85694400000003,
            "velocity": 0.6299212598425197
          },
          {
            "duration": 0.14285699999999224,
            "durationTicks": 240,
            "midi": 67,
            "name": "G4",
            "ticks": 334560,
            "time": 199.142658,
            "velocity": 0.6299212598425197
          },
          {
            "duration": 0.11428560000001653,
            "durationTicks": 192,
            "midi": 65,
            "name": "F4",
            "ticks": 334800,
            "time": 199.285515,
            "velocity": 0.6299212598425197
          },
          {
            "duration": 0.22857119999997622,
            "durationTicks": 384,
            "midi": 65,
            "name": "F4",
            "ticks": 335040,
            "time": 199.42837200000002,
            "velocity": 0.6299212598425197
          },
          {
            "duration": 0.14285700000002066,
            "durationTicks": 240,
            "midi": 67,
            "name": "G4",
            "ticks": 337440,
            "time": 200.856942,
            "velocity": 0.6299212598425197
          },
          {
            "duration": 0.11428559999998811,
            "durationTicks": 192,
            "midi": 65,
            "name": "F4",
            "ticks": 337680,
            "time": 200.99979900000002,
            "velocity": 0.6299212598425197
          },
          {
            "duration": 0.22857119999997622,
            "durationTicks": 384,
            "midi": 65,
            "name": "F4",
            "ticks": 337920,
            "time": 201.14265600000002,
            "velocity": 0.6299212598425197
          },
          {
            "duration": 0.14285699999999224,
            "durationTicks": 240,
            "midi": 67,
            "name": "G4",
            "ticks": 338400,
            "time": 201.42837000000003,
            "velocity": 0.6299212598425197
          },
          {
            "duration": 0.11428559999998811,
            "durationTicks": 192,
            "midi": 65,
            "name": "F4",
            "ticks": 338640,
            "time": 201.57122700000002,
            "velocity": 0.6299212598425197
          },
          {
            "duration": 0.22857119999997622,
            "durationTicks": 384,
            "midi": 65,
            "name": "F4",
            "ticks": 338880,
            "time": 201.714084,
            "velocity": 0.6299212598425197
          },
          {
            "duration": 0.11428559999998811,
            "durationTicks": 192,
            "midi": 50,
            "name": "D3",
            "ticks": 339840,
            "time": 202.285512,
            "velocity": 0.8267716535433071
          },
          {
            "duration": 0.11428560000001653,
            "durationTicks": 192,
            "midi": 50,
            "name": "D3",
            "ticks": 340080,
            "time": 202.428369,
            "velocity": 0.8267716535433071
          },
          {
            "duration": 0.11428559999998811,
            "durationTicks": 192,
            "midi": 50,
            "name": "D3",
            "ticks": 340320,
            "time": 202.57122600000002,
            "velocity": 0.8267716535433071
          },
          {
            "duration": 0.11428559999998811,
            "durationTicks": 192,
            "midi": 50,
            "name": "D3",
            "ticks": 340560,
            "time": 202.71408300000002,
            "velocity": 0.8267716535433071
          },
          {
            "duration": 0.11428559999998811,
            "durationTicks": 192,
            "midi": 50,
            "name": "D3",
            "ticks": 340800,
            "time": 202.85694,
            "velocity": 0.8267716535433071
          },
          {
            "duration": 0.11428559999998811,
            "durationTicks": 192,
            "midi": 50,
            "name": "D3",
            "ticks": 341040,
            "time": 202.99979700000003,
            "velocity": 0.8267716535433071
          },
          {
            "duration": 0.11428559999998811,
            "durationTicks": 192,
            "midi": 50,
            "name": "D3",
            "ticks": 341280,
            "time": 203.14265400000002,
            "velocity": 0.8267716535433071
          },
          {
            "duration": 0.11428559999998811,
            "durationTicks": 192,
            "midi": 50,
            "name": "D3",
            "ticks": 341520,
            "time": 203.285511,
            "velocity": 0.8267716535433071
          },
          {
            "duration": 0.11428560000001653,
            "durationTicks": 192,
            "midi": 55,
            "name": "G3",
            "ticks": 341760,
            "time": 203.428368,
            "velocity": 0.8267716535433071
          },
          {
            "duration": 0.11428559999998811,
            "durationTicks": 192,
            "midi": 55,
            "name": "G3",
            "ticks": 342000,
            "time": 203.57122500000003,
            "velocity": 0.8267716535433071
          },
          {
            "duration": 0.11428559999998811,
            "durationTicks": 192,
            "midi": 55,
            "name": "G3",
            "ticks": 342240,
            "time": 203.71408200000002,
            "velocity": 0.8267716535433071
          },
          {
            "duration": 0.11428559999998811,
            "durationTicks": 192,
            "midi": 55,
            "name": "G3",
            "ticks": 342480,
            "time": 203.856939,
            "velocity": 0.8267716535433071
          },
          {
            "duration": 0.11428560000001653,
            "durationTicks": 192,
            "midi": 51,
            "name": "D#3",
            "ticks": 342720,
            "time": 203.999796,
            "velocity": 0.8267716535433071
          },
          {
            "duration": 0.11428559999998811,
            "durationTicks": 192,
            "midi": 51,
            "name": "D#3",
            "ticks": 342960,
            "time": 204.14265300000002,
            "velocity": 0.8267716535433071
          },
          {
            "duration": 0.11428559999998811,
            "durationTicks": 192,
            "midi": 51,
            "name": "D#3",
            "ticks": 343200,
            "time": 204.28551000000002,
            "velocity": 0.8267716535433071
          },
          {
            "duration": 0.11428559999998811,
            "durationTicks": 192,
            "midi": 51,
            "name": "D#3",
            "ticks": 343440,
            "time": 204.428367,
            "velocity": 0.8267716535433071
          },
          {
            "duration": 0.11428559999998811,
            "durationTicks": 192,
            "midi": 53,
            "name": "F3",
            "ticks": 343680,
            "time": 204.57122400000003,
            "velocity": 0.8267716535433071
          },
          {
            "duration": 0.11428559999998811,
            "durationTicks": 192,
            "midi": 53,
            "name": "F3",
            "ticks": 343920,
            "time": 204.71408100000002,
            "velocity": 0.8267716535433071
          },
          {
            "duration": 0.11428559999998811,
            "durationTicks": 192,
            "midi": 53,
            "name": "F3",
            "ticks": 344160,
            "time": 204.856938,
            "velocity": 0.8267716535433071
          },
          {
            "duration": 0.11428560000001653,
            "durationTicks": 192,
            "midi": 53,
            "name": "F3",
            "ticks": 344400,
            "time": 204.999795,
            "velocity": 0.8267716535433071
          },
          {
            "duration": 0.11428559999998811,
            "durationTicks": 192,
            "midi": 41,
            "name": "F2",
            "ticks": 344640,
            "time": 205.14265200000003,
            "velocity": 0.8267716535433071
          },
          {
            "duration": 0.11428559999998811,
            "durationTicks": 192,
            "midi": 41,
            "name": "F2",
            "ticks": 344880,
            "time": 205.28550900000002,
            "velocity": 0.8267716535433071
          },
          {
            "duration": 0.11428559999998811,
            "durationTicks": 192,
            "midi": 41,
            "name": "F2",
            "ticks": 345120,
            "time": 205.428366,
            "velocity": 0.8267716535433071
          },
          {
            "duration": 0.11428560000001653,
            "durationTicks": 192,
            "midi": 41,
            "name": "F2",
            "ticks": 345360,
            "time": 205.571223,
            "velocity": 0.8267716535433071
          },
          {
            "duration": 0.22857119999997622,
            "durationTicks": 384,
            "midi": 46,
            "name": "A#2",
            "ticks": 345600,
            "time": 205.71408000000002,
            "velocity": 0.7244094488188977
          },
          {
            "duration": 0.14285700000002066,
            "durationTicks": 240,
            "midi": 67,
            "name": "G4",
            "ticks": 347040,
            "time": 206.571222,
            "velocity": 0.6299212598425197
          },
          {
            "duration": 0.11428559999998811,
            "durationTicks": 192,
            "midi": 65,
            "name": "F4",
            "ticks": 347280,
            "time": 206.71407900000003,
            "velocity": 0.6299212598425197
          },
          {
            "duration": 0.22857119999997622,
            "durationTicks": 384,
            "midi": 65,
            "name": "F4",
            "ticks": 347520,
            "time": 206.85693600000002,
            "velocity": 0.6299212598425197
          },
          {
            "duration": 0.14285700000002066,
            "durationTicks": 240,
            "midi": 67,
            "name": "G4",
            "ticks": 348000,
            "time": 207.14265,
            "velocity": 0.6299212598425197
          },
          {
            "duration": 0.11428559999998811,
            "durationTicks": 192,
            "midi": 65,
            "name": "F4",
            "ticks": 348240,
            "time": 207.28550700000002,
            "velocity": 0.6299212598425197
          },
          {
            "duration": 0.22857119999997622,
            "durationTicks": 384,
            "midi": 65,
            "name": "F4",
            "ticks": 348480,
            "time": 207.42836400000002,
            "velocity": 0.6299212598425197
          },
          {
            "duration": 0.14285699999999224,
            "durationTicks": 240,
            "midi": 67,
            "name": "G4",
            "ticks": 350880,
            "time": 208.85693400000002,
            "velocity": 0.6299212598425197
          },
          {
            "duration": 0.11428559999998811,
            "durationTicks": 192,
            "midi": 65,
            "name": "F4",
            "ticks": 351120,
            "time": 208.99979100000002,
            "velocity": 0.6299212598425197
          },
          {
            "duration": 0.22857120000000464,
            "durationTicks": 384,
            "midi": 65,
            "name": "F4",
            "ticks": 351360,
            "time": 209.142648,
            "velocity": 0.6299212598425197
          },
          {
            "duration": 0.14285699999999224,
            "durationTicks": 240,
            "midi": 67,
            "name": "G4",
            "ticks": 351840,
            "time": 209.42836200000002,
            "velocity": 0.6299212598425197
          },
          {
            "duration": 0.11428559999998811,
            "durationTicks": 192,
            "midi": 65,
            "name": "F4",
            "ticks": 352080,
            "time": 209.571219,
            "velocity": 0.6299212598425197
          },
          {
            "duration": 0.22857120000000464,
            "durationTicks": 384,
            "midi": 65,
            "name": "F4",
            "ticks": 352320,
            "time": 209.714076,
            "velocity": 0.6299212598425197
          },
          {
            "duration": 0.11428559999998811,
            "durationTicks": 192,
            "midi": 50,
            "name": "D3",
            "ticks": 355200,
            "time": 211.42836000000003,
            "velocity": 0.8267716535433071
          },
          {
            "duration": 0.11428559999998811,
            "durationTicks": 192,
            "midi": 50,
            "name": "D3",
            "ticks": 355440,
            "time": 211.57121700000002,
            "velocity": 0.8267716535433071
          },
          {
            "duration": 0.11428559999998811,
            "durationTicks": 192,
            "midi": 50,
            "name": "D3",
            "ticks": 355680,
            "time": 211.714074,
            "velocity": 0.8267716535433071
          },
          {
            "duration": 0.11428559999998811,
            "durationTicks": 192,
            "midi": 50,
            "name": "D3",
            "ticks": 355920,
            "time": 211.85693100000003,
            "velocity": 0.8267716535433071
          },
          {
            "duration": 0.11428559999998811,
            "durationTicks": 192,
            "midi": 50,
            "name": "D3",
            "ticks": 356160,
            "time": 211.99978800000002,
            "velocity": 0.8267716535433071
          },
          {
            "duration": 0.11428559999998811,
            "durationTicks": 192,
            "midi": 50,
            "name": "D3",
            "ticks": 356400,
            "time": 212.14264500000002,
            "velocity": 0.8267716535433071
          },
          {
            "duration": 0.11428560000001653,
            "durationTicks": 192,
            "midi": 50,
            "name": "D3",
            "ticks": 356640,
            "time": 212.285502,
            "velocity": 0.8267716535433071
          },
          {
            "duration": 0.11428559999998811,
            "durationTicks": 192,
            "midi": 50,
            "name": "D3",
            "ticks": 356880,
            "time": 212.42835900000003,
            "velocity": 0.8267716535433071
          },
          {
            "duration": 0.11428559999998811,
            "durationTicks": 192,
            "midi": 55,
            "name": "G3",
            "ticks": 357120,
            "time": 212.57121600000002,
            "velocity": 0.8267716535433071
          },
          {
            "duration": 0.11428559999998811,
            "durationTicks": 192,
            "midi": 55,
            "name": "G3",
            "ticks": 357360,
            "time": 212.714073,
            "velocity": 0.8267716535433071
          },
          {
            "duration": 0.11428560000001653,
            "durationTicks": 192,
            "midi": 55,
            "name": "G3",
            "ticks": 357600,
            "time": 212.85693,
            "velocity": 0.8267716535433071
          },
          {
            "duration": 0.11428559999998811,
            "durationTicks": 192,
            "midi": 55,
            "name": "G3",
            "ticks": 357840,
            "time": 212.99978700000003,
            "velocity": 0.8267716535433071
          },
          {
            "duration": 0.11428559999998811,
            "durationTicks": 192,
            "midi": 51,
            "name": "D#3",
            "ticks": 358080,
            "time": 213.14264400000002,
            "velocity": 0.8267716535433071
          },
          {
            "duration": 0.11428559999998811,
            "durationTicks": 192,
            "midi": 51,
            "name": "D#3",
            "ticks": 358320,
            "time": 213.285501,
            "velocity": 0.8267716535433071
          },
          {
            "duration": 0.11428559999998811,
            "durationTicks": 192,
            "midi": 51,
            "name": "D#3",
            "ticks": 358560,
            "time": 213.42835800000003,
            "velocity": 0.8267716535433071
          },
          {
            "duration": 0.11428559999998811,
            "durationTicks": 192,
            "midi": 51,
            "name": "D#3",
            "ticks": 358800,
            "time": 213.57121500000002,
            "velocity": 0.8267716535433071
          },
          {
            "duration": 0.11428559999998811,
            "durationTicks": 192,
            "midi": 53,
            "name": "F3",
            "ticks": 359040,
            "time": 213.71407200000002,
            "velocity": 0.8267716535433071
          },
          {
            "duration": 0.11428560000001653,
            "durationTicks": 192,
            "midi": 53,
            "name": "F3",
            "ticks": 359280,
            "time": 213.856929,
            "velocity": 0.8267716535433071
          },
          {
            "duration": 0.11428559999998811,
            "durationTicks": 192,
            "midi": 53,
            "name": "F3",
            "ticks": 359520,
            "time": 213.99978600000003,
            "velocity": 0.8267716535433071
          },
          {
            "duration": 0.11428559999998811,
            "durationTicks": 192,
            "midi": 53,
            "name": "F3",
            "ticks": 359760,
            "time": 214.14264300000002,
            "velocity": 0.8267716535433071
          },
          {
            "duration": 0.11428559999998811,
            "durationTicks": 192,
            "midi": 41,
            "name": "F2",
            "ticks": 360000,
            "time": 214.2855,
            "velocity": 0.8267716535433071
          },
          {
            "duration": 0.11428560000001653,
            "durationTicks": 192,
            "midi": 41,
            "name": "F2",
            "ticks": 360240,
            "time": 214.428357,
            "velocity": 0.8267716535433071
          },
          {
            "duration": 0.11428559999998811,
            "durationTicks": 192,
            "midi": 41,
            "name": "F2",
            "ticks": 360480,
            "time": 214.57121400000003,
            "velocity": 0.8267716535433071
          },
          {
            "duration": 0.11428559999998811,
            "durationTicks": 192,
            "midi": 41,
            "name": "F2",
            "ticks": 360720,
            "time": 214.71407100000002,
            "velocity": 0.8267716535433071
          },
          {
            "duration": 0.4571424000000093,
            "durationTicks": 768,
            "midi": 46,
            "name": "A#2",
            "ticks": 360960,
            "time": 214.856928,
            "velocity": 0.8267716535433071
          },
          {
            "duration": 0.11428559999998811,
            "durationTicks": 192,
            "midi": 65,
            "name": "F4",
            "ticks": 362640,
            "time": 215.856927,
            "velocity": 0.8267716535433071
          },
          {
            "duration": 0.11428560000001653,
            "durationTicks": 192,
            "midi": 63,
            "name": "D#4",
            "ticks": 362880,
            "time": 215.999784,
            "velocity": 0.8267716535433071
          },
          {
            "duration": 0.11428559999998811,
            "durationTicks": 192,
            "midi": 62,
            "name": "D4",
            "ticks": 363120,
            "time": 216.14264100000003,
            "velocity": 0.8267716535433071
          },
          {
            "duration": 0.11428559999998811,
            "durationTicks": 192,
            "midi": 60,
            "name": "C4",
            "ticks": 363360,
            "time": 216.28549800000002,
            "velocity": 0.8267716535433071
          },
          {
            "duration": 0.11428559999998811,
            "durationTicks": 192,
            "midi": 58,
            "name": "A#3",
            "ticks": 363600,
            "time": 216.428355,
            "velocity": 0.8267716535433071
          },
          {
            "duration": 0.11428559999998811,
            "durationTicks": 192,
            "midi": 57,
            "name": "A3",
            "ticks": 363840,
            "time": 216.57121200000003,
            "velocity": 0.8267716535433071
          },
          {
            "duration": 0.11428559999998811,
            "durationTicks": 192,
            "midi": 55,
            "name": "G3",
            "ticks": 364080,
            "time": 216.71406900000002,
            "velocity": 0.8267716535433071
          },
          {
            "duration": 0.11428559999998811,
            "durationTicks": 192,
            "midi": 53,
            "name": "F3",
            "ticks": 364320,
            "time": 216.85692600000002,
            "velocity": 0.8267716535433071
          },
          {
            "duration": 0.11428560000001653,
            "durationTicks": 192,
            "midi": 51,
            "name": "D#3",
            "ticks": 364560,
            "time": 216.999783,
            "velocity": 0.8267716535433071
          },
          {
            "duration": 0.1999998000000005,
            "durationTicks": 336,
            "midi": 50,
            "name": "D3",
            "ticks": 364800,
            "time": 217.14264000000003,
            "velocity": 0.8267716535433071
          },
          {
            "duration": 0.19999980000002893,
            "durationTicks": 336,
            "midi": 50,
            "name": "D3",
            "ticks": 365280,
            "time": 217.428354,
            "velocity": 0.8267716535433071
          },
          {
            "duration": 0.1999998000000005,
            "durationTicks": 336,
            "midi": 51,
            "name": "D#3",
            "ticks": 365760,
            "time": 217.71406800000003,
            "velocity": 0.8267716535433071
          },
          {
            "duration": 0.19999980000002893,
            "durationTicks": 336,
            "midi": 53,
            "name": "F3",
            "ticks": 366240,
            "time": 217.999782,
            "velocity": 0.8267716535433071
          },
          {
            "duration": 0.11428559999998811,
            "durationTicks": 192,
            "midi": 58,
            "name": "A#3",
            "ticks": 366720,
            "time": 218.28549600000002,
            "velocity": 0.8267716535433071
          },
          {
            "duration": 0.11428559999998811,
            "durationTicks": 192,
            "midi": 53,
            "name": "F3",
            "ticks": 366960,
            "time": 218.42835300000002,
            "velocity": 0.8267716535433071
          },
          {
            "duration": 0.11428560000001653,
            "durationTicks": 192,
            "midi": 62,
            "name": "D4",
            "ticks": 367200,
            "time": 218.57121,
            "velocity": 0.8267716535433071
          },
          {
            "duration": 0.11428559999998811,
            "durationTicks": 192,
            "midi": 60,
            "name": "C4",
            "ticks": 367440,
            "time": 218.71406700000003,
            "velocity": 0.8267716535433071
          },
          {
            "duration": 0.11428559999998811,
            "durationTicks": 192,
            "midi": 58,
            "name": "A#3",
            "ticks": 367680,
            "time": 218.85692400000002,
            "velocity": 0.8267716535433071
          },
          {
            "duration": 0.11428559999998811,
            "durationTicks": 192,
            "midi": 57,
            "name": "A3",
            "ticks": 367920,
            "time": 218.999781,
            "velocity": 0.8267716535433071
          },
          {
            "duration": 0.11428560000001653,
            "durationTicks": 192,
            "midi": 55,
            "name": "G3",
            "ticks": 368160,
            "time": 219.142638,
            "velocity": 0.8267716535433071
          },
          {
            "duration": 0.11428559999998811,
            "durationTicks": 192,
            "midi": 53,
            "name": "F3",
            "ticks": 368400,
            "time": 219.28549500000003,
            "velocity": 0.8267716535433071
          },
          {
            "duration": 0.11428559999998811,
            "durationTicks": 192,
            "midi": 51,
            "name": "D#3",
            "ticks": 368640,
            "time": 219.42835200000002,
            "velocity": 0.8267716535433071
          },
          {
            "duration": 0.11428559999998811,
            "durationTicks": 192,
            "midi": 50,
            "name": "D3",
            "ticks": 368880,
            "time": 219.571209,
            "velocity": 0.8267716535433071
          },
          {
            "duration": 0.11428559999998811,
            "durationTicks": 192,
            "midi": 48,
            "name": "C3",
            "ticks": 369120,
            "time": 219.71406600000003,
            "velocity": 0.8267716535433071
          },
          {
            "duration": 0.11428559999998811,
            "durationTicks": 192,
            "midi": 46,
            "name": "A#2",
            "ticks": 369360,
            "time": 219.85692300000002,
            "velocity": 0.8267716535433071
          },
          {
            "duration": 0.11428559999998811,
            "durationTicks": 192,
            "midi": 45,
            "name": "A2",
            "ticks": 369600,
            "time": 219.99978000000002,
            "velocity": 0.8267716535433071
          },
          {
            "duration": 0.11428560000001653,
            "durationTicks": 192,
            "midi": 48,
            "name": "C3",
            "ticks": 369840,
            "time": 220.142637,
            "velocity": 0.8267716535433071
          },
          {
            "duration": 0.11428559999998811,
            "durationTicks": 192,
            "midi": 53,
            "name": "F3",
            "ticks": 370080,
            "time": 220.28549400000003,
            "velocity": 0.8267716535433071
          },
          {
            "duration": 0.11428559999998811,
            "durationTicks": 192,
            "midi": 51,
            "name": "D#3",
            "ticks": 370320,
            "time": 220.42835100000002,
            "velocity": 0.8267716535433071
          },
          {
            "duration": 0.19999980000002893,
            "durationTicks": 336,
            "midi": 50,
            "name": "D3",
            "ticks": 370560,
            "time": 220.571208,
            "velocity": 0.8267716535433071
          },
          {
            "duration": 0.1999998000000005,
            "durationTicks": 336,
            "midi": 50,
            "name": "D3",
            "ticks": 371040,
            "time": 220.85692200000003,
            "velocity": 0.8267716535433071
          },
          {
            "duration": 0.19999980000002893,
            "durationTicks": 336,
            "midi": 51,
            "name": "D#3",
            "ticks": 371520,
            "time": 221.142636,
            "velocity": 0.8267716535433071
          },
          {
            "duration": 0.1999998000000005,
            "durationTicks": 336,
            "midi": 53,
            "name": "F3",
            "ticks": 372000,
            "time": 221.42835000000002,
            "velocity": 0.8267716535433071
          },
          {
            "duration": 0.19999980000002893,
            "durationTicks": 336,
            "midi": 55,
            "name": "G3",
            "ticks": 372480,
            "time": 221.714064,
            "velocity": 0.8267716535433071
          },
          {
            "duration": 0.1999998000000005,
            "durationTicks": 336,
            "midi": 51,
            "name": "D#3",
            "ticks": 372960,
            "time": 221.99977800000002,
            "velocity": 0.8267716535433071
          },
          {
            "duration": 0.19999980000002893,
            "durationTicks": 336,
            "midi": 53,
            "name": "F3",
            "ticks": 373440,
            "time": 222.285492,
            "velocity": 0.8267716535433071
          },
          {
            "duration": 0.1999998000000005,
            "durationTicks": 336,
            "midi": 41,
            "name": "F2",
            "ticks": 373920,
            "time": 222.57120600000002,
            "velocity": 0.8267716535433071
          },
          {
            "duration": 0.21428549999998836,
            "durationTicks": 360,
            "midi": 46,
            "name": "A#2",
            "ticks": 374400,
            "time": 222.85692000000003,
            "velocity": 0.8267716535433071
          },
          {
            "duration": 0.10714275000000839,
            "durationTicks": 180,
            "midi": 58,
            "name": "A#3",
            "ticks": 374880,
            "time": 223.14263400000002,
            "velocity": 0.8267716535433071
          },
          {
            "duration": 0.10714275000000839,
            "durationTicks": 180,
            "midi": 62,
            "name": "D4",
            "ticks": 374880,
            "time": 223.14263400000002,
            "velocity": 0.8267716535433071
          },
          {
            "duration": 0.10714275000000839,
            "durationTicks": 180,
            "midi": 58,
            "name": "A#3",
            "ticks": 375120,
            "time": 223.285491,
            "velocity": 0.8267716535433071
          },
          {
            "duration": 0.10714275000000839,
            "durationTicks": 180,
            "midi": 62,
            "name": "D4",
            "ticks": 375120,
            "time": 223.285491,
            "velocity": 0.8267716535433071
          },
          {
            "duration": 0.21428549999998836,
            "durationTicks": 360,
            "midi": 60,
            "name": "C4",
            "ticks": 375360,
            "time": 223.42834800000003,
            "velocity": 0.8267716535433071
          },
          {
            "duration": 0.21428549999998836,
            "durationTicks": 360,
            "midi": 63,
            "name": "D#4",
            "ticks": 375360,
            "time": 223.42834800000003,
            "velocity": 0.8267716535433071
          },
          {
            "duration": 0.10714275000000839,
            "durationTicks": 180,
            "midi": 60,
            "name": "C4",
            "ticks": 375840,
            "time": 223.714062,
            "velocity": 0.8267716535433071
          },
          {
            "duration": 0.10714275000000839,
            "durationTicks": 180,
            "midi": 63,
            "name": "D#4",
            "ticks": 375840,
            "time": 223.714062,
            "velocity": 0.8267716535433071
          },
          {
            "duration": 0.10714275000000839,
            "durationTicks": 180,
            "midi": 60,
            "name": "C4",
            "ticks": 376080,
            "time": 223.856919,
            "velocity": 0.8267716535433071
          },
          {
            "duration": 0.10714275000000839,
            "durationTicks": 180,
            "midi": 63,
            "name": "D#4",
            "ticks": 376080,
            "time": 223.856919,
            "velocity": 0.8267716535433071
          },
          {
            "duration": 0.21428549999998836,
            "durationTicks": 360,
            "midi": 58,
            "name": "A#3",
            "ticks": 376320,
            "time": 223.99977600000003,
            "velocity": 0.8267716535433071
          },
          {
            "duration": 0.21428549999998836,
            "durationTicks": 360,
            "midi": 62,
            "name": "D4",
            "ticks": 376320,
            "time": 223.99977600000003,
            "velocity": 0.8267716535433071
          },
          {
            "duration": 0.10714275000000839,
            "durationTicks": 180,
            "midi": 58,
            "name": "A#3",
            "ticks": 376800,
            "time": 224.28549,
            "velocity": 0.8267716535433071
          },
          {
            "duration": 0.10714275000000839,
            "durationTicks": 180,
            "midi": 62,
            "name": "D4",
            "ticks": 376800,
            "time": 224.28549,
            "velocity": 0.8267716535433071
          },
          {
            "duration": 0.10714274999997997,
            "durationTicks": 180,
            "midi": 58,
            "name": "A#3",
            "ticks": 377040,
            "time": 224.42834700000003,
            "velocity": 0.8267716535433071
          },
          {
            "duration": 0.10714274999997997,
            "durationTicks": 180,
            "midi": 62,
            "name": "D4",
            "ticks": 377040,
            "time": 224.42834700000003,
            "velocity": 0.8267716535433071
          },
          {
            "duration": 0.21428549999998836,
            "durationTicks": 360,
            "midi": 60,
            "name": "C4",
            "ticks": 377280,
            "time": 224.57120400000002,
            "velocity": 0.8267716535433071
          },
          {
            "duration": 0.21428549999998836,
            "durationTicks": 360,
            "midi": 63,
            "name": "D#4",
            "ticks": 377280,
            "time": 224.57120400000002,
            "velocity": 0.8267716535433071
          },
          {
            "duration": 0.10714275000000839,
            "durationTicks": 180,
            "midi": 60,
            "name": "C4",
            "ticks": 377760,
            "time": 224.856918,
            "velocity": 0.8267716535433071
          },
          {
            "duration": 0.10714275000000839,
            "durationTicks": 180,
            "midi": 63,
            "name": "D#4",
            "ticks": 377760,
            "time": 224.856918,
            "velocity": 0.8267716535433071
          },
          {
            "duration": 0.10714274999997997,
            "durationTicks": 180,
            "midi": 60,
            "name": "C4",
            "ticks": 378000,
            "time": 224.99977500000003,
            "velocity": 0.8267716535433071
          },
          {
            "duration": 0.10714274999997997,
            "durationTicks": 180,
            "midi": 63,
            "name": "D#4",
            "ticks": 378000,
            "time": 224.99977500000003,
            "velocity": 0.8267716535433071
          },
          {
            "duration": 0.21428549999998836,
            "durationTicks": 360,
            "midi": 58,
            "name": "A#3",
            "ticks": 378240,
            "time": 225.14263200000002,
            "velocity": 0.8267716535433071
          },
          {
            "duration": 0.21428549999998836,
            "durationTicks": 360,
            "midi": 62,
            "name": "D4",
            "ticks": 378240,
            "time": 225.14263200000002,
            "velocity": 0.8267716535433071
          },
          {
            "duration": 0.10714275000000839,
            "durationTicks": 180,
            "midi": 58,
            "name": "A#3",
            "ticks": 378720,
            "time": 225.428346,
            "velocity": 0.8267716535433071
          },
          {
            "duration": 0.10714275000000839,
            "durationTicks": 180,
            "midi": 62,
            "name": "D4",
            "ticks": 378720,
            "time": 225.428346,
            "velocity": 0.8267716535433071
          },
          {
            "duration": 0.10714274999997997,
            "durationTicks": 180,
            "midi": 58,
            "name": "A#3",
            "ticks": 378960,
            "time": 225.57120300000003,
            "velocity": 0.8267716535433071
          },
          {
            "duration": 0.10714274999997997,
            "durationTicks": 180,
            "midi": 62,
            "name": "D4",
            "ticks": 378960,
            "time": 225.57120300000003,
            "velocity": 0.8267716535433071
          },
          {
            "duration": 0.21428549999998836,
            "durationTicks": 360,
            "midi": 60,
            "name": "C4",
            "ticks": 379200,
            "time": 225.71406000000002,
            "velocity": 0.8267716535433071
          },
          {
            "duration": 0.21428549999998836,
            "durationTicks": 360,
            "midi": 63,
            "name": "D#4",
            "ticks": 379200,
            "time": 225.71406000000002,
            "velocity": 0.8267716535433071
          },
          {
            "duration": 0.10714274999997997,
            "durationTicks": 180,
            "midi": 60,
            "name": "C4",
            "ticks": 379680,
            "time": 225.99977400000003,
            "velocity": 0.8267716535433071
          },
          {
            "duration": 0.10714274999997997,
            "durationTicks": 180,
            "midi": 63,
            "name": "D#4",
            "ticks": 379680,
            "time": 225.99977400000003,
            "velocity": 0.8267716535433071
          },
          {
            "duration": 0.10714275000000839,
            "durationTicks": 180,
            "midi": 60,
            "name": "C4",
            "ticks": 379920,
            "time": 226.14263100000002,
            "velocity": 0.8267716535433071
          },
          {
            "duration": 0.10714275000000839,
            "durationTicks": 180,
            "midi": 63,
            "name": "D#4",
            "ticks": 379920,
            "time": 226.14263100000002,
            "velocity": 0.8267716535433071
          },
          {
            "duration": 0.21428550000001678,
            "durationTicks": 360,
            "midi": 58,
            "name": "A#3",
            "ticks": 380160,
            "time": 226.28548800000002,
            "velocity": 0.8267716535433071
          },
          {
            "duration": 0.21428550000001678,
            "durationTicks": 360,
            "midi": 62,
            "name": "D4",
            "ticks": 380160,
            "time": 226.28548800000002,
            "velocity": 0.8267716535433071
          },
          {
            "duration": 0.21428549999998836,
            "durationTicks": 360,
            "midi": 60,
            "name": "C4",
            "ticks": 380640,
            "time": 226.57120200000003,
            "velocity": 0.8267716535433071
          },
          {
            "duration": 0.21428549999998836,
            "durationTicks": 360,
            "midi": 63,
            "name": "D#4",
            "ticks": 380640,
            "time": 226.57120200000003,
            "velocity": 0.8267716535433071
          },
          {
            "duration": 0.21428550000001678,
            "durationTicks": 360,
            "midi": 58,
            "name": "A#3",
            "ticks": 381120,
            "time": 226.856916,
            "velocity": 0.8267716535433071
          },
          {
            "duration": 0.21428550000001678,
            "durationTicks": 360,
            "midi": 62,
            "name": "D4",
            "ticks": 381120,
            "time": 226.856916,
            "velocity": 0.8267716535433071
          },
          {
            "duration": 0.21428549999998836,
            "durationTicks": 360,
            "midi": 60,
            "name": "C4",
            "ticks": 381600,
            "time": 227.14263000000003,
            "velocity": 0.8267716535433071
          },
          {
            "duration": 0.21428549999998836,
            "durationTicks": 360,
            "midi": 63,
            "name": "D#4",
            "ticks": 381600,
            "time": 227.14263000000003,
            "velocity": 0.8267716535433071
          },
          {
            "duration": 0.22857120000000464,
            "durationTicks": 384,
            "midi": 58,
            "name": "A#3",
            "ticks": 382080,
            "time": 227.428344,
            "velocity": 0.8267716535433071
          },
          {
            "duration": 0.22857120000000464,
            "durationTicks": 384,
            "midi": 62,
            "name": "D4",
            "ticks": 382080,
            "time": 227.428344,
            "velocity": 0.8267716535433071
          },
          {
            "duration": 0.22857119999997622,
            "durationTicks": 384,
            "midi": 57,
            "name": "A3",
            "ticks": 384000,
            "time": 228.57120000000003,
            "velocity": 0.8267716535433071
          },
          {
            "duration": 0.22857119999997622,
            "durationTicks": 384,
            "midi": 55,
            "name": "G3",
            "ticks": 385920,
            "time": 229.71405600000003,
            "velocity": 0.8267716535433071
          },
          {
            "duration": 0.22857119999997622,
            "durationTicks": 384,
            "midi": 53,
            "name": "F3",
            "ticks": 386880,
            "time": 230.28548400000003,
            "velocity": 0.8267716535433071
          },
          {
            "duration": 1.1428559999999948,
            "durationTicks": 1920,
            "midi": 59,
            "name": "B3",
            "ticks": 387840,
            "time": 230.85691200000002,
            "velocity": 0.5511811023622047
          },
          {
            "duration": 1.1428559999999948,
            "durationTicks": 1920,
            "midi": 62,
            "name": "D4",
            "ticks": 387840,
            "time": 230.85691200000002,
            "velocity": 0.5511811023622047
          },
          {
            "duration": 0.5714279999999974,
            "durationTicks": 960,
            "midi": 57,
            "name": "A3",
            "ticks": 389760,
            "time": 231.99976800000002,
            "velocity": 0.5511811023622047
          },
          {
            "duration": 0.5714279999999974,
            "durationTicks": 960,
            "midi": 61,
            "name": "C#4",
            "ticks": 389760,
            "time": 231.99976800000002,
            "velocity": 0.5511811023622047
          },
          {
            "duration": 0.5714279999999974,
            "durationTicks": 960,
            "midi": 56,
            "name": "G#3",
            "ticks": 390720,
            "time": 232.57119600000001,
            "velocity": 0.5511811023622047
          },
          {
            "duration": 0.5714279999999974,
            "durationTicks": 960,
            "midi": 59,
            "name": "B3",
            "ticks": 390720,
            "time": 232.57119600000001,
            "velocity": 0.5511811023622047
          },
          {
            "duration": 0.5714279999999974,
            "durationTicks": 960,
            "midi": 54,
            "name": "F#3",
            "ticks": 391680,
            "time": 233.142624,
            "velocity": 0.5511811023622047
          },
          {
            "duration": 0.5714279999999974,
            "durationTicks": 960,
            "midi": 57,
            "name": "A3",
            "ticks": 391680,
            "time": 233.142624,
            "velocity": 0.5511811023622047
          },
          {
            "duration": 0.5714279999999974,
            "durationTicks": 960,
            "midi": 53,
            "name": "F3",
            "ticks": 392640,
            "time": 233.714052,
            "velocity": 0.5511811023622047
          },
          {
            "duration": 0.5714279999999974,
            "durationTicks": 960,
            "midi": 56,
            "name": "G#3",
            "ticks": 392640,
            "time": 233.714052,
            "velocity": 0.5511811023622047
          },
          {
            "duration": 0.22857120000000464,
            "durationTicks": 384,
            "midi": 54,
            "name": "F#3",
            "ticks": 393600,
            "time": 234.28548,
            "velocity": 0.4566929133858268
          },
          {
            "duration": 2.0571408000000133,
            "durationTicks": 3456,
            "midi": 54,
            "name": "F#3",
            "ticks": 397440,
            "time": 236.57119200000002,
            "velocity": 0.5511811023622047
          },
          {
            "duration": 1.1428559999999948,
            "durationTicks": 1920,
            "midi": 63,
            "name": "D#4",
            "ticks": 397440,
            "time": 236.57119200000002,
            "velocity": 0.5511811023622047
          },
          {
            "duration": 0.9142848000000185,
            "durationTicks": 1536,
            "midi": 62,
            "name": "D4",
            "ticks": 399360,
            "time": 237.71404800000002,
            "velocity": 0.5511811023622047
          },
          {
            "duration": 2.285712000000018,
            "durationTicks": 3840,
            "midi": 53,
            "name": "F3",
            "ticks": 401280,
            "time": 238.85690400000001,
            "velocity": 0.5511811023622047
          },
          {
            "duration": 3.3714252000000045,
            "durationTicks": 5664,
            "midi": 61,
            "name": "C#4",
            "ticks": 401280,
            "time": 238.85690400000001,
            "velocity": 0.5511811023622047
          },
          {
            "duration": 2.2285691999999813,
            "durationTicks": 3744,
            "midi": 52,
            "name": "E3",
            "ticks": 405120,
            "time": 241.14261600000003,
            "velocity": 0.5511811023622047
          },
          {
            "duration": 1.0857131999999865,
            "durationTicks": 1824,
            "midi": 60,
            "name": "C4",
            "ticks": 407040,
            "time": 242.28547200000003,
            "velocity": 0.5511811023622047
          },
          {
            "duration": 1.957140900000013,
            "durationTicks": 3288,
            "midi": 51,
            "name": "D#3",
            "ticks": 408960,
            "time": 243.42832800000002,
            "velocity": 0.5511811023622047
          },
          {
            "duration": 1.957140900000013,
            "durationTicks": 3288,
            "midi": 59,
            "name": "B3",
            "ticks": 408960,
            "time": 243.42832800000002,
            "velocity": 0.5511811023622047
          },
          {
            "duration": 0.14285699999999224,
            "durationTicks": 240,
            "midi": 60,
            "name": "C4",
            "ticks": 412320,
            "time": 245.42832600000003,
            "velocity": 0.5511811023622047
          },
          {
            "duration": 0.11428559999998811,
            "durationTicks": 192,
            "midi": 59,
            "name": "B3",
            "ticks": 412560,
            "time": 245.57118300000002,
            "velocity": 0.8267716535433071
          },
          {
            "duration": 0.22857120000000464,
            "durationTicks": 384,
            "midi": 59,
            "name": "B3",
            "ticks": 412800,
            "time": 245.71404,
            "velocity": 0.8267716535433071
          },
          {
            "duration": 0.14285699999999224,
            "durationTicks": 240,
            "midi": 60,
            "name": "C4",
            "ticks": 413280,
            "time": 245.99975400000002,
            "velocity": 0.8267716535433071
          },
          {
            "duration": 0.11428559999998811,
            "durationTicks": 192,
            "midi": 59,
            "name": "B3",
            "ticks": 413520,
            "time": 246.14261100000002,
            "velocity": 0.8267716535433071
          },
          {
            "duration": 0.22857120000000464,
            "durationTicks": 384,
            "midi": 59,
            "name": "B3",
            "ticks": 413760,
            "time": 246.285468,
            "velocity": 0.8267716535433071
          },
          {
            "duration": 0.14285699999999224,
            "durationTicks": 240,
            "midi": 60,
            "name": "C4",
            "ticks": 414240,
            "time": 246.57118200000002,
            "velocity": 0.8267716535433071
          },
          {
            "duration": 0.11428559999998811,
            "durationTicks": 192,
            "midi": 59,
            "name": "B3",
            "ticks": 414480,
            "time": 246.714039,
            "velocity": 0.8267716535433071
          },
          {
            "duration": 0.2857140000000129,
            "durationTicks": 480,
            "midi": 59,
            "name": "B3",
            "ticks": 414720,
            "time": 246.856896,
            "velocity": 0.8267716535433071
          },
          {
            "duration": 0.22857119999997622,
            "durationTicks": 384,
            "midi": 67,
            "name": "G4",
            "ticks": 415200,
            "time": 247.14261000000002,
            "velocity": 0.8267716535433071
          },
          {
            "duration": 0.14285699999999224,
            "durationTicks": 240,
            "midi": 67,
            "name": "G4",
            "ticks": 416160,
            "time": 247.71403800000002,
            "velocity": 0.8267716535433071
          },
          {
            "duration": 0.11428560000001653,
            "durationTicks": 192,
            "midi": 66,
            "name": "F#4",
            "ticks": 416400,
            "time": 247.856895,
            "velocity": 0.8267716535433071
          },
          {
            "duration": 0.22857119999997622,
            "durationTicks": 384,
            "midi": 64,
            "name": "E4",
            "ticks": 416640,
            "time": 247.99975200000003,
            "velocity": 0.8267716535433071
          },
          {
            "duration": 0.14285700000002066,
            "durationTicks": 240,
            "midi": 64,
            "name": "E4",
            "ticks": 417120,
            "time": 248.285466,
            "velocity": 0.8267716535433071
          },
          {
            "duration": 0.11428559999998811,
            "durationTicks": 192,
            "midi": 62,
            "name": "D4",
            "ticks": 417360,
            "time": 248.42832300000003,
            "velocity": 0.8267716535433071
          },
          {
            "duration": 0.22857119999997622,
            "durationTicks": 384,
            "midi": 60,
            "name": "C4",
            "ticks": 417600,
            "time": 248.57118000000003,
            "velocity": 0.8267716535433071
          },
          {
            "duration": 0.14285700000002066,
            "durationTicks": 240,
            "midi": 60,
            "name": "C4",
            "ticks": 418080,
            "time": 248.856894,
            "velocity": 0.8267716535433071
          },
          {
            "duration": 0.11428559999998811,
            "durationTicks": 192,
            "midi": 59,
            "name": "B3",
            "ticks": 418320,
            "time": 248.99975100000003,
            "velocity": 0.8267716535433071
          },
          {
            "duration": 0.08571419999998398,
            "durationTicks": 144,
            "midi": 57,
            "name": "A3",
            "ticks": 418560,
            "time": 249.14260800000002,
            "velocity": 0.8267716535433071
          },
          {
            "duration": 0.08571419999998398,
            "durationTicks": 144,
            "midi": 59,
            "name": "B3",
            "ticks": 418800,
            "time": 249.28546500000002,
            "velocity": 0.8267716535433071
          },
          {
            "duration": 0.0857142000000124,
            "durationTicks": 144,
            "midi": 60,
            "name": "C4",
            "ticks": 419040,
            "time": 249.428322,
            "velocity": 0.8267716535433071
          },
          {
            "duration": 0.08571419999998398,
            "durationTicks": 144,
            "midi": 59,
            "name": "B3",
            "ticks": 419280,
            "time": 249.57117900000003,
            "velocity": 0.8267716535433071
          },
          {
            "duration": 0.08571419999998398,
            "durationTicks": 144,
            "midi": 57,
            "name": "A3",
            "ticks": 419520,
            "time": 249.71403600000002,
            "velocity": 0.8267716535433071
          },
          {
            "duration": 0.08571419999998398,
            "durationTicks": 144,
            "midi": 58,
            "name": "A#3",
            "ticks": 419760,
            "time": 249.856893,
            "velocity": 0.8267716535433071
          },
          {
            "duration": 0.08571419999998398,
            "durationTicks": 144,
            "midi": 55,
            "name": "G3",
            "ticks": 420000,
            "time": 249.99975000000003,
            "velocity": 0.8267716535433071
          },
          {
            "duration": 0.08571419999998398,
            "durationTicks": 144,
            "midi": 57,
            "name": "A3",
            "ticks": 420240,
            "time": 250.14260700000003,
            "velocity": 0.8267716535433071
          },
          {
            "duration": 0.08571419999998398,
            "durationTicks": 144,
            "midi": 53,
            "name": "F3",
            "ticks": 420480,
            "time": 250.28546400000002,
            "velocity": 0.8267716535433071
          },
          {
            "duration": 0.08571419999998398,
            "durationTicks": 144,
            "midi": 57,
            "name": "A3",
            "ticks": 420720,
            "time": 250.428321,
            "velocity": 0.8267716535433071
          },
          {
            "duration": 0.08571419999998398,
            "durationTicks": 144,
            "midi": 62,
            "name": "D4",
            "ticks": 420960,
            "time": 250.57117800000003,
            "velocity": 0.8267716535433071
          },
          {
            "duration": 0.08571419999998398,
            "durationTicks": 144,
            "midi": 53,
            "name": "F3",
            "ticks": 421200,
            "time": 250.71403500000002,
            "velocity": 0.8267716535433071
          },
          {
            "duration": 0.08571419999998398,
            "durationTicks": 144,
            "midi": 52,
            "name": "E3",
            "ticks": 421440,
            "time": 250.85689200000002,
            "velocity": 0.8267716535433071
          },
          {
            "duration": 0.0857142000000124,
            "durationTicks": 144,
            "midi": 55,
            "name": "G3",
            "ticks": 421680,
            "time": 250.999749,
            "velocity": 0.8267716535433071
          },
          {
            "duration": 0.08571419999998398,
            "durationTicks": 144,
            "midi": 61,
            "name": "C#4",
            "ticks": 421920,
            "time": 251.14260600000003,
            "velocity": 0.8267716535433071
          },
          {
            "duration": 0.08571419999998398,
            "durationTicks": 144,
            "midi": 52,
            "name": "E3",
            "ticks": 422160,
            "time": 251.28546300000002,
            "velocity": 0.8267716535433071
          },
          {
            "duration": 0.08571419999998398,
            "durationTicks": 144,
            "midi": 50,
            "name": "D3",
            "ticks": 422400,
            "time": 251.42832,
            "velocity": 0.8267716535433071
          },
          {
            "duration": 0.08571419999998398,
            "durationTicks": 144,
            "midi": 45,
            "name": "A2",
            "ticks": 422640,
            "time": 251.57117700000003,
            "velocity": 0.8267716535433071
          },
          {
            "duration": 0.08571419999998398,
            "durationTicks": 144,
            "midi": 47,
            "name": "B2",
            "ticks": 422880,
            "time": 251.71403400000003,
            "velocity": 0.8267716535433071
          },
          {
            "duration": 0.08571419999998398,
            "durationTicks": 144,
            "midi": 49,
            "name": "C#3",
            "ticks": 423120,
            "time": 251.85689100000002,
            "velocity": 0.8267716535433071
          },
          {
            "duration": 0.08571419999998398,
            "durationTicks": 144,
            "midi": 50,
            "name": "D3",
            "ticks": 423360,
            "time": 251.999748,
            "velocity": 0.8267716535433071
          },
          {
            "duration": 0.08571419999998398,
            "durationTicks": 144,
            "midi": 45,
            "name": "A2",
            "ticks": 423600,
            "time": 252.14260500000003,
            "velocity": 0.8267716535433071
          },
          {
            "duration": 0.08571419999998398,
            "durationTicks": 144,
            "midi": 50,
            "name": "D3",
            "ticks": 423840,
            "time": 252.28546200000002,
            "velocity": 0.8267716535433071
          },
          {
            "duration": 0.08571419999998398,
            "durationTicks": 144,
            "midi": 52,
            "name": "E3",
            "ticks": 424080,
            "time": 252.42831900000002,
            "velocity": 0.8267716535433071
          },
          {
            "duration": 0.0857142000000124,
            "durationTicks": 144,
            "midi": 53,
            "name": "F3",
            "ticks": 424320,
            "time": 252.571176,
            "velocity": 0.8267716535433071
          },
          {
            "duration": 0.08571419999998398,
            "durationTicks": 144,
            "midi": 50,
            "name": "D3",
            "ticks": 424560,
            "time": 252.71403300000003,
            "velocity": 0.8267716535433071
          },
          {
            "duration": 0.08571419999998398,
            "durationTicks": 144,
            "midi": 52,
            "name": "E3",
            "ticks": 424800,
            "time": 252.85689000000002,
            "velocity": 0.8267716535433071
          },
          {
            "duration": 0.08571419999998398,
            "durationTicks": 144,
            "midi": 54,
            "name": "F#3",
            "ticks": 425040,
            "time": 252.999747,
            "velocity": 0.8267716535433071
          },
          {
            "duration": 0.08571419999998398,
            "durationTicks": 144,
            "midi": 55,
            "name": "G3",
            "ticks": 425280,
            "time": 253.14260400000003,
            "velocity": 0.8267716535433071
          },
          {
            "duration": 0.08571419999998398,
            "durationTicks": 144,
            "midi": 50,
            "name": "D3",
            "ticks": 425520,
            "time": 253.28546100000003,
            "velocity": 0.8267716535433071
          },
          {
            "duration": 0.08571419999998398,
            "durationTicks": 144,
            "midi": 54,
            "name": "F#3",
            "ticks": 425760,
            "time": 253.42831800000002,
            "velocity": 0.8267716535433071
          },
          {
            "duration": 0.08571419999998398,
            "durationTicks": 144,
            "midi": 57,
            "name": "A3",
            "ticks": 426000,
            "time": 253.571175,
            "velocity": 0.8267716535433071
          },
          {
            "duration": 0.22857119999997622,
            "durationTicks": 384,
            "midi": 58,
            "name": "A#3",
            "ticks": 426240,
            "time": 253.71403200000003,
            "velocity": 0.8267716535433071
          },
          {
            "duration": 0.22857120000000464,
            "durationTicks": 384,
            "midi": 43,
            "name": "G2",
            "ticks": 426720,
            "time": 253.99974600000002,
            "velocity": 0.8267716535433071
          },
          {
            "duration": 0.14285700000002066,
            "durationTicks": 240,
            "midi": 57,
            "name": "A3",
            "ticks": 427680,
            "time": 254.571174,
            "velocity": 0.8267716535433071
          },
          {
            "duration": 0.11428559999998811,
            "durationTicks": 192,
            "midi": 55,
            "name": "G3",
            "ticks": 427920,
            "time": 254.71403100000003,
            "velocity": 0.8267716535433071
          },
          {
            "duration": 0.22857119999997622,
            "durationTicks": 384,
            "midi": 55,
            "name": "G3",
            "ticks": 428160,
            "time": 254.85688800000003,
            "velocity": 0.8267716535433071
          },
          {
            "duration": 0.14285700000002066,
            "durationTicks": 240,
            "midi": 57,
            "name": "A3",
            "ticks": 428640,
            "time": 255.142602,
            "velocity": 0.8267716535433071
          },
          {
            "duration": 0.11428559999998811,
            "durationTicks": 192,
            "midi": 55,
            "name": "G3",
            "ticks": 428880,
            "time": 255.28545900000003,
            "velocity": 0.8267716535433071
          },
          {
            "duration": 0.22857119999997622,
            "durationTicks": 384,
            "midi": 55,
            "name": "G3",
            "ticks": 429120,
            "time": 255.42831600000002,
            "velocity": 0.8267716535433071
          },
          {
            "duration": 0.14285700000002066,
            "durationTicks": 240,
            "midi": 57,
            "name": "A3",
            "ticks": 429600,
            "time": 255.71403,
            "velocity": 0.8267716535433071
          },
          {
            "duration": 0.11428559999998811,
            "durationTicks": 192,
            "midi": 55,
            "name": "G3",
            "ticks": 429840,
            "time": 255.85688700000003,
            "velocity": 0.8267716535433071
          },
          {
            "duration": 0.2857139999999845,
            "durationTicks": 480,
            "midi": 55,
            "name": "G3",
            "ticks": 430080,
            "time": 255.99974400000002,
            "velocity": 0.8267716535433071
          },
          {
            "duration": 0.22857119999997622,
            "durationTicks": 384,
            "midi": 64,
            "name": "E4",
            "ticks": 430560,
            "time": 256.285458,
            "velocity": 0.8267716535433071
          },
          {
            "duration": 0.14285699999999224,
            "durationTicks": 240,
            "midi": 64,
            "name": "E4",
            "ticks": 431520,
            "time": 256.85688600000003,
            "velocity": 0.8267716535433071
          },
          {
            "duration": 0.11428560000001653,
            "durationTicks": 192,
            "midi": 62,
            "name": "D4",
            "ticks": 431760,
            "time": 256.999743,
            "velocity": 0.8267716535433071
          },
          {
            "duration": 0.22857119999997622,
            "durationTicks": 384,
            "midi": 60,
            "name": "C4",
            "ticks": 432000,
            "time": 257.1426,
            "velocity": 0.8267716535433071
          },
          {
            "duration": 0.14285700000004908,
            "durationTicks": 240,
            "midi": 60,
            "name": "C4",
            "ticks": 432480,
            "time": 257.428314,
            "velocity": 0.8267716535433071
          },
          {
            "duration": 0.11428559999995969,
            "durationTicks": 192,
            "midi": 58,
            "name": "A#3",
            "ticks": 432720,
            "time": 257.57117100000005,
            "velocity": 0.8267716535433071
          },
          {
            "duration": 0.22857119999997622,
            "durationTicks": 384,
            "midi": 57,
            "name": "A3",
            "ticks": 432960,
            "time": 257.71402800000004,
            "velocity": 0.8267716535433071
          },
          {
            "duration": 0.14285699999999224,
            "durationTicks": 240,
            "midi": 57,
            "name": "A3",
            "ticks": 433440,
            "time": 257.999742,
            "velocity": 0.8267716535433071
          },
          {
            "duration": 0.11428560000001653,
            "durationTicks": 192,
            "midi": 55,
            "name": "G3",
            "ticks": 433680,
            "time": 258.142599,
            "velocity": 0.8267716535433071
          },
          {
            "duration": 0.08571419999998398,
            "durationTicks": 144,
            "midi": 53,
            "name": "F3",
            "ticks": 433920,
            "time": 258.285456,
            "velocity": 0.8267716535433071
          },
          {
            "duration": 0.08571419999998398,
            "durationTicks": 144,
            "midi": 55,
            "name": "G3",
            "ticks": 434160,
            "time": 258.428313,
            "velocity": 0.8267716535433071
          },
          {
            "duration": 0.08571420000004082,
            "durationTicks": 144,
            "midi": 57,
            "name": "A3",
            "ticks": 434400,
            "time": 258.57117,
            "velocity": 0.8267716535433071
          },
          {
            "duration": 0.08571419999998398,
            "durationTicks": 144,
            "midi": 55,
            "name": "G3",
            "ticks": 434640,
            "time": 258.71402700000004,
            "velocity": 0.8267716535433071
          },
          {
            "duration": 0.08571419999998398,
            "durationTicks": 144,
            "midi": 53,
            "name": "F3",
            "ticks": 434880,
            "time": 258.85688400000004,
            "velocity": 0.8267716535433071
          },
          {
            "duration": 0.08571419999998398,
            "durationTicks": 144,
            "midi": 55,
            "name": "G3",
            "ticks": 435120,
            "time": 258.99974100000003,
            "velocity": 0.8267716535433071
          },
          {
            "duration": 0.08571419999998398,
            "durationTicks": 144,
            "midi": 51,
            "name": "D#3",
            "ticks": 435360,
            "time": 259.142598,
            "velocity": 0.8267716535433071
          },
          {
            "duration": 0.08571419999998398,
            "durationTicks": 144,
            "midi": 53,
            "name": "F3",
            "ticks": 435600,
            "time": 259.285455,
            "velocity": 0.8267716535433071
          },
          {
            "duration": 0.08571419999998398,
            "durationTicks": 144,
            "midi": 50,
            "name": "D3",
            "ticks": 435840,
            "time": 259.428312,
            "velocity": 0.8267716535433071
          },
          {
            "duration": 0.08571419999998398,
            "durationTicks": 144,
            "midi": 53,
            "name": "F3",
            "ticks": 436080,
            "time": 259.571169,
            "velocity": 0.8267716535433071
          },
          {
            "duration": 0.08571419999998398,
            "durationTicks": 144,
            "midi": 58,
            "name": "A#3",
            "ticks": 436320,
            "time": 259.71402600000005,
            "velocity": 0.8267716535433071
          },
          {
            "duration": 0.08571419999998398,
            "durationTicks": 144,
            "midi": 50,
            "name": "D3",
            "ticks": 436560,
            "time": 259.85688300000004,
            "velocity": 0.8267716535433071
          },
          {
            "duration": 0.08571419999998398,
            "durationTicks": 144,
            "midi": 48,
            "name": "C3",
            "ticks": 436800,
            "time": 259.99974000000003,
            "velocity": 0.8267716535433071
          },
          {
            "duration": 0.08571419999998398,
            "durationTicks": 144,
            "midi": 51,
            "name": "D#3",
            "ticks": 437040,
            "time": 260.142597,
            "velocity": 0.8267716535433071
          },
          {
            "duration": 0.08571419999998398,
            "durationTicks": 144,
            "midi": 57,
            "name": "A3",
            "ticks": 437280,
            "time": 260.285454,
            "velocity": 0.8267716535433071
          },
          {
            "duration": 0.08571419999998398,
            "durationTicks": 144,
            "midi": 48,
            "name": "C3",
            "ticks": 437520,
            "time": 260.428311,
            "velocity": 0.8267716535433071
          },
          {
            "duration": 0.08571419999998398,
            "durationTicks": 144,
            "midi": 46,
            "name": "A#2",
            "ticks": 437760,
            "time": 260.571168,
            "velocity": 0.8267716535433071
          },
          {
            "duration": 0.08571419999998398,
            "durationTicks": 144,
            "midi": 41,
            "name": "F2",
            "ticks": 438000,
            "time": 260.71402500000005,
            "velocity": 0.8267716535433071
          },
          {
            "duration": 0.08571419999998398,
            "durationTicks": 144,
            "midi": 43,
            "name": "G2",
            "ticks": 438240,
            "time": 260.85688200000004,
            "velocity": 0.8267716535433071
          },
          {
            "duration": 0.08571419999998398,
            "durationTicks": 144,
            "midi": 45,
            "name": "A2",
            "ticks": 438480,
            "time": 260.99973900000003,
            "velocity": 0.8267716535433071
          },
          {
            "duration": 0.08571419999998398,
            "durationTicks": 144,
            "midi": 46,
            "name": "A#2",
            "ticks": 438720,
            "time": 261.142596,
            "velocity": 0.8267716535433071
          },
          {
            "duration": 0.08571419999998398,
            "durationTicks": 144,
            "midi": 45,
            "name": "A2",
            "ticks": 438960,
            "time": 261.285453,
            "velocity": 0.8267716535433071
          },
          {
            "duration": 0.08571419999998398,
            "durationTicks": 144,
            "midi": 46,
            "name": "A#2",
            "ticks": 439200,
            "time": 261.42831,
            "velocity": 0.8267716535433071
          },
          {
            "duration": 0.08571419999998398,
            "durationTicks": 144,
            "midi": 48,
            "name": "C3",
            "ticks": 439440,
            "time": 261.571167,
            "velocity": 0.8267716535433071
          },
          {
            "duration": 0.08571420000004082,
            "durationTicks": 144,
            "midi": 50,
            "name": "D3",
            "ticks": 439680,
            "time": 261.714024,
            "velocity": 0.8267716535433071
          },
          {
            "duration": 0.08571419999998398,
            "durationTicks": 144,
            "midi": 46,
            "name": "A#2",
            "ticks": 439920,
            "time": 261.85688100000004,
            "velocity": 0.8267716535433071
          },
          {
            "duration": 0.08571419999998398,
            "durationTicks": 144,
            "midi": 48,
            "name": "C3",
            "ticks": 440160,
            "time": 261.99973800000004,
            "velocity": 0.8267716535433071
          },
          {
            "duration": 0.08571419999998398,
            "durationTicks": 144,
            "midi": 50,
            "name": "D3",
            "ticks": 440400,
            "time": 262.14259500000003,
            "velocity": 0.8267716535433071
          },
          {
            "duration": 0.08571419999998398,
            "durationTicks": 144,
            "midi": 51,
            "name": "D#3",
            "ticks": 440640,
            "time": 262.285452,
            "velocity": 0.8267716535433071
          },
          {
            "duration": 0.08571419999998398,
            "durationTicks": 144,
            "midi": 50,
            "name": "D3",
            "ticks": 440880,
            "time": 262.428309,
            "velocity": 0.8267716535433071
          },
          {
            "duration": 0.08571419999998398,
            "durationTicks": 144,
            "midi": 51,
            "name": "D#3",
            "ticks": 441120,
            "time": 262.571166,
            "velocity": 0.8267716535433071
          },
          {
            "duration": 0.08571419999998398,
            "durationTicks": 144,
            "midi": 53,
            "name": "F3",
            "ticks": 441360,
            "time": 262.714023,
            "velocity": 0.8267716535433071
          },
          {
            "duration": 0.08571419999998398,
            "durationTicks": 144,
            "midi": 55,
            "name": "G3",
            "ticks": 441600,
            "time": 262.85688000000005,
            "velocity": 0.8267716535433071
          },
          {
            "duration": 0.08571419999998398,
            "durationTicks": 144,
            "midi": 51,
            "name": "D#3",
            "ticks": 441840,
            "time": 262.99973700000004,
            "velocity": 0.8267716535433071
          },
          {
            "duration": 0.08571419999998398,
            "durationTicks": 144,
            "midi": 53,
            "name": "F3",
            "ticks": 442080,
            "time": 263.14259400000003,
            "velocity": 0.8267716535433071
          },
          {
            "duration": 0.08571419999998398,
            "durationTicks": 144,
            "midi": 55,
            "name": "G3",
            "ticks": 442320,
            "time": 263.285451,
            "velocity": 0.8267716535433071
          },
          {
            "duration": 0.08571419999998398,
            "durationTicks": 144,
            "midi": 57,
            "name": "A3",
            "ticks": 442560,
            "time": 263.428308,
            "velocity": 0.8267716535433071
          },
          {
            "duration": 0.08571419999998398,
            "durationTicks": 144,
            "midi": 55,
            "name": "G3",
            "ticks": 442800,
            "time": 263.571165,
            "velocity": 0.8267716535433071
          },
          {
            "duration": 0.08571419999998398,
            "durationTicks": 144,
            "midi": 57,
            "name": "A3",
            "ticks": 443040,
            "time": 263.714022,
            "velocity": 0.8267716535433071
          },
          {
            "duration": 0.08571419999998398,
            "durationTicks": 144,
            "midi": 58,
            "name": "A#3",
            "ticks": 443280,
            "time": 263.85687900000005,
            "velocity": 0.8267716535433071
          },
          {
            "duration": 0.08571419999998398,
            "durationTicks": 144,
            "midi": 60,
            "name": "C4",
            "ticks": 443520,
            "time": 263.99973600000004,
            "velocity": 0.8267716535433071
          },
          {
            "duration": 0.08571419999998398,
            "durationTicks": 144,
            "midi": 57,
            "name": "A3",
            "ticks": 443760,
            "time": 264.14259300000003,
            "velocity": 0.8267716535433071
          },
          {
            "duration": 0.08571419999998398,
            "durationTicks": 144,
            "midi": 58,
            "name": "A#3",
            "ticks": 444000,
            "time": 264.28545,
            "velocity": 0.8267716535433071
          },
          {
            "duration": 0.08571419999998398,
            "durationTicks": 144,
            "midi": 60,
            "name": "C4",
            "ticks": 444240,
            "time": 264.428307,
            "velocity": 0.8267716535433071
          },
          {
            "duration": 0.08571419999998398,
            "durationTicks": 144,
            "midi": 62,
            "name": "D4",
            "ticks": 444480,
            "time": 264.571164,
            "velocity": 0.8267716535433071
          },
          {
            "duration": 0.08571419999998398,
            "durationTicks": 144,
            "midi": 61,
            "name": "C#4",
            "ticks": 444720,
            "time": 264.714021,
            "velocity": 0.8267716535433071
          },
          {
            "duration": 0.08571420000004082,
            "durationTicks": 144,
            "midi": 62,
            "name": "D4",
            "ticks": 444960,
            "time": 264.856878,
            "velocity": 0.8267716535433071
          },
          {
            "duration": 0.08571419999998398,
            "durationTicks": 144,
            "midi": 64,
            "name": "E4",
            "ticks": 445200,
            "time": 264.99973500000004,
            "velocity": 0.8267716535433071
          },
          {
            "duration": 0.08571419999998398,
            "durationTicks": 144,
            "midi": 66,
            "name": "F#4",
            "ticks": 445440,
            "time": 265.14259200000004,
            "velocity": 0.8267716535433071
          },
          {
            "duration": 0.08571419999998398,
            "durationTicks": 144,
            "midi": 62,
            "name": "D4",
            "ticks": 445680,
            "time": 265.285449,
            "velocity": 0.8267716535433071
          },
          {
            "duration": 0.08571419999998398,
            "durationTicks": 144,
            "midi": 64,
            "name": "E4",
            "ticks": 445920,
            "time": 265.428306,
            "velocity": 0.8267716535433071
          },
          {
            "duration": 0.08571419999998398,
            "durationTicks": 144,
            "midi": 66,
            "name": "F#4",
            "ticks": 446160,
            "time": 265.571163,
            "velocity": 0.8267716535433071
          },
          {
            "duration": 0.08571419999998398,
            "durationTicks": 144,
            "midi": 67,
            "name": "G4",
            "ticks": 446400,
            "time": 265.71402,
            "velocity": 0.8267716535433071
          },
          {
            "duration": 0.08571419999998398,
            "durationTicks": 144,
            "midi": 63,
            "name": "D#4",
            "ticks": 446640,
            "time": 265.856877,
            "velocity": 0.8267716535433071
          },
          {
            "duration": 0.08571419999998398,
            "durationTicks": 144,
            "midi": 62,
            "name": "D4",
            "ticks": 446880,
            "time": 265.99973400000005,
            "velocity": 0.8267716535433071
          },
          {
            "duration": 0.08571419999998398,
            "durationTicks": 144,
            "midi": 60,
            "name": "C4",
            "ticks": 447120,
            "time": 266.14259100000004,
            "velocity": 0.8267716535433071
          },
          {
            "duration": 0.08571419999998398,
            "durationTicks": 144,
            "midi": 58,
            "name": "A#3",
            "ticks": 447360,
            "time": 266.28544800000003,
            "velocity": 0.7244094488188977
          },
          {
            "duration": 0.08571419999998398,
            "durationTicks": 144,
            "midi": 60,
            "name": "C4",
            "ticks": 447600,
            "time": 266.428305,
            "velocity": 0.7244094488188977
          },
          {
            "duration": 0.08571419999998398,
            "durationTicks": 144,
            "midi": 58,
            "name": "A#3",
            "ticks": 447840,
            "time": 266.571162,
            "velocity": 0.7244094488188977
          },
          {
            "duration": 0.08571419999998398,
            "durationTicks": 144,
            "midi": 57,
            "name": "A3",
            "ticks": 448080,
            "time": 266.714019,
            "velocity": 0.7244094488188977
          },
          {
            "duration": 0.08571419999998398,
            "durationTicks": 144,
            "midi": 55,
            "name": "G3",
            "ticks": 448320,
            "time": 266.856876,
            "velocity": 0.7244094488188977
          },
          {
            "duration": 0.08571419999998398,
            "durationTicks": 144,
            "midi": 53,
            "name": "F3",
            "ticks": 448560,
            "time": 266.99973300000005,
            "velocity": 0.7244094488188977
          },
          {
            "duration": 0.08571419999998398,
            "durationTicks": 144,
            "midi": 55,
            "name": "G3",
            "ticks": 448800,
            "time": 267.14259000000004,
            "velocity": 0.7244094488188977
          },
          {
            "duration": 0.08571419999998398,
            "durationTicks": 144,
            "midi": 56,
            "name": "G#3",
            "ticks": 449040,
            "time": 267.28544700000003,
            "velocity": 0.7244094488188977
          },
          {
            "duration": 0.11428560000001653,
            "durationTicks": 192,
            "midi": 57,
            "name": "A3",
            "ticks": 449280,
            "time": 267.428304,
            "velocity": 0.7244094488188977
          },
          {
            "duration": 0.11428560000001653,
            "durationTicks": 192,
            "midi": 57,
            "name": "A3",
            "ticks": 449520,
            "time": 267.571161,
            "velocity": 0.7244094488188977
          },
          {
            "duration": 0.11428560000001653,
            "durationTicks": 192,
            "midi": 57,
            "name": "A3",
            "ticks": 449760,
            "time": 267.714018,
            "velocity": 0.7244094488188977
          },
          {
            "duration": 0.11428560000001653,
            "durationTicks": 192,
            "midi": 57,
            "name": "A3",
            "ticks": 450000,
            "time": 267.856875,
            "velocity": 0.7244094488188977
          },
          {
            "duration": 0.11428560000001653,
            "durationTicks": 192,
            "midi": 57,
            "name": "A3",
            "ticks": 450240,
            "time": 267.999732,
            "velocity": 0.7244094488188977
          },
          {
            "duration": 0.11428559999995969,
            "durationTicks": 192,
            "midi": 57,
            "name": "A3",
            "ticks": 450480,
            "time": 268.14258900000004,
            "velocity": 0.7244094488188977
          },
          {
            "duration": 0.11428559999995969,
            "durationTicks": 192,
            "midi": 57,
            "name": "A3",
            "ticks": 450720,
            "time": 268.28544600000004,
            "velocity": 0.7244094488188977
          },
          {
            "duration": 0.11428559999995969,
            "durationTicks": 192,
            "midi": 57,
            "name": "A3",
            "ticks": 450960,
            "time": 268.428303,
            "velocity": 0.7244094488188977
          },
          {
            "duration": 0.11428560000001653,
            "durationTicks": 192,
            "midi": 57,
            "name": "A3",
            "ticks": 451200,
            "time": 268.57116,
            "velocity": 0.7244094488188977
          },
          {
            "duration": 0.11428560000001653,
            "durationTicks": 192,
            "midi": 57,
            "name": "A3",
            "ticks": 451440,
            "time": 268.714017,
            "velocity": 0.7244094488188977
          },
          {
            "duration": 0.11428560000001653,
            "durationTicks": 192,
            "midi": 57,
            "name": "A3",
            "ticks": 451680,
            "time": 268.856874,
            "velocity": 0.7244094488188977
          },
          {
            "duration": 0.11428560000001653,
            "durationTicks": 192,
            "midi": 57,
            "name": "A3",
            "ticks": 451920,
            "time": 268.999731,
            "velocity": 0.7244094488188977
          },
          {
            "duration": 0.11428559999995969,
            "durationTicks": 192,
            "midi": 57,
            "name": "A3",
            "ticks": 452160,
            "time": 269.14258800000005,
            "velocity": 0.7244094488188977
          },
          {
            "duration": 0.11428559999995969,
            "durationTicks": 192,
            "midi": 57,
            "name": "A3",
            "ticks": 452400,
            "time": 269.28544500000004,
            "velocity": 0.7244094488188977
          },
          {
            "duration": 0.11428559999995969,
            "durationTicks": 192,
            "midi": 57,
            "name": "A3",
            "ticks": 452640,
            "time": 269.42830200000003,
            "velocity": 0.7244094488188977
          },
          {
            "duration": 0.11428560000001653,
            "durationTicks": 192,
            "midi": 57,
            "name": "A3",
            "ticks": 452880,
            "time": 269.571159,
            "velocity": 0.7244094488188977
          },
          {
            "duration": 0.11428560000001653,
            "durationTicks": 192,
            "midi": 57,
            "name": "A3",
            "ticks": 453120,
            "time": 269.714016,
            "velocity": 0.7244094488188977
          },
          {
            "duration": 0.11428560000001653,
            "durationTicks": 192,
            "midi": 57,
            "name": "A3",
            "ticks": 453360,
            "time": 269.856873,
            "velocity": 0.7244094488188977
          },
          {
            "duration": 0.11428560000001653,
            "durationTicks": 192,
            "midi": 57,
            "name": "A3",
            "ticks": 453600,
            "time": 269.99973,
            "velocity": 0.7244094488188977
          },
          {
            "duration": 0.11428559999995969,
            "durationTicks": 192,
            "midi": 57,
            "name": "A3",
            "ticks": 453840,
            "time": 270.14258700000005,
            "velocity": 0.7244094488188977
          },
          {
            "duration": 0.11428559999995969,
            "durationTicks": 192,
            "midi": 57,
            "name": "A3",
            "ticks": 454080,
            "time": 270.28544400000004,
            "velocity": 0.7244094488188977
          },
          {
            "duration": 0.11428559999995969,
            "durationTicks": 192,
            "midi": 57,
            "name": "A3",
            "ticks": 454320,
            "time": 270.42830100000003,
            "velocity": 0.7244094488188977
          },
          {
            "duration": 0.11428560000001653,
            "durationTicks": 192,
            "midi": 57,
            "name": "A3",
            "ticks": 454560,
            "time": 270.571158,
            "velocity": 0.7244094488188977
          },
          {
            "duration": 0.11428560000001653,
            "durationTicks": 192,
            "midi": 57,
            "name": "A3",
            "ticks": 454800,
            "time": 270.714015,
            "velocity": 0.7244094488188977
          },
          {
            "duration": 0.11428560000001653,
            "durationTicks": 192,
            "midi": 57,
            "name": "A3",
            "ticks": 455040,
            "time": 270.856872,
            "velocity": 0.7244094488188977
          },
          {
            "duration": 0.11428560000001653,
            "durationTicks": 192,
            "midi": 57,
            "name": "A3",
            "ticks": 455280,
            "time": 270.999729,
            "velocity": 0.7244094488188977
          },
          {
            "duration": 0.11428560000001653,
            "durationTicks": 192,
            "midi": 57,
            "name": "A3",
            "ticks": 455520,
            "time": 271.142586,
            "velocity": 0.7244094488188977
          },
          {
            "duration": 0.11428559999995969,
            "durationTicks": 192,
            "midi": 57,
            "name": "A3",
            "ticks": 455760,
            "time": 271.28544300000004,
            "velocity": 0.7244094488188977
          },
          {
            "duration": 0.11428559999995969,
            "durationTicks": 192,
            "midi": 57,
            "name": "A3",
            "ticks": 456000,
            "time": 271.42830000000004,
            "velocity": 0.7244094488188977
          },
          {
            "duration": 0.11428559999995969,
            "durationTicks": 192,
            "midi": 57,
            "name": "A3",
            "ticks": 456240,
            "time": 271.571157,
            "velocity": 0.7244094488188977
          },
          {
            "duration": 0.11428560000001653,
            "durationTicks": 192,
            "midi": 57,
            "name": "A3",
            "ticks": 456480,
            "time": 271.714014,
            "velocity": 0.7244094488188977
          },
          {
            "duration": 0.11428560000001653,
            "durationTicks": 192,
            "midi": 57,
            "name": "A3",
            "ticks": 456720,
            "time": 271.856871,
            "velocity": 0.7244094488188977
          },
          {
            "duration": 0.4571424000000093,
            "durationTicks": 768,
            "midi": 57,
            "name": "A3",
            "ticks": 456960,
            "time": 271.999728,
            "velocity": 0.7244094488188977
          },
          {
            "duration": 3.371425200000033,
            "durationTicks": 5664,
            "midi": 65,
            "name": "F4",
            "ticks": 460800,
            "time": 274.28544,
            "velocity": 0.4566929133858268
          },
          {
            "duration": 4.11428159999997,
            "durationTicks": 6912,
            "midi": 67,
            "name": "G4",
            "ticks": 466560,
            "time": 277.71400800000004,
            "velocity": 0.4566929133858268
          },
          {
            "duration": 0.14285699999999224,
            "durationTicks": 240,
            "midi": 65,
            "name": "F4",
            "ticks": 476640,
            "time": 283.71400200000005,
            "velocity": 0.5511811023622047
          },
          {
            "duration": 0.11428559999995969,
            "durationTicks": 192,
            "midi": 66,
            "name": "F#4",
            "ticks": 476880,
            "time": 283.85685900000004,
            "velocity": 0.5511811023622047
          },
          {
            "duration": 0.22857119999997622,
            "durationTicks": 384,
            "midi": 66,
            "name": "F#4",
            "ticks": 477120,
            "time": 283.99971600000003,
            "velocity": 0.5511811023622047
          },
          {
            "duration": 0.14285699999999224,
            "durationTicks": 240,
            "midi": 67,
            "name": "G4",
            "ticks": 480480,
            "time": 285.99971400000004,
            "velocity": 0.5511811023622047
          },
          {
            "duration": 0.11428559999995969,
            "durationTicks": 192,
            "midi": 66,
            "name": "F#4",
            "ticks": 480720,
            "time": 286.14257100000003,
            "velocity": 0.5511811023622047
          },
          {
            "duration": 0.22857119999997622,
            "durationTicks": 384,
            "midi": 66,
            "name": "F#4",
            "ticks": 480960,
            "time": 286.285428,
            "velocity": 0.5511811023622047
          },
          {
            "duration": 0.14285699999999224,
            "durationTicks": 240,
            "midi": 63,
            "name": "D#4",
            "ticks": 484320,
            "time": 288.28542600000003,
            "velocity": 0.5511811023622047
          },
          {
            "duration": 0.11428560000001653,
            "durationTicks": 192,
            "midi": 62,
            "name": "D4",
            "ticks": 484560,
            "time": 288.428283,
            "velocity": 0.4566929133858268
          },
          {
            "duration": 0.22857119999997622,
            "durationTicks": 384,
            "midi": 62,
            "name": "D4",
            "ticks": 484800,
            "time": 288.57114,
            "velocity": 0.4566929133858268
          },
          {
            "duration": 0.2857139999999845,
            "durationTicks": 480,
            "midi": 60,
            "name": "C4",
            "ticks": 485760,
            "time": 289.14256800000004,
            "velocity": 0.8267716535433071
          },
          {
            "duration": 0.2857139999999845,
            "durationTicks": 480,
            "midi": 63,
            "name": "D#4",
            "ticks": 485760,
            "time": 289.14256800000004,
            "velocity": 0.8267716535433071
          },
          {
            "duration": 0.2857139999999845,
            "durationTicks": 480,
            "midi": 57,
            "name": "A3",
            "ticks": 486240,
            "time": 289.428282,
            "velocity": 0.8267716535433071
          },
          {
            "duration": 0.2857139999999845,
            "durationTicks": 480,
            "midi": 60,
            "name": "C4",
            "ticks": 486240,
            "time": 289.428282,
            "velocity": 0.8267716535433071
          },
          {
            "duration": 0.22857119999997622,
            "durationTicks": 384,
            "midi": 54,
            "name": "F#3",
            "ticks": 486720,
            "time": 289.713996,
            "velocity": 0.8267716535433071
          },
          {
            "duration": 0.22857119999997622,
            "durationTicks": 384,
            "midi": 57,
            "name": "A3",
            "ticks": 486720,
            "time": 289.713996,
            "velocity": 0.8267716535433071
          },
          {
            "duration": 0.2857139999999845,
            "durationTicks": 480,
            "midi": 58,
            "name": "A#3",
            "ticks": 487680,
            "time": 290.28542400000003,
            "velocity": 0.8267716535433071
          },
          {
            "duration": 0.2857139999999845,
            "durationTicks": 480,
            "midi": 62,
            "name": "D4",
            "ticks": 487680,
            "time": 290.28542400000003,
            "velocity": 0.8267716535433071
          },
          {
            "duration": 0.2857139999999845,
            "durationTicks": 480,
            "midi": 55,
            "name": "G3",
            "ticks": 488160,
            "time": 290.571138,
            "velocity": 0.8267716535433071
          },
          {
            "duration": 0.2857139999999845,
            "durationTicks": 480,
            "midi": 58,
            "name": "A#3",
            "ticks": 488160,
            "time": 290.571138,
            "velocity": 0.8267716535433071
          },
          {
            "duration": 0.22857120000003306,
            "durationTicks": 384,
            "midi": 50,
            "name": "D3",
            "ticks": 488640,
            "time": 290.856852,
            "velocity": 0.8267716535433071
          },
          {
            "duration": 0.22857120000003306,
            "durationTicks": 384,
            "midi": 55,
            "name": "G3",
            "ticks": 488640,
            "time": 290.856852,
            "velocity": 0.8267716535433071
          },
          {
            "duration": 0.2857139999999845,
            "durationTicks": 480,
            "midi": 52,
            "name": "E3",
            "ticks": 489600,
            "time": 291.42828000000003,
            "velocity": 0.8267716535433071
          },
          {
            "duration": 0.2857139999999845,
            "durationTicks": 480,
            "midi": 55,
            "name": "G3",
            "ticks": 489600,
            "time": 291.42828000000003,
            "velocity": 0.8267716535433071
          },
          {
            "duration": 0.2857139999999845,
            "durationTicks": 480,
            "midi": 55,
            "name": "G3",
            "ticks": 490080,
            "time": 291.713994,
            "velocity": 0.8267716535433071
          },
          {
            "duration": 0.2857139999999845,
            "durationTicks": 480,
            "midi": 58,
            "name": "A#3",
            "ticks": 490080,
            "time": 291.713994,
            "velocity": 0.8267716535433071
          },
          {
            "duration": 0.22857120000003306,
            "durationTicks": 384,
            "midi": 58,
            "name": "A#3",
            "ticks": 490560,
            "time": 291.999708,
            "velocity": 0.8267716535433071
          },
          {
            "duration": 0.22857120000003306,
            "durationTicks": 384,
            "midi": 64,
            "name": "E4",
            "ticks": 490560,
            "time": 291.999708,
            "velocity": 0.8267716535433071
          },
          {
            "duration": 0.2857139999999845,
            "durationTicks": 480,
            "midi": 54,
            "name": "F#3",
            "ticks": 491520,
            "time": 292.571136,
            "velocity": 0.8267716535433071
          },
          {
            "duration": 0.2857139999999845,
            "durationTicks": 480,
            "midi": 57,
            "name": "A3",
            "ticks": 491520,
            "time": 292.571136,
            "velocity": 0.8267716535433071
          },
          {
            "duration": 0.2857140000000413,
            "durationTicks": 480,
            "midi": 57,
            "name": "A3",
            "ticks": 492000,
            "time": 292.85685,
            "velocity": 0.8267716535433071
          },
          {
            "duration": 0.2857140000000413,
            "durationTicks": 480,
            "midi": 62,
            "name": "D4",
            "ticks": 492000,
            "time": 292.85685,
            "velocity": 0.8267716535433071
          },
          {
            "duration": 0.22857119999997622,
            "durationTicks": 384,
            "midi": 62,
            "name": "D4",
            "ticks": 492480,
            "time": 293.14256400000005,
            "velocity": 0.8267716535433071
          },
          {
            "duration": 0.22857119999997622,
            "durationTicks": 384,
            "midi": 66,
            "name": "F#4",
            "ticks": 492480,
            "time": 293.14256400000005,
            "velocity": 0.8267716535433071
          },
          {
            "duration": 0.2857139999999845,
            "durationTicks": 480,
            "midi": 57,
            "name": "A3",
            "ticks": 493440,
            "time": 293.713992,
            "velocity": 0.8267716535433071
          },
          {
            "duration": 0.2857139999999845,
            "durationTicks": 480,
            "midi": 60,
            "name": "C4",
            "ticks": 493440,
            "time": 293.713992,
            "velocity": 0.8267716535433071
          },
          {
            "duration": 0.2857140000000413,
            "durationTicks": 480,
            "midi": 54,
            "name": "F#3",
            "ticks": 493920,
            "time": 293.999706,
            "velocity": 0.8267716535433071
          },
          {
            "duration": 0.2857140000000413,
            "durationTicks": 480,
            "midi": 57,
            "name": "A3",
            "ticks": 493920,
            "time": 293.999706,
            "velocity": 0.8267716535433071
          },
          {
            "duration": 0.22857119999997622,
            "durationTicks": 384,
            "midi": 50,
            "name": "D3",
            "ticks": 494400,
            "time": 294.28542000000004,
            "velocity": 0.8267716535433071
          },
          {
            "duration": 0.22857119999997622,
            "durationTicks": 384,
            "midi": 54,
            "name": "F#3",
            "ticks": 494400,
            "time": 294.28542000000004,
            "velocity": 0.8267716535433071
          },
          {
            "duration": 0.2857139999999845,
            "durationTicks": 480,
            "midi": 58,
            "name": "A#3",
            "ticks": 495360,
            "time": 294.856848,
            "velocity": 0.8267716535433071
          },
          {
            "duration": 0.2857139999999845,
            "durationTicks": 480,
            "midi": 62,
            "name": "D4",
            "ticks": 495360,
            "time": 294.856848,
            "velocity": 0.8267716535433071
          },
          {
            "duration": 0.2857140000000413,
            "durationTicks": 480,
            "midi": 55,
            "name": "G3",
            "ticks": 495840,
            "time": 295.142562,
            "velocity": 0.8267716535433071
          },
          {
            "duration": 0.2857140000000413,
            "durationTicks": 480,
            "midi": 58,
            "name": "A#3",
            "ticks": 495840,
            "time": 295.142562,
            "velocity": 0.8267716535433071
          },
          {
            "duration": 0.22857119999997622,
            "durationTicks": 384,
            "midi": 50,
            "name": "D3",
            "ticks": 496320,
            "time": 295.42827600000004,
            "velocity": 0.8267716535433071
          },
          {
            "duration": 0.22857119999997622,
            "durationTicks": 384,
            "midi": 55,
            "name": "G3",
            "ticks": 496320,
            "time": 295.42827600000004,
            "velocity": 0.8267716535433071
          },
          {
            "duration": 1.0630941750000034,
            "durationTicks": 1786,
            "midi": 50,
            "name": "D3",
            "ticks": 499200,
            "time": 297.14256,
            "velocity": 0.5511811023622047
          },
          {
            "duration": 1.0630941750000034,
            "durationTicks": 1786,
            "midi": 62,
            "name": "D4",
            "ticks": 499200,
            "time": 297.14256,
            "velocity": 0.5511811023622047
          },
          {
            "duration": 1.0630941750000034,
            "durationTicks": 1786,
            "midi": 50,
            "name": "D3",
            "ticks": 501120,
            "time": 298.285416,
            "velocity": 0.5511811023622047
          },
          {
            "duration": 1.0630941750000034,
            "durationTicks": 1786,
            "midi": 62,
            "name": "D4",
            "ticks": 501120,
            "time": 298.285416,
            "velocity": 0.5511811023622047
          },
          {
            "duration": 1.0630941749999465,
            "durationTicks": 1786,
            "midi": 50,
            "name": "D3",
            "ticks": 503040,
            "time": 299.42827200000005,
            "velocity": 0.5511811023622047
          },
          {
            "duration": 1.0630941749999465,
            "durationTicks": 1786,
            "midi": 62,
            "name": "D4",
            "ticks": 503040,
            "time": 299.42827200000005,
            "velocity": 0.5511811023622047
          },
          {
            "duration": 1.5999983999999472,
            "durationTicks": 2688,
            "midi": 50,
            "name": "D3",
            "ticks": 504960,
            "time": 300.57112800000004,
            "velocity": 0.5511811023622047
          },
          {
            "duration": 1.5999983999999472,
            "durationTicks": 2688,
            "midi": 62,
            "name": "D4",
            "ticks": 504960,
            "time": 300.57112800000004,
            "velocity": 0.5511811023622047
          },
          {
            "duration": 0.5714280000000258,
            "durationTicks": 960,
            "midi": 58,
            "name": "A#3",
            "ticks": 507840,
            "time": 302.285412,
            "velocity": 0.5511811023622047
          },
          {
            "duration": 1.1428559999999948,
            "durationTicks": 1920,
            "midi": 67,
            "name": "G4",
            "ticks": 507840,
            "time": 302.285412,
            "velocity": 0.5511811023622047
          },
          {
            "duration": 1.1428559999999948,
            "durationTicks": 1920,
            "midi": 57,
            "name": "A3",
            "ticks": 508800,
            "time": 302.85684000000003,
            "velocity": 0.4566929133858268
          },
          {
            "duration": 0.5714280000000258,
            "durationTicks": 960,
            "midi": 66,
            "name": "F#4",
            "ticks": 509760,
            "time": 303.428268,
            "velocity": 0.4566929133858268
          },
          {
            "duration": 0.22857119999997622,
            "durationTicks": 384,
            "midi": 55,
            "name": "G3",
            "ticks": 510720,
            "time": 303.99969600000003,
            "velocity": 0.4566929133858268
          },
          {
            "duration": 0.22857119999997622,
            "durationTicks": 384,
            "midi": 67,
            "name": "G4",
            "ticks": 510720,
            "time": 303.99969600000003,
            "velocity": 0.4566929133858268
          },
          {
            "duration": 2.2285691999999813,
            "durationTicks": 3744,
            "midi": 63,
            "name": "D#4",
            "ticks": 514560,
            "time": 306.285408,
            "velocity": 0.5511811023622047
          },
          {
            "duration": 0.5428566000000501,
            "durationTicks": 912,
            "midi": 62,
            "name": "D4",
            "ticks": 518400,
            "time": 308.57112,
            "velocity": 0.5511811023622047
          },
          {
            "duration": 0.5428565999999933,
            "durationTicks": 912,
            "midi": 60,
            "name": "C4",
            "ticks": 519360,
            "time": 309.14254800000003,
            "velocity": 0.5511811023622047
          },
          {
            "duration": 0.5428566000000501,
            "durationTicks": 912,
            "midi": 57,
            "name": "A3",
            "ticks": 520320,
            "time": 309.713976,
            "velocity": 0.5511811023622047
          },
          {
            "duration": 0.5428566000000501,
            "durationTicks": 912,
            "midi": 54,
            "name": "F#3",
            "ticks": 521280,
            "time": 310.285404,
            "velocity": 0.5511811023622047
          },
          {
            "duration": 0.22857119999997622,
            "durationTicks": 384,
            "midi": 55,
            "name": "G3",
            "ticks": 522240,
            "time": 310.85683200000005,
            "velocity": 0.5511811023622047
          },
          {
            "duration": 0.2857140000000413,
            "durationTicks": 480,
            "midi": 54,
            "name": "F#3",
            "ticks": 532320,
            "time": 316.856826,
            "velocity": 0.5511811023622047
          },
          {
            "duration": 0.2857139999999845,
            "durationTicks": 480,
            "midi": 55,
            "name": "G3",
            "ticks": 532800,
            "time": 317.14254000000005,
            "velocity": 0.5511811023622047
          },
          {
            "duration": 0.2857139999999845,
            "durationTicks": 480,
            "midi": 57,
            "name": "A3",
            "ticks": 533280,
            "time": 317.42825400000004,
            "velocity": 0.5511811023622047
          },
          {
            "duration": 0.2857139999999845,
            "durationTicks": 480,
            "midi": 58,
            "name": "A#3",
            "ticks": 533760,
            "time": 317.713968,
            "velocity": 0.5511811023622047
          },
          {
            "duration": 0.14285699999999224,
            "durationTicks": 240,
            "midi": 60,
            "name": "C4",
            "ticks": 534240,
            "time": 317.999682,
            "velocity": 0.5511811023622047
          },
          {
            "duration": 0.14285700000004908,
            "durationTicks": 240,
            "midi": 58,
            "name": "A#3",
            "ticks": 534480,
            "time": 318.142539,
            "velocity": 0.5511811023622047
          },
          {
            "duration": 0.2857139999999845,
            "durationTicks": 480,
            "midi": 57,
            "name": "A3",
            "ticks": 534720,
            "time": 318.28539600000005,
            "velocity": 0.5511811023622047
          },
          {
            "duration": 0.2857139999999845,
            "durationTicks": 480,
            "midi": 55,
            "name": "G3",
            "ticks": 535200,
            "time": 318.57111000000003,
            "velocity": 0.5511811023622047
          },
          {
            "duration": 0.22857119999997622,
            "durationTicks": 384,
            "midi": 54,
            "name": "F#3",
            "ticks": 535680,
            "time": 318.856824,
            "velocity": 0.5511811023622047
          },
          {
            "duration": 0.571427999999969,
            "durationTicks": 960,
            "midi": 58,
            "name": "A#3",
            "ticks": 536640,
            "time": 319.42825200000004,
            "velocity": 0.8267716535433071
          },
          {
            "duration": 0.571427999999969,
            "durationTicks": 960,
            "midi": 64,
            "name": "E4",
            "ticks": 536640,
            "time": 319.42825200000004,
            "velocity": 0.8267716535433071
          },
          {
            "duration": 0.22857119999997622,
            "durationTicks": 384,
            "midi": 57,
            "name": "A3",
            "ticks": 537600,
            "time": 319.99968,
            "velocity": 0.8267716535433071
          },
          {
            "duration": 0.22857119999997622,
            "durationTicks": 384,
            "midi": 66,
            "name": "F#4",
            "ticks": 537600,
            "time": 319.99968,
            "velocity": 0.8267716535433071
          },
          {
            "duration": 0.571427999999969,
            "durationTicks": 960,
            "midi": 58,
            "name": "A#3",
            "ticks": 538560,
            "time": 320.57110800000004,
            "velocity": 0.8267716535433071
          },
          {
            "duration": 0.571427999999969,
            "durationTicks": 960,
            "midi": 64,
            "name": "E4",
            "ticks": 538560,
            "time": 320.57110800000004,
            "velocity": 0.8267716535433071
          },
          {
            "duration": 0.22857120000003306,
            "durationTicks": 384,
            "midi": 57,
            "name": "A3",
            "ticks": 539520,
            "time": 321.142536,
            "velocity": 0.8267716535433071
          },
          {
            "duration": 0.22857120000003306,
            "durationTicks": 384,
            "midi": 66,
            "name": "F#4",
            "ticks": 539520,
            "time": 321.142536,
            "velocity": 0.8267716535433071
          },
          {
            "duration": 0.571427999999969,
            "durationTicks": 960,
            "midi": 58,
            "name": "A#3",
            "ticks": 540480,
            "time": 321.71396400000003,
            "velocity": 0.8267716535433071
          },
          {
            "duration": 0.571427999999969,
            "durationTicks": 960,
            "midi": 64,
            "name": "E4",
            "ticks": 540480,
            "time": 321.71396400000003,
            "velocity": 0.8267716535433071
          },
          {
            "duration": 0.1714284000000248,
            "durationTicks": 288,
            "midi": 57,
            "name": "A3",
            "ticks": 541440,
            "time": 322.285392,
            "velocity": 0.8267716535433071
          },
          {
            "duration": 0.1714284000000248,
            "durationTicks": 288,
            "midi": 66,
            "name": "F#4",
            "ticks": 541440,
            "time": 322.285392,
            "velocity": 0.8267716535433071
          },
          {
            "duration": 0.17142839999996795,
            "durationTicks": 288,
            "midi": 58,
            "name": "A#3",
            "ticks": 541920,
            "time": 322.57110600000004,
            "velocity": 0.8267716535433071
          },
          {
            "duration": 0.17142839999996795,
            "durationTicks": 288,
            "midi": 64,
            "name": "E4",
            "ticks": 541920,
            "time": 322.57110600000004,
            "velocity": 0.8267716535433071
          },
          {
            "duration": 0.17142839999996795,
            "durationTicks": 288,
            "midi": 57,
            "name": "A3",
            "ticks": 542400,
            "time": 322.85682,
            "velocity": 0.8267716535433071
          },
          {
            "duration": 0.17142839999996795,
            "durationTicks": 288,
            "midi": 66,
            "name": "F#4",
            "ticks": 542400,
            "time": 322.85682,
            "velocity": 0.8267716535433071
          },
          {
            "duration": 0.17142839999996795,
            "durationTicks": 288,
            "midi": 58,
            "name": "A#3",
            "ticks": 542880,
            "time": 323.142534,
            "velocity": 0.8267716535433071
          },
          {
            "duration": 0.17142839999996795,
            "durationTicks": 288,
            "midi": 64,
            "name": "E4",
            "ticks": 542880,
            "time": 323.142534,
            "velocity": 0.8267716535433071
          },
          {
            "duration": 1.1428559999999948,
            "durationTicks": 1920,
            "midi": 57,
            "name": "A3",
            "ticks": 543360,
            "time": 323.42824800000005,
            "velocity": 0.5511811023622047
          },
          {
            "duration": 0.571427999999969,
            "durationTicks": 960,
            "midi": 66,
            "name": "F#4",
            "ticks": 543360,
            "time": 323.42824800000005,
            "velocity": 0.5511811023622047
          },
          {
            "duration": 0.5714280000000258,
            "durationTicks": 960,
            "midi": 60,
            "name": "C4",
            "ticks": 544320,
            "time": 323.999676,
            "velocity": 0.5511811023622047
          },
          {
            "duration": 0.571427999999969,
            "durationTicks": 960,
            "midi": 55,
            "name": "G3",
            "ticks": 545280,
            "time": 324.57110400000005,
            "velocity": 0.5511811023622047
          },
          {
            "duration": 0.571427999999969,
            "durationTicks": 960,
            "midi": 58,
            "name": "A#3",
            "ticks": 545280,
            "time": 324.57110400000005,
            "velocity": 0.5511811023622047
          },
          {
            "duration": 0.5714280000000258,
            "durationTicks": 960,
            "midi": 54,
            "name": "F#3",
            "ticks": 546240,
            "time": 325.142532,
            "velocity": 0.5511811023622047
          },
          {
            "duration": 0.5714280000000258,
            "durationTicks": 960,
            "midi": 57,
            "name": "A3",
            "ticks": 546240,
            "time": 325.142532,
            "velocity": 0.5511811023622047
          },
          {
            "duration": 0.22857119999997622,
            "durationTicks": 384,
            "midi": 55,
            "name": "G3",
            "ticks": 547200,
            "time": 325.71396000000004,
            "velocity": 0.5511811023622047
          },
          {
            "duration": 0.22857119999997622,
            "durationTicks": 384,
            "midi": 58,
            "name": "A#3",
            "ticks": 547200,
            "time": 325.71396000000004,
            "velocity": 0.5511811023622047
          },
          {
            "duration": 1.1428559999999948,
            "durationTicks": 1920,
            "midi": 62,
            "name": "D4",
            "ticks": 551040,
            "time": 327.99967200000003,
            "velocity": 0.5511811023622047
          },
          {
            "duration": 1.0857131999999865,
            "durationTicks": 1824,
            "midi": 63,
            "name": "D#4",
            "ticks": 552960,
            "time": 329.142528,
            "velocity": 0.5511811023622047
          },
          {
            "duration": 0.5714280000000258,
            "durationTicks": 960,
            "midi": 65,
            "name": "F4",
            "ticks": 554880,
            "time": 330.285384,
            "velocity": 0.5511811023622047
          },
          {
            "duration": 0.571427999999969,
            "durationTicks": 960,
            "midi": 62,
            "name": "D4",
            "ticks": 555840,
            "time": 330.85681200000005,
            "velocity": 0.5511811023622047
          },
          {
            "duration": 0.5714280000000258,
            "durationTicks": 960,
            "midi": 58,
            "name": "A#3",
            "ticks": 556800,
            "time": 331.42824,
            "velocity": 0.5511811023622047
          },
          {
            "duration": 0.45714239999995243,
            "durationTicks": 768,
            "midi": 62,
            "name": "D4",
            "ticks": 557760,
            "time": 331.99966800000004,
            "velocity": 0.5511811023622047
          },
          {
            "duration": 0.08571419999998398,
            "durationTicks": 144,
            "midi": 51,
            "name": "D#3",
            "ticks": 558720,
            "time": 332.571096,
            "velocity": 0.8267716535433071
          },
          {
            "duration": 0.22857119999997622,
            "durationTicks": 384,
            "midi": 63,
            "name": "D#4",
            "ticks": 558720,
            "time": 332.571096,
            "velocity": 0.8267716535433071
          },
          {
            "duration": 0.08571419999998398,
            "durationTicks": 144,
            "midi": 55,
            "name": "G3",
            "ticks": 558960,
            "time": 332.713953,
            "velocity": 0.8267716535433071
          },
          {
            "duration": 0.08571419999998398,
            "durationTicks": 144,
            "midi": 58,
            "name": "A#3",
            "ticks": 559200,
            "time": 332.85681000000005,
            "velocity": 0.8267716535433071
          },
          {
            "duration": 0.08571419999998398,
            "durationTicks": 144,
            "midi": 63,
            "name": "D#4",
            "ticks": 559440,
            "time": 332.99966700000004,
            "velocity": 0.8267716535433071
          },
          {
            "duration": 0.08571419999998398,
            "durationTicks": 144,
            "midi": 67,
            "name": "G4",
            "ticks": 559680,
            "time": 333.14252400000004,
            "velocity": 0.8267716535433071
          },
          {
            "duration": 0.08571419999998398,
            "durationTicks": 144,
            "midi": 65,
            "name": "F4",
            "ticks": 559920,
            "time": 333.28538100000003,
            "velocity": 0.8267716535433071
          },
          {
            "duration": 0.08571419999998398,
            "durationTicks": 144,
            "midi": 67,
            "name": "G4",
            "ticks": 560160,
            "time": 333.428238,
            "velocity": 0.8267716535433071
          },
          {
            "duration": 0.08571419999998398,
            "durationTicks": 144,
            "midi": 63,
            "name": "D#4",
            "ticks": 560400,
            "time": 333.571095,
            "velocity": 0.8267716535433071
          },
          {
            "duration": 0.11428560000007337,
            "durationTicks": 192,
            "midi": 62,
            "name": "D4",
            "ticks": 560640,
            "time": 333.713952,
            "velocity": 0.8267716535433071
          },
          {
            "duration": 0.11428560000001653,
            "durationTicks": 192,
            "midi": 63,
            "name": "D#4",
            "ticks": 560880,
            "time": 333.85680900000006,
            "velocity": 0.8267716535433071
          },
          {
            "duration": 0.11428560000001653,
            "durationTicks": 192,
            "midi": 65,
            "name": "F4",
            "ticks": 561120,
            "time": 333.99966600000005,
            "velocity": 0.8267716535433071
          },
          {
            "duration": 0.11428560000001653,
            "durationTicks": 192,
            "midi": 63,
            "name": "D#4",
            "ticks": 561360,
            "time": 334.14252300000004,
            "velocity": 0.8267716535433071
          },
          {
            "duration": 0.11428560000001653,
            "durationTicks": 192,
            "midi": 62,
            "name": "D4",
            "ticks": 561600,
            "time": 334.28538000000003,
            "velocity": 0.8267716535433071
          },
          {
            "duration": 0.11428560000001653,
            "durationTicks": 192,
            "midi": 60,
            "name": "C4",
            "ticks": 561840,
            "time": 334.428237,
            "velocity": 0.8267716535433071
          },
          {
            "duration": 0.11428560000001653,
            "durationTicks": 192,
            "midi": 62,
            "name": "D4",
            "ticks": 562080,
            "time": 334.571094,
            "velocity": 0.8267716535433071
          },
          {
            "duration": 0.11428560000001653,
            "durationTicks": 192,
            "midi": 58,
            "name": "A#3",
            "ticks": 562320,
            "time": 334.713951,
            "velocity": 0.8267716535433071
          },
          {
            "duration": 0.11428560000007337,
            "durationTicks": 192,
            "midi": 60,
            "name": "C4",
            "ticks": 562560,
            "time": 334.856808,
            "velocity": 0.8267716535433071
          },
          {
            "duration": 0.11428560000001653,
            "durationTicks": 192,
            "midi": 63,
            "name": "D#4",
            "ticks": 562800,
            "time": 334.99966500000005,
            "velocity": 0.8267716535433071
          },
          {
            "duration": 0.11428560000001653,
            "durationTicks": 192,
            "midi": 60,
            "name": "C4",
            "ticks": 563040,
            "time": 335.14252200000004,
            "velocity": 0.8267716535433071
          },
          {
            "duration": 0.11428560000001653,
            "durationTicks": 192,
            "midi": 63,
            "name": "D#4",
            "ticks": 563280,
            "time": 335.28537900000003,
            "velocity": 0.8267716535433071
          },
          {
            "duration": 0.11428560000001653,
            "durationTicks": 192,
            "midi": 60,
            "name": "C4",
            "ticks": 563520,
            "time": 335.428236,
            "velocity": 0.8267716535433071
          },
          {
            "duration": 0.11428560000001653,
            "durationTicks": 192,
            "midi": 63,
            "name": "D#4",
            "ticks": 563760,
            "time": 335.571093,
            "velocity": 0.8267716535433071
          },
          {
            "duration": 0.11428560000001653,
            "durationTicks": 192,
            "midi": 60,
            "name": "C4",
            "ticks": 564000,
            "time": 335.71395,
            "velocity": 0.8267716535433071
          },
          {
            "duration": 0.11428560000007337,
            "durationTicks": 192,
            "midi": 63,
            "name": "D#4",
            "ticks": 564240,
            "time": 335.856807,
            "velocity": 0.8267716535433071
          },
          {
            "duration": 0.11428560000001653,
            "durationTicks": 192,
            "midi": 58,
            "name": "A#3",
            "ticks": 564480,
            "time": 335.99966400000005,
            "velocity": 0.8267716535433071
          },
          {
            "duration": 0.11428560000001653,
            "durationTicks": 192,
            "midi": 63,
            "name": "D#4",
            "ticks": 564720,
            "time": 336.14252100000004,
            "velocity": 0.8267716535433071
          },
          {
            "duration": 0.11428560000001653,
            "durationTicks": 192,
            "midi": 58,
            "name": "A#3",
            "ticks": 564960,
            "time": 336.28537800000004,
            "velocity": 0.8267716535433071
          },
          {
            "duration": 0.11428560000001653,
            "durationTicks": 192,
            "midi": 63,
            "name": "D#4",
            "ticks": 565200,
            "time": 336.42823500000003,
            "velocity": 0.8267716535433071
          },
          {
            "duration": 0.11428560000001653,
            "durationTicks": 192,
            "midi": 58,
            "name": "A#3",
            "ticks": 565440,
            "time": 336.571092,
            "velocity": 0.8267716535433071
          },
          {
            "duration": 0.11428560000001653,
            "durationTicks": 192,
            "midi": 63,
            "name": "D#4",
            "ticks": 565680,
            "time": 336.713949,
            "velocity": 0.8267716535433071
          },
          {
            "duration": 0.11428560000007337,
            "durationTicks": 192,
            "midi": 58,
            "name": "A#3",
            "ticks": 565920,
            "time": 336.856806,
            "velocity": 0.8267716535433071
          },
          {
            "duration": 0.11428560000001653,
            "durationTicks": 192,
            "midi": 63,
            "name": "D#4",
            "ticks": 566160,
            "time": 336.99966300000006,
            "velocity": 0.8267716535433071
          },
          {
            "duration": 0.11428560000001653,
            "durationTicks": 192,
            "midi": 56,
            "name": "G#3",
            "ticks": 566400,
            "time": 337.14252000000005,
            "velocity": 0.8267716535433071
          },
          {
            "duration": 0.11428560000001653,
            "durationTicks": 192,
            "midi": 60,
            "name": "C4",
            "ticks": 566640,
            "time": 337.28537700000004,
            "velocity": 0.8267716535433071
          },
          {
            "duration": 0.11428560000001653,
            "durationTicks": 192,
            "midi": 56,
            "name": "G#3",
            "ticks": 566880,
            "time": 337.42823400000003,
            "velocity": 0.8267716535433071
          },
          {
            "duration": 0.11428560000001653,
            "durationTicks": 192,
            "midi": 60,
            "name": "C4",
            "ticks": 567120,
            "time": 337.571091,
            "velocity": 0.8267716535433071
          },
          {
            "duration": 0.11428560000001653,
            "durationTicks": 192,
            "midi": 56,
            "name": "G#3",
            "ticks": 567360,
            "time": 337.713948,
            "velocity": 0.8267716535433071
          },
          {
            "duration": 0.11428560000007337,
            "durationTicks": 192,
            "midi": 60,
            "name": "C4",
            "ticks": 567600,
            "time": 337.856805,
            "velocity": 0.8267716535433071
          },
          {
            "duration": 0.11428560000007337,
            "durationTicks": 192,
            "midi": 56,
            "name": "G#3",
            "ticks": 567840,
            "time": 337.999662,
            "velocity": 0.8267716535433071
          },
          {
            "duration": 0.11428560000001653,
            "durationTicks": 192,
            "midi": 60,
            "name": "C4",
            "ticks": 568080,
            "time": 338.14251900000005,
            "velocity": 0.8267716535433071
          },
          {
            "duration": 0.11428560000001653,
            "durationTicks": 192,
            "midi": 55,
            "name": "G3",
            "ticks": 568320,
            "time": 338.28537600000004,
            "velocity": 0.8267716535433071
          },
          {
            "duration": 0.11428560000001653,
            "durationTicks": 192,
            "midi": 58,
            "name": "A#3",
            "ticks": 568560,
            "time": 338.42823300000003,
            "velocity": 0.8267716535433071
          },
          {
            "duration": 0.11428560000001653,
            "durationTicks": 192,
            "midi": 55,
            "name": "G3",
            "ticks": 568800,
            "time": 338.57109,
            "velocity": 0.8267716535433071
          },
          {
            "duration": 0.11428560000001653,
            "durationTicks": 192,
            "midi": 58,
            "name": "A#3",
            "ticks": 569040,
            "time": 338.713947,
            "velocity": 0.8267716535433071
          },
          {
            "duration": 0.11428560000001653,
            "durationTicks": 192,
            "midi": 53,
            "name": "F3",
            "ticks": 569280,
            "time": 338.856804,
            "velocity": 0.8267716535433071
          },
          {
            "duration": 0.11428560000007337,
            "durationTicks": 192,
            "midi": 56,
            "name": "G#3",
            "ticks": 569520,
            "time": 338.999661,
            "velocity": 0.8267716535433071
          },
          {
            "duration": 0.11428560000001653,
            "durationTicks": 192,
            "midi": 53,
            "name": "F3",
            "ticks": 569760,
            "time": 339.14251800000005,
            "velocity": 0.8267716535433071
          },
          {
            "duration": 0.11428560000001653,
            "durationTicks": 192,
            "midi": 56,
            "name": "G#3",
            "ticks": 570000,
            "time": 339.28537500000004,
            "velocity": 0.8267716535433071
          },
          {
            "duration": 0.11428560000001653,
            "durationTicks": 192,
            "midi": 52,
            "name": "E3",
            "ticks": 570240,
            "time": 339.42823200000004,
            "velocity": 0.8267716535433071
          },
          {
            "duration": 0.11428560000001653,
            "durationTicks": 192,
            "midi": 55,
            "name": "G3",
            "ticks": 570480,
            "time": 339.57108900000003,
            "velocity": 0.8267716535433071
          },
          {
            "duration": 0.11428560000001653,
            "durationTicks": 192,
            "midi": 52,
            "name": "E3",
            "ticks": 570720,
            "time": 339.713946,
            "velocity": 0.8267716535433071
          },
          {
            "duration": 0.11428560000001653,
            "durationTicks": 192,
            "midi": 55,
            "name": "G3",
            "ticks": 570960,
            "time": 339.856803,
            "velocity": 0.8267716535433071
          },
          {
            "duration": 0.11428560000007337,
            "durationTicks": 192,
            "midi": 48,
            "name": "C3",
            "ticks": 571200,
            "time": 339.99966,
            "velocity": 0.8267716535433071
          },
          {
            "duration": 0.11428560000001653,
            "durationTicks": 192,
            "midi": 52,
            "name": "E3",
            "ticks": 571440,
            "time": 340.14251700000005,
            "velocity": 0.8267716535433071
          },
          {
            "duration": 0.11428560000001653,
            "durationTicks": 192,
            "midi": 48,
            "name": "C3",
            "ticks": 571680,
            "time": 340.28537400000005,
            "velocity": 0.8267716535433071
          },
          {
            "duration": 0.11428560000001653,
            "durationTicks": 192,
            "midi": 52,
            "name": "E3",
            "ticks": 571920,
            "time": 340.42823100000004,
            "velocity": 0.8267716535433071
          },
          {
            "duration": 0.9142848000000185,
            "durationTicks": 1536,
            "midi": 53,
            "name": "F3",
            "ticks": 572160,
            "time": 340.57108800000003,
            "velocity": 0.8267716535433071
          },
          {
            "duration": 0.6857136000000423,
            "durationTicks": 1152,
            "midi": 60,
            "name": "C4",
            "ticks": 574080,
            "time": 341.713944,
            "velocity": 0.8267716535433071
          },
          {
            "duration": 0.08571419999998398,
            "durationTicks": 144,
            "midi": 60,
            "name": "C4",
            "ticks": 575760,
            "time": 342.71394300000003,
            "velocity": 0.8267716535433071
          },
          {
            "duration": 0.17142839999996795,
            "durationTicks": 288,
            "midi": 58,
            "name": "A#3",
            "ticks": 576000,
            "time": 342.8568,
            "velocity": 0.8267716535433071
          },
          {
            "duration": 0.1714284000000248,
            "durationTicks": 288,
            "midi": 61,
            "name": "C#4",
            "ticks": 576480,
            "time": 343.142514,
            "velocity": 0.8267716535433071
          },
          {
            "duration": 0.17142839999996795,
            "durationTicks": 288,
            "midi": 67,
            "name": "G4",
            "ticks": 576960,
            "time": 343.42822800000005,
            "velocity": 0.8267716535433071
          },
          {
            "duration": 0.17142839999996795,
            "durationTicks": 288,
            "midi": 56,
            "name": "G#3",
            "ticks": 577920,
            "time": 343.999656,
            "velocity": 0.8267716535433071
          },
          {
            "duration": 0.1714284000000248,
            "durationTicks": 288,
            "midi": 60,
            "name": "C4",
            "ticks": 578400,
            "time": 344.28537,
            "velocity": 0.8267716535433071
          },
          {
            "duration": 0.17142839999996795,
            "durationTicks": 288,
            "midi": 65,
            "name": "F4",
            "ticks": 578880,
            "time": 344.57108400000004,
            "velocity": 0.8267716535433071
          },
          {
            "duration": 0.08571419999998398,
            "durationTicks": 144,
            "midi": 56,
            "name": "G#3",
            "ticks": 579600,
            "time": 344.999655,
            "velocity": 0.8267716535433071
          },
          {
            "duration": 0.17142839999996795,
            "durationTicks": 288,
            "midi": 55,
            "name": "G3",
            "ticks": 579840,
            "time": 345.142512,
            "velocity": 0.8267716535433071
          },
          {
            "duration": 0.17142839999996795,
            "durationTicks": 288,
            "midi": 58,
            "name": "A#3",
            "ticks": 580320,
            "time": 345.42822600000005,
            "velocity": 0.8267716535433071
          },
          {
            "duration": 0.17142839999996795,
            "durationTicks": 288,
            "midi": 64,
            "name": "E4",
            "ticks": 580800,
            "time": 345.71394000000004,
            "velocity": 0.8267716535433071
          },
          {
            "duration": 0.08571419999998398,
            "durationTicks": 144,
            "midi": 55,
            "name": "G3",
            "ticks": 581520,
            "time": 346.142511,
            "velocity": 0.8267716535433071
          },
          {
            "duration": 0.1714284000000248,
            "durationTicks": 288,
            "midi": 53,
            "name": "F3",
            "ticks": 581760,
            "time": 346.285368,
            "velocity": 0.8267716535433071
          },
          {
            "duration": 0.17142839999996795,
            "durationTicks": 288,
            "midi": 56,
            "name": "G#3",
            "ticks": 582240,
            "time": 346.57108200000005,
            "velocity": 0.8267716535433071
          },
          {
            "duration": 0.17142839999996795,
            "durationTicks": 288,
            "midi": 60,
            "name": "C4",
            "ticks": 582720,
            "time": 346.85679600000003,
            "velocity": 0.8267716535433071
          },
          {
            "duration": 0.08571419999998398,
            "durationTicks": 144,
            "midi": 41,
            "name": "F2",
            "ticks": 583440,
            "time": 347.285367,
            "velocity": 0.8267716535433071
          },
          {
            "duration": 0.1714284000000248,
            "durationTicks": 288,
            "midi": 46,
            "name": "A#2",
            "ticks": 583680,
            "time": 347.428224,
            "velocity": 0.8267716535433071
          },
          {
            "duration": 0.17142839999996795,
            "durationTicks": 288,
            "midi": 50,
            "name": "D3",
            "ticks": 584160,
            "time": 347.71393800000004,
            "velocity": 0.8267716535433071
          },
          {
            "duration": 0.17142839999996795,
            "durationTicks": 288,
            "midi": 53,
            "name": "F3",
            "ticks": 584640,
            "time": 347.999652,
            "velocity": 0.8267716535433071
          },
          {
            "duration": 0.08571420000004082,
            "durationTicks": 144,
            "midi": 46,
            "name": "A#2",
            "ticks": 585360,
            "time": 348.428223,
            "velocity": 0.8267716535433071
          },
          {
            "duration": 0.17142839999996795,
            "durationTicks": 288,
            "midi": 51,
            "name": "D#3",
            "ticks": 585600,
            "time": 348.57108000000005,
            "velocity": 0.8267716535433071
          },
          {
            "duration": 0.17142839999996795,
            "durationTicks": 288,
            "midi": 55,
            "name": "G3",
            "ticks": 586080,
            "time": 348.85679400000004,
            "velocity": 0.8267716535433071
          },
          {
            "duration": 0.17142839999996795,
            "durationTicks": 288,
            "midi": 58,
            "name": "A#3",
            "ticks": 586560,
            "time": 349.142508,
            "velocity": 0.8267716535433071
          },
          {
            "duration": 0.08571419999998398,
            "durationTicks": 144,
            "midi": 39,
            "name": "D#2",
            "ticks": 587280,
            "time": 349.57107900000005,
            "velocity": 0.8267716535433071
          },
          {
            "duration": 0.17142839999996795,
            "durationTicks": 288,
            "midi": 44,
            "name": "G#2",
            "ticks": 587520,
            "time": 349.71393600000005,
            "velocity": 0.8267716535433071
          },
          {
            "duration": 0.17142839999996795,
            "durationTicks": 288,
            "midi": 48,
            "name": "C3",
            "ticks": 588000,
            "time": 349.99965000000003,
            "velocity": 0.8267716535433071
          },
          {
            "duration": 0.17142839999996795,
            "durationTicks": 288,
            "midi": 51,
            "name": "D#3",
            "ticks": 588480,
            "time": 350.285364,
            "velocity": 0.8267716535433071
          },
          {
            "duration": 0.08571419999998398,
            "durationTicks": 144,
            "midi": 44,
            "name": "G#2",
            "ticks": 589200,
            "time": 350.71393500000005,
            "velocity": 0.8267716535433071
          },
          {
            "duration": 0.17142839999996795,
            "durationTicks": 288,
            "midi": 50,
            "name": "D3",
            "ticks": 589440,
            "time": 350.85679200000004,
            "velocity": 0.8267716535433071
          },
          {
            "duration": 0.17142839999996795,
            "durationTicks": 288,
            "midi": 53,
            "name": "F3",
            "ticks": 589920,
            "time": 351.142506,
            "velocity": 0.8267716535433071
          },
          {
            "duration": 0.17142839999996795,
            "durationTicks": 288,
            "midi": 57,
            "name": "A3",
            "ticks": 590400,
            "time": 351.42822,
            "velocity": 0.8267716535433071
          },
          {
            "duration": 0.08571419999998398,
            "durationTicks": 144,
            "midi": 50,
            "name": "D3",
            "ticks": 591120,
            "time": 351.85679100000004,
            "velocity": 0.8267716535433071
          },
          {
            "duration": 0.17142839999996795,
            "durationTicks": 288,
            "midi": 55,
            "name": "G3",
            "ticks": 591360,
            "time": 351.99964800000004,
            "velocity": 0.8267716535433071
          },
          {
            "duration": 0.17142839999996795,
            "durationTicks": 288,
            "midi": 59,
            "name": "B3",
            "ticks": 591840,
            "time": 352.285362,
            "velocity": 0.8267716535433071
          },
          {
            "duration": 0.1714284000000248,
            "durationTicks": 288,
            "midi": 62,
            "name": "D4",
            "ticks": 592320,
            "time": 352.571076,
            "velocity": 0.8267716535433071
          },
          {
            "duration": 0.08571419999998398,
            "durationTicks": 144,
            "midi": 43,
            "name": "G2",
            "ticks": 593040,
            "time": 352.99964700000004,
            "velocity": 0.8267716535433071
          },
          {
            "duration": 0.17142839999996795,
            "durationTicks": 288,
            "midi": 48,
            "name": "C3",
            "ticks": 593280,
            "time": 353.14250400000003,
            "velocity": 0.8267716535433071
          },
          {
            "duration": 0.17142839999996795,
            "durationTicks": 288,
            "midi": 51,
            "name": "D#3",
            "ticks": 593760,
            "time": 353.428218,
            "velocity": 0.8267716535433071
          },
          {
            "duration": 0.17142839999996795,
            "durationTicks": 288,
            "midi": 57,
            "name": "A3",
            "ticks": 594240,
            "time": 353.71393200000006,
            "velocity": 0.8267716535433071
          },
          {
            "duration": 0.08571419999998398,
            "durationTicks": 144,
            "midi": 48,
            "name": "C3",
            "ticks": 594960,
            "time": 354.14250300000003,
            "velocity": 0.8267716535433071
          },
          {
            "duration": 0.17142839999996795,
            "durationTicks": 288,
            "midi": 50,
            "name": "D3",
            "ticks": 595200,
            "time": 354.28536,
            "velocity": 0.8267716535433071
          },
          {
            "duration": 0.17142839999996795,
            "durationTicks": 288,
            "midi": 54,
            "name": "F#3",
            "ticks": 595680,
            "time": 354.571074,
            "velocity": 0.8267716535433071
          },
          {
            "duration": 0.17142839999996795,
            "durationTicks": 288,
            "midi": 57,
            "name": "A3",
            "ticks": 596160,
            "time": 354.85678800000005,
            "velocity": 0.8267716535433071
          },
          {
            "duration": 0.11428560000001653,
            "durationTicks": 192,
            "midi": 55,
            "name": "G3",
            "ticks": 597120,
            "time": 355.428216,
            "velocity": 0.8267716535433071
          },
          {
            "duration": 0.11428560000001653,
            "durationTicks": 192,
            "midi": 58,
            "name": "A#3",
            "ticks": 597360,
            "time": 355.571073,
            "velocity": 0.8267716535433071
          },
          {
            "duration": 0.11428560000007337,
            "durationTicks": 192,
            "midi": 55,
            "name": "G3",
            "ticks": 597600,
            "time": 355.71393,
            "velocity": 0.8267716535433071
          },
          {
            "duration": 0.11428560000001653,
            "durationTicks": 192,
            "midi": 58,
            "name": "A#3",
            "ticks": 597840,
            "time": 355.85678700000005,
            "velocity": 0.8267716535433071
          },
          {
            "duration": 0.11428560000001653,
            "durationTicks": 192,
            "midi": 55,
            "name": "G3",
            "ticks": 598080,
            "time": 355.99964400000005,
            "velocity": 0.8267716535433071
          },
          {
            "duration": 0.11428560000001653,
            "durationTicks": 192,
            "midi": 58,
            "name": "A#3",
            "ticks": 598320,
            "time": 356.14250100000004,
            "velocity": 0.8267716535433071
          },
          {
            "duration": 0.11428560000001653,
            "durationTicks": 192,
            "midi": 55,
            "name": "G3",
            "ticks": 598560,
            "time": 356.28535800000003,
            "velocity": 0.8267716535433071
          },
          {
            "duration": 0.11428560000001653,
            "durationTicks": 192,
            "midi": 58,
            "name": "A#3",
            "ticks": 598800,
            "time": 356.428215,
            "velocity": 0.8267716535433071
          },
          {
            "duration": 0.11428560000001653,
            "durationTicks": 192,
            "midi": 53,
            "name": "F3",
            "ticks": 599040,
            "time": 356.571072,
            "velocity": 0.8267716535433071
          },
          {
            "duration": 0.11428560000007337,
            "durationTicks": 192,
            "midi": 57,
            "name": "A3",
            "ticks": 599280,
            "time": 356.713929,
            "velocity": 0.8267716535433071
          },
          {
            "duration": 0.11428560000001653,
            "durationTicks": 192,
            "midi": 53,
            "name": "F3",
            "ticks": 599520,
            "time": 356.85678600000006,
            "velocity": 0.8267716535433071
          },
          {
            "duration": 0.11428560000001653,
            "durationTicks": 192,
            "midi": 57,
            "name": "A3",
            "ticks": 599760,
            "time": 356.99964300000005,
            "velocity": 0.8267716535433071
          },
          {
            "duration": 0.11428560000001653,
            "durationTicks": 192,
            "midi": 53,
            "name": "F3",
            "ticks": 600000,
            "time": 357.14250000000004,
            "velocity": 0.8267716535433071
          },
          {
            "duration": 0.11428560000001653,
            "durationTicks": 192,
            "midi": 57,
            "name": "A3",
            "ticks": 600240,
            "time": 357.28535700000003,
            "velocity": 0.8267716535433071
          },
          {
            "duration": 0.11428560000001653,
            "durationTicks": 192,
            "midi": 53,
            "name": "F3",
            "ticks": 600480,
            "time": 357.428214,
            "velocity": 0.8267716535433071
          },
          {
            "duration": 0.11428560000001653,
            "durationTicks": 192,
            "midi": 57,
            "name": "A3",
            "ticks": 600720,
            "time": 357.571071,
            "velocity": 0.8267716535433071
          },
          {
            "duration": 0.11428560000007337,
            "durationTicks": 192,
            "midi": 51,
            "name": "D#3",
            "ticks": 600960,
            "time": 357.713928,
            "velocity": 0.8267716535433071
          },
          {
            "duration": 0.11428560000007337,
            "durationTicks": 192,
            "midi": 55,
            "name": "G3",
            "ticks": 601200,
            "time": 357.856785,
            "velocity": 0.8267716535433071
          },
          {
            "duration": 0.11428560000001653,
            "durationTicks": 192,
            "midi": 51,
            "name": "D#3",
            "ticks": 601440,
            "time": 357.99964200000005,
            "velocity": 0.8267716535433071
          },
          {
            "duration": 0.11428560000001653,
            "durationTicks": 192,
            "midi": 55,
            "name": "G3",
            "ticks": 601680,
            "time": 358.14249900000004,
            "velocity": 0.8267716535433071
          },
          {
            "duration": 0.11428560000001653,
            "durationTicks": 192,
            "midi": 51,
            "name": "D#3",
            "ticks": 601920,
            "time": 358.28535600000004,
            "velocity": 0.8267716535433071
          },
          {
            "duration": 0.11428560000001653,
            "durationTicks": 192,
            "midi": 55,
            "name": "G3",
            "ticks": 602160,
            "time": 358.428213,
            "velocity": 0.8267716535433071
          },
          {
            "duration": 0.11428560000001653,
            "durationTicks": 192,
            "midi": 51,
            "name": "D#3",
            "ticks": 602400,
            "time": 358.57107,
            "velocity": 0.8267716535433071
          },
          {
            "duration": 0.11428560000001653,
            "durationTicks": 192,
            "midi": 55,
            "name": "G3",
            "ticks": 602640,
            "time": 358.713927,
            "velocity": 0.8267716535433071
          },
          {
            "duration": 0.11428560000007337,
            "durationTicks": 192,
            "midi": 50,
            "name": "D3",
            "ticks": 602880,
            "time": 358.856784,
            "velocity": 0.8267716535433071
          },
          {
            "duration": 0.11428560000001653,
            "durationTicks": 192,
            "midi": 55,
            "name": "G3",
            "ticks": 603120,
            "time": 358.99964100000005,
            "velocity": 0.8267716535433071
          },
          {
            "duration": 0.11428560000001653,
            "durationTicks": 192,
            "midi": 50,
            "name": "D3",
            "ticks": 603360,
            "time": 359.14249800000005,
            "velocity": 0.8267716535433071
          },
          {
            "duration": 0.11428560000001653,
            "durationTicks": 192,
            "midi": 55,
            "name": "G3",
            "ticks": 603600,
            "time": 359.28535500000004,
            "velocity": 0.8267716535433071
          },
          {
            "duration": 0.11428560000001653,
            "durationTicks": 192,
            "midi": 50,
            "name": "D3",
            "ticks": 603840,
            "time": 359.42821200000003,
            "velocity": 0.8267716535433071
          },
          {
            "duration": 0.11428560000001653,
            "durationTicks": 192,
            "midi": 55,
            "name": "G3",
            "ticks": 604080,
            "time": 359.571069,
            "velocity": 0.8267716535433071
          },
          {
            "duration": 0.11428560000001653,
            "durationTicks": 192,
            "midi": 50,
            "name": "D3",
            "ticks": 604320,
            "time": 359.713926,
            "velocity": 0.8267716535433071
          },
          {
            "duration": 0.11428560000007337,
            "durationTicks": 192,
            "midi": 55,
            "name": "G3",
            "ticks": 604560,
            "time": 359.856783,
            "velocity": 0.8267716535433071
          },
          {
            "duration": 0.11428560000001653,
            "durationTicks": 192,
            "midi": 48,
            "name": "C3",
            "ticks": 604800,
            "time": 359.99964000000006,
            "velocity": 0.8267716535433071
          },
          {
            "duration": 0.11428560000001653,
            "durationTicks": 192,
            "midi": 51,
            "name": "D#3",
            "ticks": 605040,
            "time": 360.14249700000005,
            "velocity": 0.8267716535433071
          },
          {
            "duration": 0.11428560000001653,
            "durationTicks": 192,
            "midi": 48,
            "name": "C3",
            "ticks": 605280,
            "time": 360.28535400000004,
            "velocity": 0.8267716535433071
          },
          {
            "duration": 0.11428560000001653,
            "durationTicks": 192,
            "midi": 51,
            "name": "D#3",
            "ticks": 605520,
            "time": 360.42821100000003,
            "velocity": 0.8267716535433071
          },
          {
            "duration": 0.11428560000001653,
            "durationTicks": 192,
            "midi": 48,
            "name": "C3",
            "ticks": 605760,
            "time": 360.571068,
            "velocity": 0.8267716535433071
          },
          {
            "duration": 0.11428560000001653,
            "durationTicks": 192,
            "midi": 51,
            "name": "D#3",
            "ticks": 606000,
            "time": 360.713925,
            "velocity": 0.8267716535433071
          },
          {
            "duration": 0.11428560000007337,
            "durationTicks": 192,
            "midi": 48,
            "name": "C3",
            "ticks": 606240,
            "time": 360.856782,
            "velocity": 0.8267716535433071
          },
          {
            "duration": 0.11428560000007337,
            "durationTicks": 192,
            "midi": 51,
            "name": "D#3",
            "ticks": 606480,
            "time": 360.999639,
            "velocity": 0.8267716535433071
          },
          {
            "duration": 0.11428560000001653,
            "durationTicks": 192,
            "midi": 46,
            "name": "A#2",
            "ticks": 606720,
            "time": 361.14249600000005,
            "velocity": 0.8267716535433071
          },
          {
            "duration": 0.11428560000001653,
            "durationTicks": 192,
            "midi": 50,
            "name": "D3",
            "ticks": 606960,
            "time": 361.28535300000004,
            "velocity": 0.8267716535433071
          },
          {
            "duration": 0.11428560000001653,
            "durationTicks": 192,
            "midi": 46,
            "name": "A#2",
            "ticks": 607200,
            "time": 361.42821000000004,
            "velocity": 0.8267716535433071
          },
          {
            "duration": 0.11428560000001653,
            "durationTicks": 192,
            "midi": 50,
            "name": "D3",
            "ticks": 607440,
            "time": 361.571067,
            "velocity": 0.8267716535433071
          },
          {
            "duration": 0.11428560000001653,
            "durationTicks": 192,
            "midi": 46,
            "name": "A#2",
            "ticks": 607680,
            "time": 361.713924,
            "velocity": 0.8267716535433071
          },
          {
            "duration": 0.11428560000001653,
            "durationTicks": 192,
            "midi": 50,
            "name": "D3",
            "ticks": 607920,
            "time": 361.856781,
            "velocity": 0.8267716535433071
          },
          {
            "duration": 0.11428560000007337,
            "durationTicks": 192,
            "midi": 46,
            "name": "A#2",
            "ticks": 608160,
            "time": 361.999638,
            "velocity": 0.8267716535433071
          },
          {
            "duration": 0.11428560000001653,
            "durationTicks": 192,
            "midi": 50,
            "name": "D3",
            "ticks": 608400,
            "time": 362.14249500000005,
            "velocity": 0.8267716535433071
          },
          {
            "duration": 1.114284600000019,
            "durationTicks": 1872,
            "midi": 52,
            "name": "E3",
            "ticks": 608640,
            "time": 362.28535200000005,
            "velocity": 0.8267716535433071
          },
          {
            "duration": 0.9142848000000185,
            "durationTicks": 1536,
            "midi": 61,
            "name": "C#4",
            "ticks": 608640,
            "time": 362.28535200000005,
            "velocity": 0.984251968503937
          },
          {
            "duration": 0.11428560000001653,
            "durationTicks": 192,
            "midi": 62,
            "name": "D4",
            "ticks": 610320,
            "time": 363.28535100000005,
            "velocity": 0.8267716535433071
          },
          {
            "duration": 1.114284600000019,
            "durationTicks": 1872,
            "midi": 52,
            "name": "E3",
            "ticks": 610560,
            "time": 363.42820800000004,
            "velocity": 0.8267716535433071
          },
          {
            "duration": 0.9142848000000185,
            "durationTicks": 1536,
            "midi": 61,
            "name": "C#4",
            "ticks": 610560,
            "time": 363.42820800000004,
            "velocity": 0.984251968503937
          },
          {
            "duration": 0.11428560000001653,
            "durationTicks": 192,
            "midi": 62,
            "name": "D4",
            "ticks": 612240,
            "time": 364.42820700000004,
            "velocity": 0.8267716535433071
          },
          {
            "duration": 1.114284600000019,
            "durationTicks": 1872,
            "midi": 52,
            "name": "E3",
            "ticks": 612480,
            "time": 364.57106400000004,
            "velocity": 0.8267716535433071
          },
          {
            "duration": 0.9142848000000185,
            "durationTicks": 1536,
            "midi": 61,
            "name": "C#4",
            "ticks": 612480,
            "time": 364.57106400000004,
            "velocity": 0.984251968503937
          },
          {
            "duration": 0.11428560000001653,
            "durationTicks": 192,
            "midi": 62,
            "name": "D4",
            "ticks": 614160,
            "time": 365.57106300000004,
            "velocity": 0.8267716535433071
          },
          {
            "duration": 0.9142848000000185,
            "durationTicks": 1536,
            "midi": 52,
            "name": "E3",
            "ticks": 614400,
            "time": 365.71392000000003,
            "velocity": 0.8267716535433071
          },
          {
            "duration": 0.9142848000000185,
            "durationTicks": 1536,
            "midi": 61,
            "name": "C#4",
            "ticks": 614400,
            "time": 365.71392000000003,
            "velocity": 0.984251968503937
          },
          {
            "duration": 0.11428560000001653,
            "durationTicks": 192,
            "midi": 50,
            "name": "D3",
            "ticks": 616320,
            "time": 366.856776,
            "velocity": 0.8267716535433071
          },
          {
            "duration": 0.11428560000001653,
            "durationTicks": 192,
            "midi": 62,
            "name": "D4",
            "ticks": 616320,
            "time": 366.856776,
            "velocity": 0.8267716535433071
          },
          {
            "duration": 0.11428560000001653,
            "durationTicks": 192,
            "midi": 50,
            "name": "D3",
            "ticks": 616560,
            "time": 366.999633,
            "velocity": 0.8267716535433071
          },
          {
            "duration": 0.11428560000007337,
            "durationTicks": 192,
            "midi": 50,
            "name": "D3",
            "ticks": 616800,
            "time": 367.14249,
            "velocity": 0.8267716535433071
          },
          {
            "duration": 0.11428560000001653,
            "durationTicks": 192,
            "midi": 50,
            "name": "D3",
            "ticks": 617040,
            "time": 367.28534700000006,
            "velocity": 0.8267716535433071
          },
          {
            "duration": 0.11428560000001653,
            "durationTicks": 192,
            "midi": 50,
            "name": "D3",
            "ticks": 617280,
            "time": 367.42820400000005,
            "velocity": 0.8267716535433071
          },
          {
            "duration": 0.11428560000001653,
            "durationTicks": 192,
            "midi": 50,
            "name": "D3",
            "ticks": 617520,
            "time": 367.57106100000004,
            "velocity": 0.8267716535433071
          },
          {
            "duration": 0.11428560000001653,
            "durationTicks": 192,
            "midi": 50,
            "name": "D3",
            "ticks": 617760,
            "time": 367.71391800000004,
            "velocity": 0.8267716535433071
          },
          {
            "duration": 0.11428560000001653,
            "durationTicks": 192,
            "midi": 50,
            "name": "D3",
            "ticks": 618000,
            "time": 367.856775,
            "velocity": 0.8267716535433071
          },
          {
            "duration": 0.11428560000001653,
            "durationTicks": 192,
            "midi": 50,
            "name": "D3",
            "ticks": 618240,
            "time": 367.999632,
            "velocity": 0.8267716535433071
          },
          {
            "duration": 0.11428560000001653,
            "durationTicks": 192,
            "midi": 50,
            "name": "D3",
            "ticks": 618480,
            "time": 368.142489,
            "velocity": 0.8267716535433071
          },
          {
            "duration": 0.11428560000007337,
            "durationTicks": 192,
            "midi": 50,
            "name": "D3",
            "ticks": 618720,
            "time": 368.285346,
            "velocity": 0.8267716535433071
          },
          {
            "duration": 0.11428560000001653,
            "durationTicks": 192,
            "midi": 50,
            "name": "D3",
            "ticks": 618960,
            "time": 368.42820300000005,
            "velocity": 0.8267716535433071
          },
          {
            "duration": 0.11428560000001653,
            "durationTicks": 192,
            "midi": 50,
            "name": "D3",
            "ticks": 619200,
            "time": 368.57106000000005,
            "velocity": 0.8267716535433071
          },
          {
            "duration": 0.11428560000001653,
            "durationTicks": 192,
            "midi": 50,
            "name": "D3",
            "ticks": 619440,
            "time": 368.71391700000004,
            "velocity": 0.8267716535433071
          },
          {
            "duration": 0.11428560000001653,
            "durationTicks": 192,
            "midi": 50,
            "name": "D3",
            "ticks": 619680,
            "time": 368.85677400000003,
            "velocity": 0.8267716535433071
          },
          {
            "duration": 0.11428560000001653,
            "durationTicks": 192,
            "midi": 50,
            "name": "D3",
            "ticks": 619920,
            "time": 368.999631,
            "velocity": 0.8267716535433071
          },
          {
            "duration": 0.11428560000001653,
            "durationTicks": 192,
            "midi": 50,
            "name": "D3",
            "ticks": 620160,
            "time": 369.142488,
            "velocity": 0.8267716535433071
          },
          {
            "duration": 0.11428560000007337,
            "durationTicks": 192,
            "midi": 50,
            "name": "D3",
            "ticks": 620400,
            "time": 369.285345,
            "velocity": 0.8267716535433071
          },
          {
            "duration": 0.11428560000001653,
            "durationTicks": 192,
            "midi": 50,
            "name": "D3",
            "ticks": 620640,
            "time": 369.42820200000006,
            "velocity": 0.8267716535433071
          },
          {
            "duration": 0.11428560000001653,
            "durationTicks": 192,
            "midi": 50,
            "name": "D3",
            "ticks": 620880,
            "time": 369.57105900000005,
            "velocity": 0.8267716535433071
          },
          {
            "duration": 0.11428560000001653,
            "durationTicks": 192,
            "midi": 50,
            "name": "D3",
            "ticks": 621120,
            "time": 369.71391600000004,
            "velocity": 0.8267716535433071
          },
          {
            "duration": 0.11428560000001653,
            "durationTicks": 192,
            "midi": 50,
            "name": "D3",
            "ticks": 621360,
            "time": 369.85677300000003,
            "velocity": 0.8267716535433071
          },
          {
            "duration": 0.11428560000001653,
            "durationTicks": 192,
            "midi": 50,
            "name": "D3",
            "ticks": 621600,
            "time": 369.99963,
            "velocity": 0.8267716535433071
          },
          {
            "duration": 0.11428560000001653,
            "durationTicks": 192,
            "midi": 50,
            "name": "D3",
            "ticks": 621840,
            "time": 370.142487,
            "velocity": 0.8267716535433071
          },
          {
            "duration": 0.11428560000007337,
            "durationTicks": 192,
            "midi": 50,
            "name": "D3",
            "ticks": 622080,
            "time": 370.285344,
            "velocity": 0.8267716535433071
          },
          {
            "duration": 0.11428560000001653,
            "durationTicks": 192,
            "midi": 50,
            "name": "D3",
            "ticks": 622320,
            "time": 370.42820100000006,
            "velocity": 0.8267716535433071
          },
          {
            "duration": 0.11428560000001653,
            "durationTicks": 192,
            "midi": 50,
            "name": "D3",
            "ticks": 622560,
            "time": 370.57105800000005,
            "velocity": 0.8267716535433071
          },
          {
            "duration": 0.11428560000001653,
            "durationTicks": 192,
            "midi": 50,
            "name": "D3",
            "ticks": 622800,
            "time": 370.71391500000004,
            "velocity": 0.8267716535433071
          },
          {
            "duration": 0.11428560000001653,
            "durationTicks": 192,
            "midi": 50,
            "name": "D3",
            "ticks": 623040,
            "time": 370.85677200000003,
            "velocity": 0.8267716535433071
          },
          {
            "duration": 0.11428560000001653,
            "durationTicks": 192,
            "midi": 50,
            "name": "D3",
            "ticks": 623280,
            "time": 370.999629,
            "velocity": 0.8267716535433071
          },
          {
            "duration": 0.11428560000001653,
            "durationTicks": 192,
            "midi": 50,
            "name": "D3",
            "ticks": 623520,
            "time": 371.142486,
            "velocity": 0.8267716535433071
          },
          {
            "duration": 0.11428560000001653,
            "durationTicks": 192,
            "midi": 50,
            "name": "D3",
            "ticks": 623760,
            "time": 371.285343,
            "velocity": 0.8267716535433071
          },
          {
            "duration": 0.22857120000003306,
            "durationTicks": 384,
            "midi": 50,
            "name": "D3",
            "ticks": 624000,
            "time": 371.4282,
            "velocity": 0.8267716535433071
          },
          {
            "duration": 0.22857119999997622,
            "durationTicks": 384,
            "midi": 50,
            "name": "D3",
            "ticks": 624960,
            "time": 371.99962800000003,
            "velocity": 0.7244094488188977
          },
          {
            "duration": 0.8571420000000103,
            "durationTicks": 1440,
            "midi": 60,
            "name": "C4",
            "ticks": 629760,
            "time": 374.85676800000005,
            "velocity": 0.4566929133858268
          },
          {
            "duration": 0.0714284999999677,
            "durationTicks": 120,
            "midi": 62,
            "name": "D4",
            "ticks": 631200,
            "time": 375.71391000000006,
            "velocity": 0.4566929133858268
          },
          {
            "duration": 0.07142850000002454,
            "durationTicks": 120,
            "midi": 60,
            "name": "C4",
            "ticks": 631320,
            "time": 375.7853385,
            "velocity": 0.4566929133858268
          },
          {
            "duration": 0.0714284999999677,
            "durationTicks": 120,
            "midi": 58,
            "name": "A#3",
            "ticks": 631440,
            "time": 375.85676700000005,
            "velocity": 0.4566929133858268
          },
          {
            "duration": 0.07142850000002454,
            "durationTicks": 120,
            "midi": 57,
            "name": "A3",
            "ticks": 631560,
            "time": 375.9281955,
            "velocity": 0.4566929133858268
          },
          {
            "duration": 0.22857119999997622,
            "durationTicks": 384,
            "midi": 55,
            "name": "G3",
            "ticks": 631680,
            "time": 375.99962400000004,
            "velocity": 0.4566929133858268
          },
          {
            "duration": 0.14285699999999224,
            "durationTicks": 240,
            "midi": 55,
            "name": "G3",
            "ticks": 641280,
            "time": 381.713904,
            "velocity": 0.4566929133858268
          },
          {
            "duration": 0.14285700000004908,
            "durationTicks": 240,
            "midi": 54,
            "name": "F#3",
            "ticks": 641520,
            "time": 381.856761,
            "velocity": 0.4566929133858268
          },
          {
            "duration": 0.14285699999999224,
            "durationTicks": 240,
            "midi": 57,
            "name": "A3",
            "ticks": 641760,
            "time": 381.99961800000005,
            "velocity": 0.4566929133858268
          },
          {
            "duration": 0.14285699999999224,
            "durationTicks": 240,
            "midi": 55,
            "name": "G3",
            "ticks": 642000,
            "time": 382.14247500000005,
            "velocity": 0.4566929133858268
          },
          {
            "duration": 0.14285699999999224,
            "durationTicks": 240,
            "midi": 58,
            "name": "A#3",
            "ticks": 642240,
            "time": 382.28533200000004,
            "velocity": 0.4566929133858268
          },
          {
            "duration": 0.14285699999999224,
            "durationTicks": 240,
            "midi": 57,
            "name": "A3",
            "ticks": 642480,
            "time": 382.42818900000003,
            "velocity": 0.4566929133858268
          },
          {
            "duration": 0.14285699999999224,
            "durationTicks": 240,
            "midi": 60,
            "name": "C4",
            "ticks": 642720,
            "time": 382.571046,
            "velocity": 0.4566929133858268
          },
          {
            "duration": 0.11428560000001653,
            "durationTicks": 192,
            "midi": 58,
            "name": "A#3",
            "ticks": 642960,
            "time": 382.713903,
            "velocity": 0.4566929133858268
          },
          {
            "duration": 0.8571420000000103,
            "durationTicks": 1440,
            "midi": 58,
            "name": "A#3",
            "ticks": 643200,
            "time": 382.85676,
            "velocity": 0.4566929133858268
          },
          {
            "duration": 0.8571420000000103,
            "durationTicks": 1440,
            "midi": 62,
            "name": "D4",
            "ticks": 643200,
            "time": 382.85676,
            "velocity": 0.4566929133858268
          },
          {
            "duration": 0.2857140000000413,
            "durationTicks": 480,
            "midi": 57,
            "name": "A3",
            "ticks": 644640,
            "time": 383.713902,
            "velocity": 0.4566929133858268
          },
          {
            "duration": 0.2857140000000413,
            "durationTicks": 480,
            "midi": 64,
            "name": "E4",
            "ticks": 644640,
            "time": 383.713902,
            "velocity": 0.4566929133858268
          },
          {
            "duration": 0.22857119999997622,
            "durationTicks": 384,
            "midi": 62,
            "name": "D4",
            "ticks": 645120,
            "time": 383.99961600000006,
            "velocity": 0.4566929133858268
          },
          {
            "duration": 0.22857119999997622,
            "durationTicks": 384,
            "midi": 66,
            "name": "F#4",
            "ticks": 645120,
            "time": 383.99961600000006,
            "velocity": 0.4566929133858268
          },
          {
            "duration": 0.2857139999999845,
            "durationTicks": 480,
            "midi": 53,
            "name": "F3",
            "ticks": 647520,
            "time": 385.42818600000004,
            "velocity": 0.4566929133858268
          },
          {
            "duration": 0.2857139999999845,
            "durationTicks": 480,
            "midi": 65,
            "name": "F4",
            "ticks": 647520,
            "time": 385.42818600000004,
            "velocity": 0.4566929133858268
          },
          {
            "duration": 0.2857139999999845,
            "durationTicks": 480,
            "midi": 52,
            "name": "E3",
            "ticks": 648000,
            "time": 385.7139,
            "velocity": 0.4566929133858268
          },
          {
            "duration": 0.2857139999999845,
            "durationTicks": 480,
            "midi": 64,
            "name": "E4",
            "ticks": 648000,
            "time": 385.7139,
            "velocity": 0.4566929133858268
          },
          {
            "duration": 0.22857120000003306,
            "durationTicks": 384,
            "midi": 51,
            "name": "D#3",
            "ticks": 648480,
            "time": 385.999614,
            "velocity": 0.4566929133858268
          },
          {
            "duration": 0.22857120000003306,
            "durationTicks": 384,
            "midi": 63,
            "name": "D#4",
            "ticks": 648480,
            "time": 385.999614,
            "velocity": 0.4566929133858268
          },
          {
            "duration": 0.45714239999995243,
            "durationTicks": 768,
            "midi": 50,
            "name": "D3",
            "ticks": 648960,
            "time": 386.28532800000005,
            "velocity": 0.4566929133858268
          },
          {
            "duration": 0.45714239999995243,
            "durationTicks": 768,
            "midi": 62,
            "name": "D4",
            "ticks": 648960,
            "time": 386.28532800000005,
            "velocity": 0.4566929133858268
          },
          {
            "duration": 0.6857135999999855,
            "durationTicks": 1152,
            "midi": 63,
            "name": "D#4",
            "ticks": 650880,
            "time": 387.42818400000004,
            "velocity": 0.4566929133858268
          },
          {
            "duration": 0.22857119999997622,
            "durationTicks": 384,
            "midi": 62,
            "name": "D4",
            "ticks": 652320,
            "time": 388.28532600000005,
            "velocity": 0.4566929133858268
          },
          {
            "duration": 0.22857119999997622,
            "durationTicks": 384,
            "midi": 61,
            "name": "C#4",
            "ticks": 652800,
            "time": 388.57104000000004,
            "velocity": 0.4566929133858268
          },
          {
            "duration": 0.22857119999997622,
            "durationTicks": 384,
            "midi": 60,
            "name": "C4",
            "ticks": 653280,
            "time": 388.856754,
            "velocity": 0.4566929133858268
          },
          {
            "duration": 0.22857120000003306,
            "durationTicks": 384,
            "midi": 59,
            "name": "B3",
            "ticks": 653760,
            "time": 389.142468,
            "velocity": 0.4566929133858268
          },
          {
            "duration": 0.22857119999997622,
            "durationTicks": 384,
            "midi": 58,
            "name": "A#3",
            "ticks": 654240,
            "time": 389.42818200000005,
            "velocity": 0.4566929133858268
          },
          {
            "duration": 0.5714280000000258,
            "durationTicks": 960,
            "midi": 53,
            "name": "F3",
            "ticks": 655200,
            "time": 389.99961,
            "velocity": 0.4566929133858268
          },
          {
            "duration": 0.5714280000000258,
            "durationTicks": 960,
            "midi": 56,
            "name": "G#3",
            "ticks": 655200,
            "time": 389.99961,
            "velocity": 0.4566929133858268
          },
          {
            "duration": 0.22857119999997622,
            "durationTicks": 384,
            "midi": 51,
            "name": "D#3",
            "ticks": 656160,
            "time": 390.57103800000004,
            "velocity": 0.4566929133858268
          },
          {
            "duration": 0.22857119999997622,
            "durationTicks": 384,
            "midi": 55,
            "name": "G3",
            "ticks": 656160,
            "time": 390.57103800000004,
            "velocity": 0.4566929133858268
          },
          {
            "duration": 0.5714280000000258,
            "durationTicks": 960,
            "midi": 53,
            "name": "F3",
            "ticks": 657120,
            "time": 391.142466,
            "velocity": 0.4566929133858268
          },
          {
            "duration": 0.5714280000000258,
            "durationTicks": 960,
            "midi": 56,
            "name": "G#3",
            "ticks": 657120,
            "time": 391.142466,
            "velocity": 0.4566929133858268
          },
          {
            "duration": 0.22857119999997622,
            "durationTicks": 384,
            "midi": 51,
            "name": "D#3",
            "ticks": 658080,
            "time": 391.71389400000004,
            "velocity": 0.4566929133858268
          },
          {
            "duration": 0.22857119999997622,
            "durationTicks": 384,
            "midi": 55,
            "name": "G3",
            "ticks": 658080,
            "time": 391.71389400000004,
            "velocity": 0.4566929133858268
          },
          {
            "duration": 0.5714280000000258,
            "durationTicks": 960,
            "midi": 53,
            "name": "F3",
            "ticks": 659040,
            "time": 392.285322,
            "velocity": 0.4566929133858268
          },
          {
            "duration": 0.5714280000000258,
            "durationTicks": 960,
            "midi": 56,
            "name": "G#3",
            "ticks": 659040,
            "time": 392.285322,
            "velocity": 0.4566929133858268
          },
          {
            "duration": 0.22857119999997622,
            "durationTicks": 384,
            "midi": 51,
            "name": "D#3",
            "ticks": 660000,
            "time": 392.85675000000003,
            "velocity": 0.4566929133858268
          },
          {
            "duration": 0.22857119999997622,
            "durationTicks": 384,
            "midi": 55,
            "name": "G3",
            "ticks": 660000,
            "time": 392.85675000000003,
            "velocity": 0.4566929133858268
          },
          {
            "duration": 0.571427999999969,
            "durationTicks": 960,
            "midi": 53,
            "name": "F3",
            "ticks": 660960,
            "time": 393.42817800000006,
            "velocity": 0.4566929133858268
          },
          {
            "duration": 0.571427999999969,
            "durationTicks": 960,
            "midi": 56,
            "name": "G#3",
            "ticks": 660960,
            "time": 393.42817800000006,
            "velocity": 0.4566929133858268
          },
          {
            "duration": 0.22857119999997622,
            "durationTicks": 384,
            "midi": 51,
            "name": "D#3",
            "ticks": 661920,
            "time": 393.999606,
            "velocity": 0.4566929133858268
          },
          {
            "duration": 0.22857119999997622,
            "durationTicks": 384,
            "midi": 55,
            "name": "G3",
            "ticks": 661920,
            "time": 393.999606,
            "velocity": 0.4566929133858268
          },
          {
            "duration": 0.9142848000000185,
            "durationTicks": 1536,
            "midi": 53,
            "name": "F3",
            "ticks": 662400,
            "time": 394.28532,
            "velocity": 0.5511811023622047
          },
          {
            "duration": 0.9142848000000185,
            "durationTicks": 1536,
            "midi": 56,
            "name": "G#3",
            "ticks": 662400,
            "time": 394.28532,
            "velocity": 0.5511811023622047
          },
          {
            "duration": 0.9142848000000185,
            "durationTicks": 1536,
            "midi": 56,
            "name": "G#3",
            "ticks": 664320,
            "time": 395.428176,
            "velocity": 0.7244094488188977
          },
          {
            "duration": 0.9142848000000185,
            "durationTicks": 1536,
            "midi": 62,
            "name": "D4",
            "ticks": 664320,
            "time": 395.428176,
            "velocity": 0.7244094488188977
          },
          {
            "duration": 0.45714239999995243,
            "durationTicks": 768,
            "midi": 57,
            "name": "A3",
            "ticks": 666240,
            "time": 396.57103200000006,
            "velocity": 0.8267716535433071
          },
          {
            "duration": 0.45714239999995243,
            "durationTicks": 768,
            "midi": 63,
            "name": "D#4",
            "ticks": 666240,
            "time": 396.57103200000006,
            "velocity": 0.8267716535433071
          },
          {
            "duration": 0.5142852000000175,
            "durationTicks": 864,
            "midi": 51,
            "name": "D#3",
            "ticks": 667200,
            "time": 397.14246,
            "velocity": 0.8267716535433071
          },
          {
            "duration": 0.22857119999997622,
            "durationTicks": 384,
            "midi": 60,
            "name": "C4",
            "ticks": 667200,
            "time": 397.14246,
            "velocity": 0.8267716535433071
          },
          {
            "duration": 0.22857120000003306,
            "durationTicks": 384,
            "midi": 57,
            "name": "A3",
            "ticks": 667680,
            "time": 397.428174,
            "velocity": 0.8267716535433071
          },
          {
            "duration": 0.571427999999969,
            "durationTicks": 960,
            "midi": 49,
            "name": "C#3",
            "ticks": 668160,
            "time": 397.71388800000005,
            "velocity": 0.8267716535433071
          },
          {
            "duration": 0.2857139999999845,
            "durationTicks": 480,
            "midi": 58,
            "name": "A#3",
            "ticks": 668160,
            "time": 397.71388800000005,
            "velocity": 0.8267716535433071
          },
          {
            "duration": 0.2857139999999845,
            "durationTicks": 480,
            "midi": 61,
            "name": "C#4",
            "ticks": 668640,
            "time": 397.99960200000004,
            "velocity": 0.8267716535433071
          },
          {
            "duration": 0.5714280000000258,
            "durationTicks": 960,
            "midi": 58,
            "name": "A#3",
            "ticks": 669120,
            "time": 398.285316,
            "velocity": 0.8267716535433071
          },
          {
            "duration": 1.1428559999999948,
            "durationTicks": 1920,
            "midi": 65,
            "name": "F4",
            "ticks": 669120,
            "time": 398.285316,
            "velocity": 0.8267716535433071
          },
          {
            "duration": 0.571427999999969,
            "durationTicks": 960,
            "midi": 59,
            "name": "B3",
            "ticks": 670080,
            "time": 398.85674400000005,
            "velocity": 0.8267716535433071
          },
          {
            "duration": 0.5142852000000175,
            "durationTicks": 864,
            "midi": 53,
            "name": "F3",
            "ticks": 671040,
            "time": 399.428172,
            "velocity": 0.8267716535433071
          },
          {
            "duration": 0.2857140000000413,
            "durationTicks": 480,
            "midi": 62,
            "name": "D4",
            "ticks": 671040,
            "time": 399.428172,
            "velocity": 0.8267716535433071
          },
          {
            "duration": 0.22857119999997622,
            "durationTicks": 384,
            "midi": 59,
            "name": "B3",
            "ticks": 671520,
            "time": 399.71388600000006,
            "velocity": 0.8267716535433071
          },
          {
            "duration": 0.571427999999969,
            "durationTicks": 960,
            "midi": 51,
            "name": "D#3",
            "ticks": 672000,
            "time": 399.99960000000004,
            "velocity": 0.8267716535433071
          },
          {
            "duration": 0.2857139999999845,
            "durationTicks": 480,
            "midi": 60,
            "name": "C4",
            "ticks": 672000,
            "time": 399.99960000000004,
            "velocity": 0.8267716535433071
          },
          {
            "duration": 0.2857139999999845,
            "durationTicks": 480,
            "midi": 63,
            "name": "D#4",
            "ticks": 672480,
            "time": 400.285314,
            "velocity": 0.8267716535433071
          },
          {
            "duration": 0.5714280000000258,
            "durationTicks": 960,
            "midi": 60,
            "name": "C4",
            "ticks": 672960,
            "time": 400.571028,
            "velocity": 0.8267716535433071
          },
          {
            "duration": 1.1428559999999948,
            "durationTicks": 1920,
            "midi": 67,
            "name": "G4",
            "ticks": 672960,
            "time": 400.571028,
            "velocity": 0.8267716535433071
          },
          {
            "duration": 0.571427999999969,
            "durationTicks": 960,
            "midi": 61,
            "name": "C#4",
            "ticks": 673920,
            "time": 401.14245600000004,
            "velocity": 0.8267716535433071
          },
          {
            "duration": 0.5142852000000175,
            "durationTicks": 864,
            "midi": 55,
            "name": "G3",
            "ticks": 674880,
            "time": 401.713884,
            "velocity": 0.8267716535433071
          },
          {
            "duration": 0.2857140000000413,
            "durationTicks": 480,
            "midi": 64,
            "name": "E4",
            "ticks": 674880,
            "time": 401.713884,
            "velocity": 0.8267716535433071
          },
          {
            "duration": 0.22857119999997622,
            "durationTicks": 384,
            "midi": 61,
            "name": "C#4",
            "ticks": 675360,
            "time": 401.99959800000005,
            "velocity": 0.8267716535433071
          },
          {
            "duration": 0.11428560000001653,
            "durationTicks": 192,
            "midi": 62,
            "name": "D4",
            "ticks": 675840,
            "time": 402.28531200000003,
            "velocity": 0.8267716535433071
          },
          {
            "duration": 0.11428560000001653,
            "durationTicks": 192,
            "midi": 62,
            "name": "D4",
            "ticks": 676080,
            "time": 402.428169,
            "velocity": 0.8267716535433071
          },
          {
            "duration": 0.11428560000001653,
            "durationTicks": 192,
            "midi": 62,
            "name": "D4",
            "ticks": 676320,
            "time": 402.571026,
            "velocity": 0.8267716535433071
          },
          {
            "duration": 0.11428560000007337,
            "durationTicks": 192,
            "midi": 62,
            "name": "D4",
            "ticks": 676560,
            "time": 402.713883,
            "velocity": 0.8267716535433071
          },
          {
            "duration": 0.11428560000001653,
            "durationTicks": 192,
            "midi": 62,
            "name": "D4",
            "ticks": 676800,
            "time": 402.85674000000006,
            "velocity": 0.8267716535433071
          },
          {
            "duration": 0.11428560000001653,
            "durationTicks": 192,
            "midi": 62,
            "name": "D4",
            "ticks": 677040,
            "time": 402.99959700000005,
            "velocity": 0.8267716535433071
          },
          {
            "duration": 0.11428560000001653,
            "durationTicks": 192,
            "midi": 62,
            "name": "D4",
            "ticks": 677280,
            "time": 403.14245400000004,
            "velocity": 0.8267716535433071
          },
          {
            "duration": 0.11428560000001653,
            "durationTicks": 192,
            "midi": 62,
            "name": "D4",
            "ticks": 677520,
            "time": 403.28531100000004,
            "velocity": 0.8267716535433071
          },
          {
            "duration": 0.11428560000001653,
            "durationTicks": 192,
            "midi": 50,
            "name": "D3",
            "ticks": 677760,
            "time": 403.428168,
            "velocity": 0.8267716535433071
          },
          {
            "duration": 0.11428560000001653,
            "durationTicks": 192,
            "midi": 50,
            "name": "D3",
            "ticks": 678000,
            "time": 403.571025,
            "velocity": 0.8267716535433071
          },
          {
            "duration": 0.11428560000007337,
            "durationTicks": 192,
            "midi": 50,
            "name": "D3",
            "ticks": 678240,
            "time": 403.713882,
            "velocity": 0.8267716535433071
          },
          {
            "duration": 0.11428560000001653,
            "durationTicks": 192,
            "midi": 50,
            "name": "D3",
            "ticks": 678480,
            "time": 403.85673900000006,
            "velocity": 0.8267716535433071
          },
          {
            "duration": 0.11428560000001653,
            "durationTicks": 192,
            "midi": 50,
            "name": "D3",
            "ticks": 678720,
            "time": 403.99959600000005,
            "velocity": 0.8267716535433071
          },
          {
            "duration": 0.11428560000001653,
            "durationTicks": 192,
            "midi": 50,
            "name": "D3",
            "ticks": 678960,
            "time": 404.14245300000005,
            "velocity": 0.8267716535433071
          },
          {
            "duration": 0.11428560000001653,
            "durationTicks": 192,
            "midi": 50,
            "name": "D3",
            "ticks": 679200,
            "time": 404.28531000000004,
            "velocity": 0.8267716535433071
          },
          {
            "duration": 0.11428560000001653,
            "durationTicks": 192,
            "midi": 50,
            "name": "D3",
            "ticks": 679440,
            "time": 404.42816700000003,
            "velocity": 0.8267716535433071
          },
          {
            "duration": 0.22857119999997622,
            "durationTicks": 384,
            "midi": 55,
            "name": "G3",
            "ticks": 679680,
            "time": 404.571024,
            "velocity": 0.7244094488188977
          },
          {
            "duration": 0.4571424000000093,
            "durationTicks": 768,
            "midi": 46,
            "name": "A#2",
            "ticks": 680160,
            "time": 404.856738,
            "velocity": 0.984251968503937
          },
          {
            "duration": 0.17142839999996795,
            "durationTicks": 288,
            "midi": 48,
            "name": "C3",
            "ticks": 681120,
            "time": 405.42816600000003,
            "velocity": 0.8267716535433071
          },
          {
            "duration": 0.17142839999996795,
            "durationTicks": 288,
            "midi": 49,
            "name": "C#3",
            "ticks": 681600,
            "time": 405.71388,
            "velocity": 0.8267716535433071
          },
          {
            "duration": 0.17142839999996795,
            "durationTicks": 288,
            "midi": 50,
            "name": "D3",
            "ticks": 682080,
            "time": 405.99959400000006,
            "velocity": 0.8267716535433071
          },
          {
            "duration": 0.17142839999996795,
            "durationTicks": 288,
            "midi": 51,
            "name": "D#3",
            "ticks": 682560,
            "time": 406.28530800000004,
            "velocity": 0.8267716535433071
          },
          {
            "duration": 0.17142839999996795,
            "durationTicks": 288,
            "midi": 52,
            "name": "E3",
            "ticks": 683040,
            "time": 406.571022,
            "velocity": 0.8267716535433071
          },
          {
            "duration": 0.22857120000003306,
            "durationTicks": 384,
            "midi": 53,
            "name": "F3",
            "ticks": 683520,
            "time": 406.856736,
            "velocity": 0.8267716535433071
          },
          {
            "duration": 0.22857119999997622,
            "durationTicks": 384,
            "midi": 55,
            "name": "G3",
            "ticks": 684480,
            "time": 407.42816400000004,
            "velocity": 0.8267716535433071
          },
          {
            "duration": 0.22857120000003306,
            "durationTicks": 384,
            "midi": 54,
            "name": "F#3",
            "ticks": 685440,
            "time": 407.999592,
            "velocity": 0.8267716535433071
          },
          {
            "duration": 0.22857120000003306,
            "durationTicks": 384,
            "midi": 57,
            "name": "A3",
            "ticks": 685440,
            "time": 407.999592,
            "velocity": 0.8267716535433071
          },
          {
            "duration": 0.22857119999997622,
            "durationTicks": 384,
            "midi": 55,
            "name": "G3",
            "ticks": 686400,
            "time": 408.57102000000003,
            "velocity": 0.8267716535433071
          },
          {
            "duration": 0.22857119999997622,
            "durationTicks": 384,
            "midi": 58,
            "name": "A#3",
            "ticks": 686400,
            "time": 408.57102000000003,
            "velocity": 0.8267716535433071
          },
          {
            "duration": 0.6571421999999529,
            "durationTicks": 1104,
            "midi": 63,
            "name": "D#4",
            "ticks": 687360,
            "time": 409.14244800000006,
            "velocity": 0.8267716535433071
          },
          {
            "duration": 0.08571419999998398,
            "durationTicks": 144,
            "midi": 62,
            "name": "D4",
            "ticks": 688560,
            "time": 409.856733,
            "velocity": 0.5511811023622047
          },
          {
            "duration": 0.08571419999998398,
            "durationTicks": 144,
            "midi": 60,
            "name": "C4",
            "ticks": 688800,
            "time": 409.99959,
            "velocity": 0.5511811023622047
          },
          {
            "duration": 0.08571419999998398,
            "durationTicks": 144,
            "midi": 58,
            "name": "A#3",
            "ticks": 689040,
            "time": 410.14244700000006,
            "velocity": 0.5511811023622047
          },
          {
            "duration": 0.08571419999998398,
            "durationTicks": 144,
            "midi": 57,
            "name": "A3",
            "ticks": 689280,
            "time": 410.28530400000005,
            "velocity": 0.5511811023622047
          },
          {
            "duration": 0.08571419999998398,
            "durationTicks": 144,
            "midi": 55,
            "name": "G3",
            "ticks": 689520,
            "time": 410.42816100000005,
            "velocity": 0.5511811023622047
          },
          {
            "duration": 0.08571419999998398,
            "durationTicks": 144,
            "midi": 54,
            "name": "F#3",
            "ticks": 689760,
            "time": 410.57101800000004,
            "velocity": 0.5511811023622047
          },
          {
            "duration": 0.08571419999998398,
            "durationTicks": 144,
            "midi": 51,
            "name": "D#3",
            "ticks": 690000,
            "time": 410.71387500000003,
            "velocity": 0.5511811023622047
          },
          {
            "duration": 0.08571419999998398,
            "durationTicks": 144,
            "midi": 50,
            "name": "D3",
            "ticks": 690240,
            "time": 410.856732,
            "velocity": 0.5511811023622047
          },
          {
            "duration": 0.08571419999998398,
            "durationTicks": 144,
            "midi": 48,
            "name": "C3",
            "ticks": 690480,
            "time": 410.999589,
            "velocity": 0.5511811023622047
          },
          {
            "duration": 0.08571420000004082,
            "durationTicks": 144,
            "midi": 46,
            "name": "A#2",
            "ticks": 690720,
            "time": 411.142446,
            "velocity": 0.5511811023622047
          },
          {
            "duration": 0.08571419999998398,
            "durationTicks": 144,
            "midi": 45,
            "name": "A2",
            "ticks": 690960,
            "time": 411.28530300000006,
            "velocity": 0.5511811023622047
          },
          {
            "duration": 0.22857119999997622,
            "durationTicks": 384,
            "midi": 43,
            "name": "G2",
            "ticks": 691200,
            "time": 411.42816000000005,
            "velocity": 0.4566929133858268
          },
          {
            "duration": 0.14285699999999224,
            "durationTicks": 240,
            "midi": 63,
            "name": "D#4",
            "ticks": 694560,
            "time": 413.42815800000005,
            "velocity": 0.6299212598425197
          },
          {
            "duration": 0.11428560000001653,
            "durationTicks": 192,
            "midi": 62,
            "name": "D4",
            "ticks": 694800,
            "time": 413.57101500000005,
            "velocity": 0.6299212598425197
          },
          {
            "duration": 0.22857119999997622,
            "durationTicks": 384,
            "midi": 62,
            "name": "D4",
            "ticks": 695040,
            "time": 413.71387200000004,
            "velocity": 0.6299212598425197
          },
          {
            "duration": 0.14285699999999224,
            "durationTicks": 240,
            "midi": 63,
            "name": "D#4",
            "ticks": 695520,
            "time": 413.999586,
            "velocity": 0.6299212598425197
          },
          {
            "duration": 0.11428560000007337,
            "durationTicks": 192,
            "midi": 62,
            "name": "D4",
            "ticks": 695760,
            "time": 414.142443,
            "velocity": 0.6299212598425197
          },
          {
            "duration": 0.22857120000003306,
            "durationTicks": 384,
            "midi": 62,
            "name": "D4",
            "ticks": 696000,
            "time": 414.2853,
            "velocity": 0.6299212598425197
          },
          {
            "duration": 0.14285699999999224,
            "durationTicks": 240,
            "midi": 51,
            "name": "D#3",
            "ticks": 698400,
            "time": 415.71387000000004,
            "velocity": 0.6299212598425197
          },
          {
            "duration": 0.14285699999999224,
            "durationTicks": 240,
            "midi": 63,
            "name": "D#4",
            "ticks": 698400,
            "time": 415.71387000000004,
            "velocity": 0.6299212598425197
          },
          {
            "duration": 0.11428560000001653,
            "durationTicks": 192,
            "midi": 50,
            "name": "D3",
            "ticks": 698640,
            "time": 415.85672700000003,
            "velocity": 0.5511811023622047
          },
          {
            "duration": 0.11428560000001653,
            "durationTicks": 192,
            "midi": 62,
            "name": "D4",
            "ticks": 698640,
            "time": 415.85672700000003,
            "velocity": 0.5511811023622047
          },
          {
            "duration": 0.22857119999997622,
            "durationTicks": 384,
            "midi": 50,
            "name": "D3",
            "ticks": 698880,
            "time": 415.999584,
            "velocity": 0.5511811023622047
          },
          {
            "duration": 0.22857119999997622,
            "durationTicks": 384,
            "midi": 62,
            "name": "D4",
            "ticks": 698880,
            "time": 415.999584,
            "velocity": 0.5511811023622047
          },
          {
            "duration": 0.14285700000004908,
            "durationTicks": 240,
            "midi": 51,
            "name": "D#3",
            "ticks": 699360,
            "time": 416.285298,
            "velocity": 0.5511811023622047
          },
          {
            "duration": 0.14285700000004908,
            "durationTicks": 240,
            "midi": 63,
            "name": "D#4",
            "ticks": 699360,
            "time": 416.285298,
            "velocity": 0.5511811023622047
          },
          {
            "duration": 0.11428560000001653,
            "durationTicks": 192,
            "midi": 50,
            "name": "D3",
            "ticks": 699600,
            "time": 416.42815500000006,
            "velocity": 0.5511811023622047
          },
          {
            "duration": 0.11428560000001653,
            "durationTicks": 192,
            "midi": 62,
            "name": "D4",
            "ticks": 699600,
            "time": 416.42815500000006,
            "velocity": 0.5511811023622047
          },
          {
            "duration": 0.22857119999997622,
            "durationTicks": 384,
            "midi": 50,
            "name": "D3",
            "ticks": 699840,
            "time": 416.57101200000005,
            "velocity": 0.5511811023622047
          },
          {
            "duration": 0.22857119999997622,
            "durationTicks": 384,
            "midi": 62,
            "name": "D4",
            "ticks": 699840,
            "time": 416.57101200000005,
            "velocity": 0.5511811023622047
          },
          {
            "duration": 0.11428560000001653,
            "durationTicks": 192,
            "midi": 55,
            "name": "G3",
            "ticks": 700800,
            "time": 417.14244,
            "velocity": 0.8267716535433071
          },
          {
            "duration": 0.11428560000007337,
            "durationTicks": 192,
            "midi": 55,
            "name": "G3",
            "ticks": 701040,
            "time": 417.285297,
            "velocity": 0.8267716535433071
          },
          {
            "duration": 0.11428560000007337,
            "durationTicks": 192,
            "midi": 55,
            "name": "G3",
            "ticks": 701280,
            "time": 417.428154,
            "velocity": 0.8267716535433071
          },
          {
            "duration": 0.11428560000001653,
            "durationTicks": 192,
            "midi": 55,
            "name": "G3",
            "ticks": 701520,
            "time": 417.57101100000006,
            "velocity": 0.8267716535433071
          },
          {
            "duration": 0.11428560000001653,
            "durationTicks": 192,
            "midi": 55,
            "name": "G3",
            "ticks": 701760,
            "time": 417.71386800000005,
            "velocity": 0.8267716535433071
          },
          {
            "duration": 0.11428560000001653,
            "durationTicks": 192,
            "midi": 55,
            "name": "G3",
            "ticks": 702000,
            "time": 417.85672500000004,
            "velocity": 0.8267716535433071
          },
          {
            "duration": 0.11428560000001653,
            "durationTicks": 192,
            "midi": 55,
            "name": "G3",
            "ticks": 702240,
            "time": 417.99958200000003,
            "velocity": 0.8267716535433071
          },
          {
            "duration": 0.11428560000001653,
            "durationTicks": 192,
            "midi": 55,
            "name": "G3",
            "ticks": 702480,
            "time": 418.142439,
            "velocity": 0.8267716535433071
          },
          {
            "duration": 0.11428560000001653,
            "durationTicks": 192,
            "midi": 60,
            "name": "C4",
            "ticks": 702720,
            "time": 418.285296,
            "velocity": 0.8267716535433071
          },
          {
            "duration": 0.11428560000007337,
            "durationTicks": 192,
            "midi": 60,
            "name": "C4",
            "ticks": 702960,
            "time": 418.428153,
            "velocity": 0.8267716535433071
          },
          {
            "duration": 0.11428560000001653,
            "durationTicks": 192,
            "midi": 60,
            "name": "C4",
            "ticks": 703200,
            "time": 418.57101000000006,
            "velocity": 0.8267716535433071
          },
          {
            "duration": 0.11428560000001653,
            "durationTicks": 192,
            "midi": 60,
            "name": "C4",
            "ticks": 703440,
            "time": 418.71386700000005,
            "velocity": 0.8267716535433071
          },
          {
            "duration": 0.11428560000001653,
            "durationTicks": 192,
            "midi": 60,
            "name": "C4",
            "ticks": 703680,
            "time": 418.85672400000004,
            "velocity": 0.8267716535433071
          },
          {
            "duration": 0.11428560000001653,
            "durationTicks": 192,
            "midi": 60,
            "name": "C4",
            "ticks": 703920,
            "time": 418.99958100000003,
            "velocity": 0.8267716535433071
          },
          {
            "duration": 0.11428560000001653,
            "durationTicks": 192,
            "midi": 60,
            "name": "C4",
            "ticks": 704160,
            "time": 419.142438,
            "velocity": 0.8267716535433071
          },
          {
            "duration": 0.11428560000001653,
            "durationTicks": 192,
            "midi": 60,
            "name": "C4",
            "ticks": 704400,
            "time": 419.285295,
            "velocity": 0.8267716535433071
          },
          {
            "duration": 0.11428560000007337,
            "durationTicks": 192,
            "midi": 62,
            "name": "D4",
            "ticks": 704640,
            "time": 419.428152,
            "velocity": 0.8267716535433071
          },
          {
            "duration": 0.11428560000001653,
            "durationTicks": 192,
            "midi": 62,
            "name": "D4",
            "ticks": 704880,
            "time": 419.57100900000006,
            "velocity": 0.8267716535433071
          },
          {
            "duration": 0.11428560000001653,
            "durationTicks": 192,
            "midi": 62,
            "name": "D4",
            "ticks": 705120,
            "time": 419.71386600000005,
            "velocity": 0.8267716535433071
          },
          {
            "duration": 0.11428560000001653,
            "durationTicks": 192,
            "midi": 62,
            "name": "D4",
            "ticks": 705360,
            "time": 419.85672300000004,
            "velocity": 0.8267716535433071
          },
          {
            "duration": 0.11428560000001653,
            "durationTicks": 192,
            "midi": 50,
            "name": "D3",
            "ticks": 705600,
            "time": 419.99958000000004,
            "velocity": 0.8267716535433071
          },
          {
            "duration": 0.11428560000001653,
            "durationTicks": 192,
            "midi": 50,
            "name": "D3",
            "ticks": 705840,
            "time": 420.14243700000003,
            "velocity": 0.8267716535433071
          },
          {
            "duration": 0.11428560000001653,
            "durationTicks": 192,
            "midi": 50,
            "name": "D3",
            "ticks": 706080,
            "time": 420.285294,
            "velocity": 0.8267716535433071
          },
          {
            "duration": 0.11428560000007337,
            "durationTicks": 192,
            "midi": 50,
            "name": "D3",
            "ticks": 706320,
            "time": 420.428151,
            "velocity": 0.8267716535433071
          },
          {
            "duration": 0.22857120000003306,
            "durationTicks": 384,
            "midi": 55,
            "name": "G3",
            "ticks": 706560,
            "time": 420.571008,
            "velocity": 0.7244094488188977
          },
          {
            "duration": 0.14285699999999224,
            "durationTicks": 240,
            "midi": 63,
            "name": "D#4",
            "ticks": 708000,
            "time": 421.42815,
            "velocity": 0.6299212598425197
          },
          {
            "duration": 0.11428560000007337,
            "durationTicks": 192,
            "midi": 62,
            "name": "D4",
            "ticks": 708240,
            "time": 421.571007,
            "velocity": 0.6299212598425197
          },
          {
            "duration": 0.22857119999997622,
            "durationTicks": 384,
            "midi": 62,
            "name": "D4",
            "ticks": 708480,
            "time": 421.71386400000006,
            "velocity": 0.6299212598425197
          },
          {
            "duration": 0.14285699999999224,
            "durationTicks": 240,
            "midi": 63,
            "name": "D#4",
            "ticks": 708960,
            "time": 421.99957800000004,
            "velocity": 0.6299212598425197
          },
          {
            "duration": 0.11428560000001653,
            "durationTicks": 192,
            "midi": 62,
            "name": "D4",
            "ticks": 709200,
            "time": 422.14243500000003,
            "velocity": 0.6299212598425197
          },
          {
            "duration": 0.22857119999997622,
            "durationTicks": 384,
            "midi": 62,
            "name": "D4",
            "ticks": 709440,
            "time": 422.285292,
            "velocity": 0.6299212598425197
          },
          {
            "duration": 0.14285699999999224,
            "durationTicks": 240,
            "midi": 51,
            "name": "D#3",
            "ticks": 711840,
            "time": 423.71386200000006,
            "velocity": 0.6299212598425197
          },
          {
            "duration": 0.14285699999999224,
            "durationTicks": 240,
            "midi": 63,
            "name": "D#4",
            "ticks": 711840,
            "time": 423.71386200000006,
            "velocity": 0.6299212598425197
          },
          {
            "duration": 0.11428560000001653,
            "durationTicks": 192,
            "midi": 50,
            "name": "D3",
            "ticks": 712080,
            "time": 423.85671900000006,
            "velocity": 0.6299212598425197
          },
          {
            "duration": 0.11428560000001653,
            "durationTicks": 192,
            "midi": 62,
            "name": "D4",
            "ticks": 712080,
            "time": 423.85671900000006,
            "velocity": 0.6299212598425197
          },
          {
            "duration": 0.22857119999997622,
            "durationTicks": 384,
            "midi": 50,
            "name": "D3",
            "ticks": 712320,
            "time": 423.99957600000005,
            "velocity": 0.6299212598425197
          },
          {
            "duration": 0.22857119999997622,
            "durationTicks": 384,
            "midi": 62,
            "name": "D4",
            "ticks": 712320,
            "time": 423.99957600000005,
            "velocity": 0.6299212598425197
          },
          {
            "duration": 0.14285699999999224,
            "durationTicks": 240,
            "midi": 51,
            "name": "D#3",
            "ticks": 712800,
            "time": 424.28529000000003,
            "velocity": 0.6299212598425197
          },
          {
            "duration": 0.14285699999999224,
            "durationTicks": 240,
            "midi": 63,
            "name": "D#4",
            "ticks": 712800,
            "time": 424.28529000000003,
            "velocity": 0.6299212598425197
          },
          {
            "duration": 0.11428560000001653,
            "durationTicks": 192,
            "midi": 50,
            "name": "D3",
            "ticks": 713040,
            "time": 424.428147,
            "velocity": 0.6299212598425197
          },
          {
            "duration": 0.11428560000001653,
            "durationTicks": 192,
            "midi": 62,
            "name": "D4",
            "ticks": 713040,
            "time": 424.428147,
            "velocity": 0.6299212598425197
          },
          {
            "duration": 0.22857120000003306,
            "durationTicks": 384,
            "midi": 50,
            "name": "D3",
            "ticks": 713280,
            "time": 424.571004,
            "velocity": 0.6299212598425197
          },
          {
            "duration": 0.22857120000003306,
            "durationTicks": 384,
            "midi": 62,
            "name": "D4",
            "ticks": 713280,
            "time": 424.571004,
            "velocity": 0.6299212598425197
          },
          {
            "duration": 0.11428560000001653,
            "durationTicks": 192,
            "midi": 55,
            "name": "G3",
            "ticks": 716160,
            "time": 426.28528800000004,
            "velocity": 0.8267716535433071
          },
          {
            "duration": 0.11428560000001653,
            "durationTicks": 192,
            "midi": 55,
            "name": "G3",
            "ticks": 716400,
            "time": 426.42814500000003,
            "velocity": 0.8267716535433071
          },
          {
            "duration": 0.11428560000001653,
            "durationTicks": 192,
            "midi": 55,
            "name": "G3",
            "ticks": 716640,
            "time": 426.571002,
            "velocity": 0.8267716535433071
          },
          {
            "duration": 0.11428560000007337,
            "durationTicks": 192,
            "midi": 55,
            "name": "G3",
            "ticks": 716880,
            "time": 426.713859,
            "velocity": 0.8267716535433071
          },
          {
            "duration": 0.11428560000001653,
            "durationTicks": 192,
            "midi": 55,
            "name": "G3",
            "ticks": 717120,
            "time": 426.85671600000006,
            "velocity": 0.8267716535433071
          },
          {
            "duration": 0.11428560000001653,
            "durationTicks": 192,
            "midi": 55,
            "name": "G3",
            "ticks": 717360,
            "time": 426.99957300000005,
            "velocity": 0.8267716535433071
          },
          {
            "duration": 0.11428560000001653,
            "durationTicks": 192,
            "midi": 55,
            "name": "G3",
            "ticks": 717600,
            "time": 427.14243000000005,
            "velocity": 0.8267716535433071
          },
          {
            "duration": 0.11428560000001653,
            "durationTicks": 192,
            "midi": 55,
            "name": "G3",
            "ticks": 717840,
            "time": 427.28528700000004,
            "velocity": 0.8267716535433071
          },
          {
            "duration": 0.11428560000001653,
            "durationTicks": 192,
            "midi": 60,
            "name": "C4",
            "ticks": 718080,
            "time": 427.42814400000003,
            "velocity": 0.8267716535433071
          },
          {
            "duration": 0.11428560000001653,
            "durationTicks": 192,
            "midi": 60,
            "name": "C4",
            "ticks": 718320,
            "time": 427.571001,
            "velocity": 0.8267716535433071
          },
          {
            "duration": 0.11428560000007337,
            "durationTicks": 192,
            "midi": 60,
            "name": "C4",
            "ticks": 718560,
            "time": 427.713858,
            "velocity": 0.8267716535433071
          },
          {
            "duration": 0.11428560000007337,
            "durationTicks": 192,
            "midi": 60,
            "name": "C4",
            "ticks": 718800,
            "time": 427.856715,
            "velocity": 0.8267716535433071
          },
          {
            "duration": 0.11428560000001653,
            "durationTicks": 192,
            "midi": 60,
            "name": "C4",
            "ticks": 719040,
            "time": 427.99957200000006,
            "velocity": 0.8267716535433071
          },
          {
            "duration": 0.11428560000001653,
            "durationTicks": 192,
            "midi": 60,
            "name": "C4",
            "ticks": 719280,
            "time": 428.14242900000005,
            "velocity": 0.8267716535433071
          },
          {
            "duration": 0.11428560000001653,
            "durationTicks": 192,
            "midi": 60,
            "name": "C4",
            "ticks": 719520,
            "time": 428.28528600000004,
            "velocity": 0.8267716535433071
          },
          {
            "duration": 0.11428560000001653,
            "durationTicks": 192,
            "midi": 60,
            "name": "C4",
            "ticks": 719760,
            "time": 428.42814300000003,
            "velocity": 0.8267716535433071
          },
          {
            "duration": 0.11428560000001653,
            "durationTicks": 192,
            "midi": 62,
            "name": "D4",
            "ticks": 720000,
            "time": 428.571,
            "velocity": 0.8267716535433071
          },
          {
            "duration": 0.11428560000001653,
            "durationTicks": 192,
            "midi": 62,
            "name": "D4",
            "ticks": 720240,
            "time": 428.713857,
            "velocity": 0.8267716535433071
          },
          {
            "duration": 0.11428560000007337,
            "durationTicks": 192,
            "midi": 62,
            "name": "D4",
            "ticks": 720480,
            "time": 428.856714,
            "velocity": 0.8267716535433071
          },
          {
            "duration": 0.11428560000001653,
            "durationTicks": 192,
            "midi": 62,
            "name": "D4",
            "ticks": 720720,
            "time": 428.99957100000006,
            "velocity": 0.8267716535433071
          },
          {
            "duration": 0.11428560000001653,
            "durationTicks": 192,
            "midi": 50,
            "name": "D3",
            "ticks": 720960,
            "time": 429.14242800000005,
            "velocity": 0.8267716535433071
          },
          {
            "duration": 0.11428560000001653,
            "durationTicks": 192,
            "midi": 50,
            "name": "D3",
            "ticks": 721200,
            "time": 429.28528500000004,
            "velocity": 0.8267716535433071
          },
          {
            "duration": 0.11428560000001653,
            "durationTicks": 192,
            "midi": 50,
            "name": "D3",
            "ticks": 721440,
            "time": 429.42814200000004,
            "velocity": 0.8267716535433071
          },
          {
            "duration": 0.11428560000001653,
            "durationTicks": 192,
            "midi": 50,
            "name": "D3",
            "ticks": 721680,
            "time": 429.57099900000003,
            "velocity": 0.8267716535433071
          },
          {
            "duration": 0.4571424000000093,
            "durationTicks": 768,
            "midi": 55,
            "name": "G3",
            "ticks": 721920,
            "time": 429.713856,
            "velocity": 0.8267716535433071
          },
          {
            "duration": 0.11428560000001653,
            "durationTicks": 192,
            "midi": 62,
            "name": "D4",
            "ticks": 723600,
            "time": 430.713855,
            "velocity": 0.8267716535433071
          },
          {
            "duration": 0.11428560000007337,
            "durationTicks": 192,
            "midi": 60,
            "name": "C4",
            "ticks": 723840,
            "time": 430.856712,
            "velocity": 0.8267716535433071
          },
          {
            "duration": 0.11428560000007337,
            "durationTicks": 192,
            "midi": 58,
            "name": "A#3",
            "ticks": 724080,
            "time": 430.999569,
            "velocity": 0.8267716535433071
          },
          {
            "duration": 0.11428560000001653,
            "durationTicks": 192,
            "midi": 57,
            "name": "A3",
            "ticks": 724320,
            "time": 431.14242600000006,
            "velocity": 0.8267716535433071
          },
          {
            "duration": 0.11428560000001653,
            "durationTicks": 192,
            "midi": 55,
            "name": "G3",
            "ticks": 724560,
            "time": 431.28528300000005,
            "velocity": 0.8267716535433071
          },
          {
            "duration": 0.11428560000001653,
            "durationTicks": 192,
            "midi": 54,
            "name": "F#3",
            "ticks": 724800,
            "time": 431.42814000000004,
            "velocity": 0.8267716535433071
          },
          {
            "duration": 0.11428560000001653,
            "durationTicks": 192,
            "midi": 51,
            "name": "D#3",
            "ticks": 725040,
            "time": 431.57099700000003,
            "velocity": 0.8267716535433071
          },
          {
            "duration": 0.11428560000001653,
            "durationTicks": 192,
            "midi": 50,
            "name": "D3",
            "ticks": 725280,
            "time": 431.713854,
            "velocity": 0.8267716535433071
          },
          {
            "duration": 0.11428560000001653,
            "durationTicks": 192,
            "midi": 48,
            "name": "C3",
            "ticks": 725520,
            "time": 431.856711,
            "velocity": 0.8267716535433071
          },
          {
            "duration": 0.18571410000004107,
            "durationTicks": 312,
            "midi": 46,
            "name": "A#2",
            "ticks": 725760,
            "time": 431.999568,
            "velocity": 0.8267716535433071
          },
          {
            "duration": 0.18571409999998423,
            "durationTicks": 312,
            "midi": 46,
            "name": "A#2",
            "ticks": 726240,
            "time": 432.28528200000005,
            "velocity": 0.8267716535433071
          },
          {
            "duration": 0.18571410000004107,
            "durationTicks": 312,
            "midi": 48,
            "name": "C3",
            "ticks": 726720,
            "time": 432.57099600000004,
            "velocity": 0.8267716535433071
          },
          {
            "duration": 0.18571410000004107,
            "durationTicks": 312,
            "midi": 50,
            "name": "D3",
            "ticks": 727200,
            "time": 432.85671,
            "velocity": 0.8267716535433071
          },
          {
            "duration": 0.11428560000001653,
            "durationTicks": 192,
            "midi": 55,
            "name": "G3",
            "ticks": 727680,
            "time": 433.14242400000006,
            "velocity": 0.8267716535433071
          },
          {
            "duration": 0.11428560000001653,
            "durationTicks": 192,
            "midi": 50,
            "name": "D3",
            "ticks": 727920,
            "time": 433.28528100000005,
            "velocity": 0.8267716535433071
          },
          {
            "duration": 0.11428560000001653,
            "durationTicks": 192,
            "midi": 58,
            "name": "A#3",
            "ticks": 728160,
            "time": 433.42813800000005,
            "velocity": 0.8267716535433071
          },
          {
            "duration": 0.11428560000001653,
            "durationTicks": 192,
            "midi": 57,
            "name": "A3",
            "ticks": 728400,
            "time": 433.57099500000004,
            "velocity": 0.8267716535433071
          },
          {
            "duration": 0.11428560000001653,
            "durationTicks": 192,
            "midi": 55,
            "name": "G3",
            "ticks": 728640,
            "time": 433.71385200000003,
            "velocity": 0.8267716535433071
          },
          {
            "duration": 0.11428560000001653,
            "durationTicks": 192,
            "midi": 53,
            "name": "F3",
            "ticks": 728880,
            "time": 433.856709,
            "velocity": 0.8267716535433071
          },
          {
            "duration": 0.11428560000007337,
            "durationTicks": 192,
            "midi": 51,
            "name": "D#3",
            "ticks": 729120,
            "time": 433.999566,
            "velocity": 0.8267716535433071
          },
          {
            "duration": 0.11428560000007337,
            "durationTicks": 192,
            "midi": 50,
            "name": "D3",
            "ticks": 729360,
            "time": 434.142423,
            "velocity": 0.8267716535433071
          },
          {
            "duration": 0.11428560000001653,
            "durationTicks": 192,
            "midi": 49,
            "name": "C#3",
            "ticks": 729600,
            "time": 434.28528000000006,
            "velocity": 0.8267716535433071
          },
          {
            "duration": 0.11428560000001653,
            "durationTicks": 192,
            "midi": 52,
            "name": "E3",
            "ticks": 729840,
            "time": 434.42813700000005,
            "velocity": 0.8267716535433071
          },
          {
            "duration": 0.11428560000001653,
            "durationTicks": 192,
            "midi": 57,
            "name": "A3",
            "ticks": 730080,
            "time": 434.57099400000004,
            "velocity": 0.8267716535433071
          },
          {
            "duration": 0.11428560000001653,
            "durationTicks": 192,
            "midi": 55,
            "name": "G3",
            "ticks": 730320,
            "time": 434.71385100000003,
            "velocity": 0.8267716535433071
          },
          {
            "duration": 0.11428560000001653,
            "durationTicks": 192,
            "midi": 54,
            "name": "F#3",
            "ticks": 730560,
            "time": 434.856708,
            "velocity": 0.8267716535433071
          },
          {
            "duration": 0.11428560000001653,
            "durationTicks": 192,
            "midi": 51,
            "name": "D#3",
            "ticks": 730800,
            "time": 434.999565,
            "velocity": 0.8267716535433071
          },
          {
            "duration": 0.11428560000007337,
            "durationTicks": 192,
            "midi": 50,
            "name": "D3",
            "ticks": 731040,
            "time": 435.142422,
            "velocity": 0.8267716535433071
          },
          {
            "duration": 0.11428560000001653,
            "durationTicks": 192,
            "midi": 48,
            "name": "C3",
            "ticks": 731280,
            "time": 435.28527900000006,
            "velocity": 0.8267716535433071
          },
          {
            "duration": 0.22857119999997622,
            "durationTicks": 384,
            "midi": 46,
            "name": "A#2",
            "ticks": 731520,
            "time": 435.42813600000005,
            "velocity": 0.8267716535433071
          },
          {
            "duration": 0.4632191999999691,
            "durationTicks": 768,
            "midi": 55,
            "name": "G3",
            "ticks": 732000,
            "time": 435.71385000000004,
            "velocity": 0.8267716535433071
          },
          {
            "duration": 0.5317420000000084,
            "durationTicks": 864,
            "midi": 56,
            "name": "G#3",
            "ticks": 732960,
            "time": 436.29357400000004,
            "velocity": 0.8267716535433071
          },
          {
            "duration": 0.47941179999997985,
            "durationTicks": 768,
            "midi": 57,
            "name": "A3",
            "ticks": 733920,
            "time": 436.88472200000007,
            "velocity": 0.8267716535433071
          },
          {
            "duration": 0.5507226000000287,
            "durationTicks": 864,
            "midi": 58,
            "name": "A#3",
            "ticks": 734880,
            "time": 437.48473700000005,
            "velocity": 0.8267716535433071
          },
          {
            "duration": 0.49936259999998356,
            "durationTicks": 768,
            "midi": 59,
            "name": "B3",
            "ticks": 735840,
            "time": 438.09699800000004,
            "velocity": 0.8267716535433071
          },
          {
            "duration": 0.5741447999999991,
            "durationTicks": 864,
            "midi": 60,
            "name": "C4",
            "ticks": 736800,
            "time": 438.72201500000006,
            "velocity": 0.8267716535433071
          },
          {
            "duration": 0.5182331999999974,
            "durationTicks": 768,
            "midi": 61,
            "name": "C#4",
            "ticks": 737760,
            "time": 439.36033100000003,
            "velocity": 0.8267716535433071
          },
          {
            "duration": 0.06593399999997018,
            "durationTicks": 96,
            "midi": 50,
            "name": "D3",
            "ticks": 739080,
            "time": 440.2562515,
            "velocity": 0.5511811023622047
          },
          {
            "duration": 0.06593399999997018,
            "durationTicks": 96,
            "midi": 62,
            "name": "D4",
            "ticks": 739080,
            "time": 440.2562515,
            "velocity": 0.5511811023622047
          },
          {
            "duration": 2.339999999999975,
            "durationTicks": 3744,
            "midi": 50,
            "name": "D3",
            "ticks": 739200,
            "time": 440.33866900000004,
            "velocity": 0.4566929133858268
          },
          {
            "duration": 2.6399999999999864,
            "durationTicks": 4224,
            "midi": 62,
            "name": "D4",
            "ticks": 739200,
            "time": 440.33866900000004,
            "velocity": 0.4566929133858268
          },
          {
            "duration": 0.2400000000000091,
            "durationTicks": 384,
            "midi": 55,
            "name": "G3",
            "ticks": 743040,
            "time": 442.738669,
            "velocity": 0.4566929133858268
          },
          {
            "duration": 0.14999999999997726,
            "durationTicks": 240,
            "midi": 63,
            "name": "D#4",
            "ticks": 752160,
            "time": 448.43866900000006,
            "velocity": 0.5511811023622047
          },
          {
            "duration": 0.12000000000000455,
            "durationTicks": 192,
            "midi": 62,
            "name": "D4",
            "ticks": 752400,
            "time": 448.58866900000004,
            "velocity": 0.5511811023622047
          },
          {
            "duration": 0.2400000000000091,
            "durationTicks": 384,
            "midi": 62,
            "name": "D4",
            "ticks": 752640,
            "time": 448.738669,
            "velocity": 0.5511811023622047
          },
          {
            "duration": 0.1500000000000341,
            "durationTicks": 240,
            "midi": 63,
            "name": "D#4",
            "ticks": 753120,
            "time": 449.038669,
            "velocity": 0.5511811023622047
          },
          {
            "duration": 0.1199999999999477,
            "durationTicks": 192,
            "midi": 62,
            "name": "D4",
            "ticks": 753360,
            "time": 449.18866900000006,
            "velocity": 0.5511811023622047
          },
          {
            "duration": 0.2400000000000091,
            "durationTicks": 384,
            "midi": 62,
            "name": "D4",
            "ticks": 753600,
            "time": 449.33866900000004,
            "velocity": 0.5511811023622047
          },
          {
            "duration": 0.14999999999997726,
            "durationTicks": 240,
            "midi": 63,
            "name": "D#4",
            "ticks": 754080,
            "time": 449.63866900000005,
            "velocity": 0.5511811023622047
          },
          {
            "duration": 0.12000000000000455,
            "durationTicks": 192,
            "midi": 62,
            "name": "D4",
            "ticks": 754320,
            "time": 449.788669,
            "velocity": 0.5511811023622047
          },
          {
            "duration": 0.1999998000000005,
            "durationTicks": 336,
            "midi": 50,
            "name": "D3",
            "ticks": 754560,
            "time": 449.93866900000006,
            "velocity": 0.8267716535433071
          },
          {
            "duration": 0.1999998000000005,
            "durationTicks": 336,
            "midi": 62,
            "name": "D4",
            "ticks": 754560,
            "time": 449.93866900000006,
            "velocity": 0.8267716535433071
          },
          {
            "duration": 0.09999990000000025,
            "durationTicks": 168,
            "midi": 55,
            "name": "G3",
            "ticks": 755040,
            "time": 450.22438300000005,
            "velocity": 0.8267716535433071
          },
          {
            "duration": 0.09999990000000025,
            "durationTicks": 168,
            "midi": 58,
            "name": "A#3",
            "ticks": 755040,
            "time": 450.22438300000005,
            "velocity": 0.8267716535433071
          },
          {
            "duration": 0.09999990000000025,
            "durationTicks": 168,
            "midi": 55,
            "name": "G3",
            "ticks": 755280,
            "time": 450.36724000000004,
            "velocity": 0.8267716535433071
          },
          {
            "duration": 0.09999990000000025,
            "durationTicks": 168,
            "midi": 58,
            "name": "A#3",
            "ticks": 755280,
            "time": 450.36724000000004,
            "velocity": 0.8267716535433071
          },
          {
            "duration": 0.1999998000000005,
            "durationTicks": 336,
            "midi": 57,
            "name": "A3",
            "ticks": 755520,
            "time": 450.5100970000001,
            "velocity": 0.8267716535433071
          },
          {
            "duration": 0.1999998000000005,
            "durationTicks": 336,
            "midi": 60,
            "name": "C4",
            "ticks": 755520,
            "time": 450.5100970000001,
            "velocity": 0.8267716535433071
          },
          {
            "duration": 0.09999990000000025,
            "durationTicks": 168,
            "midi": 57,
            "name": "A3",
            "ticks": 756000,
            "time": 450.79581100000007,
            "velocity": 0.8267716535433071
          },
          {
            "duration": 0.09999990000000025,
            "durationTicks": 168,
            "midi": 60,
            "name": "C4",
            "ticks": 756000,
            "time": 450.79581100000007,
            "velocity": 0.8267716535433071
          },
          {
            "duration": 0.09999990000000025,
            "durationTicks": 168,
            "midi": 57,
            "name": "A3",
            "ticks": 756240,
            "time": 450.93866800000006,
            "velocity": 0.8267716535433071
          },
          {
            "duration": 0.09999990000000025,
            "durationTicks": 168,
            "midi": 60,
            "name": "C4",
            "ticks": 756240,
            "time": 450.93866800000006,
            "velocity": 0.8267716535433071
          },
          {
            "duration": 0.1999998000000005,
            "durationTicks": 336,
            "midi": 55,
            "name": "G3",
            "ticks": 756480,
            "time": 451.08152500000006,
            "velocity": 0.8267716535433071
          },
          {
            "duration": 0.1999998000000005,
            "durationTicks": 336,
            "midi": 58,
            "name": "A#3",
            "ticks": 756480,
            "time": 451.08152500000006,
            "velocity": 0.8267716535433071
          },
          {
            "duration": 0.09999990000000025,
            "durationTicks": 168,
            "midi": 55,
            "name": "G3",
            "ticks": 756960,
            "time": 451.36723900000004,
            "velocity": 0.8267716535433071
          },
          {
            "duration": 0.09999990000000025,
            "durationTicks": 168,
            "midi": 58,
            "name": "A#3",
            "ticks": 756960,
            "time": 451.36723900000004,
            "velocity": 0.8267716535433071
          },
          {
            "duration": 0.09999989999994341,
            "durationTicks": 168,
            "midi": 55,
            "name": "G3",
            "ticks": 757200,
            "time": 451.5100960000001,
            "velocity": 0.8267716535433071
          },
          {
            "duration": 0.09999989999994341,
            "durationTicks": 168,
            "midi": 58,
            "name": "A#3",
            "ticks": 757200,
            "time": 451.5100960000001,
            "velocity": 0.8267716535433071
          },
          {
            "duration": 0.1999998000000005,
            "durationTicks": 336,
            "midi": 57,
            "name": "A3",
            "ticks": 757440,
            "time": 451.6529530000001,
            "velocity": 0.8267716535433071
          },
          {
            "duration": 0.1999998000000005,
            "durationTicks": 336,
            "midi": 60,
            "name": "C4",
            "ticks": 757440,
            "time": 451.6529530000001,
            "velocity": 0.8267716535433071
          },
          {
            "duration": 0.09999990000000025,
            "durationTicks": 168,
            "midi": 57,
            "name": "A3",
            "ticks": 757920,
            "time": 451.93866700000007,
            "velocity": 0.8267716535433071
          },
          {
            "duration": 0.09999990000000025,
            "durationTicks": 168,
            "midi": 60,
            "name": "C4",
            "ticks": 757920,
            "time": 451.93866700000007,
            "velocity": 0.8267716535433071
          },
          {
            "duration": 0.09999990000000025,
            "durationTicks": 168,
            "midi": 57,
            "name": "A3",
            "ticks": 758160,
            "time": 452.08152400000006,
            "velocity": 0.8267716535433071
          },
          {
            "duration": 0.09999990000000025,
            "durationTicks": 168,
            "midi": 60,
            "name": "C4",
            "ticks": 758160,
            "time": 452.08152400000006,
            "velocity": 0.8267716535433071
          },
          {
            "duration": 0.1999998000000005,
            "durationTicks": 336,
            "midi": 55,
            "name": "G3",
            "ticks": 758400,
            "time": 452.22438100000005,
            "velocity": 0.8267716535433071
          },
          {
            "duration": 0.1999998000000005,
            "durationTicks": 336,
            "midi": 58,
            "name": "A#3",
            "ticks": 758400,
            "time": 452.22438100000005,
            "velocity": 0.8267716535433071
          },
          {
            "duration": 0.09999990000000025,
            "durationTicks": 168,
            "midi": 55,
            "name": "G3",
            "ticks": 758880,
            "time": 452.51009500000004,
            "velocity": 0.8267716535433071
          },
          {
            "duration": 0.09999990000000025,
            "durationTicks": 168,
            "midi": 58,
            "name": "A#3",
            "ticks": 758880,
            "time": 452.51009500000004,
            "velocity": 0.8267716535433071
          },
          {
            "duration": 0.09999990000000025,
            "durationTicks": 168,
            "midi": 55,
            "name": "G3",
            "ticks": 759120,
            "time": 452.6529520000001,
            "velocity": 0.8267716535433071
          },
          {
            "duration": 0.09999990000000025,
            "durationTicks": 168,
            "midi": 58,
            "name": "A#3",
            "ticks": 759120,
            "time": 452.6529520000001,
            "velocity": 0.8267716535433071
          },
          {
            "duration": 0.1999998000000005,
            "durationTicks": 336,
            "midi": 57,
            "name": "A3",
            "ticks": 759360,
            "time": 452.7958090000001,
            "velocity": 0.8267716535433071
          },
          {
            "duration": 0.1999998000000005,
            "durationTicks": 336,
            "midi": 60,
            "name": "C4",
            "ticks": 759360,
            "time": 452.7958090000001,
            "velocity": 0.8267716535433071
          },
          {
            "duration": 0.09999990000000025,
            "durationTicks": 168,
            "midi": 57,
            "name": "A3",
            "ticks": 759840,
            "time": 453.08152300000006,
            "velocity": 0.8267716535433071
          },
          {
            "duration": 0.09999990000000025,
            "durationTicks": 168,
            "midi": 60,
            "name": "C4",
            "ticks": 759840,
            "time": 453.08152300000006,
            "velocity": 0.8267716535433071
          },
          {
            "duration": 0.09999990000000025,
            "durationTicks": 168,
            "midi": 57,
            "name": "A3",
            "ticks": 760080,
            "time": 453.22438000000005,
            "velocity": 0.8267716535433071
          },
          {
            "duration": 0.09999990000000025,
            "durationTicks": 168,
            "midi": 60,
            "name": "C4",
            "ticks": 760080,
            "time": 453.22438000000005,
            "velocity": 0.8267716535433071
          },
          {
            "duration": 0.1999998000000005,
            "durationTicks": 336,
            "midi": 55,
            "name": "G3",
            "ticks": 760320,
            "time": 453.36723700000005,
            "velocity": 0.8267716535433071
          },
          {
            "duration": 0.1999998000000005,
            "durationTicks": 336,
            "midi": 58,
            "name": "A#3",
            "ticks": 760320,
            "time": 453.36723700000005,
            "velocity": 0.8267716535433071
          },
          {
            "duration": 0.1999998000000005,
            "durationTicks": 336,
            "midi": 57,
            "name": "A3",
            "ticks": 760800,
            "time": 453.6529510000001,
            "velocity": 0.8267716535433071
          },
          {
            "duration": 0.1999998000000005,
            "durationTicks": 336,
            "midi": 66,
            "name": "F#4",
            "ticks": 760800,
            "time": 453.6529510000001,
            "velocity": 0.8267716535433071
          },
          {
            "duration": 0.1999998000000005,
            "durationTicks": 336,
            "midi": 58,
            "name": "A#3",
            "ticks": 761280,
            "time": 453.93866500000007,
            "velocity": 0.8267716535433071
          },
          {
            "duration": 0.1999998000000005,
            "durationTicks": 336,
            "midi": 67,
            "name": "G4",
            "ticks": 761280,
            "time": 453.93866500000007,
            "velocity": 0.8267716535433071
          },
          {
            "duration": 0.1999998000000005,
            "durationTicks": 336,
            "midi": 57,
            "name": "A3",
            "ticks": 761760,
            "time": 454.22437900000006,
            "velocity": 0.8267716535433071
          },
          {
            "duration": 0.1999998000000005,
            "durationTicks": 336,
            "midi": 66,
            "name": "F#4",
            "ticks": 761760,
            "time": 454.22437900000006,
            "velocity": 0.8267716535433071
          },
          {
            "duration": 0.25263119999999617,
            "durationTicks": 384,
            "midi": 58,
            "name": "A#3",
            "ticks": 762240,
            "time": 454.51009300000004,
            "velocity": 0.8267716535433071
          },
          {
            "duration": 0.25263119999999617,
            "durationTicks": 384,
            "midi": 67,
            "name": "G4",
            "ticks": 762240,
            "time": 454.51009300000004,
            "velocity": 0.8267716535433071
          },
          {
            "duration": 0.2666664000000196,
            "durationTicks": 384,
            "midi": 55,
            "name": "G3",
            "ticks": 764160,
            "time": 455.773249,
            "velocity": 0.8267716535433071
          },
          {
            "duration": 0.2666664000000196,
            "durationTicks": 384,
            "midi": 62,
            "name": "D4",
            "ticks": 764160,
            "time": 455.773249,
            "velocity": 0.8267716535433071
          },
          {
            "duration": 0.29090880000001107,
            "durationTicks": 384,
            "midi": 55,
            "name": "G3",
            "ticks": 765120,
            "time": 456.455419,
            "velocity": 0.8267716535433071
          },
          {
            "duration": 0.29090880000001107,
            "durationTicks": 384,
            "midi": 62,
            "name": "D4",
            "ticks": 765120,
            "time": 456.455419,
            "velocity": 0.8267716535433071
          },
          {
            "duration": 0.75,
            "durationTicks": 960,
            "midi": 43,
            "name": "G2",
            "ticks": 766080,
            "time": 457.201221,
            "velocity": 0.8267716535433071
          },
          {
            "duration": 0.75,
            "durationTicks": 960,
            "midi": 62,
            "name": "D4",
            "ticks": 766080,
            "time": 457.201221,
            "velocity": 0.8267716535433071
          }
        ]
      },
      {
        "channel": 0,
        "controlChanges": {},
        "pitchBends": [],
        "instrument": {
          "family": "piano",
          "number": 0,
          "name": "acoustic grand piano"
        },
        "name": "k550_1",
        "notes": [],
        "endOfTrackTicks": 768000
      },
      {
        "channel": 3,
        "controlChanges": {
          "7": [
            {
              "number": 7,
              "ticks": 0,
              "time": 0,
              "value": 0.937007874015748
            }
          ],
          "10": [
            {
              "number": 10,
              "ticks": 0,
              "time": 0,
              "value": 0.7244094488188977
            }
          ],
          "91": [
            {
              "number": 91,
              "ticks": 0,
              "time": 0,
              "value": 0.5511811023622047
            }
          ]
        },
        "pitchBends": [],
        "instrument": {
          "family": "brass",
          "number": 60,
          "name": "french horn"
        },
        "name": "",
        "notes": [
          {
            "duration": 0.5714280000000009,
            "durationTicks": 960,
            "midi": 55,
            "name": "G3",
            "ticks": 31680,
            "time": 18.857124000000002,
            "velocity": 0.8267716535433071
          },
          {
            "duration": 0.5714280000000009,
            "durationTicks": 960,
            "midi": 70,
            "name": "A#4",
            "ticks": 31680,
            "time": 18.857124000000002,
            "velocity": 0.8267716535433071
          },
          {
            "duration": 0.22857119999999753,
            "durationTicks": 384,
            "midi": 57,
            "name": "A3",
            "ticks": 32640,
            "time": 19.428552000000003,
            "velocity": 0.8267716535433071
          },
          {
            "duration": 0.22857119999999753,
            "durationTicks": 384,
            "midi": 74,
            "name": "D5",
            "ticks": 32640,
            "time": 19.428552000000003,
            "velocity": 0.8267716535433071
          },
          {
            "duration": 0.5714280000000009,
            "durationTicks": 960,
            "midi": 55,
            "name": "G3",
            "ticks": 33600,
            "time": 19.99998,
            "velocity": 0.8267716535433071
          },
          {
            "duration": 0.5714280000000009,
            "durationTicks": 960,
            "midi": 70,
            "name": "A#4",
            "ticks": 33600,
            "time": 19.99998,
            "velocity": 0.8267716535433071
          },
          {
            "duration": 0.22857119999999753,
            "durationTicks": 384,
            "midi": 57,
            "name": "A3",
            "ticks": 34560,
            "time": 20.571408,
            "velocity": 0.8267716535433071
          },
          {
            "duration": 0.22857119999999753,
            "durationTicks": 384,
            "midi": 74,
            "name": "D5",
            "ticks": 34560,
            "time": 20.571408,
            "velocity": 0.8267716535433071
          },
          {
            "duration": 0.5714279999999974,
            "durationTicks": 960,
            "midi": 55,
            "name": "G3",
            "ticks": 35520,
            "time": 21.142836000000003,
            "velocity": 0.8267716535433071
          },
          {
            "duration": 0.5714279999999974,
            "durationTicks": 960,
            "midi": 70,
            "name": "A#4",
            "ticks": 35520,
            "time": 21.142836000000003,
            "velocity": 0.8267716535433071
          },
          {
            "duration": 0.17142839999999993,
            "durationTicks": 288,
            "midi": 57,
            "name": "A3",
            "ticks": 36480,
            "time": 21.714264,
            "velocity": 0.8267716535433071
          },
          {
            "duration": 0.17142839999999993,
            "durationTicks": 288,
            "midi": 74,
            "name": "D5",
            "ticks": 36480,
            "time": 21.714264,
            "velocity": 0.8267716535433071
          },
          {
            "duration": 0.17142839999999637,
            "durationTicks": 288,
            "midi": 55,
            "name": "G3",
            "ticks": 36960,
            "time": 21.999978000000002,
            "velocity": 0.8267716535433071
          },
          {
            "duration": 0.17142839999999637,
            "durationTicks": 288,
            "midi": 70,
            "name": "A#4",
            "ticks": 36960,
            "time": 21.999978000000002,
            "velocity": 0.8267716535433071
          },
          {
            "duration": 0.17142839999999993,
            "durationTicks": 288,
            "midi": 57,
            "name": "A3",
            "ticks": 37440,
            "time": 22.285692,
            "velocity": 0.8267716535433071
          },
          {
            "duration": 0.17142839999999993,
            "durationTicks": 288,
            "midi": 74,
            "name": "D5",
            "ticks": 37440,
            "time": 22.285692,
            "velocity": 0.8267716535433071
          },
          {
            "duration": 0.17142839999999637,
            "durationTicks": 288,
            "midi": 55,
            "name": "G3",
            "ticks": 37920,
            "time": 22.571406000000003,
            "velocity": 0.8267716535433071
          },
          {
            "duration": 0.17142839999999637,
            "durationTicks": 288,
            "midi": 70,
            "name": "A#4",
            "ticks": 37920,
            "time": 22.571406000000003,
            "velocity": 0.8267716535433071
          },
          {
            "duration": 0.4571423999999986,
            "durationTicks": 768,
            "midi": 57,
            "name": "A3",
            "ticks": 38400,
            "time": 22.857120000000002,
            "velocity": 0.8267716535433071
          },
          {
            "duration": 0.4571423999999986,
            "durationTicks": 768,
            "midi": 74,
            "name": "D5",
            "ticks": 38400,
            "time": 22.857120000000002,
            "velocity": 0.8267716535433071
          },
          {
            "duration": 0.9142848000000043,
            "durationTicks": 1536,
            "midi": 70,
            "name": "A#4",
            "ticks": 53760,
            "time": 31.999968000000003,
            "velocity": 0.8267716535433071
          },
          {
            "duration": 0.9142847999999972,
            "durationTicks": 1536,
            "midi": 65,
            "name": "F4",
            "ticks": 55680,
            "time": 33.142824000000005,
            "velocity": 0.8267716535433071
          },
          {
            "duration": 0.45714240000000217,
            "durationTicks": 768,
            "midi": 58,
            "name": "A#3",
            "ticks": 57600,
            "time": 34.28568,
            "velocity": 0.8267716535433071
          },
          {
            "duration": 0.34285679999999985,
            "durationTicks": 576,
            "midi": 58,
            "name": "A#3",
            "ticks": 58560,
            "time": 34.857108000000004,
            "velocity": 0.8267716535433071
          },
          {
            "duration": 0.11428560000000232,
            "durationTicks": 192,
            "midi": 58,
            "name": "A#3",
            "ticks": 59280,
            "time": 35.285679,
            "velocity": 0.8267716535433071
          },
          {
            "duration": 0.9142848000000043,
            "durationTicks": 1536,
            "midi": 58,
            "name": "A#3",
            "ticks": 59520,
            "time": 35.428536,
            "velocity": 0.8267716535433071
          },
          {
            "duration": 0.9142847999999901,
            "durationTicks": 1536,
            "midi": 55,
            "name": "G3",
            "ticks": 65280,
            "time": 38.85710400000001,
            "velocity": 0.8818897637795275
          },
          {
            "duration": 0.9142847999999901,
            "durationTicks": 1536,
            "midi": 58,
            "name": "A#3",
            "ticks": 65280,
            "time": 38.85710400000001,
            "velocity": 0.7244094488188977
          },
          {
            "duration": 0.45714240000000217,
            "durationTicks": 768,
            "midi": 55,
            "name": "G3",
            "ticks": 67200,
            "time": 39.99996,
            "velocity": 0.8818897637795275
          },
          {
            "duration": 0.45714240000000217,
            "durationTicks": 768,
            "midi": 58,
            "name": "A#3",
            "ticks": 67200,
            "time": 39.99996,
            "velocity": 0.7244094488188977
          },
          {
            "duration": 0.45714239999999506,
            "durationTicks": 768,
            "midi": 55,
            "name": "G3",
            "ticks": 68160,
            "time": 40.571388000000006,
            "velocity": 0.8818897637795275
          },
          {
            "duration": 0.45714239999999506,
            "durationTicks": 768,
            "midi": 58,
            "name": "A#3",
            "ticks": 68160,
            "time": 40.571388000000006,
            "velocity": 0.7244094488188977
          },
          {
            "duration": 0.45714239999999506,
            "durationTicks": 768,
            "midi": 55,
            "name": "G3",
            "ticks": 69120,
            "time": 41.142816,
            "velocity": 0.8818897637795275
          },
          {
            "duration": 0.45714239999999506,
            "durationTicks": 768,
            "midi": 58,
            "name": "A#3",
            "ticks": 69120,
            "time": 41.142816,
            "velocity": 0.7244094488188977
          },
          {
            "duration": 0.45714240000000217,
            "durationTicks": 768,
            "midi": 55,
            "name": "G3",
            "ticks": 70080,
            "time": 41.714244,
            "velocity": 0.8818897637795275
          },
          {
            "duration": 0.45714240000000217,
            "durationTicks": 768,
            "midi": 58,
            "name": "A#3",
            "ticks": 70080,
            "time": 41.714244,
            "velocity": 0.7244094488188977
          },
          {
            "duration": 0.9142847999999972,
            "durationTicks": 1536,
            "midi": 55,
            "name": "G3",
            "ticks": 71040,
            "time": 42.285672000000005,
            "velocity": 0.8818897637795275
          },
          {
            "duration": 0.9142847999999972,
            "durationTicks": 1536,
            "midi": 58,
            "name": "A#3",
            "ticks": 71040,
            "time": 42.285672000000005,
            "velocity": 0.7244094488188977
          },
          {
            "duration": 0.9142847999999972,
            "durationTicks": 1536,
            "midi": 65,
            "name": "F4",
            "ticks": 72960,
            "time": 43.428528,
            "velocity": 0.8267716535433071
          },
          {
            "duration": 0.45714240000000217,
            "durationTicks": 768,
            "midi": 65,
            "name": "F4",
            "ticks": 74880,
            "time": 44.571384,
            "velocity": 0.8267716535433071
          },
          {
            "duration": 0.45714239999999506,
            "durationTicks": 768,
            "midi": 65,
            "name": "F4",
            "ticks": 75840,
            "time": 45.142812000000006,
            "velocity": 0.8267716535433071
          },
          {
            "duration": 0.45714239999999506,
            "durationTicks": 768,
            "midi": 65,
            "name": "F4",
            "ticks": 76800,
            "time": 45.714240000000004,
            "velocity": 0.8267716535433071
          },
          {
            "duration": 0.22857120000000464,
            "durationTicks": 384,
            "midi": 65,
            "name": "F4",
            "ticks": 77760,
            "time": 46.285668,
            "velocity": 0.8267716535433071
          },
          {
            "duration": 0.22857119999999753,
            "durationTicks": 384,
            "midi": 65,
            "name": "F4",
            "ticks": 78240,
            "time": 46.57138200000001,
            "velocity": 0.8267716535433071
          },
          {
            "duration": 0.22857120000000464,
            "durationTicks": 384,
            "midi": 65,
            "name": "F4",
            "ticks": 78720,
            "time": 46.857096000000006,
            "velocity": 0.8267716535433071
          },
          {
            "duration": 0.22857120000000464,
            "durationTicks": 384,
            "midi": 65,
            "name": "F4",
            "ticks": 79200,
            "time": 47.142810000000004,
            "velocity": 0.8267716535433071
          },
          {
            "duration": 0.22857120000000464,
            "durationTicks": 384,
            "midi": 65,
            "name": "F4",
            "ticks": 79680,
            "time": 47.428524,
            "velocity": 0.8267716535433071
          },
          {
            "duration": 0.22857119999999753,
            "durationTicks": 384,
            "midi": 65,
            "name": "F4",
            "ticks": 80640,
            "time": 47.99995200000001,
            "velocity": 0.8267716535433071
          },
          {
            "duration": 0.22857120000000464,
            "durationTicks": 384,
            "midi": 65,
            "name": "F4",
            "ticks": 81600,
            "time": 48.571380000000005,
            "velocity": 0.7244094488188977
          },
          {
            "duration": 0.9142848000000043,
            "durationTicks": 1536,
            "midi": 55,
            "name": "G3",
            "ticks": 119040,
            "time": 70.857072,
            "velocity": 0.5511811023622047
          },
          {
            "duration": 0.9142848000000043,
            "durationTicks": 1536,
            "midi": 58,
            "name": "A#3",
            "ticks": 119040,
            "time": 70.857072,
            "velocity": 0.5511811023622047
          },
          {
            "duration": 0.9142847999999901,
            "durationTicks": 1536,
            "midi": 58,
            "name": "A#3",
            "ticks": 120960,
            "time": 71.99992800000001,
            "velocity": 0.7244094488188977
          },
          {
            "duration": 0.9142847999999901,
            "durationTicks": 1536,
            "midi": 67,
            "name": "G4",
            "ticks": 120960,
            "time": 71.99992800000001,
            "velocity": 0.7244094488188977
          },
          {
            "duration": 0.4571424000000093,
            "durationTicks": 768,
            "midi": 65,
            "name": "F4",
            "ticks": 122880,
            "time": 73.142784,
            "velocity": 0.8267716535433071
          },
          {
            "duration": 0.38571390000001315,
            "durationTicks": 648,
            "midi": 65,
            "name": "F4",
            "ticks": 123840,
            "time": 73.714212,
            "velocity": 0.8267716535433071
          },
          {
            "duration": 0.08571419999999819,
            "durationTicks": 144,
            "midi": 65,
            "name": "F4",
            "ticks": 124560,
            "time": 74.14278300000001,
            "velocity": 0.8267716535433071
          },
          {
            "duration": 0.4571424000000093,
            "durationTicks": 768,
            "midi": 65,
            "name": "F4",
            "ticks": 124800,
            "time": 74.28564,
            "velocity": 0.8267716535433071
          },
          {
            "duration": 0.45714239999999506,
            "durationTicks": 768,
            "midi": 65,
            "name": "F4",
            "ticks": 125760,
            "time": 74.85706800000001,
            "velocity": 0.8267716535433071
          },
          {
            "duration": 0.22857120000000464,
            "durationTicks": 384,
            "midi": 58,
            "name": "A#3",
            "ticks": 126720,
            "time": 75.42849600000001,
            "velocity": 0.8267716535433071
          },
          {
            "duration": 0.22857119999999043,
            "durationTicks": 384,
            "midi": 70,
            "name": "A#4",
            "ticks": 130560,
            "time": 77.71420800000001,
            "velocity": 0.8267716535433071
          },
          {
            "duration": 0.22857120000000464,
            "durationTicks": 384,
            "midi": 70,
            "name": "A#4",
            "ticks": 131520,
            "time": 78.28563600000001,
            "velocity": 0.8267716535433071
          },
          {
            "duration": 0.22857120000000464,
            "durationTicks": 384,
            "midi": 65,
            "name": "F4",
            "ticks": 132480,
            "time": 78.85706400000001,
            "velocity": 0.8267716535433071
          },
          {
            "duration": 0.22857120000000464,
            "durationTicks": 384,
            "midi": 65,
            "name": "F4",
            "ticks": 133440,
            "time": 79.428492,
            "velocity": 0.8267716535433071
          },
          {
            "duration": 0.9142847999999901,
            "durationTicks": 1536,
            "midi": 62,
            "name": "D4",
            "ticks": 147840,
            "time": 87.99991200000001,
            "velocity": 0.8267716535433071
          },
          {
            "duration": 0.9142847999999901,
            "durationTicks": 1536,
            "midi": 69,
            "name": "A4",
            "ticks": 147840,
            "time": 87.99991200000001,
            "velocity": 0.8267716535433071
          },
          {
            "duration": 0.4571424000000093,
            "durationTicks": 768,
            "midi": 55,
            "name": "G3",
            "ticks": 149760,
            "time": 89.142768,
            "velocity": 0.8267716535433071
          },
          {
            "duration": 0.4571424000000093,
            "durationTicks": 768,
            "midi": 58,
            "name": "A#3",
            "ticks": 149760,
            "time": 89.142768,
            "velocity": 0.8267716535433071
          },
          {
            "duration": 0.22857120000000464,
            "durationTicks": 384,
            "midi": 65,
            "name": "F4",
            "ticks": 152640,
            "time": 90.85705200000001,
            "velocity": 0.8267716535433071
          },
          {
            "duration": 0.22857120000000464,
            "durationTicks": 384,
            "midi": 62,
            "name": "D4",
            "ticks": 153600,
            "time": 91.42848000000001,
            "velocity": 0.7244094488188977
          },
          {
            "duration": 0.22857120000000464,
            "durationTicks": 384,
            "midi": 65,
            "name": "F4",
            "ticks": 153600,
            "time": 91.42848000000001,
            "velocity": 0.7244094488188977
          },
          {
            "duration": 0.9142847999999901,
            "durationTicks": 1536,
            "midi": 62,
            "name": "D4",
            "ticks": 163200,
            "time": 97.14276000000001,
            "velocity": 0.8267716535433071
          },
          {
            "duration": 0.9142847999999901,
            "durationTicks": 1536,
            "midi": 69,
            "name": "A4",
            "ticks": 163200,
            "time": 97.14276000000001,
            "velocity": 0.8267716535433071
          },
          {
            "duration": 0.4571424000000093,
            "durationTicks": 768,
            "midi": 55,
            "name": "G3",
            "ticks": 165120,
            "time": 98.285616,
            "velocity": 0.8267716535433071
          },
          {
            "duration": 0.4571424000000093,
            "durationTicks": 768,
            "midi": 58,
            "name": "A#3",
            "ticks": 165120,
            "time": 98.285616,
            "velocity": 0.8267716535433071
          },
          {
            "duration": 0.22857120000000464,
            "durationTicks": 384,
            "midi": 65,
            "name": "F4",
            "ticks": 168000,
            "time": 99.99990000000001,
            "velocity": 0.8267716535433071
          },
          {
            "duration": 0.22857120000000464,
            "durationTicks": 384,
            "midi": 62,
            "name": "D4",
            "ticks": 168960,
            "time": 100.57132800000001,
            "velocity": 0.8267716535433071
          },
          {
            "duration": 0.22857120000000464,
            "durationTicks": 384,
            "midi": 65,
            "name": "F4",
            "ticks": 168960,
            "time": 100.57132800000001,
            "velocity": 0.8267716535433071
          },
          {
            "duration": 0.1999998000000005,
            "durationTicks": 336,
            "midi": 58,
            "name": "A#3",
            "ticks": 173280,
            "time": 103.14275400000001,
            "velocity": 0.8267716535433071
          },
          {
            "duration": 0.1999998000000005,
            "durationTicks": 336,
            "midi": 58,
            "name": "A#3",
            "ticks": 173760,
            "time": 103.42846800000001,
            "velocity": 0.8267716535433071
          },
          {
            "duration": 0.1999998000000005,
            "durationTicks": 336,
            "midi": 65,
            "name": "F4",
            "ticks": 174240,
            "time": 103.71418200000001,
            "velocity": 0.8267716535433071
          },
          {
            "duration": 0.22857120000000464,
            "durationTicks": 384,
            "midi": 62,
            "name": "D4",
            "ticks": 174720,
            "time": 103.999896,
            "velocity": 0.8267716535433071
          },
          {
            "duration": 0.22857120000000464,
            "durationTicks": 384,
            "midi": 65,
            "name": "F4",
            "ticks": 174720,
            "time": 103.999896,
            "velocity": 0.8267716535433071
          },
          {
            "duration": 0.1999998000000005,
            "durationTicks": 336,
            "midi": 58,
            "name": "A#3",
            "ticks": 179040,
            "time": 106.57132200000001,
            "velocity": 0.8267716535433071
          },
          {
            "duration": 0.1999998000000005,
            "durationTicks": 336,
            "midi": 58,
            "name": "A#3",
            "ticks": 179520,
            "time": 106.85703600000001,
            "velocity": 0.8267716535433071
          },
          {
            "duration": 0.1999998000000005,
            "durationTicks": 336,
            "midi": 65,
            "name": "F4",
            "ticks": 180000,
            "time": 107.14275,
            "velocity": 0.8267716535433071
          },
          {
            "duration": 0.1999998000000005,
            "durationTicks": 336,
            "midi": 70,
            "name": "A#4",
            "ticks": 180480,
            "time": 107.428464,
            "velocity": 0.8267716535433071
          },
          {
            "duration": 0.1999998000000005,
            "durationTicks": 336,
            "midi": 70,
            "name": "A#4",
            "ticks": 180960,
            "time": 107.714178,
            "velocity": 0.8267716535433071
          },
          {
            "duration": 0.1999998000000005,
            "durationTicks": 336,
            "midi": 70,
            "name": "A#4",
            "ticks": 181440,
            "time": 107.999892,
            "velocity": 0.8267716535433071
          },
          {
            "duration": 0.1999997999999863,
            "durationTicks": 336,
            "midi": 65,
            "name": "F4",
            "ticks": 181920,
            "time": 108.28560600000002,
            "velocity": 0.8267716535433071
          },
          {
            "duration": 0.21428549999998836,
            "durationTicks": 360,
            "midi": 62,
            "name": "D4",
            "ticks": 182400,
            "time": 108.57132000000001,
            "velocity": 0.8267716535433071
          },
          {
            "duration": 0.21428549999998836,
            "durationTicks": 360,
            "midi": 65,
            "name": "F4",
            "ticks": 182400,
            "time": 108.57132000000001,
            "velocity": 0.8267716535433071
          },
          {
            "duration": 0.10714274999999418,
            "durationTicks": 180,
            "midi": 65,
            "name": "F4",
            "ticks": 182880,
            "time": 108.85703400000001,
            "velocity": 0.8267716535433071
          },
          {
            "duration": 0.10714275000000839,
            "durationTicks": 180,
            "midi": 65,
            "name": "F4",
            "ticks": 183120,
            "time": 108.999891,
            "velocity": 0.8267716535433071
          },
          {
            "duration": 0.21428550000000257,
            "durationTicks": 360,
            "midi": 65,
            "name": "F4",
            "ticks": 183360,
            "time": 109.14274800000001,
            "velocity": 0.8267716535433071
          },
          {
            "duration": 0.10714274999999418,
            "durationTicks": 180,
            "midi": 65,
            "name": "F4",
            "ticks": 183840,
            "time": 109.42846200000001,
            "velocity": 0.8267716535433071
          },
          {
            "duration": 0.10714275000000839,
            "durationTicks": 180,
            "midi": 65,
            "name": "F4",
            "ticks": 184080,
            "time": 109.571319,
            "velocity": 0.8267716535433071
          },
          {
            "duration": 0.21428550000000257,
            "durationTicks": 360,
            "midi": 62,
            "name": "D4",
            "ticks": 184320,
            "time": 109.71417600000001,
            "velocity": 0.8267716535433071
          },
          {
            "duration": 0.21428550000000257,
            "durationTicks": 360,
            "midi": 65,
            "name": "F4",
            "ticks": 184320,
            "time": 109.71417600000001,
            "velocity": 0.8267716535433071
          },
          {
            "duration": 0.10714275000000839,
            "durationTicks": 180,
            "midi": 65,
            "name": "F4",
            "ticks": 184800,
            "time": 109.99989000000001,
            "velocity": 0.8267716535433071
          },
          {
            "duration": 0.10714274999999418,
            "durationTicks": 180,
            "midi": 65,
            "name": "F4",
            "ticks": 185040,
            "time": 110.14274700000001,
            "velocity": 0.8267716535433071
          },
          {
            "duration": 0.21428550000000257,
            "durationTicks": 360,
            "midi": 65,
            "name": "F4",
            "ticks": 185280,
            "time": 110.285604,
            "velocity": 0.8267716535433071
          },
          {
            "duration": 0.10714275000000839,
            "durationTicks": 180,
            "midi": 65,
            "name": "F4",
            "ticks": 185760,
            "time": 110.571318,
            "velocity": 0.8267716535433071
          },
          {
            "duration": 0.10714274999999418,
            "durationTicks": 180,
            "midi": 65,
            "name": "F4",
            "ticks": 186000,
            "time": 110.71417500000001,
            "velocity": 0.8267716535433071
          },
          {
            "duration": 0.21428550000000257,
            "durationTicks": 360,
            "midi": 62,
            "name": "D4",
            "ticks": 186240,
            "time": 110.857032,
            "velocity": 0.8267716535433071
          },
          {
            "duration": 0.21428550000000257,
            "durationTicks": 360,
            "midi": 65,
            "name": "F4",
            "ticks": 186240,
            "time": 110.857032,
            "velocity": 0.8267716535433071
          },
          {
            "duration": 0.10714275000000839,
            "durationTicks": 180,
            "midi": 65,
            "name": "F4",
            "ticks": 186720,
            "time": 111.142746,
            "velocity": 0.8267716535433071
          },
          {
            "duration": 0.10714274999999418,
            "durationTicks": 180,
            "midi": 65,
            "name": "F4",
            "ticks": 186960,
            "time": 111.28560300000001,
            "velocity": 0.8267716535433071
          },
          {
            "duration": 0.21428549999998836,
            "durationTicks": 360,
            "midi": 65,
            "name": "F4",
            "ticks": 187200,
            "time": 111.42846000000002,
            "velocity": 0.8267716535433071
          },
          {
            "duration": 0.10714274999999418,
            "durationTicks": 180,
            "midi": 65,
            "name": "F4",
            "ticks": 187680,
            "time": 111.71417400000001,
            "velocity": 0.8267716535433071
          },
          {
            "duration": 0.10714275000000839,
            "durationTicks": 180,
            "midi": 65,
            "name": "F4",
            "ticks": 187920,
            "time": 111.857031,
            "velocity": 0.8267716535433071
          },
          {
            "duration": 0.21428550000000257,
            "durationTicks": 360,
            "midi": 65,
            "name": "F4",
            "ticks": 188160,
            "time": 111.99988800000001,
            "velocity": 0.8267716535433071
          },
          {
            "duration": 0.21428550000000257,
            "durationTicks": 360,
            "midi": 65,
            "name": "F4",
            "ticks": 188640,
            "time": 112.28560200000001,
            "velocity": 0.8267716535433071
          },
          {
            "duration": 0.21428550000000257,
            "durationTicks": 360,
            "midi": 65,
            "name": "F4",
            "ticks": 189120,
            "time": 112.57131600000001,
            "velocity": 0.8267716535433071
          },
          {
            "duration": 0.21428550000000257,
            "durationTicks": 360,
            "midi": 65,
            "name": "F4",
            "ticks": 189600,
            "time": 112.85703000000001,
            "velocity": 0.8267716535433071
          },
          {
            "duration": 0.22857120000000464,
            "durationTicks": 384,
            "midi": 65,
            "name": "F4",
            "ticks": 190080,
            "time": 113.14274400000001,
            "velocity": 0.8267716535433071
          },
          {
            "duration": 0.22857119999999043,
            "durationTicks": 384,
            "midi": 62,
            "name": "D4",
            "ticks": 192000,
            "time": 114.28560000000002,
            "velocity": 0.8267716535433071
          },
          {
            "duration": 0.5714279999999974,
            "durationTicks": 960,
            "midi": 55,
            "name": "G3",
            "ticks": 223680,
            "time": 133.14272400000002,
            "velocity": 0.8267716535433071
          },
          {
            "duration": 0.5714279999999974,
            "durationTicks": 960,
            "midi": 70,
            "name": "A#4",
            "ticks": 223680,
            "time": 133.14272400000002,
            "velocity": 0.8267716535433071
          },
          {
            "duration": 0.22857120000000464,
            "durationTicks": 384,
            "midi": 57,
            "name": "A3",
            "ticks": 224640,
            "time": 133.714152,
            "velocity": 0.8267716535433071
          },
          {
            "duration": 0.22857120000000464,
            "durationTicks": 384,
            "midi": 74,
            "name": "D5",
            "ticks": 224640,
            "time": 133.714152,
            "velocity": 0.8267716535433071
          },
          {
            "duration": 0.5714279999999974,
            "durationTicks": 960,
            "midi": 55,
            "name": "G3",
            "ticks": 225600,
            "time": 134.28558,
            "velocity": 0.8267716535433071
          },
          {
            "duration": 0.5714279999999974,
            "durationTicks": 960,
            "midi": 70,
            "name": "A#4",
            "ticks": 225600,
            "time": 134.28558,
            "velocity": 0.8267716535433071
          },
          {
            "duration": 0.22857120000000464,
            "durationTicks": 384,
            "midi": 57,
            "name": "A3",
            "ticks": 226560,
            "time": 134.857008,
            "velocity": 0.8267716535433071
          },
          {
            "duration": 0.22857120000000464,
            "durationTicks": 384,
            "midi": 74,
            "name": "D5",
            "ticks": 226560,
            "time": 134.857008,
            "velocity": 0.8267716535433071
          },
          {
            "duration": 0.5714279999999974,
            "durationTicks": 960,
            "midi": 55,
            "name": "G3",
            "ticks": 227520,
            "time": 135.428436,
            "velocity": 0.8267716535433071
          },
          {
            "duration": 0.5714279999999974,
            "durationTicks": 960,
            "midi": 70,
            "name": "A#4",
            "ticks": 227520,
            "time": 135.428436,
            "velocity": 0.8267716535433071
          },
          {
            "duration": 0.1714284000000248,
            "durationTicks": 288,
            "midi": 57,
            "name": "A3",
            "ticks": 228480,
            "time": 135.999864,
            "velocity": 0.8267716535433071
          },
          {
            "duration": 0.1714284000000248,
            "durationTicks": 288,
            "midi": 74,
            "name": "D5",
            "ticks": 228480,
            "time": 135.999864,
            "velocity": 0.8267716535433071
          },
          {
            "duration": 0.17142839999999637,
            "durationTicks": 288,
            "midi": 55,
            "name": "G3",
            "ticks": 228960,
            "time": 136.28557800000002,
            "velocity": 0.8267716535433071
          },
          {
            "duration": 0.17142839999999637,
            "durationTicks": 288,
            "midi": 70,
            "name": "A#4",
            "ticks": 228960,
            "time": 136.28557800000002,
            "velocity": 0.8267716535433071
          },
          {
            "duration": 0.1714284000000248,
            "durationTicks": 288,
            "midi": 57,
            "name": "A3",
            "ticks": 229440,
            "time": 136.571292,
            "velocity": 0.8267716535433071
          },
          {
            "duration": 0.1714284000000248,
            "durationTicks": 288,
            "midi": 74,
            "name": "D5",
            "ticks": 229440,
            "time": 136.571292,
            "velocity": 0.8267716535433071
          },
          {
            "duration": 0.17142839999999637,
            "durationTicks": 288,
            "midi": 55,
            "name": "G3",
            "ticks": 229920,
            "time": 136.857006,
            "velocity": 0.8267716535433071
          },
          {
            "duration": 0.17142839999999637,
            "durationTicks": 288,
            "midi": 70,
            "name": "A#4",
            "ticks": 229920,
            "time": 136.857006,
            "velocity": 0.8267716535433071
          },
          {
            "duration": 0.4571424000000093,
            "durationTicks": 768,
            "midi": 57,
            "name": "A3",
            "ticks": 230400,
            "time": 137.14272,
            "velocity": 0.8267716535433071
          },
          {
            "duration": 0.4571424000000093,
            "durationTicks": 768,
            "midi": 74,
            "name": "D5",
            "ticks": 230400,
            "time": 137.14272,
            "velocity": 0.8267716535433071
          },
          {
            "duration": 0.9142848000000185,
            "durationTicks": 1536,
            "midi": 70,
            "name": "A#4",
            "ticks": 245760,
            "time": 146.285568,
            "velocity": 0.8267716535433071
          },
          {
            "duration": 0.9142848000000185,
            "durationTicks": 1536,
            "midi": 65,
            "name": "F4",
            "ticks": 247680,
            "time": 147.428424,
            "velocity": 0.8267716535433071
          },
          {
            "duration": 0.4571424000000093,
            "durationTicks": 768,
            "midi": 58,
            "name": "A#3",
            "ticks": 249600,
            "time": 148.57128,
            "velocity": 0.8267716535433071
          },
          {
            "duration": 0.34285680000002117,
            "durationTicks": 576,
            "midi": 58,
            "name": "A#3",
            "ticks": 250560,
            "time": 149.142708,
            "velocity": 0.8267716535433071
          },
          {
            "duration": 0.11428559999998811,
            "durationTicks": 192,
            "midi": 58,
            "name": "A#3",
            "ticks": 251280,
            "time": 149.571279,
            "velocity": 0.8267716535433071
          },
          {
            "duration": 0.9142847999999901,
            "durationTicks": 1536,
            "midi": 58,
            "name": "A#3",
            "ticks": 251520,
            "time": 149.71413600000002,
            "velocity": 0.8267716535433071
          },
          {
            "duration": 0.9142848000000185,
            "durationTicks": 1536,
            "midi": 55,
            "name": "G3",
            "ticks": 257280,
            "time": 153.142704,
            "velocity": 0.8818897637795275
          },
          {
            "duration": 0.9142848000000185,
            "durationTicks": 1536,
            "midi": 58,
            "name": "A#3",
            "ticks": 257280,
            "time": 153.142704,
            "velocity": 0.7244094488188977
          },
          {
            "duration": 0.4571424000000093,
            "durationTicks": 768,
            "midi": 55,
            "name": "G3",
            "ticks": 259200,
            "time": 154.28556,
            "velocity": 0.8818897637795275
          },
          {
            "duration": 0.4571424000000093,
            "durationTicks": 768,
            "midi": 58,
            "name": "A#3",
            "ticks": 259200,
            "time": 154.28556,
            "velocity": 0.7244094488188977
          },
          {
            "duration": 0.4571424000000093,
            "durationTicks": 768,
            "midi": 55,
            "name": "G3",
            "ticks": 260160,
            "time": 154.856988,
            "velocity": 0.8818897637795275
          },
          {
            "duration": 0.4571424000000093,
            "durationTicks": 768,
            "midi": 58,
            "name": "A#3",
            "ticks": 260160,
            "time": 154.856988,
            "velocity": 0.7244094488188977
          },
          {
            "duration": 0.45714239999998085,
            "durationTicks": 768,
            "midi": 55,
            "name": "G3",
            "ticks": 261120,
            "time": 155.42841600000003,
            "velocity": 0.8818897637795275
          },
          {
            "duration": 0.45714239999998085,
            "durationTicks": 768,
            "midi": 58,
            "name": "A#3",
            "ticks": 261120,
            "time": 155.42841600000003,
            "velocity": 0.7244094488188977
          },
          {
            "duration": 0.45714239999998085,
            "durationTicks": 768,
            "midi": 55,
            "name": "G3",
            "ticks": 262080,
            "time": 155.99984400000002,
            "velocity": 0.8818897637795275
          },
          {
            "duration": 0.45714239999998085,
            "durationTicks": 768,
            "midi": 58,
            "name": "A#3",
            "ticks": 262080,
            "time": 155.99984400000002,
            "velocity": 0.7244094488188977
          },
          {
            "duration": 0.9142847999999901,
            "durationTicks": 1536,
            "midi": 55,
            "name": "G3",
            "ticks": 263040,
            "time": 156.57127200000002,
            "velocity": 0.8818897637795275
          },
          {
            "duration": 0.9142847999999901,
            "durationTicks": 1536,
            "midi": 58,
            "name": "A#3",
            "ticks": 263040,
            "time": 156.57127200000002,
            "velocity": 0.7244094488188977
          },
          {
            "duration": 0.9142848000000185,
            "durationTicks": 1536,
            "midi": 65,
            "name": "F4",
            "ticks": 264960,
            "time": 157.71412800000002,
            "velocity": 0.8267716535433071
          },
          {
            "duration": 0.4571424000000093,
            "durationTicks": 768,
            "midi": 65,
            "name": "F4",
            "ticks": 266880,
            "time": 158.856984,
            "velocity": 0.8267716535433071
          },
          {
            "duration": 0.4571424000000093,
            "durationTicks": 768,
            "midi": 65,
            "name": "F4",
            "ticks": 267840,
            "time": 159.428412,
            "velocity": 0.8267716535433071
          },
          {
            "duration": 0.4571424000000093,
            "durationTicks": 768,
            "midi": 65,
            "name": "F4",
            "ticks": 268800,
            "time": 159.99984,
            "velocity": 0.8267716535433071
          },
          {
            "duration": 0.22857120000000464,
            "durationTicks": 384,
            "midi": 65,
            "name": "F4",
            "ticks": 269760,
            "time": 160.571268,
            "velocity": 0.8267716535433071
          },
          {
            "duration": 0.22857119999997622,
            "durationTicks": 384,
            "midi": 65,
            "name": "F4",
            "ticks": 270240,
            "time": 160.85698200000002,
            "velocity": 0.8267716535433071
          },
          {
            "duration": 0.22857120000000464,
            "durationTicks": 384,
            "midi": 65,
            "name": "F4",
            "ticks": 270720,
            "time": 161.142696,
            "velocity": 0.8267716535433071
          },
          {
            "duration": 0.22857119999997622,
            "durationTicks": 384,
            "midi": 65,
            "name": "F4",
            "ticks": 271200,
            "time": 161.42841,
            "velocity": 0.8267716535433071
          },
          {
            "duration": 0.22857119999997622,
            "durationTicks": 384,
            "midi": 65,
            "name": "F4",
            "ticks": 271680,
            "time": 161.71412400000003,
            "velocity": 0.8267716535433071
          },
          {
            "duration": 0.22857119999997622,
            "durationTicks": 384,
            "midi": 65,
            "name": "F4",
            "ticks": 272640,
            "time": 162.28555200000002,
            "velocity": 0.8267716535433071
          },
          {
            "duration": 0.22857119999997622,
            "durationTicks": 384,
            "midi": 65,
            "name": "F4",
            "ticks": 273600,
            "time": 162.85698000000002,
            "velocity": 0.7244094488188977
          },
          {
            "duration": 0.9142848000000185,
            "durationTicks": 1536,
            "midi": 55,
            "name": "G3",
            "ticks": 311040,
            "time": 185.142672,
            "velocity": 0.5511811023622047
          },
          {
            "duration": 0.9142848000000185,
            "durationTicks": 1536,
            "midi": 58,
            "name": "A#3",
            "ticks": 311040,
            "time": 185.142672,
            "velocity": 0.5511811023622047
          },
          {
            "duration": 0.9142847999999901,
            "durationTicks": 1536,
            "midi": 58,
            "name": "A#3",
            "ticks": 312960,
            "time": 186.28552800000003,
            "velocity": 0.7244094488188977
          },
          {
            "duration": 0.9142847999999901,
            "durationTicks": 1536,
            "midi": 67,
            "name": "G4",
            "ticks": 312960,
            "time": 186.28552800000003,
            "velocity": 0.7244094488188977
          },
          {
            "duration": 0.4571424000000093,
            "durationTicks": 768,
            "midi": 65,
            "name": "F4",
            "ticks": 314880,
            "time": 187.42838400000002,
            "velocity": 0.8267716535433071
          },
          {
            "duration": 0.38571390000001315,
            "durationTicks": 648,
            "midi": 65,
            "name": "F4",
            "ticks": 315840,
            "time": 187.99981200000002,
            "velocity": 0.8267716535433071
          },
          {
            "duration": 0.08571419999998398,
            "durationTicks": 144,
            "midi": 65,
            "name": "F4",
            "ticks": 316560,
            "time": 188.42838300000003,
            "velocity": 0.8267716535433071
          },
          {
            "duration": 0.4571424000000093,
            "durationTicks": 768,
            "midi": 65,
            "name": "F4",
            "ticks": 316800,
            "time": 188.57124000000002,
            "velocity": 0.8267716535433071
          },
          {
            "duration": 0.4571424000000093,
            "durationTicks": 768,
            "midi": 65,
            "name": "F4",
            "ticks": 317760,
            "time": 189.14266800000001,
            "velocity": 0.8267716535433071
          },
          {
            "duration": 0.22857120000000464,
            "durationTicks": 384,
            "midi": 58,
            "name": "A#3",
            "ticks": 318720,
            "time": 189.714096,
            "velocity": 0.8267716535433071
          },
          {
            "duration": 0.22857119999997622,
            "durationTicks": 384,
            "midi": 70,
            "name": "A#4",
            "ticks": 322560,
            "time": 191.99980800000003,
            "velocity": 0.8267716535433071
          },
          {
            "duration": 0.22857119999997622,
            "durationTicks": 384,
            "midi": 70,
            "name": "A#4",
            "ticks": 323520,
            "time": 192.57123600000003,
            "velocity": 0.8267716535433071
          },
          {
            "duration": 0.22857119999997622,
            "durationTicks": 384,
            "midi": 65,
            "name": "F4",
            "ticks": 324480,
            "time": 193.14266400000002,
            "velocity": 0.8267716535433071
          },
          {
            "duration": 0.22857119999997622,
            "durationTicks": 384,
            "midi": 65,
            "name": "F4",
            "ticks": 325440,
            "time": 193.71409200000002,
            "velocity": 0.8267716535433071
          },
          {
            "duration": 0.9142848000000185,
            "durationTicks": 1536,
            "midi": 62,
            "name": "D4",
            "ticks": 339840,
            "time": 202.285512,
            "velocity": 0.8267716535433071
          },
          {
            "duration": 0.9142848000000185,
            "durationTicks": 1536,
            "midi": 69,
            "name": "A4",
            "ticks": 339840,
            "time": 202.285512,
            "velocity": 0.8267716535433071
          },
          {
            "duration": 0.4571424000000093,
            "durationTicks": 768,
            "midi": 55,
            "name": "G3",
            "ticks": 341760,
            "time": 203.428368,
            "velocity": 0.8267716535433071
          },
          {
            "duration": 0.4571424000000093,
            "durationTicks": 768,
            "midi": 58,
            "name": "A#3",
            "ticks": 341760,
            "time": 203.428368,
            "velocity": 0.8267716535433071
          },
          {
            "duration": 0.22857119999997622,
            "durationTicks": 384,
            "midi": 65,
            "name": "F4",
            "ticks": 344640,
            "time": 205.14265200000003,
            "velocity": 0.8267716535433071
          },
          {
            "duration": 0.22857119999997622,
            "durationTicks": 384,
            "midi": 62,
            "name": "D4",
            "ticks": 345600,
            "time": 205.71408000000002,
            "velocity": 0.7244094488188977
          },
          {
            "duration": 0.22857119999997622,
            "durationTicks": 384,
            "midi": 65,
            "name": "F4",
            "ticks": 345600,
            "time": 205.71408000000002,
            "velocity": 0.7244094488188977
          },
          {
            "duration": 0.9142847999999901,
            "durationTicks": 1536,
            "midi": 62,
            "name": "D4",
            "ticks": 355200,
            "time": 211.42836000000003,
            "velocity": 0.8267716535433071
          },
          {
            "duration": 0.9142847999999901,
            "durationTicks": 1536,
            "midi": 69,
            "name": "A4",
            "ticks": 355200,
            "time": 211.42836000000003,
            "velocity": 0.8267716535433071
          },
          {
            "duration": 0.4571424000000093,
            "durationTicks": 768,
            "midi": 55,
            "name": "G3",
            "ticks": 357120,
            "time": 212.57121600000002,
            "velocity": 0.8267716535433071
          },
          {
            "duration": 0.4571424000000093,
            "durationTicks": 768,
            "midi": 58,
            "name": "A#3",
            "ticks": 357120,
            "time": 212.57121600000002,
            "velocity": 0.8267716535433071
          },
          {
            "duration": 0.22857120000000464,
            "durationTicks": 384,
            "midi": 65,
            "name": "F4",
            "ticks": 360000,
            "time": 214.2855,
            "velocity": 0.8267716535433071
          },
          {
            "duration": 0.22857120000000464,
            "durationTicks": 384,
            "midi": 62,
            "name": "D4",
            "ticks": 360960,
            "time": 214.856928,
            "velocity": 0.8267716535433071
          },
          {
            "duration": 0.22857120000000464,
            "durationTicks": 384,
            "midi": 65,
            "name": "F4",
            "ticks": 360960,
            "time": 214.856928,
            "velocity": 0.8267716535433071
          },
          {
            "duration": 0.19999980000002893,
            "durationTicks": 336,
            "midi": 58,
            "name": "A#3",
            "ticks": 365280,
            "time": 217.428354,
            "velocity": 0.8267716535433071
          },
          {
            "duration": 0.1999998000000005,
            "durationTicks": 336,
            "midi": 58,
            "name": "A#3",
            "ticks": 365760,
            "time": 217.71406800000003,
            "velocity": 0.8267716535433071
          },
          {
            "duration": 0.19999980000002893,
            "durationTicks": 336,
            "midi": 65,
            "name": "F4",
            "ticks": 366240,
            "time": 217.999782,
            "velocity": 0.8267716535433071
          },
          {
            "duration": 0.22857119999997622,
            "durationTicks": 384,
            "midi": 62,
            "name": "D4",
            "ticks": 366720,
            "time": 218.28549600000002,
            "velocity": 0.8267716535433071
          },
          {
            "duration": 0.22857119999997622,
            "durationTicks": 384,
            "midi": 65,
            "name": "F4",
            "ticks": 366720,
            "time": 218.28549600000002,
            "velocity": 0.8267716535433071
          },
          {
            "duration": 0.1999998000000005,
            "durationTicks": 336,
            "midi": 58,
            "name": "A#3",
            "ticks": 371040,
            "time": 220.85692200000003,
            "velocity": 0.8267716535433071
          },
          {
            "duration": 0.19999980000002893,
            "durationTicks": 336,
            "midi": 58,
            "name": "A#3",
            "ticks": 371520,
            "time": 221.142636,
            "velocity": 0.8267716535433071
          },
          {
            "duration": 0.1999998000000005,
            "durationTicks": 336,
            "midi": 65,
            "name": "F4",
            "ticks": 372000,
            "time": 221.42835000000002,
            "velocity": 0.8267716535433071
          },
          {
            "duration": 0.19999980000002893,
            "durationTicks": 336,
            "midi": 70,
            "name": "A#4",
            "ticks": 372480,
            "time": 221.714064,
            "velocity": 0.8267716535433071
          },
          {
            "duration": 0.1999998000000005,
            "durationTicks": 336,
            "midi": 70,
            "name": "A#4",
            "ticks": 372960,
            "time": 221.99977800000002,
            "velocity": 0.8267716535433071
          },
          {
            "duration": 0.19999980000002893,
            "durationTicks": 336,
            "midi": 70,
            "name": "A#4",
            "ticks": 373440,
            "time": 222.285492,
            "velocity": 0.8267716535433071
          },
          {
            "duration": 0.1999998000000005,
            "durationTicks": 336,
            "midi": 65,
            "name": "F4",
            "ticks": 373920,
            "time": 222.57120600000002,
            "velocity": 0.8267716535433071
          },
          {
            "duration": 0.21428549999998836,
            "durationTicks": 360,
            "midi": 62,
            "name": "D4",
            "ticks": 374400,
            "time": 222.85692000000003,
            "velocity": 0.8267716535433071
          },
          {
            "duration": 0.21428549999998836,
            "durationTicks": 360,
            "midi": 65,
            "name": "F4",
            "ticks": 374400,
            "time": 222.85692000000003,
            "velocity": 0.8267716535433071
          },
          {
            "duration": 0.10714275000000839,
            "durationTicks": 180,
            "midi": 65,
            "name": "F4",
            "ticks": 374880,
            "time": 223.14263400000002,
            "velocity": 0.8267716535433071
          },
          {
            "duration": 0.10714275000000839,
            "durationTicks": 180,
            "midi": 65,
            "name": "F4",
            "ticks": 375120,
            "time": 223.285491,
            "velocity": 0.8267716535433071
          },
          {
            "duration": 0.21428549999998836,
            "durationTicks": 360,
            "midi": 65,
            "name": "F4",
            "ticks": 375360,
            "time": 223.42834800000003,
            "velocity": 0.8267716535433071
          },
          {
            "duration": 0.10714275000000839,
            "durationTicks": 180,
            "midi": 65,
            "name": "F4",
            "ticks": 375840,
            "time": 223.714062,
            "velocity": 0.8267716535433071
          },
          {
            "duration": 0.10714275000000839,
            "durationTicks": 180,
            "midi": 65,
            "name": "F4",
            "ticks": 376080,
            "time": 223.856919,
            "velocity": 0.8267716535433071
          },
          {
            "duration": 0.21428549999998836,
            "durationTicks": 360,
            "midi": 62,
            "name": "D4",
            "ticks": 376320,
            "time": 223.99977600000003,
            "velocity": 0.8267716535433071
          },
          {
            "duration": 0.21428549999998836,
            "durationTicks": 360,
            "midi": 65,
            "name": "F4",
            "ticks": 376320,
            "time": 223.99977600000003,
            "velocity": 0.8267716535433071
          },
          {
            "duration": 0.10714275000000839,
            "durationTicks": 180,
            "midi": 65,
            "name": "F4",
            "ticks": 376800,
            "time": 224.28549,
            "velocity": 0.8267716535433071
          },
          {
            "duration": 0.10714274999997997,
            "durationTicks": 180,
            "midi": 65,
            "name": "F4",
            "ticks": 377040,
            "time": 224.42834700000003,
            "velocity": 0.8267716535433071
          },
          {
            "duration": 0.21428549999998836,
            "durationTicks": 360,
            "midi": 65,
            "name": "F4",
            "ticks": 377280,
            "time": 224.57120400000002,
            "velocity": 0.8267716535433071
          },
          {
            "duration": 0.10714275000000839,
            "durationTicks": 180,
            "midi": 65,
            "name": "F4",
            "ticks": 377760,
            "time": 224.856918,
            "velocity": 0.8267716535433071
          },
          {
            "duration": 0.10714274999997997,
            "durationTicks": 180,
            "midi": 65,
            "name": "F4",
            "ticks": 378000,
            "time": 224.99977500000003,
            "velocity": 0.8267716535433071
          },
          {
            "duration": 0.21428549999998836,
            "durationTicks": 360,
            "midi": 62,
            "name": "D4",
            "ticks": 378240,
            "time": 225.14263200000002,
            "velocity": 0.8267716535433071
          },
          {
            "duration": 0.21428549999998836,
            "durationTicks": 360,
            "midi": 65,
            "name": "F4",
            "ticks": 378240,
            "time": 225.14263200000002,
            "velocity": 0.8267716535433071
          },
          {
            "duration": 0.10714275000000839,
            "durationTicks": 180,
            "midi": 65,
            "name": "F4",
            "ticks": 378720,
            "time": 225.428346,
            "velocity": 0.8267716535433071
          },
          {
            "duration": 0.10714274999997997,
            "durationTicks": 180,
            "midi": 65,
            "name": "F4",
            "ticks": 378960,
            "time": 225.57120300000003,
            "velocity": 0.8267716535433071
          },
          {
            "duration": 0.21428549999998836,
            "durationTicks": 360,
            "midi": 65,
            "name": "F4",
            "ticks": 379200,
            "time": 225.71406000000002,
            "velocity": 0.8267716535433071
          },
          {
            "duration": 0.10714274999997997,
            "durationTicks": 180,
            "midi": 65,
            "name": "F4",
            "ticks": 379680,
            "time": 225.99977400000003,
            "velocity": 0.8267716535433071
          },
          {
            "duration": 0.10714275000000839,
            "durationTicks": 180,
            "midi": 65,
            "name": "F4",
            "ticks": 379920,
            "time": 226.14263100000002,
            "velocity": 0.8267716535433071
          },
          {
            "duration": 0.21428550000001678,
            "durationTicks": 360,
            "midi": 65,
            "name": "F4",
            "ticks": 380160,
            "time": 226.28548800000002,
            "velocity": 0.8267716535433071
          },
          {
            "duration": 0.21428549999998836,
            "durationTicks": 360,
            "midi": 65,
            "name": "F4",
            "ticks": 380640,
            "time": 226.57120200000003,
            "velocity": 0.8267716535433071
          },
          {
            "duration": 0.21428550000001678,
            "durationTicks": 360,
            "midi": 65,
            "name": "F4",
            "ticks": 381120,
            "time": 226.856916,
            "velocity": 0.8267716535433071
          },
          {
            "duration": 0.21428549999998836,
            "durationTicks": 360,
            "midi": 65,
            "name": "F4",
            "ticks": 381600,
            "time": 227.14263000000003,
            "velocity": 0.8267716535433071
          },
          {
            "duration": 0.22857120000000464,
            "durationTicks": 384,
            "midi": 65,
            "name": "F4",
            "ticks": 382080,
            "time": 227.428344,
            "velocity": 0.8267716535433071
          },
          {
            "duration": 0.22857119999997622,
            "durationTicks": 384,
            "midi": 62,
            "name": "D4",
            "ticks": 384000,
            "time": 228.57120000000003,
            "velocity": 0.8267716535433071
          },
          {
            "duration": 0.22857119999997622,
            "durationTicks": 384,
            "midi": 58,
            "name": "A#3",
            "ticks": 385920,
            "time": 229.71405600000003,
            "velocity": 0.8267716535433071
          },
          {
            "duration": 0.22857119999997622,
            "durationTicks": 384,
            "midi": 62,
            "name": "D4",
            "ticks": 385920,
            "time": 229.71405600000003,
            "velocity": 0.8267716535433071
          },
          {
            "duration": 0.22857119999997622,
            "durationTicks": 384,
            "midi": 62,
            "name": "D4",
            "ticks": 386880,
            "time": 230.28548400000003,
            "velocity": 0.8267716535433071
          },
          {
            "duration": 0.22857119999997622,
            "durationTicks": 384,
            "midi": 65,
            "name": "F4",
            "ticks": 386880,
            "time": 230.28548400000003,
            "velocity": 0.8267716535433071
          },
          {
            "duration": 0.4571424000000093,
            "durationTicks": 768,
            "midi": 59,
            "name": "B3",
            "ticks": 412800,
            "time": 245.71404,
            "velocity": 0.8267716535433071
          },
          {
            "duration": 0.34285680000002117,
            "durationTicks": 576,
            "midi": 59,
            "name": "B3",
            "ticks": 413760,
            "time": 246.285468,
            "velocity": 0.8267716535433071
          },
          {
            "duration": 0.11428559999998811,
            "durationTicks": 192,
            "midi": 59,
            "name": "B3",
            "ticks": 414480,
            "time": 246.714039,
            "velocity": 0.8267716535433071
          },
          {
            "duration": 0.22857120000000464,
            "durationTicks": 384,
            "midi": 59,
            "name": "B3",
            "ticks": 414720,
            "time": 246.856896,
            "velocity": 0.8267716535433071
          },
          {
            "duration": 0.22857119999997622,
            "durationTicks": 384,
            "midi": 67,
            "name": "G4",
            "ticks": 415200,
            "time": 247.14261000000002,
            "velocity": 0.8267716535433071
          },
          {
            "duration": 0.9142848000000185,
            "durationTicks": 1536,
            "midi": 69,
            "name": "A4",
            "ticks": 418560,
            "time": 249.14260800000002,
            "velocity": 0.8267716535433071
          },
          {
            "duration": 0.4571424000000093,
            "durationTicks": 768,
            "midi": 69,
            "name": "A4",
            "ticks": 420480,
            "time": 250.28546400000002,
            "velocity": 0.8267716535433071
          },
          {
            "duration": 0.4571424000000093,
            "durationTicks": 768,
            "midi": 69,
            "name": "A4",
            "ticks": 421440,
            "time": 250.85689200000002,
            "velocity": 0.8267716535433071
          },
          {
            "duration": 0.9142848000000185,
            "durationTicks": 1536,
            "midi": 62,
            "name": "D4",
            "ticks": 422400,
            "time": 251.42832,
            "velocity": 0.8267716535433071
          },
          {
            "duration": 0.9142848000000185,
            "durationTicks": 1536,
            "midi": 69,
            "name": "A4",
            "ticks": 422400,
            "time": 251.42832,
            "velocity": 0.8267716535433071
          },
          {
            "duration": 0.4571424000000093,
            "durationTicks": 768,
            "midi": 50,
            "name": "D3",
            "ticks": 424320,
            "time": 252.571176,
            "velocity": 0.8267716535433071
          },
          {
            "duration": 0.4571424000000093,
            "durationTicks": 768,
            "midi": 62,
            "name": "D4",
            "ticks": 424320,
            "time": 252.571176,
            "velocity": 0.8267716535433071
          },
          {
            "duration": 0.45714239999998085,
            "durationTicks": 768,
            "midi": 50,
            "name": "D3",
            "ticks": 425280,
            "time": 253.14260400000003,
            "velocity": 0.8267716535433071
          },
          {
            "duration": 0.45714239999998085,
            "durationTicks": 768,
            "midi": 62,
            "name": "D4",
            "ticks": 425280,
            "time": 253.14260400000003,
            "velocity": 0.8267716535433071
          },
          {
            "duration": 0.22857119999997622,
            "durationTicks": 384,
            "midi": 55,
            "name": "G3",
            "ticks": 426240,
            "time": 253.71403200000003,
            "velocity": 0.8267716535433071
          },
          {
            "duration": 0.22857119999997622,
            "durationTicks": 384,
            "midi": 62,
            "name": "D4",
            "ticks": 426240,
            "time": 253.71403200000003,
            "velocity": 0.8267716535433071
          },
          {
            "duration": 0.22857120000000464,
            "durationTicks": 384,
            "midi": 55,
            "name": "G3",
            "ticks": 426720,
            "time": 253.99974600000002,
            "velocity": 0.8267716535433071
          },
          {
            "duration": 0.22857120000000464,
            "durationTicks": 384,
            "midi": 58,
            "name": "A#3",
            "ticks": 426720,
            "time": 253.99974600000002,
            "velocity": 0.8267716535433071
          },
          {
            "duration": 0.4571424000000093,
            "durationTicks": 768,
            "midi": 55,
            "name": "G3",
            "ticks": 428160,
            "time": 254.85688800000003,
            "velocity": 0.8267716535433071
          },
          {
            "duration": 0.34285680000002117,
            "durationTicks": 576,
            "midi": 55,
            "name": "G3",
            "ticks": 429120,
            "time": 255.42831600000002,
            "velocity": 0.8267716535433071
          },
          {
            "duration": 0.11428559999998811,
            "durationTicks": 192,
            "midi": 55,
            "name": "G3",
            "ticks": 429840,
            "time": 255.85688700000003,
            "velocity": 0.8267716535433071
          },
          {
            "duration": 0.4571424000000093,
            "durationTicks": 768,
            "midi": 55,
            "name": "G3",
            "ticks": 430080,
            "time": 255.99974400000002,
            "velocity": 0.8267716535433071
          },
          {
            "duration": 1.0285703999999782,
            "durationTicks": 1728,
            "midi": 72,
            "name": "C5",
            "ticks": 430080,
            "time": 255.99974400000002,
            "velocity": 0.8267716535433071
          },
          {
            "duration": 0.4571424000000093,
            "durationTicks": 768,
            "midi": 72,
            "name": "C5",
            "ticks": 432000,
            "time": 257.1426,
            "velocity": 0.8267716535433071
          },
          {
            "duration": 0.4571424000000093,
            "durationTicks": 768,
            "midi": 72,
            "name": "C5",
            "ticks": 432960,
            "time": 257.71402800000004,
            "velocity": 0.8267716535433071
          },
          {
            "duration": 0.9142848000000185,
            "durationTicks": 1536,
            "midi": 65,
            "name": "F4",
            "ticks": 433920,
            "time": 258.285456,
            "velocity": 0.8267716535433071
          },
          {
            "duration": 0.4571424000000093,
            "durationTicks": 768,
            "midi": 65,
            "name": "F4",
            "ticks": 435840,
            "time": 259.428312,
            "velocity": 0.8267716535433071
          },
          {
            "duration": 0.34285679999999275,
            "durationTicks": 576,
            "midi": 65,
            "name": "F4",
            "ticks": 436800,
            "time": 259.99974000000003,
            "velocity": 0.8267716535433071
          },
          {
            "duration": 0.11428560000001653,
            "durationTicks": 192,
            "midi": 65,
            "name": "F4",
            "ticks": 437520,
            "time": 260.428311,
            "velocity": 0.8267716535433071
          },
          {
            "duration": 0.9142848000000185,
            "durationTicks": 1536,
            "midi": 62,
            "name": "D4",
            "ticks": 437760,
            "time": 260.571168,
            "velocity": 0.8267716535433071
          },
          {
            "duration": 0.9142848000000185,
            "durationTicks": 1536,
            "midi": 65,
            "name": "F4",
            "ticks": 437760,
            "time": 260.571168,
            "velocity": 0.8267716535433071
          },
          {
            "duration": 0.22857120000003306,
            "durationTicks": 384,
            "midi": 58,
            "name": "A#3",
            "ticks": 439680,
            "time": 261.714024,
            "velocity": 0.8267716535433071
          },
          {
            "duration": 0.22857119999997622,
            "durationTicks": 384,
            "midi": 58,
            "name": "A#3",
            "ticks": 440640,
            "time": 262.285452,
            "velocity": 0.8267716535433071
          },
          {
            "duration": 0.22857119999997622,
            "durationTicks": 384,
            "midi": 69,
            "name": "A4",
            "ticks": 443520,
            "time": 263.99973600000004,
            "velocity": 0.8267716535433071
          },
          {
            "duration": 0.22857119999997622,
            "durationTicks": 384,
            "midi": 62,
            "name": "D4",
            "ticks": 444480,
            "time": 264.571164,
            "velocity": 0.8267716535433071
          },
          {
            "duration": 0.22857119999997622,
            "durationTicks": 384,
            "midi": 69,
            "name": "A4",
            "ticks": 444480,
            "time": 264.571164,
            "velocity": 0.8267716535433071
          },
          {
            "duration": 0.571427999999969,
            "durationTicks": 960,
            "midi": 62,
            "name": "D4",
            "ticks": 445440,
            "time": 265.14259200000004,
            "velocity": 0.8267716535433071
          },
          {
            "duration": 0.7999991999999452,
            "durationTicks": 1344,
            "midi": 74,
            "name": "D5",
            "ticks": 445440,
            "time": 265.14259200000004,
            "velocity": 0.8267716535433071
          },
          {
            "duration": 0.22857119999997622,
            "durationTicks": 384,
            "midi": 67,
            "name": "G4",
            "ticks": 446400,
            "time": 265.71402,
            "velocity": 0.8267716535433071
          },
          {
            "duration": 0.9142848000000185,
            "durationTicks": 1536,
            "midi": 69,
            "name": "A4",
            "ticks": 449280,
            "time": 267.428304,
            "velocity": 0.8267716535433071
          },
          {
            "duration": 0.4571424000000093,
            "durationTicks": 768,
            "midi": 69,
            "name": "A4",
            "ticks": 451200,
            "time": 268.57116,
            "velocity": 0.8267716535433071
          },
          {
            "duration": 0.4571424000000093,
            "durationTicks": 768,
            "midi": 69,
            "name": "A4",
            "ticks": 452160,
            "time": 269.14258800000005,
            "velocity": 0.8267716535433071
          },
          {
            "duration": 0.9142848000000185,
            "durationTicks": 1536,
            "midi": 69,
            "name": "A4",
            "ticks": 453120,
            "time": 269.714016,
            "velocity": 0.8267716535433071
          },
          {
            "duration": 0.4571424000000093,
            "durationTicks": 768,
            "midi": 69,
            "name": "A4",
            "ticks": 455040,
            "time": 270.856872,
            "velocity": 0.8267716535433071
          },
          {
            "duration": 0.4571424000000093,
            "durationTicks": 768,
            "midi": 69,
            "name": "A4",
            "ticks": 456000,
            "time": 271.42830000000004,
            "velocity": 0.8267716535433071
          },
          {
            "duration": 0.4571424000000093,
            "durationTicks": 768,
            "midi": 69,
            "name": "A4",
            "ticks": 456960,
            "time": 271.999728,
            "velocity": 0.8267716535433071
          },
          {
            "duration": 1.0738084500000014,
            "durationTicks": 1804,
            "midi": 50,
            "name": "D3",
            "ticks": 485760,
            "time": 289.14256800000004,
            "velocity": 0.8267716535433071
          },
          {
            "duration": 1.0738084500000014,
            "durationTicks": 1804,
            "midi": 62,
            "name": "D4",
            "ticks": 485760,
            "time": 289.14256800000004,
            "velocity": 0.8267716535433071
          },
          {
            "duration": 1.0738084500000014,
            "durationTicks": 1804,
            "midi": 50,
            "name": "D3",
            "ticks": 487680,
            "time": 290.28542400000003,
            "velocity": 0.8267716535433071
          },
          {
            "duration": 1.0738084500000014,
            "durationTicks": 1804,
            "midi": 62,
            "name": "D4",
            "ticks": 487680,
            "time": 290.28542400000003,
            "velocity": 0.8267716535433071
          },
          {
            "duration": 1.0738084500000014,
            "durationTicks": 1804,
            "midi": 50,
            "name": "D3",
            "ticks": 489600,
            "time": 291.42828000000003,
            "velocity": 0.8267716535433071
          },
          {
            "duration": 1.0738084500000014,
            "durationTicks": 1804,
            "midi": 62,
            "name": "D4",
            "ticks": 489600,
            "time": 291.42828000000003,
            "velocity": 0.8267716535433071
          },
          {
            "duration": 1.0738084500000582,
            "durationTicks": 1804,
            "midi": 50,
            "name": "D3",
            "ticks": 491520,
            "time": 292.571136,
            "velocity": 0.8267716535433071
          },
          {
            "duration": 1.0738084500000582,
            "durationTicks": 1804,
            "midi": 62,
            "name": "D4",
            "ticks": 491520,
            "time": 292.571136,
            "velocity": 0.8267716535433071
          },
          {
            "duration": 1.0738084500000582,
            "durationTicks": 1804,
            "midi": 50,
            "name": "D3",
            "ticks": 493440,
            "time": 293.713992,
            "velocity": 0.8267716535433071
          },
          {
            "duration": 1.0738084500000582,
            "durationTicks": 1804,
            "midi": 62,
            "name": "D4",
            "ticks": 493440,
            "time": 293.713992,
            "velocity": 0.8267716535433071
          },
          {
            "duration": 0.6857136000000423,
            "durationTicks": 1152,
            "midi": 50,
            "name": "D3",
            "ticks": 495360,
            "time": 294.856848,
            "velocity": 0.8267716535433071
          },
          {
            "duration": 0.6857136000000423,
            "durationTicks": 1152,
            "midi": 62,
            "name": "D4",
            "ticks": 495360,
            "time": 294.856848,
            "velocity": 0.8267716535433071
          },
          {
            "duration": 0.22857119999997622,
            "durationTicks": 384,
            "midi": 50,
            "name": "D3",
            "ticks": 496800,
            "time": 295.71399,
            "velocity": 0.8267716535433071
          },
          {
            "duration": 0.22857119999997622,
            "durationTicks": 384,
            "midi": 62,
            "name": "D4",
            "ticks": 496800,
            "time": 295.71399,
            "velocity": 0.8267716535433071
          },
          {
            "duration": 0.19999980000005735,
            "durationTicks": 336,
            "midi": 50,
            "name": "D3",
            "ticks": 497280,
            "time": 295.999704,
            "velocity": 0.8267716535433071
          },
          {
            "duration": 0.19999980000005735,
            "durationTicks": 336,
            "midi": 62,
            "name": "D4",
            "ticks": 497280,
            "time": 295.999704,
            "velocity": 0.8267716535433071
          },
          {
            "duration": 0.1999998000000005,
            "durationTicks": 336,
            "midi": 50,
            "name": "D3",
            "ticks": 497760,
            "time": 296.28541800000005,
            "velocity": 0.8267716535433071
          },
          {
            "duration": 0.1999998000000005,
            "durationTicks": 336,
            "midi": 62,
            "name": "D4",
            "ticks": 497760,
            "time": 296.28541800000005,
            "velocity": 0.8267716535433071
          },
          {
            "duration": 0.1999998000000005,
            "durationTicks": 336,
            "midi": 50,
            "name": "D3",
            "ticks": 498240,
            "time": 296.57113200000003,
            "velocity": 0.8267716535433071
          },
          {
            "duration": 0.1999998000000005,
            "durationTicks": 336,
            "midi": 62,
            "name": "D4",
            "ticks": 498240,
            "time": 296.57113200000003,
            "velocity": 0.8267716535433071
          },
          {
            "duration": 0.1999998000000005,
            "durationTicks": 336,
            "midi": 50,
            "name": "D3",
            "ticks": 498720,
            "time": 296.856846,
            "velocity": 0.8267716535433071
          },
          {
            "duration": 0.1999998000000005,
            "durationTicks": 336,
            "midi": 62,
            "name": "D4",
            "ticks": 498720,
            "time": 296.856846,
            "velocity": 0.8267716535433071
          },
          {
            "duration": 0.22857120000003306,
            "durationTicks": 384,
            "midi": 50,
            "name": "D3",
            "ticks": 499200,
            "time": 297.14256,
            "velocity": 0.7244094488188977
          },
          {
            "duration": 0.22857120000003306,
            "durationTicks": 384,
            "midi": 62,
            "name": "D4",
            "ticks": 499200,
            "time": 297.14256,
            "velocity": 0.7244094488188977
          },
          {
            "duration": 2.2857119999999895,
            "durationTicks": 3840,
            "midi": 50,
            "name": "D3",
            "ticks": 506880,
            "time": 301.71398400000004,
            "velocity": 0.4566929133858268
          },
          {
            "duration": 2.5142831999999657,
            "durationTicks": 4224,
            "midi": 62,
            "name": "D4",
            "ticks": 506880,
            "time": 301.71398400000004,
            "velocity": 0.4566929133858268
          },
          {
            "duration": 0.22857119999997622,
            "durationTicks": 384,
            "midi": 55,
            "name": "G3",
            "ticks": 510720,
            "time": 303.99969600000003,
            "velocity": 0.4566929133858268
          },
          {
            "duration": 0.9142848000000185,
            "durationTicks": 1536,
            "midi": 55,
            "name": "G3",
            "ticks": 558720,
            "time": 332.571096,
            "velocity": 0.8267716535433071
          },
          {
            "duration": 0.9142848000000185,
            "durationTicks": 1536,
            "midi": 58,
            "name": "A#3",
            "ticks": 558720,
            "time": 332.571096,
            "velocity": 0.8267716535433071
          },
          {
            "duration": 0.9142848000000185,
            "durationTicks": 1536,
            "midi": 50,
            "name": "D3",
            "ticks": 560640,
            "time": 333.713952,
            "velocity": 0.8267716535433071
          },
          {
            "duration": 0.9142848000000185,
            "durationTicks": 1536,
            "midi": 65,
            "name": "F4",
            "ticks": 560640,
            "time": 333.713952,
            "velocity": 0.8267716535433071
          },
          {
            "duration": 0.9142848000000185,
            "durationTicks": 1536,
            "midi": 58,
            "name": "A#3",
            "ticks": 568320,
            "time": 338.28537600000004,
            "velocity": 0.8267716535433071
          },
          {
            "duration": 0.45714239999995243,
            "durationTicks": 768,
            "midi": 55,
            "name": "G3",
            "ticks": 570240,
            "time": 339.42823200000004,
            "velocity": 0.8267716535433071
          },
          {
            "duration": 0.45714239999995243,
            "durationTicks": 768,
            "midi": 60,
            "name": "C4",
            "ticks": 570240,
            "time": 339.42823200000004,
            "velocity": 0.8267716535433071
          },
          {
            "duration": 0.4571424000000093,
            "durationTicks": 768,
            "midi": 55,
            "name": "G3",
            "ticks": 571200,
            "time": 339.99966,
            "velocity": 0.8267716535433071
          },
          {
            "duration": 0.4571424000000093,
            "durationTicks": 768,
            "midi": 60,
            "name": "C4",
            "ticks": 571200,
            "time": 339.99966,
            "velocity": 0.8267716535433071
          },
          {
            "duration": 0.9142848000000185,
            "durationTicks": 1536,
            "midi": 65,
            "name": "F4",
            "ticks": 572160,
            "time": 340.57108800000003,
            "velocity": 0.8267716535433071
          },
          {
            "duration": 0.9142848000000185,
            "durationTicks": 1536,
            "midi": 72,
            "name": "C5",
            "ticks": 574080,
            "time": 341.713944,
            "velocity": 0.8267716535433071
          },
          {
            "duration": 0.4571424000000093,
            "durationTicks": 768,
            "midi": 65,
            "name": "F4",
            "ticks": 581760,
            "time": 346.285368,
            "velocity": 0.8267716535433071
          },
          {
            "duration": 0.22857119999997622,
            "durationTicks": 384,
            "midi": 65,
            "name": "F4",
            "ticks": 582720,
            "time": 346.85679600000003,
            "velocity": 0.8267716535433071
          },
          {
            "duration": 0.22857119999997622,
            "durationTicks": 384,
            "midi": 65,
            "name": "F4",
            "ticks": 583200,
            "time": 347.14251,
            "velocity": 0.8267716535433071
          },
          {
            "duration": 0.4571424000000093,
            "durationTicks": 768,
            "midi": 58,
            "name": "A#3",
            "ticks": 583680,
            "time": 347.428224,
            "velocity": 0.8267716535433071
          },
          {
            "duration": 0.22857119999997622,
            "durationTicks": 384,
            "midi": 58,
            "name": "A#3",
            "ticks": 584640,
            "time": 347.999652,
            "velocity": 0.8267716535433071
          },
          {
            "duration": 0.22857120000003306,
            "durationTicks": 384,
            "midi": 58,
            "name": "A#3",
            "ticks": 585120,
            "time": 348.285366,
            "velocity": 0.8267716535433071
          },
          {
            "duration": 0.45714239999995243,
            "durationTicks": 768,
            "midi": 58,
            "name": "A#3",
            "ticks": 585600,
            "time": 348.57108000000005,
            "velocity": 0.8267716535433071
          },
          {
            "duration": 0.45714239999995243,
            "durationTicks": 768,
            "midi": 67,
            "name": "G4",
            "ticks": 585600,
            "time": 348.57108000000005,
            "velocity": 0.8267716535433071
          },
          {
            "duration": 0.22857119999997622,
            "durationTicks": 384,
            "midi": 67,
            "name": "G4",
            "ticks": 586560,
            "time": 349.142508,
            "velocity": 0.7244094488188977
          },
          {
            "duration": 0.22857119999997622,
            "durationTicks": 384,
            "midi": 72,
            "name": "C5",
            "ticks": 586560,
            "time": 349.142508,
            "velocity": 0.7244094488188977
          },
          {
            "duration": 0.22857120000003306,
            "durationTicks": 384,
            "midi": 67,
            "name": "G4",
            "ticks": 587040,
            "time": 349.428222,
            "velocity": 0.7244094488188977
          },
          {
            "duration": 0.22857120000003306,
            "durationTicks": 384,
            "midi": 72,
            "name": "C5",
            "ticks": 587040,
            "time": 349.428222,
            "velocity": 0.7244094488188977
          },
          {
            "duration": 0.45714239999995243,
            "durationTicks": 768,
            "midi": 67,
            "name": "G4",
            "ticks": 587520,
            "time": 349.71393600000005,
            "velocity": 0.7244094488188977
          },
          {
            "duration": 0.45714239999995243,
            "durationTicks": 768,
            "midi": 72,
            "name": "C5",
            "ticks": 587520,
            "time": 349.71393600000005,
            "velocity": 0.7244094488188977
          },
          {
            "duration": 0.5142852000000175,
            "durationTicks": 864,
            "midi": 55,
            "name": "G3",
            "ticks": 588480,
            "time": 350.285364,
            "velocity": 0.7244094488188977
          },
          {
            "duration": 0.22857119999997622,
            "durationTicks": 384,
            "midi": 72,
            "name": "C5",
            "ticks": 588480,
            "time": 350.285364,
            "velocity": 0.7244094488188977
          },
          {
            "duration": 0.22857119999997622,
            "durationTicks": 384,
            "midi": 72,
            "name": "C5",
            "ticks": 588960,
            "time": 350.57107800000006,
            "velocity": 0.7244094488188977
          },
          {
            "duration": 0.5142851999999607,
            "durationTicks": 864,
            "midi": 72,
            "name": "C5",
            "ticks": 589440,
            "time": 350.85679200000004,
            "velocity": 0.7244094488188977
          },
          {
            "duration": 0.22857119999997622,
            "durationTicks": 384,
            "midi": 69,
            "name": "A4",
            "ticks": 589920,
            "time": 351.142506,
            "velocity": 0.7244094488188977
          },
          {
            "duration": 0.22857120000003306,
            "durationTicks": 384,
            "midi": 69,
            "name": "A4",
            "ticks": 590400,
            "time": 351.42822,
            "velocity": 0.7244094488188977
          },
          {
            "duration": 0.5142852000000175,
            "durationTicks": 864,
            "midi": 72,
            "name": "C5",
            "ticks": 590400,
            "time": 351.42822,
            "velocity": 0.7244094488188977
          },
          {
            "duration": 0.22857119999997622,
            "durationTicks": 384,
            "midi": 69,
            "name": "A4",
            "ticks": 590880,
            "time": 351.71393400000005,
            "velocity": 0.7244094488188977
          },
          {
            "duration": 0.45714239999995243,
            "durationTicks": 768,
            "midi": 67,
            "name": "G4",
            "ticks": 591360,
            "time": 351.99964800000004,
            "velocity": 0.7244094488188977
          },
          {
            "duration": 0.45714239999995243,
            "durationTicks": 768,
            "midi": 74,
            "name": "D5",
            "ticks": 591360,
            "time": 351.99964800000004,
            "velocity": 0.7244094488188977
          },
          {
            "duration": 0.22857120000003306,
            "durationTicks": 384,
            "midi": 67,
            "name": "G4",
            "ticks": 592320,
            "time": 352.571076,
            "velocity": 0.7244094488188977
          },
          {
            "duration": 0.22857120000003306,
            "durationTicks": 384,
            "midi": 74,
            "name": "D5",
            "ticks": 592320,
            "time": 352.571076,
            "velocity": 0.7244094488188977
          },
          {
            "duration": 0.22857119999997622,
            "durationTicks": 384,
            "midi": 67,
            "name": "G4",
            "ticks": 592800,
            "time": 352.85679000000005,
            "velocity": 0.7244094488188977
          },
          {
            "duration": 0.22857119999997622,
            "durationTicks": 384,
            "midi": 74,
            "name": "D5",
            "ticks": 592800,
            "time": 352.85679000000005,
            "velocity": 0.7244094488188977
          },
          {
            "duration": 0.45714239999995243,
            "durationTicks": 768,
            "midi": 67,
            "name": "G4",
            "ticks": 593280,
            "time": 353.14250400000003,
            "velocity": 0.7244094488188977
          },
          {
            "duration": 0.45714239999995243,
            "durationTicks": 768,
            "midi": 72,
            "name": "C5",
            "ticks": 593280,
            "time": 353.14250400000003,
            "velocity": 0.7244094488188977
          },
          {
            "duration": 0.22857119999997622,
            "durationTicks": 384,
            "midi": 55,
            "name": "G3",
            "ticks": 594240,
            "time": 353.71393200000006,
            "velocity": 0.7244094488188977
          },
          {
            "duration": 0.5142851999999607,
            "durationTicks": 864,
            "midi": 72,
            "name": "C5",
            "ticks": 594240,
            "time": 353.71393200000006,
            "velocity": 0.7244094488188977
          },
          {
            "duration": 0.22857119999997622,
            "durationTicks": 384,
            "midi": 55,
            "name": "G3",
            "ticks": 594720,
            "time": 353.99964600000004,
            "velocity": 0.7244094488188977
          },
          {
            "duration": 0.45714239999995243,
            "durationTicks": 768,
            "midi": 62,
            "name": "D4",
            "ticks": 595200,
            "time": 354.28536,
            "velocity": 0.7244094488188977
          },
          {
            "duration": 0.45714239999995243,
            "durationTicks": 768,
            "midi": 72,
            "name": "C5",
            "ticks": 595200,
            "time": 354.28536,
            "velocity": 0.7244094488188977
          },
          {
            "duration": 0.22857119999997622,
            "durationTicks": 384,
            "midi": 62,
            "name": "D4",
            "ticks": 596160,
            "time": 354.85678800000005,
            "velocity": 0.7244094488188977
          },
          {
            "duration": 0.22857119999997622,
            "durationTicks": 384,
            "midi": 72,
            "name": "C5",
            "ticks": 596160,
            "time": 354.85678800000005,
            "velocity": 0.7244094488188977
          },
          {
            "duration": 0.22857119999997622,
            "durationTicks": 384,
            "midi": 62,
            "name": "D4",
            "ticks": 596640,
            "time": 355.14250200000004,
            "velocity": 0.7244094488188977
          },
          {
            "duration": 0.22857119999997622,
            "durationTicks": 384,
            "midi": 72,
            "name": "C5",
            "ticks": 596640,
            "time": 355.14250200000004,
            "velocity": 0.7244094488188977
          },
          {
            "duration": 1.0857131999999865,
            "durationTicks": 1824,
            "midi": 62,
            "name": "D4",
            "ticks": 597120,
            "time": 355.428216,
            "velocity": 0.8267716535433071
          },
          {
            "duration": 1.0857131999999865,
            "durationTicks": 1824,
            "midi": 70,
            "name": "A#4",
            "ticks": 597120,
            "time": 355.428216,
            "velocity": 0.8267716535433071
          },
          {
            "duration": 1.0857131999999865,
            "durationTicks": 1824,
            "midi": 50,
            "name": "D3",
            "ticks": 599040,
            "time": 356.571072,
            "velocity": 0.8267716535433071
          },
          {
            "duration": 1.0857131999999865,
            "durationTicks": 1824,
            "midi": 74,
            "name": "D5",
            "ticks": 599040,
            "time": 356.571072,
            "velocity": 0.8267716535433071
          },
          {
            "duration": 0.9142848000000185,
            "durationTicks": 1536,
            "midi": 62,
            "name": "D4",
            "ticks": 602880,
            "time": 358.856784,
            "velocity": 0.8267716535433071
          },
          {
            "duration": 0.9142848000000185,
            "durationTicks": 1536,
            "midi": 67,
            "name": "G4",
            "ticks": 602880,
            "time": 358.856784,
            "velocity": 0.8267716535433071
          },
          {
            "duration": 0.9142848000000185,
            "durationTicks": 1536,
            "midi": 55,
            "name": "G3",
            "ticks": 606720,
            "time": 361.14249600000005,
            "velocity": 0.8267716535433071
          },
          {
            "duration": 0.9142848000000185,
            "durationTicks": 1536,
            "midi": 62,
            "name": "D4",
            "ticks": 606720,
            "time": 361.14249600000005,
            "velocity": 0.8267716535433071
          },
          {
            "duration": 0.9142848000000185,
            "durationTicks": 1536,
            "midi": 55,
            "name": "G3",
            "ticks": 608640,
            "time": 362.28535200000005,
            "velocity": 0.984251968503937
          },
          {
            "duration": 0.45714239999995243,
            "durationTicks": 768,
            "midi": 55,
            "name": "G3",
            "ticks": 610560,
            "time": 363.42820800000004,
            "velocity": 0.984251968503937
          },
          {
            "duration": 0.4571424000000093,
            "durationTicks": 768,
            "midi": 55,
            "name": "G3",
            "ticks": 611520,
            "time": 363.999636,
            "velocity": 0.984251968503937
          },
          {
            "duration": 0.45714239999995243,
            "durationTicks": 768,
            "midi": 55,
            "name": "G3",
            "ticks": 612480,
            "time": 364.57106400000004,
            "velocity": 0.984251968503937
          },
          {
            "duration": 0.4571424000000093,
            "durationTicks": 768,
            "midi": 55,
            "name": "G3",
            "ticks": 613440,
            "time": 365.142492,
            "velocity": 0.984251968503937
          },
          {
            "duration": 0.45714239999995243,
            "durationTicks": 768,
            "midi": 55,
            "name": "G3",
            "ticks": 614400,
            "time": 365.71392000000003,
            "velocity": 0.984251968503937
          },
          {
            "duration": 0.45714239999995243,
            "durationTicks": 768,
            "midi": 55,
            "name": "G3",
            "ticks": 615360,
            "time": 366.28534800000006,
            "velocity": 0.984251968503937
          },
          {
            "duration": 0.9142848000000185,
            "durationTicks": 1536,
            "midi": 50,
            "name": "D3",
            "ticks": 616320,
            "time": 366.856776,
            "velocity": 0.8267716535433071
          },
          {
            "duration": 0.9142848000000185,
            "durationTicks": 1536,
            "midi": 62,
            "name": "D4",
            "ticks": 616320,
            "time": 366.856776,
            "velocity": 0.8267716535433071
          },
          {
            "duration": 0.4571424000000093,
            "durationTicks": 768,
            "midi": 50,
            "name": "D3",
            "ticks": 618240,
            "time": 367.999632,
            "velocity": 0.8267716535433071
          },
          {
            "duration": 0.4571424000000093,
            "durationTicks": 768,
            "midi": 62,
            "name": "D4",
            "ticks": 618240,
            "time": 367.999632,
            "velocity": 0.8267716535433071
          },
          {
            "duration": 0.45714239999995243,
            "durationTicks": 768,
            "midi": 50,
            "name": "D3",
            "ticks": 619200,
            "time": 368.57106000000005,
            "velocity": 0.8267716535433071
          },
          {
            "duration": 0.45714239999995243,
            "durationTicks": 768,
            "midi": 62,
            "name": "D4",
            "ticks": 619200,
            "time": 368.57106000000005,
            "velocity": 0.8267716535433071
          },
          {
            "duration": 0.4571424000000093,
            "durationTicks": 768,
            "midi": 50,
            "name": "D3",
            "ticks": 620160,
            "time": 369.142488,
            "velocity": 0.8267716535433071
          },
          {
            "duration": 0.4571424000000093,
            "durationTicks": 768,
            "midi": 62,
            "name": "D4",
            "ticks": 620160,
            "time": 369.142488,
            "velocity": 0.8267716535433071
          },
          {
            "duration": 0.22857119999997622,
            "durationTicks": 384,
            "midi": 50,
            "name": "D3",
            "ticks": 621120,
            "time": 369.71391600000004,
            "velocity": 0.8267716535433071
          },
          {
            "duration": 0.22857119999997622,
            "durationTicks": 384,
            "midi": 62,
            "name": "D4",
            "ticks": 621120,
            "time": 369.71391600000004,
            "velocity": 0.8267716535433071
          },
          {
            "duration": 0.22857119999997622,
            "durationTicks": 384,
            "midi": 50,
            "name": "D3",
            "ticks": 621600,
            "time": 369.99963,
            "velocity": 0.8267716535433071
          },
          {
            "duration": 0.22857119999997622,
            "durationTicks": 384,
            "midi": 62,
            "name": "D4",
            "ticks": 621600,
            "time": 369.99963,
            "velocity": 0.8267716535433071
          },
          {
            "duration": 0.22857120000003306,
            "durationTicks": 384,
            "midi": 50,
            "name": "D3",
            "ticks": 622080,
            "time": 370.285344,
            "velocity": 0.8267716535433071
          },
          {
            "duration": 0.22857120000003306,
            "durationTicks": 384,
            "midi": 62,
            "name": "D4",
            "ticks": 622080,
            "time": 370.285344,
            "velocity": 0.8267716535433071
          },
          {
            "duration": 0.22857119999997622,
            "durationTicks": 384,
            "midi": 50,
            "name": "D3",
            "ticks": 622560,
            "time": 370.57105800000005,
            "velocity": 0.8267716535433071
          },
          {
            "duration": 0.22857119999997622,
            "durationTicks": 384,
            "midi": 62,
            "name": "D4",
            "ticks": 622560,
            "time": 370.57105800000005,
            "velocity": 0.8267716535433071
          },
          {
            "duration": 0.22857119999997622,
            "durationTicks": 384,
            "midi": 50,
            "name": "D3",
            "ticks": 623040,
            "time": 370.85677200000003,
            "velocity": 0.8267716535433071
          },
          {
            "duration": 0.22857119999997622,
            "durationTicks": 384,
            "midi": 62,
            "name": "D4",
            "ticks": 623040,
            "time": 370.85677200000003,
            "velocity": 0.8267716535433071
          },
          {
            "duration": 0.22857119999997622,
            "durationTicks": 384,
            "midi": 50,
            "name": "D3",
            "ticks": 623520,
            "time": 371.142486,
            "velocity": 0.8267716535433071
          },
          {
            "duration": 0.22857119999997622,
            "durationTicks": 384,
            "midi": 62,
            "name": "D4",
            "ticks": 623520,
            "time": 371.142486,
            "velocity": 0.8267716535433071
          },
          {
            "duration": 0.22857120000003306,
            "durationTicks": 384,
            "midi": 50,
            "name": "D3",
            "ticks": 624000,
            "time": 371.4282,
            "velocity": 0.8267716535433071
          },
          {
            "duration": 0.22857120000003306,
            "durationTicks": 384,
            "midi": 62,
            "name": "D4",
            "ticks": 624000,
            "time": 371.4282,
            "velocity": 0.8267716535433071
          },
          {
            "duration": 0.22857119999997622,
            "durationTicks": 384,
            "midi": 50,
            "name": "D3",
            "ticks": 624960,
            "time": 371.99962800000003,
            "velocity": 0.7244094488188977
          },
          {
            "duration": 0.22857119999997622,
            "durationTicks": 384,
            "midi": 62,
            "name": "D4",
            "ticks": 624960,
            "time": 371.99962800000003,
            "velocity": 0.7244094488188977
          },
          {
            "duration": 4.514281199999971,
            "durationTicks": 7584,
            "midi": 58,
            "name": "A#3",
            "ticks": 654720,
            "time": 389.71389600000003,
            "velocity": 0.4566929133858268
          },
          {
            "duration": 1.1428559999999948,
            "durationTicks": 1920,
            "midi": 62,
            "name": "D4",
            "ticks": 662400,
            "time": 394.28532,
            "velocity": 0.5511811023622047
          },
          {
            "duration": 1.1428559999999948,
            "durationTicks": 1920,
            "midi": 65,
            "name": "F4",
            "ticks": 662400,
            "time": 394.28532,
            "velocity": 0.5511811023622047
          },
          {
            "duration": 0.9142848000000185,
            "durationTicks": 1536,
            "midi": 62,
            "name": "D4",
            "ticks": 664320,
            "time": 395.428176,
            "velocity": 0.7244094488188977
          },
          {
            "duration": 0.9142848000000185,
            "durationTicks": 1536,
            "midi": 65,
            "name": "F4",
            "ticks": 664320,
            "time": 395.428176,
            "velocity": 0.7244094488188977
          },
          {
            "duration": 0.9142848000000185,
            "durationTicks": 1536,
            "midi": 65,
            "name": "F4",
            "ticks": 668160,
            "time": 397.71388800000005,
            "velocity": 0.8267716535433071
          },
          {
            "duration": 0.9142848000000185,
            "durationTicks": 1536,
            "midi": 62,
            "name": "D4",
            "ticks": 670080,
            "time": 398.85674400000005,
            "velocity": 0.8267716535433071
          },
          {
            "duration": 0.9142848000000185,
            "durationTicks": 1536,
            "midi": 65,
            "name": "F4",
            "ticks": 670080,
            "time": 398.85674400000005,
            "velocity": 0.8267716535433071
          },
          {
            "duration": 0.9142848000000185,
            "durationTicks": 1536,
            "midi": 67,
            "name": "G4",
            "ticks": 672000,
            "time": 399.99960000000004,
            "velocity": 0.8267716535433071
          },
          {
            "duration": 0.9142848000000185,
            "durationTicks": 1536,
            "midi": 72,
            "name": "C5",
            "ticks": 672000,
            "time": 399.99960000000004,
            "velocity": 0.8267716535433071
          },
          {
            "duration": 0.45714239999995243,
            "durationTicks": 768,
            "midi": 67,
            "name": "G4",
            "ticks": 673920,
            "time": 401.14245600000004,
            "velocity": 0.8267716535433071
          },
          {
            "duration": 0.45714239999995243,
            "durationTicks": 768,
            "midi": 70,
            "name": "A#4",
            "ticks": 673920,
            "time": 401.14245600000004,
            "velocity": 0.8267716535433071
          },
          {
            "duration": 0.22857120000003306,
            "durationTicks": 384,
            "midi": 55,
            "name": "G3",
            "ticks": 674880,
            "time": 401.713884,
            "velocity": 0.8267716535433071
          },
          {
            "duration": 0.22857120000003306,
            "durationTicks": 384,
            "midi": 58,
            "name": "A#3",
            "ticks": 674880,
            "time": 401.713884,
            "velocity": 0.8267716535433071
          },
          {
            "duration": 0.22857119999997622,
            "durationTicks": 384,
            "midi": 55,
            "name": "G3",
            "ticks": 675360,
            "time": 401.99959800000005,
            "velocity": 0.8267716535433071
          },
          {
            "duration": 0.22857119999997622,
            "durationTicks": 384,
            "midi": 58,
            "name": "A#3",
            "ticks": 675360,
            "time": 401.99959800000005,
            "velocity": 0.8267716535433071
          },
          {
            "duration": 0.45714239999995243,
            "durationTicks": 768,
            "midi": 55,
            "name": "G3",
            "ticks": 675840,
            "time": 402.28531200000003,
            "velocity": 0.8267716535433071
          },
          {
            "duration": 0.45714239999995243,
            "durationTicks": 768,
            "midi": 58,
            "name": "A#3",
            "ticks": 675840,
            "time": 402.28531200000003,
            "velocity": 0.8267716535433071
          },
          {
            "duration": 0.45714239999995243,
            "durationTicks": 768,
            "midi": 67,
            "name": "G4",
            "ticks": 676800,
            "time": 402.85674000000006,
            "velocity": 0.8267716535433071
          },
          {
            "duration": 0.45714239999995243,
            "durationTicks": 768,
            "midi": 70,
            "name": "A#4",
            "ticks": 676800,
            "time": 402.85674000000006,
            "velocity": 0.8267716535433071
          },
          {
            "duration": 0.9142848000000185,
            "durationTicks": 1536,
            "midi": 57,
            "name": "A3",
            "ticks": 677760,
            "time": 403.428168,
            "velocity": 0.8267716535433071
          },
          {
            "duration": 0.9142848000000185,
            "durationTicks": 1536,
            "midi": 62,
            "name": "D4",
            "ticks": 677760,
            "time": 403.428168,
            "velocity": 0.8267716535433071
          },
          {
            "duration": 0.22857119999997622,
            "durationTicks": 384,
            "midi": 58,
            "name": "A#3",
            "ticks": 679680,
            "time": 404.571024,
            "velocity": 0.7244094488188977
          },
          {
            "duration": 0.22857119999997622,
            "durationTicks": 384,
            "midi": 67,
            "name": "G4",
            "ticks": 679680,
            "time": 404.571024,
            "velocity": 0.7244094488188977
          },
          {
            "duration": 0.22857120000003306,
            "durationTicks": 384,
            "midi": 67,
            "name": "G4",
            "ticks": 683520,
            "time": 406.856736,
            "velocity": 0.8267716535433071
          },
          {
            "duration": 0.22857119999997622,
            "durationTicks": 384,
            "midi": 55,
            "name": "G3",
            "ticks": 684480,
            "time": 407.42816400000004,
            "velocity": 0.8267716535433071
          },
          {
            "duration": 0.22857120000003306,
            "durationTicks": 384,
            "midi": 50,
            "name": "D3",
            "ticks": 685440,
            "time": 407.999592,
            "velocity": 0.8267716535433071
          },
          {
            "duration": 0.22857120000003306,
            "durationTicks": 384,
            "midi": 62,
            "name": "D4",
            "ticks": 685440,
            "time": 407.999592,
            "velocity": 0.8267716535433071
          },
          {
            "duration": 0.22857119999997622,
            "durationTicks": 384,
            "midi": 50,
            "name": "D3",
            "ticks": 686400,
            "time": 408.57102000000003,
            "velocity": 0.8267716535433071
          },
          {
            "duration": 0.22857119999997622,
            "durationTicks": 384,
            "midi": 62,
            "name": "D4",
            "ticks": 686400,
            "time": 408.57102000000003,
            "velocity": 0.8267716535433071
          },
          {
            "duration": 0.9142848000000185,
            "durationTicks": 1536,
            "midi": 65,
            "name": "F4",
            "ticks": 700800,
            "time": 417.14244,
            "velocity": 0.8267716535433071
          },
          {
            "duration": 0.9142848000000185,
            "durationTicks": 1536,
            "midi": 67,
            "name": "G4",
            "ticks": 700800,
            "time": 417.14244,
            "velocity": 0.8267716535433071
          },
          {
            "duration": 0.9142848000000185,
            "durationTicks": 1536,
            "midi": 60,
            "name": "C4",
            "ticks": 702720,
            "time": 418.285296,
            "velocity": 0.8267716535433071
          },
          {
            "duration": 0.9142848000000185,
            "durationTicks": 1536,
            "midi": 67,
            "name": "G4",
            "ticks": 702720,
            "time": 418.285296,
            "velocity": 0.8267716535433071
          },
          {
            "duration": 0.4571424000000093,
            "durationTicks": 768,
            "midi": 62,
            "name": "D4",
            "ticks": 704640,
            "time": 419.428152,
            "velocity": 0.8267716535433071
          },
          {
            "duration": 0.45714239999995243,
            "durationTicks": 768,
            "midi": 62,
            "name": "D4",
            "ticks": 705600,
            "time": 419.99958000000004,
            "velocity": 0.8267716535433071
          },
          {
            "duration": 0.22857120000003306,
            "durationTicks": 384,
            "midi": 58,
            "name": "A#3",
            "ticks": 706560,
            "time": 420.571008,
            "velocity": 0.7244094488188977
          },
          {
            "duration": 0.22857120000003306,
            "durationTicks": 384,
            "midi": 62,
            "name": "D4",
            "ticks": 706560,
            "time": 420.571008,
            "velocity": 0.7244094488188977
          },
          {
            "duration": 4.342852800000003,
            "durationTicks": 7296,
            "midi": 50,
            "name": "D3",
            "ticks": 708480,
            "time": 421.71386400000006,
            "velocity": 0.4566929133858268
          },
          {
            "duration": 4.342852800000003,
            "durationTicks": 7296,
            "midi": 62,
            "name": "D4",
            "ticks": 708480,
            "time": 421.71386400000006,
            "velocity": 0.4566929133858268
          },
          {
            "duration": 0.45714239999995243,
            "durationTicks": 768,
            "midi": 55,
            "name": "G3",
            "ticks": 716160,
            "time": 426.28528800000004,
            "velocity": 0.8267716535433071
          },
          {
            "duration": 0.45714239999995243,
            "durationTicks": 768,
            "midi": 62,
            "name": "D4",
            "ticks": 716160,
            "time": 426.28528800000004,
            "velocity": 0.8267716535433071
          },
          {
            "duration": 0.45714239999995243,
            "durationTicks": 768,
            "midi": 62,
            "name": "D4",
            "ticks": 717120,
            "time": 426.85671600000006,
            "velocity": 0.8267716535433071
          },
          {
            "duration": 0.45714239999995243,
            "durationTicks": 768,
            "midi": 67,
            "name": "G4",
            "ticks": 717120,
            "time": 426.85671600000006,
            "velocity": 0.8267716535433071
          },
          {
            "duration": 0.9142848000000185,
            "durationTicks": 1536,
            "midi": 63,
            "name": "D#4",
            "ticks": 718080,
            "time": 427.42814400000003,
            "velocity": 0.8267716535433071
          },
          {
            "duration": 0.9142848000000185,
            "durationTicks": 1536,
            "midi": 67,
            "name": "G4",
            "ticks": 718080,
            "time": 427.42814400000003,
            "velocity": 0.8267716535433071
          },
          {
            "duration": 0.4571424000000093,
            "durationTicks": 768,
            "midi": 62,
            "name": "D4",
            "ticks": 720000,
            "time": 428.571,
            "velocity": 0.8267716535433071
          },
          {
            "duration": 0.45714239999995243,
            "durationTicks": 768,
            "midi": 62,
            "name": "D4",
            "ticks": 720960,
            "time": 429.14242800000005,
            "velocity": 0.8267716535433071
          },
          {
            "duration": 0.22857119999997622,
            "durationTicks": 384,
            "midi": 58,
            "name": "A#3",
            "ticks": 721920,
            "time": 429.713856,
            "velocity": 0.8267716535433071
          },
          {
            "duration": 0.22857119999997622,
            "durationTicks": 384,
            "midi": 62,
            "name": "D4",
            "ticks": 721920,
            "time": 429.713856,
            "velocity": 0.8267716535433071
          },
          {
            "duration": 0.18571409999998423,
            "durationTicks": 312,
            "midi": 67,
            "name": "G4",
            "ticks": 726240,
            "time": 432.28528200000005,
            "velocity": 0.8267716535433071
          },
          {
            "duration": 0.18571410000004107,
            "durationTicks": 312,
            "midi": 67,
            "name": "G4",
            "ticks": 726720,
            "time": 432.57099600000004,
            "velocity": 0.8267716535433071
          },
          {
            "duration": 0.18571410000004107,
            "durationTicks": 312,
            "midi": 60,
            "name": "C4",
            "ticks": 727200,
            "time": 432.85671,
            "velocity": 0.8267716535433071
          },
          {
            "duration": 0.18571410000004107,
            "durationTicks": 312,
            "midi": 62,
            "name": "D4",
            "ticks": 727200,
            "time": 432.85671,
            "velocity": 0.8267716535433071
          },
          {
            "duration": 0.22857119999997622,
            "durationTicks": 384,
            "midi": 58,
            "name": "A#3",
            "ticks": 727680,
            "time": 433.14242400000006,
            "velocity": 0.8267716535433071
          },
          {
            "duration": 0.22857119999997622,
            "durationTicks": 384,
            "midi": 62,
            "name": "D4",
            "ticks": 727680,
            "time": 433.14242400000006,
            "velocity": 0.8267716535433071
          },
          {
            "duration": 0.4587912000000074,
            "durationTicks": 768,
            "midi": 55,
            "name": "G3",
            "ticks": 731520,
            "time": 435.42813600000005,
            "velocity": 0.984251968503937
          },
          {
            "duration": 0.4677328000000216,
            "durationTicks": 768,
            "midi": 55,
            "name": "G3",
            "ticks": 732480,
            "time": 436.002312,
            "velocity": 0.984251968503937
          },
          {
            "duration": 0.47613419999998996,
            "durationTicks": 768,
            "midi": 55,
            "name": "G3",
            "ticks": 733440,
            "time": 436.58769200000006,
            "velocity": 0.984251968503937
          },
          {
            "duration": 0.48424940000001016,
            "durationTicks": 768,
            "midi": 55,
            "name": "G3",
            "ticks": 734400,
            "time": 437.18322900000004,
            "velocity": 0.984251968503937
          },
          {
            "duration": 0.4942205999999487,
            "durationTicks": 768,
            "midi": 55,
            "name": "G3",
            "ticks": 735360,
            "time": 437.78930600000007,
            "velocity": 0.984251968503937
          },
          {
            "duration": 0.5046120000000087,
            "durationTicks": 768,
            "midi": 55,
            "name": "G3",
            "ticks": 736320,
            "time": 438.40787900000004,
            "velocity": 0.984251968503937
          },
          {
            "duration": 0.5144045999999776,
            "durationTicks": 768,
            "midi": 55,
            "name": "G3",
            "ticks": 737280,
            "time": 439.03947500000004,
            "velocity": 0.984251968503937
          },
          {
            "duration": 0.26086959999997816,
            "durationTicks": 384,
            "midi": 55,
            "name": "G3",
            "ticks": 738240,
            "time": 439.68291200000004,
            "velocity": 0.8267716535433071
          },
          {
            "duration": 2.6399999999999864,
            "durationTicks": 4224,
            "midi": 62,
            "name": "D4",
            "ticks": 739200,
            "time": 440.33866900000004,
            "velocity": 0.4566929133858268
          },
          {
            "duration": 0.2400000000000091,
            "durationTicks": 384,
            "midi": 67,
            "name": "G4",
            "ticks": 743040,
            "time": 442.738669,
            "velocity": 0.4566929133858268
          },
          {
            "duration": 2.339999999999975,
            "durationTicks": 3744,
            "midi": 55,
            "name": "G3",
            "ticks": 746880,
            "time": 445.13866900000005,
            "velocity": 0.4566929133858268
          },
          {
            "duration": 2.340000000000032,
            "durationTicks": 3744,
            "midi": 50,
            "name": "D3",
            "ticks": 750720,
            "time": 447.538669,
            "velocity": 0.4566929133858268
          },
          {
            "duration": 0.1999998000000005,
            "durationTicks": 336,
            "midi": 55,
            "name": "G3",
            "ticks": 754560,
            "time": 449.93866900000006,
            "velocity": 0.8267716535433071
          },
          {
            "duration": 0.1999998000000005,
            "durationTicks": 336,
            "midi": 62,
            "name": "D4",
            "ticks": 754560,
            "time": 449.93866900000006,
            "velocity": 0.8267716535433071
          },
          {
            "duration": 0.09999990000000025,
            "durationTicks": 168,
            "midi": 62,
            "name": "D4",
            "ticks": 755040,
            "time": 450.22438300000005,
            "velocity": 0.8267716535433071
          },
          {
            "duration": 0.09999990000000025,
            "durationTicks": 168,
            "midi": 62,
            "name": "D4",
            "ticks": 755280,
            "time": 450.36724000000004,
            "velocity": 0.8267716535433071
          },
          {
            "duration": 0.1999998000000005,
            "durationTicks": 336,
            "midi": 50,
            "name": "D3",
            "ticks": 755520,
            "time": 450.5100970000001,
            "velocity": 0.8267716535433071
          },
          {
            "duration": 0.1999998000000005,
            "durationTicks": 336,
            "midi": 62,
            "name": "D4",
            "ticks": 755520,
            "time": 450.5100970000001,
            "velocity": 0.8267716535433071
          },
          {
            "duration": 0.09999990000000025,
            "durationTicks": 168,
            "midi": 62,
            "name": "D4",
            "ticks": 756000,
            "time": 450.79581100000007,
            "velocity": 0.8267716535433071
          },
          {
            "duration": 0.09999990000000025,
            "durationTicks": 168,
            "midi": 62,
            "name": "D4",
            "ticks": 756240,
            "time": 450.93866800000006,
            "velocity": 0.8267716535433071
          },
          {
            "duration": 0.1999998000000005,
            "durationTicks": 336,
            "midi": 55,
            "name": "G3",
            "ticks": 756480,
            "time": 451.08152500000006,
            "velocity": 0.8267716535433071
          },
          {
            "duration": 0.1999998000000005,
            "durationTicks": 336,
            "midi": 62,
            "name": "D4",
            "ticks": 756480,
            "time": 451.08152500000006,
            "velocity": 0.8267716535433071
          },
          {
            "duration": 0.09999990000000025,
            "durationTicks": 168,
            "midi": 62,
            "name": "D4",
            "ticks": 756960,
            "time": 451.36723900000004,
            "velocity": 0.8267716535433071
          },
          {
            "duration": 0.09999989999994341,
            "durationTicks": 168,
            "midi": 62,
            "name": "D4",
            "ticks": 757200,
            "time": 451.5100960000001,
            "velocity": 0.8267716535433071
          },
          {
            "duration": 0.1999998000000005,
            "durationTicks": 336,
            "midi": 50,
            "name": "D3",
            "ticks": 757440,
            "time": 451.6529530000001,
            "velocity": 0.8267716535433071
          },
          {
            "duration": 0.1999998000000005,
            "durationTicks": 336,
            "midi": 62,
            "name": "D4",
            "ticks": 757440,
            "time": 451.6529530000001,
            "velocity": 0.8267716535433071
          },
          {
            "duration": 0.09999990000000025,
            "durationTicks": 168,
            "midi": 62,
            "name": "D4",
            "ticks": 757920,
            "time": 451.93866700000007,
            "velocity": 0.8267716535433071
          },
          {
            "duration": 0.09999990000000025,
            "durationTicks": 168,
            "midi": 62,
            "name": "D4",
            "ticks": 758160,
            "time": 452.08152400000006,
            "velocity": 0.8267716535433071
          },
          {
            "duration": 0.1999998000000005,
            "durationTicks": 336,
            "midi": 55,
            "name": "G3",
            "ticks": 758400,
            "time": 452.22438100000005,
            "velocity": 0.8267716535433071
          },
          {
            "duration": 0.1999998000000005,
            "durationTicks": 336,
            "midi": 62,
            "name": "D4",
            "ticks": 758400,
            "time": 452.22438100000005,
            "velocity": 0.8267716535433071
          },
          {
            "duration": 0.09999990000000025,
            "durationTicks": 168,
            "midi": 62,
            "name": "D4",
            "ticks": 758880,
            "time": 452.51009500000004,
            "velocity": 0.8267716535433071
          },
          {
            "duration": 0.09999990000000025,
            "durationTicks": 168,
            "midi": 62,
            "name": "D4",
            "ticks": 759120,
            "time": 452.6529520000001,
            "velocity": 0.8267716535433071
          },
          {
            "duration": 0.1999998000000005,
            "durationTicks": 336,
            "midi": 50,
            "name": "D3",
            "ticks": 759360,
            "time": 452.7958090000001,
            "velocity": 0.8267716535433071
          },
          {
            "duration": 0.1999998000000005,
            "durationTicks": 336,
            "midi": 62,
            "name": "D4",
            "ticks": 759360,
            "time": 452.7958090000001,
            "velocity": 0.8267716535433071
          },
          {
            "duration": 0.09999990000000025,
            "durationTicks": 168,
            "midi": 62,
            "name": "D4",
            "ticks": 759840,
            "time": 453.08152300000006,
            "velocity": 0.8267716535433071
          },
          {
            "duration": 0.09999990000000025,
            "durationTicks": 168,
            "midi": 62,
            "name": "D4",
            "ticks": 760080,
            "time": 453.22438000000005,
            "velocity": 0.8267716535433071
          },
          {
            "duration": 0.1999998000000005,
            "durationTicks": 336,
            "midi": 55,
            "name": "G3",
            "ticks": 760320,
            "time": 453.36723700000005,
            "velocity": 0.8267716535433071
          },
          {
            "duration": 0.1999998000000005,
            "durationTicks": 336,
            "midi": 62,
            "name": "D4",
            "ticks": 760320,
            "time": 453.36723700000005,
            "velocity": 0.8267716535433071
          },
          {
            "duration": 0.1999998000000005,
            "durationTicks": 336,
            "midi": 50,
            "name": "D3",
            "ticks": 760800,
            "time": 453.6529510000001,
            "velocity": 0.8267716535433071
          },
          {
            "duration": 0.1999998000000005,
            "durationTicks": 336,
            "midi": 62,
            "name": "D4",
            "ticks": 760800,
            "time": 453.6529510000001,
            "velocity": 0.8267716535433071
          },
          {
            "duration": 0.1999998000000005,
            "durationTicks": 336,
            "midi": 55,
            "name": "G3",
            "ticks": 761280,
            "time": 453.93866500000007,
            "velocity": 0.8267716535433071
          },
          {
            "duration": 0.1999998000000005,
            "durationTicks": 336,
            "midi": 62,
            "name": "D4",
            "ticks": 761280,
            "time": 453.93866500000007,
            "velocity": 0.8267716535433071
          },
          {
            "duration": 0.1999998000000005,
            "durationTicks": 336,
            "midi": 50,
            "name": "D3",
            "ticks": 761760,
            "time": 454.22437900000006,
            "velocity": 0.8267716535433071
          },
          {
            "duration": 0.1999998000000005,
            "durationTicks": 336,
            "midi": 62,
            "name": "D4",
            "ticks": 761760,
            "time": 454.22437900000006,
            "velocity": 0.8267716535433071
          },
          {
            "duration": 0.25263119999999617,
            "durationTicks": 384,
            "midi": 55,
            "name": "G3",
            "ticks": 762240,
            "time": 454.51009300000004,
            "velocity": 0.8267716535433071
          },
          {
            "duration": 0.25263119999999617,
            "durationTicks": 384,
            "midi": 62,
            "name": "D4",
            "ticks": 762240,
            "time": 454.51009300000004,
            "velocity": 0.8267716535433071
          },
          {
            "duration": 0.2666664000000196,
            "durationTicks": 384,
            "midi": 55,
            "name": "G3",
            "ticks": 764160,
            "time": 455.773249,
            "velocity": 0.8267716535433071
          },
          {
            "duration": 0.2666664000000196,
            "durationTicks": 384,
            "midi": 58,
            "name": "A#3",
            "ticks": 764160,
            "time": 455.773249,
            "velocity": 0.8267716535433071
          },
          {
            "duration": 0.29090880000001107,
            "durationTicks": 384,
            "midi": 55,
            "name": "G3",
            "ticks": 765120,
            "time": 456.455419,
            "velocity": 0.8267716535433071
          },
          {
            "duration": 0.29090880000001107,
            "durationTicks": 384,
            "midi": 58,
            "name": "A#3",
            "ticks": 765120,
            "time": 456.455419,
            "velocity": 0.8267716535433071
          },
          {
            "duration": 0.75,
            "durationTicks": 960,
            "midi": 55,
            "name": "G3",
            "ticks": 766080,
            "time": 457.201221,
            "velocity": 0.8267716535433071
          },
          {
            "duration": 0.75,
            "durationTicks": 960,
            "midi": 58,
            "name": "A#3",
            "ticks": 766080,
            "time": 457.201221,
            "velocity": 0.8267716535433071
          }
        ]
      },
      {
        "channel": 0,
        "controlChanges": {},
        "pitchBends": [],
        "instrument": {
          "family": "piano",
          "number": 0,
          "name": "acoustic grand piano"
        },
        "name": "k550_1",
        "notes": [],
        "endOfTrackTicks": 768000
      },
      {
        "channel": 5,
        "controlChanges": {
          "7": [
            {
              "number": 7,
              "ticks": 0,
              "time": 0,
              "value": 0.968503937007874
            }
          ],
          "10": [
            {
              "number": 10,
              "ticks": 0,
              "time": 0,
              "value": 0.31496062992125984
            }
          ],
          "91": [
            {
              "number": 91,
              "ticks": 0,
              "time": 0,
              "value": 0.5511811023622047
            }
          ]
        },
        "pitchBends": [],
        "instrument": {
          "family": "ensemble",
          "number": 48,
          "name": "string ensemble 1"
        },
        "name": "",
        "notes": [
          {
            "duration": 0.1428569999999998,
            "durationTicks": 240,
            "midi": 63,
            "name": "D#4",
            "ticks": 3360,
            "time": 1.9999980000000002,
            "velocity": 0.5511811023622047
          },
          {
            "duration": 0.11428560000000054,
            "durationTicks": 192,
            "midi": 62,
            "name": "D4",
            "ticks": 3600,
            "time": 2.142855,
            "velocity": 0.5511811023622047
          },
          {
            "duration": 0.2285712000000002,
            "durationTicks": 384,
            "midi": 62,
            "name": "D4",
            "ticks": 3840,
            "time": 2.285712,
            "velocity": 0.5511811023622047
          },
          {
            "duration": 0.1428569999999998,
            "durationTicks": 240,
            "midi": 63,
            "name": "D#4",
            "ticks": 4320,
            "time": 2.571426,
            "velocity": 0.5511811023622047
          },
          {
            "duration": 0.11428560000000054,
            "durationTicks": 192,
            "midi": 62,
            "name": "D4",
            "ticks": 4560,
            "time": 2.714283,
            "velocity": 0.5511811023622047
          },
          {
            "duration": 0.2285712000000002,
            "durationTicks": 384,
            "midi": 62,
            "name": "D4",
            "ticks": 4800,
            "time": 2.8571400000000002,
            "velocity": 0.5511811023622047
          },
          {
            "duration": 0.1428569999999998,
            "durationTicks": 240,
            "midi": 63,
            "name": "D#4",
            "ticks": 5280,
            "time": 3.1428540000000003,
            "velocity": 0.5511811023622047
          },
          {
            "duration": 0.11428560000000054,
            "durationTicks": 192,
            "midi": 62,
            "name": "D4",
            "ticks": 5520,
            "time": 3.285711,
            "velocity": 0.5511811023622047
          },
          {
            "duration": 0.285714,
            "durationTicks": 480,
            "midi": 62,
            "name": "D4",
            "ticks": 5760,
            "time": 3.4285680000000003,
            "velocity": 0.5511811023622047
          },
          {
            "duration": 0.2285712000000002,
            "durationTicks": 384,
            "midi": 70,
            "name": "A#4",
            "ticks": 6240,
            "time": 3.7142820000000003,
            "velocity": 0.5511811023622047
          },
          {
            "duration": 0.14285700000000023,
            "durationTicks": 240,
            "midi": 70,
            "name": "A#4",
            "ticks": 7200,
            "time": 4.28571,
            "velocity": 0.5511811023622047
          },
          {
            "duration": 0.11428560000000054,
            "durationTicks": 192,
            "midi": 69,
            "name": "A4",
            "ticks": 7440,
            "time": 4.428567,
            "velocity": 0.5511811023622047
          },
          {
            "duration": 0.2285712000000002,
            "durationTicks": 384,
            "midi": 67,
            "name": "G4",
            "ticks": 7680,
            "time": 4.571424,
            "velocity": 0.5511811023622047
          },
          {
            "duration": 0.14285699999999935,
            "durationTicks": 240,
            "midi": 67,
            "name": "G4",
            "ticks": 8160,
            "time": 4.857138000000001,
            "velocity": 0.5511811023622047
          },
          {
            "duration": 0.11428559999999965,
            "durationTicks": 192,
            "midi": 65,
            "name": "F4",
            "ticks": 8400,
            "time": 4.999995,
            "velocity": 0.5511811023622047
          },
          {
            "duration": 0.2285712000000002,
            "durationTicks": 384,
            "midi": 63,
            "name": "D#4",
            "ticks": 8640,
            "time": 5.142852,
            "velocity": 0.5511811023622047
          },
          {
            "duration": 0.14285700000000023,
            "durationTicks": 240,
            "midi": 63,
            "name": "D#4",
            "ticks": 9120,
            "time": 5.428566,
            "velocity": 0.5511811023622047
          },
          {
            "duration": 0.11428559999999965,
            "durationTicks": 192,
            "midi": 62,
            "name": "D4",
            "ticks": 9360,
            "time": 5.571423,
            "velocity": 0.5511811023622047
          },
          {
            "duration": 0.2285712000000002,
            "durationTicks": 384,
            "midi": 60,
            "name": "C4",
            "ticks": 9600,
            "time": 5.7142800000000005,
            "velocity": 0.5511811023622047
          },
          {
            "duration": 0.2285712000000002,
            "durationTicks": 384,
            "midi": 60,
            "name": "C4",
            "ticks": 10080,
            "time": 5.999994000000001,
            "velocity": 0.5511811023622047
          },
          {
            "duration": 0.14285700000000023,
            "durationTicks": 240,
            "midi": 62,
            "name": "D4",
            "ticks": 11040,
            "time": 6.571422,
            "velocity": 0.5511811023622047
          },
          {
            "duration": 0.11428559999999965,
            "durationTicks": 192,
            "midi": 60,
            "name": "C4",
            "ticks": 11280,
            "time": 6.714279,
            "velocity": 0.5511811023622047
          },
          {
            "duration": 0.2285712000000002,
            "durationTicks": 384,
            "midi": 60,
            "name": "C4",
            "ticks": 11520,
            "time": 6.857136000000001,
            "velocity": 0.5511811023622047
          },
          {
            "duration": 0.14285699999999935,
            "durationTicks": 240,
            "midi": 62,
            "name": "D4",
            "ticks": 12000,
            "time": 7.142850000000001,
            "velocity": 0.5511811023622047
          },
          {
            "duration": 0.11428559999999965,
            "durationTicks": 192,
            "midi": 60,
            "name": "C4",
            "ticks": 12240,
            "time": 7.285707,
            "velocity": 0.5511811023622047
          },
          {
            "duration": 0.2285712000000002,
            "durationTicks": 384,
            "midi": 60,
            "name": "C4",
            "ticks": 12480,
            "time": 7.428564000000001,
            "velocity": 0.5511811023622047
          },
          {
            "duration": 0.14285700000000023,
            "durationTicks": 240,
            "midi": 62,
            "name": "D4",
            "ticks": 12960,
            "time": 7.714278,
            "velocity": 0.5511811023622047
          },
          {
            "duration": 0.11428559999999965,
            "durationTicks": 192,
            "midi": 60,
            "name": "C4",
            "ticks": 13200,
            "time": 7.857135,
            "velocity": 0.5511811023622047
          },
          {
            "duration": 0.28571400000000047,
            "durationTicks": 480,
            "midi": 60,
            "name": "C4",
            "ticks": 13440,
            "time": 7.999992000000001,
            "velocity": 0.5511811023622047
          },
          {
            "duration": 0.2285711999999993,
            "durationTicks": 384,
            "midi": 69,
            "name": "A4",
            "ticks": 13920,
            "time": 8.285706000000001,
            "velocity": 0.5511811023622047
          },
          {
            "duration": 0.14285700000000112,
            "durationTicks": 240,
            "midi": 69,
            "name": "A4",
            "ticks": 14880,
            "time": 8.857134,
            "velocity": 0.5511811023622047
          },
          {
            "duration": 0.11428559999999877,
            "durationTicks": 192,
            "midi": 67,
            "name": "G4",
            "ticks": 15120,
            "time": 8.999991000000001,
            "velocity": 0.5511811023622047
          },
          {
            "duration": 0.2285711999999993,
            "durationTicks": 384,
            "midi": 66,
            "name": "F#4",
            "ticks": 15360,
            "time": 9.142848,
            "velocity": 0.5511811023622047
          },
          {
            "duration": 0.14285699999999935,
            "durationTicks": 240,
            "midi": 66,
            "name": "F#4",
            "ticks": 15840,
            "time": 9.428562000000001,
            "velocity": 0.5511811023622047
          },
          {
            "duration": 0.11428560000000054,
            "durationTicks": 192,
            "midi": 63,
            "name": "D#4",
            "ticks": 16080,
            "time": 9.571419,
            "velocity": 0.5511811023622047
          },
          {
            "duration": 0.22857119999999753,
            "durationTicks": 384,
            "midi": 62,
            "name": "D4",
            "ticks": 16320,
            "time": 9.714276000000002,
            "velocity": 0.5511811023622047
          },
          {
            "duration": 0.14285700000000112,
            "durationTicks": 240,
            "midi": 62,
            "name": "D4",
            "ticks": 16800,
            "time": 9.99999,
            "velocity": 0.5511811023622047
          },
          {
            "duration": 0.11428559999999877,
            "durationTicks": 192,
            "midi": 60,
            "name": "C4",
            "ticks": 17040,
            "time": 10.142847000000002,
            "velocity": 0.5511811023622047
          },
          {
            "duration": 0.2285711999999993,
            "durationTicks": 384,
            "midi": 58,
            "name": "A#3",
            "ticks": 17280,
            "time": 10.285704,
            "velocity": 0.5511811023622047
          },
          {
            "duration": 0.2285711999999993,
            "durationTicks": 384,
            "midi": 58,
            "name": "A#3",
            "ticks": 17760,
            "time": 10.571418000000001,
            "velocity": 0.5511811023622047
          },
          {
            "duration": 0.14285700000000112,
            "durationTicks": 240,
            "midi": 70,
            "name": "A#4",
            "ticks": 18720,
            "time": 11.142846,
            "velocity": 0.5511811023622047
          },
          {
            "duration": 0.11428559999999877,
            "durationTicks": 192,
            "midi": 69,
            "name": "A4",
            "ticks": 18960,
            "time": 11.285703000000002,
            "velocity": 0.5511811023622047
          },
          {
            "duration": 0.28571400000000047,
            "durationTicks": 480,
            "midi": 69,
            "name": "A4",
            "ticks": 19200,
            "time": 11.428560000000001,
            "velocity": 0.5511811023622047
          },
          {
            "duration": 0.28571400000000047,
            "durationTicks": 480,
            "midi": 72,
            "name": "C5",
            "ticks": 19680,
            "time": 11.714274000000001,
            "velocity": 0.5511811023622047
          },
          {
            "duration": 0.2857139999999987,
            "durationTicks": 480,
            "midi": 66,
            "name": "F#4",
            "ticks": 20160,
            "time": 11.999988000000002,
            "velocity": 0.5511811023622047
          },
          {
            "duration": 0.2285711999999993,
            "durationTicks": 384,
            "midi": 69,
            "name": "A4",
            "ticks": 20640,
            "time": 12.285702,
            "velocity": 0.5511811023622047
          },
          {
            "duration": 0.28571400000000047,
            "durationTicks": 480,
            "midi": 67,
            "name": "G4",
            "ticks": 21120,
            "time": 12.571416000000001,
            "velocity": 0.5511811023622047
          },
          {
            "duration": 0.2285711999999993,
            "durationTicks": 384,
            "midi": 62,
            "name": "D4",
            "ticks": 21600,
            "time": 12.857130000000002,
            "velocity": 0.5511811023622047
          },
          {
            "duration": 0.14285700000000112,
            "durationTicks": 240,
            "midi": 70,
            "name": "A#4",
            "ticks": 22560,
            "time": 13.428558,
            "velocity": 0.5511811023622047
          },
          {
            "duration": 0.11428559999999877,
            "durationTicks": 192,
            "midi": 69,
            "name": "A4",
            "ticks": 22800,
            "time": 13.571415000000002,
            "velocity": 0.5511811023622047
          },
          {
            "duration": 0.28571400000000047,
            "durationTicks": 480,
            "midi": 69,
            "name": "A4",
            "ticks": 23040,
            "time": 13.714272000000001,
            "velocity": 0.5511811023622047
          },
          {
            "duration": 0.28571400000000047,
            "durationTicks": 480,
            "midi": 72,
            "name": "C5",
            "ticks": 23520,
            "time": 13.999986000000002,
            "velocity": 0.5511811023622047
          },
          {
            "duration": 0.2857139999999987,
            "durationTicks": 480,
            "midi": 66,
            "name": "F#4",
            "ticks": 24000,
            "time": 14.285700000000002,
            "velocity": 0.5511811023622047
          },
          {
            "duration": 0.2285711999999993,
            "durationTicks": 384,
            "midi": 69,
            "name": "A4",
            "ticks": 24480,
            "time": 14.571414,
            "velocity": 0.5511811023622047
          },
          {
            "duration": 0.28571400000000047,
            "durationTicks": 480,
            "midi": 67,
            "name": "G4",
            "ticks": 24960,
            "time": 14.857128000000001,
            "velocity": 0.5511811023622047
          },
          {
            "duration": 0.2285711999999993,
            "durationTicks": 384,
            "midi": 70,
            "name": "A#4",
            "ticks": 25440,
            "time": 15.142842000000002,
            "velocity": 0.5511811023622047
          },
          {
            "duration": 0.14285700000000112,
            "durationTicks": 240,
            "midi": 69,
            "name": "A4",
            "ticks": 25920,
            "time": 15.428556,
            "velocity": 0.5511811023622047
          },
          {
            "duration": 0.14285699999999935,
            "durationTicks": 240,
            "midi": 67,
            "name": "G4",
            "ticks": 26160,
            "time": 15.571413000000002,
            "velocity": 0.5511811023622047
          },
          {
            "duration": 0.14285700000000112,
            "durationTicks": 240,
            "midi": 65,
            "name": "F4",
            "ticks": 26400,
            "time": 15.71427,
            "velocity": 0.5511811023622047
          },
          {
            "duration": 0.11428559999999877,
            "durationTicks": 192,
            "midi": 63,
            "name": "D#4",
            "ticks": 26640,
            "time": 15.857127000000002,
            "velocity": 0.5511811023622047
          },
          {
            "duration": 1.1428559999999983,
            "durationTicks": 1920,
            "midi": 62,
            "name": "D4",
            "ticks": 26880,
            "time": 15.999984000000001,
            "velocity": 0.5511811023622047
          },
          {
            "duration": 1.0857132000000007,
            "durationTicks": 1824,
            "midi": 61,
            "name": "C#4",
            "ticks": 28800,
            "time": 17.14284,
            "velocity": 0.5511811023622047
          },
          {
            "duration": 0.4571423999999986,
            "durationTicks": 768,
            "midi": 62,
            "name": "D4",
            "ticks": 30720,
            "time": 18.285696,
            "velocity": 0.5511811023622047
          },
          {
            "duration": 0.10714275000000129,
            "durationTicks": 180,
            "midi": 62,
            "name": "D4",
            "ticks": 32160,
            "time": 19.142838,
            "velocity": 0.8267716535433071
          },
          {
            "duration": 0.10714275000000129,
            "durationTicks": 180,
            "midi": 62,
            "name": "D4",
            "ticks": 32400,
            "time": 19.285695,
            "velocity": 0.8267716535433071
          },
          {
            "duration": 0.45714239999999506,
            "durationTicks": 768,
            "midi": 62,
            "name": "D4",
            "ticks": 32640,
            "time": 19.428552000000003,
            "velocity": 0.8267716535433071
          },
          {
            "duration": 0.10714274999999773,
            "durationTicks": 180,
            "midi": 62,
            "name": "D4",
            "ticks": 34080,
            "time": 20.285694000000003,
            "velocity": 0.8267716535433071
          },
          {
            "duration": 0.10714274999999773,
            "durationTicks": 180,
            "midi": 62,
            "name": "D4",
            "ticks": 34320,
            "time": 20.428551000000002,
            "velocity": 0.8267716535433071
          },
          {
            "duration": 0.4571423999999986,
            "durationTicks": 768,
            "midi": 62,
            "name": "D4",
            "ticks": 34560,
            "time": 20.571408,
            "velocity": 0.8267716535433071
          },
          {
            "duration": 0.10714275000000129,
            "durationTicks": 180,
            "midi": 62,
            "name": "D4",
            "ticks": 36000,
            "time": 21.42855,
            "velocity": 0.8267716535433071
          },
          {
            "duration": 0.10714275000000129,
            "durationTicks": 180,
            "midi": 62,
            "name": "D4",
            "ticks": 36240,
            "time": 21.571407,
            "velocity": 0.8267716535433071
          },
          {
            "duration": 0.21428550000000257,
            "durationTicks": 360,
            "midi": 62,
            "name": "D4",
            "ticks": 36480,
            "time": 21.714264,
            "velocity": 0.8267716535433071
          },
          {
            "duration": 0.10714275000000129,
            "durationTicks": 180,
            "midi": 62,
            "name": "D4",
            "ticks": 36960,
            "time": 21.999978000000002,
            "velocity": 0.8267716535433071
          },
          {
            "duration": 0.10714275000000129,
            "durationTicks": 180,
            "midi": 62,
            "name": "D4",
            "ticks": 37200,
            "time": 22.142835,
            "velocity": 0.8267716535433071
          },
          {
            "duration": 0.21428550000000257,
            "durationTicks": 360,
            "midi": 62,
            "name": "D4",
            "ticks": 37440,
            "time": 22.285692,
            "velocity": 0.8267716535433071
          },
          {
            "duration": 0.10714274999999773,
            "durationTicks": 180,
            "midi": 62,
            "name": "D4",
            "ticks": 37920,
            "time": 22.571406000000003,
            "velocity": 0.8267716535433071
          },
          {
            "duration": 0.10714274999999773,
            "durationTicks": 180,
            "midi": 62,
            "name": "D4",
            "ticks": 38160,
            "time": 22.714263000000003,
            "velocity": 0.8267716535433071
          },
          {
            "duration": 0.4571423999999986,
            "durationTicks": 768,
            "midi": 62,
            "name": "D4",
            "ticks": 38400,
            "time": 22.857120000000002,
            "velocity": 0.8267716535433071
          },
          {
            "duration": 0.14285699999999935,
            "durationTicks": 240,
            "midi": 63,
            "name": "D#4",
            "ticks": 39840,
            "time": 23.714262,
            "velocity": 0.5511811023622047
          },
          {
            "duration": 0.11428560000000232,
            "durationTicks": 192,
            "midi": 62,
            "name": "D4",
            "ticks": 40080,
            "time": 23.857119,
            "velocity": 0.5511811023622047
          },
          {
            "duration": 0.22857119999999753,
            "durationTicks": 384,
            "midi": 62,
            "name": "D4",
            "ticks": 40320,
            "time": 23.999976000000004,
            "velocity": 0.5511811023622047
          },
          {
            "duration": 0.14285699999999935,
            "durationTicks": 240,
            "midi": 63,
            "name": "D#4",
            "ticks": 40800,
            "time": 24.285690000000002,
            "velocity": 0.5511811023622047
          },
          {
            "duration": 0.11428560000000232,
            "durationTicks": 192,
            "midi": 62,
            "name": "D4",
            "ticks": 41040,
            "time": 24.428547000000002,
            "velocity": 0.5511811023622047
          },
          {
            "duration": 0.22857120000000108,
            "durationTicks": 384,
            "midi": 62,
            "name": "D4",
            "ticks": 41280,
            "time": 24.571404,
            "velocity": 0.5511811023622047
          },
          {
            "duration": 0.14285699999999935,
            "durationTicks": 240,
            "midi": 63,
            "name": "D#4",
            "ticks": 41760,
            "time": 24.857118000000003,
            "velocity": 0.5511811023622047
          },
          {
            "duration": 0.11428560000000232,
            "durationTicks": 192,
            "midi": 62,
            "name": "D4",
            "ticks": 42000,
            "time": 24.999975000000003,
            "velocity": 0.5511811023622047
          },
          {
            "duration": 0.2857139999999987,
            "durationTicks": 480,
            "midi": 62,
            "name": "D4",
            "ticks": 42240,
            "time": 25.142832000000002,
            "velocity": 0.5511811023622047
          },
          {
            "duration": 0.22857120000000108,
            "durationTicks": 384,
            "midi": 70,
            "name": "A#4",
            "ticks": 42720,
            "time": 25.428546,
            "velocity": 0.5511811023622047
          },
          {
            "duration": 0.14285699999999935,
            "durationTicks": 240,
            "midi": 70,
            "name": "A#4",
            "ticks": 43680,
            "time": 25.999974,
            "velocity": 0.5511811023622047
          },
          {
            "duration": 0.11428560000000232,
            "durationTicks": 192,
            "midi": 69,
            "name": "A4",
            "ticks": 43920,
            "time": 26.142831,
            "velocity": 0.5511811023622047
          },
          {
            "duration": 0.22857120000000108,
            "durationTicks": 384,
            "midi": 67,
            "name": "G4",
            "ticks": 44160,
            "time": 26.285688,
            "velocity": 0.5511811023622047
          },
          {
            "duration": 0.14285699999999935,
            "durationTicks": 240,
            "midi": 67,
            "name": "G4",
            "ticks": 44640,
            "time": 26.571402000000003,
            "velocity": 0.5511811023622047
          },
          {
            "duration": 0.11428560000000232,
            "durationTicks": 192,
            "midi": 65,
            "name": "F4",
            "ticks": 44880,
            "time": 26.714259000000002,
            "velocity": 0.5511811023622047
          },
          {
            "duration": 0.22857120000000108,
            "durationTicks": 384,
            "midi": 63,
            "name": "D#4",
            "ticks": 45120,
            "time": 26.857116,
            "velocity": 0.5511811023622047
          },
          {
            "duration": 0.14285699999999935,
            "durationTicks": 240,
            "midi": 63,
            "name": "D#4",
            "ticks": 45600,
            "time": 27.142830000000004,
            "velocity": 0.5511811023622047
          },
          {
            "duration": 0.11428560000000232,
            "durationTicks": 192,
            "midi": 62,
            "name": "D4",
            "ticks": 45840,
            "time": 27.285687000000003,
            "velocity": 0.5511811023622047
          },
          {
            "duration": 0.22857119999999753,
            "durationTicks": 384,
            "midi": 60,
            "name": "C4",
            "ticks": 46080,
            "time": 27.428544000000002,
            "velocity": 0.5511811023622047
          },
          {
            "duration": 0.22857120000000108,
            "durationTicks": 384,
            "midi": 60,
            "name": "C4",
            "ticks": 46560,
            "time": 27.714258,
            "velocity": 0.5511811023622047
          },
          {
            "duration": 0.14285699999999935,
            "durationTicks": 240,
            "midi": 65,
            "name": "F4",
            "ticks": 47520,
            "time": 28.285686000000002,
            "velocity": 0.5511811023622047
          },
          {
            "duration": 0.11428560000000232,
            "durationTicks": 192,
            "midi": 63,
            "name": "D#4",
            "ticks": 47760,
            "time": 28.428543,
            "velocity": 0.5511811023622047
          },
          {
            "duration": 0.22857119999999753,
            "durationTicks": 384,
            "midi": 63,
            "name": "D#4",
            "ticks": 48000,
            "time": 28.571400000000004,
            "velocity": 0.5511811023622047
          },
          {
            "duration": 0.14285699999999935,
            "durationTicks": 240,
            "midi": 65,
            "name": "F4",
            "ticks": 48480,
            "time": 28.857114000000003,
            "velocity": 0.5511811023622047
          },
          {
            "duration": 0.11428560000000232,
            "durationTicks": 192,
            "midi": 63,
            "name": "D#4",
            "ticks": 48720,
            "time": 28.999971000000002,
            "velocity": 0.5511811023622047
          },
          {
            "duration": 0.22857120000000108,
            "durationTicks": 384,
            "midi": 63,
            "name": "D#4",
            "ticks": 48960,
            "time": 29.142828,
            "velocity": 0.5511811023622047
          },
          {
            "duration": 0.14285699999999935,
            "durationTicks": 240,
            "midi": 65,
            "name": "F4",
            "ticks": 49440,
            "time": 29.428542000000004,
            "velocity": 0.5511811023622047
          },
          {
            "duration": 0.11428560000000232,
            "durationTicks": 192,
            "midi": 63,
            "name": "D#4",
            "ticks": 49680,
            "time": 29.571399000000003,
            "velocity": 0.5511811023622047
          },
          {
            "duration": 0.2857139999999987,
            "durationTicks": 480,
            "midi": 63,
            "name": "D#4",
            "ticks": 49920,
            "time": 29.714256000000002,
            "velocity": 0.5511811023622047
          },
          {
            "duration": 0.22857120000000108,
            "durationTicks": 384,
            "midi": 72,
            "name": "C5",
            "ticks": 50400,
            "time": 29.99997,
            "velocity": 0.5511811023622047
          },
          {
            "duration": 0.14285699999999935,
            "durationTicks": 240,
            "midi": 72,
            "name": "C5",
            "ticks": 51360,
            "time": 30.571398000000002,
            "velocity": 0.5511811023622047
          },
          {
            "duration": 0.11428560000000232,
            "durationTicks": 192,
            "midi": 70,
            "name": "A#4",
            "ticks": 51600,
            "time": 30.714255,
            "velocity": 0.5511811023622047
          },
          {
            "duration": 0.22857120000000108,
            "durationTicks": 384,
            "midi": 69,
            "name": "A4",
            "ticks": 51840,
            "time": 30.857112,
            "velocity": 0.5511811023622047
          },
          {
            "duration": 0.14285699999999935,
            "durationTicks": 240,
            "midi": 69,
            "name": "A4",
            "ticks": 52320,
            "time": 31.142826000000003,
            "velocity": 0.5511811023622047
          },
          {
            "duration": 0.11428560000000232,
            "durationTicks": 192,
            "midi": 67,
            "name": "G4",
            "ticks": 52560,
            "time": 31.285683000000002,
            "velocity": 0.5511811023622047
          },
          {
            "duration": 0.22857120000000108,
            "durationTicks": 384,
            "midi": 65,
            "name": "F4",
            "ticks": 52800,
            "time": 31.42854,
            "velocity": 0.5511811023622047
          },
          {
            "duration": 0.14285699999999935,
            "durationTicks": 240,
            "midi": 65,
            "name": "F4",
            "ticks": 53280,
            "time": 31.714254000000004,
            "velocity": 0.5511811023622047
          },
          {
            "duration": 0.11428560000000232,
            "durationTicks": 192,
            "midi": 63,
            "name": "D#4",
            "ticks": 53520,
            "time": 31.857111000000003,
            "velocity": 0.5511811023622047
          },
          {
            "duration": 0.9142848000000043,
            "durationTicks": 1536,
            "midi": 62,
            "name": "D4",
            "ticks": 53760,
            "time": 31.999968000000003,
            "velocity": 0.8267716535433071
          },
          {
            "duration": 0.9142848000000043,
            "durationTicks": 1536,
            "midi": 70,
            "name": "A#4",
            "ticks": 53760,
            "time": 31.999968000000003,
            "velocity": 0.8267716535433071
          },
          {
            "duration": 0.6857135999999997,
            "durationTicks": 1152,
            "midi": 69,
            "name": "A4",
            "ticks": 55680,
            "time": 33.142824000000005,
            "velocity": 0.8267716535433071
          },
          {
            "duration": 0.6857135999999997,
            "durationTicks": 1152,
            "midi": 77,
            "name": "F5",
            "ticks": 55680,
            "time": 33.142824000000005,
            "velocity": 0.8267716535433071
          },
          {
            "duration": 0.07857135000000426,
            "durationTicks": 132,
            "midi": 77,
            "name": "F5",
            "ticks": 57360,
            "time": 34.142823,
            "velocity": 0.8267716535433071
          },
          {
            "duration": 0.1571427000000014,
            "durationTicks": 264,
            "midi": 75,
            "name": "D#5",
            "ticks": 57600,
            "time": 34.28568,
            "velocity": 0.8267716535433071
          },
          {
            "duration": 0.1571426999999943,
            "durationTicks": 264,
            "midi": 79,
            "name": "G5",
            "ticks": 58080,
            "time": 34.571394000000005,
            "velocity": 0.8267716535433071
          },
          {
            "duration": 0.1571427000000014,
            "durationTicks": 264,
            "midi": 82,
            "name": "A#5",
            "ticks": 58560,
            "time": 34.857108000000004,
            "velocity": 0.8267716535433071
          },
          {
            "duration": 0.1571427000000014,
            "durationTicks": 264,
            "midi": 74,
            "name": "D5",
            "ticks": 59520,
            "time": 35.428536,
            "velocity": 0.8267716535433071
          },
          {
            "duration": 0.1571427000000014,
            "durationTicks": 264,
            "midi": 77,
            "name": "F5",
            "ticks": 60000,
            "time": 35.71425,
            "velocity": 0.8267716535433071
          },
          {
            "duration": 0.1571426999999943,
            "durationTicks": 264,
            "midi": 82,
            "name": "A#5",
            "ticks": 60480,
            "time": 35.999964000000006,
            "velocity": 0.8267716535433071
          },
          {
            "duration": 0.07857135000000426,
            "durationTicks": 132,
            "midi": 74,
            "name": "D5",
            "ticks": 61200,
            "time": 36.428535000000004,
            "velocity": 0.8267716535433071
          },
          {
            "duration": 0.1571427000000014,
            "durationTicks": 264,
            "midi": 72,
            "name": "C5",
            "ticks": 61440,
            "time": 36.571392,
            "velocity": 0.8267716535433071
          },
          {
            "duration": 0.1571427000000014,
            "durationTicks": 264,
            "midi": 75,
            "name": "D#5",
            "ticks": 61920,
            "time": 36.857106,
            "velocity": 0.8267716535433071
          },
          {
            "duration": 0.15714270000000852,
            "durationTicks": 264,
            "midi": 79,
            "name": "G5",
            "ticks": 62400,
            "time": 37.14282,
            "velocity": 0.8267716535433071
          },
          {
            "duration": 0.1571427000000014,
            "durationTicks": 264,
            "midi": 72,
            "name": "C5",
            "ticks": 62880,
            "time": 37.428534000000006,
            "velocity": 0.8267716535433071
          },
          {
            "duration": 0.1571427000000014,
            "durationTicks": 264,
            "midi": 70,
            "name": "A#4",
            "ticks": 63360,
            "time": 37.714248000000005,
            "velocity": 0.8267716535433071
          },
          {
            "duration": 0.1571427000000014,
            "durationTicks": 264,
            "midi": 74,
            "name": "D5",
            "ticks": 63840,
            "time": 37.999962000000004,
            "velocity": 0.8267716535433071
          },
          {
            "duration": 0.1571427000000014,
            "durationTicks": 264,
            "midi": 77,
            "name": "F5",
            "ticks": 64320,
            "time": 38.285676,
            "velocity": 0.8267716535433071
          },
          {
            "duration": 0.07857135000000426,
            "durationTicks": 132,
            "midi": 65,
            "name": "F4",
            "ticks": 65040,
            "time": 38.714247,
            "velocity": 0.8267716535433071
          },
          {
            "duration": 0.11428559999999521,
            "durationTicks": 192,
            "midi": 64,
            "name": "E4",
            "ticks": 65280,
            "time": 38.85710400000001,
            "velocity": 0.984251968503937
          },
          {
            "duration": 0.11428559999999521,
            "durationTicks": 192,
            "midi": 65,
            "name": "F4",
            "ticks": 65520,
            "time": 38.999961000000006,
            "velocity": 0.8267716535433071
          },
          {
            "duration": 0.11428560000000232,
            "durationTicks": 192,
            "midi": 67,
            "name": "G4",
            "ticks": 65760,
            "time": 39.142818000000005,
            "velocity": 0.8267716535433071
          },
          {
            "duration": 0.11428560000000232,
            "durationTicks": 192,
            "midi": 69,
            "name": "A4",
            "ticks": 66000,
            "time": 39.285675000000005,
            "velocity": 0.8267716535433071
          },
          {
            "duration": 0.11428560000000232,
            "durationTicks": 192,
            "midi": 70,
            "name": "A#4",
            "ticks": 66240,
            "time": 39.428532000000004,
            "velocity": 0.8267716535433071
          },
          {
            "duration": 0.11428560000000232,
            "durationTicks": 192,
            "midi": 72,
            "name": "C5",
            "ticks": 66480,
            "time": 39.571389,
            "velocity": 0.8267716535433071
          },
          {
            "duration": 0.11428560000000232,
            "durationTicks": 192,
            "midi": 73,
            "name": "C#5",
            "ticks": 66720,
            "time": 39.714246,
            "velocity": 0.8267716535433071
          },
          {
            "duration": 0.11428560000000232,
            "durationTicks": 192,
            "midi": 65,
            "name": "F4",
            "ticks": 66960,
            "time": 39.857103,
            "velocity": 0.8267716535433071
          },
          {
            "duration": 0.11428560000000232,
            "durationTicks": 192,
            "midi": 64,
            "name": "E4",
            "ticks": 67200,
            "time": 39.99996,
            "velocity": 0.984251968503937
          },
          {
            "duration": 0.11428560000000232,
            "durationTicks": 192,
            "midi": 65,
            "name": "F4",
            "ticks": 67440,
            "time": 40.142817,
            "velocity": 0.8267716535433071
          },
          {
            "duration": 0.11428560000000232,
            "durationTicks": 192,
            "midi": 67,
            "name": "G4",
            "ticks": 67680,
            "time": 40.285674,
            "velocity": 0.8267716535433071
          },
          {
            "duration": 0.11428559999999521,
            "durationTicks": 192,
            "midi": 69,
            "name": "A4",
            "ticks": 67920,
            "time": 40.42853100000001,
            "velocity": 0.8267716535433071
          },
          {
            "duration": 0.11428560000000232,
            "durationTicks": 192,
            "midi": 70,
            "name": "A#4",
            "ticks": 68160,
            "time": 40.571388000000006,
            "velocity": 0.8267716535433071
          },
          {
            "duration": 0.11428560000000232,
            "durationTicks": 192,
            "midi": 72,
            "name": "C5",
            "ticks": 68400,
            "time": 40.714245000000005,
            "velocity": 0.8267716535433071
          },
          {
            "duration": 0.11428560000000232,
            "durationTicks": 192,
            "midi": 73,
            "name": "C#5",
            "ticks": 68640,
            "time": 40.857102000000005,
            "velocity": 0.8267716535433071
          },
          {
            "duration": 0.11428560000000232,
            "durationTicks": 192,
            "midi": 65,
            "name": "F4",
            "ticks": 68880,
            "time": 40.999959000000004,
            "velocity": 0.8267716535433071
          },
          {
            "duration": 0.11428560000000232,
            "durationTicks": 192,
            "midi": 64,
            "name": "E4",
            "ticks": 69120,
            "time": 41.142816,
            "velocity": 0.984251968503937
          },
          {
            "duration": 0.11428560000000232,
            "durationTicks": 192,
            "midi": 65,
            "name": "F4",
            "ticks": 69360,
            "time": 41.285673,
            "velocity": 0.8267716535433071
          },
          {
            "duration": 0.11428560000000232,
            "durationTicks": 192,
            "midi": 67,
            "name": "G4",
            "ticks": 69600,
            "time": 41.42853,
            "velocity": 0.8267716535433071
          },
          {
            "duration": 0.11428560000000232,
            "durationTicks": 192,
            "midi": 69,
            "name": "A4",
            "ticks": 69840,
            "time": 41.571387,
            "velocity": 0.8267716535433071
          },
          {
            "duration": 0.11428560000000232,
            "durationTicks": 192,
            "midi": 70,
            "name": "A#4",
            "ticks": 70080,
            "time": 41.714244,
            "velocity": 0.8267716535433071
          },
          {
            "duration": 0.11428560000000232,
            "durationTicks": 192,
            "midi": 72,
            "name": "C5",
            "ticks": 70320,
            "time": 41.857101,
            "velocity": 0.8267716535433071
          },
          {
            "duration": 0.11428559999999521,
            "durationTicks": 192,
            "midi": 73,
            "name": "C#5",
            "ticks": 70560,
            "time": 41.99995800000001,
            "velocity": 0.8267716535433071
          },
          {
            "duration": 0.11428560000000232,
            "durationTicks": 192,
            "midi": 65,
            "name": "F4",
            "ticks": 70800,
            "time": 42.142815000000006,
            "velocity": 0.8267716535433071
          },
          {
            "duration": 0.11428560000000232,
            "durationTicks": 192,
            "midi": 64,
            "name": "E4",
            "ticks": 71040,
            "time": 42.285672000000005,
            "velocity": 0.984251968503937
          },
          {
            "duration": 0.11428560000000232,
            "durationTicks": 192,
            "midi": 65,
            "name": "F4",
            "ticks": 71280,
            "time": 42.428529000000005,
            "velocity": 0.8267716535433071
          },
          {
            "duration": 0.11428560000000232,
            "durationTicks": 192,
            "midi": 67,
            "name": "G4",
            "ticks": 71520,
            "time": 42.571386000000004,
            "velocity": 0.8267716535433071
          },
          {
            "duration": 0.11428560000000232,
            "durationTicks": 192,
            "midi": 69,
            "name": "A4",
            "ticks": 71760,
            "time": 42.714243,
            "velocity": 0.8267716535433071
          },
          {
            "duration": 0.11428560000000232,
            "durationTicks": 192,
            "midi": 70,
            "name": "A#4",
            "ticks": 72000,
            "time": 42.8571,
            "velocity": 0.8267716535433071
          },
          {
            "duration": 0.11428560000000232,
            "durationTicks": 192,
            "midi": 72,
            "name": "C5",
            "ticks": 72240,
            "time": 42.999957,
            "velocity": 0.8267716535433071
          },
          {
            "duration": 0.11428560000000232,
            "durationTicks": 192,
            "midi": 73,
            "name": "C#5",
            "ticks": 72480,
            "time": 43.142814,
            "velocity": 0.8267716535433071
          },
          {
            "duration": 0.11428560000000232,
            "durationTicks": 192,
            "midi": 64,
            "name": "E4",
            "ticks": 72720,
            "time": 43.285671,
            "velocity": 0.8267716535433071
          },
          {
            "duration": 0.10714275000000129,
            "durationTicks": 180,
            "midi": 65,
            "name": "F4",
            "ticks": 72960,
            "time": 43.428528,
            "velocity": 0.8267716535433071
          },
          {
            "duration": 0.10714274999999418,
            "durationTicks": 180,
            "midi": 77,
            "name": "F5",
            "ticks": 73200,
            "time": 43.57138500000001,
            "velocity": 0.8267716535433071
          },
          {
            "duration": 0.10714275000000129,
            "durationTicks": 180,
            "midi": 77,
            "name": "F5",
            "ticks": 73440,
            "time": 43.714242000000006,
            "velocity": 0.8267716535433071
          },
          {
            "duration": 0.10714275000000129,
            "durationTicks": 180,
            "midi": 77,
            "name": "F5",
            "ticks": 73680,
            "time": 43.857099000000005,
            "velocity": 0.8267716535433071
          },
          {
            "duration": 0.10714275000000129,
            "durationTicks": 180,
            "midi": 75,
            "name": "D#5",
            "ticks": 73920,
            "time": 43.999956000000005,
            "velocity": 0.8267716535433071
          },
          {
            "duration": 0.10714275000000129,
            "durationTicks": 180,
            "midi": 75,
            "name": "D#5",
            "ticks": 74160,
            "time": 44.142813000000004,
            "velocity": 0.8267716535433071
          },
          {
            "duration": 0.10714275000000129,
            "durationTicks": 180,
            "midi": 75,
            "name": "D#5",
            "ticks": 74400,
            "time": 44.28567,
            "velocity": 0.8267716535433071
          },
          {
            "duration": 0.10714275000000129,
            "durationTicks": 180,
            "midi": 75,
            "name": "D#5",
            "ticks": 74640,
            "time": 44.428527,
            "velocity": 0.8267716535433071
          },
          {
            "duration": 0.10714275000000129,
            "durationTicks": 180,
            "midi": 73,
            "name": "C#5",
            "ticks": 74880,
            "time": 44.571384,
            "velocity": 0.8267716535433071
          },
          {
            "duration": 0.10714275000000129,
            "durationTicks": 180,
            "midi": 73,
            "name": "C#5",
            "ticks": 75120,
            "time": 44.714241,
            "velocity": 0.8267716535433071
          },
          {
            "duration": 0.10714275000000129,
            "durationTicks": 180,
            "midi": 73,
            "name": "C#5",
            "ticks": 75360,
            "time": 44.857098,
            "velocity": 0.8267716535433071
          },
          {
            "duration": 0.10714274999999418,
            "durationTicks": 180,
            "midi": 73,
            "name": "C#5",
            "ticks": 75600,
            "time": 44.99995500000001,
            "velocity": 0.8267716535433071
          },
          {
            "duration": 0.10714274999999418,
            "durationTicks": 180,
            "midi": 73,
            "name": "C#5",
            "ticks": 75840,
            "time": 45.142812000000006,
            "velocity": 0.8267716535433071
          },
          {
            "duration": 0.10714275000000129,
            "durationTicks": 180,
            "midi": 73,
            "name": "C#5",
            "ticks": 76080,
            "time": 45.285669000000006,
            "velocity": 0.8267716535433071
          },
          {
            "duration": 0.10714275000000129,
            "durationTicks": 180,
            "midi": 73,
            "name": "C#5",
            "ticks": 76320,
            "time": 45.428526000000005,
            "velocity": 0.8267716535433071
          },
          {
            "duration": 0.10714275000000129,
            "durationTicks": 180,
            "midi": 73,
            "name": "C#5",
            "ticks": 76560,
            "time": 45.571383000000004,
            "velocity": 0.8267716535433071
          },
          {
            "duration": 0.10714275000000129,
            "durationTicks": 180,
            "midi": 72,
            "name": "C5",
            "ticks": 76800,
            "time": 45.714240000000004,
            "velocity": 0.8267716535433071
          },
          {
            "duration": 0.10714275000000129,
            "durationTicks": 180,
            "midi": 72,
            "name": "C5",
            "ticks": 77040,
            "time": 45.857097,
            "velocity": 0.8267716535433071
          },
          {
            "duration": 0.10714275000000129,
            "durationTicks": 180,
            "midi": 72,
            "name": "C5",
            "ticks": 77280,
            "time": 45.999954,
            "velocity": 0.8267716535433071
          },
          {
            "duration": 0.10714275000000129,
            "durationTicks": 180,
            "midi": 72,
            "name": "C5",
            "ticks": 77520,
            "time": 46.142811,
            "velocity": 0.8267716535433071
          },
          {
            "duration": 0.10714275000000129,
            "durationTicks": 180,
            "midi": 75,
            "name": "D#5",
            "ticks": 77760,
            "time": 46.285668,
            "velocity": 0.8267716535433071
          },
          {
            "duration": 0.10714275000000129,
            "durationTicks": 180,
            "midi": 75,
            "name": "D#5",
            "ticks": 78000,
            "time": 46.428525,
            "velocity": 0.8267716535433071
          },
          {
            "duration": 0.10714274999999418,
            "durationTicks": 180,
            "midi": 75,
            "name": "D#5",
            "ticks": 78240,
            "time": 46.57138200000001,
            "velocity": 0.8267716535433071
          },
          {
            "duration": 0.10714274999999418,
            "durationTicks": 180,
            "midi": 75,
            "name": "D#5",
            "ticks": 78480,
            "time": 46.714239000000006,
            "velocity": 0.8267716535433071
          },
          {
            "duration": 0.10714275000000129,
            "durationTicks": 180,
            "midi": 73,
            "name": "C#5",
            "ticks": 78720,
            "time": 46.857096000000006,
            "velocity": 0.8267716535433071
          },
          {
            "duration": 0.10714275000000129,
            "durationTicks": 180,
            "midi": 73,
            "name": "C#5",
            "ticks": 78960,
            "time": 46.999953000000005,
            "velocity": 0.8267716535433071
          },
          {
            "duration": 0.10714275000000129,
            "durationTicks": 180,
            "midi": 73,
            "name": "C#5",
            "ticks": 79200,
            "time": 47.142810000000004,
            "velocity": 0.8267716535433071
          },
          {
            "duration": 0.10714275000000129,
            "durationTicks": 180,
            "midi": 73,
            "name": "C#5",
            "ticks": 79440,
            "time": 47.285667000000004,
            "velocity": 0.8267716535433071
          },
          {
            "duration": 0.10714275000000129,
            "durationTicks": 180,
            "midi": 70,
            "name": "A#4",
            "ticks": 79680,
            "time": 47.428524,
            "velocity": 0.8267716535433071
          },
          {
            "duration": 0.10714275000000129,
            "durationTicks": 180,
            "midi": 70,
            "name": "A#4",
            "ticks": 79920,
            "time": 47.571381,
            "velocity": 0.8267716535433071
          },
          {
            "duration": 0.10714275000000129,
            "durationTicks": 180,
            "midi": 70,
            "name": "A#4",
            "ticks": 80160,
            "time": 47.714238,
            "velocity": 0.8267716535433071
          },
          {
            "duration": 0.10714275000000129,
            "durationTicks": 180,
            "midi": 70,
            "name": "A#4",
            "ticks": 80400,
            "time": 47.857095,
            "velocity": 0.8267716535433071
          },
          {
            "duration": 0.22857119999999753,
            "durationTicks": 384,
            "midi": 69,
            "name": "A4",
            "ticks": 80640,
            "time": 47.99995200000001,
            "velocity": 0.8267716535433071
          },
          {
            "duration": 0.22857120000000464,
            "durationTicks": 384,
            "midi": 57,
            "name": "A3",
            "ticks": 81600,
            "time": 48.571380000000005,
            "velocity": 0.7244094488188977
          },
          {
            "duration": 0.22857120000000464,
            "durationTicks": 384,
            "midi": 65,
            "name": "F4",
            "ticks": 81600,
            "time": 48.571380000000005,
            "velocity": 0.7244094488188977
          },
          {
            "duration": 0.8571420000000032,
            "durationTicks": 1440,
            "midi": 65,
            "name": "F4",
            "ticks": 84480,
            "time": 50.285664000000004,
            "velocity": 0.4566929133858268
          },
          {
            "duration": 0.2857139999999987,
            "durationTicks": 480,
            "midi": 64,
            "name": "E4",
            "ticks": 85920,
            "time": 51.14280600000001,
            "velocity": 0.4566929133858268
          },
          {
            "duration": 0.22857120000000464,
            "durationTicks": 384,
            "midi": 63,
            "name": "D#4",
            "ticks": 86400,
            "time": 51.428520000000006,
            "velocity": 0.4566929133858268
          },
          {
            "duration": 0.18571409999999844,
            "durationTicks": 312,
            "midi": 58,
            "name": "A#3",
            "ticks": 88800,
            "time": 52.85709000000001,
            "velocity": 0.4566929133858268
          },
          {
            "duration": 0.2857139999999987,
            "durationTicks": 480,
            "midi": 58,
            "name": "A#3",
            "ticks": 89280,
            "time": 53.142804000000005,
            "velocity": 0.4566929133858268
          },
          {
            "duration": 0.22857120000000464,
            "durationTicks": 384,
            "midi": 60,
            "name": "C4",
            "ticks": 89760,
            "time": 53.428518000000004,
            "velocity": 0.4566929133858268
          },
          {
            "duration": 0.42857100000000514,
            "durationTicks": 720,
            "midi": 58,
            "name": "A#3",
            "ticks": 90240,
            "time": 53.714232,
            "velocity": 0.4566929133858268
          },
          {
            "duration": 0.14285699999999935,
            "durationTicks": 240,
            "midi": 60,
            "name": "C4",
            "ticks": 90960,
            "time": 54.14280300000001,
            "velocity": 0.4566929133858268
          },
          {
            "duration": 0.22857119999999753,
            "durationTicks": 384,
            "midi": 57,
            "name": "A3",
            "ticks": 91200,
            "time": 54.28566000000001,
            "velocity": 0.4566929133858268
          },
          {
            "duration": 0.8571420000000032,
            "durationTicks": 1440,
            "midi": 67,
            "name": "G4",
            "ticks": 92160,
            "time": 54.857088000000005,
            "velocity": 0.4566929133858268
          },
          {
            "duration": 0.2857139999999987,
            "durationTicks": 480,
            "midi": 66,
            "name": "F#4",
            "ticks": 93600,
            "time": 55.71423000000001,
            "velocity": 0.4566929133858268
          },
          {
            "duration": 0.2857139999999987,
            "durationTicks": 480,
            "midi": 65,
            "name": "F4",
            "ticks": 94080,
            "time": 55.999944000000006,
            "velocity": 0.4566929133858268
          },
          {
            "duration": 0.2857139999999987,
            "durationTicks": 480,
            "midi": 64,
            "name": "E4",
            "ticks": 94560,
            "time": 56.285658000000005,
            "velocity": 0.4566929133858268
          },
          {
            "duration": 0.2857139999999987,
            "durationTicks": 480,
            "midi": 63,
            "name": "D#4",
            "ticks": 95040,
            "time": 56.571372000000004,
            "velocity": 0.4566929133858268
          },
          {
            "duration": 0.22857120000000464,
            "durationTicks": 384,
            "midi": 62,
            "name": "D4",
            "ticks": 95520,
            "time": 56.857086,
            "velocity": 0.4566929133858268
          },
          {
            "duration": 0.2857139999999987,
            "durationTicks": 480,
            "midi": 60,
            "name": "C4",
            "ticks": 96000,
            "time": 57.14280000000001,
            "velocity": 0.4566929133858268
          },
          {
            "duration": 0.45714239999999506,
            "durationTicks": 768,
            "midi": 63,
            "name": "D#4",
            "ticks": 96480,
            "time": 57.42851400000001,
            "velocity": 0.4566929133858268
          },
          {
            "duration": 0.22857120000000464,
            "durationTicks": 384,
            "midi": 57,
            "name": "A3",
            "ticks": 97440,
            "time": 57.999942000000004,
            "velocity": 0.4566929133858268
          },
          {
            "duration": 0.22857120000000464,
            "durationTicks": 384,
            "midi": 58,
            "name": "A#3",
            "ticks": 97920,
            "time": 58.285656,
            "velocity": 0.4566929133858268
          },
          {
            "duration": 0.8571419999999961,
            "durationTicks": 1440,
            "midi": 63,
            "name": "D#4",
            "ticks": 101760,
            "time": 60.57136800000001,
            "velocity": 0.4566929133858268
          },
          {
            "duration": 0.07142850000000323,
            "durationTicks": 120,
            "midi": 65,
            "name": "F4",
            "ticks": 103200,
            "time": 61.42851,
            "velocity": 0.4566929133858268
          },
          {
            "duration": 0.07142849999999612,
            "durationTicks": 120,
            "midi": 63,
            "name": "D#4",
            "ticks": 103320,
            "time": 61.499938500000006,
            "velocity": 0.4566929133858268
          },
          {
            "duration": 0.07142850000000323,
            "durationTicks": 120,
            "midi": 62,
            "name": "D4",
            "ticks": 103440,
            "time": 61.571367,
            "velocity": 0.4566929133858268
          },
          {
            "duration": 0.07142849999999612,
            "durationTicks": 120,
            "midi": 60,
            "name": "C4",
            "ticks": 103560,
            "time": 61.642795500000005,
            "velocity": 0.4566929133858268
          },
          {
            "duration": 0.22857120000000464,
            "durationTicks": 384,
            "midi": 58,
            "name": "A#3",
            "ticks": 103680,
            "time": 61.714224,
            "velocity": 0.4566929133858268
          },
          {
            "duration": 1.1428559999999948,
            "durationTicks": 1920,
            "midi": 60,
            "name": "C4",
            "ticks": 107520,
            "time": 63.999936000000005,
            "velocity": 0.5511811023622047
          },
          {
            "duration": 0.2857139999999987,
            "durationTicks": 480,
            "midi": 59,
            "name": "B3",
            "ticks": 109440,
            "time": 65.142792,
            "velocity": 0.5511811023622047
          },
          {
            "duration": 0.2857140000000129,
            "durationTicks": 480,
            "midi": 58,
            "name": "A#3",
            "ticks": 109920,
            "time": 65.428506,
            "velocity": 0.5511811023622047
          },
          {
            "duration": 0.2857139999999987,
            "durationTicks": 480,
            "midi": 57,
            "name": "A3",
            "ticks": 110400,
            "time": 65.71422000000001,
            "velocity": 0.5511811023622047
          },
          {
            "duration": 0.22857120000000464,
            "durationTicks": 384,
            "midi": 56,
            "name": "G#3",
            "ticks": 110880,
            "time": 65.99993400000001,
            "velocity": 0.5511811023622047
          },
          {
            "duration": 0.14285699999999224,
            "durationTicks": 240,
            "midi": 58,
            "name": "A#3",
            "ticks": 111360,
            "time": 66.28564800000001,
            "velocity": 0.4566929133858268
          },
          {
            "duration": 0.14285700000000645,
            "durationTicks": 240,
            "midi": 55,
            "name": "G3",
            "ticks": 111600,
            "time": 66.428505,
            "velocity": 0.4566929133858268
          },
          {
            "duration": 0.14285699999999224,
            "durationTicks": 240,
            "midi": 58,
            "name": "A#3",
            "ticks": 111840,
            "time": 66.57136200000001,
            "velocity": 0.4566929133858268
          },
          {
            "duration": 0.14285700000000645,
            "durationTicks": 240,
            "midi": 55,
            "name": "G3",
            "ticks": 112080,
            "time": 66.714219,
            "velocity": 0.4566929133858268
          },
          {
            "duration": 0.14285699999999224,
            "durationTicks": 240,
            "midi": 58,
            "name": "A#3",
            "ticks": 112320,
            "time": 66.857076,
            "velocity": 0.4566929133858268
          },
          {
            "duration": 0.14285700000000645,
            "durationTicks": 240,
            "midi": 55,
            "name": "G3",
            "ticks": 112560,
            "time": 66.999933,
            "velocity": 0.4566929133858268
          },
          {
            "duration": 0.14285700000000645,
            "durationTicks": 240,
            "midi": 56,
            "name": "G#3",
            "ticks": 112800,
            "time": 67.14279,
            "velocity": 0.4566929133858268
          },
          {
            "duration": 0.11428560000000232,
            "durationTicks": 192,
            "midi": 60,
            "name": "C4",
            "ticks": 113040,
            "time": 67.28564700000001,
            "velocity": 0.4566929133858268
          },
          {
            "duration": 0.14285700000000645,
            "durationTicks": 240,
            "midi": 58,
            "name": "A#3",
            "ticks": 113280,
            "time": 67.428504,
            "velocity": 0.4566929133858268
          },
          {
            "duration": 0.14285699999999224,
            "durationTicks": 240,
            "midi": 55,
            "name": "G3",
            "ticks": 113520,
            "time": 67.57136100000001,
            "velocity": 0.4566929133858268
          },
          {
            "duration": 0.14285700000000645,
            "durationTicks": 240,
            "midi": 58,
            "name": "A#3",
            "ticks": 113760,
            "time": 67.714218,
            "velocity": 0.4566929133858268
          },
          {
            "duration": 0.14285699999999224,
            "durationTicks": 240,
            "midi": 55,
            "name": "G3",
            "ticks": 114000,
            "time": 67.85707500000001,
            "velocity": 0.4566929133858268
          },
          {
            "duration": 0.14285700000000645,
            "durationTicks": 240,
            "midi": 58,
            "name": "A#3",
            "ticks": 114240,
            "time": 67.999932,
            "velocity": 0.4566929133858268
          },
          {
            "duration": 0.14285699999999224,
            "durationTicks": 240,
            "midi": 55,
            "name": "G3",
            "ticks": 114480,
            "time": 68.14278900000001,
            "velocity": 0.4566929133858268
          },
          {
            "duration": 0.14285700000000645,
            "durationTicks": 240,
            "midi": 56,
            "name": "G#3",
            "ticks": 114720,
            "time": 68.285646,
            "velocity": 0.4566929133858268
          },
          {
            "duration": 0.11428560000000232,
            "durationTicks": 192,
            "midi": 60,
            "name": "C4",
            "ticks": 114960,
            "time": 68.428503,
            "velocity": 0.4566929133858268
          },
          {
            "duration": 0.14285700000000645,
            "durationTicks": 240,
            "midi": 58,
            "name": "A#3",
            "ticks": 115200,
            "time": 68.57136,
            "velocity": 0.4566929133858268
          },
          {
            "duration": 0.14285700000000645,
            "durationTicks": 240,
            "midi": 55,
            "name": "G3",
            "ticks": 115440,
            "time": 68.714217,
            "velocity": 0.4566929133858268
          },
          {
            "duration": 0.14285699999999224,
            "durationTicks": 240,
            "midi": 58,
            "name": "A#3",
            "ticks": 115680,
            "time": 68.85707400000001,
            "velocity": 0.4566929133858268
          },
          {
            "duration": 0.14285700000000645,
            "durationTicks": 240,
            "midi": 55,
            "name": "G3",
            "ticks": 115920,
            "time": 68.999931,
            "velocity": 0.4566929133858268
          },
          {
            "duration": 0.14285699999999224,
            "durationTicks": 240,
            "midi": 58,
            "name": "A#3",
            "ticks": 116160,
            "time": 69.14278800000001,
            "velocity": 0.4566929133858268
          },
          {
            "duration": 0.14285700000000645,
            "durationTicks": 240,
            "midi": 55,
            "name": "G3",
            "ticks": 116400,
            "time": 69.285645,
            "velocity": 0.4566929133858268
          },
          {
            "duration": 0.14285699999999224,
            "durationTicks": 240,
            "midi": 56,
            "name": "G#3",
            "ticks": 116640,
            "time": 69.42850200000001,
            "velocity": 0.4566929133858268
          },
          {
            "duration": 0.11428560000000232,
            "durationTicks": 192,
            "midi": 60,
            "name": "C4",
            "ticks": 116880,
            "time": 69.571359,
            "velocity": 0.4566929133858268
          },
          {
            "duration": 0.14285699999999224,
            "durationTicks": 240,
            "midi": 58,
            "name": "A#3",
            "ticks": 117120,
            "time": 69.71421600000001,
            "velocity": 0.4566929133858268
          },
          {
            "duration": 0.14285700000000645,
            "durationTicks": 240,
            "midi": 55,
            "name": "G3",
            "ticks": 117360,
            "time": 69.857073,
            "velocity": 0.4566929133858268
          },
          {
            "duration": 0.14285700000000645,
            "durationTicks": 240,
            "midi": 58,
            "name": "A#3",
            "ticks": 117600,
            "time": 69.99993,
            "velocity": 0.4566929133858268
          },
          {
            "duration": 0.14285699999999224,
            "durationTicks": 240,
            "midi": 55,
            "name": "G3",
            "ticks": 117840,
            "time": 70.14278700000001,
            "velocity": 0.4566929133858268
          },
          {
            "duration": 0.14285700000000645,
            "durationTicks": 240,
            "midi": 58,
            "name": "A#3",
            "ticks": 118080,
            "time": 70.285644,
            "velocity": 0.4566929133858268
          },
          {
            "duration": 0.14285699999999224,
            "durationTicks": 240,
            "midi": 55,
            "name": "G3",
            "ticks": 118320,
            "time": 70.42850100000001,
            "velocity": 0.4566929133858268
          },
          {
            "duration": 0.14285700000000645,
            "durationTicks": 240,
            "midi": 56,
            "name": "G#3",
            "ticks": 118560,
            "time": 70.571358,
            "velocity": 0.4566929133858268
          },
          {
            "duration": 0.11428560000000232,
            "durationTicks": 192,
            "midi": 60,
            "name": "C4",
            "ticks": 118800,
            "time": 70.71421500000001,
            "velocity": 0.4566929133858268
          },
          {
            "duration": 0.12857130000000438,
            "durationTicks": 216,
            "midi": 58,
            "name": "A#3",
            "ticks": 119040,
            "time": 70.857072,
            "velocity": 0.4566929133858268
          },
          {
            "duration": 0.12857129999999017,
            "durationTicks": 216,
            "midi": 70,
            "name": "A#4",
            "ticks": 119280,
            "time": 70.99992900000001,
            "velocity": 0.5511811023622047
          },
          {
            "duration": 0.12857130000000438,
            "durationTicks": 216,
            "midi": 70,
            "name": "A#4",
            "ticks": 119520,
            "time": 71.142786,
            "velocity": 0.5748031496062992
          },
          {
            "duration": 0.12857129999999017,
            "durationTicks": 216,
            "midi": 70,
            "name": "A#4",
            "ticks": 119760,
            "time": 71.28564300000001,
            "velocity": 0.6062992125984252
          },
          {
            "duration": 0.12857130000000438,
            "durationTicks": 216,
            "midi": 70,
            "name": "A#4",
            "ticks": 120000,
            "time": 71.4285,
            "velocity": 0.6299212598425197
          },
          {
            "duration": 0.12857129999999017,
            "durationTicks": 216,
            "midi": 70,
            "name": "A#4",
            "ticks": 120240,
            "time": 71.571357,
            "velocity": 0.6614173228346457
          },
          {
            "duration": 0.12857129999999017,
            "durationTicks": 216,
            "midi": 70,
            "name": "A#4",
            "ticks": 120480,
            "time": 71.71421400000001,
            "velocity": 0.6850393700787402
          },
          {
            "duration": 0.12857130000000438,
            "durationTicks": 216,
            "midi": 70,
            "name": "A#4",
            "ticks": 120720,
            "time": 71.857071,
            "velocity": 0.7165354330708661
          },
          {
            "duration": 0.12857129999999017,
            "durationTicks": 216,
            "midi": 70,
            "name": "A#4",
            "ticks": 120960,
            "time": 71.99992800000001,
            "velocity": 0.7401574803149606
          },
          {
            "duration": 0.12857130000000438,
            "durationTicks": 216,
            "midi": 82,
            "name": "A#5",
            "ticks": 121200,
            "time": 72.142785,
            "velocity": 0.7716535433070866
          },
          {
            "duration": 0.12857129999999017,
            "durationTicks": 216,
            "midi": 82,
            "name": "A#5",
            "ticks": 121440,
            "time": 72.28564200000001,
            "velocity": 0.7952755905511811
          },
          {
            "duration": 0.12857130000000438,
            "durationTicks": 216,
            "midi": 82,
            "name": "A#5",
            "ticks": 121680,
            "time": 72.428499,
            "velocity": 0.8267716535433071
          },
          {
            "duration": 0.12857129999999017,
            "durationTicks": 216,
            "midi": 82,
            "name": "A#5",
            "ticks": 121920,
            "time": 72.57135600000001,
            "velocity": 0.8503937007874016
          },
          {
            "duration": 0.12857130000000438,
            "durationTicks": 216,
            "midi": 82,
            "name": "A#5",
            "ticks": 122160,
            "time": 72.714213,
            "velocity": 0.8582677165354331
          },
          {
            "duration": 0.12857129999999017,
            "durationTicks": 216,
            "midi": 82,
            "name": "A#5",
            "ticks": 122400,
            "time": 72.85707000000001,
            "velocity": 0.8582677165354331
          },
          {
            "duration": 0.12857130000000438,
            "durationTicks": 216,
            "midi": 82,
            "name": "A#5",
            "ticks": 122640,
            "time": 72.999927,
            "velocity": 0.8582677165354331
          },
          {
            "duration": 0.22857120000000464,
            "durationTicks": 384,
            "midi": 82,
            "name": "A#5",
            "ticks": 122880,
            "time": 73.142784,
            "velocity": 0.8267716535433071
          },
          {
            "duration": 0.4571424000000093,
            "durationTicks": 768,
            "midi": 74,
            "name": "D5",
            "ticks": 123360,
            "time": 73.428498,
            "velocity": 0.8267716535433071
          },
          {
            "duration": 0.4571424000000093,
            "durationTicks": 768,
            "midi": 77,
            "name": "F5",
            "ticks": 123360,
            "time": 73.428498,
            "velocity": 0.8267716535433071
          },
          {
            "duration": 0.2857139999999987,
            "durationTicks": 480,
            "midi": 74,
            "name": "D5",
            "ticks": 124320,
            "time": 73.999926,
            "velocity": 0.8267716535433071
          },
          {
            "duration": 0.5142852000000033,
            "durationTicks": 864,
            "midi": 77,
            "name": "F5",
            "ticks": 124320,
            "time": 73.999926,
            "velocity": 0.8267716535433071
          },
          {
            "duration": 0.22857120000000464,
            "durationTicks": 384,
            "midi": 75,
            "name": "D#5",
            "ticks": 124800,
            "time": 74.28564,
            "velocity": 0.8267716535433071
          },
          {
            "duration": 0.4571424000000093,
            "durationTicks": 768,
            "midi": 75,
            "name": "D#5",
            "ticks": 125280,
            "time": 74.571354,
            "velocity": 0.8267716535433071
          },
          {
            "duration": 0.4571424000000093,
            "durationTicks": 768,
            "midi": 77,
            "name": "F5",
            "ticks": 125280,
            "time": 74.571354,
            "velocity": 0.8267716535433071
          },
          {
            "duration": 0.22857120000000464,
            "durationTicks": 384,
            "midi": 75,
            "name": "D#5",
            "ticks": 126240,
            "time": 75.14278200000001,
            "velocity": 0.8267716535433071
          },
          {
            "duration": 0.22857120000000464,
            "durationTicks": 384,
            "midi": 77,
            "name": "F5",
            "ticks": 126240,
            "time": 75.14278200000001,
            "velocity": 0.8267716535433071
          },
          {
            "duration": 0.22857120000000464,
            "durationTicks": 384,
            "midi": 74,
            "name": "D5",
            "ticks": 126720,
            "time": 75.42849600000001,
            "velocity": 0.7244094488188977
          },
          {
            "duration": 0.22857120000000464,
            "durationTicks": 384,
            "midi": 77,
            "name": "F5",
            "ticks": 126720,
            "time": 75.42849600000001,
            "velocity": 0.7244094488188977
          },
          {
            "duration": 0.11428559999998811,
            "durationTicks": 192,
            "midi": 62,
            "name": "D4",
            "ticks": 127200,
            "time": 75.71421000000001,
            "velocity": 0.984251968503937
          },
          {
            "duration": 0.11428560000000232,
            "durationTicks": 192,
            "midi": 62,
            "name": "D4",
            "ticks": 127440,
            "time": 75.857067,
            "velocity": 0.8267716535433071
          },
          {
            "duration": 0.11428559999998811,
            "durationTicks": 192,
            "midi": 62,
            "name": "D4",
            "ticks": 127680,
            "time": 75.99992400000001,
            "velocity": 0.8267716535433071
          },
          {
            "duration": 0.11428560000000232,
            "durationTicks": 192,
            "midi": 62,
            "name": "D4",
            "ticks": 127920,
            "time": 76.142781,
            "velocity": 0.8267716535433071
          },
          {
            "duration": 0.11428559999998811,
            "durationTicks": 192,
            "midi": 63,
            "name": "D#4",
            "ticks": 128160,
            "time": 76.285638,
            "velocity": 0.8267716535433071
          },
          {
            "duration": 0.11428559999998811,
            "durationTicks": 192,
            "midi": 63,
            "name": "D#4",
            "ticks": 128400,
            "time": 76.42849500000001,
            "velocity": 0.8267716535433071
          },
          {
            "duration": 0.11428560000000232,
            "durationTicks": 192,
            "midi": 64,
            "name": "E4",
            "ticks": 128640,
            "time": 76.571352,
            "velocity": 0.8267716535433071
          },
          {
            "duration": 0.11428559999998811,
            "durationTicks": 192,
            "midi": 64,
            "name": "E4",
            "ticks": 128880,
            "time": 76.71420900000001,
            "velocity": 0.8267716535433071
          },
          {
            "duration": 0.11428560000000232,
            "durationTicks": 192,
            "midi": 65,
            "name": "F4",
            "ticks": 129120,
            "time": 76.857066,
            "velocity": 0.8267716535433071
          },
          {
            "duration": 0.11428559999998811,
            "durationTicks": 192,
            "midi": 65,
            "name": "F4",
            "ticks": 129360,
            "time": 76.99992300000001,
            "velocity": 0.8267716535433071
          },
          {
            "duration": 0.11428560000000232,
            "durationTicks": 192,
            "midi": 66,
            "name": "F#4",
            "ticks": 129600,
            "time": 77.14278,
            "velocity": 0.8267716535433071
          },
          {
            "duration": 0.11428559999998811,
            "durationTicks": 192,
            "midi": 66,
            "name": "F#4",
            "ticks": 129840,
            "time": 77.28563700000001,
            "velocity": 0.8267716535433071
          },
          {
            "duration": 0.11428560000000232,
            "durationTicks": 192,
            "midi": 67,
            "name": "G4",
            "ticks": 130080,
            "time": 77.428494,
            "velocity": 0.8267716535433071
          },
          {
            "duration": 0.11428559999998811,
            "durationTicks": 192,
            "midi": 67,
            "name": "G4",
            "ticks": 130320,
            "time": 77.571351,
            "velocity": 0.8267716535433071
          },
          {
            "duration": 0.22857119999999043,
            "durationTicks": 384,
            "midi": 68,
            "name": "G#4",
            "ticks": 130560,
            "time": 77.71420800000001,
            "velocity": 0.8267716535433071
          },
          {
            "duration": 0.057142800000008265,
            "durationTicks": 96,
            "midi": 68,
            "name": "G#4",
            "ticks": 131400,
            "time": 78.2142075,
            "velocity": 0.8267716535433071
          },
          {
            "duration": 0.22857120000000464,
            "durationTicks": 384,
            "midi": 67,
            "name": "G4",
            "ticks": 131520,
            "time": 78.28563600000001,
            "velocity": 0.8267716535433071
          },
          {
            "duration": 0.057142799999994054,
            "durationTicks": 96,
            "midi": 67,
            "name": "G4",
            "ticks": 132360,
            "time": 78.78563550000001,
            "velocity": 0.8267716535433071
          },
          {
            "duration": 0.22857120000000464,
            "durationTicks": 384,
            "midi": 75,
            "name": "D#5",
            "ticks": 132480,
            "time": 78.85706400000001,
            "velocity": 0.8267716535433071
          },
          {
            "duration": 0.057142799999994054,
            "durationTicks": 96,
            "midi": 75,
            "name": "D#5",
            "ticks": 133320,
            "time": 79.35706350000001,
            "velocity": 0.8267716535433071
          },
          {
            "duration": 0.22857120000000464,
            "durationTicks": 384,
            "midi": 74,
            "name": "D5",
            "ticks": 133440,
            "time": 79.428492,
            "velocity": 0.8267716535433071
          },
          {
            "duration": 0.057142799999994054,
            "durationTicks": 96,
            "midi": 74,
            "name": "D5",
            "ticks": 134280,
            "time": 79.9284915,
            "velocity": 0.8267716535433071
          },
          {
            "duration": 0.6571422000000098,
            "durationTicks": 1104,
            "midi": 79,
            "name": "G5",
            "ticks": 134400,
            "time": 79.99992,
            "velocity": 0.8267716535433071
          },
          {
            "duration": 0.08571419999999819,
            "durationTicks": 144,
            "midi": 77,
            "name": "F5",
            "ticks": 135600,
            "time": 80.714205,
            "velocity": 0.5511811023622047
          },
          {
            "duration": 0.08571419999999819,
            "durationTicks": 144,
            "midi": 75,
            "name": "D#5",
            "ticks": 135840,
            "time": 80.85706200000001,
            "velocity": 0.5511811023622047
          },
          {
            "duration": 0.08571419999999819,
            "durationTicks": 144,
            "midi": 74,
            "name": "D5",
            "ticks": 136080,
            "time": 80.999919,
            "velocity": 0.5511811023622047
          },
          {
            "duration": 0.08571419999999819,
            "durationTicks": 144,
            "midi": 72,
            "name": "C5",
            "ticks": 136320,
            "time": 81.14277600000001,
            "velocity": 0.5511811023622047
          },
          {
            "duration": 0.0857142000000124,
            "durationTicks": 144,
            "midi": 70,
            "name": "A#4",
            "ticks": 136560,
            "time": 81.285633,
            "velocity": 0.5511811023622047
          },
          {
            "duration": 0.08571419999999819,
            "durationTicks": 144,
            "midi": 69,
            "name": "A4",
            "ticks": 136800,
            "time": 81.42849000000001,
            "velocity": 0.5511811023622047
          },
          {
            "duration": 0.0857142000000124,
            "durationTicks": 144,
            "midi": 67,
            "name": "G4",
            "ticks": 137040,
            "time": 81.571347,
            "velocity": 0.5511811023622047
          },
          {
            "duration": 0.08571419999999819,
            "durationTicks": 144,
            "midi": 65,
            "name": "F4",
            "ticks": 137280,
            "time": 81.71420400000001,
            "velocity": 0.5511811023622047
          },
          {
            "duration": 0.0857142000000124,
            "durationTicks": 144,
            "midi": 63,
            "name": "D#4",
            "ticks": 137520,
            "time": 81.857061,
            "velocity": 0.5511811023622047
          },
          {
            "duration": 0.08571419999999819,
            "durationTicks": 144,
            "midi": 62,
            "name": "D4",
            "ticks": 137760,
            "time": 81.99991800000001,
            "velocity": 0.5511811023622047
          },
          {
            "duration": 0.0857142000000124,
            "durationTicks": 144,
            "midi": 60,
            "name": "C4",
            "ticks": 138000,
            "time": 82.142775,
            "velocity": 0.5511811023622047
          },
          {
            "duration": 0.14285700000000645,
            "durationTicks": 240,
            "midi": 62,
            "name": "D4",
            "ticks": 138240,
            "time": 82.285632,
            "velocity": 0.4566929133858268
          },
          {
            "duration": 0.14285699999999224,
            "durationTicks": 240,
            "midi": 65,
            "name": "F4",
            "ticks": 138480,
            "time": 82.42848900000001,
            "velocity": 0.4566929133858268
          },
          {
            "duration": 0.14285700000000645,
            "durationTicks": 240,
            "midi": 62,
            "name": "D4",
            "ticks": 138720,
            "time": 82.571346,
            "velocity": 0.4566929133858268
          },
          {
            "duration": 0.14285699999999224,
            "durationTicks": 240,
            "midi": 65,
            "name": "F4",
            "ticks": 138960,
            "time": 82.71420300000001,
            "velocity": 0.4566929133858268
          },
          {
            "duration": 0.14285700000000645,
            "durationTicks": 240,
            "midi": 62,
            "name": "D4",
            "ticks": 139200,
            "time": 82.85706,
            "velocity": 0.4566929133858268
          },
          {
            "duration": 0.14285699999999224,
            "durationTicks": 240,
            "midi": 65,
            "name": "F4",
            "ticks": 139440,
            "time": 82.99991700000001,
            "velocity": 0.4566929133858268
          },
          {
            "duration": 0.14285700000000645,
            "durationTicks": 240,
            "midi": 62,
            "name": "D4",
            "ticks": 139680,
            "time": 83.142774,
            "velocity": 0.4566929133858268
          },
          {
            "duration": 0.11428559999998811,
            "durationTicks": 192,
            "midi": 65,
            "name": "F4",
            "ticks": 139920,
            "time": 83.28563100000001,
            "velocity": 0.4566929133858268
          },
          {
            "duration": 0.14285700000000645,
            "durationTicks": 240,
            "midi": 63,
            "name": "D#4",
            "ticks": 140160,
            "time": 83.428488,
            "velocity": 0.4566929133858268
          },
          {
            "duration": 0.14285699999999224,
            "durationTicks": 240,
            "midi": 65,
            "name": "F4",
            "ticks": 140400,
            "time": 83.57134500000001,
            "velocity": 0.4566929133858268
          },
          {
            "duration": 0.14285700000000645,
            "durationTicks": 240,
            "midi": 63,
            "name": "D#4",
            "ticks": 140640,
            "time": 83.714202,
            "velocity": 0.4566929133858268
          },
          {
            "duration": 0.14285700000000645,
            "durationTicks": 240,
            "midi": 65,
            "name": "F4",
            "ticks": 140880,
            "time": 83.857059,
            "velocity": 0.4566929133858268
          },
          {
            "duration": 0.14285699999999224,
            "durationTicks": 240,
            "midi": 60,
            "name": "C4",
            "ticks": 141120,
            "time": 83.99991600000001,
            "velocity": 0.4566929133858268
          },
          {
            "duration": 0.14285700000000645,
            "durationTicks": 240,
            "midi": 65,
            "name": "F4",
            "ticks": 141360,
            "time": 84.142773,
            "velocity": 0.4566929133858268
          },
          {
            "duration": 0.14285699999999224,
            "durationTicks": 240,
            "midi": 60,
            "name": "C4",
            "ticks": 141600,
            "time": 84.28563000000001,
            "velocity": 0.4566929133858268
          },
          {
            "duration": 0.11428560000000232,
            "durationTicks": 192,
            "midi": 65,
            "name": "F4",
            "ticks": 141840,
            "time": 84.428487,
            "velocity": 0.4566929133858268
          },
          {
            "duration": 0.14285699999999224,
            "durationTicks": 240,
            "midi": 58,
            "name": "A#3",
            "ticks": 142080,
            "time": 84.57134400000001,
            "velocity": 0.4566929133858268
          },
          {
            "duration": 0.14285700000000645,
            "durationTicks": 240,
            "midi": 65,
            "name": "F4",
            "ticks": 142320,
            "time": 84.714201,
            "velocity": 0.4566929133858268
          },
          {
            "duration": 0.14285699999999224,
            "durationTicks": 240,
            "midi": 58,
            "name": "A#3",
            "ticks": 142560,
            "time": 84.85705800000001,
            "velocity": 0.4566929133858268
          },
          {
            "duration": 0.14285700000000645,
            "durationTicks": 240,
            "midi": 65,
            "name": "F4",
            "ticks": 142800,
            "time": 84.999915,
            "velocity": 0.4566929133858268
          },
          {
            "duration": 0.14285699999999224,
            "durationTicks": 240,
            "midi": 58,
            "name": "A#3",
            "ticks": 143040,
            "time": 85.14277200000001,
            "velocity": 0.4566929133858268
          },
          {
            "duration": 0.14285700000000645,
            "durationTicks": 240,
            "midi": 65,
            "name": "F4",
            "ticks": 143280,
            "time": 85.285629,
            "velocity": 0.4566929133858268
          },
          {
            "duration": 0.14285700000000645,
            "durationTicks": 240,
            "midi": 62,
            "name": "D4",
            "ticks": 143520,
            "time": 85.428486,
            "velocity": 0.4566929133858268
          },
          {
            "duration": 0.11428559999998811,
            "durationTicks": 192,
            "midi": 65,
            "name": "F4",
            "ticks": 143760,
            "time": 85.57134300000001,
            "velocity": 0.4566929133858268
          },
          {
            "duration": 0.14285700000000645,
            "durationTicks": 240,
            "midi": 63,
            "name": "D#4",
            "ticks": 144000,
            "time": 85.7142,
            "velocity": 0.4566929133858268
          },
          {
            "duration": 0.14285699999999224,
            "durationTicks": 240,
            "midi": 65,
            "name": "F4",
            "ticks": 144240,
            "time": 85.85705700000001,
            "velocity": 0.4566929133858268
          },
          {
            "duration": 0.14285700000000645,
            "durationTicks": 240,
            "midi": 63,
            "name": "D#4",
            "ticks": 144480,
            "time": 85.999914,
            "velocity": 0.4566929133858268
          },
          {
            "duration": 0.14285699999999224,
            "durationTicks": 240,
            "midi": 65,
            "name": "F4",
            "ticks": 144720,
            "time": 86.14277100000001,
            "velocity": 0.4566929133858268
          },
          {
            "duration": 0.14285700000000645,
            "durationTicks": 240,
            "midi": 60,
            "name": "C4",
            "ticks": 144960,
            "time": 86.285628,
            "velocity": 0.4566929133858268
          },
          {
            "duration": 0.14285699999999224,
            "durationTicks": 240,
            "midi": 65,
            "name": "F4",
            "ticks": 145200,
            "time": 86.42848500000001,
            "velocity": 0.4566929133858268
          },
          {
            "duration": 0.14285700000000645,
            "durationTicks": 240,
            "midi": 60,
            "name": "C4",
            "ticks": 145440,
            "time": 86.571342,
            "velocity": 0.4566929133858268
          },
          {
            "duration": 0.11428559999998811,
            "durationTicks": 192,
            "midi": 65,
            "name": "F4",
            "ticks": 145680,
            "time": 86.71419900000001,
            "velocity": 0.4566929133858268
          },
          {
            "duration": 0.14285700000000645,
            "durationTicks": 240,
            "midi": 58,
            "name": "A#3",
            "ticks": 145920,
            "time": 86.857056,
            "velocity": 0.4566929133858268
          },
          {
            "duration": 0.14285700000000645,
            "durationTicks": 240,
            "midi": 65,
            "name": "F4",
            "ticks": 146160,
            "time": 86.999913,
            "velocity": 0.4566929133858268
          },
          {
            "duration": 0.14285699999999224,
            "durationTicks": 240,
            "midi": 58,
            "name": "A#3",
            "ticks": 146400,
            "time": 87.14277000000001,
            "velocity": 0.4566929133858268
          },
          {
            "duration": 0.14285700000000645,
            "durationTicks": 240,
            "midi": 65,
            "name": "F4",
            "ticks": 146640,
            "time": 87.285627,
            "velocity": 0.4566929133858268
          },
          {
            "duration": 0.14285699999999224,
            "durationTicks": 240,
            "midi": 58,
            "name": "A#3",
            "ticks": 146880,
            "time": 87.42848400000001,
            "velocity": 0.4566929133858268
          },
          {
            "duration": 0.14285700000000645,
            "durationTicks": 240,
            "midi": 65,
            "name": "F4",
            "ticks": 147120,
            "time": 87.571341,
            "velocity": 0.4566929133858268
          },
          {
            "duration": 0.14285699999999224,
            "durationTicks": 240,
            "midi": 74,
            "name": "D5",
            "ticks": 147360,
            "time": 87.71419800000001,
            "velocity": 0.4566929133858268
          },
          {
            "duration": 0.11428560000000232,
            "durationTicks": 192,
            "midi": 65,
            "name": "F4",
            "ticks": 147600,
            "time": 87.857055,
            "velocity": 0.4566929133858268
          },
          {
            "duration": 0.11428559999998811,
            "durationTicks": 192,
            "midi": 72,
            "name": "C5",
            "ticks": 147840,
            "time": 87.99991200000001,
            "velocity": 0.8267716535433071
          },
          {
            "duration": 0.11428559999998811,
            "durationTicks": 192,
            "midi": 78,
            "name": "F#5",
            "ticks": 147840,
            "time": 87.99991200000001,
            "velocity": 0.8267716535433071
          },
          {
            "duration": 0.11428560000000232,
            "durationTicks": 192,
            "midi": 72,
            "name": "C5",
            "ticks": 148080,
            "time": 88.142769,
            "velocity": 0.8267716535433071
          },
          {
            "duration": 0.11428560000000232,
            "durationTicks": 192,
            "midi": 78,
            "name": "F#5",
            "ticks": 148080,
            "time": 88.142769,
            "velocity": 0.8267716535433071
          },
          {
            "duration": 0.11428559999998811,
            "durationTicks": 192,
            "midi": 72,
            "name": "C5",
            "ticks": 148320,
            "time": 88.28562600000001,
            "velocity": 0.8267716535433071
          },
          {
            "duration": 0.11428559999998811,
            "durationTicks": 192,
            "midi": 78,
            "name": "F#5",
            "ticks": 148320,
            "time": 88.28562600000001,
            "velocity": 0.8267716535433071
          },
          {
            "duration": 0.11428559999998811,
            "durationTicks": 192,
            "midi": 72,
            "name": "C5",
            "ticks": 148560,
            "time": 88.42848300000001,
            "velocity": 0.8267716535433071
          },
          {
            "duration": 0.11428559999998811,
            "durationTicks": 192,
            "midi": 78,
            "name": "F#5",
            "ticks": 148560,
            "time": 88.42848300000001,
            "velocity": 0.8267716535433071
          },
          {
            "duration": 0.11428559999998811,
            "durationTicks": 192,
            "midi": 72,
            "name": "C5",
            "ticks": 148800,
            "time": 88.57134,
            "velocity": 0.8267716535433071
          },
          {
            "duration": 0.11428559999998811,
            "durationTicks": 192,
            "midi": 78,
            "name": "F#5",
            "ticks": 148800,
            "time": 88.57134,
            "velocity": 0.8267716535433071
          },
          {
            "duration": 0.11428559999998811,
            "durationTicks": 192,
            "midi": 72,
            "name": "C5",
            "ticks": 149040,
            "time": 88.71419700000001,
            "velocity": 0.8267716535433071
          },
          {
            "duration": 0.11428559999998811,
            "durationTicks": 192,
            "midi": 78,
            "name": "F#5",
            "ticks": 149040,
            "time": 88.71419700000001,
            "velocity": 0.8267716535433071
          },
          {
            "duration": 0.11428560000000232,
            "durationTicks": 192,
            "midi": 72,
            "name": "C5",
            "ticks": 149280,
            "time": 88.857054,
            "velocity": 0.8267716535433071
          },
          {
            "duration": 0.11428560000000232,
            "durationTicks": 192,
            "midi": 78,
            "name": "F#5",
            "ticks": 149280,
            "time": 88.857054,
            "velocity": 0.8267716535433071
          },
          {
            "duration": 0.11428559999998811,
            "durationTicks": 192,
            "midi": 72,
            "name": "C5",
            "ticks": 149520,
            "time": 88.99991100000001,
            "velocity": 0.8267716535433071
          },
          {
            "duration": 0.11428559999998811,
            "durationTicks": 192,
            "midi": 78,
            "name": "F#5",
            "ticks": 149520,
            "time": 88.99991100000001,
            "velocity": 0.8267716535433071
          },
          {
            "duration": 0.4571424000000093,
            "durationTicks": 768,
            "midi": 70,
            "name": "A#4",
            "ticks": 149760,
            "time": 89.142768,
            "velocity": 0.8267716535433071
          },
          {
            "duration": 0.4571424000000093,
            "durationTicks": 768,
            "midi": 79,
            "name": "G5",
            "ticks": 149760,
            "time": 89.142768,
            "velocity": 0.8267716535433071
          },
          {
            "duration": 0.42857100000000514,
            "durationTicks": 720,
            "midi": 79,
            "name": "G5",
            "ticks": 150720,
            "time": 89.714196,
            "velocity": 0.8267716535433071
          },
          {
            "duration": 0.11428559999998811,
            "durationTicks": 192,
            "midi": 75,
            "name": "D#5",
            "ticks": 151440,
            "time": 90.142767,
            "velocity": 0.8267716535433071
          },
          {
            "duration": 0.42857099999999093,
            "durationTicks": 720,
            "midi": 74,
            "name": "D5",
            "ticks": 151680,
            "time": 90.28562400000001,
            "velocity": 0.8267716535433071
          },
          {
            "duration": 0.11428560000000232,
            "durationTicks": 192,
            "midi": 77,
            "name": "F5",
            "ticks": 152400,
            "time": 90.714195,
            "velocity": 0.8267716535433071
          },
          {
            "duration": 0.42857099999999093,
            "durationTicks": 720,
            "midi": 75,
            "name": "D#5",
            "ticks": 152640,
            "time": 90.85705200000001,
            "velocity": 0.8267716535433071
          },
          {
            "duration": 0.11428560000000232,
            "durationTicks": 192,
            "midi": 72,
            "name": "C5",
            "ticks": 153360,
            "time": 91.285623,
            "velocity": 0.8267716535433071
          },
          {
            "duration": 0.11428559999998811,
            "durationTicks": 192,
            "midi": 74,
            "name": "D5",
            "ticks": 153600,
            "time": 91.42848000000001,
            "velocity": 0.7244094488188977
          },
          {
            "duration": 0.14285699999999224,
            "durationTicks": 240,
            "midi": 65,
            "name": "F4",
            "ticks": 153840,
            "time": 91.57133700000001,
            "velocity": 0.5511811023622047
          },
          {
            "duration": 0.14285700000000645,
            "durationTicks": 240,
            "midi": 62,
            "name": "D4",
            "ticks": 154080,
            "time": 91.714194,
            "velocity": 0.5511811023622047
          },
          {
            "duration": 0.14285699999999224,
            "durationTicks": 240,
            "midi": 65,
            "name": "F4",
            "ticks": 154320,
            "time": 91.85705100000001,
            "velocity": 0.5511811023622047
          },
          {
            "duration": 0.14285700000000645,
            "durationTicks": 240,
            "midi": 62,
            "name": "D4",
            "ticks": 154560,
            "time": 91.999908,
            "velocity": 0.5511811023622047
          },
          {
            "duration": 0.14285699999999224,
            "durationTicks": 240,
            "midi": 65,
            "name": "F4",
            "ticks": 154800,
            "time": 92.14276500000001,
            "velocity": 0.5511811023622047
          },
          {
            "duration": 0.14285700000000645,
            "durationTicks": 240,
            "midi": 62,
            "name": "D4",
            "ticks": 155040,
            "time": 92.285622,
            "velocity": 0.5511811023622047
          },
          {
            "duration": 0.11428559999998811,
            "durationTicks": 192,
            "midi": 65,
            "name": "F4",
            "ticks": 155280,
            "time": 92.42847900000001,
            "velocity": 0.5511811023622047
          },
          {
            "duration": 0.14285700000000645,
            "durationTicks": 240,
            "midi": 60,
            "name": "C4",
            "ticks": 155520,
            "time": 92.571336,
            "velocity": 0.5511811023622047
          },
          {
            "duration": 0.14285699999999224,
            "durationTicks": 240,
            "midi": 63,
            "name": "D#4",
            "ticks": 155760,
            "time": 92.71419300000001,
            "velocity": 0.5511811023622047
          },
          {
            "duration": 0.14285700000000645,
            "durationTicks": 240,
            "midi": 60,
            "name": "C4",
            "ticks": 156000,
            "time": 92.85705,
            "velocity": 0.5511811023622047
          },
          {
            "duration": 0.14285700000000645,
            "durationTicks": 240,
            "midi": 63,
            "name": "D#4",
            "ticks": 156240,
            "time": 92.99990700000001,
            "velocity": 0.5511811023622047
          },
          {
            "duration": 0.14285699999999224,
            "durationTicks": 240,
            "midi": 60,
            "name": "C4",
            "ticks": 156480,
            "time": 93.14276400000001,
            "velocity": 0.5511811023622047
          },
          {
            "duration": 0.14285700000000645,
            "durationTicks": 240,
            "midi": 65,
            "name": "F4",
            "ticks": 156720,
            "time": 93.285621,
            "velocity": 0.5511811023622047
          },
          {
            "duration": 0.14285699999999224,
            "durationTicks": 240,
            "midi": 57,
            "name": "A3",
            "ticks": 156960,
            "time": 93.42847800000001,
            "velocity": 0.5511811023622047
          },
          {
            "duration": 0.11428560000000232,
            "durationTicks": 192,
            "midi": 65,
            "name": "F4",
            "ticks": 157200,
            "time": 93.571335,
            "velocity": 0.5511811023622047
          },
          {
            "duration": 0.14285699999999224,
            "durationTicks": 240,
            "midi": 58,
            "name": "A#3",
            "ticks": 157440,
            "time": 93.71419200000001,
            "velocity": 0.5511811023622047
          },
          {
            "duration": 0.14285700000000645,
            "durationTicks": 240,
            "midi": 65,
            "name": "F4",
            "ticks": 157680,
            "time": 93.857049,
            "velocity": 0.5511811023622047
          },
          {
            "duration": 0.14285699999999224,
            "durationTicks": 240,
            "midi": 58,
            "name": "A#3",
            "ticks": 157920,
            "time": 93.99990600000001,
            "velocity": 0.5511811023622047
          },
          {
            "duration": 0.14285700000000645,
            "durationTicks": 240,
            "midi": 65,
            "name": "F4",
            "ticks": 158160,
            "time": 94.142763,
            "velocity": 0.5511811023622047
          },
          {
            "duration": 0.14285699999999224,
            "durationTicks": 240,
            "midi": 58,
            "name": "A#3",
            "ticks": 158400,
            "time": 94.28562000000001,
            "velocity": 0.5511811023622047
          },
          {
            "duration": 0.14285700000000645,
            "durationTicks": 240,
            "midi": 65,
            "name": "F4",
            "ticks": 158640,
            "time": 94.428477,
            "velocity": 0.5511811023622047
          },
          {
            "duration": 0.14285700000000645,
            "durationTicks": 240,
            "midi": 62,
            "name": "D4",
            "ticks": 158880,
            "time": 94.57133400000001,
            "velocity": 0.5511811023622047
          },
          {
            "duration": 0.11428559999998811,
            "durationTicks": 192,
            "midi": 65,
            "name": "F4",
            "ticks": 159120,
            "time": 94.71419100000001,
            "velocity": 0.5511811023622047
          },
          {
            "duration": 0.14285700000000645,
            "durationTicks": 240,
            "midi": 60,
            "name": "C4",
            "ticks": 159360,
            "time": 94.857048,
            "velocity": 0.5511811023622047
          },
          {
            "duration": 0.14285699999999224,
            "durationTicks": 240,
            "midi": 63,
            "name": "D#4",
            "ticks": 159600,
            "time": 94.99990500000001,
            "velocity": 0.5511811023622047
          },
          {
            "duration": 0.14285700000000645,
            "durationTicks": 240,
            "midi": 60,
            "name": "C4",
            "ticks": 159840,
            "time": 95.142762,
            "velocity": 0.5511811023622047
          },
          {
            "duration": 0.14285699999999224,
            "durationTicks": 240,
            "midi": 63,
            "name": "D#4",
            "ticks": 160080,
            "time": 95.28561900000001,
            "velocity": 0.5511811023622047
          },
          {
            "duration": 0.14285700000000645,
            "durationTicks": 240,
            "midi": 60,
            "name": "C4",
            "ticks": 160320,
            "time": 95.428476,
            "velocity": 0.5511811023622047
          },
          {
            "duration": 0.14285699999999224,
            "durationTicks": 240,
            "midi": 65,
            "name": "F4",
            "ticks": 160560,
            "time": 95.57133300000001,
            "velocity": 0.5511811023622047
          },
          {
            "duration": 0.14285700000000645,
            "durationTicks": 240,
            "midi": 57,
            "name": "A3",
            "ticks": 160800,
            "time": 95.71419,
            "velocity": 0.5511811023622047
          },
          {
            "duration": 0.11428559999998811,
            "durationTicks": 192,
            "midi": 65,
            "name": "F4",
            "ticks": 161040,
            "time": 95.85704700000001,
            "velocity": 0.5511811023622047
          },
          {
            "duration": 0.14285699999999224,
            "durationTicks": 240,
            "midi": 58,
            "name": "A#3",
            "ticks": 161280,
            "time": 95.99990400000002,
            "velocity": 0.5511811023622047
          },
          {
            "duration": 0.14285700000000645,
            "durationTicks": 240,
            "midi": 65,
            "name": "F4",
            "ticks": 161520,
            "time": 96.14276100000001,
            "velocity": 0.5511811023622047
          },
          {
            "duration": 0.14285699999999224,
            "durationTicks": 240,
            "midi": 58,
            "name": "A#3",
            "ticks": 161760,
            "time": 96.28561800000001,
            "velocity": 0.5511811023622047
          },
          {
            "duration": 0.14285700000000645,
            "durationTicks": 240,
            "midi": 65,
            "name": "F4",
            "ticks": 162000,
            "time": 96.428475,
            "velocity": 0.5511811023622047
          },
          {
            "duration": 0.14285699999999224,
            "durationTicks": 240,
            "midi": 58,
            "name": "A#3",
            "ticks": 162240,
            "time": 96.57133200000001,
            "velocity": 0.5511811023622047
          },
          {
            "duration": 0.14285700000000645,
            "durationTicks": 240,
            "midi": 65,
            "name": "F4",
            "ticks": 162480,
            "time": 96.714189,
            "velocity": 0.5511811023622047
          },
          {
            "duration": 0.14285699999999224,
            "durationTicks": 240,
            "midi": 74,
            "name": "D5",
            "ticks": 162720,
            "time": 96.85704600000001,
            "velocity": 0.5511811023622047
          },
          {
            "duration": 0.11428560000000232,
            "durationTicks": 192,
            "midi": 65,
            "name": "F4",
            "ticks": 162960,
            "time": 96.999903,
            "velocity": 0.5511811023622047
          },
          {
            "duration": 0.11428559999998811,
            "durationTicks": 192,
            "midi": 72,
            "name": "C5",
            "ticks": 163200,
            "time": 97.14276000000001,
            "velocity": 0.8267716535433071
          },
          {
            "duration": 0.11428559999998811,
            "durationTicks": 192,
            "midi": 78,
            "name": "F#5",
            "ticks": 163200,
            "time": 97.14276000000001,
            "velocity": 0.8267716535433071
          },
          {
            "duration": 0.11428560000000232,
            "durationTicks": 192,
            "midi": 72,
            "name": "C5",
            "ticks": 163440,
            "time": 97.285617,
            "velocity": 0.8267716535433071
          },
          {
            "duration": 0.11428560000000232,
            "durationTicks": 192,
            "midi": 78,
            "name": "F#5",
            "ticks": 163440,
            "time": 97.285617,
            "velocity": 0.8267716535433071
          },
          {
            "duration": 0.11428559999998811,
            "durationTicks": 192,
            "midi": 72,
            "name": "C5",
            "ticks": 163680,
            "time": 97.42847400000001,
            "velocity": 0.8267716535433071
          },
          {
            "duration": 0.11428559999998811,
            "durationTicks": 192,
            "midi": 78,
            "name": "F#5",
            "ticks": 163680,
            "time": 97.42847400000001,
            "velocity": 0.8267716535433071
          },
          {
            "duration": 0.11428559999998811,
            "durationTicks": 192,
            "midi": 72,
            "name": "C5",
            "ticks": 163920,
            "time": 97.57133100000001,
            "velocity": 0.8267716535433071
          },
          {
            "duration": 0.11428559999998811,
            "durationTicks": 192,
            "midi": 78,
            "name": "F#5",
            "ticks": 163920,
            "time": 97.57133100000001,
            "velocity": 0.8267716535433071
          },
          {
            "duration": 0.11428559999998811,
            "durationTicks": 192,
            "midi": 72,
            "name": "C5",
            "ticks": 164160,
            "time": 97.71418800000001,
            "velocity": 0.8267716535433071
          },
          {
            "duration": 0.11428559999998811,
            "durationTicks": 192,
            "midi": 78,
            "name": "F#5",
            "ticks": 164160,
            "time": 97.71418800000001,
            "velocity": 0.8267716535433071
          },
          {
            "duration": 0.11428559999998811,
            "durationTicks": 192,
            "midi": 72,
            "name": "C5",
            "ticks": 164400,
            "time": 97.85704500000001,
            "velocity": 0.8267716535433071
          },
          {
            "duration": 0.11428559999998811,
            "durationTicks": 192,
            "midi": 78,
            "name": "F#5",
            "ticks": 164400,
            "time": 97.85704500000001,
            "velocity": 0.8267716535433071
          },
          {
            "duration": 0.11428560000000232,
            "durationTicks": 192,
            "midi": 72,
            "name": "C5",
            "ticks": 164640,
            "time": 97.999902,
            "velocity": 0.8267716535433071
          },
          {
            "duration": 0.11428560000000232,
            "durationTicks": 192,
            "midi": 78,
            "name": "F#5",
            "ticks": 164640,
            "time": 97.999902,
            "velocity": 0.8267716535433071
          },
          {
            "duration": 0.11428559999998811,
            "durationTicks": 192,
            "midi": 72,
            "name": "C5",
            "ticks": 164880,
            "time": 98.14275900000001,
            "velocity": 0.8267716535433071
          },
          {
            "duration": 0.11428559999998811,
            "durationTicks": 192,
            "midi": 78,
            "name": "F#5",
            "ticks": 164880,
            "time": 98.14275900000001,
            "velocity": 0.8267716535433071
          },
          {
            "duration": 0.4571424000000093,
            "durationTicks": 768,
            "midi": 70,
            "name": "A#4",
            "ticks": 165120,
            "time": 98.285616,
            "velocity": 0.8267716535433071
          },
          {
            "duration": 0.4571424000000093,
            "durationTicks": 768,
            "midi": 79,
            "name": "G5",
            "ticks": 165120,
            "time": 98.285616,
            "velocity": 0.8267716535433071
          },
          {
            "duration": 0.42857100000000514,
            "durationTicks": 720,
            "midi": 79,
            "name": "G5",
            "ticks": 166080,
            "time": 98.857044,
            "velocity": 0.8267716535433071
          },
          {
            "duration": 0.11428559999998811,
            "durationTicks": 192,
            "midi": 75,
            "name": "D#5",
            "ticks": 166800,
            "time": 99.285615,
            "velocity": 0.8267716535433071
          },
          {
            "duration": 0.42857099999999093,
            "durationTicks": 720,
            "midi": 74,
            "name": "D5",
            "ticks": 167040,
            "time": 99.42847200000001,
            "velocity": 0.8267716535433071
          },
          {
            "duration": 0.11428560000000232,
            "durationTicks": 192,
            "midi": 77,
            "name": "F5",
            "ticks": 167760,
            "time": 99.857043,
            "velocity": 0.8267716535433071
          },
          {
            "duration": 0.42857099999999093,
            "durationTicks": 720,
            "midi": 75,
            "name": "D#5",
            "ticks": 168000,
            "time": 99.99990000000001,
            "velocity": 0.8267716535433071
          },
          {
            "duration": 0.11428560000000232,
            "durationTicks": 192,
            "midi": 72,
            "name": "C5",
            "ticks": 168720,
            "time": 100.428471,
            "velocity": 0.8267716535433071
          },
          {
            "duration": 0.22857120000000464,
            "durationTicks": 384,
            "midi": 74,
            "name": "D5",
            "ticks": 168960,
            "time": 100.57132800000001,
            "velocity": 0.8267716535433071
          },
          {
            "duration": 0.11428559999998811,
            "durationTicks": 192,
            "midi": 86,
            "name": "D6",
            "ticks": 169440,
            "time": 100.857042,
            "velocity": 0.8267716535433071
          },
          {
            "duration": 0.11428559999998811,
            "durationTicks": 192,
            "midi": 84,
            "name": "C6",
            "ticks": 169680,
            "time": 100.99989900000001,
            "velocity": 0.8267716535433071
          },
          {
            "duration": 0.11428560000000232,
            "durationTicks": 192,
            "midi": 82,
            "name": "A#5",
            "ticks": 169920,
            "time": 101.142756,
            "velocity": 0.8267716535433071
          },
          {
            "duration": 0.11428559999998811,
            "durationTicks": 192,
            "midi": 81,
            "name": "A5",
            "ticks": 170160,
            "time": 101.28561300000001,
            "velocity": 0.8267716535433071
          },
          {
            "duration": 0.11428560000000232,
            "durationTicks": 192,
            "midi": 79,
            "name": "G5",
            "ticks": 170400,
            "time": 101.42847,
            "velocity": 0.8267716535433071
          },
          {
            "duration": 0.11428559999998811,
            "durationTicks": 192,
            "midi": 77,
            "name": "F5",
            "ticks": 170640,
            "time": 101.57132700000001,
            "velocity": 0.8267716535433071
          },
          {
            "duration": 0.11428560000000232,
            "durationTicks": 192,
            "midi": 75,
            "name": "D#5",
            "ticks": 170880,
            "time": 101.714184,
            "velocity": 0.8267716535433071
          },
          {
            "duration": 0.11428559999998811,
            "durationTicks": 192,
            "midi": 74,
            "name": "D5",
            "ticks": 171120,
            "time": 101.85704100000001,
            "velocity": 0.8267716535433071
          },
          {
            "duration": 0.11428560000000232,
            "durationTicks": 192,
            "midi": 72,
            "name": "C5",
            "ticks": 171360,
            "time": 101.999898,
            "velocity": 0.8267716535433071
          },
          {
            "duration": 0.11428559999998811,
            "durationTicks": 192,
            "midi": 70,
            "name": "A#4",
            "ticks": 171600,
            "time": 102.14275500000001,
            "velocity": 0.8267716535433071
          },
          {
            "duration": 0.11428559999998811,
            "durationTicks": 192,
            "midi": 69,
            "name": "A4",
            "ticks": 171840,
            "time": 102.28561200000001,
            "velocity": 0.8267716535433071
          },
          {
            "duration": 0.11428559999998811,
            "durationTicks": 192,
            "midi": 67,
            "name": "G4",
            "ticks": 172080,
            "time": 102.428469,
            "velocity": 0.8267716535433071
          },
          {
            "duration": 0.11428559999998811,
            "durationTicks": 192,
            "midi": 65,
            "name": "F4",
            "ticks": 172320,
            "time": 102.57132600000001,
            "velocity": 0.8267716535433071
          },
          {
            "duration": 0.11428560000000232,
            "durationTicks": 192,
            "midi": 63,
            "name": "D#4",
            "ticks": 172560,
            "time": 102.714183,
            "velocity": 0.8267716535433071
          },
          {
            "duration": 0.1999997999999863,
            "durationTicks": 336,
            "midi": 62,
            "name": "D4",
            "ticks": 172800,
            "time": 102.85704000000001,
            "velocity": 0.8267716535433071
          },
          {
            "duration": 0.1999998000000005,
            "durationTicks": 336,
            "midi": 70,
            "name": "A#4",
            "ticks": 173280,
            "time": 103.14275400000001,
            "velocity": 0.8267716535433071
          },
          {
            "duration": 0.1999998000000005,
            "durationTicks": 336,
            "midi": 70,
            "name": "A#4",
            "ticks": 173760,
            "time": 103.42846800000001,
            "velocity": 0.8267716535433071
          },
          {
            "duration": 0.1999998000000005,
            "durationTicks": 336,
            "midi": 60,
            "name": "C4",
            "ticks": 174240,
            "time": 103.71418200000001,
            "velocity": 0.8267716535433071
          },
          {
            "duration": 0.1999998000000005,
            "durationTicks": 336,
            "midi": 63,
            "name": "D#4",
            "ticks": 174240,
            "time": 103.71418200000001,
            "velocity": 0.8267716535433071
          },
          {
            "duration": 0.22857120000000464,
            "durationTicks": 384,
            "midi": 58,
            "name": "A#3",
            "ticks": 174720,
            "time": 103.999896,
            "velocity": 0.8267716535433071
          },
          {
            "duration": 0.22857120000000464,
            "durationTicks": 384,
            "midi": 62,
            "name": "D4",
            "ticks": 174720,
            "time": 103.999896,
            "velocity": 0.8267716535433071
          },
          {
            "duration": 0.11428560000000232,
            "durationTicks": 192,
            "midi": 74,
            "name": "D5",
            "ticks": 175200,
            "time": 104.28561,
            "velocity": 0.8267716535433071
          },
          {
            "duration": 0.11428559999998811,
            "durationTicks": 192,
            "midi": 72,
            "name": "C5",
            "ticks": 175440,
            "time": 104.42846700000001,
            "velocity": 0.8267716535433071
          },
          {
            "duration": 0.11428560000000232,
            "durationTicks": 192,
            "midi": 70,
            "name": "A#4",
            "ticks": 175680,
            "time": 104.571324,
            "velocity": 0.8267716535433071
          },
          {
            "duration": 0.11428559999998811,
            "durationTicks": 192,
            "midi": 69,
            "name": "A4",
            "ticks": 175920,
            "time": 104.71418100000001,
            "velocity": 0.8267716535433071
          },
          {
            "duration": 0.11428560000000232,
            "durationTicks": 192,
            "midi": 67,
            "name": "G4",
            "ticks": 176160,
            "time": 104.857038,
            "velocity": 0.8267716535433071
          },
          {
            "duration": 0.11428559999998811,
            "durationTicks": 192,
            "midi": 65,
            "name": "F4",
            "ticks": 176400,
            "time": 104.99989500000001,
            "velocity": 0.8267716535433071
          },
          {
            "duration": 0.11428560000000232,
            "durationTicks": 192,
            "midi": 63,
            "name": "D#4",
            "ticks": 176640,
            "time": 105.142752,
            "velocity": 0.8267716535433071
          },
          {
            "duration": 0.11428559999998811,
            "durationTicks": 192,
            "midi": 62,
            "name": "D4",
            "ticks": 176880,
            "time": 105.28560900000001,
            "velocity": 0.8267716535433071
          },
          {
            "duration": 0.11428559999998811,
            "durationTicks": 192,
            "midi": 60,
            "name": "C4",
            "ticks": 177120,
            "time": 105.42846600000001,
            "velocity": 0.8267716535433071
          },
          {
            "duration": 0.11428560000000232,
            "durationTicks": 192,
            "midi": 58,
            "name": "A#3",
            "ticks": 177360,
            "time": 105.571323,
            "velocity": 0.8267716535433071
          },
          {
            "duration": 0.11428559999998811,
            "durationTicks": 192,
            "midi": 57,
            "name": "A3",
            "ticks": 177600,
            "time": 105.71418000000001,
            "velocity": 0.8267716535433071
          },
          {
            "duration": 0.11428560000000232,
            "durationTicks": 192,
            "midi": 60,
            "name": "C4",
            "ticks": 177840,
            "time": 105.857037,
            "velocity": 0.8267716535433071
          },
          {
            "duration": 0.11428559999998811,
            "durationTicks": 192,
            "midi": 65,
            "name": "F4",
            "ticks": 178080,
            "time": 105.99989400000001,
            "velocity": 0.8267716535433071
          },
          {
            "duration": 0.11428560000000232,
            "durationTicks": 192,
            "midi": 63,
            "name": "D#4",
            "ticks": 178320,
            "time": 106.142751,
            "velocity": 0.8267716535433071
          },
          {
            "duration": 0.1999998000000005,
            "durationTicks": 336,
            "midi": 62,
            "name": "D4",
            "ticks": 178560,
            "time": 106.28560800000001,
            "velocity": 0.8267716535433071
          },
          {
            "duration": 0.1999998000000005,
            "durationTicks": 336,
            "midi": 70,
            "name": "A#4",
            "ticks": 179040,
            "time": 106.57132200000001,
            "velocity": 0.8267716535433071
          },
          {
            "duration": 0.1999998000000005,
            "durationTicks": 336,
            "midi": 70,
            "name": "A#4",
            "ticks": 179520,
            "time": 106.85703600000001,
            "velocity": 0.8267716535433071
          },
          {
            "duration": 0.1999998000000005,
            "durationTicks": 336,
            "midi": 75,
            "name": "D#5",
            "ticks": 180000,
            "time": 107.14275,
            "velocity": 0.8267716535433071
          },
          {
            "duration": 0.1999998000000005,
            "durationTicks": 336,
            "midi": 74,
            "name": "D5",
            "ticks": 180480,
            "time": 107.428464,
            "velocity": 0.8267716535433071
          },
          {
            "duration": 0.1999998000000005,
            "durationTicks": 336,
            "midi": 75,
            "name": "D#5",
            "ticks": 180960,
            "time": 107.714178,
            "velocity": 0.8267716535433071
          },
          {
            "duration": 0.1999998000000005,
            "durationTicks": 336,
            "midi": 74,
            "name": "D5",
            "ticks": 181440,
            "time": 107.999892,
            "velocity": 0.8267716535433071
          },
          {
            "duration": 0.1999997999999863,
            "durationTicks": 336,
            "midi": 60,
            "name": "C4",
            "ticks": 181920,
            "time": 108.28560600000002,
            "velocity": 0.8267716535433071
          },
          {
            "duration": 0.1999997999999863,
            "durationTicks": 336,
            "midi": 63,
            "name": "D#4",
            "ticks": 181920,
            "time": 108.28560600000002,
            "velocity": 0.8267716535433071
          },
          {
            "duration": 0.21428549999998836,
            "durationTicks": 360,
            "midi": 58,
            "name": "A#3",
            "ticks": 182400,
            "time": 108.57132000000001,
            "velocity": 0.8267716535433071
          },
          {
            "duration": 0.21428549999998836,
            "durationTicks": 360,
            "midi": 62,
            "name": "D4",
            "ticks": 182400,
            "time": 108.57132000000001,
            "velocity": 0.8267716535433071
          },
          {
            "duration": 0.10714274999999418,
            "durationTicks": 180,
            "midi": 65,
            "name": "F4",
            "ticks": 182880,
            "time": 108.85703400000001,
            "velocity": 0.8267716535433071
          },
          {
            "duration": 0.10714274999999418,
            "durationTicks": 180,
            "midi": 74,
            "name": "D5",
            "ticks": 182880,
            "time": 108.85703400000001,
            "velocity": 0.8267716535433071
          },
          {
            "duration": 0.10714275000000839,
            "durationTicks": 180,
            "midi": 65,
            "name": "F4",
            "ticks": 183120,
            "time": 108.999891,
            "velocity": 0.8267716535433071
          },
          {
            "duration": 0.10714275000000839,
            "durationTicks": 180,
            "midi": 74,
            "name": "D5",
            "ticks": 183120,
            "time": 108.999891,
            "velocity": 0.8267716535433071
          },
          {
            "duration": 0.21428550000000257,
            "durationTicks": 360,
            "midi": 65,
            "name": "F4",
            "ticks": 183360,
            "time": 109.14274800000001,
            "velocity": 0.8267716535433071
          },
          {
            "duration": 0.21428550000000257,
            "durationTicks": 360,
            "midi": 75,
            "name": "D#5",
            "ticks": 183360,
            "time": 109.14274800000001,
            "velocity": 0.8267716535433071
          },
          {
            "duration": 0.10714274999999418,
            "durationTicks": 180,
            "midi": 65,
            "name": "F4",
            "ticks": 183840,
            "time": 109.42846200000001,
            "velocity": 0.8267716535433071
          },
          {
            "duration": 0.10714274999999418,
            "durationTicks": 180,
            "midi": 75,
            "name": "D#5",
            "ticks": 183840,
            "time": 109.42846200000001,
            "velocity": 0.8267716535433071
          },
          {
            "duration": 0.10714275000000839,
            "durationTicks": 180,
            "midi": 65,
            "name": "F4",
            "ticks": 184080,
            "time": 109.571319,
            "velocity": 0.8267716535433071
          },
          {
            "duration": 0.10714275000000839,
            "durationTicks": 180,
            "midi": 75,
            "name": "D#5",
            "ticks": 184080,
            "time": 109.571319,
            "velocity": 0.8267716535433071
          },
          {
            "duration": 0.21428550000000257,
            "durationTicks": 360,
            "midi": 65,
            "name": "F4",
            "ticks": 184320,
            "time": 109.71417600000001,
            "velocity": 0.8267716535433071
          },
          {
            "duration": 0.21428550000000257,
            "durationTicks": 360,
            "midi": 74,
            "name": "D5",
            "ticks": 184320,
            "time": 109.71417600000001,
            "velocity": 0.8267716535433071
          },
          {
            "duration": 0.10714275000000839,
            "durationTicks": 180,
            "midi": 65,
            "name": "F4",
            "ticks": 184800,
            "time": 109.99989000000001,
            "velocity": 0.8267716535433071
          },
          {
            "duration": 0.10714275000000839,
            "durationTicks": 180,
            "midi": 74,
            "name": "D5",
            "ticks": 184800,
            "time": 109.99989000000001,
            "velocity": 0.8267716535433071
          },
          {
            "duration": 0.10714274999999418,
            "durationTicks": 180,
            "midi": 65,
            "name": "F4",
            "ticks": 185040,
            "time": 110.14274700000001,
            "velocity": 0.8267716535433071
          },
          {
            "duration": 0.10714274999999418,
            "durationTicks": 180,
            "midi": 74,
            "name": "D5",
            "ticks": 185040,
            "time": 110.14274700000001,
            "velocity": 0.8267716535433071
          },
          {
            "duration": 0.21428550000000257,
            "durationTicks": 360,
            "midi": 65,
            "name": "F4",
            "ticks": 185280,
            "time": 110.285604,
            "velocity": 0.8267716535433071
          },
          {
            "duration": 0.21428550000000257,
            "durationTicks": 360,
            "midi": 75,
            "name": "D#5",
            "ticks": 185280,
            "time": 110.285604,
            "velocity": 0.8267716535433071
          },
          {
            "duration": 0.10714275000000839,
            "durationTicks": 180,
            "midi": 65,
            "name": "F4",
            "ticks": 185760,
            "time": 110.571318,
            "velocity": 0.8267716535433071
          },
          {
            "duration": 0.10714275000000839,
            "durationTicks": 180,
            "midi": 75,
            "name": "D#5",
            "ticks": 185760,
            "time": 110.571318,
            "velocity": 0.8267716535433071
          },
          {
            "duration": 0.10714274999999418,
            "durationTicks": 180,
            "midi": 65,
            "name": "F4",
            "ticks": 186000,
            "time": 110.71417500000001,
            "velocity": 0.8267716535433071
          },
          {
            "duration": 0.10714274999999418,
            "durationTicks": 180,
            "midi": 75,
            "name": "D#5",
            "ticks": 186000,
            "time": 110.71417500000001,
            "velocity": 0.8267716535433071
          },
          {
            "duration": 0.21428550000000257,
            "durationTicks": 360,
            "midi": 65,
            "name": "F4",
            "ticks": 186240,
            "time": 110.857032,
            "velocity": 0.8267716535433071
          },
          {
            "duration": 0.21428550000000257,
            "durationTicks": 360,
            "midi": 74,
            "name": "D5",
            "ticks": 186240,
            "time": 110.857032,
            "velocity": 0.8267716535433071
          },
          {
            "duration": 0.10714275000000839,
            "durationTicks": 180,
            "midi": 65,
            "name": "F4",
            "ticks": 186720,
            "time": 111.142746,
            "velocity": 0.8267716535433071
          },
          {
            "duration": 0.10714275000000839,
            "durationTicks": 180,
            "midi": 74,
            "name": "D5",
            "ticks": 186720,
            "time": 111.142746,
            "velocity": 0.8267716535433071
          },
          {
            "duration": 0.10714274999999418,
            "durationTicks": 180,
            "midi": 65,
            "name": "F4",
            "ticks": 186960,
            "time": 111.28560300000001,
            "velocity": 0.8267716535433071
          },
          {
            "duration": 0.10714274999999418,
            "durationTicks": 180,
            "midi": 74,
            "name": "D5",
            "ticks": 186960,
            "time": 111.28560300000001,
            "velocity": 0.8267716535433071
          },
          {
            "duration": 0.21428549999998836,
            "durationTicks": 360,
            "midi": 65,
            "name": "F4",
            "ticks": 187200,
            "time": 111.42846000000002,
            "velocity": 0.8267716535433071
          },
          {
            "duration": 0.21428549999998836,
            "durationTicks": 360,
            "midi": 75,
            "name": "D#5",
            "ticks": 187200,
            "time": 111.42846000000002,
            "velocity": 0.8267716535433071
          },
          {
            "duration": 0.10714274999999418,
            "durationTicks": 180,
            "midi": 65,
            "name": "F4",
            "ticks": 187680,
            "time": 111.71417400000001,
            "velocity": 0.8267716535433071
          },
          {
            "duration": 0.10714274999999418,
            "durationTicks": 180,
            "midi": 75,
            "name": "D#5",
            "ticks": 187680,
            "time": 111.71417400000001,
            "velocity": 0.8267716535433071
          },
          {
            "duration": 0.10714275000000839,
            "durationTicks": 180,
            "midi": 65,
            "name": "F4",
            "ticks": 187920,
            "time": 111.857031,
            "velocity": 0.8267716535433071
          },
          {
            "duration": 0.10714275000000839,
            "durationTicks": 180,
            "midi": 75,
            "name": "D#5",
            "ticks": 187920,
            "time": 111.857031,
            "velocity": 0.8267716535433071
          },
          {
            "duration": 0.21428550000000257,
            "durationTicks": 360,
            "midi": 65,
            "name": "F4",
            "ticks": 188160,
            "time": 111.99988800000001,
            "velocity": 0.8267716535433071
          },
          {
            "duration": 0.21428550000000257,
            "durationTicks": 360,
            "midi": 74,
            "name": "D5",
            "ticks": 188160,
            "time": 111.99988800000001,
            "velocity": 0.8267716535433071
          },
          {
            "duration": 0.21428550000000257,
            "durationTicks": 360,
            "midi": 65,
            "name": "F4",
            "ticks": 188640,
            "time": 112.28560200000001,
            "velocity": 0.8267716535433071
          },
          {
            "duration": 0.21428550000000257,
            "durationTicks": 360,
            "midi": 75,
            "name": "D#5",
            "ticks": 188640,
            "time": 112.28560200000001,
            "velocity": 0.8267716535433071
          },
          {
            "duration": 0.21428550000000257,
            "durationTicks": 360,
            "midi": 65,
            "name": "F4",
            "ticks": 189120,
            "time": 112.57131600000001,
            "velocity": 0.8267716535433071
          },
          {
            "duration": 0.21428550000000257,
            "durationTicks": 360,
            "midi": 74,
            "name": "D5",
            "ticks": 189120,
            "time": 112.57131600000001,
            "velocity": 0.8267716535433071
          },
          {
            "duration": 0.21428550000000257,
            "durationTicks": 360,
            "midi": 65,
            "name": "F4",
            "ticks": 189600,
            "time": 112.85703000000001,
            "velocity": 0.8267716535433071
          },
          {
            "duration": 0.21428550000000257,
            "durationTicks": 360,
            "midi": 75,
            "name": "D#5",
            "ticks": 189600,
            "time": 112.85703000000001,
            "velocity": 0.8267716535433071
          },
          {
            "duration": 0.22857120000000464,
            "durationTicks": 384,
            "midi": 65,
            "name": "F4",
            "ticks": 190080,
            "time": 113.14274400000001,
            "velocity": 0.8267716535433071
          },
          {
            "duration": 0.22857120000000464,
            "durationTicks": 384,
            "midi": 74,
            "name": "D5",
            "ticks": 190080,
            "time": 113.14274400000001,
            "velocity": 0.8267716535433071
          },
          {
            "duration": 0.22857119999999043,
            "durationTicks": 384,
            "midi": 62,
            "name": "D4",
            "ticks": 192000,
            "time": 114.28560000000002,
            "velocity": 0.8267716535433071
          },
          {
            "duration": 0.22857119999999043,
            "durationTicks": 384,
            "midi": 72,
            "name": "C5",
            "ticks": 192000,
            "time": 114.28560000000002,
            "velocity": 0.8267716535433071
          },
          {
            "duration": 0.22857119999999043,
            "durationTicks": 384,
            "midi": 78,
            "name": "F#5",
            "ticks": 192000,
            "time": 114.28560000000002,
            "velocity": 0.8267716535433071
          },
          {
            "duration": 0.14285700000000645,
            "durationTicks": 240,
            "midi": 63,
            "name": "D#4",
            "ticks": 195360,
            "time": 116.28559800000001,
            "velocity": 0.5511811023622047
          },
          {
            "duration": 0.11428559999998811,
            "durationTicks": 192,
            "midi": 62,
            "name": "D4",
            "ticks": 195600,
            "time": 116.42845500000001,
            "velocity": 0.5511811023622047
          },
          {
            "duration": 0.22857120000000464,
            "durationTicks": 384,
            "midi": 62,
            "name": "D4",
            "ticks": 195840,
            "time": 116.571312,
            "velocity": 0.5511811023622047
          },
          {
            "duration": 0.14285700000000645,
            "durationTicks": 240,
            "midi": 63,
            "name": "D#4",
            "ticks": 196320,
            "time": 116.857026,
            "velocity": 0.5511811023622047
          },
          {
            "duration": 0.11428559999998811,
            "durationTicks": 192,
            "midi": 62,
            "name": "D4",
            "ticks": 196560,
            "time": 116.99988300000001,
            "velocity": 0.5511811023622047
          },
          {
            "duration": 0.22857120000000464,
            "durationTicks": 384,
            "midi": 62,
            "name": "D4",
            "ticks": 196800,
            "time": 117.14274,
            "velocity": 0.5511811023622047
          },
          {
            "duration": 0.14285699999999224,
            "durationTicks": 240,
            "midi": 63,
            "name": "D#4",
            "ticks": 197280,
            "time": 117.42845400000002,
            "velocity": 0.5511811023622047
          },
          {
            "duration": 0.11428559999998811,
            "durationTicks": 192,
            "midi": 62,
            "name": "D4",
            "ticks": 197520,
            "time": 117.57131100000001,
            "velocity": 0.5511811023622047
          },
          {
            "duration": 0.2857139999999987,
            "durationTicks": 480,
            "midi": 62,
            "name": "D4",
            "ticks": 197760,
            "time": 117.71416800000002,
            "velocity": 0.5511811023622047
          },
          {
            "duration": 0.22857120000000464,
            "durationTicks": 384,
            "midi": 70,
            "name": "A#4",
            "ticks": 198240,
            "time": 117.99988200000001,
            "velocity": 0.5511811023622047
          },
          {
            "duration": 0.14285699999999224,
            "durationTicks": 240,
            "midi": 70,
            "name": "A#4",
            "ticks": 199200,
            "time": 118.57131000000001,
            "velocity": 0.5511811023622047
          },
          {
            "duration": 0.11428560000000232,
            "durationTicks": 192,
            "midi": 69,
            "name": "A4",
            "ticks": 199440,
            "time": 118.714167,
            "velocity": 0.5511811023622047
          },
          {
            "duration": 0.22857120000000464,
            "durationTicks": 384,
            "midi": 67,
            "name": "G4",
            "ticks": 199680,
            "time": 118.85702400000001,
            "velocity": 0.5511811023622047
          },
          {
            "duration": 0.14285700000000645,
            "durationTicks": 240,
            "midi": 67,
            "name": "G4",
            "ticks": 200160,
            "time": 119.14273800000001,
            "velocity": 0.5511811023622047
          },
          {
            "duration": 0.11428559999998811,
            "durationTicks": 192,
            "midi": 65,
            "name": "F4",
            "ticks": 200400,
            "time": 119.28559500000001,
            "velocity": 0.5511811023622047
          },
          {
            "duration": 0.22857120000000464,
            "durationTicks": 384,
            "midi": 63,
            "name": "D#4",
            "ticks": 200640,
            "time": 119.42845200000001,
            "velocity": 0.5511811023622047
          },
          {
            "duration": 0.14285700000000645,
            "durationTicks": 240,
            "midi": 63,
            "name": "D#4",
            "ticks": 201120,
            "time": 119.714166,
            "velocity": 0.5511811023622047
          },
          {
            "duration": 0.11428559999998811,
            "durationTicks": 192,
            "midi": 62,
            "name": "D4",
            "ticks": 201360,
            "time": 119.85702300000001,
            "velocity": 0.5511811023622047
          },
          {
            "duration": 0.22857120000000464,
            "durationTicks": 384,
            "midi": 60,
            "name": "C4",
            "ticks": 201600,
            "time": 119.99988,
            "velocity": 0.5511811023622047
          },
          {
            "duration": 0.22857120000000464,
            "durationTicks": 384,
            "midi": 60,
            "name": "C4",
            "ticks": 202080,
            "time": 120.285594,
            "velocity": 0.5511811023622047
          },
          {
            "duration": 0.14285699999999224,
            "durationTicks": 240,
            "midi": 62,
            "name": "D4",
            "ticks": 203040,
            "time": 120.85702200000001,
            "velocity": 0.5511811023622047
          },
          {
            "duration": 0.11428560000000232,
            "durationTicks": 192,
            "midi": 60,
            "name": "C4",
            "ticks": 203280,
            "time": 120.999879,
            "velocity": 0.5511811023622047
          },
          {
            "duration": 0.22857120000000464,
            "durationTicks": 384,
            "midi": 60,
            "name": "C4",
            "ticks": 203520,
            "time": 121.14273600000001,
            "velocity": 0.5511811023622047
          },
          {
            "duration": 0.14285699999999224,
            "durationTicks": 240,
            "midi": 62,
            "name": "D4",
            "ticks": 204000,
            "time": 121.42845000000001,
            "velocity": 0.5511811023622047
          },
          {
            "duration": 0.11428560000000232,
            "durationTicks": 192,
            "midi": 60,
            "name": "C4",
            "ticks": 204240,
            "time": 121.571307,
            "velocity": 0.5511811023622047
          },
          {
            "duration": 0.22857120000000464,
            "durationTicks": 384,
            "midi": 60,
            "name": "C4",
            "ticks": 204480,
            "time": 121.71416400000001,
            "velocity": 0.5511811023622047
          },
          {
            "duration": 0.14285700000000645,
            "durationTicks": 240,
            "midi": 62,
            "name": "D4",
            "ticks": 204960,
            "time": 121.99987800000001,
            "velocity": 0.5511811023622047
          },
          {
            "duration": 0.11428559999998811,
            "durationTicks": 192,
            "midi": 60,
            "name": "C4",
            "ticks": 205200,
            "time": 122.14273500000002,
            "velocity": 0.5511811023622047
          },
          {
            "duration": 0.2857139999999987,
            "durationTicks": 480,
            "midi": 60,
            "name": "C4",
            "ticks": 205440,
            "time": 122.28559200000001,
            "velocity": 0.5511811023622047
          },
          {
            "duration": 0.22857120000000464,
            "durationTicks": 384,
            "midi": 69,
            "name": "A4",
            "ticks": 205920,
            "time": 122.571306,
            "velocity": 0.5511811023622047
          },
          {
            "duration": 0.14285700000000645,
            "durationTicks": 240,
            "midi": 69,
            "name": "A4",
            "ticks": 206880,
            "time": 123.142734,
            "velocity": 0.5511811023622047
          },
          {
            "duration": 0.11428559999998811,
            "durationTicks": 192,
            "midi": 67,
            "name": "G4",
            "ticks": 207120,
            "time": 123.28559100000001,
            "velocity": 0.5511811023622047
          },
          {
            "duration": 0.22857120000000464,
            "durationTicks": 384,
            "midi": 66,
            "name": "F#4",
            "ticks": 207360,
            "time": 123.428448,
            "velocity": 0.5511811023622047
          },
          {
            "duration": 0.14285699999999224,
            "durationTicks": 240,
            "midi": 66,
            "name": "F#4",
            "ticks": 207840,
            "time": 123.71416200000002,
            "velocity": 0.5511811023622047
          },
          {
            "duration": 0.11428560000000232,
            "durationTicks": 192,
            "midi": 63,
            "name": "D#4",
            "ticks": 208080,
            "time": 123.85701900000001,
            "velocity": 0.5511811023622047
          },
          {
            "duration": 0.22857120000000464,
            "durationTicks": 384,
            "midi": 62,
            "name": "D4",
            "ticks": 208320,
            "time": 123.99987600000001,
            "velocity": 0.5511811023622047
          },
          {
            "duration": 0.14285699999999224,
            "durationTicks": 240,
            "midi": 62,
            "name": "D4",
            "ticks": 208800,
            "time": 124.28559000000001,
            "velocity": 0.5511811023622047
          },
          {
            "duration": 0.11428560000000232,
            "durationTicks": 192,
            "midi": 60,
            "name": "C4",
            "ticks": 209040,
            "time": 124.428447,
            "velocity": 0.5511811023622047
          },
          {
            "duration": 0.22857120000000464,
            "durationTicks": 384,
            "midi": 58,
            "name": "A#3",
            "ticks": 209280,
            "time": 124.57130400000001,
            "velocity": 0.5511811023622047
          },
          {
            "duration": 0.22857120000000464,
            "durationTicks": 384,
            "midi": 58,
            "name": "A#3",
            "ticks": 209760,
            "time": 124.85701800000001,
            "velocity": 0.5511811023622047
          },
          {
            "duration": 0.14285700000000645,
            "durationTicks": 240,
            "midi": 70,
            "name": "A#4",
            "ticks": 210720,
            "time": 125.42844600000001,
            "velocity": 0.5511811023622047
          },
          {
            "duration": 0.11428559999998811,
            "durationTicks": 192,
            "midi": 69,
            "name": "A4",
            "ticks": 210960,
            "time": 125.57130300000001,
            "velocity": 0.5511811023622047
          },
          {
            "duration": 0.2857139999999987,
            "durationTicks": 480,
            "midi": 69,
            "name": "A4",
            "ticks": 211200,
            "time": 125.71416,
            "velocity": 0.5511811023622047
          },
          {
            "duration": 0.2857139999999987,
            "durationTicks": 480,
            "midi": 72,
            "name": "C5",
            "ticks": 211680,
            "time": 125.999874,
            "velocity": 0.5511811023622047
          },
          {
            "duration": 0.2857140000000129,
            "durationTicks": 480,
            "midi": 66,
            "name": "F#4",
            "ticks": 212160,
            "time": 126.285588,
            "velocity": 0.5511811023622047
          },
          {
            "duration": 0.22857119999999043,
            "durationTicks": 384,
            "midi": 69,
            "name": "A4",
            "ticks": 212640,
            "time": 126.57130200000002,
            "velocity": 0.5511811023622047
          },
          {
            "duration": 0.2857139999999987,
            "durationTicks": 480,
            "midi": 67,
            "name": "G4",
            "ticks": 213120,
            "time": 126.85701600000002,
            "velocity": 0.5511811023622047
          },
          {
            "duration": 0.22857120000000464,
            "durationTicks": 384,
            "midi": 62,
            "name": "D4",
            "ticks": 213600,
            "time": 127.14273000000001,
            "velocity": 0.5511811023622047
          },
          {
            "duration": 0.14285699999999224,
            "durationTicks": 240,
            "midi": 70,
            "name": "A#4",
            "ticks": 214560,
            "time": 127.71415800000001,
            "velocity": 0.5511811023622047
          },
          {
            "duration": 0.11428560000000232,
            "durationTicks": 192,
            "midi": 69,
            "name": "A4",
            "ticks": 214800,
            "time": 127.857015,
            "velocity": 0.5511811023622047
          },
          {
            "duration": 0.2857140000000129,
            "durationTicks": 480,
            "midi": 69,
            "name": "A4",
            "ticks": 215040,
            "time": 127.99987200000001,
            "velocity": 0.5511811023622047
          },
          {
            "duration": 0.2857139999999845,
            "durationTicks": 480,
            "midi": 72,
            "name": "C5",
            "ticks": 215520,
            "time": 128.28558600000002,
            "velocity": 0.5511811023622047
          },
          {
            "duration": 0.2857140000000129,
            "durationTicks": 480,
            "midi": 66,
            "name": "F#4",
            "ticks": 216000,
            "time": 128.5713,
            "velocity": 0.5511811023622047
          },
          {
            "duration": 0.22857120000000464,
            "durationTicks": 384,
            "midi": 69,
            "name": "A4",
            "ticks": 216480,
            "time": 128.85701400000002,
            "velocity": 0.5511811023622047
          },
          {
            "duration": 0.2857140000000129,
            "durationTicks": 480,
            "midi": 67,
            "name": "G4",
            "ticks": 216960,
            "time": 129.142728,
            "velocity": 0.5511811023622047
          },
          {
            "duration": 0.22857120000000464,
            "durationTicks": 384,
            "midi": 70,
            "name": "A#4",
            "ticks": 217440,
            "time": 129.42844200000002,
            "velocity": 0.5511811023622047
          },
          {
            "duration": 0.14285700000002066,
            "durationTicks": 240,
            "midi": 69,
            "name": "A4",
            "ticks": 217920,
            "time": 129.714156,
            "velocity": 0.5511811023622047
          },
          {
            "duration": 0.14285699999999224,
            "durationTicks": 240,
            "midi": 67,
            "name": "G4",
            "ticks": 218160,
            "time": 129.85701300000002,
            "velocity": 0.5511811023622047
          },
          {
            "duration": 0.14285699999999224,
            "durationTicks": 240,
            "midi": 65,
            "name": "F4",
            "ticks": 218400,
            "time": 129.99987000000002,
            "velocity": 0.5511811023622047
          },
          {
            "duration": 0.11428559999998811,
            "durationTicks": 192,
            "midi": 63,
            "name": "D#4",
            "ticks": 218640,
            "time": 130.142727,
            "velocity": 0.5511811023622047
          },
          {
            "duration": 1.1428560000000232,
            "durationTicks": 1920,
            "midi": 62,
            "name": "D4",
            "ticks": 218880,
            "time": 130.285584,
            "velocity": 0.5511811023622047
          },
          {
            "duration": 1.0857131999999865,
            "durationTicks": 1824,
            "midi": 61,
            "name": "C#4",
            "ticks": 220800,
            "time": 131.42844000000002,
            "velocity": 0.5511811023622047
          },
          {
            "duration": 0.4571424000000093,
            "durationTicks": 768,
            "midi": 62,
            "name": "D4",
            "ticks": 222720,
            "time": 132.57129600000002,
            "velocity": 0.5511811023622047
          },
          {
            "duration": 0.10714275000000839,
            "durationTicks": 180,
            "midi": 62,
            "name": "D4",
            "ticks": 224160,
            "time": 133.428438,
            "velocity": 0.8267716535433071
          },
          {
            "duration": 0.10714274999997997,
            "durationTicks": 180,
            "midi": 62,
            "name": "D4",
            "ticks": 224400,
            "time": 133.57129500000002,
            "velocity": 0.8267716535433071
          },
          {
            "duration": 0.4571424000000093,
            "durationTicks": 768,
            "midi": 62,
            "name": "D4",
            "ticks": 224640,
            "time": 133.714152,
            "velocity": 0.8267716535433071
          },
          {
            "duration": 0.10714274999997997,
            "durationTicks": 180,
            "midi": 62,
            "name": "D4",
            "ticks": 226080,
            "time": 134.57129400000002,
            "velocity": 0.8267716535433071
          },
          {
            "duration": 0.10714275000000839,
            "durationTicks": 180,
            "midi": 62,
            "name": "D4",
            "ticks": 226320,
            "time": 134.71415100000002,
            "velocity": 0.8267716535433071
          },
          {
            "duration": 0.4571424000000093,
            "durationTicks": 768,
            "midi": 62,
            "name": "D4",
            "ticks": 226560,
            "time": 134.857008,
            "velocity": 0.8267716535433071
          },
          {
            "duration": 0.10714274999997997,
            "durationTicks": 180,
            "midi": 62,
            "name": "D4",
            "ticks": 228000,
            "time": 135.71415000000002,
            "velocity": 0.8267716535433071
          },
          {
            "duration": 0.10714275000000839,
            "durationTicks": 180,
            "midi": 62,
            "name": "D4",
            "ticks": 228240,
            "time": 135.857007,
            "velocity": 0.8267716535433071
          },
          {
            "duration": 0.21428550000001678,
            "durationTicks": 360,
            "midi": 62,
            "name": "D4",
            "ticks": 228480,
            "time": 135.999864,
            "velocity": 0.8267716535433071
          },
          {
            "duration": 0.10714275000000839,
            "durationTicks": 180,
            "midi": 62,
            "name": "D4",
            "ticks": 228960,
            "time": 136.28557800000002,
            "velocity": 0.8267716535433071
          },
          {
            "duration": 0.10714275000000839,
            "durationTicks": 180,
            "midi": 62,
            "name": "D4",
            "ticks": 229200,
            "time": 136.428435,
            "velocity": 0.8267716535433071
          },
          {
            "duration": 0.21428550000001678,
            "durationTicks": 360,
            "midi": 62,
            "name": "D4",
            "ticks": 229440,
            "time": 136.571292,
            "velocity": 0.8267716535433071
          },
          {
            "duration": 0.10714275000000839,
            "durationTicks": 180,
            "midi": 62,
            "name": "D4",
            "ticks": 229920,
            "time": 136.857006,
            "velocity": 0.8267716535433071
          },
          {
            "duration": 0.10714275000000839,
            "durationTicks": 180,
            "midi": 62,
            "name": "D4",
            "ticks": 230160,
            "time": 136.999863,
            "velocity": 0.8267716535433071
          },
          {
            "duration": 0.4571424000000093,
            "durationTicks": 768,
            "midi": 62,
            "name": "D4",
            "ticks": 230400,
            "time": 137.14272,
            "velocity": 0.8267716535433071
          },
          {
            "duration": 0.14285699999999224,
            "durationTicks": 240,
            "midi": 63,
            "name": "D#4",
            "ticks": 231840,
            "time": 137.999862,
            "velocity": 0.5511811023622047
          },
          {
            "duration": 0.11428560000001653,
            "durationTicks": 192,
            "midi": 62,
            "name": "D4",
            "ticks": 232080,
            "time": 138.142719,
            "velocity": 0.5511811023622047
          },
          {
            "duration": 0.22857120000000464,
            "durationTicks": 384,
            "midi": 62,
            "name": "D4",
            "ticks": 232320,
            "time": 138.28557600000002,
            "velocity": 0.5511811023622047
          },
          {
            "duration": 0.14285700000002066,
            "durationTicks": 240,
            "midi": 63,
            "name": "D#4",
            "ticks": 232800,
            "time": 138.57129,
            "velocity": 0.5511811023622047
          },
          {
            "duration": 0.11428559999998811,
            "durationTicks": 192,
            "midi": 62,
            "name": "D4",
            "ticks": 233040,
            "time": 138.71414700000003,
            "velocity": 0.5511811023622047
          },
          {
            "duration": 0.22857120000000464,
            "durationTicks": 384,
            "midi": 62,
            "name": "D4",
            "ticks": 233280,
            "time": 138.85700400000002,
            "velocity": 0.5511811023622047
          },
          {
            "duration": 0.14285700000002066,
            "durationTicks": 240,
            "midi": 63,
            "name": "D#4",
            "ticks": 233760,
            "time": 139.142718,
            "velocity": 0.5511811023622047
          },
          {
            "duration": 0.11428559999998811,
            "durationTicks": 192,
            "midi": 62,
            "name": "D4",
            "ticks": 234000,
            "time": 139.28557500000002,
            "velocity": 0.5511811023622047
          },
          {
            "duration": 0.2857139999999845,
            "durationTicks": 480,
            "midi": 62,
            "name": "D4",
            "ticks": 234240,
            "time": 139.42843200000002,
            "velocity": 0.5511811023622047
          },
          {
            "duration": 0.22857120000000464,
            "durationTicks": 384,
            "midi": 70,
            "name": "A#4",
            "ticks": 234720,
            "time": 139.714146,
            "velocity": 0.5511811023622047
          },
          {
            "duration": 0.14285699999999224,
            "durationTicks": 240,
            "midi": 70,
            "name": "A#4",
            "ticks": 235680,
            "time": 140.28557400000003,
            "velocity": 0.5511811023622047
          },
          {
            "duration": 0.11428559999998811,
            "durationTicks": 192,
            "midi": 69,
            "name": "A4",
            "ticks": 235920,
            "time": 140.42843100000002,
            "velocity": 0.5511811023622047
          },
          {
            "duration": 0.22857120000000464,
            "durationTicks": 384,
            "midi": 67,
            "name": "G4",
            "ticks": 236160,
            "time": 140.571288,
            "velocity": 0.5511811023622047
          },
          {
            "duration": 0.14285699999999224,
            "durationTicks": 240,
            "midi": 67,
            "name": "G4",
            "ticks": 236640,
            "time": 140.85700200000002,
            "velocity": 0.5511811023622047
          },
          {
            "duration": 0.11428559999998811,
            "durationTicks": 192,
            "midi": 65,
            "name": "F4",
            "ticks": 236880,
            "time": 140.99985900000001,
            "velocity": 0.5511811023622047
          },
          {
            "duration": 0.22857120000000464,
            "durationTicks": 384,
            "midi": 63,
            "name": "D#4",
            "ticks": 237120,
            "time": 141.142716,
            "velocity": 0.5511811023622047
          },
          {
            "duration": 0.14285699999999224,
            "durationTicks": 240,
            "midi": 63,
            "name": "D#4",
            "ticks": 237600,
            "time": 141.42843000000002,
            "velocity": 0.5511811023622047
          },
          {
            "duration": 0.11428559999998811,
            "durationTicks": 192,
            "midi": 62,
            "name": "D4",
            "ticks": 237840,
            "time": 141.571287,
            "velocity": 0.5511811023622047
          },
          {
            "duration": 0.22857120000000464,
            "durationTicks": 384,
            "midi": 60,
            "name": "C4",
            "ticks": 238080,
            "time": 141.714144,
            "velocity": 0.5511811023622047
          },
          {
            "duration": 0.22857120000000464,
            "durationTicks": 384,
            "midi": 60,
            "name": "C4",
            "ticks": 238560,
            "time": 141.99985800000002,
            "velocity": 0.5511811023622047
          },
          {
            "duration": 0.14285699999999224,
            "durationTicks": 240,
            "midi": 65,
            "name": "F4",
            "ticks": 239520,
            "time": 142.57128600000001,
            "velocity": 0.5511811023622047
          },
          {
            "duration": 0.11428559999998811,
            "durationTicks": 192,
            "midi": 63,
            "name": "D#4",
            "ticks": 239760,
            "time": 142.714143,
            "velocity": 0.5511811023622047
          },
          {
            "duration": 0.22857120000000464,
            "durationTicks": 384,
            "midi": 63,
            "name": "D#4",
            "ticks": 240000,
            "time": 142.857,
            "velocity": 0.5511811023622047
          },
          {
            "duration": 0.14285699999999224,
            "durationTicks": 240,
            "midi": 65,
            "name": "F4",
            "ticks": 240480,
            "time": 143.142714,
            "velocity": 0.5511811023622047
          },
          {
            "duration": 0.11428559999998811,
            "durationTicks": 192,
            "midi": 63,
            "name": "D#4",
            "ticks": 240720,
            "time": 143.285571,
            "velocity": 0.5511811023622047
          },
          {
            "duration": 0.22857119999997622,
            "durationTicks": 384,
            "midi": 63,
            "name": "D#4",
            "ticks": 240960,
            "time": 143.42842800000003,
            "velocity": 0.5511811023622047
          },
          {
            "duration": 0.14285699999999224,
            "durationTicks": 240,
            "midi": 65,
            "name": "F4",
            "ticks": 241440,
            "time": 143.714142,
            "velocity": 0.5511811023622047
          },
          {
            "duration": 0.11428560000001653,
            "durationTicks": 192,
            "midi": 63,
            "name": "D#4",
            "ticks": 241680,
            "time": 143.856999,
            "velocity": 0.5511811023622047
          },
          {
            "duration": 0.2857139999999845,
            "durationTicks": 480,
            "midi": 63,
            "name": "D#4",
            "ticks": 241920,
            "time": 143.99985600000002,
            "velocity": 0.5511811023622047
          },
          {
            "duration": 0.22857120000000464,
            "durationTicks": 384,
            "midi": 72,
            "name": "C5",
            "ticks": 242400,
            "time": 144.28557,
            "velocity": 0.5511811023622047
          },
          {
            "duration": 0.14285700000002066,
            "durationTicks": 240,
            "midi": 72,
            "name": "C5",
            "ticks": 243360,
            "time": 144.856998,
            "velocity": 0.5511811023622047
          },
          {
            "duration": 0.11428559999998811,
            "durationTicks": 192,
            "midi": 70,
            "name": "A#4",
            "ticks": 243600,
            "time": 144.99985500000003,
            "velocity": 0.5511811023622047
          },
          {
            "duration": 0.22857120000000464,
            "durationTicks": 384,
            "midi": 69,
            "name": "A4",
            "ticks": 243840,
            "time": 145.14271200000002,
            "velocity": 0.5511811023622047
          },
          {
            "duration": 0.14285700000002066,
            "durationTicks": 240,
            "midi": 69,
            "name": "A4",
            "ticks": 244320,
            "time": 145.428426,
            "velocity": 0.5511811023622047
          },
          {
            "duration": 0.11428559999998811,
            "durationTicks": 192,
            "midi": 67,
            "name": "G4",
            "ticks": 244560,
            "time": 145.57128300000002,
            "velocity": 0.5511811023622047
          },
          {
            "duration": 0.22857120000000464,
            "durationTicks": 384,
            "midi": 65,
            "name": "F4",
            "ticks": 244800,
            "time": 145.71414000000001,
            "velocity": 0.5511811023622047
          },
          {
            "duration": 0.14285700000002066,
            "durationTicks": 240,
            "midi": 65,
            "name": "F4",
            "ticks": 245280,
            "time": 145.999854,
            "velocity": 0.5511811023622047
          },
          {
            "duration": 0.11428559999998811,
            "durationTicks": 192,
            "midi": 63,
            "name": "D#4",
            "ticks": 245520,
            "time": 146.14271100000002,
            "velocity": 0.5511811023622047
          },
          {
            "duration": 0.9142848000000185,
            "durationTicks": 1536,
            "midi": 62,
            "name": "D4",
            "ticks": 245760,
            "time": 146.285568,
            "velocity": 0.8267716535433071
          },
          {
            "duration": 0.9142848000000185,
            "durationTicks": 1536,
            "midi": 70,
            "name": "A#4",
            "ticks": 245760,
            "time": 146.285568,
            "velocity": 0.8267716535433071
          },
          {
            "duration": 0.6857135999999855,
            "durationTicks": 1152,
            "midi": 69,
            "name": "A4",
            "ticks": 247680,
            "time": 147.428424,
            "velocity": 0.8267716535433071
          },
          {
            "duration": 0.6857135999999855,
            "durationTicks": 1152,
            "midi": 77,
            "name": "F5",
            "ticks": 247680,
            "time": 147.428424,
            "velocity": 0.8267716535433071
          },
          {
            "duration": 0.07857135000000426,
            "durationTicks": 132,
            "midi": 77,
            "name": "F5",
            "ticks": 249360,
            "time": 148.428423,
            "velocity": 0.8267716535433071
          },
          {
            "duration": 0.15714270000000852,
            "durationTicks": 264,
            "midi": 75,
            "name": "D#5",
            "ticks": 249600,
            "time": 148.57128,
            "velocity": 0.8267716535433071
          },
          {
            "duration": 0.1571426999999801,
            "durationTicks": 264,
            "midi": 79,
            "name": "G5",
            "ticks": 250080,
            "time": 148.85699400000001,
            "velocity": 0.8267716535433071
          },
          {
            "duration": 0.15714270000000852,
            "durationTicks": 264,
            "midi": 82,
            "name": "A#5",
            "ticks": 250560,
            "time": 149.142708,
            "velocity": 0.8267716535433071
          },
          {
            "duration": 0.1571426999999801,
            "durationTicks": 264,
            "midi": 74,
            "name": "D5",
            "ticks": 251520,
            "time": 149.71413600000002,
            "velocity": 0.8267716535433071
          },
          {
            "duration": 0.1571426999999801,
            "durationTicks": 264,
            "midi": 77,
            "name": "F5",
            "ticks": 252000,
            "time": 149.99985,
            "velocity": 0.8267716535433071
          },
          {
            "duration": 0.1571426999999801,
            "durationTicks": 264,
            "midi": 82,
            "name": "A#5",
            "ticks": 252480,
            "time": 150.28556400000002,
            "velocity": 0.8267716535433071
          },
          {
            "duration": 0.07857135000000426,
            "durationTicks": 132,
            "midi": 74,
            "name": "D5",
            "ticks": 253200,
            "time": 150.714135,
            "velocity": 0.8267716535433071
          },
          {
            "duration": 0.1571426999999801,
            "durationTicks": 264,
            "midi": 72,
            "name": "C5",
            "ticks": 253440,
            "time": 150.85699200000002,
            "velocity": 0.8267716535433071
          },
          {
            "duration": 0.15714270000000852,
            "durationTicks": 264,
            "midi": 75,
            "name": "D#5",
            "ticks": 253920,
            "time": 151.142706,
            "velocity": 0.8267716535433071
          },
          {
            "duration": 0.1571426999999801,
            "durationTicks": 264,
            "midi": 79,
            "name": "G5",
            "ticks": 254400,
            "time": 151.42842000000002,
            "velocity": 0.8267716535433071
          },
          {
            "duration": 0.15714270000000852,
            "durationTicks": 264,
            "midi": 72,
            "name": "C5",
            "ticks": 254880,
            "time": 151.714134,
            "velocity": 0.8267716535433071
          },
          {
            "duration": 0.1571426999999801,
            "durationTicks": 264,
            "midi": 70,
            "name": "A#4",
            "ticks": 255360,
            "time": 151.99984800000001,
            "velocity": 0.8267716535433071
          },
          {
            "duration": 0.15714270000000852,
            "durationTicks": 264,
            "midi": 74,
            "name": "D5",
            "ticks": 255840,
            "time": 152.285562,
            "velocity": 0.8267716535433071
          },
          {
            "duration": 0.1571426999999801,
            "durationTicks": 264,
            "midi": 77,
            "name": "F5",
            "ticks": 256320,
            "time": 152.571276,
            "velocity": 0.8267716535433071
          },
          {
            "duration": 0.07857134999997584,
            "durationTicks": 132,
            "midi": 65,
            "name": "F4",
            "ticks": 257040,
            "time": 152.99984700000002,
            "velocity": 0.8267716535433071
          },
          {
            "duration": 0.11428559999998811,
            "durationTicks": 192,
            "midi": 64,
            "name": "E4",
            "ticks": 257280,
            "time": 153.142704,
            "velocity": 0.984251968503937
          },
          {
            "duration": 0.11428560000001653,
            "durationTicks": 192,
            "midi": 65,
            "name": "F4",
            "ticks": 257520,
            "time": 153.285561,
            "velocity": 0.8267716535433071
          },
          {
            "duration": 0.11428559999998811,
            "durationTicks": 192,
            "midi": 67,
            "name": "G4",
            "ticks": 257760,
            "time": 153.42841800000002,
            "velocity": 0.8267716535433071
          },
          {
            "duration": 0.11428559999998811,
            "durationTicks": 192,
            "midi": 69,
            "name": "A4",
            "ticks": 258000,
            "time": 153.571275,
            "velocity": 0.8267716535433071
          },
          {
            "duration": 0.11428559999998811,
            "durationTicks": 192,
            "midi": 70,
            "name": "A#4",
            "ticks": 258240,
            "time": 153.714132,
            "velocity": 0.8267716535433071
          },
          {
            "duration": 0.11428560000001653,
            "durationTicks": 192,
            "midi": 72,
            "name": "C5",
            "ticks": 258480,
            "time": 153.856989,
            "velocity": 0.8267716535433071
          },
          {
            "duration": 0.11428559999998811,
            "durationTicks": 192,
            "midi": 73,
            "name": "C#5",
            "ticks": 258720,
            "time": 153.99984600000002,
            "velocity": 0.8267716535433071
          },
          {
            "duration": 0.11428559999998811,
            "durationTicks": 192,
            "midi": 65,
            "name": "F4",
            "ticks": 258960,
            "time": 154.142703,
            "velocity": 0.8267716535433071
          },
          {
            "duration": 0.11428560000001653,
            "durationTicks": 192,
            "midi": 64,
            "name": "E4",
            "ticks": 259200,
            "time": 154.28556,
            "velocity": 0.984251968503937
          },
          {
            "duration": 0.11428559999998811,
            "durationTicks": 192,
            "midi": 65,
            "name": "F4",
            "ticks": 259440,
            "time": 154.42841700000002,
            "velocity": 0.8267716535433071
          },
          {
            "duration": 0.11428559999998811,
            "durationTicks": 192,
            "midi": 67,
            "name": "G4",
            "ticks": 259680,
            "time": 154.57127400000002,
            "velocity": 0.8267716535433071
          },
          {
            "duration": 0.11428559999998811,
            "durationTicks": 192,
            "midi": 69,
            "name": "A4",
            "ticks": 259920,
            "time": 154.714131,
            "velocity": 0.8267716535433071
          },
          {
            "duration": 0.11428560000001653,
            "durationTicks": 192,
            "midi": 70,
            "name": "A#4",
            "ticks": 260160,
            "time": 154.856988,
            "velocity": 0.8267716535433071
          },
          {
            "duration": 0.11428559999998811,
            "durationTicks": 192,
            "midi": 72,
            "name": "C5",
            "ticks": 260400,
            "time": 154.99984500000002,
            "velocity": 0.8267716535433071
          },
          {
            "duration": 0.11428559999998811,
            "durationTicks": 192,
            "midi": 73,
            "name": "C#5",
            "ticks": 260640,
            "time": 155.142702,
            "velocity": 0.8267716535433071
          },
          {
            "duration": 0.11428559999998811,
            "durationTicks": 192,
            "midi": 65,
            "name": "F4",
            "ticks": 260880,
            "time": 155.285559,
            "velocity": 0.8267716535433071
          },
          {
            "duration": 0.11428559999998811,
            "durationTicks": 192,
            "midi": 64,
            "name": "E4",
            "ticks": 261120,
            "time": 155.42841600000003,
            "velocity": 0.984251968503937
          },
          {
            "duration": 0.11428559999998811,
            "durationTicks": 192,
            "midi": 65,
            "name": "F4",
            "ticks": 261360,
            "time": 155.57127300000002,
            "velocity": 0.8267716535433071
          },
          {
            "duration": 0.11428559999998811,
            "durationTicks": 192,
            "midi": 67,
            "name": "G4",
            "ticks": 261600,
            "time": 155.71413,
            "velocity": 0.8267716535433071
          },
          {
            "duration": 0.11428560000001653,
            "durationTicks": 192,
            "midi": 69,
            "name": "A4",
            "ticks": 261840,
            "time": 155.856987,
            "velocity": 0.8267716535433071
          },
          {
            "duration": 0.11428559999998811,
            "durationTicks": 192,
            "midi": 70,
            "name": "A#4",
            "ticks": 262080,
            "time": 155.99984400000002,
            "velocity": 0.8267716535433071
          },
          {
            "duration": 0.11428559999998811,
            "durationTicks": 192,
            "midi": 72,
            "name": "C5",
            "ticks": 262320,
            "time": 156.14270100000002,
            "velocity": 0.8267716535433071
          },
          {
            "duration": 0.11428559999998811,
            "durationTicks": 192,
            "midi": 73,
            "name": "C#5",
            "ticks": 262560,
            "time": 156.285558,
            "velocity": 0.8267716535433071
          },
          {
            "duration": 0.11428560000001653,
            "durationTicks": 192,
            "midi": 65,
            "name": "F4",
            "ticks": 262800,
            "time": 156.428415,
            "velocity": 0.8267716535433071
          },
          {
            "duration": 0.11428559999998811,
            "durationTicks": 192,
            "midi": 64,
            "name": "E4",
            "ticks": 263040,
            "time": 156.57127200000002,
            "velocity": 0.984251968503937
          },
          {
            "duration": 0.11428559999998811,
            "durationTicks": 192,
            "midi": 65,
            "name": "F4",
            "ticks": 263280,
            "time": 156.714129,
            "velocity": 0.8267716535433071
          },
          {
            "duration": 0.11428559999998811,
            "durationTicks": 192,
            "midi": 67,
            "name": "G4",
            "ticks": 263520,
            "time": 156.856986,
            "velocity": 0.8267716535433071
          },
          {
            "duration": 0.11428559999998811,
            "durationTicks": 192,
            "midi": 69,
            "name": "A4",
            "ticks": 263760,
            "time": 156.99984300000003,
            "velocity": 0.8267716535433071
          },
          {
            "duration": 0.11428559999998811,
            "durationTicks": 192,
            "midi": 70,
            "name": "A#4",
            "ticks": 264000,
            "time": 157.14270000000002,
            "velocity": 0.8267716535433071
          },
          {
            "duration": 0.11428559999998811,
            "durationTicks": 192,
            "midi": 72,
            "name": "C5",
            "ticks": 264240,
            "time": 157.285557,
            "velocity": 0.8267716535433071
          },
          {
            "duration": 0.11428560000001653,
            "durationTicks": 192,
            "midi": 73,
            "name": "C#5",
            "ticks": 264480,
            "time": 157.428414,
            "velocity": 0.8267716535433071
          },
          {
            "duration": 0.11428559999998811,
            "durationTicks": 192,
            "midi": 64,
            "name": "E4",
            "ticks": 264720,
            "time": 157.57127100000002,
            "velocity": 0.8267716535433071
          },
          {
            "duration": 0.10714275000000839,
            "durationTicks": 180,
            "midi": 65,
            "name": "F4",
            "ticks": 264960,
            "time": 157.71412800000002,
            "velocity": 0.8267716535433071
          },
          {
            "duration": 0.10714275000000839,
            "durationTicks": 180,
            "midi": 77,
            "name": "F5",
            "ticks": 265200,
            "time": 157.856985,
            "velocity": 0.8267716535433071
          },
          {
            "duration": 0.10714275000000839,
            "durationTicks": 180,
            "midi": 77,
            "name": "F5",
            "ticks": 265440,
            "time": 157.999842,
            "velocity": 0.8267716535433071
          },
          {
            "duration": 0.10714274999997997,
            "durationTicks": 180,
            "midi": 77,
            "name": "F5",
            "ticks": 265680,
            "time": 158.14269900000002,
            "velocity": 0.8267716535433071
          },
          {
            "duration": 0.10714275000000839,
            "durationTicks": 180,
            "midi": 75,
            "name": "D#5",
            "ticks": 265920,
            "time": 158.285556,
            "velocity": 0.8267716535433071
          },
          {
            "duration": 0.10714275000000839,
            "durationTicks": 180,
            "midi": 75,
            "name": "D#5",
            "ticks": 266160,
            "time": 158.428413,
            "velocity": 0.8267716535433071
          },
          {
            "duration": 0.10714274999997997,
            "durationTicks": 180,
            "midi": 75,
            "name": "D#5",
            "ticks": 266400,
            "time": 158.57127000000003,
            "velocity": 0.8267716535433071
          },
          {
            "duration": 0.10714274999997997,
            "durationTicks": 180,
            "midi": 75,
            "name": "D#5",
            "ticks": 266640,
            "time": 158.71412700000002,
            "velocity": 0.8267716535433071
          },
          {
            "duration": 0.10714275000000839,
            "durationTicks": 180,
            "midi": 73,
            "name": "C#5",
            "ticks": 266880,
            "time": 158.856984,
            "velocity": 0.8267716535433071
          },
          {
            "duration": 0.10714275000000839,
            "durationTicks": 180,
            "midi": 73,
            "name": "C#5",
            "ticks": 267120,
            "time": 158.999841,
            "velocity": 0.8267716535433071
          },
          {
            "duration": 0.10714274999997997,
            "durationTicks": 180,
            "midi": 73,
            "name": "C#5",
            "ticks": 267360,
            "time": 159.14269800000002,
            "velocity": 0.8267716535433071
          },
          {
            "duration": 0.10714275000000839,
            "durationTicks": 180,
            "midi": 73,
            "name": "C#5",
            "ticks": 267600,
            "time": 159.28555500000002,
            "velocity": 0.8267716535433071
          },
          {
            "duration": 0.10714275000000839,
            "durationTicks": 180,
            "midi": 73,
            "name": "C#5",
            "ticks": 267840,
            "time": 159.428412,
            "velocity": 0.8267716535433071
          },
          {
            "duration": 0.10714275000000839,
            "durationTicks": 180,
            "midi": 73,
            "name": "C#5",
            "ticks": 268080,
            "time": 159.571269,
            "velocity": 0.8267716535433071
          },
          {
            "duration": 0.10714274999997997,
            "durationTicks": 180,
            "midi": 73,
            "name": "C#5",
            "ticks": 268320,
            "time": 159.71412600000002,
            "velocity": 0.8267716535433071
          },
          {
            "duration": 0.10714275000000839,
            "durationTicks": 180,
            "midi": 73,
            "name": "C#5",
            "ticks": 268560,
            "time": 159.856983,
            "velocity": 0.8267716535433071
          },
          {
            "duration": 0.10714275000000839,
            "durationTicks": 180,
            "midi": 72,
            "name": "C5",
            "ticks": 268800,
            "time": 159.99984,
            "velocity": 0.8267716535433071
          },
          {
            "duration": 0.10714274999997997,
            "durationTicks": 180,
            "midi": 72,
            "name": "C5",
            "ticks": 269040,
            "time": 160.14269700000003,
            "velocity": 0.8267716535433071
          },
          {
            "duration": 0.10714275000000839,
            "durationTicks": 180,
            "midi": 72,
            "name": "C5",
            "ticks": 269280,
            "time": 160.28555400000002,
            "velocity": 0.8267716535433071
          },
          {
            "duration": 0.10714275000000839,
            "durationTicks": 180,
            "midi": 72,
            "name": "C5",
            "ticks": 269520,
            "time": 160.428411,
            "velocity": 0.8267716535433071
          },
          {
            "duration": 0.10714275000000839,
            "durationTicks": 180,
            "midi": 75,
            "name": "D#5",
            "ticks": 269760,
            "time": 160.571268,
            "velocity": 0.8267716535433071
          },
          {
            "duration": 0.10714274999997997,
            "durationTicks": 180,
            "midi": 75,
            "name": "D#5",
            "ticks": 270000,
            "time": 160.71412500000002,
            "velocity": 0.8267716535433071
          },
          {
            "duration": 0.10714275000000839,
            "durationTicks": 180,
            "midi": 75,
            "name": "D#5",
            "ticks": 270240,
            "time": 160.85698200000002,
            "velocity": 0.8267716535433071
          },
          {
            "duration": 0.10714275000000839,
            "durationTicks": 180,
            "midi": 75,
            "name": "D#5",
            "ticks": 270480,
            "time": 160.999839,
            "velocity": 0.8267716535433071
          },
          {
            "duration": 0.10714275000000839,
            "durationTicks": 180,
            "midi": 73,
            "name": "C#5",
            "ticks": 270720,
            "time": 161.142696,
            "velocity": 0.8267716535433071
          },
          {
            "duration": 0.10714274999997997,
            "durationTicks": 180,
            "midi": 73,
            "name": "C#5",
            "ticks": 270960,
            "time": 161.28555300000002,
            "velocity": 0.8267716535433071
          },
          {
            "duration": 0.10714275000000839,
            "durationTicks": 180,
            "midi": 73,
            "name": "C#5",
            "ticks": 271200,
            "time": 161.42841,
            "velocity": 0.8267716535433071
          },
          {
            "duration": 0.10714275000000839,
            "durationTicks": 180,
            "midi": 73,
            "name": "C#5",
            "ticks": 271440,
            "time": 161.571267,
            "velocity": 0.8267716535433071
          },
          {
            "duration": 0.10714274999997997,
            "durationTicks": 180,
            "midi": 70,
            "name": "A#4",
            "ticks": 271680,
            "time": 161.71412400000003,
            "velocity": 0.8267716535433071
          },
          {
            "duration": 0.10714275000000839,
            "durationTicks": 180,
            "midi": 70,
            "name": "A#4",
            "ticks": 271920,
            "time": 161.85698100000002,
            "velocity": 0.8267716535433071
          },
          {
            "duration": 0.10714275000000839,
            "durationTicks": 180,
            "midi": 70,
            "name": "A#4",
            "ticks": 272160,
            "time": 161.999838,
            "velocity": 0.8267716535433071
          },
          {
            "duration": 0.10714275000000839,
            "durationTicks": 180,
            "midi": 70,
            "name": "A#4",
            "ticks": 272400,
            "time": 162.142695,
            "velocity": 0.8267716535433071
          },
          {
            "duration": 0.22857119999997622,
            "durationTicks": 384,
            "midi": 69,
            "name": "A4",
            "ticks": 272640,
            "time": 162.28555200000002,
            "velocity": 0.8267716535433071
          },
          {
            "duration": 0.22857119999997622,
            "durationTicks": 384,
            "midi": 57,
            "name": "A3",
            "ticks": 273600,
            "time": 162.85698000000002,
            "velocity": 0.7244094488188977
          },
          {
            "duration": 0.22857119999997622,
            "durationTicks": 384,
            "midi": 65,
            "name": "F4",
            "ticks": 273600,
            "time": 162.85698000000002,
            "velocity": 0.7244094488188977
          },
          {
            "duration": 0.8571420000000103,
            "durationTicks": 1440,
            "midi": 65,
            "name": "F4",
            "ticks": 276480,
            "time": 164.571264,
            "velocity": 0.4566929133858268
          },
          {
            "duration": 0.2857139999999845,
            "durationTicks": 480,
            "midi": 64,
            "name": "E4",
            "ticks": 277920,
            "time": 165.42840600000002,
            "velocity": 0.4566929133858268
          },
          {
            "duration": 0.22857120000000464,
            "durationTicks": 384,
            "midi": 63,
            "name": "D#4",
            "ticks": 278400,
            "time": 165.71412,
            "velocity": 0.4566929133858268
          },
          {
            "duration": 0.18571409999998423,
            "durationTicks": 312,
            "midi": 58,
            "name": "A#3",
            "ticks": 280800,
            "time": 167.14269000000002,
            "velocity": 0.4566929133858268
          },
          {
            "duration": 0.2857140000000129,
            "durationTicks": 480,
            "midi": 58,
            "name": "A#3",
            "ticks": 281280,
            "time": 167.428404,
            "velocity": 0.4566929133858268
          },
          {
            "duration": 0.22857119999997622,
            "durationTicks": 384,
            "midi": 60,
            "name": "C4",
            "ticks": 281760,
            "time": 167.714118,
            "velocity": 0.4566929133858268
          },
          {
            "duration": 0.4285709999999767,
            "durationTicks": 720,
            "midi": 58,
            "name": "A#3",
            "ticks": 282240,
            "time": 167.99983200000003,
            "velocity": 0.4566929133858268
          },
          {
            "duration": 0.14285700000002066,
            "durationTicks": 240,
            "midi": 60,
            "name": "C4",
            "ticks": 282960,
            "time": 168.428403,
            "velocity": 0.4566929133858268
          },
          {
            "duration": 0.22857119999997622,
            "durationTicks": 384,
            "midi": 57,
            "name": "A3",
            "ticks": 283200,
            "time": 168.57126000000002,
            "velocity": 0.4566929133858268
          },
          {
            "duration": 0.8571419999999819,
            "durationTicks": 1440,
            "midi": 67,
            "name": "G4",
            "ticks": 284160,
            "time": 169.14268800000002,
            "velocity": 0.4566929133858268
          },
          {
            "duration": 0.2857140000000129,
            "durationTicks": 480,
            "midi": 66,
            "name": "F#4",
            "ticks": 285600,
            "time": 169.99983,
            "velocity": 0.4566929133858268
          },
          {
            "duration": 0.2857139999999845,
            "durationTicks": 480,
            "midi": 65,
            "name": "F4",
            "ticks": 286080,
            "time": 170.28554400000002,
            "velocity": 0.4566929133858268
          },
          {
            "duration": 0.2857140000000129,
            "durationTicks": 480,
            "midi": 64,
            "name": "E4",
            "ticks": 286560,
            "time": 170.571258,
            "velocity": 0.4566929133858268
          },
          {
            "duration": 0.2857140000000129,
            "durationTicks": 480,
            "midi": 63,
            "name": "D#4",
            "ticks": 287040,
            "time": 170.856972,
            "velocity": 0.4566929133858268
          },
          {
            "duration": 0.22857119999997622,
            "durationTicks": 384,
            "midi": 62,
            "name": "D4",
            "ticks": 287520,
            "time": 171.14268600000003,
            "velocity": 0.4566929133858268
          },
          {
            "duration": 0.2857140000000129,
            "durationTicks": 480,
            "midi": 60,
            "name": "C4",
            "ticks": 288000,
            "time": 171.4284,
            "velocity": 0.4566929133858268
          },
          {
            "duration": 0.4571424000000093,
            "durationTicks": 768,
            "midi": 63,
            "name": "D#4",
            "ticks": 288480,
            "time": 171.71411400000002,
            "velocity": 0.4566929133858268
          },
          {
            "duration": 0.22857119999997622,
            "durationTicks": 384,
            "midi": 57,
            "name": "A3",
            "ticks": 289440,
            "time": 172.28554200000002,
            "velocity": 0.4566929133858268
          },
          {
            "duration": 0.22857120000000464,
            "durationTicks": 384,
            "midi": 58,
            "name": "A#3",
            "ticks": 289920,
            "time": 172.571256,
            "velocity": 0.4566929133858268
          },
          {
            "duration": 0.8571419999999819,
            "durationTicks": 1440,
            "midi": 63,
            "name": "D#4",
            "ticks": 293760,
            "time": 174.85696800000002,
            "velocity": 0.4566929133858268
          },
          {
            "duration": 0.07142849999999612,
            "durationTicks": 120,
            "midi": 65,
            "name": "F4",
            "ticks": 295200,
            "time": 175.71411,
            "velocity": 0.4566929133858268
          },
          {
            "duration": 0.07142850000002454,
            "durationTicks": 120,
            "midi": 63,
            "name": "D#4",
            "ticks": 295320,
            "time": 175.7855385,
            "velocity": 0.4566929133858268
          },
          {
            "duration": 0.07142849999999612,
            "durationTicks": 120,
            "midi": 62,
            "name": "D4",
            "ticks": 295440,
            "time": 175.85696700000003,
            "velocity": 0.4566929133858268
          },
          {
            "duration": 0.07142849999999612,
            "durationTicks": 120,
            "midi": 60,
            "name": "C4",
            "ticks": 295560,
            "time": 175.92839550000002,
            "velocity": 0.4566929133858268
          },
          {
            "duration": 0.22857119999997622,
            "durationTicks": 384,
            "midi": 58,
            "name": "A#3",
            "ticks": 295680,
            "time": 175.99982400000002,
            "velocity": 0.4566929133858268
          },
          {
            "duration": 1.1428559999999948,
            "durationTicks": 1920,
            "midi": 60,
            "name": "C4",
            "ticks": 299520,
            "time": 178.285536,
            "velocity": 0.5511811023622047
          },
          {
            "duration": 0.2857140000000129,
            "durationTicks": 480,
            "midi": 59,
            "name": "B3",
            "ticks": 301440,
            "time": 179.428392,
            "velocity": 0.5511811023622047
          },
          {
            "duration": 0.2857140000000129,
            "durationTicks": 480,
            "midi": 58,
            "name": "A#3",
            "ticks": 301920,
            "time": 179.71410600000002,
            "velocity": 0.5511811023622047
          },
          {
            "duration": 0.2857139999999845,
            "durationTicks": 480,
            "midi": 57,
            "name": "A3",
            "ticks": 302400,
            "time": 179.99982000000003,
            "velocity": 0.5511811023622047
          },
          {
            "duration": 0.22857119999997622,
            "durationTicks": 384,
            "midi": 56,
            "name": "G#3",
            "ticks": 302880,
            "time": 180.285534,
            "velocity": 0.5511811023622047
          },
          {
            "duration": 0.14285699999999224,
            "durationTicks": 240,
            "midi": 58,
            "name": "A#3",
            "ticks": 303360,
            "time": 180.57124800000003,
            "velocity": 0.4566929133858268
          },
          {
            "duration": 0.14285699999999224,
            "durationTicks": 240,
            "midi": 55,
            "name": "G3",
            "ticks": 303600,
            "time": 180.71410500000002,
            "velocity": 0.4566929133858268
          },
          {
            "duration": 0.14285699999999224,
            "durationTicks": 240,
            "midi": 58,
            "name": "A#3",
            "ticks": 303840,
            "time": 180.856962,
            "velocity": 0.4566929133858268
          },
          {
            "duration": 0.14285700000002066,
            "durationTicks": 240,
            "midi": 55,
            "name": "G3",
            "ticks": 304080,
            "time": 180.999819,
            "velocity": 0.4566929133858268
          },
          {
            "duration": 0.14285699999999224,
            "durationTicks": 240,
            "midi": 58,
            "name": "A#3",
            "ticks": 304320,
            "time": 181.14267600000002,
            "velocity": 0.4566929133858268
          },
          {
            "duration": 0.14285699999999224,
            "durationTicks": 240,
            "midi": 55,
            "name": "G3",
            "ticks": 304560,
            "time": 181.28553300000002,
            "velocity": 0.4566929133858268
          },
          {
            "duration": 0.14285700000002066,
            "durationTicks": 240,
            "midi": 56,
            "name": "G#3",
            "ticks": 304800,
            "time": 181.42839,
            "velocity": 0.4566929133858268
          },
          {
            "duration": 0.11428559999998811,
            "durationTicks": 192,
            "midi": 60,
            "name": "C4",
            "ticks": 305040,
            "time": 181.57124700000003,
            "velocity": 0.4566929133858268
          },
          {
            "duration": 0.14285699999999224,
            "durationTicks": 240,
            "midi": 58,
            "name": "A#3",
            "ticks": 305280,
            "time": 181.71410400000002,
            "velocity": 0.4566929133858268
          },
          {
            "duration": 0.14285699999999224,
            "durationTicks": 240,
            "midi": 55,
            "name": "G3",
            "ticks": 305520,
            "time": 181.856961,
            "velocity": 0.4566929133858268
          },
          {
            "duration": 0.14285700000002066,
            "durationTicks": 240,
            "midi": 58,
            "name": "A#3",
            "ticks": 305760,
            "time": 181.999818,
            "velocity": 0.4566929133858268
          },
          {
            "duration": 0.14285699999999224,
            "durationTicks": 240,
            "midi": 55,
            "name": "G3",
            "ticks": 306000,
            "time": 182.14267500000003,
            "velocity": 0.4566929133858268
          },
          {
            "duration": 0.14285699999999224,
            "durationTicks": 240,
            "midi": 58,
            "name": "A#3",
            "ticks": 306240,
            "time": 182.28553200000002,
            "velocity": 0.4566929133858268
          },
          {
            "duration": 0.14285699999999224,
            "durationTicks": 240,
            "midi": 55,
            "name": "G3",
            "ticks": 306480,
            "time": 182.428389,
            "velocity": 0.4566929133858268
          },
          {
            "duration": 0.14285700000002066,
            "durationTicks": 240,
            "midi": 56,
            "name": "G#3",
            "ticks": 306720,
            "time": 182.571246,
            "velocity": 0.4566929133858268
          },
          {
            "duration": 0.11428559999998811,
            "durationTicks": 192,
            "midi": 60,
            "name": "C4",
            "ticks": 306960,
            "time": 182.71410300000002,
            "velocity": 0.4566929133858268
          },
          {
            "duration": 0.14285699999999224,
            "durationTicks": 240,
            "midi": 58,
            "name": "A#3",
            "ticks": 307200,
            "time": 182.85696000000002,
            "velocity": 0.4566929133858268
          },
          {
            "duration": 0.14285700000002066,
            "durationTicks": 240,
            "midi": 55,
            "name": "G3",
            "ticks": 307440,
            "time": 182.999817,
            "velocity": 0.4566929133858268
          },
          {
            "duration": 0.14285699999999224,
            "durationTicks": 240,
            "midi": 58,
            "name": "A#3",
            "ticks": 307680,
            "time": 183.14267400000003,
            "velocity": 0.4566929133858268
          },
          {
            "duration": 0.14285699999999224,
            "durationTicks": 240,
            "midi": 55,
            "name": "G3",
            "ticks": 307920,
            "time": 183.28553100000002,
            "velocity": 0.4566929133858268
          },
          {
            "duration": 0.14285699999999224,
            "durationTicks": 240,
            "midi": 58,
            "name": "A#3",
            "ticks": 308160,
            "time": 183.428388,
            "velocity": 0.4566929133858268
          },
          {
            "duration": 0.14285700000002066,
            "durationTicks": 240,
            "midi": 55,
            "name": "G3",
            "ticks": 308400,
            "time": 183.571245,
            "velocity": 0.4566929133858268
          },
          {
            "duration": 0.14285699999999224,
            "durationTicks": 240,
            "midi": 56,
            "name": "G#3",
            "ticks": 308640,
            "time": 183.71410200000003,
            "velocity": 0.4566929133858268
          },
          {
            "duration": 0.11428559999998811,
            "durationTicks": 192,
            "midi": 60,
            "name": "C4",
            "ticks": 308880,
            "time": 183.85695900000002,
            "velocity": 0.4566929133858268
          },
          {
            "duration": 0.14285699999999224,
            "durationTicks": 240,
            "midi": 58,
            "name": "A#3",
            "ticks": 309120,
            "time": 183.999816,
            "velocity": 0.4566929133858268
          },
          {
            "duration": 0.14285700000002066,
            "durationTicks": 240,
            "midi": 55,
            "name": "G3",
            "ticks": 309360,
            "time": 184.142673,
            "velocity": 0.4566929133858268
          },
          {
            "duration": 0.14285699999999224,
            "durationTicks": 240,
            "midi": 58,
            "name": "A#3",
            "ticks": 309600,
            "time": 184.28553000000002,
            "velocity": 0.4566929133858268
          },
          {
            "duration": 0.14285699999999224,
            "durationTicks": 240,
            "midi": 55,
            "name": "G3",
            "ticks": 309840,
            "time": 184.42838700000001,
            "velocity": 0.4566929133858268
          },
          {
            "duration": 0.14285700000002066,
            "durationTicks": 240,
            "midi": 58,
            "name": "A#3",
            "ticks": 310080,
            "time": 184.571244,
            "velocity": 0.4566929133858268
          },
          {
            "duration": 0.14285699999999224,
            "durationTicks": 240,
            "midi": 55,
            "name": "G3",
            "ticks": 310320,
            "time": 184.71410100000003,
            "velocity": 0.4566929133858268
          },
          {
            "duration": 0.14285699999999224,
            "durationTicks": 240,
            "midi": 56,
            "name": "G#3",
            "ticks": 310560,
            "time": 184.85695800000002,
            "velocity": 0.4566929133858268
          },
          {
            "duration": 0.11428559999998811,
            "durationTicks": 192,
            "midi": 60,
            "name": "C4",
            "ticks": 310800,
            "time": 184.999815,
            "velocity": 0.4566929133858268
          },
          {
            "duration": 0.1285713000000328,
            "durationTicks": 216,
            "midi": 58,
            "name": "A#3",
            "ticks": 311040,
            "time": 185.142672,
            "velocity": 0.4566929133858268
          },
          {
            "duration": 0.12857130000000438,
            "durationTicks": 216,
            "midi": 70,
            "name": "A#4",
            "ticks": 311280,
            "time": 185.28552900000003,
            "velocity": 0.5511811023622047
          },
          {
            "duration": 0.12857130000000438,
            "durationTicks": 216,
            "midi": 70,
            "name": "A#4",
            "ticks": 311520,
            "time": 185.42838600000002,
            "velocity": 0.5748031496062992
          },
          {
            "duration": 0.12857130000000438,
            "durationTicks": 216,
            "midi": 70,
            "name": "A#4",
            "ticks": 311760,
            "time": 185.571243,
            "velocity": 0.6062992125984252
          },
          {
            "duration": 0.1285713000000328,
            "durationTicks": 216,
            "midi": 70,
            "name": "A#4",
            "ticks": 312000,
            "time": 185.7141,
            "velocity": 0.6299212598425197
          },
          {
            "duration": 0.12857130000000438,
            "durationTicks": 216,
            "midi": 70,
            "name": "A#4",
            "ticks": 312240,
            "time": 185.85695700000002,
            "velocity": 0.6614173228346457
          },
          {
            "duration": 0.12857130000000438,
            "durationTicks": 216,
            "midi": 70,
            "name": "A#4",
            "ticks": 312480,
            "time": 185.99981400000001,
            "velocity": 0.6850393700787402
          },
          {
            "duration": 0.1285713000000328,
            "durationTicks": 216,
            "midi": 70,
            "name": "A#4",
            "ticks": 312720,
            "time": 186.142671,
            "velocity": 0.7165354330708661
          },
          {
            "duration": 0.12857130000000438,
            "durationTicks": 216,
            "midi": 70,
            "name": "A#4",
            "ticks": 312960,
            "time": 186.28552800000003,
            "velocity": 0.7401574803149606
          },
          {
            "duration": 0.12857130000000438,
            "durationTicks": 216,
            "midi": 82,
            "name": "A#5",
            "ticks": 313200,
            "time": 186.42838500000002,
            "velocity": 0.7716535433070866
          },
          {
            "duration": 0.12857130000000438,
            "durationTicks": 216,
            "midi": 82,
            "name": "A#5",
            "ticks": 313440,
            "time": 186.571242,
            "velocity": 0.7952755905511811
          },
          {
            "duration": 0.1285713000000328,
            "durationTicks": 216,
            "midi": 82,
            "name": "A#5",
            "ticks": 313680,
            "time": 186.714099,
            "velocity": 0.8267716535433071
          },
          {
            "duration": 0.12857130000000438,
            "durationTicks": 216,
            "midi": 82,
            "name": "A#5",
            "ticks": 313920,
            "time": 186.85695600000003,
            "velocity": 0.8503937007874016
          },
          {
            "duration": 0.12857130000000438,
            "durationTicks": 216,
            "midi": 82,
            "name": "A#5",
            "ticks": 314160,
            "time": 186.99981300000002,
            "velocity": 0.8582677165354331
          },
          {
            "duration": 0.1285713000000328,
            "durationTicks": 216,
            "midi": 82,
            "name": "A#5",
            "ticks": 314400,
            "time": 187.14267,
            "velocity": 0.8582677165354331
          },
          {
            "duration": 0.1285713000000328,
            "durationTicks": 216,
            "midi": 82,
            "name": "A#5",
            "ticks": 314640,
            "time": 187.285527,
            "velocity": 0.8582677165354331
          },
          {
            "duration": 0.22857119999997622,
            "durationTicks": 384,
            "midi": 82,
            "name": "A#5",
            "ticks": 314880,
            "time": 187.42838400000002,
            "velocity": 0.8267716535433071
          },
          {
            "duration": 0.4571424000000093,
            "durationTicks": 768,
            "midi": 74,
            "name": "D5",
            "ticks": 315360,
            "time": 187.714098,
            "velocity": 0.8267716535433071
          },
          {
            "duration": 0.4571424000000093,
            "durationTicks": 768,
            "midi": 77,
            "name": "F5",
            "ticks": 315360,
            "time": 187.714098,
            "velocity": 0.8267716535433071
          },
          {
            "duration": 0.2857140000000129,
            "durationTicks": 480,
            "midi": 74,
            "name": "D5",
            "ticks": 316320,
            "time": 188.285526,
            "velocity": 0.8267716535433071
          },
          {
            "duration": 0.5142851999999891,
            "durationTicks": 864,
            "midi": 77,
            "name": "F5",
            "ticks": 316320,
            "time": 188.285526,
            "velocity": 0.8267716535433071
          },
          {
            "duration": 0.22857119999997622,
            "durationTicks": 384,
            "midi": 75,
            "name": "D#5",
            "ticks": 316800,
            "time": 188.57124000000002,
            "velocity": 0.8267716535433071
          },
          {
            "duration": 0.4571424000000093,
            "durationTicks": 768,
            "midi": 75,
            "name": "D#5",
            "ticks": 317280,
            "time": 188.856954,
            "velocity": 0.8267716535433071
          },
          {
            "duration": 0.4571424000000093,
            "durationTicks": 768,
            "midi": 77,
            "name": "F5",
            "ticks": 317280,
            "time": 188.856954,
            "velocity": 0.8267716535433071
          },
          {
            "duration": 0.22857119999997622,
            "durationTicks": 384,
            "midi": 75,
            "name": "D#5",
            "ticks": 318240,
            "time": 189.42838200000003,
            "velocity": 0.8267716535433071
          },
          {
            "duration": 0.22857119999997622,
            "durationTicks": 384,
            "midi": 77,
            "name": "F5",
            "ticks": 318240,
            "time": 189.42838200000003,
            "velocity": 0.8267716535433071
          },
          {
            "duration": 0.22857120000000464,
            "durationTicks": 384,
            "midi": 74,
            "name": "D5",
            "ticks": 318720,
            "time": 189.714096,
            "velocity": 0.7244094488188977
          },
          {
            "duration": 0.22857120000000464,
            "durationTicks": 384,
            "midi": 77,
            "name": "F5",
            "ticks": 318720,
            "time": 189.714096,
            "velocity": 0.7244094488188977
          },
          {
            "duration": 0.11428559999998811,
            "durationTicks": 192,
            "midi": 62,
            "name": "D4",
            "ticks": 319200,
            "time": 189.99981000000002,
            "velocity": 0.984251968503937
          },
          {
            "duration": 0.11428559999998811,
            "durationTicks": 192,
            "midi": 62,
            "name": "D4",
            "ticks": 319440,
            "time": 190.14266700000002,
            "velocity": 0.8267716535433071
          },
          {
            "duration": 0.11428559999998811,
            "durationTicks": 192,
            "midi": 62,
            "name": "D4",
            "ticks": 319680,
            "time": 190.285524,
            "velocity": 0.8267716535433071
          },
          {
            "duration": 0.11428560000001653,
            "durationTicks": 192,
            "midi": 62,
            "name": "D4",
            "ticks": 319920,
            "time": 190.428381,
            "velocity": 0.8267716535433071
          },
          {
            "duration": 0.11428559999998811,
            "durationTicks": 192,
            "midi": 63,
            "name": "D#4",
            "ticks": 320160,
            "time": 190.57123800000002,
            "velocity": 0.8267716535433071
          },
          {
            "duration": 0.11428559999998811,
            "durationTicks": 192,
            "midi": 63,
            "name": "D#4",
            "ticks": 320400,
            "time": 190.71409500000001,
            "velocity": 0.8267716535433071
          },
          {
            "duration": 0.11428560000001653,
            "durationTicks": 192,
            "midi": 64,
            "name": "E4",
            "ticks": 320640,
            "time": 190.856952,
            "velocity": 0.8267716535433071
          },
          {
            "duration": 0.11428559999998811,
            "durationTicks": 192,
            "midi": 64,
            "name": "E4",
            "ticks": 320880,
            "time": 190.99980900000003,
            "velocity": 0.8267716535433071
          },
          {
            "duration": 0.11428559999998811,
            "durationTicks": 192,
            "midi": 65,
            "name": "F4",
            "ticks": 321120,
            "time": 191.14266600000002,
            "velocity": 0.8267716535433071
          },
          {
            "duration": 0.11428559999998811,
            "durationTicks": 192,
            "midi": 65,
            "name": "F4",
            "ticks": 321360,
            "time": 191.285523,
            "velocity": 0.8267716535433071
          },
          {
            "duration": 0.11428560000001653,
            "durationTicks": 192,
            "midi": 66,
            "name": "F#4",
            "ticks": 321600,
            "time": 191.42838,
            "velocity": 0.8267716535433071
          },
          {
            "duration": 0.11428559999998811,
            "durationTicks": 192,
            "midi": 66,
            "name": "F#4",
            "ticks": 321840,
            "time": 191.57123700000002,
            "velocity": 0.8267716535433071
          },
          {
            "duration": 0.11428559999998811,
            "durationTicks": 192,
            "midi": 67,
            "name": "G4",
            "ticks": 322080,
            "time": 191.71409400000002,
            "velocity": 0.8267716535433071
          },
          {
            "duration": 0.11428559999998811,
            "durationTicks": 192,
            "midi": 67,
            "name": "G4",
            "ticks": 322320,
            "time": 191.856951,
            "velocity": 0.8267716535433071
          },
          {
            "duration": 0.22857119999997622,
            "durationTicks": 384,
            "midi": 68,
            "name": "G#4",
            "ticks": 322560,
            "time": 191.99980800000003,
            "velocity": 0.8267716535433071
          },
          {
            "duration": 0.057142800000036686,
            "durationTicks": 96,
            "midi": 68,
            "name": "G#4",
            "ticks": 323400,
            "time": 192.4998075,
            "velocity": 0.8267716535433071
          },
          {
            "duration": 0.22857119999997622,
            "durationTicks": 384,
            "midi": 67,
            "name": "G4",
            "ticks": 323520,
            "time": 192.57123600000003,
            "velocity": 0.8267716535433071
          },
          {
            "duration": 0.057142800000008265,
            "durationTicks": 96,
            "midi": 67,
            "name": "G4",
            "ticks": 324360,
            "time": 193.07123550000003,
            "velocity": 0.8267716535433071
          },
          {
            "duration": 0.22857119999997622,
            "durationTicks": 384,
            "midi": 75,
            "name": "D#5",
            "ticks": 324480,
            "time": 193.14266400000002,
            "velocity": 0.8267716535433071
          },
          {
            "duration": 0.057142800000008265,
            "durationTicks": 96,
            "midi": 75,
            "name": "D#5",
            "ticks": 325320,
            "time": 193.64266350000003,
            "velocity": 0.8267716535433071
          },
          {
            "duration": 0.22857119999997622,
            "durationTicks": 384,
            "midi": 74,
            "name": "D5",
            "ticks": 325440,
            "time": 193.71409200000002,
            "velocity": 0.8267716535433071
          },
          {
            "duration": 0.057142800000008265,
            "durationTicks": 96,
            "midi": 74,
            "name": "D5",
            "ticks": 326280,
            "time": 194.21409150000002,
            "velocity": 0.8267716535433071
          },
          {
            "duration": 0.6571421999999814,
            "durationTicks": 1104,
            "midi": 79,
            "name": "G5",
            "ticks": 326400,
            "time": 194.28552000000002,
            "velocity": 0.8267716535433071
          },
          {
            "duration": 0.08571419999998398,
            "durationTicks": 144,
            "midi": 77,
            "name": "F5",
            "ticks": 327600,
            "time": 194.999805,
            "velocity": 0.5511811023622047
          },
          {
            "duration": 0.08571419999998398,
            "durationTicks": 144,
            "midi": 75,
            "name": "D#5",
            "ticks": 327840,
            "time": 195.14266200000003,
            "velocity": 0.5511811023622047
          },
          {
            "duration": 0.08571419999998398,
            "durationTicks": 144,
            "midi": 74,
            "name": "D5",
            "ticks": 328080,
            "time": 195.28551900000002,
            "velocity": 0.5511811023622047
          },
          {
            "duration": 0.08571419999998398,
            "durationTicks": 144,
            "midi": 72,
            "name": "C5",
            "ticks": 328320,
            "time": 195.42837600000001,
            "velocity": 0.5511811023622047
          },
          {
            "duration": 0.08571419999998398,
            "durationTicks": 144,
            "midi": 70,
            "name": "A#4",
            "ticks": 328560,
            "time": 195.571233,
            "velocity": 0.5511811023622047
          },
          {
            "duration": 0.08571419999998398,
            "durationTicks": 144,
            "midi": 69,
            "name": "A4",
            "ticks": 328800,
            "time": 195.71409000000003,
            "velocity": 0.5511811023622047
          },
          {
            "duration": 0.08571419999998398,
            "durationTicks": 144,
            "midi": 67,
            "name": "G4",
            "ticks": 329040,
            "time": 195.85694700000002,
            "velocity": 0.5511811023622047
          },
          {
            "duration": 0.08571419999998398,
            "durationTicks": 144,
            "midi": 65,
            "name": "F4",
            "ticks": 329280,
            "time": 195.999804,
            "velocity": 0.5511811023622047
          },
          {
            "duration": 0.0857142000000124,
            "durationTicks": 144,
            "midi": 63,
            "name": "D#4",
            "ticks": 329520,
            "time": 196.142661,
            "velocity": 0.5511811023622047
          },
          {
            "duration": 0.08571419999998398,
            "durationTicks": 144,
            "midi": 62,
            "name": "D4",
            "ticks": 329760,
            "time": 196.28551800000002,
            "velocity": 0.5511811023622047
          },
          {
            "duration": 0.08571419999998398,
            "durationTicks": 144,
            "midi": 60,
            "name": "C4",
            "ticks": 330000,
            "time": 196.42837500000002,
            "velocity": 0.5511811023622047
          },
          {
            "duration": 0.14285700000002066,
            "durationTicks": 240,
            "midi": 62,
            "name": "D4",
            "ticks": 330240,
            "time": 196.571232,
            "velocity": 0.4566929133858268
          },
          {
            "duration": 0.14285699999999224,
            "durationTicks": 240,
            "midi": 65,
            "name": "F4",
            "ticks": 330480,
            "time": 196.71408900000003,
            "velocity": 0.4566929133858268
          },
          {
            "duration": 0.14285699999999224,
            "durationTicks": 240,
            "midi": 62,
            "name": "D4",
            "ticks": 330720,
            "time": 196.85694600000002,
            "velocity": 0.4566929133858268
          },
          {
            "duration": 0.14285699999999224,
            "durationTicks": 240,
            "midi": 65,
            "name": "F4",
            "ticks": 330960,
            "time": 196.999803,
            "velocity": 0.4566929133858268
          },
          {
            "duration": 0.14285700000002066,
            "durationTicks": 240,
            "midi": 62,
            "name": "D4",
            "ticks": 331200,
            "time": 197.14266,
            "velocity": 0.4566929133858268
          },
          {
            "duration": 0.14285699999999224,
            "durationTicks": 240,
            "midi": 65,
            "name": "F4",
            "ticks": 331440,
            "time": 197.28551700000003,
            "velocity": 0.4566929133858268
          },
          {
            "duration": 0.14285699999999224,
            "durationTicks": 240,
            "midi": 62,
            "name": "D4",
            "ticks": 331680,
            "time": 197.42837400000002,
            "velocity": 0.4566929133858268
          },
          {
            "duration": 0.11428559999998811,
            "durationTicks": 192,
            "midi": 65,
            "name": "F4",
            "ticks": 331920,
            "time": 197.571231,
            "velocity": 0.4566929133858268
          },
          {
            "duration": 0.14285700000002066,
            "durationTicks": 240,
            "midi": 63,
            "name": "D#4",
            "ticks": 332160,
            "time": 197.714088,
            "velocity": 0.4566929133858268
          },
          {
            "duration": 0.14285699999999224,
            "durationTicks": 240,
            "midi": 65,
            "name": "F4",
            "ticks": 332400,
            "time": 197.85694500000002,
            "velocity": 0.4566929133858268
          },
          {
            "duration": 0.14285699999999224,
            "durationTicks": 240,
            "midi": 63,
            "name": "D#4",
            "ticks": 332640,
            "time": 197.99980200000002,
            "velocity": 0.4566929133858268
          },
          {
            "duration": 0.14285700000002066,
            "durationTicks": 240,
            "midi": 65,
            "name": "F4",
            "ticks": 332880,
            "time": 198.142659,
            "velocity": 0.4566929133858268
          },
          {
            "duration": 0.14285699999999224,
            "durationTicks": 240,
            "midi": 60,
            "name": "C4",
            "ticks": 333120,
            "time": 198.28551600000003,
            "velocity": 0.4566929133858268
          },
          {
            "duration": 0.14285699999999224,
            "durationTicks": 240,
            "midi": 65,
            "name": "F4",
            "ticks": 333360,
            "time": 198.42837300000002,
            "velocity": 0.4566929133858268
          },
          {
            "duration": 0.14285699999999224,
            "durationTicks": 240,
            "midi": 60,
            "name": "C4",
            "ticks": 333600,
            "time": 198.57123,
            "velocity": 0.4566929133858268
          },
          {
            "duration": 0.11428560000001653,
            "durationTicks": 192,
            "midi": 65,
            "name": "F4",
            "ticks": 333840,
            "time": 198.714087,
            "velocity": 0.4566929133858268
          },
          {
            "duration": 0.14285699999999224,
            "durationTicks": 240,
            "midi": 58,
            "name": "A#3",
            "ticks": 334080,
            "time": 198.85694400000003,
            "velocity": 0.4566929133858268
          },
          {
            "duration": 0.14285699999999224,
            "durationTicks": 240,
            "midi": 65,
            "name": "F4",
            "ticks": 334320,
            "time": 198.99980100000002,
            "velocity": 0.4566929133858268
          },
          {
            "duration": 0.14285699999999224,
            "durationTicks": 240,
            "midi": 58,
            "name": "A#3",
            "ticks": 334560,
            "time": 199.142658,
            "velocity": 0.4566929133858268
          },
          {
            "duration": 0.14285700000002066,
            "durationTicks": 240,
            "midi": 65,
            "name": "F4",
            "ticks": 334800,
            "time": 199.285515,
            "velocity": 0.4566929133858268
          },
          {
            "duration": 0.14285699999999224,
            "durationTicks": 240,
            "midi": 58,
            "name": "A#3",
            "ticks": 335040,
            "time": 199.42837200000002,
            "velocity": 0.4566929133858268
          },
          {
            "duration": 0.14285699999999224,
            "durationTicks": 240,
            "midi": 65,
            "name": "F4",
            "ticks": 335280,
            "time": 199.57122900000002,
            "velocity": 0.4566929133858268
          },
          {
            "duration": 0.14285700000002066,
            "durationTicks": 240,
            "midi": 62,
            "name": "D4",
            "ticks": 335520,
            "time": 199.714086,
            "velocity": 0.4566929133858268
          },
          {
            "duration": 0.11428559999998811,
            "durationTicks": 192,
            "midi": 65,
            "name": "F4",
            "ticks": 335760,
            "time": 199.85694300000003,
            "velocity": 0.4566929133858268
          },
          {
            "duration": 0.14285699999999224,
            "durationTicks": 240,
            "midi": 63,
            "name": "D#4",
            "ticks": 336000,
            "time": 199.99980000000002,
            "velocity": 0.4566929133858268
          },
          {
            "duration": 0.14285699999999224,
            "durationTicks": 240,
            "midi": 65,
            "name": "F4",
            "ticks": 336240,
            "time": 200.142657,
            "velocity": 0.4566929133858268
          },
          {
            "duration": 0.14285700000002066,
            "durationTicks": 240,
            "midi": 63,
            "name": "D#4",
            "ticks": 336480,
            "time": 200.285514,
            "velocity": 0.4566929133858268
          },
          {
            "duration": 0.14285699999999224,
            "durationTicks": 240,
            "midi": 65,
            "name": "F4",
            "ticks": 336720,
            "time": 200.42837100000003,
            "velocity": 0.4566929133858268
          },
          {
            "duration": 0.14285699999999224,
            "durationTicks": 240,
            "midi": 60,
            "name": "C4",
            "ticks": 336960,
            "time": 200.57122800000002,
            "velocity": 0.4566929133858268
          },
          {
            "duration": 0.14285699999999224,
            "durationTicks": 240,
            "midi": 65,
            "name": "F4",
            "ticks": 337200,
            "time": 200.714085,
            "velocity": 0.4566929133858268
          },
          {
            "duration": 0.14285700000002066,
            "durationTicks": 240,
            "midi": 60,
            "name": "C4",
            "ticks": 337440,
            "time": 200.856942,
            "velocity": 0.4566929133858268
          },
          {
            "duration": 0.11428559999998811,
            "durationTicks": 192,
            "midi": 65,
            "name": "F4",
            "ticks": 337680,
            "time": 200.99979900000002,
            "velocity": 0.4566929133858268
          },
          {
            "duration": 0.14285699999999224,
            "durationTicks": 240,
            "midi": 58,
            "name": "A#3",
            "ticks": 337920,
            "time": 201.14265600000002,
            "velocity": 0.4566929133858268
          },
          {
            "duration": 0.14285700000002066,
            "durationTicks": 240,
            "midi": 65,
            "name": "F4",
            "ticks": 338160,
            "time": 201.285513,
            "velocity": 0.4566929133858268
          },
          {
            "duration": 0.14285699999999224,
            "durationTicks": 240,
            "midi": 58,
            "name": "A#3",
            "ticks": 338400,
            "time": 201.42837000000003,
            "velocity": 0.4566929133858268
          },
          {
            "duration": 0.14285699999999224,
            "durationTicks": 240,
            "midi": 65,
            "name": "F4",
            "ticks": 338640,
            "time": 201.57122700000002,
            "velocity": 0.4566929133858268
          },
          {
            "duration": 0.14285699999999224,
            "durationTicks": 240,
            "midi": 58,
            "name": "A#3",
            "ticks": 338880,
            "time": 201.714084,
            "velocity": 0.4566929133858268
          },
          {
            "duration": 0.14285700000002066,
            "durationTicks": 240,
            "midi": 65,
            "name": "F4",
            "ticks": 339120,
            "time": 201.856941,
            "velocity": 0.4566929133858268
          },
          {
            "duration": 0.14285699999999224,
            "durationTicks": 240,
            "midi": 74,
            "name": "D5",
            "ticks": 339360,
            "time": 201.99979800000003,
            "velocity": 0.4566929133858268
          },
          {
            "duration": 0.11428559999998811,
            "durationTicks": 192,
            "midi": 65,
            "name": "F4",
            "ticks": 339600,
            "time": 202.14265500000002,
            "velocity": 0.4566929133858268
          },
          {
            "duration": 0.11428559999998811,
            "durationTicks": 192,
            "midi": 72,
            "name": "C5",
            "ticks": 339840,
            "time": 202.285512,
            "velocity": 0.8267716535433071
          },
          {
            "duration": 0.11428559999998811,
            "durationTicks": 192,
            "midi": 78,
            "name": "F#5",
            "ticks": 339840,
            "time": 202.285512,
            "velocity": 0.8267716535433071
          },
          {
            "duration": 0.11428560000001653,
            "durationTicks": 192,
            "midi": 72,
            "name": "C5",
            "ticks": 340080,
            "time": 202.428369,
            "velocity": 0.8267716535433071
          },
          {
            "duration": 0.11428560000001653,
            "durationTicks": 192,
            "midi": 78,
            "name": "F#5",
            "ticks": 340080,
            "time": 202.428369,
            "velocity": 0.8267716535433071
          },
          {
            "duration": 0.11428559999998811,
            "durationTicks": 192,
            "midi": 72,
            "name": "C5",
            "ticks": 340320,
            "time": 202.57122600000002,
            "velocity": 0.8267716535433071
          },
          {
            "duration": 0.11428559999998811,
            "durationTicks": 192,
            "midi": 78,
            "name": "F#5",
            "ticks": 340320,
            "time": 202.57122600000002,
            "velocity": 0.8267716535433071
          },
          {
            "duration": 0.11428559999998811,
            "durationTicks": 192,
            "midi": 72,
            "name": "C5",
            "ticks": 340560,
            "time": 202.71408300000002,
            "velocity": 0.8267716535433071
          },
          {
            "duration": 0.11428559999998811,
            "durationTicks": 192,
            "midi": 78,
            "name": "F#5",
            "ticks": 340560,
            "time": 202.71408300000002,
            "velocity": 0.8267716535433071
          },
          {
            "duration": 0.11428559999998811,
            "durationTicks": 192,
            "midi": 72,
            "name": "C5",
            "ticks": 340800,
            "time": 202.85694,
            "velocity": 0.8267716535433071
          },
          {
            "duration": 0.11428559999998811,
            "durationTicks": 192,
            "midi": 78,
            "name": "F#5",
            "ticks": 340800,
            "time": 202.85694,
            "velocity": 0.8267716535433071
          },
          {
            "duration": 0.11428559999998811,
            "durationTicks": 192,
            "midi": 72,
            "name": "C5",
            "ticks": 341040,
            "time": 202.99979700000003,
            "velocity": 0.8267716535433071
          },
          {
            "duration": 0.11428559999998811,
            "durationTicks": 192,
            "midi": 78,
            "name": "F#5",
            "ticks": 341040,
            "time": 202.99979700000003,
            "velocity": 0.8267716535433071
          },
          {
            "duration": 0.11428559999998811,
            "durationTicks": 192,
            "midi": 72,
            "name": "C5",
            "ticks": 341280,
            "time": 203.14265400000002,
            "velocity": 0.8267716535433071
          },
          {
            "duration": 0.11428559999998811,
            "durationTicks": 192,
            "midi": 78,
            "name": "F#5",
            "ticks": 341280,
            "time": 203.14265400000002,
            "velocity": 0.8267716535433071
          },
          {
            "duration": 0.11428559999998811,
            "durationTicks": 192,
            "midi": 72,
            "name": "C5",
            "ticks": 341520,
            "time": 203.285511,
            "velocity": 0.8267716535433071
          },
          {
            "duration": 0.11428559999998811,
            "durationTicks": 192,
            "midi": 78,
            "name": "F#5",
            "ticks": 341520,
            "time": 203.285511,
            "velocity": 0.8267716535433071
          },
          {
            "duration": 0.4571424000000093,
            "durationTicks": 768,
            "midi": 70,
            "name": "A#4",
            "ticks": 341760,
            "time": 203.428368,
            "velocity": 0.8267716535433071
          },
          {
            "duration": 0.4571424000000093,
            "durationTicks": 768,
            "midi": 79,
            "name": "G5",
            "ticks": 341760,
            "time": 203.428368,
            "velocity": 0.8267716535433071
          },
          {
            "duration": 0.42857100000000514,
            "durationTicks": 720,
            "midi": 79,
            "name": "G5",
            "ticks": 342720,
            "time": 203.999796,
            "velocity": 0.8267716535433071
          },
          {
            "duration": 0.11428559999998811,
            "durationTicks": 192,
            "midi": 75,
            "name": "D#5",
            "ticks": 343440,
            "time": 204.428367,
            "velocity": 0.8267716535433071
          },
          {
            "duration": 0.4285709999999767,
            "durationTicks": 720,
            "midi": 74,
            "name": "D5",
            "ticks": 343680,
            "time": 204.57122400000003,
            "velocity": 0.8267716535433071
          },
          {
            "duration": 0.11428560000001653,
            "durationTicks": 192,
            "midi": 77,
            "name": "F5",
            "ticks": 344400,
            "time": 204.999795,
            "velocity": 0.8267716535433071
          },
          {
            "duration": 0.4285709999999767,
            "durationTicks": 720,
            "midi": 75,
            "name": "D#5",
            "ticks": 344640,
            "time": 205.14265200000003,
            "velocity": 0.8267716535433071
          },
          {
            "duration": 0.11428560000001653,
            "durationTicks": 192,
            "midi": 72,
            "name": "C5",
            "ticks": 345360,
            "time": 205.571223,
            "velocity": 0.8267716535433071
          },
          {
            "duration": 0.11428559999998811,
            "durationTicks": 192,
            "midi": 74,
            "name": "D5",
            "ticks": 345600,
            "time": 205.71408000000002,
            "velocity": 0.7244094488188977
          },
          {
            "duration": 0.14285699999999224,
            "durationTicks": 240,
            "midi": 65,
            "name": "F4",
            "ticks": 345840,
            "time": 205.85693700000002,
            "velocity": 0.5511811023622047
          },
          {
            "duration": 0.14285700000002066,
            "durationTicks": 240,
            "midi": 62,
            "name": "D4",
            "ticks": 346080,
            "time": 205.999794,
            "velocity": 0.5511811023622047
          },
          {
            "duration": 0.14285699999999224,
            "durationTicks": 240,
            "midi": 65,
            "name": "F4",
            "ticks": 346320,
            "time": 206.14265100000003,
            "velocity": 0.5511811023622047
          },
          {
            "duration": 0.14285699999999224,
            "durationTicks": 240,
            "midi": 62,
            "name": "D4",
            "ticks": 346560,
            "time": 206.28550800000002,
            "velocity": 0.5511811023622047
          },
          {
            "duration": 0.14285699999999224,
            "durationTicks": 240,
            "midi": 65,
            "name": "F4",
            "ticks": 346800,
            "time": 206.428365,
            "velocity": 0.5511811023622047
          },
          {
            "duration": 0.14285700000002066,
            "durationTicks": 240,
            "midi": 62,
            "name": "D4",
            "ticks": 347040,
            "time": 206.571222,
            "velocity": 0.5511811023622047
          },
          {
            "duration": 0.11428559999998811,
            "durationTicks": 192,
            "midi": 65,
            "name": "F4",
            "ticks": 347280,
            "time": 206.71407900000003,
            "velocity": 0.5511811023622047
          },
          {
            "duration": 0.14285699999999224,
            "durationTicks": 240,
            "midi": 60,
            "name": "C4",
            "ticks": 347520,
            "time": 206.85693600000002,
            "velocity": 0.5511811023622047
          },
          {
            "duration": 0.14285699999999224,
            "durationTicks": 240,
            "midi": 63,
            "name": "D#4",
            "ticks": 347760,
            "time": 206.999793,
            "velocity": 0.5511811023622047
          },
          {
            "duration": 0.14285700000002066,
            "durationTicks": 240,
            "midi": 60,
            "name": "C4",
            "ticks": 348000,
            "time": 207.14265,
            "velocity": 0.5511811023622047
          },
          {
            "duration": 0.14285699999999224,
            "durationTicks": 240,
            "midi": 63,
            "name": "D#4",
            "ticks": 348240,
            "time": 207.28550700000002,
            "velocity": 0.5511811023622047
          },
          {
            "duration": 0.14285699999999224,
            "durationTicks": 240,
            "midi": 60,
            "name": "C4",
            "ticks": 348480,
            "time": 207.42836400000002,
            "velocity": 0.5511811023622047
          },
          {
            "duration": 0.14285700000002066,
            "durationTicks": 240,
            "midi": 65,
            "name": "F4",
            "ticks": 348720,
            "time": 207.571221,
            "velocity": 0.5511811023622047
          },
          {
            "duration": 0.14285699999999224,
            "durationTicks": 240,
            "midi": 57,
            "name": "A3",
            "ticks": 348960,
            "time": 207.71407800000003,
            "velocity": 0.5511811023622047
          },
          {
            "duration": 0.11428559999998811,
            "durationTicks": 192,
            "midi": 65,
            "name": "F4",
            "ticks": 349200,
            "time": 207.85693500000002,
            "velocity": 0.5511811023622047
          },
          {
            "duration": 0.14285699999999224,
            "durationTicks": 240,
            "midi": 58,
            "name": "A#3",
            "ticks": 349440,
            "time": 207.999792,
            "velocity": 0.5511811023622047
          },
          {
            "duration": 0.14285700000002066,
            "durationTicks": 240,
            "midi": 65,
            "name": "F4",
            "ticks": 349680,
            "time": 208.142649,
            "velocity": 0.5511811023622047
          },
          {
            "duration": 0.14285699999999224,
            "durationTicks": 240,
            "midi": 58,
            "name": "A#3",
            "ticks": 349920,
            "time": 208.28550600000003,
            "velocity": 0.5511811023622047
          },
          {
            "duration": 0.14285699999999224,
            "durationTicks": 240,
            "midi": 65,
            "name": "F4",
            "ticks": 350160,
            "time": 208.42836300000002,
            "velocity": 0.5511811023622047
          },
          {
            "duration": 0.14285699999999224,
            "durationTicks": 240,
            "midi": 58,
            "name": "A#3",
            "ticks": 350400,
            "time": 208.57122,
            "velocity": 0.5511811023622047
          },
          {
            "duration": 0.14285700000002066,
            "durationTicks": 240,
            "midi": 65,
            "name": "F4",
            "ticks": 350640,
            "time": 208.714077,
            "velocity": 0.5511811023622047
          },
          {
            "duration": 0.14285699999999224,
            "durationTicks": 240,
            "midi": 62,
            "name": "D4",
            "ticks": 350880,
            "time": 208.85693400000002,
            "velocity": 0.5511811023622047
          },
          {
            "duration": 0.11428559999998811,
            "durationTicks": 192,
            "midi": 65,
            "name": "F4",
            "ticks": 351120,
            "time": 208.99979100000002,
            "velocity": 0.5511811023622047
          },
          {
            "duration": 0.14285700000002066,
            "durationTicks": 240,
            "midi": 60,
            "name": "C4",
            "ticks": 351360,
            "time": 209.142648,
            "velocity": 0.5511811023622047
          },
          {
            "duration": 0.14285699999999224,
            "durationTicks": 240,
            "midi": 63,
            "name": "D#4",
            "ticks": 351600,
            "time": 209.28550500000003,
            "velocity": 0.5511811023622047
          },
          {
            "duration": 0.14285699999999224,
            "durationTicks": 240,
            "midi": 60,
            "name": "C4",
            "ticks": 351840,
            "time": 209.42836200000002,
            "velocity": 0.5511811023622047
          },
          {
            "duration": 0.14285699999999224,
            "durationTicks": 240,
            "midi": 63,
            "name": "D#4",
            "ticks": 352080,
            "time": 209.571219,
            "velocity": 0.5511811023622047
          },
          {
            "duration": 0.14285700000002066,
            "durationTicks": 240,
            "midi": 60,
            "name": "C4",
            "ticks": 352320,
            "time": 209.714076,
            "velocity": 0.5511811023622047
          },
          {
            "duration": 0.14285699999999224,
            "durationTicks": 240,
            "midi": 65,
            "name": "F4",
            "ticks": 352560,
            "time": 209.85693300000003,
            "velocity": 0.5511811023622047
          },
          {
            "duration": 0.14285699999999224,
            "durationTicks": 240,
            "midi": 57,
            "name": "A3",
            "ticks": 352800,
            "time": 209.99979000000002,
            "velocity": 0.5511811023622047
          },
          {
            "duration": 0.11428559999998811,
            "durationTicks": 192,
            "midi": 65,
            "name": "F4",
            "ticks": 353040,
            "time": 210.142647,
            "velocity": 0.5511811023622047
          },
          {
            "duration": 0.14285700000002066,
            "durationTicks": 240,
            "midi": 58,
            "name": "A#3",
            "ticks": 353280,
            "time": 210.285504,
            "velocity": 0.5511811023622047
          },
          {
            "duration": 0.14285699999999224,
            "durationTicks": 240,
            "midi": 65,
            "name": "F4",
            "ticks": 353520,
            "time": 210.42836100000002,
            "velocity": 0.5511811023622047
          },
          {
            "duration": 0.14285699999999224,
            "durationTicks": 240,
            "midi": 58,
            "name": "A#3",
            "ticks": 353760,
            "time": 210.57121800000002,
            "velocity": 0.5511811023622047
          },
          {
            "duration": 0.14285700000002066,
            "durationTicks": 240,
            "midi": 65,
            "name": "F4",
            "ticks": 354000,
            "time": 210.714075,
            "velocity": 0.5511811023622047
          },
          {
            "duration": 0.14285699999999224,
            "durationTicks": 240,
            "midi": 58,
            "name": "A#3",
            "ticks": 354240,
            "time": 210.85693200000003,
            "velocity": 0.5511811023622047
          },
          {
            "duration": 0.14285699999999224,
            "durationTicks": 240,
            "midi": 65,
            "name": "F4",
            "ticks": 354480,
            "time": 210.99978900000002,
            "velocity": 0.5511811023622047
          },
          {
            "duration": 0.14285699999999224,
            "durationTicks": 240,
            "midi": 74,
            "name": "D5",
            "ticks": 354720,
            "time": 211.142646,
            "velocity": 0.5511811023622047
          },
          {
            "duration": 0.11428560000001653,
            "durationTicks": 192,
            "midi": 65,
            "name": "F4",
            "ticks": 354960,
            "time": 211.285503,
            "velocity": 0.5511811023622047
          },
          {
            "duration": 0.11428559999998811,
            "durationTicks": 192,
            "midi": 72,
            "name": "C5",
            "ticks": 355200,
            "time": 211.42836000000003,
            "velocity": 0.8267716535433071
          },
          {
            "duration": 0.11428559999998811,
            "durationTicks": 192,
            "midi": 78,
            "name": "F#5",
            "ticks": 355200,
            "time": 211.42836000000003,
            "velocity": 0.8267716535433071
          },
          {
            "duration": 0.11428559999998811,
            "durationTicks": 192,
            "midi": 72,
            "name": "C5",
            "ticks": 355440,
            "time": 211.57121700000002,
            "velocity": 0.8267716535433071
          },
          {
            "duration": 0.11428559999998811,
            "durationTicks": 192,
            "midi": 78,
            "name": "F#5",
            "ticks": 355440,
            "time": 211.57121700000002,
            "velocity": 0.8267716535433071
          },
          {
            "duration": 0.11428559999998811,
            "durationTicks": 192,
            "midi": 72,
            "name": "C5",
            "ticks": 355680,
            "time": 211.714074,
            "velocity": 0.8267716535433071
          },
          {
            "duration": 0.11428559999998811,
            "durationTicks": 192,
            "midi": 78,
            "name": "F#5",
            "ticks": 355680,
            "time": 211.714074,
            "velocity": 0.8267716535433071
          },
          {
            "duration": 0.11428559999998811,
            "durationTicks": 192,
            "midi": 72,
            "name": "C5",
            "ticks": 355920,
            "time": 211.85693100000003,
            "velocity": 0.8267716535433071
          },
          {
            "duration": 0.11428559999998811,
            "durationTicks": 192,
            "midi": 78,
            "name": "F#5",
            "ticks": 355920,
            "time": 211.85693100000003,
            "velocity": 0.8267716535433071
          },
          {
            "duration": 0.11428559999998811,
            "durationTicks": 192,
            "midi": 72,
            "name": "C5",
            "ticks": 356160,
            "time": 211.99978800000002,
            "velocity": 0.8267716535433071
          },
          {
            "duration": 0.11428559999998811,
            "durationTicks": 192,
            "midi": 78,
            "name": "F#5",
            "ticks": 356160,
            "time": 211.99978800000002,
            "velocity": 0.8267716535433071
          },
          {
            "duration": 0.11428559999998811,
            "durationTicks": 192,
            "midi": 72,
            "name": "C5",
            "ticks": 356400,
            "time": 212.14264500000002,
            "velocity": 0.8267716535433071
          },
          {
            "duration": 0.11428559999998811,
            "durationTicks": 192,
            "midi": 78,
            "name": "F#5",
            "ticks": 356400,
            "time": 212.14264500000002,
            "velocity": 0.8267716535433071
          },
          {
            "duration": 0.11428560000001653,
            "durationTicks": 192,
            "midi": 72,
            "name": "C5",
            "ticks": 356640,
            "time": 212.285502,
            "velocity": 0.8267716535433071
          },
          {
            "duration": 0.11428560000001653,
            "durationTicks": 192,
            "midi": 78,
            "name": "F#5",
            "ticks": 356640,
            "time": 212.285502,
            "velocity": 0.8267716535433071
          },
          {
            "duration": 0.11428559999998811,
            "durationTicks": 192,
            "midi": 72,
            "name": "C5",
            "ticks": 356880,
            "time": 212.42835900000003,
            "velocity": 0.8267716535433071
          },
          {
            "duration": 0.11428559999998811,
            "durationTicks": 192,
            "midi": 78,
            "name": "F#5",
            "ticks": 356880,
            "time": 212.42835900000003,
            "velocity": 0.8267716535433071
          },
          {
            "duration": 0.4571424000000093,
            "durationTicks": 768,
            "midi": 70,
            "name": "A#4",
            "ticks": 357120,
            "time": 212.57121600000002,
            "velocity": 0.8267716535433071
          },
          {
            "duration": 0.4571424000000093,
            "durationTicks": 768,
            "midi": 79,
            "name": "G5",
            "ticks": 357120,
            "time": 212.57121600000002,
            "velocity": 0.8267716535433071
          },
          {
            "duration": 0.42857100000000514,
            "durationTicks": 720,
            "midi": 79,
            "name": "G5",
            "ticks": 358080,
            "time": 213.14264400000002,
            "velocity": 0.8267716535433071
          },
          {
            "duration": 0.11428559999998811,
            "durationTicks": 192,
            "midi": 75,
            "name": "D#5",
            "ticks": 358800,
            "time": 213.57121500000002,
            "velocity": 0.8267716535433071
          },
          {
            "duration": 0.42857100000000514,
            "durationTicks": 720,
            "midi": 74,
            "name": "D5",
            "ticks": 359040,
            "time": 213.71407200000002,
            "velocity": 0.8267716535433071
          },
          {
            "duration": 0.11428559999998811,
            "durationTicks": 192,
            "midi": 77,
            "name": "F5",
            "ticks": 359760,
            "time": 214.14264300000002,
            "velocity": 0.8267716535433071
          },
          {
            "duration": 0.42857100000000514,
            "durationTicks": 720,
            "midi": 75,
            "name": "D#5",
            "ticks": 360000,
            "time": 214.2855,
            "velocity": 0.8267716535433071
          },
          {
            "duration": 0.11428559999998811,
            "durationTicks": 192,
            "midi": 72,
            "name": "C5",
            "ticks": 360720,
            "time": 214.71407100000002,
            "velocity": 0.8267716535433071
          },
          {
            "duration": 0.22857120000000464,
            "durationTicks": 384,
            "midi": 74,
            "name": "D5",
            "ticks": 360960,
            "time": 214.856928,
            "velocity": 0.8267716535433071
          },
          {
            "duration": 0.11428559999998811,
            "durationTicks": 192,
            "midi": 86,
            "name": "D6",
            "ticks": 361440,
            "time": 215.14264200000002,
            "velocity": 0.8267716535433071
          },
          {
            "duration": 0.11428559999998811,
            "durationTicks": 192,
            "midi": 84,
            "name": "C6",
            "ticks": 361680,
            "time": 215.28549900000002,
            "velocity": 0.8267716535433071
          },
          {
            "duration": 0.11428560000001653,
            "durationTicks": 192,
            "midi": 82,
            "name": "A#5",
            "ticks": 361920,
            "time": 215.428356,
            "velocity": 0.8267716535433071
          },
          {
            "duration": 0.11428559999998811,
            "durationTicks": 192,
            "midi": 81,
            "name": "A5",
            "ticks": 362160,
            "time": 215.57121300000003,
            "velocity": 0.8267716535433071
          },
          {
            "duration": 0.11428559999998811,
            "durationTicks": 192,
            "midi": 79,
            "name": "G5",
            "ticks": 362400,
            "time": 215.71407000000002,
            "velocity": 0.8267716535433071
          },
          {
            "duration": 0.11428559999998811,
            "durationTicks": 192,
            "midi": 77,
            "name": "F5",
            "ticks": 362640,
            "time": 215.856927,
            "velocity": 0.8267716535433071
          },
          {
            "duration": 0.11428560000001653,
            "durationTicks": 192,
            "midi": 75,
            "name": "D#5",
            "ticks": 362880,
            "time": 215.999784,
            "velocity": 0.8267716535433071
          },
          {
            "duration": 0.11428559999998811,
            "durationTicks": 192,
            "midi": 74,
            "name": "D5",
            "ticks": 363120,
            "time": 216.14264100000003,
            "velocity": 0.8267716535433071
          },
          {
            "duration": 0.11428559999998811,
            "durationTicks": 192,
            "midi": 72,
            "name": "C5",
            "ticks": 363360,
            "time": 216.28549800000002,
            "velocity": 0.8267716535433071
          },
          {
            "duration": 0.11428559999998811,
            "durationTicks": 192,
            "midi": 70,
            "name": "A#4",
            "ticks": 363600,
            "time": 216.428355,
            "velocity": 0.8267716535433071
          },
          {
            "duration": 0.11428559999998811,
            "durationTicks": 192,
            "midi": 69,
            "name": "A4",
            "ticks": 363840,
            "time": 216.57121200000003,
            "velocity": 0.8267716535433071
          },
          {
            "duration": 0.11428559999998811,
            "durationTicks": 192,
            "midi": 67,
            "name": "G4",
            "ticks": 364080,
            "time": 216.71406900000002,
            "velocity": 0.8267716535433071
          },
          {
            "duration": 0.11428559999998811,
            "durationTicks": 192,
            "midi": 65,
            "name": "F4",
            "ticks": 364320,
            "time": 216.85692600000002,
            "velocity": 0.8267716535433071
          },
          {
            "duration": 0.11428560000001653,
            "durationTicks": 192,
            "midi": 63,
            "name": "D#4",
            "ticks": 364560,
            "time": 216.999783,
            "velocity": 0.8267716535433071
          },
          {
            "duration": 0.1999998000000005,
            "durationTicks": 336,
            "midi": 62,
            "name": "D4",
            "ticks": 364800,
            "time": 217.14264000000003,
            "velocity": 0.8267716535433071
          },
          {
            "duration": 0.19999980000002893,
            "durationTicks": 336,
            "midi": 70,
            "name": "A#4",
            "ticks": 365280,
            "time": 217.428354,
            "velocity": 0.8267716535433071
          },
          {
            "duration": 0.1999998000000005,
            "durationTicks": 336,
            "midi": 70,
            "name": "A#4",
            "ticks": 365760,
            "time": 217.71406800000003,
            "velocity": 0.8267716535433071
          },
          {
            "duration": 0.19999980000002893,
            "durationTicks": 336,
            "midi": 60,
            "name": "C4",
            "ticks": 366240,
            "time": 217.999782,
            "velocity": 0.8267716535433071
          },
          {
            "duration": 0.19999980000002893,
            "durationTicks": 336,
            "midi": 63,
            "name": "D#4",
            "ticks": 366240,
            "time": 217.999782,
            "velocity": 0.8267716535433071
          },
          {
            "duration": 0.22857119999997622,
            "durationTicks": 384,
            "midi": 58,
            "name": "A#3",
            "ticks": 366720,
            "time": 218.28549600000002,
            "velocity": 0.8267716535433071
          },
          {
            "duration": 0.22857119999997622,
            "durationTicks": 384,
            "midi": 62,
            "name": "D4",
            "ticks": 366720,
            "time": 218.28549600000002,
            "velocity": 0.8267716535433071
          },
          {
            "duration": 0.11428560000001653,
            "durationTicks": 192,
            "midi": 74,
            "name": "D5",
            "ticks": 367200,
            "time": 218.57121,
            "velocity": 0.8267716535433071
          },
          {
            "duration": 0.11428559999998811,
            "durationTicks": 192,
            "midi": 72,
            "name": "C5",
            "ticks": 367440,
            "time": 218.71406700000003,
            "velocity": 0.8267716535433071
          },
          {
            "duration": 0.11428559999998811,
            "durationTicks": 192,
            "midi": 70,
            "name": "A#4",
            "ticks": 367680,
            "time": 218.85692400000002,
            "velocity": 0.8267716535433071
          },
          {
            "duration": 0.11428559999998811,
            "durationTicks": 192,
            "midi": 69,
            "name": "A4",
            "ticks": 367920,
            "time": 218.999781,
            "velocity": 0.8267716535433071
          },
          {
            "duration": 0.11428560000001653,
            "durationTicks": 192,
            "midi": 67,
            "name": "G4",
            "ticks": 368160,
            "time": 219.142638,
            "velocity": 0.8267716535433071
          },
          {
            "duration": 0.11428559999998811,
            "durationTicks": 192,
            "midi": 65,
            "name": "F4",
            "ticks": 368400,
            "time": 219.28549500000003,
            "velocity": 0.8267716535433071
          },
          {
            "duration": 0.11428559999998811,
            "durationTicks": 192,
            "midi": 63,
            "name": "D#4",
            "ticks": 368640,
            "time": 219.42835200000002,
            "velocity": 0.8267716535433071
          },
          {
            "duration": 0.11428559999998811,
            "durationTicks": 192,
            "midi": 62,
            "name": "D4",
            "ticks": 368880,
            "time": 219.571209,
            "velocity": 0.8267716535433071
          },
          {
            "duration": 0.11428559999998811,
            "durationTicks": 192,
            "midi": 60,
            "name": "C4",
            "ticks": 369120,
            "time": 219.71406600000003,
            "velocity": 0.8267716535433071
          },
          {
            "duration": 0.11428559999998811,
            "durationTicks": 192,
            "midi": 58,
            "name": "A#3",
            "ticks": 369360,
            "time": 219.85692300000002,
            "velocity": 0.8267716535433071
          },
          {
            "duration": 0.11428559999998811,
            "durationTicks": 192,
            "midi": 57,
            "name": "A3",
            "ticks": 369600,
            "time": 219.99978000000002,
            "velocity": 0.8267716535433071
          },
          {
            "duration": 0.11428560000001653,
            "durationTicks": 192,
            "midi": 60,
            "name": "C4",
            "ticks": 369840,
            "time": 220.142637,
            "velocity": 0.8267716535433071
          },
          {
            "duration": 0.11428559999998811,
            "durationTicks": 192,
            "midi": 65,
            "name": "F4",
            "ticks": 370080,
            "time": 220.28549400000003,
            "velocity": 0.8267716535433071
          },
          {
            "duration": 0.11428559999998811,
            "durationTicks": 192,
            "midi": 63,
            "name": "D#4",
            "ticks": 370320,
            "time": 220.42835100000002,
            "velocity": 0.8267716535433071
          },
          {
            "duration": 0.19999980000002893,
            "durationTicks": 336,
            "midi": 62,
            "name": "D4",
            "ticks": 370560,
            "time": 220.571208,
            "velocity": 0.8267716535433071
          },
          {
            "duration": 0.1999998000000005,
            "durationTicks": 336,
            "midi": 70,
            "name": "A#4",
            "ticks": 371040,
            "time": 220.85692200000003,
            "velocity": 0.8267716535433071
          },
          {
            "duration": 0.19999980000002893,
            "durationTicks": 336,
            "midi": 70,
            "name": "A#4",
            "ticks": 371520,
            "time": 221.142636,
            "velocity": 0.8267716535433071
          },
          {
            "duration": 0.1999998000000005,
            "durationTicks": 336,
            "midi": 75,
            "name": "D#5",
            "ticks": 372000,
            "time": 221.42835000000002,
            "velocity": 0.8267716535433071
          },
          {
            "duration": 0.19999980000002893,
            "durationTicks": 336,
            "midi": 74,
            "name": "D5",
            "ticks": 372480,
            "time": 221.714064,
            "velocity": 0.8267716535433071
          },
          {
            "duration": 0.1999998000000005,
            "durationTicks": 336,
            "midi": 75,
            "name": "D#5",
            "ticks": 372960,
            "time": 221.99977800000002,
            "velocity": 0.8267716535433071
          },
          {
            "duration": 0.19999980000002893,
            "durationTicks": 336,
            "midi": 74,
            "name": "D5",
            "ticks": 373440,
            "time": 222.285492,
            "velocity": 0.8267716535433071
          },
          {
            "duration": 0.1999998000000005,
            "durationTicks": 336,
            "midi": 60,
            "name": "C4",
            "ticks": 373920,
            "time": 222.57120600000002,
            "velocity": 0.8267716535433071
          },
          {
            "duration": 0.1999998000000005,
            "durationTicks": 336,
            "midi": 63,
            "name": "D#4",
            "ticks": 373920,
            "time": 222.57120600000002,
            "velocity": 0.8267716535433071
          },
          {
            "duration": 0.21428549999998836,
            "durationTicks": 360,
            "midi": 58,
            "name": "A#3",
            "ticks": 374400,
            "time": 222.85692000000003,
            "velocity": 0.8267716535433071
          },
          {
            "duration": 0.21428549999998836,
            "durationTicks": 360,
            "midi": 62,
            "name": "D4",
            "ticks": 374400,
            "time": 222.85692000000003,
            "velocity": 0.8267716535433071
          },
          {
            "duration": 0.10714275000000839,
            "durationTicks": 180,
            "midi": 65,
            "name": "F4",
            "ticks": 374880,
            "time": 223.14263400000002,
            "velocity": 0.8267716535433071
          },
          {
            "duration": 0.10714275000000839,
            "durationTicks": 180,
            "midi": 74,
            "name": "D5",
            "ticks": 374880,
            "time": 223.14263400000002,
            "velocity": 0.8267716535433071
          },
          {
            "duration": 0.10714275000000839,
            "durationTicks": 180,
            "midi": 65,
            "name": "F4",
            "ticks": 375120,
            "time": 223.285491,
            "velocity": 0.8267716535433071
          },
          {
            "duration": 0.10714275000000839,
            "durationTicks": 180,
            "midi": 74,
            "name": "D5",
            "ticks": 375120,
            "time": 223.285491,
            "velocity": 0.8267716535433071
          },
          {
            "duration": 0.21428549999998836,
            "durationTicks": 360,
            "midi": 65,
            "name": "F4",
            "ticks": 375360,
            "time": 223.42834800000003,
            "velocity": 0.8267716535433071
          },
          {
            "duration": 0.21428549999998836,
            "durationTicks": 360,
            "midi": 75,
            "name": "D#5",
            "ticks": 375360,
            "time": 223.42834800000003,
            "velocity": 0.8267716535433071
          },
          {
            "duration": 0.10714275000000839,
            "durationTicks": 180,
            "midi": 65,
            "name": "F4",
            "ticks": 375840,
            "time": 223.714062,
            "velocity": 0.8267716535433071
          },
          {
            "duration": 0.10714275000000839,
            "durationTicks": 180,
            "midi": 75,
            "name": "D#5",
            "ticks": 375840,
            "time": 223.714062,
            "velocity": 0.8267716535433071
          },
          {
            "duration": 0.10714275000000839,
            "durationTicks": 180,
            "midi": 65,
            "name": "F4",
            "ticks": 376080,
            "time": 223.856919,
            "velocity": 0.8267716535433071
          },
          {
            "duration": 0.10714275000000839,
            "durationTicks": 180,
            "midi": 75,
            "name": "D#5",
            "ticks": 376080,
            "time": 223.856919,
            "velocity": 0.8267716535433071
          },
          {
            "duration": 0.21428549999998836,
            "durationTicks": 360,
            "midi": 65,
            "name": "F4",
            "ticks": 376320,
            "time": 223.99977600000003,
            "velocity": 0.8267716535433071
          },
          {
            "duration": 0.21428549999998836,
            "durationTicks": 360,
            "midi": 74,
            "name": "D5",
            "ticks": 376320,
            "time": 223.99977600000003,
            "velocity": 0.8267716535433071
          },
          {
            "duration": 0.10714275000000839,
            "durationTicks": 180,
            "midi": 65,
            "name": "F4",
            "ticks": 376800,
            "time": 224.28549,
            "velocity": 0.8267716535433071
          },
          {
            "duration": 0.10714275000000839,
            "durationTicks": 180,
            "midi": 74,
            "name": "D5",
            "ticks": 376800,
            "time": 224.28549,
            "velocity": 0.8267716535433071
          },
          {
            "duration": 0.10714274999997997,
            "durationTicks": 180,
            "midi": 65,
            "name": "F4",
            "ticks": 377040,
            "time": 224.42834700000003,
            "velocity": 0.8267716535433071
          },
          {
            "duration": 0.10714274999997997,
            "durationTicks": 180,
            "midi": 74,
            "name": "D5",
            "ticks": 377040,
            "time": 224.42834700000003,
            "velocity": 0.8267716535433071
          },
          {
            "duration": 0.21428549999998836,
            "durationTicks": 360,
            "midi": 65,
            "name": "F4",
            "ticks": 377280,
            "time": 224.57120400000002,
            "velocity": 0.8267716535433071
          },
          {
            "duration": 0.21428549999998836,
            "durationTicks": 360,
            "midi": 75,
            "name": "D#5",
            "ticks": 377280,
            "time": 224.57120400000002,
            "velocity": 0.8267716535433071
          },
          {
            "duration": 0.10714275000000839,
            "durationTicks": 180,
            "midi": 65,
            "name": "F4",
            "ticks": 377760,
            "time": 224.856918,
            "velocity": 0.8267716535433071
          },
          {
            "duration": 0.10714275000000839,
            "durationTicks": 180,
            "midi": 75,
            "name": "D#5",
            "ticks": 377760,
            "time": 224.856918,
            "velocity": 0.8267716535433071
          },
          {
            "duration": 0.10714274999997997,
            "durationTicks": 180,
            "midi": 65,
            "name": "F4",
            "ticks": 378000,
            "time": 224.99977500000003,
            "velocity": 0.8267716535433071
          },
          {
            "duration": 0.10714274999997997,
            "durationTicks": 180,
            "midi": 75,
            "name": "D#5",
            "ticks": 378000,
            "time": 224.99977500000003,
            "velocity": 0.8267716535433071
          },
          {
            "duration": 0.21428549999998836,
            "durationTicks": 360,
            "midi": 65,
            "name": "F4",
            "ticks": 378240,
            "time": 225.14263200000002,
            "velocity": 0.8267716535433071
          },
          {
            "duration": 0.21428549999998836,
            "durationTicks": 360,
            "midi": 74,
            "name": "D5",
            "ticks": 378240,
            "time": 225.14263200000002,
            "velocity": 0.8267716535433071
          },
          {
            "duration": 0.10714275000000839,
            "durationTicks": 180,
            "midi": 65,
            "name": "F4",
            "ticks": 378720,
            "time": 225.428346,
            "velocity": 0.8267716535433071
          },
          {
            "duration": 0.10714275000000839,
            "durationTicks": 180,
            "midi": 74,
            "name": "D5",
            "ticks": 378720,
            "time": 225.428346,
            "velocity": 0.8267716535433071
          },
          {
            "duration": 0.10714274999997997,
            "durationTicks": 180,
            "midi": 65,
            "name": "F4",
            "ticks": 378960,
            "time": 225.57120300000003,
            "velocity": 0.8267716535433071
          },
          {
            "duration": 0.10714274999997997,
            "durationTicks": 180,
            "midi": 74,
            "name": "D5",
            "ticks": 378960,
            "time": 225.57120300000003,
            "velocity": 0.8267716535433071
          },
          {
            "duration": 0.21428549999998836,
            "durationTicks": 360,
            "midi": 65,
            "name": "F4",
            "ticks": 379200,
            "time": 225.71406000000002,
            "velocity": 0.8267716535433071
          },
          {
            "duration": 0.21428549999998836,
            "durationTicks": 360,
            "midi": 75,
            "name": "D#5",
            "ticks": 379200,
            "time": 225.71406000000002,
            "velocity": 0.8267716535433071
          },
          {
            "duration": 0.10714274999997997,
            "durationTicks": 180,
            "midi": 65,
            "name": "F4",
            "ticks": 379680,
            "time": 225.99977400000003,
            "velocity": 0.8267716535433071
          },
          {
            "duration": 0.10714274999997997,
            "durationTicks": 180,
            "midi": 75,
            "name": "D#5",
            "ticks": 379680,
            "time": 225.99977400000003,
            "velocity": 0.8267716535433071
          },
          {
            "duration": 0.10714275000000839,
            "durationTicks": 180,
            "midi": 65,
            "name": "F4",
            "ticks": 379920,
            "time": 226.14263100000002,
            "velocity": 0.8267716535433071
          },
          {
            "duration": 0.10714275000000839,
            "durationTicks": 180,
            "midi": 75,
            "name": "D#5",
            "ticks": 379920,
            "time": 226.14263100000002,
            "velocity": 0.8267716535433071
          },
          {
            "duration": 0.21428550000001678,
            "durationTicks": 360,
            "midi": 65,
            "name": "F4",
            "ticks": 380160,
            "time": 226.28548800000002,
            "velocity": 0.8267716535433071
          },
          {
            "duration": 0.21428550000001678,
            "durationTicks": 360,
            "midi": 74,
            "name": "D5",
            "ticks": 380160,
            "time": 226.28548800000002,
            "velocity": 0.8267716535433071
          },
          {
            "duration": 0.21428549999998836,
            "durationTicks": 360,
            "midi": 65,
            "name": "F4",
            "ticks": 380640,
            "time": 226.57120200000003,
            "velocity": 0.8267716535433071
          },
          {
            "duration": 0.21428549999998836,
            "durationTicks": 360,
            "midi": 75,
            "name": "D#5",
            "ticks": 380640,
            "time": 226.57120200000003,
            "velocity": 0.8267716535433071
          },
          {
            "duration": 0.21428550000001678,
            "durationTicks": 360,
            "midi": 65,
            "name": "F4",
            "ticks": 381120,
            "time": 226.856916,
            "velocity": 0.8267716535433071
          },
          {
            "duration": 0.21428550000001678,
            "durationTicks": 360,
            "midi": 74,
            "name": "D5",
            "ticks": 381120,
            "time": 226.856916,
            "velocity": 0.8267716535433071
          },
          {
            "duration": 0.21428549999998836,
            "durationTicks": 360,
            "midi": 65,
            "name": "F4",
            "ticks": 381600,
            "time": 227.14263000000003,
            "velocity": 0.8267716535433071
          },
          {
            "duration": 0.21428549999998836,
            "durationTicks": 360,
            "midi": 75,
            "name": "D#5",
            "ticks": 381600,
            "time": 227.14263000000003,
            "velocity": 0.8267716535433071
          },
          {
            "duration": 0.22857120000000464,
            "durationTicks": 384,
            "midi": 65,
            "name": "F4",
            "ticks": 382080,
            "time": 227.428344,
            "velocity": 0.8267716535433071
          },
          {
            "duration": 0.22857120000000464,
            "durationTicks": 384,
            "midi": 74,
            "name": "D5",
            "ticks": 382080,
            "time": 227.428344,
            "velocity": 0.8267716535433071
          },
          {
            "duration": 0.22857119999997622,
            "durationTicks": 384,
            "midi": 62,
            "name": "D4",
            "ticks": 384000,
            "time": 228.57120000000003,
            "velocity": 0.8267716535433071
          },
          {
            "duration": 0.22857119999997622,
            "durationTicks": 384,
            "midi": 72,
            "name": "C5",
            "ticks": 384000,
            "time": 228.57120000000003,
            "velocity": 0.8267716535433071
          },
          {
            "duration": 0.22857119999997622,
            "durationTicks": 384,
            "midi": 78,
            "name": "F#5",
            "ticks": 384000,
            "time": 228.57120000000003,
            "velocity": 0.8267716535433071
          },
          {
            "duration": 0.22857119999997622,
            "durationTicks": 384,
            "midi": 62,
            "name": "D4",
            "ticks": 385920,
            "time": 229.71405600000003,
            "velocity": 0.8267716535433071
          },
          {
            "duration": 0.22857119999997622,
            "durationTicks": 384,
            "midi": 70,
            "name": "A#4",
            "ticks": 385920,
            "time": 229.71405600000003,
            "velocity": 0.8267716535433071
          },
          {
            "duration": 0.22857119999997622,
            "durationTicks": 384,
            "midi": 79,
            "name": "G5",
            "ticks": 385920,
            "time": 229.71405600000003,
            "velocity": 0.8267716535433071
          },
          {
            "duration": 0.22857119999997622,
            "durationTicks": 384,
            "midi": 62,
            "name": "D4",
            "ticks": 386880,
            "time": 230.28548400000003,
            "velocity": 0.8267716535433071
          },
          {
            "duration": 0.22857119999997622,
            "durationTicks": 384,
            "midi": 71,
            "name": "B4",
            "ticks": 386880,
            "time": 230.28548400000003,
            "velocity": 0.8267716535433071
          },
          {
            "duration": 0.22857119999997622,
            "durationTicks": 384,
            "midi": 80,
            "name": "G#5",
            "ticks": 386880,
            "time": 230.28548400000003,
            "velocity": 0.8267716535433071
          },
          {
            "duration": 0.14285699999999224,
            "durationTicks": 240,
            "midi": 62,
            "name": "D4",
            "ticks": 391200,
            "time": 232.85691000000003,
            "velocity": 0.5511811023622047
          },
          {
            "duration": 0.11428559999998811,
            "durationTicks": 192,
            "midi": 61,
            "name": "C#4",
            "ticks": 391440,
            "time": 232.99976700000002,
            "velocity": 0.5511811023622047
          },
          {
            "duration": 0.22857120000000464,
            "durationTicks": 384,
            "midi": 61,
            "name": "C#4",
            "ticks": 391680,
            "time": 233.142624,
            "velocity": 0.5511811023622047
          },
          {
            "duration": 0.14285699999999224,
            "durationTicks": 240,
            "midi": 62,
            "name": "D4",
            "ticks": 392160,
            "time": 233.42833800000002,
            "velocity": 0.5511811023622047
          },
          {
            "duration": 0.11428559999998811,
            "durationTicks": 192,
            "midi": 61,
            "name": "C#4",
            "ticks": 392400,
            "time": 233.57119500000002,
            "velocity": 0.5511811023622047
          },
          {
            "duration": 0.22857120000000464,
            "durationTicks": 384,
            "midi": 61,
            "name": "C#4",
            "ticks": 392640,
            "time": 233.714052,
            "velocity": 0.5511811023622047
          },
          {
            "duration": 0.14285699999999224,
            "durationTicks": 240,
            "midi": 62,
            "name": "D4",
            "ticks": 393120,
            "time": 233.99976600000002,
            "velocity": 0.5511811023622047
          },
          {
            "duration": 0.11428559999998811,
            "durationTicks": 192,
            "midi": 61,
            "name": "C#4",
            "ticks": 393360,
            "time": 234.14262300000001,
            "velocity": 0.5511811023622047
          },
          {
            "duration": 0.2857140000000129,
            "durationTicks": 480,
            "midi": 61,
            "name": "C#4",
            "ticks": 393600,
            "time": 234.28548,
            "velocity": 0.5511811023622047
          },
          {
            "duration": 0.22857119999997622,
            "durationTicks": 384,
            "midi": 69,
            "name": "A4",
            "ticks": 394080,
            "time": 234.57119400000002,
            "velocity": 0.5511811023622047
          },
          {
            "duration": 0.14285699999999224,
            "durationTicks": 240,
            "midi": 69,
            "name": "A4",
            "ticks": 395040,
            "time": 235.14262200000002,
            "velocity": 0.5511811023622047
          },
          {
            "duration": 0.11428560000001653,
            "durationTicks": 192,
            "midi": 68,
            "name": "G#4",
            "ticks": 395280,
            "time": 235.285479,
            "velocity": 0.5511811023622047
          },
          {
            "duration": 0.22857119999997622,
            "durationTicks": 384,
            "midi": 66,
            "name": "F#4",
            "ticks": 395520,
            "time": 235.42833600000003,
            "velocity": 0.5511811023622047
          },
          {
            "duration": 0.14285699999999224,
            "durationTicks": 240,
            "midi": 66,
            "name": "F#4",
            "ticks": 396000,
            "time": 235.71405000000001,
            "velocity": 0.5511811023622047
          },
          {
            "duration": 0.11428560000001653,
            "durationTicks": 192,
            "midi": 64,
            "name": "E4",
            "ticks": 396240,
            "time": 235.856907,
            "velocity": 0.5511811023622047
          },
          {
            "duration": 0.22857119999997622,
            "durationTicks": 384,
            "midi": 62,
            "name": "D4",
            "ticks": 396480,
            "time": 235.99976400000003,
            "velocity": 0.5511811023622047
          },
          {
            "duration": 0.14285700000002066,
            "durationTicks": 240,
            "midi": 62,
            "name": "D4",
            "ticks": 396960,
            "time": 236.285478,
            "velocity": 0.5511811023622047
          },
          {
            "duration": 0.11428559999998811,
            "durationTicks": 192,
            "midi": 61,
            "name": "C#4",
            "ticks": 397200,
            "time": 236.42833500000003,
            "velocity": 0.5511811023622047
          },
          {
            "duration": 0.22857119999997622,
            "durationTicks": 384,
            "midi": 60,
            "name": "C4",
            "ticks": 397440,
            "time": 236.57119200000002,
            "velocity": 0.5511811023622047
          },
          {
            "duration": 0.22857120000000464,
            "durationTicks": 384,
            "midi": 60,
            "name": "C4",
            "ticks": 397920,
            "time": 236.856906,
            "velocity": 0.5511811023622047
          },
          {
            "duration": 0.14285700000002066,
            "durationTicks": 240,
            "midi": 61,
            "name": "C#4",
            "ticks": 398880,
            "time": 237.428334,
            "velocity": 0.5511811023622047
          },
          {
            "duration": 0.11428559999998811,
            "durationTicks": 192,
            "midi": 59,
            "name": "B3",
            "ticks": 399120,
            "time": 237.57119100000003,
            "velocity": 0.5511811023622047
          },
          {
            "duration": 0.22857119999997622,
            "durationTicks": 384,
            "midi": 59,
            "name": "B3",
            "ticks": 399360,
            "time": 237.71404800000002,
            "velocity": 0.5511811023622047
          },
          {
            "duration": 0.14285699999999224,
            "durationTicks": 240,
            "midi": 61,
            "name": "C#4",
            "ticks": 399840,
            "time": 237.99976200000003,
            "velocity": 0.5511811023622047
          },
          {
            "duration": 0.11428559999998811,
            "durationTicks": 192,
            "midi": 59,
            "name": "B3",
            "ticks": 400080,
            "time": 238.14261900000002,
            "velocity": 0.5511811023622047
          },
          {
            "duration": 0.22857119999997622,
            "durationTicks": 384,
            "midi": 59,
            "name": "B3",
            "ticks": 400320,
            "time": 238.28547600000002,
            "velocity": 0.5511811023622047
          },
          {
            "duration": 0.14285699999999224,
            "durationTicks": 240,
            "midi": 61,
            "name": "C#4",
            "ticks": 400800,
            "time": 238.57119000000003,
            "velocity": 0.5511811023622047
          },
          {
            "duration": 0.11428559999998811,
            "durationTicks": 192,
            "midi": 59,
            "name": "B3",
            "ticks": 401040,
            "time": 238.71404700000002,
            "velocity": 0.5511811023622047
          },
          {
            "duration": 0.2857140000000129,
            "durationTicks": 480,
            "midi": 59,
            "name": "B3",
            "ticks": 401280,
            "time": 238.85690400000001,
            "velocity": 0.5511811023622047
          },
          {
            "duration": 0.22857119999997622,
            "durationTicks": 384,
            "midi": 68,
            "name": "G#4",
            "ticks": 401760,
            "time": 239.14261800000003,
            "velocity": 0.5511811023622047
          },
          {
            "duration": 0.14285699999999224,
            "durationTicks": 240,
            "midi": 68,
            "name": "G#4",
            "ticks": 402720,
            "time": 239.71404600000002,
            "velocity": 0.5511811023622047
          },
          {
            "duration": 0.11428559999998811,
            "durationTicks": 192,
            "midi": 66,
            "name": "F#4",
            "ticks": 402960,
            "time": 239.85690300000002,
            "velocity": 0.5511811023622047
          },
          {
            "duration": 0.22857120000000464,
            "durationTicks": 384,
            "midi": 65,
            "name": "F4",
            "ticks": 403200,
            "time": 239.99976,
            "velocity": 0.5511811023622047
          },
          {
            "duration": 0.14285699999999224,
            "durationTicks": 240,
            "midi": 65,
            "name": "F4",
            "ticks": 403680,
            "time": 240.28547400000002,
            "velocity": 0.5511811023622047
          },
          {
            "duration": 0.11428559999998811,
            "durationTicks": 192,
            "midi": 62,
            "name": "D4",
            "ticks": 403920,
            "time": 240.42833100000001,
            "velocity": 0.5511811023622047
          },
          {
            "duration": 0.22857120000000464,
            "durationTicks": 384,
            "midi": 61,
            "name": "C#4",
            "ticks": 404160,
            "time": 240.571188,
            "velocity": 0.5511811023622047
          },
          {
            "duration": 0.14285699999999224,
            "durationTicks": 240,
            "midi": 61,
            "name": "C#4",
            "ticks": 404640,
            "time": 240.85690200000002,
            "velocity": 0.5511811023622047
          },
          {
            "duration": 0.11428559999998811,
            "durationTicks": 192,
            "midi": 59,
            "name": "B3",
            "ticks": 404880,
            "time": 240.999759,
            "velocity": 0.5511811023622047
          },
          {
            "duration": 0.22857119999997622,
            "durationTicks": 384,
            "midi": 58,
            "name": "A#3",
            "ticks": 405120,
            "time": 241.14261600000003,
            "velocity": 0.5511811023622047
          },
          {
            "duration": 0.22857119999997622,
            "durationTicks": 384,
            "midi": 58,
            "name": "A#3",
            "ticks": 405600,
            "time": 241.42833000000002,
            "velocity": 0.5511811023622047
          },
          {
            "duration": 0.14285699999999224,
            "durationTicks": 240,
            "midi": 59,
            "name": "B3",
            "ticks": 406560,
            "time": 241.999758,
            "velocity": 0.5511811023622047
          },
          {
            "duration": 0.11428560000001653,
            "durationTicks": 192,
            "midi": 57,
            "name": "A3",
            "ticks": 406800,
            "time": 242.142615,
            "velocity": 0.5511811023622047
          },
          {
            "duration": 0.22857119999997622,
            "durationTicks": 384,
            "midi": 57,
            "name": "A3",
            "ticks": 407040,
            "time": 242.28547200000003,
            "velocity": 0.5511811023622047
          },
          {
            "duration": 0.14285700000002066,
            "durationTicks": 240,
            "midi": 59,
            "name": "B3",
            "ticks": 407520,
            "time": 242.571186,
            "velocity": 0.5511811023622047
          },
          {
            "duration": 0.11428559999998811,
            "durationTicks": 192,
            "midi": 57,
            "name": "A3",
            "ticks": 407760,
            "time": 242.71404300000003,
            "velocity": 0.5511811023622047
          },
          {
            "duration": 0.22857119999997622,
            "durationTicks": 384,
            "midi": 57,
            "name": "A3",
            "ticks": 408000,
            "time": 242.85690000000002,
            "velocity": 0.5511811023622047
          },
          {
            "duration": 0.14285700000002066,
            "durationTicks": 240,
            "midi": 59,
            "name": "B3",
            "ticks": 408480,
            "time": 243.142614,
            "velocity": 0.5511811023622047
          },
          {
            "duration": 0.11428559999998811,
            "durationTicks": 192,
            "midi": 57,
            "name": "A3",
            "ticks": 408720,
            "time": 243.28547100000003,
            "velocity": 0.5511811023622047
          },
          {
            "duration": 0.2857139999999845,
            "durationTicks": 480,
            "midi": 57,
            "name": "A3",
            "ticks": 408960,
            "time": 243.42832800000002,
            "velocity": 0.5511811023622047
          },
          {
            "duration": 0.22857120000000464,
            "durationTicks": 384,
            "midi": 66,
            "name": "F#4",
            "ticks": 409440,
            "time": 243.714042,
            "velocity": 0.5511811023622047
          },
          {
            "duration": 0.14285699999999224,
            "durationTicks": 240,
            "midi": 66,
            "name": "F#4",
            "ticks": 410400,
            "time": 244.28547000000003,
            "velocity": 0.5511811023622047
          },
          {
            "duration": 0.11428559999998811,
            "durationTicks": 192,
            "midi": 64,
            "name": "E4",
            "ticks": 410640,
            "time": 244.42832700000002,
            "velocity": 0.5511811023622047
          },
          {
            "duration": 0.22857120000000464,
            "durationTicks": 384,
            "midi": 63,
            "name": "D#4",
            "ticks": 410880,
            "time": 244.57118400000002,
            "velocity": 0.5511811023622047
          },
          {
            "duration": 0.14285699999999224,
            "durationTicks": 240,
            "midi": 63,
            "name": "D#4",
            "ticks": 411360,
            "time": 244.85689800000003,
            "velocity": 0.5511811023622047
          },
          {
            "duration": 0.11428559999998811,
            "durationTicks": 192,
            "midi": 60,
            "name": "C4",
            "ticks": 411600,
            "time": 244.99975500000002,
            "velocity": 0.5511811023622047
          },
          {
            "duration": 0.22857120000000464,
            "durationTicks": 384,
            "midi": 59,
            "name": "B3",
            "ticks": 411840,
            "time": 245.142612,
            "velocity": 0.5511811023622047
          },
          {
            "duration": 0.08571419999998398,
            "durationTicks": 144,
            "midi": 78,
            "name": "F#5",
            "ticks": 412320,
            "time": 245.42832600000003,
            "velocity": 0.7244094488188977
          },
          {
            "duration": 0.08571419999998398,
            "durationTicks": 144,
            "midi": 69,
            "name": "A4",
            "ticks": 412560,
            "time": 245.57118300000002,
            "velocity": 0.7244094488188977
          },
          {
            "duration": 0.08571419999998398,
            "durationTicks": 144,
            "midi": 67,
            "name": "G4",
            "ticks": 412800,
            "time": 245.71404,
            "velocity": 0.7244094488188977
          },
          {
            "duration": 0.08571419999998398,
            "durationTicks": 144,
            "midi": 71,
            "name": "B4",
            "ticks": 413040,
            "time": 245.85689700000003,
            "velocity": 0.7244094488188977
          },
          {
            "duration": 0.08571419999998398,
            "durationTicks": 144,
            "midi": 76,
            "name": "E5",
            "ticks": 413280,
            "time": 245.99975400000002,
            "velocity": 0.7244094488188977
          },
          {
            "duration": 0.08571419999998398,
            "durationTicks": 144,
            "midi": 69,
            "name": "A4",
            "ticks": 413520,
            "time": 246.14261100000002,
            "velocity": 0.7244094488188977
          },
          {
            "duration": 0.0857142000000124,
            "durationTicks": 144,
            "midi": 66,
            "name": "F#4",
            "ticks": 413760,
            "time": 246.285468,
            "velocity": 0.7244094488188977
          },
          {
            "duration": 0.08571419999998398,
            "durationTicks": 144,
            "midi": 69,
            "name": "A4",
            "ticks": 414000,
            "time": 246.42832500000003,
            "velocity": 0.7244094488188977
          },
          {
            "duration": 0.08571419999998398,
            "durationTicks": 144,
            "midi": 75,
            "name": "D#5",
            "ticks": 414240,
            "time": 246.57118200000002,
            "velocity": 0.7244094488188977
          },
          {
            "duration": 0.08571419999998398,
            "durationTicks": 144,
            "midi": 66,
            "name": "F#4",
            "ticks": 414480,
            "time": 246.714039,
            "velocity": 0.7244094488188977
          },
          {
            "duration": 0.0857142000000124,
            "durationTicks": 144,
            "midi": 67,
            "name": "G4",
            "ticks": 414720,
            "time": 246.856896,
            "velocity": 0.7244094488188977
          },
          {
            "duration": 0.08571419999998398,
            "durationTicks": 144,
            "midi": 71,
            "name": "B4",
            "ticks": 414960,
            "time": 246.99975300000003,
            "velocity": 0.7244094488188977
          },
          {
            "duration": 0.08571419999998398,
            "durationTicks": 144,
            "midi": 73,
            "name": "C#5",
            "ticks": 415200,
            "time": 247.14261000000002,
            "velocity": 0.7244094488188977
          },
          {
            "duration": 0.08571419999998398,
            "durationTicks": 144,
            "midi": 75,
            "name": "D#5",
            "ticks": 415440,
            "time": 247.285467,
            "velocity": 0.7244094488188977
          },
          {
            "duration": 0.08571419999998398,
            "durationTicks": 144,
            "midi": 76,
            "name": "E5",
            "ticks": 415680,
            "time": 247.42832400000003,
            "velocity": 0.7244094488188977
          },
          {
            "duration": 0.08571419999998398,
            "durationTicks": 144,
            "midi": 71,
            "name": "B4",
            "ticks": 415920,
            "time": 247.57118100000002,
            "velocity": 0.7244094488188977
          },
          {
            "duration": 0.08571419999998398,
            "durationTicks": 144,
            "midi": 76,
            "name": "E5",
            "ticks": 416160,
            "time": 247.71403800000002,
            "velocity": 0.7244094488188977
          },
          {
            "duration": 0.0857142000000124,
            "durationTicks": 144,
            "midi": 78,
            "name": "F#5",
            "ticks": 416400,
            "time": 247.856895,
            "velocity": 0.7244094488188977
          },
          {
            "duration": 0.08571419999998398,
            "durationTicks": 144,
            "midi": 79,
            "name": "G5",
            "ticks": 416640,
            "time": 247.99975200000003,
            "velocity": 0.7244094488188977
          },
          {
            "duration": 0.08571419999998398,
            "durationTicks": 144,
            "midi": 76,
            "name": "E5",
            "ticks": 416880,
            "time": 248.14260900000002,
            "velocity": 0.7244094488188977
          },
          {
            "duration": 0.08571419999998398,
            "durationTicks": 144,
            "midi": 78,
            "name": "F#5",
            "ticks": 417120,
            "time": 248.285466,
            "velocity": 0.7244094488188977
          },
          {
            "duration": 0.08571419999998398,
            "durationTicks": 144,
            "midi": 80,
            "name": "G#5",
            "ticks": 417360,
            "time": 248.42832300000003,
            "velocity": 0.7244094488188977
          },
          {
            "duration": 0.08571419999998398,
            "durationTicks": 144,
            "midi": 81,
            "name": "A5",
            "ticks": 417600,
            "time": 248.57118000000003,
            "velocity": 0.7244094488188977
          },
          {
            "duration": 0.08571419999998398,
            "durationTicks": 144,
            "midi": 76,
            "name": "E5",
            "ticks": 417840,
            "time": 248.71403700000002,
            "velocity": 0.7244094488188977
          },
          {
            "duration": 0.08571419999998398,
            "durationTicks": 144,
            "midi": 81,
            "name": "A5",
            "ticks": 418080,
            "time": 248.856894,
            "velocity": 0.7244094488188977
          },
          {
            "duration": 0.08571419999998398,
            "durationTicks": 144,
            "midi": 83,
            "name": "B5",
            "ticks": 418320,
            "time": 248.99975100000003,
            "velocity": 0.7244094488188977
          },
          {
            "duration": 0.1999998000000005,
            "durationTicks": 336,
            "midi": 84,
            "name": "C6",
            "ticks": 418560,
            "time": 249.14260800000002,
            "velocity": 0.8267716535433071
          },
          {
            "duration": 0.19999980000002893,
            "durationTicks": 336,
            "midi": 69,
            "name": "A4",
            "ticks": 419040,
            "time": 249.428322,
            "velocity": 0.8267716535433071
          },
          {
            "duration": 0.14285699999999224,
            "durationTicks": 240,
            "midi": 70,
            "name": "A#4",
            "ticks": 420000,
            "time": 249.99975000000003,
            "velocity": 0.8267716535433071
          },
          {
            "duration": 0.11428559999998811,
            "durationTicks": 192,
            "midi": 69,
            "name": "A4",
            "ticks": 420240,
            "time": 250.14260700000003,
            "velocity": 0.8267716535433071
          },
          {
            "duration": 0.22857119999997622,
            "durationTicks": 384,
            "midi": 69,
            "name": "A4",
            "ticks": 420480,
            "time": 250.28546400000002,
            "velocity": 0.8267716535433071
          },
          {
            "duration": 0.14285699999999224,
            "durationTicks": 240,
            "midi": 70,
            "name": "A#4",
            "ticks": 420960,
            "time": 250.57117800000003,
            "velocity": 0.8267716535433071
          },
          {
            "duration": 0.11428559999998811,
            "durationTicks": 192,
            "midi": 69,
            "name": "A4",
            "ticks": 421200,
            "time": 250.71403500000002,
            "velocity": 0.8267716535433071
          },
          {
            "duration": 0.22857120000000464,
            "durationTicks": 384,
            "midi": 69,
            "name": "A4",
            "ticks": 421440,
            "time": 250.85689200000002,
            "velocity": 0.8267716535433071
          },
          {
            "duration": 0.14285699999999224,
            "durationTicks": 240,
            "midi": 70,
            "name": "A#4",
            "ticks": 421920,
            "time": 251.14260600000003,
            "velocity": 0.8267716535433071
          },
          {
            "duration": 0.11428559999998811,
            "durationTicks": 192,
            "midi": 69,
            "name": "A4",
            "ticks": 422160,
            "time": 251.28546300000002,
            "velocity": 0.8267716535433071
          },
          {
            "duration": 0.2857140000000129,
            "durationTicks": 480,
            "midi": 69,
            "name": "A4",
            "ticks": 422400,
            "time": 251.42832,
            "velocity": 0.8267716535433071
          },
          {
            "duration": 0.22857119999997622,
            "durationTicks": 384,
            "midi": 77,
            "name": "F5",
            "ticks": 422880,
            "time": 251.71403400000003,
            "velocity": 0.8267716535433071
          },
          {
            "duration": 0.14285699999999224,
            "durationTicks": 240,
            "midi": 77,
            "name": "F5",
            "ticks": 423840,
            "time": 252.28546200000002,
            "velocity": 0.8267716535433071
          },
          {
            "duration": 0.11428559999998811,
            "durationTicks": 192,
            "midi": 76,
            "name": "E5",
            "ticks": 424080,
            "time": 252.42831900000002,
            "velocity": 0.8267716535433071
          },
          {
            "duration": 0.22857120000000464,
            "durationTicks": 384,
            "midi": 74,
            "name": "D5",
            "ticks": 424320,
            "time": 252.571176,
            "velocity": 0.8267716535433071
          },
          {
            "duration": 0.14285699999999224,
            "durationTicks": 240,
            "midi": 74,
            "name": "D5",
            "ticks": 424800,
            "time": 252.85689000000002,
            "velocity": 0.8267716535433071
          },
          {
            "duration": 0.11428559999998811,
            "durationTicks": 192,
            "midi": 72,
            "name": "C5",
            "ticks": 425040,
            "time": 252.999747,
            "velocity": 0.8267716535433071
          },
          {
            "duration": 0.22857119999997622,
            "durationTicks": 384,
            "midi": 70,
            "name": "A#4",
            "ticks": 425280,
            "time": 253.14260400000003,
            "velocity": 0.8267716535433071
          },
          {
            "duration": 0.14285699999999224,
            "durationTicks": 240,
            "midi": 70,
            "name": "A#4",
            "ticks": 425760,
            "time": 253.42831800000002,
            "velocity": 0.8267716535433071
          },
          {
            "duration": 0.11428560000001653,
            "durationTicks": 192,
            "midi": 69,
            "name": "A4",
            "ticks": 426000,
            "time": 253.571175,
            "velocity": 0.8267716535433071
          },
          {
            "duration": 0.22857119999997622,
            "durationTicks": 384,
            "midi": 67,
            "name": "G4",
            "ticks": 426240,
            "time": 253.71403200000003,
            "velocity": 0.7244094488188977
          },
          {
            "duration": 0.08571419999998398,
            "durationTicks": 144,
            "midi": 70,
            "name": "A#4",
            "ticks": 426720,
            "time": 253.99974600000002,
            "velocity": 0.7244094488188977
          },
          {
            "duration": 0.0857142000000124,
            "durationTicks": 144,
            "midi": 72,
            "name": "C5",
            "ticks": 426960,
            "time": 254.142603,
            "velocity": 0.7244094488188977
          },
          {
            "duration": 0.08571419999998398,
            "durationTicks": 144,
            "midi": 74,
            "name": "D5",
            "ticks": 427200,
            "time": 254.28546000000003,
            "velocity": 0.7244094488188977
          },
          {
            "duration": 0.08571419999998398,
            "durationTicks": 144,
            "midi": 71,
            "name": "B4",
            "ticks": 427440,
            "time": 254.42831700000002,
            "velocity": 0.7244094488188977
          },
          {
            "duration": 0.08571419999998398,
            "durationTicks": 144,
            "midi": 74,
            "name": "D5",
            "ticks": 427680,
            "time": 254.571174,
            "velocity": 0.7244094488188977
          },
          {
            "duration": 0.08571419999998398,
            "durationTicks": 144,
            "midi": 65,
            "name": "F4",
            "ticks": 427920,
            "time": 254.71403100000003,
            "velocity": 0.7244094488188977
          },
          {
            "duration": 0.08571419999998398,
            "durationTicks": 144,
            "midi": 64,
            "name": "E4",
            "ticks": 428160,
            "time": 254.85688800000003,
            "velocity": 0.7244094488188977
          },
          {
            "duration": 0.08571419999998398,
            "durationTicks": 144,
            "midi": 67,
            "name": "G4",
            "ticks": 428400,
            "time": 254.99974500000002,
            "velocity": 0.7244094488188977
          },
          {
            "duration": 0.08571419999998398,
            "durationTicks": 144,
            "midi": 72,
            "name": "C5",
            "ticks": 428640,
            "time": 255.142602,
            "velocity": 0.7244094488188977
          },
          {
            "duration": 0.08571419999998398,
            "durationTicks": 144,
            "midi": 64,
            "name": "E4",
            "ticks": 428880,
            "time": 255.28545900000003,
            "velocity": 0.7244094488188977
          },
          {
            "duration": 0.08571419999998398,
            "durationTicks": 144,
            "midi": 62,
            "name": "D4",
            "ticks": 429120,
            "time": 255.42831600000002,
            "velocity": 0.7244094488188977
          },
          {
            "duration": 0.08571419999998398,
            "durationTicks": 144,
            "midi": 65,
            "name": "F4",
            "ticks": 429360,
            "time": 255.57117300000002,
            "velocity": 0.7244094488188977
          },
          {
            "duration": 0.0857142000000124,
            "durationTicks": 144,
            "midi": 71,
            "name": "B4",
            "ticks": 429600,
            "time": 255.71403,
            "velocity": 0.7244094488188977
          },
          {
            "duration": 0.08571419999998398,
            "durationTicks": 144,
            "midi": 62,
            "name": "D4",
            "ticks": 429840,
            "time": 255.85688700000003,
            "velocity": 0.7244094488188977
          },
          {
            "duration": 0.08571419999998398,
            "durationTicks": 144,
            "midi": 64,
            "name": "E4",
            "ticks": 430080,
            "time": 255.99974400000002,
            "velocity": 0.7244094488188977
          },
          {
            "duration": 0.08571419999998398,
            "durationTicks": 144,
            "midi": 67,
            "name": "G4",
            "ticks": 430320,
            "time": 256.142601,
            "velocity": 0.7244094488188977
          },
          {
            "duration": 0.08571419999998398,
            "durationTicks": 144,
            "midi": 69,
            "name": "A4",
            "ticks": 430560,
            "time": 256.285458,
            "velocity": 0.7244094488188977
          },
          {
            "duration": 0.08571419999998398,
            "durationTicks": 144,
            "midi": 71,
            "name": "B4",
            "ticks": 430800,
            "time": 256.428315,
            "velocity": 0.7244094488188977
          },
          {
            "duration": 0.08571419999998398,
            "durationTicks": 144,
            "midi": 72,
            "name": "C5",
            "ticks": 431040,
            "time": 256.57117200000005,
            "velocity": 0.7244094488188977
          },
          {
            "duration": 0.08571419999998398,
            "durationTicks": 144,
            "midi": 67,
            "name": "G4",
            "ticks": 431280,
            "time": 256.71402900000004,
            "velocity": 0.7244094488188977
          },
          {
            "duration": 0.08571419999998398,
            "durationTicks": 144,
            "midi": 72,
            "name": "C5",
            "ticks": 431520,
            "time": 256.85688600000003,
            "velocity": 0.7244094488188977
          },
          {
            "duration": 0.08571419999998398,
            "durationTicks": 144,
            "midi": 74,
            "name": "D5",
            "ticks": 431760,
            "time": 256.999743,
            "velocity": 0.7244094488188977
          },
          {
            "duration": 0.08571419999998398,
            "durationTicks": 144,
            "midi": 76,
            "name": "E5",
            "ticks": 432000,
            "time": 257.1426,
            "velocity": 0.7244094488188977
          },
          {
            "duration": 0.08571419999998398,
            "durationTicks": 144,
            "midi": 72,
            "name": "C5",
            "ticks": 432240,
            "time": 257.285457,
            "velocity": 0.7244094488188977
          },
          {
            "duration": 0.08571419999998398,
            "durationTicks": 144,
            "midi": 74,
            "name": "D5",
            "ticks": 432480,
            "time": 257.428314,
            "velocity": 0.7244094488188977
          },
          {
            "duration": 0.08571419999998398,
            "durationTicks": 144,
            "midi": 76,
            "name": "E5",
            "ticks": 432720,
            "time": 257.57117100000005,
            "velocity": 0.7244094488188977
          },
          {
            "duration": 0.08571419999998398,
            "durationTicks": 144,
            "midi": 77,
            "name": "F5",
            "ticks": 432960,
            "time": 257.71402800000004,
            "velocity": 0.7244094488188977
          },
          {
            "duration": 0.08571419999998398,
            "durationTicks": 144,
            "midi": 72,
            "name": "C5",
            "ticks": 433200,
            "time": 257.85688500000003,
            "velocity": 0.7244094488188977
          },
          {
            "duration": 0.08571419999998398,
            "durationTicks": 144,
            "midi": 77,
            "name": "F5",
            "ticks": 433440,
            "time": 257.999742,
            "velocity": 0.7244094488188977
          },
          {
            "duration": 0.08571419999998398,
            "durationTicks": 144,
            "midi": 79,
            "name": "G5",
            "ticks": 433680,
            "time": 258.142599,
            "velocity": 0.7244094488188977
          },
          {
            "duration": 0.1999998000000005,
            "durationTicks": 336,
            "midi": 81,
            "name": "A5",
            "ticks": 433920,
            "time": 258.285456,
            "velocity": 0.8267716535433071
          },
          {
            "duration": 0.19999980000005735,
            "durationTicks": 336,
            "midi": 65,
            "name": "F4",
            "ticks": 434400,
            "time": 258.57117,
            "velocity": 0.8267716535433071
          },
          {
            "duration": 0.14285699999999224,
            "durationTicks": 240,
            "midi": 67,
            "name": "G4",
            "ticks": 435360,
            "time": 259.142598,
            "velocity": 0.8267716535433071
          },
          {
            "duration": 0.11428560000001653,
            "durationTicks": 192,
            "midi": 65,
            "name": "F4",
            "ticks": 435600,
            "time": 259.285455,
            "velocity": 0.8267716535433071
          },
          {
            "duration": 0.22857119999997622,
            "durationTicks": 384,
            "midi": 65,
            "name": "F4",
            "ticks": 435840,
            "time": 259.428312,
            "velocity": 0.8267716535433071
          },
          {
            "duration": 0.14285699999999224,
            "durationTicks": 240,
            "midi": 67,
            "name": "G4",
            "ticks": 436320,
            "time": 259.71402600000005,
            "velocity": 0.8267716535433071
          },
          {
            "duration": 0.11428559999995969,
            "durationTicks": 192,
            "midi": 65,
            "name": "F4",
            "ticks": 436560,
            "time": 259.85688300000004,
            "velocity": 0.8267716535433071
          },
          {
            "duration": 0.22857119999997622,
            "durationTicks": 384,
            "midi": 65,
            "name": "F4",
            "ticks": 436800,
            "time": 259.99974000000003,
            "velocity": 0.8267716535433071
          },
          {
            "duration": 0.14285699999999224,
            "durationTicks": 240,
            "midi": 67,
            "name": "G4",
            "ticks": 437280,
            "time": 260.285454,
            "velocity": 0.8267716535433071
          },
          {
            "duration": 0.11428560000001653,
            "durationTicks": 192,
            "midi": 65,
            "name": "F4",
            "ticks": 437520,
            "time": 260.428311,
            "velocity": 0.8267716535433071
          },
          {
            "duration": 0.2857140000000413,
            "durationTicks": 480,
            "midi": 65,
            "name": "F4",
            "ticks": 437760,
            "time": 260.571168,
            "velocity": 0.8267716535433071
          },
          {
            "duration": 0.22857119999997622,
            "durationTicks": 384,
            "midi": 74,
            "name": "D5",
            "ticks": 438240,
            "time": 260.85688200000004,
            "velocity": 0.8267716535433071
          },
          {
            "duration": 0.14285699999999224,
            "durationTicks": 240,
            "midi": 74,
            "name": "D5",
            "ticks": 439200,
            "time": 261.42831,
            "velocity": 0.8267716535433071
          },
          {
            "duration": 0.11428560000001653,
            "durationTicks": 192,
            "midi": 72,
            "name": "C5",
            "ticks": 439440,
            "time": 261.571167,
            "velocity": 0.8267716535433071
          },
          {
            "duration": 0.22857120000003306,
            "durationTicks": 384,
            "midi": 70,
            "name": "A#4",
            "ticks": 439680,
            "time": 261.714024,
            "velocity": 0.8267716535433071
          },
          {
            "duration": 0.14285699999999224,
            "durationTicks": 240,
            "midi": 70,
            "name": "A#4",
            "ticks": 440160,
            "time": 261.99973800000004,
            "velocity": 0.8267716535433071
          },
          {
            "duration": 0.11428559999995969,
            "durationTicks": 192,
            "midi": 69,
            "name": "A4",
            "ticks": 440400,
            "time": 262.14259500000003,
            "velocity": 0.8267716535433071
          },
          {
            "duration": 0.22857119999997622,
            "durationTicks": 384,
            "midi": 67,
            "name": "G4",
            "ticks": 440640,
            "time": 262.285452,
            "velocity": 0.8267716535433071
          },
          {
            "duration": 0.14285699999999224,
            "durationTicks": 240,
            "midi": 67,
            "name": "G4",
            "ticks": 441120,
            "time": 262.571166,
            "velocity": 0.8267716535433071
          },
          {
            "duration": 0.11428560000001653,
            "durationTicks": 192,
            "midi": 65,
            "name": "F4",
            "ticks": 441360,
            "time": 262.714023,
            "velocity": 0.8267716535433071
          },
          {
            "duration": 0.2857139999999845,
            "durationTicks": 480,
            "midi": 63,
            "name": "D#4",
            "ticks": 441600,
            "time": 262.85688000000005,
            "velocity": 0.8267716535433071
          },
          {
            "duration": 0.22857119999997622,
            "durationTicks": 384,
            "midi": 72,
            "name": "C5",
            "ticks": 442080,
            "time": 263.14259400000003,
            "velocity": 0.8267716535433071
          },
          {
            "duration": 0.14285700000004908,
            "durationTicks": 240,
            "midi": 72,
            "name": "C5",
            "ticks": 443040,
            "time": 263.714022,
            "velocity": 0.8267716535433071
          },
          {
            "duration": 0.11428559999995969,
            "durationTicks": 192,
            "midi": 70,
            "name": "A#4",
            "ticks": 443280,
            "time": 263.85687900000005,
            "velocity": 0.8267716535433071
          },
          {
            "duration": 0.22857119999997622,
            "durationTicks": 384,
            "midi": 69,
            "name": "A4",
            "ticks": 443520,
            "time": 263.99973600000004,
            "velocity": 0.8267716535433071
          },
          {
            "duration": 0.14285699999999224,
            "durationTicks": 240,
            "midi": 69,
            "name": "A4",
            "ticks": 444000,
            "time": 264.28545,
            "velocity": 0.8267716535433071
          },
          {
            "duration": 0.11428560000001653,
            "durationTicks": 192,
            "midi": 67,
            "name": "G4",
            "ticks": 444240,
            "time": 264.428307,
            "velocity": 0.8267716535433071
          },
          {
            "duration": 0.22857119999997622,
            "durationTicks": 384,
            "midi": 66,
            "name": "F#4",
            "ticks": 444480,
            "time": 264.571164,
            "velocity": 0.8267716535433071
          },
          {
            "duration": 0.14285700000004908,
            "durationTicks": 240,
            "midi": 66,
            "name": "F#4",
            "ticks": 444960,
            "time": 264.856878,
            "velocity": 0.8267716535433071
          },
          {
            "duration": 0.11428559999995969,
            "durationTicks": 192,
            "midi": 64,
            "name": "E4",
            "ticks": 445200,
            "time": 264.99973500000004,
            "velocity": 0.8267716535433071
          },
          {
            "duration": 0.2857139999999845,
            "durationTicks": 480,
            "midi": 62,
            "name": "D4",
            "ticks": 445440,
            "time": 265.14259200000004,
            "velocity": 0.8267716535433071
          },
          {
            "duration": 0.22857119999997622,
            "durationTicks": 384,
            "midi": 70,
            "name": "A#4",
            "ticks": 445920,
            "time": 265.428306,
            "velocity": 0.8267716535433071
          },
          {
            "duration": 0.14285699999999224,
            "durationTicks": 240,
            "midi": 70,
            "name": "A#4",
            "ticks": 446880,
            "time": 265.99973400000005,
            "velocity": 0.8267716535433071
          },
          {
            "duration": 0.11428559999995969,
            "durationTicks": 192,
            "midi": 69,
            "name": "A4",
            "ticks": 447120,
            "time": 266.14259100000004,
            "velocity": 0.8267716535433071
          },
          {
            "duration": 0.22857119999997622,
            "durationTicks": 384,
            "midi": 67,
            "name": "G4",
            "ticks": 447360,
            "time": 266.28544800000003,
            "velocity": 0.8267716535433071
          },
          {
            "duration": 0.14285699999999224,
            "durationTicks": 240,
            "midi": 67,
            "name": "G4",
            "ticks": 447840,
            "time": 266.571162,
            "velocity": 0.8267716535433071
          },
          {
            "duration": 0.11428560000001653,
            "durationTicks": 192,
            "midi": 65,
            "name": "F4",
            "ticks": 448080,
            "time": 266.714019,
            "velocity": 0.8267716535433071
          },
          {
            "duration": 0.22857120000003306,
            "durationTicks": 384,
            "midi": 64,
            "name": "E4",
            "ticks": 448320,
            "time": 266.856876,
            "velocity": 0.8267716535433071
          },
          {
            "duration": 0.14285699999999224,
            "durationTicks": 240,
            "midi": 64,
            "name": "E4",
            "ticks": 448800,
            "time": 267.14259000000004,
            "velocity": 0.8267716535433071
          },
          {
            "duration": 0.11428559999995969,
            "durationTicks": 192,
            "midi": 62,
            "name": "D4",
            "ticks": 449040,
            "time": 267.28544700000003,
            "velocity": 0.8267716535433071
          },
          {
            "duration": 0.11428560000001653,
            "durationTicks": 192,
            "midi": 61,
            "name": "C#4",
            "ticks": 449280,
            "time": 267.428304,
            "velocity": 0.7244094488188977
          },
          {
            "duration": 0.11428560000001653,
            "durationTicks": 192,
            "midi": 64,
            "name": "E4",
            "ticks": 449280,
            "time": 267.428304,
            "velocity": 0.7244094488188977
          },
          {
            "duration": 0.11428560000001653,
            "durationTicks": 192,
            "midi": 61,
            "name": "C#4",
            "ticks": 449520,
            "time": 267.571161,
            "velocity": 0.7244094488188977
          },
          {
            "duration": 0.11428560000001653,
            "durationTicks": 192,
            "midi": 64,
            "name": "E4",
            "ticks": 449520,
            "time": 267.571161,
            "velocity": 0.7244094488188977
          },
          {
            "duration": 0.11428560000001653,
            "durationTicks": 192,
            "midi": 61,
            "name": "C#4",
            "ticks": 449760,
            "time": 267.714018,
            "velocity": 0.7244094488188977
          },
          {
            "duration": 0.11428560000001653,
            "durationTicks": 192,
            "midi": 64,
            "name": "E4",
            "ticks": 449760,
            "time": 267.714018,
            "velocity": 0.7244094488188977
          },
          {
            "duration": 0.11428560000001653,
            "durationTicks": 192,
            "midi": 61,
            "name": "C#4",
            "ticks": 450000,
            "time": 267.856875,
            "velocity": 0.7244094488188977
          },
          {
            "duration": 0.11428560000001653,
            "durationTicks": 192,
            "midi": 64,
            "name": "E4",
            "ticks": 450000,
            "time": 267.856875,
            "velocity": 0.7244094488188977
          },
          {
            "duration": 0.11428560000001653,
            "durationTicks": 192,
            "midi": 62,
            "name": "D4",
            "ticks": 450240,
            "time": 267.999732,
            "velocity": 0.7244094488188977
          },
          {
            "duration": 0.11428560000001653,
            "durationTicks": 192,
            "midi": 65,
            "name": "F4",
            "ticks": 450240,
            "time": 267.999732,
            "velocity": 0.7244094488188977
          },
          {
            "duration": 0.11428559999995969,
            "durationTicks": 192,
            "midi": 62,
            "name": "D4",
            "ticks": 450480,
            "time": 268.14258900000004,
            "velocity": 0.7244094488188977
          },
          {
            "duration": 0.11428559999995969,
            "durationTicks": 192,
            "midi": 65,
            "name": "F4",
            "ticks": 450480,
            "time": 268.14258900000004,
            "velocity": 0.7244094488188977
          },
          {
            "duration": 0.11428559999995969,
            "durationTicks": 192,
            "midi": 62,
            "name": "D4",
            "ticks": 450720,
            "time": 268.28544600000004,
            "velocity": 0.7244094488188977
          },
          {
            "duration": 0.11428559999995969,
            "durationTicks": 192,
            "midi": 65,
            "name": "F4",
            "ticks": 450720,
            "time": 268.28544600000004,
            "velocity": 0.7244094488188977
          },
          {
            "duration": 0.11428559999995969,
            "durationTicks": 192,
            "midi": 62,
            "name": "D4",
            "ticks": 450960,
            "time": 268.428303,
            "velocity": 0.7244094488188977
          },
          {
            "duration": 0.11428559999995969,
            "durationTicks": 192,
            "midi": 65,
            "name": "F4",
            "ticks": 450960,
            "time": 268.428303,
            "velocity": 0.7244094488188977
          },
          {
            "duration": 0.11428560000001653,
            "durationTicks": 192,
            "midi": 61,
            "name": "C#4",
            "ticks": 451200,
            "time": 268.57116,
            "velocity": 0.7244094488188977
          },
          {
            "duration": 0.11428560000001653,
            "durationTicks": 192,
            "midi": 64,
            "name": "E4",
            "ticks": 451200,
            "time": 268.57116,
            "velocity": 0.7244094488188977
          },
          {
            "duration": 0.11428560000001653,
            "durationTicks": 192,
            "midi": 61,
            "name": "C#4",
            "ticks": 451440,
            "time": 268.714017,
            "velocity": 0.7244094488188977
          },
          {
            "duration": 0.11428560000001653,
            "durationTicks": 192,
            "midi": 64,
            "name": "E4",
            "ticks": 451440,
            "time": 268.714017,
            "velocity": 0.7244094488188977
          },
          {
            "duration": 0.11428560000001653,
            "durationTicks": 192,
            "midi": 61,
            "name": "C#4",
            "ticks": 451680,
            "time": 268.856874,
            "velocity": 0.7244094488188977
          },
          {
            "duration": 0.11428560000001653,
            "durationTicks": 192,
            "midi": 64,
            "name": "E4",
            "ticks": 451680,
            "time": 268.856874,
            "velocity": 0.7244094488188977
          },
          {
            "duration": 0.11428560000001653,
            "durationTicks": 192,
            "midi": 61,
            "name": "C#4",
            "ticks": 451920,
            "time": 268.999731,
            "velocity": 0.7244094488188977
          },
          {
            "duration": 0.11428560000001653,
            "durationTicks": 192,
            "midi": 64,
            "name": "E4",
            "ticks": 451920,
            "time": 268.999731,
            "velocity": 0.7244094488188977
          },
          {
            "duration": 0.11428559999995969,
            "durationTicks": 192,
            "midi": 62,
            "name": "D4",
            "ticks": 452160,
            "time": 269.14258800000005,
            "velocity": 0.7244094488188977
          },
          {
            "duration": 0.11428559999995969,
            "durationTicks": 192,
            "midi": 65,
            "name": "F4",
            "ticks": 452160,
            "time": 269.14258800000005,
            "velocity": 0.7244094488188977
          },
          {
            "duration": 0.11428559999995969,
            "durationTicks": 192,
            "midi": 62,
            "name": "D4",
            "ticks": 452400,
            "time": 269.28544500000004,
            "velocity": 0.7244094488188977
          },
          {
            "duration": 0.11428559999995969,
            "durationTicks": 192,
            "midi": 65,
            "name": "F4",
            "ticks": 452400,
            "time": 269.28544500000004,
            "velocity": 0.7244094488188977
          },
          {
            "duration": 0.11428559999995969,
            "durationTicks": 192,
            "midi": 62,
            "name": "D4",
            "ticks": 452640,
            "time": 269.42830200000003,
            "velocity": 0.7244094488188977
          },
          {
            "duration": 0.11428559999995969,
            "durationTicks": 192,
            "midi": 65,
            "name": "F4",
            "ticks": 452640,
            "time": 269.42830200000003,
            "velocity": 0.7244094488188977
          },
          {
            "duration": 0.11428560000001653,
            "durationTicks": 192,
            "midi": 62,
            "name": "D4",
            "ticks": 452880,
            "time": 269.571159,
            "velocity": 0.7244094488188977
          },
          {
            "duration": 0.11428560000001653,
            "durationTicks": 192,
            "midi": 65,
            "name": "F4",
            "ticks": 452880,
            "time": 269.571159,
            "velocity": 0.7244094488188977
          },
          {
            "duration": 0.11428560000001653,
            "durationTicks": 192,
            "midi": 61,
            "name": "C#4",
            "ticks": 453120,
            "time": 269.714016,
            "velocity": 0.7244094488188977
          },
          {
            "duration": 0.11428560000001653,
            "durationTicks": 192,
            "midi": 64,
            "name": "E4",
            "ticks": 453120,
            "time": 269.714016,
            "velocity": 0.7244094488188977
          },
          {
            "duration": 0.11428560000001653,
            "durationTicks": 192,
            "midi": 61,
            "name": "C#4",
            "ticks": 453360,
            "time": 269.856873,
            "velocity": 0.7244094488188977
          },
          {
            "duration": 0.11428560000001653,
            "durationTicks": 192,
            "midi": 64,
            "name": "E4",
            "ticks": 453360,
            "time": 269.856873,
            "velocity": 0.7244094488188977
          },
          {
            "duration": 0.11428560000001653,
            "durationTicks": 192,
            "midi": 61,
            "name": "C#4",
            "ticks": 453600,
            "time": 269.99973,
            "velocity": 0.7244094488188977
          },
          {
            "duration": 0.11428560000001653,
            "durationTicks": 192,
            "midi": 64,
            "name": "E4",
            "ticks": 453600,
            "time": 269.99973,
            "velocity": 0.7244094488188977
          },
          {
            "duration": 0.11428559999995969,
            "durationTicks": 192,
            "midi": 61,
            "name": "C#4",
            "ticks": 453840,
            "time": 270.14258700000005,
            "velocity": 0.7244094488188977
          },
          {
            "duration": 0.11428559999995969,
            "durationTicks": 192,
            "midi": 64,
            "name": "E4",
            "ticks": 453840,
            "time": 270.14258700000005,
            "velocity": 0.7244094488188977
          },
          {
            "duration": 0.11428559999995969,
            "durationTicks": 192,
            "midi": 62,
            "name": "D4",
            "ticks": 454080,
            "time": 270.28544400000004,
            "velocity": 0.7244094488188977
          },
          {
            "duration": 0.11428559999995969,
            "durationTicks": 192,
            "midi": 65,
            "name": "F4",
            "ticks": 454080,
            "time": 270.28544400000004,
            "velocity": 0.7244094488188977
          },
          {
            "duration": 0.11428559999995969,
            "durationTicks": 192,
            "midi": 62,
            "name": "D4",
            "ticks": 454320,
            "time": 270.42830100000003,
            "velocity": 0.7244094488188977
          },
          {
            "duration": 0.11428559999995969,
            "durationTicks": 192,
            "midi": 65,
            "name": "F4",
            "ticks": 454320,
            "time": 270.42830100000003,
            "velocity": 0.7244094488188977
          },
          {
            "duration": 0.11428560000001653,
            "durationTicks": 192,
            "midi": 62,
            "name": "D4",
            "ticks": 454560,
            "time": 270.571158,
            "velocity": 0.7244094488188977
          },
          {
            "duration": 0.11428560000001653,
            "durationTicks": 192,
            "midi": 65,
            "name": "F4",
            "ticks": 454560,
            "time": 270.571158,
            "velocity": 0.7244094488188977
          },
          {
            "duration": 0.11428560000001653,
            "durationTicks": 192,
            "midi": 62,
            "name": "D4",
            "ticks": 454800,
            "time": 270.714015,
            "velocity": 0.7244094488188977
          },
          {
            "duration": 0.11428560000001653,
            "durationTicks": 192,
            "midi": 65,
            "name": "F4",
            "ticks": 454800,
            "time": 270.714015,
            "velocity": 0.7244094488188977
          },
          {
            "duration": 0.11428560000001653,
            "durationTicks": 192,
            "midi": 61,
            "name": "C#4",
            "ticks": 455040,
            "time": 270.856872,
            "velocity": 0.7244094488188977
          },
          {
            "duration": 0.11428560000001653,
            "durationTicks": 192,
            "midi": 64,
            "name": "E4",
            "ticks": 455040,
            "time": 270.856872,
            "velocity": 0.7244094488188977
          },
          {
            "duration": 0.11428560000001653,
            "durationTicks": 192,
            "midi": 61,
            "name": "C#4",
            "ticks": 455280,
            "time": 270.999729,
            "velocity": 0.7244094488188977
          },
          {
            "duration": 0.11428560000001653,
            "durationTicks": 192,
            "midi": 64,
            "name": "E4",
            "ticks": 455280,
            "time": 270.999729,
            "velocity": 0.7244094488188977
          },
          {
            "duration": 0.11428560000001653,
            "durationTicks": 192,
            "midi": 61,
            "name": "C#4",
            "ticks": 455520,
            "time": 271.142586,
            "velocity": 0.7244094488188977
          },
          {
            "duration": 0.11428560000001653,
            "durationTicks": 192,
            "midi": 64,
            "name": "E4",
            "ticks": 455520,
            "time": 271.142586,
            "velocity": 0.7244094488188977
          },
          {
            "duration": 0.11428559999995969,
            "durationTicks": 192,
            "midi": 61,
            "name": "C#4",
            "ticks": 455760,
            "time": 271.28544300000004,
            "velocity": 0.7244094488188977
          },
          {
            "duration": 0.11428559999995969,
            "durationTicks": 192,
            "midi": 64,
            "name": "E4",
            "ticks": 455760,
            "time": 271.28544300000004,
            "velocity": 0.7244094488188977
          },
          {
            "duration": 0.11428559999995969,
            "durationTicks": 192,
            "midi": 62,
            "name": "D4",
            "ticks": 456000,
            "time": 271.42830000000004,
            "velocity": 0.7244094488188977
          },
          {
            "duration": 0.11428559999995969,
            "durationTicks": 192,
            "midi": 65,
            "name": "F4",
            "ticks": 456000,
            "time": 271.42830000000004,
            "velocity": 0.7244094488188977
          },
          {
            "duration": 0.11428559999995969,
            "durationTicks": 192,
            "midi": 62,
            "name": "D4",
            "ticks": 456240,
            "time": 271.571157,
            "velocity": 0.7244094488188977
          },
          {
            "duration": 0.11428559999995969,
            "durationTicks": 192,
            "midi": 65,
            "name": "F4",
            "ticks": 456240,
            "time": 271.571157,
            "velocity": 0.7244094488188977
          },
          {
            "duration": 0.11428560000001653,
            "durationTicks": 192,
            "midi": 62,
            "name": "D4",
            "ticks": 456480,
            "time": 271.714014,
            "velocity": 0.7244094488188977
          },
          {
            "duration": 0.11428560000001653,
            "durationTicks": 192,
            "midi": 65,
            "name": "F4",
            "ticks": 456480,
            "time": 271.714014,
            "velocity": 0.7244094488188977
          },
          {
            "duration": 0.11428560000001653,
            "durationTicks": 192,
            "midi": 62,
            "name": "D4",
            "ticks": 456720,
            "time": 271.856871,
            "velocity": 0.7244094488188977
          },
          {
            "duration": 0.11428560000001653,
            "durationTicks": 192,
            "midi": 65,
            "name": "F4",
            "ticks": 456720,
            "time": 271.856871,
            "velocity": 0.7244094488188977
          },
          {
            "duration": 0.4571424000000093,
            "durationTicks": 768,
            "midi": 61,
            "name": "C#4",
            "ticks": 456960,
            "time": 271.999728,
            "velocity": 0.7244094488188977
          },
          {
            "duration": 0.4571424000000093,
            "durationTicks": 768,
            "midi": 64,
            "name": "E4",
            "ticks": 456960,
            "time": 271.999728,
            "velocity": 0.7244094488188977
          },
          {
            "duration": 0.5142851999999607,
            "durationTicks": 864,
            "midi": 75,
            "name": "D#5",
            "ticks": 473760,
            "time": 281.99971800000003,
            "velocity": 0.4566929133858268
          },
          {
            "duration": 0.4571424000000093,
            "durationTicks": 768,
            "midi": 75,
            "name": "D#5",
            "ticks": 474720,
            "time": 282.571146,
            "velocity": 0.4566929133858268
          },
          {
            "duration": 0.5142851999999607,
            "durationTicks": 864,
            "midi": 75,
            "name": "D#5",
            "ticks": 475680,
            "time": 283.142574,
            "velocity": 0.4566929133858268
          },
          {
            "duration": 0.5142852000000175,
            "durationTicks": 864,
            "midi": 72,
            "name": "C5",
            "ticks": 477600,
            "time": 284.28543,
            "velocity": 0.4566929133858268
          },
          {
            "duration": 0.4571424000000093,
            "durationTicks": 768,
            "midi": 72,
            "name": "C5",
            "ticks": 478560,
            "time": 284.85685800000005,
            "velocity": 0.4566929133858268
          },
          {
            "duration": 0.5142852000000175,
            "durationTicks": 864,
            "midi": 72,
            "name": "C5",
            "ticks": 479520,
            "time": 285.428286,
            "velocity": 0.4566929133858268
          },
          {
            "duration": 0.5142852000000175,
            "durationTicks": 864,
            "midi": 69,
            "name": "A4",
            "ticks": 481440,
            "time": 286.571142,
            "velocity": 0.4566929133858268
          },
          {
            "duration": 0.4571424000000093,
            "durationTicks": 768,
            "midi": 69,
            "name": "A4",
            "ticks": 482400,
            "time": 287.14257000000003,
            "velocity": 0.4566929133858268
          },
          {
            "duration": 0.5142852000000175,
            "durationTicks": 864,
            "midi": 69,
            "name": "A4",
            "ticks": 483360,
            "time": 287.713998,
            "velocity": 0.4566929133858268
          },
          {
            "duration": 0.14285700000004908,
            "durationTicks": 240,
            "midi": 79,
            "name": "G5",
            "ticks": 485280,
            "time": 288.856854,
            "velocity": 0.9133858267716536
          },
          {
            "duration": 0.11428559999995969,
            "durationTicks": 192,
            "midi": 78,
            "name": "F#5",
            "ticks": 485520,
            "time": 288.99971100000005,
            "velocity": 0.9133858267716536
          },
          {
            "duration": 0.22857119999997622,
            "durationTicks": 384,
            "midi": 78,
            "name": "F#5",
            "ticks": 485760,
            "time": 289.14256800000004,
            "velocity": 0.9133858267716536
          },
          {
            "duration": 0.14285699999999224,
            "durationTicks": 240,
            "midi": 78,
            "name": "F#5",
            "ticks": 487200,
            "time": 289.99971000000005,
            "velocity": 0.9133858267716536
          },
          {
            "duration": 0.11428559999995969,
            "durationTicks": 192,
            "midi": 79,
            "name": "G5",
            "ticks": 487440,
            "time": 290.14256700000004,
            "velocity": 0.9133858267716536
          },
          {
            "duration": 0.22857119999997622,
            "durationTicks": 384,
            "midi": 79,
            "name": "G5",
            "ticks": 487680,
            "time": 290.28542400000003,
            "velocity": 0.9133858267716536
          },
          {
            "duration": 0.14285699999999224,
            "durationTicks": 240,
            "midi": 79,
            "name": "G5",
            "ticks": 489120,
            "time": 291.14256600000004,
            "velocity": 0.9133858267716536
          },
          {
            "duration": 0.11428559999995969,
            "durationTicks": 192,
            "midi": 81,
            "name": "A5",
            "ticks": 489360,
            "time": 291.28542300000004,
            "velocity": 0.9133858267716536
          },
          {
            "duration": 0.22857119999997622,
            "durationTicks": 384,
            "midi": 82,
            "name": "A#5",
            "ticks": 489600,
            "time": 291.42828000000003,
            "velocity": 0.9133858267716536
          },
          {
            "duration": 0.14285699999999224,
            "durationTicks": 240,
            "midi": 82,
            "name": "A#5",
            "ticks": 491040,
            "time": 292.28542200000004,
            "velocity": 0.9133858267716536
          },
          {
            "duration": 0.11428559999995969,
            "durationTicks": 192,
            "midi": 81,
            "name": "A5",
            "ticks": 491280,
            "time": 292.42827900000003,
            "velocity": 0.9133858267716536
          },
          {
            "duration": 0.22857119999997622,
            "durationTicks": 384,
            "midi": 81,
            "name": "A5",
            "ticks": 491520,
            "time": 292.571136,
            "velocity": 0.9133858267716536
          },
          {
            "duration": 0.14285699999999224,
            "durationTicks": 240,
            "midi": 77,
            "name": "F5",
            "ticks": 492960,
            "time": 293.42827800000003,
            "velocity": 0.9133858267716536
          },
          {
            "duration": 0.11428560000001653,
            "durationTicks": 192,
            "midi": 78,
            "name": "F#5",
            "ticks": 493200,
            "time": 293.571135,
            "velocity": 0.9133858267716536
          },
          {
            "duration": 0.22857119999997622,
            "durationTicks": 384,
            "midi": 78,
            "name": "F#5",
            "ticks": 493440,
            "time": 293.713992,
            "velocity": 0.9133858267716536
          },
          {
            "duration": 0.14285699999999224,
            "durationTicks": 240,
            "midi": 78,
            "name": "F#5",
            "ticks": 494880,
            "time": 294.57113400000003,
            "velocity": 0.9133858267716536
          },
          {
            "duration": 0.11428560000001653,
            "durationTicks": 192,
            "midi": 79,
            "name": "G5",
            "ticks": 495120,
            "time": 294.713991,
            "velocity": 0.9133858267716536
          },
          {
            "duration": 0.22857119999997622,
            "durationTicks": 384,
            "midi": 79,
            "name": "G5",
            "ticks": 495360,
            "time": 294.856848,
            "velocity": 0.9133858267716536
          },
          {
            "duration": 0.14285699999999224,
            "durationTicks": 240,
            "midi": 74,
            "name": "D5",
            "ticks": 496800,
            "time": 295.71399,
            "velocity": 0.9133858267716536
          },
          {
            "duration": 0.11428560000001653,
            "durationTicks": 192,
            "midi": 75,
            "name": "D#5",
            "ticks": 497040,
            "time": 295.856847,
            "velocity": 0.9133858267716536
          },
          {
            "duration": 0.22857119999997622,
            "durationTicks": 384,
            "midi": 75,
            "name": "D#5",
            "ticks": 497280,
            "time": 295.999704,
            "velocity": 0.9133858267716536
          },
          {
            "duration": 0.14285699999999224,
            "durationTicks": 240,
            "midi": 72,
            "name": "C5",
            "ticks": 497760,
            "time": 296.28541800000005,
            "velocity": 0.9133858267716536
          },
          {
            "duration": 0.11428560000001653,
            "durationTicks": 192,
            "midi": 70,
            "name": "A#4",
            "ticks": 498000,
            "time": 296.42827500000004,
            "velocity": 0.9133858267716536
          },
          {
            "duration": 0.22857119999997622,
            "durationTicks": 384,
            "midi": 70,
            "name": "A#4",
            "ticks": 498240,
            "time": 296.57113200000003,
            "velocity": 0.9133858267716536
          },
          {
            "duration": 0.14285699999999224,
            "durationTicks": 240,
            "midi": 67,
            "name": "G4",
            "ticks": 498720,
            "time": 296.856846,
            "velocity": 0.9133858267716536
          },
          {
            "duration": 0.11428560000001653,
            "durationTicks": 192,
            "midi": 66,
            "name": "F#4",
            "ticks": 498960,
            "time": 296.999703,
            "velocity": 0.9133858267716536
          },
          {
            "duration": 0.22857120000003306,
            "durationTicks": 384,
            "midi": 66,
            "name": "F#4",
            "ticks": 499200,
            "time": 297.14256,
            "velocity": 0.8267716535433071
          },
          {
            "duration": 0.14285699999999224,
            "durationTicks": 240,
            "midi": 63,
            "name": "D#4",
            "ticks": 508320,
            "time": 302.57112600000005,
            "velocity": 0.5511811023622047
          },
          {
            "duration": 0.11428560000001653,
            "durationTicks": 192,
            "midi": 62,
            "name": "D4",
            "ticks": 508560,
            "time": 302.71398300000004,
            "velocity": 0.5511811023622047
          },
          {
            "duration": 0.22857119999997622,
            "durationTicks": 384,
            "midi": 62,
            "name": "D4",
            "ticks": 508800,
            "time": 302.85684000000003,
            "velocity": 0.5511811023622047
          },
          {
            "duration": 0.14285699999999224,
            "durationTicks": 240,
            "midi": 63,
            "name": "D#4",
            "ticks": 509280,
            "time": 303.142554,
            "velocity": 0.5511811023622047
          },
          {
            "duration": 0.11428560000001653,
            "durationTicks": 192,
            "midi": 62,
            "name": "D4",
            "ticks": 509520,
            "time": 303.285411,
            "velocity": 0.5511811023622047
          },
          {
            "duration": 0.22857120000003306,
            "durationTicks": 384,
            "midi": 62,
            "name": "D4",
            "ticks": 509760,
            "time": 303.428268,
            "velocity": 0.5511811023622047
          },
          {
            "duration": 0.14285699999999224,
            "durationTicks": 240,
            "midi": 63,
            "name": "D#4",
            "ticks": 510240,
            "time": 303.71398200000004,
            "velocity": 0.5511811023622047
          },
          {
            "duration": 0.11428560000001653,
            "durationTicks": 192,
            "midi": 62,
            "name": "D4",
            "ticks": 510480,
            "time": 303.85683900000004,
            "velocity": 0.5511811023622047
          },
          {
            "duration": 0.2857139999999845,
            "durationTicks": 480,
            "midi": 62,
            "name": "D4",
            "ticks": 510720,
            "time": 303.99969600000003,
            "velocity": 0.5511811023622047
          },
          {
            "duration": 0.22857119999997622,
            "durationTicks": 384,
            "midi": 70,
            "name": "A#4",
            "ticks": 511200,
            "time": 304.28541,
            "velocity": 0.5511811023622047
          },
          {
            "duration": 0.14285699999999224,
            "durationTicks": 240,
            "midi": 70,
            "name": "A#4",
            "ticks": 512160,
            "time": 304.85683800000004,
            "velocity": 0.5511811023622047
          },
          {
            "duration": 0.11428560000001653,
            "durationTicks": 192,
            "midi": 69,
            "name": "A4",
            "ticks": 512400,
            "time": 304.99969500000003,
            "velocity": 0.5511811023622047
          },
          {
            "duration": 0.22857119999997622,
            "durationTicks": 384,
            "midi": 67,
            "name": "G4",
            "ticks": 512640,
            "time": 305.142552,
            "velocity": 0.5511811023622047
          },
          {
            "duration": 0.14285699999999224,
            "durationTicks": 240,
            "midi": 67,
            "name": "G4",
            "ticks": 513120,
            "time": 305.428266,
            "velocity": 0.5511811023622047
          },
          {
            "duration": 0.11428560000007337,
            "durationTicks": 192,
            "midi": 65,
            "name": "F4",
            "ticks": 513360,
            "time": 305.571123,
            "velocity": 0.5511811023622047
          },
          {
            "duration": 0.22857119999997622,
            "durationTicks": 384,
            "midi": 63,
            "name": "D#4",
            "ticks": 513600,
            "time": 305.71398000000005,
            "velocity": 0.5511811023622047
          },
          {
            "duration": 0.14285699999999224,
            "durationTicks": 240,
            "midi": 63,
            "name": "D#4",
            "ticks": 514080,
            "time": 305.99969400000003,
            "velocity": 0.5511811023622047
          },
          {
            "duration": 0.11428560000001653,
            "durationTicks": 192,
            "midi": 62,
            "name": "D4",
            "ticks": 514320,
            "time": 306.142551,
            "velocity": 0.5511811023622047
          },
          {
            "duration": 0.22857119999997622,
            "durationTicks": 384,
            "midi": 60,
            "name": "C4",
            "ticks": 514560,
            "time": 306.285408,
            "velocity": 0.5511811023622047
          },
          {
            "duration": 0.22857120000003306,
            "durationTicks": 384,
            "midi": 60,
            "name": "C4",
            "ticks": 515040,
            "time": 306.571122,
            "velocity": 0.5511811023622047
          },
          {
            "duration": 0.14285699999999224,
            "durationTicks": 240,
            "midi": 62,
            "name": "D4",
            "ticks": 516000,
            "time": 307.14255,
            "velocity": 0.5511811023622047
          },
          {
            "duration": 0.11428560000001653,
            "durationTicks": 192,
            "midi": 60,
            "name": "C4",
            "ticks": 516240,
            "time": 307.285407,
            "velocity": 0.5511811023622047
          },
          {
            "duration": 0.22857119999997622,
            "durationTicks": 384,
            "midi": 60,
            "name": "C4",
            "ticks": 516480,
            "time": 307.428264,
            "velocity": 0.5511811023622047
          },
          {
            "duration": 0.14285700000004908,
            "durationTicks": 240,
            "midi": 62,
            "name": "D4",
            "ticks": 516960,
            "time": 307.713978,
            "velocity": 0.5511811023622047
          },
          {
            "duration": 0.11428560000001653,
            "durationTicks": 192,
            "midi": 60,
            "name": "C4",
            "ticks": 517200,
            "time": 307.85683500000005,
            "velocity": 0.5511811023622047
          },
          {
            "duration": 0.22857119999997622,
            "durationTicks": 384,
            "midi": 60,
            "name": "C4",
            "ticks": 517440,
            "time": 307.99969200000004,
            "velocity": 0.5511811023622047
          },
          {
            "duration": 0.14285699999999224,
            "durationTicks": 240,
            "midi": 62,
            "name": "D4",
            "ticks": 517920,
            "time": 308.285406,
            "velocity": 0.5511811023622047
          },
          {
            "duration": 0.11428560000001653,
            "durationTicks": 192,
            "midi": 60,
            "name": "C4",
            "ticks": 518160,
            "time": 308.428263,
            "velocity": 0.5511811023622047
          },
          {
            "duration": 0.2857140000000413,
            "durationTicks": 480,
            "midi": 60,
            "name": "C4",
            "ticks": 518400,
            "time": 308.57112,
            "velocity": 0.5511811023622047
          },
          {
            "duration": 0.22857119999997622,
            "durationTicks": 384,
            "midi": 69,
            "name": "A4",
            "ticks": 518880,
            "time": 308.85683400000005,
            "velocity": 0.5511811023622047
          },
          {
            "duration": 0.14285699999999224,
            "durationTicks": 240,
            "midi": 69,
            "name": "A4",
            "ticks": 519840,
            "time": 309.428262,
            "velocity": 0.5511811023622047
          },
          {
            "duration": 0.11428560000001653,
            "durationTicks": 192,
            "midi": 67,
            "name": "G4",
            "ticks": 520080,
            "time": 309.571119,
            "velocity": 0.5511811023622047
          },
          {
            "duration": 0.22857120000003306,
            "durationTicks": 384,
            "midi": 66,
            "name": "F#4",
            "ticks": 520320,
            "time": 309.713976,
            "velocity": 0.5511811023622047
          },
          {
            "duration": 0.14285699999999224,
            "durationTicks": 240,
            "midi": 66,
            "name": "F#4",
            "ticks": 520800,
            "time": 309.99969000000004,
            "velocity": 0.5511811023622047
          },
          {
            "duration": 0.11428560000001653,
            "durationTicks": 192,
            "midi": 63,
            "name": "D#4",
            "ticks": 521040,
            "time": 310.14254700000004,
            "velocity": 0.5511811023622047
          },
          {
            "duration": 0.22857119999997622,
            "durationTicks": 384,
            "midi": 62,
            "name": "D4",
            "ticks": 521280,
            "time": 310.285404,
            "velocity": 0.5511811023622047
          },
          {
            "duration": 0.14285699999999224,
            "durationTicks": 240,
            "midi": 62,
            "name": "D4",
            "ticks": 521760,
            "time": 310.571118,
            "velocity": 0.5511811023622047
          },
          {
            "duration": 0.11428560000007337,
            "durationTicks": 192,
            "midi": 60,
            "name": "C4",
            "ticks": 522000,
            "time": 310.713975,
            "velocity": 0.5511811023622047
          },
          {
            "duration": 0.22857119999997622,
            "durationTicks": 384,
            "midi": 58,
            "name": "A#3",
            "ticks": 522240,
            "time": 310.85683200000005,
            "velocity": 0.5511811023622047
          },
          {
            "duration": 0.22857119999997622,
            "durationTicks": 384,
            "midi": 58,
            "name": "A#3",
            "ticks": 522720,
            "time": 311.14254600000004,
            "velocity": 0.5511811023622047
          },
          {
            "duration": 0.14285699999999224,
            "durationTicks": 240,
            "midi": 70,
            "name": "A#4",
            "ticks": 523680,
            "time": 311.713974,
            "velocity": 0.5511811023622047
          },
          {
            "duration": 0.11428560000007337,
            "durationTicks": 192,
            "midi": 69,
            "name": "A4",
            "ticks": 523920,
            "time": 311.856831,
            "velocity": 0.5511811023622047
          },
          {
            "duration": 0.2857139999999845,
            "durationTicks": 480,
            "midi": 69,
            "name": "A4",
            "ticks": 524160,
            "time": 311.99968800000005,
            "velocity": 0.5511811023622047
          },
          {
            "duration": 0.2857139999999845,
            "durationTicks": 480,
            "midi": 72,
            "name": "C5",
            "ticks": 524640,
            "time": 312.28540200000003,
            "velocity": 0.5511811023622047
          },
          {
            "duration": 0.2857139999999845,
            "durationTicks": 480,
            "midi": 66,
            "name": "F#4",
            "ticks": 525120,
            "time": 312.571116,
            "velocity": 0.5511811023622047
          },
          {
            "duration": 0.22857120000003306,
            "durationTicks": 384,
            "midi": 69,
            "name": "A4",
            "ticks": 525600,
            "time": 312.85683,
            "velocity": 0.5511811023622047
          },
          {
            "duration": 0.2857139999999845,
            "durationTicks": 480,
            "midi": 67,
            "name": "G4",
            "ticks": 526080,
            "time": 313.14254400000004,
            "velocity": 0.5511811023622047
          },
          {
            "duration": 0.22857119999997622,
            "durationTicks": 384,
            "midi": 62,
            "name": "D4",
            "ticks": 526560,
            "time": 313.428258,
            "velocity": 0.5511811023622047
          },
          {
            "duration": 0.14285699999999224,
            "durationTicks": 240,
            "midi": 70,
            "name": "A#4",
            "ticks": 527520,
            "time": 313.99968600000005,
            "velocity": 0.5511811023622047
          },
          {
            "duration": 0.11428560000001653,
            "durationTicks": 192,
            "midi": 69,
            "name": "A4",
            "ticks": 527760,
            "time": 314.14254300000005,
            "velocity": 0.5511811023622047
          },
          {
            "duration": 0.2857139999999845,
            "durationTicks": 480,
            "midi": 69,
            "name": "A4",
            "ticks": 528000,
            "time": 314.28540000000004,
            "velocity": 0.5511811023622047
          },
          {
            "duration": 0.2857139999999845,
            "durationTicks": 480,
            "midi": 72,
            "name": "C5",
            "ticks": 528480,
            "time": 314.571114,
            "velocity": 0.5511811023622047
          },
          {
            "duration": 0.2857140000000413,
            "durationTicks": 480,
            "midi": 66,
            "name": "F#4",
            "ticks": 528960,
            "time": 314.856828,
            "velocity": 0.5511811023622047
          },
          {
            "duration": 0.22857119999997622,
            "durationTicks": 384,
            "midi": 69,
            "name": "A4",
            "ticks": 529440,
            "time": 315.14254200000005,
            "velocity": 0.5511811023622047
          },
          {
            "duration": 0.2857139999999845,
            "durationTicks": 480,
            "midi": 67,
            "name": "G4",
            "ticks": 529920,
            "time": 315.42825600000003,
            "velocity": 0.5511811023622047
          },
          {
            "duration": 0.22857119999997622,
            "durationTicks": 384,
            "midi": 70,
            "name": "A#4",
            "ticks": 530400,
            "time": 315.71397,
            "velocity": 0.5511811023622047
          },
          {
            "duration": 0.14285700000004908,
            "durationTicks": 240,
            "midi": 69,
            "name": "A4",
            "ticks": 530880,
            "time": 315.999684,
            "velocity": 0.5511811023622047
          },
          {
            "duration": 0.14285699999999224,
            "durationTicks": 240,
            "midi": 67,
            "name": "G4",
            "ticks": 531120,
            "time": 316.14254100000005,
            "velocity": 0.5511811023622047
          },
          {
            "duration": 0.14285699999999224,
            "durationTicks": 240,
            "midi": 65,
            "name": "F4",
            "ticks": 531360,
            "time": 316.28539800000004,
            "velocity": 0.5511811023622047
          },
          {
            "duration": 0.13571414999995568,
            "durationTicks": 228,
            "midi": 63,
            "name": "D#4",
            "ticks": 531600,
            "time": 316.42825500000004,
            "velocity": 0.5511811023622047
          },
          {
            "duration": 1.1428559999999948,
            "durationTicks": 1920,
            "midi": 62,
            "name": "D4",
            "ticks": 531840,
            "time": 316.571112,
            "velocity": 0.5511811023622047
          },
          {
            "duration": 1.0857131999999865,
            "durationTicks": 1824,
            "midi": 61,
            "name": "C#4",
            "ticks": 533760,
            "time": 317.713968,
            "velocity": 0.5511811023622047
          },
          {
            "duration": 0.4571424000000093,
            "durationTicks": 768,
            "midi": 62,
            "name": "D4",
            "ticks": 535680,
            "time": 318.856824,
            "velocity": 0.4566929133858268
          },
          {
            "duration": 0.11428560000001653,
            "durationTicks": 192,
            "midi": 62,
            "name": "D4",
            "ticks": 537120,
            "time": 319.713966,
            "velocity": 0.4566929133858268
          },
          {
            "duration": 0.11428560000001653,
            "durationTicks": 192,
            "midi": 62,
            "name": "D4",
            "ticks": 537360,
            "time": 319.856823,
            "velocity": 0.8267716535433071
          },
          {
            "duration": 0.4571424000000093,
            "durationTicks": 768,
            "midi": 62,
            "name": "D4",
            "ticks": 537600,
            "time": 319.99968,
            "velocity": 0.8267716535433071
          },
          {
            "duration": 0.11428560000001653,
            "durationTicks": 192,
            "midi": 62,
            "name": "D4",
            "ticks": 539040,
            "time": 320.856822,
            "velocity": 0.8267716535433071
          },
          {
            "duration": 0.11428560000001653,
            "durationTicks": 192,
            "midi": 62,
            "name": "D4",
            "ticks": 539280,
            "time": 320.999679,
            "velocity": 0.8267716535433071
          },
          {
            "duration": 0.4571424000000093,
            "durationTicks": 768,
            "midi": 62,
            "name": "D4",
            "ticks": 539520,
            "time": 321.142536,
            "velocity": 0.8267716535433071
          },
          {
            "duration": 0.09999990000000025,
            "durationTicks": 168,
            "midi": 62,
            "name": "D4",
            "ticks": 540960,
            "time": 321.999678,
            "velocity": 0.8267716535433071
          },
          {
            "duration": 0.09999990000000025,
            "durationTicks": 168,
            "midi": 62,
            "name": "D4",
            "ticks": 541200,
            "time": 322.142535,
            "velocity": 0.8267716535433071
          },
          {
            "duration": 0.19999980000005735,
            "durationTicks": 336,
            "midi": 62,
            "name": "D4",
            "ticks": 541440,
            "time": 322.285392,
            "velocity": 0.8267716535433071
          },
          {
            "duration": 0.09999989999994341,
            "durationTicks": 168,
            "midi": 62,
            "name": "D4",
            "ticks": 541920,
            "time": 322.57110600000004,
            "velocity": 0.8267716535433071
          },
          {
            "duration": 0.09999989999994341,
            "durationTicks": 168,
            "midi": 62,
            "name": "D4",
            "ticks": 542160,
            "time": 322.71396300000004,
            "velocity": 0.8267716535433071
          },
          {
            "duration": 0.1999998000000005,
            "durationTicks": 336,
            "midi": 62,
            "name": "D4",
            "ticks": 542400,
            "time": 322.85682,
            "velocity": 0.8267716535433071
          },
          {
            "duration": 0.09999990000000025,
            "durationTicks": 168,
            "midi": 62,
            "name": "D4",
            "ticks": 542880,
            "time": 323.142534,
            "velocity": 0.8267716535433071
          },
          {
            "duration": 0.09999990000000025,
            "durationTicks": 168,
            "midi": 62,
            "name": "D4",
            "ticks": 543120,
            "time": 323.285391,
            "velocity": 0.8267716535433071
          },
          {
            "duration": 0.45714239999995243,
            "durationTicks": 768,
            "midi": 62,
            "name": "D4",
            "ticks": 543360,
            "time": 323.42824800000005,
            "velocity": 0.8267716535433071
          },
          {
            "duration": 0.14285699999999224,
            "durationTicks": 240,
            "midi": 63,
            "name": "D#4",
            "ticks": 544800,
            "time": 324.28539,
            "velocity": 0.5511811023622047
          },
          {
            "duration": 0.11428560000007337,
            "durationTicks": 192,
            "midi": 62,
            "name": "D4",
            "ticks": 545040,
            "time": 324.428247,
            "velocity": 0.5511811023622047
          },
          {
            "duration": 0.22857119999997622,
            "durationTicks": 384,
            "midi": 62,
            "name": "D4",
            "ticks": 545280,
            "time": 324.57110400000005,
            "velocity": 0.5511811023622047
          },
          {
            "duration": 0.14285699999999224,
            "durationTicks": 240,
            "midi": 63,
            "name": "D#4",
            "ticks": 545760,
            "time": 324.85681800000003,
            "velocity": 0.5511811023622047
          },
          {
            "duration": 0.11428560000001653,
            "durationTicks": 192,
            "midi": 62,
            "name": "D4",
            "ticks": 546000,
            "time": 324.999675,
            "velocity": 0.5511811023622047
          },
          {
            "duration": 0.22857119999997622,
            "durationTicks": 384,
            "midi": 62,
            "name": "D4",
            "ticks": 546240,
            "time": 325.142532,
            "velocity": 0.5511811023622047
          },
          {
            "duration": 0.14285700000004908,
            "durationTicks": 240,
            "midi": 63,
            "name": "D#4",
            "ticks": 546720,
            "time": 325.428246,
            "velocity": 0.5511811023622047
          },
          {
            "duration": 0.11428560000001653,
            "durationTicks": 192,
            "midi": 62,
            "name": "D4",
            "ticks": 546960,
            "time": 325.57110300000005,
            "velocity": 0.5511811023622047
          },
          {
            "duration": 0.2857139999999845,
            "durationTicks": 480,
            "midi": 62,
            "name": "D4",
            "ticks": 547200,
            "time": 325.71396000000004,
            "velocity": 0.5511811023622047
          },
          {
            "duration": 0.22857119999997622,
            "durationTicks": 384,
            "midi": 70,
            "name": "A#4",
            "ticks": 547680,
            "time": 325.999674,
            "velocity": 0.5511811023622047
          },
          {
            "duration": 0.14285699999999224,
            "durationTicks": 240,
            "midi": 70,
            "name": "A#4",
            "ticks": 548640,
            "time": 326.57110200000005,
            "velocity": 0.5511811023622047
          },
          {
            "duration": 0.11428560000001653,
            "durationTicks": 192,
            "midi": 68,
            "name": "G#4",
            "ticks": 548880,
            "time": 326.71395900000005,
            "velocity": 0.5511811023622047
          },
          {
            "duration": 0.22857119999997622,
            "durationTicks": 384,
            "midi": 67,
            "name": "G4",
            "ticks": 549120,
            "time": 326.85681600000004,
            "velocity": 0.5511811023622047
          },
          {
            "duration": 0.14285699999999224,
            "durationTicks": 240,
            "midi": 67,
            "name": "G4",
            "ticks": 549600,
            "time": 327.14253,
            "velocity": 0.5511811023622047
          },
          {
            "duration": 0.11428560000001653,
            "durationTicks": 192,
            "midi": 65,
            "name": "F4",
            "ticks": 549840,
            "time": 327.285387,
            "velocity": 0.5511811023622047
          },
          {
            "duration": 0.22857120000003306,
            "durationTicks": 384,
            "midi": 63,
            "name": "D#4",
            "ticks": 550080,
            "time": 327.428244,
            "velocity": 0.5511811023622047
          },
          {
            "duration": 0.14285699999999224,
            "durationTicks": 240,
            "midi": 65,
            "name": "F4",
            "ticks": 550560,
            "time": 327.71395800000005,
            "velocity": 0.5511811023622047
          },
          {
            "duration": 0.11428560000001653,
            "durationTicks": 192,
            "midi": 63,
            "name": "D#4",
            "ticks": 550800,
            "time": 327.85681500000004,
            "velocity": 0.5511811023622047
          },
          {
            "duration": 0.22857119999997622,
            "durationTicks": 384,
            "midi": 62,
            "name": "D4",
            "ticks": 551040,
            "time": 327.99967200000003,
            "velocity": 0.5511811023622047
          },
          {
            "duration": 0.22857119999997622,
            "durationTicks": 384,
            "midi": 62,
            "name": "D4",
            "ticks": 551520,
            "time": 328.285386,
            "velocity": 0.5511811023622047
          },
          {
            "duration": 0.14285699999999224,
            "durationTicks": 240,
            "midi": 70,
            "name": "A#4",
            "ticks": 552480,
            "time": 328.85681400000004,
            "velocity": 0.5511811023622047
          },
          {
            "duration": 0.11428560000001653,
            "durationTicks": 192,
            "midi": 68,
            "name": "G#4",
            "ticks": 552720,
            "time": 328.99967100000003,
            "velocity": 0.5511811023622047
          },
          {
            "duration": 0.22857119999997622,
            "durationTicks": 384,
            "midi": 68,
            "name": "G#4",
            "ticks": 552960,
            "time": 329.142528,
            "velocity": 0.5511811023622047
          },
          {
            "duration": 0.14285699999999224,
            "durationTicks": 240,
            "midi": 70,
            "name": "A#4",
            "ticks": 553440,
            "time": 329.428242,
            "velocity": 0.5511811023622047
          },
          {
            "duration": 0.11428560000007337,
            "durationTicks": 192,
            "midi": 68,
            "name": "G#4",
            "ticks": 553680,
            "time": 329.571099,
            "velocity": 0.5511811023622047
          },
          {
            "duration": 0.22857119999997622,
            "durationTicks": 384,
            "midi": 68,
            "name": "G#4",
            "ticks": 553920,
            "time": 329.71395600000005,
            "velocity": 0.5511811023622047
          },
          {
            "duration": 0.14285699999999224,
            "durationTicks": 240,
            "midi": 70,
            "name": "A#4",
            "ticks": 554400,
            "time": 329.99967000000004,
            "velocity": 0.5511811023622047
          },
          {
            "duration": 0.11428560000001653,
            "durationTicks": 192,
            "midi": 68,
            "name": "G#4",
            "ticks": 554640,
            "time": 330.14252700000003,
            "velocity": 0.5511811023622047
          },
          {
            "duration": 0.2857139999999845,
            "durationTicks": 480,
            "midi": 68,
            "name": "G#4",
            "ticks": 554880,
            "time": 330.285384,
            "velocity": 0.5511811023622047
          },
          {
            "duration": 0.22857120000003306,
            "durationTicks": 384,
            "midi": 58,
            "name": "A#3",
            "ticks": 555360,
            "time": 330.571098,
            "velocity": 0.5511811023622047
          },
          {
            "duration": 0.14285699999999224,
            "durationTicks": 240,
            "midi": 65,
            "name": "F4",
            "ticks": 556320,
            "time": 331.14252600000003,
            "velocity": 0.5511811023622047
          },
          {
            "duration": 0.11428560000001653,
            "durationTicks": 192,
            "midi": 63,
            "name": "D#4",
            "ticks": 556560,
            "time": 331.285383,
            "velocity": 0.5511811023622047
          },
          {
            "duration": 0.22857119999997622,
            "durationTicks": 384,
            "midi": 62,
            "name": "D4",
            "ticks": 556800,
            "time": 331.42824,
            "velocity": 0.5511811023622047
          },
          {
            "duration": 0.14285700000004908,
            "durationTicks": 240,
            "midi": 62,
            "name": "D4",
            "ticks": 557280,
            "time": 331.713954,
            "velocity": 0.5511811023622047
          },
          {
            "duration": 0.11428560000001653,
            "durationTicks": 192,
            "midi": 60,
            "name": "C4",
            "ticks": 557520,
            "time": 331.85681100000005,
            "velocity": 0.5511811023622047
          },
          {
            "duration": 0.22857119999997622,
            "durationTicks": 384,
            "midi": 58,
            "name": "A#3",
            "ticks": 557760,
            "time": 331.99966800000004,
            "velocity": 0.5511811023622047
          },
          {
            "duration": 0.14285699999999224,
            "durationTicks": 240,
            "midi": 58,
            "name": "A#3",
            "ticks": 558240,
            "time": 332.285382,
            "velocity": 0.5511811023622047
          },
          {
            "duration": 0.11428560000001653,
            "durationTicks": 192,
            "midi": 56,
            "name": "G#3",
            "ticks": 558480,
            "time": 332.428239,
            "velocity": 0.5511811023622047
          },
          {
            "duration": 0.9142848000000185,
            "durationTicks": 1536,
            "midi": 55,
            "name": "G3",
            "ticks": 558720,
            "time": 332.571096,
            "velocity": 0.8267716535433071
          },
          {
            "duration": 0.9142848000000185,
            "durationTicks": 1536,
            "midi": 63,
            "name": "D#4",
            "ticks": 558720,
            "time": 332.571096,
            "velocity": 0.8267716535433071
          },
          {
            "duration": 0.6857136000000423,
            "durationTicks": 1152,
            "midi": 62,
            "name": "D4",
            "ticks": 560640,
            "time": 333.713952,
            "velocity": 0.8267716535433071
          },
          {
            "duration": 0.6857136000000423,
            "durationTicks": 1152,
            "midi": 70,
            "name": "A#4",
            "ticks": 560640,
            "time": 333.713952,
            "velocity": 0.8267716535433071
          },
          {
            "duration": 0.0785713500000611,
            "durationTicks": 132,
            "midi": 70,
            "name": "A#4",
            "ticks": 562320,
            "time": 334.713951,
            "velocity": 0.8267716535433071
          },
          {
            "duration": 0.15714270000000852,
            "durationTicks": 264,
            "midi": 68,
            "name": "G#4",
            "ticks": 562560,
            "time": 334.856808,
            "velocity": 0.8267716535433071
          },
          {
            "duration": 0.15714269999995167,
            "durationTicks": 264,
            "midi": 72,
            "name": "C5",
            "ticks": 563040,
            "time": 335.14252200000004,
            "velocity": 0.8267716535433071
          },
          {
            "duration": 0.15714270000000852,
            "durationTicks": 264,
            "midi": 75,
            "name": "D#5",
            "ticks": 563520,
            "time": 335.428236,
            "velocity": 0.8267716535433071
          },
          {
            "duration": 0.15714269999995167,
            "durationTicks": 264,
            "midi": 67,
            "name": "G4",
            "ticks": 564480,
            "time": 335.99966400000005,
            "velocity": 0.8267716535433071
          },
          {
            "duration": 0.15714269999995167,
            "durationTicks": 264,
            "midi": 70,
            "name": "A#4",
            "ticks": 564960,
            "time": 336.28537800000004,
            "velocity": 0.8267716535433071
          },
          {
            "duration": 0.15714270000000852,
            "durationTicks": 264,
            "midi": 75,
            "name": "D#5",
            "ticks": 565440,
            "time": 336.571092,
            "velocity": 0.8267716535433071
          },
          {
            "duration": 0.07857135000000426,
            "durationTicks": 132,
            "midi": 67,
            "name": "G4",
            "ticks": 566160,
            "time": 336.99966300000006,
            "velocity": 0.8267716535433071
          },
          {
            "duration": 0.15714269999995167,
            "durationTicks": 264,
            "midi": 65,
            "name": "F4",
            "ticks": 566400,
            "time": 337.14252000000005,
            "velocity": 0.8267716535433071
          },
          {
            "duration": 0.15714270000000852,
            "durationTicks": 264,
            "midi": 68,
            "name": "G#4",
            "ticks": 566880,
            "time": 337.42823400000003,
            "velocity": 0.8267716535433071
          },
          {
            "duration": 0.15714270000000852,
            "durationTicks": 264,
            "midi": 72,
            "name": "C5",
            "ticks": 567360,
            "time": 337.713948,
            "velocity": 0.8267716535433071
          },
          {
            "duration": 0.15714270000000852,
            "durationTicks": 264,
            "midi": 65,
            "name": "F4",
            "ticks": 567840,
            "time": 337.999662,
            "velocity": 0.8267716535433071
          },
          {
            "duration": 0.15714269999995167,
            "durationTicks": 264,
            "midi": 64,
            "name": "E4",
            "ticks": 568320,
            "time": 338.28537600000004,
            "velocity": 0.8267716535433071
          },
          {
            "duration": 0.15714270000000852,
            "durationTicks": 264,
            "midi": 67,
            "name": "G4",
            "ticks": 568800,
            "time": 338.57109,
            "velocity": 0.8267716535433071
          },
          {
            "duration": 0.15714270000000852,
            "durationTicks": 264,
            "midi": 70,
            "name": "A#4",
            "ticks": 569280,
            "time": 338.856804,
            "velocity": 0.8267716535433071
          },
          {
            "duration": 0.15714269999995167,
            "durationTicks": 264,
            "midi": 61,
            "name": "C#4",
            "ticks": 569760,
            "time": 339.14251800000005,
            "velocity": 0.8267716535433071
          },
          {
            "duration": 0.15714269999995167,
            "durationTicks": 264,
            "midi": 60,
            "name": "C4",
            "ticks": 570240,
            "time": 339.42823200000004,
            "velocity": 0.8267716535433071
          },
          {
            "duration": 0.15714270000000852,
            "durationTicks": 264,
            "midi": 64,
            "name": "E4",
            "ticks": 570720,
            "time": 339.713946,
            "velocity": 0.8267716535433071
          },
          {
            "duration": 0.15714270000000852,
            "durationTicks": 264,
            "midi": 67,
            "name": "G4",
            "ticks": 571200,
            "time": 339.99966,
            "velocity": 0.8267716535433071
          },
          {
            "duration": 0.15714269999995167,
            "durationTicks": 264,
            "midi": 60,
            "name": "C4",
            "ticks": 571680,
            "time": 340.28537400000005,
            "velocity": 0.8267716535433071
          },
          {
            "duration": 0.11428560000001653,
            "durationTicks": 192,
            "midi": 68,
            "name": "G#4",
            "ticks": 572160,
            "time": 340.57108800000003,
            "velocity": 0.7244094488188977
          },
          {
            "duration": 0.11428560000001653,
            "durationTicks": 192,
            "midi": 65,
            "name": "F4",
            "ticks": 572400,
            "time": 340.713945,
            "velocity": 0.7244094488188977
          },
          {
            "duration": 0.11428560000001653,
            "durationTicks": 192,
            "midi": 72,
            "name": "C5",
            "ticks": 572640,
            "time": 340.856802,
            "velocity": 0.7244094488188977
          },
          {
            "duration": 0.11428560000007337,
            "durationTicks": 192,
            "midi": 68,
            "name": "G#4",
            "ticks": 572880,
            "time": 340.999659,
            "velocity": 0.7244094488188977
          },
          {
            "duration": 0.11428560000007337,
            "durationTicks": 192,
            "midi": 77,
            "name": "F5",
            "ticks": 573120,
            "time": 341.142516,
            "velocity": 0.7244094488188977
          },
          {
            "duration": 0.11428560000001653,
            "durationTicks": 192,
            "midi": 72,
            "name": "C5",
            "ticks": 573360,
            "time": 341.28537300000005,
            "velocity": 0.7244094488188977
          },
          {
            "duration": 0.11428560000001653,
            "durationTicks": 192,
            "midi": 80,
            "name": "G#5",
            "ticks": 573600,
            "time": 341.42823000000004,
            "velocity": 0.7244094488188977
          },
          {
            "duration": 0.11428560000001653,
            "durationTicks": 192,
            "midi": 77,
            "name": "F5",
            "ticks": 573840,
            "time": 341.57108700000003,
            "velocity": 0.7244094488188977
          },
          {
            "duration": 0.11428560000001653,
            "durationTicks": 192,
            "midi": 76,
            "name": "E5",
            "ticks": 574080,
            "time": 341.713944,
            "velocity": 0.7244094488188977
          },
          {
            "duration": 0.11428560000001653,
            "durationTicks": 192,
            "midi": 79,
            "name": "G5",
            "ticks": 574320,
            "time": 341.856801,
            "velocity": 0.7244094488188977
          },
          {
            "duration": 0.11428560000001653,
            "durationTicks": 192,
            "midi": 84,
            "name": "C6",
            "ticks": 574560,
            "time": 341.999658,
            "velocity": 0.7244094488188977
          },
          {
            "duration": 0.11428560000007337,
            "durationTicks": 192,
            "midi": 82,
            "name": "A#5",
            "ticks": 574800,
            "time": 342.142515,
            "velocity": 0.7244094488188977
          },
          {
            "duration": 0.11428560000001653,
            "durationTicks": 192,
            "midi": 80,
            "name": "G#5",
            "ticks": 575040,
            "time": 342.28537200000005,
            "velocity": 0.7244094488188977
          },
          {
            "duration": 0.11428560000001653,
            "durationTicks": 192,
            "midi": 79,
            "name": "G5",
            "ticks": 575280,
            "time": 342.42822900000004,
            "velocity": 0.7244094488188977
          },
          {
            "duration": 0.11428560000001653,
            "durationTicks": 192,
            "midi": 77,
            "name": "F5",
            "ticks": 575520,
            "time": 342.57108600000004,
            "velocity": 0.7244094488188977
          },
          {
            "duration": 0.11428560000001653,
            "durationTicks": 192,
            "midi": 75,
            "name": "D#5",
            "ticks": 575760,
            "time": 342.71394300000003,
            "velocity": 0.7244094488188977
          },
          {
            "duration": 0.11428560000001653,
            "durationTicks": 192,
            "midi": 73,
            "name": "C#5",
            "ticks": 576000,
            "time": 342.8568,
            "velocity": 0.7244094488188977
          },
          {
            "duration": 0.11428560000001653,
            "durationTicks": 192,
            "midi": 77,
            "name": "F5",
            "ticks": 576240,
            "time": 342.999657,
            "velocity": 0.7244094488188977
          },
          {
            "duration": 0.11428560000007337,
            "durationTicks": 192,
            "midi": 82,
            "name": "A#5",
            "ticks": 576480,
            "time": 343.142514,
            "velocity": 0.7244094488188977
          },
          {
            "duration": 0.11428560000001653,
            "durationTicks": 192,
            "midi": 80,
            "name": "G#5",
            "ticks": 576720,
            "time": 343.28537100000005,
            "velocity": 0.7244094488188977
          },
          {
            "duration": 0.11428560000001653,
            "durationTicks": 192,
            "midi": 79,
            "name": "G5",
            "ticks": 576960,
            "time": 343.42822800000005,
            "velocity": 0.7244094488188977
          },
          {
            "duration": 0.11428560000001653,
            "durationTicks": 192,
            "midi": 77,
            "name": "F5",
            "ticks": 577200,
            "time": 343.57108500000004,
            "velocity": 0.7244094488188977
          },
          {
            "duration": 0.11428560000001653,
            "durationTicks": 192,
            "midi": 75,
            "name": "D#5",
            "ticks": 577440,
            "time": 343.71394200000003,
            "velocity": 0.7244094488188977
          },
          {
            "duration": 0.11428560000001653,
            "durationTicks": 192,
            "midi": 73,
            "name": "C#5",
            "ticks": 577680,
            "time": 343.856799,
            "velocity": 0.7244094488188977
          },
          {
            "duration": 0.11428560000001653,
            "durationTicks": 192,
            "midi": 72,
            "name": "C5",
            "ticks": 577920,
            "time": 343.999656,
            "velocity": 0.7244094488188977
          },
          {
            "duration": 0.11428560000007337,
            "durationTicks": 192,
            "midi": 75,
            "name": "D#5",
            "ticks": 578160,
            "time": 344.142513,
            "velocity": 0.7244094488188977
          },
          {
            "duration": 0.11428560000007337,
            "durationTicks": 192,
            "midi": 80,
            "name": "G#5",
            "ticks": 578400,
            "time": 344.28537,
            "velocity": 0.7244094488188977
          },
          {
            "duration": 0.11428560000001653,
            "durationTicks": 192,
            "midi": 79,
            "name": "G5",
            "ticks": 578640,
            "time": 344.42822700000005,
            "velocity": 0.7244094488188977
          },
          {
            "duration": 0.11428560000001653,
            "durationTicks": 192,
            "midi": 77,
            "name": "F5",
            "ticks": 578880,
            "time": 344.57108400000004,
            "velocity": 0.7244094488188977
          },
          {
            "duration": 0.11428560000001653,
            "durationTicks": 192,
            "midi": 75,
            "name": "D#5",
            "ticks": 579120,
            "time": 344.71394100000003,
            "velocity": 0.7244094488188977
          },
          {
            "duration": 0.11428560000001653,
            "durationTicks": 192,
            "midi": 73,
            "name": "C#5",
            "ticks": 579360,
            "time": 344.856798,
            "velocity": 0.7244094488188977
          },
          {
            "duration": 0.11428560000001653,
            "durationTicks": 192,
            "midi": 72,
            "name": "C5",
            "ticks": 579600,
            "time": 344.999655,
            "velocity": 0.7244094488188977
          },
          {
            "duration": 0.11428560000001653,
            "durationTicks": 192,
            "midi": 70,
            "name": "A#4",
            "ticks": 579840,
            "time": 345.142512,
            "velocity": 0.7244094488188977
          },
          {
            "duration": 0.11428560000007337,
            "durationTicks": 192,
            "midi": 73,
            "name": "C#5",
            "ticks": 580080,
            "time": 345.285369,
            "velocity": 0.7244094488188977
          },
          {
            "duration": 0.11428560000001653,
            "durationTicks": 192,
            "midi": 79,
            "name": "G5",
            "ticks": 580320,
            "time": 345.42822600000005,
            "velocity": 0.7244094488188977
          },
          {
            "duration": 0.11428560000001653,
            "durationTicks": 192,
            "midi": 77,
            "name": "F5",
            "ticks": 580560,
            "time": 345.57108300000004,
            "velocity": 0.7244094488188977
          },
          {
            "duration": 0.11428560000001653,
            "durationTicks": 192,
            "midi": 76,
            "name": "E5",
            "ticks": 580800,
            "time": 345.71394000000004,
            "velocity": 0.7244094488188977
          },
          {
            "duration": 0.11428560000001653,
            "durationTicks": 192,
            "midi": 73,
            "name": "C#5",
            "ticks": 581040,
            "time": 345.85679700000003,
            "velocity": 0.7244094488188977
          },
          {
            "duration": 0.11428560000001653,
            "durationTicks": 192,
            "midi": 72,
            "name": "C5",
            "ticks": 581280,
            "time": 345.999654,
            "velocity": 0.7244094488188977
          },
          {
            "duration": 0.11428560000001653,
            "durationTicks": 192,
            "midi": 70,
            "name": "A#4",
            "ticks": 581520,
            "time": 346.142511,
            "velocity": 0.7244094488188977
          },
          {
            "duration": 0.11428560000007337,
            "durationTicks": 192,
            "midi": 68,
            "name": "G#4",
            "ticks": 581760,
            "time": 346.285368,
            "velocity": 0.8267716535433071
          },
          {
            "duration": 0.11428560000001653,
            "durationTicks": 192,
            "midi": 65,
            "name": "F4",
            "ticks": 582000,
            "time": 346.42822500000005,
            "velocity": 0.8267716535433071
          },
          {
            "duration": 0.11428560000001653,
            "durationTicks": 192,
            "midi": 72,
            "name": "C5",
            "ticks": 582240,
            "time": 346.57108200000005,
            "velocity": 0.8267716535433071
          },
          {
            "duration": 0.11428560000001653,
            "durationTicks": 192,
            "midi": 70,
            "name": "A#4",
            "ticks": 582480,
            "time": 346.71393900000004,
            "velocity": 0.8267716535433071
          },
          {
            "duration": 0.11428560000001653,
            "durationTicks": 192,
            "midi": 68,
            "name": "G#4",
            "ticks": 582720,
            "time": 346.85679600000003,
            "velocity": 0.8267716535433071
          },
          {
            "duration": 0.11428560000001653,
            "durationTicks": 192,
            "midi": 67,
            "name": "G4",
            "ticks": 582960,
            "time": 346.999653,
            "velocity": 0.8267716535433071
          },
          {
            "duration": 0.11428560000001653,
            "durationTicks": 192,
            "midi": 65,
            "name": "F4",
            "ticks": 583200,
            "time": 347.14251,
            "velocity": 0.8267716535433071
          },
          {
            "duration": 0.11428560000007337,
            "durationTicks": 192,
            "midi": 63,
            "name": "D#4",
            "ticks": 583440,
            "time": 347.285367,
            "velocity": 0.8267716535433071
          },
          {
            "duration": 0.11428560000007337,
            "durationTicks": 192,
            "midi": 62,
            "name": "D4",
            "ticks": 583680,
            "time": 347.428224,
            "velocity": 0.8267716535433071
          },
          {
            "duration": 0.11428560000001653,
            "durationTicks": 192,
            "midi": 70,
            "name": "A#4",
            "ticks": 583920,
            "time": 347.57108100000005,
            "velocity": 0.8267716535433071
          },
          {
            "duration": 0.11428560000001653,
            "durationTicks": 192,
            "midi": 77,
            "name": "F5",
            "ticks": 584160,
            "time": 347.71393800000004,
            "velocity": 0.8267716535433071
          },
          {
            "duration": 0.11428560000001653,
            "durationTicks": 192,
            "midi": 75,
            "name": "D#5",
            "ticks": 584400,
            "time": 347.85679500000003,
            "velocity": 0.8267716535433071
          },
          {
            "duration": 0.11428560000001653,
            "durationTicks": 192,
            "midi": 74,
            "name": "D5",
            "ticks": 584640,
            "time": 347.999652,
            "velocity": 0.8267716535433071
          },
          {
            "duration": 0.11428560000001653,
            "durationTicks": 192,
            "midi": 72,
            "name": "C5",
            "ticks": 584880,
            "time": 348.142509,
            "velocity": 0.8267716535433071
          },
          {
            "duration": 0.11428560000001653,
            "durationTicks": 192,
            "midi": 70,
            "name": "A#4",
            "ticks": 585120,
            "time": 348.285366,
            "velocity": 0.8267716535433071
          },
          {
            "duration": 0.11428560000007337,
            "durationTicks": 192,
            "midi": 68,
            "name": "G#4",
            "ticks": 585360,
            "time": 348.428223,
            "velocity": 0.8267716535433071
          },
          {
            "duration": 0.11428560000001653,
            "durationTicks": 192,
            "midi": 67,
            "name": "G4",
            "ticks": 585600,
            "time": 348.57108000000005,
            "velocity": 0.8267716535433071
          },
          {
            "duration": 0.11428560000001653,
            "durationTicks": 192,
            "midi": 63,
            "name": "D#4",
            "ticks": 585840,
            "time": 348.71393700000004,
            "velocity": 0.8267716535433071
          },
          {
            "duration": 0.11428560000001653,
            "durationTicks": 192,
            "midi": 70,
            "name": "A#4",
            "ticks": 586080,
            "time": 348.85679400000004,
            "velocity": 0.8267716535433071
          },
          {
            "duration": 0.11428560000001653,
            "durationTicks": 192,
            "midi": 68,
            "name": "G#4",
            "ticks": 586320,
            "time": 348.99965100000003,
            "velocity": 0.8267716535433071
          },
          {
            "duration": 0.11428560000001653,
            "durationTicks": 192,
            "midi": 67,
            "name": "G4",
            "ticks": 586560,
            "time": 349.142508,
            "velocity": 0.8267716535433071
          },
          {
            "duration": 0.11428560000001653,
            "durationTicks": 192,
            "midi": 65,
            "name": "F4",
            "ticks": 586800,
            "time": 349.285365,
            "velocity": 0.8267716535433071
          },
          {
            "duration": 0.11428560000007337,
            "durationTicks": 192,
            "midi": 63,
            "name": "D#4",
            "ticks": 587040,
            "time": 349.428222,
            "velocity": 0.8267716535433071
          },
          {
            "duration": 0.11428560000001653,
            "durationTicks": 192,
            "midi": 62,
            "name": "D4",
            "ticks": 587280,
            "time": 349.57107900000005,
            "velocity": 0.8267716535433071
          },
          {
            "duration": 0.11428560000001653,
            "durationTicks": 192,
            "midi": 60,
            "name": "C4",
            "ticks": 587520,
            "time": 349.71393600000005,
            "velocity": 0.8267716535433071
          },
          {
            "duration": 0.11428560000001653,
            "durationTicks": 192,
            "midi": 68,
            "name": "G#4",
            "ticks": 587760,
            "time": 349.85679300000004,
            "velocity": 0.8267716535433071
          },
          {
            "duration": 0.11428560000001653,
            "durationTicks": 192,
            "midi": 75,
            "name": "D#5",
            "ticks": 588000,
            "time": 349.99965000000003,
            "velocity": 0.8267716535433071
          },
          {
            "duration": 0.11428560000001653,
            "durationTicks": 192,
            "midi": 74,
            "name": "D5",
            "ticks": 588240,
            "time": 350.142507,
            "velocity": 0.8267716535433071
          },
          {
            "duration": 0.11428560000001653,
            "durationTicks": 192,
            "midi": 72,
            "name": "C5",
            "ticks": 588480,
            "time": 350.285364,
            "velocity": 0.8267716535433071
          },
          {
            "duration": 0.11428560000007337,
            "durationTicks": 192,
            "midi": 70,
            "name": "A#4",
            "ticks": 588720,
            "time": 350.428221,
            "velocity": 0.8267716535433071
          },
          {
            "duration": 0.11428560000001653,
            "durationTicks": 192,
            "midi": 68,
            "name": "G#4",
            "ticks": 588960,
            "time": 350.57107800000006,
            "velocity": 0.8267716535433071
          },
          {
            "duration": 0.11428560000001653,
            "durationTicks": 192,
            "midi": 67,
            "name": "G4",
            "ticks": 589200,
            "time": 350.71393500000005,
            "velocity": 0.8267716535433071
          },
          {
            "duration": 0.11428560000001653,
            "durationTicks": 192,
            "midi": 65,
            "name": "F4",
            "ticks": 589440,
            "time": 350.85679200000004,
            "velocity": 0.8267716535433071
          },
          {
            "duration": 0.11428560000001653,
            "durationTicks": 192,
            "midi": 69,
            "name": "A4",
            "ticks": 589680,
            "time": 350.99964900000003,
            "velocity": 0.8267716535433071
          },
          {
            "duration": 0.11428560000001653,
            "durationTicks": 192,
            "midi": 74,
            "name": "D5",
            "ticks": 589920,
            "time": 351.142506,
            "velocity": 0.8267716535433071
          },
          {
            "duration": 0.11428560000001653,
            "durationTicks": 192,
            "midi": 75,
            "name": "D#5",
            "ticks": 590160,
            "time": 351.285363,
            "velocity": 0.8267716535433071
          },
          {
            "duration": 0.11428560000001653,
            "durationTicks": 192,
            "midi": 77,
            "name": "F5",
            "ticks": 590400,
            "time": 351.42822,
            "velocity": 0.8267716535433071
          },
          {
            "duration": 0.11428560000007337,
            "durationTicks": 192,
            "midi": 75,
            "name": "D#5",
            "ticks": 590640,
            "time": 351.571077,
            "velocity": 0.8267716535433071
          },
          {
            "duration": 0.11428560000001653,
            "durationTicks": 192,
            "midi": 74,
            "name": "D5",
            "ticks": 590880,
            "time": 351.71393400000005,
            "velocity": 0.8267716535433071
          },
          {
            "duration": 0.11428560000001653,
            "durationTicks": 192,
            "midi": 72,
            "name": "C5",
            "ticks": 591120,
            "time": 351.85679100000004,
            "velocity": 0.8267716535433071
          },
          {
            "duration": 0.11428560000001653,
            "durationTicks": 192,
            "midi": 71,
            "name": "B4",
            "ticks": 591360,
            "time": 351.99964800000004,
            "velocity": 0.8267716535433071
          },
          {
            "duration": 0.11428560000001653,
            "durationTicks": 192,
            "midi": 67,
            "name": "G4",
            "ticks": 591600,
            "time": 352.142505,
            "velocity": 0.8267716535433071
          },
          {
            "duration": 0.11428560000001653,
            "durationTicks": 192,
            "midi": 74,
            "name": "D5",
            "ticks": 591840,
            "time": 352.285362,
            "velocity": 0.8267716535433071
          },
          {
            "duration": 0.11428560000001653,
            "durationTicks": 192,
            "midi": 72,
            "name": "C5",
            "ticks": 592080,
            "time": 352.428219,
            "velocity": 0.8267716535433071
          },
          {
            "duration": 0.11428560000007337,
            "durationTicks": 192,
            "midi": 71,
            "name": "B4",
            "ticks": 592320,
            "time": 352.571076,
            "velocity": 0.8267716535433071
          },
          {
            "duration": 0.11428560000001653,
            "durationTicks": 192,
            "midi": 69,
            "name": "A4",
            "ticks": 592560,
            "time": 352.71393300000005,
            "velocity": 0.8267716535433071
          },
          {
            "duration": 0.11428560000001653,
            "durationTicks": 192,
            "midi": 67,
            "name": "G4",
            "ticks": 592800,
            "time": 352.85679000000005,
            "velocity": 0.8267716535433071
          },
          {
            "duration": 0.11428560000001653,
            "durationTicks": 192,
            "midi": 65,
            "name": "F4",
            "ticks": 593040,
            "time": 352.99964700000004,
            "velocity": 0.8267716535433071
          },
          {
            "duration": 0.11428560000001653,
            "durationTicks": 192,
            "midi": 63,
            "name": "D#4",
            "ticks": 593280,
            "time": 353.14250400000003,
            "velocity": 0.8267716535433071
          },
          {
            "duration": 0.11428560000001653,
            "durationTicks": 192,
            "midi": 60,
            "name": "C4",
            "ticks": 593520,
            "time": 353.285361,
            "velocity": 0.8267716535433071
          },
          {
            "duration": 0.11428560000001653,
            "durationTicks": 192,
            "midi": 67,
            "name": "G4",
            "ticks": 593760,
            "time": 353.428218,
            "velocity": 0.8267716535433071
          },
          {
            "duration": 0.11428560000007337,
            "durationTicks": 192,
            "midi": 63,
            "name": "D#4",
            "ticks": 594000,
            "time": 353.571075,
            "velocity": 0.8267716535433071
          },
          {
            "duration": 0.11428560000001653,
            "durationTicks": 192,
            "midi": 72,
            "name": "C5",
            "ticks": 594240,
            "time": 353.71393200000006,
            "velocity": 0.8267716535433071
          },
          {
            "duration": 0.11428560000001653,
            "durationTicks": 192,
            "midi": 70,
            "name": "A#4",
            "ticks": 594480,
            "time": 353.85678900000005,
            "velocity": 0.8267716535433071
          },
          {
            "duration": 0.11428560000001653,
            "durationTicks": 192,
            "midi": 69,
            "name": "A4",
            "ticks": 594720,
            "time": 353.99964600000004,
            "velocity": 0.8267716535433071
          },
          {
            "duration": 0.11428560000001653,
            "durationTicks": 192,
            "midi": 67,
            "name": "G4",
            "ticks": 594960,
            "time": 354.14250300000003,
            "velocity": 0.8267716535433071
          },
          {
            "duration": 0.11428560000001653,
            "durationTicks": 192,
            "midi": 66,
            "name": "F#4",
            "ticks": 595200,
            "time": 354.28536,
            "velocity": 0.8267716535433071
          },
          {
            "duration": 0.11428560000001653,
            "durationTicks": 192,
            "midi": 67,
            "name": "G4",
            "ticks": 595440,
            "time": 354.428217,
            "velocity": 0.8267716535433071
          },
          {
            "duration": 0.11428560000007337,
            "durationTicks": 192,
            "midi": 69,
            "name": "A4",
            "ticks": 595680,
            "time": 354.571074,
            "velocity": 0.8267716535433071
          },
          {
            "duration": 0.11428560000007337,
            "durationTicks": 192,
            "midi": 67,
            "name": "G4",
            "ticks": 595920,
            "time": 354.713931,
            "velocity": 0.8267716535433071
          },
          {
            "duration": 0.11428560000001653,
            "durationTicks": 192,
            "midi": 66,
            "name": "F#4",
            "ticks": 596160,
            "time": 354.85678800000005,
            "velocity": 0.8267716535433071
          },
          {
            "duration": 0.11428560000001653,
            "durationTicks": 192,
            "midi": 63,
            "name": "D#4",
            "ticks": 596400,
            "time": 354.99964500000004,
            "velocity": 0.8267716535433071
          },
          {
            "duration": 0.11428560000001653,
            "durationTicks": 192,
            "midi": 62,
            "name": "D4",
            "ticks": 596640,
            "time": 355.14250200000004,
            "velocity": 0.8267716535433071
          },
          {
            "duration": 0.11428560000001653,
            "durationTicks": 192,
            "midi": 60,
            "name": "C4",
            "ticks": 596880,
            "time": 355.285359,
            "velocity": 0.8267716535433071
          },
          {
            "duration": 0.9142848000000185,
            "durationTicks": 1536,
            "midi": 55,
            "name": "G3",
            "ticks": 597120,
            "time": 355.428216,
            "velocity": 0.8267716535433071
          },
          {
            "duration": 0.9142848000000185,
            "durationTicks": 1536,
            "midi": 67,
            "name": "G4",
            "ticks": 597120,
            "time": 355.428216,
            "velocity": 0.8267716535433071
          },
          {
            "duration": 0.6857136000000423,
            "durationTicks": 1152,
            "midi": 62,
            "name": "D4",
            "ticks": 599040,
            "time": 356.571072,
            "velocity": 0.8267716535433071
          },
          {
            "duration": 0.6857136000000423,
            "durationTicks": 1152,
            "midi": 74,
            "name": "D5",
            "ticks": 599040,
            "time": 356.571072,
            "velocity": 0.8267716535433071
          },
          {
            "duration": 0.0785713500000611,
            "durationTicks": 132,
            "midi": 74,
            "name": "D5",
            "ticks": 600720,
            "time": 357.571071,
            "velocity": 0.8267716535433071
          },
          {
            "duration": 0.15714270000000852,
            "durationTicks": 264,
            "midi": 72,
            "name": "C5",
            "ticks": 600960,
            "time": 357.713928,
            "velocity": 0.8267716535433071
          },
          {
            "duration": 0.15714269999995167,
            "durationTicks": 264,
            "midi": 75,
            "name": "D#5",
            "ticks": 601440,
            "time": 357.99964200000005,
            "velocity": 0.8267716535433071
          },
          {
            "duration": 0.15714270000000852,
            "durationTicks": 264,
            "midi": 79,
            "name": "G5",
            "ticks": 601920,
            "time": 358.28535600000004,
            "velocity": 0.8267716535433071
          },
          {
            "duration": 0.15714270000000852,
            "durationTicks": 264,
            "midi": 70,
            "name": "A#4",
            "ticks": 602880,
            "time": 358.856784,
            "velocity": 0.8267716535433071
          },
          {
            "duration": 0.15714269999995167,
            "durationTicks": 264,
            "midi": 74,
            "name": "D5",
            "ticks": 603360,
            "time": 359.14249800000005,
            "velocity": 0.8267716535433071
          },
          {
            "duration": 0.15714270000000852,
            "durationTicks": 264,
            "midi": 79,
            "name": "G5",
            "ticks": 603840,
            "time": 359.42821200000003,
            "velocity": 0.8267716535433071
          },
          {
            "duration": 0.0785713500000611,
            "durationTicks": 132,
            "midi": 82,
            "name": "A#5",
            "ticks": 604560,
            "time": 359.856783,
            "velocity": 0.8267716535433071
          },
          {
            "duration": 0.15714269999995167,
            "durationTicks": 264,
            "midi": 81,
            "name": "A5",
            "ticks": 604800,
            "time": 359.99964000000006,
            "velocity": 0.8267716535433071
          },
          {
            "duration": 0.15714269999995167,
            "durationTicks": 264,
            "midi": 84,
            "name": "C6",
            "ticks": 605280,
            "time": 360.28535400000004,
            "velocity": 0.8267716535433071
          },
          {
            "duration": 0.15714270000000852,
            "durationTicks": 264,
            "midi": 87,
            "name": "D#6",
            "ticks": 605760,
            "time": 360.571068,
            "velocity": 0.8267716535433071
          },
          {
            "duration": 0.0785713500000611,
            "durationTicks": 132,
            "midi": 78,
            "name": "F#5",
            "ticks": 606480,
            "time": 360.999639,
            "velocity": 0.8267716535433071
          },
          {
            "duration": 0.15714269999995167,
            "durationTicks": 264,
            "midi": 79,
            "name": "G5",
            "ticks": 606720,
            "time": 361.14249600000005,
            "velocity": 0.8267716535433071
          },
          {
            "duration": 0.15714270000000852,
            "durationTicks": 264,
            "midi": 82,
            "name": "A#5",
            "ticks": 607200,
            "time": 361.42821000000004,
            "velocity": 0.8267716535433071
          },
          {
            "duration": 0.15714270000000852,
            "durationTicks": 264,
            "midi": 86,
            "name": "D6",
            "ticks": 607680,
            "time": 361.713924,
            "velocity": 0.8267716535433071
          },
          {
            "duration": 0.07857135000000426,
            "durationTicks": 132,
            "midi": 62,
            "name": "D4",
            "ticks": 608400,
            "time": 362.14249500000005,
            "velocity": 0.8267716535433071
          },
          {
            "duration": 0.11428560000001653,
            "durationTicks": 192,
            "midi": 61,
            "name": "C#4",
            "ticks": 608640,
            "time": 362.28535200000005,
            "velocity": 0.984251968503937
          },
          {
            "duration": 0.11428560000001653,
            "durationTicks": 192,
            "midi": 62,
            "name": "D4",
            "ticks": 608880,
            "time": 362.42820900000004,
            "velocity": 0.8267716535433071
          },
          {
            "duration": 0.11428560000001653,
            "durationTicks": 192,
            "midi": 64,
            "name": "E4",
            "ticks": 609120,
            "time": 362.57106600000003,
            "velocity": 0.8267716535433071
          },
          {
            "duration": 0.11428560000001653,
            "durationTicks": 192,
            "midi": 65,
            "name": "F4",
            "ticks": 609360,
            "time": 362.713923,
            "velocity": 0.8267716535433071
          },
          {
            "duration": 0.11428560000001653,
            "durationTicks": 192,
            "midi": 67,
            "name": "G4",
            "ticks": 609600,
            "time": 362.85678,
            "velocity": 0.8267716535433071
          },
          {
            "duration": 0.11428560000007337,
            "durationTicks": 192,
            "midi": 69,
            "name": "A4",
            "ticks": 609840,
            "time": 362.999637,
            "velocity": 0.8267716535433071
          },
          {
            "duration": 0.11428560000001653,
            "durationTicks": 192,
            "midi": 70,
            "name": "A#4",
            "ticks": 610080,
            "time": 363.14249400000006,
            "velocity": 0.8267716535433071
          },
          {
            "duration": 0.11428560000001653,
            "durationTicks": 192,
            "midi": 62,
            "name": "D4",
            "ticks": 610320,
            "time": 363.28535100000005,
            "velocity": 0.8267716535433071
          },
          {
            "duration": 0.11428560000001653,
            "durationTicks": 192,
            "midi": 61,
            "name": "C#4",
            "ticks": 610560,
            "time": 363.42820800000004,
            "velocity": 0.984251968503937
          },
          {
            "duration": 0.11428560000001653,
            "durationTicks": 192,
            "midi": 62,
            "name": "D4",
            "ticks": 610800,
            "time": 363.57106500000003,
            "velocity": 0.8267716535433071
          },
          {
            "duration": 0.11428560000001653,
            "durationTicks": 192,
            "midi": 64,
            "name": "E4",
            "ticks": 611040,
            "time": 363.713922,
            "velocity": 0.8267716535433071
          },
          {
            "duration": 0.11428560000001653,
            "durationTicks": 192,
            "midi": 65,
            "name": "F4",
            "ticks": 611280,
            "time": 363.856779,
            "velocity": 0.8267716535433071
          },
          {
            "duration": 0.11428560000007337,
            "durationTicks": 192,
            "midi": 67,
            "name": "G4",
            "ticks": 611520,
            "time": 363.999636,
            "velocity": 0.8267716535433071
          },
          {
            "duration": 0.11428560000007337,
            "durationTicks": 192,
            "midi": 69,
            "name": "A4",
            "ticks": 611760,
            "time": 364.142493,
            "velocity": 0.8267716535433071
          },
          {
            "duration": 0.11428560000001653,
            "durationTicks": 192,
            "midi": 70,
            "name": "A#4",
            "ticks": 612000,
            "time": 364.28535000000005,
            "velocity": 0.8267716535433071
          },
          {
            "duration": 0.11428560000001653,
            "durationTicks": 192,
            "midi": 62,
            "name": "D4",
            "ticks": 612240,
            "time": 364.42820700000004,
            "velocity": 0.8267716535433071
          },
          {
            "duration": 0.11428560000001653,
            "durationTicks": 192,
            "midi": 61,
            "name": "C#4",
            "ticks": 612480,
            "time": 364.57106400000004,
            "velocity": 0.984251968503937
          },
          {
            "duration": 0.11428560000001653,
            "durationTicks": 192,
            "midi": 62,
            "name": "D4",
            "ticks": 612720,
            "time": 364.713921,
            "velocity": 0.8267716535433071
          },
          {
            "duration": 0.11428560000001653,
            "durationTicks": 192,
            "midi": 64,
            "name": "E4",
            "ticks": 612960,
            "time": 364.856778,
            "velocity": 0.8267716535433071
          },
          {
            "duration": 0.11428560000001653,
            "durationTicks": 192,
            "midi": 65,
            "name": "F4",
            "ticks": 613200,
            "time": 364.999635,
            "velocity": 0.8267716535433071
          },
          {
            "duration": 0.11428560000007337,
            "durationTicks": 192,
            "midi": 67,
            "name": "G4",
            "ticks": 613440,
            "time": 365.142492,
            "velocity": 0.8267716535433071
          },
          {
            "duration": 0.11428560000001653,
            "durationTicks": 192,
            "midi": 69,
            "name": "A4",
            "ticks": 613680,
            "time": 365.28534900000005,
            "velocity": 0.8267716535433071
          },
          {
            "duration": 0.11428560000001653,
            "durationTicks": 192,
            "midi": 70,
            "name": "A#4",
            "ticks": 613920,
            "time": 365.42820600000005,
            "velocity": 0.8267716535433071
          },
          {
            "duration": 0.11428560000001653,
            "durationTicks": 192,
            "midi": 62,
            "name": "D4",
            "ticks": 614160,
            "time": 365.57106300000004,
            "velocity": 0.8267716535433071
          },
          {
            "duration": 0.11428560000001653,
            "durationTicks": 192,
            "midi": 61,
            "name": "C#4",
            "ticks": 614400,
            "time": 365.71392000000003,
            "velocity": 0.984251968503937
          },
          {
            "duration": 0.11428560000001653,
            "durationTicks": 192,
            "midi": 62,
            "name": "D4",
            "ticks": 614640,
            "time": 365.856777,
            "velocity": 0.8267716535433071
          },
          {
            "duration": 0.11428560000001653,
            "durationTicks": 192,
            "midi": 64,
            "name": "E4",
            "ticks": 614880,
            "time": 365.999634,
            "velocity": 0.8267716535433071
          },
          {
            "duration": 0.11428560000007337,
            "durationTicks": 192,
            "midi": 65,
            "name": "F4",
            "ticks": 615120,
            "time": 366.142491,
            "velocity": 0.8267716535433071
          },
          {
            "duration": 0.11428560000001653,
            "durationTicks": 192,
            "midi": 67,
            "name": "G4",
            "ticks": 615360,
            "time": 366.28534800000006,
            "velocity": 0.8267716535433071
          },
          {
            "duration": 0.11428560000001653,
            "durationTicks": 192,
            "midi": 69,
            "name": "A4",
            "ticks": 615600,
            "time": 366.42820500000005,
            "velocity": 0.8267716535433071
          },
          {
            "duration": 0.11428560000001653,
            "durationTicks": 192,
            "midi": 70,
            "name": "A#4",
            "ticks": 615840,
            "time": 366.57106200000004,
            "velocity": 0.8267716535433071
          },
          {
            "duration": 0.11428560000001653,
            "durationTicks": 192,
            "midi": 61,
            "name": "C#4",
            "ticks": 616080,
            "time": 366.71391900000003,
            "velocity": 0.8267716535433071
          },
          {
            "duration": 0.11428560000001653,
            "durationTicks": 192,
            "midi": 62,
            "name": "D4",
            "ticks": 616320,
            "time": 366.856776,
            "velocity": 0.8267716535433071
          },
          {
            "duration": 0.11428560000001653,
            "durationTicks": 192,
            "midi": 69,
            "name": "A4",
            "ticks": 616560,
            "time": 366.999633,
            "velocity": 0.8267716535433071
          },
          {
            "duration": 0.11428560000007337,
            "durationTicks": 192,
            "midi": 69,
            "name": "A4",
            "ticks": 616800,
            "time": 367.14249,
            "velocity": 0.8267716535433071
          },
          {
            "duration": 0.11428560000001653,
            "durationTicks": 192,
            "midi": 69,
            "name": "A4",
            "ticks": 617040,
            "time": 367.28534700000006,
            "velocity": 0.8267716535433071
          },
          {
            "duration": 0.11428560000001653,
            "durationTicks": 192,
            "midi": 69,
            "name": "A4",
            "ticks": 617280,
            "time": 367.42820400000005,
            "velocity": 0.8267716535433071
          },
          {
            "duration": 0.11428560000001653,
            "durationTicks": 192,
            "midi": 69,
            "name": "A4",
            "ticks": 617520,
            "time": 367.57106100000004,
            "velocity": 0.8267716535433071
          },
          {
            "duration": 0.11428560000001653,
            "durationTicks": 192,
            "midi": 69,
            "name": "A4",
            "ticks": 617760,
            "time": 367.71391800000004,
            "velocity": 0.8267716535433071
          },
          {
            "duration": 0.11428560000001653,
            "durationTicks": 192,
            "midi": 69,
            "name": "A4",
            "ticks": 618000,
            "time": 367.856775,
            "velocity": 0.8267716535433071
          },
          {
            "duration": 0.11428560000001653,
            "durationTicks": 192,
            "midi": 70,
            "name": "A#4",
            "ticks": 618240,
            "time": 367.999632,
            "velocity": 0.8267716535433071
          },
          {
            "duration": 0.11428560000001653,
            "durationTicks": 192,
            "midi": 70,
            "name": "A#4",
            "ticks": 618480,
            "time": 368.142489,
            "velocity": 0.8267716535433071
          },
          {
            "duration": 0.11428560000007337,
            "durationTicks": 192,
            "midi": 70,
            "name": "A#4",
            "ticks": 618720,
            "time": 368.285346,
            "velocity": 0.8267716535433071
          },
          {
            "duration": 0.11428560000001653,
            "durationTicks": 192,
            "midi": 70,
            "name": "A#4",
            "ticks": 618960,
            "time": 368.42820300000005,
            "velocity": 0.8267716535433071
          },
          {
            "duration": 0.11428560000001653,
            "durationTicks": 192,
            "midi": 70,
            "name": "A#4",
            "ticks": 619200,
            "time": 368.57106000000005,
            "velocity": 0.8267716535433071
          },
          {
            "duration": 0.11428560000001653,
            "durationTicks": 192,
            "midi": 70,
            "name": "A#4",
            "ticks": 619440,
            "time": 368.71391700000004,
            "velocity": 0.8267716535433071
          },
          {
            "duration": 0.11428560000001653,
            "durationTicks": 192,
            "midi": 70,
            "name": "A#4",
            "ticks": 619680,
            "time": 368.85677400000003,
            "velocity": 0.8267716535433071
          },
          {
            "duration": 0.11428560000001653,
            "durationTicks": 192,
            "midi": 70,
            "name": "A#4",
            "ticks": 619920,
            "time": 368.999631,
            "velocity": 0.8267716535433071
          },
          {
            "duration": 0.11428560000001653,
            "durationTicks": 192,
            "midi": 69,
            "name": "A4",
            "ticks": 620160,
            "time": 369.142488,
            "velocity": 0.8267716535433071
          },
          {
            "duration": 0.11428560000007337,
            "durationTicks": 192,
            "midi": 69,
            "name": "A4",
            "ticks": 620400,
            "time": 369.285345,
            "velocity": 0.8267716535433071
          },
          {
            "duration": 0.11428560000001653,
            "durationTicks": 192,
            "midi": 69,
            "name": "A4",
            "ticks": 620640,
            "time": 369.42820200000006,
            "velocity": 0.8267716535433071
          },
          {
            "duration": 0.11428560000001653,
            "durationTicks": 192,
            "midi": 69,
            "name": "A4",
            "ticks": 620880,
            "time": 369.57105900000005,
            "velocity": 0.8267716535433071
          },
          {
            "duration": 0.11428560000001653,
            "durationTicks": 192,
            "midi": 72,
            "name": "C5",
            "ticks": 621120,
            "time": 369.71391600000004,
            "velocity": 0.8267716535433071
          },
          {
            "duration": 0.11428560000001653,
            "durationTicks": 192,
            "midi": 72,
            "name": "C5",
            "ticks": 621360,
            "time": 369.85677300000003,
            "velocity": 0.8267716535433071
          },
          {
            "duration": 0.11428560000001653,
            "durationTicks": 192,
            "midi": 72,
            "name": "C5",
            "ticks": 621600,
            "time": 369.99963,
            "velocity": 0.8267716535433071
          },
          {
            "duration": 0.11428560000001653,
            "durationTicks": 192,
            "midi": 72,
            "name": "C5",
            "ticks": 621840,
            "time": 370.142487,
            "velocity": 0.8267716535433071
          },
          {
            "duration": 0.11428560000007337,
            "durationTicks": 192,
            "midi": 70,
            "name": "A#4",
            "ticks": 622080,
            "time": 370.285344,
            "velocity": 0.8267716535433071
          },
          {
            "duration": 0.11428560000001653,
            "durationTicks": 192,
            "midi": 70,
            "name": "A#4",
            "ticks": 622320,
            "time": 370.42820100000006,
            "velocity": 0.8267716535433071
          },
          {
            "duration": 0.11428560000001653,
            "durationTicks": 192,
            "midi": 70,
            "name": "A#4",
            "ticks": 622560,
            "time": 370.57105800000005,
            "velocity": 0.8267716535433071
          },
          {
            "duration": 0.11428560000001653,
            "durationTicks": 192,
            "midi": 70,
            "name": "A#4",
            "ticks": 622800,
            "time": 370.71391500000004,
            "velocity": 0.8267716535433071
          },
          {
            "duration": 0.11428560000001653,
            "durationTicks": 192,
            "midi": 67,
            "name": "G4",
            "ticks": 623040,
            "time": 370.85677200000003,
            "velocity": 0.8267716535433071
          },
          {
            "duration": 0.11428560000001653,
            "durationTicks": 192,
            "midi": 67,
            "name": "G4",
            "ticks": 623280,
            "time": 370.999629,
            "velocity": 0.8267716535433071
          },
          {
            "duration": 0.11428560000001653,
            "durationTicks": 192,
            "midi": 67,
            "name": "G4",
            "ticks": 623520,
            "time": 371.142486,
            "velocity": 0.8267716535433071
          },
          {
            "duration": 0.11428560000001653,
            "durationTicks": 192,
            "midi": 67,
            "name": "G4",
            "ticks": 623760,
            "time": 371.285343,
            "velocity": 0.8267716535433071
          },
          {
            "duration": 0.22857120000003306,
            "durationTicks": 384,
            "midi": 66,
            "name": "F#4",
            "ticks": 624000,
            "time": 371.4282,
            "velocity": 0.8267716535433071
          },
          {
            "duration": 0.22857119999997622,
            "durationTicks": 384,
            "midi": 62,
            "name": "D4",
            "ticks": 624960,
            "time": 371.99962800000003,
            "velocity": 0.7244094488188977
          },
          {
            "duration": 0.22857119999997622,
            "durationTicks": 384,
            "midi": 69,
            "name": "A4",
            "ticks": 624960,
            "time": 371.99962800000003,
            "velocity": 0.7244094488188977
          },
          {
            "duration": 0.22857119999997622,
            "durationTicks": 384,
            "midi": 78,
            "name": "F#5",
            "ticks": 624960,
            "time": 371.99962800000003,
            "velocity": 0.7244094488188977
          },
          {
            "duration": 0.8571419999999534,
            "durationTicks": 1440,
            "midi": 62,
            "name": "D4",
            "ticks": 627840,
            "time": 373.71391200000005,
            "velocity": 0.4566929133858268
          },
          {
            "duration": 0.2857140000000413,
            "durationTicks": 480,
            "midi": 61,
            "name": "C#4",
            "ticks": 629280,
            "time": 374.571054,
            "velocity": 0.4566929133858268
          },
          {
            "duration": 0.22857119999997622,
            "durationTicks": 384,
            "midi": 60,
            "name": "C4",
            "ticks": 629760,
            "time": 374.85676800000005,
            "velocity": 0.4566929133858268
          },
          {
            "duration": 0.2857139999999845,
            "durationTicks": 480,
            "midi": 62,
            "name": "D4",
            "ticks": 632160,
            "time": 376.285338,
            "velocity": 0.4566929133858268
          },
          {
            "duration": 0.2571426000000656,
            "durationTicks": 432,
            "midi": 67,
            "name": "G4",
            "ticks": 632640,
            "time": 376.571052,
            "velocity": 0.4566929133858268
          },
          {
            "duration": 0.25714260000000877,
            "durationTicks": 432,
            "midi": 67,
            "name": "G4",
            "ticks": 633120,
            "time": 376.85676600000005,
            "velocity": 0.4566929133858268
          },
          {
            "duration": 0.4285709999999767,
            "durationTicks": 720,
            "midi": 67,
            "name": "G4",
            "ticks": 633600,
            "time": 377.14248000000003,
            "velocity": 0.4566929133858268
          },
          {
            "duration": 0.14285699999999224,
            "durationTicks": 240,
            "midi": 69,
            "name": "A4",
            "ticks": 634320,
            "time": 377.571051,
            "velocity": 0.4566929133858268
          },
          {
            "duration": 0.22857120000003306,
            "durationTicks": 384,
            "midi": 66,
            "name": "F#4",
            "ticks": 634560,
            "time": 377.713908,
            "velocity": 0.4566929133858268
          },
          {
            "duration": 0.8571420000000103,
            "durationTicks": 1440,
            "midi": 66,
            "name": "F#4",
            "ticks": 635520,
            "time": 378.28533600000003,
            "velocity": 0.4566929133858268
          },
          {
            "duration": 0.571427999999969,
            "durationTicks": 960,
            "midi": 67,
            "name": "G4",
            "ticks": 636960,
            "time": 379.14247800000004,
            "velocity": 0.4566929133858268
          },
          {
            "duration": 0.2857140000000413,
            "durationTicks": 480,
            "midi": 66,
            "name": "F#4",
            "ticks": 637920,
            "time": 379.713906,
            "velocity": 0.4566929133858268
          },
          {
            "duration": 0.45714239999995243,
            "durationTicks": 768,
            "midi": 67,
            "name": "G4",
            "ticks": 638400,
            "time": 379.99962000000005,
            "velocity": 0.4566929133858268
          },
          {
            "duration": 0.22857119999997622,
            "durationTicks": 384,
            "midi": 63,
            "name": "D#4",
            "ticks": 639360,
            "time": 380.571048,
            "velocity": 0.4566929133858268
          },
          {
            "duration": 0.22857119999997622,
            "durationTicks": 384,
            "midi": 60,
            "name": "C4",
            "ticks": 640320,
            "time": 381.14247600000004,
            "velocity": 0.4566929133858268
          },
          {
            "duration": 0.22857120000003306,
            "durationTicks": 384,
            "midi": 58,
            "name": "A#3",
            "ticks": 641280,
            "time": 381.713904,
            "velocity": 0.4566929133858268
          },
          {
            "duration": 0.8571419999999534,
            "durationTicks": 1440,
            "midi": 60,
            "name": "C4",
            "ticks": 645120,
            "time": 383.99961600000006,
            "velocity": 0.4566929133858268
          },
          {
            "duration": 0.07142850000002454,
            "durationTicks": 120,
            "midi": 62,
            "name": "D4",
            "ticks": 646560,
            "time": 384.856758,
            "velocity": 0.4566929133858268
          },
          {
            "duration": 0.0714284999999677,
            "durationTicks": 120,
            "midi": 60,
            "name": "C4",
            "ticks": 646680,
            "time": 384.92818650000004,
            "velocity": 0.4566929133858268
          },
          {
            "duration": 0.07142850000002454,
            "durationTicks": 120,
            "midi": 58,
            "name": "A#3",
            "ticks": 646800,
            "time": 384.999615,
            "velocity": 0.4566929133858268
          },
          {
            "duration": 0.07142850000002454,
            "durationTicks": 120,
            "midi": 57,
            "name": "A3",
            "ticks": 646920,
            "time": 385.07104350000003,
            "velocity": 0.4566929133858268
          },
          {
            "duration": 0.22857119999997622,
            "durationTicks": 384,
            "midi": 55,
            "name": "G3",
            "ticks": 647040,
            "time": 385.14247200000005,
            "velocity": 0.4566929133858268
          },
          {
            "duration": 0.8571420000000103,
            "durationTicks": 1440,
            "midi": 66,
            "name": "F#4",
            "ticks": 650880,
            "time": 387.42818400000004,
            "velocity": 0.4566929133858268
          },
          {
            "duration": 0.571427999999969,
            "durationTicks": 960,
            "midi": 67,
            "name": "G4",
            "ticks": 652320,
            "time": 388.28532600000005,
            "velocity": 0.4566929133858268
          },
          {
            "duration": 0.2857139999999845,
            "durationTicks": 480,
            "midi": 66,
            "name": "F#4",
            "ticks": 653280,
            "time": 388.856754,
            "velocity": 0.4566929133858268
          },
          {
            "duration": 0.4571424000000093,
            "durationTicks": 768,
            "midi": 67,
            "name": "G4",
            "ticks": 653760,
            "time": 389.142468,
            "velocity": 0.4566929133858268
          },
          {
            "duration": 0.14285699999999224,
            "durationTicks": 240,
            "midi": 65,
            "name": "F4",
            "ticks": 654720,
            "time": 389.71389600000003,
            "velocity": 0.4566929133858268
          },
          {
            "duration": 0.14285699999999224,
            "durationTicks": 240,
            "midi": 62,
            "name": "D4",
            "ticks": 654960,
            "time": 389.856753,
            "velocity": 0.4566929133858268
          },
          {
            "duration": 0.14285699999999224,
            "durationTicks": 240,
            "midi": 65,
            "name": "F4",
            "ticks": 655200,
            "time": 389.99961,
            "velocity": 0.4566929133858268
          },
          {
            "duration": 0.14285700000004908,
            "durationTicks": 240,
            "midi": 62,
            "name": "D4",
            "ticks": 655440,
            "time": 390.142467,
            "velocity": 0.4566929133858268
          },
          {
            "duration": 0.14285699999999224,
            "durationTicks": 240,
            "midi": 65,
            "name": "F4",
            "ticks": 655680,
            "time": 390.28532400000006,
            "velocity": 0.4566929133858268
          },
          {
            "duration": 0.14285699999999224,
            "durationTicks": 240,
            "midi": 62,
            "name": "D4",
            "ticks": 655920,
            "time": 390.42818100000005,
            "velocity": 0.4566929133858268
          },
          {
            "duration": 0.14285699999999224,
            "durationTicks": 240,
            "midi": 63,
            "name": "D#4",
            "ticks": 656160,
            "time": 390.57103800000004,
            "velocity": 0.4566929133858268
          },
          {
            "duration": 0.11428560000001653,
            "durationTicks": 192,
            "midi": 67,
            "name": "G4",
            "ticks": 656400,
            "time": 390.71389500000004,
            "velocity": 0.4566929133858268
          },
          {
            "duration": 0.14285699999999224,
            "durationTicks": 240,
            "midi": 65,
            "name": "F4",
            "ticks": 656640,
            "time": 390.85675200000003,
            "velocity": 0.4566929133858268
          },
          {
            "duration": 0.14285699999999224,
            "durationTicks": 240,
            "midi": 62,
            "name": "D4",
            "ticks": 656880,
            "time": 390.999609,
            "velocity": 0.4566929133858268
          },
          {
            "duration": 0.14285699999999224,
            "durationTicks": 240,
            "midi": 65,
            "name": "F4",
            "ticks": 657120,
            "time": 391.142466,
            "velocity": 0.4566929133858268
          },
          {
            "duration": 0.14285700000004908,
            "durationTicks": 240,
            "midi": 62,
            "name": "D4",
            "ticks": 657360,
            "time": 391.285323,
            "velocity": 0.4566929133858268
          },
          {
            "duration": 0.14285699999999224,
            "durationTicks": 240,
            "midi": 65,
            "name": "F4",
            "ticks": 657600,
            "time": 391.42818000000005,
            "velocity": 0.4566929133858268
          },
          {
            "duration": 0.14285699999999224,
            "durationTicks": 240,
            "midi": 62,
            "name": "D4",
            "ticks": 657840,
            "time": 391.57103700000005,
            "velocity": 0.4566929133858268
          },
          {
            "duration": 0.14285699999999224,
            "durationTicks": 240,
            "midi": 63,
            "name": "D#4",
            "ticks": 658080,
            "time": 391.71389400000004,
            "velocity": 0.4566929133858268
          },
          {
            "duration": 0.11428560000001653,
            "durationTicks": 192,
            "midi": 67,
            "name": "G4",
            "ticks": 658320,
            "time": 391.85675100000003,
            "velocity": 0.4566929133858268
          },
          {
            "duration": 0.14285699999999224,
            "durationTicks": 240,
            "midi": 65,
            "name": "F4",
            "ticks": 658560,
            "time": 391.999608,
            "velocity": 0.4566929133858268
          },
          {
            "duration": 0.14285699999999224,
            "durationTicks": 240,
            "midi": 62,
            "name": "D4",
            "ticks": 658800,
            "time": 392.142465,
            "velocity": 0.4566929133858268
          },
          {
            "duration": 0.14285700000004908,
            "durationTicks": 240,
            "midi": 65,
            "name": "F4",
            "ticks": 659040,
            "time": 392.285322,
            "velocity": 0.4566929133858268
          },
          {
            "duration": 0.14285699999999224,
            "durationTicks": 240,
            "midi": 62,
            "name": "D4",
            "ticks": 659280,
            "time": 392.42817900000006,
            "velocity": 0.4566929133858268
          },
          {
            "duration": 0.14285699999999224,
            "durationTicks": 240,
            "midi": 65,
            "name": "F4",
            "ticks": 659520,
            "time": 392.57103600000005,
            "velocity": 0.4566929133858268
          },
          {
            "duration": 0.14285699999999224,
            "durationTicks": 240,
            "midi": 62,
            "name": "D4",
            "ticks": 659760,
            "time": 392.71389300000004,
            "velocity": 0.4566929133858268
          },
          {
            "duration": 0.14285699999999224,
            "durationTicks": 240,
            "midi": 63,
            "name": "D#4",
            "ticks": 660000,
            "time": 392.85675000000003,
            "velocity": 0.4566929133858268
          },
          {
            "duration": 0.11428560000001653,
            "durationTicks": 192,
            "midi": 67,
            "name": "G4",
            "ticks": 660240,
            "time": 392.999607,
            "velocity": 0.4566929133858268
          },
          {
            "duration": 0.14285699999999224,
            "durationTicks": 240,
            "midi": 65,
            "name": "F4",
            "ticks": 660480,
            "time": 393.142464,
            "velocity": 0.4566929133858268
          },
          {
            "duration": 0.14285700000004908,
            "durationTicks": 240,
            "midi": 62,
            "name": "D4",
            "ticks": 660720,
            "time": 393.285321,
            "velocity": 0.4566929133858268
          },
          {
            "duration": 0.14285699999999224,
            "durationTicks": 240,
            "midi": 65,
            "name": "F4",
            "ticks": 660960,
            "time": 393.42817800000006,
            "velocity": 0.4566929133858268
          },
          {
            "duration": 0.14285699999999224,
            "durationTicks": 240,
            "midi": 62,
            "name": "D4",
            "ticks": 661200,
            "time": 393.57103500000005,
            "velocity": 0.4566929133858268
          },
          {
            "duration": 0.14285699999999224,
            "durationTicks": 240,
            "midi": 65,
            "name": "F4",
            "ticks": 661440,
            "time": 393.71389200000004,
            "velocity": 0.4566929133858268
          },
          {
            "duration": 0.14285699999999224,
            "durationTicks": 240,
            "midi": 62,
            "name": "D4",
            "ticks": 661680,
            "time": 393.85674900000004,
            "velocity": 0.4566929133858268
          },
          {
            "duration": 0.14285699999999224,
            "durationTicks": 240,
            "midi": 63,
            "name": "D#4",
            "ticks": 661920,
            "time": 393.999606,
            "velocity": 0.4566929133858268
          },
          {
            "duration": 0.11428560000001653,
            "durationTicks": 192,
            "midi": 67,
            "name": "G4",
            "ticks": 662160,
            "time": 394.142463,
            "velocity": 0.4566929133858268
          },
          {
            "duration": 0.11428560000007337,
            "durationTicks": 192,
            "midi": 65,
            "name": "F4",
            "ticks": 662400,
            "time": 394.28532,
            "velocity": 0.5511811023622047
          },
          {
            "duration": 0.11428560000007337,
            "durationTicks": 192,
            "midi": 77,
            "name": "F5",
            "ticks": 662640,
            "time": 394.428177,
            "velocity": 0.5669291338582677
          },
          {
            "duration": 0.11428560000001653,
            "durationTicks": 192,
            "midi": 77,
            "name": "F5",
            "ticks": 662880,
            "time": 394.57103400000005,
            "velocity": 0.5826771653543307
          },
          {
            "duration": 0.11428560000001653,
            "durationTicks": 192,
            "midi": 77,
            "name": "F5",
            "ticks": 663120,
            "time": 394.71389100000005,
            "velocity": 0.6062992125984252
          },
          {
            "duration": 0.11428560000001653,
            "durationTicks": 192,
            "midi": 77,
            "name": "F5",
            "ticks": 663360,
            "time": 394.85674800000004,
            "velocity": 0.6220472440944882
          },
          {
            "duration": 0.11428560000001653,
            "durationTicks": 192,
            "midi": 77,
            "name": "F5",
            "ticks": 663600,
            "time": 394.99960500000003,
            "velocity": 0.6456692913385826
          },
          {
            "duration": 0.11428560000001653,
            "durationTicks": 192,
            "midi": 77,
            "name": "F5",
            "ticks": 663840,
            "time": 395.142462,
            "velocity": 0.6614173228346457
          },
          {
            "duration": 0.11428560000001653,
            "durationTicks": 192,
            "midi": 77,
            "name": "F5",
            "ticks": 664080,
            "time": 395.285319,
            "velocity": 0.6850393700787402
          },
          {
            "duration": 0.11428560000007337,
            "durationTicks": 192,
            "midi": 77,
            "name": "F5",
            "ticks": 664320,
            "time": 395.428176,
            "velocity": 0.7007874015748031
          },
          {
            "duration": 0.11428560000001653,
            "durationTicks": 192,
            "midi": 77,
            "name": "F5",
            "ticks": 664560,
            "time": 395.57103300000006,
            "velocity": 0.7244094488188977
          },
          {
            "duration": 0.11428560000001653,
            "durationTicks": 192,
            "midi": 77,
            "name": "F5",
            "ticks": 664800,
            "time": 395.71389000000005,
            "velocity": 0.7401574803149606
          },
          {
            "duration": 0.11428560000001653,
            "durationTicks": 192,
            "midi": 77,
            "name": "F5",
            "ticks": 665040,
            "time": 395.85674700000004,
            "velocity": 0.7637795275590551
          },
          {
            "duration": 0.11428560000001653,
            "durationTicks": 192,
            "midi": 77,
            "name": "F5",
            "ticks": 665280,
            "time": 395.99960400000003,
            "velocity": 0.7795275590551181
          },
          {
            "duration": 0.11428560000001653,
            "durationTicks": 192,
            "midi": 77,
            "name": "F5",
            "ticks": 665520,
            "time": 396.142461,
            "velocity": 0.7952755905511811
          },
          {
            "duration": 0.11428560000001653,
            "durationTicks": 192,
            "midi": 77,
            "name": "F5",
            "ticks": 665760,
            "time": 396.285318,
            "velocity": 0.8188976377952756
          },
          {
            "duration": 0.11428560000007337,
            "durationTicks": 192,
            "midi": 77,
            "name": "F5",
            "ticks": 666000,
            "time": 396.428175,
            "velocity": 0.8346456692913385
          },
          {
            "duration": 0.11428560000001653,
            "durationTicks": 192,
            "midi": 78,
            "name": "F#5",
            "ticks": 666240,
            "time": 396.57103200000006,
            "velocity": 0.8267716535433071
          },
          {
            "duration": 0.11428560000001653,
            "durationTicks": 192,
            "midi": 78,
            "name": "F#5",
            "ticks": 666480,
            "time": 396.71388900000005,
            "velocity": 0.8267716535433071
          },
          {
            "duration": 0.11428560000001653,
            "durationTicks": 192,
            "midi": 78,
            "name": "F#5",
            "ticks": 666720,
            "time": 396.85674600000004,
            "velocity": 0.8267716535433071
          },
          {
            "duration": 0.11428560000001653,
            "durationTicks": 192,
            "midi": 78,
            "name": "F#5",
            "ticks": 666960,
            "time": 396.99960300000004,
            "velocity": 0.8267716535433071
          },
          {
            "duration": 0.11428560000001653,
            "durationTicks": 192,
            "midi": 66,
            "name": "F#4",
            "ticks": 667200,
            "time": 397.14246,
            "velocity": 0.8267716535433071
          },
          {
            "duration": 0.11428560000001653,
            "durationTicks": 192,
            "midi": 66,
            "name": "F#4",
            "ticks": 667440,
            "time": 397.285317,
            "velocity": 0.8267716535433071
          },
          {
            "duration": 0.11428560000007337,
            "durationTicks": 192,
            "midi": 66,
            "name": "F#4",
            "ticks": 667680,
            "time": 397.428174,
            "velocity": 0.8267716535433071
          },
          {
            "duration": 0.11428560000007337,
            "durationTicks": 192,
            "midi": 66,
            "name": "F#4",
            "ticks": 667920,
            "time": 397.571031,
            "velocity": 0.8267716535433071
          },
          {
            "duration": 0.11428560000001653,
            "durationTicks": 192,
            "midi": 65,
            "name": "F4",
            "ticks": 668160,
            "time": 397.71388800000005,
            "velocity": 0.8267716535433071
          },
          {
            "duration": 0.11428560000001653,
            "durationTicks": 192,
            "midi": 65,
            "name": "F4",
            "ticks": 668400,
            "time": 397.85674500000005,
            "velocity": 0.8267716535433071
          },
          {
            "duration": 0.11428560000001653,
            "durationTicks": 192,
            "midi": 65,
            "name": "F4",
            "ticks": 668640,
            "time": 397.99960200000004,
            "velocity": 0.8267716535433071
          },
          {
            "duration": 0.11428560000001653,
            "durationTicks": 192,
            "midi": 65,
            "name": "F4",
            "ticks": 668880,
            "time": 398.14245900000003,
            "velocity": 0.8267716535433071
          },
          {
            "duration": 0.11428560000001653,
            "durationTicks": 192,
            "midi": 77,
            "name": "F5",
            "ticks": 669120,
            "time": 398.285316,
            "velocity": 0.8267716535433071
          },
          {
            "duration": 0.11428560000001653,
            "durationTicks": 192,
            "midi": 77,
            "name": "F5",
            "ticks": 669360,
            "time": 398.428173,
            "velocity": 0.8267716535433071
          },
          {
            "duration": 0.11428560000007337,
            "durationTicks": 192,
            "midi": 77,
            "name": "F5",
            "ticks": 669600,
            "time": 398.57103,
            "velocity": 0.8267716535433071
          },
          {
            "duration": 0.11428560000001653,
            "durationTicks": 192,
            "midi": 77,
            "name": "F5",
            "ticks": 669840,
            "time": 398.71388700000006,
            "velocity": 0.8267716535433071
          },
          {
            "duration": 0.11428560000001653,
            "durationTicks": 192,
            "midi": 80,
            "name": "G#5",
            "ticks": 670080,
            "time": 398.85674400000005,
            "velocity": 0.8267716535433071
          },
          {
            "duration": 0.11428560000001653,
            "durationTicks": 192,
            "midi": 80,
            "name": "G#5",
            "ticks": 670320,
            "time": 398.99960100000004,
            "velocity": 0.8267716535433071
          },
          {
            "duration": 0.11428560000001653,
            "durationTicks": 192,
            "midi": 80,
            "name": "G#5",
            "ticks": 670560,
            "time": 399.14245800000003,
            "velocity": 0.8267716535433071
          },
          {
            "duration": 0.11428560000001653,
            "durationTicks": 192,
            "midi": 80,
            "name": "G#5",
            "ticks": 670800,
            "time": 399.285315,
            "velocity": 0.8267716535433071
          },
          {
            "duration": 0.11428560000001653,
            "durationTicks": 192,
            "midi": 68,
            "name": "G#4",
            "ticks": 671040,
            "time": 399.428172,
            "velocity": 0.8267716535433071
          },
          {
            "duration": 0.11428560000007337,
            "durationTicks": 192,
            "midi": 68,
            "name": "G#4",
            "ticks": 671280,
            "time": 399.571029,
            "velocity": 0.8267716535433071
          },
          {
            "duration": 0.11428560000001653,
            "durationTicks": 192,
            "midi": 68,
            "name": "G#4",
            "ticks": 671520,
            "time": 399.71388600000006,
            "velocity": 0.8267716535433071
          },
          {
            "duration": 0.11428560000001653,
            "durationTicks": 192,
            "midi": 68,
            "name": "G#4",
            "ticks": 671760,
            "time": 399.85674300000005,
            "velocity": 0.8267716535433071
          },
          {
            "duration": 0.11428560000001653,
            "durationTicks": 192,
            "midi": 67,
            "name": "G4",
            "ticks": 672000,
            "time": 399.99960000000004,
            "velocity": 0.8267716535433071
          },
          {
            "duration": 0.11428560000001653,
            "durationTicks": 192,
            "midi": 67,
            "name": "G4",
            "ticks": 672240,
            "time": 400.14245700000004,
            "velocity": 0.8267716535433071
          },
          {
            "duration": 0.11428560000001653,
            "durationTicks": 192,
            "midi": 67,
            "name": "G4",
            "ticks": 672480,
            "time": 400.285314,
            "velocity": 0.8267716535433071
          },
          {
            "duration": 0.11428560000001653,
            "durationTicks": 192,
            "midi": 67,
            "name": "G4",
            "ticks": 672720,
            "time": 400.428171,
            "velocity": 0.8267716535433071
          },
          {
            "duration": 0.11428560000007337,
            "durationTicks": 192,
            "midi": 79,
            "name": "G5",
            "ticks": 672960,
            "time": 400.571028,
            "velocity": 0.8267716535433071
          },
          {
            "duration": 0.11428560000007337,
            "durationTicks": 192,
            "midi": 79,
            "name": "G5",
            "ticks": 673200,
            "time": 400.713885,
            "velocity": 0.8267716535433071
          },
          {
            "duration": 0.11428560000001653,
            "durationTicks": 192,
            "midi": 79,
            "name": "G5",
            "ticks": 673440,
            "time": 400.85674200000005,
            "velocity": 0.8267716535433071
          },
          {
            "duration": 0.11428560000001653,
            "durationTicks": 192,
            "midi": 79,
            "name": "G5",
            "ticks": 673680,
            "time": 400.99959900000005,
            "velocity": 0.8267716535433071
          },
          {
            "duration": 0.11428560000001653,
            "durationTicks": 192,
            "midi": 82,
            "name": "A#5",
            "ticks": 673920,
            "time": 401.14245600000004,
            "velocity": 0.8267716535433071
          },
          {
            "duration": 0.11428560000001653,
            "durationTicks": 192,
            "midi": 82,
            "name": "A#5",
            "ticks": 674160,
            "time": 401.28531300000003,
            "velocity": 0.8267716535433071
          },
          {
            "duration": 0.11428560000001653,
            "durationTicks": 192,
            "midi": 82,
            "name": "A#5",
            "ticks": 674400,
            "time": 401.42817,
            "velocity": 0.8267716535433071
          },
          {
            "duration": 0.11428560000001653,
            "durationTicks": 192,
            "midi": 82,
            "name": "A#5",
            "ticks": 674640,
            "time": 401.571027,
            "velocity": 0.8267716535433071
          },
          {
            "duration": 0.11428560000007337,
            "durationTicks": 192,
            "midi": 70,
            "name": "A#4",
            "ticks": 674880,
            "time": 401.713884,
            "velocity": 0.8267716535433071
          },
          {
            "duration": 0.11428560000001653,
            "durationTicks": 192,
            "midi": 70,
            "name": "A#4",
            "ticks": 675120,
            "time": 401.85674100000006,
            "velocity": 0.8267716535433071
          },
          {
            "duration": 0.11428560000001653,
            "durationTicks": 192,
            "midi": 70,
            "name": "A#4",
            "ticks": 675360,
            "time": 401.99959800000005,
            "velocity": 0.8267716535433071
          },
          {
            "duration": 0.11428560000001653,
            "durationTicks": 192,
            "midi": 70,
            "name": "A#4",
            "ticks": 675600,
            "time": 402.14245500000004,
            "velocity": 0.8267716535433071
          },
          {
            "duration": 0.22857119999997622,
            "durationTicks": 384,
            "midi": 62,
            "name": "D4",
            "ticks": 675840,
            "time": 402.28531200000003,
            "velocity": 0.8267716535433071
          },
          {
            "duration": 0.22857119999997622,
            "durationTicks": 384,
            "midi": 70,
            "name": "A#4",
            "ticks": 675840,
            "time": 402.28531200000003,
            "velocity": 0.8267716535433071
          },
          {
            "duration": 0.4571424000000093,
            "durationTicks": 768,
            "midi": 62,
            "name": "D4",
            "ticks": 676320,
            "time": 402.571026,
            "velocity": 0.8267716535433071
          },
          {
            "duration": 0.4571424000000093,
            "durationTicks": 768,
            "midi": 70,
            "name": "A#4",
            "ticks": 676320,
            "time": 402.571026,
            "velocity": 0.8267716535433071
          },
          {
            "duration": 0.5142851999999607,
            "durationTicks": 864,
            "midi": 62,
            "name": "D4",
            "ticks": 677280,
            "time": 403.14245400000004,
            "velocity": 0.8267716535433071
          },
          {
            "duration": 0.2857139999999845,
            "durationTicks": 480,
            "midi": 70,
            "name": "A#4",
            "ticks": 677280,
            "time": 403.14245400000004,
            "velocity": 0.8267716535433071
          },
          {
            "duration": 0.22857119999997622,
            "durationTicks": 384,
            "midi": 72,
            "name": "C5",
            "ticks": 677760,
            "time": 403.428168,
            "velocity": 0.8267716535433071
          },
          {
            "duration": 0.4571424000000093,
            "durationTicks": 768,
            "midi": 62,
            "name": "D4",
            "ticks": 678240,
            "time": 403.713882,
            "velocity": 0.8267716535433071
          },
          {
            "duration": 0.4571424000000093,
            "durationTicks": 768,
            "midi": 72,
            "name": "C5",
            "ticks": 678240,
            "time": 403.713882,
            "velocity": 0.8267716535433071
          },
          {
            "duration": 0.22857119999997622,
            "durationTicks": 384,
            "midi": 62,
            "name": "D4",
            "ticks": 679200,
            "time": 404.28531000000004,
            "velocity": 0.8267716535433071
          },
          {
            "duration": 0.22857119999997622,
            "durationTicks": 384,
            "midi": 72,
            "name": "C5",
            "ticks": 679200,
            "time": 404.28531000000004,
            "velocity": 0.8267716535433071
          },
          {
            "duration": 0.22857119999997622,
            "durationTicks": 384,
            "midi": 62,
            "name": "D4",
            "ticks": 679680,
            "time": 404.571024,
            "velocity": 0.7244094488188977
          },
          {
            "duration": 0.22857119999997622,
            "durationTicks": 384,
            "midi": 70,
            "name": "A#4",
            "ticks": 679680,
            "time": 404.571024,
            "velocity": 0.7244094488188977
          },
          {
            "duration": 0.11428560000007337,
            "durationTicks": 192,
            "midi": 58,
            "name": "A#3",
            "ticks": 680160,
            "time": 404.856738,
            "velocity": 0.984251968503937
          },
          {
            "duration": 0.11428560000001653,
            "durationTicks": 192,
            "midi": 58,
            "name": "A#3",
            "ticks": 680400,
            "time": 404.99959500000006,
            "velocity": 0.8267716535433071
          },
          {
            "duration": 0.11428560000001653,
            "durationTicks": 192,
            "midi": 58,
            "name": "A#3",
            "ticks": 680640,
            "time": 405.14245200000005,
            "velocity": 0.8267716535433071
          },
          {
            "duration": 0.11428560000001653,
            "durationTicks": 192,
            "midi": 58,
            "name": "A#3",
            "ticks": 680880,
            "time": 405.28530900000004,
            "velocity": 0.8267716535433071
          },
          {
            "duration": 0.11428560000001653,
            "durationTicks": 192,
            "midi": 60,
            "name": "C4",
            "ticks": 681120,
            "time": 405.42816600000003,
            "velocity": 0.8267716535433071
          },
          {
            "duration": 0.11428560000001653,
            "durationTicks": 192,
            "midi": 60,
            "name": "C4",
            "ticks": 681360,
            "time": 405.571023,
            "velocity": 0.8267716535433071
          },
          {
            "duration": 0.11428560000001653,
            "durationTicks": 192,
            "midi": 61,
            "name": "C#4",
            "ticks": 681600,
            "time": 405.71388,
            "velocity": 0.8267716535433071
          },
          {
            "duration": 0.11428560000007337,
            "durationTicks": 192,
            "midi": 61,
            "name": "C#4",
            "ticks": 681840,
            "time": 405.856737,
            "velocity": 0.8267716535433071
          },
          {
            "duration": 0.11428560000001653,
            "durationTicks": 192,
            "midi": 62,
            "name": "D4",
            "ticks": 682080,
            "time": 405.99959400000006,
            "velocity": 0.8267716535433071
          },
          {
            "duration": 0.11428560000001653,
            "durationTicks": 192,
            "midi": 62,
            "name": "D4",
            "ticks": 682320,
            "time": 406.14245100000005,
            "velocity": 0.8267716535433071
          },
          {
            "duration": 0.11428560000001653,
            "durationTicks": 192,
            "midi": 63,
            "name": "D#4",
            "ticks": 682560,
            "time": 406.28530800000004,
            "velocity": 0.8267716535433071
          },
          {
            "duration": 0.11428560000001653,
            "durationTicks": 192,
            "midi": 63,
            "name": "D#4",
            "ticks": 682800,
            "time": 406.42816500000004,
            "velocity": 0.8267716535433071
          },
          {
            "duration": 0.11428560000001653,
            "durationTicks": 192,
            "midi": 64,
            "name": "E4",
            "ticks": 683040,
            "time": 406.571022,
            "velocity": 0.8267716535433071
          },
          {
            "duration": 0.11428560000001653,
            "durationTicks": 192,
            "midi": 64,
            "name": "E4",
            "ticks": 683280,
            "time": 406.713879,
            "velocity": 0.8267716535433071
          },
          {
            "duration": 0.22857120000003306,
            "durationTicks": 384,
            "midi": 65,
            "name": "F4",
            "ticks": 683520,
            "time": 406.856736,
            "velocity": 0.8267716535433071
          },
          {
            "duration": 0.057142800000008265,
            "durationTicks": 96,
            "midi": 65,
            "name": "F4",
            "ticks": 684360,
            "time": 407.3567355,
            "velocity": 0.8267716535433071
          },
          {
            "duration": 0.22857119999997622,
            "durationTicks": 384,
            "midi": 63,
            "name": "D#4",
            "ticks": 684480,
            "time": 407.42816400000004,
            "velocity": 0.8267716535433071
          },
          {
            "duration": 0.057142800000008265,
            "durationTicks": 96,
            "midi": 63,
            "name": "D#4",
            "ticks": 685320,
            "time": 407.92816350000004,
            "velocity": 0.8267716535433071
          },
          {
            "duration": 0.22857120000003306,
            "durationTicks": 384,
            "midi": 72,
            "name": "C5",
            "ticks": 685440,
            "time": 407.999592,
            "velocity": 0.8267716535433071
          },
          {
            "duration": 0.05714280000006511,
            "durationTicks": 96,
            "midi": 72,
            "name": "C5",
            "ticks": 686280,
            "time": 408.4995915,
            "velocity": 0.8267716535433071
          },
          {
            "duration": 0.22857119999997622,
            "durationTicks": 384,
            "midi": 70,
            "name": "A#4",
            "ticks": 686400,
            "time": 408.57102000000003,
            "velocity": 0.8267716535433071
          },
          {
            "duration": 0.057142800000008265,
            "durationTicks": 96,
            "midi": 70,
            "name": "A#4",
            "ticks": 687240,
            "time": 409.07101950000003,
            "velocity": 0.8267716535433071
          },
          {
            "duration": 0.6571421999999529,
            "durationTicks": 1104,
            "midi": 75,
            "name": "D#5",
            "ticks": 687360,
            "time": 409.14244800000006,
            "velocity": 0.8267716535433071
          },
          {
            "duration": 0.08571419999998398,
            "durationTicks": 144,
            "midi": 74,
            "name": "D5",
            "ticks": 688560,
            "time": 409.856733,
            "velocity": 0.5511811023622047
          },
          {
            "duration": 0.08571419999998398,
            "durationTicks": 144,
            "midi": 72,
            "name": "C5",
            "ticks": 688800,
            "time": 409.99959,
            "velocity": 0.5511811023622047
          },
          {
            "duration": 0.08571419999998398,
            "durationTicks": 144,
            "midi": 70,
            "name": "A#4",
            "ticks": 689040,
            "time": 410.14244700000006,
            "velocity": 0.5511811023622047
          },
          {
            "duration": 0.08571419999998398,
            "durationTicks": 144,
            "midi": 69,
            "name": "A4",
            "ticks": 689280,
            "time": 410.28530400000005,
            "velocity": 0.5511811023622047
          },
          {
            "duration": 0.08571419999998398,
            "durationTicks": 144,
            "midi": 67,
            "name": "G4",
            "ticks": 689520,
            "time": 410.42816100000005,
            "velocity": 0.5511811023622047
          },
          {
            "duration": 0.08571419999998398,
            "durationTicks": 144,
            "midi": 66,
            "name": "F#4",
            "ticks": 689760,
            "time": 410.57101800000004,
            "velocity": 0.5511811023622047
          },
          {
            "duration": 0.08571419999998398,
            "durationTicks": 144,
            "midi": 63,
            "name": "D#4",
            "ticks": 690000,
            "time": 410.71387500000003,
            "velocity": 0.5511811023622047
          },
          {
            "duration": 0.08571419999998398,
            "durationTicks": 144,
            "midi": 62,
            "name": "D4",
            "ticks": 690240,
            "time": 410.856732,
            "velocity": 0.5511811023622047
          },
          {
            "duration": 0.08571419999998398,
            "durationTicks": 144,
            "midi": 60,
            "name": "C4",
            "ticks": 690480,
            "time": 410.999589,
            "velocity": 0.5511811023622047
          },
          {
            "duration": 0.08571420000004082,
            "durationTicks": 144,
            "midi": 58,
            "name": "A#3",
            "ticks": 690720,
            "time": 411.142446,
            "velocity": 0.5511811023622047
          },
          {
            "duration": 0.08571419999998398,
            "durationTicks": 144,
            "midi": 57,
            "name": "A3",
            "ticks": 690960,
            "time": 411.28530300000006,
            "velocity": 0.5511811023622047
          },
          {
            "duration": 0.14285699999999224,
            "durationTicks": 240,
            "midi": 58,
            "name": "A#3",
            "ticks": 691200,
            "time": 411.42816000000005,
            "velocity": 0.4566929133858268
          },
          {
            "duration": 0.14285699999999224,
            "durationTicks": 240,
            "midi": 62,
            "name": "D4",
            "ticks": 691440,
            "time": 411.57101700000004,
            "velocity": 0.4566929133858268
          },
          {
            "duration": 0.14285699999999224,
            "durationTicks": 240,
            "midi": 58,
            "name": "A#3",
            "ticks": 691680,
            "time": 411.71387400000003,
            "velocity": 0.4566929133858268
          },
          {
            "duration": 0.14285699999999224,
            "durationTicks": 240,
            "midi": 62,
            "name": "D4",
            "ticks": 691920,
            "time": 411.856731,
            "velocity": 0.4566929133858268
          },
          {
            "duration": 0.14285699999999224,
            "durationTicks": 240,
            "midi": 58,
            "name": "A#3",
            "ticks": 692160,
            "time": 411.999588,
            "velocity": 0.4566929133858268
          },
          {
            "duration": 0.14285700000004908,
            "durationTicks": 240,
            "midi": 62,
            "name": "D4",
            "ticks": 692400,
            "time": 412.142445,
            "velocity": 0.4566929133858268
          },
          {
            "duration": 0.14285699999999224,
            "durationTicks": 240,
            "midi": 58,
            "name": "A#3",
            "ticks": 692640,
            "time": 412.28530200000006,
            "velocity": 0.4566929133858268
          },
          {
            "duration": 0.11428560000001653,
            "durationTicks": 192,
            "midi": 62,
            "name": "D4",
            "ticks": 692880,
            "time": 412.42815900000005,
            "velocity": 0.4566929133858268
          },
          {
            "duration": 0.14285699999999224,
            "durationTicks": 240,
            "midi": 60,
            "name": "C4",
            "ticks": 693120,
            "time": 412.57101600000004,
            "velocity": 0.4566929133858268
          },
          {
            "duration": 0.14285699999999224,
            "durationTicks": 240,
            "midi": 62,
            "name": "D4",
            "ticks": 693360,
            "time": 412.71387300000004,
            "velocity": 0.4566929133858268
          },
          {
            "duration": 0.14285699999999224,
            "durationTicks": 240,
            "midi": 60,
            "name": "C4",
            "ticks": 693600,
            "time": 412.85673,
            "velocity": 0.4566929133858268
          },
          {
            "duration": 0.14285699999999224,
            "durationTicks": 240,
            "midi": 62,
            "name": "D4",
            "ticks": 693840,
            "time": 412.999587,
            "velocity": 0.4566929133858268
          },
          {
            "duration": 0.14285700000004908,
            "durationTicks": 240,
            "midi": 57,
            "name": "A3",
            "ticks": 694080,
            "time": 413.142444,
            "velocity": 0.4566929133858268
          },
          {
            "duration": 0.14285699999999224,
            "durationTicks": 240,
            "midi": 62,
            "name": "D4",
            "ticks": 694320,
            "time": 413.28530100000006,
            "velocity": 0.4566929133858268
          },
          {
            "duration": 0.14285699999999224,
            "durationTicks": 240,
            "midi": 57,
            "name": "A3",
            "ticks": 694560,
            "time": 413.42815800000005,
            "velocity": 0.4566929133858268
          },
          {
            "duration": 0.11428560000001653,
            "durationTicks": 192,
            "midi": 62,
            "name": "D4",
            "ticks": 694800,
            "time": 413.57101500000005,
            "velocity": 0.4566929133858268
          },
          {
            "duration": 0.14285699999999224,
            "durationTicks": 240,
            "midi": 55,
            "name": "G3",
            "ticks": 695040,
            "time": 413.71387200000004,
            "velocity": 0.4566929133858268
          },
          {
            "duration": 0.14285699999999224,
            "durationTicks": 240,
            "midi": 62,
            "name": "D4",
            "ticks": 695280,
            "time": 413.85672900000003,
            "velocity": 0.4566929133858268
          },
          {
            "duration": 0.14285699999999224,
            "durationTicks": 240,
            "midi": 55,
            "name": "G3",
            "ticks": 695520,
            "time": 413.999586,
            "velocity": 0.4566929133858268
          },
          {
            "duration": 0.14285699999999224,
            "durationTicks": 240,
            "midi": 62,
            "name": "D4",
            "ticks": 695760,
            "time": 414.142443,
            "velocity": 0.4566929133858268
          },
          {
            "duration": 0.14285700000004908,
            "durationTicks": 240,
            "midi": 55,
            "name": "G3",
            "ticks": 696000,
            "time": 414.2853,
            "velocity": 0.4566929133858268
          },
          {
            "duration": 0.14285699999999224,
            "durationTicks": 240,
            "midi": 62,
            "name": "D4",
            "ticks": 696240,
            "time": 414.42815700000006,
            "velocity": 0.4566929133858268
          },
          {
            "duration": 0.14285699999999224,
            "durationTicks": 240,
            "midi": 58,
            "name": "A#3",
            "ticks": 696480,
            "time": 414.57101400000005,
            "velocity": 0.4566929133858268
          },
          {
            "duration": 0.11428560000001653,
            "durationTicks": 192,
            "midi": 62,
            "name": "D4",
            "ticks": 696720,
            "time": 414.71387100000004,
            "velocity": 0.4566929133858268
          },
          {
            "duration": 0.14285699999999224,
            "durationTicks": 240,
            "midi": 60,
            "name": "C4",
            "ticks": 696960,
            "time": 414.85672800000003,
            "velocity": 0.4566929133858268
          },
          {
            "duration": 0.14285699999999224,
            "durationTicks": 240,
            "midi": 62,
            "name": "D4",
            "ticks": 697200,
            "time": 414.999585,
            "velocity": 0.4566929133858268
          },
          {
            "duration": 0.14285699999999224,
            "durationTicks": 240,
            "midi": 60,
            "name": "C4",
            "ticks": 697440,
            "time": 415.142442,
            "velocity": 0.4566929133858268
          },
          {
            "duration": 0.14285700000004908,
            "durationTicks": 240,
            "midi": 62,
            "name": "D4",
            "ticks": 697680,
            "time": 415.285299,
            "velocity": 0.4566929133858268
          },
          {
            "duration": 0.14285699999999224,
            "durationTicks": 240,
            "midi": 57,
            "name": "A3",
            "ticks": 697920,
            "time": 415.42815600000006,
            "velocity": 0.4566929133858268
          },
          {
            "duration": 0.14285699999999224,
            "durationTicks": 240,
            "midi": 62,
            "name": "D4",
            "ticks": 698160,
            "time": 415.57101300000005,
            "velocity": 0.4566929133858268
          },
          {
            "duration": 0.14285699999999224,
            "durationTicks": 240,
            "midi": 57,
            "name": "A3",
            "ticks": 698400,
            "time": 415.71387000000004,
            "velocity": 0.4566929133858268
          },
          {
            "duration": 0.11428560000001653,
            "durationTicks": 192,
            "midi": 62,
            "name": "D4",
            "ticks": 698640,
            "time": 415.85672700000003,
            "velocity": 0.4566929133858268
          },
          {
            "duration": 0.14285699999999224,
            "durationTicks": 240,
            "midi": 55,
            "name": "G3",
            "ticks": 698880,
            "time": 415.999584,
            "velocity": 0.4566929133858268
          },
          {
            "duration": 0.14285699999999224,
            "durationTicks": 240,
            "midi": 62,
            "name": "D4",
            "ticks": 699120,
            "time": 416.142441,
            "velocity": 0.4566929133858268
          },
          {
            "duration": 0.14285700000004908,
            "durationTicks": 240,
            "midi": 55,
            "name": "G3",
            "ticks": 699360,
            "time": 416.285298,
            "velocity": 0.4566929133858268
          },
          {
            "duration": 0.14285699999999224,
            "durationTicks": 240,
            "midi": 62,
            "name": "D4",
            "ticks": 699600,
            "time": 416.42815500000006,
            "velocity": 0.4566929133858268
          },
          {
            "duration": 0.14285699999999224,
            "durationTicks": 240,
            "midi": 55,
            "name": "G3",
            "ticks": 699840,
            "time": 416.57101200000005,
            "velocity": 0.4566929133858268
          },
          {
            "duration": 0.14285699999999224,
            "durationTicks": 240,
            "midi": 62,
            "name": "D4",
            "ticks": 700080,
            "time": 416.71386900000005,
            "velocity": 0.4566929133858268
          },
          {
            "duration": 0.14285699999999224,
            "durationTicks": 240,
            "midi": 67,
            "name": "G4",
            "ticks": 700320,
            "time": 416.85672600000004,
            "velocity": 0.4566929133858268
          },
          {
            "duration": 0.11428560000001653,
            "durationTicks": 192,
            "midi": 62,
            "name": "D4",
            "ticks": 700560,
            "time": 416.99958300000003,
            "velocity": 0.4566929133858268
          },
          {
            "duration": 0.11428560000001653,
            "durationTicks": 192,
            "midi": 65,
            "name": "F4",
            "ticks": 700800,
            "time": 417.14244,
            "velocity": 0.8267716535433071
          },
          {
            "duration": 0.11428560000001653,
            "durationTicks": 192,
            "midi": 71,
            "name": "B4",
            "ticks": 700800,
            "time": 417.14244,
            "velocity": 0.8267716535433071
          },
          {
            "duration": 0.11428560000007337,
            "durationTicks": 192,
            "midi": 65,
            "name": "F4",
            "ticks": 701040,
            "time": 417.285297,
            "velocity": 0.8267716535433071
          },
          {
            "duration": 0.11428560000007337,
            "durationTicks": 192,
            "midi": 71,
            "name": "B4",
            "ticks": 701040,
            "time": 417.285297,
            "velocity": 0.8267716535433071
          },
          {
            "duration": 0.11428560000007337,
            "durationTicks": 192,
            "midi": 65,
            "name": "F4",
            "ticks": 701280,
            "time": 417.428154,
            "velocity": 0.8267716535433071
          },
          {
            "duration": 0.11428560000007337,
            "durationTicks": 192,
            "midi": 71,
            "name": "B4",
            "ticks": 701280,
            "time": 417.428154,
            "velocity": 0.8267716535433071
          },
          {
            "duration": 0.11428560000001653,
            "durationTicks": 192,
            "midi": 65,
            "name": "F4",
            "ticks": 701520,
            "time": 417.57101100000006,
            "velocity": 0.8267716535433071
          },
          {
            "duration": 0.11428560000001653,
            "durationTicks": 192,
            "midi": 71,
            "name": "B4",
            "ticks": 701520,
            "time": 417.57101100000006,
            "velocity": 0.8267716535433071
          },
          {
            "duration": 0.11428560000001653,
            "durationTicks": 192,
            "midi": 65,
            "name": "F4",
            "ticks": 701760,
            "time": 417.71386800000005,
            "velocity": 0.8267716535433071
          },
          {
            "duration": 0.11428560000001653,
            "durationTicks": 192,
            "midi": 71,
            "name": "B4",
            "ticks": 701760,
            "time": 417.71386800000005,
            "velocity": 0.8267716535433071
          },
          {
            "duration": 0.11428560000001653,
            "durationTicks": 192,
            "midi": 65,
            "name": "F4",
            "ticks": 702000,
            "time": 417.85672500000004,
            "velocity": 0.8267716535433071
          },
          {
            "duration": 0.11428560000001653,
            "durationTicks": 192,
            "midi": 71,
            "name": "B4",
            "ticks": 702000,
            "time": 417.85672500000004,
            "velocity": 0.8267716535433071
          },
          {
            "duration": 0.11428560000001653,
            "durationTicks": 192,
            "midi": 65,
            "name": "F4",
            "ticks": 702240,
            "time": 417.99958200000003,
            "velocity": 0.8267716535433071
          },
          {
            "duration": 0.11428560000001653,
            "durationTicks": 192,
            "midi": 71,
            "name": "B4",
            "ticks": 702240,
            "time": 417.99958200000003,
            "velocity": 0.8267716535433071
          },
          {
            "duration": 0.11428560000001653,
            "durationTicks": 192,
            "midi": 65,
            "name": "F4",
            "ticks": 702480,
            "time": 418.142439,
            "velocity": 0.8267716535433071
          },
          {
            "duration": 0.11428560000001653,
            "durationTicks": 192,
            "midi": 71,
            "name": "B4",
            "ticks": 702480,
            "time": 418.142439,
            "velocity": 0.8267716535433071
          },
          {
            "duration": 0.4571424000000093,
            "durationTicks": 768,
            "midi": 63,
            "name": "D#4",
            "ticks": 702720,
            "time": 418.285296,
            "velocity": 0.8267716535433071
          },
          {
            "duration": 0.4571424000000093,
            "durationTicks": 768,
            "midi": 72,
            "name": "C5",
            "ticks": 702720,
            "time": 418.285296,
            "velocity": 0.8267716535433071
          },
          {
            "duration": 0.4285709999999767,
            "durationTicks": 720,
            "midi": 79,
            "name": "G5",
            "ticks": 703680,
            "time": 418.85672400000004,
            "velocity": 0.8267716535433071
          },
          {
            "duration": 0.11428560000001653,
            "durationTicks": 192,
            "midi": 75,
            "name": "D#5",
            "ticks": 704400,
            "time": 419.285295,
            "velocity": 0.8267716535433071
          },
          {
            "duration": 0.42857100000003356,
            "durationTicks": 720,
            "midi": 74,
            "name": "D5",
            "ticks": 704640,
            "time": 419.428152,
            "velocity": 0.8267716535433071
          },
          {
            "duration": 0.11428560000001653,
            "durationTicks": 192,
            "midi": 70,
            "name": "A#4",
            "ticks": 705360,
            "time": 419.85672300000004,
            "velocity": 0.8267716535433071
          },
          {
            "duration": 0.4285709999999767,
            "durationTicks": 720,
            "midi": 69,
            "name": "A4",
            "ticks": 705600,
            "time": 419.99958000000004,
            "velocity": 0.8267716535433071
          },
          {
            "duration": 0.11428560000007337,
            "durationTicks": 192,
            "midi": 72,
            "name": "C5",
            "ticks": 706320,
            "time": 420.428151,
            "velocity": 0.8267716535433071
          },
          {
            "duration": 0.08571420000004082,
            "durationTicks": 144,
            "midi": 70,
            "name": "A#4",
            "ticks": 706560,
            "time": 420.571008,
            "velocity": 0.7244094488188977
          },
          {
            "duration": 0.14285699999999224,
            "durationTicks": 240,
            "midi": 62,
            "name": "D4",
            "ticks": 706800,
            "time": 420.71386500000006,
            "velocity": 0.7244094488188977
          },
          {
            "duration": 0.14285699999999224,
            "durationTicks": 240,
            "midi": 58,
            "name": "A#3",
            "ticks": 707040,
            "time": 420.85672200000005,
            "velocity": 0.5511811023622047
          },
          {
            "duration": 0.14285699999999224,
            "durationTicks": 240,
            "midi": 62,
            "name": "D4",
            "ticks": 707280,
            "time": 420.99957900000004,
            "velocity": 0.5511811023622047
          },
          {
            "duration": 0.14285699999999224,
            "durationTicks": 240,
            "midi": 58,
            "name": "A#3",
            "ticks": 707520,
            "time": 421.14243600000003,
            "velocity": 0.5511811023622047
          },
          {
            "duration": 0.14285699999999224,
            "durationTicks": 240,
            "midi": 62,
            "name": "D4",
            "ticks": 707760,
            "time": 421.285293,
            "velocity": 0.5511811023622047
          },
          {
            "duration": 0.14285699999999224,
            "durationTicks": 240,
            "midi": 58,
            "name": "A#3",
            "ticks": 708000,
            "time": 421.42815,
            "velocity": 0.5511811023622047
          },
          {
            "duration": 0.11428560000007337,
            "durationTicks": 192,
            "midi": 62,
            "name": "D4",
            "ticks": 708240,
            "time": 421.571007,
            "velocity": 0.5511811023622047
          },
          {
            "duration": 0.14285699999999224,
            "durationTicks": 240,
            "midi": 57,
            "name": "A3",
            "ticks": 708480,
            "time": 421.71386400000006,
            "velocity": 0.5511811023622047
          },
          {
            "duration": 0.14285699999999224,
            "durationTicks": 240,
            "midi": 60,
            "name": "C4",
            "ticks": 708720,
            "time": 421.85672100000005,
            "velocity": 0.5511811023622047
          },
          {
            "duration": 0.14285699999999224,
            "durationTicks": 240,
            "midi": 57,
            "name": "A3",
            "ticks": 708960,
            "time": 421.99957800000004,
            "velocity": 0.5511811023622047
          },
          {
            "duration": 0.14285699999999224,
            "durationTicks": 240,
            "midi": 60,
            "name": "C4",
            "ticks": 709200,
            "time": 422.14243500000003,
            "velocity": 0.5511811023622047
          },
          {
            "duration": 0.14285699999999224,
            "durationTicks": 240,
            "midi": 57,
            "name": "A3",
            "ticks": 709440,
            "time": 422.285292,
            "velocity": 0.5511811023622047
          },
          {
            "duration": 0.14285699999999224,
            "durationTicks": 240,
            "midi": 62,
            "name": "D4",
            "ticks": 709680,
            "time": 422.428149,
            "velocity": 0.5511811023622047
          },
          {
            "duration": 0.14285700000004908,
            "durationTicks": 240,
            "midi": 66,
            "name": "F#4",
            "ticks": 709920,
            "time": 422.571006,
            "velocity": 0.5511811023622047
          },
          {
            "duration": 0.11428560000001653,
            "durationTicks": 192,
            "midi": 62,
            "name": "D4",
            "ticks": 710160,
            "time": 422.71386300000006,
            "velocity": 0.5511811023622047
          },
          {
            "duration": 0.14285699999999224,
            "durationTicks": 240,
            "midi": 67,
            "name": "G4",
            "ticks": 710400,
            "time": 422.85672000000005,
            "velocity": 0.5511811023622047
          },
          {
            "duration": 0.14285699999999224,
            "durationTicks": 240,
            "midi": 62,
            "name": "D4",
            "ticks": 710640,
            "time": 422.99957700000004,
            "velocity": 0.5511811023622047
          },
          {
            "duration": 0.14285699999999224,
            "durationTicks": 240,
            "midi": 55,
            "name": "G3",
            "ticks": 710880,
            "time": 423.14243400000004,
            "velocity": 0.5511811023622047
          },
          {
            "duration": 0.14285699999999224,
            "durationTicks": 240,
            "midi": 62,
            "name": "D4",
            "ticks": 711120,
            "time": 423.28529100000003,
            "velocity": 0.5511811023622047
          },
          {
            "duration": 0.14285699999999224,
            "durationTicks": 240,
            "midi": 55,
            "name": "G3",
            "ticks": 711360,
            "time": 423.428148,
            "velocity": 0.5511811023622047
          },
          {
            "duration": 0.14285700000004908,
            "durationTicks": 240,
            "midi": 62,
            "name": "D4",
            "ticks": 711600,
            "time": 423.571005,
            "velocity": 0.5511811023622047
          },
          {
            "duration": 0.14285699999999224,
            "durationTicks": 240,
            "midi": 58,
            "name": "A#3",
            "ticks": 711840,
            "time": 423.71386200000006,
            "velocity": 0.5511811023622047
          },
          {
            "duration": 0.11428560000001653,
            "durationTicks": 192,
            "midi": 62,
            "name": "D4",
            "ticks": 712080,
            "time": 423.85671900000006,
            "velocity": 0.5511811023622047
          },
          {
            "duration": 0.14285699999999224,
            "durationTicks": 240,
            "midi": 57,
            "name": "A3",
            "ticks": 712320,
            "time": 423.99957600000005,
            "velocity": 0.5511811023622047
          },
          {
            "duration": 0.14285699999999224,
            "durationTicks": 240,
            "midi": 60,
            "name": "C4",
            "ticks": 712560,
            "time": 424.14243300000004,
            "velocity": 0.5511811023622047
          },
          {
            "duration": 0.14285699999999224,
            "durationTicks": 240,
            "midi": 57,
            "name": "A3",
            "ticks": 712800,
            "time": 424.28529000000003,
            "velocity": 0.5511811023622047
          },
          {
            "duration": 0.14285699999999224,
            "durationTicks": 240,
            "midi": 60,
            "name": "C4",
            "ticks": 713040,
            "time": 424.428147,
            "velocity": 0.5511811023622047
          },
          {
            "duration": 0.14285699999999224,
            "durationTicks": 240,
            "midi": 57,
            "name": "A3",
            "ticks": 713280,
            "time": 424.571004,
            "velocity": 0.5511811023622047
          },
          {
            "duration": 0.14285700000004908,
            "durationTicks": 240,
            "midi": 62,
            "name": "D4",
            "ticks": 713520,
            "time": 424.713861,
            "velocity": 0.5511811023622047
          },
          {
            "duration": 0.14285699999999224,
            "durationTicks": 240,
            "midi": 66,
            "name": "F#4",
            "ticks": 713760,
            "time": 424.85671800000006,
            "velocity": 0.5511811023622047
          },
          {
            "duration": 0.11428560000001653,
            "durationTicks": 192,
            "midi": 62,
            "name": "D4",
            "ticks": 714000,
            "time": 424.99957500000005,
            "velocity": 0.5511811023622047
          },
          {
            "duration": 0.14285699999999224,
            "durationTicks": 240,
            "midi": 67,
            "name": "G4",
            "ticks": 714240,
            "time": 425.14243200000004,
            "velocity": 0.5511811023622047
          },
          {
            "duration": 0.14285699999999224,
            "durationTicks": 240,
            "midi": 62,
            "name": "D4",
            "ticks": 714480,
            "time": 425.28528900000003,
            "velocity": 0.5511811023622047
          },
          {
            "duration": 0.14285699999999224,
            "durationTicks": 240,
            "midi": 55,
            "name": "G3",
            "ticks": 714720,
            "time": 425.428146,
            "velocity": 0.5511811023622047
          },
          {
            "duration": 0.14285699999999224,
            "durationTicks": 240,
            "midi": 62,
            "name": "D4",
            "ticks": 714960,
            "time": 425.571003,
            "velocity": 0.5511811023622047
          },
          {
            "duration": 0.14285700000004908,
            "durationTicks": 240,
            "midi": 55,
            "name": "G3",
            "ticks": 715200,
            "time": 425.71386,
            "velocity": 0.5511811023622047
          },
          {
            "duration": 0.14285699999999224,
            "durationTicks": 240,
            "midi": 62,
            "name": "D4",
            "ticks": 715440,
            "time": 425.85671700000006,
            "velocity": 0.5511811023622047
          },
          {
            "duration": 0.14285699999999224,
            "durationTicks": 240,
            "midi": 67,
            "name": "G4",
            "ticks": 715680,
            "time": 425.99957400000005,
            "velocity": 0.5511811023622047
          },
          {
            "duration": 0.11428560000001653,
            "durationTicks": 192,
            "midi": 62,
            "name": "D4",
            "ticks": 715920,
            "time": 426.14243100000004,
            "velocity": 0.5511811023622047
          },
          {
            "duration": 0.11428560000001653,
            "durationTicks": 192,
            "midi": 65,
            "name": "F4",
            "ticks": 716160,
            "time": 426.28528800000004,
            "velocity": 0.8267716535433071
          },
          {
            "duration": 0.11428560000001653,
            "durationTicks": 192,
            "midi": 71,
            "name": "B4",
            "ticks": 716160,
            "time": 426.28528800000004,
            "velocity": 0.8267716535433071
          },
          {
            "duration": 0.11428560000001653,
            "durationTicks": 192,
            "midi": 65,
            "name": "F4",
            "ticks": 716400,
            "time": 426.42814500000003,
            "velocity": 0.8267716535433071
          },
          {
            "duration": 0.11428560000001653,
            "durationTicks": 192,
            "midi": 71,
            "name": "B4",
            "ticks": 716400,
            "time": 426.42814500000003,
            "velocity": 0.8267716535433071
          },
          {
            "duration": 0.11428560000001653,
            "durationTicks": 192,
            "midi": 65,
            "name": "F4",
            "ticks": 716640,
            "time": 426.571002,
            "velocity": 0.8267716535433071
          },
          {
            "duration": 0.11428560000001653,
            "durationTicks": 192,
            "midi": 71,
            "name": "B4",
            "ticks": 716640,
            "time": 426.571002,
            "velocity": 0.8267716535433071
          },
          {
            "duration": 0.11428560000007337,
            "durationTicks": 192,
            "midi": 65,
            "name": "F4",
            "ticks": 716880,
            "time": 426.713859,
            "velocity": 0.8267716535433071
          },
          {
            "duration": 0.11428560000007337,
            "durationTicks": 192,
            "midi": 71,
            "name": "B4",
            "ticks": 716880,
            "time": 426.713859,
            "velocity": 0.8267716535433071
          },
          {
            "duration": 0.11428560000001653,
            "durationTicks": 192,
            "midi": 65,
            "name": "F4",
            "ticks": 717120,
            "time": 426.85671600000006,
            "velocity": 0.8267716535433071
          },
          {
            "duration": 0.11428560000001653,
            "durationTicks": 192,
            "midi": 71,
            "name": "B4",
            "ticks": 717120,
            "time": 426.85671600000006,
            "velocity": 0.8267716535433071
          },
          {
            "duration": 0.11428560000001653,
            "durationTicks": 192,
            "midi": 65,
            "name": "F4",
            "ticks": 717360,
            "time": 426.99957300000005,
            "velocity": 0.8267716535433071
          },
          {
            "duration": 0.11428560000001653,
            "durationTicks": 192,
            "midi": 71,
            "name": "B4",
            "ticks": 717360,
            "time": 426.99957300000005,
            "velocity": 0.8267716535433071
          },
          {
            "duration": 0.11428560000001653,
            "durationTicks": 192,
            "midi": 65,
            "name": "F4",
            "ticks": 717600,
            "time": 427.14243000000005,
            "velocity": 0.8267716535433071
          },
          {
            "duration": 0.11428560000001653,
            "durationTicks": 192,
            "midi": 71,
            "name": "B4",
            "ticks": 717600,
            "time": 427.14243000000005,
            "velocity": 0.8267716535433071
          },
          {
            "duration": 0.11428560000001653,
            "durationTicks": 192,
            "midi": 65,
            "name": "F4",
            "ticks": 717840,
            "time": 427.28528700000004,
            "velocity": 0.8267716535433071
          },
          {
            "duration": 0.11428560000001653,
            "durationTicks": 192,
            "midi": 71,
            "name": "B4",
            "ticks": 717840,
            "time": 427.28528700000004,
            "velocity": 0.8267716535433071
          },
          {
            "duration": 0.45714239999995243,
            "durationTicks": 768,
            "midi": 63,
            "name": "D#4",
            "ticks": 718080,
            "time": 427.42814400000003,
            "velocity": 0.8267716535433071
          },
          {
            "duration": 0.45714239999995243,
            "durationTicks": 768,
            "midi": 72,
            "name": "C5",
            "ticks": 718080,
            "time": 427.42814400000003,
            "velocity": 0.8267716535433071
          },
          {
            "duration": 0.4285709999999767,
            "durationTicks": 720,
            "midi": 79,
            "name": "G5",
            "ticks": 719040,
            "time": 427.99957200000006,
            "velocity": 0.8267716535433071
          },
          {
            "duration": 0.11428560000001653,
            "durationTicks": 192,
            "midi": 75,
            "name": "D#5",
            "ticks": 719760,
            "time": 428.42814300000003,
            "velocity": 0.8267716535433071
          },
          {
            "duration": 0.42857100000003356,
            "durationTicks": 720,
            "midi": 74,
            "name": "D5",
            "ticks": 720000,
            "time": 428.571,
            "velocity": 0.8267716535433071
          },
          {
            "duration": 0.11428560000001653,
            "durationTicks": 192,
            "midi": 70,
            "name": "A#4",
            "ticks": 720720,
            "time": 428.99957100000006,
            "velocity": 0.8267716535433071
          },
          {
            "duration": 0.4285709999999767,
            "durationTicks": 720,
            "midi": 66,
            "name": "F#4",
            "ticks": 720960,
            "time": 429.14242800000005,
            "velocity": 0.8267716535433071
          },
          {
            "duration": 0.11428560000001653,
            "durationTicks": 192,
            "midi": 69,
            "name": "A4",
            "ticks": 721680,
            "time": 429.57099900000003,
            "velocity": 0.8267716535433071
          },
          {
            "duration": 0.11428560000001653,
            "durationTicks": 192,
            "midi": 67,
            "name": "G4",
            "ticks": 721920,
            "time": 429.713856,
            "velocity": 0.8267716535433071
          },
          {
            "duration": 0.11428560000007337,
            "durationTicks": 192,
            "midi": 74,
            "name": "D5",
            "ticks": 722160,
            "time": 429.856713,
            "velocity": 0.8267716535433071
          },
          {
            "duration": 0.11428560000001653,
            "durationTicks": 192,
            "midi": 82,
            "name": "A#5",
            "ticks": 722400,
            "time": 429.99957000000006,
            "velocity": 0.8267716535433071
          },
          {
            "duration": 0.11428560000001653,
            "durationTicks": 192,
            "midi": 81,
            "name": "A5",
            "ticks": 722640,
            "time": 430.14242700000005,
            "velocity": 0.8267716535433071
          },
          {
            "duration": 0.11428560000001653,
            "durationTicks": 192,
            "midi": 79,
            "name": "G5",
            "ticks": 722880,
            "time": 430.28528400000005,
            "velocity": 0.8267716535433071
          },
          {
            "duration": 0.11428560000001653,
            "durationTicks": 192,
            "midi": 77,
            "name": "F5",
            "ticks": 723120,
            "time": 430.42814100000004,
            "velocity": 0.8267716535433071
          },
          {
            "duration": 0.11428560000001653,
            "durationTicks": 192,
            "midi": 75,
            "name": "D#5",
            "ticks": 723360,
            "time": 430.57099800000003,
            "velocity": 0.8267716535433071
          },
          {
            "duration": 0.11428560000001653,
            "durationTicks": 192,
            "midi": 74,
            "name": "D5",
            "ticks": 723600,
            "time": 430.713855,
            "velocity": 0.8267716535433071
          },
          {
            "duration": 0.11428560000007337,
            "durationTicks": 192,
            "midi": 72,
            "name": "C5",
            "ticks": 723840,
            "time": 430.856712,
            "velocity": 0.8267716535433071
          },
          {
            "duration": 0.11428560000007337,
            "durationTicks": 192,
            "midi": 70,
            "name": "A#4",
            "ticks": 724080,
            "time": 430.999569,
            "velocity": 0.8267716535433071
          },
          {
            "duration": 0.11428560000001653,
            "durationTicks": 192,
            "midi": 69,
            "name": "A4",
            "ticks": 724320,
            "time": 431.14242600000006,
            "velocity": 0.8267716535433071
          },
          {
            "duration": 0.11428560000001653,
            "durationTicks": 192,
            "midi": 67,
            "name": "G4",
            "ticks": 724560,
            "time": 431.28528300000005,
            "velocity": 0.8267716535433071
          },
          {
            "duration": 0.11428560000001653,
            "durationTicks": 192,
            "midi": 66,
            "name": "F#4",
            "ticks": 724800,
            "time": 431.42814000000004,
            "velocity": 0.8267716535433071
          },
          {
            "duration": 0.11428560000001653,
            "durationTicks": 192,
            "midi": 63,
            "name": "D#4",
            "ticks": 725040,
            "time": 431.57099700000003,
            "velocity": 0.8267716535433071
          },
          {
            "duration": 0.11428560000001653,
            "durationTicks": 192,
            "midi": 62,
            "name": "D4",
            "ticks": 725280,
            "time": 431.713854,
            "velocity": 0.8267716535433071
          },
          {
            "duration": 0.11428560000001653,
            "durationTicks": 192,
            "midi": 60,
            "name": "C4",
            "ticks": 725520,
            "time": 431.856711,
            "velocity": 0.8267716535433071
          },
          {
            "duration": 0.18571410000004107,
            "durationTicks": 312,
            "midi": 58,
            "name": "A#3",
            "ticks": 725760,
            "time": 431.999568,
            "velocity": 0.8267716535433071
          },
          {
            "duration": 0.18571409999998423,
            "durationTicks": 312,
            "midi": 67,
            "name": "G4",
            "ticks": 726240,
            "time": 432.28528200000005,
            "velocity": 0.8267716535433071
          },
          {
            "duration": 0.18571410000004107,
            "durationTicks": 312,
            "midi": 67,
            "name": "G4",
            "ticks": 726720,
            "time": 432.57099600000004,
            "velocity": 0.8267716535433071
          },
          {
            "duration": 0.18571410000004107,
            "durationTicks": 312,
            "midi": 60,
            "name": "C4",
            "ticks": 727200,
            "time": 432.85671,
            "velocity": 0.8267716535433071
          },
          {
            "duration": 0.11428560000001653,
            "durationTicks": 192,
            "midi": 58,
            "name": "A#3",
            "ticks": 727680,
            "time": 433.14242400000006,
            "velocity": 0.8267716535433071
          },
          {
            "duration": 0.11428560000001653,
            "durationTicks": 192,
            "midi": 62,
            "name": "D4",
            "ticks": 727920,
            "time": 433.28528100000005,
            "velocity": 0.8267716535433071
          },
          {
            "duration": 0.11428560000001653,
            "durationTicks": 192,
            "midi": 70,
            "name": "A#4",
            "ticks": 728160,
            "time": 433.42813800000005,
            "velocity": 0.8267716535433071
          },
          {
            "duration": 0.11428560000001653,
            "durationTicks": 192,
            "midi": 69,
            "name": "A4",
            "ticks": 728400,
            "time": 433.57099500000004,
            "velocity": 0.8267716535433071
          },
          {
            "duration": 0.11428560000001653,
            "durationTicks": 192,
            "midi": 67,
            "name": "G4",
            "ticks": 728640,
            "time": 433.71385200000003,
            "velocity": 0.8267716535433071
          },
          {
            "duration": 0.11428560000001653,
            "durationTicks": 192,
            "midi": 65,
            "name": "F4",
            "ticks": 728880,
            "time": 433.856709,
            "velocity": 0.8267716535433071
          },
          {
            "duration": 0.11428560000007337,
            "durationTicks": 192,
            "midi": 63,
            "name": "D#4",
            "ticks": 729120,
            "time": 433.999566,
            "velocity": 0.8267716535433071
          },
          {
            "duration": 0.11428560000007337,
            "durationTicks": 192,
            "midi": 62,
            "name": "D4",
            "ticks": 729360,
            "time": 434.142423,
            "velocity": 0.8267716535433071
          },
          {
            "duration": 0.11428560000001653,
            "durationTicks": 192,
            "midi": 61,
            "name": "C#4",
            "ticks": 729600,
            "time": 434.28528000000006,
            "velocity": 0.8267716535433071
          },
          {
            "duration": 0.11428560000001653,
            "durationTicks": 192,
            "midi": 64,
            "name": "E4",
            "ticks": 729840,
            "time": 434.42813700000005,
            "velocity": 0.8267716535433071
          },
          {
            "duration": 0.11428560000001653,
            "durationTicks": 192,
            "midi": 69,
            "name": "A4",
            "ticks": 730080,
            "time": 434.57099400000004,
            "velocity": 0.8267716535433071
          },
          {
            "duration": 0.11428560000001653,
            "durationTicks": 192,
            "midi": 67,
            "name": "G4",
            "ticks": 730320,
            "time": 434.71385100000003,
            "velocity": 0.8267716535433071
          },
          {
            "duration": 0.11428560000001653,
            "durationTicks": 192,
            "midi": 66,
            "name": "F#4",
            "ticks": 730560,
            "time": 434.856708,
            "velocity": 0.8267716535433071
          },
          {
            "duration": 0.11428560000001653,
            "durationTicks": 192,
            "midi": 63,
            "name": "D#4",
            "ticks": 730800,
            "time": 434.999565,
            "velocity": 0.8267716535433071
          },
          {
            "duration": 0.11428560000007337,
            "durationTicks": 192,
            "midi": 62,
            "name": "D4",
            "ticks": 731040,
            "time": 435.142422,
            "velocity": 0.8267716535433071
          },
          {
            "duration": 0.11428560000001653,
            "durationTicks": 192,
            "midi": 60,
            "name": "C4",
            "ticks": 731280,
            "time": 435.28527900000006,
            "velocity": 0.8267716535433071
          },
          {
            "duration": 0.22857119999997622,
            "durationTicks": 384,
            "midi": 58,
            "name": "A#3",
            "ticks": 731520,
            "time": 435.42813600000005,
            "velocity": 0.8267716535433071
          },
          {
            "duration": 0.05769240000000764,
            "durationTicks": 96,
            "midi": 67,
            "name": "G4",
            "ticks": 732360,
            "time": 435.9301965,
            "velocity": 0.8267716535433071
          },
          {
            "duration": 0.2330096000000026,
            "durationTicks": 384,
            "midi": 67,
            "name": "G4",
            "ticks": 732480,
            "time": 436.002312,
            "velocity": 0.8267716535433071
          },
          {
            "duration": 0.058823599999982434,
            "durationTicks": 96,
            "midi": 68,
            "name": "G#4",
            "ticks": 733320,
            "time": 436.51416250000005,
            "velocity": 0.8267716535433071
          },
          {
            "duration": 0.23762399999998252,
            "durationTicks": 384,
            "midi": 68,
            "name": "G#4",
            "ticks": 733440,
            "time": 436.58769200000006,
            "velocity": 0.8267716535433071
          },
          {
            "duration": 0.059701399999994464,
            "durationTicks": 96,
            "midi": 69,
            "name": "A4",
            "ticks": 734280,
            "time": 437.10860225000005,
            "velocity": 0.8267716535433071
          },
          {
            "duration": 0.24120640000001004,
            "durationTicks": 384,
            "midi": 69,
            "name": "A4",
            "ticks": 734400,
            "time": 437.18322900000004,
            "velocity": 0.8267716535433071
          },
          {
            "duration": 0.24615360000001374,
            "durationTicks": 384,
            "midi": 70,
            "name": "A#4",
            "ticks": 735360,
            "time": 437.78930600000007,
            "velocity": 0.8267716535433071
          },
          {
            "duration": 0.062176199999953496,
            "durationTicks": 96,
            "midi": 71,
            "name": "B4",
            "ticks": 736200,
            "time": 438.33015875000007,
            "velocity": 0.8267716535433071
          },
          {
            "duration": 0.2513088000000039,
            "durationTicks": 384,
            "midi": 71,
            "name": "B4",
            "ticks": 736320,
            "time": 438.40787900000004,
            "velocity": 0.8267716535433071
          },
          {
            "duration": 0.06349199999999655,
            "durationTicks": 96,
            "midi": 72,
            "name": "C5",
            "ticks": 737160,
            "time": 438.96011000000004,
            "velocity": 0.8267716535433071
          },
          {
            "duration": 0.25668480000001637,
            "durationTicks": 384,
            "midi": 72,
            "name": "C5",
            "ticks": 737280,
            "time": 439.03947500000004,
            "velocity": 0.8267716535433071
          },
          {
            "duration": 0.06451620000001412,
            "durationTicks": 96,
            "midi": 73,
            "name": "C#5",
            "ticks": 738120,
            "time": 439.60226675,
            "velocity": 0.8267716535433071
          },
          {
            "duration": 0.26086959999997816,
            "durationTicks": 384,
            "midi": 73,
            "name": "C#5",
            "ticks": 738240,
            "time": 439.68291200000004,
            "velocity": 0.8267716535433071
          },
          {
            "duration": 0.1500000000000341,
            "durationTicks": 240,
            "midi": 75,
            "name": "D#5",
            "ticks": 740640,
            "time": 441.238669,
            "velocity": 0.5511811023622047
          },
          {
            "duration": 0.12000000000000455,
            "durationTicks": 192,
            "midi": 74,
            "name": "D5",
            "ticks": 740880,
            "time": 441.38866900000005,
            "velocity": 0.5511811023622047
          },
          {
            "duration": 0.2400000000000091,
            "durationTicks": 384,
            "midi": 74,
            "name": "D5",
            "ticks": 741120,
            "time": 441.538669,
            "velocity": 0.5511811023622047
          },
          {
            "duration": 0.14999999999997726,
            "durationTicks": 240,
            "midi": 75,
            "name": "D#5",
            "ticks": 741600,
            "time": 441.83866900000004,
            "velocity": 0.5511811023622047
          },
          {
            "duration": 0.12000000000000455,
            "durationTicks": 192,
            "midi": 74,
            "name": "D5",
            "ticks": 741840,
            "time": 441.988669,
            "velocity": 0.5511811023622047
          },
          {
            "duration": 0.2400000000000091,
            "durationTicks": 384,
            "midi": 74,
            "name": "D5",
            "ticks": 742080,
            "time": 442.13866900000005,
            "velocity": 0.5511811023622047
          },
          {
            "duration": 0.14999999999997726,
            "durationTicks": 240,
            "midi": 75,
            "name": "D#5",
            "ticks": 742560,
            "time": 442.43866900000006,
            "velocity": 0.5511811023622047
          },
          {
            "duration": 0.12000000000000455,
            "durationTicks": 192,
            "midi": 74,
            "name": "D5",
            "ticks": 742800,
            "time": 442.58866900000004,
            "velocity": 0.5511811023622047
          },
          {
            "duration": 0.30000000000001137,
            "durationTicks": 480,
            "midi": 74,
            "name": "D5",
            "ticks": 743040,
            "time": 442.738669,
            "velocity": 0.5511811023622047
          },
          {
            "duration": 0.6000000000000227,
            "durationTicks": 960,
            "midi": 79,
            "name": "G5",
            "ticks": 743520,
            "time": 443.038669,
            "velocity": 0.5511811023622047
          },
          {
            "duration": 0.5999999999999659,
            "durationTicks": 960,
            "midi": 77,
            "name": "F5",
            "ticks": 744480,
            "time": 443.63866900000005,
            "velocity": 0.4566929133858268
          },
          {
            "duration": 0.6000000000000227,
            "durationTicks": 960,
            "midi": 75,
            "name": "D#5",
            "ticks": 745440,
            "time": 444.238669,
            "velocity": 0.4566929133858268
          },
          {
            "duration": 0.2400000000000091,
            "durationTicks": 384,
            "midi": 74,
            "name": "D5",
            "ticks": 746400,
            "time": 444.83866900000004,
            "velocity": 0.4566929133858268
          },
          {
            "duration": 4.740000000000009,
            "durationTicks": 7584,
            "midi": 72,
            "name": "C5",
            "ticks": 746880,
            "time": 445.13866900000005,
            "velocity": 0.4566929133858268
          },
          {
            "duration": 0.1999998000000005,
            "durationTicks": 336,
            "midi": 62,
            "name": "D4",
            "ticks": 754560,
            "time": 449.93866900000006,
            "velocity": 0.8267716535433071
          },
          {
            "duration": 0.1999998000000005,
            "durationTicks": 336,
            "midi": 70,
            "name": "A#4",
            "ticks": 754560,
            "time": 449.93866900000006,
            "velocity": 0.8267716535433071
          },
          {
            "duration": 0.09999990000000025,
            "durationTicks": 168,
            "midi": 62,
            "name": "D4",
            "ticks": 755040,
            "time": 450.22438300000005,
            "velocity": 0.8267716535433071
          },
          {
            "duration": 0.09999990000000025,
            "durationTicks": 168,
            "midi": 70,
            "name": "A#4",
            "ticks": 755040,
            "time": 450.22438300000005,
            "velocity": 0.8267716535433071
          },
          {
            "duration": 0.09999990000000025,
            "durationTicks": 168,
            "midi": 62,
            "name": "D4",
            "ticks": 755280,
            "time": 450.36724000000004,
            "velocity": 0.8267716535433071
          },
          {
            "duration": 0.09999990000000025,
            "durationTicks": 168,
            "midi": 70,
            "name": "A#4",
            "ticks": 755280,
            "time": 450.36724000000004,
            "velocity": 0.8267716535433071
          },
          {
            "duration": 0.1999998000000005,
            "durationTicks": 336,
            "midi": 62,
            "name": "D4",
            "ticks": 755520,
            "time": 450.5100970000001,
            "velocity": 0.8267716535433071
          },
          {
            "duration": 0.1999998000000005,
            "durationTicks": 336,
            "midi": 72,
            "name": "C5",
            "ticks": 755520,
            "time": 450.5100970000001,
            "velocity": 0.8267716535433071
          },
          {
            "duration": 0.09999990000000025,
            "durationTicks": 168,
            "midi": 62,
            "name": "D4",
            "ticks": 756000,
            "time": 450.79581100000007,
            "velocity": 0.8267716535433071
          },
          {
            "duration": 0.09999990000000025,
            "durationTicks": 168,
            "midi": 72,
            "name": "C5",
            "ticks": 756000,
            "time": 450.79581100000007,
            "velocity": 0.8267716535433071
          },
          {
            "duration": 0.09999990000000025,
            "durationTicks": 168,
            "midi": 62,
            "name": "D4",
            "ticks": 756240,
            "time": 450.93866800000006,
            "velocity": 0.8267716535433071
          },
          {
            "duration": 0.09999990000000025,
            "durationTicks": 168,
            "midi": 72,
            "name": "C5",
            "ticks": 756240,
            "time": 450.93866800000006,
            "velocity": 0.8267716535433071
          },
          {
            "duration": 0.1999998000000005,
            "durationTicks": 336,
            "midi": 62,
            "name": "D4",
            "ticks": 756480,
            "time": 451.08152500000006,
            "velocity": 0.8267716535433071
          },
          {
            "duration": 0.1999998000000005,
            "durationTicks": 336,
            "midi": 70,
            "name": "A#4",
            "ticks": 756480,
            "time": 451.08152500000006,
            "velocity": 0.8267716535433071
          },
          {
            "duration": 0.09999990000000025,
            "durationTicks": 168,
            "midi": 62,
            "name": "D4",
            "ticks": 756960,
            "time": 451.36723900000004,
            "velocity": 0.8267716535433071
          },
          {
            "duration": 0.09999990000000025,
            "durationTicks": 168,
            "midi": 70,
            "name": "A#4",
            "ticks": 756960,
            "time": 451.36723900000004,
            "velocity": 0.8267716535433071
          },
          {
            "duration": 0.09999989999994341,
            "durationTicks": 168,
            "midi": 62,
            "name": "D4",
            "ticks": 757200,
            "time": 451.5100960000001,
            "velocity": 0.8267716535433071
          },
          {
            "duration": 0.09999989999994341,
            "durationTicks": 168,
            "midi": 70,
            "name": "A#4",
            "ticks": 757200,
            "time": 451.5100960000001,
            "velocity": 0.8267716535433071
          },
          {
            "duration": 0.1999998000000005,
            "durationTicks": 336,
            "midi": 62,
            "name": "D4",
            "ticks": 757440,
            "time": 451.6529530000001,
            "velocity": 0.8267716535433071
          },
          {
            "duration": 0.1999998000000005,
            "durationTicks": 336,
            "midi": 72,
            "name": "C5",
            "ticks": 757440,
            "time": 451.6529530000001,
            "velocity": 0.8267716535433071
          },
          {
            "duration": 0.09999990000000025,
            "durationTicks": 168,
            "midi": 62,
            "name": "D4",
            "ticks": 757920,
            "time": 451.93866700000007,
            "velocity": 0.8267716535433071
          },
          {
            "duration": 0.09999990000000025,
            "durationTicks": 168,
            "midi": 72,
            "name": "C5",
            "ticks": 757920,
            "time": 451.93866700000007,
            "velocity": 0.8267716535433071
          },
          {
            "duration": 0.09999990000000025,
            "durationTicks": 168,
            "midi": 62,
            "name": "D4",
            "ticks": 758160,
            "time": 452.08152400000006,
            "velocity": 0.8267716535433071
          },
          {
            "duration": 0.09999990000000025,
            "durationTicks": 168,
            "midi": 72,
            "name": "C5",
            "ticks": 758160,
            "time": 452.08152400000006,
            "velocity": 0.8267716535433071
          },
          {
            "duration": 0.1999998000000005,
            "durationTicks": 336,
            "midi": 62,
            "name": "D4",
            "ticks": 758400,
            "time": 452.22438100000005,
            "velocity": 0.8267716535433071
          },
          {
            "duration": 0.1999998000000005,
            "durationTicks": 336,
            "midi": 70,
            "name": "A#4",
            "ticks": 758400,
            "time": 452.22438100000005,
            "velocity": 0.8267716535433071
          },
          {
            "duration": 0.09999990000000025,
            "durationTicks": 168,
            "midi": 62,
            "name": "D4",
            "ticks": 758880,
            "time": 452.51009500000004,
            "velocity": 0.8267716535433071
          },
          {
            "duration": 0.09999990000000025,
            "durationTicks": 168,
            "midi": 70,
            "name": "A#4",
            "ticks": 758880,
            "time": 452.51009500000004,
            "velocity": 0.8267716535433071
          },
          {
            "duration": 0.09999990000000025,
            "durationTicks": 168,
            "midi": 62,
            "name": "D4",
            "ticks": 759120,
            "time": 452.6529520000001,
            "velocity": 0.8267716535433071
          },
          {
            "duration": 0.09999990000000025,
            "durationTicks": 168,
            "midi": 70,
            "name": "A#4",
            "ticks": 759120,
            "time": 452.6529520000001,
            "velocity": 0.8267716535433071
          },
          {
            "duration": 0.1999998000000005,
            "durationTicks": 336,
            "midi": 62,
            "name": "D4",
            "ticks": 759360,
            "time": 452.7958090000001,
            "velocity": 0.8267716535433071
          },
          {
            "duration": 0.1999998000000005,
            "durationTicks": 336,
            "midi": 72,
            "name": "C5",
            "ticks": 759360,
            "time": 452.7958090000001,
            "velocity": 0.8267716535433071
          },
          {
            "duration": 0.09999990000000025,
            "durationTicks": 168,
            "midi": 62,
            "name": "D4",
            "ticks": 759840,
            "time": 453.08152300000006,
            "velocity": 0.8267716535433071
          },
          {
            "duration": 0.09999990000000025,
            "durationTicks": 168,
            "midi": 72,
            "name": "C5",
            "ticks": 759840,
            "time": 453.08152300000006,
            "velocity": 0.8267716535433071
          },
          {
            "duration": 0.09999990000000025,
            "durationTicks": 168,
            "midi": 62,
            "name": "D4",
            "ticks": 760080,
            "time": 453.22438000000005,
            "velocity": 0.8267716535433071
          },
          {
            "duration": 0.09999990000000025,
            "durationTicks": 168,
            "midi": 72,
            "name": "C5",
            "ticks": 760080,
            "time": 453.22438000000005,
            "velocity": 0.8267716535433071
          },
          {
            "duration": 0.1999998000000005,
            "durationTicks": 336,
            "midi": 62,
            "name": "D4",
            "ticks": 760320,
            "time": 453.36723700000005,
            "velocity": 0.8267716535433071
          },
          {
            "duration": 0.1999998000000005,
            "durationTicks": 336,
            "midi": 70,
            "name": "A#4",
            "ticks": 760320,
            "time": 453.36723700000005,
            "velocity": 0.8267716535433071
          },
          {
            "duration": 0.1999998000000005,
            "durationTicks": 336,
            "midi": 62,
            "name": "D4",
            "ticks": 760800,
            "time": 453.6529510000001,
            "velocity": 0.8267716535433071
          },
          {
            "duration": 0.1999998000000005,
            "durationTicks": 336,
            "midi": 72,
            "name": "C5",
            "ticks": 760800,
            "time": 453.6529510000001,
            "velocity": 0.8267716535433071
          },
          {
            "duration": 0.1999998000000005,
            "durationTicks": 336,
            "midi": 62,
            "name": "D4",
            "ticks": 761280,
            "time": 453.93866500000007,
            "velocity": 0.8267716535433071
          },
          {
            "duration": 0.1999998000000005,
            "durationTicks": 336,
            "midi": 70,
            "name": "A#4",
            "ticks": 761280,
            "time": 453.93866500000007,
            "velocity": 0.8267716535433071
          },
          {
            "duration": 0.1999998000000005,
            "durationTicks": 336,
            "midi": 62,
            "name": "D4",
            "ticks": 761760,
            "time": 454.22437900000006,
            "velocity": 0.8267716535433071
          },
          {
            "duration": 0.1999998000000005,
            "durationTicks": 336,
            "midi": 72,
            "name": "C5",
            "ticks": 761760,
            "time": 454.22437900000006,
            "velocity": 0.8267716535433071
          },
          {
            "duration": 0.25263119999999617,
            "durationTicks": 384,
            "midi": 62,
            "name": "D4",
            "ticks": 762240,
            "time": 454.51009300000004,
            "velocity": 0.8267716535433071
          },
          {
            "duration": 0.25263119999999617,
            "durationTicks": 384,
            "midi": 70,
            "name": "A#4",
            "ticks": 762240,
            "time": 454.51009300000004,
            "velocity": 0.8267716535433071
          },
          {
            "duration": 0.2666664000000196,
            "durationTicks": 384,
            "midi": 62,
            "name": "D4",
            "ticks": 764160,
            "time": 455.773249,
            "velocity": 0.8267716535433071
          },
          {
            "duration": 0.2666664000000196,
            "durationTicks": 384,
            "midi": 70,
            "name": "A#4",
            "ticks": 764160,
            "time": 455.773249,
            "velocity": 0.8267716535433071
          },
          {
            "duration": 0.2666664000000196,
            "durationTicks": 384,
            "midi": 79,
            "name": "G5",
            "ticks": 764160,
            "time": 455.773249,
            "velocity": 0.8267716535433071
          },
          {
            "duration": 0.29090880000001107,
            "durationTicks": 384,
            "midi": 67,
            "name": "G4",
            "ticks": 765120,
            "time": 456.455419,
            "velocity": 0.8267716535433071
          },
          {
            "duration": 0.29090880000001107,
            "durationTicks": 384,
            "midi": 74,
            "name": "D5",
            "ticks": 765120,
            "time": 456.455419,
            "velocity": 0.8267716535433071
          },
          {
            "duration": 0.29090880000001107,
            "durationTicks": 384,
            "midi": 82,
            "name": "A#5",
            "ticks": 765120,
            "time": 456.455419,
            "velocity": 0.8267716535433071
          },
          {
            "duration": 0.75,
            "durationTicks": 960,
            "midi": 55,
            "name": "G3",
            "ticks": 766080,
            "time": 457.201221,
            "velocity": 0.8267716535433071
          }
        ]
      },
      {
        "channel": 0,
        "controlChanges": {},
        "pitchBends": [],
        "instrument": {
          "family": "piano",
          "number": 0,
          "name": "acoustic grand piano"
        },
        "name": "k550_1",
        "notes": [],
        "endOfTrackTicks": 768000
      },
      {
        "channel": 6,
        "controlChanges": {
          "7": [
            {
              "number": 7,
              "ticks": 0,
              "time": 0,
              "value": 0.968503937007874
            }
          ],
          "10": [
            {
              "number": 10,
              "ticks": 0,
              "time": 0,
              "value": 0.7716535433070866
            }
          ],
          "91": [
            {
              "number": 91,
              "ticks": 0,
              "time": 0,
              "value": 0.5511811023622047
            }
          ]
        },
        "pitchBends": [],
        "instrument": {
          "family": "ensemble",
          "number": 48,
          "name": "string ensemble 1"
        },
        "name": "",
        "notes": [
          {
            "duration": 0.10714274999999995,
            "durationTicks": 180,
            "midi": 55,
            "name": "G3",
            "ticks": 1920,
            "time": 1.142856,
            "velocity": 0.5511811023622047
          },
          {
            "duration": 0.10714274999999995,
            "durationTicks": 180,
            "midi": 58,
            "name": "A#3",
            "ticks": 1920,
            "time": 1.142856,
            "velocity": 0.5511811023622047
          },
          {
            "duration": 0.10714274999999995,
            "durationTicks": 180,
            "midi": 55,
            "name": "G3",
            "ticks": 2160,
            "time": 1.285713,
            "velocity": 0.5511811023622047
          },
          {
            "duration": 0.10714274999999995,
            "durationTicks": 180,
            "midi": 58,
            "name": "A#3",
            "ticks": 2160,
            "time": 1.285713,
            "velocity": 0.5511811023622047
          },
          {
            "duration": 0.10714274999999995,
            "durationTicks": 180,
            "midi": 58,
            "name": "A#3",
            "ticks": 2400,
            "time": 1.4285700000000001,
            "velocity": 0.5511811023622047
          },
          {
            "duration": 0.10714274999999995,
            "durationTicks": 180,
            "midi": 67,
            "name": "G4",
            "ticks": 2400,
            "time": 1.4285700000000001,
            "velocity": 0.5511811023622047
          },
          {
            "duration": 0.10714274999999995,
            "durationTicks": 180,
            "midi": 58,
            "name": "A#3",
            "ticks": 2640,
            "time": 1.5714270000000001,
            "velocity": 0.5511811023622047
          },
          {
            "duration": 0.10714274999999995,
            "durationTicks": 180,
            "midi": 67,
            "name": "G4",
            "ticks": 2640,
            "time": 1.5714270000000001,
            "velocity": 0.5511811023622047
          },
          {
            "duration": 0.10714274999999995,
            "durationTicks": 180,
            "midi": 55,
            "name": "G3",
            "ticks": 2880,
            "time": 1.7142840000000001,
            "velocity": 0.5511811023622047
          },
          {
            "duration": 0.10714274999999995,
            "durationTicks": 180,
            "midi": 58,
            "name": "A#3",
            "ticks": 2880,
            "time": 1.7142840000000001,
            "velocity": 0.5511811023622047
          },
          {
            "duration": 0.10714274999999995,
            "durationTicks": 180,
            "midi": 55,
            "name": "G3",
            "ticks": 3120,
            "time": 1.8571410000000002,
            "velocity": 0.5511811023622047
          },
          {
            "duration": 0.10714274999999995,
            "durationTicks": 180,
            "midi": 58,
            "name": "A#3",
            "ticks": 3120,
            "time": 1.8571410000000002,
            "velocity": 0.5511811023622047
          },
          {
            "duration": 0.10714274999999995,
            "durationTicks": 180,
            "midi": 58,
            "name": "A#3",
            "ticks": 3360,
            "time": 1.9999980000000002,
            "velocity": 0.5511811023622047
          },
          {
            "duration": 0.10714274999999995,
            "durationTicks": 180,
            "midi": 67,
            "name": "G4",
            "ticks": 3360,
            "time": 1.9999980000000002,
            "velocity": 0.5511811023622047
          },
          {
            "duration": 0.1071427500000004,
            "durationTicks": 180,
            "midi": 58,
            "name": "A#3",
            "ticks": 3600,
            "time": 2.142855,
            "velocity": 0.5511811023622047
          },
          {
            "duration": 0.1071427500000004,
            "durationTicks": 180,
            "midi": 67,
            "name": "G4",
            "ticks": 3600,
            "time": 2.142855,
            "velocity": 0.5511811023622047
          },
          {
            "duration": 0.10714274999999995,
            "durationTicks": 180,
            "midi": 55,
            "name": "G3",
            "ticks": 3840,
            "time": 2.285712,
            "velocity": 0.5511811023622047
          },
          {
            "duration": 0.10714274999999995,
            "durationTicks": 180,
            "midi": 58,
            "name": "A#3",
            "ticks": 3840,
            "time": 2.285712,
            "velocity": 0.5511811023622047
          },
          {
            "duration": 0.10714274999999995,
            "durationTicks": 180,
            "midi": 55,
            "name": "G3",
            "ticks": 4080,
            "time": 2.4285690000000004,
            "velocity": 0.5511811023622047
          },
          {
            "duration": 0.10714274999999995,
            "durationTicks": 180,
            "midi": 58,
            "name": "A#3",
            "ticks": 4080,
            "time": 2.4285690000000004,
            "velocity": 0.5511811023622047
          },
          {
            "duration": 0.10714274999999995,
            "durationTicks": 180,
            "midi": 58,
            "name": "A#3",
            "ticks": 4320,
            "time": 2.571426,
            "velocity": 0.5511811023622047
          },
          {
            "duration": 0.10714274999999995,
            "durationTicks": 180,
            "midi": 67,
            "name": "G4",
            "ticks": 4320,
            "time": 2.571426,
            "velocity": 0.5511811023622047
          },
          {
            "duration": 0.1071427500000004,
            "durationTicks": 180,
            "midi": 58,
            "name": "A#3",
            "ticks": 4560,
            "time": 2.714283,
            "velocity": 0.5511811023622047
          },
          {
            "duration": 0.1071427500000004,
            "durationTicks": 180,
            "midi": 67,
            "name": "G4",
            "ticks": 4560,
            "time": 2.714283,
            "velocity": 0.5511811023622047
          },
          {
            "duration": 0.10714274999999995,
            "durationTicks": 180,
            "midi": 55,
            "name": "G3",
            "ticks": 4800,
            "time": 2.8571400000000002,
            "velocity": 0.5511811023622047
          },
          {
            "duration": 0.10714274999999995,
            "durationTicks": 180,
            "midi": 58,
            "name": "A#3",
            "ticks": 4800,
            "time": 2.8571400000000002,
            "velocity": 0.5511811023622047
          },
          {
            "duration": 0.10714274999999995,
            "durationTicks": 180,
            "midi": 55,
            "name": "G3",
            "ticks": 5040,
            "time": 2.9999970000000005,
            "velocity": 0.5511811023622047
          },
          {
            "duration": 0.10714274999999995,
            "durationTicks": 180,
            "midi": 58,
            "name": "A#3",
            "ticks": 5040,
            "time": 2.9999970000000005,
            "velocity": 0.5511811023622047
          },
          {
            "duration": 0.10714274999999995,
            "durationTicks": 180,
            "midi": 58,
            "name": "A#3",
            "ticks": 5280,
            "time": 3.1428540000000003,
            "velocity": 0.5511811023622047
          },
          {
            "duration": 0.10714274999999995,
            "durationTicks": 180,
            "midi": 67,
            "name": "G4",
            "ticks": 5280,
            "time": 3.1428540000000003,
            "velocity": 0.5511811023622047
          },
          {
            "duration": 0.1071427500000004,
            "durationTicks": 180,
            "midi": 58,
            "name": "A#3",
            "ticks": 5520,
            "time": 3.285711,
            "velocity": 0.5511811023622047
          },
          {
            "duration": 0.1071427500000004,
            "durationTicks": 180,
            "midi": 67,
            "name": "G4",
            "ticks": 5520,
            "time": 3.285711,
            "velocity": 0.5511811023622047
          },
          {
            "duration": 0.10714274999999995,
            "durationTicks": 180,
            "midi": 55,
            "name": "G3",
            "ticks": 5760,
            "time": 3.4285680000000003,
            "velocity": 0.5511811023622047
          },
          {
            "duration": 0.10714274999999995,
            "durationTicks": 180,
            "midi": 58,
            "name": "A#3",
            "ticks": 5760,
            "time": 3.4285680000000003,
            "velocity": 0.5511811023622047
          },
          {
            "duration": 0.10714274999999995,
            "durationTicks": 180,
            "midi": 55,
            "name": "G3",
            "ticks": 6000,
            "time": 3.5714250000000005,
            "velocity": 0.5511811023622047
          },
          {
            "duration": 0.10714274999999995,
            "durationTicks": 180,
            "midi": 58,
            "name": "A#3",
            "ticks": 6000,
            "time": 3.5714250000000005,
            "velocity": 0.5511811023622047
          },
          {
            "duration": 0.10714274999999995,
            "durationTicks": 180,
            "midi": 58,
            "name": "A#3",
            "ticks": 6240,
            "time": 3.7142820000000003,
            "velocity": 0.5511811023622047
          },
          {
            "duration": 0.10714274999999995,
            "durationTicks": 180,
            "midi": 67,
            "name": "G4",
            "ticks": 6240,
            "time": 3.7142820000000003,
            "velocity": 0.5511811023622047
          },
          {
            "duration": 0.1071427500000004,
            "durationTicks": 180,
            "midi": 58,
            "name": "A#3",
            "ticks": 6480,
            "time": 3.857139,
            "velocity": 0.5511811023622047
          },
          {
            "duration": 0.1071427500000004,
            "durationTicks": 180,
            "midi": 67,
            "name": "G4",
            "ticks": 6480,
            "time": 3.857139,
            "velocity": 0.5511811023622047
          },
          {
            "duration": 0.1071427500000004,
            "durationTicks": 180,
            "midi": 55,
            "name": "G3",
            "ticks": 6720,
            "time": 3.9999960000000003,
            "velocity": 0.5511811023622047
          },
          {
            "duration": 0.1071427500000004,
            "durationTicks": 180,
            "midi": 58,
            "name": "A#3",
            "ticks": 6720,
            "time": 3.9999960000000003,
            "velocity": 0.5511811023622047
          },
          {
            "duration": 0.10714274999999951,
            "durationTicks": 180,
            "midi": 55,
            "name": "G3",
            "ticks": 6960,
            "time": 4.142853000000001,
            "velocity": 0.5511811023622047
          },
          {
            "duration": 0.10714274999999951,
            "durationTicks": 180,
            "midi": 58,
            "name": "A#3",
            "ticks": 6960,
            "time": 4.142853000000001,
            "velocity": 0.5511811023622047
          },
          {
            "duration": 0.1071427500000004,
            "durationTicks": 180,
            "midi": 58,
            "name": "A#3",
            "ticks": 7200,
            "time": 4.28571,
            "velocity": 0.5511811023622047
          },
          {
            "duration": 0.1071427500000004,
            "durationTicks": 180,
            "midi": 67,
            "name": "G4",
            "ticks": 7200,
            "time": 4.28571,
            "velocity": 0.5511811023622047
          },
          {
            "duration": 0.1071427500000004,
            "durationTicks": 180,
            "midi": 58,
            "name": "A#3",
            "ticks": 7440,
            "time": 4.428567,
            "velocity": 0.5511811023622047
          },
          {
            "duration": 0.1071427500000004,
            "durationTicks": 180,
            "midi": 67,
            "name": "G4",
            "ticks": 7440,
            "time": 4.428567,
            "velocity": 0.5511811023622047
          },
          {
            "duration": 0.1071427500000004,
            "durationTicks": 180,
            "midi": 55,
            "name": "G3",
            "ticks": 7680,
            "time": 4.571424,
            "velocity": 0.5511811023622047
          },
          {
            "duration": 0.1071427500000004,
            "durationTicks": 180,
            "midi": 58,
            "name": "A#3",
            "ticks": 7680,
            "time": 4.571424,
            "velocity": 0.5511811023622047
          },
          {
            "duration": 0.10714274999999951,
            "durationTicks": 180,
            "midi": 55,
            "name": "G3",
            "ticks": 7920,
            "time": 4.714281000000001,
            "velocity": 0.5511811023622047
          },
          {
            "duration": 0.10714274999999951,
            "durationTicks": 180,
            "midi": 58,
            "name": "A#3",
            "ticks": 7920,
            "time": 4.714281000000001,
            "velocity": 0.5511811023622047
          },
          {
            "duration": 0.10714274999999951,
            "durationTicks": 180,
            "midi": 58,
            "name": "A#3",
            "ticks": 8160,
            "time": 4.857138000000001,
            "velocity": 0.5511811023622047
          },
          {
            "duration": 0.10714274999999951,
            "durationTicks": 180,
            "midi": 62,
            "name": "D4",
            "ticks": 8160,
            "time": 4.857138000000001,
            "velocity": 0.5511811023622047
          },
          {
            "duration": 0.1071427500000004,
            "durationTicks": 180,
            "midi": 58,
            "name": "A#3",
            "ticks": 8400,
            "time": 4.999995,
            "velocity": 0.5511811023622047
          },
          {
            "duration": 0.1071427500000004,
            "durationTicks": 180,
            "midi": 62,
            "name": "D4",
            "ticks": 8400,
            "time": 4.999995,
            "velocity": 0.5511811023622047
          },
          {
            "duration": 0.1071427500000004,
            "durationTicks": 180,
            "midi": 55,
            "name": "G3",
            "ticks": 8640,
            "time": 5.142852,
            "velocity": 0.5511811023622047
          },
          {
            "duration": 0.1071427500000004,
            "durationTicks": 180,
            "midi": 58,
            "name": "A#3",
            "ticks": 8640,
            "time": 5.142852,
            "velocity": 0.5511811023622047
          },
          {
            "duration": 0.10714274999999951,
            "durationTicks": 180,
            "midi": 55,
            "name": "G3",
            "ticks": 8880,
            "time": 5.285709000000001,
            "velocity": 0.5511811023622047
          },
          {
            "duration": 0.10714274999999951,
            "durationTicks": 180,
            "midi": 58,
            "name": "A#3",
            "ticks": 8880,
            "time": 5.285709000000001,
            "velocity": 0.5511811023622047
          },
          {
            "duration": 0.1071427500000004,
            "durationTicks": 180,
            "midi": 58,
            "name": "A#3",
            "ticks": 9120,
            "time": 5.428566,
            "velocity": 0.5511811023622047
          },
          {
            "duration": 0.1071427500000004,
            "durationTicks": 180,
            "midi": 67,
            "name": "G4",
            "ticks": 9120,
            "time": 5.428566,
            "velocity": 0.5511811023622047
          },
          {
            "duration": 0.1071427500000004,
            "durationTicks": 180,
            "midi": 58,
            "name": "A#3",
            "ticks": 9360,
            "time": 5.571423,
            "velocity": 0.5511811023622047
          },
          {
            "duration": 0.1071427500000004,
            "durationTicks": 180,
            "midi": 67,
            "name": "G4",
            "ticks": 9360,
            "time": 5.571423,
            "velocity": 0.5511811023622047
          },
          {
            "duration": 0.1071427500000004,
            "durationTicks": 180,
            "midi": 57,
            "name": "A3",
            "ticks": 9600,
            "time": 5.7142800000000005,
            "velocity": 0.5511811023622047
          },
          {
            "duration": 0.1071427500000004,
            "durationTicks": 180,
            "midi": 63,
            "name": "D#4",
            "ticks": 9600,
            "time": 5.7142800000000005,
            "velocity": 0.5511811023622047
          },
          {
            "duration": 0.10714274999999951,
            "durationTicks": 180,
            "midi": 57,
            "name": "A3",
            "ticks": 9840,
            "time": 5.857137000000001,
            "velocity": 0.5511811023622047
          },
          {
            "duration": 0.10714274999999951,
            "durationTicks": 180,
            "midi": 63,
            "name": "D#4",
            "ticks": 9840,
            "time": 5.857137000000001,
            "velocity": 0.5511811023622047
          },
          {
            "duration": 0.10714274999999951,
            "durationTicks": 180,
            "midi": 63,
            "name": "D#4",
            "ticks": 10080,
            "time": 5.999994000000001,
            "velocity": 0.5511811023622047
          },
          {
            "duration": 0.10714274999999951,
            "durationTicks": 180,
            "midi": 69,
            "name": "A4",
            "ticks": 10080,
            "time": 5.999994000000001,
            "velocity": 0.5511811023622047
          },
          {
            "duration": 0.1071427500000004,
            "durationTicks": 180,
            "midi": 63,
            "name": "D#4",
            "ticks": 10320,
            "time": 6.142851,
            "velocity": 0.5511811023622047
          },
          {
            "duration": 0.1071427500000004,
            "durationTicks": 180,
            "midi": 69,
            "name": "A4",
            "ticks": 10320,
            "time": 6.142851,
            "velocity": 0.5511811023622047
          },
          {
            "duration": 0.1071427500000004,
            "durationTicks": 180,
            "midi": 57,
            "name": "A3",
            "ticks": 10560,
            "time": 6.2857080000000005,
            "velocity": 0.5511811023622047
          },
          {
            "duration": 0.1071427500000004,
            "durationTicks": 180,
            "midi": 63,
            "name": "D#4",
            "ticks": 10560,
            "time": 6.2857080000000005,
            "velocity": 0.5511811023622047
          },
          {
            "duration": 0.10714274999999951,
            "durationTicks": 180,
            "midi": 57,
            "name": "A3",
            "ticks": 10800,
            "time": 6.428565000000001,
            "velocity": 0.5511811023622047
          },
          {
            "duration": 0.10714274999999951,
            "durationTicks": 180,
            "midi": 63,
            "name": "D#4",
            "ticks": 10800,
            "time": 6.428565000000001,
            "velocity": 0.5511811023622047
          },
          {
            "duration": 0.1071427500000004,
            "durationTicks": 180,
            "midi": 63,
            "name": "D#4",
            "ticks": 11040,
            "time": 6.571422,
            "velocity": 0.5511811023622047
          },
          {
            "duration": 0.1071427500000004,
            "durationTicks": 180,
            "midi": 69,
            "name": "A4",
            "ticks": 11040,
            "time": 6.571422,
            "velocity": 0.5511811023622047
          },
          {
            "duration": 0.1071427500000004,
            "durationTicks": 180,
            "midi": 63,
            "name": "D#4",
            "ticks": 11280,
            "time": 6.714279,
            "velocity": 0.5511811023622047
          },
          {
            "duration": 0.1071427500000004,
            "durationTicks": 180,
            "midi": 69,
            "name": "A4",
            "ticks": 11280,
            "time": 6.714279,
            "velocity": 0.5511811023622047
          },
          {
            "duration": 0.1071427500000004,
            "durationTicks": 180,
            "midi": 57,
            "name": "A3",
            "ticks": 11520,
            "time": 6.857136000000001,
            "velocity": 0.5511811023622047
          },
          {
            "duration": 0.1071427500000004,
            "durationTicks": 180,
            "midi": 63,
            "name": "D#4",
            "ticks": 11520,
            "time": 6.857136000000001,
            "velocity": 0.5511811023622047
          },
          {
            "duration": 0.10714274999999951,
            "durationTicks": 180,
            "midi": 57,
            "name": "A3",
            "ticks": 11760,
            "time": 6.999993000000001,
            "velocity": 0.5511811023622047
          },
          {
            "duration": 0.10714274999999951,
            "durationTicks": 180,
            "midi": 63,
            "name": "D#4",
            "ticks": 11760,
            "time": 6.999993000000001,
            "velocity": 0.5511811023622047
          },
          {
            "duration": 0.10714274999999951,
            "durationTicks": 180,
            "midi": 63,
            "name": "D#4",
            "ticks": 12000,
            "time": 7.142850000000001,
            "velocity": 0.5511811023622047
          },
          {
            "duration": 0.10714274999999951,
            "durationTicks": 180,
            "midi": 69,
            "name": "A4",
            "ticks": 12000,
            "time": 7.142850000000001,
            "velocity": 0.5511811023622047
          },
          {
            "duration": 0.1071427500000004,
            "durationTicks": 180,
            "midi": 63,
            "name": "D#4",
            "ticks": 12240,
            "time": 7.285707,
            "velocity": 0.5511811023622047
          },
          {
            "duration": 0.1071427500000004,
            "durationTicks": 180,
            "midi": 69,
            "name": "A4",
            "ticks": 12240,
            "time": 7.285707,
            "velocity": 0.5511811023622047
          },
          {
            "duration": 0.1071427500000004,
            "durationTicks": 180,
            "midi": 57,
            "name": "A3",
            "ticks": 12480,
            "time": 7.428564000000001,
            "velocity": 0.5511811023622047
          },
          {
            "duration": 0.1071427500000004,
            "durationTicks": 180,
            "midi": 63,
            "name": "D#4",
            "ticks": 12480,
            "time": 7.428564000000001,
            "velocity": 0.5511811023622047
          },
          {
            "duration": 0.10714274999999951,
            "durationTicks": 180,
            "midi": 57,
            "name": "A3",
            "ticks": 12720,
            "time": 7.571421000000001,
            "velocity": 0.5511811023622047
          },
          {
            "duration": 0.10714274999999951,
            "durationTicks": 180,
            "midi": 63,
            "name": "D#4",
            "ticks": 12720,
            "time": 7.571421000000001,
            "velocity": 0.5511811023622047
          },
          {
            "duration": 0.1071427500000004,
            "durationTicks": 180,
            "midi": 63,
            "name": "D#4",
            "ticks": 12960,
            "time": 7.714278,
            "velocity": 0.5511811023622047
          },
          {
            "duration": 0.1071427500000004,
            "durationTicks": 180,
            "midi": 69,
            "name": "A4",
            "ticks": 12960,
            "time": 7.714278,
            "velocity": 0.5511811023622047
          },
          {
            "duration": 0.1071427500000004,
            "durationTicks": 180,
            "midi": 63,
            "name": "D#4",
            "ticks": 13200,
            "time": 7.857135,
            "velocity": 0.5511811023622047
          },
          {
            "duration": 0.1071427500000004,
            "durationTicks": 180,
            "midi": 69,
            "name": "A4",
            "ticks": 13200,
            "time": 7.857135,
            "velocity": 0.5511811023622047
          },
          {
            "duration": 0.10714274999999951,
            "durationTicks": 180,
            "midi": 57,
            "name": "A3",
            "ticks": 13440,
            "time": 7.999992000000001,
            "velocity": 0.5511811023622047
          },
          {
            "duration": 0.10714274999999951,
            "durationTicks": 180,
            "midi": 62,
            "name": "D4",
            "ticks": 13440,
            "time": 7.999992000000001,
            "velocity": 0.5511811023622047
          },
          {
            "duration": 0.10714275000000129,
            "durationTicks": 180,
            "midi": 57,
            "name": "A3",
            "ticks": 13680,
            "time": 8.142849,
            "velocity": 0.5511811023622047
          },
          {
            "duration": 0.10714275000000129,
            "durationTicks": 180,
            "midi": 62,
            "name": "D4",
            "ticks": 13680,
            "time": 8.142849,
            "velocity": 0.5511811023622047
          },
          {
            "duration": 0.10714274999999951,
            "durationTicks": 180,
            "midi": 62,
            "name": "D4",
            "ticks": 13920,
            "time": 8.285706000000001,
            "velocity": 0.5511811023622047
          },
          {
            "duration": 0.10714274999999951,
            "durationTicks": 180,
            "midi": 72,
            "name": "C5",
            "ticks": 13920,
            "time": 8.285706000000001,
            "velocity": 0.5511811023622047
          },
          {
            "duration": 0.10714274999999951,
            "durationTicks": 180,
            "midi": 62,
            "name": "D4",
            "ticks": 14160,
            "time": 8.428563,
            "velocity": 0.5511811023622047
          },
          {
            "duration": 0.10714274999999951,
            "durationTicks": 180,
            "midi": 72,
            "name": "C5",
            "ticks": 14160,
            "time": 8.428563,
            "velocity": 0.5511811023622047
          },
          {
            "duration": 0.10714275000000129,
            "durationTicks": 180,
            "midi": 57,
            "name": "A3",
            "ticks": 14400,
            "time": 8.57142,
            "velocity": 0.5511811023622047
          },
          {
            "duration": 0.10714275000000129,
            "durationTicks": 180,
            "midi": 62,
            "name": "D4",
            "ticks": 14400,
            "time": 8.57142,
            "velocity": 0.5511811023622047
          },
          {
            "duration": 0.10714274999999951,
            "durationTicks": 180,
            "midi": 57,
            "name": "A3",
            "ticks": 14640,
            "time": 8.714277000000001,
            "velocity": 0.5511811023622047
          },
          {
            "duration": 0.10714274999999951,
            "durationTicks": 180,
            "midi": 62,
            "name": "D4",
            "ticks": 14640,
            "time": 8.714277000000001,
            "velocity": 0.5511811023622047
          },
          {
            "duration": 0.10714275000000129,
            "durationTicks": 180,
            "midi": 62,
            "name": "D4",
            "ticks": 14880,
            "time": 8.857134,
            "velocity": 0.5511811023622047
          },
          {
            "duration": 0.10714275000000129,
            "durationTicks": 180,
            "midi": 72,
            "name": "C5",
            "ticks": 14880,
            "time": 8.857134,
            "velocity": 0.5511811023622047
          },
          {
            "duration": 0.10714274999999951,
            "durationTicks": 180,
            "midi": 62,
            "name": "D4",
            "ticks": 15120,
            "time": 8.999991000000001,
            "velocity": 0.5511811023622047
          },
          {
            "duration": 0.10714274999999951,
            "durationTicks": 180,
            "midi": 72,
            "name": "C5",
            "ticks": 15120,
            "time": 8.999991000000001,
            "velocity": 0.5511811023622047
          },
          {
            "duration": 0.10714274999999951,
            "durationTicks": 180,
            "midi": 57,
            "name": "A3",
            "ticks": 15360,
            "time": 9.142848,
            "velocity": 0.5511811023622047
          },
          {
            "duration": 0.10714274999999951,
            "durationTicks": 180,
            "midi": 60,
            "name": "C4",
            "ticks": 15360,
            "time": 9.142848,
            "velocity": 0.5511811023622047
          },
          {
            "duration": 0.10714275000000129,
            "durationTicks": 180,
            "midi": 57,
            "name": "A3",
            "ticks": 15600,
            "time": 9.285705,
            "velocity": 0.5511811023622047
          },
          {
            "duration": 0.10714275000000129,
            "durationTicks": 180,
            "midi": 60,
            "name": "C4",
            "ticks": 15600,
            "time": 9.285705,
            "velocity": 0.5511811023622047
          },
          {
            "duration": 0.10714274999999951,
            "durationTicks": 180,
            "midi": 60,
            "name": "C4",
            "ticks": 15840,
            "time": 9.428562000000001,
            "velocity": 0.5511811023622047
          },
          {
            "duration": 0.10714274999999951,
            "durationTicks": 180,
            "midi": 69,
            "name": "A4",
            "ticks": 15840,
            "time": 9.428562000000001,
            "velocity": 0.5511811023622047
          },
          {
            "duration": 0.10714274999999951,
            "durationTicks": 180,
            "midi": 60,
            "name": "C4",
            "ticks": 16080,
            "time": 9.571419,
            "velocity": 0.5511811023622047
          },
          {
            "duration": 0.10714274999999951,
            "durationTicks": 180,
            "midi": 69,
            "name": "A4",
            "ticks": 16080,
            "time": 9.571419,
            "velocity": 0.5511811023622047
          },
          {
            "duration": 0.10714274999999951,
            "durationTicks": 180,
            "midi": 57,
            "name": "A3",
            "ticks": 16320,
            "time": 9.714276000000002,
            "velocity": 0.5511811023622047
          },
          {
            "duration": 0.10714274999999951,
            "durationTicks": 180,
            "midi": 66,
            "name": "F#4",
            "ticks": 16320,
            "time": 9.714276000000002,
            "velocity": 0.5511811023622047
          },
          {
            "duration": 0.10714274999999951,
            "durationTicks": 180,
            "midi": 57,
            "name": "A3",
            "ticks": 16560,
            "time": 9.857133000000001,
            "velocity": 0.5511811023622047
          },
          {
            "duration": 0.10714274999999951,
            "durationTicks": 180,
            "midi": 66,
            "name": "F#4",
            "ticks": 16560,
            "time": 9.857133000000001,
            "velocity": 0.5511811023622047
          },
          {
            "duration": 0.10714275000000129,
            "durationTicks": 180,
            "midi": 66,
            "name": "F#4",
            "ticks": 16800,
            "time": 9.99999,
            "velocity": 0.5511811023622047
          },
          {
            "duration": 0.10714275000000129,
            "durationTicks": 180,
            "midi": 69,
            "name": "A4",
            "ticks": 16800,
            "time": 9.99999,
            "velocity": 0.5511811023622047
          },
          {
            "duration": 0.10714274999999951,
            "durationTicks": 180,
            "midi": 66,
            "name": "F#4",
            "ticks": 17040,
            "time": 10.142847000000002,
            "velocity": 0.5511811023622047
          },
          {
            "duration": 0.10714274999999951,
            "durationTicks": 180,
            "midi": 69,
            "name": "A4",
            "ticks": 17040,
            "time": 10.142847000000002,
            "velocity": 0.5511811023622047
          },
          {
            "duration": 0.10714274999999951,
            "durationTicks": 180,
            "midi": 55,
            "name": "G3",
            "ticks": 17280,
            "time": 10.285704,
            "velocity": 0.5511811023622047
          },
          {
            "duration": 0.10714274999999951,
            "durationTicks": 180,
            "midi": 58,
            "name": "A#3",
            "ticks": 17280,
            "time": 10.285704,
            "velocity": 0.5511811023622047
          },
          {
            "duration": 0.10714275000000129,
            "durationTicks": 180,
            "midi": 55,
            "name": "G3",
            "ticks": 17520,
            "time": 10.428561,
            "velocity": 0.5511811023622047
          },
          {
            "duration": 0.10714275000000129,
            "durationTicks": 180,
            "midi": 58,
            "name": "A#3",
            "ticks": 17520,
            "time": 10.428561,
            "velocity": 0.5511811023622047
          },
          {
            "duration": 0.10714274999999951,
            "durationTicks": 180,
            "midi": 58,
            "name": "A#3",
            "ticks": 17760,
            "time": 10.571418000000001,
            "velocity": 0.5511811023622047
          },
          {
            "duration": 0.10714274999999951,
            "durationTicks": 180,
            "midi": 67,
            "name": "G4",
            "ticks": 17760,
            "time": 10.571418000000001,
            "velocity": 0.5511811023622047
          },
          {
            "duration": 0.10714274999999951,
            "durationTicks": 180,
            "midi": 58,
            "name": "A#3",
            "ticks": 18000,
            "time": 10.714275,
            "velocity": 0.5511811023622047
          },
          {
            "duration": 0.10714274999999951,
            "durationTicks": 180,
            "midi": 67,
            "name": "G4",
            "ticks": 18000,
            "time": 10.714275,
            "velocity": 0.5511811023622047
          },
          {
            "duration": 0.10714275000000129,
            "durationTicks": 180,
            "midi": 55,
            "name": "G3",
            "ticks": 18240,
            "time": 10.857132,
            "velocity": 0.5511811023622047
          },
          {
            "duration": 0.10714275000000129,
            "durationTicks": 180,
            "midi": 58,
            "name": "A#3",
            "ticks": 18240,
            "time": 10.857132,
            "velocity": 0.5511811023622047
          },
          {
            "duration": 0.10714274999999951,
            "durationTicks": 180,
            "midi": 55,
            "name": "G3",
            "ticks": 18480,
            "time": 10.999989000000001,
            "velocity": 0.5511811023622047
          },
          {
            "duration": 0.10714274999999951,
            "durationTicks": 180,
            "midi": 58,
            "name": "A#3",
            "ticks": 18480,
            "time": 10.999989000000001,
            "velocity": 0.5511811023622047
          },
          {
            "duration": 0.10714275000000129,
            "durationTicks": 180,
            "midi": 58,
            "name": "A#3",
            "ticks": 18720,
            "time": 11.142846,
            "velocity": 0.5511811023622047
          },
          {
            "duration": 0.10714275000000129,
            "durationTicks": 180,
            "midi": 67,
            "name": "G4",
            "ticks": 18720,
            "time": 11.142846,
            "velocity": 0.5511811023622047
          },
          {
            "duration": 0.10714274999999951,
            "durationTicks": 180,
            "midi": 58,
            "name": "A#3",
            "ticks": 18960,
            "time": 11.285703000000002,
            "velocity": 0.5511811023622047
          },
          {
            "duration": 0.10714274999999951,
            "durationTicks": 180,
            "midi": 67,
            "name": "G4",
            "ticks": 18960,
            "time": 11.285703000000002,
            "velocity": 0.5511811023622047
          },
          {
            "duration": 0.10714274999999951,
            "durationTicks": 180,
            "midi": 57,
            "name": "A3",
            "ticks": 19200,
            "time": 11.428560000000001,
            "velocity": 0.5511811023622047
          },
          {
            "duration": 0.10714274999999951,
            "durationTicks": 180,
            "midi": 63,
            "name": "D#4",
            "ticks": 19200,
            "time": 11.428560000000001,
            "velocity": 0.5511811023622047
          },
          {
            "duration": 0.10714275000000129,
            "durationTicks": 180,
            "midi": 57,
            "name": "A3",
            "ticks": 19440,
            "time": 11.571417,
            "velocity": 0.5511811023622047
          },
          {
            "duration": 0.10714275000000129,
            "durationTicks": 180,
            "midi": 63,
            "name": "D#4",
            "ticks": 19440,
            "time": 11.571417,
            "velocity": 0.5511811023622047
          },
          {
            "duration": 0.10714274999999951,
            "durationTicks": 180,
            "midi": 63,
            "name": "D#4",
            "ticks": 19680,
            "time": 11.714274000000001,
            "velocity": 0.5511811023622047
          },
          {
            "duration": 0.10714274999999951,
            "durationTicks": 180,
            "midi": 66,
            "name": "F#4",
            "ticks": 19680,
            "time": 11.714274000000001,
            "velocity": 0.5511811023622047
          },
          {
            "duration": 0.10714274999999951,
            "durationTicks": 180,
            "midi": 63,
            "name": "D#4",
            "ticks": 19920,
            "time": 11.857131,
            "velocity": 0.5511811023622047
          },
          {
            "duration": 0.10714274999999951,
            "durationTicks": 180,
            "midi": 66,
            "name": "F#4",
            "ticks": 19920,
            "time": 11.857131,
            "velocity": 0.5511811023622047
          },
          {
            "duration": 0.10714274999999951,
            "durationTicks": 180,
            "midi": 57,
            "name": "A3",
            "ticks": 20160,
            "time": 11.999988000000002,
            "velocity": 0.5511811023622047
          },
          {
            "duration": 0.10714274999999951,
            "durationTicks": 180,
            "midi": 63,
            "name": "D#4",
            "ticks": 20160,
            "time": 11.999988000000002,
            "velocity": 0.5511811023622047
          },
          {
            "duration": 0.10714274999999951,
            "durationTicks": 180,
            "midi": 57,
            "name": "A3",
            "ticks": 20400,
            "time": 12.142845000000001,
            "velocity": 0.5511811023622047
          },
          {
            "duration": 0.10714274999999951,
            "durationTicks": 180,
            "midi": 63,
            "name": "D#4",
            "ticks": 20400,
            "time": 12.142845000000001,
            "velocity": 0.5511811023622047
          },
          {
            "duration": 0.10714275000000129,
            "durationTicks": 180,
            "midi": 63,
            "name": "D#4",
            "ticks": 20640,
            "time": 12.285702,
            "velocity": 0.5511811023622047
          },
          {
            "duration": 0.10714275000000129,
            "durationTicks": 180,
            "midi": 66,
            "name": "F#4",
            "ticks": 20640,
            "time": 12.285702,
            "velocity": 0.5511811023622047
          },
          {
            "duration": 0.10714274999999951,
            "durationTicks": 180,
            "midi": 63,
            "name": "D#4",
            "ticks": 20880,
            "time": 12.428559000000002,
            "velocity": 0.5511811023622047
          },
          {
            "duration": 0.10714274999999951,
            "durationTicks": 180,
            "midi": 66,
            "name": "F#4",
            "ticks": 20880,
            "time": 12.428559000000002,
            "velocity": 0.5511811023622047
          },
          {
            "duration": 0.10714274999999951,
            "durationTicks": 180,
            "midi": 55,
            "name": "G3",
            "ticks": 21120,
            "time": 12.571416000000001,
            "velocity": 0.5511811023622047
          },
          {
            "duration": 0.10714274999999951,
            "durationTicks": 180,
            "midi": 58,
            "name": "A#3",
            "ticks": 21120,
            "time": 12.571416000000001,
            "velocity": 0.5511811023622047
          },
          {
            "duration": 0.10714275000000129,
            "durationTicks": 180,
            "midi": 55,
            "name": "G3",
            "ticks": 21360,
            "time": 12.714273,
            "velocity": 0.5511811023622047
          },
          {
            "duration": 0.10714275000000129,
            "durationTicks": 180,
            "midi": 58,
            "name": "A#3",
            "ticks": 21360,
            "time": 12.714273,
            "velocity": 0.5511811023622047
          },
          {
            "duration": 0.10714274999999951,
            "durationTicks": 180,
            "midi": 58,
            "name": "A#3",
            "ticks": 21600,
            "time": 12.857130000000002,
            "velocity": 0.5511811023622047
          },
          {
            "duration": 0.10714274999999951,
            "durationTicks": 180,
            "midi": 67,
            "name": "G4",
            "ticks": 21600,
            "time": 12.857130000000002,
            "velocity": 0.5511811023622047
          },
          {
            "duration": 0.10714274999999951,
            "durationTicks": 180,
            "midi": 58,
            "name": "A#3",
            "ticks": 21840,
            "time": 12.999987,
            "velocity": 0.5511811023622047
          },
          {
            "duration": 0.10714274999999951,
            "durationTicks": 180,
            "midi": 67,
            "name": "G4",
            "ticks": 21840,
            "time": 12.999987,
            "velocity": 0.5511811023622047
          },
          {
            "duration": 0.10714275000000129,
            "durationTicks": 180,
            "midi": 55,
            "name": "G3",
            "ticks": 22080,
            "time": 13.142844,
            "velocity": 0.5511811023622047
          },
          {
            "duration": 0.10714275000000129,
            "durationTicks": 180,
            "midi": 58,
            "name": "A#3",
            "ticks": 22080,
            "time": 13.142844,
            "velocity": 0.5511811023622047
          },
          {
            "duration": 0.10714274999999951,
            "durationTicks": 180,
            "midi": 55,
            "name": "G3",
            "ticks": 22320,
            "time": 13.285701000000001,
            "velocity": 0.5511811023622047
          },
          {
            "duration": 0.10714274999999951,
            "durationTicks": 180,
            "midi": 58,
            "name": "A#3",
            "ticks": 22320,
            "time": 13.285701000000001,
            "velocity": 0.5511811023622047
          },
          {
            "duration": 0.10714275000000129,
            "durationTicks": 180,
            "midi": 58,
            "name": "A#3",
            "ticks": 22560,
            "time": 13.428558,
            "velocity": 0.5511811023622047
          },
          {
            "duration": 0.10714275000000129,
            "durationTicks": 180,
            "midi": 67,
            "name": "G4",
            "ticks": 22560,
            "time": 13.428558,
            "velocity": 0.5511811023622047
          },
          {
            "duration": 0.10714274999999951,
            "durationTicks": 180,
            "midi": 58,
            "name": "A#3",
            "ticks": 22800,
            "time": 13.571415000000002,
            "velocity": 0.5511811023622047
          },
          {
            "duration": 0.10714274999999951,
            "durationTicks": 180,
            "midi": 67,
            "name": "G4",
            "ticks": 22800,
            "time": 13.571415000000002,
            "velocity": 0.5511811023622047
          },
          {
            "duration": 0.10714274999999951,
            "durationTicks": 180,
            "midi": 57,
            "name": "A3",
            "ticks": 23040,
            "time": 13.714272000000001,
            "velocity": 0.5511811023622047
          },
          {
            "duration": 0.10714274999999951,
            "durationTicks": 180,
            "midi": 63,
            "name": "D#4",
            "ticks": 23040,
            "time": 13.714272000000001,
            "velocity": 0.5511811023622047
          },
          {
            "duration": 0.10714275000000129,
            "durationTicks": 180,
            "midi": 57,
            "name": "A3",
            "ticks": 23280,
            "time": 13.857129,
            "velocity": 0.5511811023622047
          },
          {
            "duration": 0.10714275000000129,
            "durationTicks": 180,
            "midi": 63,
            "name": "D#4",
            "ticks": 23280,
            "time": 13.857129,
            "velocity": 0.5511811023622047
          },
          {
            "duration": 0.10714274999999951,
            "durationTicks": 180,
            "midi": 63,
            "name": "D#4",
            "ticks": 23520,
            "time": 13.999986000000002,
            "velocity": 0.5511811023622047
          },
          {
            "duration": 0.10714274999999951,
            "durationTicks": 180,
            "midi": 66,
            "name": "F#4",
            "ticks": 23520,
            "time": 13.999986000000002,
            "velocity": 0.5511811023622047
          },
          {
            "duration": 0.10714274999999951,
            "durationTicks": 180,
            "midi": 63,
            "name": "D#4",
            "ticks": 23760,
            "time": 14.142843000000001,
            "velocity": 0.5511811023622047
          },
          {
            "duration": 0.10714274999999951,
            "durationTicks": 180,
            "midi": 66,
            "name": "F#4",
            "ticks": 23760,
            "time": 14.142843000000001,
            "velocity": 0.5511811023622047
          },
          {
            "duration": 0.10714274999999951,
            "durationTicks": 180,
            "midi": 57,
            "name": "A3",
            "ticks": 24000,
            "time": 14.285700000000002,
            "velocity": 0.5511811023622047
          },
          {
            "duration": 0.10714274999999951,
            "durationTicks": 180,
            "midi": 63,
            "name": "D#4",
            "ticks": 24000,
            "time": 14.285700000000002,
            "velocity": 0.5511811023622047
          },
          {
            "duration": 0.10714274999999951,
            "durationTicks": 180,
            "midi": 57,
            "name": "A3",
            "ticks": 24240,
            "time": 14.428557000000001,
            "velocity": 0.5511811023622047
          },
          {
            "duration": 0.10714274999999951,
            "durationTicks": 180,
            "midi": 63,
            "name": "D#4",
            "ticks": 24240,
            "time": 14.428557000000001,
            "velocity": 0.5511811023622047
          },
          {
            "duration": 0.10714275000000129,
            "durationTicks": 180,
            "midi": 63,
            "name": "D#4",
            "ticks": 24480,
            "time": 14.571414,
            "velocity": 0.5511811023622047
          },
          {
            "duration": 0.10714275000000129,
            "durationTicks": 180,
            "midi": 66,
            "name": "F#4",
            "ticks": 24480,
            "time": 14.571414,
            "velocity": 0.5511811023622047
          },
          {
            "duration": 0.10714274999999951,
            "durationTicks": 180,
            "midi": 63,
            "name": "D#4",
            "ticks": 24720,
            "time": 14.714271000000002,
            "velocity": 0.5511811023622047
          },
          {
            "duration": 0.10714274999999951,
            "durationTicks": 180,
            "midi": 66,
            "name": "F#4",
            "ticks": 24720,
            "time": 14.714271000000002,
            "velocity": 0.5511811023622047
          },
          {
            "duration": 1.085713199999999,
            "durationTicks": 1824,
            "midi": 55,
            "name": "G3",
            "ticks": 24960,
            "time": 14.857128000000001,
            "velocity": 0.5511811023622047
          },
          {
            "duration": 1.085713199999999,
            "durationTicks": 1824,
            "midi": 62,
            "name": "D4",
            "ticks": 24960,
            "time": 14.857128000000001,
            "velocity": 0.5511811023622047
          },
          {
            "duration": 0.8571419999999996,
            "durationTicks": 1440,
            "midi": 58,
            "name": "A#3",
            "ticks": 26880,
            "time": 15.999984000000001,
            "velocity": 0.5511811023622047
          },
          {
            "duration": 0.2857139999999987,
            "durationTicks": 480,
            "midi": 57,
            "name": "A3",
            "ticks": 28320,
            "time": 16.857126,
            "velocity": 0.5511811023622047
          },
          {
            "duration": 0.5714280000000009,
            "durationTicks": 960,
            "midi": 55,
            "name": "G3",
            "ticks": 28800,
            "time": 17.14284,
            "velocity": 0.5511811023622047
          },
          {
            "duration": 0.28571400000000224,
            "durationTicks": 480,
            "midi": 54,
            "name": "F#3",
            "ticks": 29760,
            "time": 17.714268,
            "velocity": 0.5511811023622047
          },
          {
            "duration": 0.22857119999999753,
            "durationTicks": 384,
            "midi": 55,
            "name": "G3",
            "ticks": 30240,
            "time": 17.999982000000003,
            "velocity": 0.5511811023622047
          },
          {
            "duration": 0.4571423999999986,
            "durationTicks": 768,
            "midi": 57,
            "name": "A3",
            "ticks": 30720,
            "time": 18.285696,
            "velocity": 0.5511811023622047
          },
          {
            "duration": 0.10714275000000129,
            "durationTicks": 180,
            "midi": 62,
            "name": "D4",
            "ticks": 32160,
            "time": 19.142838,
            "velocity": 0.8267716535433071
          },
          {
            "duration": 0.10714275000000129,
            "durationTicks": 180,
            "midi": 62,
            "name": "D4",
            "ticks": 32400,
            "time": 19.285695,
            "velocity": 0.8267716535433071
          },
          {
            "duration": 0.45714239999999506,
            "durationTicks": 768,
            "midi": 62,
            "name": "D4",
            "ticks": 32640,
            "time": 19.428552000000003,
            "velocity": 0.8267716535433071
          },
          {
            "duration": 0.10714274999999773,
            "durationTicks": 180,
            "midi": 62,
            "name": "D4",
            "ticks": 34080,
            "time": 20.285694000000003,
            "velocity": 0.8267716535433071
          },
          {
            "duration": 0.10714274999999773,
            "durationTicks": 180,
            "midi": 62,
            "name": "D4",
            "ticks": 34320,
            "time": 20.428551000000002,
            "velocity": 0.8267716535433071
          },
          {
            "duration": 0.4571423999999986,
            "durationTicks": 768,
            "midi": 62,
            "name": "D4",
            "ticks": 34560,
            "time": 20.571408,
            "velocity": 0.8267716535433071
          },
          {
            "duration": 0.10714275000000129,
            "durationTicks": 180,
            "midi": 62,
            "name": "D4",
            "ticks": 36000,
            "time": 21.42855,
            "velocity": 0.8267716535433071
          },
          {
            "duration": 0.10714275000000129,
            "durationTicks": 180,
            "midi": 62,
            "name": "D4",
            "ticks": 36240,
            "time": 21.571407,
            "velocity": 0.8267716535433071
          },
          {
            "duration": 0.21428550000000257,
            "durationTicks": 360,
            "midi": 62,
            "name": "D4",
            "ticks": 36480,
            "time": 21.714264,
            "velocity": 0.8267716535433071
          },
          {
            "duration": 0.10714275000000129,
            "durationTicks": 180,
            "midi": 62,
            "name": "D4",
            "ticks": 36960,
            "time": 21.999978000000002,
            "velocity": 0.8267716535433071
          },
          {
            "duration": 0.10714275000000129,
            "durationTicks": 180,
            "midi": 62,
            "name": "D4",
            "ticks": 37200,
            "time": 22.142835,
            "velocity": 0.8267716535433071
          },
          {
            "duration": 0.21428550000000257,
            "durationTicks": 360,
            "midi": 62,
            "name": "D4",
            "ticks": 37440,
            "time": 22.285692,
            "velocity": 0.8267716535433071
          },
          {
            "duration": 0.10714274999999773,
            "durationTicks": 180,
            "midi": 62,
            "name": "D4",
            "ticks": 37920,
            "time": 22.571406000000003,
            "velocity": 0.8267716535433071
          },
          {
            "duration": 0.10714274999999773,
            "durationTicks": 180,
            "midi": 62,
            "name": "D4",
            "ticks": 38160,
            "time": 22.714263000000003,
            "velocity": 0.8267716535433071
          },
          {
            "duration": 0.4571423999999986,
            "durationTicks": 768,
            "midi": 62,
            "name": "D4",
            "ticks": 38400,
            "time": 22.857120000000002,
            "velocity": 0.8267716535433071
          },
          {
            "duration": 0.10714275000000129,
            "durationTicks": 180,
            "midi": 55,
            "name": "G3",
            "ticks": 42240,
            "time": 25.142832000000002,
            "velocity": 0.5511811023622047
          },
          {
            "duration": 0.10714275000000129,
            "durationTicks": 180,
            "midi": 58,
            "name": "A#3",
            "ticks": 42240,
            "time": 25.142832000000002,
            "velocity": 0.5511811023622047
          },
          {
            "duration": 0.10714275000000129,
            "durationTicks": 180,
            "midi": 55,
            "name": "G3",
            "ticks": 42480,
            "time": 25.285689,
            "velocity": 0.5511811023622047
          },
          {
            "duration": 0.10714275000000129,
            "durationTicks": 180,
            "midi": 58,
            "name": "A#3",
            "ticks": 42480,
            "time": 25.285689,
            "velocity": 0.5511811023622047
          },
          {
            "duration": 0.10714275000000129,
            "durationTicks": 180,
            "midi": 58,
            "name": "A#3",
            "ticks": 42720,
            "time": 25.428546,
            "velocity": 0.5511811023622047
          },
          {
            "duration": 0.10714275000000129,
            "durationTicks": 180,
            "midi": 67,
            "name": "G4",
            "ticks": 42720,
            "time": 25.428546,
            "velocity": 0.5511811023622047
          },
          {
            "duration": 0.10714274999999773,
            "durationTicks": 180,
            "midi": 58,
            "name": "A#3",
            "ticks": 42960,
            "time": 25.571403000000004,
            "velocity": 0.5511811023622047
          },
          {
            "duration": 0.10714274999999773,
            "durationTicks": 180,
            "midi": 67,
            "name": "G4",
            "ticks": 42960,
            "time": 25.571403000000004,
            "velocity": 0.5511811023622047
          },
          {
            "duration": 0.10714274999999773,
            "durationTicks": 180,
            "midi": 55,
            "name": "G3",
            "ticks": 43200,
            "time": 25.714260000000003,
            "velocity": 0.5511811023622047
          },
          {
            "duration": 0.10714274999999773,
            "durationTicks": 180,
            "midi": 58,
            "name": "A#3",
            "ticks": 43200,
            "time": 25.714260000000003,
            "velocity": 0.5511811023622047
          },
          {
            "duration": 0.10714275000000129,
            "durationTicks": 180,
            "midi": 55,
            "name": "G3",
            "ticks": 43440,
            "time": 25.857117000000002,
            "velocity": 0.5511811023622047
          },
          {
            "duration": 0.10714275000000129,
            "durationTicks": 180,
            "midi": 58,
            "name": "A#3",
            "ticks": 43440,
            "time": 25.857117000000002,
            "velocity": 0.5511811023622047
          },
          {
            "duration": 0.10714275000000129,
            "durationTicks": 180,
            "midi": 58,
            "name": "A#3",
            "ticks": 43680,
            "time": 25.999974,
            "velocity": 0.5511811023622047
          },
          {
            "duration": 0.10714275000000129,
            "durationTicks": 180,
            "midi": 67,
            "name": "G4",
            "ticks": 43680,
            "time": 25.999974,
            "velocity": 0.5511811023622047
          },
          {
            "duration": 0.10714275000000129,
            "durationTicks": 180,
            "midi": 58,
            "name": "A#3",
            "ticks": 43920,
            "time": 26.142831,
            "velocity": 0.5511811023622047
          },
          {
            "duration": 0.10714275000000129,
            "durationTicks": 180,
            "midi": 67,
            "name": "G4",
            "ticks": 43920,
            "time": 26.142831,
            "velocity": 0.5511811023622047
          },
          {
            "duration": 0.10714275000000129,
            "durationTicks": 180,
            "midi": 55,
            "name": "G3",
            "ticks": 44160,
            "time": 26.285688,
            "velocity": 0.5511811023622047
          },
          {
            "duration": 0.10714275000000129,
            "durationTicks": 180,
            "midi": 58,
            "name": "A#3",
            "ticks": 44160,
            "time": 26.285688,
            "velocity": 0.5511811023622047
          },
          {
            "duration": 0.10714274999999773,
            "durationTicks": 180,
            "midi": 55,
            "name": "G3",
            "ticks": 44400,
            "time": 26.428545000000003,
            "velocity": 0.5511811023622047
          },
          {
            "duration": 0.10714274999999773,
            "durationTicks": 180,
            "midi": 58,
            "name": "A#3",
            "ticks": 44400,
            "time": 26.428545000000003,
            "velocity": 0.5511811023622047
          },
          {
            "duration": 0.10714275000000129,
            "durationTicks": 180,
            "midi": 58,
            "name": "A#3",
            "ticks": 44640,
            "time": 26.571402000000003,
            "velocity": 0.5511811023622047
          },
          {
            "duration": 0.10714275000000129,
            "durationTicks": 180,
            "midi": 62,
            "name": "D4",
            "ticks": 44640,
            "time": 26.571402000000003,
            "velocity": 0.5511811023622047
          },
          {
            "duration": 0.10714275000000129,
            "durationTicks": 180,
            "midi": 58,
            "name": "A#3",
            "ticks": 44880,
            "time": 26.714259000000002,
            "velocity": 0.5511811023622047
          },
          {
            "duration": 0.10714275000000129,
            "durationTicks": 180,
            "midi": 62,
            "name": "D4",
            "ticks": 44880,
            "time": 26.714259000000002,
            "velocity": 0.5511811023622047
          },
          {
            "duration": 0.10714275000000129,
            "durationTicks": 180,
            "midi": 55,
            "name": "G3",
            "ticks": 45120,
            "time": 26.857116,
            "velocity": 0.5511811023622047
          },
          {
            "duration": 0.10714275000000129,
            "durationTicks": 180,
            "midi": 58,
            "name": "A#3",
            "ticks": 45120,
            "time": 26.857116,
            "velocity": 0.5511811023622047
          },
          {
            "duration": 0.10714275000000129,
            "durationTicks": 180,
            "midi": 55,
            "name": "G3",
            "ticks": 45360,
            "time": 26.999973,
            "velocity": 0.5511811023622047
          },
          {
            "duration": 0.10714275000000129,
            "durationTicks": 180,
            "midi": 58,
            "name": "A#3",
            "ticks": 45360,
            "time": 26.999973,
            "velocity": 0.5511811023622047
          },
          {
            "duration": 0.10714274999999773,
            "durationTicks": 180,
            "midi": 58,
            "name": "A#3",
            "ticks": 45600,
            "time": 27.142830000000004,
            "velocity": 0.5511811023622047
          },
          {
            "duration": 0.10714274999999773,
            "durationTicks": 180,
            "midi": 67,
            "name": "G4",
            "ticks": 45600,
            "time": 27.142830000000004,
            "velocity": 0.5511811023622047
          },
          {
            "duration": 0.10714274999999773,
            "durationTicks": 180,
            "midi": 58,
            "name": "A#3",
            "ticks": 45840,
            "time": 27.285687000000003,
            "velocity": 0.5511811023622047
          },
          {
            "duration": 0.10714274999999773,
            "durationTicks": 180,
            "midi": 67,
            "name": "G4",
            "ticks": 45840,
            "time": 27.285687000000003,
            "velocity": 0.5511811023622047
          },
          {
            "duration": 0.10714275000000129,
            "durationTicks": 180,
            "midi": 55,
            "name": "G3",
            "ticks": 46080,
            "time": 27.428544000000002,
            "velocity": 0.5511811023622047
          },
          {
            "duration": 0.10714275000000129,
            "durationTicks": 180,
            "midi": 58,
            "name": "A#3",
            "ticks": 46080,
            "time": 27.428544000000002,
            "velocity": 0.5511811023622047
          },
          {
            "duration": 0.10714275000000129,
            "durationTicks": 180,
            "midi": 55,
            "name": "G3",
            "ticks": 46320,
            "time": 27.571401,
            "velocity": 0.5511811023622047
          },
          {
            "duration": 0.10714275000000129,
            "durationTicks": 180,
            "midi": 58,
            "name": "A#3",
            "ticks": 46320,
            "time": 27.571401,
            "velocity": 0.5511811023622047
          },
          {
            "duration": 0.10714275000000129,
            "durationTicks": 180,
            "midi": 58,
            "name": "A#3",
            "ticks": 46560,
            "time": 27.714258,
            "velocity": 0.5511811023622047
          },
          {
            "duration": 0.10714275000000129,
            "durationTicks": 180,
            "midi": 67,
            "name": "G4",
            "ticks": 46560,
            "time": 27.714258,
            "velocity": 0.5511811023622047
          },
          {
            "duration": 0.10714274999999773,
            "durationTicks": 180,
            "midi": 58,
            "name": "A#3",
            "ticks": 46800,
            "time": 27.857115000000004,
            "velocity": 0.5511811023622047
          },
          {
            "duration": 0.10714274999999773,
            "durationTicks": 180,
            "midi": 67,
            "name": "G4",
            "ticks": 46800,
            "time": 27.857115000000004,
            "velocity": 0.5511811023622047
          },
          {
            "duration": 0.10714274999999773,
            "durationTicks": 180,
            "midi": 55,
            "name": "G3",
            "ticks": 47040,
            "time": 27.999972000000003,
            "velocity": 0.5511811023622047
          },
          {
            "duration": 0.10714274999999773,
            "durationTicks": 180,
            "midi": 58,
            "name": "A#3",
            "ticks": 47040,
            "time": 27.999972000000003,
            "velocity": 0.5511811023622047
          },
          {
            "duration": 0.10714275000000129,
            "durationTicks": 180,
            "midi": 55,
            "name": "G3",
            "ticks": 47280,
            "time": 28.142829000000003,
            "velocity": 0.5511811023622047
          },
          {
            "duration": 0.10714275000000129,
            "durationTicks": 180,
            "midi": 58,
            "name": "A#3",
            "ticks": 47280,
            "time": 28.142829000000003,
            "velocity": 0.5511811023622047
          },
          {
            "duration": 0.10714275000000129,
            "durationTicks": 180,
            "midi": 58,
            "name": "A#3",
            "ticks": 47520,
            "time": 28.285686000000002,
            "velocity": 0.5511811023622047
          },
          {
            "duration": 0.10714275000000129,
            "durationTicks": 180,
            "midi": 67,
            "name": "G4",
            "ticks": 47520,
            "time": 28.285686000000002,
            "velocity": 0.5511811023622047
          },
          {
            "duration": 0.10714275000000129,
            "durationTicks": 180,
            "midi": 58,
            "name": "A#3",
            "ticks": 47760,
            "time": 28.428543,
            "velocity": 0.5511811023622047
          },
          {
            "duration": 0.10714275000000129,
            "durationTicks": 180,
            "midi": 67,
            "name": "G4",
            "ticks": 47760,
            "time": 28.428543,
            "velocity": 0.5511811023622047
          },
          {
            "duration": 0.10714274999999773,
            "durationTicks": 180,
            "midi": 55,
            "name": "G3",
            "ticks": 48000,
            "time": 28.571400000000004,
            "velocity": 0.5511811023622047
          },
          {
            "duration": 0.10714274999999773,
            "durationTicks": 180,
            "midi": 58,
            "name": "A#3",
            "ticks": 48000,
            "time": 28.571400000000004,
            "velocity": 0.5511811023622047
          },
          {
            "duration": 0.10714274999999773,
            "durationTicks": 180,
            "midi": 55,
            "name": "G3",
            "ticks": 48240,
            "time": 28.714257000000003,
            "velocity": 0.5511811023622047
          },
          {
            "duration": 0.10714274999999773,
            "durationTicks": 180,
            "midi": 58,
            "name": "A#3",
            "ticks": 48240,
            "time": 28.714257000000003,
            "velocity": 0.5511811023622047
          },
          {
            "duration": 0.10714275000000129,
            "durationTicks": 180,
            "midi": 58,
            "name": "A#3",
            "ticks": 48480,
            "time": 28.857114000000003,
            "velocity": 0.5511811023622047
          },
          {
            "duration": 0.10714275000000129,
            "durationTicks": 180,
            "midi": 67,
            "name": "G4",
            "ticks": 48480,
            "time": 28.857114000000003,
            "velocity": 0.5511811023622047
          },
          {
            "duration": 0.10714275000000129,
            "durationTicks": 180,
            "midi": 58,
            "name": "A#3",
            "ticks": 48720,
            "time": 28.999971000000002,
            "velocity": 0.5511811023622047
          },
          {
            "duration": 0.10714275000000129,
            "durationTicks": 180,
            "midi": 67,
            "name": "G4",
            "ticks": 48720,
            "time": 28.999971000000002,
            "velocity": 0.5511811023622047
          },
          {
            "duration": 0.10714275000000129,
            "durationTicks": 180,
            "midi": 55,
            "name": "G3",
            "ticks": 48960,
            "time": 29.142828,
            "velocity": 0.5511811023622047
          },
          {
            "duration": 0.10714275000000129,
            "durationTicks": 180,
            "midi": 58,
            "name": "A#3",
            "ticks": 48960,
            "time": 29.142828,
            "velocity": 0.5511811023622047
          },
          {
            "duration": 0.10714275000000129,
            "durationTicks": 180,
            "midi": 55,
            "name": "G3",
            "ticks": 49200,
            "time": 29.285685,
            "velocity": 0.5511811023622047
          },
          {
            "duration": 0.10714275000000129,
            "durationTicks": 180,
            "midi": 58,
            "name": "A#3",
            "ticks": 49200,
            "time": 29.285685,
            "velocity": 0.5511811023622047
          },
          {
            "duration": 0.10714274999999773,
            "durationTicks": 180,
            "midi": 58,
            "name": "A#3",
            "ticks": 49440,
            "time": 29.428542000000004,
            "velocity": 0.5511811023622047
          },
          {
            "duration": 0.10714274999999773,
            "durationTicks": 180,
            "midi": 67,
            "name": "G4",
            "ticks": 49440,
            "time": 29.428542000000004,
            "velocity": 0.5511811023622047
          },
          {
            "duration": 0.10714274999999773,
            "durationTicks": 180,
            "midi": 58,
            "name": "A#3",
            "ticks": 49680,
            "time": 29.571399000000003,
            "velocity": 0.5511811023622047
          },
          {
            "duration": 0.10714274999999773,
            "durationTicks": 180,
            "midi": 67,
            "name": "G4",
            "ticks": 49680,
            "time": 29.571399000000003,
            "velocity": 0.5511811023622047
          },
          {
            "duration": 0.10714275000000129,
            "durationTicks": 180,
            "midi": 57,
            "name": "A3",
            "ticks": 49920,
            "time": 29.714256000000002,
            "velocity": 0.5511811023622047
          },
          {
            "duration": 0.10714275000000129,
            "durationTicks": 180,
            "midi": 60,
            "name": "C4",
            "ticks": 49920,
            "time": 29.714256000000002,
            "velocity": 0.5511811023622047
          },
          {
            "duration": 0.10714275000000129,
            "durationTicks": 180,
            "midi": 57,
            "name": "A3",
            "ticks": 50160,
            "time": 29.857113000000002,
            "velocity": 0.5511811023622047
          },
          {
            "duration": 0.10714275000000129,
            "durationTicks": 180,
            "midi": 60,
            "name": "C4",
            "ticks": 50160,
            "time": 29.857113000000002,
            "velocity": 0.5511811023622047
          },
          {
            "duration": 0.10714275000000129,
            "durationTicks": 180,
            "midi": 63,
            "name": "D#4",
            "ticks": 50400,
            "time": 29.99997,
            "velocity": 0.5511811023622047
          },
          {
            "duration": 0.10714275000000129,
            "durationTicks": 180,
            "midi": 69,
            "name": "A4",
            "ticks": 50400,
            "time": 29.99997,
            "velocity": 0.5511811023622047
          },
          {
            "duration": 0.10714274999999773,
            "durationTicks": 180,
            "midi": 63,
            "name": "D#4",
            "ticks": 50640,
            "time": 30.142827000000004,
            "velocity": 0.5511811023622047
          },
          {
            "duration": 0.10714274999999773,
            "durationTicks": 180,
            "midi": 69,
            "name": "A4",
            "ticks": 50640,
            "time": 30.142827000000004,
            "velocity": 0.5511811023622047
          },
          {
            "duration": 0.10714274999999773,
            "durationTicks": 180,
            "midi": 57,
            "name": "A3",
            "ticks": 50880,
            "time": 30.285684000000003,
            "velocity": 0.5511811023622047
          },
          {
            "duration": 0.10714274999999773,
            "durationTicks": 180,
            "midi": 60,
            "name": "C4",
            "ticks": 50880,
            "time": 30.285684000000003,
            "velocity": 0.5511811023622047
          },
          {
            "duration": 0.10714275000000129,
            "durationTicks": 180,
            "midi": 57,
            "name": "A3",
            "ticks": 51120,
            "time": 30.428541000000003,
            "velocity": 0.5511811023622047
          },
          {
            "duration": 0.10714275000000129,
            "durationTicks": 180,
            "midi": 60,
            "name": "C4",
            "ticks": 51120,
            "time": 30.428541000000003,
            "velocity": 0.5511811023622047
          },
          {
            "duration": 0.10714275000000129,
            "durationTicks": 180,
            "midi": 63,
            "name": "D#4",
            "ticks": 51360,
            "time": 30.571398000000002,
            "velocity": 0.5511811023622047
          },
          {
            "duration": 0.10714275000000129,
            "durationTicks": 180,
            "midi": 69,
            "name": "A4",
            "ticks": 51360,
            "time": 30.571398000000002,
            "velocity": 0.5511811023622047
          },
          {
            "duration": 0.10714275000000129,
            "durationTicks": 180,
            "midi": 63,
            "name": "D#4",
            "ticks": 51600,
            "time": 30.714255,
            "velocity": 0.5511811023622047
          },
          {
            "duration": 0.10714275000000129,
            "durationTicks": 180,
            "midi": 69,
            "name": "A4",
            "ticks": 51600,
            "time": 30.714255,
            "velocity": 0.5511811023622047
          },
          {
            "duration": 0.10714275000000129,
            "durationTicks": 180,
            "midi": 60,
            "name": "C4",
            "ticks": 51840,
            "time": 30.857112,
            "velocity": 0.5511811023622047
          },
          {
            "duration": 0.10714275000000129,
            "durationTicks": 180,
            "midi": 63,
            "name": "D#4",
            "ticks": 51840,
            "time": 30.857112,
            "velocity": 0.5511811023622047
          },
          {
            "duration": 0.10714274999999773,
            "durationTicks": 180,
            "midi": 60,
            "name": "C4",
            "ticks": 52080,
            "time": 30.999969000000004,
            "velocity": 0.5511811023622047
          },
          {
            "duration": 0.10714274999999773,
            "durationTicks": 180,
            "midi": 63,
            "name": "D#4",
            "ticks": 52080,
            "time": 30.999969000000004,
            "velocity": 0.5511811023622047
          },
          {
            "duration": 0.10714275000000129,
            "durationTicks": 180,
            "midi": 63,
            "name": "D#4",
            "ticks": 52320,
            "time": 31.142826000000003,
            "velocity": 0.5511811023622047
          },
          {
            "duration": 0.10714275000000129,
            "durationTicks": 180,
            "midi": 72,
            "name": "C5",
            "ticks": 52320,
            "time": 31.142826000000003,
            "velocity": 0.5511811023622047
          },
          {
            "duration": 0.10714275000000129,
            "durationTicks": 180,
            "midi": 63,
            "name": "D#4",
            "ticks": 52560,
            "time": 31.285683000000002,
            "velocity": 0.5511811023622047
          },
          {
            "duration": 0.10714275000000129,
            "durationTicks": 180,
            "midi": 72,
            "name": "C5",
            "ticks": 52560,
            "time": 31.285683000000002,
            "velocity": 0.5511811023622047
          },
          {
            "duration": 0.10714275000000129,
            "durationTicks": 180,
            "midi": 57,
            "name": "A3",
            "ticks": 52800,
            "time": 31.42854,
            "velocity": 0.5511811023622047
          },
          {
            "duration": 0.10714275000000129,
            "durationTicks": 180,
            "midi": 60,
            "name": "C4",
            "ticks": 52800,
            "time": 31.42854,
            "velocity": 0.5511811023622047
          },
          {
            "duration": 0.10714275000000129,
            "durationTicks": 180,
            "midi": 57,
            "name": "A3",
            "ticks": 53040,
            "time": 31.571397,
            "velocity": 0.5511811023622047
          },
          {
            "duration": 0.10714275000000129,
            "durationTicks": 180,
            "midi": 60,
            "name": "C4",
            "ticks": 53040,
            "time": 31.571397,
            "velocity": 0.5511811023622047
          },
          {
            "duration": 0.10714274999999773,
            "durationTicks": 180,
            "midi": 60,
            "name": "C4",
            "ticks": 53280,
            "time": 31.714254000000004,
            "velocity": 0.5511811023622047
          },
          {
            "duration": 0.10714274999999773,
            "durationTicks": 180,
            "midi": 69,
            "name": "A4",
            "ticks": 53280,
            "time": 31.714254000000004,
            "velocity": 0.5511811023622047
          },
          {
            "duration": 0.10714274999999773,
            "durationTicks": 180,
            "midi": 60,
            "name": "C4",
            "ticks": 53520,
            "time": 31.857111000000003,
            "velocity": 0.5511811023622047
          },
          {
            "duration": 0.10714274999999773,
            "durationTicks": 180,
            "midi": 69,
            "name": "A4",
            "ticks": 53520,
            "time": 31.857111000000003,
            "velocity": 0.5511811023622047
          },
          {
            "duration": 0.11428560000000232,
            "durationTicks": 192,
            "midi": 62,
            "name": "D4",
            "ticks": 53760,
            "time": 31.999968000000003,
            "velocity": 0.8267716535433071
          },
          {
            "duration": 0.11428560000000232,
            "durationTicks": 192,
            "midi": 70,
            "name": "A#4",
            "ticks": 53760,
            "time": 31.999968000000003,
            "velocity": 0.8267716535433071
          },
          {
            "duration": 0.11428560000000232,
            "durationTicks": 192,
            "midi": 70,
            "name": "A#4",
            "ticks": 54000,
            "time": 32.142825,
            "velocity": 0.8267716535433071
          },
          {
            "duration": 0.11428560000000232,
            "durationTicks": 192,
            "midi": 74,
            "name": "D5",
            "ticks": 54240,
            "time": 32.285682,
            "velocity": 0.8267716535433071
          },
          {
            "duration": 0.11428560000000232,
            "durationTicks": 192,
            "midi": 70,
            "name": "A#4",
            "ticks": 54480,
            "time": 32.428539,
            "velocity": 0.8267716535433071
          },
          {
            "duration": 0.11428560000000232,
            "durationTicks": 192,
            "midi": 74,
            "name": "D5",
            "ticks": 54720,
            "time": 32.571396,
            "velocity": 0.8267716535433071
          },
          {
            "duration": 0.11428560000000232,
            "durationTicks": 192,
            "midi": 70,
            "name": "A#4",
            "ticks": 54960,
            "time": 32.714253,
            "velocity": 0.8267716535433071
          },
          {
            "duration": 0.11428559999999521,
            "durationTicks": 192,
            "midi": 74,
            "name": "D5",
            "ticks": 55200,
            "time": 32.857110000000006,
            "velocity": 0.8267716535433071
          },
          {
            "duration": 0.11428560000000232,
            "durationTicks": 192,
            "midi": 70,
            "name": "A#4",
            "ticks": 55440,
            "time": 32.999967000000005,
            "velocity": 0.8267716535433071
          },
          {
            "duration": 0.11428560000000232,
            "durationTicks": 192,
            "midi": 72,
            "name": "C5",
            "ticks": 55680,
            "time": 33.142824000000005,
            "velocity": 0.8267716535433071
          },
          {
            "duration": 0.11428560000000232,
            "durationTicks": 192,
            "midi": 69,
            "name": "A4",
            "ticks": 55920,
            "time": 33.285681000000004,
            "velocity": 0.8267716535433071
          },
          {
            "duration": 0.11428560000000232,
            "durationTicks": 192,
            "midi": 72,
            "name": "C5",
            "ticks": 56160,
            "time": 33.428538,
            "velocity": 0.8267716535433071
          },
          {
            "duration": 0.11428560000000232,
            "durationTicks": 192,
            "midi": 69,
            "name": "A4",
            "ticks": 56400,
            "time": 33.571395,
            "velocity": 0.8267716535433071
          },
          {
            "duration": 0.11428560000000232,
            "durationTicks": 192,
            "midi": 72,
            "name": "C5",
            "ticks": 56640,
            "time": 33.714252,
            "velocity": 0.8267716535433071
          },
          {
            "duration": 0.11428560000000232,
            "durationTicks": 192,
            "midi": 69,
            "name": "A4",
            "ticks": 56880,
            "time": 33.857109,
            "velocity": 0.8267716535433071
          },
          {
            "duration": 0.11428560000000232,
            "durationTicks": 192,
            "midi": 72,
            "name": "C5",
            "ticks": 57120,
            "time": 33.999966,
            "velocity": 0.8267716535433071
          },
          {
            "duration": 0.11428560000000232,
            "durationTicks": 192,
            "midi": 69,
            "name": "A4",
            "ticks": 57360,
            "time": 34.142823,
            "velocity": 0.8267716535433071
          },
          {
            "duration": 0.11428560000000232,
            "durationTicks": 192,
            "midi": 70,
            "name": "A#4",
            "ticks": 57600,
            "time": 34.28568,
            "velocity": 0.8267716535433071
          },
          {
            "duration": 0.11428559999999521,
            "durationTicks": 192,
            "midi": 67,
            "name": "G4",
            "ticks": 57840,
            "time": 34.428537000000006,
            "velocity": 0.8267716535433071
          },
          {
            "duration": 0.11428560000000232,
            "durationTicks": 192,
            "midi": 70,
            "name": "A#4",
            "ticks": 58080,
            "time": 34.571394000000005,
            "velocity": 0.8267716535433071
          },
          {
            "duration": 0.11428560000000232,
            "durationTicks": 192,
            "midi": 67,
            "name": "G4",
            "ticks": 58320,
            "time": 34.714251000000004,
            "velocity": 0.8267716535433071
          },
          {
            "duration": 0.11428560000000232,
            "durationTicks": 192,
            "midi": 70,
            "name": "A#4",
            "ticks": 58560,
            "time": 34.857108000000004,
            "velocity": 0.8267716535433071
          },
          {
            "duration": 0.11428560000000232,
            "durationTicks": 192,
            "midi": 67,
            "name": "G4",
            "ticks": 58800,
            "time": 34.999965,
            "velocity": 0.8267716535433071
          },
          {
            "duration": 0.11428560000000232,
            "durationTicks": 192,
            "midi": 70,
            "name": "A#4",
            "ticks": 59040,
            "time": 35.142822,
            "velocity": 0.8267716535433071
          },
          {
            "duration": 0.11428560000000232,
            "durationTicks": 192,
            "midi": 67,
            "name": "G4",
            "ticks": 59280,
            "time": 35.285679,
            "velocity": 0.8267716535433071
          },
          {
            "duration": 0.11428560000000232,
            "durationTicks": 192,
            "midi": 70,
            "name": "A#4",
            "ticks": 59520,
            "time": 35.428536,
            "velocity": 0.8267716535433071
          },
          {
            "duration": 0.11428560000000232,
            "durationTicks": 192,
            "midi": 65,
            "name": "F4",
            "ticks": 59760,
            "time": 35.571393,
            "velocity": 0.8267716535433071
          },
          {
            "duration": 0.11428560000000232,
            "durationTicks": 192,
            "midi": 70,
            "name": "A#4",
            "ticks": 60000,
            "time": 35.71425,
            "velocity": 0.8267716535433071
          },
          {
            "duration": 0.11428559999999521,
            "durationTicks": 192,
            "midi": 65,
            "name": "F4",
            "ticks": 60240,
            "time": 35.857107000000006,
            "velocity": 0.8267716535433071
          },
          {
            "duration": 0.11428560000000232,
            "durationTicks": 192,
            "midi": 70,
            "name": "A#4",
            "ticks": 60480,
            "time": 35.999964000000006,
            "velocity": 0.8267716535433071
          },
          {
            "duration": 0.11428560000000232,
            "durationTicks": 192,
            "midi": 65,
            "name": "F4",
            "ticks": 60720,
            "time": 36.142821000000005,
            "velocity": 0.8267716535433071
          },
          {
            "duration": 0.11428560000000232,
            "durationTicks": 192,
            "midi": 70,
            "name": "A#4",
            "ticks": 60960,
            "time": 36.285678000000004,
            "velocity": 0.8267716535433071
          },
          {
            "duration": 0.11428560000000232,
            "durationTicks": 192,
            "midi": 65,
            "name": "F4",
            "ticks": 61200,
            "time": 36.428535000000004,
            "velocity": 0.8267716535433071
          },
          {
            "duration": 0.11428560000000232,
            "durationTicks": 192,
            "midi": 67,
            "name": "G4",
            "ticks": 61440,
            "time": 36.571392,
            "velocity": 0.8267716535433071
          },
          {
            "duration": 0.11428560000000232,
            "durationTicks": 192,
            "midi": 63,
            "name": "D#4",
            "ticks": 61680,
            "time": 36.714249,
            "velocity": 0.8267716535433071
          },
          {
            "duration": 0.11428560000000232,
            "durationTicks": 192,
            "midi": 67,
            "name": "G4",
            "ticks": 61920,
            "time": 36.857106,
            "velocity": 0.8267716535433071
          },
          {
            "duration": 0.11428560000000232,
            "durationTicks": 192,
            "midi": 63,
            "name": "D#4",
            "ticks": 62160,
            "time": 36.999963,
            "velocity": 0.8267716535433071
          },
          {
            "duration": 0.11428560000000232,
            "durationTicks": 192,
            "midi": 67,
            "name": "G4",
            "ticks": 62400,
            "time": 37.14282,
            "velocity": 0.8267716535433071
          },
          {
            "duration": 0.11428560000000232,
            "durationTicks": 192,
            "midi": 63,
            "name": "D#4",
            "ticks": 62640,
            "time": 37.285677,
            "velocity": 0.8267716535433071
          },
          {
            "duration": 0.11428559999999521,
            "durationTicks": 192,
            "midi": 67,
            "name": "G4",
            "ticks": 62880,
            "time": 37.428534000000006,
            "velocity": 0.8267716535433071
          },
          {
            "duration": 0.11428560000000232,
            "durationTicks": 192,
            "midi": 63,
            "name": "D#4",
            "ticks": 63120,
            "time": 37.571391000000006,
            "velocity": 0.8267716535433071
          },
          {
            "duration": 0.11428560000000232,
            "durationTicks": 192,
            "midi": 65,
            "name": "F4",
            "ticks": 63360,
            "time": 37.714248000000005,
            "velocity": 0.8267716535433071
          },
          {
            "duration": 0.11428560000000232,
            "durationTicks": 192,
            "midi": 62,
            "name": "D4",
            "ticks": 63600,
            "time": 37.857105000000004,
            "velocity": 0.8267716535433071
          },
          {
            "duration": 0.11428560000000232,
            "durationTicks": 192,
            "midi": 65,
            "name": "F4",
            "ticks": 63840,
            "time": 37.999962000000004,
            "velocity": 0.8267716535433071
          },
          {
            "duration": 0.11428560000000232,
            "durationTicks": 192,
            "midi": 62,
            "name": "D4",
            "ticks": 64080,
            "time": 38.142819,
            "velocity": 0.8267716535433071
          },
          {
            "duration": 0.11428560000000232,
            "durationTicks": 192,
            "midi": 65,
            "name": "F4",
            "ticks": 64320,
            "time": 38.285676,
            "velocity": 0.8267716535433071
          },
          {
            "duration": 0.11428560000000232,
            "durationTicks": 192,
            "midi": 62,
            "name": "D4",
            "ticks": 64560,
            "time": 38.428533,
            "velocity": 0.8267716535433071
          },
          {
            "duration": 0.11428560000000232,
            "durationTicks": 192,
            "midi": 65,
            "name": "F4",
            "ticks": 64800,
            "time": 38.57139,
            "velocity": 0.8267716535433071
          },
          {
            "duration": 0.11428560000000232,
            "durationTicks": 192,
            "midi": 62,
            "name": "D4",
            "ticks": 65040,
            "time": 38.714247,
            "velocity": 0.8267716535433071
          },
          {
            "duration": 0.9142847999999901,
            "durationTicks": 1536,
            "midi": 60,
            "name": "C4",
            "ticks": 65280,
            "time": 38.85710400000001,
            "velocity": 0.8818897637795275
          },
          {
            "duration": 0.45714240000000217,
            "durationTicks": 768,
            "midi": 60,
            "name": "C4",
            "ticks": 67200,
            "time": 39.99996,
            "velocity": 0.8818897637795275
          },
          {
            "duration": 0.45714239999999506,
            "durationTicks": 768,
            "midi": 61,
            "name": "C#4",
            "ticks": 68160,
            "time": 40.571388000000006,
            "velocity": 0.8818897637795275
          },
          {
            "duration": 0.45714239999999506,
            "durationTicks": 768,
            "midi": 60,
            "name": "C4",
            "ticks": 69120,
            "time": 41.142816,
            "velocity": 0.8818897637795275
          },
          {
            "duration": 0.45714240000000217,
            "durationTicks": 768,
            "midi": 61,
            "name": "C#4",
            "ticks": 70080,
            "time": 41.714244,
            "velocity": 0.8818897637795275
          },
          {
            "duration": 0.45714239999999506,
            "durationTicks": 768,
            "midi": 60,
            "name": "C4",
            "ticks": 71040,
            "time": 42.285672000000005,
            "velocity": 0.8818897637795275
          },
          {
            "duration": 0.11428560000000232,
            "durationTicks": 192,
            "midi": 60,
            "name": "C4",
            "ticks": 72720,
            "time": 43.285671,
            "velocity": 0.8267716535433071
          },
          {
            "duration": 0.10714275000000129,
            "durationTicks": 180,
            "midi": 65,
            "name": "F4",
            "ticks": 72960,
            "time": 43.428528,
            "velocity": 0.8267716535433071
          },
          {
            "duration": 0.10714274999999418,
            "durationTicks": 180,
            "midi": 65,
            "name": "F4",
            "ticks": 73200,
            "time": 43.57138500000001,
            "velocity": 0.8267716535433071
          },
          {
            "duration": 0.10714275000000129,
            "durationTicks": 180,
            "midi": 65,
            "name": "F4",
            "ticks": 73440,
            "time": 43.714242000000006,
            "velocity": 0.8267716535433071
          },
          {
            "duration": 0.10714275000000129,
            "durationTicks": 180,
            "midi": 65,
            "name": "F4",
            "ticks": 73680,
            "time": 43.857099000000005,
            "velocity": 0.8267716535433071
          },
          {
            "duration": 0.10714275000000129,
            "durationTicks": 180,
            "midi": 69,
            "name": "A4",
            "ticks": 73920,
            "time": 43.999956000000005,
            "velocity": 0.8267716535433071
          },
          {
            "duration": 0.10714275000000129,
            "durationTicks": 180,
            "midi": 69,
            "name": "A4",
            "ticks": 74160,
            "time": 44.142813000000004,
            "velocity": 0.8267716535433071
          },
          {
            "duration": 0.10714275000000129,
            "durationTicks": 180,
            "midi": 72,
            "name": "C5",
            "ticks": 74400,
            "time": 44.28567,
            "velocity": 0.8267716535433071
          },
          {
            "duration": 0.10714275000000129,
            "durationTicks": 180,
            "midi": 72,
            "name": "C5",
            "ticks": 74640,
            "time": 44.428527,
            "velocity": 0.8267716535433071
          },
          {
            "duration": 0.10714275000000129,
            "durationTicks": 180,
            "midi": 70,
            "name": "A#4",
            "ticks": 74880,
            "time": 44.571384,
            "velocity": 0.8267716535433071
          },
          {
            "duration": 0.10714275000000129,
            "durationTicks": 180,
            "midi": 70,
            "name": "A#4",
            "ticks": 75120,
            "time": 44.714241,
            "velocity": 0.8267716535433071
          },
          {
            "duration": 0.10714275000000129,
            "durationTicks": 180,
            "midi": 70,
            "name": "A#4",
            "ticks": 75360,
            "time": 44.857098,
            "velocity": 0.8267716535433071
          },
          {
            "duration": 0.10714274999999418,
            "durationTicks": 180,
            "midi": 70,
            "name": "A#4",
            "ticks": 75600,
            "time": 44.99995500000001,
            "velocity": 0.8267716535433071
          },
          {
            "duration": 0.10714274999999418,
            "durationTicks": 180,
            "midi": 70,
            "name": "A#4",
            "ticks": 75840,
            "time": 45.142812000000006,
            "velocity": 0.8267716535433071
          },
          {
            "duration": 0.10714275000000129,
            "durationTicks": 180,
            "midi": 70,
            "name": "A#4",
            "ticks": 76080,
            "time": 45.285669000000006,
            "velocity": 0.8267716535433071
          },
          {
            "duration": 0.10714275000000129,
            "durationTicks": 180,
            "midi": 70,
            "name": "A#4",
            "ticks": 76320,
            "time": 45.428526000000005,
            "velocity": 0.8267716535433071
          },
          {
            "duration": 0.10714275000000129,
            "durationTicks": 180,
            "midi": 70,
            "name": "A#4",
            "ticks": 76560,
            "time": 45.571383000000004,
            "velocity": 0.8267716535433071
          },
          {
            "duration": 0.10714275000000129,
            "durationTicks": 180,
            "midi": 69,
            "name": "A4",
            "ticks": 76800,
            "time": 45.714240000000004,
            "velocity": 0.8267716535433071
          },
          {
            "duration": 0.10714275000000129,
            "durationTicks": 180,
            "midi": 69,
            "name": "A4",
            "ticks": 77040,
            "time": 45.857097,
            "velocity": 0.8267716535433071
          },
          {
            "duration": 0.10714275000000129,
            "durationTicks": 180,
            "midi": 69,
            "name": "A4",
            "ticks": 77280,
            "time": 45.999954,
            "velocity": 0.8267716535433071
          },
          {
            "duration": 0.10714275000000129,
            "durationTicks": 180,
            "midi": 69,
            "name": "A4",
            "ticks": 77520,
            "time": 46.142811,
            "velocity": 0.8267716535433071
          },
          {
            "duration": 0.10714275000000129,
            "durationTicks": 180,
            "midi": 69,
            "name": "A4",
            "ticks": 77760,
            "time": 46.285668,
            "velocity": 0.8267716535433071
          },
          {
            "duration": 0.10714275000000129,
            "durationTicks": 180,
            "midi": 72,
            "name": "C5",
            "ticks": 78000,
            "time": 46.428525,
            "velocity": 0.8267716535433071
          },
          {
            "duration": 0.10714274999999418,
            "durationTicks": 180,
            "midi": 69,
            "name": "A4",
            "ticks": 78240,
            "time": 46.57138200000001,
            "velocity": 0.8267716535433071
          },
          {
            "duration": 0.10714274999999418,
            "durationTicks": 180,
            "midi": 72,
            "name": "C5",
            "ticks": 78480,
            "time": 46.714239000000006,
            "velocity": 0.8267716535433071
          },
          {
            "duration": 0.10714275000000129,
            "durationTicks": 180,
            "midi": 70,
            "name": "A#4",
            "ticks": 78720,
            "time": 46.857096000000006,
            "velocity": 0.8267716535433071
          },
          {
            "duration": 0.10714275000000129,
            "durationTicks": 180,
            "midi": 70,
            "name": "A#4",
            "ticks": 78960,
            "time": 46.999953000000005,
            "velocity": 0.8267716535433071
          },
          {
            "duration": 0.10714275000000129,
            "durationTicks": 180,
            "midi": 70,
            "name": "A#4",
            "ticks": 79200,
            "time": 47.142810000000004,
            "velocity": 0.8267716535433071
          },
          {
            "duration": 0.10714275000000129,
            "durationTicks": 180,
            "midi": 70,
            "name": "A#4",
            "ticks": 79440,
            "time": 47.285667000000004,
            "velocity": 0.8267716535433071
          },
          {
            "duration": 0.10714275000000129,
            "durationTicks": 180,
            "midi": 67,
            "name": "G4",
            "ticks": 79680,
            "time": 47.428524,
            "velocity": 0.8267716535433071
          },
          {
            "duration": 0.10714275000000129,
            "durationTicks": 180,
            "midi": 64,
            "name": "E4",
            "ticks": 79920,
            "time": 47.571381,
            "velocity": 0.8267716535433071
          },
          {
            "duration": 0.10714275000000129,
            "durationTicks": 180,
            "midi": 67,
            "name": "G4",
            "ticks": 80160,
            "time": 47.714238,
            "velocity": 0.8267716535433071
          },
          {
            "duration": 0.10714275000000129,
            "durationTicks": 180,
            "midi": 64,
            "name": "E4",
            "ticks": 80400,
            "time": 47.857095,
            "velocity": 0.8267716535433071
          },
          {
            "duration": 0.22857119999999753,
            "durationTicks": 384,
            "midi": 65,
            "name": "F4",
            "ticks": 80640,
            "time": 47.99995200000001,
            "velocity": 0.8267716535433071
          },
          {
            "duration": 0.22857120000000464,
            "durationTicks": 384,
            "midi": 53,
            "name": "F3",
            "ticks": 81600,
            "time": 48.571380000000005,
            "velocity": 0.7244094488188977
          },
          {
            "duration": 0.8571420000000032,
            "durationTicks": 1440,
            "midi": 62,
            "name": "D4",
            "ticks": 84480,
            "time": 50.285664000000004,
            "velocity": 0.4566929133858268
          },
          {
            "duration": 0.2857139999999987,
            "durationTicks": 480,
            "midi": 60,
            "name": "C4",
            "ticks": 85920,
            "time": 51.14280600000001,
            "velocity": 0.4566929133858268
          },
          {
            "duration": 0.22857120000000464,
            "durationTicks": 384,
            "midi": 57,
            "name": "A3",
            "ticks": 86400,
            "time": 51.428520000000006,
            "velocity": 0.4566929133858268
          },
          {
            "duration": 0.18571409999999844,
            "durationTicks": 312,
            "midi": 62,
            "name": "D4",
            "ticks": 88800,
            "time": 52.85709000000001,
            "velocity": 0.4566929133858268
          },
          {
            "duration": 0.2857139999999987,
            "durationTicks": 480,
            "midi": 62,
            "name": "D4",
            "ticks": 89280,
            "time": 53.142804000000005,
            "velocity": 0.4566929133858268
          },
          {
            "duration": 0.22857120000000464,
            "durationTicks": 384,
            "midi": 67,
            "name": "G4",
            "ticks": 89760,
            "time": 53.428518000000004,
            "velocity": 0.4566929133858268
          },
          {
            "duration": 0.45714240000000217,
            "durationTicks": 768,
            "midi": 65,
            "name": "F4",
            "ticks": 90240,
            "time": 53.714232,
            "velocity": 0.4566929133858268
          },
          {
            "duration": 0.8571420000000032,
            "durationTicks": 1440,
            "midi": 55,
            "name": "G3",
            "ticks": 92160,
            "time": 54.857088000000005,
            "velocity": 0.4566929133858268
          },
          {
            "duration": 0.2857139999999987,
            "durationTicks": 480,
            "midi": 57,
            "name": "A3",
            "ticks": 93600,
            "time": 55.71423000000001,
            "velocity": 0.4566929133858268
          },
          {
            "duration": 0.2857139999999987,
            "durationTicks": 480,
            "midi": 59,
            "name": "B3",
            "ticks": 94080,
            "time": 55.999944000000006,
            "velocity": 0.4566929133858268
          },
          {
            "duration": 0.2857139999999987,
            "durationTicks": 480,
            "midi": 60,
            "name": "C4",
            "ticks": 94560,
            "time": 56.285658000000005,
            "velocity": 0.4566929133858268
          },
          {
            "duration": 0.2857139999999987,
            "durationTicks": 480,
            "midi": 57,
            "name": "A3",
            "ticks": 95040,
            "time": 56.571372000000004,
            "velocity": 0.4566929133858268
          },
          {
            "duration": 0.22857120000000464,
            "durationTicks": 384,
            "midi": 58,
            "name": "A#3",
            "ticks": 95520,
            "time": 56.857086,
            "velocity": 0.4566929133858268
          },
          {
            "duration": 0.22857119999999753,
            "durationTicks": 384,
            "midi": 55,
            "name": "G3",
            "ticks": 96000,
            "time": 57.14280000000001,
            "velocity": 0.4566929133858268
          },
          {
            "duration": 0.22857120000000464,
            "durationTicks": 384,
            "midi": 48,
            "name": "C3",
            "ticks": 96960,
            "time": 57.714228000000006,
            "velocity": 0.4566929133858268
          },
          {
            "duration": 0.22857120000000464,
            "durationTicks": 384,
            "midi": 50,
            "name": "D3",
            "ticks": 97920,
            "time": 58.285656,
            "velocity": 0.4566929133858268
          },
          {
            "duration": 0.8571419999999961,
            "durationTicks": 1440,
            "midi": 55,
            "name": "G3",
            "ticks": 107520,
            "time": 63.999936000000005,
            "velocity": 0.5511811023622047
          },
          {
            "duration": 0.2857139999999987,
            "durationTicks": 480,
            "midi": 57,
            "name": "A3",
            "ticks": 108960,
            "time": 64.857078,
            "velocity": 0.5511811023622047
          },
          {
            "duration": 0.5714280000000116,
            "durationTicks": 960,
            "midi": 55,
            "name": "G3",
            "ticks": 109440,
            "time": 65.142792,
            "velocity": 0.5511811023622047
          },
          {
            "duration": 0.5714279999999974,
            "durationTicks": 960,
            "midi": 53,
            "name": "F3",
            "ticks": 110400,
            "time": 65.71422000000001,
            "velocity": 0.5511811023622047
          },
          {
            "duration": 0.14285699999999224,
            "durationTicks": 240,
            "midi": 58,
            "name": "A#3",
            "ticks": 111360,
            "time": 66.28564800000001,
            "velocity": 0.4566929133858268
          },
          {
            "duration": 0.14285700000000645,
            "durationTicks": 240,
            "midi": 55,
            "name": "G3",
            "ticks": 111600,
            "time": 66.428505,
            "velocity": 0.4566929133858268
          },
          {
            "duration": 0.14285699999999224,
            "durationTicks": 240,
            "midi": 58,
            "name": "A#3",
            "ticks": 111840,
            "time": 66.57136200000001,
            "velocity": 0.4566929133858268
          },
          {
            "duration": 0.14285700000000645,
            "durationTicks": 240,
            "midi": 55,
            "name": "G3",
            "ticks": 112080,
            "time": 66.714219,
            "velocity": 0.4566929133858268
          },
          {
            "duration": 0.14285699999999224,
            "durationTicks": 240,
            "midi": 58,
            "name": "A#3",
            "ticks": 112320,
            "time": 66.857076,
            "velocity": 0.4566929133858268
          },
          {
            "duration": 0.14285700000000645,
            "durationTicks": 240,
            "midi": 55,
            "name": "G3",
            "ticks": 112560,
            "time": 66.999933,
            "velocity": 0.4566929133858268
          },
          {
            "duration": 0.14285700000000645,
            "durationTicks": 240,
            "midi": 56,
            "name": "G#3",
            "ticks": 112800,
            "time": 67.14279,
            "velocity": 0.4566929133858268
          },
          {
            "duration": 0.11428560000000232,
            "durationTicks": 192,
            "midi": 60,
            "name": "C4",
            "ticks": 113040,
            "time": 67.28564700000001,
            "velocity": 0.4566929133858268
          },
          {
            "duration": 0.14285700000000645,
            "durationTicks": 240,
            "midi": 58,
            "name": "A#3",
            "ticks": 113280,
            "time": 67.428504,
            "velocity": 0.4566929133858268
          },
          {
            "duration": 0.14285699999999224,
            "durationTicks": 240,
            "midi": 55,
            "name": "G3",
            "ticks": 113520,
            "time": 67.57136100000001,
            "velocity": 0.4566929133858268
          },
          {
            "duration": 0.14285700000000645,
            "durationTicks": 240,
            "midi": 58,
            "name": "A#3",
            "ticks": 113760,
            "time": 67.714218,
            "velocity": 0.4566929133858268
          },
          {
            "duration": 0.14285699999999224,
            "durationTicks": 240,
            "midi": 55,
            "name": "G3",
            "ticks": 114000,
            "time": 67.85707500000001,
            "velocity": 0.4566929133858268
          },
          {
            "duration": 0.14285700000000645,
            "durationTicks": 240,
            "midi": 58,
            "name": "A#3",
            "ticks": 114240,
            "time": 67.999932,
            "velocity": 0.4566929133858268
          },
          {
            "duration": 0.14285699999999224,
            "durationTicks": 240,
            "midi": 55,
            "name": "G3",
            "ticks": 114480,
            "time": 68.14278900000001,
            "velocity": 0.4566929133858268
          },
          {
            "duration": 0.14285700000000645,
            "durationTicks": 240,
            "midi": 56,
            "name": "G#3",
            "ticks": 114720,
            "time": 68.285646,
            "velocity": 0.4566929133858268
          },
          {
            "duration": 0.11428560000000232,
            "durationTicks": 192,
            "midi": 60,
            "name": "C4",
            "ticks": 114960,
            "time": 68.428503,
            "velocity": 0.4566929133858268
          },
          {
            "duration": 0.14285700000000645,
            "durationTicks": 240,
            "midi": 58,
            "name": "A#3",
            "ticks": 115200,
            "time": 68.57136,
            "velocity": 0.4566929133858268
          },
          {
            "duration": 0.14285700000000645,
            "durationTicks": 240,
            "midi": 55,
            "name": "G3",
            "ticks": 115440,
            "time": 68.714217,
            "velocity": 0.4566929133858268
          },
          {
            "duration": 0.14285699999999224,
            "durationTicks": 240,
            "midi": 58,
            "name": "A#3",
            "ticks": 115680,
            "time": 68.85707400000001,
            "velocity": 0.4566929133858268
          },
          {
            "duration": 0.14285700000000645,
            "durationTicks": 240,
            "midi": 55,
            "name": "G3",
            "ticks": 115920,
            "time": 68.999931,
            "velocity": 0.4566929133858268
          },
          {
            "duration": 0.14285699999999224,
            "durationTicks": 240,
            "midi": 58,
            "name": "A#3",
            "ticks": 116160,
            "time": 69.14278800000001,
            "velocity": 0.4566929133858268
          },
          {
            "duration": 0.14285700000000645,
            "durationTicks": 240,
            "midi": 55,
            "name": "G3",
            "ticks": 116400,
            "time": 69.285645,
            "velocity": 0.4566929133858268
          },
          {
            "duration": 0.14285699999999224,
            "durationTicks": 240,
            "midi": 56,
            "name": "G#3",
            "ticks": 116640,
            "time": 69.42850200000001,
            "velocity": 0.4566929133858268
          },
          {
            "duration": 0.11428560000000232,
            "durationTicks": 192,
            "midi": 60,
            "name": "C4",
            "ticks": 116880,
            "time": 69.571359,
            "velocity": 0.4566929133858268
          },
          {
            "duration": 0.14285699999999224,
            "durationTicks": 240,
            "midi": 58,
            "name": "A#3",
            "ticks": 117120,
            "time": 69.71421600000001,
            "velocity": 0.4566929133858268
          },
          {
            "duration": 0.14285700000000645,
            "durationTicks": 240,
            "midi": 55,
            "name": "G3",
            "ticks": 117360,
            "time": 69.857073,
            "velocity": 0.4566929133858268
          },
          {
            "duration": 0.14285700000000645,
            "durationTicks": 240,
            "midi": 58,
            "name": "A#3",
            "ticks": 117600,
            "time": 69.99993,
            "velocity": 0.4566929133858268
          },
          {
            "duration": 0.14285699999999224,
            "durationTicks": 240,
            "midi": 55,
            "name": "G3",
            "ticks": 117840,
            "time": 70.14278700000001,
            "velocity": 0.4566929133858268
          },
          {
            "duration": 0.14285700000000645,
            "durationTicks": 240,
            "midi": 58,
            "name": "A#3",
            "ticks": 118080,
            "time": 70.285644,
            "velocity": 0.4566929133858268
          },
          {
            "duration": 0.14285699999999224,
            "durationTicks": 240,
            "midi": 55,
            "name": "G3",
            "ticks": 118320,
            "time": 70.42850100000001,
            "velocity": 0.4566929133858268
          },
          {
            "duration": 0.14285700000000645,
            "durationTicks": 240,
            "midi": 56,
            "name": "G#3",
            "ticks": 118560,
            "time": 70.571358,
            "velocity": 0.4566929133858268
          },
          {
            "duration": 0.11428560000000232,
            "durationTicks": 192,
            "midi": 60,
            "name": "C4",
            "ticks": 118800,
            "time": 70.71421500000001,
            "velocity": 0.4566929133858268
          },
          {
            "duration": 0.12857130000000438,
            "durationTicks": 216,
            "midi": 55,
            "name": "G3",
            "ticks": 119040,
            "time": 70.857072,
            "velocity": 0.4566929133858268
          },
          {
            "duration": 0.12857129999999017,
            "durationTicks": 216,
            "midi": 55,
            "name": "G3",
            "ticks": 119280,
            "time": 70.99992900000001,
            "velocity": 0.5511811023622047
          },
          {
            "duration": 0.12857130000000438,
            "durationTicks": 216,
            "midi": 55,
            "name": "G3",
            "ticks": 119520,
            "time": 71.142786,
            "velocity": 0.5669291338582677
          },
          {
            "duration": 0.12857129999999017,
            "durationTicks": 216,
            "midi": 55,
            "name": "G3",
            "ticks": 119760,
            "time": 71.28564300000001,
            "velocity": 0.5905511811023622
          },
          {
            "duration": 0.12857130000000438,
            "durationTicks": 216,
            "midi": 55,
            "name": "G3",
            "ticks": 120000,
            "time": 71.4285,
            "velocity": 0.6141732283464567
          },
          {
            "duration": 0.12857129999999017,
            "durationTicks": 216,
            "midi": 55,
            "name": "G3",
            "ticks": 120240,
            "time": 71.571357,
            "velocity": 0.6299212598425197
          },
          {
            "duration": 0.12857129999999017,
            "durationTicks": 216,
            "midi": 55,
            "name": "G3",
            "ticks": 120480,
            "time": 71.71421400000001,
            "velocity": 0.6535433070866141
          },
          {
            "duration": 0.12857130000000438,
            "durationTicks": 216,
            "midi": 55,
            "name": "G3",
            "ticks": 120720,
            "time": 71.857071,
            "velocity": 0.6771653543307087
          },
          {
            "duration": 0.12857129999999017,
            "durationTicks": 216,
            "midi": 55,
            "name": "G3",
            "ticks": 120960,
            "time": 71.99992800000001,
            "velocity": 0.6929133858267716
          },
          {
            "duration": 0.12857130000000438,
            "durationTicks": 216,
            "midi": 67,
            "name": "G4",
            "ticks": 121200,
            "time": 72.142785,
            "velocity": 0.7165354330708661
          },
          {
            "duration": 0.12857129999999017,
            "durationTicks": 216,
            "midi": 67,
            "name": "G4",
            "ticks": 121440,
            "time": 72.28564200000001,
            "velocity": 0.7401574803149606
          },
          {
            "duration": 0.12857130000000438,
            "durationTicks": 216,
            "midi": 67,
            "name": "G4",
            "ticks": 121680,
            "time": 72.428499,
            "velocity": 0.7559055118110236
          },
          {
            "duration": 0.12857129999999017,
            "durationTicks": 216,
            "midi": 67,
            "name": "G4",
            "ticks": 121920,
            "time": 72.57135600000001,
            "velocity": 0.7795275590551181
          },
          {
            "duration": 0.12857130000000438,
            "durationTicks": 216,
            "midi": 67,
            "name": "G4",
            "ticks": 122160,
            "time": 72.714213,
            "velocity": 0.8031496062992126
          },
          {
            "duration": 0.12857129999999017,
            "durationTicks": 216,
            "midi": 67,
            "name": "G4",
            "ticks": 122400,
            "time": 72.85707000000001,
            "velocity": 0.8267716535433071
          },
          {
            "duration": 0.12857130000000438,
            "durationTicks": 216,
            "midi": 67,
            "name": "G4",
            "ticks": 122640,
            "time": 72.999927,
            "velocity": 0.84251968503937
          },
          {
            "duration": 0.11428559999998811,
            "durationTicks": 192,
            "midi": 65,
            "name": "F4",
            "ticks": 122880,
            "time": 73.142784,
            "velocity": 0.8267716535433071
          },
          {
            "duration": 0.11428559999998811,
            "durationTicks": 192,
            "midi": 65,
            "name": "F4",
            "ticks": 123120,
            "time": 73.28564100000001,
            "velocity": 0.8267716535433071
          },
          {
            "duration": 0.11428559999998811,
            "durationTicks": 192,
            "midi": 65,
            "name": "F4",
            "ticks": 123360,
            "time": 73.428498,
            "velocity": 0.8267716535433071
          },
          {
            "duration": 0.11428559999998811,
            "durationTicks": 192,
            "midi": 65,
            "name": "F4",
            "ticks": 123600,
            "time": 73.57135500000001,
            "velocity": 0.8267716535433071
          },
          {
            "duration": 0.11428560000000232,
            "durationTicks": 192,
            "midi": 65,
            "name": "F4",
            "ticks": 123840,
            "time": 73.714212,
            "velocity": 0.8267716535433071
          },
          {
            "duration": 0.11428559999998811,
            "durationTicks": 192,
            "midi": 65,
            "name": "F4",
            "ticks": 124080,
            "time": 73.85706900000001,
            "velocity": 0.8267716535433071
          },
          {
            "duration": 0.11428560000000232,
            "durationTicks": 192,
            "midi": 65,
            "name": "F4",
            "ticks": 124320,
            "time": 73.999926,
            "velocity": 0.8267716535433071
          },
          {
            "duration": 0.11428559999998811,
            "durationTicks": 192,
            "midi": 65,
            "name": "F4",
            "ticks": 124560,
            "time": 74.14278300000001,
            "velocity": 0.8267716535433071
          },
          {
            "duration": 0.11428560000000232,
            "durationTicks": 192,
            "midi": 53,
            "name": "F3",
            "ticks": 124800,
            "time": 74.28564,
            "velocity": 0.8267716535433071
          },
          {
            "duration": 0.11428559999998811,
            "durationTicks": 192,
            "midi": 53,
            "name": "F3",
            "ticks": 125040,
            "time": 74.42849700000001,
            "velocity": 0.8267716535433071
          },
          {
            "duration": 0.11428560000000232,
            "durationTicks": 192,
            "midi": 53,
            "name": "F3",
            "ticks": 125280,
            "time": 74.571354,
            "velocity": 0.8267716535433071
          },
          {
            "duration": 0.11428559999998811,
            "durationTicks": 192,
            "midi": 53,
            "name": "F3",
            "ticks": 125520,
            "time": 74.714211,
            "velocity": 0.8267716535433071
          },
          {
            "duration": 0.11428559999998811,
            "durationTicks": 192,
            "midi": 53,
            "name": "F3",
            "ticks": 125760,
            "time": 74.85706800000001,
            "velocity": 0.8267716535433071
          },
          {
            "duration": 0.11428559999998811,
            "durationTicks": 192,
            "midi": 53,
            "name": "F3",
            "ticks": 126000,
            "time": 74.999925,
            "velocity": 0.8267716535433071
          },
          {
            "duration": 0.11428559999998811,
            "durationTicks": 192,
            "midi": 53,
            "name": "F3",
            "ticks": 126240,
            "time": 75.14278200000001,
            "velocity": 0.8267716535433071
          },
          {
            "duration": 0.11428560000000232,
            "durationTicks": 192,
            "midi": 53,
            "name": "F3",
            "ticks": 126480,
            "time": 75.285639,
            "velocity": 0.8267716535433071
          },
          {
            "duration": 0.22857120000000464,
            "durationTicks": 384,
            "midi": 58,
            "name": "A#3",
            "ticks": 126720,
            "time": 75.42849600000001,
            "velocity": 0.7244094488188977
          },
          {
            "duration": 0.4571424000000093,
            "durationTicks": 768,
            "midi": 50,
            "name": "D3",
            "ticks": 127200,
            "time": 75.71421000000001,
            "velocity": 0.984251968503937
          },
          {
            "duration": 0.17142840000001058,
            "durationTicks": 288,
            "midi": 51,
            "name": "D#3",
            "ticks": 128160,
            "time": 76.285638,
            "velocity": 0.8267716535433071
          },
          {
            "duration": 0.17142840000001058,
            "durationTicks": 288,
            "midi": 52,
            "name": "E3",
            "ticks": 128640,
            "time": 76.571352,
            "velocity": 0.8267716535433071
          },
          {
            "duration": 0.17142840000001058,
            "durationTicks": 288,
            "midi": 53,
            "name": "F3",
            "ticks": 129120,
            "time": 76.857066,
            "velocity": 0.8267716535433071
          },
          {
            "duration": 0.17142840000001058,
            "durationTicks": 288,
            "midi": 54,
            "name": "F#3",
            "ticks": 129600,
            "time": 77.14278,
            "velocity": 0.8267716535433071
          },
          {
            "duration": 0.17142840000001058,
            "durationTicks": 288,
            "midi": 55,
            "name": "G3",
            "ticks": 130080,
            "time": 77.428494,
            "velocity": 0.8267716535433071
          },
          {
            "duration": 0.22857119999999043,
            "durationTicks": 384,
            "midi": 56,
            "name": "G#3",
            "ticks": 130560,
            "time": 77.71420800000001,
            "velocity": 0.8267716535433071
          },
          {
            "duration": 0.057142800000008265,
            "durationTicks": 96,
            "midi": 56,
            "name": "G#3",
            "ticks": 131400,
            "time": 78.2142075,
            "velocity": 0.8267716535433071
          },
          {
            "duration": 0.22857120000000464,
            "durationTicks": 384,
            "midi": 55,
            "name": "G3",
            "ticks": 131520,
            "time": 78.28563600000001,
            "velocity": 0.8267716535433071
          },
          {
            "duration": 0.057142799999994054,
            "durationTicks": 96,
            "midi": 55,
            "name": "G3",
            "ticks": 132360,
            "time": 78.78563550000001,
            "velocity": 0.8267716535433071
          },
          {
            "duration": 0.22857120000000464,
            "durationTicks": 384,
            "midi": 63,
            "name": "D#4",
            "ticks": 132480,
            "time": 78.85706400000001,
            "velocity": 0.8267716535433071
          },
          {
            "duration": 0.057142799999994054,
            "durationTicks": 96,
            "midi": 63,
            "name": "D#4",
            "ticks": 133320,
            "time": 79.35706350000001,
            "velocity": 0.8267716535433071
          },
          {
            "duration": 0.22857120000000464,
            "durationTicks": 384,
            "midi": 62,
            "name": "D4",
            "ticks": 133440,
            "time": 79.428492,
            "velocity": 0.8267716535433071
          },
          {
            "duration": 0.057142799999994054,
            "durationTicks": 96,
            "midi": 62,
            "name": "D4",
            "ticks": 134280,
            "time": 79.9284915,
            "velocity": 0.8267716535433071
          },
          {
            "duration": 0.22857120000000464,
            "durationTicks": 384,
            "midi": 51,
            "name": "D#3",
            "ticks": 134400,
            "time": 79.99992,
            "velocity": 0.8267716535433071
          },
          {
            "duration": 0.22857120000000464,
            "durationTicks": 384,
            "midi": 53,
            "name": "F3",
            "ticks": 136320,
            "time": 81.14277600000001,
            "velocity": 0.5511811023622047
          },
          {
            "duration": 1.1428559999999948,
            "durationTicks": 1920,
            "midi": 51,
            "name": "D#3",
            "ticks": 141120,
            "time": 83.99991600000001,
            "velocity": 0.4566929133858268
          },
          {
            "duration": 0.22857120000000464,
            "durationTicks": 384,
            "midi": 50,
            "name": "D3",
            "ticks": 143040,
            "time": 85.14277200000001,
            "velocity": 0.4566929133858268
          },
          {
            "duration": 1.142856000000009,
            "durationTicks": 1920,
            "midi": 51,
            "name": "D#3",
            "ticks": 144960,
            "time": 86.285628,
            "velocity": 0.4566929133858268
          },
          {
            "duration": 0.22857120000000464,
            "durationTicks": 384,
            "midi": 50,
            "name": "D3",
            "ticks": 146880,
            "time": 87.42848400000001,
            "velocity": 0.4566929133858268
          },
          {
            "duration": 0.11428559999998811,
            "durationTicks": 192,
            "midi": 62,
            "name": "D4",
            "ticks": 147840,
            "time": 87.99991200000001,
            "velocity": 0.8267716535433071
          },
          {
            "duration": 0.11428560000000232,
            "durationTicks": 192,
            "midi": 62,
            "name": "D4",
            "ticks": 148080,
            "time": 88.142769,
            "velocity": 0.8267716535433071
          },
          {
            "duration": 0.11428559999998811,
            "durationTicks": 192,
            "midi": 62,
            "name": "D4",
            "ticks": 148320,
            "time": 88.28562600000001,
            "velocity": 0.8267716535433071
          },
          {
            "duration": 0.11428559999998811,
            "durationTicks": 192,
            "midi": 62,
            "name": "D4",
            "ticks": 148560,
            "time": 88.42848300000001,
            "velocity": 0.8267716535433071
          },
          {
            "duration": 0.11428559999998811,
            "durationTicks": 192,
            "midi": 62,
            "name": "D4",
            "ticks": 148800,
            "time": 88.57134,
            "velocity": 0.8267716535433071
          },
          {
            "duration": 0.11428559999998811,
            "durationTicks": 192,
            "midi": 62,
            "name": "D4",
            "ticks": 149040,
            "time": 88.71419700000001,
            "velocity": 0.8267716535433071
          },
          {
            "duration": 0.11428560000000232,
            "durationTicks": 192,
            "midi": 62,
            "name": "D4",
            "ticks": 149280,
            "time": 88.857054,
            "velocity": 0.8267716535433071
          },
          {
            "duration": 0.11428559999998811,
            "durationTicks": 192,
            "midi": 62,
            "name": "D4",
            "ticks": 149520,
            "time": 88.99991100000001,
            "velocity": 0.8267716535433071
          },
          {
            "duration": 0.11428560000000232,
            "durationTicks": 192,
            "midi": 67,
            "name": "G4",
            "ticks": 149760,
            "time": 89.142768,
            "velocity": 0.8267716535433071
          },
          {
            "duration": 0.11428559999998811,
            "durationTicks": 192,
            "midi": 67,
            "name": "G4",
            "ticks": 150000,
            "time": 89.28562500000001,
            "velocity": 0.8267716535433071
          },
          {
            "duration": 0.11428560000000232,
            "durationTicks": 192,
            "midi": 67,
            "name": "G4",
            "ticks": 150240,
            "time": 89.428482,
            "velocity": 0.8267716535433071
          },
          {
            "duration": 0.11428559999998811,
            "durationTicks": 192,
            "midi": 67,
            "name": "G4",
            "ticks": 150480,
            "time": 89.57133900000001,
            "velocity": 0.8267716535433071
          },
          {
            "duration": 0.11428560000000232,
            "durationTicks": 192,
            "midi": 63,
            "name": "D#4",
            "ticks": 150720,
            "time": 89.714196,
            "velocity": 0.8267716535433071
          },
          {
            "duration": 0.11428559999998811,
            "durationTicks": 192,
            "midi": 63,
            "name": "D#4",
            "ticks": 150960,
            "time": 89.85705300000001,
            "velocity": 0.8267716535433071
          },
          {
            "duration": 0.11428559999998811,
            "durationTicks": 192,
            "midi": 63,
            "name": "D#4",
            "ticks": 151200,
            "time": 89.99991000000001,
            "velocity": 0.8267716535433071
          },
          {
            "duration": 0.11428559999998811,
            "durationTicks": 192,
            "midi": 63,
            "name": "D#4",
            "ticks": 151440,
            "time": 90.142767,
            "velocity": 0.8267716535433071
          },
          {
            "duration": 0.11428559999998811,
            "durationTicks": 192,
            "midi": 65,
            "name": "F4",
            "ticks": 151680,
            "time": 90.28562400000001,
            "velocity": 0.8267716535433071
          },
          {
            "duration": 0.11428560000000232,
            "durationTicks": 192,
            "midi": 65,
            "name": "F4",
            "ticks": 151920,
            "time": 90.428481,
            "velocity": 0.8267716535433071
          },
          {
            "duration": 0.11428559999998811,
            "durationTicks": 192,
            "midi": 65,
            "name": "F4",
            "ticks": 152160,
            "time": 90.57133800000001,
            "velocity": 0.8267716535433071
          },
          {
            "duration": 0.11428560000000232,
            "durationTicks": 192,
            "midi": 65,
            "name": "F4",
            "ticks": 152400,
            "time": 90.714195,
            "velocity": 0.8267716535433071
          },
          {
            "duration": 0.11428559999998811,
            "durationTicks": 192,
            "midi": 53,
            "name": "F3",
            "ticks": 152640,
            "time": 90.85705200000001,
            "velocity": 0.8267716535433071
          },
          {
            "duration": 0.11428560000000232,
            "durationTicks": 192,
            "midi": 53,
            "name": "F3",
            "ticks": 152880,
            "time": 90.999909,
            "velocity": 0.8267716535433071
          },
          {
            "duration": 0.11428559999998811,
            "durationTicks": 192,
            "midi": 53,
            "name": "F3",
            "ticks": 153120,
            "time": 91.14276600000001,
            "velocity": 0.8267716535433071
          },
          {
            "duration": 0.11428560000000232,
            "durationTicks": 192,
            "midi": 53,
            "name": "F3",
            "ticks": 153360,
            "time": 91.285623,
            "velocity": 0.8267716535433071
          },
          {
            "duration": 0.22857120000000464,
            "durationTicks": 384,
            "midi": 58,
            "name": "A#3",
            "ticks": 153600,
            "time": 91.42848000000001,
            "velocity": 0.7244094488188977
          },
          {
            "duration": 1.142856000000009,
            "durationTicks": 1920,
            "midi": 70,
            "name": "A#4",
            "ticks": 154560,
            "time": 91.999908,
            "velocity": 0.4566929133858268
          },
          {
            "duration": 0.22857119999999043,
            "durationTicks": 384,
            "midi": 69,
            "name": "A4",
            "ticks": 156480,
            "time": 93.14276400000001,
            "velocity": 0.4566929133858268
          },
          {
            "duration": 1.1428559999999948,
            "durationTicks": 1920,
            "midi": 58,
            "name": "A#3",
            "ticks": 158400,
            "time": 94.28562000000001,
            "velocity": 0.4566929133858268
          },
          {
            "duration": 0.22857120000000464,
            "durationTicks": 384,
            "midi": 57,
            "name": "A3",
            "ticks": 160320,
            "time": 95.428476,
            "velocity": 0.4566929133858268
          },
          {
            "duration": 0.11428559999998811,
            "durationTicks": 192,
            "midi": 62,
            "name": "D4",
            "ticks": 163200,
            "time": 97.14276000000001,
            "velocity": 0.8267716535433071
          },
          {
            "duration": 0.11428560000000232,
            "durationTicks": 192,
            "midi": 62,
            "name": "D4",
            "ticks": 163440,
            "time": 97.285617,
            "velocity": 0.8267716535433071
          },
          {
            "duration": 0.11428559999998811,
            "durationTicks": 192,
            "midi": 62,
            "name": "D4",
            "ticks": 163680,
            "time": 97.42847400000001,
            "velocity": 0.8267716535433071
          },
          {
            "duration": 0.11428559999998811,
            "durationTicks": 192,
            "midi": 62,
            "name": "D4",
            "ticks": 163920,
            "time": 97.57133100000001,
            "velocity": 0.8267716535433071
          },
          {
            "duration": 0.11428559999998811,
            "durationTicks": 192,
            "midi": 62,
            "name": "D4",
            "ticks": 164160,
            "time": 97.71418800000001,
            "velocity": 0.8267716535433071
          },
          {
            "duration": 0.11428559999998811,
            "durationTicks": 192,
            "midi": 62,
            "name": "D4",
            "ticks": 164400,
            "time": 97.85704500000001,
            "velocity": 0.8267716535433071
          },
          {
            "duration": 0.11428560000000232,
            "durationTicks": 192,
            "midi": 62,
            "name": "D4",
            "ticks": 164640,
            "time": 97.999902,
            "velocity": 0.8267716535433071
          },
          {
            "duration": 0.11428559999998811,
            "durationTicks": 192,
            "midi": 62,
            "name": "D4",
            "ticks": 164880,
            "time": 98.14275900000001,
            "velocity": 0.8267716535433071
          },
          {
            "duration": 0.11428560000000232,
            "durationTicks": 192,
            "midi": 67,
            "name": "G4",
            "ticks": 165120,
            "time": 98.285616,
            "velocity": 0.8267716535433071
          },
          {
            "duration": 0.11428559999998811,
            "durationTicks": 192,
            "midi": 67,
            "name": "G4",
            "ticks": 165360,
            "time": 98.42847300000001,
            "velocity": 0.8267716535433071
          },
          {
            "duration": 0.11428560000000232,
            "durationTicks": 192,
            "midi": 67,
            "name": "G4",
            "ticks": 165600,
            "time": 98.57133,
            "velocity": 0.8267716535433071
          },
          {
            "duration": 0.11428559999998811,
            "durationTicks": 192,
            "midi": 67,
            "name": "G4",
            "ticks": 165840,
            "time": 98.71418700000001,
            "velocity": 0.8267716535433071
          },
          {
            "duration": 0.11428560000000232,
            "durationTicks": 192,
            "midi": 63,
            "name": "D#4",
            "ticks": 166080,
            "time": 98.857044,
            "velocity": 0.8267716535433071
          },
          {
            "duration": 0.11428559999998811,
            "durationTicks": 192,
            "midi": 63,
            "name": "D#4",
            "ticks": 166320,
            "time": 98.99990100000001,
            "velocity": 0.8267716535433071
          },
          {
            "duration": 0.11428559999998811,
            "durationTicks": 192,
            "midi": 63,
            "name": "D#4",
            "ticks": 166560,
            "time": 99.14275800000001,
            "velocity": 0.8267716535433071
          },
          {
            "duration": 0.11428559999998811,
            "durationTicks": 192,
            "midi": 63,
            "name": "D#4",
            "ticks": 166800,
            "time": 99.285615,
            "velocity": 0.8267716535433071
          },
          {
            "duration": 0.11428559999998811,
            "durationTicks": 192,
            "midi": 65,
            "name": "F4",
            "ticks": 167040,
            "time": 99.42847200000001,
            "velocity": 0.8267716535433071
          },
          {
            "duration": 0.11428560000000232,
            "durationTicks": 192,
            "midi": 65,
            "name": "F4",
            "ticks": 167280,
            "time": 99.571329,
            "velocity": 0.8267716535433071
          },
          {
            "duration": 0.11428559999998811,
            "durationTicks": 192,
            "midi": 65,
            "name": "F4",
            "ticks": 167520,
            "time": 99.71418600000001,
            "velocity": 0.8267716535433071
          },
          {
            "duration": 0.11428560000000232,
            "durationTicks": 192,
            "midi": 65,
            "name": "F4",
            "ticks": 167760,
            "time": 99.857043,
            "velocity": 0.8267716535433071
          },
          {
            "duration": 0.11428559999998811,
            "durationTicks": 192,
            "midi": 53,
            "name": "F3",
            "ticks": 168000,
            "time": 99.99990000000001,
            "velocity": 0.8267716535433071
          },
          {
            "duration": 0.11428560000000232,
            "durationTicks": 192,
            "midi": 53,
            "name": "F3",
            "ticks": 168240,
            "time": 100.142757,
            "velocity": 0.8267716535433071
          },
          {
            "duration": 0.11428559999998811,
            "durationTicks": 192,
            "midi": 53,
            "name": "F3",
            "ticks": 168480,
            "time": 100.28561400000001,
            "velocity": 0.8267716535433071
          },
          {
            "duration": 0.11428560000000232,
            "durationTicks": 192,
            "midi": 53,
            "name": "F3",
            "ticks": 168720,
            "time": 100.428471,
            "velocity": 0.8267716535433071
          },
          {
            "duration": 0.4571424000000093,
            "durationTicks": 768,
            "midi": 58,
            "name": "A#3",
            "ticks": 168960,
            "time": 100.57132800000001,
            "velocity": 0.8267716535433071
          },
          {
            "duration": 0.11428559999998811,
            "durationTicks": 192,
            "midi": 77,
            "name": "F5",
            "ticks": 170640,
            "time": 101.57132700000001,
            "velocity": 0.8267716535433071
          },
          {
            "duration": 0.11428560000000232,
            "durationTicks": 192,
            "midi": 75,
            "name": "D#5",
            "ticks": 170880,
            "time": 101.714184,
            "velocity": 0.8267716535433071
          },
          {
            "duration": 0.11428559999998811,
            "durationTicks": 192,
            "midi": 74,
            "name": "D5",
            "ticks": 171120,
            "time": 101.85704100000001,
            "velocity": 0.8267716535433071
          },
          {
            "duration": 0.11428560000000232,
            "durationTicks": 192,
            "midi": 72,
            "name": "C5",
            "ticks": 171360,
            "time": 101.999898,
            "velocity": 0.8267716535433071
          },
          {
            "duration": 0.11428559999998811,
            "durationTicks": 192,
            "midi": 70,
            "name": "A#4",
            "ticks": 171600,
            "time": 102.14275500000001,
            "velocity": 0.8267716535433071
          },
          {
            "duration": 0.11428559999998811,
            "durationTicks": 192,
            "midi": 69,
            "name": "A4",
            "ticks": 171840,
            "time": 102.28561200000001,
            "velocity": 0.8267716535433071
          },
          {
            "duration": 0.11428559999998811,
            "durationTicks": 192,
            "midi": 67,
            "name": "G4",
            "ticks": 172080,
            "time": 102.428469,
            "velocity": 0.8267716535433071
          },
          {
            "duration": 0.11428559999998811,
            "durationTicks": 192,
            "midi": 65,
            "name": "F4",
            "ticks": 172320,
            "time": 102.57132600000001,
            "velocity": 0.8267716535433071
          },
          {
            "duration": 0.11428560000000232,
            "durationTicks": 192,
            "midi": 63,
            "name": "D#4",
            "ticks": 172560,
            "time": 102.714183,
            "velocity": 0.8267716535433071
          },
          {
            "duration": 0.1999997999999863,
            "durationTicks": 336,
            "midi": 62,
            "name": "D4",
            "ticks": 172800,
            "time": 102.85704000000001,
            "velocity": 0.8267716535433071
          },
          {
            "duration": 0.1999998000000005,
            "durationTicks": 336,
            "midi": 62,
            "name": "D4",
            "ticks": 173280,
            "time": 103.14275400000001,
            "velocity": 0.8267716535433071
          },
          {
            "duration": 0.1999998000000005,
            "durationTicks": 336,
            "midi": 63,
            "name": "D#4",
            "ticks": 173760,
            "time": 103.42846800000001,
            "velocity": 0.8267716535433071
          },
          {
            "duration": 0.1999998000000005,
            "durationTicks": 336,
            "midi": 65,
            "name": "F4",
            "ticks": 174240,
            "time": 103.71418200000001,
            "velocity": 0.8267716535433071
          },
          {
            "duration": 0.11428560000000232,
            "durationTicks": 192,
            "midi": 70,
            "name": "A#4",
            "ticks": 174720,
            "time": 103.999896,
            "velocity": 0.8267716535433071
          },
          {
            "duration": 0.11428559999998811,
            "durationTicks": 192,
            "midi": 65,
            "name": "F4",
            "ticks": 174960,
            "time": 104.14275300000001,
            "velocity": 0.8267716535433071
          },
          {
            "duration": 0.11428560000000232,
            "durationTicks": 192,
            "midi": 74,
            "name": "D5",
            "ticks": 175200,
            "time": 104.28561,
            "velocity": 0.8267716535433071
          },
          {
            "duration": 0.11428559999998811,
            "durationTicks": 192,
            "midi": 72,
            "name": "C5",
            "ticks": 175440,
            "time": 104.42846700000001,
            "velocity": 0.8267716535433071
          },
          {
            "duration": 0.11428560000000232,
            "durationTicks": 192,
            "midi": 70,
            "name": "A#4",
            "ticks": 175680,
            "time": 104.571324,
            "velocity": 0.8267716535433071
          },
          {
            "duration": 0.11428559999998811,
            "durationTicks": 192,
            "midi": 69,
            "name": "A4",
            "ticks": 175920,
            "time": 104.71418100000001,
            "velocity": 0.8267716535433071
          },
          {
            "duration": 0.11428560000000232,
            "durationTicks": 192,
            "midi": 67,
            "name": "G4",
            "ticks": 176160,
            "time": 104.857038,
            "velocity": 0.8267716535433071
          },
          {
            "duration": 0.11428559999998811,
            "durationTicks": 192,
            "midi": 65,
            "name": "F4",
            "ticks": 176400,
            "time": 104.99989500000001,
            "velocity": 0.8267716535433071
          },
          {
            "duration": 0.11428560000000232,
            "durationTicks": 192,
            "midi": 63,
            "name": "D#4",
            "ticks": 176640,
            "time": 105.142752,
            "velocity": 0.8267716535433071
          },
          {
            "duration": 0.11428559999998811,
            "durationTicks": 192,
            "midi": 62,
            "name": "D4",
            "ticks": 176880,
            "time": 105.28560900000001,
            "velocity": 0.8267716535433071
          },
          {
            "duration": 0.11428559999998811,
            "durationTicks": 192,
            "midi": 60,
            "name": "C4",
            "ticks": 177120,
            "time": 105.42846600000001,
            "velocity": 0.8267716535433071
          },
          {
            "duration": 0.11428560000000232,
            "durationTicks": 192,
            "midi": 58,
            "name": "A#3",
            "ticks": 177360,
            "time": 105.571323,
            "velocity": 0.8267716535433071
          },
          {
            "duration": 0.11428559999998811,
            "durationTicks": 192,
            "midi": 57,
            "name": "A3",
            "ticks": 177600,
            "time": 105.71418000000001,
            "velocity": 0.8267716535433071
          },
          {
            "duration": 0.11428560000000232,
            "durationTicks": 192,
            "midi": 60,
            "name": "C4",
            "ticks": 177840,
            "time": 105.857037,
            "velocity": 0.8267716535433071
          },
          {
            "duration": 0.11428559999998811,
            "durationTicks": 192,
            "midi": 65,
            "name": "F4",
            "ticks": 178080,
            "time": 105.99989400000001,
            "velocity": 0.8267716535433071
          },
          {
            "duration": 0.11428560000000232,
            "durationTicks": 192,
            "midi": 63,
            "name": "D#4",
            "ticks": 178320,
            "time": 106.142751,
            "velocity": 0.8267716535433071
          },
          {
            "duration": 0.1999998000000005,
            "durationTicks": 336,
            "midi": 62,
            "name": "D4",
            "ticks": 178560,
            "time": 106.28560800000001,
            "velocity": 0.8267716535433071
          },
          {
            "duration": 0.1999998000000005,
            "durationTicks": 336,
            "midi": 62,
            "name": "D4",
            "ticks": 179040,
            "time": 106.57132200000001,
            "velocity": 0.8267716535433071
          },
          {
            "duration": 0.1999998000000005,
            "durationTicks": 336,
            "midi": 63,
            "name": "D#4",
            "ticks": 179520,
            "time": 106.85703600000001,
            "velocity": 0.8267716535433071
          },
          {
            "duration": 0.1999998000000005,
            "durationTicks": 336,
            "midi": 65,
            "name": "F4",
            "ticks": 180000,
            "time": 107.14275,
            "velocity": 0.8267716535433071
          },
          {
            "duration": 0.1999998000000005,
            "durationTicks": 336,
            "midi": 67,
            "name": "G4",
            "ticks": 180480,
            "time": 107.428464,
            "velocity": 0.8267716535433071
          },
          {
            "duration": 0.1999998000000005,
            "durationTicks": 336,
            "midi": 63,
            "name": "D#4",
            "ticks": 180960,
            "time": 107.714178,
            "velocity": 0.8267716535433071
          },
          {
            "duration": 0.1999998000000005,
            "durationTicks": 336,
            "midi": 65,
            "name": "F4",
            "ticks": 181440,
            "time": 107.999892,
            "velocity": 0.8267716535433071
          },
          {
            "duration": 0.1999997999999863,
            "durationTicks": 336,
            "midi": 53,
            "name": "F3",
            "ticks": 181920,
            "time": 108.28560600000002,
            "velocity": 0.8267716535433071
          },
          {
            "duration": 0.22857120000000464,
            "durationTicks": 384,
            "midi": 58,
            "name": "A#3",
            "ticks": 182400,
            "time": 108.57132000000001,
            "velocity": 0.8267716535433071
          },
          {
            "duration": 0.22857120000000464,
            "durationTicks": 384,
            "midi": 65,
            "name": "F4",
            "ticks": 183360,
            "time": 109.14274800000001,
            "velocity": 0.8267716535433071
          },
          {
            "duration": 0.22857120000000464,
            "durationTicks": 384,
            "midi": 70,
            "name": "A#4",
            "ticks": 184320,
            "time": 109.71417600000001,
            "velocity": 0.8267716535433071
          },
          {
            "duration": 0.22857120000000464,
            "durationTicks": 384,
            "midi": 65,
            "name": "F4",
            "ticks": 185280,
            "time": 110.285604,
            "velocity": 0.8267716535433071
          },
          {
            "duration": 0.22857120000000464,
            "durationTicks": 384,
            "midi": 70,
            "name": "A#4",
            "ticks": 186240,
            "time": 110.857032,
            "velocity": 0.8267716535433071
          },
          {
            "duration": 0.22857119999999043,
            "durationTicks": 384,
            "midi": 65,
            "name": "F4",
            "ticks": 187200,
            "time": 111.42846000000002,
            "velocity": 0.8267716535433071
          },
          {
            "duration": 0.21428550000000257,
            "durationTicks": 360,
            "midi": 70,
            "name": "A#4",
            "ticks": 188160,
            "time": 111.99988800000001,
            "velocity": 0.8267716535433071
          },
          {
            "duration": 0.21428550000000257,
            "durationTicks": 360,
            "midi": 65,
            "name": "F4",
            "ticks": 188640,
            "time": 112.28560200000001,
            "velocity": 0.8267716535433071
          },
          {
            "duration": 0.21428550000000257,
            "durationTicks": 360,
            "midi": 70,
            "name": "A#4",
            "ticks": 189120,
            "time": 112.57131600000001,
            "velocity": 0.8267716535433071
          },
          {
            "duration": 0.21428550000000257,
            "durationTicks": 360,
            "midi": 65,
            "name": "F4",
            "ticks": 189600,
            "time": 112.85703000000001,
            "velocity": 0.8267716535433071
          },
          {
            "duration": 0.22857120000000464,
            "durationTicks": 384,
            "midi": 70,
            "name": "A#4",
            "ticks": 190080,
            "time": 113.14274400000001,
            "velocity": 0.8267716535433071
          },
          {
            "duration": 0.22857119999999043,
            "durationTicks": 384,
            "midi": 69,
            "name": "A4",
            "ticks": 192000,
            "time": 114.28560000000002,
            "velocity": 0.8267716535433071
          },
          {
            "duration": 0.10714274999999418,
            "durationTicks": 180,
            "midi": 55,
            "name": "G3",
            "ticks": 193920,
            "time": 115.42845600000001,
            "velocity": 0.5511811023622047
          },
          {
            "duration": 0.10714274999999418,
            "durationTicks": 180,
            "midi": 58,
            "name": "A#3",
            "ticks": 193920,
            "time": 115.42845600000001,
            "velocity": 0.5511811023622047
          },
          {
            "duration": 0.10714275000000839,
            "durationTicks": 180,
            "midi": 55,
            "name": "G3",
            "ticks": 194160,
            "time": 115.571313,
            "velocity": 0.5511811023622047
          },
          {
            "duration": 0.10714275000000839,
            "durationTicks": 180,
            "midi": 58,
            "name": "A#3",
            "ticks": 194160,
            "time": 115.571313,
            "velocity": 0.5511811023622047
          },
          {
            "duration": 0.10714274999999418,
            "durationTicks": 180,
            "midi": 58,
            "name": "A#3",
            "ticks": 194400,
            "time": 115.71417000000001,
            "velocity": 0.5511811023622047
          },
          {
            "duration": 0.10714274999999418,
            "durationTicks": 180,
            "midi": 67,
            "name": "G4",
            "ticks": 194400,
            "time": 115.71417000000001,
            "velocity": 0.5511811023622047
          },
          {
            "duration": 0.10714274999999418,
            "durationTicks": 180,
            "midi": 58,
            "name": "A#3",
            "ticks": 194640,
            "time": 115.85702700000002,
            "velocity": 0.5511811023622047
          },
          {
            "duration": 0.10714274999999418,
            "durationTicks": 180,
            "midi": 67,
            "name": "G4",
            "ticks": 194640,
            "time": 115.85702700000002,
            "velocity": 0.5511811023622047
          },
          {
            "duration": 0.10714274999999418,
            "durationTicks": 180,
            "midi": 55,
            "name": "G3",
            "ticks": 194880,
            "time": 115.99988400000001,
            "velocity": 0.5511811023622047
          },
          {
            "duration": 0.10714274999999418,
            "durationTicks": 180,
            "midi": 58,
            "name": "A#3",
            "ticks": 194880,
            "time": 115.99988400000001,
            "velocity": 0.5511811023622047
          },
          {
            "duration": 0.10714274999999418,
            "durationTicks": 180,
            "midi": 55,
            "name": "G3",
            "ticks": 195120,
            "time": 116.14274100000002,
            "velocity": 0.5511811023622047
          },
          {
            "duration": 0.10714274999999418,
            "durationTicks": 180,
            "midi": 58,
            "name": "A#3",
            "ticks": 195120,
            "time": 116.14274100000002,
            "velocity": 0.5511811023622047
          },
          {
            "duration": 0.10714275000000839,
            "durationTicks": 180,
            "midi": 58,
            "name": "A#3",
            "ticks": 195360,
            "time": 116.28559800000001,
            "velocity": 0.5511811023622047
          },
          {
            "duration": 0.10714275000000839,
            "durationTicks": 180,
            "midi": 67,
            "name": "G4",
            "ticks": 195360,
            "time": 116.28559800000001,
            "velocity": 0.5511811023622047
          },
          {
            "duration": 0.10714274999999418,
            "durationTicks": 180,
            "midi": 58,
            "name": "A#3",
            "ticks": 195600,
            "time": 116.42845500000001,
            "velocity": 0.5511811023622047
          },
          {
            "duration": 0.10714274999999418,
            "durationTicks": 180,
            "midi": 67,
            "name": "G4",
            "ticks": 195600,
            "time": 116.42845500000001,
            "velocity": 0.5511811023622047
          },
          {
            "duration": 0.10714275000000839,
            "durationTicks": 180,
            "midi": 55,
            "name": "G3",
            "ticks": 195840,
            "time": 116.571312,
            "velocity": 0.5511811023622047
          },
          {
            "duration": 0.10714275000000839,
            "durationTicks": 180,
            "midi": 58,
            "name": "A#3",
            "ticks": 195840,
            "time": 116.571312,
            "velocity": 0.5511811023622047
          },
          {
            "duration": 0.10714274999999418,
            "durationTicks": 180,
            "midi": 55,
            "name": "G3",
            "ticks": 196080,
            "time": 116.71416900000001,
            "velocity": 0.5511811023622047
          },
          {
            "duration": 0.10714274999999418,
            "durationTicks": 180,
            "midi": 58,
            "name": "A#3",
            "ticks": 196080,
            "time": 116.71416900000001,
            "velocity": 0.5511811023622047
          },
          {
            "duration": 0.10714275000000839,
            "durationTicks": 180,
            "midi": 58,
            "name": "A#3",
            "ticks": 196320,
            "time": 116.857026,
            "velocity": 0.5511811023622047
          },
          {
            "duration": 0.10714275000000839,
            "durationTicks": 180,
            "midi": 67,
            "name": "G4",
            "ticks": 196320,
            "time": 116.857026,
            "velocity": 0.5511811023622047
          },
          {
            "duration": 0.10714274999999418,
            "durationTicks": 180,
            "midi": 58,
            "name": "A#3",
            "ticks": 196560,
            "time": 116.99988300000001,
            "velocity": 0.5511811023622047
          },
          {
            "duration": 0.10714274999999418,
            "durationTicks": 180,
            "midi": 67,
            "name": "G4",
            "ticks": 196560,
            "time": 116.99988300000001,
            "velocity": 0.5511811023622047
          },
          {
            "duration": 0.10714275000000839,
            "durationTicks": 180,
            "midi": 55,
            "name": "G3",
            "ticks": 196800,
            "time": 117.14274,
            "velocity": 0.5511811023622047
          },
          {
            "duration": 0.10714275000000839,
            "durationTicks": 180,
            "midi": 58,
            "name": "A#3",
            "ticks": 196800,
            "time": 117.14274,
            "velocity": 0.5511811023622047
          },
          {
            "duration": 0.10714274999999418,
            "durationTicks": 180,
            "midi": 55,
            "name": "G3",
            "ticks": 197040,
            "time": 117.28559700000001,
            "velocity": 0.5511811023622047
          },
          {
            "duration": 0.10714274999999418,
            "durationTicks": 180,
            "midi": 58,
            "name": "A#3",
            "ticks": 197040,
            "time": 117.28559700000001,
            "velocity": 0.5511811023622047
          },
          {
            "duration": 0.10714274999999418,
            "durationTicks": 180,
            "midi": 58,
            "name": "A#3",
            "ticks": 197280,
            "time": 117.42845400000002,
            "velocity": 0.5511811023622047
          },
          {
            "duration": 0.10714274999999418,
            "durationTicks": 180,
            "midi": 67,
            "name": "G4",
            "ticks": 197280,
            "time": 117.42845400000002,
            "velocity": 0.5511811023622047
          },
          {
            "duration": 0.10714274999999418,
            "durationTicks": 180,
            "midi": 58,
            "name": "A#3",
            "ticks": 197520,
            "time": 117.57131100000001,
            "velocity": 0.5511811023622047
          },
          {
            "duration": 0.10714274999999418,
            "durationTicks": 180,
            "midi": 67,
            "name": "G4",
            "ticks": 197520,
            "time": 117.57131100000001,
            "velocity": 0.5511811023622047
          },
          {
            "duration": 0.10714274999999418,
            "durationTicks": 180,
            "midi": 55,
            "name": "G3",
            "ticks": 197760,
            "time": 117.71416800000002,
            "velocity": 0.5511811023622047
          },
          {
            "duration": 0.10714274999999418,
            "durationTicks": 180,
            "midi": 58,
            "name": "A#3",
            "ticks": 197760,
            "time": 117.71416800000002,
            "velocity": 0.5511811023622047
          },
          {
            "duration": 0.10714275000000839,
            "durationTicks": 180,
            "midi": 55,
            "name": "G3",
            "ticks": 198000,
            "time": 117.85702500000001,
            "velocity": 0.5511811023622047
          },
          {
            "duration": 0.10714275000000839,
            "durationTicks": 180,
            "midi": 58,
            "name": "A#3",
            "ticks": 198000,
            "time": 117.85702500000001,
            "velocity": 0.5511811023622047
          },
          {
            "duration": 0.10714274999999418,
            "durationTicks": 180,
            "midi": 58,
            "name": "A#3",
            "ticks": 198240,
            "time": 117.99988200000001,
            "velocity": 0.5511811023622047
          },
          {
            "duration": 0.10714274999999418,
            "durationTicks": 180,
            "midi": 67,
            "name": "G4",
            "ticks": 198240,
            "time": 117.99988200000001,
            "velocity": 0.5511811023622047
          },
          {
            "duration": 0.10714275000000839,
            "durationTicks": 180,
            "midi": 58,
            "name": "A#3",
            "ticks": 198480,
            "time": 118.142739,
            "velocity": 0.5511811023622047
          },
          {
            "duration": 0.10714275000000839,
            "durationTicks": 180,
            "midi": 67,
            "name": "G4",
            "ticks": 198480,
            "time": 118.142739,
            "velocity": 0.5511811023622047
          },
          {
            "duration": 0.10714274999999418,
            "durationTicks": 180,
            "midi": 55,
            "name": "G3",
            "ticks": 198720,
            "time": 118.28559600000001,
            "velocity": 0.5511811023622047
          },
          {
            "duration": 0.10714274999999418,
            "durationTicks": 180,
            "midi": 58,
            "name": "A#3",
            "ticks": 198720,
            "time": 118.28559600000001,
            "velocity": 0.5511811023622047
          },
          {
            "duration": 0.10714275000000839,
            "durationTicks": 180,
            "midi": 55,
            "name": "G3",
            "ticks": 198960,
            "time": 118.428453,
            "velocity": 0.5511811023622047
          },
          {
            "duration": 0.10714275000000839,
            "durationTicks": 180,
            "midi": 58,
            "name": "A#3",
            "ticks": 198960,
            "time": 118.428453,
            "velocity": 0.5511811023622047
          },
          {
            "duration": 0.10714274999999418,
            "durationTicks": 180,
            "midi": 58,
            "name": "A#3",
            "ticks": 199200,
            "time": 118.57131000000001,
            "velocity": 0.5511811023622047
          },
          {
            "duration": 0.10714274999999418,
            "durationTicks": 180,
            "midi": 67,
            "name": "G4",
            "ticks": 199200,
            "time": 118.57131000000001,
            "velocity": 0.5511811023622047
          },
          {
            "duration": 0.10714275000000839,
            "durationTicks": 180,
            "midi": 58,
            "name": "A#3",
            "ticks": 199440,
            "time": 118.714167,
            "velocity": 0.5511811023622047
          },
          {
            "duration": 0.10714275000000839,
            "durationTicks": 180,
            "midi": 67,
            "name": "G4",
            "ticks": 199440,
            "time": 118.714167,
            "velocity": 0.5511811023622047
          },
          {
            "duration": 0.10714274999999418,
            "durationTicks": 180,
            "midi": 55,
            "name": "G3",
            "ticks": 199680,
            "time": 118.85702400000001,
            "velocity": 0.5511811023622047
          },
          {
            "duration": 0.10714274999999418,
            "durationTicks": 180,
            "midi": 58,
            "name": "A#3",
            "ticks": 199680,
            "time": 118.85702400000001,
            "velocity": 0.5511811023622047
          },
          {
            "duration": 0.10714274999999418,
            "durationTicks": 180,
            "midi": 55,
            "name": "G3",
            "ticks": 199920,
            "time": 118.99988100000002,
            "velocity": 0.5511811023622047
          },
          {
            "duration": 0.10714274999999418,
            "durationTicks": 180,
            "midi": 58,
            "name": "A#3",
            "ticks": 199920,
            "time": 118.99988100000002,
            "velocity": 0.5511811023622047
          },
          {
            "duration": 0.10714275000000839,
            "durationTicks": 180,
            "midi": 58,
            "name": "A#3",
            "ticks": 200160,
            "time": 119.14273800000001,
            "velocity": 0.5511811023622047
          },
          {
            "duration": 0.10714275000000839,
            "durationTicks": 180,
            "midi": 62,
            "name": "D4",
            "ticks": 200160,
            "time": 119.14273800000001,
            "velocity": 0.5511811023622047
          },
          {
            "duration": 0.10714274999999418,
            "durationTicks": 180,
            "midi": 58,
            "name": "A#3",
            "ticks": 200400,
            "time": 119.28559500000001,
            "velocity": 0.5511811023622047
          },
          {
            "duration": 0.10714274999999418,
            "durationTicks": 180,
            "midi": 62,
            "name": "D4",
            "ticks": 200400,
            "time": 119.28559500000001,
            "velocity": 0.5511811023622047
          },
          {
            "duration": 0.10714275000000839,
            "durationTicks": 180,
            "midi": 55,
            "name": "G3",
            "ticks": 200640,
            "time": 119.42845200000001,
            "velocity": 0.5511811023622047
          },
          {
            "duration": 0.10714275000000839,
            "durationTicks": 180,
            "midi": 58,
            "name": "A#3",
            "ticks": 200640,
            "time": 119.42845200000001,
            "velocity": 0.5511811023622047
          },
          {
            "duration": 0.10714274999999418,
            "durationTicks": 180,
            "midi": 55,
            "name": "G3",
            "ticks": 200880,
            "time": 119.57130900000001,
            "velocity": 0.5511811023622047
          },
          {
            "duration": 0.10714274999999418,
            "durationTicks": 180,
            "midi": 58,
            "name": "A#3",
            "ticks": 200880,
            "time": 119.57130900000001,
            "velocity": 0.5511811023622047
          },
          {
            "duration": 0.10714275000000839,
            "durationTicks": 180,
            "midi": 58,
            "name": "A#3",
            "ticks": 201120,
            "time": 119.714166,
            "velocity": 0.5511811023622047
          },
          {
            "duration": 0.10714275000000839,
            "durationTicks": 180,
            "midi": 67,
            "name": "G4",
            "ticks": 201120,
            "time": 119.714166,
            "velocity": 0.5511811023622047
          },
          {
            "duration": 0.10714274999999418,
            "durationTicks": 180,
            "midi": 58,
            "name": "A#3",
            "ticks": 201360,
            "time": 119.85702300000001,
            "velocity": 0.5511811023622047
          },
          {
            "duration": 0.10714274999999418,
            "durationTicks": 180,
            "midi": 67,
            "name": "G4",
            "ticks": 201360,
            "time": 119.85702300000001,
            "velocity": 0.5511811023622047
          },
          {
            "duration": 0.10714275000000839,
            "durationTicks": 180,
            "midi": 57,
            "name": "A3",
            "ticks": 201600,
            "time": 119.99988,
            "velocity": 0.5511811023622047
          },
          {
            "duration": 0.10714275000000839,
            "durationTicks": 180,
            "midi": 63,
            "name": "D#4",
            "ticks": 201600,
            "time": 119.99988,
            "velocity": 0.5511811023622047
          },
          {
            "duration": 0.10714274999999418,
            "durationTicks": 180,
            "midi": 57,
            "name": "A3",
            "ticks": 201840,
            "time": 120.14273700000001,
            "velocity": 0.5511811023622047
          },
          {
            "duration": 0.10714274999999418,
            "durationTicks": 180,
            "midi": 63,
            "name": "D#4",
            "ticks": 201840,
            "time": 120.14273700000001,
            "velocity": 0.5511811023622047
          },
          {
            "duration": 0.10714275000000839,
            "durationTicks": 180,
            "midi": 63,
            "name": "D#4",
            "ticks": 202080,
            "time": 120.285594,
            "velocity": 0.5511811023622047
          },
          {
            "duration": 0.10714275000000839,
            "durationTicks": 180,
            "midi": 69,
            "name": "A4",
            "ticks": 202080,
            "time": 120.285594,
            "velocity": 0.5511811023622047
          },
          {
            "duration": 0.10714274999999418,
            "durationTicks": 180,
            "midi": 63,
            "name": "D#4",
            "ticks": 202320,
            "time": 120.42845100000001,
            "velocity": 0.5511811023622047
          },
          {
            "duration": 0.10714274999999418,
            "durationTicks": 180,
            "midi": 69,
            "name": "A4",
            "ticks": 202320,
            "time": 120.42845100000001,
            "velocity": 0.5511811023622047
          },
          {
            "duration": 0.10714274999999418,
            "durationTicks": 180,
            "midi": 57,
            "name": "A3",
            "ticks": 202560,
            "time": 120.57130800000002,
            "velocity": 0.5511811023622047
          },
          {
            "duration": 0.10714274999999418,
            "durationTicks": 180,
            "midi": 63,
            "name": "D#4",
            "ticks": 202560,
            "time": 120.57130800000002,
            "velocity": 0.5511811023622047
          },
          {
            "duration": 0.10714275000000839,
            "durationTicks": 180,
            "midi": 57,
            "name": "A3",
            "ticks": 202800,
            "time": 120.71416500000001,
            "velocity": 0.5511811023622047
          },
          {
            "duration": 0.10714275000000839,
            "durationTicks": 180,
            "midi": 63,
            "name": "D#4",
            "ticks": 202800,
            "time": 120.71416500000001,
            "velocity": 0.5511811023622047
          },
          {
            "duration": 0.10714274999999418,
            "durationTicks": 180,
            "midi": 63,
            "name": "D#4",
            "ticks": 203040,
            "time": 120.85702200000001,
            "velocity": 0.5511811023622047
          },
          {
            "duration": 0.10714274999999418,
            "durationTicks": 180,
            "midi": 69,
            "name": "A4",
            "ticks": 203040,
            "time": 120.85702200000001,
            "velocity": 0.5511811023622047
          },
          {
            "duration": 0.10714275000000839,
            "durationTicks": 180,
            "midi": 63,
            "name": "D#4",
            "ticks": 203280,
            "time": 120.999879,
            "velocity": 0.5511811023622047
          },
          {
            "duration": 0.10714275000000839,
            "durationTicks": 180,
            "midi": 69,
            "name": "A4",
            "ticks": 203280,
            "time": 120.999879,
            "velocity": 0.5511811023622047
          },
          {
            "duration": 0.10714274999999418,
            "durationTicks": 180,
            "midi": 57,
            "name": "A3",
            "ticks": 203520,
            "time": 121.14273600000001,
            "velocity": 0.5511811023622047
          },
          {
            "duration": 0.10714274999999418,
            "durationTicks": 180,
            "midi": 63,
            "name": "D#4",
            "ticks": 203520,
            "time": 121.14273600000001,
            "velocity": 0.5511811023622047
          },
          {
            "duration": 0.10714275000000839,
            "durationTicks": 180,
            "midi": 57,
            "name": "A3",
            "ticks": 203760,
            "time": 121.285593,
            "velocity": 0.5511811023622047
          },
          {
            "duration": 0.10714275000000839,
            "durationTicks": 180,
            "midi": 63,
            "name": "D#4",
            "ticks": 203760,
            "time": 121.285593,
            "velocity": 0.5511811023622047
          },
          {
            "duration": 0.10714274999999418,
            "durationTicks": 180,
            "midi": 63,
            "name": "D#4",
            "ticks": 204000,
            "time": 121.42845000000001,
            "velocity": 0.5511811023622047
          },
          {
            "duration": 0.10714274999999418,
            "durationTicks": 180,
            "midi": 69,
            "name": "A4",
            "ticks": 204000,
            "time": 121.42845000000001,
            "velocity": 0.5511811023622047
          },
          {
            "duration": 0.10714275000000839,
            "durationTicks": 180,
            "midi": 63,
            "name": "D#4",
            "ticks": 204240,
            "time": 121.571307,
            "velocity": 0.5511811023622047
          },
          {
            "duration": 0.10714275000000839,
            "durationTicks": 180,
            "midi": 69,
            "name": "A4",
            "ticks": 204240,
            "time": 121.571307,
            "velocity": 0.5511811023622047
          },
          {
            "duration": 0.10714274999999418,
            "durationTicks": 180,
            "midi": 57,
            "name": "A3",
            "ticks": 204480,
            "time": 121.71416400000001,
            "velocity": 0.5511811023622047
          },
          {
            "duration": 0.10714274999999418,
            "durationTicks": 180,
            "midi": 63,
            "name": "D#4",
            "ticks": 204480,
            "time": 121.71416400000001,
            "velocity": 0.5511811023622047
          },
          {
            "duration": 0.10714275000000839,
            "durationTicks": 180,
            "midi": 57,
            "name": "A3",
            "ticks": 204720,
            "time": 121.857021,
            "velocity": 0.5511811023622047
          },
          {
            "duration": 0.10714275000000839,
            "durationTicks": 180,
            "midi": 63,
            "name": "D#4",
            "ticks": 204720,
            "time": 121.857021,
            "velocity": 0.5511811023622047
          },
          {
            "duration": 0.10714274999999418,
            "durationTicks": 180,
            "midi": 63,
            "name": "D#4",
            "ticks": 204960,
            "time": 121.99987800000001,
            "velocity": 0.5511811023622047
          },
          {
            "duration": 0.10714274999999418,
            "durationTicks": 180,
            "midi": 69,
            "name": "A4",
            "ticks": 204960,
            "time": 121.99987800000001,
            "velocity": 0.5511811023622047
          },
          {
            "duration": 0.10714274999999418,
            "durationTicks": 180,
            "midi": 63,
            "name": "D#4",
            "ticks": 205200,
            "time": 122.14273500000002,
            "velocity": 0.5511811023622047
          },
          {
            "duration": 0.10714274999999418,
            "durationTicks": 180,
            "midi": 69,
            "name": "A4",
            "ticks": 205200,
            "time": 122.14273500000002,
            "velocity": 0.5511811023622047
          },
          {
            "duration": 0.10714275000000839,
            "durationTicks": 180,
            "midi": 57,
            "name": "A3",
            "ticks": 205440,
            "time": 122.28559200000001,
            "velocity": 0.5511811023622047
          },
          {
            "duration": 0.10714275000000839,
            "durationTicks": 180,
            "midi": 62,
            "name": "D4",
            "ticks": 205440,
            "time": 122.28559200000001,
            "velocity": 0.5511811023622047
          },
          {
            "duration": 0.10714274999999418,
            "durationTicks": 180,
            "midi": 57,
            "name": "A3",
            "ticks": 205680,
            "time": 122.42844900000001,
            "velocity": 0.5511811023622047
          },
          {
            "duration": 0.10714274999999418,
            "durationTicks": 180,
            "midi": 62,
            "name": "D4",
            "ticks": 205680,
            "time": 122.42844900000001,
            "velocity": 0.5511811023622047
          },
          {
            "duration": 0.10714275000000839,
            "durationTicks": 180,
            "midi": 62,
            "name": "D4",
            "ticks": 205920,
            "time": 122.571306,
            "velocity": 0.5511811023622047
          },
          {
            "duration": 0.10714275000000839,
            "durationTicks": 180,
            "midi": 72,
            "name": "C5",
            "ticks": 205920,
            "time": 122.571306,
            "velocity": 0.5511811023622047
          },
          {
            "duration": 0.10714274999999418,
            "durationTicks": 180,
            "midi": 62,
            "name": "D4",
            "ticks": 206160,
            "time": 122.71416300000001,
            "velocity": 0.5511811023622047
          },
          {
            "duration": 0.10714274999999418,
            "durationTicks": 180,
            "midi": 72,
            "name": "C5",
            "ticks": 206160,
            "time": 122.71416300000001,
            "velocity": 0.5511811023622047
          },
          {
            "duration": 0.10714275000000839,
            "durationTicks": 180,
            "midi": 57,
            "name": "A3",
            "ticks": 206400,
            "time": 122.85702,
            "velocity": 0.5511811023622047
          },
          {
            "duration": 0.10714275000000839,
            "durationTicks": 180,
            "midi": 62,
            "name": "D4",
            "ticks": 206400,
            "time": 122.85702,
            "velocity": 0.5511811023622047
          },
          {
            "duration": 0.10714274999999418,
            "durationTicks": 180,
            "midi": 57,
            "name": "A3",
            "ticks": 206640,
            "time": 122.99987700000001,
            "velocity": 0.5511811023622047
          },
          {
            "duration": 0.10714274999999418,
            "durationTicks": 180,
            "midi": 62,
            "name": "D4",
            "ticks": 206640,
            "time": 122.99987700000001,
            "velocity": 0.5511811023622047
          },
          {
            "duration": 0.10714275000000839,
            "durationTicks": 180,
            "midi": 62,
            "name": "D4",
            "ticks": 206880,
            "time": 123.142734,
            "velocity": 0.5511811023622047
          },
          {
            "duration": 0.10714275000000839,
            "durationTicks": 180,
            "midi": 72,
            "name": "C5",
            "ticks": 206880,
            "time": 123.142734,
            "velocity": 0.5511811023622047
          },
          {
            "duration": 0.10714274999999418,
            "durationTicks": 180,
            "midi": 62,
            "name": "D4",
            "ticks": 207120,
            "time": 123.28559100000001,
            "velocity": 0.5511811023622047
          },
          {
            "duration": 0.10714274999999418,
            "durationTicks": 180,
            "midi": 72,
            "name": "C5",
            "ticks": 207120,
            "time": 123.28559100000001,
            "velocity": 0.5511811023622047
          },
          {
            "duration": 0.10714275000000839,
            "durationTicks": 180,
            "midi": 57,
            "name": "A3",
            "ticks": 207360,
            "time": 123.428448,
            "velocity": 0.5511811023622047
          },
          {
            "duration": 0.10714275000000839,
            "durationTicks": 180,
            "midi": 60,
            "name": "C4",
            "ticks": 207360,
            "time": 123.428448,
            "velocity": 0.5511811023622047
          },
          {
            "duration": 0.10714274999999418,
            "durationTicks": 180,
            "midi": 57,
            "name": "A3",
            "ticks": 207600,
            "time": 123.57130500000001,
            "velocity": 0.5511811023622047
          },
          {
            "duration": 0.10714274999999418,
            "durationTicks": 180,
            "midi": 60,
            "name": "C4",
            "ticks": 207600,
            "time": 123.57130500000001,
            "velocity": 0.5511811023622047
          },
          {
            "duration": 0.10714274999999418,
            "durationTicks": 180,
            "midi": 60,
            "name": "C4",
            "ticks": 207840,
            "time": 123.71416200000002,
            "velocity": 0.5511811023622047
          },
          {
            "duration": 0.10714274999999418,
            "durationTicks": 180,
            "midi": 69,
            "name": "A4",
            "ticks": 207840,
            "time": 123.71416200000002,
            "velocity": 0.5511811023622047
          },
          {
            "duration": 0.10714275000000839,
            "durationTicks": 180,
            "midi": 60,
            "name": "C4",
            "ticks": 208080,
            "time": 123.85701900000001,
            "velocity": 0.5511811023622047
          },
          {
            "duration": 0.10714275000000839,
            "durationTicks": 180,
            "midi": 69,
            "name": "A4",
            "ticks": 208080,
            "time": 123.85701900000001,
            "velocity": 0.5511811023622047
          },
          {
            "duration": 0.10714274999999418,
            "durationTicks": 180,
            "midi": 57,
            "name": "A3",
            "ticks": 208320,
            "time": 123.99987600000001,
            "velocity": 0.5511811023622047
          },
          {
            "duration": 0.10714274999999418,
            "durationTicks": 180,
            "midi": 66,
            "name": "F#4",
            "ticks": 208320,
            "time": 123.99987600000001,
            "velocity": 0.5511811023622047
          },
          {
            "duration": 0.10714275000000839,
            "durationTicks": 180,
            "midi": 57,
            "name": "A3",
            "ticks": 208560,
            "time": 124.142733,
            "velocity": 0.5511811023622047
          },
          {
            "duration": 0.10714275000000839,
            "durationTicks": 180,
            "midi": 66,
            "name": "F#4",
            "ticks": 208560,
            "time": 124.142733,
            "velocity": 0.5511811023622047
          },
          {
            "duration": 0.10714274999999418,
            "durationTicks": 180,
            "midi": 66,
            "name": "F#4",
            "ticks": 208800,
            "time": 124.28559000000001,
            "velocity": 0.5511811023622047
          },
          {
            "duration": 0.10714274999999418,
            "durationTicks": 180,
            "midi": 69,
            "name": "A4",
            "ticks": 208800,
            "time": 124.28559000000001,
            "velocity": 0.5511811023622047
          },
          {
            "duration": 0.10714275000000839,
            "durationTicks": 180,
            "midi": 66,
            "name": "F#4",
            "ticks": 209040,
            "time": 124.428447,
            "velocity": 0.5511811023622047
          },
          {
            "duration": 0.10714275000000839,
            "durationTicks": 180,
            "midi": 69,
            "name": "A4",
            "ticks": 209040,
            "time": 124.428447,
            "velocity": 0.5511811023622047
          },
          {
            "duration": 0.10714274999999418,
            "durationTicks": 180,
            "midi": 55,
            "name": "G3",
            "ticks": 209280,
            "time": 124.57130400000001,
            "velocity": 0.5511811023622047
          },
          {
            "duration": 0.10714274999999418,
            "durationTicks": 180,
            "midi": 58,
            "name": "A#3",
            "ticks": 209280,
            "time": 124.57130400000001,
            "velocity": 0.5511811023622047
          },
          {
            "duration": 0.10714275000000839,
            "durationTicks": 180,
            "midi": 55,
            "name": "G3",
            "ticks": 209520,
            "time": 124.714161,
            "velocity": 0.5511811023622047
          },
          {
            "duration": 0.10714275000000839,
            "durationTicks": 180,
            "midi": 58,
            "name": "A#3",
            "ticks": 209520,
            "time": 124.714161,
            "velocity": 0.5511811023622047
          },
          {
            "duration": 0.10714274999999418,
            "durationTicks": 180,
            "midi": 58,
            "name": "A#3",
            "ticks": 209760,
            "time": 124.85701800000001,
            "velocity": 0.5511811023622047
          },
          {
            "duration": 0.10714274999999418,
            "durationTicks": 180,
            "midi": 67,
            "name": "G4",
            "ticks": 209760,
            "time": 124.85701800000001,
            "velocity": 0.5511811023622047
          },
          {
            "duration": 0.10714274999999418,
            "durationTicks": 180,
            "midi": 58,
            "name": "A#3",
            "ticks": 210000,
            "time": 124.99987500000002,
            "velocity": 0.5511811023622047
          },
          {
            "duration": 0.10714274999999418,
            "durationTicks": 180,
            "midi": 67,
            "name": "G4",
            "ticks": 210000,
            "time": 124.99987500000002,
            "velocity": 0.5511811023622047
          },
          {
            "duration": 0.10714274999999418,
            "durationTicks": 180,
            "midi": 55,
            "name": "G3",
            "ticks": 210240,
            "time": 125.14273200000001,
            "velocity": 0.5511811023622047
          },
          {
            "duration": 0.10714274999999418,
            "durationTicks": 180,
            "midi": 58,
            "name": "A#3",
            "ticks": 210240,
            "time": 125.14273200000001,
            "velocity": 0.5511811023622047
          },
          {
            "duration": 0.10714274999999418,
            "durationTicks": 180,
            "midi": 55,
            "name": "G3",
            "ticks": 210480,
            "time": 125.28558900000002,
            "velocity": 0.5511811023622047
          },
          {
            "duration": 0.10714274999999418,
            "durationTicks": 180,
            "midi": 58,
            "name": "A#3",
            "ticks": 210480,
            "time": 125.28558900000002,
            "velocity": 0.5511811023622047
          },
          {
            "duration": 0.10714275000000839,
            "durationTicks": 180,
            "midi": 58,
            "name": "A#3",
            "ticks": 210720,
            "time": 125.42844600000001,
            "velocity": 0.5511811023622047
          },
          {
            "duration": 0.10714275000000839,
            "durationTicks": 180,
            "midi": 67,
            "name": "G4",
            "ticks": 210720,
            "time": 125.42844600000001,
            "velocity": 0.5511811023622047
          },
          {
            "duration": 0.10714274999999418,
            "durationTicks": 180,
            "midi": 58,
            "name": "A#3",
            "ticks": 210960,
            "time": 125.57130300000001,
            "velocity": 0.5511811023622047
          },
          {
            "duration": 0.10714274999999418,
            "durationTicks": 180,
            "midi": 67,
            "name": "G4",
            "ticks": 210960,
            "time": 125.57130300000001,
            "velocity": 0.5511811023622047
          },
          {
            "duration": 0.10714275000000839,
            "durationTicks": 180,
            "midi": 57,
            "name": "A3",
            "ticks": 211200,
            "time": 125.71416,
            "velocity": 0.5511811023622047
          },
          {
            "duration": 0.10714275000000839,
            "durationTicks": 180,
            "midi": 63,
            "name": "D#4",
            "ticks": 211200,
            "time": 125.71416,
            "velocity": 0.5511811023622047
          },
          {
            "duration": 0.10714274999999418,
            "durationTicks": 180,
            "midi": 57,
            "name": "A3",
            "ticks": 211440,
            "time": 125.85701700000001,
            "velocity": 0.5511811023622047
          },
          {
            "duration": 0.10714274999999418,
            "durationTicks": 180,
            "midi": 63,
            "name": "D#4",
            "ticks": 211440,
            "time": 125.85701700000001,
            "velocity": 0.5511811023622047
          },
          {
            "duration": 0.10714275000000839,
            "durationTicks": 180,
            "midi": 63,
            "name": "D#4",
            "ticks": 211680,
            "time": 125.999874,
            "velocity": 0.5511811023622047
          },
          {
            "duration": 0.10714275000000839,
            "durationTicks": 180,
            "midi": 66,
            "name": "F#4",
            "ticks": 211680,
            "time": 125.999874,
            "velocity": 0.5511811023622047
          },
          {
            "duration": 0.10714274999999418,
            "durationTicks": 180,
            "midi": 63,
            "name": "D#4",
            "ticks": 211920,
            "time": 126.14273100000001,
            "velocity": 0.5511811023622047
          },
          {
            "duration": 0.10714274999999418,
            "durationTicks": 180,
            "midi": 66,
            "name": "F#4",
            "ticks": 211920,
            "time": 126.14273100000001,
            "velocity": 0.5511811023622047
          },
          {
            "duration": 0.10714275000000839,
            "durationTicks": 180,
            "midi": 57,
            "name": "A3",
            "ticks": 212160,
            "time": 126.285588,
            "velocity": 0.5511811023622047
          },
          {
            "duration": 0.10714275000000839,
            "durationTicks": 180,
            "midi": 63,
            "name": "D#4",
            "ticks": 212160,
            "time": 126.285588,
            "velocity": 0.5511811023622047
          },
          {
            "duration": 0.10714274999999418,
            "durationTicks": 180,
            "midi": 57,
            "name": "A3",
            "ticks": 212400,
            "time": 126.42844500000001,
            "velocity": 0.5511811023622047
          },
          {
            "duration": 0.10714274999999418,
            "durationTicks": 180,
            "midi": 63,
            "name": "D#4",
            "ticks": 212400,
            "time": 126.42844500000001,
            "velocity": 0.5511811023622047
          },
          {
            "duration": 0.10714274999999418,
            "durationTicks": 180,
            "midi": 63,
            "name": "D#4",
            "ticks": 212640,
            "time": 126.57130200000002,
            "velocity": 0.5511811023622047
          },
          {
            "duration": 0.10714274999999418,
            "durationTicks": 180,
            "midi": 66,
            "name": "F#4",
            "ticks": 212640,
            "time": 126.57130200000002,
            "velocity": 0.5511811023622047
          },
          {
            "duration": 0.10714274999999418,
            "durationTicks": 180,
            "midi": 63,
            "name": "D#4",
            "ticks": 212880,
            "time": 126.71415900000001,
            "velocity": 0.5511811023622047
          },
          {
            "duration": 0.10714274999999418,
            "durationTicks": 180,
            "midi": 66,
            "name": "F#4",
            "ticks": 212880,
            "time": 126.71415900000001,
            "velocity": 0.5511811023622047
          },
          {
            "duration": 0.10714274999999418,
            "durationTicks": 180,
            "midi": 55,
            "name": "G3",
            "ticks": 213120,
            "time": 126.85701600000002,
            "velocity": 0.5511811023622047
          },
          {
            "duration": 0.10714274999999418,
            "durationTicks": 180,
            "midi": 58,
            "name": "A#3",
            "ticks": 213120,
            "time": 126.85701600000002,
            "velocity": 0.5511811023622047
          },
          {
            "duration": 0.10714275000000839,
            "durationTicks": 180,
            "midi": 55,
            "name": "G3",
            "ticks": 213360,
            "time": 126.99987300000001,
            "velocity": 0.5511811023622047
          },
          {
            "duration": 0.10714275000000839,
            "durationTicks": 180,
            "midi": 58,
            "name": "A#3",
            "ticks": 213360,
            "time": 126.99987300000001,
            "velocity": 0.5511811023622047
          },
          {
            "duration": 0.10714274999999418,
            "durationTicks": 180,
            "midi": 58,
            "name": "A#3",
            "ticks": 213600,
            "time": 127.14273000000001,
            "velocity": 0.5511811023622047
          },
          {
            "duration": 0.10714274999999418,
            "durationTicks": 180,
            "midi": 67,
            "name": "G4",
            "ticks": 213600,
            "time": 127.14273000000001,
            "velocity": 0.5511811023622047
          },
          {
            "duration": 0.10714275000000839,
            "durationTicks": 180,
            "midi": 58,
            "name": "A#3",
            "ticks": 213840,
            "time": 127.285587,
            "velocity": 0.5511811023622047
          },
          {
            "duration": 0.10714275000000839,
            "durationTicks": 180,
            "midi": 67,
            "name": "G4",
            "ticks": 213840,
            "time": 127.285587,
            "velocity": 0.5511811023622047
          },
          {
            "duration": 0.10714274999999418,
            "durationTicks": 180,
            "midi": 55,
            "name": "G3",
            "ticks": 214080,
            "time": 127.42844400000001,
            "velocity": 0.5511811023622047
          },
          {
            "duration": 0.10714274999999418,
            "durationTicks": 180,
            "midi": 58,
            "name": "A#3",
            "ticks": 214080,
            "time": 127.42844400000001,
            "velocity": 0.5511811023622047
          },
          {
            "duration": 0.10714275000000839,
            "durationTicks": 180,
            "midi": 55,
            "name": "G3",
            "ticks": 214320,
            "time": 127.571301,
            "velocity": 0.5511811023622047
          },
          {
            "duration": 0.10714275000000839,
            "durationTicks": 180,
            "midi": 58,
            "name": "A#3",
            "ticks": 214320,
            "time": 127.571301,
            "velocity": 0.5511811023622047
          },
          {
            "duration": 0.10714274999999418,
            "durationTicks": 180,
            "midi": 58,
            "name": "A#3",
            "ticks": 214560,
            "time": 127.71415800000001,
            "velocity": 0.5511811023622047
          },
          {
            "duration": 0.10714274999999418,
            "durationTicks": 180,
            "midi": 67,
            "name": "G4",
            "ticks": 214560,
            "time": 127.71415800000001,
            "velocity": 0.5511811023622047
          },
          {
            "duration": 0.10714275000000839,
            "durationTicks": 180,
            "midi": 58,
            "name": "A#3",
            "ticks": 214800,
            "time": 127.857015,
            "velocity": 0.5511811023622047
          },
          {
            "duration": 0.10714275000000839,
            "durationTicks": 180,
            "midi": 67,
            "name": "G4",
            "ticks": 214800,
            "time": 127.857015,
            "velocity": 0.5511811023622047
          },
          {
            "duration": 0.10714275000000839,
            "durationTicks": 180,
            "midi": 57,
            "name": "A3",
            "ticks": 215040,
            "time": 127.99987200000001,
            "velocity": 0.5511811023622047
          },
          {
            "duration": 0.10714275000000839,
            "durationTicks": 180,
            "midi": 63,
            "name": "D#4",
            "ticks": 215040,
            "time": 127.99987200000001,
            "velocity": 0.5511811023622047
          },
          {
            "duration": 0.10714275000000839,
            "durationTicks": 180,
            "midi": 57,
            "name": "A3",
            "ticks": 215280,
            "time": 128.142729,
            "velocity": 0.5511811023622047
          },
          {
            "duration": 0.10714275000000839,
            "durationTicks": 180,
            "midi": 63,
            "name": "D#4",
            "ticks": 215280,
            "time": 128.142729,
            "velocity": 0.5511811023622047
          },
          {
            "duration": 0.10714274999997997,
            "durationTicks": 180,
            "midi": 63,
            "name": "D#4",
            "ticks": 215520,
            "time": 128.28558600000002,
            "velocity": 0.5511811023622047
          },
          {
            "duration": 0.10714274999997997,
            "durationTicks": 180,
            "midi": 66,
            "name": "F#4",
            "ticks": 215520,
            "time": 128.28558600000002,
            "velocity": 0.5511811023622047
          },
          {
            "duration": 0.10714275000000839,
            "durationTicks": 180,
            "midi": 63,
            "name": "D#4",
            "ticks": 215760,
            "time": 128.42844300000002,
            "velocity": 0.5511811023622047
          },
          {
            "duration": 0.10714275000000839,
            "durationTicks": 180,
            "midi": 66,
            "name": "F#4",
            "ticks": 215760,
            "time": 128.42844300000002,
            "velocity": 0.5511811023622047
          },
          {
            "duration": 0.10714275000000839,
            "durationTicks": 180,
            "midi": 57,
            "name": "A3",
            "ticks": 216000,
            "time": 128.5713,
            "velocity": 0.5511811023622047
          },
          {
            "duration": 0.10714275000000839,
            "durationTicks": 180,
            "midi": 63,
            "name": "D#4",
            "ticks": 216000,
            "time": 128.5713,
            "velocity": 0.5511811023622047
          },
          {
            "duration": 0.10714275000000839,
            "durationTicks": 180,
            "midi": 57,
            "name": "A3",
            "ticks": 216240,
            "time": 128.714157,
            "velocity": 0.5511811023622047
          },
          {
            "duration": 0.10714275000000839,
            "durationTicks": 180,
            "midi": 63,
            "name": "D#4",
            "ticks": 216240,
            "time": 128.714157,
            "velocity": 0.5511811023622047
          },
          {
            "duration": 0.10714274999997997,
            "durationTicks": 180,
            "midi": 63,
            "name": "D#4",
            "ticks": 216480,
            "time": 128.85701400000002,
            "velocity": 0.5511811023622047
          },
          {
            "duration": 0.10714274999997997,
            "durationTicks": 180,
            "midi": 66,
            "name": "F#4",
            "ticks": 216480,
            "time": 128.85701400000002,
            "velocity": 0.5511811023622047
          },
          {
            "duration": 0.10714275000000839,
            "durationTicks": 180,
            "midi": 63,
            "name": "D#4",
            "ticks": 216720,
            "time": 128.999871,
            "velocity": 0.5511811023622047
          },
          {
            "duration": 0.10714275000000839,
            "durationTicks": 180,
            "midi": 66,
            "name": "F#4",
            "ticks": 216720,
            "time": 128.999871,
            "velocity": 0.5511811023622047
          },
          {
            "duration": 1.085713200000015,
            "durationTicks": 1824,
            "midi": 55,
            "name": "G3",
            "ticks": 216960,
            "time": 129.142728,
            "velocity": 0.5511811023622047
          },
          {
            "duration": 1.085713200000015,
            "durationTicks": 1824,
            "midi": 62,
            "name": "D4",
            "ticks": 216960,
            "time": 129.142728,
            "velocity": 0.5511811023622047
          },
          {
            "duration": 0.8571420000000103,
            "durationTicks": 1440,
            "midi": 58,
            "name": "A#3",
            "ticks": 218880,
            "time": 130.285584,
            "velocity": 0.5511811023622047
          },
          {
            "duration": 0.2857140000000129,
            "durationTicks": 480,
            "midi": 57,
            "name": "A3",
            "ticks": 220320,
            "time": 131.142726,
            "velocity": 0.5511811023622047
          },
          {
            "duration": 0.5714279999999974,
            "durationTicks": 960,
            "midi": 55,
            "name": "G3",
            "ticks": 220800,
            "time": 131.42844000000002,
            "velocity": 0.5511811023622047
          },
          {
            "duration": 0.2857139999999845,
            "durationTicks": 480,
            "midi": 54,
            "name": "F#3",
            "ticks": 221760,
            "time": 131.99986800000002,
            "velocity": 0.5511811023622047
          },
          {
            "duration": 0.22857120000000464,
            "durationTicks": 384,
            "midi": 55,
            "name": "G3",
            "ticks": 222240,
            "time": 132.285582,
            "velocity": 0.5511811023622047
          },
          {
            "duration": 0.4571424000000093,
            "durationTicks": 768,
            "midi": 57,
            "name": "A3",
            "ticks": 222720,
            "time": 132.57129600000002,
            "velocity": 0.5511811023622047
          },
          {
            "duration": 0.10714275000000839,
            "durationTicks": 180,
            "midi": 62,
            "name": "D4",
            "ticks": 224160,
            "time": 133.428438,
            "velocity": 0.8267716535433071
          },
          {
            "duration": 0.10714274999997997,
            "durationTicks": 180,
            "midi": 62,
            "name": "D4",
            "ticks": 224400,
            "time": 133.57129500000002,
            "velocity": 0.8267716535433071
          },
          {
            "duration": 0.4571424000000093,
            "durationTicks": 768,
            "midi": 62,
            "name": "D4",
            "ticks": 224640,
            "time": 133.714152,
            "velocity": 0.8267716535433071
          },
          {
            "duration": 0.10714274999997997,
            "durationTicks": 180,
            "midi": 62,
            "name": "D4",
            "ticks": 226080,
            "time": 134.57129400000002,
            "velocity": 0.8267716535433071
          },
          {
            "duration": 0.10714275000000839,
            "durationTicks": 180,
            "midi": 62,
            "name": "D4",
            "ticks": 226320,
            "time": 134.71415100000002,
            "velocity": 0.8267716535433071
          },
          {
            "duration": 0.4571424000000093,
            "durationTicks": 768,
            "midi": 62,
            "name": "D4",
            "ticks": 226560,
            "time": 134.857008,
            "velocity": 0.8267716535433071
          },
          {
            "duration": 0.10714274999997997,
            "durationTicks": 180,
            "midi": 62,
            "name": "D4",
            "ticks": 228000,
            "time": 135.71415000000002,
            "velocity": 0.8267716535433071
          },
          {
            "duration": 0.10714275000000839,
            "durationTicks": 180,
            "midi": 62,
            "name": "D4",
            "ticks": 228240,
            "time": 135.857007,
            "velocity": 0.8267716535433071
          },
          {
            "duration": 0.21428550000001678,
            "durationTicks": 360,
            "midi": 62,
            "name": "D4",
            "ticks": 228480,
            "time": 135.999864,
            "velocity": 0.8267716535433071
          },
          {
            "duration": 0.10714275000000839,
            "durationTicks": 180,
            "midi": 62,
            "name": "D4",
            "ticks": 228960,
            "time": 136.28557800000002,
            "velocity": 0.8267716535433071
          },
          {
            "duration": 0.10714275000000839,
            "durationTicks": 180,
            "midi": 62,
            "name": "D4",
            "ticks": 229200,
            "time": 136.428435,
            "velocity": 0.8267716535433071
          },
          {
            "duration": 0.21428550000001678,
            "durationTicks": 360,
            "midi": 62,
            "name": "D4",
            "ticks": 229440,
            "time": 136.571292,
            "velocity": 0.8267716535433071
          },
          {
            "duration": 0.10714275000000839,
            "durationTicks": 180,
            "midi": 62,
            "name": "D4",
            "ticks": 229920,
            "time": 136.857006,
            "velocity": 0.8267716535433071
          },
          {
            "duration": 0.10714275000000839,
            "durationTicks": 180,
            "midi": 62,
            "name": "D4",
            "ticks": 230160,
            "time": 136.999863,
            "velocity": 0.8267716535433071
          },
          {
            "duration": 0.4571424000000093,
            "durationTicks": 768,
            "midi": 62,
            "name": "D4",
            "ticks": 230400,
            "time": 137.14272,
            "velocity": 0.8267716535433071
          },
          {
            "duration": 0.10714275000000839,
            "durationTicks": 180,
            "midi": 55,
            "name": "G3",
            "ticks": 234240,
            "time": 139.42843200000002,
            "velocity": 0.5511811023622047
          },
          {
            "duration": 0.10714275000000839,
            "durationTicks": 180,
            "midi": 58,
            "name": "A#3",
            "ticks": 234240,
            "time": 139.42843200000002,
            "velocity": 0.5511811023622047
          },
          {
            "duration": 0.10714275000000839,
            "durationTicks": 180,
            "midi": 55,
            "name": "G3",
            "ticks": 234480,
            "time": 139.571289,
            "velocity": 0.5511811023622047
          },
          {
            "duration": 0.10714275000000839,
            "durationTicks": 180,
            "midi": 58,
            "name": "A#3",
            "ticks": 234480,
            "time": 139.571289,
            "velocity": 0.5511811023622047
          },
          {
            "duration": 0.10714275000000839,
            "durationTicks": 180,
            "midi": 58,
            "name": "A#3",
            "ticks": 234720,
            "time": 139.714146,
            "velocity": 0.5511811023622047
          },
          {
            "duration": 0.10714275000000839,
            "durationTicks": 180,
            "midi": 67,
            "name": "G4",
            "ticks": 234720,
            "time": 139.714146,
            "velocity": 0.5511811023622047
          },
          {
            "duration": 0.10714274999997997,
            "durationTicks": 180,
            "midi": 58,
            "name": "A#3",
            "ticks": 234960,
            "time": 139.85700300000002,
            "velocity": 0.5511811023622047
          },
          {
            "duration": 0.10714274999997997,
            "durationTicks": 180,
            "midi": 67,
            "name": "G4",
            "ticks": 234960,
            "time": 139.85700300000002,
            "velocity": 0.5511811023622047
          },
          {
            "duration": 0.10714275000000839,
            "durationTicks": 180,
            "midi": 55,
            "name": "G3",
            "ticks": 235200,
            "time": 139.99986,
            "velocity": 0.5511811023622047
          },
          {
            "duration": 0.10714275000000839,
            "durationTicks": 180,
            "midi": 58,
            "name": "A#3",
            "ticks": 235200,
            "time": 139.99986,
            "velocity": 0.5511811023622047
          },
          {
            "duration": 0.10714275000000839,
            "durationTicks": 180,
            "midi": 55,
            "name": "G3",
            "ticks": 235440,
            "time": 140.142717,
            "velocity": 0.5511811023622047
          },
          {
            "duration": 0.10714275000000839,
            "durationTicks": 180,
            "midi": 58,
            "name": "A#3",
            "ticks": 235440,
            "time": 140.142717,
            "velocity": 0.5511811023622047
          },
          {
            "duration": 0.10714274999997997,
            "durationTicks": 180,
            "midi": 58,
            "name": "A#3",
            "ticks": 235680,
            "time": 140.28557400000003,
            "velocity": 0.5511811023622047
          },
          {
            "duration": 0.10714274999997997,
            "durationTicks": 180,
            "midi": 67,
            "name": "G4",
            "ticks": 235680,
            "time": 140.28557400000003,
            "velocity": 0.5511811023622047
          },
          {
            "duration": 0.10714274999997997,
            "durationTicks": 180,
            "midi": 58,
            "name": "A#3",
            "ticks": 235920,
            "time": 140.42843100000002,
            "velocity": 0.5511811023622047
          },
          {
            "duration": 0.10714274999997997,
            "durationTicks": 180,
            "midi": 67,
            "name": "G4",
            "ticks": 235920,
            "time": 140.42843100000002,
            "velocity": 0.5511811023622047
          },
          {
            "duration": 0.10714275000000839,
            "durationTicks": 180,
            "midi": 55,
            "name": "G3",
            "ticks": 236160,
            "time": 140.571288,
            "velocity": 0.5511811023622047
          },
          {
            "duration": 0.10714275000000839,
            "durationTicks": 180,
            "midi": 58,
            "name": "A#3",
            "ticks": 236160,
            "time": 140.571288,
            "velocity": 0.5511811023622047
          },
          {
            "duration": 0.10714275000000839,
            "durationTicks": 180,
            "midi": 55,
            "name": "G3",
            "ticks": 236400,
            "time": 140.714145,
            "velocity": 0.5511811023622047
          },
          {
            "duration": 0.10714275000000839,
            "durationTicks": 180,
            "midi": 58,
            "name": "A#3",
            "ticks": 236400,
            "time": 140.714145,
            "velocity": 0.5511811023622047
          },
          {
            "duration": 0.10714274999997997,
            "durationTicks": 180,
            "midi": 58,
            "name": "A#3",
            "ticks": 236640,
            "time": 140.85700200000002,
            "velocity": 0.5511811023622047
          },
          {
            "duration": 0.10714274999997997,
            "durationTicks": 180,
            "midi": 62,
            "name": "D4",
            "ticks": 236640,
            "time": 140.85700200000002,
            "velocity": 0.5511811023622047
          },
          {
            "duration": 0.10714275000000839,
            "durationTicks": 180,
            "midi": 58,
            "name": "A#3",
            "ticks": 236880,
            "time": 140.99985900000001,
            "velocity": 0.5511811023622047
          },
          {
            "duration": 0.10714275000000839,
            "durationTicks": 180,
            "midi": 62,
            "name": "D4",
            "ticks": 236880,
            "time": 140.99985900000001,
            "velocity": 0.5511811023622047
          },
          {
            "duration": 0.10714275000000839,
            "durationTicks": 180,
            "midi": 55,
            "name": "G3",
            "ticks": 237120,
            "time": 141.142716,
            "velocity": 0.5511811023622047
          },
          {
            "duration": 0.10714275000000839,
            "durationTicks": 180,
            "midi": 58,
            "name": "A#3",
            "ticks": 237120,
            "time": 141.142716,
            "velocity": 0.5511811023622047
          },
          {
            "duration": 0.10714275000000839,
            "durationTicks": 180,
            "midi": 55,
            "name": "G3",
            "ticks": 237360,
            "time": 141.285573,
            "velocity": 0.5511811023622047
          },
          {
            "duration": 0.10714275000000839,
            "durationTicks": 180,
            "midi": 58,
            "name": "A#3",
            "ticks": 237360,
            "time": 141.285573,
            "velocity": 0.5511811023622047
          },
          {
            "duration": 0.10714274999997997,
            "durationTicks": 180,
            "midi": 58,
            "name": "A#3",
            "ticks": 237600,
            "time": 141.42843000000002,
            "velocity": 0.5511811023622047
          },
          {
            "duration": 0.10714274999997997,
            "durationTicks": 180,
            "midi": 67,
            "name": "G4",
            "ticks": 237600,
            "time": 141.42843000000002,
            "velocity": 0.5511811023622047
          },
          {
            "duration": 0.10714275000000839,
            "durationTicks": 180,
            "midi": 58,
            "name": "A#3",
            "ticks": 237840,
            "time": 141.571287,
            "velocity": 0.5511811023622047
          },
          {
            "duration": 0.10714275000000839,
            "durationTicks": 180,
            "midi": 67,
            "name": "G4",
            "ticks": 237840,
            "time": 141.571287,
            "velocity": 0.5511811023622047
          },
          {
            "duration": 0.10714275000000839,
            "durationTicks": 180,
            "midi": 55,
            "name": "G3",
            "ticks": 238080,
            "time": 141.714144,
            "velocity": 0.5511811023622047
          },
          {
            "duration": 0.10714275000000839,
            "durationTicks": 180,
            "midi": 58,
            "name": "A#3",
            "ticks": 238080,
            "time": 141.714144,
            "velocity": 0.5511811023622047
          },
          {
            "duration": 0.10714274999997997,
            "durationTicks": 180,
            "midi": 55,
            "name": "G3",
            "ticks": 238320,
            "time": 141.85700100000003,
            "velocity": 0.5511811023622047
          },
          {
            "duration": 0.10714274999997997,
            "durationTicks": 180,
            "midi": 58,
            "name": "A#3",
            "ticks": 238320,
            "time": 141.85700100000003,
            "velocity": 0.5511811023622047
          },
          {
            "duration": 0.10714275000000839,
            "durationTicks": 180,
            "midi": 58,
            "name": "A#3",
            "ticks": 238560,
            "time": 141.99985800000002,
            "velocity": 0.5511811023622047
          },
          {
            "duration": 0.10714275000000839,
            "durationTicks": 180,
            "midi": 67,
            "name": "G4",
            "ticks": 238560,
            "time": 141.99985800000002,
            "velocity": 0.5511811023622047
          },
          {
            "duration": 0.10714275000000839,
            "durationTicks": 180,
            "midi": 58,
            "name": "A#3",
            "ticks": 238800,
            "time": 142.142715,
            "velocity": 0.5511811023622047
          },
          {
            "duration": 0.10714275000000839,
            "durationTicks": 180,
            "midi": 67,
            "name": "G4",
            "ticks": 238800,
            "time": 142.142715,
            "velocity": 0.5511811023622047
          },
          {
            "duration": 0.10714275000000839,
            "durationTicks": 180,
            "midi": 55,
            "name": "G3",
            "ticks": 239040,
            "time": 142.285572,
            "velocity": 0.5511811023622047
          },
          {
            "duration": 0.10714275000000839,
            "durationTicks": 180,
            "midi": 58,
            "name": "A#3",
            "ticks": 239040,
            "time": 142.285572,
            "velocity": 0.5511811023622047
          },
          {
            "duration": 0.10714274999997997,
            "durationTicks": 180,
            "midi": 55,
            "name": "G3",
            "ticks": 239280,
            "time": 142.42842900000002,
            "velocity": 0.5511811023622047
          },
          {
            "duration": 0.10714274999997997,
            "durationTicks": 180,
            "midi": 58,
            "name": "A#3",
            "ticks": 239280,
            "time": 142.42842900000002,
            "velocity": 0.5511811023622047
          },
          {
            "duration": 0.10714275000000839,
            "durationTicks": 180,
            "midi": 58,
            "name": "A#3",
            "ticks": 239520,
            "time": 142.57128600000001,
            "velocity": 0.5511811023622047
          },
          {
            "duration": 0.10714275000000839,
            "durationTicks": 180,
            "midi": 67,
            "name": "G4",
            "ticks": 239520,
            "time": 142.57128600000001,
            "velocity": 0.5511811023622047
          },
          {
            "duration": 0.10714275000000839,
            "durationTicks": 180,
            "midi": 58,
            "name": "A#3",
            "ticks": 239760,
            "time": 142.714143,
            "velocity": 0.5511811023622047
          },
          {
            "duration": 0.10714275000000839,
            "durationTicks": 180,
            "midi": 67,
            "name": "G4",
            "ticks": 239760,
            "time": 142.714143,
            "velocity": 0.5511811023622047
          },
          {
            "duration": 0.10714275000000839,
            "durationTicks": 180,
            "midi": 55,
            "name": "G3",
            "ticks": 240000,
            "time": 142.857,
            "velocity": 0.5511811023622047
          },
          {
            "duration": 0.10714275000000839,
            "durationTicks": 180,
            "midi": 58,
            "name": "A#3",
            "ticks": 240000,
            "time": 142.857,
            "velocity": 0.5511811023622047
          },
          {
            "duration": 0.10714274999997997,
            "durationTicks": 180,
            "midi": 55,
            "name": "G3",
            "ticks": 240240,
            "time": 142.99985700000002,
            "velocity": 0.5511811023622047
          },
          {
            "duration": 0.10714274999997997,
            "durationTicks": 180,
            "midi": 58,
            "name": "A#3",
            "ticks": 240240,
            "time": 142.99985700000002,
            "velocity": 0.5511811023622047
          },
          {
            "duration": 0.10714275000000839,
            "durationTicks": 180,
            "midi": 58,
            "name": "A#3",
            "ticks": 240480,
            "time": 143.142714,
            "velocity": 0.5511811023622047
          },
          {
            "duration": 0.10714275000000839,
            "durationTicks": 180,
            "midi": 67,
            "name": "G4",
            "ticks": 240480,
            "time": 143.142714,
            "velocity": 0.5511811023622047
          },
          {
            "duration": 0.10714275000000839,
            "durationTicks": 180,
            "midi": 58,
            "name": "A#3",
            "ticks": 240720,
            "time": 143.285571,
            "velocity": 0.5511811023622047
          },
          {
            "duration": 0.10714275000000839,
            "durationTicks": 180,
            "midi": 67,
            "name": "G4",
            "ticks": 240720,
            "time": 143.285571,
            "velocity": 0.5511811023622047
          },
          {
            "duration": 0.10714274999997997,
            "durationTicks": 180,
            "midi": 55,
            "name": "G3",
            "ticks": 240960,
            "time": 143.42842800000003,
            "velocity": 0.5511811023622047
          },
          {
            "duration": 0.10714274999997997,
            "durationTicks": 180,
            "midi": 58,
            "name": "A#3",
            "ticks": 240960,
            "time": 143.42842800000003,
            "velocity": 0.5511811023622047
          },
          {
            "duration": 0.10714275000000839,
            "durationTicks": 180,
            "midi": 55,
            "name": "G3",
            "ticks": 241200,
            "time": 143.57128500000002,
            "velocity": 0.5511811023622047
          },
          {
            "duration": 0.10714275000000839,
            "durationTicks": 180,
            "midi": 58,
            "name": "A#3",
            "ticks": 241200,
            "time": 143.57128500000002,
            "velocity": 0.5511811023622047
          },
          {
            "duration": 0.10714275000000839,
            "durationTicks": 180,
            "midi": 58,
            "name": "A#3",
            "ticks": 241440,
            "time": 143.714142,
            "velocity": 0.5511811023622047
          },
          {
            "duration": 0.10714275000000839,
            "durationTicks": 180,
            "midi": 67,
            "name": "G4",
            "ticks": 241440,
            "time": 143.714142,
            "velocity": 0.5511811023622047
          },
          {
            "duration": 0.10714275000000839,
            "durationTicks": 180,
            "midi": 58,
            "name": "A#3",
            "ticks": 241680,
            "time": 143.856999,
            "velocity": 0.5511811023622047
          },
          {
            "duration": 0.10714275000000839,
            "durationTicks": 180,
            "midi": 67,
            "name": "G4",
            "ticks": 241680,
            "time": 143.856999,
            "velocity": 0.5511811023622047
          },
          {
            "duration": 0.10714274999997997,
            "durationTicks": 180,
            "midi": 57,
            "name": "A3",
            "ticks": 241920,
            "time": 143.99985600000002,
            "velocity": 0.5511811023622047
          },
          {
            "duration": 0.10714274999997997,
            "durationTicks": 180,
            "midi": 60,
            "name": "C4",
            "ticks": 241920,
            "time": 143.99985600000002,
            "velocity": 0.5511811023622047
          },
          {
            "duration": 0.10714275000000839,
            "durationTicks": 180,
            "midi": 57,
            "name": "A3",
            "ticks": 242160,
            "time": 144.14271300000001,
            "velocity": 0.5511811023622047
          },
          {
            "duration": 0.10714275000000839,
            "durationTicks": 180,
            "midi": 60,
            "name": "C4",
            "ticks": 242160,
            "time": 144.14271300000001,
            "velocity": 0.5511811023622047
          },
          {
            "duration": 0.10714275000000839,
            "durationTicks": 180,
            "midi": 63,
            "name": "D#4",
            "ticks": 242400,
            "time": 144.28557,
            "velocity": 0.5511811023622047
          },
          {
            "duration": 0.10714275000000839,
            "durationTicks": 180,
            "midi": 69,
            "name": "A4",
            "ticks": 242400,
            "time": 144.28557,
            "velocity": 0.5511811023622047
          },
          {
            "duration": 0.10714275000000839,
            "durationTicks": 180,
            "midi": 63,
            "name": "D#4",
            "ticks": 242640,
            "time": 144.428427,
            "velocity": 0.5511811023622047
          },
          {
            "duration": 0.10714275000000839,
            "durationTicks": 180,
            "midi": 69,
            "name": "A4",
            "ticks": 242640,
            "time": 144.428427,
            "velocity": 0.5511811023622047
          },
          {
            "duration": 0.10714274999997997,
            "durationTicks": 180,
            "midi": 57,
            "name": "A3",
            "ticks": 242880,
            "time": 144.57128400000002,
            "velocity": 0.5511811023622047
          },
          {
            "duration": 0.10714274999997997,
            "durationTicks": 180,
            "midi": 60,
            "name": "C4",
            "ticks": 242880,
            "time": 144.57128400000002,
            "velocity": 0.5511811023622047
          },
          {
            "duration": 0.10714275000000839,
            "durationTicks": 180,
            "midi": 57,
            "name": "A3",
            "ticks": 243120,
            "time": 144.714141,
            "velocity": 0.5511811023622047
          },
          {
            "duration": 0.10714275000000839,
            "durationTicks": 180,
            "midi": 60,
            "name": "C4",
            "ticks": 243120,
            "time": 144.714141,
            "velocity": 0.5511811023622047
          },
          {
            "duration": 0.10714275000000839,
            "durationTicks": 180,
            "midi": 63,
            "name": "D#4",
            "ticks": 243360,
            "time": 144.856998,
            "velocity": 0.5511811023622047
          },
          {
            "duration": 0.10714275000000839,
            "durationTicks": 180,
            "midi": 69,
            "name": "A4",
            "ticks": 243360,
            "time": 144.856998,
            "velocity": 0.5511811023622047
          },
          {
            "duration": 0.10714274999997997,
            "durationTicks": 180,
            "midi": 63,
            "name": "D#4",
            "ticks": 243600,
            "time": 144.99985500000003,
            "velocity": 0.5511811023622047
          },
          {
            "duration": 0.10714274999997997,
            "durationTicks": 180,
            "midi": 69,
            "name": "A4",
            "ticks": 243600,
            "time": 144.99985500000003,
            "velocity": 0.5511811023622047
          },
          {
            "duration": 0.10714275000000839,
            "durationTicks": 180,
            "midi": 60,
            "name": "C4",
            "ticks": 243840,
            "time": 145.14271200000002,
            "velocity": 0.5511811023622047
          },
          {
            "duration": 0.10714275000000839,
            "durationTicks": 180,
            "midi": 63,
            "name": "D#4",
            "ticks": 243840,
            "time": 145.14271200000002,
            "velocity": 0.5511811023622047
          },
          {
            "duration": 0.10714275000000839,
            "durationTicks": 180,
            "midi": 60,
            "name": "C4",
            "ticks": 244080,
            "time": 145.285569,
            "velocity": 0.5511811023622047
          },
          {
            "duration": 0.10714275000000839,
            "durationTicks": 180,
            "midi": 63,
            "name": "D#4",
            "ticks": 244080,
            "time": 145.285569,
            "velocity": 0.5511811023622047
          },
          {
            "duration": 0.10714275000000839,
            "durationTicks": 180,
            "midi": 63,
            "name": "D#4",
            "ticks": 244320,
            "time": 145.428426,
            "velocity": 0.5511811023622047
          },
          {
            "duration": 0.10714275000000839,
            "durationTicks": 180,
            "midi": 72,
            "name": "C5",
            "ticks": 244320,
            "time": 145.428426,
            "velocity": 0.5511811023622047
          },
          {
            "duration": 0.10714274999997997,
            "durationTicks": 180,
            "midi": 63,
            "name": "D#4",
            "ticks": 244560,
            "time": 145.57128300000002,
            "velocity": 0.5511811023622047
          },
          {
            "duration": 0.10714274999997997,
            "durationTicks": 180,
            "midi": 72,
            "name": "C5",
            "ticks": 244560,
            "time": 145.57128300000002,
            "velocity": 0.5511811023622047
          },
          {
            "duration": 0.10714275000000839,
            "durationTicks": 180,
            "midi": 57,
            "name": "A3",
            "ticks": 244800,
            "time": 145.71414000000001,
            "velocity": 0.5511811023622047
          },
          {
            "duration": 0.10714275000000839,
            "durationTicks": 180,
            "midi": 60,
            "name": "C4",
            "ticks": 244800,
            "time": 145.71414000000001,
            "velocity": 0.5511811023622047
          },
          {
            "duration": 0.10714275000000839,
            "durationTicks": 180,
            "midi": 57,
            "name": "A3",
            "ticks": 245040,
            "time": 145.856997,
            "velocity": 0.5511811023622047
          },
          {
            "duration": 0.10714275000000839,
            "durationTicks": 180,
            "midi": 60,
            "name": "C4",
            "ticks": 245040,
            "time": 145.856997,
            "velocity": 0.5511811023622047
          },
          {
            "duration": 0.10714275000000839,
            "durationTicks": 180,
            "midi": 60,
            "name": "C4",
            "ticks": 245280,
            "time": 145.999854,
            "velocity": 0.5511811023622047
          },
          {
            "duration": 0.10714275000000839,
            "durationTicks": 180,
            "midi": 69,
            "name": "A4",
            "ticks": 245280,
            "time": 145.999854,
            "velocity": 0.5511811023622047
          },
          {
            "duration": 0.10714274999997997,
            "durationTicks": 180,
            "midi": 60,
            "name": "C4",
            "ticks": 245520,
            "time": 146.14271100000002,
            "velocity": 0.5511811023622047
          },
          {
            "duration": 0.10714274999997997,
            "durationTicks": 180,
            "midi": 69,
            "name": "A4",
            "ticks": 245520,
            "time": 146.14271100000002,
            "velocity": 0.5511811023622047
          },
          {
            "duration": 0.11428559999998811,
            "durationTicks": 192,
            "midi": 62,
            "name": "D4",
            "ticks": 245760,
            "time": 146.285568,
            "velocity": 0.8267716535433071
          },
          {
            "duration": 0.11428559999998811,
            "durationTicks": 192,
            "midi": 70,
            "name": "A#4",
            "ticks": 245760,
            "time": 146.285568,
            "velocity": 0.8267716535433071
          },
          {
            "duration": 0.11428559999998811,
            "durationTicks": 192,
            "midi": 70,
            "name": "A#4",
            "ticks": 246000,
            "time": 146.428425,
            "velocity": 0.8267716535433071
          },
          {
            "duration": 0.11428559999998811,
            "durationTicks": 192,
            "midi": 74,
            "name": "D5",
            "ticks": 246240,
            "time": 146.57128200000002,
            "velocity": 0.8267716535433071
          },
          {
            "duration": 0.11428559999998811,
            "durationTicks": 192,
            "midi": 70,
            "name": "A#4",
            "ticks": 246480,
            "time": 146.71413900000002,
            "velocity": 0.8267716535433071
          },
          {
            "duration": 0.11428559999998811,
            "durationTicks": 192,
            "midi": 74,
            "name": "D5",
            "ticks": 246720,
            "time": 146.856996,
            "velocity": 0.8267716535433071
          },
          {
            "duration": 0.11428560000001653,
            "durationTicks": 192,
            "midi": 70,
            "name": "A#4",
            "ticks": 246960,
            "time": 146.999853,
            "velocity": 0.8267716535433071
          },
          {
            "duration": 0.11428559999998811,
            "durationTicks": 192,
            "midi": 74,
            "name": "D5",
            "ticks": 247200,
            "time": 147.14271000000002,
            "velocity": 0.8267716535433071
          },
          {
            "duration": 0.11428559999998811,
            "durationTicks": 192,
            "midi": 70,
            "name": "A#4",
            "ticks": 247440,
            "time": 147.28556700000001,
            "velocity": 0.8267716535433071
          },
          {
            "duration": 0.11428559999998811,
            "durationTicks": 192,
            "midi": 72,
            "name": "C5",
            "ticks": 247680,
            "time": 147.428424,
            "velocity": 0.8267716535433071
          },
          {
            "duration": 0.11428560000001653,
            "durationTicks": 192,
            "midi": 69,
            "name": "A4",
            "ticks": 247920,
            "time": 147.571281,
            "velocity": 0.8267716535433071
          },
          {
            "duration": 0.11428559999998811,
            "durationTicks": 192,
            "midi": 72,
            "name": "C5",
            "ticks": 248160,
            "time": 147.71413800000002,
            "velocity": 0.8267716535433071
          },
          {
            "duration": 0.11428559999998811,
            "durationTicks": 192,
            "midi": 69,
            "name": "A4",
            "ticks": 248400,
            "time": 147.856995,
            "velocity": 0.8267716535433071
          },
          {
            "duration": 0.11428559999998811,
            "durationTicks": 192,
            "midi": 72,
            "name": "C5",
            "ticks": 248640,
            "time": 147.999852,
            "velocity": 0.8267716535433071
          },
          {
            "duration": 0.11428559999998811,
            "durationTicks": 192,
            "midi": 69,
            "name": "A4",
            "ticks": 248880,
            "time": 148.14270900000002,
            "velocity": 0.8267716535433071
          },
          {
            "duration": 0.11428559999998811,
            "durationTicks": 192,
            "midi": 72,
            "name": "C5",
            "ticks": 249120,
            "time": 148.28556600000002,
            "velocity": 0.8267716535433071
          },
          {
            "duration": 0.11428559999998811,
            "durationTicks": 192,
            "midi": 69,
            "name": "A4",
            "ticks": 249360,
            "time": 148.428423,
            "velocity": 0.8267716535433071
          },
          {
            "duration": 0.11428560000001653,
            "durationTicks": 192,
            "midi": 70,
            "name": "A#4",
            "ticks": 249600,
            "time": 148.57128,
            "velocity": 0.8267716535433071
          },
          {
            "duration": 0.11428559999998811,
            "durationTicks": 192,
            "midi": 67,
            "name": "G4",
            "ticks": 249840,
            "time": 148.71413700000002,
            "velocity": 0.8267716535433071
          },
          {
            "duration": 0.11428559999998811,
            "durationTicks": 192,
            "midi": 70,
            "name": "A#4",
            "ticks": 250080,
            "time": 148.85699400000001,
            "velocity": 0.8267716535433071
          },
          {
            "duration": 0.11428559999998811,
            "durationTicks": 192,
            "midi": 67,
            "name": "G4",
            "ticks": 250320,
            "time": 148.999851,
            "velocity": 0.8267716535433071
          },
          {
            "duration": 0.11428560000001653,
            "durationTicks": 192,
            "midi": 70,
            "name": "A#4",
            "ticks": 250560,
            "time": 149.142708,
            "velocity": 0.8267716535433071
          },
          {
            "duration": 0.11428559999998811,
            "durationTicks": 192,
            "midi": 67,
            "name": "G4",
            "ticks": 250800,
            "time": 149.28556500000002,
            "velocity": 0.8267716535433071
          },
          {
            "duration": 0.11428559999998811,
            "durationTicks": 192,
            "midi": 70,
            "name": "A#4",
            "ticks": 251040,
            "time": 149.428422,
            "velocity": 0.8267716535433071
          },
          {
            "duration": 0.11428559999998811,
            "durationTicks": 192,
            "midi": 67,
            "name": "G4",
            "ticks": 251280,
            "time": 149.571279,
            "velocity": 0.8267716535433071
          },
          {
            "duration": 0.11428559999998811,
            "durationTicks": 192,
            "midi": 70,
            "name": "A#4",
            "ticks": 251520,
            "time": 149.71413600000002,
            "velocity": 0.8267716535433071
          },
          {
            "duration": 0.11428559999998811,
            "durationTicks": 192,
            "midi": 65,
            "name": "F4",
            "ticks": 251760,
            "time": 149.85699300000002,
            "velocity": 0.8267716535433071
          },
          {
            "duration": 0.11428559999998811,
            "durationTicks": 192,
            "midi": 70,
            "name": "A#4",
            "ticks": 252000,
            "time": 149.99985,
            "velocity": 0.8267716535433071
          },
          {
            "duration": 0.11428560000001653,
            "durationTicks": 192,
            "midi": 65,
            "name": "F4",
            "ticks": 252240,
            "time": 150.142707,
            "velocity": 0.8267716535433071
          },
          {
            "duration": 0.11428559999998811,
            "durationTicks": 192,
            "midi": 70,
            "name": "A#4",
            "ticks": 252480,
            "time": 150.28556400000002,
            "velocity": 0.8267716535433071
          },
          {
            "duration": 0.11428559999998811,
            "durationTicks": 192,
            "midi": 65,
            "name": "F4",
            "ticks": 252720,
            "time": 150.42842100000001,
            "velocity": 0.8267716535433071
          },
          {
            "duration": 0.11428559999998811,
            "durationTicks": 192,
            "midi": 70,
            "name": "A#4",
            "ticks": 252960,
            "time": 150.571278,
            "velocity": 0.8267716535433071
          },
          {
            "duration": 0.11428560000001653,
            "durationTicks": 192,
            "midi": 65,
            "name": "F4",
            "ticks": 253200,
            "time": 150.714135,
            "velocity": 0.8267716535433071
          },
          {
            "duration": 0.11428559999998811,
            "durationTicks": 192,
            "midi": 67,
            "name": "G4",
            "ticks": 253440,
            "time": 150.85699200000002,
            "velocity": 0.8267716535433071
          },
          {
            "duration": 0.11428559999998811,
            "durationTicks": 192,
            "midi": 63,
            "name": "D#4",
            "ticks": 253680,
            "time": 150.999849,
            "velocity": 0.8267716535433071
          },
          {
            "duration": 0.11428559999998811,
            "durationTicks": 192,
            "midi": 67,
            "name": "G4",
            "ticks": 253920,
            "time": 151.142706,
            "velocity": 0.8267716535433071
          },
          {
            "duration": 0.11428559999998811,
            "durationTicks": 192,
            "midi": 63,
            "name": "D#4",
            "ticks": 254160,
            "time": 151.28556300000002,
            "velocity": 0.8267716535433071
          },
          {
            "duration": 0.11428559999998811,
            "durationTicks": 192,
            "midi": 67,
            "name": "G4",
            "ticks": 254400,
            "time": 151.42842000000002,
            "velocity": 0.8267716535433071
          },
          {
            "duration": 0.11428559999998811,
            "durationTicks": 192,
            "midi": 63,
            "name": "D#4",
            "ticks": 254640,
            "time": 151.571277,
            "velocity": 0.8267716535433071
          },
          {
            "duration": 0.11428560000001653,
            "durationTicks": 192,
            "midi": 67,
            "name": "G4",
            "ticks": 254880,
            "time": 151.714134,
            "velocity": 0.8267716535433071
          },
          {
            "duration": 0.11428559999998811,
            "durationTicks": 192,
            "midi": 63,
            "name": "D#4",
            "ticks": 255120,
            "time": 151.85699100000002,
            "velocity": 0.8267716535433071
          },
          {
            "duration": 0.11428559999998811,
            "durationTicks": 192,
            "midi": 65,
            "name": "F4",
            "ticks": 255360,
            "time": 151.99984800000001,
            "velocity": 0.8267716535433071
          },
          {
            "duration": 0.11428559999998811,
            "durationTicks": 192,
            "midi": 62,
            "name": "D4",
            "ticks": 255600,
            "time": 152.142705,
            "velocity": 0.8267716535433071
          },
          {
            "duration": 0.11428560000001653,
            "durationTicks": 192,
            "midi": 65,
            "name": "F4",
            "ticks": 255840,
            "time": 152.285562,
            "velocity": 0.8267716535433071
          },
          {
            "duration": 0.11428559999998811,
            "durationTicks": 192,
            "midi": 62,
            "name": "D4",
            "ticks": 256080,
            "time": 152.42841900000002,
            "velocity": 0.8267716535433071
          },
          {
            "duration": 0.11428559999998811,
            "durationTicks": 192,
            "midi": 65,
            "name": "F4",
            "ticks": 256320,
            "time": 152.571276,
            "velocity": 0.8267716535433071
          },
          {
            "duration": 0.11428559999998811,
            "durationTicks": 192,
            "midi": 62,
            "name": "D4",
            "ticks": 256560,
            "time": 152.714133,
            "velocity": 0.8267716535433071
          },
          {
            "duration": 0.11428559999998811,
            "durationTicks": 192,
            "midi": 65,
            "name": "F4",
            "ticks": 256800,
            "time": 152.85699000000002,
            "velocity": 0.8267716535433071
          },
          {
            "duration": 0.11428559999998811,
            "durationTicks": 192,
            "midi": 62,
            "name": "D4",
            "ticks": 257040,
            "time": 152.99984700000002,
            "velocity": 0.8267716535433071
          },
          {
            "duration": 0.9142848000000185,
            "durationTicks": 1536,
            "midi": 60,
            "name": "C4",
            "ticks": 257280,
            "time": 153.142704,
            "velocity": 0.8818897637795275
          },
          {
            "duration": 0.4571424000000093,
            "durationTicks": 768,
            "midi": 60,
            "name": "C4",
            "ticks": 259200,
            "time": 154.28556,
            "velocity": 0.8818897637795275
          },
          {
            "duration": 0.4571424000000093,
            "durationTicks": 768,
            "midi": 61,
            "name": "C#4",
            "ticks": 260160,
            "time": 154.856988,
            "velocity": 0.8818897637795275
          },
          {
            "duration": 0.45714239999998085,
            "durationTicks": 768,
            "midi": 60,
            "name": "C4",
            "ticks": 261120,
            "time": 155.42841600000003,
            "velocity": 0.8818897637795275
          },
          {
            "duration": 0.45714239999998085,
            "durationTicks": 768,
            "midi": 61,
            "name": "C#4",
            "ticks": 262080,
            "time": 155.99984400000002,
            "velocity": 0.8818897637795275
          },
          {
            "duration": 0.4571424000000093,
            "durationTicks": 768,
            "midi": 60,
            "name": "C4",
            "ticks": 263040,
            "time": 156.57127200000002,
            "velocity": 0.8818897637795275
          },
          {
            "duration": 0.11428559999998811,
            "durationTicks": 192,
            "midi": 60,
            "name": "C4",
            "ticks": 264720,
            "time": 157.57127100000002,
            "velocity": 0.8267716535433071
          },
          {
            "duration": 0.10714275000000839,
            "durationTicks": 180,
            "midi": 65,
            "name": "F4",
            "ticks": 264960,
            "time": 157.71412800000002,
            "velocity": 0.8267716535433071
          },
          {
            "duration": 0.10714275000000839,
            "durationTicks": 180,
            "midi": 65,
            "name": "F4",
            "ticks": 265200,
            "time": 157.856985,
            "velocity": 0.8267716535433071
          },
          {
            "duration": 0.10714275000000839,
            "durationTicks": 180,
            "midi": 65,
            "name": "F4",
            "ticks": 265440,
            "time": 157.999842,
            "velocity": 0.8267716535433071
          },
          {
            "duration": 0.10714274999997997,
            "durationTicks": 180,
            "midi": 65,
            "name": "F4",
            "ticks": 265680,
            "time": 158.14269900000002,
            "velocity": 0.8267716535433071
          },
          {
            "duration": 0.10714275000000839,
            "durationTicks": 180,
            "midi": 69,
            "name": "A4",
            "ticks": 265920,
            "time": 158.285556,
            "velocity": 0.8267716535433071
          },
          {
            "duration": 0.10714275000000839,
            "durationTicks": 180,
            "midi": 69,
            "name": "A4",
            "ticks": 266160,
            "time": 158.428413,
            "velocity": 0.8267716535433071
          },
          {
            "duration": 0.10714274999997997,
            "durationTicks": 180,
            "midi": 72,
            "name": "C5",
            "ticks": 266400,
            "time": 158.57127000000003,
            "velocity": 0.8267716535433071
          },
          {
            "duration": 0.10714274999997997,
            "durationTicks": 180,
            "midi": 72,
            "name": "C5",
            "ticks": 266640,
            "time": 158.71412700000002,
            "velocity": 0.8267716535433071
          },
          {
            "duration": 0.10714275000000839,
            "durationTicks": 180,
            "midi": 70,
            "name": "A#4",
            "ticks": 266880,
            "time": 158.856984,
            "velocity": 0.8267716535433071
          },
          {
            "duration": 0.10714275000000839,
            "durationTicks": 180,
            "midi": 70,
            "name": "A#4",
            "ticks": 267120,
            "time": 158.999841,
            "velocity": 0.8267716535433071
          },
          {
            "duration": 0.10714274999997997,
            "durationTicks": 180,
            "midi": 70,
            "name": "A#4",
            "ticks": 267360,
            "time": 159.14269800000002,
            "velocity": 0.8267716535433071
          },
          {
            "duration": 0.10714275000000839,
            "durationTicks": 180,
            "midi": 70,
            "name": "A#4",
            "ticks": 267600,
            "time": 159.28555500000002,
            "velocity": 0.8267716535433071
          },
          {
            "duration": 0.10714275000000839,
            "durationTicks": 180,
            "midi": 70,
            "name": "A#4",
            "ticks": 267840,
            "time": 159.428412,
            "velocity": 0.8267716535433071
          },
          {
            "duration": 0.10714275000000839,
            "durationTicks": 180,
            "midi": 70,
            "name": "A#4",
            "ticks": 268080,
            "time": 159.571269,
            "velocity": 0.8267716535433071
          },
          {
            "duration": 0.10714274999997997,
            "durationTicks": 180,
            "midi": 70,
            "name": "A#4",
            "ticks": 268320,
            "time": 159.71412600000002,
            "velocity": 0.8267716535433071
          },
          {
            "duration": 0.10714275000000839,
            "durationTicks": 180,
            "midi": 70,
            "name": "A#4",
            "ticks": 268560,
            "time": 159.856983,
            "velocity": 0.8267716535433071
          },
          {
            "duration": 0.10714275000000839,
            "durationTicks": 180,
            "midi": 69,
            "name": "A4",
            "ticks": 268800,
            "time": 159.99984,
            "velocity": 0.8267716535433071
          },
          {
            "duration": 0.10714274999997997,
            "durationTicks": 180,
            "midi": 69,
            "name": "A4",
            "ticks": 269040,
            "time": 160.14269700000003,
            "velocity": 0.8267716535433071
          },
          {
            "duration": 0.10714275000000839,
            "durationTicks": 180,
            "midi": 69,
            "name": "A4",
            "ticks": 269280,
            "time": 160.28555400000002,
            "velocity": 0.8267716535433071
          },
          {
            "duration": 0.10714275000000839,
            "durationTicks": 180,
            "midi": 69,
            "name": "A4",
            "ticks": 269520,
            "time": 160.428411,
            "velocity": 0.8267716535433071
          },
          {
            "duration": 0.10714275000000839,
            "durationTicks": 180,
            "midi": 69,
            "name": "A4",
            "ticks": 269760,
            "time": 160.571268,
            "velocity": 0.8267716535433071
          },
          {
            "duration": 0.10714274999997997,
            "durationTicks": 180,
            "midi": 72,
            "name": "C5",
            "ticks": 270000,
            "time": 160.71412500000002,
            "velocity": 0.8267716535433071
          },
          {
            "duration": 0.10714275000000839,
            "durationTicks": 180,
            "midi": 69,
            "name": "A4",
            "ticks": 270240,
            "time": 160.85698200000002,
            "velocity": 0.8267716535433071
          },
          {
            "duration": 0.10714275000000839,
            "durationTicks": 180,
            "midi": 72,
            "name": "C5",
            "ticks": 270480,
            "time": 160.999839,
            "velocity": 0.8267716535433071
          },
          {
            "duration": 0.10714275000000839,
            "durationTicks": 180,
            "midi": 70,
            "name": "A#4",
            "ticks": 270720,
            "time": 161.142696,
            "velocity": 0.8267716535433071
          },
          {
            "duration": 0.10714274999997997,
            "durationTicks": 180,
            "midi": 70,
            "name": "A#4",
            "ticks": 270960,
            "time": 161.28555300000002,
            "velocity": 0.8267716535433071
          },
          {
            "duration": 0.10714275000000839,
            "durationTicks": 180,
            "midi": 70,
            "name": "A#4",
            "ticks": 271200,
            "time": 161.42841,
            "velocity": 0.8267716535433071
          },
          {
            "duration": 0.10714275000000839,
            "durationTicks": 180,
            "midi": 70,
            "name": "A#4",
            "ticks": 271440,
            "time": 161.571267,
            "velocity": 0.8267716535433071
          },
          {
            "duration": 0.10714274999997997,
            "durationTicks": 180,
            "midi": 67,
            "name": "G4",
            "ticks": 271680,
            "time": 161.71412400000003,
            "velocity": 0.8267716535433071
          },
          {
            "duration": 0.10714275000000839,
            "durationTicks": 180,
            "midi": 64,
            "name": "E4",
            "ticks": 271920,
            "time": 161.85698100000002,
            "velocity": 0.8267716535433071
          },
          {
            "duration": 0.10714275000000839,
            "durationTicks": 180,
            "midi": 67,
            "name": "G4",
            "ticks": 272160,
            "time": 161.999838,
            "velocity": 0.8267716535433071
          },
          {
            "duration": 0.10714275000000839,
            "durationTicks": 180,
            "midi": 64,
            "name": "E4",
            "ticks": 272400,
            "time": 162.142695,
            "velocity": 0.8267716535433071
          },
          {
            "duration": 0.22857119999997622,
            "durationTicks": 384,
            "midi": 65,
            "name": "F4",
            "ticks": 272640,
            "time": 162.28555200000002,
            "velocity": 0.8267716535433071
          },
          {
            "duration": 0.22857119999997622,
            "durationTicks": 384,
            "midi": 53,
            "name": "F3",
            "ticks": 273600,
            "time": 162.85698000000002,
            "velocity": 0.7244094488188977
          },
          {
            "duration": 0.8571420000000103,
            "durationTicks": 1440,
            "midi": 62,
            "name": "D4",
            "ticks": 276480,
            "time": 164.571264,
            "velocity": 0.4566929133858268
          },
          {
            "duration": 0.2857139999999845,
            "durationTicks": 480,
            "midi": 60,
            "name": "C4",
            "ticks": 277920,
            "time": 165.42840600000002,
            "velocity": 0.4566929133858268
          },
          {
            "duration": 0.22857120000000464,
            "durationTicks": 384,
            "midi": 57,
            "name": "A3",
            "ticks": 278400,
            "time": 165.71412,
            "velocity": 0.4566929133858268
          },
          {
            "duration": 0.18571409999998423,
            "durationTicks": 312,
            "midi": 62,
            "name": "D4",
            "ticks": 280800,
            "time": 167.14269000000002,
            "velocity": 0.4566929133858268
          },
          {
            "duration": 0.2857140000000129,
            "durationTicks": 480,
            "midi": 62,
            "name": "D4",
            "ticks": 281280,
            "time": 167.428404,
            "velocity": 0.4566929133858268
          },
          {
            "duration": 0.22857119999997622,
            "durationTicks": 384,
            "midi": 67,
            "name": "G4",
            "ticks": 281760,
            "time": 167.714118,
            "velocity": 0.4566929133858268
          },
          {
            "duration": 0.45714239999998085,
            "durationTicks": 768,
            "midi": 65,
            "name": "F4",
            "ticks": 282240,
            "time": 167.99983200000003,
            "velocity": 0.4566929133858268
          },
          {
            "duration": 0.8571419999999819,
            "durationTicks": 1440,
            "midi": 55,
            "name": "G3",
            "ticks": 284160,
            "time": 169.14268800000002,
            "velocity": 0.4566929133858268
          },
          {
            "duration": 0.2857140000000129,
            "durationTicks": 480,
            "midi": 57,
            "name": "A3",
            "ticks": 285600,
            "time": 169.99983,
            "velocity": 0.4566929133858268
          },
          {
            "duration": 0.2857139999999845,
            "durationTicks": 480,
            "midi": 59,
            "name": "B3",
            "ticks": 286080,
            "time": 170.28554400000002,
            "velocity": 0.4566929133858268
          },
          {
            "duration": 0.2857140000000129,
            "durationTicks": 480,
            "midi": 60,
            "name": "C4",
            "ticks": 286560,
            "time": 170.571258,
            "velocity": 0.4566929133858268
          },
          {
            "duration": 0.2857140000000129,
            "durationTicks": 480,
            "midi": 57,
            "name": "A3",
            "ticks": 287040,
            "time": 170.856972,
            "velocity": 0.4566929133858268
          },
          {
            "duration": 0.22857119999997622,
            "durationTicks": 384,
            "midi": 58,
            "name": "A#3",
            "ticks": 287520,
            "time": 171.14268600000003,
            "velocity": 0.4566929133858268
          },
          {
            "duration": 0.22857120000000464,
            "durationTicks": 384,
            "midi": 55,
            "name": "G3",
            "ticks": 288000,
            "time": 171.4284,
            "velocity": 0.4566929133858268
          },
          {
            "duration": 0.22857120000000464,
            "durationTicks": 384,
            "midi": 48,
            "name": "C3",
            "ticks": 288960,
            "time": 171.999828,
            "velocity": 0.4566929133858268
          },
          {
            "duration": 0.22857120000000464,
            "durationTicks": 384,
            "midi": 50,
            "name": "D3",
            "ticks": 289920,
            "time": 172.571256,
            "velocity": 0.4566929133858268
          },
          {
            "duration": 0.8571420000000103,
            "durationTicks": 1440,
            "midi": 55,
            "name": "G3",
            "ticks": 299520,
            "time": 178.285536,
            "velocity": 0.5511811023622047
          },
          {
            "duration": 0.2857139999999845,
            "durationTicks": 480,
            "midi": 57,
            "name": "A3",
            "ticks": 300960,
            "time": 179.14267800000002,
            "velocity": 0.5511811023622047
          },
          {
            "duration": 0.5714280000000258,
            "durationTicks": 960,
            "midi": 55,
            "name": "G3",
            "ticks": 301440,
            "time": 179.428392,
            "velocity": 0.5511811023622047
          },
          {
            "duration": 0.5714279999999974,
            "durationTicks": 960,
            "midi": 53,
            "name": "F3",
            "ticks": 302400,
            "time": 179.99982000000003,
            "velocity": 0.5511811023622047
          },
          {
            "duration": 0.14285699999999224,
            "durationTicks": 240,
            "midi": 58,
            "name": "A#3",
            "ticks": 303360,
            "time": 180.57124800000003,
            "velocity": 0.4566929133858268
          },
          {
            "duration": 0.14285699999999224,
            "durationTicks": 240,
            "midi": 55,
            "name": "G3",
            "ticks": 303600,
            "time": 180.71410500000002,
            "velocity": 0.4566929133858268
          },
          {
            "duration": 0.14285699999999224,
            "durationTicks": 240,
            "midi": 58,
            "name": "A#3",
            "ticks": 303840,
            "time": 180.856962,
            "velocity": 0.4566929133858268
          },
          {
            "duration": 0.14285700000002066,
            "durationTicks": 240,
            "midi": 55,
            "name": "G3",
            "ticks": 304080,
            "time": 180.999819,
            "velocity": 0.4566929133858268
          },
          {
            "duration": 0.14285699999999224,
            "durationTicks": 240,
            "midi": 58,
            "name": "A#3",
            "ticks": 304320,
            "time": 181.14267600000002,
            "velocity": 0.4566929133858268
          },
          {
            "duration": 0.14285699999999224,
            "durationTicks": 240,
            "midi": 55,
            "name": "G3",
            "ticks": 304560,
            "time": 181.28553300000002,
            "velocity": 0.4566929133858268
          },
          {
            "duration": 0.14285700000002066,
            "durationTicks": 240,
            "midi": 56,
            "name": "G#3",
            "ticks": 304800,
            "time": 181.42839,
            "velocity": 0.4566929133858268
          },
          {
            "duration": 0.11428559999998811,
            "durationTicks": 192,
            "midi": 60,
            "name": "C4",
            "ticks": 305040,
            "time": 181.57124700000003,
            "velocity": 0.4566929133858268
          },
          {
            "duration": 0.14285699999999224,
            "durationTicks": 240,
            "midi": 58,
            "name": "A#3",
            "ticks": 305280,
            "time": 181.71410400000002,
            "velocity": 0.4566929133858268
          },
          {
            "duration": 0.14285699999999224,
            "durationTicks": 240,
            "midi": 55,
            "name": "G3",
            "ticks": 305520,
            "time": 181.856961,
            "velocity": 0.4566929133858268
          },
          {
            "duration": 0.14285700000002066,
            "durationTicks": 240,
            "midi": 58,
            "name": "A#3",
            "ticks": 305760,
            "time": 181.999818,
            "velocity": 0.4566929133858268
          },
          {
            "duration": 0.14285699999999224,
            "durationTicks": 240,
            "midi": 55,
            "name": "G3",
            "ticks": 306000,
            "time": 182.14267500000003,
            "velocity": 0.4566929133858268
          },
          {
            "duration": 0.14285699999999224,
            "durationTicks": 240,
            "midi": 58,
            "name": "A#3",
            "ticks": 306240,
            "time": 182.28553200000002,
            "velocity": 0.4566929133858268
          },
          {
            "duration": 0.14285699999999224,
            "durationTicks": 240,
            "midi": 55,
            "name": "G3",
            "ticks": 306480,
            "time": 182.428389,
            "velocity": 0.4566929133858268
          },
          {
            "duration": 0.14285700000002066,
            "durationTicks": 240,
            "midi": 56,
            "name": "G#3",
            "ticks": 306720,
            "time": 182.571246,
            "velocity": 0.4566929133858268
          },
          {
            "duration": 0.11428559999998811,
            "durationTicks": 192,
            "midi": 60,
            "name": "C4",
            "ticks": 306960,
            "time": 182.71410300000002,
            "velocity": 0.4566929133858268
          },
          {
            "duration": 0.14285699999999224,
            "durationTicks": 240,
            "midi": 58,
            "name": "A#3",
            "ticks": 307200,
            "time": 182.85696000000002,
            "velocity": 0.4566929133858268
          },
          {
            "duration": 0.14285700000002066,
            "durationTicks": 240,
            "midi": 55,
            "name": "G3",
            "ticks": 307440,
            "time": 182.999817,
            "velocity": 0.4566929133858268
          },
          {
            "duration": 0.14285699999999224,
            "durationTicks": 240,
            "midi": 58,
            "name": "A#3",
            "ticks": 307680,
            "time": 183.14267400000003,
            "velocity": 0.4566929133858268
          },
          {
            "duration": 0.14285699999999224,
            "durationTicks": 240,
            "midi": 55,
            "name": "G3",
            "ticks": 307920,
            "time": 183.28553100000002,
            "velocity": 0.4566929133858268
          },
          {
            "duration": 0.14285699999999224,
            "durationTicks": 240,
            "midi": 58,
            "name": "A#3",
            "ticks": 308160,
            "time": 183.428388,
            "velocity": 0.4566929133858268
          },
          {
            "duration": 0.14285700000002066,
            "durationTicks": 240,
            "midi": 55,
            "name": "G3",
            "ticks": 308400,
            "time": 183.571245,
            "velocity": 0.4566929133858268
          },
          {
            "duration": 0.14285699999999224,
            "durationTicks": 240,
            "midi": 56,
            "name": "G#3",
            "ticks": 308640,
            "time": 183.71410200000003,
            "velocity": 0.4566929133858268
          },
          {
            "duration": 0.11428559999998811,
            "durationTicks": 192,
            "midi": 60,
            "name": "C4",
            "ticks": 308880,
            "time": 183.85695900000002,
            "velocity": 0.4566929133858268
          },
          {
            "duration": 0.14285699999999224,
            "durationTicks": 240,
            "midi": 58,
            "name": "A#3",
            "ticks": 309120,
            "time": 183.999816,
            "velocity": 0.4566929133858268
          },
          {
            "duration": 0.14285700000002066,
            "durationTicks": 240,
            "midi": 55,
            "name": "G3",
            "ticks": 309360,
            "time": 184.142673,
            "velocity": 0.4566929133858268
          },
          {
            "duration": 0.14285699999999224,
            "durationTicks": 240,
            "midi": 58,
            "name": "A#3",
            "ticks": 309600,
            "time": 184.28553000000002,
            "velocity": 0.4566929133858268
          },
          {
            "duration": 0.14285699999999224,
            "durationTicks": 240,
            "midi": 55,
            "name": "G3",
            "ticks": 309840,
            "time": 184.42838700000001,
            "velocity": 0.4566929133858268
          },
          {
            "duration": 0.14285700000002066,
            "durationTicks": 240,
            "midi": 58,
            "name": "A#3",
            "ticks": 310080,
            "time": 184.571244,
            "velocity": 0.4566929133858268
          },
          {
            "duration": 0.14285699999999224,
            "durationTicks": 240,
            "midi": 55,
            "name": "G3",
            "ticks": 310320,
            "time": 184.71410100000003,
            "velocity": 0.4566929133858268
          },
          {
            "duration": 0.14285699999999224,
            "durationTicks": 240,
            "midi": 56,
            "name": "G#3",
            "ticks": 310560,
            "time": 184.85695800000002,
            "velocity": 0.4566929133858268
          },
          {
            "duration": 0.11428559999998811,
            "durationTicks": 192,
            "midi": 60,
            "name": "C4",
            "ticks": 310800,
            "time": 184.999815,
            "velocity": 0.4566929133858268
          },
          {
            "duration": 0.1285713000000328,
            "durationTicks": 216,
            "midi": 55,
            "name": "G3",
            "ticks": 311040,
            "time": 185.142672,
            "velocity": 0.4566929133858268
          },
          {
            "duration": 0.12857130000000438,
            "durationTicks": 216,
            "midi": 55,
            "name": "G3",
            "ticks": 311280,
            "time": 185.28552900000003,
            "velocity": 0.5511811023622047
          },
          {
            "duration": 0.12857130000000438,
            "durationTicks": 216,
            "midi": 55,
            "name": "G3",
            "ticks": 311520,
            "time": 185.42838600000002,
            "velocity": 0.5669291338582677
          },
          {
            "duration": 0.12857130000000438,
            "durationTicks": 216,
            "midi": 55,
            "name": "G3",
            "ticks": 311760,
            "time": 185.571243,
            "velocity": 0.5905511811023622
          },
          {
            "duration": 0.1285713000000328,
            "durationTicks": 216,
            "midi": 55,
            "name": "G3",
            "ticks": 312000,
            "time": 185.7141,
            "velocity": 0.6141732283464567
          },
          {
            "duration": 0.12857130000000438,
            "durationTicks": 216,
            "midi": 55,
            "name": "G3",
            "ticks": 312240,
            "time": 185.85695700000002,
            "velocity": 0.6299212598425197
          },
          {
            "duration": 0.12857130000000438,
            "durationTicks": 216,
            "midi": 55,
            "name": "G3",
            "ticks": 312480,
            "time": 185.99981400000001,
            "velocity": 0.6535433070866141
          },
          {
            "duration": 0.1285713000000328,
            "durationTicks": 216,
            "midi": 55,
            "name": "G3",
            "ticks": 312720,
            "time": 186.142671,
            "velocity": 0.6771653543307087
          },
          {
            "duration": 0.12857130000000438,
            "durationTicks": 216,
            "midi": 55,
            "name": "G3",
            "ticks": 312960,
            "time": 186.28552800000003,
            "velocity": 0.6929133858267716
          },
          {
            "duration": 0.12857130000000438,
            "durationTicks": 216,
            "midi": 67,
            "name": "G4",
            "ticks": 313200,
            "time": 186.42838500000002,
            "velocity": 0.7165354330708661
          },
          {
            "duration": 0.12857130000000438,
            "durationTicks": 216,
            "midi": 67,
            "name": "G4",
            "ticks": 313440,
            "time": 186.571242,
            "velocity": 0.7401574803149606
          },
          {
            "duration": 0.1285713000000328,
            "durationTicks": 216,
            "midi": 67,
            "name": "G4",
            "ticks": 313680,
            "time": 186.714099,
            "velocity": 0.7559055118110236
          },
          {
            "duration": 0.12857130000000438,
            "durationTicks": 216,
            "midi": 67,
            "name": "G4",
            "ticks": 313920,
            "time": 186.85695600000003,
            "velocity": 0.7795275590551181
          },
          {
            "duration": 0.12857130000000438,
            "durationTicks": 216,
            "midi": 67,
            "name": "G4",
            "ticks": 314160,
            "time": 186.99981300000002,
            "velocity": 0.8031496062992126
          },
          {
            "duration": 0.1285713000000328,
            "durationTicks": 216,
            "midi": 67,
            "name": "G4",
            "ticks": 314400,
            "time": 187.14267,
            "velocity": 0.8267716535433071
          },
          {
            "duration": 0.1285713000000328,
            "durationTicks": 216,
            "midi": 67,
            "name": "G4",
            "ticks": 314640,
            "time": 187.285527,
            "velocity": 0.84251968503937
          },
          {
            "duration": 0.11428559999998811,
            "durationTicks": 192,
            "midi": 65,
            "name": "F4",
            "ticks": 314880,
            "time": 187.42838400000002,
            "velocity": 0.8267716535433071
          },
          {
            "duration": 0.11428559999998811,
            "durationTicks": 192,
            "midi": 65,
            "name": "F4",
            "ticks": 315120,
            "time": 187.57124100000001,
            "velocity": 0.8267716535433071
          },
          {
            "duration": 0.11428559999998811,
            "durationTicks": 192,
            "midi": 65,
            "name": "F4",
            "ticks": 315360,
            "time": 187.714098,
            "velocity": 0.8267716535433071
          },
          {
            "duration": 0.11428559999998811,
            "durationTicks": 192,
            "midi": 65,
            "name": "F4",
            "ticks": 315600,
            "time": 187.85695500000003,
            "velocity": 0.8267716535433071
          },
          {
            "duration": 0.11428559999998811,
            "durationTicks": 192,
            "midi": 65,
            "name": "F4",
            "ticks": 315840,
            "time": 187.99981200000002,
            "velocity": 0.8267716535433071
          },
          {
            "duration": 0.11428559999998811,
            "durationTicks": 192,
            "midi": 65,
            "name": "F4",
            "ticks": 316080,
            "time": 188.142669,
            "velocity": 0.8267716535433071
          },
          {
            "duration": 0.11428560000001653,
            "durationTicks": 192,
            "midi": 65,
            "name": "F4",
            "ticks": 316320,
            "time": 188.285526,
            "velocity": 0.8267716535433071
          },
          {
            "duration": 0.11428559999998811,
            "durationTicks": 192,
            "midi": 65,
            "name": "F4",
            "ticks": 316560,
            "time": 188.42838300000003,
            "velocity": 0.8267716535433071
          },
          {
            "duration": 0.11428559999998811,
            "durationTicks": 192,
            "midi": 53,
            "name": "F3",
            "ticks": 316800,
            "time": 188.57124000000002,
            "velocity": 0.8267716535433071
          },
          {
            "duration": 0.11428559999998811,
            "durationTicks": 192,
            "midi": 53,
            "name": "F3",
            "ticks": 317040,
            "time": 188.714097,
            "velocity": 0.8267716535433071
          },
          {
            "duration": 0.11428560000001653,
            "durationTicks": 192,
            "midi": 53,
            "name": "F3",
            "ticks": 317280,
            "time": 188.856954,
            "velocity": 0.8267716535433071
          },
          {
            "duration": 0.11428559999998811,
            "durationTicks": 192,
            "midi": 53,
            "name": "F3",
            "ticks": 317520,
            "time": 188.99981100000002,
            "velocity": 0.8267716535433071
          },
          {
            "duration": 0.11428559999998811,
            "durationTicks": 192,
            "midi": 53,
            "name": "F3",
            "ticks": 317760,
            "time": 189.14266800000001,
            "velocity": 0.8267716535433071
          },
          {
            "duration": 0.11428559999998811,
            "durationTicks": 192,
            "midi": 53,
            "name": "F3",
            "ticks": 318000,
            "time": 189.285525,
            "velocity": 0.8267716535433071
          },
          {
            "duration": 0.11428559999998811,
            "durationTicks": 192,
            "midi": 53,
            "name": "F3",
            "ticks": 318240,
            "time": 189.42838200000003,
            "velocity": 0.8267716535433071
          },
          {
            "duration": 0.11428559999998811,
            "durationTicks": 192,
            "midi": 53,
            "name": "F3",
            "ticks": 318480,
            "time": 189.57123900000002,
            "velocity": 0.8267716535433071
          },
          {
            "duration": 0.22857120000000464,
            "durationTicks": 384,
            "midi": 58,
            "name": "A#3",
            "ticks": 318720,
            "time": 189.714096,
            "velocity": 0.7244094488188977
          },
          {
            "duration": 0.4571424000000093,
            "durationTicks": 768,
            "midi": 50,
            "name": "D3",
            "ticks": 319200,
            "time": 189.99981000000002,
            "velocity": 0.984251968503937
          },
          {
            "duration": 0.17142839999999637,
            "durationTicks": 288,
            "midi": 51,
            "name": "D#3",
            "ticks": 320160,
            "time": 190.57123800000002,
            "velocity": 0.8267716535433071
          },
          {
            "duration": 0.1714284000000248,
            "durationTicks": 288,
            "midi": 52,
            "name": "E3",
            "ticks": 320640,
            "time": 190.856952,
            "velocity": 0.8267716535433071
          },
          {
            "duration": 0.17142839999999637,
            "durationTicks": 288,
            "midi": 53,
            "name": "F3",
            "ticks": 321120,
            "time": 191.14266600000002,
            "velocity": 0.8267716535433071
          },
          {
            "duration": 0.1714284000000248,
            "durationTicks": 288,
            "midi": 54,
            "name": "F#3",
            "ticks": 321600,
            "time": 191.42838,
            "velocity": 0.8267716535433071
          },
          {
            "duration": 0.17142839999999637,
            "durationTicks": 288,
            "midi": 55,
            "name": "G3",
            "ticks": 322080,
            "time": 191.71409400000002,
            "velocity": 0.8267716535433071
          },
          {
            "duration": 0.22857119999997622,
            "durationTicks": 384,
            "midi": 56,
            "name": "G#3",
            "ticks": 322560,
            "time": 191.99980800000003,
            "velocity": 0.8267716535433071
          },
          {
            "duration": 0.057142800000036686,
            "durationTicks": 96,
            "midi": 56,
            "name": "G#3",
            "ticks": 323400,
            "time": 192.4998075,
            "velocity": 0.8267716535433071
          },
          {
            "duration": 0.22857119999997622,
            "durationTicks": 384,
            "midi": 55,
            "name": "G3",
            "ticks": 323520,
            "time": 192.57123600000003,
            "velocity": 0.8267716535433071
          },
          {
            "duration": 0.057142800000008265,
            "durationTicks": 96,
            "midi": 55,
            "name": "G3",
            "ticks": 324360,
            "time": 193.07123550000003,
            "velocity": 0.8267716535433071
          },
          {
            "duration": 0.22857119999997622,
            "durationTicks": 384,
            "midi": 63,
            "name": "D#4",
            "ticks": 324480,
            "time": 193.14266400000002,
            "velocity": 0.8267716535433071
          },
          {
            "duration": 0.057142800000008265,
            "durationTicks": 96,
            "midi": 63,
            "name": "D#4",
            "ticks": 325320,
            "time": 193.64266350000003,
            "velocity": 0.8267716535433071
          },
          {
            "duration": 0.22857119999997622,
            "durationTicks": 384,
            "midi": 62,
            "name": "D4",
            "ticks": 325440,
            "time": 193.71409200000002,
            "velocity": 0.8267716535433071
          },
          {
            "duration": 0.057142800000008265,
            "durationTicks": 96,
            "midi": 62,
            "name": "D4",
            "ticks": 326280,
            "time": 194.21409150000002,
            "velocity": 0.8267716535433071
          },
          {
            "duration": 0.22857119999997622,
            "durationTicks": 384,
            "midi": 51,
            "name": "D#3",
            "ticks": 326400,
            "time": 194.28552000000002,
            "velocity": 0.8267716535433071
          },
          {
            "duration": 0.22857119999997622,
            "durationTicks": 384,
            "midi": 53,
            "name": "F3",
            "ticks": 328320,
            "time": 195.42837600000001,
            "velocity": 0.5511811023622047
          },
          {
            "duration": 1.1428559999999948,
            "durationTicks": 1920,
            "midi": 51,
            "name": "D#3",
            "ticks": 333120,
            "time": 198.28551600000003,
            "velocity": 0.4566929133858268
          },
          {
            "duration": 0.22857119999997622,
            "durationTicks": 384,
            "midi": 50,
            "name": "D3",
            "ticks": 335040,
            "time": 199.42837200000002,
            "velocity": 0.4566929133858268
          },
          {
            "duration": 1.1428559999999948,
            "durationTicks": 1920,
            "midi": 51,
            "name": "D#3",
            "ticks": 336960,
            "time": 200.57122800000002,
            "velocity": 0.4566929133858268
          },
          {
            "duration": 0.22857119999997622,
            "durationTicks": 384,
            "midi": 50,
            "name": "D3",
            "ticks": 338880,
            "time": 201.714084,
            "velocity": 0.4566929133858268
          },
          {
            "duration": 0.11428559999998811,
            "durationTicks": 192,
            "midi": 62,
            "name": "D4",
            "ticks": 339840,
            "time": 202.285512,
            "velocity": 0.8267716535433071
          },
          {
            "duration": 0.11428560000001653,
            "durationTicks": 192,
            "midi": 62,
            "name": "D4",
            "ticks": 340080,
            "time": 202.428369,
            "velocity": 0.8267716535433071
          },
          {
            "duration": 0.11428559999998811,
            "durationTicks": 192,
            "midi": 62,
            "name": "D4",
            "ticks": 340320,
            "time": 202.57122600000002,
            "velocity": 0.8267716535433071
          },
          {
            "duration": 0.11428559999998811,
            "durationTicks": 192,
            "midi": 62,
            "name": "D4",
            "ticks": 340560,
            "time": 202.71408300000002,
            "velocity": 0.8267716535433071
          },
          {
            "duration": 0.11428559999998811,
            "durationTicks": 192,
            "midi": 62,
            "name": "D4",
            "ticks": 340800,
            "time": 202.85694,
            "velocity": 0.8267716535433071
          },
          {
            "duration": 0.11428559999998811,
            "durationTicks": 192,
            "midi": 62,
            "name": "D4",
            "ticks": 341040,
            "time": 202.99979700000003,
            "velocity": 0.8267716535433071
          },
          {
            "duration": 0.11428559999998811,
            "durationTicks": 192,
            "midi": 62,
            "name": "D4",
            "ticks": 341280,
            "time": 203.14265400000002,
            "velocity": 0.8267716535433071
          },
          {
            "duration": 0.11428559999998811,
            "durationTicks": 192,
            "midi": 62,
            "name": "D4",
            "ticks": 341520,
            "time": 203.285511,
            "velocity": 0.8267716535433071
          },
          {
            "duration": 0.11428560000001653,
            "durationTicks": 192,
            "midi": 67,
            "name": "G4",
            "ticks": 341760,
            "time": 203.428368,
            "velocity": 0.8267716535433071
          },
          {
            "duration": 0.11428559999998811,
            "durationTicks": 192,
            "midi": 67,
            "name": "G4",
            "ticks": 342000,
            "time": 203.57122500000003,
            "velocity": 0.8267716535433071
          },
          {
            "duration": 0.11428559999998811,
            "durationTicks": 192,
            "midi": 67,
            "name": "G4",
            "ticks": 342240,
            "time": 203.71408200000002,
            "velocity": 0.8267716535433071
          },
          {
            "duration": 0.11428559999998811,
            "durationTicks": 192,
            "midi": 67,
            "name": "G4",
            "ticks": 342480,
            "time": 203.856939,
            "velocity": 0.8267716535433071
          },
          {
            "duration": 0.11428560000001653,
            "durationTicks": 192,
            "midi": 63,
            "name": "D#4",
            "ticks": 342720,
            "time": 203.999796,
            "velocity": 0.8267716535433071
          },
          {
            "duration": 0.11428559999998811,
            "durationTicks": 192,
            "midi": 63,
            "name": "D#4",
            "ticks": 342960,
            "time": 204.14265300000002,
            "velocity": 0.8267716535433071
          },
          {
            "duration": 0.11428559999998811,
            "durationTicks": 192,
            "midi": 63,
            "name": "D#4",
            "ticks": 343200,
            "time": 204.28551000000002,
            "velocity": 0.8267716535433071
          },
          {
            "duration": 0.11428559999998811,
            "durationTicks": 192,
            "midi": 63,
            "name": "D#4",
            "ticks": 343440,
            "time": 204.428367,
            "velocity": 0.8267716535433071
          },
          {
            "duration": 0.11428559999998811,
            "durationTicks": 192,
            "midi": 65,
            "name": "F4",
            "ticks": 343680,
            "time": 204.57122400000003,
            "velocity": 0.8267716535433071
          },
          {
            "duration": 0.11428559999998811,
            "durationTicks": 192,
            "midi": 65,
            "name": "F4",
            "ticks": 343920,
            "time": 204.71408100000002,
            "velocity": 0.8267716535433071
          },
          {
            "duration": 0.11428559999998811,
            "durationTicks": 192,
            "midi": 65,
            "name": "F4",
            "ticks": 344160,
            "time": 204.856938,
            "velocity": 0.8267716535433071
          },
          {
            "duration": 0.11428560000001653,
            "durationTicks": 192,
            "midi": 65,
            "name": "F4",
            "ticks": 344400,
            "time": 204.999795,
            "velocity": 0.8267716535433071
          },
          {
            "duration": 0.11428559999998811,
            "durationTicks": 192,
            "midi": 53,
            "name": "F3",
            "ticks": 344640,
            "time": 205.14265200000003,
            "velocity": 0.8267716535433071
          },
          {
            "duration": 0.11428559999998811,
            "durationTicks": 192,
            "midi": 53,
            "name": "F3",
            "ticks": 344880,
            "time": 205.28550900000002,
            "velocity": 0.8267716535433071
          },
          {
            "duration": 0.11428559999998811,
            "durationTicks": 192,
            "midi": 53,
            "name": "F3",
            "ticks": 345120,
            "time": 205.428366,
            "velocity": 0.8267716535433071
          },
          {
            "duration": 0.11428560000001653,
            "durationTicks": 192,
            "midi": 53,
            "name": "F3",
            "ticks": 345360,
            "time": 205.571223,
            "velocity": 0.8267716535433071
          },
          {
            "duration": 0.22857119999997622,
            "durationTicks": 384,
            "midi": 58,
            "name": "A#3",
            "ticks": 345600,
            "time": 205.71408000000002,
            "velocity": 0.7244094488188977
          },
          {
            "duration": 1.1428559999999948,
            "durationTicks": 1920,
            "midi": 70,
            "name": "A#4",
            "ticks": 346560,
            "time": 206.28550800000002,
            "velocity": 0.4566929133858268
          },
          {
            "duration": 0.22857119999997622,
            "durationTicks": 384,
            "midi": 69,
            "name": "A4",
            "ticks": 348480,
            "time": 207.42836400000002,
            "velocity": 0.4566929133858268
          },
          {
            "duration": 1.1428559999999948,
            "durationTicks": 1920,
            "midi": 58,
            "name": "A#3",
            "ticks": 350400,
            "time": 208.57122,
            "velocity": 0.4566929133858268
          },
          {
            "duration": 0.22857120000000464,
            "durationTicks": 384,
            "midi": 57,
            "name": "A3",
            "ticks": 352320,
            "time": 209.714076,
            "velocity": 0.4566929133858268
          },
          {
            "duration": 0.11428559999998811,
            "durationTicks": 192,
            "midi": 62,
            "name": "D4",
            "ticks": 355200,
            "time": 211.42836000000003,
            "velocity": 0.8267716535433071
          },
          {
            "duration": 0.11428559999998811,
            "durationTicks": 192,
            "midi": 62,
            "name": "D4",
            "ticks": 355440,
            "time": 211.57121700000002,
            "velocity": 0.8267716535433071
          },
          {
            "duration": 0.11428559999998811,
            "durationTicks": 192,
            "midi": 62,
            "name": "D4",
            "ticks": 355680,
            "time": 211.714074,
            "velocity": 0.8267716535433071
          },
          {
            "duration": 0.11428559999998811,
            "durationTicks": 192,
            "midi": 62,
            "name": "D4",
            "ticks": 355920,
            "time": 211.85693100000003,
            "velocity": 0.8267716535433071
          },
          {
            "duration": 0.11428559999998811,
            "durationTicks": 192,
            "midi": 62,
            "name": "D4",
            "ticks": 356160,
            "time": 211.99978800000002,
            "velocity": 0.8267716535433071
          },
          {
            "duration": 0.11428559999998811,
            "durationTicks": 192,
            "midi": 62,
            "name": "D4",
            "ticks": 356400,
            "time": 212.14264500000002,
            "velocity": 0.8267716535433071
          },
          {
            "duration": 0.11428560000001653,
            "durationTicks": 192,
            "midi": 62,
            "name": "D4",
            "ticks": 356640,
            "time": 212.285502,
            "velocity": 0.8267716535433071
          },
          {
            "duration": 0.11428559999998811,
            "durationTicks": 192,
            "midi": 62,
            "name": "D4",
            "ticks": 356880,
            "time": 212.42835900000003,
            "velocity": 0.8267716535433071
          },
          {
            "duration": 0.11428559999998811,
            "durationTicks": 192,
            "midi": 67,
            "name": "G4",
            "ticks": 357120,
            "time": 212.57121600000002,
            "velocity": 0.8267716535433071
          },
          {
            "duration": 0.11428559999998811,
            "durationTicks": 192,
            "midi": 67,
            "name": "G4",
            "ticks": 357360,
            "time": 212.714073,
            "velocity": 0.8267716535433071
          },
          {
            "duration": 0.11428560000001653,
            "durationTicks": 192,
            "midi": 67,
            "name": "G4",
            "ticks": 357600,
            "time": 212.85693,
            "velocity": 0.8267716535433071
          },
          {
            "duration": 0.11428559999998811,
            "durationTicks": 192,
            "midi": 67,
            "name": "G4",
            "ticks": 357840,
            "time": 212.99978700000003,
            "velocity": 0.8267716535433071
          },
          {
            "duration": 0.11428559999998811,
            "durationTicks": 192,
            "midi": 63,
            "name": "D#4",
            "ticks": 358080,
            "time": 213.14264400000002,
            "velocity": 0.8267716535433071
          },
          {
            "duration": 0.11428559999998811,
            "durationTicks": 192,
            "midi": 63,
            "name": "D#4",
            "ticks": 358320,
            "time": 213.285501,
            "velocity": 0.8267716535433071
          },
          {
            "duration": 0.11428559999998811,
            "durationTicks": 192,
            "midi": 63,
            "name": "D#4",
            "ticks": 358560,
            "time": 213.42835800000003,
            "velocity": 0.8267716535433071
          },
          {
            "duration": 0.11428559999998811,
            "durationTicks": 192,
            "midi": 63,
            "name": "D#4",
            "ticks": 358800,
            "time": 213.57121500000002,
            "velocity": 0.8267716535433071
          },
          {
            "duration": 0.11428559999998811,
            "durationTicks": 192,
            "midi": 65,
            "name": "F4",
            "ticks": 359040,
            "time": 213.71407200000002,
            "velocity": 0.8267716535433071
          },
          {
            "duration": 0.11428560000001653,
            "durationTicks": 192,
            "midi": 65,
            "name": "F4",
            "ticks": 359280,
            "time": 213.856929,
            "velocity": 0.8267716535433071
          },
          {
            "duration": 0.11428559999998811,
            "durationTicks": 192,
            "midi": 65,
            "name": "F4",
            "ticks": 359520,
            "time": 213.99978600000003,
            "velocity": 0.8267716535433071
          },
          {
            "duration": 0.11428559999998811,
            "durationTicks": 192,
            "midi": 65,
            "name": "F4",
            "ticks": 359760,
            "time": 214.14264300000002,
            "velocity": 0.8267716535433071
          },
          {
            "duration": 0.11428559999998811,
            "durationTicks": 192,
            "midi": 53,
            "name": "F3",
            "ticks": 360000,
            "time": 214.2855,
            "velocity": 0.8267716535433071
          },
          {
            "duration": 0.11428560000001653,
            "durationTicks": 192,
            "midi": 53,
            "name": "F3",
            "ticks": 360240,
            "time": 214.428357,
            "velocity": 0.8267716535433071
          },
          {
            "duration": 0.11428559999998811,
            "durationTicks": 192,
            "midi": 53,
            "name": "F3",
            "ticks": 360480,
            "time": 214.57121400000003,
            "velocity": 0.8267716535433071
          },
          {
            "duration": 0.11428559999998811,
            "durationTicks": 192,
            "midi": 53,
            "name": "F3",
            "ticks": 360720,
            "time": 214.71407100000002,
            "velocity": 0.8267716535433071
          },
          {
            "duration": 0.4571424000000093,
            "durationTicks": 768,
            "midi": 58,
            "name": "A#3",
            "ticks": 360960,
            "time": 214.856928,
            "velocity": 0.8267716535433071
          },
          {
            "duration": 0.11428559999998811,
            "durationTicks": 192,
            "midi": 77,
            "name": "F5",
            "ticks": 362640,
            "time": 215.856927,
            "velocity": 0.8267716535433071
          },
          {
            "duration": 0.11428560000001653,
            "durationTicks": 192,
            "midi": 75,
            "name": "D#5",
            "ticks": 362880,
            "time": 215.999784,
            "velocity": 0.8267716535433071
          },
          {
            "duration": 0.11428559999998811,
            "durationTicks": 192,
            "midi": 74,
            "name": "D5",
            "ticks": 363120,
            "time": 216.14264100000003,
            "velocity": 0.8267716535433071
          },
          {
            "duration": 0.11428559999998811,
            "durationTicks": 192,
            "midi": 72,
            "name": "C5",
            "ticks": 363360,
            "time": 216.28549800000002,
            "velocity": 0.8267716535433071
          },
          {
            "duration": 0.11428559999998811,
            "durationTicks": 192,
            "midi": 70,
            "name": "A#4",
            "ticks": 363600,
            "time": 216.428355,
            "velocity": 0.8267716535433071
          },
          {
            "duration": 0.11428559999998811,
            "durationTicks": 192,
            "midi": 69,
            "name": "A4",
            "ticks": 363840,
            "time": 216.57121200000003,
            "velocity": 0.8267716535433071
          },
          {
            "duration": 0.11428559999998811,
            "durationTicks": 192,
            "midi": 67,
            "name": "G4",
            "ticks": 364080,
            "time": 216.71406900000002,
            "velocity": 0.8267716535433071
          },
          {
            "duration": 0.11428559999998811,
            "durationTicks": 192,
            "midi": 65,
            "name": "F4",
            "ticks": 364320,
            "time": 216.85692600000002,
            "velocity": 0.8267716535433071
          },
          {
            "duration": 0.11428560000001653,
            "durationTicks": 192,
            "midi": 63,
            "name": "D#4",
            "ticks": 364560,
            "time": 216.999783,
            "velocity": 0.8267716535433071
          },
          {
            "duration": 0.1999998000000005,
            "durationTicks": 336,
            "midi": 62,
            "name": "D4",
            "ticks": 364800,
            "time": 217.14264000000003,
            "velocity": 0.8267716535433071
          },
          {
            "duration": 0.19999980000002893,
            "durationTicks": 336,
            "midi": 62,
            "name": "D4",
            "ticks": 365280,
            "time": 217.428354,
            "velocity": 0.8267716535433071
          },
          {
            "duration": 0.1999998000000005,
            "durationTicks": 336,
            "midi": 63,
            "name": "D#4",
            "ticks": 365760,
            "time": 217.71406800000003,
            "velocity": 0.8267716535433071
          },
          {
            "duration": 0.19999980000002893,
            "durationTicks": 336,
            "midi": 65,
            "name": "F4",
            "ticks": 366240,
            "time": 217.999782,
            "velocity": 0.8267716535433071
          },
          {
            "duration": 0.11428559999998811,
            "durationTicks": 192,
            "midi": 70,
            "name": "A#4",
            "ticks": 366720,
            "time": 218.28549600000002,
            "velocity": 0.8267716535433071
          },
          {
            "duration": 0.11428559999998811,
            "durationTicks": 192,
            "midi": 65,
            "name": "F4",
            "ticks": 366960,
            "time": 218.42835300000002,
            "velocity": 0.8267716535433071
          },
          {
            "duration": 0.11428560000001653,
            "durationTicks": 192,
            "midi": 74,
            "name": "D5",
            "ticks": 367200,
            "time": 218.57121,
            "velocity": 0.8267716535433071
          },
          {
            "duration": 0.11428559999998811,
            "durationTicks": 192,
            "midi": 72,
            "name": "C5",
            "ticks": 367440,
            "time": 218.71406700000003,
            "velocity": 0.8267716535433071
          },
          {
            "duration": 0.11428559999998811,
            "durationTicks": 192,
            "midi": 70,
            "name": "A#4",
            "ticks": 367680,
            "time": 218.85692400000002,
            "velocity": 0.8267716535433071
          },
          {
            "duration": 0.11428559999998811,
            "durationTicks": 192,
            "midi": 69,
            "name": "A4",
            "ticks": 367920,
            "time": 218.999781,
            "velocity": 0.8267716535433071
          },
          {
            "duration": 0.11428560000001653,
            "durationTicks": 192,
            "midi": 67,
            "name": "G4",
            "ticks": 368160,
            "time": 219.142638,
            "velocity": 0.8267716535433071
          },
          {
            "duration": 0.11428559999998811,
            "durationTicks": 192,
            "midi": 65,
            "name": "F4",
            "ticks": 368400,
            "time": 219.28549500000003,
            "velocity": 0.8267716535433071
          },
          {
            "duration": 0.11428559999998811,
            "durationTicks": 192,
            "midi": 63,
            "name": "D#4",
            "ticks": 368640,
            "time": 219.42835200000002,
            "velocity": 0.8267716535433071
          },
          {
            "duration": 0.11428559999998811,
            "durationTicks": 192,
            "midi": 62,
            "name": "D4",
            "ticks": 368880,
            "time": 219.571209,
            "velocity": 0.8267716535433071
          },
          {
            "duration": 0.11428559999998811,
            "durationTicks": 192,
            "midi": 60,
            "name": "C4",
            "ticks": 369120,
            "time": 219.71406600000003,
            "velocity": 0.8267716535433071
          },
          {
            "duration": 0.11428559999998811,
            "durationTicks": 192,
            "midi": 58,
            "name": "A#3",
            "ticks": 369360,
            "time": 219.85692300000002,
            "velocity": 0.8267716535433071
          },
          {
            "duration": 0.11428559999998811,
            "durationTicks": 192,
            "midi": 57,
            "name": "A3",
            "ticks": 369600,
            "time": 219.99978000000002,
            "velocity": 0.8267716535433071
          },
          {
            "duration": 0.11428560000001653,
            "durationTicks": 192,
            "midi": 60,
            "name": "C4",
            "ticks": 369840,
            "time": 220.142637,
            "velocity": 0.8267716535433071
          },
          {
            "duration": 0.11428559999998811,
            "durationTicks": 192,
            "midi": 65,
            "name": "F4",
            "ticks": 370080,
            "time": 220.28549400000003,
            "velocity": 0.8267716535433071
          },
          {
            "duration": 0.11428559999998811,
            "durationTicks": 192,
            "midi": 63,
            "name": "D#4",
            "ticks": 370320,
            "time": 220.42835100000002,
            "velocity": 0.8267716535433071
          },
          {
            "duration": 0.19999980000002893,
            "durationTicks": 336,
            "midi": 62,
            "name": "D4",
            "ticks": 370560,
            "time": 220.571208,
            "velocity": 0.8267716535433071
          },
          {
            "duration": 0.1999998000000005,
            "durationTicks": 336,
            "midi": 62,
            "name": "D4",
            "ticks": 371040,
            "time": 220.85692200000003,
            "velocity": 0.8267716535433071
          },
          {
            "duration": 0.19999980000002893,
            "durationTicks": 336,
            "midi": 63,
            "name": "D#4",
            "ticks": 371520,
            "time": 221.142636,
            "velocity": 0.8267716535433071
          },
          {
            "duration": 0.1999998000000005,
            "durationTicks": 336,
            "midi": 65,
            "name": "F4",
            "ticks": 372000,
            "time": 221.42835000000002,
            "velocity": 0.8267716535433071
          },
          {
            "duration": 0.19999980000002893,
            "durationTicks": 336,
            "midi": 67,
            "name": "G4",
            "ticks": 372480,
            "time": 221.714064,
            "velocity": 0.8267716535433071
          },
          {
            "duration": 0.1999998000000005,
            "durationTicks": 336,
            "midi": 63,
            "name": "D#4",
            "ticks": 372960,
            "time": 221.99977800000002,
            "velocity": 0.8267716535433071
          },
          {
            "duration": 0.19999980000002893,
            "durationTicks": 336,
            "midi": 65,
            "name": "F4",
            "ticks": 373440,
            "time": 222.285492,
            "velocity": 0.8267716535433071
          },
          {
            "duration": 0.1999998000000005,
            "durationTicks": 336,
            "midi": 53,
            "name": "F3",
            "ticks": 373920,
            "time": 222.57120600000002,
            "velocity": 0.8267716535433071
          },
          {
            "duration": 0.22857119999997622,
            "durationTicks": 384,
            "midi": 58,
            "name": "A#3",
            "ticks": 374400,
            "time": 222.85692000000003,
            "velocity": 0.8267716535433071
          },
          {
            "duration": 0.22857119999997622,
            "durationTicks": 384,
            "midi": 65,
            "name": "F4",
            "ticks": 375360,
            "time": 223.42834800000003,
            "velocity": 0.8267716535433071
          },
          {
            "duration": 0.22857119999997622,
            "durationTicks": 384,
            "midi": 70,
            "name": "A#4",
            "ticks": 376320,
            "time": 223.99977600000003,
            "velocity": 0.8267716535433071
          },
          {
            "duration": 0.22857119999997622,
            "durationTicks": 384,
            "midi": 65,
            "name": "F4",
            "ticks": 377280,
            "time": 224.57120400000002,
            "velocity": 0.8267716535433071
          },
          {
            "duration": 0.22857119999997622,
            "durationTicks": 384,
            "midi": 70,
            "name": "A#4",
            "ticks": 378240,
            "time": 225.14263200000002,
            "velocity": 0.8267716535433071
          },
          {
            "duration": 0.22857119999997622,
            "durationTicks": 384,
            "midi": 65,
            "name": "F4",
            "ticks": 379200,
            "time": 225.71406000000002,
            "velocity": 0.8267716535433071
          },
          {
            "duration": 0.21428550000001678,
            "durationTicks": 360,
            "midi": 70,
            "name": "A#4",
            "ticks": 380160,
            "time": 226.28548800000002,
            "velocity": 0.8267716535433071
          },
          {
            "duration": 0.21428549999998836,
            "durationTicks": 360,
            "midi": 65,
            "name": "F4",
            "ticks": 380640,
            "time": 226.57120200000003,
            "velocity": 0.8267716535433071
          },
          {
            "duration": 0.21428550000001678,
            "durationTicks": 360,
            "midi": 70,
            "name": "A#4",
            "ticks": 381120,
            "time": 226.856916,
            "velocity": 0.8267716535433071
          },
          {
            "duration": 0.21428549999998836,
            "durationTicks": 360,
            "midi": 65,
            "name": "F4",
            "ticks": 381600,
            "time": 227.14263000000003,
            "velocity": 0.8267716535433071
          },
          {
            "duration": 0.22857120000000464,
            "durationTicks": 384,
            "midi": 70,
            "name": "A#4",
            "ticks": 382080,
            "time": 227.428344,
            "velocity": 0.8267716535433071
          },
          {
            "duration": 0.22857119999997622,
            "durationTicks": 384,
            "midi": 69,
            "name": "A4",
            "ticks": 384000,
            "time": 228.57120000000003,
            "velocity": 0.8267716535433071
          },
          {
            "duration": 0.22857119999997622,
            "durationTicks": 384,
            "midi": 67,
            "name": "G4",
            "ticks": 385920,
            "time": 229.71405600000003,
            "velocity": 0.8267716535433071
          },
          {
            "duration": 0.22857119999997622,
            "durationTicks": 384,
            "midi": 65,
            "name": "F4",
            "ticks": 386880,
            "time": 230.28548400000003,
            "velocity": 0.8267716535433071
          },
          {
            "duration": 0.11428560000001653,
            "durationTicks": 192,
            "midi": 54,
            "name": "F#3",
            "ticks": 393600,
            "time": 234.28548,
            "velocity": 0.4566929133858268
          },
          {
            "duration": 0.11428560000001653,
            "durationTicks": 192,
            "midi": 57,
            "name": "A3",
            "ticks": 393600,
            "time": 234.28548,
            "velocity": 0.4566929133858268
          },
          {
            "duration": 0.11428559999998811,
            "durationTicks": 192,
            "midi": 54,
            "name": "F#3",
            "ticks": 393840,
            "time": 234.42833700000003,
            "velocity": 0.4566929133858268
          },
          {
            "duration": 0.11428559999998811,
            "durationTicks": 192,
            "midi": 57,
            "name": "A3",
            "ticks": 393840,
            "time": 234.42833700000003,
            "velocity": 0.4566929133858268
          },
          {
            "duration": 0.11428559999998811,
            "durationTicks": 192,
            "midi": 61,
            "name": "C#4",
            "ticks": 394080,
            "time": 234.57119400000002,
            "velocity": 0.4566929133858268
          },
          {
            "duration": 0.11428559999998811,
            "durationTicks": 192,
            "midi": 66,
            "name": "F#4",
            "ticks": 394080,
            "time": 234.57119400000002,
            "velocity": 0.4566929133858268
          },
          {
            "duration": 0.11428559999998811,
            "durationTicks": 192,
            "midi": 61,
            "name": "C#4",
            "ticks": 394320,
            "time": 234.714051,
            "velocity": 0.4566929133858268
          },
          {
            "duration": 0.11428559999998811,
            "durationTicks": 192,
            "midi": 66,
            "name": "F#4",
            "ticks": 394320,
            "time": 234.714051,
            "velocity": 0.4566929133858268
          },
          {
            "duration": 0.11428559999998811,
            "durationTicks": 192,
            "midi": 54,
            "name": "F#3",
            "ticks": 394560,
            "time": 234.85690800000003,
            "velocity": 0.4566929133858268
          },
          {
            "duration": 0.11428559999998811,
            "durationTicks": 192,
            "midi": 57,
            "name": "A3",
            "ticks": 394560,
            "time": 234.85690800000003,
            "velocity": 0.4566929133858268
          },
          {
            "duration": 0.11428559999998811,
            "durationTicks": 192,
            "midi": 54,
            "name": "F#3",
            "ticks": 394800,
            "time": 234.99976500000002,
            "velocity": 0.4566929133858268
          },
          {
            "duration": 0.11428559999998811,
            "durationTicks": 192,
            "midi": 57,
            "name": "A3",
            "ticks": 394800,
            "time": 234.99976500000002,
            "velocity": 0.4566929133858268
          },
          {
            "duration": 0.11428559999998811,
            "durationTicks": 192,
            "midi": 61,
            "name": "C#4",
            "ticks": 395040,
            "time": 235.14262200000002,
            "velocity": 0.4566929133858268
          },
          {
            "duration": 0.11428559999998811,
            "durationTicks": 192,
            "midi": 66,
            "name": "F#4",
            "ticks": 395040,
            "time": 235.14262200000002,
            "velocity": 0.4566929133858268
          },
          {
            "duration": 0.11428560000001653,
            "durationTicks": 192,
            "midi": 61,
            "name": "C#4",
            "ticks": 395280,
            "time": 235.285479,
            "velocity": 0.4566929133858268
          },
          {
            "duration": 0.11428560000001653,
            "durationTicks": 192,
            "midi": 66,
            "name": "F#4",
            "ticks": 395280,
            "time": 235.285479,
            "velocity": 0.4566929133858268
          },
          {
            "duration": 0.11428559999998811,
            "durationTicks": 192,
            "midi": 54,
            "name": "F#3",
            "ticks": 395520,
            "time": 235.42833600000003,
            "velocity": 0.4566929133858268
          },
          {
            "duration": 0.11428559999998811,
            "durationTicks": 192,
            "midi": 57,
            "name": "A3",
            "ticks": 395520,
            "time": 235.42833600000003,
            "velocity": 0.4566929133858268
          },
          {
            "duration": 0.11428559999998811,
            "durationTicks": 192,
            "midi": 54,
            "name": "F#3",
            "ticks": 395760,
            "time": 235.57119300000002,
            "velocity": 0.4566929133858268
          },
          {
            "duration": 0.11428559999998811,
            "durationTicks": 192,
            "midi": 57,
            "name": "A3",
            "ticks": 395760,
            "time": 235.57119300000002,
            "velocity": 0.4566929133858268
          },
          {
            "duration": 0.11428559999998811,
            "durationTicks": 192,
            "midi": 57,
            "name": "A3",
            "ticks": 396000,
            "time": 235.71405000000001,
            "velocity": 0.4566929133858268
          },
          {
            "duration": 0.11428559999998811,
            "durationTicks": 192,
            "midi": 61,
            "name": "C#4",
            "ticks": 396000,
            "time": 235.71405000000001,
            "velocity": 0.4566929133858268
          },
          {
            "duration": 0.11428560000001653,
            "durationTicks": 192,
            "midi": 57,
            "name": "A3",
            "ticks": 396240,
            "time": 235.856907,
            "velocity": 0.4566929133858268
          },
          {
            "duration": 0.11428560000001653,
            "durationTicks": 192,
            "midi": 61,
            "name": "C#4",
            "ticks": 396240,
            "time": 235.856907,
            "velocity": 0.4566929133858268
          },
          {
            "duration": 0.11428559999998811,
            "durationTicks": 192,
            "midi": 54,
            "name": "F#3",
            "ticks": 396480,
            "time": 235.99976400000003,
            "velocity": 0.4566929133858268
          },
          {
            "duration": 0.11428559999998811,
            "durationTicks": 192,
            "midi": 57,
            "name": "A3",
            "ticks": 396480,
            "time": 235.99976400000003,
            "velocity": 0.4566929133858268
          },
          {
            "duration": 0.11428559999998811,
            "durationTicks": 192,
            "midi": 54,
            "name": "F#3",
            "ticks": 396720,
            "time": 236.14262100000002,
            "velocity": 0.4566929133858268
          },
          {
            "duration": 0.11428559999998811,
            "durationTicks": 192,
            "midi": 57,
            "name": "A3",
            "ticks": 396720,
            "time": 236.14262100000002,
            "velocity": 0.4566929133858268
          },
          {
            "duration": 0.11428559999998811,
            "durationTicks": 192,
            "midi": 61,
            "name": "C#4",
            "ticks": 396960,
            "time": 236.285478,
            "velocity": 0.4566929133858268
          },
          {
            "duration": 0.11428559999998811,
            "durationTicks": 192,
            "midi": 66,
            "name": "F#4",
            "ticks": 396960,
            "time": 236.285478,
            "velocity": 0.4566929133858268
          },
          {
            "duration": 0.11428559999998811,
            "durationTicks": 192,
            "midi": 61,
            "name": "C#4",
            "ticks": 397200,
            "time": 236.42833500000003,
            "velocity": 0.4566929133858268
          },
          {
            "duration": 0.11428559999998811,
            "durationTicks": 192,
            "midi": 66,
            "name": "F#4",
            "ticks": 397200,
            "time": 236.42833500000003,
            "velocity": 0.4566929133858268
          },
          {
            "duration": 0.11428559999998811,
            "durationTicks": 192,
            "midi": 56,
            "name": "G#3",
            "ticks": 397440,
            "time": 236.57119200000002,
            "velocity": 0.4566929133858268
          },
          {
            "duration": 0.11428559999998811,
            "durationTicks": 192,
            "midi": 63,
            "name": "D#4",
            "ticks": 397440,
            "time": 236.57119200000002,
            "velocity": 0.4566929133858268
          },
          {
            "duration": 0.11428559999998811,
            "durationTicks": 192,
            "midi": 56,
            "name": "G#3",
            "ticks": 397680,
            "time": 236.71404900000002,
            "velocity": 0.4566929133858268
          },
          {
            "duration": 0.11428559999998811,
            "durationTicks": 192,
            "midi": 63,
            "name": "D#4",
            "ticks": 397680,
            "time": 236.71404900000002,
            "velocity": 0.4566929133858268
          },
          {
            "duration": 0.11428560000001653,
            "durationTicks": 192,
            "midi": 63,
            "name": "D#4",
            "ticks": 397920,
            "time": 236.856906,
            "velocity": 0.4566929133858268
          },
          {
            "duration": 0.11428560000001653,
            "durationTicks": 192,
            "midi": 68,
            "name": "G#4",
            "ticks": 397920,
            "time": 236.856906,
            "velocity": 0.4566929133858268
          },
          {
            "duration": 0.11428559999998811,
            "durationTicks": 192,
            "midi": 63,
            "name": "D#4",
            "ticks": 398160,
            "time": 236.99976300000003,
            "velocity": 0.4566929133858268
          },
          {
            "duration": 0.11428559999998811,
            "durationTicks": 192,
            "midi": 68,
            "name": "G#4",
            "ticks": 398160,
            "time": 236.99976300000003,
            "velocity": 0.4566929133858268
          },
          {
            "duration": 0.11428559999998811,
            "durationTicks": 192,
            "midi": 56,
            "name": "G#3",
            "ticks": 398400,
            "time": 237.14262000000002,
            "velocity": 0.4566929133858268
          },
          {
            "duration": 0.11428559999998811,
            "durationTicks": 192,
            "midi": 63,
            "name": "D#4",
            "ticks": 398400,
            "time": 237.14262000000002,
            "velocity": 0.4566929133858268
          },
          {
            "duration": 0.11428559999998811,
            "durationTicks": 192,
            "midi": 56,
            "name": "G#3",
            "ticks": 398640,
            "time": 237.28547700000001,
            "velocity": 0.4566929133858268
          },
          {
            "duration": 0.11428559999998811,
            "durationTicks": 192,
            "midi": 63,
            "name": "D#4",
            "ticks": 398640,
            "time": 237.28547700000001,
            "velocity": 0.4566929133858268
          },
          {
            "duration": 0.11428560000001653,
            "durationTicks": 192,
            "midi": 63,
            "name": "D#4",
            "ticks": 398880,
            "time": 237.428334,
            "velocity": 0.4566929133858268
          },
          {
            "duration": 0.11428560000001653,
            "durationTicks": 192,
            "midi": 68,
            "name": "G#4",
            "ticks": 398880,
            "time": 237.428334,
            "velocity": 0.4566929133858268
          },
          {
            "duration": 0.11428559999998811,
            "durationTicks": 192,
            "midi": 63,
            "name": "D#4",
            "ticks": 399120,
            "time": 237.57119100000003,
            "velocity": 0.4566929133858268
          },
          {
            "duration": 0.11428559999998811,
            "durationTicks": 192,
            "midi": 68,
            "name": "G#4",
            "ticks": 399120,
            "time": 237.57119100000003,
            "velocity": 0.4566929133858268
          },
          {
            "duration": 0.11428559999998811,
            "durationTicks": 192,
            "midi": 56,
            "name": "G#3",
            "ticks": 399360,
            "time": 237.71404800000002,
            "velocity": 0.4566929133858268
          },
          {
            "duration": 0.11428559999998811,
            "durationTicks": 192,
            "midi": 62,
            "name": "D4",
            "ticks": 399360,
            "time": 237.71404800000002,
            "velocity": 0.4566929133858268
          },
          {
            "duration": 0.11428559999998811,
            "durationTicks": 192,
            "midi": 56,
            "name": "G#3",
            "ticks": 399600,
            "time": 237.856905,
            "velocity": 0.4566929133858268
          },
          {
            "duration": 0.11428559999998811,
            "durationTicks": 192,
            "midi": 62,
            "name": "D4",
            "ticks": 399600,
            "time": 237.856905,
            "velocity": 0.4566929133858268
          },
          {
            "duration": 0.11428559999998811,
            "durationTicks": 192,
            "midi": 62,
            "name": "D4",
            "ticks": 399840,
            "time": 237.99976200000003,
            "velocity": 0.4566929133858268
          },
          {
            "duration": 0.11428559999998811,
            "durationTicks": 192,
            "midi": 68,
            "name": "G#4",
            "ticks": 399840,
            "time": 237.99976200000003,
            "velocity": 0.4566929133858268
          },
          {
            "duration": 0.11428559999998811,
            "durationTicks": 192,
            "midi": 62,
            "name": "D4",
            "ticks": 400080,
            "time": 238.14261900000002,
            "velocity": 0.4566929133858268
          },
          {
            "duration": 0.11428559999998811,
            "durationTicks": 192,
            "midi": 68,
            "name": "G#4",
            "ticks": 400080,
            "time": 238.14261900000002,
            "velocity": 0.4566929133858268
          },
          {
            "duration": 0.11428559999998811,
            "durationTicks": 192,
            "midi": 56,
            "name": "G#3",
            "ticks": 400320,
            "time": 238.28547600000002,
            "velocity": 0.4566929133858268
          },
          {
            "duration": 0.11428559999998811,
            "durationTicks": 192,
            "midi": 62,
            "name": "D4",
            "ticks": 400320,
            "time": 238.28547600000002,
            "velocity": 0.4566929133858268
          },
          {
            "duration": 0.11428560000001653,
            "durationTicks": 192,
            "midi": 56,
            "name": "G#3",
            "ticks": 400560,
            "time": 238.428333,
            "velocity": 0.4566929133858268
          },
          {
            "duration": 0.11428560000001653,
            "durationTicks": 192,
            "midi": 62,
            "name": "D4",
            "ticks": 400560,
            "time": 238.428333,
            "velocity": 0.4566929133858268
          },
          {
            "duration": 0.11428559999998811,
            "durationTicks": 192,
            "midi": 62,
            "name": "D4",
            "ticks": 400800,
            "time": 238.57119000000003,
            "velocity": 0.4566929133858268
          },
          {
            "duration": 0.11428559999998811,
            "durationTicks": 192,
            "midi": 68,
            "name": "G#4",
            "ticks": 400800,
            "time": 238.57119000000003,
            "velocity": 0.4566929133858268
          },
          {
            "duration": 0.11428559999998811,
            "durationTicks": 192,
            "midi": 62,
            "name": "D4",
            "ticks": 401040,
            "time": 238.71404700000002,
            "velocity": 0.4566929133858268
          },
          {
            "duration": 0.11428559999998811,
            "durationTicks": 192,
            "midi": 68,
            "name": "G#4",
            "ticks": 401040,
            "time": 238.71404700000002,
            "velocity": 0.4566929133858268
          },
          {
            "duration": 0.11428559999998811,
            "durationTicks": 192,
            "midi": 56,
            "name": "G#3",
            "ticks": 401280,
            "time": 238.85690400000001,
            "velocity": 0.4566929133858268
          },
          {
            "duration": 0.11428559999998811,
            "durationTicks": 192,
            "midi": 61,
            "name": "C#4",
            "ticks": 401280,
            "time": 238.85690400000001,
            "velocity": 0.4566929133858268
          },
          {
            "duration": 0.11428560000001653,
            "durationTicks": 192,
            "midi": 56,
            "name": "G#3",
            "ticks": 401520,
            "time": 238.999761,
            "velocity": 0.4566929133858268
          },
          {
            "duration": 0.11428560000001653,
            "durationTicks": 192,
            "midi": 61,
            "name": "C#4",
            "ticks": 401520,
            "time": 238.999761,
            "velocity": 0.4566929133858268
          },
          {
            "duration": 0.11428559999998811,
            "durationTicks": 192,
            "midi": 61,
            "name": "C#4",
            "ticks": 401760,
            "time": 239.14261800000003,
            "velocity": 0.4566929133858268
          },
          {
            "duration": 0.11428559999998811,
            "durationTicks": 192,
            "midi": 71,
            "name": "B4",
            "ticks": 401760,
            "time": 239.14261800000003,
            "velocity": 0.4566929133858268
          },
          {
            "duration": 0.11428559999998811,
            "durationTicks": 192,
            "midi": 61,
            "name": "C#4",
            "ticks": 402000,
            "time": 239.28547500000002,
            "velocity": 0.4566929133858268
          },
          {
            "duration": 0.11428559999998811,
            "durationTicks": 192,
            "midi": 71,
            "name": "B4",
            "ticks": 402000,
            "time": 239.28547500000002,
            "velocity": 0.4566929133858268
          },
          {
            "duration": 0.11428559999998811,
            "durationTicks": 192,
            "midi": 56,
            "name": "G#3",
            "ticks": 402240,
            "time": 239.428332,
            "velocity": 0.4566929133858268
          },
          {
            "duration": 0.11428559999998811,
            "durationTicks": 192,
            "midi": 61,
            "name": "C#4",
            "ticks": 402240,
            "time": 239.428332,
            "velocity": 0.4566929133858268
          },
          {
            "duration": 0.11428559999998811,
            "durationTicks": 192,
            "midi": 56,
            "name": "G#3",
            "ticks": 402480,
            "time": 239.57118900000003,
            "velocity": 0.4566929133858268
          },
          {
            "duration": 0.11428559999998811,
            "durationTicks": 192,
            "midi": 61,
            "name": "C#4",
            "ticks": 402480,
            "time": 239.57118900000003,
            "velocity": 0.4566929133858268
          },
          {
            "duration": 0.11428559999998811,
            "durationTicks": 192,
            "midi": 61,
            "name": "C#4",
            "ticks": 402720,
            "time": 239.71404600000002,
            "velocity": 0.4566929133858268
          },
          {
            "duration": 0.11428559999998811,
            "durationTicks": 192,
            "midi": 71,
            "name": "B4",
            "ticks": 402720,
            "time": 239.71404600000002,
            "velocity": 0.4566929133858268
          },
          {
            "duration": 0.11428559999998811,
            "durationTicks": 192,
            "midi": 61,
            "name": "C#4",
            "ticks": 402960,
            "time": 239.85690300000002,
            "velocity": 0.4566929133858268
          },
          {
            "duration": 0.11428559999998811,
            "durationTicks": 192,
            "midi": 71,
            "name": "B4",
            "ticks": 402960,
            "time": 239.85690300000002,
            "velocity": 0.4566929133858268
          },
          {
            "duration": 0.11428560000001653,
            "durationTicks": 192,
            "midi": 56,
            "name": "G#3",
            "ticks": 403200,
            "time": 239.99976,
            "velocity": 0.4566929133858268
          },
          {
            "duration": 0.11428560000001653,
            "durationTicks": 192,
            "midi": 61,
            "name": "C#4",
            "ticks": 403200,
            "time": 239.99976,
            "velocity": 0.4566929133858268
          },
          {
            "duration": 0.11428559999998811,
            "durationTicks": 192,
            "midi": 56,
            "name": "G#3",
            "ticks": 403440,
            "time": 240.14261700000003,
            "velocity": 0.4566929133858268
          },
          {
            "duration": 0.11428559999998811,
            "durationTicks": 192,
            "midi": 61,
            "name": "C#4",
            "ticks": 403440,
            "time": 240.14261700000003,
            "velocity": 0.4566929133858268
          },
          {
            "duration": 0.11428559999998811,
            "durationTicks": 192,
            "midi": 61,
            "name": "C#4",
            "ticks": 403680,
            "time": 240.28547400000002,
            "velocity": 0.4566929133858268
          },
          {
            "duration": 0.11428559999998811,
            "durationTicks": 192,
            "midi": 68,
            "name": "G#4",
            "ticks": 403680,
            "time": 240.28547400000002,
            "velocity": 0.4566929133858268
          },
          {
            "duration": 0.11428559999998811,
            "durationTicks": 192,
            "midi": 61,
            "name": "C#4",
            "ticks": 403920,
            "time": 240.42833100000001,
            "velocity": 0.4566929133858268
          },
          {
            "duration": 0.11428559999998811,
            "durationTicks": 192,
            "midi": 68,
            "name": "G#4",
            "ticks": 403920,
            "time": 240.42833100000001,
            "velocity": 0.4566929133858268
          },
          {
            "duration": 0.11428560000001653,
            "durationTicks": 192,
            "midi": 56,
            "name": "G#3",
            "ticks": 404160,
            "time": 240.571188,
            "velocity": 0.4566929133858268
          },
          {
            "duration": 0.11428560000001653,
            "durationTicks": 192,
            "midi": 61,
            "name": "C#4",
            "ticks": 404160,
            "time": 240.571188,
            "velocity": 0.4566929133858268
          },
          {
            "duration": 0.11428559999998811,
            "durationTicks": 192,
            "midi": 56,
            "name": "G#3",
            "ticks": 404400,
            "time": 240.71404500000003,
            "velocity": 0.4566929133858268
          },
          {
            "duration": 0.11428559999998811,
            "durationTicks": 192,
            "midi": 61,
            "name": "C#4",
            "ticks": 404400,
            "time": 240.71404500000003,
            "velocity": 0.4566929133858268
          },
          {
            "duration": 0.11428559999998811,
            "durationTicks": 192,
            "midi": 61,
            "name": "C#4",
            "ticks": 404640,
            "time": 240.85690200000002,
            "velocity": 0.4566929133858268
          },
          {
            "duration": 0.11428559999998811,
            "durationTicks": 192,
            "midi": 68,
            "name": "G#4",
            "ticks": 404640,
            "time": 240.85690200000002,
            "velocity": 0.4566929133858268
          },
          {
            "duration": 0.11428559999998811,
            "durationTicks": 192,
            "midi": 61,
            "name": "C#4",
            "ticks": 404880,
            "time": 240.999759,
            "velocity": 0.4566929133858268
          },
          {
            "duration": 0.11428559999998811,
            "durationTicks": 192,
            "midi": 68,
            "name": "G#4",
            "ticks": 404880,
            "time": 240.999759,
            "velocity": 0.4566929133858268
          },
          {
            "duration": 0.11428559999998811,
            "durationTicks": 192,
            "midi": 55,
            "name": "G3",
            "ticks": 405120,
            "time": 241.14261600000003,
            "velocity": 0.4566929133858268
          },
          {
            "duration": 0.11428559999998811,
            "durationTicks": 192,
            "midi": 61,
            "name": "C#4",
            "ticks": 405120,
            "time": 241.14261600000003,
            "velocity": 0.4566929133858268
          },
          {
            "duration": 0.11428559999998811,
            "durationTicks": 192,
            "midi": 55,
            "name": "G3",
            "ticks": 405360,
            "time": 241.28547300000002,
            "velocity": 0.4566929133858268
          },
          {
            "duration": 0.11428559999998811,
            "durationTicks": 192,
            "midi": 61,
            "name": "C#4",
            "ticks": 405360,
            "time": 241.28547300000002,
            "velocity": 0.4566929133858268
          },
          {
            "duration": 0.11428559999998811,
            "durationTicks": 192,
            "midi": 61,
            "name": "C#4",
            "ticks": 405600,
            "time": 241.42833000000002,
            "velocity": 0.4566929133858268
          },
          {
            "duration": 0.11428559999998811,
            "durationTicks": 192,
            "midi": 67,
            "name": "G4",
            "ticks": 405600,
            "time": 241.42833000000002,
            "velocity": 0.4566929133858268
          },
          {
            "duration": 0.11428560000001653,
            "durationTicks": 192,
            "midi": 61,
            "name": "C#4",
            "ticks": 405840,
            "time": 241.571187,
            "velocity": 0.4566929133858268
          },
          {
            "duration": 0.11428560000001653,
            "durationTicks": 192,
            "midi": 67,
            "name": "G4",
            "ticks": 405840,
            "time": 241.571187,
            "velocity": 0.4566929133858268
          },
          {
            "duration": 0.11428559999998811,
            "durationTicks": 192,
            "midi": 55,
            "name": "G3",
            "ticks": 406080,
            "time": 241.71404400000003,
            "velocity": 0.4566929133858268
          },
          {
            "duration": 0.11428559999998811,
            "durationTicks": 192,
            "midi": 61,
            "name": "C#4",
            "ticks": 406080,
            "time": 241.71404400000003,
            "velocity": 0.4566929133858268
          },
          {
            "duration": 0.11428559999998811,
            "durationTicks": 192,
            "midi": 55,
            "name": "G3",
            "ticks": 406320,
            "time": 241.85690100000002,
            "velocity": 0.4566929133858268
          },
          {
            "duration": 0.11428559999998811,
            "durationTicks": 192,
            "midi": 61,
            "name": "C#4",
            "ticks": 406320,
            "time": 241.85690100000002,
            "velocity": 0.4566929133858268
          },
          {
            "duration": 0.11428559999998811,
            "durationTicks": 192,
            "midi": 61,
            "name": "C#4",
            "ticks": 406560,
            "time": 241.999758,
            "velocity": 0.4566929133858268
          },
          {
            "duration": 0.11428559999998811,
            "durationTicks": 192,
            "midi": 67,
            "name": "G4",
            "ticks": 406560,
            "time": 241.999758,
            "velocity": 0.4566929133858268
          },
          {
            "duration": 0.11428560000001653,
            "durationTicks": 192,
            "midi": 61,
            "name": "C#4",
            "ticks": 406800,
            "time": 242.142615,
            "velocity": 0.4566929133858268
          },
          {
            "duration": 0.11428560000001653,
            "durationTicks": 192,
            "midi": 67,
            "name": "G4",
            "ticks": 406800,
            "time": 242.142615,
            "velocity": 0.4566929133858268
          },
          {
            "duration": 0.11428559999998811,
            "durationTicks": 192,
            "midi": 54,
            "name": "F#3",
            "ticks": 407040,
            "time": 242.28547200000003,
            "velocity": 0.4566929133858268
          },
          {
            "duration": 0.11428559999998811,
            "durationTicks": 192,
            "midi": 60,
            "name": "C4",
            "ticks": 407040,
            "time": 242.28547200000003,
            "velocity": 0.4566929133858268
          },
          {
            "duration": 0.11428559999998811,
            "durationTicks": 192,
            "midi": 54,
            "name": "F#3",
            "ticks": 407280,
            "time": 242.42832900000002,
            "velocity": 0.4566929133858268
          },
          {
            "duration": 0.11428559999998811,
            "durationTicks": 192,
            "midi": 60,
            "name": "C4",
            "ticks": 407280,
            "time": 242.42832900000002,
            "velocity": 0.4566929133858268
          },
          {
            "duration": 0.11428559999998811,
            "durationTicks": 192,
            "midi": 60,
            "name": "C4",
            "ticks": 407520,
            "time": 242.571186,
            "velocity": 0.4566929133858268
          },
          {
            "duration": 0.11428559999998811,
            "durationTicks": 192,
            "midi": 66,
            "name": "F#4",
            "ticks": 407520,
            "time": 242.571186,
            "velocity": 0.4566929133858268
          },
          {
            "duration": 0.11428559999998811,
            "durationTicks": 192,
            "midi": 60,
            "name": "C4",
            "ticks": 407760,
            "time": 242.71404300000003,
            "velocity": 0.4566929133858268
          },
          {
            "duration": 0.11428559999998811,
            "durationTicks": 192,
            "midi": 66,
            "name": "F#4",
            "ticks": 407760,
            "time": 242.71404300000003,
            "velocity": 0.4566929133858268
          },
          {
            "duration": 0.11428559999998811,
            "durationTicks": 192,
            "midi": 54,
            "name": "F#3",
            "ticks": 408000,
            "time": 242.85690000000002,
            "velocity": 0.4566929133858268
          },
          {
            "duration": 0.11428559999998811,
            "durationTicks": 192,
            "midi": 60,
            "name": "C4",
            "ticks": 408000,
            "time": 242.85690000000002,
            "velocity": 0.4566929133858268
          },
          {
            "duration": 0.11428559999998811,
            "durationTicks": 192,
            "midi": 54,
            "name": "F#3",
            "ticks": 408240,
            "time": 242.99975700000002,
            "velocity": 0.4566929133858268
          },
          {
            "duration": 0.11428559999998811,
            "durationTicks": 192,
            "midi": 60,
            "name": "C4",
            "ticks": 408240,
            "time": 242.99975700000002,
            "velocity": 0.4566929133858268
          },
          {
            "duration": 0.11428560000001653,
            "durationTicks": 192,
            "midi": 60,
            "name": "C4",
            "ticks": 408480,
            "time": 243.142614,
            "velocity": 0.4566929133858268
          },
          {
            "duration": 0.11428560000001653,
            "durationTicks": 192,
            "midi": 66,
            "name": "F#4",
            "ticks": 408480,
            "time": 243.142614,
            "velocity": 0.4566929133858268
          },
          {
            "duration": 0.11428559999998811,
            "durationTicks": 192,
            "midi": 60,
            "name": "C4",
            "ticks": 408720,
            "time": 243.28547100000003,
            "velocity": 0.4566929133858268
          },
          {
            "duration": 0.11428559999998811,
            "durationTicks": 192,
            "midi": 66,
            "name": "F#4",
            "ticks": 408720,
            "time": 243.28547100000003,
            "velocity": 0.4566929133858268
          },
          {
            "duration": 0.11428559999998811,
            "durationTicks": 192,
            "midi": 54,
            "name": "F#3",
            "ticks": 408960,
            "time": 243.42832800000002,
            "velocity": 0.4566929133858268
          },
          {
            "duration": 0.11428559999998811,
            "durationTicks": 192,
            "midi": 59,
            "name": "B3",
            "ticks": 408960,
            "time": 243.42832800000002,
            "velocity": 0.4566929133858268
          },
          {
            "duration": 0.11428559999998811,
            "durationTicks": 192,
            "midi": 54,
            "name": "F#3",
            "ticks": 409200,
            "time": 243.571185,
            "velocity": 0.4566929133858268
          },
          {
            "duration": 0.11428559999998811,
            "durationTicks": 192,
            "midi": 59,
            "name": "B3",
            "ticks": 409200,
            "time": 243.571185,
            "velocity": 0.4566929133858268
          },
          {
            "duration": 0.11428560000001653,
            "durationTicks": 192,
            "midi": 59,
            "name": "B3",
            "ticks": 409440,
            "time": 243.714042,
            "velocity": 0.4566929133858268
          },
          {
            "duration": 0.11428560000001653,
            "durationTicks": 192,
            "midi": 69,
            "name": "A4",
            "ticks": 409440,
            "time": 243.714042,
            "velocity": 0.4566929133858268
          },
          {
            "duration": 0.11428559999998811,
            "durationTicks": 192,
            "midi": 59,
            "name": "B3",
            "ticks": 409680,
            "time": 243.85689900000003,
            "velocity": 0.4566929133858268
          },
          {
            "duration": 0.11428559999998811,
            "durationTicks": 192,
            "midi": 69,
            "name": "A4",
            "ticks": 409680,
            "time": 243.85689900000003,
            "velocity": 0.4566929133858268
          },
          {
            "duration": 0.11428559999998811,
            "durationTicks": 192,
            "midi": 54,
            "name": "F#3",
            "ticks": 409920,
            "time": 243.99975600000002,
            "velocity": 0.4566929133858268
          },
          {
            "duration": 0.11428559999998811,
            "durationTicks": 192,
            "midi": 59,
            "name": "B3",
            "ticks": 409920,
            "time": 243.99975600000002,
            "velocity": 0.4566929133858268
          },
          {
            "duration": 0.11428559999998811,
            "durationTicks": 192,
            "midi": 54,
            "name": "F#3",
            "ticks": 410160,
            "time": 244.142613,
            "velocity": 0.4566929133858268
          },
          {
            "duration": 0.11428559999998811,
            "durationTicks": 192,
            "midi": 59,
            "name": "B3",
            "ticks": 410160,
            "time": 244.142613,
            "velocity": 0.4566929133858268
          },
          {
            "duration": 0.11428559999998811,
            "durationTicks": 192,
            "midi": 59,
            "name": "B3",
            "ticks": 410400,
            "time": 244.28547000000003,
            "velocity": 0.4566929133858268
          },
          {
            "duration": 0.11428559999998811,
            "durationTicks": 192,
            "midi": 69,
            "name": "A4",
            "ticks": 410400,
            "time": 244.28547000000003,
            "velocity": 0.4566929133858268
          },
          {
            "duration": 0.11428559999998811,
            "durationTicks": 192,
            "midi": 59,
            "name": "B3",
            "ticks": 410640,
            "time": 244.42832700000002,
            "velocity": 0.4566929133858268
          },
          {
            "duration": 0.11428559999998811,
            "durationTicks": 192,
            "midi": 69,
            "name": "A4",
            "ticks": 410640,
            "time": 244.42832700000002,
            "velocity": 0.4566929133858268
          },
          {
            "duration": 0.11428559999998811,
            "durationTicks": 192,
            "midi": 54,
            "name": "F#3",
            "ticks": 410880,
            "time": 244.57118400000002,
            "velocity": 0.4566929133858268
          },
          {
            "duration": 0.11428559999998811,
            "durationTicks": 192,
            "midi": 57,
            "name": "A3",
            "ticks": 410880,
            "time": 244.57118400000002,
            "velocity": 0.4566929133858268
          },
          {
            "duration": 0.11428560000001653,
            "durationTicks": 192,
            "midi": 54,
            "name": "F#3",
            "ticks": 411120,
            "time": 244.714041,
            "velocity": 0.4566929133858268
          },
          {
            "duration": 0.11428560000001653,
            "durationTicks": 192,
            "midi": 57,
            "name": "A3",
            "ticks": 411120,
            "time": 244.714041,
            "velocity": 0.4566929133858268
          },
          {
            "duration": 0.11428559999998811,
            "durationTicks": 192,
            "midi": 57,
            "name": "A3",
            "ticks": 411360,
            "time": 244.85689800000003,
            "velocity": 0.4566929133858268
          },
          {
            "duration": 0.11428559999998811,
            "durationTicks": 192,
            "midi": 66,
            "name": "F#4",
            "ticks": 411360,
            "time": 244.85689800000003,
            "velocity": 0.4566929133858268
          },
          {
            "duration": 0.11428559999998811,
            "durationTicks": 192,
            "midi": 57,
            "name": "A3",
            "ticks": 411600,
            "time": 244.99975500000002,
            "velocity": 0.4566929133858268
          },
          {
            "duration": 0.11428559999998811,
            "durationTicks": 192,
            "midi": 66,
            "name": "F#4",
            "ticks": 411600,
            "time": 244.99975500000002,
            "velocity": 0.4566929133858268
          },
          {
            "duration": 0.22857120000000464,
            "durationTicks": 384,
            "midi": 54,
            "name": "F#3",
            "ticks": 411840,
            "time": 245.142612,
            "velocity": 0.4566929133858268
          },
          {
            "duration": 0.22857120000000464,
            "durationTicks": 384,
            "midi": 63,
            "name": "D#4",
            "ticks": 411840,
            "time": 245.142612,
            "velocity": 0.4566929133858268
          },
          {
            "duration": 0.14285699999999224,
            "durationTicks": 240,
            "midi": 60,
            "name": "C4",
            "ticks": 412320,
            "time": 245.42832600000003,
            "velocity": 0.8267716535433071
          },
          {
            "duration": 0.11428559999998811,
            "durationTicks": 192,
            "midi": 59,
            "name": "B3",
            "ticks": 412560,
            "time": 245.57118300000002,
            "velocity": 0.8267716535433071
          },
          {
            "duration": 0.22857120000000464,
            "durationTicks": 384,
            "midi": 59,
            "name": "B3",
            "ticks": 412800,
            "time": 245.71404,
            "velocity": 0.8267716535433071
          },
          {
            "duration": 0.14285699999999224,
            "durationTicks": 240,
            "midi": 60,
            "name": "C4",
            "ticks": 413280,
            "time": 245.99975400000002,
            "velocity": 0.8267716535433071
          },
          {
            "duration": 0.11428559999998811,
            "durationTicks": 192,
            "midi": 59,
            "name": "B3",
            "ticks": 413520,
            "time": 246.14261100000002,
            "velocity": 0.8267716535433071
          },
          {
            "duration": 0.22857120000000464,
            "durationTicks": 384,
            "midi": 59,
            "name": "B3",
            "ticks": 413760,
            "time": 246.285468,
            "velocity": 0.8267716535433071
          },
          {
            "duration": 0.14285699999999224,
            "durationTicks": 240,
            "midi": 60,
            "name": "C4",
            "ticks": 414240,
            "time": 246.57118200000002,
            "velocity": 0.8267716535433071
          },
          {
            "duration": 0.11428559999998811,
            "durationTicks": 192,
            "midi": 59,
            "name": "B3",
            "ticks": 414480,
            "time": 246.714039,
            "velocity": 0.8267716535433071
          },
          {
            "duration": 0.2857140000000129,
            "durationTicks": 480,
            "midi": 59,
            "name": "B3",
            "ticks": 414720,
            "time": 246.856896,
            "velocity": 0.8267716535433071
          },
          {
            "duration": 0.22857119999997622,
            "durationTicks": 384,
            "midi": 67,
            "name": "G4",
            "ticks": 415200,
            "time": 247.14261000000002,
            "velocity": 0.8267716535433071
          },
          {
            "duration": 0.14285699999999224,
            "durationTicks": 240,
            "midi": 67,
            "name": "G4",
            "ticks": 416160,
            "time": 247.71403800000002,
            "velocity": 0.8267716535433071
          },
          {
            "duration": 0.11428560000001653,
            "durationTicks": 192,
            "midi": 66,
            "name": "F#4",
            "ticks": 416400,
            "time": 247.856895,
            "velocity": 0.8267716535433071
          },
          {
            "duration": 0.22857119999997622,
            "durationTicks": 384,
            "midi": 64,
            "name": "E4",
            "ticks": 416640,
            "time": 247.99975200000003,
            "velocity": 0.8267716535433071
          },
          {
            "duration": 0.14285700000002066,
            "durationTicks": 240,
            "midi": 64,
            "name": "E4",
            "ticks": 417120,
            "time": 248.285466,
            "velocity": 0.8267716535433071
          },
          {
            "duration": 0.11428559999998811,
            "durationTicks": 192,
            "midi": 62,
            "name": "D4",
            "ticks": 417360,
            "time": 248.42832300000003,
            "velocity": 0.8267716535433071
          },
          {
            "duration": 0.22857119999997622,
            "durationTicks": 384,
            "midi": 60,
            "name": "C4",
            "ticks": 417600,
            "time": 248.57118000000003,
            "velocity": 0.8267716535433071
          },
          {
            "duration": 0.14285700000002066,
            "durationTicks": 240,
            "midi": 60,
            "name": "C4",
            "ticks": 418080,
            "time": 248.856894,
            "velocity": 0.8267716535433071
          },
          {
            "duration": 0.11428559999998811,
            "durationTicks": 192,
            "midi": 59,
            "name": "B3",
            "ticks": 418320,
            "time": 248.99975100000003,
            "velocity": 0.8267716535433071
          },
          {
            "duration": 0.08571419999998398,
            "durationTicks": 144,
            "midi": 57,
            "name": "A3",
            "ticks": 418560,
            "time": 249.14260800000002,
            "velocity": 0.7244094488188977
          },
          {
            "duration": 0.08571419999998398,
            "durationTicks": 144,
            "midi": 59,
            "name": "B3",
            "ticks": 418800,
            "time": 249.28546500000002,
            "velocity": 0.7244094488188977
          },
          {
            "duration": 0.0857142000000124,
            "durationTicks": 144,
            "midi": 60,
            "name": "C4",
            "ticks": 419040,
            "time": 249.428322,
            "velocity": 0.7244094488188977
          },
          {
            "duration": 0.08571419999998398,
            "durationTicks": 144,
            "midi": 59,
            "name": "B3",
            "ticks": 419280,
            "time": 249.57117900000003,
            "velocity": 0.7244094488188977
          },
          {
            "duration": 0.08571419999998398,
            "durationTicks": 144,
            "midi": 57,
            "name": "A3",
            "ticks": 419520,
            "time": 249.71403600000002,
            "velocity": 0.7244094488188977
          },
          {
            "duration": 0.08571419999998398,
            "durationTicks": 144,
            "midi": 58,
            "name": "A#3",
            "ticks": 419760,
            "time": 249.856893,
            "velocity": 0.7244094488188977
          },
          {
            "duration": 0.08571419999998398,
            "durationTicks": 144,
            "midi": 55,
            "name": "G3",
            "ticks": 420000,
            "time": 249.99975000000003,
            "velocity": 0.7244094488188977
          },
          {
            "duration": 0.08571419999998398,
            "durationTicks": 144,
            "midi": 57,
            "name": "A3",
            "ticks": 420240,
            "time": 250.14260700000003,
            "velocity": 0.7244094488188977
          },
          {
            "duration": 0.08571419999998398,
            "durationTicks": 144,
            "midi": 53,
            "name": "F3",
            "ticks": 420480,
            "time": 250.28546400000002,
            "velocity": 0.7244094488188977
          },
          {
            "duration": 0.08571419999998398,
            "durationTicks": 144,
            "midi": 57,
            "name": "A3",
            "ticks": 420720,
            "time": 250.428321,
            "velocity": 0.7244094488188977
          },
          {
            "duration": 0.08571419999998398,
            "durationTicks": 144,
            "midi": 62,
            "name": "D4",
            "ticks": 420960,
            "time": 250.57117800000003,
            "velocity": 0.7244094488188977
          },
          {
            "duration": 0.08571419999998398,
            "durationTicks": 144,
            "midi": 53,
            "name": "F3",
            "ticks": 421200,
            "time": 250.71403500000002,
            "velocity": 0.7244094488188977
          },
          {
            "duration": 0.08571419999998398,
            "durationTicks": 144,
            "midi": 52,
            "name": "E3",
            "ticks": 421440,
            "time": 250.85689200000002,
            "velocity": 0.7244094488188977
          },
          {
            "duration": 0.0857142000000124,
            "durationTicks": 144,
            "midi": 55,
            "name": "G3",
            "ticks": 421680,
            "time": 250.999749,
            "velocity": 0.7244094488188977
          },
          {
            "duration": 0.08571419999998398,
            "durationTicks": 144,
            "midi": 61,
            "name": "C#4",
            "ticks": 421920,
            "time": 251.14260600000003,
            "velocity": 0.7244094488188977
          },
          {
            "duration": 0.08571419999998398,
            "durationTicks": 144,
            "midi": 52,
            "name": "E3",
            "ticks": 422160,
            "time": 251.28546300000002,
            "velocity": 0.7244094488188977
          },
          {
            "duration": 0.08571419999998398,
            "durationTicks": 144,
            "midi": 50,
            "name": "D3",
            "ticks": 422400,
            "time": 251.42832,
            "velocity": 0.7244094488188977
          },
          {
            "duration": 0.08571419999998398,
            "durationTicks": 144,
            "midi": 57,
            "name": "A3",
            "ticks": 422640,
            "time": 251.57117700000003,
            "velocity": 0.7244094488188977
          },
          {
            "duration": 0.08571419999998398,
            "durationTicks": 144,
            "midi": 59,
            "name": "B3",
            "ticks": 422880,
            "time": 251.71403400000003,
            "velocity": 0.7244094488188977
          },
          {
            "duration": 0.08571419999998398,
            "durationTicks": 144,
            "midi": 61,
            "name": "C#4",
            "ticks": 423120,
            "time": 251.85689100000002,
            "velocity": 0.7244094488188977
          },
          {
            "duration": 0.08571419999998398,
            "durationTicks": 144,
            "midi": 62,
            "name": "D4",
            "ticks": 423360,
            "time": 251.999748,
            "velocity": 0.7244094488188977
          },
          {
            "duration": 0.08571419999998398,
            "durationTicks": 144,
            "midi": 57,
            "name": "A3",
            "ticks": 423600,
            "time": 252.14260500000003,
            "velocity": 0.7244094488188977
          },
          {
            "duration": 0.08571419999998398,
            "durationTicks": 144,
            "midi": 62,
            "name": "D4",
            "ticks": 423840,
            "time": 252.28546200000002,
            "velocity": 0.7244094488188977
          },
          {
            "duration": 0.08571419999998398,
            "durationTicks": 144,
            "midi": 64,
            "name": "E4",
            "ticks": 424080,
            "time": 252.42831900000002,
            "velocity": 0.7244094488188977
          },
          {
            "duration": 0.0857142000000124,
            "durationTicks": 144,
            "midi": 65,
            "name": "F4",
            "ticks": 424320,
            "time": 252.571176,
            "velocity": 0.7244094488188977
          },
          {
            "duration": 0.08571419999998398,
            "durationTicks": 144,
            "midi": 62,
            "name": "D4",
            "ticks": 424560,
            "time": 252.71403300000003,
            "velocity": 0.7244094488188977
          },
          {
            "duration": 0.08571419999998398,
            "durationTicks": 144,
            "midi": 64,
            "name": "E4",
            "ticks": 424800,
            "time": 252.85689000000002,
            "velocity": 0.7244094488188977
          },
          {
            "duration": 0.08571419999998398,
            "durationTicks": 144,
            "midi": 66,
            "name": "F#4",
            "ticks": 425040,
            "time": 252.999747,
            "velocity": 0.7244094488188977
          },
          {
            "duration": 0.08571419999998398,
            "durationTicks": 144,
            "midi": 67,
            "name": "G4",
            "ticks": 425280,
            "time": 253.14260400000003,
            "velocity": 0.7244094488188977
          },
          {
            "duration": 0.08571419999998398,
            "durationTicks": 144,
            "midi": 62,
            "name": "D4",
            "ticks": 425520,
            "time": 253.28546100000003,
            "velocity": 0.7244094488188977
          },
          {
            "duration": 0.08571419999998398,
            "durationTicks": 144,
            "midi": 66,
            "name": "F#4",
            "ticks": 425760,
            "time": 253.42831800000002,
            "velocity": 0.7244094488188977
          },
          {
            "duration": 0.08571419999998398,
            "durationTicks": 144,
            "midi": 69,
            "name": "A4",
            "ticks": 426000,
            "time": 253.571175,
            "velocity": 0.7244094488188977
          },
          {
            "duration": 0.1999998000000005,
            "durationTicks": 336,
            "midi": 70,
            "name": "A#4",
            "ticks": 426240,
            "time": 253.71403200000003,
            "velocity": 0.8267716535433071
          },
          {
            "duration": 0.19999980000002893,
            "durationTicks": 336,
            "midi": 55,
            "name": "G3",
            "ticks": 426720,
            "time": 253.99974600000002,
            "velocity": 0.8267716535433071
          },
          {
            "duration": 0.14285700000002066,
            "durationTicks": 240,
            "midi": 57,
            "name": "A3",
            "ticks": 427680,
            "time": 254.571174,
            "velocity": 0.8267716535433071
          },
          {
            "duration": 0.11428559999998811,
            "durationTicks": 192,
            "midi": 55,
            "name": "G3",
            "ticks": 427920,
            "time": 254.71403100000003,
            "velocity": 0.8267716535433071
          },
          {
            "duration": 0.22857119999997622,
            "durationTicks": 384,
            "midi": 55,
            "name": "G3",
            "ticks": 428160,
            "time": 254.85688800000003,
            "velocity": 0.8267716535433071
          },
          {
            "duration": 0.14285700000002066,
            "durationTicks": 240,
            "midi": 57,
            "name": "A3",
            "ticks": 428640,
            "time": 255.142602,
            "velocity": 0.8267716535433071
          },
          {
            "duration": 0.11428559999998811,
            "durationTicks": 192,
            "midi": 55,
            "name": "G3",
            "ticks": 428880,
            "time": 255.28545900000003,
            "velocity": 0.8267716535433071
          },
          {
            "duration": 0.22857119999997622,
            "durationTicks": 384,
            "midi": 55,
            "name": "G3",
            "ticks": 429120,
            "time": 255.42831600000002,
            "velocity": 0.8267716535433071
          },
          {
            "duration": 0.14285700000002066,
            "durationTicks": 240,
            "midi": 57,
            "name": "A3",
            "ticks": 429600,
            "time": 255.71403,
            "velocity": 0.8267716535433071
          },
          {
            "duration": 0.11428559999998811,
            "durationTicks": 192,
            "midi": 55,
            "name": "G3",
            "ticks": 429840,
            "time": 255.85688700000003,
            "velocity": 0.8267716535433071
          },
          {
            "duration": 0.2857139999999845,
            "durationTicks": 480,
            "midi": 55,
            "name": "G3",
            "ticks": 430080,
            "time": 255.99974400000002,
            "velocity": 0.8267716535433071
          },
          {
            "duration": 0.22857119999997622,
            "durationTicks": 384,
            "midi": 64,
            "name": "E4",
            "ticks": 430560,
            "time": 256.285458,
            "velocity": 0.8267716535433071
          },
          {
            "duration": 0.14285699999999224,
            "durationTicks": 240,
            "midi": 64,
            "name": "E4",
            "ticks": 431520,
            "time": 256.85688600000003,
            "velocity": 0.8267716535433071
          },
          {
            "duration": 0.11428560000001653,
            "durationTicks": 192,
            "midi": 62,
            "name": "D4",
            "ticks": 431760,
            "time": 256.999743,
            "velocity": 0.8267716535433071
          },
          {
            "duration": 0.22857119999997622,
            "durationTicks": 384,
            "midi": 60,
            "name": "C4",
            "ticks": 432000,
            "time": 257.1426,
            "velocity": 0.8267716535433071
          },
          {
            "duration": 0.14285700000004908,
            "durationTicks": 240,
            "midi": 60,
            "name": "C4",
            "ticks": 432480,
            "time": 257.428314,
            "velocity": 0.8267716535433071
          },
          {
            "duration": 0.11428559999995969,
            "durationTicks": 192,
            "midi": 58,
            "name": "A#3",
            "ticks": 432720,
            "time": 257.57117100000005,
            "velocity": 0.8267716535433071
          },
          {
            "duration": 0.22857119999997622,
            "durationTicks": 384,
            "midi": 57,
            "name": "A3",
            "ticks": 432960,
            "time": 257.71402800000004,
            "velocity": 0.8267716535433071
          },
          {
            "duration": 0.14285699999999224,
            "durationTicks": 240,
            "midi": 57,
            "name": "A3",
            "ticks": 433440,
            "time": 257.999742,
            "velocity": 0.8267716535433071
          },
          {
            "duration": 0.11428560000001653,
            "durationTicks": 192,
            "midi": 55,
            "name": "G3",
            "ticks": 433680,
            "time": 258.142599,
            "velocity": 0.8267716535433071
          },
          {
            "duration": 0.08571419999998398,
            "durationTicks": 144,
            "midi": 53,
            "name": "F3",
            "ticks": 433920,
            "time": 258.285456,
            "velocity": 0.8267716535433071
          },
          {
            "duration": 0.08571419999998398,
            "durationTicks": 144,
            "midi": 55,
            "name": "G3",
            "ticks": 434160,
            "time": 258.428313,
            "velocity": 0.8267716535433071
          },
          {
            "duration": 0.08571420000004082,
            "durationTicks": 144,
            "midi": 57,
            "name": "A3",
            "ticks": 434400,
            "time": 258.57117,
            "velocity": 0.8267716535433071
          },
          {
            "duration": 0.08571419999998398,
            "durationTicks": 144,
            "midi": 55,
            "name": "G3",
            "ticks": 434640,
            "time": 258.71402700000004,
            "velocity": 0.8267716535433071
          },
          {
            "duration": 0.08571419999998398,
            "durationTicks": 144,
            "midi": 53,
            "name": "F3",
            "ticks": 434880,
            "time": 258.85688400000004,
            "velocity": 0.8267716535433071
          },
          {
            "duration": 0.08571419999998398,
            "durationTicks": 144,
            "midi": 55,
            "name": "G3",
            "ticks": 435120,
            "time": 258.99974100000003,
            "velocity": 0.8267716535433071
          },
          {
            "duration": 0.08571419999998398,
            "durationTicks": 144,
            "midi": 51,
            "name": "D#3",
            "ticks": 435360,
            "time": 259.142598,
            "velocity": 0.8267716535433071
          },
          {
            "duration": 0.08571419999998398,
            "durationTicks": 144,
            "midi": 53,
            "name": "F3",
            "ticks": 435600,
            "time": 259.285455,
            "velocity": 0.8267716535433071
          },
          {
            "duration": 0.08571419999998398,
            "durationTicks": 144,
            "midi": 50,
            "name": "D3",
            "ticks": 435840,
            "time": 259.428312,
            "velocity": 0.8267716535433071
          },
          {
            "duration": 0.08571419999998398,
            "durationTicks": 144,
            "midi": 53,
            "name": "F3",
            "ticks": 436080,
            "time": 259.571169,
            "velocity": 0.8267716535433071
          },
          {
            "duration": 0.08571419999998398,
            "durationTicks": 144,
            "midi": 58,
            "name": "A#3",
            "ticks": 436320,
            "time": 259.71402600000005,
            "velocity": 0.8267716535433071
          },
          {
            "duration": 0.08571419999998398,
            "durationTicks": 144,
            "midi": 50,
            "name": "D3",
            "ticks": 436560,
            "time": 259.85688300000004,
            "velocity": 0.8267716535433071
          },
          {
            "duration": 0.08571419999998398,
            "durationTicks": 144,
            "midi": 48,
            "name": "C3",
            "ticks": 436800,
            "time": 259.99974000000003,
            "velocity": 0.8267716535433071
          },
          {
            "duration": 0.08571419999998398,
            "durationTicks": 144,
            "midi": 51,
            "name": "D#3",
            "ticks": 437040,
            "time": 260.142597,
            "velocity": 0.8267716535433071
          },
          {
            "duration": 0.08571419999998398,
            "durationTicks": 144,
            "midi": 57,
            "name": "A3",
            "ticks": 437280,
            "time": 260.285454,
            "velocity": 0.8267716535433071
          },
          {
            "duration": 0.08571419999998398,
            "durationTicks": 144,
            "midi": 60,
            "name": "C4",
            "ticks": 437520,
            "time": 260.428311,
            "velocity": 0.8267716535433071
          },
          {
            "duration": 0.08571419999998398,
            "durationTicks": 144,
            "midi": 58,
            "name": "A#3",
            "ticks": 437760,
            "time": 260.571168,
            "velocity": 0.8267716535433071
          },
          {
            "duration": 0.08571419999998398,
            "durationTicks": 144,
            "midi": 53,
            "name": "F3",
            "ticks": 438000,
            "time": 260.71402500000005,
            "velocity": 0.8267716535433071
          },
          {
            "duration": 0.08571419999998398,
            "durationTicks": 144,
            "midi": 55,
            "name": "G3",
            "ticks": 438240,
            "time": 260.85688200000004,
            "velocity": 0.8267716535433071
          },
          {
            "duration": 0.08571419999998398,
            "durationTicks": 144,
            "midi": 57,
            "name": "A3",
            "ticks": 438480,
            "time": 260.99973900000003,
            "velocity": 0.8267716535433071
          },
          {
            "duration": 0.08571419999998398,
            "durationTicks": 144,
            "midi": 58,
            "name": "A#3",
            "ticks": 438720,
            "time": 261.142596,
            "velocity": 0.8267716535433071
          },
          {
            "duration": 0.08571419999998398,
            "durationTicks": 144,
            "midi": 57,
            "name": "A3",
            "ticks": 438960,
            "time": 261.285453,
            "velocity": 0.8267716535433071
          },
          {
            "duration": 0.08571419999998398,
            "durationTicks": 144,
            "midi": 58,
            "name": "A#3",
            "ticks": 439200,
            "time": 261.42831,
            "velocity": 0.8267716535433071
          },
          {
            "duration": 0.08571419999998398,
            "durationTicks": 144,
            "midi": 60,
            "name": "C4",
            "ticks": 439440,
            "time": 261.571167,
            "velocity": 0.8267716535433071
          },
          {
            "duration": 0.08571420000004082,
            "durationTicks": 144,
            "midi": 62,
            "name": "D4",
            "ticks": 439680,
            "time": 261.714024,
            "velocity": 0.8267716535433071
          },
          {
            "duration": 0.08571419999998398,
            "durationTicks": 144,
            "midi": 58,
            "name": "A#3",
            "ticks": 439920,
            "time": 261.85688100000004,
            "velocity": 0.8267716535433071
          },
          {
            "duration": 0.08571419999998398,
            "durationTicks": 144,
            "midi": 60,
            "name": "C4",
            "ticks": 440160,
            "time": 261.99973800000004,
            "velocity": 0.8267716535433071
          },
          {
            "duration": 0.08571419999998398,
            "durationTicks": 144,
            "midi": 62,
            "name": "D4",
            "ticks": 440400,
            "time": 262.14259500000003,
            "velocity": 0.8267716535433071
          },
          {
            "duration": 0.08571419999998398,
            "durationTicks": 144,
            "midi": 63,
            "name": "D#4",
            "ticks": 440640,
            "time": 262.285452,
            "velocity": 0.8267716535433071
          },
          {
            "duration": 0.08571419999998398,
            "durationTicks": 144,
            "midi": 62,
            "name": "D4",
            "ticks": 440880,
            "time": 262.428309,
            "velocity": 0.8267716535433071
          },
          {
            "duration": 0.08571419999998398,
            "durationTicks": 144,
            "midi": 63,
            "name": "D#4",
            "ticks": 441120,
            "time": 262.571166,
            "velocity": 0.8267716535433071
          },
          {
            "duration": 0.08571419999998398,
            "durationTicks": 144,
            "midi": 65,
            "name": "F4",
            "ticks": 441360,
            "time": 262.714023,
            "velocity": 0.8267716535433071
          },
          {
            "duration": 0.08571419999998398,
            "durationTicks": 144,
            "midi": 67,
            "name": "G4",
            "ticks": 441600,
            "time": 262.85688000000005,
            "velocity": 0.8267716535433071
          },
          {
            "duration": 0.08571419999998398,
            "durationTicks": 144,
            "midi": 51,
            "name": "D#3",
            "ticks": 441840,
            "time": 262.99973700000004,
            "velocity": 0.8267716535433071
          },
          {
            "duration": 0.08571419999998398,
            "durationTicks": 144,
            "midi": 53,
            "name": "F3",
            "ticks": 442080,
            "time": 263.14259400000003,
            "velocity": 0.8267716535433071
          },
          {
            "duration": 0.08571419999998398,
            "durationTicks": 144,
            "midi": 55,
            "name": "G3",
            "ticks": 442320,
            "time": 263.285451,
            "velocity": 0.8267716535433071
          },
          {
            "duration": 0.08571419999998398,
            "durationTicks": 144,
            "midi": 57,
            "name": "A3",
            "ticks": 442560,
            "time": 263.428308,
            "velocity": 0.8267716535433071
          },
          {
            "duration": 0.08571419999998398,
            "durationTicks": 144,
            "midi": 55,
            "name": "G3",
            "ticks": 442800,
            "time": 263.571165,
            "velocity": 0.8267716535433071
          },
          {
            "duration": 0.08571419999998398,
            "durationTicks": 144,
            "midi": 57,
            "name": "A3",
            "ticks": 443040,
            "time": 263.714022,
            "velocity": 0.8267716535433071
          },
          {
            "duration": 0.08571419999998398,
            "durationTicks": 144,
            "midi": 58,
            "name": "A#3",
            "ticks": 443280,
            "time": 263.85687900000005,
            "velocity": 0.8267716535433071
          },
          {
            "duration": 0.08571419999998398,
            "durationTicks": 144,
            "midi": 60,
            "name": "C4",
            "ticks": 443520,
            "time": 263.99973600000004,
            "velocity": 0.8267716535433071
          },
          {
            "duration": 0.08571419999998398,
            "durationTicks": 144,
            "midi": 57,
            "name": "A3",
            "ticks": 443760,
            "time": 264.14259300000003,
            "velocity": 0.8267716535433071
          },
          {
            "duration": 0.08571419999998398,
            "durationTicks": 144,
            "midi": 58,
            "name": "A#3",
            "ticks": 444000,
            "time": 264.28545,
            "velocity": 0.8267716535433071
          },
          {
            "duration": 0.08571419999998398,
            "durationTicks": 144,
            "midi": 60,
            "name": "C4",
            "ticks": 444240,
            "time": 264.428307,
            "velocity": 0.8267716535433071
          },
          {
            "duration": 0.08571419999998398,
            "durationTicks": 144,
            "midi": 62,
            "name": "D4",
            "ticks": 444480,
            "time": 264.571164,
            "velocity": 0.8267716535433071
          },
          {
            "duration": 0.08571419999998398,
            "durationTicks": 144,
            "midi": 61,
            "name": "C#4",
            "ticks": 444720,
            "time": 264.714021,
            "velocity": 0.8267716535433071
          },
          {
            "duration": 0.08571420000004082,
            "durationTicks": 144,
            "midi": 62,
            "name": "D4",
            "ticks": 444960,
            "time": 264.856878,
            "velocity": 0.8267716535433071
          },
          {
            "duration": 0.08571419999998398,
            "durationTicks": 144,
            "midi": 64,
            "name": "E4",
            "ticks": 445200,
            "time": 264.99973500000004,
            "velocity": 0.8267716535433071
          },
          {
            "duration": 0.08571419999998398,
            "durationTicks": 144,
            "midi": 66,
            "name": "F#4",
            "ticks": 445440,
            "time": 265.14259200000004,
            "velocity": 0.8267716535433071
          },
          {
            "duration": 0.08571419999998398,
            "durationTicks": 144,
            "midi": 62,
            "name": "D4",
            "ticks": 445680,
            "time": 265.285449,
            "velocity": 0.8267716535433071
          },
          {
            "duration": 0.08571419999998398,
            "durationTicks": 144,
            "midi": 64,
            "name": "E4",
            "ticks": 445920,
            "time": 265.428306,
            "velocity": 0.8267716535433071
          },
          {
            "duration": 0.08571419999998398,
            "durationTicks": 144,
            "midi": 66,
            "name": "F#4",
            "ticks": 446160,
            "time": 265.571163,
            "velocity": 0.8267716535433071
          },
          {
            "duration": 0.08571419999998398,
            "durationTicks": 144,
            "midi": 67,
            "name": "G4",
            "ticks": 446400,
            "time": 265.71402,
            "velocity": 0.8267716535433071
          },
          {
            "duration": 0.08571419999998398,
            "durationTicks": 144,
            "midi": 63,
            "name": "D#4",
            "ticks": 446640,
            "time": 265.856877,
            "velocity": 0.8267716535433071
          },
          {
            "duration": 0.08571419999998398,
            "durationTicks": 144,
            "midi": 62,
            "name": "D4",
            "ticks": 446880,
            "time": 265.99973400000005,
            "velocity": 0.8267716535433071
          },
          {
            "duration": 0.08571419999998398,
            "durationTicks": 144,
            "midi": 60,
            "name": "C4",
            "ticks": 447120,
            "time": 266.14259100000004,
            "velocity": 0.8267716535433071
          },
          {
            "duration": 0.08571419999998398,
            "durationTicks": 144,
            "midi": 58,
            "name": "A#3",
            "ticks": 447360,
            "time": 266.28544800000003,
            "velocity": 0.8267716535433071
          },
          {
            "duration": 0.08571419999998398,
            "durationTicks": 144,
            "midi": 60,
            "name": "C4",
            "ticks": 447600,
            "time": 266.428305,
            "velocity": 0.8267716535433071
          },
          {
            "duration": 0.08571419999998398,
            "durationTicks": 144,
            "midi": 58,
            "name": "A#3",
            "ticks": 447840,
            "time": 266.571162,
            "velocity": 0.8267716535433071
          },
          {
            "duration": 0.08571419999998398,
            "durationTicks": 144,
            "midi": 57,
            "name": "A3",
            "ticks": 448080,
            "time": 266.714019,
            "velocity": 0.8267716535433071
          },
          {
            "duration": 0.08571419999998398,
            "durationTicks": 144,
            "midi": 55,
            "name": "G3",
            "ticks": 448320,
            "time": 266.856876,
            "velocity": 0.8267716535433071
          },
          {
            "duration": 0.08571419999998398,
            "durationTicks": 144,
            "midi": 53,
            "name": "F3",
            "ticks": 448560,
            "time": 266.99973300000005,
            "velocity": 0.8267716535433071
          },
          {
            "duration": 0.08571419999998398,
            "durationTicks": 144,
            "midi": 55,
            "name": "G3",
            "ticks": 448800,
            "time": 267.14259000000004,
            "velocity": 0.8267716535433071
          },
          {
            "duration": 0.08571419999998398,
            "durationTicks": 144,
            "midi": 56,
            "name": "G#3",
            "ticks": 449040,
            "time": 267.28544700000003,
            "velocity": 0.8267716535433071
          },
          {
            "duration": 0.11428560000001653,
            "durationTicks": 192,
            "midi": 57,
            "name": "A3",
            "ticks": 449280,
            "time": 267.428304,
            "velocity": 0.8267716535433071
          },
          {
            "duration": 0.11428560000001653,
            "durationTicks": 192,
            "midi": 57,
            "name": "A3",
            "ticks": 449520,
            "time": 267.571161,
            "velocity": 0.8267716535433071
          },
          {
            "duration": 0.11428560000001653,
            "durationTicks": 192,
            "midi": 57,
            "name": "A3",
            "ticks": 449760,
            "time": 267.714018,
            "velocity": 0.8267716535433071
          },
          {
            "duration": 0.11428560000001653,
            "durationTicks": 192,
            "midi": 57,
            "name": "A3",
            "ticks": 450000,
            "time": 267.856875,
            "velocity": 0.8267716535433071
          },
          {
            "duration": 0.11428560000001653,
            "durationTicks": 192,
            "midi": 57,
            "name": "A3",
            "ticks": 450240,
            "time": 267.999732,
            "velocity": 0.8267716535433071
          },
          {
            "duration": 0.11428559999995969,
            "durationTicks": 192,
            "midi": 57,
            "name": "A3",
            "ticks": 450480,
            "time": 268.14258900000004,
            "velocity": 0.8267716535433071
          },
          {
            "duration": 0.11428559999995969,
            "durationTicks": 192,
            "midi": 57,
            "name": "A3",
            "ticks": 450720,
            "time": 268.28544600000004,
            "velocity": 0.8267716535433071
          },
          {
            "duration": 0.11428559999995969,
            "durationTicks": 192,
            "midi": 57,
            "name": "A3",
            "ticks": 450960,
            "time": 268.428303,
            "velocity": 0.8267716535433071
          },
          {
            "duration": 0.11428560000001653,
            "durationTicks": 192,
            "midi": 57,
            "name": "A3",
            "ticks": 451200,
            "time": 268.57116,
            "velocity": 0.8267716535433071
          },
          {
            "duration": 0.11428560000001653,
            "durationTicks": 192,
            "midi": 57,
            "name": "A3",
            "ticks": 451440,
            "time": 268.714017,
            "velocity": 0.8267716535433071
          },
          {
            "duration": 0.11428560000001653,
            "durationTicks": 192,
            "midi": 57,
            "name": "A3",
            "ticks": 451680,
            "time": 268.856874,
            "velocity": 0.8267716535433071
          },
          {
            "duration": 0.11428560000001653,
            "durationTicks": 192,
            "midi": 57,
            "name": "A3",
            "ticks": 451920,
            "time": 268.999731,
            "velocity": 0.8267716535433071
          },
          {
            "duration": 0.11428559999995969,
            "durationTicks": 192,
            "midi": 57,
            "name": "A3",
            "ticks": 452160,
            "time": 269.14258800000005,
            "velocity": 0.8267716535433071
          },
          {
            "duration": 0.11428559999995969,
            "durationTicks": 192,
            "midi": 57,
            "name": "A3",
            "ticks": 452400,
            "time": 269.28544500000004,
            "velocity": 0.8267716535433071
          },
          {
            "duration": 0.11428559999995969,
            "durationTicks": 192,
            "midi": 57,
            "name": "A3",
            "ticks": 452640,
            "time": 269.42830200000003,
            "velocity": 0.8267716535433071
          },
          {
            "duration": 0.11428560000001653,
            "durationTicks": 192,
            "midi": 57,
            "name": "A3",
            "ticks": 452880,
            "time": 269.571159,
            "velocity": 0.8267716535433071
          },
          {
            "duration": 0.11428560000001653,
            "durationTicks": 192,
            "midi": 57,
            "name": "A3",
            "ticks": 453120,
            "time": 269.714016,
            "velocity": 0.8267716535433071
          },
          {
            "duration": 0.11428560000001653,
            "durationTicks": 192,
            "midi": 57,
            "name": "A3",
            "ticks": 453360,
            "time": 269.856873,
            "velocity": 0.8267716535433071
          },
          {
            "duration": 0.11428560000001653,
            "durationTicks": 192,
            "midi": 57,
            "name": "A3",
            "ticks": 453600,
            "time": 269.99973,
            "velocity": 0.8267716535433071
          },
          {
            "duration": 0.11428559999995969,
            "durationTicks": 192,
            "midi": 57,
            "name": "A3",
            "ticks": 453840,
            "time": 270.14258700000005,
            "velocity": 0.8267716535433071
          },
          {
            "duration": 0.11428559999995969,
            "durationTicks": 192,
            "midi": 57,
            "name": "A3",
            "ticks": 454080,
            "time": 270.28544400000004,
            "velocity": 0.8267716535433071
          },
          {
            "duration": 0.11428559999995969,
            "durationTicks": 192,
            "midi": 57,
            "name": "A3",
            "ticks": 454320,
            "time": 270.42830100000003,
            "velocity": 0.8267716535433071
          },
          {
            "duration": 0.11428560000001653,
            "durationTicks": 192,
            "midi": 57,
            "name": "A3",
            "ticks": 454560,
            "time": 270.571158,
            "velocity": 0.8267716535433071
          },
          {
            "duration": 0.11428560000001653,
            "durationTicks": 192,
            "midi": 57,
            "name": "A3",
            "ticks": 454800,
            "time": 270.714015,
            "velocity": 0.8267716535433071
          },
          {
            "duration": 0.11428560000001653,
            "durationTicks": 192,
            "midi": 57,
            "name": "A3",
            "ticks": 455040,
            "time": 270.856872,
            "velocity": 0.8267716535433071
          },
          {
            "duration": 0.11428560000001653,
            "durationTicks": 192,
            "midi": 57,
            "name": "A3",
            "ticks": 455280,
            "time": 270.999729,
            "velocity": 0.8267716535433071
          },
          {
            "duration": 0.11428560000001653,
            "durationTicks": 192,
            "midi": 57,
            "name": "A3",
            "ticks": 455520,
            "time": 271.142586,
            "velocity": 0.8267716535433071
          },
          {
            "duration": 0.11428559999995969,
            "durationTicks": 192,
            "midi": 57,
            "name": "A3",
            "ticks": 455760,
            "time": 271.28544300000004,
            "velocity": 0.8267716535433071
          },
          {
            "duration": 0.11428559999995969,
            "durationTicks": 192,
            "midi": 57,
            "name": "A3",
            "ticks": 456000,
            "time": 271.42830000000004,
            "velocity": 0.8267716535433071
          },
          {
            "duration": 0.11428559999995969,
            "durationTicks": 192,
            "midi": 57,
            "name": "A3",
            "ticks": 456240,
            "time": 271.571157,
            "velocity": 0.8267716535433071
          },
          {
            "duration": 0.11428560000001653,
            "durationTicks": 192,
            "midi": 57,
            "name": "A3",
            "ticks": 456480,
            "time": 271.714014,
            "velocity": 0.8267716535433071
          },
          {
            "duration": 0.11428560000001653,
            "durationTicks": 192,
            "midi": 57,
            "name": "A3",
            "ticks": 456720,
            "time": 271.856871,
            "velocity": 0.8267716535433071
          },
          {
            "duration": 0.4571424000000093,
            "durationTicks": 768,
            "midi": 57,
            "name": "A3",
            "ticks": 456960,
            "time": 271.999728,
            "velocity": 0.8267716535433071
          },
          {
            "duration": 0.5142851999999607,
            "durationTicks": 864,
            "midi": 72,
            "name": "C5",
            "ticks": 473760,
            "time": 281.99971800000003,
            "velocity": 0.4566929133858268
          },
          {
            "duration": 0.4571424000000093,
            "durationTicks": 768,
            "midi": 72,
            "name": "C5",
            "ticks": 474720,
            "time": 282.571146,
            "velocity": 0.4566929133858268
          },
          {
            "duration": 0.5142851999999607,
            "durationTicks": 864,
            "midi": 72,
            "name": "C5",
            "ticks": 475680,
            "time": 283.142574,
            "velocity": 0.4566929133858268
          },
          {
            "duration": 0.5142852000000175,
            "durationTicks": 864,
            "midi": 69,
            "name": "A4",
            "ticks": 477600,
            "time": 284.28543,
            "velocity": 0.4566929133858268
          },
          {
            "duration": 0.4571424000000093,
            "durationTicks": 768,
            "midi": 69,
            "name": "A4",
            "ticks": 478560,
            "time": 284.85685800000005,
            "velocity": 0.4566929133858268
          },
          {
            "duration": 0.5142852000000175,
            "durationTicks": 864,
            "midi": 69,
            "name": "A4",
            "ticks": 479520,
            "time": 285.428286,
            "velocity": 0.4566929133858268
          },
          {
            "duration": 0.5142852000000175,
            "durationTicks": 864,
            "midi": 60,
            "name": "C4",
            "ticks": 481440,
            "time": 286.571142,
            "velocity": 0.4566929133858268
          },
          {
            "duration": 0.4571424000000093,
            "durationTicks": 768,
            "midi": 60,
            "name": "C4",
            "ticks": 482400,
            "time": 287.14257000000003,
            "velocity": 0.4566929133858268
          },
          {
            "duration": 0.5142852000000175,
            "durationTicks": 864,
            "midi": 60,
            "name": "C4",
            "ticks": 483360,
            "time": 287.713998,
            "velocity": 0.4566929133858268
          },
          {
            "duration": 0.14285700000004908,
            "durationTicks": 240,
            "midi": 70,
            "name": "A#4",
            "ticks": 485280,
            "time": 288.856854,
            "velocity": 0.9133858267716536
          },
          {
            "duration": 0.11428559999995969,
            "durationTicks": 192,
            "midi": 69,
            "name": "A4",
            "ticks": 485520,
            "time": 288.99971100000005,
            "velocity": 0.9133858267716536
          },
          {
            "duration": 0.22857119999997622,
            "durationTicks": 384,
            "midi": 69,
            "name": "A4",
            "ticks": 485760,
            "time": 289.14256800000004,
            "velocity": 0.9133858267716536
          },
          {
            "duration": 0.14285699999999224,
            "durationTicks": 240,
            "midi": 69,
            "name": "A4",
            "ticks": 487200,
            "time": 289.99971000000005,
            "velocity": 0.9133858267716536
          },
          {
            "duration": 0.11428559999995969,
            "durationTicks": 192,
            "midi": 70,
            "name": "A#4",
            "ticks": 487440,
            "time": 290.14256700000004,
            "velocity": 0.9133858267716536
          },
          {
            "duration": 0.22857119999997622,
            "durationTicks": 384,
            "midi": 70,
            "name": "A#4",
            "ticks": 487680,
            "time": 290.28542400000003,
            "velocity": 0.9133858267716536
          },
          {
            "duration": 0.14285699999999224,
            "durationTicks": 240,
            "midi": 70,
            "name": "A#4",
            "ticks": 489120,
            "time": 291.14256600000004,
            "velocity": 0.9133858267716536
          },
          {
            "duration": 0.11428559999995969,
            "durationTicks": 192,
            "midi": 69,
            "name": "A4",
            "ticks": 489360,
            "time": 291.28542300000004,
            "velocity": 0.9133858267716536
          },
          {
            "duration": 0.22857119999997622,
            "durationTicks": 384,
            "midi": 67,
            "name": "G4",
            "ticks": 489600,
            "time": 291.42828000000003,
            "velocity": 0.9133858267716536
          },
          {
            "duration": 0.14285699999999224,
            "durationTicks": 240,
            "midi": 67,
            "name": "G4",
            "ticks": 491040,
            "time": 292.28542200000004,
            "velocity": 0.9133858267716536
          },
          {
            "duration": 0.11428559999995969,
            "durationTicks": 192,
            "midi": 66,
            "name": "F#4",
            "ticks": 491280,
            "time": 292.42827900000003,
            "velocity": 0.9133858267716536
          },
          {
            "duration": 0.22857119999997622,
            "durationTicks": 384,
            "midi": 66,
            "name": "F#4",
            "ticks": 491520,
            "time": 292.571136,
            "velocity": 0.9133858267716536
          },
          {
            "duration": 0.14285699999999224,
            "durationTicks": 240,
            "midi": 68,
            "name": "G#4",
            "ticks": 492960,
            "time": 293.42827800000003,
            "velocity": 0.9133858267716536
          },
          {
            "duration": 0.11428560000001653,
            "durationTicks": 192,
            "midi": 69,
            "name": "A4",
            "ticks": 493200,
            "time": 293.571135,
            "velocity": 0.9133858267716536
          },
          {
            "duration": 0.22857119999997622,
            "durationTicks": 384,
            "midi": 69,
            "name": "A4",
            "ticks": 493440,
            "time": 293.713992,
            "velocity": 0.9133858267716536
          },
          {
            "duration": 0.14285699999999224,
            "durationTicks": 240,
            "midi": 72,
            "name": "C5",
            "ticks": 494880,
            "time": 294.57113400000003,
            "velocity": 0.9133858267716536
          },
          {
            "duration": 0.11428560000001653,
            "durationTicks": 192,
            "midi": 70,
            "name": "A#4",
            "ticks": 495120,
            "time": 294.713991,
            "velocity": 0.9133858267716536
          },
          {
            "duration": 0.22857119999997622,
            "durationTicks": 384,
            "midi": 70,
            "name": "A#4",
            "ticks": 495360,
            "time": 294.856848,
            "velocity": 0.9133858267716536
          },
          {
            "duration": 0.14285699999999224,
            "durationTicks": 240,
            "midi": 71,
            "name": "B4",
            "ticks": 496800,
            "time": 295.71399,
            "velocity": 0.9133858267716536
          },
          {
            "duration": 0.11428560000001653,
            "durationTicks": 192,
            "midi": 72,
            "name": "C5",
            "ticks": 497040,
            "time": 295.856847,
            "velocity": 0.9133858267716536
          },
          {
            "duration": 0.22857119999997622,
            "durationTicks": 384,
            "midi": 72,
            "name": "C5",
            "ticks": 497280,
            "time": 295.999704,
            "velocity": 0.9133858267716536
          },
          {
            "duration": 0.14285699999999224,
            "durationTicks": 240,
            "midi": 69,
            "name": "A4",
            "ticks": 497760,
            "time": 296.28541800000005,
            "velocity": 0.9133858267716536
          },
          {
            "duration": 0.11428560000001653,
            "durationTicks": 192,
            "midi": 67,
            "name": "G4",
            "ticks": 498000,
            "time": 296.42827500000004,
            "velocity": 0.9133858267716536
          },
          {
            "duration": 0.22857119999997622,
            "durationTicks": 384,
            "midi": 67,
            "name": "G4",
            "ticks": 498240,
            "time": 296.57113200000003,
            "velocity": 0.9133858267716536
          },
          {
            "duration": 0.14285699999999224,
            "durationTicks": 240,
            "midi": 67,
            "name": "G4",
            "ticks": 498720,
            "time": 296.856846,
            "velocity": 0.9133858267716536
          },
          {
            "duration": 0.11428560000001653,
            "durationTicks": 192,
            "midi": 69,
            "name": "A4",
            "ticks": 498960,
            "time": 296.999703,
            "velocity": 0.9133858267716536
          },
          {
            "duration": 0.22857120000003306,
            "durationTicks": 384,
            "midi": 69,
            "name": "A4",
            "ticks": 499200,
            "time": 297.14256,
            "velocity": 0.8267716535433071
          },
          {
            "duration": 0.11428560000001653,
            "durationTicks": 192,
            "midi": 55,
            "name": "G3",
            "ticks": 510720,
            "time": 303.99969600000003,
            "velocity": 0.5511811023622047
          },
          {
            "duration": 0.11428560000001653,
            "durationTicks": 192,
            "midi": 58,
            "name": "A#3",
            "ticks": 510720,
            "time": 303.99969600000003,
            "velocity": 0.5511811023622047
          },
          {
            "duration": 0.11428560000001653,
            "durationTicks": 192,
            "midi": 55,
            "name": "G3",
            "ticks": 510960,
            "time": 304.142553,
            "velocity": 0.5511811023622047
          },
          {
            "duration": 0.11428560000001653,
            "durationTicks": 192,
            "midi": 58,
            "name": "A#3",
            "ticks": 510960,
            "time": 304.142553,
            "velocity": 0.5511811023622047
          },
          {
            "duration": 0.11428560000001653,
            "durationTicks": 192,
            "midi": 62,
            "name": "D4",
            "ticks": 511200,
            "time": 304.28541,
            "velocity": 0.5511811023622047
          },
          {
            "duration": 0.11428560000001653,
            "durationTicks": 192,
            "midi": 67,
            "name": "G4",
            "ticks": 511200,
            "time": 304.28541,
            "velocity": 0.5511811023622047
          },
          {
            "duration": 0.11428560000007337,
            "durationTicks": 192,
            "midi": 62,
            "name": "D4",
            "ticks": 511440,
            "time": 304.428267,
            "velocity": 0.5511811023622047
          },
          {
            "duration": 0.11428560000007337,
            "durationTicks": 192,
            "midi": 67,
            "name": "G4",
            "ticks": 511440,
            "time": 304.428267,
            "velocity": 0.5511811023622047
          },
          {
            "duration": 0.11428560000007337,
            "durationTicks": 192,
            "midi": 55,
            "name": "G3",
            "ticks": 511680,
            "time": 304.571124,
            "velocity": 0.5511811023622047
          },
          {
            "duration": 0.11428560000007337,
            "durationTicks": 192,
            "midi": 58,
            "name": "A#3",
            "ticks": 511680,
            "time": 304.571124,
            "velocity": 0.5511811023622047
          },
          {
            "duration": 0.11428560000001653,
            "durationTicks": 192,
            "midi": 55,
            "name": "G3",
            "ticks": 511920,
            "time": 304.71398100000005,
            "velocity": 0.5511811023622047
          },
          {
            "duration": 0.11428560000001653,
            "durationTicks": 192,
            "midi": 58,
            "name": "A#3",
            "ticks": 511920,
            "time": 304.71398100000005,
            "velocity": 0.5511811023622047
          },
          {
            "duration": 0.11428560000001653,
            "durationTicks": 192,
            "midi": 62,
            "name": "D4",
            "ticks": 512160,
            "time": 304.85683800000004,
            "velocity": 0.5511811023622047
          },
          {
            "duration": 0.11428560000001653,
            "durationTicks": 192,
            "midi": 67,
            "name": "G4",
            "ticks": 512160,
            "time": 304.85683800000004,
            "velocity": 0.5511811023622047
          },
          {
            "duration": 0.11428560000001653,
            "durationTicks": 192,
            "midi": 62,
            "name": "D4",
            "ticks": 512400,
            "time": 304.99969500000003,
            "velocity": 0.5511811023622047
          },
          {
            "duration": 0.11428560000001653,
            "durationTicks": 192,
            "midi": 67,
            "name": "G4",
            "ticks": 512400,
            "time": 304.99969500000003,
            "velocity": 0.5511811023622047
          },
          {
            "duration": 0.11428560000001653,
            "durationTicks": 192,
            "midi": 55,
            "name": "G3",
            "ticks": 512640,
            "time": 305.142552,
            "velocity": 0.5511811023622047
          },
          {
            "duration": 0.11428560000001653,
            "durationTicks": 192,
            "midi": 58,
            "name": "A#3",
            "ticks": 512640,
            "time": 305.142552,
            "velocity": 0.5511811023622047
          },
          {
            "duration": 0.11428560000001653,
            "durationTicks": 192,
            "midi": 55,
            "name": "G3",
            "ticks": 512880,
            "time": 305.285409,
            "velocity": 0.5511811023622047
          },
          {
            "duration": 0.11428560000001653,
            "durationTicks": 192,
            "midi": 58,
            "name": "A#3",
            "ticks": 512880,
            "time": 305.285409,
            "velocity": 0.5511811023622047
          },
          {
            "duration": 0.11428560000001653,
            "durationTicks": 192,
            "midi": 58,
            "name": "A#3",
            "ticks": 513120,
            "time": 305.428266,
            "velocity": 0.5511811023622047
          },
          {
            "duration": 0.11428560000001653,
            "durationTicks": 192,
            "midi": 62,
            "name": "D4",
            "ticks": 513120,
            "time": 305.428266,
            "velocity": 0.5511811023622047
          },
          {
            "duration": 0.11428560000007337,
            "durationTicks": 192,
            "midi": 58,
            "name": "A#3",
            "ticks": 513360,
            "time": 305.571123,
            "velocity": 0.5511811023622047
          },
          {
            "duration": 0.11428560000007337,
            "durationTicks": 192,
            "midi": 62,
            "name": "D4",
            "ticks": 513360,
            "time": 305.571123,
            "velocity": 0.5511811023622047
          },
          {
            "duration": 0.11428560000001653,
            "durationTicks": 192,
            "midi": 55,
            "name": "G3",
            "ticks": 513600,
            "time": 305.71398000000005,
            "velocity": 0.5511811023622047
          },
          {
            "duration": 0.11428560000001653,
            "durationTicks": 192,
            "midi": 58,
            "name": "A#3",
            "ticks": 513600,
            "time": 305.71398000000005,
            "velocity": 0.5511811023622047
          },
          {
            "duration": 0.11428560000001653,
            "durationTicks": 192,
            "midi": 55,
            "name": "G3",
            "ticks": 513840,
            "time": 305.85683700000004,
            "velocity": 0.5511811023622047
          },
          {
            "duration": 0.11428560000001653,
            "durationTicks": 192,
            "midi": 58,
            "name": "A#3",
            "ticks": 513840,
            "time": 305.85683700000004,
            "velocity": 0.5511811023622047
          },
          {
            "duration": 0.11428560000001653,
            "durationTicks": 192,
            "midi": 58,
            "name": "A#3",
            "ticks": 514080,
            "time": 305.99969400000003,
            "velocity": 0.5511811023622047
          },
          {
            "duration": 0.11428560000001653,
            "durationTicks": 192,
            "midi": 67,
            "name": "G4",
            "ticks": 514080,
            "time": 305.99969400000003,
            "velocity": 0.5511811023622047
          },
          {
            "duration": 0.11428560000001653,
            "durationTicks": 192,
            "midi": 58,
            "name": "A#3",
            "ticks": 514320,
            "time": 306.142551,
            "velocity": 0.5511811023622047
          },
          {
            "duration": 0.11428560000001653,
            "durationTicks": 192,
            "midi": 67,
            "name": "G4",
            "ticks": 514320,
            "time": 306.142551,
            "velocity": 0.5511811023622047
          },
          {
            "duration": 0.11428560000001653,
            "durationTicks": 192,
            "midi": 57,
            "name": "A3",
            "ticks": 514560,
            "time": 306.285408,
            "velocity": 0.5511811023622047
          },
          {
            "duration": 0.11428560000001653,
            "durationTicks": 192,
            "midi": 63,
            "name": "D#4",
            "ticks": 514560,
            "time": 306.285408,
            "velocity": 0.5511811023622047
          },
          {
            "duration": 0.11428560000001653,
            "durationTicks": 192,
            "midi": 57,
            "name": "A3",
            "ticks": 514800,
            "time": 306.428265,
            "velocity": 0.5511811023622047
          },
          {
            "duration": 0.11428560000001653,
            "durationTicks": 192,
            "midi": 63,
            "name": "D#4",
            "ticks": 514800,
            "time": 306.428265,
            "velocity": 0.5511811023622047
          },
          {
            "duration": 0.11428560000007337,
            "durationTicks": 192,
            "midi": 63,
            "name": "D#4",
            "ticks": 515040,
            "time": 306.571122,
            "velocity": 0.5511811023622047
          },
          {
            "duration": 0.11428560000007337,
            "durationTicks": 192,
            "midi": 69,
            "name": "A4",
            "ticks": 515040,
            "time": 306.571122,
            "velocity": 0.5511811023622047
          },
          {
            "duration": 0.11428560000001653,
            "durationTicks": 192,
            "midi": 63,
            "name": "D#4",
            "ticks": 515280,
            "time": 306.71397900000005,
            "velocity": 0.5511811023622047
          },
          {
            "duration": 0.11428560000001653,
            "durationTicks": 192,
            "midi": 69,
            "name": "A4",
            "ticks": 515280,
            "time": 306.71397900000005,
            "velocity": 0.5511811023622047
          },
          {
            "duration": 0.11428560000001653,
            "durationTicks": 192,
            "midi": 57,
            "name": "A3",
            "ticks": 515520,
            "time": 306.85683600000004,
            "velocity": 0.5511811023622047
          },
          {
            "duration": 0.11428560000001653,
            "durationTicks": 192,
            "midi": 63,
            "name": "D#4",
            "ticks": 515520,
            "time": 306.85683600000004,
            "velocity": 0.5511811023622047
          },
          {
            "duration": 0.11428560000001653,
            "durationTicks": 192,
            "midi": 57,
            "name": "A3",
            "ticks": 515760,
            "time": 306.99969300000004,
            "velocity": 0.5511811023622047
          },
          {
            "duration": 0.11428560000001653,
            "durationTicks": 192,
            "midi": 63,
            "name": "D#4",
            "ticks": 515760,
            "time": 306.99969300000004,
            "velocity": 0.5511811023622047
          },
          {
            "duration": 0.11428560000001653,
            "durationTicks": 192,
            "midi": 63,
            "name": "D#4",
            "ticks": 516000,
            "time": 307.14255,
            "velocity": 0.5511811023622047
          },
          {
            "duration": 0.11428560000001653,
            "durationTicks": 192,
            "midi": 69,
            "name": "A4",
            "ticks": 516000,
            "time": 307.14255,
            "velocity": 0.5511811023622047
          },
          {
            "duration": 0.11428560000001653,
            "durationTicks": 192,
            "midi": 63,
            "name": "D#4",
            "ticks": 516240,
            "time": 307.285407,
            "velocity": 0.5511811023622047
          },
          {
            "duration": 0.11428560000001653,
            "durationTicks": 192,
            "midi": 69,
            "name": "A4",
            "ticks": 516240,
            "time": 307.285407,
            "velocity": 0.5511811023622047
          },
          {
            "duration": 0.11428560000001653,
            "durationTicks": 192,
            "midi": 57,
            "name": "A3",
            "ticks": 516480,
            "time": 307.428264,
            "velocity": 0.5511811023622047
          },
          {
            "duration": 0.11428560000001653,
            "durationTicks": 192,
            "midi": 63,
            "name": "D#4",
            "ticks": 516480,
            "time": 307.428264,
            "velocity": 0.5511811023622047
          },
          {
            "duration": 0.11428560000007337,
            "durationTicks": 192,
            "midi": 57,
            "name": "A3",
            "ticks": 516720,
            "time": 307.571121,
            "velocity": 0.5511811023622047
          },
          {
            "duration": 0.11428560000007337,
            "durationTicks": 192,
            "midi": 63,
            "name": "D#4",
            "ticks": 516720,
            "time": 307.571121,
            "velocity": 0.5511811023622047
          },
          {
            "duration": 0.11428560000007337,
            "durationTicks": 192,
            "midi": 63,
            "name": "D#4",
            "ticks": 516960,
            "time": 307.713978,
            "velocity": 0.5511811023622047
          },
          {
            "duration": 0.11428560000007337,
            "durationTicks": 192,
            "midi": 69,
            "name": "A4",
            "ticks": 516960,
            "time": 307.713978,
            "velocity": 0.5511811023622047
          },
          {
            "duration": 0.11428560000001653,
            "durationTicks": 192,
            "midi": 63,
            "name": "D#4",
            "ticks": 517200,
            "time": 307.85683500000005,
            "velocity": 0.5511811023622047
          },
          {
            "duration": 0.11428560000001653,
            "durationTicks": 192,
            "midi": 69,
            "name": "A4",
            "ticks": 517200,
            "time": 307.85683500000005,
            "velocity": 0.5511811023622047
          },
          {
            "duration": 0.11428560000001653,
            "durationTicks": 192,
            "midi": 57,
            "name": "A3",
            "ticks": 517440,
            "time": 307.99969200000004,
            "velocity": 0.5511811023622047
          },
          {
            "duration": 0.11428560000001653,
            "durationTicks": 192,
            "midi": 63,
            "name": "D#4",
            "ticks": 517440,
            "time": 307.99969200000004,
            "velocity": 0.5511811023622047
          },
          {
            "duration": 0.11428560000001653,
            "durationTicks": 192,
            "midi": 57,
            "name": "A3",
            "ticks": 517680,
            "time": 308.14254900000003,
            "velocity": 0.5511811023622047
          },
          {
            "duration": 0.11428560000001653,
            "durationTicks": 192,
            "midi": 63,
            "name": "D#4",
            "ticks": 517680,
            "time": 308.14254900000003,
            "velocity": 0.5511811023622047
          },
          {
            "duration": 0.11428560000001653,
            "durationTicks": 192,
            "midi": 63,
            "name": "D#4",
            "ticks": 517920,
            "time": 308.285406,
            "velocity": 0.5511811023622047
          },
          {
            "duration": 0.11428560000001653,
            "durationTicks": 192,
            "midi": 69,
            "name": "A4",
            "ticks": 517920,
            "time": 308.285406,
            "velocity": 0.5511811023622047
          },
          {
            "duration": 0.11428560000001653,
            "durationTicks": 192,
            "midi": 63,
            "name": "D#4",
            "ticks": 518160,
            "time": 308.428263,
            "velocity": 0.5511811023622047
          },
          {
            "duration": 0.11428560000001653,
            "durationTicks": 192,
            "midi": 69,
            "name": "A4",
            "ticks": 518160,
            "time": 308.428263,
            "velocity": 0.5511811023622047
          },
          {
            "duration": 0.11428560000001653,
            "durationTicks": 192,
            "midi": 57,
            "name": "A3",
            "ticks": 518400,
            "time": 308.57112,
            "velocity": 0.5511811023622047
          },
          {
            "duration": 0.11428560000001653,
            "durationTicks": 192,
            "midi": 62,
            "name": "D4",
            "ticks": 518400,
            "time": 308.57112,
            "velocity": 0.5511811023622047
          },
          {
            "duration": 0.11428560000007337,
            "durationTicks": 192,
            "midi": 57,
            "name": "A3",
            "ticks": 518640,
            "time": 308.713977,
            "velocity": 0.5511811023622047
          },
          {
            "duration": 0.11428560000007337,
            "durationTicks": 192,
            "midi": 62,
            "name": "D4",
            "ticks": 518640,
            "time": 308.713977,
            "velocity": 0.5511811023622047
          },
          {
            "duration": 0.11428560000001653,
            "durationTicks": 192,
            "midi": 62,
            "name": "D4",
            "ticks": 518880,
            "time": 308.85683400000005,
            "velocity": 0.5511811023622047
          },
          {
            "duration": 0.11428560000001653,
            "durationTicks": 192,
            "midi": 72,
            "name": "C5",
            "ticks": 518880,
            "time": 308.85683400000005,
            "velocity": 0.5511811023622047
          },
          {
            "duration": 0.11428560000001653,
            "durationTicks": 192,
            "midi": 62,
            "name": "D4",
            "ticks": 519120,
            "time": 308.99969100000004,
            "velocity": 0.5511811023622047
          },
          {
            "duration": 0.11428560000001653,
            "durationTicks": 192,
            "midi": 72,
            "name": "C5",
            "ticks": 519120,
            "time": 308.99969100000004,
            "velocity": 0.5511811023622047
          },
          {
            "duration": 0.11428560000001653,
            "durationTicks": 192,
            "midi": 57,
            "name": "A3",
            "ticks": 519360,
            "time": 309.14254800000003,
            "velocity": 0.5511811023622047
          },
          {
            "duration": 0.11428560000001653,
            "durationTicks": 192,
            "midi": 62,
            "name": "D4",
            "ticks": 519360,
            "time": 309.14254800000003,
            "velocity": 0.5511811023622047
          },
          {
            "duration": 0.11428560000001653,
            "durationTicks": 192,
            "midi": 57,
            "name": "A3",
            "ticks": 519600,
            "time": 309.285405,
            "velocity": 0.5511811023622047
          },
          {
            "duration": 0.11428560000001653,
            "durationTicks": 192,
            "midi": 62,
            "name": "D4",
            "ticks": 519600,
            "time": 309.285405,
            "velocity": 0.5511811023622047
          },
          {
            "duration": 0.11428560000001653,
            "durationTicks": 192,
            "midi": 62,
            "name": "D4",
            "ticks": 519840,
            "time": 309.428262,
            "velocity": 0.5511811023622047
          },
          {
            "duration": 0.11428560000001653,
            "durationTicks": 192,
            "midi": 72,
            "name": "C5",
            "ticks": 519840,
            "time": 309.428262,
            "velocity": 0.5511811023622047
          },
          {
            "duration": 0.11428560000001653,
            "durationTicks": 192,
            "midi": 62,
            "name": "D4",
            "ticks": 520080,
            "time": 309.571119,
            "velocity": 0.5511811023622047
          },
          {
            "duration": 0.11428560000001653,
            "durationTicks": 192,
            "midi": 72,
            "name": "C5",
            "ticks": 520080,
            "time": 309.571119,
            "velocity": 0.5511811023622047
          },
          {
            "duration": 0.11428560000007337,
            "durationTicks": 192,
            "midi": 57,
            "name": "A3",
            "ticks": 520320,
            "time": 309.713976,
            "velocity": 0.5511811023622047
          },
          {
            "duration": 0.11428560000007337,
            "durationTicks": 192,
            "midi": 60,
            "name": "C4",
            "ticks": 520320,
            "time": 309.713976,
            "velocity": 0.5511811023622047
          },
          {
            "duration": 0.11428560000001653,
            "durationTicks": 192,
            "midi": 57,
            "name": "A3",
            "ticks": 520560,
            "time": 309.85683300000005,
            "velocity": 0.5511811023622047
          },
          {
            "duration": 0.11428560000001653,
            "durationTicks": 192,
            "midi": 60,
            "name": "C4",
            "ticks": 520560,
            "time": 309.85683300000005,
            "velocity": 0.5511811023622047
          },
          {
            "duration": 0.11428560000001653,
            "durationTicks": 192,
            "midi": 60,
            "name": "C4",
            "ticks": 520800,
            "time": 309.99969000000004,
            "velocity": 0.5511811023622047
          },
          {
            "duration": 0.11428560000001653,
            "durationTicks": 192,
            "midi": 69,
            "name": "A4",
            "ticks": 520800,
            "time": 309.99969000000004,
            "velocity": 0.5511811023622047
          },
          {
            "duration": 0.11428560000001653,
            "durationTicks": 192,
            "midi": 60,
            "name": "C4",
            "ticks": 521040,
            "time": 310.14254700000004,
            "velocity": 0.5511811023622047
          },
          {
            "duration": 0.11428560000001653,
            "durationTicks": 192,
            "midi": 69,
            "name": "A4",
            "ticks": 521040,
            "time": 310.14254700000004,
            "velocity": 0.5511811023622047
          },
          {
            "duration": 0.11428560000001653,
            "durationTicks": 192,
            "midi": 57,
            "name": "A3",
            "ticks": 521280,
            "time": 310.285404,
            "velocity": 0.5511811023622047
          },
          {
            "duration": 0.11428560000001653,
            "durationTicks": 192,
            "midi": 66,
            "name": "F#4",
            "ticks": 521280,
            "time": 310.285404,
            "velocity": 0.5511811023622047
          },
          {
            "duration": 0.11428560000001653,
            "durationTicks": 192,
            "midi": 57,
            "name": "A3",
            "ticks": 521520,
            "time": 310.428261,
            "velocity": 0.5511811023622047
          },
          {
            "duration": 0.11428560000001653,
            "durationTicks": 192,
            "midi": 66,
            "name": "F#4",
            "ticks": 521520,
            "time": 310.428261,
            "velocity": 0.5511811023622047
          },
          {
            "duration": 0.11428560000001653,
            "durationTicks": 192,
            "midi": 66,
            "name": "F#4",
            "ticks": 521760,
            "time": 310.571118,
            "velocity": 0.5511811023622047
          },
          {
            "duration": 0.11428560000001653,
            "durationTicks": 192,
            "midi": 69,
            "name": "A4",
            "ticks": 521760,
            "time": 310.571118,
            "velocity": 0.5511811023622047
          },
          {
            "duration": 0.11428560000007337,
            "durationTicks": 192,
            "midi": 66,
            "name": "F#4",
            "ticks": 522000,
            "time": 310.713975,
            "velocity": 0.5511811023622047
          },
          {
            "duration": 0.11428560000007337,
            "durationTicks": 192,
            "midi": 69,
            "name": "A4",
            "ticks": 522000,
            "time": 310.713975,
            "velocity": 0.5511811023622047
          },
          {
            "duration": 0.11428560000001653,
            "durationTicks": 192,
            "midi": 55,
            "name": "G3",
            "ticks": 522240,
            "time": 310.85683200000005,
            "velocity": 0.5511811023622047
          },
          {
            "duration": 0.11428560000001653,
            "durationTicks": 192,
            "midi": 58,
            "name": "A#3",
            "ticks": 522240,
            "time": 310.85683200000005,
            "velocity": 0.5511811023622047
          },
          {
            "duration": 0.11428560000001653,
            "durationTicks": 192,
            "midi": 55,
            "name": "G3",
            "ticks": 522480,
            "time": 310.99968900000005,
            "velocity": 0.5511811023622047
          },
          {
            "duration": 0.11428560000001653,
            "durationTicks": 192,
            "midi": 58,
            "name": "A#3",
            "ticks": 522480,
            "time": 310.99968900000005,
            "velocity": 0.5511811023622047
          },
          {
            "duration": 0.11428560000001653,
            "durationTicks": 192,
            "midi": 62,
            "name": "D4",
            "ticks": 522720,
            "time": 311.14254600000004,
            "velocity": 0.5511811023622047
          },
          {
            "duration": 0.11428560000001653,
            "durationTicks": 192,
            "midi": 67,
            "name": "G4",
            "ticks": 522720,
            "time": 311.14254600000004,
            "velocity": 0.5511811023622047
          },
          {
            "duration": 0.11428560000001653,
            "durationTicks": 192,
            "midi": 62,
            "name": "D4",
            "ticks": 522960,
            "time": 311.28540300000003,
            "velocity": 0.5511811023622047
          },
          {
            "duration": 0.11428560000001653,
            "durationTicks": 192,
            "midi": 67,
            "name": "G4",
            "ticks": 522960,
            "time": 311.28540300000003,
            "velocity": 0.5511811023622047
          },
          {
            "duration": 0.11428560000001653,
            "durationTicks": 192,
            "midi": 55,
            "name": "G3",
            "ticks": 523200,
            "time": 311.42826,
            "velocity": 0.5511811023622047
          },
          {
            "duration": 0.11428560000001653,
            "durationTicks": 192,
            "midi": 58,
            "name": "A#3",
            "ticks": 523200,
            "time": 311.42826,
            "velocity": 0.5511811023622047
          },
          {
            "duration": 0.11428560000001653,
            "durationTicks": 192,
            "midi": 55,
            "name": "G3",
            "ticks": 523440,
            "time": 311.571117,
            "velocity": 0.5511811023622047
          },
          {
            "duration": 0.11428560000001653,
            "durationTicks": 192,
            "midi": 58,
            "name": "A#3",
            "ticks": 523440,
            "time": 311.571117,
            "velocity": 0.5511811023622047
          },
          {
            "duration": 0.11428560000001653,
            "durationTicks": 192,
            "midi": 62,
            "name": "D4",
            "ticks": 523680,
            "time": 311.713974,
            "velocity": 0.5511811023622047
          },
          {
            "duration": 0.11428560000001653,
            "durationTicks": 192,
            "midi": 67,
            "name": "G4",
            "ticks": 523680,
            "time": 311.713974,
            "velocity": 0.5511811023622047
          },
          {
            "duration": 0.11428560000007337,
            "durationTicks": 192,
            "midi": 62,
            "name": "D4",
            "ticks": 523920,
            "time": 311.856831,
            "velocity": 0.5511811023622047
          },
          {
            "duration": 0.11428560000007337,
            "durationTicks": 192,
            "midi": 67,
            "name": "G4",
            "ticks": 523920,
            "time": 311.856831,
            "velocity": 0.5511811023622047
          },
          {
            "duration": 0.11428560000001653,
            "durationTicks": 192,
            "midi": 57,
            "name": "A3",
            "ticks": 524160,
            "time": 311.99968800000005,
            "velocity": 0.5511811023622047
          },
          {
            "duration": 0.11428560000001653,
            "durationTicks": 192,
            "midi": 63,
            "name": "D#4",
            "ticks": 524160,
            "time": 311.99968800000005,
            "velocity": 0.5511811023622047
          },
          {
            "duration": 0.11428560000001653,
            "durationTicks": 192,
            "midi": 57,
            "name": "A3",
            "ticks": 524400,
            "time": 312.14254500000004,
            "velocity": 0.5511811023622047
          },
          {
            "duration": 0.11428560000001653,
            "durationTicks": 192,
            "midi": 63,
            "name": "D#4",
            "ticks": 524400,
            "time": 312.14254500000004,
            "velocity": 0.5511811023622047
          },
          {
            "duration": 0.11428560000001653,
            "durationTicks": 192,
            "midi": 63,
            "name": "D#4",
            "ticks": 524640,
            "time": 312.28540200000003,
            "velocity": 0.5511811023622047
          },
          {
            "duration": 0.11428560000001653,
            "durationTicks": 192,
            "midi": 66,
            "name": "F#4",
            "ticks": 524640,
            "time": 312.28540200000003,
            "velocity": 0.5511811023622047
          },
          {
            "duration": 0.11428560000001653,
            "durationTicks": 192,
            "midi": 63,
            "name": "D#4",
            "ticks": 524880,
            "time": 312.428259,
            "velocity": 0.5511811023622047
          },
          {
            "duration": 0.11428560000001653,
            "durationTicks": 192,
            "midi": 66,
            "name": "F#4",
            "ticks": 524880,
            "time": 312.428259,
            "velocity": 0.5511811023622047
          },
          {
            "duration": 0.11428560000001653,
            "durationTicks": 192,
            "midi": 57,
            "name": "A3",
            "ticks": 525120,
            "time": 312.571116,
            "velocity": 0.5511811023622047
          },
          {
            "duration": 0.11428560000001653,
            "durationTicks": 192,
            "midi": 63,
            "name": "D#4",
            "ticks": 525120,
            "time": 312.571116,
            "velocity": 0.5511811023622047
          },
          {
            "duration": 0.11428560000001653,
            "durationTicks": 192,
            "midi": 57,
            "name": "A3",
            "ticks": 525360,
            "time": 312.713973,
            "velocity": 0.5511811023622047
          },
          {
            "duration": 0.11428560000001653,
            "durationTicks": 192,
            "midi": 63,
            "name": "D#4",
            "ticks": 525360,
            "time": 312.713973,
            "velocity": 0.5511811023622047
          },
          {
            "duration": 0.11428560000007337,
            "durationTicks": 192,
            "midi": 63,
            "name": "D#4",
            "ticks": 525600,
            "time": 312.85683,
            "velocity": 0.5511811023622047
          },
          {
            "duration": 0.11428560000007337,
            "durationTicks": 192,
            "midi": 66,
            "name": "F#4",
            "ticks": 525600,
            "time": 312.85683,
            "velocity": 0.5511811023622047
          },
          {
            "duration": 0.11428560000001653,
            "durationTicks": 192,
            "midi": 63,
            "name": "D#4",
            "ticks": 525840,
            "time": 312.99968700000005,
            "velocity": 0.5511811023622047
          },
          {
            "duration": 0.11428560000001653,
            "durationTicks": 192,
            "midi": 66,
            "name": "F#4",
            "ticks": 525840,
            "time": 312.99968700000005,
            "velocity": 0.5511811023622047
          },
          {
            "duration": 0.11428560000001653,
            "durationTicks": 192,
            "midi": 55,
            "name": "G3",
            "ticks": 526080,
            "time": 313.14254400000004,
            "velocity": 0.5511811023622047
          },
          {
            "duration": 0.11428560000001653,
            "durationTicks": 192,
            "midi": 62,
            "name": "D4",
            "ticks": 526080,
            "time": 313.14254400000004,
            "velocity": 0.5511811023622047
          },
          {
            "duration": 0.11428560000001653,
            "durationTicks": 192,
            "midi": 55,
            "name": "G3",
            "ticks": 526320,
            "time": 313.28540100000004,
            "velocity": 0.5511811023622047
          },
          {
            "duration": 0.11428560000001653,
            "durationTicks": 192,
            "midi": 62,
            "name": "D4",
            "ticks": 526320,
            "time": 313.28540100000004,
            "velocity": 0.5511811023622047
          },
          {
            "duration": 0.11428560000001653,
            "durationTicks": 192,
            "midi": 62,
            "name": "D4",
            "ticks": 526560,
            "time": 313.428258,
            "velocity": 0.5511811023622047
          },
          {
            "duration": 0.11428560000001653,
            "durationTicks": 192,
            "midi": 67,
            "name": "G4",
            "ticks": 526560,
            "time": 313.428258,
            "velocity": 0.5511811023622047
          },
          {
            "duration": 0.11428560000001653,
            "durationTicks": 192,
            "midi": 62,
            "name": "D4",
            "ticks": 526800,
            "time": 313.571115,
            "velocity": 0.5511811023622047
          },
          {
            "duration": 0.11428560000001653,
            "durationTicks": 192,
            "midi": 67,
            "name": "G4",
            "ticks": 526800,
            "time": 313.571115,
            "velocity": 0.5511811023622047
          },
          {
            "duration": 0.11428560000001653,
            "durationTicks": 192,
            "midi": 55,
            "name": "G3",
            "ticks": 527040,
            "time": 313.713972,
            "velocity": 0.5511811023622047
          },
          {
            "duration": 0.11428560000001653,
            "durationTicks": 192,
            "midi": 62,
            "name": "D4",
            "ticks": 527040,
            "time": 313.713972,
            "velocity": 0.5511811023622047
          },
          {
            "duration": 0.11428560000007337,
            "durationTicks": 192,
            "midi": 55,
            "name": "G3",
            "ticks": 527280,
            "time": 313.856829,
            "velocity": 0.5511811023622047
          },
          {
            "duration": 0.11428560000007337,
            "durationTicks": 192,
            "midi": 62,
            "name": "D4",
            "ticks": 527280,
            "time": 313.856829,
            "velocity": 0.5511811023622047
          },
          {
            "duration": 0.11428560000001653,
            "durationTicks": 192,
            "midi": 62,
            "name": "D4",
            "ticks": 527520,
            "time": 313.99968600000005,
            "velocity": 0.5511811023622047
          },
          {
            "duration": 0.11428560000001653,
            "durationTicks": 192,
            "midi": 67,
            "name": "G4",
            "ticks": 527520,
            "time": 313.99968600000005,
            "velocity": 0.5511811023622047
          },
          {
            "duration": 0.11428560000001653,
            "durationTicks": 192,
            "midi": 62,
            "name": "D4",
            "ticks": 527760,
            "time": 314.14254300000005,
            "velocity": 0.5511811023622047
          },
          {
            "duration": 0.11428560000001653,
            "durationTicks": 192,
            "midi": 67,
            "name": "G4",
            "ticks": 527760,
            "time": 314.14254300000005,
            "velocity": 0.5511811023622047
          },
          {
            "duration": 0.11428560000001653,
            "durationTicks": 192,
            "midi": 57,
            "name": "A3",
            "ticks": 528000,
            "time": 314.28540000000004,
            "velocity": 0.5511811023622047
          },
          {
            "duration": 0.11428560000001653,
            "durationTicks": 192,
            "midi": 63,
            "name": "D#4",
            "ticks": 528000,
            "time": 314.28540000000004,
            "velocity": 0.5511811023622047
          },
          {
            "duration": 0.11428560000001653,
            "durationTicks": 192,
            "midi": 57,
            "name": "A3",
            "ticks": 528240,
            "time": 314.42825700000003,
            "velocity": 0.5511811023622047
          },
          {
            "duration": 0.11428560000001653,
            "durationTicks": 192,
            "midi": 63,
            "name": "D#4",
            "ticks": 528240,
            "time": 314.42825700000003,
            "velocity": 0.5511811023622047
          },
          {
            "duration": 0.11428560000001653,
            "durationTicks": 192,
            "midi": 63,
            "name": "D#4",
            "ticks": 528480,
            "time": 314.571114,
            "velocity": 0.5511811023622047
          },
          {
            "duration": 0.11428560000001653,
            "durationTicks": 192,
            "midi": 66,
            "name": "F#4",
            "ticks": 528480,
            "time": 314.571114,
            "velocity": 0.5511811023622047
          },
          {
            "duration": 0.11428560000001653,
            "durationTicks": 192,
            "midi": 63,
            "name": "D#4",
            "ticks": 528720,
            "time": 314.713971,
            "velocity": 0.5511811023622047
          },
          {
            "duration": 0.11428560000001653,
            "durationTicks": 192,
            "midi": 66,
            "name": "F#4",
            "ticks": 528720,
            "time": 314.713971,
            "velocity": 0.5511811023622047
          },
          {
            "duration": 0.11428560000001653,
            "durationTicks": 192,
            "midi": 57,
            "name": "A3",
            "ticks": 528960,
            "time": 314.856828,
            "velocity": 0.5511811023622047
          },
          {
            "duration": 0.11428560000001653,
            "durationTicks": 192,
            "midi": 63,
            "name": "D#4",
            "ticks": 528960,
            "time": 314.856828,
            "velocity": 0.5511811023622047
          },
          {
            "duration": 0.11428560000007337,
            "durationTicks": 192,
            "midi": 57,
            "name": "A3",
            "ticks": 529200,
            "time": 314.999685,
            "velocity": 0.5511811023622047
          },
          {
            "duration": 0.11428560000007337,
            "durationTicks": 192,
            "midi": 63,
            "name": "D#4",
            "ticks": 529200,
            "time": 314.999685,
            "velocity": 0.5511811023622047
          },
          {
            "duration": 0.11428560000001653,
            "durationTicks": 192,
            "midi": 63,
            "name": "D#4",
            "ticks": 529440,
            "time": 315.14254200000005,
            "velocity": 0.5511811023622047
          },
          {
            "duration": 0.11428560000001653,
            "durationTicks": 192,
            "midi": 66,
            "name": "F#4",
            "ticks": 529440,
            "time": 315.14254200000005,
            "velocity": 0.5511811023622047
          },
          {
            "duration": 0.11428560000001653,
            "durationTicks": 192,
            "midi": 63,
            "name": "D#4",
            "ticks": 529680,
            "time": 315.28539900000004,
            "velocity": 0.5511811023622047
          },
          {
            "duration": 0.11428560000001653,
            "durationTicks": 192,
            "midi": 66,
            "name": "F#4",
            "ticks": 529680,
            "time": 315.28539900000004,
            "velocity": 0.5511811023622047
          },
          {
            "duration": 1.0857131999999865,
            "durationTicks": 1824,
            "midi": 55,
            "name": "G3",
            "ticks": 529920,
            "time": 315.42825600000003,
            "velocity": 0.5511811023622047
          },
          {
            "duration": 1.0857131999999865,
            "durationTicks": 1824,
            "midi": 62,
            "name": "D4",
            "ticks": 529920,
            "time": 315.42825600000003,
            "velocity": 0.5511811023622047
          },
          {
            "duration": 0.8571420000000103,
            "durationTicks": 1440,
            "midi": 58,
            "name": "A#3",
            "ticks": 531840,
            "time": 316.571112,
            "velocity": 0.5511811023622047
          },
          {
            "duration": 0.2857139999999845,
            "durationTicks": 480,
            "midi": 57,
            "name": "A3",
            "ticks": 533280,
            "time": 317.42825400000004,
            "velocity": 0.5511811023622047
          },
          {
            "duration": 0.5714280000000258,
            "durationTicks": 960,
            "midi": 55,
            "name": "G3",
            "ticks": 533760,
            "time": 317.713968,
            "velocity": 0.5511811023622047
          },
          {
            "duration": 0.2857139999999845,
            "durationTicks": 480,
            "midi": 54,
            "name": "F#3",
            "ticks": 534720,
            "time": 318.28539600000005,
            "velocity": 0.5511811023622047
          },
          {
            "duration": 0.22857119999997622,
            "durationTicks": 384,
            "midi": 55,
            "name": "G3",
            "ticks": 535200,
            "time": 318.57111000000003,
            "velocity": 0.5511811023622047
          },
          {
            "duration": 0.4571424000000093,
            "durationTicks": 768,
            "midi": 57,
            "name": "A3",
            "ticks": 535680,
            "time": 318.856824,
            "velocity": 0.4566929133858268
          },
          {
            "duration": 0.11428560000001653,
            "durationTicks": 192,
            "midi": 62,
            "name": "D4",
            "ticks": 537120,
            "time": 319.713966,
            "velocity": 0.4566929133858268
          },
          {
            "duration": 0.11428560000001653,
            "durationTicks": 192,
            "midi": 62,
            "name": "D4",
            "ticks": 537360,
            "time": 319.856823,
            "velocity": 0.8267716535433071
          },
          {
            "duration": 0.4571424000000093,
            "durationTicks": 768,
            "midi": 62,
            "name": "D4",
            "ticks": 537600,
            "time": 319.99968,
            "velocity": 0.8267716535433071
          },
          {
            "duration": 0.11428560000001653,
            "durationTicks": 192,
            "midi": 62,
            "name": "D4",
            "ticks": 539040,
            "time": 320.856822,
            "velocity": 0.8267716535433071
          },
          {
            "duration": 0.11428560000001653,
            "durationTicks": 192,
            "midi": 62,
            "name": "D4",
            "ticks": 539280,
            "time": 320.999679,
            "velocity": 0.8267716535433071
          },
          {
            "duration": 0.4571424000000093,
            "durationTicks": 768,
            "midi": 62,
            "name": "D4",
            "ticks": 539520,
            "time": 321.142536,
            "velocity": 0.8267716535433071
          },
          {
            "duration": 0.09999990000000025,
            "durationTicks": 168,
            "midi": 62,
            "name": "D4",
            "ticks": 540960,
            "time": 321.999678,
            "velocity": 0.8267716535433071
          },
          {
            "duration": 0.09999990000000025,
            "durationTicks": 168,
            "midi": 62,
            "name": "D4",
            "ticks": 541200,
            "time": 322.142535,
            "velocity": 0.8267716535433071
          },
          {
            "duration": 0.19999980000005735,
            "durationTicks": 336,
            "midi": 62,
            "name": "D4",
            "ticks": 541440,
            "time": 322.285392,
            "velocity": 0.8267716535433071
          },
          {
            "duration": 0.09999989999994341,
            "durationTicks": 168,
            "midi": 62,
            "name": "D4",
            "ticks": 541920,
            "time": 322.57110600000004,
            "velocity": 0.8267716535433071
          },
          {
            "duration": 0.09999989999994341,
            "durationTicks": 168,
            "midi": 62,
            "name": "D4",
            "ticks": 542160,
            "time": 322.71396300000004,
            "velocity": 0.8267716535433071
          },
          {
            "duration": 0.1999998000000005,
            "durationTicks": 336,
            "midi": 62,
            "name": "D4",
            "ticks": 542400,
            "time": 322.85682,
            "velocity": 0.8267716535433071
          },
          {
            "duration": 0.09999990000000025,
            "durationTicks": 168,
            "midi": 62,
            "name": "D4",
            "ticks": 542880,
            "time": 323.142534,
            "velocity": 0.8267716535433071
          },
          {
            "duration": 0.09999990000000025,
            "durationTicks": 168,
            "midi": 62,
            "name": "D4",
            "ticks": 543120,
            "time": 323.285391,
            "velocity": 0.8267716535433071
          },
          {
            "duration": 0.45714239999995243,
            "durationTicks": 768,
            "midi": 62,
            "name": "D4",
            "ticks": 543360,
            "time": 323.42824800000005,
            "velocity": 0.8267716535433071
          },
          {
            "duration": 0.11428560000001653,
            "durationTicks": 192,
            "midi": 55,
            "name": "G3",
            "ticks": 547200,
            "time": 325.71396000000004,
            "velocity": 0.5511811023622047
          },
          {
            "duration": 0.11428560000001653,
            "durationTicks": 192,
            "midi": 58,
            "name": "A#3",
            "ticks": 547200,
            "time": 325.71396000000004,
            "velocity": 0.5511811023622047
          },
          {
            "duration": 0.11428560000001653,
            "durationTicks": 192,
            "midi": 55,
            "name": "G3",
            "ticks": 547440,
            "time": 325.85681700000004,
            "velocity": 0.5511811023622047
          },
          {
            "duration": 0.11428560000001653,
            "durationTicks": 192,
            "midi": 58,
            "name": "A#3",
            "ticks": 547440,
            "time": 325.85681700000004,
            "velocity": 0.5511811023622047
          },
          {
            "duration": 0.11428560000001653,
            "durationTicks": 192,
            "midi": 62,
            "name": "D4",
            "ticks": 547680,
            "time": 325.999674,
            "velocity": 0.5511811023622047
          },
          {
            "duration": 0.11428560000001653,
            "durationTicks": 192,
            "midi": 67,
            "name": "G4",
            "ticks": 547680,
            "time": 325.999674,
            "velocity": 0.5511811023622047
          },
          {
            "duration": 0.11428560000001653,
            "durationTicks": 192,
            "midi": 62,
            "name": "D4",
            "ticks": 547920,
            "time": 326.142531,
            "velocity": 0.5511811023622047
          },
          {
            "duration": 0.11428560000001653,
            "durationTicks": 192,
            "midi": 67,
            "name": "G4",
            "ticks": 547920,
            "time": 326.142531,
            "velocity": 0.5511811023622047
          },
          {
            "duration": 0.11428560000001653,
            "durationTicks": 192,
            "midi": 55,
            "name": "G3",
            "ticks": 548160,
            "time": 326.285388,
            "velocity": 0.5511811023622047
          },
          {
            "duration": 0.11428560000001653,
            "durationTicks": 192,
            "midi": 58,
            "name": "A#3",
            "ticks": 548160,
            "time": 326.285388,
            "velocity": 0.5511811023622047
          },
          {
            "duration": 0.11428560000007337,
            "durationTicks": 192,
            "midi": 55,
            "name": "G3",
            "ticks": 548400,
            "time": 326.428245,
            "velocity": 0.5511811023622047
          },
          {
            "duration": 0.11428560000007337,
            "durationTicks": 192,
            "midi": 58,
            "name": "A#3",
            "ticks": 548400,
            "time": 326.428245,
            "velocity": 0.5511811023622047
          },
          {
            "duration": 0.11428560000001653,
            "durationTicks": 192,
            "midi": 62,
            "name": "D4",
            "ticks": 548640,
            "time": 326.57110200000005,
            "velocity": 0.5511811023622047
          },
          {
            "duration": 0.11428560000001653,
            "durationTicks": 192,
            "midi": 67,
            "name": "G4",
            "ticks": 548640,
            "time": 326.57110200000005,
            "velocity": 0.5511811023622047
          },
          {
            "duration": 0.11428560000001653,
            "durationTicks": 192,
            "midi": 62,
            "name": "D4",
            "ticks": 548880,
            "time": 326.71395900000005,
            "velocity": 0.5511811023622047
          },
          {
            "duration": 0.11428560000001653,
            "durationTicks": 192,
            "midi": 67,
            "name": "G4",
            "ticks": 548880,
            "time": 326.71395900000005,
            "velocity": 0.5511811023622047
          },
          {
            "duration": 0.11428560000001653,
            "durationTicks": 192,
            "midi": 58,
            "name": "A#3",
            "ticks": 549120,
            "time": 326.85681600000004,
            "velocity": 0.5511811023622047
          },
          {
            "duration": 0.11428560000001653,
            "durationTicks": 192,
            "midi": 63,
            "name": "D#4",
            "ticks": 549120,
            "time": 326.85681600000004,
            "velocity": 0.5511811023622047
          },
          {
            "duration": 0.11428560000001653,
            "durationTicks": 192,
            "midi": 58,
            "name": "A#3",
            "ticks": 549360,
            "time": 326.99967300000003,
            "velocity": 0.5511811023622047
          },
          {
            "duration": 0.11428560000001653,
            "durationTicks": 192,
            "midi": 63,
            "name": "D#4",
            "ticks": 549360,
            "time": 326.99967300000003,
            "velocity": 0.5511811023622047
          },
          {
            "duration": 0.11428560000001653,
            "durationTicks": 192,
            "midi": 63,
            "name": "D#4",
            "ticks": 549600,
            "time": 327.14253,
            "velocity": 0.5511811023622047
          },
          {
            "duration": 0.11428560000001653,
            "durationTicks": 192,
            "midi": 67,
            "name": "G4",
            "ticks": 549600,
            "time": 327.14253,
            "velocity": 0.5511811023622047
          },
          {
            "duration": 0.11428560000001653,
            "durationTicks": 192,
            "midi": 63,
            "name": "D#4",
            "ticks": 549840,
            "time": 327.285387,
            "velocity": 0.5511811023622047
          },
          {
            "duration": 0.11428560000001653,
            "durationTicks": 192,
            "midi": 67,
            "name": "G4",
            "ticks": 549840,
            "time": 327.285387,
            "velocity": 0.5511811023622047
          },
          {
            "duration": 0.11428560000007337,
            "durationTicks": 192,
            "midi": 58,
            "name": "A#3",
            "ticks": 550080,
            "time": 327.428244,
            "velocity": 0.5511811023622047
          },
          {
            "duration": 0.11428560000007337,
            "durationTicks": 192,
            "midi": 63,
            "name": "D#4",
            "ticks": 550080,
            "time": 327.428244,
            "velocity": 0.5511811023622047
          },
          {
            "duration": 0.11428560000007337,
            "durationTicks": 192,
            "midi": 58,
            "name": "A#3",
            "ticks": 550320,
            "time": 327.571101,
            "velocity": 0.5511811023622047
          },
          {
            "duration": 0.11428560000007337,
            "durationTicks": 192,
            "midi": 63,
            "name": "D#4",
            "ticks": 550320,
            "time": 327.571101,
            "velocity": 0.5511811023622047
          },
          {
            "duration": 0.11428560000001653,
            "durationTicks": 192,
            "midi": 67,
            "name": "G4",
            "ticks": 550560,
            "time": 327.71395800000005,
            "velocity": 0.5511811023622047
          },
          {
            "duration": 0.11428560000001653,
            "durationTicks": 192,
            "midi": 70,
            "name": "A#4",
            "ticks": 550560,
            "time": 327.71395800000005,
            "velocity": 0.5511811023622047
          },
          {
            "duration": 0.11428560000001653,
            "durationTicks": 192,
            "midi": 67,
            "name": "G4",
            "ticks": 550800,
            "time": 327.85681500000004,
            "velocity": 0.5511811023622047
          },
          {
            "duration": 0.11428560000001653,
            "durationTicks": 192,
            "midi": 70,
            "name": "A#4",
            "ticks": 550800,
            "time": 327.85681500000004,
            "velocity": 0.5511811023622047
          },
          {
            "duration": 0.11428560000001653,
            "durationTicks": 192,
            "midi": 56,
            "name": "G#3",
            "ticks": 551040,
            "time": 327.99967200000003,
            "velocity": 0.5511811023622047
          },
          {
            "duration": 0.11428560000001653,
            "durationTicks": 192,
            "midi": 58,
            "name": "A#3",
            "ticks": 551040,
            "time": 327.99967200000003,
            "velocity": 0.5511811023622047
          },
          {
            "duration": 0.11428560000001653,
            "durationTicks": 192,
            "midi": 56,
            "name": "G#3",
            "ticks": 551280,
            "time": 328.142529,
            "velocity": 0.5511811023622047
          },
          {
            "duration": 0.11428560000001653,
            "durationTicks": 192,
            "midi": 58,
            "name": "A#3",
            "ticks": 551280,
            "time": 328.142529,
            "velocity": 0.5511811023622047
          },
          {
            "duration": 0.11428560000001653,
            "durationTicks": 192,
            "midi": 58,
            "name": "A#3",
            "ticks": 551520,
            "time": 328.285386,
            "velocity": 0.5511811023622047
          },
          {
            "duration": 0.11428560000001653,
            "durationTicks": 192,
            "midi": 68,
            "name": "G#4",
            "ticks": 551520,
            "time": 328.285386,
            "velocity": 0.5511811023622047
          },
          {
            "duration": 0.11428560000001653,
            "durationTicks": 192,
            "midi": 58,
            "name": "A#3",
            "ticks": 551760,
            "time": 328.428243,
            "velocity": 0.5511811023622047
          },
          {
            "duration": 0.11428560000001653,
            "durationTicks": 192,
            "midi": 68,
            "name": "G#4",
            "ticks": 551760,
            "time": 328.428243,
            "velocity": 0.5511811023622047
          },
          {
            "duration": 0.11428560000007337,
            "durationTicks": 192,
            "midi": 56,
            "name": "G#3",
            "ticks": 552000,
            "time": 328.5711,
            "velocity": 0.5511811023622047
          },
          {
            "duration": 0.11428560000007337,
            "durationTicks": 192,
            "midi": 58,
            "name": "A#3",
            "ticks": 552000,
            "time": 328.5711,
            "velocity": 0.5511811023622047
          },
          {
            "duration": 0.11428560000001653,
            "durationTicks": 192,
            "midi": 56,
            "name": "G#3",
            "ticks": 552240,
            "time": 328.71395700000005,
            "velocity": 0.5511811023622047
          },
          {
            "duration": 0.11428560000001653,
            "durationTicks": 192,
            "midi": 58,
            "name": "A#3",
            "ticks": 552240,
            "time": 328.71395700000005,
            "velocity": 0.5511811023622047
          },
          {
            "duration": 0.11428560000001653,
            "durationTicks": 192,
            "midi": 58,
            "name": "A#3",
            "ticks": 552480,
            "time": 328.85681400000004,
            "velocity": 0.5511811023622047
          },
          {
            "duration": 0.11428560000001653,
            "durationTicks": 192,
            "midi": 62,
            "name": "D4",
            "ticks": 552480,
            "time": 328.85681400000004,
            "velocity": 0.5511811023622047
          },
          {
            "duration": 0.11428560000001653,
            "durationTicks": 192,
            "midi": 58,
            "name": "A#3",
            "ticks": 552720,
            "time": 328.99967100000003,
            "velocity": 0.5511811023622047
          },
          {
            "duration": 0.11428560000001653,
            "durationTicks": 192,
            "midi": 62,
            "name": "D4",
            "ticks": 552720,
            "time": 328.99967100000003,
            "velocity": 0.5511811023622047
          },
          {
            "duration": 0.11428560000001653,
            "durationTicks": 192,
            "midi": 53,
            "name": "F3",
            "ticks": 552960,
            "time": 329.142528,
            "velocity": 0.5511811023622047
          },
          {
            "duration": 0.11428560000001653,
            "durationTicks": 192,
            "midi": 59,
            "name": "B3",
            "ticks": 552960,
            "time": 329.142528,
            "velocity": 0.5511811023622047
          },
          {
            "duration": 0.11428560000001653,
            "durationTicks": 192,
            "midi": 53,
            "name": "F3",
            "ticks": 553200,
            "time": 329.285385,
            "velocity": 0.5511811023622047
          },
          {
            "duration": 0.11428560000001653,
            "durationTicks": 192,
            "midi": 59,
            "name": "B3",
            "ticks": 553200,
            "time": 329.285385,
            "velocity": 0.5511811023622047
          },
          {
            "duration": 0.11428560000001653,
            "durationTicks": 192,
            "midi": 59,
            "name": "B3",
            "ticks": 553440,
            "time": 329.428242,
            "velocity": 0.5511811023622047
          },
          {
            "duration": 0.11428560000001653,
            "durationTicks": 192,
            "midi": 65,
            "name": "F4",
            "ticks": 553440,
            "time": 329.428242,
            "velocity": 0.5511811023622047
          },
          {
            "duration": 0.11428560000007337,
            "durationTicks": 192,
            "midi": 59,
            "name": "B3",
            "ticks": 553680,
            "time": 329.571099,
            "velocity": 0.5511811023622047
          },
          {
            "duration": 0.11428560000007337,
            "durationTicks": 192,
            "midi": 65,
            "name": "F4",
            "ticks": 553680,
            "time": 329.571099,
            "velocity": 0.5511811023622047
          },
          {
            "duration": 0.11428560000001653,
            "durationTicks": 192,
            "midi": 53,
            "name": "F3",
            "ticks": 553920,
            "time": 329.71395600000005,
            "velocity": 0.5511811023622047
          },
          {
            "duration": 0.11428560000001653,
            "durationTicks": 192,
            "midi": 59,
            "name": "B3",
            "ticks": 553920,
            "time": 329.71395600000005,
            "velocity": 0.5511811023622047
          },
          {
            "duration": 0.11428560000001653,
            "durationTicks": 192,
            "midi": 53,
            "name": "F3",
            "ticks": 554160,
            "time": 329.85681300000005,
            "velocity": 0.5511811023622047
          },
          {
            "duration": 0.11428560000001653,
            "durationTicks": 192,
            "midi": 59,
            "name": "B3",
            "ticks": 554160,
            "time": 329.85681300000005,
            "velocity": 0.5511811023622047
          },
          {
            "duration": 0.11428560000001653,
            "durationTicks": 192,
            "midi": 59,
            "name": "B3",
            "ticks": 554400,
            "time": 329.99967000000004,
            "velocity": 0.5511811023622047
          },
          {
            "duration": 0.11428560000001653,
            "durationTicks": 192,
            "midi": 65,
            "name": "F4",
            "ticks": 554400,
            "time": 329.99967000000004,
            "velocity": 0.5511811023622047
          },
          {
            "duration": 0.11428560000001653,
            "durationTicks": 192,
            "midi": 59,
            "name": "B3",
            "ticks": 554640,
            "time": 330.14252700000003,
            "velocity": 0.5511811023622047
          },
          {
            "duration": 0.11428560000001653,
            "durationTicks": 192,
            "midi": 65,
            "name": "F4",
            "ticks": 554640,
            "time": 330.14252700000003,
            "velocity": 0.5511811023622047
          },
          {
            "duration": 0.11428560000001653,
            "durationTicks": 192,
            "midi": 53,
            "name": "F3",
            "ticks": 554880,
            "time": 330.285384,
            "velocity": 0.5511811023622047
          },
          {
            "duration": 0.11428560000001653,
            "durationTicks": 192,
            "midi": 58,
            "name": "A#3",
            "ticks": 554880,
            "time": 330.285384,
            "velocity": 0.5511811023622047
          },
          {
            "duration": 0.11428560000001653,
            "durationTicks": 192,
            "midi": 53,
            "name": "F3",
            "ticks": 555120,
            "time": 330.428241,
            "velocity": 0.5511811023622047
          },
          {
            "duration": 0.11428560000001653,
            "durationTicks": 192,
            "midi": 58,
            "name": "A#3",
            "ticks": 555120,
            "time": 330.428241,
            "velocity": 0.5511811023622047
          },
          {
            "duration": 0.11428560000007337,
            "durationTicks": 192,
            "midi": 65,
            "name": "F4",
            "ticks": 555360,
            "time": 330.571098,
            "velocity": 0.5511811023622047
          },
          {
            "duration": 0.11428560000007337,
            "durationTicks": 192,
            "midi": 68,
            "name": "G#4",
            "ticks": 555360,
            "time": 330.571098,
            "velocity": 0.5511811023622047
          },
          {
            "duration": 0.11428560000001653,
            "durationTicks": 192,
            "midi": 65,
            "name": "F4",
            "ticks": 555600,
            "time": 330.71395500000006,
            "velocity": 0.5511811023622047
          },
          {
            "duration": 0.11428560000001653,
            "durationTicks": 192,
            "midi": 68,
            "name": "G#4",
            "ticks": 555600,
            "time": 330.71395500000006,
            "velocity": 0.5511811023622047
          },
          {
            "duration": 0.11428560000001653,
            "durationTicks": 192,
            "midi": 53,
            "name": "F3",
            "ticks": 555840,
            "time": 330.85681200000005,
            "velocity": 0.5511811023622047
          },
          {
            "duration": 0.11428560000001653,
            "durationTicks": 192,
            "midi": 58,
            "name": "A#3",
            "ticks": 555840,
            "time": 330.85681200000005,
            "velocity": 0.5511811023622047
          },
          {
            "duration": 0.11428560000001653,
            "durationTicks": 192,
            "midi": 53,
            "name": "F3",
            "ticks": 556080,
            "time": 330.99966900000004,
            "velocity": 0.5511811023622047
          },
          {
            "duration": 0.11428560000001653,
            "durationTicks": 192,
            "midi": 58,
            "name": "A#3",
            "ticks": 556080,
            "time": 330.99966900000004,
            "velocity": 0.5511811023622047
          },
          {
            "duration": 0.11428560000001653,
            "durationTicks": 192,
            "midi": 65,
            "name": "F4",
            "ticks": 556320,
            "time": 331.14252600000003,
            "velocity": 0.5511811023622047
          },
          {
            "duration": 0.11428560000001653,
            "durationTicks": 192,
            "midi": 68,
            "name": "G#4",
            "ticks": 556320,
            "time": 331.14252600000003,
            "velocity": 0.5511811023622047
          },
          {
            "duration": 0.11428560000001653,
            "durationTicks": 192,
            "midi": 65,
            "name": "F4",
            "ticks": 556560,
            "time": 331.285383,
            "velocity": 0.5511811023622047
          },
          {
            "duration": 0.11428560000001653,
            "durationTicks": 192,
            "midi": 68,
            "name": "G#4",
            "ticks": 556560,
            "time": 331.285383,
            "velocity": 0.5511811023622047
          },
          {
            "duration": 0.11428560000001653,
            "durationTicks": 192,
            "midi": 53,
            "name": "F3",
            "ticks": 556800,
            "time": 331.42824,
            "velocity": 0.5511811023622047
          },
          {
            "duration": 0.11428560000001653,
            "durationTicks": 192,
            "midi": 56,
            "name": "G#3",
            "ticks": 556800,
            "time": 331.42824,
            "velocity": 0.5511811023622047
          },
          {
            "duration": 0.11428560000001653,
            "durationTicks": 192,
            "midi": 53,
            "name": "F3",
            "ticks": 557040,
            "time": 331.571097,
            "velocity": 0.5511811023622047
          },
          {
            "duration": 0.11428560000001653,
            "durationTicks": 192,
            "midi": 56,
            "name": "G#3",
            "ticks": 557040,
            "time": 331.571097,
            "velocity": 0.5511811023622047
          },
          {
            "duration": 0.11428560000007337,
            "durationTicks": 192,
            "midi": 56,
            "name": "G#3",
            "ticks": 557280,
            "time": 331.713954,
            "velocity": 0.5511811023622047
          },
          {
            "duration": 0.11428560000007337,
            "durationTicks": 192,
            "midi": 65,
            "name": "F4",
            "ticks": 557280,
            "time": 331.713954,
            "velocity": 0.5511811023622047
          },
          {
            "duration": 0.11428560000001653,
            "durationTicks": 192,
            "midi": 56,
            "name": "G#3",
            "ticks": 557520,
            "time": 331.85681100000005,
            "velocity": 0.5511811023622047
          },
          {
            "duration": 0.11428560000001653,
            "durationTicks": 192,
            "midi": 65,
            "name": "F4",
            "ticks": 557520,
            "time": 331.85681100000005,
            "velocity": 0.5511811023622047
          },
          {
            "duration": 0.11428560000001653,
            "durationTicks": 192,
            "midi": 53,
            "name": "F3",
            "ticks": 557760,
            "time": 331.99966800000004,
            "velocity": 0.5511811023622047
          },
          {
            "duration": 0.11428560000001653,
            "durationTicks": 192,
            "midi": 62,
            "name": "D4",
            "ticks": 557760,
            "time": 331.99966800000004,
            "velocity": 0.5511811023622047
          },
          {
            "duration": 0.11428560000001653,
            "durationTicks": 192,
            "midi": 53,
            "name": "F3",
            "ticks": 558000,
            "time": 332.14252500000003,
            "velocity": 0.5511811023622047
          },
          {
            "duration": 0.11428560000001653,
            "durationTicks": 192,
            "midi": 62,
            "name": "D4",
            "ticks": 558000,
            "time": 332.14252500000003,
            "velocity": 0.5511811023622047
          },
          {
            "duration": 0.11428560000001653,
            "durationTicks": 192,
            "midi": 62,
            "name": "D4",
            "ticks": 558240,
            "time": 332.285382,
            "velocity": 0.5511811023622047
          },
          {
            "duration": 0.11428560000001653,
            "durationTicks": 192,
            "midi": 65,
            "name": "F4",
            "ticks": 558240,
            "time": 332.285382,
            "velocity": 0.5511811023622047
          },
          {
            "duration": 0.11428560000001653,
            "durationTicks": 192,
            "midi": 62,
            "name": "D4",
            "ticks": 558480,
            "time": 332.428239,
            "velocity": 0.5511811023622047
          },
          {
            "duration": 0.11428560000001653,
            "durationTicks": 192,
            "midi": 65,
            "name": "F4",
            "ticks": 558480,
            "time": 332.428239,
            "velocity": 0.5511811023622047
          },
          {
            "duration": 0.22857119999997622,
            "durationTicks": 384,
            "midi": 63,
            "name": "D#4",
            "ticks": 558720,
            "time": 332.571096,
            "velocity": 0.8267716535433071
          },
          {
            "duration": 0.08571419999998398,
            "durationTicks": 144,
            "midi": 58,
            "name": "A#3",
            "ticks": 559200,
            "time": 332.85681000000005,
            "velocity": 0.8267716535433071
          },
          {
            "duration": 0.08571419999998398,
            "durationTicks": 144,
            "midi": 63,
            "name": "D#4",
            "ticks": 559440,
            "time": 332.99966700000004,
            "velocity": 0.8267716535433071
          },
          {
            "duration": 0.08571419999998398,
            "durationTicks": 144,
            "midi": 67,
            "name": "G4",
            "ticks": 559680,
            "time": 333.14252400000004,
            "velocity": 0.8267716535433071
          },
          {
            "duration": 0.08571419999998398,
            "durationTicks": 144,
            "midi": 65,
            "name": "F4",
            "ticks": 559920,
            "time": 333.28538100000003,
            "velocity": 0.8267716535433071
          },
          {
            "duration": 0.08571419999998398,
            "durationTicks": 144,
            "midi": 67,
            "name": "G4",
            "ticks": 560160,
            "time": 333.428238,
            "velocity": 0.8267716535433071
          },
          {
            "duration": 0.08571419999998398,
            "durationTicks": 144,
            "midi": 63,
            "name": "D#4",
            "ticks": 560400,
            "time": 333.571095,
            "velocity": 0.8267716535433071
          },
          {
            "duration": 0.11428560000007337,
            "durationTicks": 192,
            "midi": 62,
            "name": "D4",
            "ticks": 560640,
            "time": 333.713952,
            "velocity": 0.8267716535433071
          },
          {
            "duration": 0.11428560000001653,
            "durationTicks": 192,
            "midi": 63,
            "name": "D#4",
            "ticks": 560880,
            "time": 333.85680900000006,
            "velocity": 0.8267716535433071
          },
          {
            "duration": 0.11428560000001653,
            "durationTicks": 192,
            "midi": 65,
            "name": "F4",
            "ticks": 561120,
            "time": 333.99966600000005,
            "velocity": 0.8267716535433071
          },
          {
            "duration": 0.11428560000001653,
            "durationTicks": 192,
            "midi": 63,
            "name": "D#4",
            "ticks": 561360,
            "time": 334.14252300000004,
            "velocity": 0.8267716535433071
          },
          {
            "duration": 0.11428560000001653,
            "durationTicks": 192,
            "midi": 62,
            "name": "D4",
            "ticks": 561600,
            "time": 334.28538000000003,
            "velocity": 0.8267716535433071
          },
          {
            "duration": 0.11428560000001653,
            "durationTicks": 192,
            "midi": 60,
            "name": "C4",
            "ticks": 561840,
            "time": 334.428237,
            "velocity": 0.8267716535433071
          },
          {
            "duration": 0.11428560000001653,
            "durationTicks": 192,
            "midi": 62,
            "name": "D4",
            "ticks": 562080,
            "time": 334.571094,
            "velocity": 0.8267716535433071
          },
          {
            "duration": 0.11428560000001653,
            "durationTicks": 192,
            "midi": 58,
            "name": "A#3",
            "ticks": 562320,
            "time": 334.713951,
            "velocity": 0.8267716535433071
          },
          {
            "duration": 0.11428560000007337,
            "durationTicks": 192,
            "midi": 63,
            "name": "D#4",
            "ticks": 562560,
            "time": 334.856808,
            "velocity": 0.8267716535433071
          },
          {
            "duration": 0.11428560000001653,
            "durationTicks": 192,
            "midi": 60,
            "name": "C4",
            "ticks": 562800,
            "time": 334.99966500000005,
            "velocity": 0.8267716535433071
          },
          {
            "duration": 0.11428560000001653,
            "durationTicks": 192,
            "midi": 63,
            "name": "D#4",
            "ticks": 563040,
            "time": 335.14252200000004,
            "velocity": 0.8267716535433071
          },
          {
            "duration": 0.11428560000001653,
            "durationTicks": 192,
            "midi": 60,
            "name": "C4",
            "ticks": 563280,
            "time": 335.28537900000003,
            "velocity": 0.8267716535433071
          },
          {
            "duration": 0.11428560000001653,
            "durationTicks": 192,
            "midi": 63,
            "name": "D#4",
            "ticks": 563520,
            "time": 335.428236,
            "velocity": 0.8267716535433071
          },
          {
            "duration": 0.11428560000001653,
            "durationTicks": 192,
            "midi": 60,
            "name": "C4",
            "ticks": 563760,
            "time": 335.571093,
            "velocity": 0.8267716535433071
          },
          {
            "duration": 0.11428560000001653,
            "durationTicks": 192,
            "midi": 63,
            "name": "D#4",
            "ticks": 564000,
            "time": 335.71395,
            "velocity": 0.8267716535433071
          },
          {
            "duration": 0.11428560000007337,
            "durationTicks": 192,
            "midi": 60,
            "name": "C4",
            "ticks": 564240,
            "time": 335.856807,
            "velocity": 0.8267716535433071
          },
          {
            "duration": 0.11428560000001653,
            "durationTicks": 192,
            "midi": 63,
            "name": "D#4",
            "ticks": 564480,
            "time": 335.99966400000005,
            "velocity": 0.8267716535433071
          },
          {
            "duration": 0.11428560000001653,
            "durationTicks": 192,
            "midi": 58,
            "name": "A#3",
            "ticks": 564720,
            "time": 336.14252100000004,
            "velocity": 0.8267716535433071
          },
          {
            "duration": 0.11428560000001653,
            "durationTicks": 192,
            "midi": 63,
            "name": "D#4",
            "ticks": 564960,
            "time": 336.28537800000004,
            "velocity": 0.8267716535433071
          },
          {
            "duration": 0.11428560000001653,
            "durationTicks": 192,
            "midi": 58,
            "name": "A#3",
            "ticks": 565200,
            "time": 336.42823500000003,
            "velocity": 0.8267716535433071
          },
          {
            "duration": 0.11428560000001653,
            "durationTicks": 192,
            "midi": 63,
            "name": "D#4",
            "ticks": 565440,
            "time": 336.571092,
            "velocity": 0.8267716535433071
          },
          {
            "duration": 0.11428560000001653,
            "durationTicks": 192,
            "midi": 58,
            "name": "A#3",
            "ticks": 565680,
            "time": 336.713949,
            "velocity": 0.8267716535433071
          },
          {
            "duration": 0.11428560000007337,
            "durationTicks": 192,
            "midi": 63,
            "name": "D#4",
            "ticks": 565920,
            "time": 336.856806,
            "velocity": 0.8267716535433071
          },
          {
            "duration": 0.11428560000001653,
            "durationTicks": 192,
            "midi": 58,
            "name": "A#3",
            "ticks": 566160,
            "time": 336.99966300000006,
            "velocity": 0.8267716535433071
          },
          {
            "duration": 0.11428560000001653,
            "durationTicks": 192,
            "midi": 60,
            "name": "C4",
            "ticks": 566400,
            "time": 337.14252000000005,
            "velocity": 0.8267716535433071
          },
          {
            "duration": 0.11428560000001653,
            "durationTicks": 192,
            "midi": 68,
            "name": "G#4",
            "ticks": 566640,
            "time": 337.28537700000004,
            "velocity": 0.8267716535433071
          },
          {
            "duration": 0.11428560000001653,
            "durationTicks": 192,
            "midi": 72,
            "name": "C5",
            "ticks": 566880,
            "time": 337.42823400000003,
            "velocity": 0.8267716535433071
          },
          {
            "duration": 0.11428560000001653,
            "durationTicks": 192,
            "midi": 68,
            "name": "G#4",
            "ticks": 567120,
            "time": 337.571091,
            "velocity": 0.8267716535433071
          },
          {
            "duration": 0.11428560000001653,
            "durationTicks": 192,
            "midi": 72,
            "name": "C5",
            "ticks": 567360,
            "time": 337.713948,
            "velocity": 0.8267716535433071
          },
          {
            "duration": 0.11428560000007337,
            "durationTicks": 192,
            "midi": 68,
            "name": "G#4",
            "ticks": 567600,
            "time": 337.856805,
            "velocity": 0.8267716535433071
          },
          {
            "duration": 0.11428560000007337,
            "durationTicks": 192,
            "midi": 72,
            "name": "C5",
            "ticks": 567840,
            "time": 337.999662,
            "velocity": 0.8267716535433071
          },
          {
            "duration": 0.11428560000001653,
            "durationTicks": 192,
            "midi": 68,
            "name": "G#4",
            "ticks": 568080,
            "time": 338.14251900000005,
            "velocity": 0.8267716535433071
          },
          {
            "duration": 0.11428560000001653,
            "durationTicks": 192,
            "midi": 70,
            "name": "A#4",
            "ticks": 568320,
            "time": 338.28537600000004,
            "velocity": 0.8267716535433071
          },
          {
            "duration": 0.11428560000001653,
            "durationTicks": 192,
            "midi": 67,
            "name": "G4",
            "ticks": 568560,
            "time": 338.42823300000003,
            "velocity": 0.8267716535433071
          },
          {
            "duration": 0.11428560000001653,
            "durationTicks": 192,
            "midi": 70,
            "name": "A#4",
            "ticks": 568800,
            "time": 338.57109,
            "velocity": 0.8267716535433071
          },
          {
            "duration": 0.11428560000001653,
            "durationTicks": 192,
            "midi": 67,
            "name": "G4",
            "ticks": 569040,
            "time": 338.713947,
            "velocity": 0.8267716535433071
          },
          {
            "duration": 0.11428560000001653,
            "durationTicks": 192,
            "midi": 68,
            "name": "G#4",
            "ticks": 569280,
            "time": 338.856804,
            "velocity": 0.8267716535433071
          },
          {
            "duration": 0.11428560000007337,
            "durationTicks": 192,
            "midi": 65,
            "name": "F4",
            "ticks": 569520,
            "time": 338.999661,
            "velocity": 0.8267716535433071
          },
          {
            "duration": 0.11428560000001653,
            "durationTicks": 192,
            "midi": 68,
            "name": "G#4",
            "ticks": 569760,
            "time": 339.14251800000005,
            "velocity": 0.8267716535433071
          },
          {
            "duration": 0.11428560000001653,
            "durationTicks": 192,
            "midi": 65,
            "name": "F4",
            "ticks": 570000,
            "time": 339.28537500000004,
            "velocity": 0.8267716535433071
          },
          {
            "duration": 0.11428560000001653,
            "durationTicks": 192,
            "midi": 67,
            "name": "G4",
            "ticks": 570240,
            "time": 339.42823200000004,
            "velocity": 0.8267716535433071
          },
          {
            "duration": 0.11428560000001653,
            "durationTicks": 192,
            "midi": 64,
            "name": "E4",
            "ticks": 570480,
            "time": 339.57108900000003,
            "velocity": 0.8267716535433071
          },
          {
            "duration": 0.11428560000001653,
            "durationTicks": 192,
            "midi": 67,
            "name": "G4",
            "ticks": 570720,
            "time": 339.713946,
            "velocity": 0.8267716535433071
          },
          {
            "duration": 0.11428560000001653,
            "durationTicks": 192,
            "midi": 64,
            "name": "E4",
            "ticks": 570960,
            "time": 339.856803,
            "velocity": 0.8267716535433071
          },
          {
            "duration": 0.11428560000007337,
            "durationTicks": 192,
            "midi": 64,
            "name": "E4",
            "ticks": 571200,
            "time": 339.99966,
            "velocity": 0.8267716535433071
          },
          {
            "duration": 0.11428560000001653,
            "durationTicks": 192,
            "midi": 60,
            "name": "C4",
            "ticks": 571440,
            "time": 340.14251700000005,
            "velocity": 0.8267716535433071
          },
          {
            "duration": 0.11428560000001653,
            "durationTicks": 192,
            "midi": 64,
            "name": "E4",
            "ticks": 571680,
            "time": 340.28537400000005,
            "velocity": 0.8267716535433071
          },
          {
            "duration": 0.11428560000001653,
            "durationTicks": 192,
            "midi": 60,
            "name": "C4",
            "ticks": 571920,
            "time": 340.42823100000004,
            "velocity": 0.8267716535433071
          },
          {
            "duration": 0.9142848000000185,
            "durationTicks": 1536,
            "midi": 65,
            "name": "F4",
            "ticks": 572160,
            "time": 340.57108800000003,
            "velocity": 0.8267716535433071
          },
          {
            "duration": 0.6857136000000423,
            "durationTicks": 1152,
            "midi": 72,
            "name": "C5",
            "ticks": 574080,
            "time": 341.713944,
            "velocity": 0.8267716535433071
          },
          {
            "duration": 0.08571419999998398,
            "durationTicks": 144,
            "midi": 60,
            "name": "C4",
            "ticks": 575760,
            "time": 342.71394300000003,
            "velocity": 0.8267716535433071
          },
          {
            "duration": 0.17142839999996795,
            "durationTicks": 288,
            "midi": 58,
            "name": "A#3",
            "ticks": 576000,
            "time": 342.8568,
            "velocity": 0.8267716535433071
          },
          {
            "duration": 0.1714284000000248,
            "durationTicks": 288,
            "midi": 61,
            "name": "C#4",
            "ticks": 576480,
            "time": 343.142514,
            "velocity": 0.8267716535433071
          },
          {
            "duration": 0.17142839999996795,
            "durationTicks": 288,
            "midi": 67,
            "name": "G4",
            "ticks": 576960,
            "time": 343.42822800000005,
            "velocity": 0.8267716535433071
          },
          {
            "duration": 0.17142839999996795,
            "durationTicks": 288,
            "midi": 56,
            "name": "G#3",
            "ticks": 577920,
            "time": 343.999656,
            "velocity": 0.8267716535433071
          },
          {
            "duration": 0.1714284000000248,
            "durationTicks": 288,
            "midi": 60,
            "name": "C4",
            "ticks": 578400,
            "time": 344.28537,
            "velocity": 0.8267716535433071
          },
          {
            "duration": 0.17142839999996795,
            "durationTicks": 288,
            "midi": 65,
            "name": "F4",
            "ticks": 578880,
            "time": 344.57108400000004,
            "velocity": 0.8267716535433071
          },
          {
            "duration": 0.08571419999998398,
            "durationTicks": 144,
            "midi": 56,
            "name": "G#3",
            "ticks": 579600,
            "time": 344.999655,
            "velocity": 0.8267716535433071
          },
          {
            "duration": 0.17142839999996795,
            "durationTicks": 288,
            "midi": 55,
            "name": "G3",
            "ticks": 579840,
            "time": 345.142512,
            "velocity": 0.8267716535433071
          },
          {
            "duration": 0.17142839999996795,
            "durationTicks": 288,
            "midi": 58,
            "name": "A#3",
            "ticks": 580320,
            "time": 345.42822600000005,
            "velocity": 0.8267716535433071
          },
          {
            "duration": 0.17142839999996795,
            "durationTicks": 288,
            "midi": 64,
            "name": "E4",
            "ticks": 580800,
            "time": 345.71394000000004,
            "velocity": 0.8267716535433071
          },
          {
            "duration": 0.08571419999998398,
            "durationTicks": 144,
            "midi": 55,
            "name": "G3",
            "ticks": 581520,
            "time": 346.142511,
            "velocity": 0.8267716535433071
          },
          {
            "duration": 0.1714284000000248,
            "durationTicks": 288,
            "midi": 53,
            "name": "F3",
            "ticks": 581760,
            "time": 346.285368,
            "velocity": 0.8267716535433071
          },
          {
            "duration": 0.17142839999996795,
            "durationTicks": 288,
            "midi": 56,
            "name": "G#3",
            "ticks": 582240,
            "time": 346.57108200000005,
            "velocity": 0.8267716535433071
          },
          {
            "duration": 0.17142839999996795,
            "durationTicks": 288,
            "midi": 60,
            "name": "C4",
            "ticks": 582720,
            "time": 346.85679600000003,
            "velocity": 0.8267716535433071
          },
          {
            "duration": 0.08571419999998398,
            "durationTicks": 144,
            "midi": 53,
            "name": "F3",
            "ticks": 583440,
            "time": 347.285367,
            "velocity": 0.8267716535433071
          },
          {
            "duration": 0.1714284000000248,
            "durationTicks": 288,
            "midi": 58,
            "name": "A#3",
            "ticks": 583680,
            "time": 347.428224,
            "velocity": 0.8267716535433071
          },
          {
            "duration": 0.17142839999996795,
            "durationTicks": 288,
            "midi": 62,
            "name": "D4",
            "ticks": 584160,
            "time": 347.71393800000004,
            "velocity": 0.8267716535433071
          },
          {
            "duration": 0.17142839999996795,
            "durationTicks": 288,
            "midi": 65,
            "name": "F4",
            "ticks": 584640,
            "time": 347.999652,
            "velocity": 0.8267716535433071
          },
          {
            "duration": 0.08571420000004082,
            "durationTicks": 144,
            "midi": 58,
            "name": "A#3",
            "ticks": 585360,
            "time": 348.428223,
            "velocity": 0.8267716535433071
          },
          {
            "duration": 0.17142839999996795,
            "durationTicks": 288,
            "midi": 63,
            "name": "D#4",
            "ticks": 585600,
            "time": 348.57108000000005,
            "velocity": 0.8267716535433071
          },
          {
            "duration": 0.17142839999996795,
            "durationTicks": 288,
            "midi": 67,
            "name": "G4",
            "ticks": 586080,
            "time": 348.85679400000004,
            "velocity": 0.8267716535433071
          },
          {
            "duration": 0.17142839999996795,
            "durationTicks": 288,
            "midi": 70,
            "name": "A#4",
            "ticks": 586560,
            "time": 349.142508,
            "velocity": 0.8267716535433071
          },
          {
            "duration": 0.08571419999998398,
            "durationTicks": 144,
            "midi": 51,
            "name": "D#3",
            "ticks": 587280,
            "time": 349.57107900000005,
            "velocity": 0.8267716535433071
          },
          {
            "duration": 0.17142839999996795,
            "durationTicks": 288,
            "midi": 56,
            "name": "G#3",
            "ticks": 587520,
            "time": 349.71393600000005,
            "velocity": 0.8267716535433071
          },
          {
            "duration": 0.17142839999996795,
            "durationTicks": 288,
            "midi": 60,
            "name": "C4",
            "ticks": 588000,
            "time": 349.99965000000003,
            "velocity": 0.8267716535433071
          },
          {
            "duration": 0.17142839999996795,
            "durationTicks": 288,
            "midi": 63,
            "name": "D#4",
            "ticks": 588480,
            "time": 350.285364,
            "velocity": 0.8267716535433071
          },
          {
            "duration": 0.08571419999998398,
            "durationTicks": 144,
            "midi": 56,
            "name": "G#3",
            "ticks": 589200,
            "time": 350.71393500000005,
            "velocity": 0.8267716535433071
          },
          {
            "duration": 0.17142839999996795,
            "durationTicks": 288,
            "midi": 62,
            "name": "D4",
            "ticks": 589440,
            "time": 350.85679200000004,
            "velocity": 0.8267716535433071
          },
          {
            "duration": 0.17142839999996795,
            "durationTicks": 288,
            "midi": 65,
            "name": "F4",
            "ticks": 589920,
            "time": 351.142506,
            "velocity": 0.8267716535433071
          },
          {
            "duration": 0.17142839999996795,
            "durationTicks": 288,
            "midi": 69,
            "name": "A4",
            "ticks": 590400,
            "time": 351.42822,
            "velocity": 0.8267716535433071
          },
          {
            "duration": 0.08571419999998398,
            "durationTicks": 144,
            "midi": 62,
            "name": "D4",
            "ticks": 591120,
            "time": 351.85679100000004,
            "velocity": 0.8267716535433071
          },
          {
            "duration": 0.17142839999996795,
            "durationTicks": 288,
            "midi": 67,
            "name": "G4",
            "ticks": 591360,
            "time": 351.99964800000004,
            "velocity": 0.8267716535433071
          },
          {
            "duration": 0.17142839999996795,
            "durationTicks": 288,
            "midi": 71,
            "name": "B4",
            "ticks": 591840,
            "time": 352.285362,
            "velocity": 0.8267716535433071
          },
          {
            "duration": 0.1714284000000248,
            "durationTicks": 288,
            "midi": 74,
            "name": "D5",
            "ticks": 592320,
            "time": 352.571076,
            "velocity": 0.8267716535433071
          },
          {
            "duration": 0.08571419999998398,
            "durationTicks": 144,
            "midi": 55,
            "name": "G3",
            "ticks": 593040,
            "time": 352.99964700000004,
            "velocity": 0.8267716535433071
          },
          {
            "duration": 0.17142839999996795,
            "durationTicks": 288,
            "midi": 60,
            "name": "C4",
            "ticks": 593280,
            "time": 353.14250400000003,
            "velocity": 0.8267716535433071
          },
          {
            "duration": 0.17142839999996795,
            "durationTicks": 288,
            "midi": 63,
            "name": "D#4",
            "ticks": 593760,
            "time": 353.428218,
            "velocity": 0.8267716535433071
          },
          {
            "duration": 0.17142839999996795,
            "durationTicks": 288,
            "midi": 69,
            "name": "A4",
            "ticks": 594240,
            "time": 353.71393200000006,
            "velocity": 0.8267716535433071
          },
          {
            "duration": 0.08571419999998398,
            "durationTicks": 144,
            "midi": 60,
            "name": "C4",
            "ticks": 594960,
            "time": 354.14250300000003,
            "velocity": 0.8267716535433071
          },
          {
            "duration": 0.17142839999996795,
            "durationTicks": 288,
            "midi": 62,
            "name": "D4",
            "ticks": 595200,
            "time": 354.28536,
            "velocity": 0.8267716535433071
          },
          {
            "duration": 0.17142839999996795,
            "durationTicks": 288,
            "midi": 66,
            "name": "F#4",
            "ticks": 595680,
            "time": 354.571074,
            "velocity": 0.8267716535433071
          },
          {
            "duration": 0.17142839999996795,
            "durationTicks": 288,
            "midi": 69,
            "name": "A4",
            "ticks": 596160,
            "time": 354.85678800000005,
            "velocity": 0.8267716535433071
          },
          {
            "duration": 0.11428560000001653,
            "durationTicks": 192,
            "midi": 70,
            "name": "A#4",
            "ticks": 597120,
            "time": 355.428216,
            "velocity": 0.8267716535433071
          },
          {
            "duration": 0.11428560000001653,
            "durationTicks": 192,
            "midi": 67,
            "name": "G4",
            "ticks": 597360,
            "time": 355.571073,
            "velocity": 0.8267716535433071
          },
          {
            "duration": 0.11428560000007337,
            "durationTicks": 192,
            "midi": 70,
            "name": "A#4",
            "ticks": 597600,
            "time": 355.71393,
            "velocity": 0.8267716535433071
          },
          {
            "duration": 0.11428560000001653,
            "durationTicks": 192,
            "midi": 67,
            "name": "G4",
            "ticks": 597840,
            "time": 355.85678700000005,
            "velocity": 0.8267716535433071
          },
          {
            "duration": 0.11428560000001653,
            "durationTicks": 192,
            "midi": 70,
            "name": "A#4",
            "ticks": 598080,
            "time": 355.99964400000005,
            "velocity": 0.8267716535433071
          },
          {
            "duration": 0.11428560000001653,
            "durationTicks": 192,
            "midi": 67,
            "name": "G4",
            "ticks": 598320,
            "time": 356.14250100000004,
            "velocity": 0.8267716535433071
          },
          {
            "duration": 0.11428560000001653,
            "durationTicks": 192,
            "midi": 70,
            "name": "A#4",
            "ticks": 598560,
            "time": 356.28535800000003,
            "velocity": 0.8267716535433071
          },
          {
            "duration": 0.11428560000001653,
            "durationTicks": 192,
            "midi": 67,
            "name": "G4",
            "ticks": 598800,
            "time": 356.428215,
            "velocity": 0.8267716535433071
          },
          {
            "duration": 0.11428560000001653,
            "durationTicks": 192,
            "midi": 69,
            "name": "A4",
            "ticks": 599040,
            "time": 356.571072,
            "velocity": 0.8267716535433071
          },
          {
            "duration": 0.11428560000007337,
            "durationTicks": 192,
            "midi": 65,
            "name": "F4",
            "ticks": 599280,
            "time": 356.713929,
            "velocity": 0.8267716535433071
          },
          {
            "duration": 0.11428560000001653,
            "durationTicks": 192,
            "midi": 69,
            "name": "A4",
            "ticks": 599520,
            "time": 356.85678600000006,
            "velocity": 0.8267716535433071
          },
          {
            "duration": 0.11428560000001653,
            "durationTicks": 192,
            "midi": 65,
            "name": "F4",
            "ticks": 599760,
            "time": 356.99964300000005,
            "velocity": 0.8267716535433071
          },
          {
            "duration": 0.11428560000001653,
            "durationTicks": 192,
            "midi": 69,
            "name": "A4",
            "ticks": 600000,
            "time": 357.14250000000004,
            "velocity": 0.8267716535433071
          },
          {
            "duration": 0.11428560000001653,
            "durationTicks": 192,
            "midi": 65,
            "name": "F4",
            "ticks": 600240,
            "time": 357.28535700000003,
            "velocity": 0.8267716535433071
          },
          {
            "duration": 0.11428560000001653,
            "durationTicks": 192,
            "midi": 69,
            "name": "A4",
            "ticks": 600480,
            "time": 357.428214,
            "velocity": 0.8267716535433071
          },
          {
            "duration": 0.11428560000001653,
            "durationTicks": 192,
            "midi": 65,
            "name": "F4",
            "ticks": 600720,
            "time": 357.571071,
            "velocity": 0.8267716535433071
          },
          {
            "duration": 0.11428560000007337,
            "durationTicks": 192,
            "midi": 67,
            "name": "G4",
            "ticks": 600960,
            "time": 357.713928,
            "velocity": 0.8267716535433071
          },
          {
            "duration": 0.11428560000007337,
            "durationTicks": 192,
            "midi": 63,
            "name": "D#4",
            "ticks": 601200,
            "time": 357.856785,
            "velocity": 0.8267716535433071
          },
          {
            "duration": 0.11428560000001653,
            "durationTicks": 192,
            "midi": 67,
            "name": "G4",
            "ticks": 601440,
            "time": 357.99964200000005,
            "velocity": 0.8267716535433071
          },
          {
            "duration": 0.11428560000001653,
            "durationTicks": 192,
            "midi": 63,
            "name": "D#4",
            "ticks": 601680,
            "time": 358.14249900000004,
            "velocity": 0.8267716535433071
          },
          {
            "duration": 0.11428560000001653,
            "durationTicks": 192,
            "midi": 67,
            "name": "G4",
            "ticks": 601920,
            "time": 358.28535600000004,
            "velocity": 0.8267716535433071
          },
          {
            "duration": 0.11428560000001653,
            "durationTicks": 192,
            "midi": 63,
            "name": "D#4",
            "ticks": 602160,
            "time": 358.428213,
            "velocity": 0.8267716535433071
          },
          {
            "duration": 0.11428560000001653,
            "durationTicks": 192,
            "midi": 67,
            "name": "G4",
            "ticks": 602400,
            "time": 358.57107,
            "velocity": 0.8267716535433071
          },
          {
            "duration": 0.11428560000001653,
            "durationTicks": 192,
            "midi": 63,
            "name": "D#4",
            "ticks": 602640,
            "time": 358.713927,
            "velocity": 0.8267716535433071
          },
          {
            "duration": 0.11428560000007337,
            "durationTicks": 192,
            "midi": 67,
            "name": "G4",
            "ticks": 602880,
            "time": 358.856784,
            "velocity": 0.8267716535433071
          },
          {
            "duration": 0.11428560000001653,
            "durationTicks": 192,
            "midi": 62,
            "name": "D4",
            "ticks": 603120,
            "time": 358.99964100000005,
            "velocity": 0.8267716535433071
          },
          {
            "duration": 0.11428560000001653,
            "durationTicks": 192,
            "midi": 67,
            "name": "G4",
            "ticks": 603360,
            "time": 359.14249800000005,
            "velocity": 0.8267716535433071
          },
          {
            "duration": 0.11428560000001653,
            "durationTicks": 192,
            "midi": 62,
            "name": "D4",
            "ticks": 603600,
            "time": 359.28535500000004,
            "velocity": 0.8267716535433071
          },
          {
            "duration": 0.11428560000001653,
            "durationTicks": 192,
            "midi": 67,
            "name": "G4",
            "ticks": 603840,
            "time": 359.42821200000003,
            "velocity": 0.8267716535433071
          },
          {
            "duration": 0.11428560000001653,
            "durationTicks": 192,
            "midi": 62,
            "name": "D4",
            "ticks": 604080,
            "time": 359.571069,
            "velocity": 0.8267716535433071
          },
          {
            "duration": 0.11428560000001653,
            "durationTicks": 192,
            "midi": 67,
            "name": "G4",
            "ticks": 604320,
            "time": 359.713926,
            "velocity": 0.8267716535433071
          },
          {
            "duration": 0.11428560000007337,
            "durationTicks": 192,
            "midi": 62,
            "name": "D4",
            "ticks": 604560,
            "time": 359.856783,
            "velocity": 0.8267716535433071
          },
          {
            "duration": 0.11428560000001653,
            "durationTicks": 192,
            "midi": 63,
            "name": "D#4",
            "ticks": 604800,
            "time": 359.99964000000006,
            "velocity": 0.8267716535433071
          },
          {
            "duration": 0.11428560000001653,
            "durationTicks": 192,
            "midi": 60,
            "name": "C4",
            "ticks": 605040,
            "time": 360.14249700000005,
            "velocity": 0.8267716535433071
          },
          {
            "duration": 0.11428560000001653,
            "durationTicks": 192,
            "midi": 63,
            "name": "D#4",
            "ticks": 605280,
            "time": 360.28535400000004,
            "velocity": 0.8267716535433071
          },
          {
            "duration": 0.11428560000001653,
            "durationTicks": 192,
            "midi": 60,
            "name": "C4",
            "ticks": 605520,
            "time": 360.42821100000003,
            "velocity": 0.8267716535433071
          },
          {
            "duration": 0.11428560000001653,
            "durationTicks": 192,
            "midi": 63,
            "name": "D#4",
            "ticks": 605760,
            "time": 360.571068,
            "velocity": 0.8267716535433071
          },
          {
            "duration": 0.11428560000001653,
            "durationTicks": 192,
            "midi": 60,
            "name": "C4",
            "ticks": 606000,
            "time": 360.713925,
            "velocity": 0.8267716535433071
          },
          {
            "duration": 0.11428560000007337,
            "durationTicks": 192,
            "midi": 63,
            "name": "D#4",
            "ticks": 606240,
            "time": 360.856782,
            "velocity": 0.8267716535433071
          },
          {
            "duration": 0.11428560000007337,
            "durationTicks": 192,
            "midi": 60,
            "name": "C4",
            "ticks": 606480,
            "time": 360.999639,
            "velocity": 0.8267716535433071
          },
          {
            "duration": 0.11428560000001653,
            "durationTicks": 192,
            "midi": 62,
            "name": "D4",
            "ticks": 606720,
            "time": 361.14249600000005,
            "velocity": 0.8267716535433071
          },
          {
            "duration": 0.11428560000001653,
            "durationTicks": 192,
            "midi": 58,
            "name": "A#3",
            "ticks": 606960,
            "time": 361.28535300000004,
            "velocity": 0.8267716535433071
          },
          {
            "duration": 0.11428560000001653,
            "durationTicks": 192,
            "midi": 62,
            "name": "D4",
            "ticks": 607200,
            "time": 361.42821000000004,
            "velocity": 0.8267716535433071
          },
          {
            "duration": 0.11428560000001653,
            "durationTicks": 192,
            "midi": 58,
            "name": "A#3",
            "ticks": 607440,
            "time": 361.571067,
            "velocity": 0.8267716535433071
          },
          {
            "duration": 0.11428560000001653,
            "durationTicks": 192,
            "midi": 62,
            "name": "D4",
            "ticks": 607680,
            "time": 361.713924,
            "velocity": 0.8267716535433071
          },
          {
            "duration": 0.11428560000001653,
            "durationTicks": 192,
            "midi": 58,
            "name": "A#3",
            "ticks": 607920,
            "time": 361.856781,
            "velocity": 0.8267716535433071
          },
          {
            "duration": 0.11428560000007337,
            "durationTicks": 192,
            "midi": 62,
            "name": "D4",
            "ticks": 608160,
            "time": 361.999638,
            "velocity": 0.8267716535433071
          },
          {
            "duration": 0.11428560000001653,
            "durationTicks": 192,
            "midi": 58,
            "name": "A#3",
            "ticks": 608400,
            "time": 362.14249500000005,
            "velocity": 0.8267716535433071
          },
          {
            "duration": 0.9142848000000185,
            "durationTicks": 1536,
            "midi": 57,
            "name": "A3",
            "ticks": 608640,
            "time": 362.28535200000005,
            "velocity": 0.984251968503937
          },
          {
            "duration": 0.45714239999995243,
            "durationTicks": 768,
            "midi": 57,
            "name": "A3",
            "ticks": 610560,
            "time": 363.42820800000004,
            "velocity": 0.984251968503937
          },
          {
            "duration": 0.4571424000000093,
            "durationTicks": 768,
            "midi": 58,
            "name": "A#3",
            "ticks": 611520,
            "time": 363.999636,
            "velocity": 0.984251968503937
          },
          {
            "duration": 0.45714239999995243,
            "durationTicks": 768,
            "midi": 57,
            "name": "A3",
            "ticks": 612480,
            "time": 364.57106400000004,
            "velocity": 0.984251968503937
          },
          {
            "duration": 0.4571424000000093,
            "durationTicks": 768,
            "midi": 58,
            "name": "A#3",
            "ticks": 613440,
            "time": 365.142492,
            "velocity": 0.984251968503937
          },
          {
            "duration": 0.45714239999995243,
            "durationTicks": 768,
            "midi": 57,
            "name": "A3",
            "ticks": 614400,
            "time": 365.71392000000003,
            "velocity": 0.984251968503937
          },
          {
            "duration": 0.11428560000001653,
            "durationTicks": 192,
            "midi": 57,
            "name": "A3",
            "ticks": 616080,
            "time": 366.71391900000003,
            "velocity": 0.8267716535433071
          },
          {
            "duration": 0.11428560000001653,
            "durationTicks": 192,
            "midi": 62,
            "name": "D4",
            "ticks": 616320,
            "time": 366.856776,
            "velocity": 0.8267716535433071
          },
          {
            "duration": 0.11428560000001653,
            "durationTicks": 192,
            "midi": 66,
            "name": "F#4",
            "ticks": 616560,
            "time": 366.999633,
            "velocity": 0.8267716535433071
          },
          {
            "duration": 0.11428560000007337,
            "durationTicks": 192,
            "midi": 66,
            "name": "F#4",
            "ticks": 616800,
            "time": 367.14249,
            "velocity": 0.8267716535433071
          },
          {
            "duration": 0.11428560000001653,
            "durationTicks": 192,
            "midi": 66,
            "name": "F#4",
            "ticks": 617040,
            "time": 367.28534700000006,
            "velocity": 0.8267716535433071
          },
          {
            "duration": 0.11428560000001653,
            "durationTicks": 192,
            "midi": 66,
            "name": "F#4",
            "ticks": 617280,
            "time": 367.42820400000005,
            "velocity": 0.8267716535433071
          },
          {
            "duration": 0.11428560000001653,
            "durationTicks": 192,
            "midi": 66,
            "name": "F#4",
            "ticks": 617520,
            "time": 367.57106100000004,
            "velocity": 0.8267716535433071
          },
          {
            "duration": 0.11428560000001653,
            "durationTicks": 192,
            "midi": 69,
            "name": "A4",
            "ticks": 617760,
            "time": 367.71391800000004,
            "velocity": 0.8267716535433071
          },
          {
            "duration": 0.11428560000001653,
            "durationTicks": 192,
            "midi": 69,
            "name": "A4",
            "ticks": 618000,
            "time": 367.856775,
            "velocity": 0.8267716535433071
          },
          {
            "duration": 0.11428560000001653,
            "durationTicks": 192,
            "midi": 67,
            "name": "G4",
            "ticks": 618240,
            "time": 367.999632,
            "velocity": 0.8267716535433071
          },
          {
            "duration": 0.11428560000001653,
            "durationTicks": 192,
            "midi": 67,
            "name": "G4",
            "ticks": 618480,
            "time": 368.142489,
            "velocity": 0.8267716535433071
          },
          {
            "duration": 0.11428560000007337,
            "durationTicks": 192,
            "midi": 67,
            "name": "G4",
            "ticks": 618720,
            "time": 368.285346,
            "velocity": 0.8267716535433071
          },
          {
            "duration": 0.11428560000001653,
            "durationTicks": 192,
            "midi": 67,
            "name": "G4",
            "ticks": 618960,
            "time": 368.42820300000005,
            "velocity": 0.8267716535433071
          },
          {
            "duration": 0.11428560000001653,
            "durationTicks": 192,
            "midi": 67,
            "name": "G4",
            "ticks": 619200,
            "time": 368.57106000000005,
            "velocity": 0.8267716535433071
          },
          {
            "duration": 0.11428560000001653,
            "durationTicks": 192,
            "midi": 67,
            "name": "G4",
            "ticks": 619440,
            "time": 368.71391700000004,
            "velocity": 0.8267716535433071
          },
          {
            "duration": 0.11428560000001653,
            "durationTicks": 192,
            "midi": 67,
            "name": "G4",
            "ticks": 619680,
            "time": 368.85677400000003,
            "velocity": 0.8267716535433071
          },
          {
            "duration": 0.11428560000001653,
            "durationTicks": 192,
            "midi": 67,
            "name": "G4",
            "ticks": 619920,
            "time": 368.999631,
            "velocity": 0.8267716535433071
          },
          {
            "duration": 0.11428560000001653,
            "durationTicks": 192,
            "midi": 66,
            "name": "F#4",
            "ticks": 620160,
            "time": 369.142488,
            "velocity": 0.8267716535433071
          },
          {
            "duration": 0.11428560000007337,
            "durationTicks": 192,
            "midi": 66,
            "name": "F#4",
            "ticks": 620400,
            "time": 369.285345,
            "velocity": 0.8267716535433071
          },
          {
            "duration": 0.11428560000001653,
            "durationTicks": 192,
            "midi": 66,
            "name": "F#4",
            "ticks": 620640,
            "time": 369.42820200000006,
            "velocity": 0.8267716535433071
          },
          {
            "duration": 0.11428560000001653,
            "durationTicks": 192,
            "midi": 66,
            "name": "F#4",
            "ticks": 620880,
            "time": 369.57105900000005,
            "velocity": 0.8267716535433071
          },
          {
            "duration": 0.11428560000001653,
            "durationTicks": 192,
            "midi": 66,
            "name": "F#4",
            "ticks": 621120,
            "time": 369.71391600000004,
            "velocity": 0.8267716535433071
          },
          {
            "duration": 0.11428560000001653,
            "durationTicks": 192,
            "midi": 69,
            "name": "A4",
            "ticks": 621360,
            "time": 369.85677300000003,
            "velocity": 0.8267716535433071
          },
          {
            "duration": 0.11428560000001653,
            "durationTicks": 192,
            "midi": 66,
            "name": "F#4",
            "ticks": 621600,
            "time": 369.99963,
            "velocity": 0.8267716535433071
          },
          {
            "duration": 0.11428560000001653,
            "durationTicks": 192,
            "midi": 69,
            "name": "A4",
            "ticks": 621840,
            "time": 370.142487,
            "velocity": 0.8267716535433071
          },
          {
            "duration": 0.11428560000007337,
            "durationTicks": 192,
            "midi": 67,
            "name": "G4",
            "ticks": 622080,
            "time": 370.285344,
            "velocity": 0.8267716535433071
          },
          {
            "duration": 0.11428560000001653,
            "durationTicks": 192,
            "midi": 67,
            "name": "G4",
            "ticks": 622320,
            "time": 370.42820100000006,
            "velocity": 0.8267716535433071
          },
          {
            "duration": 0.11428560000001653,
            "durationTicks": 192,
            "midi": 67,
            "name": "G4",
            "ticks": 622560,
            "time": 370.57105800000005,
            "velocity": 0.8267716535433071
          },
          {
            "duration": 0.11428560000001653,
            "durationTicks": 192,
            "midi": 67,
            "name": "G4",
            "ticks": 622800,
            "time": 370.71391500000004,
            "velocity": 0.8267716535433071
          },
          {
            "duration": 0.11428560000001653,
            "durationTicks": 192,
            "midi": 64,
            "name": "E4",
            "ticks": 623040,
            "time": 370.85677200000003,
            "velocity": 0.8267716535433071
          },
          {
            "duration": 0.11428560000001653,
            "durationTicks": 192,
            "midi": 61,
            "name": "C#4",
            "ticks": 623280,
            "time": 370.999629,
            "velocity": 0.8267716535433071
          },
          {
            "duration": 0.11428560000001653,
            "durationTicks": 192,
            "midi": 64,
            "name": "E4",
            "ticks": 623520,
            "time": 371.142486,
            "velocity": 0.8267716535433071
          },
          {
            "duration": 0.11428560000001653,
            "durationTicks": 192,
            "midi": 61,
            "name": "C#4",
            "ticks": 623760,
            "time": 371.285343,
            "velocity": 0.8267716535433071
          },
          {
            "duration": 0.22857120000003306,
            "durationTicks": 384,
            "midi": 62,
            "name": "D4",
            "ticks": 624000,
            "time": 371.4282,
            "velocity": 0.8267716535433071
          },
          {
            "duration": 0.22857119999997622,
            "durationTicks": 384,
            "midi": 50,
            "name": "D3",
            "ticks": 624960,
            "time": 371.99962800000003,
            "velocity": 0.7244094488188977
          },
          {
            "duration": 0.8571419999999534,
            "durationTicks": 1440,
            "midi": 58,
            "name": "A#3",
            "ticks": 627840,
            "time": 373.71391200000005,
            "velocity": 0.4566929133858268
          },
          {
            "duration": 0.2857140000000413,
            "durationTicks": 480,
            "midi": 57,
            "name": "A3",
            "ticks": 629280,
            "time": 374.571054,
            "velocity": 0.4566929133858268
          },
          {
            "duration": 0.22857119999997622,
            "durationTicks": 384,
            "midi": 54,
            "name": "F#3",
            "ticks": 629760,
            "time": 374.85676800000005,
            "velocity": 0.4566929133858268
          },
          {
            "duration": 0.2857139999999845,
            "durationTicks": 480,
            "midi": 59,
            "name": "B3",
            "ticks": 632160,
            "time": 376.285338,
            "velocity": 0.4566929133858268
          },
          {
            "duration": 0.2857140000000413,
            "durationTicks": 480,
            "midi": 60,
            "name": "C4",
            "ticks": 632640,
            "time": 376.571052,
            "velocity": 0.4566929133858268
          },
          {
            "duration": 0.2857139999999845,
            "durationTicks": 480,
            "midi": 61,
            "name": "C#4",
            "ticks": 633120,
            "time": 376.85676600000005,
            "velocity": 0.4566929133858268
          },
          {
            "duration": 0.45714239999995243,
            "durationTicks": 768,
            "midi": 62,
            "name": "D4",
            "ticks": 633600,
            "time": 377.14248000000003,
            "velocity": 0.4566929133858268
          },
          {
            "duration": 0.8571420000000103,
            "durationTicks": 1440,
            "midi": 57,
            "name": "A3",
            "ticks": 635520,
            "time": 378.28533600000003,
            "velocity": 0.4566929133858268
          },
          {
            "duration": 0.22857119999997622,
            "durationTicks": 384,
            "midi": 58,
            "name": "A#3",
            "ticks": 636960,
            "time": 379.14247800000004,
            "velocity": 0.4566929133858268
          },
          {
            "duration": 0.2857139999999845,
            "durationTicks": 480,
            "midi": 64,
            "name": "E4",
            "ticks": 637440,
            "time": 379.428192,
            "velocity": 0.4566929133858268
          },
          {
            "duration": 0.5714280000000258,
            "durationTicks": 960,
            "midi": 62,
            "name": "D4",
            "ticks": 637920,
            "time": 379.713906,
            "velocity": 0.4566929133858268
          },
          {
            "duration": 0.22857119999997622,
            "durationTicks": 384,
            "midi": 55,
            "name": "G3",
            "ticks": 638880,
            "time": 380.28533400000003,
            "velocity": 0.4566929133858268
          },
          {
            "duration": 0.22857119999997622,
            "durationTicks": 384,
            "midi": 60,
            "name": "C4",
            "ticks": 639360,
            "time": 380.571048,
            "velocity": 0.4566929133858268
          },
          {
            "duration": 0.22857119999997622,
            "durationTicks": 384,
            "midi": 57,
            "name": "A3",
            "ticks": 640320,
            "time": 381.14247600000004,
            "velocity": 0.4566929133858268
          },
          {
            "duration": 0.22857120000003306,
            "durationTicks": 384,
            "midi": 55,
            "name": "G3",
            "ticks": 641280,
            "time": 381.713904,
            "velocity": 0.4566929133858268
          },
          {
            "duration": 0.8571420000000103,
            "durationTicks": 1440,
            "midi": 57,
            "name": "A3",
            "ticks": 650880,
            "time": 387.42818400000004,
            "velocity": 0.4566929133858268
          },
          {
            "duration": 0.22857119999997622,
            "durationTicks": 384,
            "midi": 58,
            "name": "A#3",
            "ticks": 652320,
            "time": 388.28532600000005,
            "velocity": 0.4566929133858268
          },
          {
            "duration": 0.2857139999999845,
            "durationTicks": 480,
            "midi": 64,
            "name": "E4",
            "ticks": 652800,
            "time": 388.57104000000004,
            "velocity": 0.4566929133858268
          },
          {
            "duration": 0.5714280000000258,
            "durationTicks": 960,
            "midi": 62,
            "name": "D4",
            "ticks": 653280,
            "time": 388.856754,
            "velocity": 0.4566929133858268
          },
          {
            "duration": 0.22857119999997622,
            "durationTicks": 384,
            "midi": 55,
            "name": "G3",
            "ticks": 654240,
            "time": 389.42818200000005,
            "velocity": 0.4566929133858268
          },
          {
            "duration": 0.14285699999999224,
            "durationTicks": 240,
            "midi": 53,
            "name": "F3",
            "ticks": 654720,
            "time": 389.71389600000003,
            "velocity": 0.4566929133858268
          },
          {
            "duration": 0.14285699999999224,
            "durationTicks": 240,
            "midi": 50,
            "name": "D3",
            "ticks": 654960,
            "time": 389.856753,
            "velocity": 0.4566929133858268
          },
          {
            "duration": 0.14285699999999224,
            "durationTicks": 240,
            "midi": 53,
            "name": "F3",
            "ticks": 655200,
            "time": 389.99961,
            "velocity": 0.4566929133858268
          },
          {
            "duration": 0.14285700000004908,
            "durationTicks": 240,
            "midi": 50,
            "name": "D3",
            "ticks": 655440,
            "time": 390.142467,
            "velocity": 0.4566929133858268
          },
          {
            "duration": 0.14285699999999224,
            "durationTicks": 240,
            "midi": 53,
            "name": "F3",
            "ticks": 655680,
            "time": 390.28532400000006,
            "velocity": 0.4566929133858268
          },
          {
            "duration": 0.14285699999999224,
            "durationTicks": 240,
            "midi": 50,
            "name": "D3",
            "ticks": 655920,
            "time": 390.42818100000005,
            "velocity": 0.4566929133858268
          },
          {
            "duration": 0.14285699999999224,
            "durationTicks": 240,
            "midi": 51,
            "name": "D#3",
            "ticks": 656160,
            "time": 390.57103800000004,
            "velocity": 0.4566929133858268
          },
          {
            "duration": 0.11428560000001653,
            "durationTicks": 192,
            "midi": 55,
            "name": "G3",
            "ticks": 656400,
            "time": 390.71389500000004,
            "velocity": 0.4566929133858268
          },
          {
            "duration": 0.14285699999999224,
            "durationTicks": 240,
            "midi": 53,
            "name": "F3",
            "ticks": 656640,
            "time": 390.85675200000003,
            "velocity": 0.4566929133858268
          },
          {
            "duration": 0.14285699999999224,
            "durationTicks": 240,
            "midi": 50,
            "name": "D3",
            "ticks": 656880,
            "time": 390.999609,
            "velocity": 0.4566929133858268
          },
          {
            "duration": 0.14285699999999224,
            "durationTicks": 240,
            "midi": 53,
            "name": "F3",
            "ticks": 657120,
            "time": 391.142466,
            "velocity": 0.4566929133858268
          },
          {
            "duration": 0.14285700000004908,
            "durationTicks": 240,
            "midi": 50,
            "name": "D3",
            "ticks": 657360,
            "time": 391.285323,
            "velocity": 0.4566929133858268
          },
          {
            "duration": 0.14285699999999224,
            "durationTicks": 240,
            "midi": 53,
            "name": "F3",
            "ticks": 657600,
            "time": 391.42818000000005,
            "velocity": 0.4566929133858268
          },
          {
            "duration": 0.14285699999999224,
            "durationTicks": 240,
            "midi": 50,
            "name": "D3",
            "ticks": 657840,
            "time": 391.57103700000005,
            "velocity": 0.4566929133858268
          },
          {
            "duration": 0.14285699999999224,
            "durationTicks": 240,
            "midi": 51,
            "name": "D#3",
            "ticks": 658080,
            "time": 391.71389400000004,
            "velocity": 0.4566929133858268
          },
          {
            "duration": 0.11428560000001653,
            "durationTicks": 192,
            "midi": 55,
            "name": "G3",
            "ticks": 658320,
            "time": 391.85675100000003,
            "velocity": 0.4566929133858268
          },
          {
            "duration": 0.14285699999999224,
            "durationTicks": 240,
            "midi": 53,
            "name": "F3",
            "ticks": 658560,
            "time": 391.999608,
            "velocity": 0.4566929133858268
          },
          {
            "duration": 0.14285699999999224,
            "durationTicks": 240,
            "midi": 50,
            "name": "D3",
            "ticks": 658800,
            "time": 392.142465,
            "velocity": 0.4566929133858268
          },
          {
            "duration": 0.14285700000004908,
            "durationTicks": 240,
            "midi": 53,
            "name": "F3",
            "ticks": 659040,
            "time": 392.285322,
            "velocity": 0.4566929133858268
          },
          {
            "duration": 0.14285699999999224,
            "durationTicks": 240,
            "midi": 50,
            "name": "D3",
            "ticks": 659280,
            "time": 392.42817900000006,
            "velocity": 0.4566929133858268
          },
          {
            "duration": 0.14285699999999224,
            "durationTicks": 240,
            "midi": 53,
            "name": "F3",
            "ticks": 659520,
            "time": 392.57103600000005,
            "velocity": 0.4566929133858268
          },
          {
            "duration": 0.14285699999999224,
            "durationTicks": 240,
            "midi": 50,
            "name": "D3",
            "ticks": 659760,
            "time": 392.71389300000004,
            "velocity": 0.4566929133858268
          },
          {
            "duration": 0.14285699999999224,
            "durationTicks": 240,
            "midi": 51,
            "name": "D#3",
            "ticks": 660000,
            "time": 392.85675000000003,
            "velocity": 0.4566929133858268
          },
          {
            "duration": 0.11428560000001653,
            "durationTicks": 192,
            "midi": 55,
            "name": "G3",
            "ticks": 660240,
            "time": 392.999607,
            "velocity": 0.4566929133858268
          },
          {
            "duration": 0.14285699999999224,
            "durationTicks": 240,
            "midi": 53,
            "name": "F3",
            "ticks": 660480,
            "time": 393.142464,
            "velocity": 0.4566929133858268
          },
          {
            "duration": 0.14285700000004908,
            "durationTicks": 240,
            "midi": 50,
            "name": "D3",
            "ticks": 660720,
            "time": 393.285321,
            "velocity": 0.4566929133858268
          },
          {
            "duration": 0.14285699999999224,
            "durationTicks": 240,
            "midi": 53,
            "name": "F3",
            "ticks": 660960,
            "time": 393.42817800000006,
            "velocity": 0.4566929133858268
          },
          {
            "duration": 0.14285699999999224,
            "durationTicks": 240,
            "midi": 50,
            "name": "D3",
            "ticks": 661200,
            "time": 393.57103500000005,
            "velocity": 0.4566929133858268
          },
          {
            "duration": 0.14285699999999224,
            "durationTicks": 240,
            "midi": 53,
            "name": "F3",
            "ticks": 661440,
            "time": 393.71389200000004,
            "velocity": 0.4566929133858268
          },
          {
            "duration": 0.14285699999999224,
            "durationTicks": 240,
            "midi": 50,
            "name": "D3",
            "ticks": 661680,
            "time": 393.85674900000004,
            "velocity": 0.4566929133858268
          },
          {
            "duration": 0.14285699999999224,
            "durationTicks": 240,
            "midi": 51,
            "name": "D#3",
            "ticks": 661920,
            "time": 393.999606,
            "velocity": 0.4566929133858268
          },
          {
            "duration": 0.11428560000001653,
            "durationTicks": 192,
            "midi": 55,
            "name": "G3",
            "ticks": 662160,
            "time": 394.142463,
            "velocity": 0.4566929133858268
          },
          {
            "duration": 0.11428560000007337,
            "durationTicks": 192,
            "midi": 50,
            "name": "D3",
            "ticks": 662400,
            "time": 394.28532,
            "velocity": 0.5511811023622047
          },
          {
            "duration": 0.11428560000007337,
            "durationTicks": 192,
            "midi": 50,
            "name": "D3",
            "ticks": 662640,
            "time": 394.428177,
            "velocity": 0.5511811023622047
          },
          {
            "duration": 0.11428560000001653,
            "durationTicks": 192,
            "midi": 50,
            "name": "D3",
            "ticks": 662880,
            "time": 394.57103400000005,
            "velocity": 0.5669291338582677
          },
          {
            "duration": 0.11428560000001653,
            "durationTicks": 192,
            "midi": 50,
            "name": "D3",
            "ticks": 663120,
            "time": 394.71389100000005,
            "velocity": 0.5905511811023622
          },
          {
            "duration": 0.11428560000001653,
            "durationTicks": 192,
            "midi": 50,
            "name": "D3",
            "ticks": 663360,
            "time": 394.85674800000004,
            "velocity": 0.6141732283464567
          },
          {
            "duration": 0.11428560000001653,
            "durationTicks": 192,
            "midi": 50,
            "name": "D3",
            "ticks": 663600,
            "time": 394.99960500000003,
            "velocity": 0.6299212598425197
          },
          {
            "duration": 0.11428560000001653,
            "durationTicks": 192,
            "midi": 50,
            "name": "D3",
            "ticks": 663840,
            "time": 395.142462,
            "velocity": 0.6535433070866141
          },
          {
            "duration": 0.11428560000001653,
            "durationTicks": 192,
            "midi": 50,
            "name": "D3",
            "ticks": 664080,
            "time": 395.285319,
            "velocity": 0.6771653543307087
          },
          {
            "duration": 0.11428560000007337,
            "durationTicks": 192,
            "midi": 50,
            "name": "D3",
            "ticks": 664320,
            "time": 395.428176,
            "velocity": 0.6929133858267716
          },
          {
            "duration": 0.11428560000001653,
            "durationTicks": 192,
            "midi": 62,
            "name": "D4",
            "ticks": 664560,
            "time": 395.57103300000006,
            "velocity": 0.7165354330708661
          },
          {
            "duration": 0.11428560000001653,
            "durationTicks": 192,
            "midi": 62,
            "name": "D4",
            "ticks": 664800,
            "time": 395.71389000000005,
            "velocity": 0.7401574803149606
          },
          {
            "duration": 0.11428560000001653,
            "durationTicks": 192,
            "midi": 62,
            "name": "D4",
            "ticks": 665040,
            "time": 395.85674700000004,
            "velocity": 0.7559055118110236
          },
          {
            "duration": 0.11428560000001653,
            "durationTicks": 192,
            "midi": 62,
            "name": "D4",
            "ticks": 665280,
            "time": 395.99960400000003,
            "velocity": 0.7795275590551181
          },
          {
            "duration": 0.11428560000001653,
            "durationTicks": 192,
            "midi": 62,
            "name": "D4",
            "ticks": 665520,
            "time": 396.142461,
            "velocity": 0.8031496062992126
          },
          {
            "duration": 0.11428560000001653,
            "durationTicks": 192,
            "midi": 62,
            "name": "D4",
            "ticks": 665760,
            "time": 396.285318,
            "velocity": 0.8267716535433071
          },
          {
            "duration": 0.11428560000007337,
            "durationTicks": 192,
            "midi": 62,
            "name": "D4",
            "ticks": 666000,
            "time": 396.428175,
            "velocity": 0.8267716535433071
          },
          {
            "duration": 0.11428560000001653,
            "durationTicks": 192,
            "midi": 63,
            "name": "D#4",
            "ticks": 666240,
            "time": 396.57103200000006,
            "velocity": 0.8267716535433071
          },
          {
            "duration": 0.11428560000001653,
            "durationTicks": 192,
            "midi": 63,
            "name": "D#4",
            "ticks": 666480,
            "time": 396.71388900000005,
            "velocity": 0.8267716535433071
          },
          {
            "duration": 0.11428560000001653,
            "durationTicks": 192,
            "midi": 63,
            "name": "D#4",
            "ticks": 666720,
            "time": 396.85674600000004,
            "velocity": 0.8267716535433071
          },
          {
            "duration": 0.11428560000001653,
            "durationTicks": 192,
            "midi": 63,
            "name": "D#4",
            "ticks": 666960,
            "time": 396.99960300000004,
            "velocity": 0.8267716535433071
          },
          {
            "duration": 0.11428560000001653,
            "durationTicks": 192,
            "midi": 51,
            "name": "D#3",
            "ticks": 667200,
            "time": 397.14246,
            "velocity": 0.8267716535433071
          },
          {
            "duration": 0.11428560000001653,
            "durationTicks": 192,
            "midi": 51,
            "name": "D#3",
            "ticks": 667440,
            "time": 397.285317,
            "velocity": 0.8267716535433071
          },
          {
            "duration": 0.11428560000007337,
            "durationTicks": 192,
            "midi": 51,
            "name": "D#3",
            "ticks": 667680,
            "time": 397.428174,
            "velocity": 0.8267716535433071
          },
          {
            "duration": 0.11428560000007337,
            "durationTicks": 192,
            "midi": 51,
            "name": "D#3",
            "ticks": 667920,
            "time": 397.571031,
            "velocity": 0.8267716535433071
          },
          {
            "duration": 0.11428560000001653,
            "durationTicks": 192,
            "midi": 49,
            "name": "C#3",
            "ticks": 668160,
            "time": 397.71388800000005,
            "velocity": 0.8267716535433071
          },
          {
            "duration": 0.11428560000001653,
            "durationTicks": 192,
            "midi": 49,
            "name": "C#3",
            "ticks": 668400,
            "time": 397.85674500000005,
            "velocity": 0.8267716535433071
          },
          {
            "duration": 0.11428560000001653,
            "durationTicks": 192,
            "midi": 49,
            "name": "C#3",
            "ticks": 668640,
            "time": 397.99960200000004,
            "velocity": 0.8267716535433071
          },
          {
            "duration": 0.11428560000001653,
            "durationTicks": 192,
            "midi": 49,
            "name": "C#3",
            "ticks": 668880,
            "time": 398.14245900000003,
            "velocity": 0.8267716535433071
          },
          {
            "duration": 0.11428560000001653,
            "durationTicks": 192,
            "midi": 61,
            "name": "C#4",
            "ticks": 669120,
            "time": 398.285316,
            "velocity": 0.8267716535433071
          },
          {
            "duration": 0.11428560000001653,
            "durationTicks": 192,
            "midi": 61,
            "name": "C#4",
            "ticks": 669360,
            "time": 398.428173,
            "velocity": 0.8267716535433071
          },
          {
            "duration": 0.11428560000007337,
            "durationTicks": 192,
            "midi": 61,
            "name": "C#4",
            "ticks": 669600,
            "time": 398.57103,
            "velocity": 0.8267716535433071
          },
          {
            "duration": 0.11428560000001653,
            "durationTicks": 192,
            "midi": 61,
            "name": "C#4",
            "ticks": 669840,
            "time": 398.71388700000006,
            "velocity": 0.8267716535433071
          },
          {
            "duration": 0.11428560000001653,
            "durationTicks": 192,
            "midi": 65,
            "name": "F4",
            "ticks": 670080,
            "time": 398.85674400000005,
            "velocity": 0.8267716535433071
          },
          {
            "duration": 0.11428560000001653,
            "durationTicks": 192,
            "midi": 65,
            "name": "F4",
            "ticks": 670320,
            "time": 398.99960100000004,
            "velocity": 0.8267716535433071
          },
          {
            "duration": 0.11428560000001653,
            "durationTicks": 192,
            "midi": 65,
            "name": "F4",
            "ticks": 670560,
            "time": 399.14245800000003,
            "velocity": 0.8267716535433071
          },
          {
            "duration": 0.11428560000001653,
            "durationTicks": 192,
            "midi": 65,
            "name": "F4",
            "ticks": 670800,
            "time": 399.285315,
            "velocity": 0.8267716535433071
          },
          {
            "duration": 0.11428560000001653,
            "durationTicks": 192,
            "midi": 53,
            "name": "F3",
            "ticks": 671040,
            "time": 399.428172,
            "velocity": 0.8267716535433071
          },
          {
            "duration": 0.11428560000007337,
            "durationTicks": 192,
            "midi": 53,
            "name": "F3",
            "ticks": 671280,
            "time": 399.571029,
            "velocity": 0.8267716535433071
          },
          {
            "duration": 0.11428560000001653,
            "durationTicks": 192,
            "midi": 53,
            "name": "F3",
            "ticks": 671520,
            "time": 399.71388600000006,
            "velocity": 0.8267716535433071
          },
          {
            "duration": 0.11428560000001653,
            "durationTicks": 192,
            "midi": 53,
            "name": "F3",
            "ticks": 671760,
            "time": 399.85674300000005,
            "velocity": 0.8267716535433071
          },
          {
            "duration": 0.11428560000001653,
            "durationTicks": 192,
            "midi": 51,
            "name": "D#3",
            "ticks": 672000,
            "time": 399.99960000000004,
            "velocity": 0.8267716535433071
          },
          {
            "duration": 0.11428560000001653,
            "durationTicks": 192,
            "midi": 51,
            "name": "D#3",
            "ticks": 672240,
            "time": 400.14245700000004,
            "velocity": 0.8267716535433071
          },
          {
            "duration": 0.11428560000001653,
            "durationTicks": 192,
            "midi": 51,
            "name": "D#3",
            "ticks": 672480,
            "time": 400.285314,
            "velocity": 0.8267716535433071
          },
          {
            "duration": 0.11428560000001653,
            "durationTicks": 192,
            "midi": 51,
            "name": "D#3",
            "ticks": 672720,
            "time": 400.428171,
            "velocity": 0.8267716535433071
          },
          {
            "duration": 0.11428560000007337,
            "durationTicks": 192,
            "midi": 63,
            "name": "D#4",
            "ticks": 672960,
            "time": 400.571028,
            "velocity": 0.8267716535433071
          },
          {
            "duration": 0.11428560000007337,
            "durationTicks": 192,
            "midi": 63,
            "name": "D#4",
            "ticks": 673200,
            "time": 400.713885,
            "velocity": 0.8267716535433071
          },
          {
            "duration": 0.11428560000001653,
            "durationTicks": 192,
            "midi": 63,
            "name": "D#4",
            "ticks": 673440,
            "time": 400.85674200000005,
            "velocity": 0.8267716535433071
          },
          {
            "duration": 0.11428560000001653,
            "durationTicks": 192,
            "midi": 63,
            "name": "D#4",
            "ticks": 673680,
            "time": 400.99959900000005,
            "velocity": 0.8267716535433071
          },
          {
            "duration": 0.11428560000001653,
            "durationTicks": 192,
            "midi": 67,
            "name": "G4",
            "ticks": 673920,
            "time": 401.14245600000004,
            "velocity": 0.8267716535433071
          },
          {
            "duration": 0.11428560000001653,
            "durationTicks": 192,
            "midi": 67,
            "name": "G4",
            "ticks": 674160,
            "time": 401.28531300000003,
            "velocity": 0.8267716535433071
          },
          {
            "duration": 0.11428560000001653,
            "durationTicks": 192,
            "midi": 67,
            "name": "G4",
            "ticks": 674400,
            "time": 401.42817,
            "velocity": 0.8267716535433071
          },
          {
            "duration": 0.11428560000001653,
            "durationTicks": 192,
            "midi": 67,
            "name": "G4",
            "ticks": 674640,
            "time": 401.571027,
            "velocity": 0.8267716535433071
          },
          {
            "duration": 0.11428560000007337,
            "durationTicks": 192,
            "midi": 55,
            "name": "G3",
            "ticks": 674880,
            "time": 401.713884,
            "velocity": 0.8267716535433071
          },
          {
            "duration": 0.11428560000001653,
            "durationTicks": 192,
            "midi": 55,
            "name": "G3",
            "ticks": 675120,
            "time": 401.85674100000006,
            "velocity": 0.8267716535433071
          },
          {
            "duration": 0.11428560000001653,
            "durationTicks": 192,
            "midi": 55,
            "name": "G3",
            "ticks": 675360,
            "time": 401.99959800000005,
            "velocity": 0.8267716535433071
          },
          {
            "duration": 0.11428560000001653,
            "durationTicks": 192,
            "midi": 55,
            "name": "G3",
            "ticks": 675600,
            "time": 402.14245500000004,
            "velocity": 0.8267716535433071
          },
          {
            "duration": 0.11428560000001653,
            "durationTicks": 192,
            "midi": 62,
            "name": "D4",
            "ticks": 675840,
            "time": 402.28531200000003,
            "velocity": 0.8267716535433071
          },
          {
            "duration": 0.11428560000001653,
            "durationTicks": 192,
            "midi": 62,
            "name": "D4",
            "ticks": 676080,
            "time": 402.428169,
            "velocity": 0.8267716535433071
          },
          {
            "duration": 0.11428560000001653,
            "durationTicks": 192,
            "midi": 62,
            "name": "D4",
            "ticks": 676320,
            "time": 402.571026,
            "velocity": 0.8267716535433071
          },
          {
            "duration": 0.11428560000007337,
            "durationTicks": 192,
            "midi": 62,
            "name": "D4",
            "ticks": 676560,
            "time": 402.713883,
            "velocity": 0.8267716535433071
          },
          {
            "duration": 0.11428560000001653,
            "durationTicks": 192,
            "midi": 62,
            "name": "D4",
            "ticks": 676800,
            "time": 402.85674000000006,
            "velocity": 0.8267716535433071
          },
          {
            "duration": 0.11428560000001653,
            "durationTicks": 192,
            "midi": 62,
            "name": "D4",
            "ticks": 677040,
            "time": 402.99959700000005,
            "velocity": 0.8267716535433071
          },
          {
            "duration": 0.11428560000001653,
            "durationTicks": 192,
            "midi": 62,
            "name": "D4",
            "ticks": 677280,
            "time": 403.14245400000004,
            "velocity": 0.8267716535433071
          },
          {
            "duration": 0.11428560000001653,
            "durationTicks": 192,
            "midi": 62,
            "name": "D4",
            "ticks": 677520,
            "time": 403.28531100000004,
            "velocity": 0.8267716535433071
          },
          {
            "duration": 0.11428560000001653,
            "durationTicks": 192,
            "midi": 50,
            "name": "D3",
            "ticks": 677760,
            "time": 403.428168,
            "velocity": 0.8267716535433071
          },
          {
            "duration": 0.11428560000001653,
            "durationTicks": 192,
            "midi": 50,
            "name": "D3",
            "ticks": 678000,
            "time": 403.571025,
            "velocity": 0.8267716535433071
          },
          {
            "duration": 0.11428560000007337,
            "durationTicks": 192,
            "midi": 50,
            "name": "D3",
            "ticks": 678240,
            "time": 403.713882,
            "velocity": 0.8267716535433071
          },
          {
            "duration": 0.11428560000001653,
            "durationTicks": 192,
            "midi": 50,
            "name": "D3",
            "ticks": 678480,
            "time": 403.85673900000006,
            "velocity": 0.8267716535433071
          },
          {
            "duration": 0.11428560000001653,
            "durationTicks": 192,
            "midi": 50,
            "name": "D3",
            "ticks": 678720,
            "time": 403.99959600000005,
            "velocity": 0.8267716535433071
          },
          {
            "duration": 0.11428560000001653,
            "durationTicks": 192,
            "midi": 50,
            "name": "D3",
            "ticks": 678960,
            "time": 404.14245300000005,
            "velocity": 0.8267716535433071
          },
          {
            "duration": 0.11428560000001653,
            "durationTicks": 192,
            "midi": 50,
            "name": "D3",
            "ticks": 679200,
            "time": 404.28531000000004,
            "velocity": 0.8267716535433071
          },
          {
            "duration": 0.11428560000001653,
            "durationTicks": 192,
            "midi": 50,
            "name": "D3",
            "ticks": 679440,
            "time": 404.42816700000003,
            "velocity": 0.8267716535433071
          },
          {
            "duration": 0.22857119999997622,
            "durationTicks": 384,
            "midi": 55,
            "name": "G3",
            "ticks": 679680,
            "time": 404.571024,
            "velocity": 0.7244094488188977
          },
          {
            "duration": 0.4571424000000093,
            "durationTicks": 768,
            "midi": 58,
            "name": "A#3",
            "ticks": 680160,
            "time": 404.856738,
            "velocity": 0.984251968503937
          },
          {
            "duration": 0.17142839999996795,
            "durationTicks": 288,
            "midi": 60,
            "name": "C4",
            "ticks": 681120,
            "time": 405.42816600000003,
            "velocity": 0.8267716535433071
          },
          {
            "duration": 0.17142839999996795,
            "durationTicks": 288,
            "midi": 61,
            "name": "C#4",
            "ticks": 681600,
            "time": 405.71388,
            "velocity": 0.8267716535433071
          },
          {
            "duration": 0.17142839999996795,
            "durationTicks": 288,
            "midi": 62,
            "name": "D4",
            "ticks": 682080,
            "time": 405.99959400000006,
            "velocity": 0.8267716535433071
          },
          {
            "duration": 0.17142839999996795,
            "durationTicks": 288,
            "midi": 63,
            "name": "D#4",
            "ticks": 682560,
            "time": 406.28530800000004,
            "velocity": 0.8267716535433071
          },
          {
            "duration": 0.17142839999996795,
            "durationTicks": 288,
            "midi": 64,
            "name": "E4",
            "ticks": 683040,
            "time": 406.571022,
            "velocity": 0.8267716535433071
          },
          {
            "duration": 0.22857120000003306,
            "durationTicks": 384,
            "midi": 65,
            "name": "F4",
            "ticks": 683520,
            "time": 406.856736,
            "velocity": 0.8267716535433071
          },
          {
            "duration": 0.057142800000008265,
            "durationTicks": 96,
            "midi": 65,
            "name": "F4",
            "ticks": 684360,
            "time": 407.3567355,
            "velocity": 0.8267716535433071
          },
          {
            "duration": 0.22857119999997622,
            "durationTicks": 384,
            "midi": 63,
            "name": "D#4",
            "ticks": 684480,
            "time": 407.42816400000004,
            "velocity": 0.8267716535433071
          },
          {
            "duration": 0.057142800000008265,
            "durationTicks": 96,
            "midi": 63,
            "name": "D#4",
            "ticks": 685320,
            "time": 407.92816350000004,
            "velocity": 0.8267716535433071
          },
          {
            "duration": 0.22857120000003306,
            "durationTicks": 384,
            "midi": 72,
            "name": "C5",
            "ticks": 685440,
            "time": 407.999592,
            "velocity": 0.8267716535433071
          },
          {
            "duration": 0.05714280000006511,
            "durationTicks": 96,
            "midi": 72,
            "name": "C5",
            "ticks": 686280,
            "time": 408.4995915,
            "velocity": 0.8267716535433071
          },
          {
            "duration": 0.22857119999997622,
            "durationTicks": 384,
            "midi": 70,
            "name": "A#4",
            "ticks": 686400,
            "time": 408.57102000000003,
            "velocity": 0.8267716535433071
          },
          {
            "duration": 0.057142800000008265,
            "durationTicks": 96,
            "midi": 70,
            "name": "A#4",
            "ticks": 687240,
            "time": 409.07101950000003,
            "velocity": 0.8267716535433071
          },
          {
            "duration": 0.22857119999997622,
            "durationTicks": 384,
            "midi": 60,
            "name": "C4",
            "ticks": 687360,
            "time": 409.14244800000006,
            "velocity": 0.8267716535433071
          },
          {
            "duration": 0.22857119999997622,
            "durationTicks": 384,
            "midi": 50,
            "name": "D3",
            "ticks": 689280,
            "time": 410.28530400000005,
            "velocity": 0.5511811023622047
          },
          {
            "duration": 1.1428559999999948,
            "durationTicks": 1920,
            "midi": 60,
            "name": "C4",
            "ticks": 694080,
            "time": 413.142444,
            "velocity": 0.4566929133858268
          },
          {
            "duration": 0.22857120000003306,
            "durationTicks": 384,
            "midi": 58,
            "name": "A#3",
            "ticks": 696000,
            "time": 414.2853,
            "velocity": 0.4566929133858268
          },
          {
            "duration": 1.1428559999999948,
            "durationTicks": 1920,
            "midi": 60,
            "name": "C4",
            "ticks": 697920,
            "time": 415.42815600000006,
            "velocity": 0.4566929133858268
          },
          {
            "duration": 0.22857119999997622,
            "durationTicks": 384,
            "midi": 58,
            "name": "A#3",
            "ticks": 699840,
            "time": 416.57101200000005,
            "velocity": 0.4566929133858268
          },
          {
            "duration": 0.11428560000001653,
            "durationTicks": 192,
            "midi": 55,
            "name": "G3",
            "ticks": 700800,
            "time": 417.14244,
            "velocity": 0.8267716535433071
          },
          {
            "duration": 0.11428560000007337,
            "durationTicks": 192,
            "midi": 55,
            "name": "G3",
            "ticks": 701040,
            "time": 417.285297,
            "velocity": 0.8267716535433071
          },
          {
            "duration": 0.11428560000007337,
            "durationTicks": 192,
            "midi": 55,
            "name": "G3",
            "ticks": 701280,
            "time": 417.428154,
            "velocity": 0.8267716535433071
          },
          {
            "duration": 0.11428560000001653,
            "durationTicks": 192,
            "midi": 55,
            "name": "G3",
            "ticks": 701520,
            "time": 417.57101100000006,
            "velocity": 0.8267716535433071
          },
          {
            "duration": 0.11428560000001653,
            "durationTicks": 192,
            "midi": 55,
            "name": "G3",
            "ticks": 701760,
            "time": 417.71386800000005,
            "velocity": 0.8267716535433071
          },
          {
            "duration": 0.11428560000001653,
            "durationTicks": 192,
            "midi": 55,
            "name": "G3",
            "ticks": 702000,
            "time": 417.85672500000004,
            "velocity": 0.8267716535433071
          },
          {
            "duration": 0.11428560000001653,
            "durationTicks": 192,
            "midi": 55,
            "name": "G3",
            "ticks": 702240,
            "time": 417.99958200000003,
            "velocity": 0.8267716535433071
          },
          {
            "duration": 0.11428560000001653,
            "durationTicks": 192,
            "midi": 55,
            "name": "G3",
            "ticks": 702480,
            "time": 418.142439,
            "velocity": 0.8267716535433071
          },
          {
            "duration": 0.11428560000001653,
            "durationTicks": 192,
            "midi": 60,
            "name": "C4",
            "ticks": 702720,
            "time": 418.285296,
            "velocity": 0.8267716535433071
          },
          {
            "duration": 0.11428560000007337,
            "durationTicks": 192,
            "midi": 60,
            "name": "C4",
            "ticks": 702960,
            "time": 418.428153,
            "velocity": 0.8267716535433071
          },
          {
            "duration": 0.11428560000001653,
            "durationTicks": 192,
            "midi": 60,
            "name": "C4",
            "ticks": 703200,
            "time": 418.57101000000006,
            "velocity": 0.8267716535433071
          },
          {
            "duration": 0.11428560000001653,
            "durationTicks": 192,
            "midi": 60,
            "name": "C4",
            "ticks": 703440,
            "time": 418.71386700000005,
            "velocity": 0.8267716535433071
          },
          {
            "duration": 0.11428560000001653,
            "durationTicks": 192,
            "midi": 60,
            "name": "C4",
            "ticks": 703680,
            "time": 418.85672400000004,
            "velocity": 0.8267716535433071
          },
          {
            "duration": 0.11428560000001653,
            "durationTicks": 192,
            "midi": 60,
            "name": "C4",
            "ticks": 703920,
            "time": 418.99958100000003,
            "velocity": 0.8267716535433071
          },
          {
            "duration": 0.11428560000001653,
            "durationTicks": 192,
            "midi": 60,
            "name": "C4",
            "ticks": 704160,
            "time": 419.142438,
            "velocity": 0.8267716535433071
          },
          {
            "duration": 0.11428560000001653,
            "durationTicks": 192,
            "midi": 60,
            "name": "C4",
            "ticks": 704400,
            "time": 419.285295,
            "velocity": 0.8267716535433071
          },
          {
            "duration": 0.11428560000007337,
            "durationTicks": 192,
            "midi": 62,
            "name": "D4",
            "ticks": 704640,
            "time": 419.428152,
            "velocity": 0.8267716535433071
          },
          {
            "duration": 0.11428560000001653,
            "durationTicks": 192,
            "midi": 62,
            "name": "D4",
            "ticks": 704880,
            "time": 419.57100900000006,
            "velocity": 0.8267716535433071
          },
          {
            "duration": 0.11428560000001653,
            "durationTicks": 192,
            "midi": 62,
            "name": "D4",
            "ticks": 705120,
            "time": 419.71386600000005,
            "velocity": 0.8267716535433071
          },
          {
            "duration": 0.11428560000001653,
            "durationTicks": 192,
            "midi": 62,
            "name": "D4",
            "ticks": 705360,
            "time": 419.85672300000004,
            "velocity": 0.8267716535433071
          },
          {
            "duration": 0.11428560000001653,
            "durationTicks": 192,
            "midi": 50,
            "name": "D3",
            "ticks": 705600,
            "time": 419.99958000000004,
            "velocity": 0.8267716535433071
          },
          {
            "duration": 0.11428560000001653,
            "durationTicks": 192,
            "midi": 50,
            "name": "D3",
            "ticks": 705840,
            "time": 420.14243700000003,
            "velocity": 0.8267716535433071
          },
          {
            "duration": 0.11428560000001653,
            "durationTicks": 192,
            "midi": 50,
            "name": "D3",
            "ticks": 706080,
            "time": 420.285294,
            "velocity": 0.8267716535433071
          },
          {
            "duration": 0.11428560000007337,
            "durationTicks": 192,
            "midi": 50,
            "name": "D3",
            "ticks": 706320,
            "time": 420.428151,
            "velocity": 0.8267716535433071
          },
          {
            "duration": 0.22857120000003306,
            "durationTicks": 384,
            "midi": 55,
            "name": "G3",
            "ticks": 706560,
            "time": 420.571008,
            "velocity": 0.7244094488188977
          },
          {
            "duration": 1.1428559999999948,
            "durationTicks": 1920,
            "midi": 67,
            "name": "G4",
            "ticks": 707520,
            "time": 421.14243600000003,
            "velocity": 0.4566929133858268
          },
          {
            "duration": 0.22857119999997622,
            "durationTicks": 384,
            "midi": 66,
            "name": "F#4",
            "ticks": 709440,
            "time": 422.285292,
            "velocity": 0.4566929133858268
          },
          {
            "duration": 1.1428559999999948,
            "durationTicks": 1920,
            "midi": 55,
            "name": "G3",
            "ticks": 711360,
            "time": 423.428148,
            "velocity": 0.4566929133858268
          },
          {
            "duration": 0.22857120000003306,
            "durationTicks": 384,
            "midi": 54,
            "name": "F#3",
            "ticks": 713280,
            "time": 424.571004,
            "velocity": 0.4566929133858268
          },
          {
            "duration": 0.11428560000001653,
            "durationTicks": 192,
            "midi": 55,
            "name": "G3",
            "ticks": 716160,
            "time": 426.28528800000004,
            "velocity": 0.8267716535433071
          },
          {
            "duration": 0.11428560000001653,
            "durationTicks": 192,
            "midi": 55,
            "name": "G3",
            "ticks": 716400,
            "time": 426.42814500000003,
            "velocity": 0.8267716535433071
          },
          {
            "duration": 0.11428560000001653,
            "durationTicks": 192,
            "midi": 55,
            "name": "G3",
            "ticks": 716640,
            "time": 426.571002,
            "velocity": 0.8267716535433071
          },
          {
            "duration": 0.11428560000007337,
            "durationTicks": 192,
            "midi": 55,
            "name": "G3",
            "ticks": 716880,
            "time": 426.713859,
            "velocity": 0.8267716535433071
          },
          {
            "duration": 0.11428560000001653,
            "durationTicks": 192,
            "midi": 55,
            "name": "G3",
            "ticks": 717120,
            "time": 426.85671600000006,
            "velocity": 0.8267716535433071
          },
          {
            "duration": 0.11428560000001653,
            "durationTicks": 192,
            "midi": 55,
            "name": "G3",
            "ticks": 717360,
            "time": 426.99957300000005,
            "velocity": 0.8267716535433071
          },
          {
            "duration": 0.11428560000001653,
            "durationTicks": 192,
            "midi": 55,
            "name": "G3",
            "ticks": 717600,
            "time": 427.14243000000005,
            "velocity": 0.8267716535433071
          },
          {
            "duration": 0.11428560000001653,
            "durationTicks": 192,
            "midi": 55,
            "name": "G3",
            "ticks": 717840,
            "time": 427.28528700000004,
            "velocity": 0.8267716535433071
          },
          {
            "duration": 0.11428560000001653,
            "durationTicks": 192,
            "midi": 60,
            "name": "C4",
            "ticks": 718080,
            "time": 427.42814400000003,
            "velocity": 0.8267716535433071
          },
          {
            "duration": 0.11428560000001653,
            "durationTicks": 192,
            "midi": 60,
            "name": "C4",
            "ticks": 718320,
            "time": 427.571001,
            "velocity": 0.8267716535433071
          },
          {
            "duration": 0.11428560000007337,
            "durationTicks": 192,
            "midi": 60,
            "name": "C4",
            "ticks": 718560,
            "time": 427.713858,
            "velocity": 0.8267716535433071
          },
          {
            "duration": 0.11428560000007337,
            "durationTicks": 192,
            "midi": 60,
            "name": "C4",
            "ticks": 718800,
            "time": 427.856715,
            "velocity": 0.8267716535433071
          },
          {
            "duration": 0.11428560000001653,
            "durationTicks": 192,
            "midi": 60,
            "name": "C4",
            "ticks": 719040,
            "time": 427.99957200000006,
            "velocity": 0.8267716535433071
          },
          {
            "duration": 0.11428560000001653,
            "durationTicks": 192,
            "midi": 60,
            "name": "C4",
            "ticks": 719280,
            "time": 428.14242900000005,
            "velocity": 0.8267716535433071
          },
          {
            "duration": 0.11428560000001653,
            "durationTicks": 192,
            "midi": 60,
            "name": "C4",
            "ticks": 719520,
            "time": 428.28528600000004,
            "velocity": 0.8267716535433071
          },
          {
            "duration": 0.11428560000001653,
            "durationTicks": 192,
            "midi": 60,
            "name": "C4",
            "ticks": 719760,
            "time": 428.42814300000003,
            "velocity": 0.8267716535433071
          },
          {
            "duration": 0.11428560000001653,
            "durationTicks": 192,
            "midi": 62,
            "name": "D4",
            "ticks": 720000,
            "time": 428.571,
            "velocity": 0.8267716535433071
          },
          {
            "duration": 0.11428560000001653,
            "durationTicks": 192,
            "midi": 62,
            "name": "D4",
            "ticks": 720240,
            "time": 428.713857,
            "velocity": 0.8267716535433071
          },
          {
            "duration": 0.11428560000007337,
            "durationTicks": 192,
            "midi": 62,
            "name": "D4",
            "ticks": 720480,
            "time": 428.856714,
            "velocity": 0.8267716535433071
          },
          {
            "duration": 0.11428560000001653,
            "durationTicks": 192,
            "midi": 62,
            "name": "D4",
            "ticks": 720720,
            "time": 428.99957100000006,
            "velocity": 0.8267716535433071
          },
          {
            "duration": 0.11428560000001653,
            "durationTicks": 192,
            "midi": 50,
            "name": "D3",
            "ticks": 720960,
            "time": 429.14242800000005,
            "velocity": 0.8267716535433071
          },
          {
            "duration": 0.11428560000001653,
            "durationTicks": 192,
            "midi": 50,
            "name": "D3",
            "ticks": 721200,
            "time": 429.28528500000004,
            "velocity": 0.8267716535433071
          },
          {
            "duration": 0.11428560000001653,
            "durationTicks": 192,
            "midi": 50,
            "name": "D3",
            "ticks": 721440,
            "time": 429.42814200000004,
            "velocity": 0.8267716535433071
          },
          {
            "duration": 0.11428560000001653,
            "durationTicks": 192,
            "midi": 50,
            "name": "D3",
            "ticks": 721680,
            "time": 429.57099900000003,
            "velocity": 0.8267716535433071
          },
          {
            "duration": 0.4571424000000093,
            "durationTicks": 768,
            "midi": 55,
            "name": "G3",
            "ticks": 721920,
            "time": 429.713856,
            "velocity": 0.8267716535433071
          },
          {
            "duration": 0.11428560000001653,
            "durationTicks": 192,
            "midi": 74,
            "name": "D5",
            "ticks": 723600,
            "time": 430.713855,
            "velocity": 0.8267716535433071
          },
          {
            "duration": 0.11428560000007337,
            "durationTicks": 192,
            "midi": 72,
            "name": "C5",
            "ticks": 723840,
            "time": 430.856712,
            "velocity": 0.8267716535433071
          },
          {
            "duration": 0.11428560000007337,
            "durationTicks": 192,
            "midi": 70,
            "name": "A#4",
            "ticks": 724080,
            "time": 430.999569,
            "velocity": 0.8267716535433071
          },
          {
            "duration": 0.11428560000001653,
            "durationTicks": 192,
            "midi": 69,
            "name": "A4",
            "ticks": 724320,
            "time": 431.14242600000006,
            "velocity": 0.8267716535433071
          },
          {
            "duration": 0.11428560000001653,
            "durationTicks": 192,
            "midi": 67,
            "name": "G4",
            "ticks": 724560,
            "time": 431.28528300000005,
            "velocity": 0.8267716535433071
          },
          {
            "duration": 0.11428560000001653,
            "durationTicks": 192,
            "midi": 66,
            "name": "F#4",
            "ticks": 724800,
            "time": 431.42814000000004,
            "velocity": 0.8267716535433071
          },
          {
            "duration": 0.11428560000001653,
            "durationTicks": 192,
            "midi": 63,
            "name": "D#4",
            "ticks": 725040,
            "time": 431.57099700000003,
            "velocity": 0.8267716535433071
          },
          {
            "duration": 0.11428560000001653,
            "durationTicks": 192,
            "midi": 62,
            "name": "D4",
            "ticks": 725280,
            "time": 431.713854,
            "velocity": 0.8267716535433071
          },
          {
            "duration": 0.11428560000001653,
            "durationTicks": 192,
            "midi": 60,
            "name": "C4",
            "ticks": 725520,
            "time": 431.856711,
            "velocity": 0.8267716535433071
          },
          {
            "duration": 0.18571410000004107,
            "durationTicks": 312,
            "midi": 58,
            "name": "A#3",
            "ticks": 725760,
            "time": 431.999568,
            "velocity": 0.8267716535433071
          },
          {
            "duration": 0.18571409999998423,
            "durationTicks": 312,
            "midi": 58,
            "name": "A#3",
            "ticks": 726240,
            "time": 432.28528200000005,
            "velocity": 0.8267716535433071
          },
          {
            "duration": 0.18571410000004107,
            "durationTicks": 312,
            "midi": 60,
            "name": "C4",
            "ticks": 726720,
            "time": 432.57099600000004,
            "velocity": 0.8267716535433071
          },
          {
            "duration": 0.18571410000004107,
            "durationTicks": 312,
            "midi": 62,
            "name": "D4",
            "ticks": 727200,
            "time": 432.85671,
            "velocity": 0.8267716535433071
          },
          {
            "duration": 0.11428560000001653,
            "durationTicks": 192,
            "midi": 67,
            "name": "G4",
            "ticks": 727680,
            "time": 433.14242400000006,
            "velocity": 0.8267716535433071
          },
          {
            "duration": 0.11428560000001653,
            "durationTicks": 192,
            "midi": 62,
            "name": "D4",
            "ticks": 727920,
            "time": 433.28528100000005,
            "velocity": 0.8267716535433071
          },
          {
            "duration": 0.11428560000001653,
            "durationTicks": 192,
            "midi": 70,
            "name": "A#4",
            "ticks": 728160,
            "time": 433.42813800000005,
            "velocity": 0.8267716535433071
          },
          {
            "duration": 0.11428560000001653,
            "durationTicks": 192,
            "midi": 69,
            "name": "A4",
            "ticks": 728400,
            "time": 433.57099500000004,
            "velocity": 0.8267716535433071
          },
          {
            "duration": 0.11428560000001653,
            "durationTicks": 192,
            "midi": 67,
            "name": "G4",
            "ticks": 728640,
            "time": 433.71385200000003,
            "velocity": 0.8267716535433071
          },
          {
            "duration": 0.11428560000001653,
            "durationTicks": 192,
            "midi": 65,
            "name": "F4",
            "ticks": 728880,
            "time": 433.856709,
            "velocity": 0.8267716535433071
          },
          {
            "duration": 0.11428560000007337,
            "durationTicks": 192,
            "midi": 63,
            "name": "D#4",
            "ticks": 729120,
            "time": 433.999566,
            "velocity": 0.8267716535433071
          },
          {
            "duration": 0.11428560000007337,
            "durationTicks": 192,
            "midi": 62,
            "name": "D4",
            "ticks": 729360,
            "time": 434.142423,
            "velocity": 0.8267716535433071
          },
          {
            "duration": 0.11428560000001653,
            "durationTicks": 192,
            "midi": 61,
            "name": "C#4",
            "ticks": 729600,
            "time": 434.28528000000006,
            "velocity": 0.8267716535433071
          },
          {
            "duration": 0.11428560000001653,
            "durationTicks": 192,
            "midi": 64,
            "name": "E4",
            "ticks": 729840,
            "time": 434.42813700000005,
            "velocity": 0.8267716535433071
          },
          {
            "duration": 0.11428560000001653,
            "durationTicks": 192,
            "midi": 69,
            "name": "A4",
            "ticks": 730080,
            "time": 434.57099400000004,
            "velocity": 0.8267716535433071
          },
          {
            "duration": 0.11428560000001653,
            "durationTicks": 192,
            "midi": 67,
            "name": "G4",
            "ticks": 730320,
            "time": 434.71385100000003,
            "velocity": 0.8267716535433071
          },
          {
            "duration": 0.11428560000001653,
            "durationTicks": 192,
            "midi": 66,
            "name": "F#4",
            "ticks": 730560,
            "time": 434.856708,
            "velocity": 0.8267716535433071
          },
          {
            "duration": 0.11428560000001653,
            "durationTicks": 192,
            "midi": 63,
            "name": "D#4",
            "ticks": 730800,
            "time": 434.999565,
            "velocity": 0.8267716535433071
          },
          {
            "duration": 0.11428560000007337,
            "durationTicks": 192,
            "midi": 62,
            "name": "D4",
            "ticks": 731040,
            "time": 435.142422,
            "velocity": 0.8267716535433071
          },
          {
            "duration": 0.11428560000001653,
            "durationTicks": 192,
            "midi": 60,
            "name": "C4",
            "ticks": 731280,
            "time": 435.28527900000006,
            "velocity": 0.8267716535433071
          },
          {
            "duration": 0.22857119999997622,
            "durationTicks": 384,
            "midi": 58,
            "name": "A#3",
            "ticks": 731520,
            "time": 435.42813600000005,
            "velocity": 0.8267716535433071
          },
          {
            "duration": 0.4632191999999691,
            "durationTicks": 768,
            "midi": 55,
            "name": "G3",
            "ticks": 732000,
            "time": 435.71385000000004,
            "velocity": 0.8267716535433071
          },
          {
            "duration": 0.4632191999999691,
            "durationTicks": 768,
            "midi": 67,
            "name": "G4",
            "ticks": 732000,
            "time": 435.71385000000004,
            "velocity": 0.8267716535433071
          },
          {
            "duration": 0.5317420000000084,
            "durationTicks": 864,
            "midi": 55,
            "name": "G3",
            "ticks": 732960,
            "time": 436.29357400000004,
            "velocity": 0.8267716535433071
          },
          {
            "duration": 0.5317420000000084,
            "durationTicks": 864,
            "midi": 67,
            "name": "G4",
            "ticks": 732960,
            "time": 436.29357400000004,
            "velocity": 0.8267716535433071
          },
          {
            "duration": 0.47941179999997985,
            "durationTicks": 768,
            "midi": 55,
            "name": "G3",
            "ticks": 733920,
            "time": 436.88472200000007,
            "velocity": 0.8267716535433071
          },
          {
            "duration": 0.47941179999997985,
            "durationTicks": 768,
            "midi": 67,
            "name": "G4",
            "ticks": 733920,
            "time": 436.88472200000007,
            "velocity": 0.8267716535433071
          },
          {
            "duration": 0.5507226000000287,
            "durationTicks": 864,
            "midi": 55,
            "name": "G3",
            "ticks": 734880,
            "time": 437.48473700000005,
            "velocity": 0.8267716535433071
          },
          {
            "duration": 0.5507226000000287,
            "durationTicks": 864,
            "midi": 67,
            "name": "G4",
            "ticks": 734880,
            "time": 437.48473700000005,
            "velocity": 0.8267716535433071
          },
          {
            "duration": 0.49936259999998356,
            "durationTicks": 768,
            "midi": 55,
            "name": "G3",
            "ticks": 735840,
            "time": 438.09699800000004,
            "velocity": 0.8267716535433071
          },
          {
            "duration": 0.49936259999998356,
            "durationTicks": 768,
            "midi": 67,
            "name": "G4",
            "ticks": 735840,
            "time": 438.09699800000004,
            "velocity": 0.8267716535433071
          },
          {
            "duration": 0.5741447999999991,
            "durationTicks": 864,
            "midi": 55,
            "name": "G3",
            "ticks": 736800,
            "time": 438.72201500000006,
            "velocity": 0.8267716535433071
          },
          {
            "duration": 0.5741447999999991,
            "durationTicks": 864,
            "midi": 67,
            "name": "G4",
            "ticks": 736800,
            "time": 438.72201500000006,
            "velocity": 0.8267716535433071
          },
          {
            "duration": 0.5182331999999974,
            "durationTicks": 768,
            "midi": 55,
            "name": "G3",
            "ticks": 737760,
            "time": 439.36033100000003,
            "velocity": 0.8267716535433071
          },
          {
            "duration": 0.5182331999999974,
            "durationTicks": 768,
            "midi": 67,
            "name": "G4",
            "ticks": 737760,
            "time": 439.36033100000003,
            "velocity": 0.8267716535433071
          },
          {
            "duration": 0.1500000000000341,
            "durationTicks": 240,
            "midi": 65,
            "name": "F4",
            "ticks": 748320,
            "time": 446.038669,
            "velocity": 0.5511811023622047
          },
          {
            "duration": 0.12000000000000455,
            "durationTicks": 192,
            "midi": 63,
            "name": "D#4",
            "ticks": 748560,
            "time": 446.18866900000006,
            "velocity": 0.5511811023622047
          },
          {
            "duration": 0.2400000000000091,
            "durationTicks": 384,
            "midi": 63,
            "name": "D#4",
            "ticks": 748800,
            "time": 446.33866900000004,
            "velocity": 0.5511811023622047
          },
          {
            "duration": 0.14999999999997726,
            "durationTicks": 240,
            "midi": 65,
            "name": "F4",
            "ticks": 749280,
            "time": 446.63866900000005,
            "velocity": 0.5511811023622047
          },
          {
            "duration": 0.12000000000000455,
            "durationTicks": 192,
            "midi": 63,
            "name": "D#4",
            "ticks": 749520,
            "time": 446.788669,
            "velocity": 0.5511811023622047
          },
          {
            "duration": 0.23999999999995225,
            "durationTicks": 384,
            "midi": 63,
            "name": "D#4",
            "ticks": 749760,
            "time": 446.93866900000006,
            "velocity": 0.5511811023622047
          },
          {
            "duration": 0.1500000000000341,
            "durationTicks": 240,
            "midi": 65,
            "name": "F4",
            "ticks": 750240,
            "time": 447.238669,
            "velocity": 0.5511811023622047
          },
          {
            "duration": 0.12000000000000455,
            "durationTicks": 192,
            "midi": 63,
            "name": "D#4",
            "ticks": 750480,
            "time": 447.38866900000005,
            "velocity": 0.5511811023622047
          },
          {
            "duration": 0.30000000000001137,
            "durationTicks": 480,
            "midi": 62,
            "name": "D4",
            "ticks": 750720,
            "time": 447.538669,
            "velocity": 0.6299212598425197
          },
          {
            "duration": 0.6000000000000227,
            "durationTicks": 960,
            "midi": 74,
            "name": "D5",
            "ticks": 751200,
            "time": 447.83866900000004,
            "velocity": 0.6299212598425197
          },
          {
            "duration": 0.5999999999999659,
            "durationTicks": 960,
            "midi": 72,
            "name": "C5",
            "ticks": 752160,
            "time": 448.43866900000006,
            "velocity": 0.6299212598425197
          },
          {
            "duration": 0.6000000000000227,
            "durationTicks": 960,
            "midi": 70,
            "name": "A#4",
            "ticks": 753120,
            "time": 449.038669,
            "velocity": 0.6299212598425197
          },
          {
            "duration": 0.2400000000000091,
            "durationTicks": 384,
            "midi": 69,
            "name": "A4",
            "ticks": 754080,
            "time": 449.63866900000005,
            "velocity": 0.6299212598425197
          },
          {
            "duration": 0.22857119999997622,
            "durationTicks": 384,
            "midi": 67,
            "name": "G4",
            "ticks": 754560,
            "time": 449.93866900000006,
            "velocity": 0.8267716535433071
          },
          {
            "duration": 0.22857119999997622,
            "durationTicks": 384,
            "midi": 62,
            "name": "D4",
            "ticks": 755520,
            "time": 450.5100970000001,
            "velocity": 0.8267716535433071
          },
          {
            "duration": 0.22857120000003306,
            "durationTicks": 384,
            "midi": 67,
            "name": "G4",
            "ticks": 756480,
            "time": 451.08152500000006,
            "velocity": 0.8267716535433071
          },
          {
            "duration": 0.22857119999997622,
            "durationTicks": 384,
            "midi": 62,
            "name": "D4",
            "ticks": 757440,
            "time": 451.6529530000001,
            "velocity": 0.8267716535433071
          },
          {
            "duration": 0.22857120000003306,
            "durationTicks": 384,
            "midi": 67,
            "name": "G4",
            "ticks": 758400,
            "time": 452.22438100000005,
            "velocity": 0.8267716535433071
          },
          {
            "duration": 0.22857119999997622,
            "durationTicks": 384,
            "midi": 62,
            "name": "D4",
            "ticks": 759360,
            "time": 452.7958090000001,
            "velocity": 0.8267716535433071
          },
          {
            "duration": 0.1999998000000005,
            "durationTicks": 336,
            "midi": 67,
            "name": "G4",
            "ticks": 760320,
            "time": 453.36723700000005,
            "velocity": 0.8267716535433071
          },
          {
            "duration": 0.1999998000000005,
            "durationTicks": 336,
            "midi": 62,
            "name": "D4",
            "ticks": 760800,
            "time": 453.6529510000001,
            "velocity": 0.8267716535433071
          },
          {
            "duration": 0.1999998000000005,
            "durationTicks": 336,
            "midi": 67,
            "name": "G4",
            "ticks": 761280,
            "time": 453.93866500000007,
            "velocity": 0.8267716535433071
          },
          {
            "duration": 0.1999998000000005,
            "durationTicks": 336,
            "midi": 62,
            "name": "D4",
            "ticks": 761760,
            "time": 454.22437900000006,
            "velocity": 0.8267716535433071
          },
          {
            "duration": 0.25263119999999617,
            "durationTicks": 384,
            "midi": 67,
            "name": "G4",
            "ticks": 762240,
            "time": 454.51009300000004,
            "velocity": 0.8267716535433071
          },
          {
            "duration": 0.2666664000000196,
            "durationTicks": 384,
            "midi": 55,
            "name": "G3",
            "ticks": 764160,
            "time": 455.773249,
            "velocity": 0.8267716535433071
          },
          {
            "duration": 0.29090880000001107,
            "durationTicks": 384,
            "midi": 67,
            "name": "G4",
            "ticks": 765120,
            "time": 456.455419,
            "velocity": 0.8267716535433071
          },
          {
            "duration": 0.75,
            "durationTicks": 960,
            "midi": 55,
            "name": "G3",
            "ticks": 766080,
            "time": 457.201221,
            "velocity": 0.8267716535433071
          }
        ]
      },
      {
        "channel": 0,
        "controlChanges": {},
        "pitchBends": [],
        "instrument": {
          "family": "piano",
          "number": 0,
          "name": "acoustic grand piano"
        },
        "name": "k550_1",
        "notes": [],
        "endOfTrackTicks": 768000
      },
      {
        "channel": 7,
        "controlChanges": {
          "7": [
            {
              "number": 7,
              "ticks": 0,
              "time": 0,
              "value": 0.9763779527559056
            }
          ],
          "10": [
            {
              "number": 10,
              "ticks": 0,
              "time": 0,
              "value": 0.6614173228346457
            }
          ],
          "91": [
            {
              "number": 91,
              "ticks": 0,
              "time": 0,
              "value": 0.5511811023622047
            }
          ]
        },
        "pitchBends": [],
        "instrument": {
          "family": "ensemble",
          "number": 48,
          "name": "string ensemble 1"
        },
        "name": "",
        "notes": [
          {
            "duration": 0.22857119999999997,
            "durationTicks": 384,
            "midi": 43,
            "name": "G2",
            "ticks": 1920,
            "time": 1.142856,
            "velocity": 0.5511811023622047
          },
          {
            "duration": 0.2285712000000002,
            "durationTicks": 384,
            "midi": 55,
            "name": "G3",
            "ticks": 3840,
            "time": 2.285712,
            "velocity": 0.5511811023622047
          },
          {
            "duration": 0.2285712000000002,
            "durationTicks": 384,
            "midi": 43,
            "name": "G2",
            "ticks": 5760,
            "time": 3.4285680000000003,
            "velocity": 0.5511811023622047
          },
          {
            "duration": 0.2285712000000002,
            "durationTicks": 384,
            "midi": 55,
            "name": "G3",
            "ticks": 7680,
            "time": 4.571424,
            "velocity": 0.5511811023622047
          },
          {
            "duration": 0.2285712000000002,
            "durationTicks": 384,
            "midi": 43,
            "name": "G2",
            "ticks": 9600,
            "time": 5.7142800000000005,
            "velocity": 0.5511811023622047
          },
          {
            "duration": 0.2285712000000002,
            "durationTicks": 384,
            "midi": 55,
            "name": "G3",
            "ticks": 11520,
            "time": 6.857136000000001,
            "velocity": 0.5511811023622047
          },
          {
            "duration": 0.22857120000000108,
            "durationTicks": 384,
            "midi": 42,
            "name": "F#2",
            "ticks": 13440,
            "time": 7.999992000000001,
            "velocity": 0.5511811023622047
          },
          {
            "duration": 0.2285711999999993,
            "durationTicks": 384,
            "midi": 50,
            "name": "D3",
            "ticks": 15360,
            "time": 9.142848,
            "velocity": 0.5511811023622047
          },
          {
            "duration": 0.2285711999999993,
            "durationTicks": 384,
            "midi": 43,
            "name": "G2",
            "ticks": 17280,
            "time": 10.285704,
            "velocity": 0.5511811023622047
          },
          {
            "duration": 1.142856,
            "durationTicks": 1920,
            "midi": 48,
            "name": "C3",
            "ticks": 19200,
            "time": 11.428560000000001,
            "velocity": 0.5511811023622047
          },
          {
            "duration": 1.142856,
            "durationTicks": 1920,
            "midi": 46,
            "name": "A#2",
            "ticks": 21120,
            "time": 12.571416000000001,
            "velocity": 0.5511811023622047
          },
          {
            "duration": 1.142856,
            "durationTicks": 1920,
            "midi": 48,
            "name": "C3",
            "ticks": 23040,
            "time": 13.714272000000001,
            "velocity": 0.5511811023622047
          },
          {
            "duration": 1.085713199999999,
            "durationTicks": 1824,
            "midi": 46,
            "name": "A#2",
            "ticks": 24960,
            "time": 14.857128000000001,
            "velocity": 0.5511811023622047
          },
          {
            "duration": 1.1428559999999983,
            "durationTicks": 1920,
            "midi": 52,
            "name": "E3",
            "ticks": 26880,
            "time": 15.999984000000001,
            "velocity": 0.5511811023622047
          },
          {
            "duration": 1.0857132000000007,
            "durationTicks": 1824,
            "midi": 51,
            "name": "D#3",
            "ticks": 28800,
            "time": 17.14284,
            "velocity": 0.5511811023622047
          },
          {
            "duration": 0.4571423999999986,
            "durationTicks": 768,
            "midi": 50,
            "name": "D3",
            "ticks": 30720,
            "time": 18.285696,
            "velocity": 0.5511811023622047
          },
          {
            "duration": 0.10714275000000129,
            "durationTicks": 180,
            "midi": 50,
            "name": "D3",
            "ticks": 32160,
            "time": 19.142838,
            "velocity": 0.8267716535433071
          },
          {
            "duration": 0.10714275000000129,
            "durationTicks": 180,
            "midi": 50,
            "name": "D3",
            "ticks": 32400,
            "time": 19.285695,
            "velocity": 0.8267716535433071
          },
          {
            "duration": 0.45714239999999506,
            "durationTicks": 768,
            "midi": 50,
            "name": "D3",
            "ticks": 32640,
            "time": 19.428552000000003,
            "velocity": 0.8267716535433071
          },
          {
            "duration": 0.10714274999999773,
            "durationTicks": 180,
            "midi": 50,
            "name": "D3",
            "ticks": 34080,
            "time": 20.285694000000003,
            "velocity": 0.8267716535433071
          },
          {
            "duration": 0.10714274999999773,
            "durationTicks": 180,
            "midi": 50,
            "name": "D3",
            "ticks": 34320,
            "time": 20.428551000000002,
            "velocity": 0.8267716535433071
          },
          {
            "duration": 0.4571423999999986,
            "durationTicks": 768,
            "midi": 50,
            "name": "D3",
            "ticks": 34560,
            "time": 20.571408,
            "velocity": 0.8267716535433071
          },
          {
            "duration": 0.10714275000000129,
            "durationTicks": 180,
            "midi": 50,
            "name": "D3",
            "ticks": 36000,
            "time": 21.42855,
            "velocity": 0.8267716535433071
          },
          {
            "duration": 0.10714275000000129,
            "durationTicks": 180,
            "midi": 50,
            "name": "D3",
            "ticks": 36240,
            "time": 21.571407,
            "velocity": 0.8267716535433071
          },
          {
            "duration": 0.21428550000000257,
            "durationTicks": 360,
            "midi": 50,
            "name": "D3",
            "ticks": 36480,
            "time": 21.714264,
            "velocity": 0.8267716535433071
          },
          {
            "duration": 0.10714275000000129,
            "durationTicks": 180,
            "midi": 50,
            "name": "D3",
            "ticks": 36960,
            "time": 21.999978000000002,
            "velocity": 0.8267716535433071
          },
          {
            "duration": 0.10714275000000129,
            "durationTicks": 180,
            "midi": 50,
            "name": "D3",
            "ticks": 37200,
            "time": 22.142835,
            "velocity": 0.8267716535433071
          },
          {
            "duration": 0.21428550000000257,
            "durationTicks": 360,
            "midi": 50,
            "name": "D3",
            "ticks": 37440,
            "time": 22.285692,
            "velocity": 0.8267716535433071
          },
          {
            "duration": 0.10714274999999773,
            "durationTicks": 180,
            "midi": 50,
            "name": "D3",
            "ticks": 37920,
            "time": 22.571406000000003,
            "velocity": 0.8267716535433071
          },
          {
            "duration": 0.10714274999999773,
            "durationTicks": 180,
            "midi": 50,
            "name": "D3",
            "ticks": 38160,
            "time": 22.714263000000003,
            "velocity": 0.8267716535433071
          },
          {
            "duration": 0.4571423999999986,
            "durationTicks": 768,
            "midi": 50,
            "name": "D3",
            "ticks": 38400,
            "time": 22.857120000000002,
            "velocity": 0.8267716535433071
          },
          {
            "duration": 0.22857119999999753,
            "durationTicks": 384,
            "midi": 43,
            "name": "G2",
            "ticks": 42240,
            "time": 25.142832000000002,
            "velocity": 0.5511811023622047
          },
          {
            "duration": 0.22857120000000108,
            "durationTicks": 384,
            "midi": 55,
            "name": "G3",
            "ticks": 44160,
            "time": 26.285688,
            "velocity": 0.5511811023622047
          },
          {
            "duration": 0.22857119999999753,
            "durationTicks": 384,
            "midi": 39,
            "name": "D#2",
            "ticks": 46080,
            "time": 27.428544000000002,
            "velocity": 0.5511811023622047
          },
          {
            "duration": 0.22857119999999753,
            "durationTicks": 384,
            "midi": 48,
            "name": "C3",
            "ticks": 48000,
            "time": 28.571400000000004,
            "velocity": 0.5511811023622047
          },
          {
            "duration": 0.22857119999999753,
            "durationTicks": 384,
            "midi": 53,
            "name": "F3",
            "ticks": 49920,
            "time": 29.714256000000002,
            "velocity": 0.5511811023622047
          },
          {
            "duration": 0.22857120000000108,
            "durationTicks": 384,
            "midi": 53,
            "name": "F3",
            "ticks": 51840,
            "time": 30.857112,
            "velocity": 0.5511811023622047
          },
          {
            "duration": 0.11428560000000232,
            "durationTicks": 192,
            "midi": 58,
            "name": "A#3",
            "ticks": 53760,
            "time": 31.999968000000003,
            "velocity": 0.8267716535433071
          },
          {
            "duration": 0.11428560000000232,
            "durationTicks": 192,
            "midi": 62,
            "name": "D4",
            "ticks": 54000,
            "time": 32.142825,
            "velocity": 0.8267716535433071
          },
          {
            "duration": 0.11428560000000232,
            "durationTicks": 192,
            "midi": 58,
            "name": "A#3",
            "ticks": 54240,
            "time": 32.285682,
            "velocity": 0.8267716535433071
          },
          {
            "duration": 0.11428560000000232,
            "durationTicks": 192,
            "midi": 62,
            "name": "D4",
            "ticks": 54480,
            "time": 32.428539,
            "velocity": 0.8267716535433071
          },
          {
            "duration": 0.11428560000000232,
            "durationTicks": 192,
            "midi": 58,
            "name": "A#3",
            "ticks": 54720,
            "time": 32.571396,
            "velocity": 0.8267716535433071
          },
          {
            "duration": 0.11428560000000232,
            "durationTicks": 192,
            "midi": 62,
            "name": "D4",
            "ticks": 54960,
            "time": 32.714253,
            "velocity": 0.8267716535433071
          },
          {
            "duration": 0.11428559999999521,
            "durationTicks": 192,
            "midi": 58,
            "name": "A#3",
            "ticks": 55200,
            "time": 32.857110000000006,
            "velocity": 0.8267716535433071
          },
          {
            "duration": 0.11428560000000232,
            "durationTicks": 192,
            "midi": 62,
            "name": "D4",
            "ticks": 55440,
            "time": 32.999967000000005,
            "velocity": 0.8267716535433071
          },
          {
            "duration": 0.11428560000000232,
            "durationTicks": 192,
            "midi": 57,
            "name": "A3",
            "ticks": 55680,
            "time": 33.142824000000005,
            "velocity": 0.8267716535433071
          },
          {
            "duration": 0.11428560000000232,
            "durationTicks": 192,
            "midi": 60,
            "name": "C4",
            "ticks": 55920,
            "time": 33.285681000000004,
            "velocity": 0.8267716535433071
          },
          {
            "duration": 0.11428560000000232,
            "durationTicks": 192,
            "midi": 57,
            "name": "A3",
            "ticks": 56160,
            "time": 33.428538,
            "velocity": 0.8267716535433071
          },
          {
            "duration": 0.11428560000000232,
            "durationTicks": 192,
            "midi": 60,
            "name": "C4",
            "ticks": 56400,
            "time": 33.571395,
            "velocity": 0.8267716535433071
          },
          {
            "duration": 0.11428560000000232,
            "durationTicks": 192,
            "midi": 57,
            "name": "A3",
            "ticks": 56640,
            "time": 33.714252,
            "velocity": 0.8267716535433071
          },
          {
            "duration": 0.11428560000000232,
            "durationTicks": 192,
            "midi": 60,
            "name": "C4",
            "ticks": 56880,
            "time": 33.857109,
            "velocity": 0.8267716535433071
          },
          {
            "duration": 0.11428560000000232,
            "durationTicks": 192,
            "midi": 57,
            "name": "A3",
            "ticks": 57120,
            "time": 33.999966,
            "velocity": 0.8267716535433071
          },
          {
            "duration": 0.11428560000000232,
            "durationTicks": 192,
            "midi": 60,
            "name": "C4",
            "ticks": 57360,
            "time": 34.142823,
            "velocity": 0.8267716535433071
          },
          {
            "duration": 0.11428560000000232,
            "durationTicks": 192,
            "midi": 55,
            "name": "G3",
            "ticks": 57600,
            "time": 34.28568,
            "velocity": 0.8267716535433071
          },
          {
            "duration": 0.11428559999999521,
            "durationTicks": 192,
            "midi": 58,
            "name": "A#3",
            "ticks": 57840,
            "time": 34.428537000000006,
            "velocity": 0.8267716535433071
          },
          {
            "duration": 0.11428560000000232,
            "durationTicks": 192,
            "midi": 55,
            "name": "G3",
            "ticks": 58080,
            "time": 34.571394000000005,
            "velocity": 0.8267716535433071
          },
          {
            "duration": 0.11428560000000232,
            "durationTicks": 192,
            "midi": 58,
            "name": "A#3",
            "ticks": 58320,
            "time": 34.714251000000004,
            "velocity": 0.8267716535433071
          },
          {
            "duration": 0.11428560000000232,
            "durationTicks": 192,
            "midi": 55,
            "name": "G3",
            "ticks": 58560,
            "time": 34.857108000000004,
            "velocity": 0.8267716535433071
          },
          {
            "duration": 0.11428560000000232,
            "durationTicks": 192,
            "midi": 58,
            "name": "A#3",
            "ticks": 58800,
            "time": 34.999965,
            "velocity": 0.8267716535433071
          },
          {
            "duration": 0.11428560000000232,
            "durationTicks": 192,
            "midi": 55,
            "name": "G3",
            "ticks": 59040,
            "time": 35.142822,
            "velocity": 0.8267716535433071
          },
          {
            "duration": 0.11428560000000232,
            "durationTicks": 192,
            "midi": 58,
            "name": "A#3",
            "ticks": 59280,
            "time": 35.285679,
            "velocity": 0.8267716535433071
          },
          {
            "duration": 0.11428560000000232,
            "durationTicks": 192,
            "midi": 53,
            "name": "F3",
            "ticks": 59520,
            "time": 35.428536,
            "velocity": 0.8267716535433071
          },
          {
            "duration": 0.11428560000000232,
            "durationTicks": 192,
            "midi": 58,
            "name": "A#3",
            "ticks": 59760,
            "time": 35.571393,
            "velocity": 0.8267716535433071
          },
          {
            "duration": 0.11428560000000232,
            "durationTicks": 192,
            "midi": 53,
            "name": "F3",
            "ticks": 60000,
            "time": 35.71425,
            "velocity": 0.8267716535433071
          },
          {
            "duration": 0.11428559999999521,
            "durationTicks": 192,
            "midi": 58,
            "name": "A#3",
            "ticks": 60240,
            "time": 35.857107000000006,
            "velocity": 0.8267716535433071
          },
          {
            "duration": 0.11428560000000232,
            "durationTicks": 192,
            "midi": 53,
            "name": "F3",
            "ticks": 60480,
            "time": 35.999964000000006,
            "velocity": 0.8267716535433071
          },
          {
            "duration": 0.11428560000000232,
            "durationTicks": 192,
            "midi": 58,
            "name": "A#3",
            "ticks": 60720,
            "time": 36.142821000000005,
            "velocity": 0.8267716535433071
          },
          {
            "duration": 0.11428560000000232,
            "durationTicks": 192,
            "midi": 53,
            "name": "F3",
            "ticks": 60960,
            "time": 36.285678000000004,
            "velocity": 0.8267716535433071
          },
          {
            "duration": 0.11428560000000232,
            "durationTicks": 192,
            "midi": 58,
            "name": "A#3",
            "ticks": 61200,
            "time": 36.428535000000004,
            "velocity": 0.8267716535433071
          },
          {
            "duration": 0.11428560000000232,
            "durationTicks": 192,
            "midi": 51,
            "name": "D#3",
            "ticks": 61440,
            "time": 36.571392,
            "velocity": 0.8267716535433071
          },
          {
            "duration": 0.11428560000000232,
            "durationTicks": 192,
            "midi": 55,
            "name": "G3",
            "ticks": 61680,
            "time": 36.714249,
            "velocity": 0.8267716535433071
          },
          {
            "duration": 0.11428560000000232,
            "durationTicks": 192,
            "midi": 51,
            "name": "D#3",
            "ticks": 61920,
            "time": 36.857106,
            "velocity": 0.8267716535433071
          },
          {
            "duration": 0.11428560000000232,
            "durationTicks": 192,
            "midi": 55,
            "name": "G3",
            "ticks": 62160,
            "time": 36.999963,
            "velocity": 0.8267716535433071
          },
          {
            "duration": 0.11428560000000232,
            "durationTicks": 192,
            "midi": 51,
            "name": "D#3",
            "ticks": 62400,
            "time": 37.14282,
            "velocity": 0.8267716535433071
          },
          {
            "duration": 0.11428560000000232,
            "durationTicks": 192,
            "midi": 55,
            "name": "G3",
            "ticks": 62640,
            "time": 37.285677,
            "velocity": 0.8267716535433071
          },
          {
            "duration": 0.11428559999999521,
            "durationTicks": 192,
            "midi": 51,
            "name": "D#3",
            "ticks": 62880,
            "time": 37.428534000000006,
            "velocity": 0.8267716535433071
          },
          {
            "duration": 0.11428560000000232,
            "durationTicks": 192,
            "midi": 55,
            "name": "G3",
            "ticks": 63120,
            "time": 37.571391000000006,
            "velocity": 0.8267716535433071
          },
          {
            "duration": 0.11428560000000232,
            "durationTicks": 192,
            "midi": 50,
            "name": "D3",
            "ticks": 63360,
            "time": 37.714248000000005,
            "velocity": 0.8267716535433071
          },
          {
            "duration": 0.11428560000000232,
            "durationTicks": 192,
            "midi": 53,
            "name": "F3",
            "ticks": 63600,
            "time": 37.857105000000004,
            "velocity": 0.8267716535433071
          },
          {
            "duration": 0.11428560000000232,
            "durationTicks": 192,
            "midi": 50,
            "name": "D3",
            "ticks": 63840,
            "time": 37.999962000000004,
            "velocity": 0.8267716535433071
          },
          {
            "duration": 0.11428560000000232,
            "durationTicks": 192,
            "midi": 53,
            "name": "F3",
            "ticks": 64080,
            "time": 38.142819,
            "velocity": 0.8267716535433071
          },
          {
            "duration": 0.11428560000000232,
            "durationTicks": 192,
            "midi": 50,
            "name": "D3",
            "ticks": 64320,
            "time": 38.285676,
            "velocity": 0.8267716535433071
          },
          {
            "duration": 0.11428560000000232,
            "durationTicks": 192,
            "midi": 53,
            "name": "F3",
            "ticks": 64560,
            "time": 38.428533,
            "velocity": 0.8267716535433071
          },
          {
            "duration": 0.11428560000000232,
            "durationTicks": 192,
            "midi": 50,
            "name": "D3",
            "ticks": 64800,
            "time": 38.57139,
            "velocity": 0.8267716535433071
          },
          {
            "duration": 0.11428560000000232,
            "durationTicks": 192,
            "midi": 53,
            "name": "F3",
            "ticks": 65040,
            "time": 38.714247,
            "velocity": 0.8267716535433071
          },
          {
            "duration": 0.9142847999999901,
            "durationTicks": 1536,
            "midi": 48,
            "name": "C3",
            "ticks": 65280,
            "time": 38.85710400000001,
            "velocity": 0.8818897637795275
          },
          {
            "duration": 0.45714240000000217,
            "durationTicks": 768,
            "midi": 48,
            "name": "C3",
            "ticks": 67200,
            "time": 39.99996,
            "velocity": 0.8818897637795275
          },
          {
            "duration": 0.45714239999999506,
            "durationTicks": 768,
            "midi": 49,
            "name": "C#3",
            "ticks": 68160,
            "time": 40.571388000000006,
            "velocity": 0.8818897637795275
          },
          {
            "duration": 0.45714239999999506,
            "durationTicks": 768,
            "midi": 48,
            "name": "C3",
            "ticks": 69120,
            "time": 41.142816,
            "velocity": 0.8818897637795275
          },
          {
            "duration": 0.45714240000000217,
            "durationTicks": 768,
            "midi": 49,
            "name": "C#3",
            "ticks": 70080,
            "time": 41.714244,
            "velocity": 0.8818897637795275
          },
          {
            "duration": 0.45714239999999506,
            "durationTicks": 768,
            "midi": 48,
            "name": "C3",
            "ticks": 71040,
            "time": 42.285672000000005,
            "velocity": 0.8818897637795275
          },
          {
            "duration": 0.11428560000000232,
            "durationTicks": 192,
            "midi": 48,
            "name": "C3",
            "ticks": 72720,
            "time": 43.285671,
            "velocity": 0.8267716535433071
          },
          {
            "duration": 0.10714275000000129,
            "durationTicks": 180,
            "midi": 53,
            "name": "F3",
            "ticks": 72960,
            "time": 43.428528,
            "velocity": 0.8267716535433071
          },
          {
            "duration": 0.10714274999999418,
            "durationTicks": 180,
            "midi": 53,
            "name": "F3",
            "ticks": 73200,
            "time": 43.57138500000001,
            "velocity": 0.8267716535433071
          },
          {
            "duration": 0.10714275000000129,
            "durationTicks": 180,
            "midi": 53,
            "name": "F3",
            "ticks": 73440,
            "time": 43.714242000000006,
            "velocity": 0.8267716535433071
          },
          {
            "duration": 0.10714275000000129,
            "durationTicks": 180,
            "midi": 53,
            "name": "F3",
            "ticks": 73680,
            "time": 43.857099000000005,
            "velocity": 0.8267716535433071
          },
          {
            "duration": 0.10714275000000129,
            "durationTicks": 180,
            "midi": 53,
            "name": "F3",
            "ticks": 73920,
            "time": 43.999956000000005,
            "velocity": 0.8267716535433071
          },
          {
            "duration": 0.10714275000000129,
            "durationTicks": 180,
            "midi": 53,
            "name": "F3",
            "ticks": 74160,
            "time": 44.142813000000004,
            "velocity": 0.8267716535433071
          },
          {
            "duration": 0.10714275000000129,
            "durationTicks": 180,
            "midi": 53,
            "name": "F3",
            "ticks": 74400,
            "time": 44.28567,
            "velocity": 0.8267716535433071
          },
          {
            "duration": 0.10714275000000129,
            "durationTicks": 180,
            "midi": 53,
            "name": "F3",
            "ticks": 74640,
            "time": 44.428527,
            "velocity": 0.8267716535433071
          },
          {
            "duration": 0.10714275000000129,
            "durationTicks": 180,
            "midi": 53,
            "name": "F3",
            "ticks": 74880,
            "time": 44.571384,
            "velocity": 0.8267716535433071
          },
          {
            "duration": 0.10714275000000129,
            "durationTicks": 180,
            "midi": 53,
            "name": "F3",
            "ticks": 75120,
            "time": 44.714241,
            "velocity": 0.8267716535433071
          },
          {
            "duration": 0.10714275000000129,
            "durationTicks": 180,
            "midi": 53,
            "name": "F3",
            "ticks": 75360,
            "time": 44.857098,
            "velocity": 0.8267716535433071
          },
          {
            "duration": 0.10714274999999418,
            "durationTicks": 180,
            "midi": 53,
            "name": "F3",
            "ticks": 75600,
            "time": 44.99995500000001,
            "velocity": 0.8267716535433071
          },
          {
            "duration": 0.10714274999999418,
            "durationTicks": 180,
            "midi": 53,
            "name": "F3",
            "ticks": 75840,
            "time": 45.142812000000006,
            "velocity": 0.8267716535433071
          },
          {
            "duration": 0.10714275000000129,
            "durationTicks": 180,
            "midi": 53,
            "name": "F3",
            "ticks": 76080,
            "time": 45.285669000000006,
            "velocity": 0.8267716535433071
          },
          {
            "duration": 0.10714275000000129,
            "durationTicks": 180,
            "midi": 53,
            "name": "F3",
            "ticks": 76320,
            "time": 45.428526000000005,
            "velocity": 0.8267716535433071
          },
          {
            "duration": 0.10714275000000129,
            "durationTicks": 180,
            "midi": 53,
            "name": "F3",
            "ticks": 76560,
            "time": 45.571383000000004,
            "velocity": 0.8267716535433071
          },
          {
            "duration": 0.10714275000000129,
            "durationTicks": 180,
            "midi": 53,
            "name": "F3",
            "ticks": 76800,
            "time": 45.714240000000004,
            "velocity": 0.8267716535433071
          },
          {
            "duration": 0.10714275000000129,
            "durationTicks": 180,
            "midi": 53,
            "name": "F3",
            "ticks": 77040,
            "time": 45.857097,
            "velocity": 0.8267716535433071
          },
          {
            "duration": 0.10714275000000129,
            "durationTicks": 180,
            "midi": 53,
            "name": "F3",
            "ticks": 77280,
            "time": 45.999954,
            "velocity": 0.8267716535433071
          },
          {
            "duration": 0.10714275000000129,
            "durationTicks": 180,
            "midi": 53,
            "name": "F3",
            "ticks": 77520,
            "time": 46.142811,
            "velocity": 0.8267716535433071
          },
          {
            "duration": 0.10714275000000129,
            "durationTicks": 180,
            "midi": 53,
            "name": "F3",
            "ticks": 77760,
            "time": 46.285668,
            "velocity": 0.8267716535433071
          },
          {
            "duration": 0.10714275000000129,
            "durationTicks": 180,
            "midi": 53,
            "name": "F3",
            "ticks": 78000,
            "time": 46.428525,
            "velocity": 0.8267716535433071
          },
          {
            "duration": 0.10714274999999418,
            "durationTicks": 180,
            "midi": 53,
            "name": "F3",
            "ticks": 78240,
            "time": 46.57138200000001,
            "velocity": 0.8267716535433071
          },
          {
            "duration": 0.10714274999999418,
            "durationTicks": 180,
            "midi": 53,
            "name": "F3",
            "ticks": 78480,
            "time": 46.714239000000006,
            "velocity": 0.8267716535433071
          },
          {
            "duration": 0.10714275000000129,
            "durationTicks": 180,
            "midi": 53,
            "name": "F3",
            "ticks": 78720,
            "time": 46.857096000000006,
            "velocity": 0.8267716535433071
          },
          {
            "duration": 0.10714275000000129,
            "durationTicks": 180,
            "midi": 53,
            "name": "F3",
            "ticks": 78960,
            "time": 46.999953000000005,
            "velocity": 0.8267716535433071
          },
          {
            "duration": 0.10714275000000129,
            "durationTicks": 180,
            "midi": 53,
            "name": "F3",
            "ticks": 79200,
            "time": 47.142810000000004,
            "velocity": 0.8267716535433071
          },
          {
            "duration": 0.10714275000000129,
            "durationTicks": 180,
            "midi": 53,
            "name": "F3",
            "ticks": 79440,
            "time": 47.285667000000004,
            "velocity": 0.8267716535433071
          },
          {
            "duration": 0.10714275000000129,
            "durationTicks": 180,
            "midi": 53,
            "name": "F3",
            "ticks": 79680,
            "time": 47.428524,
            "velocity": 0.8267716535433071
          },
          {
            "duration": 0.10714275000000129,
            "durationTicks": 180,
            "midi": 53,
            "name": "F3",
            "ticks": 79920,
            "time": 47.571381,
            "velocity": 0.8267716535433071
          },
          {
            "duration": 0.10714275000000129,
            "durationTicks": 180,
            "midi": 53,
            "name": "F3",
            "ticks": 80160,
            "time": 47.714238,
            "velocity": 0.8267716535433071
          },
          {
            "duration": 0.10714275000000129,
            "durationTicks": 180,
            "midi": 53,
            "name": "F3",
            "ticks": 80400,
            "time": 47.857095,
            "velocity": 0.8267716535433071
          },
          {
            "duration": 0.22857119999999753,
            "durationTicks": 384,
            "midi": 53,
            "name": "F3",
            "ticks": 80640,
            "time": 47.99995200000001,
            "velocity": 0.8267716535433071
          },
          {
            "duration": 0.22857120000000464,
            "durationTicks": 384,
            "midi": 41,
            "name": "F2",
            "ticks": 81600,
            "time": 48.571380000000005,
            "velocity": 0.7244094488188977
          },
          {
            "duration": 0.8571420000000032,
            "durationTicks": 1440,
            "midi": 62,
            "name": "D4",
            "ticks": 84480,
            "time": 50.285664000000004,
            "velocity": 0.4566929133858268
          },
          {
            "duration": 0.2857139999999987,
            "durationTicks": 480,
            "midi": 60,
            "name": "C4",
            "ticks": 85920,
            "time": 51.14280600000001,
            "velocity": 0.4566929133858268
          },
          {
            "duration": 0.22857120000000464,
            "durationTicks": 384,
            "midi": 53,
            "name": "F3",
            "ticks": 86400,
            "time": 51.428520000000006,
            "velocity": 0.4566929133858268
          },
          {
            "duration": 0.18571409999999844,
            "durationTicks": 312,
            "midi": 55,
            "name": "G3",
            "ticks": 88800,
            "time": 52.85709000000001,
            "velocity": 0.4566929133858268
          },
          {
            "duration": 0.2857139999999987,
            "durationTicks": 480,
            "midi": 55,
            "name": "G3",
            "ticks": 89280,
            "time": 53.142804000000005,
            "velocity": 0.4566929133858268
          },
          {
            "duration": 0.22857120000000464,
            "durationTicks": 384,
            "midi": 51,
            "name": "D#3",
            "ticks": 89760,
            "time": 53.428518000000004,
            "velocity": 0.4566929133858268
          },
          {
            "duration": 0.45714240000000217,
            "durationTicks": 768,
            "midi": 53,
            "name": "F3",
            "ticks": 90240,
            "time": 53.714232,
            "velocity": 0.4566929133858268
          },
          {
            "duration": 0.8571420000000032,
            "durationTicks": 1440,
            "midi": 51,
            "name": "D#3",
            "ticks": 92160,
            "time": 54.857088000000005,
            "velocity": 0.4566929133858268
          },
          {
            "duration": 0.2857139999999987,
            "durationTicks": 480,
            "midi": 50,
            "name": "D3",
            "ticks": 93600,
            "time": 55.71423000000001,
            "velocity": 0.4566929133858268
          },
          {
            "duration": 0.2857139999999987,
            "durationTicks": 480,
            "midi": 55,
            "name": "G3",
            "ticks": 94080,
            "time": 55.999944000000006,
            "velocity": 0.4566929133858268
          },
          {
            "duration": 0.2857139999999987,
            "durationTicks": 480,
            "midi": 48,
            "name": "C3",
            "ticks": 94560,
            "time": 56.285658000000005,
            "velocity": 0.4566929133858268
          },
          {
            "duration": 0.2857139999999987,
            "durationTicks": 480,
            "midi": 53,
            "name": "F3",
            "ticks": 95040,
            "time": 56.571372000000004,
            "velocity": 0.4566929133858268
          },
          {
            "duration": 0.22857120000000464,
            "durationTicks": 384,
            "midi": 46,
            "name": "A#2",
            "ticks": 95520,
            "time": 56.857086,
            "velocity": 0.4566929133858268
          },
          {
            "duration": 0.22857119999999753,
            "durationTicks": 384,
            "midi": 51,
            "name": "D#3",
            "ticks": 96000,
            "time": 57.14280000000001,
            "velocity": 0.4566929133858268
          },
          {
            "duration": 0.22857120000000464,
            "durationTicks": 384,
            "midi": 53,
            "name": "F3",
            "ticks": 96960,
            "time": 57.714228000000006,
            "velocity": 0.4566929133858268
          },
          {
            "duration": 0.22857120000000464,
            "durationTicks": 384,
            "midi": 46,
            "name": "A#2",
            "ticks": 97920,
            "time": 58.285656,
            "velocity": 0.4566929133858268
          },
          {
            "duration": 0.8571419999999961,
            "durationTicks": 1440,
            "midi": 63,
            "name": "D#4",
            "ticks": 107520,
            "time": 63.999936000000005,
            "velocity": 0.5511811023622047
          },
          {
            "duration": 0.2857139999999987,
            "durationTicks": 480,
            "midi": 62,
            "name": "D4",
            "ticks": 108960,
            "time": 64.857078,
            "velocity": 0.5511811023622047
          },
          {
            "duration": 0.2857139999999987,
            "durationTicks": 480,
            "midi": 55,
            "name": "G3",
            "ticks": 109440,
            "time": 65.142792,
            "velocity": 0.5511811023622047
          },
          {
            "duration": 0.2857140000000129,
            "durationTicks": 480,
            "midi": 60,
            "name": "C4",
            "ticks": 109920,
            "time": 65.428506,
            "velocity": 0.5511811023622047
          },
          {
            "duration": 0.2857139999999987,
            "durationTicks": 480,
            "midi": 53,
            "name": "F3",
            "ticks": 110400,
            "time": 65.71422000000001,
            "velocity": 0.5511811023622047
          },
          {
            "duration": 0.22857120000000464,
            "durationTicks": 384,
            "midi": 58,
            "name": "A#3",
            "ticks": 110880,
            "time": 65.99993400000001,
            "velocity": 0.5511811023622047
          },
          {
            "duration": 4.342852799999989,
            "durationTicks": 7296,
            "midi": 51,
            "name": "D#3",
            "ticks": 111360,
            "time": 66.28564800000001,
            "velocity": 0.4566929133858268
          },
          {
            "duration": 0.12857130000000438,
            "durationTicks": 216,
            "midi": 51,
            "name": "D#3",
            "ticks": 119040,
            "time": 70.857072,
            "velocity": 0.4566929133858268
          },
          {
            "duration": 0.12857129999999017,
            "durationTicks": 216,
            "midi": 51,
            "name": "D#3",
            "ticks": 119280,
            "time": 70.99992900000001,
            "velocity": 0.5748031496062992
          },
          {
            "duration": 0.12857130000000438,
            "durationTicks": 216,
            "midi": 51,
            "name": "D#3",
            "ticks": 119520,
            "time": 71.142786,
            "velocity": 0.5984251968503937
          },
          {
            "duration": 0.12857129999999017,
            "durationTicks": 216,
            "midi": 51,
            "name": "D#3",
            "ticks": 119760,
            "time": 71.28564300000001,
            "velocity": 0.6220472440944882
          },
          {
            "duration": 0.12857130000000438,
            "durationTicks": 216,
            "midi": 51,
            "name": "D#3",
            "ticks": 120000,
            "time": 71.4285,
            "velocity": 0.6535433070866141
          },
          {
            "duration": 0.12857129999999017,
            "durationTicks": 216,
            "midi": 51,
            "name": "D#3",
            "ticks": 120240,
            "time": 71.571357,
            "velocity": 0.6771653543307087
          },
          {
            "duration": 0.12857129999999017,
            "durationTicks": 216,
            "midi": 51,
            "name": "D#3",
            "ticks": 120480,
            "time": 71.71421400000001,
            "velocity": 0.7007874015748031
          },
          {
            "duration": 0.12857130000000438,
            "durationTicks": 216,
            "midi": 51,
            "name": "D#3",
            "ticks": 120720,
            "time": 71.857071,
            "velocity": 0.7244094488188977
          },
          {
            "duration": 0.12857129999999017,
            "durationTicks": 216,
            "midi": 52,
            "name": "E3",
            "ticks": 120960,
            "time": 71.99992800000001,
            "velocity": 0.7559055118110236
          },
          {
            "duration": 0.12857130000000438,
            "durationTicks": 216,
            "midi": 52,
            "name": "E3",
            "ticks": 121200,
            "time": 72.142785,
            "velocity": 0.7795275590551181
          },
          {
            "duration": 0.12857129999999017,
            "durationTicks": 216,
            "midi": 52,
            "name": "E3",
            "ticks": 121440,
            "time": 72.28564200000001,
            "velocity": 0.8031496062992126
          },
          {
            "duration": 0.12857130000000438,
            "durationTicks": 216,
            "midi": 52,
            "name": "E3",
            "ticks": 121680,
            "time": 72.428499,
            "velocity": 0.8346456692913385
          },
          {
            "duration": 0.12857129999999017,
            "durationTicks": 216,
            "midi": 52,
            "name": "E3",
            "ticks": 121920,
            "time": 72.57135600000001,
            "velocity": 0.8582677165354331
          },
          {
            "duration": 0.12857130000000438,
            "durationTicks": 216,
            "midi": 52,
            "name": "E3",
            "ticks": 122160,
            "time": 72.714213,
            "velocity": 0.8582677165354331
          },
          {
            "duration": 0.12857129999999017,
            "durationTicks": 216,
            "midi": 52,
            "name": "E3",
            "ticks": 122400,
            "time": 72.85707000000001,
            "velocity": 0.8582677165354331
          },
          {
            "duration": 0.12857130000000438,
            "durationTicks": 216,
            "midi": 52,
            "name": "E3",
            "ticks": 122640,
            "time": 72.999927,
            "velocity": 0.8582677165354331
          },
          {
            "duration": 0.11428559999998811,
            "durationTicks": 192,
            "midi": 53,
            "name": "F3",
            "ticks": 122880,
            "time": 73.142784,
            "velocity": 0.8267716535433071
          },
          {
            "duration": 0.11428559999998811,
            "durationTicks": 192,
            "midi": 53,
            "name": "F3",
            "ticks": 123120,
            "time": 73.28564100000001,
            "velocity": 0.8267716535433071
          },
          {
            "duration": 0.11428559999998811,
            "durationTicks": 192,
            "midi": 53,
            "name": "F3",
            "ticks": 123360,
            "time": 73.428498,
            "velocity": 0.8267716535433071
          },
          {
            "duration": 0.11428559999998811,
            "durationTicks": 192,
            "midi": 53,
            "name": "F3",
            "ticks": 123600,
            "time": 73.57135500000001,
            "velocity": 0.8267716535433071
          },
          {
            "duration": 0.11428560000000232,
            "durationTicks": 192,
            "midi": 53,
            "name": "F3",
            "ticks": 123840,
            "time": 73.714212,
            "velocity": 0.8267716535433071
          },
          {
            "duration": 0.11428559999998811,
            "durationTicks": 192,
            "midi": 53,
            "name": "F3",
            "ticks": 124080,
            "time": 73.85706900000001,
            "velocity": 0.8267716535433071
          },
          {
            "duration": 0.11428560000000232,
            "durationTicks": 192,
            "midi": 53,
            "name": "F3",
            "ticks": 124320,
            "time": 73.999926,
            "velocity": 0.8267716535433071
          },
          {
            "duration": 0.11428559999998811,
            "durationTicks": 192,
            "midi": 53,
            "name": "F3",
            "ticks": 124560,
            "time": 74.14278300000001,
            "velocity": 0.8267716535433071
          },
          {
            "duration": 0.11428560000000232,
            "durationTicks": 192,
            "midi": 41,
            "name": "F2",
            "ticks": 124800,
            "time": 74.28564,
            "velocity": 0.8267716535433071
          },
          {
            "duration": 0.11428559999998811,
            "durationTicks": 192,
            "midi": 41,
            "name": "F2",
            "ticks": 125040,
            "time": 74.42849700000001,
            "velocity": 0.8267716535433071
          },
          {
            "duration": 0.11428560000000232,
            "durationTicks": 192,
            "midi": 41,
            "name": "F2",
            "ticks": 125280,
            "time": 74.571354,
            "velocity": 0.8267716535433071
          },
          {
            "duration": 0.11428559999998811,
            "durationTicks": 192,
            "midi": 41,
            "name": "F2",
            "ticks": 125520,
            "time": 74.714211,
            "velocity": 0.8267716535433071
          },
          {
            "duration": 0.11428559999998811,
            "durationTicks": 192,
            "midi": 41,
            "name": "F2",
            "ticks": 125760,
            "time": 74.85706800000001,
            "velocity": 0.8267716535433071
          },
          {
            "duration": 0.11428559999998811,
            "durationTicks": 192,
            "midi": 41,
            "name": "F2",
            "ticks": 126000,
            "time": 74.999925,
            "velocity": 0.8267716535433071
          },
          {
            "duration": 0.11428559999998811,
            "durationTicks": 192,
            "midi": 41,
            "name": "F2",
            "ticks": 126240,
            "time": 75.14278200000001,
            "velocity": 0.8267716535433071
          },
          {
            "duration": 0.11428560000000232,
            "durationTicks": 192,
            "midi": 41,
            "name": "F2",
            "ticks": 126480,
            "time": 75.285639,
            "velocity": 0.8267716535433071
          },
          {
            "duration": 0.22857120000000464,
            "durationTicks": 384,
            "midi": 46,
            "name": "A#2",
            "ticks": 126720,
            "time": 75.42849600000001,
            "velocity": 0.7244094488188977
          },
          {
            "duration": 0.4571424000000093,
            "durationTicks": 768,
            "midi": 50,
            "name": "D3",
            "ticks": 127200,
            "time": 75.71421000000001,
            "velocity": 0.984251968503937
          },
          {
            "duration": 0.17142840000001058,
            "durationTicks": 288,
            "midi": 51,
            "name": "D#3",
            "ticks": 128160,
            "time": 76.285638,
            "velocity": 0.8267716535433071
          },
          {
            "duration": 0.17142840000001058,
            "durationTicks": 288,
            "midi": 52,
            "name": "E3",
            "ticks": 128640,
            "time": 76.571352,
            "velocity": 0.8267716535433071
          },
          {
            "duration": 0.17142840000001058,
            "durationTicks": 288,
            "midi": 53,
            "name": "F3",
            "ticks": 129120,
            "time": 76.857066,
            "velocity": 0.8267716535433071
          },
          {
            "duration": 0.17142840000001058,
            "durationTicks": 288,
            "midi": 54,
            "name": "F#3",
            "ticks": 129600,
            "time": 77.14278,
            "velocity": 0.8267716535433071
          },
          {
            "duration": 0.17142840000001058,
            "durationTicks": 288,
            "midi": 55,
            "name": "G3",
            "ticks": 130080,
            "time": 77.428494,
            "velocity": 0.8267716535433071
          },
          {
            "duration": 0.22857119999999043,
            "durationTicks": 384,
            "midi": 56,
            "name": "G#3",
            "ticks": 130560,
            "time": 77.71420800000001,
            "velocity": 0.8267716535433071
          },
          {
            "duration": 0.057142800000008265,
            "durationTicks": 96,
            "midi": 56,
            "name": "G#3",
            "ticks": 131400,
            "time": 78.2142075,
            "velocity": 0.8267716535433071
          },
          {
            "duration": 0.22857120000000464,
            "durationTicks": 384,
            "midi": 55,
            "name": "G3",
            "ticks": 131520,
            "time": 78.28563600000001,
            "velocity": 0.8267716535433071
          },
          {
            "duration": 0.057142799999994054,
            "durationTicks": 96,
            "midi": 55,
            "name": "G3",
            "ticks": 132360,
            "time": 78.78563550000001,
            "velocity": 0.8267716535433071
          },
          {
            "duration": 0.22857120000000464,
            "durationTicks": 384,
            "midi": 63,
            "name": "D#4",
            "ticks": 132480,
            "time": 78.85706400000001,
            "velocity": 0.8267716535433071
          },
          {
            "duration": 0.057142799999994054,
            "durationTicks": 96,
            "midi": 63,
            "name": "D#4",
            "ticks": 133320,
            "time": 79.35706350000001,
            "velocity": 0.8267716535433071
          },
          {
            "duration": 0.22857120000000464,
            "durationTicks": 384,
            "midi": 62,
            "name": "D4",
            "ticks": 133440,
            "time": 79.428492,
            "velocity": 0.8267716535433071
          },
          {
            "duration": 0.057142799999994054,
            "durationTicks": 96,
            "midi": 62,
            "name": "D4",
            "ticks": 134280,
            "time": 79.9284915,
            "velocity": 0.8267716535433071
          },
          {
            "duration": 0.22857120000000464,
            "durationTicks": 384,
            "midi": 51,
            "name": "D#3",
            "ticks": 134400,
            "time": 79.99992,
            "velocity": 0.8267716535433071
          },
          {
            "duration": 0.22857120000000464,
            "durationTicks": 384,
            "midi": 53,
            "name": "F3",
            "ticks": 136320,
            "time": 81.14277600000001,
            "velocity": 0.5511811023622047
          },
          {
            "duration": 1.1428559999999948,
            "durationTicks": 1920,
            "midi": 51,
            "name": "D#3",
            "ticks": 141120,
            "time": 83.99991600000001,
            "velocity": 0.4566929133858268
          },
          {
            "duration": 0.22857120000000464,
            "durationTicks": 384,
            "midi": 50,
            "name": "D3",
            "ticks": 143040,
            "time": 85.14277200000001,
            "velocity": 0.4566929133858268
          },
          {
            "duration": 1.142856000000009,
            "durationTicks": 1920,
            "midi": 51,
            "name": "D#3",
            "ticks": 144960,
            "time": 86.285628,
            "velocity": 0.4566929133858268
          },
          {
            "duration": 0.22857120000000464,
            "durationTicks": 384,
            "midi": 50,
            "name": "D3",
            "ticks": 146880,
            "time": 87.42848400000001,
            "velocity": 0.4566929133858268
          },
          {
            "duration": 0.11428559999998811,
            "durationTicks": 192,
            "midi": 50,
            "name": "D3",
            "ticks": 147840,
            "time": 87.99991200000001,
            "velocity": 0.8267716535433071
          },
          {
            "duration": 0.11428560000000232,
            "durationTicks": 192,
            "midi": 50,
            "name": "D3",
            "ticks": 148080,
            "time": 88.142769,
            "velocity": 0.8267716535433071
          },
          {
            "duration": 0.11428559999998811,
            "durationTicks": 192,
            "midi": 50,
            "name": "D3",
            "ticks": 148320,
            "time": 88.28562600000001,
            "velocity": 0.8267716535433071
          },
          {
            "duration": 0.11428559999998811,
            "durationTicks": 192,
            "midi": 50,
            "name": "D3",
            "ticks": 148560,
            "time": 88.42848300000001,
            "velocity": 0.8267716535433071
          },
          {
            "duration": 0.11428559999998811,
            "durationTicks": 192,
            "midi": 50,
            "name": "D3",
            "ticks": 148800,
            "time": 88.57134,
            "velocity": 0.8267716535433071
          },
          {
            "duration": 0.11428559999998811,
            "durationTicks": 192,
            "midi": 50,
            "name": "D3",
            "ticks": 149040,
            "time": 88.71419700000001,
            "velocity": 0.8267716535433071
          },
          {
            "duration": 0.11428560000000232,
            "durationTicks": 192,
            "midi": 50,
            "name": "D3",
            "ticks": 149280,
            "time": 88.857054,
            "velocity": 0.8267716535433071
          },
          {
            "duration": 0.11428559999998811,
            "durationTicks": 192,
            "midi": 50,
            "name": "D3",
            "ticks": 149520,
            "time": 88.99991100000001,
            "velocity": 0.8267716535433071
          },
          {
            "duration": 0.11428560000000232,
            "durationTicks": 192,
            "midi": 55,
            "name": "G3",
            "ticks": 149760,
            "time": 89.142768,
            "velocity": 0.8267716535433071
          },
          {
            "duration": 0.11428559999998811,
            "durationTicks": 192,
            "midi": 55,
            "name": "G3",
            "ticks": 150000,
            "time": 89.28562500000001,
            "velocity": 0.8267716535433071
          },
          {
            "duration": 0.11428560000000232,
            "durationTicks": 192,
            "midi": 55,
            "name": "G3",
            "ticks": 150240,
            "time": 89.428482,
            "velocity": 0.8267716535433071
          },
          {
            "duration": 0.11428559999998811,
            "durationTicks": 192,
            "midi": 55,
            "name": "G3",
            "ticks": 150480,
            "time": 89.57133900000001,
            "velocity": 0.8267716535433071
          },
          {
            "duration": 0.11428560000000232,
            "durationTicks": 192,
            "midi": 51,
            "name": "D#3",
            "ticks": 150720,
            "time": 89.714196,
            "velocity": 0.8267716535433071
          },
          {
            "duration": 0.11428559999998811,
            "durationTicks": 192,
            "midi": 51,
            "name": "D#3",
            "ticks": 150960,
            "time": 89.85705300000001,
            "velocity": 0.8267716535433071
          },
          {
            "duration": 0.11428559999998811,
            "durationTicks": 192,
            "midi": 51,
            "name": "D#3",
            "ticks": 151200,
            "time": 89.99991000000001,
            "velocity": 0.8267716535433071
          },
          {
            "duration": 0.11428559999998811,
            "durationTicks": 192,
            "midi": 51,
            "name": "D#3",
            "ticks": 151440,
            "time": 90.142767,
            "velocity": 0.8267716535433071
          },
          {
            "duration": 0.11428559999998811,
            "durationTicks": 192,
            "midi": 53,
            "name": "F3",
            "ticks": 151680,
            "time": 90.28562400000001,
            "velocity": 0.8267716535433071
          },
          {
            "duration": 0.11428560000000232,
            "durationTicks": 192,
            "midi": 53,
            "name": "F3",
            "ticks": 151920,
            "time": 90.428481,
            "velocity": 0.8267716535433071
          },
          {
            "duration": 0.11428559999998811,
            "durationTicks": 192,
            "midi": 53,
            "name": "F3",
            "ticks": 152160,
            "time": 90.57133800000001,
            "velocity": 0.8267716535433071
          },
          {
            "duration": 0.11428560000000232,
            "durationTicks": 192,
            "midi": 53,
            "name": "F3",
            "ticks": 152400,
            "time": 90.714195,
            "velocity": 0.8267716535433071
          },
          {
            "duration": 0.11428559999998811,
            "durationTicks": 192,
            "midi": 41,
            "name": "F2",
            "ticks": 152640,
            "time": 90.85705200000001,
            "velocity": 0.8267716535433071
          },
          {
            "duration": 0.11428560000000232,
            "durationTicks": 192,
            "midi": 41,
            "name": "F2",
            "ticks": 152880,
            "time": 90.999909,
            "velocity": 0.8267716535433071
          },
          {
            "duration": 0.11428559999998811,
            "durationTicks": 192,
            "midi": 41,
            "name": "F2",
            "ticks": 153120,
            "time": 91.14276600000001,
            "velocity": 0.8267716535433071
          },
          {
            "duration": 0.11428560000000232,
            "durationTicks": 192,
            "midi": 41,
            "name": "F2",
            "ticks": 153360,
            "time": 91.285623,
            "velocity": 0.8267716535433071
          },
          {
            "duration": 0.22857120000000464,
            "durationTicks": 384,
            "midi": 46,
            "name": "A#2",
            "ticks": 153600,
            "time": 91.42848000000001,
            "velocity": 0.7244094488188977
          },
          {
            "duration": 1.142856000000009,
            "durationTicks": 1920,
            "midi": 58,
            "name": "A#3",
            "ticks": 154560,
            "time": 91.999908,
            "velocity": 0.4566929133858268
          },
          {
            "duration": 0.22857119999999043,
            "durationTicks": 384,
            "midi": 57,
            "name": "A3",
            "ticks": 156480,
            "time": 93.14276400000001,
            "velocity": 0.4566929133858268
          },
          {
            "duration": 1.1428559999999948,
            "durationTicks": 1920,
            "midi": 46,
            "name": "A#2",
            "ticks": 158400,
            "time": 94.28562000000001,
            "velocity": 0.4566929133858268
          },
          {
            "duration": 0.22857120000000464,
            "durationTicks": 384,
            "midi": 45,
            "name": "A2",
            "ticks": 160320,
            "time": 95.428476,
            "velocity": 0.4566929133858268
          },
          {
            "duration": 0.11428559999998811,
            "durationTicks": 192,
            "midi": 50,
            "name": "D3",
            "ticks": 163200,
            "time": 97.14276000000001,
            "velocity": 0.8267716535433071
          },
          {
            "duration": 0.11428560000000232,
            "durationTicks": 192,
            "midi": 50,
            "name": "D3",
            "ticks": 163440,
            "time": 97.285617,
            "velocity": 0.8267716535433071
          },
          {
            "duration": 0.11428559999998811,
            "durationTicks": 192,
            "midi": 50,
            "name": "D3",
            "ticks": 163680,
            "time": 97.42847400000001,
            "velocity": 0.8267716535433071
          },
          {
            "duration": 0.11428559999998811,
            "durationTicks": 192,
            "midi": 50,
            "name": "D3",
            "ticks": 163920,
            "time": 97.57133100000001,
            "velocity": 0.8267716535433071
          },
          {
            "duration": 0.11428559999998811,
            "durationTicks": 192,
            "midi": 50,
            "name": "D3",
            "ticks": 164160,
            "time": 97.71418800000001,
            "velocity": 0.8267716535433071
          },
          {
            "duration": 0.11428559999998811,
            "durationTicks": 192,
            "midi": 50,
            "name": "D3",
            "ticks": 164400,
            "time": 97.85704500000001,
            "velocity": 0.8267716535433071
          },
          {
            "duration": 0.11428560000000232,
            "durationTicks": 192,
            "midi": 50,
            "name": "D3",
            "ticks": 164640,
            "time": 97.999902,
            "velocity": 0.8267716535433071
          },
          {
            "duration": 0.11428559999998811,
            "durationTicks": 192,
            "midi": 50,
            "name": "D3",
            "ticks": 164880,
            "time": 98.14275900000001,
            "velocity": 0.8267716535433071
          },
          {
            "duration": 0.11428560000000232,
            "durationTicks": 192,
            "midi": 55,
            "name": "G3",
            "ticks": 165120,
            "time": 98.285616,
            "velocity": 0.8267716535433071
          },
          {
            "duration": 0.11428559999998811,
            "durationTicks": 192,
            "midi": 55,
            "name": "G3",
            "ticks": 165360,
            "time": 98.42847300000001,
            "velocity": 0.8267716535433071
          },
          {
            "duration": 0.11428560000000232,
            "durationTicks": 192,
            "midi": 55,
            "name": "G3",
            "ticks": 165600,
            "time": 98.57133,
            "velocity": 0.8267716535433071
          },
          {
            "duration": 0.11428559999998811,
            "durationTicks": 192,
            "midi": 55,
            "name": "G3",
            "ticks": 165840,
            "time": 98.71418700000001,
            "velocity": 0.8267716535433071
          },
          {
            "duration": 0.11428560000000232,
            "durationTicks": 192,
            "midi": 51,
            "name": "D#3",
            "ticks": 166080,
            "time": 98.857044,
            "velocity": 0.8267716535433071
          },
          {
            "duration": 0.11428559999998811,
            "durationTicks": 192,
            "midi": 51,
            "name": "D#3",
            "ticks": 166320,
            "time": 98.99990100000001,
            "velocity": 0.8267716535433071
          },
          {
            "duration": 0.11428559999998811,
            "durationTicks": 192,
            "midi": 51,
            "name": "D#3",
            "ticks": 166560,
            "time": 99.14275800000001,
            "velocity": 0.8267716535433071
          },
          {
            "duration": 0.11428559999998811,
            "durationTicks": 192,
            "midi": 51,
            "name": "D#3",
            "ticks": 166800,
            "time": 99.285615,
            "velocity": 0.8267716535433071
          },
          {
            "duration": 0.11428559999998811,
            "durationTicks": 192,
            "midi": 53,
            "name": "F3",
            "ticks": 167040,
            "time": 99.42847200000001,
            "velocity": 0.8267716535433071
          },
          {
            "duration": 0.11428560000000232,
            "durationTicks": 192,
            "midi": 53,
            "name": "F3",
            "ticks": 167280,
            "time": 99.571329,
            "velocity": 0.8267716535433071
          },
          {
            "duration": 0.11428559999998811,
            "durationTicks": 192,
            "midi": 53,
            "name": "F3",
            "ticks": 167520,
            "time": 99.71418600000001,
            "velocity": 0.8267716535433071
          },
          {
            "duration": 0.11428560000000232,
            "durationTicks": 192,
            "midi": 53,
            "name": "F3",
            "ticks": 167760,
            "time": 99.857043,
            "velocity": 0.8267716535433071
          },
          {
            "duration": 0.11428559999998811,
            "durationTicks": 192,
            "midi": 41,
            "name": "F2",
            "ticks": 168000,
            "time": 99.99990000000001,
            "velocity": 0.8267716535433071
          },
          {
            "duration": 0.11428560000000232,
            "durationTicks": 192,
            "midi": 41,
            "name": "F2",
            "ticks": 168240,
            "time": 100.142757,
            "velocity": 0.8267716535433071
          },
          {
            "duration": 0.11428559999998811,
            "durationTicks": 192,
            "midi": 41,
            "name": "F2",
            "ticks": 168480,
            "time": 100.28561400000001,
            "velocity": 0.8267716535433071
          },
          {
            "duration": 0.11428560000000232,
            "durationTicks": 192,
            "midi": 41,
            "name": "F2",
            "ticks": 168720,
            "time": 100.428471,
            "velocity": 0.8267716535433071
          },
          {
            "duration": 0.4571424000000093,
            "durationTicks": 768,
            "midi": 46,
            "name": "A#2",
            "ticks": 168960,
            "time": 100.57132800000001,
            "velocity": 0.8267716535433071
          },
          {
            "duration": 0.11428559999998811,
            "durationTicks": 192,
            "midi": 65,
            "name": "F4",
            "ticks": 170640,
            "time": 101.57132700000001,
            "velocity": 0.8267716535433071
          },
          {
            "duration": 0.11428560000000232,
            "durationTicks": 192,
            "midi": 63,
            "name": "D#4",
            "ticks": 170880,
            "time": 101.714184,
            "velocity": 0.8267716535433071
          },
          {
            "duration": 0.11428559999998811,
            "durationTicks": 192,
            "midi": 62,
            "name": "D4",
            "ticks": 171120,
            "time": 101.85704100000001,
            "velocity": 0.8267716535433071
          },
          {
            "duration": 0.11428560000000232,
            "durationTicks": 192,
            "midi": 60,
            "name": "C4",
            "ticks": 171360,
            "time": 101.999898,
            "velocity": 0.8267716535433071
          },
          {
            "duration": 0.11428559999998811,
            "durationTicks": 192,
            "midi": 58,
            "name": "A#3",
            "ticks": 171600,
            "time": 102.14275500000001,
            "velocity": 0.8267716535433071
          },
          {
            "duration": 0.11428559999998811,
            "durationTicks": 192,
            "midi": 57,
            "name": "A3",
            "ticks": 171840,
            "time": 102.28561200000001,
            "velocity": 0.8267716535433071
          },
          {
            "duration": 0.11428559999998811,
            "durationTicks": 192,
            "midi": 55,
            "name": "G3",
            "ticks": 172080,
            "time": 102.428469,
            "velocity": 0.8267716535433071
          },
          {
            "duration": 0.11428559999998811,
            "durationTicks": 192,
            "midi": 53,
            "name": "F3",
            "ticks": 172320,
            "time": 102.57132600000001,
            "velocity": 0.8267716535433071
          },
          {
            "duration": 0.11428560000000232,
            "durationTicks": 192,
            "midi": 51,
            "name": "D#3",
            "ticks": 172560,
            "time": 102.714183,
            "velocity": 0.8267716535433071
          },
          {
            "duration": 0.1999997999999863,
            "durationTicks": 336,
            "midi": 50,
            "name": "D3",
            "ticks": 172800,
            "time": 102.85704000000001,
            "velocity": 0.8267716535433071
          },
          {
            "duration": 0.1999998000000005,
            "durationTicks": 336,
            "midi": 50,
            "name": "D3",
            "ticks": 173280,
            "time": 103.14275400000001,
            "velocity": 0.8267716535433071
          },
          {
            "duration": 0.1999998000000005,
            "durationTicks": 336,
            "midi": 51,
            "name": "D#3",
            "ticks": 173760,
            "time": 103.42846800000001,
            "velocity": 0.8267716535433071
          },
          {
            "duration": 0.1999998000000005,
            "durationTicks": 336,
            "midi": 53,
            "name": "F3",
            "ticks": 174240,
            "time": 103.71418200000001,
            "velocity": 0.8267716535433071
          },
          {
            "duration": 0.11428560000000232,
            "durationTicks": 192,
            "midi": 58,
            "name": "A#3",
            "ticks": 174720,
            "time": 103.999896,
            "velocity": 0.8267716535433071
          },
          {
            "duration": 0.11428559999998811,
            "durationTicks": 192,
            "midi": 53,
            "name": "F3",
            "ticks": 174960,
            "time": 104.14275300000001,
            "velocity": 0.8267716535433071
          },
          {
            "duration": 0.11428560000000232,
            "durationTicks": 192,
            "midi": 62,
            "name": "D4",
            "ticks": 175200,
            "time": 104.28561,
            "velocity": 0.8267716535433071
          },
          {
            "duration": 0.11428559999998811,
            "durationTicks": 192,
            "midi": 60,
            "name": "C4",
            "ticks": 175440,
            "time": 104.42846700000001,
            "velocity": 0.8267716535433071
          },
          {
            "duration": 0.11428560000000232,
            "durationTicks": 192,
            "midi": 58,
            "name": "A#3",
            "ticks": 175680,
            "time": 104.571324,
            "velocity": 0.8267716535433071
          },
          {
            "duration": 0.11428559999998811,
            "durationTicks": 192,
            "midi": 57,
            "name": "A3",
            "ticks": 175920,
            "time": 104.71418100000001,
            "velocity": 0.8267716535433071
          },
          {
            "duration": 0.11428560000000232,
            "durationTicks": 192,
            "midi": 55,
            "name": "G3",
            "ticks": 176160,
            "time": 104.857038,
            "velocity": 0.8267716535433071
          },
          {
            "duration": 0.11428559999998811,
            "durationTicks": 192,
            "midi": 53,
            "name": "F3",
            "ticks": 176400,
            "time": 104.99989500000001,
            "velocity": 0.8267716535433071
          },
          {
            "duration": 0.11428560000000232,
            "durationTicks": 192,
            "midi": 51,
            "name": "D#3",
            "ticks": 176640,
            "time": 105.142752,
            "velocity": 0.8267716535433071
          },
          {
            "duration": 0.11428559999998811,
            "durationTicks": 192,
            "midi": 50,
            "name": "D3",
            "ticks": 176880,
            "time": 105.28560900000001,
            "velocity": 0.8267716535433071
          },
          {
            "duration": 0.11428559999998811,
            "durationTicks": 192,
            "midi": 48,
            "name": "C3",
            "ticks": 177120,
            "time": 105.42846600000001,
            "velocity": 0.8267716535433071
          },
          {
            "duration": 0.11428560000000232,
            "durationTicks": 192,
            "midi": 46,
            "name": "A#2",
            "ticks": 177360,
            "time": 105.571323,
            "velocity": 0.8267716535433071
          },
          {
            "duration": 0.11428559999998811,
            "durationTicks": 192,
            "midi": 45,
            "name": "A2",
            "ticks": 177600,
            "time": 105.71418000000001,
            "velocity": 0.8267716535433071
          },
          {
            "duration": 0.11428560000000232,
            "durationTicks": 192,
            "midi": 48,
            "name": "C3",
            "ticks": 177840,
            "time": 105.857037,
            "velocity": 0.8267716535433071
          },
          {
            "duration": 0.11428559999998811,
            "durationTicks": 192,
            "midi": 53,
            "name": "F3",
            "ticks": 178080,
            "time": 105.99989400000001,
            "velocity": 0.8267716535433071
          },
          {
            "duration": 0.11428560000000232,
            "durationTicks": 192,
            "midi": 51,
            "name": "D#3",
            "ticks": 178320,
            "time": 106.142751,
            "velocity": 0.8267716535433071
          },
          {
            "duration": 0.1999998000000005,
            "durationTicks": 336,
            "midi": 50,
            "name": "D3",
            "ticks": 178560,
            "time": 106.28560800000001,
            "velocity": 0.8267716535433071
          },
          {
            "duration": 0.1999998000000005,
            "durationTicks": 336,
            "midi": 50,
            "name": "D3",
            "ticks": 179040,
            "time": 106.57132200000001,
            "velocity": 0.8267716535433071
          },
          {
            "duration": 0.1999998000000005,
            "durationTicks": 336,
            "midi": 51,
            "name": "D#3",
            "ticks": 179520,
            "time": 106.85703600000001,
            "velocity": 0.8267716535433071
          },
          {
            "duration": 0.1999998000000005,
            "durationTicks": 336,
            "midi": 53,
            "name": "F3",
            "ticks": 180000,
            "time": 107.14275,
            "velocity": 0.8267716535433071
          },
          {
            "duration": 0.1999998000000005,
            "durationTicks": 336,
            "midi": 55,
            "name": "G3",
            "ticks": 180480,
            "time": 107.428464,
            "velocity": 0.8267716535433071
          },
          {
            "duration": 0.1999998000000005,
            "durationTicks": 336,
            "midi": 51,
            "name": "D#3",
            "ticks": 180960,
            "time": 107.714178,
            "velocity": 0.8267716535433071
          },
          {
            "duration": 0.1999998000000005,
            "durationTicks": 336,
            "midi": 53,
            "name": "F3",
            "ticks": 181440,
            "time": 107.999892,
            "velocity": 0.8267716535433071
          },
          {
            "duration": 0.1999997999999863,
            "durationTicks": 336,
            "midi": 41,
            "name": "F2",
            "ticks": 181920,
            "time": 108.28560600000002,
            "velocity": 0.8267716535433071
          },
          {
            "duration": 0.22857120000000464,
            "durationTicks": 384,
            "midi": 46,
            "name": "A#2",
            "ticks": 182400,
            "time": 108.57132000000001,
            "velocity": 0.8267716535433071
          },
          {
            "duration": 0.22857120000000464,
            "durationTicks": 384,
            "midi": 53,
            "name": "F3",
            "ticks": 183360,
            "time": 109.14274800000001,
            "velocity": 0.8267716535433071
          },
          {
            "duration": 0.22857120000000464,
            "durationTicks": 384,
            "midi": 58,
            "name": "A#3",
            "ticks": 184320,
            "time": 109.71417600000001,
            "velocity": 0.8267716535433071
          },
          {
            "duration": 0.22857120000000464,
            "durationTicks": 384,
            "midi": 53,
            "name": "F3",
            "ticks": 185280,
            "time": 110.285604,
            "velocity": 0.8267716535433071
          },
          {
            "duration": 0.22857120000000464,
            "durationTicks": 384,
            "midi": 58,
            "name": "A#3",
            "ticks": 186240,
            "time": 110.857032,
            "velocity": 0.8267716535433071
          },
          {
            "duration": 0.22857119999999043,
            "durationTicks": 384,
            "midi": 53,
            "name": "F3",
            "ticks": 187200,
            "time": 111.42846000000002,
            "velocity": 0.8267716535433071
          },
          {
            "duration": 0.21428550000000257,
            "durationTicks": 360,
            "midi": 58,
            "name": "A#3",
            "ticks": 188160,
            "time": 111.99988800000001,
            "velocity": 0.8267716535433071
          },
          {
            "duration": 0.21428550000000257,
            "durationTicks": 360,
            "midi": 53,
            "name": "F3",
            "ticks": 188640,
            "time": 112.28560200000001,
            "velocity": 0.8267716535433071
          },
          {
            "duration": 0.21428550000000257,
            "durationTicks": 360,
            "midi": 58,
            "name": "A#3",
            "ticks": 189120,
            "time": 112.57131600000001,
            "velocity": 0.8267716535433071
          },
          {
            "duration": 0.21428550000000257,
            "durationTicks": 360,
            "midi": 53,
            "name": "F3",
            "ticks": 189600,
            "time": 112.85703000000001,
            "velocity": 0.8267716535433071
          },
          {
            "duration": 0.22857120000000464,
            "durationTicks": 384,
            "midi": 58,
            "name": "A#3",
            "ticks": 190080,
            "time": 113.14274400000001,
            "velocity": 0.8267716535433071
          },
          {
            "duration": 0.22857119999999043,
            "durationTicks": 384,
            "midi": 57,
            "name": "A3",
            "ticks": 192000,
            "time": 114.28560000000002,
            "velocity": 0.8267716535433071
          },
          {
            "duration": 0.22857120000000464,
            "durationTicks": 384,
            "midi": 43,
            "name": "G2",
            "ticks": 193920,
            "time": 115.42845600000001,
            "velocity": 0.5511811023622047
          },
          {
            "duration": 0.22857120000000464,
            "durationTicks": 384,
            "midi": 55,
            "name": "G3",
            "ticks": 195840,
            "time": 116.571312,
            "velocity": 0.5511811023622047
          },
          {
            "duration": 0.22857120000000464,
            "durationTicks": 384,
            "midi": 43,
            "name": "G2",
            "ticks": 197760,
            "time": 117.71416800000002,
            "velocity": 0.5511811023622047
          },
          {
            "duration": 0.22857120000000464,
            "durationTicks": 384,
            "midi": 55,
            "name": "G3",
            "ticks": 199680,
            "time": 118.85702400000001,
            "velocity": 0.5511811023622047
          },
          {
            "duration": 0.22857120000000464,
            "durationTicks": 384,
            "midi": 43,
            "name": "G2",
            "ticks": 201600,
            "time": 119.99988,
            "velocity": 0.5511811023622047
          },
          {
            "duration": 0.22857120000000464,
            "durationTicks": 384,
            "midi": 55,
            "name": "G3",
            "ticks": 203520,
            "time": 121.14273600000001,
            "velocity": 0.5511811023622047
          },
          {
            "duration": 0.22857120000000464,
            "durationTicks": 384,
            "midi": 42,
            "name": "F#2",
            "ticks": 205440,
            "time": 122.28559200000001,
            "velocity": 0.5511811023622047
          },
          {
            "duration": 0.22857120000000464,
            "durationTicks": 384,
            "midi": 50,
            "name": "D3",
            "ticks": 207360,
            "time": 123.428448,
            "velocity": 0.5511811023622047
          },
          {
            "duration": 0.22857120000000464,
            "durationTicks": 384,
            "midi": 43,
            "name": "G2",
            "ticks": 209280,
            "time": 124.57130400000001,
            "velocity": 0.5511811023622047
          },
          {
            "duration": 1.142856000000009,
            "durationTicks": 1920,
            "midi": 48,
            "name": "C3",
            "ticks": 211200,
            "time": 125.71416,
            "velocity": 0.5511811023622047
          },
          {
            "duration": 1.1428559999999948,
            "durationTicks": 1920,
            "midi": 46,
            "name": "A#2",
            "ticks": 213120,
            "time": 126.85701600000002,
            "velocity": 0.5511811023622047
          },
          {
            "duration": 1.1428559999999948,
            "durationTicks": 1920,
            "midi": 48,
            "name": "C3",
            "ticks": 215040,
            "time": 127.99987200000001,
            "velocity": 0.5511811023622047
          },
          {
            "duration": 1.085713200000015,
            "durationTicks": 1824,
            "midi": 46,
            "name": "A#2",
            "ticks": 216960,
            "time": 129.142728,
            "velocity": 0.5511811023622047
          },
          {
            "duration": 1.1428560000000232,
            "durationTicks": 1920,
            "midi": 52,
            "name": "E3",
            "ticks": 218880,
            "time": 130.285584,
            "velocity": 0.5511811023622047
          },
          {
            "duration": 1.0857131999999865,
            "durationTicks": 1824,
            "midi": 51,
            "name": "D#3",
            "ticks": 220800,
            "time": 131.42844000000002,
            "velocity": 0.5511811023622047
          },
          {
            "duration": 0.4571424000000093,
            "durationTicks": 768,
            "midi": 50,
            "name": "D3",
            "ticks": 222720,
            "time": 132.57129600000002,
            "velocity": 0.5511811023622047
          },
          {
            "duration": 0.10714275000000839,
            "durationTicks": 180,
            "midi": 50,
            "name": "D3",
            "ticks": 224160,
            "time": 133.428438,
            "velocity": 0.8267716535433071
          },
          {
            "duration": 0.10714274999997997,
            "durationTicks": 180,
            "midi": 50,
            "name": "D3",
            "ticks": 224400,
            "time": 133.57129500000002,
            "velocity": 0.8267716535433071
          },
          {
            "duration": 0.4571424000000093,
            "durationTicks": 768,
            "midi": 50,
            "name": "D3",
            "ticks": 224640,
            "time": 133.714152,
            "velocity": 0.8267716535433071
          },
          {
            "duration": 0.10714274999997997,
            "durationTicks": 180,
            "midi": 50,
            "name": "D3",
            "ticks": 226080,
            "time": 134.57129400000002,
            "velocity": 0.8267716535433071
          },
          {
            "duration": 0.10714275000000839,
            "durationTicks": 180,
            "midi": 50,
            "name": "D3",
            "ticks": 226320,
            "time": 134.71415100000002,
            "velocity": 0.8267716535433071
          },
          {
            "duration": 0.4571424000000093,
            "durationTicks": 768,
            "midi": 50,
            "name": "D3",
            "ticks": 226560,
            "time": 134.857008,
            "velocity": 0.8267716535433071
          },
          {
            "duration": 0.10714274999997997,
            "durationTicks": 180,
            "midi": 50,
            "name": "D3",
            "ticks": 228000,
            "time": 135.71415000000002,
            "velocity": 0.8267716535433071
          },
          {
            "duration": 0.10714275000000839,
            "durationTicks": 180,
            "midi": 50,
            "name": "D3",
            "ticks": 228240,
            "time": 135.857007,
            "velocity": 0.8267716535433071
          },
          {
            "duration": 0.21428550000001678,
            "durationTicks": 360,
            "midi": 50,
            "name": "D3",
            "ticks": 228480,
            "time": 135.999864,
            "velocity": 0.8267716535433071
          },
          {
            "duration": 0.10714275000000839,
            "durationTicks": 180,
            "midi": 50,
            "name": "D3",
            "ticks": 228960,
            "time": 136.28557800000002,
            "velocity": 0.8267716535433071
          },
          {
            "duration": 0.10714275000000839,
            "durationTicks": 180,
            "midi": 50,
            "name": "D3",
            "ticks": 229200,
            "time": 136.428435,
            "velocity": 0.8267716535433071
          },
          {
            "duration": 0.21428550000001678,
            "durationTicks": 360,
            "midi": 50,
            "name": "D3",
            "ticks": 229440,
            "time": 136.571292,
            "velocity": 0.8267716535433071
          },
          {
            "duration": 0.10714275000000839,
            "durationTicks": 180,
            "midi": 50,
            "name": "D3",
            "ticks": 229920,
            "time": 136.857006,
            "velocity": 0.8267716535433071
          },
          {
            "duration": 0.10714275000000839,
            "durationTicks": 180,
            "midi": 50,
            "name": "D3",
            "ticks": 230160,
            "time": 136.999863,
            "velocity": 0.8267716535433071
          },
          {
            "duration": 0.4571424000000093,
            "durationTicks": 768,
            "midi": 50,
            "name": "D3",
            "ticks": 230400,
            "time": 137.14272,
            "velocity": 0.8267716535433071
          },
          {
            "duration": 0.22857120000000464,
            "durationTicks": 384,
            "midi": 43,
            "name": "G2",
            "ticks": 234240,
            "time": 139.42843200000002,
            "velocity": 0.5511811023622047
          },
          {
            "duration": 0.22857120000000464,
            "durationTicks": 384,
            "midi": 55,
            "name": "G3",
            "ticks": 236160,
            "time": 140.571288,
            "velocity": 0.5511811023622047
          },
          {
            "duration": 0.22857120000000464,
            "durationTicks": 384,
            "midi": 39,
            "name": "D#2",
            "ticks": 238080,
            "time": 141.714144,
            "velocity": 0.5511811023622047
          },
          {
            "duration": 0.22857120000000464,
            "durationTicks": 384,
            "midi": 48,
            "name": "C3",
            "ticks": 240000,
            "time": 142.857,
            "velocity": 0.5511811023622047
          },
          {
            "duration": 0.22857120000000464,
            "durationTicks": 384,
            "midi": 53,
            "name": "F3",
            "ticks": 241920,
            "time": 143.99985600000002,
            "velocity": 0.5511811023622047
          },
          {
            "duration": 0.22857120000000464,
            "durationTicks": 384,
            "midi": 53,
            "name": "F3",
            "ticks": 243840,
            "time": 145.14271200000002,
            "velocity": 0.5511811023622047
          },
          {
            "duration": 0.11428559999998811,
            "durationTicks": 192,
            "midi": 58,
            "name": "A#3",
            "ticks": 245760,
            "time": 146.285568,
            "velocity": 0.8267716535433071
          },
          {
            "duration": 0.11428559999998811,
            "durationTicks": 192,
            "midi": 62,
            "name": "D4",
            "ticks": 246000,
            "time": 146.428425,
            "velocity": 0.8267716535433071
          },
          {
            "duration": 0.11428559999998811,
            "durationTicks": 192,
            "midi": 58,
            "name": "A#3",
            "ticks": 246240,
            "time": 146.57128200000002,
            "velocity": 0.8267716535433071
          },
          {
            "duration": 0.11428559999998811,
            "durationTicks": 192,
            "midi": 62,
            "name": "D4",
            "ticks": 246480,
            "time": 146.71413900000002,
            "velocity": 0.8267716535433071
          },
          {
            "duration": 0.11428559999998811,
            "durationTicks": 192,
            "midi": 58,
            "name": "A#3",
            "ticks": 246720,
            "time": 146.856996,
            "velocity": 0.8267716535433071
          },
          {
            "duration": 0.11428560000001653,
            "durationTicks": 192,
            "midi": 62,
            "name": "D4",
            "ticks": 246960,
            "time": 146.999853,
            "velocity": 0.8267716535433071
          },
          {
            "duration": 0.11428559999998811,
            "durationTicks": 192,
            "midi": 58,
            "name": "A#3",
            "ticks": 247200,
            "time": 147.14271000000002,
            "velocity": 0.8267716535433071
          },
          {
            "duration": 0.11428559999998811,
            "durationTicks": 192,
            "midi": 62,
            "name": "D4",
            "ticks": 247440,
            "time": 147.28556700000001,
            "velocity": 0.8267716535433071
          },
          {
            "duration": 0.11428559999998811,
            "durationTicks": 192,
            "midi": 57,
            "name": "A3",
            "ticks": 247680,
            "time": 147.428424,
            "velocity": 0.8267716535433071
          },
          {
            "duration": 0.11428560000001653,
            "durationTicks": 192,
            "midi": 60,
            "name": "C4",
            "ticks": 247920,
            "time": 147.571281,
            "velocity": 0.8267716535433071
          },
          {
            "duration": 0.11428559999998811,
            "durationTicks": 192,
            "midi": 57,
            "name": "A3",
            "ticks": 248160,
            "time": 147.71413800000002,
            "velocity": 0.8267716535433071
          },
          {
            "duration": 0.11428559999998811,
            "durationTicks": 192,
            "midi": 60,
            "name": "C4",
            "ticks": 248400,
            "time": 147.856995,
            "velocity": 0.8267716535433071
          },
          {
            "duration": 0.11428559999998811,
            "durationTicks": 192,
            "midi": 57,
            "name": "A3",
            "ticks": 248640,
            "time": 147.999852,
            "velocity": 0.8267716535433071
          },
          {
            "duration": 0.11428559999998811,
            "durationTicks": 192,
            "midi": 60,
            "name": "C4",
            "ticks": 248880,
            "time": 148.14270900000002,
            "velocity": 0.8267716535433071
          },
          {
            "duration": 0.11428559999998811,
            "durationTicks": 192,
            "midi": 57,
            "name": "A3",
            "ticks": 249120,
            "time": 148.28556600000002,
            "velocity": 0.8267716535433071
          },
          {
            "duration": 0.11428559999998811,
            "durationTicks": 192,
            "midi": 60,
            "name": "C4",
            "ticks": 249360,
            "time": 148.428423,
            "velocity": 0.8267716535433071
          },
          {
            "duration": 0.11428560000001653,
            "durationTicks": 192,
            "midi": 55,
            "name": "G3",
            "ticks": 249600,
            "time": 148.57128,
            "velocity": 0.8267716535433071
          },
          {
            "duration": 0.11428559999998811,
            "durationTicks": 192,
            "midi": 58,
            "name": "A#3",
            "ticks": 249840,
            "time": 148.71413700000002,
            "velocity": 0.8267716535433071
          },
          {
            "duration": 0.11428559999998811,
            "durationTicks": 192,
            "midi": 55,
            "name": "G3",
            "ticks": 250080,
            "time": 148.85699400000001,
            "velocity": 0.8267716535433071
          },
          {
            "duration": 0.11428559999998811,
            "durationTicks": 192,
            "midi": 58,
            "name": "A#3",
            "ticks": 250320,
            "time": 148.999851,
            "velocity": 0.8267716535433071
          },
          {
            "duration": 0.11428560000001653,
            "durationTicks": 192,
            "midi": 55,
            "name": "G3",
            "ticks": 250560,
            "time": 149.142708,
            "velocity": 0.8267716535433071
          },
          {
            "duration": 0.11428559999998811,
            "durationTicks": 192,
            "midi": 58,
            "name": "A#3",
            "ticks": 250800,
            "time": 149.28556500000002,
            "velocity": 0.8267716535433071
          },
          {
            "duration": 0.11428559999998811,
            "durationTicks": 192,
            "midi": 55,
            "name": "G3",
            "ticks": 251040,
            "time": 149.428422,
            "velocity": 0.8267716535433071
          },
          {
            "duration": 0.11428559999998811,
            "durationTicks": 192,
            "midi": 58,
            "name": "A#3",
            "ticks": 251280,
            "time": 149.571279,
            "velocity": 0.8267716535433071
          },
          {
            "duration": 0.11428559999998811,
            "durationTicks": 192,
            "midi": 53,
            "name": "F3",
            "ticks": 251520,
            "time": 149.71413600000002,
            "velocity": 0.8267716535433071
          },
          {
            "duration": 0.11428559999998811,
            "durationTicks": 192,
            "midi": 58,
            "name": "A#3",
            "ticks": 251760,
            "time": 149.85699300000002,
            "velocity": 0.8267716535433071
          },
          {
            "duration": 0.11428559999998811,
            "durationTicks": 192,
            "midi": 53,
            "name": "F3",
            "ticks": 252000,
            "time": 149.99985,
            "velocity": 0.8267716535433071
          },
          {
            "duration": 0.11428560000001653,
            "durationTicks": 192,
            "midi": 58,
            "name": "A#3",
            "ticks": 252240,
            "time": 150.142707,
            "velocity": 0.8267716535433071
          },
          {
            "duration": 0.11428559999998811,
            "durationTicks": 192,
            "midi": 53,
            "name": "F3",
            "ticks": 252480,
            "time": 150.28556400000002,
            "velocity": 0.8267716535433071
          },
          {
            "duration": 0.11428559999998811,
            "durationTicks": 192,
            "midi": 58,
            "name": "A#3",
            "ticks": 252720,
            "time": 150.42842100000001,
            "velocity": 0.8267716535433071
          },
          {
            "duration": 0.11428559999998811,
            "durationTicks": 192,
            "midi": 53,
            "name": "F3",
            "ticks": 252960,
            "time": 150.571278,
            "velocity": 0.8267716535433071
          },
          {
            "duration": 0.11428560000001653,
            "durationTicks": 192,
            "midi": 58,
            "name": "A#3",
            "ticks": 253200,
            "time": 150.714135,
            "velocity": 0.8267716535433071
          },
          {
            "duration": 0.11428559999998811,
            "durationTicks": 192,
            "midi": 51,
            "name": "D#3",
            "ticks": 253440,
            "time": 150.85699200000002,
            "velocity": 0.8267716535433071
          },
          {
            "duration": 0.11428559999998811,
            "durationTicks": 192,
            "midi": 55,
            "name": "G3",
            "ticks": 253680,
            "time": 150.999849,
            "velocity": 0.8267716535433071
          },
          {
            "duration": 0.11428559999998811,
            "durationTicks": 192,
            "midi": 51,
            "name": "D#3",
            "ticks": 253920,
            "time": 151.142706,
            "velocity": 0.8267716535433071
          },
          {
            "duration": 0.11428559999998811,
            "durationTicks": 192,
            "midi": 55,
            "name": "G3",
            "ticks": 254160,
            "time": 151.28556300000002,
            "velocity": 0.8267716535433071
          },
          {
            "duration": 0.11428559999998811,
            "durationTicks": 192,
            "midi": 51,
            "name": "D#3",
            "ticks": 254400,
            "time": 151.42842000000002,
            "velocity": 0.8267716535433071
          },
          {
            "duration": 0.11428559999998811,
            "durationTicks": 192,
            "midi": 55,
            "name": "G3",
            "ticks": 254640,
            "time": 151.571277,
            "velocity": 0.8267716535433071
          },
          {
            "duration": 0.11428560000001653,
            "durationTicks": 192,
            "midi": 51,
            "name": "D#3",
            "ticks": 254880,
            "time": 151.714134,
            "velocity": 0.8267716535433071
          },
          {
            "duration": 0.11428559999998811,
            "durationTicks": 192,
            "midi": 55,
            "name": "G3",
            "ticks": 255120,
            "time": 151.85699100000002,
            "velocity": 0.8267716535433071
          },
          {
            "duration": 0.11428559999998811,
            "durationTicks": 192,
            "midi": 50,
            "name": "D3",
            "ticks": 255360,
            "time": 151.99984800000001,
            "velocity": 0.8267716535433071
          },
          {
            "duration": 0.11428559999998811,
            "durationTicks": 192,
            "midi": 53,
            "name": "F3",
            "ticks": 255600,
            "time": 152.142705,
            "velocity": 0.8267716535433071
          },
          {
            "duration": 0.11428560000001653,
            "durationTicks": 192,
            "midi": 50,
            "name": "D3",
            "ticks": 255840,
            "time": 152.285562,
            "velocity": 0.8267716535433071
          },
          {
            "duration": 0.11428559999998811,
            "durationTicks": 192,
            "midi": 53,
            "name": "F3",
            "ticks": 256080,
            "time": 152.42841900000002,
            "velocity": 0.8267716535433071
          },
          {
            "duration": 0.11428559999998811,
            "durationTicks": 192,
            "midi": 50,
            "name": "D3",
            "ticks": 256320,
            "time": 152.571276,
            "velocity": 0.8267716535433071
          },
          {
            "duration": 0.11428559999998811,
            "durationTicks": 192,
            "midi": 53,
            "name": "F3",
            "ticks": 256560,
            "time": 152.714133,
            "velocity": 0.8267716535433071
          },
          {
            "duration": 0.11428559999998811,
            "durationTicks": 192,
            "midi": 50,
            "name": "D3",
            "ticks": 256800,
            "time": 152.85699000000002,
            "velocity": 0.8267716535433071
          },
          {
            "duration": 0.11428559999998811,
            "durationTicks": 192,
            "midi": 53,
            "name": "F3",
            "ticks": 257040,
            "time": 152.99984700000002,
            "velocity": 0.8267716535433071
          },
          {
            "duration": 0.9142848000000185,
            "durationTicks": 1536,
            "midi": 48,
            "name": "C3",
            "ticks": 257280,
            "time": 153.142704,
            "velocity": 0.8818897637795275
          },
          {
            "duration": 0.4571424000000093,
            "durationTicks": 768,
            "midi": 48,
            "name": "C3",
            "ticks": 259200,
            "time": 154.28556,
            "velocity": 0.8818897637795275
          },
          {
            "duration": 0.4571424000000093,
            "durationTicks": 768,
            "midi": 49,
            "name": "C#3",
            "ticks": 260160,
            "time": 154.856988,
            "velocity": 0.8818897637795275
          },
          {
            "duration": 0.45714239999998085,
            "durationTicks": 768,
            "midi": 48,
            "name": "C3",
            "ticks": 261120,
            "time": 155.42841600000003,
            "velocity": 0.8818897637795275
          },
          {
            "duration": 0.45714239999998085,
            "durationTicks": 768,
            "midi": 49,
            "name": "C#3",
            "ticks": 262080,
            "time": 155.99984400000002,
            "velocity": 0.8818897637795275
          },
          {
            "duration": 0.4571424000000093,
            "durationTicks": 768,
            "midi": 48,
            "name": "C3",
            "ticks": 263040,
            "time": 156.57127200000002,
            "velocity": 0.8818897637795275
          },
          {
            "duration": 0.11428559999998811,
            "durationTicks": 192,
            "midi": 48,
            "name": "C3",
            "ticks": 264720,
            "time": 157.57127100000002,
            "velocity": 0.8267716535433071
          },
          {
            "duration": 0.10714275000000839,
            "durationTicks": 180,
            "midi": 53,
            "name": "F3",
            "ticks": 264960,
            "time": 157.71412800000002,
            "velocity": 0.8267716535433071
          },
          {
            "duration": 0.10714275000000839,
            "durationTicks": 180,
            "midi": 53,
            "name": "F3",
            "ticks": 265200,
            "time": 157.856985,
            "velocity": 0.8267716535433071
          },
          {
            "duration": 0.10714275000000839,
            "durationTicks": 180,
            "midi": 53,
            "name": "F3",
            "ticks": 265440,
            "time": 157.999842,
            "velocity": 0.8267716535433071
          },
          {
            "duration": 0.10714274999997997,
            "durationTicks": 180,
            "midi": 53,
            "name": "F3",
            "ticks": 265680,
            "time": 158.14269900000002,
            "velocity": 0.8267716535433071
          },
          {
            "duration": 0.10714275000000839,
            "durationTicks": 180,
            "midi": 53,
            "name": "F3",
            "ticks": 265920,
            "time": 158.285556,
            "velocity": 0.8267716535433071
          },
          {
            "duration": 0.10714275000000839,
            "durationTicks": 180,
            "midi": 53,
            "name": "F3",
            "ticks": 266160,
            "time": 158.428413,
            "velocity": 0.8267716535433071
          },
          {
            "duration": 0.10714274999997997,
            "durationTicks": 180,
            "midi": 53,
            "name": "F3",
            "ticks": 266400,
            "time": 158.57127000000003,
            "velocity": 0.8267716535433071
          },
          {
            "duration": 0.10714274999997997,
            "durationTicks": 180,
            "midi": 53,
            "name": "F3",
            "ticks": 266640,
            "time": 158.71412700000002,
            "velocity": 0.8267716535433071
          },
          {
            "duration": 0.10714275000000839,
            "durationTicks": 180,
            "midi": 53,
            "name": "F3",
            "ticks": 266880,
            "time": 158.856984,
            "velocity": 0.8267716535433071
          },
          {
            "duration": 0.10714275000000839,
            "durationTicks": 180,
            "midi": 53,
            "name": "F3",
            "ticks": 267120,
            "time": 158.999841,
            "velocity": 0.8267716535433071
          },
          {
            "duration": 0.10714274999997997,
            "durationTicks": 180,
            "midi": 53,
            "name": "F3",
            "ticks": 267360,
            "time": 159.14269800000002,
            "velocity": 0.8267716535433071
          },
          {
            "duration": 0.10714275000000839,
            "durationTicks": 180,
            "midi": 53,
            "name": "F3",
            "ticks": 267600,
            "time": 159.28555500000002,
            "velocity": 0.8267716535433071
          },
          {
            "duration": 0.10714275000000839,
            "durationTicks": 180,
            "midi": 53,
            "name": "F3",
            "ticks": 267840,
            "time": 159.428412,
            "velocity": 0.8267716535433071
          },
          {
            "duration": 0.10714275000000839,
            "durationTicks": 180,
            "midi": 53,
            "name": "F3",
            "ticks": 268080,
            "time": 159.571269,
            "velocity": 0.8267716535433071
          },
          {
            "duration": 0.10714274999997997,
            "durationTicks": 180,
            "midi": 53,
            "name": "F3",
            "ticks": 268320,
            "time": 159.71412600000002,
            "velocity": 0.8267716535433071
          },
          {
            "duration": 0.10714275000000839,
            "durationTicks": 180,
            "midi": 53,
            "name": "F3",
            "ticks": 268560,
            "time": 159.856983,
            "velocity": 0.8267716535433071
          },
          {
            "duration": 0.10714275000000839,
            "durationTicks": 180,
            "midi": 53,
            "name": "F3",
            "ticks": 268800,
            "time": 159.99984,
            "velocity": 0.8267716535433071
          },
          {
            "duration": 0.10714274999997997,
            "durationTicks": 180,
            "midi": 53,
            "name": "F3",
            "ticks": 269040,
            "time": 160.14269700000003,
            "velocity": 0.8267716535433071
          },
          {
            "duration": 0.10714275000000839,
            "durationTicks": 180,
            "midi": 53,
            "name": "F3",
            "ticks": 269280,
            "time": 160.28555400000002,
            "velocity": 0.8267716535433071
          },
          {
            "duration": 0.10714275000000839,
            "durationTicks": 180,
            "midi": 53,
            "name": "F3",
            "ticks": 269520,
            "time": 160.428411,
            "velocity": 0.8267716535433071
          },
          {
            "duration": 0.10714275000000839,
            "durationTicks": 180,
            "midi": 53,
            "name": "F3",
            "ticks": 269760,
            "time": 160.571268,
            "velocity": 0.8267716535433071
          },
          {
            "duration": 0.10714274999997997,
            "durationTicks": 180,
            "midi": 53,
            "name": "F3",
            "ticks": 270000,
            "time": 160.71412500000002,
            "velocity": 0.8267716535433071
          },
          {
            "duration": 0.10714275000000839,
            "durationTicks": 180,
            "midi": 53,
            "name": "F3",
            "ticks": 270240,
            "time": 160.85698200000002,
            "velocity": 0.8267716535433071
          },
          {
            "duration": 0.10714275000000839,
            "durationTicks": 180,
            "midi": 53,
            "name": "F3",
            "ticks": 270480,
            "time": 160.999839,
            "velocity": 0.8267716535433071
          },
          {
            "duration": 0.10714275000000839,
            "durationTicks": 180,
            "midi": 53,
            "name": "F3",
            "ticks": 270720,
            "time": 161.142696,
            "velocity": 0.8267716535433071
          },
          {
            "duration": 0.10714274999997997,
            "durationTicks": 180,
            "midi": 53,
            "name": "F3",
            "ticks": 270960,
            "time": 161.28555300000002,
            "velocity": 0.8267716535433071
          },
          {
            "duration": 0.10714275000000839,
            "durationTicks": 180,
            "midi": 53,
            "name": "F3",
            "ticks": 271200,
            "time": 161.42841,
            "velocity": 0.8267716535433071
          },
          {
            "duration": 0.10714275000000839,
            "durationTicks": 180,
            "midi": 53,
            "name": "F3",
            "ticks": 271440,
            "time": 161.571267,
            "velocity": 0.8267716535433071
          },
          {
            "duration": 0.10714274999997997,
            "durationTicks": 180,
            "midi": 53,
            "name": "F3",
            "ticks": 271680,
            "time": 161.71412400000003,
            "velocity": 0.8267716535433071
          },
          {
            "duration": 0.10714275000000839,
            "durationTicks": 180,
            "midi": 53,
            "name": "F3",
            "ticks": 271920,
            "time": 161.85698100000002,
            "velocity": 0.8267716535433071
          },
          {
            "duration": 0.10714275000000839,
            "durationTicks": 180,
            "midi": 53,
            "name": "F3",
            "ticks": 272160,
            "time": 161.999838,
            "velocity": 0.8267716535433071
          },
          {
            "duration": 0.10714275000000839,
            "durationTicks": 180,
            "midi": 53,
            "name": "F3",
            "ticks": 272400,
            "time": 162.142695,
            "velocity": 0.8267716535433071
          },
          {
            "duration": 0.22857119999997622,
            "durationTicks": 384,
            "midi": 53,
            "name": "F3",
            "ticks": 272640,
            "time": 162.28555200000002,
            "velocity": 0.8267716535433071
          },
          {
            "duration": 0.22857119999997622,
            "durationTicks": 384,
            "midi": 41,
            "name": "F2",
            "ticks": 273600,
            "time": 162.85698000000002,
            "velocity": 0.7244094488188977
          },
          {
            "duration": 0.8571420000000103,
            "durationTicks": 1440,
            "midi": 62,
            "name": "D4",
            "ticks": 276480,
            "time": 164.571264,
            "velocity": 0.4566929133858268
          },
          {
            "duration": 0.2857139999999845,
            "durationTicks": 480,
            "midi": 60,
            "name": "C4",
            "ticks": 277920,
            "time": 165.42840600000002,
            "velocity": 0.4566929133858268
          },
          {
            "duration": 0.22857120000000464,
            "durationTicks": 384,
            "midi": 53,
            "name": "F3",
            "ticks": 278400,
            "time": 165.71412,
            "velocity": 0.4566929133858268
          },
          {
            "duration": 0.18571409999998423,
            "durationTicks": 312,
            "midi": 55,
            "name": "G3",
            "ticks": 280800,
            "time": 167.14269000000002,
            "velocity": 0.4566929133858268
          },
          {
            "duration": 0.2857140000000129,
            "durationTicks": 480,
            "midi": 55,
            "name": "G3",
            "ticks": 281280,
            "time": 167.428404,
            "velocity": 0.4566929133858268
          },
          {
            "duration": 0.22857119999997622,
            "durationTicks": 384,
            "midi": 51,
            "name": "D#3",
            "ticks": 281760,
            "time": 167.714118,
            "velocity": 0.4566929133858268
          },
          {
            "duration": 0.45714239999998085,
            "durationTicks": 768,
            "midi": 53,
            "name": "F3",
            "ticks": 282240,
            "time": 167.99983200000003,
            "velocity": 0.4566929133858268
          },
          {
            "duration": 0.8571419999999819,
            "durationTicks": 1440,
            "midi": 51,
            "name": "D#3",
            "ticks": 284160,
            "time": 169.14268800000002,
            "velocity": 0.4566929133858268
          },
          {
            "duration": 0.2857140000000129,
            "durationTicks": 480,
            "midi": 50,
            "name": "D3",
            "ticks": 285600,
            "time": 169.99983,
            "velocity": 0.4566929133858268
          },
          {
            "duration": 0.2857139999999845,
            "durationTicks": 480,
            "midi": 55,
            "name": "G3",
            "ticks": 286080,
            "time": 170.28554400000002,
            "velocity": 0.4566929133858268
          },
          {
            "duration": 0.2857140000000129,
            "durationTicks": 480,
            "midi": 48,
            "name": "C3",
            "ticks": 286560,
            "time": 170.571258,
            "velocity": 0.4566929133858268
          },
          {
            "duration": 0.2857140000000129,
            "durationTicks": 480,
            "midi": 53,
            "name": "F3",
            "ticks": 287040,
            "time": 170.856972,
            "velocity": 0.4566929133858268
          },
          {
            "duration": 0.22857119999997622,
            "durationTicks": 384,
            "midi": 46,
            "name": "A#2",
            "ticks": 287520,
            "time": 171.14268600000003,
            "velocity": 0.4566929133858268
          },
          {
            "duration": 0.22857120000000464,
            "durationTicks": 384,
            "midi": 51,
            "name": "D#3",
            "ticks": 288000,
            "time": 171.4284,
            "velocity": 0.4566929133858268
          },
          {
            "duration": 0.22857120000000464,
            "durationTicks": 384,
            "midi": 53,
            "name": "F3",
            "ticks": 288960,
            "time": 171.999828,
            "velocity": 0.4566929133858268
          },
          {
            "duration": 0.22857120000000464,
            "durationTicks": 384,
            "midi": 46,
            "name": "A#2",
            "ticks": 289920,
            "time": 172.571256,
            "velocity": 0.4566929133858268
          },
          {
            "duration": 0.8571420000000103,
            "durationTicks": 1440,
            "midi": 63,
            "name": "D#4",
            "ticks": 299520,
            "time": 178.285536,
            "velocity": 0.5511811023622047
          },
          {
            "duration": 0.2857139999999845,
            "durationTicks": 480,
            "midi": 62,
            "name": "D4",
            "ticks": 300960,
            "time": 179.14267800000002,
            "velocity": 0.5511811023622047
          },
          {
            "duration": 0.2857140000000129,
            "durationTicks": 480,
            "midi": 55,
            "name": "G3",
            "ticks": 301440,
            "time": 179.428392,
            "velocity": 0.5511811023622047
          },
          {
            "duration": 0.2857140000000129,
            "durationTicks": 480,
            "midi": 60,
            "name": "C4",
            "ticks": 301920,
            "time": 179.71410600000002,
            "velocity": 0.5511811023622047
          },
          {
            "duration": 0.2857139999999845,
            "durationTicks": 480,
            "midi": 53,
            "name": "F3",
            "ticks": 302400,
            "time": 179.99982000000003,
            "velocity": 0.5511811023622047
          },
          {
            "duration": 0.22857119999997622,
            "durationTicks": 384,
            "midi": 58,
            "name": "A#3",
            "ticks": 302880,
            "time": 180.285534,
            "velocity": 0.5511811023622047
          },
          {
            "duration": 4.342852800000003,
            "durationTicks": 7296,
            "midi": 51,
            "name": "D#3",
            "ticks": 303360,
            "time": 180.57124800000003,
            "velocity": 0.4566929133858268
          },
          {
            "duration": 0.1285713000000328,
            "durationTicks": 216,
            "midi": 51,
            "name": "D#3",
            "ticks": 311040,
            "time": 185.142672,
            "velocity": 0.4566929133858268
          },
          {
            "duration": 0.12857130000000438,
            "durationTicks": 216,
            "midi": 51,
            "name": "D#3",
            "ticks": 311280,
            "time": 185.28552900000003,
            "velocity": 0.5748031496062992
          },
          {
            "duration": 0.12857130000000438,
            "durationTicks": 216,
            "midi": 51,
            "name": "D#3",
            "ticks": 311520,
            "time": 185.42838600000002,
            "velocity": 0.5984251968503937
          },
          {
            "duration": 0.12857130000000438,
            "durationTicks": 216,
            "midi": 51,
            "name": "D#3",
            "ticks": 311760,
            "time": 185.571243,
            "velocity": 0.6220472440944882
          },
          {
            "duration": 0.1285713000000328,
            "durationTicks": 216,
            "midi": 51,
            "name": "D#3",
            "ticks": 312000,
            "time": 185.7141,
            "velocity": 0.6535433070866141
          },
          {
            "duration": 0.12857130000000438,
            "durationTicks": 216,
            "midi": 51,
            "name": "D#3",
            "ticks": 312240,
            "time": 185.85695700000002,
            "velocity": 0.6771653543307087
          },
          {
            "duration": 0.12857130000000438,
            "durationTicks": 216,
            "midi": 51,
            "name": "D#3",
            "ticks": 312480,
            "time": 185.99981400000001,
            "velocity": 0.7007874015748031
          },
          {
            "duration": 0.1285713000000328,
            "durationTicks": 216,
            "midi": 51,
            "name": "D#3",
            "ticks": 312720,
            "time": 186.142671,
            "velocity": 0.7244094488188977
          },
          {
            "duration": 0.12857130000000438,
            "durationTicks": 216,
            "midi": 52,
            "name": "E3",
            "ticks": 312960,
            "time": 186.28552800000003,
            "velocity": 0.7559055118110236
          },
          {
            "duration": 0.12857130000000438,
            "durationTicks": 216,
            "midi": 52,
            "name": "E3",
            "ticks": 313200,
            "time": 186.42838500000002,
            "velocity": 0.7795275590551181
          },
          {
            "duration": 0.12857130000000438,
            "durationTicks": 216,
            "midi": 52,
            "name": "E3",
            "ticks": 313440,
            "time": 186.571242,
            "velocity": 0.8031496062992126
          },
          {
            "duration": 0.1285713000000328,
            "durationTicks": 216,
            "midi": 52,
            "name": "E3",
            "ticks": 313680,
            "time": 186.714099,
            "velocity": 0.8346456692913385
          },
          {
            "duration": 0.12857130000000438,
            "durationTicks": 216,
            "midi": 52,
            "name": "E3",
            "ticks": 313920,
            "time": 186.85695600000003,
            "velocity": 0.8582677165354331
          },
          {
            "duration": 0.12857130000000438,
            "durationTicks": 216,
            "midi": 52,
            "name": "E3",
            "ticks": 314160,
            "time": 186.99981300000002,
            "velocity": 0.8582677165354331
          },
          {
            "duration": 0.1285713000000328,
            "durationTicks": 216,
            "midi": 52,
            "name": "E3",
            "ticks": 314400,
            "time": 187.14267,
            "velocity": 0.8582677165354331
          },
          {
            "duration": 0.1285713000000328,
            "durationTicks": 216,
            "midi": 52,
            "name": "E3",
            "ticks": 314640,
            "time": 187.285527,
            "velocity": 0.8582677165354331
          },
          {
            "duration": 0.11428559999998811,
            "durationTicks": 192,
            "midi": 53,
            "name": "F3",
            "ticks": 314880,
            "time": 187.42838400000002,
            "velocity": 0.8267716535433071
          },
          {
            "duration": 0.11428559999998811,
            "durationTicks": 192,
            "midi": 53,
            "name": "F3",
            "ticks": 315120,
            "time": 187.57124100000001,
            "velocity": 0.8267716535433071
          },
          {
            "duration": 0.11428559999998811,
            "durationTicks": 192,
            "midi": 53,
            "name": "F3",
            "ticks": 315360,
            "time": 187.714098,
            "velocity": 0.8267716535433071
          },
          {
            "duration": 0.11428559999998811,
            "durationTicks": 192,
            "midi": 53,
            "name": "F3",
            "ticks": 315600,
            "time": 187.85695500000003,
            "velocity": 0.8267716535433071
          },
          {
            "duration": 0.11428559999998811,
            "durationTicks": 192,
            "midi": 53,
            "name": "F3",
            "ticks": 315840,
            "time": 187.99981200000002,
            "velocity": 0.8267716535433071
          },
          {
            "duration": 0.11428559999998811,
            "durationTicks": 192,
            "midi": 53,
            "name": "F3",
            "ticks": 316080,
            "time": 188.142669,
            "velocity": 0.8267716535433071
          },
          {
            "duration": 0.11428560000001653,
            "durationTicks": 192,
            "midi": 53,
            "name": "F3",
            "ticks": 316320,
            "time": 188.285526,
            "velocity": 0.8267716535433071
          },
          {
            "duration": 0.11428559999998811,
            "durationTicks": 192,
            "midi": 53,
            "name": "F3",
            "ticks": 316560,
            "time": 188.42838300000003,
            "velocity": 0.8267716535433071
          },
          {
            "duration": 0.11428559999998811,
            "durationTicks": 192,
            "midi": 41,
            "name": "F2",
            "ticks": 316800,
            "time": 188.57124000000002,
            "velocity": 0.8267716535433071
          },
          {
            "duration": 0.11428559999998811,
            "durationTicks": 192,
            "midi": 41,
            "name": "F2",
            "ticks": 317040,
            "time": 188.714097,
            "velocity": 0.8267716535433071
          },
          {
            "duration": 0.11428560000001653,
            "durationTicks": 192,
            "midi": 41,
            "name": "F2",
            "ticks": 317280,
            "time": 188.856954,
            "velocity": 0.8267716535433071
          },
          {
            "duration": 0.11428559999998811,
            "durationTicks": 192,
            "midi": 41,
            "name": "F2",
            "ticks": 317520,
            "time": 188.99981100000002,
            "velocity": 0.8267716535433071
          },
          {
            "duration": 0.11428559999998811,
            "durationTicks": 192,
            "midi": 41,
            "name": "F2",
            "ticks": 317760,
            "time": 189.14266800000001,
            "velocity": 0.8267716535433071
          },
          {
            "duration": 0.11428559999998811,
            "durationTicks": 192,
            "midi": 41,
            "name": "F2",
            "ticks": 318000,
            "time": 189.285525,
            "velocity": 0.8267716535433071
          },
          {
            "duration": 0.11428559999998811,
            "durationTicks": 192,
            "midi": 41,
            "name": "F2",
            "ticks": 318240,
            "time": 189.42838200000003,
            "velocity": 0.8267716535433071
          },
          {
            "duration": 0.11428559999998811,
            "durationTicks": 192,
            "midi": 41,
            "name": "F2",
            "ticks": 318480,
            "time": 189.57123900000002,
            "velocity": 0.8267716535433071
          },
          {
            "duration": 0.22857120000000464,
            "durationTicks": 384,
            "midi": 46,
            "name": "A#2",
            "ticks": 318720,
            "time": 189.714096,
            "velocity": 0.7244094488188977
          },
          {
            "duration": 0.4571424000000093,
            "durationTicks": 768,
            "midi": 50,
            "name": "D3",
            "ticks": 319200,
            "time": 189.99981000000002,
            "velocity": 0.984251968503937
          },
          {
            "duration": 0.17142839999999637,
            "durationTicks": 288,
            "midi": 51,
            "name": "D#3",
            "ticks": 320160,
            "time": 190.57123800000002,
            "velocity": 0.8267716535433071
          },
          {
            "duration": 0.1714284000000248,
            "durationTicks": 288,
            "midi": 52,
            "name": "E3",
            "ticks": 320640,
            "time": 190.856952,
            "velocity": 0.8267716535433071
          },
          {
            "duration": 0.17142839999999637,
            "durationTicks": 288,
            "midi": 53,
            "name": "F3",
            "ticks": 321120,
            "time": 191.14266600000002,
            "velocity": 0.8267716535433071
          },
          {
            "duration": 0.1714284000000248,
            "durationTicks": 288,
            "midi": 54,
            "name": "F#3",
            "ticks": 321600,
            "time": 191.42838,
            "velocity": 0.8267716535433071
          },
          {
            "duration": 0.17142839999999637,
            "durationTicks": 288,
            "midi": 55,
            "name": "G3",
            "ticks": 322080,
            "time": 191.71409400000002,
            "velocity": 0.8267716535433071
          },
          {
            "duration": 0.22857119999997622,
            "durationTicks": 384,
            "midi": 56,
            "name": "G#3",
            "ticks": 322560,
            "time": 191.99980800000003,
            "velocity": 0.8267716535433071
          },
          {
            "duration": 0.057142800000036686,
            "durationTicks": 96,
            "midi": 56,
            "name": "G#3",
            "ticks": 323400,
            "time": 192.4998075,
            "velocity": 0.8267716535433071
          },
          {
            "duration": 0.22857119999997622,
            "durationTicks": 384,
            "midi": 55,
            "name": "G3",
            "ticks": 323520,
            "time": 192.57123600000003,
            "velocity": 0.8267716535433071
          },
          {
            "duration": 0.057142800000008265,
            "durationTicks": 96,
            "midi": 55,
            "name": "G3",
            "ticks": 324360,
            "time": 193.07123550000003,
            "velocity": 0.8267716535433071
          },
          {
            "duration": 0.22857119999997622,
            "durationTicks": 384,
            "midi": 63,
            "name": "D#4",
            "ticks": 324480,
            "time": 193.14266400000002,
            "velocity": 0.8267716535433071
          },
          {
            "duration": 0.057142800000008265,
            "durationTicks": 96,
            "midi": 63,
            "name": "D#4",
            "ticks": 325320,
            "time": 193.64266350000003,
            "velocity": 0.8267716535433071
          },
          {
            "duration": 0.22857119999997622,
            "durationTicks": 384,
            "midi": 62,
            "name": "D4",
            "ticks": 325440,
            "time": 193.71409200000002,
            "velocity": 0.8267716535433071
          },
          {
            "duration": 0.057142800000008265,
            "durationTicks": 96,
            "midi": 62,
            "name": "D4",
            "ticks": 326280,
            "time": 194.21409150000002,
            "velocity": 0.8267716535433071
          },
          {
            "duration": 0.22857119999997622,
            "durationTicks": 384,
            "midi": 51,
            "name": "D#3",
            "ticks": 326400,
            "time": 194.28552000000002,
            "velocity": 0.8267716535433071
          },
          {
            "duration": 0.22857119999997622,
            "durationTicks": 384,
            "midi": 53,
            "name": "F3",
            "ticks": 328320,
            "time": 195.42837600000001,
            "velocity": 0.5511811023622047
          },
          {
            "duration": 1.1428559999999948,
            "durationTicks": 1920,
            "midi": 51,
            "name": "D#3",
            "ticks": 333120,
            "time": 198.28551600000003,
            "velocity": 0.4566929133858268
          },
          {
            "duration": 0.22857119999997622,
            "durationTicks": 384,
            "midi": 50,
            "name": "D3",
            "ticks": 335040,
            "time": 199.42837200000002,
            "velocity": 0.4566929133858268
          },
          {
            "duration": 1.1428559999999948,
            "durationTicks": 1920,
            "midi": 51,
            "name": "D#3",
            "ticks": 336960,
            "time": 200.57122800000002,
            "velocity": 0.4566929133858268
          },
          {
            "duration": 0.22857119999997622,
            "durationTicks": 384,
            "midi": 50,
            "name": "D3",
            "ticks": 338880,
            "time": 201.714084,
            "velocity": 0.4566929133858268
          },
          {
            "duration": 0.11428559999998811,
            "durationTicks": 192,
            "midi": 50,
            "name": "D3",
            "ticks": 339840,
            "time": 202.285512,
            "velocity": 0.8267716535433071
          },
          {
            "duration": 0.11428560000001653,
            "durationTicks": 192,
            "midi": 50,
            "name": "D3",
            "ticks": 340080,
            "time": 202.428369,
            "velocity": 0.8267716535433071
          },
          {
            "duration": 0.11428559999998811,
            "durationTicks": 192,
            "midi": 50,
            "name": "D3",
            "ticks": 340320,
            "time": 202.57122600000002,
            "velocity": 0.8267716535433071
          },
          {
            "duration": 0.11428559999998811,
            "durationTicks": 192,
            "midi": 50,
            "name": "D3",
            "ticks": 340560,
            "time": 202.71408300000002,
            "velocity": 0.8267716535433071
          },
          {
            "duration": 0.11428559999998811,
            "durationTicks": 192,
            "midi": 50,
            "name": "D3",
            "ticks": 340800,
            "time": 202.85694,
            "velocity": 0.8267716535433071
          },
          {
            "duration": 0.11428559999998811,
            "durationTicks": 192,
            "midi": 50,
            "name": "D3",
            "ticks": 341040,
            "time": 202.99979700000003,
            "velocity": 0.8267716535433071
          },
          {
            "duration": 0.11428559999998811,
            "durationTicks": 192,
            "midi": 50,
            "name": "D3",
            "ticks": 341280,
            "time": 203.14265400000002,
            "velocity": 0.8267716535433071
          },
          {
            "duration": 0.11428559999998811,
            "durationTicks": 192,
            "midi": 50,
            "name": "D3",
            "ticks": 341520,
            "time": 203.285511,
            "velocity": 0.8267716535433071
          },
          {
            "duration": 0.11428560000001653,
            "durationTicks": 192,
            "midi": 55,
            "name": "G3",
            "ticks": 341760,
            "time": 203.428368,
            "velocity": 0.8267716535433071
          },
          {
            "duration": 0.11428559999998811,
            "durationTicks": 192,
            "midi": 55,
            "name": "G3",
            "ticks": 342000,
            "time": 203.57122500000003,
            "velocity": 0.8267716535433071
          },
          {
            "duration": 0.11428559999998811,
            "durationTicks": 192,
            "midi": 55,
            "name": "G3",
            "ticks": 342240,
            "time": 203.71408200000002,
            "velocity": 0.8267716535433071
          },
          {
            "duration": 0.11428559999998811,
            "durationTicks": 192,
            "midi": 55,
            "name": "G3",
            "ticks": 342480,
            "time": 203.856939,
            "velocity": 0.8267716535433071
          },
          {
            "duration": 0.11428560000001653,
            "durationTicks": 192,
            "midi": 51,
            "name": "D#3",
            "ticks": 342720,
            "time": 203.999796,
            "velocity": 0.8267716535433071
          },
          {
            "duration": 0.11428559999998811,
            "durationTicks": 192,
            "midi": 51,
            "name": "D#3",
            "ticks": 342960,
            "time": 204.14265300000002,
            "velocity": 0.8267716535433071
          },
          {
            "duration": 0.11428559999998811,
            "durationTicks": 192,
            "midi": 51,
            "name": "D#3",
            "ticks": 343200,
            "time": 204.28551000000002,
            "velocity": 0.8267716535433071
          },
          {
            "duration": 0.11428559999998811,
            "durationTicks": 192,
            "midi": 51,
            "name": "D#3",
            "ticks": 343440,
            "time": 204.428367,
            "velocity": 0.8267716535433071
          },
          {
            "duration": 0.11428559999998811,
            "durationTicks": 192,
            "midi": 53,
            "name": "F3",
            "ticks": 343680,
            "time": 204.57122400000003,
            "velocity": 0.8267716535433071
          },
          {
            "duration": 0.11428559999998811,
            "durationTicks": 192,
            "midi": 53,
            "name": "F3",
            "ticks": 343920,
            "time": 204.71408100000002,
            "velocity": 0.8267716535433071
          },
          {
            "duration": 0.11428559999998811,
            "durationTicks": 192,
            "midi": 53,
            "name": "F3",
            "ticks": 344160,
            "time": 204.856938,
            "velocity": 0.8267716535433071
          },
          {
            "duration": 0.11428560000001653,
            "durationTicks": 192,
            "midi": 53,
            "name": "F3",
            "ticks": 344400,
            "time": 204.999795,
            "velocity": 0.8267716535433071
          },
          {
            "duration": 0.11428559999998811,
            "durationTicks": 192,
            "midi": 41,
            "name": "F2",
            "ticks": 344640,
            "time": 205.14265200000003,
            "velocity": 0.8267716535433071
          },
          {
            "duration": 0.11428559999998811,
            "durationTicks": 192,
            "midi": 41,
            "name": "F2",
            "ticks": 344880,
            "time": 205.28550900000002,
            "velocity": 0.8267716535433071
          },
          {
            "duration": 0.11428559999998811,
            "durationTicks": 192,
            "midi": 41,
            "name": "F2",
            "ticks": 345120,
            "time": 205.428366,
            "velocity": 0.8267716535433071
          },
          {
            "duration": 0.11428560000001653,
            "durationTicks": 192,
            "midi": 41,
            "name": "F2",
            "ticks": 345360,
            "time": 205.571223,
            "velocity": 0.8267716535433071
          },
          {
            "duration": 0.22857119999997622,
            "durationTicks": 384,
            "midi": 46,
            "name": "A#2",
            "ticks": 345600,
            "time": 205.71408000000002,
            "velocity": 0.7244094488188977
          },
          {
            "duration": 1.1428559999999948,
            "durationTicks": 1920,
            "midi": 58,
            "name": "A#3",
            "ticks": 346560,
            "time": 206.28550800000002,
            "velocity": 0.4566929133858268
          },
          {
            "duration": 0.22857119999997622,
            "durationTicks": 384,
            "midi": 57,
            "name": "A3",
            "ticks": 348480,
            "time": 207.42836400000002,
            "velocity": 0.4566929133858268
          },
          {
            "duration": 1.1428559999999948,
            "durationTicks": 1920,
            "midi": 46,
            "name": "A#2",
            "ticks": 350400,
            "time": 208.57122,
            "velocity": 0.4566929133858268
          },
          {
            "duration": 0.22857120000000464,
            "durationTicks": 384,
            "midi": 45,
            "name": "A2",
            "ticks": 352320,
            "time": 209.714076,
            "velocity": 0.4566929133858268
          },
          {
            "duration": 0.11428559999998811,
            "durationTicks": 192,
            "midi": 50,
            "name": "D3",
            "ticks": 355200,
            "time": 211.42836000000003,
            "velocity": 0.8267716535433071
          },
          {
            "duration": 0.11428559999998811,
            "durationTicks": 192,
            "midi": 50,
            "name": "D3",
            "ticks": 355440,
            "time": 211.57121700000002,
            "velocity": 0.8267716535433071
          },
          {
            "duration": 0.11428559999998811,
            "durationTicks": 192,
            "midi": 50,
            "name": "D3",
            "ticks": 355680,
            "time": 211.714074,
            "velocity": 0.8267716535433071
          },
          {
            "duration": 0.11428559999998811,
            "durationTicks": 192,
            "midi": 50,
            "name": "D3",
            "ticks": 355920,
            "time": 211.85693100000003,
            "velocity": 0.8267716535433071
          },
          {
            "duration": 0.11428559999998811,
            "durationTicks": 192,
            "midi": 50,
            "name": "D3",
            "ticks": 356160,
            "time": 211.99978800000002,
            "velocity": 0.8267716535433071
          },
          {
            "duration": 0.11428559999998811,
            "durationTicks": 192,
            "midi": 50,
            "name": "D3",
            "ticks": 356400,
            "time": 212.14264500000002,
            "velocity": 0.8267716535433071
          },
          {
            "duration": 0.11428560000001653,
            "durationTicks": 192,
            "midi": 50,
            "name": "D3",
            "ticks": 356640,
            "time": 212.285502,
            "velocity": 0.8267716535433071
          },
          {
            "duration": 0.11428559999998811,
            "durationTicks": 192,
            "midi": 50,
            "name": "D3",
            "ticks": 356880,
            "time": 212.42835900000003,
            "velocity": 0.8267716535433071
          },
          {
            "duration": 0.11428559999998811,
            "durationTicks": 192,
            "midi": 55,
            "name": "G3",
            "ticks": 357120,
            "time": 212.57121600000002,
            "velocity": 0.8267716535433071
          },
          {
            "duration": 0.11428559999998811,
            "durationTicks": 192,
            "midi": 55,
            "name": "G3",
            "ticks": 357360,
            "time": 212.714073,
            "velocity": 0.8267716535433071
          },
          {
            "duration": 0.11428560000001653,
            "durationTicks": 192,
            "midi": 55,
            "name": "G3",
            "ticks": 357600,
            "time": 212.85693,
            "velocity": 0.8267716535433071
          },
          {
            "duration": 0.11428559999998811,
            "durationTicks": 192,
            "midi": 55,
            "name": "G3",
            "ticks": 357840,
            "time": 212.99978700000003,
            "velocity": 0.8267716535433071
          },
          {
            "duration": 0.11428559999998811,
            "durationTicks": 192,
            "midi": 51,
            "name": "D#3",
            "ticks": 358080,
            "time": 213.14264400000002,
            "velocity": 0.8267716535433071
          },
          {
            "duration": 0.11428559999998811,
            "durationTicks": 192,
            "midi": 51,
            "name": "D#3",
            "ticks": 358320,
            "time": 213.285501,
            "velocity": 0.8267716535433071
          },
          {
            "duration": 0.11428559999998811,
            "durationTicks": 192,
            "midi": 51,
            "name": "D#3",
            "ticks": 358560,
            "time": 213.42835800000003,
            "velocity": 0.8267716535433071
          },
          {
            "duration": 0.11428559999998811,
            "durationTicks": 192,
            "midi": 51,
            "name": "D#3",
            "ticks": 358800,
            "time": 213.57121500000002,
            "velocity": 0.8267716535433071
          },
          {
            "duration": 0.11428559999998811,
            "durationTicks": 192,
            "midi": 53,
            "name": "F3",
            "ticks": 359040,
            "time": 213.71407200000002,
            "velocity": 0.8267716535433071
          },
          {
            "duration": 0.11428560000001653,
            "durationTicks": 192,
            "midi": 53,
            "name": "F3",
            "ticks": 359280,
            "time": 213.856929,
            "velocity": 0.8267716535433071
          },
          {
            "duration": 0.11428559999998811,
            "durationTicks": 192,
            "midi": 53,
            "name": "F3",
            "ticks": 359520,
            "time": 213.99978600000003,
            "velocity": 0.8267716535433071
          },
          {
            "duration": 0.11428559999998811,
            "durationTicks": 192,
            "midi": 53,
            "name": "F3",
            "ticks": 359760,
            "time": 214.14264300000002,
            "velocity": 0.8267716535433071
          },
          {
            "duration": 0.11428559999998811,
            "durationTicks": 192,
            "midi": 41,
            "name": "F2",
            "ticks": 360000,
            "time": 214.2855,
            "velocity": 0.8267716535433071
          },
          {
            "duration": 0.11428560000001653,
            "durationTicks": 192,
            "midi": 41,
            "name": "F2",
            "ticks": 360240,
            "time": 214.428357,
            "velocity": 0.8267716535433071
          },
          {
            "duration": 0.11428559999998811,
            "durationTicks": 192,
            "midi": 41,
            "name": "F2",
            "ticks": 360480,
            "time": 214.57121400000003,
            "velocity": 0.8267716535433071
          },
          {
            "duration": 0.11428559999998811,
            "durationTicks": 192,
            "midi": 41,
            "name": "F2",
            "ticks": 360720,
            "time": 214.71407100000002,
            "velocity": 0.8267716535433071
          },
          {
            "duration": 0.4571424000000093,
            "durationTicks": 768,
            "midi": 46,
            "name": "A#2",
            "ticks": 360960,
            "time": 214.856928,
            "velocity": 0.8267716535433071
          },
          {
            "duration": 0.11428559999998811,
            "durationTicks": 192,
            "midi": 65,
            "name": "F4",
            "ticks": 362640,
            "time": 215.856927,
            "velocity": 0.8267716535433071
          },
          {
            "duration": 0.11428560000001653,
            "durationTicks": 192,
            "midi": 63,
            "name": "D#4",
            "ticks": 362880,
            "time": 215.999784,
            "velocity": 0.8267716535433071
          },
          {
            "duration": 0.11428559999998811,
            "durationTicks": 192,
            "midi": 62,
            "name": "D4",
            "ticks": 363120,
            "time": 216.14264100000003,
            "velocity": 0.8267716535433071
          },
          {
            "duration": 0.11428559999998811,
            "durationTicks": 192,
            "midi": 60,
            "name": "C4",
            "ticks": 363360,
            "time": 216.28549800000002,
            "velocity": 0.8267716535433071
          },
          {
            "duration": 0.11428559999998811,
            "durationTicks": 192,
            "midi": 58,
            "name": "A#3",
            "ticks": 363600,
            "time": 216.428355,
            "velocity": 0.8267716535433071
          },
          {
            "duration": 0.11428559999998811,
            "durationTicks": 192,
            "midi": 57,
            "name": "A3",
            "ticks": 363840,
            "time": 216.57121200000003,
            "velocity": 0.8267716535433071
          },
          {
            "duration": 0.11428559999998811,
            "durationTicks": 192,
            "midi": 55,
            "name": "G3",
            "ticks": 364080,
            "time": 216.71406900000002,
            "velocity": 0.8267716535433071
          },
          {
            "duration": 0.11428559999998811,
            "durationTicks": 192,
            "midi": 53,
            "name": "F3",
            "ticks": 364320,
            "time": 216.85692600000002,
            "velocity": 0.8267716535433071
          },
          {
            "duration": 0.11428560000001653,
            "durationTicks": 192,
            "midi": 51,
            "name": "D#3",
            "ticks": 364560,
            "time": 216.999783,
            "velocity": 0.8267716535433071
          },
          {
            "duration": 0.1999998000000005,
            "durationTicks": 336,
            "midi": 50,
            "name": "D3",
            "ticks": 364800,
            "time": 217.14264000000003,
            "velocity": 0.8267716535433071
          },
          {
            "duration": 0.19999980000002893,
            "durationTicks": 336,
            "midi": 50,
            "name": "D3",
            "ticks": 365280,
            "time": 217.428354,
            "velocity": 0.8267716535433071
          },
          {
            "duration": 0.1999998000000005,
            "durationTicks": 336,
            "midi": 51,
            "name": "D#3",
            "ticks": 365760,
            "time": 217.71406800000003,
            "velocity": 0.8267716535433071
          },
          {
            "duration": 0.19999980000002893,
            "durationTicks": 336,
            "midi": 53,
            "name": "F3",
            "ticks": 366240,
            "time": 217.999782,
            "velocity": 0.8267716535433071
          },
          {
            "duration": 0.11428559999998811,
            "durationTicks": 192,
            "midi": 58,
            "name": "A#3",
            "ticks": 366720,
            "time": 218.28549600000002,
            "velocity": 0.8267716535433071
          },
          {
            "duration": 0.11428559999998811,
            "durationTicks": 192,
            "midi": 53,
            "name": "F3",
            "ticks": 366960,
            "time": 218.42835300000002,
            "velocity": 0.8267716535433071
          },
          {
            "duration": 0.11428560000001653,
            "durationTicks": 192,
            "midi": 62,
            "name": "D4",
            "ticks": 367200,
            "time": 218.57121,
            "velocity": 0.8267716535433071
          },
          {
            "duration": 0.11428559999998811,
            "durationTicks": 192,
            "midi": 60,
            "name": "C4",
            "ticks": 367440,
            "time": 218.71406700000003,
            "velocity": 0.8267716535433071
          },
          {
            "duration": 0.11428559999998811,
            "durationTicks": 192,
            "midi": 58,
            "name": "A#3",
            "ticks": 367680,
            "time": 218.85692400000002,
            "velocity": 0.8267716535433071
          },
          {
            "duration": 0.11428559999998811,
            "durationTicks": 192,
            "midi": 57,
            "name": "A3",
            "ticks": 367920,
            "time": 218.999781,
            "velocity": 0.8267716535433071
          },
          {
            "duration": 0.11428560000001653,
            "durationTicks": 192,
            "midi": 55,
            "name": "G3",
            "ticks": 368160,
            "time": 219.142638,
            "velocity": 0.8267716535433071
          },
          {
            "duration": 0.11428559999998811,
            "durationTicks": 192,
            "midi": 53,
            "name": "F3",
            "ticks": 368400,
            "time": 219.28549500000003,
            "velocity": 0.8267716535433071
          },
          {
            "duration": 0.11428559999998811,
            "durationTicks": 192,
            "midi": 51,
            "name": "D#3",
            "ticks": 368640,
            "time": 219.42835200000002,
            "velocity": 0.8267716535433071
          },
          {
            "duration": 0.11428559999998811,
            "durationTicks": 192,
            "midi": 50,
            "name": "D3",
            "ticks": 368880,
            "time": 219.571209,
            "velocity": 0.8267716535433071
          },
          {
            "duration": 0.11428559999998811,
            "durationTicks": 192,
            "midi": 48,
            "name": "C3",
            "ticks": 369120,
            "time": 219.71406600000003,
            "velocity": 0.8267716535433071
          },
          {
            "duration": 0.11428559999998811,
            "durationTicks": 192,
            "midi": 46,
            "name": "A#2",
            "ticks": 369360,
            "time": 219.85692300000002,
            "velocity": 0.8267716535433071
          },
          {
            "duration": 0.11428559999998811,
            "durationTicks": 192,
            "midi": 45,
            "name": "A2",
            "ticks": 369600,
            "time": 219.99978000000002,
            "velocity": 0.8267716535433071
          },
          {
            "duration": 0.11428560000001653,
            "durationTicks": 192,
            "midi": 48,
            "name": "C3",
            "ticks": 369840,
            "time": 220.142637,
            "velocity": 0.8267716535433071
          },
          {
            "duration": 0.11428559999998811,
            "durationTicks": 192,
            "midi": 53,
            "name": "F3",
            "ticks": 370080,
            "time": 220.28549400000003,
            "velocity": 0.8267716535433071
          },
          {
            "duration": 0.11428559999998811,
            "durationTicks": 192,
            "midi": 51,
            "name": "D#3",
            "ticks": 370320,
            "time": 220.42835100000002,
            "velocity": 0.8267716535433071
          },
          {
            "duration": 0.19999980000002893,
            "durationTicks": 336,
            "midi": 50,
            "name": "D3",
            "ticks": 370560,
            "time": 220.571208,
            "velocity": 0.8267716535433071
          },
          {
            "duration": 0.1999998000000005,
            "durationTicks": 336,
            "midi": 50,
            "name": "D3",
            "ticks": 371040,
            "time": 220.85692200000003,
            "velocity": 0.8267716535433071
          },
          {
            "duration": 0.19999980000002893,
            "durationTicks": 336,
            "midi": 51,
            "name": "D#3",
            "ticks": 371520,
            "time": 221.142636,
            "velocity": 0.8267716535433071
          },
          {
            "duration": 0.1999998000000005,
            "durationTicks": 336,
            "midi": 53,
            "name": "F3",
            "ticks": 372000,
            "time": 221.42835000000002,
            "velocity": 0.8267716535433071
          },
          {
            "duration": 0.19999980000002893,
            "durationTicks": 336,
            "midi": 55,
            "name": "G3",
            "ticks": 372480,
            "time": 221.714064,
            "velocity": 0.8267716535433071
          },
          {
            "duration": 0.1999998000000005,
            "durationTicks": 336,
            "midi": 51,
            "name": "D#3",
            "ticks": 372960,
            "time": 221.99977800000002,
            "velocity": 0.8267716535433071
          },
          {
            "duration": 0.19999980000002893,
            "durationTicks": 336,
            "midi": 53,
            "name": "F3",
            "ticks": 373440,
            "time": 222.285492,
            "velocity": 0.8267716535433071
          },
          {
            "duration": 0.1999998000000005,
            "durationTicks": 336,
            "midi": 41,
            "name": "F2",
            "ticks": 373920,
            "time": 222.57120600000002,
            "velocity": 0.8267716535433071
          },
          {
            "duration": 0.22857119999997622,
            "durationTicks": 384,
            "midi": 46,
            "name": "A#2",
            "ticks": 374400,
            "time": 222.85692000000003,
            "velocity": 0.8267716535433071
          },
          {
            "duration": 0.22857119999997622,
            "durationTicks": 384,
            "midi": 53,
            "name": "F3",
            "ticks": 375360,
            "time": 223.42834800000003,
            "velocity": 0.8267716535433071
          },
          {
            "duration": 0.22857119999997622,
            "durationTicks": 384,
            "midi": 58,
            "name": "A#3",
            "ticks": 376320,
            "time": 223.99977600000003,
            "velocity": 0.8267716535433071
          },
          {
            "duration": 0.22857119999997622,
            "durationTicks": 384,
            "midi": 53,
            "name": "F3",
            "ticks": 377280,
            "time": 224.57120400000002,
            "velocity": 0.8267716535433071
          },
          {
            "duration": 0.22857119999997622,
            "durationTicks": 384,
            "midi": 58,
            "name": "A#3",
            "ticks": 378240,
            "time": 225.14263200000002,
            "velocity": 0.8267716535433071
          },
          {
            "duration": 0.22857119999997622,
            "durationTicks": 384,
            "midi": 53,
            "name": "F3",
            "ticks": 379200,
            "time": 225.71406000000002,
            "velocity": 0.8267716535433071
          },
          {
            "duration": 0.21428550000001678,
            "durationTicks": 360,
            "midi": 58,
            "name": "A#3",
            "ticks": 380160,
            "time": 226.28548800000002,
            "velocity": 0.8267716535433071
          },
          {
            "duration": 0.21428549999998836,
            "durationTicks": 360,
            "midi": 53,
            "name": "F3",
            "ticks": 380640,
            "time": 226.57120200000003,
            "velocity": 0.8267716535433071
          },
          {
            "duration": 0.21428550000001678,
            "durationTicks": 360,
            "midi": 58,
            "name": "A#3",
            "ticks": 381120,
            "time": 226.856916,
            "velocity": 0.8267716535433071
          },
          {
            "duration": 0.21428549999998836,
            "durationTicks": 360,
            "midi": 53,
            "name": "F3",
            "ticks": 381600,
            "time": 227.14263000000003,
            "velocity": 0.8267716535433071
          },
          {
            "duration": 0.22857120000000464,
            "durationTicks": 384,
            "midi": 58,
            "name": "A#3",
            "ticks": 382080,
            "time": 227.428344,
            "velocity": 0.8267716535433071
          },
          {
            "duration": 0.22857119999997622,
            "durationTicks": 384,
            "midi": 57,
            "name": "A3",
            "ticks": 384000,
            "time": 228.57120000000003,
            "velocity": 0.8267716535433071
          },
          {
            "duration": 0.22857119999997622,
            "durationTicks": 384,
            "midi": 55,
            "name": "G3",
            "ticks": 385920,
            "time": 229.71405600000003,
            "velocity": 0.8267716535433071
          },
          {
            "duration": 0.22857119999997622,
            "durationTicks": 384,
            "midi": 53,
            "name": "F3",
            "ticks": 386880,
            "time": 230.28548400000003,
            "velocity": 0.8267716535433071
          },
          {
            "duration": 0.22857120000000464,
            "durationTicks": 384,
            "midi": 42,
            "name": "F#2",
            "ticks": 393600,
            "time": 234.28548,
            "velocity": 0.5511811023622047
          },
          {
            "duration": 0.22857119999997622,
            "durationTicks": 384,
            "midi": 54,
            "name": "F#3",
            "ticks": 395520,
            "time": 235.42833600000003,
            "velocity": 0.5511811023622047
          },
          {
            "duration": 0.22857119999997622,
            "durationTicks": 384,
            "midi": 42,
            "name": "F#2",
            "ticks": 397440,
            "time": 236.57119200000002,
            "velocity": 0.5511811023622047
          },
          {
            "duration": 0.22857119999997622,
            "durationTicks": 384,
            "midi": 54,
            "name": "F#3",
            "ticks": 399360,
            "time": 237.71404800000002,
            "velocity": 0.5511811023622047
          },
          {
            "duration": 0.22857120000000464,
            "durationTicks": 384,
            "midi": 41,
            "name": "F2",
            "ticks": 401280,
            "time": 238.85690400000001,
            "velocity": 0.5511811023622047
          },
          {
            "duration": 0.22857120000000464,
            "durationTicks": 384,
            "midi": 53,
            "name": "F3",
            "ticks": 403200,
            "time": 239.99976,
            "velocity": 0.5511811023622047
          },
          {
            "duration": 0.22857119999997622,
            "durationTicks": 384,
            "midi": 40,
            "name": "E2",
            "ticks": 405120,
            "time": 241.14261600000003,
            "velocity": 0.5511811023622047
          },
          {
            "duration": 0.22857119999997622,
            "durationTicks": 384,
            "midi": 52,
            "name": "E3",
            "ticks": 407040,
            "time": 242.28547200000003,
            "velocity": 0.5511811023622047
          },
          {
            "duration": 0.22857119999997622,
            "durationTicks": 384,
            "midi": 39,
            "name": "D#2",
            "ticks": 408960,
            "time": 243.42832800000002,
            "velocity": 0.5511811023622047
          },
          {
            "duration": 0.22857120000000464,
            "durationTicks": 384,
            "midi": 47,
            "name": "B2",
            "ticks": 410880,
            "time": 244.57118400000002,
            "velocity": 0.5511811023622047
          },
          {
            "duration": 0.14285699999999224,
            "durationTicks": 240,
            "midi": 60,
            "name": "C4",
            "ticks": 412320,
            "time": 245.42832600000003,
            "velocity": 0.8267716535433071
          },
          {
            "duration": 0.11428559999998811,
            "durationTicks": 192,
            "midi": 59,
            "name": "B3",
            "ticks": 412560,
            "time": 245.57118300000002,
            "velocity": 0.8267716535433071
          },
          {
            "duration": 0.22857120000000464,
            "durationTicks": 384,
            "midi": 59,
            "name": "B3",
            "ticks": 412800,
            "time": 245.71404,
            "velocity": 0.8267716535433071
          },
          {
            "duration": 0.14285699999999224,
            "durationTicks": 240,
            "midi": 60,
            "name": "C4",
            "ticks": 413280,
            "time": 245.99975400000002,
            "velocity": 0.8267716535433071
          },
          {
            "duration": 0.11428559999998811,
            "durationTicks": 192,
            "midi": 59,
            "name": "B3",
            "ticks": 413520,
            "time": 246.14261100000002,
            "velocity": 0.8267716535433071
          },
          {
            "duration": 0.22857120000000464,
            "durationTicks": 384,
            "midi": 59,
            "name": "B3",
            "ticks": 413760,
            "time": 246.285468,
            "velocity": 0.8267716535433071
          },
          {
            "duration": 0.14285699999999224,
            "durationTicks": 240,
            "midi": 60,
            "name": "C4",
            "ticks": 414240,
            "time": 246.57118200000002,
            "velocity": 0.8267716535433071
          },
          {
            "duration": 0.11428559999998811,
            "durationTicks": 192,
            "midi": 59,
            "name": "B3",
            "ticks": 414480,
            "time": 246.714039,
            "velocity": 0.8267716535433071
          },
          {
            "duration": 0.2857140000000129,
            "durationTicks": 480,
            "midi": 59,
            "name": "B3",
            "ticks": 414720,
            "time": 246.856896,
            "velocity": 0.8267716535433071
          },
          {
            "duration": 0.22857119999997622,
            "durationTicks": 384,
            "midi": 67,
            "name": "G4",
            "ticks": 415200,
            "time": 247.14261000000002,
            "velocity": 0.8267716535433071
          },
          {
            "duration": 0.14285699999999224,
            "durationTicks": 240,
            "midi": 67,
            "name": "G4",
            "ticks": 416160,
            "time": 247.71403800000002,
            "velocity": 0.8267716535433071
          },
          {
            "duration": 0.11428560000001653,
            "durationTicks": 192,
            "midi": 66,
            "name": "F#4",
            "ticks": 416400,
            "time": 247.856895,
            "velocity": 0.8267716535433071
          },
          {
            "duration": 0.22857119999997622,
            "durationTicks": 384,
            "midi": 64,
            "name": "E4",
            "ticks": 416640,
            "time": 247.99975200000003,
            "velocity": 0.8267716535433071
          },
          {
            "duration": 0.14285700000002066,
            "durationTicks": 240,
            "midi": 64,
            "name": "E4",
            "ticks": 417120,
            "time": 248.285466,
            "velocity": 0.8267716535433071
          },
          {
            "duration": 0.11428559999998811,
            "durationTicks": 192,
            "midi": 62,
            "name": "D4",
            "ticks": 417360,
            "time": 248.42832300000003,
            "velocity": 0.8267716535433071
          },
          {
            "duration": 0.22857119999997622,
            "durationTicks": 384,
            "midi": 60,
            "name": "C4",
            "ticks": 417600,
            "time": 248.57118000000003,
            "velocity": 0.8267716535433071
          },
          {
            "duration": 0.14285700000002066,
            "durationTicks": 240,
            "midi": 60,
            "name": "C4",
            "ticks": 418080,
            "time": 248.856894,
            "velocity": 0.8267716535433071
          },
          {
            "duration": 0.11428559999998811,
            "durationTicks": 192,
            "midi": 59,
            "name": "B3",
            "ticks": 418320,
            "time": 248.99975100000003,
            "velocity": 0.8267716535433071
          },
          {
            "duration": 0.08571419999998398,
            "durationTicks": 144,
            "midi": 57,
            "name": "A3",
            "ticks": 418560,
            "time": 249.14260800000002,
            "velocity": 0.7244094488188977
          },
          {
            "duration": 0.08571419999998398,
            "durationTicks": 144,
            "midi": 59,
            "name": "B3",
            "ticks": 418800,
            "time": 249.28546500000002,
            "velocity": 0.7244094488188977
          },
          {
            "duration": 0.0857142000000124,
            "durationTicks": 144,
            "midi": 60,
            "name": "C4",
            "ticks": 419040,
            "time": 249.428322,
            "velocity": 0.7244094488188977
          },
          {
            "duration": 0.08571419999998398,
            "durationTicks": 144,
            "midi": 59,
            "name": "B3",
            "ticks": 419280,
            "time": 249.57117900000003,
            "velocity": 0.7244094488188977
          },
          {
            "duration": 0.08571419999998398,
            "durationTicks": 144,
            "midi": 57,
            "name": "A3",
            "ticks": 419520,
            "time": 249.71403600000002,
            "velocity": 0.7244094488188977
          },
          {
            "duration": 0.08571419999998398,
            "durationTicks": 144,
            "midi": 58,
            "name": "A#3",
            "ticks": 419760,
            "time": 249.856893,
            "velocity": 0.7244094488188977
          },
          {
            "duration": 0.08571419999998398,
            "durationTicks": 144,
            "midi": 55,
            "name": "G3",
            "ticks": 420000,
            "time": 249.99975000000003,
            "velocity": 0.7244094488188977
          },
          {
            "duration": 0.08571419999998398,
            "durationTicks": 144,
            "midi": 57,
            "name": "A3",
            "ticks": 420240,
            "time": 250.14260700000003,
            "velocity": 0.7244094488188977
          },
          {
            "duration": 0.08571419999998398,
            "durationTicks": 144,
            "midi": 53,
            "name": "F3",
            "ticks": 420480,
            "time": 250.28546400000002,
            "velocity": 0.7244094488188977
          },
          {
            "duration": 0.08571419999998398,
            "durationTicks": 144,
            "midi": 57,
            "name": "A3",
            "ticks": 420720,
            "time": 250.428321,
            "velocity": 0.7244094488188977
          },
          {
            "duration": 0.08571419999998398,
            "durationTicks": 144,
            "midi": 62,
            "name": "D4",
            "ticks": 420960,
            "time": 250.57117800000003,
            "velocity": 0.7244094488188977
          },
          {
            "duration": 0.08571419999998398,
            "durationTicks": 144,
            "midi": 53,
            "name": "F3",
            "ticks": 421200,
            "time": 250.71403500000002,
            "velocity": 0.7244094488188977
          },
          {
            "duration": 0.08571419999998398,
            "durationTicks": 144,
            "midi": 52,
            "name": "E3",
            "ticks": 421440,
            "time": 250.85689200000002,
            "velocity": 0.7244094488188977
          },
          {
            "duration": 0.0857142000000124,
            "durationTicks": 144,
            "midi": 55,
            "name": "G3",
            "ticks": 421680,
            "time": 250.999749,
            "velocity": 0.7244094488188977
          },
          {
            "duration": 0.08571419999998398,
            "durationTicks": 144,
            "midi": 61,
            "name": "C#4",
            "ticks": 421920,
            "time": 251.14260600000003,
            "velocity": 0.7244094488188977
          },
          {
            "duration": 0.08571419999998398,
            "durationTicks": 144,
            "midi": 52,
            "name": "E3",
            "ticks": 422160,
            "time": 251.28546300000002,
            "velocity": 0.7244094488188977
          },
          {
            "duration": 0.08571419999998398,
            "durationTicks": 144,
            "midi": 50,
            "name": "D3",
            "ticks": 422400,
            "time": 251.42832,
            "velocity": 0.7244094488188977
          },
          {
            "duration": 0.08571419999998398,
            "durationTicks": 144,
            "midi": 45,
            "name": "A2",
            "ticks": 422640,
            "time": 251.57117700000003,
            "velocity": 0.7244094488188977
          },
          {
            "duration": 0.08571419999998398,
            "durationTicks": 144,
            "midi": 47,
            "name": "B2",
            "ticks": 422880,
            "time": 251.71403400000003,
            "velocity": 0.7244094488188977
          },
          {
            "duration": 0.08571419999998398,
            "durationTicks": 144,
            "midi": 49,
            "name": "C#3",
            "ticks": 423120,
            "time": 251.85689100000002,
            "velocity": 0.7244094488188977
          },
          {
            "duration": 0.08571419999998398,
            "durationTicks": 144,
            "midi": 50,
            "name": "D3",
            "ticks": 423360,
            "time": 251.999748,
            "velocity": 0.7244094488188977
          },
          {
            "duration": 0.08571419999998398,
            "durationTicks": 144,
            "midi": 45,
            "name": "A2",
            "ticks": 423600,
            "time": 252.14260500000003,
            "velocity": 0.7244094488188977
          },
          {
            "duration": 0.08571419999998398,
            "durationTicks": 144,
            "midi": 50,
            "name": "D3",
            "ticks": 423840,
            "time": 252.28546200000002,
            "velocity": 0.7244094488188977
          },
          {
            "duration": 0.08571419999998398,
            "durationTicks": 144,
            "midi": 52,
            "name": "E3",
            "ticks": 424080,
            "time": 252.42831900000002,
            "velocity": 0.7244094488188977
          },
          {
            "duration": 0.0857142000000124,
            "durationTicks": 144,
            "midi": 53,
            "name": "F3",
            "ticks": 424320,
            "time": 252.571176,
            "velocity": 0.7244094488188977
          },
          {
            "duration": 0.08571419999998398,
            "durationTicks": 144,
            "midi": 50,
            "name": "D3",
            "ticks": 424560,
            "time": 252.71403300000003,
            "velocity": 0.7244094488188977
          },
          {
            "duration": 0.08571419999998398,
            "durationTicks": 144,
            "midi": 52,
            "name": "E3",
            "ticks": 424800,
            "time": 252.85689000000002,
            "velocity": 0.7244094488188977
          },
          {
            "duration": 0.08571419999998398,
            "durationTicks": 144,
            "midi": 54,
            "name": "F#3",
            "ticks": 425040,
            "time": 252.999747,
            "velocity": 0.7244094488188977
          },
          {
            "duration": 0.08571419999998398,
            "durationTicks": 144,
            "midi": 55,
            "name": "G3",
            "ticks": 425280,
            "time": 253.14260400000003,
            "velocity": 0.7244094488188977
          },
          {
            "duration": 0.08571419999998398,
            "durationTicks": 144,
            "midi": 50,
            "name": "D3",
            "ticks": 425520,
            "time": 253.28546100000003,
            "velocity": 0.7244094488188977
          },
          {
            "duration": 0.08571419999998398,
            "durationTicks": 144,
            "midi": 54,
            "name": "F#3",
            "ticks": 425760,
            "time": 253.42831800000002,
            "velocity": 0.7244094488188977
          },
          {
            "duration": 0.08571419999998398,
            "durationTicks": 144,
            "midi": 57,
            "name": "A3",
            "ticks": 426000,
            "time": 253.571175,
            "velocity": 0.7244094488188977
          },
          {
            "duration": 0.1999998000000005,
            "durationTicks": 336,
            "midi": 58,
            "name": "A#3",
            "ticks": 426240,
            "time": 253.71403200000003,
            "velocity": 0.8267716535433071
          },
          {
            "duration": 0.19999980000002893,
            "durationTicks": 336,
            "midi": 43,
            "name": "G2",
            "ticks": 426720,
            "time": 253.99974600000002,
            "velocity": 0.8267716535433071
          },
          {
            "duration": 0.14285700000002066,
            "durationTicks": 240,
            "midi": 57,
            "name": "A3",
            "ticks": 427680,
            "time": 254.571174,
            "velocity": 0.8267716535433071
          },
          {
            "duration": 0.11428559999998811,
            "durationTicks": 192,
            "midi": 55,
            "name": "G3",
            "ticks": 427920,
            "time": 254.71403100000003,
            "velocity": 0.8267716535433071
          },
          {
            "duration": 0.22857119999997622,
            "durationTicks": 384,
            "midi": 55,
            "name": "G3",
            "ticks": 428160,
            "time": 254.85688800000003,
            "velocity": 0.8267716535433071
          },
          {
            "duration": 0.14285700000002066,
            "durationTicks": 240,
            "midi": 57,
            "name": "A3",
            "ticks": 428640,
            "time": 255.142602,
            "velocity": 0.8267716535433071
          },
          {
            "duration": 0.11428559999998811,
            "durationTicks": 192,
            "midi": 55,
            "name": "G3",
            "ticks": 428880,
            "time": 255.28545900000003,
            "velocity": 0.8267716535433071
          },
          {
            "duration": 0.22857119999997622,
            "durationTicks": 384,
            "midi": 55,
            "name": "G3",
            "ticks": 429120,
            "time": 255.42831600000002,
            "velocity": 0.8267716535433071
          },
          {
            "duration": 0.14285700000002066,
            "durationTicks": 240,
            "midi": 57,
            "name": "A3",
            "ticks": 429600,
            "time": 255.71403,
            "velocity": 0.8267716535433071
          },
          {
            "duration": 0.11428559999998811,
            "durationTicks": 192,
            "midi": 55,
            "name": "G3",
            "ticks": 429840,
            "time": 255.85688700000003,
            "velocity": 0.8267716535433071
          },
          {
            "duration": 0.2857139999999845,
            "durationTicks": 480,
            "midi": 55,
            "name": "G3",
            "ticks": 430080,
            "time": 255.99974400000002,
            "velocity": 0.8267716535433071
          },
          {
            "duration": 0.22857119999997622,
            "durationTicks": 384,
            "midi": 64,
            "name": "E4",
            "ticks": 430560,
            "time": 256.285458,
            "velocity": 0.8267716535433071
          },
          {
            "duration": 0.14285699999999224,
            "durationTicks": 240,
            "midi": 64,
            "name": "E4",
            "ticks": 431520,
            "time": 256.85688600000003,
            "velocity": 0.8267716535433071
          },
          {
            "duration": 0.11428560000001653,
            "durationTicks": 192,
            "midi": 62,
            "name": "D4",
            "ticks": 431760,
            "time": 256.999743,
            "velocity": 0.8267716535433071
          },
          {
            "duration": 0.22857119999997622,
            "durationTicks": 384,
            "midi": 60,
            "name": "C4",
            "ticks": 432000,
            "time": 257.1426,
            "velocity": 0.8267716535433071
          },
          {
            "duration": 0.14285700000004908,
            "durationTicks": 240,
            "midi": 60,
            "name": "C4",
            "ticks": 432480,
            "time": 257.428314,
            "velocity": 0.8267716535433071
          },
          {
            "duration": 0.11428559999995969,
            "durationTicks": 192,
            "midi": 58,
            "name": "A#3",
            "ticks": 432720,
            "time": 257.57117100000005,
            "velocity": 0.8267716535433071
          },
          {
            "duration": 0.22857119999997622,
            "durationTicks": 384,
            "midi": 57,
            "name": "A3",
            "ticks": 432960,
            "time": 257.71402800000004,
            "velocity": 0.8267716535433071
          },
          {
            "duration": 0.14285699999999224,
            "durationTicks": 240,
            "midi": 57,
            "name": "A3",
            "ticks": 433440,
            "time": 257.999742,
            "velocity": 0.8267716535433071
          },
          {
            "duration": 0.11428560000001653,
            "durationTicks": 192,
            "midi": 55,
            "name": "G3",
            "ticks": 433680,
            "time": 258.142599,
            "velocity": 0.8267716535433071
          },
          {
            "duration": 0.08571419999998398,
            "durationTicks": 144,
            "midi": 53,
            "name": "F3",
            "ticks": 433920,
            "time": 258.285456,
            "velocity": 0.8267716535433071
          },
          {
            "duration": 0.08571419999998398,
            "durationTicks": 144,
            "midi": 55,
            "name": "G3",
            "ticks": 434160,
            "time": 258.428313,
            "velocity": 0.8267716535433071
          },
          {
            "duration": 0.08571420000004082,
            "durationTicks": 144,
            "midi": 57,
            "name": "A3",
            "ticks": 434400,
            "time": 258.57117,
            "velocity": 0.8267716535433071
          },
          {
            "duration": 0.08571419999998398,
            "durationTicks": 144,
            "midi": 55,
            "name": "G3",
            "ticks": 434640,
            "time": 258.71402700000004,
            "velocity": 0.8267716535433071
          },
          {
            "duration": 0.08571419999998398,
            "durationTicks": 144,
            "midi": 53,
            "name": "F3",
            "ticks": 434880,
            "time": 258.85688400000004,
            "velocity": 0.8267716535433071
          },
          {
            "duration": 0.08571419999998398,
            "durationTicks": 144,
            "midi": 55,
            "name": "G3",
            "ticks": 435120,
            "time": 258.99974100000003,
            "velocity": 0.8267716535433071
          },
          {
            "duration": 0.08571419999998398,
            "durationTicks": 144,
            "midi": 51,
            "name": "D#3",
            "ticks": 435360,
            "time": 259.142598,
            "velocity": 0.8267716535433071
          },
          {
            "duration": 0.08571419999998398,
            "durationTicks": 144,
            "midi": 53,
            "name": "F3",
            "ticks": 435600,
            "time": 259.285455,
            "velocity": 0.8267716535433071
          },
          {
            "duration": 0.08571419999998398,
            "durationTicks": 144,
            "midi": 50,
            "name": "D3",
            "ticks": 435840,
            "time": 259.428312,
            "velocity": 0.8267716535433071
          },
          {
            "duration": 0.08571419999998398,
            "durationTicks": 144,
            "midi": 53,
            "name": "F3",
            "ticks": 436080,
            "time": 259.571169,
            "velocity": 0.8267716535433071
          },
          {
            "duration": 0.08571419999998398,
            "durationTicks": 144,
            "midi": 58,
            "name": "A#3",
            "ticks": 436320,
            "time": 259.71402600000005,
            "velocity": 0.8267716535433071
          },
          {
            "duration": 0.08571419999998398,
            "durationTicks": 144,
            "midi": 50,
            "name": "D3",
            "ticks": 436560,
            "time": 259.85688300000004,
            "velocity": 0.8267716535433071
          },
          {
            "duration": 0.08571419999998398,
            "durationTicks": 144,
            "midi": 48,
            "name": "C3",
            "ticks": 436800,
            "time": 259.99974000000003,
            "velocity": 0.8267716535433071
          },
          {
            "duration": 0.08571419999998398,
            "durationTicks": 144,
            "midi": 51,
            "name": "D#3",
            "ticks": 437040,
            "time": 260.142597,
            "velocity": 0.8267716535433071
          },
          {
            "duration": 0.08571419999998398,
            "durationTicks": 144,
            "midi": 57,
            "name": "A3",
            "ticks": 437280,
            "time": 260.285454,
            "velocity": 0.8267716535433071
          },
          {
            "duration": 0.08571419999998398,
            "durationTicks": 144,
            "midi": 48,
            "name": "C3",
            "ticks": 437520,
            "time": 260.428311,
            "velocity": 0.8267716535433071
          },
          {
            "duration": 0.08571419999998398,
            "durationTicks": 144,
            "midi": 46,
            "name": "A#2",
            "ticks": 437760,
            "time": 260.571168,
            "velocity": 0.8267716535433071
          },
          {
            "duration": 0.08571419999998398,
            "durationTicks": 144,
            "midi": 41,
            "name": "F2",
            "ticks": 438000,
            "time": 260.71402500000005,
            "velocity": 0.8267716535433071
          },
          {
            "duration": 0.08571419999998398,
            "durationTicks": 144,
            "midi": 43,
            "name": "G2",
            "ticks": 438240,
            "time": 260.85688200000004,
            "velocity": 0.8267716535433071
          },
          {
            "duration": 0.08571419999998398,
            "durationTicks": 144,
            "midi": 45,
            "name": "A2",
            "ticks": 438480,
            "time": 260.99973900000003,
            "velocity": 0.8267716535433071
          },
          {
            "duration": 0.08571419999998398,
            "durationTicks": 144,
            "midi": 46,
            "name": "A#2",
            "ticks": 438720,
            "time": 261.142596,
            "velocity": 0.8267716535433071
          },
          {
            "duration": 0.08571419999998398,
            "durationTicks": 144,
            "midi": 45,
            "name": "A2",
            "ticks": 438960,
            "time": 261.285453,
            "velocity": 0.8267716535433071
          },
          {
            "duration": 0.08571419999998398,
            "durationTicks": 144,
            "midi": 46,
            "name": "A#2",
            "ticks": 439200,
            "time": 261.42831,
            "velocity": 0.8267716535433071
          },
          {
            "duration": 0.08571419999998398,
            "durationTicks": 144,
            "midi": 48,
            "name": "C3",
            "ticks": 439440,
            "time": 261.571167,
            "velocity": 0.8267716535433071
          },
          {
            "duration": 0.08571420000004082,
            "durationTicks": 144,
            "midi": 50,
            "name": "D3",
            "ticks": 439680,
            "time": 261.714024,
            "velocity": 0.8267716535433071
          },
          {
            "duration": 0.08571419999998398,
            "durationTicks": 144,
            "midi": 46,
            "name": "A#2",
            "ticks": 439920,
            "time": 261.85688100000004,
            "velocity": 0.8267716535433071
          },
          {
            "duration": 0.08571419999998398,
            "durationTicks": 144,
            "midi": 48,
            "name": "C3",
            "ticks": 440160,
            "time": 261.99973800000004,
            "velocity": 0.8267716535433071
          },
          {
            "duration": 0.08571419999998398,
            "durationTicks": 144,
            "midi": 50,
            "name": "D3",
            "ticks": 440400,
            "time": 262.14259500000003,
            "velocity": 0.8267716535433071
          },
          {
            "duration": 0.08571419999998398,
            "durationTicks": 144,
            "midi": 51,
            "name": "D#3",
            "ticks": 440640,
            "time": 262.285452,
            "velocity": 0.8267716535433071
          },
          {
            "duration": 0.08571419999998398,
            "durationTicks": 144,
            "midi": 50,
            "name": "D3",
            "ticks": 440880,
            "time": 262.428309,
            "velocity": 0.8267716535433071
          },
          {
            "duration": 0.08571419999998398,
            "durationTicks": 144,
            "midi": 51,
            "name": "D#3",
            "ticks": 441120,
            "time": 262.571166,
            "velocity": 0.8267716535433071
          },
          {
            "duration": 0.08571419999998398,
            "durationTicks": 144,
            "midi": 53,
            "name": "F3",
            "ticks": 441360,
            "time": 262.714023,
            "velocity": 0.8267716535433071
          },
          {
            "duration": 0.08571419999998398,
            "durationTicks": 144,
            "midi": 55,
            "name": "G3",
            "ticks": 441600,
            "time": 262.85688000000005,
            "velocity": 0.8267716535433071
          },
          {
            "duration": 0.08571419999998398,
            "durationTicks": 144,
            "midi": 51,
            "name": "D#3",
            "ticks": 441840,
            "time": 262.99973700000004,
            "velocity": 0.8267716535433071
          },
          {
            "duration": 0.08571419999998398,
            "durationTicks": 144,
            "midi": 53,
            "name": "F3",
            "ticks": 442080,
            "time": 263.14259400000003,
            "velocity": 0.8267716535433071
          },
          {
            "duration": 0.08571419999998398,
            "durationTicks": 144,
            "midi": 55,
            "name": "G3",
            "ticks": 442320,
            "time": 263.285451,
            "velocity": 0.8267716535433071
          },
          {
            "duration": 0.08571419999998398,
            "durationTicks": 144,
            "midi": 57,
            "name": "A3",
            "ticks": 442560,
            "time": 263.428308,
            "velocity": 0.8267716535433071
          },
          {
            "duration": 0.08571419999998398,
            "durationTicks": 144,
            "midi": 55,
            "name": "G3",
            "ticks": 442800,
            "time": 263.571165,
            "velocity": 0.8267716535433071
          },
          {
            "duration": 0.08571419999998398,
            "durationTicks": 144,
            "midi": 57,
            "name": "A3",
            "ticks": 443040,
            "time": 263.714022,
            "velocity": 0.8267716535433071
          },
          {
            "duration": 0.08571419999998398,
            "durationTicks": 144,
            "midi": 58,
            "name": "A#3",
            "ticks": 443280,
            "time": 263.85687900000005,
            "velocity": 0.8267716535433071
          },
          {
            "duration": 0.08571419999998398,
            "durationTicks": 144,
            "midi": 60,
            "name": "C4",
            "ticks": 443520,
            "time": 263.99973600000004,
            "velocity": 0.8267716535433071
          },
          {
            "duration": 0.08571419999998398,
            "durationTicks": 144,
            "midi": 57,
            "name": "A3",
            "ticks": 443760,
            "time": 264.14259300000003,
            "velocity": 0.8267716535433071
          },
          {
            "duration": 0.08571419999998398,
            "durationTicks": 144,
            "midi": 58,
            "name": "A#3",
            "ticks": 444000,
            "time": 264.28545,
            "velocity": 0.8267716535433071
          },
          {
            "duration": 0.08571419999998398,
            "durationTicks": 144,
            "midi": 60,
            "name": "C4",
            "ticks": 444240,
            "time": 264.428307,
            "velocity": 0.8267716535433071
          },
          {
            "duration": 0.08571419999998398,
            "durationTicks": 144,
            "midi": 62,
            "name": "D4",
            "ticks": 444480,
            "time": 264.571164,
            "velocity": 0.8267716535433071
          },
          {
            "duration": 0.08571419999998398,
            "durationTicks": 144,
            "midi": 61,
            "name": "C#4",
            "ticks": 444720,
            "time": 264.714021,
            "velocity": 0.8267716535433071
          },
          {
            "duration": 0.08571420000004082,
            "durationTicks": 144,
            "midi": 62,
            "name": "D4",
            "ticks": 444960,
            "time": 264.856878,
            "velocity": 0.8267716535433071
          },
          {
            "duration": 0.08571419999998398,
            "durationTicks": 144,
            "midi": 64,
            "name": "E4",
            "ticks": 445200,
            "time": 264.99973500000004,
            "velocity": 0.8267716535433071
          },
          {
            "duration": 0.08571419999998398,
            "durationTicks": 144,
            "midi": 66,
            "name": "F#4",
            "ticks": 445440,
            "time": 265.14259200000004,
            "velocity": 0.8267716535433071
          },
          {
            "duration": 0.08571419999998398,
            "durationTicks": 144,
            "midi": 62,
            "name": "D4",
            "ticks": 445680,
            "time": 265.285449,
            "velocity": 0.8267716535433071
          },
          {
            "duration": 0.08571419999998398,
            "durationTicks": 144,
            "midi": 64,
            "name": "E4",
            "ticks": 445920,
            "time": 265.428306,
            "velocity": 0.8267716535433071
          },
          {
            "duration": 0.08571419999998398,
            "durationTicks": 144,
            "midi": 66,
            "name": "F#4",
            "ticks": 446160,
            "time": 265.571163,
            "velocity": 0.8267716535433071
          },
          {
            "duration": 0.08571419999998398,
            "durationTicks": 144,
            "midi": 67,
            "name": "G4",
            "ticks": 446400,
            "time": 265.71402,
            "velocity": 0.8267716535433071
          },
          {
            "duration": 0.08571419999998398,
            "durationTicks": 144,
            "midi": 63,
            "name": "D#4",
            "ticks": 446640,
            "time": 265.856877,
            "velocity": 0.8267716535433071
          },
          {
            "duration": 0.08571419999998398,
            "durationTicks": 144,
            "midi": 62,
            "name": "D4",
            "ticks": 446880,
            "time": 265.99973400000005,
            "velocity": 0.8267716535433071
          },
          {
            "duration": 0.08571419999998398,
            "durationTicks": 144,
            "midi": 60,
            "name": "C4",
            "ticks": 447120,
            "time": 266.14259100000004,
            "velocity": 0.8267716535433071
          },
          {
            "duration": 0.08571419999998398,
            "durationTicks": 144,
            "midi": 58,
            "name": "A#3",
            "ticks": 447360,
            "time": 266.28544800000003,
            "velocity": 0.8267716535433071
          },
          {
            "duration": 0.08571419999998398,
            "durationTicks": 144,
            "midi": 60,
            "name": "C4",
            "ticks": 447600,
            "time": 266.428305,
            "velocity": 0.8267716535433071
          },
          {
            "duration": 0.08571419999998398,
            "durationTicks": 144,
            "midi": 58,
            "name": "A#3",
            "ticks": 447840,
            "time": 266.571162,
            "velocity": 0.8267716535433071
          },
          {
            "duration": 0.08571419999998398,
            "durationTicks": 144,
            "midi": 57,
            "name": "A3",
            "ticks": 448080,
            "time": 266.714019,
            "velocity": 0.8267716535433071
          },
          {
            "duration": 0.08571419999998398,
            "durationTicks": 144,
            "midi": 55,
            "name": "G3",
            "ticks": 448320,
            "time": 266.856876,
            "velocity": 0.8267716535433071
          },
          {
            "duration": 0.08571419999998398,
            "durationTicks": 144,
            "midi": 53,
            "name": "F3",
            "ticks": 448560,
            "time": 266.99973300000005,
            "velocity": 0.8267716535433071
          },
          {
            "duration": 0.08571419999998398,
            "durationTicks": 144,
            "midi": 55,
            "name": "G3",
            "ticks": 448800,
            "time": 267.14259000000004,
            "velocity": 0.8267716535433071
          },
          {
            "duration": 0.08571419999998398,
            "durationTicks": 144,
            "midi": 56,
            "name": "G#3",
            "ticks": 449040,
            "time": 267.28544700000003,
            "velocity": 0.8267716535433071
          },
          {
            "duration": 0.11428560000001653,
            "durationTicks": 192,
            "midi": 57,
            "name": "A3",
            "ticks": 449280,
            "time": 267.428304,
            "velocity": 0.8267716535433071
          },
          {
            "duration": 0.11428560000001653,
            "durationTicks": 192,
            "midi": 57,
            "name": "A3",
            "ticks": 449520,
            "time": 267.571161,
            "velocity": 0.8267716535433071
          },
          {
            "duration": 0.11428560000001653,
            "durationTicks": 192,
            "midi": 57,
            "name": "A3",
            "ticks": 449760,
            "time": 267.714018,
            "velocity": 0.8267716535433071
          },
          {
            "duration": 0.11428560000001653,
            "durationTicks": 192,
            "midi": 57,
            "name": "A3",
            "ticks": 450000,
            "time": 267.856875,
            "velocity": 0.8267716535433071
          },
          {
            "duration": 0.11428560000001653,
            "durationTicks": 192,
            "midi": 57,
            "name": "A3",
            "ticks": 450240,
            "time": 267.999732,
            "velocity": 0.8267716535433071
          },
          {
            "duration": 0.11428559999995969,
            "durationTicks": 192,
            "midi": 57,
            "name": "A3",
            "ticks": 450480,
            "time": 268.14258900000004,
            "velocity": 0.8267716535433071
          },
          {
            "duration": 0.11428559999995969,
            "durationTicks": 192,
            "midi": 57,
            "name": "A3",
            "ticks": 450720,
            "time": 268.28544600000004,
            "velocity": 0.8267716535433071
          },
          {
            "duration": 0.11428559999995969,
            "durationTicks": 192,
            "midi": 57,
            "name": "A3",
            "ticks": 450960,
            "time": 268.428303,
            "velocity": 0.8267716535433071
          },
          {
            "duration": 0.11428560000001653,
            "durationTicks": 192,
            "midi": 57,
            "name": "A3",
            "ticks": 451200,
            "time": 268.57116,
            "velocity": 0.8267716535433071
          },
          {
            "duration": 0.11428560000001653,
            "durationTicks": 192,
            "midi": 57,
            "name": "A3",
            "ticks": 451440,
            "time": 268.714017,
            "velocity": 0.8267716535433071
          },
          {
            "duration": 0.11428560000001653,
            "durationTicks": 192,
            "midi": 57,
            "name": "A3",
            "ticks": 451680,
            "time": 268.856874,
            "velocity": 0.8267716535433071
          },
          {
            "duration": 0.11428560000001653,
            "durationTicks": 192,
            "midi": 57,
            "name": "A3",
            "ticks": 451920,
            "time": 268.999731,
            "velocity": 0.8267716535433071
          },
          {
            "duration": 0.11428559999995969,
            "durationTicks": 192,
            "midi": 57,
            "name": "A3",
            "ticks": 452160,
            "time": 269.14258800000005,
            "velocity": 0.8267716535433071
          },
          {
            "duration": 0.11428559999995969,
            "durationTicks": 192,
            "midi": 57,
            "name": "A3",
            "ticks": 452400,
            "time": 269.28544500000004,
            "velocity": 0.8267716535433071
          },
          {
            "duration": 0.11428559999995969,
            "durationTicks": 192,
            "midi": 57,
            "name": "A3",
            "ticks": 452640,
            "time": 269.42830200000003,
            "velocity": 0.8267716535433071
          },
          {
            "duration": 0.11428560000001653,
            "durationTicks": 192,
            "midi": 57,
            "name": "A3",
            "ticks": 452880,
            "time": 269.571159,
            "velocity": 0.8267716535433071
          },
          {
            "duration": 0.11428560000001653,
            "durationTicks": 192,
            "midi": 57,
            "name": "A3",
            "ticks": 453120,
            "time": 269.714016,
            "velocity": 0.8267716535433071
          },
          {
            "duration": 0.11428560000001653,
            "durationTicks": 192,
            "midi": 57,
            "name": "A3",
            "ticks": 453360,
            "time": 269.856873,
            "velocity": 0.8267716535433071
          },
          {
            "duration": 0.11428560000001653,
            "durationTicks": 192,
            "midi": 57,
            "name": "A3",
            "ticks": 453600,
            "time": 269.99973,
            "velocity": 0.8267716535433071
          },
          {
            "duration": 0.11428559999995969,
            "durationTicks": 192,
            "midi": 57,
            "name": "A3",
            "ticks": 453840,
            "time": 270.14258700000005,
            "velocity": 0.8267716535433071
          },
          {
            "duration": 0.11428559999995969,
            "durationTicks": 192,
            "midi": 57,
            "name": "A3",
            "ticks": 454080,
            "time": 270.28544400000004,
            "velocity": 0.8267716535433071
          },
          {
            "duration": 0.11428559999995969,
            "durationTicks": 192,
            "midi": 57,
            "name": "A3",
            "ticks": 454320,
            "time": 270.42830100000003,
            "velocity": 0.8267716535433071
          },
          {
            "duration": 0.11428560000001653,
            "durationTicks": 192,
            "midi": 57,
            "name": "A3",
            "ticks": 454560,
            "time": 270.571158,
            "velocity": 0.8267716535433071
          },
          {
            "duration": 0.11428560000001653,
            "durationTicks": 192,
            "midi": 57,
            "name": "A3",
            "ticks": 454800,
            "time": 270.714015,
            "velocity": 0.8267716535433071
          },
          {
            "duration": 0.11428560000001653,
            "durationTicks": 192,
            "midi": 57,
            "name": "A3",
            "ticks": 455040,
            "time": 270.856872,
            "velocity": 0.8267716535433071
          },
          {
            "duration": 0.11428560000001653,
            "durationTicks": 192,
            "midi": 57,
            "name": "A3",
            "ticks": 455280,
            "time": 270.999729,
            "velocity": 0.8267716535433071
          },
          {
            "duration": 0.11428560000001653,
            "durationTicks": 192,
            "midi": 57,
            "name": "A3",
            "ticks": 455520,
            "time": 271.142586,
            "velocity": 0.8267716535433071
          },
          {
            "duration": 0.11428559999995969,
            "durationTicks": 192,
            "midi": 57,
            "name": "A3",
            "ticks": 455760,
            "time": 271.28544300000004,
            "velocity": 0.8267716535433071
          },
          {
            "duration": 0.11428559999995969,
            "durationTicks": 192,
            "midi": 57,
            "name": "A3",
            "ticks": 456000,
            "time": 271.42830000000004,
            "velocity": 0.8267716535433071
          },
          {
            "duration": 0.11428559999995969,
            "durationTicks": 192,
            "midi": 57,
            "name": "A3",
            "ticks": 456240,
            "time": 271.571157,
            "velocity": 0.8267716535433071
          },
          {
            "duration": 0.11428560000001653,
            "durationTicks": 192,
            "midi": 57,
            "name": "A3",
            "ticks": 456480,
            "time": 271.714014,
            "velocity": 0.8267716535433071
          },
          {
            "duration": 0.11428560000001653,
            "durationTicks": 192,
            "midi": 57,
            "name": "A3",
            "ticks": 456720,
            "time": 271.856871,
            "velocity": 0.8267716535433071
          },
          {
            "duration": 0.4571424000000093,
            "durationTicks": 768,
            "midi": 57,
            "name": "A3",
            "ticks": 456960,
            "time": 271.999728,
            "velocity": 0.8267716535433071
          },
          {
            "duration": 0.14285699999999224,
            "durationTicks": 240,
            "midi": 67,
            "name": "G4",
            "ticks": 473760,
            "time": 281.99971800000003,
            "velocity": 0.5511811023622047
          },
          {
            "duration": 0.08571419999998398,
            "durationTicks": 144,
            "midi": 66,
            "name": "F#4",
            "ticks": 474000,
            "time": 282.142575,
            "velocity": 0.5511811023622047
          },
          {
            "duration": 0.1714284000000248,
            "durationTicks": 288,
            "midi": 66,
            "name": "F#4",
            "ticks": 474240,
            "time": 282.285432,
            "velocity": 0.5511811023622047
          },
          {
            "duration": 0.14285700000004908,
            "durationTicks": 240,
            "midi": 67,
            "name": "G4",
            "ticks": 474720,
            "time": 282.571146,
            "velocity": 0.5511811023622047
          },
          {
            "duration": 0.08571419999998398,
            "durationTicks": 144,
            "midi": 66,
            "name": "F#4",
            "ticks": 474960,
            "time": 282.71400300000005,
            "velocity": 0.5511811023622047
          },
          {
            "duration": 0.17142839999996795,
            "durationTicks": 288,
            "midi": 66,
            "name": "F#4",
            "ticks": 475200,
            "time": 282.85686000000004,
            "velocity": 0.5511811023622047
          },
          {
            "duration": 0.14285699999999224,
            "durationTicks": 240,
            "midi": 67,
            "name": "G4",
            "ticks": 475680,
            "time": 283.142574,
            "velocity": 0.5511811023622047
          },
          {
            "duration": 0.08571419999998398,
            "durationTicks": 144,
            "midi": 66,
            "name": "F#4",
            "ticks": 475920,
            "time": 283.285431,
            "velocity": 0.5511811023622047
          },
          {
            "duration": 0.1714284000000248,
            "durationTicks": 288,
            "midi": 66,
            "name": "F#4",
            "ticks": 476160,
            "time": 283.428288,
            "velocity": 0.5511811023622047
          },
          {
            "duration": 0.14285699999999224,
            "durationTicks": 240,
            "midi": 63,
            "name": "D#4",
            "ticks": 477600,
            "time": 284.28543,
            "velocity": 0.5511811023622047
          },
          {
            "duration": 0.08571419999998398,
            "durationTicks": 144,
            "midi": 62,
            "name": "D4",
            "ticks": 477840,
            "time": 284.428287,
            "velocity": 0.5511811023622047
          },
          {
            "duration": 0.1714284000000248,
            "durationTicks": 288,
            "midi": 62,
            "name": "D4",
            "ticks": 478080,
            "time": 284.571144,
            "velocity": 0.5511811023622047
          },
          {
            "duration": 0.14285699999999224,
            "durationTicks": 240,
            "midi": 63,
            "name": "D#4",
            "ticks": 478560,
            "time": 284.85685800000005,
            "velocity": 0.5511811023622047
          },
          {
            "duration": 0.08571419999998398,
            "durationTicks": 144,
            "midi": 62,
            "name": "D4",
            "ticks": 478800,
            "time": 284.99971500000004,
            "velocity": 0.5511811023622047
          },
          {
            "duration": 0.1714284000000248,
            "durationTicks": 288,
            "midi": 62,
            "name": "D4",
            "ticks": 479040,
            "time": 285.14257200000003,
            "velocity": 0.5511811023622047
          },
          {
            "duration": 0.14285699999999224,
            "durationTicks": 240,
            "midi": 63,
            "name": "D#4",
            "ticks": 479520,
            "time": 285.428286,
            "velocity": 0.5511811023622047
          },
          {
            "duration": 0.08571419999998398,
            "durationTicks": 144,
            "midi": 62,
            "name": "D4",
            "ticks": 479760,
            "time": 285.571143,
            "velocity": 0.5511811023622047
          },
          {
            "duration": 0.1714284000000248,
            "durationTicks": 288,
            "midi": 62,
            "name": "D4",
            "ticks": 480000,
            "time": 285.714,
            "velocity": 0.5511811023622047
          },
          {
            "duration": 0.14285699999999224,
            "durationTicks": 240,
            "midi": 55,
            "name": "G3",
            "ticks": 481440,
            "time": 286.571142,
            "velocity": 0.4566929133858268
          },
          {
            "duration": 0.08571419999998398,
            "durationTicks": 144,
            "midi": 54,
            "name": "F#3",
            "ticks": 481680,
            "time": 286.713999,
            "velocity": 0.4566929133858268
          },
          {
            "duration": 0.17142839999996795,
            "durationTicks": 288,
            "midi": 54,
            "name": "F#3",
            "ticks": 481920,
            "time": 286.85685600000005,
            "velocity": 0.4566929133858268
          },
          {
            "duration": 0.14285699999999224,
            "durationTicks": 240,
            "midi": 55,
            "name": "G3",
            "ticks": 482400,
            "time": 287.14257000000003,
            "velocity": 0.4566929133858268
          },
          {
            "duration": 0.08571419999998398,
            "durationTicks": 144,
            "midi": 54,
            "name": "F#3",
            "ticks": 482640,
            "time": 287.285427,
            "velocity": 0.4566929133858268
          },
          {
            "duration": 0.1714284000000248,
            "durationTicks": 288,
            "midi": 54,
            "name": "F#3",
            "ticks": 482880,
            "time": 287.428284,
            "velocity": 0.4566929133858268
          },
          {
            "duration": 0.14285699999999224,
            "durationTicks": 240,
            "midi": 55,
            "name": "G3",
            "ticks": 483360,
            "time": 287.713998,
            "velocity": 0.4566929133858268
          },
          {
            "duration": 0.08571420000004082,
            "durationTicks": 144,
            "midi": 54,
            "name": "F#3",
            "ticks": 483600,
            "time": 287.856855,
            "velocity": 0.4566929133858268
          },
          {
            "duration": 0.17142839999996795,
            "durationTicks": 288,
            "midi": 54,
            "name": "F#3",
            "ticks": 483840,
            "time": 287.99971200000005,
            "velocity": 0.4566929133858268
          },
          {
            "duration": 0.14285699999999224,
            "durationTicks": 240,
            "midi": 63,
            "name": "D#4",
            "ticks": 486240,
            "time": 289.428282,
            "velocity": 0.9133858267716536
          },
          {
            "duration": 0.11428560000001653,
            "durationTicks": 192,
            "midi": 62,
            "name": "D4",
            "ticks": 486480,
            "time": 289.571139,
            "velocity": 0.9133858267716536
          },
          {
            "duration": 0.22857119999997622,
            "durationTicks": 384,
            "midi": 62,
            "name": "D4",
            "ticks": 486720,
            "time": 289.713996,
            "velocity": 0.9133858267716536
          },
          {
            "duration": 0.14285699999999224,
            "durationTicks": 240,
            "midi": 63,
            "name": "D#4",
            "ticks": 488160,
            "time": 290.571138,
            "velocity": 0.9133858267716536
          },
          {
            "duration": 0.11428560000001653,
            "durationTicks": 192,
            "midi": 62,
            "name": "D4",
            "ticks": 488400,
            "time": 290.713995,
            "velocity": 0.9133858267716536
          },
          {
            "duration": 0.22857120000003306,
            "durationTicks": 384,
            "midi": 62,
            "name": "D4",
            "ticks": 488640,
            "time": 290.856852,
            "velocity": 0.9133858267716536
          },
          {
            "duration": 0.14285699999999224,
            "durationTicks": 240,
            "midi": 63,
            "name": "D#4",
            "ticks": 490080,
            "time": 291.713994,
            "velocity": 0.9133858267716536
          },
          {
            "duration": 0.11428560000001653,
            "durationTicks": 192,
            "midi": 62,
            "name": "D4",
            "ticks": 490320,
            "time": 291.856851,
            "velocity": 0.9133858267716536
          },
          {
            "duration": 0.22857120000003306,
            "durationTicks": 384,
            "midi": 62,
            "name": "D4",
            "ticks": 490560,
            "time": 291.999708,
            "velocity": 0.9133858267716536
          },
          {
            "duration": 0.14285699999999224,
            "durationTicks": 240,
            "midi": 63,
            "name": "D#4",
            "ticks": 492000,
            "time": 292.85685,
            "velocity": 0.9133858267716536
          },
          {
            "duration": 0.11428560000007337,
            "durationTicks": 192,
            "midi": 62,
            "name": "D4",
            "ticks": 492240,
            "time": 292.999707,
            "velocity": 0.9133858267716536
          },
          {
            "duration": 0.22857119999997622,
            "durationTicks": 384,
            "midi": 62,
            "name": "D4",
            "ticks": 492480,
            "time": 293.14256400000005,
            "velocity": 0.9133858267716536
          },
          {
            "duration": 0.14285700000004908,
            "durationTicks": 240,
            "midi": 63,
            "name": "D#4",
            "ticks": 493920,
            "time": 293.999706,
            "velocity": 0.9133858267716536
          },
          {
            "duration": 0.11428560000001653,
            "durationTicks": 192,
            "midi": 62,
            "name": "D4",
            "ticks": 494160,
            "time": 294.14256300000005,
            "velocity": 0.9133858267716536
          },
          {
            "duration": 0.22857119999997622,
            "durationTicks": 384,
            "midi": 62,
            "name": "D4",
            "ticks": 494400,
            "time": 294.28542000000004,
            "velocity": 0.9133858267716536
          },
          {
            "duration": 0.14285700000004908,
            "durationTicks": 240,
            "midi": 63,
            "name": "D#4",
            "ticks": 495840,
            "time": 295.142562,
            "velocity": 0.9133858267716536
          },
          {
            "duration": 0.11428560000001653,
            "durationTicks": 192,
            "midi": 62,
            "name": "D4",
            "ticks": 496080,
            "time": 295.28541900000005,
            "velocity": 0.9133858267716536
          },
          {
            "duration": 0.22857119999997622,
            "durationTicks": 384,
            "midi": 62,
            "name": "D4",
            "ticks": 496320,
            "time": 295.42827600000004,
            "velocity": 0.9133858267716536
          },
          {
            "duration": 0.14285699999999224,
            "durationTicks": 240,
            "midi": 63,
            "name": "D#4",
            "ticks": 497760,
            "time": 296.28541800000005,
            "velocity": 0.9133858267716536
          },
          {
            "duration": 0.11428560000001653,
            "durationTicks": 192,
            "midi": 62,
            "name": "D4",
            "ticks": 498000,
            "time": 296.42827500000004,
            "velocity": 0.9133858267716536
          },
          {
            "duration": 0.22857119999997622,
            "durationTicks": 384,
            "midi": 62,
            "name": "D4",
            "ticks": 498240,
            "time": 296.57113200000003,
            "velocity": 0.9133858267716536
          },
          {
            "duration": 0.14285699999999224,
            "durationTicks": 240,
            "midi": 63,
            "name": "D#4",
            "ticks": 498720,
            "time": 296.856846,
            "velocity": 0.9133858267716536
          },
          {
            "duration": 0.11428560000001653,
            "durationTicks": 192,
            "midi": 62,
            "name": "D4",
            "ticks": 498960,
            "time": 296.999703,
            "velocity": 0.9133858267716536
          },
          {
            "duration": 0.22857120000003306,
            "durationTicks": 384,
            "midi": 62,
            "name": "D4",
            "ticks": 499200,
            "time": 297.14256,
            "velocity": 0.8267716535433071
          },
          {
            "duration": 0.22857119999997622,
            "durationTicks": 384,
            "midi": 43,
            "name": "G2",
            "ticks": 510720,
            "time": 303.99969600000003,
            "velocity": 0.5511811023622047
          },
          {
            "duration": 0.22857119999997622,
            "durationTicks": 384,
            "midi": 55,
            "name": "G3",
            "ticks": 512640,
            "time": 305.142552,
            "velocity": 0.5511811023622047
          },
          {
            "duration": 0.22857119999997622,
            "durationTicks": 384,
            "midi": 43,
            "name": "G2",
            "ticks": 514560,
            "time": 306.285408,
            "velocity": 0.5511811023622047
          },
          {
            "duration": 0.22857119999997622,
            "durationTicks": 384,
            "midi": 55,
            "name": "G3",
            "ticks": 516480,
            "time": 307.428264,
            "velocity": 0.5511811023622047
          },
          {
            "duration": 0.22857120000003306,
            "durationTicks": 384,
            "midi": 42,
            "name": "F#2",
            "ticks": 518400,
            "time": 308.57112,
            "velocity": 0.5511811023622047
          },
          {
            "duration": 0.22857120000003306,
            "durationTicks": 384,
            "midi": 50,
            "name": "D3",
            "ticks": 520320,
            "time": 309.713976,
            "velocity": 0.5511811023622047
          },
          {
            "duration": 0.22857119999997622,
            "durationTicks": 384,
            "midi": 43,
            "name": "G2",
            "ticks": 522240,
            "time": 310.85683200000005,
            "velocity": 0.5511811023622047
          },
          {
            "duration": 1.1428559999999948,
            "durationTicks": 1920,
            "midi": 48,
            "name": "C3",
            "ticks": 524160,
            "time": 311.99968800000005,
            "velocity": 0.5511811023622047
          },
          {
            "duration": 1.1428559999999948,
            "durationTicks": 1920,
            "midi": 46,
            "name": "A#2",
            "ticks": 526080,
            "time": 313.14254400000004,
            "velocity": 0.5511811023622047
          },
          {
            "duration": 1.1428559999999948,
            "durationTicks": 1920,
            "midi": 48,
            "name": "C3",
            "ticks": 528000,
            "time": 314.28540000000004,
            "velocity": 0.5511811023622047
          },
          {
            "duration": 1.0857131999999865,
            "durationTicks": 1824,
            "midi": 46,
            "name": "A#2",
            "ticks": 529920,
            "time": 315.42825600000003,
            "velocity": 0.5511811023622047
          },
          {
            "duration": 1.1428559999999948,
            "durationTicks": 1920,
            "midi": 52,
            "name": "E3",
            "ticks": 531840,
            "time": 316.571112,
            "velocity": 0.5511811023622047
          },
          {
            "duration": 1.1428559999999948,
            "durationTicks": 1920,
            "midi": 51,
            "name": "D#3",
            "ticks": 533760,
            "time": 317.713968,
            "velocity": 0.5511811023622047
          },
          {
            "duration": 0.4571424000000093,
            "durationTicks": 768,
            "midi": 50,
            "name": "D3",
            "ticks": 535680,
            "time": 318.856824,
            "velocity": 0.4566929133858268
          },
          {
            "duration": 0.11428560000001653,
            "durationTicks": 192,
            "midi": 50,
            "name": "D3",
            "ticks": 537120,
            "time": 319.713966,
            "velocity": 0.8267716535433071
          },
          {
            "duration": 0.11428560000001653,
            "durationTicks": 192,
            "midi": 50,
            "name": "D3",
            "ticks": 537360,
            "time": 319.856823,
            "velocity": 0.8267716535433071
          },
          {
            "duration": 0.4571424000000093,
            "durationTicks": 768,
            "midi": 50,
            "name": "D3",
            "ticks": 537600,
            "time": 319.99968,
            "velocity": 0.8267716535433071
          },
          {
            "duration": 0.11428560000001653,
            "durationTicks": 192,
            "midi": 50,
            "name": "D3",
            "ticks": 539040,
            "time": 320.856822,
            "velocity": 0.8267716535433071
          },
          {
            "duration": 0.11428560000001653,
            "durationTicks": 192,
            "midi": 50,
            "name": "D3",
            "ticks": 539280,
            "time": 320.999679,
            "velocity": 0.8267716535433071
          },
          {
            "duration": 0.4571424000000093,
            "durationTicks": 768,
            "midi": 50,
            "name": "D3",
            "ticks": 539520,
            "time": 321.142536,
            "velocity": 0.8267716535433071
          },
          {
            "duration": 0.09999990000000025,
            "durationTicks": 168,
            "midi": 50,
            "name": "D3",
            "ticks": 540960,
            "time": 321.999678,
            "velocity": 0.8267716535433071
          },
          {
            "duration": 0.09999990000000025,
            "durationTicks": 168,
            "midi": 50,
            "name": "D3",
            "ticks": 541200,
            "time": 322.142535,
            "velocity": 0.8267716535433071
          },
          {
            "duration": 0.19999980000005735,
            "durationTicks": 336,
            "midi": 50,
            "name": "D3",
            "ticks": 541440,
            "time": 322.285392,
            "velocity": 0.8267716535433071
          },
          {
            "duration": 0.09999989999994341,
            "durationTicks": 168,
            "midi": 50,
            "name": "D3",
            "ticks": 541920,
            "time": 322.57110600000004,
            "velocity": 0.8267716535433071
          },
          {
            "duration": 0.09999989999994341,
            "durationTicks": 168,
            "midi": 50,
            "name": "D3",
            "ticks": 542160,
            "time": 322.71396300000004,
            "velocity": 0.8267716535433071
          },
          {
            "duration": 0.1999998000000005,
            "durationTicks": 336,
            "midi": 50,
            "name": "D3",
            "ticks": 542400,
            "time": 322.85682,
            "velocity": 0.8267716535433071
          },
          {
            "duration": 0.09999990000000025,
            "durationTicks": 168,
            "midi": 50,
            "name": "D3",
            "ticks": 542880,
            "time": 323.142534,
            "velocity": 0.8267716535433071
          },
          {
            "duration": 0.09999990000000025,
            "durationTicks": 168,
            "midi": 50,
            "name": "D3",
            "ticks": 543120,
            "time": 323.285391,
            "velocity": 0.8267716535433071
          },
          {
            "duration": 0.45714239999995243,
            "durationTicks": 768,
            "midi": 50,
            "name": "D3",
            "ticks": 543360,
            "time": 323.42824800000005,
            "velocity": 0.8267716535433071
          },
          {
            "duration": 0.22857119999997622,
            "durationTicks": 384,
            "midi": 43,
            "name": "G2",
            "ticks": 547200,
            "time": 325.71396000000004,
            "velocity": 0.5511811023622047
          },
          {
            "duration": 0.22857119999997622,
            "durationTicks": 384,
            "midi": 55,
            "name": "G3",
            "ticks": 549120,
            "time": 326.85681600000004,
            "velocity": 0.5511811023622047
          },
          {
            "duration": 0.22857119999997622,
            "durationTicks": 384,
            "midi": 53,
            "name": "F3",
            "ticks": 551040,
            "time": 327.99967200000003,
            "velocity": 0.5511811023622047
          },
          {
            "duration": 0.22857119999997622,
            "durationTicks": 384,
            "midi": 51,
            "name": "D#3",
            "ticks": 552960,
            "time": 329.142528,
            "velocity": 0.5511811023622047
          },
          {
            "duration": 0.22857119999997622,
            "durationTicks": 384,
            "midi": 50,
            "name": "D3",
            "ticks": 554880,
            "time": 330.285384,
            "velocity": 0.5511811023622047
          },
          {
            "duration": 0.22857119999997622,
            "durationTicks": 384,
            "midi": 46,
            "name": "A#2",
            "ticks": 556800,
            "time": 331.42824,
            "velocity": 0.5511811023622047
          },
          {
            "duration": 0.08571419999998398,
            "durationTicks": 144,
            "midi": 51,
            "name": "D#3",
            "ticks": 558720,
            "time": 332.571096,
            "velocity": 0.8267716535433071
          },
          {
            "duration": 0.08571419999998398,
            "durationTicks": 144,
            "midi": 55,
            "name": "G3",
            "ticks": 558960,
            "time": 332.713953,
            "velocity": 0.8267716535433071
          },
          {
            "duration": 0.08571419999998398,
            "durationTicks": 144,
            "midi": 58,
            "name": "A#3",
            "ticks": 559200,
            "time": 332.85681000000005,
            "velocity": 0.8267716535433071
          },
          {
            "duration": 0.08571419999998398,
            "durationTicks": 144,
            "midi": 63,
            "name": "D#4",
            "ticks": 559440,
            "time": 332.99966700000004,
            "velocity": 0.8267716535433071
          },
          {
            "duration": 0.08571419999998398,
            "durationTicks": 144,
            "midi": 67,
            "name": "G4",
            "ticks": 559680,
            "time": 333.14252400000004,
            "velocity": 0.8267716535433071
          },
          {
            "duration": 0.08571419999998398,
            "durationTicks": 144,
            "midi": 65,
            "name": "F4",
            "ticks": 559920,
            "time": 333.28538100000003,
            "velocity": 0.8267716535433071
          },
          {
            "duration": 0.08571419999998398,
            "durationTicks": 144,
            "midi": 67,
            "name": "G4",
            "ticks": 560160,
            "time": 333.428238,
            "velocity": 0.8267716535433071
          },
          {
            "duration": 0.08571419999998398,
            "durationTicks": 144,
            "midi": 63,
            "name": "D#4",
            "ticks": 560400,
            "time": 333.571095,
            "velocity": 0.8267716535433071
          },
          {
            "duration": 0.11428560000007337,
            "durationTicks": 192,
            "midi": 62,
            "name": "D4",
            "ticks": 560640,
            "time": 333.713952,
            "velocity": 0.8267716535433071
          },
          {
            "duration": 0.11428560000001653,
            "durationTicks": 192,
            "midi": 63,
            "name": "D#4",
            "ticks": 560880,
            "time": 333.85680900000006,
            "velocity": 0.8267716535433071
          },
          {
            "duration": 0.11428560000001653,
            "durationTicks": 192,
            "midi": 65,
            "name": "F4",
            "ticks": 561120,
            "time": 333.99966600000005,
            "velocity": 0.8267716535433071
          },
          {
            "duration": 0.11428560000001653,
            "durationTicks": 192,
            "midi": 63,
            "name": "D#4",
            "ticks": 561360,
            "time": 334.14252300000004,
            "velocity": 0.8267716535433071
          },
          {
            "duration": 0.11428560000001653,
            "durationTicks": 192,
            "midi": 62,
            "name": "D4",
            "ticks": 561600,
            "time": 334.28538000000003,
            "velocity": 0.8267716535433071
          },
          {
            "duration": 0.11428560000001653,
            "durationTicks": 192,
            "midi": 60,
            "name": "C4",
            "ticks": 561840,
            "time": 334.428237,
            "velocity": 0.8267716535433071
          },
          {
            "duration": 0.11428560000001653,
            "durationTicks": 192,
            "midi": 62,
            "name": "D4",
            "ticks": 562080,
            "time": 334.571094,
            "velocity": 0.8267716535433071
          },
          {
            "duration": 0.11428560000001653,
            "durationTicks": 192,
            "midi": 58,
            "name": "A#3",
            "ticks": 562320,
            "time": 334.713951,
            "velocity": 0.8267716535433071
          },
          {
            "duration": 0.11428560000007337,
            "durationTicks": 192,
            "midi": 60,
            "name": "C4",
            "ticks": 562560,
            "time": 334.856808,
            "velocity": 0.8267716535433071
          },
          {
            "duration": 0.11428560000001653,
            "durationTicks": 192,
            "midi": 63,
            "name": "D#4",
            "ticks": 562800,
            "time": 334.99966500000005,
            "velocity": 0.8267716535433071
          },
          {
            "duration": 0.11428560000001653,
            "durationTicks": 192,
            "midi": 60,
            "name": "C4",
            "ticks": 563040,
            "time": 335.14252200000004,
            "velocity": 0.8267716535433071
          },
          {
            "duration": 0.11428560000001653,
            "durationTicks": 192,
            "midi": 63,
            "name": "D#4",
            "ticks": 563280,
            "time": 335.28537900000003,
            "velocity": 0.8267716535433071
          },
          {
            "duration": 0.11428560000001653,
            "durationTicks": 192,
            "midi": 60,
            "name": "C4",
            "ticks": 563520,
            "time": 335.428236,
            "velocity": 0.8267716535433071
          },
          {
            "duration": 0.11428560000001653,
            "durationTicks": 192,
            "midi": 63,
            "name": "D#4",
            "ticks": 563760,
            "time": 335.571093,
            "velocity": 0.8267716535433071
          },
          {
            "duration": 0.11428560000001653,
            "durationTicks": 192,
            "midi": 60,
            "name": "C4",
            "ticks": 564000,
            "time": 335.71395,
            "velocity": 0.8267716535433071
          },
          {
            "duration": 0.11428560000007337,
            "durationTicks": 192,
            "midi": 63,
            "name": "D#4",
            "ticks": 564240,
            "time": 335.856807,
            "velocity": 0.8267716535433071
          },
          {
            "duration": 0.11428560000001653,
            "durationTicks": 192,
            "midi": 58,
            "name": "A#3",
            "ticks": 564480,
            "time": 335.99966400000005,
            "velocity": 0.8267716535433071
          },
          {
            "duration": 0.11428560000001653,
            "durationTicks": 192,
            "midi": 63,
            "name": "D#4",
            "ticks": 564720,
            "time": 336.14252100000004,
            "velocity": 0.8267716535433071
          },
          {
            "duration": 0.11428560000001653,
            "durationTicks": 192,
            "midi": 58,
            "name": "A#3",
            "ticks": 564960,
            "time": 336.28537800000004,
            "velocity": 0.8267716535433071
          },
          {
            "duration": 0.11428560000001653,
            "durationTicks": 192,
            "midi": 63,
            "name": "D#4",
            "ticks": 565200,
            "time": 336.42823500000003,
            "velocity": 0.8267716535433071
          },
          {
            "duration": 0.11428560000001653,
            "durationTicks": 192,
            "midi": 58,
            "name": "A#3",
            "ticks": 565440,
            "time": 336.571092,
            "velocity": 0.8267716535433071
          },
          {
            "duration": 0.11428560000001653,
            "durationTicks": 192,
            "midi": 63,
            "name": "D#4",
            "ticks": 565680,
            "time": 336.713949,
            "velocity": 0.8267716535433071
          },
          {
            "duration": 0.11428560000007337,
            "durationTicks": 192,
            "midi": 58,
            "name": "A#3",
            "ticks": 565920,
            "time": 336.856806,
            "velocity": 0.8267716535433071
          },
          {
            "duration": 0.11428560000001653,
            "durationTicks": 192,
            "midi": 63,
            "name": "D#4",
            "ticks": 566160,
            "time": 336.99966300000006,
            "velocity": 0.8267716535433071
          },
          {
            "duration": 0.11428560000001653,
            "durationTicks": 192,
            "midi": 56,
            "name": "G#3",
            "ticks": 566400,
            "time": 337.14252000000005,
            "velocity": 0.8267716535433071
          },
          {
            "duration": 0.11428560000001653,
            "durationTicks": 192,
            "midi": 60,
            "name": "C4",
            "ticks": 566640,
            "time": 337.28537700000004,
            "velocity": 0.8267716535433071
          },
          {
            "duration": 0.11428560000001653,
            "durationTicks": 192,
            "midi": 56,
            "name": "G#3",
            "ticks": 566880,
            "time": 337.42823400000003,
            "velocity": 0.8267716535433071
          },
          {
            "duration": 0.11428560000001653,
            "durationTicks": 192,
            "midi": 60,
            "name": "C4",
            "ticks": 567120,
            "time": 337.571091,
            "velocity": 0.8267716535433071
          },
          {
            "duration": 0.11428560000001653,
            "durationTicks": 192,
            "midi": 56,
            "name": "G#3",
            "ticks": 567360,
            "time": 337.713948,
            "velocity": 0.8267716535433071
          },
          {
            "duration": 0.11428560000007337,
            "durationTicks": 192,
            "midi": 60,
            "name": "C4",
            "ticks": 567600,
            "time": 337.856805,
            "velocity": 0.8267716535433071
          },
          {
            "duration": 0.11428560000007337,
            "durationTicks": 192,
            "midi": 56,
            "name": "G#3",
            "ticks": 567840,
            "time": 337.999662,
            "velocity": 0.8267716535433071
          },
          {
            "duration": 0.11428560000001653,
            "durationTicks": 192,
            "midi": 60,
            "name": "C4",
            "ticks": 568080,
            "time": 338.14251900000005,
            "velocity": 0.8267716535433071
          },
          {
            "duration": 0.11428560000001653,
            "durationTicks": 192,
            "midi": 55,
            "name": "G3",
            "ticks": 568320,
            "time": 338.28537600000004,
            "velocity": 0.8267716535433071
          },
          {
            "duration": 0.11428560000001653,
            "durationTicks": 192,
            "midi": 58,
            "name": "A#3",
            "ticks": 568560,
            "time": 338.42823300000003,
            "velocity": 0.8267716535433071
          },
          {
            "duration": 0.11428560000001653,
            "durationTicks": 192,
            "midi": 55,
            "name": "G3",
            "ticks": 568800,
            "time": 338.57109,
            "velocity": 0.8267716535433071
          },
          {
            "duration": 0.11428560000001653,
            "durationTicks": 192,
            "midi": 58,
            "name": "A#3",
            "ticks": 569040,
            "time": 338.713947,
            "velocity": 0.8267716535433071
          },
          {
            "duration": 0.11428560000001653,
            "durationTicks": 192,
            "midi": 53,
            "name": "F3",
            "ticks": 569280,
            "time": 338.856804,
            "velocity": 0.8267716535433071
          },
          {
            "duration": 0.11428560000007337,
            "durationTicks": 192,
            "midi": 56,
            "name": "G#3",
            "ticks": 569520,
            "time": 338.999661,
            "velocity": 0.8267716535433071
          },
          {
            "duration": 0.11428560000001653,
            "durationTicks": 192,
            "midi": 53,
            "name": "F3",
            "ticks": 569760,
            "time": 339.14251800000005,
            "velocity": 0.8267716535433071
          },
          {
            "duration": 0.11428560000001653,
            "durationTicks": 192,
            "midi": 56,
            "name": "G#3",
            "ticks": 570000,
            "time": 339.28537500000004,
            "velocity": 0.8267716535433071
          },
          {
            "duration": 0.11428560000001653,
            "durationTicks": 192,
            "midi": 52,
            "name": "E3",
            "ticks": 570240,
            "time": 339.42823200000004,
            "velocity": 0.8267716535433071
          },
          {
            "duration": 0.11428560000001653,
            "durationTicks": 192,
            "midi": 55,
            "name": "G3",
            "ticks": 570480,
            "time": 339.57108900000003,
            "velocity": 0.8267716535433071
          },
          {
            "duration": 0.11428560000001653,
            "durationTicks": 192,
            "midi": 52,
            "name": "E3",
            "ticks": 570720,
            "time": 339.713946,
            "velocity": 0.8267716535433071
          },
          {
            "duration": 0.11428560000001653,
            "durationTicks": 192,
            "midi": 55,
            "name": "G3",
            "ticks": 570960,
            "time": 339.856803,
            "velocity": 0.8267716535433071
          },
          {
            "duration": 0.11428560000007337,
            "durationTicks": 192,
            "midi": 48,
            "name": "C3",
            "ticks": 571200,
            "time": 339.99966,
            "velocity": 0.8267716535433071
          },
          {
            "duration": 0.11428560000001653,
            "durationTicks": 192,
            "midi": 52,
            "name": "E3",
            "ticks": 571440,
            "time": 340.14251700000005,
            "velocity": 0.8267716535433071
          },
          {
            "duration": 0.11428560000001653,
            "durationTicks": 192,
            "midi": 48,
            "name": "C3",
            "ticks": 571680,
            "time": 340.28537400000005,
            "velocity": 0.8267716535433071
          },
          {
            "duration": 0.11428560000001653,
            "durationTicks": 192,
            "midi": 52,
            "name": "E3",
            "ticks": 571920,
            "time": 340.42823100000004,
            "velocity": 0.8267716535433071
          },
          {
            "duration": 0.9142848000000185,
            "durationTicks": 1536,
            "midi": 53,
            "name": "F3",
            "ticks": 572160,
            "time": 340.57108800000003,
            "velocity": 0.8267716535433071
          },
          {
            "duration": 0.6857136000000423,
            "durationTicks": 1152,
            "midi": 60,
            "name": "C4",
            "ticks": 574080,
            "time": 341.713944,
            "velocity": 0.8267716535433071
          },
          {
            "duration": 0.08571419999998398,
            "durationTicks": 144,
            "midi": 60,
            "name": "C4",
            "ticks": 575760,
            "time": 342.71394300000003,
            "velocity": 0.8267716535433071
          },
          {
            "duration": 0.17142839999996795,
            "durationTicks": 288,
            "midi": 58,
            "name": "A#3",
            "ticks": 576000,
            "time": 342.8568,
            "velocity": 0.8267716535433071
          },
          {
            "duration": 0.1714284000000248,
            "durationTicks": 288,
            "midi": 61,
            "name": "C#4",
            "ticks": 576480,
            "time": 343.142514,
            "velocity": 0.8267716535433071
          },
          {
            "duration": 0.17142839999996795,
            "durationTicks": 288,
            "midi": 67,
            "name": "G4",
            "ticks": 576960,
            "time": 343.42822800000005,
            "velocity": 0.8267716535433071
          },
          {
            "duration": 0.17142839999996795,
            "durationTicks": 288,
            "midi": 56,
            "name": "G#3",
            "ticks": 577920,
            "time": 343.999656,
            "velocity": 0.8267716535433071
          },
          {
            "duration": 0.1714284000000248,
            "durationTicks": 288,
            "midi": 60,
            "name": "C4",
            "ticks": 578400,
            "time": 344.28537,
            "velocity": 0.8267716535433071
          },
          {
            "duration": 0.17142839999996795,
            "durationTicks": 288,
            "midi": 65,
            "name": "F4",
            "ticks": 578880,
            "time": 344.57108400000004,
            "velocity": 0.8267716535433071
          },
          {
            "duration": 0.08571419999998398,
            "durationTicks": 144,
            "midi": 56,
            "name": "G#3",
            "ticks": 579600,
            "time": 344.999655,
            "velocity": 0.8267716535433071
          },
          {
            "duration": 0.17142839999996795,
            "durationTicks": 288,
            "midi": 55,
            "name": "G3",
            "ticks": 579840,
            "time": 345.142512,
            "velocity": 0.8267716535433071
          },
          {
            "duration": 0.17142839999996795,
            "durationTicks": 288,
            "midi": 58,
            "name": "A#3",
            "ticks": 580320,
            "time": 345.42822600000005,
            "velocity": 0.8267716535433071
          },
          {
            "duration": 0.17142839999996795,
            "durationTicks": 288,
            "midi": 64,
            "name": "E4",
            "ticks": 580800,
            "time": 345.71394000000004,
            "velocity": 0.8267716535433071
          },
          {
            "duration": 0.08571419999998398,
            "durationTicks": 144,
            "midi": 55,
            "name": "G3",
            "ticks": 581520,
            "time": 346.142511,
            "velocity": 0.8267716535433071
          },
          {
            "duration": 0.1714284000000248,
            "durationTicks": 288,
            "midi": 53,
            "name": "F3",
            "ticks": 581760,
            "time": 346.285368,
            "velocity": 0.8267716535433071
          },
          {
            "duration": 0.17142839999996795,
            "durationTicks": 288,
            "midi": 56,
            "name": "G#3",
            "ticks": 582240,
            "time": 346.57108200000005,
            "velocity": 0.8267716535433071
          },
          {
            "duration": 0.17142839999996795,
            "durationTicks": 288,
            "midi": 60,
            "name": "C4",
            "ticks": 582720,
            "time": 346.85679600000003,
            "velocity": 0.8267716535433071
          },
          {
            "duration": 0.08571419999998398,
            "durationTicks": 144,
            "midi": 41,
            "name": "F2",
            "ticks": 583440,
            "time": 347.285367,
            "velocity": 0.8267716535433071
          },
          {
            "duration": 0.1714284000000248,
            "durationTicks": 288,
            "midi": 46,
            "name": "A#2",
            "ticks": 583680,
            "time": 347.428224,
            "velocity": 0.8267716535433071
          },
          {
            "duration": 0.17142839999996795,
            "durationTicks": 288,
            "midi": 50,
            "name": "D3",
            "ticks": 584160,
            "time": 347.71393800000004,
            "velocity": 0.8267716535433071
          },
          {
            "duration": 0.17142839999996795,
            "durationTicks": 288,
            "midi": 53,
            "name": "F3",
            "ticks": 584640,
            "time": 347.999652,
            "velocity": 0.8267716535433071
          },
          {
            "duration": 0.08571420000004082,
            "durationTicks": 144,
            "midi": 46,
            "name": "A#2",
            "ticks": 585360,
            "time": 348.428223,
            "velocity": 0.8267716535433071
          },
          {
            "duration": 0.17142839999996795,
            "durationTicks": 288,
            "midi": 51,
            "name": "D#3",
            "ticks": 585600,
            "time": 348.57108000000005,
            "velocity": 0.8267716535433071
          },
          {
            "duration": 0.17142839999996795,
            "durationTicks": 288,
            "midi": 55,
            "name": "G3",
            "ticks": 586080,
            "time": 348.85679400000004,
            "velocity": 0.8267716535433071
          },
          {
            "duration": 0.17142839999996795,
            "durationTicks": 288,
            "midi": 58,
            "name": "A#3",
            "ticks": 586560,
            "time": 349.142508,
            "velocity": 0.8267716535433071
          },
          {
            "duration": 0.08571419999998398,
            "durationTicks": 144,
            "midi": 39,
            "name": "D#2",
            "ticks": 587280,
            "time": 349.57107900000005,
            "velocity": 0.8267716535433071
          },
          {
            "duration": 0.17142839999996795,
            "durationTicks": 288,
            "midi": 44,
            "name": "G#2",
            "ticks": 587520,
            "time": 349.71393600000005,
            "velocity": 0.8267716535433071
          },
          {
            "duration": 0.17142839999996795,
            "durationTicks": 288,
            "midi": 48,
            "name": "C3",
            "ticks": 588000,
            "time": 349.99965000000003,
            "velocity": 0.8267716535433071
          },
          {
            "duration": 0.17142839999996795,
            "durationTicks": 288,
            "midi": 51,
            "name": "D#3",
            "ticks": 588480,
            "time": 350.285364,
            "velocity": 0.8267716535433071
          },
          {
            "duration": 0.08571419999998398,
            "durationTicks": 144,
            "midi": 44,
            "name": "G#2",
            "ticks": 589200,
            "time": 350.71393500000005,
            "velocity": 0.8267716535433071
          },
          {
            "duration": 0.17142839999996795,
            "durationTicks": 288,
            "midi": 50,
            "name": "D3",
            "ticks": 589440,
            "time": 350.85679200000004,
            "velocity": 0.8267716535433071
          },
          {
            "duration": 0.17142839999996795,
            "durationTicks": 288,
            "midi": 53,
            "name": "F3",
            "ticks": 589920,
            "time": 351.142506,
            "velocity": 0.8267716535433071
          },
          {
            "duration": 0.17142839999996795,
            "durationTicks": 288,
            "midi": 57,
            "name": "A3",
            "ticks": 590400,
            "time": 351.42822,
            "velocity": 0.8267716535433071
          },
          {
            "duration": 0.08571419999998398,
            "durationTicks": 144,
            "midi": 50,
            "name": "D3",
            "ticks": 591120,
            "time": 351.85679100000004,
            "velocity": 0.8267716535433071
          },
          {
            "duration": 0.17142839999996795,
            "durationTicks": 288,
            "midi": 55,
            "name": "G3",
            "ticks": 591360,
            "time": 351.99964800000004,
            "velocity": 0.8267716535433071
          },
          {
            "duration": 0.17142839999996795,
            "durationTicks": 288,
            "midi": 59,
            "name": "B3",
            "ticks": 591840,
            "time": 352.285362,
            "velocity": 0.8267716535433071
          },
          {
            "duration": 0.1714284000000248,
            "durationTicks": 288,
            "midi": 62,
            "name": "D4",
            "ticks": 592320,
            "time": 352.571076,
            "velocity": 0.8267716535433071
          },
          {
            "duration": 0.08571419999998398,
            "durationTicks": 144,
            "midi": 43,
            "name": "G2",
            "ticks": 593040,
            "time": 352.99964700000004,
            "velocity": 0.8267716535433071
          },
          {
            "duration": 0.17142839999996795,
            "durationTicks": 288,
            "midi": 48,
            "name": "C3",
            "ticks": 593280,
            "time": 353.14250400000003,
            "velocity": 0.8267716535433071
          },
          {
            "duration": 0.17142839999996795,
            "durationTicks": 288,
            "midi": 51,
            "name": "D#3",
            "ticks": 593760,
            "time": 353.428218,
            "velocity": 0.8267716535433071
          },
          {
            "duration": 0.17142839999996795,
            "durationTicks": 288,
            "midi": 57,
            "name": "A3",
            "ticks": 594240,
            "time": 353.71393200000006,
            "velocity": 0.8267716535433071
          },
          {
            "duration": 0.08571419999998398,
            "durationTicks": 144,
            "midi": 48,
            "name": "C3",
            "ticks": 594960,
            "time": 354.14250300000003,
            "velocity": 0.8267716535433071
          },
          {
            "duration": 0.17142839999996795,
            "durationTicks": 288,
            "midi": 50,
            "name": "D3",
            "ticks": 595200,
            "time": 354.28536,
            "velocity": 0.8267716535433071
          },
          {
            "duration": 0.17142839999996795,
            "durationTicks": 288,
            "midi": 54,
            "name": "F#3",
            "ticks": 595680,
            "time": 354.571074,
            "velocity": 0.8267716535433071
          },
          {
            "duration": 0.17142839999996795,
            "durationTicks": 288,
            "midi": 57,
            "name": "A3",
            "ticks": 596160,
            "time": 354.85678800000005,
            "velocity": 0.8267716535433071
          },
          {
            "duration": 0.11428560000001653,
            "durationTicks": 192,
            "midi": 55,
            "name": "G3",
            "ticks": 597120,
            "time": 355.428216,
            "velocity": 0.8267716535433071
          },
          {
            "duration": 0.11428560000001653,
            "durationTicks": 192,
            "midi": 58,
            "name": "A#3",
            "ticks": 597360,
            "time": 355.571073,
            "velocity": 0.8267716535433071
          },
          {
            "duration": 0.11428560000007337,
            "durationTicks": 192,
            "midi": 55,
            "name": "G3",
            "ticks": 597600,
            "time": 355.71393,
            "velocity": 0.8267716535433071
          },
          {
            "duration": 0.11428560000001653,
            "durationTicks": 192,
            "midi": 58,
            "name": "A#3",
            "ticks": 597840,
            "time": 355.85678700000005,
            "velocity": 0.8267716535433071
          },
          {
            "duration": 0.11428560000001653,
            "durationTicks": 192,
            "midi": 55,
            "name": "G3",
            "ticks": 598080,
            "time": 355.99964400000005,
            "velocity": 0.8267716535433071
          },
          {
            "duration": 0.11428560000001653,
            "durationTicks": 192,
            "midi": 58,
            "name": "A#3",
            "ticks": 598320,
            "time": 356.14250100000004,
            "velocity": 0.8267716535433071
          },
          {
            "duration": 0.11428560000001653,
            "durationTicks": 192,
            "midi": 55,
            "name": "G3",
            "ticks": 598560,
            "time": 356.28535800000003,
            "velocity": 0.8267716535433071
          },
          {
            "duration": 0.11428560000001653,
            "durationTicks": 192,
            "midi": 58,
            "name": "A#3",
            "ticks": 598800,
            "time": 356.428215,
            "velocity": 0.8267716535433071
          },
          {
            "duration": 0.11428560000001653,
            "durationTicks": 192,
            "midi": 53,
            "name": "F3",
            "ticks": 599040,
            "time": 356.571072,
            "velocity": 0.8267716535433071
          },
          {
            "duration": 0.11428560000007337,
            "durationTicks": 192,
            "midi": 57,
            "name": "A3",
            "ticks": 599280,
            "time": 356.713929,
            "velocity": 0.8267716535433071
          },
          {
            "duration": 0.11428560000001653,
            "durationTicks": 192,
            "midi": 53,
            "name": "F3",
            "ticks": 599520,
            "time": 356.85678600000006,
            "velocity": 0.8267716535433071
          },
          {
            "duration": 0.11428560000001653,
            "durationTicks": 192,
            "midi": 57,
            "name": "A3",
            "ticks": 599760,
            "time": 356.99964300000005,
            "velocity": 0.8267716535433071
          },
          {
            "duration": 0.11428560000001653,
            "durationTicks": 192,
            "midi": 53,
            "name": "F3",
            "ticks": 600000,
            "time": 357.14250000000004,
            "velocity": 0.8267716535433071
          },
          {
            "duration": 0.11428560000001653,
            "durationTicks": 192,
            "midi": 57,
            "name": "A3",
            "ticks": 600240,
            "time": 357.28535700000003,
            "velocity": 0.8267716535433071
          },
          {
            "duration": 0.11428560000001653,
            "durationTicks": 192,
            "midi": 53,
            "name": "F3",
            "ticks": 600480,
            "time": 357.428214,
            "velocity": 0.8267716535433071
          },
          {
            "duration": 0.11428560000001653,
            "durationTicks": 192,
            "midi": 57,
            "name": "A3",
            "ticks": 600720,
            "time": 357.571071,
            "velocity": 0.8267716535433071
          },
          {
            "duration": 0.11428560000007337,
            "durationTicks": 192,
            "midi": 51,
            "name": "D#3",
            "ticks": 600960,
            "time": 357.713928,
            "velocity": 0.8267716535433071
          },
          {
            "duration": 0.11428560000007337,
            "durationTicks": 192,
            "midi": 55,
            "name": "G3",
            "ticks": 601200,
            "time": 357.856785,
            "velocity": 0.8267716535433071
          },
          {
            "duration": 0.11428560000001653,
            "durationTicks": 192,
            "midi": 51,
            "name": "D#3",
            "ticks": 601440,
            "time": 357.99964200000005,
            "velocity": 0.8267716535433071
          },
          {
            "duration": 0.11428560000001653,
            "durationTicks": 192,
            "midi": 55,
            "name": "G3",
            "ticks": 601680,
            "time": 358.14249900000004,
            "velocity": 0.8267716535433071
          },
          {
            "duration": 0.11428560000001653,
            "durationTicks": 192,
            "midi": 51,
            "name": "D#3",
            "ticks": 601920,
            "time": 358.28535600000004,
            "velocity": 0.8267716535433071
          },
          {
            "duration": 0.11428560000001653,
            "durationTicks": 192,
            "midi": 55,
            "name": "G3",
            "ticks": 602160,
            "time": 358.428213,
            "velocity": 0.8267716535433071
          },
          {
            "duration": 0.11428560000001653,
            "durationTicks": 192,
            "midi": 51,
            "name": "D#3",
            "ticks": 602400,
            "time": 358.57107,
            "velocity": 0.8267716535433071
          },
          {
            "duration": 0.11428560000001653,
            "durationTicks": 192,
            "midi": 55,
            "name": "G3",
            "ticks": 602640,
            "time": 358.713927,
            "velocity": 0.8267716535433071
          },
          {
            "duration": 0.11428560000007337,
            "durationTicks": 192,
            "midi": 50,
            "name": "D3",
            "ticks": 602880,
            "time": 358.856784,
            "velocity": 0.8267716535433071
          },
          {
            "duration": 0.11428560000001653,
            "durationTicks": 192,
            "midi": 55,
            "name": "G3",
            "ticks": 603120,
            "time": 358.99964100000005,
            "velocity": 0.8267716535433071
          },
          {
            "duration": 0.11428560000001653,
            "durationTicks": 192,
            "midi": 50,
            "name": "D3",
            "ticks": 603360,
            "time": 359.14249800000005,
            "velocity": 0.8267716535433071
          },
          {
            "duration": 0.11428560000001653,
            "durationTicks": 192,
            "midi": 55,
            "name": "G3",
            "ticks": 603600,
            "time": 359.28535500000004,
            "velocity": 0.8267716535433071
          },
          {
            "duration": 0.11428560000001653,
            "durationTicks": 192,
            "midi": 50,
            "name": "D3",
            "ticks": 603840,
            "time": 359.42821200000003,
            "velocity": 0.8267716535433071
          },
          {
            "duration": 0.11428560000001653,
            "durationTicks": 192,
            "midi": 55,
            "name": "G3",
            "ticks": 604080,
            "time": 359.571069,
            "velocity": 0.8267716535433071
          },
          {
            "duration": 0.11428560000001653,
            "durationTicks": 192,
            "midi": 50,
            "name": "D3",
            "ticks": 604320,
            "time": 359.713926,
            "velocity": 0.8267716535433071
          },
          {
            "duration": 0.11428560000007337,
            "durationTicks": 192,
            "midi": 55,
            "name": "G3",
            "ticks": 604560,
            "time": 359.856783,
            "velocity": 0.8267716535433071
          },
          {
            "duration": 0.11428560000001653,
            "durationTicks": 192,
            "midi": 48,
            "name": "C3",
            "ticks": 604800,
            "time": 359.99964000000006,
            "velocity": 0.8267716535433071
          },
          {
            "duration": 0.11428560000001653,
            "durationTicks": 192,
            "midi": 51,
            "name": "D#3",
            "ticks": 605040,
            "time": 360.14249700000005,
            "velocity": 0.8267716535433071
          },
          {
            "duration": 0.11428560000001653,
            "durationTicks": 192,
            "midi": 48,
            "name": "C3",
            "ticks": 605280,
            "time": 360.28535400000004,
            "velocity": 0.8267716535433071
          },
          {
            "duration": 0.11428560000001653,
            "durationTicks": 192,
            "midi": 51,
            "name": "D#3",
            "ticks": 605520,
            "time": 360.42821100000003,
            "velocity": 0.8267716535433071
          },
          {
            "duration": 0.11428560000001653,
            "durationTicks": 192,
            "midi": 48,
            "name": "C3",
            "ticks": 605760,
            "time": 360.571068,
            "velocity": 0.8267716535433071
          },
          {
            "duration": 0.11428560000001653,
            "durationTicks": 192,
            "midi": 51,
            "name": "D#3",
            "ticks": 606000,
            "time": 360.713925,
            "velocity": 0.8267716535433071
          },
          {
            "duration": 0.11428560000007337,
            "durationTicks": 192,
            "midi": 48,
            "name": "C3",
            "ticks": 606240,
            "time": 360.856782,
            "velocity": 0.8267716535433071
          },
          {
            "duration": 0.11428560000007337,
            "durationTicks": 192,
            "midi": 51,
            "name": "D#3",
            "ticks": 606480,
            "time": 360.999639,
            "velocity": 0.8267716535433071
          },
          {
            "duration": 0.11428560000001653,
            "durationTicks": 192,
            "midi": 46,
            "name": "A#2",
            "ticks": 606720,
            "time": 361.14249600000005,
            "velocity": 0.8267716535433071
          },
          {
            "duration": 0.11428560000001653,
            "durationTicks": 192,
            "midi": 50,
            "name": "D3",
            "ticks": 606960,
            "time": 361.28535300000004,
            "velocity": 0.8267716535433071
          },
          {
            "duration": 0.11428560000001653,
            "durationTicks": 192,
            "midi": 46,
            "name": "A#2",
            "ticks": 607200,
            "time": 361.42821000000004,
            "velocity": 0.8267716535433071
          },
          {
            "duration": 0.11428560000001653,
            "durationTicks": 192,
            "midi": 50,
            "name": "D3",
            "ticks": 607440,
            "time": 361.571067,
            "velocity": 0.8267716535433071
          },
          {
            "duration": 0.11428560000001653,
            "durationTicks": 192,
            "midi": 46,
            "name": "A#2",
            "ticks": 607680,
            "time": 361.713924,
            "velocity": 0.8267716535433071
          },
          {
            "duration": 0.11428560000001653,
            "durationTicks": 192,
            "midi": 50,
            "name": "D3",
            "ticks": 607920,
            "time": 361.856781,
            "velocity": 0.8267716535433071
          },
          {
            "duration": 0.11428560000007337,
            "durationTicks": 192,
            "midi": 46,
            "name": "A#2",
            "ticks": 608160,
            "time": 361.999638,
            "velocity": 0.8267716535433071
          },
          {
            "duration": 0.11428560000001653,
            "durationTicks": 192,
            "midi": 50,
            "name": "D3",
            "ticks": 608400,
            "time": 362.14249500000005,
            "velocity": 0.8267716535433071
          },
          {
            "duration": 0.9142848000000185,
            "durationTicks": 1536,
            "midi": 45,
            "name": "A2",
            "ticks": 608640,
            "time": 362.28535200000005,
            "velocity": 0.984251968503937
          },
          {
            "duration": 0.45714239999995243,
            "durationTicks": 768,
            "midi": 45,
            "name": "A2",
            "ticks": 610560,
            "time": 363.42820800000004,
            "velocity": 0.984251968503937
          },
          {
            "duration": 0.4571424000000093,
            "durationTicks": 768,
            "midi": 46,
            "name": "A#2",
            "ticks": 611520,
            "time": 363.999636,
            "velocity": 0.984251968503937
          },
          {
            "duration": 0.45714239999995243,
            "durationTicks": 768,
            "midi": 45,
            "name": "A2",
            "ticks": 612480,
            "time": 364.57106400000004,
            "velocity": 0.984251968503937
          },
          {
            "duration": 0.4571424000000093,
            "durationTicks": 768,
            "midi": 46,
            "name": "A#2",
            "ticks": 613440,
            "time": 365.142492,
            "velocity": 0.984251968503937
          },
          {
            "duration": 0.45714239999995243,
            "durationTicks": 768,
            "midi": 45,
            "name": "A2",
            "ticks": 614400,
            "time": 365.71392000000003,
            "velocity": 0.984251968503937
          },
          {
            "duration": 0.11428560000001653,
            "durationTicks": 192,
            "midi": 45,
            "name": "A2",
            "ticks": 616080,
            "time": 366.71391900000003,
            "velocity": 0.8267716535433071
          },
          {
            "duration": 0.11428560000001653,
            "durationTicks": 192,
            "midi": 50,
            "name": "D3",
            "ticks": 616320,
            "time": 366.856776,
            "velocity": 0.8267716535433071
          },
          {
            "duration": 0.11428560000001653,
            "durationTicks": 192,
            "midi": 62,
            "name": "D4",
            "ticks": 616560,
            "time": 366.999633,
            "velocity": 0.8267716535433071
          },
          {
            "duration": 0.11428560000007337,
            "durationTicks": 192,
            "midi": 62,
            "name": "D4",
            "ticks": 616800,
            "time": 367.14249,
            "velocity": 0.8267716535433071
          },
          {
            "duration": 0.11428560000001653,
            "durationTicks": 192,
            "midi": 62,
            "name": "D4",
            "ticks": 617040,
            "time": 367.28534700000006,
            "velocity": 0.8267716535433071
          },
          {
            "duration": 0.11428560000001653,
            "durationTicks": 192,
            "midi": 62,
            "name": "D4",
            "ticks": 617280,
            "time": 367.42820400000005,
            "velocity": 0.8267716535433071
          },
          {
            "duration": 0.11428560000001653,
            "durationTicks": 192,
            "midi": 62,
            "name": "D4",
            "ticks": 617520,
            "time": 367.57106100000004,
            "velocity": 0.8267716535433071
          },
          {
            "duration": 0.11428560000001653,
            "durationTicks": 192,
            "midi": 62,
            "name": "D4",
            "ticks": 617760,
            "time": 367.71391800000004,
            "velocity": 0.8267716535433071
          },
          {
            "duration": 0.11428560000001653,
            "durationTicks": 192,
            "midi": 62,
            "name": "D4",
            "ticks": 618000,
            "time": 367.856775,
            "velocity": 0.8267716535433071
          },
          {
            "duration": 0.11428560000001653,
            "durationTicks": 192,
            "midi": 62,
            "name": "D4",
            "ticks": 618240,
            "time": 367.999632,
            "velocity": 0.8267716535433071
          },
          {
            "duration": 0.11428560000001653,
            "durationTicks": 192,
            "midi": 62,
            "name": "D4",
            "ticks": 618480,
            "time": 368.142489,
            "velocity": 0.8267716535433071
          },
          {
            "duration": 0.11428560000007337,
            "durationTicks": 192,
            "midi": 62,
            "name": "D4",
            "ticks": 618720,
            "time": 368.285346,
            "velocity": 0.8267716535433071
          },
          {
            "duration": 0.11428560000001653,
            "durationTicks": 192,
            "midi": 62,
            "name": "D4",
            "ticks": 618960,
            "time": 368.42820300000005,
            "velocity": 0.8267716535433071
          },
          {
            "duration": 0.11428560000001653,
            "durationTicks": 192,
            "midi": 62,
            "name": "D4",
            "ticks": 619200,
            "time": 368.57106000000005,
            "velocity": 0.8267716535433071
          },
          {
            "duration": 0.11428560000001653,
            "durationTicks": 192,
            "midi": 62,
            "name": "D4",
            "ticks": 619440,
            "time": 368.71391700000004,
            "velocity": 0.8267716535433071
          },
          {
            "duration": 0.11428560000001653,
            "durationTicks": 192,
            "midi": 62,
            "name": "D4",
            "ticks": 619680,
            "time": 368.85677400000003,
            "velocity": 0.8267716535433071
          },
          {
            "duration": 0.11428560000001653,
            "durationTicks": 192,
            "midi": 62,
            "name": "D4",
            "ticks": 619920,
            "time": 368.999631,
            "velocity": 0.8267716535433071
          },
          {
            "duration": 0.11428560000001653,
            "durationTicks": 192,
            "midi": 62,
            "name": "D4",
            "ticks": 620160,
            "time": 369.142488,
            "velocity": 0.8267716535433071
          },
          {
            "duration": 0.11428560000007337,
            "durationTicks": 192,
            "midi": 62,
            "name": "D4",
            "ticks": 620400,
            "time": 369.285345,
            "velocity": 0.8267716535433071
          },
          {
            "duration": 0.11428560000001653,
            "durationTicks": 192,
            "midi": 62,
            "name": "D4",
            "ticks": 620640,
            "time": 369.42820200000006,
            "velocity": 0.8267716535433071
          },
          {
            "duration": 0.11428560000001653,
            "durationTicks": 192,
            "midi": 62,
            "name": "D4",
            "ticks": 620880,
            "time": 369.57105900000005,
            "velocity": 0.8267716535433071
          },
          {
            "duration": 0.11428560000001653,
            "durationTicks": 192,
            "midi": 62,
            "name": "D4",
            "ticks": 621120,
            "time": 369.71391600000004,
            "velocity": 0.8267716535433071
          },
          {
            "duration": 0.11428560000001653,
            "durationTicks": 192,
            "midi": 62,
            "name": "D4",
            "ticks": 621360,
            "time": 369.85677300000003,
            "velocity": 0.8267716535433071
          },
          {
            "duration": 0.11428560000001653,
            "durationTicks": 192,
            "midi": 62,
            "name": "D4",
            "ticks": 621600,
            "time": 369.99963,
            "velocity": 0.8267716535433071
          },
          {
            "duration": 0.11428560000001653,
            "durationTicks": 192,
            "midi": 62,
            "name": "D4",
            "ticks": 621840,
            "time": 370.142487,
            "velocity": 0.8267716535433071
          },
          {
            "duration": 0.11428560000007337,
            "durationTicks": 192,
            "midi": 62,
            "name": "D4",
            "ticks": 622080,
            "time": 370.285344,
            "velocity": 0.8267716535433071
          },
          {
            "duration": 0.11428560000001653,
            "durationTicks": 192,
            "midi": 62,
            "name": "D4",
            "ticks": 622320,
            "time": 370.42820100000006,
            "velocity": 0.8267716535433071
          },
          {
            "duration": 0.11428560000001653,
            "durationTicks": 192,
            "midi": 62,
            "name": "D4",
            "ticks": 622560,
            "time": 370.57105800000005,
            "velocity": 0.8267716535433071
          },
          {
            "duration": 0.11428560000001653,
            "durationTicks": 192,
            "midi": 62,
            "name": "D4",
            "ticks": 622800,
            "time": 370.71391500000004,
            "velocity": 0.8267716535433071
          },
          {
            "duration": 0.11428560000001653,
            "durationTicks": 192,
            "midi": 62,
            "name": "D4",
            "ticks": 623040,
            "time": 370.85677200000003,
            "velocity": 0.8267716535433071
          },
          {
            "duration": 0.11428560000001653,
            "durationTicks": 192,
            "midi": 62,
            "name": "D4",
            "ticks": 623280,
            "time": 370.999629,
            "velocity": 0.8267716535433071
          },
          {
            "duration": 0.11428560000001653,
            "durationTicks": 192,
            "midi": 62,
            "name": "D4",
            "ticks": 623520,
            "time": 371.142486,
            "velocity": 0.8267716535433071
          },
          {
            "duration": 0.11428560000001653,
            "durationTicks": 192,
            "midi": 62,
            "name": "D4",
            "ticks": 623760,
            "time": 371.285343,
            "velocity": 0.8267716535433071
          },
          {
            "duration": 0.22857120000003306,
            "durationTicks": 384,
            "midi": 62,
            "name": "D4",
            "ticks": 624000,
            "time": 371.4282,
            "velocity": 0.8267716535433071
          },
          {
            "duration": 0.22857119999997622,
            "durationTicks": 384,
            "midi": 50,
            "name": "D3",
            "ticks": 624960,
            "time": 371.99962800000003,
            "velocity": 0.7244094488188977
          },
          {
            "duration": 0.8571419999999534,
            "durationTicks": 1440,
            "midi": 58,
            "name": "A#3",
            "ticks": 627840,
            "time": 373.71391200000005,
            "velocity": 0.4566929133858268
          },
          {
            "duration": 0.2857140000000413,
            "durationTicks": 480,
            "midi": 57,
            "name": "A3",
            "ticks": 629280,
            "time": 374.571054,
            "velocity": 0.4566929133858268
          },
          {
            "duration": 0.22857119999997622,
            "durationTicks": 384,
            "midi": 50,
            "name": "D3",
            "ticks": 629760,
            "time": 374.85676800000005,
            "velocity": 0.4566929133858268
          },
          {
            "duration": 0.2857139999999845,
            "durationTicks": 480,
            "midi": 53,
            "name": "F3",
            "ticks": 632160,
            "time": 376.285338,
            "velocity": 0.4566929133858268
          },
          {
            "duration": 0.2857140000000413,
            "durationTicks": 480,
            "midi": 52,
            "name": "E3",
            "ticks": 632640,
            "time": 376.571052,
            "velocity": 0.4566929133858268
          },
          {
            "duration": 0.2857139999999845,
            "durationTicks": 480,
            "midi": 51,
            "name": "D#3",
            "ticks": 633120,
            "time": 376.85676600000005,
            "velocity": 0.4566929133858268
          },
          {
            "duration": 0.45714239999995243,
            "durationTicks": 768,
            "midi": 50,
            "name": "D3",
            "ticks": 633600,
            "time": 377.14248000000003,
            "velocity": 0.4566929133858268
          },
          {
            "duration": 0.8571420000000103,
            "durationTicks": 1440,
            "midi": 48,
            "name": "C3",
            "ticks": 635520,
            "time": 378.28533600000003,
            "velocity": 0.4566929133858268
          },
          {
            "duration": 0.22857119999997622,
            "durationTicks": 384,
            "midi": 46,
            "name": "A#2",
            "ticks": 636960,
            "time": 379.14247800000004,
            "velocity": 0.4566929133858268
          },
          {
            "duration": 0.2857139999999845,
            "durationTicks": 480,
            "midi": 45,
            "name": "A2",
            "ticks": 637440,
            "time": 379.428192,
            "velocity": 0.4566929133858268
          },
          {
            "duration": 0.2857140000000413,
            "durationTicks": 480,
            "midi": 50,
            "name": "D3",
            "ticks": 637920,
            "time": 379.713906,
            "velocity": 0.4566929133858268
          },
          {
            "duration": 0.2857139999999845,
            "durationTicks": 480,
            "midi": 43,
            "name": "G2",
            "ticks": 638400,
            "time": 379.99962000000005,
            "velocity": 0.4566929133858268
          },
          {
            "duration": 0.22857119999997622,
            "durationTicks": 384,
            "midi": 51,
            "name": "D#3",
            "ticks": 638880,
            "time": 380.28533400000003,
            "velocity": 0.4566929133858268
          },
          {
            "duration": 0.22857119999997622,
            "durationTicks": 384,
            "midi": 48,
            "name": "C3",
            "ticks": 639360,
            "time": 380.571048,
            "velocity": 0.4566929133858268
          },
          {
            "duration": 0.22857119999997622,
            "durationTicks": 384,
            "midi": 50,
            "name": "D3",
            "ticks": 640320,
            "time": 381.14247600000004,
            "velocity": 0.4566929133858268
          },
          {
            "duration": 0.22857120000003306,
            "durationTicks": 384,
            "midi": 43,
            "name": "G2",
            "ticks": 641280,
            "time": 381.713904,
            "velocity": 0.4566929133858268
          },
          {
            "duration": 0.8571420000000103,
            "durationTicks": 1440,
            "midi": 60,
            "name": "C4",
            "ticks": 650880,
            "time": 387.42818400000004,
            "velocity": 0.4566929133858268
          },
          {
            "duration": 0.22857119999997622,
            "durationTicks": 384,
            "midi": 58,
            "name": "A#3",
            "ticks": 652320,
            "time": 388.28532600000005,
            "velocity": 0.4566929133858268
          },
          {
            "duration": 0.2857139999999845,
            "durationTicks": 480,
            "midi": 57,
            "name": "A3",
            "ticks": 652800,
            "time": 388.57104000000004,
            "velocity": 0.4566929133858268
          },
          {
            "duration": 0.2857139999999845,
            "durationTicks": 480,
            "midi": 50,
            "name": "D3",
            "ticks": 653280,
            "time": 388.856754,
            "velocity": 0.4566929133858268
          },
          {
            "duration": 0.2857140000000413,
            "durationTicks": 480,
            "midi": 55,
            "name": "G3",
            "ticks": 653760,
            "time": 389.142468,
            "velocity": 0.4566929133858268
          },
          {
            "duration": 0.22857119999997622,
            "durationTicks": 384,
            "midi": 51,
            "name": "D#3",
            "ticks": 654240,
            "time": 389.42818200000005,
            "velocity": 0.4566929133858268
          },
          {
            "duration": 4.514281199999971,
            "durationTicks": 7584,
            "midi": 46,
            "name": "A#2",
            "ticks": 654720,
            "time": 389.71389600000003,
            "velocity": 0.4566929133858268
          },
          {
            "duration": 0.11428560000007337,
            "durationTicks": 192,
            "midi": 46,
            "name": "A#2",
            "ticks": 662400,
            "time": 394.28532,
            "velocity": 0.5511811023622047
          },
          {
            "duration": 0.11428560000007337,
            "durationTicks": 192,
            "midi": 58,
            "name": "A#3",
            "ticks": 662640,
            "time": 394.428177,
            "velocity": 0.5511811023622047
          },
          {
            "duration": 0.11428560000001653,
            "durationTicks": 192,
            "midi": 58,
            "name": "A#3",
            "ticks": 662880,
            "time": 394.57103400000005,
            "velocity": 0.5669291338582677
          },
          {
            "duration": 0.11428560000001653,
            "durationTicks": 192,
            "midi": 58,
            "name": "A#3",
            "ticks": 663120,
            "time": 394.71389100000005,
            "velocity": 0.5905511811023622
          },
          {
            "duration": 0.11428560000001653,
            "durationTicks": 192,
            "midi": 58,
            "name": "A#3",
            "ticks": 663360,
            "time": 394.85674800000004,
            "velocity": 0.6141732283464567
          },
          {
            "duration": 0.11428560000001653,
            "durationTicks": 192,
            "midi": 58,
            "name": "A#3",
            "ticks": 663600,
            "time": 394.99960500000003,
            "velocity": 0.6299212598425197
          },
          {
            "duration": 0.11428560000001653,
            "durationTicks": 192,
            "midi": 58,
            "name": "A#3",
            "ticks": 663840,
            "time": 395.142462,
            "velocity": 0.6535433070866141
          },
          {
            "duration": 0.11428560000001653,
            "durationTicks": 192,
            "midi": 58,
            "name": "A#3",
            "ticks": 664080,
            "time": 395.285319,
            "velocity": 0.6771653543307087
          },
          {
            "duration": 0.11428560000007337,
            "durationTicks": 192,
            "midi": 59,
            "name": "B3",
            "ticks": 664320,
            "time": 395.428176,
            "velocity": 0.6929133858267716
          },
          {
            "duration": 0.11428560000001653,
            "durationTicks": 192,
            "midi": 59,
            "name": "B3",
            "ticks": 664560,
            "time": 395.57103300000006,
            "velocity": 0.7165354330708661
          },
          {
            "duration": 0.11428560000001653,
            "durationTicks": 192,
            "midi": 59,
            "name": "B3",
            "ticks": 664800,
            "time": 395.71389000000005,
            "velocity": 0.7401574803149606
          },
          {
            "duration": 0.11428560000001653,
            "durationTicks": 192,
            "midi": 59,
            "name": "B3",
            "ticks": 665040,
            "time": 395.85674700000004,
            "velocity": 0.7559055118110236
          },
          {
            "duration": 0.11428560000001653,
            "durationTicks": 192,
            "midi": 59,
            "name": "B3",
            "ticks": 665280,
            "time": 395.99960400000003,
            "velocity": 0.7795275590551181
          },
          {
            "duration": 0.11428560000001653,
            "durationTicks": 192,
            "midi": 59,
            "name": "B3",
            "ticks": 665520,
            "time": 396.142461,
            "velocity": 0.8031496062992126
          },
          {
            "duration": 0.11428560000001653,
            "durationTicks": 192,
            "midi": 59,
            "name": "B3",
            "ticks": 665760,
            "time": 396.285318,
            "velocity": 0.8267716535433071
          },
          {
            "duration": 0.11428560000007337,
            "durationTicks": 192,
            "midi": 59,
            "name": "B3",
            "ticks": 666000,
            "time": 396.428175,
            "velocity": 0.8267716535433071
          },
          {
            "duration": 0.11428560000001653,
            "durationTicks": 192,
            "midi": 60,
            "name": "C4",
            "ticks": 666240,
            "time": 396.57103200000006,
            "velocity": 0.8267716535433071
          },
          {
            "duration": 0.11428560000001653,
            "durationTicks": 192,
            "midi": 60,
            "name": "C4",
            "ticks": 666480,
            "time": 396.71388900000005,
            "velocity": 0.8267716535433071
          },
          {
            "duration": 0.11428560000001653,
            "durationTicks": 192,
            "midi": 60,
            "name": "C4",
            "ticks": 666720,
            "time": 396.85674600000004,
            "velocity": 0.8267716535433071
          },
          {
            "duration": 0.11428560000001653,
            "durationTicks": 192,
            "midi": 60,
            "name": "C4",
            "ticks": 666960,
            "time": 396.99960300000004,
            "velocity": 0.8267716535433071
          },
          {
            "duration": 0.11428560000001653,
            "durationTicks": 192,
            "midi": 60,
            "name": "C4",
            "ticks": 667200,
            "time": 397.14246,
            "velocity": 0.8267716535433071
          },
          {
            "duration": 0.11428560000001653,
            "durationTicks": 192,
            "midi": 60,
            "name": "C4",
            "ticks": 667440,
            "time": 397.285317,
            "velocity": 0.8267716535433071
          },
          {
            "duration": 0.11428560000007337,
            "durationTicks": 192,
            "midi": 60,
            "name": "C4",
            "ticks": 667680,
            "time": 397.428174,
            "velocity": 0.8267716535433071
          },
          {
            "duration": 0.11428560000007337,
            "durationTicks": 192,
            "midi": 60,
            "name": "C4",
            "ticks": 667920,
            "time": 397.571031,
            "velocity": 0.8267716535433071
          },
          {
            "duration": 0.11428560000001653,
            "durationTicks": 192,
            "midi": 61,
            "name": "C#4",
            "ticks": 668160,
            "time": 397.71388800000005,
            "velocity": 0.8267716535433071
          },
          {
            "duration": 0.11428560000001653,
            "durationTicks": 192,
            "midi": 61,
            "name": "C#4",
            "ticks": 668400,
            "time": 397.85674500000005,
            "velocity": 0.8267716535433071
          },
          {
            "duration": 0.11428560000001653,
            "durationTicks": 192,
            "midi": 61,
            "name": "C#4",
            "ticks": 668640,
            "time": 397.99960200000004,
            "velocity": 0.8267716535433071
          },
          {
            "duration": 0.11428560000001653,
            "durationTicks": 192,
            "midi": 61,
            "name": "C#4",
            "ticks": 668880,
            "time": 398.14245900000003,
            "velocity": 0.8267716535433071
          },
          {
            "duration": 0.11428560000001653,
            "durationTicks": 192,
            "midi": 61,
            "name": "C#4",
            "ticks": 669120,
            "time": 398.285316,
            "velocity": 0.8267716535433071
          },
          {
            "duration": 0.11428560000001653,
            "durationTicks": 192,
            "midi": 61,
            "name": "C#4",
            "ticks": 669360,
            "time": 398.428173,
            "velocity": 0.8267716535433071
          },
          {
            "duration": 0.11428560000007337,
            "durationTicks": 192,
            "midi": 61,
            "name": "C#4",
            "ticks": 669600,
            "time": 398.57103,
            "velocity": 0.8267716535433071
          },
          {
            "duration": 0.11428560000001653,
            "durationTicks": 192,
            "midi": 61,
            "name": "C#4",
            "ticks": 669840,
            "time": 398.71388700000006,
            "velocity": 0.8267716535433071
          },
          {
            "duration": 0.11428560000001653,
            "durationTicks": 192,
            "midi": 62,
            "name": "D4",
            "ticks": 670080,
            "time": 398.85674400000005,
            "velocity": 0.8267716535433071
          },
          {
            "duration": 0.11428560000001653,
            "durationTicks": 192,
            "midi": 62,
            "name": "D4",
            "ticks": 670320,
            "time": 398.99960100000004,
            "velocity": 0.8267716535433071
          },
          {
            "duration": 0.11428560000001653,
            "durationTicks": 192,
            "midi": 62,
            "name": "D4",
            "ticks": 670560,
            "time": 399.14245800000003,
            "velocity": 0.8267716535433071
          },
          {
            "duration": 0.11428560000001653,
            "durationTicks": 192,
            "midi": 62,
            "name": "D4",
            "ticks": 670800,
            "time": 399.285315,
            "velocity": 0.8267716535433071
          },
          {
            "duration": 0.11428560000001653,
            "durationTicks": 192,
            "midi": 62,
            "name": "D4",
            "ticks": 671040,
            "time": 399.428172,
            "velocity": 0.8267716535433071
          },
          {
            "duration": 0.11428560000007337,
            "durationTicks": 192,
            "midi": 62,
            "name": "D4",
            "ticks": 671280,
            "time": 399.571029,
            "velocity": 0.8267716535433071
          },
          {
            "duration": 0.11428560000001653,
            "durationTicks": 192,
            "midi": 62,
            "name": "D4",
            "ticks": 671520,
            "time": 399.71388600000006,
            "velocity": 0.8267716535433071
          },
          {
            "duration": 0.11428560000001653,
            "durationTicks": 192,
            "midi": 62,
            "name": "D4",
            "ticks": 671760,
            "time": 399.85674300000005,
            "velocity": 0.8267716535433071
          },
          {
            "duration": 0.11428560000001653,
            "durationTicks": 192,
            "midi": 63,
            "name": "D#4",
            "ticks": 672000,
            "time": 399.99960000000004,
            "velocity": 0.8267716535433071
          },
          {
            "duration": 0.11428560000001653,
            "durationTicks": 192,
            "midi": 63,
            "name": "D#4",
            "ticks": 672240,
            "time": 400.14245700000004,
            "velocity": 0.8267716535433071
          },
          {
            "duration": 0.11428560000001653,
            "durationTicks": 192,
            "midi": 63,
            "name": "D#4",
            "ticks": 672480,
            "time": 400.285314,
            "velocity": 0.8267716535433071
          },
          {
            "duration": 0.11428560000001653,
            "durationTicks": 192,
            "midi": 63,
            "name": "D#4",
            "ticks": 672720,
            "time": 400.428171,
            "velocity": 0.8267716535433071
          },
          {
            "duration": 0.11428560000007337,
            "durationTicks": 192,
            "midi": 63,
            "name": "D#4",
            "ticks": 672960,
            "time": 400.571028,
            "velocity": 0.8267716535433071
          },
          {
            "duration": 0.11428560000007337,
            "durationTicks": 192,
            "midi": 63,
            "name": "D#4",
            "ticks": 673200,
            "time": 400.713885,
            "velocity": 0.8267716535433071
          },
          {
            "duration": 0.11428560000001653,
            "durationTicks": 192,
            "midi": 63,
            "name": "D#4",
            "ticks": 673440,
            "time": 400.85674200000005,
            "velocity": 0.8267716535433071
          },
          {
            "duration": 0.11428560000001653,
            "durationTicks": 192,
            "midi": 63,
            "name": "D#4",
            "ticks": 673680,
            "time": 400.99959900000005,
            "velocity": 0.8267716535433071
          },
          {
            "duration": 0.11428560000001653,
            "durationTicks": 192,
            "midi": 64,
            "name": "E4",
            "ticks": 673920,
            "time": 401.14245600000004,
            "velocity": 0.8267716535433071
          },
          {
            "duration": 0.11428560000001653,
            "durationTicks": 192,
            "midi": 64,
            "name": "E4",
            "ticks": 674160,
            "time": 401.28531300000003,
            "velocity": 0.8267716535433071
          },
          {
            "duration": 0.11428560000001653,
            "durationTicks": 192,
            "midi": 64,
            "name": "E4",
            "ticks": 674400,
            "time": 401.42817,
            "velocity": 0.8267716535433071
          },
          {
            "duration": 0.11428560000001653,
            "durationTicks": 192,
            "midi": 64,
            "name": "E4",
            "ticks": 674640,
            "time": 401.571027,
            "velocity": 0.8267716535433071
          },
          {
            "duration": 0.11428560000007337,
            "durationTicks": 192,
            "midi": 64,
            "name": "E4",
            "ticks": 674880,
            "time": 401.713884,
            "velocity": 0.8267716535433071
          },
          {
            "duration": 0.11428560000001653,
            "durationTicks": 192,
            "midi": 64,
            "name": "E4",
            "ticks": 675120,
            "time": 401.85674100000006,
            "velocity": 0.8267716535433071
          },
          {
            "duration": 0.11428560000001653,
            "durationTicks": 192,
            "midi": 64,
            "name": "E4",
            "ticks": 675360,
            "time": 401.99959800000005,
            "velocity": 0.8267716535433071
          },
          {
            "duration": 0.11428560000001653,
            "durationTicks": 192,
            "midi": 64,
            "name": "E4",
            "ticks": 675600,
            "time": 402.14245500000004,
            "velocity": 0.8267716535433071
          },
          {
            "duration": 0.11428560000001653,
            "durationTicks": 192,
            "midi": 62,
            "name": "D4",
            "ticks": 675840,
            "time": 402.28531200000003,
            "velocity": 0.8267716535433071
          },
          {
            "duration": 0.11428560000001653,
            "durationTicks": 192,
            "midi": 62,
            "name": "D4",
            "ticks": 676080,
            "time": 402.428169,
            "velocity": 0.8267716535433071
          },
          {
            "duration": 0.11428560000001653,
            "durationTicks": 192,
            "midi": 62,
            "name": "D4",
            "ticks": 676320,
            "time": 402.571026,
            "velocity": 0.8267716535433071
          },
          {
            "duration": 0.11428560000007337,
            "durationTicks": 192,
            "midi": 62,
            "name": "D4",
            "ticks": 676560,
            "time": 402.713883,
            "velocity": 0.8267716535433071
          },
          {
            "duration": 0.11428560000001653,
            "durationTicks": 192,
            "midi": 62,
            "name": "D4",
            "ticks": 676800,
            "time": 402.85674000000006,
            "velocity": 0.8267716535433071
          },
          {
            "duration": 0.11428560000001653,
            "durationTicks": 192,
            "midi": 62,
            "name": "D4",
            "ticks": 677040,
            "time": 402.99959700000005,
            "velocity": 0.8267716535433071
          },
          {
            "duration": 0.11428560000001653,
            "durationTicks": 192,
            "midi": 62,
            "name": "D4",
            "ticks": 677280,
            "time": 403.14245400000004,
            "velocity": 0.8267716535433071
          },
          {
            "duration": 0.11428560000001653,
            "durationTicks": 192,
            "midi": 62,
            "name": "D4",
            "ticks": 677520,
            "time": 403.28531100000004,
            "velocity": 0.8267716535433071
          },
          {
            "duration": 0.11428560000001653,
            "durationTicks": 192,
            "midi": 50,
            "name": "D3",
            "ticks": 677760,
            "time": 403.428168,
            "velocity": 0.8267716535433071
          },
          {
            "duration": 0.11428560000001653,
            "durationTicks": 192,
            "midi": 50,
            "name": "D3",
            "ticks": 678000,
            "time": 403.571025,
            "velocity": 0.8267716535433071
          },
          {
            "duration": 0.11428560000007337,
            "durationTicks": 192,
            "midi": 50,
            "name": "D3",
            "ticks": 678240,
            "time": 403.713882,
            "velocity": 0.8267716535433071
          },
          {
            "duration": 0.11428560000001653,
            "durationTicks": 192,
            "midi": 50,
            "name": "D3",
            "ticks": 678480,
            "time": 403.85673900000006,
            "velocity": 0.8267716535433071
          },
          {
            "duration": 0.11428560000001653,
            "durationTicks": 192,
            "midi": 50,
            "name": "D3",
            "ticks": 678720,
            "time": 403.99959600000005,
            "velocity": 0.8267716535433071
          },
          {
            "duration": 0.11428560000001653,
            "durationTicks": 192,
            "midi": 50,
            "name": "D3",
            "ticks": 678960,
            "time": 404.14245300000005,
            "velocity": 0.8267716535433071
          },
          {
            "duration": 0.11428560000001653,
            "durationTicks": 192,
            "midi": 50,
            "name": "D3",
            "ticks": 679200,
            "time": 404.28531000000004,
            "velocity": 0.8267716535433071
          },
          {
            "duration": 0.11428560000001653,
            "durationTicks": 192,
            "midi": 50,
            "name": "D3",
            "ticks": 679440,
            "time": 404.42816700000003,
            "velocity": 0.8267716535433071
          },
          {
            "duration": 0.22857119999997622,
            "durationTicks": 384,
            "midi": 55,
            "name": "G3",
            "ticks": 679680,
            "time": 404.571024,
            "velocity": 0.7244094488188977
          },
          {
            "duration": 0.4571424000000093,
            "durationTicks": 768,
            "midi": 46,
            "name": "A#2",
            "ticks": 680160,
            "time": 404.856738,
            "velocity": 0.984251968503937
          },
          {
            "duration": 0.17142839999996795,
            "durationTicks": 288,
            "midi": 48,
            "name": "C3",
            "ticks": 681120,
            "time": 405.42816600000003,
            "velocity": 0.8267716535433071
          },
          {
            "duration": 0.17142839999996795,
            "durationTicks": 288,
            "midi": 49,
            "name": "C#3",
            "ticks": 681600,
            "time": 405.71388,
            "velocity": 0.8267716535433071
          },
          {
            "duration": 0.17142839999996795,
            "durationTicks": 288,
            "midi": 50,
            "name": "D3",
            "ticks": 682080,
            "time": 405.99959400000006,
            "velocity": 0.8267716535433071
          },
          {
            "duration": 0.17142839999996795,
            "durationTicks": 288,
            "midi": 51,
            "name": "D#3",
            "ticks": 682560,
            "time": 406.28530800000004,
            "velocity": 0.8267716535433071
          },
          {
            "duration": 0.17142839999996795,
            "durationTicks": 288,
            "midi": 52,
            "name": "E3",
            "ticks": 683040,
            "time": 406.571022,
            "velocity": 0.8267716535433071
          },
          {
            "duration": 0.22857120000003306,
            "durationTicks": 384,
            "midi": 53,
            "name": "F3",
            "ticks": 683520,
            "time": 406.856736,
            "velocity": 0.8267716535433071
          },
          {
            "duration": 0.057142800000008265,
            "durationTicks": 96,
            "midi": 53,
            "name": "F3",
            "ticks": 684360,
            "time": 407.3567355,
            "velocity": 0.8267716535433071
          },
          {
            "duration": 0.22857119999997622,
            "durationTicks": 384,
            "midi": 51,
            "name": "D#3",
            "ticks": 684480,
            "time": 407.42816400000004,
            "velocity": 0.8267716535433071
          },
          {
            "duration": 0.057142800000008265,
            "durationTicks": 96,
            "midi": 51,
            "name": "D#3",
            "ticks": 685320,
            "time": 407.92816350000004,
            "velocity": 0.8267716535433071
          },
          {
            "duration": 0.22857120000003306,
            "durationTicks": 384,
            "midi": 60,
            "name": "C4",
            "ticks": 685440,
            "time": 407.999592,
            "velocity": 0.8267716535433071
          },
          {
            "duration": 0.05714280000006511,
            "durationTicks": 96,
            "midi": 60,
            "name": "C4",
            "ticks": 686280,
            "time": 408.4995915,
            "velocity": 0.8267716535433071
          },
          {
            "duration": 0.22857119999997622,
            "durationTicks": 384,
            "midi": 58,
            "name": "A#3",
            "ticks": 686400,
            "time": 408.57102000000003,
            "velocity": 0.8267716535433071
          },
          {
            "duration": 0.057142800000008265,
            "durationTicks": 96,
            "midi": 58,
            "name": "A#3",
            "ticks": 687240,
            "time": 409.07101950000003,
            "velocity": 0.8267716535433071
          },
          {
            "duration": 0.22857119999997622,
            "durationTicks": 384,
            "midi": 48,
            "name": "C3",
            "ticks": 687360,
            "time": 409.14244800000006,
            "velocity": 0.8267716535433071
          },
          {
            "duration": 0.22857119999997622,
            "durationTicks": 384,
            "midi": 50,
            "name": "D3",
            "ticks": 689280,
            "time": 410.28530400000005,
            "velocity": 0.5511811023622047
          },
          {
            "duration": 1.1428559999999948,
            "durationTicks": 1920,
            "midi": 60,
            "name": "C4",
            "ticks": 694080,
            "time": 413.142444,
            "velocity": 0.4566929133858268
          },
          {
            "duration": 0.22857120000003306,
            "durationTicks": 384,
            "midi": 58,
            "name": "A#3",
            "ticks": 696000,
            "time": 414.2853,
            "velocity": 0.4566929133858268
          },
          {
            "duration": 1.1428559999999948,
            "durationTicks": 1920,
            "midi": 48,
            "name": "C3",
            "ticks": 697920,
            "time": 415.42815600000006,
            "velocity": 0.4566929133858268
          },
          {
            "duration": 0.22857119999997622,
            "durationTicks": 384,
            "midi": 46,
            "name": "A#2",
            "ticks": 699840,
            "time": 416.57101200000005,
            "velocity": 0.4566929133858268
          },
          {
            "duration": 0.11428560000001653,
            "durationTicks": 192,
            "midi": 55,
            "name": "G3",
            "ticks": 700800,
            "time": 417.14244,
            "velocity": 0.8267716535433071
          },
          {
            "duration": 0.11428560000007337,
            "durationTicks": 192,
            "midi": 55,
            "name": "G3",
            "ticks": 701040,
            "time": 417.285297,
            "velocity": 0.8267716535433071
          },
          {
            "duration": 0.11428560000007337,
            "durationTicks": 192,
            "midi": 55,
            "name": "G3",
            "ticks": 701280,
            "time": 417.428154,
            "velocity": 0.8267716535433071
          },
          {
            "duration": 0.11428560000001653,
            "durationTicks": 192,
            "midi": 55,
            "name": "G3",
            "ticks": 701520,
            "time": 417.57101100000006,
            "velocity": 0.8267716535433071
          },
          {
            "duration": 0.11428560000001653,
            "durationTicks": 192,
            "midi": 55,
            "name": "G3",
            "ticks": 701760,
            "time": 417.71386800000005,
            "velocity": 0.8267716535433071
          },
          {
            "duration": 0.11428560000001653,
            "durationTicks": 192,
            "midi": 55,
            "name": "G3",
            "ticks": 702000,
            "time": 417.85672500000004,
            "velocity": 0.8267716535433071
          },
          {
            "duration": 0.11428560000001653,
            "durationTicks": 192,
            "midi": 55,
            "name": "G3",
            "ticks": 702240,
            "time": 417.99958200000003,
            "velocity": 0.8267716535433071
          },
          {
            "duration": 0.11428560000001653,
            "durationTicks": 192,
            "midi": 55,
            "name": "G3",
            "ticks": 702480,
            "time": 418.142439,
            "velocity": 0.8267716535433071
          },
          {
            "duration": 0.11428560000001653,
            "durationTicks": 192,
            "midi": 60,
            "name": "C4",
            "ticks": 702720,
            "time": 418.285296,
            "velocity": 0.8267716535433071
          },
          {
            "duration": 0.11428560000007337,
            "durationTicks": 192,
            "midi": 60,
            "name": "C4",
            "ticks": 702960,
            "time": 418.428153,
            "velocity": 0.8267716535433071
          },
          {
            "duration": 0.11428560000001653,
            "durationTicks": 192,
            "midi": 60,
            "name": "C4",
            "ticks": 703200,
            "time": 418.57101000000006,
            "velocity": 0.8267716535433071
          },
          {
            "duration": 0.11428560000001653,
            "durationTicks": 192,
            "midi": 60,
            "name": "C4",
            "ticks": 703440,
            "time": 418.71386700000005,
            "velocity": 0.8267716535433071
          },
          {
            "duration": 0.11428560000001653,
            "durationTicks": 192,
            "midi": 60,
            "name": "C4",
            "ticks": 703680,
            "time": 418.85672400000004,
            "velocity": 0.8267716535433071
          },
          {
            "duration": 0.11428560000001653,
            "durationTicks": 192,
            "midi": 60,
            "name": "C4",
            "ticks": 703920,
            "time": 418.99958100000003,
            "velocity": 0.8267716535433071
          },
          {
            "duration": 0.11428560000001653,
            "durationTicks": 192,
            "midi": 60,
            "name": "C4",
            "ticks": 704160,
            "time": 419.142438,
            "velocity": 0.8267716535433071
          },
          {
            "duration": 0.11428560000001653,
            "durationTicks": 192,
            "midi": 60,
            "name": "C4",
            "ticks": 704400,
            "time": 419.285295,
            "velocity": 0.8267716535433071
          },
          {
            "duration": 0.11428560000007337,
            "durationTicks": 192,
            "midi": 62,
            "name": "D4",
            "ticks": 704640,
            "time": 419.428152,
            "velocity": 0.8267716535433071
          },
          {
            "duration": 0.11428560000001653,
            "durationTicks": 192,
            "midi": 62,
            "name": "D4",
            "ticks": 704880,
            "time": 419.57100900000006,
            "velocity": 0.8267716535433071
          },
          {
            "duration": 0.11428560000001653,
            "durationTicks": 192,
            "midi": 62,
            "name": "D4",
            "ticks": 705120,
            "time": 419.71386600000005,
            "velocity": 0.8267716535433071
          },
          {
            "duration": 0.11428560000001653,
            "durationTicks": 192,
            "midi": 62,
            "name": "D4",
            "ticks": 705360,
            "time": 419.85672300000004,
            "velocity": 0.8267716535433071
          },
          {
            "duration": 0.11428560000001653,
            "durationTicks": 192,
            "midi": 50,
            "name": "D3",
            "ticks": 705600,
            "time": 419.99958000000004,
            "velocity": 0.8267716535433071
          },
          {
            "duration": 0.11428560000001653,
            "durationTicks": 192,
            "midi": 50,
            "name": "D3",
            "ticks": 705840,
            "time": 420.14243700000003,
            "velocity": 0.8267716535433071
          },
          {
            "duration": 0.11428560000001653,
            "durationTicks": 192,
            "midi": 50,
            "name": "D3",
            "ticks": 706080,
            "time": 420.285294,
            "velocity": 0.8267716535433071
          },
          {
            "duration": 0.11428560000007337,
            "durationTicks": 192,
            "midi": 50,
            "name": "D3",
            "ticks": 706320,
            "time": 420.428151,
            "velocity": 0.8267716535433071
          },
          {
            "duration": 0.22857120000003306,
            "durationTicks": 384,
            "midi": 55,
            "name": "G3",
            "ticks": 706560,
            "time": 420.571008,
            "velocity": 0.7244094488188977
          },
          {
            "duration": 1.1428559999999948,
            "durationTicks": 1920,
            "midi": 55,
            "name": "G3",
            "ticks": 707520,
            "time": 421.14243600000003,
            "velocity": 0.4566929133858268
          },
          {
            "duration": 0.22857119999997622,
            "durationTicks": 384,
            "midi": 54,
            "name": "F#3",
            "ticks": 709440,
            "time": 422.285292,
            "velocity": 0.4566929133858268
          },
          {
            "duration": 1.1428559999999948,
            "durationTicks": 1920,
            "midi": 43,
            "name": "G2",
            "ticks": 711360,
            "time": 423.428148,
            "velocity": 0.4566929133858268
          },
          {
            "duration": 0.22857120000003306,
            "durationTicks": 384,
            "midi": 42,
            "name": "F#2",
            "ticks": 713280,
            "time": 424.571004,
            "velocity": 0.4566929133858268
          },
          {
            "duration": 0.11428560000001653,
            "durationTicks": 192,
            "midi": 55,
            "name": "G3",
            "ticks": 716160,
            "time": 426.28528800000004,
            "velocity": 0.8267716535433071
          },
          {
            "duration": 0.11428560000001653,
            "durationTicks": 192,
            "midi": 55,
            "name": "G3",
            "ticks": 716400,
            "time": 426.42814500000003,
            "velocity": 0.8267716535433071
          },
          {
            "duration": 0.11428560000001653,
            "durationTicks": 192,
            "midi": 55,
            "name": "G3",
            "ticks": 716640,
            "time": 426.571002,
            "velocity": 0.8267716535433071
          },
          {
            "duration": 0.11428560000007337,
            "durationTicks": 192,
            "midi": 55,
            "name": "G3",
            "ticks": 716880,
            "time": 426.713859,
            "velocity": 0.8267716535433071
          },
          {
            "duration": 0.11428560000001653,
            "durationTicks": 192,
            "midi": 55,
            "name": "G3",
            "ticks": 717120,
            "time": 426.85671600000006,
            "velocity": 0.8267716535433071
          },
          {
            "duration": 0.11428560000001653,
            "durationTicks": 192,
            "midi": 55,
            "name": "G3",
            "ticks": 717360,
            "time": 426.99957300000005,
            "velocity": 0.8267716535433071
          },
          {
            "duration": 0.11428560000001653,
            "durationTicks": 192,
            "midi": 55,
            "name": "G3",
            "ticks": 717600,
            "time": 427.14243000000005,
            "velocity": 0.8267716535433071
          },
          {
            "duration": 0.11428560000001653,
            "durationTicks": 192,
            "midi": 55,
            "name": "G3",
            "ticks": 717840,
            "time": 427.28528700000004,
            "velocity": 0.8267716535433071
          },
          {
            "duration": 0.11428560000001653,
            "durationTicks": 192,
            "midi": 60,
            "name": "C4",
            "ticks": 718080,
            "time": 427.42814400000003,
            "velocity": 0.8267716535433071
          },
          {
            "duration": 0.11428560000001653,
            "durationTicks": 192,
            "midi": 60,
            "name": "C4",
            "ticks": 718320,
            "time": 427.571001,
            "velocity": 0.8267716535433071
          },
          {
            "duration": 0.11428560000007337,
            "durationTicks": 192,
            "midi": 60,
            "name": "C4",
            "ticks": 718560,
            "time": 427.713858,
            "velocity": 0.8267716535433071
          },
          {
            "duration": 0.11428560000007337,
            "durationTicks": 192,
            "midi": 60,
            "name": "C4",
            "ticks": 718800,
            "time": 427.856715,
            "velocity": 0.8267716535433071
          },
          {
            "duration": 0.11428560000001653,
            "durationTicks": 192,
            "midi": 60,
            "name": "C4",
            "ticks": 719040,
            "time": 427.99957200000006,
            "velocity": 0.8267716535433071
          },
          {
            "duration": 0.11428560000001653,
            "durationTicks": 192,
            "midi": 60,
            "name": "C4",
            "ticks": 719280,
            "time": 428.14242900000005,
            "velocity": 0.8267716535433071
          },
          {
            "duration": 0.11428560000001653,
            "durationTicks": 192,
            "midi": 60,
            "name": "C4",
            "ticks": 719520,
            "time": 428.28528600000004,
            "velocity": 0.8267716535433071
          },
          {
            "duration": 0.11428560000001653,
            "durationTicks": 192,
            "midi": 60,
            "name": "C4",
            "ticks": 719760,
            "time": 428.42814300000003,
            "velocity": 0.8267716535433071
          },
          {
            "duration": 0.11428560000001653,
            "durationTicks": 192,
            "midi": 62,
            "name": "D4",
            "ticks": 720000,
            "time": 428.571,
            "velocity": 0.8267716535433071
          },
          {
            "duration": 0.11428560000001653,
            "durationTicks": 192,
            "midi": 62,
            "name": "D4",
            "ticks": 720240,
            "time": 428.713857,
            "velocity": 0.8267716535433071
          },
          {
            "duration": 0.11428560000007337,
            "durationTicks": 192,
            "midi": 62,
            "name": "D4",
            "ticks": 720480,
            "time": 428.856714,
            "velocity": 0.8267716535433071
          },
          {
            "duration": 0.11428560000001653,
            "durationTicks": 192,
            "midi": 62,
            "name": "D4",
            "ticks": 720720,
            "time": 428.99957100000006,
            "velocity": 0.8267716535433071
          },
          {
            "duration": 0.11428560000001653,
            "durationTicks": 192,
            "midi": 50,
            "name": "D3",
            "ticks": 720960,
            "time": 429.14242800000005,
            "velocity": 0.8267716535433071
          },
          {
            "duration": 0.11428560000001653,
            "durationTicks": 192,
            "midi": 50,
            "name": "D3",
            "ticks": 721200,
            "time": 429.28528500000004,
            "velocity": 0.8267716535433071
          },
          {
            "duration": 0.11428560000001653,
            "durationTicks": 192,
            "midi": 50,
            "name": "D3",
            "ticks": 721440,
            "time": 429.42814200000004,
            "velocity": 0.8267716535433071
          },
          {
            "duration": 0.11428560000001653,
            "durationTicks": 192,
            "midi": 50,
            "name": "D3",
            "ticks": 721680,
            "time": 429.57099900000003,
            "velocity": 0.8267716535433071
          },
          {
            "duration": 0.4571424000000093,
            "durationTicks": 768,
            "midi": 55,
            "name": "G3",
            "ticks": 721920,
            "time": 429.713856,
            "velocity": 0.8267716535433071
          },
          {
            "duration": 0.11428560000001653,
            "durationTicks": 192,
            "midi": 62,
            "name": "D4",
            "ticks": 723600,
            "time": 430.713855,
            "velocity": 0.8267716535433071
          },
          {
            "duration": 0.11428560000007337,
            "durationTicks": 192,
            "midi": 60,
            "name": "C4",
            "ticks": 723840,
            "time": 430.856712,
            "velocity": 0.8267716535433071
          },
          {
            "duration": 0.11428560000007337,
            "durationTicks": 192,
            "midi": 58,
            "name": "A#3",
            "ticks": 724080,
            "time": 430.999569,
            "velocity": 0.8267716535433071
          },
          {
            "duration": 0.11428560000001653,
            "durationTicks": 192,
            "midi": 57,
            "name": "A3",
            "ticks": 724320,
            "time": 431.14242600000006,
            "velocity": 0.8267716535433071
          },
          {
            "duration": 0.11428560000001653,
            "durationTicks": 192,
            "midi": 55,
            "name": "G3",
            "ticks": 724560,
            "time": 431.28528300000005,
            "velocity": 0.8267716535433071
          },
          {
            "duration": 0.11428560000001653,
            "durationTicks": 192,
            "midi": 54,
            "name": "F#3",
            "ticks": 724800,
            "time": 431.42814000000004,
            "velocity": 0.8267716535433071
          },
          {
            "duration": 0.11428560000001653,
            "durationTicks": 192,
            "midi": 51,
            "name": "D#3",
            "ticks": 725040,
            "time": 431.57099700000003,
            "velocity": 0.8267716535433071
          },
          {
            "duration": 0.11428560000001653,
            "durationTicks": 192,
            "midi": 50,
            "name": "D3",
            "ticks": 725280,
            "time": 431.713854,
            "velocity": 0.8267716535433071
          },
          {
            "duration": 0.11428560000001653,
            "durationTicks": 192,
            "midi": 48,
            "name": "C3",
            "ticks": 725520,
            "time": 431.856711,
            "velocity": 0.8267716535433071
          },
          {
            "duration": 0.18571410000004107,
            "durationTicks": 312,
            "midi": 46,
            "name": "A#2",
            "ticks": 725760,
            "time": 431.999568,
            "velocity": 0.8267716535433071
          },
          {
            "duration": 0.18571409999998423,
            "durationTicks": 312,
            "midi": 46,
            "name": "A#2",
            "ticks": 726240,
            "time": 432.28528200000005,
            "velocity": 0.8267716535433071
          },
          {
            "duration": 0.18571410000004107,
            "durationTicks": 312,
            "midi": 48,
            "name": "C3",
            "ticks": 726720,
            "time": 432.57099600000004,
            "velocity": 0.8267716535433071
          },
          {
            "duration": 0.18571410000004107,
            "durationTicks": 312,
            "midi": 50,
            "name": "D3",
            "ticks": 727200,
            "time": 432.85671,
            "velocity": 0.8267716535433071
          },
          {
            "duration": 0.11428560000001653,
            "durationTicks": 192,
            "midi": 55,
            "name": "G3",
            "ticks": 727680,
            "time": 433.14242400000006,
            "velocity": 0.8267716535433071
          },
          {
            "duration": 0.11428560000001653,
            "durationTicks": 192,
            "midi": 50,
            "name": "D3",
            "ticks": 727920,
            "time": 433.28528100000005,
            "velocity": 0.8267716535433071
          },
          {
            "duration": 0.11428560000001653,
            "durationTicks": 192,
            "midi": 58,
            "name": "A#3",
            "ticks": 728160,
            "time": 433.42813800000005,
            "velocity": 0.8267716535433071
          },
          {
            "duration": 0.11428560000001653,
            "durationTicks": 192,
            "midi": 57,
            "name": "A3",
            "ticks": 728400,
            "time": 433.57099500000004,
            "velocity": 0.8267716535433071
          },
          {
            "duration": 0.11428560000001653,
            "durationTicks": 192,
            "midi": 55,
            "name": "G3",
            "ticks": 728640,
            "time": 433.71385200000003,
            "velocity": 0.8267716535433071
          },
          {
            "duration": 0.11428560000001653,
            "durationTicks": 192,
            "midi": 53,
            "name": "F3",
            "ticks": 728880,
            "time": 433.856709,
            "velocity": 0.8267716535433071
          },
          {
            "duration": 0.11428560000007337,
            "durationTicks": 192,
            "midi": 51,
            "name": "D#3",
            "ticks": 729120,
            "time": 433.999566,
            "velocity": 0.8267716535433071
          },
          {
            "duration": 0.11428560000007337,
            "durationTicks": 192,
            "midi": 50,
            "name": "D3",
            "ticks": 729360,
            "time": 434.142423,
            "velocity": 0.8267716535433071
          },
          {
            "duration": 0.11428560000001653,
            "durationTicks": 192,
            "midi": 49,
            "name": "C#3",
            "ticks": 729600,
            "time": 434.28528000000006,
            "velocity": 0.8267716535433071
          },
          {
            "duration": 0.11428560000001653,
            "durationTicks": 192,
            "midi": 52,
            "name": "E3",
            "ticks": 729840,
            "time": 434.42813700000005,
            "velocity": 0.8267716535433071
          },
          {
            "duration": 0.11428560000001653,
            "durationTicks": 192,
            "midi": 57,
            "name": "A3",
            "ticks": 730080,
            "time": 434.57099400000004,
            "velocity": 0.8267716535433071
          },
          {
            "duration": 0.11428560000001653,
            "durationTicks": 192,
            "midi": 55,
            "name": "G3",
            "ticks": 730320,
            "time": 434.71385100000003,
            "velocity": 0.8267716535433071
          },
          {
            "duration": 0.11428560000001653,
            "durationTicks": 192,
            "midi": 54,
            "name": "F#3",
            "ticks": 730560,
            "time": 434.856708,
            "velocity": 0.8267716535433071
          },
          {
            "duration": 0.11428560000001653,
            "durationTicks": 192,
            "midi": 51,
            "name": "D#3",
            "ticks": 730800,
            "time": 434.999565,
            "velocity": 0.8267716535433071
          },
          {
            "duration": 0.11428560000007337,
            "durationTicks": 192,
            "midi": 50,
            "name": "D3",
            "ticks": 731040,
            "time": 435.142422,
            "velocity": 0.8267716535433071
          },
          {
            "duration": 0.11428560000001653,
            "durationTicks": 192,
            "midi": 48,
            "name": "C3",
            "ticks": 731280,
            "time": 435.28527900000006,
            "velocity": 0.8267716535433071
          },
          {
            "duration": 0.22857119999997622,
            "durationTicks": 384,
            "midi": 46,
            "name": "A#2",
            "ticks": 731520,
            "time": 435.42813600000005,
            "velocity": 0.8267716535433071
          },
          {
            "duration": 0.05769240000000764,
            "durationTicks": 96,
            "midi": 47,
            "name": "B2",
            "ticks": 732360,
            "time": 435.9301965,
            "velocity": 0.8267716535433071
          },
          {
            "duration": 0.2330096000000026,
            "durationTicks": 384,
            "midi": 47,
            "name": "B2",
            "ticks": 732480,
            "time": 436.002312,
            "velocity": 0.8267716535433071
          },
          {
            "duration": 0.058823599999982434,
            "durationTicks": 96,
            "midi": 48,
            "name": "C3",
            "ticks": 733320,
            "time": 436.51416250000005,
            "velocity": 0.8267716535433071
          },
          {
            "duration": 0.23762399999998252,
            "durationTicks": 384,
            "midi": 48,
            "name": "C3",
            "ticks": 733440,
            "time": 436.58769200000006,
            "velocity": 0.8267716535433071
          },
          {
            "duration": 0.059701399999994464,
            "durationTicks": 96,
            "midi": 49,
            "name": "C#3",
            "ticks": 734280,
            "time": 437.10860225000005,
            "velocity": 0.8267716535433071
          },
          {
            "duration": 0.24120640000001004,
            "durationTicks": 384,
            "midi": 49,
            "name": "C#3",
            "ticks": 734400,
            "time": 437.18322900000004,
            "velocity": 0.8267716535433071
          },
          {
            "duration": 0.0609138000000371,
            "durationTicks": 96,
            "midi": 50,
            "name": "D3",
            "ticks": 735240,
            "time": 437.71316375000004,
            "velocity": 0.8267716535433071
          },
          {
            "duration": 0.24615360000001374,
            "durationTicks": 384,
            "midi": 50,
            "name": "D3",
            "ticks": 735360,
            "time": 437.78930600000007,
            "velocity": 0.8267716535433071
          },
          {
            "duration": 0.062176199999953496,
            "durationTicks": 96,
            "midi": 53,
            "name": "F3",
            "ticks": 736200,
            "time": 438.33015875000007,
            "velocity": 0.8267716535433071
          },
          {
            "duration": 0.2513088000000039,
            "durationTicks": 384,
            "midi": 53,
            "name": "F3",
            "ticks": 736320,
            "time": 438.40787900000004,
            "velocity": 0.8267716535433071
          },
          {
            "duration": 0.06349199999999655,
            "durationTicks": 96,
            "midi": 52,
            "name": "E3",
            "ticks": 737160,
            "time": 438.96011000000004,
            "velocity": 0.8267716535433071
          },
          {
            "duration": 0.25668480000001637,
            "durationTicks": 384,
            "midi": 52,
            "name": "E3",
            "ticks": 737280,
            "time": 439.03947500000004,
            "velocity": 0.8267716535433071
          },
          {
            "duration": 0.06451620000001412,
            "durationTicks": 96,
            "midi": 51,
            "name": "D#3",
            "ticks": 738120,
            "time": 439.60226675,
            "velocity": 0.8267716535433071
          },
          {
            "duration": 0.26086959999997816,
            "durationTicks": 384,
            "midi": 51,
            "name": "D#3",
            "ticks": 738240,
            "time": 439.68291200000004,
            "velocity": 0.8267716535433071
          },
          {
            "duration": 0.6000000000000227,
            "durationTicks": 960,
            "midi": 43,
            "name": "G2",
            "ticks": 743040,
            "time": 442.738669,
            "velocity": 0.4566929133858268
          },
          {
            "duration": 0.6000000000000227,
            "durationTicks": 960,
            "midi": 47,
            "name": "B2",
            "ticks": 744000,
            "time": 443.33866900000004,
            "velocity": 0.4566929133858268
          },
          {
            "duration": 0.5999999999999659,
            "durationTicks": 960,
            "midi": 50,
            "name": "D3",
            "ticks": 744960,
            "time": 443.93866900000006,
            "velocity": 0.4566929133858268
          },
          {
            "duration": 0.4800000000000182,
            "durationTicks": 768,
            "midi": 47,
            "name": "B2",
            "ticks": 745920,
            "time": 444.538669,
            "velocity": 0.4566929133858268
          },
          {
            "duration": 0.5999999999999659,
            "durationTicks": 960,
            "midi": 43,
            "name": "G2",
            "ticks": 746880,
            "time": 445.13866900000005,
            "velocity": 0.4566929133858268
          },
          {
            "duration": 0.6000000000000227,
            "durationTicks": 960,
            "midi": 48,
            "name": "C3",
            "ticks": 747840,
            "time": 445.738669,
            "velocity": 0.4566929133858268
          },
          {
            "duration": 0.6000000000000227,
            "durationTicks": 960,
            "midi": 51,
            "name": "D#3",
            "ticks": 748800,
            "time": 446.33866900000004,
            "velocity": 0.4566929133858268
          },
          {
            "duration": 0.47999999999996135,
            "durationTicks": 768,
            "midi": 48,
            "name": "C3",
            "ticks": 749760,
            "time": 446.93866900000006,
            "velocity": 0.4566929133858268
          },
          {
            "duration": 0.6000000000000227,
            "durationTicks": 960,
            "midi": 43,
            "name": "G2",
            "ticks": 750720,
            "time": 447.538669,
            "velocity": 0.4566929133858268
          },
          {
            "duration": 0.5999999999999659,
            "durationTicks": 960,
            "midi": 48,
            "name": "C3",
            "ticks": 751680,
            "time": 448.13866900000005,
            "velocity": 0.4566929133858268
          },
          {
            "duration": 0.6000000000000227,
            "durationTicks": 960,
            "midi": 54,
            "name": "F#3",
            "ticks": 752640,
            "time": 448.738669,
            "velocity": 0.4566929133858268
          },
          {
            "duration": 0.4800000000000182,
            "durationTicks": 768,
            "midi": 48,
            "name": "C3",
            "ticks": 753600,
            "time": 449.33866900000004,
            "velocity": 0.4566929133858268
          },
          {
            "duration": 0.22857119999997622,
            "durationTicks": 384,
            "midi": 43,
            "name": "G2",
            "ticks": 754560,
            "time": 449.93866900000006,
            "velocity": 0.8267716535433071
          },
          {
            "duration": 0.22857119999997622,
            "durationTicks": 384,
            "midi": 50,
            "name": "D3",
            "ticks": 755520,
            "time": 450.5100970000001,
            "velocity": 0.8267716535433071
          },
          {
            "duration": 0.22857120000003306,
            "durationTicks": 384,
            "midi": 55,
            "name": "G3",
            "ticks": 756480,
            "time": 451.08152500000006,
            "velocity": 0.8267716535433071
          },
          {
            "duration": 0.22857119999997622,
            "durationTicks": 384,
            "midi": 50,
            "name": "D3",
            "ticks": 757440,
            "time": 451.6529530000001,
            "velocity": 0.8267716535433071
          },
          {
            "duration": 0.22857120000003306,
            "durationTicks": 384,
            "midi": 55,
            "name": "G3",
            "ticks": 758400,
            "time": 452.22438100000005,
            "velocity": 0.8267716535433071
          },
          {
            "duration": 0.22857119999997622,
            "durationTicks": 384,
            "midi": 50,
            "name": "D3",
            "ticks": 759360,
            "time": 452.7958090000001,
            "velocity": 0.8267716535433071
          },
          {
            "duration": 0.1999998000000005,
            "durationTicks": 336,
            "midi": 55,
            "name": "G3",
            "ticks": 760320,
            "time": 453.36723700000005,
            "velocity": 0.8267716535433071
          },
          {
            "duration": 0.1999998000000005,
            "durationTicks": 336,
            "midi": 50,
            "name": "D3",
            "ticks": 760800,
            "time": 453.6529510000001,
            "velocity": 0.8267716535433071
          },
          {
            "duration": 0.1999998000000005,
            "durationTicks": 336,
            "midi": 55,
            "name": "G3",
            "ticks": 761280,
            "time": 453.93866500000007,
            "velocity": 0.8267716535433071
          },
          {
            "duration": 0.1999998000000005,
            "durationTicks": 336,
            "midi": 50,
            "name": "D3",
            "ticks": 761760,
            "time": 454.22437900000006,
            "velocity": 0.8267716535433071
          },
          {
            "duration": 0.25263119999999617,
            "durationTicks": 384,
            "midi": 55,
            "name": "G3",
            "ticks": 762240,
            "time": 454.51009300000004,
            "velocity": 0.8267716535433071
          },
          {
            "duration": 0.2666664000000196,
            "durationTicks": 384,
            "midi": 43,
            "name": "G2",
            "ticks": 764160,
            "time": 455.773249,
            "velocity": 0.8267716535433071
          },
          {
            "duration": 0.29090880000001107,
            "durationTicks": 384,
            "midi": 55,
            "name": "G3",
            "ticks": 765120,
            "time": 456.455419,
            "velocity": 0.8267716535433071
          },
          {
            "duration": 0.75,
            "durationTicks": 960,
            "midi": 43,
            "name": "G2",
            "ticks": 766080,
            "time": 457.201221,
            "velocity": 0.8267716535433071
          }
        ]
      },
      {
        "channel": 0,
        "controlChanges": {},
        "pitchBends": [],
        "instrument": {
          "family": "piano",
          "number": 0,
          "name": "acoustic grand piano"
        },
        "name": "k550_1",
        "notes": [],
        "endOfTrackTicks": 769920
      },
      {
        "channel": 8,
        "controlChanges": {
          "7": [
            {
              "number": 7,
              "ticks": 0,
              "time": 0,
              "value": 0.7874015748031497
            }
          ],
          "10": [
            {
              "number": 10,
              "ticks": 0,
              "time": 0,
              "value": 0.7401574803149606
            }
          ],
          "91": [
            {
              "number": 91,
              "ticks": 0,
              "time": 0,
              "value": 0.5511811023622047
            }
          ]
        },
        "pitchBends": [],
        "instrument": {
          "family": "strings",
          "number": 43,
          "name": "contrabass"
        },
        "name": "",
        "notes": [
          {
            "duration": 0.22857119999999997,
            "durationTicks": 384,
            "midi": 31,
            "name": "G1",
            "ticks": 1920,
            "time": 1.142856,
            "velocity": 0.5511811023622047
          },
          {
            "duration": 0.2285712000000002,
            "durationTicks": 384,
            "midi": 43,
            "name": "G2",
            "ticks": 3840,
            "time": 2.285712,
            "velocity": 0.5511811023622047
          },
          {
            "duration": 0.2285712000000002,
            "durationTicks": 384,
            "midi": 31,
            "name": "G1",
            "ticks": 5760,
            "time": 3.4285680000000003,
            "velocity": 0.5511811023622047
          },
          {
            "duration": 0.2285712000000002,
            "durationTicks": 384,
            "midi": 43,
            "name": "G2",
            "ticks": 7680,
            "time": 4.571424,
            "velocity": 0.5511811023622047
          },
          {
            "duration": 0.2285712000000002,
            "durationTicks": 384,
            "midi": 31,
            "name": "G1",
            "ticks": 9600,
            "time": 5.7142800000000005,
            "velocity": 0.5511811023622047
          },
          {
            "duration": 0.2285712000000002,
            "durationTicks": 384,
            "midi": 43,
            "name": "G2",
            "ticks": 11520,
            "time": 6.857136000000001,
            "velocity": 0.5511811023622047
          },
          {
            "duration": 0.22857120000000108,
            "durationTicks": 384,
            "midi": 30,
            "name": "F#1",
            "ticks": 13440,
            "time": 7.999992000000001,
            "velocity": 0.5511811023622047
          },
          {
            "duration": 0.2285711999999993,
            "durationTicks": 384,
            "midi": 38,
            "name": "D2",
            "ticks": 15360,
            "time": 9.142848,
            "velocity": 0.5511811023622047
          },
          {
            "duration": 0.2285711999999993,
            "durationTicks": 384,
            "midi": 31,
            "name": "G1",
            "ticks": 17280,
            "time": 10.285704,
            "velocity": 0.5511811023622047
          },
          {
            "duration": 1.142856,
            "durationTicks": 1920,
            "midi": 36,
            "name": "C2",
            "ticks": 19200,
            "time": 11.428560000000001,
            "velocity": 0.5511811023622047
          },
          {
            "duration": 1.142856,
            "durationTicks": 1920,
            "midi": 34,
            "name": "A#1",
            "ticks": 21120,
            "time": 12.571416000000001,
            "velocity": 0.5511811023622047
          },
          {
            "duration": 1.142856,
            "durationTicks": 1920,
            "midi": 36,
            "name": "C2",
            "ticks": 23040,
            "time": 13.714272000000001,
            "velocity": 0.5511811023622047
          },
          {
            "duration": 1.085713199999999,
            "durationTicks": 1824,
            "midi": 34,
            "name": "A#1",
            "ticks": 24960,
            "time": 14.857128000000001,
            "velocity": 0.5511811023622047
          },
          {
            "duration": 1.1428559999999983,
            "durationTicks": 1920,
            "midi": 40,
            "name": "E2",
            "ticks": 26880,
            "time": 15.999984000000001,
            "velocity": 0.5511811023622047
          },
          {
            "duration": 1.0857132000000007,
            "durationTicks": 1824,
            "midi": 39,
            "name": "D#2",
            "ticks": 28800,
            "time": 17.14284,
            "velocity": 0.5511811023622047
          },
          {
            "duration": 0.4571423999999986,
            "durationTicks": 768,
            "midi": 38,
            "name": "D2",
            "ticks": 30720,
            "time": 18.285696,
            "velocity": 0.5511811023622047
          },
          {
            "duration": 0.10714275000000129,
            "durationTicks": 180,
            "midi": 38,
            "name": "D2",
            "ticks": 32160,
            "time": 19.142838,
            "velocity": 0.8267716535433071
          },
          {
            "duration": 0.10714275000000129,
            "durationTicks": 180,
            "midi": 38,
            "name": "D2",
            "ticks": 32400,
            "time": 19.285695,
            "velocity": 0.8267716535433071
          },
          {
            "duration": 0.45714239999999506,
            "durationTicks": 768,
            "midi": 38,
            "name": "D2",
            "ticks": 32640,
            "time": 19.428552000000003,
            "velocity": 0.8267716535433071
          },
          {
            "duration": 0.10714274999999773,
            "durationTicks": 180,
            "midi": 38,
            "name": "D2",
            "ticks": 34080,
            "time": 20.285694000000003,
            "velocity": 0.8267716535433071
          },
          {
            "duration": 0.10714274999999773,
            "durationTicks": 180,
            "midi": 38,
            "name": "D2",
            "ticks": 34320,
            "time": 20.428551000000002,
            "velocity": 0.8267716535433071
          },
          {
            "duration": 0.4571423999999986,
            "durationTicks": 768,
            "midi": 38,
            "name": "D2",
            "ticks": 34560,
            "time": 20.571408,
            "velocity": 0.8267716535433071
          },
          {
            "duration": 0.10714275000000129,
            "durationTicks": 180,
            "midi": 38,
            "name": "D2",
            "ticks": 36000,
            "time": 21.42855,
            "velocity": 0.8267716535433071
          },
          {
            "duration": 0.10714275000000129,
            "durationTicks": 180,
            "midi": 38,
            "name": "D2",
            "ticks": 36240,
            "time": 21.571407,
            "velocity": 0.8267716535433071
          },
          {
            "duration": 0.21428550000000257,
            "durationTicks": 360,
            "midi": 38,
            "name": "D2",
            "ticks": 36480,
            "time": 21.714264,
            "velocity": 0.8267716535433071
          },
          {
            "duration": 0.10714275000000129,
            "durationTicks": 180,
            "midi": 38,
            "name": "D2",
            "ticks": 36960,
            "time": 21.999978000000002,
            "velocity": 0.8267716535433071
          },
          {
            "duration": 0.10714275000000129,
            "durationTicks": 180,
            "midi": 38,
            "name": "D2",
            "ticks": 37200,
            "time": 22.142835,
            "velocity": 0.8267716535433071
          },
          {
            "duration": 0.21428550000000257,
            "durationTicks": 360,
            "midi": 38,
            "name": "D2",
            "ticks": 37440,
            "time": 22.285692,
            "velocity": 0.8267716535433071
          },
          {
            "duration": 0.10714274999999773,
            "durationTicks": 180,
            "midi": 38,
            "name": "D2",
            "ticks": 37920,
            "time": 22.571406000000003,
            "velocity": 0.8267716535433071
          },
          {
            "duration": 0.10714274999999773,
            "durationTicks": 180,
            "midi": 38,
            "name": "D2",
            "ticks": 38160,
            "time": 22.714263000000003,
            "velocity": 0.8267716535433071
          },
          {
            "duration": 0.4571423999999986,
            "durationTicks": 768,
            "midi": 38,
            "name": "D2",
            "ticks": 38400,
            "time": 22.857120000000002,
            "velocity": 0.8267716535433071
          },
          {
            "duration": 0.22857119999999753,
            "durationTicks": 384,
            "midi": 31,
            "name": "G1",
            "ticks": 42240,
            "time": 25.142832000000002,
            "velocity": 0.5511811023622047
          },
          {
            "duration": 0.22857120000000108,
            "durationTicks": 384,
            "midi": 43,
            "name": "G2",
            "ticks": 44160,
            "time": 26.285688,
            "velocity": 0.5511811023622047
          },
          {
            "duration": 0.22857119999999753,
            "durationTicks": 384,
            "midi": 27,
            "name": "D#1",
            "ticks": 46080,
            "time": 27.428544000000002,
            "velocity": 0.5511811023622047
          },
          {
            "duration": 0.22857119999999753,
            "durationTicks": 384,
            "midi": 36,
            "name": "C2",
            "ticks": 48000,
            "time": 28.571400000000004,
            "velocity": 0.5511811023622047
          },
          {
            "duration": 0.22857119999999753,
            "durationTicks": 384,
            "midi": 41,
            "name": "F2",
            "ticks": 49920,
            "time": 29.714256000000002,
            "velocity": 0.5511811023622047
          },
          {
            "duration": 0.22857120000000108,
            "durationTicks": 384,
            "midi": 41,
            "name": "F2",
            "ticks": 51840,
            "time": 30.857112,
            "velocity": 0.5511811023622047
          },
          {
            "duration": 0.11428560000000232,
            "durationTicks": 192,
            "midi": 46,
            "name": "A#2",
            "ticks": 53760,
            "time": 31.999968000000003,
            "velocity": 0.8267716535433071
          },
          {
            "duration": 0.11428560000000232,
            "durationTicks": 192,
            "midi": 50,
            "name": "D3",
            "ticks": 54000,
            "time": 32.142825,
            "velocity": 0.8267716535433071
          },
          {
            "duration": 0.11428560000000232,
            "durationTicks": 192,
            "midi": 46,
            "name": "A#2",
            "ticks": 54240,
            "time": 32.285682,
            "velocity": 0.8267716535433071
          },
          {
            "duration": 0.11428560000000232,
            "durationTicks": 192,
            "midi": 50,
            "name": "D3",
            "ticks": 54480,
            "time": 32.428539,
            "velocity": 0.8267716535433071
          },
          {
            "duration": 0.11428560000000232,
            "durationTicks": 192,
            "midi": 46,
            "name": "A#2",
            "ticks": 54720,
            "time": 32.571396,
            "velocity": 0.8267716535433071
          },
          {
            "duration": 0.11428560000000232,
            "durationTicks": 192,
            "midi": 50,
            "name": "D3",
            "ticks": 54960,
            "time": 32.714253,
            "velocity": 0.8267716535433071
          },
          {
            "duration": 0.11428559999999521,
            "durationTicks": 192,
            "midi": 46,
            "name": "A#2",
            "ticks": 55200,
            "time": 32.857110000000006,
            "velocity": 0.8267716535433071
          },
          {
            "duration": 0.11428560000000232,
            "durationTicks": 192,
            "midi": 50,
            "name": "D3",
            "ticks": 55440,
            "time": 32.999967000000005,
            "velocity": 0.8267716535433071
          },
          {
            "duration": 0.11428560000000232,
            "durationTicks": 192,
            "midi": 45,
            "name": "A2",
            "ticks": 55680,
            "time": 33.142824000000005,
            "velocity": 0.8267716535433071
          },
          {
            "duration": 0.11428560000000232,
            "durationTicks": 192,
            "midi": 48,
            "name": "C3",
            "ticks": 55920,
            "time": 33.285681000000004,
            "velocity": 0.8267716535433071
          },
          {
            "duration": 0.11428560000000232,
            "durationTicks": 192,
            "midi": 45,
            "name": "A2",
            "ticks": 56160,
            "time": 33.428538,
            "velocity": 0.8267716535433071
          },
          {
            "duration": 0.11428560000000232,
            "durationTicks": 192,
            "midi": 48,
            "name": "C3",
            "ticks": 56400,
            "time": 33.571395,
            "velocity": 0.8267716535433071
          },
          {
            "duration": 0.11428560000000232,
            "durationTicks": 192,
            "midi": 45,
            "name": "A2",
            "ticks": 56640,
            "time": 33.714252,
            "velocity": 0.8267716535433071
          },
          {
            "duration": 0.11428560000000232,
            "durationTicks": 192,
            "midi": 48,
            "name": "C3",
            "ticks": 56880,
            "time": 33.857109,
            "velocity": 0.8267716535433071
          },
          {
            "duration": 0.11428560000000232,
            "durationTicks": 192,
            "midi": 45,
            "name": "A2",
            "ticks": 57120,
            "time": 33.999966,
            "velocity": 0.8267716535433071
          },
          {
            "duration": 0.11428560000000232,
            "durationTicks": 192,
            "midi": 48,
            "name": "C3",
            "ticks": 57360,
            "time": 34.142823,
            "velocity": 0.8267716535433071
          },
          {
            "duration": 0.11428560000000232,
            "durationTicks": 192,
            "midi": 43,
            "name": "G2",
            "ticks": 57600,
            "time": 34.28568,
            "velocity": 0.8267716535433071
          },
          {
            "duration": 0.11428559999999521,
            "durationTicks": 192,
            "midi": 46,
            "name": "A#2",
            "ticks": 57840,
            "time": 34.428537000000006,
            "velocity": 0.8267716535433071
          },
          {
            "duration": 0.11428560000000232,
            "durationTicks": 192,
            "midi": 43,
            "name": "G2",
            "ticks": 58080,
            "time": 34.571394000000005,
            "velocity": 0.8267716535433071
          },
          {
            "duration": 0.11428560000000232,
            "durationTicks": 192,
            "midi": 46,
            "name": "A#2",
            "ticks": 58320,
            "time": 34.714251000000004,
            "velocity": 0.8267716535433071
          },
          {
            "duration": 0.11428560000000232,
            "durationTicks": 192,
            "midi": 43,
            "name": "G2",
            "ticks": 58560,
            "time": 34.857108000000004,
            "velocity": 0.8267716535433071
          },
          {
            "duration": 0.11428560000000232,
            "durationTicks": 192,
            "midi": 46,
            "name": "A#2",
            "ticks": 58800,
            "time": 34.999965,
            "velocity": 0.8267716535433071
          },
          {
            "duration": 0.11428560000000232,
            "durationTicks": 192,
            "midi": 43,
            "name": "G2",
            "ticks": 59040,
            "time": 35.142822,
            "velocity": 0.8267716535433071
          },
          {
            "duration": 0.11428560000000232,
            "durationTicks": 192,
            "midi": 46,
            "name": "A#2",
            "ticks": 59280,
            "time": 35.285679,
            "velocity": 0.8267716535433071
          },
          {
            "duration": 0.11428560000000232,
            "durationTicks": 192,
            "midi": 41,
            "name": "F2",
            "ticks": 59520,
            "time": 35.428536,
            "velocity": 0.8267716535433071
          },
          {
            "duration": 0.11428560000000232,
            "durationTicks": 192,
            "midi": 46,
            "name": "A#2",
            "ticks": 59760,
            "time": 35.571393,
            "velocity": 0.8267716535433071
          },
          {
            "duration": 0.11428560000000232,
            "durationTicks": 192,
            "midi": 41,
            "name": "F2",
            "ticks": 60000,
            "time": 35.71425,
            "velocity": 0.8267716535433071
          },
          {
            "duration": 0.11428559999999521,
            "durationTicks": 192,
            "midi": 46,
            "name": "A#2",
            "ticks": 60240,
            "time": 35.857107000000006,
            "velocity": 0.8267716535433071
          },
          {
            "duration": 0.11428560000000232,
            "durationTicks": 192,
            "midi": 41,
            "name": "F2",
            "ticks": 60480,
            "time": 35.999964000000006,
            "velocity": 0.8267716535433071
          },
          {
            "duration": 0.11428560000000232,
            "durationTicks": 192,
            "midi": 46,
            "name": "A#2",
            "ticks": 60720,
            "time": 36.142821000000005,
            "velocity": 0.8267716535433071
          },
          {
            "duration": 0.11428560000000232,
            "durationTicks": 192,
            "midi": 41,
            "name": "F2",
            "ticks": 60960,
            "time": 36.285678000000004,
            "velocity": 0.8267716535433071
          },
          {
            "duration": 0.11428560000000232,
            "durationTicks": 192,
            "midi": 46,
            "name": "A#2",
            "ticks": 61200,
            "time": 36.428535000000004,
            "velocity": 0.8267716535433071
          },
          {
            "duration": 0.11428560000000232,
            "durationTicks": 192,
            "midi": 39,
            "name": "D#2",
            "ticks": 61440,
            "time": 36.571392,
            "velocity": 0.8267716535433071
          },
          {
            "duration": 0.11428560000000232,
            "durationTicks": 192,
            "midi": 43,
            "name": "G2",
            "ticks": 61680,
            "time": 36.714249,
            "velocity": 0.8267716535433071
          },
          {
            "duration": 0.11428560000000232,
            "durationTicks": 192,
            "midi": 39,
            "name": "D#2",
            "ticks": 61920,
            "time": 36.857106,
            "velocity": 0.8267716535433071
          },
          {
            "duration": 0.11428560000000232,
            "durationTicks": 192,
            "midi": 43,
            "name": "G2",
            "ticks": 62160,
            "time": 36.999963,
            "velocity": 0.8267716535433071
          },
          {
            "duration": 0.11428560000000232,
            "durationTicks": 192,
            "midi": 39,
            "name": "D#2",
            "ticks": 62400,
            "time": 37.14282,
            "velocity": 0.8267716535433071
          },
          {
            "duration": 0.11428560000000232,
            "durationTicks": 192,
            "midi": 43,
            "name": "G2",
            "ticks": 62640,
            "time": 37.285677,
            "velocity": 0.8267716535433071
          },
          {
            "duration": 0.11428559999999521,
            "durationTicks": 192,
            "midi": 39,
            "name": "D#2",
            "ticks": 62880,
            "time": 37.428534000000006,
            "velocity": 0.8267716535433071
          },
          {
            "duration": 0.11428560000000232,
            "durationTicks": 192,
            "midi": 43,
            "name": "G2",
            "ticks": 63120,
            "time": 37.571391000000006,
            "velocity": 0.8267716535433071
          },
          {
            "duration": 0.11428560000000232,
            "durationTicks": 192,
            "midi": 38,
            "name": "D2",
            "ticks": 63360,
            "time": 37.714248000000005,
            "velocity": 0.8267716535433071
          },
          {
            "duration": 0.11428560000000232,
            "durationTicks": 192,
            "midi": 41,
            "name": "F2",
            "ticks": 63600,
            "time": 37.857105000000004,
            "velocity": 0.8267716535433071
          },
          {
            "duration": 0.11428560000000232,
            "durationTicks": 192,
            "midi": 38,
            "name": "D2",
            "ticks": 63840,
            "time": 37.999962000000004,
            "velocity": 0.8267716535433071
          },
          {
            "duration": 0.11428560000000232,
            "durationTicks": 192,
            "midi": 41,
            "name": "F2",
            "ticks": 64080,
            "time": 38.142819,
            "velocity": 0.8267716535433071
          },
          {
            "duration": 0.11428560000000232,
            "durationTicks": 192,
            "midi": 38,
            "name": "D2",
            "ticks": 64320,
            "time": 38.285676,
            "velocity": 0.8267716535433071
          },
          {
            "duration": 0.11428560000000232,
            "durationTicks": 192,
            "midi": 41,
            "name": "F2",
            "ticks": 64560,
            "time": 38.428533,
            "velocity": 0.8267716535433071
          },
          {
            "duration": 0.11428560000000232,
            "durationTicks": 192,
            "midi": 38,
            "name": "D2",
            "ticks": 64800,
            "time": 38.57139,
            "velocity": 0.8267716535433071
          },
          {
            "duration": 0.11428560000000232,
            "durationTicks": 192,
            "midi": 41,
            "name": "F2",
            "ticks": 65040,
            "time": 38.714247,
            "velocity": 0.8267716535433071
          },
          {
            "duration": 0.9142847999999901,
            "durationTicks": 1536,
            "midi": 36,
            "name": "C2",
            "ticks": 65280,
            "time": 38.85710400000001,
            "velocity": 0.8818897637795275
          },
          {
            "duration": 0.45714240000000217,
            "durationTicks": 768,
            "midi": 36,
            "name": "C2",
            "ticks": 67200,
            "time": 39.99996,
            "velocity": 0.8818897637795275
          },
          {
            "duration": 0.45714239999999506,
            "durationTicks": 768,
            "midi": 37,
            "name": "C#2",
            "ticks": 68160,
            "time": 40.571388000000006,
            "velocity": 0.8818897637795275
          },
          {
            "duration": 0.45714239999999506,
            "durationTicks": 768,
            "midi": 36,
            "name": "C2",
            "ticks": 69120,
            "time": 41.142816,
            "velocity": 0.8818897637795275
          },
          {
            "duration": 0.45714240000000217,
            "durationTicks": 768,
            "midi": 37,
            "name": "C#2",
            "ticks": 70080,
            "time": 41.714244,
            "velocity": 0.8818897637795275
          },
          {
            "duration": 0.45714239999999506,
            "durationTicks": 768,
            "midi": 36,
            "name": "C2",
            "ticks": 71040,
            "time": 42.285672000000005,
            "velocity": 0.8818897637795275
          },
          {
            "duration": 0.11428560000000232,
            "durationTicks": 192,
            "midi": 36,
            "name": "C2",
            "ticks": 72720,
            "time": 43.285671,
            "velocity": 0.8267716535433071
          },
          {
            "duration": 0.10714275000000129,
            "durationTicks": 180,
            "midi": 41,
            "name": "F2",
            "ticks": 72960,
            "time": 43.428528,
            "velocity": 0.8267716535433071
          },
          {
            "duration": 0.10714274999999418,
            "durationTicks": 180,
            "midi": 41,
            "name": "F2",
            "ticks": 73200,
            "time": 43.57138500000001,
            "velocity": 0.8267716535433071
          },
          {
            "duration": 0.10714275000000129,
            "durationTicks": 180,
            "midi": 41,
            "name": "F2",
            "ticks": 73440,
            "time": 43.714242000000006,
            "velocity": 0.8267716535433071
          },
          {
            "duration": 0.10714275000000129,
            "durationTicks": 180,
            "midi": 41,
            "name": "F2",
            "ticks": 73680,
            "time": 43.857099000000005,
            "velocity": 0.8267716535433071
          },
          {
            "duration": 0.10714275000000129,
            "durationTicks": 180,
            "midi": 41,
            "name": "F2",
            "ticks": 73920,
            "time": 43.999956000000005,
            "velocity": 0.8267716535433071
          },
          {
            "duration": 0.10714275000000129,
            "durationTicks": 180,
            "midi": 41,
            "name": "F2",
            "ticks": 74160,
            "time": 44.142813000000004,
            "velocity": 0.8267716535433071
          },
          {
            "duration": 0.10714275000000129,
            "durationTicks": 180,
            "midi": 41,
            "name": "F2",
            "ticks": 74400,
            "time": 44.28567,
            "velocity": 0.8267716535433071
          },
          {
            "duration": 0.10714275000000129,
            "durationTicks": 180,
            "midi": 41,
            "name": "F2",
            "ticks": 74640,
            "time": 44.428527,
            "velocity": 0.8267716535433071
          },
          {
            "duration": 0.10714275000000129,
            "durationTicks": 180,
            "midi": 41,
            "name": "F2",
            "ticks": 74880,
            "time": 44.571384,
            "velocity": 0.8267716535433071
          },
          {
            "duration": 0.10714275000000129,
            "durationTicks": 180,
            "midi": 41,
            "name": "F2",
            "ticks": 75120,
            "time": 44.714241,
            "velocity": 0.8267716535433071
          },
          {
            "duration": 0.10714275000000129,
            "durationTicks": 180,
            "midi": 41,
            "name": "F2",
            "ticks": 75360,
            "time": 44.857098,
            "velocity": 0.8267716535433071
          },
          {
            "duration": 0.10714274999999418,
            "durationTicks": 180,
            "midi": 41,
            "name": "F2",
            "ticks": 75600,
            "time": 44.99995500000001,
            "velocity": 0.8267716535433071
          },
          {
            "duration": 0.10714274999999418,
            "durationTicks": 180,
            "midi": 41,
            "name": "F2",
            "ticks": 75840,
            "time": 45.142812000000006,
            "velocity": 0.8267716535433071
          },
          {
            "duration": 0.10714275000000129,
            "durationTicks": 180,
            "midi": 41,
            "name": "F2",
            "ticks": 76080,
            "time": 45.285669000000006,
            "velocity": 0.8267716535433071
          },
          {
            "duration": 0.10714275000000129,
            "durationTicks": 180,
            "midi": 41,
            "name": "F2",
            "ticks": 76320,
            "time": 45.428526000000005,
            "velocity": 0.8267716535433071
          },
          {
            "duration": 0.10714275000000129,
            "durationTicks": 180,
            "midi": 41,
            "name": "F2",
            "ticks": 76560,
            "time": 45.571383000000004,
            "velocity": 0.8267716535433071
          },
          {
            "duration": 0.10714275000000129,
            "durationTicks": 180,
            "midi": 41,
            "name": "F2",
            "ticks": 76800,
            "time": 45.714240000000004,
            "velocity": 0.8267716535433071
          },
          {
            "duration": 0.10714275000000129,
            "durationTicks": 180,
            "midi": 41,
            "name": "F2",
            "ticks": 77040,
            "time": 45.857097,
            "velocity": 0.8267716535433071
          },
          {
            "duration": 0.10714275000000129,
            "durationTicks": 180,
            "midi": 41,
            "name": "F2",
            "ticks": 77280,
            "time": 45.999954,
            "velocity": 0.8267716535433071
          },
          {
            "duration": 0.10714275000000129,
            "durationTicks": 180,
            "midi": 41,
            "name": "F2",
            "ticks": 77520,
            "time": 46.142811,
            "velocity": 0.8267716535433071
          },
          {
            "duration": 0.10714275000000129,
            "durationTicks": 180,
            "midi": 41,
            "name": "F2",
            "ticks": 77760,
            "time": 46.285668,
            "velocity": 0.8267716535433071
          },
          {
            "duration": 0.10714275000000129,
            "durationTicks": 180,
            "midi": 41,
            "name": "F2",
            "ticks": 78000,
            "time": 46.428525,
            "velocity": 0.8267716535433071
          },
          {
            "duration": 0.10714274999999418,
            "durationTicks": 180,
            "midi": 41,
            "name": "F2",
            "ticks": 78240,
            "time": 46.57138200000001,
            "velocity": 0.8267716535433071
          },
          {
            "duration": 0.10714274999999418,
            "durationTicks": 180,
            "midi": 41,
            "name": "F2",
            "ticks": 78480,
            "time": 46.714239000000006,
            "velocity": 0.8267716535433071
          },
          {
            "duration": 0.10714275000000129,
            "durationTicks": 180,
            "midi": 41,
            "name": "F2",
            "ticks": 78720,
            "time": 46.857096000000006,
            "velocity": 0.8267716535433071
          },
          {
            "duration": 0.10714275000000129,
            "durationTicks": 180,
            "midi": 41,
            "name": "F2",
            "ticks": 78960,
            "time": 46.999953000000005,
            "velocity": 0.8267716535433071
          },
          {
            "duration": 0.10714275000000129,
            "durationTicks": 180,
            "midi": 41,
            "name": "F2",
            "ticks": 79200,
            "time": 47.142810000000004,
            "velocity": 0.8267716535433071
          },
          {
            "duration": 0.10714275000000129,
            "durationTicks": 180,
            "midi": 41,
            "name": "F2",
            "ticks": 79440,
            "time": 47.285667000000004,
            "velocity": 0.8267716535433071
          },
          {
            "duration": 0.10714275000000129,
            "durationTicks": 180,
            "midi": 41,
            "name": "F2",
            "ticks": 79680,
            "time": 47.428524,
            "velocity": 0.8267716535433071
          },
          {
            "duration": 0.10714275000000129,
            "durationTicks": 180,
            "midi": 41,
            "name": "F2",
            "ticks": 79920,
            "time": 47.571381,
            "velocity": 0.8267716535433071
          },
          {
            "duration": 0.10714275000000129,
            "durationTicks": 180,
            "midi": 41,
            "name": "F2",
            "ticks": 80160,
            "time": 47.714238,
            "velocity": 0.8267716535433071
          },
          {
            "duration": 0.10714275000000129,
            "durationTicks": 180,
            "midi": 41,
            "name": "F2",
            "ticks": 80400,
            "time": 47.857095,
            "velocity": 0.8267716535433071
          },
          {
            "duration": 0.22857119999999753,
            "durationTicks": 384,
            "midi": 41,
            "name": "F2",
            "ticks": 80640,
            "time": 47.99995200000001,
            "velocity": 0.8267716535433071
          },
          {
            "duration": 0.22857120000000464,
            "durationTicks": 384,
            "midi": 29,
            "name": "F1",
            "ticks": 81600,
            "time": 48.571380000000005,
            "velocity": 0.7244094488188977
          },
          {
            "duration": 0.8571420000000032,
            "durationTicks": 1440,
            "midi": 50,
            "name": "D3",
            "ticks": 84480,
            "time": 50.285664000000004,
            "velocity": 0.4566929133858268
          },
          {
            "duration": 0.2857139999999987,
            "durationTicks": 480,
            "midi": 48,
            "name": "C3",
            "ticks": 85920,
            "time": 51.14280600000001,
            "velocity": 0.4566929133858268
          },
          {
            "duration": 0.22857120000000464,
            "durationTicks": 384,
            "midi": 41,
            "name": "F2",
            "ticks": 86400,
            "time": 51.428520000000006,
            "velocity": 0.4566929133858268
          },
          {
            "duration": 0.18571409999999844,
            "durationTicks": 312,
            "midi": 43,
            "name": "G2",
            "ticks": 88800,
            "time": 52.85709000000001,
            "velocity": 0.4566929133858268
          },
          {
            "duration": 0.2857139999999987,
            "durationTicks": 480,
            "midi": 43,
            "name": "G2",
            "ticks": 89280,
            "time": 53.142804000000005,
            "velocity": 0.4566929133858268
          },
          {
            "duration": 0.22857120000000464,
            "durationTicks": 384,
            "midi": 39,
            "name": "D#2",
            "ticks": 89760,
            "time": 53.428518000000004,
            "velocity": 0.4566929133858268
          },
          {
            "duration": 0.45714240000000217,
            "durationTicks": 768,
            "midi": 41,
            "name": "F2",
            "ticks": 90240,
            "time": 53.714232,
            "velocity": 0.4566929133858268
          },
          {
            "duration": 0.8571420000000032,
            "durationTicks": 1440,
            "midi": 39,
            "name": "D#2",
            "ticks": 92160,
            "time": 54.857088000000005,
            "velocity": 0.4566929133858268
          },
          {
            "duration": 0.2857139999999987,
            "durationTicks": 480,
            "midi": 38,
            "name": "D2",
            "ticks": 93600,
            "time": 55.71423000000001,
            "velocity": 0.4566929133858268
          },
          {
            "duration": 0.2857139999999987,
            "durationTicks": 480,
            "midi": 43,
            "name": "G2",
            "ticks": 94080,
            "time": 55.999944000000006,
            "velocity": 0.4566929133858268
          },
          {
            "duration": 0.2857139999999987,
            "durationTicks": 480,
            "midi": 36,
            "name": "C2",
            "ticks": 94560,
            "time": 56.285658000000005,
            "velocity": 0.4566929133858268
          },
          {
            "duration": 0.2857139999999987,
            "durationTicks": 480,
            "midi": 41,
            "name": "F2",
            "ticks": 95040,
            "time": 56.571372000000004,
            "velocity": 0.4566929133858268
          },
          {
            "duration": 0.22857120000000464,
            "durationTicks": 384,
            "midi": 34,
            "name": "A#1",
            "ticks": 95520,
            "time": 56.857086,
            "velocity": 0.4566929133858268
          },
          {
            "duration": 0.22857119999999753,
            "durationTicks": 384,
            "midi": 39,
            "name": "D#2",
            "ticks": 96000,
            "time": 57.14280000000001,
            "velocity": 0.4566929133858268
          },
          {
            "duration": 0.22857120000000464,
            "durationTicks": 384,
            "midi": 41,
            "name": "F2",
            "ticks": 96960,
            "time": 57.714228000000006,
            "velocity": 0.4566929133858268
          },
          {
            "duration": 0.22857120000000464,
            "durationTicks": 384,
            "midi": 34,
            "name": "A#1",
            "ticks": 97920,
            "time": 58.285656,
            "velocity": 0.4566929133858268
          },
          {
            "duration": 0.8571419999999961,
            "durationTicks": 1440,
            "midi": 51,
            "name": "D#3",
            "ticks": 107520,
            "time": 63.999936000000005,
            "velocity": 0.5511811023622047
          },
          {
            "duration": 0.2857139999999987,
            "durationTicks": 480,
            "midi": 50,
            "name": "D3",
            "ticks": 108960,
            "time": 64.857078,
            "velocity": 0.5511811023622047
          },
          {
            "duration": 0.2857139999999987,
            "durationTicks": 480,
            "midi": 43,
            "name": "G2",
            "ticks": 109440,
            "time": 65.142792,
            "velocity": 0.5511811023622047
          },
          {
            "duration": 0.2857140000000129,
            "durationTicks": 480,
            "midi": 48,
            "name": "C3",
            "ticks": 109920,
            "time": 65.428506,
            "velocity": 0.5511811023622047
          },
          {
            "duration": 0.2857139999999987,
            "durationTicks": 480,
            "midi": 41,
            "name": "F2",
            "ticks": 110400,
            "time": 65.71422000000001,
            "velocity": 0.5511811023622047
          },
          {
            "duration": 0.22857120000000464,
            "durationTicks": 384,
            "midi": 46,
            "name": "A#2",
            "ticks": 110880,
            "time": 65.99993400000001,
            "velocity": 0.5511811023622047
          },
          {
            "duration": 4.342852799999989,
            "durationTicks": 7296,
            "midi": 39,
            "name": "D#2",
            "ticks": 111360,
            "time": 66.28564800000001,
            "velocity": 0.4566929133858268
          },
          {
            "duration": 0.12857130000000438,
            "durationTicks": 216,
            "midi": 39,
            "name": "D#2",
            "ticks": 119040,
            "time": 70.857072,
            "velocity": 0.4566929133858268
          },
          {
            "duration": 0.12857129999999017,
            "durationTicks": 216,
            "midi": 39,
            "name": "D#2",
            "ticks": 119280,
            "time": 70.99992900000001,
            "velocity": 0.5669291338582677
          },
          {
            "duration": 0.12857130000000438,
            "durationTicks": 216,
            "midi": 39,
            "name": "D#2",
            "ticks": 119520,
            "time": 71.142786,
            "velocity": 0.5905511811023622
          },
          {
            "duration": 0.12857129999999017,
            "durationTicks": 216,
            "midi": 39,
            "name": "D#2",
            "ticks": 119760,
            "time": 71.28564300000001,
            "velocity": 0.6062992125984252
          },
          {
            "duration": 0.12857130000000438,
            "durationTicks": 216,
            "midi": 39,
            "name": "D#2",
            "ticks": 120000,
            "time": 71.4285,
            "velocity": 0.6299212598425197
          },
          {
            "duration": 0.12857129999999017,
            "durationTicks": 216,
            "midi": 39,
            "name": "D#2",
            "ticks": 120240,
            "time": 71.571357,
            "velocity": 0.6456692913385826
          },
          {
            "duration": 0.12857129999999017,
            "durationTicks": 216,
            "midi": 39,
            "name": "D#2",
            "ticks": 120480,
            "time": 71.71421400000001,
            "velocity": 0.6692913385826772
          },
          {
            "duration": 0.12857130000000438,
            "durationTicks": 216,
            "midi": 39,
            "name": "D#2",
            "ticks": 120720,
            "time": 71.857071,
            "velocity": 0.6929133858267716
          },
          {
            "duration": 0.12857129999999017,
            "durationTicks": 216,
            "midi": 40,
            "name": "E2",
            "ticks": 120960,
            "time": 71.99992800000001,
            "velocity": 0.7086614173228346
          },
          {
            "duration": 0.12857130000000438,
            "durationTicks": 216,
            "midi": 40,
            "name": "E2",
            "ticks": 121200,
            "time": 72.142785,
            "velocity": 0.7322834645669292
          },
          {
            "duration": 0.12857129999999017,
            "durationTicks": 216,
            "midi": 40,
            "name": "E2",
            "ticks": 121440,
            "time": 72.28564200000001,
            "velocity": 0.7480314960629921
          },
          {
            "duration": 0.12857130000000438,
            "durationTicks": 216,
            "midi": 40,
            "name": "E2",
            "ticks": 121680,
            "time": 72.428499,
            "velocity": 0.7716535433070866
          },
          {
            "duration": 0.12857129999999017,
            "durationTicks": 216,
            "midi": 40,
            "name": "E2",
            "ticks": 121920,
            "time": 72.57135600000001,
            "velocity": 0.7874015748031497
          },
          {
            "duration": 0.12857130000000438,
            "durationTicks": 216,
            "midi": 40,
            "name": "E2",
            "ticks": 122160,
            "time": 72.714213,
            "velocity": 0.8110236220472441
          },
          {
            "duration": 0.12857129999999017,
            "durationTicks": 216,
            "midi": 40,
            "name": "E2",
            "ticks": 122400,
            "time": 72.85707000000001,
            "velocity": 0.8346456692913385
          },
          {
            "duration": 0.12857130000000438,
            "durationTicks": 216,
            "midi": 40,
            "name": "E2",
            "ticks": 122640,
            "time": 72.999927,
            "velocity": 0.8503937007874016
          },
          {
            "duration": 0.11428559999998811,
            "durationTicks": 192,
            "midi": 41,
            "name": "F2",
            "ticks": 122880,
            "time": 73.142784,
            "velocity": 0.8267716535433071
          },
          {
            "duration": 0.11428559999998811,
            "durationTicks": 192,
            "midi": 41,
            "name": "F2",
            "ticks": 123120,
            "time": 73.28564100000001,
            "velocity": 0.8267716535433071
          },
          {
            "duration": 0.11428559999998811,
            "durationTicks": 192,
            "midi": 41,
            "name": "F2",
            "ticks": 123360,
            "time": 73.428498,
            "velocity": 0.8267716535433071
          },
          {
            "duration": 0.11428559999998811,
            "durationTicks": 192,
            "midi": 41,
            "name": "F2",
            "ticks": 123600,
            "time": 73.57135500000001,
            "velocity": 0.8267716535433071
          },
          {
            "duration": 0.11428560000000232,
            "durationTicks": 192,
            "midi": 41,
            "name": "F2",
            "ticks": 123840,
            "time": 73.714212,
            "velocity": 0.8267716535433071
          },
          {
            "duration": 0.11428559999998811,
            "durationTicks": 192,
            "midi": 41,
            "name": "F2",
            "ticks": 124080,
            "time": 73.85706900000001,
            "velocity": 0.8267716535433071
          },
          {
            "duration": 0.11428560000000232,
            "durationTicks": 192,
            "midi": 41,
            "name": "F2",
            "ticks": 124320,
            "time": 73.999926,
            "velocity": 0.8267716535433071
          },
          {
            "duration": 0.11428559999998811,
            "durationTicks": 192,
            "midi": 41,
            "name": "F2",
            "ticks": 124560,
            "time": 74.14278300000001,
            "velocity": 0.8267716535433071
          },
          {
            "duration": 0.11428560000000232,
            "durationTicks": 192,
            "midi": 29,
            "name": "F1",
            "ticks": 124800,
            "time": 74.28564,
            "velocity": 0.8267716535433071
          },
          {
            "duration": 0.11428559999998811,
            "durationTicks": 192,
            "midi": 29,
            "name": "F1",
            "ticks": 125040,
            "time": 74.42849700000001,
            "velocity": 0.8267716535433071
          },
          {
            "duration": 0.11428560000000232,
            "durationTicks": 192,
            "midi": 29,
            "name": "F1",
            "ticks": 125280,
            "time": 74.571354,
            "velocity": 0.8267716535433071
          },
          {
            "duration": 0.11428559999998811,
            "durationTicks": 192,
            "midi": 29,
            "name": "F1",
            "ticks": 125520,
            "time": 74.714211,
            "velocity": 0.8267716535433071
          },
          {
            "duration": 0.11428559999998811,
            "durationTicks": 192,
            "midi": 29,
            "name": "F1",
            "ticks": 125760,
            "time": 74.85706800000001,
            "velocity": 0.8267716535433071
          },
          {
            "duration": 0.11428559999998811,
            "durationTicks": 192,
            "midi": 29,
            "name": "F1",
            "ticks": 126000,
            "time": 74.999925,
            "velocity": 0.8267716535433071
          },
          {
            "duration": 0.11428559999998811,
            "durationTicks": 192,
            "midi": 29,
            "name": "F1",
            "ticks": 126240,
            "time": 75.14278200000001,
            "velocity": 0.8267716535433071
          },
          {
            "duration": 0.11428560000000232,
            "durationTicks": 192,
            "midi": 29,
            "name": "F1",
            "ticks": 126480,
            "time": 75.285639,
            "velocity": 0.8267716535433071
          },
          {
            "duration": 0.22857120000000464,
            "durationTicks": 384,
            "midi": 34,
            "name": "A#1",
            "ticks": 126720,
            "time": 75.42849600000001,
            "velocity": 0.7244094488188977
          },
          {
            "duration": 0.4571424000000093,
            "durationTicks": 768,
            "midi": 38,
            "name": "D2",
            "ticks": 127200,
            "time": 75.71421000000001,
            "velocity": 0.984251968503937
          },
          {
            "duration": 0.17142840000001058,
            "durationTicks": 288,
            "midi": 39,
            "name": "D#2",
            "ticks": 128160,
            "time": 76.285638,
            "velocity": 0.8267716535433071
          },
          {
            "duration": 0.17142840000001058,
            "durationTicks": 288,
            "midi": 40,
            "name": "E2",
            "ticks": 128640,
            "time": 76.571352,
            "velocity": 0.8267716535433071
          },
          {
            "duration": 0.17142840000001058,
            "durationTicks": 288,
            "midi": 41,
            "name": "F2",
            "ticks": 129120,
            "time": 76.857066,
            "velocity": 0.8267716535433071
          },
          {
            "duration": 0.17142840000001058,
            "durationTicks": 288,
            "midi": 42,
            "name": "F#2",
            "ticks": 129600,
            "time": 77.14278,
            "velocity": 0.8267716535433071
          },
          {
            "duration": 0.17142840000001058,
            "durationTicks": 288,
            "midi": 43,
            "name": "G2",
            "ticks": 130080,
            "time": 77.428494,
            "velocity": 0.8267716535433071
          },
          {
            "duration": 0.22857119999999043,
            "durationTicks": 384,
            "midi": 44,
            "name": "G#2",
            "ticks": 130560,
            "time": 77.71420800000001,
            "velocity": 0.8267716535433071
          },
          {
            "duration": 0.057142800000008265,
            "durationTicks": 96,
            "midi": 44,
            "name": "G#2",
            "ticks": 131400,
            "time": 78.2142075,
            "velocity": 0.8267716535433071
          },
          {
            "duration": 0.22857120000000464,
            "durationTicks": 384,
            "midi": 43,
            "name": "G2",
            "ticks": 131520,
            "time": 78.28563600000001,
            "velocity": 0.8267716535433071
          },
          {
            "duration": 0.057142799999994054,
            "durationTicks": 96,
            "midi": 43,
            "name": "G2",
            "ticks": 132360,
            "time": 78.78563550000001,
            "velocity": 0.8267716535433071
          },
          {
            "duration": 0.22857120000000464,
            "durationTicks": 384,
            "midi": 51,
            "name": "D#3",
            "ticks": 132480,
            "time": 78.85706400000001,
            "velocity": 0.8267716535433071
          },
          {
            "duration": 0.057142799999994054,
            "durationTicks": 96,
            "midi": 51,
            "name": "D#3",
            "ticks": 133320,
            "time": 79.35706350000001,
            "velocity": 0.8267716535433071
          },
          {
            "duration": 0.22857120000000464,
            "durationTicks": 384,
            "midi": 50,
            "name": "D3",
            "ticks": 133440,
            "time": 79.428492,
            "velocity": 0.8267716535433071
          },
          {
            "duration": 0.057142799999994054,
            "durationTicks": 96,
            "midi": 50,
            "name": "D3",
            "ticks": 134280,
            "time": 79.9284915,
            "velocity": 0.8267716535433071
          },
          {
            "duration": 0.22857120000000464,
            "durationTicks": 384,
            "midi": 39,
            "name": "D#2",
            "ticks": 134400,
            "time": 79.99992,
            "velocity": 0.8267716535433071
          },
          {
            "duration": 0.22857120000000464,
            "durationTicks": 384,
            "midi": 41,
            "name": "F2",
            "ticks": 136320,
            "time": 81.14277600000001,
            "velocity": 0.5511811023622047
          },
          {
            "duration": 1.1428559999999948,
            "durationTicks": 1920,
            "midi": 39,
            "name": "D#2",
            "ticks": 141120,
            "time": 83.99991600000001,
            "velocity": 0.4566929133858268
          },
          {
            "duration": 0.22857120000000464,
            "durationTicks": 384,
            "midi": 38,
            "name": "D2",
            "ticks": 143040,
            "time": 85.14277200000001,
            "velocity": 0.4566929133858268
          },
          {
            "duration": 1.142856000000009,
            "durationTicks": 1920,
            "midi": 39,
            "name": "D#2",
            "ticks": 144960,
            "time": 86.285628,
            "velocity": 0.4566929133858268
          },
          {
            "duration": 0.22857120000000464,
            "durationTicks": 384,
            "midi": 38,
            "name": "D2",
            "ticks": 146880,
            "time": 87.42848400000001,
            "velocity": 0.4566929133858268
          },
          {
            "duration": 0.11428559999998811,
            "durationTicks": 192,
            "midi": 38,
            "name": "D2",
            "ticks": 147840,
            "time": 87.99991200000001,
            "velocity": 0.8267716535433071
          },
          {
            "duration": 0.11428560000000232,
            "durationTicks": 192,
            "midi": 38,
            "name": "D2",
            "ticks": 148080,
            "time": 88.142769,
            "velocity": 0.8267716535433071
          },
          {
            "duration": 0.11428559999998811,
            "durationTicks": 192,
            "midi": 38,
            "name": "D2",
            "ticks": 148320,
            "time": 88.28562600000001,
            "velocity": 0.8267716535433071
          },
          {
            "duration": 0.11428559999998811,
            "durationTicks": 192,
            "midi": 38,
            "name": "D2",
            "ticks": 148560,
            "time": 88.42848300000001,
            "velocity": 0.8267716535433071
          },
          {
            "duration": 0.11428559999998811,
            "durationTicks": 192,
            "midi": 38,
            "name": "D2",
            "ticks": 148800,
            "time": 88.57134,
            "velocity": 0.8267716535433071
          },
          {
            "duration": 0.11428559999998811,
            "durationTicks": 192,
            "midi": 38,
            "name": "D2",
            "ticks": 149040,
            "time": 88.71419700000001,
            "velocity": 0.8267716535433071
          },
          {
            "duration": 0.11428560000000232,
            "durationTicks": 192,
            "midi": 38,
            "name": "D2",
            "ticks": 149280,
            "time": 88.857054,
            "velocity": 0.8267716535433071
          },
          {
            "duration": 0.11428559999998811,
            "durationTicks": 192,
            "midi": 38,
            "name": "D2",
            "ticks": 149520,
            "time": 88.99991100000001,
            "velocity": 0.8267716535433071
          },
          {
            "duration": 0.11428560000000232,
            "durationTicks": 192,
            "midi": 43,
            "name": "G2",
            "ticks": 149760,
            "time": 89.142768,
            "velocity": 0.8267716535433071
          },
          {
            "duration": 0.11428559999998811,
            "durationTicks": 192,
            "midi": 43,
            "name": "G2",
            "ticks": 150000,
            "time": 89.28562500000001,
            "velocity": 0.8267716535433071
          },
          {
            "duration": 0.11428560000000232,
            "durationTicks": 192,
            "midi": 43,
            "name": "G2",
            "ticks": 150240,
            "time": 89.428482,
            "velocity": 0.8267716535433071
          },
          {
            "duration": 0.11428559999998811,
            "durationTicks": 192,
            "midi": 43,
            "name": "G2",
            "ticks": 150480,
            "time": 89.57133900000001,
            "velocity": 0.8267716535433071
          },
          {
            "duration": 0.11428560000000232,
            "durationTicks": 192,
            "midi": 39,
            "name": "D#2",
            "ticks": 150720,
            "time": 89.714196,
            "velocity": 0.8267716535433071
          },
          {
            "duration": 0.11428559999998811,
            "durationTicks": 192,
            "midi": 39,
            "name": "D#2",
            "ticks": 150960,
            "time": 89.85705300000001,
            "velocity": 0.8267716535433071
          },
          {
            "duration": 0.11428559999998811,
            "durationTicks": 192,
            "midi": 39,
            "name": "D#2",
            "ticks": 151200,
            "time": 89.99991000000001,
            "velocity": 0.8267716535433071
          },
          {
            "duration": 0.11428559999998811,
            "durationTicks": 192,
            "midi": 39,
            "name": "D#2",
            "ticks": 151440,
            "time": 90.142767,
            "velocity": 0.8267716535433071
          },
          {
            "duration": 0.11428559999998811,
            "durationTicks": 192,
            "midi": 41,
            "name": "F2",
            "ticks": 151680,
            "time": 90.28562400000001,
            "velocity": 0.8267716535433071
          },
          {
            "duration": 0.11428560000000232,
            "durationTicks": 192,
            "midi": 41,
            "name": "F2",
            "ticks": 151920,
            "time": 90.428481,
            "velocity": 0.8267716535433071
          },
          {
            "duration": 0.11428559999998811,
            "durationTicks": 192,
            "midi": 41,
            "name": "F2",
            "ticks": 152160,
            "time": 90.57133800000001,
            "velocity": 0.8267716535433071
          },
          {
            "duration": 0.11428560000000232,
            "durationTicks": 192,
            "midi": 41,
            "name": "F2",
            "ticks": 152400,
            "time": 90.714195,
            "velocity": 0.8267716535433071
          },
          {
            "duration": 0.11428559999998811,
            "durationTicks": 192,
            "midi": 29,
            "name": "F1",
            "ticks": 152640,
            "time": 90.85705200000001,
            "velocity": 0.8267716535433071
          },
          {
            "duration": 0.11428560000000232,
            "durationTicks": 192,
            "midi": 29,
            "name": "F1",
            "ticks": 152880,
            "time": 90.999909,
            "velocity": 0.8267716535433071
          },
          {
            "duration": 0.11428559999998811,
            "durationTicks": 192,
            "midi": 29,
            "name": "F1",
            "ticks": 153120,
            "time": 91.14276600000001,
            "velocity": 0.8267716535433071
          },
          {
            "duration": 0.11428560000000232,
            "durationTicks": 192,
            "midi": 29,
            "name": "F1",
            "ticks": 153360,
            "time": 91.285623,
            "velocity": 0.8267716535433071
          },
          {
            "duration": 0.22857120000000464,
            "durationTicks": 384,
            "midi": 34,
            "name": "A#1",
            "ticks": 153600,
            "time": 91.42848000000001,
            "velocity": 0.7244094488188977
          },
          {
            "duration": 1.142856000000009,
            "durationTicks": 1920,
            "midi": 46,
            "name": "A#2",
            "ticks": 154560,
            "time": 91.999908,
            "velocity": 0.4566929133858268
          },
          {
            "duration": 0.22857119999999043,
            "durationTicks": 384,
            "midi": 45,
            "name": "A2",
            "ticks": 156480,
            "time": 93.14276400000001,
            "velocity": 0.4566929133858268
          },
          {
            "duration": 1.1428559999999948,
            "durationTicks": 1920,
            "midi": 34,
            "name": "A#1",
            "ticks": 158400,
            "time": 94.28562000000001,
            "velocity": 0.4566929133858268
          },
          {
            "duration": 0.22857120000000464,
            "durationTicks": 384,
            "midi": 33,
            "name": "A1",
            "ticks": 160320,
            "time": 95.428476,
            "velocity": 0.4566929133858268
          },
          {
            "duration": 0.11428559999998811,
            "durationTicks": 192,
            "midi": 38,
            "name": "D2",
            "ticks": 163200,
            "time": 97.14276000000001,
            "velocity": 0.8267716535433071
          },
          {
            "duration": 0.11428560000000232,
            "durationTicks": 192,
            "midi": 38,
            "name": "D2",
            "ticks": 163440,
            "time": 97.285617,
            "velocity": 0.8267716535433071
          },
          {
            "duration": 0.11428559999998811,
            "durationTicks": 192,
            "midi": 38,
            "name": "D2",
            "ticks": 163680,
            "time": 97.42847400000001,
            "velocity": 0.8267716535433071
          },
          {
            "duration": 0.11428559999998811,
            "durationTicks": 192,
            "midi": 38,
            "name": "D2",
            "ticks": 163920,
            "time": 97.57133100000001,
            "velocity": 0.8267716535433071
          },
          {
            "duration": 0.11428559999998811,
            "durationTicks": 192,
            "midi": 38,
            "name": "D2",
            "ticks": 164160,
            "time": 97.71418800000001,
            "velocity": 0.8267716535433071
          },
          {
            "duration": 0.11428559999998811,
            "durationTicks": 192,
            "midi": 38,
            "name": "D2",
            "ticks": 164400,
            "time": 97.85704500000001,
            "velocity": 0.8267716535433071
          },
          {
            "duration": 0.11428560000000232,
            "durationTicks": 192,
            "midi": 38,
            "name": "D2",
            "ticks": 164640,
            "time": 97.999902,
            "velocity": 0.8267716535433071
          },
          {
            "duration": 0.11428559999998811,
            "durationTicks": 192,
            "midi": 38,
            "name": "D2",
            "ticks": 164880,
            "time": 98.14275900000001,
            "velocity": 0.8267716535433071
          },
          {
            "duration": 0.11428560000000232,
            "durationTicks": 192,
            "midi": 43,
            "name": "G2",
            "ticks": 165120,
            "time": 98.285616,
            "velocity": 0.8267716535433071
          },
          {
            "duration": 0.11428559999998811,
            "durationTicks": 192,
            "midi": 43,
            "name": "G2",
            "ticks": 165360,
            "time": 98.42847300000001,
            "velocity": 0.8267716535433071
          },
          {
            "duration": 0.11428560000000232,
            "durationTicks": 192,
            "midi": 43,
            "name": "G2",
            "ticks": 165600,
            "time": 98.57133,
            "velocity": 0.8267716535433071
          },
          {
            "duration": 0.11428559999998811,
            "durationTicks": 192,
            "midi": 43,
            "name": "G2",
            "ticks": 165840,
            "time": 98.71418700000001,
            "velocity": 0.8267716535433071
          },
          {
            "duration": 0.11428560000000232,
            "durationTicks": 192,
            "midi": 39,
            "name": "D#2",
            "ticks": 166080,
            "time": 98.857044,
            "velocity": 0.8267716535433071
          },
          {
            "duration": 0.11428559999998811,
            "durationTicks": 192,
            "midi": 39,
            "name": "D#2",
            "ticks": 166320,
            "time": 98.99990100000001,
            "velocity": 0.8267716535433071
          },
          {
            "duration": 0.11428559999998811,
            "durationTicks": 192,
            "midi": 39,
            "name": "D#2",
            "ticks": 166560,
            "time": 99.14275800000001,
            "velocity": 0.8267716535433071
          },
          {
            "duration": 0.11428559999998811,
            "durationTicks": 192,
            "midi": 39,
            "name": "D#2",
            "ticks": 166800,
            "time": 99.285615,
            "velocity": 0.8267716535433071
          },
          {
            "duration": 0.11428559999998811,
            "durationTicks": 192,
            "midi": 41,
            "name": "F2",
            "ticks": 167040,
            "time": 99.42847200000001,
            "velocity": 0.8267716535433071
          },
          {
            "duration": 0.11428560000000232,
            "durationTicks": 192,
            "midi": 41,
            "name": "F2",
            "ticks": 167280,
            "time": 99.571329,
            "velocity": 0.8267716535433071
          },
          {
            "duration": 0.11428559999998811,
            "durationTicks": 192,
            "midi": 41,
            "name": "F2",
            "ticks": 167520,
            "time": 99.71418600000001,
            "velocity": 0.8267716535433071
          },
          {
            "duration": 0.11428560000000232,
            "durationTicks": 192,
            "midi": 41,
            "name": "F2",
            "ticks": 167760,
            "time": 99.857043,
            "velocity": 0.8267716535433071
          },
          {
            "duration": 0.11428559999998811,
            "durationTicks": 192,
            "midi": 29,
            "name": "F1",
            "ticks": 168000,
            "time": 99.99990000000001,
            "velocity": 0.8267716535433071
          },
          {
            "duration": 0.11428560000000232,
            "durationTicks": 192,
            "midi": 29,
            "name": "F1",
            "ticks": 168240,
            "time": 100.142757,
            "velocity": 0.8267716535433071
          },
          {
            "duration": 0.11428559999998811,
            "durationTicks": 192,
            "midi": 29,
            "name": "F1",
            "ticks": 168480,
            "time": 100.28561400000001,
            "velocity": 0.8267716535433071
          },
          {
            "duration": 0.11428560000000232,
            "durationTicks": 192,
            "midi": 29,
            "name": "F1",
            "ticks": 168720,
            "time": 100.428471,
            "velocity": 0.8267716535433071
          },
          {
            "duration": 0.4571424000000093,
            "durationTicks": 768,
            "midi": 34,
            "name": "A#1",
            "ticks": 168960,
            "time": 100.57132800000001,
            "velocity": 0.8267716535433071
          },
          {
            "duration": 0.11428559999998811,
            "durationTicks": 192,
            "midi": 53,
            "name": "F3",
            "ticks": 170640,
            "time": 101.57132700000001,
            "velocity": 0.8267716535433071
          },
          {
            "duration": 0.11428560000000232,
            "durationTicks": 192,
            "midi": 51,
            "name": "D#3",
            "ticks": 170880,
            "time": 101.714184,
            "velocity": 0.8267716535433071
          },
          {
            "duration": 0.11428559999998811,
            "durationTicks": 192,
            "midi": 50,
            "name": "D3",
            "ticks": 171120,
            "time": 101.85704100000001,
            "velocity": 0.8267716535433071
          },
          {
            "duration": 0.11428560000000232,
            "durationTicks": 192,
            "midi": 48,
            "name": "C3",
            "ticks": 171360,
            "time": 101.999898,
            "velocity": 0.8267716535433071
          },
          {
            "duration": 0.11428559999998811,
            "durationTicks": 192,
            "midi": 46,
            "name": "A#2",
            "ticks": 171600,
            "time": 102.14275500000001,
            "velocity": 0.8267716535433071
          },
          {
            "duration": 0.11428559999998811,
            "durationTicks": 192,
            "midi": 45,
            "name": "A2",
            "ticks": 171840,
            "time": 102.28561200000001,
            "velocity": 0.8267716535433071
          },
          {
            "duration": 0.11428559999998811,
            "durationTicks": 192,
            "midi": 43,
            "name": "G2",
            "ticks": 172080,
            "time": 102.428469,
            "velocity": 0.8267716535433071
          },
          {
            "duration": 0.11428559999998811,
            "durationTicks": 192,
            "midi": 41,
            "name": "F2",
            "ticks": 172320,
            "time": 102.57132600000001,
            "velocity": 0.8267716535433071
          },
          {
            "duration": 0.11428560000000232,
            "durationTicks": 192,
            "midi": 39,
            "name": "D#2",
            "ticks": 172560,
            "time": 102.714183,
            "velocity": 0.8267716535433071
          },
          {
            "duration": 0.1999997999999863,
            "durationTicks": 336,
            "midi": 38,
            "name": "D2",
            "ticks": 172800,
            "time": 102.85704000000001,
            "velocity": 0.8267716535433071
          },
          {
            "duration": 0.1999998000000005,
            "durationTicks": 336,
            "midi": 38,
            "name": "D2",
            "ticks": 173280,
            "time": 103.14275400000001,
            "velocity": 0.8267716535433071
          },
          {
            "duration": 0.1999998000000005,
            "durationTicks": 336,
            "midi": 39,
            "name": "D#2",
            "ticks": 173760,
            "time": 103.42846800000001,
            "velocity": 0.8267716535433071
          },
          {
            "duration": 0.1999998000000005,
            "durationTicks": 336,
            "midi": 41,
            "name": "F2",
            "ticks": 174240,
            "time": 103.71418200000001,
            "velocity": 0.8267716535433071
          },
          {
            "duration": 0.11428560000000232,
            "durationTicks": 192,
            "midi": 46,
            "name": "A#2",
            "ticks": 174720,
            "time": 103.999896,
            "velocity": 0.8267716535433071
          },
          {
            "duration": 0.11428559999998811,
            "durationTicks": 192,
            "midi": 41,
            "name": "F2",
            "ticks": 174960,
            "time": 104.14275300000001,
            "velocity": 0.8267716535433071
          },
          {
            "duration": 0.11428560000000232,
            "durationTicks": 192,
            "midi": 50,
            "name": "D3",
            "ticks": 175200,
            "time": 104.28561,
            "velocity": 0.8267716535433071
          },
          {
            "duration": 0.11428559999998811,
            "durationTicks": 192,
            "midi": 48,
            "name": "C3",
            "ticks": 175440,
            "time": 104.42846700000001,
            "velocity": 0.8267716535433071
          },
          {
            "duration": 0.11428560000000232,
            "durationTicks": 192,
            "midi": 46,
            "name": "A#2",
            "ticks": 175680,
            "time": 104.571324,
            "velocity": 0.8267716535433071
          },
          {
            "duration": 0.11428559999998811,
            "durationTicks": 192,
            "midi": 45,
            "name": "A2",
            "ticks": 175920,
            "time": 104.71418100000001,
            "velocity": 0.8267716535433071
          },
          {
            "duration": 0.11428560000000232,
            "durationTicks": 192,
            "midi": 43,
            "name": "G2",
            "ticks": 176160,
            "time": 104.857038,
            "velocity": 0.8267716535433071
          },
          {
            "duration": 0.11428559999998811,
            "durationTicks": 192,
            "midi": 41,
            "name": "F2",
            "ticks": 176400,
            "time": 104.99989500000001,
            "velocity": 0.8267716535433071
          },
          {
            "duration": 0.11428560000000232,
            "durationTicks": 192,
            "midi": 39,
            "name": "D#2",
            "ticks": 176640,
            "time": 105.142752,
            "velocity": 0.8267716535433071
          },
          {
            "duration": 0.11428559999998811,
            "durationTicks": 192,
            "midi": 38,
            "name": "D2",
            "ticks": 176880,
            "time": 105.28560900000001,
            "velocity": 0.8267716535433071
          },
          {
            "duration": 0.11428559999998811,
            "durationTicks": 192,
            "midi": 36,
            "name": "C2",
            "ticks": 177120,
            "time": 105.42846600000001,
            "velocity": 0.8267716535433071
          },
          {
            "duration": 0.11428560000000232,
            "durationTicks": 192,
            "midi": 34,
            "name": "A#1",
            "ticks": 177360,
            "time": 105.571323,
            "velocity": 0.8267716535433071
          },
          {
            "duration": 0.11428559999998811,
            "durationTicks": 192,
            "midi": 33,
            "name": "A1",
            "ticks": 177600,
            "time": 105.71418000000001,
            "velocity": 0.8267716535433071
          },
          {
            "duration": 0.11428560000000232,
            "durationTicks": 192,
            "midi": 36,
            "name": "C2",
            "ticks": 177840,
            "time": 105.857037,
            "velocity": 0.8267716535433071
          },
          {
            "duration": 0.11428559999998811,
            "durationTicks": 192,
            "midi": 41,
            "name": "F2",
            "ticks": 178080,
            "time": 105.99989400000001,
            "velocity": 0.8267716535433071
          },
          {
            "duration": 0.11428560000000232,
            "durationTicks": 192,
            "midi": 39,
            "name": "D#2",
            "ticks": 178320,
            "time": 106.142751,
            "velocity": 0.8267716535433071
          },
          {
            "duration": 0.1999998000000005,
            "durationTicks": 336,
            "midi": 38,
            "name": "D2",
            "ticks": 178560,
            "time": 106.28560800000001,
            "velocity": 0.8267716535433071
          },
          {
            "duration": 0.1999998000000005,
            "durationTicks": 336,
            "midi": 38,
            "name": "D2",
            "ticks": 179040,
            "time": 106.57132200000001,
            "velocity": 0.8267716535433071
          },
          {
            "duration": 0.1999998000000005,
            "durationTicks": 336,
            "midi": 39,
            "name": "D#2",
            "ticks": 179520,
            "time": 106.85703600000001,
            "velocity": 0.8267716535433071
          },
          {
            "duration": 0.1999998000000005,
            "durationTicks": 336,
            "midi": 41,
            "name": "F2",
            "ticks": 180000,
            "time": 107.14275,
            "velocity": 0.8267716535433071
          },
          {
            "duration": 0.1999998000000005,
            "durationTicks": 336,
            "midi": 43,
            "name": "G2",
            "ticks": 180480,
            "time": 107.428464,
            "velocity": 0.8267716535433071
          },
          {
            "duration": 0.1999998000000005,
            "durationTicks": 336,
            "midi": 39,
            "name": "D#2",
            "ticks": 180960,
            "time": 107.714178,
            "velocity": 0.8267716535433071
          },
          {
            "duration": 0.1999998000000005,
            "durationTicks": 336,
            "midi": 41,
            "name": "F2",
            "ticks": 181440,
            "time": 107.999892,
            "velocity": 0.8267716535433071
          },
          {
            "duration": 0.1999997999999863,
            "durationTicks": 336,
            "midi": 29,
            "name": "F1",
            "ticks": 181920,
            "time": 108.28560600000002,
            "velocity": 0.8267716535433071
          },
          {
            "duration": 0.22857120000000464,
            "durationTicks": 384,
            "midi": 34,
            "name": "A#1",
            "ticks": 182400,
            "time": 108.57132000000001,
            "velocity": 0.8267716535433071
          },
          {
            "duration": 0.22857120000000464,
            "durationTicks": 384,
            "midi": 41,
            "name": "F2",
            "ticks": 183360,
            "time": 109.14274800000001,
            "velocity": 0.8267716535433071
          },
          {
            "duration": 0.22857120000000464,
            "durationTicks": 384,
            "midi": 46,
            "name": "A#2",
            "ticks": 184320,
            "time": 109.71417600000001,
            "velocity": 0.8267716535433071
          },
          {
            "duration": 0.22857120000000464,
            "durationTicks": 384,
            "midi": 41,
            "name": "F2",
            "ticks": 185280,
            "time": 110.285604,
            "velocity": 0.8267716535433071
          },
          {
            "duration": 0.22857120000000464,
            "durationTicks": 384,
            "midi": 46,
            "name": "A#2",
            "ticks": 186240,
            "time": 110.857032,
            "velocity": 0.8267716535433071
          },
          {
            "duration": 0.22857119999999043,
            "durationTicks": 384,
            "midi": 41,
            "name": "F2",
            "ticks": 187200,
            "time": 111.42846000000002,
            "velocity": 0.8267716535433071
          },
          {
            "duration": 0.21428550000000257,
            "durationTicks": 360,
            "midi": 46,
            "name": "A#2",
            "ticks": 188160,
            "time": 111.99988800000001,
            "velocity": 0.8267716535433071
          },
          {
            "duration": 0.21428550000000257,
            "durationTicks": 360,
            "midi": 41,
            "name": "F2",
            "ticks": 188640,
            "time": 112.28560200000001,
            "velocity": 0.8267716535433071
          },
          {
            "duration": 0.21428550000000257,
            "durationTicks": 360,
            "midi": 46,
            "name": "A#2",
            "ticks": 189120,
            "time": 112.57131600000001,
            "velocity": 0.8267716535433071
          },
          {
            "duration": 0.21428550000000257,
            "durationTicks": 360,
            "midi": 41,
            "name": "F2",
            "ticks": 189600,
            "time": 112.85703000000001,
            "velocity": 0.8267716535433071
          },
          {
            "duration": 0.22857120000000464,
            "durationTicks": 384,
            "midi": 46,
            "name": "A#2",
            "ticks": 190080,
            "time": 113.14274400000001,
            "velocity": 0.8267716535433071
          },
          {
            "duration": 0.22857119999999043,
            "durationTicks": 384,
            "midi": 45,
            "name": "A2",
            "ticks": 192000,
            "time": 114.28560000000002,
            "velocity": 0.8267716535433071
          },
          {
            "duration": 0.22857120000000464,
            "durationTicks": 384,
            "midi": 31,
            "name": "G1",
            "ticks": 193920,
            "time": 115.42845600000001,
            "velocity": 0.5511811023622047
          },
          {
            "duration": 0.22857120000000464,
            "durationTicks": 384,
            "midi": 43,
            "name": "G2",
            "ticks": 195840,
            "time": 116.571312,
            "velocity": 0.5511811023622047
          },
          {
            "duration": 0.22857120000000464,
            "durationTicks": 384,
            "midi": 31,
            "name": "G1",
            "ticks": 197760,
            "time": 117.71416800000002,
            "velocity": 0.5511811023622047
          },
          {
            "duration": 0.22857120000000464,
            "durationTicks": 384,
            "midi": 43,
            "name": "G2",
            "ticks": 199680,
            "time": 118.85702400000001,
            "velocity": 0.5511811023622047
          },
          {
            "duration": 0.22857120000000464,
            "durationTicks": 384,
            "midi": 31,
            "name": "G1",
            "ticks": 201600,
            "time": 119.99988,
            "velocity": 0.5511811023622047
          },
          {
            "duration": 0.22857120000000464,
            "durationTicks": 384,
            "midi": 43,
            "name": "G2",
            "ticks": 203520,
            "time": 121.14273600000001,
            "velocity": 0.5511811023622047
          },
          {
            "duration": 0.22857120000000464,
            "durationTicks": 384,
            "midi": 30,
            "name": "F#1",
            "ticks": 205440,
            "time": 122.28559200000001,
            "velocity": 0.5511811023622047
          },
          {
            "duration": 0.22857120000000464,
            "durationTicks": 384,
            "midi": 38,
            "name": "D2",
            "ticks": 207360,
            "time": 123.428448,
            "velocity": 0.5511811023622047
          },
          {
            "duration": 0.22857120000000464,
            "durationTicks": 384,
            "midi": 31,
            "name": "G1",
            "ticks": 209280,
            "time": 124.57130400000001,
            "velocity": 0.5511811023622047
          },
          {
            "duration": 1.142856000000009,
            "durationTicks": 1920,
            "midi": 36,
            "name": "C2",
            "ticks": 211200,
            "time": 125.71416,
            "velocity": 0.5511811023622047
          },
          {
            "duration": 1.1428559999999948,
            "durationTicks": 1920,
            "midi": 34,
            "name": "A#1",
            "ticks": 213120,
            "time": 126.85701600000002,
            "velocity": 0.5511811023622047
          },
          {
            "duration": 1.1428559999999948,
            "durationTicks": 1920,
            "midi": 36,
            "name": "C2",
            "ticks": 215040,
            "time": 127.99987200000001,
            "velocity": 0.5511811023622047
          },
          {
            "duration": 1.085713200000015,
            "durationTicks": 1824,
            "midi": 34,
            "name": "A#1",
            "ticks": 216960,
            "time": 129.142728,
            "velocity": 0.5511811023622047
          },
          {
            "duration": 1.1428560000000232,
            "durationTicks": 1920,
            "midi": 40,
            "name": "E2",
            "ticks": 218880,
            "time": 130.285584,
            "velocity": 0.5511811023622047
          },
          {
            "duration": 1.0857131999999865,
            "durationTicks": 1824,
            "midi": 39,
            "name": "D#2",
            "ticks": 220800,
            "time": 131.42844000000002,
            "velocity": 0.5511811023622047
          },
          {
            "duration": 0.4571424000000093,
            "durationTicks": 768,
            "midi": 38,
            "name": "D2",
            "ticks": 222720,
            "time": 132.57129600000002,
            "velocity": 0.5511811023622047
          },
          {
            "duration": 0.10714275000000839,
            "durationTicks": 180,
            "midi": 38,
            "name": "D2",
            "ticks": 224160,
            "time": 133.428438,
            "velocity": 0.8267716535433071
          },
          {
            "duration": 0.10714274999997997,
            "durationTicks": 180,
            "midi": 38,
            "name": "D2",
            "ticks": 224400,
            "time": 133.57129500000002,
            "velocity": 0.8267716535433071
          },
          {
            "duration": 0.4571424000000093,
            "durationTicks": 768,
            "midi": 38,
            "name": "D2",
            "ticks": 224640,
            "time": 133.714152,
            "velocity": 0.8267716535433071
          },
          {
            "duration": 0.10714274999997997,
            "durationTicks": 180,
            "midi": 38,
            "name": "D2",
            "ticks": 226080,
            "time": 134.57129400000002,
            "velocity": 0.8267716535433071
          },
          {
            "duration": 0.10714275000000839,
            "durationTicks": 180,
            "midi": 38,
            "name": "D2",
            "ticks": 226320,
            "time": 134.71415100000002,
            "velocity": 0.8267716535433071
          },
          {
            "duration": 0.4571424000000093,
            "durationTicks": 768,
            "midi": 38,
            "name": "D2",
            "ticks": 226560,
            "time": 134.857008,
            "velocity": 0.8267716535433071
          },
          {
            "duration": 0.10714274999997997,
            "durationTicks": 180,
            "midi": 38,
            "name": "D2",
            "ticks": 228000,
            "time": 135.71415000000002,
            "velocity": 0.8267716535433071
          },
          {
            "duration": 0.10714275000000839,
            "durationTicks": 180,
            "midi": 38,
            "name": "D2",
            "ticks": 228240,
            "time": 135.857007,
            "velocity": 0.8267716535433071
          },
          {
            "duration": 0.21428550000001678,
            "durationTicks": 360,
            "midi": 38,
            "name": "D2",
            "ticks": 228480,
            "time": 135.999864,
            "velocity": 0.8267716535433071
          },
          {
            "duration": 0.10714275000000839,
            "durationTicks": 180,
            "midi": 38,
            "name": "D2",
            "ticks": 228960,
            "time": 136.28557800000002,
            "velocity": 0.8267716535433071
          },
          {
            "duration": 0.10714275000000839,
            "durationTicks": 180,
            "midi": 38,
            "name": "D2",
            "ticks": 229200,
            "time": 136.428435,
            "velocity": 0.8267716535433071
          },
          {
            "duration": 0.21428550000001678,
            "durationTicks": 360,
            "midi": 38,
            "name": "D2",
            "ticks": 229440,
            "time": 136.571292,
            "velocity": 0.8267716535433071
          },
          {
            "duration": 0.10714275000000839,
            "durationTicks": 180,
            "midi": 38,
            "name": "D2",
            "ticks": 229920,
            "time": 136.857006,
            "velocity": 0.8267716535433071
          },
          {
            "duration": 0.10714275000000839,
            "durationTicks": 180,
            "midi": 38,
            "name": "D2",
            "ticks": 230160,
            "time": 136.999863,
            "velocity": 0.8267716535433071
          },
          {
            "duration": 0.4571424000000093,
            "durationTicks": 768,
            "midi": 38,
            "name": "D2",
            "ticks": 230400,
            "time": 137.14272,
            "velocity": 0.8267716535433071
          },
          {
            "duration": 0.22857120000000464,
            "durationTicks": 384,
            "midi": 31,
            "name": "G1",
            "ticks": 234240,
            "time": 139.42843200000002,
            "velocity": 0.5511811023622047
          },
          {
            "duration": 0.22857120000000464,
            "durationTicks": 384,
            "midi": 43,
            "name": "G2",
            "ticks": 236160,
            "time": 140.571288,
            "velocity": 0.5511811023622047
          },
          {
            "duration": 0.22857120000000464,
            "durationTicks": 384,
            "midi": 27,
            "name": "D#1",
            "ticks": 238080,
            "time": 141.714144,
            "velocity": 0.5511811023622047
          },
          {
            "duration": 0.22857120000000464,
            "durationTicks": 384,
            "midi": 36,
            "name": "C2",
            "ticks": 240000,
            "time": 142.857,
            "velocity": 0.5511811023622047
          },
          {
            "duration": 0.22857120000000464,
            "durationTicks": 384,
            "midi": 41,
            "name": "F2",
            "ticks": 241920,
            "time": 143.99985600000002,
            "velocity": 0.5511811023622047
          },
          {
            "duration": 0.22857120000000464,
            "durationTicks": 384,
            "midi": 41,
            "name": "F2",
            "ticks": 243840,
            "time": 145.14271200000002,
            "velocity": 0.5511811023622047
          },
          {
            "duration": 0.11428559999998811,
            "durationTicks": 192,
            "midi": 46,
            "name": "A#2",
            "ticks": 245760,
            "time": 146.285568,
            "velocity": 0.8267716535433071
          },
          {
            "duration": 0.11428559999998811,
            "durationTicks": 192,
            "midi": 50,
            "name": "D3",
            "ticks": 246000,
            "time": 146.428425,
            "velocity": 0.8267716535433071
          },
          {
            "duration": 0.11428559999998811,
            "durationTicks": 192,
            "midi": 46,
            "name": "A#2",
            "ticks": 246240,
            "time": 146.57128200000002,
            "velocity": 0.8267716535433071
          },
          {
            "duration": 0.11428559999998811,
            "durationTicks": 192,
            "midi": 50,
            "name": "D3",
            "ticks": 246480,
            "time": 146.71413900000002,
            "velocity": 0.8267716535433071
          },
          {
            "duration": 0.11428559999998811,
            "durationTicks": 192,
            "midi": 46,
            "name": "A#2",
            "ticks": 246720,
            "time": 146.856996,
            "velocity": 0.8267716535433071
          },
          {
            "duration": 0.11428560000001653,
            "durationTicks": 192,
            "midi": 50,
            "name": "D3",
            "ticks": 246960,
            "time": 146.999853,
            "velocity": 0.8267716535433071
          },
          {
            "duration": 0.11428559999998811,
            "durationTicks": 192,
            "midi": 46,
            "name": "A#2",
            "ticks": 247200,
            "time": 147.14271000000002,
            "velocity": 0.8267716535433071
          },
          {
            "duration": 0.11428559999998811,
            "durationTicks": 192,
            "midi": 50,
            "name": "D3",
            "ticks": 247440,
            "time": 147.28556700000001,
            "velocity": 0.8267716535433071
          },
          {
            "duration": 0.11428559999998811,
            "durationTicks": 192,
            "midi": 45,
            "name": "A2",
            "ticks": 247680,
            "time": 147.428424,
            "velocity": 0.8267716535433071
          },
          {
            "duration": 0.11428560000001653,
            "durationTicks": 192,
            "midi": 48,
            "name": "C3",
            "ticks": 247920,
            "time": 147.571281,
            "velocity": 0.8267716535433071
          },
          {
            "duration": 0.11428559999998811,
            "durationTicks": 192,
            "midi": 45,
            "name": "A2",
            "ticks": 248160,
            "time": 147.71413800000002,
            "velocity": 0.8267716535433071
          },
          {
            "duration": 0.11428559999998811,
            "durationTicks": 192,
            "midi": 48,
            "name": "C3",
            "ticks": 248400,
            "time": 147.856995,
            "velocity": 0.8267716535433071
          },
          {
            "duration": 0.11428559999998811,
            "durationTicks": 192,
            "midi": 45,
            "name": "A2",
            "ticks": 248640,
            "time": 147.999852,
            "velocity": 0.8267716535433071
          },
          {
            "duration": 0.11428559999998811,
            "durationTicks": 192,
            "midi": 48,
            "name": "C3",
            "ticks": 248880,
            "time": 148.14270900000002,
            "velocity": 0.8267716535433071
          },
          {
            "duration": 0.11428559999998811,
            "durationTicks": 192,
            "midi": 45,
            "name": "A2",
            "ticks": 249120,
            "time": 148.28556600000002,
            "velocity": 0.8267716535433071
          },
          {
            "duration": 0.11428559999998811,
            "durationTicks": 192,
            "midi": 48,
            "name": "C3",
            "ticks": 249360,
            "time": 148.428423,
            "velocity": 0.8267716535433071
          },
          {
            "duration": 0.11428560000001653,
            "durationTicks": 192,
            "midi": 43,
            "name": "G2",
            "ticks": 249600,
            "time": 148.57128,
            "velocity": 0.8267716535433071
          },
          {
            "duration": 0.11428559999998811,
            "durationTicks": 192,
            "midi": 46,
            "name": "A#2",
            "ticks": 249840,
            "time": 148.71413700000002,
            "velocity": 0.8267716535433071
          },
          {
            "duration": 0.11428559999998811,
            "durationTicks": 192,
            "midi": 43,
            "name": "G2",
            "ticks": 250080,
            "time": 148.85699400000001,
            "velocity": 0.8267716535433071
          },
          {
            "duration": 0.11428559999998811,
            "durationTicks": 192,
            "midi": 46,
            "name": "A#2",
            "ticks": 250320,
            "time": 148.999851,
            "velocity": 0.8267716535433071
          },
          {
            "duration": 0.11428560000001653,
            "durationTicks": 192,
            "midi": 43,
            "name": "G2",
            "ticks": 250560,
            "time": 149.142708,
            "velocity": 0.8267716535433071
          },
          {
            "duration": 0.11428559999998811,
            "durationTicks": 192,
            "midi": 46,
            "name": "A#2",
            "ticks": 250800,
            "time": 149.28556500000002,
            "velocity": 0.8267716535433071
          },
          {
            "duration": 0.11428559999998811,
            "durationTicks": 192,
            "midi": 43,
            "name": "G2",
            "ticks": 251040,
            "time": 149.428422,
            "velocity": 0.8267716535433071
          },
          {
            "duration": 0.11428559999998811,
            "durationTicks": 192,
            "midi": 46,
            "name": "A#2",
            "ticks": 251280,
            "time": 149.571279,
            "velocity": 0.8267716535433071
          },
          {
            "duration": 0.11428559999998811,
            "durationTicks": 192,
            "midi": 41,
            "name": "F2",
            "ticks": 251520,
            "time": 149.71413600000002,
            "velocity": 0.8267716535433071
          },
          {
            "duration": 0.11428559999998811,
            "durationTicks": 192,
            "midi": 46,
            "name": "A#2",
            "ticks": 251760,
            "time": 149.85699300000002,
            "velocity": 0.8267716535433071
          },
          {
            "duration": 0.11428559999998811,
            "durationTicks": 192,
            "midi": 41,
            "name": "F2",
            "ticks": 252000,
            "time": 149.99985,
            "velocity": 0.8267716535433071
          },
          {
            "duration": 0.11428560000001653,
            "durationTicks": 192,
            "midi": 46,
            "name": "A#2",
            "ticks": 252240,
            "time": 150.142707,
            "velocity": 0.8267716535433071
          },
          {
            "duration": 0.11428559999998811,
            "durationTicks": 192,
            "midi": 41,
            "name": "F2",
            "ticks": 252480,
            "time": 150.28556400000002,
            "velocity": 0.8267716535433071
          },
          {
            "duration": 0.11428559999998811,
            "durationTicks": 192,
            "midi": 46,
            "name": "A#2",
            "ticks": 252720,
            "time": 150.42842100000001,
            "velocity": 0.8267716535433071
          },
          {
            "duration": 0.11428559999998811,
            "durationTicks": 192,
            "midi": 41,
            "name": "F2",
            "ticks": 252960,
            "time": 150.571278,
            "velocity": 0.8267716535433071
          },
          {
            "duration": 0.11428560000001653,
            "durationTicks": 192,
            "midi": 46,
            "name": "A#2",
            "ticks": 253200,
            "time": 150.714135,
            "velocity": 0.8267716535433071
          },
          {
            "duration": 0.11428559999998811,
            "durationTicks": 192,
            "midi": 39,
            "name": "D#2",
            "ticks": 253440,
            "time": 150.85699200000002,
            "velocity": 0.8267716535433071
          },
          {
            "duration": 0.11428559999998811,
            "durationTicks": 192,
            "midi": 43,
            "name": "G2",
            "ticks": 253680,
            "time": 150.999849,
            "velocity": 0.8267716535433071
          },
          {
            "duration": 0.11428559999998811,
            "durationTicks": 192,
            "midi": 39,
            "name": "D#2",
            "ticks": 253920,
            "time": 151.142706,
            "velocity": 0.8267716535433071
          },
          {
            "duration": 0.11428559999998811,
            "durationTicks": 192,
            "midi": 43,
            "name": "G2",
            "ticks": 254160,
            "time": 151.28556300000002,
            "velocity": 0.8267716535433071
          },
          {
            "duration": 0.11428559999998811,
            "durationTicks": 192,
            "midi": 39,
            "name": "D#2",
            "ticks": 254400,
            "time": 151.42842000000002,
            "velocity": 0.8267716535433071
          },
          {
            "duration": 0.11428559999998811,
            "durationTicks": 192,
            "midi": 43,
            "name": "G2",
            "ticks": 254640,
            "time": 151.571277,
            "velocity": 0.8267716535433071
          },
          {
            "duration": 0.11428560000001653,
            "durationTicks": 192,
            "midi": 39,
            "name": "D#2",
            "ticks": 254880,
            "time": 151.714134,
            "velocity": 0.8267716535433071
          },
          {
            "duration": 0.11428559999998811,
            "durationTicks": 192,
            "midi": 43,
            "name": "G2",
            "ticks": 255120,
            "time": 151.85699100000002,
            "velocity": 0.8267716535433071
          },
          {
            "duration": 0.11428559999998811,
            "durationTicks": 192,
            "midi": 38,
            "name": "D2",
            "ticks": 255360,
            "time": 151.99984800000001,
            "velocity": 0.8267716535433071
          },
          {
            "duration": 0.11428559999998811,
            "durationTicks": 192,
            "midi": 41,
            "name": "F2",
            "ticks": 255600,
            "time": 152.142705,
            "velocity": 0.8267716535433071
          },
          {
            "duration": 0.11428560000001653,
            "durationTicks": 192,
            "midi": 38,
            "name": "D2",
            "ticks": 255840,
            "time": 152.285562,
            "velocity": 0.8267716535433071
          },
          {
            "duration": 0.11428559999998811,
            "durationTicks": 192,
            "midi": 41,
            "name": "F2",
            "ticks": 256080,
            "time": 152.42841900000002,
            "velocity": 0.8267716535433071
          },
          {
            "duration": 0.11428559999998811,
            "durationTicks": 192,
            "midi": 38,
            "name": "D2",
            "ticks": 256320,
            "time": 152.571276,
            "velocity": 0.8267716535433071
          },
          {
            "duration": 0.11428559999998811,
            "durationTicks": 192,
            "midi": 41,
            "name": "F2",
            "ticks": 256560,
            "time": 152.714133,
            "velocity": 0.8267716535433071
          },
          {
            "duration": 0.11428559999998811,
            "durationTicks": 192,
            "midi": 38,
            "name": "D2",
            "ticks": 256800,
            "time": 152.85699000000002,
            "velocity": 0.8267716535433071
          },
          {
            "duration": 0.11428559999998811,
            "durationTicks": 192,
            "midi": 41,
            "name": "F2",
            "ticks": 257040,
            "time": 152.99984700000002,
            "velocity": 0.8267716535433071
          },
          {
            "duration": 0.9142848000000185,
            "durationTicks": 1536,
            "midi": 36,
            "name": "C2",
            "ticks": 257280,
            "time": 153.142704,
            "velocity": 0.8818897637795275
          },
          {
            "duration": 0.4571424000000093,
            "durationTicks": 768,
            "midi": 36,
            "name": "C2",
            "ticks": 259200,
            "time": 154.28556,
            "velocity": 0.8818897637795275
          },
          {
            "duration": 0.4571424000000093,
            "durationTicks": 768,
            "midi": 37,
            "name": "C#2",
            "ticks": 260160,
            "time": 154.856988,
            "velocity": 0.8818897637795275
          },
          {
            "duration": 0.45714239999998085,
            "durationTicks": 768,
            "midi": 36,
            "name": "C2",
            "ticks": 261120,
            "time": 155.42841600000003,
            "velocity": 0.8818897637795275
          },
          {
            "duration": 0.45714239999998085,
            "durationTicks": 768,
            "midi": 37,
            "name": "C#2",
            "ticks": 262080,
            "time": 155.99984400000002,
            "velocity": 0.8818897637795275
          },
          {
            "duration": 0.4571424000000093,
            "durationTicks": 768,
            "midi": 36,
            "name": "C2",
            "ticks": 263040,
            "time": 156.57127200000002,
            "velocity": 0.8818897637795275
          },
          {
            "duration": 0.11428559999998811,
            "durationTicks": 192,
            "midi": 36,
            "name": "C2",
            "ticks": 264720,
            "time": 157.57127100000002,
            "velocity": 0.8267716535433071
          },
          {
            "duration": 0.10714275000000839,
            "durationTicks": 180,
            "midi": 41,
            "name": "F2",
            "ticks": 264960,
            "time": 157.71412800000002,
            "velocity": 0.8267716535433071
          },
          {
            "duration": 0.10714275000000839,
            "durationTicks": 180,
            "midi": 41,
            "name": "F2",
            "ticks": 265200,
            "time": 157.856985,
            "velocity": 0.8267716535433071
          },
          {
            "duration": 0.10714275000000839,
            "durationTicks": 180,
            "midi": 41,
            "name": "F2",
            "ticks": 265440,
            "time": 157.999842,
            "velocity": 0.8267716535433071
          },
          {
            "duration": 0.10714274999997997,
            "durationTicks": 180,
            "midi": 41,
            "name": "F2",
            "ticks": 265680,
            "time": 158.14269900000002,
            "velocity": 0.8267716535433071
          },
          {
            "duration": 0.10714275000000839,
            "durationTicks": 180,
            "midi": 41,
            "name": "F2",
            "ticks": 265920,
            "time": 158.285556,
            "velocity": 0.8267716535433071
          },
          {
            "duration": 0.10714275000000839,
            "durationTicks": 180,
            "midi": 41,
            "name": "F2",
            "ticks": 266160,
            "time": 158.428413,
            "velocity": 0.8267716535433071
          },
          {
            "duration": 0.10714274999997997,
            "durationTicks": 180,
            "midi": 41,
            "name": "F2",
            "ticks": 266400,
            "time": 158.57127000000003,
            "velocity": 0.8267716535433071
          },
          {
            "duration": 0.10714274999997997,
            "durationTicks": 180,
            "midi": 41,
            "name": "F2",
            "ticks": 266640,
            "time": 158.71412700000002,
            "velocity": 0.8267716535433071
          },
          {
            "duration": 0.10714275000000839,
            "durationTicks": 180,
            "midi": 41,
            "name": "F2",
            "ticks": 266880,
            "time": 158.856984,
            "velocity": 0.8267716535433071
          },
          {
            "duration": 0.10714275000000839,
            "durationTicks": 180,
            "midi": 41,
            "name": "F2",
            "ticks": 267120,
            "time": 158.999841,
            "velocity": 0.8267716535433071
          },
          {
            "duration": 0.10714274999997997,
            "durationTicks": 180,
            "midi": 41,
            "name": "F2",
            "ticks": 267360,
            "time": 159.14269800000002,
            "velocity": 0.8267716535433071
          },
          {
            "duration": 0.10714275000000839,
            "durationTicks": 180,
            "midi": 41,
            "name": "F2",
            "ticks": 267600,
            "time": 159.28555500000002,
            "velocity": 0.8267716535433071
          },
          {
            "duration": 0.10714275000000839,
            "durationTicks": 180,
            "midi": 41,
            "name": "F2",
            "ticks": 267840,
            "time": 159.428412,
            "velocity": 0.8267716535433071
          },
          {
            "duration": 0.10714275000000839,
            "durationTicks": 180,
            "midi": 41,
            "name": "F2",
            "ticks": 268080,
            "time": 159.571269,
            "velocity": 0.8267716535433071
          },
          {
            "duration": 0.10714274999997997,
            "durationTicks": 180,
            "midi": 41,
            "name": "F2",
            "ticks": 268320,
            "time": 159.71412600000002,
            "velocity": 0.8267716535433071
          },
          {
            "duration": 0.10714275000000839,
            "durationTicks": 180,
            "midi": 41,
            "name": "F2",
            "ticks": 268560,
            "time": 159.856983,
            "velocity": 0.8267716535433071
          },
          {
            "duration": 0.10714275000000839,
            "durationTicks": 180,
            "midi": 41,
            "name": "F2",
            "ticks": 268800,
            "time": 159.99984,
            "velocity": 0.8267716535433071
          },
          {
            "duration": 0.10714274999997997,
            "durationTicks": 180,
            "midi": 41,
            "name": "F2",
            "ticks": 269040,
            "time": 160.14269700000003,
            "velocity": 0.8267716535433071
          },
          {
            "duration": 0.10714275000000839,
            "durationTicks": 180,
            "midi": 41,
            "name": "F2",
            "ticks": 269280,
            "time": 160.28555400000002,
            "velocity": 0.8267716535433071
          },
          {
            "duration": 0.10714275000000839,
            "durationTicks": 180,
            "midi": 41,
            "name": "F2",
            "ticks": 269520,
            "time": 160.428411,
            "velocity": 0.8267716535433071
          },
          {
            "duration": 0.10714275000000839,
            "durationTicks": 180,
            "midi": 41,
            "name": "F2",
            "ticks": 269760,
            "time": 160.571268,
            "velocity": 0.8267716535433071
          },
          {
            "duration": 0.10714274999997997,
            "durationTicks": 180,
            "midi": 41,
            "name": "F2",
            "ticks": 270000,
            "time": 160.71412500000002,
            "velocity": 0.8267716535433071
          },
          {
            "duration": 0.10714275000000839,
            "durationTicks": 180,
            "midi": 41,
            "name": "F2",
            "ticks": 270240,
            "time": 160.85698200000002,
            "velocity": 0.8267716535433071
          },
          {
            "duration": 0.10714275000000839,
            "durationTicks": 180,
            "midi": 41,
            "name": "F2",
            "ticks": 270480,
            "time": 160.999839,
            "velocity": 0.8267716535433071
          },
          {
            "duration": 0.10714275000000839,
            "durationTicks": 180,
            "midi": 41,
            "name": "F2",
            "ticks": 270720,
            "time": 161.142696,
            "velocity": 0.8267716535433071
          },
          {
            "duration": 0.10714274999997997,
            "durationTicks": 180,
            "midi": 41,
            "name": "F2",
            "ticks": 270960,
            "time": 161.28555300000002,
            "velocity": 0.8267716535433071
          },
          {
            "duration": 0.10714275000000839,
            "durationTicks": 180,
            "midi": 41,
            "name": "F2",
            "ticks": 271200,
            "time": 161.42841,
            "velocity": 0.8267716535433071
          },
          {
            "duration": 0.10714275000000839,
            "durationTicks": 180,
            "midi": 41,
            "name": "F2",
            "ticks": 271440,
            "time": 161.571267,
            "velocity": 0.8267716535433071
          },
          {
            "duration": 0.10714274999997997,
            "durationTicks": 180,
            "midi": 41,
            "name": "F2",
            "ticks": 271680,
            "time": 161.71412400000003,
            "velocity": 0.8267716535433071
          },
          {
            "duration": 0.10714275000000839,
            "durationTicks": 180,
            "midi": 41,
            "name": "F2",
            "ticks": 271920,
            "time": 161.85698100000002,
            "velocity": 0.8267716535433071
          },
          {
            "duration": 0.10714275000000839,
            "durationTicks": 180,
            "midi": 41,
            "name": "F2",
            "ticks": 272160,
            "time": 161.999838,
            "velocity": 0.8267716535433071
          },
          {
            "duration": 0.10714275000000839,
            "durationTicks": 180,
            "midi": 41,
            "name": "F2",
            "ticks": 272400,
            "time": 162.142695,
            "velocity": 0.8267716535433071
          },
          {
            "duration": 0.22857119999997622,
            "durationTicks": 384,
            "midi": 41,
            "name": "F2",
            "ticks": 272640,
            "time": 162.28555200000002,
            "velocity": 0.8267716535433071
          },
          {
            "duration": 0.22857119999997622,
            "durationTicks": 384,
            "midi": 29,
            "name": "F1",
            "ticks": 273600,
            "time": 162.85698000000002,
            "velocity": 0.7244094488188977
          },
          {
            "duration": 0.8571420000000103,
            "durationTicks": 1440,
            "midi": 50,
            "name": "D3",
            "ticks": 276480,
            "time": 164.571264,
            "velocity": 0.4566929133858268
          },
          {
            "duration": 0.2857139999999845,
            "durationTicks": 480,
            "midi": 48,
            "name": "C3",
            "ticks": 277920,
            "time": 165.42840600000002,
            "velocity": 0.4566929133858268
          },
          {
            "duration": 0.22857120000000464,
            "durationTicks": 384,
            "midi": 41,
            "name": "F2",
            "ticks": 278400,
            "time": 165.71412,
            "velocity": 0.4566929133858268
          },
          {
            "duration": 0.18571409999998423,
            "durationTicks": 312,
            "midi": 43,
            "name": "G2",
            "ticks": 280800,
            "time": 167.14269000000002,
            "velocity": 0.4566929133858268
          },
          {
            "duration": 0.2857140000000129,
            "durationTicks": 480,
            "midi": 43,
            "name": "G2",
            "ticks": 281280,
            "time": 167.428404,
            "velocity": 0.4566929133858268
          },
          {
            "duration": 0.22857119999997622,
            "durationTicks": 384,
            "midi": 39,
            "name": "D#2",
            "ticks": 281760,
            "time": 167.714118,
            "velocity": 0.4566929133858268
          },
          {
            "duration": 0.45714239999998085,
            "durationTicks": 768,
            "midi": 41,
            "name": "F2",
            "ticks": 282240,
            "time": 167.99983200000003,
            "velocity": 0.4566929133858268
          },
          {
            "duration": 0.8571419999999819,
            "durationTicks": 1440,
            "midi": 39,
            "name": "D#2",
            "ticks": 284160,
            "time": 169.14268800000002,
            "velocity": 0.4566929133858268
          },
          {
            "duration": 0.2857140000000129,
            "durationTicks": 480,
            "midi": 38,
            "name": "D2",
            "ticks": 285600,
            "time": 169.99983,
            "velocity": 0.4566929133858268
          },
          {
            "duration": 0.2857139999999845,
            "durationTicks": 480,
            "midi": 43,
            "name": "G2",
            "ticks": 286080,
            "time": 170.28554400000002,
            "velocity": 0.4566929133858268
          },
          {
            "duration": 0.2857140000000129,
            "durationTicks": 480,
            "midi": 36,
            "name": "C2",
            "ticks": 286560,
            "time": 170.571258,
            "velocity": 0.4566929133858268
          },
          {
            "duration": 0.2857140000000129,
            "durationTicks": 480,
            "midi": 41,
            "name": "F2",
            "ticks": 287040,
            "time": 170.856972,
            "velocity": 0.4566929133858268
          },
          {
            "duration": 0.22857119999997622,
            "durationTicks": 384,
            "midi": 34,
            "name": "A#1",
            "ticks": 287520,
            "time": 171.14268600000003,
            "velocity": 0.4566929133858268
          },
          {
            "duration": 0.22857120000000464,
            "durationTicks": 384,
            "midi": 39,
            "name": "D#2",
            "ticks": 288000,
            "time": 171.4284,
            "velocity": 0.4566929133858268
          },
          {
            "duration": 0.22857120000000464,
            "durationTicks": 384,
            "midi": 41,
            "name": "F2",
            "ticks": 288960,
            "time": 171.999828,
            "velocity": 0.4566929133858268
          },
          {
            "duration": 0.22857120000000464,
            "durationTicks": 384,
            "midi": 34,
            "name": "A#1",
            "ticks": 289920,
            "time": 172.571256,
            "velocity": 0.4566929133858268
          },
          {
            "duration": 0.8571420000000103,
            "durationTicks": 1440,
            "midi": 51,
            "name": "D#3",
            "ticks": 299520,
            "time": 178.285536,
            "velocity": 0.5511811023622047
          },
          {
            "duration": 0.2857139999999845,
            "durationTicks": 480,
            "midi": 50,
            "name": "D3",
            "ticks": 300960,
            "time": 179.14267800000002,
            "velocity": 0.5511811023622047
          },
          {
            "duration": 0.2857140000000129,
            "durationTicks": 480,
            "midi": 43,
            "name": "G2",
            "ticks": 301440,
            "time": 179.428392,
            "velocity": 0.5511811023622047
          },
          {
            "duration": 0.2857140000000129,
            "durationTicks": 480,
            "midi": 48,
            "name": "C3",
            "ticks": 301920,
            "time": 179.71410600000002,
            "velocity": 0.5511811023622047
          },
          {
            "duration": 0.2857139999999845,
            "durationTicks": 480,
            "midi": 41,
            "name": "F2",
            "ticks": 302400,
            "time": 179.99982000000003,
            "velocity": 0.5511811023622047
          },
          {
            "duration": 0.22857119999997622,
            "durationTicks": 384,
            "midi": 46,
            "name": "A#2",
            "ticks": 302880,
            "time": 180.285534,
            "velocity": 0.5511811023622047
          },
          {
            "duration": 4.342852800000003,
            "durationTicks": 7296,
            "midi": 39,
            "name": "D#2",
            "ticks": 303360,
            "time": 180.57124800000003,
            "velocity": 0.4566929133858268
          },
          {
            "duration": 0.1285713000000328,
            "durationTicks": 216,
            "midi": 39,
            "name": "D#2",
            "ticks": 311040,
            "time": 185.142672,
            "velocity": 0.4566929133858268
          },
          {
            "duration": 0.12857130000000438,
            "durationTicks": 216,
            "midi": 39,
            "name": "D#2",
            "ticks": 311280,
            "time": 185.28552900000003,
            "velocity": 0.5669291338582677
          },
          {
            "duration": 0.12857130000000438,
            "durationTicks": 216,
            "midi": 39,
            "name": "D#2",
            "ticks": 311520,
            "time": 185.42838600000002,
            "velocity": 0.5905511811023622
          },
          {
            "duration": 0.12857130000000438,
            "durationTicks": 216,
            "midi": 39,
            "name": "D#2",
            "ticks": 311760,
            "time": 185.571243,
            "velocity": 0.6062992125984252
          },
          {
            "duration": 0.1285713000000328,
            "durationTicks": 216,
            "midi": 39,
            "name": "D#2",
            "ticks": 312000,
            "time": 185.7141,
            "velocity": 0.6299212598425197
          },
          {
            "duration": 0.12857130000000438,
            "durationTicks": 216,
            "midi": 39,
            "name": "D#2",
            "ticks": 312240,
            "time": 185.85695700000002,
            "velocity": 0.6456692913385826
          },
          {
            "duration": 0.12857130000000438,
            "durationTicks": 216,
            "midi": 39,
            "name": "D#2",
            "ticks": 312480,
            "time": 185.99981400000001,
            "velocity": 0.6692913385826772
          },
          {
            "duration": 0.1285713000000328,
            "durationTicks": 216,
            "midi": 39,
            "name": "D#2",
            "ticks": 312720,
            "time": 186.142671,
            "velocity": 0.6929133858267716
          },
          {
            "duration": 0.12857130000000438,
            "durationTicks": 216,
            "midi": 40,
            "name": "E2",
            "ticks": 312960,
            "time": 186.28552800000003,
            "velocity": 0.7086614173228346
          },
          {
            "duration": 0.12857130000000438,
            "durationTicks": 216,
            "midi": 40,
            "name": "E2",
            "ticks": 313200,
            "time": 186.42838500000002,
            "velocity": 0.7322834645669292
          },
          {
            "duration": 0.12857130000000438,
            "durationTicks": 216,
            "midi": 40,
            "name": "E2",
            "ticks": 313440,
            "time": 186.571242,
            "velocity": 0.7480314960629921
          },
          {
            "duration": 0.1285713000000328,
            "durationTicks": 216,
            "midi": 40,
            "name": "E2",
            "ticks": 313680,
            "time": 186.714099,
            "velocity": 0.7716535433070866
          },
          {
            "duration": 0.12857130000000438,
            "durationTicks": 216,
            "midi": 40,
            "name": "E2",
            "ticks": 313920,
            "time": 186.85695600000003,
            "velocity": 0.7874015748031497
          },
          {
            "duration": 0.12857130000000438,
            "durationTicks": 216,
            "midi": 40,
            "name": "E2",
            "ticks": 314160,
            "time": 186.99981300000002,
            "velocity": 0.8110236220472441
          },
          {
            "duration": 0.1285713000000328,
            "durationTicks": 216,
            "midi": 40,
            "name": "E2",
            "ticks": 314400,
            "time": 187.14267,
            "velocity": 0.8346456692913385
          },
          {
            "duration": 0.1285713000000328,
            "durationTicks": 216,
            "midi": 40,
            "name": "E2",
            "ticks": 314640,
            "time": 187.285527,
            "velocity": 0.8503937007874016
          },
          {
            "duration": 0.11428559999998811,
            "durationTicks": 192,
            "midi": 41,
            "name": "F2",
            "ticks": 314880,
            "time": 187.42838400000002,
            "velocity": 0.8267716535433071
          },
          {
            "duration": 0.11428559999998811,
            "durationTicks": 192,
            "midi": 41,
            "name": "F2",
            "ticks": 315120,
            "time": 187.57124100000001,
            "velocity": 0.8267716535433071
          },
          {
            "duration": 0.11428559999998811,
            "durationTicks": 192,
            "midi": 41,
            "name": "F2",
            "ticks": 315360,
            "time": 187.714098,
            "velocity": 0.8267716535433071
          },
          {
            "duration": 0.11428559999998811,
            "durationTicks": 192,
            "midi": 41,
            "name": "F2",
            "ticks": 315600,
            "time": 187.85695500000003,
            "velocity": 0.8267716535433071
          },
          {
            "duration": 0.11428559999998811,
            "durationTicks": 192,
            "midi": 41,
            "name": "F2",
            "ticks": 315840,
            "time": 187.99981200000002,
            "velocity": 0.8267716535433071
          },
          {
            "duration": 0.11428559999998811,
            "durationTicks": 192,
            "midi": 41,
            "name": "F2",
            "ticks": 316080,
            "time": 188.142669,
            "velocity": 0.8267716535433071
          },
          {
            "duration": 0.11428560000001653,
            "durationTicks": 192,
            "midi": 41,
            "name": "F2",
            "ticks": 316320,
            "time": 188.285526,
            "velocity": 0.8267716535433071
          },
          {
            "duration": 0.11428559999998811,
            "durationTicks": 192,
            "midi": 41,
            "name": "F2",
            "ticks": 316560,
            "time": 188.42838300000003,
            "velocity": 0.8267716535433071
          },
          {
            "duration": 0.11428559999998811,
            "durationTicks": 192,
            "midi": 29,
            "name": "F1",
            "ticks": 316800,
            "time": 188.57124000000002,
            "velocity": 0.8267716535433071
          },
          {
            "duration": 0.11428559999998811,
            "durationTicks": 192,
            "midi": 29,
            "name": "F1",
            "ticks": 317040,
            "time": 188.714097,
            "velocity": 0.8267716535433071
          },
          {
            "duration": 0.11428560000001653,
            "durationTicks": 192,
            "midi": 29,
            "name": "F1",
            "ticks": 317280,
            "time": 188.856954,
            "velocity": 0.8267716535433071
          },
          {
            "duration": 0.11428559999998811,
            "durationTicks": 192,
            "midi": 29,
            "name": "F1",
            "ticks": 317520,
            "time": 188.99981100000002,
            "velocity": 0.8267716535433071
          },
          {
            "duration": 0.11428559999998811,
            "durationTicks": 192,
            "midi": 29,
            "name": "F1",
            "ticks": 317760,
            "time": 189.14266800000001,
            "velocity": 0.8267716535433071
          },
          {
            "duration": 0.11428559999998811,
            "durationTicks": 192,
            "midi": 29,
            "name": "F1",
            "ticks": 318000,
            "time": 189.285525,
            "velocity": 0.8267716535433071
          },
          {
            "duration": 0.11428559999998811,
            "durationTicks": 192,
            "midi": 29,
            "name": "F1",
            "ticks": 318240,
            "time": 189.42838200000003,
            "velocity": 0.8267716535433071
          },
          {
            "duration": 0.11428559999998811,
            "durationTicks": 192,
            "midi": 29,
            "name": "F1",
            "ticks": 318480,
            "time": 189.57123900000002,
            "velocity": 0.8267716535433071
          },
          {
            "duration": 0.22857120000000464,
            "durationTicks": 384,
            "midi": 34,
            "name": "A#1",
            "ticks": 318720,
            "time": 189.714096,
            "velocity": 0.7244094488188977
          },
          {
            "duration": 0.4571424000000093,
            "durationTicks": 768,
            "midi": 38,
            "name": "D2",
            "ticks": 319200,
            "time": 189.99981000000002,
            "velocity": 0.984251968503937
          },
          {
            "duration": 0.17142839999999637,
            "durationTicks": 288,
            "midi": 39,
            "name": "D#2",
            "ticks": 320160,
            "time": 190.57123800000002,
            "velocity": 0.8267716535433071
          },
          {
            "duration": 0.1714284000000248,
            "durationTicks": 288,
            "midi": 40,
            "name": "E2",
            "ticks": 320640,
            "time": 190.856952,
            "velocity": 0.8267716535433071
          },
          {
            "duration": 0.17142839999999637,
            "durationTicks": 288,
            "midi": 41,
            "name": "F2",
            "ticks": 321120,
            "time": 191.14266600000002,
            "velocity": 0.8267716535433071
          },
          {
            "duration": 0.1714284000000248,
            "durationTicks": 288,
            "midi": 42,
            "name": "F#2",
            "ticks": 321600,
            "time": 191.42838,
            "velocity": 0.8267716535433071
          },
          {
            "duration": 0.17142839999999637,
            "durationTicks": 288,
            "midi": 43,
            "name": "G2",
            "ticks": 322080,
            "time": 191.71409400000002,
            "velocity": 0.8267716535433071
          },
          {
            "duration": 0.22857119999997622,
            "durationTicks": 384,
            "midi": 44,
            "name": "G#2",
            "ticks": 322560,
            "time": 191.99980800000003,
            "velocity": 0.8267716535433071
          },
          {
            "duration": 0.057142800000036686,
            "durationTicks": 96,
            "midi": 44,
            "name": "G#2",
            "ticks": 323400,
            "time": 192.4998075,
            "velocity": 0.8267716535433071
          },
          {
            "duration": 0.22857119999997622,
            "durationTicks": 384,
            "midi": 43,
            "name": "G2",
            "ticks": 323520,
            "time": 192.57123600000003,
            "velocity": 0.8267716535433071
          },
          {
            "duration": 0.057142800000008265,
            "durationTicks": 96,
            "midi": 43,
            "name": "G2",
            "ticks": 324360,
            "time": 193.07123550000003,
            "velocity": 0.8267716535433071
          },
          {
            "duration": 0.22857119999997622,
            "durationTicks": 384,
            "midi": 51,
            "name": "D#3",
            "ticks": 324480,
            "time": 193.14266400000002,
            "velocity": 0.8267716535433071
          },
          {
            "duration": 0.057142800000008265,
            "durationTicks": 96,
            "midi": 51,
            "name": "D#3",
            "ticks": 325320,
            "time": 193.64266350000003,
            "velocity": 0.8267716535433071
          },
          {
            "duration": 0.22857119999997622,
            "durationTicks": 384,
            "midi": 50,
            "name": "D3",
            "ticks": 325440,
            "time": 193.71409200000002,
            "velocity": 0.8267716535433071
          },
          {
            "duration": 0.057142800000008265,
            "durationTicks": 96,
            "midi": 50,
            "name": "D3",
            "ticks": 326280,
            "time": 194.21409150000002,
            "velocity": 0.8267716535433071
          },
          {
            "duration": 0.22857119999997622,
            "durationTicks": 384,
            "midi": 39,
            "name": "D#2",
            "ticks": 326400,
            "time": 194.28552000000002,
            "velocity": 0.8267716535433071
          },
          {
            "duration": 0.22857119999997622,
            "durationTicks": 384,
            "midi": 41,
            "name": "F2",
            "ticks": 328320,
            "time": 195.42837600000001,
            "velocity": 0.5511811023622047
          },
          {
            "duration": 1.1428559999999948,
            "durationTicks": 1920,
            "midi": 39,
            "name": "D#2",
            "ticks": 333120,
            "time": 198.28551600000003,
            "velocity": 0.4566929133858268
          },
          {
            "duration": 0.22857119999997622,
            "durationTicks": 384,
            "midi": 38,
            "name": "D2",
            "ticks": 335040,
            "time": 199.42837200000002,
            "velocity": 0.4566929133858268
          },
          {
            "duration": 1.1428559999999948,
            "durationTicks": 1920,
            "midi": 39,
            "name": "D#2",
            "ticks": 336960,
            "time": 200.57122800000002,
            "velocity": 0.4566929133858268
          },
          {
            "duration": 0.22857119999997622,
            "durationTicks": 384,
            "midi": 38,
            "name": "D2",
            "ticks": 338880,
            "time": 201.714084,
            "velocity": 0.4566929133858268
          },
          {
            "duration": 0.11428559999998811,
            "durationTicks": 192,
            "midi": 38,
            "name": "D2",
            "ticks": 339840,
            "time": 202.285512,
            "velocity": 0.8267716535433071
          },
          {
            "duration": 0.11428560000001653,
            "durationTicks": 192,
            "midi": 38,
            "name": "D2",
            "ticks": 340080,
            "time": 202.428369,
            "velocity": 0.8267716535433071
          },
          {
            "duration": 0.11428559999998811,
            "durationTicks": 192,
            "midi": 38,
            "name": "D2",
            "ticks": 340320,
            "time": 202.57122600000002,
            "velocity": 0.8267716535433071
          },
          {
            "duration": 0.11428559999998811,
            "durationTicks": 192,
            "midi": 38,
            "name": "D2",
            "ticks": 340560,
            "time": 202.71408300000002,
            "velocity": 0.8267716535433071
          },
          {
            "duration": 0.11428559999998811,
            "durationTicks": 192,
            "midi": 38,
            "name": "D2",
            "ticks": 340800,
            "time": 202.85694,
            "velocity": 0.8267716535433071
          },
          {
            "duration": 0.11428559999998811,
            "durationTicks": 192,
            "midi": 38,
            "name": "D2",
            "ticks": 341040,
            "time": 202.99979700000003,
            "velocity": 0.8267716535433071
          },
          {
            "duration": 0.11428559999998811,
            "durationTicks": 192,
            "midi": 38,
            "name": "D2",
            "ticks": 341280,
            "time": 203.14265400000002,
            "velocity": 0.8267716535433071
          },
          {
            "duration": 0.11428559999998811,
            "durationTicks": 192,
            "midi": 38,
            "name": "D2",
            "ticks": 341520,
            "time": 203.285511,
            "velocity": 0.8267716535433071
          },
          {
            "duration": 0.11428560000001653,
            "durationTicks": 192,
            "midi": 43,
            "name": "G2",
            "ticks": 341760,
            "time": 203.428368,
            "velocity": 0.8267716535433071
          },
          {
            "duration": 0.11428559999998811,
            "durationTicks": 192,
            "midi": 43,
            "name": "G2",
            "ticks": 342000,
            "time": 203.57122500000003,
            "velocity": 0.8267716535433071
          },
          {
            "duration": 0.11428559999998811,
            "durationTicks": 192,
            "midi": 43,
            "name": "G2",
            "ticks": 342240,
            "time": 203.71408200000002,
            "velocity": 0.8267716535433071
          },
          {
            "duration": 0.11428559999998811,
            "durationTicks": 192,
            "midi": 43,
            "name": "G2",
            "ticks": 342480,
            "time": 203.856939,
            "velocity": 0.8267716535433071
          },
          {
            "duration": 0.11428560000001653,
            "durationTicks": 192,
            "midi": 39,
            "name": "D#2",
            "ticks": 342720,
            "time": 203.999796,
            "velocity": 0.8267716535433071
          },
          {
            "duration": 0.11428559999998811,
            "durationTicks": 192,
            "midi": 39,
            "name": "D#2",
            "ticks": 342960,
            "time": 204.14265300000002,
            "velocity": 0.8267716535433071
          },
          {
            "duration": 0.11428559999998811,
            "durationTicks": 192,
            "midi": 39,
            "name": "D#2",
            "ticks": 343200,
            "time": 204.28551000000002,
            "velocity": 0.8267716535433071
          },
          {
            "duration": 0.11428559999998811,
            "durationTicks": 192,
            "midi": 39,
            "name": "D#2",
            "ticks": 343440,
            "time": 204.428367,
            "velocity": 0.8267716535433071
          },
          {
            "duration": 0.11428559999998811,
            "durationTicks": 192,
            "midi": 41,
            "name": "F2",
            "ticks": 343680,
            "time": 204.57122400000003,
            "velocity": 0.8267716535433071
          },
          {
            "duration": 0.11428559999998811,
            "durationTicks": 192,
            "midi": 41,
            "name": "F2",
            "ticks": 343920,
            "time": 204.71408100000002,
            "velocity": 0.8267716535433071
          },
          {
            "duration": 0.11428559999998811,
            "durationTicks": 192,
            "midi": 41,
            "name": "F2",
            "ticks": 344160,
            "time": 204.856938,
            "velocity": 0.8267716535433071
          },
          {
            "duration": 0.11428560000001653,
            "durationTicks": 192,
            "midi": 41,
            "name": "F2",
            "ticks": 344400,
            "time": 204.999795,
            "velocity": 0.8267716535433071
          },
          {
            "duration": 0.11428559999998811,
            "durationTicks": 192,
            "midi": 29,
            "name": "F1",
            "ticks": 344640,
            "time": 205.14265200000003,
            "velocity": 0.8267716535433071
          },
          {
            "duration": 0.11428559999998811,
            "durationTicks": 192,
            "midi": 29,
            "name": "F1",
            "ticks": 344880,
            "time": 205.28550900000002,
            "velocity": 0.8267716535433071
          },
          {
            "duration": 0.11428559999998811,
            "durationTicks": 192,
            "midi": 29,
            "name": "F1",
            "ticks": 345120,
            "time": 205.428366,
            "velocity": 0.8267716535433071
          },
          {
            "duration": 0.11428560000001653,
            "durationTicks": 192,
            "midi": 29,
            "name": "F1",
            "ticks": 345360,
            "time": 205.571223,
            "velocity": 0.8267716535433071
          },
          {
            "duration": 0.22857119999997622,
            "durationTicks": 384,
            "midi": 34,
            "name": "A#1",
            "ticks": 345600,
            "time": 205.71408000000002,
            "velocity": 0.7244094488188977
          },
          {
            "duration": 1.1428559999999948,
            "durationTicks": 1920,
            "midi": 46,
            "name": "A#2",
            "ticks": 346560,
            "time": 206.28550800000002,
            "velocity": 0.4566929133858268
          },
          {
            "duration": 0.22857119999997622,
            "durationTicks": 384,
            "midi": 45,
            "name": "A2",
            "ticks": 348480,
            "time": 207.42836400000002,
            "velocity": 0.4566929133858268
          },
          {
            "duration": 1.1428559999999948,
            "durationTicks": 1920,
            "midi": 34,
            "name": "A#1",
            "ticks": 350400,
            "time": 208.57122,
            "velocity": 0.4566929133858268
          },
          {
            "duration": 0.22857120000000464,
            "durationTicks": 384,
            "midi": 33,
            "name": "A1",
            "ticks": 352320,
            "time": 209.714076,
            "velocity": 0.4566929133858268
          },
          {
            "duration": 0.11428559999998811,
            "durationTicks": 192,
            "midi": 38,
            "name": "D2",
            "ticks": 355200,
            "time": 211.42836000000003,
            "velocity": 0.8267716535433071
          },
          {
            "duration": 0.11428559999998811,
            "durationTicks": 192,
            "midi": 38,
            "name": "D2",
            "ticks": 355440,
            "time": 211.57121700000002,
            "velocity": 0.8267716535433071
          },
          {
            "duration": 0.11428559999998811,
            "durationTicks": 192,
            "midi": 38,
            "name": "D2",
            "ticks": 355680,
            "time": 211.714074,
            "velocity": 0.8267716535433071
          },
          {
            "duration": 0.11428559999998811,
            "durationTicks": 192,
            "midi": 38,
            "name": "D2",
            "ticks": 355920,
            "time": 211.85693100000003,
            "velocity": 0.8267716535433071
          },
          {
            "duration": 0.11428559999998811,
            "durationTicks": 192,
            "midi": 38,
            "name": "D2",
            "ticks": 356160,
            "time": 211.99978800000002,
            "velocity": 0.8267716535433071
          },
          {
            "duration": 0.11428559999998811,
            "durationTicks": 192,
            "midi": 38,
            "name": "D2",
            "ticks": 356400,
            "time": 212.14264500000002,
            "velocity": 0.8267716535433071
          },
          {
            "duration": 0.11428560000001653,
            "durationTicks": 192,
            "midi": 38,
            "name": "D2",
            "ticks": 356640,
            "time": 212.285502,
            "velocity": 0.8267716535433071
          },
          {
            "duration": 0.11428559999998811,
            "durationTicks": 192,
            "midi": 38,
            "name": "D2",
            "ticks": 356880,
            "time": 212.42835900000003,
            "velocity": 0.8267716535433071
          },
          {
            "duration": 0.11428559999998811,
            "durationTicks": 192,
            "midi": 43,
            "name": "G2",
            "ticks": 357120,
            "time": 212.57121600000002,
            "velocity": 0.8267716535433071
          },
          {
            "duration": 0.11428559999998811,
            "durationTicks": 192,
            "midi": 43,
            "name": "G2",
            "ticks": 357360,
            "time": 212.714073,
            "velocity": 0.8267716535433071
          },
          {
            "duration": 0.11428560000001653,
            "durationTicks": 192,
            "midi": 43,
            "name": "G2",
            "ticks": 357600,
            "time": 212.85693,
            "velocity": 0.8267716535433071
          },
          {
            "duration": 0.11428559999998811,
            "durationTicks": 192,
            "midi": 43,
            "name": "G2",
            "ticks": 357840,
            "time": 212.99978700000003,
            "velocity": 0.8267716535433071
          },
          {
            "duration": 0.11428559999998811,
            "durationTicks": 192,
            "midi": 39,
            "name": "D#2",
            "ticks": 358080,
            "time": 213.14264400000002,
            "velocity": 0.8267716535433071
          },
          {
            "duration": 0.11428559999998811,
            "durationTicks": 192,
            "midi": 39,
            "name": "D#2",
            "ticks": 358320,
            "time": 213.285501,
            "velocity": 0.8267716535433071
          },
          {
            "duration": 0.11428559999998811,
            "durationTicks": 192,
            "midi": 39,
            "name": "D#2",
            "ticks": 358560,
            "time": 213.42835800000003,
            "velocity": 0.8267716535433071
          },
          {
            "duration": 0.11428559999998811,
            "durationTicks": 192,
            "midi": 39,
            "name": "D#2",
            "ticks": 358800,
            "time": 213.57121500000002,
            "velocity": 0.8267716535433071
          },
          {
            "duration": 0.11428559999998811,
            "durationTicks": 192,
            "midi": 41,
            "name": "F2",
            "ticks": 359040,
            "time": 213.71407200000002,
            "velocity": 0.8267716535433071
          },
          {
            "duration": 0.11428560000001653,
            "durationTicks": 192,
            "midi": 41,
            "name": "F2",
            "ticks": 359280,
            "time": 213.856929,
            "velocity": 0.8267716535433071
          },
          {
            "duration": 0.11428559999998811,
            "durationTicks": 192,
            "midi": 41,
            "name": "F2",
            "ticks": 359520,
            "time": 213.99978600000003,
            "velocity": 0.8267716535433071
          },
          {
            "duration": 0.11428559999998811,
            "durationTicks": 192,
            "midi": 41,
            "name": "F2",
            "ticks": 359760,
            "time": 214.14264300000002,
            "velocity": 0.8267716535433071
          },
          {
            "duration": 0.11428559999998811,
            "durationTicks": 192,
            "midi": 29,
            "name": "F1",
            "ticks": 360000,
            "time": 214.2855,
            "velocity": 0.8267716535433071
          },
          {
            "duration": 0.11428560000001653,
            "durationTicks": 192,
            "midi": 29,
            "name": "F1",
            "ticks": 360240,
            "time": 214.428357,
            "velocity": 0.8267716535433071
          },
          {
            "duration": 0.11428559999998811,
            "durationTicks": 192,
            "midi": 29,
            "name": "F1",
            "ticks": 360480,
            "time": 214.57121400000003,
            "velocity": 0.8267716535433071
          },
          {
            "duration": 0.11428559999998811,
            "durationTicks": 192,
            "midi": 29,
            "name": "F1",
            "ticks": 360720,
            "time": 214.71407100000002,
            "velocity": 0.8267716535433071
          },
          {
            "duration": 0.4571424000000093,
            "durationTicks": 768,
            "midi": 34,
            "name": "A#1",
            "ticks": 360960,
            "time": 214.856928,
            "velocity": 0.8267716535433071
          },
          {
            "duration": 0.11428559999998811,
            "durationTicks": 192,
            "midi": 53,
            "name": "F3",
            "ticks": 362640,
            "time": 215.856927,
            "velocity": 0.8267716535433071
          },
          {
            "duration": 0.11428560000001653,
            "durationTicks": 192,
            "midi": 51,
            "name": "D#3",
            "ticks": 362880,
            "time": 215.999784,
            "velocity": 0.8267716535433071
          },
          {
            "duration": 0.11428559999998811,
            "durationTicks": 192,
            "midi": 50,
            "name": "D3",
            "ticks": 363120,
            "time": 216.14264100000003,
            "velocity": 0.8267716535433071
          },
          {
            "duration": 0.11428559999998811,
            "durationTicks": 192,
            "midi": 48,
            "name": "C3",
            "ticks": 363360,
            "time": 216.28549800000002,
            "velocity": 0.8267716535433071
          },
          {
            "duration": 0.11428559999998811,
            "durationTicks": 192,
            "midi": 46,
            "name": "A#2",
            "ticks": 363600,
            "time": 216.428355,
            "velocity": 0.8267716535433071
          },
          {
            "duration": 0.11428559999998811,
            "durationTicks": 192,
            "midi": 45,
            "name": "A2",
            "ticks": 363840,
            "time": 216.57121200000003,
            "velocity": 0.8267716535433071
          },
          {
            "duration": 0.11428559999998811,
            "durationTicks": 192,
            "midi": 43,
            "name": "G2",
            "ticks": 364080,
            "time": 216.71406900000002,
            "velocity": 0.8267716535433071
          },
          {
            "duration": 0.11428559999998811,
            "durationTicks": 192,
            "midi": 41,
            "name": "F2",
            "ticks": 364320,
            "time": 216.85692600000002,
            "velocity": 0.8267716535433071
          },
          {
            "duration": 0.11428560000001653,
            "durationTicks": 192,
            "midi": 39,
            "name": "D#2",
            "ticks": 364560,
            "time": 216.999783,
            "velocity": 0.8267716535433071
          },
          {
            "duration": 0.1999998000000005,
            "durationTicks": 336,
            "midi": 38,
            "name": "D2",
            "ticks": 364800,
            "time": 217.14264000000003,
            "velocity": 0.8267716535433071
          },
          {
            "duration": 0.19999980000002893,
            "durationTicks": 336,
            "midi": 38,
            "name": "D2",
            "ticks": 365280,
            "time": 217.428354,
            "velocity": 0.8267716535433071
          },
          {
            "duration": 0.1999998000000005,
            "durationTicks": 336,
            "midi": 39,
            "name": "D#2",
            "ticks": 365760,
            "time": 217.71406800000003,
            "velocity": 0.8267716535433071
          },
          {
            "duration": 0.19999980000002893,
            "durationTicks": 336,
            "midi": 41,
            "name": "F2",
            "ticks": 366240,
            "time": 217.999782,
            "velocity": 0.8267716535433071
          },
          {
            "duration": 0.11428559999998811,
            "durationTicks": 192,
            "midi": 46,
            "name": "A#2",
            "ticks": 366720,
            "time": 218.28549600000002,
            "velocity": 0.8267716535433071
          },
          {
            "duration": 0.11428559999998811,
            "durationTicks": 192,
            "midi": 41,
            "name": "F2",
            "ticks": 366960,
            "time": 218.42835300000002,
            "velocity": 0.8267716535433071
          },
          {
            "duration": 0.11428560000001653,
            "durationTicks": 192,
            "midi": 50,
            "name": "D3",
            "ticks": 367200,
            "time": 218.57121,
            "velocity": 0.8267716535433071
          },
          {
            "duration": 0.11428559999998811,
            "durationTicks": 192,
            "midi": 48,
            "name": "C3",
            "ticks": 367440,
            "time": 218.71406700000003,
            "velocity": 0.8267716535433071
          },
          {
            "duration": 0.11428559999998811,
            "durationTicks": 192,
            "midi": 46,
            "name": "A#2",
            "ticks": 367680,
            "time": 218.85692400000002,
            "velocity": 0.8267716535433071
          },
          {
            "duration": 0.11428559999998811,
            "durationTicks": 192,
            "midi": 45,
            "name": "A2",
            "ticks": 367920,
            "time": 218.999781,
            "velocity": 0.8267716535433071
          },
          {
            "duration": 0.11428560000001653,
            "durationTicks": 192,
            "midi": 43,
            "name": "G2",
            "ticks": 368160,
            "time": 219.142638,
            "velocity": 0.8267716535433071
          },
          {
            "duration": 0.11428559999998811,
            "durationTicks": 192,
            "midi": 41,
            "name": "F2",
            "ticks": 368400,
            "time": 219.28549500000003,
            "velocity": 0.8267716535433071
          },
          {
            "duration": 0.11428559999998811,
            "durationTicks": 192,
            "midi": 39,
            "name": "D#2",
            "ticks": 368640,
            "time": 219.42835200000002,
            "velocity": 0.8267716535433071
          },
          {
            "duration": 0.11428559999998811,
            "durationTicks": 192,
            "midi": 38,
            "name": "D2",
            "ticks": 368880,
            "time": 219.571209,
            "velocity": 0.8267716535433071
          },
          {
            "duration": 0.11428559999998811,
            "durationTicks": 192,
            "midi": 36,
            "name": "C2",
            "ticks": 369120,
            "time": 219.71406600000003,
            "velocity": 0.8267716535433071
          },
          {
            "duration": 0.11428559999998811,
            "durationTicks": 192,
            "midi": 34,
            "name": "A#1",
            "ticks": 369360,
            "time": 219.85692300000002,
            "velocity": 0.8267716535433071
          },
          {
            "duration": 0.11428559999998811,
            "durationTicks": 192,
            "midi": 33,
            "name": "A1",
            "ticks": 369600,
            "time": 219.99978000000002,
            "velocity": 0.8267716535433071
          },
          {
            "duration": 0.11428560000001653,
            "durationTicks": 192,
            "midi": 36,
            "name": "C2",
            "ticks": 369840,
            "time": 220.142637,
            "velocity": 0.8267716535433071
          },
          {
            "duration": 0.11428559999998811,
            "durationTicks": 192,
            "midi": 41,
            "name": "F2",
            "ticks": 370080,
            "time": 220.28549400000003,
            "velocity": 0.8267716535433071
          },
          {
            "duration": 0.11428559999998811,
            "durationTicks": 192,
            "midi": 39,
            "name": "D#2",
            "ticks": 370320,
            "time": 220.42835100000002,
            "velocity": 0.8267716535433071
          },
          {
            "duration": 0.19999980000002893,
            "durationTicks": 336,
            "midi": 38,
            "name": "D2",
            "ticks": 370560,
            "time": 220.571208,
            "velocity": 0.8267716535433071
          },
          {
            "duration": 0.1999998000000005,
            "durationTicks": 336,
            "midi": 38,
            "name": "D2",
            "ticks": 371040,
            "time": 220.85692200000003,
            "velocity": 0.8267716535433071
          },
          {
            "duration": 0.19999980000002893,
            "durationTicks": 336,
            "midi": 39,
            "name": "D#2",
            "ticks": 371520,
            "time": 221.142636,
            "velocity": 0.8267716535433071
          },
          {
            "duration": 0.1999998000000005,
            "durationTicks": 336,
            "midi": 41,
            "name": "F2",
            "ticks": 372000,
            "time": 221.42835000000002,
            "velocity": 0.8267716535433071
          },
          {
            "duration": 0.19999980000002893,
            "durationTicks": 336,
            "midi": 43,
            "name": "G2",
            "ticks": 372480,
            "time": 221.714064,
            "velocity": 0.8267716535433071
          },
          {
            "duration": 0.1999998000000005,
            "durationTicks": 336,
            "midi": 39,
            "name": "D#2",
            "ticks": 372960,
            "time": 221.99977800000002,
            "velocity": 0.8267716535433071
          },
          {
            "duration": 0.19999980000002893,
            "durationTicks": 336,
            "midi": 41,
            "name": "F2",
            "ticks": 373440,
            "time": 222.285492,
            "velocity": 0.8267716535433071
          },
          {
            "duration": 0.1999998000000005,
            "durationTicks": 336,
            "midi": 29,
            "name": "F1",
            "ticks": 373920,
            "time": 222.57120600000002,
            "velocity": 0.8267716535433071
          },
          {
            "duration": 0.22857119999997622,
            "durationTicks": 384,
            "midi": 34,
            "name": "A#1",
            "ticks": 374400,
            "time": 222.85692000000003,
            "velocity": 0.8267716535433071
          },
          {
            "duration": 0.22857119999997622,
            "durationTicks": 384,
            "midi": 41,
            "name": "F2",
            "ticks": 375360,
            "time": 223.42834800000003,
            "velocity": 0.8267716535433071
          },
          {
            "duration": 0.22857119999997622,
            "durationTicks": 384,
            "midi": 46,
            "name": "A#2",
            "ticks": 376320,
            "time": 223.99977600000003,
            "velocity": 0.8267716535433071
          },
          {
            "duration": 0.22857119999997622,
            "durationTicks": 384,
            "midi": 41,
            "name": "F2",
            "ticks": 377280,
            "time": 224.57120400000002,
            "velocity": 0.8267716535433071
          },
          {
            "duration": 0.22857119999997622,
            "durationTicks": 384,
            "midi": 46,
            "name": "A#2",
            "ticks": 378240,
            "time": 225.14263200000002,
            "velocity": 0.8267716535433071
          },
          {
            "duration": 0.22857119999997622,
            "durationTicks": 384,
            "midi": 41,
            "name": "F2",
            "ticks": 379200,
            "time": 225.71406000000002,
            "velocity": 0.8267716535433071
          },
          {
            "duration": 0.21428550000001678,
            "durationTicks": 360,
            "midi": 46,
            "name": "A#2",
            "ticks": 380160,
            "time": 226.28548800000002,
            "velocity": 0.8267716535433071
          },
          {
            "duration": 0.21428549999998836,
            "durationTicks": 360,
            "midi": 41,
            "name": "F2",
            "ticks": 380640,
            "time": 226.57120200000003,
            "velocity": 0.8267716535433071
          },
          {
            "duration": 0.21428550000001678,
            "durationTicks": 360,
            "midi": 46,
            "name": "A#2",
            "ticks": 381120,
            "time": 226.856916,
            "velocity": 0.8267716535433071
          },
          {
            "duration": 0.21428549999998836,
            "durationTicks": 360,
            "midi": 41,
            "name": "F2",
            "ticks": 381600,
            "time": 227.14263000000003,
            "velocity": 0.8267716535433071
          },
          {
            "duration": 0.22857120000000464,
            "durationTicks": 384,
            "midi": 46,
            "name": "A#2",
            "ticks": 382080,
            "time": 227.428344,
            "velocity": 0.8267716535433071
          },
          {
            "duration": 0.22857119999997622,
            "durationTicks": 384,
            "midi": 45,
            "name": "A2",
            "ticks": 384000,
            "time": 228.57120000000003,
            "velocity": 0.8267716535433071
          },
          {
            "duration": 0.22857119999997622,
            "durationTicks": 384,
            "midi": 43,
            "name": "G2",
            "ticks": 385920,
            "time": 229.71405600000003,
            "velocity": 0.8267716535433071
          },
          {
            "duration": 0.22857119999997622,
            "durationTicks": 384,
            "midi": 41,
            "name": "F2",
            "ticks": 386880,
            "time": 230.28548400000003,
            "velocity": 0.8267716535433071
          },
          {
            "duration": 0.22857120000000464,
            "durationTicks": 384,
            "midi": 30,
            "name": "F#1",
            "ticks": 393600,
            "time": 234.28548,
            "velocity": 0.5511811023622047
          },
          {
            "duration": 0.22857119999997622,
            "durationTicks": 384,
            "midi": 42,
            "name": "F#2",
            "ticks": 395520,
            "time": 235.42833600000003,
            "velocity": 0.5511811023622047
          },
          {
            "duration": 0.22857119999997622,
            "durationTicks": 384,
            "midi": 30,
            "name": "F#1",
            "ticks": 397440,
            "time": 236.57119200000002,
            "velocity": 0.5511811023622047
          },
          {
            "duration": 0.22857119999997622,
            "durationTicks": 384,
            "midi": 42,
            "name": "F#2",
            "ticks": 399360,
            "time": 237.71404800000002,
            "velocity": 0.5511811023622047
          },
          {
            "duration": 0.22857120000000464,
            "durationTicks": 384,
            "midi": 29,
            "name": "F1",
            "ticks": 401280,
            "time": 238.85690400000001,
            "velocity": 0.5511811023622047
          },
          {
            "duration": 0.22857120000000464,
            "durationTicks": 384,
            "midi": 41,
            "name": "F2",
            "ticks": 403200,
            "time": 239.99976,
            "velocity": 0.5511811023622047
          },
          {
            "duration": 0.22857119999997622,
            "durationTicks": 384,
            "midi": 28,
            "name": "E1",
            "ticks": 405120,
            "time": 241.14261600000003,
            "velocity": 0.5511811023622047
          },
          {
            "duration": 0.22857119999997622,
            "durationTicks": 384,
            "midi": 40,
            "name": "E2",
            "ticks": 407040,
            "time": 242.28547200000003,
            "velocity": 0.5511811023622047
          },
          {
            "duration": 0.22857119999997622,
            "durationTicks": 384,
            "midi": 27,
            "name": "D#1",
            "ticks": 408960,
            "time": 243.42832800000002,
            "velocity": 0.5511811023622047
          },
          {
            "duration": 0.22857120000000464,
            "durationTicks": 384,
            "midi": 35,
            "name": "B1",
            "ticks": 410880,
            "time": 244.57118400000002,
            "velocity": 0.5511811023622047
          },
          {
            "duration": 0.14285699999999224,
            "durationTicks": 240,
            "midi": 48,
            "name": "C3",
            "ticks": 412320,
            "time": 245.42832600000003,
            "velocity": 0.5511811023622047
          },
          {
            "duration": 0.11428559999998811,
            "durationTicks": 192,
            "midi": 47,
            "name": "B2",
            "ticks": 412560,
            "time": 245.57118300000002,
            "velocity": 0.8267716535433071
          },
          {
            "duration": 0.22857120000000464,
            "durationTicks": 384,
            "midi": 47,
            "name": "B2",
            "ticks": 412800,
            "time": 245.71404,
            "velocity": 0.8267716535433071
          },
          {
            "duration": 0.14285699999999224,
            "durationTicks": 240,
            "midi": 48,
            "name": "C3",
            "ticks": 413280,
            "time": 245.99975400000002,
            "velocity": 0.8267716535433071
          },
          {
            "duration": 0.11428559999998811,
            "durationTicks": 192,
            "midi": 47,
            "name": "B2",
            "ticks": 413520,
            "time": 246.14261100000002,
            "velocity": 0.8267716535433071
          },
          {
            "duration": 0.22857120000000464,
            "durationTicks": 384,
            "midi": 47,
            "name": "B2",
            "ticks": 413760,
            "time": 246.285468,
            "velocity": 0.8267716535433071
          },
          {
            "duration": 0.14285699999999224,
            "durationTicks": 240,
            "midi": 48,
            "name": "C3",
            "ticks": 414240,
            "time": 246.57118200000002,
            "velocity": 0.8267716535433071
          },
          {
            "duration": 0.11428559999998811,
            "durationTicks": 192,
            "midi": 47,
            "name": "B2",
            "ticks": 414480,
            "time": 246.714039,
            "velocity": 0.8267716535433071
          },
          {
            "duration": 0.2857140000000129,
            "durationTicks": 480,
            "midi": 47,
            "name": "B2",
            "ticks": 414720,
            "time": 246.856896,
            "velocity": 0.8267716535433071
          },
          {
            "duration": 0.22857119999997622,
            "durationTicks": 384,
            "midi": 55,
            "name": "G3",
            "ticks": 415200,
            "time": 247.14261000000002,
            "velocity": 0.8267716535433071
          },
          {
            "duration": 0.14285699999999224,
            "durationTicks": 240,
            "midi": 55,
            "name": "G3",
            "ticks": 416160,
            "time": 247.71403800000002,
            "velocity": 0.8267716535433071
          },
          {
            "duration": 0.11428560000001653,
            "durationTicks": 192,
            "midi": 54,
            "name": "F#3",
            "ticks": 416400,
            "time": 247.856895,
            "velocity": 0.8267716535433071
          },
          {
            "duration": 0.22857119999997622,
            "durationTicks": 384,
            "midi": 52,
            "name": "E3",
            "ticks": 416640,
            "time": 247.99975200000003,
            "velocity": 0.8267716535433071
          },
          {
            "duration": 0.14285700000002066,
            "durationTicks": 240,
            "midi": 52,
            "name": "E3",
            "ticks": 417120,
            "time": 248.285466,
            "velocity": 0.8267716535433071
          },
          {
            "duration": 0.11428559999998811,
            "durationTicks": 192,
            "midi": 50,
            "name": "D3",
            "ticks": 417360,
            "time": 248.42832300000003,
            "velocity": 0.8267716535433071
          },
          {
            "duration": 0.22857119999997622,
            "durationTicks": 384,
            "midi": 48,
            "name": "C3",
            "ticks": 417600,
            "time": 248.57118000000003,
            "velocity": 0.8267716535433071
          },
          {
            "duration": 0.14285700000002066,
            "durationTicks": 240,
            "midi": 48,
            "name": "C3",
            "ticks": 418080,
            "time": 248.856894,
            "velocity": 0.8267716535433071
          },
          {
            "duration": 0.11428559999998811,
            "durationTicks": 192,
            "midi": 47,
            "name": "B2",
            "ticks": 418320,
            "time": 248.99975100000003,
            "velocity": 0.8267716535433071
          },
          {
            "duration": 0.08571419999998398,
            "durationTicks": 144,
            "midi": 45,
            "name": "A2",
            "ticks": 418560,
            "time": 249.14260800000002,
            "velocity": 0.7244094488188977
          },
          {
            "duration": 0.08571419999998398,
            "durationTicks": 144,
            "midi": 47,
            "name": "B2",
            "ticks": 418800,
            "time": 249.28546500000002,
            "velocity": 0.7244094488188977
          },
          {
            "duration": 0.0857142000000124,
            "durationTicks": 144,
            "midi": 48,
            "name": "C3",
            "ticks": 419040,
            "time": 249.428322,
            "velocity": 0.7244094488188977
          },
          {
            "duration": 0.08571419999998398,
            "durationTicks": 144,
            "midi": 47,
            "name": "B2",
            "ticks": 419280,
            "time": 249.57117900000003,
            "velocity": 0.7244094488188977
          },
          {
            "duration": 0.08571419999998398,
            "durationTicks": 144,
            "midi": 45,
            "name": "A2",
            "ticks": 419520,
            "time": 249.71403600000002,
            "velocity": 0.7244094488188977
          },
          {
            "duration": 0.08571419999998398,
            "durationTicks": 144,
            "midi": 46,
            "name": "A#2",
            "ticks": 419760,
            "time": 249.856893,
            "velocity": 0.7244094488188977
          },
          {
            "duration": 0.08571419999998398,
            "durationTicks": 144,
            "midi": 43,
            "name": "G2",
            "ticks": 420000,
            "time": 249.99975000000003,
            "velocity": 0.7244094488188977
          },
          {
            "duration": 0.08571419999998398,
            "durationTicks": 144,
            "midi": 45,
            "name": "A2",
            "ticks": 420240,
            "time": 250.14260700000003,
            "velocity": 0.7244094488188977
          },
          {
            "duration": 0.08571419999998398,
            "durationTicks": 144,
            "midi": 41,
            "name": "F2",
            "ticks": 420480,
            "time": 250.28546400000002,
            "velocity": 0.7244094488188977
          },
          {
            "duration": 0.08571419999998398,
            "durationTicks": 144,
            "midi": 45,
            "name": "A2",
            "ticks": 420720,
            "time": 250.428321,
            "velocity": 0.7244094488188977
          },
          {
            "duration": 0.08571419999998398,
            "durationTicks": 144,
            "midi": 50,
            "name": "D3",
            "ticks": 420960,
            "time": 250.57117800000003,
            "velocity": 0.7244094488188977
          },
          {
            "duration": 0.08571419999998398,
            "durationTicks": 144,
            "midi": 41,
            "name": "F2",
            "ticks": 421200,
            "time": 250.71403500000002,
            "velocity": 0.7244094488188977
          },
          {
            "duration": 0.08571419999998398,
            "durationTicks": 144,
            "midi": 40,
            "name": "E2",
            "ticks": 421440,
            "time": 250.85689200000002,
            "velocity": 0.7244094488188977
          },
          {
            "duration": 0.0857142000000124,
            "durationTicks": 144,
            "midi": 43,
            "name": "G2",
            "ticks": 421680,
            "time": 250.999749,
            "velocity": 0.7244094488188977
          },
          {
            "duration": 0.08571419999998398,
            "durationTicks": 144,
            "midi": 49,
            "name": "C#3",
            "ticks": 421920,
            "time": 251.14260600000003,
            "velocity": 0.7244094488188977
          },
          {
            "duration": 0.08571419999998398,
            "durationTicks": 144,
            "midi": 40,
            "name": "E2",
            "ticks": 422160,
            "time": 251.28546300000002,
            "velocity": 0.7244094488188977
          },
          {
            "duration": 0.08571419999998398,
            "durationTicks": 144,
            "midi": 38,
            "name": "D2",
            "ticks": 422400,
            "time": 251.42832,
            "velocity": 0.7244094488188977
          },
          {
            "duration": 0.08571419999998398,
            "durationTicks": 144,
            "midi": 33,
            "name": "A1",
            "ticks": 422640,
            "time": 251.57117700000003,
            "velocity": 0.7244094488188977
          },
          {
            "duration": 0.08571419999998398,
            "durationTicks": 144,
            "midi": 35,
            "name": "B1",
            "ticks": 422880,
            "time": 251.71403400000003,
            "velocity": 0.7244094488188977
          },
          {
            "duration": 0.08571419999998398,
            "durationTicks": 144,
            "midi": 37,
            "name": "C#2",
            "ticks": 423120,
            "time": 251.85689100000002,
            "velocity": 0.7244094488188977
          },
          {
            "duration": 0.08571419999998398,
            "durationTicks": 144,
            "midi": 38,
            "name": "D2",
            "ticks": 423360,
            "time": 251.999748,
            "velocity": 0.7244094488188977
          },
          {
            "duration": 0.08571419999998398,
            "durationTicks": 144,
            "midi": 33,
            "name": "A1",
            "ticks": 423600,
            "time": 252.14260500000003,
            "velocity": 0.7244094488188977
          },
          {
            "duration": 0.08571419999998398,
            "durationTicks": 144,
            "midi": 38,
            "name": "D2",
            "ticks": 423840,
            "time": 252.28546200000002,
            "velocity": 0.7244094488188977
          },
          {
            "duration": 0.08571419999998398,
            "durationTicks": 144,
            "midi": 40,
            "name": "E2",
            "ticks": 424080,
            "time": 252.42831900000002,
            "velocity": 0.7244094488188977
          },
          {
            "duration": 0.0857142000000124,
            "durationTicks": 144,
            "midi": 41,
            "name": "F2",
            "ticks": 424320,
            "time": 252.571176,
            "velocity": 0.7244094488188977
          },
          {
            "duration": 0.08571419999998398,
            "durationTicks": 144,
            "midi": 38,
            "name": "D2",
            "ticks": 424560,
            "time": 252.71403300000003,
            "velocity": 0.7244094488188977
          },
          {
            "duration": 0.08571419999998398,
            "durationTicks": 144,
            "midi": 40,
            "name": "E2",
            "ticks": 424800,
            "time": 252.85689000000002,
            "velocity": 0.7244094488188977
          },
          {
            "duration": 0.08571419999998398,
            "durationTicks": 144,
            "midi": 42,
            "name": "F#2",
            "ticks": 425040,
            "time": 252.999747,
            "velocity": 0.7244094488188977
          },
          {
            "duration": 0.08571419999998398,
            "durationTicks": 144,
            "midi": 43,
            "name": "G2",
            "ticks": 425280,
            "time": 253.14260400000003,
            "velocity": 0.7244094488188977
          },
          {
            "duration": 0.08571419999998398,
            "durationTicks": 144,
            "midi": 38,
            "name": "D2",
            "ticks": 425520,
            "time": 253.28546100000003,
            "velocity": 0.7244094488188977
          },
          {
            "duration": 0.08571419999998398,
            "durationTicks": 144,
            "midi": 42,
            "name": "F#2",
            "ticks": 425760,
            "time": 253.42831800000002,
            "velocity": 0.7244094488188977
          },
          {
            "duration": 0.08571419999998398,
            "durationTicks": 144,
            "midi": 45,
            "name": "A2",
            "ticks": 426000,
            "time": 253.571175,
            "velocity": 0.7244094488188977
          },
          {
            "duration": 0.1999998000000005,
            "durationTicks": 336,
            "midi": 46,
            "name": "A#2",
            "ticks": 426240,
            "time": 253.71403200000003,
            "velocity": 0.8267716535433071
          },
          {
            "duration": 0.19999980000002893,
            "durationTicks": 336,
            "midi": 31,
            "name": "G1",
            "ticks": 426720,
            "time": 253.99974600000002,
            "velocity": 0.8267716535433071
          },
          {
            "duration": 0.14285700000002066,
            "durationTicks": 240,
            "midi": 45,
            "name": "A2",
            "ticks": 427680,
            "time": 254.571174,
            "velocity": 0.8267716535433071
          },
          {
            "duration": 0.11428559999998811,
            "durationTicks": 192,
            "midi": 43,
            "name": "G2",
            "ticks": 427920,
            "time": 254.71403100000003,
            "velocity": 0.8267716535433071
          },
          {
            "duration": 0.22857119999997622,
            "durationTicks": 384,
            "midi": 43,
            "name": "G2",
            "ticks": 428160,
            "time": 254.85688800000003,
            "velocity": 0.8267716535433071
          },
          {
            "duration": 0.14285700000002066,
            "durationTicks": 240,
            "midi": 45,
            "name": "A2",
            "ticks": 428640,
            "time": 255.142602,
            "velocity": 0.8267716535433071
          },
          {
            "duration": 0.11428559999998811,
            "durationTicks": 192,
            "midi": 43,
            "name": "G2",
            "ticks": 428880,
            "time": 255.28545900000003,
            "velocity": 0.8267716535433071
          },
          {
            "duration": 0.22857119999997622,
            "durationTicks": 384,
            "midi": 43,
            "name": "G2",
            "ticks": 429120,
            "time": 255.42831600000002,
            "velocity": 0.8267716535433071
          },
          {
            "duration": 0.14285700000002066,
            "durationTicks": 240,
            "midi": 45,
            "name": "A2",
            "ticks": 429600,
            "time": 255.71403,
            "velocity": 0.8267716535433071
          },
          {
            "duration": 0.11428559999998811,
            "durationTicks": 192,
            "midi": 43,
            "name": "G2",
            "ticks": 429840,
            "time": 255.85688700000003,
            "velocity": 0.8267716535433071
          },
          {
            "duration": 0.2857139999999845,
            "durationTicks": 480,
            "midi": 43,
            "name": "G2",
            "ticks": 430080,
            "time": 255.99974400000002,
            "velocity": 0.8267716535433071
          },
          {
            "duration": 0.22857119999997622,
            "durationTicks": 384,
            "midi": 52,
            "name": "E3",
            "ticks": 430560,
            "time": 256.285458,
            "velocity": 0.8267716535433071
          },
          {
            "duration": 0.14285699999999224,
            "durationTicks": 240,
            "midi": 52,
            "name": "E3",
            "ticks": 431520,
            "time": 256.85688600000003,
            "velocity": 0.8267716535433071
          },
          {
            "duration": 0.11428560000001653,
            "durationTicks": 192,
            "midi": 50,
            "name": "D3",
            "ticks": 431760,
            "time": 256.999743,
            "velocity": 0.8267716535433071
          },
          {
            "duration": 0.22857119999997622,
            "durationTicks": 384,
            "midi": 48,
            "name": "C3",
            "ticks": 432000,
            "time": 257.1426,
            "velocity": 0.8267716535433071
          },
          {
            "duration": 0.14285700000004908,
            "durationTicks": 240,
            "midi": 48,
            "name": "C3",
            "ticks": 432480,
            "time": 257.428314,
            "velocity": 0.8267716535433071
          },
          {
            "duration": 0.11428559999995969,
            "durationTicks": 192,
            "midi": 46,
            "name": "A#2",
            "ticks": 432720,
            "time": 257.57117100000005,
            "velocity": 0.8267716535433071
          },
          {
            "duration": 0.22857119999997622,
            "durationTicks": 384,
            "midi": 45,
            "name": "A2",
            "ticks": 432960,
            "time": 257.71402800000004,
            "velocity": 0.8267716535433071
          },
          {
            "duration": 0.14285699999999224,
            "durationTicks": 240,
            "midi": 45,
            "name": "A2",
            "ticks": 433440,
            "time": 257.999742,
            "velocity": 0.8267716535433071
          },
          {
            "duration": 0.11428560000001653,
            "durationTicks": 192,
            "midi": 43,
            "name": "G2",
            "ticks": 433680,
            "time": 258.142599,
            "velocity": 0.8267716535433071
          },
          {
            "duration": 0.08571419999998398,
            "durationTicks": 144,
            "midi": 41,
            "name": "F2",
            "ticks": 433920,
            "time": 258.285456,
            "velocity": 0.8267716535433071
          },
          {
            "duration": 0.08571419999998398,
            "durationTicks": 144,
            "midi": 43,
            "name": "G2",
            "ticks": 434160,
            "time": 258.428313,
            "velocity": 0.8267716535433071
          },
          {
            "duration": 0.08571420000004082,
            "durationTicks": 144,
            "midi": 45,
            "name": "A2",
            "ticks": 434400,
            "time": 258.57117,
            "velocity": 0.8267716535433071
          },
          {
            "duration": 0.08571419999998398,
            "durationTicks": 144,
            "midi": 43,
            "name": "G2",
            "ticks": 434640,
            "time": 258.71402700000004,
            "velocity": 0.8267716535433071
          },
          {
            "duration": 0.08571419999998398,
            "durationTicks": 144,
            "midi": 41,
            "name": "F2",
            "ticks": 434880,
            "time": 258.85688400000004,
            "velocity": 0.8267716535433071
          },
          {
            "duration": 0.08571419999998398,
            "durationTicks": 144,
            "midi": 43,
            "name": "G2",
            "ticks": 435120,
            "time": 258.99974100000003,
            "velocity": 0.8267716535433071
          },
          {
            "duration": 0.08571419999998398,
            "durationTicks": 144,
            "midi": 39,
            "name": "D#2",
            "ticks": 435360,
            "time": 259.142598,
            "velocity": 0.8267716535433071
          },
          {
            "duration": 0.08571419999998398,
            "durationTicks": 144,
            "midi": 41,
            "name": "F2",
            "ticks": 435600,
            "time": 259.285455,
            "velocity": 0.8267716535433071
          },
          {
            "duration": 0.08571419999998398,
            "durationTicks": 144,
            "midi": 38,
            "name": "D2",
            "ticks": 435840,
            "time": 259.428312,
            "velocity": 0.8267716535433071
          },
          {
            "duration": 0.08571419999998398,
            "durationTicks": 144,
            "midi": 41,
            "name": "F2",
            "ticks": 436080,
            "time": 259.571169,
            "velocity": 0.8267716535433071
          },
          {
            "duration": 0.08571419999998398,
            "durationTicks": 144,
            "midi": 46,
            "name": "A#2",
            "ticks": 436320,
            "time": 259.71402600000005,
            "velocity": 0.8267716535433071
          },
          {
            "duration": 0.08571419999998398,
            "durationTicks": 144,
            "midi": 38,
            "name": "D2",
            "ticks": 436560,
            "time": 259.85688300000004,
            "velocity": 0.8267716535433071
          },
          {
            "duration": 0.08571419999998398,
            "durationTicks": 144,
            "midi": 36,
            "name": "C2",
            "ticks": 436800,
            "time": 259.99974000000003,
            "velocity": 0.8267716535433071
          },
          {
            "duration": 0.08571419999998398,
            "durationTicks": 144,
            "midi": 39,
            "name": "D#2",
            "ticks": 437040,
            "time": 260.142597,
            "velocity": 0.8267716535433071
          },
          {
            "duration": 0.08571419999998398,
            "durationTicks": 144,
            "midi": 45,
            "name": "A2",
            "ticks": 437280,
            "time": 260.285454,
            "velocity": 0.8267716535433071
          },
          {
            "duration": 0.08571419999998398,
            "durationTicks": 144,
            "midi": 36,
            "name": "C2",
            "ticks": 437520,
            "time": 260.428311,
            "velocity": 0.8267716535433071
          },
          {
            "duration": 0.08571419999998398,
            "durationTicks": 144,
            "midi": 34,
            "name": "A#1",
            "ticks": 437760,
            "time": 260.571168,
            "velocity": 0.8267716535433071
          },
          {
            "duration": 0.08571419999998398,
            "durationTicks": 144,
            "midi": 29,
            "name": "F1",
            "ticks": 438000,
            "time": 260.71402500000005,
            "velocity": 0.8267716535433071
          },
          {
            "duration": 0.08571419999998398,
            "durationTicks": 144,
            "midi": 31,
            "name": "G1",
            "ticks": 438240,
            "time": 260.85688200000004,
            "velocity": 0.8267716535433071
          },
          {
            "duration": 0.08571419999998398,
            "durationTicks": 144,
            "midi": 33,
            "name": "A1",
            "ticks": 438480,
            "time": 260.99973900000003,
            "velocity": 0.8267716535433071
          },
          {
            "duration": 0.08571419999998398,
            "durationTicks": 144,
            "midi": 34,
            "name": "A#1",
            "ticks": 438720,
            "time": 261.142596,
            "velocity": 0.8267716535433071
          },
          {
            "duration": 0.08571419999998398,
            "durationTicks": 144,
            "midi": 33,
            "name": "A1",
            "ticks": 438960,
            "time": 261.285453,
            "velocity": 0.8267716535433071
          },
          {
            "duration": 0.08571419999998398,
            "durationTicks": 144,
            "midi": 34,
            "name": "A#1",
            "ticks": 439200,
            "time": 261.42831,
            "velocity": 0.8267716535433071
          },
          {
            "duration": 0.08571419999998398,
            "durationTicks": 144,
            "midi": 36,
            "name": "C2",
            "ticks": 439440,
            "time": 261.571167,
            "velocity": 0.8267716535433071
          },
          {
            "duration": 0.08571420000004082,
            "durationTicks": 144,
            "midi": 38,
            "name": "D2",
            "ticks": 439680,
            "time": 261.714024,
            "velocity": 0.8267716535433071
          },
          {
            "duration": 0.08571419999998398,
            "durationTicks": 144,
            "midi": 34,
            "name": "A#1",
            "ticks": 439920,
            "time": 261.85688100000004,
            "velocity": 0.8267716535433071
          },
          {
            "duration": 0.08571419999998398,
            "durationTicks": 144,
            "midi": 36,
            "name": "C2",
            "ticks": 440160,
            "time": 261.99973800000004,
            "velocity": 0.8267716535433071
          },
          {
            "duration": 0.08571419999998398,
            "durationTicks": 144,
            "midi": 38,
            "name": "D2",
            "ticks": 440400,
            "time": 262.14259500000003,
            "velocity": 0.8267716535433071
          },
          {
            "duration": 0.08571419999998398,
            "durationTicks": 144,
            "midi": 39,
            "name": "D#2",
            "ticks": 440640,
            "time": 262.285452,
            "velocity": 0.8267716535433071
          },
          {
            "duration": 0.08571419999998398,
            "durationTicks": 144,
            "midi": 38,
            "name": "D2",
            "ticks": 440880,
            "time": 262.428309,
            "velocity": 0.8267716535433071
          },
          {
            "duration": 0.08571419999998398,
            "durationTicks": 144,
            "midi": 39,
            "name": "D#2",
            "ticks": 441120,
            "time": 262.571166,
            "velocity": 0.8267716535433071
          },
          {
            "duration": 0.08571419999998398,
            "durationTicks": 144,
            "midi": 41,
            "name": "F2",
            "ticks": 441360,
            "time": 262.714023,
            "velocity": 0.8267716535433071
          },
          {
            "duration": 0.08571419999998398,
            "durationTicks": 144,
            "midi": 43,
            "name": "G2",
            "ticks": 441600,
            "time": 262.85688000000005,
            "velocity": 0.8267716535433071
          },
          {
            "duration": 0.08571419999998398,
            "durationTicks": 144,
            "midi": 39,
            "name": "D#2",
            "ticks": 441840,
            "time": 262.99973700000004,
            "velocity": 0.8267716535433071
          },
          {
            "duration": 0.08571419999998398,
            "durationTicks": 144,
            "midi": 41,
            "name": "F2",
            "ticks": 442080,
            "time": 263.14259400000003,
            "velocity": 0.8267716535433071
          },
          {
            "duration": 0.08571419999998398,
            "durationTicks": 144,
            "midi": 43,
            "name": "G2",
            "ticks": 442320,
            "time": 263.285451,
            "velocity": 0.8267716535433071
          },
          {
            "duration": 0.08571419999998398,
            "durationTicks": 144,
            "midi": 45,
            "name": "A2",
            "ticks": 442560,
            "time": 263.428308,
            "velocity": 0.8267716535433071
          },
          {
            "duration": 0.08571419999998398,
            "durationTicks": 144,
            "midi": 43,
            "name": "G2",
            "ticks": 442800,
            "time": 263.571165,
            "velocity": 0.8267716535433071
          },
          {
            "duration": 0.08571419999998398,
            "durationTicks": 144,
            "midi": 45,
            "name": "A2",
            "ticks": 443040,
            "time": 263.714022,
            "velocity": 0.8267716535433071
          },
          {
            "duration": 0.08571419999998398,
            "durationTicks": 144,
            "midi": 46,
            "name": "A#2",
            "ticks": 443280,
            "time": 263.85687900000005,
            "velocity": 0.8267716535433071
          },
          {
            "duration": 0.08571419999998398,
            "durationTicks": 144,
            "midi": 48,
            "name": "C3",
            "ticks": 443520,
            "time": 263.99973600000004,
            "velocity": 0.8267716535433071
          },
          {
            "duration": 0.08571419999998398,
            "durationTicks": 144,
            "midi": 45,
            "name": "A2",
            "ticks": 443760,
            "time": 264.14259300000003,
            "velocity": 0.8267716535433071
          },
          {
            "duration": 0.08571419999998398,
            "durationTicks": 144,
            "midi": 46,
            "name": "A#2",
            "ticks": 444000,
            "time": 264.28545,
            "velocity": 0.8267716535433071
          },
          {
            "duration": 0.08571419999998398,
            "durationTicks": 144,
            "midi": 48,
            "name": "C3",
            "ticks": 444240,
            "time": 264.428307,
            "velocity": 0.8267716535433071
          },
          {
            "duration": 0.08571419999998398,
            "durationTicks": 144,
            "midi": 50,
            "name": "D3",
            "ticks": 444480,
            "time": 264.571164,
            "velocity": 0.8267716535433071
          },
          {
            "duration": 0.08571419999998398,
            "durationTicks": 144,
            "midi": 49,
            "name": "C#3",
            "ticks": 444720,
            "time": 264.714021,
            "velocity": 0.8267716535433071
          },
          {
            "duration": 0.08571420000004082,
            "durationTicks": 144,
            "midi": 50,
            "name": "D3",
            "ticks": 444960,
            "time": 264.856878,
            "velocity": 0.8267716535433071
          },
          {
            "duration": 0.08571419999998398,
            "durationTicks": 144,
            "midi": 52,
            "name": "E3",
            "ticks": 445200,
            "time": 264.99973500000004,
            "velocity": 0.8267716535433071
          },
          {
            "duration": 0.08571419999998398,
            "durationTicks": 144,
            "midi": 54,
            "name": "F#3",
            "ticks": 445440,
            "time": 265.14259200000004,
            "velocity": 0.8267716535433071
          },
          {
            "duration": 0.08571419999998398,
            "durationTicks": 144,
            "midi": 50,
            "name": "D3",
            "ticks": 445680,
            "time": 265.285449,
            "velocity": 0.8267716535433071
          },
          {
            "duration": 0.08571419999998398,
            "durationTicks": 144,
            "midi": 52,
            "name": "E3",
            "ticks": 445920,
            "time": 265.428306,
            "velocity": 0.8267716535433071
          },
          {
            "duration": 0.08571419999998398,
            "durationTicks": 144,
            "midi": 54,
            "name": "F#3",
            "ticks": 446160,
            "time": 265.571163,
            "velocity": 0.8267716535433071
          },
          {
            "duration": 0.08571419999998398,
            "durationTicks": 144,
            "midi": 55,
            "name": "G3",
            "ticks": 446400,
            "time": 265.71402,
            "velocity": 0.8267716535433071
          },
          {
            "duration": 0.08571419999998398,
            "durationTicks": 144,
            "midi": 51,
            "name": "D#3",
            "ticks": 446640,
            "time": 265.856877,
            "velocity": 0.8267716535433071
          },
          {
            "duration": 0.08571419999998398,
            "durationTicks": 144,
            "midi": 50,
            "name": "D3",
            "ticks": 446880,
            "time": 265.99973400000005,
            "velocity": 0.8267716535433071
          },
          {
            "duration": 0.08571419999998398,
            "durationTicks": 144,
            "midi": 48,
            "name": "C3",
            "ticks": 447120,
            "time": 266.14259100000004,
            "velocity": 0.8267716535433071
          },
          {
            "duration": 0.08571419999998398,
            "durationTicks": 144,
            "midi": 46,
            "name": "A#2",
            "ticks": 447360,
            "time": 266.28544800000003,
            "velocity": 0.8267716535433071
          },
          {
            "duration": 0.08571419999998398,
            "durationTicks": 144,
            "midi": 48,
            "name": "C3",
            "ticks": 447600,
            "time": 266.428305,
            "velocity": 0.8267716535433071
          },
          {
            "duration": 0.08571419999998398,
            "durationTicks": 144,
            "midi": 46,
            "name": "A#2",
            "ticks": 447840,
            "time": 266.571162,
            "velocity": 0.8267716535433071
          },
          {
            "duration": 0.08571419999998398,
            "durationTicks": 144,
            "midi": 45,
            "name": "A2",
            "ticks": 448080,
            "time": 266.714019,
            "velocity": 0.8267716535433071
          },
          {
            "duration": 0.08571419999998398,
            "durationTicks": 144,
            "midi": 43,
            "name": "G2",
            "ticks": 448320,
            "time": 266.856876,
            "velocity": 0.8267716535433071
          },
          {
            "duration": 0.08571419999998398,
            "durationTicks": 144,
            "midi": 41,
            "name": "F2",
            "ticks": 448560,
            "time": 266.99973300000005,
            "velocity": 0.8267716535433071
          },
          {
            "duration": 0.08571419999998398,
            "durationTicks": 144,
            "midi": 43,
            "name": "G2",
            "ticks": 448800,
            "time": 267.14259000000004,
            "velocity": 0.8267716535433071
          },
          {
            "duration": 0.08571419999998398,
            "durationTicks": 144,
            "midi": 44,
            "name": "G#2",
            "ticks": 449040,
            "time": 267.28544700000003,
            "velocity": 0.8267716535433071
          },
          {
            "duration": 0.11428560000001653,
            "durationTicks": 192,
            "midi": 45,
            "name": "A2",
            "ticks": 449280,
            "time": 267.428304,
            "velocity": 0.8267716535433071
          },
          {
            "duration": 0.11428560000001653,
            "durationTicks": 192,
            "midi": 45,
            "name": "A2",
            "ticks": 449520,
            "time": 267.571161,
            "velocity": 0.8267716535433071
          },
          {
            "duration": 0.11428560000001653,
            "durationTicks": 192,
            "midi": 45,
            "name": "A2",
            "ticks": 449760,
            "time": 267.714018,
            "velocity": 0.8267716535433071
          },
          {
            "duration": 0.11428560000001653,
            "durationTicks": 192,
            "midi": 45,
            "name": "A2",
            "ticks": 450000,
            "time": 267.856875,
            "velocity": 0.8267716535433071
          },
          {
            "duration": 0.11428560000001653,
            "durationTicks": 192,
            "midi": 45,
            "name": "A2",
            "ticks": 450240,
            "time": 267.999732,
            "velocity": 0.8267716535433071
          },
          {
            "duration": 0.11428559999995969,
            "durationTicks": 192,
            "midi": 45,
            "name": "A2",
            "ticks": 450480,
            "time": 268.14258900000004,
            "velocity": 0.8267716535433071
          },
          {
            "duration": 0.11428559999995969,
            "durationTicks": 192,
            "midi": 45,
            "name": "A2",
            "ticks": 450720,
            "time": 268.28544600000004,
            "velocity": 0.8267716535433071
          },
          {
            "duration": 0.11428559999995969,
            "durationTicks": 192,
            "midi": 45,
            "name": "A2",
            "ticks": 450960,
            "time": 268.428303,
            "velocity": 0.8267716535433071
          },
          {
            "duration": 0.11428560000001653,
            "durationTicks": 192,
            "midi": 45,
            "name": "A2",
            "ticks": 451200,
            "time": 268.57116,
            "velocity": 0.8267716535433071
          },
          {
            "duration": 0.11428560000001653,
            "durationTicks": 192,
            "midi": 45,
            "name": "A2",
            "ticks": 451440,
            "time": 268.714017,
            "velocity": 0.8267716535433071
          },
          {
            "duration": 0.11428560000001653,
            "durationTicks": 192,
            "midi": 45,
            "name": "A2",
            "ticks": 451680,
            "time": 268.856874,
            "velocity": 0.8267716535433071
          },
          {
            "duration": 0.11428560000001653,
            "durationTicks": 192,
            "midi": 45,
            "name": "A2",
            "ticks": 451920,
            "time": 268.999731,
            "velocity": 0.8267716535433071
          },
          {
            "duration": 0.11428559999995969,
            "durationTicks": 192,
            "midi": 45,
            "name": "A2",
            "ticks": 452160,
            "time": 269.14258800000005,
            "velocity": 0.8267716535433071
          },
          {
            "duration": 0.11428559999995969,
            "durationTicks": 192,
            "midi": 45,
            "name": "A2",
            "ticks": 452400,
            "time": 269.28544500000004,
            "velocity": 0.8267716535433071
          },
          {
            "duration": 0.11428559999995969,
            "durationTicks": 192,
            "midi": 45,
            "name": "A2",
            "ticks": 452640,
            "time": 269.42830200000003,
            "velocity": 0.8267716535433071
          },
          {
            "duration": 0.11428560000001653,
            "durationTicks": 192,
            "midi": 45,
            "name": "A2",
            "ticks": 452880,
            "time": 269.571159,
            "velocity": 0.8267716535433071
          },
          {
            "duration": 0.11428560000001653,
            "durationTicks": 192,
            "midi": 45,
            "name": "A2",
            "ticks": 453120,
            "time": 269.714016,
            "velocity": 0.8267716535433071
          },
          {
            "duration": 0.11428560000001653,
            "durationTicks": 192,
            "midi": 45,
            "name": "A2",
            "ticks": 453360,
            "time": 269.856873,
            "velocity": 0.8267716535433071
          },
          {
            "duration": 0.11428560000001653,
            "durationTicks": 192,
            "midi": 45,
            "name": "A2",
            "ticks": 453600,
            "time": 269.99973,
            "velocity": 0.8267716535433071
          },
          {
            "duration": 0.11428559999995969,
            "durationTicks": 192,
            "midi": 45,
            "name": "A2",
            "ticks": 453840,
            "time": 270.14258700000005,
            "velocity": 0.8267716535433071
          },
          {
            "duration": 0.11428559999995969,
            "durationTicks": 192,
            "midi": 45,
            "name": "A2",
            "ticks": 454080,
            "time": 270.28544400000004,
            "velocity": 0.8267716535433071
          },
          {
            "duration": 0.11428559999995969,
            "durationTicks": 192,
            "midi": 45,
            "name": "A2",
            "ticks": 454320,
            "time": 270.42830100000003,
            "velocity": 0.8267716535433071
          },
          {
            "duration": 0.11428560000001653,
            "durationTicks": 192,
            "midi": 45,
            "name": "A2",
            "ticks": 454560,
            "time": 270.571158,
            "velocity": 0.8267716535433071
          },
          {
            "duration": 0.11428560000001653,
            "durationTicks": 192,
            "midi": 45,
            "name": "A2",
            "ticks": 454800,
            "time": 270.714015,
            "velocity": 0.8267716535433071
          },
          {
            "duration": 0.11428560000001653,
            "durationTicks": 192,
            "midi": 45,
            "name": "A2",
            "ticks": 455040,
            "time": 270.856872,
            "velocity": 0.8267716535433071
          },
          {
            "duration": 0.11428560000001653,
            "durationTicks": 192,
            "midi": 45,
            "name": "A2",
            "ticks": 455280,
            "time": 270.999729,
            "velocity": 0.8267716535433071
          },
          {
            "duration": 0.11428560000001653,
            "durationTicks": 192,
            "midi": 45,
            "name": "A2",
            "ticks": 455520,
            "time": 271.142586,
            "velocity": 0.8267716535433071
          },
          {
            "duration": 0.11428559999995969,
            "durationTicks": 192,
            "midi": 45,
            "name": "A2",
            "ticks": 455760,
            "time": 271.28544300000004,
            "velocity": 0.8267716535433071
          },
          {
            "duration": 0.11428559999995969,
            "durationTicks": 192,
            "midi": 45,
            "name": "A2",
            "ticks": 456000,
            "time": 271.42830000000004,
            "velocity": 0.8267716535433071
          },
          {
            "duration": 0.11428559999995969,
            "durationTicks": 192,
            "midi": 45,
            "name": "A2",
            "ticks": 456240,
            "time": 271.571157,
            "velocity": 0.8267716535433071
          },
          {
            "duration": 0.11428560000001653,
            "durationTicks": 192,
            "midi": 45,
            "name": "A2",
            "ticks": 456480,
            "time": 271.714014,
            "velocity": 0.8267716535433071
          },
          {
            "duration": 0.11428560000001653,
            "durationTicks": 192,
            "midi": 45,
            "name": "A2",
            "ticks": 456720,
            "time": 271.856871,
            "velocity": 0.8267716535433071
          },
          {
            "duration": 0.4571424000000093,
            "durationTicks": 768,
            "midi": 45,
            "name": "A2",
            "ticks": 456960,
            "time": 271.999728,
            "velocity": 0.8267716535433071
          },
          {
            "duration": 0.14285699999999224,
            "durationTicks": 240,
            "midi": 51,
            "name": "D#3",
            "ticks": 486240,
            "time": 289.428282,
            "velocity": 0.9133858267716536
          },
          {
            "duration": 0.11428560000001653,
            "durationTicks": 192,
            "midi": 50,
            "name": "D3",
            "ticks": 486480,
            "time": 289.571139,
            "velocity": 0.9133858267716536
          },
          {
            "duration": 0.22857119999997622,
            "durationTicks": 384,
            "midi": 50,
            "name": "D3",
            "ticks": 486720,
            "time": 289.713996,
            "velocity": 0.9133858267716536
          },
          {
            "duration": 0.14285699999999224,
            "durationTicks": 240,
            "midi": 51,
            "name": "D#3",
            "ticks": 488160,
            "time": 290.571138,
            "velocity": 0.9133858267716536
          },
          {
            "duration": 0.11428560000001653,
            "durationTicks": 192,
            "midi": 50,
            "name": "D3",
            "ticks": 488400,
            "time": 290.713995,
            "velocity": 0.9133858267716536
          },
          {
            "duration": 0.22857120000003306,
            "durationTicks": 384,
            "midi": 50,
            "name": "D3",
            "ticks": 488640,
            "time": 290.856852,
            "velocity": 0.9133858267716536
          },
          {
            "duration": 0.14285699999999224,
            "durationTicks": 240,
            "midi": 51,
            "name": "D#3",
            "ticks": 490080,
            "time": 291.713994,
            "velocity": 0.9133858267716536
          },
          {
            "duration": 0.11428560000001653,
            "durationTicks": 192,
            "midi": 50,
            "name": "D3",
            "ticks": 490320,
            "time": 291.856851,
            "velocity": 0.9133858267716536
          },
          {
            "duration": 0.22857120000003306,
            "durationTicks": 384,
            "midi": 50,
            "name": "D3",
            "ticks": 490560,
            "time": 291.999708,
            "velocity": 0.9133858267716536
          },
          {
            "duration": 0.14285699999999224,
            "durationTicks": 240,
            "midi": 51,
            "name": "D#3",
            "ticks": 492000,
            "time": 292.85685,
            "velocity": 0.9133858267716536
          },
          {
            "duration": 0.11428560000007337,
            "durationTicks": 192,
            "midi": 50,
            "name": "D3",
            "ticks": 492240,
            "time": 292.999707,
            "velocity": 0.9133858267716536
          },
          {
            "duration": 0.22857119999997622,
            "durationTicks": 384,
            "midi": 50,
            "name": "D3",
            "ticks": 492480,
            "time": 293.14256400000005,
            "velocity": 0.9133858267716536
          },
          {
            "duration": 0.14285700000004908,
            "durationTicks": 240,
            "midi": 51,
            "name": "D#3",
            "ticks": 493920,
            "time": 293.999706,
            "velocity": 0.9133858267716536
          },
          {
            "duration": 0.11428560000001653,
            "durationTicks": 192,
            "midi": 50,
            "name": "D3",
            "ticks": 494160,
            "time": 294.14256300000005,
            "velocity": 0.9133858267716536
          },
          {
            "duration": 0.22857119999997622,
            "durationTicks": 384,
            "midi": 50,
            "name": "D3",
            "ticks": 494400,
            "time": 294.28542000000004,
            "velocity": 0.9133858267716536
          },
          {
            "duration": 0.14285700000004908,
            "durationTicks": 240,
            "midi": 51,
            "name": "D#3",
            "ticks": 495840,
            "time": 295.142562,
            "velocity": 0.9133858267716536
          },
          {
            "duration": 0.11428560000001653,
            "durationTicks": 192,
            "midi": 50,
            "name": "D3",
            "ticks": 496080,
            "time": 295.28541900000005,
            "velocity": 0.9133858267716536
          },
          {
            "duration": 0.22857119999997622,
            "durationTicks": 384,
            "midi": 50,
            "name": "D3",
            "ticks": 496320,
            "time": 295.42827600000004,
            "velocity": 0.9133858267716536
          },
          {
            "duration": 0.14285699999999224,
            "durationTicks": 240,
            "midi": 51,
            "name": "D#3",
            "ticks": 497760,
            "time": 296.28541800000005,
            "velocity": 0.9133858267716536
          },
          {
            "duration": 0.11428560000001653,
            "durationTicks": 192,
            "midi": 50,
            "name": "D3",
            "ticks": 498000,
            "time": 296.42827500000004,
            "velocity": 0.9133858267716536
          },
          {
            "duration": 0.22857119999997622,
            "durationTicks": 384,
            "midi": 50,
            "name": "D3",
            "ticks": 498240,
            "time": 296.57113200000003,
            "velocity": 0.9133858267716536
          },
          {
            "duration": 0.14285699999999224,
            "durationTicks": 240,
            "midi": 51,
            "name": "D#3",
            "ticks": 498720,
            "time": 296.856846,
            "velocity": 0.9133858267716536
          },
          {
            "duration": 0.11428560000001653,
            "durationTicks": 192,
            "midi": 50,
            "name": "D3",
            "ticks": 498960,
            "time": 296.999703,
            "velocity": 0.9133858267716536
          },
          {
            "duration": 0.22857120000003306,
            "durationTicks": 384,
            "midi": 50,
            "name": "D3",
            "ticks": 499200,
            "time": 297.14256,
            "velocity": 0.8267716535433071
          },
          {
            "duration": 0.22857119999997622,
            "durationTicks": 384,
            "midi": 31,
            "name": "G1",
            "ticks": 510720,
            "time": 303.99969600000003,
            "velocity": 0.5511811023622047
          },
          {
            "duration": 0.22857119999997622,
            "durationTicks": 384,
            "midi": 43,
            "name": "G2",
            "ticks": 512640,
            "time": 305.142552,
            "velocity": 0.5511811023622047
          },
          {
            "duration": 0.22857119999997622,
            "durationTicks": 384,
            "midi": 31,
            "name": "G1",
            "ticks": 514560,
            "time": 306.285408,
            "velocity": 0.5511811023622047
          },
          {
            "duration": 0.22857119999997622,
            "durationTicks": 384,
            "midi": 43,
            "name": "G2",
            "ticks": 516480,
            "time": 307.428264,
            "velocity": 0.5511811023622047
          },
          {
            "duration": 0.22857120000003306,
            "durationTicks": 384,
            "midi": 30,
            "name": "F#1",
            "ticks": 518400,
            "time": 308.57112,
            "velocity": 0.5511811023622047
          },
          {
            "duration": 0.22857120000003306,
            "durationTicks": 384,
            "midi": 38,
            "name": "D2",
            "ticks": 520320,
            "time": 309.713976,
            "velocity": 0.5511811023622047
          },
          {
            "duration": 0.22857119999997622,
            "durationTicks": 384,
            "midi": 31,
            "name": "G1",
            "ticks": 522240,
            "time": 310.85683200000005,
            "velocity": 0.5511811023622047
          },
          {
            "duration": 1.1428559999999948,
            "durationTicks": 1920,
            "midi": 36,
            "name": "C2",
            "ticks": 524160,
            "time": 311.99968800000005,
            "velocity": 0.5511811023622047
          },
          {
            "duration": 1.1428559999999948,
            "durationTicks": 1920,
            "midi": 34,
            "name": "A#1",
            "ticks": 526080,
            "time": 313.14254400000004,
            "velocity": 0.5511811023622047
          },
          {
            "duration": 1.1428559999999948,
            "durationTicks": 1920,
            "midi": 36,
            "name": "C2",
            "ticks": 528000,
            "time": 314.28540000000004,
            "velocity": 0.5511811023622047
          },
          {
            "duration": 1.0857131999999865,
            "durationTicks": 1824,
            "midi": 34,
            "name": "A#1",
            "ticks": 529920,
            "time": 315.42825600000003,
            "velocity": 0.5511811023622047
          },
          {
            "duration": 1.1428559999999948,
            "durationTicks": 1920,
            "midi": 40,
            "name": "E2",
            "ticks": 531840,
            "time": 316.571112,
            "velocity": 0.5511811023622047
          },
          {
            "duration": 1.1428559999999948,
            "durationTicks": 1920,
            "midi": 39,
            "name": "D#2",
            "ticks": 533760,
            "time": 317.713968,
            "velocity": 0.5511811023622047
          },
          {
            "duration": 0.4571424000000093,
            "durationTicks": 768,
            "midi": 38,
            "name": "D2",
            "ticks": 535680,
            "time": 318.856824,
            "velocity": 0.4566929133858268
          },
          {
            "duration": 0.11428560000001653,
            "durationTicks": 192,
            "midi": 38,
            "name": "D2",
            "ticks": 537120,
            "time": 319.713966,
            "velocity": 0.4566929133858268
          },
          {
            "duration": 0.11428560000001653,
            "durationTicks": 192,
            "midi": 38,
            "name": "D2",
            "ticks": 537360,
            "time": 319.856823,
            "velocity": 0.8267716535433071
          },
          {
            "duration": 0.4571424000000093,
            "durationTicks": 768,
            "midi": 38,
            "name": "D2",
            "ticks": 537600,
            "time": 319.99968,
            "velocity": 0.8267716535433071
          },
          {
            "duration": 0.11428560000001653,
            "durationTicks": 192,
            "midi": 38,
            "name": "D2",
            "ticks": 539040,
            "time": 320.856822,
            "velocity": 0.8267716535433071
          },
          {
            "duration": 0.11428560000001653,
            "durationTicks": 192,
            "midi": 38,
            "name": "D2",
            "ticks": 539280,
            "time": 320.999679,
            "velocity": 0.8267716535433071
          },
          {
            "duration": 0.4571424000000093,
            "durationTicks": 768,
            "midi": 38,
            "name": "D2",
            "ticks": 539520,
            "time": 321.142536,
            "velocity": 0.8267716535433071
          },
          {
            "duration": 0.09999990000000025,
            "durationTicks": 168,
            "midi": 38,
            "name": "D2",
            "ticks": 540960,
            "time": 321.999678,
            "velocity": 0.8267716535433071
          },
          {
            "duration": 0.09999990000000025,
            "durationTicks": 168,
            "midi": 38,
            "name": "D2",
            "ticks": 541200,
            "time": 322.142535,
            "velocity": 0.8267716535433071
          },
          {
            "duration": 0.19999980000005735,
            "durationTicks": 336,
            "midi": 38,
            "name": "D2",
            "ticks": 541440,
            "time": 322.285392,
            "velocity": 0.8267716535433071
          },
          {
            "duration": 0.09999989999994341,
            "durationTicks": 168,
            "midi": 38,
            "name": "D2",
            "ticks": 541920,
            "time": 322.57110600000004,
            "velocity": 0.8267716535433071
          },
          {
            "duration": 0.09999989999994341,
            "durationTicks": 168,
            "midi": 38,
            "name": "D2",
            "ticks": 542160,
            "time": 322.71396300000004,
            "velocity": 0.8267716535433071
          },
          {
            "duration": 0.1999998000000005,
            "durationTicks": 336,
            "midi": 38,
            "name": "D2",
            "ticks": 542400,
            "time": 322.85682,
            "velocity": 0.8267716535433071
          },
          {
            "duration": 0.09999990000000025,
            "durationTicks": 168,
            "midi": 38,
            "name": "D2",
            "ticks": 542880,
            "time": 323.142534,
            "velocity": 0.8267716535433071
          },
          {
            "duration": 0.09999990000000025,
            "durationTicks": 168,
            "midi": 38,
            "name": "D2",
            "ticks": 543120,
            "time": 323.285391,
            "velocity": 0.8267716535433071
          },
          {
            "duration": 0.45714239999995243,
            "durationTicks": 768,
            "midi": 38,
            "name": "D2",
            "ticks": 543360,
            "time": 323.42824800000005,
            "velocity": 0.8267716535433071
          },
          {
            "duration": 0.22857119999997622,
            "durationTicks": 384,
            "midi": 31,
            "name": "G1",
            "ticks": 547200,
            "time": 325.71396000000004,
            "velocity": 0.5511811023622047
          },
          {
            "duration": 0.22857119999997622,
            "durationTicks": 384,
            "midi": 43,
            "name": "G2",
            "ticks": 549120,
            "time": 326.85681600000004,
            "velocity": 0.5511811023622047
          },
          {
            "duration": 0.22857119999997622,
            "durationTicks": 384,
            "midi": 41,
            "name": "F2",
            "ticks": 551040,
            "time": 327.99967200000003,
            "velocity": 0.5511811023622047
          },
          {
            "duration": 0.22857119999997622,
            "durationTicks": 384,
            "midi": 39,
            "name": "D#2",
            "ticks": 552960,
            "time": 329.142528,
            "velocity": 0.5511811023622047
          },
          {
            "duration": 0.22857119999997622,
            "durationTicks": 384,
            "midi": 38,
            "name": "D2",
            "ticks": 554880,
            "time": 330.285384,
            "velocity": 0.5511811023622047
          },
          {
            "duration": 0.22857119999997622,
            "durationTicks": 384,
            "midi": 34,
            "name": "A#1",
            "ticks": 556800,
            "time": 331.42824,
            "velocity": 0.5511811023622047
          },
          {
            "duration": 0.11428560000001653,
            "durationTicks": 192,
            "midi": 39,
            "name": "D#2",
            "ticks": 558720,
            "time": 332.571096,
            "velocity": 0.8267716535433071
          },
          {
            "duration": 0.11428560000007337,
            "durationTicks": 192,
            "midi": 43,
            "name": "G2",
            "ticks": 558960,
            "time": 332.713953,
            "velocity": 0.8267716535433071
          },
          {
            "duration": 0.11428560000001653,
            "durationTicks": 192,
            "midi": 46,
            "name": "A#2",
            "ticks": 559200,
            "time": 332.85681000000005,
            "velocity": 0.8267716535433071
          },
          {
            "duration": 0.11428560000001653,
            "durationTicks": 192,
            "midi": 51,
            "name": "D#3",
            "ticks": 559440,
            "time": 332.99966700000004,
            "velocity": 0.8267716535433071
          },
          {
            "duration": 0.11428560000001653,
            "durationTicks": 192,
            "midi": 55,
            "name": "G3",
            "ticks": 559680,
            "time": 333.14252400000004,
            "velocity": 0.8267716535433071
          },
          {
            "duration": 0.11428560000001653,
            "durationTicks": 192,
            "midi": 53,
            "name": "F3",
            "ticks": 559920,
            "time": 333.28538100000003,
            "velocity": 0.8267716535433071
          },
          {
            "duration": 0.11428560000001653,
            "durationTicks": 192,
            "midi": 55,
            "name": "G3",
            "ticks": 560160,
            "time": 333.428238,
            "velocity": 0.8267716535433071
          },
          {
            "duration": 0.11428560000001653,
            "durationTicks": 192,
            "midi": 51,
            "name": "D#3",
            "ticks": 560400,
            "time": 333.571095,
            "velocity": 0.8267716535433071
          },
          {
            "duration": 0.11428560000007337,
            "durationTicks": 192,
            "midi": 50,
            "name": "D3",
            "ticks": 560640,
            "time": 333.713952,
            "velocity": 0.8267716535433071
          },
          {
            "duration": 0.11428560000001653,
            "durationTicks": 192,
            "midi": 51,
            "name": "D#3",
            "ticks": 560880,
            "time": 333.85680900000006,
            "velocity": 0.8267716535433071
          },
          {
            "duration": 0.11428560000001653,
            "durationTicks": 192,
            "midi": 53,
            "name": "F3",
            "ticks": 561120,
            "time": 333.99966600000005,
            "velocity": 0.8267716535433071
          },
          {
            "duration": 0.11428560000001653,
            "durationTicks": 192,
            "midi": 51,
            "name": "D#3",
            "ticks": 561360,
            "time": 334.14252300000004,
            "velocity": 0.8267716535433071
          },
          {
            "duration": 0.11428560000001653,
            "durationTicks": 192,
            "midi": 50,
            "name": "D3",
            "ticks": 561600,
            "time": 334.28538000000003,
            "velocity": 0.8267716535433071
          },
          {
            "duration": 0.11428560000001653,
            "durationTicks": 192,
            "midi": 48,
            "name": "C3",
            "ticks": 561840,
            "time": 334.428237,
            "velocity": 0.8267716535433071
          },
          {
            "duration": 0.11428560000001653,
            "durationTicks": 192,
            "midi": 50,
            "name": "D3",
            "ticks": 562080,
            "time": 334.571094,
            "velocity": 0.8267716535433071
          },
          {
            "duration": 0.11428560000001653,
            "durationTicks": 192,
            "midi": 46,
            "name": "A#2",
            "ticks": 562320,
            "time": 334.713951,
            "velocity": 0.8267716535433071
          },
          {
            "duration": 0.11428560000007337,
            "durationTicks": 192,
            "midi": 48,
            "name": "C3",
            "ticks": 562560,
            "time": 334.856808,
            "velocity": 0.8267716535433071
          },
          {
            "duration": 0.11428560000001653,
            "durationTicks": 192,
            "midi": 51,
            "name": "D#3",
            "ticks": 562800,
            "time": 334.99966500000005,
            "velocity": 0.8267716535433071
          },
          {
            "duration": 0.11428560000001653,
            "durationTicks": 192,
            "midi": 48,
            "name": "C3",
            "ticks": 563040,
            "time": 335.14252200000004,
            "velocity": 0.8267716535433071
          },
          {
            "duration": 0.11428560000001653,
            "durationTicks": 192,
            "midi": 51,
            "name": "D#3",
            "ticks": 563280,
            "time": 335.28537900000003,
            "velocity": 0.8267716535433071
          },
          {
            "duration": 0.11428560000001653,
            "durationTicks": 192,
            "midi": 48,
            "name": "C3",
            "ticks": 563520,
            "time": 335.428236,
            "velocity": 0.8267716535433071
          },
          {
            "duration": 0.11428560000001653,
            "durationTicks": 192,
            "midi": 51,
            "name": "D#3",
            "ticks": 563760,
            "time": 335.571093,
            "velocity": 0.8267716535433071
          },
          {
            "duration": 0.11428560000001653,
            "durationTicks": 192,
            "midi": 48,
            "name": "C3",
            "ticks": 564000,
            "time": 335.71395,
            "velocity": 0.8267716535433071
          },
          {
            "duration": 0.11428560000007337,
            "durationTicks": 192,
            "midi": 51,
            "name": "D#3",
            "ticks": 564240,
            "time": 335.856807,
            "velocity": 0.8267716535433071
          },
          {
            "duration": 0.11428560000001653,
            "durationTicks": 192,
            "midi": 46,
            "name": "A#2",
            "ticks": 564480,
            "time": 335.99966400000005,
            "velocity": 0.8267716535433071
          },
          {
            "duration": 0.11428560000001653,
            "durationTicks": 192,
            "midi": 51,
            "name": "D#3",
            "ticks": 564720,
            "time": 336.14252100000004,
            "velocity": 0.8267716535433071
          },
          {
            "duration": 0.11428560000001653,
            "durationTicks": 192,
            "midi": 46,
            "name": "A#2",
            "ticks": 564960,
            "time": 336.28537800000004,
            "velocity": 0.8267716535433071
          },
          {
            "duration": 0.11428560000001653,
            "durationTicks": 192,
            "midi": 51,
            "name": "D#3",
            "ticks": 565200,
            "time": 336.42823500000003,
            "velocity": 0.8267716535433071
          },
          {
            "duration": 0.11428560000001653,
            "durationTicks": 192,
            "midi": 46,
            "name": "A#2",
            "ticks": 565440,
            "time": 336.571092,
            "velocity": 0.8267716535433071
          },
          {
            "duration": 0.11428560000001653,
            "durationTicks": 192,
            "midi": 51,
            "name": "D#3",
            "ticks": 565680,
            "time": 336.713949,
            "velocity": 0.8267716535433071
          },
          {
            "duration": 0.11428560000007337,
            "durationTicks": 192,
            "midi": 46,
            "name": "A#2",
            "ticks": 565920,
            "time": 336.856806,
            "velocity": 0.8267716535433071
          },
          {
            "duration": 0.11428560000001653,
            "durationTicks": 192,
            "midi": 51,
            "name": "D#3",
            "ticks": 566160,
            "time": 336.99966300000006,
            "velocity": 0.8267716535433071
          },
          {
            "duration": 0.11428560000001653,
            "durationTicks": 192,
            "midi": 44,
            "name": "G#2",
            "ticks": 566400,
            "time": 337.14252000000005,
            "velocity": 0.8267716535433071
          },
          {
            "duration": 0.11428560000001653,
            "durationTicks": 192,
            "midi": 48,
            "name": "C3",
            "ticks": 566640,
            "time": 337.28537700000004,
            "velocity": 0.8267716535433071
          },
          {
            "duration": 0.11428560000001653,
            "durationTicks": 192,
            "midi": 44,
            "name": "G#2",
            "ticks": 566880,
            "time": 337.42823400000003,
            "velocity": 0.8267716535433071
          },
          {
            "duration": 0.11428560000001653,
            "durationTicks": 192,
            "midi": 48,
            "name": "C3",
            "ticks": 567120,
            "time": 337.571091,
            "velocity": 0.8267716535433071
          },
          {
            "duration": 0.11428560000001653,
            "durationTicks": 192,
            "midi": 44,
            "name": "G#2",
            "ticks": 567360,
            "time": 337.713948,
            "velocity": 0.8267716535433071
          },
          {
            "duration": 0.11428560000007337,
            "durationTicks": 192,
            "midi": 48,
            "name": "C3",
            "ticks": 567600,
            "time": 337.856805,
            "velocity": 0.8267716535433071
          },
          {
            "duration": 0.11428560000007337,
            "durationTicks": 192,
            "midi": 44,
            "name": "G#2",
            "ticks": 567840,
            "time": 337.999662,
            "velocity": 0.8267716535433071
          },
          {
            "duration": 0.11428560000001653,
            "durationTicks": 192,
            "midi": 48,
            "name": "C3",
            "ticks": 568080,
            "time": 338.14251900000005,
            "velocity": 0.8267716535433071
          },
          {
            "duration": 0.11428560000001653,
            "durationTicks": 192,
            "midi": 43,
            "name": "G2",
            "ticks": 568320,
            "time": 338.28537600000004,
            "velocity": 0.8267716535433071
          },
          {
            "duration": 0.11428560000001653,
            "durationTicks": 192,
            "midi": 46,
            "name": "A#2",
            "ticks": 568560,
            "time": 338.42823300000003,
            "velocity": 0.8267716535433071
          },
          {
            "duration": 0.11428560000001653,
            "durationTicks": 192,
            "midi": 43,
            "name": "G2",
            "ticks": 568800,
            "time": 338.57109,
            "velocity": 0.8267716535433071
          },
          {
            "duration": 0.11428560000001653,
            "durationTicks": 192,
            "midi": 46,
            "name": "A#2",
            "ticks": 569040,
            "time": 338.713947,
            "velocity": 0.8267716535433071
          },
          {
            "duration": 0.11428560000001653,
            "durationTicks": 192,
            "midi": 41,
            "name": "F2",
            "ticks": 569280,
            "time": 338.856804,
            "velocity": 0.8267716535433071
          },
          {
            "duration": 0.11428560000007337,
            "durationTicks": 192,
            "midi": 44,
            "name": "G#2",
            "ticks": 569520,
            "time": 338.999661,
            "velocity": 0.8267716535433071
          },
          {
            "duration": 0.11428560000001653,
            "durationTicks": 192,
            "midi": 41,
            "name": "F2",
            "ticks": 569760,
            "time": 339.14251800000005,
            "velocity": 0.8267716535433071
          },
          {
            "duration": 0.11428560000001653,
            "durationTicks": 192,
            "midi": 44,
            "name": "G#2",
            "ticks": 570000,
            "time": 339.28537500000004,
            "velocity": 0.8267716535433071
          },
          {
            "duration": 0.11428560000001653,
            "durationTicks": 192,
            "midi": 40,
            "name": "E2",
            "ticks": 570240,
            "time": 339.42823200000004,
            "velocity": 0.8267716535433071
          },
          {
            "duration": 0.11428560000001653,
            "durationTicks": 192,
            "midi": 43,
            "name": "G2",
            "ticks": 570480,
            "time": 339.57108900000003,
            "velocity": 0.8267716535433071
          },
          {
            "duration": 0.11428560000001653,
            "durationTicks": 192,
            "midi": 40,
            "name": "E2",
            "ticks": 570720,
            "time": 339.713946,
            "velocity": 0.8267716535433071
          },
          {
            "duration": 0.11428560000001653,
            "durationTicks": 192,
            "midi": 43,
            "name": "G2",
            "ticks": 570960,
            "time": 339.856803,
            "velocity": 0.8267716535433071
          },
          {
            "duration": 0.11428560000007337,
            "durationTicks": 192,
            "midi": 36,
            "name": "C2",
            "ticks": 571200,
            "time": 339.99966,
            "velocity": 0.8267716535433071
          },
          {
            "duration": 0.11428560000001653,
            "durationTicks": 192,
            "midi": 40,
            "name": "E2",
            "ticks": 571440,
            "time": 340.14251700000005,
            "velocity": 0.8267716535433071
          },
          {
            "duration": 0.11428560000001653,
            "durationTicks": 192,
            "midi": 36,
            "name": "C2",
            "ticks": 571680,
            "time": 340.28537400000005,
            "velocity": 0.8267716535433071
          },
          {
            "duration": 0.11428560000001653,
            "durationTicks": 192,
            "midi": 40,
            "name": "E2",
            "ticks": 571920,
            "time": 340.42823100000004,
            "velocity": 0.8267716535433071
          },
          {
            "duration": 0.9142848000000185,
            "durationTicks": 1536,
            "midi": 41,
            "name": "F2",
            "ticks": 572160,
            "time": 340.57108800000003,
            "velocity": 0.8267716535433071
          },
          {
            "duration": 0.6857136000000423,
            "durationTicks": 1152,
            "midi": 48,
            "name": "C3",
            "ticks": 574080,
            "time": 341.713944,
            "velocity": 0.8267716535433071
          },
          {
            "duration": 0.08571419999998398,
            "durationTicks": 144,
            "midi": 48,
            "name": "C3",
            "ticks": 575760,
            "time": 342.71394300000003,
            "velocity": 0.8267716535433071
          },
          {
            "duration": 0.17142839999996795,
            "durationTicks": 288,
            "midi": 46,
            "name": "A#2",
            "ticks": 576000,
            "time": 342.8568,
            "velocity": 0.8267716535433071
          },
          {
            "duration": 0.1714284000000248,
            "durationTicks": 288,
            "midi": 49,
            "name": "C#3",
            "ticks": 576480,
            "time": 343.142514,
            "velocity": 0.8267716535433071
          },
          {
            "duration": 0.17142839999996795,
            "durationTicks": 288,
            "midi": 55,
            "name": "G3",
            "ticks": 576960,
            "time": 343.42822800000005,
            "velocity": 0.8267716535433071
          },
          {
            "duration": 0.17142839999996795,
            "durationTicks": 288,
            "midi": 44,
            "name": "G#2",
            "ticks": 577920,
            "time": 343.999656,
            "velocity": 0.8267716535433071
          },
          {
            "duration": 0.1714284000000248,
            "durationTicks": 288,
            "midi": 48,
            "name": "C3",
            "ticks": 578400,
            "time": 344.28537,
            "velocity": 0.8267716535433071
          },
          {
            "duration": 0.17142839999996795,
            "durationTicks": 288,
            "midi": 53,
            "name": "F3",
            "ticks": 578880,
            "time": 344.57108400000004,
            "velocity": 0.8267716535433071
          },
          {
            "duration": 0.08571419999998398,
            "durationTicks": 144,
            "midi": 44,
            "name": "G#2",
            "ticks": 579600,
            "time": 344.999655,
            "velocity": 0.8267716535433071
          },
          {
            "duration": 0.17142839999996795,
            "durationTicks": 288,
            "midi": 43,
            "name": "G2",
            "ticks": 579840,
            "time": 345.142512,
            "velocity": 0.8267716535433071
          },
          {
            "duration": 0.17142839999996795,
            "durationTicks": 288,
            "midi": 46,
            "name": "A#2",
            "ticks": 580320,
            "time": 345.42822600000005,
            "velocity": 0.8267716535433071
          },
          {
            "duration": 0.17142839999996795,
            "durationTicks": 288,
            "midi": 52,
            "name": "E3",
            "ticks": 580800,
            "time": 345.71394000000004,
            "velocity": 0.8267716535433071
          },
          {
            "duration": 0.08571419999998398,
            "durationTicks": 144,
            "midi": 43,
            "name": "G2",
            "ticks": 581520,
            "time": 346.142511,
            "velocity": 0.8267716535433071
          },
          {
            "duration": 0.1714284000000248,
            "durationTicks": 288,
            "midi": 41,
            "name": "F2",
            "ticks": 581760,
            "time": 346.285368,
            "velocity": 0.8267716535433071
          },
          {
            "duration": 0.17142839999996795,
            "durationTicks": 288,
            "midi": 44,
            "name": "G#2",
            "ticks": 582240,
            "time": 346.57108200000005,
            "velocity": 0.8267716535433071
          },
          {
            "duration": 0.17142839999996795,
            "durationTicks": 288,
            "midi": 48,
            "name": "C3",
            "ticks": 582720,
            "time": 346.85679600000003,
            "velocity": 0.8267716535433071
          },
          {
            "duration": 0.08571419999998398,
            "durationTicks": 144,
            "midi": 29,
            "name": "F1",
            "ticks": 583440,
            "time": 347.285367,
            "velocity": 0.8267716535433071
          },
          {
            "duration": 0.1714284000000248,
            "durationTicks": 288,
            "midi": 34,
            "name": "A#1",
            "ticks": 583680,
            "time": 347.428224,
            "velocity": 0.8267716535433071
          },
          {
            "duration": 0.17142839999996795,
            "durationTicks": 288,
            "midi": 38,
            "name": "D2",
            "ticks": 584160,
            "time": 347.71393800000004,
            "velocity": 0.8267716535433071
          },
          {
            "duration": 0.17142839999996795,
            "durationTicks": 288,
            "midi": 41,
            "name": "F2",
            "ticks": 584640,
            "time": 347.999652,
            "velocity": 0.8267716535433071
          },
          {
            "duration": 0.08571420000004082,
            "durationTicks": 144,
            "midi": 34,
            "name": "A#1",
            "ticks": 585360,
            "time": 348.428223,
            "velocity": 0.8267716535433071
          },
          {
            "duration": 0.17142839999996795,
            "durationTicks": 288,
            "midi": 39,
            "name": "D#2",
            "ticks": 585600,
            "time": 348.57108000000005,
            "velocity": 0.8267716535433071
          },
          {
            "duration": 0.17142839999996795,
            "durationTicks": 288,
            "midi": 43,
            "name": "G2",
            "ticks": 586080,
            "time": 348.85679400000004,
            "velocity": 0.8267716535433071
          },
          {
            "duration": 0.17142839999996795,
            "durationTicks": 288,
            "midi": 46,
            "name": "A#2",
            "ticks": 586560,
            "time": 349.142508,
            "velocity": 0.8267716535433071
          },
          {
            "duration": 0.08571419999998398,
            "durationTicks": 144,
            "midi": 27,
            "name": "D#1",
            "ticks": 587280,
            "time": 349.57107900000005,
            "velocity": 0.8267716535433071
          },
          {
            "duration": 0.17142839999996795,
            "durationTicks": 288,
            "midi": 32,
            "name": "G#1",
            "ticks": 587520,
            "time": 349.71393600000005,
            "velocity": 0.8267716535433071
          },
          {
            "duration": 0.17142839999996795,
            "durationTicks": 288,
            "midi": 36,
            "name": "C2",
            "ticks": 588000,
            "time": 349.99965000000003,
            "velocity": 0.8267716535433071
          },
          {
            "duration": 0.17142839999996795,
            "durationTicks": 288,
            "midi": 39,
            "name": "D#2",
            "ticks": 588480,
            "time": 350.285364,
            "velocity": 0.8267716535433071
          },
          {
            "duration": 0.08571419999998398,
            "durationTicks": 144,
            "midi": 32,
            "name": "G#1",
            "ticks": 589200,
            "time": 350.71393500000005,
            "velocity": 0.8267716535433071
          },
          {
            "duration": 0.17142839999996795,
            "durationTicks": 288,
            "midi": 38,
            "name": "D2",
            "ticks": 589440,
            "time": 350.85679200000004,
            "velocity": 0.8267716535433071
          },
          {
            "duration": 0.17142839999996795,
            "durationTicks": 288,
            "midi": 41,
            "name": "F2",
            "ticks": 589920,
            "time": 351.142506,
            "velocity": 0.8267716535433071
          },
          {
            "duration": 0.17142839999996795,
            "durationTicks": 288,
            "midi": 45,
            "name": "A2",
            "ticks": 590400,
            "time": 351.42822,
            "velocity": 0.8267716535433071
          },
          {
            "duration": 0.08571419999998398,
            "durationTicks": 144,
            "midi": 38,
            "name": "D2",
            "ticks": 591120,
            "time": 351.85679100000004,
            "velocity": 0.8267716535433071
          },
          {
            "duration": 0.17142839999996795,
            "durationTicks": 288,
            "midi": 43,
            "name": "G2",
            "ticks": 591360,
            "time": 351.99964800000004,
            "velocity": 0.8267716535433071
          },
          {
            "duration": 0.17142839999996795,
            "durationTicks": 288,
            "midi": 47,
            "name": "B2",
            "ticks": 591840,
            "time": 352.285362,
            "velocity": 0.8267716535433071
          },
          {
            "duration": 0.1714284000000248,
            "durationTicks": 288,
            "midi": 50,
            "name": "D3",
            "ticks": 592320,
            "time": 352.571076,
            "velocity": 0.8267716535433071
          },
          {
            "duration": 0.08571419999998398,
            "durationTicks": 144,
            "midi": 31,
            "name": "G1",
            "ticks": 593040,
            "time": 352.99964700000004,
            "velocity": 0.8267716535433071
          },
          {
            "duration": 0.17142839999996795,
            "durationTicks": 288,
            "midi": 36,
            "name": "C2",
            "ticks": 593280,
            "time": 353.14250400000003,
            "velocity": 0.8267716535433071
          },
          {
            "duration": 0.17142839999996795,
            "durationTicks": 288,
            "midi": 39,
            "name": "D#2",
            "ticks": 593760,
            "time": 353.428218,
            "velocity": 0.8267716535433071
          },
          {
            "duration": 0.17142839999996795,
            "durationTicks": 288,
            "midi": 45,
            "name": "A2",
            "ticks": 594240,
            "time": 353.71393200000006,
            "velocity": 0.8267716535433071
          },
          {
            "duration": 0.08571419999998398,
            "durationTicks": 144,
            "midi": 36,
            "name": "C2",
            "ticks": 594960,
            "time": 354.14250300000003,
            "velocity": 0.8267716535433071
          },
          {
            "duration": 0.17142839999996795,
            "durationTicks": 288,
            "midi": 38,
            "name": "D2",
            "ticks": 595200,
            "time": 354.28536,
            "velocity": 0.8267716535433071
          },
          {
            "duration": 0.17142839999996795,
            "durationTicks": 288,
            "midi": 42,
            "name": "F#2",
            "ticks": 595680,
            "time": 354.571074,
            "velocity": 0.8267716535433071
          },
          {
            "duration": 0.17142839999996795,
            "durationTicks": 288,
            "midi": 45,
            "name": "A2",
            "ticks": 596160,
            "time": 354.85678800000005,
            "velocity": 0.8267716535433071
          },
          {
            "duration": 0.11428560000001653,
            "durationTicks": 192,
            "midi": 43,
            "name": "G2",
            "ticks": 597120,
            "time": 355.428216,
            "velocity": 0.8267716535433071
          },
          {
            "duration": 0.11428560000001653,
            "durationTicks": 192,
            "midi": 46,
            "name": "A#2",
            "ticks": 597360,
            "time": 355.571073,
            "velocity": 0.8267716535433071
          },
          {
            "duration": 0.11428560000007337,
            "durationTicks": 192,
            "midi": 43,
            "name": "G2",
            "ticks": 597600,
            "time": 355.71393,
            "velocity": 0.8267716535433071
          },
          {
            "duration": 0.11428560000001653,
            "durationTicks": 192,
            "midi": 46,
            "name": "A#2",
            "ticks": 597840,
            "time": 355.85678700000005,
            "velocity": 0.8267716535433071
          },
          {
            "duration": 0.11428560000001653,
            "durationTicks": 192,
            "midi": 43,
            "name": "G2",
            "ticks": 598080,
            "time": 355.99964400000005,
            "velocity": 0.8267716535433071
          },
          {
            "duration": 0.11428560000001653,
            "durationTicks": 192,
            "midi": 46,
            "name": "A#2",
            "ticks": 598320,
            "time": 356.14250100000004,
            "velocity": 0.8267716535433071
          },
          {
            "duration": 0.11428560000001653,
            "durationTicks": 192,
            "midi": 43,
            "name": "G2",
            "ticks": 598560,
            "time": 356.28535800000003,
            "velocity": 0.8267716535433071
          },
          {
            "duration": 0.11428560000001653,
            "durationTicks": 192,
            "midi": 46,
            "name": "A#2",
            "ticks": 598800,
            "time": 356.428215,
            "velocity": 0.8267716535433071
          },
          {
            "duration": 0.11428560000001653,
            "durationTicks": 192,
            "midi": 41,
            "name": "F2",
            "ticks": 599040,
            "time": 356.571072,
            "velocity": 0.8267716535433071
          },
          {
            "duration": 0.11428560000007337,
            "durationTicks": 192,
            "midi": 45,
            "name": "A2",
            "ticks": 599280,
            "time": 356.713929,
            "velocity": 0.8267716535433071
          },
          {
            "duration": 0.11428560000001653,
            "durationTicks": 192,
            "midi": 41,
            "name": "F2",
            "ticks": 599520,
            "time": 356.85678600000006,
            "velocity": 0.8267716535433071
          },
          {
            "duration": 0.11428560000001653,
            "durationTicks": 192,
            "midi": 45,
            "name": "A2",
            "ticks": 599760,
            "time": 356.99964300000005,
            "velocity": 0.8267716535433071
          },
          {
            "duration": 0.11428560000001653,
            "durationTicks": 192,
            "midi": 41,
            "name": "F2",
            "ticks": 600000,
            "time": 357.14250000000004,
            "velocity": 0.8267716535433071
          },
          {
            "duration": 0.11428560000001653,
            "durationTicks": 192,
            "midi": 45,
            "name": "A2",
            "ticks": 600240,
            "time": 357.28535700000003,
            "velocity": 0.8267716535433071
          },
          {
            "duration": 0.11428560000001653,
            "durationTicks": 192,
            "midi": 41,
            "name": "F2",
            "ticks": 600480,
            "time": 357.428214,
            "velocity": 0.8267716535433071
          },
          {
            "duration": 0.11428560000001653,
            "durationTicks": 192,
            "midi": 45,
            "name": "A2",
            "ticks": 600720,
            "time": 357.571071,
            "velocity": 0.8267716535433071
          },
          {
            "duration": 0.11428560000007337,
            "durationTicks": 192,
            "midi": 39,
            "name": "D#2",
            "ticks": 600960,
            "time": 357.713928,
            "velocity": 0.8267716535433071
          },
          {
            "duration": 0.11428560000007337,
            "durationTicks": 192,
            "midi": 43,
            "name": "G2",
            "ticks": 601200,
            "time": 357.856785,
            "velocity": 0.8267716535433071
          },
          {
            "duration": 0.11428560000001653,
            "durationTicks": 192,
            "midi": 39,
            "name": "D#2",
            "ticks": 601440,
            "time": 357.99964200000005,
            "velocity": 0.8267716535433071
          },
          {
            "duration": 0.11428560000001653,
            "durationTicks": 192,
            "midi": 43,
            "name": "G2",
            "ticks": 601680,
            "time": 358.14249900000004,
            "velocity": 0.8267716535433071
          },
          {
            "duration": 0.11428560000001653,
            "durationTicks": 192,
            "midi": 39,
            "name": "D#2",
            "ticks": 601920,
            "time": 358.28535600000004,
            "velocity": 0.8267716535433071
          },
          {
            "duration": 0.11428560000001653,
            "durationTicks": 192,
            "midi": 43,
            "name": "G2",
            "ticks": 602160,
            "time": 358.428213,
            "velocity": 0.8267716535433071
          },
          {
            "duration": 0.11428560000001653,
            "durationTicks": 192,
            "midi": 39,
            "name": "D#2",
            "ticks": 602400,
            "time": 358.57107,
            "velocity": 0.8267716535433071
          },
          {
            "duration": 0.11428560000001653,
            "durationTicks": 192,
            "midi": 43,
            "name": "G2",
            "ticks": 602640,
            "time": 358.713927,
            "velocity": 0.8267716535433071
          },
          {
            "duration": 0.11428560000007337,
            "durationTicks": 192,
            "midi": 38,
            "name": "D2",
            "ticks": 602880,
            "time": 358.856784,
            "velocity": 0.8267716535433071
          },
          {
            "duration": 0.11428560000001653,
            "durationTicks": 192,
            "midi": 43,
            "name": "G2",
            "ticks": 603120,
            "time": 358.99964100000005,
            "velocity": 0.8267716535433071
          },
          {
            "duration": 0.11428560000001653,
            "durationTicks": 192,
            "midi": 38,
            "name": "D2",
            "ticks": 603360,
            "time": 359.14249800000005,
            "velocity": 0.8267716535433071
          },
          {
            "duration": 0.11428560000001653,
            "durationTicks": 192,
            "midi": 43,
            "name": "G2",
            "ticks": 603600,
            "time": 359.28535500000004,
            "velocity": 0.8267716535433071
          },
          {
            "duration": 0.11428560000001653,
            "durationTicks": 192,
            "midi": 38,
            "name": "D2",
            "ticks": 603840,
            "time": 359.42821200000003,
            "velocity": 0.8267716535433071
          },
          {
            "duration": 0.11428560000001653,
            "durationTicks": 192,
            "midi": 43,
            "name": "G2",
            "ticks": 604080,
            "time": 359.571069,
            "velocity": 0.8267716535433071
          },
          {
            "duration": 0.11428560000001653,
            "durationTicks": 192,
            "midi": 38,
            "name": "D2",
            "ticks": 604320,
            "time": 359.713926,
            "velocity": 0.8267716535433071
          },
          {
            "duration": 0.11428560000007337,
            "durationTicks": 192,
            "midi": 43,
            "name": "G2",
            "ticks": 604560,
            "time": 359.856783,
            "velocity": 0.8267716535433071
          },
          {
            "duration": 0.11428560000001653,
            "durationTicks": 192,
            "midi": 36,
            "name": "C2",
            "ticks": 604800,
            "time": 359.99964000000006,
            "velocity": 0.8267716535433071
          },
          {
            "duration": 0.11428560000001653,
            "durationTicks": 192,
            "midi": 39,
            "name": "D#2",
            "ticks": 605040,
            "time": 360.14249700000005,
            "velocity": 0.8267716535433071
          },
          {
            "duration": 0.11428560000001653,
            "durationTicks": 192,
            "midi": 36,
            "name": "C2",
            "ticks": 605280,
            "time": 360.28535400000004,
            "velocity": 0.8267716535433071
          },
          {
            "duration": 0.11428560000001653,
            "durationTicks": 192,
            "midi": 39,
            "name": "D#2",
            "ticks": 605520,
            "time": 360.42821100000003,
            "velocity": 0.8267716535433071
          },
          {
            "duration": 0.11428560000001653,
            "durationTicks": 192,
            "midi": 36,
            "name": "C2",
            "ticks": 605760,
            "time": 360.571068,
            "velocity": 0.8267716535433071
          },
          {
            "duration": 0.11428560000001653,
            "durationTicks": 192,
            "midi": 39,
            "name": "D#2",
            "ticks": 606000,
            "time": 360.713925,
            "velocity": 0.8267716535433071
          },
          {
            "duration": 0.11428560000007337,
            "durationTicks": 192,
            "midi": 36,
            "name": "C2",
            "ticks": 606240,
            "time": 360.856782,
            "velocity": 0.8267716535433071
          },
          {
            "duration": 0.11428560000007337,
            "durationTicks": 192,
            "midi": 39,
            "name": "D#2",
            "ticks": 606480,
            "time": 360.999639,
            "velocity": 0.8267716535433071
          },
          {
            "duration": 0.11428560000001653,
            "durationTicks": 192,
            "midi": 34,
            "name": "A#1",
            "ticks": 606720,
            "time": 361.14249600000005,
            "velocity": 0.8267716535433071
          },
          {
            "duration": 0.11428560000001653,
            "durationTicks": 192,
            "midi": 38,
            "name": "D2",
            "ticks": 606960,
            "time": 361.28535300000004,
            "velocity": 0.8267716535433071
          },
          {
            "duration": 0.11428560000001653,
            "durationTicks": 192,
            "midi": 34,
            "name": "A#1",
            "ticks": 607200,
            "time": 361.42821000000004,
            "velocity": 0.8267716535433071
          },
          {
            "duration": 0.11428560000001653,
            "durationTicks": 192,
            "midi": 38,
            "name": "D2",
            "ticks": 607440,
            "time": 361.571067,
            "velocity": 0.8267716535433071
          },
          {
            "duration": 0.11428560000001653,
            "durationTicks": 192,
            "midi": 34,
            "name": "A#1",
            "ticks": 607680,
            "time": 361.713924,
            "velocity": 0.8267716535433071
          },
          {
            "duration": 0.11428560000001653,
            "durationTicks": 192,
            "midi": 38,
            "name": "D2",
            "ticks": 607920,
            "time": 361.856781,
            "velocity": 0.8267716535433071
          },
          {
            "duration": 0.11428560000007337,
            "durationTicks": 192,
            "midi": 34,
            "name": "A#1",
            "ticks": 608160,
            "time": 361.999638,
            "velocity": 0.8267716535433071
          },
          {
            "duration": 0.11428560000001653,
            "durationTicks": 192,
            "midi": 38,
            "name": "D2",
            "ticks": 608400,
            "time": 362.14249500000005,
            "velocity": 0.8267716535433071
          },
          {
            "duration": 0.9142848000000185,
            "durationTicks": 1536,
            "midi": 33,
            "name": "A1",
            "ticks": 608640,
            "time": 362.28535200000005,
            "velocity": 0.984251968503937
          },
          {
            "duration": 0.45714239999995243,
            "durationTicks": 768,
            "midi": 33,
            "name": "A1",
            "ticks": 610560,
            "time": 363.42820800000004,
            "velocity": 0.984251968503937
          },
          {
            "duration": 0.4571424000000093,
            "durationTicks": 768,
            "midi": 34,
            "name": "A#1",
            "ticks": 611520,
            "time": 363.999636,
            "velocity": 0.984251968503937
          },
          {
            "duration": 0.45714239999995243,
            "durationTicks": 768,
            "midi": 33,
            "name": "A1",
            "ticks": 612480,
            "time": 364.57106400000004,
            "velocity": 0.984251968503937
          },
          {
            "duration": 0.4571424000000093,
            "durationTicks": 768,
            "midi": 34,
            "name": "A#1",
            "ticks": 613440,
            "time": 365.142492,
            "velocity": 0.984251968503937
          },
          {
            "duration": 0.45714239999995243,
            "durationTicks": 768,
            "midi": 33,
            "name": "A1",
            "ticks": 614400,
            "time": 365.71392000000003,
            "velocity": 0.984251968503937
          },
          {
            "duration": 0.11428560000001653,
            "durationTicks": 192,
            "midi": 33,
            "name": "A1",
            "ticks": 616080,
            "time": 366.71391900000003,
            "velocity": 0.8267716535433071
          },
          {
            "duration": 0.11428560000001653,
            "durationTicks": 192,
            "midi": 38,
            "name": "D2",
            "ticks": 616320,
            "time": 366.856776,
            "velocity": 0.8267716535433071
          },
          {
            "duration": 0.11428560000001653,
            "durationTicks": 192,
            "midi": 50,
            "name": "D3",
            "ticks": 616560,
            "time": 366.999633,
            "velocity": 0.8267716535433071
          },
          {
            "duration": 0.11428560000007337,
            "durationTicks": 192,
            "midi": 50,
            "name": "D3",
            "ticks": 616800,
            "time": 367.14249,
            "velocity": 0.8267716535433071
          },
          {
            "duration": 0.11428560000001653,
            "durationTicks": 192,
            "midi": 50,
            "name": "D3",
            "ticks": 617040,
            "time": 367.28534700000006,
            "velocity": 0.8267716535433071
          },
          {
            "duration": 0.11428560000001653,
            "durationTicks": 192,
            "midi": 50,
            "name": "D3",
            "ticks": 617280,
            "time": 367.42820400000005,
            "velocity": 0.8267716535433071
          },
          {
            "duration": 0.11428560000001653,
            "durationTicks": 192,
            "midi": 50,
            "name": "D3",
            "ticks": 617520,
            "time": 367.57106100000004,
            "velocity": 0.8267716535433071
          },
          {
            "duration": 0.11428560000001653,
            "durationTicks": 192,
            "midi": 50,
            "name": "D3",
            "ticks": 617760,
            "time": 367.71391800000004,
            "velocity": 0.8267716535433071
          },
          {
            "duration": 0.11428560000001653,
            "durationTicks": 192,
            "midi": 50,
            "name": "D3",
            "ticks": 618000,
            "time": 367.856775,
            "velocity": 0.8267716535433071
          },
          {
            "duration": 0.11428560000001653,
            "durationTicks": 192,
            "midi": 50,
            "name": "D3",
            "ticks": 618240,
            "time": 367.999632,
            "velocity": 0.8267716535433071
          },
          {
            "duration": 0.11428560000001653,
            "durationTicks": 192,
            "midi": 50,
            "name": "D3",
            "ticks": 618480,
            "time": 368.142489,
            "velocity": 0.8267716535433071
          },
          {
            "duration": 0.11428560000007337,
            "durationTicks": 192,
            "midi": 50,
            "name": "D3",
            "ticks": 618720,
            "time": 368.285346,
            "velocity": 0.8267716535433071
          },
          {
            "duration": 0.11428560000001653,
            "durationTicks": 192,
            "midi": 50,
            "name": "D3",
            "ticks": 618960,
            "time": 368.42820300000005,
            "velocity": 0.8267716535433071
          },
          {
            "duration": 0.11428560000001653,
            "durationTicks": 192,
            "midi": 50,
            "name": "D3",
            "ticks": 619200,
            "time": 368.57106000000005,
            "velocity": 0.8267716535433071
          },
          {
            "duration": 0.11428560000001653,
            "durationTicks": 192,
            "midi": 50,
            "name": "D3",
            "ticks": 619440,
            "time": 368.71391700000004,
            "velocity": 0.8267716535433071
          },
          {
            "duration": 0.11428560000001653,
            "durationTicks": 192,
            "midi": 50,
            "name": "D3",
            "ticks": 619680,
            "time": 368.85677400000003,
            "velocity": 0.8267716535433071
          },
          {
            "duration": 0.11428560000001653,
            "durationTicks": 192,
            "midi": 50,
            "name": "D3",
            "ticks": 619920,
            "time": 368.999631,
            "velocity": 0.8267716535433071
          },
          {
            "duration": 0.11428560000001653,
            "durationTicks": 192,
            "midi": 50,
            "name": "D3",
            "ticks": 620160,
            "time": 369.142488,
            "velocity": 0.8267716535433071
          },
          {
            "duration": 0.11428560000007337,
            "durationTicks": 192,
            "midi": 50,
            "name": "D3",
            "ticks": 620400,
            "time": 369.285345,
            "velocity": 0.8267716535433071
          },
          {
            "duration": 0.11428560000001653,
            "durationTicks": 192,
            "midi": 50,
            "name": "D3",
            "ticks": 620640,
            "time": 369.42820200000006,
            "velocity": 0.8267716535433071
          },
          {
            "duration": 0.11428560000001653,
            "durationTicks": 192,
            "midi": 50,
            "name": "D3",
            "ticks": 620880,
            "time": 369.57105900000005,
            "velocity": 0.8267716535433071
          },
          {
            "duration": 0.11428560000001653,
            "durationTicks": 192,
            "midi": 50,
            "name": "D3",
            "ticks": 621120,
            "time": 369.71391600000004,
            "velocity": 0.8267716535433071
          },
          {
            "duration": 0.11428560000001653,
            "durationTicks": 192,
            "midi": 50,
            "name": "D3",
            "ticks": 621360,
            "time": 369.85677300000003,
            "velocity": 0.8267716535433071
          },
          {
            "duration": 0.11428560000001653,
            "durationTicks": 192,
            "midi": 50,
            "name": "D3",
            "ticks": 621600,
            "time": 369.99963,
            "velocity": 0.8267716535433071
          },
          {
            "duration": 0.11428560000001653,
            "durationTicks": 192,
            "midi": 50,
            "name": "D3",
            "ticks": 621840,
            "time": 370.142487,
            "velocity": 0.8267716535433071
          },
          {
            "duration": 0.11428560000007337,
            "durationTicks": 192,
            "midi": 50,
            "name": "D3",
            "ticks": 622080,
            "time": 370.285344,
            "velocity": 0.8267716535433071
          },
          {
            "duration": 0.11428560000001653,
            "durationTicks": 192,
            "midi": 50,
            "name": "D3",
            "ticks": 622320,
            "time": 370.42820100000006,
            "velocity": 0.8267716535433071
          },
          {
            "duration": 0.11428560000001653,
            "durationTicks": 192,
            "midi": 50,
            "name": "D3",
            "ticks": 622560,
            "time": 370.57105800000005,
            "velocity": 0.8267716535433071
          },
          {
            "duration": 0.11428560000001653,
            "durationTicks": 192,
            "midi": 50,
            "name": "D3",
            "ticks": 622800,
            "time": 370.71391500000004,
            "velocity": 0.8267716535433071
          },
          {
            "duration": 0.11428560000001653,
            "durationTicks": 192,
            "midi": 50,
            "name": "D3",
            "ticks": 623040,
            "time": 370.85677200000003,
            "velocity": 0.8267716535433071
          },
          {
            "duration": 0.11428560000001653,
            "durationTicks": 192,
            "midi": 50,
            "name": "D3",
            "ticks": 623280,
            "time": 370.999629,
            "velocity": 0.8267716535433071
          },
          {
            "duration": 0.11428560000001653,
            "durationTicks": 192,
            "midi": 50,
            "name": "D3",
            "ticks": 623520,
            "time": 371.142486,
            "velocity": 0.8267716535433071
          },
          {
            "duration": 0.11428560000001653,
            "durationTicks": 192,
            "midi": 50,
            "name": "D3",
            "ticks": 623760,
            "time": 371.285343,
            "velocity": 0.8267716535433071
          },
          {
            "duration": 0.22857120000003306,
            "durationTicks": 384,
            "midi": 50,
            "name": "D3",
            "ticks": 624000,
            "time": 371.4282,
            "velocity": 0.8267716535433071
          },
          {
            "duration": 0.22857119999997622,
            "durationTicks": 384,
            "midi": 38,
            "name": "D2",
            "ticks": 624960,
            "time": 371.99962800000003,
            "velocity": 0.7244094488188977
          },
          {
            "duration": 0.8571419999999534,
            "durationTicks": 1440,
            "midi": 46,
            "name": "A#2",
            "ticks": 627840,
            "time": 373.71391200000005,
            "velocity": 0.4566929133858268
          },
          {
            "duration": 0.2857140000000413,
            "durationTicks": 480,
            "midi": 45,
            "name": "A2",
            "ticks": 629280,
            "time": 374.571054,
            "velocity": 0.4566929133858268
          },
          {
            "duration": 0.22857119999997622,
            "durationTicks": 384,
            "midi": 38,
            "name": "D2",
            "ticks": 629760,
            "time": 374.85676800000005,
            "velocity": 0.4566929133858268
          },
          {
            "duration": 0.2857139999999845,
            "durationTicks": 480,
            "midi": 41,
            "name": "F2",
            "ticks": 632160,
            "time": 376.285338,
            "velocity": 0.4566929133858268
          },
          {
            "duration": 0.2857140000000413,
            "durationTicks": 480,
            "midi": 40,
            "name": "E2",
            "ticks": 632640,
            "time": 376.571052,
            "velocity": 0.4566929133858268
          },
          {
            "duration": 0.2857139999999845,
            "durationTicks": 480,
            "midi": 39,
            "name": "D#2",
            "ticks": 633120,
            "time": 376.85676600000005,
            "velocity": 0.4566929133858268
          },
          {
            "duration": 0.45714239999995243,
            "durationTicks": 768,
            "midi": 38,
            "name": "D2",
            "ticks": 633600,
            "time": 377.14248000000003,
            "velocity": 0.4566929133858268
          },
          {
            "duration": 0.8571420000000103,
            "durationTicks": 1440,
            "midi": 36,
            "name": "C2",
            "ticks": 635520,
            "time": 378.28533600000003,
            "velocity": 0.4566929133858268
          },
          {
            "duration": 0.22857119999997622,
            "durationTicks": 384,
            "midi": 34,
            "name": "A#1",
            "ticks": 636960,
            "time": 379.14247800000004,
            "velocity": 0.4566929133858268
          },
          {
            "duration": 0.2857139999999845,
            "durationTicks": 480,
            "midi": 33,
            "name": "A1",
            "ticks": 637440,
            "time": 379.428192,
            "velocity": 0.4566929133858268
          },
          {
            "duration": 0.2857140000000413,
            "durationTicks": 480,
            "midi": 38,
            "name": "D2",
            "ticks": 637920,
            "time": 379.713906,
            "velocity": 0.4566929133858268
          },
          {
            "duration": 0.2857139999999845,
            "durationTicks": 480,
            "midi": 31,
            "name": "G1",
            "ticks": 638400,
            "time": 379.99962000000005,
            "velocity": 0.4566929133858268
          },
          {
            "duration": 0.22857119999997622,
            "durationTicks": 384,
            "midi": 39,
            "name": "D#2",
            "ticks": 638880,
            "time": 380.28533400000003,
            "velocity": 0.4566929133858268
          },
          {
            "duration": 0.22857119999997622,
            "durationTicks": 384,
            "midi": 36,
            "name": "C2",
            "ticks": 639360,
            "time": 380.571048,
            "velocity": 0.4566929133858268
          },
          {
            "duration": 0.22857119999997622,
            "durationTicks": 384,
            "midi": 38,
            "name": "D2",
            "ticks": 640320,
            "time": 381.14247600000004,
            "velocity": 0.4566929133858268
          },
          {
            "duration": 0.22857120000003306,
            "durationTicks": 384,
            "midi": 31,
            "name": "G1",
            "ticks": 641280,
            "time": 381.713904,
            "velocity": 0.4566929133858268
          },
          {
            "duration": 0.8571420000000103,
            "durationTicks": 1440,
            "midi": 48,
            "name": "C3",
            "ticks": 650880,
            "time": 387.42818400000004,
            "velocity": 0.4566929133858268
          },
          {
            "duration": 0.22857119999997622,
            "durationTicks": 384,
            "midi": 46,
            "name": "A#2",
            "ticks": 652320,
            "time": 388.28532600000005,
            "velocity": 0.4566929133858268
          },
          {
            "duration": 0.2857139999999845,
            "durationTicks": 480,
            "midi": 45,
            "name": "A2",
            "ticks": 652800,
            "time": 388.57104000000004,
            "velocity": 0.4566929133858268
          },
          {
            "duration": 0.2857139999999845,
            "durationTicks": 480,
            "midi": 38,
            "name": "D2",
            "ticks": 653280,
            "time": 388.856754,
            "velocity": 0.4566929133858268
          },
          {
            "duration": 0.2857140000000413,
            "durationTicks": 480,
            "midi": 43,
            "name": "G2",
            "ticks": 653760,
            "time": 389.142468,
            "velocity": 0.4566929133858268
          },
          {
            "duration": 0.22857119999997622,
            "durationTicks": 384,
            "midi": 39,
            "name": "D#2",
            "ticks": 654240,
            "time": 389.42818200000005,
            "velocity": 0.4566929133858268
          },
          {
            "duration": 4.514281199999971,
            "durationTicks": 7584,
            "midi": 34,
            "name": "A#1",
            "ticks": 654720,
            "time": 389.71389600000003,
            "velocity": 0.4566929133858268
          },
          {
            "duration": 0.11428560000007337,
            "durationTicks": 192,
            "midi": 34,
            "name": "A#1",
            "ticks": 662400,
            "time": 394.28532,
            "velocity": 0.5511811023622047
          },
          {
            "duration": 0.11428560000007337,
            "durationTicks": 192,
            "midi": 46,
            "name": "A#2",
            "ticks": 662640,
            "time": 394.428177,
            "velocity": 0.5511811023622047
          },
          {
            "duration": 0.11428560000001653,
            "durationTicks": 192,
            "midi": 46,
            "name": "A#2",
            "ticks": 662880,
            "time": 394.57103400000005,
            "velocity": 0.5669291338582677
          },
          {
            "duration": 0.11428560000001653,
            "durationTicks": 192,
            "midi": 46,
            "name": "A#2",
            "ticks": 663120,
            "time": 394.71389100000005,
            "velocity": 0.5905511811023622
          },
          {
            "duration": 0.11428560000001653,
            "durationTicks": 192,
            "midi": 46,
            "name": "A#2",
            "ticks": 663360,
            "time": 394.85674800000004,
            "velocity": 0.6141732283464567
          },
          {
            "duration": 0.11428560000001653,
            "durationTicks": 192,
            "midi": 46,
            "name": "A#2",
            "ticks": 663600,
            "time": 394.99960500000003,
            "velocity": 0.6299212598425197
          },
          {
            "duration": 0.11428560000001653,
            "durationTicks": 192,
            "midi": 46,
            "name": "A#2",
            "ticks": 663840,
            "time": 395.142462,
            "velocity": 0.6535433070866141
          },
          {
            "duration": 0.11428560000001653,
            "durationTicks": 192,
            "midi": 46,
            "name": "A#2",
            "ticks": 664080,
            "time": 395.285319,
            "velocity": 0.6771653543307087
          },
          {
            "duration": 0.11428560000007337,
            "durationTicks": 192,
            "midi": 47,
            "name": "B2",
            "ticks": 664320,
            "time": 395.428176,
            "velocity": 0.6929133858267716
          },
          {
            "duration": 0.11428560000001653,
            "durationTicks": 192,
            "midi": 47,
            "name": "B2",
            "ticks": 664560,
            "time": 395.57103300000006,
            "velocity": 0.7165354330708661
          },
          {
            "duration": 0.11428560000001653,
            "durationTicks": 192,
            "midi": 47,
            "name": "B2",
            "ticks": 664800,
            "time": 395.71389000000005,
            "velocity": 0.7401574803149606
          },
          {
            "duration": 0.11428560000001653,
            "durationTicks": 192,
            "midi": 47,
            "name": "B2",
            "ticks": 665040,
            "time": 395.85674700000004,
            "velocity": 0.7559055118110236
          },
          {
            "duration": 0.11428560000001653,
            "durationTicks": 192,
            "midi": 47,
            "name": "B2",
            "ticks": 665280,
            "time": 395.99960400000003,
            "velocity": 0.7795275590551181
          },
          {
            "duration": 0.11428560000001653,
            "durationTicks": 192,
            "midi": 47,
            "name": "B2",
            "ticks": 665520,
            "time": 396.142461,
            "velocity": 0.8031496062992126
          },
          {
            "duration": 0.11428560000001653,
            "durationTicks": 192,
            "midi": 47,
            "name": "B2",
            "ticks": 665760,
            "time": 396.285318,
            "velocity": 0.8267716535433071
          },
          {
            "duration": 0.11428560000007337,
            "durationTicks": 192,
            "midi": 47,
            "name": "B2",
            "ticks": 666000,
            "time": 396.428175,
            "velocity": 0.8267716535433071
          },
          {
            "duration": 0.11428560000001653,
            "durationTicks": 192,
            "midi": 48,
            "name": "C3",
            "ticks": 666240,
            "time": 396.57103200000006,
            "velocity": 0.8346456692913385
          },
          {
            "duration": 0.11428560000001653,
            "durationTicks": 192,
            "midi": 48,
            "name": "C3",
            "ticks": 666480,
            "time": 396.71388900000005,
            "velocity": 0.8267716535433071
          },
          {
            "duration": 0.11428560000001653,
            "durationTicks": 192,
            "midi": 48,
            "name": "C3",
            "ticks": 666720,
            "time": 396.85674600000004,
            "velocity": 0.8267716535433071
          },
          {
            "duration": 0.11428560000001653,
            "durationTicks": 192,
            "midi": 48,
            "name": "C3",
            "ticks": 666960,
            "time": 396.99960300000004,
            "velocity": 0.8267716535433071
          },
          {
            "duration": 0.11428560000001653,
            "durationTicks": 192,
            "midi": 48,
            "name": "C3",
            "ticks": 667200,
            "time": 397.14246,
            "velocity": 0.8267716535433071
          },
          {
            "duration": 0.11428560000001653,
            "durationTicks": 192,
            "midi": 48,
            "name": "C3",
            "ticks": 667440,
            "time": 397.285317,
            "velocity": 0.8267716535433071
          },
          {
            "duration": 0.11428560000007337,
            "durationTicks": 192,
            "midi": 48,
            "name": "C3",
            "ticks": 667680,
            "time": 397.428174,
            "velocity": 0.8267716535433071
          },
          {
            "duration": 0.11428560000007337,
            "durationTicks": 192,
            "midi": 48,
            "name": "C3",
            "ticks": 667920,
            "time": 397.571031,
            "velocity": 0.8267716535433071
          },
          {
            "duration": 0.11428560000001653,
            "durationTicks": 192,
            "midi": 49,
            "name": "C#3",
            "ticks": 668160,
            "time": 397.71388800000005,
            "velocity": 0.8267716535433071
          },
          {
            "duration": 0.11428560000001653,
            "durationTicks": 192,
            "midi": 49,
            "name": "C#3",
            "ticks": 668400,
            "time": 397.85674500000005,
            "velocity": 0.8267716535433071
          },
          {
            "duration": 0.11428560000001653,
            "durationTicks": 192,
            "midi": 49,
            "name": "C#3",
            "ticks": 668640,
            "time": 397.99960200000004,
            "velocity": 0.8267716535433071
          },
          {
            "duration": 0.11428560000001653,
            "durationTicks": 192,
            "midi": 49,
            "name": "C#3",
            "ticks": 668880,
            "time": 398.14245900000003,
            "velocity": 0.8267716535433071
          },
          {
            "duration": 0.11428560000001653,
            "durationTicks": 192,
            "midi": 49,
            "name": "C#3",
            "ticks": 669120,
            "time": 398.285316,
            "velocity": 0.8267716535433071
          },
          {
            "duration": 0.11428560000001653,
            "durationTicks": 192,
            "midi": 49,
            "name": "C#3",
            "ticks": 669360,
            "time": 398.428173,
            "velocity": 0.8267716535433071
          },
          {
            "duration": 0.11428560000007337,
            "durationTicks": 192,
            "midi": 49,
            "name": "C#3",
            "ticks": 669600,
            "time": 398.57103,
            "velocity": 0.8267716535433071
          },
          {
            "duration": 0.11428560000001653,
            "durationTicks": 192,
            "midi": 49,
            "name": "C#3",
            "ticks": 669840,
            "time": 398.71388700000006,
            "velocity": 0.8267716535433071
          },
          {
            "duration": 0.11428560000001653,
            "durationTicks": 192,
            "midi": 50,
            "name": "D3",
            "ticks": 670080,
            "time": 398.85674400000005,
            "velocity": 0.8267716535433071
          },
          {
            "duration": 0.11428560000001653,
            "durationTicks": 192,
            "midi": 50,
            "name": "D3",
            "ticks": 670320,
            "time": 398.99960100000004,
            "velocity": 0.8267716535433071
          },
          {
            "duration": 0.11428560000001653,
            "durationTicks": 192,
            "midi": 50,
            "name": "D3",
            "ticks": 670560,
            "time": 399.14245800000003,
            "velocity": 0.8267716535433071
          },
          {
            "duration": 0.11428560000001653,
            "durationTicks": 192,
            "midi": 50,
            "name": "D3",
            "ticks": 670800,
            "time": 399.285315,
            "velocity": 0.8267716535433071
          },
          {
            "duration": 0.11428560000001653,
            "durationTicks": 192,
            "midi": 50,
            "name": "D3",
            "ticks": 671040,
            "time": 399.428172,
            "velocity": 0.8267716535433071
          },
          {
            "duration": 0.11428560000007337,
            "durationTicks": 192,
            "midi": 50,
            "name": "D3",
            "ticks": 671280,
            "time": 399.571029,
            "velocity": 0.8267716535433071
          },
          {
            "duration": 0.11428560000001653,
            "durationTicks": 192,
            "midi": 50,
            "name": "D3",
            "ticks": 671520,
            "time": 399.71388600000006,
            "velocity": 0.8267716535433071
          },
          {
            "duration": 0.11428560000001653,
            "durationTicks": 192,
            "midi": 50,
            "name": "D3",
            "ticks": 671760,
            "time": 399.85674300000005,
            "velocity": 0.8267716535433071
          },
          {
            "duration": 0.11428560000001653,
            "durationTicks": 192,
            "midi": 51,
            "name": "D#3",
            "ticks": 672000,
            "time": 399.99960000000004,
            "velocity": 0.8267716535433071
          },
          {
            "duration": 0.11428560000001653,
            "durationTicks": 192,
            "midi": 51,
            "name": "D#3",
            "ticks": 672240,
            "time": 400.14245700000004,
            "velocity": 0.8267716535433071
          },
          {
            "duration": 0.11428560000001653,
            "durationTicks": 192,
            "midi": 51,
            "name": "D#3",
            "ticks": 672480,
            "time": 400.285314,
            "velocity": 0.8267716535433071
          },
          {
            "duration": 0.11428560000001653,
            "durationTicks": 192,
            "midi": 51,
            "name": "D#3",
            "ticks": 672720,
            "time": 400.428171,
            "velocity": 0.8267716535433071
          },
          {
            "duration": 0.11428560000007337,
            "durationTicks": 192,
            "midi": 51,
            "name": "D#3",
            "ticks": 672960,
            "time": 400.571028,
            "velocity": 0.8267716535433071
          },
          {
            "duration": 0.11428560000007337,
            "durationTicks": 192,
            "midi": 51,
            "name": "D#3",
            "ticks": 673200,
            "time": 400.713885,
            "velocity": 0.8267716535433071
          },
          {
            "duration": 0.11428560000001653,
            "durationTicks": 192,
            "midi": 51,
            "name": "D#3",
            "ticks": 673440,
            "time": 400.85674200000005,
            "velocity": 0.8267716535433071
          },
          {
            "duration": 0.11428560000001653,
            "durationTicks": 192,
            "midi": 51,
            "name": "D#3",
            "ticks": 673680,
            "time": 400.99959900000005,
            "velocity": 0.8267716535433071
          },
          {
            "duration": 0.11428560000001653,
            "durationTicks": 192,
            "midi": 52,
            "name": "E3",
            "ticks": 673920,
            "time": 401.14245600000004,
            "velocity": 0.8267716535433071
          },
          {
            "duration": 0.11428560000001653,
            "durationTicks": 192,
            "midi": 52,
            "name": "E3",
            "ticks": 674160,
            "time": 401.28531300000003,
            "velocity": 0.8267716535433071
          },
          {
            "duration": 0.11428560000001653,
            "durationTicks": 192,
            "midi": 52,
            "name": "E3",
            "ticks": 674400,
            "time": 401.42817,
            "velocity": 0.8267716535433071
          },
          {
            "duration": 0.11428560000001653,
            "durationTicks": 192,
            "midi": 52,
            "name": "E3",
            "ticks": 674640,
            "time": 401.571027,
            "velocity": 0.8267716535433071
          },
          {
            "duration": 0.11428560000007337,
            "durationTicks": 192,
            "midi": 52,
            "name": "E3",
            "ticks": 674880,
            "time": 401.713884,
            "velocity": 0.8267716535433071
          },
          {
            "duration": 0.11428560000001653,
            "durationTicks": 192,
            "midi": 52,
            "name": "E3",
            "ticks": 675120,
            "time": 401.85674100000006,
            "velocity": 0.8267716535433071
          },
          {
            "duration": 0.11428560000001653,
            "durationTicks": 192,
            "midi": 52,
            "name": "E3",
            "ticks": 675360,
            "time": 401.99959800000005,
            "velocity": 0.8267716535433071
          },
          {
            "duration": 0.11428560000001653,
            "durationTicks": 192,
            "midi": 52,
            "name": "E3",
            "ticks": 675600,
            "time": 402.14245500000004,
            "velocity": 0.8267716535433071
          },
          {
            "duration": 0.11428560000001653,
            "durationTicks": 192,
            "midi": 50,
            "name": "D3",
            "ticks": 675840,
            "time": 402.28531200000003,
            "velocity": 0.8267716535433071
          },
          {
            "duration": 0.11428560000001653,
            "durationTicks": 192,
            "midi": 50,
            "name": "D3",
            "ticks": 676080,
            "time": 402.428169,
            "velocity": 0.8267716535433071
          },
          {
            "duration": 0.11428560000001653,
            "durationTicks": 192,
            "midi": 50,
            "name": "D3",
            "ticks": 676320,
            "time": 402.571026,
            "velocity": 0.8267716535433071
          },
          {
            "duration": 0.11428560000007337,
            "durationTicks": 192,
            "midi": 50,
            "name": "D3",
            "ticks": 676560,
            "time": 402.713883,
            "velocity": 0.8267716535433071
          },
          {
            "duration": 0.11428560000001653,
            "durationTicks": 192,
            "midi": 50,
            "name": "D3",
            "ticks": 676800,
            "time": 402.85674000000006,
            "velocity": 0.8267716535433071
          },
          {
            "duration": 0.11428560000001653,
            "durationTicks": 192,
            "midi": 50,
            "name": "D3",
            "ticks": 677040,
            "time": 402.99959700000005,
            "velocity": 0.8267716535433071
          },
          {
            "duration": 0.11428560000001653,
            "durationTicks": 192,
            "midi": 50,
            "name": "D3",
            "ticks": 677280,
            "time": 403.14245400000004,
            "velocity": 0.8267716535433071
          },
          {
            "duration": 0.11428560000001653,
            "durationTicks": 192,
            "midi": 50,
            "name": "D3",
            "ticks": 677520,
            "time": 403.28531100000004,
            "velocity": 0.8267716535433071
          },
          {
            "duration": 0.11428560000001653,
            "durationTicks": 192,
            "midi": 38,
            "name": "D2",
            "ticks": 677760,
            "time": 403.428168,
            "velocity": 0.8267716535433071
          },
          {
            "duration": 0.11428560000001653,
            "durationTicks": 192,
            "midi": 38,
            "name": "D2",
            "ticks": 678000,
            "time": 403.571025,
            "velocity": 0.8267716535433071
          },
          {
            "duration": 0.11428560000007337,
            "durationTicks": 192,
            "midi": 38,
            "name": "D2",
            "ticks": 678240,
            "time": 403.713882,
            "velocity": 0.8267716535433071
          },
          {
            "duration": 0.11428560000001653,
            "durationTicks": 192,
            "midi": 38,
            "name": "D2",
            "ticks": 678480,
            "time": 403.85673900000006,
            "velocity": 0.8267716535433071
          },
          {
            "duration": 0.11428560000001653,
            "durationTicks": 192,
            "midi": 38,
            "name": "D2",
            "ticks": 678720,
            "time": 403.99959600000005,
            "velocity": 0.8267716535433071
          },
          {
            "duration": 0.11428560000001653,
            "durationTicks": 192,
            "midi": 38,
            "name": "D2",
            "ticks": 678960,
            "time": 404.14245300000005,
            "velocity": 0.8267716535433071
          },
          {
            "duration": 0.11428560000001653,
            "durationTicks": 192,
            "midi": 38,
            "name": "D2",
            "ticks": 679200,
            "time": 404.28531000000004,
            "velocity": 0.8267716535433071
          },
          {
            "duration": 0.11428560000001653,
            "durationTicks": 192,
            "midi": 38,
            "name": "D2",
            "ticks": 679440,
            "time": 404.42816700000003,
            "velocity": 0.8267716535433071
          },
          {
            "duration": 0.22857119999997622,
            "durationTicks": 384,
            "midi": 43,
            "name": "G2",
            "ticks": 679680,
            "time": 404.571024,
            "velocity": 0.7244094488188977
          },
          {
            "duration": 0.4571424000000093,
            "durationTicks": 768,
            "midi": 34,
            "name": "A#1",
            "ticks": 680160,
            "time": 404.856738,
            "velocity": 0.984251968503937
          },
          {
            "duration": 0.17142839999996795,
            "durationTicks": 288,
            "midi": 36,
            "name": "C2",
            "ticks": 681120,
            "time": 405.42816600000003,
            "velocity": 0.8267716535433071
          },
          {
            "duration": 0.17142839999996795,
            "durationTicks": 288,
            "midi": 37,
            "name": "C#2",
            "ticks": 681600,
            "time": 405.71388,
            "velocity": 0.8267716535433071
          },
          {
            "duration": 0.17142839999996795,
            "durationTicks": 288,
            "midi": 38,
            "name": "D2",
            "ticks": 682080,
            "time": 405.99959400000006,
            "velocity": 0.8267716535433071
          },
          {
            "duration": 0.17142839999996795,
            "durationTicks": 288,
            "midi": 39,
            "name": "D#2",
            "ticks": 682560,
            "time": 406.28530800000004,
            "velocity": 0.8267716535433071
          },
          {
            "duration": 0.17142839999996795,
            "durationTicks": 288,
            "midi": 40,
            "name": "E2",
            "ticks": 683040,
            "time": 406.571022,
            "velocity": 0.8267716535433071
          },
          {
            "duration": 0.22857120000003306,
            "durationTicks": 384,
            "midi": 41,
            "name": "F2",
            "ticks": 683520,
            "time": 406.856736,
            "velocity": 0.8267716535433071
          },
          {
            "duration": 0.057142800000008265,
            "durationTicks": 96,
            "midi": 41,
            "name": "F2",
            "ticks": 684360,
            "time": 407.3567355,
            "velocity": 0.8267716535433071
          },
          {
            "duration": 0.22857119999997622,
            "durationTicks": 384,
            "midi": 39,
            "name": "D#2",
            "ticks": 684480,
            "time": 407.42816400000004,
            "velocity": 0.8267716535433071
          },
          {
            "duration": 0.057142800000008265,
            "durationTicks": 96,
            "midi": 39,
            "name": "D#2",
            "ticks": 685320,
            "time": 407.92816350000004,
            "velocity": 0.8267716535433071
          },
          {
            "duration": 0.22857120000003306,
            "durationTicks": 384,
            "midi": 48,
            "name": "C3",
            "ticks": 685440,
            "time": 407.999592,
            "velocity": 0.8267716535433071
          },
          {
            "duration": 0.05714280000006511,
            "durationTicks": 96,
            "midi": 48,
            "name": "C3",
            "ticks": 686280,
            "time": 408.4995915,
            "velocity": 0.8267716535433071
          },
          {
            "duration": 0.22857119999997622,
            "durationTicks": 384,
            "midi": 46,
            "name": "A#2",
            "ticks": 686400,
            "time": 408.57102000000003,
            "velocity": 0.8267716535433071
          },
          {
            "duration": 0.057142800000008265,
            "durationTicks": 96,
            "midi": 46,
            "name": "A#2",
            "ticks": 687240,
            "time": 409.07101950000003,
            "velocity": 0.8267716535433071
          },
          {
            "duration": 0.22857119999997622,
            "durationTicks": 384,
            "midi": 36,
            "name": "C2",
            "ticks": 687360,
            "time": 409.14244800000006,
            "velocity": 0.8267716535433071
          },
          {
            "duration": 0.22857119999997622,
            "durationTicks": 384,
            "midi": 38,
            "name": "D2",
            "ticks": 689280,
            "time": 410.28530400000005,
            "velocity": 0.5511811023622047
          },
          {
            "duration": 1.1428559999999948,
            "durationTicks": 1920,
            "midi": 48,
            "name": "C3",
            "ticks": 694080,
            "time": 413.142444,
            "velocity": 0.4566929133858268
          },
          {
            "duration": 0.22857120000003306,
            "durationTicks": 384,
            "midi": 46,
            "name": "A#2",
            "ticks": 696000,
            "time": 414.2853,
            "velocity": 0.4566929133858268
          },
          {
            "duration": 1.1428559999999948,
            "durationTicks": 1920,
            "midi": 36,
            "name": "C2",
            "ticks": 697920,
            "time": 415.42815600000006,
            "velocity": 0.4566929133858268
          },
          {
            "duration": 0.22857119999997622,
            "durationTicks": 384,
            "midi": 34,
            "name": "A#1",
            "ticks": 699840,
            "time": 416.57101200000005,
            "velocity": 0.4566929133858268
          },
          {
            "duration": 0.11428560000001653,
            "durationTicks": 192,
            "midi": 43,
            "name": "G2",
            "ticks": 700800,
            "time": 417.14244,
            "velocity": 0.8267716535433071
          },
          {
            "duration": 0.11428560000007337,
            "durationTicks": 192,
            "midi": 43,
            "name": "G2",
            "ticks": 701040,
            "time": 417.285297,
            "velocity": 0.8267716535433071
          },
          {
            "duration": 0.11428560000007337,
            "durationTicks": 192,
            "midi": 43,
            "name": "G2",
            "ticks": 701280,
            "time": 417.428154,
            "velocity": 0.8267716535433071
          },
          {
            "duration": 0.11428560000001653,
            "durationTicks": 192,
            "midi": 43,
            "name": "G2",
            "ticks": 701520,
            "time": 417.57101100000006,
            "velocity": 0.8267716535433071
          },
          {
            "duration": 0.11428560000001653,
            "durationTicks": 192,
            "midi": 43,
            "name": "G2",
            "ticks": 701760,
            "time": 417.71386800000005,
            "velocity": 0.8267716535433071
          },
          {
            "duration": 0.11428560000001653,
            "durationTicks": 192,
            "midi": 43,
            "name": "G2",
            "ticks": 702000,
            "time": 417.85672500000004,
            "velocity": 0.8267716535433071
          },
          {
            "duration": 0.11428560000001653,
            "durationTicks": 192,
            "midi": 43,
            "name": "G2",
            "ticks": 702240,
            "time": 417.99958200000003,
            "velocity": 0.8267716535433071
          },
          {
            "duration": 0.11428560000001653,
            "durationTicks": 192,
            "midi": 43,
            "name": "G2",
            "ticks": 702480,
            "time": 418.142439,
            "velocity": 0.8267716535433071
          },
          {
            "duration": 0.1285713000000328,
            "durationTicks": 216,
            "midi": 48,
            "name": "C3",
            "ticks": 702720,
            "time": 418.285296,
            "velocity": 0.8267716535433071
          },
          {
            "duration": 0.1285713000000328,
            "durationTicks": 216,
            "midi": 48,
            "name": "C3",
            "ticks": 702960,
            "time": 418.428153,
            "velocity": 0.8267716535433071
          },
          {
            "duration": 0.12857129999997596,
            "durationTicks": 216,
            "midi": 48,
            "name": "C3",
            "ticks": 703200,
            "time": 418.57101000000006,
            "velocity": 0.8267716535433071
          },
          {
            "duration": 0.12857129999997596,
            "durationTicks": 216,
            "midi": 48,
            "name": "C3",
            "ticks": 703440,
            "time": 418.71386700000005,
            "velocity": 0.8267716535433071
          },
          {
            "duration": 0.1285713000000328,
            "durationTicks": 216,
            "midi": 48,
            "name": "C3",
            "ticks": 703680,
            "time": 418.85672400000004,
            "velocity": 0.8267716535433071
          },
          {
            "duration": 0.1285713000000328,
            "durationTicks": 216,
            "midi": 48,
            "name": "C3",
            "ticks": 703920,
            "time": 418.99958100000003,
            "velocity": 0.8267716535433071
          },
          {
            "duration": 0.1285713000000328,
            "durationTicks": 216,
            "midi": 48,
            "name": "C3",
            "ticks": 704160,
            "time": 419.142438,
            "velocity": 0.8267716535433071
          },
          {
            "duration": 0.1285713000000328,
            "durationTicks": 216,
            "midi": 48,
            "name": "C3",
            "ticks": 704400,
            "time": 419.285295,
            "velocity": 0.8267716535433071
          },
          {
            "duration": 0.11428560000007337,
            "durationTicks": 192,
            "midi": 50,
            "name": "D3",
            "ticks": 704640,
            "time": 419.428152,
            "velocity": 0.8267716535433071
          },
          {
            "duration": 0.11428560000001653,
            "durationTicks": 192,
            "midi": 50,
            "name": "D3",
            "ticks": 704880,
            "time": 419.57100900000006,
            "velocity": 0.8267716535433071
          },
          {
            "duration": 0.11428560000001653,
            "durationTicks": 192,
            "midi": 50,
            "name": "D3",
            "ticks": 705120,
            "time": 419.71386600000005,
            "velocity": 0.8267716535433071
          },
          {
            "duration": 0.11428560000001653,
            "durationTicks": 192,
            "midi": 50,
            "name": "D3",
            "ticks": 705360,
            "time": 419.85672300000004,
            "velocity": 0.8267716535433071
          },
          {
            "duration": 0.11428560000001653,
            "durationTicks": 192,
            "midi": 38,
            "name": "D2",
            "ticks": 705600,
            "time": 419.99958000000004,
            "velocity": 0.8267716535433071
          },
          {
            "duration": 0.11428560000001653,
            "durationTicks": 192,
            "midi": 38,
            "name": "D2",
            "ticks": 705840,
            "time": 420.14243700000003,
            "velocity": 0.8267716535433071
          },
          {
            "duration": 0.11428560000001653,
            "durationTicks": 192,
            "midi": 38,
            "name": "D2",
            "ticks": 706080,
            "time": 420.285294,
            "velocity": 0.8267716535433071
          },
          {
            "duration": 0.11428560000007337,
            "durationTicks": 192,
            "midi": 38,
            "name": "D2",
            "ticks": 706320,
            "time": 420.428151,
            "velocity": 0.8267716535433071
          },
          {
            "duration": 0.22857120000003306,
            "durationTicks": 384,
            "midi": 43,
            "name": "G2",
            "ticks": 706560,
            "time": 420.571008,
            "velocity": 0.7244094488188977
          },
          {
            "duration": 1.1428559999999948,
            "durationTicks": 1920,
            "midi": 43,
            "name": "G2",
            "ticks": 707520,
            "time": 421.14243600000003,
            "velocity": 0.4566929133858268
          },
          {
            "duration": 0.22857119999997622,
            "durationTicks": 384,
            "midi": 42,
            "name": "F#2",
            "ticks": 709440,
            "time": 422.285292,
            "velocity": 0.4566929133858268
          },
          {
            "duration": 1.1428559999999948,
            "durationTicks": 1920,
            "midi": 31,
            "name": "G1",
            "ticks": 711360,
            "time": 423.428148,
            "velocity": 0.4566929133858268
          },
          {
            "duration": 0.22857120000003306,
            "durationTicks": 384,
            "midi": 30,
            "name": "F#1",
            "ticks": 713280,
            "time": 424.571004,
            "velocity": 0.4566929133858268
          },
          {
            "duration": 0.11428560000001653,
            "durationTicks": 192,
            "midi": 43,
            "name": "G2",
            "ticks": 716160,
            "time": 426.28528800000004,
            "velocity": 0.8267716535433071
          },
          {
            "duration": 0.11428560000001653,
            "durationTicks": 192,
            "midi": 43,
            "name": "G2",
            "ticks": 716400,
            "time": 426.42814500000003,
            "velocity": 0.8267716535433071
          },
          {
            "duration": 0.11428560000001653,
            "durationTicks": 192,
            "midi": 43,
            "name": "G2",
            "ticks": 716640,
            "time": 426.571002,
            "velocity": 0.8267716535433071
          },
          {
            "duration": 0.11428560000007337,
            "durationTicks": 192,
            "midi": 43,
            "name": "G2",
            "ticks": 716880,
            "time": 426.713859,
            "velocity": 0.8267716535433071
          },
          {
            "duration": 0.11428560000001653,
            "durationTicks": 192,
            "midi": 43,
            "name": "G2",
            "ticks": 717120,
            "time": 426.85671600000006,
            "velocity": 0.8267716535433071
          },
          {
            "duration": 0.11428560000001653,
            "durationTicks": 192,
            "midi": 43,
            "name": "G2",
            "ticks": 717360,
            "time": 426.99957300000005,
            "velocity": 0.8267716535433071
          },
          {
            "duration": 0.11428560000001653,
            "durationTicks": 192,
            "midi": 43,
            "name": "G2",
            "ticks": 717600,
            "time": 427.14243000000005,
            "velocity": 0.8267716535433071
          },
          {
            "duration": 0.11428560000001653,
            "durationTicks": 192,
            "midi": 43,
            "name": "G2",
            "ticks": 717840,
            "time": 427.28528700000004,
            "velocity": 0.8267716535433071
          },
          {
            "duration": 0.1285713000000328,
            "durationTicks": 216,
            "midi": 48,
            "name": "C3",
            "ticks": 718080,
            "time": 427.42814400000003,
            "velocity": 0.8267716535433071
          },
          {
            "duration": 0.1285713000000328,
            "durationTicks": 216,
            "midi": 48,
            "name": "C3",
            "ticks": 718320,
            "time": 427.571001,
            "velocity": 0.8267716535433071
          },
          {
            "duration": 0.1285713000000328,
            "durationTicks": 216,
            "midi": 48,
            "name": "C3",
            "ticks": 718560,
            "time": 427.713858,
            "velocity": 0.8267716535433071
          },
          {
            "duration": 0.1285713000000328,
            "durationTicks": 216,
            "midi": 48,
            "name": "C3",
            "ticks": 718800,
            "time": 427.856715,
            "velocity": 0.8267716535433071
          },
          {
            "duration": 0.12857129999997596,
            "durationTicks": 216,
            "midi": 48,
            "name": "C3",
            "ticks": 719040,
            "time": 427.99957200000006,
            "velocity": 0.8267716535433071
          },
          {
            "duration": 0.12857129999997596,
            "durationTicks": 216,
            "midi": 48,
            "name": "C3",
            "ticks": 719280,
            "time": 428.14242900000005,
            "velocity": 0.8267716535433071
          },
          {
            "duration": 0.1285713000000328,
            "durationTicks": 216,
            "midi": 48,
            "name": "C3",
            "ticks": 719520,
            "time": 428.28528600000004,
            "velocity": 0.8267716535433071
          },
          {
            "duration": 0.1285713000000328,
            "durationTicks": 216,
            "midi": 48,
            "name": "C3",
            "ticks": 719760,
            "time": 428.42814300000003,
            "velocity": 0.8267716535433071
          },
          {
            "duration": 0.11428560000001653,
            "durationTicks": 192,
            "midi": 50,
            "name": "D3",
            "ticks": 720000,
            "time": 428.571,
            "velocity": 0.8267716535433071
          },
          {
            "duration": 0.11428560000001653,
            "durationTicks": 192,
            "midi": 50,
            "name": "D3",
            "ticks": 720240,
            "time": 428.713857,
            "velocity": 0.8267716535433071
          },
          {
            "duration": 0.11428560000007337,
            "durationTicks": 192,
            "midi": 50,
            "name": "D3",
            "ticks": 720480,
            "time": 428.856714,
            "velocity": 0.8267716535433071
          },
          {
            "duration": 0.11428560000001653,
            "durationTicks": 192,
            "midi": 50,
            "name": "D3",
            "ticks": 720720,
            "time": 428.99957100000006,
            "velocity": 0.8267716535433071
          },
          {
            "duration": 0.11428560000001653,
            "durationTicks": 192,
            "midi": 38,
            "name": "D2",
            "ticks": 720960,
            "time": 429.14242800000005,
            "velocity": 0.8267716535433071
          },
          {
            "duration": 0.11428560000001653,
            "durationTicks": 192,
            "midi": 38,
            "name": "D2",
            "ticks": 721200,
            "time": 429.28528500000004,
            "velocity": 0.8267716535433071
          },
          {
            "duration": 0.11428560000001653,
            "durationTicks": 192,
            "midi": 38,
            "name": "D2",
            "ticks": 721440,
            "time": 429.42814200000004,
            "velocity": 0.8267716535433071
          },
          {
            "duration": 0.11428560000001653,
            "durationTicks": 192,
            "midi": 38,
            "name": "D2",
            "ticks": 721680,
            "time": 429.57099900000003,
            "velocity": 0.8267716535433071
          },
          {
            "duration": 0.4571424000000093,
            "durationTicks": 768,
            "midi": 43,
            "name": "G2",
            "ticks": 721920,
            "time": 429.713856,
            "velocity": 0.8267716535433071
          },
          {
            "duration": 0.11428560000001653,
            "durationTicks": 192,
            "midi": 50,
            "name": "D3",
            "ticks": 723600,
            "time": 430.713855,
            "velocity": 0.8267716535433071
          },
          {
            "duration": 0.11428560000007337,
            "durationTicks": 192,
            "midi": 48,
            "name": "C3",
            "ticks": 723840,
            "time": 430.856712,
            "velocity": 0.8267716535433071
          },
          {
            "duration": 0.11428560000007337,
            "durationTicks": 192,
            "midi": 46,
            "name": "A#2",
            "ticks": 724080,
            "time": 430.999569,
            "velocity": 0.8267716535433071
          },
          {
            "duration": 0.11428560000001653,
            "durationTicks": 192,
            "midi": 45,
            "name": "A2",
            "ticks": 724320,
            "time": 431.14242600000006,
            "velocity": 0.8267716535433071
          },
          {
            "duration": 0.11428560000001653,
            "durationTicks": 192,
            "midi": 43,
            "name": "G2",
            "ticks": 724560,
            "time": 431.28528300000005,
            "velocity": 0.8267716535433071
          },
          {
            "duration": 0.11428560000001653,
            "durationTicks": 192,
            "midi": 42,
            "name": "F#2",
            "ticks": 724800,
            "time": 431.42814000000004,
            "velocity": 0.8267716535433071
          },
          {
            "duration": 0.11428560000001653,
            "durationTicks": 192,
            "midi": 39,
            "name": "D#2",
            "ticks": 725040,
            "time": 431.57099700000003,
            "velocity": 0.8267716535433071
          },
          {
            "duration": 0.11428560000001653,
            "durationTicks": 192,
            "midi": 38,
            "name": "D2",
            "ticks": 725280,
            "time": 431.713854,
            "velocity": 0.8267716535433071
          },
          {
            "duration": 0.11428560000001653,
            "durationTicks": 192,
            "midi": 36,
            "name": "C2",
            "ticks": 725520,
            "time": 431.856711,
            "velocity": 0.8267716535433071
          },
          {
            "duration": 0.18571410000004107,
            "durationTicks": 312,
            "midi": 34,
            "name": "A#1",
            "ticks": 725760,
            "time": 431.999568,
            "velocity": 0.8267716535433071
          },
          {
            "duration": 0.18571409999998423,
            "durationTicks": 312,
            "midi": 34,
            "name": "A#1",
            "ticks": 726240,
            "time": 432.28528200000005,
            "velocity": 0.8267716535433071
          },
          {
            "duration": 0.18571410000004107,
            "durationTicks": 312,
            "midi": 36,
            "name": "C2",
            "ticks": 726720,
            "time": 432.57099600000004,
            "velocity": 0.8267716535433071
          },
          {
            "duration": 0.18571410000004107,
            "durationTicks": 312,
            "midi": 38,
            "name": "D2",
            "ticks": 727200,
            "time": 432.85671,
            "velocity": 0.8267716535433071
          },
          {
            "duration": 0.11428560000001653,
            "durationTicks": 192,
            "midi": 43,
            "name": "G2",
            "ticks": 727680,
            "time": 433.14242400000006,
            "velocity": 0.8267716535433071
          },
          {
            "duration": 0.11428560000001653,
            "durationTicks": 192,
            "midi": 38,
            "name": "D2",
            "ticks": 727920,
            "time": 433.28528100000005,
            "velocity": 0.8267716535433071
          },
          {
            "duration": 0.11428560000001653,
            "durationTicks": 192,
            "midi": 46,
            "name": "A#2",
            "ticks": 728160,
            "time": 433.42813800000005,
            "velocity": 0.8267716535433071
          },
          {
            "duration": 0.11428560000001653,
            "durationTicks": 192,
            "midi": 45,
            "name": "A2",
            "ticks": 728400,
            "time": 433.57099500000004,
            "velocity": 0.8267716535433071
          },
          {
            "duration": 0.11428560000001653,
            "durationTicks": 192,
            "midi": 43,
            "name": "G2",
            "ticks": 728640,
            "time": 433.71385200000003,
            "velocity": 0.8267716535433071
          },
          {
            "duration": 0.11428560000001653,
            "durationTicks": 192,
            "midi": 41,
            "name": "F2",
            "ticks": 728880,
            "time": 433.856709,
            "velocity": 0.8267716535433071
          },
          {
            "duration": 0.11428560000007337,
            "durationTicks": 192,
            "midi": 39,
            "name": "D#2",
            "ticks": 729120,
            "time": 433.999566,
            "velocity": 0.8267716535433071
          },
          {
            "duration": 0.11428560000007337,
            "durationTicks": 192,
            "midi": 38,
            "name": "D2",
            "ticks": 729360,
            "time": 434.142423,
            "velocity": 0.8267716535433071
          },
          {
            "duration": 0.11428560000001653,
            "durationTicks": 192,
            "midi": 37,
            "name": "C#2",
            "ticks": 729600,
            "time": 434.28528000000006,
            "velocity": 0.8267716535433071
          },
          {
            "duration": 0.11428560000001653,
            "durationTicks": 192,
            "midi": 40,
            "name": "E2",
            "ticks": 729840,
            "time": 434.42813700000005,
            "velocity": 0.8267716535433071
          },
          {
            "duration": 0.11428560000001653,
            "durationTicks": 192,
            "midi": 45,
            "name": "A2",
            "ticks": 730080,
            "time": 434.57099400000004,
            "velocity": 0.8267716535433071
          },
          {
            "duration": 0.11428560000001653,
            "durationTicks": 192,
            "midi": 43,
            "name": "G2",
            "ticks": 730320,
            "time": 434.71385100000003,
            "velocity": 0.8267716535433071
          },
          {
            "duration": 0.11428560000001653,
            "durationTicks": 192,
            "midi": 42,
            "name": "F#2",
            "ticks": 730560,
            "time": 434.856708,
            "velocity": 0.8267716535433071
          },
          {
            "duration": 0.11428560000001653,
            "durationTicks": 192,
            "midi": 39,
            "name": "D#2",
            "ticks": 730800,
            "time": 434.999565,
            "velocity": 0.8267716535433071
          },
          {
            "duration": 0.11428560000007337,
            "durationTicks": 192,
            "midi": 38,
            "name": "D2",
            "ticks": 731040,
            "time": 435.142422,
            "velocity": 0.8267716535433071
          },
          {
            "duration": 0.11428560000001653,
            "durationTicks": 192,
            "midi": 36,
            "name": "C2",
            "ticks": 731280,
            "time": 435.28527900000006,
            "velocity": 0.8267716535433071
          },
          {
            "duration": 0.22857119999997622,
            "durationTicks": 384,
            "midi": 34,
            "name": "A#1",
            "ticks": 731520,
            "time": 435.42813600000005,
            "velocity": 0.8267716535433071
          },
          {
            "duration": 0.05769240000000764,
            "durationTicks": 96,
            "midi": 35,
            "name": "B1",
            "ticks": 732360,
            "time": 435.9301965,
            "velocity": 0.8267716535433071
          },
          {
            "duration": 0.2330096000000026,
            "durationTicks": 384,
            "midi": 35,
            "name": "B1",
            "ticks": 732480,
            "time": 436.002312,
            "velocity": 0.8267716535433071
          },
          {
            "duration": 0.058823599999982434,
            "durationTicks": 96,
            "midi": 36,
            "name": "C2",
            "ticks": 733320,
            "time": 436.51416250000005,
            "velocity": 0.8267716535433071
          },
          {
            "duration": 0.23762399999998252,
            "durationTicks": 384,
            "midi": 36,
            "name": "C2",
            "ticks": 733440,
            "time": 436.58769200000006,
            "velocity": 0.8267716535433071
          },
          {
            "duration": 0.059701399999994464,
            "durationTicks": 96,
            "midi": 37,
            "name": "C#2",
            "ticks": 734280,
            "time": 437.10860225000005,
            "velocity": 0.8267716535433071
          },
          {
            "duration": 0.24120640000001004,
            "durationTicks": 384,
            "midi": 37,
            "name": "C#2",
            "ticks": 734400,
            "time": 437.18322900000004,
            "velocity": 0.8267716535433071
          },
          {
            "duration": 0.0609138000000371,
            "durationTicks": 96,
            "midi": 38,
            "name": "D2",
            "ticks": 735240,
            "time": 437.71316375000004,
            "velocity": 0.8267716535433071
          },
          {
            "duration": 0.24615360000001374,
            "durationTicks": 384,
            "midi": 38,
            "name": "D2",
            "ticks": 735360,
            "time": 437.78930600000007,
            "velocity": 0.8267716535433071
          },
          {
            "duration": 0.062176199999953496,
            "durationTicks": 96,
            "midi": 41,
            "name": "F2",
            "ticks": 736200,
            "time": 438.33015875000007,
            "velocity": 0.8267716535433071
          },
          {
            "duration": 0.2513088000000039,
            "durationTicks": 384,
            "midi": 41,
            "name": "F2",
            "ticks": 736320,
            "time": 438.40787900000004,
            "velocity": 0.8267716535433071
          },
          {
            "duration": 0.06349199999999655,
            "durationTicks": 96,
            "midi": 40,
            "name": "E2",
            "ticks": 737160,
            "time": 438.96011000000004,
            "velocity": 0.8267716535433071
          },
          {
            "duration": 0.25668480000001637,
            "durationTicks": 384,
            "midi": 40,
            "name": "E2",
            "ticks": 737280,
            "time": 439.03947500000004,
            "velocity": 0.8267716535433071
          },
          {
            "duration": 0.06451620000001412,
            "durationTicks": 96,
            "midi": 39,
            "name": "D#2",
            "ticks": 738120,
            "time": 439.60226675,
            "velocity": 0.8267716535433071
          },
          {
            "duration": 0.26086959999997816,
            "durationTicks": 384,
            "midi": 39,
            "name": "D#2",
            "ticks": 738240,
            "time": 439.68291200000004,
            "velocity": 0.8267716535433071
          },
          {
            "duration": 0.6000000000000227,
            "durationTicks": 960,
            "midi": 31,
            "name": "G1",
            "ticks": 743040,
            "time": 442.738669,
            "velocity": 0.4566929133858268
          },
          {
            "duration": 0.4800000000000182,
            "durationTicks": 768,
            "midi": 35,
            "name": "B1",
            "ticks": 744000,
            "time": 443.33866900000004,
            "velocity": 0.4566929133858268
          },
          {
            "duration": 0.5999999999999659,
            "durationTicks": 960,
            "midi": 38,
            "name": "D2",
            "ticks": 744960,
            "time": 443.93866900000006,
            "velocity": 0.4566929133858268
          },
          {
            "duration": 0.4800000000000182,
            "durationTicks": 768,
            "midi": 35,
            "name": "B1",
            "ticks": 745920,
            "time": 444.538669,
            "velocity": 0.4566929133858268
          },
          {
            "duration": 0.5999999999999659,
            "durationTicks": 960,
            "midi": 31,
            "name": "G1",
            "ticks": 746880,
            "time": 445.13866900000005,
            "velocity": 0.4566929133858268
          },
          {
            "duration": 0.6000000000000227,
            "durationTicks": 960,
            "midi": 36,
            "name": "C2",
            "ticks": 747840,
            "time": 445.738669,
            "velocity": 0.4566929133858268
          },
          {
            "duration": 0.6000000000000227,
            "durationTicks": 960,
            "midi": 39,
            "name": "D#2",
            "ticks": 748800,
            "time": 446.33866900000004,
            "velocity": 0.4566929133858268
          },
          {
            "duration": 0.47999999999996135,
            "durationTicks": 768,
            "midi": 36,
            "name": "C2",
            "ticks": 749760,
            "time": 446.93866900000006,
            "velocity": 0.4566929133858268
          },
          {
            "duration": 0.6000000000000227,
            "durationTicks": 960,
            "midi": 31,
            "name": "G1",
            "ticks": 750720,
            "time": 447.538669,
            "velocity": 0.4566929133858268
          },
          {
            "duration": 0.5999999999999659,
            "durationTicks": 960,
            "midi": 36,
            "name": "C2",
            "ticks": 751680,
            "time": 448.13866900000005,
            "velocity": 0.4566929133858268
          },
          {
            "duration": 0.6000000000000227,
            "durationTicks": 960,
            "midi": 42,
            "name": "F#2",
            "ticks": 752640,
            "time": 448.738669,
            "velocity": 0.4566929133858268
          },
          {
            "duration": 0.4800000000000182,
            "durationTicks": 768,
            "midi": 36,
            "name": "C2",
            "ticks": 753600,
            "time": 449.33866900000004,
            "velocity": 0.4566929133858268
          },
          {
            "duration": 0.22857119999997622,
            "durationTicks": 384,
            "midi": 31,
            "name": "G1",
            "ticks": 754560,
            "time": 449.93866900000006,
            "velocity": 0.8267716535433071
          },
          {
            "duration": 0.22857119999997622,
            "durationTicks": 384,
            "midi": 38,
            "name": "D2",
            "ticks": 755520,
            "time": 450.5100970000001,
            "velocity": 0.8267716535433071
          },
          {
            "duration": 0.22857120000003306,
            "durationTicks": 384,
            "midi": 43,
            "name": "G2",
            "ticks": 756480,
            "time": 451.08152500000006,
            "velocity": 0.8267716535433071
          },
          {
            "duration": 0.22857119999997622,
            "durationTicks": 384,
            "midi": 38,
            "name": "D2",
            "ticks": 757440,
            "time": 451.6529530000001,
            "velocity": 0.8267716535433071
          },
          {
            "duration": 0.22857120000003306,
            "durationTicks": 384,
            "midi": 43,
            "name": "G2",
            "ticks": 758400,
            "time": 452.22438100000005,
            "velocity": 0.8267716535433071
          },
          {
            "duration": 0.22857119999997622,
            "durationTicks": 384,
            "midi": 38,
            "name": "D2",
            "ticks": 759360,
            "time": 452.7958090000001,
            "velocity": 0.8267716535433071
          },
          {
            "duration": 0.1999998000000005,
            "durationTicks": 336,
            "midi": 43,
            "name": "G2",
            "ticks": 760320,
            "time": 453.36723700000005,
            "velocity": 0.8267716535433071
          },
          {
            "duration": 0.1999998000000005,
            "durationTicks": 336,
            "midi": 38,
            "name": "D2",
            "ticks": 760800,
            "time": 453.6529510000001,
            "velocity": 0.8267716535433071
          },
          {
            "duration": 0.1999998000000005,
            "durationTicks": 336,
            "midi": 43,
            "name": "G2",
            "ticks": 761280,
            "time": 453.93866500000007,
            "velocity": 0.8267716535433071
          },
          {
            "duration": 0.1999998000000005,
            "durationTicks": 336,
            "midi": 38,
            "name": "D2",
            "ticks": 761760,
            "time": 454.22437900000006,
            "velocity": 0.8267716535433071
          },
          {
            "duration": 0.25263119999999617,
            "durationTicks": 384,
            "midi": 43,
            "name": "G2",
            "ticks": 762240,
            "time": 454.51009300000004,
            "velocity": 0.8267716535433071
          },
          {
            "duration": 0.2666664000000196,
            "durationTicks": 384,
            "midi": 31,
            "name": "G1",
            "ticks": 764160,
            "time": 455.773249,
            "velocity": 0.8267716535433071
          },
          {
            "duration": 0.29090880000001107,
            "durationTicks": 384,
            "midi": 43,
            "name": "G2",
            "ticks": 765120,
            "time": 456.455419,
            "velocity": 0.8267716535433071
          },
          {
            "duration": 0.75,
            "durationTicks": 960,
            "midi": 31,
            "name": "G1",
            "ticks": 766080,
            "time": 457.201221,
            "velocity": 0.8267716535433071
          },
          {
            "duration": 1.6000000000000227,
            "durationTicks": 768,
            "midi": 19,
            "name": "G0",
            "ticks": 768960,
            "time": 460.701221,
            "velocity": 0.007874015748031496
          }
        ]
      }
    ]
  }