{
  "header": {
    "keySignatures": [
      {
        "key": "Bb",
        "scale": "minor",
        "ticks": 0
      },
      {
        "key": "F#",
        "scale": "major",
        "ticks": 40320
      },
      {
        "key": "Bb",
        "scale": "minor",
        "ticks": 55680
      }
    ],
    "meta": [],
    "name": "",
    "ppq": 480,
    "tempos": [
      {
        "bpm": 100,
        "ticks": 0
      }
    ],
    "timeSignatures": [
      {
        "ticks": 0,
        "timeSignature": [
          4,
          4
        ],
        "measures": 0
      }
    ]
  },
  "tracks": [
    {
      "channel": 0,
      "controlChanges": {
        "11": [
          {
            "number": 11,
            "ticks": 0,
            "time": 0,
            "value": 1
          }
        ]
      },
      "pitchBends": [],
      "instrument": {
        "family": "piano",
        "number": 0,
        "name": "acoustic grand piano"
      },
      "name": "demo1_with_lyrics",
      "notes": [],
      "endOfTrackTicks": 57600
    },
    {
      "channel": 2,
      "controlChanges": {
        "7": [
          {
            "number": 7,
            "ticks": 480,
            "time": 0.6,
            "value": 0.6929133858267716
          }
        ],
        "10": [
          {
            "number": 10,
            "ticks": 480,
            "time": 0.6,
            "value": 0.5039370078740157
          }
        ],
        "91": [
          {
            "number": 91,
            "ticks": 480,
            "time": 0.6,
            "value": 0.5669291338582677
          }
        ],
        "93": [
          {
            "number": 93,
            "ticks": 480,
            "time": 0.6,
            "value": 0
          }
        ]
      },
      "pitchBends": [],
      "instrument": {
        "family": "synth lead",
        "number": 85,
        "name": "piano"
      },
      "name": "",
      "notes": [
        {
          "duration": 0.06875000000000009,
          "durationTicks": 55,
          "midi": 53,
          "name": "F3",
          "ticks": 1200,
          "time": 1.5,
          "velocity": 1
        },
        {
          "duration": 0.06875000000000009,
          "durationTicks": 55,
          "midi": 65,
          "name": "F4",
          "ticks": 1200,
          "time": 1.5,
          "velocity": 1
        },
        {
          "duration": 0.09375,
          "durationTicks": 75,
          "midi": 55,
          "name": "G3",
          "ticks": 1355,
          "time": 1.6937499999999999,
          "velocity": 1
        },
        {
          "duration": 0.09375,
          "durationTicks": 75,
          "midi": 67,
          "name": "G4",
          "ticks": 1355,
          "time": 1.6937499999999999,
          "velocity": 1
        },
        {
          "duration": 0.16625,
          "durationTicks": 133,
          "midi": 58,
          "name": "A#3",
          "ticks": 1440,
          "time": 1.7999999999999998,
          "velocity": 1
        },
        {
          "duration": 0.16625,
          "durationTicks": 133,
          "midi": 70,
          "name": "A#4",
          "ticks": 1440,
          "time": 1.7999999999999998,
          "velocity": 0.84251968503937
        },
        {
          "duration": 0.10374999999999979,
          "durationTicks": 83,
          "midi": 61,
          "name": "C#4",
          "ticks": 1595,
          "time": 1.99375,
          "velocity": 0.8976377952755905
        },
        {
          "duration": 0.10374999999999979,
          "durationTicks": 83,
          "midi": 73,
          "name": "C#5",
          "ticks": 1595,
          "time": 1.99375,
          "velocity": 1
        },
        {
          "duration": 0.2999999999999998,
          "durationTicks": 240,
          "midi": 62,
          "name": "D4",
          "ticks": 1680,
          "time": 2.1,
          "velocity": 1
        },
        {
          "duration": 0.2999999999999998,
          "durationTicks": 240,
          "midi": 74,
          "name": "D5",
          "ticks": 1680,
          "time": 2.1,
          "velocity": 1
        },
        {
          "duration": 0.1537499999999996,
          "durationTicks": 123,
          "midi": 65,
          "name": "F4",
          "ticks": 1920,
          "time": 2.4,
          "velocity": 1
        },
        {
          "duration": 0.1537499999999996,
          "durationTicks": 123,
          "midi": 77,
          "name": "F5",
          "ticks": 1920,
          "time": 2.4,
          "velocity": 1
        },
        {
          "duration": 0.1974999999999998,
          "durationTicks": 158,
          "midi": 65,
          "name": "F4",
          "ticks": 2400,
          "time": 3,
          "velocity": 1
        },
        {
          "duration": 0.22250000000000014,
          "durationTicks": 178,
          "midi": 68,
          "name": "G#4",
          "ticks": 2400,
          "time": 3,
          "velocity": 1
        },
        {
          "duration": 0.1974999999999998,
          "durationTicks": 158,
          "midi": 77,
          "name": "F5",
          "ticks": 2400,
          "time": 3,
          "velocity": 1
        },
        {
          "duration": 0.22250000000000014,
          "durationTicks": 178,
          "midi": 80,
          "name": "G#5",
          "ticks": 2400,
          "time": 3,
          "velocity": 1
        },
        {
          "duration": 0.3187500000000001,
          "durationTicks": 255,
          "midi": 63,
          "name": "D#4",
          "ticks": 2880,
          "time": 3.5999999999999996,
          "velocity": 1
        },
        {
          "duration": 0.33750000000000036,
          "durationTicks": 270,
          "midi": 67,
          "name": "G4",
          "ticks": 2880,
          "time": 3.5999999999999996,
          "velocity": 1
        },
        {
          "duration": 0.3187500000000001,
          "durationTicks": 255,
          "midi": 75,
          "name": "D#5",
          "ticks": 2880,
          "time": 3.5999999999999996,
          "velocity": 1
        },
        {
          "duration": 0.33750000000000036,
          "durationTicks": 270,
          "midi": 79,
          "name": "G5",
          "ticks": 2880,
          "time": 3.5999999999999996,
          "velocity": 1
        },
        {
          "duration": 0.11249999999999982,
          "durationTicks": 90,
          "midi": 65,
          "name": "F4",
          "ticks": 3275,
          "time": 4.09375,
          "velocity": 1
        },
        {
          "duration": 0.11249999999999982,
          "durationTicks": 90,
          "midi": 77,
          "name": "F5",
          "ticks": 3275,
          "time": 4.09375,
          "velocity": 1
        },
        {
          "duration": 0.10374999999999979,
          "durationTicks": 83,
          "midi": 58,
          "name": "A#3",
          "ticks": 3515,
          "time": 4.39375,
          "velocity": 1
        },
        {
          "duration": 0.10374999999999979,
          "durationTicks": 83,
          "midi": 70,
          "name": "A#4",
          "ticks": 3515,
          "time": 4.39375,
          "velocity": 1
        },
        {
          "duration": 0.11249999999999982,
          "durationTicks": 90,
          "midi": 58,
          "name": "A#3",
          "ticks": 3755,
          "time": 4.69375,
          "velocity": 1
        },
        {
          "duration": 0.11249999999999982,
          "durationTicks": 90,
          "midi": 70,
          "name": "A#4",
          "ticks": 3755,
          "time": 4.69375,
          "velocity": 1
        },
        {
          "duration": 0.09750000000000014,
          "durationTicks": 78,
          "midi": 58,
          "name": "A#3",
          "ticks": 3840,
          "time": 4.8,
          "velocity": 1
        },
        {
          "duration": 0.09750000000000014,
          "durationTicks": 78,
          "midi": 70,
          "name": "A#4",
          "ticks": 3840,
          "time": 4.8,
          "velocity": 1
        },
        {
          "duration": 0.11625000000000085,
          "durationTicks": 93,
          "midi": 58,
          "name": "A#3",
          "ticks": 3995,
          "time": 4.9937499999999995,
          "velocity": 1
        },
        {
          "duration": 0.11625000000000085,
          "durationTicks": 93,
          "midi": 70,
          "name": "A#4",
          "ticks": 3995,
          "time": 4.9937499999999995,
          "velocity": 1
        },
        {
          "duration": 0.09999999999999964,
          "durationTicks": 80,
          "midi": 58,
          "name": "A#3",
          "ticks": 4080,
          "time": 5.1,
          "velocity": 1
        },
        {
          "duration": 0.09999999999999964,
          "durationTicks": 80,
          "midi": 70,
          "name": "A#4",
          "ticks": 4080,
          "time": 5.1,
          "velocity": 1
        },
        {
          "duration": 0.07875000000000121,
          "durationTicks": 63,
          "midi": 58,
          "name": "A#3",
          "ticks": 4235,
          "time": 5.293749999999999,
          "velocity": 1
        },
        {
          "duration": 0.07875000000000121,
          "durationTicks": 63,
          "midi": 70,
          "name": "A#4",
          "ticks": 4235,
          "time": 5.293749999999999,
          "velocity": 1
        },
        {
          "duration": 0.13125000000000053,
          "durationTicks": 105,
          "midi": 61,
          "name": "C#4",
          "ticks": 4320,
          "time": 5.3999999999999995,
          "velocity": 1
        },
        {
          "duration": 0.13125000000000053,
          "durationTicks": 105,
          "midi": 73,
          "name": "C#5",
          "ticks": 4320,
          "time": 5.3999999999999995,
          "velocity": 1
        },
        {
          "duration": 0.1374999999999993,
          "durationTicks": 110,
          "midi": 61,
          "name": "C#4",
          "ticks": 4560,
          "time": 5.7,
          "velocity": 1
        },
        {
          "duration": 0.1374999999999993,
          "durationTicks": 110,
          "midi": 73,
          "name": "C#5",
          "ticks": 4560,
          "time": 5.7,
          "velocity": 1
        },
        {
          "duration": 0.12249999999999872,
          "durationTicks": 98,
          "midi": 73,
          "name": "C#5",
          "ticks": 7680,
          "time": 9.6,
          "velocity": 1
        },
        {
          "duration": 0.12249999999999872,
          "durationTicks": 98,
          "midi": 85,
          "name": "C#6",
          "ticks": 7680,
          "time": 9.6,
          "velocity": 1
        },
        {
          "duration": 0.1662499999999998,
          "durationTicks": 133,
          "midi": 68,
          "name": "G#4",
          "ticks": 7835,
          "time": 9.793750000000001,
          "velocity": 1
        },
        {
          "duration": 0.1662499999999998,
          "durationTicks": 133,
          "midi": 80,
          "name": "G#5",
          "ticks": 7835,
          "time": 9.793750000000001,
          "velocity": 1
        },
        {
          "duration": 0.14999999999999858,
          "durationTicks": 120,
          "midi": 65,
          "name": "F4",
          "ticks": 7920,
          "time": 9.9,
          "velocity": 1
        },
        {
          "duration": 0.14999999999999858,
          "durationTicks": 120,
          "midi": 77,
          "name": "F5",
          "ticks": 7920,
          "time": 9.9,
          "velocity": 1
        },
        {
          "duration": 0.11624999999999908,
          "durationTicks": 93,
          "midi": 62,
          "name": "D4",
          "ticks": 8075,
          "time": 10.09375,
          "velocity": 1
        },
        {
          "duration": 0.11624999999999908,
          "durationTicks": 93,
          "midi": 74,
          "name": "D5",
          "ticks": 8075,
          "time": 10.09375,
          "velocity": 1
        },
        {
          "duration": 0.12875000000000014,
          "durationTicks": 103,
          "midi": 67,
          "name": "G4",
          "ticks": 8160,
          "time": 10.2,
          "velocity": 1
        },
        {
          "duration": 0.12875000000000014,
          "durationTicks": 103,
          "midi": 79,
          "name": "G5",
          "ticks": 8160,
          "time": 10.2,
          "velocity": 1
        },
        {
          "duration": 0.2624999999999993,
          "durationTicks": 210,
          "midi": 61,
          "name": "C#4",
          "ticks": 8315,
          "time": 10.39375,
          "velocity": 1
        },
        {
          "duration": 0.2624999999999993,
          "durationTicks": 210,
          "midi": 73,
          "name": "C#5",
          "ticks": 8315,
          "time": 10.39375,
          "velocity": 1
        },
        {
          "duration": 0.1725000000000012,
          "durationTicks": 138,
          "midi": 58,
          "name": "A#3",
          "ticks": 8640,
          "time": 10.799999999999999,
          "velocity": 1
        },
        {
          "duration": 0.1725000000000012,
          "durationTicks": 138,
          "midi": 70,
          "name": "A#4",
          "ticks": 8640,
          "time": 10.799999999999999,
          "velocity": 1
        },
        {
          "duration": 0.06874999999999964,
          "durationTicks": 55,
          "midi": 53,
          "name": "F3",
          "ticks": 8880,
          "time": 11.1,
          "velocity": 1
        },
        {
          "duration": 0.06874999999999964,
          "durationTicks": 55,
          "midi": 65,
          "name": "F4",
          "ticks": 8880,
          "time": 11.1,
          "velocity": 1
        },
        {
          "duration": 0.09375,
          "durationTicks": 75,
          "midi": 55,
          "name": "G3",
          "ticks": 9035,
          "time": 11.293750000000001,
          "velocity": 1
        },
        {
          "duration": 0.09375,
          "durationTicks": 75,
          "midi": 67,
          "name": "G4",
          "ticks": 9035,
          "time": 11.293750000000001,
          "velocity": 1
        },
        {
          "duration": 0.1662499999999998,
          "durationTicks": 133,
          "midi": 58,
          "name": "A#3",
          "ticks": 9120,
          "time": 11.4,
          "velocity": 1
        },
        {
          "duration": 0.1662499999999998,
          "durationTicks": 133,
          "midi": 70,
          "name": "A#4",
          "ticks": 9120,
          "time": 11.4,
          "velocity": 0.84251968503937
        },
        {
          "duration": 0.10374999999999979,
          "durationTicks": 83,
          "midi": 61,
          "name": "C#4",
          "ticks": 9275,
          "time": 11.59375,
          "velocity": 0.8976377952755905
        },
        {
          "duration": 0.10374999999999979,
          "durationTicks": 83,
          "midi": 73,
          "name": "C#5",
          "ticks": 9275,
          "time": 11.59375,
          "velocity": 1
        },
        {
          "duration": 0.22875000000000156,
          "durationTicks": 183,
          "midi": 62,
          "name": "D4",
          "ticks": 9360,
          "time": 11.7,
          "velocity": 1
        },
        {
          "duration": 0.22875000000000156,
          "durationTicks": 183,
          "midi": 74,
          "name": "D5",
          "ticks": 9360,
          "time": 11.7,
          "velocity": 1
        },
        {
          "duration": 0.1537500000000005,
          "durationTicks": 123,
          "midi": 65,
          "name": "F4",
          "ticks": 9600,
          "time": 12,
          "velocity": 1
        },
        {
          "duration": 0.1537500000000005,
          "durationTicks": 123,
          "midi": 77,
          "name": "F5",
          "ticks": 9600,
          "time": 12,
          "velocity": 1
        },
        {
          "duration": 0.1974999999999998,
          "durationTicks": 158,
          "midi": 65,
          "name": "F4",
          "ticks": 10080,
          "time": 12.6,
          "velocity": 1
        },
        {
          "duration": 0.22250000000000014,
          "durationTicks": 178,
          "midi": 68,
          "name": "G#4",
          "ticks": 10080,
          "time": 12.6,
          "velocity": 1
        },
        {
          "duration": 0.1974999999999998,
          "durationTicks": 158,
          "midi": 77,
          "name": "F5",
          "ticks": 10080,
          "time": 12.6,
          "velocity": 1
        },
        {
          "duration": 0.22250000000000014,
          "durationTicks": 178,
          "midi": 80,
          "name": "G#5",
          "ticks": 10080,
          "time": 12.6,
          "velocity": 1
        },
        {
          "duration": 0.31874999999999964,
          "durationTicks": 255,
          "midi": 63,
          "name": "D#4",
          "ticks": 10560,
          "time": 13.2,
          "velocity": 1
        },
        {
          "duration": 0.33750000000000036,
          "durationTicks": 270,
          "midi": 67,
          "name": "G4",
          "ticks": 10560,
          "time": 13.2,
          "velocity": 1
        },
        {
          "duration": 0.31874999999999964,
          "durationTicks": 255,
          "midi": 75,
          "name": "D#5",
          "ticks": 10560,
          "time": 13.2,
          "velocity": 1
        },
        {
          "duration": 0.33750000000000036,
          "durationTicks": 270,
          "midi": 79,
          "name": "G5",
          "ticks": 10560,
          "time": 13.2,
          "velocity": 1
        },
        {
          "duration": 0.11250000000000071,
          "durationTicks": 90,
          "midi": 65,
          "name": "F4",
          "ticks": 10955,
          "time": 13.69375,
          "velocity": 1
        },
        {
          "duration": 0.11250000000000071,
          "durationTicks": 90,
          "midi": 77,
          "name": "F5",
          "ticks": 10955,
          "time": 13.69375,
          "velocity": 1
        },
        {
          "duration": 0.10374999999999979,
          "durationTicks": 83,
          "midi": 58,
          "name": "A#3",
          "ticks": 11195,
          "time": 13.99375,
          "velocity": 1
        },
        {
          "duration": 0.10374999999999979,
          "durationTicks": 83,
          "midi": 70,
          "name": "A#4",
          "ticks": 11195,
          "time": 13.99375,
          "velocity": 1
        },
        {
          "duration": 0.11249999999999893,
          "durationTicks": 90,
          "midi": 58,
          "name": "A#3",
          "ticks": 11435,
          "time": 14.293750000000001,
          "velocity": 1
        },
        {
          "duration": 0.11249999999999893,
          "durationTicks": 90,
          "midi": 70,
          "name": "A#4",
          "ticks": 11435,
          "time": 14.293750000000001,
          "velocity": 1
        },
        {
          "duration": 0.09750000000000192,
          "durationTicks": 78,
          "midi": 58,
          "name": "A#3",
          "ticks": 11520,
          "time": 14.399999999999999,
          "velocity": 1
        },
        {
          "duration": 0.09750000000000192,
          "durationTicks": 78,
          "midi": 70,
          "name": "A#4",
          "ticks": 11520,
          "time": 14.399999999999999,
          "velocity": 1
        },
        {
          "duration": 0.11624999999999908,
          "durationTicks": 93,
          "midi": 58,
          "name": "A#3",
          "ticks": 11675,
          "time": 14.59375,
          "velocity": 1
        },
        {
          "duration": 0.11624999999999908,
          "durationTicks": 93,
          "midi": 70,
          "name": "A#4",
          "ticks": 11675,
          "time": 14.59375,
          "velocity": 1
        },
        {
          "duration": 0.10000000000000142,
          "durationTicks": 80,
          "midi": 58,
          "name": "A#3",
          "ticks": 11760,
          "time": 14.7,
          "velocity": 1
        },
        {
          "duration": 0.10000000000000142,
          "durationTicks": 80,
          "midi": 70,
          "name": "A#4",
          "ticks": 11760,
          "time": 14.7,
          "velocity": 1
        },
        {
          "duration": 0.07874999999999766,
          "durationTicks": 63,
          "midi": 58,
          "name": "A#3",
          "ticks": 11915,
          "time": 14.89375,
          "velocity": 1
        },
        {
          "duration": 0.07874999999999766,
          "durationTicks": 63,
          "midi": 70,
          "name": "A#4",
          "ticks": 11915,
          "time": 14.89375,
          "velocity": 1
        },
        {
          "duration": 0.13124999999999964,
          "durationTicks": 105,
          "midi": 61,
          "name": "C#4",
          "ticks": 12000,
          "time": 15,
          "velocity": 1
        },
        {
          "duration": 0.13124999999999964,
          "durationTicks": 105,
          "midi": 73,
          "name": "C#5",
          "ticks": 12000,
          "time": 15,
          "velocity": 1
        },
        {
          "duration": 0.13750000000000107,
          "durationTicks": 110,
          "midi": 61,
          "name": "C#4",
          "ticks": 12240,
          "time": 15.299999999999999,
          "velocity": 1
        },
        {
          "duration": 0.13750000000000107,
          "durationTicks": 110,
          "midi": 73,
          "name": "C#5",
          "ticks": 12240,
          "time": 15.299999999999999,
          "velocity": 1
        },
        {
          "duration": 0.12249999999999872,
          "durationTicks": 98,
          "midi": 73,
          "name": "C#5",
          "ticks": 15360,
          "time": 19.2,
          "velocity": 1
        },
        {
          "duration": 0.12249999999999872,
          "durationTicks": 98,
          "midi": 85,
          "name": "C#6",
          "ticks": 15360,
          "time": 19.2,
          "velocity": 1
        },
        {
          "duration": 0.16625000000000156,
          "durationTicks": 133,
          "midi": 68,
          "name": "G#4",
          "ticks": 15515,
          "time": 19.393749999999997,
          "velocity": 1
        },
        {
          "duration": 0.16625000000000156,
          "durationTicks": 133,
          "midi": 80,
          "name": "G#5",
          "ticks": 15515,
          "time": 19.393749999999997,
          "velocity": 1
        },
        {
          "duration": 0.14999999999999858,
          "durationTicks": 120,
          "midi": 65,
          "name": "F4",
          "ticks": 15600,
          "time": 19.5,
          "velocity": 1
        },
        {
          "duration": 0.14999999999999858,
          "durationTicks": 120,
          "midi": 77,
          "name": "F5",
          "ticks": 15600,
          "time": 19.5,
          "velocity": 1
        },
        {
          "duration": 0.11625000000000085,
          "durationTicks": 93,
          "midi": 62,
          "name": "D4",
          "ticks": 15755,
          "time": 19.693749999999998,
          "velocity": 1
        },
        {
          "duration": 0.11625000000000085,
          "durationTicks": 93,
          "midi": 74,
          "name": "D5",
          "ticks": 15755,
          "time": 19.693749999999998,
          "velocity": 1
        },
        {
          "duration": 0.1287499999999966,
          "durationTicks": 103,
          "midi": 67,
          "name": "G4",
          "ticks": 15840,
          "time": 19.8,
          "velocity": 1
        },
        {
          "duration": 0.1287499999999966,
          "durationTicks": 103,
          "midi": 79,
          "name": "G5",
          "ticks": 15840,
          "time": 19.8,
          "velocity": 1
        },
        {
          "duration": 0.2624999999999993,
          "durationTicks": 210,
          "midi": 61,
          "name": "C#4",
          "ticks": 15995,
          "time": 19.99375,
          "velocity": 1
        },
        {
          "duration": 0.2624999999999993,
          "durationTicks": 210,
          "midi": 73,
          "name": "C#5",
          "ticks": 15995,
          "time": 19.99375,
          "velocity": 1
        },
        {
          "duration": 0.17250000000000298,
          "durationTicks": 138,
          "midi": 58,
          "name": "A#3",
          "ticks": 16320,
          "time": 20.4,
          "velocity": 1
        },
        {
          "duration": 0.17250000000000298,
          "durationTicks": 138,
          "midi": 70,
          "name": "A#4",
          "ticks": 16320,
          "time": 20.4,
          "velocity": 1
        },
        {
          "duration": 0.06875000000000142,
          "durationTicks": 55,
          "midi": 53,
          "name": "F3",
          "ticks": 16560,
          "time": 20.7,
          "velocity": 1
        },
        {
          "duration": 0.06875000000000142,
          "durationTicks": 55,
          "midi": 65,
          "name": "F4",
          "ticks": 16560,
          "time": 20.7,
          "velocity": 1
        },
        {
          "duration": 0.09375,
          "durationTicks": 75,
          "midi": 55,
          "name": "G3",
          "ticks": 16715,
          "time": 20.893749999999997,
          "velocity": 1
        },
        {
          "duration": 0.09375,
          "durationTicks": 75,
          "midi": 67,
          "name": "G4",
          "ticks": 16715,
          "time": 20.893749999999997,
          "velocity": 1
        },
        {
          "duration": 0.166249999999998,
          "durationTicks": 133,
          "midi": 58,
          "name": "A#3",
          "ticks": 16800,
          "time": 21,
          "velocity": 1
        },
        {
          "duration": 0.166249999999998,
          "durationTicks": 133,
          "midi": 70,
          "name": "A#4",
          "ticks": 16800,
          "time": 21,
          "velocity": 0.84251968503937
        },
        {
          "duration": 0.10374999999999801,
          "durationTicks": 83,
          "midi": 61,
          "name": "C#4",
          "ticks": 16955,
          "time": 21.193749999999998,
          "velocity": 0.8976377952755905
        },
        {
          "duration": 0.10374999999999801,
          "durationTicks": 83,
          "midi": 73,
          "name": "C#5",
          "ticks": 16955,
          "time": 21.193749999999998,
          "velocity": 1
        },
        {
          "duration": 0.228749999999998,
          "durationTicks": 183,
          "midi": 62,
          "name": "D4",
          "ticks": 17040,
          "time": 21.3,
          "velocity": 1
        },
        {
          "duration": 0.228749999999998,
          "durationTicks": 183,
          "midi": 74,
          "name": "D5",
          "ticks": 17040,
          "time": 21.3,
          "velocity": 1
        },
        {
          "duration": 0.266250000000003,
          "durationTicks": 213,
          "midi": 65,
          "name": "F4",
          "ticks": 17280,
          "time": 21.599999999999998,
          "velocity": 1
        },
        {
          "duration": 0.266250000000003,
          "durationTicks": 213,
          "midi": 77,
          "name": "F5",
          "ticks": 17280,
          "time": 21.599999999999998,
          "velocity": 1
        },
        {
          "duration": 0.291249999999998,
          "durationTicks": 233,
          "midi": 68,
          "name": "G#4",
          "ticks": 17760,
          "time": 22.2,
          "velocity": 1
        },
        {
          "duration": 0.291249999999998,
          "durationTicks": 233,
          "midi": 80,
          "name": "G#5",
          "ticks": 17760,
          "time": 22.2,
          "velocity": 1
        },
        {
          "duration": 0.4037499999999987,
          "durationTicks": 323,
          "midi": 72,
          "name": "C5",
          "ticks": 18240,
          "time": 22.8,
          "velocity": 1
        },
        {
          "duration": 0.4037499999999987,
          "durationTicks": 323,
          "midi": 84,
          "name": "C6",
          "ticks": 18240,
          "time": 22.8,
          "velocity": 1
        },
        {
          "duration": 0.11875000000000213,
          "durationTicks": 95,
          "midi": 70,
          "name": "A#4",
          "ticks": 18635,
          "time": 23.29375,
          "velocity": 1
        },
        {
          "duration": 0.11875000000000213,
          "durationTicks": 95,
          "midi": 82,
          "name": "A#5",
          "ticks": 18635,
          "time": 23.29375,
          "velocity": 1
        },
        {
          "duration": 0.266250000000003,
          "durationTicks": 213,
          "midi": 65,
          "name": "F4",
          "ticks": 21120,
          "time": 26.4,
          "velocity": 1
        },
        {
          "duration": 0.266250000000003,
          "durationTicks": 213,
          "midi": 77,
          "name": "F5",
          "ticks": 21120,
          "time": 26.4,
          "velocity": 1
        },
        {
          "duration": 0.291249999999998,
          "durationTicks": 233,
          "midi": 68,
          "name": "G#4",
          "ticks": 21600,
          "time": 27,
          "velocity": 1
        },
        {
          "duration": 0.291249999999998,
          "durationTicks": 233,
          "midi": 80,
          "name": "G#5",
          "ticks": 21600,
          "time": 27,
          "velocity": 1
        },
        {
          "duration": 0.4037500000000023,
          "durationTicks": 323,
          "midi": 72,
          "name": "C5",
          "ticks": 22080,
          "time": 27.599999999999998,
          "velocity": 1
        },
        {
          "duration": 0.4037500000000023,
          "durationTicks": 323,
          "midi": 84,
          "name": "C6",
          "ticks": 22080,
          "time": 27.599999999999998,
          "velocity": 1
        },
        {
          "duration": 0.11875000000000568,
          "durationTicks": 95,
          "midi": 75,
          "name": "D#5",
          "ticks": 22475,
          "time": 28.093749999999996,
          "velocity": 1
        },
        {
          "duration": 0.11875000000000568,
          "durationTicks": 95,
          "midi": 87,
          "name": "D#6",
          "ticks": 22475,
          "time": 28.093749999999996,
          "velocity": 1
        },
        {
          "duration": 0.12250000000000227,
          "durationTicks": 98,
          "midi": 73,
          "name": "C#5",
          "ticks": 30720,
          "time": 38.4,
          "velocity": 1
        },
        {
          "duration": 0.12250000000000227,
          "durationTicks": 98,
          "midi": 76,
          "name": "E5",
          "ticks": 30720,
          "time": 38.4,
          "velocity": 1
        },
        {
          "duration": 0.12250000000000227,
          "durationTicks": 98,
          "midi": 85,
          "name": "C#6",
          "ticks": 30720,
          "time": 38.4,
          "velocity": 1
        },
        {
          "duration": 0.12250000000000227,
          "durationTicks": 98,
          "midi": 88,
          "name": "E6",
          "ticks": 30720,
          "time": 38.4,
          "velocity": 1
        },
        {
          "duration": 0.17249999999999943,
          "durationTicks": 138,
          "midi": 68,
          "name": "G#4",
          "ticks": 30875,
          "time": 38.59375,
          "velocity": 1
        },
        {
          "duration": 0.166249999999998,
          "durationTicks": 133,
          "midi": 71,
          "name": "B4",
          "ticks": 30875,
          "time": 38.59375,
          "velocity": 1
        },
        {
          "duration": 0.17249999999999943,
          "durationTicks": 138,
          "midi": 80,
          "name": "G#5",
          "ticks": 30875,
          "time": 38.59375,
          "velocity": 1
        },
        {
          "duration": 0.166249999999998,
          "durationTicks": 133,
          "midi": 83,
          "name": "B5",
          "ticks": 30875,
          "time": 38.59375,
          "velocity": 1
        },
        {
          "duration": 0.15000000000000568,
          "durationTicks": 120,
          "midi": 65,
          "name": "F4",
          "ticks": 30960,
          "time": 38.699999999999996,
          "velocity": 1
        },
        {
          "duration": 0.14374999999999716,
          "durationTicks": 115,
          "midi": 68,
          "name": "G#4",
          "ticks": 30960,
          "time": 38.699999999999996,
          "velocity": 1
        },
        {
          "duration": 0.15000000000000568,
          "durationTicks": 120,
          "midi": 77,
          "name": "F5",
          "ticks": 30960,
          "time": 38.699999999999996,
          "velocity": 1
        },
        {
          "duration": 0.14374999999999716,
          "durationTicks": 115,
          "midi": 80,
          "name": "G#5",
          "ticks": 30960,
          "time": 38.699999999999996,
          "velocity": 1
        },
        {
          "duration": 0.11624999999999375,
          "durationTicks": 93,
          "midi": 62,
          "name": "D4",
          "ticks": 31115,
          "time": 38.893750000000004,
          "velocity": 1
        },
        {
          "duration": 0.11624999999999375,
          "durationTicks": 93,
          "midi": 65,
          "name": "F4",
          "ticks": 31115,
          "time": 38.893750000000004,
          "velocity": 1
        },
        {
          "duration": 0.11624999999999375,
          "durationTicks": 93,
          "midi": 74,
          "name": "D5",
          "ticks": 31115,
          "time": 38.893750000000004,
          "velocity": 1
        },
        {
          "duration": 0.11624999999999375,
          "durationTicks": 93,
          "midi": 77,
          "name": "F5",
          "ticks": 31115,
          "time": 38.893750000000004,
          "velocity": 1
        },
        {
          "duration": 0.1287500000000037,
          "durationTicks": 103,
          "midi": 67,
          "name": "G4",
          "ticks": 31200,
          "time": 39,
          "velocity": 1
        },
        {
          "duration": 0.1287500000000037,
          "durationTicks": 103,
          "midi": 70,
          "name": "A#4",
          "ticks": 31200,
          "time": 39,
          "velocity": 1
        },
        {
          "duration": 0.1287500000000037,
          "durationTicks": 103,
          "midi": 79,
          "name": "G5",
          "ticks": 31200,
          "time": 39,
          "velocity": 1
        },
        {
          "duration": 0.1287500000000037,
          "durationTicks": 103,
          "midi": 82,
          "name": "A#5",
          "ticks": 31200,
          "time": 39,
          "velocity": 1
        },
        {
          "duration": 0.26250000000000284,
          "durationTicks": 210,
          "midi": 61,
          "name": "C#4",
          "ticks": 31355,
          "time": 39.19375,
          "velocity": 1
        },
        {
          "duration": 0.26250000000000284,
          "durationTicks": 210,
          "midi": 64,
          "name": "E4",
          "ticks": 31355,
          "time": 39.19375,
          "velocity": 1
        },
        {
          "duration": 0.26250000000000284,
          "durationTicks": 210,
          "midi": 73,
          "name": "C#5",
          "ticks": 31355,
          "time": 39.19375,
          "velocity": 1
        },
        {
          "duration": 0.26250000000000284,
          "durationTicks": 210,
          "midi": 76,
          "name": "E5",
          "ticks": 31355,
          "time": 39.19375,
          "velocity": 1
        },
        {
          "duration": 0.17249999999999233,
          "durationTicks": 138,
          "midi": 58,
          "name": "A#3",
          "ticks": 31680,
          "time": 39.6,
          "velocity": 1
        },
        {
          "duration": 0.17249999999999233,
          "durationTicks": 138,
          "midi": 61,
          "name": "C#4",
          "ticks": 31680,
          "time": 39.6,
          "velocity": 1
        },
        {
          "duration": 0.17249999999999233,
          "durationTicks": 138,
          "midi": 70,
          "name": "A#4",
          "ticks": 31680,
          "time": 39.6,
          "velocity": 1
        },
        {
          "duration": 0.17249999999999233,
          "durationTicks": 138,
          "midi": 73,
          "name": "C#5",
          "ticks": 31680,
          "time": 39.6,
          "velocity": 1
        },
        {
          "duration": 0.06874999999999432,
          "durationTicks": 55,
          "midi": 53,
          "name": "F3",
          "ticks": 31920,
          "time": 39.9,
          "velocity": 1
        },
        {
          "duration": 0.06874999999999432,
          "durationTicks": 55,
          "midi": 65,
          "name": "F4",
          "ticks": 31920,
          "time": 39.9,
          "velocity": 1
        },
        {
          "duration": 0.09375,
          "durationTicks": 75,
          "midi": 55,
          "name": "G3",
          "ticks": 32075,
          "time": 40.09375,
          "velocity": 1
        },
        {
          "duration": 0.09375,
          "durationTicks": 75,
          "midi": 67,
          "name": "G4",
          "ticks": 32075,
          "time": 40.09375,
          "velocity": 1
        },
        {
          "duration": 0.16625000000000512,
          "durationTicks": 133,
          "midi": 58,
          "name": "A#3",
          "ticks": 32160,
          "time": 40.199999999999996,
          "velocity": 1
        },
        {
          "duration": 0.16625000000000512,
          "durationTicks": 133,
          "midi": 70,
          "name": "A#4",
          "ticks": 32160,
          "time": 40.199999999999996,
          "velocity": 0.84251968503937
        },
        {
          "duration": 0.10374999999999801,
          "durationTicks": 83,
          "midi": 61,
          "name": "C#4",
          "ticks": 32315,
          "time": 40.393750000000004,
          "velocity": 0.8976377952755905
        },
        {
          "duration": 0.10374999999999801,
          "durationTicks": 83,
          "midi": 73,
          "name": "C#5",
          "ticks": 32315,
          "time": 40.393750000000004,
          "velocity": 1
        },
        {
          "duration": 0.228749999999998,
          "durationTicks": 183,
          "midi": 62,
          "name": "D4",
          "ticks": 32400,
          "time": 40.5,
          "velocity": 1
        },
        {
          "duration": 0.228749999999998,
          "durationTicks": 183,
          "midi": 74,
          "name": "D5",
          "ticks": 32400,
          "time": 40.5,
          "velocity": 1
        },
        {
          "duration": 0.13125000000000142,
          "durationTicks": 105,
          "midi": 65,
          "name": "F4",
          "ticks": 32640,
          "time": 40.8,
          "velocity": 1
        },
        {
          "duration": 0.13125000000000142,
          "durationTicks": 105,
          "midi": 77,
          "name": "F5",
          "ticks": 32640,
          "time": 40.8,
          "velocity": 1
        },
        {
          "duration": 0.09125000000000227,
          "durationTicks": 73,
          "midi": 65,
          "name": "F4",
          "ticks": 32800,
          "time": 40.99999999999999,
          "velocity": 1
        },
        {
          "duration": 0.09125000000000227,
          "durationTicks": 73,
          "midi": 77,
          "name": "F5",
          "ticks": 32800,
          "time": 40.99999999999999,
          "velocity": 1
        },
        {
          "duration": 0.1287500000000037,
          "durationTicks": 103,
          "midi": 68,
          "name": "G#4",
          "ticks": 33120,
          "time": 41.4,
          "velocity": 1
        },
        {
          "duration": 0.1287500000000037,
          "durationTicks": 103,
          "midi": 80,
          "name": "G#5",
          "ticks": 33120,
          "time": 41.4,
          "velocity": 1
        },
        {
          "duration": 0.09375,
          "durationTicks": 75,
          "midi": 68,
          "name": "G#4",
          "ticks": 33280,
          "time": 41.599999999999994,
          "velocity": 1
        },
        {
          "duration": 0.09375,
          "durationTicks": 75,
          "midi": 80,
          "name": "G#5",
          "ticks": 33280,
          "time": 41.599999999999994,
          "velocity": 1
        },
        {
          "duration": 0.14374999999999716,
          "durationTicks": 115,
          "midi": 70,
          "name": "A#4",
          "ticks": 33600,
          "time": 42,
          "velocity": 1
        },
        {
          "duration": 0.14374999999999716,
          "durationTicks": 115,
          "midi": 82,
          "name": "A#5",
          "ticks": 33600,
          "time": 42,
          "velocity": 1
        },
        {
          "duration": 0.0975000000000037,
          "durationTicks": 78,
          "midi": 68,
          "name": "G#4",
          "ticks": 33760,
          "time": 42.199999999999996,
          "velocity": 1
        },
        {
          "duration": 0.0975000000000037,
          "durationTicks": 78,
          "midi": 80,
          "name": "G#5",
          "ticks": 33760,
          "time": 42.199999999999996,
          "velocity": 1
        },
        {
          "duration": 0.14750000000000085,
          "durationTicks": 118,
          "midi": 70,
          "name": "A#4",
          "ticks": 33840,
          "time": 42.3,
          "velocity": 1
        },
        {
          "duration": 0.14750000000000085,
          "durationTicks": 118,
          "midi": 82,
          "name": "A#5",
          "ticks": 33840,
          "time": 42.3,
          "velocity": 1
        },
        {
          "duration": 0.09125000000000227,
          "durationTicks": 73,
          "midi": 68,
          "name": "G#4",
          "ticks": 34000,
          "time": 42.49999999999999,
          "velocity": 1
        },
        {
          "duration": 0.09125000000000227,
          "durationTicks": 73,
          "midi": 80,
          "name": "G#5",
          "ticks": 34000,
          "time": 42.49999999999999,
          "velocity": 1
        },
        {
          "duration": 0.14750000000000085,
          "durationTicks": 118,
          "midi": 65,
          "name": "F4",
          "ticks": 34080,
          "time": 42.6,
          "velocity": 1
        },
        {
          "duration": 0.14750000000000085,
          "durationTicks": 118,
          "midi": 77,
          "name": "F5",
          "ticks": 34080,
          "time": 42.6,
          "velocity": 1
        },
        {
          "duration": 0.13125000000000142,
          "durationTicks": 105,
          "midi": 63,
          "name": "D#4",
          "ticks": 34320,
          "time": 42.9,
          "velocity": 1
        },
        {
          "duration": 0.13125000000000142,
          "durationTicks": 105,
          "midi": 75,
          "name": "D#5",
          "ticks": 34320,
          "time": 42.9,
          "velocity": 1
        },
        {
          "duration": 0.09125000000000227,
          "durationTicks": 73,
          "midi": 65,
          "name": "F4",
          "ticks": 34480,
          "time": 43.099999999999994,
          "velocity": 1
        },
        {
          "duration": 0.09125000000000227,
          "durationTicks": 73,
          "midi": 77,
          "name": "F5",
          "ticks": 34480,
          "time": 43.099999999999994,
          "velocity": 1
        },
        {
          "duration": 1.6224999999999952,
          "durationTicks": 1298,
          "midi": 65,
          "name": "F4",
          "ticks": 34720,
          "time": 43.4,
          "velocity": 1
        },
        {
          "duration": 1.6224999999999952,
          "durationTicks": 1298,
          "midi": 77,
          "name": "F5",
          "ticks": 34720,
          "time": 43.4,
          "velocity": 1
        },
        {
          "duration": 0.1249999999999929,
          "durationTicks": 100,
          "midi": 65,
          "name": "F4",
          "ticks": 36480,
          "time": 45.6,
          "velocity": 1
        },
        {
          "duration": 0.1249999999999929,
          "durationTicks": 100,
          "midi": 77,
          "name": "F5",
          "ticks": 36480,
          "time": 45.6,
          "velocity": 1
        },
        {
          "duration": 0.0975000000000037,
          "durationTicks": 78,
          "midi": 65,
          "name": "F4",
          "ticks": 36640,
          "time": 45.8,
          "velocity": 1
        },
        {
          "duration": 0.0975000000000037,
          "durationTicks": 78,
          "midi": 77,
          "name": "F5",
          "ticks": 36640,
          "time": 45.8,
          "velocity": 1
        },
        {
          "duration": 0.11875000000000568,
          "durationTicks": 95,
          "midi": 68,
          "name": "G#4",
          "ticks": 36960,
          "time": 46.199999999999996,
          "velocity": 1
        },
        {
          "duration": 0.11875000000000568,
          "durationTicks": 95,
          "midi": 80,
          "name": "G#5",
          "ticks": 36960,
          "time": 46.199999999999996,
          "velocity": 1
        },
        {
          "duration": 0.09375,
          "durationTicks": 75,
          "midi": 68,
          "name": "G#4",
          "ticks": 37120,
          "time": 46.4,
          "velocity": 1
        },
        {
          "duration": 0.09375,
          "durationTicks": 75,
          "midi": 80,
          "name": "G#5",
          "ticks": 37120,
          "time": 46.4,
          "velocity": 1
        },
        {
          "duration": 0.134999999999998,
          "durationTicks": 108,
          "midi": 71,
          "name": "B4",
          "ticks": 37440,
          "time": 46.8,
          "velocity": 1
        },
        {
          "duration": 0.134999999999998,
          "durationTicks": 108,
          "midi": 83,
          "name": "B5",
          "ticks": 37440,
          "time": 46.8,
          "velocity": 1
        },
        {
          "duration": 0.08125000000000426,
          "durationTicks": 65,
          "midi": 68,
          "name": "G#4",
          "ticks": 37600,
          "time": 46.99999999999999,
          "velocity": 1
        },
        {
          "duration": 0.08125000000000426,
          "durationTicks": 65,
          "midi": 80,
          "name": "G#5",
          "ticks": 37600,
          "time": 46.99999999999999,
          "velocity": 1
        },
        {
          "duration": 0.1249999999999929,
          "durationTicks": 100,
          "midi": 71,
          "name": "B4",
          "ticks": 37680,
          "time": 47.1,
          "velocity": 1
        },
        {
          "duration": 0.1249999999999929,
          "durationTicks": 100,
          "midi": 83,
          "name": "B5",
          "ticks": 37680,
          "time": 47.1,
          "velocity": 1
        },
        {
          "duration": 0.08125000000000426,
          "durationTicks": 65,
          "midi": 68,
          "name": "G#4",
          "ticks": 37840,
          "time": 47.3,
          "velocity": 1
        },
        {
          "duration": 0.08125000000000426,
          "durationTicks": 65,
          "midi": 80,
          "name": "G#5",
          "ticks": 37840,
          "time": 47.3,
          "velocity": 1
        },
        {
          "duration": 0.17249999999999943,
          "durationTicks": 138,
          "midi": 65,
          "name": "F4",
          "ticks": 37920,
          "time": 47.4,
          "velocity": 1
        },
        {
          "duration": 0.17249999999999943,
          "durationTicks": 138,
          "midi": 77,
          "name": "F5",
          "ticks": 37920,
          "time": 47.4,
          "velocity": 1
        },
        {
          "duration": 0.14374999999999716,
          "durationTicks": 115,
          "midi": 62,
          "name": "D4",
          "ticks": 38160,
          "time": 47.699999999999996,
          "velocity": 1
        },
        {
          "duration": 0.14374999999999716,
          "durationTicks": 115,
          "midi": 74,
          "name": "D5",
          "ticks": 38160,
          "time": 47.699999999999996,
          "velocity": 1
        },
        {
          "duration": 0.10000000000000142,
          "durationTicks": 80,
          "midi": 65,
          "name": "F4",
          "ticks": 38320,
          "time": 47.9,
          "velocity": 1
        },
        {
          "duration": 0.10000000000000142,
          "durationTicks": 80,
          "midi": 77,
          "name": "F5",
          "ticks": 38320,
          "time": 47.9,
          "velocity": 1
        },
        {
          "duration": 1.7287500000000051,
          "durationTicks": 1383,
          "midi": 65,
          "name": "F4",
          "ticks": 38560,
          "time": 48.199999999999996,
          "velocity": 1
        },
        {
          "duration": 1.6287500000000037,
          "durationTicks": 1303,
          "midi": 77,
          "name": "F5",
          "ticks": 38560,
          "time": 48.199999999999996,
          "velocity": 1
        },
        {
          "duration": 0.09125000000000227,
          "durationTicks": 73,
          "midi": 62,
          "name": "D4",
          "ticks": 40000,
          "time": 49.99999999999999,
          "velocity": 1
        },
        {
          "duration": 0.09125000000000227,
          "durationTicks": 73,
          "midi": 74,
          "name": "D5",
          "ticks": 40000,
          "time": 49.99999999999999,
          "velocity": 1
        },
        {
          "duration": 0.09749999999999659,
          "durationTicks": 78,
          "midi": 65,
          "name": "F4",
          "ticks": 40080,
          "time": 50.1,
          "velocity": 1
        },
        {
          "duration": 0.08124999999999716,
          "durationTicks": 65,
          "midi": 77,
          "name": "F5",
          "ticks": 40080,
          "time": 50.1,
          "velocity": 1
        },
        {
          "duration": 0.09375,
          "durationTicks": 75,
          "midi": 67,
          "name": "G4",
          "ticks": 40160,
          "time": 50.2,
          "velocity": 1
        },
        {
          "duration": 0.09375,
          "durationTicks": 75,
          "midi": 79,
          "name": "G5",
          "ticks": 40160,
          "time": 50.2,
          "velocity": 1
        },
        {
          "duration": 0.06875000000000142,
          "durationTicks": 55,
          "midi": 70,
          "name": "A#4",
          "ticks": 40240,
          "time": 50.3,
          "velocity": 1
        },
        {
          "duration": 0.06875000000000142,
          "durationTicks": 55,
          "midi": 82,
          "name": "A#5",
          "ticks": 40240,
          "time": 50.3,
          "velocity": 1
        },
        {
          "duration": 0.3374999999999986,
          "durationTicks": 270,
          "midi": 71,
          "name": "B4",
          "ticks": 40320,
          "time": 50.4,
          "velocity": 1
        },
        {
          "duration": 0.3374999999999986,
          "durationTicks": 270,
          "midi": 83,
          "name": "B5",
          "ticks": 40320,
          "time": 50.4,
          "velocity": 1
        },
        {
          "duration": 0.17249999999999943,
          "durationTicks": 138,
          "midi": 68,
          "name": "G#4",
          "ticks": 40560,
          "time": 50.699999999999996,
          "velocity": 1
        },
        {
          "duration": 0.17249999999999943,
          "durationTicks": 138,
          "midi": 80,
          "name": "G#5",
          "ticks": 40560,
          "time": 50.699999999999996,
          "velocity": 1
        },
        {
          "duration": 0.08499999999999375,
          "durationTicks": 68,
          "midi": 66,
          "name": "F#4",
          "ticks": 40715,
          "time": 50.893750000000004,
          "velocity": 1
        },
        {
          "duration": 0.08499999999999375,
          "durationTicks": 68,
          "midi": 78,
          "name": "F#5",
          "ticks": 40715,
          "time": 50.893750000000004,
          "velocity": 1
        },
        {
          "duration": 0.24125000000000085,
          "durationTicks": 193,
          "midi": 71,
          "name": "B4",
          "ticks": 40800,
          "time": 51,
          "velocity": 1
        },
        {
          "duration": 0.24125000000000085,
          "durationTicks": 193,
          "midi": 83,
          "name": "B5",
          "ticks": 40800,
          "time": 51,
          "velocity": 1
        },
        {
          "duration": 0.13750000000000284,
          "durationTicks": 110,
          "midi": 68,
          "name": "G#4",
          "ticks": 41040,
          "time": 51.3,
          "velocity": 1
        },
        {
          "duration": 0.13750000000000284,
          "durationTicks": 110,
          "midi": 80,
          "name": "G#5",
          "ticks": 41040,
          "time": 51.3,
          "velocity": 1
        },
        {
          "duration": 0.07874999999999943,
          "durationTicks": 63,
          "midi": 66,
          "name": "F#4",
          "ticks": 41195,
          "time": 51.49375,
          "velocity": 1
        },
        {
          "duration": 0.07874999999999943,
          "durationTicks": 63,
          "midi": 78,
          "name": "F#5",
          "ticks": 41195,
          "time": 51.49375,
          "velocity": 1
        },
        {
          "duration": 0.19999999999999574,
          "durationTicks": 160,
          "midi": 71,
          "name": "B4",
          "ticks": 41280,
          "time": 51.6,
          "velocity": 1
        },
        {
          "duration": 0.19999999999999574,
          "durationTicks": 160,
          "midi": 83,
          "name": "B5",
          "ticks": 41280,
          "time": 51.6,
          "velocity": 1
        },
        {
          "duration": 0.134999999999998,
          "durationTicks": 108,
          "midi": 68,
          "name": "G#4",
          "ticks": 41435,
          "time": 51.79375,
          "velocity": 1
        },
        {
          "duration": 0.134999999999998,
          "durationTicks": 108,
          "midi": 80,
          "name": "G#5",
          "ticks": 41435,
          "time": 51.79375,
          "velocity": 1
        },
        {
          "duration": 0.14374999999999716,
          "durationTicks": 115,
          "midi": 66,
          "name": "F#4",
          "ticks": 41520,
          "time": 51.9,
          "velocity": 1
        },
        {
          "duration": 0.14374999999999716,
          "durationTicks": 115,
          "midi": 78,
          "name": "F#5",
          "ticks": 41520,
          "time": 51.9,
          "velocity": 1
        },
        {
          "duration": 0.42874999999999375,
          "durationTicks": 343,
          "midi": 62,
          "name": "D4",
          "ticks": 41675,
          "time": 52.09375,
          "velocity": 1
        },
        {
          "duration": 0.42874999999999375,
          "durationTicks": 343,
          "midi": 74,
          "name": "D5",
          "ticks": 41675,
          "time": 52.09375,
          "velocity": 1
        },
        {
          "duration": 0.1249999999999929,
          "durationTicks": 100,
          "midi": 59,
          "name": "B3",
          "ticks": 42000,
          "time": 52.5,
          "velocity": 1
        },
        {
          "duration": 0.1249999999999929,
          "durationTicks": 100,
          "midi": 71,
          "name": "B4",
          "ticks": 42000,
          "time": 52.5,
          "velocity": 1
        },
        {
          "duration": 0.125,
          "durationTicks": 100,
          "midi": 71,
          "name": "B4",
          "ticks": 42395,
          "time": 52.99375,
          "velocity": 1
        },
        {
          "duration": 0.125,
          "durationTicks": 100,
          "midi": 83,
          "name": "B5",
          "ticks": 42395,
          "time": 52.99375,
          "velocity": 1
        },
        {
          "duration": 0.16249999999999432,
          "durationTicks": 130,
          "midi": 68,
          "name": "G#4",
          "ticks": 42480,
          "time": 53.1,
          "velocity": 1
        },
        {
          "duration": 0.16249999999999432,
          "durationTicks": 130,
          "midi": 80,
          "name": "G#5",
          "ticks": 42480,
          "time": 53.1,
          "velocity": 1
        },
        {
          "duration": 0.07874999999999233,
          "durationTicks": 63,
          "midi": 66,
          "name": "F#4",
          "ticks": 42635,
          "time": 53.29375,
          "velocity": 0.905511811023622
        },
        {
          "duration": 0.07874999999999233,
          "durationTicks": 63,
          "midi": 78,
          "name": "F#5",
          "ticks": 42635,
          "time": 53.29375,
          "velocity": 0.905511811023622
        },
        {
          "duration": 0.3162500000000037,
          "durationTicks": 253,
          "midi": 71,
          "name": "B4",
          "ticks": 42720,
          "time": 53.4,
          "velocity": 1
        },
        {
          "duration": 0.3162500000000037,
          "durationTicks": 253,
          "midi": 83,
          "name": "B5",
          "ticks": 42720,
          "time": 53.4,
          "velocity": 1
        },
        {
          "duration": 0.125,
          "durationTicks": 100,
          "midi": 68,
          "name": "G#4",
          "ticks": 42960,
          "time": 53.699999999999996,
          "velocity": 1
        },
        {
          "duration": 0.125,
          "durationTicks": 100,
          "midi": 80,
          "name": "G#5",
          "ticks": 42960,
          "time": 53.699999999999996,
          "velocity": 1
        },
        {
          "duration": 0.0724999999999909,
          "durationTicks": 58,
          "midi": 66,
          "name": "F#4",
          "ticks": 43115,
          "time": 53.893750000000004,
          "velocity": 1
        },
        {
          "duration": 0.0724999999999909,
          "durationTicks": 58,
          "midi": 78,
          "name": "F#5",
          "ticks": 43115,
          "time": 53.893750000000004,
          "velocity": 1
        },
        {
          "duration": 0.14750000000000085,
          "durationTicks": 118,
          "midi": 71,
          "name": "B4",
          "ticks": 43200,
          "time": 54,
          "velocity": 1
        },
        {
          "duration": 0.14750000000000085,
          "durationTicks": 118,
          "midi": 83,
          "name": "B5",
          "ticks": 43200,
          "time": 54,
          "velocity": 1
        },
        {
          "duration": 0.13125000000000142,
          "durationTicks": 105,
          "midi": 68,
          "name": "G#4",
          "ticks": 43355,
          "time": 54.19375,
          "velocity": 1
        },
        {
          "duration": 0.13125000000000142,
          "durationTicks": 105,
          "midi": 80,
          "name": "G#5",
          "ticks": 43355,
          "time": 54.19375,
          "velocity": 1
        },
        {
          "duration": 0.125,
          "durationTicks": 100,
          "midi": 66,
          "name": "F#4",
          "ticks": 43440,
          "time": 54.3,
          "velocity": 1
        },
        {
          "duration": 0.125,
          "durationTicks": 100,
          "midi": 78,
          "name": "F#5",
          "ticks": 43440,
          "time": 54.3,
          "velocity": 1
        },
        {
          "duration": 0.39375000000000426,
          "durationTicks": 315,
          "midi": 74,
          "name": "D5",
          "ticks": 43595,
          "time": 54.49375,
          "velocity": 1
        },
        {
          "duration": 0.39375000000000426,
          "durationTicks": 315,
          "midi": 86,
          "name": "D6",
          "ticks": 43595,
          "time": 54.49375,
          "velocity": 1
        },
        {
          "duration": 0.11875000000000568,
          "durationTicks": 95,
          "midi": 71,
          "name": "B4",
          "ticks": 43920,
          "time": 54.9,
          "velocity": 1
        },
        {
          "duration": 0.11875000000000568,
          "durationTicks": 95,
          "midi": 83,
          "name": "B5",
          "ticks": 43920,
          "time": 54.9,
          "velocity": 1
        },
        {
          "duration": 0.14124999999999943,
          "durationTicks": 113,
          "midi": 71,
          "name": "B4",
          "ticks": 44315,
          "time": 55.393750000000004,
          "velocity": 1
        },
        {
          "duration": 0.14124999999999943,
          "durationTicks": 113,
          "midi": 83,
          "name": "B5",
          "ticks": 44315,
          "time": 55.393750000000004,
          "velocity": 1
        },
        {
          "duration": 0.13750000000000284,
          "durationTicks": 110,
          "midi": 68,
          "name": "G#4",
          "ticks": 44400,
          "time": 55.5,
          "velocity": 1
        },
        {
          "duration": 0.13750000000000284,
          "durationTicks": 110,
          "midi": 80,
          "name": "G#5",
          "ticks": 44400,
          "time": 55.5,
          "velocity": 1
        },
        {
          "duration": 0.03125,
          "durationTicks": 25,
          "midi": 66,
          "name": "F#4",
          "ticks": 44555,
          "time": 55.69375,
          "velocity": 0.9763779527559056
        },
        {
          "duration": 0.03125,
          "durationTicks": 25,
          "midi": 78,
          "name": "F#5",
          "ticks": 44555,
          "time": 55.69375,
          "velocity": 0.9763779527559056
        },
        {
          "duration": 0.3500000000000014,
          "durationTicks": 280,
          "midi": 71,
          "name": "B4",
          "ticks": 44640,
          "time": 55.8,
          "velocity": 1
        },
        {
          "duration": 0.3500000000000014,
          "durationTicks": 280,
          "midi": 83,
          "name": "B5",
          "ticks": 44640,
          "time": 55.8,
          "velocity": 1
        },
        {
          "duration": 0.15374999999999517,
          "durationTicks": 123,
          "midi": 68,
          "name": "G#4",
          "ticks": 44880,
          "time": 56.1,
          "velocity": 1
        },
        {
          "duration": 0.15374999999999517,
          "durationTicks": 123,
          "midi": 80,
          "name": "G#5",
          "ticks": 44880,
          "time": 56.1,
          "velocity": 1
        },
        {
          "duration": 0.08749999999999858,
          "durationTicks": 70,
          "midi": 66,
          "name": "F#4",
          "ticks": 45035,
          "time": 56.29375,
          "velocity": 1
        },
        {
          "duration": 0.08749999999999858,
          "durationTicks": 70,
          "midi": 78,
          "name": "F#5",
          "ticks": 45035,
          "time": 56.29375,
          "velocity": 1
        },
        {
          "duration": 0.25,
          "durationTicks": 200,
          "midi": 71,
          "name": "B4",
          "ticks": 45120,
          "time": 56.4,
          "velocity": 1
        },
        {
          "duration": 0.25,
          "durationTicks": 200,
          "midi": 83,
          "name": "B5",
          "ticks": 45120,
          "time": 56.4,
          "velocity": 1
        },
        {
          "duration": 0.14749999999999375,
          "durationTicks": 118,
          "midi": 68,
          "name": "G#4",
          "ticks": 45275,
          "time": 56.59375,
          "velocity": 1
        },
        {
          "duration": 0.14749999999999375,
          "durationTicks": 118,
          "midi": 80,
          "name": "G#5",
          "ticks": 45275,
          "time": 56.59375,
          "velocity": 1
        },
        {
          "duration": 0.14750000000000796,
          "durationTicks": 118,
          "midi": 66,
          "name": "F#4",
          "ticks": 45360,
          "time": 56.699999999999996,
          "velocity": 1
        },
        {
          "duration": 0.14750000000000796,
          "durationTicks": 118,
          "midi": 78,
          "name": "F#5",
          "ticks": 45360,
          "time": 56.699999999999996,
          "velocity": 1
        },
        {
          "duration": 0.4624999999999915,
          "durationTicks": 370,
          "midi": 62,
          "name": "D4",
          "ticks": 45515,
          "time": 56.893750000000004,
          "velocity": 1
        },
        {
          "duration": 0.4624999999999915,
          "durationTicks": 370,
          "midi": 74,
          "name": "D5",
          "ticks": 45515,
          "time": 56.893750000000004,
          "velocity": 1
        },
        {
          "duration": 0.11250000000000426,
          "durationTicks": 90,
          "midi": 59,
          "name": "B3",
          "ticks": 45840,
          "time": 57.3,
          "velocity": 1
        },
        {
          "duration": 0.11250000000000426,
          "durationTicks": 90,
          "midi": 71,
          "name": "B4",
          "ticks": 45840,
          "time": 57.3,
          "velocity": 1
        },
        {
          "duration": 0.18124999999999858,
          "durationTicks": 145,
          "midi": 68,
          "name": "G#4",
          "ticks": 46080,
          "time": 57.599999999999994,
          "velocity": 1
        },
        {
          "duration": 0.18124999999999858,
          "durationTicks": 145,
          "midi": 80,
          "name": "G#5",
          "ticks": 46080,
          "time": 57.599999999999994,
          "velocity": 1
        },
        {
          "duration": 0.17875000000000085,
          "durationTicks": 143,
          "midi": 66,
          "name": "F#4",
          "ticks": 46320,
          "time": 57.9,
          "velocity": 1
        },
        {
          "duration": 0.17875000000000085,
          "durationTicks": 143,
          "midi": 78,
          "name": "F#5",
          "ticks": 46320,
          "time": 57.9,
          "velocity": 1
        },
        {
          "duration": 0.16250000000000142,
          "durationTicks": 130,
          "midi": 68,
          "name": "G#4",
          "ticks": 46560,
          "time": 58.199999999999996,
          "velocity": 1
        },
        {
          "duration": 0.16250000000000142,
          "durationTicks": 130,
          "midi": 80,
          "name": "G#5",
          "ticks": 46560,
          "time": 58.199999999999996,
          "velocity": 1
        },
        {
          "duration": 0.13749999999999574,
          "durationTicks": 110,
          "midi": 66,
          "name": "F#4",
          "ticks": 46715,
          "time": 58.39375,
          "velocity": 1
        },
        {
          "duration": 0.32874999999999943,
          "durationTicks": 263,
          "midi": 78,
          "name": "F#5",
          "ticks": 46715,
          "time": 58.39375,
          "velocity": 1
        },
        {
          "duration": 0.2287499999999909,
          "durationTicks": 183,
          "midi": 62,
          "name": "D4",
          "ticks": 46800,
          "time": 58.5,
          "velocity": 1
        },
        {
          "duration": 0.037499999999994316,
          "durationTicks": 30,
          "midi": 74,
          "name": "D5",
          "ticks": 46800,
          "time": 58.5,
          "velocity": 1
        },
        {
          "duration": 0.12249999999999517,
          "durationTicks": 98,
          "midi": 59,
          "name": "B3",
          "ticks": 46955,
          "time": 58.69375,
          "velocity": 1
        },
        {
          "duration": 0.12249999999999517,
          "durationTicks": 98,
          "midi": 71,
          "name": "B4",
          "ticks": 46955,
          "time": 58.69375,
          "velocity": 1
        },
        {
          "duration": 0.2974999999999923,
          "durationTicks": 238,
          "midi": 59,
          "name": "B3",
          "ticks": 47195,
          "time": 58.99375,
          "velocity": 1
        },
        {
          "duration": 0.2974999999999923,
          "durationTicks": 238,
          "midi": 71,
          "name": "B4",
          "ticks": 47195,
          "time": 58.99375,
          "velocity": 1
        },
        {
          "duration": 0.3374999999999986,
          "durationTicks": 270,
          "midi": 71,
          "name": "B4",
          "ticks": 48000,
          "time": 60,
          "velocity": 1
        },
        {
          "duration": 0.3374999999999986,
          "durationTicks": 270,
          "midi": 83,
          "name": "B5",
          "ticks": 48000,
          "time": 60,
          "velocity": 1
        },
        {
          "duration": 0.17249999999999943,
          "durationTicks": 138,
          "midi": 68,
          "name": "G#4",
          "ticks": 48240,
          "time": 60.3,
          "velocity": 1
        },
        {
          "duration": 0.17249999999999943,
          "durationTicks": 138,
          "midi": 80,
          "name": "G#5",
          "ticks": 48240,
          "time": 60.3,
          "velocity": 1
        },
        {
          "duration": 0.08500000000000085,
          "durationTicks": 68,
          "midi": 66,
          "name": "F#4",
          "ticks": 48395,
          "time": 60.49375,
          "velocity": 1
        },
        {
          "duration": 0.08500000000000085,
          "durationTicks": 68,
          "midi": 78,
          "name": "F#5",
          "ticks": 48395,
          "time": 60.49375,
          "velocity": 1
        },
        {
          "duration": 0.24125000000000796,
          "durationTicks": 193,
          "midi": 71,
          "name": "B4",
          "ticks": 48480,
          "time": 60.599999999999994,
          "velocity": 1
        },
        {
          "duration": 0.24125000000000796,
          "durationTicks": 193,
          "midi": 83,
          "name": "B5",
          "ticks": 48480,
          "time": 60.599999999999994,
          "velocity": 1
        },
        {
          "duration": 0.13750000000000284,
          "durationTicks": 110,
          "midi": 68,
          "name": "G#4",
          "ticks": 48720,
          "time": 60.9,
          "velocity": 1
        },
        {
          "duration": 0.13750000000000284,
          "durationTicks": 110,
          "midi": 80,
          "name": "G#5",
          "ticks": 48720,
          "time": 60.9,
          "velocity": 1
        },
        {
          "duration": 0.07874999999999943,
          "durationTicks": 63,
          "midi": 66,
          "name": "F#4",
          "ticks": 48875,
          "time": 61.09375,
          "velocity": 1
        },
        {
          "duration": 0.07874999999999943,
          "durationTicks": 63,
          "midi": 78,
          "name": "F#5",
          "ticks": 48875,
          "time": 61.09375,
          "velocity": 1
        },
        {
          "duration": 0.19999999999999574,
          "durationTicks": 160,
          "midi": 71,
          "name": "B4",
          "ticks": 48960,
          "time": 61.199999999999996,
          "velocity": 1
        },
        {
          "duration": 0.19999999999999574,
          "durationTicks": 160,
          "midi": 83,
          "name": "B5",
          "ticks": 48960,
          "time": 61.199999999999996,
          "velocity": 1
        },
        {
          "duration": 0.134999999999998,
          "durationTicks": 108,
          "midi": 68,
          "name": "G#4",
          "ticks": 49115,
          "time": 61.39375,
          "velocity": 1
        },
        {
          "duration": 0.134999999999998,
          "durationTicks": 108,
          "midi": 80,
          "name": "G#5",
          "ticks": 49115,
          "time": 61.39375,
          "velocity": 1
        },
        {
          "duration": 0.14374999999999716,
          "durationTicks": 115,
          "midi": 66,
          "name": "F#4",
          "ticks": 49200,
          "time": 61.5,
          "velocity": 1
        },
        {
          "duration": 0.14374999999999716,
          "durationTicks": 115,
          "midi": 78,
          "name": "F#5",
          "ticks": 49200,
          "time": 61.5,
          "velocity": 1
        },
        {
          "duration": 0.42874999999999375,
          "durationTicks": 343,
          "midi": 62,
          "name": "D4",
          "ticks": 49355,
          "time": 61.69375,
          "velocity": 1
        },
        {
          "duration": 0.42874999999999375,
          "durationTicks": 343,
          "midi": 74,
          "name": "D5",
          "ticks": 49355,
          "time": 61.69375,
          "velocity": 1
        },
        {
          "duration": 0.125,
          "durationTicks": 100,
          "midi": 59,
          "name": "B3",
          "ticks": 49680,
          "time": 62.099999999999994,
          "velocity": 1
        },
        {
          "duration": 0.125,
          "durationTicks": 100,
          "midi": 71,
          "name": "B4",
          "ticks": 49680,
          "time": 62.099999999999994,
          "velocity": 1
        },
        {
          "duration": 0.125,
          "durationTicks": 100,
          "midi": 71,
          "name": "B4",
          "ticks": 50075,
          "time": 62.59375,
          "velocity": 1
        },
        {
          "duration": 0.125,
          "durationTicks": 100,
          "midi": 83,
          "name": "B5",
          "ticks": 50075,
          "time": 62.59375,
          "velocity": 1
        },
        {
          "duration": 0.16250000000000142,
          "durationTicks": 130,
          "midi": 68,
          "name": "G#4",
          "ticks": 50160,
          "time": 62.699999999999996,
          "velocity": 1
        },
        {
          "duration": 0.16250000000000142,
          "durationTicks": 130,
          "midi": 80,
          "name": "G#5",
          "ticks": 50160,
          "time": 62.699999999999996,
          "velocity": 1
        },
        {
          "duration": 0.07874999999999943,
          "durationTicks": 63,
          "midi": 66,
          "name": "F#4",
          "ticks": 50315,
          "time": 62.89375,
          "velocity": 0.905511811023622
        },
        {
          "duration": 0.07874999999999943,
          "durationTicks": 63,
          "midi": 78,
          "name": "F#5",
          "ticks": 50315,
          "time": 62.89375,
          "velocity": 0.905511811023622
        },
        {
          "duration": 0.3162499999999966,
          "durationTicks": 253,
          "midi": 71,
          "name": "B4",
          "ticks": 50400,
          "time": 63,
          "velocity": 1
        },
        {
          "duration": 0.3162499999999966,
          "durationTicks": 253,
          "midi": 83,
          "name": "B5",
          "ticks": 50400,
          "time": 63,
          "velocity": 1
        },
        {
          "duration": 0.125,
          "durationTicks": 100,
          "midi": 68,
          "name": "G#4",
          "ticks": 50640,
          "time": 63.3,
          "velocity": 1
        },
        {
          "duration": 0.125,
          "durationTicks": 100,
          "midi": 80,
          "name": "G#5",
          "ticks": 50640,
          "time": 63.3,
          "velocity": 1
        },
        {
          "duration": 0.07249999999999801,
          "durationTicks": 58,
          "midi": 66,
          "name": "F#4",
          "ticks": 50795,
          "time": 63.49375,
          "velocity": 1
        },
        {
          "duration": 0.07249999999999801,
          "durationTicks": 58,
          "midi": 78,
          "name": "F#5",
          "ticks": 50795,
          "time": 63.49375,
          "velocity": 1
        },
        {
          "duration": 0.14750000000000796,
          "durationTicks": 118,
          "midi": 71,
          "name": "B4",
          "ticks": 50880,
          "time": 63.599999999999994,
          "velocity": 1
        },
        {
          "duration": 0.14750000000000796,
          "durationTicks": 118,
          "midi": 83,
          "name": "B5",
          "ticks": 50880,
          "time": 63.599999999999994,
          "velocity": 1
        },
        {
          "duration": 0.13124999999999432,
          "durationTicks": 105,
          "midi": 68,
          "name": "G#4",
          "ticks": 51035,
          "time": 63.79375,
          "velocity": 1
        },
        {
          "duration": 0.13124999999999432,
          "durationTicks": 105,
          "midi": 80,
          "name": "G#5",
          "ticks": 51035,
          "time": 63.79375,
          "velocity": 1
        },
        {
          "duration": 0.1249999999999929,
          "durationTicks": 100,
          "midi": 66,
          "name": "F#4",
          "ticks": 51120,
          "time": 63.9,
          "velocity": 1
        },
        {
          "duration": 0.1249999999999929,
          "durationTicks": 100,
          "midi": 78,
          "name": "F#5",
          "ticks": 51120,
          "time": 63.9,
          "velocity": 1
        },
        {
          "duration": 0.39374999999999716,
          "durationTicks": 315,
          "midi": 74,
          "name": "D5",
          "ticks": 51275,
          "time": 64.09375,
          "velocity": 1
        },
        {
          "duration": 0.39374999999999716,
          "durationTicks": 315,
          "midi": 86,
          "name": "D6",
          "ticks": 51275,
          "time": 64.09375,
          "velocity": 1
        },
        {
          "duration": 0.11875000000000568,
          "durationTicks": 95,
          "midi": 71,
          "name": "B4",
          "ticks": 51600,
          "time": 64.5,
          "velocity": 1
        },
        {
          "duration": 0.11875000000000568,
          "durationTicks": 95,
          "midi": 83,
          "name": "B5",
          "ticks": 51600,
          "time": 64.5,
          "velocity": 1
        },
        {
          "duration": 0.14124999999999943,
          "durationTicks": 113,
          "midi": 71,
          "name": "B4",
          "ticks": 51995,
          "time": 64.99375,
          "velocity": 1
        },
        {
          "duration": 0.14124999999999943,
          "durationTicks": 113,
          "midi": 83,
          "name": "B5",
          "ticks": 51995,
          "time": 64.99375,
          "velocity": 1
        },
        {
          "duration": 0.13750000000000284,
          "durationTicks": 110,
          "midi": 68,
          "name": "G#4",
          "ticks": 52080,
          "time": 65.1,
          "velocity": 1
        },
        {
          "duration": 0.13750000000000284,
          "durationTicks": 110,
          "midi": 80,
          "name": "G#5",
          "ticks": 52080,
          "time": 65.1,
          "velocity": 1
        },
        {
          "duration": 0.03125,
          "durationTicks": 25,
          "midi": 66,
          "name": "F#4",
          "ticks": 52235,
          "time": 65.29375,
          "velocity": 0.9763779527559056
        },
        {
          "duration": 0.03125,
          "durationTicks": 25,
          "midi": 78,
          "name": "F#5",
          "ticks": 52235,
          "time": 65.29375,
          "velocity": 0.9763779527559056
        },
        {
          "duration": 0.3500000000000085,
          "durationTicks": 280,
          "midi": 71,
          "name": "B4",
          "ticks": 52320,
          "time": 65.39999999999999,
          "velocity": 1
        },
        {
          "duration": 0.3500000000000085,
          "durationTicks": 280,
          "midi": 83,
          "name": "B5",
          "ticks": 52320,
          "time": 65.39999999999999,
          "velocity": 1
        },
        {
          "duration": 0.15374999999998806,
          "durationTicks": 123,
          "midi": 68,
          "name": "G#4",
          "ticks": 52560,
          "time": 65.7,
          "velocity": 1
        },
        {
          "duration": 0.15374999999998806,
          "durationTicks": 123,
          "midi": 80,
          "name": "G#5",
          "ticks": 52560,
          "time": 65.7,
          "velocity": 1
        },
        {
          "duration": 0.08750000000000568,
          "durationTicks": 70,
          "midi": 66,
          "name": "F#4",
          "ticks": 52715,
          "time": 65.89375,
          "velocity": 1
        },
        {
          "duration": 0.08750000000000568,
          "durationTicks": 70,
          "midi": 78,
          "name": "F#5",
          "ticks": 52715,
          "time": 65.89375,
          "velocity": 1
        },
        {
          "duration": 0.25,
          "durationTicks": 200,
          "midi": 71,
          "name": "B4",
          "ticks": 52800,
          "time": 66,
          "velocity": 1
        },
        {
          "duration": 0.25,
          "durationTicks": 200,
          "midi": 83,
          "name": "B5",
          "ticks": 52800,
          "time": 66,
          "velocity": 1
        },
        {
          "duration": 0.14749999999999375,
          "durationTicks": 118,
          "midi": 68,
          "name": "G#4",
          "ticks": 52955,
          "time": 66.19375,
          "velocity": 1
        },
        {
          "duration": 0.14749999999999375,
          "durationTicks": 118,
          "midi": 80,
          "name": "G#5",
          "ticks": 52955,
          "time": 66.19375,
          "velocity": 1
        },
        {
          "duration": 0.14750000000000796,
          "durationTicks": 118,
          "midi": 66,
          "name": "F#4",
          "ticks": 53040,
          "time": 66.3,
          "velocity": 1
        },
        {
          "duration": 0.14750000000000796,
          "durationTicks": 118,
          "midi": 78,
          "name": "F#5",
          "ticks": 53040,
          "time": 66.3,
          "velocity": 1
        },
        {
          "duration": 0.4624999999999915,
          "durationTicks": 370,
          "midi": 62,
          "name": "D4",
          "ticks": 53195,
          "time": 66.49375,
          "velocity": 1
        },
        {
          "duration": 0.4624999999999915,
          "durationTicks": 370,
          "midi": 74,
          "name": "D5",
          "ticks": 53195,
          "time": 66.49375,
          "velocity": 1
        },
        {
          "duration": 0.11250000000001137,
          "durationTicks": 90,
          "midi": 59,
          "name": "B3",
          "ticks": 53520,
          "time": 66.89999999999999,
          "velocity": 1
        },
        {
          "duration": 0.11250000000001137,
          "durationTicks": 90,
          "midi": 71,
          "name": "B4",
          "ticks": 53520,
          "time": 66.89999999999999,
          "velocity": 1
        },
        {
          "duration": 0.13500000000000512,
          "durationTicks": 108,
          "midi": 68,
          "name": "G#4",
          "ticks": 54720,
          "time": 68.39999999999999,
          "velocity": 1
        },
        {
          "duration": 0.13500000000000512,
          "durationTicks": 108,
          "midi": 80,
          "name": "G#5",
          "ticks": 54720,
          "time": 68.39999999999999,
          "velocity": 1
        },
        {
          "duration": 0.13124999999999432,
          "durationTicks": 105,
          "midi": 69,
          "name": "A4",
          "ticks": 54875,
          "time": 68.59375,
          "velocity": 1
        },
        {
          "duration": 0.13124999999999432,
          "durationTicks": 105,
          "midi": 81,
          "name": "A5",
          "ticks": 54875,
          "time": 68.59375,
          "velocity": 1
        },
        {
          "duration": 0.14749999999999375,
          "durationTicks": 118,
          "midi": 68,
          "name": "G#4",
          "ticks": 54960,
          "time": 68.7,
          "velocity": 1
        },
        {
          "duration": 0.14749999999999375,
          "durationTicks": 118,
          "midi": 80,
          "name": "G#5",
          "ticks": 54960,
          "time": 68.7,
          "velocity": 1
        },
        {
          "duration": 0.1662499999999909,
          "durationTicks": 133,
          "midi": 67,
          "name": "G4",
          "ticks": 55115,
          "time": 68.89375,
          "velocity": 1
        },
        {
          "duration": 0.1662499999999909,
          "durationTicks": 133,
          "midi": 79,
          "name": "G5",
          "ticks": 55115,
          "time": 68.89375,
          "velocity": 1
        },
        {
          "duration": 0.14124999999999943,
          "durationTicks": 113,
          "midi": 66,
          "name": "F#4",
          "ticks": 55200,
          "time": 69,
          "velocity": 1
        },
        {
          "duration": 0.14124999999999943,
          "durationTicks": 113,
          "midi": 78,
          "name": "F#5",
          "ticks": 55200,
          "time": 69,
          "velocity": 1
        },
        {
          "duration": 0.14374999999999716,
          "durationTicks": 115,
          "midi": 64,
          "name": "E4",
          "ticks": 55355,
          "time": 69.19375,
          "velocity": 1
        },
        {
          "duration": 0.14374999999999716,
          "durationTicks": 115,
          "midi": 76,
          "name": "E5",
          "ticks": 55355,
          "time": 69.19375,
          "velocity": 1
        },
        {
          "duration": 0.14374999999999716,
          "durationTicks": 115,
          "midi": 65,
          "name": "F4",
          "ticks": 55440,
          "time": 69.3,
          "velocity": 1
        },
        {
          "duration": 0.14374999999999716,
          "durationTicks": 115,
          "midi": 77,
          "name": "F5",
          "ticks": 55440,
          "time": 69.3,
          "velocity": 1
        },
        {
          "duration": 0.056249999999991473,
          "durationTicks": 45,
          "midi": 70,
          "name": "A#4",
          "ticks": 55595,
          "time": 69.49375,
          "velocity": 1
        },
        {
          "duration": 0.056249999999991473,
          "durationTicks": 45,
          "midi": 82,
          "name": "A#5",
          "ticks": 55595,
          "time": 69.49375,
          "velocity": 1
        },
        {
          "duration": 0.5725000000000051,
          "durationTicks": 458,
          "midi": 67,
          "name": "G4",
          "ticks": 55680,
          "time": 69.6,
          "velocity": 1
        },
        {
          "duration": 0.5687500000000085,
          "durationTicks": 455,
          "midi": 79,
          "name": "G5",
          "ticks": 55680,
          "time": 69.6,
          "velocity": 1
        },
        {
          "duration": 0.29999999999999716,
          "durationTicks": 240,
          "midi": 65,
          "name": "F4",
          "ticks": 56160,
          "time": 70.2,
          "velocity": 1
        },
        {
          "duration": 0.29999999999999716,
          "durationTicks": 240,
          "midi": 77,
          "name": "F5",
          "ticks": 56160,
          "time": 70.2,
          "velocity": 1
        }
      ]
    },
    {
      "channel": 0,
      "controlChanges": {
        "11": [
          {
            "number": 11,
            "ticks": 0,
            "time": 0,
            "value": 1
          }
        ]
      },
      "pitchBends": [],
      "instrument": {
        "family": "piano",
        "number": 0,
        "name": "acoustic grand piano"
      },
      "name": "demo1_with_lyrics",
      "notes": [],
      "endOfTrackTicks": 57600
    },
    {
      "channel": 0,
      "controlChanges": {
        "7": [
          {
            "number": 7,
            "ticks": 480,
            "time": 0.6,
            "value": 0.7874015748031497
          }
        ],
        "10": [
          {
            "number": 10,
            "ticks": 480,
            "time": 0.6,
            "value": 0.5039370078740157
          }
        ],
        "91": [
          {
            "number": 91,
            "ticks": 480,
            "time": 0.6,
            "value": 0.33858267716535434
          }
        ],
        "93": [
          {
            "number": 93,
            "ticks": 480,
            "time": 0.6,
            "value": 0.7244094488188977
          }
        ]
      },
      "pitchBends": [],
      "instrument": {
        "family": "piano",
        "number": 5,
        "name": "electric piano 2"
      },
      "name": "",
      "notes": [
        {
          "duration": 2.1687499999999997,
          "durationTicks": 1735,
          "midi": 56,
          "name": "G#3",
          "ticks": 1920,
          "time": 2.4,
          "velocity": 0.889763779527559
        },
        {
          "duration": 2.18125,
          "durationTicks": 1745,
          "midi": 63,
          "name": "D#4",
          "ticks": 1920,
          "time": 2.4,
          "velocity": 0.8503937007874016
        },
        {
          "duration": 2.2100000000000004,
          "durationTicks": 1768,
          "midi": 67,
          "name": "G4",
          "ticks": 1920,
          "time": 2.4,
          "velocity": 0.8346456692913385
        },
        {
          "duration": 2.2062499999999994,
          "durationTicks": 1765,
          "midi": 70,
          "name": "A#4",
          "ticks": 1920,
          "time": 2.4,
          "velocity": 0.8582677165354331
        },
        {
          "duration": 2.3062500000000012,
          "durationTicks": 1845,
          "midi": 56,
          "name": "G#3",
          "ticks": 3760,
          "time": 4.699999999999999,
          "velocity": 0.8661417322834646
        },
        {
          "duration": 2.29375,
          "durationTicks": 1835,
          "midi": 62,
          "name": "D4",
          "ticks": 3760,
          "time": 4.699999999999999,
          "velocity": 0.8031496062992126
        },
        {
          "duration": 2.343750000000001,
          "durationTicks": 1875,
          "midi": 67,
          "name": "G4",
          "ticks": 3760,
          "time": 4.699999999999999,
          "velocity": 0.8188976377952756
        },
        {
          "duration": 2.335,
          "durationTicks": 1868,
          "midi": 70,
          "name": "A#4",
          "ticks": 3760,
          "time": 4.699999999999999,
          "velocity": 0.8188976377952756
        },
        {
          "duration": 2.110000000000001,
          "durationTicks": 1688,
          "midi": 56,
          "name": "G#3",
          "ticks": 5760,
          "time": 7.199999999999999,
          "velocity": 0.8503937007874016
        },
        {
          "duration": 2.125,
          "durationTicks": 1700,
          "midi": 63,
          "name": "D#4",
          "ticks": 5760,
          "time": 7.199999999999999,
          "velocity": 0.8188976377952756
        },
        {
          "duration": 2.1412499999999994,
          "durationTicks": 1713,
          "midi": 67,
          "name": "G4",
          "ticks": 5760,
          "time": 7.199999999999999,
          "velocity": 0.8031496062992126
        },
        {
          "duration": 2.1412499999999994,
          "durationTicks": 1713,
          "midi": 70,
          "name": "A#4",
          "ticks": 5760,
          "time": 7.199999999999999,
          "velocity": 0.8031496062992126
        },
        {
          "duration": 2.2849999999999984,
          "durationTicks": 1828,
          "midi": 56,
          "name": "G#3",
          "ticks": 7600,
          "time": 9.5,
          "velocity": 0.889763779527559
        },
        {
          "duration": 2.29125,
          "durationTicks": 1833,
          "midi": 62,
          "name": "D4",
          "ticks": 7600,
          "time": 9.5,
          "velocity": 0.8661417322834646
        },
        {
          "duration": 2.3100000000000005,
          "durationTicks": 1848,
          "midi": 67,
          "name": "G4",
          "ticks": 7600,
          "time": 9.5,
          "velocity": 0.8661417322834646
        },
        {
          "duration": 2.3100000000000005,
          "durationTicks": 1848,
          "midi": 70,
          "name": "A#4",
          "ticks": 7600,
          "time": 9.5,
          "velocity": 0.8661417322834646
        },
        {
          "duration": 2.1687499999999993,
          "durationTicks": 1735,
          "midi": 56,
          "name": "G#3",
          "ticks": 9600,
          "time": 12,
          "velocity": 0.889763779527559
        },
        {
          "duration": 2.1812500000000004,
          "durationTicks": 1745,
          "midi": 63,
          "name": "D#4",
          "ticks": 9600,
          "time": 12,
          "velocity": 0.8503937007874016
        },
        {
          "duration": 2.209999999999999,
          "durationTicks": 1768,
          "midi": 67,
          "name": "G4",
          "ticks": 9600,
          "time": 12,
          "velocity": 0.8346456692913385
        },
        {
          "duration": 2.206249999999999,
          "durationTicks": 1765,
          "midi": 70,
          "name": "A#4",
          "ticks": 9600,
          "time": 12,
          "velocity": 0.8582677165354331
        },
        {
          "duration": 2.3062500000000004,
          "durationTicks": 1845,
          "midi": 56,
          "name": "G#3",
          "ticks": 11440,
          "time": 14.299999999999999,
          "velocity": 0.8661417322834646
        },
        {
          "duration": 2.293750000000001,
          "durationTicks": 1835,
          "midi": 62,
          "name": "D4",
          "ticks": 11440,
          "time": 14.299999999999999,
          "velocity": 0.8031496062992126
        },
        {
          "duration": 2.3437499999999982,
          "durationTicks": 1875,
          "midi": 67,
          "name": "G4",
          "ticks": 11440,
          "time": 14.299999999999999,
          "velocity": 0.8188976377952756
        },
        {
          "duration": 2.3350000000000026,
          "durationTicks": 1868,
          "midi": 70,
          "name": "A#4",
          "ticks": 11440,
          "time": 14.299999999999999,
          "velocity": 0.8188976377952756
        },
        {
          "duration": 2.1099999999999994,
          "durationTicks": 1688,
          "midi": 56,
          "name": "G#3",
          "ticks": 13440,
          "time": 16.8,
          "velocity": 0.8503937007874016
        },
        {
          "duration": 2.125,
          "durationTicks": 1700,
          "midi": 63,
          "name": "D#4",
          "ticks": 13440,
          "time": 16.8,
          "velocity": 0.8188976377952756
        },
        {
          "duration": 2.1412499999999994,
          "durationTicks": 1713,
          "midi": 67,
          "name": "G4",
          "ticks": 13440,
          "time": 16.8,
          "velocity": 0.8031496062992126
        },
        {
          "duration": 2.1412499999999994,
          "durationTicks": 1713,
          "midi": 70,
          "name": "A#4",
          "ticks": 13440,
          "time": 16.8,
          "velocity": 0.8031496062992126
        },
        {
          "duration": 2.285,
          "durationTicks": 1828,
          "midi": 56,
          "name": "G#3",
          "ticks": 15280,
          "time": 19.099999999999998,
          "velocity": 0.889763779527559
        },
        {
          "duration": 2.291249999999998,
          "durationTicks": 1833,
          "midi": 62,
          "name": "D4",
          "ticks": 15280,
          "time": 19.099999999999998,
          "velocity": 0.8661417322834646
        },
        {
          "duration": 2.3099999999999987,
          "durationTicks": 1848,
          "midi": 67,
          "name": "G4",
          "ticks": 15280,
          "time": 19.099999999999998,
          "velocity": 0.8661417322834646
        },
        {
          "duration": 2.3099999999999987,
          "durationTicks": 1848,
          "midi": 70,
          "name": "A#4",
          "ticks": 15280,
          "time": 19.099999999999998,
          "velocity": 0.8661417322834646
        },
        {
          "duration": 0.5187500000000043,
          "durationTicks": 415,
          "midi": 56,
          "name": "G#3",
          "ticks": 17280,
          "time": 21.599999999999998,
          "velocity": 0.5354330708661418
        },
        {
          "duration": 0.5662500000000037,
          "durationTicks": 453,
          "midi": 61,
          "name": "C#4",
          "ticks": 17280,
          "time": 21.599999999999998,
          "velocity": 0.6062992125984252
        },
        {
          "duration": 0.5037500000000001,
          "durationTicks": 403,
          "midi": 65,
          "name": "F4",
          "ticks": 17280,
          "time": 21.599999999999998,
          "velocity": 0.7874015748031497
        },
        {
          "duration": 0.4375,
          "durationTicks": 350,
          "midi": 57,
          "name": "A3",
          "ticks": 17760,
          "time": 22.2,
          "velocity": 0.6929133858267716
        },
        {
          "duration": 0.4287499999999973,
          "durationTicks": 343,
          "midi": 62,
          "name": "D4",
          "ticks": 17760,
          "time": 22.2,
          "velocity": 0.7874015748031497
        },
        {
          "duration": 0.4662499999999987,
          "durationTicks": 373,
          "midi": 65,
          "name": "F4",
          "ticks": 17760,
          "time": 22.2,
          "velocity": 0.7874015748031497
        },
        {
          "duration": 2.4812499999999957,
          "durationTicks": 1985,
          "midi": 58,
          "name": "A#3",
          "ticks": 18240,
          "time": 22.8,
          "velocity": 0.6062992125984252
        },
        {
          "duration": 2.4312499999999986,
          "durationTicks": 1945,
          "midi": 63,
          "name": "D#4",
          "ticks": 18240,
          "time": 22.8,
          "velocity": 0.5354330708661418
        },
        {
          "duration": 2.4974999999999987,
          "durationTicks": 1998,
          "midi": 65,
          "name": "F4",
          "ticks": 18240,
          "time": 22.8,
          "velocity": 0.7874015748031497
        },
        {
          "duration": 0.5287500000000023,
          "durationTicks": 423,
          "midi": 56,
          "name": "G#3",
          "ticks": 20160,
          "time": 25.2,
          "velocity": 0.6929133858267716
        },
        {
          "duration": 0.5850000000000009,
          "durationTicks": 468,
          "midi": 61,
          "name": "C#4",
          "ticks": 20160,
          "time": 25.2,
          "velocity": 0.6062992125984252
        },
        {
          "duration": 0.5062500000000014,
          "durationTicks": 405,
          "midi": 65,
          "name": "F4",
          "ticks": 20160,
          "time": 25.2,
          "velocity": 0.7716535433070866
        },
        {
          "duration": 0.4349999999999987,
          "durationTicks": 348,
          "midi": 55,
          "name": "G3",
          "ticks": 20640,
          "time": 25.8,
          "velocity": 0.7874015748031497
        },
        {
          "duration": 0.4250000000000007,
          "durationTicks": 340,
          "midi": 60,
          "name": "C4",
          "ticks": 20640,
          "time": 25.8,
          "velocity": 0.6929133858267716
        },
        {
          "duration": 0.46875,
          "durationTicks": 375,
          "midi": 65,
          "name": "F4",
          "ticks": 20640,
          "time": 25.8,
          "velocity": 0.7874015748031497
        },
        {
          "duration": 0.5725000000000016,
          "durationTicks": 458,
          "midi": 56,
          "name": "G#3",
          "ticks": 21120,
          "time": 26.4,
          "velocity": 0.6929133858267716
        },
        {
          "duration": 0.5437499999999993,
          "durationTicks": 435,
          "midi": 61,
          "name": "C#4",
          "ticks": 21120,
          "time": 26.4,
          "velocity": 0.7874015748031497
        },
        {
          "duration": 0.5500000000000007,
          "durationTicks": 440,
          "midi": 65,
          "name": "F4",
          "ticks": 21120,
          "time": 26.4,
          "velocity": 0.7874015748031497
        },
        {
          "duration": 0.5312499999999964,
          "durationTicks": 425,
          "midi": 57,
          "name": "A3",
          "ticks": 21600,
          "time": 27,
          "velocity": 0.6929133858267716
        },
        {
          "duration": 0.5625,
          "durationTicks": 450,
          "midi": 62,
          "name": "D4",
          "ticks": 21600,
          "time": 27,
          "velocity": 0.7874015748031497
        },
        {
          "duration": 0.5537499999999973,
          "durationTicks": 443,
          "midi": 65,
          "name": "F4",
          "ticks": 21600,
          "time": 27,
          "velocity": 0.7874015748031497
        },
        {
          "duration": 2.3000000000000007,
          "durationTicks": 1840,
          "midi": 58,
          "name": "A#3",
          "ticks": 22080,
          "time": 27.599999999999998,
          "velocity": 0.6062992125984252
        },
        {
          "duration": 2.322499999999998,
          "durationTicks": 1858,
          "midi": 63,
          "name": "D#4",
          "ticks": 22080,
          "time": 27.599999999999998,
          "velocity": 0.6062992125984252
        },
        {
          "duration": 2.3724999999999987,
          "durationTicks": 1898,
          "midi": 65,
          "name": "F4",
          "ticks": 22080,
          "time": 27.599999999999998,
          "velocity": 0.7874015748031497
        },
        {
          "duration": 0.5437499999999993,
          "durationTicks": 435,
          "midi": 56,
          "name": "G#3",
          "ticks": 24000,
          "time": 30,
          "velocity": 0.6929133858267716
        },
        {
          "duration": 0.5537499999999973,
          "durationTicks": 443,
          "midi": 61,
          "name": "C#4",
          "ticks": 24000,
          "time": 30,
          "velocity": 0.6929133858267716
        },
        {
          "duration": 0.5787499999999959,
          "durationTicks": 463,
          "midi": 65,
          "name": "F4",
          "ticks": 24000,
          "time": 30,
          "velocity": 0.6929133858267716
        },
        {
          "duration": 0.10999999999999943,
          "durationTicks": 88,
          "midi": 54,
          "name": "F#3",
          "ticks": 24480,
          "time": 30.599999999999998,
          "velocity": 0.6929133858267716
        },
        {
          "duration": 0.10625000000000284,
          "durationTicks": 85,
          "midi": 59,
          "name": "B3",
          "ticks": 24480,
          "time": 30.599999999999998,
          "velocity": 0.7874015748031497
        },
        {
          "duration": 0.10999999999999943,
          "durationTicks": 88,
          "midi": 65,
          "name": "F4",
          "ticks": 24480,
          "time": 30.599999999999998,
          "velocity": 0.7874015748031497
        },
        {
          "duration": 0.07499999999999929,
          "durationTicks": 60,
          "midi": 55,
          "name": "G3",
          "ticks": 24640,
          "time": 30.8,
          "velocity": 0.8818897637795275
        },
        {
          "duration": 0.07249999999999801,
          "durationTicks": 58,
          "midi": 60,
          "name": "C4",
          "ticks": 24640,
          "time": 30.8,
          "velocity": 0.7874015748031497
        },
        {
          "duration": 0.07874999999999588,
          "durationTicks": 63,
          "midi": 65,
          "name": "F4",
          "ticks": 24640,
          "time": 30.8,
          "velocity": 0.6929133858267716
        },
        {
          "duration": 2.1687499999999993,
          "durationTicks": 1735,
          "midi": 56,
          "name": "G#3",
          "ticks": 24960,
          "time": 31.2,
          "velocity": 0.889763779527559
        },
        {
          "duration": 2.181249999999995,
          "durationTicks": 1745,
          "midi": 63,
          "name": "D#4",
          "ticks": 24960,
          "time": 31.2,
          "velocity": 0.8503937007874016
        },
        {
          "duration": 2.2099999999999973,
          "durationTicks": 1768,
          "midi": 67,
          "name": "G4",
          "ticks": 24960,
          "time": 31.2,
          "velocity": 0.8346456692913385
        },
        {
          "duration": 2.2062500000000007,
          "durationTicks": 1765,
          "midi": 70,
          "name": "A#4",
          "ticks": 24960,
          "time": 31.2,
          "velocity": 0.8582677165354331
        },
        {
          "duration": 2.3062499999999986,
          "durationTicks": 1845,
          "midi": 56,
          "name": "G#3",
          "ticks": 26800,
          "time": 33.5,
          "velocity": 0.8661417322834646
        },
        {
          "duration": 2.2937499999999957,
          "durationTicks": 1835,
          "midi": 62,
          "name": "D4",
          "ticks": 26800,
          "time": 33.5,
          "velocity": 0.8031496062992126
        },
        {
          "duration": 2.34375,
          "durationTicks": 1875,
          "midi": 67,
          "name": "G4",
          "ticks": 26800,
          "time": 33.5,
          "velocity": 0.8188976377952756
        },
        {
          "duration": 2.335000000000001,
          "durationTicks": 1868,
          "midi": 70,
          "name": "A#4",
          "ticks": 26800,
          "time": 33.5,
          "velocity": 0.8188976377952756
        },
        {
          "duration": 2.1099999999999994,
          "durationTicks": 1688,
          "midi": 56,
          "name": "G#3",
          "ticks": 28800,
          "time": 36,
          "velocity": 0.8503937007874016
        },
        {
          "duration": 2.125,
          "durationTicks": 1700,
          "midi": 63,
          "name": "D#4",
          "ticks": 28800,
          "time": 36,
          "velocity": 0.8188976377952756
        },
        {
          "duration": 2.1412499999999994,
          "durationTicks": 1713,
          "midi": 67,
          "name": "G4",
          "ticks": 28800,
          "time": 36,
          "velocity": 0.8031496062992126
        },
        {
          "duration": 2.1412499999999994,
          "durationTicks": 1713,
          "midi": 70,
          "name": "A#4",
          "ticks": 28800,
          "time": 36,
          "velocity": 0.8031496062992126
        },
        {
          "duration": 2.2850000000000037,
          "durationTicks": 1828,
          "midi": 56,
          "name": "G#3",
          "ticks": 30640,
          "time": 38.3,
          "velocity": 0.889763779527559
        },
        {
          "duration": 2.291250000000005,
          "durationTicks": 1833,
          "midi": 62,
          "name": "D4",
          "ticks": 30640,
          "time": 38.3,
          "velocity": 0.8661417322834646
        },
        {
          "duration": 2.3100000000000023,
          "durationTicks": 1848,
          "midi": 67,
          "name": "G4",
          "ticks": 30640,
          "time": 38.3,
          "velocity": 0.8661417322834646
        },
        {
          "duration": 2.3100000000000023,
          "durationTicks": 1848,
          "midi": 70,
          "name": "A#4",
          "ticks": 30640,
          "time": 38.3,
          "velocity": 0.8661417322834646
        },
        {
          "duration": 2.2375000000000043,
          "durationTicks": 1790,
          "midi": 55,
          "name": "G3",
          "ticks": 32640,
          "time": 40.8,
          "velocity": 0.8818897637795275
        },
        {
          "duration": 2.2349999999999994,
          "durationTicks": 1788,
          "midi": 58,
          "name": "A#3",
          "ticks": 32640,
          "time": 40.8,
          "velocity": 0.7874015748031497
        },
        {
          "duration": 2.231250000000003,
          "durationTicks": 1785,
          "midi": 63,
          "name": "D#4",
          "ticks": 32640,
          "time": 40.8,
          "velocity": 0.7874015748031497
        },
        {
          "duration": 2.200000000000003,
          "durationTicks": 1760,
          "midi": 65,
          "name": "F4",
          "ticks": 32640,
          "time": 40.8,
          "velocity": 0.7874015748031497
        },
        {
          "duration": 2.35625000000001,
          "durationTicks": 1885,
          "midi": 54,
          "name": "F#3",
          "ticks": 34480,
          "time": 43.099999999999994,
          "velocity": 0.7874015748031497
        },
        {
          "duration": 2.3937500000000043,
          "durationTicks": 1915,
          "midi": 59,
          "name": "B3",
          "ticks": 34480,
          "time": 43.099999999999994,
          "velocity": 0.7874015748031497
        },
        {
          "duration": 1.7875000000000014,
          "durationTicks": 1430,
          "midi": 63,
          "name": "D#4",
          "ticks": 34480,
          "time": 43.099999999999994,
          "velocity": 0.6062992125984252
        },
        {
          "duration": 2.397500000000001,
          "durationTicks": 1918,
          "midi": 65,
          "name": "F4",
          "ticks": 34480,
          "time": 43.099999999999994,
          "velocity": 0.7874015748031497
        },
        {
          "duration": 2.3600000000000065,
          "durationTicks": 1888,
          "midi": 57,
          "name": "A3",
          "ticks": 36400,
          "time": 45.49999999999999,
          "velocity": 0.8818897637795275
        },
        {
          "duration": 2.3687500000000057,
          "durationTicks": 1895,
          "midi": 60,
          "name": "C4",
          "ticks": 36400,
          "time": 45.49999999999999,
          "velocity": 0.7874015748031497
        },
        {
          "duration": 2.35625000000001,
          "durationTicks": 1885,
          "midi": 63,
          "name": "D#4",
          "ticks": 36400,
          "time": 45.49999999999999,
          "velocity": 0.8818897637795275
        },
        {
          "duration": 2.3412500000000023,
          "durationTicks": 1873,
          "midi": 65,
          "name": "F4",
          "ticks": 36400,
          "time": 45.49999999999999,
          "velocity": 0.984251968503937
        },
        {
          "duration": 2.416249999999998,
          "durationTicks": 1933,
          "midi": 58,
          "name": "A#3",
          "ticks": 38320,
          "time": 47.9,
          "velocity": 0.7874015748031497
        },
        {
          "duration": 2.385000000000005,
          "durationTicks": 1908,
          "midi": 62,
          "name": "D4",
          "ticks": 38320,
          "time": 47.9,
          "velocity": 0.8818897637795275
        },
        {
          "duration": 2.4287499999999937,
          "durationTicks": 1943,
          "midi": 65,
          "name": "F4",
          "ticks": 38320,
          "time": 47.9,
          "velocity": 0.8818897637795275
        },
        {
          "duration": 0.18500000000000227,
          "durationTicks": 148,
          "midi": 57,
          "name": "A3",
          "ticks": 40480,
          "time": 50.599999999999994,
          "velocity": 0.7874015748031497
        },
        {
          "duration": 0.197499999999998,
          "durationTicks": 158,
          "midi": 61,
          "name": "C#4",
          "ticks": 40480,
          "time": 50.599999999999994,
          "velocity": 0.6929133858267716
        },
        {
          "duration": 0.1912500000000037,
          "durationTicks": 153,
          "midi": 64,
          "name": "E4",
          "ticks": 40480,
          "time": 50.599999999999994,
          "velocity": 0.8818897637795275
        },
        {
          "duration": 0.1912500000000037,
          "durationTicks": 153,
          "midi": 71,
          "name": "B4",
          "ticks": 40480,
          "time": 50.599999999999994,
          "velocity": 0.6062992125984252
        },
        {
          "duration": 0.3787499999999966,
          "durationTicks": 303,
          "midi": 57,
          "name": "A3",
          "ticks": 41280,
          "time": 51.6,
          "velocity": 0.6929133858267716
        },
        {
          "duration": 0.39749999999999375,
          "durationTicks": 318,
          "midi": 61,
          "name": "C#4",
          "ticks": 41280,
          "time": 51.6,
          "velocity": 0.6929133858267716
        },
        {
          "duration": 0.39124999999999943,
          "durationTicks": 313,
          "midi": 64,
          "name": "E4",
          "ticks": 41280,
          "time": 51.6,
          "velocity": 0.6929133858267716
        },
        {
          "duration": 0.375,
          "durationTicks": 300,
          "midi": 71,
          "name": "B4",
          "ticks": 41280,
          "time": 51.6,
          "velocity": 0.6062992125984252
        },
        {
          "duration": 0.06875000000000853,
          "durationTicks": 55,
          "midi": 57,
          "name": "A3",
          "ticks": 41680,
          "time": 52.099999999999994,
          "velocity": 0.7874015748031497
        },
        {
          "duration": 0.0625000000000071,
          "durationTicks": 50,
          "midi": 61,
          "name": "C#4",
          "ticks": 41680,
          "time": 52.099999999999994,
          "velocity": 0.6062992125984252
        },
        {
          "duration": 0.05375000000000085,
          "durationTicks": 43,
          "midi": 64,
          "name": "E4",
          "ticks": 41680,
          "time": 52.099999999999994,
          "velocity": 0.7874015748031497
        },
        {
          "duration": 0.07500000000000284,
          "durationTicks": 60,
          "midi": 71,
          "name": "B4",
          "ticks": 41680,
          "time": 52.099999999999994,
          "velocity": 0.6929133858267716
        },
        {
          "duration": 0.4975000000000023,
          "durationTicks": 398,
          "midi": 57,
          "name": "A3",
          "ticks": 42160,
          "time": 52.699999999999996,
          "velocity": 0.6929133858267716
        },
        {
          "duration": 0.4100000000000037,
          "durationTicks": 328,
          "midi": 61,
          "name": "C#4",
          "ticks": 42160,
          "time": 52.699999999999996,
          "velocity": 0.6062992125984252
        },
        {
          "duration": 0.4937500000000057,
          "durationTicks": 395,
          "midi": 63,
          "name": "D#4",
          "ticks": 42160,
          "time": 52.699999999999996,
          "velocity": 0.7874015748031497
        },
        {
          "duration": 0.4000000000000057,
          "durationTicks": 320,
          "midi": 71,
          "name": "B4",
          "ticks": 42160,
          "time": 52.699999999999996,
          "velocity": 0.5354330708661418
        },
        {
          "duration": 0.08500000000000085,
          "durationTicks": 68,
          "midi": 61,
          "name": "C#4",
          "ticks": 42720,
          "time": 53.4,
          "velocity": 0.7874015748031497
        },
        {
          "duration": 0.08749999999999858,
          "durationTicks": 70,
          "midi": 63,
          "name": "D#4",
          "ticks": 42720,
          "time": 53.4,
          "velocity": 0.8818897637795275
        },
        {
          "duration": 0.11875000000000568,
          "durationTicks": 95,
          "midi": 71,
          "name": "B4",
          "ticks": 42720,
          "time": 53.4,
          "velocity": 0.6929133858267716
        },
        {
          "duration": 0.04749999999999943,
          "durationTicks": 38,
          "midi": 57,
          "name": "A3",
          "ticks": 42960,
          "time": 53.699999999999996,
          "velocity": 0.47244094488188976
        },
        {
          "duration": 0.4100000000000037,
          "durationTicks": 328,
          "midi": 57,
          "name": "A3",
          "ticks": 43200,
          "time": 54,
          "velocity": 0.7874015748031497
        },
        {
          "duration": 0.41875000000000284,
          "durationTicks": 335,
          "midi": 61,
          "name": "C#4",
          "ticks": 43200,
          "time": 54,
          "velocity": 0.7874015748031497
        },
        {
          "duration": 0.39374999999999716,
          "durationTicks": 315,
          "midi": 63,
          "name": "D#4",
          "ticks": 43200,
          "time": 54,
          "velocity": 0.8818897637795275
        },
        {
          "duration": 0.39749999999999375,
          "durationTicks": 318,
          "midi": 71,
          "name": "B4",
          "ticks": 43200,
          "time": 54,
          "velocity": 0.6929133858267716
        },
        {
          "duration": 0.20624999999999716,
          "durationTicks": 165,
          "midi": 57,
          "name": "A3",
          "ticks": 43680,
          "time": 54.6,
          "velocity": 0.7874015748031497
        },
        {
          "duration": 0.20999999999999375,
          "durationTicks": 168,
          "midi": 61,
          "name": "C#4",
          "ticks": 43680,
          "time": 54.6,
          "velocity": 0.5905511811023622
        },
        {
          "duration": 0.17499999999999716,
          "durationTicks": 140,
          "midi": 63,
          "name": "D#4",
          "ticks": 43680,
          "time": 54.6,
          "velocity": 0.8818897637795275
        },
        {
          "duration": 0.197499999999998,
          "durationTicks": 158,
          "midi": 71,
          "name": "B4",
          "ticks": 43680,
          "time": 54.6,
          "velocity": 0.6929133858267716
        },
        {
          "duration": 0.14124999999999943,
          "durationTicks": 113,
          "midi": 57,
          "name": "A3",
          "ticks": 44080,
          "time": 55.099999999999994,
          "velocity": 0.7874015748031497
        },
        {
          "duration": 0.1562500000000071,
          "durationTicks": 125,
          "midi": 61,
          "name": "C#4",
          "ticks": 44080,
          "time": 55.099999999999994,
          "velocity": 0.7874015748031497
        },
        {
          "duration": 0.03750000000000142,
          "durationTicks": 30,
          "midi": 63,
          "name": "D#4",
          "ticks": 44080,
          "time": 55.099999999999994,
          "velocity": 0.7874015748031497
        },
        {
          "duration": 0.11625000000000796,
          "durationTicks": 93,
          "midi": 64,
          "name": "E4",
          "ticks": 44080,
          "time": 55.099999999999994,
          "velocity": 0.7874015748031497
        },
        {
          "duration": 0.17875000000000085,
          "durationTicks": 143,
          "midi": 71,
          "name": "B4",
          "ticks": 44080,
          "time": 55.099999999999994,
          "velocity": 0.6929133858267716
        },
        {
          "duration": 0.11000000000000654,
          "durationTicks": 88,
          "midi": 57,
          "name": "A3",
          "ticks": 44640,
          "time": 55.8,
          "velocity": 0.7874015748031497
        },
        {
          "duration": 0.08125000000000426,
          "durationTicks": 65,
          "midi": 61,
          "name": "C#4",
          "ticks": 44640,
          "time": 55.8,
          "velocity": 0.6929133858267716
        },
        {
          "duration": 0.09749999999999659,
          "durationTicks": 78,
          "midi": 64,
          "name": "E4",
          "ticks": 44640,
          "time": 55.8,
          "velocity": 0.8818897637795275
        },
        {
          "duration": 0.09375,
          "durationTicks": 75,
          "midi": 71,
          "name": "B4",
          "ticks": 44640,
          "time": 55.8,
          "velocity": 0.6062992125984252
        },
        {
          "duration": 0.48749999999999716,
          "durationTicks": 390,
          "midi": 57,
          "name": "A3",
          "ticks": 45120,
          "time": 56.4,
          "velocity": 0.7874015748031497
        },
        {
          "duration": 0.4724999999999966,
          "durationTicks": 378,
          "midi": 61,
          "name": "C#4",
          "ticks": 45120,
          "time": 56.4,
          "velocity": 0.6929133858267716
        },
        {
          "duration": 0.4662500000000023,
          "durationTicks": 373,
          "midi": 64,
          "name": "E4",
          "ticks": 45120,
          "time": 56.4,
          "velocity": 0.8818897637795275
        },
        {
          "duration": 0.4437499999999943,
          "durationTicks": 355,
          "midi": 71,
          "name": "B4",
          "ticks": 45120,
          "time": 56.4,
          "velocity": 0.6062992125984252
        },
        {
          "duration": 0.375,
          "durationTicks": 300,
          "midi": 57,
          "name": "A3",
          "ticks": 45600,
          "time": 57,
          "velocity": 0.6062992125984252
        },
        {
          "duration": 0.384999999999998,
          "durationTicks": 308,
          "midi": 61,
          "name": "C#4",
          "ticks": 45600,
          "time": 57,
          "velocity": 0.6929133858267716
        },
        {
          "duration": 0.35624999999999574,
          "durationTicks": 285,
          "midi": 64,
          "name": "E4",
          "ticks": 45600,
          "time": 57,
          "velocity": 0.7874015748031497
        },
        {
          "duration": 0.36250000000000426,
          "durationTicks": 290,
          "midi": 71,
          "name": "B4",
          "ticks": 45600,
          "time": 57,
          "velocity": 0.6929133858267716
        },
        {
          "duration": 0.08125000000000426,
          "durationTicks": 65,
          "midi": 57,
          "name": "A3",
          "ticks": 46000,
          "time": 57.49999999999999,
          "velocity": 0.6062992125984252
        },
        {
          "duration": 0.0625000000000071,
          "durationTicks": 50,
          "midi": 61,
          "name": "C#4",
          "ticks": 46000,
          "time": 57.49999999999999,
          "velocity": 0.6929133858267716
        },
        {
          "duration": 0.06000000000000938,
          "durationTicks": 48,
          "midi": 63,
          "name": "D#4",
          "ticks": 46000,
          "time": 57.49999999999999,
          "velocity": 0.8818897637795275
        },
        {
          "duration": 0.07875000000000654,
          "durationTicks": 63,
          "midi": 71,
          "name": "B4",
          "ticks": 46000,
          "time": 57.49999999999999,
          "velocity": 0.6062992125984252
        },
        {
          "duration": 0.08124999999999716,
          "durationTicks": 65,
          "midi": 57,
          "name": "A3",
          "ticks": 46240,
          "time": 57.8,
          "velocity": 0.7874015748031497
        },
        {
          "duration": 0.07249999999999801,
          "durationTicks": 58,
          "midi": 61,
          "name": "C#4",
          "ticks": 46240,
          "time": 57.8,
          "velocity": 0.7874015748031497
        },
        {
          "duration": 0.07249999999999801,
          "durationTicks": 58,
          "midi": 63,
          "name": "D#4",
          "ticks": 46240,
          "time": 57.8,
          "velocity": 0.8818897637795275
        },
        {
          "duration": 0.08499999999999375,
          "durationTicks": 68,
          "midi": 71,
          "name": "B4",
          "ticks": 46240,
          "time": 57.8,
          "velocity": 0.6929133858267716
        },
        {
          "duration": 0.11000000000000654,
          "durationTicks": 88,
          "midi": 57,
          "name": "A3",
          "ticks": 46560,
          "time": 58.199999999999996,
          "velocity": 0.7874015748031497
        },
        {
          "duration": 0.07874999999999943,
          "durationTicks": 63,
          "midi": 61,
          "name": "C#4",
          "ticks": 46560,
          "time": 58.199999999999996,
          "velocity": 0.6929133858267716
        },
        {
          "duration": 0.06875000000000142,
          "durationTicks": 55,
          "midi": 63,
          "name": "D#4",
          "ticks": 46560,
          "time": 58.199999999999996,
          "velocity": 0.905511811023622
        },
        {
          "duration": 0.07500000000000284,
          "durationTicks": 60,
          "midi": 71,
          "name": "B4",
          "ticks": 46560,
          "time": 58.199999999999996,
          "velocity": 0.5905511811023622
        },
        {
          "duration": 0.4312499999999986,
          "durationTicks": 345,
          "midi": 57,
          "name": "A3",
          "ticks": 47040,
          "time": 58.8,
          "velocity": 0.7874015748031497
        },
        {
          "duration": 0.4375,
          "durationTicks": 350,
          "midi": 61,
          "name": "C#4",
          "ticks": 47040,
          "time": 58.8,
          "velocity": 0.7874015748031497
        },
        {
          "duration": 0.42249999999999943,
          "durationTicks": 338,
          "midi": 63,
          "name": "D#4",
          "ticks": 47040,
          "time": 58.8,
          "velocity": 0.8818897637795275
        },
        {
          "duration": 0.42875000000000085,
          "durationTicks": 343,
          "midi": 71,
          "name": "B4",
          "ticks": 47040,
          "time": 58.8,
          "velocity": 0.6062992125984252
        },
        {
          "duration": 0.3787499999999966,
          "durationTicks": 303,
          "midi": 57,
          "name": "A3",
          "ticks": 47520,
          "time": 59.4,
          "velocity": 0.7874015748031497
        },
        {
          "duration": 0.3999999999999986,
          "durationTicks": 320,
          "midi": 61,
          "name": "C#4",
          "ticks": 47520,
          "time": 59.4,
          "velocity": 0.6929133858267716
        },
        {
          "duration": 0.3787499999999966,
          "durationTicks": 303,
          "midi": 63,
          "name": "D#4",
          "ticks": 47520,
          "time": 59.4,
          "velocity": 0.8818897637795275
        },
        {
          "duration": 0.3787499999999966,
          "durationTicks": 303,
          "midi": 71,
          "name": "B4",
          "ticks": 47520,
          "time": 59.4,
          "velocity": 0.6929133858267716
        },
        {
          "duration": 0.18500000000000227,
          "durationTicks": 148,
          "midi": 57,
          "name": "A3",
          "ticks": 48160,
          "time": 60.199999999999996,
          "velocity": 0.7874015748031497
        },
        {
          "duration": 0.197499999999998,
          "durationTicks": 158,
          "midi": 61,
          "name": "C#4",
          "ticks": 48160,
          "time": 60.199999999999996,
          "velocity": 0.6929133858267716
        },
        {
          "duration": 0.1912500000000037,
          "durationTicks": 153,
          "midi": 64,
          "name": "E4",
          "ticks": 48160,
          "time": 60.199999999999996,
          "velocity": 0.8818897637795275
        },
        {
          "duration": 0.1912500000000037,
          "durationTicks": 153,
          "midi": 71,
          "name": "B4",
          "ticks": 48160,
          "time": 60.199999999999996,
          "velocity": 0.6062992125984252
        },
        {
          "duration": 0.3787499999999966,
          "durationTicks": 303,
          "midi": 57,
          "name": "A3",
          "ticks": 48960,
          "time": 61.199999999999996,
          "velocity": 0.6929133858267716
        },
        {
          "duration": 0.39750000000000085,
          "durationTicks": 318,
          "midi": 61,
          "name": "C#4",
          "ticks": 48960,
          "time": 61.199999999999996,
          "velocity": 0.6929133858267716
        },
        {
          "duration": 0.39125000000000654,
          "durationTicks": 313,
          "midi": 64,
          "name": "E4",
          "ticks": 48960,
          "time": 61.199999999999996,
          "velocity": 0.6929133858267716
        },
        {
          "duration": 0.375,
          "durationTicks": 300,
          "midi": 71,
          "name": "B4",
          "ticks": 48960,
          "time": 61.199999999999996,
          "velocity": 0.6062992125984252
        },
        {
          "duration": 0.06875000000000142,
          "durationTicks": 55,
          "midi": 57,
          "name": "A3",
          "ticks": 49360,
          "time": 61.699999999999996,
          "velocity": 0.7874015748031497
        },
        {
          "duration": 0.0625,
          "durationTicks": 50,
          "midi": 61,
          "name": "C#4",
          "ticks": 49360,
          "time": 61.699999999999996,
          "velocity": 0.6062992125984252
        },
        {
          "duration": 0.05375000000000085,
          "durationTicks": 43,
          "midi": 64,
          "name": "E4",
          "ticks": 49360,
          "time": 61.699999999999996,
          "velocity": 0.7874015748031497
        },
        {
          "duration": 0.07499999999999574,
          "durationTicks": 60,
          "midi": 71,
          "name": "B4",
          "ticks": 49360,
          "time": 61.699999999999996,
          "velocity": 0.6929133858267716
        },
        {
          "duration": 0.49749999999999517,
          "durationTicks": 398,
          "midi": 57,
          "name": "A3",
          "ticks": 49840,
          "time": 62.3,
          "velocity": 0.6929133858267716
        },
        {
          "duration": 0.4099999999999966,
          "durationTicks": 328,
          "midi": 61,
          "name": "C#4",
          "ticks": 49840,
          "time": 62.3,
          "velocity": 0.6062992125984252
        },
        {
          "duration": 0.4937499999999986,
          "durationTicks": 395,
          "midi": 63,
          "name": "D#4",
          "ticks": 49840,
          "time": 62.3,
          "velocity": 0.7874015748031497
        },
        {
          "duration": 0.3999999999999986,
          "durationTicks": 320,
          "midi": 71,
          "name": "B4",
          "ticks": 49840,
          "time": 62.3,
          "velocity": 0.5354330708661418
        },
        {
          "duration": 0.08499999999999375,
          "durationTicks": 68,
          "midi": 61,
          "name": "C#4",
          "ticks": 50400,
          "time": 63,
          "velocity": 0.7874015748031497
        },
        {
          "duration": 0.08749999999999147,
          "durationTicks": 70,
          "midi": 63,
          "name": "D#4",
          "ticks": 50400,
          "time": 63,
          "velocity": 0.8818897637795275
        },
        {
          "duration": 0.11874999999999858,
          "durationTicks": 95,
          "midi": 71,
          "name": "B4",
          "ticks": 50400,
          "time": 63,
          "velocity": 0.6929133858267716
        },
        {
          "duration": 0.04749999999999943,
          "durationTicks": 38,
          "midi": 57,
          "name": "A3",
          "ticks": 50640,
          "time": 63.3,
          "velocity": 0.47244094488188976
        },
        {
          "duration": 0.4100000000000108,
          "durationTicks": 328,
          "midi": 57,
          "name": "A3",
          "ticks": 50880,
          "time": 63.599999999999994,
          "velocity": 0.7874015748031497
        },
        {
          "duration": 0.41875000000000284,
          "durationTicks": 335,
          "midi": 61,
          "name": "C#4",
          "ticks": 50880,
          "time": 63.599999999999994,
          "velocity": 0.7874015748031497
        },
        {
          "duration": 0.39375000000000426,
          "durationTicks": 315,
          "midi": 63,
          "name": "D#4",
          "ticks": 50880,
          "time": 63.599999999999994,
          "velocity": 0.8818897637795275
        },
        {
          "duration": 0.39750000000000085,
          "durationTicks": 318,
          "midi": 71,
          "name": "B4",
          "ticks": 50880,
          "time": 63.599999999999994,
          "velocity": 0.6929133858267716
        },
        {
          "duration": 0.20624999999999716,
          "durationTicks": 165,
          "midi": 57,
          "name": "A3",
          "ticks": 51360,
          "time": 64.2,
          "velocity": 0.7874015748031497
        },
        {
          "duration": 0.20999999999999375,
          "durationTicks": 168,
          "midi": 61,
          "name": "C#4",
          "ticks": 51360,
          "time": 64.2,
          "velocity": 0.5905511811023622
        },
        {
          "duration": 0.17499999999999716,
          "durationTicks": 140,
          "midi": 63,
          "name": "D#4",
          "ticks": 51360,
          "time": 64.2,
          "velocity": 0.8818897637795275
        },
        {
          "duration": 0.1974999999999909,
          "durationTicks": 158,
          "midi": 71,
          "name": "B4",
          "ticks": 51360,
          "time": 64.2,
          "velocity": 0.6929133858267716
        },
        {
          "duration": 0.14124999999999943,
          "durationTicks": 113,
          "midi": 57,
          "name": "A3",
          "ticks": 51760,
          "time": 64.69999999999999,
          "velocity": 0.7874015748031497
        },
        {
          "duration": 0.1562500000000142,
          "durationTicks": 125,
          "midi": 61,
          "name": "C#4",
          "ticks": 51760,
          "time": 64.69999999999999,
          "velocity": 0.7874015748031497
        },
        {
          "duration": 0.037500000000008527,
          "durationTicks": 30,
          "midi": 63,
          "name": "D#4",
          "ticks": 51760,
          "time": 64.69999999999999,
          "velocity": 0.7874015748031497
        },
        {
          "duration": 0.11625000000000796,
          "durationTicks": 93,
          "midi": 64,
          "name": "E4",
          "ticks": 51760,
          "time": 64.69999999999999,
          "velocity": 0.7874015748031497
        },
        {
          "duration": 0.17875000000000796,
          "durationTicks": 143,
          "midi": 71,
          "name": "B4",
          "ticks": 51760,
          "time": 64.69999999999999,
          "velocity": 0.6929133858267716
        },
        {
          "duration": 0.11000000000001364,
          "durationTicks": 88,
          "midi": 57,
          "name": "A3",
          "ticks": 52320,
          "time": 65.39999999999999,
          "velocity": 0.7874015748031497
        },
        {
          "duration": 0.08125000000001137,
          "durationTicks": 65,
          "midi": 61,
          "name": "C#4",
          "ticks": 52320,
          "time": 65.39999999999999,
          "velocity": 0.6929133858267716
        },
        {
          "duration": 0.09749999999999659,
          "durationTicks": 78,
          "midi": 64,
          "name": "E4",
          "ticks": 52320,
          "time": 65.39999999999999,
          "velocity": 0.8818897637795275
        },
        {
          "duration": 0.09375,
          "durationTicks": 75,
          "midi": 71,
          "name": "B4",
          "ticks": 52320,
          "time": 65.39999999999999,
          "velocity": 0.6062992125984252
        },
        {
          "duration": 0.48749999999999716,
          "durationTicks": 390,
          "midi": 57,
          "name": "A3",
          "ticks": 52800,
          "time": 66,
          "velocity": 0.7874015748031497
        },
        {
          "duration": 0.4724999999999966,
          "durationTicks": 378,
          "midi": 61,
          "name": "C#4",
          "ticks": 52800,
          "time": 66,
          "velocity": 0.6929133858267716
        },
        {
          "duration": 0.4662500000000023,
          "durationTicks": 373,
          "midi": 64,
          "name": "E4",
          "ticks": 52800,
          "time": 66,
          "velocity": 0.8818897637795275
        },
        {
          "duration": 0.4437499999999943,
          "durationTicks": 355,
          "midi": 71,
          "name": "B4",
          "ticks": 52800,
          "time": 66,
          "velocity": 0.6062992125984252
        },
        {
          "duration": 0.375,
          "durationTicks": 300,
          "midi": 57,
          "name": "A3",
          "ticks": 53280,
          "time": 66.6,
          "velocity": 0.6062992125984252
        },
        {
          "duration": 0.3850000000000051,
          "durationTicks": 308,
          "midi": 61,
          "name": "C#4",
          "ticks": 53280,
          "time": 66.6,
          "velocity": 0.6929133858267716
        },
        {
          "duration": 0.35625000000000284,
          "durationTicks": 285,
          "midi": 64,
          "name": "E4",
          "ticks": 53280,
          "time": 66.6,
          "velocity": 0.7874015748031497
        },
        {
          "duration": 0.36250000000001137,
          "durationTicks": 290,
          "midi": 71,
          "name": "B4",
          "ticks": 53280,
          "time": 66.6,
          "velocity": 0.6929133858267716
        },
        {
          "duration": 0.06875000000000853,
          "durationTicks": 55,
          "midi": 57,
          "name": "A3",
          "ticks": 53680,
          "time": 67.1,
          "velocity": 0.6062992125984252
        },
        {
          "duration": 0.0625,
          "durationTicks": 50,
          "midi": 61,
          "name": "C#4",
          "ticks": 53680,
          "time": 67.1,
          "velocity": 0.6929133858267716
        },
        {
          "duration": 0.060000000000002274,
          "durationTicks": 48,
          "midi": 63,
          "name": "D#4",
          "ticks": 53680,
          "time": 67.1,
          "velocity": 0.8818897637795275
        },
        {
          "duration": 0.06875000000000853,
          "durationTicks": 55,
          "midi": 71,
          "name": "B4",
          "ticks": 53680,
          "time": 67.1,
          "velocity": 0.6062992125984252
        },
        {
          "duration": 0.29999999999999716,
          "durationTicks": 240,
          "midi": 62,
          "name": "D4",
          "ticks": 53760,
          "time": 67.2,
          "velocity": 0.7874015748031497
        },
        {
          "duration": 0.29749999999999943,
          "durationTicks": 238,
          "midi": 67,
          "name": "G4",
          "ticks": 53760,
          "time": 67.2,
          "velocity": 0.8818897637795275
        },
        {
          "duration": 0.26249999999998863,
          "durationTicks": 210,
          "midi": 71,
          "name": "B4",
          "ticks": 53760,
          "time": 67.2,
          "velocity": 0.7874015748031497
        },
        {
          "duration": 0.07500000000000284,
          "durationTicks": 60,
          "midi": 63,
          "name": "D#4",
          "ticks": 54160,
          "time": 67.69999999999999,
          "velocity": 0.6062992125984252
        },
        {
          "duration": 0.07500000000000284,
          "durationTicks": 60,
          "midi": 68,
          "name": "G#4",
          "ticks": 54160,
          "time": 67.69999999999999,
          "velocity": 0.6929133858267716
        },
        {
          "duration": 0.09375,
          "durationTicks": 75,
          "midi": 72,
          "name": "C5",
          "ticks": 54160,
          "time": 67.69999999999999,
          "velocity": 0.7874015748031497
        },
        {
          "duration": 0.07874999999999943,
          "durationTicks": 63,
          "midi": 64,
          "name": "E4",
          "ticks": 54400,
          "time": 68,
          "velocity": 0.7874015748031497
        },
        {
          "duration": 0.07874999999999943,
          "durationTicks": 63,
          "midi": 69,
          "name": "A4",
          "ticks": 54400,
          "time": 68,
          "velocity": 0.8818897637795275
        },
        {
          "duration": 0.08750000000000568,
          "durationTicks": 70,
          "midi": 73,
          "name": "C#5",
          "ticks": 54400,
          "time": 68,
          "velocity": 0.7874015748031497
        },
        {
          "duration": 1.25,
          "durationTicks": 1000,
          "midi": 65,
          "name": "F4",
          "ticks": 54640,
          "time": 68.3,
          "velocity": 0.8818897637795275
        },
        {
          "duration": 1.25,
          "durationTicks": 1000,
          "midi": 70,
          "name": "A#4",
          "ticks": 54640,
          "time": 68.3,
          "velocity": 0.8818897637795275
        },
        {
          "duration": 1.25,
          "durationTicks": 1000,
          "midi": 74,
          "name": "D5",
          "ticks": 54640,
          "time": 68.3,
          "velocity": 0.8818897637795275
        },
        {
          "duration": 0.9000000000000057,
          "durationTicks": 720,
          "midi": 56,
          "name": "G#3",
          "ticks": 55680,
          "time": 69.6,
          "velocity": 0.889763779527559
        },
        {
          "duration": 0.9000000000000057,
          "durationTicks": 720,
          "midi": 63,
          "name": "D#4",
          "ticks": 55680,
          "time": 69.6,
          "velocity": 0.8503937007874016
        },
        {
          "duration": 0.9000000000000057,
          "durationTicks": 720,
          "midi": 67,
          "name": "G4",
          "ticks": 55680,
          "time": 69.6,
          "velocity": 0.8346456692913385
        },
        {
          "duration": 0.9000000000000057,
          "durationTicks": 720,
          "midi": 70,
          "name": "A#4",
          "ticks": 55680,
          "time": 69.6,
          "velocity": 0.8582677165354331
        }
      ]
    },
    {
      "channel": 0,
      "controlChanges": {
        "11": [
          {
            "number": 11,
            "ticks": 0,
            "time": 0,
            "value": 1
          }
        ]
      },
      "pitchBends": [],
      "instrument": {
        "family": "piano",
        "number": 0,
        "name": "acoustic grand piano"
      },
      "name": "demo1_with_lyrics",
      "notes": [],
      "endOfTrackTicks": 57600
    },
    {
      "channel": 3,
      "controlChanges": {
        "7": [
          {
            "number": 7,
            "ticks": 480,
            "time": 0.6,
            "value": 0.8818897637795275
          }
        ],
        "10": [
          {
            "number": 10,
            "ticks": 480,
            "time": 0.6,
            "value": 0.5039370078740157
          }
        ],
        "91": [
          {
            "number": 91,
            "ticks": 480,
            "time": 0.6,
            "value": 0.11811023622047244
          }
        ],
        "93": [
          {
            "number": 93,
            "ticks": 480,
            "time": 0.6,
            "value": 0
          }
        ]
      },
      "pitchBends": [
        {
          "ticks": 5385,
          "time": 6.73125,
          "value": 0.22216796875
        },
        {
          "ticks": 5403,
          "time": 6.753749999999999,
          "value": 0.34912109375
        },
        {
          "ticks": 5425,
          "time": 6.78125,
          "value": 0.380859375
        },
        {
          "ticks": 5448,
          "time": 6.81,
          "value": 0.3173828125
        },
        {
          "ticks": 5458,
          "time": 6.8225,
          "value": 0.1112060546875
        },
        {
          "ticks": 5465,
          "time": 6.83125,
          "value": 0
        },
        {
          "ticks": 9043,
          "time": 11.303749999999999,
          "value": 0.2698974609375
        },
        {
          "ticks": 9063,
          "time": 11.328750000000001,
          "value": 0.5078125
        },
        {
          "ticks": 9080,
          "time": 11.35,
          "value": 0.634765625
        },
        {
          "ticks": 9118,
          "time": 11.397499999999999,
          "value": 0.4285888671875
        },
        {
          "ticks": 9130,
          "time": 11.4125,
          "value": 0.1904296875
        },
        {
          "ticks": 9148,
          "time": 11.435,
          "value": 0.0634765625
        },
        {
          "ticks": 9150,
          "time": 11.4375,
          "value": 0
        },
        {
          "ticks": 13065,
          "time": 16.33125,
          "value": 0.22216796875
        },
        {
          "ticks": 13083,
          "time": 16.35375,
          "value": 0.34912109375
        },
        {
          "ticks": 13105,
          "time": 16.381249999999998,
          "value": 0.380859375
        },
        {
          "ticks": 13128,
          "time": 16.41,
          "value": 0.3173828125
        },
        {
          "ticks": 13138,
          "time": 16.4225,
          "value": 0.1112060546875
        },
        {
          "ticks": 13145,
          "time": 16.43125,
          "value": 0
        },
        {
          "ticks": 16723,
          "time": 20.90375,
          "value": 0.2698974609375
        },
        {
          "ticks": 16743,
          "time": 20.92875,
          "value": 0.5078125
        },
        {
          "ticks": 16760,
          "time": 20.95,
          "value": 0.634765625
        },
        {
          "ticks": 16798,
          "time": 20.9975,
          "value": 0.4285888671875
        },
        {
          "ticks": 16810,
          "time": 21.0125,
          "value": 0.1904296875
        },
        {
          "ticks": 16828,
          "time": 21.034999999999997,
          "value": 0.0634765625
        },
        {
          "ticks": 16830,
          "time": 21.037499999999998,
          "value": 0
        },
        {
          "ticks": 28425,
          "time": 35.53125,
          "value": 0.22216796875
        },
        {
          "ticks": 28443,
          "time": 35.55375,
          "value": 0.34912109375
        },
        {
          "ticks": 28465,
          "time": 35.58125,
          "value": 0.380859375
        },
        {
          "ticks": 28488,
          "time": 35.61,
          "value": 0.3173828125
        },
        {
          "ticks": 28498,
          "time": 35.622499999999995,
          "value": 0.1112060546875
        },
        {
          "ticks": 28505,
          "time": 35.631249999999994,
          "value": 0
        },
        {
          "ticks": 32083,
          "time": 40.10375,
          "value": 0.2698974609375
        },
        {
          "ticks": 32103,
          "time": 40.12875,
          "value": 0.5078125
        },
        {
          "ticks": 32120,
          "time": 40.15,
          "value": 0.634765625
        },
        {
          "ticks": 32158,
          "time": 40.1975,
          "value": 0.4285888671875
        },
        {
          "ticks": 32170,
          "time": 40.2125,
          "value": 0.1904296875
        },
        {
          "ticks": 32188,
          "time": 40.235,
          "value": 0.0634765625
        },
        {
          "ticks": 32190,
          "time": 40.2375,
          "value": 0
        }
      ],
      "instrument": {
        "family": "bass",
        "number": 36,
        "name": "piano"
      },
      "name": "",
      "notes": [
        {
          "duration": 0.5,
          "durationTicks": 400,
          "midi": 46,
          "name": "A#2",
          "ticks": 1920,
          "time": 2.4,
          "velocity": 0.9606299212598425
        },
        {
          "duration": 0.5,
          "durationTicks": 400,
          "midi": 58,
          "name": "A#3",
          "ticks": 1920,
          "time": 2.4,
          "velocity": 0.9606299212598425
        },
        {
          "duration": 0.26000000000000023,
          "durationTicks": 208,
          "midi": 58,
          "name": "A#3",
          "ticks": 2400,
          "time": 3,
          "velocity": 1
        },
        {
          "duration": 0.26000000000000023,
          "durationTicks": 208,
          "midi": 70,
          "name": "A#4",
          "ticks": 2400,
          "time": 3,
          "velocity": 1
        },
        {
          "duration": 0.4812500000000002,
          "durationTicks": 385,
          "midi": 56,
          "name": "G#3",
          "ticks": 2880,
          "time": 3.5999999999999996,
          "velocity": 0.9606299212598425
        },
        {
          "duration": 0.4812500000000002,
          "durationTicks": 385,
          "midi": 68,
          "name": "G#4",
          "ticks": 2880,
          "time": 3.5999999999999996,
          "velocity": 0.9606299212598425
        },
        {
          "duration": 0.17499999999999982,
          "durationTicks": 140,
          "midi": 58,
          "name": "A#3",
          "ticks": 3280,
          "time": 4.1,
          "velocity": 0.9212598425196851
        },
        {
          "duration": 0.17499999999999982,
          "durationTicks": 140,
          "midi": 70,
          "name": "A#4",
          "ticks": 3280,
          "time": 4.1,
          "velocity": 0.9212598425196851
        },
        {
          "duration": 0.07500000000000018,
          "durationTicks": 60,
          "midi": 44,
          "name": "G#2",
          "ticks": 3520,
          "time": 4.3999999999999995,
          "velocity": 0.7322834645669292
        },
        {
          "duration": 0.07500000000000018,
          "durationTicks": 60,
          "midi": 56,
          "name": "G#3",
          "ticks": 3520,
          "time": 4.3999999999999995,
          "velocity": 0.7322834645669292
        },
        {
          "duration": 0.17499999999999982,
          "durationTicks": 140,
          "midi": 45,
          "name": "A2",
          "ticks": 3600,
          "time": 4.5,
          "velocity": 0.7952755905511811
        },
        {
          "duration": 0.17499999999999982,
          "durationTicks": 140,
          "midi": 57,
          "name": "A3",
          "ticks": 3600,
          "time": 4.5,
          "velocity": 0.7952755905511811
        },
        {
          "duration": 0.36624999999999996,
          "durationTicks": 293,
          "midi": 46,
          "name": "A#2",
          "ticks": 3760,
          "time": 4.699999999999999,
          "velocity": 0.905511811023622
        },
        {
          "duration": 0.36624999999999996,
          "durationTicks": 293,
          "midi": 58,
          "name": "A#3",
          "ticks": 3760,
          "time": 4.699999999999999,
          "velocity": 0.905511811023622
        },
        {
          "duration": 0.19125000000000014,
          "durationTicks": 153,
          "midi": 46,
          "name": "A#2",
          "ticks": 4080,
          "time": 5.1,
          "velocity": 0.937007874015748
        },
        {
          "duration": 0.19125000000000014,
          "durationTicks": 153,
          "midi": 58,
          "name": "A#3",
          "ticks": 4080,
          "time": 5.1,
          "velocity": 0.937007874015748
        },
        {
          "duration": 0.1875,
          "durationTicks": 150,
          "midi": 58,
          "name": "A#3",
          "ticks": 4320,
          "time": 5.3999999999999995,
          "velocity": 0.937007874015748
        },
        {
          "duration": 0.1875,
          "durationTicks": 150,
          "midi": 70,
          "name": "A#4",
          "ticks": 4320,
          "time": 5.3999999999999995,
          "velocity": 0.937007874015748
        },
        {
          "duration": 0.2600000000000007,
          "durationTicks": 208,
          "midi": 60,
          "name": "C4",
          "ticks": 5280,
          "time": 6.6,
          "velocity": 0.8740157480314961
        },
        {
          "duration": 0.2600000000000007,
          "durationTicks": 208,
          "midi": 72,
          "name": "C5",
          "ticks": 5280,
          "time": 6.6,
          "velocity": 0.8740157480314961
        },
        {
          "duration": 0.17875000000000085,
          "durationTicks": 143,
          "midi": 58,
          "name": "A#3",
          "ticks": 5520,
          "time": 6.8999999999999995,
          "velocity": 0.8582677165354331
        },
        {
          "duration": 0.17875000000000085,
          "durationTicks": 143,
          "midi": 70,
          "name": "A#4",
          "ticks": 5520,
          "time": 6.8999999999999995,
          "velocity": 0.8582677165354331
        },
        {
          "duration": 0.09375,
          "durationTicks": 75,
          "midi": 53,
          "name": "F3",
          "ticks": 5680,
          "time": 7.1000000000000005,
          "velocity": 0.8503937007874016
        },
        {
          "duration": 0.09375,
          "durationTicks": 75,
          "midi": 65,
          "name": "F4",
          "ticks": 5680,
          "time": 7.1000000000000005,
          "velocity": 0.8503937007874016
        },
        {
          "duration": 0.41000000000000014,
          "durationTicks": 328,
          "midi": 46,
          "name": "A#2",
          "ticks": 5760,
          "time": 7.199999999999999,
          "velocity": 0.8976377952755905
        },
        {
          "duration": 0.41000000000000014,
          "durationTicks": 328,
          "midi": 58,
          "name": "A#3",
          "ticks": 5760,
          "time": 7.199999999999999,
          "velocity": 0.8976377952755905
        },
        {
          "duration": 0.2625000000000002,
          "durationTicks": 210,
          "midi": 58,
          "name": "A#3",
          "ticks": 6240,
          "time": 7.8,
          "velocity": 0.937007874015748
        },
        {
          "duration": 0.2625000000000002,
          "durationTicks": 210,
          "midi": 70,
          "name": "A#4",
          "ticks": 6240,
          "time": 7.8,
          "velocity": 0.937007874015748
        },
        {
          "duration": 0.4937499999999986,
          "durationTicks": 395,
          "midi": 56,
          "name": "G#3",
          "ticks": 6720,
          "time": 8.4,
          "velocity": 0.9212598425196851
        },
        {
          "duration": 0.4937499999999986,
          "durationTicks": 395,
          "midi": 68,
          "name": "G#4",
          "ticks": 6720,
          "time": 8.4,
          "velocity": 0.9212598425196851
        },
        {
          "duration": 0.36249999999999893,
          "durationTicks": 290,
          "midi": 58,
          "name": "A#3",
          "ticks": 7120,
          "time": 8.9,
          "velocity": 0.9291338582677166
        },
        {
          "duration": 0.36249999999999893,
          "durationTicks": 290,
          "midi": 70,
          "name": "A#4",
          "ticks": 7120,
          "time": 8.9,
          "velocity": 0.9291338582677166
        },
        {
          "duration": 0.1412500000000012,
          "durationTicks": 113,
          "midi": 44,
          "name": "G#2",
          "ticks": 7440,
          "time": 9.299999999999999,
          "velocity": 0.8740157480314961
        },
        {
          "duration": 0.1412500000000012,
          "durationTicks": 113,
          "midi": 56,
          "name": "G#3",
          "ticks": 7440,
          "time": 9.299999999999999,
          "velocity": 0.8740157480314961
        },
        {
          "duration": 0.08499999999999908,
          "durationTicks": 68,
          "midi": 45,
          "name": "A2",
          "ticks": 7600,
          "time": 9.5,
          "velocity": 0.8110236220472441
        },
        {
          "duration": 0.08499999999999908,
          "durationTicks": 68,
          "midi": 57,
          "name": "A3",
          "ticks": 7600,
          "time": 9.5,
          "velocity": 0.8110236220472441
        },
        {
          "duration": 0.2599999999999998,
          "durationTicks": 208,
          "midi": 46,
          "name": "A#2",
          "ticks": 7680,
          "time": 9.6,
          "velocity": 0.8582677165354331
        },
        {
          "duration": 0.2599999999999998,
          "durationTicks": 208,
          "midi": 58,
          "name": "A#3",
          "ticks": 7680,
          "time": 9.6,
          "velocity": 0.8582677165354331
        },
        {
          "duration": 0.21624999999999872,
          "durationTicks": 173,
          "midi": 46,
          "name": "A#2",
          "ticks": 7920,
          "time": 9.9,
          "velocity": 0.9212598425196851
        },
        {
          "duration": 0.21624999999999872,
          "durationTicks": 173,
          "midi": 58,
          "name": "A#3",
          "ticks": 7920,
          "time": 9.9,
          "velocity": 0.9212598425196851
        },
        {
          "duration": 0.2162500000000005,
          "durationTicks": 173,
          "midi": 53,
          "name": "F3",
          "ticks": 8160,
          "time": 10.2,
          "velocity": 0.8740157480314961
        },
        {
          "duration": 0.2162500000000005,
          "durationTicks": 173,
          "midi": 65,
          "name": "F4",
          "ticks": 8160,
          "time": 10.2,
          "velocity": 0.8740157480314961
        },
        {
          "duration": 0.24375000000000036,
          "durationTicks": 195,
          "midi": 53,
          "name": "F3",
          "ticks": 8400,
          "time": 10.5,
          "velocity": 0.889763779527559
        },
        {
          "duration": 0.21624999999999872,
          "durationTicks": 173,
          "midi": 65,
          "name": "F4",
          "ticks": 8400,
          "time": 10.5,
          "velocity": 0.8740157480314961
        },
        {
          "duration": 0.29749999999999943,
          "durationTicks": 238,
          "midi": 51,
          "name": "D#3",
          "ticks": 9040,
          "time": 11.299999999999999,
          "velocity": 0.8267716535433071
        },
        {
          "duration": 0.29749999999999943,
          "durationTicks": 238,
          "midi": 63,
          "name": "D#4",
          "ticks": 9040,
          "time": 11.299999999999999,
          "velocity": 0.8267716535433071
        },
        {
          "duration": 0.10999999999999943,
          "durationTicks": 88,
          "midi": 49,
          "name": "C#3",
          "ticks": 9280,
          "time": 11.6,
          "velocity": 0.8740157480314961
        },
        {
          "duration": 0.10999999999999943,
          "durationTicks": 88,
          "midi": 61,
          "name": "C#4",
          "ticks": 9280,
          "time": 11.6,
          "velocity": 0.8740157480314961
        },
        {
          "duration": 0.22250000000000014,
          "durationTicks": 178,
          "midi": 46,
          "name": "A#2",
          "ticks": 9360,
          "time": 11.7,
          "velocity": 0.6692913385826772
        },
        {
          "duration": 0.22250000000000014,
          "durationTicks": 178,
          "midi": 58,
          "name": "A#3",
          "ticks": 9360,
          "time": 11.7,
          "velocity": 0.6692913385826772
        },
        {
          "duration": 0.06875000000000142,
          "durationTicks": 55,
          "midi": 44,
          "name": "G#2",
          "ticks": 9520,
          "time": 11.899999999999999,
          "velocity": 0.5905511811023622
        },
        {
          "duration": 0.06875000000000142,
          "durationTicks": 55,
          "midi": 56,
          "name": "G#3",
          "ticks": 9520,
          "time": 11.899999999999999,
          "velocity": 0.5905511811023622
        },
        {
          "duration": 0.4999999999999982,
          "durationTicks": 400,
          "midi": 46,
          "name": "A#2",
          "ticks": 9600,
          "time": 12,
          "velocity": 0.9606299212598425
        },
        {
          "duration": 0.4999999999999982,
          "durationTicks": 400,
          "midi": 58,
          "name": "A#3",
          "ticks": 9600,
          "time": 12,
          "velocity": 0.9606299212598425
        },
        {
          "duration": 0.2599999999999998,
          "durationTicks": 208,
          "midi": 58,
          "name": "A#3",
          "ticks": 10080,
          "time": 12.6,
          "velocity": 1
        },
        {
          "duration": 0.2599999999999998,
          "durationTicks": 208,
          "midi": 70,
          "name": "A#4",
          "ticks": 10080,
          "time": 12.6,
          "velocity": 1
        },
        {
          "duration": 0.4812499999999993,
          "durationTicks": 385,
          "midi": 56,
          "name": "G#3",
          "ticks": 10560,
          "time": 13.2,
          "velocity": 0.9606299212598425
        },
        {
          "duration": 0.4812499999999993,
          "durationTicks": 385,
          "midi": 68,
          "name": "G#4",
          "ticks": 10560,
          "time": 13.2,
          "velocity": 0.9606299212598425
        },
        {
          "duration": 0.1750000000000007,
          "durationTicks": 140,
          "midi": 58,
          "name": "A#3",
          "ticks": 10960,
          "time": 13.7,
          "velocity": 0.9212598425196851
        },
        {
          "duration": 0.1750000000000007,
          "durationTicks": 140,
          "midi": 70,
          "name": "A#4",
          "ticks": 10960,
          "time": 13.7,
          "velocity": 0.9212598425196851
        },
        {
          "duration": 0.07500000000000107,
          "durationTicks": 60,
          "midi": 44,
          "name": "G#2",
          "ticks": 11200,
          "time": 13.999999999999998,
          "velocity": 0.7322834645669292
        },
        {
          "duration": 0.07500000000000107,
          "durationTicks": 60,
          "midi": 56,
          "name": "G#3",
          "ticks": 11200,
          "time": 13.999999999999998,
          "velocity": 0.7322834645669292
        },
        {
          "duration": 0.1750000000000007,
          "durationTicks": 140,
          "midi": 45,
          "name": "A2",
          "ticks": 11280,
          "time": 14.1,
          "velocity": 0.7952755905511811
        },
        {
          "duration": 0.1750000000000007,
          "durationTicks": 140,
          "midi": 57,
          "name": "A3",
          "ticks": 11280,
          "time": 14.1,
          "velocity": 0.7952755905511811
        },
        {
          "duration": 0.36625000000000085,
          "durationTicks": 293,
          "midi": 46,
          "name": "A#2",
          "ticks": 11440,
          "time": 14.299999999999999,
          "velocity": 0.905511811023622
        },
        {
          "duration": 0.36625000000000085,
          "durationTicks": 293,
          "midi": 58,
          "name": "A#3",
          "ticks": 11440,
          "time": 14.299999999999999,
          "velocity": 0.905511811023622
        },
        {
          "duration": 0.19125000000000014,
          "durationTicks": 153,
          "midi": 46,
          "name": "A#2",
          "ticks": 11760,
          "time": 14.7,
          "velocity": 0.937007874015748
        },
        {
          "duration": 0.19125000000000014,
          "durationTicks": 153,
          "midi": 58,
          "name": "A#3",
          "ticks": 11760,
          "time": 14.7,
          "velocity": 0.937007874015748
        },
        {
          "duration": 0.1875,
          "durationTicks": 150,
          "midi": 58,
          "name": "A#3",
          "ticks": 12000,
          "time": 15,
          "velocity": 0.937007874015748
        },
        {
          "duration": 0.1875,
          "durationTicks": 150,
          "midi": 70,
          "name": "A#4",
          "ticks": 12000,
          "time": 15,
          "velocity": 0.937007874015748
        },
        {
          "duration": 0.26000000000000156,
          "durationTicks": 208,
          "midi": 60,
          "name": "C4",
          "ticks": 12960,
          "time": 16.2,
          "velocity": 0.8740157480314961
        },
        {
          "duration": 0.26000000000000156,
          "durationTicks": 208,
          "midi": 72,
          "name": "C5",
          "ticks": 12960,
          "time": 16.2,
          "velocity": 0.8740157480314961
        },
        {
          "duration": 0.1787499999999973,
          "durationTicks": 143,
          "midi": 58,
          "name": "A#3",
          "ticks": 13200,
          "time": 16.5,
          "velocity": 0.8582677165354331
        },
        {
          "duration": 0.1787499999999973,
          "durationTicks": 143,
          "midi": 70,
          "name": "A#4",
          "ticks": 13200,
          "time": 16.5,
          "velocity": 0.8582677165354331
        },
        {
          "duration": 0.09375,
          "durationTicks": 75,
          "midi": 53,
          "name": "F3",
          "ticks": 13360,
          "time": 16.7,
          "velocity": 0.8503937007874016
        },
        {
          "duration": 0.09375,
          "durationTicks": 75,
          "midi": 65,
          "name": "F4",
          "ticks": 13360,
          "time": 16.7,
          "velocity": 0.8503937007874016
        },
        {
          "duration": 0.41000000000000014,
          "durationTicks": 328,
          "midi": 46,
          "name": "A#2",
          "ticks": 13440,
          "time": 16.8,
          "velocity": 0.8976377952755905
        },
        {
          "duration": 0.41000000000000014,
          "durationTicks": 328,
          "midi": 58,
          "name": "A#3",
          "ticks": 13440,
          "time": 16.8,
          "velocity": 0.8976377952755905
        },
        {
          "duration": 0.2624999999999993,
          "durationTicks": 210,
          "midi": 58,
          "name": "A#3",
          "ticks": 13920,
          "time": 17.4,
          "velocity": 0.937007874015748
        },
        {
          "duration": 0.2624999999999993,
          "durationTicks": 210,
          "midi": 70,
          "name": "A#4",
          "ticks": 13920,
          "time": 17.4,
          "velocity": 0.937007874015748
        },
        {
          "duration": 0.4937499999999986,
          "durationTicks": 395,
          "midi": 56,
          "name": "G#3",
          "ticks": 14400,
          "time": 18,
          "velocity": 0.9212598425196851
        },
        {
          "duration": 0.4937499999999986,
          "durationTicks": 395,
          "midi": 68,
          "name": "G#4",
          "ticks": 14400,
          "time": 18,
          "velocity": 0.9212598425196851
        },
        {
          "duration": 0.3625000000000007,
          "durationTicks": 290,
          "midi": 58,
          "name": "A#3",
          "ticks": 14800,
          "time": 18.5,
          "velocity": 0.9291338582677166
        },
        {
          "duration": 0.3625000000000007,
          "durationTicks": 290,
          "midi": 70,
          "name": "A#4",
          "ticks": 14800,
          "time": 18.5,
          "velocity": 0.9291338582677166
        },
        {
          "duration": 0.14124999999999943,
          "durationTicks": 113,
          "midi": 44,
          "name": "G#2",
          "ticks": 15120,
          "time": 18.9,
          "velocity": 0.8740157480314961
        },
        {
          "duration": 0.14124999999999943,
          "durationTicks": 113,
          "midi": 56,
          "name": "G#3",
          "ticks": 15120,
          "time": 18.9,
          "velocity": 0.8740157480314961
        },
        {
          "duration": 0.08500000000000085,
          "durationTicks": 68,
          "midi": 45,
          "name": "A2",
          "ticks": 15280,
          "time": 19.099999999999998,
          "velocity": 0.8110236220472441
        },
        {
          "duration": 0.08500000000000085,
          "durationTicks": 68,
          "midi": 57,
          "name": "A3",
          "ticks": 15280,
          "time": 19.099999999999998,
          "velocity": 0.8110236220472441
        },
        {
          "duration": 0.259999999999998,
          "durationTicks": 208,
          "midi": 46,
          "name": "A#2",
          "ticks": 15360,
          "time": 19.2,
          "velocity": 0.8582677165354331
        },
        {
          "duration": 0.259999999999998,
          "durationTicks": 208,
          "midi": 58,
          "name": "A#3",
          "ticks": 15360,
          "time": 19.2,
          "velocity": 0.8582677165354331
        },
        {
          "duration": 0.21624999999999872,
          "durationTicks": 173,
          "midi": 46,
          "name": "A#2",
          "ticks": 15600,
          "time": 19.5,
          "velocity": 0.9212598425196851
        },
        {
          "duration": 0.21624999999999872,
          "durationTicks": 173,
          "midi": 58,
          "name": "A#3",
          "ticks": 15600,
          "time": 19.5,
          "velocity": 0.9212598425196851
        },
        {
          "duration": 0.21624999999999872,
          "durationTicks": 173,
          "midi": 53,
          "name": "F3",
          "ticks": 15840,
          "time": 19.8,
          "velocity": 0.8740157480314961
        },
        {
          "duration": 0.21624999999999872,
          "durationTicks": 173,
          "midi": 65,
          "name": "F4",
          "ticks": 15840,
          "time": 19.8,
          "velocity": 0.8740157480314961
        },
        {
          "duration": 0.24375000000000213,
          "durationTicks": 195,
          "midi": 53,
          "name": "F3",
          "ticks": 16080,
          "time": 20.099999999999998,
          "velocity": 0.889763779527559
        },
        {
          "duration": 0.21625000000000227,
          "durationTicks": 173,
          "midi": 65,
          "name": "F4",
          "ticks": 16080,
          "time": 20.099999999999998,
          "velocity": 0.8740157480314961
        },
        {
          "duration": 0.2974999999999959,
          "durationTicks": 238,
          "midi": 51,
          "name": "D#3",
          "ticks": 16720,
          "time": 20.900000000000002,
          "velocity": 0.8267716535433071
        },
        {
          "duration": 0.2974999999999959,
          "durationTicks": 238,
          "midi": 63,
          "name": "D#4",
          "ticks": 16720,
          "time": 20.900000000000002,
          "velocity": 0.8267716535433071
        },
        {
          "duration": 0.10999999999999943,
          "durationTicks": 88,
          "midi": 49,
          "name": "C#3",
          "ticks": 16960,
          "time": 21.2,
          "velocity": 0.8740157480314961
        },
        {
          "duration": 0.10999999999999943,
          "durationTicks": 88,
          "midi": 61,
          "name": "C#4",
          "ticks": 16960,
          "time": 21.2,
          "velocity": 0.8740157480314961
        },
        {
          "duration": 0.2224999999999966,
          "durationTicks": 178,
          "midi": 46,
          "name": "A#2",
          "ticks": 17040,
          "time": 21.3,
          "velocity": 0.6692913385826772
        },
        {
          "duration": 0.2224999999999966,
          "durationTicks": 178,
          "midi": 58,
          "name": "A#3",
          "ticks": 17040,
          "time": 21.3,
          "velocity": 0.6692913385826772
        },
        {
          "duration": 0.06874999999999787,
          "durationTicks": 55,
          "midi": 44,
          "name": "G#2",
          "ticks": 17200,
          "time": 21.5,
          "velocity": 0.5905511811023622
        },
        {
          "duration": 0.06874999999999787,
          "durationTicks": 55,
          "midi": 56,
          "name": "G#3",
          "ticks": 17200,
          "time": 21.5,
          "velocity": 0.5905511811023622
        },
        {
          "duration": 0.5187500000000043,
          "durationTicks": 415,
          "midi": 51,
          "name": "D#3",
          "ticks": 17280,
          "time": 21.599999999999998,
          "velocity": 0.7874015748031497
        },
        {
          "duration": 0.5162499999999994,
          "durationTicks": 413,
          "midi": 50,
          "name": "D3",
          "ticks": 17760,
          "time": 22.2,
          "velocity": 0.8818897637795275
        },
        {
          "duration": 0.4349999999999987,
          "durationTicks": 348,
          "midi": 49,
          "name": "C#3",
          "ticks": 18240,
          "time": 22.8,
          "velocity": 0.7874015748031497
        },
        {
          "duration": 0.11250000000000071,
          "durationTicks": 90,
          "midi": 48,
          "name": "C3",
          "ticks": 18640,
          "time": 23.3,
          "velocity": 0.8818897637795275
        },
        {
          "duration": 0.09375,
          "durationTicks": 75,
          "midi": 46,
          "name": "A#2",
          "ticks": 19120,
          "time": 23.900000000000002,
          "velocity": 0.7874015748031497
        },
        {
          "duration": 0.14124999999999943,
          "durationTicks": 113,
          "midi": 46,
          "name": "A#2",
          "ticks": 19360,
          "time": 24.2,
          "velocity": 0.7874015748031497
        },
        {
          "duration": 0.08500000000000085,
          "durationTicks": 68,
          "midi": 46,
          "name": "A#2",
          "ticks": 19600,
          "time": 24.5,
          "velocity": 0.28346456692913385
        },
        {
          "duration": 0.12250000000000227,
          "durationTicks": 98,
          "midi": 48,
          "name": "C3",
          "ticks": 19680,
          "time": 24.599999999999998,
          "velocity": 0.8818897637795275
        },
        {
          "duration": 0.13500000000000156,
          "durationTicks": 108,
          "midi": 48,
          "name": "C3",
          "ticks": 19920,
          "time": 24.9,
          "velocity": 0.6929133858267716
        },
        {
          "duration": 0.5537500000000009,
          "durationTicks": 443,
          "midi": 49,
          "name": "C#3",
          "ticks": 20160,
          "time": 25.2,
          "velocity": 0.984251968503937
        },
        {
          "duration": 0.3662499999999973,
          "durationTicks": 293,
          "midi": 50,
          "name": "D3",
          "ticks": 20640,
          "time": 25.8,
          "velocity": 0.8818897637795275
        },
        {
          "duration": 0.7099999999999973,
          "durationTicks": 568,
          "midi": 51,
          "name": "D#3",
          "ticks": 21120,
          "time": 26.4,
          "velocity": 0.8818897637795275
        },
        {
          "duration": 0.5599999999999987,
          "durationTicks": 448,
          "midi": 50,
          "name": "D3",
          "ticks": 21600,
          "time": 27,
          "velocity": 0.8818897637795275
        },
        {
          "duration": 0.5937500000000036,
          "durationTicks": 475,
          "midi": 49,
          "name": "C#3",
          "ticks": 22080,
          "time": 27.599999999999998,
          "velocity": 0.8818897637795275
        },
        {
          "duration": 0.447499999999998,
          "durationTicks": 358,
          "midi": 48,
          "name": "C3",
          "ticks": 22480,
          "time": 28.1,
          "velocity": 0.7874015748031497
        },
        {
          "duration": 0.07249999999999801,
          "durationTicks": 58,
          "midi": 46,
          "name": "A#2",
          "ticks": 22960,
          "time": 28.7,
          "velocity": 0.8818897637795275
        },
        {
          "duration": 0.603749999999998,
          "durationTicks": 483,
          "midi": 46,
          "name": "A#2",
          "ticks": 23200,
          "time": 29,
          "velocity": 0.8818897637795275
        },
        {
          "duration": 0.21624999999999872,
          "durationTicks": 173,
          "midi": 43,
          "name": "G2",
          "ticks": 24000,
          "time": 30,
          "velocity": 0.8818897637795275
        },
        {
          "duration": 0.21000000000000085,
          "durationTicks": 168,
          "midi": 41,
          "name": "F2",
          "ticks": 24240,
          "time": 30.299999999999997,
          "velocity": 0.6929133858267716
        },
        {
          "duration": 0.15000000000000213,
          "durationTicks": 120,
          "midi": 43,
          "name": "G2",
          "ticks": 24480,
          "time": 30.599999999999998,
          "velocity": 0.7874015748031497
        },
        {
          "duration": 0.12249999999999872,
          "durationTicks": 98,
          "midi": 44,
          "name": "G#2",
          "ticks": 24640,
          "time": 30.8,
          "velocity": 0.7874015748031497
        },
        {
          "duration": 0.15625,
          "durationTicks": 125,
          "midi": 45,
          "name": "A2",
          "ticks": 24720,
          "time": 30.9,
          "velocity": 0.7874015748031497
        },
        {
          "duration": 0.5,
          "durationTicks": 400,
          "midi": 46,
          "name": "A#2",
          "ticks": 24960,
          "time": 31.2,
          "velocity": 0.9606299212598425
        },
        {
          "duration": 0.5,
          "durationTicks": 400,
          "midi": 58,
          "name": "A#3",
          "ticks": 24960,
          "time": 31.2,
          "velocity": 0.9606299212598425
        },
        {
          "duration": 0.259999999999998,
          "durationTicks": 208,
          "midi": 58,
          "name": "A#3",
          "ticks": 25440,
          "time": 31.799999999999997,
          "velocity": 1
        },
        {
          "duration": 0.259999999999998,
          "durationTicks": 208,
          "midi": 70,
          "name": "A#4",
          "ticks": 25440,
          "time": 31.799999999999997,
          "velocity": 1
        },
        {
          "duration": 0.48125000000000284,
          "durationTicks": 385,
          "midi": 56,
          "name": "G#3",
          "ticks": 25920,
          "time": 32.4,
          "velocity": 0.9606299212598425
        },
        {
          "duration": 0.48125000000000284,
          "durationTicks": 385,
          "midi": 68,
          "name": "G#4",
          "ticks": 25920,
          "time": 32.4,
          "velocity": 0.9606299212598425
        },
        {
          "duration": 0.17499999999999716,
          "durationTicks": 140,
          "midi": 58,
          "name": "A#3",
          "ticks": 26320,
          "time": 32.9,
          "velocity": 0.9212598425196851
        },
        {
          "duration": 0.17499999999999716,
          "durationTicks": 140,
          "midi": 70,
          "name": "A#4",
          "ticks": 26320,
          "time": 32.9,
          "velocity": 0.9212598425196851
        },
        {
          "duration": 0.07499999999999574,
          "durationTicks": 60,
          "midi": 44,
          "name": "G#2",
          "ticks": 26560,
          "time": 33.2,
          "velocity": 0.7322834645669292
        },
        {
          "duration": 0.07499999999999574,
          "durationTicks": 60,
          "midi": 56,
          "name": "G#3",
          "ticks": 26560,
          "time": 33.2,
          "velocity": 0.7322834645669292
        },
        {
          "duration": 0.17499999999999716,
          "durationTicks": 140,
          "midi": 45,
          "name": "A2",
          "ticks": 26640,
          "time": 33.3,
          "velocity": 0.7952755905511811
        },
        {
          "duration": 0.17499999999999716,
          "durationTicks": 140,
          "midi": 57,
          "name": "A3",
          "ticks": 26640,
          "time": 33.3,
          "velocity": 0.7952755905511811
        },
        {
          "duration": 0.36625000000000085,
          "durationTicks": 293,
          "midi": 46,
          "name": "A#2",
          "ticks": 26800,
          "time": 33.5,
          "velocity": 0.905511811023622
        },
        {
          "duration": 0.36625000000000085,
          "durationTicks": 293,
          "midi": 58,
          "name": "A#3",
          "ticks": 26800,
          "time": 33.5,
          "velocity": 0.905511811023622
        },
        {
          "duration": 0.1912500000000037,
          "durationTicks": 153,
          "midi": 46,
          "name": "A#2",
          "ticks": 27120,
          "time": 33.9,
          "velocity": 0.937007874015748
        },
        {
          "duration": 0.1912500000000037,
          "durationTicks": 153,
          "midi": 58,
          "name": "A#3",
          "ticks": 27120,
          "time": 33.9,
          "velocity": 0.937007874015748
        },
        {
          "duration": 0.1875,
          "durationTicks": 150,
          "midi": 58,
          "name": "A#3",
          "ticks": 27360,
          "time": 34.199999999999996,
          "velocity": 0.937007874015748
        },
        {
          "duration": 0.1875,
          "durationTicks": 150,
          "midi": 70,
          "name": "A#4",
          "ticks": 27360,
          "time": 34.199999999999996,
          "velocity": 0.937007874015748
        },
        {
          "duration": 0.259999999999998,
          "durationTicks": 208,
          "midi": 60,
          "name": "C4",
          "ticks": 28320,
          "time": 35.4,
          "velocity": 0.8740157480314961
        },
        {
          "duration": 0.259999999999998,
          "durationTicks": 208,
          "midi": 72,
          "name": "C5",
          "ticks": 28320,
          "time": 35.4,
          "velocity": 0.8740157480314961
        },
        {
          "duration": 0.17875000000000085,
          "durationTicks": 143,
          "midi": 58,
          "name": "A#3",
          "ticks": 28560,
          "time": 35.699999999999996,
          "velocity": 0.8582677165354331
        },
        {
          "duration": 0.17875000000000085,
          "durationTicks": 143,
          "midi": 70,
          "name": "A#4",
          "ticks": 28560,
          "time": 35.699999999999996,
          "velocity": 0.8582677165354331
        },
        {
          "duration": 0.09375,
          "durationTicks": 75,
          "midi": 53,
          "name": "F3",
          "ticks": 28720,
          "time": 35.9,
          "velocity": 0.8503937007874016
        },
        {
          "duration": 0.09375,
          "durationTicks": 75,
          "midi": 65,
          "name": "F4",
          "ticks": 28720,
          "time": 35.9,
          "velocity": 0.8503937007874016
        },
        {
          "duration": 0.4099999999999966,
          "durationTicks": 328,
          "midi": 46,
          "name": "A#2",
          "ticks": 28800,
          "time": 36,
          "velocity": 0.8976377952755905
        },
        {
          "duration": 0.4099999999999966,
          "durationTicks": 328,
          "midi": 58,
          "name": "A#3",
          "ticks": 28800,
          "time": 36,
          "velocity": 0.8976377952755905
        },
        {
          "duration": 0.26249999999999574,
          "durationTicks": 210,
          "midi": 58,
          "name": "A#3",
          "ticks": 29280,
          "time": 36.6,
          "velocity": 0.937007874015748
        },
        {
          "duration": 0.26249999999999574,
          "durationTicks": 210,
          "midi": 70,
          "name": "A#4",
          "ticks": 29280,
          "time": 36.6,
          "velocity": 0.937007874015748
        },
        {
          "duration": 0.4937499999999986,
          "durationTicks": 395,
          "midi": 56,
          "name": "G#3",
          "ticks": 29760,
          "time": 37.199999999999996,
          "velocity": 0.9212598425196851
        },
        {
          "duration": 0.4937499999999986,
          "durationTicks": 395,
          "midi": 68,
          "name": "G#4",
          "ticks": 29760,
          "time": 37.199999999999996,
          "velocity": 0.9212598425196851
        },
        {
          "duration": 0.36249999999999716,
          "durationTicks": 290,
          "midi": 58,
          "name": "A#3",
          "ticks": 30160,
          "time": 37.7,
          "velocity": 0.9291338582677166
        },
        {
          "duration": 0.36249999999999716,
          "durationTicks": 290,
          "midi": 70,
          "name": "A#4",
          "ticks": 30160,
          "time": 37.7,
          "velocity": 0.9291338582677166
        },
        {
          "duration": 0.14124999999999943,
          "durationTicks": 113,
          "midi": 44,
          "name": "G#2",
          "ticks": 30480,
          "time": 38.1,
          "velocity": 0.8740157480314961
        },
        {
          "duration": 0.14124999999999943,
          "durationTicks": 113,
          "midi": 56,
          "name": "G#3",
          "ticks": 30480,
          "time": 38.1,
          "velocity": 0.8740157480314961
        },
        {
          "duration": 0.08500000000000085,
          "durationTicks": 68,
          "midi": 45,
          "name": "A2",
          "ticks": 30640,
          "time": 38.3,
          "velocity": 0.8110236220472441
        },
        {
          "duration": 0.08500000000000085,
          "durationTicks": 68,
          "midi": 57,
          "name": "A3",
          "ticks": 30640,
          "time": 38.3,
          "velocity": 0.8110236220472441
        },
        {
          "duration": 0.2600000000000051,
          "durationTicks": 208,
          "midi": 46,
          "name": "A#2",
          "ticks": 30720,
          "time": 38.4,
          "velocity": 0.8582677165354331
        },
        {
          "duration": 0.2600000000000051,
          "durationTicks": 208,
          "midi": 58,
          "name": "A#3",
          "ticks": 30720,
          "time": 38.4,
          "velocity": 0.8582677165354331
        },
        {
          "duration": 0.21625000000000227,
          "durationTicks": 173,
          "midi": 46,
          "name": "A#2",
          "ticks": 30960,
          "time": 38.699999999999996,
          "velocity": 0.9212598425196851
        },
        {
          "duration": 0.21625000000000227,
          "durationTicks": 173,
          "midi": 58,
          "name": "A#3",
          "ticks": 30960,
          "time": 38.699999999999996,
          "velocity": 0.9212598425196851
        },
        {
          "duration": 0.21624999999999517,
          "durationTicks": 173,
          "midi": 53,
          "name": "F3",
          "ticks": 31200,
          "time": 39,
          "velocity": 0.8740157480314961
        },
        {
          "duration": 0.21624999999999517,
          "durationTicks": 173,
          "midi": 65,
          "name": "F4",
          "ticks": 31200,
          "time": 39,
          "velocity": 0.8740157480314961
        },
        {
          "duration": 0.24374999999999858,
          "durationTicks": 195,
          "midi": 53,
          "name": "F3",
          "ticks": 31440,
          "time": 39.3,
          "velocity": 0.889763779527559
        },
        {
          "duration": 0.21625000000000227,
          "durationTicks": 173,
          "midi": 65,
          "name": "F4",
          "ticks": 31440,
          "time": 39.3,
          "velocity": 0.8740157480314961
        },
        {
          "duration": 0.29750000000000654,
          "durationTicks": 238,
          "midi": 51,
          "name": "D#3",
          "ticks": 32080,
          "time": 40.099999999999994,
          "velocity": 0.8267716535433071
        },
        {
          "duration": 0.29750000000000654,
          "durationTicks": 238,
          "midi": 63,
          "name": "D#4",
          "ticks": 32080,
          "time": 40.099999999999994,
          "velocity": 0.8267716535433071
        },
        {
          "duration": 0.10999999999999943,
          "durationTicks": 88,
          "midi": 49,
          "name": "C#3",
          "ticks": 32320,
          "time": 40.4,
          "velocity": 0.8740157480314961
        },
        {
          "duration": 0.10999999999999943,
          "durationTicks": 88,
          "midi": 61,
          "name": "C#4",
          "ticks": 32320,
          "time": 40.4,
          "velocity": 0.8740157480314961
        },
        {
          "duration": 0.2225000000000037,
          "durationTicks": 178,
          "midi": 46,
          "name": "A#2",
          "ticks": 32400,
          "time": 40.5,
          "velocity": 0.6692913385826772
        },
        {
          "duration": 0.2225000000000037,
          "durationTicks": 178,
          "midi": 58,
          "name": "A#3",
          "ticks": 32400,
          "time": 40.5,
          "velocity": 0.6692913385826772
        },
        {
          "duration": 0.06875000000000853,
          "durationTicks": 55,
          "midi": 44,
          "name": "G#2",
          "ticks": 32560,
          "time": 40.699999999999996,
          "velocity": 0.5905511811023622
        },
        {
          "duration": 0.06875000000000853,
          "durationTicks": 55,
          "midi": 56,
          "name": "G#3",
          "ticks": 32560,
          "time": 40.699999999999996,
          "velocity": 0.5905511811023622
        },
        {
          "duration": 0.13125000000000142,
          "durationTicks": 105,
          "midi": 53,
          "name": "F3",
          "ticks": 32640,
          "time": 40.8,
          "velocity": 0.8818897637795275
        },
        {
          "duration": 0.10375000000000512,
          "durationTicks": 83,
          "midi": 41,
          "name": "F2",
          "ticks": 32800,
          "time": 40.99999999999999,
          "velocity": 0.7874015748031497
        },
        {
          "duration": 0.9250000000000043,
          "durationTicks": 740,
          "midi": 41,
          "name": "F2",
          "ticks": 33040,
          "time": 41.3,
          "velocity": 0.7874015748031497
        },
        {
          "duration": 0.5375000000000014,
          "durationTicks": 430,
          "midi": 53,
          "name": "F3",
          "ticks": 33360,
          "time": 41.699999999999996,
          "velocity": 0.8818897637795275
        },
        {
          "duration": 0.48125000000000995,
          "durationTicks": 385,
          "midi": 41,
          "name": "F2",
          "ticks": 34000,
          "time": 42.49999999999999,
          "velocity": 0.8818897637795275
        },
        {
          "duration": 0.18500000000000227,
          "durationTicks": 148,
          "midi": 53,
          "name": "F3",
          "ticks": 34320,
          "time": 42.9,
          "velocity": 0.8818897637795275
        },
        {
          "duration": 0.1287500000000037,
          "durationTicks": 103,
          "midi": 41,
          "name": "F2",
          "ticks": 34480,
          "time": 43.099999999999994,
          "velocity": 0.6929133858267716
        },
        {
          "duration": 1.0125000000000028,
          "durationTicks": 810,
          "midi": 56,
          "name": "G#3",
          "ticks": 34560,
          "time": 43.199999999999996,
          "velocity": 0.7874015748031497
        },
        {
          "duration": 0.7662499999999994,
          "durationTicks": 613,
          "midi": 44,
          "name": "G#2",
          "ticks": 34960,
          "time": 43.699999999999996,
          "velocity": 0.984251968503937
        },
        {
          "duration": 0.5937500000000071,
          "durationTicks": 475,
          "midi": 56,
          "name": "G#3",
          "ticks": 35440,
          "time": 44.3,
          "velocity": 0.8818897637795275
        },
        {
          "duration": 0.17499999999999716,
          "durationTicks": 140,
          "midi": 44,
          "name": "G#2",
          "ticks": 35920,
          "time": 44.9,
          "velocity": 0.8818897637795275
        },
        {
          "duration": 0.39124999999999943,
          "durationTicks": 313,
          "midi": 56,
          "name": "G#3",
          "ticks": 36000,
          "time": 45,
          "velocity": 0.8818897637795275
        },
        {
          "duration": 0.27250000000000085,
          "durationTicks": 218,
          "midi": 44,
          "name": "G#2",
          "ticks": 36240,
          "time": 45.3,
          "velocity": 0.7874015748031497
        },
        {
          "duration": 0.53125,
          "durationTicks": 425,
          "midi": 47,
          "name": "B2",
          "ticks": 36480,
          "time": 45.6,
          "velocity": 0.8818897637795275
        },
        {
          "duration": 1.125,
          "durationTicks": 900,
          "midi": 59,
          "name": "B3",
          "ticks": 36880,
          "time": 46.099999999999994,
          "velocity": 0.8818897637795275
        },
        {
          "duration": 1.053750000000008,
          "durationTicks": 843,
          "midi": 47,
          "name": "B2",
          "ticks": 37360,
          "time": 46.699999999999996,
          "velocity": 0.8818897637795275
        },
        {
          "duration": 0.20625000000000426,
          "durationTicks": 165,
          "midi": 59,
          "name": "B3",
          "ticks": 38160,
          "time": 47.699999999999996,
          "velocity": 0.8818897637795275
        },
        {
          "duration": 0.11249999999999716,
          "durationTicks": 90,
          "midi": 47,
          "name": "B2",
          "ticks": 38320,
          "time": 47.9,
          "velocity": 0.8818897637795275
        },
        {
          "duration": 0.11249999999999716,
          "durationTicks": 90,
          "midi": 48,
          "name": "C3",
          "ticks": 38400,
          "time": 48,
          "velocity": 0.6929133858267716
        },
        {
          "duration": 0.978749999999998,
          "durationTicks": 783,
          "midi": 60,
          "name": "C4",
          "ticks": 38400,
          "time": 48,
          "velocity": 0.8818897637795275
        },
        {
          "duration": 0.15374999999999517,
          "durationTicks": 123,
          "midi": 48,
          "name": "C3",
          "ticks": 38640,
          "time": 48.3,
          "velocity": 0.8818897637795275
        },
        {
          "duration": 0.3162499999999966,
          "durationTicks": 253,
          "midi": 48,
          "name": "C3",
          "ticks": 38880,
          "time": 48.6,
          "velocity": 0.8818897637795275
        },
        {
          "duration": 0.4725000000000037,
          "durationTicks": 378,
          "midi": 48,
          "name": "C3",
          "ticks": 39280,
          "time": 49.099999999999994,
          "velocity": 0.8818897637795275
        },
        {
          "duration": 0.6725000000000065,
          "durationTicks": 538,
          "midi": 60,
          "name": "C4",
          "ticks": 39280,
          "time": 49.099999999999994,
          "velocity": 0.8818897637795275
        },
        {
          "duration": 0.16875000000000284,
          "durationTicks": 135,
          "midi": 48,
          "name": "C3",
          "ticks": 39760,
          "time": 49.699999999999996,
          "velocity": 0.8818897637795275
        },
        {
          "duration": 0.5350000000000037,
          "durationTicks": 428,
          "midi": 60,
          "name": "C4",
          "ticks": 39840,
          "time": 49.8,
          "velocity": 0.8818897637795275
        },
        {
          "duration": 0.26874999999999716,
          "durationTicks": 215,
          "midi": 48,
          "name": "C3",
          "ticks": 40080,
          "time": 50.1,
          "velocity": 0.984251968503937
        },
        {
          "duration": 0.478749999999998,
          "durationTicks": 383,
          "midi": 47,
          "name": "B2",
          "ticks": 40320,
          "time": 50.4,
          "velocity": 0.984251968503937
        },
        {
          "duration": 0.125,
          "durationTicks": 100,
          "midi": 59,
          "name": "B3",
          "ticks": 40720,
          "time": 50.9,
          "velocity": 0.8818897637795275
        },
        {
          "duration": 0.11250000000000426,
          "durationTicks": 90,
          "midi": 47,
          "name": "B2",
          "ticks": 41200,
          "time": 51.49999999999999,
          "velocity": 0.8818897637795275
        },
        {
          "duration": 0.11625000000000796,
          "durationTicks": 93,
          "midi": 47,
          "name": "B2",
          "ticks": 41680,
          "time": 52.099999999999994,
          "velocity": 0.8818897637795275
        },
        {
          "duration": 0.26624999999999943,
          "durationTicks": 213,
          "midi": 59,
          "name": "B3",
          "ticks": 41760,
          "time": 52.199999999999996,
          "velocity": 0.8818897637795275
        },
        {
          "duration": 0.08500000000000085,
          "durationTicks": 68,
          "midi": 47,
          "name": "B2",
          "ticks": 42000,
          "time": 52.5,
          "velocity": 0.8818897637795275
        },
        {
          "duration": 0.32874999999999943,
          "durationTicks": 263,
          "midi": 47,
          "name": "B2",
          "ticks": 42240,
          "time": 52.8,
          "velocity": 0.8818897637795275
        },
        {
          "duration": 0.17250000000000654,
          "durationTicks": 138,
          "midi": 47,
          "name": "B2",
          "ticks": 42640,
          "time": 53.3,
          "velocity": 0.8818897637795275
        },
        {
          "duration": 0.2537500000000037,
          "durationTicks": 203,
          "midi": 59,
          "name": "B3",
          "ticks": 42960,
          "time": 53.699999999999996,
          "velocity": 0.8818897637795275
        },
        {
          "duration": 0.3062499999999986,
          "durationTicks": 245,
          "midi": 47,
          "name": "B2",
          "ticks": 43200,
          "time": 54,
          "velocity": 0.984251968503937
        },
        {
          "duration": 0.13500000000000512,
          "durationTicks": 108,
          "midi": 42,
          "name": "F#2",
          "ticks": 43600,
          "time": 54.49999999999999,
          "velocity": 0.7874015748031497
        },
        {
          "duration": 0.11250000000000426,
          "durationTicks": 90,
          "midi": 54,
          "name": "F#3",
          "ticks": 43600,
          "time": 54.49999999999999,
          "velocity": 0.8818897637795275
        },
        {
          "duration": 0.45375000000000654,
          "durationTicks": 363,
          "midi": 44,
          "name": "G#2",
          "ticks": 43840,
          "time": 54.8,
          "velocity": 0.8818897637795275
        },
        {
          "duration": 0.2850000000000037,
          "durationTicks": 228,
          "midi": 56,
          "name": "G#3",
          "ticks": 43840,
          "time": 54.8,
          "velocity": 0.8818897637795275
        },
        {
          "duration": 0.1287500000000037,
          "durationTicks": 103,
          "midi": 56,
          "name": "G#3",
          "ticks": 44080,
          "time": 55.099999999999994,
          "velocity": 0.18110236220472442
        },
        {
          "duration": 0.6000000000000014,
          "durationTicks": 480,
          "midi": 47,
          "name": "B2",
          "ticks": 44160,
          "time": 55.199999999999996,
          "velocity": 0.8818897637795275
        },
        {
          "duration": 0.42875000000000796,
          "durationTicks": 343,
          "midi": 59,
          "name": "B3",
          "ticks": 44160,
          "time": 55.199999999999996,
          "velocity": 0.6929133858267716
        },
        {
          "duration": 0.32500000000000284,
          "durationTicks": 260,
          "midi": 59,
          "name": "B3",
          "ticks": 44640,
          "time": 55.8,
          "velocity": 0.984251968503937
        },
        {
          "duration": 0.13125000000000142,
          "durationTicks": 105,
          "midi": 47,
          "name": "B2",
          "ticks": 45040,
          "time": 56.3,
          "velocity": 0.8818897637795275
        },
        {
          "duration": 0.10000000000000142,
          "durationTicks": 80,
          "midi": 47,
          "name": "B2",
          "ticks": 45280,
          "time": 56.599999999999994,
          "velocity": 0.7874015748031497
        },
        {
          "duration": 0.13124999999999432,
          "durationTicks": 105,
          "midi": 47,
          "name": "B2",
          "ticks": 45520,
          "time": 56.9,
          "velocity": 0.8818897637795275
        },
        {
          "duration": 0.259999999999998,
          "durationTicks": 208,
          "midi": 59,
          "name": "B3",
          "ticks": 45600,
          "time": 57,
          "velocity": 0.8818897637795275
        },
        {
          "duration": 0.08125000000000426,
          "durationTicks": 65,
          "midi": 47,
          "name": "B2",
          "ticks": 45840,
          "time": 57.3,
          "velocity": 0.8818897637795275
        },
        {
          "duration": 0.5350000000000037,
          "durationTicks": 428,
          "midi": 47,
          "name": "B2",
          "ticks": 46080,
          "time": 57.599999999999994,
          "velocity": 0.8818897637795275
        },
        {
          "duration": 0.5037500000000037,
          "durationTicks": 403,
          "midi": 59,
          "name": "B3",
          "ticks": 46480,
          "time": 58.099999999999994,
          "velocity": 0.8818897637795275
        },
        {
          "duration": 0.4062499999999929,
          "durationTicks": 325,
          "midi": 47,
          "name": "B2",
          "ticks": 46800,
          "time": 58.5,
          "velocity": 0.8818897637795275
        },
        {
          "duration": 0.10625000000000995,
          "durationTicks": 85,
          "midi": 42,
          "name": "F#2",
          "ticks": 47200,
          "time": 58.99999999999999,
          "velocity": 0.8818897637795275
        },
        {
          "duration": 0.2749999999999986,
          "durationTicks": 220,
          "midi": 54,
          "name": "F#3",
          "ticks": 47280,
          "time": 59.099999999999994,
          "velocity": 0.984251968503937
        },
        {
          "duration": 0.14999999999999858,
          "durationTicks": 120,
          "midi": 44,
          "name": "G#2",
          "ticks": 47520,
          "time": 59.4,
          "velocity": 0.984251968503937
        },
        {
          "duration": 0.36625000000000085,
          "durationTicks": 293,
          "midi": 56,
          "name": "G#3",
          "ticks": 47680,
          "time": 59.599999999999994,
          "velocity": 0.8818897637795275
        },
        {
          "duration": 0.478749999999998,
          "durationTicks": 383,
          "midi": 47,
          "name": "B2",
          "ticks": 48000,
          "time": 60,
          "velocity": 0.984251968503937
        },
        {
          "duration": 0.1250000000000071,
          "durationTicks": 100,
          "midi": 59,
          "name": "B3",
          "ticks": 48400,
          "time": 60.49999999999999,
          "velocity": 0.8818897637795275
        },
        {
          "duration": 0.11249999999999716,
          "durationTicks": 90,
          "midi": 47,
          "name": "B2",
          "ticks": 48880,
          "time": 61.099999999999994,
          "velocity": 0.8818897637795275
        },
        {
          "duration": 0.11625000000000085,
          "durationTicks": 93,
          "midi": 47,
          "name": "B2",
          "ticks": 49360,
          "time": 61.699999999999996,
          "velocity": 0.8818897637795275
        },
        {
          "duration": 0.26624999999999943,
          "durationTicks": 213,
          "midi": 59,
          "name": "B3",
          "ticks": 49440,
          "time": 61.8,
          "velocity": 0.8818897637795275
        },
        {
          "duration": 0.08500000000000085,
          "durationTicks": 68,
          "midi": 47,
          "name": "B2",
          "ticks": 49680,
          "time": 62.099999999999994,
          "velocity": 0.8818897637795275
        },
        {
          "duration": 0.32874999999999943,
          "durationTicks": 263,
          "midi": 47,
          "name": "B2",
          "ticks": 49920,
          "time": 62.4,
          "velocity": 0.8818897637795275
        },
        {
          "duration": 0.17250000000000654,
          "durationTicks": 138,
          "midi": 47,
          "name": "B2",
          "ticks": 50320,
          "time": 62.89999999999999,
          "velocity": 0.8818897637795275
        },
        {
          "duration": 0.2537499999999966,
          "durationTicks": 203,
          "midi": 59,
          "name": "B3",
          "ticks": 50640,
          "time": 63.3,
          "velocity": 0.8818897637795275
        },
        {
          "duration": 0.3062500000000057,
          "durationTicks": 245,
          "midi": 47,
          "name": "B2",
          "ticks": 50880,
          "time": 63.599999999999994,
          "velocity": 0.984251968503937
        },
        {
          "duration": 0.13500000000000512,
          "durationTicks": 108,
          "midi": 42,
          "name": "F#2",
          "ticks": 51280,
          "time": 64.1,
          "velocity": 0.7874015748031497
        },
        {
          "duration": 0.11249999999999716,
          "durationTicks": 90,
          "midi": 54,
          "name": "F#3",
          "ticks": 51280,
          "time": 64.1,
          "velocity": 0.8818897637795275
        },
        {
          "duration": 0.45375000000001364,
          "durationTicks": 363,
          "midi": 44,
          "name": "G#2",
          "ticks": 51520,
          "time": 64.39999999999999,
          "velocity": 0.8818897637795275
        },
        {
          "duration": 0.2850000000000108,
          "durationTicks": 228,
          "midi": 56,
          "name": "G#3",
          "ticks": 51520,
          "time": 64.39999999999999,
          "velocity": 0.8818897637795275
        },
        {
          "duration": 0.1287500000000108,
          "durationTicks": 103,
          "midi": 56,
          "name": "G#3",
          "ticks": 51760,
          "time": 64.69999999999999,
          "velocity": 0.18110236220472442
        },
        {
          "duration": 0.5999999999999943,
          "durationTicks": 480,
          "midi": 47,
          "name": "B2",
          "ticks": 51840,
          "time": 64.8,
          "velocity": 0.8818897637795275
        },
        {
          "duration": 0.42875000000000796,
          "durationTicks": 343,
          "midi": 59,
          "name": "B3",
          "ticks": 51840,
          "time": 64.8,
          "velocity": 0.6929133858267716
        },
        {
          "duration": 0.32500000000000284,
          "durationTicks": 260,
          "midi": 59,
          "name": "B3",
          "ticks": 52320,
          "time": 65.39999999999999,
          "velocity": 0.984251968503937
        },
        {
          "duration": 0.13125000000000853,
          "durationTicks": 105,
          "midi": 47,
          "name": "B2",
          "ticks": 52720,
          "time": 65.89999999999999,
          "velocity": 0.8818897637795275
        },
        {
          "duration": 0.10000000000000853,
          "durationTicks": 80,
          "midi": 47,
          "name": "B2",
          "ticks": 52960,
          "time": 66.19999999999999,
          "velocity": 0.7874015748031497
        },
        {
          "duration": 0.13124999999999432,
          "durationTicks": 105,
          "midi": 47,
          "name": "B2",
          "ticks": 53200,
          "time": 66.5,
          "velocity": 0.8818897637795275
        },
        {
          "duration": 0.2600000000000051,
          "durationTicks": 208,
          "midi": 59,
          "name": "B3",
          "ticks": 53280,
          "time": 66.6,
          "velocity": 0.8818897637795275
        },
        {
          "duration": 0.08125000000001137,
          "durationTicks": 65,
          "midi": 47,
          "name": "B2",
          "ticks": 53520,
          "time": 66.89999999999999,
          "velocity": 0.8818897637795275
        },
        {
          "duration": 0.35624999999998863,
          "durationTicks": 285,
          "midi": 48,
          "name": "C3",
          "ticks": 53760,
          "time": 67.2,
          "velocity": 0.8818897637795275
        },
        {
          "duration": 0.35624999999998863,
          "durationTicks": 285,
          "midi": 60,
          "name": "C4",
          "ticks": 53760,
          "time": 67.2,
          "velocity": 0.8818897637795275
        },
        {
          "duration": 0.11000000000001364,
          "durationTicks": 88,
          "midi": 47,
          "name": "B2",
          "ticks": 54160,
          "time": 67.69999999999999,
          "velocity": 0.8818897637795275
        },
        {
          "duration": 0.11000000000001364,
          "durationTicks": 88,
          "midi": 59,
          "name": "B3",
          "ticks": 54160,
          "time": 67.69999999999999,
          "velocity": 0.8818897637795275
        },
        {
          "duration": 0.08750000000000568,
          "durationTicks": 70,
          "midi": 46,
          "name": "A#2",
          "ticks": 54400,
          "time": 68,
          "velocity": 0.7874015748031497
        },
        {
          "duration": 0.08750000000000568,
          "durationTicks": 70,
          "midi": 58,
          "name": "A#3",
          "ticks": 54400,
          "time": 68,
          "velocity": 0.7874015748031497
        },
        {
          "duration": 1.25,
          "durationTicks": 1000,
          "midi": 45,
          "name": "A2",
          "ticks": 54640,
          "time": 68.3,
          "velocity": 0.984251968503937
        },
        {
          "duration": 1.25,
          "durationTicks": 1000,
          "midi": 57,
          "name": "A3",
          "ticks": 54640,
          "time": 68.3,
          "velocity": 0.984251968503937
        },
        {
          "duration": 0.5,
          "durationTicks": 400,
          "midi": 46,
          "name": "A#2",
          "ticks": 55680,
          "time": 69.6,
          "velocity": 0.9606299212598425
        },
        {
          "duration": 0.5,
          "durationTicks": 400,
          "midi": 58,
          "name": "A#3",
          "ticks": 55680,
          "time": 69.6,
          "velocity": 0.9606299212598425
        },
        {
          "duration": 0.2599999999999909,
          "durationTicks": 208,
          "midi": 58,
          "name": "A#3",
          "ticks": 56160,
          "time": 70.2,
          "velocity": 1
        },
        {
          "duration": 0.2599999999999909,
          "durationTicks": 208,
          "midi": 70,
          "name": "A#4",
          "ticks": 56160,
          "time": 70.2,
          "velocity": 1
        }
      ]
    }
  ]
}