<svg xmlns="http://www.w3.org/2000/svg" fill="#8B0000" xmlns:xlink="http://www.w3.org/1999/xlink" version="1.1" x="0px" y="0px" viewBox="0 0 48 60" enable-background="new 0 0 48 48" xml:space="preserve"><path d="M44.2,24.5c-1.7-1.7-3.9-2.8-6.4-3.2c-2-0.3-3.7-1.4-4.7-2.9c-0.5-0.8-1.2-1.5-1.9-2.1c-1.6-1.2-3.5-1.9-5.6-1.9  c-2.2,0-4.5,0.7-6.3,2.1l-7.6-7.6c0.8-0.8,0.8-2,0-2.8c-0.8-0.8-2-0.8-2.8,0L7.5,4.7c0.8-0.8,0.7-2,0-2.8c-0.8-0.8-2-0.8-2.8,0  L3.8,1.1c-0.8-0.8-2-0.8-2.8,0c-0.8,0.8-0.8,2,0,2.8L2,4.7c-0.8,0.8-0.7,2,0,2.8c0.4,0.4,0.9,0.6,1.4,0.6c0.5,0,1-0.2,1.4-0.6  l1.3,1.4c-0.8,0.8-0.7,2,0,2.8C6.5,12,7,12.2,7.5,12.2c0.5,0,1-0.2,1.4-0.6l7.6,7.6c-1.2,1.7-2,3.8-2.1,5.8  c-0.1,2.7,0.8,5.1,2.6,6.9c0.4,0.4,0.8,0.7,1.2,1c1.7,1.2,2.8,3,3.3,5.3c0.4,2.3,1.5,4.4,3.2,6c2.1,2.1,5.1,3.3,8.3,3.3h0  c3.5,0,7.1-1.4,9.8-3.9c3-2.8,4.8-6.6,4.9-10.5C47.6,29.7,46.4,26.7,44.2,24.5z M31.8,31.6c-0.4,0.4-0.9,0.6-1.4,0.6  c-0.5,0-1-0.2-1.4-0.6l-0.4-0.4c-0.8-0.8-0.8-2,0-2.8c0.8-0.8,2-0.8,2.8,0l0.4,0.4C32.6,29.6,32.6,30.8,31.8,31.6z"/></svg>