<?xml version="1.0" standalone="no"?>
<!DOCTYPE svg PUBLIC "-//W3C//DTD SVG 20010904//EN"
 "http://www.w3.org/TR/2001/REC-SVG-20010904/DTD/svg10.dtd">
<svg version="1.0" xmlns="http://www.w3.org/2000/svg"
 width="1080.000000pt" height="1280.000000pt" viewBox="0 0 1080.000000 1280.000000"
 preserveAspectRatio="xMidYMid meet">
<metadata>
Created by potrace 1.15, written by Peter Selinger 2001-2017
</metadata>
<g transform="translate(0.000000,1280.000000) scale(0.100000,-0.100000)"
fill="#8B0000" stroke="none">
<path d="M3295 11035 c-27 -80 -37 -84 -71 -31 -40 61 -56 83 -48 67 5 -10 3
-13 -9 -8 -9 3 -19 2 -22 -4 -4 -5 -11 -7 -16 -4 -10 7 -68 -24 -70 -37 -1 -4
-2 -11 -3 -15 -3 -18 -33 -49 -57 -60 -15 -6 -46 -41 -70 -77 -23 -36 -46 -63
-51 -60 -4 3 -8 0 -8 -6 0 -9 -34 -64 -50 -80 -12 -12 -140 -276 -141 -290 0
-10 -3 -8 -9 5 -7 17 -9 16 -9 -9 -1 -47 -61 -383 -81 -455 -10 -37 -41 -137
-69 -224 -85 -267 -143 -554 -167 -832 l-7 -80 -23 140 c-49 303 -56 624 -20
840 18 105 19 119 4 85 -6 -14 -10 -28 -10 -32 1 -5 -2 -8 -7 -8 -5 0 -40 -32
-77 -71 -159 -165 -328 -309 -363 -309 -6 0 -11 -3 -11 -7 0 -5 -15 -17 -32
-28 -37 -23 -52 -33 -145 -97 -37 -26 -89 -56 -115 -68 -26 -11 -50 -24 -52
-29 -3 -5 -34 -19 -68 -32 -35 -12 -72 -28 -83 -35 -11 -7 -60 -26 -109 -44
-50 -17 -96 -36 -103 -41 -6 -6 -17 -8 -23 -4 -15 9 -13 -8 19 -214 16 -102
32 -229 35 -281 4 -52 27 -315 52 -585 46 -488 47 -491 35 -664 -24 -353 -74
-696 -140 -954 -43 -166 -112 -530 -157 -822 -32 -207 -10 -511 81 -1150 53
-373 128 -623 246 -828 72 -124 198 -294 257 -348 134 -120 458 -350 852 -606
36 -23 142 -106 235 -184 389 -325 456 -368 781 -507 1373 -586 3151 -891
4321 -742 447 57 867 176 1236 349 419 196 775 484 901 728 20 39 113 329 163
508 l36 129 -6 206 c-3 113 -13 266 -22 340 -40 344 -230 1218 -324 1490 -124
361 -460 1019 -644 1263 -28 37 -54 67 -58 67 -3 0 -82 82 -175 182 -93 100
-231 248 -307 327 -76 80 -140 157 -144 171 -3 14 -15 42 -25 63 -11 22 -18
41 -16 43 3 2 85 11 184 20 98 9 183 20 188 24 5 5 -9 6 -30 4 -22 -2 -109
-11 -194 -19 l-154 -15 -36 34 c-19 18 -54 45 -76 59 -47 29 -111 134 -150
247 -22 61 -22 65 -6 93 24 41 82 89 160 132 37 20 57 33 44 30 -31 -9 -233
90 -327 159 -57 42 -147 145 -139 158 4 7 3 8 -4 4 -6 -4 -18 6 -27 24 -9 17
-20 28 -26 25 -5 -4 -8 -2 -7 4 2 6 -10 21 -25 33 -15 13 -29 32 -31 43 -2 11
-7 20 -12 20 -5 0 -27 20 -49 44 -112 124 -245 248 -358 331 -151 112 -210
163 -199 175 4 4 -7 1 -23 -8 -29 -15 -39 -13 -180 23 -83 22 -178 42 -212 46
-35 4 -63 10 -63 13 0 9 120 81 198 120 l62 31 -37 42 c-110 121 -415 419
-460 449 -29 20 -50 39 -46 42 3 4 4 7 1 7 -9 0 -365 -148 -399 -165 l-28 -15
-25 82 c-14 46 -39 134 -56 197 -17 63 -51 155 -75 205 -54 113 -163 297 -173
293 -4 -1 -21 8 -37 21 -29 23 -123 83 -206 132 -23 14 -63 39 -88 55 -25 17
-80 50 -121 74 -41 24 -92 55 -112 68 -21 12 -40 23 -43 23 -3 0 -49 25 -103
57 -89 51 -384 203 -396 203 -5 0 -45 18 -236 105 -52 24 -122 52 -155 63 -67
22 -115 41 -192 77 -29 14 -74 30 -100 36 -27 7 -72 23 -102 36 -30 13 -68 23
-85 21 -17 -1 -45 6 -62 15 -18 9 -62 17 -105 19 -41 2 -76 6 -79 10 -4 4 -14
-17 -25 -47z m899 -1855 c36 -40 74 -106 65 -114 -2 -2 -46 -6 -97 -8 l-93 -4
6 60 c10 104 11 106 49 106 27 0 41 -8 70 -40z"/>
<path d="M8682 7333 c-61 -52 -10 -151 63 -122 16 6 15 8 -11 8 -80 2 -88 111
-8 111 21 0 33 4 29 10 -10 16 -51 12 -73 -7z"/>
<path d="M8787 7292 c-24 -27 -21 -59 8 -78 23 -15 27 -15 50 0 30 20 33 56 7
79 -24 22 -45 21 -65 -1z m58 -37 c0 -25 -4 -30 -25 -30 -16 0 -26 6 -28 18
-6 30 6 49 30 45 18 -2 23 -9 23 -33z"/>
<path d="M8890 7252 c0 -33 4 -51 10 -47 6 3 10 22 10 41 0 22 6 37 15 40 24
9 17 22 -10 20 -23 -1 -25 -5 -25 -54z"/>
<path d="M8966 7294 c-22 -22 -20 -60 5 -77 46 -33 97 19 65 68 -19 28 -47 32
-70 9z m59 -25 c8 -26 -16 -54 -39 -46 -16 6 -22 48 -9 60 14 14 42 6 48 -14z"/>
<path d="M9070 7252 c0 -33 4 -51 10 -47 6 3 10 22 10 41 0 23 6 37 16 41 21
8 35 -15 31 -50 -2 -15 0 -30 5 -33 13 -8 9 83 -4 94 -7 6 -25 10 -40 9 -27
-2 -28 -4 -28 -55z"/>
<path d="M9190 7300 c-12 -8 -9 -10 13 -10 33 0 35 -12 5 -25 -22 -10 -38 -54
-21 -56 64 -6 63 -7 63 36 0 56 -24 78 -60 55z m43 -65 c-6 -17 -29 -20 -38
-6 -6 11 25 32 37 25 4 -3 5 -11 1 -19z"/>
<path d="M9280 7260 c0 -27 5 -52 10 -55 6 -4 10 10 10 35 0 27 5 43 15 46 23
9 18 19 -10 20 -23 2 -25 -1 -25 -46z"/>
<path d="M9350 7300 c0 -5 7 -28 16 -50 15 -38 15 -42 0 -59 -22 -24 -20 -34
3 -21 18 9 61 104 61 132 0 18 -14 -1 -26 -35 l-11 -32 -16 38 c-15 36 -27 48
-27 27z"/>
<path d="M8801 7038 c-12 -34 -21 -66 -21 -70 0 -17 18 -7 23 12 3 13 14 20
30 20 17 0 28 -7 32 -20 3 -11 11 -20 17 -20 5 0 8 6 5 13 -2 6 -13 38 -23 70
-10 31 -23 57 -30 57 -7 0 -22 -28 -33 -62z m43 10 c5 -23 3 -28 -13 -28 -18
0 -19 3 -9 31 12 34 13 34 22 -3z"/>
<path d="M8990 7075 c0 -8 -6 -15 -12 -15 -10 0 -10 -2 -1 -8 6 -4 13 -25 15
-47 2 -31 7 -40 23 -42 11 -2 14 0 8 3 -7 3 -13 23 -13 44 0 21 6 41 13 43 10
4 10 6 0 6 -7 1 -13 8 -13 16 0 8 -4 15 -10 15 -5 0 -10 -7 -10 -15z"/>
<path d="M8910 7009 c0 -27 5 -49 10 -49 6 0 10 16 10 35 0 22 6 38 15 41 23
9 18 22 -10 22 -23 0 -25 -4 -25 -49z"/>
<path d="M9062 7048 c-7 -7 -12 -24 -12 -38 0 -35 18 -50 55 -49 29 2 29 2 3
6 -14 2 -32 11 -38 19 -11 12 -7 14 23 14 42 0 48 7 36 38 -9 24 -47 30 -67
10z m48 -13 c11 -13 8 -15 -14 -15 -25 0 -33 10 -19 23 10 11 19 8 33 -8z"/>
<path d="M9160 7008 c0 -27 5 -48 10 -48 6 0 10 16 10 36 0 23 6 41 17 49 16
12 15 13 -10 12 -25 -2 -27 -5 -27 -49z"/>
<path d="M9220 7056 c0 -2 9 -25 20 -50 l19 -46 -21 -20 c-19 -18 -20 -20 -4
-20 12 0 27 21 47 65 32 71 33 75 20 75 -4 0 -15 -17 -23 -37 l-14 -38 -13 38
c-7 20 -17 37 -22 37 -5 0 -9 -2 -9 -4z"/>
</g>
</svg>
