<?xml version="1.0" standalone="no"?>
<!DOCTYPE svg PUBLIC "-//W3C//DTD SVG 20010904//EN"
 "http://www.w3.org/TR/2001/REC-SVG-20010904/DTD/svg10.dtd">
<svg version="1.0" xmlns="http://www.w3.org/2000/svg"
 width="1280.000000pt" height="1280.000000pt" viewBox="0 0 1280.000000 1280.000000"
 preserveAspectRatio="xMidYMid meet">
<metadata>
Created by potrace 1.15, written by Peter Selinger 2001-2017
</metadata>
<g transform="translate(0.000000,1280.000000) scale(0.100000,-0.100000)"
fill="#FFFBCC" stroke="none">
<path d="M6030 9273 c-350 -33 -665 -106 -950 -220 -727 -290 -1326 -839
-1678 -1538 -153 -304 -269 -686 -318 -1045 -24 -175 -24 -615 0 -790 116
-854 527 -1584 1191 -2117 319 -256 703 -454 1085 -561 347 -97 586 -132 911
-132 904 0 1779 392 2378 1065 355 398 587 834 722 1355 43 164 45 205 12 261
-42 71 -164 81 -217 18 -14 -17 -42 -60 -63 -97 -330 -593 -889 -1026 -1533
-1186 -230 -58 -337 -70 -595 -71 -246 0 -356 12 -565 61 -590 138 -1122 510
-1464 1024 -162 242 -291 545 -350 820 -87 403 -69 871 48 1240 30 93 107 283
151 370 305 606 830 1048 1484 1250 115 36 144 57 160 117 22 79 -25 153 -109
172 -42 10 -219 12 -300 4z"/>
</g>
</svg>
